<svg xmlns="http://www.w3.org/2000/svg" viewBox="0 0 132.89 222.4"><defs><style>.cls-1,.cls-4{fill:#006464;}.cls-2,.cls-3{fill:#6bffba;}.cls-3{font-size:16.53px;font-family:NotoSansCJKtc-Medium, NotoSansCJKtc Medium-B5pc-H;letter-spacing:0.1em;}.cls-4,.cls-6{stroke:#6bffba;stroke-linecap:round;stroke-linejoin:round;stroke-width:5.25px;}.cls-5{fill:#3c9195;}.cls-6{fill:none;}</style></defs><title>資產 10</title><g id="圖層_2" data-name="圖層 2"><g id="UI"><path class="cls-1" d="M111.4,217.15H24.32A15.93,15.93,0,0,1,8.39,201.22h0a15.93,15.93,0,0,1,15.93-15.93H112a15.62,15.62,0,0,1,15.62,15.62h0A16.24,16.24,0,0,1,111.4,217.15Z"/><path class="cls-2" d="M112,185.29a15.62,15.62,0,0,1,15.62,15.62,16.24,16.24,0,0,1-16.24,16.24H24.32A15.93,15.93,0,0,1,8.39,201.22h0a15.93,15.93,0,0,1,15.93-15.93H112m0-5.25H24.32a21.18,21.18,0,1,0,0,42.35H111.4a21.51,21.51,0,0,0,21.49-21.49A20.89,20.89,0,0,0,112,180Z"/><text class="cls-3" transform="translate(34.08 207.85)">頂樓直達</text><rect class="cls-4" x="31.44" y="44.65" width="76.35" height="115.5"/><path class="cls-2" d="M5.05,95.19c1-1.52,2.48-1.5,3.39.06l4.18,7.15c.91,1.55.18,2.82-1.62,2.82H2c-1.8,0-2.49-1.25-1.53-2.77Z"/><path class="cls-5" d="M8,122.11c-1,1.52-2.48,1.5-3.39-.06L.39,114.9c-.91-1.55-.18-2.82,1.62-2.82h9c1.8,0,2.49,1.25,1.53,2.77Z"/><path class="cls-2" d="M80.13,94.56H54.45A2.58,2.58,0,0,0,51.76,97v12.77a2.46,2.46,0,1,0,4.9,0v-7.63a2.57,2.57,0,1,1,5.13,0v37.24a2.49,2.49,0,0,1-2.2,2.68,2.34,2.34,0,0,0-2.2,2.45A2.58,2.58,0,0,0,60.06,147H64a2.58,2.58,0,0,0,2.68-2.45V125a2.69,2.69,0,0,1,2.68-2.68h.51A2.69,2.69,0,0,1,72.55,125v19.53A2.58,2.58,0,0,0,75.24,147h3.94a2.58,2.58,0,0,0,2.68-2.45,2.34,2.34,0,0,0-2.2-2.45,2.49,2.49,0,0,1-2.2-2.68V102.14a2.57,2.57,0,1,1,5.13,0v7.63a2.46,2.46,0,1,0,4.9,0V97a2.58,2.58,0,0,0-2.68-2.45Z"/><path class="cls-2" d="M68.12,79.31c.95-1.51,2.46-1.48,3.35.05l4.13,7.07c.9,1.54.18,2.79-1.6,2.79H65.11c-1.78,0-2.46-1.23-1.51-2.74Z"/><line class="cls-6" x1="62.22" y1="44.65" x2="62.22" y2="23.49"/><line class="cls-6" x1="76.36" y1="44.65" x2="76.36" y2="22.72"/><line class="cls-6" x1="62.22" y1="10.59" x2="62.22" y2="2.62"/><line class="cls-6" x1="76.36" y1="9.83" x2="76.36" y2="2.62"/></g></g></svg>