<svg xmlns="http://www.w3.org/2000/svg" viewBox="0 0 90.7 55.26"><defs><style>.cls-1{fill:#6bffba;}</style></defs><title>資產 5</title><g id="圖層_2" data-name="圖層 2"><g id="圖層_5" data-name="圖層 5"><path class="cls-1" d="M8.43,4.21,6.88,9.58l.07.07A8.2,8.2,0,0,1,7.77,9a5,5,0,0,1,1-.5A5.7,5.7,0,0,1,10,8.17a10.55,10.55,0,0,1,1.61-.11,6.16,6.16,0,0,1,2.51.52,6.41,6.41,0,0,1,2.1,1.49,7.24,7.24,0,0,1,1.46,2.36,8.6,8.6,0,0,1,.54,3.15,11.32,11.32,0,0,1-.75,4.21A8.89,8.89,0,0,1,12.25,25a10.84,10.84,0,0,1-3.95.7,8.9,8.9,0,0,1-6-1.87Q.14,21.92,0,17.86H4.61a3.35,3.35,0,0,0,1.17,2.75,4.52,4.52,0,0,0,2.86.88,4.38,4.38,0,0,0,1.85-.4A4.66,4.66,0,0,0,12,20a5.2,5.2,0,0,0,1-1.67,5.89,5.89,0,0,0,.37-2.12,4.42,4.42,0,0,0-1-3.22,4,4,0,0,0-3-1.06,4.43,4.43,0,0,0-2.17.5A4.62,4.62,0,0,0,5.56,14H1.22L5.35,0h14l-.85,4.21Z"/><path class="cls-1" d="M57.16,45.81C62.49,51.22,67.8,55.26,69,55.26s6.69-3.93,11.83-9c6.28-6.18,9.88-11.78,9.88-15.35V1.28H47.28V30.91C47.28,34,50.88,39.44,57.16,45.81Zm13.27-2.46a1.32,1.32,0,0,1,0,.28v9.27a1.47,1.47,0,1,1-2.94,0V43.62a1.28,1.28,0,0,1,0-.32c-3.53-.25-5.88-1.19-5.88-2.39a.86.86,0,0,1,1.65-.33c.39.31,2.2,1.08,6.17,1.08s5.77-.76,6.17-1.08a.86.86,0,0,1,1.65.33C77.32,42.23,74.5,43.22,70.43,43.35Zm1.75-32.18,0,0a12.56,12.56,0,0,1,13.4-4.36,1.47,1.47,0,1,1-.81,2.83A9.53,9.53,0,0,0,74.51,13l-.27-.07.2.16a1.47,1.47,0,1,1-2.26-1.88Zm14.59,6a1.47,1.47,0,0,1-1.47,1.47H76.46a1.47,1.47,0,1,1,0-2.94H85.3A1.47,1.47,0,0,1,86.77,17.19ZM51.48,7.45a1.46,1.46,0,0,1,.88-.7,12.55,12.55,0,0,1,13.4,4.36,1.49,1.49,0,0,1-1.14,2.44,1.38,1.38,0,0,1-1.08-.5l-.08-.1A9.52,9.52,0,0,0,53.16,9.58a1.47,1.47,0,0,1-1.69-2.13ZM64,17.19a1.47,1.47,0,0,1-1.47,1.47H53.7a1.47,1.47,0,1,1,0-2.94h8.84A1.47,1.47,0,0,1,64,17.19ZM49.86,30.46a.86.86,0,0,1,1.06-.6C58.82,32,63,27.64,63,27.59a.85.85,0,0,1,.59-.28.88.88,0,0,1,.62.22.86.86,0,0,1,.06,1.21,12.53,12.53,0,0,1-9,3.45h-.13c.85,1.1,2,2.13,2.58,2.13H63.3c.58-.07,3.61-.58,3.61-3.31a1.88,1.88,0,0,1,0-.34,1.47,1.47,0,0,1,.29-2.91h2.21V15.16a1.47,1.47,0,1,1,2.94,0V30.71H71a1.88,1.88,0,0,1,0,.31c0,2.72,3,3.23,3.64,3.31h5.56c.79,0,1.9-1.17,2.5-2.13h0a12.54,12.54,0,0,1-9-3.45A.86.86,0,0,1,75,27.59c.17.18,4.17,4.46,12.1,2.27a.86.86,0,1,1,.46,1.66c-.35.1-.72.19-1.12.27A2.08,2.08,0,0,1,86.53,34c-.26.46-2.61,4.46-6.26,4.46H74.41A9.34,9.34,0,0,1,69,36.07a9.34,9.34,0,0,1-5.4,2.41H57.7c-3.53,0-6.22-4.14-6.72-5a2.05,2.05,0,0,1-.12-1.9l-.4-.1A.86.86,0,0,1,49.86,30.46Z"/></g></g></svg>