<svg xmlns="http://www.w3.org/2000/svg" viewBox="0 0 86.76 53.58"><defs><style>.cls-1{fill:#6bffba;}</style></defs><title>資產 4</title><g id="圖層_2" data-name="圖層 2"><g id="圖層_5" data-name="圖層 5"><path class="cls-1" d="M19.54,16.45l-.85,4.21H15.55l-1.19,5.83H9.79L11,20.66H0L.88,16,14.73,1.29h4.67l-3,15.16ZM13.75,6.76h-.07L4.78,16.45h7Z"/><path class="cls-1" d="M62.91,10.23A11.91,11.91,0,0,0,51,22.13V36.38a11.91,11.91,0,0,0,23.82,0V22.13A11.91,11.91,0,0,0,62.91,10.23Zm-.43,31.53a5.51,5.51,0,0,1-6.81-5.38V22.13a5.51,5.51,0,0,1,6.81-5.38,5.53,5.53,0,0,0-4.25,5.38V36.38A5.53,5.53,0,0,0,62.48,41.76Zm7.27-3.11a1.7,1.7,0,0,1-1.7-1.7V20.72c0-.47-.41-5.25-5.14-5.25a1.7,1.7,0,0,1,0-3.4c6.47,0,8.42,5.61,8.54,8.58V37A1.7,1.7,0,0,1,69.75,38.65Z"/><path class="cls-1" d="M85.26,4.58H83.43V1.5a1.5,1.5,0,0,0-3,0V4.58H78.59a1.5,1.5,0,0,0,0,3h1.83v4.17a1.5,1.5,0,0,0,3,0V7.58h1.83a1.5,1.5,0,0,0,0-3Z"/><path class="cls-1" d="M44.59,45.25H42.93V41.92a1.5,1.5,0,0,0-3,0v3.33h-2.5a1.5,1.5,0,0,0,0,3h2.5v3.83a1.5,1.5,0,0,0,3,0V48.25h1.67a1.5,1.5,0,0,0,0-3Z"/></g></g></svg>