<svg xmlns="http://www.w3.org/2000/svg" viewBox="0 0 101.7 45.55"><defs><style>.cls-1{fill:#6bffba;}</style></defs><title>資產 3</title><g id="圖層_2" data-name="圖層 2"><g id="圖層_5" data-name="圖層 5"><path class="cls-1" d="M10,10.69a8.83,8.83,0,0,0,1.58-.14A4.53,4.53,0,0,0,13.06,10a3.14,3.14,0,0,0,1.08-1,3,3,0,0,0,.42-1.66,3.28,3.28,0,0,0-.27-1.4,3,3,0,0,0-.71-1,2.71,2.71,0,0,0-1-.58,4.25,4.25,0,0,0-1.24-.18A4.05,4.05,0,0,0,8.25,5.29,6.47,6.47,0,0,0,6.77,8.53H2.2a10,10,0,0,1,3-6.34A8.89,8.89,0,0,1,11.38,0a11.92,11.92,0,0,1,2.83.34,7.32,7.32,0,0,1,2.51,1.12,6,6,0,0,1,1.8,2,6.34,6.34,0,0,1,.69,3.1A5.88,5.88,0,0,1,18,10.4a5.56,5.56,0,0,1-3.22,2v.07a4.42,4.42,0,0,1,2.57,1.91,6.43,6.43,0,0,1,.75,3.24,8.82,8.82,0,0,1-.78,3.85,7.38,7.38,0,0,1-2.12,2.66,9,9,0,0,1-3.1,1.55,13.61,13.61,0,0,1-3.76.5q-4.37,0-6.45-2.29T0,17.06H4.57a5,5,0,0,0,.75,3.6A3.61,3.61,0,0,0,8.43,22a4.69,4.69,0,0,0,3.25-1.19A4.32,4.32,0,0,0,13,17.42,2.82,2.82,0,0,0,12,15a3.82,3.82,0,0,0-2.39-.74H7.92l.64-3.6Z"/><circle class="cls-1" cx="81.23" cy="36.82" r="4.37"/><path class="cls-1" d="M90.14,19.68H50.22A11.56,11.56,0,0,0,39.47,27a11.55,11.55,0,0,0,9.19,18.56H88.58a11.56,11.56,0,0,0,10.74-7.3,11.55,11.55,0,0,0-9.19-18.57ZM48.66,43a6.22,6.22,0,1,1,6.22-6.22A6.22,6.22,0,0,1,48.66,43Zm16.07,0a6.22,6.22,0,1,1,6.22-6.22A6.22,6.22,0,0,1,64.73,43Zm16.5,0a6.22,6.22,0,1,1,6.22-6.22A6.22,6.22,0,0,1,81.23,43Z"/><path class="cls-1" d="M76.18,12.53a1.62,1.62,0,0,1-2.91,0L70.44,6.68a1.62,1.62,0,1,1,2.92-1.41l2.83,5.84A1.62,1.62,0,0,1,76.18,12.53Z"/><path class="cls-1" d="M82.62,12.32a1.62,1.62,0,0,1-3.07-.74l.12-7.46a1.62,1.62,0,0,1,3.24.05l-.12,7.46A1.62,1.62,0,0,1,82.62,12.32Z"/><path class="cls-1" d="M92,7,89,13.1a1.62,1.62,0,1,1-2.91-1.43l3-6.13A1.62,1.62,0,0,1,92,7Z"/></g></g></svg>