<svg xmlns="http://www.w3.org/2000/svg" viewBox="0 0 107.86 61.75"><defs><style>.cls-1{font-size:36px;font-family:HelveticaNeue-BoldItalic, Helvetica Neue;font-weight:700;font-style:italic;letter-spacing:0.2em;}.cls-1,.cls-2{fill:#6bffba;}</style></defs><title>資產 2</title><g id="圖層_2" data-name="圖層 2"><g id="圖層_5" data-name="圖層 5"><text class="cls-1" transform="translate(1.39 30.85) scale(0.94 1)">2</text><path class="cls-2" d="M87.63,21.79a2.12,2.12,0,0,0,2.18-2A2,2,0,0,0,87.66,18l-41.41,0a2.72,2.72,0,0,0-2.55,2.43l-1.51,9a1.88,1.88,0,0,0,1.7,2.44,2.09,2.09,0,0,0,2.1-2l1-5.78A2.5,2.5,0,0,1,49.25,22c1.07,0,1.6,1,1.4,2.14L45.9,51.74a2.67,2.67,0,0,1-2.53,2.14H40.74A2.63,2.63,0,0,0,38.23,56l-.57,3.59a1.89,1.89,0,0,0,1.84,2.14,2.25,2.25,0,0,0,2.06-2,2.6,2.6,0,0,1,2.52-2h2a3.82,3.82,0,0,0,3.6-3l2.07-11a2.73,2.73,0,0,1,2.57-2.13h6.27a1.8,1.8,0,0,1,1.83,2.14L60,59.18a2.15,2.15,0,0,0,2.19,2.56h3.87c1.19,0,2.4-.55,2.4-2,0-.69-.55-1.71-2.16-1.71h0a1.8,1.8,0,0,1-1.83-2.14l2.38-15.15a2.57,2.57,0,0,0-2.62-3.06H62.63a1.8,1.8,0,0,1-1.83-2.14l2.14-13.64Z"/><path class="cls-2" d="M58.58,6.85a1.19,1.19,0,0,1,2.21.24l2.87,6.27a1.29,1.29,0,0,1-1.27,2H54.33c-1.19,0-1.58-.78-.86-1.73Z"/><path class="cls-2" d="M88.83,6.85A1.19,1.19,0,0,1,91,7.1l2.87,6.27a1.29,1.29,0,0,1-1.27,2H84.57c-1.19,0-1.58-.78-.86-1.73Z"/><path class="cls-2" d="M93.18,17.94H85.9a2.75,2.75,0,0,0-2.58,2.13L80.6,34Z"/><path class="cls-2" d="M106.18,8a2.67,2.67,0,0,0-2.46,2.13l-1.1,5.64A2.75,2.75,0,0,1,100,17.94H97.73L79.09,41.72l-.67,3.44a2.75,2.75,0,0,1-2.58,2.13H72a2.75,2.75,0,0,0-2.58,2.13l-.75,3.82a1.68,1.68,0,0,0,1.63,2.13,2.58,2.58,0,0,0,2.44-2,2.66,2.66,0,0,1,2.56-2h3.85a2.75,2.75,0,0,0,2.58-2.13l1.17-6a2.75,2.75,0,0,1,2.58-2.13H86a1.72,1.72,0,0,1,1.75,2.13l-3.2,16.36a1.72,1.72,0,0,0,1.75,2.13h3.45a2.7,2.7,0,0,0,2.57-2,1.57,1.57,0,0,0-1.44-2c-1,0-1.66-1-1.43-2.13l6.16-31.37A2.75,2.75,0,0,1,98.2,22h5.13a2.75,2.75,0,0,0,2.58-2.13l1.9-9.73A1.68,1.68,0,0,0,106.18,8Z"/></g></g></svg>