<svg id="圖層_1" data-name="圖層 1" xmlns="http://www.w3.org/2000/svg" viewBox="0 0 495.93 832"><defs><style>.cls-1{fill:#bebebe;stroke:#bebebe;}.cls-1,.cls-2,.cls-4,.cls-6,.cls-7{stroke-linecap:round;}.cls-1,.cls-2{stroke-linejoin:round;stroke-width:9.42px;}.cls-2,.cls-3{fill:#00364b;}.cls-2,.cls-6{stroke:#00364b;}.cls-4,.cls-6,.cls-7{fill:none;stroke-miterlimit:10;}.cls-4{stroke:#e0e0e0;}.cls-4,.cls-6{stroke-width:4px;}.cls-5{fill:#e0e0e0;}.cls-7{stroke:#6bffba;stroke-width:6px;}</style></defs><title>Rethink Taiwan_Landing page animation 4</title><polygon class="cls-1" points="388.06 31.71 284.13 28.36 238.56 90.44 348.83 91.35 388.06 31.71"/><polygon class="cls-1" points="227.41 116.29 225.75 367.06 332.54 456.96 337.69 117.2 227.41 116.29"/><polygon class="cls-2" points="176.87 513.03 176.81 813.95 216.18 738.56 216.2 540.18 176.87 513.03"/><polygon class="cls-1" points="339.08 574.73 34.03 319.4 34.03 415.88 34.07 415.91 34.07 808.75 148.27 808.75 149.07 507.83 229.99 573.82 339.08 574.73"/><polygon class="cls-2" points="367.27 117.27 363.02 457.03 166.27 299.09 55.91 299.09 362.22 554.7 401.58 479.31 406.6 57.63 367.27 117.27"/><path class="cls-3" d="M221,512.55c1.81,0,3.3,1.8,3.3,4v13.53a4,4,0,0,0,4,4H255.2a4,4,0,0,0,4-4V516.55c0-2.2,1.48-4,3.3-4s3.3,1.8,3.3,4v20.12a4,4,0,0,1-4,4h-5.5a4,4,0,0,0-4,4v51.79c0,2.2,1.34,4,3,4a3.16,3.16,0,0,1,3,3.3c0,1.81-1.8,3.3-4,3.3H249.7a4,4,0,0,1-4-4V575.44a4,4,0,0,0-4-4h-9a4,4,0,0,0-4,4v14.08a4,4,0,0,1-4,4h-3.81c-2.2,0-4-1.35-4-3a2.82,2.82,0,0,1,2.56-3c1.41,0,2.56-1.8,2.56-4V569.27a4,4,0,0,1,4-4h1.15a4,4,0,0,0,4-4l0-16.59a4,4,0,0,0-4-4h-5.5a4,4,0,0,1-4-4V516.55C217.7,514.35,219.18,512.55,221,512.55Z"/><path class="cls-3" d="M243.77,516.24c-1.28-2-3.31-2-4.52.07l-5.57,9.52c-1.21,2.07-.24,3.76,2.16,3.76h12c2.4,0,3.31-1.66,2-3.69Z"/><line class="cls-4" x1="231.17" y1="559.81" x2="252.29" y2="559.81"/><line class="cls-4" x1="248.18" y1="555.02" x2="248.18" y2="564.52"/><path class="cls-3" d="M89.4,406c-1.22-2.2-3.34-2.28-4.73-.18L77.9,416c-1.38,2.1-.46,3.81,2,3.81H92.51c2.51,0,3.57-1.8,2.36-4Z"/><path class="cls-3" d="M102.53,425a3.09,3.09,0,0,0,3.12-2.88,3.09,3.09,0,0,1,3.12-2.88H109a2.9,2.9,0,0,1,2.91,3l-.21,6a3.16,3.16,0,0,1-3.12,3H95.8a3.16,3.16,0,0,0-3.12,3l-.16,4.43a2.9,2.9,0,0,0,2.91,3h.24a3.09,3.09,0,0,0,3.12-2.88,3.09,3.09,0,0,1,3.12-2.88h.21a2.84,2.84,0,0,1,2.92,2.88l-.21,5.89V445a3.16,3.16,0,0,1-3.12,3H95.21a3.16,3.16,0,0,0-3.12,3v.14a2.9,2.9,0,0,0,2.91,3h9.51s0,1.36-.1,3l-.94,26.57a2.81,2.81,0,0,0,2.7,3,2.81,2.81,0,0,1,2.7,3V490a3.16,3.16,0,0,1-3.12,3H99.92A2.9,2.9,0,0,1,97,490l.94-26.57a2.9,2.9,0,0,0-2.91-3H81a3.16,3.16,0,0,0-3.12,3l-1,29.46a2.88,2.88,0,0,0,2.86,3,2.88,2.88,0,0,1,2.86,3v.21a3.16,3.16,0,0,1-3.12,3H73.32a2.9,2.9,0,0,1-2.91-3L72.92,428A3.16,3.16,0,0,1,76,425Z"/><line class="cls-4" x1="72.11" y1="450.94" x2="92.06" y2="451.78"/><line class="cls-4" x1="83.23" y1="446.65" x2="83.46" y2="456.15"/><path class="cls-5" d="M212.52,609.89c-1.18-1.65-2.91-1.46-3.86.42l-5.47,10.91c-.95,1.89,0,3.43,2,3.43h14c2.07,0,2.81-1.35,1.63-3Z"/><path class="cls-5" d="M184.88,632.72l-.77-7.29-.89-8.46a3.23,3.23,0,0,1,3.17-3.73,4.17,4.17,0,0,1,4,3.73l.89,8.46a4.28,4.28,0,0,0,4.16,3.73h41a4.19,4.19,0,0,1,4.14,3.56l.77,7.29.89,8.46A3.23,3.23,0,0,1,239,652.2a4.17,4.17,0,0,1-4-3.73l-.89-8.46a4.17,4.17,0,0,0-4-3.73A3.23,3.23,0,0,0,227,640l2.71,25.76a3.32,3.32,0,0,1-3.38,3.73h-.54a3.32,3.32,0,0,0-3.38,3.73l1.5,14.25a4.17,4.17,0,0,0,4,3.73H235a4.06,4.06,0,0,1,3.93,3.56l.74,7a3.11,3.11,0,0,1-3.19,3.47,4,4,0,0,1-3.92-3.47,4.14,4.14,0,0,0-4.13-3.47h-6.7a4.19,4.19,0,0,1-4.14-3.56l-.77-7.29-1.5-14.25a18.17,18.17,0,0,0-.59-3.73H203.83a3.22,3.22,0,0,0-3.14,3.73l.35,3.35.4,3.82.37,3.56a3.21,3.21,0,0,1-3.4,3.47h-6a4.19,4.19,0,0,1-4.14-3.56,3,3,0,0,1,2.83-3.56c1.76,0,3-1.68,2.81-3.73l-.35-3.35-.77-7.29a3.15,3.15,0,0,1,3.18-3.56h7.09a3.22,3.22,0,0,0,3.14-3.73l-2-18.63a4.28,4.28,0,0,0-4.16-3.73H185.25l-.37-3.56Z"/><line class="cls-6" x1="204.63" y1="656.12" x2="228.74" y2="656.12"/><line class="cls-6" x1="210.74" y1="653.87" x2="211.4" y2="661.37"/><path class="cls-3" d="M292.41,19.92c-2.19,1.07-2.31,3-.26,4.36l8.45,5.48c2,1.32,4,.43,4.32-2l1.45-10.6c.33-2.41-1.19-3.51-3.38-2.44Z"/><path class="cls-3" d="M350,43.62a4.85,4.85,0,0,0,3.89,3.56l7.5.9a4.49,4.49,0,0,1,3.69,3.59l1.08,7.24a2.35,2.35,0,0,1-2.74,2.82l-.27,0a4.8,4.8,0,0,1-3.86-3.56l-.11-.52A4.8,4.8,0,0,0,355.33,54l-7.82-.94a4.79,4.79,0,0,1-3.86-3.56l-2.2-10.93a4.79,4.79,0,0,0-3.86-3.56l-5.93-.71A3.29,3.29,0,0,0,328,37.17l-.53,4a3.21,3.21,0,0,0,2.8,3.6l5,.6A3.65,3.65,0,0,1,338.44,49l-.15,6.45A2.89,2.89,0,0,1,335,58.32a3.65,3.65,0,0,1-3.14-3.62v-.21a3.65,3.65,0,0,0-3.14-3.62l-5.43-.65a3.22,3.22,0,0,1-2.81-3.6l1.29-10.19a3.09,3.09,0,0,0-2.53-3.57,3.17,3.17,0,0,0-3.37,2.86l-2.79,20.89a3.3,3.3,0,0,1-3.65,2.83l-.27,0a3.18,3.18,0,0,1-2.77-3.59l5.84-42A3.33,3.33,0,0,1,315.9,11l24.72,3a4.85,4.85,0,0,1,3.89,3.56Z"/><path class="cls-3" d="M300.68,34.49a3.17,3.17,0,0,1,2.76,3.59l-1.57,11.1A3.33,3.33,0,0,1,298.21,52l-.27,0a3.17,3.17,0,0,1-2.76-3.59l1.57-11.1a3.33,3.33,0,0,1,3.67-2.82Z"/><line class="cls-4" x1="336.3" y1="13.45" x2="336.3" y2="34.9"/><line class="cls-4" x1="333.08" y1="27.59" x2="342.28" y2="27.94"/><path class="cls-3" d="M290.95,166.3a3.44,3.44,0,0,0,3.43-3,3.44,3.44,0,0,1,3.43-3H298a2.92,2.92,0,0,1,2.95,3.18l-.49,6.33A3.52,3.52,0,0,1,297,172.9H276.94a3.52,3.52,0,0,0-3.44,3.18l-.87,11.31-.49,6.37v.17a2.92,2.92,0,0,0,2.95,3.18h2.23a2.92,2.92,0,0,1,2.95,3.18l-1,13.15a2.83,2.83,0,0,0,2.73,3.18,2.82,2.82,0,0,1,2.73,3.18l0,.24a3.52,3.52,0,0,1-3.44,3.18h-6.17a2.92,2.92,0,0,1-2.95-3.18l1-13.15a2.92,2.92,0,0,0-2.95-3.18H260a3.52,3.52,0,0,0-3.44,3.18l-2,25.92a2.89,2.89,0,0,0,2.89,3.18,2.89,2.89,0,0,1,2.89,3.18l0,.24a3.52,3.52,0,0,1-3.44,3.18h-6.5a2.92,2.92,0,0,1-2.95-3.18l4.87-63a2.92,2.92,0,0,0-2.95-3.18h-6.26a3.49,3.49,0,0,0-3.42,3.18l-.17,2.35A2.87,2.87,0,0,0,242.2,182a2.82,2.82,0,0,1,2.63,3.19,3.53,3.53,0,0,1-3.44,3.17l-5.82.05a2.89,2.89,0,0,1-2.95-3.16l1.22-15.82a3.52,3.52,0,0,1,3.44-3.18Z"/><path class="cls-3" d="M267.27,148c-1.21-2.2-3.34-2.28-4.73-.19l-6.79,10.25c-1.39,2.09-.47,3.81,2,3.81h12.55c2.51,0,3.57-1.8,2.36-4Z"/><line class="cls-4" x1="251.04" y1="194.19" x2="272.13" y2="194.19"/><line class="cls-4" x1="256" y1="189.52" x2="255.37" y2="197.69"/><line class="cls-4" x1="267.93" y1="189.52" x2="267.29" y2="197.69"/><polyline class="cls-7" points="455.36 132.08 463.69 136.79 455.36 160.21 457.42 201.41 420.42 245.79 391.92 289.3 364.42 312.48 329.66 317.31 308.87 326.22 288.43 328.8 267.61 328.8 241.87 313.8 227.26 294.87 215.94 284.09"/><polyline class="cls-7" points="444.74 64.63 460.17 74.05 463.69 86.13 461.06 96.13"/><polyline class="cls-7" points="143.11 252.97 107.17 250.29 83.42 264.3 64.67 270.55 58.54 295.1 78.92 317.8 100.83 315.8 130.67 339.55 137.53 359.94"/><polyline class="cls-7" points="268.19 622.52 280.05 643.94 262.4 666.46"/><polyline class="cls-7" points="20.47 622.63 51.92 694.13 85.6 682.83 112.59 720.13 155.66 710.58"/></svg>