<svg id="圖層_1" data-name="圖層 1" xmlns="http://www.w3.org/2000/svg" xmlns:xlink="http://www.w3.org/1999/xlink" viewBox="0 0 431.04 288"><defs><style>.cls-1{fill:#fff;}.cls-2,.cls-8,.cls-9{fill:#e0e0e0;}.cls-3{fill:#0f9bff;}.cls-4,.cls-6,.cls-7{fill:none;}.cls-4,.cls-6{stroke:#ff9947;}.cls-4,.cls-6,.cls-7,.cls-8,.cls-9{stroke-miterlimit:10;}.cls-4{stroke-width:2.5px;}.cls-5{mask:url(#mask);}.cls-6{stroke-width:2.86px;}.cls-7,.cls-8{stroke:#e0e0e0;}.cls-7{stroke-width:1.07px;}.cls-8,.cls-9{stroke-linecap:round;stroke-width:3.41px;}.cls-9{stroke:#ff665c;}.cls-10{fill:#ff665c;}</style><mask id="mask" x="192.14" y="-43.27" width="173.33" height="208.3" maskUnits="userSpaceOnUse"><rect class="cls-1" x="192.14" y="-43.27" width="173.33" height="150.67"/></mask></defs><title>Rethink Taiwan_Landing page animation 4</title><path class="cls-2" d="M28.81,194.68a3,3,0,0,1,2.94-2.94H43.6a3,3,0,0,0,2.94-2.94v-.2a3,3,0,0,0-2.94-2.94h-25a3.68,3.68,0,0,0-3.48,2.89l-5.29,28.7a2.37,2.37,0,0,0,2.41,2.89H25.87a3,3,0,0,1,2.94,2.94v18.57a3,3,0,0,0,2.94,2.94h6a3,3,0,0,0,2.94-2.94v-.2a2.93,2.93,0,0,0-2.89-2.94,2.93,2.93,0,0,1-2.89-2.94V217A3,3,0,0,0,32,214h-.21a3,3,0,0,1-2.94-3A2.86,2.86,0,0,1,31.58,208h5.91a3,3,0,0,0,2.94-2.94v-6a2.88,2.88,0,0,0-2.94-2.81h-.2a2.88,2.88,0,0,0-2.94,2.81,2.79,2.79,0,0,1-2.77,2.81A2.87,2.87,0,0,1,28.81,199Z"/><path class="cls-2" d="M26.47,169.29c1.16-1.85,3-1.82,4.12.07L35.66,178c1.1,1.89.22,3.43-2,3.43H22.77c-2.18,0-3-1.51-1.86-3.36Z"/><circle class="cls-2" cx="18.44" cy="169.44" r="3.65"/><path class="cls-2" d="M262.93,12.74c-1.14-1.77-2.92-1.72-4,.1l-4.8,8.41c-1,1.83-.18,3.3,1.93,3.28l10.51-.11c2.1,0,2.89-1.48,1.75-3.25Z"/><path class="cls-2" d="M261.48,27.71h2.8V41a2.81,2.81,0,0,0,2.8,2.8h6.51a2.81,2.81,0,0,1,2.8,2.8v.19a2.81,2.81,0,0,1-2.8,2.8h-6.51a2.69,2.69,0,1,0,0,5.37h.17a2.81,2.81,0,0,1,2.8,2.8V80.27a2.71,2.71,0,0,0,2.61,2.8,2.71,2.71,0,0,1,2.61,2.8v.19a2.81,2.81,0,0,1-2.8,2.8h-5.41a2.81,2.81,0,0,1-2.8-2.8V63.84a2.81,2.81,0,0,0-2.8-2.8h-7.11a2.81,2.81,0,0,0-2.8,2.8V80.27a2.71,2.71,0,0,0,2.61,2.8,2.71,2.71,0,0,1,2.61,2.8v.19a2.81,2.81,0,0,1-2.8,2.8h-5.41a2.81,2.81,0,0,1-2.8-2.8V57a39.21,39.21,0,0,1,.48-5.55l3.65-21a3.46,3.46,0,0,1,3.28-2.76Z"/><circle class="cls-2" cx="253.14" cy="11.64" r="3.65"/><path class="cls-2" d="M314.23,28.69c-1.77-1.14-1.72-2.92.1-4l8.41-4.8c1.83-1,3.3-.18,3.28,1.93l-.11,10.51c0,2.1-1.48,2.89-3.25,1.75Z"/><path class="cls-2" d="M332.66,27.71h-2.8V41a2.81,2.81,0,0,1-2.8,2.8h-6.51a2.81,2.81,0,0,0-2.8,2.8v.19a2.81,2.81,0,0,0,2.8,2.8h6.51a2.69,2.69,0,1,1,0,5.37h-.17a2.81,2.81,0,0,0-2.8,2.8V80.27a2.71,2.71,0,0,1-2.61,2.8,2.71,2.71,0,0,0-2.61,2.8v.19a2.81,2.81,0,0,0,2.8,2.8h5.41a2.81,2.81,0,0,0,2.8-2.8V63.84a2.81,2.81,0,0,1,2.8-2.8h7.11a2.81,2.81,0,0,1,2.8,2.8V80.27a2.71,2.71,0,0,1-2.61,2.8,2.71,2.71,0,0,0-2.61,2.8v.19a2.81,2.81,0,0,0,2.8,2.8h5.41a2.81,2.81,0,0,0,2.8-2.8V57.86a47.27,47.27,0,0,0-.4-5.57l-3.14-21.82a3.34,3.34,0,0,0-3.2-2.77Z"/><circle class="cls-2" cx="316.6" cy="16.13" r="3.65"/><path class="cls-3" d="M329.87,27.71l16.8,15.42-.48-10.79a6.1,6.1,0,0,0-6-5.23Z"/><path class="cls-4" d="M83.13,161.9S36.4,246.2,116.87,283"/><path class="cls-4" d="M75.39,163.72S29,245.21,116.27,282.26"/><path class="cls-4" d="M67.64,165.55s-46.1,78.67,48,115.95"/><path class="cls-4" d="M59.89,167.38s-45.79,75.86,55.2,113.35"/><path class="cls-4" d="M52.14,169.21S6.67,242.25,114.5,280"/><path class="cls-4" d="M49.89,269.39s20.53-66.93,104.5-85.12"/><path class="cls-4" d="M46.14,255.56s19.67-59.39,112.61-73.94"/><path class="cls-4" d="M42.39,241.72S61.2,189.88,163.11,179"/><path class="cls-4" d="M38.64,227.89s17.94-44.3,128.83-51.59"/><path class="cls-4" d="M34.9,214.05S52,177.3,171.83,173.64"/><g class="cls-5"><path class="cls-6" d="M288.32,34.4s-31.16,105.77,67.85,126.83"/><path class="cls-6" d="M280.54,34.85s-29.17,107.37,77.54,127"/><path class="cls-6" d="M272.75,35.29s-27.18,109,87.22,127.13"/><path class="cls-6" d="M265,35.74S239.78,146.32,361.86,163"/><path class="cls-6" d="M257.18,36.19S234,148.37,363.76,163.6"/><path class="cls-6" d="M301.09,20.58S313,144.73,216,153.75"/><path class="cls-6" d="M308.28,26.38s14.11,116.4-91.08,127"/><path class="cls-6" d="M315.48,32.18s16.36,108.65-97,120.78"/><path class="cls-6" d="M322.67,38s18.61,100.91-103,114.59"/><path class="cls-6" d="M329.87,43.77S350.73,136.93,221,152.16"/></g><path class="cls-2" d="M204.73,102.15a2.9,2.9,0,0,0-2.57,3.13c0,1.72-1.92,3.13-4.27,3.13h-2.48a4.28,4.28,0,0,1-4.27-4.27V97.78a4.28,4.28,0,0,0-4.27-4.27h-.29a4.28,4.28,0,0,0-4.27,4.27v20.07a4.28,4.28,0,0,0,4.27,4.27H203a4.28,4.28,0,0,0,4.27-4.27V106.42C207.3,104.07,206.14,102.15,204.73,102.15Z"/><path class="cls-7" d="M204.73,102.15a2.9,2.9,0,0,0-2.57,3.13c0,1.72-1.92,3.13-4.27,3.13h-2.48a4.28,4.28,0,0,1-4.27-4.27V97.78a4.28,4.28,0,0,0-4.27-4.27h-.29a4.28,4.28,0,0,0-4.27,4.27v20.07a4.28,4.28,0,0,0,4.27,4.27H203a4.28,4.28,0,0,0,4.27-4.27V106.42C207.3,104.07,206.14,102.15,204.73,102.15Z"/><line class="cls-8" x1="198.02" y1="117.3" x2="198.02" y2="130.32"/><line class="cls-8" x1="192.44" y1="117.3" x2="192.44" y2="134.49"/><line class="cls-9" x1="182.87" y1="101.3" x2="180.63" y2="101.3"/><path class="cls-2" d="M400.67,145.84c-1.74,0-3.16,1.1-3.16,2.45a2.67,2.67,0,0,1-2.83,2.45,2.67,2.67,0,0,0-2.83,2.46c0,1.35-1.34,2.94-3,3.53l-6.76,2.43a3.08,3.08,0,0,0-2.1,3.7,2.89,2.89,0,0,0,3.85,1.53l5-1.86a4.72,4.72,0,0,1,5,1.36h0a2.89,2.89,0,0,1-.61,4.26l-8.36,5.77a3.13,3.13,0,1,0,3.58,5.13l8.79-6.11a3.38,3.38,0,0,1,4.34.18,3.14,3.14,0,0,1-.42,4.17,3.18,3.18,0,0,0-.43,4.19,3.3,3.3,0,0,0,4.31.18l9.6-6.86a3.33,3.33,0,0,1,4.29.08,2.3,2.3,0,0,0,3.42.13c.94-1,.84-2.93-.21-4.31l-1.43-1.89c-1.05-1.39-2.8-2.2-3.88-1.81s-2.31-.67-2.73-2.36l-3.89-15.74a4.26,4.26,0,0,0-3.92-3.07Z"/><path class="cls-2" d="M401.53,131.81c1.14-1.77,2.92-1.72,4,.1l4.8,8.41c1,1.83.18,3.3-1.93,3.28l-10.51-.11c-2.1,0-2.89-1.48-1.75-3.25Z"/><circle class="cls-2" cx="414.09" cy="134.18" r="3.65"/><path class="cls-10" d="M399.06,145.73l14.76,17.69-.8-12.67a6.1,6.1,0,0,0-5.78-5.51Z"/><path class="cls-3" d="M29.51,185.36l-16.8,15.42L13.2,190a6.1,6.1,0,0,1,6-5.23Z"/><path class="cls-10" d="M263.76,27.71,247,43.12l.48-10.79a6.1,6.1,0,0,1,6-5.23Z"/></svg>