<svg id="圖層_1" data-name="圖層 1" xmlns="http://www.w3.org/2000/svg" viewBox="0 0 162.5 190.5"><defs><style>.cls-1{fill:#ffcd32;}.cls-2,.cls-3,.cls-4,.cls-5,.cls-6,.cls-8{fill:none;}.cls-2,.cls-3,.cls-4,.cls-6{stroke:#006464;}.cls-2,.cls-3,.cls-4,.cls-5,.cls-6{stroke-linecap:round;}.cls-2,.cls-3,.cls-6{stroke-linejoin:round;}.cls-2{stroke-width:2.28px;}.cls-3,.cls-4{stroke-width:1.52px;}.cls-5{stroke:#ffcd32;stroke-width:4.55px;}.cls-6{stroke-width:3.04px;}.cls-7{fill:#ff665c;}.cls-8{stroke:#ff9947;stroke-miterlimit:10;stroke-width:2.5px;}</style></defs><title>Rethink Taiwan_Landing page animation 4</title><path class="cls-1" d="M32.49,30.68c3.48-5.54,9-5.45,12.34.2l15.2,26c3.3,5.65.65,10.27-5.89,10.27H21.43c-6.54,0-9-4.53-5.56-10.07Z"/><path class="cls-2" d="M41.76,51.68a30.08,30.08,0,0,1,8.12,0"/><polyline class="cls-3" points="31.82 62.23 38.33 64.96 45.12 62.12"/><path class="cls-2" d="M25.63,46.17h8.19a2.44,2.44,0,0,1,2.44,2.44v4.58a5.31,5.31,0,0,1-5.31,5.31H28.5a5.31,5.31,0,0,1-5.31-5.31V48.61A2.44,2.44,0,0,1,25.63,46.17Z"/><path class="cls-2" d="M42.84,46.17H51a2.44,2.44,0,0,1,2.44,2.44v4.58a5.31,5.31,0,0,1-5.31,5.31H45.71a5.31,5.31,0,0,1-5.31-5.31V48.61A2.44,2.44,0,0,1,42.84,46.17Z"/><line class="cls-2" x1="36.25" y1="48.61" x2="40.41" y2="48.61"/><line class="cls-4" x1="46.72" y1="51.28" x2="47.17" y2="49.84"/><line class="cls-4" x1="49.89" y1="51.28" x2="50.33" y2="49.84"/><path class="cls-2" d="M35,51.68a30.08,30.08,0,0,0-8.12,0"/><line class="cls-4" x1="27.06" y1="51.28" x2="26.61" y2="49.84"/><line class="cls-4" x1="30.16" y1="51.28" x2="29.71" y2="49.84"/><line class="cls-5" x1="17.66" y1="39.85" x2="59.28" y2="39.85"/><line class="cls-6" x1="28.16" y1="36.47" x2="48.32" y2="36.47"/><line class="cls-3" x1="54.17" y1="62.36" x2="55.87" y2="60.84"/><line class="cls-3" x1="57.17" y1="62.36" x2="58.87" y2="60.84"/><line class="cls-3" x1="22.58" y1="62.36" x2="20.87" y2="60.84"/><line class="cls-3" x1="19.53" y1="62.36" x2="17.82" y2="60.84"/><path class="cls-1" d="M44.69,88.34a5,5,0,0,1,5-5H69.82a5,5,0,0,0,5-5V78a5,5,0,0,0-5-5H27.4a6.25,6.25,0,0,0-5.91,4.92l-9,48.77a4,4,0,0,0,4.09,4.92h23.1a5,5,0,0,1,5,5v31.55a5,5,0,0,0,5,5H59.87a5,5,0,0,0,5-5v-.35a5,5,0,0,0-4.92-5,5,5,0,0,1-4.92-5V126.25a5.17,5.17,0,0,0-5-5.13h-.35a5.16,5.16,0,0,1-5-5.11,4.86,4.86,0,0,1,4.7-5h10a5,5,0,0,0,5-5V95.91a4.9,4.9,0,0,0-5-4.77H59.1a4.9,4.9,0,0,0-5,4.77,4.75,4.75,0,0,1-4.7,4.77,4.87,4.87,0,0,1-4.7-5Z"/><path class="cls-7" d="M41,72.09,18.42,92.84l.65-14.52a8.21,8.21,0,0,1,8.12-7Z"/><path class="cls-8" d="M84.78,45.34s-41,124.58,61.44,137.92"/><path class="cls-8" d="M78.76,49.22S33.86,178,145.63,182.49"/><path class="cls-8" d="M72.74,53.1S23.95,186,145,181.73"/><path class="cls-8" d="M66.72,57S14,194,144.45,181"/><path class="cls-8" d="M60.7,60.86S4.12,202.09,143.85,180.19"/><path class="cls-8" d="M42.1,112.47s24.38,84.82,108.35,66.64"/><path class="cls-8" d="M52.87,100.11s7.5,90.43,99,78.11"/><path class="cls-8" d="M63.64,87.76s-9.39,96,89.65,89.58"/><path class="cls-8" d="M74.4,75.41s-26.27,101.66,80.3,101.05"/><path class="cls-8" d="M85.17,63.05S42,170.32,156.13,175.58"/></svg>