<svg id="圖層_1" data-name="圖層 1" xmlns="http://www.w3.org/2000/svg" viewBox="0 0 1513.67 230"><defs><style>.cls-1,.cls-3,.cls-4{fill:none;}.cls-1{stroke:#00364b;stroke-width:10px;}.cls-1,.cls-3{stroke-linejoin:round;}.cls-2{fill:#ff665c;}.cls-3,.cls-4{stroke:#004864;stroke-linecap:round;stroke-width:9px;}.cls-4{stroke-miterlimit:10;}.cls-5{fill:#ff8051;}.cls-6{fill:#ff9947;}.cls-7{fill:#ffb33c;}</style></defs><title>Rethink Taiwan_Landing page animation 4</title><line class="cls-1" x1="43.43" y1="149.4" x2="84.97" y2="149.4"/><line class="cls-1" x1="64.7" y1="149.4" x2="64.7" y2="203.64"/><line class="cls-1" x1="80.06" y1="149.4" x2="121.53" y2="149.4"/><line class="cls-1" x1="101.26" y1="149.4" x2="101.26" y2="203.64"/><line class="cls-1" x1="116.68" y1="149.4" x2="158.09" y2="149.4"/><line class="cls-1" x1="137.82" y1="149.4" x2="137.82" y2="203.64"/><line class="cls-1" x1="153.31" y1="149.4" x2="194.65" y2="149.4"/><line class="cls-1" x1="174.38" y1="149.4" x2="174.38" y2="203.64"/><line class="cls-1" x1="189.94" y1="149.4" x2="231.21" y2="149.4"/><line class="cls-1" x1="210.94" y1="149.4" x2="210.94" y2="203.64"/><line class="cls-1" x1="226.56" y1="149.4" x2="267.77" y2="149.4"/><line class="cls-1" x1="247.5" y1="149.4" x2="247.5" y2="203.64"/><line class="cls-1" x1="263.19" y1="149.4" x2="304.33" y2="149.4"/><line class="cls-1" x1="284.06" y1="149.4" x2="284.06" y2="203.64"/><line class="cls-1" x1="299.82" y1="149.4" x2="340.89" y2="149.4"/><line class="cls-1" x1="320.62" y1="149.4" x2="320.62" y2="203.64"/><line class="cls-1" x1="336.44" y1="149.4" x2="377.45" y2="149.4"/><line class="cls-1" x1="357.18" y1="149.4" x2="357.18" y2="203.64"/><line class="cls-1" x1="373.07" y1="149.4" x2="414.01" y2="149.4"/><line class="cls-1" x1="393.74" y1="149.4" x2="393.74" y2="203.64"/><line class="cls-1" x1="409.7" y1="149.4" x2="450.57" y2="149.4"/><line class="cls-1" x1="430.3" y1="149.4" x2="430.3" y2="203.64"/><line class="cls-1" x1="446.32" y1="149.4" x2="487.13" y2="149.4"/><line class="cls-1" x1="466.86" y1="149.4" x2="466.86" y2="203.64"/><line class="cls-1" x1="482.95" y1="149.4" x2="523.69" y2="149.4"/><line class="cls-1" x1="503.42" y1="149.4" x2="503.42" y2="203.64"/><line class="cls-1" x1="519.57" y1="149.4" x2="560.25" y2="149.4"/><line class="cls-1" x1="539.98" y1="149.4" x2="539.98" y2="203.64"/><line class="cls-1" x1="556.2" y1="149.4" x2="596.81" y2="149.4"/><line class="cls-1" x1="576.54" y1="149.4" x2="576.54" y2="203.64"/><line class="cls-1" x1="592.83" y1="149.4" x2="633.37" y2="149.4"/><line class="cls-1" x1="613.1" y1="149.4" x2="613.1" y2="203.64"/><line class="cls-1" x1="888.77" y1="149.4" x2="930.31" y2="149.4"/><line class="cls-1" x1="910.04" y1="149.4" x2="910.04" y2="203.64"/><line class="cls-1" x1="926.4" y1="149.4" x2="967.87" y2="149.4"/><line class="cls-1" x1="947.6" y1="149.4" x2="947.6" y2="203.64"/><line class="cls-1" x1="964.03" y1="149.4" x2="1005.44" y2="149.4"/><line class="cls-1" x1="985.17" y1="149.4" x2="985.17" y2="203.64"/><line class="cls-1" x1="1001.66" y1="149.4" x2="1043" y2="149.4"/><line class="cls-1" x1="1022.73" y1="149.4" x2="1022.73" y2="203.64"/><line class="cls-1" x1="1039.29" y1="149.4" x2="1080.57" y2="149.4"/><line class="cls-1" x1="1060.3" y1="149.4" x2="1060.3" y2="203.64"/><line class="cls-1" x1="1076.93" y1="149.4" x2="1118.13" y2="149.4"/><line class="cls-1" x1="1097.86" y1="149.4" x2="1097.86" y2="203.64"/><line class="cls-1" x1="1114.56" y1="149.4" x2="1155.7" y2="149.4"/><line class="cls-1" x1="1135.43" y1="149.4" x2="1135.43" y2="203.64"/><line class="cls-1" x1="1152.19" y1="149.4" x2="1193.27" y2="149.4"/><line class="cls-1" x1="1172.99" y1="149.4" x2="1172.99" y2="203.64"/><line class="cls-1" x1="1189.82" y1="149.4" x2="1230.83" y2="149.4"/><line class="cls-1" x1="1210.56" y1="149.4" x2="1210.56" y2="203.64"/><line class="cls-1" x1="1227.45" y1="149.4" x2="1268.4" y2="149.4"/><line class="cls-1" x1="1248.13" y1="149.4" x2="1248.13" y2="203.64"/><line class="cls-1" x1="1265.09" y1="149.4" x2="1305.96" y2="149.4"/><line class="cls-1" x1="1285.69" y1="149.4" x2="1285.69" y2="203.64"/><line class="cls-1" x1="1302.72" y1="149.4" x2="1343.53" y2="149.4"/><line class="cls-1" x1="1323.26" y1="149.4" x2="1323.26" y2="203.64"/><line class="cls-1" x1="1340.35" y1="149.4" x2="1381.09" y2="149.4"/><line class="cls-1" x1="1360.82" y1="149.4" x2="1360.82" y2="203.64"/><line class="cls-1" x1="1377.98" y1="149.4" x2="1418.66" y2="149.4"/><line class="cls-1" x1="1398.39" y1="149.4" x2="1398.39" y2="203.64"/><line class="cls-1" x1="1415.61" y1="149.4" x2="1456.22" y2="149.4"/><line class="cls-1" x1="1435.95" y1="149.4" x2="1435.95" y2="203.64"/><line class="cls-1" x1="1453.25" y1="149.4" x2="1493.79" y2="149.4"/><line class="cls-1" x1="1473.52" y1="149.4" x2="1473.52" y2="203.64"/><path class="cls-2" d="M558.64,26,598,93.33a21.46,21.46,0,0,1-18.53,32.29H497.73a21.46,21.46,0,0,1-18.17-32.89l42.38-67.36A21.46,21.46,0,0,1,558.64,26Z"/><polyline class="cls-3" points="538.6 215.46 538.6 109.35 563.27 78.94"/><line class="cls-4" x1="538.6" y1="109.35" x2="513.78" y2="84.52"/><line class="cls-4" x1="538.6" y1="111.18" x2="538.6" y2="39.25"/><path class="cls-5" d="M405.34,26.3,444.7,93.66A21.46,21.46,0,0,1,426.17,126H344.43a21.46,21.46,0,0,1-18.17-32.89L368.64,25.7A21.46,21.46,0,0,1,405.34,26.3Z"/><polyline class="cls-3" points="385.3 215.79 385.3 109.68 409.97 79.28"/><line class="cls-4" x1="385.3" y1="109.68" x2="360.47" y2="84.85"/><line class="cls-4" x1="385.3" y1="111.51" x2="385.3" y2="39.58"/><path class="cls-6" d="M252,26.64,291.4,94a21.46,21.46,0,0,1-18.53,32.29H191.12A21.46,21.46,0,0,1,173,93.4L215.34,26A21.46,21.46,0,0,1,252,26.64Z"/><polyline class="cls-3" points="232 216.13 232 110.02 256.66 79.61"/><line class="cls-4" x1="232" y1="110.02" x2="207.17" y2="85.19"/><line class="cls-4" x1="232" y1="111.84" x2="232" y2="39.91"/><path class="cls-7" d="M98.73,27,138.1,94.33a21.46,21.46,0,0,1-18.53,32.29H37.82A21.46,21.46,0,0,1,19.65,93.73L62,26.37A21.46,21.46,0,0,1,98.73,27Z"/><polyline class="cls-3" points="78.69 216.46 78.69 110.35 103.36 79.94"/><line class="cls-4" x1="78.69" y1="110.35" x2="53.86" y2="85.52"/><line class="cls-4" x1="78.69" y1="112.18" x2="78.69" y2="40.25"/><path class="cls-2" d="M1005.74,26l39.37,67.36a21.46,21.46,0,0,1-18.53,32.29H944.83a21.46,21.46,0,0,1-18.17-32.89L969,25.37A21.46,21.46,0,0,1,1005.74,26Z"/><polyline class="cls-3" points="985.7 206.51 985.7 109.35 1010.37 78.94"/><line class="cls-4" x1="985.7" y1="109.35" x2="960.87" y2="84.52"/><line class="cls-4" x1="985.7" y1="111.18" x2="985.7" y2="39.25"/><path class="cls-7" d="M1374.82,27l39.37,67.36a21.46,21.46,0,0,1-18.53,32.29h-81.75a21.46,21.46,0,0,1-18.17-32.89l42.38-67.36A21.46,21.46,0,0,1,1374.82,27Z"/><polyline class="cls-3" points="1354.78 210.09 1354.78 110.35 1379.45 79.94"/><line class="cls-4" x1="1354.78" y1="110.35" x2="1329.95" y2="85.52"/><line class="cls-4" x1="1354.78" y1="112.18" x2="1354.78" y2="40.25"/></svg>