<svg id="圖層_1" data-name="圖層 1" xmlns="http://www.w3.org/2000/svg" xmlns:xlink="http://www.w3.org/1999/xlink" viewBox="0 0 111.18 156"><defs><style>.cls-1{fill:none;}.cls-2{fill:#e0e0e0;}.cls-3,.cls-4,.cls-5{fill:#ffcd32;}.cls-4,.cls-5{stroke:#006464;stroke-linecap:round;stroke-linejoin:round;}.cls-4{stroke-width:1.52px;}.cls-5{stroke-width:3.04px;}.cls-6{fill:#006464;}.cls-7{fill:url(#USGS_22_沙礫海灘_2_拷貝);}.cls-8{fill:#bebebe;}</style><pattern id="USGS_22_沙礫海灘_2_拷貝" data-name="USGS 22 沙礫海灘 2 拷貝" width="234.17" height="232.04" patternTransform="translate(-106.59 2236.57)" patternUnits="userSpaceOnUse" viewBox="0 0 234.17 232.04"><rect class="cls-1" width="234.17" height="232.04"/><path class="cls-2" d="M67.62,9.71a1.27,1.27,0,0,1-.81-.32,1.29,1.29,0,0,1-.32-.81,1.29,1.29,0,0,1,.32-.81,1.15,1.15,0,0,1,1.95.81,1.27,1.27,0,0,1-.33.81A1.26,1.26,0,0,1,67.62,9.71Z"/><path class="cls-2" d="M64.38,26.74a1.27,1.27,0,0,1-.81-.32,1.29,1.29,0,0,1-.32-.81,1.06,1.06,0,0,1,.36-.81,1.18,1.18,0,0,1,1.59,0,1.15,1.15,0,0,1,.33.81,1.27,1.27,0,0,1-.33.81A1.2,1.2,0,0,1,64.38,26.74Z"/><path class="cls-2" d="M65.19,34a1.27,1.27,0,0,1-.81-.32,1.18,1.18,0,0,1,0-1.62,1.19,1.19,0,0,1,1.62,0,1.17,1.17,0,0,1,0,1.62A1.26,1.26,0,0,1,65.19,34Z"/><path class="cls-2" d="M49,34a1.27,1.27,0,0,1-.81-.32,1.29,1.29,0,0,1-.32-.81,1.13,1.13,0,0,1,1.94-.81,1.17,1.17,0,0,1,0,1.62A1.26,1.26,0,0,1,49,34Z"/><path class="cls-2" d="M73.3,64.84a1.27,1.27,0,0,1-.81-.32,1.18,1.18,0,0,1,0-1.62,1.15,1.15,0,0,1,1.95.81,1.27,1.27,0,0,1-.33.81A1.26,1.26,0,0,1,73.3,64.84Z"/><path class="cls-2" d="M49,74.57a1.27,1.27,0,0,1-.81-.32,1.29,1.29,0,0,1-.32-.81,1.06,1.06,0,0,1,.36-.81,1.18,1.18,0,0,1,1.59,0,1.15,1.15,0,0,1,.33.81,1.27,1.27,0,0,1-.33.81A1.26,1.26,0,0,1,49,74.57Z"/><path class="cls-2" d="M44.92,77.82a1.27,1.27,0,0,1-.81-.32,1.18,1.18,0,0,1,0-1.62,1.15,1.15,0,0,1,1.95.81,1.27,1.27,0,0,1-.33.81A1.2,1.2,0,0,1,44.92,77.82Z"/><path class="cls-2" d="M77.35,87.55a1.27,1.27,0,0,1-.81-.32,1.29,1.29,0,0,1-.32-.81,1.06,1.06,0,0,1,.36-.81,1.18,1.18,0,0,1,1.59,0,1.27,1.27,0,0,1,.33.81,1.13,1.13,0,0,1-.33.78A1.15,1.15,0,0,1,77.35,87.55Z"/><path class="cls-2" d="M99.24,83.49a1.27,1.27,0,0,1-.81-.32,1.18,1.18,0,0,1,0-1.62,1.15,1.15,0,0,1,1.95.81,1.27,1.27,0,0,1-.33.81A1.26,1.26,0,0,1,99.24,83.49Z"/><path class="cls-2" d="M100.87,75.39a1.27,1.27,0,0,1-.81-.32,1.29,1.29,0,0,1-.32-.81,1.06,1.06,0,0,1,.36-.81,1.12,1.12,0,0,1,1.91.81,1.27,1.27,0,0,1-.33.81A1.2,1.2,0,0,1,100.87,75.39Z"/><path class="cls-2" d="M94.38,59.17a1.27,1.27,0,0,1-.81-.32,1.18,1.18,0,0,1,0-1.62,1.15,1.15,0,0,1,1.95.81,1.27,1.27,0,0,1-.33.81A1.26,1.26,0,0,1,94.38,59.17Z"/><path class="cls-2" d="M109.78,64a1.27,1.27,0,0,1-.81-.32,1.18,1.18,0,0,1,0-1.62,1.15,1.15,0,0,1,1.95.81,1.27,1.27,0,0,1-.33.81A1.26,1.26,0,0,1,109.78,64Z"/><path class="cls-2" d="M101.68,47.82a1.27,1.27,0,0,1-.81-.32,1.18,1.18,0,0,1,0-1.62,1.15,1.15,0,0,1,1.95.81,1.27,1.27,0,0,1-.33.81A1.26,1.26,0,0,1,101.68,47.82Z"/><path class="cls-2" d="M102.49,38.09a1.27,1.27,0,0,1-.81-.32,1.18,1.18,0,0,1,0-1.62,1.19,1.19,0,0,1,1.62,0,1.17,1.17,0,0,1,0,1.62A1.26,1.26,0,0,1,102.49,38.09Z"/><path class="cls-2" d="M104.11,22.68a1.27,1.27,0,0,1-.81-.32,1.18,1.18,0,0,1,0-1.62,1.15,1.15,0,0,1,1.95.81,1.27,1.27,0,0,1-.33.81A1.26,1.26,0,0,1,104.11,22.68Z"/><path class="cls-2" d="M103.3,9.71a1.27,1.27,0,0,1-.81-.32,1.29,1.29,0,0,1-.32-.81,1.06,1.06,0,0,1,.36-.81,1.12,1.12,0,0,1,1.91.81,1.27,1.27,0,0,1-.33.81A1.26,1.26,0,0,1,103.3,9.71Z"/><path class="cls-2" d="M109.78,4a1.16,1.16,0,0,1-.81-.35,1.08,1.08,0,0,1-.32-.78,1.06,1.06,0,0,1,.36-.81,1.12,1.12,0,0,1,1.91.81,1.11,1.11,0,0,1-.36.81A1.12,1.12,0,0,1,109.78,4Z"/><path class="cls-2" d="M134.11,22.68a1.27,1.27,0,0,1-.81-.32,1.14,1.14,0,0,1-.32-.81,1.29,1.29,0,0,1,.32-.81,1.12,1.12,0,0,1,1.59,0,1.16,1.16,0,0,1,.36.81,1.27,1.27,0,0,1-.33.81A1.26,1.26,0,0,1,134.11,22.68Z"/><path class="cls-2" d="M147.08,21.87a1.27,1.27,0,0,1-.81-.32,1.18,1.18,0,0,1,0-1.62,1.15,1.15,0,0,1,1.95.81,1.27,1.27,0,0,1-.33.81A1.26,1.26,0,0,1,147.08,21.87Z"/><path class="cls-2" d="M137.35,43.76a1.27,1.27,0,0,1-.81-.32,1.29,1.29,0,0,1-.32-.81,1.06,1.06,0,0,1,.36-.81,1.12,1.12,0,0,1,1.91.81,1.27,1.27,0,0,1-.33.81A1.26,1.26,0,0,1,137.35,43.76Z"/><path class="cls-2" d="M151.95,46.2a1.27,1.27,0,0,1-.81-.32,1.29,1.29,0,0,1-.32-.81,1.06,1.06,0,0,1,.36-.81,1.15,1.15,0,0,1,1.59,0,1.27,1.27,0,0,1,.33.81,1.06,1.06,0,0,1-.33.78A1.15,1.15,0,0,1,151.95,46.2Z"/><path class="cls-2" d="M151.95,52.68a1.27,1.27,0,0,1-.81-.32,1.29,1.29,0,0,1-.32-.81,1.06,1.06,0,0,1,.36-.81,1.15,1.15,0,0,1,1.59,0,1.27,1.27,0,0,1,.33.81,1.19,1.19,0,0,1-.33.78A1.15,1.15,0,0,1,151.95,52.68Z"/><path class="cls-2" d="M126,67.28a1.27,1.27,0,0,1-.81-.32,1.18,1.18,0,0,1,0-1.62,1.15,1.15,0,0,1,1.59,0,1.11,1.11,0,0,1,.36.81,1.27,1.27,0,0,1-.33.81A1.26,1.26,0,0,1,126,67.28Z"/><path class="cls-2" d="M162.49,43.76a1.27,1.27,0,0,1-.81-.32,1.18,1.18,0,0,1,0-1.62,1.19,1.19,0,0,1,1.62,0,1.17,1.17,0,0,1,0,1.62A1.26,1.26,0,0,1,162.49,43.76Z"/><path class="cls-2" d="M169,38.9a1.16,1.16,0,0,1-.81-.35,1.14,1.14,0,0,1-.32-.78,1.06,1.06,0,0,1,.36-.81,1.18,1.18,0,0,1,1.59,0,1.15,1.15,0,0,1,.33.81,1.27,1.27,0,0,1-.33.81A1.26,1.26,0,0,1,169,38.9Z"/><path class="cls-2" d="M177.08,35.65a1.16,1.16,0,0,1-.81-.35,1.14,1.14,0,0,1-.32-.78,1.06,1.06,0,0,1,.36-.81,1.12,1.12,0,0,1,1.91.81,1.27,1.27,0,0,1-.33.81A1.26,1.26,0,0,1,177.08,35.65Z"/><path class="cls-2" d="M182.76,2.41a1.27,1.27,0,0,1-.81-.32,1.29,1.29,0,0,1-.32-.81,1.29,1.29,0,0,1,.32-.81,1.16,1.16,0,0,1,1.62,0,1.13,1.13,0,0,1,.33.78,1.27,1.27,0,0,1-.33.81A1.26,1.26,0,0,1,182.76,2.41Z"/><path class="cls-2" d="M220.06,9.71a1.27,1.27,0,0,1-.81-.32,1.29,1.29,0,0,1-.32-.81,1.06,1.06,0,0,1,.36-.81,1.18,1.18,0,0,1,1.59,0,1.15,1.15,0,0,1,.33.81,1.27,1.27,0,0,1-.33.81A1.2,1.2,0,0,1,220.06,9.71Z"/><path class="cls-2" d="M220.06,33.22a1.16,1.16,0,0,1-.81-.35,1.14,1.14,0,0,1-.32-.78,1.29,1.29,0,0,1,.32-.81,1.19,1.19,0,0,1,1.62,0,1.27,1.27,0,0,1,.33.81,1.11,1.11,0,0,1-.36.81A1.12,1.12,0,0,1,220.06,33.22Z"/><path class="cls-2" d="M207.89,39.71a1.27,1.27,0,0,1-.81-.32,1.18,1.18,0,0,1,0-1.62,1.15,1.15,0,0,1,1.95.81,1.27,1.27,0,0,1-.33.81A1.26,1.26,0,0,1,207.89,39.71Z"/><path class="cls-2" d="M211.14,51.06a1.27,1.27,0,0,1-.81-.32,1.29,1.29,0,0,1-.32-.81,1.13,1.13,0,0,1,1.94-.81,1.17,1.17,0,0,1,0,1.62A1.26,1.26,0,0,1,211.14,51.06Z"/><path class="cls-2" d="M207.08,64a1.16,1.16,0,0,1-.81-.35,1.14,1.14,0,0,1-.32-.78,1.29,1.29,0,0,1,.32-.81,1.19,1.19,0,0,1,1.62,0,1.27,1.27,0,0,1,.33.81,1.11,1.11,0,0,1-.36.81A1.12,1.12,0,0,1,207.08,64Z"/><path class="cls-2" d="M214.38,64a1.27,1.27,0,0,1-.81-.32,1.29,1.29,0,0,1-.32-.81,1.06,1.06,0,0,1,.36-.81,1.18,1.18,0,0,1,1.59,0,1.15,1.15,0,0,1,.33.81,1.27,1.27,0,0,1-.33.81A1.26,1.26,0,0,1,214.38,64Z"/><path class="cls-2" d="M220.06,68.9a1.27,1.27,0,0,1-.81-.32,1.18,1.18,0,0,1,0-1.62,1.19,1.19,0,0,1,1.62,0,1.17,1.17,0,0,1,0,1.62A1.26,1.26,0,0,1,220.06,68.9Z"/><path class="cls-2" d="M22.22,169.44a1.27,1.27,0,0,1-.81-.32,1.18,1.18,0,0,1,0-1.62,1.23,1.23,0,0,1,1.62,0,1.17,1.17,0,0,1,0,1.62A1.26,1.26,0,0,1,22.22,169.44Z"/><path class="cls-2" d="M23,176.74a1.27,1.27,0,0,1-.81-.32,1.18,1.18,0,0,1,0-1.62,1.19,1.19,0,0,1,1.62,0,1.17,1.17,0,0,1,0,1.62A1.26,1.26,0,0,1,23,176.74Z"/><path class="cls-2" d="M6.81,176.74a1.27,1.27,0,0,1-.81-.32,1.18,1.18,0,0,1,0-1.62,1.23,1.23,0,0,1,1.62,0,1.17,1.17,0,0,1,0,1.62A1.26,1.26,0,0,1,6.81,176.74Z"/><path class="cls-2" d="M31.13,207.55a1.27,1.27,0,0,1-.81-.32,1.18,1.18,0,0,1,0-1.62,1.15,1.15,0,0,1,1.95.81,1.27,1.27,0,0,1-.33.81A1.26,1.26,0,0,1,31.13,207.55Z"/><path class="cls-2" d="M2.76,220.52a1.27,1.27,0,0,1-.81-.32,1.18,1.18,0,0,1,0-1.62,1.23,1.23,0,0,1,1.62,0,1.17,1.17,0,0,1,0,1.62A1.26,1.26,0,0,1,2.76,220.52Z"/><path class="cls-2" d="M35.19,230.25a1.27,1.27,0,0,1-.81-.32,1.18,1.18,0,0,1,0-1.62,1.23,1.23,0,0,1,1.62,0,1.17,1.17,0,0,1,0,1.62A1.26,1.26,0,0,1,35.19,230.25Z"/><path class="cls-2" d="M58.7,218.09a1.27,1.27,0,0,1-.81-.32,1.29,1.29,0,0,1-.32-.81,1.22,1.22,0,0,1,.32-.81,1.19,1.19,0,0,1,1.59,0,1.16,1.16,0,0,1,.36.81,1.27,1.27,0,0,1-.33.81A1.26,1.26,0,0,1,58.7,218.09Z"/><path class="cls-2" d="M52.22,201.87a1.27,1.27,0,0,1-.81-.32,1.18,1.18,0,0,1,0-1.62,1.19,1.19,0,0,1,1.62,0,1.17,1.17,0,0,1,0,1.62A1.26,1.26,0,0,1,52.22,201.87Z"/><path class="cls-2" d="M62.76,187.28a1.27,1.27,0,0,1-.81-.32,1.29,1.29,0,0,1-.32-.81,1.06,1.06,0,0,1,.36-.81,1.18,1.18,0,0,1,1.59,0,1.15,1.15,0,0,1,.33.81,1.27,1.27,0,0,1-.33.81A1.26,1.26,0,0,1,62.76,187.28Z"/><path class="cls-2" d="M60.32,180.79a1.27,1.27,0,0,1-.81-.32,1.29,1.29,0,0,1-.32-.81,1.06,1.06,0,0,1,.36-.81,1.18,1.18,0,0,1,1.59,0,1.15,1.15,0,0,1,.33.81,1.27,1.27,0,0,1-.33.81A1.26,1.26,0,0,1,60.32,180.79Z"/><path class="cls-2" d="M52.22,177.55a1.27,1.27,0,0,1-.81-.32,1.29,1.29,0,0,1-.32-.81,1.06,1.06,0,0,1,.36-.81,1.18,1.18,0,0,1,1.59,0,1.15,1.15,0,0,1,.33.81,1.27,1.27,0,0,1-.33.81A1.26,1.26,0,0,1,52.22,177.55Z"/><path class="cls-2" d="M61.95,165.39a1.27,1.27,0,0,1-.81-.32,1.29,1.29,0,0,1-.32-.81,1.06,1.06,0,0,1,.36-.81,1.18,1.18,0,0,1,1.59,0,1.15,1.15,0,0,1,.33.81,1.27,1.27,0,0,1-.33.81A1.26,1.26,0,0,1,61.95,165.39Z"/><path class="cls-2" d="M61.13,152.41a1.27,1.27,0,0,1-.81-.32,1.18,1.18,0,0,1,0-1.62,1.23,1.23,0,0,1,1.62,0,1.17,1.17,0,0,1,0,1.62A1.26,1.26,0,0,1,61.13,152.41Z"/><path class="cls-2" d="M52.22,153.22a1.27,1.27,0,0,1-.81-.32,1.18,1.18,0,0,1,0-1.62,1.19,1.19,0,0,1,1.62,0,1.17,1.17,0,0,1,0,1.62A1.26,1.26,0,0,1,52.22,153.22Z"/><path class="cls-2" d="M104.92,164.58a1.27,1.27,0,0,1-.81-.32,1.29,1.29,0,0,1-.32-.81,1.06,1.06,0,0,1,.36-.81,1.12,1.12,0,0,1,1.91.81,1.27,1.27,0,0,1-.33.81A1.26,1.26,0,0,1,104.92,164.58Z"/><path class="cls-2" d="M87.89,175.93a1.27,1.27,0,0,1-.81-.32,1.18,1.18,0,0,1,0-1.62,1.19,1.19,0,0,1,1.62,0,1.17,1.17,0,0,1,0,1.62A1.26,1.26,0,0,1,87.89,175.93Z"/><path class="cls-2" d="M103.3,180.79a1.27,1.27,0,0,1-.81-.32,1.18,1.18,0,0,1,0-1.62,1.19,1.19,0,0,1,1.62,0,1.17,1.17,0,0,1,0,1.62A1.26,1.26,0,0,1,103.3,180.79Z"/><path class="cls-2" d="M103.3,186.47a1.12,1.12,0,0,1-.78-.32,1.14,1.14,0,0,1,0-1.62,1.19,1.19,0,0,1,1.62,0,1.15,1.15,0,0,1,.33.81,1.27,1.27,0,0,1-.33.81A1.26,1.26,0,0,1,103.3,186.47Z"/><path class="cls-2" d="M109.78,188.9a1.27,1.27,0,0,1-.81-.32,1.18,1.18,0,0,1,0-1.62,1.19,1.19,0,0,1,1.62,0,1.17,1.17,0,0,1,0,1.62A1.26,1.26,0,0,1,109.78,188.9Z"/><path class="cls-2" d="M83.84,210a1.27,1.27,0,0,1-.81-.32A1.18,1.18,0,0,1,83,208a1.15,1.15,0,0,1,1.95.81,1.27,1.27,0,0,1-.33.81A1.26,1.26,0,0,1,83.84,210Z"/><path class="cls-2" d="M116.27,182.41a1.27,1.27,0,0,1-.81-.32,1.18,1.18,0,0,1,0-1.62,1.15,1.15,0,0,1,1.95.81,1.27,1.27,0,0,1-.33.81A1.26,1.26,0,0,1,116.27,182.41Z"/><path class="cls-2" d="M126.81,181.6a1.12,1.12,0,0,1-.78-.32,1.16,1.16,0,0,1-.36-.81,1.29,1.29,0,0,1,.32-.81,1.19,1.19,0,0,1,1.62,0,1.17,1.17,0,0,1,0,1.62A1.26,1.26,0,0,1,126.81,181.6Z"/><path class="cls-2" d="M134.92,164.58a1.27,1.27,0,0,1-.81-.32,1.18,1.18,0,0,1,0-1.62,1.19,1.19,0,0,1,1.62,0,1.17,1.17,0,0,1,0,1.62A1.26,1.26,0,0,1,134.92,164.58Z"/><path class="cls-2" d="M140.6,145.12a1.16,1.16,0,0,1-.81-.35,1.14,1.14,0,0,1-.32-.78,1.29,1.29,0,0,1,.32-.81,1.19,1.19,0,0,1,1.62,0,1.17,1.17,0,0,1,0,1.62A1.26,1.26,0,0,1,140.6,145.12Z"/><path class="cls-2" d="M164.92,163.77a1.27,1.27,0,0,1-.81-.32,1.19,1.19,0,0,1-.32-.81,1.29,1.29,0,0,1,.32-.81,1.16,1.16,0,0,1,1.62,0,1.17,1.17,0,0,1,0,1.62A1.26,1.26,0,0,1,164.92,163.77Z"/><path class="cls-2" d="M168.16,150.79a1.16,1.16,0,0,1-.81-.35,1.14,1.14,0,0,1-.32-.78,1.06,1.06,0,0,1,.36-.81,1.18,1.18,0,0,1,1.59,0,1.15,1.15,0,0,1,.33.81,1.27,1.27,0,0,1-.33.81A1.26,1.26,0,0,1,168.16,150.79Z"/><path class="cls-2" d="M177.89,152.41a1.05,1.05,0,0,1-.81-.35,1.14,1.14,0,0,1-.32-.78,1.22,1.22,0,0,1,.32-.81,1.15,1.15,0,0,1,1.59,0,1.11,1.11,0,0,1,.36.81,1.27,1.27,0,0,1-.33.81A1.26,1.26,0,0,1,177.89,152.41Z"/><path class="cls-2" d="M177.89,175.93a1.05,1.05,0,0,1-.81-.35,1.14,1.14,0,0,1-.32-.78,1.06,1.06,0,0,1,.36-.81,1.18,1.18,0,0,1,1.59,0,1.15,1.15,0,0,1,.33.81,1.27,1.27,0,0,1-.33.81A1.26,1.26,0,0,1,177.89,175.93Z"/><path class="cls-2" d="M165.73,182.41a1.27,1.27,0,0,1-.81-.32,1.18,1.18,0,0,1,0-1.62,1.19,1.19,0,0,1,1.62,0,1.13,1.13,0,0,1,.33.81,1.27,1.27,0,0,1-.33.81A1.2,1.2,0,0,1,165.73,182.41Z"/><path class="cls-2" d="M164.92,206.74a1.27,1.27,0,0,1-.81-.32,1.29,1.29,0,0,1-.32-.81,1,1,0,0,1,.32-.78,1.1,1.1,0,0,1,1.59,0,1.16,1.16,0,0,1,.36.81,1.27,1.27,0,0,1-.33.81A1.2,1.2,0,0,1,164.92,206.74Z"/><path class="cls-2" d="M172.22,206.74a1.27,1.27,0,0,1-.81-.32,1.29,1.29,0,0,1-.32-.81,1.06,1.06,0,0,1,.36-.81,1.15,1.15,0,0,1,1.59,0,1,1,0,0,1,.33.78,1.27,1.27,0,0,1-.33.81A1.26,1.26,0,0,1,172.22,206.74Z"/><path class="cls-2" d="M181.14,204.31a1.27,1.27,0,0,1-.81-.32,1.18,1.18,0,0,1,0-1.62,1.15,1.15,0,0,1,1.95.81,1.27,1.27,0,0,1-.33.81A1.26,1.26,0,0,1,181.14,204.31Z"/><path class="cls-2" d="M188.43,199.44a1.16,1.16,0,0,1-.81-.35,1.14,1.14,0,0,1-.32-.78,1.29,1.29,0,0,1,.32-.81,1.19,1.19,0,0,1,1.62,0,1.21,1.21,0,0,1,.33.81,1.27,1.27,0,0,1-.33.81A1.26,1.26,0,0,1,188.43,199.44Z"/><path class="cls-2" d="M67.62,87.55a1.27,1.27,0,0,1-.81-.32,1.18,1.18,0,0,1,0-1.62,1.15,1.15,0,0,1,1.95.81,1.27,1.27,0,0,1-.33.81A1.26,1.26,0,0,1,67.62,87.55Z"/><path class="cls-2" d="M73.3,77.82a1.27,1.27,0,0,1-.81-.32,1.18,1.18,0,0,1,0-1.62,1.19,1.19,0,0,1,1.62,0,1.17,1.17,0,0,1,0,1.62A1.26,1.26,0,0,1,73.3,77.82Z"/><path class="cls-2" d="M126,80.25a1.27,1.27,0,0,1-.81-.32,1.18,1.18,0,0,1,0-1.62,1.19,1.19,0,0,1,1.62,0,1.17,1.17,0,0,1,0,1.62A1.26,1.26,0,0,1,126,80.25Z"/><path class="cls-2" d="M149.51,94a1.27,1.27,0,0,1-.81-.32,1.14,1.14,0,0,1,0-1.59,1.1,1.1,0,0,1,1.59,0,1.16,1.16,0,0,1,.36.81,1.27,1.27,0,0,1-.33.81A1.26,1.26,0,0,1,149.51,94Z"/><path class="cls-2" d="M178.7,90.79a1.27,1.27,0,0,1-.81-.32,1.18,1.18,0,0,1,0-1.62,1.19,1.19,0,0,1,1.62,0,1.17,1.17,0,0,1,0,1.62A1.26,1.26,0,0,1,178.7,90.79Z"/><path class="cls-2" d="M165.73,81.87a1.27,1.27,0,0,1-.81-.32,1.18,1.18,0,0,1,0-1.62,1.19,1.19,0,0,1,1.62,0,1.13,1.13,0,0,1,.33.81,1.27,1.27,0,0,1-.33.81A1.26,1.26,0,0,1,165.73,81.87Z"/><path class="cls-2" d="M168.16,95.66a1.21,1.21,0,0,1-.81-.32,1.18,1.18,0,0,1,0-1.62,1.15,1.15,0,0,1,1.95.81,1.27,1.27,0,0,1-.33.81A1.26,1.26,0,0,1,168.16,95.66Z"/><path class="cls-2" d="M202.22,115.12a1.27,1.27,0,0,1-.81-.32,1.29,1.29,0,0,1-.32-.81,1.06,1.06,0,0,1,.36-.81,1.15,1.15,0,0,1,1.59,0,1,1,0,0,1,.33.78,1.27,1.27,0,0,1-.33.81A1.26,1.26,0,0,1,202.22,115.12Z"/><path class="cls-2" d="M183.57,126.47a1.27,1.27,0,0,1-.81-.32,1.18,1.18,0,0,1,0-1.62,1.15,1.15,0,0,1,1.95.81,1.27,1.27,0,0,1-.33.81A1.26,1.26,0,0,1,183.57,126.47Z"/><path class="cls-2" d="M156,120.79a1.12,1.12,0,0,1-.78-.32,1.16,1.16,0,0,1-.36-.81,1.29,1.29,0,0,1,.32-.81,1.16,1.16,0,0,1,1.62,0,1.07,1.07,0,0,1,.33.78,1.27,1.27,0,0,1-.33.81A1.26,1.26,0,0,1,156,120.79Z"/><path class="cls-2" d="M155.19,133.76a1.05,1.05,0,0,1-.81-.35,1.14,1.14,0,0,1-.32-.78,1.29,1.29,0,0,1,.32-.81,1.23,1.23,0,0,1,1.62,0,1.17,1.17,0,0,1,0,1.62A1.26,1.26,0,0,1,155.19,133.76Z"/><path class="cls-2" d="M173,145.93a1.1,1.1,0,0,1-.81-.35,1,1,0,0,1-.32-.78,1.11,1.11,0,0,1,.36-.81,1.18,1.18,0,0,1,1.59,0,1.17,1.17,0,0,1,0,1.62A1.26,1.26,0,0,1,173,145.93Z"/><path class="cls-2" d="M201.41,155.66a1.27,1.27,0,0,1-.81-.32,1.29,1.29,0,0,1-.32-.81,1.06,1.06,0,0,1,.36-.81,1.15,1.15,0,0,1,1.59,0,1,1,0,0,1,.33.78,1.27,1.27,0,0,1-.33.81A1.26,1.26,0,0,1,201.41,155.66Z"/><path class="cls-2" d="M210.33,167.82a1.27,1.27,0,0,1-.81-.32,1.29,1.29,0,0,1-.32-.81,1.06,1.06,0,0,1,.36-.81,1.18,1.18,0,0,1,1.59,0,1.15,1.15,0,0,1,.33.81,1.27,1.27,0,0,1-.33.81A1.26,1.26,0,0,1,210.33,167.82Z"/><path class="cls-2" d="M224.92,145.93a1.27,1.27,0,0,1-.81-.32,1.18,1.18,0,0,1,0-1.62,1.19,1.19,0,0,1,1.62,0,1.17,1.17,0,0,1,0,1.62A1.26,1.26,0,0,1,224.92,145.93Z"/><path class="cls-2" d="M194.11,126.47a1.05,1.05,0,0,1-.81-.35,1.14,1.14,0,0,1-.32-.78,1.11,1.11,0,0,1,.36-.81,1.15,1.15,0,0,1,1.59,0,1.17,1.17,0,0,1,0,1.62A1.2,1.2,0,0,1,194.11,126.47Z"/><path class="cls-2" d="M104.92,152.41a1.27,1.27,0,0,1-.81-.32,1.18,1.18,0,0,1,0-1.62,1.15,1.15,0,0,1,1.95.81,1.27,1.27,0,0,1-.33.81A1.26,1.26,0,0,1,104.92,152.41Z"/><path class="cls-2" d="M84.65,122.41a1.27,1.27,0,0,1-.81-.32,1.18,1.18,0,0,1,0-1.62,1.15,1.15,0,0,1,1.95.81,1.27,1.27,0,0,1-.33.81A1.26,1.26,0,0,1,84.65,122.41Z"/><path class="cls-2" d="M96,115.12a1.12,1.12,0,0,1-.78-.32,1.16,1.16,0,0,1-.36-.81,1.06,1.06,0,0,1,.36-.81,1.18,1.18,0,0,1,1.59,0,1.15,1.15,0,0,1,.33.81,1.27,1.27,0,0,1-.33.81A1.26,1.26,0,0,1,96,115.12Z"/><path class="cls-2" d="M33.57,95.66a1.27,1.27,0,0,1-.81-.32,1.18,1.18,0,0,1,0-1.62,1.19,1.19,0,0,1,1.59,0,1.06,1.06,0,0,1,.36.81,1.27,1.27,0,0,1-.33.81A1.26,1.26,0,0,1,33.57,95.66Z"/><path class="cls-2" d="M19,102.14a1.27,1.27,0,0,1-.81-.32,1.18,1.18,0,0,1,0-1.62,1.15,1.15,0,0,1,1.59,0,1.06,1.06,0,0,1,.36.81,1.21,1.21,0,0,1-.33.81A1.26,1.26,0,0,1,19,102.14Z"/><path class="cls-2" d="M7.62,114.3a1.27,1.27,0,0,1-.81-.32,1.18,1.18,0,0,1,0-1.62,1.19,1.19,0,0,1,1.62,0,1.13,1.13,0,0,1,.33.81,1.06,1.06,0,0,1-.33.78A1.15,1.15,0,0,1,7.62,114.3Z"/><path class="cls-2" d="M54.65,136.2a1.27,1.27,0,0,1-.81-.32,1.29,1.29,0,0,1-.32-.81,1.06,1.06,0,0,1,.36-.81,1.12,1.12,0,0,1,1.91.81,1.27,1.27,0,0,1-.33.81A1.2,1.2,0,0,1,54.65,136.2Z"/><path class="cls-2" d="M40.86,116.74a1.27,1.27,0,0,1-.81-.32,1.29,1.29,0,0,1-.32-.81,1.06,1.06,0,0,1,.36-.81,1.18,1.18,0,0,1,1.59,0,1.15,1.15,0,0,1,.33.81,1.27,1.27,0,0,1-.33.81A1.2,1.2,0,0,1,40.86,116.74Z"/><path class="cls-2" d="M85.46,98.09a1.27,1.27,0,0,1-.81-.32,1.18,1.18,0,0,1,0-1.62,1.19,1.19,0,0,1,1.62,0,1.17,1.17,0,0,1,0,1.62A1.26,1.26,0,0,1,85.46,98.09Z"/><path class="cls-2" d="M126.81,99.71a1.27,1.27,0,0,1-.81-.32,1.18,1.18,0,0,1,0-1.62,1.19,1.19,0,0,1,1.62,0,1.17,1.17,0,0,1,0,1.62A1.2,1.2,0,0,1,126.81,99.71Z"/><path class="cls-2" d="M123.57,106.2a1.27,1.27,0,0,1-.81-.32,1.18,1.18,0,0,1,0-1.62,1.19,1.19,0,0,1,1.62,0,1.17,1.17,0,0,1,0,1.62A1.26,1.26,0,0,1,123.57,106.2Z"/><path class="cls-2" d="M90.32,136.2a1.27,1.27,0,0,1-.81-.32,1.18,1.18,0,0,1,0-1.62,1.19,1.19,0,0,1,1.62,0,1.17,1.17,0,0,1,0,1.62A1.26,1.26,0,0,1,90.32,136.2Z"/><path class="cls-2" d="M20.59,66.47a1.27,1.27,0,0,1-.81-.32,1.18,1.18,0,0,1,0-1.62,1.19,1.19,0,0,1,1.62,0,1.17,1.17,0,0,1,0,1.62A1.26,1.26,0,0,1,20.59,66.47Z"/><path class="cls-2" d="M31.13,60.79a1.27,1.27,0,0,1-.81-.32,1.18,1.18,0,0,1,0-1.62,1.15,1.15,0,0,1,1.95.81,1.27,1.27,0,0,1-.33.81A1.26,1.26,0,0,1,31.13,60.79Z"/><path class="cls-2" d="M37.62,76.2a1.27,1.27,0,0,1-.81-.32,1.29,1.29,0,0,1-.32-.81,1.06,1.06,0,0,1,.36-.81,1.18,1.18,0,0,1,1.59,0,1.15,1.15,0,0,1,.33.81,1.27,1.27,0,0,1-.33.81A1.2,1.2,0,0,1,37.62,76.2Z"/><path class="cls-2" d="M9.24,83.49a1.27,1.27,0,0,1-.81-.32,1.18,1.18,0,0,1,0-1.62,1.23,1.23,0,0,1,1.62,0,1.17,1.17,0,0,1,0,1.62A1.26,1.26,0,0,1,9.24,83.49Z"/><path class="cls-2" d="M207.89,95.66a1.12,1.12,0,0,1-.78-.32,1.16,1.16,0,0,1-.36-.81,1.29,1.29,0,0,1,.32-.81,1.15,1.15,0,0,1,1.95.81,1.27,1.27,0,0,1-.33.81A1.26,1.26,0,0,1,207.89,95.66Z"/><path class="cls-2" d="M224.92,96.47a1.27,1.27,0,0,1-.81-.32,1.29,1.29,0,0,1-.32-.81,1.11,1.11,0,0,1,.36-.81,1.18,1.18,0,0,1,1.59,0,1.15,1.15,0,0,1,.33.81,1.27,1.27,0,0,1-.33.81A1.2,1.2,0,0,1,224.92,96.47Z"/><path class="cls-2" d="M4.38,29.17a1.27,1.27,0,0,1-.81-.32,1.18,1.18,0,0,1,0-1.62,1.23,1.23,0,0,1,1.62,0,1.17,1.17,0,0,1,0,1.62A1.26,1.26,0,0,1,4.38,29.17Z"/><path class="cls-2" d="M53,19.44a1.27,1.27,0,0,1-.81-.32,1.29,1.29,0,0,1-.32-.81,1.13,1.13,0,0,1,1.94-.81,1.17,1.17,0,0,1,0,1.62A1.26,1.26,0,0,1,53,19.44Z"/><path class="cls-2" d="M11.67,19.44a1.27,1.27,0,0,1-.81-.32,1.18,1.18,0,0,1,0-1.62,1.15,1.15,0,0,1,1.95.81,1.28,1.28,0,0,1-.33.81A1.26,1.26,0,0,1,11.67,19.44Z"/><path class="cls-2" d="M40.86,46.2a1.27,1.27,0,0,1-.81-.32,1.18,1.18,0,0,1,0-1.62,1.15,1.15,0,0,1,1.95.81,1.27,1.27,0,0,1-.33.81A1.26,1.26,0,0,1,40.86,46.2Z"/><path class="cls-2" d="M59.51,62.41a1.27,1.27,0,0,1-.81-.32,1.29,1.29,0,0,1-.32-.81,1.22,1.22,0,0,1,.32-.81,1.15,1.15,0,0,1,1.95.81,1.27,1.27,0,0,1-.33.81A1.26,1.26,0,0,1,59.51,62.41Z"/><path class="cls-2" d="M68.43,120a1.27,1.27,0,0,1-.81-.32,1.29,1.29,0,0,1-.32-.81,1.22,1.22,0,0,1,.32-.81,1.19,1.19,0,0,1,1.59,0,1.16,1.16,0,0,1,.36.81,1.27,1.27,0,0,1-.33.81A1.26,1.26,0,0,1,68.43,120Z"/><path class="cls-2" d="M1.94,143.49a1.27,1.27,0,0,1-.81-.32,1.29,1.29,0,0,1-.32-.81,1.06,1.06,0,0,1,.36-.81,1.18,1.18,0,0,1,1.59,0,1.15,1.15,0,0,1,.33.81,1.28,1.28,0,0,1-.33.81A1.26,1.26,0,0,1,1.94,143.49Z"/><path class="cls-2" d="M220.06,214a1.27,1.27,0,0,1-.81-.32,1.29,1.29,0,0,1-.32-.81,1.06,1.06,0,0,1,.36-.81,1.18,1.18,0,0,1,1.59,0,1.15,1.15,0,0,1,.33.81,1.27,1.27,0,0,1-.33.81A1.26,1.26,0,0,1,220.06,214Z"/><path class="cls-2" d="M193.3,226.2a1.27,1.27,0,0,1-.81-.32,1.14,1.14,0,0,1-.32-.81,1.29,1.29,0,0,1,.32-.81,1.19,1.19,0,0,1,1.62,0,1.15,1.15,0,0,1,.33.81,1.21,1.21,0,0,1-.33.81A1.26,1.26,0,0,1,193.3,226.2Z"/><path class="cls-2" d="M130.87,220.52a1.27,1.27,0,0,1-.81-.32,1.18,1.18,0,0,1,0-1.62,1.19,1.19,0,0,1,1.62,0,1.17,1.17,0,0,1,0,1.62A1.2,1.2,0,0,1,130.87,220.52Z"/><path class="cls-2" d="M14.11,194.58a1.27,1.27,0,0,1-.81-.32,1.18,1.18,0,0,1,0-1.62,1.15,1.15,0,0,1,1.95.81,1.28,1.28,0,0,1-.33.81A1.26,1.26,0,0,1,14.11,194.58Z"/><path class="cls-2" d="M85.46,193a1.27,1.27,0,0,1-.81-.32,1.18,1.18,0,0,1,0-1.62,1.15,1.15,0,0,1,1.95.81,1.27,1.27,0,0,1-.33.81A1.26,1.26,0,0,1,85.46,193Z"/><path class="cls-2" d="M120.32,157.28a1.27,1.27,0,0,1-.81-.32,1.29,1.29,0,0,1-.32-.81,1.22,1.22,0,0,1,.32-.81,1.19,1.19,0,0,1,1.62,0,1.17,1.17,0,0,1,0,1.62A1.2,1.2,0,0,1,120.32,157.28Z"/><path class="cls-2" d="M27.89,130.52a1.27,1.27,0,0,1-.81-.32,1.18,1.18,0,0,1,0-1.62,1.15,1.15,0,0,1,1.95.81,1.28,1.28,0,0,1-.33.81A1.26,1.26,0,0,1,27.89,130.52Z"/><path class="cls-2" d="M169,123.22a1.16,1.16,0,0,1-.81-.35,1.14,1.14,0,0,1-.32-.78,1.06,1.06,0,0,1,.36-.81,1.18,1.18,0,0,1,1.59,0,1.15,1.15,0,0,1,.33.81,1.27,1.27,0,0,1-.33.81A1.26,1.26,0,0,1,169,123.22Z"/><path class="cls-2" d="M196.54,149.17a1.27,1.27,0,0,1-.81-.32,1.29,1.29,0,0,1-.32-.81,1.06,1.06,0,0,1,.36-.81,1.18,1.18,0,0,1,1.59,0,1.15,1.15,0,0,1,.33.81,1.27,1.27,0,0,1-.33.81A1.26,1.26,0,0,1,196.54,149.17Z"/><path class="cls-2" d="M165.73,214.85a1.27,1.27,0,0,1-.81-.32,1.18,1.18,0,0,1,0-1.62,1.19,1.19,0,0,1,1.62,0,1.27,1.27,0,0,1,.33.81,1.13,1.13,0,0,1-.33.81A1.26,1.26,0,0,1,165.73,214.85Z"/><path class="cls-2" d="M129.24,122.41a1.27,1.27,0,0,1-.81-.32,1.18,1.18,0,0,1,0-1.62,1.15,1.15,0,0,1,1.95.81,1.27,1.27,0,0,1-.33.81A1.26,1.26,0,0,1,129.24,122.41Z"/><path class="cls-2" d="M88.7,43.76a1.27,1.27,0,0,1-.81-.32,1.18,1.18,0,0,1,0-1.62,1.15,1.15,0,0,1,1.95.81,1.27,1.27,0,0,1-.33.81A1.26,1.26,0,0,1,88.7,43.76Z"/><path class="cls-2" d="M63.57,85.93a1.27,1.27,0,0,1-.81-.32,1.29,1.29,0,0,1-.32-.81,1.22,1.22,0,0,1,.32-.81,1.19,1.19,0,0,1,1.59,0,1.16,1.16,0,0,1,.36.81,1.27,1.27,0,0,1-.33.81A1.26,1.26,0,0,1,63.57,85.93Z"/><path class="cls-2" d="M37.62,5.65a1.27,1.27,0,0,1-.81-.32,1.29,1.29,0,0,1-.32-.81,1.29,1.29,0,0,1,.32-.81,1.23,1.23,0,0,1,1.62,0,1.27,1.27,0,0,1,.33.81,1.27,1.27,0,0,1-.33.81A1.26,1.26,0,0,1,37.62,5.65Z"/><path class="cls-2" d="M178.7,12.14a1.27,1.27,0,0,1-.81-.32,1.29,1.29,0,0,1-.32-.81,1.06,1.06,0,0,1,.36-.81,1.18,1.18,0,0,1,1.59,0,1.15,1.15,0,0,1,.33.81,1.27,1.27,0,0,1-.33.81A1.26,1.26,0,0,1,178.7,12.14Z"/><path class="cls-2" d="M152.76,226.2a1.27,1.27,0,0,1-.81-.32,1.22,1.22,0,0,1-.32-.81,1.29,1.29,0,0,1,.32-.81,1.15,1.15,0,0,1,1.95.81,1.27,1.27,0,0,1-.33.81A1.26,1.26,0,0,1,152.76,226.2Z"/><path class="cls-2" d="M14.92,130.52a1.27,1.27,0,0,1-.81-.32,1.29,1.29,0,0,1-.32-.81,1.06,1.06,0,0,1,.36-.81,1.18,1.18,0,0,1,1.59,0,1.15,1.15,0,0,1,.33.81,1.28,1.28,0,0,1-.33.81A1.26,1.26,0,0,1,14.92,130.52Z"/><path class="cls-2" d="M222.49,43a1.27,1.27,0,0,1-.81-.32,1.18,1.18,0,0,1,0-1.62,1.19,1.19,0,0,1,1.62,0,1.17,1.17,0,0,1,0,1.62A1.26,1.26,0,0,1,222.49,43Z"/><path class="cls-2" d="M74.92,45.38a1.27,1.27,0,0,1-.81-.32,1.18,1.18,0,0,1,0-1.62,1.15,1.15,0,0,1,1.95.81,1.27,1.27,0,0,1-.33.81A1.26,1.26,0,0,1,74.92,45.38Z"/><path class="cls-2" d="M66,55.93a1.27,1.27,0,0,1-.81-.32,1.18,1.18,0,0,1,0-1.62,1.19,1.19,0,0,1,1.62,0,1.17,1.17,0,0,1,0,1.62A1.26,1.26,0,0,1,66,55.93Z"/><path class="cls-2" d="M47.35,55.93a1.27,1.27,0,0,1-.81-.32,1.29,1.29,0,0,1-.32-.81,1.06,1.06,0,0,1,.36-.81,1.18,1.18,0,0,1,1.59,0,1.15,1.15,0,0,1,.33.81,1.27,1.27,0,0,1-.33.81A1.26,1.26,0,0,1,47.35,55.93Z"/><path class="cls-2" d="M19,38.09a1.27,1.27,0,0,1-.81-.32,1.18,1.18,0,0,1,0-1.62,1.15,1.15,0,0,1,1.59,0,1.06,1.06,0,0,1,.36.81,1.28,1.28,0,0,1-.33.81A1.26,1.26,0,0,1,19,38.09Z"/><path class="cls-2" d="M22.22,8.9a1.18,1.18,0,0,1-.78-.32,1.16,1.16,0,0,1-.36-.81A1.29,1.29,0,0,1,21.4,7a1.15,1.15,0,0,1,1.95.81,1.28,1.28,0,0,1-.33.81A1.26,1.26,0,0,1,22.22,8.9Z"/><path class="cls-2" d="M31.95,26.74a1.27,1.27,0,0,1-.81-.32,1.18,1.18,0,0,1,0-1.62,1.15,1.15,0,0,1,1.95.81,1.27,1.27,0,0,1-.33.81A1.26,1.26,0,0,1,31.95,26.74Z"/><path class="cls-2" d="M45.73,26.74a1.27,1.27,0,0,1-.81-.32,1.29,1.29,0,0,1-.32-.81,1.06,1.06,0,0,1,.36-.81,1.18,1.18,0,0,1,1.59,0,1.15,1.15,0,0,1,.33.81,1.27,1.27,0,0,1-.33.81A1.26,1.26,0,0,1,45.73,26.74Z"/><path class="cls-2" d="M83,22.68a1.27,1.27,0,0,1-.81-.32,1.18,1.18,0,0,1,0-1.62,1.15,1.15,0,0,1,1.95.81,1.27,1.27,0,0,1-.33.81A1.26,1.26,0,0,1,83,22.68Z"/><path class="cls-2" d="M119.51,24.3a1.27,1.27,0,0,1-.81-.32,1.18,1.18,0,0,1,0-1.62,1.19,1.19,0,0,1,1.62,0,1.17,1.17,0,0,1,0,1.62A1.26,1.26,0,0,1,119.51,24.3Z"/><path class="cls-2" d="M121.14,13.76a1.27,1.27,0,0,1-.81-.32,1.29,1.29,0,0,1-.32-.81,1.06,1.06,0,0,1,.36-.81,1.12,1.12,0,0,1,1.91.81,1.27,1.27,0,0,1-.33.81A1.26,1.26,0,0,1,121.14,13.76Z"/><path class="cls-2" d="M139.78,7.28A1.27,1.27,0,0,1,139,7a1.29,1.29,0,0,1-.32-.81,1.29,1.29,0,0,1,.32-.81,1.19,1.19,0,0,1,1.62,0,1.27,1.27,0,0,1,.33.81,1.27,1.27,0,0,1-.33.81A1.34,1.34,0,0,1,139.78,7.28Z"/><path class="cls-2" d="M160.06,26.74a1.27,1.27,0,0,1-.81-.32,1.18,1.18,0,0,1,0-1.62,1.19,1.19,0,0,1,1.62,0,1.17,1.17,0,0,1,0,1.62A1.26,1.26,0,0,1,160.06,26.74Z"/><path class="cls-2" d="M148.7,30a1.27,1.27,0,0,1-.81-.32,1.18,1.18,0,0,1,0-1.62,1.19,1.19,0,0,1,1.62,0,1.17,1.17,0,0,1,0,1.62A1.2,1.2,0,0,1,148.7,30Z"/><path class="cls-2" d="M115.46,35.65a1.27,1.27,0,0,1-.81-.32,1.29,1.29,0,0,1-.32-.81,1.22,1.22,0,0,1,.32-.81,1.15,1.15,0,0,1,1.95.81,1.27,1.27,0,0,1-.33.81A1.26,1.26,0,0,1,115.46,35.65Z"/><path class="cls-2" d="M126.81,48.63a1.27,1.27,0,0,1-.81-.32,1.18,1.18,0,0,1,0-1.62,1.15,1.15,0,0,1,1.95.81,1.27,1.27,0,0,1-.33.81A1.26,1.26,0,0,1,126.81,48.63Z"/><path class="cls-2" d="M79.78,58.36A1.27,1.27,0,0,1,79,58a1.18,1.18,0,0,1,0-1.62,1.15,1.15,0,0,1,1.95.81,1.27,1.27,0,0,1-.33.81A1.26,1.26,0,0,1,79.78,58.36Z"/><path class="cls-2" d="M26.27,88.36a1.27,1.27,0,0,1-.81-.32,1.18,1.18,0,0,1,0-1.62,1.15,1.15,0,0,1,1.95.81,1.28,1.28,0,0,1-.33.81A1.26,1.26,0,0,1,26.27,88.36Z"/><path class="cls-2" d="M51.4,103a1.27,1.27,0,0,1-.81-.32,1.18,1.18,0,0,1,0-1.62,1.23,1.23,0,0,1,1.62,0,1.17,1.17,0,0,1,0,1.62A1.26,1.26,0,0,1,51.4,103Z"/><path class="cls-2" d="M33.57,108.63a1.27,1.27,0,0,1-.81-.32,1.29,1.29,0,0,1-.32-.81,1.06,1.06,0,0,1,.36-.81,1.18,1.18,0,0,1,1.59,0,1.15,1.15,0,0,1,.33.81,1.21,1.21,0,0,1-.33.81A1.26,1.26,0,0,1,33.57,108.63Z"/><path class="cls-2" d="M16.54,120a1.27,1.27,0,0,1-.81-.32,1.18,1.18,0,0,1,0-1.62,1.23,1.23,0,0,1,1.62,0,1.21,1.21,0,0,1,.33.81,1.28,1.28,0,0,1-.33.81A1.26,1.26,0,0,1,16.54,120Z"/><path class="cls-2" d="M10.05,66.47a1.27,1.27,0,0,1-.81-.32,1.18,1.18,0,0,1,0-1.62,1.23,1.23,0,0,1,1.62,0,1.17,1.17,0,0,1,0,1.62A1.26,1.26,0,0,1,10.05,66.47Z"/><path class="cls-2" d="M66,99.71a1.27,1.27,0,0,1-.81-.32,1.29,1.29,0,0,1-.32-.81,1.06,1.06,0,0,1,.36-.81,1.12,1.12,0,0,1,1.91.81,1.27,1.27,0,0,1-.33.81A1.26,1.26,0,0,1,66,99.71Z"/><path class="cls-2" d="M56.27,115.12a1.27,1.27,0,0,1-.81-.32,1.18,1.18,0,0,1,0-1.62,1.19,1.19,0,0,1,1.62,0,1.17,1.17,0,0,1,0,1.62A1.26,1.26,0,0,1,56.27,115.12Z"/><path class="cls-2" d="M51.4,126.47a1.27,1.27,0,0,1-.81-.32,1.29,1.29,0,0,1-.32-.81,1.06,1.06,0,0,1,.36-.81,1.18,1.18,0,0,1,1.59,0,1.15,1.15,0,0,1,.33.81,1.27,1.27,0,0,1-.33.81A1.2,1.2,0,0,1,51.4,126.47Z"/><path class="cls-2" d="M40.86,133.76a1.27,1.27,0,0,1-.81-.32,1.29,1.29,0,0,1-.32-.81,1.06,1.06,0,0,1,.36-.81,1.18,1.18,0,0,1,1.59,0,1.15,1.15,0,0,1,.33.81,1.27,1.27,0,0,1-.33.81A1.26,1.26,0,0,1,40.86,133.76Z"/><path class="cls-2" d="M40.86,150.79a1.27,1.27,0,0,1-.81-.32,1.29,1.29,0,0,1-.32-.81,1.06,1.06,0,0,1,.36-.81,1.18,1.18,0,0,1,1.59,0,1.15,1.15,0,0,1,.33.81,1.27,1.27,0,0,1-.33.81A1.26,1.26,0,0,1,40.86,150.79Z"/><path class="cls-2" d="M18.16,157.28a1.27,1.27,0,0,1-.81-.32,1.18,1.18,0,0,1,0-1.62,1.23,1.23,0,0,1,1.62,0A1.17,1.17,0,0,1,19,157,1.26,1.26,0,0,1,18.16,157.28Z"/><path class="cls-2" d="M35.19,176.74a1.27,1.27,0,0,1-.81-.32,1.18,1.18,0,0,1,0-1.62,1.23,1.23,0,0,1,1.62,0,1.17,1.17,0,0,1,0,1.62A1.26,1.26,0,0,1,35.19,176.74Z"/><path class="cls-2" d="M49.78,189.71a1.27,1.27,0,0,1-.81-.32,1.18,1.18,0,0,1,0-1.62,1.19,1.19,0,0,1,1.62,0,1.17,1.17,0,0,1,0,1.62A1.26,1.26,0,0,1,49.78,189.71Z"/><path class="cls-2" d="M19,205.93a1.27,1.27,0,0,1-.81-.32,1.18,1.18,0,0,1,0-1.62,1.23,1.23,0,0,1,1.62,0,1.15,1.15,0,0,1,.33.81,1.28,1.28,0,0,1-.33.81A1.26,1.26,0,0,1,19,205.93Z"/><path class="cls-2" d="M6.81,201.06a1.27,1.27,0,0,1-.81-.32,1.18,1.18,0,0,1,0-1.62,1.19,1.19,0,0,1,1.59,0,1.11,1.11,0,0,1,.36.81,1.28,1.28,0,0,1-.33.81A1.26,1.26,0,0,1,6.81,201.06Z"/><path class="cls-2" d="M28.7,220.52a1.27,1.27,0,0,1-.81-.32,1.18,1.18,0,0,1,0-1.62,1.15,1.15,0,0,1,1.95.81,1.28,1.28,0,0,1-.33.81A1.2,1.2,0,0,1,28.7,220.52Z"/><path class="cls-2" d="M43.3,225.39a1.27,1.27,0,0,1-.81-.32,1.18,1.18,0,0,1,0-1.62,1.23,1.23,0,0,1,1.62,0,1.17,1.17,0,0,1,0,1.62A1.26,1.26,0,0,1,43.3,225.39Z"/><path class="cls-2" d="M69.24,222.14a1.27,1.27,0,0,1-.81-.32,1.29,1.29,0,0,1-.32-.81,1.06,1.06,0,0,1,.36-.81,1.12,1.12,0,0,1,1.91.81,1.27,1.27,0,0,1-.33.81A1.26,1.26,0,0,1,69.24,222.14Z"/><path class="cls-2" d="M74.11,213.23a1.27,1.27,0,0,1-.81-.32,1.18,1.18,0,0,1,0-1.62,1.19,1.19,0,0,1,1.62,0,1.17,1.17,0,0,1,0,1.62A1.2,1.2,0,0,1,74.11,213.23Z"/><path class="cls-2" d="M71.68,194.58a1.27,1.27,0,0,1-.81-.32,1.18,1.18,0,0,1,0-1.62,1.23,1.23,0,0,1,1.62,0,1.17,1.17,0,0,1,0,1.62A1.2,1.2,0,0,1,71.68,194.58Z"/><path class="cls-2" d="M78.16,186.47a1.27,1.27,0,0,1-.81-.32,1.29,1.29,0,0,1-.32-.81,1.13,1.13,0,0,1,1.94-.81,1.21,1.21,0,0,1,.33.81,1.27,1.27,0,0,1-.33.81A1.2,1.2,0,0,1,78.16,186.47Z"/><path class="cls-2" d="M84.65,154.85a1.27,1.27,0,0,1-.81-.32,1.18,1.18,0,0,1,0-1.62,1.19,1.19,0,0,1,1.62,0,1.17,1.17,0,0,1,0,1.62A1.26,1.26,0,0,1,84.65,154.85Z"/><path class="cls-2" d="M83,141.06a1.27,1.27,0,0,1-.81-.32,1.18,1.18,0,0,1,0-1.62,1.19,1.19,0,0,1,1.62,0,1.17,1.17,0,0,1,0,1.62A1.26,1.26,0,0,1,83,141.06Z"/><path class="cls-2" d="M104.11,100.52a1.27,1.27,0,0,1-.81-.32,1.29,1.29,0,0,1-.32-.81,1.06,1.06,0,0,1,.36-.81,1.12,1.12,0,0,1,1.91.81,1.27,1.27,0,0,1-.33.81A1.26,1.26,0,0,1,104.11,100.52Z"/><path class="cls-2" d="M110.6,90a1.27,1.27,0,0,1-.81-.32,1.29,1.29,0,0,1-.32-.81,1.14,1.14,0,0,1,.32-.81,1.19,1.19,0,0,1,1.62,0,1.17,1.17,0,0,1,0,1.62A1.2,1.2,0,0,1,110.6,90Z"/><path class="cls-2" d="M134.92,83.49a1.27,1.27,0,0,1-.81-.32,1.18,1.18,0,0,1,0-1.62,1.19,1.19,0,0,1,1.62,0,1.17,1.17,0,0,1,0,1.62A1.26,1.26,0,0,1,134.92,83.49Z"/><path class="cls-2" d="M139,67.28a1.16,1.16,0,0,1-.81-.35,1.08,1.08,0,0,1-.32-.78,1.29,1.29,0,0,1,.32-.81,1.19,1.19,0,0,1,1.62,0,1.27,1.27,0,0,1,.33.81,1.11,1.11,0,0,1-.36.81A1.12,1.12,0,0,1,139,67.28Z"/><path class="cls-2" d="M117.89,62.41a1.27,1.27,0,0,1-.81-.32,1.19,1.19,0,0,1-.32-.81,1,1,0,0,1,.32-.78,1.13,1.13,0,0,1,1.62,0,1.17,1.17,0,0,1,0,1.62A1.26,1.26,0,0,1,117.89,62.41Z"/><path class="cls-2" d="M89.51,72.14a1.27,1.27,0,0,1-.81-.32,1.18,1.18,0,0,1,0-1.62,1.19,1.19,0,0,1,1.62,0,1.17,1.17,0,0,1,0,1.62A1.26,1.26,0,0,1,89.51,72.14Z"/><path class="cls-2" d="M168.16,71.33a1.05,1.05,0,0,1-.81-.35,1.14,1.14,0,0,1-.32-.78,1.29,1.29,0,0,1,.32-.81,1.15,1.15,0,0,1,1.95.81A1.27,1.27,0,0,1,169,71,1.2,1.2,0,0,1,168.16,71.33Z"/><path class="cls-2" d="M139.78,57.55a1.21,1.21,0,0,1-.81-.32,1.18,1.18,0,0,1,0-1.62,1.23,1.23,0,0,1,1.62,0,1.17,1.17,0,0,1,0,1.62A1.26,1.26,0,0,1,139.78,57.55Z"/><path class="cls-2" d="M163.3,58.36a1.21,1.21,0,0,1-.81-.32,1.18,1.18,0,0,1,0-1.62,1.15,1.15,0,0,1,1.95.81,1.27,1.27,0,0,1-.33.81A1.26,1.26,0,0,1,163.3,58.36Z"/><path class="cls-2" d="M192.49,55.93a1.27,1.27,0,0,1-.81-.32,1.29,1.29,0,0,1-.32-.81,1.06,1.06,0,0,1,.36-.81,1.18,1.18,0,0,1,1.59,0,1.15,1.15,0,0,1,.33.81,1.27,1.27,0,0,1-.33.81A1.26,1.26,0,0,1,192.49,55.93Z"/><path class="cls-2" d="M188.43,45.38a1.21,1.21,0,0,1-.81-.32,1.18,1.18,0,0,1,0-1.62,1.15,1.15,0,0,1,1.95.81,1.27,1.27,0,0,1-.33.81A1.26,1.26,0,0,1,188.43,45.38Z"/><path class="cls-2" d="M199,35.65a1.27,1.27,0,0,1-.81-.32,1.29,1.29,0,0,1-.32-.81,1.06,1.06,0,0,1,.36-.81,1.15,1.15,0,0,1,1.59,0,1,1,0,0,1,.33.78,1.27,1.27,0,0,1-.33.81A1.26,1.26,0,0,1,199,35.65Z"/><path class="cls-2" d="M190.06,24.3a1.27,1.27,0,0,1-.81-.32,1.14,1.14,0,0,1-.32-.81,1,1,0,0,1,.32-.78,1.14,1.14,0,0,1,1.95.78,1.27,1.27,0,0,1-.33.81A1.26,1.26,0,0,1,190.06,24.3Z"/><path class="cls-2" d="M194.11,15.38a1.1,1.1,0,0,1-.81-.35,1.14,1.14,0,0,1-.32-.78,1.06,1.06,0,0,1,.36-.81,1.18,1.18,0,0,1,1.59,0,1.15,1.15,0,0,1,.33.81,1.27,1.27,0,0,1-.33.81A1.26,1.26,0,0,1,194.11,15.38Z"/><path class="cls-2" d="M218.43,19.44a1.27,1.27,0,0,1-.81-.32,1.16,1.16,0,0,1-.32-.81,1.13,1.13,0,0,1,1.94-.81,1.17,1.17,0,0,1,0,1.62A1.26,1.26,0,0,1,218.43,19.44Z"/><path class="cls-2" d="M229,27.55a1.27,1.27,0,0,1-.81-.32,1.16,1.16,0,0,1-.32-.81,1.22,1.22,0,0,1,.32-.81,1.19,1.19,0,0,1,1.59,0,1.16,1.16,0,0,1,.36.81,1.27,1.27,0,0,1-.33.81A1.26,1.26,0,0,1,229,27.55Z"/><path class="cls-2" d="M212.76,31.6a1.27,1.27,0,0,1-.81-.32,1.29,1.29,0,0,1-.32-.81,1.13,1.13,0,0,1,1.94-.81,1.17,1.17,0,0,1,0,1.62A1.26,1.26,0,0,1,212.76,31.6Z"/><path class="cls-2" d="M194.92,77a1.27,1.27,0,0,1-.81-.32,1.18,1.18,0,0,1,0-1.62,1.19,1.19,0,0,1,1.62,0,1.17,1.17,0,0,1,0,1.62A1.26,1.26,0,0,1,194.92,77Z"/><path class="cls-2" d="M179.52,77a1.27,1.27,0,0,1-.81-.32,1.18,1.18,0,0,1,0-1.62,1.23,1.23,0,0,1,1.62,0,1.17,1.17,0,0,1,0,1.62A1.26,1.26,0,0,1,179.52,77Z"/><path class="cls-2" d="M179.52,60.79a1.1,1.1,0,0,1-.81-.35,1.14,1.14,0,0,1-.32-.78,1.06,1.06,0,0,1,.36-.81,1.18,1.18,0,0,1,1.59,0,1.15,1.15,0,0,1,.33.81,1.27,1.27,0,0,1-.33.81A1.26,1.26,0,0,1,179.52,60.79Z"/><path class="cls-2" d="M210.33,83.49a1.27,1.27,0,0,1-.81-.32,1.29,1.29,0,0,1-.32-.81,1.06,1.06,0,0,1,.36-.81,1.18,1.18,0,0,1,1.59,0,1.15,1.15,0,0,1,.33.81,1.27,1.27,0,0,1-.33.81A1.26,1.26,0,0,1,210.33,83.49Z"/><path class="cls-2" d="M186.81,99.71a1.05,1.05,0,0,1-.81-.35,1.14,1.14,0,0,1-.32-.78,1.06,1.06,0,0,1,.36-.81,1.18,1.18,0,0,1,1.59,0,1.15,1.15,0,0,1,.33.81,1.27,1.27,0,0,1-.33.81A1.26,1.26,0,0,1,186.81,99.71Z"/><path class="cls-2" d="M170.6,106.2a1.16,1.16,0,0,1-.81-.35,1.14,1.14,0,0,1-.32-.78,1.06,1.06,0,0,1,.36-.81,1.18,1.18,0,0,1,1.59,0,1.15,1.15,0,0,1,.33.81,1.27,1.27,0,0,1-.33.81A1.26,1.26,0,0,1,170.6,106.2Z"/><path class="cls-2" d="M153.57,109.44a1.16,1.16,0,0,1-.81-.35,1.14,1.14,0,0,1-.32-.78,1.06,1.06,0,0,1,.36-.81,1.18,1.18,0,0,1,1.59,0,1.15,1.15,0,0,1,.33.81,1.27,1.27,0,0,1-.33.81A1.26,1.26,0,0,1,153.57,109.44Z"/><path class="cls-2" d="M143,127.28a1.16,1.16,0,0,1-.81-.35,1.14,1.14,0,0,1-.32-.78,1.29,1.29,0,0,1,.32-.81,1.19,1.19,0,0,1,1.62,0,1.21,1.21,0,0,1,.33.81,1.06,1.06,0,0,1-.36.81A1.12,1.12,0,0,1,143,127.28Z"/><path class="cls-2" d="M109.78,134.58a1.27,1.27,0,0,1-.81-.32,1.18,1.18,0,0,1,0-1.62,1.19,1.19,0,0,1,1.62,0,1.17,1.17,0,0,1,0,1.62A1.26,1.26,0,0,1,109.78,134.58Z"/><path class="cls-2" d="M131.68,155.66a1.27,1.27,0,0,1-.81-.32,1.18,1.18,0,0,1,0-1.62,1.15,1.15,0,0,1,1.59,0,1.11,1.11,0,0,1,.36.81,1.27,1.27,0,0,1-.33.81A1.26,1.26,0,0,1,131.68,155.66Z"/><path class="cls-2" d="M147.89,169.44a1.27,1.27,0,0,1-.81-.32,1.29,1.29,0,0,1-.32-.81,1.06,1.06,0,0,1,.36-.81,1.12,1.12,0,0,1,1.91.81,1.27,1.27,0,0,1-.33.81A1.26,1.26,0,0,1,147.89,169.44Z"/><path class="cls-2" d="M150.33,184a1.27,1.27,0,0,1-.81-.32,1.18,1.18,0,0,1,0-1.62,1.12,1.12,0,0,1,1.59,0,1.16,1.16,0,0,1,.36.81,1.27,1.27,0,0,1-.33.81A1.26,1.26,0,0,1,150.33,184Z"/><path class="cls-2" d="M135.73,193a1.12,1.12,0,0,1-.78-.32,1.16,1.16,0,0,1-.36-.81,1.29,1.29,0,0,1,.32-.81,1.19,1.19,0,0,1,1.62,0,1.17,1.17,0,0,1,0,1.62A1.26,1.26,0,0,1,135.73,193Z"/><path class="cls-2" d="M129.24,203.5a1.27,1.27,0,0,1-.81-.32,1.18,1.18,0,0,1,0-1.62,1.19,1.19,0,0,1,1.62,0,1.17,1.17,0,0,1,0,1.62A1.2,1.2,0,0,1,129.24,203.5Z"/><path class="cls-2" d="M116.27,203.5a1.27,1.27,0,0,1-.81-.32,1.29,1.29,0,0,1-.32-.81,1.06,1.06,0,0,1,.36-.81,1.12,1.12,0,0,1,1.91.81,1.27,1.27,0,0,1-.33.81A1.26,1.26,0,0,1,116.27,203.5Z"/><path class="cls-2" d="M117.89,171.06a1.27,1.27,0,0,1-.81-.32,1.14,1.14,0,0,1-.32-.81,1.29,1.29,0,0,1,.32-.81,1.16,1.16,0,0,1,1.62,0,1,1,0,0,1,.33.78,1.27,1.27,0,0,1-.33.81A1.26,1.26,0,0,1,117.89,171.06Z"/><path class="cls-2" d="M96.81,205.93a1.12,1.12,0,0,1-.78-.32,1.16,1.16,0,0,1-.36-.81A1.06,1.06,0,0,1,96,204a1.18,1.18,0,0,1,1.59,0,1.15,1.15,0,0,1,.33.81,1.27,1.27,0,0,1-.33.81A1.26,1.26,0,0,1,96.81,205.93Z"/><path class="cls-2" d="M101.68,222.14a1.27,1.27,0,0,1-.81-.32,1.18,1.18,0,0,1,0-1.62,1.19,1.19,0,0,1,1.62,0,1.17,1.17,0,0,1,0,1.62A1.26,1.26,0,0,1,101.68,222.14Z"/><path class="cls-2" d="M119.51,230.25a1.27,1.27,0,0,1-.81-.32,1.22,1.22,0,0,1-.32-.81,1.06,1.06,0,0,1,.36-.81,1.18,1.18,0,0,1,1.59,0,1.15,1.15,0,0,1,.33.81,1.21,1.21,0,0,1-.33.81A1.26,1.26,0,0,1,119.51,230.25Z"/><path class="cls-2" d="M203.84,184.85a1.27,1.27,0,0,1-.81-.32,1.29,1.29,0,0,1-.32-.81,1.06,1.06,0,0,1,.36-.81,1.18,1.18,0,0,1,1.59,0,1.15,1.15,0,0,1,.33.81,1.27,1.27,0,0,1-.33.81A1.26,1.26,0,0,1,203.84,184.85Z"/><path class="cls-2" d="M194.11,164.58a1.05,1.05,0,0,1-.81-.35,1.14,1.14,0,0,1-.32-.78,1.14,1.14,0,0,1,1.91-.81,1.16,1.16,0,0,1,.36.81,1.27,1.27,0,0,1-.33.81A1.2,1.2,0,0,1,194.11,164.58Z"/><path class="cls-2" d="M176.27,163.77a1.27,1.27,0,0,1-.81-.32,1.22,1.22,0,0,1-.32-.81,1.14,1.14,0,0,1,2.27,0,1.13,1.13,0,0,1-.33.78A1.09,1.09,0,0,1,176.27,163.77Z"/><path class="cls-2" d="M177.08,135.39a1.16,1.16,0,0,1-.81-.35,1.08,1.08,0,0,1-.32-.78,1.29,1.29,0,0,1,.32-.81,1.19,1.19,0,0,1,1.62,0,1.27,1.27,0,0,1,.33.81,1.11,1.11,0,0,1-.36.81A1.12,1.12,0,0,1,177.08,135.39Z"/><path class="cls-2" d="M202.22,137a1.27,1.27,0,0,1-.81-.32,1.18,1.18,0,0,1,0-1.62,1.19,1.19,0,0,1,1.62,0,1.17,1.17,0,0,1,0,1.62A1.26,1.26,0,0,1,202.22,137Z"/><path class="cls-2" d="M216.81,154a1.12,1.12,0,0,1-.78-.32,1.16,1.16,0,0,1-.36-.81,1.29,1.29,0,0,1,.32-.81,1.15,1.15,0,0,1,1.59,0,1,1,0,0,1,.36.81,1.27,1.27,0,0,1-.33.81A1.26,1.26,0,0,1,216.81,154Z"/><path class="cls-2" d="M224.92,175.93a1.12,1.12,0,0,1-.78-.32,1.16,1.16,0,0,1-.36-.81,1.29,1.29,0,0,1,.32-.81,1.15,1.15,0,0,1,1.95.81,1.27,1.27,0,0,1-.33.81A1.26,1.26,0,0,1,224.92,175.93Z"/><path class="cls-2" d="M205.46,200.25a1.12,1.12,0,0,1-.78-.32,1.16,1.16,0,0,1-.36-.81,1.29,1.29,0,0,1,.32-.81,1.15,1.15,0,0,1,1.59,0,1,1,0,0,1,.36.81,1.27,1.27,0,0,1-.33.81A1.26,1.26,0,0,1,205.46,200.25Z"/><path class="cls-2" d="M227.35,197.82a1.27,1.27,0,0,1-.81-.32,1.29,1.29,0,0,1-.32-.81,1.06,1.06,0,0,1,.36-.81,1.18,1.18,0,0,1,1.59,0,1.15,1.15,0,0,1,.33.81,1.27,1.27,0,0,1-.33.81A1.26,1.26,0,0,1,227.35,197.82Z"/><path class="cls-2" d="M209.52,212.41a1.27,1.27,0,0,1-.81-.32,1.18,1.18,0,0,1,0-1.62,1.16,1.16,0,0,1,1.62,0,1.13,1.13,0,0,1,.33.78,1.27,1.27,0,0,1-.33.81A1.26,1.26,0,0,1,209.52,212.41Z"/><path class="cls-2" d="M212.76,221.33a1.27,1.27,0,0,1-.81-.32,1.18,1.18,0,0,1,0-1.62,1.19,1.19,0,0,1,1.62,0,1.17,1.17,0,0,1,0,1.62A1.26,1.26,0,0,1,212.76,221.33Z"/><path class="cls-2" d="M202.22,227.82a1.27,1.27,0,0,1-.81-.32,1.29,1.29,0,0,1-.32-.81,1.11,1.11,0,0,1,.36-.81,1.15,1.15,0,0,1,1.59,0,1,1,0,0,1,.33.78,1.27,1.27,0,0,1-.33.81A1.26,1.26,0,0,1,202.22,227.82Z"/><path class="cls-2" d="M170.6,226.2a1.15,1.15,0,0,1-.81-.32,1.18,1.18,0,0,1,0-1.62,1.15,1.15,0,0,1,1.95.81,1.27,1.27,0,0,1-.33.81A1.2,1.2,0,0,1,170.6,226.2Z"/><path class="cls-2" d="M144.65,215.66a1.1,1.1,0,0,1-.81-.35,1.14,1.14,0,0,1-.32-.78,1.06,1.06,0,0,1,.36-.81,1.18,1.18,0,0,1,1.59,0,1.15,1.15,0,0,1,.33.81,1.27,1.27,0,0,1-.33.81A1.26,1.26,0,0,1,144.65,215.66Z"/><path class="cls-2" d="M91.95,231.06a1.27,1.27,0,0,1-.81-.32,1.16,1.16,0,0,1-.32-.81,1.06,1.06,0,0,1,.36-.81,1.12,1.12,0,0,1,1.91.81,1.06,1.06,0,0,1-.36.81A1.12,1.12,0,0,1,91.95,231.06Z"/><path class="cls-2" d="M9.24,95.66a1.27,1.27,0,0,1-.81-.32,1.18,1.18,0,0,1,0-1.62,1.23,1.23,0,0,1,1.62,0,1.17,1.17,0,0,1,0,1.62A1.26,1.26,0,0,1,9.24,95.66Z"/><path class="cls-2" d="M42.49,16.2a1.16,1.16,0,0,1-.81-.35,1,1,0,0,1-.32-.78,1.22,1.22,0,0,1,.32-.81,1.15,1.15,0,0,1,1.95.81,1.06,1.06,0,0,1-.36.81A1.12,1.12,0,0,1,42.49,16.2Z"/><path class="cls-2" d="M227.35,111.87a1.27,1.27,0,0,1-.81-.32,1.29,1.29,0,0,1-.32-.81,1.06,1.06,0,0,1,.36-.81,1.18,1.18,0,0,1,1.59,0,1.15,1.15,0,0,1,.33.81,1.27,1.27,0,0,1-.33.81A1.26,1.26,0,0,1,227.35,111.87Z"/><path class="cls-2" d="M230.6,133.76a1.27,1.27,0,0,1-.81-.32,1.18,1.18,0,0,1,0-1.62,1.19,1.19,0,0,1,1.62,0,1.17,1.17,0,0,1,0,1.62A1.26,1.26,0,0,1,230.6,133.76Z"/><path class="cls-2" d="M2.76,167.82a1.27,1.27,0,0,1-.81-.32,1.29,1.29,0,0,1-.32-.81,1.06,1.06,0,0,1,.36-.81,1.18,1.18,0,0,1,1.59,0,1.15,1.15,0,0,1,.33.81,1.28,1.28,0,0,1-.33.81A1.26,1.26,0,0,1,2.76,167.82Z"/><path class="cls-2" d="M233,76.2a1.27,1.27,0,0,1-.81-.32,1.18,1.18,0,0,1,0-1.62,1.23,1.23,0,0,1,1.62,0,1.17,1.17,0,0,1,0,1.62A1.26,1.26,0,0,1,233,76.2Z"/><path class="cls-2" d="M223.3,85.93a1.27,1.27,0,0,1-.81-.32,1.18,1.18,0,0,1,0-1.62,1.19,1.19,0,0,1,1.62,0,1.27,1.27,0,0,1,.33.81,1.13,1.13,0,0,1-.33.81A1.26,1.26,0,0,1,223.3,85.93Z"/><path class="cls-2" d="M221.68,195.39a1.27,1.27,0,0,1-.81-.32,1.29,1.29,0,0,1-.32-.81,1.13,1.13,0,0,1,1.94-.81,1.17,1.17,0,0,1,0,1.62A1.26,1.26,0,0,1,221.68,195.39Z"/><path class="cls-2" d="M231.41,221.33a1.27,1.27,0,0,1-.81-.32,1.18,1.18,0,0,1,0-1.62,1.19,1.19,0,0,1,1.62,0,1.27,1.27,0,0,1,.33.81,1.13,1.13,0,0,1-.33.81A1.26,1.26,0,0,1,231.41,221.33Z"/><path class="cls-2" d="M1.13,187.28A1.27,1.27,0,0,1,.32,187a1.18,1.18,0,0,1,0-1.62,1.23,1.23,0,0,1,1.62,0,1.17,1.17,0,0,1,0,1.62A1.26,1.26,0,0,1,1.13,187.28Z"/><path class="cls-2" d="M8.43,231.06a1.27,1.27,0,0,1-.81-.32,1.18,1.18,0,0,1,0-1.62,1.15,1.15,0,0,1,1.95.81,1.28,1.28,0,0,1-.33.81A1.26,1.26,0,0,1,8.43,231.06Z"/><path class="cls-2" d="M227.35,77.82a1.27,1.27,0,0,1-.81-.32,1.29,1.29,0,0,1-.32-.81,1.06,1.06,0,0,1,.36-.81,1.18,1.18,0,0,1,1.59,0,1.15,1.15,0,0,1,.33.81,1.27,1.27,0,0,1-.33.81A1.26,1.26,0,0,1,227.35,77.82Z"/><path class="cls-2" d="M3.57,54.3A1.27,1.27,0,0,1,2.76,54a1.18,1.18,0,0,1,0-1.62,1.23,1.23,0,0,1,1.62,0,1.17,1.17,0,0,1,0,1.62A1.26,1.26,0,0,1,3.57,54.3Z"/><path class="cls-2" d="M57.89,42.31a2.1,2.1,0,0,1-2.11-2.11,2.14,2.14,0,0,1,.61-1.49,2.2,2.2,0,0,1,3,0,2.11,2.11,0,0,1-1.49,3.6Z"/><path class="cls-2" d="M94.38,35.82a2.14,2.14,0,0,1-1.49-.62,2.2,2.2,0,0,1-.61-1.49,2.14,2.14,0,0,1,.61-1.49,2.16,2.16,0,0,1,3,0,2.14,2.14,0,0,1,.62,1.49,2.11,2.11,0,0,1-2.11,2.11Z"/><path class="cls-2" d="M94.38,11.49a2.1,2.1,0,0,1-2.11-2.11,2.08,2.08,0,0,1,.61-1.49,2.2,2.2,0,0,1,3,0,2.11,2.11,0,0,1,0,3A2.2,2.2,0,0,1,94.38,11.49Z"/><path class="cls-2" d="M130.05,34.2a2.1,2.1,0,0,1-2.11-2.11,2.14,2.14,0,0,1,.61-1.49,2.2,2.2,0,0,1,3,0,2,2,0,0,1,.62,1.49,2.2,2.2,0,0,1-.62,1.49A2.13,2.13,0,0,1,130.05,34.2Z"/><path class="cls-2" d="M145.46,39.06a2,2,0,0,1-1.49-.65,2,2,0,0,1-.61-1.46,2.14,2.14,0,0,1,.61-1.49,2.2,2.2,0,0,1,3,0,2,2,0,0,1,.62,1.49,2,2,0,0,1-.65,1.49A2,2,0,0,1,145.46,39.06Z"/><path class="cls-2" d="M152.76,74.74a2.11,2.11,0,0,1-1.49-3.6,2.2,2.2,0,0,1,3,0,2.11,2.11,0,0,1-1.49,3.6Z"/><path class="cls-2" d="M177.08,22.85a2.08,2.08,0,0,1-1.49-.62,2.12,2.12,0,0,1,0-3,2.2,2.2,0,0,1,3,0,2.08,2.08,0,0,1,.62,1.49,2.14,2.14,0,0,1-.62,1.49A2.07,2.07,0,0,1,177.08,22.85Z"/><path class="cls-2" d="M207.08,22a2.11,2.11,0,0,1-1.49-3.6,2.2,2.2,0,0,1,3,0,2.11,2.11,0,0,1-1.49,3.6Z"/><path class="cls-2" d="M210.33,9.06a2.14,2.14,0,0,1-1.49-.62A2.2,2.2,0,0,1,208.22,7a2.14,2.14,0,0,1,.61-1.49,2.2,2.2,0,0,1,3,0A2.2,2.2,0,0,1,212.44,7a2,2,0,0,1-.58,1.46A2.16,2.16,0,0,1,210.33,9.06Z"/><path class="cls-2" d="M224.92,59.33a2.11,2.11,0,0,1-1.49-3.6,2.16,2.16,0,0,1,3,0,2.11,2.11,0,0,1-1.49,3.6Z"/><path class="cls-2" d="M25.46,153.39a2.08,2.08,0,0,1-1.49-.62,2.19,2.19,0,0,1-.61-1.49,2.14,2.14,0,0,1,.61-1.49,2.2,2.2,0,0,1,3,0,2.14,2.14,0,0,1,.62,1.49,2.2,2.2,0,0,1-.62,1.49A2.07,2.07,0,0,1,25.46,153.39Z"/><path class="cls-2" d="M15.73,185a2.08,2.08,0,0,1-1.49-.62,2.12,2.12,0,0,1,0-3,2.16,2.16,0,0,1,3,0,2.11,2.11,0,0,1,0,3A2.07,2.07,0,0,1,15.73,185Z"/><path class="cls-2" d="M6.81,218.26a2.14,2.14,0,0,1-1.49-.62,2.19,2.19,0,0,1-.61-1.49,2.14,2.14,0,0,1,.61-1.49,2.2,2.2,0,0,1,3,0,2.14,2.14,0,0,1,.62,1.49,2.2,2.2,0,0,1-.62,1.49A2.13,2.13,0,0,1,6.81,218.26Z"/><path class="cls-2" d="M57.08,227.17a2.14,2.14,0,0,1-1.49-.62,2.19,2.19,0,0,1-.61-1.49,2.14,2.14,0,0,1,.61-1.49,2.2,2.2,0,0,1,3,0,2.14,2.14,0,0,1,.62,1.49,2.2,2.2,0,0,1-.62,1.49A2.13,2.13,0,0,1,57.08,227.17Z"/><path class="cls-2" d="M61.95,202.85a2.1,2.1,0,0,1-2.11-2.11,2.08,2.08,0,0,1,.61-1.49,2.16,2.16,0,0,1,3,0,2.14,2.14,0,0,1,.62,1.49,2.2,2.2,0,0,1-.62,1.49A2.13,2.13,0,0,1,61.95,202.85Z"/><path class="cls-2" d="M67.62,147.71a2.1,2.1,0,0,1-2.11-2.11,2.08,2.08,0,0,1,.61-1.49,2.16,2.16,0,0,1,3,0,2.14,2.14,0,0,1,.62,1.49,2.2,2.2,0,0,1-.62,1.49A2.07,2.07,0,0,1,67.62,147.71Z"/><path class="cls-2" d="M91.95,166.36a2.11,2.11,0,0,1-1.49-3.6,2.16,2.16,0,0,1,3,0,2.14,2.14,0,0,1,.62,1.49,2.2,2.2,0,0,1-.62,1.49A2.07,2.07,0,0,1,91.95,166.36Z"/><path class="cls-2" d="M109.78,196.36a2.1,2.1,0,0,1-2.11-2.11,2.08,2.08,0,0,1,.61-1.49,2.2,2.2,0,0,1,3,0,2,2,0,0,1,.62,1.49,2.08,2.08,0,0,1-.62,1.49A2.13,2.13,0,0,1,109.78,196.36Z"/><path class="cls-2" d="M110.6,217.44a2.08,2.08,0,0,1-1.49-.62,2.12,2.12,0,0,1,0-3,2.16,2.16,0,0,1,3,0,2.11,2.11,0,0,1,0,3A2.13,2.13,0,0,1,110.6,217.44Z"/><path class="cls-2" d="M134.92,179.34a2.11,2.11,0,0,1-1.49-3.6,2.2,2.2,0,0,1,3,0,2.11,2.11,0,0,1-1.49,3.6Z"/><path class="cls-2" d="M169,194.74a2.11,2.11,0,0,1-1.49-3.6,2.2,2.2,0,0,1,3,0,2.11,2.11,0,0,1-1.49,3.6Z"/><path class="cls-2" d="M177.89,212.58a2.14,2.14,0,0,1-1.49-.62,2.19,2.19,0,0,1-.61-1.49,2.08,2.08,0,0,1,.61-1.49,2.2,2.2,0,0,1,3,0,2.08,2.08,0,0,1,.62,1.49,2.2,2.2,0,0,1-.62,1.49A2.13,2.13,0,0,1,177.89,212.58Z"/><path class="cls-2" d="M81.41,80.41a2.14,2.14,0,0,1-1.49-.62,2.2,2.2,0,0,1-.61-1.49,2.14,2.14,0,0,1,.61-1.49,2.2,2.2,0,0,1,3,0,2.14,2.14,0,0,1,.62,1.49,2.2,2.2,0,0,1-.62,1.49A2.13,2.13,0,0,1,81.41,80.41Z"/><path class="cls-2" d="M113.84,76.36a2.08,2.08,0,0,1-1.49-.62,2.12,2.12,0,0,1,0-3,2.2,2.2,0,0,1,3,0,2.11,2.11,0,0,1-1.49,3.6Z"/><path class="cls-2" d="M145.46,96.63A2.11,2.11,0,0,1,144,93a2.2,2.2,0,0,1,3,0,2,2,0,0,1,.62,1.49,2.16,2.16,0,0,1-2.11,2.11Z"/><path class="cls-2" d="M168.16,140.42a2.11,2.11,0,0,1-1.49-3.6,2.16,2.16,0,0,1,3,0,2.08,2.08,0,0,1,.62,1.49,2.11,2.11,0,0,1-2.11,2.11Z"/><path class="cls-2" d="M216.81,168.79a2.1,2.1,0,0,1-2.11-2.11,2,2,0,0,1,.65-1.49,2.19,2.19,0,0,1,2.95,0,2.11,2.11,0,0,1-1.49,3.6Z"/><path class="cls-2" d="M152.76,155.82a2.11,2.11,0,0,1-1.49-3.6,2.2,2.2,0,0,1,3,0,2.11,2.11,0,0,1-1.49,3.6Z"/><path class="cls-2" d="M119.51,145.28a2.14,2.14,0,0,1-1.49-.62,2.2,2.2,0,0,1-.61-1.49,2.14,2.14,0,0,1,.61-1.49,2.2,2.2,0,0,1,3,0,2.14,2.14,0,0,1,.62,1.49,2.2,2.2,0,0,1-.62,1.49A2.13,2.13,0,0,1,119.51,145.28Z"/><path class="cls-2" d="M54.65,93.39a2.11,2.11,0,0,1-1.49-3.6,2.2,2.2,0,0,1,3,0,2.11,2.11,0,0,1,0,3A2.07,2.07,0,0,1,54.65,93.39Z"/><path class="cls-2" d="M36,120.15A2.1,2.1,0,0,1,33.89,118a2.08,2.08,0,0,1,.61-1.49,2.16,2.16,0,0,1,3,0,2.11,2.11,0,0,1-1.49,3.6Z"/><path class="cls-2" d="M218.43,100.69a2.14,2.14,0,0,1-1.49-.62,2.2,2.2,0,0,1-.61-1.49,2.14,2.14,0,0,1,.61-1.49,2.2,2.2,0,0,1,3,0,2.08,2.08,0,0,1,.62,1.49,2.11,2.11,0,0,1-2.11,2.11Z"/><path class="cls-2" d="M23,52a2.17,2.17,0,0,1-2.11-2.11,2.14,2.14,0,0,1,.61-1.49,2.16,2.16,0,0,1,3,0,2.11,2.11,0,0,1,0,3A2.07,2.07,0,0,1,23,52Z"/><path class="cls-2" d="M27.08,18a2.2,2.2,0,0,1-1.49-.62A2.14,2.14,0,0,1,25,15.87a2.08,2.08,0,0,1,.61-1.49,2.16,2.16,0,0,1,3,0,2.08,2.08,0,0,1,.62,1.49A2.11,2.11,0,0,1,27.08,18Z"/><path class="cls-2" d="M10.86,9.06a2.14,2.14,0,0,1-1.49-.62A2.19,2.19,0,0,1,8.76,7a2.14,2.14,0,0,1,.61-1.49,2.2,2.2,0,0,1,3,0A2.14,2.14,0,0,1,13,7a2.2,2.2,0,0,1-.62,1.49A2.13,2.13,0,0,1,10.86,9.06Z"/><path class="cls-2" d="M215.19,121.77a2.11,2.11,0,0,1-1.49-3.6,2.2,2.2,0,0,1,3,0,2.08,2.08,0,0,1,.62,1.49,2.14,2.14,0,0,1-.62,1.49A2.07,2.07,0,0,1,215.19,121.77Z"/><path class="cls-2" d="M142.22,205.28a2.14,2.14,0,0,1-1.49-.62,2.19,2.19,0,0,1-.61-1.49,2.14,2.14,0,0,1,.61-1.49,2.16,2.16,0,0,1,3,0,2.14,2.14,0,0,1,.62,1.49,2.2,2.2,0,0,1-.62,1.49A2.13,2.13,0,0,1,142.22,205.28Z"/><path class="cls-2" d="M83,228a2.14,2.14,0,0,1-1.49-.62,2.19,2.19,0,0,1-.61-1.49,2.14,2.14,0,0,1,.61-1.49,2.16,2.16,0,0,1,3,0,2.14,2.14,0,0,1,.62,1.49,2.2,2.2,0,0,1-.62,1.49A2.13,2.13,0,0,1,83,228Z"/><path class="cls-2" d="M70.86,136.36a2.14,2.14,0,0,1-1.49-.62,2.12,2.12,0,0,1,0-3,2.2,2.2,0,0,1,3,0,2.11,2.11,0,0,1-1.49,3.6Z"/><path class="cls-2" d="M77.35,95a2.14,2.14,0,0,1-1.49-.62,2.2,2.2,0,0,1-.61-1.49,2.14,2.14,0,0,1,.61-1.49,2.16,2.16,0,0,1,3,0,2.08,2.08,0,0,1,.62,1.49A2.11,2.11,0,0,1,77.35,95Z"/><path class="cls-2" d="M134.11,112.85a2.11,2.11,0,0,1-1.49-3.6,2.2,2.2,0,0,1,3,0,2.14,2.14,0,0,1,.62,1.49,2.2,2.2,0,0,1-.62,1.49A2.13,2.13,0,0,1,134.11,112.85Z"/><path class="cls-2" d="M218.43,142.85a2.14,2.14,0,0,1-1.49-.62,2.2,2.2,0,0,1-.61-1.49,2.14,2.14,0,0,1,.61-1.49,2.2,2.2,0,0,1,3,0,2.08,2.08,0,0,1,.62,1.49,2.11,2.11,0,0,1-2.11,2.11Z"/><path class="cls-2" d="M172.22,49.6a2.11,2.11,0,0,1-1.49-3.6,2.2,2.2,0,0,1,3,0,2.14,2.14,0,0,1,.62,1.49,2.2,2.2,0,0,1-.62,1.49A2.13,2.13,0,0,1,172.22,49.6Z"/><path class="cls-2" d="M109.78,52.85a2.14,2.14,0,0,1-1.49-.62,2.2,2.2,0,0,1-.61-1.49,2.08,2.08,0,0,1,.61-1.49,2.2,2.2,0,0,1,3,0,2.08,2.08,0,0,1,.62,1.49,2.11,2.11,0,0,1-2.11,2.11Z"/><path class="cls-2" d="M40.86,63.39a2.11,2.11,0,0,1-1.49-3.6,2.16,2.16,0,0,1,3,0,2.11,2.11,0,0,1-1.49,3.6Z"/><path class="cls-2" d="M160.06,15.55a2.11,2.11,0,0,1-1.49-3.6,2.2,2.2,0,0,1,3,0,2.11,2.11,0,0,1-1.49,3.6Z"/><path class="cls-2" d="M190.87,68.25a2.11,2.11,0,0,1-1.49-3.6,2.2,2.2,0,0,1,3,0,2.08,2.08,0,0,1,.62,1.49,2.11,2.11,0,0,1-2.11,2.11Z"/><path class="cls-2" d="M218.43,186.63a2.14,2.14,0,0,1-1.49-.62,2.2,2.2,0,0,1-.61-1.49,2.14,2.14,0,0,1,.61-1.49,2.2,2.2,0,0,1,3,0,2.08,2.08,0,0,1,.62,1.49,2.11,2.11,0,0,1-2.11,2.11Z"/><path class="cls-2" d="M16.54,227.17a2.08,2.08,0,0,1-1.49-.62,2.12,2.12,0,0,1,0-3,2.16,2.16,0,0,1,3,0,2.11,2.11,0,0,1,0,3A2.07,2.07,0,0,1,16.54,227.17Z"/><path class="cls-2" d="M8.43,43.93a2,2,0,0,1-1.49-.65,2,2,0,0,1-.61-1.46,2.14,2.14,0,0,1,.61-1.49,2.16,2.16,0,0,1,3,0,2.11,2.11,0,0,1,0,3A2.07,2.07,0,0,1,8.43,43.93Z"/><path class="cls-2" d="M53,11.49a2.11,2.11,0,0,1-1.49-3.6,2.2,2.2,0,0,1,3,0A2.11,2.11,0,0,1,53,11.49Z"/><path class="cls-2" d="M130.87,15.55a2.11,2.11,0,0,1-1.49-3.6,2.2,2.2,0,0,1,3,0,2.08,2.08,0,0,1,.62,1.49,2.11,2.11,0,0,1-2.11,2.11Z"/><path class="cls-2" d="M8.43,104.74a2.08,2.08,0,0,1-1.49-.62,2.12,2.12,0,0,1,0-3,2.2,2.2,0,0,1,3,0,2.11,2.11,0,0,1-1.49,3.6Z"/><path class="cls-2" d="M23.84,82a2.08,2.08,0,0,1-1.49-.62,2.12,2.12,0,0,1,0-3,2.2,2.2,0,0,1,3,0,2.08,2.08,0,0,1,.62,1.49,2.14,2.14,0,0,1-.62,1.49A2.07,2.07,0,0,1,23.84,82Z"/><path class="cls-2" d="M12.49,152.58A2.14,2.14,0,0,1,11,152a2.19,2.19,0,0,1-.61-1.49A2.14,2.14,0,0,1,11,149a2.16,2.16,0,0,1,3,0,2.14,2.14,0,0,1,.62,1.49A2.2,2.2,0,0,1,14,152,2.07,2.07,0,0,1,12.49,152.58Z"/><path class="cls-2" d="M35.19,164.74a2.14,2.14,0,0,1-1.49-.62,2.2,2.2,0,0,1-.61-1.49,2.08,2.08,0,0,1,.61-1.49,2.2,2.2,0,0,1,3,0,2.14,2.14,0,0,1,.62,1.49,2.2,2.2,0,0,1-.62,1.49A2.13,2.13,0,0,1,35.19,164.74Z"/><path class="cls-2" d="M31.95,194.74a2.08,2.08,0,0,1-1.49-.62,2.12,2.12,0,0,1,0-3,2.2,2.2,0,0,1,3,0,2.11,2.11,0,0,1,0,3A2.07,2.07,0,0,1,31.95,194.74Z"/><path class="cls-2" d="M43.3,214.2a2.14,2.14,0,0,1-1.49-.62,2.19,2.19,0,0,1-.61-1.49,2.08,2.08,0,0,1,.61-1.49,2.16,2.16,0,0,1,3,0,2.14,2.14,0,0,1,.62,1.49,2.2,2.2,0,0,1-.62,1.49A2.13,2.13,0,0,1,43.3,214.2Z"/><path class="cls-2" d="M70.86,173.66a2.14,2.14,0,0,1-1.49-.62,2.08,2.08,0,0,1-.61-1.49,1.93,1.93,0,0,1,.65-1.49A2.09,2.09,0,0,1,73,171.55a2.2,2.2,0,0,1-.62,1.49A2.13,2.13,0,0,1,70.86,173.66Z"/><path class="cls-2" d="M100.87,122.58a2.14,2.14,0,0,1-1.49-.62,2.2,2.2,0,0,1-.61-1.49,2.14,2.14,0,0,1,.61-1.49,2.2,2.2,0,0,1,3,0,2.14,2.14,0,0,1,.62,1.49,2.2,2.2,0,0,1-.62,1.49A2.13,2.13,0,0,1,100.87,122.58Z"/><path class="cls-2" d="M83.84,111.23a2.11,2.11,0,0,1-1.49-3.6,2.16,2.16,0,0,1,3,0,2.11,2.11,0,0,1-1.49,3.6Z"/><path class="cls-2" d="M120.32,93.39a2.14,2.14,0,0,1-1.49-.62,2.2,2.2,0,0,1-.61-1.49,2.14,2.14,0,0,1,.61-1.49,2.2,2.2,0,0,1,3,0,2.14,2.14,0,0,1,.62,1.49,2.2,2.2,0,0,1-.62,1.49A2.13,2.13,0,0,1,120.32,93.39Z"/><path class="cls-2" d="M199.79,54.47a2.14,2.14,0,0,1-1.49-.62,2.2,2.2,0,0,1-.61-1.49,2.14,2.14,0,0,1,.61-1.49,2.2,2.2,0,0,1,3,0,2.08,2.08,0,0,1,.62,1.49,2.11,2.11,0,0,1-2.11,2.11Z"/><path class="cls-2" d="M198.16,88.52a2.08,2.08,0,0,1-1.49-.62,2.2,2.2,0,0,1-.61-1.49,2.14,2.14,0,0,1,.61-1.49,2.2,2.2,0,0,1,3,0,2.11,2.11,0,0,1,0,3A2.07,2.07,0,0,1,198.16,88.52Z"/><path class="cls-2" d="M190.06,185.82a2.14,2.14,0,0,1-1.49-.62,2.2,2.2,0,0,1-.61-1.49,2.14,2.14,0,0,1,.61-1.49,2.2,2.2,0,0,1,3,0,2.14,2.14,0,0,1,.62,1.49,2.2,2.2,0,0,1-.62,1.49A2.13,2.13,0,0,1,190.06,185.82Z"/><path class="cls-2" d="M191.68,144.47a2.08,2.08,0,0,1-1.49-.62,2.12,2.12,0,0,1,0-3,2.2,2.2,0,0,1,3,0,2.11,2.11,0,0,1,0,3A2.07,2.07,0,0,1,191.68,144.47Z"/><path class="cls-2" d="M180.33,116.09a2.14,2.14,0,0,1-1.49-.62,2.2,2.2,0,0,1-.61-1.49,2.14,2.14,0,0,1,.61-1.49,2.2,2.2,0,0,1,3,0,2.14,2.14,0,0,1,.62,1.49,2.2,2.2,0,0,1-.62,1.49A2.13,2.13,0,0,1,180.33,116.09Z"/><path class="cls-2" d="M224.11,229.61a2.2,2.2,0,0,1-1.49-.62,2.12,2.12,0,0,1,0-3,2.23,2.23,0,0,1,3,0,2.11,2.11,0,0,1-1.49,3.6Z"/><path class="cls-2" d="M196.54,214.2a2.11,2.11,0,0,1-1.49-3.6,2.16,2.16,0,0,1,3,0,2.08,2.08,0,0,1,.62,1.49,2.11,2.11,0,0,1-2.11,2.11Z"/><path class="cls-2" d="M143.84,232a2.11,2.11,0,0,1-1.49-3.6,2.2,2.2,0,0,1,3,0,2.11,2.11,0,0,1-1.49,3.6Z"/><path class="cls-2" d="M79,4.2a2.14,2.14,0,0,1-1.49-.62,2.14,2.14,0,0,1-.61-1.49A2.08,2.08,0,0,1,77.48.6a2.16,2.16,0,0,1,3,0,2.14,2.14,0,0,1,.62,1.49,2.2,2.2,0,0,1-.62,1.49A2.07,2.07,0,0,1,79,4.2Z"/></pattern></defs><title>Rethink Taiwan_Landing page animation 4</title><path class="cls-3" d="M51.8,34.58c3.48-5.54,9-5.45,12.34.2l15.2,26c3.3,5.65.65,10.27-5.89,10.27H40.73c-6.54,0-9-4.53-5.56-10.07Z"/><path class="cls-3" d="M90.17,45a1.58,1.58,0,0,1-1.8,2.13c-4.28-.92-12.1-2.79-14.24-4.61a7.09,7.09,0,1,1,9.18-10.82C85.44,33.49,88.56,40.9,90.17,45Z"/><path class="cls-4" d="M51.12,40.51s8-17.67,20.88,19.42"/><path class="cls-4" d="M54.54,40.45s1.92-3.54,3.84-3.54"/><path class="cls-4" d="M49.79,64.91s2.2,1.36,8.58,1.36,7.8-1.36,7.8-1.36"/><polyline class="cls-4" points="56.06 65.16 58.38 65.59 60.55 65.16"/><path class="cls-4" d="M54.54,48.61s-4.55-2.28-6.71-1.9"/><path class="cls-4" d="M60.61,48.61s3.61-2,5.94-1.93"/><path class="cls-4" d="M54.54,51.9a4.8,4.8,0,0,0-4-2,4,4,0,0,0-4,2L45,51.68"/><path class="cls-4" d="M68.14,50.57a4.32,4.32,0,0,0-2.78-.69,4.8,4.8,0,0,0-4,2"/><line class="cls-5" x1="50.55" y1="51.68" x2="50.55" y2="53.34"/><line class="cls-5" x1="65.18" y1="51.68" x2="65.18" y2="53.34"/><polyline class="cls-4" points="57.14 54.2 57.14 61.61 58.83 61.77"/><path class="cls-3" d="M48.71,77.25a5.3,5.3,0,0,0-5.23,5l-1.21,26a22.38,22.38,0,0,1-2.91,9.22L28,135.42a4.87,4.87,0,0,0,1.61,6.8l1.89,1.13a5.19,5.19,0,0,0,7-1.64L44.73,132c1.48-2.32,4.37-3.3,6.42-2.19s2.82,4.09,1.72,6.6l-1.2,2.73a5.24,5.24,0,0,0,2.5,6.75l2.6,1.25A5.66,5.66,0,0,0,63.88,145L71,133.38A6.08,6.08,0,0,1,78.24,131l2.67,1.1a5.31,5.31,0,0,0,6.74-2.52,5.22,5.22,0,0,0-2.3-6.76l-2.86-1.52c-2.43-1.29-5.21-2.26-6.17-2.17a11.46,11.46,0,0,0-3,.71c-.66.3-.76-1-.23-2.78a21,21,0,0,0,0-8.22L67.67,82.15a6.39,6.39,0,0,0-6-4.9Z"/><path class="cls-3" d="M54,82.25a5.14,5.14,0,0,0-5.23-5H15.14a5,5,0,1,0,0,10H48.77A5.14,5.14,0,0,0,54,82.25Z"/><path class="cls-3" d="M56.93,82.25a5.14,5.14,0,0,0,5.23,5H95.79a5,5,0,1,0,0-10H62.16A5.14,5.14,0,0,0,56.93,82.25Z"/><path class="cls-6" d="M67.51,111.58l-2.69,15.76h1.49a3.74,3.74,0,0,0,3.23-1.85l3.21-6.84c.78-2.6.56-4.63.56-8.95l.06-12.3Z"/><polygon class="cls-6" points="73.38 97.4 39.37 97.4 32.23 111.58 67.51 111.58 73.38 97.4"/><path class="cls-6" d="M67.51,111.58H32.23v13.16a2.6,2.6,0,0,0,2.6,2.6h30a2.69,2.69,0,0,0,2.69-2.69Z"/><path class="cls-6" d="M73.38,97.4S69.91,86.85,63,86.85H45.05c-2.94,0-12.83,4.84-12.82,24.73H44.62s-7.35-22.26,8.67-22.26c11,0,11.54,10.49,11.54,10.49Z"/><path class="cls-7" d="M67.51,111.58l-2.69,15.76h1.49a3.74,3.74,0,0,0,3.23-1.85l3.21-6.84c.78-2.6.56-4.63.56-8.95l.06-12.3Z"/><polygon class="cls-7" points="73.38 97.4 39.37 97.4 32.23 111.58 67.51 111.58 73.38 97.4"/><path class="cls-7" d="M67.51,111.58H32.23v13.16a2.6,2.6,0,0,0,2.6,2.6h30a2.69,2.69,0,0,0,2.69-2.69Z"/><path class="cls-7" d="M73.38,97.4S69.91,86.85,63,86.85H45.05c-2.94,0-12.83,4.84-12.82,24.73H44.62s-7.35-22.26,8.67-22.26c11,0,11.54,10.49,11.54,10.49Z"/><polygon class="cls-8" points="51.16 105.2 46.91 105.2 51.16 97.4 55.41 97.4 51.16 105.2"/></svg>