<svg id="圖層_1" data-name="圖層 1" xmlns="http://www.w3.org/2000/svg" viewBox="0 0 128.28 224.5"><defs><style>.cls-1,.cls-10,.cls-11,.cls-3,.cls-4,.cls-5,.cls-6,.cls-8,.cls-9{fill:none;}.cls-1,.cls-8{stroke:#fff;}.cls-1{stroke-miterlimit:10;stroke-width:2px;}.cls-2{fill:#ffcd32;}.cls-3,.cls-4,.cls-5,.cls-6{stroke:#006464;}.cls-10,.cls-11,.cls-3,.cls-4,.cls-5,.cls-6,.cls-8,.cls-9{stroke-linecap:round;}.cls-10,.cls-3,.cls-4,.cls-5,.cls-6{stroke-linejoin:round;}.cls-3{stroke-width:1.52px;}.cls-4{stroke-width:1.39px;}.cls-5{stroke-width:1.41px;}.cls-6{stroke-width:3.04px;}.cls-7{fill:#fff;}.cls-8{stroke-width:12.99px;}.cls-10,.cls-11,.cls-9{stroke:#ff665c;}.cls-10,.cls-9{stroke-width:6px;}.cls-11{stroke-width:4px;}</style></defs><title>Rethink Taiwan_Landing page animation 4</title><path class="cls-1" d="M26.12,103.76s5.47-30.47-7.2-26.63c-13.65,4.14,7.2,26.63,7.2,26.63"/><path class="cls-1" d="M26.12,103.76s-1.3-28.8-7.2-26.63,7.2,26.63,7.2,26.63"/><path class="cls-2" d="M64.75,68.07c3.48-5.54,9-5.45,12.34.2l15.2,26c3.3,5.65.65,10.27-5.89,10.27H53.68c-6.54,0-9-4.53-5.56-10.07Z"/><path class="cls-3" d="M73.09,81.28S66.94,76.09,67,69.83"/><path class="cls-3" d="M76.55,81.28S73,78.2,71.93,75"/><path class="cls-3" d="M79.59,81.28A20.45,20.45,0,0,1,75.45,75"/><path class="cls-3" d="M82.78,81.28A20.45,20.45,0,0,1,78.64,75"/><path class="cls-3" d="M67.87,80.63a7.06,7.06,0,0,0-4.39-1.32c-2.85,0-3.83,1.32-3.83,1.32"/><path class="cls-4" d="M66.59,87.19s-2.39-2.85-5-2.66-3.62,1.28-3.62,1.28"/><path class="cls-5" d="M75.28,87.19s2.53-3,5.27-2.76a4.45,4.45,0,0,1,3.71,2.07"/><polygon class="cls-3" points="67.75 98.58 71.45 102.13 75.02 98.63 71.45 97 67.75 98.58"/><line class="cls-3" x1="70.04" y1="86.05" x2="70.65" y2="92.95"/><line class="cls-6" x1="81.35" y1="86.96" x2="82.21" y2="86.05"/><line class="cls-6" x1="62.9" y1="87.07" x2="64.05" y2="86.23"/><path class="cls-2" d="M54.09,158.55a81.64,81.64,0,0,1,1-11.91L58.8,126a4.82,4.82,0,0,0-5-5.87l-28.93.2c-3.3,0-6-2.13-6-4.78s2.72-4.83,6-4.84L91,110.57a9.39,9.39,0,0,1,8.15,5.59l9.46,24.65c1.18,3.08,0,6.32-2.52,7.19s-5.66-.93-6.86-4L92,125.33c-1.2-3.07-4.24-5-6.75-4.36s-4.17,3.9-3.7,7.17l2.84,19.55a99.26,99.26,0,0,1,.85,11.94l-.1,51.46a5.9,5.9,0,0,1-6,5.89L73,216.88c-3.3-.06-6-2.51-6-5.44s1.88-5.32,4.19-5.3,4.19-2.66,4.19-6v-35a5.78,5.78,0,1,0-11.56,0v45.15a6,6,0,0,1-6,6H51.42c-3.3,0-6-2.18-6-4.85a4.64,4.64,0,0,1,4.37-4.85c2.4,0,4.36-2.7,4.36-6Z"/><polygon class="cls-7" points="62.23 72.16 79.59 71.83 79.23 61.68 62.02 61.88 62.23 72.16"/><line class="cls-8" x1="59.89" y1="62.76" x2="79.59" y2="57.81"/><circle class="cls-2" cx="90.88" cy="73.89" r="6.08"/><line class="cls-9" x1="26.12" y1="103.76" x2="29.57" y2="116.49"/><path class="cls-10" d="M79.59,110.56s-5.21,2.81-8.34,2.81-8.34-2.81-8.34-2.81"/><line class="cls-11" x1="72.23" y1="116.73" x2="75.18" y2="120.09"/><line class="cls-11" x1="69.48" y1="116.73" x2="66.03" y2="120.09"/></svg>