<svg id="圖層_1" data-name="圖層 1" xmlns="http://www.w3.org/2000/svg" xmlns:xlink="http://www.w3.org/1999/xlink" viewBox="0 0 516.24 444.73"><defs><style>.cls-1{fill:#fff;}.cls-2{fill:#e0e0e0;}.cls-3{fill:#ff9947;}.cls-4,.cls-5,.cls-6{fill:none;stroke-linecap:round;}.cls-4,.cls-5{stroke:#ff9947;}.cls-4,.cls-6{stroke-linejoin:round;}.cls-4{stroke-width:6.48px;}.cls-5{stroke-miterlimit:10;}.cls-5,.cls-6{stroke-width:6.48px;}.cls-6{stroke:#6bffba;}.cls-7{mask:url(#mask);}</style><mask id="mask" x="197.12" y="371.48" width="41.75" height="81.5" maskUnits="userSpaceOnUse"><rect class="cls-1" x="217.87" y="371.48" width="21" height="81.5"/></mask></defs><title>Rethink Taiwan_Landing page animation 4</title><path class="cls-2" d="M45.46,44a9.24,9.24,0,1,1-6.58,9.77A9.24,9.24,0,0,1,45.46,44Z"/><circle class="cls-2" cx="49.74" cy="8.15" r="0.66" transform="translate(-0.55 11.52) rotate(-13.14)"/><path class="cls-2" d="M23.87,18.67a3.71,3.71,0,0,1,6.19,3.85,2.52,2.52,0,0,1-.65,1,3.71,3.71,0,0,1-6.19-3.85A2.52,2.52,0,0,1,23.87,18.67Z"/><path class="cls-2" d="M88.11,78.3a3.71,3.71,0,0,1,6.19,3.85,2.52,2.52,0,0,1-.65,1,3.71,3.71,0,0,1-6.19-3.85A2.52,2.52,0,0,1,88.11,78.3Z"/><path class="cls-2" d="M28,19.39l.83-.19c.65.64,2.83-.39,4.85-2.29l2.6-.61,2.32-.54a17.56,17.56,0,0,0,4.69.8l.22-.05a1.06,1.06,0,0,1,1.28.79l0,.17a6.05,6.05,0,0,0,1.6,1.77c.91.79,4.74,4.67,7.45,6.05,0,0,.42.22,1.13,3.27a7.66,7.66,0,0,1-5.72,9.2l-2,.46c-2-.71-4.29-1-5.16-.6l-.86.2A11,11,0,0,1,28,29.57l-.54-2.32c.59-2.4.32-4.58-.61-4.84l-.2-.88A1.78,1.78,0,0,1,28,19.39Z"/><circle class="cls-2" cx="82.43" cy="79.85" r="0.9" transform="matrix(0.97, -0.23, 0.23, 0.97, -15.99, 20.83)"/><path class="cls-2" d="M63.08,37.86c6.26-1.93,12.85,2.08,14.73,9l.55,2A10.36,10.36,0,0,0,81,55.66l.59,2.15c1.34,4.9-1.19,10-5.65,11.37a6.45,6.45,0,0,1-6.84-1.71,28.37,28.37,0,0,0-8.54-6.56,11,11,0,0,1-5.38-7.08C53.27,46.94,56.82,39.79,63.08,37.86Z"/><path class="cls-3" d="M472.79,204.3l-14.15-2.95a8.38,8.38,0,0,1-6.24-10.08h0A8.38,8.38,0,0,1,462.48,185l7,1.45a7.15,7.15,0,0,1,5.5,8.64Z"/><path class="cls-3" d="M460.14,227.42l-.37-32.58a8.38,8.38,0,0,1,8.38-8.38h0a8.38,8.38,0,0,1,8.38,8.38l.37,32.58Z"/><polyline class="cls-4" points="473.56 217.93 473.7 226.42 463.66 234.91"/><line class="cls-5" x1="463.24" y1="225.76" x2="465.2" y2="243.4"/><polyline class="cls-6" points="444.78 184.23 455.41 190.69 438.53 190.76"/><path class="cls-3" d="M420.7,253.4h24.37a0,0,0,0,1,0,0v16.76a0,0,0,0,1,0,0H420.7a8.38,8.38,0,0,1-8.38-8.38v0A8.38,8.38,0,0,1,420.7,253.4Z" transform="translate(690.47 -166.91) rotate(90)"/><path class="cls-3" d="M429.88,252h24.37a0,0,0,0,1,0,0v16.76a0,0,0,0,1,0,0H429.88a8.38,8.38,0,0,1-8.38-8.38v0A8.38,8.38,0,0,1,429.88,252Z" transform="translate(886.11 18.27) rotate(120.89)"/><polyline class="cls-4" points="433.4 266.16 433.7 277.61 419.8 294.51"/><line class="cls-5" x1="447.45" y1="254.57" x2="445.7" y2="277.49"/><line class="cls-5" x1="423.54" y1="274.61" x2="423.4" y2="300.74"/><polyline class="cls-6" points="430.7 235.13 428.69 246.88 422.12 230.01"/><path class="cls-3" d="M395.92,304.27h24.37a0,0,0,0,1,0,0V321a0,0,0,0,1,0,0H395.92a8.38,8.38,0,0,1-8.38-8.38v0a8.38,8.38,0,0,1,8.38-8.38Z" transform="translate(716.56 -91.27) rotate(90)"/><polyline class="cls-4" points="391.95 353.06 409.12 329.02 409.12 318.95"/><line class="cls-5" x1="398.74" y1="324.61" x2="398.77" y2="358.43"/><polyline class="cls-6" points="409.13 289.31 403.92 297.75 403.92 280.87"/><path class="cls-3" d="M293.68,402.94H318a0,0,0,0,1,0,0V419.7a0,0,0,0,1,0,0H293.68a8.38,8.38,0,0,1-8.38-8.38v0A8.38,8.38,0,0,1,293.68,402.94Z" transform="translate(713 109.65) rotate(90)"/><polyline class="cls-4" points="306.89 415.34 306.89 426.57 291.33 431.09"/><line class="cls-5" x1="297.61" y1="423.4" x2="299.1" y2="438.53"/><polyline class="cls-6" points="308.18 385.82 301.68 396.42 301.68 379.55"/><line class="cls-6" x1="301.68" y1="396.42" x2="296.05" y2="385.86"/><g class="cls-7"><path class="cls-3" d="M207.92,402.94h24.37a0,0,0,0,1,0,0V419.7a0,0,0,0,1,0,0H207.92a8.38,8.38,0,0,1-8.38-8.38v0A8.38,8.38,0,0,1,207.92,402.94Z" transform="translate(627.24 195.4) rotate(90)"/><polyline class="cls-5" points="221.13 415.34 221.13 425.57 210.29 431.09"/><line class="cls-5" x1="211.86" y1="423.4" x2="200.36" y2="427.73"/><polyline class="cls-6" points="222.42 385.82 215.92 396.42 215.92 379.55"/><line class="cls-6" x1="215.92" y1="396.42" x2="210.29" y2="385.86"/></g><path class="cls-3" d="M252.15,403.2h24.37a0,0,0,0,1,0,0V420a0,0,0,0,1,0,0H252.15a8.38,8.38,0,0,1-8.38-8.38v0a8.38,8.38,0,0,1,8.38-8.38Z" transform="translate(671.72 151.43) rotate(90)"/><polyline class="cls-4" points="265.36 415.6 265.36 427.4 246.19 430.57"/><line class="cls-5" x1="256.09" y1="423.66" x2="260.15" y2="438.53"/><polyline class="cls-6" points="266.65 386.08 260.15 396.68 260.15 379.8"/><path class="cls-3" d="M341.86,401.2h18a0,0,0,0,1,0,0V418a0,0,0,0,1,0,0h-18a8.38,8.38,0,0,1-8.38-8.38v0A8.38,8.38,0,0,1,341.86,401.2Z" transform="translate(756.26 62.89) rotate(90)"/><polyline class="cls-4" points="351.9 410.43 351.9 421.99 334.45 426.57"/><line class="cls-5" x1="342.62" y1="418.49" x2="343.12" y2="432.24"/><polyline class="cls-6" points="341.5 377.55 346.68 397.85 346.68 369.46"/><path class="cls-3" d="M363.66,364.93h35.07a0,0,0,0,1,0,0v16.76a0,0,0,0,1,0,0H363.66a8.38,8.38,0,0,1-8.38-8.38v0A8.38,8.38,0,0,1,363.66,364.93Z" transform="translate(750.32 -3.7) rotate(90)"/><polyline class="cls-4" points="382.22 382.68 382.22 394.4 366.95 398.74"/><line class="cls-5" x1="372.95" y1="390.74" x2="373.46" y2="405.36"/><polyline class="cls-6" points="369.92 344.58 377.01 353.06 377.01 336.18"/><path class="cls-3" d="M485.56,148.75h18a0,0,0,0,1,0,0v16.76a0,0,0,0,1,0,0h-18a8.38,8.38,0,0,1-8.38-8.38v0A8.38,8.38,0,0,1,485.56,148.75Z" transform="translate(647.52 -333.26) rotate(90)"/><polyline class="cls-4" points="495.6 157.98 495.6 169.66 483.64 173.86"/><line class="cls-5" x1="485.2" y1="165.74" x2="485.03" y2="181.03"/><polyline class="cls-6" points="497.53 131.21 490.39 145.4 490.39 117.02"/><line class="cls-6" x1="489.31" y1="142.25" x2="480.94" y2="122.68"/></svg>