<svg id="圖層_1" data-name="圖層 1" xmlns="http://www.w3.org/2000/svg" xmlns:xlink="http://www.w3.org/1999/xlink" viewBox="0 0 431.04 288"><defs><style>.cls-1{fill:#fff;}.cls-2,.cls-8,.cls-9{fill:#e0e0e0;}.cls-3{fill:#0f9bff;}.cls-4,.cls-6,.cls-7{fill:none;}.cls-4,.cls-6{stroke:#ff9947;}.cls-4,.cls-6,.cls-7,.cls-8,.cls-9{stroke-miterlimit:10;}.cls-4{stroke-width:2.5px;}.cls-5{mask:url(#mask);}.cls-6{stroke-width:2.86px;}.cls-7,.cls-8{stroke:#e0e0e0;}.cls-7{stroke-width:1.07px;}.cls-8,.cls-9{stroke-linecap:round;stroke-width:3.41px;}.cls-9{stroke:#ff665c;}.cls-10{fill:#ff665c;}</style><mask id="mask" x="192.14" y="-43.27" width="173.33" height="208.3" maskUnits="userSpaceOnUse"><rect class="cls-1" x="192.14" y="-43.27" width="173.33" height="150.67"/></mask></defs><title>Rethink Taiwan_Landing page animation 4</title><path class="cls-2" d="M29.78,194.68a3,3,0,0,1,3-2.94h9.59a3.09,3.09,0,0,0,3.05-2.94v-.21a2.82,2.82,0,0,0-2.83-2.94H19.9a3.84,3.84,0,0,0-3.58,2.87L10,217.27a2.27,2.27,0,0,0,2.31,2.87H25.87a2.82,2.82,0,0,1,2.83,2.94L28,241.66a2.82,2.82,0,0,0,2.83,2.94h6a3.09,3.09,0,0,0,3.05-2.94v-.21a2.8,2.8,0,0,0-2.78-2.94,2.8,2.8,0,0,1-2.78-2.94L35,217a2.91,2.91,0,0,0-2.83-3H32a2.87,2.87,0,0,1-2.8-3l.11-2.37a3.13,3.13,0,0,1,3.08-2.94h10.2a3.21,3.21,0,0,0,3.15-2.94l0-.27A2.7,2.7,0,0,0,43,199.52l-10.41,0a2.85,2.85,0,0,1-2.87-2.93Z"/><path class="cls-2" d="M28.38,169.24c1.21-1.82,3.06-1.74,4.11.18l4.7,8.58c1,1.92.12,3.48-2.06,3.48H24.2c-2.18,0-3-1.49-1.77-3.31Z"/><path class="cls-2" d="M24,169.44a3.82,3.82,0,0,1-3.79,3.65,3.5,3.5,0,0,1-3.52-3.65,3.82,3.82,0,0,1,3.79-3.65A3.5,3.5,0,0,1,24,169.44Z"/><path class="cls-2" d="M264.38,12.78c-1.1-1.79-2.88-1.78-4,0l-5.1,8.49c-1.08,1.8-.25,3.26,1.85,3.24l10.51-.11c2.1,0,2.92-1.5,1.82-3.3Z"/><path class="cls-2" d="M262.47,27.71h2.8l-.09,2.8-.27,8a2.69,2.69,0,0,0,2.7,2.8h9a2.71,2.71,0,0,1,2.71,2.8v.2a2.91,2.91,0,0,1-2.88,2.8h-9a2.88,2.88,0,0,0-2.86,2.8l-.05,2.27a2.73,2.73,0,0,0,2.73,2.8h.17a2.71,2.71,0,0,1,2.71,2.8l-.67,22.56a2.62,2.62,0,0,0,2.52,2.8,2.62,2.62,0,0,1,2.52,2.8v.2a2.91,2.91,0,0,1-2.88,2.8h-5.41a2.71,2.71,0,0,1-2.71-2.8v-.2l.17-5.59.49-16.43a2.71,2.71,0,0,0-2.71-2.8h-7.11a2.91,2.91,0,0,0-2.88,2.8L251,80.27a2.62,2.62,0,0,0,2.52,2.8,2.62,2.62,0,0,1,2.52,2.8v.2a2.91,2.91,0,0,1-2.88,2.8h-5.41a2.71,2.71,0,0,1-2.71-2.8l.86-29a39.45,39.45,0,0,1,.64-5.54l4.28-21.05a3.58,3.58,0,0,1,3.35-2.74Z"/><path class="cls-2" d="M258.26,11.64a3.79,3.79,0,0,1-3.76,3.65A3.53,3.53,0,0,1,251,11.64,3.79,3.79,0,0,1,254.71,8,3.53,3.53,0,0,1,258.26,11.64Z"/><path class="cls-2" d="M312.6,28.65c-1.78-1.11-1.76-2.89.05-4l8-4.72c1.81-1.07,3.36-.22,3.45,1.88l.42,10.51c.08,2.1-1.31,2.91-3.09,1.8Z"/><path class="cls-2" d="M331.05,27.71h-2.8l.1,2.8.26,7.58a2.69,2.69,0,0,1-2.7,2.8h-9.84a2.64,2.64,0,0,0-2.66,2.79v.2a3,3,0,0,0,2.94,2.79h9.84a3.07,3.07,0,0,1,3,2.79l.2,2.68a2.57,2.57,0,0,1-2.59,2.79h-.17a2.69,2.69,0,0,0-2.7,2.8l.78,22.56a2.6,2.6,0,0,1-2.51,2.8,2.56,2.56,0,0,0-2.47,2.79v.2a3,3,0,0,0,2.94,2.79h5.41a2.64,2.64,0,0,0,2.66-2.79v-.2c-.08-1.54-.18-4.05-.22-5.59L330,63.84a2.7,2.7,0,0,1,2.71-2.8h7.11a2.75,2.75,0,0,1,2.75,2.8l-.25,16.43a2.76,2.76,0,0,1-2.65,2.8,2.56,2.56,0,0,0-2.47,2.79v.2a3,3,0,0,0,2.94,2.79h5.41a2.78,2.78,0,0,0,2.78-2.8l-.21-28.2a36.69,36.69,0,0,0-.55-5.54l-4.23-21.86A3.54,3.54,0,0,0,340,27.71Z"/><path class="cls-2" d="M318.07,16.13a3.44,3.44,0,0,1-3.47,3.65,3.88,3.88,0,0,1-3.83-3.65,3.44,3.44,0,0,1,3.47-3.65A3.88,3.88,0,0,1,318.07,16.13Z"/><path class="cls-3" d="M328.26,27.71l17.56,15.42-1-10.79a6.49,6.49,0,0,0-6.3-5.23Z"/><path class="cls-4" d="M83.13,161.9S36.4,246.2,116.87,283"/><path class="cls-4" d="M75.39,163.72S29,245.21,116.27,282.26"/><path class="cls-4" d="M67.64,165.55s-46.1,78.67,48,115.95"/><path class="cls-4" d="M59.89,167.38s-45.79,75.86,55.2,113.35"/><path class="cls-4" d="M52.14,169.21S6.67,242.25,114.5,280"/><path class="cls-4" d="M49.89,269.39s20.53-66.93,104.5-85.12"/><path class="cls-4" d="M46.14,255.56s19.67-59.39,112.61-73.94"/><path class="cls-4" d="M42.39,241.72S61.2,189.88,163.11,179"/><path class="cls-4" d="M38.64,227.89s17.94-44.3,128.83-51.59"/><path class="cls-4" d="M34.9,214.05S52,177.3,171.83,173.64"/><g class="cls-5"><path class="cls-6" d="M288.32,34.4s-31.16,105.77,67.85,126.83"/><path class="cls-6" d="M280.54,34.85s-29.17,107.37,77.54,127"/><path class="cls-6" d="M272.75,35.29s-27.18,109,87.22,127.13"/><path class="cls-6" d="M265,35.74S239.78,146.32,361.86,163"/><path class="cls-6" d="M257.18,36.19S234,148.37,363.76,163.6"/><path class="cls-6" d="M301.09,20.58S313,144.73,216,153.75"/><path class="cls-6" d="M308.28,26.38s14.11,116.4-91.08,127"/><path class="cls-6" d="M315.48,32.18s16.36,108.65-97,120.78"/><path class="cls-6" d="M322.67,38s18.61,100.91-103,114.59"/><path class="cls-6" d="M329.87,43.77S350.73,136.93,221,152.16"/></g><path class="cls-2" d="M204.73,102.15a2.9,2.9,0,0,0-2.57,3.13c0,1.72-1.92,3.13-4.27,3.13h-2.48a4.28,4.28,0,0,1-4.27-4.27V97.78a4.28,4.28,0,0,0-4.27-4.27h-.29a4.28,4.28,0,0,0-4.27,4.27v20.07a4.28,4.28,0,0,0,4.27,4.27H203a4.28,4.28,0,0,0,4.27-4.27V106.42C207.3,104.07,206.14,102.15,204.73,102.15Z"/><path class="cls-7" d="M204.73,102.15a2.9,2.9,0,0,0-2.57,3.13c0,1.72-1.92,3.13-4.27,3.13h-2.48a4.28,4.28,0,0,1-4.27-4.27V97.78a4.28,4.28,0,0,0-4.27-4.27h-.29a4.28,4.28,0,0,0-4.27,4.27v20.07a4.28,4.28,0,0,0,4.27,4.27H203a4.28,4.28,0,0,0,4.27-4.27V106.42C207.3,104.07,206.14,102.15,204.73,102.15Z"/><line class="cls-8" x1="198.02" y1="117.3" x2="198.02" y2="130.32"/><line class="cls-8" x1="192.44" y1="117.3" x2="192.44" y2="134.49"/><line class="cls-9" x1="182.87" y1="101.3" x2="180.63" y2="101.3"/><path class="cls-2" d="M398.93,145.63c-1.74,0-3.1,1.12-3,2.48a2.48,2.48,0,0,1-2.66,2.48c-1.54,0-2.66.72-2.49,1.59s-1,2.08-2.64,2.69l-6.42,2.4a3,3,0,0,0-1.93,3.76,3,3,0,0,0,4,1.51l4.72-1.82a3.84,3.84,0,0,1,4.54,1.6l.74,1.27a4.12,4.12,0,0,1-.75,4.87l-8.53,7.81a3.58,3.58,0,0,0-.44,4.67l.08.11a2.81,2.81,0,0,0,4.23.4l8.93-8.18a3,3,0,0,1,4.19-.14,3.17,3.17,0,0,1-.17,4.2,3.2,3.2,0,0,0-.17,4.23,3.33,3.33,0,0,0,4.37.12l9-6.8a3.35,3.35,0,0,1,4.34,0,2.27,2.27,0,0,0,3.4.13c.87-1,.69-2.91-.41-4.27l-1.66-2.05c-1.09-1.35-2.85-2.14-3.9-1.75s-2.32-.65-2.83-2.31l-4.85-16a4.54,4.54,0,0,0-4.08-3Z"/><path class="cls-2" d="M398.87,131.57c1-1.82,2.81-1.86,3.92-.07l5.39,8.66c1.11,1.78.3,3.23-1.8,3.21l-10.39-.1c-2.1,0-3-1.53-1.92-3.35Z"/><path class="cls-2" d="M411.75,137.55a3.93,3.93,0,0,1-3.85-3.68,3.41,3.41,0,0,1,3.41-3.68,3.93,3.93,0,0,1,3.85,3.68A3.41,3.41,0,0,1,411.75,137.55Z"/><path class="cls-10" d="M397.3,145.51,413,163.31l-1.55-12.76a6.56,6.56,0,0,0-6.07-5.54Z"/><path class="cls-3" d="M29.51,185.36l-16.8,15.42L13.2,190a6.1,6.1,0,0,1,6-5.23Z"/><path class="cls-10" d="M263.76,27.71,247,43.12l.48-10.79a6.1,6.1,0,0,1,6-5.23Z"/></svg>