<svg id="圖層_1" data-name="圖層 1" xmlns="http://www.w3.org/2000/svg" viewBox="0 0 239.72 118.03"><defs><style>.cls-1{fill:#ff9947;}.cls-2{fill:#004864;}.cls-3{fill:#6bffba;}</style></defs><title>Rethink Taiwan_Landing page animation 4</title><rect class="cls-1" x="7.31" y="19.45" width="222.93" height="79.81" rx="39.9" ry="39.9"/><path class="cls-2" d="M91.38,54.6A16.12,16.12,0,0,0,97,59.95a12.22,12.22,0,0,0-2.28,2.71,17.79,17.79,0,0,1-5.34-6.13v7.59H86V56.59a18.31,18.31,0,0,1-6.42,6.28,13.73,13.73,0,0,0-2.31-2.74,16.32,16.32,0,0,0,6.51-5.52H80.41V44.27H86V42.46H79.38v-2c-.7,2.28-1.49,4.87-2.19,6.8a9,9,0,0,1,2.13,5.87c0,1.87-.38,3.09-1.28,3.74a4.17,4.17,0,0,1-1.69.61,12.35,12.35,0,0,1-1.87.06,7.37,7.37,0,0,0-.76-2.95c.53,0,.93,0,1.28,0a1.51,1.51,0,0,0,.82-.26c.32-.23.44-.82.44-1.63a7.82,7.82,0,0,0-2-5.11c.58-1.84,1.2-4.38,1.66-6.36H73.63V64.12h-3v-26H77l.5-.15,2.28,1.31-.09.26H86V36.89H89.4v2.66h6.83v2.92H89.4v1.81h5.84V54.6Zm-7.94-6.3H86V46.72H83.44Zm0,3.85H86V50.58H83.44Zm6-5.43V48.3h2.66V46.72Zm2.66,3.85H89.4v1.58h2.66Z"/><path class="cls-2" d="M130,60.91c0,1.52-.29,2.31-1.31,2.8a10.66,10.66,0,0,1-4.23.5,12.74,12.74,0,0,0-1-2.92c1.11.06,2.25,0,2.63,0s.47-.09.47-.44V55h-3.18a28.86,28.86,0,0,1,2.86,4.5l-2.45,1.28a10.49,10.49,0,0,0-.64-1.28l-12,1.4-.53-3c1.55-.12,3.56-.29,5.72-.53V55h-6.71v9.08h-3.27V55h-1V52.12h1v-.88h3.27v.88h6.71V50.34h-7.88V42.93h7.88V41.15c-3.09.18-6.25.26-9.14.29a10.1,10.1,0,0,0-.73-2.83,191.52,191.52,0,0,0,20.9-1.49l2,2.8c-2.86.47-6.22.79-9.72,1v2h8.23v7.41h-8.23v1.78H130ZM116.3,47.69v-2.1h-4.67v2.1Zm3.36-2.1v2.1h4.79v-2.1Zm1.93,11.33c-.23-.32-.47-.64-.67-1L123,55h-3.39v2.07Z"/><path class="cls-2" d="M160.55,51.71a17.52,17.52,0,0,1-2.71,5.43,59.29,59.29,0,0,1,8.06,4l-2.57,3.07a60.3,60.3,0,0,0-8.2-4.35c-3,2.31-7.12,3.59-12.64,4.38a15,15,0,0,0-2.16-3.5c4.61-.41,8.12-1.2,10.71-2.6-2.51-1.05-5.11-2-7.41-2.71A42.66,42.66,0,0,0,146,51.71h-5.69V48.44h7.44a36.12,36.12,0,0,0,1.93-4.52l4.06.76c-.47,1.2-1,2.48-1.63,3.77h5.14c.15-.82.23-1.72.32-2.66l4.2.26V43.22H144.38v3.27h-3.53V40h10.36c-.32-.85-.7-1.75-1-2.54l3.91-.91c.5,1.05,1.11,2.36,1.52,3.44h9.84v6.48h-3.68c-.12.67-.23,1.31-.35,2H166v3.27Zm-10.13,0c-.44.76-.85,1.46-1.28,2.16,1.63.53,3.3,1.14,5,1.78a12.26,12.26,0,0,0,2.22-3.94Z"/><path class="cls-2" d="M62.27,85.56v1.57H48.85V85.56h5.8v-1H50.72V83.11h3.93v-.93H51.43A10.58,10.58,0,0,1,50,83.71a9.33,9.33,0,0,0-1.52-1.11A8.54,8.54,0,0,0,51,79.49h-.72V73.82H60.73v5.67H51.62l1.26.37c-.14.27-.27.55-.44.84h2.21v-.93h1.87v.93h4.78v1.49H56.53v.93h4.08v1.42H56.53v1ZM52.11,76h6.73v-.81H52.11Zm0,2.1h6.73v-.82H52.11Z"/><path class="cls-2" d="M80.8,78.83a34.13,34.13,0,0,1-2.51,2.94A8.39,8.39,0,0,0,81.13,85,3.91,3.91,0,0,0,80,86.34a10.12,10.12,0,0,1-2.88-3.29v2.42c0,.91-.18,1.39-.72,1.68a5,5,0,0,1-2.42.38,8,8,0,0,0-.61-1.75c.73,0,1.45,0,1.67,0s.33-.08.33-.3V83c-1.07,1-2.16,2.09-3.11,2.94l-.84-1.28-4.52,1.43-.38-1.72,1.83-.5V80.19H66.86V78.53h1.52V75.85h-1.6V74.16h4.83v1.69H70.07v2.68h1.31v1.66H70.07v3.18l1.55-.47.17,1c1-.73,2.35-1.8,3.61-2.85V77.4H71.9V75.74h3.5V73.31h1.74v2.44h2.07a11.34,11.34,0,0,0-1.6-1.43l1-.91a9.26,9.26,0,0,1,1.83,1.51l-.87.84h1.31V77.4H77.14V78a18.9,18.9,0,0,0,.55,2.25A19.85,19.85,0,0,0,79.23,78Zm-7.4-.76a11.5,11.5,0,0,1,1.46,2.68l-1.48.69A12.2,12.2,0,0,0,72,78.7Z"/><path class="cls-2" d="M99.05,77.57v1.29H96.29l-.12,1.19H87.42l.15-1.19H85.18V77.57h2.57l.15-1.16h8.62l-.11,1.16ZM95,85.43c1.34.37,2.68.76,3.58,1.05l-1.23,1.11c-1.1-.41-2.88-1-4.63-1.48l.62-.69H90.55l.91.67a18.82,18.82,0,0,1-5.18,1.51,8.72,8.72,0,0,0-1-1.23,20.33,20.33,0,0,0,4-.94H87.16V80.49h9.93v4.93Zm-7.77-8.25H85.6V74.52h5.56a7.29,7.29,0,0,0-.44-.91l1.58-.44a8.14,8.14,0,0,1,.7,1.36h5.56v2.65H96.87V75.92H87.23Zm1.67,4.68h6.33v-.44H88.91Zm0,1.34h6.33v-.47H88.91Zm0,1.34h6.33V84H88.91Zm.24-5.38h2l.06-.49h-2Zm.23-1.83-.06.44h2l0-.44Zm5.22,1.83,0-.49H92.7l-.06.49Zm.15-1.83H92.84l0,.44h1.92Z"/><path class="cls-2" d="M103.14,86.14a18.52,18.52,0,0,0,.62-3.29l.9.32a19.64,19.64,0,0,1-.55,3.3Zm9.11-3.06c-.09.4-.2.79-.32,1.17a7.29,7.29,0,0,1,1.43,1.11l-.88,1.17a9.17,9.17,0,0,0-1.08-.94,7.31,7.31,0,0,1-1.31,1.93,9.48,9.48,0,0,0-1.14-1,1,1,0,0,1-.15.33,1.08,1.08,0,0,1-.84.5,6.26,6.26,0,0,1-1.26.06,3.71,3.71,0,0,0-.35-1.34,7,7,0,0,0,.85,0,.38.38,0,0,0,.38-.17,3.91,3.91,0,0,0,.21-1.31l-.53.2a13,13,0,0,0-.61-2l.64-.21a12.22,12.22,0,0,1,.53,1.48c0-.49,0-1.1.08-1.83h-4V73.87h5.27v1.48h-1.55v1h1.31v.35a11.06,11.06,0,0,0,3.9-3.61l1.61.56a4.94,4.94,0,0,1-.3.47,11.94,11.94,0,0,0,3.41,2.06,6.77,6.77,0,0,0-.67,1.66,13.77,13.77,0,0,1-1.42-.84v1H111v-.76c-.35.23-.7.44-1.05.65a7.15,7.15,0,0,0-1-1.05v.84h-1.31v.9H109v1.32h-1.36v1h1.69s0,.4,0,.58a30.07,30.07,0,0,1-.34,5,6.72,6.72,0,0,0,1.75-3.62Zm-6.67,0c.08.87.12,2,.12,2.77l-.79.09c0-.76,0-1.92-.08-2.8Zm-.26-7.77v1h.94v-1Zm.94,2.35h-.94v.9h.94Zm-.94,3.18h.94v-1h-.94Zm1.14,2.07a21.57,21.57,0,0,1,.44,2.45l-.76.15a18,18,0,0,0-.41-2.48Zm3.26-4.13H113v3.7h-3.26Zm1.17,2.56h.84V79.95h-.84Zm4.05-4.74c-.59-.44-1.17-.9-1.69-1.37a11.38,11.38,0,0,1-1.46,1.37ZM116.05,83a13.14,13.14,0,0,1-.43,1.77,14.76,14.76,0,0,1,1.77,1.34l-1.05,1.23A11.07,11.07,0,0,0,115,86.22a6.4,6.4,0,0,1-.9,1.31,8.23,8.23,0,0,0-1.31-1,6.69,6.69,0,0,0,1.63-3.78Zm-2.59-4.2h3.38v3.7h-3.38Zm1.17,2.56h1V79.95h-1Z"/><path class="cls-2" d="M124.68,77.57V77a16.07,16.07,0,0,1-1.63,1.1h6.43v4.78H124.2c0,.15,0,.32-.08.47h5.73v4.07h-1.58V87h-2.82v.47h-1.51V84.3A9.75,9.75,0,0,1,123,87a8.32,8.32,0,0,0-1.58-.7c1.2-1.93,1.33-4.66,1.33-6.44V78.29l-.35.18a9.69,9.69,0,0,0-.94-1.74,10.48,10.48,0,0,0,4.52-3.46l1.66.65c-.09.14-.18.26-.27.38,1.13.66,2.39,1.4,3.09,1.9l-.93,1.52c-.41-.33-1-.73-1.66-1.16v1Zm3.15,4V81h-3.49c0,.2,0,.41,0,.62Zm-3.46-2.28v.59h3.46v-.59Zm3.33-2.82-1.45-.91c-.32.3-.65.62-1,.91Zm-2.27,8.06v1.08h2.82V84.56Zm7-1.2H130.7v-8.5h1.71Zm2.79-10v12c0,1-.18,1.46-.75,1.75a5.77,5.77,0,0,1-2.62.37,7.41,7.41,0,0,0-.53-1.81l1.81,0c.24,0,.35-.08.35-.33v-12Z"/><path class="cls-2" d="M144.87,73.9a23.77,23.77,0,0,1-1.46,3.17V87.5h-1.83V79.88c-.32.38-.64.76-.94,1.1a12.28,12.28,0,0,0-1-1.93,15.85,15.85,0,0,0,3.47-5.7Zm4.83,3.59v1.6h3.94v1.64H149.7v1.72h4.14v1.68H149.7v3.38h-1.86v-10h-.58a16.91,16.91,0,0,1-2,3,12.28,12.28,0,0,0-1.39-1.26,15.12,15.12,0,0,0,3.23-5.74l1.75.44a18,18,0,0,1-.75,1.89H154v1.72Z"/><path class="cls-2" d="M164.71,76.52c-.23,2.56-1,3.87-5.41,4.45a4.08,4.08,0,0,0-.85-1.49c3.7-.37,4.25-1.14,4.4-3h-2.56v2.07h-1.78V74.87h5.6c-.15-.41-.3-.82-.47-1.19l1.9-.53c.27.53.59,1.17.81,1.72h5.44V78.3H169.9V76.52h-2.15v1.84c0,.43.08.58.53.58h2.27a8.48,8.48,0,0,0,1.45-.11c0,.47.09,1.17.15,1.6a6.19,6.19,0,0,1-1.54.12h-2.36c-1.81,0-2.3-.58-2.3-2.22V76.52Zm1.49,9h5.65v1.71H158.53V85.49h5.76V83h-4.05V81.36h10.14V83H166.2Z"/><path class="cls-2" d="M178.84,79.37v8.15H177V73.87h5.83v5.5Zm0-4.19V76h2.35v-.81Zm2.35,2.89V77.2h-2.35v.87Zm8.71,7.29c0,1-.2,1.51-.81,1.8a6.58,6.58,0,0,1-2.79.35,6.72,6.72,0,0,0-.4-1.42h-3.78v.78h-1.64V80.28h5.86v5.41c.59,0,1.16,0,1.36,0s.37-.09.37-.34v-6h-4.14V73.87h6Zm-7.77-3.75v.91h2.51v-.91Zm2.51,3.15v-.94h-2.51v.94Zm1-9.59V76h2.42v-.81Zm2.42,2.92v-.9h-2.42v.9Z"/><path class="cls-1" d="M82.63,97.65v16.78a1.6,1.6,0,0,1-2.73,1.13L63.22,98.89a1.6,1.6,0,0,1,1.12-2.73L81,96A1.6,1.6,0,0,1,82.63,97.65Z"/><path class="cls-3" d="M41.18,7.9,40,13.36H37.85l1-4.93a2,2,0,0,0,0-1q-.18-.62-1.06-.62a1.88,1.88,0,0,0-1.67.91A3.62,3.62,0,0,0,35.74,9l-.93,4.39H32.7l1.72-8.09h2L36.2,6.46a4.94,4.94,0,0,1,1-.9,3.17,3.17,0,0,1,1.76-.49,2.59,2.59,0,0,1,1.91.66A2.31,2.31,0,0,1,41.18,7.9Z"/><path class="cls-3" d="M49.76,6.62A3.43,3.43,0,0,1,50,8.29a10.5,10.5,0,0,1-.27,1.61H44.21a1.67,1.67,0,0,0,.4,1.71,1.51,1.51,0,0,0,1,.3,1.84,1.84,0,0,0,1.15-.37,2.61,2.61,0,0,0,.51-.56h2.16a3.56,3.56,0,0,1-1.06,1.46,4.52,4.52,0,0,1-3.17,1.18,3.36,3.36,0,0,1-2.52-1q-1-1-.49-3.24a5.64,5.64,0,0,1,1.75-3.23,4.47,4.47,0,0,1,3-1.12,3.75,3.75,0,0,1,1.74.38A2.32,2.32,0,0,1,49.76,6.62ZM44.56,8.5h3.29a1.55,1.55,0,0,0-.24-1.27,1.29,1.29,0,0,0-1-.43,1.76,1.76,0,0,0-1.24.46A2.93,2.93,0,0,0,44.56,8.5Z"/><path class="cls-3" d="M56,5.26h2.15v5.84l2.5-5.84h2.21l-4.07,8.1H56.59l0-5.9L54,13.36h-2.2l-.56-8.1h2.27l0,5.81Z"/><path class="cls-3" d="M63.48,11.21h2.22l-.45,2.15H63Zm1.81-8.77h2.33L67,5.22l-1.69,5.11H64.23l.47-5.11Z"/></svg>