<svg id="圖層_1" data-name="圖層 1" xmlns="http://www.w3.org/2000/svg" viewBox="0 0 492.63 305.98"><defs><style>.cls-1{fill:#ff9947;}.cls-12,.cls-13,.cls-16,.cls-17,.cls-2,.cls-4,.cls-5,.cls-8{fill:none;}.cls-12,.cls-13,.cls-14,.cls-17,.cls-2,.cls-9{stroke:#e0e0e0;}.cls-10,.cls-12,.cls-14,.cls-15,.cls-16,.cls-17,.cls-2,.cls-4,.cls-5,.cls-9{stroke-linecap:round;}.cls-10,.cls-12,.cls-13,.cls-14,.cls-15,.cls-16,.cls-17,.cls-2,.cls-4,.cls-5,.cls-8,.cls-9{stroke-miterlimit:10;}.cls-2{stroke-width:8.25px;}.cls-10,.cls-14,.cls-15,.cls-3,.cls-9{fill:#e0e0e0;}.cls-4,.cls-5{stroke:#6bffba;}.cls-4{stroke-width:3px;}.cls-16,.cls-17,.cls-5{stroke-width:4px;}.cls-6{fill:#6bffba;}.cls-7{fill:#004864;}.cls-8{stroke:#004864;stroke-width:2.22px;}.cls-9{stroke-width:4.33px;}.cls-10,.cls-15,.cls-16{stroke:#ff665c;}.cls-10{stroke-width:11px;}.cls-11{fill:#00364b;}.cls-12{stroke-width:10px;}.cls-13{stroke-width:1.07px;}.cls-14,.cls-15{stroke-width:3.41px;}</style></defs><title>Rethink Taiwan_Landing page animation 4</title><path class="cls-1" d="M251.67,206.29a10.62,10.62,0,0,1-5.24-8.58V148.39a5.91,5.91,0,0,1,5.89-5.89h13.06a5.91,5.91,0,0,0,5.89-5.89v-.41c0-3.24-2.25-5.89-5-5.89s-5-2.65-5-5.89v-1.59a6,6,0,0,0-5.89-5.94l-3.05,0c-3.24,0-8.54,0-11.78,0H214.45a5.91,5.91,0,0,0-5.89,5.89v.41a5.82,5.82,0,0,0,5.7,5.89,5.82,5.82,0,0,1,5.7,5.89v31.73a5.9,5.9,0,0,1-5.89,5.88l-51.14-.08c-3.24,0-5.89,2.09-5.89,4.66a4.42,4.42,0,0,0,4.09,4.67c2.25,0,4.09,2.65,4.09,5.89V215a7.15,7.15,0,0,0,5.82,6.81l15.68,2.49c3.2.51,5.67-1.42,5.49-4.28s2.25-4.59,5.4-3.84l14.92,3.56c3.15.75,5.73,3.74,5.73,6.64s2.46,6.27,5.46,7.5l12.95,5.28a6.64,6.64,0,0,0,8.2-3l1.51-2.88a6.11,6.11,0,0,0-2.4-8.1l-10.39-5.83a5.39,5.39,0,0,1-2.32-7.45c1.55-2.51,5.18-3.37,8.07-1.9h0c2.89,1.46,4.78,3.72,4.2,5s1.4,3.35,4.4,4.59l8.23,3.39a6.54,6.54,0,0,0,8.14-3l.24-.47a5.91,5.91,0,0,0-2.55-7.93Z"/><polyline class="cls-2" points="234.79 119.08 214.17 98.16 218.15 84.91"/><path class="cls-2" d="M202.24,76.36s-3.83,12.08,11.93,21.8"/><line class="cls-2" x1="232.14" y1="105.53" x2="230.18" y2="114.4"/><polyline class="cls-2" points="250.71 120.25 271.33 99.34 267.35 86.08"/><path class="cls-2" d="M283.26,77.54s3.83,12.08-11.93,21.8"/><line class="cls-2" x1="252.76" y1="105.23" x2="255.32" y2="115.58"/><circle class="cls-3" cx="174.97" cy="183.59" r="4.29"/><circle class="cls-3" cx="186.91" cy="193.26" r="4.29"/><circle class="cls-3" cx="198.81" cy="183.59" r="4.29"/><circle class="cls-3" cx="210.18" cy="192.18" r="4.29"/><circle class="cls-3" cx="222.14" cy="183.59" r="4.29"/><polyline class="cls-4" points="411.99 233.53 411.99 241.84 408.03 241.97"/><polyline class="cls-4" points="429.12 233.66 429.12 241.97 434.32 241.97"/><line class="cls-5" x1="415.82" y1="218.62" x2="415.82" y2="220.74"/><line class="cls-5" x1="424.28" y1="218.62" x2="424.28" y2="230.87"/><path class="cls-6" d="M418.64,230.43v-5.58a1.68,1.68,0,0,0-1.68-1.68h-2.59a1.68,1.68,0,0,1-1.68-1.68h0a1.68,1.68,0,0,1,1.68-1.68h11.84a1.68,1.68,0,0,1,1.68,1.68v12.71a1.68,1.68,0,0,1-1.68,1.68H414.37a1.68,1.68,0,0,1-1.68-1.68v-.42a1.68,1.68,0,0,1,1.68-1.68H417A1.68,1.68,0,0,0,418.64,230.43Z"/><line class="cls-4" x1="418.07" y1="234.74" x2="418.07" y2="241.97"/><line class="cls-4" x1="422.16" y1="234.74" x2="422.16" y2="241.97"/><path class="cls-7" d="M372.26,188.65a6.34,6.34,0,0,1-6.34-6.32V152.06a6.36,6.36,0,0,0-6.34-6.34H353.9a6.36,6.36,0,0,0-6.34,6.34v64.81a6.36,6.36,0,0,0,6.34,6.34H396a6.2,6.2,0,0,0,6.2-6.34l-.47-22a6.5,6.5,0,0,0-6.48-6.32Z"/><path class="cls-8" d="M372.26,188.65a6.34,6.34,0,0,1-6.34-6.32V152.06a6.36,6.36,0,0,0-6.34-6.34H353.9a6.36,6.36,0,0,0-6.34,6.34v64.81a6.36,6.36,0,0,0,6.34,6.34H396a6.2,6.2,0,0,0,6.2-6.34l-.47-22a6.5,6.5,0,0,0-6.48-6.32Z"/><line class="cls-9" x1="347.56" y1="156.13" x2="342.5" y2="156.13"/><path class="cls-7" d="M398,193.1a29.55,29.55,0,0,1,.49-5.51,38.9,38.9,0,0,1,1.32-5.42,41.74,41.74,0,0,1,4.85-10.24,36.55,36.55,0,0,1,7.88-8.6,33.77,33.77,0,0,1,10.48-5.6,39,39,0,0,1,5.78-1.34l1.46-.21c.49-.05,1-.07,1.46-.1,1,0,2-.16,2.92-.12a42.75,42.75,0,0,1,5.76.44c.94.15,1.9.21,2.82.46l2.77.65a55.76,55.76,0,0,1,19.8,9.77c-7.16-1.58-14-3.27-20.88-3.88-1.7-.13-3.39-.32-5.07-.31s-3.33,0-5,.09c-.82.05-1.63.18-2.44.25-.4,0-.81.08-1.21.14l-1.19.24a33.6,33.6,0,0,0-4.67,1.16,37.07,37.07,0,0,0-16,10.6,60,60,0,0,0-6.19,8.17A83.07,83.07,0,0,0,398,193.1Z"/><path class="cls-3" d="M398,193.1c0-1,.08-2,.14-3.08l1.21.36C398.93,191.27,398.5,192.18,398,193.1Z"/><path class="cls-3" d="M401.38,178c.45-.95.9-1.91,1.38-2.85l4.48,2.92c-.56.76-1.15,1.51-1.74,2.27Z"/><polygon class="cls-3" points="410.63 164.93 413.17 162.83 417.34 168.77 415.12 170.31 410.63 164.93"/><polygon class="cls-3" points="425.12 157.12 428.35 156.43 429.67 163.84 427.05 164.44 425.12 157.12"/><path class="cls-3" d="M441.3,156.48c1,.19,2.09.39,3.12.6l-1,6.14c-.95,0-1.89-.1-2.82-.16Z"/><polygon class="cls-3" points="456.18 161.28 458.92 162.71 457.86 165.49 454.95 164.9 456.18 161.28"/><path class="cls-7" d="M398,193.1c1.9-7.23,6.81-13.69,13.19-18.21a38.76,38.76,0,0,1,22.3-6.75A49.22,49.22,0,0,1,445,169.5a56.57,56.57,0,0,1,5.5,1.57c1.8.61,3.54,1.34,5.28,2.06a68.7,68.7,0,0,1,18.58,12.24c-7.05-2.32-13.8-4.77-20.59-6.6-.85-.23-1.7-.41-2.55-.62s-1.68-.47-2.54-.61c-1.71-.29-3.38-.75-5.08-.94-.85-.11-1.69-.29-2.53-.38l-2.53-.24c-.84-.12-1.68-.11-2.52-.16a24.55,24.55,0,0,0-2.51,0A43.21,43.21,0,0,0,414.27,180,49.28,49.28,0,0,0,398,193.1Z"/><path class="cls-3" d="M398,193.1a20.6,20.6,0,0,1,.92-2.95l1.06.66C399.31,191.54,398.66,192.3,398,193.1Z"/><path class="cls-3" d="M405.72,179.63c.76-.74,1.51-1.5,2.3-2.23l3.16,4.27c-.78.51-1.58,1-2.38,1.51Z"/><polygon class="cls-3" points="419.1 170.71 422.2 169.68 423.96 176.69 421.31 177.33 419.1 170.71"/><polygon class="cls-3" points="435.08 168.15 438.29 168.35 437.65 175.86 434.87 175.73 435.08 168.15"/><path class="cls-3" d="M450.66,171.1c1,.36,2,.71,2.94,1.09l-2,6c-.94-.2-1.87-.44-2.8-.66Z"/><path class="cls-3" d="M464.6,177.84c.86.55,1.71,1.13,2.56,1.7l-1.46,2.89c-.95-.31-1.9-.61-2.83-.94Z"/><path class="cls-7" d="M398,193.1a6.76,6.76,0,0,1,1.44-2.36,18.79,18.79,0,0,1,2-1.92,26.74,26.74,0,0,1,4.65-3A41.18,41.18,0,0,1,416.6,182a53,53,0,0,1,22.17.15c.9.21,1.81.4,2.71.65l2.67.76c1.75.61,3.51,1.16,5.2,1.91A64.2,64.2,0,0,1,475.12,205c-6.42-3.28-12.56-6.49-18.83-9.17-.77-.36-1.57-.65-2.36-1s-1.56-.67-2.35-.94c-1.59-.56-3.15-1.19-4.76-1.68a84.68,84.68,0,0,0-9.64-2.63A75.37,75.37,0,0,0,417.41,188a60.16,60.16,0,0,0-10,1.31,39.79,39.79,0,0,0-4.91,1.38,18.68,18.68,0,0,0-2.36,1A7.35,7.35,0,0,0,398,193.1Z"/><path class="cls-3" d="M398,193.1a4.54,4.54,0,0,1,.7-1.41,10.45,10.45,0,0,1,1-1.24l.77,1A8,8,0,0,0,398,193.1Z"/><path class="cls-3" d="M410.42,183.85c1-.34,2-.69,3-1l1.05,5.31c-.94.13-1.88.23-2.84.34Z"/><path class="cls-3" d="M425.95,181c1.06,0,2.12,0,3.18,0l-.5,7.29c-.94-.07-1.87-.16-2.81-.24Z"/><path class="cls-3" d="M441.64,182.88c1,.3,2,.57,3,.89l-2.17,7.17c-.92-.22-1.83-.49-2.74-.73Z"/><polygon class="cls-3" points="456.16 188.8 458.83 190.4 456.03 195.73 453.35 194.63 456.16 188.8"/><path class="cls-3" d="M468.64,197.93c.75.7,1.47,1.43,2.2,2.15l-1.49,2c-.89-.45-1.79-.89-2.66-1.36Z"/><line class="cls-10" x1="356.2" y1="155.3" x2="352.46" y2="155.61"/><path class="cls-11" d="M28,270.43a8,8,0,0,0,8-8V164.75A42.78,42.78,0,0,1,78.77,122h32.91a8,8,0,0,0,8-8v-6.3a8,8,0,0,1,8-8h.55c4.38,0,8,2.19,8,4.88a4.94,4.94,0,0,0,9.87,0c0-2.68,3.09-4.88,6.88-4.88s6.88,2.19,6.88,4.88,1.75,4.88,3.9,4.88,3.9,3.59,3.9,8v8.78a8,8,0,0,0,8,8h.55a8,8,0,0,1,8,8v8.78a8,8,0,0,1-8,8H156.69a8,8,0,0,0-8,8v38.87c0,4.38,2.49,8,5.53,8s5.53,3.59,5.53,8v11.61a8,8,0,0,0,8,8h7.09a8,8,0,0,1,8,8v2.66a8,8,0,0,1-8,8l-21.75.1a7.84,7.84,0,1,0,0,15.67h.07a8,8,0,0,1,8,8v3.55a8,8,0,0,1-8,8H27.47a8,8,0,0,1-8-8V278.4a8,8,0,0,1,8-8Z"/><polyline class="cls-12" points="108.42 172.54 129.8 179.97 142.62 168.54"/><path class="cls-3" d="M110.87,247.1a2.9,2.9,0,0,1,2.57,3.13c0,1.72,1.92,3.13,4.27,3.13h2.48a4.28,4.28,0,0,0,4.27-4.27v-6.36a4.28,4.28,0,0,1,4.27-4.27H129a4.28,4.28,0,0,1,4.27,4.27v20.07a4.28,4.28,0,0,1-4.27,4.27H112.58a4.28,4.28,0,0,1-4.27-4.27V251.36C108.31,249,109.46,247.1,110.87,247.1Z"/><path class="cls-13" d="M110.87,247.1a2.9,2.9,0,0,1,2.57,3.13c0,1.72,1.92,3.13,4.27,3.13h2.48a4.28,4.28,0,0,0,4.27-4.27v-6.36a4.28,4.28,0,0,1,4.27-4.27H129a4.28,4.28,0,0,1,4.27,4.27v20.07a4.28,4.28,0,0,1-4.27,4.27H112.58a4.28,4.28,0,0,1-4.27-4.27V251.36C108.31,249,109.46,247.1,110.87,247.1Z"/><line class="cls-14" x1="117.59" y1="262.25" x2="117.59" y2="275.26"/><line class="cls-14" x1="123.17" y1="262.25" x2="123.17" y2="275.26"/><line class="cls-15" x1="132.74" y1="246.24" x2="134.98" y2="246.24"/><path class="cls-3" d="M94.2,94.45a2.9,2.9,0,0,0-2.57,3.13c0,1.72-1.92,3.13-4.27,3.13H84.89a4.28,4.28,0,0,1-4.27-4.27V90.08a4.28,4.28,0,0,0-4.27-4.27h-.29a4.28,4.28,0,0,0-4.27,4.27v20.07a4.28,4.28,0,0,0,4.27,4.27H92.5a4.28,4.28,0,0,0,4.27-4.27V98.72C96.77,96.37,95.61,94.45,94.2,94.45Z"/><path class="cls-13" d="M94.2,94.45a2.9,2.9,0,0,0-2.57,3.13c0,1.72-1.92,3.13-4.27,3.13H84.89a4.28,4.28,0,0,1-4.27-4.27V90.08a4.28,4.28,0,0,0-4.27-4.27h-.29a4.28,4.28,0,0,0-4.27,4.27v20.07a4.28,4.28,0,0,0,4.27,4.27H92.5a4.28,4.28,0,0,0,4.27-4.27V98.72C96.77,96.37,95.61,94.45,94.2,94.45Z"/><line class="cls-14" x1="87.49" y1="109.6" x2="87.49" y2="122.61"/><line class="cls-14" x1="81.91" y1="109.6" x2="81.91" y2="122.61"/><line class="cls-15" x1="82.81" y1="93.6" x2="80.57" y2="93.6"/><path class="cls-3" d="M101.42,38.35c0-1.65,2.25-3,5-3h.71c2.75,0,3.17-.71.94-1.58h0c-9.11-5.2-5-8.8-.49-9.7l16,5.82c2.58.94,5.58,1.2,6.65.57l2.71-1.7c5.33-3.33,7.72-3.64,7.72-3.64,2.73-.35,5.41-.31,6,.09s-.47,2-2.26,3.64-1.7,2.88.21,2.81,3.48,2.13,3.48,4.88v.21a5.11,5.11,0,0,1-5,5.08h-.78l-5,.08h0a6.2,6.2,0,0,1-6.2,6.2H115.66c-2.75,0-5-1.55-5-3.44s-2.08-3.41-4.62-3.38S101.42,40,101.42,38.35Z"/><line class="cls-16" x1="150.1" y1="38.71" x2="145.19" y2="38.81"/><line class="cls-17" x1="116.72" y1="42.26" x2="105.64" y2="49.26"/><line class="cls-17" x1="125.34" y1="42.13" x2="110.38" y2="53.13"/></svg>