<svg id="圖層_1" data-name="圖層 1" xmlns="http://www.w3.org/2000/svg" viewBox="0 0 128.28 224.5"><defs><style>.cls-1{fill:#ffcd32;}.cls-10,.cls-11,.cls-2,.cls-3,.cls-4,.cls-5,.cls-7,.cls-8,.cls-9{fill:none;}.cls-2,.cls-3,.cls-4,.cls-5{stroke:#006464;}.cls-10,.cls-11,.cls-2,.cls-3,.cls-4,.cls-5,.cls-7,.cls-9{stroke-linecap:round;}.cls-10,.cls-2,.cls-3,.cls-4,.cls-5{stroke-linejoin:round;}.cls-2{stroke-width:1.52px;}.cls-3{stroke-width:1.39px;}.cls-4{stroke-width:1.41px;}.cls-5{stroke-width:3.04px;}.cls-6{fill:#fff;}.cls-7,.cls-8{stroke:#fff;}.cls-7{stroke-width:12.99px;}.cls-8{stroke-miterlimit:10;stroke-width:2px;}.cls-10,.cls-11,.cls-9{stroke:#ff665c;}.cls-10,.cls-9{stroke-width:6px;}.cls-11{stroke-width:4px;}</style></defs><title>Rethink Taiwan_Landing page animation 4</title><path class="cls-1" d="M65.75,68.07c3.48-5.54,9-5.45,12.34.2l15.2,26c3.3,5.65.65,10.27-5.89,10.27H54.68c-6.54,0-9-4.53-5.56-10.07Z"/><path class="cls-2" d="M74.93,81.28s-6.15-5.19-6.07-11.45"/><path class="cls-2" d="M78.39,81.28S74.88,78.2,73.77,75"/><path class="cls-2" d="M81.43,81.28A20.45,20.45,0,0,1,77.29,75"/><path class="cls-2" d="M84.62,81.28A20.45,20.45,0,0,1,80.48,75"/><path class="cls-2" d="M69.71,80.63a7.06,7.06,0,0,0-4.39-1.32c-2.85,0-3.83,1.32-3.83,1.32"/><path class="cls-3" d="M68.43,87.19s-2.39-2.85-5-2.66-3.62,1.28-3.62,1.28"/><path class="cls-4" d="M77.12,87.19s2.53-3,5.27-2.76A4.45,4.45,0,0,1,86.1,86.5"/><polygon class="cls-2" points="69.59 98.58 73.29 102.13 76.86 98.63 73.29 97 69.59 98.58"/><line class="cls-2" x1="71.88" y1="86.05" x2="72.49" y2="92.95"/><line class="cls-5" x1="83.19" y1="86.96" x2="84.05" y2="86.05"/><line class="cls-5" x1="64.74" y1="87.07" x2="65.89" y2="86.23"/><path class="cls-1" d="M54.09,158.55a81.64,81.64,0,0,1,1-11.91L58.8,126a5.77,5.77,0,0,0-4.89-6.75L23.79,115c-3.27-.47-5.4-3.18-4.74-6s3.87-4.73,7.12-4.17l28.51,4.87a84.36,84.36,0,0,0,11.91,1L91,110.57a16.25,16.25,0,0,1,10.18,4.29l15.15,15.61c2.3,2.37,2.68,6.07.84,8.22s-5.19,2-7.46-.44L96.18,124a11.55,11.55,0,0,0-9.82-3.06,6.54,6.54,0,0,0-4.83,7.23l2.84,19.55a99.26,99.26,0,0,1,.85,11.94l-.1,51.46a5.9,5.9,0,0,1-6,5.89L73,216.88c-3.3-.06-6-2.51-6-5.44s1.88-5.32,4.19-5.3,4.19-2.66,4.19-6v-35a5.78,5.78,0,1,0-11.56,0v45.15a6,6,0,0,1-6,6H51.42c-3.3,0-6-2.18-6-4.85a4.64,4.64,0,0,1,4.37-4.85c2.4,0,4.36-2.7,4.36-6Z"/><polygon class="cls-6" points="63.23 72.16 80.59 71.83 80.23 61.68 63.02 61.88 63.23 72.16"/><line class="cls-7" x1="60.89" y1="62.76" x2="80.59" y2="57.81"/><circle class="cls-1" cx="89.29" cy="73.89" r="6.08"/><path class="cls-8" d="M26.7,101.31S35.79,71.72,22.76,74c-14.05,2.47,3.95,27.3,3.95,27.3"/><path class="cls-8" d="M26.7,101.31S28.87,72.57,22.76,74s3.95,27.3,3.95,27.3"/><line class="cls-9" x1="26.7" y1="101.31" x2="28.59" y2="114.36"/><path class="cls-10" d="M79.59,110.56s-5.21,2.81-8.34,2.81-8.34-2.81-8.34-2.81"/><line class="cls-11" x1="72.23" y1="116.73" x2="75.18" y2="120.09"/><line class="cls-11" x1="69.48" y1="116.73" x2="66.03" y2="120.09"/></svg>