<svg id="圖層_1" data-name="圖層 1" xmlns="http://www.w3.org/2000/svg" viewBox="0 0 165.3 107"><defs><style>.cls-1{fill:#ff9947;}.cls-2{fill:#004864;}.cls-3{fill:#6bffba;}</style></defs><title>Rethink Taiwan_Landing page animation 4</title><rect class="cls-1" x="4.61" y="21.32" width="157.3" height="79.81" rx="39.9" ry="39.9"/><path class="cls-2" d="M60.39,41.44v2.92H34.61V41.44H45.85c-.23-.7-.47-1.43-.7-2l3.59-.88c.32.9.79,2,1.14,2.92Zm-.67,21.37c0,1.52-.38,2.13-1.49,2.57a15.75,15.75,0,0,1-4.64.35,11.18,11.18,0,0,0-1-2.45H44.22V64.5H41V56.79H53.7v6.48h-.41c1,0,2,0,2.33,0s.58-.12.58-.5V55.71H38.79V66H35.43v-13H59.71Zm-2.8-11.09H38.49V45.47H56.91ZM53.26,47.8H42v1.61h11.3ZM50.64,59.22H44.22v1.66h6.42Z"/><path class="cls-2" d="M73.81,53a23.83,23.83,0,0,0-4.73-3.21l1.87-2.36a22.46,22.46,0,0,1,4.85,2.95Zm-4,10.6a84.26,84.26,0,0,0,4.06-9.37l2.66,1.93c-1.08,3.09-2.39,6.48-3.68,9.34Zm5.9-18.8a28.2,28.2,0,0,0-5-3.3l1.93-2.33a30.51,30.51,0,0,1,5.17,3ZM94,55.57c-.09,1.17-.18,2.19-.26,3.09h1.78v2.95H93.39a6.73,6.73,0,0,1-.88,2.71,3.18,3.18,0,0,1-2.36,1.31,18.22,18.22,0,0,1-3.65.06,7,7,0,0,0-.9-2.83c1.28.12,2.42.12,3,.12a1.18,1.18,0,0,0,1.08-.47,2.75,2.75,0,0,0,.38-.9H78c.32-1.66.67-3.79,1-6h-2.6V52.42h3c.2-1.58.38-3.15.53-4.64-.35.53-.73,1-1.08,1.49a27.25,27.25,0,0,0-3-1.9,23.39,23.39,0,0,0,4.67-8.64l3.36.85c-.23.67-.5,1.4-.79,2.1H95.52v3.09H81.69c-.35.67-.67,1.31-1.05,1.93H94.45s0,1,0,1.46c-.06,1.55-.15,2.95-.2,4.26h2.07v3.15Zm-11.82,0c-.15,1.08-.29,2.1-.44,3.09h4.41a24.81,24.81,0,0,0-2.54-2.39l1.11-.7ZM83,49.64c-.12.93-.23,1.84-.35,2.77h3.94a21,21,0,0,0-2.13-2.13l1-.64Zm7.59,9c.12-.88.2-1.87.29-3.09h-4.7A19.42,19.42,0,0,1,88.75,58l-.93.64Zm-3.74-9A19.81,19.81,0,0,1,89,51.86l-.82.55H91c0-.88.09-1.78.12-2.77Z"/><path class="cls-2" d="M113.59,60.33c-3.18,1-6.66,2-9.31,2.8l-.61-3.33c1-.23,2.16-.53,3.44-.88v-7h-2.8V48.77h2.8V43.63h-3V40.39h9.34v3.24h-3.21v5.14H113v3.18h-2.74V58c1-.26,2-.53,2.95-.82Zm12.81-1.05A46.55,46.55,0,0,1,131.54,64l-2.77,2a36.25,36.25,0,0,0-5.2-5.2l2.33-1.55h-7.27l2.31,1.4a21.62,21.62,0,0,1-6.39,5.49,12.86,12.86,0,0,0-2.16-2.42,19.29,19.29,0,0,0,5.49-4.47h-4.2V56.18h2.92V45.61h-2.33V42.52h2.33V38.72h3.33v3.79h5V38.72h3.42v3.79h2.45v3.09h-2.45V56.18h2.77v3.09Zm-6.48-13.66v1.69h5V45.61Zm0,6.07h5V50h-5Zm0,4.5h5V54.34h-5Z"/><path class="cls-2" d="M64.37,79.82a14.16,14.16,0,0,1-1.05,5.27,23.09,23.09,0,0,1,1.84,1.84L64,88.44a20,20,0,0,0-1.55-1.71,10.44,10.44,0,0,1-2.59,2.68,6.68,6.68,0,0,0-1.28-1.26,9.22,9.22,0,0,0,2.57-2.67c-.78-.72-1.58-1.45-2.27-2.06.24-.91.5-2.07.72-3.32l-.85.06-.17-1.72,1.29,0c.15-1.1.27-2.19.33-3.2l1.8.08c-.09,1-.21,2-.38,3l1.1-.06v-1h1.69v.87l.79,0v1.63Zm-3,.2c-.18,1-.37,2-.56,2.86l1.17,1a12.53,12.53,0,0,0,.75-3.94ZM72.8,83.14h-3v4.28c0,.93-.2,1.39-.84,1.68a7,7,0,0,1-2.67.29,6.65,6.65,0,0,0-.61-1.72l1.89,0c.26,0,.33-.06.33-.29V83.14h-3.2V81.42h3.2V80a12.23,12.23,0,0,0,1.86-2.22H65.26V76.09h5.65l.43-.09,1.22.88a18.49,18.49,0,0,1-2.8,3.4v1.14h3Z"/><path class="cls-2" d="M89.29,76.07v13.1H87.34v-1H80.58v1H78.71V76.07ZM80.58,77.9v3.27h6.76V77.9Zm6.76,8.48V83H80.58v3.41Z"/><path class="cls-2" d="M109.16,83.55h-5.91v3.67c0,1-.23,1.52-.94,1.81a9.14,9.14,0,0,1-3.18.32,7.28,7.28,0,0,0-.78-1.87c1.07.06,2.25.06,2.57,0s.44-.09.44-.35V83.55h-6V81.74h6V79.62a19,19,0,0,0,2.94-1.8H96.84V76h9.49l.43-.09L108.12,77a22.71,22.71,0,0,1-4.87,3.59v1.16h5.91Z"/><path class="cls-1" d="M15.85,81.46,5.51,94.68A1.6,1.6,0,0,0,7,97.25l23.4-2.86a1.6,1.6,0,0,0,.8-2.84L18.1,81.2A1.6,1.6,0,0,0,15.85,81.46Z"/><path class="cls-3" d="M126.86,10.45l-1.16,5.46h-2.17l1-4.93a2,2,0,0,0,0-1q-.18-.62-1.06-.62a1.88,1.88,0,0,0-1.67.91,3.62,3.62,0,0,0-.47,1.23l-.93,4.39h-2.11l1.72-8.09h2L121.88,9a4.93,4.93,0,0,1,1-.9,3.17,3.17,0,0,1,1.76-.49,2.59,2.59,0,0,1,1.91.66A2.31,2.31,0,0,1,126.86,10.45Z"/><path class="cls-3" d="M135.44,9.16a3.43,3.43,0,0,1,.26,1.67,10.51,10.51,0,0,1-.27,1.61h-5.55a1.67,1.67,0,0,0,.4,1.71,1.51,1.51,0,0,0,1,.3,1.84,1.84,0,0,0,1.15-.37,2.61,2.61,0,0,0,.51-.56h2.16A3.56,3.56,0,0,1,134,15a4.52,4.52,0,0,1-3.17,1.18,3.36,3.36,0,0,1-2.52-1q-1-1-.49-3.24a5.64,5.64,0,0,1,1.75-3.23,4.47,4.47,0,0,1,3-1.12,3.75,3.75,0,0,1,1.74.38A2.32,2.32,0,0,1,135.44,9.16ZM130.23,11h3.29a1.55,1.55,0,0,0-.24-1.27,1.3,1.3,0,0,0-1-.44A1.76,1.76,0,0,0,131,9.8,2.93,2.93,0,0,0,130.23,11Z"/><path class="cls-3" d="M141.66,7.8h2.15v5.84l2.5-5.84h2.21l-4.07,8.1h-2.18l0-5.9-2.54,5.9h-2.2L137,7.8h2.27l0,5.81Z"/><path class="cls-3" d="M149.15,13.76h2.22l-.45,2.15H148.7ZM151,5h2.33l-.59,2.78L151,12.88H149.9l.47-5.11Z"/></svg>