<svg id="圖層_1" data-name="圖層 1" xmlns="http://www.w3.org/2000/svg" viewBox="0 0 131.48 231.81"><defs><style>.cls-1{fill:#ff9947;}.cls-2{fill:#e0e0e0;}.cls-10,.cls-11,.cls-3,.cls-4,.cls-5,.cls-7,.cls-8,.cls-9{fill:none;}.cls-3{stroke:#ff9947;stroke-width:2.3px;}.cls-10,.cls-11,.cls-12,.cls-3,.cls-4,.cls-5,.cls-7,.cls-8,.cls-9{stroke-linecap:round;}.cls-3,.cls-4,.cls-5,.cls-7,.cls-8{stroke-miterlimit:10;}.cls-4,.cls-5,.cls-8{stroke:#e0e0e0;}.cls-4{stroke-width:3.36px;}.cls-5{stroke-width:2.24px;}.cls-12,.cls-6{fill:#ffcd32;}.cls-7{stroke:#ffcd32;stroke-width:3.7px;}.cls-8{stroke-width:2.92px;}.cls-10,.cls-11,.cls-12,.cls-9{stroke:#004864;stroke-linejoin:round;}.cls-9{stroke-width:2.14px;}.cls-10,.cls-12{stroke-width:1.43px;}.cls-11{stroke-width:2.85px;}.cls-13{fill:#00364b;}</style></defs><title>Rethink Taiwan_Landing page animation 4</title><ellipse class="cls-1" cx="107.06" cy="168.57" rx="11" ry="5.61"/><ellipse class="cls-1" cx="107.06" cy="147.65" rx="10.98" ry="4.76"/><rect class="cls-1" x="96.08" y="147.65" width="21.96" height="20.93" transform="translate(214.13 316.22) rotate(-180)"/><ellipse class="cls-2" cx="107.08" cy="148.28" rx="10.7" ry="4.29"/><path class="cls-3" d="M115.48,148s.62-19.58-10.27-19.58c-7.68,0-7.44,14.5-7.44,14.5"/><line class="cls-4" x1="107.89" y1="151.9" x2="107.89" y2="157.71"/><line class="cls-5" x1="104.39" y1="151.58" x2="104.39" y2="155.54"/><path class="cls-6" d="M76.75,66.52c-1.95-3.09-5-3-6.89.11l-8.5,14.54c-1.84,3.16-.36,5.74,3.29,5.74H82.93c3.66,0,5.05-2.53,3.11-5.63Z"/><path class="cls-6" d="M36.92,80.22a4.88,4.88,0,0,0-4.86,4.86V99.55a4.88,4.88,0,0,0,4.86,4.86H56.35a4.3,4.3,0,0,1,4.36,4.84L58.2,133.33c-.28,2.66-.51,7-.51,9.7v32.29a4.88,4.88,0,0,0,4.86,4.86H75a4.88,4.88,0,0,1,4.86,4.86v1.09A4.88,4.88,0,0,0,84.69,191h21.78a4.88,4.88,0,0,0,4.86-4.86v-.34a4.88,4.88,0,0,0-4.86-4.86H94.76a4.88,4.88,0,0,1-4.86-4.86V143a93.26,93.26,0,0,0-.61-9.69l-2.94-23.21a4.55,4.55,0,0,1,3.86-5.26,5.26,5.26,0,0,1,5.39,4.34l3.63,19a5.09,5.09,0,0,0,5.72,4l.11,0a4.68,4.68,0,0,0,3.9-5.53l-5.24-27.51a6.13,6.13,0,0,0-5.78-4.78L47,94.35a4.88,4.88,0,0,1-4.86-4.87V85.09a4.88,4.88,0,0,0-4.86-4.86Zm30.84,71.19a4.88,4.88,0,0,1,4.86-4.86H75a4.88,4.88,0,0,1,4.86,4.86v13.85A4.88,4.88,0,0,1,75,170.13H72.62a4.88,4.88,0,0,1-4.86-4.86Z"/><line class="cls-7" x1="32.38" y1="74.07" x2="49.88" y2="82.15"/><line class="cls-7" x1="34.53" y1="69.81" x2="30.06" y2="78.65"/><line class="cls-7" x1="29.57" y1="65.9" x2="24.12" y2="76.97"/><line class="cls-8" x1="23.62" y1="63.63" x2="16.86" y2="60.56"/><line class="cls-8" x1="21.2" y1="68.94" x2="14.45" y2="65.86"/><line class="cls-8" x1="18.79" y1="74.24" x2="12.03" y2="71.16"/><path class="cls-6" d="M80.42,56.29c-3.27-5.2-8.49-5.12-11.6.19L54.53,80.93c-3.1,5.31-.61,9.65,5.54,9.65H90.81c6.15,0,8.5-4.26,5.23-9.46Z"/><path class="cls-9" d="M82.38,67.44h2.3a5,5,0,0,1,5,5v4.31A2.29,2.29,0,0,1,87.38,79h-7.7a2.29,2.29,0,0,1-2.29-2.29V72.42A5,5,0,0,1,82.38,67.44Z" transform="translate(167.06 146.46) rotate(-180)"/><path class="cls-9" d="M66.2,67.44h2.3a5,5,0,0,1,5,5v4.31A2.29,2.29,0,0,1,71.2,79h-7.7a2.29,2.29,0,0,1-2.29-2.29V72.42a5,5,0,0,1,5-5Z" transform="translate(134.71 146.46) rotate(180)"/><line class="cls-9" x1="77.39" y1="69.73" x2="73.49" y2="69.73"/><polygon class="cls-10" points="87.17 82.33 63.13 82.33 65.27 86.7 85.03 86.7 87.17 82.33"/><line class="cls-10" x1="68.11" y1="82.33" x2="68.11" y2="86.7"/><line class="cls-10" x1="81.37" y1="82.33" x2="81.37" y2="86.7"/><line class="cls-10" x1="72.39" y1="82.33" x2="72.39" y2="86.7"/><line class="cls-10" x1="77.39" y1="82.33" x2="77.39" y2="86.7"/><line class="cls-11" x1="68.7" y1="71.36" x2="68.48" y2="73.43"/><line class="cls-11" x1="82.17" y1="70.92" x2="82.63" y2="73.43"/><line class="cls-10" x1="70.49" y1="72.18" x2="66.56" y2="72.18"/><line class="cls-10" x1="84.36" y1="72.18" x2="80.44" y2="72.18"/><line class="cls-12" x1="72.39" y1="64.7" x2="66.56" y2="62.8"/><line class="cls-12" x1="77.87" y1="64.7" x2="83.69" y2="62.8"/><path class="cls-6" d="M103.9,66.06a1.49,1.49,0,0,1-1.7,2c-4-.86-11.37-2.62-13.38-4.33a6.67,6.67,0,1,1,8.63-10.17C99.46,55.26,102.4,62.23,103.9,66.06Z"/><ellipse class="cls-13" cx="83.53" cy="216.36" rx="21.9" ry="8.78"/></svg>