<svg id="圖層_1" data-name="圖層 1" xmlns="http://www.w3.org/2000/svg" viewBox="0 0 336.09 294"><defs><style>.cls-1{fill:#6bffba;}.cls-2,.cls-5{fill:#ffcd32;}.cls-15,.cls-3,.cls-4{fill:none;}.cls-3,.cls-4,.cls-5{stroke:#006464;}.cls-10,.cls-11,.cls-12,.cls-13,.cls-14,.cls-15,.cls-3,.cls-4,.cls-5,.cls-7,.cls-8,.cls-9{stroke-linecap:round;stroke-linejoin:round;}.cls-3{stroke-width:3.04px;}.cls-4,.cls-5{stroke-width:1.52px;}.cls-6,.cls-7{fill:#ff665c;}.cls-7{stroke:#ff665c;}.cls-12,.cls-14,.cls-15,.cls-7,.cls-8,.cls-9{stroke-width:3.62px;}.cls-8{fill:#ff7157;stroke:#ff7157;}.cls-9{fill:#ff7c53;stroke:#ff7c53;}.cls-10{fill:#ff874e;stroke:#ff874e;}.cls-10,.cls-11{stroke-width:3.62px;}.cls-11{fill:#ff924a;stroke:#ff924a;}.cls-12{fill:#ff9d45;stroke:#ff9d45;}.cls-13{fill:#ffa841;stroke:#ffa841;stroke-width:3.62px;}.cls-14{fill:#ffb33c;stroke:#ffb33c;}.cls-15{stroke:#004864;}</style></defs><title>Rethink Taiwan_Landing page animation 4</title><path class="cls-1" d="M151,243.71a2,2,0,0,1-2-2V229.54a2,2,0,0,1,4,0v12.17A2,2,0,0,1,151,243.71Z"/><path class="cls-1" d="M153.57,237.63h-5.19a2,2,0,1,1,0-4h5.19a2,2,0,0,1,0,4Z"/><path class="cls-1" d="M267.56,33.24a2,2,0,0,1-2-2V19.07a2,2,0,1,1,4,0V31.24A2,2,0,0,1,267.56,33.24Z"/><path class="cls-1" d="M270.11,27.16h-5.19a2,2,0,0,1,0-4h5.19a2,2,0,0,1,0,4Z"/><path class="cls-1" d="M164.36,269.95h-7.19a2,2,0,0,1,0-4h7.19a2,2,0,0,1,0,4Z"/><path class="cls-1" d="M160.76,276.13a2,2,0,0,1-2-2V261.62a2,2,0,0,1,4,0v12.51A2,2,0,0,1,160.76,276.13Z"/><path class="cls-1" d="M119.76,282.93a2,2,0,0,1-2-2V263.76a2,2,0,0,1,4,0v17.17A2,2,0,0,1,119.76,282.93Z"/><path class="cls-1" d="M123.76,274.35h-8.1a2,2,0,1,1,0-4h8.1a2,2,0,0,1,0,4Z"/><path class="cls-1" d="M279.61,87.85a2,2,0,0,1-2-2V68.68a2,2,0,0,1,4,0V85.85A2,2,0,0,1,279.61,87.85Z"/><path class="cls-1" d="M283.61,79.27h-8.1a2,2,0,0,1,0-4h8.1a2,2,0,0,1,0,4Z"/><path class="cls-2" d="M262.22,133.07a5.63,5.63,0,0,0,5.48-5l0-.39a4.46,4.46,0,0,0-4.52-5H246.75a4.46,4.46,0,0,1-4.52-5L244.1,98.4a4.46,4.46,0,0,0-4.52-5H186.1a5.63,5.63,0,0,0-5.48,5l0,.39a4.46,4.46,0,0,0,4.52,5h29.1a3.74,3.74,0,0,1,3.81,4.86l-7.8,31.71a8.09,8.09,0,0,0,2.84,7.81l1.28.93a9.75,9.75,0,0,1,3.56,7.93l-3.38,35a4.46,4.46,0,0,0,4.52,5h8.69a5.63,5.63,0,0,0,5.48-5l0-.39c.26-2.74-1.4-5-3.69-5s-4-2.24-3.69-5L228.23,157a5.63,5.63,0,0,1,5.48-5h2.34a4.46,4.46,0,0,1,4.52,5l-2.05,21.23a4.46,4.46,0,0,0,4.52,5h9.28a5.63,5.63,0,0,0,5.48-5l0-.39c.26-2.74-1.53-5-4-5s-4.25-2.24-4-5L250.92,157l.51-5.3.5-5.17a4.41,4.41,0,0,0-4.53-4.85h-2.48c-2.75,0-4.81-1.94-4.58-4.31s2.67-4.31,5.42-4.31Z"/><path class="cls-2" d="M241.53,52.07c-3.48-5.54-9-5.45-12.34.2l-15.2,26c-3.3,5.65-.65,10.27,5.89,10.27H252.6c6.54,0,9-4.53,5.56-10.07Z"/><line class="cls-3" x1="227.55" y1="70.6" x2="227.87" y2="73.2"/><polyline class="cls-4" points="231.09 70.54 227.44 68.8 223.41 71.46 221.62 70.83"/><polyline class="cls-5" points="232.22 63.51 226.8 63.89 224.83 65.36"/><line class="cls-3" x1="244.12" y1="70.6" x2="243.81" y2="73.2"/><polyline class="cls-4" points="240.58 70.54 244.24 68.8 248.27 71.46 250.05 70.83"/><path class="cls-2" d="M204.6,62.46a1.58,1.58,0,0,0,1.8,2.13c4.28-.92,12.1-2.79,14.24-4.61a7.09,7.09,0,0,0-9.18-10.82C209.32,51,206.2,58.39,204.6,62.46Z"/><path class="cls-4" d="M241.72,80.68s-2.37,4.26-6.15,1.52c0,0-3.34,2.74-6-1.52"/><path class="cls-4" d="M237.45,76s-2,2.75-3.86,0"/><path class="cls-5" d="M234,53.46s7.21,11.48,19.42,18.44"/><path class="cls-6" d="M216.13,180.58a3.13,3.13,0,0,1-3.6-4.92l63.65-74.8a3.13,3.13,0,0,1,4.77,4.06l-63.65,74.8A3.12,3.12,0,0,1,216.13,180.58Z"/><path class="cls-1" d="M214.68,191.74a3.13,3.13,0,0,1-3.12-.4l-9.17-7a3.13,3.13,0,1,1,3.81-5l9.17,7a3.13,3.13,0,0,1-.68,5.37Z"/><path class="cls-1" d="M196.11,241.19a3.13,3.13,0,0,1-3.9-4.51c6.58-10.91,13.17-21.86,14.56-24.7,1.1-2.25,2.14-9.63-6.19-16.6-5.27-4.41-10.56-4.44-15.73-.09-2.36,2-7.27,6.61-19,17.66a3.13,3.13,0,1,1-4.3-4.55c1.39-1.31,16.14-15.29,19.23-17.9,7.5-6.32,16.17-6.3,23.79.07,11,9.22,9.92,19.84,7.8,24.17-1.77,3.61-12.38,21.15-14.82,25.19A3.12,3.12,0,0,1,196.11,241.19Z"/><path class="cls-1" d="M185.42,237.07a2.58,2.58,0,0,1-3.14-3.82l15.8-23.37a2.58,2.58,0,1,1,4.27,2.89l-15.8,23.37A2.56,2.56,0,0,1,185.42,237.07Z"/><path class="cls-1" d="M177.54,231.24a2.58,2.58,0,0,1-3-4l14.55-18.75a2.58,2.58,0,1,1,4.07,3.16l-14.55,18.75A2.56,2.56,0,0,1,177.54,231.24Z"/><path class="cls-1" d="M169.19,224a2.58,2.58,0,0,1-2.83-4.19l18.27-18.41a2.58,2.58,0,0,1,3.66,3.63L170,223.44A2.57,2.57,0,0,1,169.19,224Z"/><path class="cls-2" d="M218.37,152l-3.86,40a4.46,4.46,0,0,0,4.52,5h8.69a5.63,5.63,0,0,0,5.48-5l0-.39c.26-2.74-1.4-5-3.69-5s-4-2.24-3.69-5L228.71,152"/><path class="cls-1" d="M319.41,77.27h-7.19a2,2,0,0,1,0-4h7.19a2,2,0,0,1,0,4Z"/><path class="cls-1" d="M315.81,83.45a2,2,0,0,1-2-2V68.93a2,2,0,0,1,4,0V81.45A2,2,0,0,1,315.81,83.45Z"/><polygon class="cls-7" points="179.64 118.34 193.21 135.9 169.54 140.19 179.64 118.34"/><polygon class="cls-8" points="166.68 143.83 179.97 162.2 156.28 165.31 166.68 143.83"/><polygon class="cls-9" points="153.73 169.32 166.73 188.5 143.02 190.43 153.73 169.32"/><polygon class="cls-10" points="142.41 191.47 149.7 214.01 126.55 208.79 142.41 191.47"/><polygon class="cls-11" points="123.58 212.28 130.39 235.53 107.52 229.18 123.58 212.28"/><polygon class="cls-12" points="108.5 231.01 107.87 255.79 88.28 242.27 108.5 231.01"/><polygon class="cls-13" points="83.41 242.36 76.23 266.69 61.16 248.1 83.41 242.36"/><polygon class="cls-14" points="55.43 246.9 37.01 265.18 33.29 241.36 55.43 246.9"/><path class="cls-15" d="M181,103.42c1.38-1.61-68,209.1-170.2,121.68"/></svg>