<svg id="圖層_1" data-name="圖層 1" xmlns="http://www.w3.org/2000/svg" viewBox="0 0 162.5 190.5"><defs><style>.cls-1{fill:#ffcd32;}.cls-2,.cls-3,.cls-4,.cls-5,.cls-6,.cls-8{fill:none;}.cls-2,.cls-3,.cls-4,.cls-6{stroke:#006464;}.cls-2,.cls-3,.cls-4,.cls-5,.cls-6{stroke-linecap:round;}.cls-2,.cls-3,.cls-6{stroke-linejoin:round;}.cls-2{stroke-width:2.28px;}.cls-3,.cls-4{stroke-width:1.52px;}.cls-5{stroke:#ffcd32;stroke-width:4.55px;}.cls-6{stroke-width:3.04px;}.cls-7{fill:#ff665c;}.cls-8{stroke:#ff9947;stroke-miterlimit:10;stroke-width:2.5px;}</style></defs><title>Rethink Taiwan_Landing page animation 4</title><path class="cls-1" d="M28.12,30.81c3.36-5.61,8.92-5.64,12.34-.07L56.62,57c3.43,5.57.87,10.13-5.67,10.13H18.24c-6.54,0-9.14-4.59-5.78-10.2Z"/><path class="cls-2" d="M39.11,52.68a30,30,0,0,1,8.12,0"/><polyline class="cls-3" points="29.48 63.23 36.07 65.96 42.77 63.12"/><path class="cls-2" d="M28.5,59.49H26a5.5,5.5,0,0,1-5.47-5.31l-.14-4.58a2.35,2.35,0,0,1,2.36-2.44H31a2.53,2.53,0,0,1,2.51,2.44l.14,4.58A5.12,5.12,0,0,1,28.5,59.49Z"/><path class="cls-2" d="M45.71,59.49H43.26a5.5,5.5,0,0,1-5.47-5.31l-.14-4.58A2.35,2.35,0,0,1,40,47.17h8.19a2.53,2.53,0,0,1,2.51,2.44l.14,4.58A5.12,5.12,0,0,1,45.71,59.49Z"/><line class="cls-2" x1="33.5" y1="49.61" x2="37.66" y2="49.61"/><line class="cls-4" x1="44.05" y1="52.28" x2="44.46" y2="50.84"/><line class="cls-4" x1="47.22" y1="52.28" x2="47.62" y2="50.84"/><path class="cls-2" d="M32.3,52.68a30.13,30.13,0,0,0-8.12,0"/><line class="cls-4" x1="24.39" y1="52.28" x2="23.9" y2="50.84"/><line class="cls-4" x1="27.49" y1="52.28" x2="27" y2="50.84"/><line class="cls-5" x1="13.64" y1="39.85" x2="55.27" y2="39.85"/><line class="cls-6" x1="24.04" y1="36.47" x2="44.2" y2="36.47"/><line class="cls-3" x1="51.83" y1="63.36" x2="53.49" y2="61.84"/><line class="cls-3" x1="54.83" y1="63.36" x2="56.49" y2="61.84"/><line class="cls-3" x1="20.25" y1="63.36" x2="18.49" y2="61.84"/><line class="cls-3" x1="17.19" y1="63.36" x2="15.44" y2="61.84"/><path class="cls-1" d="M42.21,88.33a4.76,4.76,0,0,1,4.78-5H71.81a4.84,4.84,0,0,0,4.85-5V78a5.2,5.2,0,0,0-5.15-5H24.39a6,6,0,0,0-5.76,4.94l-7.52,48.72a4.17,4.17,0,0,0,4.24,4.94h23.1a5.2,5.2,0,0,1,5.15,5l.95,31.56a5.2,5.2,0,0,0,5.15,5H59.87a4.84,4.84,0,0,0,4.85-5v-.35a5.16,5.16,0,0,0-5.07-5,5.16,5.16,0,0,1-5.07-5l-.95-31.56a5.36,5.36,0,0,0-5.15-5.12h-.36A5.29,5.29,0,0,1,43,116l-.11-5.41a4.9,4.9,0,0,1,4.9-5H52a4.84,4.84,0,0,0,4.85-5v-.35a5.2,5.2,0,0,0-5.15-5H47.51a5.29,5.29,0,0,1-5.22-5Z"/><path class="cls-7" d="M38.54,72.09,15.94,92.84l.65-14.52a8.21,8.21,0,0,1,8.12-7Z"/><path class="cls-8" d="M89.82,47.17s-46.05,122.75,56.4,136.09"/><path class="cls-8" d="M81.55,51.16S33.86,178,145.63,182.49"/><path class="cls-8" d="M73.27,55.14S23.95,186,145,181.73"/><path class="cls-8" d="M65,59.13S14,194,144.45,181"/><path class="cls-8" d="M56.72,63.12s-52.6,139,87.13,117.08"/><path class="cls-8" d="M38.12,114.73s28.36,82.56,112.33,64.38"/><path class="cls-8" d="M51.14,102.27s9.22,88.28,100.73,76"/><path class="cls-8" d="M64.17,89.81s-9.91,94,89.12,87.53"/><path class="cls-8" d="M77.19,77.35s-29.05,99.72,77.52,99.11"/><path class="cls-8" d="M90.21,64.89S42,170.32,156.13,175.58"/></svg>