<svg id="圖層_1" data-name="圖層 1" xmlns="http://www.w3.org/2000/svg" viewBox="0 0 336.09 294"><defs><style>.cls-1{fill:#6bffba;}.cls-2,.cls-5{fill:#ffcd32;}.cls-15,.cls-3,.cls-4{fill:none;}.cls-3,.cls-4,.cls-5{stroke:#006464;}.cls-10,.cls-11,.cls-12,.cls-13,.cls-14,.cls-15,.cls-3,.cls-4,.cls-5,.cls-7,.cls-8,.cls-9{stroke-linecap:round;stroke-linejoin:round;}.cls-3{stroke-width:3.04px;}.cls-4,.cls-5{stroke-width:1.52px;}.cls-6,.cls-7{fill:#ff665c;}.cls-7{stroke:#ff665c;}.cls-12,.cls-14,.cls-15,.cls-7,.cls-8,.cls-9{stroke-width:3.62px;}.cls-8{fill:#ff7157;stroke:#ff7157;}.cls-9{fill:#ff7c53;stroke:#ff7c53;}.cls-10{fill:#ff874e;stroke:#ff874e;}.cls-10,.cls-11{stroke-width:3.62px;}.cls-11{fill:#ff924a;stroke:#ff924a;}.cls-12{fill:#ff9d45;stroke:#ff9d45;}.cls-13{fill:#ffa841;stroke:#ffa841;stroke-width:3.62px;}.cls-14{fill:#ffb33c;stroke:#ffb33c;}.cls-15{stroke:#004864;}</style></defs><title>Rethink Taiwan_Landing page animation 4</title><path class="cls-1" d="M154,239.71a2,2,0,0,1-2-2V225.54a2,2,0,0,1,4,0v12.17A2,2,0,0,1,154,239.71Z"/><path class="cls-1" d="M156.57,233.63h-5.19a2,2,0,1,1,0-4h5.19a2,2,0,0,1,0,4Z"/><path class="cls-1" d="M270.56,29.24a2,2,0,0,1-2-2V15.07a2,2,0,1,1,4,0V27.24A2,2,0,0,1,270.56,29.24Z"/><path class="cls-1" d="M273.11,23.16h-5.19a2,2,0,0,1,0-4h5.19a2,2,0,0,1,0,4Z"/><path class="cls-1" d="M167.36,265.95h-7.19a2,2,0,0,1,0-4h7.19a2,2,0,0,1,0,4Z"/><path class="cls-1" d="M163.76,272.13a2,2,0,0,1-2-2V257.62a2,2,0,0,1,4,0v12.51A2,2,0,0,1,163.76,272.13Z"/><path class="cls-1" d="M122.76,278.93a2,2,0,0,1-2-2V259.76a2,2,0,0,1,4,0v17.17A2,2,0,0,1,122.76,278.93Z"/><path class="cls-1" d="M126.76,270.35h-8.1a2,2,0,1,1,0-4h8.1a2,2,0,0,1,0,4Z"/><path class="cls-1" d="M282.61,83.85a2,2,0,0,1-2-2V64.68a2,2,0,0,1,4,0V81.85A2,2,0,0,1,282.61,83.85Z"/><path class="cls-1" d="M286.61,75.27h-8.1a2,2,0,0,1,0-4h8.1a2,2,0,0,1,0,4Z"/><path class="cls-2" d="M265.22,129.07a5.63,5.63,0,0,0,5.48-5l0-.39a4.46,4.46,0,0,0-4.52-5H249.75a4.46,4.46,0,0,1-4.52-5L247.1,94.4a4.46,4.46,0,0,0-4.52-5H189.1a5.63,5.63,0,0,0-5.48,5l0,.39a4.46,4.46,0,0,0,4.52,5h29.1a3.74,3.74,0,0,1,3.81,4.86l-7.8,31.71a8.09,8.09,0,0,0,2.84,7.81l1.28.93a9.75,9.75,0,0,1,3.56,7.93l-3.38,35a4.46,4.46,0,0,0,4.52,5h8.69a5.63,5.63,0,0,0,5.48-5l0-.39c.26-2.74-1.4-5-3.69-5s-4-2.24-3.69-5L231.23,153a5.63,5.63,0,0,1,5.48-5h2.34a4.46,4.46,0,0,1,4.52,5l-2.05,21.23a4.46,4.46,0,0,0,4.52,5h9.28a5.63,5.63,0,0,0,5.48-5l0-.39c.26-2.74-1.53-5-4-5s-4.25-2.24-4-5L253.92,153l.51-5.3.5-5.17a4.41,4.41,0,0,0-4.53-4.85h-2.48c-2.75,0-4.81-1.94-4.58-4.31s2.67-4.31,5.42-4.31Z"/><path class="cls-2" d="M244.53,46.07c-3.48-5.54-9-5.45-12.34.2l-15.2,26c-3.3,5.65-.65,10.27,5.89,10.27H255.6c6.54,0,9-4.53,5.56-10.07Z"/><line class="cls-3" x1="230.55" y1="66.6" x2="230.87" y2="69.2"/><polyline class="cls-4" points="234.09 66.54 230.44 64.8 226.41 67.46 224.62 66.83"/><polyline class="cls-5" points="235.22 59.51 229.8 59.89 227.83 61.36"/><line class="cls-3" x1="247.12" y1="66.6" x2="246.81" y2="69.2"/><polyline class="cls-4" points="243.58 66.54 247.24 64.8 251.27 67.46 253.05 66.83"/><path class="cls-2" d="M207.6,56.46a1.58,1.58,0,0,0,1.8,2.13c4.28-.92,12.1-2.79,14.24-4.61a7.09,7.09,0,0,0-9.18-10.82C212.32,45,209.2,52.39,207.6,56.46Z"/><path class="cls-4" d="M244.72,76.68s-2.37,4.26-6.15,1.52c0,0-3.34,2.74-6-1.52"/><path class="cls-4" d="M240.45,72s-2,2.75-3.86,0"/><path class="cls-5" d="M237,49.46s7.21,11.48,19.42,18.44"/><path class="cls-6" d="M219.13,176.58a3.13,3.13,0,0,1-3.6-4.92l63.65-74.8a3.13,3.13,0,0,1,4.77,4.06l-63.65,74.8A3.12,3.12,0,0,1,219.13,176.58Z"/><path class="cls-1" d="M217.68,187.74a3.13,3.13,0,0,1-3.12-.4l-9.17-7a3.13,3.13,0,1,1,3.81-5l9.17,7a3.13,3.13,0,0,1-.68,5.37Z"/><path class="cls-1" d="M199.11,237.19a3.13,3.13,0,0,1-3.9-4.51c6.58-10.91,13.17-21.86,14.56-24.7,1.1-2.25,2.14-9.63-6.19-16.6-5.27-4.41-10.56-4.44-15.73-.09-2.36,2-7.27,6.61-19,17.66a3.13,3.13,0,1,1-4.3-4.55c1.39-1.31,16.14-15.29,19.23-17.9,7.5-6.32,16.17-6.3,23.79.07,11,9.22,9.92,19.84,7.8,24.17-1.77,3.61-12.38,21.15-14.82,25.19A3.12,3.12,0,0,1,199.11,237.19Z"/><path class="cls-1" d="M188.42,233.07a2.58,2.58,0,0,1-3.14-3.82l15.8-23.37a2.58,2.58,0,1,1,4.27,2.89l-15.8,23.37A2.56,2.56,0,0,1,188.42,233.07Z"/><path class="cls-1" d="M180.54,227.24a2.58,2.58,0,0,1-3-4l14.55-18.75a2.58,2.58,0,1,1,4.07,3.16l-14.55,18.75A2.56,2.56,0,0,1,180.54,227.24Z"/><path class="cls-1" d="M172.19,220a2.58,2.58,0,0,1-2.83-4.19l18.27-18.41a2.58,2.58,0,0,1,3.66,3.63L173,219.44A2.57,2.57,0,0,1,172.19,220Z"/><path class="cls-2" d="M221.37,148l-3.86,40a4.46,4.46,0,0,0,4.52,5h8.69a5.63,5.63,0,0,0,5.48-5l0-.39c.26-2.74-1.4-5-3.69-5s-4-2.24-3.69-5L231.71,148"/><path class="cls-1" d="M322.41,73.27h-7.19a2,2,0,0,1,0-4h7.19a2,2,0,0,1,0,4Z"/><path class="cls-1" d="M318.81,79.45a2,2,0,0,1-2-2V64.93a2,2,0,0,1,4,0V77.45A2,2,0,0,1,318.81,79.45Z"/><polygon class="cls-7" points="185.74 115.37 199.22 133 175.52 137.16 185.74 115.37"/><polygon class="cls-8" points="172.21 141.62 185.4 160.06 161.7 163.04 172.21 141.62"/><polygon class="cls-9" points="158.69 167.87 171.59 187.11 147.87 188.92 158.69 167.87"/><polygon class="cls-10" points="147.09 190.6 153.92 213.28 130.88 207.59 147.09 190.6"/><polygon class="cls-11" points="127.18 211.7 133.51 235.09 110.78 228.26 127.18 211.7"/><polygon class="cls-12" points="110.3 230.22 109.25 254.98 89.9 241.13 110.3 230.22"/><polygon class="cls-13" points="84.3 242.07 77.13 266.39 62.05 247.81 84.3 242.07"/><polygon class="cls-14" points="55.43 246.9 37.01 265.18 33.29 241.36 55.43 246.9"/><path class="cls-15" d="M188,101.42c1.38-1.61-65.85,203.48-177.2,123.68"/></svg>