<svg id="圖層_1" data-name="圖層 1" xmlns="http://www.w3.org/2000/svg" viewBox="0 0 492.63 305.98"><defs><style>.cls-1{fill:#ff9947;}.cls-10,.cls-13,.cls-14,.cls-16,.cls-17,.cls-2,.cls-5,.cls-9{fill:none;}.cls-10,.cls-11,.cls-14,.cls-2,.cls-6,.cls-9{stroke:#e0e0e0;}.cls-11,.cls-12,.cls-13,.cls-14,.cls-16,.cls-17,.cls-2,.cls-6,.cls-7,.cls-9{stroke-linecap:round;}.cls-10,.cls-11,.cls-12,.cls-13,.cls-14,.cls-16,.cls-17,.cls-2,.cls-5,.cls-6,.cls-7,.cls-9{stroke-miterlimit:10;}.cls-2{stroke-width:8.42px;}.cls-11,.cls-12,.cls-3,.cls-6,.cls-7{fill:#e0e0e0;}.cls-4{fill:#004864;}.cls-5{stroke:#004864;stroke-width:2.27px;}.cls-6{stroke-width:4.42px;}.cls-12,.cls-13,.cls-7{stroke:#ff665c;}.cls-7{stroke-width:11.23px;}.cls-8{fill:#00364b;}.cls-9{stroke-width:10.16px;}.cls-10{stroke-width:1.07px;}.cls-11,.cls-12{stroke-width:3.41px;}.cls-13,.cls-14,.cls-17{stroke-width:4px;}.cls-15{fill:#6bffba;}.cls-16,.cls-17{stroke:#6bffba;}.cls-16{stroke-width:3px;}</style></defs><title>Rethink Taiwan_Landing page animation 4</title><path class="cls-1" d="M250.31,204.76a11.93,11.93,0,0,1-5.78-8.75l-3.72-51.67a5.53,5.53,0,0,1,5.58-6h12.82a5.53,5.53,0,0,0,5.58-6l-.05-.71c-.24-3.3-2.68-6-5.44-6s-5.2-2.7-5.44-6l-.14-1.93a6.65,6.65,0,0,0-6.45-6.05l-2.82,0c-3.31,0-8.72-.05-12-.05H206.6a5.53,5.53,0,0,0-5.58,6l.05.71a6.42,6.42,0,0,0,6.13,6,6.42,6.42,0,0,1,6.13,6l2.4,33.34a5.52,5.52,0,0,1-5.58,6l-50.91-.08c-3.31,0-5.86,2.18-5.66,4.85s2.19,4.86,4.44,4.86,4.29,2.7,4.52,6l2.07,28.8a8,8,0,0,0,6.37,7l15.77,2.58c3.26.53,5.61-1.47,5.21-4.45s1.91-4.78,5.12-4l15.16,3.7c3.21.78,6,3.9,6.24,6.92s2.9,6.53,6,7.79l13.46,5.55a6.16,6.16,0,0,0,7.95-3.23l1.22-2.83a6.84,6.84,0,0,0-2.86-8.47l-11-6.2c-2.88-1.62-4.13-5.09-2.77-7.7s4.89-3.53,7.84-2l.2.1c2.95,1.5,5,3.82,4.48,5.17s1.62,3.48,4.68,4.75l8.61,3.58a6.06,6.06,0,0,0,7.88-3.23l.14-.33a6.63,6.63,0,0,0-3-8.3Z"/><polyline class="cls-2" points="226.99 113.93 204.8 92.14 207.78 78.32"/><path class="cls-2" d="M191.23,69.42S188.31,82,204.8,92.14"/><line class="cls-2" x1="223.32" y1="99.81" x2="222.03" y2="109.06"/><polyline class="cls-2" points="242.99 115.16 262.05 93.36 257.08 79.55"/><path class="cls-2" d="M272.34,70.65s4.73,12.59-10.3,22.72"/><line class="cls-2" x1="243.92" y1="99.5" x2="247.25" y2="110.29"/><path class="cls-3" d="M176.3,181.16a4,4,0,0,1-4,4.47,4.79,4.79,0,0,1-4.62-4.47,4,4,0,0,1,4-4.47A4.79,4.79,0,0,1,176.3,181.16Z"/><path class="cls-3" d="M189,191.23a4,4,0,0,1-4,4.47,4.79,4.79,0,0,1-4.62-4.47,4,4,0,0,1,4-4.47A4.79,4.79,0,0,1,189,191.23Z"/><path class="cls-3" d="M200.14,181.16a4,4,0,0,1-4,4.47,4.79,4.79,0,0,1-4.62-4.47,4,4,0,0,1,4-4.47A4.79,4.79,0,0,1,200.14,181.16Z"/><path class="cls-3" d="M212.15,190.11a4,4,0,0,1-4,4.47,4.79,4.79,0,0,1-4.62-4.47,4,4,0,0,1,4-4.47A4.79,4.79,0,0,1,212.15,190.11Z"/><path class="cls-3" d="M223.46,181.16a4,4,0,0,1-4,4.47,4.79,4.79,0,0,1-4.62-4.47,4,4,0,0,1,4-4.47A4.79,4.79,0,0,1,223.46,181.16Z"/><path class="cls-4" d="M369.8,186.43a7.05,7.05,0,0,1-6.94-6.43l-2.29-31.85a7.08,7.08,0,0,0-6.94-6.46h-5.41a6,6,0,0,0-6,6.46L347.1,216a7.08,7.08,0,0,0,6.94,6.46h41.84a5.81,5.81,0,0,0,5.88-6.45l-2.15-23.21a7.23,7.23,0,0,0-7.07-6.42Z"/><path class="cls-5" d="M369.8,186.43a7.05,7.05,0,0,1-6.94-6.43l-2.29-31.85a7.08,7.08,0,0,0-6.94-6.46h-5.41a6,6,0,0,0-6,6.46L347.1,216a7.08,7.08,0,0,0,6.94,6.46h41.84a5.81,5.81,0,0,0,5.88-6.45l-2.15-23.21a7.23,7.23,0,0,0-7.07-6.42Z"/><line class="cls-6" x1="342.53" y1="152.55" x2="337.47" y2="152.55"/><path class="cls-4" d="M395.76,191.07a29.86,29.86,0,0,1,0-5.56,39.37,39.37,0,0,1,.87-5.54,41,41,0,0,1,4.07-10.67,34.11,34.11,0,0,1,7.46-9.16,33.2,33.2,0,0,1,4.95-3.49c.9-.47,1.79-1,2.72-1.37l2.82-1.12,2.91-.8c1-.25,2-.37,2.95-.55a23.54,23.54,0,0,1,3-.29,22.21,22.21,0,0,1,2.95-.09l2.93.12c1,.09,1.92.25,2.87.38a47.54,47.54,0,0,1,5.6,1.18,58,58,0,0,1,19.78,10c-7.2-1.58-14.11-3.3-21-4l-2.55-.21c-.42,0-.85-.09-1.27-.12l-1.26,0-2.51-.06-2.48.11a24.39,24.39,0,0,0-2.44.22,17.44,17.44,0,0,0-2.39.36c-.78.17-1.59.26-2.35.49l-2.28.66a33,33,0,0,0-15.34,11.14A71.24,71.24,0,0,0,395.76,191.07Z"/><path class="cls-3" d="M395.76,191.07c-.07-1-.09-2.08-.12-3.15l1.28.27C396.55,189.13,396.19,190.09,395.76,191.07Z"/><path class="cls-3" d="M398,175.42c.39-1,.78-2,1.2-3L404,175.1c-.51.81-1.06,1.61-1.6,2.42Z"/><path class="cls-3" d="M406.7,161.48c.85-.75,1.7-1.51,2.57-2.26l4.42,6c-.71.55-1.44,1.08-2.17,1.61Z"/><path class="cls-3" d="M421.6,153.35c1.11-.21,2.23-.43,3.34-.62l1.15,7.57c-.88.21-1.77.38-2.66.56Z"/><path class="cls-3" d="M438.16,153.23c1.06.23,2.11.49,3.16.73L440.18,160c-1-.08-1.93-.14-2.89-.24Z"/><path class="cls-3" d="M453.14,158.65c.92.5,1.83,1,2.74,1.54l-1,2.44c-1-.21-2-.42-3-.65Z"/><path class="cls-4" d="M395.76,191.07a23.47,23.47,0,0,1,1.57-5.44,31.89,31.89,0,0,1,2.66-5.09,32.66,32.66,0,0,1,8-8.55,34.13,34.13,0,0,1,10.74-5.29,40.81,40.81,0,0,1,11.83-1.57,56.48,56.48,0,0,1,22.36,5.44A71.5,71.5,0,0,1,471.56,183c-7.12-2.31-13.91-4.8-20.74-6.71a82.2,82.2,0,0,0-20.36-3.41,39.88,39.88,0,0,0-19.18,4.23,39.27,39.27,0,0,0-8.37,5.85A47.56,47.56,0,0,0,395.76,191.07Z"/><path class="cls-3" d="M395.76,191.07a20.08,20.08,0,0,1,.71-3.08l1.14.6C397,189.39,396.36,190.21,395.76,191.07Z"/><path class="cls-3" d="M402.78,176.83c.75-.79,1.5-1.6,2.28-2.38l3.39,4.29c-.76.55-1.56,1.07-2.35,1.62Z"/><polygon class="cls-3" points="416.4 167.45 419.6 166.42 421.29 173.65 418.61 174.26 416.4 167.45"/><polygon class="cls-3" points="432.84 165.22 436.11 165.53 435.22 173.16 432.39 172.94 432.84 165.22"/><path class="cls-3" d="M448.62,168.74q1.49.58,3,1.2l-2.1,6q-1.44-.35-2.86-.73Z"/><path class="cls-3" d="M462.64,176c.86.6,1.72,1.18,2.57,1.79l-1.38,2.65c-1-.31-1.93-.65-2.89-1Z"/><path class="cls-4" d="M395.76,191.07a6.35,6.35,0,0,1,1.33-2.48,12.07,12.07,0,0,1,1-1.05,14,14,0,0,1,1-1,26.12,26.12,0,0,1,4.68-3.21,40.14,40.14,0,0,1,10.67-3.84A52.42,52.42,0,0,1,437,180a61.76,61.76,0,0,1,10.68,3.55,65.42,65.42,0,0,1,9.82,5.26,66.53,66.53,0,0,1,16.28,14.68c-6.55-3.26-12.81-6.53-19.18-9.3-.79-.36-1.58-.71-2.39-1l-2.39-1-2.41-.9c-.8-.32-1.6-.61-2.41-.87l-2.42-.83-2.44-.73c-.8-.27-1.63-.45-2.44-.68l-1.22-.33-1.23-.27a73,73,0,0,0-20-2,56.89,56.89,0,0,0-10.08,1.34,37.8,37.8,0,0,0-4.93,1.5,16.17,16.17,0,0,0-2.36,1.09A6.75,6.75,0,0,0,395.76,191.07Z"/><path class="cls-3" d="M395.76,191.07a4.35,4.35,0,0,1,.62-1.48,9.83,9.83,0,0,1,1-1.32l.83,1A7.41,7.41,0,0,0,395.76,191.07Z"/><path class="cls-3" d="M408.19,181.32c1-.35,2-.7,3.08-1l1.06,5.44c-1,.13-1.91.23-2.88.34Z"/><path class="cls-3" d="M424.12,178.51c1.08,0,2.16,0,3.25.08l-.66,7.43c-1-.08-1.9-.2-2.86-.3Z"/><path class="cls-3" d="M440.11,180.82c1,.32,2.05.63,3.07,1l-2.36,7.26c-.94-.25-1.86-.53-2.79-.8Z"/><polygon class="cls-3" points="454.78 187.14 457.48 188.8 454.58 194.18 451.85 193.02 454.78 187.14"/><path class="cls-3" d="M467.4,196.56c.76.72,1.49,1.47,2.23,2.2l-1.44,1.95c-.91-.46-1.83-.91-2.73-1.38Z"/><line class="cls-7" x1="351.11" y1="151.67" x2="347.39" y2="152"/><path class="cls-8" d="M26.59,269.66a7.63,7.63,0,0,0,7.68-8.08L29.1,160.65C27.85,136.28,46,116.53,69.61,116.53H102.4a7.63,7.63,0,0,0,7.68-8.08l-.35-6.77a7.63,7.63,0,0,1,7.68-8.08h.3c4.45,0,8.21,2.26,8.35,5a5.32,5.32,0,0,0,5.19,5,4.7,4.7,0,0,0,4.68-5c-.14-2.77,2.84-5,6.62-5s7,2.26,7.13,5,2,5,4.16,5,4.09,3.64,4.31,8.08l.48,9.33a8.63,8.63,0,0,0,8.51,8.08h.3a8.63,8.63,0,0,1,8.51,8.08l.48,9.33a7.63,7.63,0,0,1-7.68,8.08H149.61a7.63,7.63,0,0,0-7.68,8.08L144,203.07c.23,4.44,2.9,8.08,5.95,8.08s5.72,3.64,5.95,8.08l.63,12.25a8.63,8.63,0,0,0,8.51,8.08h6.84a8.63,8.63,0,0,1,8.51,8.08l.15,3a7.67,7.67,0,0,1-7.68,8.12l-21.5.1a7.66,7.66,0,0,0-7.68,8.1,8.58,8.58,0,0,0,8.41,8.06,8.58,8.58,0,0,1,8.41,8.08l.2,3.94a7.63,7.63,0,0,1-7.68,8.08H27.59a8.63,8.63,0,0,1-8.51-8.08l-.48-9.33a7.63,7.63,0,0,1,7.68-8.08Z"/><polyline class="cls-9" points="101.94 168.69 123.71 176.35 135.93 164.56"/><path class="cls-3" d="M110.87,247.1a2.9,2.9,0,0,1,2.57,3.13c0,1.72,1.92,3.13,4.27,3.13h2.48a4.28,4.28,0,0,0,4.27-4.27v-6.36a4.28,4.28,0,0,1,4.27-4.27H129a4.28,4.28,0,0,1,4.27,4.27v20.07a4.28,4.28,0,0,1-4.27,4.27H112.58a4.28,4.28,0,0,1-4.27-4.27V251.36C108.31,249,109.46,247.1,110.87,247.1Z"/><path class="cls-10" d="M110.87,247.1a2.9,2.9,0,0,1,2.57,3.13c0,1.72,1.92,3.13,4.27,3.13h2.48a4.28,4.28,0,0,0,4.27-4.27v-6.36a4.28,4.28,0,0,1,4.27-4.27H129a4.28,4.28,0,0,1,4.27,4.27v20.07a4.28,4.28,0,0,1-4.27,4.27H112.58a4.28,4.28,0,0,1-4.27-4.27V251.36C108.31,249,109.46,247.1,110.87,247.1Z"/><line class="cls-11" x1="117.59" y1="262.25" x2="117.59" y2="275.26"/><line class="cls-11" x1="123.17" y1="262.25" x2="123.17" y2="275.26"/><line class="cls-12" x1="132.74" y1="246.24" x2="134.98" y2="246.24"/><path class="cls-3" d="M89.2,91.45a2.9,2.9,0,0,0-2.57,3.13c0,1.72-1.92,3.13-4.27,3.13H79.89a4.28,4.28,0,0,1-4.27-4.27V87.08a4.28,4.28,0,0,0-4.27-4.27h-.29a4.28,4.28,0,0,0-4.27,4.27v20.07a4.28,4.28,0,0,0,4.27,4.27H87.5a4.28,4.28,0,0,0,4.27-4.27V95.72C91.77,93.37,90.61,91.45,89.2,91.45Z"/><path class="cls-10" d="M89.2,91.45a2.9,2.9,0,0,0-2.57,3.13c0,1.72-1.92,3.13-4.27,3.13H79.89a4.28,4.28,0,0,1-4.27-4.27V87.08a4.28,4.28,0,0,0-4.27-4.27h-.29a4.28,4.28,0,0,0-4.27,4.27v20.07a4.28,4.28,0,0,0,4.27,4.27H87.5a4.28,4.28,0,0,0,4.27-4.27V95.72C91.77,93.37,90.61,91.45,89.2,91.45Z"/><line class="cls-11" x1="82.49" y1="106.6" x2="82.49" y2="119.61"/><line class="cls-11" x1="76.91" y1="106.6" x2="76.91" y2="119.61"/><line class="cls-12" x1="77.81" y1="90.6" x2="75.57" y2="90.6"/><path class="cls-3" d="M101.42,35.35c0-1.65,2.25-3,5-3h1c2.75,0,5-1.53,5-3.39s2.25-3.39,5-3.39h14.17c2.75,0,5.1.72,5.23,1.61s2.48,1.57,5.23,1.51l1,0a4.89,4.89,0,0,1,5,4.9v.21c0,2.75-1.86,5-4.14,5.06s-4.18,2.31-4.22,5.06l-.17,10.89a5,5,0,0,1-5.08,4.86l-1.17,0c0,2.14-.13-13.47-.13-13.47,0-2.75-1.73-5-3.79-5H128.1l0,20A8.18,8.18,0,0,1,120,53.56l-.28-3.46c-.22-2.74-2.34-5-4.72-5s-4.32-1.55-4.32-3.44-2.08-3.41-4.62-3.38S101.42,37,101.42,35.35Z"/><line class="cls-13" x1="150.1" y1="35.71" x2="145.19" y2="35.81"/><line class="cls-14" x1="116.72" y1="39.26" x2="105.64" y2="46.26"/><line class="cls-14" x1="125.34" y1="39.13" x2="110.38" y2="50.13"/><rect class="cls-15" x="413.01" y="228.06" width="15.19" height="9.2" rx="1.48" ry="1.48"/><polyline class="cls-16" points="412.31 234.91 412.31 241.22 408.35 241.35"/><polyline class="cls-16" points="429.43 235.04 429.43 241.35 434.64 241.35"/><line class="cls-17" x1="416.14" y1="226.12" x2="416.14" y2="232.25"/><line class="cls-17" x1="424.6" y1="226.12" x2="424.6" y2="232.25"/><line class="cls-16" x1="418.39" y1="236.11" x2="418.39" y2="241.35"/><line class="cls-16" x1="422.48" y1="236.11" x2="422.48" y2="241.35"/></svg>