<svg id="圖層_1" data-name="圖層 1" xmlns="http://www.w3.org/2000/svg" xmlns:xlink="http://www.w3.org/1999/xlink" viewBox="0 0 222.85 225"><defs><style>.cls-1,.cls-10,.cls-6,.cls-7,.cls-8{fill:none;}.cls-2{fill:#00364b;}.cls-2,.cls-6,.cls-8{stroke:#00364b;}.cls-10,.cls-2,.cls-4,.cls-5,.cls-6,.cls-7,.cls-8{stroke-linecap:round;}.cls-2,.cls-4,.cls-5,.cls-7,.cls-8{stroke-linejoin:round;}.cls-2,.cls-8{stroke-width:9.42px;}.cls-3,.cls-4,.cls-5{fill:#ffcd32;}.cls-4,.cls-5{stroke:#006464;}.cls-4{stroke-width:1.56px;}.cls-5{stroke-width:2.34px;}.cls-10,.cls-6{stroke-miterlimit:10;}.cls-6{stroke-width:5.74px;}.cls-10,.cls-7{stroke:#6bffba;}.cls-7{stroke-width:5px;}.cls-9{clip-path:url(#clip-path);}.cls-10{stroke-width:6px;}.cls-11{clip-path:url(#clip-path-2);}.cls-12{clip-path:url(#clip-path-3);}</style><clipPath id="clip-path"><polygon class="cls-1" points="61.04 87.12 25.16 85.61 25.16 116 61.04 117.5 61.04 87.12"/></clipPath><clipPath id="clip-path-2"><polygon class="cls-1" points="66.24 70.19 32.91 60.8 25.32 90.23 58.66 99.62 66.24 70.19"/></clipPath><clipPath id="clip-path-3"><polygon class="cls-1" points="57.16 104.17 23.44 115.71 33.21 144.48 66.93 132.94 57.16 104.17"/></clipPath></defs><title>Rethink Taiwan_Landing page animation 4</title><path class="cls-2" d="M149.61,118.13s7.3,28.71,39.3,55.93l-59.54,3.79-8.65-59.35Z"/><path class="cls-3" d="M84.56,108.82a5.55,5.55,0,0,1-5-5.28,4.9,4.9,0,0,0-5-4.77h-.35a5,5,0,0,0-5,5v9.88a5.5,5.5,0,0,0,5,5.38l31.52,2.42a5.5,5.5,0,0,1,5,5.38v27.91a5,5,0,0,1-5,5h-3.5a5.3,5.3,0,0,0-5.23,5l-1.77,38.74a5.13,5.13,0,0,1-4.89,5,4.85,4.85,0,0,0-4.66,5v.35a5,5,0,0,0,5,5h9.66a5.29,5.29,0,0,0,5.22-5l1.74-38.74a5.29,5.29,0,0,1,5.22-5h15.94a4.53,4.53,0,0,1,4.58,5l-1.37,16.2a5.51,5.51,0,0,1-5.34,5,5,5,0,0,0-4.92,5v.35a5,5,0,0,0,5,5h10.18a5.39,5.39,0,0,0,5.3-5l1.63-27.52c.16-2.75.3-7.24.3-10V127.42a5,5,0,0,1,5-5h9.8a5,5,0,0,1,5,5l0,3.65a4.94,4.94,0,0,1-4.54,5.08,4.85,4.85,0,0,0-4.5,5,5,5,0,0,0,5,5l9.1.08a5,5,0,0,0,5-5V116.49a5,5,0,0,0-5-5H115.68c-2.75,0-7.24-.23-10-.51Z"/><path class="cls-3" d="M116.84,67.58c3.57-5.68,9.27-5.59,12.65.21l15.59,26.68c3.39,5.79.67,10.53-6,10.53H105.49c-6.71,0-9.28-4.65-5.7-10.33Z"/><path class="cls-3" d="M130.6,69.68c-7.81-.45-15.22,5.8-18.66,9.09-.76.73-1.81.11-1.89-.93-.3-3.89,0-8.94,3.69-12.48C122.27,57.25,129.28,65.61,130.6,69.68Z"/><path class="cls-4" d="M128.16,69.94s-1.77-6-7.4-4c-5.19,1.85-4,9.54-4,9.54"/><path class="cls-4" d="M114.24,69.18s-1.86,3.59-.54,7"/><polyline class="cls-5" points="126.12 82.69 133.81 80.35 136.04 81.13"/><polyline class="cls-5" points="119 82.69 111.31 80.35 109.07 81.13"/><path class="cls-4" d="M129.07,86.71s2.08-1.88,6.1-1.1"/><path class="cls-4" d="M116.79,86.71s-2.08-1.88-6.1-1.1"/><polyline class="cls-4" points="119.26 94.24 122.66 95.6 122.66 86.06"/><line class="cls-4" x1="122.66" y1="95.6" x2="125.69" y2="94.37"/><polyline class="cls-4" points="112.39 99.33 115.12 100.11 122.41 98.75 130.32 100.11 132.82 99.43"/><line class="cls-6" x1="109.07" y1="154.39" x2="143.83" y2="154.39"/><line class="cls-6" x1="136.04" y1="158.56" x2="136.04" y2="149.13"/><line class="cls-6" x1="112.39" y1="158.56" x2="112.39" y2="149.13"/><line class="cls-7" x1="177.76" y1="142.31" x2="202.9" y2="145.96"/><polyline class="cls-8" points="145.02 110.62 120.72 114.12 110.69 111.49"/><line class="cls-7" x1="102.51" y1="131.68" x2="149.47" y2="139.15"/><g class="cls-9"><path class="cls-10" d="M28.51,102.3s-5.81,6.54-12.33-.28-12.66-.28-12.66-.28"/><path class="cls-10" d="M78.5,103.41s-5.81,6.54-12.33-.28-12.66-.28-12.66-.28"/><path class="cls-10" d="M103.49,104s-5.81,6.54-12.33-.28-12.66-.28-12.66-.28"/><path class="cls-10" d="M53.5,102.85s-5.81,6.54-12.33-.28-12.66-.28-12.66-.28"/></g><g class="cls-11"><path class="cls-10" d="M31.6,75.51s-7.26,4.88-11.87-3.34S7.53,68.74,7.53,68.74"/><path class="cls-10" d="M79.72,89.07S72.46,94,67.85,85.73s-12.19-3.43-12.19-3.43"/><path class="cls-10" d="M103.79,95.85s-7.26,4.88-11.87-3.34-12.19-3.43-12.19-3.43"/><path class="cls-10" d="M55.66,82.29s-7.26,4.88-11.87-3.34S31.6,75.51,31.6,75.51"/></g><g class="cls-12"><path class="cls-10" d="M33.59,128.89s-3.4,8.06-11.76,3.7-12.08,3.8-12.08,3.8"/><path class="cls-10" d="M81.28,113.88s-3.4,8.06-11.76,3.7-12.08,3.8-12.08,3.8"/><path class="cls-10" d="M105.13,106.38s-3.4,8.06-11.76,3.7-12.08,3.8-12.08,3.8"/><path class="cls-10" d="M57.44,121.39s-3.4,8.06-11.76,3.7-12.08,3.8-12.08,3.8"/></g></svg>