<svg id="圖層_1" data-name="圖層 1" xmlns="http://www.w3.org/2000/svg" viewBox="0 0 128.28 224.5"><defs><style>.cls-1{fill:#ffcd32;}.cls-10,.cls-11,.cls-2,.cls-3,.cls-4,.cls-5,.cls-7,.cls-8,.cls-9{fill:none;}.cls-2,.cls-3,.cls-4,.cls-5{stroke:#006464;}.cls-10,.cls-11,.cls-2,.cls-3,.cls-4,.cls-5,.cls-7,.cls-9{stroke-linecap:round;}.cls-10,.cls-2,.cls-3,.cls-4,.cls-5{stroke-linejoin:round;}.cls-2{stroke-width:1.52px;}.cls-3{stroke-width:1.39px;}.cls-4{stroke-width:1.41px;}.cls-5{stroke-width:3.04px;}.cls-6{fill:#fff;}.cls-7,.cls-8{stroke:#fff;}.cls-7{stroke-width:12.99px;}.cls-8{stroke-miterlimit:10;stroke-width:2px;}.cls-10,.cls-11,.cls-9{stroke:#ff665c;}.cls-10,.cls-9{stroke-width:6px;}.cls-11{stroke-width:4px;}</style></defs><title>Rethink Taiwan_Landing page animation 4</title><path class="cls-1" d="M63.75,68.07c3.48-5.54,9-5.45,12.34.2l15.2,26c3.3,5.65.65,10.27-5.89,10.27H52.68c-6.54,0-9-4.53-5.56-10.07Z"/><path class="cls-2" d="M70.28,81.28s-6.15-5.19-6.07-11.45"/><path class="cls-2" d="M73.74,81.28S70.23,78.2,69.12,75"/><path class="cls-2" d="M76.78,81.28A20.45,20.45,0,0,1,72.64,75"/><path class="cls-2" d="M80,81.28A20.45,20.45,0,0,1,75.83,75"/><path class="cls-2" d="M65.06,80.63a7.06,7.06,0,0,0-4.39-1.32c-2.85,0-3.83,1.32-3.83,1.32"/><path class="cls-3" d="M63.78,87.19s-2.39-2.85-5-2.66-3.62,1.28-3.62,1.28"/><path class="cls-4" d="M72.47,87.19s2.53-3,5.27-2.76a4.45,4.45,0,0,1,3.71,2.07"/><polygon class="cls-2" points="64.94 98.58 68.64 102.13 72.21 98.63 68.64 97 64.94 98.58"/><line class="cls-2" x1="67.23" y1="86.05" x2="67.84" y2="92.95"/><line class="cls-5" x1="78.54" y1="86.96" x2="79.4" y2="86.05"/><line class="cls-5" x1="60.09" y1="87.07" x2="61.24" y2="86.23"/><path class="cls-1" d="M54.09,158.55a81.64,81.64,0,0,1,1-11.91L58.8,126c.58-3.25-1.6-5.41-4.85-4.81l-27.26,5.06c-3.24.6-6.27-1-6.72-3.53s1.84-5.1,5.09-5.67l30.27-5.37a83.62,83.62,0,0,1,11.91-1.06L91,110.57a7.1,7.1,0,0,1,6.83,5.93l3.7,26.44c.46,3.27-1.09,6.24-3.43,6.6s-4.69-2-5.21-5.26l-3-18.4c-.52-3.26-2.83-5.42-5.13-4.8s-3.79,3.8-3.32,7.07l2.84,19.55a99.26,99.26,0,0,1,.85,11.94l-.1,51.46a5.9,5.9,0,0,1-6,5.89L73,216.88c-3.3-.06-6-2.51-6-5.44s1.88-5.32,4.19-5.3,4.19-2.66,4.19-6v-35a5.78,5.78,0,1,0-11.56,0v45.15a6,6,0,0,1-6,6H51.42c-3.3,0-6-2.18-6-4.85a4.64,4.64,0,0,1,4.37-4.85c2.4,0,4.36-2.7,4.36-6Z"/><polygon class="cls-6" points="61.23 72.16 78.59 71.83 78.23 61.68 61.02 61.88 61.23 72.16"/><line class="cls-7" x1="58.89" y1="62.76" x2="78.59" y2="57.81"/><circle class="cls-1" cx="92.2" cy="73.89" r="6.08"/><path class="cls-8" d="M23.3,111.44s-.2-31-12-24.86c-12.66,6.57,12,24.86,12,24.86"/><path class="cls-8" d="M23.3,111.44s-6.55-28.07-12-24.86,12,24.86,12,24.86"/><line class="cls-9" x1="23.3" y1="111.44" x2="29.02" y2="123.33"/><path class="cls-10" d="M79.59,110.56s-5.21,2.81-8.34,2.81-8.34-2.81-8.34-2.81"/><line class="cls-11" x1="72.23" y1="116.73" x2="75.18" y2="120.09"/><line class="cls-11" x1="69.48" y1="116.73" x2="66.03" y2="120.09"/></svg>