<svg id="圖層_1" data-name="圖層 1" xmlns="http://www.w3.org/2000/svg" xmlns:xlink="http://www.w3.org/1999/xlink" viewBox="0 0 764.8 498.05"><defs><style>.cls-1,.cls-10,.cls-11,.cls-12,.cls-5,.cls-7{fill:none;}.cls-2{fill:#ff9947;}.cls-3{fill:#004864;}.cls-3,.cls-4{stroke:#3c9195;}.cls-10,.cls-11,.cls-12,.cls-3,.cls-4,.cls-5,.cls-6,.cls-7{stroke-linecap:round;}.cls-3,.cls-4,.cls-5,.cls-6{stroke-linejoin:round;stroke-width:6px;}.cls-4{fill:#006464;}.cls-5,.cls-6{stroke:#00364b;}.cls-6,.cls-8{fill:#00364b;}.cls-10,.cls-11,.cls-12,.cls-7{stroke:#006464;stroke-miterlimit:10;}.cls-7{stroke-width:2.18px;stroke-dasharray:9.82 5.46;}.cls-9{fill:url(#_10_dpi_40_);}.cls-10,.cls-11,.cls-12{stroke-width:2px;}.cls-10{stroke-dasharray:9 5;}.cls-11{stroke-dasharray:9.35 5.19;}.cls-12{stroke-dasharray:9.69 5.38;}.cls-13{fill:url(#_10_dpi_40_3);}</style><pattern id="_10_dpi_40_" data-name="10 dpi 40%" width="60" height="61" patternTransform="translate(26.25 864.45)" patternUnits="userSpaceOnUse" viewBox="0 0 60 61"><rect class="cls-1" width="60" height="61"/><circle class="cls-2" cx="56.23" cy="56.73" r="4.22"/><circle class="cls-2" cx="26.06" cy="56.73" r="4.22"/><circle class="cls-2" cx="56.23" cy="26.56" r="4.22"/><circle class="cls-2" cx="26.06" cy="26.56" r="4.22"/><circle class="cls-2" cx="10.97" cy="41.64" r="4.22"/><circle class="cls-2" cx="41.14" cy="41.64" r="4.22"/><circle class="cls-2" cx="10.97" cy="11.47" r="4.22"/><circle class="cls-2" cx="41.14" cy="11.47" r="4.22"/><circle class="cls-2" cx="-3.77" cy="56.73" r="4.22"/><circle class="cls-2" cx="-3.77" cy="26.56" r="4.22"/></pattern><pattern id="_10_dpi_40_3" data-name="10 dpi 40%" width="60" height="61" patternTransform="translate(22.68 864.45)" patternUnits="userSpaceOnUse" viewBox="0 0 60 61"><rect class="cls-1" width="60" height="61"/><circle class="cls-2" cx="56.23" cy="56.73" r="4.22"/><circle class="cls-2" cx="26.06" cy="56.73" r="4.22"/><circle class="cls-2" cx="56.23" cy="26.56" r="4.22"/><circle class="cls-2" cx="26.06" cy="26.56" r="4.22"/><circle class="cls-2" cx="10.97" cy="41.64" r="4.22"/><circle class="cls-2" cx="41.14" cy="41.64" r="4.22"/><circle class="cls-2" cx="10.97" cy="11.47" r="4.22"/><circle class="cls-2" cx="41.14" cy="11.47" r="4.22"/><circle class="cls-2" cx="-3.77" cy="56.73" r="4.22"/><circle class="cls-2" cx="-3.77" cy="26.56" r="4.22"/></pattern></defs><title>Rethink Taiwan_Landing page animation 4</title><polygon class="cls-3" points="245.24 147.65 130.09 373.11 130.09 475.77 616.85 475.77 732 250.32 732 147.65 245.24 147.65"/><polygon class="cls-4" points="732 147.65 244.83 147.65 260.14 25.68 747.31 25.68 732 147.65"/><polyline class="cls-5" points="130.09 475.77 245.24 250.32 245.24 250.32 732 250.32"/><polygon class="cls-6" points="245.24 147.65 245.24 250.32 130.09 475.77 130.09 373.11 245.24 147.65"/><ellipse class="cls-2" cx="420.26" cy="328.34" rx="195.31" ry="86.22" transform="translate(-9.09 11.97) rotate(-1.61)"/><ellipse class="cls-7" cx="420.79" cy="326.8" rx="178.45" ry="77.46" transform="translate(-6.8 8.95) rotate(-1.21)"/><ellipse class="cls-7" cx="420.3" cy="323.64" rx="151.69" ry="65.77" transform="translate(-6.74 8.94) rotate(-1.21)"/><ellipse class="cls-7" cx="419.81" cy="320.49" rx="124.94" ry="54.07" transform="translate(-6.67 8.93) rotate(-1.21)"/><path class="cls-2" d="M525,293.74c2.5,16.94,1,29.73-9.6,39.77-22.18,20.93-38.81,25.8-89.33,27.08-60.08,1.53-81.35-8.34-94-17-3.56-2.43-19.47-13.26-19-33.69l2.14-54.51A56.32,56.32,0,0,1,341,209.76c16.47-10.77,37.83-17.53,54.69-18.23L433.19,190a125.71,125.71,0,0,1,48.23,8.2,56.76,56.76,0,0,1,36.14,45.91S522.5,276.8,525,293.74Z"/><path class="cls-8" d="M523.28,282.11a32,32,0,0,1-8.86,14c-22.18,20.93-46.46,30.95-89.2,32.08-49.76,1.32-81.48-13.34-94.15-22-2.73-1.86-12.73-8.68-17-21l-1,24.65c-.51,20.43,15.4,31.26,19,33.69,12.67,8.63,34.54,22.09,94.63,20.56,50.52-1.29,66.55-9.74,88.72-30.67,10.64-10,12.11-22.83,9.6-39.77C524.51,290.36,523.91,286.35,523.28,282.11Z"/><path class="cls-9" d="M523.28,282.11a32,32,0,0,1-8.86,14c-22.18,20.93-46.46,30.95-89.2,32.08-49.76,1.32-81.48-13.34-94.15-22-2.73-1.86-12.73-8.68-17-21l-1,24.65c-.51,20.43,15.4,31.26,19,33.69,12.67,8.63,34.54,22.09,94.63,20.56,50.52-1.29,66.55-9.74,88.72-30.67,10.64-10,12.11-22.83,9.6-39.77C524.51,290.36,523.91,286.35,523.28,282.11Z"/><ellipse class="cls-10" cx="418.55" cy="225.55" rx="82.83" ry="29.91" transform="translate(-5.81 11.14) rotate(-1.51)"/><ellipse class="cls-11" cx="418.53" cy="224.49" rx="66.29" ry="21.46" transform="translate(-5.79 11.14) rotate(-1.51)"/><ellipse class="cls-12" cx="418.5" cy="223.44" rx="49.76" ry="13" transform="translate(-5.76 11.14) rotate(-1.51)"/><path class="cls-7" d="M521.86,271.91C514.41,296.15,474.78,319,421,318.39c-45.29-.55-89.95-12.12-106.17-41"/><rect class="cls-4" x="130.09" y="373.11" width="487.17" height="102.67"/><polygon class="cls-4" points="245.24 147.65 132.64 92.59 17.49 318.05 130.09 373.11 245.24 147.65"/><polygon class="cls-4" points="532.1 455.63 44.94 455.63 130.09 373.11 617.25 373.11 532.1 455.63"/><polygon class="cls-8" points="553.52 22.28 513.34 137.96 513.34 220.5 557.16 238.13 557.16 141.32 597.7 22.28 553.52 22.28"/><polygon class="cls-13" points="553.52 22.28 513.34 137.96 513.34 220.5 557.16 238.13 557.16 141.32 597.7 22.28 553.52 22.28"/></svg>