<svg id="圖層_1" data-name="圖層 1" xmlns="http://www.w3.org/2000/svg" viewBox="0 0 194.25 132.94"><defs><style>.cls-1{fill:#ff9947;}.cls-2{fill:#004864;}.cls-3{fill:#6bffba;}</style></defs><title>Rethink Taiwan_Landing page animation 4</title><rect class="cls-1" x="5.74" y="23.92" width="182.76" height="79.81" rx="39.9" ry="39.9"/><path class="cls-2" d="M69.72,59.07a16.12,16.12,0,0,0,5.63,5.34,12.22,12.22,0,0,0-2.28,2.71A17.79,17.79,0,0,1,67.74,61v7.59H64.35V61.06a18.32,18.32,0,0,1-6.42,6.28,13.75,13.75,0,0,0-2.31-2.74,16.32,16.32,0,0,0,6.51-5.52H58.75V48.74h5.6V46.93H57.73v-2c-.7,2.28-1.49,4.87-2.19,6.8a9,9,0,0,1,2.13,5.87c0,1.87-.38,3.09-1.29,3.74a4.17,4.17,0,0,1-1.69.61,12.36,12.36,0,0,1-1.87.06A7.37,7.37,0,0,0,52.07,59c.53,0,.93,0,1.28,0a1.51,1.51,0,0,0,.82-.26c.32-.23.44-.82.44-1.63a7.82,7.82,0,0,0-2-5.11c.58-1.84,1.2-4.38,1.66-6.36H52V68.59H49v-26H55.3l.5-.15,2.28,1.31L58,44h6.36V41.35h3.39V44h6.83v2.92H67.74v1.81h5.84V59.07Zm-7.94-6.3h2.57V51.19H61.78Zm0,3.85h2.57V55H61.78Zm6-5.43v1.58H70.4V51.19ZM70.4,55H67.74v1.58H70.4Z"/><path class="cls-2" d="M92.17,62.31l2.77,2.19a51.36,51.36,0,0,1-9.69,4.06A18.13,18.13,0,0,0,83,66a39.26,39.26,0,0,0,8.9-3.68H83.38V59.13h4.93V47.42H84.26V44.24h4.06V41.41h3.45v2.83H101V41.41h3.53v2.83h4.26v3.18h-4.26V59.13h5v3.18Zm-.41-14.89v1.81H101V47.42Zm0,6.66H101v-2H91.76Zm0,5H101V57H91.76Zm8.61,3.39a84.23,84.23,0,0,1,9.25,3.79l-3.33,2.19a55.78,55.78,0,0,0-8.41-3.85Z"/><path class="cls-2" d="M143.83,62.87c-1.55.61-3.12,1.25-4.58,1.72a23.89,23.89,0,0,0,6,1.2,11.07,11.07,0,0,0-1.78,2.74c-6.07-.82-9.84-3-12.08-7h-2.63V65l4.41-.85a20.85,20.85,0,0,0,0,2.69c-6.25,1.37-7.27,1.58-7.85,1.93a9.09,9.09,0,0,0-1-2.71,2.07,2.07,0,0,0,1.2-2.07V61.52h-1.87a15.83,15.83,0,0,1-2.8,7.12,16.17,16.17,0,0,0-2.92-1.78c2.54-3.12,2.83-7.5,2.83-10.54V52.56h23.09V55H124v.9h18.65v2.16H124c0,.32-.06.64-.06,1h20.64v2.45h-2.33Zm-1.17-11.21H120.94V43.1h5.9V41.32h3.39V43.1H133V41.32h3.42V43.1h6.22Zm-18.54-5.28h2.71V45.21h-2.71Zm0,3.15h2.71V48.36h-2.71Zm6.1-4.32v1.17H133V45.21Zm0,3.15v1.17H133V48.36Zm4.41,13.16a7.24,7.24,0,0,0,1.93,1.69,28.48,28.48,0,0,0,3.59-1.69Zm4.7-16.32h-2.89v1.17h2.89Zm0,3.15h-2.89v1.17h2.89Z"/><path class="cls-2" d="M67.91,79.72a10.15,10.15,0,0,1-2.67,3.67,12.41,12.41,0,0,0,3.3,1.1A6.18,6.18,0,0,0,68,86.21a13.92,13.92,0,0,1-4.14-1.75,14.19,14.19,0,0,1-3.56,1.69h7v5.71H65.46V91.1H61.73v.81H60V86.22l-.46.14a6,6,0,0,0-.53-1l-.35.44c-.18-.37-.49-.94-.81-1.49V92H56.14v-6a13.41,13.41,0,0,1-1.34,3.21A9.38,9.38,0,0,0,54,87.3a15,15,0,0,0,2-5H54.29V80.59h1.84V77.76h1.72v2.83h1.37v.84a9.38,9.38,0,0,0,2.54-3.81l1.57.44c-.14.33-.29.7-.46,1.05h3.56l.32-.06Zm-5.53,3.64A11.07,11.07,0,0,1,61.1,82a7.68,7.68,0,0,1-.88,1,12.65,12.65,0,0,0-1-1.43v.78H57.89a26.59,26.59,0,0,1,1.84,2.19A13.81,13.81,0,0,0,62.38,83.36Zm-.66,4.36v1.8h3.73v-1.8Zm.41-7a7,7,0,0,0,1.61,1.75,7.52,7.52,0,0,0,1.66-1.75Z"/><path class="cls-2" d="M79,79.9l1.29.37c-.7,6.17-2.92,9.91-6.3,11.68a8,8,0,0,0-1.52-1.52,8.78,8.78,0,0,0,4.11-3.87c-.5-.64-1.25-1.43-2-2.16a10.24,10.24,0,0,1-.76,1.16,15.24,15.24,0,0,0-1.52-1.16A14.44,14.44,0,0,0,75,77.74l1.83.32c-.14.65-.29,1.28-.46,1.9h2.25Zm-3.17,1.78c-.14.4-.27.76-.43,1.13.61.59,1.37,1.29,2,1.93a16.65,16.65,0,0,0,.76-3.06ZM85.26,87a28.55,28.55,0,0,0-2.45-2.85V92H80.89V77.76h1.92v5.06l.67-.49c1.05,1,2.59,2.53,3.32,3.46Z"/><path class="cls-2" d="M96.42,81.29a10,10,0,0,1-.61,1.2h7.08V90c0,.9-.17,1.39-.79,1.66a6.7,6.7,0,0,1-2.7.3,7.52,7.52,0,0,0-.55-1.75c.78,0,1.66,0,1.92,0s.35-.09.35-.3v-.91H95.4a5.32,5.32,0,0,1-1.69,3A6.31,6.31,0,0,0,92.4,90.7c1.31-1.14,1.42-2.77,1.42-4.19V85.28a12.34,12.34,0,0,1-1.89,1.66,10.56,10.56,0,0,0-1.19-1.4,11.53,11.53,0,0,0,3.65-4.25h-3.3V79.58h4.08a18.57,18.57,0,0,0,.61-1.84l1.87.43c-.15.47-.32.94-.49,1.42h7.43v1.71Zm4.71,6.26v-1H95.66c0,.32,0,.64,0,1Zm0-3.46H95.66v1h5.47Z"/><path class="cls-2" d="M109.1,90.71A7.52,7.52,0,0,0,111,88.13l1.51.67a9.46,9.46,0,0,1-1.89,2.8Zm13.6-8.24H109.53v-1.4h3.18a6,6,0,0,0-.3-.84l1.14-.23h-3.27v-1.4h4.93c-.08-.24-.17-.5-.26-.72l1.77-.32a6.92,6.92,0,0,1,.44,1h4.74V80h-3.12l1.22.21c-.18.3-.33.59-.49.85h3.2Zm-1.65,5.19H116.4a11.83,11.83,0,0,1,1.6,1l-1.11,1.11a10.61,10.61,0,0,0-2.39-1.51l.62-.61h-3.87V83h9.81Zm-3.53,2.7c.56,0,.65-.17.73-1.23a5.27,5.27,0,0,0,1.54.56c-.2,1.69-.69,2.12-2.1,2.12h-2.45c-1.92,0-2.39-.44-2.39-1.87v-1.6h1.77v1.58c0,.4.12.44.81.44Zm1.74-6.21H113v.65h6.3Zm0,1.72H113v.65h6.3ZM114.11,80a6.75,6.75,0,0,1,.43,1.07h3.11c.15-.35.32-.75.43-1.07Zm6.9,8a11.61,11.61,0,0,1,1.86,2.7l-1.57.7a11.26,11.26,0,0,0-1.75-2.76Z"/><path class="cls-2" d="M127.34,90.21a10.43,10.43,0,0,0,1.6-3.53l1.64.59A13,13,0,0,1,129,91.11Zm6.29-4.6h-4.77V78.4h10.9v7.22H134a12,12,0,0,1,2.82,1.93l-1.29,1.23a12.62,12.62,0,0,0-3-2.18Zm-3.06-4.37h2.86V80h-2.86Zm0,2.8h2.86V82.71h-2.86Zm5.38,6c.62,0,.75-.23.84-1.74a5.19,5.19,0,0,0,1.63.67c-.2,2.16-.73,2.71-2.31,2.71h-2.53c-2,0-2.51-.53-2.51-2.15v-2.5h1.83v2.48c0,.46.14.52.9.52ZM138,80h-2.79v1.28H138Zm0,2.74h-2.79V84H138Zm1.46,3.88a13.25,13.25,0,0,1,2,3.69l-1.77.75a13.63,13.63,0,0,0-1.86-3.76Z"/><path class="cls-1" d="M145.7,100.43l26.85,28.15c2.28,2.39,3.85.19,3-2.2l-13.8-37.27c-.88-2.38-4.14-4.77-5.18-3.81L144.31,96.64C143.66,97.24,144.28,98.94,145.7,100.43Z"/><path class="cls-3" d="M154.49,12l-1.16,5.46h-2.17l1-4.93a2,2,0,0,0,0-1q-.18-.62-1.06-.62a1.88,1.88,0,0,0-1.67.91,3.62,3.62,0,0,0-.47,1.23l-.93,4.39H146l1.72-8.09h2l-.25,1.18a4.93,4.93,0,0,1,1-.9,3.17,3.17,0,0,1,1.76-.49,2.59,2.59,0,0,1,1.91.66A2.31,2.31,0,0,1,154.49,12Z"/><path class="cls-3" d="M163.07,10.76a3.43,3.43,0,0,1,.26,1.67,10.51,10.51,0,0,1-.27,1.61h-5.55a1.67,1.67,0,0,0,.4,1.71,1.51,1.51,0,0,0,1,.3,1.85,1.85,0,0,0,1.15-.37,2.61,2.61,0,0,0,.51-.56h2.16a3.56,3.56,0,0,1-1.06,1.46,4.52,4.52,0,0,1-3.17,1.18,3.36,3.36,0,0,1-2.52-1q-1-1-.49-3.24a5.64,5.64,0,0,1,1.75-3.23,4.47,4.47,0,0,1,3-1.12,3.75,3.75,0,0,1,1.74.38A2.32,2.32,0,0,1,163.07,10.76Zm-5.2,1.88h3.29a1.55,1.55,0,0,0-.24-1.27,1.3,1.3,0,0,0-1-.43,1.76,1.76,0,0,0-1.24.46A2.93,2.93,0,0,0,157.87,12.64Z"/><path class="cls-3" d="M169.29,9.4h2.15v5.84l2.5-5.84h2.21l-4.07,8.1H169.9l0-5.9-2.54,5.9h-2.2l-.56-8.1h2.27l0,5.81Z"/><path class="cls-3" d="M176.78,15.35H179l-.45,2.15h-2.21Zm1.81-8.77h2.33l-.59,2.78-1.69,5.11h-1.11L178,9.36Z"/></svg>