<svg id="圖層_1" data-name="圖層 1" xmlns="http://www.w3.org/2000/svg" viewBox="0 0 1327.23 295.74"><defs><style>.cls-1{fill:#ff665c;}.cls-1,.cls-45,.cls-47,.cls-62,.cls-64{stroke:#ff665c;}.cls-1,.cls-10,.cls-11,.cls-13,.cls-14,.cls-15,.cls-16,.cls-19,.cls-2,.cls-20,.cls-21,.cls-22,.cls-23,.cls-24,.cls-25,.cls-26,.cls-28,.cls-29,.cls-3,.cls-30,.cls-31,.cls-32,.cls-33,.cls-34,.cls-37,.cls-39,.cls-4,.cls-40,.cls-41,.cls-42,.cls-44,.cls-46,.cls-47,.cls-5,.cls-51,.cls-52,.cls-53,.cls-54,.cls-55,.cls-56,.cls-57,.cls-58,.cls-59,.cls-6,.cls-60,.cls-61,.cls-62,.cls-63,.cls-64,.cls-65,.cls-7,.cls-8,.cls-9{stroke-linecap:round;}.cls-1,.cls-10,.cls-11,.cls-13,.cls-14,.cls-15,.cls-16,.cls-17,.cls-19,.cls-2,.cls-20,.cls-21,.cls-22,.cls-23,.cls-25,.cls-26,.cls-29,.cls-3,.cls-30,.cls-31,.cls-32,.cls-33,.cls-34,.cls-35,.cls-37,.cls-39,.cls-4,.cls-40,.cls-41,.cls-42,.cls-44,.cls-45,.cls-5,.cls-50,.cls-53,.cls-54,.cls-55,.cls-56,.cls-59,.cls-6,.cls-60,.cls-61,.cls-62,.cls-63,.cls-64,.cls-65,.cls-7,.cls-8,.cls-9{stroke-linejoin:round;}.cls-1,.cls-10,.cls-11,.cls-2,.cls-5,.cls-7,.cls-8,.cls-9{stroke-width:3.62px;}.cls-2{fill:#ff6f58;stroke:#ff6f58;}.cls-3{fill:#f75;stroke:#f75;stroke-width:3.62px;}.cls-4{fill:#ff8051;stroke:#ff8051;}.cls-4,.cls-6{stroke-width:3.62px;}.cls-5{fill:#ff884e;stroke:#ff884e;}.cls-6{fill:#ff914a;stroke:#ff914a;}.cls-15,.cls-40,.cls-42,.cls-43,.cls-54,.cls-7{fill:#ff9947;}.cls-24,.cls-39,.cls-40,.cls-41,.cls-42,.cls-53,.cls-54,.cls-56,.cls-7{stroke:#ff9947;}.cls-8{fill:#ffa243;stroke:#ffa243;}.cls-9{fill:#ffaa40;stroke:#ffaa40;}.cls-10{fill:#ffb33c;stroke:#ffb33c;}.cls-11,.cls-17,.cls-19,.cls-20,.cls-24,.cls-28,.cls-35,.cls-44,.cls-45,.cls-46,.cls-49,.cls-50,.cls-53,.cls-55,.cls-57,.cls-58,.cls-59,.cls-60,.cls-61,.cls-62,.cls-63,.cls-64,.cls-65{fill:none;}.cls-11{stroke:#004864;}.cls-12{fill:#ffcd32;}.cls-13,.cls-18,.cls-21,.cls-30,.cls-56{fill:#006464;}.cls-13,.cls-14,.cls-15,.cls-19,.cls-20,.cls-21,.cls-22,.cls-26,.cls-29,.cls-30,.cls-49,.cls-55{stroke:#006464;}.cls-13,.cls-14,.cls-15,.cls-26{stroke-width:3.86px;}.cls-14,.cls-16,.cls-23,.cls-27,.cls-34,.cls-52{fill:#00364b;}.cls-16,.cls-25,.cls-37,.cls-44,.cls-50,.cls-52,.cls-57,.cls-58,.cls-63{stroke:#e0e0e0;}.cls-16,.cls-59,.cls-61,.cls-64{stroke-width:3px;}.cls-17,.cls-51{stroke:#ffcd32;}.cls-17,.cls-35,.cls-45,.cls-50{stroke-linecap:square;stroke-width:8px;}.cls-19{stroke-width:5.97px;}.cls-20{stroke-width:4.48px;}.cls-21,.cls-22,.cls-23,.cls-37{stroke-width:4.73px;}.cls-22,.cls-26,.cls-48,.cls-51{fill:#50adc0;}.cls-23,.cls-28,.cls-33,.cls-34,.cls-65{stroke:#00364b;}.cls-24,.cls-28,.cls-46,.cls-47,.cls-49,.cls-51,.cls-52,.cls-57,.cls-58{stroke-miterlimit:10;}.cls-24{stroke-width:2.21px;}.cls-25,.cls-29,.cls-31,.cls-33,.cls-36,.cls-37,.cls-39,.cls-41,.cls-47{fill:#e0e0e0;}.cls-25{stroke-width:3.88px;}.cls-28,.cls-46,.cls-47,.cls-51,.cls-52{stroke-width:4px;}.cls-29,.cls-30,.cls-31,.cls-32,.cls-33,.cls-34,.cls-41,.cls-42{stroke-width:1.1px;}.cls-31,.cls-32{stroke:#3c9195;}.cls-32{fill:#3c9195;}.cls-35,.cls-61{stroke:#0f9bff;}.cls-38{fill:#bebebe;}.cls-39,.cls-40{stroke-width:1.05px;}.cls-44{stroke-width:2.42px;}.cls-46{stroke:#50adc0;}.cls-49,.cls-58{stroke-width:2px;}.cls-53{stroke-width:2.23px;}.cls-54{stroke-width:2.29px;}.cls-55{stroke-width:1.7px;}.cls-56{stroke-width:4.77px;}.cls-57{stroke-width:2.12px;}.cls-59,.cls-60{stroke:#bebebe;}.cls-60{stroke-width:3.49px;}.cls-62,.cls-65{stroke-width:4.24px;}.cls-63{stroke-width:2.42px;}</style></defs><title>Rethink Taiwan_Landing page animation 4</title><polygon class="cls-1" points="800.46 28.13 796.19 49.59 777.32 33.45 800.46 28.13"/><polygon class="cls-2" points="766.5 34.11 760.8 55.22 743.44 38.23 766.5 34.11"/><polygon class="cls-3" points="732.55 40.1 725.4 60.86 709.56 43.01 732.55 40.1"/><polygon class="cls-4" points="698.48 44.69 689.89 65.09 675.55 46.39 698.48 44.69"/><polygon class="cls-5" points="664.03 45.05 654 65.11 641.18 45.55 664.03 45.05"/><polygon class="cls-6" points="629.58 45.77 618.11 65.48 606.8 45.07 629.58 45.77"/><polygon class="cls-7" points="595.21 45.85 582.29 65.2 572.5 43.94 595.21 45.85"/><polygon class="cls-8" points="561.22 41.02 546.87 60.02 538.58 37.91 561.22 41.02"/><polygon class="cls-9" points="527.23 36.19 511.44 54.84 504.66 31.87 527.23 36.19"/><polygon class="cls-10" points="493.25 31.36 476.01 49.65 470.75 25.83 493.25 31.36"/><path class="cls-11" d="M855.78,7.1s-183.05,83-448,0"/><path class="cls-12" d="M360.34,93.85c.86-1.81,2.53-2,3.7-.34l6.16,8.47c1.18,1.62.5,2.94-1.5,2.94h-10c-2,0-2.93-1.48-2.07-3.28Z"/><path class="cls-12" d="M354.42,115.54h-7.24a3.38,3.38,0,0,1-3.29-3l-1.08-11.78a2.6,2.6,0,0,1,2.48-3,3.28,3.28,0,0,1,3.06,3L349,107a3.42,3.42,0,0,0,3.32,3h27.86a3.39,3.39,0,0,1,3.3,3l1,10.85a2.57,2.57,0,0,1-2.4,3,3.26,3.26,0,0,1-3-3l-.55-5.35a3.43,3.43,0,0,0-3.33-3h-.14a2.78,2.78,0,0,0-2.8,3l3.82,53.88a2.78,2.78,0,0,1-2.8,3h-5.22a3.18,3.18,0,0,1-3.22-2.75,2.58,2.58,0,0,1,2.68-2.75,2.71,2.71,0,0,0,2.66-3l-1.53-21a3.31,3.31,0,0,0-3.24-3h-5.9a2.77,2.77,0,0,0-2.8,3l1.51,20.93c.12,1.66.3,4.25.41,5.76a2.68,2.68,0,0,1-2.83,2.75h-4.43a3.16,3.16,0,0,1-3.21-2.75,2.43,2.43,0,0,1,2.29-2.75c1.36,0,2.38-1.35,2.26-3l-1.89-26.44a2.66,2.66,0,0,1,2.54-3h2.58"/><path class="cls-13" d="M334.55,163.55l-4.29,29.83h3.17l6.18-16c2-5,2.2-6.92,2.2-13.8l.1-21Z"/><polygon class="cls-14" points="341.91 142.51 307.63 142.51 294.24 163.55 334.55 163.55 341.91 142.51"/><path class="cls-14" d="M334.55,163.55H294.24v25.68a4.15,4.15,0,0,0,4.15,4.15h31.88a4.29,4.29,0,0,0,4.29-4.29Z"/><line class="cls-15" x1="308.63" y1="172.37" x2="318.94" y2="172.37"/><line class="cls-16" x1="440.64" y1="136.6" x2="440.64" y2="79.57"/><line class="cls-17" x1="436.82" y1="77.9" x2="434.15" y2="69.86"/><line class="cls-17" x1="438.25" y1="81.33" x2="430.21" y2="84"/><line class="cls-17" x1="441.68" y1="79.91" x2="444.35" y2="87.95"/><line class="cls-17" x1="440.26" y1="76.47" x2="448.3" y2="73.8"/><circle class="cls-18" cx="439.25" cy="78.9" r="2.24"/><path class="cls-19" d="M482.86,175a20.34,20.34,0,0,1-27,10.26,20.72,20.72,0,0,1-10.65-27.13,20.34,20.34,0,0,1,27-10.26A20.72,20.72,0,0,1,482.86,175Z"/><line class="cls-20" x1="449.53" y1="151.9" x2="478.33" y2="181.51"/><line class="cls-20" x1="449.87" y1="181.15" x2="476.91" y2="152.73"/><line class="cls-20" x1="443.47" y1="165.97" x2="484.57" y2="166.94"/><line class="cls-20" x1="463.99" y1="146.08" x2="465.19" y2="187.09"/><path class="cls-19" d="M382.85,175a20.34,20.34,0,0,1-27,10.26,20.72,20.72,0,0,1-10.65-27.13,20.34,20.34,0,0,1,27-10.26A20.72,20.72,0,0,1,382.85,175Z"/><line class="cls-20" x1="349.51" y1="151.9" x2="378.32" y2="181.51"/><line class="cls-20" x1="349.86" y1="181.15" x2="376.89" y2="152.73"/><line class="cls-20" x1="343.46" y1="165.97" x2="384.55" y2="166.94"/><line class="cls-20" x1="363.97" y1="146.08" x2="365.17" y2="187.09"/><polygon class="cls-21" points="477.5 162.88 485.07 136.6 485.07 157.84 477.5 183.28 477.5 162.88"/><rect class="cls-22" x="330.45" y="162.31" width="147.05" height="20.57"/><polygon class="cls-23" points="477.5 162.31 330.45 162.31 341.65 136.6 485.07 136.6 477.5 162.31"/><path class="cls-19" d="M473.73,211.17a20.34,20.34,0,0,1-27,10.26A20.72,20.72,0,0,1,436,194.3a20.34,20.34,0,0,1,27-10.26A20.72,20.72,0,0,1,473.73,211.17Z"/><line class="cls-20" x1="440.4" y1="188.04" x2="469.2" y2="217.64"/><line class="cls-20" x1="440.74" y1="217.29" x2="467.78" y2="188.87"/><line class="cls-20" x1="434.34" y1="202.11" x2="475.44" y2="203.08"/><line class="cls-20" x1="454.86" y1="182.22" x2="456.06" y2="223.22"/><path class="cls-19" d="M372.72,211.17a20.34,20.34,0,0,1-27,10.26A20.72,20.72,0,0,1,335,194.3a20.34,20.34,0,0,1,27-10.26A20.72,20.72,0,0,1,372.72,211.17Z"/><line class="cls-20" x1="339.38" y1="188.04" x2="368.19" y2="217.64"/><line class="cls-20" x1="339.73" y1="217.29" x2="366.76" y2="188.87"/><line class="cls-20" x1="333.32" y1="202.11" x2="374.42" y2="203.08"/><line class="cls-20" x1="353.84" y1="182.22" x2="355.04" y2="223.22"/><line class="cls-24" x1="337.97" y1="156" x2="345.91" y2="138.25"/><line class="cls-24" x1="343.45" y1="156" x2="351.39" y2="138.25"/><line class="cls-24" x1="348.66" y1="155.62" x2="356.6" y2="137.87"/><line class="cls-24" x1="356.07" y1="155.62" x2="356.54" y2="154.55"/><line class="cls-24" x1="361.33" y1="143.98" x2="361.81" y2="142.91"/><line class="cls-24" x1="361.78" y1="155.62" x2="362.26" y2="154.55"/><line class="cls-24" x1="358.85" y1="149.78" x2="359.32" y2="148.72"/><line class="cls-24" x1="367.05" y1="155.62" x2="367.53" y2="154.55"/><polygon class="cls-25" points="414.8 158.03 372.2 158.03 380.65 142.01 421.1 142.01 414.8 158.03"/><path class="cls-13" d="M470.9,128.21,466.62,158h3.17L476,142c2-5,2.2-6.92,2.2-13.8l.1-21Z"/><polygon class="cls-26" points="478.26 107.17 443.98 107.17 430.59 128.21 470.9 128.21 478.26 107.17"/><path class="cls-26" d="M470.9,128.21H430.59v25.68a4.15,4.15,0,0,0,4.15,4.15h31.88a4.29,4.29,0,0,0,4.29-4.29Z"/><line class="cls-15" x1="444.98" y1="137.02" x2="455.29" y2="137.02"/><ellipse class="cls-27" cx="382.32" cy="154.1" rx="5" ry="3.19"/><ellipse class="cls-27" cx="382.32" cy="150.91" rx="2.19" ry="1.4"/><ellipse class="cls-27" cx="395.69" cy="154.1" rx="5" ry="3.19"/><ellipse class="cls-27" cx="395.69" cy="150.91" rx="2.19" ry="1.4"/><ellipse class="cls-27" cx="409.07" cy="154.1" rx="5" ry="3.19"/><ellipse class="cls-27" cx="409.07" cy="150.91" rx="2.19" ry="1.4"/><line class="cls-28" x1="382.54" y1="143.94" x2="406.88" y2="143.98"/><path class="cls-29" d="M124.39,219.32l-13.51-2.63a5.1,5.1,0,0,0,.95-2.62,6.49,6.49,0,0,0-.79-2.9l13.51,2.63a7.94,7.94,0,0,1,.49,3.29C125,219.17,124.39,219.32,124.39,219.32Z"/><path class="cls-30" d="M142.28,207.67l-17.74,6.12a7.62,7.62,0,0,1,.5,2.89,5.9,5.9,0,0,1-.66,2.64l17.75-6.61a3.52,3.52,0,0,0,.83-2.4,4.4,4.4,0,0,0-.68-2.63"/><polygon class="cls-30" points="111.04 211.16 128.11 205.63 142.28 207.67 124.55 213.79 111.04 211.16"/><path class="cls-31" d="M124.6,212l-13.51-2.63a5.1,5.1,0,0,0,.95-2.62,6.49,6.49,0,0,0-.79-2.9l13.51,2.63a7.94,7.94,0,0,1,.49,3.29C125.18,211.84,124.6,212,124.6,212Z"/><path class="cls-32" d="M142.49,200.34l-17.74,6.12a7.62,7.62,0,0,1,.5,2.89,5.9,5.9,0,0,1-.66,2.64l17.75-6.61a3.52,3.52,0,0,0,.83-2.4,4.4,4.4,0,0,0-.68-2.63"/><polygon class="cls-32" points="111.25 203.83 128.32 198.31 142.49 200.34 124.75 206.46 111.25 203.83"/><path class="cls-29" d="M124.43,204.63,110.92,202a5.1,5.1,0,0,0,.95-2.62,6.49,6.49,0,0,0-.79-2.9l13.51,2.63a7.94,7.94,0,0,1,.49,3.29C125,204.48,124.43,204.63,124.43,204.63Z"/><path class="cls-30" d="M142.32,193l-17.74,6.12a7.62,7.62,0,0,1,.5,2.89,5.9,5.9,0,0,1-.66,2.64L142.18,198a3.52,3.52,0,0,0,.83-2.4,4.4,4.4,0,0,0-.68-2.63"/><polygon class="cls-30" points="111.08 196.47 128.15 190.95 142.32 192.98 124.58 199.1 111.08 196.47"/><path class="cls-33" d="M127.09,197.72l-13.51-2.63a5.1,5.1,0,0,0,.95-2.62,6.49,6.49,0,0,0-.79-2.9l13.51,2.63a7.94,7.94,0,0,1,.49,3.29C127.68,197.57,127.09,197.72,127.09,197.72Z"/><path class="cls-34" d="M145,186.07l-17.74,6.12a7.62,7.62,0,0,1,.5,2.89,5.9,5.9,0,0,1-.66,2.64l17.75-6.61a3.52,3.52,0,0,0,.83-2.4,4.4,4.4,0,0,0-.68-2.63"/><polygon class="cls-34" points="113.74 189.56 130.81 184.03 144.99 186.07 127.25 192.19 113.74 189.56"/><path class="cls-31" d="M129.22,190.71l-13.51-2.63a5.1,5.1,0,0,0,.95-2.62,6.49,6.49,0,0,0-.79-2.9l13.51,2.63a7.94,7.94,0,0,1,.49,3.29C129.81,190.57,129.22,190.71,129.22,190.71Z"/><path class="cls-32" d="M147.12,179.07l-17.74,6.12a7.62,7.62,0,0,1,.5,2.89,5.9,5.9,0,0,1-.66,2.64L147,184.1a3.52,3.52,0,0,0,.83-2.4,4.4,4.4,0,0,0-.68-2.63"/><polygon class="cls-32" points="115.87 182.56 132.94 177.03 147.12 179.07 129.38 185.19 115.87 182.56"/><path class="cls-29" d="M144.26,219.32l-13.51-2.63a5.1,5.1,0,0,0,.95-2.62,6.49,6.49,0,0,0-.79-2.9l13.51,2.63a7.94,7.94,0,0,1,.49,3.29C144.85,219.17,144.26,219.32,144.26,219.32Z"/><path class="cls-30" d="M162.15,207.67l-17.74,6.12a7.62,7.62,0,0,1,.5,2.89,5.9,5.9,0,0,1-.66,2.64L162,212.71a3.52,3.52,0,0,0,.83-2.4,4.4,4.4,0,0,0-.68-2.63"/><polygon class="cls-30" points="130.91 211.16 147.98 205.63 162.15 207.67 144.41 213.79 130.91 211.16"/><path class="cls-31" d="M144.47,212,131,209.35a5.1,5.1,0,0,0,.95-2.62,6.49,6.49,0,0,0-.79-2.9l13.51,2.63a7.94,7.94,0,0,1,.49,3.29C145.05,211.84,144.47,212,144.47,212Z"/><path class="cls-32" d="M162.36,200.34l-17.74,6.12a7.62,7.62,0,0,1,.5,2.89,5.9,5.9,0,0,1-.66,2.64l17.75-6.61A3.52,3.52,0,0,0,163,203a4.4,4.4,0,0,0-.68-2.63"/><polygon class="cls-32" points="131.12 203.83 148.19 198.31 162.36 200.34 144.62 206.46 131.12 203.83"/><path class="cls-29" d="M144.3,204.63,130.79,202a5.1,5.1,0,0,0,.95-2.62,6.49,6.49,0,0,0-.79-2.9l13.51,2.63a7.94,7.94,0,0,1,.49,3.29C144.89,204.48,144.3,204.63,144.3,204.63Z"/><path class="cls-30" d="M162.19,193l-17.74,6.12A7.62,7.62,0,0,1,145,202a5.9,5.9,0,0,1-.66,2.64L162,198a3.52,3.52,0,0,0,.83-2.4,4.4,4.4,0,0,0-.68-2.63"/><polygon class="cls-30" points="130.95 196.47 148.02 190.95 162.19 192.98 144.46 199.1 130.95 196.47"/><path class="cls-33" d="M147,197.72l-13.51-2.63a5.1,5.1,0,0,0,.95-2.62,6.49,6.49,0,0,0-.79-2.9l13.51,2.63a7.94,7.94,0,0,1,.49,3.29C147.55,197.57,147,197.72,147,197.72Z"/><path class="cls-34" d="M164.86,186.07l-17.74,6.12a7.62,7.62,0,0,1,.5,2.89,5.9,5.9,0,0,1-.66,2.64l17.75-6.61a3.52,3.52,0,0,0,.83-2.4,4.4,4.4,0,0,0-.68-2.63"/><polygon class="cls-34" points="133.61 189.56 150.68 184.03 164.86 186.07 147.12 192.19 133.61 189.56"/><path class="cls-31" d="M149.09,190.71l-13.51-2.63a5.1,5.1,0,0,0,.95-2.62,6.49,6.49,0,0,0-.79-2.9l13.51,2.63a7.94,7.94,0,0,1,.49,3.29C149.68,190.57,149.09,190.71,149.09,190.71Z"/><path class="cls-32" d="M167,179.07l-17.74,6.12a7.62,7.62,0,0,1,.5,2.89,5.9,5.9,0,0,1-.66,2.64l17.75-6.61a3.52,3.52,0,0,0,.83-2.4,4.4,4.4,0,0,0-.68-2.63"/><polygon class="cls-32" points="135.74 182.56 152.81 177.03 166.99 179.07 149.25 185.19 135.74 182.56"/><path class="cls-29" d="M35.39,190.14l-13.51-2.63a5.1,5.1,0,0,0,.95-2.62A6.49,6.49,0,0,0,22,182l13.51,2.63A7.94,7.94,0,0,1,36,187.9C36,190,35.39,190.14,35.39,190.14Z"/><path class="cls-30" d="M53.29,178.49l-17.74,6.12a7.62,7.62,0,0,1,.5,2.89,5.9,5.9,0,0,1-.66,2.64l17.75-6.61a3.52,3.52,0,0,0,.83-2.4,4.4,4.4,0,0,0-.68-2.63"/><polygon class="cls-30" points="22.04 181.98 39.11 176.46 53.28 178.49 35.55 184.62 22.04 181.98"/><path class="cls-31" d="M35.6,182.81l-13.51-2.63a5.1,5.1,0,0,0,.95-2.62,6.49,6.49,0,0,0-.79-2.9l13.51,2.63a7.94,7.94,0,0,1,.49,3.29C36.19,182.67,35.6,182.81,35.6,182.81Z"/><path class="cls-32" d="M53.49,171.16l-17.74,6.12a7.62,7.62,0,0,1,.5,2.89,5.9,5.9,0,0,1-.66,2.64l17.75-6.61a3.52,3.52,0,0,0,.83-2.4,4.4,4.4,0,0,0-.68-2.63"/><polygon class="cls-32" points="22.25 174.65 39.32 169.13 53.49 171.16 35.76 177.29 22.25 174.65"/><path class="cls-29" d="M35.43,175.45l-13.51-2.63a5.1,5.1,0,0,0,.95-2.62,6.49,6.49,0,0,0-.79-2.9l13.51,2.63a7.94,7.94,0,0,1,.49,3.29C36,175.31,35.43,175.45,35.43,175.45Z"/><path class="cls-30" d="M53.33,163.81l-17.74,6.12a7.62,7.62,0,0,1,.5,2.89,5.9,5.9,0,0,1-.66,2.64l17.75-6.61a3.52,3.52,0,0,0,.83-2.4,4.4,4.4,0,0,0-.68-2.63"/><polygon class="cls-30" points="22.08 167.29 39.15 161.77 53.33 163.81 35.59 169.93 22.08 167.29"/><path class="cls-33" d="M38.09,168.54l-13.51-2.63a5.1,5.1,0,0,0,.95-2.62,6.49,6.49,0,0,0-.79-2.9L38.25,163a7.94,7.94,0,0,1,.49,3.29C38.68,168.4,38.09,168.54,38.09,168.54Z"/><path class="cls-34" d="M56,156.89,38.25,163a7.62,7.62,0,0,1,.5,2.89,5.9,5.9,0,0,1-.66,2.64l17.75-6.61a3.52,3.52,0,0,0,.83-2.4,4.4,4.4,0,0,0-.68-2.63"/><polygon class="cls-34" points="24.74 160.38 41.81 154.86 55.99 156.89 38.25 163.01 24.74 160.38"/><path class="cls-31" d="M40.22,161.54,26.71,158.9a5.1,5.1,0,0,0,.95-2.62,6.49,6.49,0,0,0-.79-2.9L40.38,156a7.94,7.94,0,0,1,.49,3.29C40.81,161.39,40.22,161.54,40.22,161.54Z"/><path class="cls-32" d="M58.12,149.89,40.38,156a7.62,7.62,0,0,1,.5,2.89,5.9,5.9,0,0,1-.66,2.64L58,154.93a3.52,3.52,0,0,0,.83-2.4,4.4,4.4,0,0,0-.68-2.63"/><polygon class="cls-32" points="26.87 153.38 43.94 147.86 58.12 149.89 40.38 156.01 26.87 153.38"/><path class="cls-29" d="M55.26,190.14l-13.51-2.63a5.1,5.1,0,0,0,.95-2.62,6.49,6.49,0,0,0-.79-2.9l13.51,2.63a7.94,7.94,0,0,1,.49,3.29C55.85,190,55.26,190.14,55.26,190.14Z"/><path class="cls-30" d="M73.16,178.49l-17.74,6.12a7.62,7.62,0,0,1,.5,2.89,5.9,5.9,0,0,1-.66,2.64L73,183.53a3.52,3.52,0,0,0,.83-2.4,4.4,4.4,0,0,0-.68-2.63"/><polygon class="cls-30" points="41.91 181.98 58.98 176.46 73.16 178.49 55.42 184.62 41.91 181.98"/><path class="cls-31" d="M55.47,182.81,42,180.18a5.1,5.1,0,0,0,.95-2.62,6.49,6.49,0,0,0-.79-2.9l13.51,2.63a7.94,7.94,0,0,1,.49,3.29C56.06,182.67,55.47,182.81,55.47,182.81Z"/><path class="cls-32" d="M73.36,171.16l-17.74,6.12a7.62,7.62,0,0,1,.5,2.89,5.9,5.9,0,0,1-.66,2.64l17.75-6.61a3.52,3.52,0,0,0,.83-2.4,4.4,4.4,0,0,0-.68-2.63"/><polygon class="cls-32" points="42.12 174.65 59.19 169.13 73.36 171.16 55.63 177.29 42.12 174.65"/><path class="cls-29" d="M55.3,175.45l-13.51-2.63a5.1,5.1,0,0,0,.95-2.62,6.49,6.49,0,0,0-.79-2.9l13.51,2.63a7.94,7.94,0,0,1,.49,3.29C55.89,175.31,55.3,175.45,55.3,175.45Z"/><path class="cls-30" d="M73.2,163.81l-17.74,6.12a7.62,7.62,0,0,1,.5,2.89,5.9,5.9,0,0,1-.66,2.64l17.75-6.61a3.52,3.52,0,0,0,.83-2.4,4.4,4.4,0,0,0-.68-2.63"/><polygon class="cls-30" points="41.95 167.29 59.02 161.77 73.19 163.81 55.46 169.93 41.95 167.29"/><path class="cls-33" d="M58,168.54l-13.51-2.63a5.1,5.1,0,0,0,.95-2.62,6.49,6.49,0,0,0-.79-2.9L58.12,163a7.94,7.94,0,0,1,.49,3.29C58.55,168.4,58,168.54,58,168.54Z"/><path class="cls-34" d="M75.86,156.89,58.12,163a7.62,7.62,0,0,1,.5,2.89,5.9,5.9,0,0,1-.66,2.64l17.75-6.61a3.52,3.52,0,0,0,.83-2.4,4.4,4.4,0,0,0-.68-2.63"/><polygon class="cls-34" points="44.61 160.38 61.68 154.86 75.86 156.89 58.12 163.01 44.61 160.38"/><path class="cls-31" d="M60.09,161.54,46.58,158.9a5.1,5.1,0,0,0,.95-2.62,6.49,6.49,0,0,0-.79-2.9L60.25,156a7.94,7.94,0,0,1,.49,3.29C60.68,161.39,60.09,161.54,60.09,161.54Z"/><path class="cls-32" d="M78,149.89,60.25,156a7.62,7.62,0,0,1,.5,2.89,5.9,5.9,0,0,1-.66,2.64l17.75-6.61a3.52,3.52,0,0,0,.83-2.4,4.4,4.4,0,0,0-.68-2.63"/><polygon class="cls-32" points="46.74 153.38 63.81 147.86 77.99 149.89 60.25 156.01 46.74 153.38"/><line class="cls-16" x1="138.72" y1="136.35" x2="138.72" y2="78.32"/><line class="cls-35" x1="134.9" y1="76.65" x2="132.23" y2="68.61"/><line class="cls-35" x1="136.32" y1="80.09" x2="128.28" y2="82.76"/><line class="cls-35" x1="139.76" y1="78.66" x2="142.42" y2="86.7"/><line class="cls-35" x1="138.33" y1="75.23" x2="146.37" y2="72.56"/><circle class="cls-36" cx="137.33" cy="77.66" r="1.45"/><path class="cls-19" d="M201.8,174.86a20.34,20.34,0,0,1-27,10.26A20.72,20.72,0,0,1,164.11,158a20.34,20.34,0,0,1,27-10.26A20.72,20.72,0,0,1,201.8,174.86Z"/><line class="cls-20" x1="168.47" y1="151.73" x2="197.27" y2="181.34"/><line class="cls-20" x1="168.81" y1="180.99" x2="195.85" y2="152.56"/><line class="cls-20" x1="162.41" y1="165.81" x2="203.51" y2="166.77"/><line class="cls-20" x1="182.92" y1="145.91" x2="184.13" y2="186.92"/><path class="cls-19" d="M101.78,174.86a20.34,20.34,0,0,1-27,10.26A20.72,20.72,0,0,1,64.1,158a20.34,20.34,0,0,1,27-10.26A20.72,20.72,0,0,1,101.78,174.86Z"/><line class="cls-20" x1="68.45" y1="151.73" x2="97.25" y2="181.34"/><line class="cls-20" x1="68.79" y1="180.99" x2="95.83" y2="152.56"/><line class="cls-20" x1="62.39" y1="165.81" x2="103.49" y2="166.77"/><line class="cls-20" x1="82.91" y1="145.91" x2="84.11" y2="186.92"/><polygon class="cls-21" points="196.43 162.71 204 136.43 204 157.67 196.43 183.11 196.43 162.71"/><rect class="cls-22" x="49.39" y="162.14" width="147.05" height="20.57"/><polygon class="cls-37" points="195.43 162.14 195.38 172.84 49.39 172.84 49.39 162.14 60.59 136.43 203 136.43 195.43 162.14"/><path class="cls-19" d="M192.67,211a20.34,20.34,0,0,1-27,10.26A20.72,20.72,0,0,1,155,194.13a20.34,20.34,0,0,1,27-10.26A20.72,20.72,0,0,1,192.67,211Z"/><line class="cls-20" x1="159.34" y1="187.87" x2="188.14" y2="217.48"/><line class="cls-20" x1="159.68" y1="217.12" x2="186.72" y2="188.7"/><line class="cls-20" x1="153.28" y1="201.94" x2="194.38" y2="202.91"/><line class="cls-20" x1="173.79" y1="182.05" x2="174.99" y2="223.06"/><path class="cls-19" d="M91.65,211a20.34,20.34,0,0,1-27,10.26A20.72,20.72,0,0,1,54,194.13a20.34,20.34,0,0,1,27-10.26A20.72,20.72,0,0,1,91.65,211Z"/><line class="cls-20" x1="58.32" y1="187.87" x2="87.12" y2="217.48"/><line class="cls-20" x1="58.66" y1="217.12" x2="85.7" y2="188.7"/><line class="cls-20" x1="52.26" y1="201.94" x2="93.36" y2="202.91"/><line class="cls-20" x1="72.78" y1="182.05" x2="73.98" y2="223.06"/><polygon class="cls-38" points="160.63 143.79 141.35 136.77 125.38 139.72 145.42 147.53 160.63 143.79"/><polygon class="cls-38" points="105.55 148.57 86.27 141.54 70.3 144.49 90.33 152.3 105.55 148.57"/><polygon class="cls-38" points="133.04 153.22 113.77 146.2 97.79 149.15 117.83 156.96 133.04 153.22"/><path class="cls-33" d="M96.74,147.67,110.24,145a5.1,5.1,0,0,1-.95-2.62,6.49,6.49,0,0,1,.79-2.9l-13.51,2.63a7.94,7.94,0,0,0-.49,3.29C96.15,147.53,96.74,147.67,96.74,147.67Z"/><path class="cls-34" d="M78.84,136l17.74,6.12a7.62,7.62,0,0,0-.5,2.89,5.9,5.9,0,0,0,.66,2.64L79,141.06a3.52,3.52,0,0,1-.83-2.4,4.4,4.4,0,0,1,.68-2.63"/><polygon class="cls-34" points="110.09 139.51 93.02 133.99 78.84 136.03 96.58 142.15 110.09 139.51"/><path class="cls-33" d="M130.34,145.48l13.51-2.63a5.1,5.1,0,0,1-.95-2.62,6.49,6.49,0,0,1,.79-2.9L130.18,140a7.94,7.94,0,0,0-.49,3.29C129.75,145.33,130.34,145.48,130.34,145.48Z"/><path class="cls-34" d="M112.44,133.83,130.18,140a7.62,7.62,0,0,0-.5,2.89,5.9,5.9,0,0,0,.66,2.64l-17.75-6.61a3.52,3.52,0,0,1-.83-2.4,4.4,4.4,0,0,1,.68-2.63"/><polygon class="cls-34" points="143.69 137.32 126.62 131.8 112.44 133.83 130.18 139.95 143.69 137.32"/><path class="cls-31" d="M124.71,140.19l13.51-2.63a5.1,5.1,0,0,1-.95-2.62,6.49,6.49,0,0,1,.79-2.9l-13.51,2.63a7.94,7.94,0,0,0-.49,3.29C124.12,140,124.71,140.19,124.71,140.19Z"/><path class="cls-32" d="M106.81,128.54l17.74,6.12a7.62,7.62,0,0,0-.5,2.89,5.9,5.9,0,0,0,.66,2.64L107,133.58a3.52,3.52,0,0,1-.83-2.4,4.4,4.4,0,0,1,.68-2.63"/><polygon class="cls-32" points="138.06 132.03 120.99 126.5 106.81 128.54 124.55 134.66 138.06 132.03"/><path class="cls-39" d="M123.62,133.1l12.29-2.57a5.31,5.31,0,0,1-.87-2.59,6.79,6.79,0,0,1,.71-2.86l-12.29,2.57a8.41,8.41,0,0,0-.44,3.25C123.08,133,123.62,133.1,123.62,133.1Z"/><path class="cls-40" d="M107.3,121.56l16.16,6.09a8.06,8.06,0,0,0-.45,2.85,6.23,6.23,0,0,0,.61,2.6l-16.17-6.57a3.66,3.66,0,0,1-.76-2.38,4.6,4.6,0,0,1,.62-2.6"/><polygon class="cls-40" points="135.75 125.07 120.2 119.58 107.31 121.56 123.46 127.64 135.75 125.07"/><path class="cls-29" d="M124.57,126.13l13.51-2.63a5.1,5.1,0,0,1-.95-2.62,6.49,6.49,0,0,1,.79-2.9l-13.51,2.63a7.94,7.94,0,0,0-.49,3.29C124,126,124.57,126.13,124.57,126.13Z"/><path class="cls-30" d="M106.67,114.48l17.74,6.12a7.62,7.62,0,0,0-.5,2.89,5.9,5.9,0,0,0,.66,2.64l-17.75-6.61a3.52,3.52,0,0,1-.83-2.4,4.4,4.4,0,0,1,.68-2.63"/><polygon class="cls-30" points="137.92 117.97 120.84 112.44 106.67 114.48 124.41 120.6 137.92 117.97"/><path class="cls-31" d="M96.53,140.35,110,137.71a5.1,5.1,0,0,1-.95-2.62,6.49,6.49,0,0,1,.79-2.9l-13.51,2.63a7.94,7.94,0,0,0-.49,3.29C95.94,140.2,96.53,140.35,96.53,140.35Z"/><path class="cls-32" d="M78.63,128.7l17.74,6.12a7.62,7.62,0,0,0-.5,2.89,5.9,5.9,0,0,0,.66,2.64l-17.75-6.61a3.52,3.52,0,0,1-.83-2.4,4.4,4.4,0,0,1,.68-2.63"/><polygon class="cls-32" points="109.88 132.19 92.81 126.66 78.63 128.7 96.37 134.82 109.88 132.19"/><path class="cls-29" d="M96.7,133l13.51-2.63a5.1,5.1,0,0,1-.95-2.62,6.49,6.49,0,0,1,.79-2.9l-13.51,2.63a7.94,7.94,0,0,0-.49,3.29C96.11,132.84,96.7,133,96.7,133Z"/><path class="cls-30" d="M78.8,121.34l17.74,6.12a7.62,7.62,0,0,0-.5,2.89A5.9,5.9,0,0,0,96.7,133l-17.75-6.61a3.52,3.52,0,0,1-.83-2.4,4.4,4.4,0,0,1,.68-2.63"/><polygon class="cls-30" points="110.05 124.83 92.98 119.31 78.8 121.34 96.54 127.46 110.05 124.83"/><path class="cls-33" d="M94,126.07l13.51-2.63a5.1,5.1,0,0,1-.95-2.62,6.49,6.49,0,0,1,.79-2.9l-13.51,2.63a7.94,7.94,0,0,0-.49,3.29C93.45,125.93,94,126.07,94,126.07Z"/><path class="cls-34" d="M76.14,114.43l17.74,6.12a7.62,7.62,0,0,0-.5,2.89,5.9,5.9,0,0,0,.66,2.64l-17.75-6.61a3.52,3.52,0,0,1-.83-2.4,4.4,4.4,0,0,1,.68-2.63"/><polygon class="cls-34" points="107.38 117.92 90.31 112.39 76.14 114.43 93.88 120.55 107.38 117.92"/><polygon class="cls-38" points="112.79 117.23 95.72 111.71 81.54 113.75 99.28 119.87 112.79 117.23"/><path class="cls-41" d="M91.9,119.07l13.51-2.63a5.1,5.1,0,0,1-.95-2.62,6.49,6.49,0,0,1,.79-2.9l-13.51,2.63a7.94,7.94,0,0,0-.49,3.29C91.31,118.93,91.9,119.07,91.9,119.07Z"/><path class="cls-42" d="M74,107.43l17.74,6.12a7.62,7.62,0,0,0-.5,2.89,5.9,5.9,0,0,0,.66,2.64l-17.75-6.61a3.52,3.52,0,0,1-.83-2.4,4.4,4.4,0,0,1,.68-2.63"/><polygon class="cls-42" points="105.25 110.91 88.18 105.39 74.01 107.42 91.75 113.55 105.25 110.91"/><polygon class="cls-43" points="79.84 227.41 118.28 227.41 122.36 180.24 83.92 180.24 79.84 227.41"/><polygon class="cls-43" points="205.87 113.37 205.45 131.93 195.55 143.69 187.51 148.31 146.94 140.51 147.77 103.39 167.89 101.14 193.57 104.71 205.87 113.37"/><polygon class="cls-18" points="182.94 114.58 152.25 110.3 151.68 135.9 182.35 141.08 182.94 114.58"/><polyline class="cls-44" points="183.67 81.65 171.16 103.83 159.7 78.79"/><line class="cls-20" x1="125.8" y1="149.56" x2="145.37" y2="147.06"/><path class="cls-12" d="M236.3,125.2a4.2,4.2,0,0,1,4-3.56h2.48a4.19,4.19,0,0,0,4-3.56l1.08-8.54a3,3,0,0,0-2.83-3.56,4,4,0,0,0-3.75,3.56l-.26,2a4.22,4.22,0,0,1-4.06,3.56H220.13a4.16,4.16,0,0,0-4,3.57l-7.56,63a3.12,3.12,0,0,0,3.16,3.57h6.21a4,4,0,0,0,4-3.27,2.9,2.9,0,0,0-3-3.27,3,3,0,0,1-3-3.56l2.36-19.35a4.17,4.17,0,0,1,4-3.56h7a3.11,3.11,0,0,1,3.16,3.56l-2.33,19.32c-.24,2-.61,5-.82,6.84a3,3,0,0,0,3.2,3.28h5.27a4,4,0,0,0,4-3.28,2.73,2.73,0,0,0-2.56-3.28c-1.62,0-2.76-1.6-2.52-3.57l3.12-25.87a3,3,0,0,0-2.85-3.57,3,3,0,0,1-2.82-3.56Z"/><path class="cls-12" d="M230.44,97.41c1.53-1.83,3.45-1.49,4.27.74L238,107.1a2.83,2.83,0,0,1-2.83,4.06h-11.9c-2.38,0-3.08-1.49-1.55-3.32Z"/><path class="cls-12" d="M237.31,96.43a1.8,1.8,0,0,1-1.09-.37,1.77,1.77,0,0,1-.38-2.46L240,88.05a1.74,1.74,0,0,1,2.46-.31,1.77,1.77,0,0,1,.38,2.46l-4.16,5.54A1.7,1.7,0,0,1,237.31,96.43Z"/><path class="cls-12" d="M240.78,102.59a1.82,1.82,0,0,1-1.62-1,1.72,1.72,0,0,1,.77-2.34l7.2-3.46a1.8,1.8,0,0,1,2.36.84,1.72,1.72,0,0,1-.77,2.34l-7.2,3.46A1.72,1.72,0,0,1,240.78,102.59Z"/><path class="cls-12" d="M250.67,109.17h-7.4a1.82,1.82,0,0,1-1.81-1.76,1.69,1.69,0,0,1,1.7-1.76h7.4a1.82,1.82,0,0,1,1.81,1.76A1.69,1.69,0,0,1,250.67,109.17Z"/><line class="cls-16" x1="1186.48" y1="135.6" x2="1186.48" y2="77.9"/><line class="cls-45" x1="1182.66" y1="76.23" x2="1179.99" y2="68.19"/><line class="cls-45" x1="1184.09" y1="79.66" x2="1176.05" y2="82.33"/><line class="cls-45" x1="1187.52" y1="78.24" x2="1190.19" y2="86.28"/><line class="cls-45" x1="1186.1" y1="74.81" x2="1194.14" y2="72.14"/><circle class="cls-36" cx="1185.09" cy="77.23" r="1.45"/><path class="cls-19" d="M780.93,174.86a20.34,20.34,0,0,0,27,10.26A20.72,20.72,0,0,0,818.62,158a20.34,20.34,0,0,0-27-10.26A20.72,20.72,0,0,0,780.93,174.86Z"/><line class="cls-20" x1="814.27" y1="151.73" x2="785.46" y2="181.34"/><line class="cls-20" x1="813.93" y1="180.99" x2="786.89" y2="152.56"/><line class="cls-20" x1="820.33" y1="165.81" x2="779.23" y2="166.77"/><line class="cls-20" x1="799.81" y1="145.91" x2="798.61" y2="186.92"/><path class="cls-19" d="M881,174.86a20.34,20.34,0,0,0,27,10.26A20.72,20.72,0,0,0,918.64,158a20.34,20.34,0,0,0-27-10.26A20.72,20.72,0,0,0,881,174.86Z"/><line class="cls-20" x1="914.28" y1="151.73" x2="885.48" y2="181.34"/><line class="cls-20" x1="913.94" y1="180.99" x2="886.91" y2="152.56"/><line class="cls-20" x1="920.34" y1="165.81" x2="879.24" y2="166.77"/><line class="cls-20" x1="899.83" y1="145.91" x2="898.63" y2="186.92"/><polygon class="cls-21" points="786.3 162.71 778.73 136.43 778.73 157.67 786.3 183.11 786.3 162.71"/><rect class="cls-22" x="786.3" y="162.14" width="147.05" height="20.57"/><polygon class="cls-37" points="786.3 162.14 933.35 162.14 922.15 136.43 778.73 136.43 786.3 162.14"/><path class="cls-19" d="M790.07,211a20.34,20.34,0,0,0,27,10.26,20.72,20.72,0,0,0,10.65-27.13,20.34,20.34,0,0,0-27-10.26A20.72,20.72,0,0,0,790.07,211Z"/><line class="cls-20" x1="823.4" y1="187.87" x2="794.6" y2="217.48"/><line class="cls-20" x1="823.06" y1="217.12" x2="796.02" y2="188.7"/><line class="cls-20" x1="829.46" y1="201.94" x2="788.36" y2="202.91"/><line class="cls-20" x1="808.94" y1="182.05" x2="807.74" y2="223.06"/><path class="cls-19" d="M891.08,211a20.34,20.34,0,0,0,27,10.26,20.72,20.72,0,0,0,10.65-27.13,20.34,20.34,0,0,0-27-10.26A20.72,20.72,0,0,0,891.08,211Z"/><line class="cls-20" x1="924.42" y1="187.87" x2="895.61" y2="217.48"/><line class="cls-20" x1="924.07" y1="217.12" x2="897.04" y2="188.7"/><line class="cls-20" x1="930.47" y1="201.94" x2="889.38" y2="202.91"/><line class="cls-20" x1="909.96" y1="182.05" x2="908.76" y2="223.06"/><polygon class="cls-36" points="900.14 229.22 861.71 229.22 858.29 177.48 896.73 177.48 900.14 229.22"/><line class="cls-46" x1="882.76" y1="220.94" x2="874.43" y2="192.63"/><line class="cls-46" x1="886.68" y1="188.01" x2="882.76" y2="220.94"/><circle class="cls-47" cx="886.68" cy="188.01" r="3.92"/><line class="cls-46" x1="868.43" y1="204" x2="882.76" y2="220.94"/><circle class="cls-47" cx="874.43" cy="192.63" r="3.92"/><circle class="cls-47" cx="868.43" cy="204" r="3.92"/><line class="cls-46" x1="894.98" y1="212.47" x2="888.65" y2="220.27"/><line class="cls-46" x1="870.51" y1="219.27" x2="875.59" y2="223.08"/><path class="cls-19" d="M1154.94,174.86a20.34,20.34,0,0,0,27,10.26A20.72,20.72,0,0,0,1192.62,158a20.34,20.34,0,0,0-27-10.26A20.72,20.72,0,0,0,1154.94,174.86Z"/><line class="cls-20" x1="1188.27" y1="151.73" x2="1159.47" y2="181.34"/><line class="cls-20" x1="1187.93" y1="180.99" x2="1160.89" y2="152.56"/><line class="cls-20" x1="1194.33" y1="165.81" x2="1153.23" y2="166.77"/><line class="cls-20" x1="1173.81" y1="145.91" x2="1172.61" y2="186.92"/><path class="cls-19" d="M1255,174.86a20.34,20.34,0,0,0,27,10.26A20.72,20.72,0,0,0,1292.64,158a20.34,20.34,0,0,0-27-10.26A20.72,20.72,0,0,0,1255,174.86Z"/><line class="cls-20" x1="1288.29" y1="151.73" x2="1259.48" y2="181.34"/><line class="cls-20" x1="1287.94" y1="180.99" x2="1260.91" y2="152.56"/><line class="cls-20" x1="1294.35" y1="165.81" x2="1253.25" y2="166.77"/><line class="cls-20" x1="1273.83" y1="145.91" x2="1272.63" y2="186.92"/><polygon class="cls-21" points="1160.3 162.71 1152.73 136.43 1152.73 157.67 1160.3 183.11 1160.3 162.71"/><rect class="cls-22" x="1160.3" y="162.14" width="147.05" height="20.57"/><polygon class="cls-22" points="1160.3 162.14 1307.35 162.14 1296.15 136.43 1152.73 136.43 1160.3 162.14"/><path class="cls-19" d="M1164.07,211a20.34,20.34,0,0,0,27,10.26,20.72,20.72,0,0,0,10.65-27.13,20.34,20.34,0,0,0-27-10.26A20.72,20.72,0,0,0,1164.07,211Z"/><line class="cls-20" x1="1197.4" y1="187.87" x2="1168.6" y2="217.48"/><line class="cls-20" x1="1197.06" y1="217.12" x2="1170.02" y2="188.7"/><line class="cls-20" x1="1203.46" y1="201.94" x2="1162.36" y2="202.91"/><line class="cls-20" x1="1182.94" y1="182.05" x2="1181.74" y2="223.06"/><path class="cls-19" d="M1265.08,211a20.34,20.34,0,0,0,27,10.26,20.72,20.72,0,0,0,10.65-27.13,20.34,20.34,0,0,0-27-10.26A20.72,20.72,0,0,0,1265.08,211Z"/><line class="cls-20" x1="1298.42" y1="187.87" x2="1269.61" y2="217.48"/><line class="cls-20" x1="1298.08" y1="217.12" x2="1271.04" y2="188.7"/><line class="cls-20" x1="1304.48" y1="201.94" x2="1263.38" y2="202.91"/><line class="cls-20" x1="1283.96" y1="182.05" x2="1282.76" y2="223.06"/><polygon class="cls-48" points="910.3 151.32 871.86 151.32 868.69 148.32 865.28 98.02 903.71 98.02 906.88 99.59 910.3 151.32"/><polygon class="cls-36" points="874.67 148.32 871.65 102.59 904.07 102.59 907.09 148.32 874.67 148.32"/><path class="cls-18" d="M901.26,105.59l2.62,39.74H877.48l-2.62-39.74h26.41m5.62-6H868.45l3.42,51.74H910.3l-3.42-51.74Z"/><line class="cls-49" x1="881.65" y1="114.89" x2="895.9" y2="114.89"/><line class="cls-49" x1="882.25" y1="121.15" x2="896.5" y2="121.15"/><line class="cls-49" x1="882.84" y1="127.41" x2="897.09" y2="127.41"/><line class="cls-49" x1="883.44" y1="133.67" x2="897.69" y2="133.67"/><line class="cls-16" x1="782.9" y1="136.43" x2="782.9" y2="90.77"/><line class="cls-50" x1="779.07" y1="89.1" x2="776.4" y2="81.06"/><line class="cls-50" x1="780.5" y1="92.53" x2="772.46" y2="95.2"/><line class="cls-50" x1="783.93" y1="91.11" x2="786.6" y2="99.15"/><line class="cls-50" x1="782.51" y1="87.68" x2="790.55" y2="85.01"/><circle class="cls-18" cx="781.5" cy="90.1" r="1.87"/><ellipse class="cls-43" cx="855.82" cy="146.95" rx="9.21" ry="4.7"/><ellipse class="cls-43" cx="855.82" cy="138.13" rx="9.2" ry="3.99"/><rect class="cls-43" x="846.63" y="138.13" width="18.4" height="8.77"/><ellipse class="cls-18" cx="855.81" cy="138.66" rx="8.96" ry="3.59"/><line class="cls-46" x1="856.04" y1="139.02" x2="838.54" y2="107.23"/><line class="cls-46" x1="856.04" y1="139.02" x2="847.42" y2="105.86"/><line class="cls-46" x1="857.82" y1="111.29" x2="856.04" y2="139.02"/><circle class="cls-47" cx="858.06" cy="111.27" r="3.92" transform="translate(-5.18 52.45) rotate(-3.49)"/><circle class="cls-47" cx="839.1" cy="108.03" r="3.92" transform="matrix(0.99, -0.13, 0.13, 0.99, -6.91, 113.16)"/><circle class="cls-47" cx="846.89" cy="104.23" r="3.92" transform="translate(-6.12 82.59) rotate(-5.56)"/><line class="cls-46" x1="863.98" y1="131.04" x2="856.04" y2="139.02"/><line class="cls-46" x1="846.61" y1="134.15" x2="856.04" y2="139.02"/><ellipse class="cls-43" cx="825.86" cy="152.18" rx="10.93" ry="5.58"/><ellipse class="cls-43" cx="825.86" cy="141.71" rx="10.91" ry="4.73"/><rect class="cls-43" x="814.95" y="141.71" width="21.82" height="10.4"/><ellipse class="cls-18" cx="825.85" cy="142.34" rx="10.63" ry="4.26"/><line class="cls-46" x1="824.99" y1="143.08" x2="814.63" y2="124.1"/><line class="cls-46" x1="824.99" y1="143.08" x2="822.63" y2="109.02"/><line class="cls-46" x1="830.36" y1="121.57" x2="824.99" y2="143.08"/><line class="cls-46" x1="834.35" y1="134.15" x2="825.43" y2="143.03"/><rect class="cls-51" x="809.23" y="116.56" width="6.98" height="6.98" transform="translate(148.65 -363.63) rotate(27.67)"/><rect class="cls-51" x="818.73" y="105.82" width="6.98" height="6.98" transform="translate(144.75 -369.26) rotate(27.67)"/><rect class="cls-51" x="826.66" y="116.67" width="6.98" height="6.98" transform="translate(124.49 -333.31) rotate(24.49)"/><ellipse class="cls-48" cx="951.28" cy="210.05" rx="5.58" ry="10.93" transform="translate(719.8 1156.34) rotate(-88.71)"/><ellipse class="cls-48" cx="952.58" cy="152.4" rx="4.73" ry="10.91" transform="translate(778.71 1101.3) rotate(-88.71)"/><rect class="cls-48" x="941.02" y="152.39" width="21.82" height="57.66" transform="translate(1899.52 383.9) rotate(-178.71)"/><ellipse class="cls-18" cx="952.58" cy="153.03" rx="4.26" ry="10.63" transform="translate(778.08 1101.91) rotate(-88.71)"/><line class="cls-46" x1="953.42" y1="153.76" x2="964.17" y2="135"/><line class="cls-46" x1="953.42" y1="153.76" x2="954.91" y2="119.66"/><line class="cls-46" x1="946.33" y1="132.77" x2="953.42" y2="153.76"/><line class="cls-46" x1="942.56" y1="144.38" x2="952.99" y2="153.73"/><rect class="cls-52" x="962.68" y="127.5" width="6.98" height="6.98" transform="translate(1889.35 -182.66) rotate(153.51)"/><rect class="cls-52" x="951.84" y="116.44" width="6.98" height="6.98" transform="translate(1848.17 -240.46) rotate(150.86)"/><rect class="cls-52" x="942.94" y="127.85" width="6.98" height="6.98" transform="translate(1837.04 -214.76) rotate(150.86)"/><path class="cls-12" d="M990.14,130.64c1.19-1.83,3-1.77,4.11.13l4.85,8.61c1.07,1.9.16,3.45-2,3.45h-10.9c-2.18,0-3-1.5-1.8-3.33Z"/><path class="cls-12" d="M984.84,147.27a2.8,2.8,0,0,0-3,2.49,3.16,3.16,0,0,1-2.94,2.78l-13.79,1.4a3.08,3.08,0,0,0-2.73,3.19v.16a2.75,2.75,0,0,0,3,2.61l13.34-1.35a2.37,2.37,0,0,1,2.83,2.25,2.57,2.57,0,0,1-2.95,2.32l-13.47-1a3,3,0,0,0-3.18,2.66l0,.19a2.83,2.83,0,0,0,2.6,3.11l13.94,1.08a3.12,3.12,0,0,1,2.83,3.12v.14a2.89,2.89,0,0,1-2.77,2.9,2.89,2.89,0,0,0-2.77,2.9l-.51,24.59a2.89,2.89,0,0,1-2.76,2.9,2.89,2.89,0,0,0-2.76,2.9v.2a2.84,2.84,0,0,0,2.84,2.9h5.61a3,3,0,0,0,3-2.9l.51-24.59a3,3,0,0,1,3-2.9h6.82a2.84,2.84,0,0,1,2.84,2.9L994,202.77a2.89,2.89,0,0,1-2.76,2.9,2.89,2.89,0,0,0-2.76,2.9v.2a2.84,2.84,0,0,0,2.84,2.9h5.61a3,3,0,0,0,3-2.9l1.21-58.6a2.84,2.84,0,0,0-2.84-2.9Z"/><ellipse class="cls-53" cx="1062.64" cy="215.19" rx="1.86" ry="2.15" transform="translate(48.52 598.69) rotate(-32.16)"/><ellipse class="cls-53" cx="1053.86" cy="214.06" rx="1.86" ry="2.15" transform="translate(47.78 593.84) rotate(-32.16)"/><ellipse class="cls-53" cx="1076.96" cy="209.75" rx="1.86" ry="2.15" transform="translate(53.61 605.48) rotate(-32.16)"/><polygon class="cls-54" points="1063.06 213.17 1078.91 206.73 1078.91 176.04 1063.06 180.54 1063.06 213.17"/><polyline class="cls-54" points="1052.04 179.54 1063.06 180.54 1063.06 213.17 1052.04 210.69 1052.04 179.54"/><polygon class="cls-54" points="1078.91 176.04 1066.9 175.13 1052.04 179.09 1063.06 180.54 1078.91 176.04"/><line class="cls-55" x1="1058.88" y1="184.03" x2="1058.88" y2="208.35"/><line class="cls-55" x1="1055.74" y1="183.07" x2="1055.74" y2="207.29"/><polyline class="cls-53" points="1075.14 177.11 1075.14 157.73 1064.55 159.75 1064.55 180.34"/><line class="cls-56" x1="1131.71" y1="122.23" x2="1128.27" y2="206.3"/><line class="cls-56" x1="1096.7" y1="122.23" x2="1089.4" y2="205.15"/><line class="cls-56" x1="1131.71" y1="122.23" x2="1140.99" y2="191.31"/><line class="cls-56" x1="1096.7" y1="122.23" x2="1102.27" y2="190.4"/><polygon class="cls-56" points="1129.68 174.78 1092.64 174.78 1096.09 117.98 1133.13 117.98 1129.68 174.78"/><path class="cls-12" d="M1105.21,132.78c1.12-1.78,2.9-1.75,4,.06l4.88,8.34c1.06,1.81.21,3.29-1.89,3.29h-10.49c-2.1,0-2.9-1.45-1.78-3.23Z"/><path class="cls-12" d="M1124,137a3.26,3.26,0,0,0-3.07,3.16l-.3,5.41a3.4,3.4,0,0,1-3.34,3.16h-28.17a3.18,3.18,0,0,0-3.17,3.17v15.82a3.18,3.18,0,0,0,3.17,3.17h3.64a3.18,3.18,0,0,1,3.17,3.17v31a2.93,2.93,0,0,1-2.6,3.17,2.76,2.76,0,0,0-2.6,2.89,3,3,0,0,0,3.17,2.89h4.65a3,3,0,0,0,3.17-2.89V184.64a3.18,3.18,0,0,1,3.17-3.17h.6a3.18,3.18,0,0,1,3.17,3.17v26.52a3,3,0,0,0,3.17,2.89h4.65a3,3,0,0,0,3.17-2.89,2.76,2.76,0,0,0-2.6-2.89,2.93,2.93,0,0,1-2.6-3.17V157.69a3.18,3.18,0,0,1,3.17-3.17h5.49a3.32,3.32,0,0,0,3.29-3.16l.42-11.18A2.91,2.91,0,0,0,1124,137Zm-30.18,29.18c-1.15,0-2.1-1.42-2.1-3.17v-5c0-1.74.94-3.17,2.1-3.17s2.1,1.42,2.1,3.17v5C1096,164.77,1095,166.2,1093.87,166.2Z"/><line class="cls-57" x1="1123.84" y1="135.37" x2="1122.34" y2="129.73"/><line class="cls-58" x1="1110.15" y1="130.71" x2="1121.65" y2="130.71"/><path class="cls-12" d="M1174.43,236.09a3.25,3.25,0,0,1-3.33-3,3.09,3.09,0,0,1,3.28-2.86h8.9a2.76,2.76,0,0,0,2.8-3.28l-1.69-10.79h26.49a4.16,4.16,0,0,1,3.91,3.72l2.31,13.82c.4,2.34-1,3.74-2.6,3.74a3.21,3.21,0,0,1-3.22-3l-1.49-8.85a3.83,3.83,0,0,0-3.5-3.28c-1.64,0-2.45,1.47-2.14,3.27l7.26,42.33a4.09,4.09,0,0,0,3.88,3.27h4a4,4,0,0,1,3.83,3.28l.87,5.49a2.89,2.89,0,0,1-2.81,3.28,3.44,3.44,0,0,1-3.16-3,4,4,0,0,0-3.86-3h-3a5.85,5.85,0,0,1-5.52-4.57l-3.17-16.79a4.17,4.17,0,0,0-3.94-3.26h-9.59a2.76,2.76,0,0,0-2.8,3.28l3.67,23.41a3.3,3.3,0,0,1-3.36,3.92h-5.93c-1.83,0-3.67-.84-3.67-3.08,0-1.05.84-2.61,3.31-2.61h0a2.76,2.76,0,0,0,2.8-3.28l-3.64-23.2a3.94,3.94,0,0,1,4-4.68h2.48a2.76,2.76,0,0,0,2.8-3.28l-1.1-7Z"/><path class="cls-12" d="M1192,199.19c-1.1-1.46-2.62-1.29-3.38.37l-4.39,9.6a2,2,0,0,0,1.94,3h12.34c1.83,0,2.42-1.19,1.32-2.65Z"/><path class="cls-12" d="M1183.83,197.81a1.76,1.76,0,0,0,1.38-2.84l-4.32-5.54a1.76,1.76,0,1,0-2.77,2.16l4.32,5.54A1.75,1.75,0,0,0,1183.83,197.81Z"/><path class="cls-12" d="M1180.55,204a1.76,1.76,0,0,0,.75-3.34l-7.31-3.46a1.76,1.76,0,0,0-1.5,3.17l7.31,3.46A1.75,1.75,0,0,0,1180.55,204Z"/><path class="cls-12" d="M1170.85,210.54h7.4a1.76,1.76,0,1,0,0-3.51h-7.4a1.76,1.76,0,0,0,0,3.51Z"/><path class="cls-59" d="M299.24,224.11h-6s-4.2,4-4.2,11.83,11.61-6.83,11.61-6.83H308"/><path class="cls-12" d="M320.11,237a2.91,2.91,0,0,0-2.91-2.91H317A2.91,2.91,0,0,0,314.1,237v34.47a2.82,2.82,0,0,1-2.71,2.91,2.82,2.82,0,0,0-2.71,2.91v.2a2.91,2.91,0,0,0,2.91,2.91h5.62a2.91,2.91,0,0,0,2.91-2.91V237Z"/><circle class="cls-60" cx="335.06" cy="270.03" r="15.78"/><line class="cls-61" x1="288.05" y1="246.44" x2="319.75" y2="246.44"/><line class="cls-61" x1="322.33" y1="240.55" x2="309.71" y2="270.03"/><line class="cls-62" x1="317.48" y1="240.4" x2="326.88" y2="240.4"/><polyline class="cls-61" points="288.05 246.44 309.71 270.03 335.06 270.03 319.75 246.44"/><line class="cls-63" x1="322.43" y1="250.55" x2="345.67" y2="250.55"/><path class="cls-12" d="M316.9,197.39c1.11-1.88,3-1.91,4.17-.07l5.58,8.71c1.18,1.84.36,3.35-1.83,3.35l-11.07,0c-2.18,0-3.06-1.53-1.95-3.41Z"/><path class="cls-12" d="M296.09,218.73a2.59,2.59,0,0,0-2.79,2.53,2.9,2.9,0,0,0,3,2.53l12.87,0c1.6,0,2.93.61,3,1.35s-1.25,1.36-2.84,1.36h-4.08a2.64,2.64,0,0,0-2.78,2.64,2.94,2.94,0,0,0,3,2.63h6.8c1.6,0,2.94.63,3,1.41s-1.24,1.41-2.84,1.41H306a2.76,2.76,0,0,0-2.77,2.91l.7,15.17a2.68,2.68,0,0,1-2.6,2.91,2.68,2.68,0,0,0-2.6,2.91v.16a3.08,3.08,0,0,0,3,2.9h5.71a2.76,2.76,0,0,0,2.77-2.91l-.7-15.17a2.76,2.76,0,0,1,2.77-2.91l17,0a2.29,2.29,0,0,0,2.33-2.85l-4.39-21.71a3.71,3.71,0,0,0-3.48-2.84h-9.53a2.73,2.73,0,0,0-2.78,2.84,2.72,2.72,0,0,1-2.78,2.83Z"/><polyline class="cls-61" points="308.64 262.53 301.14 262.53 316.24 276.03 309.58 276.03"/><circle class="cls-60" cx="278.67" cy="270.03" r="15.78"/><path class="cls-61" d="M290.31,238.76l-8.11,27.47s-1.4,3.72-4.58,5.23"/><path class="cls-59" d="M400.7,226h-6s-4.2,4-4.2,11.83S402.14,231,402.14,231h7.27"/><path class="cls-12" d="M421.57,238.89a2.91,2.91,0,0,0-2.91-2.91h-.2a2.91,2.91,0,0,0-2.91,2.91V272a2.82,2.82,0,0,1-2.71,2.91,2.82,2.82,0,0,0-2.71,2.91v.2A2.91,2.91,0,0,0,413,281h5.62a2.91,2.91,0,0,0,2.91-2.91V238.89Z"/><circle class="cls-60" cx="436.51" cy="271.96" r="15.78"/><line class="cls-64" x1="389.5" y1="248.36" x2="421.21" y2="248.36"/><line class="cls-64" x1="423.78" y1="242.48" x2="411.17" y2="271.96"/><line class="cls-65" x1="418.93" y1="242.33" x2="428.33" y2="242.33"/><polyline class="cls-64" points="389.5 248.36 411.17 271.96 436.51 271.96 421.21 248.36"/><line class="cls-63" x1="423.88" y1="252.48" x2="447.12" y2="252.48"/><path class="cls-12" d="M426,199c1.23-1.81,3.08-1.72,4.13.2l4.64,8.52c1,1.92.11,3.49-2.07,3.49h-11c-2.18,0-3-1.48-1.74-3.29Z"/><path class="cls-12" d="M399.68,219.61a3.05,3.05,0,0,0-3,2.89v.18a2.77,2.77,0,0,0,2.78,2.9H412.2c1.6,0,2.88.61,2.85,1.36s-1.37,1.36-3,1.36h-4a3.07,3.07,0,0,0-3,2.9v.18a2.77,2.77,0,0,0,2.78,2.9h4c1.6,0,2.84.48,2.76,1.06s-1.46,1.06-3.06,1.06H407.9a2.91,2.91,0,0,0-2.91,2.91v15.34a2.82,2.82,0,0,1-2.71,2.91,2.82,2.82,0,0,0-2.71,2.91v.2a2.91,2.91,0,0,0,2.91,2.91h5.62a2.91,2.91,0,0,0,2.91-2.91V245.35a2.92,2.92,0,0,1,2.91-2.91h16.85a3.08,3.08,0,0,0,3-2.9l1-21.73a2.76,2.76,0,0,0-2.78-2.9H418.25a2.84,2.84,0,0,0-3,2.41,2.83,2.83,0,0,1-3,2.39Z"/><polyline class="cls-64" points="410.09 264.45 402.59 264.45 417.7 277.95 411.03 277.95"/><circle class="cls-60" cx="380.12" cy="271.96" r="15.78"/><path class="cls-64" d="M391.76,240.69l-8.11,27.47s-1.4,3.72-4.58,5.23"/><path class="cls-12" d="M1233.32,199.7a1.76,1.76,0,0,0,1.38-2.84l-4.32-5.54a1.76,1.76,0,1,0-2.77,2.16l4.32,5.54A1.75,1.75,0,0,0,1233.32,199.7Z"/><path class="cls-12" d="M1230,205.86a1.76,1.76,0,0,0,.75-3.34l-7.31-3.46a1.76,1.76,0,0,0-1.5,3.17l7.31,3.46A1.75,1.75,0,0,0,1230,205.86Z"/><path class="cls-12" d="M1220.34,212.43h7.4a1.76,1.76,0,1,0,0-3.51h-7.4a1.76,1.76,0,0,0,0,3.51Z"/><path class="cls-12" d="M1243,201.08c-1.1-1.46-2.62-1.29-3.38.37l-4.39,9.6a2,2,0,0,0,1.94,3h12.34c1.83,0,2.42-1.19,1.32-2.65Z"/><path class="cls-12" d="M1240.62,253.56s-.25-1.48-.52-3.28l-.37-2.43a4,4,0,0,0-3.81-3.28h-5.27a3.9,3.9,0,0,1-3.79-3.13,2.72,2.72,0,0,1,2.85-3.13H1235a2.78,2.78,0,0,0,2.83-3.28l-2.55-17h23.18a3.88,3.88,0,0,1,3.63,3.28l2.06,13.72a2.7,2.7,0,0,1-2.64,3.28,2.7,2.7,0,0,0-2.64,3.28l.34,2.23,1,6.49,1,6.49.43,2.87a3.88,3.88,0,0,0,3.63,3.28h6.27a3.79,3.79,0,0,1,3.6,3.13l.93,6.18a2.6,2.6,0,0,1-2.68,3.05,3.74,3.74,0,0,1-3.59-3.05,3.85,3.85,0,0,0-3.78-3.05h-5.9a3.9,3.9,0,0,1-3.79-3.13l-1-6.42-.43-2.87a4,4,0,0,0-3.81-3.28h-.83a2.78,2.78,0,0,0-2.83,3.28l2.82,18.73,1,6.42a2.72,2.72,0,0,1-2.85,3.13h-5.27a3.9,3.9,0,0,1-3.79-3.13,2.52,2.52,0,0,1,2.35-3.13c1.55,0,2.6-1.48,2.33-3.28l-2.82-18.73C1240.87,255,1240.64,253.56,1240.62,253.56Z"/></svg>