<svg id="圖層_1" data-name="圖層 1" xmlns="http://www.w3.org/2000/svg" viewBox="0 0 492.63 305.98"><defs><style>.cls-1{fill:#ff9947;}.cls-10,.cls-13,.cls-14,.cls-16,.cls-17,.cls-2,.cls-5,.cls-9{fill:none;}.cls-10,.cls-11,.cls-14,.cls-2,.cls-6,.cls-9{stroke:#e0e0e0;}.cls-11,.cls-12,.cls-13,.cls-14,.cls-16,.cls-17,.cls-2,.cls-6,.cls-7,.cls-9{stroke-linecap:round;}.cls-10,.cls-11,.cls-12,.cls-13,.cls-14,.cls-16,.cls-17,.cls-2,.cls-5,.cls-6,.cls-7,.cls-9{stroke-miterlimit:10;}.cls-2{stroke-width:8.25px;}.cls-11,.cls-12,.cls-3,.cls-6,.cls-7{fill:#e0e0e0;}.cls-4{fill:#004864;}.cls-5{stroke:#004864;stroke-width:2.22px;}.cls-6{stroke-width:4.33px;}.cls-12,.cls-13,.cls-7{stroke:#ff665c;}.cls-7{stroke-width:11px;}.cls-8{fill:#00364b;}.cls-9{stroke-width:10.12px;}.cls-10{stroke-width:1.07px;}.cls-11,.cls-12{stroke-width:3.41px;}.cls-13,.cls-14,.cls-17{stroke-width:4px;}.cls-15{fill:#6bffba;}.cls-16,.cls-17{stroke:#6bffba;}.cls-16{stroke-width:3px;}</style></defs><title>Rethink Taiwan_Landing page animation 4</title><path class="cls-1" d="M254.21,205.72a10.18,10.18,0,0,1-4.72-8.77l3.6-50.64a6.39,6.39,0,0,1,6.31-5.84l12.54.08a6.39,6.39,0,0,0,6.31-5.84l0-.69c.23-3.23-1.79-5.89-4.48-5.91s-4.71-2.68-4.48-5.91l.13-1.9a5.52,5.52,0,0,0-5.47-6l-2.73,0c-3.24,0-8.54-.1-11.78-.13L224.19,114a6.39,6.39,0,0,0-6.31,5.84l0,.69a5.33,5.33,0,0,0,5.17,5.91,5.33,5.33,0,0,1,5.17,5.91L225.85,165a6.38,6.38,0,0,1-6.31,5.83l-49.81-.39c-3.24,0-6,2.1-6.23,4.72S165,180,167.17,180s3.82,2.67,3.59,5.9l-2,28.23a6.68,6.68,0,0,0,5.39,6.89L189,223.59c3.19.55,5.83-1.38,5.86-4.31s2.62-4.65,5.75-3.84l14,3.62c3.14.81,5.53,3.9,5.32,6.87s2,6.46,5,7.78L236.73,239a6.7,6.7,0,0,0,8.32-2.71l1.93-3.34a6.13,6.13,0,0,0-2.07-8.2L235.54,219a5.53,5.53,0,0,1-1.92-7.74,6.21,6.21,0,0,1,8-1.89c2.73,1.51,4.42,3.83,3.76,5.14s1.22,3.47,4.17,4.8l7.4,3.33a6.6,6.6,0,0,0,8.27-2.72l.5-.89a5.9,5.9,0,0,0-2.24-8Z"/><polyline class="cls-2" points="243.81 116.45 225.14 94.96 230 81.45"/><path class="cls-2" d="M215,72.63S210.42,84.94,225.14,95"/><line class="cls-2" x1="242.2" y1="102.6" x2="239.64" y2="111.65"/><polyline class="cls-2" points="259.31 117.75 281.01 96.52 278.08 82.96"/><path class="cls-2" d="M294.27,74.33S297.14,86.69,281,96.52"/><line class="cls-2" x1="262.4" y1="102.42" x2="264.16" y2="113.01"/><path class="cls-3" d="M184.78,182a4.65,4.65,0,0,1-4.51,4.36,4,4,0,0,1-3.89-4.41,4.65,4.65,0,0,1,4.51-4.36A4,4,0,0,1,184.78,182Z"/><path class="cls-3" d="M195.77,191.93a4.65,4.65,0,0,1-4.51,4.36,4,4,0,0,1-3.89-4.41,4.65,4.65,0,0,1,4.51-4.36A4,4,0,0,1,195.77,191.93Z"/><path class="cls-3" d="M208.12,182.13a4.65,4.65,0,0,1-4.51,4.36,4,4,0,0,1-3.89-4.41,4.65,4.65,0,0,1,4.51-4.36A4,4,0,0,1,208.12,182.13Z"/><path class="cls-3" d="M218.63,191a4.65,4.65,0,0,1-4.51,4.36,4,4,0,0,1-3.89-4.41,4.65,4.65,0,0,1,4.51-4.36A4,4,0,0,1,218.63,191Z"/><path class="cls-3" d="M231,182.28a4.65,4.65,0,0,1-4.51,4.36,4,4,0,0,1-3.89-4.41,4.65,4.65,0,0,1,4.51-4.36A4,4,0,0,1,231,182.28Z"/><path class="cls-4" d="M375.77,187a5.9,5.9,0,0,1-5.8-6.46l2.77-32.36a5.92,5.92,0,0,0-5.8-6.49l-4.8-.13a6.83,6.83,0,0,0-6.88,6.15l-5.87,68.54a5.92,5.92,0,0,0,5.8,6.49l39.5,1a6.67,6.67,0,0,0,6.76-6.16L403,193.92a6,6,0,0,0-5.92-6.47Z"/><path class="cls-5" d="M375.77,187a5.9,5.9,0,0,1-5.8-6.46l2.77-32.36a5.92,5.92,0,0,0-5.8-6.49l-4.8-.13a6.83,6.83,0,0,0-6.88,6.15l-5.87,68.54a5.92,5.92,0,0,0,5.8,6.49l39.5,1a6.67,6.67,0,0,0,6.76-6.16L403,193.92a6,6,0,0,0-5.92-6.47Z"/><line class="cls-6" x1="354.87" y1="152.26" x2="350.04" y2="152.13"/><path class="cls-4" d="M399.61,192.26a44.82,44.82,0,0,1,7.14-20.8,40.16,40.16,0,0,1,7.51-8.68,34.84,34.84,0,0,1,10.09-6.07c.94-.32,1.86-.71,2.83-.94s1.92-.5,2.89-.71l2.94-.4c1-.13,2-.12,2.94-.15a37.64,37.64,0,0,1,11.4,1.6,48.92,48.92,0,0,1,19.15,10.8c-7-2.14-13.7-4.15-20.38-4.94a43.92,43.92,0,0,0-9.82-.25,31.69,31.69,0,0,0-9.23,2.1,40.82,40.82,0,0,0-15.58,11.25A93.33,93.33,0,0,0,399.61,192.26Z"/><path class="cls-3" d="M399.61,192.26c.07-1,.19-2,.31-3.07l1.19.42C400.63,190.48,400.15,191.37,399.61,192.26Z"/><path class="cls-3" d="M403.53,177.34c.46-.94.91-1.89,1.4-2.82l4.48,3c-.57.76-1.18,1.51-1.78,2.27Z"/><polygon class="cls-3" points="412.59 164.28 415.04 162.09 419.45 167.89 417.27 169.52 412.59 164.28"/><polygon class="cls-3" points="426.74 155.88 429.98 155.08 431.51 162.44 428.95 163.12 426.74 155.88"/><path class="cls-3" d="M443.07,155.06c1.05.21,2.1.45,3.14.69l-1.13,6c-.94-.06-1.86-.13-2.79-.22Z"/><path class="cls-3" d="M457.82,160.57c.88.54,1.77,1.07,2.63,1.63l-1.18,2.55c-1-.25-1.91-.52-2.86-.78Z"/><path class="cls-4" d="M399.61,192.26a26,26,0,0,1,2-5.09,34.55,34.55,0,0,1,2.88-4.73,37.25,37.25,0,0,1,7.87-8A35.6,35.6,0,0,1,422.58,169,37.82,37.82,0,0,1,434,167.18c1,0,1.94,0,2.9.08l2.87.28c1,.12,1.88.33,2.82.5l1.4.27,1.37.38c.91.26,1.82.51,2.72.79s1.76.65,2.64,1a54.15,54.15,0,0,1,5.09,2.29A60.45,60.45,0,0,1,473,186.08c-6.68-2.83-13-5.73-19.53-7.84s-13-3.54-19.41-3.46a39.52,39.52,0,0,0-18.51,4.63,49.91,49.91,0,0,0-8.37,5.56A63.73,63.73,0,0,0,399.61,192.26Z"/><path class="cls-3" d="M399.61,192.26c.29-1,.64-1.93,1-2.92l1.06.7C401,190.76,400.34,191.51,399.61,192.26Z"/><path class="cls-3" d="M407.41,178.86c.74-.75,1.49-1.51,2.26-2.25l3.27,4.29c-.77.53-1.57,1-2.37,1.55Z"/><polygon class="cls-3" points="420.64 169.73 423.75 168.65 425.6 175.7 422.97 176.37 420.64 169.73"/><path class="cls-3" d="M436.77,167.23c1.08.1,2.16.2,3.24.32L439.1,175c-.91-.06-1.82-.14-2.73-.21Z"/><path class="cls-3" d="M452.29,171c1,.42,1.91.89,2.85,1.33L452.83,178c-.92-.28-1.84-.53-2.74-.83Z"/><path class="cls-3" d="M465.6,179.05c.8.65,1.59,1.3,2.36,2l-1.43,2.25c-.93-.38-1.84-.77-2.75-1.17Z"/><path class="cls-4" d="M399.61,192.26A7.43,7.43,0,0,1,401,190a21,21,0,0,1,1.91-1.88,25.71,25.71,0,0,1,4.43-3,37.31,37.31,0,0,1,10.08-3.69,46.76,46.76,0,0,1,21.46.57,54.38,54.38,0,0,1,19.1,9.37,56.38,56.38,0,0,1,14,15.39c-5.86-3.72-11.45-7.32-17.23-10.34a84.4,84.4,0,0,0-17.79-7,63.15,63.15,0,0,0-18.75-2,52.94,52.94,0,0,0-9.54,1.26,39,39,0,0,0-4.7,1.35,21.38,21.38,0,0,0-2.27,1A8.39,8.39,0,0,0,399.61,192.26Z"/><path class="cls-3" d="M399.61,192.26a4.94,4.94,0,0,1,.7-1.41,10.06,10.06,0,0,1,1-1.25l.8,1.06A8.8,8.8,0,0,0,399.61,192.26Z"/><path class="cls-3" d="M412,182.94c1-.34,2-.66,3-1l1,5.46c-.93.11-1.87.22-2.82.3Z"/><path class="cls-3" d="M427.7,180.39c1.07,0,2.13.1,3.2.18l-.85,7.32c-.92-.1-1.85-.21-2.77-.35Z"/><path class="cls-3" d="M443.37,183.33c1,.38,2,.78,3,1.17l-2.73,6.86c-.89-.3-1.78-.59-2.66-.91Z"/><path class="cls-3" d="M457.27,190.78c.83.63,1.66,1.27,2.47,1.92l-3.14,4.62c-.86-.44-1.71-.9-2.56-1.35Z"/><path class="cls-3" d="M468.4,201.53c.62.82,1.22,1.66,1.83,2.48l-.95,1-2.55-1.62Z"/><line class="cls-7" x1="363.17" y1="151.6" x2="359.58" y2="151.83"/><path class="cls-8" d="M28.92,269.83a8.48,8.48,0,0,0,8.38-8.06l3.94-100.21c1-24.2,20.87-43.82,44.5-43.82h32.81a8.48,8.48,0,0,0,8.38-8.06l.26-6.66A8.48,8.48,0,0,1,135.57,95h.36c4.44,0,8,2.25,7.87,5a4.75,4.75,0,0,0,4.74,5,5.22,5.22,0,0,0,5.13-5c.11-2.75,3.29-5,7.07-5s6.79,2.25,6.68,5,1.56,5,3.7,5,3.76,3.63,3.58,8.06l-.36,9.2a7.71,7.71,0,0,0,7.75,8.06h.36a7.71,7.71,0,0,1,7.75,8.06l-.36,9.2a8.48,8.48,0,0,1-8.38,8.06H162.27a8.48,8.48,0,0,0-8.38,8.06l-1.57,40c-.17,4.43,2.17,8.06,5.22,8.06s5.39,3.63,5.22,8.06l-.48,12.1a7.71,7.71,0,0,0,7.75,8.06h6.89a7.71,7.71,0,0,1,7.75,8.06l-.12,2.94a8.53,8.53,0,0,1-8.38,8.09l-21.57.1a8.5,8.5,0,0,0-8.38,8,7.66,7.66,0,0,0,7.69,8,7.68,7.68,0,0,1,7.68,8.06l-.15,3.85a8.48,8.48,0,0,1-8.38,8.06H27.57a7.71,7.71,0,0,1-7.75-8.06l.36-9.2a8.48,8.48,0,0,1,8.38-8.06Z"/><polyline class="cls-9" points="113.36 169.55 134.43 177.15 147.72 165.44"/><path class="cls-3" d="M110.87,247.1a2.9,2.9,0,0,1,2.57,3.13c0,1.72,1.92,3.13,4.27,3.13h2.48a4.28,4.28,0,0,0,4.27-4.27v-6.36a4.28,4.28,0,0,1,4.27-4.27H129a4.28,4.28,0,0,1,4.27,4.27v20.07a4.28,4.28,0,0,1-4.27,4.27H112.58a4.28,4.28,0,0,1-4.27-4.27V251.36C108.31,249,109.46,247.1,110.87,247.1Z"/><path class="cls-10" d="M110.87,247.1a2.9,2.9,0,0,1,2.57,3.13c0,1.72,1.92,3.13,4.27,3.13h2.48a4.28,4.28,0,0,0,4.27-4.27v-6.36a4.28,4.28,0,0,1,4.27-4.27H129a4.28,4.28,0,0,1,4.27,4.27v20.07a4.28,4.28,0,0,1-4.27,4.27H112.58a4.28,4.28,0,0,1-4.27-4.27V251.36C108.31,249,109.46,247.1,110.87,247.1Z"/><line class="cls-11" x1="117.59" y1="262.25" x2="117.59" y2="275.26"/><line class="cls-11" x1="123.17" y1="262.25" x2="123.17" y2="275.26"/><line class="cls-12" x1="132.74" y1="246.24" x2="134.98" y2="246.24"/><path class="cls-3" d="M96.2,90.45a2.9,2.9,0,0,0-2.57,3.13c0,1.72-1.92,3.13-4.27,3.13H86.89a4.28,4.28,0,0,1-4.27-4.27V86.08a4.28,4.28,0,0,0-4.27-4.27h-.29a4.28,4.28,0,0,0-4.27,4.27v20.07a4.28,4.28,0,0,0,4.27,4.27H94.5a4.28,4.28,0,0,0,4.27-4.27V94.72C98.77,92.37,97.61,90.45,96.2,90.45Z"/><path class="cls-10" d="M96.2,90.45a2.9,2.9,0,0,0-2.57,3.13c0,1.72-1.92,3.13-4.27,3.13H86.89a4.28,4.28,0,0,1-4.27-4.27V86.08a4.28,4.28,0,0,0-4.27-4.27h-.29a4.28,4.28,0,0,0-4.27,4.27v20.07a4.28,4.28,0,0,0,4.27,4.27H94.5a4.28,4.28,0,0,0,4.27-4.27V94.72C98.77,92.37,97.61,90.45,96.2,90.45Z"/><line class="cls-11" x1="89.49" y1="105.6" x2="89.49" y2="118.61"/><line class="cls-11" x1="83.91" y1="105.6" x2="83.91" y2="118.61"/><line class="cls-12" x1="84.81" y1="89.6" x2="82.57" y2="89.6"/><path class="cls-3" d="M101.42,41.35c0-1.65,2.25-3,5-3h3.65c2.75,0,4.16-2.09,3.13-4.64l-2.48-6.15c-4.56-9.87,3.1-14.67,7.63-15.56l7.11,15c1.18,2.49,2.33,2.49,2.56,0l2.08-7.71c2.13-7.87,8.44-7.57,8.44-7.57,2.75.13,5,.29,5,.34L142.1,17l-3.66,13a3.5,3.5,0,0,0,3.64,4.71l1,0a4.89,4.89,0,0,1,5,4.9v.21a5.11,5.11,0,0,1-5,5.08h-.78l-5,.08h0a6.2,6.2,0,0,1-6.2,6.2H115.66c-2.75,0-5-1.55-5-3.44s-2.08-3.41-4.62-3.38S101.42,43,101.42,41.35Z"/><line class="cls-13" x1="150.1" y1="41.71" x2="145.19" y2="41.81"/><line class="cls-14" x1="116.72" y1="45.26" x2="105.64" y2="52.26"/><line class="cls-14" x1="125.34" y1="45.13" x2="110.38" y2="56.13"/><rect class="cls-15" x="413.01" y="228.06" width="15.19" height="9.2" rx="1.48" ry="1.48"/><polyline class="cls-16" points="412.31 234.91 412.31 241.22 408.35 241.35"/><polyline class="cls-16" points="429.43 235.04 429.43 241.35 434.64 241.35"/><line class="cls-17" x1="416.14" y1="226.12" x2="416.14" y2="232.25"/><line class="cls-17" x1="424.6" y1="226.12" x2="424.6" y2="232.25"/><line class="cls-16" x1="418.39" y1="236.11" x2="418.39" y2="241.35"/><line class="cls-16" x1="422.48" y1="236.11" x2="422.48" y2="241.35"/></svg>