<svg id="圖層_1" data-name="圖層 1" xmlns="http://www.w3.org/2000/svg" xmlns:xlink="http://www.w3.org/1999/xlink" viewBox="0 0 516.24 444.73"><defs><style>.cls-1{fill:#fff;}.cls-2{fill:#e0e0e0;}.cls-3{fill:#ff9947;}.cls-10,.cls-11,.cls-13,.cls-14,.cls-15,.cls-16,.cls-17,.cls-18,.cls-19,.cls-20,.cls-21,.cls-22,.cls-23,.cls-24,.cls-25,.cls-26,.cls-4,.cls-5,.cls-6,.cls-7,.cls-8,.cls-9{fill:none;stroke-linecap:round;}.cls-10,.cls-13,.cls-15,.cls-16,.cls-18,.cls-19,.cls-21,.cls-22,.cls-24,.cls-25,.cls-4,.cls-6,.cls-8{stroke:#ff9947;}.cls-10,.cls-13,.cls-16,.cls-19,.cls-22,.cls-25,.cls-4,.cls-6,.cls-8{stroke-miterlimit:10;}.cls-4,.cls-5{stroke-width:6.58px;}.cls-11,.cls-14,.cls-17,.cls-20,.cls-23,.cls-26,.cls-5,.cls-7,.cls-9{stroke:#6bffba;}.cls-11,.cls-14,.cls-15,.cls-17,.cls-18,.cls-20,.cls-21,.cls-23,.cls-24,.cls-26,.cls-5,.cls-7,.cls-9{stroke-linejoin:round;}.cls-6,.cls-7{stroke-width:6.6px;}.cls-8,.cls-9{stroke-width:6.59px;}.cls-10,.cls-11{stroke-width:6.61px;}.cls-12{mask:url(#mask);}.cls-13,.cls-14{stroke-width:6.6px;}.cls-15{stroke-width:6.62px;}.cls-16,.cls-17{stroke-width:6.62px;}.cls-18{stroke-width:6.6px;}.cls-19,.cls-20{stroke-width:6.6px;}.cls-21{stroke-width:6.64px;}.cls-22,.cls-23{stroke-width:6.64px;}.cls-24{stroke-width:6.59px;}.cls-25,.cls-26{stroke-width:6.59px;}</style><mask id="mask" x="197.06" y="368.83" width="41.82" height="84.68" maskUnits="userSpaceOnUse"><rect class="cls-1" x="217.87" y="368.83" width="21" height="84.68"/></mask></defs><title>Rethink Taiwan_Landing page animation 4</title><path class="cls-2" d="M37.88,40.91a3.17,3.17,0,1,1-2.26,3.36A3.17,3.17,0,0,1,37.88,40.91Z"/><path class="cls-2" d="M70.85,59.4A4.36,4.36,0,1,1,67.75,64,4.36,4.36,0,0,1,70.85,59.4Z"/><path class="cls-2" d="M24,20.82a2.26,2.26,0,0,1,3.78,2.35,1.54,1.54,0,0,1-.4.64,2.26,2.26,0,0,1-3.78-2.35A1.54,1.54,0,0,1,24,20.82Z"/><path class="cls-2" d="M27.17,16.16l.51-.12c.4.39,1.73-.24,3-1.4l1.59-.37,1.42-.33a10.72,10.72,0,0,0,2.86.49l.14,0a.65.65,0,0,1,.78.49l0,.1a3.7,3.7,0,0,0,1,1.08,28.39,28.39,0,0,0,4.8,3.82l.43,1.86a4.67,4.67,0,0,1-3.49,5.61l-1.2.28a5.7,5.7,0,0,0-3.15-.36l-.53.12a6.74,6.74,0,0,1-8.1-5L26.86,21c.36-1.47.19-2.8-.37-3l-.13-.54A1.08,1.08,0,0,1,27.17,16.16Z"/><circle class="cls-2" cx="82.01" cy="79.89" r="0.89" transform="translate(-16.01 20.73) rotate(-13.14)"/><path class="cls-2" d="M50.2,24.09c3.68-1.14,7.56,1.22,8.67,5.27l.32,1.18a6.1,6.1,0,0,0,1.53,4l.35,1.27a5.42,5.42,0,0,1-3.32,6.69,12.45,12.45,0,0,1-2.61.71,28.13,28.13,0,0,0-8.46-6.51s-.29-.13-1.14-3.25C44.43,29.44,46.52,25.23,50.2,24.09Z"/><path class="cls-2" d="M84.1,65.7c4.28-1.32,8.79,1.42,10.07,6.13l.37,1.37a7.09,7.09,0,0,0,1.78,4.68l.4,1.47a6.3,6.3,0,0,1-3.86,7.77c-3,.91-3.59.14-3.59.14a28.13,28.13,0,0,0-8.46-6.51s-1.14-.52-2.13-4.14C77.4,71.91,79.82,67,84.1,65.7Z"/><path class="cls-3" d="M472.79,203.16l-14.15-3a8.64,8.64,0,0,1-6.24-10.38h0a8.37,8.37,0,0,1,10.08-6.42l7,1.49a7.37,7.37,0,0,1,5.5,8.9Z"/><path class="cls-3" d="M460.14,227l-.37-33.56a8.51,8.51,0,0,1,8.38-8.63h0a8.51,8.51,0,0,1,8.38,8.63L476.9,227Z"/><polyline class="cls-4" points="473.56 217.2 473.56 226.98 471.87 242.07"/><line class="cls-4" x1="463.4" y1="224.82" x2="462.98" y2="242.24"/><polyline class="cls-5" points="444.78 188.08 455.41 189.14 438.53 194.8"/><path class="cls-3" d="M420.11,252h25.55a0,0,0,0,1,0,0v16.76a0,0,0,0,1,0,0H420.11a8.38,8.38,0,0,1-8.38-8.38v0A8.38,8.38,0,0,1,420.11,252Z" transform="translate(689.04 -168.35) rotate(90)"/><path class="cls-3" d="M422.28,269l12.51-21.67a8.22,8.22,0,0,1,11.49-3h0a8.86,8.86,0,0,1,2.89,11.91l-12.51,21.67Z"/><polyline class="cls-6" points="433.91 264.51 433.91 277.31 430.87 300.89"/><line class="cls-6" x1="446.79" y1="253.05" x2="445.62" y2="277.31"/><line class="cls-6" x1="423.58" y1="276.24" x2="424.89" y2="301.38"/><polyline class="cls-7" points="426.57 238.82 428.69 244.91 417.98 233.51"/><path class="cls-3" d="M395.35,302.66h25.51a0,0,0,0,1,0,0v16.76a0,0,0,0,1,0,0H395.35A8.38,8.38,0,0,1,387,311v0A8.38,8.38,0,0,1,395.35,302.66Z" transform="translate(714.96 -92.87) rotate(90)"/><line class="cls-8" x1="409.08" y1="327.57" x2="406.79" y2="358.43"/><line class="cls-8" x1="398.72" y1="327.22" x2="401.12" y2="357.54"/><polyline class="cls-9" points="406.52 285.2 403.92 295.62 401.31 276.46"/><path class="cls-3" d="M293,401.87H318.7a0,0,0,0,1,0,0v16.76a0,0,0,0,1,0,0H293a8.38,8.38,0,0,1-8.38-8.38v0A8.38,8.38,0,0,1,293,401.87Z" transform="translate(711.92 108.57) rotate(90)"/><polyline class="cls-10" points="306.89 414.43 306.89 425.05 306.89 438.53"/><line class="cls-10" x1="297.1" y1="423.06" x2="294.94" y2="437.79"/><polyline class="cls-11" points="304.93 385.94 301.68 394.75 298.43 379.42"/><line class="cls-11" x1="301.68" y1="394.75" x2="292.8" y2="385.98"/><g class="cls-12"><path class="cls-3" d="M207.29,401.85h25.64a0,0,0,0,1,0,0v16.76a0,0,0,0,1,0,0H207.29a8.38,8.38,0,0,1-8.38-8.38v0A8.38,8.38,0,0,1,207.29,401.85Z" transform="translate(626.15 194.31) rotate(90)"/><polyline class="cls-13" points="221.13 414.41 221.13 425.03 221.13 439.32"/><line class="cls-13" x1="211.86" y1="422.78" x2="200.36" y2="427.28"/><polyline class="cls-14" points="222.28 384.74 215.92 394.75 217.48 378.16"/><line class="cls-14" x1="215.92" y1="394.74" x2="210.29" y2="383.77"/></g><path class="cls-3" d="M251.43,402h25.81a0,0,0,0,1,0,0v16.76a0,0,0,0,1,0,0H251.43a8.38,8.38,0,0,1-8.38-8.38v0a8.38,8.38,0,0,1,8.38-8.38Z" transform="translate(670.54 150.24) rotate(90)"/><polyline class="cls-15" points="265.36 414.59 265.36 424.69 264.55 438.53"/><line class="cls-16" x1="256.09" y1="423" x2="252.68" y2="438.26"/><polyline class="cls-17" points="271.78 384.71 260.15 394.83 265.28 378.16"/><path class="cls-3" d="M341.35,400.27h19a0,0,0,0,1,0,0V417a0,0,0,0,1,0,0h-19a8.38,8.38,0,0,1-8.38-8.38v0A8.38,8.38,0,0,1,341.35,400.27Z" transform="translate(755.33 61.96) rotate(90)"/><polyline class="cls-18" points="351.9 409.53 351.9 419.58 352.54 433.08"/><line class="cls-19" x1="341.62" y1="417.86" x2="339.28" y2="433.62"/><polyline class="cls-20" points="339.1 376.97 346.68 396.46 344.29 368.57"/><path class="cls-3" d="M362.57,363.32h37.26a0,0,0,0,1,0,0v16.76a0,0,0,0,1,0,0H362.57a8.38,8.38,0,0,1-8.38-8.38v0A8.38,8.38,0,0,1,362.57,363.32Z" transform="translate(748.7 -5.31) rotate(90)"/><polyline class="cls-21" points="382.22 381.54 382.22 391.7 382.22 405.36"/><line class="cls-22" x1="372.95" y1="390.01" x2="369.92" y2="405.36"/><polyline class="cls-23" points="379.75 343.8 377.01 350.42 386.83 334.99"/><path class="cls-3" d="M485.09,147.91h19a0,0,0,0,1,0,0v16.76a0,0,0,0,1,0,0h-19a8.38,8.38,0,0,1-8.38-8.38v0A8.38,8.38,0,0,1,485.09,147.91Z" transform="translate(646.67 -334.1) rotate(90)"/><polyline class="cls-24" points="495.6 157.17 495.6 169.35 494.7 180.65"/><line class="cls-25" x1="485.4" y1="165.53" x2="484.92" y2="180.24"/><polyline class="cls-26" points="493.46 133.32 490.39 144.13 486.32 118.62"/><line class="cls-26" x1="489.31" y1="140.87" x2="476.87" y2="124.49"/></svg>