<svg id="圖層_1" data-name="圖層 1" xmlns="http://www.w3.org/2000/svg" xmlns:xlink="http://www.w3.org/1999/xlink" viewBox="0 0 431.04 288"><defs><style>.cls-1{fill:#fff;}.cls-2,.cls-7,.cls-8{fill:#e0e0e0;}.cls-3,.cls-5,.cls-6{fill:none;}.cls-3,.cls-5{stroke:#ff9947;}.cls-3,.cls-5,.cls-6,.cls-7,.cls-8{stroke-miterlimit:10;}.cls-3{stroke-width:2.5px;}.cls-4{mask:url(#mask);}.cls-5{stroke-width:2.86px;}.cls-6,.cls-7{stroke:#e0e0e0;}.cls-6{stroke-width:1.07px;}.cls-7,.cls-8{stroke-linecap:round;stroke-width:3.41px;}.cls-8{stroke:#ff665c;}.cls-9{fill:#ff665c;}.cls-10{fill:#0f9bff;}</style><mask id="mask" x="192.14" y="-43.27" width="173.33" height="208.3" maskUnits="userSpaceOnUse"><rect class="cls-1" x="192.14" y="-43.27" width="173.33" height="150.67"/></mask></defs><title>Rethink Taiwan_Landing page animation 4</title><path class="cls-2" d="M27.73,194.68a2.8,2.8,0,0,1,2.82-2.94H39a2.8,2.8,0,0,0,2.82-2.94v-.21a3.11,3.11,0,0,0-3.07-2.94H17.16a3.5,3.5,0,0,0-3.36,2.91L9.74,217.23a2.49,2.49,0,0,0,2.53,2.91H25.87a3.11,3.11,0,0,1,3.07,2.94l.79,18.57a3.11,3.11,0,0,0,3.07,2.94h6a2.8,2.8,0,0,0,2.82-2.94v-.21a3.08,3.08,0,0,0-3-2.94,3.08,3.08,0,0,1-3-2.94L34.76,217a3.2,3.2,0,0,0-3.07-3h-.21a3.2,3.2,0,0,1-3.07-3l-.1-2.33a2.8,2.8,0,0,1,2.82-2.94H43A3,3,0,0,0,46,202.75v-.2A3,3,0,0,0,43,199.6H30.88a3.11,3.11,0,0,1-3.07-2.94Z"/><path class="cls-2" d="M24.26,169.36c1.11-1.88,3-1.91,4.12-.06l5.52,8.81c1.16,1.85.32,3.36-1.86,3.36H21.13c-2.18,0-3.07-1.54-2-3.43Z"/><path class="cls-2" d="M19.94,169.44a3.47,3.47,0,0,1-3.5,3.65,3.85,3.85,0,0,1-3.81-3.65,3.47,3.47,0,0,1,3.5-3.65A3.85,3.85,0,0,1,19.94,169.44Z"/><path class="cls-2" d="M260.22,12.66c-1.2-1.72-3-1.61-3.94.26L252,21.17c-1,1.87,0,3.38,2.07,3.36l10.5-.11c2.1,0,2.84-1.45,1.63-3.17Z"/><path class="cls-2" d="M259.66,27.71h2.8l.15,2.79L263.18,41a3,3,0,0,0,2.95,2.79h3.73a3,3,0,0,1,2.95,2.79v.2a2.63,2.63,0,0,1-2.64,2.79h-3.73a2.58,2.58,0,0,0-2.65,2.68,2.94,2.94,0,0,0,2.94,2.68h.17a3,3,0,0,1,2.95,2.79l1.24,22.56a2.9,2.9,0,0,0,2.76,2.79,2.9,2.9,0,0,1,2.76,2.79v.2A2.63,2.63,0,0,1,274,88.86h-5.41a3,3,0,0,1-2.95-2.79v-.2l-.31-5.59-.9-16.44A3,3,0,0,0,261.46,61h-7.11a2.63,2.63,0,0,0-2.64,2.79l.9,16.44a2.9,2.9,0,0,0,2.76,2.79,2.9,2.9,0,0,1,2.76,2.79v.2a2.63,2.63,0,0,1-2.64,2.79h-5.41a3,3,0,0,1-2.95-2.79l-1.59-29a39,39,0,0,1,.18-5.57l2.5-21a3.24,3.24,0,0,1,3.13-2.78Z"/><path class="cls-2" d="M254.09,11.64a3.42,3.42,0,0,1-3.45,3.65,3.91,3.91,0,0,1-3.85-3.65A3.42,3.42,0,0,1,250.24,8,3.91,3.91,0,0,1,254.09,11.64Z"/><path class="cls-3" d="M83.13,161.9S36.4,246.2,116.87,283"/><path class="cls-3" d="M75.39,163.72S29,245.21,116.27,282.26"/><path class="cls-3" d="M67.64,165.55s-46.1,78.67,48,115.95"/><path class="cls-3" d="M59.89,167.38s-45.79,75.86,55.2,113.35"/><path class="cls-3" d="M52.14,169.21S6.67,242.25,114.5,280"/><path class="cls-3" d="M49.89,269.39s20.53-66.93,104.5-85.12"/><path class="cls-3" d="M46.14,255.56s19.67-59.39,112.61-73.94"/><path class="cls-3" d="M42.39,241.72S61.2,189.88,163.11,179"/><path class="cls-3" d="M38.64,227.89s17.94-44.3,128.83-51.59"/><path class="cls-3" d="M34.9,214.05S52,177.3,171.83,173.64"/><g class="cls-4"><path class="cls-5" d="M288.32,34.4s-31.16,105.77,67.85,126.83"/><path class="cls-5" d="M280.54,34.85s-29.17,107.37,77.54,127"/><path class="cls-5" d="M272.75,35.29s-27.18,109,87.22,127.13"/><path class="cls-5" d="M265,35.74S239.78,146.32,361.86,163"/><path class="cls-5" d="M257.18,36.19S234,148.37,363.76,163.6"/><path class="cls-5" d="M301.09,20.58S313,144.73,216,153.75"/><path class="cls-5" d="M308.28,26.38s14.11,116.4-91.08,127"/><path class="cls-5" d="M315.48,32.18s16.36,108.65-97,120.78"/><path class="cls-5" d="M322.67,38s18.61,100.91-103,114.59"/><path class="cls-5" d="M329.87,43.77S350.73,136.93,221,152.16"/></g><path class="cls-2" d="M204.73,102.15a2.9,2.9,0,0,0-2.57,3.13c0,1.72-1.92,3.13-4.27,3.13h-2.48a4.28,4.28,0,0,1-4.27-4.27V97.78a4.28,4.28,0,0,0-4.27-4.27h-.29a4.28,4.28,0,0,0-4.27,4.27v20.07a4.28,4.28,0,0,0,4.27,4.27H203a4.28,4.28,0,0,0,4.27-4.27V106.42C207.3,104.07,206.14,102.15,204.73,102.15Z"/><path class="cls-6" d="M204.73,102.15a2.9,2.9,0,0,0-2.57,3.13c0,1.72-1.92,3.13-4.27,3.13h-2.48a4.28,4.28,0,0,1-4.27-4.27V97.78a4.28,4.28,0,0,0-4.27-4.27h-.29a4.28,4.28,0,0,0-4.27,4.27v20.07a4.28,4.28,0,0,0,4.27,4.27H203a4.28,4.28,0,0,0,4.27-4.27V106.42C207.3,104.07,206.14,102.15,204.73,102.15Z"/><line class="cls-7" x1="198.02" y1="117.3" x2="198.02" y2="130.32"/><line class="cls-7" x1="192.44" y1="117.3" x2="192.44" y2="134.49"/><line class="cls-8" x1="182.87" y1="101.3" x2="180.63" y2="101.3"/><path class="cls-2" d="M401.91,145.84c-1.74,0-3.21,1.1-3.27,2.45a2.81,2.81,0,0,1-2.93,2.45,2.81,2.81,0,0,0-2.93,2.46c-.06,1.35-1.5,2.75-3.2,3.09l-7.2,1.47A2.7,2.7,0,0,0,380,161a3.35,3.35,0,0,0,3.88,2l5.4-1a5.59,5.59,0,0,1,5,1.87,2.7,2.7,0,0,1-.84,4.06l-10,5.85a2.94,2.94,0,0,0-1.05,4.17,3.31,3.31,0,0,0,4.41,1l10.48-6.19a3.56,3.56,0,0,1,4.39.38,3.17,3.17,0,0,1-.6,4.17,2.87,2.87,0,1,0,3.65,4.41l10-6.93c1.43-1,3.34-.94,4.24.12a2.29,2.29,0,0,0,3.42.13c1-1,1-3-.06-4.36L421,168.88c-1-1.41-2.74-2.25-3.84-1.86s-2.28-.69-2.63-2.39l-3.21-15.69a4.05,4.05,0,0,0-3.8-3.1Z"/><path class="cls-2" d="M403.41,131.75c1.19-1.73,3-1.63,3.95.23l4.38,8.29c1,1.86.07,3.36-2,3.34l-10.5-.11c-2.1,0-2.85-1.46-1.66-3.19Z"/><path class="cls-2" d="M415.67,137.84a3.47,3.47,0,0,1-3.5-3.65,3.85,3.85,0,0,1,3.81-3.65,3.47,3.47,0,0,1,3.5,3.65A3.85,3.85,0,0,1,415.67,137.84Z"/><path class="cls-9" d="M400.31,145.73l14,17.69-.26-12.67a5.78,5.78,0,0,0-5.55-5.51Z"/><path class="cls-2" d="M315.6,28.73c-1.75-1.16-1.69-2.94.15-4l8.72-4.87c1.84-1,3.25-.14,3.14,2l-.53,10.52c-.11,2.1-1.63,2.87-3.38,1.71Z"/><path class="cls-2" d="M334,27.71h-2.8l-.11,2.8L330.67,42a2.94,2.94,0,0,1-2.9,2.79H323a3,3,0,0,0-2.91,2.79v.2a2.67,2.67,0,0,0,2.68,2.79h4.77c1.54,0,2.75,1,2.69,2.18a2.71,2.71,0,0,1-2.91,2.18h-.17a2.82,2.82,0,0,0-2.81,2.8l-.11,22.55a2.73,2.73,0,0,1-2.62,2.8,2.85,2.85,0,0,0-2.72,2.79v.2a2.67,2.67,0,0,0,2.68,2.79H327a3,3,0,0,0,2.91-2.79v-.2c.06-1.54.11-4.05.1-5.59l-.08-16.43a2.79,2.79,0,0,1,2.78-2.8h7.11a2.82,2.82,0,0,1,2.81,2.8l.08,16.43a2.7,2.7,0,0,1-2.59,2.8,2.85,2.85,0,0,0-2.72,2.79v.2A2.67,2.67,0,0,0,340,88.86h5.41a2.84,2.84,0,0,0,2.83-2.8l.31-28.2c0-1.54-.1-4-.26-5.58l-2.25-21.79A3.18,3.18,0,0,0,343,27.71Z"/><path class="cls-2" d="M322.08,16.13a3.84,3.84,0,0,1-3.8,3.65,3.48,3.48,0,0,1-3.5-3.65,3.84,3.84,0,0,1,3.8-3.65A3.48,3.48,0,0,1,322.08,16.13Z"/><path class="cls-10" d="M331.22,27.71l16.17,15.42,0-10.79a5.8,5.8,0,0,0-5.82-5.23Z"/><path class="cls-9" d="M263.76,27.71,247,43.12l.48-10.79a6.1,6.1,0,0,1,6-5.23Z"/><path class="cls-10" d="M28.34,185.36l-16.8,15.42L12,190a6.1,6.1,0,0,1,6-5.23Z"/></svg>