<svg id="圖層_1" data-name="圖層 1" xmlns="http://www.w3.org/2000/svg" xmlns:xlink="http://www.w3.org/1999/xlink" viewBox="0 0 222.85 225"><defs><style>.cls-1,.cls-10,.cls-6,.cls-7,.cls-8{fill:none;}.cls-2{fill:#00364b;}.cls-2,.cls-6,.cls-8{stroke:#00364b;}.cls-10,.cls-2,.cls-4,.cls-5,.cls-6,.cls-7,.cls-8{stroke-linecap:round;}.cls-2,.cls-4,.cls-5,.cls-7,.cls-8{stroke-linejoin:round;}.cls-2,.cls-8{stroke-width:9.42px;}.cls-3,.cls-4,.cls-5{fill:#ffcd32;}.cls-4,.cls-5{stroke:#006464;}.cls-4{stroke-width:1.56px;}.cls-5{stroke-width:2.34px;}.cls-10,.cls-6{stroke-miterlimit:10;}.cls-6{stroke-width:5.74px;}.cls-10,.cls-7{stroke:#6bffba;}.cls-7{stroke-width:5px;}.cls-9{clip-path:url(#clip-path);}.cls-10{stroke-width:6px;}.cls-11{clip-path:url(#clip-path-2);}.cls-12{clip-path:url(#clip-path-3);}</style><clipPath id="clip-path"><polygon class="cls-1" points="61.04 87.12 25.16 85.61 25.16 116 61.04 117.5 61.04 87.12"/></clipPath><clipPath id="clip-path-2"><polygon class="cls-1" points="66.24 70.19 32.91 60.8 25.32 90.23 58.66 99.62 66.24 70.19"/></clipPath><clipPath id="clip-path-3"><polygon class="cls-1" points="57.16 104.17 23.44 115.71 33.21 144.48 66.93 132.94 57.16 104.17"/></clipPath></defs><title>Rethink Taiwan_Landing page animation 4</title><path class="cls-2" d="M149.61,104.54s-1.79,35.71,26.86,69.73l-59.54,3.79,3.79-73.16Z"/><path class="cls-3" d="M84.55,100.63a4.32,4.32,0,0,1-5-4.25,4.9,4.9,0,0,0-5-4.77h-.35a5,5,0,0,0-5,5v9.88a4.56,4.56,0,0,0,5,4.61l31.52-2.47a4.56,4.56,0,0,1,5,4.61v27.91a5,5,0,0,1-5,5h-3.5a4.73,4.73,0,0,0-4.76,5l1.89,38.78a4.58,4.58,0,0,1-4.42,5,4.85,4.85,0,0,0-4.66,5v.35a5,5,0,0,0,5,5H105a4.72,4.72,0,0,0,4.75-5l-1.92-38.78a4.72,4.72,0,0,1,4.75-5h15.94a5.57,5.57,0,0,1,5.43,5l1.44,16.63a4.48,4.48,0,0,1-4.48,5,5,5,0,0,0-4.92,5v.35a5,5,0,0,0,5,5h10.18a4.66,4.66,0,0,0,4.7-5l-1.7-27.85c-.17-2.74-.3-7.24-.3-10V113.82a5,5,0,0,1,5-5h9.8a5,5,0,0,1,5,5l0,3.65a4.94,4.94,0,0,1-4.54,5.08,4.85,4.85,0,0,0-4.5,5,5,5,0,0,0,5,5l9.1.08a5,5,0,0,0,5-5V102.9a5,5,0,0,0-5-5H115.69c-2.75,0-7.24.23-10,.52Z"/><path class="cls-3" d="M116.84,54c3.57-5.68,9.27-5.59,12.65.21l15.59,26.68c3.39,5.79.67,10.53-6,10.53H105.49c-6.71,0-9.28-4.65-5.7-10.33Z"/><path class="cls-3" d="M130.6,56.09c-7.81-.45-15.22,5.8-18.66,9.09-.76.73-1.81.11-1.89-.93-.3-3.89,0-8.94,3.69-12.48C122.27,43.66,129.28,52,130.6,56.09Z"/><path class="cls-4" d="M128.16,56.34s-1.77-6-7.4-4c-5.19,1.85-4,9.54-4,9.54"/><path class="cls-4" d="M114.24,55.59s-1.86,3.59-.54,7"/><polyline class="cls-5" points="126.12 69.09 133.81 66.75 136.04 67.53"/><polyline class="cls-5" points="119 69.09 111.31 66.75 109.07 67.53"/><path class="cls-4" d="M129.07,73.11s2.08-1.88,6.1-1.1"/><path class="cls-4" d="M116.79,73.11s-2.08-1.88-6.1-1.1"/><polyline class="cls-4" points="119.26 80.64 122.66 82 122.66 72.47"/><line class="cls-4" x1="122.66" y1="82" x2="125.69" y2="80.77"/><polyline class="cls-4" points="112.39 85.74 115.12 86.51 122.41 85.15 130.32 86.51 132.82 85.83"/><line class="cls-6" x1="109.07" y1="140.8" x2="143.83" y2="140.8"/><line class="cls-6" x1="136.04" y1="144.97" x2="136.04" y2="135.53"/><line class="cls-6" x1="112.39" y1="144.97" x2="112.39" y2="135.53"/><line class="cls-7" x1="177.76" y1="128.72" x2="197.01" y2="131.51"/><polyline class="cls-8" points="145.02 97.02 120.72 100.53 110.69 97.9"/><line class="cls-7" x1="109.07" y1="119.13" x2="149.47" y2="125.56"/><g class="cls-9"><path class="cls-10" d="M40.65,102.59s-5.81,6.54-12.33-.28S15.65,102,15.65,102"/><path class="cls-10" d="M90.63,103.7s-5.81,6.54-12.33-.28-12.66-.28-12.66-.28"/><path class="cls-10" d="M115.63,104.26s-5.81,6.54-12.33-.28-12.66-.28-12.66-.28"/><path class="cls-10" d="M65.64,103.14s-5.81,6.54-12.33-.28-12.66-.28-12.66-.28"/></g><g class="cls-11"><path class="cls-10" d="M43.41,78.83s-7.26,4.88-11.87-3.34S19.35,72,19.35,72"/><path class="cls-10" d="M91.54,92.38S84.27,97.27,79.66,89s-12.19-3.43-12.19-3.43"/><path class="cls-10" d="M115.6,99.16s-7.26,4.88-11.87-3.34-12.19-3.43-12.19-3.43"/><path class="cls-10" d="M67.47,85.61s-7.26,4.88-11.87-3.34-12.19-3.43-12.19-3.43"/></g><g class="cls-12"><path class="cls-10" d="M44.45,126.12s-3.4,8.06-11.76,3.7-12.08,3.8-12.08,3.8"/><path class="cls-10" d="M92.15,111.11s-3.4,8.06-11.76,3.7-12.08,3.8-12.08,3.8"/><path class="cls-10" d="M116,103.6s-3.4,8.06-11.76,3.7-12.08,3.8-12.08,3.8"/><path class="cls-10" d="M68.3,118.62s-3.4,8.06-11.76,3.7-12.08,3.8-12.08,3.8"/></g></svg>