<svg id="圖層_1" data-name="圖層 1" xmlns="http://www.w3.org/2000/svg" viewBox="0 0 162.5 114.17"><defs><style>.cls-1{fill:#ff9947;}.cls-2{fill:#004864;}.cls-3{fill:#6bffba;}</style></defs><title>Rethink Taiwan_Landing page animation 4</title><rect class="cls-1" x="2.6" y="19.94" width="157.3" height="79.81" rx="39.9" ry="39.9"/><path class="cls-2" d="M58.84,42.21H37.18v7.65c0,1.14,0,2.45-.12,3.79a33.32,33.32,0,0,0,7.85-2.31c-.67,0-1.49,0-2.39,0a6.38,6.38,0,0,0-.44-1.9c-1.17.53-2.28,1-3.36,1.49l-1-2.07c1.58-.41,3.79-1.14,6-1.81l.32,1.49-1.84.82a14.42,14.42,0,0,0,1.9,0c.29,0,.38-.06.38-.35V45.37H40.72a20.19,20.19,0,0,1,1.69,1.37l-1.55,1.2a16.93,16.93,0,0,0-2.07-1.75l1.11-.82H38.21V43.21h9v5.93a4.51,4.51,0,0,1-.09,1,8.93,8.93,0,0,0,.82-.64l1.31.61-.61-1.28c1.46-.35,3.47-1,5.52-1.58l.29,1.52c-1.49.64-2.83,1.28-4.14,1.87-.18.17-.38.32-.55.5a35.64,35.64,0,0,0,8.9,2.51,8.55,8.55,0,0,0-1.87,2.57,37.46,37.46,0,0,1-9.14-3.56,32,32,0,0,1-9.63,3.53A9.44,9.44,0,0,0,37,54.42c-.26,3.71-1,7.68-2.69,10.45a14.86,14.86,0,0,0-2.63-2.25c2-3.53,2.19-8.79,2.19-12.76V39.38H44.8a16.23,16.23,0,0,0-.61-1.58l3.5-.82a25.5,25.5,0,0,1,1,2.39H58.84ZM56.57,59.5C53,62.5,46.82,63.9,40,64.6a9.69,9.69,0,0,0-1.4-2.42c6.28-.47,12.32-1.61,15.24-3.91ZM52.92,57c-2.74,2-7.15,3.27-11.27,4a9.46,9.46,0,0,0-1.46-1.9c3.74-.53,8.11-1.72,10.36-3.21Zm-3-2.48A21,21,0,0,1,42,58a10.42,10.42,0,0,0-1.61-1.61,22,22,0,0,0,7.21-2.86Zm7.59-5c0,1.14-.2,1.63-.93,2a9.1,9.1,0,0,1-3.15.32,7.82,7.82,0,0,0-.61-2c.64,0,1.4,0,1.63,0s.32-.09.32-.32V45.43H51a21.73,21.73,0,0,1,1.75,1.37L51.14,48a19.1,19.1,0,0,0-2.07-1.75l1.08-.82H48.48V43.27h9Z"/><path class="cls-2" d="M66.54,50.71a35.6,35.6,0,0,0,1.4-7.65l2.6.35a41.11,41.11,0,0,1-1.31,8.23Zm24.87.55a21,21,0,0,0-1-2c-10.36.9-11.94,1.11-13,1.55-.12-.5-.47-1.52-.79-2.39l-1.11.55A38.86,38.86,0,0,0,74,44.61v20H70.6V37.31H74v5.58l2-.82c.53,1.25,1.2,2.86,1.66,4.14a4.08,4.08,0,0,0,.38-.53,40,40,0,0,0,4.06-8.35l3.59,1a53.33,53.33,0,0,1-4.5,8.41l7.39-.5c-.76-1.2-1.58-2.39-2.36-3.42L89,41.37a42.8,42.8,0,0,1,5.28,8.2ZM78.19,52.37h13.6v12.2H88.46V63.41H81.37v1.2H78.19Zm3.18,3.07v4.9h7.09v-4.9Z"/><path class="cls-2" d="M129.06,63.2H118.14v1.31H115V48.81c-.29.44-.61.88-.9,1.26-.2-.32-.55-.85-.93-1.4V51.5h-1.63v9.31c0,1.69-.29,2.54-1.28,3.09a10.66,10.66,0,0,1-4.52.61,15.29,15.29,0,0,0-.93-3.21c1.34.06,2.66.06,3.09,0s.58-.12.58-.55V53.19a28,28,0,0,1-4.85,8.35,13.77,13.77,0,0,0-2.22-2.31,22.72,22.72,0,0,0,4.9-7.74h-4.26c.58-2.48,1.23-6.42,1.66-9.66h-1.49V38.71h11v3.12h-1.69v6.45h1.34c-.29-.38-.58-.73-.82-1a27.4,27.4,0,0,0,4.73-10l3,.79c-.44,1.52-1,3-1.58,4.55h4.12a20.26,20.26,0,0,0-1.37-4l3.06-.91A18.66,18.66,0,0,1,125.68,42l-1.78.55h5v3.09h-4v2.83h3.39v2.92h-3.39v2.8h3.39v2.92h-3.39V60h4.17ZM106.59,41.84c-.29,2.07-.64,4.41-1,6.45h2.89V41.84Zm15.12,3.85h-3.56v2.83h3.56Zm0,5.75h-3.56v2.8h3.56ZM118.14,60h3.56V57.16h-3.56Z"/><path class="cls-2" d="M68.8,75.91H66V74.47H68.8v-.72h1.8v.72h2v1.43h-2v.67H68.8ZM78.86,86.28c0,.75-.12,1.17-.58,1.43a3.94,3.94,0,0,1-1.92.29,4.79,4.79,0,0,0-.27-1v.23H71.26v.43H69.83V84a3.22,3.22,0,0,1-.33.32,9.32,9.32,0,0,0-1-1.05V88H66.79V76.85h5.54v4H70.79l1.14.38c-.14.24-.27.49-.43.73h1.4a4.5,4.5,0,0,0-.4-.76l1.33-.26a5.49,5.49,0,0,1,.55,1H76v1H74.23v.52h1.42v.84H74.23v.53h1.42v.85H74.23v.52h1.86v.33l.84,0c.17,0,.21-.06.21-.23V80.81H73.3v-4h5.56ZM68.48,77.9v.49h2.24V77.9Zm0,1.84h2.24v-.5H68.48Zm0,3.52a9,9,0,0,0,2.06-2.45H68.48Zm4.46-.38H71.26v.52h1.68Zm0,1.36H71.26v.53h1.68Zm-1.68,1.9h1.68v-.52H71.26Zm8.31-11.67v1.43H76.94v.67h-1.8v-.67H73.07V74.47h2.07v-.72h1.8v.72ZM74.93,77.9v.49h2.21V77.9Zm2.21,1.84v-.5H74.93v.5Z"/><path class="cls-2" d="M98,82.17H92.1v3.67c0,1-.23,1.52-.94,1.81A9.13,9.13,0,0,1,88,88a7.3,7.3,0,0,0-.78-1.87c1.07.06,2.25.06,2.57,0s.44-.09.44-.35V82.17h-6V80.35h6V78.24a19.1,19.1,0,0,0,2.94-1.8H85.69v-1.8h9.49l.43-.09L97,75.6A22.69,22.69,0,0,1,92.1,79.2v1.16H98Z"/><path class="cls-1" d="M24,92.5l-4.91,16a1.6,1.6,0,0,0,2.28,1.88L42.15,99.36a1.6,1.6,0,0,0-.27-2.94L26,91.44A1.6,1.6,0,0,0,24,92.5Z"/><path class="cls-3" d="M126.07,8.46l-1.16,5.46h-2.17l1-4.93a2,2,0,0,0,0-1q-.18-.62-1.06-.62a1.88,1.88,0,0,0-1.67.91,3.62,3.62,0,0,0-.47,1.23l-.93,4.39h-2.11l1.72-8.09h2L121.09,7a4.93,4.93,0,0,1,1-.9,3.17,3.17,0,0,1,1.76-.49,2.59,2.59,0,0,1,1.91.66A2.31,2.31,0,0,1,126.07,8.46Z"/><path class="cls-3" d="M134.65,7.17a3.43,3.43,0,0,1,.26,1.67,10.51,10.51,0,0,1-.27,1.61h-5.55a1.67,1.67,0,0,0,.4,1.71,1.51,1.51,0,0,0,1,.3,1.84,1.84,0,0,0,1.15-.37,2.61,2.61,0,0,0,.51-.56h2.16A3.56,3.56,0,0,1,133.24,13a4.52,4.52,0,0,1-3.17,1.18,3.36,3.36,0,0,1-2.52-1q-1-1-.49-3.24a5.64,5.64,0,0,1,1.75-3.23,4.47,4.47,0,0,1,3-1.12,3.75,3.75,0,0,1,1.74.38A2.32,2.32,0,0,1,134.65,7.17Zm-5.2,1.88h3.29a1.55,1.55,0,0,0-.24-1.27,1.3,1.3,0,0,0-1-.44,1.76,1.76,0,0,0-1.24.46A2.93,2.93,0,0,0,129.44,9.05Z"/><path class="cls-3" d="M140.87,5.81H143v5.84l2.5-5.84h2.21l-4.07,8.1h-2.18l0-5.9-2.54,5.9h-2.2l-.56-8.1h2.27l0,5.81Z"/><path class="cls-3" d="M148.36,11.77h2.22l-.45,2.15h-2.21ZM150.18,3h2.33l-.59,2.78-1.69,5.11h-1.11l.47-5.11Z"/></svg>