<svg id="圖層_1" data-name="圖層 1" xmlns="http://www.w3.org/2000/svg" viewBox="0 0 495.93 832"><defs><style>.cls-1{fill:#bebebe;stroke:#bebebe;}.cls-1,.cls-2,.cls-4,.cls-6,.cls-7{stroke-linecap:round;}.cls-1,.cls-2{stroke-linejoin:round;stroke-width:9.42px;}.cls-2,.cls-3{fill:#00364b;}.cls-2,.cls-6{stroke:#00364b;}.cls-4,.cls-6,.cls-7{fill:none;stroke-miterlimit:10;}.cls-4{stroke:#e0e0e0;}.cls-4,.cls-6{stroke-width:4px;}.cls-5{fill:#e0e0e0;}.cls-7{stroke:#6bffba;stroke-width:6px;}</style></defs><title>Rethink Taiwan_Landing page animation 4</title><polygon class="cls-1" points="395.21 57.55 291.27 54.21 245.7 116.29 355.98 117.2 395.21 57.55"/><polygon class="cls-1" points="245.7 116.29 244.04 367.06 350.83 456.96 355.98 117.2 245.7 116.29"/><polygon class="cls-2" points="160.92 487.73 160.86 788.64 200.22 713.26 200.24 514.88 160.92 487.73"/><polygon class="cls-1" points="350.93 554.63 45.88 299.3 45.88 395.78 45.91 395.8 45.92 788.64 156.12 788.64 160.92 487.73 241.84 553.72 350.93 554.63"/><polygon class="cls-2" points="355.98 117.2 351.74 456.96 154.98 299.02 44.62 299.02 350.93 554.63 390.29 479.24 395.31 57.55 355.98 117.2"/><path class="cls-3" d="M221,496.18c1.81,0,3.3,1.8,3.3,4v13.53a4,4,0,0,0,4,4H255.2a4,4,0,0,0,4-4V500.18c0-2.2,1.48-4,3.3-4s3.3,1.8,3.3,4v20.12a4,4,0,0,1-4,4h-5.5a4,4,0,0,0-4,4V580.1c0,2.2,1.34,4,3,4a3.16,3.16,0,0,1,3,3.3c0,1.81-1.8,3.3-4,3.3H249.7a4,4,0,0,1-4-4V559.07a4,4,0,0,0-4-4h-9a4,4,0,0,0-4,4v14.08a4,4,0,0,1-4,4h-3.81c-2.2,0-4-1.35-4-3a2.82,2.82,0,0,1,2.56-3c1.41,0,2.56-1.8,2.56-4V552.9a4,4,0,0,1,4-4h1.15a4,4,0,0,0,4-4l0-16.59a4,4,0,0,0-4-4h-5.5a4,4,0,0,1-4-4V500.18C217.7,498,219.18,496.18,221,496.18Z"/><path class="cls-3" d="M243.77,499.87c-1.28-2-3.31-2-4.52.07l-5.57,9.52c-1.21,2.07-.24,3.76,2.16,3.76h12c2.4,0,3.31-1.66,2-3.69Z"/><line class="cls-4" x1="231.17" y1="543.44" x2="252.29" y2="543.44"/><line class="cls-4" x1="248.18" y1="538.65" x2="248.18" y2="548.15"/><path class="cls-3" d="M111.24,402.47c-.92-2.34-3-2.66-4.57-.72l-8.85,10.8c-1.59,1.94-.84,3.53,1.67,3.53H112c2.51,0,3.81-1.91,2.89-4.25Z"/><path class="cls-3" d="M121.24,421.28a3.76,3.76,0,0,0,3.58-2.88,3.76,3.76,0,0,1,3.58-2.88h.21a2.4,2.4,0,0,1,2.44,3l-1.18,6.07a3.82,3.82,0,0,1-3.59,3H113.52a3.82,3.82,0,0,0-3.59,3L109,435a2.4,2.4,0,0,0,2.44,3h.24a3.76,3.76,0,0,0,3.58-2.88,3.76,3.76,0,0,1,3.58-2.88h.21a2.36,2.36,0,0,1,2.46,2.88L120.42,441l-.06.32a3.82,3.82,0,0,1-3.59,3h-6.49a3.82,3.82,0,0,0-3.59,3l0,.25a2.4,2.4,0,0,0,2.44,3h9.51s-.25,1.33-.57,3l-5.18,26.68a2.32,2.32,0,0,0,2.24,3,2.32,2.32,0,0,1,2.24,3l-.06.32a3.82,3.82,0,0,1-3.59,3h-5.83a2.4,2.4,0,0,1-2.44-3l5.18-26.68a2.4,2.4,0,0,0-2.44-3h-14a3.82,3.82,0,0,0-3.59,3L84.8,489.18a2.38,2.38,0,0,0,2.39,3,2.38,2.38,0,0,1,2.39,3l-.06.32a3.82,3.82,0,0,1-3.59,3H79.79a2.4,2.4,0,0,1-2.44-3l13.82-71.18a3.82,3.82,0,0,1,3.59-3Z"/><line class="cls-4" x1="86.71" y1="447.19" x2="106.52" y2="448.04"/><line class="cls-4" x1="98.51" y1="442.91" x2="97.23" y2="452.41"/><path class="cls-5" d="M201,601.09c-1.29-1.65-3-1.46-3.83.42l-4.72,10.91c-.82,1.89.21,3.43,2.29,3.43h14c2.07,0,2.71-1.35,1.42-3Z"/><path class="cls-5" d="M174.93,623.92l-1.27-7.29-1.48-8.46a3,3,0,0,1,2.91-3.73,4.55,4.55,0,0,1,4.21,3.73l1.48,8.46a4.67,4.67,0,0,0,4.42,3.73h41a4.57,4.57,0,0,1,4.39,3.56l1.27,7.29,1.48,8.46a3,3,0,0,1-2.91,3.73,4.55,4.55,0,0,1-4.21-3.73l-1.48-8.46a4.55,4.55,0,0,0-4.21-3.73,3,3,0,0,0-2.91,3.73L222.1,657A3.07,3.07,0,0,1,219,660.7h-.54a3.07,3.07,0,0,0-3.12,3.73l2.49,14.25a4.55,4.55,0,0,0,4.21,3.73h7.12a4.44,4.44,0,0,1,4.18,3.56l1.23,7a2.88,2.88,0,0,1-3,3.47,4.38,4.38,0,0,1-4.17-3.47,4.51,4.51,0,0,0-4.38-3.47h-6.7A4.57,4.57,0,0,1,212,686l-1.27-7.29-2.49-14.25a18.94,18.94,0,0,0-.85-3.73H196.44a3,3,0,0,0-2.88,3.73l.59,3.35.67,3.82.62,3.56a3,3,0,0,1-3.16,3.47h-6a4.57,4.57,0,0,1-4.39-3.56c-.34-2,.82-3.56,2.58-3.56s2.91-1.68,2.55-3.73l-.59-3.35-1.27-7.29a2.92,2.92,0,0,1,2.94-3.56h7.09a3,3,0,0,0,2.88-3.73l-3.26-18.63a4.67,4.67,0,0,0-4.42-3.73H175.55l-.62-3.56Z"/><line class="cls-6" x1="196.31" y1="647.32" x2="220.42" y2="647.32"/><line class="cls-6" x1="202.27" y1="645.07" x2="203.45" y2="652.57"/><path class="cls-3" d="M292.63,41.57c-2,1.4-1.82,3.4.39,4.44l7.65,3.6a3,3,0,0,0,4.56-2.51l1.44-11.41c.3-2.42-1.07-3.25-3.07-1.84Z"/><path class="cls-3" d="M349.66,54.16a3.85,3.85,0,0,0,3.92,2.93l7.25-.54a3.56,3.56,0,0,1,3.72,3l1.07,7.07A3,3,0,0,1,362.87,70h-.14a3.81,3.81,0,0,1-3.89-2.93l-.08-.36a3.81,3.81,0,0,0-3.89-2.93l-7.57.56a3.8,3.8,0,0,1-3.89-2.93l-2.18-10.54A3.8,3.8,0,0,0,337.36,48l-5.71.42A4.11,4.11,0,0,0,328,51.84l-.54,4.45a2.57,2.57,0,0,0,2.84,3l4.8-.36a2.9,2.9,0,0,1,3.17,3l-.13,6.71a3.6,3.6,0,0,1-3.23,3.47,2.87,2.87,0,0,1-3.1-3v-.34a2.9,2.9,0,0,0-3.17-3l-5.22.39a2.58,2.58,0,0,1-2.86-3l1.26-10.85a2.46,2.46,0,0,0-2.52-3,3.92,3.92,0,0,0-3.29,3.43l-2.7,22a4.12,4.12,0,0,1-3.63,3.46h-.14a2.55,2.55,0,0,1-2.82-3l5.63-44a4.15,4.15,0,0,1,3.64-3.45l24.2-1.79a3.85,3.85,0,0,1,3.92,2.93Z"/><path class="cls-3" d="M301,54.56a2.54,2.54,0,0,1,2.81,3l-1.54,11.85a4.16,4.16,0,0,1-3.65,3.45h-.14a2.54,2.54,0,0,1-2.81-3L297.26,58a4.16,4.16,0,0,1,3.65-3.45Z"/><line class="cls-4" x1="336.08" y1="26.26" x2="336.15" y2="48.05"/><line class="cls-4" x1="332.95" y1="41.25" x2="342.01" y2="39.82"/><path class="cls-3" d="M309.65,166.3a4,4,0,0,0,3.79-3,4,4,0,0,1,3.79-3h.22a2.53,2.53,0,0,1,2.58,3.13l-1.26,6.43A4.05,4.05,0,0,1,315,172.9H294.85A4.05,4.05,0,0,0,291,176l-2.24,11.41-1.23,6.27-.05.27a2.53,2.53,0,0,0,2.58,3.13h2.23a2.53,2.53,0,0,1,2.58,3.13l-2.59,13.25a2.45,2.45,0,0,0,2.36,3.13,2.45,2.45,0,0,1,2.36,3.13l-.07.34a4.05,4.05,0,0,1-3.81,3.13H287a2.53,2.53,0,0,1-2.58-3.13l2.6-13.25a2.53,2.53,0,0,0-2.58-3.13H274.27a4.05,4.05,0,0,0-3.81,3.13l-5.11,26a2.51,2.51,0,0,0,2.52,3.13,2.51,2.51,0,0,1,2.52,3.13l-.07.34a4.05,4.05,0,0,1-3.81,3.13H260a2.53,2.53,0,0,1-2.58-3.13l12.4-63.07a2.53,2.53,0,0,0-2.58-3.13H261a4,4,0,0,0-3.79,3.14l-.46,2.44A2.49,2.49,0,0,0,259,182a2.47,2.47,0,0,1,2.25,3.19h0a4.09,4.09,0,0,1-3.81,3.16l-5.83.05a2.5,2.5,0,0,1-2.58-3.1l3.13-15.92A4.05,4.05,0,0,1,256,166.3Z"/><path class="cls-3" d="M288.23,148.21c-1-2.3-3.08-2.57-4.62-.59l-8.33,10.67c-1.55,2-.76,3.6,1.76,3.6h12.55c2.51,0,3.75-1.89,2.75-4.19Z"/><line class="cls-4" x1="266.41" y1="194.19" x2="287.5" y2="194.19"/><line class="cls-4" x1="271.93" y1="189.52" x2="270.33" y2="197.69"/><line class="cls-4" x1="283.86" y1="189.52" x2="282.25" y2="197.69"/><polyline class="cls-7" points="441.51 126.8 473.92 126.8 437.42 156.79 476.26 201.41 400.44 237.3 392.38 303.18 366.65 318.3 312.84 299.3 301.22 340.8 277.36 330.94 261.58 313.17 232.38 323.4 213.52 299.8 205.92 275.8"/><polyline class="cls-7" points="437.65 69.95 463.69 66.52 455.42 88.8 453.97 101.45"/><polyline class="cls-7" points="140.9 254.51 104.42 239.54 81.55 265.29 51.92 261.8 58.54 295.1 78.05 326.22 96.41 310.71 127.42 342.3 135.42 357.8"/><polyline class="cls-7" points="258.03 622.52 259.92 643.94 252.25 666.46"/><polyline class="cls-7" points="19.67 631.9 63.17 687.65 81.92 694.81 113.89 712.83 156.66 723.15"/></svg>