<svg id="圖層_1" data-name="圖層 1" xmlns="http://www.w3.org/2000/svg" xmlns:xlink="http://www.w3.org/1999/xlink" viewBox="0 0 516.24 444.73"><defs><style>.cls-1{fill:#fff;}.cls-2{fill:#ff9947;}.cls-3,.cls-4,.cls-6{fill:none;stroke-linecap:round;}.cls-3,.cls-6{stroke:#ff9947;}.cls-3{stroke-miterlimit:10;}.cls-3,.cls-4{stroke-width:6.48px;}.cls-4{stroke:#6bffba;}.cls-4,.cls-6{stroke-linejoin:round;}.cls-5{mask:url(#mask);}.cls-6{stroke-width:6.48px;}.cls-7{fill:#e0e0e0;}</style><mask id="mask" x="197.12" y="371.48" width="41.75" height="81.5" maskUnits="userSpaceOnUse"><rect class="cls-1" x="217.87" y="371.48" width="21" height="81.5"/></mask></defs><title>Rethink Taiwan_Landing page animation 4</title><path class="cls-2" d="M472.79,204.3l-14.15-2.95a8.38,8.38,0,0,1-6.24-10.08h0A8.38,8.38,0,0,1,462.48,185l7,1.45a7.15,7.15,0,0,1,5.5,8.64Z"/><path class="cls-2" d="M460.14,227.42l-.37-32.58a8.38,8.38,0,0,1,8.38-8.38h0a8.38,8.38,0,0,1,8.38,8.38l.37,32.58Z"/><line class="cls-3" x1="473.56" y1="217.93" x2="473.56" y2="242.63"/><line class="cls-3" x1="464.28" y1="225.99" x2="456.8" y2="234.57"/><polyline class="cls-4" points="444.78 184.23 455.41 190.69 438.53 190.76"/><path class="cls-2" d="M420.7,253.4h24.37a0,0,0,0,1,0,0v16.76a0,0,0,0,1,0,0H420.7a8.38,8.38,0,0,1-8.38-8.38v0a8.38,8.38,0,0,1,8.38-8.38Z" transform="translate(690.47 -166.91) rotate(90)"/><path class="cls-2" d="M429.88,252h24.37a0,0,0,0,1,0,0v16.76a0,0,0,0,1,0,0H429.88a8.38,8.38,0,0,1-8.38-8.38v0A8.38,8.38,0,0,1,429.88,252Z" transform="translate(886.11 18.27) rotate(120.89)"/><line class="cls-3" x1="433.91" y1="265.8" x2="433.91" y2="301.38"/><line class="cls-3" x1="445.2" y1="254.47" x2="452.88" y2="272.91"/><line class="cls-3" x1="423.91" y1="274.61" x2="420.32" y2="290.28"/><polyline class="cls-4" points="430.7 235.13 428.69 246.88 422.12 230.01"/><path class="cls-2" d="M395.92,304.27h24.37a0,0,0,0,1,0,0V321a0,0,0,0,1,0,0H395.92a8.38,8.38,0,0,1-8.38-8.38v0a8.38,8.38,0,0,1,8.38-8.38Z" transform="translate(716.56 -91.27) rotate(90)"/><line class="cls-3" x1="409.13" y1="316.67" x2="409.13" y2="358.43"/><line class="cls-3" x1="399.85" y1="324.73" x2="389.3" y2="350.3"/><polyline class="cls-4" points="409.13 289.31 403.92 297.75 403.92 280.87"/><path class="cls-2" d="M293.68,402.94H318a0,0,0,0,1,0,0V419.7a0,0,0,0,1,0,0H293.68a8.38,8.38,0,0,1-8.38-8.38v0A8.38,8.38,0,0,1,293.68,402.94Z" transform="translate(713 109.65) rotate(90)"/><polyline class="cls-3" points="306.89 415.34 306.89 425.57 310.05 438.53"/><line class="cls-3" x1="297.61" y1="423.4" x2="286.12" y2="427.73"/><polyline class="cls-4" points="308.18 385.82 301.68 396.42 301.68 379.55"/><line class="cls-4" x1="301.68" y1="396.42" x2="296.05" y2="385.86"/><g class="cls-5"><path class="cls-2" d="M207.92,402.94h24.37a0,0,0,0,1,0,0V419.7a0,0,0,0,1,0,0H207.92a8.38,8.38,0,0,1-8.38-8.38v0A8.38,8.38,0,0,1,207.92,402.94Z" transform="translate(627.24 195.4) rotate(90)"/><polyline class="cls-3" points="221.13 415.34 221.13 425.57 224.3 438.53"/><line class="cls-3" x1="211.86" y1="423.4" x2="200.36" y2="427.73"/><polyline class="cls-4" points="222.42 385.82 215.92 396.42 215.92 379.55"/><line class="cls-4" x1="215.92" y1="396.42" x2="210.29" y2="385.86"/></g><path class="cls-2" d="M252.15,403.2h24.37a0,0,0,0,1,0,0V420a0,0,0,0,1,0,0H252.15a8.38,8.38,0,0,1-8.38-8.38v0a8.38,8.38,0,0,1,8.38-8.38Z" transform="translate(671.72 151.43) rotate(90)"/><polyline class="cls-6" points="265.36 415.6 265.36 425.27 267.29 438.27"/><line class="cls-3" x1="256.09" y1="423.66" x2="246.29" y2="426.94"/><polyline class="cls-4" points="266.65 386.08 260.15 396.68 260.15 379.8"/><path class="cls-2" d="M341.86,401.2h18a0,0,0,0,1,0,0V418a0,0,0,0,1,0,0h-18a8.38,8.38,0,0,1-8.38-8.38v0A8.38,8.38,0,0,1,341.86,401.2Z" transform="translate(756.26 62.89) rotate(90)"/><polyline class="cls-6" points="351.9 410.43 351.9 420.1 353.83 433.1"/><line class="cls-3" x1="342.62" y1="418.49" x2="332.2" y2="424.65"/><polyline class="cls-4" points="341.5 377.55 346.68 397.85 346.68 369.46"/><path class="cls-2" d="M363.66,364.93h35.07a0,0,0,0,1,0,0v16.76a0,0,0,0,1,0,0H363.66a8.38,8.38,0,0,1-8.38-8.38v0A8.38,8.38,0,0,1,363.66,364.93Z" transform="translate(750.32 -3.7) rotate(90)"/><polyline class="cls-6" points="382.22 382.68 382.22 392.36 384.15 405.36"/><line class="cls-3" x1="372.95" y1="390.74" x2="362.52" y2="396.91"/><polyline class="cls-4" points="369.92 344.58 377.01 353.06 377.01 336.18"/><path class="cls-2" d="M485.56,148.75h18a0,0,0,0,1,0,0v16.76a0,0,0,0,1,0,0h-18a8.38,8.38,0,0,1-8.38-8.38v0a8.38,8.38,0,0,1,8.38-8.38Z" transform="translate(647.52 -333.26) rotate(90)"/><polyline class="cls-6" points="495.6 157.98 495.6 167.65 497.53 180.65"/><line class="cls-3" x1="486.33" y1="166.04" x2="477.15" y2="174.9"/><polyline class="cls-4" points="497.53 131.21 490.39 145.4 490.39 117.02"/><line class="cls-4" x1="489.31" y1="142.25" x2="480.94" y2="122.68"/><circle class="cls-7" cx="68.46" cy="68.12" r="3.03" transform="translate(-11.41 13.82) rotate(-10.65)"/><path class="cls-7" d="M39,28.09l1.43-.27c1.06,1.14,3.5.7,5.43-1a17.41,17.41,0,0,1,7.46-3.42,16.1,16.1,0,0,1,6.9.11c2.45.72,4.7,1.1,5,.84l.38-.07a1.81,1.81,0,0,1,2.12,1.45l.05.29c-.06.3,1.1,1.7,2.59,3.12s5.86,7.23,8.08,8.49c0,0,4.85,2.76,5.84,8A13,13,0,0,1,73.84,60.9a9.83,9.83,0,0,1-5.1-.06c-2.36-1-5.52-1.28-7-.7l-1.49.28a18.82,18.82,0,0,1-22-15,16.09,16.09,0,0,1,.1-6.89c.72-2.45,0-4.87-1.54-5.39l-.28-1.51A3,3,0,0,1,39,28.09Z"/><circle class="cls-7" cx="99.44" cy="67.56" r="1.81" transform="translate(-10.77 19.54) rotate(-10.65)"/><path class="cls-7" d="M84.5,63.36a8.71,8.71,0,0,1,10.17,7l.26,1.38a6.52,6.52,0,0,0,1.42,4.75l.28,1.48a6.2,6.2,0,0,1-4.95,7.24c-3.27.61-4.41-.94-4.41-.94a24.06,24.06,0,0,0-6.85-5.9s-2.18-1.15-2.86-4.78A8.71,8.71,0,0,1,84.5,63.36Z"/></svg>