<svg id="圖層_1" data-name="圖層 1" xmlns="http://www.w3.org/2000/svg" viewBox="0 0 162.5 190.5"><defs><style>.cls-1{fill:#ffcd32;}.cls-2,.cls-3,.cls-4,.cls-5,.cls-6,.cls-8{fill:none;}.cls-2,.cls-3,.cls-4,.cls-6{stroke:#006464;}.cls-2,.cls-3,.cls-4,.cls-5,.cls-6{stroke-linecap:round;}.cls-2,.cls-3,.cls-6{stroke-linejoin:round;}.cls-2{stroke-width:2.28px;}.cls-3,.cls-4{stroke-width:1.52px;}.cls-5{stroke:#ffcd32;stroke-width:4.55px;}.cls-6{stroke-width:3.04px;}.cls-7{fill:#ff665c;}.cls-8{stroke:#ff9947;stroke-miterlimit:10;stroke-width:2.5px;}</style></defs><title>Rethink Taiwan_Landing page animation 4</title><path class="cls-1" d="M37.45,30.52c3.62-5.45,9.16-5.22,12.31.51L63.91,56.74c3.15,5.73.38,10.42-6.16,10.42H25c-6.54,0-8.94-4.46-5.32-9.91Z"/><path class="cls-2" d="M46.9,50.68a30.13,30.13,0,0,1,8.12,0"/><polyline class="cls-3" points="36.59 61.23 43.01 63.96 49.9 61.12"/><path class="cls-2" d="M35.85,57.49H33.4a5.09,5.09,0,0,1-5.13-5.31l.16-4.58A2.54,2.54,0,0,1,31,45.17h8.19a2.34,2.34,0,0,1,2.35,2.44l-.16,4.58A5.53,5.53,0,0,1,35.85,57.49Z"/><path class="cls-2" d="M53.06,57.49H50.62a5.09,5.09,0,0,1-5.13-5.31l.16-4.58a2.54,2.54,0,0,1,2.52-2.44h8.19a2.34,2.34,0,0,1,2.35,2.44l-.16,4.58A5.53,5.53,0,0,1,53.06,57.49Z"/><line class="cls-2" x1="41.49" y1="47.61" x2="45.65" y2="47.61"/><line class="cls-4" x1="51.87" y1="50.28" x2="52.37" y2="48.84"/><line class="cls-4" x1="55.03" y1="50.28" x2="55.53" y2="48.84"/><path class="cls-2" d="M40.09,50.68a30,30,0,0,0-8.12,0"/><line class="cls-4" x1="32.21" y1="50.28" x2="31.81" y2="48.84"/><line class="cls-4" x1="35.31" y1="50.28" x2="34.9" y2="48.84"/><line class="cls-5" x1="22.2" y1="39.85" x2="63.82" y2="39.85"/><line class="cls-6" x1="32.81" y1="36.47" x2="52.97" y2="36.47"/><line class="cls-3" x1="58.94" y1="61.36" x2="60.7" y2="59.84"/><line class="cls-3" x1="61.94" y1="61.36" x2="63.7" y2="59.84"/><line class="cls-3" x1="27.35" y1="61.36" x2="25.7" y2="59.84"/><line class="cls-3" x1="24.3" y1="61.36" x2="22.64" y2="59.84"/><path class="cls-1" d="M47.46,87c.16-2,2.55-3.7,5.3-3.7H67.69a5.23,5.23,0,0,0,5.17-5V78A4.81,4.81,0,0,0,68,73H30.81a6.51,6.51,0,0,0-6.07,4.88L14.08,126.71A3.86,3.86,0,0,0,18,131.6h23.1a4.81,4.81,0,0,1,4.83,5l-1.07,31.56a4.81,4.81,0,0,0,4.83,5H59.87a5.23,5.23,0,0,0,5.17-5v-.35a4.77,4.77,0,0,0-4.75-5,4.77,4.77,0,0,1-4.75-5l1.07-31.56a5,5,0,0,0-4.83-5.12h-.34A5.07,5.07,0,0,1,46.56,116l.17-9.91a5.12,5.12,0,0,1,5.09-5h9a5.23,5.23,0,0,0,5.17-5v-.35a4.81,4.81,0,0,0-4.83-5h-9C49.41,90.74,47.29,89.07,47.46,87Z"/><path class="cls-7" d="M43.27,72.09,20.67,92.84l.65-14.52a8.21,8.21,0,0,1,8.12-7Z"/><path class="cls-8" d="M77,45.34s-33.2,124.58,69.25,137.92"/><path class="cls-8" d="M73.66,49s-39.8,129,72,133.53"/><path class="cls-8" d="M70.34,52.59S23.95,186,145,181.73"/><path class="cls-8" d="M67,56.22S14,194,144.45,181"/><path class="cls-8" d="M63.7,59.84S4.12,202.09,143.85,180.19"/><path class="cls-8" d="M45.1,111.46s21.38,85.83,105.35,67.65"/><path class="cls-8" d="M53.16,99.35s7.2,91.19,98.71,78.87"/><path class="cls-8" d="M61.23,87.25s-7,96.55,92.06,90.09"/><path class="cls-8" d="M69.3,75.15S48.14,177.06,154.71,176.46"/><path class="cls-8" d="M77.36,63.05S42,170.32,156.13,175.58"/></svg>