<svg id="圖層_1" data-name="圖層 1" xmlns="http://www.w3.org/2000/svg" viewBox="0 0 193.21 107"><defs><style>.cls-1{fill:#ff9947;}.cls-2{fill:#004864;}.cls-3{fill:#6bffba;}</style></defs><title>Rethink Taiwan_Landing page animation 4</title><rect class="cls-1" x="10.7" y="21.77" width="162.25" height="79.81" rx="39.9" ry="39.9"/><path class="cls-2" d="M68.19,52.8a34.4,34.4,0,0,1-2.28,7.59c.47.29,1,.7,1.81,1.17,2,1.2,4.73,1.37,8.14,1.37a98.91,98.91,0,0,0,11.82-.76,12.61,12.61,0,0,0-1,3.56c-2.39.15-7.56.35-11,.35-3.88,0-6.33-.32-8.44-1.55C66,63.87,65,62.9,64.4,62.9s-1.72,2-2.42,3.65l-2.34-3.3a13.91,13.91,0,0,1,3.06-2.8,28.46,28.46,0,0,0,1.69-5H60.72c.67-1.72,1.43-4.06,2.1-6.33H60.19V46H67c-.61,2-1.31,4.38-2,6.42h1.2l.53-.12Zm-4.9-7.65c-.32-1.34-1.11-3.44-1.58-5l3.06-.9c.53,1.55,1.28,3.5,1.69,4.82Zm12.06-1.08H68v-2.8h7.3V39.2h3.39v2.07h7.65v2.8H78.73v1.43h6.36v9.92H78.73v1.34h8v2.83h-8v2.63H75.34V59.61H68.11V56.77h7.24V55.43H69.21V45.51h6.13ZM72.4,49.33h2.95V47.9H72.4ZM75.34,53V51.55H72.4V53Zm3.39-5.14v1.43h3V47.9Zm3,3.65h-3V53h3Z"/><path class="cls-2" d="M113.9,61.06a61.72,61.72,0,0,1,8.06,3l-2.89,2.34A48.14,48.14,0,0,0,110.66,63l1.87-1.93H104l2.71,1.9a34.76,34.76,0,0,1-8.82,3.5,22.64,22.64,0,0,0-2.36-2.36,31.2,31.2,0,0,0,8.11-3h-8V58.2h3.88V45.36h7q.13-.61.26-1.31H96.47V41.16h10.74c.06-.73.15-1.43.18-2l3.65.35-.29,1.69h10.19V44H110.19c-.12.47-.18.9-.26,1.31h7.94V58.2h3.77v2.86Zm-11-13.54v1.25h11.44V47.52Zm11.44,3.21H102.92v1.11h11.44Zm-11.44,3v1.14h11.44V53.77Zm0,4.44h11.44V56.86H102.92Z"/><path class="cls-2" d="M63.8,80.27a14.15,14.15,0,0,1-1.05,5.27,23.08,23.08,0,0,1,1.84,1.84L63.4,88.88a20,20,0,0,0-1.55-1.71,10.44,10.44,0,0,1-2.59,2.68A6.69,6.69,0,0,0,58,88.6a9.21,9.21,0,0,0,2.57-2.67c-.78-.72-1.58-1.45-2.27-2.06.24-.91.5-2.07.72-3.32l-.85.06L58,78.89l1.29,0c.15-1.1.27-2.19.33-3.2l1.8.08c-.09,1-.21,2-.38,3l1.1-.06v-1h1.69v.87l.79,0V80.2Zm-3,.2c-.18,1-.37,2-.56,2.86l1.17,1a12.53,12.53,0,0,0,.75-3.94Zm11.48,3.12h-3v4.28c0,.93-.2,1.39-.84,1.67a7,7,0,0,1-2.67.29,6.66,6.66,0,0,0-.61-1.72l1.89,0c.26,0,.33-.06.33-.29V83.58h-3.2V81.86h3.2V80.4a12.23,12.23,0,0,0,1.86-2.22H64.7V76.53h5.65l.43-.09,1.22.88a18.49,18.49,0,0,1-2.8,3.4v1.14h3Z"/><path class="cls-2" d="M80.68,76.12a29.88,29.88,0,0,1-1.14,3V89.81H77.82V82.29c-.29.43-.58.81-.85,1.16a15.5,15.5,0,0,0-.88-2A16.93,16.93,0,0,0,79,75.62Zm9.61,9.52H86.24v4.17H84.43V85.64h-4V84h4V82.2H81V80.51h3.4V75.59h1.81v4.92h3.44V82.2H86.24V84h4.05ZM82.6,80.31a27.05,27.05,0,0,0-2-3.27L82,76.35a21.46,21.46,0,0,1,2,3.12Zm7.16-3.47c-.46,1.16-1.11,2.57-1.57,3.46a9.19,9.19,0,0,0-1.52-.7,21.68,21.68,0,0,0,1.46-3.21Z"/><path class="cls-2" d="M99.64,85.37c-.26-.4-.69-1-1.11-1.48v5.94H96.74v-5.6A11.28,11.28,0,0,1,95,85.56a8.92,8.92,0,0,0-.68-1.84,10.68,10.68,0,0,0,3.91-3.94H94.77V78.15h2.67a10.19,10.19,0,0,0-1.23-1.87l1.43-.75A9.77,9.77,0,0,1,99,77.45l-1.2.7h1.42l.3-.08,1,.7A14.4,14.4,0,0,1,98.74,82c.62.55,1.72,1.61,2,1.9Zm9.12,2.19v1.8H100v-1.8h3.67V81.91h-3V80.16h3V75.7h1.87v4.46h2.88v1.75h-2.88v5.65Z"/><path class="cls-2" d="M119.63,79.55h-6.41V78.12h2.65a14.2,14.2,0,0,0-1-1.92l1.42-.65a13.6,13.6,0,0,1,1.11,2l-1,.55h3.21Zm-5.74,2.06V80.23H119v1.37Zm5.07,2h-5.07V82.28H119ZM119,89h-3.55v.64h-1.52V84.38H119Zm-3.55-3.17v1.71h2V85.82Zm11.47-3.38h-2.82v7.39h-1.89V82.44h-2.67V80.66h2.67V75.88h1.89v4.78h2.82Z"/><path class="cls-1" d="M169.46,74.08l11.18,12.51a1.6,1.6,0,0,1-1.28,2.66l-23.54-1.32a1.6,1.6,0,0,1-1-2.78L167.19,74A1.6,1.6,0,0,1,169.46,74.08Z"/><path class="cls-3" d="M145.74,7.89l-1.16,5.46h-2.17l1-4.93a2,2,0,0,0,0-1q-.18-.62-1.06-.62a1.88,1.88,0,0,0-1.67.91A3.62,3.62,0,0,0,140.29,9l-.93,4.39h-2.11L139,5.26h2l-.25,1.18a4.94,4.94,0,0,1,1-.9,3.17,3.17,0,0,1,1.76-.49,2.59,2.59,0,0,1,1.91.66A2.31,2.31,0,0,1,145.74,7.89Z"/><path class="cls-3" d="M154.32,6.6a3.43,3.43,0,0,1,.26,1.67,10.5,10.5,0,0,1-.27,1.61h-5.55a1.67,1.67,0,0,0,.4,1.71,1.51,1.51,0,0,0,1,.3,1.84,1.84,0,0,0,1.15-.37,2.61,2.61,0,0,0,.51-.56H154a3.56,3.56,0,0,1-1.06,1.46,4.52,4.52,0,0,1-3.17,1.18,3.36,3.36,0,0,1-2.52-1q-1-1-.49-3.24a5.64,5.64,0,0,1,1.75-3.23,4.47,4.47,0,0,1,3-1.12,3.75,3.75,0,0,1,1.74.38A2.32,2.32,0,0,1,154.32,6.6Zm-5.2,1.88h3.29a1.55,1.55,0,0,0-.24-1.27,1.29,1.29,0,0,0-1-.43,1.76,1.76,0,0,0-1.24.46A2.93,2.93,0,0,0,149.12,8.48Z"/><path class="cls-3" d="M160.54,5.24h2.15v5.84l2.5-5.84h2.21l-4.07,8.1h-2.18l0-5.9-2.54,5.9h-2.2l-.56-8.1h2.27l0,5.81Z"/><path class="cls-3" d="M168,11.2h2.22l-.45,2.15h-2.21Zm1.81-8.77h2.33l-.59,2.78-1.69,5.11h-1.11l.47-5.11Z"/></svg>