<svg id="圖層_1" data-name="圖層 1" xmlns="http://www.w3.org/2000/svg" viewBox="0 0 222.85 116.47"><defs><style>.cls-1{fill:#ff9947;}.cls-2{fill:#004864;}.cls-3{fill:#6bffba;}</style></defs><title>Rethink Taiwan_Landing page animation 4</title><rect class="cls-1" x="23.21" y="20.55" width="175.82" height="79.81" rx="39.9" ry="39.9"/><path class="cls-2" d="M70.47,39a50.45,50.45,0,0,1-2.22,5.66V65.22H64.87V50.74c-.58.85-1.2,1.63-1.78,2.36a22.4,22.4,0,0,0-1.69-3.77A32.87,32.87,0,0,0,67.29,38ZM83,58.36c2,1.46,4.7,3.53,6.13,4.79L86.7,65.51c-1.37-1.43-4.32-3.77-6.36-5.43l2-1.72H80.11c-1.05,2.54-3.53,5.11-9,7a12.83,12.83,0,0,0-2.22-2.57c4.38-1.23,6.51-2.83,7.5-4.44H69.42v-3H77.3V52.49H73.8a22.74,22.74,0,0,1-1.93,2.42,21.21,21.21,0,0,0-2.69-1.75A17.24,17.24,0,0,0,73,47.5H69.6V44.55H80.78c.15-.85.29-1.66.38-2.48H72.08V39.18h9.78l.55-.15,2.51.29c-.17,1.78-.44,3.59-.73,5.23h4.73V47.5H73.69l2.48.7a15.42,15.42,0,0,1-.67,1.4H87.41v2.89H80.75v2.86h8.09v3Z"/><path class="cls-2" d="M108.12,52.46a46.43,46.43,0,0,0-3.77-2.83A13.2,13.2,0,0,1,99,53.84,11,11,0,0,0,96.8,51.5c3-1.17,4.47-2.6,5.2-4.06H97.15V44.73h2c-.7-.44-1.63-1-2.22-1.26a12.48,12.48,0,0,0,3.21-5.69l3.06.64c-.18.55-.35,1.14-.58,1.72h7.24v2.69H106v1.31a3.9,3.9,0,0,1,0,.58h4.5v2.71h-4.82c1.23.64,4.15,2.31,4.9,2.8Zm-5.43-7.74a5,5,0,0,0,0-.64V42.83h-1.46a13.67,13.67,0,0,1-1.34,1.9ZM101,52.9h19V65.19H116.5v-.93H104.45v1H101Zm3.42,2.71v1.63H116.5V55.62Zm12.06,5.87V59.76H104.45v1.72Zm6.07-21.4V51.15H111.48V40.09Zm-3.44,3.06h-4.44v4.93h4.44Z"/><path class="cls-2" d="M147,58.57h11.33v2.19h-3.88a39.25,39.25,0,0,1,3.88,3.09l-2.83,1.37a31.16,31.16,0,0,0-4.12-3.5l2-1h-4.76a15.39,15.39,0,0,1,1.9,3.27l-3,1.08a14.51,14.51,0,0,0-1.9-3.53l2.45-.82H136.61l2.07,1.11a14.56,14.56,0,0,1-3.91,3.3l-2.54-1.84a11.7,11.7,0,0,0,3.5-2.57h-3.21V58.57h11.12v-1h-9.49V55.7h9.49v-.85h-8.55v-6h8.55V48H132.7V46h10.95v-.9c-2.95.09-5.93.12-8.73.09a6.39,6.39,0,0,0-.5-1.81c7,0,15.12-.23,19.76-.73l2,1.72c-2.66.29-5.84.5-9.17.64v1h11.18v2H147v.85h8.82v6H147v.85h9.78v1.9H147Zm-9.14-17.08h-5.55V39.18h5.55V38h3.39v1.23h3.42v2.31h-3.42v1.37h-3.39Zm5.75,11.82V50.42h-5.49v2.89h2.16a13.51,13.51,0,0,0-1.2-2.19l2.16-.64a10.07,10.07,0,0,1,1.4,2.25l-1.72.58Zm-.41,7.47a16.84,16.84,0,0,1,1.23,3.5l-3.24.79a18.33,18.33,0,0,0-1-3.59ZM158.5,39.15v2.31h-5.31v1.23h-3.36V41.46H146V39.15h3.85V38h3.36v1.2ZM147,50.42v2.89h2.07l-1.28-.41c.41-.73,1.05-1.75,1.37-2.48Zm5.55,0h-2.92l2,.58c-.55.85-1.17,1.66-1.66,2.31h2.6Z"/><path class="cls-2" d="M92.86,76.42l4.54,7.29h0V76.42h2.24V87.29H97.28L92.75,80h0v7.28H90.49V76.42Z"/><path class="cls-2" d="M107.75,84.49h-4.83V82.68h4.83Zm-.33-6.15h-4.19V76.58h4.19Zm5.06,2.44c.64,2.91,2,5.18,4.57,6.15a6.58,6.58,0,0,0-1.2,1.61,7.62,7.62,0,0,1-4-4.32,8.34,8.34,0,0,1-4.45,4.48A7.44,7.44,0,0,0,106,87.2c4.08-1.87,4.51-4.84,4.51-6.81V79h1.95v1.78Zm-2.67-2.18a14.28,14.28,0,0,1-1.66,3.17,13.08,13.08,0,0,0-1.81-1.05,13.58,13.58,0,0,0,2.6-6.3l2,.33c-.15.7-.32,1.39-.52,2.06H115l.35-.11,1.32.78a25.06,25.06,0,0,1-1.58,4.42,13.44,13.44,0,0,0-1.55-.75,19.33,19.33,0,0,0,.9-2.54Z"/><path class="cls-2" d="M128.62,78.67v1.84H133s0,.53,0,.76c-.18,4.19-.37,5.88-.87,6.46a1.63,1.63,0,0,1-1.29.69,12.52,12.52,0,0,1-2.09,0,4.19,4.19,0,0,0-.59-1.78c.78.06,1.49.08,1.83.08a.67.67,0,0,0,.58-.21c.29-.3.46-1.49.58-4.36h-2.54a8.27,8.27,0,0,1-4,6.43,7.37,7.37,0,0,0-1.39-1.25,7.37,7.37,0,0,0,3.65-6.76V78.67H124.6v1.08h-1.46v3.58c.53-.18,1.05-.38,1.57-.55l.35,1.68c-1.8.72-3.72,1.43-5.24,2l-.41-1.9c.55-.15,1.22-.37,2-.62V79.75H119.7V78h1.67V74.68h1.77V78h1.42V76.93h4.07a21.37,21.37,0,0,0-.66-2.28l1.71-.41c.27.72.61,1.69.76,2.27l-1.57.43h4.81v1.74Z"/><path class="cls-1" d="M95.09,94.55l-.76,17.53c-.06,1.49,2.07,1.88,3.13.87l17-16.26a1.68,1.68,0,0,0-1-2.9l-16.65-.84A1.64,1.64,0,0,0,95.09,94.55Z"/><path class="cls-3" d="M165.64,9.37l-1.16,5.46h-2.17l1-4.93a2,2,0,0,0,0-1q-.18-.62-1.06-.62a1.88,1.88,0,0,0-1.67.91,3.62,3.62,0,0,0-.47,1.23l-.93,4.39h-2.11l1.72-8.09h2l-.25,1.18a4.94,4.94,0,0,1,1-.9,3.17,3.17,0,0,1,1.76-.49,2.59,2.59,0,0,1,1.91.66A2.31,2.31,0,0,1,165.64,9.37Z"/><path class="cls-3" d="M174.22,8.08a3.43,3.43,0,0,1,.26,1.67,10.5,10.5,0,0,1-.27,1.61h-5.55a1.67,1.67,0,0,0,.4,1.71,1.51,1.51,0,0,0,1,.3A1.84,1.84,0,0,0,171.2,13a2.61,2.61,0,0,0,.51-.56h2.16a3.56,3.56,0,0,1-1.06,1.46,4.52,4.52,0,0,1-3.17,1.18,3.36,3.36,0,0,1-2.52-1q-1-1-.49-3.24a5.64,5.64,0,0,1,1.75-3.23,4.47,4.47,0,0,1,3-1.12,3.75,3.75,0,0,1,1.74.38A2.32,2.32,0,0,1,174.22,8.08ZM169,10h3.29a1.55,1.55,0,0,0-.24-1.27,1.29,1.29,0,0,0-1-.43,1.76,1.76,0,0,0-1.24.46A2.93,2.93,0,0,0,169,10Z"/><path class="cls-3" d="M180.44,6.72h2.15v5.84l2.5-5.84h2.21l-4.07,8.1h-2.18l0-5.9-2.54,5.9h-2.2l-.56-8.1H178l0,5.81Z"/><path class="cls-3" d="M187.94,12.68h2.22l-.45,2.15h-2.21Zm1.81-8.77h2.33l-.59,2.78-1.69,5.11h-1.11l.47-5.11Z"/></svg>