<svg id="預算表_拷貝" data-name="預算表 拷貝" xmlns="http://www.w3.org/2000/svg" viewBox="0 0 508.76 271.33"><defs><style>.cls-1{fill:#ff9947;}.cls-1,.cls-4{stroke:#e0e0e0;stroke-miterlimit:10;stroke-width:2px;}.cls-2{fill:#001f2e;}.cls-3{fill:#e0e0e0;}.cls-4{fill:none;}</style></defs><title>01_budget</title><rect class="cls-1" x="1" y="1" width="506.76" height="36"/><path class="cls-2" d="M20.84,18.82v1.77h5.42V22.4H23.58L25.28,23c-0.6,1-1.26,2-1.79,2.7h3.65v1.85H12.45V25.72h3.35A14.1,14.1,0,0,0,14.38,23l1.34-.56H13.26V20.58h5.41V18.82H15.22V18q-1.07.51-2.19,0.92A7.32,7.32,0,0,0,11.68,17c3.2-.92,6.25-2.63,7.87-5.17l1.92,0.87L21,13.41A18.85,18.85,0,0,0,28,17a9.85,9.85,0,0,0-1.39,1.77,22.33,22.33,0,0,1-2.31-1v1H20.84ZM16.1,22.4a11.6,11.6,0,0,1,1.48,2.7l-1.39.61h2.48V22.4H16.1ZM22.76,17a19.55,19.55,0,0,1-2.94-2.21A15.14,15.14,0,0,1,17.07,17h5.69ZM20.84,22.4v3.31H23l-1.14-.48a15.56,15.56,0,0,0,1.5-2.84H20.84Z"/><path class="cls-2" d="M36.69,22.67h0.05v5.24H35V27.48H32.76v0.44H31.08V23c-0.2.08-.41,0.17-0.61,0.24a6.91,6.91,0,0,0-1-1.6,11.19,11.19,0,0,0,2.94-1.31l-0.88-.53,1.12-1.17,1.12,0.61a6,6,0,0,0,1-1.12H32.69A7.62,7.62,0,0,1,30.82,20a4.36,4.36,0,0,0-1-1.33,5.91,5.91,0,0,0,2.45-3.14l1.53,0.31a7,7,0,0,1-.29.76h2.14L36,16.59l0,0V15.31H31.4v1.46H29.94V13.72h3c-0.12-.37-0.25-0.76-0.37-1.07l1.61-.56c0.2,0.49.44,1.1,0.65,1.63h2.72v3.06H36.21l0.73,0.53a9.54,9.54,0,0,1-1.68,2.79c0.92,0.53,1.82,1.07,2.4,1.48Zm-0.58,0c-0.56-.41-1.31-0.88-2.11-1.38a11.07,11.07,0,0,1-2.16,1.38h4.27ZM35,25.92V24.24H32.76v1.68H35Zm8-1.36a19.35,19.35,0,0,1,2.77,2l-1.16,1.38a20.44,20.44,0,0,0-2.82-2.23l1-1.14H40.21l1.21,1.26A21,21,0,0,1,37.76,28a9.87,9.87,0,0,0-.83-1.48,15.93,15.93,0,0,0,3.21-2H38.3v-9h2.16c0.07-.37.14-0.78,0.19-1.17H37.88v-1.7h7.6v1.7h-3c-0.1.41-.24,0.82-0.36,1.17h2.92v9H42.94ZM40.1,18.14h3v-1h-3v1Zm0,2.45h3v-1h-3v1Zm0,2.43h3V22h-3v1Z"/><path class="cls-2" d="M86.42,22.71c-2.06.78-4.27,1.58-6,2.19L79.62,23l2.35-.7V15.74H80.08V13.87h5.81v1.87H84v5.9L86.1,21Zm2.24,1.87,1.56,1.1a15.75,15.75,0,0,1-4.4,2.23,10,10,0,0,0-1.22-1.38,13.68,13.68,0,0,0,3.93-2H86.81v-9h2.67c0.08-.39.15-0.8,0.22-1.17H86.11v-1.7h9.62v1.7H92c-0.14.41-.29,0.8-0.43,1.17h3.55v9H88.66Zm0-6.41h4.45V17.1H88.68v1.07Zm0,2.45h4.45V19.53H88.68v1.09Zm0,2.48h4.45V22H88.68V23.1Zm4,1.53A25.11,25.11,0,0,1,96,26.75l-1.6,1.19a24.35,24.35,0,0,0-3.28-2.24Z"/><path class="cls-2" d="M111.6,13V27.74h-2.14V26.69h-7.87v1.05h-2V13H111.6Zm-10,2v2h7.87v-2h-7.87Zm0,3.86v2h7.87v-2h-7.87Zm7.87,5.92v-2h-7.87v2h7.87Z"/><path class="cls-3" d="M83.91,52.88c-0.11.22-.22,0.45-0.35,0.67,1,0.74,2,1.57,2.69,2.18l-0.54,1a29.52,29.52,0,0,0-2.64-2.29,16.71,16.71,0,0,1-1.68,2.18h3.81v1h-1.6v1.73h2v1h-2v4.4l2-.43,0.06,1c-1.9.46-3.94,0.94-5.41,1.28L80,65.54c0.69-.13,1.6-0.3,2.56-0.51V60.4H80.22v-1h2.37V57.63H81.07V56.91q-0.38.38-.77,0.72a8.14,8.14,0,0,0-.48-1.2,11.39,11.39,0,0,0,3.19-4ZM81.3,61.25a16.92,16.92,0,0,1,.62,2.93l-0.82.24a18.86,18.86,0,0,0-.58-3ZM84,64c0.24-.78.54-2,0.7-2.91l0.86,0.29c-0.27,1-.59,2.16-0.86,2.9Zm10.31,2A1,1,0,0,1,93.75,67a6.6,6.6,0,0,1-2.16.19,4,4,0,0,0-.35-1c0.8,0,1.49,0,1.7,0s0.27-.06.27-0.26V59.76H87.46v7.43H86.4V58.73h1V53.08h6v5.65h0.9V66Zm-5.89-7.24h1.18V55.66h2.75V54.09H88.39v4.64Zm3.78,6.1H88.53V60.9h3.63v3.94Zm-0.91-3.06H89.4V64h1.86V61.78Zm1.07-5.17H90.55v2.13h1.78V56.61Z"/><path class="cls-3" d="M110.47,60.82h-6.53v4.77a1.13,1.13,0,0,1-.82,1.34,11.46,11.46,0,0,1-3.14.22,4.66,4.66,0,0,0-.51-1.22c1.3,0,2.47,0,2.82,0s0.43-.1.43-0.38V60.82H96.13V59.63h6.59v-2.3a19.62,19.62,0,0,0,4-2.53h-9V53.63H108l0.26-.06,0.9,0.67a22.63,22.63,0,0,1-5.23,3.7v1.7h6.53v1.18Z"/><path class="cls-3" d="M14.08,62.72a2.29,2.29,0,0,0,.54,1.19,1.52,1.52,0,0,0,1.16.42,1.56,1.56,0,0,0,1.34-.62,2.54,2.54,0,0,0,.46-1.56,2.71,2.71,0,0,0-.43-1.56A1.51,1.51,0,0,0,15.8,60a2.31,2.31,0,0,0-.75.11,1.48,1.48,0,0,0-.84.74l-2.12-.1,0.84-6.65h6.62v2H14.65L14.22,58.7a5,5,0,0,1,.85-0.47A3.61,3.61,0,0,1,16.32,58,3.63,3.63,0,0,1,20,62a4.59,4.59,0,0,1-1.07,3,3.89,3.89,0,0,1-3.2,1.31,4.25,4.25,0,0,1-2.82-.92,3.58,3.58,0,0,1-1.23-2.61h2.36Z"/><path class="cls-3" d="M29.48,55.44a9.36,9.36,0,0,1,.93,4.6,9.31,9.31,0,0,1-.93,4.59,3.4,3.4,0,0,1-3.22,1.61A3.4,3.4,0,0,1,23,64.63,9.31,9.31,0,0,1,22.11,60a9.36,9.36,0,0,1,.93-4.6,3.4,3.4,0,0,1,3.22-1.62A3.4,3.4,0,0,1,29.48,55.44Zm-4.62,7.77a1.37,1.37,0,0,0,1.39,1.1,1.35,1.35,0,0,0,1.38-1.1A11.74,11.74,0,0,0,28,60a11.61,11.61,0,0,0-.33-3.22,1.34,1.34,0,0,0-1.38-1,1.36,1.36,0,0,0-1.39,1A11.21,11.21,0,0,0,24.52,60,11.33,11.33,0,0,0,24.86,63.21Z"/><path class="cls-3" d="M39.79,55.44a9.36,9.36,0,0,1,.93,4.6,9.31,9.31,0,0,1-.93,4.59,3.4,3.4,0,0,1-3.22,1.61,3.4,3.4,0,0,1-3.22-1.61A9.31,9.31,0,0,1,32.41,60a9.36,9.36,0,0,1,.93-4.6,3.4,3.4,0,0,1,3.22-1.62A3.4,3.4,0,0,1,39.79,55.44Zm-4.62,7.77a1.37,1.37,0,0,0,1.39,1.1,1.35,1.35,0,0,0,1.38-1.1A11.74,11.74,0,0,0,38.27,60a11.61,11.61,0,0,0-.33-3.22,1.34,1.34,0,0,0-1.38-1,1.36,1.36,0,0,0-1.39,1A11.21,11.21,0,0,0,34.83,60,11.33,11.33,0,0,0,35.17,63.21Z"/><path class="cls-3" d="M12.36,105.08a6.69,6.69,0,0,1,2.39-2.55,17.52,17.52,0,0,0,2.12-1.68,2.48,2.48,0,0,0,.74-1.73,1.91,1.91,0,0,0-.42-1.27A1.49,1.49,0,0,0,16,97.35a1.48,1.48,0,0,0-1.47.81,4,4,0,0,0-.27,1.48h-2.3a5.8,5.8,0,0,1,.56-2.48,3.47,3.47,0,0,1,3.37-1.8,4.27,4.27,0,0,1,3,1.06A3.66,3.66,0,0,1,20,99.21a3.79,3.79,0,0,1-.8,2.37,8,8,0,0,1-1.72,1.54l-0.95.67q-0.89.63-1.22,0.91a2.68,2.68,0,0,0-.55.66H20v2.08H11.8A5.65,5.65,0,0,1,12.36,105.08Z"/><path class="cls-3" d="M24.38,104.23a2.29,2.29,0,0,0,.54,1.19,1.52,1.52,0,0,0,1.16.42,1.56,1.56,0,0,0,1.34-.62,2.54,2.54,0,0,0,.46-1.56,2.71,2.71,0,0,0-.43-1.56,1.51,1.51,0,0,0-1.34-.63,2.31,2.31,0,0,0-.75.11,1.48,1.48,0,0,0-.84.74l-2.12-.1,0.84-6.65h6.62v2H25l-0.43,2.63a5,5,0,0,1,.85-0.47,3.61,3.61,0,0,1,1.25-.19,3.63,3.63,0,0,1,3.71,3.93,4.59,4.59,0,0,1-1.07,3,3.89,3.89,0,0,1-3.2,1.31,4.25,4.25,0,0,1-2.82-.92A3.58,3.58,0,0,1,22,104.23h2.36Z"/><path class="cls-3" d="M39.79,96.95a9.36,9.36,0,0,1,.93,4.6,9.31,9.31,0,0,1-.93,4.59,3.4,3.4,0,0,1-3.22,1.61,3.4,3.4,0,0,1-3.22-1.61,9.31,9.31,0,0,1-.93-4.59,9.36,9.36,0,0,1,.93-4.6,3.4,3.4,0,0,1,3.22-1.62A3.4,3.4,0,0,1,39.79,96.95Zm-4.62,7.77a1.37,1.37,0,0,0,1.39,1.1,1.35,1.35,0,0,0,1.38-1.1,11.74,11.74,0,0,0,.33-3.18,11.61,11.61,0,0,0-.33-3.22,1.34,1.34,0,0,0-1.38-1,1.36,1.36,0,0,0-1.39,1,11.21,11.21,0,0,0-.34,3.22A11.33,11.33,0,0,0,35.17,104.72Z"/><path class="cls-3" d="M12.36,153.75a6.69,6.69,0,0,1,2.39-2.55,17.52,17.52,0,0,0,2.12-1.68,2.48,2.48,0,0,0,.74-1.73,1.91,1.91,0,0,0-.42-1.27A1.49,1.49,0,0,0,16,146a1.48,1.48,0,0,0-1.47.81,4,4,0,0,0-.27,1.48h-2.3a5.8,5.8,0,0,1,.56-2.48,3.47,3.47,0,0,1,3.37-1.8,4.27,4.27,0,0,1,3,1.06,3.66,3.66,0,0,1,1.13,2.8,3.79,3.79,0,0,1-.8,2.37,8,8,0,0,1-1.72,1.54l-0.95.67q-0.89.63-1.22,0.91a2.68,2.68,0,0,0-.55.66H20v2.08H11.8A5.65,5.65,0,0,1,12.36,153.75Z"/><path class="cls-3" d="M29.48,145.61a11.86,11.86,0,0,1,0,9.19,3.4,3.4,0,0,1-3.22,1.61A3.4,3.4,0,0,1,23,154.8a11.86,11.86,0,0,1,0-9.19A3.4,3.4,0,0,1,26.26,144,3.4,3.4,0,0,1,29.48,145.61Zm-4.62,7.77a1.37,1.37,0,0,0,1.39,1.1,1.35,1.35,0,0,0,1.38-1.1,11.74,11.74,0,0,0,.33-3.18,11.61,11.61,0,0,0-.33-3.22,1.34,1.34,0,0,0-1.38-1,1.36,1.36,0,0,0-1.39,1,11.21,11.21,0,0,0-.34,3.22A11.33,11.33,0,0,0,24.86,153.39Z"/><path class="cls-3" d="M39.79,145.61a11.86,11.86,0,0,1,0,9.19,3.4,3.4,0,0,1-3.22,1.61,3.4,3.4,0,0,1-3.22-1.61,11.86,11.86,0,0,1,0-9.19A3.4,3.4,0,0,1,36.56,144,3.4,3.4,0,0,1,39.79,145.61Zm-4.62,7.77a1.37,1.37,0,0,0,1.39,1.1,1.35,1.35,0,0,0,1.38-1.1,11.74,11.74,0,0,0,.33-3.18,11.61,11.61,0,0,0-.33-3.22,1.34,1.34,0,0,0-1.38-1,1.36,1.36,0,0,0-1.39,1,11.21,11.21,0,0,0-.34,3.22A11.33,11.33,0,0,0,35.17,153.39Z"/><path class="cls-3" d="M14.08,199.56a2.29,2.29,0,0,0,.54,1.19,1.52,1.52,0,0,0,1.16.42,1.56,1.56,0,0,0,1.34-.62,2.54,2.54,0,0,0,.46-1.56,2.71,2.71,0,0,0-.43-1.56,1.51,1.51,0,0,0-1.34-.63,2.31,2.31,0,0,0-.75.11,1.48,1.48,0,0,0-.84.74l-2.12-.1,0.84-6.65h6.62v2H14.65l-0.43,2.63a5,5,0,0,1,.85-0.47,3.61,3.61,0,0,1,1.25-.19A3.63,3.63,0,0,1,20,198.8a4.59,4.59,0,0,1-1.07,3,3.89,3.89,0,0,1-3.2,1.31,4.25,4.25,0,0,1-2.82-.92,3.58,3.58,0,0,1-1.23-2.61h2.36Z"/><path class="cls-3" d="M29.48,192.28a11.86,11.86,0,0,1,0,9.19,3.4,3.4,0,0,1-3.22,1.61A3.4,3.4,0,0,1,23,201.47a11.86,11.86,0,0,1,0-9.19,3.4,3.4,0,0,1,3.22-1.62A3.4,3.4,0,0,1,29.48,192.28Zm-4.62,7.77a1.37,1.37,0,0,0,1.39,1.1,1.35,1.35,0,0,0,1.38-1.1,11.74,11.74,0,0,0,.33-3.18,11.61,11.61,0,0,0-.33-3.22,1.34,1.34,0,0,0-1.38-1,1.36,1.36,0,0,0-1.39,1,11.21,11.21,0,0,0-.34,3.22A11.33,11.33,0,0,0,24.86,200.05Z"/><path class="cls-3" d="M39.79,192.28a11.86,11.86,0,0,1,0,9.19,3.4,3.4,0,0,1-3.22,1.61,3.4,3.4,0,0,1-3.22-1.61,11.86,11.86,0,0,1,0-9.19,3.4,3.4,0,0,1,3.22-1.62A3.4,3.4,0,0,1,39.79,192.28Zm-4.62,7.77a1.37,1.37,0,0,0,1.39,1.1,1.35,1.35,0,0,0,1.38-1.1,11.74,11.74,0,0,0,.33-3.18,11.61,11.61,0,0,0-.33-3.22,1.34,1.34,0,0,0-1.38-1,1.36,1.36,0,0,0-1.39,1,11.21,11.21,0,0,0-.34,3.22A11.33,11.33,0,0,0,35.17,200.05Z"/><path class="cls-3" d="M252.74,59.7c-0.88.3-1.78,0.58-2.67,0.8a4.62,4.62,0,0,0-.61-1,35.09,35.09,0,0,0,6.26-2.1H250v-1h5.43v-1.5h-4v-1h4V52.57h1.18v1.25h3.59v1a14.89,14.89,0,0,0,2-1.74l1,0.59a16.67,16.67,0,0,1-3.25,2.66H264v1h-5.91c-0.77.43-1.57,0.8-2.38,1.17h6.32v5.09h-9.33V59.7Zm-2.93,6.87a7.43,7.43,0,0,0,2-2.67l1.12,0.3a9,9,0,0,1-2.06,2.93Zm11.09-7.17h-7v1.25h7V59.39Zm0,2.08h-7v1.28h7V61.47Zm-5.35,2.8a15.47,15.47,0,0,1,.37,2.58l-1.17.16a15.19,15.19,0,0,0-.3-2.62Zm2.23-7.94a20.82,20.82,0,0,0,2.38-1.5h-3.59v1.5h1.2Zm1.07,7.81a12.31,12.31,0,0,1,1,2.56l-1.15.27a13.09,13.09,0,0,0-.9-2.62Zm3.27-.26a17.38,17.38,0,0,1,2,2.77l-1.12.48a16.49,16.49,0,0,0-2-2.85Z"/><path class="cls-3" d="M267.91,55.69a11.62,11.62,0,0,1-1.68,1.46,6.55,6.55,0,0,0-.56-1.1A10,10,0,0,0,269,52.46l1,0.35c-0.11.19-.22,0.38-0.34,0.59a23.38,23.38,0,0,1,2.5,1.79l-0.59.83a30,30,0,0,0-2.43-1.82A14.47,14.47,0,0,1,268,55.61h2.64v0.82h-2.72V55.69Zm3,10.93c-0.1-.35-0.26-0.78-0.42-1.23-3.25,1.3-3.73,1.52-4,1.75a4.49,4.49,0,0,0-.42-1,1,1,0,0,0,.67-1V57.37h4.8v5.36H267.8v2.69l2.4-.9-0.46-1.1,0.9-.29c0.43,1,1,2.34,1.22,3.11Zm-3.12-8.34V59.5h2.75V58.29H267.8Zm2.75,3.54V60.38H267.8v1.44h2.75Zm9.22-4.64a17.35,17.35,0,0,1-2.23,6.58,8,8,0,0,0,2.87,2.45,4.24,4.24,0,0,0-.78.91,8.64,8.64,0,0,1-2.77-2.4,9.49,9.49,0,0,1-2.83,2.5,4.6,4.6,0,0,0-.7-0.88,8.34,8.34,0,0,0,2.9-2.59,18.63,18.63,0,0,1-2.08-5.67h0v0.86c0,2.43-.19,5.91-1.5,8.21a5.93,5.93,0,0,0-.91-0.58c1.25-2.21,1.34-5.33,1.34-7.63V53.48h6.75v1.09h-5.68V57h4.77l0.21,0Zm-4.61.9a16,16,0,0,0,1.7,4.66,13.93,13.93,0,0,0,1.66-4.66h-3.36Z"/><path class="cls-3" d="M252.74,101.2c-0.88.3-1.78,0.58-2.67,0.8a4.62,4.62,0,0,0-.61-1,35.09,35.09,0,0,0,6.26-2.1H250v-1h5.43v-1.5h-4v-1h4V94.08h1.18v1.25h3.59v1a14.89,14.89,0,0,0,2-1.74l1,0.59a16.67,16.67,0,0,1-3.25,2.66H264v1h-5.91c-0.77.43-1.57,0.8-2.38,1.17h6.32v5.09h-9.33V101.2Zm-2.93,6.87a7.43,7.43,0,0,0,2-2.67l1.12,0.3a9,9,0,0,1-2.06,2.93Zm11.09-7.17h-7v1.25h7V100.9Zm0,2.08h-7v1.28h7V103Zm-5.35,2.8a15.47,15.47,0,0,1,.37,2.58l-1.17.16a15.19,15.19,0,0,0-.3-2.62Zm2.23-7.94a20.82,20.82,0,0,0,2.38-1.5h-3.59v1.5h1.2Zm1.07,7.81a12.31,12.31,0,0,1,1,2.56l-1.15.27a13.09,13.09,0,0,0-.9-2.62Zm3.27-.26a17.38,17.38,0,0,1,2,2.77l-1.12.48a16.49,16.49,0,0,0-2-2.85Z"/><path class="cls-3" d="M267.91,97.2a11.62,11.62,0,0,1-1.68,1.46,6.55,6.55,0,0,0-.56-1.1A10,10,0,0,0,269,94l1,0.35c-0.11.19-.22,0.38-0.34,0.59a23.38,23.38,0,0,1,2.5,1.79l-0.59.83a30,30,0,0,0-2.43-1.82A14.47,14.47,0,0,1,268,97.12h2.64v0.82h-2.72V97.2Zm3,10.93c-0.1-.35-0.26-0.78-0.42-1.23-3.25,1.3-3.73,1.52-4,1.75a4.49,4.49,0,0,0-.42-1,1,1,0,0,0,.67-1V98.88h4.8v5.36H267.8v2.69l2.4-.9-0.46-1.1,0.9-.29c0.43,1,1,2.34,1.22,3.11ZM267.8,99.8V101h2.75V99.8H267.8Zm2.75,3.54v-1.44H267.8v1.44h2.75Zm9.22-4.64a17.35,17.35,0,0,1-2.23,6.58,8,8,0,0,0,2.87,2.45,4.24,4.24,0,0,0-.78.91,8.64,8.64,0,0,1-2.77-2.4,9.49,9.49,0,0,1-2.83,2.5,4.6,4.6,0,0,0-.7-0.88,8.34,8.34,0,0,0,2.9-2.59,18.63,18.63,0,0,1-2.08-5.67h0v0.86c0,2.43-.19,5.91-1.5,8.21a5.93,5.93,0,0,0-.91-0.58c1.25-2.21,1.34-5.33,1.34-7.63V95h6.75v1.09h-5.68v2.45h4.77l0.21,0Zm-4.61.9a16,16,0,0,0,1.7,4.66,13.93,13.93,0,0,0,1.66-4.66h-3.36Z"/><path class="cls-3" d="M252.18,147.92a3.44,3.44,0,0,1-1.94,2.95,2.38,2.38,0,0,0-.67-0.77,2.61,2.61,0,0,0,1.52-2.18h-1.15v-1h4V146H250.7v-3h1v2h2.18v-2.31H255v7.84h-1.12v-2.64h-1.73Zm11.09,5.14a21.58,21.58,0,0,1-2.83,1.62,10.81,10.81,0,0,0,4,1.63,3.65,3.65,0,0,0-.69,1,9.91,9.91,0,0,1-6.8-5.11h0a12.4,12.4,0,0,1-2.46,1.5v2.26l3.75-.77a6.61,6.61,0,0,0,0,.94c-4.32,1-4.83,1.14-5.15,1.31a4.4,4.4,0,0,0-.48-0.94,1.27,1.27,0,0,0,.77-1.18v-1.12a17.94,17.94,0,0,1-2.93.88,4.19,4.19,0,0,0-.66-0.88,18.13,18.13,0,0,0,5.62-2h-5.39v-0.94h6.66c-0.16-.34-0.35-0.72-0.53-1l1.14-.34a10.28,10.28,0,0,1,.74,1.36h6.26v0.94h-6.07a7.87,7.87,0,0,0,1.6,1.92,22.28,22.28,0,0,0,2.72-1.65ZM259.16,146h-3.44v-1h3.44v-2.21h1.17v2.21h3.59v1h-3.59v2.64h3.27v1h-7.52v-1h3.09V146Z"/><path class="cls-3" d="M267.91,145.87a11.62,11.62,0,0,1-1.68,1.46,6.55,6.55,0,0,0-.56-1.1,10,10,0,0,0,3.36-3.59l1,0.35c-0.11.19-.22,0.38-0.34,0.59a23.38,23.38,0,0,1,2.5,1.79l-0.59.83a30,30,0,0,0-2.43-1.82,14.47,14.47,0,0,1-1.18,1.41h2.64v0.82h-2.72v-0.74Zm3,10.93c-0.1-.35-0.26-0.78-0.42-1.23-3.25,1.3-3.73,1.52-4,1.75a4.49,4.49,0,0,0-.42-1,1,1,0,0,0,.67-1v-7.81h4.8v5.36H267.8v2.69l2.4-.9-0.46-1.1,0.9-.29c0.43,1,1,2.34,1.22,3.11Zm-3.12-8.34v1.22h2.75v-1.22H267.8Zm2.75,3.54v-1.44H267.8V152h2.75Zm9.22-4.64a17.35,17.35,0,0,1-2.23,6.58,8,8,0,0,0,2.87,2.45,4.24,4.24,0,0,0-.78.91,8.64,8.64,0,0,1-2.77-2.4,9.49,9.49,0,0,1-2.83,2.5,4.6,4.6,0,0,0-.7-0.88,8.34,8.34,0,0,0,2.9-2.59,18.63,18.63,0,0,1-2.08-5.67h0v0.86c0,2.43-.19,5.91-1.5,8.21a5.93,5.93,0,0,0-.91-0.58c1.25-2.21,1.34-5.33,1.34-7.63v-5.46h6.75v1.09h-5.68v2.45h4.77l0.21,0Zm-4.61.9a16,16,0,0,0,1.7,4.66,13.93,13.93,0,0,0,1.66-4.66h-3.36Z"/><path class="cls-3" d="M253.59,192.3c-0.14,1.14-.77,2.35-2.82,3.15a4.45,4.45,0,0,0-.67-0.8c1.74-.56,2.24-1.52,2.37-2.35H250v-1h2.53v-1.7h1.1v1.7H255v-1.68H256v1.68h2v-1.68h1.09v1.68h1.41v-1.73h1.09v1.73H264v1H261.6v1.22c0,0.43,0,.56.32,0.56h1.26A4.46,4.46,0,0,0,264,194a8.62,8.62,0,0,0,.1.93,4.48,4.48,0,0,1-.88.06h-1.39c-1.07,0-1.31-.42-1.31-1.5v-1.2H259.1v2.56H255V192.3h-1.38Zm-3.3,3.35h13.53v3.07h-1.15v-2.08H251.42v2.08H250.3v-3.07Zm12,6.16a0.94,0.94,0,0,1-.59,1.09,8.53,8.53,0,0,1-2.45.18,4.19,4.19,0,0,0-.38-1l2,0c0.24,0,.3-0.08.3-0.26v-2.56h-3.57V204h-1.17v-4.74H253v3.83h-1.17v-4.8h4.51v-1.33h1.17v1.33h4.74v3.54ZM256,192.3v1.63h2V192.3h-2Z"/><path class="cls-3" d="M273.95,189.8c-0.1.13-.19,0.26-0.3,0.38a17.81,17.81,0,0,0,6.8,3.63,6,6,0,0,0-.8,1,19.81,19.81,0,0,1-4.35-2.11v0.7h-4.45V192.7a18.21,18.21,0,0,1-4.34,2.13,4.74,4.74,0,0,0-.77-1c2.82-.85,5.68-2.5,7.12-4.55Zm-0.4,12a7.34,7.34,0,0,0,0,1c-4.19.8-4.75,0.93-5.12,1.12a3.44,3.44,0,0,0-.54-0.9,1.33,1.33,0,0,0,.61-1.17v-7.73h9V199h-7.86v3.39ZM269.64,195v1.15h6.67V195h-6.67Zm6.67,3.14V197h-6.67v1.14h6.67ZM275,192.55a14.43,14.43,0,0,1-2.06-1.62,13.67,13.67,0,0,1-1.94,1.62h4Zm4.18,6.91a21.91,21.91,0,0,1-3,1.94c1.06,0.62,2,1.25,2.74,1.74l-0.85.8a51.73,51.73,0,0,0-6-3.67l0.78-.69c0.72,0.38,1.54.8,2.34,1.26a23.44,23.44,0,0,0,3.09-2.06Z"/><path class="cls-3" d="M285.69,198.19V204h-1.1v-5.47l-2.64.82-0.32-1.14c0.82-.22,1.84-0.5,3-0.85V193.8h-1.46a12.66,12.66,0,0,1-.7,2.37,5.64,5.64,0,0,0-.91-0.53,18.72,18.72,0,0,0,1.1-5.33l1,0.18c-0.08.72-.19,1.46-0.3,2.16h1.23V189.4h1.1v3.25h1.65v1.15h-1.65v3.27l1.86-.58,0.16,1.06Zm10.47-6.11s0,0.45,0,.59c-0.35,7.25-.7,9.73-1.34,10.53a1.37,1.37,0,0,1-1.1.61,9.83,9.83,0,0,1-1.83,0,2.58,2.58,0,0,0-.34-1.17c0.72,0.06,1.36.08,1.68,0.08a0.68,0.68,0,0,0,.59-0.27c0.51-.56.86-2.93,1.18-9.27h-0.77c-0.8,4.19-2.56,8.45-5.22,10.56a3.59,3.59,0,0,0-1-.72c2.63-1.89,4.35-5.83,5.19-9.84h-1.31c-0.72,2.74-2.19,5.73-3.94,7.25a3.88,3.88,0,0,0-.94-0.69c1.7-1.33,3.12-4,3.86-6.56h-1.38a13.2,13.2,0,0,1-1.82,3,8,8,0,0,0-.91-0.69,13.67,13.67,0,0,0,2.8-6.15l1.09,0.22a20,20,0,0,1-.72,2.46H295v0Z"/><path class="cls-3" d="M312.22,199.16v1.1H297.8v-1.1h1.62l-0.3-8.45a26.3,26.3,0,0,0,3-1.23l0.58,1c-0.74.3-1.62,0.61-2.43,0.86l0.06,1.87h2.15v1h-2.11l0.06,2h2.11v1h-2.06l0.06,2h9.08c0-.56.08-1.23,0.11-1.92h-2.08v-1h2.11c0-.64,0-1.3.08-2h-2.11v-1h2.13c0-.69,0-1.36,0-2h-2.31v-1h3.39c0,2.8-.1,6.59-0.24,9h1.54Zm-8.74,2.08a25.48,25.48,0,0,1-4.77,2.74,10.66,10.66,0,0,0-.7-0.9,18.46,18.46,0,0,0,4.45-2.56Zm1.23-5.73a8,8,0,0,1-1,3,5.27,5.27,0,0,0-.83-0.51,6.22,6.22,0,0,0,.88-2.64Zm1.1-.85h-2.54V189.5h1V191H307v1h-2.64v1.71h2.1v0h0.43v4.21a0.76,0.76,0,0,1-.45.86,5.17,5.17,0,0,1-1.68.14,3.17,3.17,0,0,0-.3-0.82,10.57,10.57,0,0,0,1.2,0,0.17,0.17,0,0,0,.21-0.21v-3.27Zm1.38,5.81a38.83,38.83,0,0,1,4.66,2.56l-0.78.9a36.73,36.73,0,0,0-4.53-2.64Z"/><path class="cls-3" d="M323.82,197.08a12.39,12.39,0,0,0,4.63,2.19,3.84,3.84,0,0,0-.75.94c-0.3-.1-0.61-0.19-0.91-0.3v4h-1.15v-0.38h-2.83V204h-1.1v-4.9H325a11.16,11.16,0,0,1-2.67-2h-3a12.48,12.48,0,0,1-2.51,2h3.38v4.82h-1.14v-0.38h-2.66V204h-1.1v-4.07c-0.35.16-.7,0.32-1.09,0.46a2.7,2.7,0,0,0-.64-0.9,13.59,13.59,0,0,0,4.19-2.42h-3.91V196h4.93a7.24,7.24,0,0,0,1.07-1.62H315V190.1h5v4.13l1.14,0.22a12.48,12.48,0,0,1-1,1.57h4.47a10.1,10.1,0,0,0-1.9-1l0.62-.62a9,9,0,0,1,2.35,1.18l-0.38.4h2.77v1.06h-4.32Zm-4.91-6h-2.83v2.26h2.83v-2.26Zm0.16,9h-2.66v2.35h2.66v-2.35Zm7.91-5.73h-5.22V190.1H327v4.31Zm-1.34,8.08v-2.35h-2.83v2.35h2.83Zm0.19-11.36h-3v2.26h3v-2.26Z"/><path class="cls-3" d="M335.71,198.36c-0.35-.58-1.18-1.7-1.84-2.56V204h-1.18V196.3a16.48,16.48,0,0,1-2.55,4.79,5.28,5.28,0,0,0-.66-1.12,16,16,0,0,0,3-6H330v-1.14h2.66v-3.43h1.18v3.43H336v1.14h-2.18v0.42c0.59,0.64,2.19,2.51,2.59,3Zm8.58-4.4h-1.65v8.42a1.16,1.16,0,0,1-.74,1.36,9.26,9.26,0,0,1-2.82.24,5.27,5.27,0,0,0-.43-1.22c1,0,2.06,0,2.37,0a0.33,0.33,0,0,0,.4-0.38v-6.82a19.49,19.49,0,0,1-4.85,5.89,5.39,5.39,0,0,0-.85-1A17.59,17.59,0,0,0,341,194h-4.35v-1.14h4.77v-3.41h1.22v3.41h1.65V194Z"/><path class="cls-3" d="M359.15,202.4a1.18,1.18,0,0,1-.72,1.33,10.45,10.45,0,0,1-3,.19,4.72,4.72,0,0,0-.4-1.15c1.12,0,2.21,0,2.5,0a0.36,0.36,0,0,0,.43-0.42v-3.25h-4.31v4.72h-1.18v-4.72h-4a9.19,9.19,0,0,1-2,5,3.88,3.88,0,0,0-.91-0.78c1.76-2,1.92-4.8,1.92-7v-5.76h11.65V202.4Zm-6.66-4.4v-2.66h-3.83v0.94c0,0.53,0,1.12-.06,1.71h3.89Zm-3.83-6.34v2.56h3.83v-2.56h-3.83Zm9.32,0h-4.31v2.56H358v-2.56Zm0,6.34v-2.66h-4.31V198H358Z"/><path class="cls-3" d="M263.15,249.73a1.18,1.18,0,0,1-.72,1.33,10.45,10.45,0,0,1-3,.19,4.72,4.72,0,0,0-.4-1.15c1.12,0,2.21,0,2.5,0a0.36,0.36,0,0,0,.43-0.42v-3.25h-4.31v4.72h-1.18v-4.72h-4a9.19,9.19,0,0,1-2,5,3.88,3.88,0,0,0-.91-0.78c1.76-2,1.92-4.8,1.92-7v-5.76h11.65v11.88Zm-6.66-4.4v-2.66h-3.83v0.94c0,0.53,0,1.12-.06,1.71h3.89ZM252.66,239v2.56h3.83V239h-3.83Zm9.32,0h-4.31v2.56H262V239Zm0,6.34v-2.66h-4.31v2.66H262Z"/><path class="cls-3" d="M274.76,239c-0.35.59-.74,1.17-1.14,1.76v10.5h-1.26v-8.9a20.53,20.53,0,0,1-5.79,4.66,8.22,8.22,0,0,0-.8-1,18.57,18.57,0,0,0,7.47-7h-7.07v-1.18h13.67V239h-5.07Zm0.06,2.67a36.54,36.54,0,0,1,5.46,4.21l-0.94.91a35.69,35.69,0,0,0-5.39-4.35Z"/><path class="cls-3" d="M286.86,248.59l3.33-.62,0.08,1c-2.83.54-5.86,1.12-8,1.54l-0.26-1.12c1-.16,2.27-0.4,3.67-0.64V246.1H282.6V245h3.12v-1.73h1.14V245H290v1.06h-3.19v2.5Zm-4.67-10.82h8.18v1.06H286a21.34,21.34,0,0,1-1.84,3l4.08-.35c-0.38-.56-0.8-1.1-1.18-1.58l0.85-.51a22.41,22.41,0,0,1,2.42,3.43l-0.91.59a8.5,8.5,0,0,0-.56-1c-5,.48-5.55.54-5.94,0.72a8,8,0,0,0-.4-1.12,1.53,1.53,0,0,0,.77-0.7,15.07,15.07,0,0,0,1.39-2.45h-2.53v-1.06Zm10.18,10h-1.12v-9.62h1.12v9.62ZM295.55,237v12.49a1.13,1.13,0,0,1-.66,1.3,8.13,8.13,0,0,1-2.5.22,4.52,4.52,0,0,0-.43-1.17c0.93,0,1.81,0,2.08,0s0.34-.08.34-0.35V237h1.17Z"/><path class="cls-3" d="M308.17,240.27a2.48,2.48,0,0,0-1.89-.9c-1.6,0-3,1.23-3,4.88a3.65,3.65,0,0,1,2.67-1.42c2,0,3.25,1.23,3.25,3.68a3.52,3.52,0,0,1-3.36,3.81c-2.26,0-3.92-1.94-3.92-5.81,0-4.59,2.06-6.35,4.34-6.35a3.6,3.6,0,0,1,2.74,1.2Zm-0.37,6.24c0-1.58-.69-2.59-2.11-2.59a3.06,3.06,0,0,0-2.4,1.5c0.18,2.43,1.06,3.76,2.53,3.76C306.94,249.19,307.8,248.11,307.8,246.51Z"/><path class="cls-3" d="M310.66,244.21c0-4.08,1.42-6.05,3.67-6.05s3.65,2,3.65,6.05-1.42,6.11-3.65,6.11S310.66,248.29,310.66,244.21Zm5.89,0c0-3.43-.9-4.87-2.23-4.87s-2.24,1.44-2.24,4.87,0.9,4.95,2.24,4.95S316.55,247.66,316.55,244.21Z"/><path class="cls-3" d="M319.54,244.21c0-4.08,1.42-6.05,3.67-6.05s3.65,2,3.65,6.05-1.42,6.11-3.65,6.11S319.54,248.29,319.54,244.21Zm5.89,0c0-3.43-.9-4.87-2.23-4.87s-2.24,1.44-2.24,4.87,0.9,4.95,2.24,4.95S325.43,247.66,325.43,244.21Z"/><path class="cls-3" d="M328.42,244.21c0-4.08,1.42-6.05,3.67-6.05s3.65,2,3.65,6.05-1.42,6.11-3.65,6.11S328.42,248.29,328.42,244.21Zm5.89,0c0-3.43-.9-4.87-2.23-4.87s-2.24,1.44-2.24,4.87,0.9,4.95,2.24,4.95S334.31,247.66,334.31,244.21Z"/><path class="cls-3" d="M353.87,249.92c0.64,0,.74-0.42.82-2.87a3.7,3.7,0,0,0,1.1.53c-0.13,2.72-.45,3.47-1.84,3.47h-2.29c-1.42,0-1.81-.42-1.81-1.78v-5.7h-3c-0.3,3.43-1.07,6.23-4.75,7.72a3.21,3.21,0,0,0-.75-0.93c3.41-1.3,4-3.79,4.24-6.79h-4v-1.15h14v1.15h-4.5v5.68c0,0.54.13,0.66,0.75,0.66h2.06Zm0.34-10.8H342.94V238H354.2v1.14Z"/><path class="cls-3" d="M357.35,237.47h7.73v1.09h-1.31v12.77h-1.12v-3.17c-1.92.34-3.86,0.67-5.31,0.9l-0.22-1.12,1.46-.22v-9.16h-1.22v-1.09Zm5.3,1.09h-3v2.21h3v-2.21Zm-3,5.46h3v-2.26h-3V244Zm3,3.06V245h-3v2.54Zm9-9.22c-0.69,1.41-1.5,3-2.38,4.63,1.68,1.54,2.43,2.75,2.43,3.86a2.52,2.52,0,0,1-.91,2.18,2.35,2.35,0,0,1-1.06.34,8.13,8.13,0,0,1-1.54,0,2.71,2.71,0,0,0-.32-1.09,7.73,7.73,0,0,0,1.44,0,1.6,1.6,0,0,0,.72-0.18,1.49,1.49,0,0,0,.54-1.33c0-1-.78-2.11-2.51-3.65,0.78-1.49,1.46-2.91,2-4.15h-3.17v12.82h-1.14V237.42h4.91l0.16,0Z"/><path class="cls-3" d="M375.24,248.93a1.28,1.28,0,1,1,1.28,1.26A1.23,1.23,0,0,1,375.24,248.93Zm0.37-8.9,0-1.89h1.92l0,1.89-0.4,6.21H376Z"/><path class="cls-3" d="M83.91,94.39c-0.11.22-.22,0.45-0.35,0.67,1,0.74,2,1.57,2.69,2.18l-0.54,1a29.52,29.52,0,0,0-2.64-2.29,16.71,16.71,0,0,1-1.68,2.18h3.81v1h-1.6v1.73h2v1h-2v4.4l2-.43,0.06,1c-1.9.46-3.94,0.94-5.41,1.28L80,107c0.69-.13,1.6-0.3,2.56-0.51v-4.63H80.22v-1h2.37V99.14H81.07V98.42q-0.38.38-.77,0.72a8.14,8.14,0,0,0-.48-1.2A11.39,11.39,0,0,0,83,94Zm-2.61,8.37a16.92,16.92,0,0,1,.62,2.93l-0.82.24a18.86,18.86,0,0,0-.58-3ZM84,105.48c0.24-.78.54-2,0.7-2.91l0.86,0.29c-0.27,1-.59,2.16-0.86,2.9Zm10.31,2a1,1,0,0,1-.53,1.06,6.6,6.6,0,0,1-2.16.19,4,4,0,0,0-.35-1c0.8,0,1.49,0,1.7,0s0.27-.06.27-0.26v-6.19H87.46v7.43H86.4v-8.45h1V94.59h6v5.65h0.9v7.24Zm-5.89-7.24h1.18V97.17h2.75V95.6H88.39v4.64Zm3.78,6.1H88.53V102.4h3.63v3.94Zm-0.91-3.06H89.4v2.18h1.86v-2.18Zm1.07-5.17H90.55v2.13h1.78V98.12Z"/><path class="cls-3" d="M101.25,107c-1.7.4-3.47,0.83-4.85,1.14l-0.3-1.09c0.66-.11,1.49-0.27,2.38-0.48v-4.69h-2v-1h2V99.12H97.15V98.34c-0.24.24-.46,0.45-0.7,0.66a9.48,9.48,0,0,0-.54-1.06A11,11,0,0,0,99,94.07l1,0.34a8.22,8.22,0,0,1-.38.75,15.63,15.63,0,0,1,2.26,1.7l-0.53.88A15.7,15.7,0,0,0,99.06,96a15.94,15.94,0,0,1-1.66,2.15h3.46v1H99.51v1.74h1.86v1H99.51v4.5l1.65-.37Zm-3.92-4.24a16.17,16.17,0,0,1,.77,3l-0.83.21a16.69,16.69,0,0,0-.7-3Zm2.5,2.59a20.23,20.23,0,0,0,.69-2.87l0.83,0.24c-0.27,1-.58,2.11-0.85,2.85Zm10.64-6.07v1H103.2v2.08c0,1.84-.19,4.42-1.31,6.19A3.31,3.31,0,0,0,101,108a10.8,10.8,0,0,0,1.2-5.62v-3h1.34a5.07,5.07,0,0,0-.53-0.74,17.11,17.11,0,0,0,2.72-.94c-0.74-.34-1.5-0.62-2.21-0.86l0.67-.62c0.8,0.29,1.68.62,2.53,1a6.22,6.22,0,0,0,1.44-1.06h-5.73v-1h3.44a5.87,5.87,0,0,0-.48-0.88l1-.29a4.23,4.23,0,0,1,.64,1.17h3.2v1h-1.6l0.58,0.22a8.4,8.4,0,0,1-1.55,1.25,21.51,21.51,0,0,1,2,1l-0.69.69a20.48,20.48,0,0,0-2.21-1.18,18.4,18.4,0,0,1-3.1,1.22h6.83Zm-3,8.07h3v1h-7.12v-1h3.09v-1.81h-2.19v-0.94h2.19V103h-1.57a8.26,8.26,0,0,1-.74,1.25,7.83,7.83,0,0,0-.82-0.5,7.85,7.85,0,0,0,1.36-3.11l0.94,0.21a10.43,10.43,0,0,1-.37,1.2h1.18v-1.42h1.06V102H110V103h-2.53v1.65h2.23v0.94h-2.23v1.81Z"/><path class="cls-3" d="M92.55,155.94c0.69,0,.8-0.3.86-2.22a3,3,0,0,0,1.1.46C94.36,156.45,94,157,92.65,157H90c-1.54,0-1.94-.35-1.94-1.62v-3.73H87.32c-0.78,2.5-2.48,4.43-6.5,5.52a3.1,3.1,0,0,0-.67-1c3.59-.88,5.15-2.48,5.89-4.51H81.76v-3.83c-0.3.26-.61,0.48-0.94,0.72a3.56,3.56,0,0,0-.83-0.86,14.58,14.58,0,0,0,4.61-5l1.31,0.24c-0.19.34-.42,0.66-0.66,1h4l0.21-.06,0.8,0.54a15.53,15.53,0,0,1-1.63,2.3h4.67v4.93h-4v3.71c0,0.48.13,0.56,0.85,0.56h2.45Zm-6.19-5.35a18.55,18.55,0,0,0,.38-2.78H82.95v2.78h3.41ZM84.53,145A17.76,17.76,0,0,1,83,146.73H87.2A11.43,11.43,0,0,0,88.53,145h-4ZM88,147.81a24.37,24.37,0,0,1-.37,2.78H92v-2.78H88Z"/><path class="cls-3" d="M98.75,149.86A13.06,13.06,0,0,0,96,148l0.66-.85a14.47,14.47,0,0,1,2.85,1.75Zm1.07,2.1c-0.67,1.68-1.6,3.68-2.39,5.19l-1.06-.72A57,57,0,0,0,99,151.26Zm-0.43-6.29a12.28,12.28,0,0,0-2.69-2l0.7-.8a12.06,12.06,0,0,1,2.72,1.84Zm9.83,10.4c0.4,0,.48-0.34.53-2.4a3.12,3.12,0,0,0,1,.5c-0.11,2.35-.38,3-1.46,3h-1.62c-1.18,0-1.49-.35-1.49-1.58v-5.09h-2.06c-0.22,3.41-.85,5.63-4,6.9a3,3,0,0,0-.74-0.94c2.87-1.06,3.35-3,3.52-6h-2.79v-1.14h4.66v-2.85h-2.34a11.45,11.45,0,0,1-1.23,2.38,7.57,7.57,0,0,0-1-.64,13.24,13.24,0,0,0,2-5.25l1.18,0.22a18.27,18.27,0,0,1-.54,2.14h2v-2.61H106v2.61H110v1.14H106v2.85h4.56v1.14H107.4v5.07c0,0.45.06,0.53,0.46,0.53h1.36Z"/><path class="cls-3" d="M116.53,143.12a25.56,25.56,0,0,1-1.52,3.54v10.66h-1.14v-8.72a16.43,16.43,0,0,1-1.28,1.71,8,8,0,0,0-.69-1.17,18.34,18.34,0,0,0,3.51-6.35Zm5.38,9a5.77,5.77,0,0,1-1.2,2.83,19.12,19.12,0,0,0,6,1.23,4.63,4.63,0,0,0-.7,1.1,18,18,0,0,1-6.16-1.52,10.21,10.21,0,0,1-3.55,1.66,5.9,5.9,0,0,0-.72-1,9.41,9.41,0,0,0,3.23-1.3,7.33,7.33,0,0,1-2.29-2.26l1-.38a6.25,6.25,0,0,0,2.15,1.92,4.41,4.41,0,0,0,1.07-2.32H117v-6h3.91v-1.33h-4.32v-1.07h9.81v1.07H122V146h3.78v6h-3.91Zm-3.83-3.46h2.79V147h-2.79v1.65Zm2.77,2.53c0-.27,0-0.58,0-0.85v-0.8h-2.79v1.65h2.77Zm3.79-1.65H122v0.8a7.47,7.47,0,0,1,0,.85h2.64V149.5ZM122,147v1.65h2.61V147H122Z"/><path class="cls-3" d="M142,145.17v3.28h-1.15v-2.26H129.78v2.26h-1.14v-3.28h2.54a13.72,13.72,0,0,0-1.22-1.81l1-.43a10.62,10.62,0,0,1,1.41,2l-0.59.27h2.83v-2.45h1.18v2.45h2.69l-0.45-.18a14.11,14.11,0,0,0,1.42-2.13l1.2,0.42a20.78,20.78,0,0,1-1.46,1.89H142Zm-12.31,6.45h11.33v5.71h-1.17v-0.42h-9v0.45h-1.15v-5.75Zm1.15,0.91v1.28h3.84v-1.28h-3.84Zm3.84,3.46v-1.31h-3.84V156h3.84Zm4.77-8.63v3.33H131.2v-3.33h8.29Zm-1.17.9h-6v1.52h6v-1.52Zm1.57,4.27h-4v1.28h4v-1.28Zm0,3.46v-1.31h-4V156h4Z"/><path class="cls-3" d="M152.32,143.1c-0.11.14-.24,0.27-0.37,0.42a22.91,22.91,0,0,0,6.8,3.44,6.6,6.6,0,0,0-.83,1,25.38,25.38,0,0,1-3.44-1.58V147h-6.34v-0.46a25.29,25.29,0,0,1-3.52,1.62,5.24,5.24,0,0,0-.77-0.93c3.1-1.07,6-2.72,7.38-4.56Zm4.51,12.76h1.5V157h-14.1v-1.1h1.54v-3.68h11.06v3.68Zm-1-7.91v3.22h-9.16V148h9.16Zm-9,7.91h2.18v-2.71H146.9v2.71Zm7.86-7.06h-7v1.52h7V148.8Zm-0.8-2.71a18.8,18.8,0,0,1-2.67-1.87,14.55,14.55,0,0,1-2.45,1.87H154Zm-3.78,7.06v2.71h2.18v-2.71h-2.18Zm3.27,0v2.71h2.22v-2.71h-2.22Z"/><path class="cls-3" d="M88.26,195.18c1.12,3.52,3.2,6.42,6.29,7.68a6.1,6.1,0,0,0-.9,1.12c-3.07-1.46-5.11-4.29-6.37-7.92A11.2,11.2,0,0,1,80.9,204a3.44,3.44,0,0,0-.9-1,10.39,10.39,0,0,0,6.23-7.83H80.32V194h6.1a34.09,34.09,0,0,0,.24-4.55h1.28a37.08,37.08,0,0,1-.26,4.55h6.61v1.22h-6Z"/><path class="cls-3" d="M102.74,194.41c-2.26.42-4.64,0.86-6.35,1.17l-0.18-1c1.1-.16,2.64-0.42,4.27-0.7v-2.13H96.59v-1h3.89v-1.39h1.17v4.31l1-.18Zm5.46,8.28a1,1,0,0,1-.67,1.15,9.24,9.24,0,0,1-2.59.19,3.77,3.77,0,0,0-.4-1.07c0.94,0,1.87,0,2.11,0s0.35-.1.35-0.32v-2c-2.4.48-4.93,1-6.8,1.3l-0.38-1.06c1.79-.27,4.58-0.75,7.19-1.25v-2.87H99.63v1.81a7.06,7.06,0,0,1-2.08,5.49,4,4,0,0,0-.88-0.83,5.74,5.74,0,0,0,1.79-4.67V195.8h9.73v6.88Zm-7.81-5.3a24,24,0,0,1,5.15,1.44l-0.43.93a25.09,25.09,0,0,0-5.15-1.54Zm8.18-3.28c0.54,0,.66-0.19.72-1.34a3.83,3.83,0,0,0,1.06.42c-0.13,1.55-.48,2-1.65,2H106c-1.52,0-1.89-.34-1.89-1.55v-4.21h1.18v1.39h4v1h-4v1.86c0,0.43.13,0.51,0.83,0.51h2.46Z"/><path class="cls-3" d="M115.63,192.66a15.52,15.52,0,0,1-2.77,3,7.55,7.55,0,0,0-1-.86,13.82,13.82,0,0,0,4.26-5.54l1.2,0.35a17.16,17.16,0,0,1-1,1.87h8.84v0.56c-0.18,5.31-.34,7.17-0.78,7.75a1.29,1.29,0,0,1-1,.54,11.8,11.8,0,0,1-1.86,0,3.25,3.25,0,0,0-.3-1.14,13,13,0,0,0,1.6.06,0.51,0.51,0,0,0,.53-0.21c0.3-.38.48-2,0.61-6.43h-8.34Zm8.05,9.88c1.36,0,1.58-.35,1.76-2a3.63,3.63,0,0,0,1.14.43c-0.24,2.1-.72,2.69-2.88,2.69h-6c-2.5,0-3.23-.43-3.23-2.21v-7.14h6.5V199H115.6v2.42c0,0.86.3,1.09,2,1.09h6.08Zm-8.08-7.15V198h4.16v-2.58H115.6Z"/><path class="cls-2" d="M263.46,25.9c0.27,0,.34-0.22.37-1.82a4.88,4.88,0,0,0,1.73.76c-0.19,2.28-.68,2.91-1.87,2.91h-1.14c-1.55,0-1.87-.61-1.87-2.36V22h-0.78c-0.26,2.69-.87,4.79-3.64,6a5.83,5.83,0,0,0-1-1.41V27H252v0.71h-1.73V21.84h5V26.4c2.11-.92,2.5-2.45,2.65-4.4h-1.1V17.39c-0.19.19-.39,0.37-0.58,0.54a12.59,12.59,0,0,0-1.43-1.43l0.07-.05h-5.32v-1.6h2.55a15.28,15.28,0,0,0-.82-2.14l1.7-.53a12.3,12.3,0,0,1,.94,2.19l-1.31.48h3v0.94A11.7,11.7,0,0,0,258,12.27l1.87,0.58a17.38,17.38,0,0,1-2.36,3.74h5.83a31.7,31.7,0,0,0-2.79-3.54l1.41-1a27.69,27.69,0,0,1,3.6,4.5l-1.53,1.1c-0.1-.19-0.2-0.37-0.34-0.58V22h-1.07v3.37c0,0.49,0,.54.27,0.54h0.54ZM255,18.75h-4.79V17.22H255v1.53Zm-4.79.75H255V21h-4.79V19.5Zm3.35,4H252v1.9h1.65v-1.9Zm5.12-3.21h3V18.36h-3v1.89Z"/><path class="cls-2" d="M269.93,23.35v1.46h-1.87V13h5.66V23.35h-3.79Zm0-8.55v2.41h1.92V14.8h-1.92Zm1.92,6.71V19h-1.92v2.5h1.92Zm10.81,4.08c0,1.07-.22,1.6-0.88,1.94a7.59,7.59,0,0,1-3.08.37,6.91,6.91,0,0,0-.7-2c0.92,0.05,1.94,0,2.23,0s0.43-.1.43-0.39v-3H277A9,9,0,0,1,274.07,28a6.71,6.71,0,0,0-1.55-1.31c2.57-2.11,2.79-5.29,2.79-7.84V12.73h7.34V25.6Zm-2-4.83V18.59H277.3v0.27c0,0.59,0,1.24-.07,1.9h3.42ZM277.3,14.6v2.18h3.35V14.6H277.3Z"/><rect class="cls-4" x="1" y="1" width="506.76" height="266.81"/><line class="cls-4" x1="1" y1="80.5" x2="507.76" y2="80.5"/><line class="cls-4" x1="1" y1="127.33" x2="507.76" y2="127.33"/><line class="cls-4" x1="1" y1="174.15" x2="507.76" y2="174.15"/><line class="cls-4" x1="1" y1="220.98" x2="507.76" y2="220.98"/><line class="cls-4" x1="1" y1="267.81" x2="507.76" y2="267.81"/><line class="cls-4" x1="68.73" y1="1" x2="68.73" y2="267.81"/><line class="cls-4" x1="235.73" y1="1" x2="235.73" y2="267.81"/></svg>