<svg id="預算表_拷貝" data-name="預算表 拷貝" xmlns="http://www.w3.org/2000/svg" viewBox="0 0 508.76 124.21"><defs><style>.cls-1{fill:#ff9947;}.cls-1,.cls-4{stroke:#e0e0e0;stroke-miterlimit:10;stroke-width:2px;}.cls-2{fill:#001f2e;}.cls-3{fill:#e0e0e0;}.cls-4{fill:none;}</style></defs><title>bagthings</title><rect class="cls-1" x="1" y="1" width="506.76" height="36"/><path class="cls-2" d="M20.84,18.81v1.77h5.42V22.4H23.58L25.28,23c-0.6,1-1.26,2-1.79,2.7h3.65v1.85H12.45V25.72h3.35A14.13,14.13,0,0,0,14.38,23l1.34-.56H13.26V20.58h5.41V18.81H15.22V18q-1.07.51-2.19,0.92A7.32,7.32,0,0,0,11.68,17c3.2-.92,6.25-2.63,7.87-5.17l1.92,0.87L21,13.41A18.84,18.84,0,0,0,28,17a9.82,9.82,0,0,0-1.39,1.77,22.44,22.44,0,0,1-2.31-1v1H20.84ZM16.1,22.4a11.61,11.61,0,0,1,1.48,2.7l-1.39.61h2.48V22.4H16.1ZM22.76,17a19.55,19.55,0,0,1-2.94-2.21A15.1,15.1,0,0,1,17.07,17h5.69ZM20.84,22.4v3.31H23l-1.14-.48a15.57,15.57,0,0,0,1.5-2.84H20.84Z"/><path class="cls-2" d="M36.69,22.67h0.05v5.24H35V27.48H32.76v0.44H31.08V23c-0.2.08-.41,0.17-0.61,0.24a6.92,6.92,0,0,0-1-1.6,11.18,11.18,0,0,0,2.94-1.31l-0.88-.53,1.12-1.17,1.12,0.61a6,6,0,0,0,1-1.12H32.69A7.63,7.63,0,0,1,30.82,20a4.35,4.35,0,0,0-1-1.33,5.91,5.91,0,0,0,2.45-3.14l1.53,0.31a7,7,0,0,1-.29.76h2.14L36,16.59l0,0V15.31H31.4v1.46H29.94V13.72h3c-0.12-.37-0.25-0.76-0.37-1.07l1.61-.56c0.2,0.49.44,1.1,0.65,1.63h2.72v3.06H36.21l0.73,0.53a9.53,9.53,0,0,1-1.68,2.79c0.92,0.53,1.82,1.07,2.4,1.48Zm-0.58,0c-0.56-.41-1.31-0.88-2.11-1.38a11.07,11.07,0,0,1-2.16,1.38h4.27ZM35,25.92V24.24H32.76v1.68H35Zm8-1.36a19.39,19.39,0,0,1,2.77,2l-1.16,1.38a20.43,20.43,0,0,0-2.82-2.23l1-1.14H40.21l1.21,1.26A21,21,0,0,1,37.76,28a9.89,9.89,0,0,0-.83-1.48,16,16,0,0,0,3.21-2H38.3v-9h2.16c0.07-.37.14-0.78,0.19-1.17H37.88v-1.7h7.6v1.7h-3c-0.1.41-.24,0.82-0.36,1.17h2.92v9H42.94ZM40.1,18.14h3v-1h-3v1Zm0,2.45h3v-1h-3v1Zm0,2.43h3V22h-3v1Z"/><path class="cls-2" d="M86.42,22.71c-2.06.78-4.27,1.58-6,2.19L79.62,23l2.35-.7V15.74H80.08V13.87h5.81v1.87H84v5.9L86.1,21Zm2.24,1.87,1.56,1.1a15.76,15.76,0,0,1-4.4,2.23,10,10,0,0,0-1.22-1.38,13.67,13.67,0,0,0,3.93-2H86.81v-9h2.67c0.08-.39.15-0.8,0.22-1.17H86.11v-1.7h9.62v1.7H92c-0.14.41-.29,0.8-0.43,1.17h3.55v9H88.66Zm0-6.41h4.45V17.1H88.68v1.07Zm0,2.45h4.45V19.53H88.68v1.09Zm0,2.48h4.45V22H88.68V23.1Zm4,1.53A25.15,25.15,0,0,1,96,26.75l-1.6,1.19a24.26,24.26,0,0,0-3.28-2.24Z"/><path class="cls-2" d="M111.6,13V27.74h-2.14V26.69h-7.87v1.05h-2V13H111.6Zm-10,2v2h7.87v-2h-7.87Zm0,3.86v2h7.87v-2h-7.87Zm7.87,5.92v-2h-7.87v2h7.87Z"/><path class="cls-3" d="M82.93,59.7C82.27,59.25,81,58.48,80,58l0.66-.86c0.93,0.46,2.26,1.17,3,1.62Zm-2.56,6.45a46.28,46.28,0,0,0,3-5.12l0.86,0.78a58.14,58.14,0,0,1-2.9,5.14Zm3.36-10.79c-0.66-.46-2-1.23-3-1.76l0.66-.85a29.27,29.27,0,0,1,3,1.65Zm6.4,3V61h3.35v6.1H92.34V66.48h-5.7v0.67H85.55V61H89V58.35H84.39V57.2H89V54.61c-1.17.18-2.38,0.32-3.52,0.43a5.68,5.68,0,0,0-.32-1A39.37,39.37,0,0,0,92.9,52.6l0.94,0.93a25.81,25.81,0,0,1-3.71.9V57.2h4.39v1.15H90.13Zm2.21,3.73h-5.7v3.3h5.7v-3.3Z"/><path class="cls-3" d="M110.23,56.25s0,0.45,0,.61c-0.18,6.71-.32,8.93-0.86,9.6a1.26,1.26,0,0,1-1.07.59,11.06,11.06,0,0,1-1.94,0,3.23,3.23,0,0,0-.34-1.12c0.77,0.06,1.47.08,1.78,0.08a0.61,0.61,0,0,0,.58-0.26c0.37-.46.56-2.58,0.72-8.39h-2.29c-0.19,4.26-.93,7.75-3.75,9.86a4.05,4.05,0,0,0-.88-0.85,8.44,8.44,0,0,0,.7-0.56c-2.43.29-4.91,0.56-6.71,0.75l-0.18-1,3.47-.32V63.84h-3V62.93h3V62h-3V57.2h3v-1H96V55.26h3.46V54.21c-1,.08-2.06.14-3,0.18a3.56,3.56,0,0,0-.29-0.88,50,50,0,0,0,6.9-.78l0.59,0.91a30.46,30.46,0,0,1-3.12.46v1.17h3.39v0.93h-3.39v1h3.11V62h-3.11v1h3.14v0.91h-3.14v1.26c1-.1,2.13-0.21,3.2-0.34v0.08c1.39-1.89,1.81-4.47,2-7.48h-1.87V56.25h1.9c0-1.12,0-2.29,0-3.51h1.12c0,1.2,0,2.39,0,3.51h3.39ZM97.44,59.17h2V58h-2v1.15Zm2,2V60h-2v1.17h2ZM100.53,58v1.15h2.1V58h-2.1Zm2.1,1.94h-2.1v1.17h2.1V60Z"/><path class="cls-3" d="M118.92,56.24h-6.58v-1h6.58v1ZM113,57.36h5.2V58.3H113V57.36Zm5.15,3H113V59.44h5.15v0.94Zm0,5.81h-4v0.75h-1V61.57h5.07v4.63Zm-4-3.63V65.2h3V62.56h-3Zm1.2-7.48A13.66,13.66,0,0,0,114.24,53l0.9-.46a12.15,12.15,0,0,1,1.23,2Zm11.09,4.15h-3.28v7.94H122V59.23h-3.14V58.06H122V52.84h1.2v5.22h3.28v1.17Z"/><path class="cls-3" d="M142.42,59.86v0.83H128.14V59.86h6.47V59h-5.23V58.27h5.23V57.45h-4.85V56.72h4.85V55.84h-6.43V55.09h6.43V54.27h-4.75V53.53h4.75v-1h1.18v1h4.85v1.55h1.73v0.75h-1.73v1.62H135.8v0.82h5.47V59H135.8v0.83h6.63Zm-14.28,6h14.28v0.85H128.14V65.86Zm12.53-4.47v3.71H130V61.39h10.71Zm-9.57,1.5h3.55V62.08h-3.55V62.9Zm0,1.52h3.55V63.57h-3.55v0.85Zm8.37-2.34h-3.71V62.9h3.71V62.08Zm0,1.49h-3.71v0.85h3.71V63.57Zm-3.68-8.48h3.67V54.27H135.8v0.82Zm0,1.63h3.67V55.84H135.8v0.88Z"/><path class="cls-3" d="M157.46,58a18,18,0,0,1-2.82,5.41c0.59,1.57,1.33,2.48,2.15,2.48,0.45,0,.64-0.83.75-3a2.81,2.81,0,0,0,1,.64c-0.22,2.72-.66,3.51-1.87,3.51s-2.19-1-2.93-2.62a14.29,14.29,0,0,1-3.3,2.66,6.72,6.72,0,0,0-.86-0.94,12.77,12.77,0,0,0,3.68-3,31.47,31.47,0,0,1-1.17-6.74h-5.52v2.08h4.08V59c-0.08,3.59-.18,4.93-0.51,5.35a1.24,1.24,0,0,1-1,.46,18.35,18.35,0,0,1-1.9,0,2.47,2.47,0,0,0-.34-1.12c0.74,0.06,1.42.08,1.7,0.08a0.52,0.52,0,0,0,.48-0.18c0.22-.24.3-1.25,0.37-4h-2.91v0.13c0,2.24-.24,5.46-1.68,7.54a4.73,4.73,0,0,0-1-.8c1.31-2,1.46-4.69,1.46-6.75V55.26h6.67c-0.06-.88-0.08-1.78-0.1-2.69h1.23c0,0.93,0,1.82.06,2.69h5.17v1.17h-5.09a28.88,28.88,0,0,0,.88,5.55,15.84,15.84,0,0,0,2-4.32Zm-2.77-5.35a15.29,15.29,0,0,1,2.87,1.82l-0.74.82A16.4,16.4,0,0,0,154,53.34Z"/><path class="cls-3" d="M169.27,57.09a13.88,13.88,0,0,0,5.38,6.48,4.92,4.92,0,0,0-.91,1,15.62,15.62,0,0,1-5.63-7.49h-0.22V63h3.71v1.18h-3.71v3h-1.23v-3h-3.71V63h3.71V57.09h-0.26a16.76,16.76,0,0,1-5.6,7.54,5.27,5.27,0,0,0-.85-0.94,14.93,14.93,0,0,0,5.25-6.59h-4.83V55.9h6.29V52.56h1.23V55.9h6.34v1.18h-4.95Z"/><path class="cls-3" d="M14.08,62.72a2.29,2.29,0,0,0,.54,1.19,1.52,1.52,0,0,0,1.16.42,1.56,1.56,0,0,0,1.34-.62,2.54,2.54,0,0,0,.46-1.56,2.71,2.71,0,0,0-.43-1.56A1.51,1.51,0,0,0,15.8,60a2.31,2.31,0,0,0-.75.11,1.48,1.48,0,0,0-.84.74l-2.12-.1,0.84-6.65h6.62v2H14.65L14.22,58.7a5,5,0,0,1,.85-0.47A3.61,3.61,0,0,1,16.32,58,3.63,3.63,0,0,1,20,62a4.59,4.59,0,0,1-1.07,3,3.89,3.89,0,0,1-3.2,1.31,4.25,4.25,0,0,1-2.82-.92,3.58,3.58,0,0,1-1.23-2.61h2.36Z"/><path class="cls-3" d="M22.56,67.91a1.85,1.85,0,0,0,1-.66,2.45,2.45,0,0,0,.39-1.3H22.56V63.46h2.56V65.6A5,5,0,0,1,25,66.78a2.4,2.4,0,0,1-.56,1.06,2.87,2.87,0,0,1-1,.73,2.68,2.68,0,0,1-.82.24V67.91Z"/><path class="cls-3" d="M35.06,55.44A9.36,9.36,0,0,1,36,60a9.31,9.31,0,0,1-.93,4.59,3.4,3.4,0,0,1-3.22,1.61,3.4,3.4,0,0,1-3.22-1.61A9.31,9.31,0,0,1,27.68,60a9.36,9.36,0,0,1,.93-4.6,3.4,3.4,0,0,1,3.22-1.62A3.4,3.4,0,0,1,35.06,55.44Zm-4.62,7.77a1.37,1.37,0,0,0,1.39,1.1,1.35,1.35,0,0,0,1.38-1.1A11.74,11.74,0,0,0,33.54,60a11.61,11.61,0,0,0-.33-3.22,1.34,1.34,0,0,0-1.38-1,1.36,1.36,0,0,0-1.39,1A11.21,11.21,0,0,0,30.1,60,11.33,11.33,0,0,0,30.44,63.21Z"/><path class="cls-3" d="M45.36,55.44a9.36,9.36,0,0,1,.93,4.6,9.31,9.31,0,0,1-.93,4.59,3.4,3.4,0,0,1-3.22,1.61,3.4,3.4,0,0,1-3.22-1.61A9.31,9.31,0,0,1,38,60a9.36,9.36,0,0,1,.93-4.6,3.4,3.4,0,0,1,3.22-1.62A3.4,3.4,0,0,1,45.36,55.44Zm-4.62,7.77a1.37,1.37,0,0,0,1.39,1.1,1.35,1.35,0,0,0,1.38-1.1A11.74,11.74,0,0,0,43.85,60a11.61,11.61,0,0,0-.33-3.22,1.34,1.34,0,0,0-1.38-1,1.36,1.36,0,0,0-1.39,1A11.21,11.21,0,0,0,40.4,60,11.33,11.33,0,0,0,40.74,63.21Z"/><path class="cls-3" d="M55.67,55.44a9.36,9.36,0,0,1,.93,4.6,9.31,9.31,0,0,1-.93,4.59,3.4,3.4,0,0,1-3.22,1.61,3.4,3.4,0,0,1-3.22-1.61A9.31,9.31,0,0,1,48.29,60a9.36,9.36,0,0,1,.93-4.6,3.4,3.4,0,0,1,3.22-1.62A3.4,3.4,0,0,1,55.67,55.44ZM51,63.21a1.37,1.37,0,0,0,1.39,1.1,1.35,1.35,0,0,0,1.38-1.1A11.74,11.74,0,0,0,54.15,60a11.61,11.61,0,0,0-.33-3.22,1.34,1.34,0,0,0-1.38-1,1.36,1.36,0,0,0-1.39,1A11.21,11.21,0,0,0,50.71,60,11.33,11.33,0,0,0,51,63.21Z"/><path class="cls-3" d="M12.45,99.15V97.54A10.44,10.44,0,0,0,14,97.39a2.2,2.2,0,0,0,1.16-.63,2.08,2.08,0,0,0,.46-0.86,2,2,0,0,0,.09-0.48h2v12H15.28v-8.3H12.45Z"/><path class="cls-3" d="M22.56,109.41a1.85,1.85,0,0,0,1-.66,2.45,2.45,0,0,0,.39-1.3H22.56V105h2.56v2.15a5,5,0,0,1-.15,1.18,2.4,2.4,0,0,1-.56,1.06,2.87,2.87,0,0,1-1,.73,2.68,2.68,0,0,1-.82.24v-0.91Z"/><path class="cls-3" d="M35.06,96.95a9.36,9.36,0,0,1,.93,4.6,9.31,9.31,0,0,1-.93,4.59,3.4,3.4,0,0,1-3.22,1.61,3.4,3.4,0,0,1-3.22-1.61,9.31,9.31,0,0,1-.93-4.59,9.36,9.36,0,0,1,.93-4.6,3.4,3.4,0,0,1,3.22-1.62A3.4,3.4,0,0,1,35.06,96.95Zm-4.62,7.77a1.37,1.37,0,0,0,1.39,1.1,1.35,1.35,0,0,0,1.38-1.1,11.74,11.74,0,0,0,.33-3.18,11.61,11.61,0,0,0-.33-3.22,1.34,1.34,0,0,0-1.38-1,1.36,1.36,0,0,0-1.39,1,11.21,11.21,0,0,0-.34,3.22A11.33,11.33,0,0,0,30.44,104.72Z"/><path class="cls-3" d="M45.36,96.95a9.36,9.36,0,0,1,.93,4.6,9.31,9.31,0,0,1-.93,4.59,3.4,3.4,0,0,1-3.22,1.61,3.4,3.4,0,0,1-3.22-1.61,9.31,9.31,0,0,1-.93-4.59,9.36,9.36,0,0,1,.93-4.6,3.4,3.4,0,0,1,3.22-1.62A3.4,3.4,0,0,1,45.36,96.95Zm-4.62,7.77a1.37,1.37,0,0,0,1.39,1.1,1.35,1.35,0,0,0,1.38-1.1,11.74,11.74,0,0,0,.33-3.18,11.61,11.61,0,0,0-.33-3.22,1.34,1.34,0,0,0-1.38-1,1.36,1.36,0,0,0-1.39,1,11.21,11.21,0,0,0-.34,3.22A11.33,11.33,0,0,0,40.74,104.72Z"/><path class="cls-3" d="M55.67,96.95a9.36,9.36,0,0,1,.93,4.6,9.31,9.31,0,0,1-.93,4.59,3.4,3.4,0,0,1-3.22,1.61,3.4,3.4,0,0,1-3.22-1.61,9.31,9.31,0,0,1-.93-4.59,9.36,9.36,0,0,1,.93-4.6,3.4,3.4,0,0,1,3.22-1.62A3.4,3.4,0,0,1,55.67,96.95ZM51,104.72a1.37,1.37,0,0,0,1.39,1.1,1.35,1.35,0,0,0,1.38-1.1,11.74,11.74,0,0,0,.33-3.18,11.61,11.61,0,0,0-.33-3.22,1.34,1.34,0,0,0-1.38-1,1.36,1.36,0,0,0-1.39,1,11.21,11.21,0,0,0-.34,3.22A11.33,11.33,0,0,0,51,104.72Z"/><path class="cls-3" d="M263.15,65.55a1.18,1.18,0,0,1-.72,1.33,10.45,10.45,0,0,1-3,.19,4.72,4.72,0,0,0-.4-1.15c1.12,0,2.21,0,2.5,0a0.36,0.36,0,0,0,.43-0.42V62.29h-4.31V67h-1.18V62.29h-4a9.19,9.19,0,0,1-2,5,3.88,3.88,0,0,0-.91-0.78c1.76-2,1.92-4.8,1.92-7V53.68h11.65V65.55Zm-6.66-4.4V58.5h-3.83v0.94c0,0.53,0,1.12-.06,1.71h3.89Zm-3.83-6.34v2.56h3.83V54.81h-3.83Zm9.32,0h-4.31v2.56H262V54.81Zm0,6.34V58.5h-4.31v2.66H262Z"/><path class="cls-3" d="M271.74,58.5s0,0.38,0,.54c-0.19,5-.37,6.72-0.82,7.3a1.09,1.09,0,0,1-.91.5,8.68,8.68,0,0,1-1.47,0,3,3,0,0,0-.29-1.09c0.54,0,1,0,1.22,0a0.47,0.47,0,0,0,.48-0.21c0.29-.35.48-1.87,0.64-6H268.5c-0.18,3.17-.64,5.79-2.06,7.52a3.08,3.08,0,0,0-.9-0.86c1.71-2.06,1.86-5.62,1.9-10h-1.58v-1.1h6.45v1.1h-3.7c0,0.75,0,1.5-.06,2.21h3.19Zm-2.67-3.33a10,10,0,0,0-1.31-2.27l1-.4a9.56,9.56,0,0,1,1.38,2.22Zm7.81-2.37a8.17,8.17,0,0,1-.29.88A11,11,0,0,0,280.51,58a4.67,4.67,0,0,0-.88,1,12.27,12.27,0,0,1-3.55-4.16,10.4,10.4,0,0,1-3.46,4.26,4.53,4.53,0,0,0-.83-0.94,9.8,9.8,0,0,0,4-5.7Zm-2.71,10.29a24.46,24.46,0,0,1,4.37,2.67l-0.8,1A22.71,22.71,0,0,0,273.42,64Zm3-1.41a22.63,22.63,0,0,0-2.75-2.21l0.77-.77a20.28,20.28,0,0,1,2.8,2.1Z"/><path class="cls-3" d="M292.64,59.76a8.75,8.75,0,0,0,3.81,2.42,3.29,3.29,0,0,0-.74.9,9.12,9.12,0,0,1-4.19-3.31h-5a10.32,10.32,0,0,1-4.23,3.43,4,4,0,0,0-.72-0.85,9.72,9.72,0,0,0,3.7-2.58h-3.43V58.81h1.73l-0.27-5.12a23.06,23.06,0,0,0,3-1l0.56,0.7a15.35,15.35,0,0,1-2.42.85l0,0.8h2.27v0.78H284.5l0,1h2.18v0.78H284.6l0.06,1.23h8.55c0-.3.06-0.66,0.08-1h-2V56.94h2.08l0.06-1h-2.06V55.05h2.1c0-.35,0-0.7,0-1h-2.24V53.15h3.33c-0.06,1.79-.18,4.15-0.32,5.67h1.89v0.94h-3.54ZM289.56,64h5.36v1h-5.36v2.19h-1.17V65h-5.17V64h5.17V62.66h-2.87v-1h2.87V60.42h1.17V61.7h2.93v1h-2.93V64Zm-0.72-7.68a6.88,6.88,0,0,1-1,2.34L287,58.38a6.12,6.12,0,0,0,1-2.21Zm1.9-.9c0,1.9-.1,2.59-0.32,2.87a0.8,0.8,0,0,1-.69.29,9.4,9.4,0,0,1-1,0,2.09,2.09,0,0,0-.18-0.67c0.34,0,.62,0,0.77,0a0.25,0.25,0,0,0,.27-0.1,6.68,6.68,0,0,0,.16-2.08h-2.35v-3.2h0.91v0.88h2.48v0.74h-2.48V55h2.39v0.37Z"/><path class="cls-3" d="M300.65,62.8a5.86,5.86,0,0,1-2,4.4,3.62,3.62,0,0,0-.72-0.77,4.62,4.62,0,0,0,1.66-3.63h-1.65v-1h1.68v-1.9h-1.89v-1h2.61a25.31,25.31,0,0,0,.72-3L302,56.11c-0.26.9-.54,2-0.8,2.77h1.33v1h-1.84v1.9h1.58v1h-1.62Zm1.79-7.12h-4.59v-1h1.87A15.29,15.29,0,0,0,299,53l1-.29a18.6,18.6,0,0,1,.9,1.94h1.57v1Zm-3.71,3.07a9.25,9.25,0,0,0-.46-2.56L299.1,56a9.89,9.89,0,0,1,.53,2.54Zm8.08-2.59s0,0.42,0,.54c-0.1,6.87-.16,9-0.53,9.64a1.09,1.09,0,0,1-.86.54,8,8,0,0,1-1.26,0,3.13,3.13,0,0,0-.27-1c0.46,0,.9,0,1.1,0a0.37,0.37,0,0,0,.42-0.24c0.22-.42.34-2.47,0.42-8.47h-1.14c-0.18,4.18-.67,7.51-2.34,10a7.15,7.15,0,0,0-.8-0.74c1.57-2.15,2-5.35,2.19-9.25h-1V56.16h1c0-1.15,0-2.35,0-3.6h1c0,1.26,0,2.45,0,3.6h2.13Zm3.57,3.75V62h1.76v1h-1.76v4.11h-1.09V63h-1.71V62h1.71V59.9h-2v-1h2.77a25.2,25.2,0,0,0,.72-3.07l1,0.24c-0.26.93-.54,2-0.8,2.83h1.31v1h-1.9Zm1.73-4.26h-4.72v-1h2a17,17,0,0,0-.77-1.74l1-.29a15.1,15.1,0,0,1,.91,2h1.62v1Zm-3.73,3.14a10.7,10.7,0,0,0-.53-2.64l0.82-.21a10,10,0,0,1,.59,2.63Z"/><path class="cls-3" d="M328.22,57v0.91h-2.67l-0.13,1.39h-9.24l0.19-1.39h-2.54V57h2.66l0.18-1.34h9.08L325.63,57h2.59Zm-5.52,8c1.84,0.46,3.76,1,5,1.47l-0.78.77c-1.14-.43-3-1.06-4.87-1.55l0.59-.69H319.1L320,65.59a19,19,0,0,1-5.23,1.6,5.8,5.8,0,0,0-.64-0.83A17.84,17.84,0,0,0,319,65H316V60h10.15v5H322.7Zm-7.25-8.48h-1.09V53.93h6.16a9.6,9.6,0,0,0-.7-1.18l1-.32a7.16,7.16,0,0,1,.94,1.5h5.92v2.54h-1.14V54.91H315.45v1.57Zm1.68,4.93h7.81V60.69h-7.81v0.72Zm0,1.41h7.81V62.08h-7.81v0.74Zm0,1.44h7.81V63.5h-7.81v0.75Zm0.24-5.65h3l0.1-.78h-3Zm0.27-2.24-0.1.74h3l0-.74h-2.93Zm6.74,2.24,0.06-.78h-3c0,0.29-.06.53-0.08,0.78h3Zm0.18-2.24h-3l-0.06.74h3Z"/><path class="cls-3" d="M335.26,57.53h0.69v2.29h-0.74V66a0.87,0.87,0,0,1-.45.94,5.39,5.39,0,0,1-1.79.16,4.53,4.53,0,0,0-.34-0.91l1.34,0a0.19,0.19,0,0,0,.22-0.22v-2.1c-0.75.46-1.47,0.91-2.15,1.3l-0.45-.85c0.69-.29,1.62-0.77,2.59-1.28V60.3h-2.51v2.15a8.66,8.66,0,0,1-1.1,4.77,3.62,3.62,0,0,0-.83-0.64,7.41,7.41,0,0,0,.93-4.13V59.82H329.9V57.53h0.66V53.12h4.71v4.42ZM335,58.4h-4.19v1.06H335V58.4Zm-3.47-.86h1V55.05h1.74V54h-2.74v3.51Zm2,5.33a13.43,13.43,0,0,0-1.7-1.41l0.54-.54a11.45,11.45,0,0,1,1.75,1.3Zm0.78-5.33V55.81h-1v1.73h1Zm10,8.39v0.93H336V65.92h2.29a12,12,0,0,0-.56-1.5l0.93-.27c0.24,0.54.53,1.26,0.69,1.78h1.54c0.24-.56.53-1.31,0.69-1.82l1.09,0.32c-0.27.5-.56,1.06-0.8,1.5h2.42Zm-0.14-5.59h-8v-0.9h8v0.9Zm-0.4-1.73h-7.22V53.79h2V52.57h1v1.22h1.15V52.57h1v1.22h2.13v4.82ZM337,64.07v-3h6.4v3H337Zm0.5-8.29h1.23V54.64h-1.23v1.14Zm0,2h1.23V56.57h-1.23v1.18ZM338,63.27h4.24V61.92H338v1.34Zm2.67-7.49V54.64h-1.2v1.14h1.2Zm-1.2.8v1.18h1.2V56.57h-1.2Zm3.3-1.94h-1.3v1.14h1.3V54.64Zm0,1.94h-1.3v1.18h1.3V56.57Z"/><path class="cls-3" d="M348.66,59.7c-0.66-.45-2-1.22-2.95-1.73l0.66-.86c0.93,0.46,2.26,1.17,3,1.62Zm-2.56,6.45a46.28,46.28,0,0,0,3-5.12L350,61.81a58.14,58.14,0,0,1-2.9,5.14Zm3.36-10.79c-0.66-.46-2-1.23-3-1.76l0.66-.85a29.27,29.27,0,0,1,3,1.65Zm6.4,3V61h3.35v6.1h-1.14V66.48h-5.7v0.67h-1.09V61h3.44V58.35h-4.61V57.2h4.61V54.61c-1.17.18-2.38,0.32-3.52,0.43a5.68,5.68,0,0,0-.32-1,39.37,39.37,0,0,0,7.75-1.42l0.94,0.93a25.81,25.81,0,0,1-3.71.9V57.2h4.39v1.15h-4.39Zm2.21,3.73h-5.7v3.3h5.7v-3.3Z"/><path class="cls-3" d="M376,56.25s0,0.45,0,.61c-0.18,6.71-.32,8.93-0.86,9.6a1.26,1.26,0,0,1-1.07.59,11.06,11.06,0,0,1-1.94,0,3.23,3.23,0,0,0-.34-1.12c0.77,0.06,1.47.08,1.78,0.08a0.61,0.61,0,0,0,.58-0.26c0.37-.46.56-2.58,0.72-8.39h-2.29c-0.19,4.26-.93,7.75-3.75,9.86a4.05,4.05,0,0,0-.88-0.85,8.44,8.44,0,0,0,.7-0.56c-2.43.29-4.91,0.56-6.71,0.75l-0.18-1,3.47-.32V63.84h-3V62.93h3V62h-3V57.2h3v-1h-3.46V55.26h3.46V54.21c-1,.08-2.06.14-3,0.18a3.56,3.56,0,0,0-.29-0.88,50,50,0,0,0,6.9-.78l0.59,0.91a30.46,30.46,0,0,1-3.12.46v1.17h3.39v0.93h-3.39v1h3.11V62h-3.11v1h3.14v0.91h-3.14v1.26c1-.1,2.13-0.21,3.2-0.34v0.08c1.39-1.89,1.81-4.47,2-7.48h-1.87V56.25h1.9c0-1.12,0-2.29,0-3.51h1.12c0,1.2,0,2.39,0,3.51H376Zm-12.79,2.91h2V58h-2v1.15Zm2,2V60h-2v1.17h2ZM366.26,58v1.15h2.1V58h-2.1Zm2.1,1.94h-2.1v1.17h2.1V60Z"/><path class="cls-3" d="M382.15,52.75c-0.27.78-.56,1.67-0.83,2.35H384V65.49h-4.45v1.26h-1.09V55.1h1.79a19.7,19.7,0,0,0,.64-2.59Zm0.74,3.43h-3.36v3.35h3.36V56.17Zm0,8.24V60.58h-3.36v3.84h3.36Zm8.92-8.76c-0.26,7.3-.46,9.76-1.1,10.55a1.59,1.59,0,0,1-1.26.64,16.91,16.91,0,0,1-2.37,0,2.75,2.75,0,0,0-.4-1.17c1,0.1,2,.1,2.37.1a0.69,0.69,0,0,0,.66-0.24c0.53-.56.77-3,1-9.36H386.6a13.46,13.46,0,0,1-1.5,2.8,8.73,8.73,0,0,0-1-.67,16.25,16.25,0,0,0,2.45-5.81l1.14,0.27a22.58,22.58,0,0,1-.69,2.31h4.79v0.61Zm-3.54,7.22a28.48,28.48,0,0,0-2.43-3.7l0.93-.54a31.34,31.34,0,0,1,2.51,3.62Z"/><path class="cls-3" d="M407.2,58a18,18,0,0,1-2.82,5.41c0.59,1.57,1.33,2.48,2.15,2.48,0.45,0,.64-0.83.75-3a2.81,2.81,0,0,0,1,.64c-0.22,2.72-.66,3.51-1.87,3.51s-2.19-1-2.93-2.62a14.29,14.29,0,0,1-3.3,2.66,6.72,6.72,0,0,0-.86-0.94,12.77,12.77,0,0,0,3.68-3,31.47,31.47,0,0,1-1.17-6.74h-5.52v2.08h4.08V59c-0.08,3.59-.18,4.93-0.51,5.35a1.24,1.24,0,0,1-1,.46,18.35,18.35,0,0,1-1.9,0,2.47,2.47,0,0,0-.34-1.12c0.74,0.06,1.42.08,1.7,0.08a0.52,0.52,0,0,0,.48-0.18c0.22-.24.3-1.25,0.37-4h-2.91v0.13c0,2.24-.24,5.46-1.68,7.54a4.73,4.73,0,0,0-1-.8c1.31-2,1.46-4.69,1.46-6.75V55.26h6.67c-0.06-.88-0.08-1.78-0.1-2.69h1.23c0,0.93,0,1.82.06,2.69h5.17v1.17h-5.09a28.88,28.88,0,0,0,.88,5.55,15.84,15.84,0,0,0,2-4.32Zm-2.77-5.35a15.29,15.29,0,0,1,2.87,1.82l-0.74.82a16.4,16.4,0,0,0-2.83-1.92Z"/><path class="cls-3" d="M419,57.09a13.88,13.88,0,0,0,5.38,6.48,4.92,4.92,0,0,0-.91,1,15.62,15.62,0,0,1-5.63-7.49h-0.22V63h3.71v1.18h-3.71v3h-1.23v-3h-3.71V63h3.71V57.09h-0.26a16.76,16.76,0,0,1-5.6,7.54,5.27,5.27,0,0,0-.85-0.94,14.93,14.93,0,0,0,5.25-6.59h-4.83V55.9h6.29V52.56h1.23V55.9h6.34v1.18H419Z"/><path class="cls-3" d="M263.15,107.06a1.18,1.18,0,0,1-.72,1.33,10.45,10.45,0,0,1-3,.19,4.72,4.72,0,0,0-.4-1.15c1.12,0,2.21,0,2.5,0A0.36,0.36,0,0,0,262,107V103.8h-4.31v4.72h-1.18V103.8h-4a9.19,9.19,0,0,1-2,5,3.88,3.88,0,0,0-.91-0.78c1.76-2,1.92-4.8,1.92-7V95.19h11.65v11.88Zm-6.66-4.4V100h-3.83v0.94c0,0.53,0,1.12-.06,1.71h3.89Zm-3.83-6.34v2.56h3.83V96.32h-3.83Zm9.32,0h-4.31v2.56H262V96.32Zm0,6.34V100h-4.31v2.66H262Z"/><path class="cls-3" d="M271.74,100s0,0.38,0,.54c-0.19,5-.37,6.72-0.82,7.3a1.09,1.09,0,0,1-.91.5,8.68,8.68,0,0,1-1.47,0,3,3,0,0,0-.29-1.09c0.54,0,1,0,1.22,0a0.47,0.47,0,0,0,.48-0.21c0.29-.35.48-1.87,0.64-6H268.5c-0.18,3.17-.64,5.79-2.06,7.52a3.08,3.08,0,0,0-.9-0.86c1.71-2.06,1.86-5.62,1.9-10h-1.58v-1.1h6.45v1.1h-3.7c0,0.75,0,1.5-.06,2.21h3.19Zm-2.67-3.33a10,10,0,0,0-1.31-2.27l1-.4a9.56,9.56,0,0,1,1.38,2.22Zm7.81-2.37a8.17,8.17,0,0,1-.29.88,11,11,0,0,0,3.92,4.35,4.67,4.67,0,0,0-.88,1,12.27,12.27,0,0,1-3.55-4.16,10.4,10.4,0,0,1-3.46,4.26,4.53,4.53,0,0,0-.83-0.94,9.8,9.8,0,0,0,4-5.7Zm-2.71,10.29a24.46,24.46,0,0,1,4.37,2.67l-0.8,1a22.71,22.71,0,0,0-4.32-2.82Zm3-1.41a22.63,22.63,0,0,0-2.75-2.21l0.77-.77a20.28,20.28,0,0,1,2.8,2.1Z"/><path class="cls-3" d="M283.38,104.45a19.42,19.42,0,0,1-.8,3.84,5,5,0,0,0-.9-0.34,17.58,17.58,0,0,0,.77-3.67Zm3.19-4.43a16.92,16.92,0,0,1,1.14,3.15l-0.91.37c0-.22-0.1-0.5-0.18-0.8-3.67.58-4.16,0.7-4.45,0.86a8,8,0,0,0-.35-1,2.79,2.79,0,0,0,1.15-1.07c0.26-.3.77-1,1.36-1.87a8.24,8.24,0,0,0-2.27.38,8.44,8.44,0,0,0-.34-1,2,2,0,0,0,.86-0.88,22.38,22.38,0,0,0,2.08-4l1,0.43a24.15,24.15,0,0,1-2.45,4.29l1.71-.16c0.42-.69.85-1.46,1.22-2.21L287.1,97a30.34,30.34,0,0,1-3.57,5.33l2.83-.38c-0.19-.54-0.42-1.1-0.62-1.58ZM285,104.23a27,27,0,0,1,.45,3.36l-0.91.22a27.24,27.24,0,0,0-.4-3.41Zm1.71-.42a26.39,26.39,0,0,1,1,3.07l-0.86.29a23.31,23.31,0,0,0-.91-3.09Zm9.48,3.71h-6.42v1.17H288.7V99.48a12.73,12.73,0,0,1-1,1.34,8.5,8.5,0,0,0-.58-1.06A17.7,17.7,0,0,0,290,94.15l1.12,0.32a25.45,25.45,0,0,1-1,2.47H296V98h-2.75v2h2.45v1.09h-2.45v2h2.46v1.07h-2.46v2.18h3v1.1ZM292.14,98h-2.35v2h2.35V98Zm0,3.1h-2.35v2h2.35v-2Zm-2.35,5.3h2.35v-2.18h-2.35v2.18Zm2.87-9.6a17.8,17.8,0,0,0-1.07-2.27l1-.4a16.32,16.32,0,0,1,1.09,2.19Z"/><path class="cls-3" d="M303.32,97.75H297.7v-1h5.62v1Zm-0.5,10h-3.46v0.75h-1v-5.38h4.48v4.63Zm0-7.89h-4.42V98.87h4.42v0.94Zm-4.42,1.14h4.42v0.94h-4.42v-0.94Zm1,3.12v2.64h2.42v-2.64h-2.42Zm1.26-7.48a12.28,12.28,0,0,0-1.15-2.13l0.9-.48a13.22,13.22,0,0,1,1.22,2.06Zm3.87,3.2a7.26,7.26,0,0,1-.85,1,7.26,7.26,0,0,0-.66-0.86,8.21,8.21,0,0,0,2.08-3.35L306,96.82V96h-2.59V95H306v-1h1.07v2.8h-1c-0.13.35-.27,0.72-0.43,1.07h2.08c-0.11-.34-0.22-0.74-0.35-1l1-.29a12.61,12.61,0,0,1,.51,1.33h3v0.8h-3.12v0.8h2.71v0.7h-2.71V101h2.71v0.7h-2.71v0.85h3.47v0.78h-6.69v0.32h-1V99.8Zm7,4.58a7.26,7.26,0,0,1-2.5,2.48,16,16,0,0,0,3.52.88,3.67,3.67,0,0,0-.67.94,15,15,0,0,1-4-1.25,16.67,16.67,0,0,1-4.32,1.26,4,4,0,0,0-.51-1,16.31,16.31,0,0,0,3.78-.91,7.51,7.51,0,0,1-1.89-1.71l0.5-.18h-1.79v-0.88h7l0.19,0Zm-3.78-5.63h-2.19v0.8h2.19v-0.8Zm0,1.5h-2.19V101h2.19v-0.8Zm0,1.5h-2.19v0.85h2.19v-0.85Zm-1.7,3.19a7.45,7.45,0,0,0,1.87,1.41,7,7,0,0,0,2-1.41H306Zm3.78-8.07H308.7v-2.8h1.09v1h2.42V96h-2.42v0.88Z"/><path class="cls-3" d="M327.44,94.79V108.6H326.3v-0.75H315.69v0.83h-1.1V94.79h12.85Zm-1.14,12.1V95.73H315.69v11.16H326.3Zm-0.53-2.62h-2.29v1.49a0.59,0.59,0,0,1-.46.74,7.78,7.78,0,0,1-1.9.11,2.49,2.49,0,0,0-.29-0.67c0.64,0,1.25,0,1.41,0s0.24,0,.24-0.21v-1.46h-6.24v-0.74h6.24v-0.59h1v0.59h2.29v0.74Zm-5.33-6.79h-4V96.74h4V96h1v0.75h4.1v0.74h-4.1v0.67H325v3.2h-1.28a8.84,8.84,0,0,1,1.73,1.57l-0.67.5a7.77,7.77,0,0,0-.64-0.7c-2.77.1-5.63,0.18-7.62,0.22l0-.75,4,0v-0.8H317v-3.2h3.39V97.47Zm-1.74,6.87a7.09,7.09,0,0,1,1.42,1.44l-0.82.48a7.4,7.4,0,0,0-1.38-1.52Zm-0.7-4.9h2.45V98.76H318v0.69Zm2.45,1.3V100H318v0.7h2.45Zm1-2v0.69H324V98.76h-2.55ZM324,100h-2.55v0.7H324V100Zm-0.58,2c-0.13-.11-0.26-0.21-0.38-0.3l0.64-.43h-2.23v0.78Z"/><path class="cls-3" d="M334.89,95.15c-0.48,1.31-1.06,3-1.6,4.23a4.9,4.9,0,0,1,1.44,3.41,2.22,2.22,0,0,1-.62,1.84,1.72,1.72,0,0,1-.83.29,7.88,7.88,0,0,1-1.07,0,2.4,2.4,0,0,0-.3-1.06,4.61,4.61,0,0,0,.93,0,0.76,0.76,0,0,0,.5-0.14,1.32,1.32,0,0,0,.34-1.07,4.59,4.59,0,0,0-1.42-3.17c0.46-1.17.93-2.61,1.26-3.7h-2.1v12.85h-1.06V94.74h3.59l0.19,0Zm8.95,4.21c-0.62.5-1.38,1-2.11,1.5a12.12,12.12,0,0,0,2.79,4.82,3.72,3.72,0,0,0-.78.8,14.89,14.89,0,0,1-2.83-5.12l-0.3.18c0.85,2.67.48,5.47-.48,6.29a2,2,0,0,1-1.57.61c-0.3,0-.83,0-1.26,0a2.76,2.76,0,0,0-.29-1.09,11.35,11.35,0,0,0,1.33.08,1.1,1.1,0,0,0,.93-0.35,4.61,4.61,0,0,0,.67-3.3,16.4,16.4,0,0,1-4.56,2.78,3.49,3.49,0,0,0-.7-0.85,13.1,13.1,0,0,0,5.09-3.09,9.89,9.89,0,0,0-.34-1.26,21.13,21.13,0,0,1-3.57,2.3,3.63,3.63,0,0,0-.67-0.86,14.76,14.76,0,0,0,3.86-2.31,6.67,6.67,0,0,0-.8-1.26,17.17,17.17,0,0,1-2.95,1.87,5.78,5.78,0,0,0-.72-0.85,13,13,0,0,0,3.79-2.43h-3.54V96.74h3.12a11.13,11.13,0,0,0-1.84-2l0.88-.56a9.42,9.42,0,0,1,1.94,2l-0.8.56,1.79,0a17.3,17.3,0,0,0,1.71-2.69l1.14,0.37a26.79,26.79,0,0,1-1.62,2.32h3v1h-4.48a6.59,6.59,0,0,1-.74.77,7.9,7.9,0,0,1,1.31,2.11,23,23,0,0,0,2.82-2.08Z"/><path class="cls-3" d="M352,102.18a13.43,13.43,0,0,1,.86,1.74l-0.58.22h0.16v1.42c0,1.2-.29,2.29-2.27,3a3,3,0,0,0-.58-0.7,2.71,2.71,0,0,0,1.78-1.23h-2.13v-2.24h0.82v1.49h1.5a2.13,2.13,0,0,0,0-.32v-1.41h0.61c0-.13-0.13-0.3-0.19-0.5a18.49,18.49,0,0,0-3.15.4,3.62,3.62,0,0,0-.24-0.78,1.86,1.86,0,0,0,.86-0.45,8.45,8.45,0,0,0,1-.83,5.78,5.78,0,0,0-1.49.19,7,7,0,0,0-.27-0.82,1,1,0,0,0,.53-0.29,7.75,7.75,0,0,0,1.14-1.46h-2.75v9.06h-1.14V94.74h5.83v4.88H350.6l0.54,0.29a8.62,8.62,0,0,1-1.25,1.46l1.18,0a8.45,8.45,0,0,0,.7-0.83l0.7,0.46a19.26,19.26,0,0,1-2.42,2.21l1.62-.13c-0.11-.22-0.22-0.45-0.34-0.64Zm-4.42-6.58v1.2h3.57V95.6h-3.57Zm0,3.14h3.57V97.6h-3.57v1.14Zm12.08,8.44a1.11,1.11,0,0,1-.56,1.22,5.21,5.21,0,0,1-2.08.24,5.33,5.33,0,0,0-.37-1.18c0.7,0,1.38,0,1.58,0a0.23,0.23,0,0,0,.27-0.29V99.62h-3.59l0.59,0.3a11.36,11.36,0,0,1-1.25,1.46l1.18-.06c0.26-.27.48-0.54,0.7-0.83l0.69,0.45a16.45,16.45,0,0,1-2.42,2.23L356,103c-0.11-.22-0.22-0.45-0.34-0.64l0.61-.21a14.54,14.54,0,0,1,.93,1.73l-0.64.29a5.29,5.29,0,0,0-.26-0.54,14.33,14.33,0,0,0-3.12.42,7.27,7.27,0,0,0-.24-0.8,1.92,1.92,0,0,0,.85-0.43c0.18-.13.53-0.45,1-0.85a4.59,4.59,0,0,0-1.5.21,5.07,5.07,0,0,0-.29-0.82,0.92,0.92,0,0,0,.53-0.29,7.88,7.88,0,0,0,1.15-1.47h-1V94.74h6v12.44Zm-3.76,0v-0.5h-1.54v1.81h-0.9v-4.29h0.9v1.73h1.54v-1.47h0.85v2.72H355.9ZM354.83,95.6v1.2h3.68V95.6h-3.68Zm3.68,3.14V97.6h-3.68v1.14h3.68Z"/><path class="cls-3" d="M366.18,94.48a26.28,26.28,0,0,1-1.36,3.25v10.92h-1.15v-8.9a17,17,0,0,1-1.47,2,8.64,8.64,0,0,0-.66-1.17,18.94,18.94,0,0,0,3.55-6.43Zm2.64,9.81a14.9,14.9,0,0,1-2.54,3.52,5.64,5.64,0,0,0-.9-0.62,11.17,11.17,0,0,0,2.34-3.22Zm2.63-1.09v4.18a0.94,0.94,0,0,1-.54,1,6.53,6.53,0,0,1-2.06.18,3.9,3.9,0,0,0-.35-1l1.5,0c0.19,0,.27,0,0.27-0.22v-4c-3,.27-3.51.35-3.84,0.51a10,10,0,0,0-.35-1,5.89,5.89,0,0,0,1.9-.86c0.46-.29,1.5-1,2.67-1.86a19.87,19.87,0,0,0-3.79.42,7.94,7.94,0,0,0-.32-1,3.28,3.28,0,0,0,1.18-.58,22,22,0,0,0,3.41-2.8l1,0.51a25.19,25.19,0,0,1-3.35,2.64l3.2-.19a26.16,26.16,0,0,0,2-1.76L374.84,98a41.64,41.64,0,0,1-6,4.45l5-.43c-0.35-.43-0.72-0.86-1.07-1.25l0.88-.53a25.75,25.75,0,0,1,2.53,3.1l-0.94.61c-0.18-.29-0.4-0.64-0.69-1Zm2.46-8.47a35,35,0,0,1-7.23,2.71,3.09,3.09,0,0,0-.38-0.93,27.57,27.57,0,0,0,6.77-2.71Zm-0.16,9.06a16,16,0,0,1,2.4,3.22l-1,.54a15.14,15.14,0,0,0-2.35-3.3Z"/><path class="cls-3" d="M387.32,102.77l-1.09.91a27.5,27.5,0,0,0-3.54-3.55l1-.91A30.09,30.09,0,0,1,387.32,102.77Z"/><path class="cls-3" d="M401.95,94.39a3.75,3.75,0,0,0-.22.3A15.67,15.67,0,0,0,408.48,98a4.66,4.66,0,0,0-.75.91,19.05,19.05,0,0,1-3.92-1.6v0.5h-5.54V97.39A22,22,0,0,1,394.34,99a7.81,7.81,0,0,0-.67-0.91c2.9-.77,5.73-2.18,7.23-4.11Zm-6.29,4.23h10.69v4H395.66v-4Zm0.93,4.79h9v5.2h-1.2v-0.48h-6.63v0.53h-1.17V103.4Zm0.1-1.57h3.78V99.44h-3.78v2.39Zm1.81-2.21a6.44,6.44,0,0,1,1,1.81l-0.91.34a6.83,6.83,0,0,0-.9-1.87Zm-0.74,4.63v1.09h6.63v-1.09h-6.63Zm6.63,3v-1.09h-6.63v1.09h6.63ZM403.18,97a13.51,13.51,0,0,1-2.11-1.6A12,12,0,0,1,399,97h4.18Zm2.1,2.48h-3.81v2.39h3.81V99.44Zm-2.79,2a13.72,13.72,0,0,0,.88-1.92l1,0.32a17.49,17.49,0,0,1-1.09,1.89Z"/><path class="cls-3" d="M409.7,96.77h5v1h-5v-1Zm4.59,11h-3.17v0.75h-0.9v-5.36h4.07v4.61Zm-4-8.88h4.07v0.94h-4.07V98.87Zm0,2.11h4.07v1h-4.07v-1Zm0.86,3.12v2.69h2.26V104.1h-2.26ZM412,96.61a10.69,10.69,0,0,0-.8-2.16l0.88-.3a10.18,10.18,0,0,1,.85,2.08Zm11.51,8.13a8.58,8.58,0,0,1-1.58,1.94,1.6,1.6,0,0,0,1.23,1.15c0.26,0,.42-0.35.5-1.38a2.24,2.24,0,0,0,.75.43c-0.18,1.44-.54,1.9-1.33,1.92a2.22,2.22,0,0,1-1.94-1.47,10.55,10.55,0,0,1-2,1.17,3.73,3.73,0,0,0-.61-0.64,10.21,10.21,0,0,0,2.26-1.36,14,14,0,0,1-.56-2.53h-2.14v1.09l1.7-.24,0,0.88-1.73.26v1.62a0.84,0.84,0,0,1-.53,1,6.46,6.46,0,0,1-1.92.14,4.43,4.43,0,0,0-.34-0.9l1.47,0c0.19,0,.24-0.06.24-0.24v-1.44l-2.14.32-0.16-1c0.66-.06,1.44-0.18,2.3-0.29V104h-2.24v-0.91H417V102c-0.59.08-1.17,0.16-1.73,0.21a3.56,3.56,0,0,0-.27-0.75,20.48,20.48,0,0,0,4-.78l0.69,0.75a15.35,15.35,0,0,1-1.58.38v1.28h2c-0.06-.7-0.11-1.49-0.14-2.32h1c0,0.85.06,1.63,0.13,2.32h3.07V104h-3a13.44,13.44,0,0,0,.37,1.79,6.53,6.53,0,0,0,1-1.42Zm0.66-4.37h-9.38V99.46h4.13v-1.1h-3V97.54h3v-1h-3.55V95.62h2a10.26,10.26,0,0,0-.82-1.23l0.85-.34a5.89,5.89,0,0,1,1,1.54l-0.08,0h2.46a11.17,11.17,0,0,0,.88-1.58l1.06,0.32c-0.29.45-.61,0.9-0.86,1.26h2V96.5h-3.76v1h3.35v0.82h-3.35v1.1h4.1v0.91Zm-1.87.38a7.65,7.65,0,0,1,1.76,1.5l-0.72.59a8.36,8.36,0,0,0-1.73-1.57Z"/><path class="cls-3" d="M430.15,94.26c-0.27.78-.56,1.67-0.83,2.35H432V107h-4.45v1.26h-1.09V96.61h1.79a19.7,19.7,0,0,0,.64-2.59Zm0.74,3.43h-3.36V101h3.36V97.68Zm0,8.24v-3.84h-3.36v3.84h3.36Zm8.92-8.76c-0.26,7.3-.46,9.76-1.1,10.55a1.59,1.59,0,0,1-1.26.64,16.91,16.91,0,0,1-2.37,0,2.75,2.75,0,0,0-.4-1.17c1,0.1,2,.1,2.37.1a0.69,0.69,0,0,0,.66-0.24c0.53-.56.77-3,1-9.36H434.6a13.46,13.46,0,0,1-1.5,2.8,8.73,8.73,0,0,0-1-.67A16.25,16.25,0,0,0,434.57,94l1.14,0.27a22.58,22.58,0,0,1-.69,2.31h4.79v0.61Zm-3.54,7.22a28.48,28.48,0,0,0-2.43-3.7l0.93-.54a31.34,31.34,0,0,1,2.51,3.62Z"/><path class="cls-3" d="M455.2,99.48a18,18,0,0,1-2.82,5.41c0.59,1.57,1.33,2.48,2.15,2.48,0.45,0,.64-0.83.75-3a2.81,2.81,0,0,0,1,.64c-0.22,2.72-.66,3.51-1.87,3.51s-2.19-1-2.93-2.62a14.29,14.29,0,0,1-3.3,2.66,6.72,6.72,0,0,0-.86-0.94,12.77,12.77,0,0,0,3.68-3,31.47,31.47,0,0,1-1.17-6.74h-5.52V100h4.08v0.51c-0.08,3.59-.18,4.93-0.51,5.35a1.24,1.24,0,0,1-1,.46,18.35,18.35,0,0,1-1.9,0,2.47,2.47,0,0,0-.34-1.12c0.74,0.06,1.42.08,1.7,0.08a0.52,0.52,0,0,0,.48-0.18c0.22-.24.3-1.25,0.37-4h-2.91v0.13c0,2.24-.24,5.46-1.68,7.54a4.73,4.73,0,0,0-1-.8c1.31-2,1.46-4.69,1.46-6.75V96.77h6.67c-0.06-.88-0.08-1.78-0.1-2.69h1.23c0,0.93,0,1.82.06,2.69h5.17v1.17h-5.09a28.88,28.88,0,0,0,.88,5.55,15.84,15.84,0,0,0,2-4.32Zm-2.77-5.35A15.29,15.29,0,0,1,455.29,96l-0.74.82a16.4,16.4,0,0,0-2.83-1.92Z"/><path class="cls-3" d="M467,98.6a13.88,13.88,0,0,0,5.38,6.48,4.92,4.92,0,0,0-.91,1,15.62,15.62,0,0,1-5.63-7.49h-0.22v5.91h3.71v1.18h-3.71v3h-1.23v-3h-3.71V104.5h3.71V98.6h-0.26a16.76,16.76,0,0,1-5.6,7.54,5.27,5.27,0,0,0-.85-0.94,14.93,14.93,0,0,0,5.25-6.59h-4.83V97.41h6.29V94.07h1.23v3.35h6.34V98.6H467Z"/><path class="cls-3" d="M87.91,94.11c0,0.58,0,1.38-.11,2.32,0.24,1.9,1.2,8.6,6.85,11.11a3.62,3.62,0,0,0-.86,1c-4-1.87-5.71-5.83-6.48-8.8A12.82,12.82,0,0,1,81,108.62a3.8,3.8,0,0,0-1-.93c6.64-3.36,6.55-11.14,6.59-13.57h1.31Z"/><path class="cls-3" d="M110.49,104.13h-1.65V107h-1.18v-0.72h-3.84v1.1a1,1,0,0,1-.7,1.18,9.55,9.55,0,0,1-2.66.19,4,4,0,0,0-.42-1c1,0,1.92,0,2.19,0a0.33,0.33,0,0,0,.4-0.38v-1.1H97.46v-0.91h5.17v-1.2H96.08v-0.94h6.55v-1.12h-5v-0.88h5v-1.12H98V97.25h4.58V96.32H96.38v-1h6.24V94.07h1.18v1.28h6.37v1h-6.37v0.93h4.77v2.82h-4.77v1.12h5v2h1.65v0.94Zm-7.86-4.9V98.08H99.19v1.15h3.44Zm1.18-1.15v1.15h3.59V98.08h-3.59Zm0,5.11h3.84v-1.12h-3.84v1.12Zm3.84,0.94h-3.84v1.2h3.84v-1.2Z"/><path class="cls-3" d="M121.59,102.77l-1.09.91a27.5,27.5,0,0,0-3.54-3.55l1-.91A30.09,30.09,0,0,1,121.59,102.77Z"/><path class="cls-3" d="M141.7,94.79V108.6h-1.14v-0.75H130v0.83h-1.1V94.79H141.7Zm-1.14,12.1V95.73H130v11.16h10.61ZM140,104.26h-2.29v1.49a0.59,0.59,0,0,1-.46.74,7.78,7.78,0,0,1-1.9.11,2.49,2.49,0,0,0-.29-0.67c0.64,0,1.25,0,1.41,0s0.24,0,.24-0.21v-1.46H130.5v-0.74h6.24v-0.59h1v0.59H140v0.74Zm-5.33-6.79h-4V96.74h4V96h1v0.75h4.1v0.74h-4.1v0.67h3.54v3.2H138a8.84,8.84,0,0,1,1.73,1.57l-0.67.5a7.77,7.77,0,0,0-.64-0.7c-2.77.1-5.63,0.18-7.62,0.22l0-.75,4,0v-0.8h-3.39v-3.2h3.39V97.47ZM133,104.34a7.09,7.09,0,0,1,1.42,1.44l-0.82.48a7.4,7.4,0,0,0-1.38-1.52Zm-0.7-4.9h2.45V98.76h-2.45v0.69Zm2.45,1.3V100h-2.45v0.7h2.45Zm1-2v0.69h2.55V98.76h-2.55Zm2.55,1.28h-2.55v0.7h2.55V100Zm-0.58,2c-0.13-.11-0.26-0.21-0.38-0.3l0.64-.43h-2.23v0.78Z"/><path class="cls-3" d="M149.15,95.15c-0.48,1.31-1.06,3-1.6,4.23a4.9,4.9,0,0,1,1.44,3.41,2.22,2.22,0,0,1-.62,1.84,1.72,1.72,0,0,1-.83.29,7.88,7.88,0,0,1-1.07,0,2.4,2.4,0,0,0-.3-1.06,4.61,4.61,0,0,0,.93,0,0.76,0.76,0,0,0,.5-0.14,1.32,1.32,0,0,0,.34-1.07,4.59,4.59,0,0,0-1.42-3.17c0.46-1.17.93-2.61,1.26-3.7h-2.1v12.85h-1.06V94.74h3.59l0.19,0Zm8.95,4.21c-0.62.5-1.38,1-2.11,1.5a12.12,12.12,0,0,0,2.79,4.82,3.72,3.72,0,0,0-.78.8,14.89,14.89,0,0,1-2.83-5.12l-0.3.18c0.85,2.67.48,5.47-.48,6.29a2,2,0,0,1-1.57.61c-0.3,0-.83,0-1.26,0a2.76,2.76,0,0,0-.29-1.09,11.35,11.35,0,0,0,1.33.08,1.1,1.1,0,0,0,.93-0.35,4.61,4.61,0,0,0,.67-3.3,16.4,16.4,0,0,1-4.56,2.78,3.49,3.49,0,0,0-.7-0.85A13.1,13.1,0,0,0,154,102.6a9.89,9.89,0,0,0-.34-1.26,21.13,21.13,0,0,1-3.57,2.3,3.63,3.63,0,0,0-.67-0.86,14.76,14.76,0,0,0,3.86-2.31,6.67,6.67,0,0,0-.8-1.26,17.17,17.17,0,0,1-2.95,1.87,5.78,5.78,0,0,0-.72-0.85,13,13,0,0,0,3.79-2.43h-3.54V96.74h3.12a11.13,11.13,0,0,0-1.84-2l0.88-.56a9.42,9.42,0,0,1,1.94,2l-0.8.56,1.79,0a17.3,17.3,0,0,0,1.71-2.69L157,94.43a26.79,26.79,0,0,1-1.62,2.32h3v1H154a6.59,6.59,0,0,1-.74.77,7.9,7.9,0,0,1,1.31,2.11,23,23,0,0,0,2.82-2.08Z"/><path class="cls-3" d="M161.65,104.45a19.42,19.42,0,0,1-.8,3.84A5,5,0,0,0,160,108a17.58,17.58,0,0,0,.77-3.67Zm3.19-4.43a16.92,16.92,0,0,1,1.14,3.15l-0.91.37c0-.22-0.1-0.5-0.18-0.8-3.67.58-4.16,0.7-4.45,0.86a8,8,0,0,0-.35-1,2.79,2.79,0,0,0,1.15-1.07c0.26-.3.77-1,1.36-1.87a8.24,8.24,0,0,0-2.27.38,8.44,8.44,0,0,0-.34-1,2,2,0,0,0,.86-0.88,22.38,22.38,0,0,0,2.08-4l1,0.43a24.15,24.15,0,0,1-2.45,4.29l1.71-.16c0.42-.69.85-1.46,1.22-2.21L165.36,97a30.34,30.34,0,0,1-3.57,5.33l2.83-.38c-0.19-.54-0.42-1.1-0.62-1.58Zm-1.55,4.21a27,27,0,0,1,.45,3.36l-0.91.22a27.24,27.24,0,0,0-.4-3.41Zm1.71-.42a26.39,26.39,0,0,1,1,3.07l-0.86.29a23.31,23.31,0,0,0-.91-3.09Zm9.48,3.71h-6.42v1.17H167V99.48a12.73,12.73,0,0,1-1,1.34,8.5,8.5,0,0,0-.58-1.06,17.7,17.7,0,0,0,2.83-5.62l1.12,0.32a25.45,25.45,0,0,1-1,2.47h5.87V98h-2.75v2h2.45v1.09h-2.45v2H174v1.07h-2.46v2.18h3v1.1ZM170.4,98h-2.35v2h2.35V98Zm0,3.1h-2.35v2h2.35v-2Zm-2.35,5.3h2.35v-2.18h-2.35v2.18Zm2.87-9.6a17.8,17.8,0,0,0-1.07-2.27l1-.4a16.32,16.32,0,0,1,1.09,2.19Z"/><path class="cls-3" d="M181.59,97.75H176v-1h5.62v1Zm-0.5,10h-3.46v0.75h-1v-5.38h4.48v4.63Zm0-7.89h-4.42V98.87H181v0.94Zm-4.42,1.14H181v0.94h-4.42v-0.94Zm1,3.12v2.64h2.42v-2.64h-2.42Zm1.26-7.48a12.28,12.28,0,0,0-1.15-2.13l0.9-.48a13.22,13.22,0,0,1,1.22,2.06Zm3.87,3.2a7.26,7.26,0,0,1-.85,1,7.26,7.26,0,0,0-.66-0.86,8.21,8.21,0,0,0,2.08-3.35l0.93,0.26V96h-2.59V95h2.59v-1h1.07v2.8h-1c-0.13.35-.27,0.72-0.43,1.07H186c-0.11-.34-0.22-0.74-0.35-1l1-.29a12.61,12.61,0,0,1,.51,1.33h3v0.8H187v0.8h2.71v0.7H187V101h2.71v0.7H187v0.85h3.47v0.78h-6.69v0.32h-1V99.8Zm7,4.58a7.26,7.26,0,0,1-2.5,2.48,16,16,0,0,0,3.52.88,3.67,3.67,0,0,0-.67.94,15,15,0,0,1-4-1.25,16.67,16.67,0,0,1-4.32,1.26,4,4,0,0,0-.51-1,16.31,16.31,0,0,0,3.78-.91,7.51,7.51,0,0,1-1.89-1.71l0.5-.18h-1.79v-0.88h7l0.19,0ZM186,98.74h-2.19v0.8H186v-0.8Zm0,1.5h-2.19V101H186v-0.8Zm0,1.5h-2.19v0.85H186v-0.85Zm-1.7,3.19a7.45,7.45,0,0,0,1.87,1.41,7,7,0,0,0,2-1.41h-3.83Zm3.78-8.07H187v-2.8h1.09v1h2.42V96h-2.42v0.88Z"/><path class="cls-3" d="M205.46,99.48a18,18,0,0,1-2.82,5.41c0.59,1.57,1.33,2.48,2.15,2.48,0.45,0,.64-0.83.75-3a2.81,2.81,0,0,0,1,.64c-0.22,2.72-.66,3.51-1.87,3.51s-2.19-1-2.93-2.62a14.29,14.29,0,0,1-3.3,2.66,6.72,6.72,0,0,0-.86-0.94,12.77,12.77,0,0,0,3.68-3,31.47,31.47,0,0,1-1.17-6.74h-5.52V100h4.08v0.51c-0.08,3.59-.18,4.93-0.51,5.35a1.24,1.24,0,0,1-1,.46,18.35,18.35,0,0,1-1.9,0,2.47,2.47,0,0,0-.34-1.12c0.74,0.06,1.42.08,1.7,0.08a0.52,0.52,0,0,0,.48-0.18c0.22-.24.3-1.25,0.37-4h-2.91v0.13c0,2.24-.24,5.46-1.68,7.54a4.73,4.73,0,0,0-1-.8c1.31-2,1.46-4.69,1.46-6.75V96.77h6.67C200,95.89,200,95,200,94.08h1.23c0,0.93,0,1.82.06,2.69h5.17v1.17h-5.09a28.88,28.88,0,0,0,.88,5.55,15.84,15.84,0,0,0,2-4.32Zm-2.77-5.35A15.29,15.29,0,0,1,205.56,96l-0.74.82A16.4,16.4,0,0,0,202,94.85Z"/><path class="cls-3" d="M217.27,98.6a13.88,13.88,0,0,0,5.38,6.48,4.92,4.92,0,0,0-.91,1,15.62,15.62,0,0,1-5.63-7.49h-0.22v5.91h3.71v1.18h-3.71v3h-1.23v-3h-3.71V104.5h3.71V98.6h-0.26a16.76,16.76,0,0,1-5.6,7.54,5.27,5.27,0,0,0-.85-0.94,14.93,14.93,0,0,0,5.25-6.59h-4.83V97.41h6.29V94.07h1.23v3.35h6.34V98.6h-4.95Z"/><path class="cls-2" d="M263.46,25.9c0.27,0,.34-0.22.37-1.82a4.87,4.87,0,0,0,1.73.77c-0.19,2.28-.68,2.91-1.87,2.91h-1.14c-1.55,0-1.87-.61-1.87-2.36V22h-0.78c-0.26,2.69-.87,4.79-3.64,6a5.83,5.83,0,0,0-1-1.41V27H252v0.71h-1.73V21.84h5V26.4c2.11-.92,2.5-2.45,2.65-4.4h-1.1V17.39c-0.19.19-.39,0.37-0.58,0.54a12.59,12.59,0,0,0-1.43-1.43l0.07-.05h-5.32v-1.6h2.55a15.25,15.25,0,0,0-.82-2.14l1.7-.53a12.28,12.28,0,0,1,.94,2.19l-1.31.48h3v0.94A11.7,11.7,0,0,0,258,12.27l1.87,0.58a17.39,17.39,0,0,1-2.36,3.74h5.83a31.74,31.74,0,0,0-2.79-3.54l1.41-1a27.65,27.65,0,0,1,3.6,4.5l-1.53,1.1c-0.1-.19-0.2-0.37-0.34-0.58V22h-1.07v3.37c0,0.49,0,.54.27,0.54h0.54ZM255,18.75h-4.79V17.22H255v1.53Zm-4.79.75H255V21h-4.79V19.5Zm3.35,4H252v1.9h1.65v-1.9Zm5.12-3.21h3V18.36h-3v1.89Z"/><path class="cls-2" d="M269.93,23.35v1.46h-1.87V13h5.66V23.35h-3.79Zm0-8.55v2.41h1.92V14.8h-1.92Zm1.92,6.71V19h-1.92v2.5h1.92Zm10.81,4.08c0,1.07-.22,1.6-0.88,1.94a7.6,7.6,0,0,1-3.08.37,6.9,6.9,0,0,0-.7-2c0.92,0.05,1.94,0,2.23,0s0.43-.1.43-0.39v-3H277A9,9,0,0,1,274.07,28a6.72,6.72,0,0,0-1.55-1.31c2.57-2.11,2.79-5.29,2.79-7.84V12.73h7.34V25.6Zm-2-4.83V18.59H277.3v0.27c0,0.59,0,1.24-.07,1.9h3.42ZM277.3,14.6v2.18h3.35V14.6H277.3Z"/><rect class="cls-4" x="1" y="1" width="506.76" height="119"/><line class="cls-4" x1="1" y1="80.5" x2="507.76" y2="80.5"/><line class="cls-4" x1="68.73" y1="1" x2="68.73" y2="120"/><line class="cls-4" x1="235.73" y1="1" x2="235.73" y2="120"/></svg>