<svg id="預算表_拷貝" data-name="預算表 拷貝" xmlns="http://www.w3.org/2000/svg" viewBox="0 0 508.76 82.71"><defs><style>.cls-1{fill:#ff9947;}.cls-1,.cls-4{stroke:#e0e0e0;stroke-miterlimit:10;stroke-width:2px;}.cls-2{fill:#001f2e;}.cls-3{fill:#e0e0e0;}.cls-4{fill:none;}</style></defs><title>bagthings</title><rect class="cls-1" x="1" y="1" width="506.76" height="36"/><path class="cls-2" d="M20.84,18.81v1.77h5.42V22.4H23.58L25.28,23c-0.6,1-1.26,2-1.79,2.7h3.65v1.85H12.45V25.72h3.35A14.13,14.13,0,0,0,14.38,23l1.34-.56H13.26V20.58h5.41V18.81H15.22V18q-1.07.51-2.19,0.92A7.32,7.32,0,0,0,11.68,17c3.2-.92,6.25-2.63,7.87-5.17l1.92,0.87L21,13.41A18.84,18.84,0,0,0,28,17a9.82,9.82,0,0,0-1.39,1.77,22.44,22.44,0,0,1-2.31-1v1H20.84ZM16.1,22.4a11.61,11.61,0,0,1,1.48,2.7l-1.39.61h2.48V22.4H16.1ZM22.76,17a19.55,19.55,0,0,1-2.94-2.21A15.1,15.1,0,0,1,17.07,17h5.69ZM20.84,22.4v3.31H23l-1.14-.48a15.57,15.57,0,0,0,1.5-2.84H20.84Z"/><path class="cls-2" d="M36.69,22.67h0.05v5.24H35V27.48H32.76v0.44H31.08V23c-0.2.08-.41,0.17-0.61,0.24a6.92,6.92,0,0,0-1-1.6,11.18,11.18,0,0,0,2.94-1.31l-0.88-.53,1.12-1.17,1.12,0.61a6,6,0,0,0,1-1.12H32.69A7.63,7.63,0,0,1,30.82,20a4.35,4.35,0,0,0-1-1.33,5.91,5.91,0,0,0,2.45-3.14l1.53,0.31a7,7,0,0,1-.29.76h2.14L36,16.59l0,0V15.31H31.4v1.46H29.94V13.72h3c-0.12-.37-0.25-0.76-0.37-1.07l1.61-.56c0.2,0.49.44,1.1,0.65,1.63h2.72v3.06H36.21l0.73,0.53a9.53,9.53,0,0,1-1.68,2.79c0.92,0.53,1.82,1.07,2.4,1.48Zm-0.58,0c-0.56-.41-1.31-0.88-2.11-1.38a11.07,11.07,0,0,1-2.16,1.38h4.27ZM35,25.92V24.24H32.76v1.68H35Zm8-1.36a19.39,19.39,0,0,1,2.77,2l-1.16,1.38a20.43,20.43,0,0,0-2.82-2.23l1-1.14H40.21l1.21,1.26A21,21,0,0,1,37.76,28a9.89,9.89,0,0,0-.83-1.48,16,16,0,0,0,3.21-2H38.3v-9h2.16c0.07-.37.14-0.78,0.19-1.17H37.88v-1.7h7.6v1.7h-3c-0.1.41-.24,0.82-0.36,1.17h2.92v9H42.94ZM40.1,18.14h3v-1h-3v1Zm0,2.45h3v-1h-3v1Zm0,2.43h3V22h-3v1Z"/><path class="cls-2" d="M86.42,22.71c-2.06.78-4.27,1.58-6,2.19L79.62,23l2.35-.7V15.74H80.08V13.87h5.81v1.87H84v5.9L86.1,21Zm2.24,1.87,1.56,1.1a15.76,15.76,0,0,1-4.4,2.23,10,10,0,0,0-1.22-1.38,13.67,13.67,0,0,0,3.93-2H86.81v-9h2.67c0.08-.39.15-0.8,0.22-1.17H86.11v-1.7h9.62v1.7H92c-0.14.41-.29,0.8-0.43,1.17h3.55v9H88.66Zm0-6.41h4.45V17.1H88.68v1.07Zm0,2.45h4.45V19.53H88.68v1.09Zm0,2.48h4.45V22H88.68V23.1Zm4,1.53A25.15,25.15,0,0,1,96,26.75l-1.6,1.19a24.26,24.26,0,0,0-3.28-2.24Z"/><path class="cls-2" d="M111.6,13V27.74h-2.14V26.69h-7.87v1.05h-2V13H111.6Zm-10,2v2h7.87v-2h-7.87Zm0,3.86v2h7.87v-2h-7.87Zm7.87,5.92v-2h-7.87v2h7.87Z"/><path class="cls-3" d="M85.65,53.42A21.3,21.3,0,0,1,81,60.22a8.88,8.88,0,0,0-1.06-1A16.66,16.66,0,0,0,84.35,53Zm4.5,7.6a49.57,49.57,0,0,1,3.59,5.38l-1.18.66c-0.22-.45-0.53-1-0.86-1.54-8.29.58-9.17,0.62-9.8,0.85a7.36,7.36,0,0,0-.46-1.26,3.7,3.7,0,0,0,1.5-1.38,35.7,35.7,0,0,0,4-6.31L88.29,58a42,42,0,0,1-4.69,6.87l7.4-.42c-0.62-1-1.34-2-2-2.88ZM90.49,53a11.63,11.63,0,0,0,4.24,6.16,6.3,6.3,0,0,0-.93,1.1,13.35,13.35,0,0,1-4.21-6.07h-3V53h3.87Z"/><path class="cls-3" d="M102.26,60.67a13.43,13.43,0,0,1,.86,1.74l-0.58.22h0.16v1.42c0,1.2-.29,2.29-2.27,3a3,3,0,0,0-.58-0.7,2.71,2.71,0,0,0,1.78-1.23H99.51V62.88h0.82v1.49h1.5a2.13,2.13,0,0,0,0-.32V62.64h0.61c0-.13-0.13-0.3-0.19-0.5a18.49,18.49,0,0,0-3.15.4,3.62,3.62,0,0,0-.24-0.78,1.86,1.86,0,0,0,.86-0.45,8.45,8.45,0,0,0,1-.83,5.78,5.78,0,0,0-1.49.19,7,7,0,0,0-.27-0.82,1,1,0,0,0,.53-0.29,7.75,7.75,0,0,0,1.14-1.46H97.84v9.06H96.7V53.23h5.83v4.88h-1.67l0.54,0.29a8.62,8.62,0,0,1-1.25,1.46l1.18,0a8.45,8.45,0,0,0,.7-0.83l0.7,0.46a19.26,19.26,0,0,1-2.42,2.21l1.62-.13c-0.11-.22-0.22-0.45-0.34-0.64Zm-4.42-6.58v1.2h3.57v-1.2H97.84Zm0,3.14h3.57V56.09H97.84v1.14Zm12.08,8.44a1.11,1.11,0,0,1-.56,1.22,5.21,5.21,0,0,1-2.08.24,5.33,5.33,0,0,0-.37-1.18c0.7,0,1.38,0,1.58,0a0.23,0.23,0,0,0,.27-0.29V58.11h-3.59l0.59,0.3a11.36,11.36,0,0,1-1.25,1.46l1.18-.06c0.26-.27.48-0.54,0.7-0.83l0.69,0.45a16.45,16.45,0,0,1-2.42,2.23l1.6-.13c-0.11-.22-0.22-0.45-0.34-0.64l0.61-.21a14.54,14.54,0,0,1,.93,1.73l-0.64.29a5.29,5.29,0,0,0-.26-0.54,14.33,14.33,0,0,0-3.12.42,7.27,7.27,0,0,0-.24-0.8,1.92,1.92,0,0,0,.85-0.43c0.18-.13.53-0.45,1-0.85a4.59,4.59,0,0,0-1.5.21,5.07,5.07,0,0,0-.29-0.82,0.92,0.92,0,0,0,.53-0.29,7.88,7.88,0,0,0,1.15-1.47h-1V53.23h6V65.67Zm-3.76,0v-0.5h-1.54v1.81h-0.9V62.64h0.9v1.73h1.54V62.9H107v2.72h-0.85Zm-1.07-11.52v1.2h3.68v-1.2h-3.68Zm3.68,3.14V56.09h-3.68v1.14h3.68Z"/><path class="cls-3" d="M116.72,63.92a12.78,12.78,0,0,1-3.79,2.91A7.29,7.29,0,0,0,112,66a10.3,10.3,0,0,0,3.6-2.51Zm9.68-1.76v1h-6.56V67.2h-1.17V63.14h-6.51v-1h14.25Zm-9.57-8h-4.5v-1H126.1v1h-4.51v1.23h3.73v3.65h-12V55.41h3.54V54.17Zm-2.72,6.88V60.11h10.36v0.94H114.11Zm0.29-2.91h2.43V56.3H114.4v1.84Zm6.05-4h-2.51v1.23h2.51V54.17Zm-2.51,4h2.51V56.3h-2.51v1.84Zm3.65-1.84v1.84h2.56V56.3h-2.56Zm0.85,7.28a28,28,0,0,1,3.87,2.5l-0.91.69a27.91,27.91,0,0,0-3.81-2.56Z"/><path class="cls-3" d="M17.51,56.93a1.21,1.21,0,0,0-.22-0.64,1.3,1.3,0,0,0-1.15-.56A1.71,1.71,0,0,0,14.49,57a8,8,0,0,0-.37,2.11,2.66,2.66,0,0,1,1-.76,3.44,3.44,0,0,1,1.33-.24,3.45,3.45,0,0,1,2.63,1.09,3.89,3.89,0,0,1,1,2.78,4.69,4.69,0,0,1-1,3A3.71,3.71,0,0,1,16,66.25a3.59,3.59,0,0,1-3.35-1.9,7.75,7.75,0,0,1-.84-3.83,17.41,17.41,0,0,1,.12-2.24,6.85,6.85,0,0,1,.81-2.56,4.12,4.12,0,0,1,1.35-1.4,3.64,3.64,0,0,1,2-.53,4,4,0,0,1,2.67.86,3.27,3.27,0,0,1,1.12,2.29H17.51ZM14.7,63.71a1.67,1.67,0,0,0,1.33.61,1.47,1.47,0,0,0,1.24-.59,2.47,2.47,0,0,0,.45-1.54,2.31,2.31,0,0,0-.51-1.61A1.65,1.65,0,0,0,15.95,60a1.68,1.68,0,0,0-1.07.37,2.07,2.07,0,0,0-.7,1.74A2.36,2.36,0,0,0,14.7,63.71Z"/><path class="cls-3" d="M22.56,67.91a1.85,1.85,0,0,0,1-.66,2.45,2.45,0,0,0,.39-1.3H22.56V63.46h2.56V65.6A5,5,0,0,1,25,66.78a2.4,2.4,0,0,1-.56,1.06,2.87,2.87,0,0,1-1,.73,2.68,2.68,0,0,1-.82.24V67.91Z"/><path class="cls-3" d="M35.06,55.44A9.36,9.36,0,0,1,36,60a9.31,9.31,0,0,1-.93,4.59,3.4,3.4,0,0,1-3.22,1.61,3.4,3.4,0,0,1-3.22-1.61A9.31,9.31,0,0,1,27.68,60a9.36,9.36,0,0,1,.93-4.6,3.4,3.4,0,0,1,3.22-1.62A3.4,3.4,0,0,1,35.06,55.44Zm-4.62,7.77a1.37,1.37,0,0,0,1.39,1.1,1.35,1.35,0,0,0,1.38-1.1A11.74,11.74,0,0,0,33.54,60a11.61,11.61,0,0,0-.33-3.22,1.34,1.34,0,0,0-1.38-1,1.36,1.36,0,0,0-1.39,1A11.21,11.21,0,0,0,30.1,60,11.33,11.33,0,0,0,30.44,63.21Z"/><path class="cls-3" d="M45.36,55.44a9.36,9.36,0,0,1,.93,4.6,9.31,9.31,0,0,1-.93,4.59,3.4,3.4,0,0,1-3.22,1.61,3.4,3.4,0,0,1-3.22-1.61A9.31,9.31,0,0,1,38,60a9.36,9.36,0,0,1,.93-4.6,3.4,3.4,0,0,1,3.22-1.62A3.4,3.4,0,0,1,45.36,55.44Zm-4.62,7.77a1.37,1.37,0,0,0,1.39,1.1,1.35,1.35,0,0,0,1.38-1.1A11.74,11.74,0,0,0,43.85,60a11.61,11.61,0,0,0-.33-3.22,1.34,1.34,0,0,0-1.38-1,1.36,1.36,0,0,0-1.39,1A11.21,11.21,0,0,0,40.4,60,11.33,11.33,0,0,0,40.74,63.21Z"/><path class="cls-3" d="M55.67,55.44a9.36,9.36,0,0,1,.93,4.6,9.31,9.31,0,0,1-.93,4.59,3.4,3.4,0,0,1-3.22,1.61,3.4,3.4,0,0,1-3.22-1.61A9.31,9.31,0,0,1,48.29,60a9.36,9.36,0,0,1,.93-4.6,3.4,3.4,0,0,1,3.22-1.62A3.4,3.4,0,0,1,55.67,55.44ZM51,63.21a1.37,1.37,0,0,0,1.39,1.1,1.35,1.35,0,0,0,1.38-1.1A11.74,11.74,0,0,0,54.15,60a11.61,11.61,0,0,0-.33-3.22,1.34,1.34,0,0,0-1.38-1,1.36,1.36,0,0,0-1.39,1A11.21,11.21,0,0,0,50.71,60,11.33,11.33,0,0,0,51,63.21Z"/><path class="cls-3" d="M255,60.54l-2,.61v4.64A1.07,1.07,0,0,1,252.5,67a5.9,5.9,0,0,1-2.1.21,4.38,4.38,0,0,0-.37-1.09l1.58,0a0.25,0.25,0,0,0,.3-0.3V61.5l-2.1.66L249.51,61c0.67-.18,1.5-0.42,2.42-0.69V56.86h-2.21v-1.1h2.21v-3.2h1.15v3.2h1.78v1.1h-1.78V60l1.79-.54Zm9-4.34V67h-1.17V66h-6.29v1.14h-1.14V56.21h3.65V52.57h1.14v3.63H264Zm-7.46,1.14v3.12h2.51V57.34h-2.51Zm0,7.51h2.51V61.58h-2.51v3.27Zm3.65-7.51v3.12h2.64V57.34H260.2Zm2.64,7.51V61.58H260.2v3.27h2.64Z"/><path class="cls-3" d="M274.22,63.71c2,0.74,4.69,1.81,6.13,2.5l-0.58.94c-1.41-.72-4.24-1.92-6.32-2.72l0.5-.72h-0.75c-0.62,1.33-2.35,2.72-6.87,3.49a4,4,0,0,0-.67-1c3.7-.61,5.38-1.58,6.15-2.53h-6v-1h6.5a2.79,2.79,0,0,0,.06-0.61v-1h1.17v1c0,0.19,0,.37,0,0.58h3.27a14,14,0,0,0-1.28-1l0.48-.43h-0.56a3.61,3.61,0,0,0-.34-0.93c0.74,0,1.38,0,1.55,0s0.26-.06.26-0.24V58.51h-3.73a7,7,0,0,1,1.7,1.41l-0.78.64A7.47,7.47,0,0,0,272.31,59l0.67-.53h-1.9V57.66h5.78V56.49H278v1.17h2v0.85h-2v1.62a0.81,0.81,0,0,1-.54,1,4.55,4.55,0,0,1-1.25.14,10.27,10.27,0,0,1,1.42,1.12l-0.34.35h3v1h-6.07Zm-6.15-5.12a4.11,4.11,0,0,1-1.36,3.14,7.15,7.15,0,0,0-.91-0.53,3.33,3.33,0,0,0,1.2-2.64V58.42h-1.15v-1h3.51V56.22H266.6V52.94h1v2.32h1.73V52.59h1.1v9h-1.1V58.42h-1.28v0.18Zm11.41-4.91c-1.42,2.45-4.69,3.51-8,4a2.55,2.55,0,0,0-.5-0.75,16.81,16.81,0,0,0,4.5-1.07,11.45,11.45,0,0,0-1.55-1.47,19.24,19.24,0,0,1-2.13.78,3,3,0,0,0-.66-0.69,11.44,11.44,0,0,0,4.31-1.94l1,0.22a6.89,6.89,0,0,1-.82.64h3l0.21,0Zm-5.22,2.24c-1,.1-1.86.16-2.67,0.22l-0.13-.7,2.79-.18Zm0.51-1.81a10,10,0,0,1,1.47,1.36A6.39,6.39,0,0,0,278,54.11h-3.25Z"/><path class="cls-3" d="M295.15,65.55a1.18,1.18,0,0,1-.72,1.33,10.45,10.45,0,0,1-3,.19,4.72,4.72,0,0,0-.4-1.15c1.12,0,2.21,0,2.5,0a0.36,0.36,0,0,0,.43-0.42V62.29h-4.31V67h-1.18V62.29h-4a9.19,9.19,0,0,1-2,5,3.88,3.88,0,0,0-.91-0.78c1.76-2,1.92-4.8,1.92-7V53.68h11.65V65.55Zm-6.66-4.4V58.5h-3.83v0.94c0,0.53,0,1.12-.06,1.71h3.89Zm-3.83-6.34v2.56h3.83V54.81h-3.83Zm9.32,0h-4.31v2.56H294V54.81Zm0,6.34V58.5h-4.31v2.66H294Z"/><path class="cls-2" d="M263.46,25.9c0.27,0,.34-0.22.37-1.82a4.87,4.87,0,0,0,1.73.77c-0.19,2.28-.68,2.91-1.87,2.91h-1.14c-1.55,0-1.87-.61-1.87-2.36V22h-0.78c-0.26,2.69-.87,4.79-3.64,6a5.83,5.83,0,0,0-1-1.41V27H252v0.71h-1.73V21.84h5V26.4c2.11-.92,2.5-2.45,2.65-4.4h-1.1V17.39c-0.19.19-.39,0.37-0.58,0.54a12.59,12.59,0,0,0-1.43-1.43l0.07-.05h-5.32v-1.6h2.55a15.25,15.25,0,0,0-.82-2.14l1.7-.53a12.28,12.28,0,0,1,.94,2.19l-1.31.48h3v0.94A11.7,11.7,0,0,0,258,12.27l1.87,0.58a17.39,17.39,0,0,1-2.36,3.74h5.83a31.74,31.74,0,0,0-2.79-3.54l1.41-1a27.65,27.65,0,0,1,3.6,4.5l-1.53,1.1c-0.1-.19-0.2-0.37-0.34-0.58V22h-1.07v3.37c0,0.49,0,.54.27,0.54h0.54ZM255,18.75h-4.79V17.22H255v1.53Zm-4.79.75H255V21h-4.79V19.5Zm3.35,4H252v1.9h1.65v-1.9Zm5.12-3.21h3V18.36h-3v1.89Z"/><path class="cls-2" d="M269.93,23.35v1.46h-1.87V13h5.66V23.35h-3.79Zm0-8.55v2.41h1.92V14.8h-1.92Zm1.92,6.71V19h-1.92v2.5h1.92Zm10.81,4.08c0,1.07-.22,1.6-0.88,1.94a7.6,7.6,0,0,1-3.08.37,6.9,6.9,0,0,0-.7-2c0.92,0.05,1.94,0,2.23,0s0.43-.1.43-0.39v-3H277A9,9,0,0,1,274.07,28a6.72,6.72,0,0,0-1.55-1.31c2.57-2.11,2.79-5.29,2.79-7.84V12.73h7.34V25.6Zm-2-4.83V18.59H277.3v0.27c0,0.59,0,1.24-.07,1.9h3.42ZM277.3,14.6v2.18h3.35V14.6H277.3Z"/><rect class="cls-4" x="1" y="1" width="506.76" height="79.5"/><line class="cls-4" x1="1" y1="80.5" x2="507.76" y2="80.5"/><line class="cls-4" x1="68.73" y1="1" x2="68.73" y2="80.5"/><line class="cls-4" x1="235.73" y1="1" x2="235.73" y2="80.5"/></svg>