<svg id="預算表_拷貝" data-name="預算表 拷貝" xmlns="http://www.w3.org/2000/svg" viewBox="0 0 508.76 122.83"><defs><style>.cls-1{fill:#ff9947;}.cls-1,.cls-4{stroke:#e0e0e0;stroke-miterlimit:10;stroke-width:2px;}.cls-2{fill:#001f2e;}.cls-3{fill:#e0e0e0;}.cls-4{fill:none;}</style></defs><title>bagthings</title><rect class="cls-1" x="1" y="1" width="506.76" height="36"/><path class="cls-2" d="M20.84,18.82v1.77h5.42V22.4H23.58L25.28,23c-0.6,1-1.26,2-1.79,2.7h3.65v1.85H12.45V25.72h3.35A14.1,14.1,0,0,0,14.38,23l1.34-.56H13.26V20.58h5.41V18.82H15.22V18q-1.07.51-2.19,0.92A7.32,7.32,0,0,0,11.68,17c3.2-.92,6.25-2.63,7.87-5.17l1.92,0.87L21,13.41A18.85,18.85,0,0,0,28,17a9.85,9.85,0,0,0-1.39,1.77,22.33,22.33,0,0,1-2.31-1v1H20.84ZM16.1,22.4a11.6,11.6,0,0,1,1.48,2.7l-1.39.61h2.48V22.4H16.1ZM22.76,17a19.55,19.55,0,0,1-2.94-2.21A15.14,15.14,0,0,1,17.07,17h5.69ZM20.84,22.4v3.31H23l-1.14-.48a15.56,15.56,0,0,0,1.5-2.84H20.84Z"/><path class="cls-2" d="M36.69,22.67h0.05v5.24H35V27.48H32.76v0.44H31.08V23c-0.2.08-.41,0.17-0.61,0.24a6.91,6.91,0,0,0-1-1.6,11.19,11.19,0,0,0,2.94-1.31l-0.88-.53,1.12-1.17,1.12,0.61a6,6,0,0,0,1-1.12H32.69A7.62,7.62,0,0,1,30.82,20a4.36,4.36,0,0,0-1-1.33,5.91,5.91,0,0,0,2.45-3.14l1.53,0.31a7,7,0,0,1-.29.76h2.14L36,16.59l0,0V15.31H31.4v1.46H29.94V13.72h3c-0.12-.37-0.25-0.76-0.37-1.07l1.61-.56c0.2,0.49.44,1.1,0.65,1.63h2.72v3.06H36.21l0.73,0.53a9.54,9.54,0,0,1-1.68,2.79c0.92,0.53,1.82,1.07,2.4,1.48Zm-0.58,0c-0.56-.41-1.31-0.88-2.11-1.38a11.07,11.07,0,0,1-2.16,1.38h4.27ZM35,25.92V24.24H32.76v1.68H35Zm8-1.36a19.35,19.35,0,0,1,2.77,2l-1.16,1.38a20.44,20.44,0,0,0-2.82-2.23l1-1.14H40.21l1.21,1.26A21,21,0,0,1,37.76,28a9.87,9.87,0,0,0-.83-1.48,15.93,15.93,0,0,0,3.21-2H38.3v-9h2.16c0.07-.37.14-0.78,0.19-1.17H37.88v-1.7h7.6v1.7h-3c-0.1.41-.24,0.82-0.36,1.17h2.92v9H42.94ZM40.1,18.14h3v-1h-3v1Zm0,2.45h3v-1h-3v1Zm0,2.43h3V22h-3v1Z"/><path class="cls-2" d="M86.42,22.71c-2.06.78-4.27,1.58-6,2.19L79.62,23l2.35-.7V15.74H80.08V13.87h5.81v1.87H84v5.9L86.1,21Zm2.24,1.87,1.56,1.1a15.75,15.75,0,0,1-4.4,2.23,10,10,0,0,0-1.22-1.38,13.68,13.68,0,0,0,3.93-2H86.81v-9h2.67c0.08-.39.15-0.8,0.22-1.17H86.11v-1.7h9.62v1.7H92c-0.14.41-.29,0.8-0.43,1.17h3.55v9H88.66Zm0-6.41h4.45V17.1H88.68v1.07Zm0,2.45h4.45V19.53H88.68v1.09Zm0,2.48h4.45V22H88.68V23.1Zm4,1.53A25.11,25.11,0,0,1,96,26.75l-1.6,1.19a24.35,24.35,0,0,0-3.28-2.24Z"/><path class="cls-2" d="M111.6,13V27.74h-2.14V26.69h-7.87v1.05h-2V13H111.6Zm-10,2v2h7.87v-2h-7.87Zm0,3.86v2h7.87v-2h-7.87Zm7.87,5.92v-2h-7.87v2h7.87Z"/><path class="cls-3" d="M85.31,56.37a20.14,20.14,0,0,1-1.76,2.42V67.2H82.37V60.1a18.89,18.89,0,0,1-1.81,1.66,11.33,11.33,0,0,0-.83-1,17.44,17.44,0,0,0,4.48-4.82ZM84.69,53a19.68,19.68,0,0,1-4.1,4,10.27,10.27,0,0,0-.7-0.94,15.89,15.89,0,0,0,3.67-3.47Zm9.81,6H92.09v6.61a1.13,1.13,0,0,1-.7,1.3,12.07,12.07,0,0,1-3,.18A4.26,4.26,0,0,0,88,66c1.14,0,2.19,0,2.5,0s0.4-.08.4-0.35V59H85.54V57.89h9V59ZM94,54.64H86.23V53.52H94v1.12Z"/><path class="cls-3" d="M101.83,65.35l-5.62,1.25-0.29-1.07c0.7-.11,1.62-0.29,2.64-0.48V60.38H96.11v-1h2.45V57.6H97.07V57l-0.69.64a5.87,5.87,0,0,0-.61-1.17,11.11,11.11,0,0,0,3.09-3.94l1.06,0.35c-0.1.19-.19,0.38-0.3,0.59,0.94,0.78,2,1.76,2.61,2.34l-0.66.91c-0.56-.61-1.57-1.55-2.46-2.35a14.21,14.21,0,0,1-1.63,2.19h3.63v1H99.62v1.74h2v1h-2v4.45l2.15-.4Zm-4.72-4.13c0.26,0.94.56,2.14,0.69,2.93l-0.9.24a23.61,23.61,0,0,0-.64-3Zm3,2.72a21,21,0,0,0,.78-2.91l0.94,0.29c-0.3,1-.66,2.15-1,2.88Zm9.78,1.73a1.07,1.07,0,0,1-.61,1.2,7.78,7.78,0,0,1-2.45.19,4.36,4.36,0,0,0-.37-1.12c0.91,0,1.73,0,2,0a0.26,0.26,0,0,0,.32-0.3v-2.8c-1.6.42-3.27,0.83-4.56,1.14l-0.4-1c1.26-.26,3.12-0.67,5-1.1V58.14h-5v3.35a12.09,12.09,0,0,1-1.09,5.73,4.34,4.34,0,0,0-.91-0.7,10.74,10.74,0,0,0,.9-5V57.09h3V52.56h1.14v4.53h3.06v8.58Zm-6.05-9.14a11.67,11.67,0,0,0-1.55-3l0.94-.46A10.66,10.66,0,0,1,104.85,56Zm0.7,2.72a16.25,16.25,0,0,1,3.73,1.17l-0.48.86A16.43,16.43,0,0,0,104.07,60Zm5.84-5.83a24.51,24.51,0,0,1-1.79,3l-1-.42a20.42,20.42,0,0,0,1.65-3Z"/><path class="cls-3" d="M117.81,56.24H112v-1h5.84v1Zm5.46,5.59a12,12,0,0,0,3.49,3.62,4.41,4.41,0,0,0-.83.9,14.12,14.12,0,0,1-3.27-3.71v4.53h-1.15v-4.4a11.52,11.52,0,0,1-3.46,3.7,4.15,4.15,0,0,0-.66-0.78v0.53h-3.73v0.75h-1V61.57h4.77v3.92a10.51,10.51,0,0,0,3.54-3.67h-3.15V60.75h3.73V59.42h-3.14V53.21h7.51v6.21h-3.22v1.33h3.7v1.07h-3.09Zm-6-3.52h-4.64V57.36h4.64V58.3Zm-4.64,1.14h4.64v0.94h-4.64V59.44Zm3.71,3.12h-2.67V65.2h2.67V62.56ZM115,55.09a16.35,16.35,0,0,0-1.18-2.14l0.91-.46a12.68,12.68,0,0,1,1.23,2.06Zm4.48,0.74h2.11V54.19h-2.11v1.63Zm0,2.63h2.11V56.78h-2.11v1.66Zm5.33-4.26H122.6v1.63h2.18V54.19Zm0,2.59H122.6v1.66h2.18V56.78Z"/><path class="cls-3" d="M132.85,62.18A21.4,21.4,0,0,0,131.62,60v7.2h-1.14V60a17.78,17.78,0,0,1-2.11,4.39,6.58,6.58,0,0,0-.59-1.15,17.21,17.21,0,0,0,2.45-5H128V57.1h2.45V54.54c-0.64.14-1.3,0.26-1.92,0.35a3.82,3.82,0,0,0-.34-1,19.27,19.27,0,0,0,4.48-1.26l0.7,1a15.6,15.6,0,0,1-1.79.61V57.1h2v1.12h-2v0.42c0.4,0.48,1.67,2.14,1.92,2.56Zm9.67,3.52v1.07h-9.17V65.7h4.08V63.57h-3.2v-1h3.2v-1.9c-0.93.1-1.84,0.18-2.71,0.22a3.36,3.36,0,0,0-.32-0.93,34.88,34.88,0,0,0,6.35-.91l0.78,0.88a18.14,18.14,0,0,1-2.95.58v2.06h3.25v1H138.6V65.7h3.92Zm-0.88-7.28h-7.25V53.36h7.25v5.06Zm-1.17-4h-5v3h5v-3Z"/><path class="cls-3" d="M12.36,63.57A6.69,6.69,0,0,1,14.75,61a17.52,17.52,0,0,0,2.12-1.68,2.48,2.48,0,0,0,.74-1.73,1.91,1.91,0,0,0-.42-1.27A1.49,1.49,0,0,0,16,55.84a1.48,1.48,0,0,0-1.47.81,4,4,0,0,0-.27,1.48h-2.3a5.8,5.8,0,0,1,.56-2.48,3.47,3.47,0,0,1,3.37-1.8,4.27,4.27,0,0,1,3,1.06A3.66,3.66,0,0,1,20,57.7a3.79,3.79,0,0,1-.8,2.37,8,8,0,0,1-1.72,1.54l-0.95.67q-0.89.63-1.22,0.91a2.68,2.68,0,0,0-.55.66H20v2.08H11.8A5.65,5.65,0,0,1,12.36,63.57Z"/><path class="cls-3" d="M22.56,67.91a1.85,1.85,0,0,0,1-.66,2.45,2.45,0,0,0,.39-1.3H22.56V63.46h2.56V65.6A5,5,0,0,1,25,66.78a2.4,2.4,0,0,1-.56,1.06,2.87,2.87,0,0,1-1,.73,2.68,2.68,0,0,1-.82.24V67.91Z"/><path class="cls-3" d="M35.06,55.44A9.36,9.36,0,0,1,36,60a9.31,9.31,0,0,1-.93,4.59,3.4,3.4,0,0,1-3.22,1.61,3.4,3.4,0,0,1-3.22-1.61A9.31,9.31,0,0,1,27.68,60a9.36,9.36,0,0,1,.93-4.6,3.4,3.4,0,0,1,3.22-1.62A3.4,3.4,0,0,1,35.06,55.44Zm-4.62,7.77a1.37,1.37,0,0,0,1.39,1.1,1.35,1.35,0,0,0,1.38-1.1A11.74,11.74,0,0,0,33.54,60a11.61,11.61,0,0,0-.33-3.22,1.34,1.34,0,0,0-1.38-1,1.36,1.36,0,0,0-1.39,1A11.21,11.21,0,0,0,30.1,60,11.33,11.33,0,0,0,30.44,63.21Z"/><path class="cls-3" d="M45.36,55.44a9.36,9.36,0,0,1,.93,4.6,9.31,9.31,0,0,1-.93,4.59,3.4,3.4,0,0,1-3.22,1.61,3.4,3.4,0,0,1-3.22-1.61A9.31,9.31,0,0,1,38,60a9.36,9.36,0,0,1,.93-4.6,3.4,3.4,0,0,1,3.22-1.62A3.4,3.4,0,0,1,45.36,55.44Zm-4.62,7.77a1.37,1.37,0,0,0,1.39,1.1,1.35,1.35,0,0,0,1.38-1.1A11.74,11.74,0,0,0,43.85,60a11.61,11.61,0,0,0-.33-3.22,1.34,1.34,0,0,0-1.38-1,1.36,1.36,0,0,0-1.39,1A11.21,11.21,0,0,0,40.4,60,11.33,11.33,0,0,0,40.74,63.21Z"/><path class="cls-3" d="M55.67,55.44a9.36,9.36,0,0,1,.93,4.6,9.31,9.31,0,0,1-.93,4.59,3.4,3.4,0,0,1-3.22,1.61,3.4,3.4,0,0,1-3.22-1.61A9.31,9.31,0,0,1,48.29,60a9.36,9.36,0,0,1,.93-4.6,3.4,3.4,0,0,1,3.22-1.62A3.4,3.4,0,0,1,55.67,55.44ZM51,63.21a1.37,1.37,0,0,0,1.39,1.1,1.35,1.35,0,0,0,1.38-1.1A11.74,11.74,0,0,0,54.15,60a11.61,11.61,0,0,0-.33-3.22,1.34,1.34,0,0,0-1.38-1,1.36,1.36,0,0,0-1.39,1A11.21,11.21,0,0,0,50.71,60,11.33,11.33,0,0,0,51,63.21Z"/><path class="cls-3" d="M20.16,104.86H18.8v2.59H16.49v-2.59H11.72v-2.07l4.42-7.3H18.8V103h1.36v1.85ZM16.49,103V97.82l-3,5.18h3Z"/><path class="cls-3" d="M22.56,109.41a1.85,1.85,0,0,0,1-.66,2.45,2.45,0,0,0,.39-1.3H22.56V105h2.56v2.15a5,5,0,0,1-.15,1.18,2.4,2.4,0,0,1-.56,1.06,2.87,2.87,0,0,1-1,.73,2.68,2.68,0,0,1-.82.24v-0.91Z"/><path class="cls-3" d="M35.06,96.95a9.36,9.36,0,0,1,.93,4.6,9.31,9.31,0,0,1-.93,4.59,3.4,3.4,0,0,1-3.22,1.61,3.4,3.4,0,0,1-3.22-1.61,9.31,9.31,0,0,1-.93-4.59,9.36,9.36,0,0,1,.93-4.6,3.4,3.4,0,0,1,3.22-1.62A3.4,3.4,0,0,1,35.06,96.95Zm-4.62,7.77a1.37,1.37,0,0,0,1.39,1.1,1.35,1.35,0,0,0,1.38-1.1,11.74,11.74,0,0,0,.33-3.18,11.61,11.61,0,0,0-.33-3.22,1.34,1.34,0,0,0-1.38-1,1.36,1.36,0,0,0-1.39,1,11.21,11.21,0,0,0-.34,3.22A11.33,11.33,0,0,0,30.44,104.72Z"/><path class="cls-3" d="M45.36,96.95a9.36,9.36,0,0,1,.93,4.6,9.31,9.31,0,0,1-.93,4.59,3.4,3.4,0,0,1-3.22,1.61,3.4,3.4,0,0,1-3.22-1.61,9.31,9.31,0,0,1-.93-4.59,9.36,9.36,0,0,1,.93-4.6,3.4,3.4,0,0,1,3.22-1.62A3.4,3.4,0,0,1,45.36,96.95Zm-4.62,7.77a1.37,1.37,0,0,0,1.39,1.1,1.35,1.35,0,0,0,1.38-1.1,11.74,11.74,0,0,0,.33-3.18,11.61,11.61,0,0,0-.33-3.22,1.34,1.34,0,0,0-1.38-1,1.36,1.36,0,0,0-1.39,1,11.21,11.21,0,0,0-.34,3.22A11.33,11.33,0,0,0,40.74,104.72Z"/><path class="cls-3" d="M55.67,96.95a9.36,9.36,0,0,1,.93,4.6,9.31,9.31,0,0,1-.93,4.59,3.4,3.4,0,0,1-3.22,1.61,3.4,3.4,0,0,1-3.22-1.61,9.31,9.31,0,0,1-.93-4.59,9.36,9.36,0,0,1,.93-4.6,3.4,3.4,0,0,1,3.22-1.62A3.4,3.4,0,0,1,55.67,96.95ZM51,104.72a1.37,1.37,0,0,0,1.39,1.1,1.35,1.35,0,0,0,1.38-1.1,11.74,11.74,0,0,0,.33-3.18,11.61,11.61,0,0,0-.33-3.22,1.34,1.34,0,0,0-1.38-1,1.36,1.36,0,0,0-1.39,1,11.21,11.21,0,0,0-.34,3.22A11.33,11.33,0,0,0,51,104.72Z"/><path class="cls-3" d="M254.23,62.26c0-.27-0.1-0.59-0.16-0.91-3.19.46-3.68,0.58-4,.74a11.94,11.94,0,0,0-.38-1.14,2.84,2.84,0,0,0,1.17-1.06,18.26,18.26,0,0,0,1.31-1.78,8.66,8.66,0,0,0-2.19.38,11.18,11.18,0,0,0-.38-1.09,1.78,1.78,0,0,0,.85-0.88,19.83,19.83,0,0,0,2-4l1.1,0.46a26.05,26.05,0,0,1-2.42,4.23l1.66-.16a21.13,21.13,0,0,0,1.18-2.13l1.06,0.61a31.39,31.39,0,0,1-3.57,5.17l2.31-.3c-0.14-.54-0.3-1.09-0.48-1.58l0.91-.24a22.89,22.89,0,0,1,.93,3.39Zm-2.88.67a21.22,21.22,0,0,1-.82,3.94,6.79,6.79,0,0,0-.91-0.34,16.25,16.25,0,0,0,.77-3.76Zm1.49-.19c0.18,1.09.35,2.48,0.4,3.41l-0.94.18a27.72,27.72,0,0,0-.35-3.43Zm1.42-.38a18.43,18.43,0,0,1,.8,2.56l-0.88.29a20,20,0,0,0-.75-2.61Zm4.82-1a7.7,7.7,0,0,1-3.59,5,3.9,3.9,0,0,0-.69-0.85,6.31,6.31,0,0,0,2.93-3.41h-2.06v-1h2.53l0.19,0Zm4.93-.26c-0.72.66-1.54,1.39-2.24,1.92a6.94,6.94,0,0,0,2.61,2.5,4.58,4.58,0,0,0-.78.94,8.57,8.57,0,0,1-3-3.63v3A1,1,0,0,1,260,67a5.79,5.79,0,0,1-2.11.21,4.66,4.66,0,0,0-.35-1.1c0.75,0,1.42,0,1.62,0s0.27-.06.27-0.26v-6h-3.19v-5.6h2.45a11.49,11.49,0,0,0,.54-1.7l1.33,0.27-0.67,1.42h3.6v5.6h-2.93v0.58a9.64,9.64,0,0,0,.75,1.84,19.17,19.17,0,0,0,1.79-1.86Zm-6.64-4.55h5V55.18h-5v1.39Zm0,2.32h5V57.47h-5V58.9Z"/><path class="cls-3" d="M280.14,65.22V66.4H265.88V65.22h6V52.8h1.25v4.9h6v1.18h-6v6.34h7Z"/><path class="cls-3" d="M289.18,64.56c-2.45.53-5.06,1.09-6.91,1.5L282,64.87c1.73-.34,4.45-0.88,7-1.42Zm6.11-6.87a18.62,18.62,0,0,1-2.83,5.6c0.59,1.65,1.31,2.64,2.1,2.64,0.45,0,.64-0.83.74-3a2.82,2.82,0,0,0,1,.67c-0.21,2.74-.66,3.52-1.89,3.52s-2.16-1-2.88-2.77a14.72,14.72,0,0,1-3.38,2.75,7.18,7.18,0,0,0-.93-0.91,12.64,12.64,0,0,0,3.84-3.14A34.38,34.38,0,0,1,290,56.27h-7.86V55.1h7.79c0-.83-0.06-1.66-0.08-2.51h1.25c0,0.86,0,1.7,0,2.51h4.8v1.17h-4.72a33.17,33.17,0,0,0,.83,5.59,17.23,17.23,0,0,0,2.06-4.45Zm-6.72,0v4.83H283V57.68h5.52Zm-1.17,1h-3.25v2.77h3.25V58.72Zm7.35-3.63A11.8,11.8,0,0,0,292,53.34l0.69-.74a12.27,12.27,0,0,1,2.75,1.65Z"/><path class="cls-3" d="M302.23,62.26c0-.27-0.1-0.59-0.16-0.91-3.19.46-3.68,0.58-4,.74a11.94,11.94,0,0,0-.38-1.14,2.84,2.84,0,0,0,1.17-1.06,18.26,18.26,0,0,0,1.31-1.78,8.66,8.66,0,0,0-2.19.38,11.18,11.18,0,0,0-.38-1.09,1.78,1.78,0,0,0,.85-0.88,19.83,19.83,0,0,0,2-4l1.1,0.46a26.05,26.05,0,0,1-2.42,4.23l1.66-.16a21.13,21.13,0,0,0,1.18-2.13l1.06,0.61a31.39,31.39,0,0,1-3.57,5.17l2.31-.3c-0.14-.54-0.3-1.09-0.48-1.58l0.91-.24a22.89,22.89,0,0,1,.93,3.39Zm-2.88.67a21.22,21.22,0,0,1-.82,3.94,6.79,6.79,0,0,0-.91-0.34,16.25,16.25,0,0,0,.77-3.76Zm1.49-.19c0.18,1.09.35,2.48,0.4,3.41l-0.94.18a27.72,27.72,0,0,0-.35-3.43Zm1.42-.38a18.43,18.43,0,0,1,.8,2.56l-0.88.29a20,20,0,0,0-.75-2.61Zm4.82-1a7.7,7.7,0,0,1-3.59,5,3.9,3.9,0,0,0-.69-0.85,6.31,6.31,0,0,0,2.93-3.41h-2.06v-1h2.53l0.19,0Zm4.93-.26c-0.72.66-1.54,1.39-2.24,1.92a6.94,6.94,0,0,0,2.61,2.5,4.58,4.58,0,0,0-.78.94,8.57,8.57,0,0,1-3-3.63v3A1,1,0,0,1,308,67a5.79,5.79,0,0,1-2.11.21,4.66,4.66,0,0,0-.35-1.1c0.75,0,1.42,0,1.62,0s0.27-.06.27-0.26v-6h-3.19v-5.6h2.45a11.49,11.49,0,0,0,.54-1.7l1.33,0.27-0.67,1.42h3.6v5.6h-2.93v0.58a9.64,9.64,0,0,0,.75,1.84,19.17,19.17,0,0,0,1.79-1.86Zm-6.64-4.55h5V55.18h-5v1.39Zm0,2.32h5V57.47h-5V58.9Z"/><path class="cls-3" d="M321.32,54.91v2.85l0.21-.24a39.57,39.57,0,0,1,5.68,3.31l-0.83,1.07a36.45,36.45,0,0,0-5.06-3.19v8.42h-1.26V54.91h-6.11V53.73h14.13v1.18h-6.75Z"/><path class="cls-3" d="M338.22,53.42a18.89,18.89,0,0,1-2.32,4H338v1.06H335A17.42,17.42,0,0,1,333.51,60h3.73v6.88h-1.14V66.15h-3.59v0.94h-1.1V61.6c-0.4.27-.83,0.53-1.26,0.77a8,8,0,0,0-.75-1,15.66,15.66,0,0,0,4.15-3h-3.79V57.37h3.17V55.45h-2.45V54.4h2.45V52.68H334V54.4h2v0.88a17.29,17.29,0,0,0,1.12-2.16ZM336.11,61h-3.59v1.55h3.59V61Zm0,4.19V63.47h-3.59v1.68h3.59Zm-1.58-7.78a18.42,18.42,0,0,0,1.39-1.92H334v1.92h0.48ZM344.36,54c-0.67,1.5-1.55,3.33-2.32,4.8,1.68,1.49,2.11,2.74,2.11,3.87a2.24,2.24,0,0,1-.82,2.08,2.32,2.32,0,0,1-1.07.37,9.16,9.16,0,0,1-1.49,0,2.74,2.74,0,0,0-.35-1.17,8.07,8.07,0,0,0,1.36,0,1.87,1.87,0,0,0,.75-0.19,1.31,1.31,0,0,0,.46-1.25c0-1-.5-2.21-2.18-3.6,0.69-1.36,1.44-3.06,2-4.34h-3V67.17h-1.17V53.45h4.69l0.19,0Z"/><path class="cls-3" d="M351,56.37a20.14,20.14,0,0,1-1.76,2.42V67.2H348.1V60.1a18.89,18.89,0,0,1-1.81,1.66,11.33,11.33,0,0,0-.83-1,17.44,17.44,0,0,0,4.48-4.82ZM350.42,53a19.68,19.68,0,0,1-4.1,4,10.27,10.27,0,0,0-.7-0.94,15.89,15.89,0,0,0,3.67-3.47Zm9.81,6h-2.42v6.61a1.13,1.13,0,0,1-.7,1.3,12.07,12.07,0,0,1-3,.18,4.26,4.26,0,0,0-.38-1.15c1.14,0,2.19,0,2.5,0s0.4-.08.4-0.35V59h-5.35V57.89h9V59Zm-0.46-4.39H352V53.52h7.81v1.12Z"/><path class="cls-3" d="M363.72,64.75A1.28,1.28,0,1,1,365,66,1.23,1.23,0,0,1,363.72,64.75Zm0.37-8.9L364,54H366l0,1.89-0.4,6.21h-1.06Z"/><path class="cls-3" d="M81.6,104.44a21.81,21.81,0,0,1-.78,3.86,5.25,5.25,0,0,0-.88-0.32,19.16,19.16,0,0,0,.75-3.68Zm3.17-4.31a26.41,26.41,0,0,1,1.07,3.06l-0.9.35c0-.22-0.13-0.5-0.19-0.77-3.57.56-4,.67-4.35,0.83a5.19,5.19,0,0,0-.34-1,2.66,2.66,0,0,0,1.14-1.07,20.45,20.45,0,0,0,1.31-1.87,7.54,7.54,0,0,0-2.21.38c-0.06-.22-0.22-0.75-0.34-1a2,2,0,0,0,.85-0.88,21.28,21.28,0,0,0,2-4l1,0.43a25.09,25.09,0,0,1-2.42,4.29l1.68-.16a24,24,0,0,0,1.17-2.21L85.23,97a32.48,32.48,0,0,1-3.51,5.31l2.75-.38c-0.18-.51-0.38-1-0.56-1.49Zm-1.6,4.1a24.3,24.3,0,0,1,.45,3.36l-0.9.22a31.15,31.15,0,0,0-.38-3.43Zm1.68-.42a23.37,23.37,0,0,1,.94,3.07l-0.83.3a23.31,23.31,0,0,0-.9-3.11Zm9.35,3.52a1,1,0,0,1-.54,1.14,5.25,5.25,0,0,1-2,.21,4.39,4.39,0,0,0-.3-1.06c0.67,0,1.31,0,1.5,0a0.24,0.24,0,0,0,.27-0.3V95.87h-6V108.7H86.05V94.82H94.2v12.52Zm-2.58-2.64a4.61,4.61,0,0,0,.94-0.08c0,0.27.06,0.64,0.1,0.88a4.4,4.4,0,0,1-1,.08h-2c-1.06,0-1.3-.38-1.3-1.44v-1.55H87.7v-0.94h2.18a10,10,0,0,0-.62-1.41L90,99.94H87.54V99h3a17.63,17.63,0,0,0,.75-2.64l0.86,0.26c-0.24.78-.53,1.7-0.78,2.39h1.36v0.94H90.08a13,13,0,0,1,.7,1.44l-0.58.26h2.37v0.94h-3.3v1.57c0,0.42,0,.54.38,0.54h2Zm-2.8-8.37a7.73,7.73,0,0,1,.86,2.27l-0.77.27a8.66,8.66,0,0,0-.83-2.29Z"/><path class="cls-3" d="M102.24,104.47l0.11,1.09-6,1.52-0.29-1.17c0.93-.21,2.15-0.46,3.46-0.78a58.26,58.26,0,0,0,1-6.43l1.12,0.21c-0.32,1.87-.75,4.31-1.17,6Zm-6-7.43h6.18v1.1H96.26V97Zm1.58,1.84a47.41,47.41,0,0,1,.82,5.7l-1,.19a41.11,41.11,0,0,0-.77-5.71Zm1.34-2a14,14,0,0,0-1.06-2.43l1-.3a10.23,10.23,0,0,1,1.14,2.37Zm7.35,1.62v3.15h3.36v6.95h-1.2v-0.69h-4.8v0.75h-1.15v-7h2.59V94h1.2v3.31h4V98.5h-4Zm2.16,4.27h-4.8v4h4.8v-4Z"/><path class="cls-3" d="M120.2,94.61c-0.08.14-.18,0.27-0.26,0.42a14.12,14.12,0,0,0,6.9,4.66,5.22,5.22,0,0,0-.85,1.09,15.19,15.19,0,0,1-6.72-4.85,16.85,16.85,0,0,1-6.74,5,5.32,5.32,0,0,0-.72-1.12A14.46,14.46,0,0,0,119.25,94Zm-4.45,5.73H117v2c0,2.13-.35,4.58-3.55,6.31a4.17,4.17,0,0,0-1-.86,5.46,5.46,0,0,0,3.3-5.46v-2Zm6,0h1.22v8.39H121.7v-8.39Z"/><path class="cls-3" d="M135.76,96.26c-0.19.67-.42,1.39-0.62,2h6.42v10.42h-1.2v-0.85H130.13v0.85H129V98.26h4.95c0.18-.61.34-1.34,0.46-2h-6.13V95.12h14.07v1.14h-6.56Zm-5.63,10.47h2.27V99.36h-2.27v7.36Zm6.74-7.36h-3.38v1.76h3.38V99.36Zm0,2.74h-3.38v1.79h3.38V102.1Zm-3.38,4.63h3.38v-1.86h-3.38v1.86Zm6.87-7.36H138v7.36h2.4V99.36Z"/><path class="cls-3" d="M150.11,97.75h-6.05v-1h6.05v1Zm7.6,3.62a10.19,10.19,0,0,1-2.85,4.61,11,11,0,0,0,3.78,1.6,5.09,5.09,0,0,0-.74,1.07,11.29,11.29,0,0,1-4-1.9,12.75,12.75,0,0,1-4,2,4.31,4.31,0,0,0-.54-1h-3.65v0.75h-1v-5.38h4.72v4.51A11.62,11.62,0,0,0,153,106a10.94,10.94,0,0,1-2.39-3.54l0.69-.24h-1.39v-1.12h6.82l0.21,0Zm-8.26-2.5v0.94h-4.71V98.87h4.71Zm-4.71,2.08h4.72v0.94h-4.72v-0.94Zm3.65,3.12h-2.62v2.64h2.63v-2.64ZM147,96.59a14.92,14.92,0,0,0-1.2-2.14l0.93-.46A14,14,0,0,1,148,96.05Zm5.6-.18a4.6,4.6,0,0,1-2.32,4.26,5.71,5.71,0,0,0-.77-0.86,3.59,3.59,0,0,0,2-3.43V94.63h4.87v3.71c0,0.45,0,.59.26,0.59h0.94a3.37,3.37,0,0,0,.7-0.08c0,0.3.06,0.75,0.08,1a2.6,2.6,0,0,1-.78.08h-1c-1,0-1.26-.45-1.26-1.65V95.75H152.6v0.67Zm-0.91,5.78a8.89,8.89,0,0,0,2.26,3.06,8.66,8.66,0,0,0,2.26-3.06h-4.51Z"/><path class="cls-3" d="M166.92,97.75h-6.58v-1h6.58v1ZM161,98.87h5.2v0.94H161V98.87Zm5.15,3H161v-0.94h5.15v0.94Zm0,5.81h-4v0.75h-1v-5.38h5.07v4.63Zm-4-3.63v2.64h3v-2.64h-3Zm1.2-7.48a13.66,13.66,0,0,0-1.17-2.13l0.9-.46a12.15,12.15,0,0,1,1.23,2Zm11.09,4.15h-3.28v7.94H170v-7.94h-3.14V99.57H170V94.35h1.2v5.22h3.28v1.17Z"/><path class="cls-3" d="M176.08,96.77h5.35v1h-5.35v-1Zm4.63,10.93h-3v0.75h-1.06v-5.38h4.07v4.63Zm-4-8.84h4.11v0.94h-4.11V98.87Zm0,2.08h4.11v1h-4.11v-1Zm1,3.12v2.64h2v-2.64h-2Zm0.93-7.6a14.87,14.87,0,0,0-.86-2.13l1-.26a11.7,11.7,0,0,1,.91,2.06Zm6.07,3.68h-3.19v-1h3.19v1Zm-0.4-3.67h-2.43V95.54h2.43v0.94ZM183,102.77h6.63v5.87h-1.17V108h-4.34v0.69H183v-5.94Zm4.85-6c-0.08.4-.16,0.82-0.27,1.2a5.59,5.59,0,0,0,3.14,3.44,3.8,3.8,0,0,0-.7.9,6.28,6.28,0,0,1-2.88-3.07,6.06,6.06,0,0,1-3.27,3.15,2.75,2.75,0,0,0-.64-0.78,5.67,5.67,0,0,0,3.52-4.83h-1a9.58,9.58,0,0,1-1.17,2,8,8,0,0,0-.9-0.61,10.42,10.42,0,0,0,1.81-4.11l1.06,0.22a14,14,0,0,1-.42,1.46h3.57l0.19,0,0.7,0.18a23.41,23.41,0,0,1-.91,2.67l-0.88-.22c0.18-.42.35-1,0.53-1.6h-1.52Zm-3.73,7V107h4.34v-3.15h-4.34Z"/><path class="cls-3" d="M197.81,97.75h-5.73v-1h5.73v1Zm-0.64,10h-3.52v0.75h-1v-5.38h4.48v4.63Zm-4.47-7.89V98.87h4.45v0.94H192.7Zm0,1.14h4.47v0.94H192.7v-0.94Zm0.94,3.12v2.64h2.55v-2.64h-2.55Zm1.26-7.48a15.56,15.56,0,0,0-1.2-2.13l0.85-.5a12.62,12.62,0,0,1,1.23,2Zm11.41-.16s0,0.46,0,.62c-0.22,7.59-.43,10.12-1,10.9a1.48,1.48,0,0,1-1.18.66,16.9,16.9,0,0,1-2.19,0,2.33,2.33,0,0,0-.37-1.17c0.93,0.06,1.76.08,2.1,0.08a0.65,0.65,0,0,0,.62-0.27c0.5-.54.7-3,0.9-9.7H200a17.62,17.62,0,0,1-.94,1.57h4.19v6.37h-3.46v0.82h-1V99.43c-0.14.19-.3,0.38-0.45,0.56a10.18,10.18,0,0,0-1-.72A12.37,12.37,0,0,0,200.05,94l1.17,0.27a21.89,21.89,0,0,1-.75,2.11h5.86Zm-6.58,3.65v1.71h2.46v-1.71h-2.46Zm2.46,4.4v-1.73h-2.46v1.73h2.46Z"/><path class="cls-3" d="M214,106.81a23,23,0,0,1-4.95,1.87,6.39,6.39,0,0,0-.85-0.9,19.3,19.3,0,0,0,4.72-1.46Zm3.84-.5a43.39,43.39,0,0,1,4.5,1.55l-0.9.74a39,39,0,0,0-4.71-1.71l0.59-.58h-7.09v-5.07c-0.42.13-.9,0.24-1.42,0.35a4.22,4.22,0,0,0-.56-0.93,7.83,7.83,0,0,0,3.86-1.49h-2.72c0.14-.7.3-1.7,0.4-2.53h3.19V95.73H209V94.95h3.91V94.07H214v0.88h2.47V94.07h1.12v0.88h3.57v2.48h-3.57v1h4.56s0,0.24,0,.38a2.7,2.7,0,0,1-.42,1.54,1.14,1.14,0,0,1-.77.29l-0.42,0v5.7h-2.74Zm-7.11-8.88q-0.07.5-.14,1h2.11a2.83,2.83,0,0,0,.24-1h-2.21Zm8.66,3.65h-8v1h8v-1Zm0,1.73h-8v1h8v-1Zm-8,2.74h8v-1h-8v1Zm2.16-6.37a3.34,3.34,0,0,1-1.14,1.14h7.15a1.77,1.77,0,0,0-.19-0.51c0.48,0,.91.06,1.09,0.06a0.43,0.43,0,0,0,.37-0.11,1,1,0,0,0,.19-0.58h-3.38v1.1H216.5v-1.1h-3Zm3-1.74H214a3.77,3.77,0,0,1-.16,1h2.66v-1ZM214,96.64h2.47V95.73H214v0.91Zm3.59-.91v0.91h2.48V95.73h-2.48Z"/><path class="cls-2" d="M263.46,25.9c0.27,0,.34-0.22.37-1.82a4.88,4.88,0,0,0,1.73.76c-0.19,2.28-.68,2.91-1.87,2.91h-1.14c-1.55,0-1.87-.61-1.87-2.36V22h-0.78c-0.26,2.69-.87,4.79-3.64,6a5.83,5.83,0,0,0-1-1.41V27H252v0.71h-1.73V21.84h5V26.4c2.11-.92,2.5-2.45,2.65-4.4h-1.1V17.39c-0.19.19-.39,0.37-0.58,0.54a12.59,12.59,0,0,0-1.43-1.43l0.07-.05h-5.32v-1.6h2.55a15.28,15.28,0,0,0-.82-2.14l1.7-.53a12.3,12.3,0,0,1,.94,2.19l-1.31.48h3v0.94A11.7,11.7,0,0,0,258,12.27l1.87,0.58a17.38,17.38,0,0,1-2.36,3.74h5.83a31.7,31.7,0,0,0-2.79-3.54l1.41-1a27.69,27.69,0,0,1,3.6,4.5l-1.53,1.1c-0.1-.19-0.2-0.37-0.34-0.58V22h-1.07v3.37c0,0.49,0,.54.27,0.54h0.54ZM255,18.75h-4.79V17.22H255v1.53Zm-4.79.75H255V21h-4.79V19.5Zm3.35,4H252v1.9h1.65v-1.9Zm5.12-3.21h3V18.36h-3v1.89Z"/><path class="cls-2" d="M269.93,23.35v1.46h-1.87V13h5.66V23.35h-3.79Zm0-8.55v2.41h1.92V14.8h-1.92Zm1.92,6.71V19h-1.92v2.5h1.92Zm10.81,4.08c0,1.07-.22,1.6-0.88,1.94a7.59,7.59,0,0,1-3.08.37,6.91,6.91,0,0,0-.7-2c0.92,0.05,1.94,0,2.23,0s0.43-.1.43-0.39v-3H277A9,9,0,0,1,274.07,28a6.71,6.71,0,0,0-1.55-1.31c2.57-2.11,2.79-5.29,2.79-7.84V12.73h7.34V25.6Zm-2-4.83V18.59H277.3v0.27c0,0.59,0,1.24-.07,1.9h3.42ZM277.3,14.6v2.18h3.35V14.6H277.3Z"/><rect class="cls-4" x="1" y="1" width="506.76" height="119"/><line class="cls-4" x1="1" y1="80.5" x2="507.76" y2="80.5"/><line class="cls-4" x1="68.73" y1="1" x2="68.73" y2="120"/><line class="cls-4" x1="235.73" y1="1" x2="235.73" y2="120"/></svg>