<svg xmlns="http://www.w3.org/2000/svg" viewBox="0 0 508.76 83.5"><defs><style>.cls-1{fill:#ff9947;}.cls-1,.cls-4{stroke:#e0e0e0;stroke-miterlimit:10;stroke-width:2px;}.cls-2{fill:#001f2e;}.cls-3{fill:#e0e0e0;}.cls-4{fill:none;}</style></defs><title>budget</title><g id="預算表"><rect class="cls-1" x="1" y="1" width="506.76" height="36"/><path class="cls-2" d="M20.84,18.82v1.77h5.42V22.4H23.58l1.7.61c-.6,1-1.26,2-1.79,2.7h3.65v1.85H12.45V25.72h3.35A14.13,14.13,0,0,0,14.38,23l1.34-.56H13.26V20.58h5.41V18.82H15.22V18q-1.07.51-2.19.92A7.32,7.32,0,0,0,11.68,17c3.2-.92,6.25-2.63,7.87-5.17l1.92.87-.48.68A18.84,18.84,0,0,0,28,17a9.82,9.82,0,0,0-1.39,1.77,22.44,22.44,0,0,1-2.31-1v1ZM16.1,22.4a11.61,11.61,0,0,1,1.48,2.7l-1.39.61h2.48V22.4ZM22.76,17a19.55,19.55,0,0,1-2.94-2.21A15.1,15.1,0,0,1,17.07,17ZM20.84,22.4v3.31H23l-1.14-.48a15.57,15.57,0,0,0,1.5-2.84Z"/><path class="cls-2" d="M36.69,22.67h.05v5.24H35v-.42H32.76v.44H31.08V23c-.2.08-.41.17-.61.24a6.92,6.92,0,0,0-1-1.6,11.18,11.18,0,0,0,2.94-1.31l-.88-.53,1.12-1.17,1.12.61a6,6,0,0,0,1-1.12H32.69A7.63,7.63,0,0,1,30.82,20a4.35,4.35,0,0,0-1-1.33,5.91,5.91,0,0,0,2.45-3.14l1.53.31a7,7,0,0,1-.29.76h2.14l.29-.05,0,0V15.31H31.4v1.46H29.94V13.72h3c-.12-.37-.25-.76-.37-1.07l1.61-.56c.2.49.44,1.1.65,1.63h2.72v3.06H36.21l.73.53a9.53,9.53,0,0,1-1.68,2.79c.92.53,1.82,1.07,2.4,1.48Zm-.58,0c-.56-.41-1.31-.88-2.11-1.38a11.07,11.07,0,0,1-2.16,1.38ZM35,25.92V24.24H32.76v1.68Zm8-1.36a19.39,19.39,0,0,1,2.77,2l-1.16,1.38a20.43,20.43,0,0,0-2.82-2.23l1-1.14H40.21l1.21,1.26A21,21,0,0,1,37.76,28a9.89,9.89,0,0,0-.83-1.48,16,16,0,0,0,3.21-2H38.3v-9h2.16c.07-.37.14-.78.19-1.17H37.88v-1.7h7.6v1.7h-3c-.1.41-.24.82-.36,1.17h2.92v9ZM40.1,18.14h3v-1h-3Zm0,2.45h3v-1h-3Zm0,2.43h3V22h-3Z"/><path class="cls-2" d="M86.42,22.71c-2.06.78-4.27,1.58-6,2.19L79.62,23l2.35-.7V15.74H80.08V13.87h5.81v1.87H84v5.9L86.1,21Zm2.24,1.87,1.56,1.1a15.76,15.76,0,0,1-4.4,2.23,10,10,0,0,0-1.22-1.38,13.67,13.67,0,0,0,3.93-2H86.81v-9h2.67c.08-.39.15-.8.22-1.17H86.11v-1.7h9.62v1.7H92c-.14.41-.29.8-.43,1.17h3.55v9Zm0-6.41h4.45V17.1H88.68Zm0,2.45h4.45V19.53H88.68Zm0,2.48h4.45V22H88.68Zm4,1.53A25.15,25.15,0,0,1,96,26.75l-1.6,1.19a24.26,24.26,0,0,0-3.28-2.24Z"/><path class="cls-2" d="M111.6,13V27.74h-2.14V26.69h-7.87v1.05h-2V13Zm-10,2v2h7.87v-2Zm0,3.86v2h7.87v-2Zm7.87,5.92v-2h-7.87v2Z"/><path class="cls-3" d="M81.86,54.17h7.71v1.26H83.33v4h5.06v1.26H83.33v5.25H81.86Z"/><path class="cls-3" d="M93.22,54.17h4c2.83,0,4.48.82,4.48,2.9a2.53,2.53,0,0,1-1.89,2.54v.08a2.76,2.76,0,0,1,2.62,2.8c0,2.4-1.62,3.44-4.88,3.44H93.22Zm3.75,5c2.24,0,3.23-.59,3.23-1.92s-1-1.92-3.1-1.92h-2.4v3.84Zm.4,5.57c2.43,0,3.59-.58,3.59-2.3,0-1.46-1.09-2.11-3.63-2.11H94.69v4.42Z"/><path class="cls-3" d="M106.8,58.46c0,2.53-.22,6.13-1.68,8.56a4.14,4.14,0,0,0-1-.61c1.39-2.32,1.54-5.59,1.54-8V53.9h6.13c-.11-.4-.26-.8-.4-1.17l1.2-.24a15,15,0,0,1,.53,1.41h5.57v1H106.8Zm4.91,7c-1.38.62-3.17,1.31-4.43,1.79a4.64,4.64,0,0,0-.62-.85,37.85,37.85,0,0,0,4.11-1.7Zm7.07-6.71v.77H107.23v-.77Zm-9.17-.5V56.85h-2v-.75h2v-.93h1.14v.93h4.11v-.93h1.18v.93h2v.75h-2v1.38Zm8,6.39h-9.59V60.06h9.59Zm-8.5-2.67h3.14v-1.1h-3.14Zm0,1.89h3.14V62.69h-3.14Zm1.6-7v.75h4.11v-.75Zm5.76,4h-3.11v1.1h3.11Zm0,1.86h-3.11v1.14h3.11Zm-2.06,2c1.52.54,3.19,1.2,4.24,1.7l-.59.85A44.51,44.51,0,0,0,114,65.46Z"/><path class="cls-3" d="M134.6,58.45v1.12h-14V58.45h6.71V55.93h-3.92a13,13,0,0,1-1.52,2.14c-.24-.16-.77-.48-1.07-.64a12.37,12.37,0,0,0,2.77-4.74l1.18.27a19.3,19.3,0,0,1-.78,1.87h3.35V52.54h1.23v2.31h4.87v1.09h-4.87v2.51Zm-12,2.69h10.15v6.15h-1.2v-.86h-7.76v.9h-1.18Zm1.18,1.1V65.3h7.76V62.24Z"/><path class="cls-3" d="M142.27,65.3a23,23,0,0,1-4.95,1.87,6.39,6.39,0,0,0-.85-.9,19.3,19.3,0,0,0,4.72-1.46Zm3.84-.5a43.39,43.39,0,0,1,4.5,1.55l-.9.74A39,39,0,0,0,145,65.38l.59-.58h-7.09V59.73c-.42.13-.9.24-1.42.35a4.22,4.22,0,0,0-.56-.93,7.83,7.83,0,0,0,3.86-1.49h-2.72c.14-.7.3-1.7.4-2.53h3.19v-.91h-3.91v-.78h3.91v-.88h1.09v.88h2.47v-.88h1.12v.88h3.57v2.48h-3.57v1h4.56s0,.24,0,.38c-.1.86-.19,1.33-.42,1.54a1.14,1.14,0,0,1-.77.29l-.42,0v5.7ZM139,55.92q-.07.5-.14,1H141a2.83,2.83,0,0,0,.24-1Zm8.66,3.65h-8v1h8Zm0,1.73h-8v1h8Zm-8,2.74h8V63h-8Zm2.16-6.37a3.34,3.34,0,0,1-1.14,1.14h7.15a1.77,1.77,0,0,0-.19-.51c.48,0,.91.06,1.09.06s.29,0,.37-.11a1,1,0,0,0,.19-.58h-3.38v1.1H144.8v-1.1Zm3-1.74h-2.5a3.77,3.77,0,0,1-.16,1h2.66Zm-2.47-.78h2.47v-.91h-2.47Zm3.59-.91v.91h2.48v-.91Z"/><path class="cls-3" d="M165.72,65.55c0,.77-.21,1.12-.72,1.33a10.45,10.45,0,0,1-3,.19,4.72,4.72,0,0,0-.4-1.15c1.12,0,2.21,0,2.5,0s.43-.11.43-.42V62.29h-4.31V67h-1.18V62.29h-4a9.19,9.19,0,0,1-2,5,3.88,3.88,0,0,0-.91-.78c1.76-2,1.92-4.8,1.92-7V53.68h11.65Zm-6.66-4.4V58.5h-3.83v.94c0,.53,0,1.12-.06,1.71Zm-3.83-6.34v2.56h3.83V54.81Zm9.32,0h-4.31v2.56h4.31Zm0,6.34V58.5h-4.31v2.66Z"/><path class="cls-3" d="M17.51,56.93a1.21,1.21,0,0,0-.22-.64,1.3,1.3,0,0,0-1.15-.56A1.71,1.71,0,0,0,14.49,57a8,8,0,0,0-.37,2.11,2.66,2.66,0,0,1,1-.76,3.44,3.44,0,0,1,1.33-.24,3.45,3.45,0,0,1,2.63,1.09,3.89,3.89,0,0,1,1,2.78,4.69,4.69,0,0,1-1,3A3.71,3.71,0,0,1,16,66.25a3.59,3.59,0,0,1-3.35-1.9,7.75,7.75,0,0,1-.84-3.83,17.41,17.41,0,0,1,.12-2.24,6.85,6.85,0,0,1,.81-2.56,4.12,4.12,0,0,1,1.35-1.4,3.64,3.64,0,0,1,2-.53,4,4,0,0,1,2.67.86,3.27,3.27,0,0,1,1.12,2.29ZM14.7,63.71a1.67,1.67,0,0,0,1.33.61,1.47,1.47,0,0,0,1.24-.59,2.47,2.47,0,0,0,.45-1.54,2.31,2.31,0,0,0-.51-1.61A1.65,1.65,0,0,0,15.95,60a1.68,1.68,0,0,0-1.07.37,2.07,2.07,0,0,0-.7,1.74A2.36,2.36,0,0,0,14.7,63.71Z"/><path class="cls-3" d="M22.56,67.91a1.85,1.85,0,0,0,1-.66,2.45,2.45,0,0,0,.39-1.3H22.56V63.46h2.56V65.6A5,5,0,0,1,25,66.78a2.4,2.4,0,0,1-.56,1.06,2.87,2.87,0,0,1-1,.73,2.68,2.68,0,0,1-.82.24Z"/><path class="cls-3" d="M35.06,55.44A9.36,9.36,0,0,1,36,60a9.31,9.31,0,0,1-.93,4.59,3.4,3.4,0,0,1-3.22,1.61,3.4,3.4,0,0,1-3.22-1.61A9.31,9.31,0,0,1,27.68,60a9.36,9.36,0,0,1,.93-4.6,3.4,3.4,0,0,1,3.22-1.62A3.4,3.4,0,0,1,35.06,55.44Zm-4.62,7.77a1.37,1.37,0,0,0,1.39,1.1,1.35,1.35,0,0,0,1.38-1.1A11.74,11.74,0,0,0,33.54,60a11.61,11.61,0,0,0-.33-3.22,1.34,1.34,0,0,0-1.38-1,1.36,1.36,0,0,0-1.39,1A11.21,11.21,0,0,0,30.1,60,11.33,11.33,0,0,0,30.44,63.21Z"/><path class="cls-3" d="M45.36,55.44a9.36,9.36,0,0,1,.93,4.6,9.31,9.31,0,0,1-.93,4.59,3.4,3.4,0,0,1-3.22,1.61,3.4,3.4,0,0,1-3.22-1.61A9.31,9.31,0,0,1,38,60a9.36,9.36,0,0,1,.93-4.6,3.4,3.4,0,0,1,3.22-1.62A3.4,3.4,0,0,1,45.36,55.44Zm-4.62,7.77a1.37,1.37,0,0,0,1.39,1.1,1.35,1.35,0,0,0,1.38-1.1A11.74,11.74,0,0,0,43.85,60a11.61,11.61,0,0,0-.33-3.22,1.34,1.34,0,0,0-1.38-1,1.36,1.36,0,0,0-1.39,1A11.21,11.21,0,0,0,40.4,60,11.33,11.33,0,0,0,40.74,63.21Z"/><path class="cls-3" d="M55.67,55.44a9.36,9.36,0,0,1,.93,4.6,9.31,9.31,0,0,1-.93,4.59,3.4,3.4,0,0,1-3.22,1.61,3.4,3.4,0,0,1-3.22-1.61A9.31,9.31,0,0,1,48.29,60a9.36,9.36,0,0,1,.93-4.6,3.4,3.4,0,0,1,3.22-1.62A3.4,3.4,0,0,1,55.67,55.44ZM51,63.21a1.37,1.37,0,0,0,1.39,1.1,1.35,1.35,0,0,0,1.38-1.1A11.74,11.74,0,0,0,54.15,60a11.61,11.61,0,0,0-.33-3.22,1.34,1.34,0,0,0-1.38-1,1.36,1.36,0,0,0-1.39,1A11.21,11.21,0,0,0,50.71,60,11.33,11.33,0,0,0,51,63.21Z"/><path class="cls-2" d="M263.46,25.9c.27,0,.34-.22.37-1.82a4.87,4.87,0,0,0,1.73.77c-.19,2.28-.68,2.91-1.87,2.91h-1.14c-1.55,0-1.87-.61-1.87-2.36V22h-.78c-.25,2.69-.87,4.79-3.64,6a5.81,5.81,0,0,0-1-1.41V27H252v.71h-1.73V21.84h5V26.4c2.11-.92,2.5-2.45,2.65-4.4h-1.11V17.39c-.19.19-.39.37-.58.54a12.55,12.55,0,0,0-1.43-1.43l.07-.05h-5.32v-1.6h2.55a15.26,15.26,0,0,0-.82-2.14l1.7-.53a12.28,12.28,0,0,1,.93,2.19l-1.31.48h3v.94A11.7,11.7,0,0,0,258,12.27l1.87.58a17.39,17.39,0,0,1-2.36,3.74h5.83a31.74,31.74,0,0,0-2.79-3.54l1.41-1a27.7,27.7,0,0,1,3.6,4.5l-1.53,1.1c-.1-.19-.2-.37-.34-.58V22h-1.07v3.37c0,.49,0,.54.27.54Zm-8.41-7.16h-4.79V17.22h4.79Zm-4.79.75h4.79V21h-4.79Zm3.35,4H252v1.9h1.65Zm5.12-3.21h3V18.36h-3Z"/><path class="cls-2" d="M269.93,23.35v1.46h-1.87V13h5.66V23.35Zm0-8.55v2.41h1.92V14.8Zm1.92,6.71V19h-1.92v2.5Zm10.81,4.08c0,1.07-.22,1.6-.88,1.94a7.6,7.6,0,0,1-3.08.37,6.9,6.9,0,0,0-.7-2c.92.05,1.94,0,2.23,0s.43-.1.43-.39v-3H277A9,9,0,0,1,274.07,28a6.72,6.72,0,0,0-1.55-1.31c2.57-2.11,2.79-5.29,2.79-7.84V12.73h7.34Zm-2-4.83V18.59H277.3v.27c0,.59,0,1.24-.07,1.9ZM277.3,14.6v2.18h3.35V14.6Z"/><rect class="cls-4" x="1" y="1" width="506.76" height="79.5"/><line class="cls-4" x1="1" y1="80.5" x2="507.76" y2="80.5"/><line class="cls-4" x1="68.73" y1="1" x2="68.73" y2="80.5"/><line class="cls-4" x1="235.73" y1="1" x2="235.73" y2="80.5"/><path class="cls-3" d="M257.63,53a16.35,16.35,0,0,0,6.77,5.43,5.63,5.63,0,0,0-.8,1A19.41,19.41,0,0,1,257,54.09a23.92,23.92,0,0,1-6.59,5.46,3.74,3.74,0,0,0-.74-1,20.66,20.66,0,0,0,6-4.5h-2.85V53Zm-.06,12.66h6.24v1.09H250.28V65.63h6.07V63h-4.48V61.92h4.48V59.47h-3.79V58.4h8.93v1.07h-3.92v2.45h4.55V63h-4.55Z"/><path class="cls-3" d="M273.32,54.91v2.85l.21-.24a39.55,39.55,0,0,1,5.68,3.31l-.83,1.07a36.46,36.46,0,0,0-5.06-3.19v8.42h-1.26V54.91h-6.12V53.73h14.13v1.18Z"/><path class="cls-3" d="M295.24,54.4a22.64,22.64,0,0,1-5.57,4.29V65.6c0,.82-.21,1.17-.83,1.34a13.42,13.42,0,0,1-3.28.21,4.39,4.39,0,0,0-.48-1.18c1.33,0,2.56,0,2.93,0s.43-.1.43-.38V58.09A19.56,19.56,0,0,0,292.89,55H282.6V53.79H294l.29-.08Z"/><path class="cls-3" d="M299.72,64.75A1.28,1.28,0,1,1,301,66,1.23,1.23,0,0,1,299.72,64.75Zm.37-8.9L300,54H302l0,1.89-.4,6.21h-1.06Z"/></g></svg>