<svg id="預算表" xmlns="http://www.w3.org/2000/svg" viewBox="0 0 508.76 205.45"><defs><style>.cls-1{fill:#ff9947;}.cls-1,.cls-4{stroke:#e0e0e0;stroke-miterlimit:10;stroke-width:2px;}.cls-2{fill:#001f2e;}.cls-3{fill:#e0e0e0;}.cls-4{fill:none;}</style></defs><title>08_budget</title><rect class="cls-1" x="1" y="3.45" width="506.76" height="36"/><path class="cls-2" d="M20.84,21.26V23h5.42v1.82H23.58l1.7.61c-.6,1-1.26,2-1.79,2.7h3.65V30H12.45V28.16h3.35a14.13,14.13,0,0,0-1.41-2.75l1.34-.56H13.26V23h5.41V21.26H15.22v-.83q-1.07.51-2.19.92a7.32,7.32,0,0,0-1.34-1.87c3.2-.92,6.25-2.63,7.87-5.17l1.92.87-.48.68a18.84,18.84,0,0,0,7,3.62,9.82,9.82,0,0,0-1.39,1.77,22.44,22.44,0,0,1-2.31-1v1ZM16.1,24.85a11.61,11.61,0,0,1,1.48,2.7l-1.39.61h2.48V24.85Zm6.66-5.44a19.55,19.55,0,0,1-2.94-2.21,15.1,15.1,0,0,1-2.75,2.21Zm-1.92,5.44v3.31H23l-1.14-.48a15.57,15.57,0,0,0,1.5-2.84Z"/><path class="cls-2" d="M36.69,25.12h.05v5.24H35v-.42H32.76v.44H31.08V25.46c-.2.08-.41.17-.61.24a6.92,6.92,0,0,0-1-1.6,11.18,11.18,0,0,0,2.94-1.31l-.88-.53,1.12-1.17,1.12.61a6,6,0,0,0,1-1.12H32.69a7.63,7.63,0,0,1-1.87,1.9,4.35,4.35,0,0,0-1-1.33A5.91,5.91,0,0,0,32.28,18l1.53.31a7,7,0,0,1-.29.76h2.14L36,19l0,0V17.76H31.4v1.46H29.94V16.16h3c-.12-.37-.25-.76-.37-1.07l1.61-.56c.2.49.44,1.1.65,1.63h2.72v3.06H36.21l.73.53a9.53,9.53,0,0,1-1.68,2.79c.92.53,1.82,1.07,2.4,1.48Zm-.58,0c-.56-.41-1.31-.88-2.11-1.38a11.07,11.07,0,0,1-2.16,1.38ZM35,28.37V26.68H32.76v1.68Zm8-1.36a19.39,19.39,0,0,1,2.77,2l-1.16,1.38a20.43,20.43,0,0,0-2.82-2.23l1-1.14H40.21l1.21,1.26a21,21,0,0,1-3.65,2.19A9.89,9.89,0,0,0,36.93,29a16,16,0,0,0,3.21-2H38.3V18h2.16c.07-.37.14-.78.19-1.17H37.88v-1.7h7.6v1.7h-3c-.1.41-.24.82-.36,1.17h2.92v9ZM40.1,20.58h3v-1h-3Zm0,2.45h3V22h-3Zm0,2.43h3v-1h-3Z"/><path class="cls-2" d="M86.42,25.15c-2.06.78-4.27,1.58-6,2.19l-.83-1.94,2.35-.7V18.18H80.08V16.31h5.81v1.87H84v5.9l2.09-.68ZM88.66,27l1.56,1.1a15.76,15.76,0,0,1-4.4,2.23A10,10,0,0,0,84.6,29a13.67,13.67,0,0,0,3.93-2H86.81V18h2.67c.08-.39.15-.8.22-1.17H86.11v-1.7h9.62v1.7H92c-.14.41-.29.8-.43,1.17h3.55v9Zm0-6.41h4.45V19.54H88.68Zm0,2.45h4.45V22H88.68Zm0,2.48h4.45V24.46H88.68Zm4,1.53A25.15,25.15,0,0,1,96,29.2l-1.6,1.19a24.26,24.26,0,0,0-3.28-2.24Z"/><path class="cls-2" d="M111.6,15.41V30.18h-2.14V29.13h-7.87v1.05h-2V15.41Zm-10,2v2h7.87v-2Zm0,3.86v2h7.87v-2Zm7.87,5.92v-2h-7.87v2Z"/><path class="cls-3" d="M87.83,60.09a16.21,16.21,0,0,0,6.83,2.71,5.19,5.19,0,0,0-.7.94,17.91,17.91,0,0,1-6.74-3,16.42,16.42,0,0,1-6.66,2.95,6,6,0,0,0-.67-.91,15.15,15.15,0,0,0,6.79-2.74V57.56H80.43V56.51h6.24V55h1.15v1.52h6.35v1.06H87.83ZM84.35,58a8.39,8.39,0,0,1-.62,1.26,18.28,18.28,0,0,1,1.54,1.14l-.66.75A12.26,12.26,0,0,0,83.19,60a8.23,8.23,0,0,1-2.06,1.82,7.18,7.18,0,0,0-.82-.7,6.62,6.62,0,0,0,3-3.35Zm6.77,6A8.05,8.05,0,0,1,88.9,66.7c1.44.7,2.77,1.38,3.75,2l-.74.8c-1-.61-2.37-1.36-3.91-2.13a17.31,17.31,0,0,1-6.74,2.26,5,5,0,0,0-.48-1,17.11,17.11,0,0,0,6.13-1.81c-1-.46-2-.93-3-1.36a16.58,16.58,0,0,1-2.19,1.17,3.35,3.35,0,0,0-.7-.72A13.51,13.51,0,0,0,82.91,65c-.4-.14-.77-.3-1.15-.46l.66-.66c.46.16.93.37,1.41.58a11.47,11.47,0,0,0,2.3-2l1.12.24a12.09,12.09,0,0,1-.9.93h3.87l.21,0Zm-5.75.53c-.18.14-.37.29-.56.42,1,.43,2,.9,3,1.36a7.06,7.06,0,0,0,1.74-1.78ZM92,58a7.16,7.16,0,0,1-.53,1.12A20,20,0,0,1,94,60.88l-.64.78a21.68,21.68,0,0,0-2.46-1.79,7.1,7.1,0,0,1-1.2,1.2,7.1,7.1,0,0,0-.82-.69,5.43,5.43,0,0,0,2-2.64Z"/><path class="cls-3" d="M108.63,68.32c.66,0,.75-.3.82-2.35a3.2,3.2,0,0,0,1.12.5c-.14,2.4-.5,3-1.84,3h-2.51c-1.49,0-1.87-.38-1.87-1.68v-3.6H102c-.38,2.75-1.39,4.55-5.25,5.47A3.68,3.68,0,0,0,96,68.56c3.51-.72,4.34-2.15,4.66-4.39H98.19V59.45h4.43V57.69H96.42v-1.1h6.21V55h1.18v1.6h6.35v1.1h-6.35v1.76h4.61v4.72h-2.9v3.6c0,.46.13.54.8.54Zm-9.3-5.23h7.89V60.52H99.33Z"/><path class="cls-3" d="M124.69,55.87c0,6,0,12.48.94,12.48.19,0,.29-1.06.32-2.45a4.22,4.22,0,0,0,.72.83c-.11,2-.35,2.86-1.17,2.86-1.94,0-1.9-5.65-2-12.63h-8.63v4c0,2.58-.27,6.23-2.08,8.63a4,4,0,0,0-.94-.67c1.71-2.27,1.89-5.51,1.89-8V55.87Zm-2.91,9.43a12.22,12.22,0,0,1,1.89,3.51l-1,.35a7.08,7.08,0,0,0-.48-1.22c-2.66.19-5.39.37-7.28.51l-.08-1.07c1,0,2.3-.13,3.73-.22V64.91h-2.77V60.56h2.77V59h-3V58h7.15v1h-3.11v1.54h2.83v4.35h-2.83v2.18l2.08-.13a13.81,13.81,0,0,0-.86-1.34ZM118.6,64V61.52h-1.81V64Zm1.06-2.45V64h1.82V61.52Z"/><path class="cls-3" d="M12.45,60.08V58.47A10.44,10.44,0,0,0,14,58.32a2.2,2.2,0,0,0,1.16-.63,2.08,2.08,0,0,0,.46-.86,2,2,0,0,0,.09-.48h2v12H15.28v-8.3Z"/><path class="cls-3" d="M22.56,70.35a1.85,1.85,0,0,0,1-.66,2.45,2.45,0,0,0,.39-1.3H22.56V65.9h2.56V68A5,5,0,0,1,25,69.23a2.4,2.4,0,0,1-.56,1.06,2.87,2.87,0,0,1-1,.73,2.68,2.68,0,0,1-.82.24Z"/><path class="cls-3" d="M30,65.16a2.29,2.29,0,0,0,.54,1.19,1.52,1.52,0,0,0,1.16.42A1.56,1.56,0,0,0,33,66.15a2.54,2.54,0,0,0,.46-1.56A2.71,2.71,0,0,0,33,63a1.51,1.51,0,0,0-1.34-.63,2.31,2.31,0,0,0-.75.11,1.48,1.48,0,0,0-.84.74L28,63.15l.84-6.65h6.62v2H30.53l-.43,2.63a5,5,0,0,1,.85-.47,3.61,3.61,0,0,1,1.25-.19,3.63,3.63,0,0,1,3.71,3.93,4.59,4.59,0,0,1-1.07,3,3.89,3.89,0,0,1-3.2,1.31,4.25,4.25,0,0,1-2.82-.92,3.58,3.58,0,0,1-1.23-2.61Z"/><path class="cls-3" d="M45.36,57.88a9.36,9.36,0,0,1,.93,4.6,9.31,9.31,0,0,1-.93,4.59,3.4,3.4,0,0,1-3.22,1.61,3.4,3.4,0,0,1-3.22-1.61A9.31,9.31,0,0,1,38,62.48a9.36,9.36,0,0,1,.93-4.6,3.4,3.4,0,0,1,3.22-1.62A3.4,3.4,0,0,1,45.36,57.88Zm-4.62,7.77a1.37,1.37,0,0,0,1.39,1.1,1.35,1.35,0,0,0,1.38-1.1,11.74,11.74,0,0,0,.33-3.18,11.61,11.61,0,0,0-.33-3.22,1.34,1.34,0,0,0-1.38-1,1.36,1.36,0,0,0-1.39,1,11.21,11.21,0,0,0-.34,3.22A11.33,11.33,0,0,0,40.74,65.66Z"/><path class="cls-3" d="M55.67,57.88a9.36,9.36,0,0,1,.93,4.6,9.31,9.31,0,0,1-.93,4.59,3.4,3.4,0,0,1-3.22,1.61,3.4,3.4,0,0,1-3.22-1.61,9.31,9.31,0,0,1-.93-4.59,9.36,9.36,0,0,1,.93-4.6,3.4,3.4,0,0,1,3.22-1.62A3.4,3.4,0,0,1,55.67,57.88ZM51,65.66a1.37,1.37,0,0,0,1.39,1.1,1.35,1.35,0,0,0,1.38-1.1,11.74,11.74,0,0,0,.33-3.18,11.61,11.61,0,0,0-.33-3.22,1.34,1.34,0,0,0-1.38-1,1.36,1.36,0,0,0-1.39,1,11.21,11.21,0,0,0-.34,3.22A11.33,11.33,0,0,0,51,65.66Z"/><path class="cls-3" d="M12.45,101.59V100A10.44,10.44,0,0,0,14,99.83a2.2,2.2,0,0,0,1.16-.63,2.08,2.08,0,0,0,.46-.86,2,2,0,0,0,.09-.48h2v12H15.28v-8.3Z"/><path class="cls-3" d="M22.56,111.86a1.85,1.85,0,0,0,1-.66,2.45,2.45,0,0,0,.39-1.3H22.56v-2.48h2.56v2.15a5,5,0,0,1-.15,1.18,2.4,2.4,0,0,1-.56,1.06,2.87,2.87,0,0,1-1,.73,2.68,2.68,0,0,1-.82.24Z"/><path class="cls-3" d="M30,106.67a2.29,2.29,0,0,0,.54,1.19,1.52,1.52,0,0,0,1.16.42,1.56,1.56,0,0,0,1.34-.62,2.54,2.54,0,0,0,.46-1.56,2.71,2.71,0,0,0-.43-1.56,1.51,1.51,0,0,0-1.34-.63,2.31,2.31,0,0,0-.75.11,1.48,1.48,0,0,0-.84.74l-2.12-.1L28.82,98h6.62v2H30.53l-.43,2.63a5,5,0,0,1,.85-.47A3.61,3.61,0,0,1,32.2,102a3.63,3.63,0,0,1,3.71,3.93,4.59,4.59,0,0,1-1.07,3,3.89,3.89,0,0,1-3.2,1.31,4.25,4.25,0,0,1-2.82-.92,3.58,3.58,0,0,1-1.23-2.61Z"/><path class="cls-3" d="M45.36,99.39a11.86,11.86,0,0,1,0,9.19,3.4,3.4,0,0,1-3.22,1.61,3.4,3.4,0,0,1-3.22-1.61,11.86,11.86,0,0,1,0-9.19,3.4,3.4,0,0,1,3.22-1.62A3.4,3.4,0,0,1,45.36,99.39Zm-4.62,7.77a1.37,1.37,0,0,0,1.39,1.1,1.35,1.35,0,0,0,1.38-1.1,11.74,11.74,0,0,0,.33-3.18,11.61,11.61,0,0,0-.33-3.22,1.34,1.34,0,0,0-1.38-1,1.36,1.36,0,0,0-1.39,1A11.21,11.21,0,0,0,40.4,104,11.33,11.33,0,0,0,40.74,107.17Z"/><path class="cls-3" d="M55.67,99.39a11.86,11.86,0,0,1,0,9.19,3.4,3.4,0,0,1-3.22,1.61,3.4,3.4,0,0,1-3.22-1.61,11.86,11.86,0,0,1,0-9.19,3.4,3.4,0,0,1,3.22-1.62A3.4,3.4,0,0,1,55.67,99.39ZM51,107.17a1.37,1.37,0,0,0,1.39,1.1,1.35,1.35,0,0,0,1.38-1.1,11.74,11.74,0,0,0,.33-3.18,11.61,11.61,0,0,0-.33-3.22,1.34,1.34,0,0,0-1.38-1,1.36,1.36,0,0,0-1.39,1,11.21,11.21,0,0,0-.34,3.22A11.33,11.33,0,0,0,51,107.17Z"/><path class="cls-3" d="M12.45,140.92v-1.61a10.44,10.44,0,0,0,1.56-.15,2.2,2.2,0,0,0,1.16-.63,2.08,2.08,0,0,0,.46-.86,2,2,0,0,0,.09-.48h2v12H15.28v-8.3Z"/><path class="cls-3" d="M22.56,151.19a1.85,1.85,0,0,0,1-.66,2.45,2.45,0,0,0,.39-1.3H22.56v-2.48h2.56v2.15a5,5,0,0,1-.15,1.18,2.4,2.4,0,0,1-.56,1.06,2.87,2.87,0,0,1-1,.73,2.68,2.68,0,0,1-.82.24Z"/><path class="cls-3" d="M30,146a2.29,2.29,0,0,0,.54,1.19,1.52,1.52,0,0,0,1.16.42A1.56,1.56,0,0,0,33,147a2.54,2.54,0,0,0,.46-1.56,2.71,2.71,0,0,0-.43-1.56,1.51,1.51,0,0,0-1.34-.63,2.31,2.31,0,0,0-.75.11,1.48,1.48,0,0,0-.84.74L28,144l.84-6.65h6.62v2H30.53L30.1,142a5,5,0,0,1,.85-.47,3.61,3.61,0,0,1,1.25-.19,3.63,3.63,0,0,1,3.71,3.93,4.59,4.59,0,0,1-1.07,3,3.89,3.89,0,0,1-3.2,1.31,4.25,4.25,0,0,1-2.82-.92A3.58,3.58,0,0,1,27.6,146Z"/><path class="cls-3" d="M45.36,138.72a11.86,11.86,0,0,1,0,9.19,3.4,3.4,0,0,1-3.22,1.61,3.4,3.4,0,0,1-3.22-1.61,11.86,11.86,0,0,1,0-9.19,3.4,3.4,0,0,1,3.22-1.62A3.4,3.4,0,0,1,45.36,138.72Zm-4.62,7.77a1.37,1.37,0,0,0,1.39,1.1,1.35,1.35,0,0,0,1.38-1.1,11.74,11.74,0,0,0,.33-3.18,11.61,11.61,0,0,0-.33-3.22,1.34,1.34,0,0,0-1.38-1,1.36,1.36,0,0,0-1.39,1,11.21,11.21,0,0,0-.34,3.22A11.33,11.33,0,0,0,40.74,146.5Z"/><path class="cls-3" d="M55.67,138.72a11.86,11.86,0,0,1,0,9.19,3.4,3.4,0,0,1-3.22,1.61,3.4,3.4,0,0,1-3.22-1.61,11.86,11.86,0,0,1,0-9.19,3.4,3.4,0,0,1,3.22-1.62A3.4,3.4,0,0,1,55.67,138.72ZM51,146.5a1.37,1.37,0,0,0,1.39,1.1,1.35,1.35,0,0,0,1.38-1.1,11.74,11.74,0,0,0,.33-3.18,11.61,11.61,0,0,0-.33-3.22,1.34,1.34,0,0,0-1.38-1,1.36,1.36,0,0,0-1.39,1,11.21,11.21,0,0,0-.34,3.22A11.33,11.33,0,0,0,51,146.5Z"/><path class="cls-3" d="M12.45,181.92v-1.61a10.44,10.44,0,0,0,1.56-.15,2.2,2.2,0,0,0,1.16-.63,2.08,2.08,0,0,0,.46-.86,2,2,0,0,0,.09-.48h2v12H15.28v-8.3Z"/><path class="cls-3" d="M22.56,192.19a1.85,1.85,0,0,0,1-.66,2.45,2.45,0,0,0,.39-1.3H22.56v-2.48h2.56v2.15a5,5,0,0,1-.15,1.18,2.4,2.4,0,0,1-.56,1.06,2.87,2.87,0,0,1-1,.73,2.68,2.68,0,0,1-.82.24Z"/><path class="cls-3" d="M30,187a2.29,2.29,0,0,0,.54,1.19,1.52,1.52,0,0,0,1.16.42A1.56,1.56,0,0,0,33,188a2.54,2.54,0,0,0,.46-1.56,2.71,2.71,0,0,0-.43-1.56,1.51,1.51,0,0,0-1.34-.63,2.31,2.31,0,0,0-.75.11,1.48,1.48,0,0,0-.84.74L28,185l.84-6.65h6.62v2H30.53L30.1,183a5,5,0,0,1,.85-.47,3.61,3.61,0,0,1,1.25-.19,3.63,3.63,0,0,1,3.71,3.93,4.59,4.59,0,0,1-1.07,3,3.89,3.89,0,0,1-3.2,1.31,4.25,4.25,0,0,1-2.82-.92A3.58,3.58,0,0,1,27.6,187Z"/><path class="cls-3" d="M45.36,179.72a11.86,11.86,0,0,1,0,9.19,3.4,3.4,0,0,1-3.22,1.61,3.4,3.4,0,0,1-3.22-1.61,11.86,11.86,0,0,1,0-9.19,3.4,3.4,0,0,1,3.22-1.62A3.4,3.4,0,0,1,45.36,179.72Zm-4.62,7.77a1.37,1.37,0,0,0,1.39,1.1,1.35,1.35,0,0,0,1.38-1.1,11.74,11.74,0,0,0,.33-3.18,11.61,11.61,0,0,0-.33-3.22,1.34,1.34,0,0,0-1.38-1,1.36,1.36,0,0,0-1.39,1,11.21,11.21,0,0,0-.34,3.22A11.33,11.33,0,0,0,40.74,187.5Z"/><path class="cls-3" d="M55.67,179.72a11.86,11.86,0,0,1,0,9.19,3.4,3.4,0,0,1-3.22,1.61,3.4,3.4,0,0,1-3.22-1.61,11.86,11.86,0,0,1,0-9.19,3.4,3.4,0,0,1,3.22-1.62A3.4,3.4,0,0,1,55.67,179.72ZM51,187.5a1.37,1.37,0,0,0,1.39,1.1,1.35,1.35,0,0,0,1.38-1.1,11.74,11.74,0,0,0,.33-3.18,11.61,11.61,0,0,0-.33-3.22,1.34,1.34,0,0,0-1.38-1,1.36,1.36,0,0,0-1.39,1,11.21,11.21,0,0,0-.34,3.22A11.33,11.33,0,0,0,51,187.5Z"/><path class="cls-3" d="M85.81,100.19H80v-1h5.84Zm5.46,5.59a12,12,0,0,0,3.49,3.62,4.41,4.41,0,0,0-.83.9,14.12,14.12,0,0,1-3.27-3.71v4.53H89.51v-4.4a11.52,11.52,0,0,1-3.46,3.7,4.15,4.15,0,0,0-.66-.78v.53H81.67v.75h-1v-5.38h4.77v3.92a10.51,10.51,0,0,0,3.54-3.67H85.78v-1.07h3.73v-1.33H86.37V97.17h7.51v6.21H90.66v1.33h3.7v1.07Zm-6-3.52H80.62v-.94h4.64Zm-4.64,1.14h4.64v.94H80.62Zm3.71,3.12H81.67v2.64h2.67ZM83,99a16.35,16.35,0,0,0-1.18-2.14l.91-.46a12.68,12.68,0,0,1,1.23,2.06Zm4.48.74h2.11V98.14H87.44Zm0,2.63h2.11v-1.66H87.44Zm5.33-4.26H90.6v1.63h2.18Zm0,2.59H90.6v1.66h2.18Z"/><path class="cls-3" d="M100.85,106.13a21.4,21.4,0,0,0-1.23-2.21v7.2H98.48V104a17.78,17.78,0,0,1-2.11,4.39,6.58,6.58,0,0,0-.59-1.15,17.21,17.21,0,0,0,2.45-5H96v-1.12h2.45V98.5c-.64.14-1.3.26-1.92.35a3.82,3.82,0,0,0-.34-1,19.27,19.27,0,0,0,4.48-1.26l.7,1a15.6,15.6,0,0,1-1.79.61v2.85h2v1.12h-2v.42c.4.48,1.67,2.14,1.92,2.56Zm9.67,3.52v1.07h-9.17v-1.07h4.08v-2.13h-3.2v-1h3.2v-1.9c-.93.1-1.84.18-2.71.22a3.36,3.36,0,0,0-.32-.93,34.88,34.88,0,0,0,6.35-.91l.78.88a18.14,18.14,0,0,1-2.95.58v2.06h3.25v1H106.6v2.13Zm-.88-7.28h-7.25V97.31h7.25Zm-1.17-4h-5v3h5Z"/><path class="cls-3" d="M116,101.59V100a10.44,10.44,0,0,0,1.56-.15,2.2,2.2,0,0,0,1.16-.63,2.08,2.08,0,0,0,.46-.86,2,2,0,0,0,.09-.48h2v12h-2.42v-8.3Z"/><path class="cls-3" d="M129.46,99.22h5.3v1h-5.3Zm4.8,3H130v-.94h4.23ZM130,103.39h4.23v.94H130Zm4.34,6.75h-3.43v.75H130v-5.38h4.34Zm-3.43-3.63v2.64h2.46v-2.64Zm1.46-7.46A14,14,0,0,0,131,96.93l.88-.51a15.09,15.09,0,0,1,1.44,2Zm11.65,9.43h-1v1.39c0,.59-.13.88-.56,1.06a7.69,7.69,0,0,1-2.37.18,3.33,3.33,0,0,0-.32-1c.83,0,1.62,0,1.81,0s.3-.06.3-.27v-1.39h-5.11v2.66h-1.12v-2.66h-.94v-.91h.94v-4.07h3.07v-.91h-4v-.9h2.3v-1.1h-1.52v-.88h1.52v-1h-2v-.91h2V96.53h1.1v1.31h2.4V96.53h1.1v1.31h2v.91h-2v1h1.7v.88h-1.7v1.1H144v.9h-4.1v.91h3.19v4.07h1Zm-7.2-4.08v1.15h2V104.4Zm0,3.17h2v-1.18h-2Zm1.33-7.86h2.4v-1h-2.4Zm0,2h2.4v-1.1h-2.4Zm1.73,2.71v1.15h2V104.4Zm2,3.17v-1.18h-2v1.18Z"/><path class="cls-3" d="M147.15,104.77H151v4.79h-3.86v1.07h-1.09V98.9h1.34a18.17,18.17,0,0,0,.69-2.4l1.28.19c-.26.72-.59,1.55-.88,2.21h2.35v4.39h-3.7Zm0-4.85v2.35h2.64V99.92Zm0,5.87v2.74h2.79v-2.74Zm9.11-7.38v2h3.23v7.09c0,.53-.1.86-.46,1a4.53,4.53,0,0,1-1.78.19,4.1,4.1,0,0,0-.32-1l1.23,0c.18,0,.22-.06.22-.22v-6h-2.13v9.62h-1.12v-9.62h-2v7.25h-1.09v-8.34h3.06v-2h-3.65V97.34H160v1.07Z"/><path class="cls-3" d="M167.44,109.25a23,23,0,0,1-4.95,1.87,6.39,6.39,0,0,0-.85-.9,19.3,19.3,0,0,0,4.72-1.46Zm3.84-.5a43.39,43.39,0,0,1,4.5,1.55l-.9.74a39,39,0,0,0-4.71-1.71l.59-.58h-7.09v-5.07c-.42.13-.9.24-1.42.35a4.22,4.22,0,0,0-.56-.93,7.83,7.83,0,0,0,3.86-1.49h-2.72c.14-.7.3-1.7.4-2.53h3.19v-.91h-3.91v-.78h3.91v-.88h1.09v.88H170v-.88h1.12v.88h3.57v2.48h-3.57v1h4.56s0,.24,0,.38c-.1.86-.19,1.33-.42,1.54a1.14,1.14,0,0,1-.77.29l-.42,0v5.7Zm-7.11-8.88q-.07.5-.14,1h2.11a2.83,2.83,0,0,0,.24-1Zm8.66,3.65h-8v1h8Zm0,1.73h-8v1h8Zm-8,2.74h8v-1h-8Zm2.16-6.37a3.34,3.34,0,0,1-1.14,1.14H173a1.77,1.77,0,0,0-.19-.51c.48,0,.91.06,1.09.06s.29,0,.37-.11a1,1,0,0,0,.19-.58h-3.38v1.1H170v-1.1Zm3-1.74h-2.5a3.77,3.77,0,0,1-.16,1H170Zm-2.47-.78H170v-.91h-2.47Zm3.59-.91v.91h2.48v-.91Z"/><path class="cls-3" d="M85.81,139.53H80v-1h5.84Zm5.46,5.59a12,12,0,0,0,3.49,3.62,4.41,4.41,0,0,0-.83.9,14.12,14.12,0,0,1-3.27-3.71v4.53H89.51V146a11.52,11.52,0,0,1-3.46,3.7,4.15,4.15,0,0,0-.66-.78v.53H81.67v.75h-1v-5.38h4.77v3.92a10.51,10.51,0,0,0,3.54-3.67H85.78V144h3.73v-1.33H86.37V136.5h7.51v6.21H90.66V144h3.7v1.07Zm-6-3.52H80.62v-.94h4.64Zm-4.64,1.14h4.64v.94H80.62Zm3.71,3.12H81.67v2.64h2.67ZM83,138.37a16.35,16.35,0,0,0-1.18-2.14l.91-.46a12.68,12.68,0,0,1,1.23,2.06Zm4.48.74h2.11v-1.63H87.44Zm0,2.63h2.11v-1.66H87.44Zm5.33-4.26H90.6v1.63h2.18Zm0,2.59H90.6v1.66h2.18Z"/><path class="cls-3" d="M100.85,145.46a21.4,21.4,0,0,0-1.23-2.21v7.2H98.48v-7.17a17.78,17.78,0,0,1-2.11,4.39,6.58,6.58,0,0,0-.59-1.15,17.21,17.21,0,0,0,2.45-5H96v-1.12h2.45v-2.56c-.64.14-1.3.26-1.92.35a3.82,3.82,0,0,0-.34-1,19.27,19.27,0,0,0,4.48-1.26l.7,1a15.6,15.6,0,0,1-1.79.61v2.85h2v1.12h-2v.42c.4.48,1.67,2.14,1.92,2.56Zm9.67,3.52v1.07h-9.17V149h4.08v-2.13h-3.2v-1h3.2v-1.9c-.93.1-1.84.18-2.71.22a3.36,3.36,0,0,0-.32-.93,34.88,34.88,0,0,0,6.35-.91l.78.88a18.14,18.14,0,0,1-2.95.58v2.06h3.25v1H106.6V149Zm-.88-7.28h-7.25v-5.06h7.25Zm-1.17-4h-5v3h5Z"/><path class="cls-3" d="M115.94,146.86a6.69,6.69,0,0,1,2.39-2.55,17.52,17.52,0,0,0,2.12-1.68,2.48,2.48,0,0,0,.74-1.73,1.91,1.91,0,0,0-.42-1.27,1.73,1.73,0,0,0-2.68.3,4,4,0,0,0-.27,1.48h-2.3a5.8,5.8,0,0,1,.56-2.48,3.47,3.47,0,0,1,3.37-1.8,4.27,4.27,0,0,1,3,1.06,3.66,3.66,0,0,1,1.13,2.8,3.79,3.79,0,0,1-.8,2.37,8,8,0,0,1-1.72,1.54l-.95.67q-.89.63-1.22.91a2.68,2.68,0,0,0-.55.66h5.25v2.08h-8.24A5.65,5.65,0,0,1,115.94,146.86Z"/><path class="cls-3" d="M129.46,138.55h5.3v1h-5.3Zm4.8,3H130v-.94h4.23ZM130,142.73h4.23v.94H130Zm4.34,6.75h-3.43v.75H130v-5.38h4.34Zm-3.43-3.63v2.64h2.46v-2.64Zm1.46-7.46a14,14,0,0,0-1.38-2.13l.88-.51a15.09,15.09,0,0,1,1.44,2Zm11.65,9.43h-1v1.39c0,.59-.13.88-.56,1.06a7.69,7.69,0,0,1-2.37.18,3.33,3.33,0,0,0-.32-1c.83,0,1.62,0,1.81,0s.3-.06.3-.27v-1.39h-5.11v2.66h-1.12v-2.66h-.94v-.91h.94v-4.07h3.07v-.91h-4V141h2.3v-1.1h-1.52V139h1.52v-1h-2v-.91h2v-1.31h1.1v1.31h2.4v-1.31h1.1v1.31h2v.91h-2v1h1.7v.88h-1.7V141H144v.9h-4.1v.91h3.19v4.07h1Zm-7.2-4.08v1.15h2v-1.15Zm0,3.17h2v-1.18h-2Zm1.33-7.86h2.4v-1h-2.4Zm0,2h2.4v-1.1h-2.4Zm1.73,2.71v1.15h2v-1.15Zm2,3.17v-1.18h-2v1.18Z"/><path class="cls-3" d="M147.15,144.1H151v4.79h-3.86V150h-1.09V138.23h1.34a18.17,18.17,0,0,0,.69-2.4l1.28.19c-.26.72-.59,1.55-.88,2.21h2.35v4.39h-3.7Zm0-4.85v2.35h2.64v-2.35Zm0,5.87v2.74h2.79v-2.74Zm9.11-7.38v2h3.23v7.09c0,.53-.1.86-.46,1a4.53,4.53,0,0,1-1.78.19,4.1,4.1,0,0,0-.32-1l1.23,0c.18,0,.22-.06.22-.22v-6h-2.13v9.62h-1.12v-9.62h-2v7.25h-1.09v-8.34h3.06v-2h-3.65v-1.07H160v1.07Z"/><path class="cls-3" d="M167.44,148.59a23,23,0,0,1-4.95,1.87,6.39,6.39,0,0,0-.85-.9,19.3,19.3,0,0,0,4.72-1.46Zm3.84-.5a43.39,43.39,0,0,1,4.5,1.55l-.9.74a39,39,0,0,0-4.71-1.71l.59-.58h-7.09V143c-.42.13-.9.24-1.42.35a4.22,4.22,0,0,0-.56-.93,7.83,7.83,0,0,0,3.86-1.49h-2.72c.14-.7.3-1.7.4-2.53h3.19v-.91h-3.91v-.78h3.91v-.88h1.09v.88H170v-.88h1.12v.88h3.57v2.48h-3.57v1h4.56s0,.24,0,.38c-.1.86-.19,1.33-.42,1.54a1.14,1.14,0,0,1-.77.29l-.42,0v5.7Zm-7.11-8.88q-.07.5-.14,1h2.11a2.83,2.83,0,0,0,.24-1Zm8.66,3.65h-8v1h8Zm0,1.73h-8v1h8Zm-8,2.74h8v-1h-8Zm2.16-6.37a3.34,3.34,0,0,1-1.14,1.14H173a1.77,1.77,0,0,0-.19-.51c.48,0,.91.06,1.09.06s.29,0,.37-.11a1,1,0,0,0,.19-.58h-3.38v1.1H170v-1.1Zm3-1.74h-2.5a3.77,3.77,0,0,1-.16,1H170Zm-2.47-.78H170v-.91h-2.47Zm3.59-.91v.91h2.48v-.91Z"/><path class="cls-3" d="M85.81,180.53H80v-1h5.84Zm5.46,5.59a12,12,0,0,0,3.49,3.62,4.41,4.41,0,0,0-.83.9,14.12,14.12,0,0,1-3.27-3.71v4.53H89.51V187a11.52,11.52,0,0,1-3.46,3.7,4.15,4.15,0,0,0-.66-.78v.53H81.67v.75h-1v-5.38h4.77v3.92a10.51,10.51,0,0,0,3.54-3.67H85.78V185h3.73v-1.33H86.37V177.5h7.51v6.21H90.66V185h3.7v1.07Zm-6-3.52H80.62v-.94h4.64Zm-4.64,1.14h4.64v.94H80.62Zm3.71,3.12H81.67v2.64h2.67ZM83,179.37a16.35,16.35,0,0,0-1.18-2.14l.91-.46a12.68,12.68,0,0,1,1.23,2.06Zm4.48.74h2.11v-1.63H87.44Zm0,2.63h2.11v-1.66H87.44Zm5.33-4.26H90.6v1.63h2.18Zm0,2.59H90.6v1.66h2.18Z"/><path class="cls-3" d="M100.85,186.46a21.4,21.4,0,0,0-1.23-2.21v7.2H98.48v-7.17a17.78,17.78,0,0,1-2.11,4.39,6.58,6.58,0,0,0-.59-1.15,17.21,17.21,0,0,0,2.45-5H96v-1.12h2.45v-2.56c-.64.14-1.3.26-1.92.35a3.82,3.82,0,0,0-.34-1,19.27,19.27,0,0,0,4.48-1.26l.7,1a15.6,15.6,0,0,1-1.79.61v2.85h2v1.12h-2v.42c.4.48,1.67,2.14,1.92,2.56Zm9.67,3.52v1.07h-9.17V190h4.08v-2.13h-3.2v-1h3.2v-1.9c-.93.1-1.84.18-2.71.22a3.36,3.36,0,0,0-.32-.93,34.88,34.88,0,0,0,6.35-.91l.78.88a18.14,18.14,0,0,1-2.95.58v2.06h3.25v1H106.6V190Zm-.88-7.28h-7.25v-5.06h7.25Zm-1.17-4h-5v3h5Z"/><path class="cls-3" d="M117.62,186.53a2.71,2.71,0,0,0,.23,1.2,1.59,1.59,0,0,0,1.56.87,1.73,1.73,0,0,0,1.21-.48,1.78,1.78,0,0,0,.52-1.37,1.55,1.55,0,0,0-1-1.59,4.86,4.86,0,0,0-1.72-.22v-1.69a4.46,4.46,0,0,0,1.6-.22,1.39,1.39,0,0,0,.79-1.41,1.58,1.58,0,0,0-.4-1.12,1.47,1.47,0,0,0-1.13-.43,1.43,1.43,0,0,0-1.23.53,2.26,2.26,0,0,0-.38,1.42h-2.21a6,6,0,0,1,.31-1.7,3.84,3.84,0,0,1,.91-1.3,3.18,3.18,0,0,1,1.1-.65,4.76,4.76,0,0,1,1.57-.22,4.17,4.17,0,0,1,2.78.89,3,3,0,0,1,1.06,2.4,2.65,2.65,0,0,1-.63,1.79,2.16,2.16,0,0,1-.83.62,1.71,1.71,0,0,1,.93.56,3,3,0,0,1,.9,2.29,3.86,3.86,0,0,1-1.06,2.69,4,4,0,0,1-3.13,1.16,3.79,3.79,0,0,1-3.55-1.67,5,5,0,0,1-.58-2.32Z"/><path class="cls-3" d="M129.46,179.55h5.3v1h-5.3Zm4.8,3H130v-.94h4.23ZM130,183.73h4.23v.94H130Zm4.34,6.75h-3.43v.75H130v-5.38h4.34Zm-3.43-3.63v2.64h2.46v-2.64Zm1.46-7.46a14,14,0,0,0-1.38-2.13l.88-.51a15.09,15.09,0,0,1,1.44,2Zm11.65,9.43h-1v1.39c0,.59-.13.88-.56,1.06a7.69,7.69,0,0,1-2.37.18,3.33,3.33,0,0,0-.32-1c.83,0,1.62,0,1.81,0s.3-.06.3-.27v-1.39h-5.11v2.66h-1.12v-2.66h-.94v-.91h.94v-4.07h3.07v-.91h-4V182h2.3v-1.1h-1.52V180h1.52v-1h-2v-.91h2v-1.31h1.1v1.31h2.4v-1.31h1.1v1.31h2v.91h-2v1h1.7v.88h-1.7V182H144v.9h-4.1v.91h3.19v4.07h1Zm-7.2-4.08v1.15h2v-1.15Zm0,3.17h2v-1.18h-2Zm1.33-7.86h2.4v-1h-2.4Zm0,2h2.4v-1.1h-2.4Zm1.73,2.71v1.15h2v-1.15Zm2,3.17v-1.18h-2v1.18Z"/><path class="cls-3" d="M147.15,185.1H151v4.79h-3.86V191h-1.09V179.23h1.34a18.17,18.17,0,0,0,.69-2.4l1.28.19c-.26.72-.59,1.55-.88,2.21h2.35v4.39h-3.7Zm0-4.85v2.35h2.64v-2.35Zm0,5.87v2.74h2.79v-2.74Zm9.11-7.38v2h3.23v7.09c0,.53-.1.86-.46,1a4.53,4.53,0,0,1-1.78.19,4.1,4.1,0,0,0-.32-1l1.23,0c.18,0,.22-.06.22-.22v-6h-2.13v9.62h-1.12v-9.62h-2v7.25h-1.09v-8.34h3.06v-2h-3.65v-1.07H160v1.07Z"/><path class="cls-3" d="M167.44,189.59a23,23,0,0,1-4.95,1.87,6.39,6.39,0,0,0-.85-.9,19.3,19.3,0,0,0,4.72-1.46Zm3.84-.5a43.39,43.39,0,0,1,4.5,1.55l-.9.74a39,39,0,0,0-4.71-1.71l.59-.58h-7.09V184c-.42.13-.9.24-1.42.35a4.22,4.22,0,0,0-.56-.93,7.83,7.83,0,0,0,3.86-1.49h-2.72c.14-.7.3-1.7.4-2.53h3.19v-.91h-3.91v-.78h3.91v-.88h1.09v.88H170v-.88h1.12v.88h3.57v2.48h-3.57v1h4.56s0,.24,0,.38c-.1.86-.19,1.33-.42,1.54a1.14,1.14,0,0,1-.77.29l-.42,0v5.7Zm-7.11-8.88q-.07.5-.14,1h2.11a2.83,2.83,0,0,0,.24-1Zm8.66,3.65h-8v1h8Zm0,1.73h-8v1h8Zm-8,2.74h8v-1h-8Zm2.16-6.37a3.34,3.34,0,0,1-1.14,1.14H173a1.77,1.77,0,0,0-.19-.51c.48,0,.91.06,1.09.06s.29,0,.37-.11a1,1,0,0,0,.19-.58h-3.38v1.1H170v-1.1Zm3-1.74h-2.5a3.77,3.77,0,0,1-.16,1H170Zm-2.47-.78H170v-.91h-2.47Zm3.59-.91v.91h2.48v-.91Z"/><path class="cls-2" d="M263.46,28.35c.27,0,.34-.22.37-1.82a4.87,4.87,0,0,0,1.73.77c-.19,2.28-.68,2.91-1.87,2.91h-1.14c-1.55,0-1.87-.61-1.87-2.36v-3.4h-.78c-.26,2.69-.87,4.79-3.64,6a5.83,5.83,0,0,0-1-1.41v.37H252v.71h-1.73V24.29h5v4.56c2.11-.92,2.5-2.45,2.65-4.4h-1.1V19.83c-.19.19-.39.37-.58.54a12.59,12.59,0,0,0-1.43-1.43l.07-.05h-5.32V17.3h2.55a15.25,15.25,0,0,0-.82-2.14l1.7-.53a12.28,12.28,0,0,1,.94,2.19l-1.31.48h3v.94A11.7,11.7,0,0,0,258,14.72l1.87.58A17.39,17.39,0,0,1,257.53,19h5.83a31.74,31.74,0,0,0-2.79-3.54l1.41-1a27.65,27.65,0,0,1,3.6,4.5l-1.53,1.1c-.1-.19-.2-.37-.34-.58v4.86h-1.07V27.8c0,.49,0,.54.27.54ZM255,21.19h-4.79V19.66H255Zm-4.79.75H255v1.53h-4.79Zm3.35,4H252v1.9h1.65Zm5.12-3.21h3V20.8h-3Z"/><path class="cls-2" d="M269.93,25.8v1.46h-1.87V15.41h5.66V25.8Zm0-8.55v2.41h1.92V17.25ZM271.85,24v-2.5h-1.92V24ZM282.66,28c0,1.07-.22,1.6-.88,1.94a7.6,7.6,0,0,1-3.08.37,6.9,6.9,0,0,0-.7-2c.92.05,1.94,0,2.23,0s.43-.1.43-.39V25H277a9,9,0,0,1-2.92,5.42,6.72,6.72,0,0,0-1.55-1.31c2.57-2.11,2.79-5.29,2.79-7.84V15.17h7.34Zm-2-4.83V21H277.3v.27c0,.59,0,1.24-.07,1.9ZM277.3,17v2.18h3.35V17Z"/><rect class="cls-4" x="1" y="3.45" width="506.76" height="200.34"/><line class="cls-4" x1="1" y1="82.95" x2="507.76" y2="82.95"/><line class="cls-4" x1="1" y1="163.78" x2="507.76" y2="163.78"/><line class="cls-4" x1="1" y1="122.45" x2="507.76" y2="122.45"/><line class="cls-4" x1="68.73" y1="3.45" x2="68.73" y2="203.78"/><line class="cls-4" x1="235.73" y1="3.45" x2="235.73" y2="203.78"/></svg>