<svg xmlns="http://www.w3.org/2000/svg" viewBox="0 0 508.76 326.56"><defs><style>.cls-1{fill:#ff9947;}.cls-1,.cls-4{stroke:#e0e0e0;stroke-miterlimit:10;stroke-width:2px;}.cls-2{fill:#001f2e;}.cls-3{fill:#e0e0e0;}.cls-4{fill:none;}</style></defs><title>budget</title><g id="預算表"><rect class="cls-1" x="1" y="3.45" width="506.76" height="36"/><path class="cls-2" d="M20.84,21.26V23h5.42v1.82H23.58l1.7.61c-.59,1-1.26,2-1.79,2.7h3.66V30H12.45V28.16h3.35a14.09,14.09,0,0,0-1.41-2.75l1.34-.56H13.26V23h5.41V21.26H15.22v-.83q-1.07.51-2.19.92a7.31,7.31,0,0,0-1.34-1.87c3.2-.92,6.25-2.63,7.87-5.17l1.92.87-.48.68a18.84,18.84,0,0,0,7,3.62,9.83,9.83,0,0,0-1.39,1.77,22.33,22.33,0,0,1-2.31-1v1ZM16.1,24.85a11.62,11.62,0,0,1,1.48,2.7l-1.39.61h2.48V24.85Zm6.66-5.44a19.5,19.5,0,0,1-2.94-2.21,15.16,15.16,0,0,1-2.75,2.21Zm-1.92,5.44v3.31H23l-1.14-.48a15.59,15.59,0,0,0,1.5-2.84Z"/><path class="cls-2" d="M36.69,25.12h.05v5.24H35v-.42H32.76v.44H31.08V25.46c-.2.08-.41.17-.61.24a6.94,6.94,0,0,0-1-1.6,11.2,11.2,0,0,0,2.94-1.31l-.88-.53,1.12-1.17,1.12.61a6,6,0,0,0,1-1.12H32.69a7.62,7.62,0,0,1-1.87,1.9,4.35,4.35,0,0,0-1-1.33A5.91,5.91,0,0,0,32.28,18l1.53.31a7,7,0,0,1-.29.76h2.14L36,19l0,0V17.76H31.4v1.46H29.94V16.16h3c-.12-.37-.25-.76-.37-1.07l1.61-.56c.2.49.44,1.1.65,1.63h2.72v3.06H36.21l.73.53a9.53,9.53,0,0,1-1.68,2.79c.92.53,1.82,1.07,2.4,1.48Zm-.58,0c-.56-.41-1.31-.88-2.11-1.38a11.08,11.08,0,0,1-2.16,1.38ZM35,28.37V26.68H32.76v1.68Zm8-1.36a19.3,19.3,0,0,1,2.77,2l-1.16,1.38a20.44,20.44,0,0,0-2.82-2.23l1-1.14H40.21l1.21,1.26a21,21,0,0,1-3.65,2.19A9.82,9.82,0,0,0,36.93,29a15.91,15.91,0,0,0,3.21-2H38.3V18h2.16c.07-.37.14-.78.19-1.17H37.88v-1.7h7.6v1.7h-3c-.1.41-.24.82-.36,1.17h2.92v9ZM40.1,20.58h3v-1h-3Zm0,2.45h3V22h-3Zm0,2.43h3v-1h-3Z"/><path class="cls-2" d="M86.42,25.15c-2.06.78-4.27,1.58-6,2.19l-.83-1.94,2.35-.7V18.18H80.08V16.31h5.81v1.87H84v5.9l2.09-.68ZM88.66,27l1.56,1.1a15.75,15.75,0,0,1-4.4,2.23A10,10,0,0,0,84.6,29a13.68,13.68,0,0,0,3.93-2H86.81V18h2.67c.08-.39.15-.8.22-1.17H86.11v-1.7h9.62v1.7H92c-.14.41-.29.8-.43,1.17h3.55v9Zm0-6.41h4.45V19.54H88.68Zm0,2.45h4.45V22H88.68Zm0,2.48h4.45V24.46H88.68Zm4,1.53A25.11,25.11,0,0,1,96,29.2l-1.6,1.19a24.35,24.35,0,0,0-3.28-2.24Z"/><path class="cls-2" d="M111.6,15.41V30.18h-2.14V29.13h-7.87v1.05h-2V15.41Zm-10,2v2h7.87v-2Zm0,3.86v2h7.87v-2Zm7.87,5.92v-2h-7.87v2Z"/><path class="cls-3" d="M83,63.55v4.56c0,.67-.14,1-.53,1.2a4.29,4.29,0,0,1-1.92.26,5.81,5.81,0,0,0-.35-1.18l1.39,0c.21,0,.27-.06.27-.27V64c-.62.22-1.2.43-1.74.61l-.3-1.14c.58-.18,1.28-.42,2-.67V59.31H80V58.2h1.89V55H83v3.2h1.62v1.1H83v3.07l1.5-.53.19,1.07Zm6.75,2.24c-.62,1.9-2,3.15-5.09,3.84a3.64,3.64,0,0,0-.59-.93c2.69-.54,3.91-1.47,4.5-2.91h-4v-1h1.34v-5c-.14.14-.3.29-.45.42a3.64,3.64,0,0,0-.72-.77A11.16,11.16,0,0,0,87.83,55l1.1.16c-.13.35-.29.69-.46,1.06h2.45l.18,0,.7.46a15.2,15.2,0,0,1-1.23,2.14h3v6h1v1Zm-1.84-8.6a12.49,12.49,0,0,1-1.07,1.58h2.54a11.49,11.49,0,0,0,.94-1.58Zm.94,7.62a11,11,0,0,0,.24-1.58h1.15a14.69,14.69,0,0,1-.22,1.58H92.5v-5H89.72l.75.19a6.86,6.86,0,0,1-.42.83,14.17,14.17,0,0,1,2.38,1.74l-.58.66a13.34,13.34,0,0,0-2.24-1.71,8.7,8.7,0,0,1-1.73,1.78,4.49,4.49,0,0,0-.77-.56,6.84,6.84,0,0,0,2.4-2.93H86.9v5Zm2,1.18a45.11,45.11,0,0,1,3.78,2.9l-.77.75a47,47,0,0,0-3.73-3Z"/><path class="cls-3" d="M109.08,58.54V57.11h-3.83V58.6c0,.35,0,.48.45.48h2.39a8.3,8.3,0,0,0,1.3-.08,4.4,4.4,0,0,0,.1.82,6,6,0,0,1-1.31.08h-2.74c-1.12,0-1.34-.42-1.34-1.31V57.11h-2c-.38,1.89-1.5,2.79-4.9,3.25a2.93,2.93,0,0,0-.54-.91c3-.32,3.94-.94,4.26-2.34H97.6v1.54H96.45v-2.5h6.34c-.11-.35-.26-.7-.38-1l1.2-.19c.18.35.37.82.51,1.2h6.15v2.39ZM103.4,59.6a13,13,0,0,1-.86,1.17h6.26V69.6h-1.17V69H99.06v.67H97.92V60.76h3.39c.32-.46.67-1,.88-1.39Zm4.23,2.16H99.06V68h8.56ZM106.2,67.6a13.31,13.31,0,0,0-1.86-1.67,21.29,21.29,0,0,1-4,1.94,2.86,2.86,0,0,0-.7-.75,18,18,0,0,0,3.94-1.79l-1.26-.88a18.31,18.31,0,0,1-2.1,1,2.75,2.75,0,0,0-.72-.7,11.55,11.55,0,0,0,2-.85c-.51-.3-1-.62-1.52-.9l.7-.56c.54.3,1.1.61,1.68,1a9.25,9.25,0,0,0,1.58-1.26l1.12.21a10.91,10.91,0,0,1-1.89,1.57l1.28.86A8.4,8.4,0,0,0,106.31,63l1.14.24a12.32,12.32,0,0,1-2.29,2.13A17.74,17.74,0,0,1,107,66.93Z"/><path class="cls-3" d="M114.27,63c0,2-.22,4.77-1.54,6.64a3.71,3.71,0,0,0-.88-.7c1.2-1.71,1.33-4.11,1.33-6V58.68H119a8.6,8.6,0,0,0-.61-.88l.93-.37A7.28,7.28,0,0,0,121.12,55l1.06.29a4.92,4.92,0,0,1-.46.91h4.72V57h-2.88a8.47,8.47,0,0,1,1.07,1.14l-.83.54h2.34v.82H114.27Zm0-6a10.77,10.77,0,0,1-1.47,1.49,7.48,7.48,0,0,0-.83-.72,8.35,8.35,0,0,0,2.43-2.8l1,.29a6.55,6.55,0,0,1-.53.9h4.24V57h-2.69a4.87,4.87,0,0,1,.9,1l-.88.53a5.68,5.68,0,0,0-.94-1.07l.74-.42Zm10.64,9.36h-2.53a10.72,10.72,0,0,0,4,2.34,3.65,3.65,0,0,0-.69.8A11.64,11.64,0,0,1,121.84,67V69.6h-1V66.35h-1.92V69.6h-1V67a10.3,10.3,0,0,1-3.23,2.48,3.33,3.33,0,0,0-.67-.75,9.44,9.44,0,0,0,3.44-2.35h-2.18V65.6h2.64v-.86h-3.23V64h3.23v-.86h-2.53v-.74h2.53v-.82h-3.11v-.74h2.74a9,9,0,0,0-.69-.83l.88-.43a7.51,7.51,0,0,1,1,1.26H121a12.32,12.32,0,0,0,1-1.31l1.15.35a10.33,10.33,0,0,1-.9,1h3.43v.74h-3.79v.82h3V64h1.6v.75h-1.6Zm-6-4h1.92v-.82h-1.92Zm0,1.6h1.92v-.86h-1.92Zm1.92,1.62v-.86h-1.92v.86Zm.37-8.6a11.63,11.63,0,0,1-.94,1.1,6.45,6.45,0,0,0-.74-.51,6.74,6.74,0,0,1,.72,1.09h3.54a10.2,10.2,0,0,0-1.07-1.26l.72-.42Zm.67,6.11V64h2v-.86Zm2,2.48v-.86h-2v.86Z"/><path class="cls-3" d="M12.45,60.08V58.47A10.44,10.44,0,0,0,14,58.32a2.2,2.2,0,0,0,1.16-.63,2.08,2.08,0,0,0,.46-.86,2,2,0,0,0,.09-.48h2v12H15.28v-8.3Z"/><path class="cls-3" d="M22.56,70.35a1.85,1.85,0,0,0,1-.66,2.45,2.45,0,0,0,.39-1.3H22.56V65.9h2.56V68A5,5,0,0,1,25,69.23a2.4,2.4,0,0,1-.56,1.06,2.87,2.87,0,0,1-1,.73,2.68,2.68,0,0,1-.82.24Z"/><path class="cls-3" d="M30,65.16a2.29,2.29,0,0,0,.54,1.19,1.52,1.52,0,0,0,1.16.42A1.56,1.56,0,0,0,33,66.15a2.54,2.54,0,0,0,.46-1.56A2.71,2.71,0,0,0,33,63a1.51,1.51,0,0,0-1.34-.63,2.31,2.31,0,0,0-.75.11,1.48,1.48,0,0,0-.84.74L28,63.15l.84-6.65h6.62v2H30.53l-.43,2.63a5,5,0,0,1,.85-.47,3.61,3.61,0,0,1,1.25-.19,3.63,3.63,0,0,1,3.71,3.93,4.59,4.59,0,0,1-1.07,3,3.89,3.89,0,0,1-3.2,1.31,4.25,4.25,0,0,1-2.82-.92,3.58,3.58,0,0,1-1.23-2.61Z"/><path class="cls-3" d="M45.36,57.88a9.36,9.36,0,0,1,.93,4.6,9.31,9.31,0,0,1-.93,4.59,3.4,3.4,0,0,1-3.22,1.61,3.4,3.4,0,0,1-3.22-1.61A9.31,9.31,0,0,1,38,62.48a9.36,9.36,0,0,1,.93-4.6,3.4,3.4,0,0,1,3.22-1.62A3.4,3.4,0,0,1,45.36,57.88Zm-4.62,7.77a1.37,1.37,0,0,0,1.39,1.1,1.35,1.35,0,0,0,1.38-1.1,11.74,11.74,0,0,0,.33-3.18,11.61,11.61,0,0,0-.33-3.22,1.34,1.34,0,0,0-1.38-1,1.36,1.36,0,0,0-1.39,1,11.21,11.21,0,0,0-.34,3.22A11.33,11.33,0,0,0,40.74,65.66Z"/><path class="cls-3" d="M55.67,57.88a9.36,9.36,0,0,1,.93,4.6,9.31,9.31,0,0,1-.93,4.59,3.4,3.4,0,0,1-3.22,1.61,3.4,3.4,0,0,1-3.22-1.61,9.31,9.31,0,0,1-.93-4.59,9.36,9.36,0,0,1,.93-4.6,3.4,3.4,0,0,1,3.22-1.62A3.4,3.4,0,0,1,55.67,57.88ZM51,65.66a1.37,1.37,0,0,0,1.39,1.1,1.35,1.35,0,0,0,1.38-1.1,11.74,11.74,0,0,0,.33-3.18,11.61,11.61,0,0,0-.33-3.22,1.34,1.34,0,0,0-1.38-1,1.36,1.36,0,0,0-1.39,1,11.21,11.21,0,0,0-.34,3.22A11.33,11.33,0,0,0,51,65.66Z"/><path class="cls-3" d="M14,106.2a2.71,2.71,0,0,0,.23,1.2,1.59,1.59,0,0,0,1.56.87,1.73,1.73,0,0,0,1.21-.48,1.78,1.78,0,0,0,.52-1.37,1.55,1.55,0,0,0-1-1.58,4.86,4.86,0,0,0-1.72-.22v-1.69a4.46,4.46,0,0,0,1.6-.22,1.39,1.39,0,0,0,.79-1.41,1.58,1.58,0,0,0-.4-1.12,1.47,1.47,0,0,0-1.13-.43,1.43,1.43,0,0,0-1.23.53,2.26,2.26,0,0,0-.38,1.42H11.94a6,6,0,0,1,.31-1.7,3.84,3.84,0,0,1,.91-1.3,3.18,3.18,0,0,1,1.1-.65,4.76,4.76,0,0,1,1.57-.22,4.17,4.17,0,0,1,2.78.89,3,3,0,0,1,1.06,2.39,2.65,2.65,0,0,1-.63,1.79,2.16,2.16,0,0,1-.83.62,1.71,1.71,0,0,1,.93.56,3,3,0,0,1,.9,2.29A3.86,3.86,0,0,1,19,109a4,4,0,0,1-3.13,1.16,3.79,3.79,0,0,1-3.55-1.67,5,5,0,0,1-.58-2.32Z"/><path class="cls-3" d="M22.56,111.86a1.85,1.85,0,0,0,1-.66,2.44,2.44,0,0,0,.39-1.3H22.56v-2.48h2.56v2.15a5,5,0,0,1-.15,1.18,2.4,2.4,0,0,1-.56,1.06,2.88,2.88,0,0,1-1,.73,2.67,2.67,0,0,1-.82.24Z"/><path class="cls-3" d="M35.06,99.39a11.86,11.86,0,0,1,0,9.19,3.41,3.41,0,0,1-3.22,1.61,3.41,3.41,0,0,1-3.22-1.61,11.86,11.86,0,0,1,0-9.19,3.4,3.4,0,0,1,3.22-1.62A3.4,3.4,0,0,1,35.06,99.39Zm-4.62,7.77a1.37,1.37,0,0,0,1.39,1.1,1.35,1.35,0,0,0,1.38-1.1,11.74,11.74,0,0,0,.33-3.18,11.61,11.61,0,0,0-.33-3.22,1.34,1.34,0,0,0-1.38-1,1.36,1.36,0,0,0-1.39,1A11.21,11.21,0,0,0,30.1,104,11.34,11.34,0,0,0,30.44,107.17Z"/><path class="cls-3" d="M45.36,99.39a11.86,11.86,0,0,1,0,9.19,3.41,3.41,0,0,1-3.22,1.61,3.41,3.41,0,0,1-3.22-1.61,11.86,11.86,0,0,1,0-9.19,3.4,3.4,0,0,1,3.22-1.62A3.4,3.4,0,0,1,45.36,99.39Zm-4.62,7.77a1.37,1.37,0,0,0,1.39,1.1,1.35,1.35,0,0,0,1.38-1.1,11.74,11.74,0,0,0,.33-3.18,11.61,11.61,0,0,0-.33-3.22,1.34,1.34,0,0,0-1.38-1,1.36,1.36,0,0,0-1.39,1A11.21,11.21,0,0,0,40.4,104,11.34,11.34,0,0,0,40.74,107.17Z"/><path class="cls-3" d="M55.67,99.39a11.86,11.86,0,0,1,0,9.19,3.41,3.41,0,0,1-3.22,1.61,3.41,3.41,0,0,1-3.22-1.61,11.86,11.86,0,0,1,0-9.19,3.4,3.4,0,0,1,3.22-1.62A3.4,3.4,0,0,1,55.67,99.39ZM51,107.17a1.37,1.37,0,0,0,1.39,1.1,1.35,1.35,0,0,0,1.38-1.1,11.74,11.74,0,0,0,.33-3.18,11.61,11.61,0,0,0-.33-3.22,1.34,1.34,0,0,0-1.38-1,1.36,1.36,0,0,0-1.39,1,11.21,11.21,0,0,0-.34,3.22A11.34,11.34,0,0,0,51,107.17Z"/><path class="cls-3" d="M28.9,144.05a2.91,2.91,0,0,1,1.34-1.24,2.81,2.81,0,0,1-1.14-1.26,3.51,3.51,0,0,1-.26-1.27,3,3,0,0,1,1-2.24,3.94,3.94,0,0,1,2.8-.93,3.94,3.94,0,0,1,2.79.93,3,3,0,0,1,1,2.24,3.51,3.51,0,0,1-.26,1.27A2.41,2.41,0,0,1,35,142.73a3.35,3.35,0,0,1,1.34,1.32,3.76,3.76,0,0,1,.45,1.83,3.43,3.43,0,0,1-1.13,2.59,4.39,4.39,0,0,1-3.15,1.07,4.08,4.08,0,0,1-3.06-1.07,3.57,3.57,0,0,1-1-2.59A3.7,3.7,0,0,1,28.9,144.05Zm2.46,3.05a1.9,1.9,0,0,0,2.55,0,2.31,2.31,0,0,0,0-2.78,1.92,1.92,0,0,0-2.53,0,2.31,2.31,0,0,0,0,2.78Zm.15-5.48a1.49,1.49,0,0,0,1.12.42,1.47,1.47,0,0,0,1.12-.42,1.49,1.49,0,0,0,.4-1.07,1.52,1.52,0,0,0-.4-1.12,1.5,1.5,0,0,0-1.12-.4,1.4,1.4,0,0,0-1.52,1.52A1.47,1.47,0,0,0,31.51,141.63Z"/><path class="cls-3" d="M46.2,138.72a11.86,11.86,0,0,1,0,9.19A3.4,3.4,0,0,1,43,149.52a3.4,3.4,0,0,1-3.22-1.61,11.86,11.86,0,0,1,0-9.19A3.4,3.4,0,0,1,43,137.11,3.4,3.4,0,0,1,46.2,138.72Zm-4.62,7.77A1.37,1.37,0,0,0,43,147.6a1.35,1.35,0,0,0,1.38-1.1,11.74,11.74,0,0,0,.33-3.18,11.61,11.61,0,0,0-.33-3.22,1.34,1.34,0,0,0-1.38-1,1.36,1.36,0,0,0-1.39,1,11.21,11.21,0,0,0-.34,3.22A11.33,11.33,0,0,0,41.58,146.5Z"/><path class="cls-3" d="M56.51,138.72a11.86,11.86,0,0,1,0,9.19,3.4,3.4,0,0,1-3.22,1.61,3.4,3.4,0,0,1-3.22-1.61,11.86,11.86,0,0,1,0-9.19,3.4,3.4,0,0,1,3.22-1.62A3.4,3.4,0,0,1,56.51,138.72Zm-4.62,7.77a1.37,1.37,0,0,0,1.39,1.1,1.35,1.35,0,0,0,1.38-1.1,11.74,11.74,0,0,0,.33-3.18,11.61,11.61,0,0,0-.33-3.22,1.34,1.34,0,0,0-1.38-1,1.36,1.36,0,0,0-1.39,1,11.21,11.21,0,0,0-.34,3.22A11.33,11.33,0,0,0,51.89,146.5Z"/><path class="cls-3" d="M29.08,187.86a6.69,6.69,0,0,1,2.39-2.55,17.52,17.52,0,0,0,2.12-1.68,2.48,2.48,0,0,0,.74-1.73,1.91,1.91,0,0,0-.42-1.27,1.73,1.73,0,0,0-2.68.3,4,4,0,0,0-.27,1.48h-2.3a5.8,5.8,0,0,1,.56-2.48,3.47,3.47,0,0,1,3.37-1.8,4.27,4.27,0,0,1,3,1.06,3.66,3.66,0,0,1,1.13,2.8,3.79,3.79,0,0,1-.8,2.37,8,8,0,0,1-1.72,1.54l-.95.67q-.89.63-1.22.91a2.68,2.68,0,0,0-.55.66h5.25v2.08H28.52A5.65,5.65,0,0,1,29.08,187.86Z"/><path class="cls-3" d="M39.2,185.05a2.91,2.91,0,0,1,1.34-1.24,2.81,2.81,0,0,1-1.14-1.26,3.51,3.51,0,0,1-.26-1.27,3,3,0,0,1,1-2.24,3.94,3.94,0,0,1,2.8-.93,3.94,3.94,0,0,1,2.79.93,3,3,0,0,1,1,2.24,3.51,3.51,0,0,1-.26,1.27,2.41,2.41,0,0,1-1.13,1.17,3.35,3.35,0,0,1,1.34,1.32,3.76,3.76,0,0,1,.45,1.83A3.43,3.43,0,0,1,46,189.47a4.39,4.39,0,0,1-3.15,1.07,4.08,4.08,0,0,1-3.06-1.07,3.57,3.57,0,0,1-1-2.59A3.7,3.7,0,0,1,39.2,185.05Zm2.46,3.05a1.9,1.9,0,0,0,2.55,0,2.31,2.31,0,0,0,0-2.78,1.92,1.92,0,0,0-2.53,0,2.31,2.31,0,0,0,0,2.78Zm.15-5.48a1.49,1.49,0,0,0,1.12.42,1.47,1.47,0,0,0,1.12-.42,1.49,1.49,0,0,0,.4-1.07,1.52,1.52,0,0,0-.4-1.12,1.5,1.5,0,0,0-1.12-.4,1.4,1.4,0,0,0-1.52,1.52A1.47,1.47,0,0,0,41.81,182.63Z"/><path class="cls-3" d="M56.51,179.72a11.86,11.86,0,0,1,0,9.19,3.4,3.4,0,0,1-3.22,1.61,3.4,3.4,0,0,1-3.22-1.61,11.86,11.86,0,0,1,0-9.19,3.4,3.4,0,0,1,3.22-1.62A3.4,3.4,0,0,1,56.51,179.72Zm-4.62,7.77a1.37,1.37,0,0,0,1.39,1.1,1.35,1.35,0,0,0,1.38-1.1,11.74,11.74,0,0,0,.33-3.18,11.61,11.61,0,0,0-.33-3.22,1.34,1.34,0,0,0-1.38-1,1.36,1.36,0,0,0-1.39,1,11.21,11.21,0,0,0-.34,3.22A11.33,11.33,0,0,0,51.89,187.5Z"/><path class="cls-3" d="M82.8,107.72a10.61,10.61,0,0,1-2,3.41,7.15,7.15,0,0,0-.94-.69,7.44,7.44,0,0,0,1.81-3Zm3.07-.62H80.69v-10h5.19Zm-1.14-9h-3v2h3Zm0,3h-3v2h3Zm0,3h-3v2.08h3Zm0,3.36a12.61,12.61,0,0,1,1.58,2.51l-1,.51a12.47,12.47,0,0,0-1.52-2.59Zm6-6.34v3.07h3.09V111H92.66v-.69H88.07v.75H86.95v-7h2.61V96.51h1.17V100h3.86v1.09Zm1.94,4.13H88.07v4.08h4.59Z"/><path class="cls-3" d="M99.19,105.94l1.76-.75.24,1.06c-1.68.78-3.47,1.58-4.87,2.21l-.46-1.18c.61-.21,1.38-.53,2.21-.88v-4.93H96.14v-1.14h1.92V96.69h1.12v3.63h1.73v1.14H99.19Zm9.19,3.75c.93,0,1.09-.43,1.2-2.27a2.74,2.74,0,0,0,1.07.45c-.19,2.19-.56,2.9-2.23,2.9h-3.94c-1.81,0-2.35-.43-2.35-2.16v-5l-1.26.53-.46-1,1.73-.72V98h1.14v3.86l2.14-.9V96.49h1.14v4l2.43-1,.91.3-.06.19a57,57,0,0,1-.83,7l-1-.29a56.94,56.94,0,0,0,.61-5.84l-2.08.88v5.87h-1.14v-5.39l-2.14.91v5.52c0,.86.21,1.07,1.25,1.07Z"/><path class="cls-3" d="M117.12,106.12a26.33,26.33,0,0,0-1.46-2.31v7.28h-1.14v-7.55a16.64,16.64,0,0,1-2.14,4.59,6.4,6.4,0,0,0-.61-1.07,17.62,17.62,0,0,0,2.61-6h-2.24v-1.1h2.38V96.49h1.14v3.42h2.06V101h-2.06v1.39c.5.56,1.87,2.32,2.19,2.75Zm9-4.35a14.36,14.36,0,0,1-2.59,6.13,8.58,8.58,0,0,0,3.17,2.26,5.34,5.34,0,0,0-.8,1,9.21,9.21,0,0,1-3.1-2.38,10.82,10.82,0,0,1-3.19,2.34,4.05,4.05,0,0,0-.74-.94,9.12,9.12,0,0,0,3.2-2.29,16.65,16.65,0,0,1-2.34-5.2h-.08c-.06,2.63-.43,6.07-2.21,8.4a4.53,4.53,0,0,0-.94-.7c1.82-2.45,2-5.89,2-8.42V97.47h7.8v1.1H119.7v3h5.54l.21,0Zm-5.33.9a14.2,14.2,0,0,0,2,4.31,12.43,12.43,0,0,0,2-4.31Z"/><path class="cls-3" d="M83,144.39V149c0,.67-.14,1-.53,1.2a4.29,4.29,0,0,1-1.92.26,5.81,5.81,0,0,0-.35-1.18l1.39,0c.21,0,.27-.06.27-.27v-4.16c-.62.22-1.2.43-1.74.61l-.3-1.14c.58-.18,1.28-.42,2-.67v-3.46H80V139h1.89v-3.2H83V139h1.62v1.1H83v3.07l1.5-.53.19,1.07Zm6.75,2.24c-.62,1.9-2,3.15-5.09,3.84a3.64,3.64,0,0,0-.59-.93c2.69-.54,3.91-1.47,4.5-2.91h-4v-1h1.34v-5c-.14.14-.3.29-.45.42a3.64,3.64,0,0,0-.72-.77,11.16,11.16,0,0,0,3.09-4.5l1.1.16c-.13.35-.29.69-.46,1.06h2.45l.18,0,.7.46a15.2,15.2,0,0,1-1.23,2.14h3v6h1v1ZM87.94,138a12.49,12.49,0,0,1-1.07,1.58h2.54a11.49,11.49,0,0,0,.94-1.58Zm.94,7.62a11,11,0,0,0,.24-1.58h1.15a14.69,14.69,0,0,1-.22,1.58H92.5v-5H89.72l.75.19a6.86,6.86,0,0,1-.42.83,14.17,14.17,0,0,1,2.38,1.74l-.58.66a13.34,13.34,0,0,0-2.24-1.71,8.7,8.7,0,0,1-1.73,1.78,4.49,4.49,0,0,0-.77-.56,6.84,6.84,0,0,0,2.4-2.93H86.9v5Zm2,1.18a45.11,45.11,0,0,1,3.78,2.9l-.77.75a47,47,0,0,0-3.73-3Z"/><path class="cls-3" d="M96.75,143c-.14-1-.5-2.82-.85-4.18l.83-.21a38.07,38.07,0,0,1,.91,4.11Zm3.44,5.52a24.84,24.84,0,0,0-1.54-2.38,10,10,0,0,1-1.94,4.27,4.1,4.1,0,0,0-.75-.74c1.87-2.38,2.08-5.36,2.08-8.26v-5.46h1v5.46a26.73,26.73,0,0,1-.18,3.41c.4.48,1.82,2.4,2.18,2.86Zm.74-9.54c-.29,1.2-.61,2.71-.91,3.65l-.67-.29a28.29,28.29,0,0,0,.7-3.68Zm9.64,0a20.09,20.09,0,0,1-1.84,1.2,7.74,7.74,0,0,0,2,1.71,3,3,0,0,0-.75.91,8.37,8.37,0,0,1-2.45-2.42v.93h-4.1v-.77a8.06,8.06,0,0,1-2.43,2.4,3.88,3.88,0,0,0-.69-.86,6.86,6.86,0,0,0,2.15-2,16.08,16.08,0,0,0-1.52-1.18l.62-.74c.46.3,1,.7,1.46,1.06a10.15,10.15,0,0,0,.75-1.7h-2.37v-1h2.79l.21,0,.67.26a11.24,11.24,0,0,1-1.47,3.63h3.89a14,14,0,0,1-1.76-4.18l1-.21a13.14,13.14,0,0,0,.56,1.7,15.31,15.31,0,0,0,1.34-1.23l.77.75a20.68,20.68,0,0,1-1.74,1.31,6.82,6.82,0,0,0,.58,1,18.4,18.4,0,0,0,1.57-1.28Zm-2.08,7.57c-.37.78-.82,1.66-1.2,2.37h3.1v1h-9.76v-1h5.44a16.62,16.62,0,0,0,1.22-2.74ZM109,146h-6.83v-3.67H109Zm-5.28.24a7.29,7.29,0,0,1,.88,2.29l-1.06.35a8.43,8.43,0,0,0-.82-2.35Zm4.15-2.93h-4.63v1.73h4.63Z"/><path class="cls-3" d="M83,184a17.16,17.16,0,0,0-3-1.74l.66-.88a19.15,19.15,0,0,1,3,1.62Zm-2.46,6.42a44.37,44.37,0,0,0,2.63-4.5l.88.74c-.74,1.49-1.66,3.22-2.46,4.53Zm1-13.4a16.43,16.43,0,0,1,3.09,1.71l-.69,1a20,20,0,0,0-3.07-1.83ZM94,180.17v11.14H92.81v-.85H86.27v.94H85.14V180.17H88.9v-3.31h1.17v3.31Zm-7.68,1.14v3.38H88.9v-3.38Zm0,8H88.9v-3.51H86.27Zm3.79-8v3.38h2.74v-3.38Zm2.74,8v-3.51H90.07v3.51Z"/><path class="cls-3" d="M98.53,183.73a10.84,10.84,0,0,0-2.61-1.58l.66-.88a9.5,9.5,0,0,1,2.63,1.49Zm-2.24,6.74a47.71,47.71,0,0,0,2.51-5.17l.93.72c-.69,1.66-1.62,3.68-2.4,5.17Zm3-10.93a10.62,10.62,0,0,0-2.56-1.7l.67-.88a11.08,11.08,0,0,1,2.59,1.62Zm6.32,2.4h-1.12v-2.06a12.25,12.25,0,0,1-4.08,2.93,5.18,5.18,0,0,0-.75-.91,11.34,11.34,0,0,0,4-2.46h-3.28v-1h4.11v-1.58h1.12v1.58h4.63v1h-3.75a35,35,0,0,1,3.78,2.51l-.72.72a31.07,31.07,0,0,0-3.94-2.72Zm0,.32c-.06.11-.14.21-.21.32a13.52,13.52,0,0,0,5.12,2.61,2.5,2.5,0,0,0-.69.9,14.6,14.6,0,0,1-5-2.82,11.29,11.29,0,0,1-4.45,2.82,3.35,3.35,0,0,0-.62-.82,9.47,9.47,0,0,0,4.91-3.33Zm3.2,3.91a15.5,15.5,0,0,1-2,1.84,18.43,18.43,0,0,1,2.88,2l-.67.75a23.13,23.13,0,0,0-3.41-2.43v1.9c0,.56-.11.82-.51,1a6.17,6.17,0,0,1-2,.18,3.36,3.36,0,0,0-.32-.93c.7,0,1.33,0,1.5,0s.26-.06.26-.24v-1.78c-1.38.72-2.77,1.44-3.91,2l-.45-.91c1.09-.46,2.74-1.26,4.35-2.06v-2.75h1.09v2.63l.43.24a14.72,14.72,0,0,0,1.94-1.92ZM103,188a6.94,6.94,0,0,0-1.52-1.87l.75-.48a6.58,6.58,0,0,1,1.58,1.82Z"/><path class="cls-3" d="M29.17,221.26v-1.61a10.44,10.44,0,0,0,1.56-.15,2.2,2.2,0,0,0,1.16-.63,2.08,2.08,0,0,0,.46-.86,2,2,0,0,0,.09-.48h2v12H32v-8.3Z"/><path class="cls-3" d="M44.53,220.55a1.21,1.21,0,0,0-.22-.64,1.3,1.3,0,0,0-1.15-.56,1.71,1.71,0,0,0-1.64,1.29,8,8,0,0,0-.37,2.11,2.66,2.66,0,0,1,1-.76,3.74,3.74,0,0,1,4,.85,3.89,3.89,0,0,1,1,2.78,4.69,4.69,0,0,1-1,3A3.71,3.71,0,0,1,43,229.87a3.59,3.59,0,0,1-3.35-1.9,7.75,7.75,0,0,1-.84-3.83,17.41,17.41,0,0,1,.12-2.24,6.85,6.85,0,0,1,.81-2.56,4.12,4.12,0,0,1,1.35-1.4,3.64,3.64,0,0,1,2-.53,4,4,0,0,1,2.67.86,3.27,3.27,0,0,1,1.12,2.29Zm-2.81,6.78a1.67,1.67,0,0,0,1.33.61,1.47,1.47,0,0,0,1.24-.59,2.47,2.47,0,0,0,.45-1.54,2.31,2.31,0,0,0-.51-1.61,1.65,1.65,0,0,0-1.26-.56,1.68,1.68,0,0,0-1.07.37,2.07,2.07,0,0,0-.7,1.74A2.36,2.36,0,0,0,41.73,227.33Z"/><path class="cls-3" d="M50.22,218.62a4.12,4.12,0,0,1,6.67,1.23,9.47,9.47,0,0,1,.58,3.63,10.33,10.33,0,0,1-.56,3.64,3.89,3.89,0,0,1-3.9,2.78,4,4,0,0,1-2.43-.8,3.16,3.16,0,0,1-1.24-2.34h2.36a1.42,1.42,0,0,0,.45.86,1.39,1.39,0,0,0,1,.33,1.69,1.69,0,0,0,1.64-1.29,7.57,7.57,0,0,0,.32-2.08,2.56,2.56,0,0,1-.69.62,3.13,3.13,0,0,1-1.64.4,3.72,3.72,0,0,1-2.55-1,3.63,3.63,0,0,1-1.11-2.86A4.41,4.41,0,0,1,50.22,218.62Zm4,4.78a2,2,0,0,0,.81-1.78,2.52,2.52,0,0,0-.48-1.62,1.58,1.58,0,0,0-1.31-.6,1.62,1.62,0,0,0-1,.34,2.15,2.15,0,0,0-.68,1.8,2.51,2.51,0,0,0,.44,1.61,1.63,1.63,0,0,0,1.34.54A1.65,1.65,0,0,0,54.2,223.4Z"/><path class="cls-3" d="M85.68,228.05a13.38,13.38,0,0,1-4.91,2.26,4,4,0,0,0-.78-.94,13.31,13.31,0,0,0,4.77-1.78Zm8.69-2.26v1H87.83v4H86.64v-4H80.18v-1h6.47v-1.06h1.18v1.06Zm-1.75-1.26H81.92v-5.17H86.5v-3.18h1.2v1.14h6v1h-6v1.07h4.93Zm-1.2-4.26H83.09v1.22h8.34Zm0,2.1H83.09v1.25h8.34Zm-2,5.09a35.78,35.78,0,0,1,4.95,1.89l-.67.88a35.3,35.3,0,0,0-4.91-2Z"/><path class="cls-3" d="M109.53,227c0,.74-.16,1.1-.72,1.3a11.4,11.4,0,0,1-3,.21,4.56,4.56,0,0,0-.46-1.17c1.18,0,2.27,0,2.58,0s.4-.1.4-.37v-6.4h-4.4v10.23h-1.26V220.59H98.45v8H97.22v-9.14h5.44v-3.27h1.26v3.27h5.6Z"/><path class="cls-3" d="M29.17,260.59V259a10.44,10.44,0,0,0,1.56-.15,2.2,2.2,0,0,0,1.16-.63,2.08,2.08,0,0,0,.46-.86,2,2,0,0,0,.09-.48h2v12H32v-8.3Z"/><path class="cls-3" d="M38.55,260.59V259a10.44,10.44,0,0,0,1.56-.15,2.2,2.2,0,0,0,1.16-.63,2.08,2.08,0,0,0,.46-.86,2,2,0,0,0,.09-.48h2v12H41.38v-8.3Z"/><path class="cls-3" d="M55.58,258.39a11.86,11.86,0,0,1,0,9.19,3.4,3.4,0,0,1-3.22,1.61,3.4,3.4,0,0,1-3.22-1.61,11.86,11.86,0,0,1,0-9.19,3.4,3.4,0,0,1,3.22-1.62A3.4,3.4,0,0,1,55.58,258.39ZM51,266.17a1.37,1.37,0,0,0,1.39,1.1,1.35,1.35,0,0,0,1.38-1.1,11.74,11.74,0,0,0,.33-3.18,11.61,11.61,0,0,0-.33-3.22,1.34,1.34,0,0,0-1.38-1,1.36,1.36,0,0,0-1.39,1,11.21,11.21,0,0,0-.34,3.22A11.33,11.33,0,0,0,51,266.17Z"/><path class="cls-3" d="M84.63,265.11a27.9,27.9,0,0,1,.9,3.94l-.86.24c0-.32-.1-.69-.18-1.09-1.55.3-3.12.58-4.37.82l-.18-1.17c.64-.1,1.42-.21,2.27-.35v-3.33h-1V265h-.8v-6.64h1.83v-2.82h1v2.82h1.87v5.78H83.2v3.17l1.07-.19c-.14-.62-.3-1.26-.46-1.82Zm-3.35-5.71v3.76h1V259.4Zm2.9,0h-1.1v3.76h1.1Zm3-.18a13.47,13.47,0,0,0-1.86-1.82,21.87,21.87,0,0,0,1.74-1.86l1,.3a19.27,19.27,0,0,1-1.5,1.52A13.23,13.23,0,0,1,88.24,259l-.64.27h2.51a14.8,14.8,0,0,0-2.06-1.86,19.94,19.94,0,0,0,1.84-1.83l1,.3a19.43,19.43,0,0,1-1.57,1.49A13.11,13.11,0,0,1,91,258.86l-.78.37h2.61a16.65,16.65,0,0,0-2.18-1.86,22.13,22.13,0,0,0,2-1.84l1,.32c-.53.51-1.15,1-1.73,1.5a14.85,14.85,0,0,1,1.89,1.55l-.64.32h.56v4.45h-8v-4.45ZM87,264.86h1.76v.85H87v.94h1.76v.83H87v1.23l1.52-.37a3.93,3.93,0,0,0,.14.82,14,14,0,0,0-2.77,1,3.14,3.14,0,0,0-.32-.94c.22,0,.48-.14.48-.66v-4.48H87ZM92.73,260h-6v2.88h6Zm-.7,2.58c-.56-.29-1.54-.72-2.37-1.06a8.4,8.4,0,0,1-1.94,1.18,4.16,4.16,0,0,0-.69-.56,5.44,5.44,0,0,0,2.77-2l.86.21a3.73,3.73,0,0,1-.43.64,24.32,24.32,0,0,1,2.26.94Zm0,5.63a4.28,4.28,0,0,0,.16.83,13.85,13.85,0,0,0-3.15,1.09,3.69,3.69,0,0,0-.3-.93c.21-.06.46-.16.46-.67V264h.93v.85h1.79v.83H90.15v.94h1.78v.83H90.15v1.22Zm1.18-4.13c0,2.85.19,4.95.51,4.95.13,0,.24-.38.29-1.2a2.69,2.69,0,0,0,.64.46c-.18,1.34-.51,1.79-.88,1.79-1.12,0-1.5-2.71-1.52-6Z"/><path class="cls-3" d="M100.11,268.09c-.29-.51-.88-1.47-1.41-2.24a9.46,9.46,0,0,1-2,4.31,4.63,4.63,0,0,0-.8-.78C97.86,267,98,264,98,261.11v-5.44h1.06v5.44a27.08,27.08,0,0,1-.18,3.44c.48.61,1.68,2.29,2,2.71ZM96.46,263c-.06-1.12-.3-3.07-.54-4.59l.88-.13c.27,1.5.54,3.41.61,4.5Zm4.71-4.55c-.42,1.12-.9,2.55-1.31,3.41l-.74-.29a25.57,25.57,0,0,0,1-3.46Zm8.8,3.14c-.16,5.7-.3,7.46-.7,8a1.07,1.07,0,0,1-.91.5,8.65,8.65,0,0,1-1.47,0,2.15,2.15,0,0,0-.26-.85,10.47,10.47,0,0,0,1.23.06.42.42,0,0,0,.45-.22c.27-.38.43-2.11.56-7.06h-6.31a11.23,11.23,0,0,1-1.63,1.63,7.41,7.41,0,0,0-.82-.74,9.84,9.84,0,0,0,2.67-3.15h-1.47v-3.63h8.5v3.63H104a10.34,10.34,0,0,1-.75,1.28H110Zm-2.87,7.31a3.88,3.88,0,0,0-.24-.56c-2.14.24-4.31.43-5.91.59l-.16-1,3.33-.19v-1.42h-2.5v-3.07h2.5v-.78h.94v.78h2.56v3.07h-2.56v1.36l1.39-.1a6.46,6.46,0,0,0-.48-.74l.74-.34a8.64,8.64,0,0,1,1.17,2Zm-4.88-10.05h1.63V257.1h-1.63Zm1.9,6.67V264h-1.58v1.5Zm.51-6.67h1.7V257.1h-1.7Zm.43,5.17v1.5h1.62V264Zm2.06-5.17h1.74V257.1h-1.74Z"/><path class="cls-3" d="M29.17,299.92v-1.61a10.44,10.44,0,0,0,1.56-.15,2.2,2.2,0,0,0,1.16-.63,2.08,2.08,0,0,0,.46-.86,2,2,0,0,0,.09-.48h2v12H32v-8.3Z"/><path class="cls-3" d="M47.19,305.64H45.83v2.59H43.51v-2.59H38.75v-2.07l4.42-7.3h2.66v7.52h1.36Zm-3.68-1.85V298.6l-3,5.18Z"/><path class="cls-3" d="M56.51,297.72a11.86,11.86,0,0,1,0,9.19,3.4,3.4,0,0,1-3.22,1.61,3.4,3.4,0,0,1-3.22-1.61,11.86,11.86,0,0,1,0-9.19,3.4,3.4,0,0,1,3.22-1.62A3.4,3.4,0,0,1,56.51,297.72Zm-4.62,7.77a1.37,1.37,0,0,0,1.39,1.1,1.35,1.35,0,0,0,1.38-1.1,11.74,11.74,0,0,0,.33-3.18,11.61,11.61,0,0,0-.33-3.22,1.34,1.34,0,0,0-1.38-1,1.36,1.36,0,0,0-1.39,1,11.21,11.21,0,0,0-.34,3.22A11.33,11.33,0,0,0,51.89,305.5Z"/><path class="cls-3" d="M85.55,302c-2,.16-4,.32-5.46.42l-.1-1,1.39-.08v-4.91H80.11v-.9h7.62v.9H86.64v6.45H85.55Zm8.84,6v1H80.24v-1h6.42v-1.36H81v-1h5.67v-1.36c-1.68.11-3.39.18-4.95.21a6.1,6.1,0,0,0-.24-.93,76.58,76.58,0,0,0,10.9-.93l.69.91a47.43,47.43,0,0,1-5.22.64v1.46h5.7v1h-5.7V308ZM82.47,296.48v1.06h3.09v-1.06Zm0,2.91h3.09v-1.12H82.47Zm0,1.94c1,0,2-.13,3.09-.19v-1H82.47ZM94,301.9H88.28V296H94ZM92.79,297H89.38v3.84h3.41Z"/><path class="cls-3" d="M100.79,298.53H96v-1h4.83Zm-.34,10h-3v.75h-.94v-5.36h3.92Zm0-7.94H96.58v-.94h3.86Zm-3.86,1.17h3.86v1H96.58Zm1.62-4.39a22.75,22.75,0,0,0-.75-2.22l.94-.29A16.1,16.1,0,0,1,99.2,297Zm-.72,7.52v2.66h2V304.9Zm7.09-4.53a21.63,21.63,0,0,1-1,5.76,5.65,5.65,0,0,0,4.8,1.9c.4,0,1.84,0,2.35,0a3.82,3.82,0,0,0-.37,1.09h-2c-2,0-3.78-.35-5.17-2a6.82,6.82,0,0,1-1.76,2.34,4,4,0,0,0-.66-.91,6,6,0,0,0,1.73-2.43,11.09,11.09,0,0,1-1.2-3.2l.77-.32a10.58,10.58,0,0,0,.85,2.42,21,21,0,0,0,.7-3.78h-1.65v0h-.69c.56-1.2,1.3-3,1.89-4.56h-1.9V295.6h3.44c-.56,1.47-1.26,3.28-1.87,4.66h1l.19,0Zm2.77-3.46c-.8.16-1.62.27-2.38.38a4.35,4.35,0,0,0-.32-.9,21.2,21.2,0,0,0,5-1.26l.74.9a15.1,15.1,0,0,1-2.06.66v3.47h2v1.09h-2v4.26h2v1.09h-6V305.5h1v-6.83h.88v6.83h1.1Z"/><path class="cls-3" d="M112.75,302c-.14-1-.5-2.82-.85-4.18l.83-.21a38.07,38.07,0,0,1,.91,4.11Zm3.44,5.52a24.84,24.84,0,0,0-1.54-2.38,10,10,0,0,1-1.94,4.27,4.1,4.1,0,0,0-.75-.74c1.87-2.38,2.08-5.36,2.08-8.26v-5.46h1v5.46a26.73,26.73,0,0,1-.18,3.41c.4.48,1.82,2.4,2.18,2.86Zm.74-9.54c-.29,1.2-.61,2.71-.91,3.65l-.67-.29a28.29,28.29,0,0,0,.7-3.68Zm9.64,0a20.09,20.09,0,0,1-1.84,1.2,7.74,7.74,0,0,0,2,1.71,3,3,0,0,0-.75.91,8.37,8.37,0,0,1-2.45-2.42v.93h-4.1v-.77a8.06,8.06,0,0,1-2.43,2.4,3.88,3.88,0,0,0-.69-.86,6.86,6.86,0,0,0,2.15-2,16.08,16.08,0,0,0-1.52-1.18l.62-.74c.46.3,1,.7,1.46,1.06a10.15,10.15,0,0,0,.75-1.7h-2.37v-1h2.79l.21,0,.67.26a11.24,11.24,0,0,1-1.47,3.63h3.89a14,14,0,0,1-1.76-4.18l1-.21a13.14,13.14,0,0,0,.56,1.7,15.31,15.31,0,0,0,1.34-1.23l.77.75a20.68,20.68,0,0,1-1.74,1.31,6.82,6.82,0,0,0,.58,1,18.4,18.4,0,0,0,1.57-1.28Zm-2.08,7.57c-.37.78-.82,1.66-1.2,2.37h3.1v1h-9.76v-1h5.44a16.62,16.62,0,0,0,1.22-2.74ZM125,305h-6.83v-3.67H125Zm-5.28.24a7.29,7.29,0,0,1,.88,2.29l-1.06.35a8.43,8.43,0,0,0-.82-2.35Zm4.15-2.93h-4.63v1.73h4.63Z"/><path class="cls-2" d="M263.46,28.35c.27,0,.34-.22.37-1.82a4.88,4.88,0,0,0,1.73.76c-.19,2.28-.68,2.91-1.87,2.91h-1.14c-1.55,0-1.87-.61-1.87-2.36v-3.4h-.78c-.26,2.69-.87,4.79-3.64,6a5.83,5.83,0,0,0-1-1.41v.37H252v.71h-1.73V24.29h5v4.56c2.11-.92,2.5-2.45,2.65-4.4h-1.1V19.83c-.19.19-.39.37-.58.54a12.59,12.59,0,0,0-1.43-1.43l.07-.05h-5.32V17.3h2.55a15.28,15.28,0,0,0-.82-2.14l1.7-.53a12.3,12.3,0,0,1,.94,2.19l-1.31.48h3v.94A11.7,11.7,0,0,0,258,14.72l1.87.58A17.38,17.38,0,0,1,257.53,19h5.83a31.7,31.7,0,0,0-2.79-3.54l1.41-1a27.69,27.69,0,0,1,3.6,4.5l-1.53,1.1c-.1-.19-.2-.37-.34-.58v4.86h-1.07V27.8c0,.49,0,.54.27.54ZM255,21.19h-4.79V19.66H255Zm-4.79.75H255v1.53h-4.79Zm3.35,4H252v1.9h1.65Zm5.12-3.21h3V20.8h-3Z"/><path class="cls-2" d="M269.93,25.8v1.46h-1.87V15.41h5.66V25.8Zm0-8.55v2.41h1.92V17.25ZM271.85,24v-2.5h-1.92V24ZM282.66,28c0,1.07-.22,1.6-.88,1.94a7.59,7.59,0,0,1-3.08.37,6.91,6.91,0,0,0-.7-2c.92.05,1.94,0,2.23,0s.43-.1.43-.39V25H277a9,9,0,0,1-2.92,5.42,6.71,6.71,0,0,0-1.55-1.31c2.57-2.11,2.79-5.29,2.79-7.84V15.17h7.34Zm-2-4.83V21H277.3v.27c0,.59,0,1.24-.07,1.9ZM277.3,17v2.18h3.35V17Z"/><rect class="cls-4" x="1" y="3.45" width="506.76" height="319.78"/><line class="cls-4" x1="1" y1="82.95" x2="507.76" y2="82.95"/><line class="cls-4" x1="1" y1="163.78" x2="507.76" y2="163.78"/><line class="cls-4" x1="1" y1="203.89" x2="507.76" y2="203.89"/><line class="cls-4" x1="1" y1="243.78" x2="507.76" y2="243.78"/><line class="cls-4" x1="1" y1="283.78" x2="507.76" y2="283.78"/><line class="cls-4" x1="1" y1="122.45" x2="507.76" y2="122.45"/><line class="cls-4" x1="68.73" y1="3.45" x2="68.73" y2="323.23"/><line class="cls-4" x1="235.73" y1="3.45" x2="235.73" y2="323.23"/><path class="cls-3" d="M262.6,98.67v12.39h-1.23v-.82h-8.53v.9h-1.18V98.67h4a20.08,20.08,0,0,0,.62-2.19l1.36.18c-.24.69-.53,1.41-.8,2Zm-9.76,1.14v2.38h8.53V99.81Zm0,3.51v2.32h8.53v-2.32Zm8.53,5.81v-2.37h-8.53v2.37Z"/><path class="cls-3" d="M276.91,109.6c1.7,0,1.94-.46,2.14-2.91a4.1,4.1,0,0,0,1.18.48c-.26,2.83-.78,3.6-3.35,3.6h-6c-2.54,0-3.36-.4-3.36-2.21v-5.94H277v-4h-9.72v-1.2h10.93v7.36H277v-1H268.7v4.77c0,.85.37,1,2.1,1Z"/><path class="cls-3" d="M284.54,107.72a10.62,10.62,0,0,1-2,3.41,7.18,7.18,0,0,0-.94-.69,7.46,7.46,0,0,0,1.81-3Zm3.07-.62h-5.19v-10h5.19Zm-1.14-9h-3v2h3Zm0,3h-3v2h3Zm0,3h-3v2.08h3Zm0,3.36a12.61,12.61,0,0,1,1.58,2.51l-1,.51a12.52,12.52,0,0,0-1.52-2.59Zm6-6.34v3.07h3.09V111H294.4v-.69H289.8v.75h-1.12v-7h2.61V96.51h1.17V100h3.86v1.09Zm1.94,4.13H289.8v4.08h4.59Z"/><path class="cls-3" d="M299.72,108.71A1.28,1.28,0,1,1,301,110,1.23,1.23,0,0,1,299.72,108.71Zm.37-8.9,0-1.89H302l0,1.89-.4,6.21h-1.06Z"/><path class="cls-3" d="M311.71,109.25a23,23,0,0,1-4.95,1.87,6.36,6.36,0,0,0-.85-.9,19.31,19.31,0,0,0,4.72-1.46Zm3.84-.5a43.37,43.37,0,0,1,4.5,1.55l-.9.74a39,39,0,0,0-4.71-1.71l.59-.58h-7.09v-5.07c-.42.13-.9.24-1.42.35a4.22,4.22,0,0,0-.56-.93,7.83,7.83,0,0,0,3.86-1.49H307.1c.14-.7.3-1.7.4-2.53h3.19v-.91h-3.91v-.78h3.91v-.88h1.09v.88h2.47v-.88h1.12v.88h3.57v2.48h-3.57v1h4.56s0,.24,0,.38c-.1.86-.19,1.33-.42,1.54a1.14,1.14,0,0,1-.77.29l-.42,0v5.7Zm-7.11-8.88q-.07.5-.14,1h2.11a2.82,2.82,0,0,0,.24-1Zm8.66,3.65h-8v1h8Zm0,1.73h-8v1h8Zm-8,2.74h8v-1h-8Zm2.16-6.37a3.35,3.35,0,0,1-1.14,1.14h7.16a1.79,1.79,0,0,0-.19-.51c.48,0,.91.06,1.09.06s.29,0,.37-.11a1,1,0,0,0,.19-.58h-3.38v1.1h-1.12v-1.1Zm3-1.74h-2.5a3.81,3.81,0,0,1-.16,1h2.66Zm-2.47-.78h2.47v-.91h-2.47Zm3.59-.91v.91h2.48v-.91Z"/><path class="cls-3" d="M335.15,109.51c0,.77-.21,1.12-.72,1.33a10.45,10.45,0,0,1-3,.19,4.74,4.74,0,0,0-.4-1.15c1.12,0,2.21,0,2.5,0s.43-.11.43-.42v-3.25h-4.31V111h-1.18v-4.72h-4a9.19,9.19,0,0,1-2,5,3.88,3.88,0,0,0-.91-.78c1.76-2,1.92-4.8,1.92-7V97.63h11.65Zm-6.66-4.4v-2.66h-3.83v.94c0,.53,0,1.12-.06,1.71Zm-3.83-6.34v2.56h3.83V98.77Zm9.32,0h-4.31v2.56H334Zm0,6.34v-2.66h-4.31v2.66Z"/><path class="cls-3" d="M346.76,98.82c-.35.59-.74,1.17-1.14,1.76v10.5h-1.26v-8.9a20.53,20.53,0,0,1-5.79,4.66,8.23,8.23,0,0,0-.8-1,18.56,18.56,0,0,0,7.47-7h-7.07V97.63h13.67v1.18Zm.06,2.67a36.51,36.51,0,0,1,5.46,4.21l-.94.91a35.66,35.66,0,0,0-5.39-4.35Z"/><path class="cls-3" d="M362.06,97c-.11.14-.24.27-.37.42a18.44,18.44,0,0,0,6.74,3.55,5.58,5.58,0,0,0-.82,1,19.81,19.81,0,0,1-4-1.94v1h-5.39v-.8a20.91,20.91,0,0,1-3.7,1.84,4.75,4.75,0,0,0-.82-1A17.78,17.78,0,0,0,361,96.46Zm3.7,5.39c-.5,1-1.18,2.1-1.83,3.12H366v5.6h-1.2v-.62h-7.3v.62h-1.17v-5.6h6.21c.48-.74,1-1.6,1.42-2.34h-8.15v-1.06h8.84l.22-.08Zm-1,4.18h-7.3v2.87h7.3ZM363.52,100A15.05,15.05,0,0,1,361,98.13a15.93,15.93,0,0,1-2.5,1.92Z"/><path class="cls-3" d="M377.64,96.56c0,.58,0,1.38-.11,2.32.24,1.9,1.2,8.6,6.85,11.11a3.61,3.61,0,0,0-.86,1c-4-1.87-5.71-5.83-6.48-8.8a12.82,12.82,0,0,1-6.34,8.87,3.8,3.8,0,0,0-1-.93c6.64-3.36,6.55-11.14,6.59-13.57Z"/><path class="cls-3" d="M400.16,108.71v1.18H385.88v-1.18h6.43V99.52h-5.6V98.3h12.65v1.22h-5.75v9.19Z"/><path class="cls-3" d="M252.06,301.61a17.36,17.36,0,0,0-2.42-1.39l.72-.83a16.8,16.8,0,0,1,2.42,1.28Zm-2,6.72a52.91,52.91,0,0,0,2.3-5.07l.93.75c-.61,1.66-1.44,3.6-2.16,5.07ZM253,297.39a15.34,15.34,0,0,0-2.5-1.49l.74-.82a14.29,14.29,0,0,1,2.53,1.39Zm10.72.45c-.11,7.67-.22,10.18-.75,10.92a1.55,1.55,0,0,1-1.23.66,17.6,17.6,0,0,1-2.42,0,2.66,2.66,0,0,0-.37-1.1c1,.08,2,.08,2.35.08a.65.65,0,0,0,.61-.26c.43-.51.56-3,.66-9.83h-7.25a13.44,13.44,0,0,1-1.83,2.42,6.67,6.67,0,0,0-1-.67,14.17,14.17,0,0,0,3.25-5.2l1.09.29a19.18,19.18,0,0,1-.94,2.1h7.79Zm-8.05,6.35v2.06h1.62v-2.77H253.9v-1h3.41V301h-1.18a10.54,10.54,0,0,1-.93,1.28,7.36,7.36,0,0,0-.94-.48,10,10,0,0,0,2-3.22l1,.26c-.16.4-.35.8-.56,1.2H261v1h-2.62v1.54h3.33v1h-3.33v2.77H260v-2.06h1v3H254.7v-3Z"/><path class="cls-3" d="M275.44,307.34c1.68.43,3.43,1,4.55,1.39l-1,.74a39.35,39.35,0,0,0-4.87-1.6l.62-.53H271l.78.48a19.28,19.28,0,0,1-5.19,1.6,10.45,10.45,0,0,0-.7-.8,21.31,21.31,0,0,0,4.59-1.28H268v-5.11h10.23v5.11Zm-8.21-9.24h-1v-2.19h6.29a8.19,8.19,0,0,0-.45-.91l1.15-.27a7.65,7.65,0,0,1,.62,1.18h6v2.21h-1.12v-1.25H267.3v.86h5.11v.75H270.3v.77h1.89v.7H270.3v.74l2.19-.14,0,.82-5.89.42-.1-.88,2.8-.14V300h-1.87v-.7h1.87v-.77h-2.06Zm1.92,5.59H277V303h-7.89Zm0,1.46H277v-.75h-7.89Zm0,1.47H277v-.77h-7.89Zm7.4-6.71V301H278v-.8h.91v1.5h-5.67v-1.5h.9v.8h1.39v-1.06h-2.8v-.7h.58a2.14,2.14,0,0,0-.61-.38,5.45,5.45,0,0,0,1.38-1.78l.88.14a4.66,4.66,0,0,1-.34.62h4v.7h-2v.69h2.85v.7Zm-1-.7v-.69h-1.38a6.46,6.46,0,0,1-.64.69Z"/><path class="cls-3" d="M287.67,307.52a21.55,21.55,0,0,1-4.95,2,7.62,7.62,0,0,0-.88-.9A18.58,18.58,0,0,0,286.6,307Zm7.54-11.94v3.52H282.92v-3.52ZM294.3,300v6.85H283.86V300ZM284,298.17h2.59v-1.66H284Zm1,3.87h8.05v-1.18H285Zm0,2h8.05v-1.18H285Zm0,2h8.05v-1.23H285Zm2.59-7.88h2.67v-1.66h-2.67Zm3.63,8.87c1.81.56,3.76,1.26,5,1.79l-1.25.64a35.88,35.88,0,0,0-4.66-1.78Zm.06-8.87h2.75v-1.66h-2.75Z"/></g></svg>