<svg xmlns="http://www.w3.org/2000/svg" viewBox="0 0 508.76 83.5"><defs><style>.cls-1{fill:#ff9947;}.cls-1,.cls-4{stroke:#e0e0e0;stroke-miterlimit:10;stroke-width:2px;}.cls-2{fill:#001f2e;}.cls-3{fill:#e0e0e0;}.cls-4{fill:none;}</style></defs><title>budget</title><g id="預算表"><rect class="cls-1" x="1" y="1" width="506.76" height="36"/><path class="cls-2" d="M20.84,18.82v1.77h5.42V22.4H23.58l1.7.61c-.6,1-1.26,2-1.79,2.7h3.65v1.85H12.45V25.72h3.35A14.13,14.13,0,0,0,14.38,23l1.34-.56H13.26V20.58h5.41V18.82H15.22V18q-1.07.51-2.19.92A7.32,7.32,0,0,0,11.68,17c3.2-.92,6.25-2.63,7.87-5.17l1.92.87-.48.68A18.84,18.84,0,0,0,28,17a9.82,9.82,0,0,0-1.39,1.77,22.44,22.44,0,0,1-2.31-1v1ZM16.1,22.4a11.61,11.61,0,0,1,1.48,2.7l-1.39.61h2.48V22.4ZM22.76,17a19.55,19.55,0,0,1-2.94-2.21A15.1,15.1,0,0,1,17.07,17ZM20.84,22.4v3.31H23l-1.14-.48a15.57,15.57,0,0,0,1.5-2.84Z"/><path class="cls-2" d="M36.69,22.67h.05v5.24H35v-.42H32.76v.44H31.08V23c-.2.08-.41.17-.61.24a6.92,6.92,0,0,0-1-1.6,11.18,11.18,0,0,0,2.94-1.31l-.88-.53,1.12-1.17,1.12.61a6,6,0,0,0,1-1.12H32.69A7.63,7.63,0,0,1,30.82,20a4.35,4.35,0,0,0-1-1.33,5.91,5.91,0,0,0,2.45-3.14l1.53.31a7,7,0,0,1-.29.76h2.14l.29-.05,0,0V15.31H31.4v1.46H29.94V13.72h3c-.12-.37-.25-.76-.37-1.07l1.61-.56c.2.49.44,1.1.65,1.63h2.72v3.06H36.21l.73.53a9.53,9.53,0,0,1-1.68,2.79c.92.53,1.82,1.07,2.4,1.48Zm-.58,0c-.56-.41-1.31-.88-2.11-1.38a11.07,11.07,0,0,1-2.16,1.38ZM35,25.92V24.24H32.76v1.68Zm8-1.36a19.39,19.39,0,0,1,2.77,2l-1.16,1.38a20.43,20.43,0,0,0-2.82-2.23l1-1.14H40.21l1.21,1.26A21,21,0,0,1,37.76,28a9.89,9.89,0,0,0-.83-1.48,16,16,0,0,0,3.21-2H38.3v-9h2.16c.07-.37.14-.78.19-1.17H37.88v-1.7h7.6v1.7h-3c-.1.41-.24.82-.36,1.17h2.92v9ZM40.1,18.14h3v-1h-3Zm0,2.45h3v-1h-3Zm0,2.43h3V22h-3Z"/><path class="cls-2" d="M86.42,22.71c-2.06.78-4.27,1.58-6,2.19L79.62,23l2.35-.7V15.74H80.08V13.87h5.81v1.87H84v5.9L86.1,21Zm2.24,1.87,1.56,1.1a15.76,15.76,0,0,1-4.4,2.23,10,10,0,0,0-1.22-1.38,13.67,13.67,0,0,0,3.93-2H86.81v-9h2.67c.08-.39.15-.8.22-1.17H86.11v-1.7h9.62v1.7H92c-.14.41-.29.8-.43,1.17h3.55v9Zm0-6.41h4.45V17.1H88.68Zm0,2.45h4.45V19.53H88.68Zm0,2.48h4.45V22H88.68Zm4,1.53A25.15,25.15,0,0,1,96,26.75l-1.6,1.19a24.26,24.26,0,0,0-3.28-2.24Z"/><path class="cls-2" d="M111.6,13V27.74h-2.14V26.69h-7.87v1.05h-2V13Zm-10,2v2h7.87v-2Zm0,3.86v2h7.87v-2Zm7.87,5.92v-2h-7.87v2Z"/><path class="cls-3" d="M93.7,53.28V67.09H92.57v-.75H82v.83h-1.1V53.28Zm-1.14,12.1V54.22H82V65.38ZM92,62.75H89.75v1.49c0,.46-.1.64-.46.74a7.78,7.78,0,0,1-1.9.11,2.49,2.49,0,0,0-.29-.67c.64,0,1.25,0,1.41,0s.24,0,.24-.21V62.75H82.5V62h6.24v-.59h1V62H92ZM86.71,56h-4v-.74h4v-.75h1v.75h4.1V56h-4.1v.67h3.54v3.2H90a8.85,8.85,0,0,1,1.73,1.57l-.67.5a7.77,7.77,0,0,0-.64-.7c-2.77.1-5.63.18-7.62.22l0-.75,4,0v-.8H83.31v-3.2h3.39ZM85,62.83a7.1,7.1,0,0,1,1.42,1.44l-.82.48a7.4,7.4,0,0,0-1.38-1.52Zm-.7-4.9h2.45v-.69H84.26Zm2.45,1.3v-.7H84.26v.7Zm1-2v.69h2.55v-.69Zm2.55,1.28H87.72v.7h2.55Zm-.58,2c-.13-.11-.26-.21-.38-.3l.64-.43H87.72v.78Z"/><path class="cls-3" d="M101.15,53.65c-.48,1.31-1.06,3-1.6,4.23A4.9,4.9,0,0,1,101,61.28a2.22,2.22,0,0,1-.62,1.84,1.72,1.72,0,0,1-.83.29,7.88,7.88,0,0,1-1.07,0,2.4,2.4,0,0,0-.3-1.06,4.57,4.57,0,0,0,.93,0,.77.77,0,0,0,.5-.14,1.32,1.32,0,0,0,.34-1.07A4.59,4.59,0,0,0,98.5,58c.46-1.17.93-2.61,1.26-3.7h-2.1V67.17H96.61V53.23h3.59l.19,0Zm8.95,4.21c-.62.5-1.38,1-2.11,1.5a12.12,12.12,0,0,0,2.79,4.82,3.72,3.72,0,0,0-.78.8,14.89,14.89,0,0,1-2.83-5.12l-.3.18c.85,2.67.48,5.47-.48,6.29a2,2,0,0,1-1.57.61c-.3,0-.83,0-1.26,0a2.76,2.76,0,0,0-.29-1.09,11.46,11.46,0,0,0,1.33.08,1.1,1.1,0,0,0,.93-.35,4.61,4.61,0,0,0,.67-3.3A16.4,16.4,0,0,1,101.62,65a3.49,3.49,0,0,0-.7-.85A13.1,13.1,0,0,0,106,61.09a9.87,9.87,0,0,0-.34-1.26,21.13,21.13,0,0,1-3.57,2.3,3.62,3.62,0,0,0-.67-.86A14.76,14.76,0,0,0,105.28,59a6.67,6.67,0,0,0-.8-1.26,17.17,17.17,0,0,1-2.95,1.87,5.81,5.81,0,0,0-.72-.85,13,13,0,0,0,3.79-2.43h-3.54V55.23h3.12a11.14,11.14,0,0,0-1.84-2l.88-.56a9.42,9.42,0,0,1,1.94,2l-.8.56,1.79,0a17.28,17.28,0,0,0,1.71-2.69l1.14.37a26.8,26.8,0,0,1-1.62,2.32h3v1H106a6.56,6.56,0,0,1-.74.77,7.89,7.89,0,0,1,1.31,2.11,23.08,23.08,0,0,0,2.82-2.08Z"/><path class="cls-3" d="M125.56,65.6c0,.75-.16,1.14-.69,1.34a10.3,10.3,0,0,1-2.82.19,4.25,4.25,0,0,0-.4-1.2c1,0,2,0,2.35,0s.35-.1.35-.35V57.26h-4.08a6.87,6.87,0,0,0,3.91,5.11,6.57,6.57,0,0,0-.83,1,7.82,7.82,0,0,1-4-5.23,8,8,0,0,1-4.11,5.31,5.55,5.55,0,0,0-.8-.94,7.16,7.16,0,0,0,4-5.28h-4.16v9.89h-1.18V56.09h5.83c-.08-.56-.14-1.15-.18-1.78h-2.88V53.26h3.89a25,25,0,0,0,.29,2.83h5.54Z"/><path class="cls-3" d="M135.4,55.87c-.35.93-.8,2-1.2,2.85h2.27v1.09h-8.32V58.72H133a22.27,22.27,0,0,0,1.17-3.11Zm.7-.35h-7.49V54.43h3.31c-.18-.53-.43-1.15-.66-1.65l1-.3a15.14,15.14,0,0,1,.85,2h2.94Zm-7,5.75h6.66v5.67h-1.17v-.64h-4.35v.77h-1.14Zm1.52-2.61a12.44,12.44,0,0,0-1-2.74l1-.26a11.08,11.08,0,0,1,1.06,2.71Zm-.38,3.68v2.9h4.35v-2.9Zm12.2-8.45c-.58,1.46-1.31,3.28-2,4.75a5.38,5.38,0,0,1,1.78,3.86,2.39,2.39,0,0,1-.72,2,2,2,0,0,1-1,.34,9.43,9.43,0,0,1-1.36,0,2.84,2.84,0,0,0-.32-1.14,8.29,8.29,0,0,0,1.23,0,1.57,1.57,0,0,0,.64-.16,1.42,1.42,0,0,0,.42-1.25,5.14,5.14,0,0,0-1.82-3.62c.59-1.34,1.22-3,1.65-4.27h-2.55V67.14h-1.07V53.4h4.1l.19-.06Z"/><path class="cls-3" d="M157.46,58a18,18,0,0,1-2.82,5.41c.59,1.57,1.33,2.48,2.15,2.48.45,0,.64-.83.75-3a2.81,2.81,0,0,0,1,.64c-.22,2.72-.66,3.51-1.87,3.51s-2.19-1-2.93-2.62a14.29,14.29,0,0,1-3.3,2.66,6.77,6.77,0,0,0-.86-.94,12.76,12.76,0,0,0,3.68-3,31.47,31.47,0,0,1-1.17-6.74h-5.52v2.08h4.08V59c-.08,3.59-.18,4.93-.51,5.35a1.24,1.24,0,0,1-1,.46,18.35,18.35,0,0,1-1.9,0,2.48,2.48,0,0,0-.34-1.12c.74.06,1.42.08,1.7.08s.38,0,.48-.18.3-1.25.37-4h-2.91v.13c0,2.24-.24,5.46-1.68,7.54a4.75,4.75,0,0,0-1-.8c1.31-2,1.46-4.69,1.46-6.75V55.26h6.67c-.06-.88-.08-1.78-.1-2.69h1.23c0,.93,0,1.82.06,2.69h5.17v1.17h-5.09a28.87,28.87,0,0,0,.88,5.55,15.84,15.84,0,0,0,2-4.32Zm-2.77-5.35a15.31,15.31,0,0,1,2.87,1.82l-.74.82A16.46,16.46,0,0,0,154,53.34Z"/><path class="cls-3" d="M173.69,62.06a25.79,25.79,0,0,1-3.46,2.1A11.14,11.14,0,0,0,174.76,66,6,6,0,0,0,174,67a10.12,10.12,0,0,1-7.52-5.76h-2.56v4.29l4.32-1c0,.3,0,.79,0,1a44.2,44.2,0,0,0-5.63,1.55l-.06,0A5.85,5.85,0,0,0,162,66a1.27,1.27,0,0,0,.78-1.14V61.28h-2.59V60.21H163v-7h9.84v1h-8.64v1.38h8.16v1h-8.16v1.33h8.16v1h-8.16v1.38h10.2v1.07H167.7a8.11,8.11,0,0,0,1.71,2.24,23.72,23.72,0,0,0,3.28-2.11Z"/><path class="cls-3" d="M182.92,56.24h-6.58v-1h6.58ZM177,57.36h5.2v.94H177Zm5.15,3H177v-.94h5.15Zm0,5.81h-4v.75h-1V61.57h5.07Zm-4-3.63V65.2h3V62.56Zm1.2-7.47A13.66,13.66,0,0,0,178.24,53l.9-.46a12.15,12.15,0,0,1,1.23,2Zm11.09,4.15h-3.28v7.94H186V59.23h-3.14V58.06H186V52.84h1.2v5.22h3.28Z"/><path class="cls-3" d="M206.42,59.86v.83H192.14v-.83h6.47V59h-5.23v-.75h5.23v-.82h-4.85v-.74h4.85v-.88h-6.43v-.75h6.43v-.82h-4.75v-.74h4.75v-1h1.18v1h4.85v1.55h1.73v.75h-1.73v1.62H199.8v.82h5.47V59H199.8v.83Zm-14.28,6h14.28v.85H192.14Zm12.53-4.47v3.71H194V61.39Zm-9.57,1.5h3.55v-.82h-3.55Zm0,1.52h3.55v-.85h-3.55Zm8.37-2.34h-3.71v.82h3.71Zm0,1.49h-3.71v.85h3.71Zm-3.68-8.48h3.67v-.82H199.8Zm0,1.63h3.67v-.88H199.8Z"/><path class="cls-3" d="M17.51,56.93a1.21,1.21,0,0,0-.22-.64,1.3,1.3,0,0,0-1.15-.56A1.71,1.71,0,0,0,14.49,57a8,8,0,0,0-.37,2.11,2.66,2.66,0,0,1,1-.76,3.44,3.44,0,0,1,1.33-.24,3.45,3.45,0,0,1,2.63,1.09,3.89,3.89,0,0,1,1,2.78,4.69,4.69,0,0,1-1,3A3.71,3.71,0,0,1,16,66.25a3.59,3.59,0,0,1-3.35-1.9,7.75,7.75,0,0,1-.84-3.83,17.41,17.41,0,0,1,.12-2.24,6.85,6.85,0,0,1,.81-2.56,4.12,4.12,0,0,1,1.35-1.4,3.64,3.64,0,0,1,2-.53,4,4,0,0,1,2.67.86,3.27,3.27,0,0,1,1.12,2.29ZM14.7,63.71a1.67,1.67,0,0,0,1.33.61,1.47,1.47,0,0,0,1.24-.59,2.47,2.47,0,0,0,.45-1.54,2.31,2.31,0,0,0-.51-1.61A1.65,1.65,0,0,0,15.95,60a1.68,1.68,0,0,0-1.07.37,2.07,2.07,0,0,0-.7,1.74A2.36,2.36,0,0,0,14.7,63.71Z"/><path class="cls-3" d="M22.56,67.91a1.85,1.85,0,0,0,1-.66,2.45,2.45,0,0,0,.39-1.3H22.56V63.46h2.56V65.6A5,5,0,0,1,25,66.78a2.4,2.4,0,0,1-.56,1.06,2.87,2.87,0,0,1-1,.73,2.68,2.68,0,0,1-.82.24Z"/><path class="cls-3" d="M35.06,55.44A9.36,9.36,0,0,1,36,60a9.31,9.31,0,0,1-.93,4.59,3.4,3.4,0,0,1-3.22,1.61,3.4,3.4,0,0,1-3.22-1.61A9.31,9.31,0,0,1,27.68,60a9.36,9.36,0,0,1,.93-4.6,3.4,3.4,0,0,1,3.22-1.62A3.4,3.4,0,0,1,35.06,55.44Zm-4.62,7.77a1.37,1.37,0,0,0,1.39,1.1,1.35,1.35,0,0,0,1.38-1.1A11.74,11.74,0,0,0,33.54,60a11.61,11.61,0,0,0-.33-3.22,1.34,1.34,0,0,0-1.38-1,1.36,1.36,0,0,0-1.39,1A11.21,11.21,0,0,0,30.1,60,11.33,11.33,0,0,0,30.44,63.21Z"/><path class="cls-3" d="M45.36,55.44a9.36,9.36,0,0,1,.93,4.6,9.31,9.31,0,0,1-.93,4.59,3.4,3.4,0,0,1-3.22,1.61,3.4,3.4,0,0,1-3.22-1.61A9.31,9.31,0,0,1,38,60a9.36,9.36,0,0,1,.93-4.6,3.4,3.4,0,0,1,3.22-1.62A3.4,3.4,0,0,1,45.36,55.44Zm-4.62,7.77a1.37,1.37,0,0,0,1.39,1.1,1.35,1.35,0,0,0,1.38-1.1A11.74,11.74,0,0,0,43.85,60a11.61,11.61,0,0,0-.33-3.22,1.34,1.34,0,0,0-1.38-1,1.36,1.36,0,0,0-1.39,1A11.21,11.21,0,0,0,40.4,60,11.33,11.33,0,0,0,40.74,63.21Z"/><path class="cls-3" d="M55.67,55.44a9.36,9.36,0,0,1,.93,4.6,9.31,9.31,0,0,1-.93,4.59,3.4,3.4,0,0,1-3.22,1.61,3.4,3.4,0,0,1-3.22-1.61A9.31,9.31,0,0,1,48.29,60a9.36,9.36,0,0,1,.93-4.6,3.4,3.4,0,0,1,3.22-1.62A3.4,3.4,0,0,1,55.67,55.44ZM51,63.21a1.37,1.37,0,0,0,1.39,1.1,1.35,1.35,0,0,0,1.38-1.1A11.74,11.74,0,0,0,54.15,60a11.61,11.61,0,0,0-.33-3.22,1.34,1.34,0,0,0-1.38-1,1.36,1.36,0,0,0-1.39,1A11.21,11.21,0,0,0,50.71,60,11.33,11.33,0,0,0,51,63.21Z"/><path class="cls-2" d="M263.46,25.9c.27,0,.34-.22.37-1.82a4.87,4.87,0,0,0,1.73.77c-.19,2.28-.68,2.91-1.87,2.91h-1.14c-1.55,0-1.87-.61-1.87-2.36V22h-.78c-.25,2.69-.87,4.79-3.64,6a5.81,5.81,0,0,0-1-1.41V27H252v.71h-1.73V21.84h5V26.4c2.11-.92,2.5-2.45,2.65-4.4h-1.11V17.39c-.19.19-.39.37-.58.54a12.55,12.55,0,0,0-1.43-1.43l.07-.05h-5.32v-1.6h2.55a15.26,15.26,0,0,0-.82-2.14l1.7-.53a12.28,12.28,0,0,1,.93,2.19l-1.31.48h3v.94A11.7,11.7,0,0,0,258,12.27l1.87.58a17.39,17.39,0,0,1-2.36,3.74h5.83a31.74,31.74,0,0,0-2.79-3.54l1.41-1a27.7,27.7,0,0,1,3.6,4.5l-1.53,1.1c-.1-.19-.2-.37-.34-.58V22h-1.07v3.37c0,.49,0,.54.27.54Zm-8.41-7.16h-4.79V17.22h4.79Zm-4.79.75h4.79V21h-4.79Zm3.35,4H252v1.9h1.65Zm5.12-3.21h3V18.36h-3Z"/><path class="cls-2" d="M269.93,23.35v1.46h-1.87V13h5.66V23.35Zm0-8.55v2.41h1.92V14.8Zm1.92,6.71V19h-1.92v2.5Zm10.81,4.08c0,1.07-.22,1.6-.88,1.94a7.6,7.6,0,0,1-3.08.37,6.9,6.9,0,0,0-.7-2c.92.05,1.94,0,2.23,0s.43-.1.43-.39v-3H277A9,9,0,0,1,274.07,28a6.72,6.72,0,0,0-1.55-1.31c2.57-2.11,2.79-5.29,2.79-7.84V12.73h7.34Zm-2-4.83V18.59H277.3v.27c0,.59,0,1.24-.07,1.9ZM277.3,14.6v2.18h3.35V14.6Z"/><rect class="cls-4" x="1" y="1" width="506.76" height="79.5"/><line class="cls-4" x1="1" y1="80.5" x2="507.76" y2="80.5"/><line class="cls-4" x1="68.73" y1="1" x2="68.73" y2="80.5"/><line class="cls-4" x1="235.73" y1="1" x2="235.73" y2="80.5"/></g></svg>