<svg xmlns="http://www.w3.org/2000/svg" viewBox="0 0 508.76 83.5"><defs><style>.cls-1{fill:#ff9947;}.cls-1,.cls-4{stroke:#e0e0e0;stroke-miterlimit:10;stroke-width:2px;}.cls-2{fill:#001f2e;}.cls-3{fill:#e0e0e0;}.cls-4{fill:none;}</style></defs><title>budget</title><g id="預算表"><rect class="cls-1" x="1" y="1" width="506.76" height="36"/><path class="cls-2" d="M20.84,18.82v1.77h5.42V22.4H23.58l1.7.61c-.6,1-1.26,2-1.79,2.7h3.65v1.85H12.45V25.72h3.35A14.1,14.1,0,0,0,14.38,23l1.34-.56H13.26V20.58h5.41V18.82H15.22V18q-1.07.51-2.19.92A7.32,7.32,0,0,0,11.68,17c3.2-.92,6.25-2.63,7.87-5.17l1.92.87-.48.68A18.85,18.85,0,0,0,28,17a9.85,9.85,0,0,0-1.39,1.77,22.33,22.33,0,0,1-2.31-1v1ZM16.1,22.4a11.6,11.6,0,0,1,1.48,2.7l-1.39.61h2.48V22.4ZM22.76,17a19.55,19.55,0,0,1-2.94-2.21A15.14,15.14,0,0,1,17.07,17ZM20.84,22.4v3.31H23l-1.14-.48a15.56,15.56,0,0,0,1.5-2.84Z"/><path class="cls-2" d="M36.69,22.67h.05v5.24H35v-.42H32.76v.44H31.08V23c-.2.08-.41.17-.61.24a6.91,6.91,0,0,0-1-1.6,11.19,11.19,0,0,0,2.94-1.31l-.88-.53,1.12-1.17,1.12.61a6,6,0,0,0,1-1.12H32.69A7.62,7.62,0,0,1,30.82,20a4.36,4.36,0,0,0-1-1.33,5.91,5.91,0,0,0,2.45-3.14l1.53.31a7,7,0,0,1-.29.76h2.14l.29-.05,0,0V15.31H31.4v1.46H29.94V13.72h3c-.12-.37-.25-.76-.37-1.07l1.61-.56c.2.49.44,1.1.65,1.63h2.72v3.06H36.21l.73.53a9.54,9.54,0,0,1-1.68,2.79c.92.53,1.82,1.07,2.4,1.48Zm-.58,0c-.56-.41-1.31-.88-2.11-1.38a11.07,11.07,0,0,1-2.16,1.38ZM35,25.92V24.24H32.76v1.68Zm8-1.36a19.35,19.35,0,0,1,2.77,2l-1.16,1.38a20.44,20.44,0,0,0-2.82-2.23l1-1.14H40.21l1.21,1.26A21,21,0,0,1,37.76,28a9.87,9.87,0,0,0-.83-1.48,15.93,15.93,0,0,0,3.21-2H38.3v-9h2.16c.07-.37.14-.78.19-1.17H37.88v-1.7h7.6v1.7h-3c-.1.41-.24.82-.36,1.17h2.92v9ZM40.1,18.14h3v-1h-3Zm0,2.45h3v-1h-3Zm0,2.43h3V22h-3Z"/><path class="cls-2" d="M86.42,22.71c-2.06.78-4.27,1.58-6,2.19L79.62,23l2.35-.7V15.74H80.08V13.87h5.81v1.87H84v5.9L86.1,21Zm2.24,1.87,1.56,1.1a15.75,15.75,0,0,1-4.4,2.23,10,10,0,0,0-1.22-1.38,13.68,13.68,0,0,0,3.93-2H86.81v-9h2.67c.08-.39.15-.8.22-1.17H86.11v-1.7h9.62v1.7H92c-.14.41-.29.8-.43,1.17h3.55v9Zm0-6.41h4.45V17.1H88.68Zm0,2.45h4.45V19.53H88.68Zm0,2.48h4.45V22H88.68Zm4,1.53A25.11,25.11,0,0,1,96,26.75l-1.6,1.19a24.35,24.35,0,0,0-3.28-2.24Z"/><path class="cls-2" d="M111.6,13V27.74h-2.14V26.69h-7.87v1.05h-2V13Zm-10,2v2h7.87v-2Zm0,3.86v2h7.87v-2Zm7.87,5.92v-2h-7.87v2Z"/><path class="cls-3" d="M85.57,55.77a19.23,19.23,0,0,1-2.06,3.62v7.75H82.34V60.78a11.85,11.85,0,0,1-1.9,1.67,8,8,0,0,0-.61-1.07,14,14,0,0,0,4.45-5.6H80.34V54.62h4.42a21.22,21.22,0,0,0,.7-2.08l1.22.29c-.19.61-.38,1.2-.62,1.79h8.18v1.15Zm9,7H90.26v3c0,.7-.14,1-.67,1.23a10.74,10.74,0,0,1-2.77.18A5.59,5.59,0,0,0,86.44,66a22,22,0,0,0,2.29,0c.29,0,.35-.08.35-.3V62.78H84.66V61.66h4.42V60.35a13.07,13.07,0,0,0,2.35-1.7H86V57.57h6.51l.24-.08.77.61a16.15,16.15,0,0,1-3.27,2.64v.93h4.27Z"/><path class="cls-3" d="M100.48,65.14a10.65,10.65,0,0,0,3.65.46c.77,0,5.63,0,6.61,0a4.32,4.32,0,0,0-.5,1.18h-6.1c-3.38,0-5.28-.54-6.45-2.72a10.07,10.07,0,0,1-1,3.27,9.57,9.57,0,0,0-1-.58c.93-1.6,1.1-4.13,1.15-7l1.12.08c0,.77,0,1.52-.1,2.22a5.05,5.05,0,0,0,1.46,2.45v-6H96.1V57.42h3v-2H96.5V54.35h2.59V52.57h1.14v1.78h2.31v1.06h-2.31v2h2.69V58.5h-2.43v2.37h2.29v1.06h-2.29Zm5.27-.58c-1.52,0-2-.4-2-1.92V53.31h6v5.78h-4.8v3.55c0,.69.14.83.94.83h2.83c.69,0,.8-.4.9-2.23a2.92,2.92,0,0,0,1.07.46c-.18,2.18-.51,2.85-1.92,2.85Zm-.85-10.2V58h3.65V54.37Z"/><path class="cls-3" d="M119.83,59.73a14.27,14.27,0,0,0,6.82,5.68,5,5,0,0,0-.88,1.06,15.66,15.66,0,0,1-5.94-4.85v5.54h-1.22V61.66a16.69,16.69,0,0,1-5.86,4.75,5.39,5.39,0,0,0-.83-1,15.4,15.4,0,0,0,6.69-5.59V55.93h-6.13V54.77h6.13V52.56h1.22v2.21h6.35v1.17h-6.35Zm-3.41-3.22a13.05,13.05,0,0,1-.62,1.89,21.45,21.45,0,0,1,1.81,1.76l-.82.82a20.59,20.59,0,0,0-1.49-1.55,8.56,8.56,0,0,1-2,2.51,7.58,7.58,0,0,0-.94-.77,8.17,8.17,0,0,0,2.91-4.87Zm7.51,0a11.25,11.25,0,0,1-.54,1.89,33.59,33.59,0,0,1,2.88,2.47l-.85.82a27.07,27.07,0,0,0-2.5-2.29,7.46,7.46,0,0,1-1.41,1.89,6.18,6.18,0,0,0-1-.64,7.59,7.59,0,0,0,2.27-4.32Z"/><path class="cls-3" d="M17.51,56.93a1.21,1.21,0,0,0-.22-.64,1.3,1.3,0,0,0-1.15-.56A1.71,1.71,0,0,0,14.49,57a8,8,0,0,0-.37,2.11,2.66,2.66,0,0,1,1-.76,3.44,3.44,0,0,1,1.33-.24,3.45,3.45,0,0,1,2.63,1.09,3.89,3.89,0,0,1,1,2.78,4.69,4.69,0,0,1-1,3A3.71,3.71,0,0,1,16,66.25a3.59,3.59,0,0,1-3.35-1.9,7.75,7.75,0,0,1-.84-3.83,17.41,17.41,0,0,1,.12-2.24,6.85,6.85,0,0,1,.81-2.56,4.12,4.12,0,0,1,1.35-1.4,3.64,3.64,0,0,1,2-.53,4,4,0,0,1,2.67.86,3.27,3.27,0,0,1,1.12,2.29ZM14.7,63.71a1.67,1.67,0,0,0,1.33.61,1.47,1.47,0,0,0,1.24-.59,2.47,2.47,0,0,0,.45-1.54,2.31,2.31,0,0,0-.51-1.61A1.65,1.65,0,0,0,15.95,60a1.68,1.68,0,0,0-1.07.37,2.07,2.07,0,0,0-.7,1.74A2.36,2.36,0,0,0,14.7,63.71Z"/><path class="cls-3" d="M22.56,67.91a1.85,1.85,0,0,0,1-.66,2.45,2.45,0,0,0,.39-1.3H22.56V63.46h2.56V65.6A5,5,0,0,1,25,66.78a2.4,2.4,0,0,1-.56,1.06,2.87,2.87,0,0,1-1,.73,2.68,2.68,0,0,1-.82.24Z"/><path class="cls-3" d="M35.06,55.44A9.36,9.36,0,0,1,36,60a9.31,9.31,0,0,1-.93,4.59,3.4,3.4,0,0,1-3.22,1.61,3.4,3.4,0,0,1-3.22-1.61A9.31,9.31,0,0,1,27.68,60a9.36,9.36,0,0,1,.93-4.6,3.4,3.4,0,0,1,3.22-1.62A3.4,3.4,0,0,1,35.06,55.44Zm-4.62,7.77a1.37,1.37,0,0,0,1.39,1.1,1.35,1.35,0,0,0,1.38-1.1A11.74,11.74,0,0,0,33.54,60a11.61,11.61,0,0,0-.33-3.22,1.34,1.34,0,0,0-1.38-1,1.36,1.36,0,0,0-1.39,1A11.21,11.21,0,0,0,30.1,60,11.33,11.33,0,0,0,30.44,63.21Z"/><path class="cls-3" d="M45.36,55.44a9.36,9.36,0,0,1,.93,4.6,9.31,9.31,0,0,1-.93,4.59,3.4,3.4,0,0,1-3.22,1.61,3.4,3.4,0,0,1-3.22-1.61A9.31,9.31,0,0,1,38,60a9.36,9.36,0,0,1,.93-4.6,3.4,3.4,0,0,1,3.22-1.62A3.4,3.4,0,0,1,45.36,55.44Zm-4.62,7.77a1.37,1.37,0,0,0,1.39,1.1,1.35,1.35,0,0,0,1.38-1.1A11.74,11.74,0,0,0,43.85,60a11.61,11.61,0,0,0-.33-3.22,1.34,1.34,0,0,0-1.38-1,1.36,1.36,0,0,0-1.39,1A11.21,11.21,0,0,0,40.4,60,11.33,11.33,0,0,0,40.74,63.21Z"/><path class="cls-3" d="M55.67,55.44a9.36,9.36,0,0,1,.93,4.6,9.31,9.31,0,0,1-.93,4.59,3.4,3.4,0,0,1-3.22,1.61,3.4,3.4,0,0,1-3.22-1.61A9.31,9.31,0,0,1,48.29,60a9.36,9.36,0,0,1,.93-4.6,3.4,3.4,0,0,1,3.22-1.62A3.4,3.4,0,0,1,55.67,55.44ZM51,63.21a1.37,1.37,0,0,0,1.39,1.1,1.35,1.35,0,0,0,1.38-1.1A11.74,11.74,0,0,0,54.15,60a11.61,11.61,0,0,0-.33-3.22,1.34,1.34,0,0,0-1.38-1,1.36,1.36,0,0,0-1.39,1A11.21,11.21,0,0,0,50.71,60,11.33,11.33,0,0,0,51,63.21Z"/><path class="cls-2" d="M263.46,25.9c.27,0,.34-.22.37-1.82a4.88,4.88,0,0,0,1.73.76c-.19,2.28-.68,2.91-1.87,2.91h-1.14c-1.55,0-1.87-.61-1.87-2.36V22h-.78c-.25,2.69-.87,4.79-3.64,6a5.81,5.81,0,0,0-1-1.41V27H252v.71h-1.73V21.84h5V26.4c2.11-.92,2.5-2.45,2.65-4.4h-1.11V17.39c-.19.19-.39.37-.58.54a12.55,12.55,0,0,0-1.43-1.43l.07-.05h-5.32v-1.6h2.55a15.28,15.28,0,0,0-.82-2.14l1.7-.53a12.3,12.3,0,0,1,.93,2.19l-1.31.48h3v.94A11.7,11.7,0,0,0,258,12.27l1.87.58a17.39,17.39,0,0,1-2.36,3.74h5.83a31.7,31.7,0,0,0-2.79-3.54l1.41-1a27.74,27.74,0,0,1,3.6,4.5l-1.53,1.1c-.1-.19-.2-.37-.34-.58V22h-1.07v3.37c0,.49,0,.54.27.54Zm-8.41-7.16h-4.79V17.22h4.79Zm-4.79.75h4.79V21h-4.79Zm3.35,4H252v1.9h1.65Zm5.12-3.21h3V18.36h-3Z"/><path class="cls-2" d="M269.93,23.35v1.46h-1.87V13h5.66V23.35Zm0-8.55v2.41h1.92V14.8Zm1.92,6.71V19h-1.92v2.5Zm10.81,4.08c0,1.07-.22,1.6-.88,1.94a7.59,7.59,0,0,1-3.08.37,6.91,6.91,0,0,0-.7-2c.92.05,1.94,0,2.23,0s.43-.1.43-.39v-3H277A9,9,0,0,1,274.07,28a6.71,6.71,0,0,0-1.55-1.31c2.57-2.11,2.79-5.29,2.79-7.84V12.73h7.34Zm-2-4.83V18.59H277.3v.27c0,.59,0,1.24-.07,1.9ZM277.3,14.6v2.18h3.35V14.6Z"/><rect class="cls-4" x="1" y="1" width="506.76" height="79.5"/><line class="cls-4" x1="1" y1="80.5" x2="507.76" y2="80.5"/><line class="cls-4" x1="68.73" y1="1" x2="68.73" y2="80.5"/><line class="cls-4" x1="235.73" y1="1" x2="235.73" y2="80.5"/></g></svg>