<svg xmlns="http://www.w3.org/2000/svg" viewBox="0 0 508.76 167.11"><defs><style>.cls-1{fill:#ff9947;}.cls-1,.cls-4{stroke:#e0e0e0;stroke-miterlimit:10;stroke-width:2px;}.cls-2{fill:#001f2e;}.cls-3{fill:#e0e0e0;}.cls-4{fill:none;}</style></defs><title>budget</title><g id="預算表"><rect class="cls-1" x="1" y="3.45" width="506.76" height="36"/><path class="cls-2" d="M20.84,21.26V23h5.42v1.82H23.58l1.7.61c-.6,1-1.26,2-1.79,2.7h3.65V30H12.45V28.16h3.35a14.13,14.13,0,0,0-1.41-2.75l1.34-.56H13.26V23h5.41V21.26H15.22v-.83q-1.07.51-2.19.92a7.32,7.32,0,0,0-1.34-1.87c3.2-.92,6.25-2.63,7.87-5.17l1.92.87-.48.68a18.84,18.84,0,0,0,7,3.62,9.82,9.82,0,0,0-1.39,1.77,22.44,22.44,0,0,1-2.31-1v1ZM16.1,24.85a11.61,11.61,0,0,1,1.48,2.7l-1.39.61h2.48V24.85Zm6.66-5.44a19.55,19.55,0,0,1-2.94-2.21,15.1,15.1,0,0,1-2.75,2.21Zm-1.92,5.44v3.31H23l-1.14-.48a15.57,15.57,0,0,0,1.5-2.84Z"/><path class="cls-2" d="M36.69,25.12h.05v5.24H35v-.42H32.76v.44H31.08V25.46c-.2.08-.41.17-.61.24a6.92,6.92,0,0,0-1-1.6,11.18,11.18,0,0,0,2.94-1.31l-.88-.53,1.12-1.17,1.12.61a6,6,0,0,0,1-1.12H32.69a7.63,7.63,0,0,1-1.87,1.9,4.35,4.35,0,0,0-1-1.33A5.91,5.91,0,0,0,32.29,18l1.53.31a7,7,0,0,1-.29.76h2.14L36,19l0,0V17.76H31.4v1.46H29.94V16.16h3c-.12-.37-.25-.76-.37-1.07l1.61-.56c.2.49.44,1.1.65,1.63h2.72v3.06H36.21l.73.53a9.53,9.53,0,0,1-1.68,2.79c.92.53,1.82,1.07,2.4,1.48Zm-.58,0c-.56-.41-1.31-.88-2.11-1.38a11.07,11.07,0,0,1-2.16,1.38ZM35,28.37V26.68H32.76v1.68Zm8-1.36a19.39,19.39,0,0,1,2.77,2l-1.16,1.38a20.43,20.43,0,0,0-2.82-2.23l1-1.14H40.21l1.21,1.26a21,21,0,0,1-3.65,2.19A9.89,9.89,0,0,0,36.93,29a16,16,0,0,0,3.21-2H38.3V18h2.16c.07-.37.14-.78.19-1.17H37.88v-1.7h7.6v1.7h-3c-.1.41-.24.82-.36,1.17h2.92v9ZM40.1,20.58h3v-1h-3Zm0,2.45h3V22h-3Zm0,2.43h3v-1h-3Z"/><path class="cls-2" d="M86.42,25.15c-2.06.78-4.27,1.58-6,2.19l-.83-1.94,2.35-.7V18.18H80.08V16.31h5.81v1.87H84v5.9l2.09-.68ZM88.66,27l1.56,1.1a15.77,15.77,0,0,1-4.4,2.23A10,10,0,0,0,84.6,29a13.67,13.67,0,0,0,3.93-2H86.81V18h2.67c.08-.39.15-.8.22-1.17H86.11v-1.7h9.62v1.7H92c-.14.41-.29.8-.43,1.17h3.55v9Zm0-6.41h4.45V19.54H88.68Zm0,2.45h4.45V22H88.68Zm0,2.48h4.45V24.46H88.68Zm4,1.53A25.12,25.12,0,0,1,96,29.2l-1.6,1.19a24.29,24.29,0,0,0-3.28-2.24Z"/><path class="cls-2" d="M111.6,15.41V30.18h-2.14V29.13h-7.87v1.05h-2V15.41Zm-10,2v2h7.87v-2Zm0,3.86v2h7.87v-2Zm7.87,5.92v-2h-7.87v2Z"/><path class="cls-3" d="M81.91,61v8.59H80.74V55.67h5.79V61Zm0-4.43v1.3h3.51v-1.3Zm3.51,3.52V58.73H81.91v1.38Zm4,5.63v3.57H88.32V65.74H86.05a5.13,5.13,0,0,1-2.14,3.78,4.17,4.17,0,0,0-.78-.7A4,4,0,0,0,85,65.74H83v-1h2V63H83.31V62H91.2v1H89.38v1.73h2.18v1Zm-1.06-1V63H86.08v1.73Zm5.55,3.33c0,.71-.16,1.09-.62,1.3a7.41,7.41,0,0,1-2.48.21,3.93,3.93,0,0,0-.38-1.18c.88,0,1.75,0,2,0s.34-.1.34-.35V61H87.94V55.67h5.94Zm-4.8-11.48v1.3h3.63v-1.3Zm3.63,3.54V58.73H89.08v1.39Z"/><path class="cls-3" d="M102,65a4.15,4.15,0,0,1,0,.48c-.19,2.22-.4,3.17-.78,3.54a1.5,1.5,0,0,1-1.06.4,19.86,19.86,0,0,1-2.11,0,2.44,2.44,0,0,0-.35-1c.86.08,1.74.1,2,.1s.45,0,.58-.14.42-.86.56-2.38H97.12c.19-.94.42-2.37.56-3.51h3.17V60.76H98.18v-.19a10.81,10.81,0,0,1-1.78.75,3.78,3.78,0,0,0-.64-.88,11.85,11.85,0,0,0,3.15-1.5,12.22,12.22,0,0,0-1.81-1.38l.69-.66a9.86,9.86,0,0,1,1.91,1.42,8,8,0,0,0,1.54-1.7H97.52v-1h4.34l.21,0,.74.38a9.15,9.15,0,0,1-3.36,3.83h2.48v3.55H98.55c-.08.56-.16,1.14-.24,1.65Zm7-.43a7.18,7.18,0,0,1-2.06,2.9c.85.51,1.62,1,2.16,1.39l-.59.77c-.58-.43-1.42-1-2.35-1.57a11.89,11.89,0,0,1-3.67,1.55,3.12,3.12,0,0,0-.54-.88,11.25,11.25,0,0,0,3.28-1.25c-.86-.51-1.75-1-2.53-1.47l.58-.66c.85.46,1.83,1,2.77,1.57a6.33,6.33,0,0,0,1.55-1.71h-4.9v-.86h5.46l.19,0Zm1.18-7.28a16.84,16.84,0,0,1-2.26,1.76,11.53,11.53,0,0,0,2.74,1.15,4.39,4.39,0,0,0-.72.91,11.71,11.71,0,0,1-2.29-1v2.11c0,.37,0,.46.27.46h1.18a6.33,6.33,0,0,0,.77,0,7.25,7.25,0,0,0,.06.83,3,3,0,0,1-.82.06h-1.31c-1,0-1.17-.38-1.17-1.33V60.72h-2.18V61a3.29,3.29,0,0,1-1.74,3,4.16,4.16,0,0,0-.77-.74A2.44,2.44,0,0,0,103.44,61V59.76H107a10.71,10.71,0,0,1-3.81-4.45l.94-.29A8.67,8.67,0,0,0,105.38,57a21.18,21.18,0,0,0,2-1.86l.88.62a22,22,0,0,1-2.3,1.86,7.85,7.85,0,0,0,1.17,1,18,18,0,0,0,2.16-1.86Z"/><path class="cls-3" d="M114.43,61.47v2.39c0,1.81-.27,4.26-1.71,5.91a4.11,4.11,0,0,0-.9-.77,7.71,7.71,0,0,0,1.46-5.15V60.48h2a5.06,5.06,0,0,0-.58-.59c1.26-.24,2.72-.56,4.1-.94-1.22-.35-2.46-.67-3.6-.93l.7-.58h-2.56v-1h5.91c-.27-.4-.58-.83-.86-1.18l.85-.43a13.69,13.69,0,0,1,1.22,1.62h5.36v1H123.4l.64.38a16.7,16.7,0,0,1-2.45,1.07c1.17.35,2.26.7,3.06,1l-.64.59h2.32v1Zm12.15,6.63v1H114.72v-1H120V66.48h-3.73v-1H120V64.09h-3.35a8.94,8.94,0,0,1-1.52,2,5.56,5.56,0,0,0-.62-1,8.94,8.94,0,0,0,2.11-3.35l1,.29c-.14.37-.29.72-.45,1.09H120V61.76h1.17v1.36h4.31v1h-4.31v1.42h4v1h-4v1.62Zm-3-7.62c-.93-.35-2.1-.74-3.39-1.14-1.44.46-3,.83-4.32,1.14Zm-7.35-3c1.25.3,2.66.67,4,1.07A17.46,17.46,0,0,0,123,57.43Z"/><path class="cls-3" d="M128.64,62.65h5.65v6.82h-1.17v-.72h-3.35v.86h-1.14Zm1.14,1.15V67.6h3.35V63.81ZM139.67,61H131v-5.3h8.71Zm-1.2-4.16h-6.35v3h6.35ZM142,62.65V69.5h-1.17v-.75h-3.63v.86H136v-7Zm-1.17,4.95V63.81h-3.63V67.6Z"/><path class="cls-3" d="M14,64.69a2.71,2.71,0,0,0,.23,1.2,1.59,1.59,0,0,0,1.56.87,1.73,1.73,0,0,0,1.21-.48,1.78,1.78,0,0,0,.52-1.37,1.55,1.55,0,0,0-1-1.59,4.86,4.86,0,0,0-1.72-.22V61.4a4.46,4.46,0,0,0,1.6-.22,1.39,1.39,0,0,0,.79-1.41,1.58,1.58,0,0,0-.4-1.12,1.47,1.47,0,0,0-1.13-.43,1.43,1.43,0,0,0-1.23.53,2.26,2.26,0,0,0-.38,1.42H11.94a6,6,0,0,1,.31-1.7,3.84,3.84,0,0,1,.91-1.3,3.18,3.18,0,0,1,1.1-.65,4.76,4.76,0,0,1,1.57-.22,4.17,4.17,0,0,1,2.78.89,3,3,0,0,1,1.06,2.4A2.65,2.65,0,0,1,19,61.37a2.16,2.16,0,0,1-.83.62,1.71,1.71,0,0,1,.93.56,3,3,0,0,1,.9,2.29A3.86,3.86,0,0,1,19,67.52a4,4,0,0,1-3.13,1.16A3.79,3.79,0,0,1,12.3,67a5,5,0,0,1-.58-2.32Z"/><path class="cls-3" d="M22.56,70.35a1.85,1.85,0,0,0,1-.66,2.45,2.45,0,0,0,.39-1.3H22.56V65.9h2.56V68A5,5,0,0,1,25,69.23a2.4,2.4,0,0,1-.56,1.06,2.87,2.87,0,0,1-1,.73,2.68,2.68,0,0,1-.82.24Z"/><path class="cls-3" d="M30,65.16a2.29,2.29,0,0,0,.54,1.19,1.52,1.52,0,0,0,1.16.42A1.56,1.56,0,0,0,33,66.15a2.54,2.54,0,0,0,.46-1.56A2.71,2.71,0,0,0,33,63a1.51,1.51,0,0,0-1.34-.63,2.31,2.31,0,0,0-.75.11,1.48,1.48,0,0,0-.84.74L28,63.15l.84-6.65h6.62v2H30.53l-.43,2.63a5,5,0,0,1,.85-.47,3.61,3.61,0,0,1,1.25-.19,3.63,3.63,0,0,1,3.71,3.93,4.59,4.59,0,0,1-1.07,3,3.89,3.89,0,0,1-3.2,1.31,4.25,4.25,0,0,1-2.82-.92,3.58,3.58,0,0,1-1.23-2.61Z"/><path class="cls-3" d="M45.36,57.88a9.36,9.36,0,0,1,.93,4.6,9.31,9.31,0,0,1-.93,4.59,3.4,3.4,0,0,1-3.22,1.61,3.4,3.4,0,0,1-3.22-1.61A9.31,9.31,0,0,1,38,62.48a9.36,9.36,0,0,1,.93-4.6,3.4,3.4,0,0,1,3.22-1.62A3.4,3.4,0,0,1,45.36,57.88Zm-4.62,7.77a1.37,1.37,0,0,0,1.39,1.1,1.35,1.35,0,0,0,1.38-1.1,11.74,11.74,0,0,0,.33-3.18,11.61,11.61,0,0,0-.33-3.22,1.34,1.34,0,0,0-1.38-1,1.36,1.36,0,0,0-1.39,1,11.21,11.21,0,0,0-.34,3.22A11.33,11.33,0,0,0,40.74,65.66Z"/><path class="cls-3" d="M55.67,57.88a9.36,9.36,0,0,1,.93,4.6,9.31,9.31,0,0,1-.93,4.59,3.4,3.4,0,0,1-3.22,1.61,3.4,3.4,0,0,1-3.22-1.61,9.31,9.31,0,0,1-.93-4.59,9.36,9.36,0,0,1,.93-4.6,3.4,3.4,0,0,1,3.22-1.62A3.4,3.4,0,0,1,55.67,57.88ZM51,65.66a1.37,1.37,0,0,0,1.39,1.1,1.35,1.35,0,0,0,1.38-1.1,11.74,11.74,0,0,0,.33-3.18,11.61,11.61,0,0,0-.33-3.22,1.34,1.34,0,0,0-1.38-1,1.36,1.36,0,0,0-1.39,1,11.21,11.21,0,0,0-.34,3.22A11.33,11.33,0,0,0,51,65.66Z"/><path class="cls-3" d="M12.45,101.59V100A10.44,10.44,0,0,0,14,99.83a2.2,2.2,0,0,0,1.16-.63,2.08,2.08,0,0,0,.46-.86,2,2,0,0,0,.09-.48h2v12H15.28v-8.3Z"/><path class="cls-3" d="M22.56,111.86a1.85,1.85,0,0,0,1-.66,2.45,2.45,0,0,0,.39-1.3H22.56v-2.48h2.56v2.15a5,5,0,0,1-.15,1.18,2.4,2.4,0,0,1-.56,1.06,2.87,2.87,0,0,1-1,.73,2.68,2.68,0,0,1-.82.24Z"/><path class="cls-3" d="M35.06,99.39a11.86,11.86,0,0,1,0,9.19,3.4,3.4,0,0,1-3.22,1.61,3.4,3.4,0,0,1-3.22-1.61,11.86,11.86,0,0,1,0-9.19,3.4,3.4,0,0,1,3.22-1.62A3.4,3.4,0,0,1,35.06,99.39Zm-4.62,7.77a1.37,1.37,0,0,0,1.39,1.1,1.35,1.35,0,0,0,1.38-1.1,11.74,11.74,0,0,0,.33-3.18,11.61,11.61,0,0,0-.33-3.22,1.34,1.34,0,0,0-1.38-1,1.36,1.36,0,0,0-1.39,1A11.21,11.21,0,0,0,30.1,104,11.33,11.33,0,0,0,30.44,107.17Z"/><path class="cls-3" d="M45.36,99.39a11.86,11.86,0,0,1,0,9.19,3.4,3.4,0,0,1-3.22,1.61,3.4,3.4,0,0,1-3.22-1.61,11.86,11.86,0,0,1,0-9.19,3.4,3.4,0,0,1,3.22-1.62A3.4,3.4,0,0,1,45.36,99.39Zm-4.62,7.77a1.37,1.37,0,0,0,1.39,1.1,1.35,1.35,0,0,0,1.38-1.1,11.74,11.74,0,0,0,.33-3.18,11.61,11.61,0,0,0-.33-3.22,1.34,1.34,0,0,0-1.38-1,1.36,1.36,0,0,0-1.39,1A11.21,11.21,0,0,0,40.4,104,11.33,11.33,0,0,0,40.74,107.17Z"/><path class="cls-3" d="M55.67,99.39a11.86,11.86,0,0,1,0,9.19,3.4,3.4,0,0,1-3.22,1.61,3.4,3.4,0,0,1-3.22-1.61,11.86,11.86,0,0,1,0-9.19,3.4,3.4,0,0,1,3.22-1.62A3.4,3.4,0,0,1,55.67,99.39ZM51,107.17a1.37,1.37,0,0,0,1.39,1.1,1.35,1.35,0,0,0,1.38-1.1,11.74,11.74,0,0,0,.33-3.18,11.61,11.61,0,0,0-.33-3.22,1.34,1.34,0,0,0-1.38-1,1.36,1.36,0,0,0-1.39,1,11.21,11.21,0,0,0-.34,3.22A11.33,11.33,0,0,0,51,107.17Z"/><path class="cls-3" d="M29.91,146a2.29,2.29,0,0,0,.54,1.19,1.52,1.52,0,0,0,1.16.42,1.56,1.56,0,0,0,1.34-.62,2.54,2.54,0,0,0,.46-1.56,2.71,2.71,0,0,0-.43-1.56,1.51,1.51,0,0,0-1.34-.63,2.31,2.31,0,0,0-.75.11,1.48,1.48,0,0,0-.84.74l-2.12-.1.84-6.65H35.4v2H30.48L30.05,142a5,5,0,0,1,.85-.47,3.61,3.61,0,0,1,1.25-.19,3.63,3.63,0,0,1,3.71,3.93,4.59,4.59,0,0,1-1.07,3,3.89,3.89,0,0,1-3.2,1.31,4.25,4.25,0,0,1-2.82-.92A3.58,3.58,0,0,1,27.55,146Z"/><path class="cls-3" d="M45.32,138.72a11.86,11.86,0,0,1,0,9.19,3.4,3.4,0,0,1-3.22,1.61,3.4,3.4,0,0,1-3.22-1.61,11.86,11.86,0,0,1,0-9.19,3.4,3.4,0,0,1,3.22-1.62A3.4,3.4,0,0,1,45.32,138.72ZM40.7,146.5a1.37,1.37,0,0,0,1.39,1.1,1.35,1.35,0,0,0,1.38-1.1,11.74,11.74,0,0,0,.33-3.18,11.61,11.61,0,0,0-.33-3.22,1.34,1.34,0,0,0-1.38-1,1.36,1.36,0,0,0-1.39,1,11.21,11.21,0,0,0-.34,3.22A11.33,11.33,0,0,0,40.7,146.5Z"/><path class="cls-3" d="M55.62,138.72a11.86,11.86,0,0,1,0,9.19,3.4,3.4,0,0,1-3.22,1.61,3.4,3.4,0,0,1-3.22-1.61,11.86,11.86,0,0,1,0-9.19,3.4,3.4,0,0,1,3.22-1.62A3.4,3.4,0,0,1,55.62,138.72ZM51,146.5a1.37,1.37,0,0,0,1.39,1.1,1.35,1.35,0,0,0,1.38-1.1,11.74,11.74,0,0,0,.33-3.18,11.61,11.61,0,0,0-.33-3.22,1.34,1.34,0,0,0-1.38-1,1.36,1.36,0,0,0-1.39,1,11.21,11.21,0,0,0-.34,3.22A11.33,11.33,0,0,0,51,146.5Z"/><path class="cls-3" d="M82.43,103v2.39c0,1.81-.27,4.26-1.71,5.91a4.11,4.11,0,0,0-.9-.77,7.71,7.71,0,0,0,1.46-5.15V102h2a5.1,5.1,0,0,0-.58-.59c1.26-.24,2.72-.56,4.1-.94-1.22-.35-2.46-.67-3.6-.93l.7-.58H81.36V98h5.91c-.27-.4-.58-.83-.86-1.18l.85-.43A13.73,13.73,0,0,1,88.47,98h5.36v1H91.4l.64.38a16.75,16.75,0,0,1-2.45,1.07c1.17.35,2.26.7,3.06,1L92,102h2.32v1Zm12.15,6.63v1H82.72v-1H88V108H84.23v-1H88V105.6H84.61a8.91,8.91,0,0,1-1.52,2,5.56,5.56,0,0,0-.62-1,8.93,8.93,0,0,0,2.11-3.35l1,.29c-.14.37-.29.72-.45,1.09H88v-1.36h1.17v1.36h4.31v1H89.12V107h4v1h-4v1.62Zm-3-7.62c-.93-.35-2.1-.74-3.39-1.14-1.44.46-3,.83-4.32,1.14Zm-7.35-3c1.25.3,2.66.67,4,1.07A17.46,17.46,0,0,0,91,98.94Z"/><path class="cls-3" d="M96.64,104.16h5.65V111h-1.17v-.72H97.78v.86H96.64Zm1.14,1.15v3.79h3.35v-3.79Zm9.89-2.83H99v-5.3h8.71Zm-1.2-4.16h-6.35v3h6.35Zm3.52,5.84V111h-1.17v-.75h-3.63v.86H104v-7Zm-1.17,4.95v-3.79h-3.63v3.79Z"/><path class="cls-3" d="M116.64,100.11a18.5,18.5,0,0,1-1.41,2.22v8.84H114.1v-7.44a13.12,13.12,0,0,1-1.5,1.49,7.24,7.24,0,0,0-.69-1,14.69,14.69,0,0,0,3.68-4.43Zm-.35-3.2a16.8,16.8,0,0,1-3.58,3.79c-.14-.24-.46-.64-.64-.86a12.56,12.56,0,0,0,3.14-3.33Zm8.88,8.1a8.84,8.84,0,0,1-3,3.71,15.8,15.8,0,0,0,4.23,1.39,4.52,4.52,0,0,0-.72,1,15.34,15.34,0,0,1-4.53-1.74,17.3,17.3,0,0,1-4.69,1.78,3.45,3.45,0,0,0-.58-1,15.48,15.48,0,0,0,4.23-1.42,11.5,11.5,0,0,1-1.78-1.63,14.59,14.59,0,0,1-1.26,1.06,6.91,6.91,0,0,0-.82-.88,10.42,10.42,0,0,0,1.38-1.06,10.25,10.25,0,0,1-.77-1.2l1-.34a8.89,8.89,0,0,0,.51.83,11.23,11.23,0,0,0,1.49-2,13,13,0,0,0-3,.32,9.06,9.06,0,0,0-.37-1.1,5.48,5.48,0,0,0,1.78-.77c.37-.19,1.1-.66,2-1.23a12.45,12.45,0,0,0-3.06.29,7,7,0,0,0-.38-1.15,3,3,0,0,0,1.06-.56,19.16,19.16,0,0,0,2.8-2.62l1.17.51a22,22,0,0,1-3,2.66l2.85-.1c.72-.53,1.46-1.12,2.11-1.71l1.09.61a35.62,35.62,0,0,1-5.81,3.92l5-.27c-.37-.46-.74-.93-1.09-1.33l.93-.48a26,26,0,0,1,2.63,3.46l-1,.56a12.89,12.89,0,0,0-.83-1.31l-3.55.22a10.48,10.48,0,0,1-.77,1.28h3.92l.19,0Zm-5.57.67c-.19.24-.38.46-.59.69a9.7,9.7,0,0,0,2.1,1.74,8.08,8.08,0,0,0,2.45-2.43Z"/><path class="cls-3" d="M135.14,100c-.3,6.95-.56,9.32-1.14,10.05a1.35,1.35,0,0,1-1.09.61,8.81,8.81,0,0,1-1.75,0,3.32,3.32,0,0,0-.35-1.22c.67.06,1.28.08,1.57.08a.61.61,0,0,0,.56-.27c.45-.51.74-2.72,1-8.72h-2.26c-.19,4-.79,8-2.79,10.47a3.83,3.83,0,0,0-.94-.8c1.87-2.22,2.4-5.94,2.56-9.67H128.3V99.41h2.24c0-1,0-2,0-2.87h1.18c0,.93,0,1.89,0,2.87h3.43Zm6.69-1.54v12.28h-1.22v-1.06h-3.11v1.17h-1.17V98.5Zm-1.22,10.07V99.65h-3.11v8.92Z"/><path class="cls-3" d="M158.42,108.71v1.18H144.14v-1.18h6.43V99.52H145V98.3h12.64v1.22h-5.75v9.19Z"/><path class="cls-3" d="M82.8,144.37V149c0,.61-.14.9-.51,1.07a4.24,4.24,0,0,1-1.83.22,3.92,3.92,0,0,0-.34-1c.64,0,1.22,0,1.38,0s.26,0,.26-.26v-4.21c-.53.21-1,.38-1.5.56l-.34-1.09c.53-.16,1.15-.38,1.84-.64v-3.51H80.1V139h1.67v-3.18h1v3.2h1.25v1.06H82.8v3.14l1.23-.45.19,1Zm6.11,5c0,.45-.08.67-.38.82a3.73,3.73,0,0,1-1.44.16,3.73,3.73,0,0,0-.29-.8,9.78,9.78,0,0,0,1,0c.16,0,.19,0,.19-.19v-1.71c-.74.37-1.47.69-2.14,1l-.38-.75a5.7,5.7,0,0,1-1.09,2.56,3.42,3.42,0,0,0-.69-.67,6,6,0,0,0,1-3.75v-2.22h4.19Zm-.72-8.68a12.07,12.07,0,0,1,1.39,2.56l-.82.35c-.08-.24-.18-.5-.3-.78a19.66,19.66,0,0,0-3.94.4,4,4,0,0,0-.34-1,1.29,1.29,0,0,0,.66-.43,8.29,8.29,0,0,0,1.52-2l1,.42a13.07,13.07,0,0,1-1.57,2l2.29-.13c-.21-.35-.42-.72-.64-1Zm5.86-1.06H84.71V136.4h9.35Zm-8.42,6.43a10.26,10.26,0,0,1-.14,1.78c.69-.24,1.58-.62,2.53-1.06v-2.11H85.63Zm1.84-8.77H85.7v1.47h1.78Zm-1.28,8a7,7,0,0,1,1.5.74l-.46.63a7.84,7.84,0,0,0-1.52-.78Zm4-8H88.4v1.47h1.82Zm1.09,7.36c-1.15,0-1.44-.27-1.44-1.31v-3.41h1v1.23H94V142H90.9v1.36c0,.32.06.4.53.4H93c.38,0,.45-.16.5-1.23a2.33,2.33,0,0,0,.91.37c-.11,1.41-.42,1.78-1.28,1.78Zm1.89,4.64c.42,0,.5-.21.54-1.49a2.9,2.9,0,0,0,.91.38c-.13,1.6-.4,2-1.36,2H91.38c-1.18,0-1.49-.29-1.49-1.36V145h1v1.31H94.1v.85H90.92v1.73c0,.37.08.45.58.45Zm-.19-12H91.16v1.47H93Z"/><path class="cls-3" d="M100,143.4l-1.28.56v5.19c0,.61-.13.9-.48,1.09a4,4,0,0,1-1.76.21,4.77,4.77,0,0,0-.32-1l1.26,0c.18,0,.26-.06.26-.26v-4.79l-1.52.64-.38-1.1c.54-.18,1.18-.42,1.9-.7v-3H96v-1.09H97.7v-3.23h1v3.23h1v1.09h-1v2.61l1-.42Zm10.63,6.19H106.8v.86h-1V141c-.14.24-.29.48-.43.7a3.69,3.69,0,0,0-.35-.35v2.48h-2v.88h2.08v.85H103a9.79,9.79,0,0,1-.08,1h2.4v.88h-2.59l0,0a13.33,13.33,0,0,1,2.42,1.86l-.61.77a14,14,0,0,0-2.16-1.79,5,5,0,0,1-2.53,2.11,3.44,3.44,0,0,0-.56-.74,4.21,4.21,0,0,0,2.43-2.26H99.63v-.88H102a6.5,6.5,0,0,0,.11-1h-2v-.85h2v-.88h-2v-3.09h2v-.88h-1.38V138h-1v-.85h1v-1.34h.91v1.34h2v-1.34h.94v1.34h.91V138h-.91v1.86H103v.88h1.83a14.83,14.83,0,0,0,1.86-4.95l.94.19,0,.21.82-.3a11.63,11.63,0,0,1,1.14,2.67l-.91.35a11.89,11.89,0,0,0-1.06-2.67,24,24,0,0,1-.83,2.75h3.62v1H109v2.07h1.3v1H109v2.24h1.34v.93H109v2.42h1.63Zm-8.56-6.51v-1.5h-1.17v1.5Zm-.46-4h2V138h-2Zm2.61,2.45H103v1.5h1.2Zm2.58-1.5v2.07h1.3v-2.07Zm1.3,3h-1.3v2.24h1.3Zm-1.3,5.59h1.3v-2.42h-1.3Z"/><path class="cls-2" d="M263.46,28.35c.27,0,.34-.22.37-1.82a4.87,4.87,0,0,0,1.73.77c-.19,2.28-.68,2.91-1.87,2.91h-1.14c-1.55,0-1.87-.61-1.87-2.36v-3.4h-.78c-.26,2.69-.87,4.79-3.64,6a5.84,5.84,0,0,0-1-1.41v.37H252v.71h-1.73V24.29h5v4.56c2.11-.92,2.5-2.45,2.65-4.4h-1.1V19.83c-.19.19-.39.37-.58.54a12.63,12.63,0,0,0-1.43-1.43l.07-.05h-5.32V17.3h2.55a15.25,15.25,0,0,0-.82-2.14l1.7-.53a12.29,12.29,0,0,1,.94,2.19l-1.31.48h3v.94A11.7,11.7,0,0,0,258,14.72l1.87.58A17.39,17.39,0,0,1,257.53,19h5.83a31.74,31.74,0,0,0-2.79-3.54l1.41-1a27.59,27.59,0,0,1,3.6,4.5l-1.53,1.1c-.1-.19-.2-.37-.34-.58v4.86h-1.07V27.8c0,.49,0,.54.27.54ZM255,21.19h-4.79V19.66H255Zm-4.79.75H255v1.53h-4.79Zm3.35,4H252v1.9h1.65Zm5.12-3.21h3V20.8h-3Z"/><path class="cls-2" d="M269.93,25.8v1.46h-1.87V15.41h5.66V25.8Zm0-8.55v2.41h1.92V17.25ZM271.85,24v-2.5h-1.92V24ZM282.66,28c0,1.07-.22,1.6-.88,1.94a7.61,7.61,0,0,1-3.08.37,6.9,6.9,0,0,0-.7-2c.92.05,1.94,0,2.23,0s.42-.1.42-.39V25H277a9,9,0,0,1-2.92,5.42,6.72,6.72,0,0,0-1.55-1.31c2.57-2.11,2.79-5.29,2.79-7.84V15.17h7.34Zm-2-4.83V21H277.3v.27c0,.59,0,1.24-.07,1.9ZM277.3,17v2.18h3.35V17Z"/><rect class="cls-4" x="1" y="3.45" width="506.76" height="160.34"/><line class="cls-4" x1="1" y1="82.95" x2="507.76" y2="82.95"/><line class="cls-4" x1="1" y1="163.78" x2="507.76" y2="163.78"/><line class="cls-4" x1="1" y1="122.45" x2="507.76" y2="122.45"/><line class="cls-4" x1="68.73" y1="3.45" x2="68.73" y2="163.78"/><line class="cls-4" x1="235.73" y1="3.45" x2="235.73" y2="163.78"/><path class="cls-3" d="M249.77,55.23h5.49v1h-5.49Zm5,3h-4.66v-.94h4.66Zm-4.64,1.22h4.66v.94h-4.66Zm4.61,6.82h-3.51V67h-1V61.6h4.55Zm-3.51-3.65v2.67h2.45V62.58Zm1.2-7.52a17.39,17.39,0,0,0-.8-2.16l1-.3a11.82,11.82,0,0,1,.83,2.1Zm10.93,10.87c0,.58-.11.86-.54,1a6.06,6.06,0,0,1-2.06.18,3.32,3.32,0,0,0-.34-1c.72,0,1.38,0,1.57,0s.26-.06.26-.24V64.56h-5a5.88,5.88,0,0,1-1.15,2.8,3.86,3.86,0,0,0-.83-.78,6.54,6.54,0,0,0,1.06-4.08V59.55h7Zm.93-8.23v.91h-8.88v-.91h3.78V56.61H256v-.86h3.2v-1h-3.6v-.91h3.6v-1.3h1.17v1.3h3.78v.91h-3.78v1h3.47v.86h-3.47v1.09Zm-2,6V62.53h-4.8c0,.37,0,.77,0,1.18Zm-4.8-3.22v1.18h4.8V60.5Z"/><path class="cls-3" d="M270.91,53.64c-.46,1.31-1,2.87-1.58,4.13a5.11,5.11,0,0,1,1.44,3.47,2.21,2.21,0,0,1-.64,1.86,1.53,1.53,0,0,1-.82.3,6,6,0,0,1-1.07,0,2.64,2.64,0,0,0-.3-1.06,4.6,4.6,0,0,0,.93,0,1,1,0,0,0,.5-.14,1.45,1.45,0,0,0,.34-1.12,4.75,4.75,0,0,0-1.44-3.23c.46-1.15.94-2.53,1.26-3.59H267.4V67.17h-1.06V53.23H270l.18,0Zm9.46,1.1H279V65.67c0,.83-.22,1.14-.78,1.31a12,12,0,0,1-3.19.18,5.22,5.22,0,0,0-.4-1.07c1.25,0,2.45,0,2.78,0s.46-.11.46-.43V54.75h-6.75v-1.1h9.25Zm-7.68,8V64h-1V57h4.5v5.78Zm0-4.74v3.7h2.4V58Z"/><path class="cls-3" d="M285.54,65.43c-.26-.37-.64-.85-1.06-1.34a13,13,0,0,1-2.13,3,2.44,2.44,0,0,0-.75-.66,11.24,11.24,0,0,0,2.18-3.17c-.61-.67-1.26-1.38-1.84-2,.27-1.1.56-2.61.82-4.19l-1,.06-.13-1.07L282.9,56c.18-1.18.32-2.4.4-3.47l1,0c-.08,1-.22,2.21-.4,3.39l1.22-.06V54.81H286V55.9l.74,0v1l-.75,0a17.89,17.89,0,0,1-1.07,6.18c.54.59,1,1.15,1.34,1.57Zm-1.82-8.36c-.24,1.46-.51,2.87-.75,4,.38.38.82.83,1.22,1.25a16.55,16.55,0,0,0,.88-5.33Zm4.5-2.29v3.87c0,2.51-.21,6.1-1.68,8.52a3,3,0,0,0-.88-.56c1.42-2.32,1.55-5.59,1.55-8V53.81h4.13c-.14-.37-.35-.75-.51-1.09l1-.22a10.14,10.14,0,0,1,.67,1.31h3.62v1Zm6.4,9a23.36,23.36,0,0,1,1.65,2.74l-.94.4c-.1-.24-.26-.53-.42-.86-5.36.53-6,.58-6.32.72a6.39,6.39,0,0,0-.32-1,4.36,4.36,0,0,0,1.38-.64,19.72,19.72,0,0,0,1.94-1.3,11,11,0,0,0-2.77.29,7.21,7.21,0,0,0-.3-1,2,2,0,0,0,.88-.38,13.87,13.87,0,0,0,2.45-1.9l.86.51a16.49,16.49,0,0,1-2.34,1.68l2.32-.11a14.54,14.54,0,0,0,1.15-1l.91.61a33.75,33.75,0,0,1-4.27,3l4-.37c-.22-.38-.46-.77-.69-1.09Zm-5.09-5.68a4.13,4.13,0,0,1-.69,2.58,1.85,1.85,0,0,0-.53-.4,3.49,3.49,0,0,0,.61-2.21v-.59h.61Zm.48,3.14V57.13h-1.47V56.4h1.36V55.23h.93V56.4H292v.74h-1.28v4.15Zm3.23-3.14a3.88,3.88,0,0,1-.72,2.53,2.73,2.73,0,0,0-.54-.42,2,2,0,0,0,.32-.46,1.82,1.82,0,0,1-.45,0h-.11c-.51,0-.61-.24-.61-.82V57.57h.62V59c0,.24,0,.3.13.32a1.69,1.69,0,0,0,.38,0,2.25,2.25,0,0,0,0,.46,3.65,3.65,0,0,0,.32-1.65v-.59h.62Zm.4,3.15V57.13h-1.26v-.75h1.18V55.25h.93v1.14h1.58v.75H294.4V61.3Zm2.11-1.57a2.73,2.73,0,0,0,.48,0c0,.16,0,.35,0,.51a2.21,2.21,0,0,1-.48,0h-.34c-.54,0-.66-.24-.66-.85V57.55h.66v1.82c0,.29,0,.35.18.35Z"/><path class="cls-3" d="M299.22,62.93a20.68,20.68,0,0,1-.78,3.86,4.79,4.79,0,0,0-.88-.34,17.75,17.75,0,0,0,.75-3.68Zm-1.65-5.46c.27-.06.53-.4.85-.88a21.28,21.28,0,0,0,2-4l1,.43a28.51,28.51,0,0,1-2.37,4.27l1.65-.16a22.21,22.21,0,0,0,1.17-2.19l.94.54a33.06,33.06,0,0,1-3.52,5.33l2.75-.4c-.18-.54-.4-1.1-.61-1.58l.85-.3a17.3,17.3,0,0,1,1.07,3.07l-.9.34c0-.19-.1-.42-.16-.66-3.55.54-4,.67-4.32.83a9.15,9.15,0,0,0-.37-1c.34-.06.69-.46,1.15-1.06a21.33,21.33,0,0,0,1.33-1.89,8,8,0,0,0-2.23.38A9.65,9.65,0,0,0,297.58,57.47Zm3.23,5.23a29.22,29.22,0,0,1,.42,3.28l-.9.22a29.35,29.35,0,0,0-.37-3.33Zm4-3.73a25.07,25.07,0,0,1-1.2,8.18,4.56,4.56,0,0,0-1-.56,11.72,11.72,0,0,0,.54-1.79l-.83.32a19.89,19.89,0,0,0-.72-2.54l.8-.29a22.71,22.71,0,0,1,.77,2.5,33.7,33.7,0,0,0,.54-6.83V53.68a37.64,37.64,0,0,0,6.63-1.1l.93.8a36.64,36.64,0,0,1-6.47,1.1v1h6.48V59Zm0-2.54V58h5.43V56.43Zm6.83,9.64c0,.45-.06.66-.34.83a2.74,2.74,0,0,1-1.2.14,2.78,2.78,0,0,0-.26-.83,4.88,4.88,0,0,0,.7,0c.11,0,.14,0,.14-.14V63.84h-1.14v3h-.75v-3h-1.12v3.1H307v-3.1h-1.09v3.33H305V60.08h6.71ZM307,62.88V61.07h-1.09v1.81Zm1.86,0V61.07h-1.12v1.81Zm1.89,0V61.07h-1.14v1.81Z"/><path class="cls-3" d="M315.26,62.91a21.57,21.57,0,0,1-.78,3.84,6.11,6.11,0,0,0-.82-.29,16.08,16.08,0,0,0,.75-3.68Zm2.59-.8a8.69,8.69,0,0,0-.16-.86,17,17,0,0,0-3.54.83,6.94,6.94,0,0,0-.34-1c.3-.08.62-.5,1.07-1.09a20.68,20.68,0,0,0,1.26-1.94,7.56,7.56,0,0,0-2.11.4,7,7,0,0,0-.35-1c.26-.06.5-.38.77-.88a17.83,17.83,0,0,0,1.78-4l1,.43a26.59,26.59,0,0,1-2.11,4.27l1.55-.13a22.81,22.81,0,0,0,1-2.1l.94.5a31.27,31.27,0,0,1-3.22,5.19l2.06-.34a12.31,12.31,0,0,0-.42-1.47l.8-.18a20.14,20.14,0,0,1,.82,3.12Zm-1.28.66a31.4,31.4,0,0,1,.43,3.38l-.85.19a27.42,27.42,0,0,0-.38-3.41Zm1.36-.32a24.6,24.6,0,0,1,1,3.07l-.8.27a25.39,25.39,0,0,0-.91-3.11Zm10-3a15.33,15.33,0,0,1-1.82,4c.29,1.23.62,2,1,2,.24,0,.42-.74.51-2a2.76,2.76,0,0,0,.77.59c-.29,2.15-.78,2.74-1.3,2.72-.8,0-1.36-.83-1.79-2.21a11.65,11.65,0,0,1-2.55,2.39,4.44,4.44,0,0,0-.72-.74,11.08,11.08,0,0,0,1.1-.83h-.54v-.42h-2.37V66h-.93V59.3h4.29v5.6A12.57,12.57,0,0,0,325,63.26a41.55,41.55,0,0,1-.58-4.88h-6v-1h1.46a11.68,11.68,0,0,0-.43-1.9l.82-.18a9.41,9.41,0,0,1,.51,2.08h1.12a19.09,19.09,0,0,0,.54-2.08l1,.24-.62,1.84h1.6c-.08-1.49-.13-3.11-.16-4.8h1c0,1.7.06,3.31.14,4.8h2.79v1h-2.74c.08,1.36.21,2.61.37,3.65A13.81,13.81,0,0,0,327,59.18Zm-4-4.16h-5.22v-.94H321A13.22,13.22,0,0,0,320.3,53l1-.32a8.75,8.75,0,0,1,.9,1.65H324Zm-3.71,4.9v1.47h2.37V60.16ZM322.62,64V62.5h-2.37V64Zm4.69-7.12a15.41,15.41,0,0,0-1.52-2.9l.88-.37a15.3,15.3,0,0,1,1.55,2.82Z"/><path class="cls-3" d="M344.3,59.06v1.3H329.77v-1.3Z"/><path class="cls-3" d="M353.13,60.13c-2.61.37-5.35.72-7.27.94l-.14-1.15,1.06-.11V54.3h1.1v5.38l1.41-.18V52.56h1.17v2.74H353v1.09h-2.55v3l2.64-.3ZM346,65.6h14.1v1.17H346Zm1.78-3.47h10.72v1.14H347.74Zm8-1.52c-1.5,0-1.89-.4-1.89-1.79V52.56H355v2.75h4.18V56.4H355v2.43c0,.53.13.64.85.64h2.54c.59,0,.69-.29.77-1.86a3.27,3.27,0,0,0,1.09.45c-.14,2-.51,2.54-1.78,2.54Z"/><path class="cls-3" d="M364.17,59v2.39c0,1.81-.27,4.26-1.71,5.91a4.14,4.14,0,0,0-.9-.77A7.71,7.71,0,0,0,363,61.39V58h2a5.1,5.1,0,0,0-.58-.59c1.26-.24,2.72-.56,4.1-.94-1.22-.35-2.47-.67-3.6-.93l.7-.58H363.1V54H369c-.27-.4-.58-.83-.86-1.18l.85-.43A13.79,13.79,0,0,1,370.2,54h5.36v1h-2.43l.64.38a16.76,16.76,0,0,1-2.45,1.07c1.17.35,2.26.7,3.06,1l-.64.59h2.32v1Zm12.15,6.63v1H364.46v-1h5.23V64H366v-1h3.73V61.65h-3.35a8.91,8.91,0,0,1-1.52,2,5.56,5.56,0,0,0-.62-1,8.93,8.93,0,0,0,2.11-3.35l1,.29c-.14.37-.29.72-.45,1.09h2.8V59.31h1.17v1.36h4.31v1h-4.31v1.42h4v1h-4v1.62Zm-3-7.62c-.93-.35-2.1-.74-3.39-1.14-1.44.46-3,.83-4.32,1.14ZM366,55c1.25.3,2.66.67,4,1.07A17.48,17.48,0,0,0,372.7,55Z"/><path class="cls-3" d="M378.38,60.21H384V67h-1.17v-.72h-3.35v.86h-1.14Zm1.14,1.15v3.79h3.35V61.36Zm9.89-2.83H380.7v-5.3h8.71Zm-1.2-4.16h-6.35v3h6.35Zm3.52,5.84v6.85h-1.17v-.75h-3.63v.86h-1.15v-7Zm-1.17,4.95V61.36h-3.63v3.79Z"/><path class="cls-3" d="M252.23,107.68a9.58,9.58,0,0,1-1.78,3.44,8.06,8.06,0,0,0-.9-.64,7,7,0,0,0,1.6-3Zm2.64-.58h-4.5v-10h4.5Zm-1.07-9h-2.38v2h2.38Zm0,3h-2.38v2h2.38Zm0,3h-2.38v2.08h2.38Zm.26,3.38a13.5,13.5,0,0,1,1.33,2.46l-.94.45a13.36,13.36,0,0,0-1.28-2.51Zm10.26,1.06h-1v1.39c0,.58-.13.88-.53,1.06a8.27,8.27,0,0,1-2.32.16,3.84,3.84,0,0,0-.34-1l1.82,0c.19,0,.27-.06.27-.27v-1.39h-5.06v2.64h-1.07v-2.64h-1v-.91h1V103.5h3v-.93h-4v-.9h2.3v-1.06h-1.52v-.88h1.52v-1h-1.94v-.9h1.94V96.51h1.06v1.38h2.37V96.51H262v1.38h2v.9h-2v1h1.7v.88H262v1.06h2.29v.9h-4v.93h3.14v4.07h1Zm-7.11-4.08v1.14h2V104.4Zm0,3.17h2v-1.2h-2Zm1.31-7.83h2.37v-1h-2.37Zm0,1.94h2.37v-1.06h-2.37Zm1.7,2.72v1.14h2V104.4Zm2,3.17v-1.2h-2v1.2Z"/><path class="cls-3" d="M271.67,109.19a21.54,21.54,0,0,1-4.95,2,7.7,7.7,0,0,0-.88-.9,18.58,18.58,0,0,0,4.75-1.57Zm7.54-11.94v3.52H266.92V97.25Zm-.91,4.45v6.85H267.86V101.7ZM268,99.84h2.59V98.17H268Zm1,3.87h8.05v-1.18H269Zm0,2h8.05v-1.18H269Zm0,2h8.05v-1.23H269Zm2.59-7.88h2.67V98.17h-2.67Zm3.63,8.87c1.81.56,3.76,1.26,5,1.79l-1.25.64a35.74,35.74,0,0,0-4.66-1.78Zm.06-8.87h2.75V98.17h-2.75Z"/><path class="cls-3" d="M295.29,109.56c0,.75-.16,1.14-.69,1.34a10.3,10.3,0,0,1-2.82.19,4.24,4.24,0,0,0-.4-1.2c1,0,2,0,2.35,0s.35-.1.35-.35v-8.34H290a6.87,6.87,0,0,0,3.91,5.11,6.58,6.58,0,0,0-.83,1,7.82,7.82,0,0,1-4-5.23,8,8,0,0,1-4.11,5.31,5.63,5.63,0,0,0-.8-.94,7.16,7.16,0,0,0,4-5.28H284v9.89h-1.18V100h5.83c-.08-.56-.14-1.15-.18-1.78h-2.88V97.21h3.89a25,25,0,0,0,.29,2.83h5.54Z"/><path class="cls-3" d="M302.6,106.88c-.3-.51-1-1.44-1.57-2.21v6.43h-1.09v-6.34a17.23,17.23,0,0,1-2,2,4,4,0,0,0-.58-1.14,15.38,15.38,0,0,0,4.15-5.25h-3.71V99.33h4.29l.19,0,.61.48a16.42,16.42,0,0,1-1.87,3.55v0a7.55,7.55,0,0,1,.53.59,14,14,0,0,0,1.25-1.57l.72.66c-.46.51-1,1.07-1.44,1.49.51.58,1,1.18,1.18,1.41Zm-1.9-7.76A14.3,14.3,0,0,0,299.42,97l.85-.54a14.32,14.32,0,0,1,1.33,2Zm11.59,10.53v1.07h-9.06v-1.07h3.91v-2.32h-3.25v-1.06h3.25v-1.79h-3.25V97.2h7.71v7.28h-3.35v1.79h3.46v1.06h-3.46v2.32ZM305,100.34h2.16v-2.1H305Zm2.16,3.12v-2.14H305v2.14Zm3.35-5.22h-2.23v2.1h2.23Zm0,3.07h-2.23v2.14h2.23Z"/><path class="cls-3" d="M319.35,100.1a19.39,19.39,0,0,1-1.68,2.91h3.49v-2.14h1.18V103h4.79v5.12c0,.64-.14,1-.64,1.15a8.57,8.57,0,0,1-2.71.19,4.13,4.13,0,0,0-.38-1.07c1,0,2,0,2.19,0s.35-.08.35-.3v-4h-3.6v7h-1.18v-7h-3.39v5.52h-1.18V104.4a12.48,12.48,0,0,1-2.32,2.08,5.89,5.89,0,0,0-.7-1A14.15,14.15,0,0,0,318,100.1h-4V98.94h4.53a18.47,18.47,0,0,0,.85-2.45l1.23.29c-.22.72-.5,1.44-.77,2.16H328v1.15Z"/><path class="cls-3" d="M339.32,105.22l-1.09.91a27.49,27.49,0,0,0-3.54-3.55l1-.91A30.09,30.09,0,0,1,339.32,105.22Z"/><path class="cls-3" d="M352.62,108.28l.06,1c-2.23.48-4.61,1-6.32,1.33l-.26-1.07c.78-.13,1.82-.32,2.95-.53v-4.61h-2.79v-1H349v-1.73h-1.7v-.71c-.29.24-.54.48-.83.71a7.27,7.27,0,0,0-.56-1.2,11.87,11.87,0,0,0,3.57-4l1,.42c-.11.21-.24.43-.38.66a20,20,0,0,1,2.91,2.13l-.67.93a20.88,20.88,0,0,0-2.8-2.18,17.83,17.83,0,0,1-1.87,2.18H352v1H350.1v1.73h2.47v1H350.1v4.42Zm-5-3.07a17.82,17.82,0,0,1,.69,2.93l-.9.24a16.11,16.11,0,0,0-.62-3Zm3,2.74a19.24,19.24,0,0,0,.78-2.93l1,.29c-.3,1-.67,2.14-1,2.88Zm9.76-4.93h-3.28v8.1h-1.2V103h-3.28v-1.17h3.28V96.65h1.2v5.19h3.28Z"/><path class="cls-3" d="M366.23,106.21c0-.27-.1-.59-.16-.91-3.19.46-3.68.58-4,.74a12,12,0,0,0-.38-1.14c.34-.08.69-.46,1.17-1.06a18.22,18.22,0,0,0,1.31-1.78,8.65,8.65,0,0,0-2.19.38,11.18,11.18,0,0,0-.38-1.09c.27-.06.54-.38.85-.88a19.84,19.84,0,0,0,2-4l1.1.46a26,26,0,0,1-2.42,4.23l1.66-.16a21.13,21.13,0,0,0,1.18-2.13l1.06.61a31.39,31.39,0,0,1-3.57,5.17l2.31-.3c-.14-.54-.3-1.09-.48-1.58l.91-.24a22.91,22.91,0,0,1,.93,3.39Zm-2.88.67a21.24,21.24,0,0,1-.82,3.94,6.72,6.72,0,0,0-.91-.34,16.26,16.26,0,0,0,.77-3.76Zm1.49-.19c.18,1.09.35,2.48.4,3.41l-.94.18a27.74,27.74,0,0,0-.35-3.43Zm1.42-.38a18.42,18.42,0,0,1,.8,2.56l-.88.29a20,20,0,0,0-.75-2.61Zm4.82-1a7.7,7.7,0,0,1-3.59,5,3.91,3.91,0,0,0-.69-.85,6.31,6.31,0,0,0,2.93-3.41h-2.06v-1h2.53l.19,0Zm4.93-.26c-.72.66-1.54,1.39-2.24,1.92a6.93,6.93,0,0,0,2.61,2.5,4.58,4.58,0,0,0-.78.95,8.58,8.58,0,0,1-3-3.63v3c0,.61-.13.93-.56,1.12a5.8,5.8,0,0,1-2.11.21,4.66,4.66,0,0,0-.35-1.1c.75,0,1.42,0,1.62,0s.27-.06.27-.26v-6h-3.19v-5.6h2.45a11.51,11.51,0,0,0,.54-1.7l1.33.27-.67,1.42h3.6v5.6h-2.93v.58a9.62,9.62,0,0,0,.75,1.84,19.17,19.17,0,0,0,1.79-1.86Zm-6.64-4.55h5V99.14h-5Zm0,2.32h5v-1.42h-5Z"/><path class="cls-3" d="M391.56,102.11a11.79,11.79,0,0,1-3.52,6,12.5,12.5,0,0,0,4.32,1.91,5.19,5.19,0,0,0-.82,1.12,12.33,12.33,0,0,1-4.5-2.22,15,15,0,0,1-5.07,2.34,4.16,4.16,0,0,0-.67-1.09,13.57,13.57,0,0,0,4.8-2.08,13.49,13.49,0,0,1-3.17-5.14h-.59a12.55,12.55,0,0,1-3.84,7.91,4.76,4.76,0,0,0-.86-1c3.39-3.15,3.67-7.14,3.67-10V98.41h-2.8V97.25h9.81c-.32,1.47-.74,3.26-1.09,4.56h3.28l.22-.06Zm-9.06-2.26c0,.61,0,1.26-.06,2h3.51c.29-1,.61-2.24.86-3.39h-4.31Zm1.58,3.07a11.19,11.19,0,0,0,3,4.39,10,10,0,0,0,2.93-4.39Z"/><path class="cls-3" d="M395.86,107.6c1.36-.4,3-.88,4.55-1.36l.16,1.06c-2.23.72-4.61,1.47-6.35,2l-.27-1.17.75-.21V98.37a24,24,0,0,0,4.66-1.54l.93.95a27.25,27.25,0,0,1-4.42,1.36v3h4.43v1.15h-4.43Zm11.83-.5c0,.69-.14,1.1-.64,1.31a7.17,7.17,0,0,1-2.51.24,5.13,5.13,0,0,0-.48-1.26c1,0,1.86,0,2.11,0s.34-.1.34-.34V98.8h-4v12.26h-1.17V97.63h6.31Z"/><path class="cls-3" d="M423.29,106.91a21.56,21.56,0,0,1-2.9,1.65,10.25,10.25,0,0,0,3.89,1.39,3.93,3.93,0,0,0-.66,1,8.78,8.78,0,0,1-6.61-4.67,14,14,0,0,1-2.8,1.62v1.82l3.67-.78a6.09,6.09,0,0,0,0,.91c-4.19,1-4.71,1.14-5,1.33v-.08a3.55,3.55,0,0,0-.42-.82,1.35,1.35,0,0,0,.67-1.22v-.72a21.46,21.46,0,0,1-2.77.8,4.18,4.18,0,0,0-.66-.88,18.46,18.46,0,0,0,5.84-2.07h-5.57v-1h6.75c-.14-.32-.34-.69-.5-1l1.1-.32a10,10,0,0,1,.67,1.3h6.1v1h-6A6.42,6.42,0,0,0,419.6,108a22.81,22.81,0,0,0,2.83-1.66Zm-9.81-6.59h-3.6v-.86h3.6v-1h-1.9a7.68,7.68,0,0,1-.61,1,7.27,7.27,0,0,0-.85-.46,7.11,7.11,0,0,0,1.26-2.42l.94.22c-.1.29-.22.58-.35.86h1.5V96.49h1v1.15h2.82v.83h-2.82v1h3.38v.86h-3.38v.85h3v2c0,.45-.08.66-.43.8a4.09,4.09,0,0,1-1.5.14,3.26,3.26,0,0,0-.32-.77,10.72,10.72,0,0,0,1.07,0c.14,0,.18,0,.18-.18V102h-2v2.59h-1V102h-1.82v2.18h-1v-3h2.79Zm6.72,2.21h-1.07V97.31h1.07Zm3,.72c0,.62-.14.88-.58,1.06a7.61,7.61,0,0,1-2.3.18,3.35,3.35,0,0,0-.38-1c.88,0,1.65,0,1.87,0s.3-.06.3-.27V96.65h1.09Z"/><path class="cls-3" d="M428.18,98.53a10,10,0,0,1-1.65,1.87,7.5,7.5,0,0,0-.82-.77,9,9,0,0,0,2.46-3.23l1.06.29c-.13.3-.29.59-.43.88h4.1v1h-3.07a12.94,12.94,0,0,1,1.33,1.3l-.78.67a13.6,13.6,0,0,0-1.44-1.5l.61-.46Zm-.43,6.11v6.47h-1.1V100.54h5.59v4.1Zm0-3.31v.88h3.39v-.88Zm3.39,2.53V103h-3.39v.9Zm0,5.94v.58h-1.09v-4.91H436v4.34Zm0-3.59v1h3.75v-1Zm3.75,2.83V108h-3.75V109Zm5.33-10.52h-3.52a11.31,11.31,0,0,1,1.47,1.31l-.77.7h1.92v9.2c0,.67-.14,1-.59,1.17a7.44,7.44,0,0,1-2.46.19,3.72,3.72,0,0,0-.37-1.07c.91,0,1.74,0,2,0s.34-.1.34-.32v-5.11h-4.66v-4.1h3.81a11.2,11.2,0,0,0-1.52-1.46l.69-.56h-1.62a8.38,8.38,0,0,1-1.46,1.81,7.22,7.22,0,0,0-.91-.7,7.52,7.52,0,0,0,2.14-3.23l1.09.26a6.57,6.57,0,0,1-.37.93h4.8Zm-2,2.8h-3.57v.88h3.57Zm0,2.53V103h-3.57v.9Z"/><path class="cls-3" d="M456.06,108.85h-6.5v2.26h-1.22v-2.26H442v-1h6.37v-1.22h-4.77V101h11v5.57h-5v1.22h6.5Zm-7.67-8.63h-5.25v-3.1h5.25Zm-1.12-2.3h-3.06v1.5h3.06Zm-2.54,5.43h3.62V102h-3.62Zm3.62,2.29v-1.38h-3.62v1.38Zm5-3.65h-3.81v1.36h3.81Zm0,2.27h-3.81v1.38h3.81Zm1.58-4h-5.28v-3.1H455Zm-1.1-2.3h-3.09v1.5h3.09Z"/><path class="cls-3" d="M461.37,99.78a15.52,15.52,0,0,1-2.77,3,7.52,7.52,0,0,0-1-.87,13.81,13.81,0,0,0,4.26-5.54l1.2.35a17.21,17.21,0,0,1-1,1.87h8.84v.56c-.18,5.31-.34,7.17-.78,7.75a1.29,1.29,0,0,1-1,.54,11.8,11.8,0,0,1-1.86,0,3.24,3.24,0,0,0-.3-1.14,13,13,0,0,0,1.6.06.51.51,0,0,0,.53-.21c.3-.38.48-2,.61-6.43Zm8.05,9.88c1.36,0,1.58-.35,1.76-2a3.63,3.63,0,0,0,1.14.43c-.24,2.1-.72,2.69-2.88,2.69h-6c-2.5,0-3.23-.43-3.23-2.21v-7.14h6.5v4.72h-5.33v2.42c0,.86.3,1.09,2,1.09Zm-8.08-7.15v2.58h4.16V102.5Z"/><path class="cls-3" d="M476.18,101.7a3.44,3.44,0,0,1-1.94,2.95,2.38,2.38,0,0,0-.67-.77,2.61,2.61,0,0,0,1.52-2.18h-1.15v-1h4v-.94H474.7v-3h1v2h2.18V96.49H479v7.84h-1.12V101.7Zm11.09,5.14a21.64,21.64,0,0,1-2.83,1.62,10.81,10.81,0,0,0,4,1.63,3.64,3.64,0,0,0-.69,1,9.91,9.91,0,0,1-6.8-5.11h0a12.4,12.4,0,0,1-2.46,1.5v2.26l3.75-.77a6.6,6.6,0,0,0,0,.94c-4.32,1-4.83,1.14-5.15,1.31a4.39,4.39,0,0,0-.48-.94,1.27,1.27,0,0,0,.77-1.18v-1.12a17.94,17.94,0,0,1-2.93.88,4.18,4.18,0,0,0-.66-.88,18.14,18.14,0,0,0,5.62-2h-5.39V105h6.66c-.16-.34-.35-.72-.53-1l1.14-.34a10.25,10.25,0,0,1,.74,1.36h6.26v.94h-6.07a7.87,7.87,0,0,0,1.6,1.92,22.21,22.21,0,0,0,2.72-1.65Zm-4.11-7.09h-3.44v-1h3.44V96.49h1.17V98.7h3.59v1h-3.59v2.64h3.27v1h-7.52v-1h3.09Z"/><path class="cls-3" d="M254.38,136.23a23.58,23.58,0,0,1-1.65,3.46v10.72h-1.12v-9a15.65,15.65,0,0,1-1.62,2,6.54,6.54,0,0,0-.67-1.15,18.27,18.27,0,0,0,4-6.35Zm3.31,3.14a17.34,17.34,0,0,1-1.44,2.71h2.61v-2H260v2h3.63V147c0,.56-.11.9-.53,1.07a5.4,5.4,0,0,1-2,.19,4,4,0,0,0-.34-1.07c.7,0,1.3,0,1.49,0s.24-.06.24-.22v-3.83H260v7.27h-1.15v-7.27h-2.3v5.3h-1.12v-5.23a13.14,13.14,0,0,1-1.6,1.67A6.14,6.14,0,0,0,253,144a12.59,12.59,0,0,0,3.43-4.59h-2.72v-1.09h3.19a24,24,0,0,0,.8-2.5l1.14.22c-.21.78-.45,1.54-.72,2.27h6.21v1.09Z"/><path class="cls-3" d="M280.08,149.08v.9H266v-.9h2.11v-6.67h3.71c.06-.3.13-.61.19-1h-5.86v-.93h6c0-.3.1-.62.13-.91h-5.36v-3.17h12.34v3.17h-5.78c0,.29-.11.61-.18.91h6.42v.93h-6.59c-.08.35-.14.66-.22,1h5v6.67Zm-9.49-11.78h-2.53v1.44h2.53Zm-1.38,5.91v.9h7.51v-.9Zm7.51,1.62h-7.51v.91h7.51Zm-7.51,2.58h7.51v-1h-7.51Zm0,1.68h7.51v-1h-7.51Zm2.48-10.34h2.63V137.3h-2.62Zm3.71,0h2.69V137.3H275.4Z"/><path class="cls-3" d="M287.71,148.58a23,23,0,0,1-4.95,1.87,6.36,6.36,0,0,0-.85-.9,19.28,19.28,0,0,0,4.72-1.46Zm3.84-.5a43.49,43.49,0,0,1,4.5,1.55l-.9.74a39,39,0,0,0-4.71-1.71l.59-.58h-7.09V143c-.42.13-.9.24-1.42.35a4.22,4.22,0,0,0-.56-.93,7.83,7.83,0,0,0,3.86-1.49H283.1c.14-.7.3-1.7.4-2.53h3.19v-.91h-3.91v-.78h3.91v-.88h1.09v.88h2.47v-.88h1.12v.88h3.57v2.48h-3.57v1h4.56s0,.24,0,.38c-.1.86-.19,1.33-.42,1.54a1.14,1.14,0,0,1-.77.29l-.42,0v5.7Zm-7.11-8.88q-.07.5-.14,1h2.11a2.84,2.84,0,0,0,.24-1Zm8.66,3.65h-8v1h8Zm0,1.73h-8v1h8Zm-8,2.74h8v-1h-8Zm2.16-6.37a3.34,3.34,0,0,1-1.14,1.14h7.15a1.78,1.78,0,0,0-.19-.51c.48,0,.91.06,1.09.06s.29,0,.37-.11a1,1,0,0,0,.19-.58h-3.38v1.1h-1.12V141Zm3-1.75h-2.5a3.78,3.78,0,0,1-.16,1h2.66Zm-2.47-.78h2.47v-.91h-2.47Zm3.59-.91v.91h2.48v-.91Z"/><path class="cls-3" d="M311.15,148.84c0,.77-.21,1.12-.72,1.33a10.45,10.45,0,0,1-3,.19,4.73,4.73,0,0,0-.4-1.15c1.12,0,2.21,0,2.5,0s.43-.11.43-.42v-3.25h-4.31v4.72h-1.18v-4.72h-4a9.19,9.19,0,0,1-2,5,3.87,3.87,0,0,0-.91-.78c1.76-2,1.92-4.8,1.92-7V137h11.65Zm-6.66-4.4v-2.66h-3.83v.94c0,.53,0,1.12-.06,1.71Zm-3.83-6.34v2.56h3.83V138.1Zm9.32,0h-4.31v2.56H310Zm0,6.34v-2.66h-4.31v2.66Z"/><path class="cls-3" d="M327.56,141.45a11.8,11.8,0,0,1-3.52,6,12.5,12.5,0,0,0,4.32,1.9,5.17,5.17,0,0,0-.82,1.12,12.36,12.36,0,0,1-4.5-2.22,15,15,0,0,1-5.07,2.34,4.14,4.14,0,0,0-.67-1.09,13.57,13.57,0,0,0,4.8-2.08,13.49,13.49,0,0,1-3.17-5.14h-.59a12.56,12.56,0,0,1-3.84,7.91,4.79,4.79,0,0,0-.86-1c3.39-3.15,3.67-7.14,3.67-10v-1.44h-2.8v-1.17h9.81c-.32,1.47-.74,3.27-1.09,4.56h3.28l.22-.06Zm-9.06-2.26c0,.61,0,1.26-.06,2h3.51c.29-1,.61-2.24.86-3.39h-4.31Zm1.58,3.07a11.2,11.2,0,0,0,3,4.39,10,10,0,0,0,2.93-4.39Z"/><path class="cls-3" d="M333.75,143.4l-1.28.56v5.19c0,.61-.13.9-.48,1.09a4,4,0,0,1-1.76.21,4.79,4.79,0,0,0-.32-1l1.26,0c.18,0,.26-.06.26-.26v-4.79l-1.52.64-.38-1.1c.54-.18,1.18-.42,1.9-.7v-3h-1.68v-1.09h1.68v-3.23h1v3.23h1v1.09h-1v2.61l1-.42Zm10.63,6.19h-3.84v.86h-1V141c-.14.24-.29.48-.43.7a3.64,3.64,0,0,0-.35-.35v2.48h-2v.88h2.08v.85h-2.1a9.52,9.52,0,0,1-.08,1h2.4v.88h-2.59l0,0a13.33,13.33,0,0,1,2.42,1.86l-.61.77a14,14,0,0,0-2.16-1.79,5,5,0,0,1-2.53,2.11,3.44,3.44,0,0,0-.56-.74,4.21,4.21,0,0,0,2.43-2.26h-2.08v-.88h2.32a6.5,6.5,0,0,0,.11-1h-2v-.85h2v-.88h-2v-3.09h2v-.88h-1.38V138h-1v-.85h1v-1.34h.91v1.34h2v-1.34h.94v1.34h.91V138h-.91v1.86h-1.58v.88h1.82a14.83,14.83,0,0,0,1.86-4.95l.94.19,0,.21.82-.3a11.61,11.61,0,0,1,1.14,2.67l-.91.35a11.86,11.86,0,0,0-1.06-2.67,23.94,23.94,0,0,1-.83,2.75h3.62v1h-1.36v2.07H344v1h-1.3v2.24h1.34v.93h-1.34v2.42h1.63Zm-8.56-6.51v-1.5h-1.17v1.5Zm-.46-4h2V138h-2Zm2.61,2.45h-1.2v1.5H338Zm2.58-1.5v2.07h1.3v-2.07Zm1.3,3h-1.3v2.24h1.3Zm-1.3,5.59h1.3v-2.42h-1.3Z"/><path class="cls-3" d="M350.73,136.23a22.71,22.71,0,0,1-1.62,3.39v10.8h-1.18v-8.95a16.33,16.33,0,0,1-1.58,1.94,5.81,5.81,0,0,0-.67-1.17,17.78,17.78,0,0,0,3.94-6.35Zm9.48,12.42v1.15h-10v-1.15h5.59a69.51,69.51,0,0,0,1.52-7.92l1.23.22c-.42,2.45-1.07,5.57-1.65,7.7Zm-.66-8.77h-8.63v-1.15h8.63Zm-6.5,8a57.56,57.56,0,0,0-1.09-6.82l1.07-.24a63.44,63.44,0,0,1,1.18,6.72Zm1.81-9.36a17.76,17.76,0,0,0-.75-2.54l1.12-.29a24.39,24.39,0,0,1,.8,2.48Z"/><path class="cls-3" d="M367.71,148.58a23,23,0,0,1-4.95,1.87,6.36,6.36,0,0,0-.85-.9,19.28,19.28,0,0,0,4.72-1.46Zm3.84-.5a43.49,43.49,0,0,1,4.5,1.55l-.9.74a39,39,0,0,0-4.71-1.71l.59-.58h-7.09V143c-.42.13-.9.24-1.42.35a4.22,4.22,0,0,0-.56-.93,7.83,7.83,0,0,0,3.86-1.49H363.1c.14-.7.3-1.7.4-2.53h3.19v-.91h-3.91v-.78h3.91v-.88h1.09v.88h2.47v-.88h1.12v.88h3.57v2.48h-3.57v1h4.56s0,.24,0,.38c-.1.86-.19,1.33-.42,1.54a1.14,1.14,0,0,1-.77.29l-.42,0v5.7Zm-7.11-8.88q-.07.5-.14,1h2.11a2.84,2.84,0,0,0,.24-1Zm8.66,3.65h-8v1h8Zm0,1.73h-8v1h8Zm-8,2.74h8v-1h-8Zm2.16-6.37a3.34,3.34,0,0,1-1.14,1.14h7.15a1.78,1.78,0,0,0-.19-.51c.48,0,.91.06,1.09.06s.29,0,.37-.11a1,1,0,0,0,.19-.58h-3.38v1.1h-1.12V141Zm3-1.75h-2.5a3.78,3.78,0,0,1-.16,1h2.66Zm-2.47-.78h2.47v-.91h-2.47Zm3.59-.91v.91h2.48v-.91Z"/></g></svg>