<svg xmlns="http://www.w3.org/2000/svg" viewBox="0 0 508.76 238.89"><defs><style>.cls-1{fill:#ff9947;}.cls-1,.cls-4{stroke:#e0e0e0;stroke-miterlimit:10;stroke-width:2px;}.cls-2{fill:#001f2e;}.cls-3{fill:#e0e0e0;}.cls-4{fill:none;}</style></defs><title>budget</title><g id="預算表"><rect class="cls-1" x="1" y="3.45" width="506.76" height="36"/><path class="cls-2" d="M20.84,21.26V23h5.42v1.82H23.58l1.7.61c-.6,1-1.26,2-1.79,2.7h3.65V30H12.45V28.16h3.35a14.13,14.13,0,0,0-1.41-2.75l1.34-.56H13.26V23h5.41V21.26H15.22v-.83q-1.07.51-2.19.92a7.32,7.32,0,0,0-1.34-1.87c3.2-.92,6.25-2.63,7.87-5.17l1.92.87-.48.68a18.84,18.84,0,0,0,7,3.62,9.82,9.82,0,0,0-1.39,1.77,22.44,22.44,0,0,1-2.31-1v1ZM16.1,24.85a11.61,11.61,0,0,1,1.48,2.7l-1.39.61h2.48V24.85Zm6.66-5.44a19.55,19.55,0,0,1-2.94-2.21,15.1,15.1,0,0,1-2.75,2.21Zm-1.92,5.44v3.31H23l-1.14-.48a15.57,15.57,0,0,0,1.5-2.84Z"/><path class="cls-2" d="M36.69,25.12h.05v5.24H35v-.42H32.76v.44H31.08V25.46c-.2.08-.41.17-.61.24a6.92,6.92,0,0,0-1-1.6,11.18,11.18,0,0,0,2.94-1.31l-.88-.53,1.12-1.17,1.12.61a6,6,0,0,0,1-1.12H32.69a7.63,7.63,0,0,1-1.87,1.9,4.35,4.35,0,0,0-1-1.33A5.91,5.91,0,0,0,32.29,18l1.53.31a7,7,0,0,1-.29.76h2.14L36,19l0,0V17.76H31.4v1.46H29.94V16.16h3c-.12-.37-.25-.76-.37-1.07l1.61-.56c.2.49.44,1.1.65,1.63h2.72v3.06H36.21l.73.53a9.53,9.53,0,0,1-1.68,2.79c.92.53,1.82,1.07,2.4,1.48Zm-.58,0c-.56-.41-1.31-.88-2.11-1.38a11.07,11.07,0,0,1-2.16,1.38ZM35,28.37V26.68H32.76v1.68Zm8-1.36a19.39,19.39,0,0,1,2.77,2l-1.16,1.38a20.43,20.43,0,0,0-2.82-2.23l1-1.14H40.21l1.21,1.26a21,21,0,0,1-3.65,2.19A9.89,9.89,0,0,0,36.93,29a16,16,0,0,0,3.21-2H38.3V18h2.16c.07-.37.14-.78.19-1.17H37.88v-1.7h7.6v1.7h-3c-.1.41-.24.82-.36,1.17h2.92v9ZM40.1,20.58h3v-1h-3Zm0,2.45h3V22h-3Zm0,2.43h3v-1h-3Z"/><path class="cls-2" d="M86.42,25.15c-2.06.78-4.27,1.58-6,2.19l-.83-1.94,2.35-.7V18.18H80.08V16.31h5.81v1.87H84v5.9l2.09-.68ZM88.66,27l1.56,1.1a15.76,15.76,0,0,1-4.4,2.23A10,10,0,0,0,84.6,29a13.67,13.67,0,0,0,3.93-2H86.81V18h2.67c.08-.39.15-.8.22-1.17H86.11v-1.7h9.62v1.7H92c-.14.41-.29.8-.43,1.17h3.55v9Zm0-6.41h4.45V19.54H88.68Zm0,2.45h4.45V22H88.68Zm0,2.48h4.45V24.46H88.68Zm4,1.53A25.15,25.15,0,0,1,96,29.2l-1.6,1.19a24.26,24.26,0,0,0-3.28-2.24Z"/><path class="cls-2" d="M111.6,15.41V30.18h-2.14V29.13h-7.87v1.05h-2V15.41Zm-10,2v2h7.87v-2Zm0,3.86v2h7.87v-2Zm7.87,5.92v-2h-7.87v2Z"/><path class="cls-3" d="M85,64.38c-1.62.82-3.36,1.66-4.71,2.3l-.46-1.17c.61-.26,1.36-.58,2.18-.94v-5H80.16V58.44H82V55.11h1.1v3.33h1.73v1.12H83.14v4.5l1.63-.74Zm3-1.84a10.13,10.13,0,0,1-.69,1.12H94.2a4.63,4.63,0,0,1,0,.48c-.24,3.3-.5,4.55-.94,5a1.3,1.3,0,0,1-.9.4c-.35,0-.94,0-1.58,0a2,2,0,0,0-.27-1c.59,0,1.12.06,1.36.06s.37,0,.48-.18c.27-.29.51-1.3.72-3.81H91.77a11.13,11.13,0,0,1-3.27,5,3.65,3.65,0,0,0-.85-.69,9.41,9.41,0,0,0,3.12-4.32H89.22A12.09,12.09,0,0,1,85.33,69a3.14,3.14,0,0,0-.78-.74,10.56,10.56,0,0,0,3.6-3.59H86.53a11,11,0,0,1-2.08,1.82,5.23,5.23,0,0,0-.82-.74,9.07,9.07,0,0,0,3.17-3.2H84.56v-1h10v1Zm5.44-1.9H86.13V55.47h7.31Zm-1.1-4.27H87.22v1.26h5.12Zm0,2.1H87.22v1.28h5.12Z"/><path class="cls-3" d="M99.19,64.43l1.76-.75.24,1.06c-1.68.78-3.47,1.58-4.87,2.21l-.46-1.18c.61-.21,1.38-.53,2.21-.88V59.95H96.14V58.81h1.92V55.18h1.12v3.63h1.73v1.14H99.19Zm9.19,3.75c.93,0,1.09-.43,1.2-2.27a2.75,2.75,0,0,0,1.07.45c-.19,2.19-.56,2.9-2.23,2.9h-3.94c-1.81,0-2.35-.43-2.35-2.16v-5l-1.26.53-.46-1,1.73-.72V56.47h1.14v3.86l2.14-.9V55h1.14v4l2.43-1,.91.3-.06.19a57,57,0,0,1-.83,7l-1-.29a56.92,56.92,0,0,0,.61-5.84l-2.08.88v5.87h-1.14V60.67l-2.14.91V67.1c0,.86.21,1.07,1.25,1.07Z"/><path class="cls-3" d="M117.27,64.61c-.29-.53-1-1.63-1.5-2.45v7.43h-1.14v-7a17.44,17.44,0,0,1-2.23,4.15,6.56,6.56,0,0,0-.61-1.09,16.91,16.91,0,0,0,2.67-5H112V59.47h2.64V57.08c-.72.14-1.44.24-2.11.34a6.76,6.76,0,0,0-.35-.93,24.36,24.36,0,0,0,5.09-1.26l.7.94a15,15,0,0,1-2.19.66v2.64H118v1.12h-2.19v.27c.45.51,1.9,2.37,2.21,2.82ZM126.55,68V69.1h-9.27V68h1.6V55.9h6.18V68Zm-6.5-11v2.77h3.81V57Zm3.81,3.86h-3.81v3h3.81ZM120.05,68h3.81V64.91h-3.81Z"/><path class="cls-3" d="M135.84,60.86V63h5.59v1.09h-5.59V68h6.31v1.1H128.4V68h6.21V64.13h-5.49V63h5.49V60.86h-3.46V60a19.21,19.21,0,0,1-2.54,1.17,4.34,4.34,0,0,0-.8-1.09,14.29,14.29,0,0,0,7.44-5.22l1.09.51c-.11.18-.26.38-.4.58a17.46,17.46,0,0,0,6.83,4.13,4.33,4.33,0,0,0-.83,1,18.76,18.76,0,0,1-2.58-1.23v1Zm-4.4,3.62A13.37,13.37,0,0,1,133,67.34l-1,.43a13,13,0,0,0-1.47-2.9Zm7.73-4.72a18.61,18.61,0,0,1-3.89-3,16.46,16.46,0,0,1-3.75,3Zm-1.87,7.67A18.36,18.36,0,0,0,139,64.48l1.12.43a28.45,28.45,0,0,1-1.89,2.9Z"/><path class="cls-3" d="M14,64.69a2.71,2.71,0,0,0,.23,1.2,1.59,1.59,0,0,0,1.56.87,1.73,1.73,0,0,0,1.21-.48,1.78,1.78,0,0,0,.52-1.37,1.55,1.55,0,0,0-1-1.59,4.86,4.86,0,0,0-1.72-.22V61.4a4.46,4.46,0,0,0,1.6-.22,1.39,1.39,0,0,0,.79-1.41,1.58,1.58,0,0,0-.4-1.12,1.47,1.47,0,0,0-1.13-.43,1.43,1.43,0,0,0-1.23.53,2.26,2.26,0,0,0-.38,1.42H11.94a6,6,0,0,1,.31-1.7,3.84,3.84,0,0,1,.91-1.3,3.18,3.18,0,0,1,1.1-.65,4.76,4.76,0,0,1,1.57-.22,4.17,4.17,0,0,1,2.78.89,3,3,0,0,1,1.06,2.4A2.65,2.65,0,0,1,19,61.37a2.16,2.16,0,0,1-.83.62,1.71,1.71,0,0,1,.93.56,3,3,0,0,1,.9,2.29A3.86,3.86,0,0,1,19,67.52a4,4,0,0,1-3.13,1.16A3.79,3.79,0,0,1,12.3,67a5,5,0,0,1-.58-2.32Z"/><path class="cls-3" d="M22.56,70.35a1.85,1.85,0,0,0,1-.66,2.45,2.45,0,0,0,.39-1.3H22.56V65.9h2.56V68A5,5,0,0,1,25,69.23a2.4,2.4,0,0,1-.56,1.06,2.87,2.87,0,0,1-1,.73,2.68,2.68,0,0,1-.82.24Z"/><path class="cls-3" d="M35.06,57.88a9.36,9.36,0,0,1,.93,4.6,9.31,9.31,0,0,1-.93,4.59,3.4,3.4,0,0,1-3.22,1.61,3.4,3.4,0,0,1-3.22-1.61,9.31,9.31,0,0,1-.93-4.59,9.36,9.36,0,0,1,.93-4.6,3.4,3.4,0,0,1,3.22-1.62A3.4,3.4,0,0,1,35.06,57.88Zm-4.62,7.77a1.37,1.37,0,0,0,1.39,1.1,1.35,1.35,0,0,0,1.38-1.1,11.74,11.74,0,0,0,.33-3.18,11.61,11.61,0,0,0-.33-3.22,1.34,1.34,0,0,0-1.38-1,1.36,1.36,0,0,0-1.39,1,11.21,11.21,0,0,0-.34,3.22A11.33,11.33,0,0,0,30.44,65.66Z"/><path class="cls-3" d="M45.36,57.88a9.36,9.36,0,0,1,.93,4.6,9.31,9.31,0,0,1-.93,4.59,3.4,3.4,0,0,1-3.22,1.61,3.4,3.4,0,0,1-3.22-1.61A9.31,9.31,0,0,1,38,62.48a9.36,9.36,0,0,1,.93-4.6,3.4,3.4,0,0,1,3.22-1.62A3.4,3.4,0,0,1,45.36,57.88Zm-4.62,7.77a1.37,1.37,0,0,0,1.39,1.1,1.35,1.35,0,0,0,1.38-1.1,11.74,11.74,0,0,0,.33-3.18,11.61,11.61,0,0,0-.33-3.22,1.34,1.34,0,0,0-1.38-1,1.36,1.36,0,0,0-1.39,1,11.21,11.21,0,0,0-.34,3.22A11.33,11.33,0,0,0,40.74,65.66Z"/><path class="cls-3" d="M55.67,57.88a9.36,9.36,0,0,1,.93,4.6,9.31,9.31,0,0,1-.93,4.59,3.4,3.4,0,0,1-3.22,1.61,3.4,3.4,0,0,1-3.22-1.61,9.31,9.31,0,0,1-.93-4.59,9.36,9.36,0,0,1,.93-4.6,3.4,3.4,0,0,1,3.22-1.62A3.4,3.4,0,0,1,55.67,57.88ZM51,65.66a1.37,1.37,0,0,0,1.39,1.1,1.35,1.35,0,0,0,1.38-1.1,11.74,11.74,0,0,0,.33-3.18,11.61,11.61,0,0,0-.33-3.22,1.34,1.34,0,0,0-1.38-1,1.36,1.36,0,0,0-1.39,1,11.21,11.21,0,0,0-.34,3.22A11.33,11.33,0,0,0,51,65.66Z"/><path class="cls-3" d="M12.45,101.59V100A10.44,10.44,0,0,0,14,99.83a2.2,2.2,0,0,0,1.16-.63,2.08,2.08,0,0,0,.46-.86,2,2,0,0,0,.09-.48h2v12H15.28v-8.3Z"/><path class="cls-3" d="M22.56,111.86a1.85,1.85,0,0,0,1-.66,2.45,2.45,0,0,0,.39-1.3H22.56v-2.48h2.56v2.15a5,5,0,0,1-.15,1.18,2.4,2.4,0,0,1-.56,1.06,2.87,2.87,0,0,1-1,.73,2.68,2.68,0,0,1-.82.24Z"/><path class="cls-3" d="M33.39,100.89a1.21,1.21,0,0,0-.22-.64A1.3,1.3,0,0,0,32,99.68,1.71,1.71,0,0,0,30.36,101a8,8,0,0,0-.37,2.11,2.66,2.66,0,0,1,1-.76,3.74,3.74,0,0,1,4,.85,3.89,3.89,0,0,1,1,2.78,4.69,4.69,0,0,1-1,3,3.71,3.71,0,0,1-3.12,1.29,3.59,3.59,0,0,1-3.35-1.9,7.75,7.75,0,0,1-.84-3.83,17.41,17.41,0,0,1,.12-2.24,6.85,6.85,0,0,1,.81-2.56A4.12,4.12,0,0,1,30,98.27a3.64,3.64,0,0,1,2-.53,4,4,0,0,1,2.67.86,3.27,3.27,0,0,1,1.12,2.29Zm-2.81,6.78a1.67,1.67,0,0,0,1.33.61,1.47,1.47,0,0,0,1.24-.59,2.47,2.47,0,0,0,.45-1.54,2.31,2.31,0,0,0-.51-1.61,1.65,1.65,0,0,0-1.26-.56,1.68,1.68,0,0,0-1.07.37,2.07,2.07,0,0,0-.7,1.74A2.36,2.36,0,0,0,30.58,107.67Z"/><path class="cls-3" d="M45.36,99.39a11.86,11.86,0,0,1,0,9.19,3.4,3.4,0,0,1-3.22,1.61,3.4,3.4,0,0,1-3.22-1.61,11.86,11.86,0,0,1,0-9.19,3.4,3.4,0,0,1,3.22-1.62A3.4,3.4,0,0,1,45.36,99.39Zm-4.62,7.77a1.37,1.37,0,0,0,1.39,1.1,1.35,1.35,0,0,0,1.38-1.1,11.74,11.74,0,0,0,.33-3.18,11.61,11.61,0,0,0-.33-3.22,1.34,1.34,0,0,0-1.38-1,1.36,1.36,0,0,0-1.39,1A11.21,11.21,0,0,0,40.4,104,11.33,11.33,0,0,0,40.74,107.17Z"/><path class="cls-3" d="M55.67,99.39a11.86,11.86,0,0,1,0,9.19,3.4,3.4,0,0,1-3.22,1.61,3.4,3.4,0,0,1-3.22-1.61,11.86,11.86,0,0,1,0-9.19,3.4,3.4,0,0,1,3.22-1.62A3.4,3.4,0,0,1,55.67,99.39ZM51,107.17a1.37,1.37,0,0,0,1.39,1.1,1.35,1.35,0,0,0,1.38-1.1,11.74,11.74,0,0,0,.33-3.18,11.61,11.61,0,0,0-.33-3.22,1.34,1.34,0,0,0-1.38-1,1.36,1.36,0,0,0-1.39,1,11.21,11.21,0,0,0-.34,3.22A11.33,11.33,0,0,0,51,107.17Z"/><path class="cls-3" d="M36.88,146.64H35.52v2.59H33.21v-2.59H28.44v-2.07l4.42-7.3h2.66v7.52h1.36Zm-3.68-1.85V139.6l-3,5.18Z"/><path class="cls-3" d="M46.2,138.72a11.86,11.86,0,0,1,0,9.19A3.4,3.4,0,0,1,43,149.52a3.4,3.4,0,0,1-3.22-1.61,11.86,11.86,0,0,1,0-9.19A3.4,3.4,0,0,1,43,137.11,3.4,3.4,0,0,1,46.2,138.72Zm-4.62,7.77A1.37,1.37,0,0,0,43,147.6a1.35,1.35,0,0,0,1.38-1.1,11.74,11.74,0,0,0,.33-3.18,11.61,11.61,0,0,0-.33-3.22,1.34,1.34,0,0,0-1.38-1,1.36,1.36,0,0,0-1.39,1,11.21,11.21,0,0,0-.34,3.22A11.33,11.33,0,0,0,41.58,146.5Z"/><path class="cls-3" d="M56.51,138.72a11.86,11.86,0,0,1,0,9.19,3.4,3.4,0,0,1-3.22,1.61,3.4,3.4,0,0,1-3.22-1.61,11.86,11.86,0,0,1,0-9.19,3.4,3.4,0,0,1,3.22-1.62A3.4,3.4,0,0,1,56.51,138.72Zm-4.62,7.77a1.37,1.37,0,0,0,1.39,1.1,1.35,1.35,0,0,0,1.38-1.1,11.74,11.74,0,0,0,.33-3.18,11.61,11.61,0,0,0-.33-3.22,1.34,1.34,0,0,0-1.38-1,1.36,1.36,0,0,0-1.39,1,11.21,11.21,0,0,0-.34,3.22A11.33,11.33,0,0,0,51.89,146.5Z"/><path class="cls-3" d="M29.17,181.92v-1.61a10.44,10.44,0,0,0,1.56-.15,2.2,2.2,0,0,0,1.16-.63,2.08,2.08,0,0,0,.46-.86,2,2,0,0,0,.09-.48h2v12H32v-8.3Z"/><path class="cls-3" d="M46.2,179.72a11.86,11.86,0,0,1,0,9.19A3.4,3.4,0,0,1,43,190.52a3.4,3.4,0,0,1-3.22-1.61,11.86,11.86,0,0,1,0-9.19A3.4,3.4,0,0,1,43,178.11,3.4,3.4,0,0,1,46.2,179.72Zm-4.62,7.77A1.37,1.37,0,0,0,43,188.6a1.35,1.35,0,0,0,1.38-1.1,11.74,11.74,0,0,0,.33-3.18,11.61,11.61,0,0,0-.33-3.22,1.34,1.34,0,0,0-1.38-1,1.36,1.36,0,0,0-1.39,1,11.21,11.21,0,0,0-.34,3.22A11.33,11.33,0,0,0,41.58,187.5Z"/><path class="cls-3" d="M56.51,179.72a11.86,11.86,0,0,1,0,9.19,3.4,3.4,0,0,1-3.22,1.61,3.4,3.4,0,0,1-3.22-1.61,11.86,11.86,0,0,1,0-9.19,3.4,3.4,0,0,1,3.22-1.62A3.4,3.4,0,0,1,56.51,179.72Zm-4.62,7.77a1.37,1.37,0,0,0,1.39,1.1,1.35,1.35,0,0,0,1.38-1.1,11.74,11.74,0,0,0,.33-3.18,11.61,11.61,0,0,0-.33-3.22,1.34,1.34,0,0,0-1.38-1,1.36,1.36,0,0,0-1.39,1,11.21,11.21,0,0,0-.34,3.22A11.33,11.33,0,0,0,51.89,187.5Z"/><path class="cls-3" d="M80,99.22h5.3v1H80Zm4.8,3H80.56v-.94h4.23Zm-4.23,1.14h4.23v.94H80.56Zm4.34,6.75H81.47v.75h-.91v-5.38H84.9Zm-3.43-3.63v2.64h2.46v-2.64Zm1.46-7.46a14,14,0,0,0-1.38-2.13l.88-.51a15.09,15.09,0,0,1,1.44,2Zm11.65,9.43h-1v1.39c0,.59-.13.88-.56,1.06a7.69,7.69,0,0,1-2.37.18,3.33,3.33,0,0,0-.32-1c.83,0,1.62,0,1.81,0s.3-.06.3-.27v-1.39H87.38v2.66H86.26v-2.66h-.94v-.91h.94v-4.07h3.07v-.91h-4v-.9h2.3v-1.1H86.08v-.88H87.6v-1h-2v-.91h2V96.53h1.1v1.31h2.4V96.53h1.1v1.31h2v.91h-2v1h1.7v.88h-1.7v1.1h2.32v.9h-4.1v.91h3.19v4.07h1Zm-7.2-4.08v1.15h2V104.4Zm0,3.17h2v-1.18h-2Zm1.33-7.86h2.4v-1h-2.4Zm0,2h2.4v-1.1h-2.4Zm1.73,2.71v1.15h2V104.4Zm2,3.17v-1.18h-2v1.18Z"/><path class="cls-3" d="M97.68,104.77h3.86v4.79H97.68v1.07H96.59V98.9h1.34a18.17,18.17,0,0,0,.69-2.4l1.28.19c-.26.72-.59,1.55-.88,2.21h2.35v4.39h-3.7Zm0-4.85v2.35h2.64V99.92Zm0,5.87v2.74h2.79v-2.74Zm9.11-7.38v2H110v7.09c0,.53-.1.86-.46,1a4.53,4.53,0,0,1-1.78.19,4.1,4.1,0,0,0-.32-1l1.23,0c.18,0,.22-.06.22-.22v-6h-2.13v9.62h-1.12v-9.62h-2v7.25h-1.09v-8.34h3.06v-2H102V97.34h8.48v1.07Z"/><path class="cls-3" d="M118,109.25a23,23,0,0,1-4.95,1.87,6.39,6.39,0,0,0-.85-.9,19.3,19.3,0,0,0,4.72-1.46Zm3.84-.5a43.39,43.39,0,0,1,4.5,1.55l-.9.74a39,39,0,0,0-4.71-1.71l.59-.58h-7.09v-5.07c-.42.13-.9.24-1.42.35a4.22,4.22,0,0,0-.56-.93,7.83,7.83,0,0,0,3.86-1.49h-2.72c.14-.7.3-1.7.4-2.53h3.19v-.91H113v-.78h3.91v-.88H118v.88h2.47v-.88h1.12v.88h3.57v2.48h-3.57v1h4.56s0,.24,0,.38c-.1.86-.19,1.33-.42,1.54a1.14,1.14,0,0,1-.77.29l-.42,0v5.7Zm-7.11-8.88q-.07.5-.14,1h2.11a2.83,2.83,0,0,0,.24-1Zm8.66,3.65h-8v1h8Zm0,1.73h-8v1h8Zm-8,2.74h8v-1h-8Zm2.16-6.37a3.34,3.34,0,0,1-1.14,1.14h7.15a1.77,1.77,0,0,0-.19-.51c.48,0,.91.06,1.09.06s.29,0,.37-.11a1,1,0,0,0,.19-.58h-3.38v1.1H120.5v-1.1Zm3-1.74H118a3.77,3.77,0,0,1-.16,1h2.66ZM118,99.09h2.47v-.91H118Zm3.59-.91v.91h2.48v-.91Z"/><path class="cls-3" d="M88.28,139.61c-.11.13-.22.27-.34.42a19.51,19.51,0,0,0,6.69,3.19,4.4,4.4,0,0,0-.75,1,20.85,20.85,0,0,1-6.59-3.47,16.49,16.49,0,0,1-6.53,3.55,4.48,4.48,0,0,0-.74-.93c3.1-.91,5.86-2.35,7.15-4.18Zm-4.74-1H80.18v-1.09h3.36v-1.63h1.17v1.63h2v1.09h-2v1.54H83.54Zm1.44,8a12.06,12.06,0,0,1-3.7,3.15,6.86,6.86,0,0,0-1-.78,10,10,0,0,0,3.54-2.72Zm2.88-1v4.88H86.64v-4.88H81.81v-1.1h4.83v-2h1.22v2h4.75v1.1Zm2.13-7H87.67v-1.07H90v-1.63h1.17v1.63h3.11v1.07H91.16v1.55H90Zm.18,7.6A23.85,23.85,0,0,1,94,149.1l-.93.74a21.52,21.52,0,0,0-3.76-3Z"/><path class="cls-3" d="M101.8,140.17c-.77,4.16-2.64,7.12-4.9,8.71A4.21,4.21,0,0,0,96,148a11.2,11.2,0,0,0,4.42-6.88H96.47v-1.18h4.32l.24,0Zm7.57-.58a36.15,36.15,0,0,1-3.57,3.6,13.19,13.19,0,0,0,5,4.53,5.32,5.32,0,0,0-.88,1.07,15.28,15.28,0,0,1-6-6.72v6.75c0,.78-.19,1.17-.66,1.38a6.79,6.79,0,0,1-2.5.26,4.65,4.65,0,0,0-.45-1.3c.91,0,1.74,0,2,0s.37-.1.37-.37V135.88h1.25v3.84a18.54,18.54,0,0,0,1.28,2.59,24.88,24.88,0,0,0,3.09-3.49Z"/><path class="cls-3" d="M120.37,142.07a2.93,2.93,0,0,0-.35.27,21.78,21.78,0,0,0,6.64,2.1,6.42,6.42,0,0,0-.7,1,23.28,23.28,0,0,1-3.44-.94v.64h-6.45v-.69a32.66,32.66,0,0,1-3.17,1.1,6.87,6.87,0,0,0-.94-.85,21,21,0,0,0,7.28-3h-.54v-2.51h-5.07v2h-1.09v-2.8h6.16v-.9h-5.23v-.91h11.62v.91h-5.23v.9H126v2.8H124.9v-2h-5.06v2.51h-.37Zm-6.56-.42c1-.19,2.54-.54,4.07-.88l.08.74c-1.33.38-2.66.74-3.78,1Zm9.4,4.11.75.5a13.32,13.32,0,0,1-3.27,2.72l1.33.66-.5.88c-1.17-.66-3.49-1.73-5.22-2.45l.5-.74c.83.34,1.81.74,2.75,1.15a16.11,16.11,0,0,0,2.56-1.74H114v-.91h9Zm-8.5-6.45a23.4,23.4,0,0,1,3.11.75l-.32.74a28.56,28.56,0,0,0-3.12-.85Zm7.44,5a16.86,16.86,0,0,1-2.94-1.44,23.25,23.25,0,0,1-2.9,1.44Zm-1.28-3.62.18,0-.4-.59a31.47,31.47,0,0,0,3.12-.85l.51.67a17.46,17.46,0,0,1-3.19.78,24.27,24.27,0,0,1,3.7,1l-.3.77a27.75,27.75,0,0,0-3.92-1.15Z"/><path class="cls-3" d="M136.21,136.24c-.1.13-.19.26-.3.38a17.81,17.81,0,0,0,6.8,3.63,6,6,0,0,0-.8,1,19.81,19.81,0,0,1-4.35-2.11v.7h-4.45v-.72a18.21,18.21,0,0,1-4.34,2.13,4.74,4.74,0,0,0-.77-1c2.82-.85,5.68-2.5,7.12-4.55Zm-.4,12a7.34,7.34,0,0,0,0,1c-4.19.8-4.75.93-5.12,1.12a3.44,3.44,0,0,0-.54-.9,1.33,1.33,0,0,0,.61-1.17v-7.73h9v4.95h-7.86v3.39Zm-3.91-6.77v1.15h6.67v-1.15Zm6.67,3.14v-1.14h-6.67v1.14ZM137.3,139a14.43,14.43,0,0,1-2.06-1.62A13.67,13.67,0,0,1,133.3,139Zm4.18,6.91a21.91,21.91,0,0,1-3,1.94c1.06.62,2,1.25,2.74,1.74l-.85.8a51.73,51.73,0,0,0-6-3.67l.78-.69c.72.38,1.54.8,2.34,1.26a23.44,23.44,0,0,0,3.09-2.06Z"/><path class="cls-3" d="M92,180.81A16.9,16.9,0,0,1,88.21,187a15.72,15.72,0,0,0,6.47,3.25,5.49,5.49,0,0,0-.82,1.1,16.18,16.18,0,0,1-6.56-3.51,18.4,18.4,0,0,1-6.66,3.57,6.61,6.61,0,0,0-.74-1.1A17.22,17.22,0,0,0,86.44,187a18,18,0,0,1-3.84-6.19H80.13v-1.17H94.47v1.17Zm-8.13,0a16.17,16.17,0,0,0,3.49,5.36,14.69,14.69,0,0,0,3.3-5.36Zm3.39-1.2A12.46,12.46,0,0,0,86,177.1l1.23-.35a13.15,13.15,0,0,1,1.25,2.45Z"/><path class="cls-3" d="M110.21,189.92V191H96.29v-1.09Zm-12.45-8.53H96.61v-3.07h6.16a12.41,12.41,0,0,0-.64-1.22l1.15-.35a11.38,11.38,0,0,1,.83,1.57h5.81v3.07h-1.18v-2h-11Zm10.2.42H98.55v-1H108Zm-9.16,7V183h8.85v5.86Zm1.15-3.39h6.53v-1.52H100Zm0,2.45h6.53v-1.55H100Z"/><path class="cls-2" d="M263.46,28.35c.27,0,.34-.22.37-1.82a4.87,4.87,0,0,0,1.73.77c-.19,2.28-.68,2.91-1.87,2.91h-1.14c-1.55,0-1.87-.61-1.87-2.36v-3.4h-.78c-.26,2.69-.87,4.79-3.64,6a5.83,5.83,0,0,0-1-1.41v.37H252v.71h-1.73V24.29h5v4.56c2.11-.92,2.5-2.45,2.65-4.4h-1.1V19.83c-.19.19-.39.37-.58.54a12.59,12.59,0,0,0-1.43-1.43l.07-.05h-5.32V17.3h2.55a15.25,15.25,0,0,0-.82-2.14l1.7-.53a12.28,12.28,0,0,1,.94,2.19l-1.31.48h3v.94A11.7,11.7,0,0,0,258,14.72l1.87.58A17.39,17.39,0,0,1,257.53,19h5.83a31.74,31.74,0,0,0-2.79-3.54l1.41-1a27.65,27.65,0,0,1,3.6,4.5l-1.53,1.1c-.1-.19-.2-.37-.34-.58v4.86h-1.07V27.8c0,.49,0,.54.27.54Zm-8.41-7.16h-4.79V19.66h4.79Zm-4.79.75h4.79v1.53h-4.79Zm3.35,4H252v1.9h1.65Zm5.12-3.21h3V20.8h-3Z"/><path class="cls-2" d="M269.93,25.8v1.46h-1.87V15.41h5.66V25.8Zm0-8.55v2.41h1.92V17.25ZM271.85,24v-2.5h-1.92V24ZM282.66,28c0,1.07-.22,1.6-.88,1.94a7.6,7.6,0,0,1-3.08.37,6.9,6.9,0,0,0-.7-2c.92.05,1.94,0,2.23,0s.43-.1.43-.39V25H277a9,9,0,0,1-2.92,5.42,6.72,6.72,0,0,0-1.55-1.31c2.57-2.11,2.79-5.29,2.79-7.84V15.17h7.34Zm-2-4.83V21H277.3v.27c0,.59,0,1.24-.07,1.9ZM277.3,17v2.18h3.35V17Z"/><rect class="cls-4" x="1" y="3.45" width="506.76" height="230.95"/><line class="cls-4" x1="1" y1="82.95" x2="507.76" y2="82.95"/><line class="cls-4" x1="1" y1="163.78" x2="507.76" y2="163.78"/><line class="cls-4" x1="1" y1="122.45" x2="507.76" y2="122.45"/><line class="cls-4" x1="68.73" y1="3.45" x2="68.73" y2="234.39"/><line class="cls-4" x1="235.73" y1="3.45" x2="235.73" y2="234.39"/><path class="cls-3" d="M252.66,59.7c-.66-.45-2-1.22-2.95-1.73l.66-.86c.93.46,2.26,1.17,3,1.62Zm-2.56,6.45a46.28,46.28,0,0,0,3-5.12l.86.78a58.14,58.14,0,0,1-2.9,5.14Zm3.36-10.79c-.66-.46-2-1.23-3-1.76l.66-.85a29.27,29.27,0,0,1,3,1.65Zm6.4,3V61h3.35v6.1h-1.14v-.59h-5.7v.67h-1.09V61h3.44V58.35h-4.61V57.2h4.61V54.61c-1.17.18-2.38.32-3.52.43a5.68,5.68,0,0,0-.32-1,39.37,39.37,0,0,0,7.75-1.42l.94.93a25.81,25.81,0,0,1-3.71.9V57.2h4.39v1.15Zm2.21,3.73h-5.7v3.3h5.7Z"/><path class="cls-3" d="M280,56.25s0,.45,0,.61c-.18,6.71-.32,8.93-.86,9.6a1.26,1.26,0,0,1-1.07.59,11.06,11.06,0,0,1-1.94,0,3.23,3.23,0,0,0-.34-1.12c.77.06,1.47.08,1.78.08a.61.61,0,0,0,.58-.26c.37-.46.56-2.58.72-8.39h-2.29c-.19,4.26-.93,7.75-3.75,9.86a4.05,4.05,0,0,0-.88-.85,8.44,8.44,0,0,0,.7-.56c-2.43.29-4.91.56-6.71.75l-.18-1,3.47-.32V63.84h-3v-.91h3V62h-3V57.2h3v-1h-3.46v-.93h3.46V54.21c-1,.08-2.06.14-3,.18a3.56,3.56,0,0,0-.29-.88,50,50,0,0,0,6.9-.78l.59.91a30.46,30.46,0,0,1-3.12.46v1.17h3.39v.93h-3.39v1h3.11V62h-3.11v1h3.14v.91h-3.14v1.26c1-.1,2.13-.21,3.2-.34v.08c1.39-1.89,1.81-4.47,2-7.48h-1.87V56.25h1.9c0-1.12,0-2.29,0-3.51h1.12c0,1.2,0,2.39,0,3.51Zm-12.79,2.91h2V58h-2Zm2,2V60h-2v1.17ZM270.27,58v1.15h2.1V58Zm2.1,1.94h-2.1v1.17h2.1Z"/><path class="cls-3" d="M286.76,61.94c-1.62.82-3.36,1.66-4.71,2.3l-.46-1.17c.61-.26,1.36-.58,2.18-.94v-5H281.9V56h1.87V52.67h1.1V56h1.73v1.12h-1.73v4.5l1.63-.74Zm3-1.84a10.13,10.13,0,0,1-.69,1.12h6.88a4.63,4.63,0,0,1,0,.48c-.24,3.3-.5,4.55-.94,5a1.3,1.3,0,0,1-.9.4c-.35,0-.94,0-1.58,0a2,2,0,0,0-.27-1c.59,0,1.12.06,1.36.06s.37,0,.48-.18c.27-.29.51-1.3.72-3.81H293.5a11.13,11.13,0,0,1-3.27,5,3.65,3.65,0,0,0-.85-.69,9.41,9.41,0,0,0,3.12-4.32H291a12.09,12.09,0,0,1-3.89,4.32,3.14,3.14,0,0,0-.78-.74,10.56,10.56,0,0,0,3.6-3.59h-1.62A11,11,0,0,1,286.18,64a5.23,5.23,0,0,0-.82-.74,9.07,9.07,0,0,0,3.17-3.2H286.3v-1h10v1Zm5.44-1.9h-7.31V53h7.31Zm-1.1-4.27H289v1.26h5.12Zm0,2.1H289v1.28h5.12Z"/><path class="cls-3" d="M300.92,62l1.76-.75.24,1.06c-1.68.78-3.47,1.58-4.87,2.21l-.46-1.18c.61-.21,1.38-.53,2.21-.88V57.5h-1.92V56.37h1.92V52.73h1.12v3.63h1.73V57.5h-1.73Zm9.19,3.75c.93,0,1.09-.43,1.2-2.27a2.75,2.75,0,0,0,1.07.45c-.19,2.19-.56,2.9-2.23,2.9h-3.94c-1.81,0-2.35-.43-2.35-2.16v-5l-1.26.53-.46-1,1.73-.72V54H305v3.86l2.14-.9V52.54h1.14v4l2.43-1,.91.3-.06.19a57,57,0,0,1-.83,7l-1-.29a56.92,56.92,0,0,0,.61-5.84l-2.08.88v5.87h-1.14V58.22l-2.14.91v5.52c0,.86.21,1.07,1.25,1.07Z"/><path class="cls-3" d="M319,62.16c-.29-.53-1-1.63-1.5-2.45v7.43h-1.14v-7a17.44,17.44,0,0,1-2.23,4.15,6.56,6.56,0,0,0-.61-1.09,16.91,16.91,0,0,0,2.67-5h-2.48V57h2.64V54.64c-.72.14-1.44.24-2.11.34a6.76,6.76,0,0,0-.35-.93A24.36,24.36,0,0,0,319,52.78l.7.94a15,15,0,0,1-2.19.66V57h2.19v1.12H317.5v.27c.45.51,1.9,2.37,2.21,2.82Zm9.28,3.38v1.12H319V65.54h1.6V53.45h6.18V65.54Zm-6.5-11v2.77h3.81V54.56Zm3.81,3.86h-3.81v3h3.81Zm-3.81,7.12h3.81V62.46h-3.81Z"/><path class="cls-3" d="M337.58,58.42v2.18h5.59v1.09h-5.59v3.91h6.31v1.1H330.14v-1.1h6.21V61.68h-5.49V60.59h5.49V58.42h-3.46v-.88a19.21,19.21,0,0,1-2.54,1.17,4.34,4.34,0,0,0-.8-1.09A14.29,14.29,0,0,0,337,52.4l1.09.51c-.11.18-.26.38-.4.58a17.46,17.46,0,0,0,6.83,4.13,4.33,4.33,0,0,0-.83,1,18.76,18.76,0,0,1-2.58-1.23v1ZM333.18,62a13.37,13.37,0,0,1,1.54,2.87l-1,.43a13,13,0,0,0-1.47-2.9Zm7.73-4.72a18.61,18.61,0,0,1-3.89-3,16.46,16.46,0,0,1-3.75,3ZM339,65A18.36,18.36,0,0,0,340.7,62l1.12.43a28.45,28.45,0,0,1-1.89,2.9Z"/><path class="cls-3" d="M252.66,103.65c-.66-.45-2-1.22-2.95-1.73l.66-.86c.93.46,2.26,1.17,3,1.62Zm-2.56,6.45a46.28,46.28,0,0,0,3-5.12l.86.78a58.14,58.14,0,0,1-2.9,5.14Zm3.36-10.79c-.66-.46-2-1.23-3-1.76l.66-.85a29.27,29.27,0,0,1,3,1.65Zm6.4,3v2.63h3.35V111h-1.14v-.59h-5.7v.67h-1.09v-6.18h3.44V102.3h-4.61v-1.15h4.61V98.56c-1.17.18-2.38.32-3.52.43a5.68,5.68,0,0,0-.32-1,39.37,39.37,0,0,0,7.75-1.42l.94.93a25.81,25.81,0,0,1-3.71.9v2.77h4.39v1.15Zm2.21,3.73h-5.7v3.3h5.7Z"/><path class="cls-3" d="M280,100.21s0,.45,0,.61c-.18,6.71-.32,8.93-.86,9.6A1.26,1.26,0,0,1,278,111a11.06,11.06,0,0,1-1.94,0,3.23,3.23,0,0,0-.34-1.12c.77.06,1.47.08,1.78.08a.61.61,0,0,0,.58-.26c.37-.46.56-2.58.72-8.39h-2.29c-.19,4.26-.93,7.75-3.75,9.86a4.05,4.05,0,0,0-.88-.85,8.44,8.44,0,0,0,.7-.56c-2.43.29-4.91.56-6.71.75l-.18-1,3.47-.32v-1.38h-3v-.91h3v-1h-3v-4.75h3v-1h-3.46v-.93h3.46V98.16c-1,.08-2.06.14-3,.18a3.56,3.56,0,0,0-.29-.88,50,50,0,0,0,6.9-.78l.59.91a30.46,30.46,0,0,1-3.12.46v1.17h3.39v.93h-3.39v1h3.11v4.75h-3.11v1h3.14v.91h-3.14v1.26c1-.1,2.13-.21,3.2-.34v.08c1.39-1.89,1.81-4.47,2-7.48h-1.87v-1.12h1.9c0-1.12,0-2.29,0-3.51h1.12c0,1.2,0,2.39,0,3.51Zm-12.79,2.91h2V102h-2Zm2,2v-1.17h-2v1.17Zm1.07-3.11v1.15h2.1V102Zm2.1,1.94h-2.1v1.17h2.1Z"/><path class="cls-3" d="M281.72,99.22H287v1h-5.3Zm4.8,3H282.3v-.94h4.23Zm-4.23,1.14h4.23v.94H282.3Zm4.34,6.75h-3.43v.75h-.91v-5.38h4.34Zm-3.43-3.63v2.64h2.46v-2.64Zm1.46-7.46a14,14,0,0,0-1.38-2.13l.88-.51a15.09,15.09,0,0,1,1.44,2Zm11.65,9.43h-1v1.39c0,.59-.13.88-.56,1.06a7.69,7.69,0,0,1-2.37.18,3.33,3.33,0,0,0-.32-1c.83,0,1.62,0,1.81,0s.3-.06.3-.27v-1.39h-5.11v2.66H288v-2.66H287v-.91H288V103.5h3.07v-.91h-4v-.9h2.3v-1.1h-1.52v-.88h1.52v-1h-2v-.91h2V96.53h1.1v1.31h2.4V96.53h1.1v1.31h2v.91h-2v1h1.7v.88h-1.7v1.1h2.32v.9h-4.1v.91h3.19v4.07h1Zm-7.2-4.08v1.15h2V104.4Zm0,3.17h2v-1.18h-2Zm1.33-7.86h2.4v-1h-2.4Zm0,2h2.4v-1.1h-2.4Zm1.73,2.71v1.15h2V104.4Zm2,3.17v-1.18h-2v1.18Z"/><path class="cls-3" d="M299.42,104.77h3.86v4.79h-3.86v1.07h-1.09V98.9h1.34a18.17,18.17,0,0,0,.69-2.4l1.28.19c-.26.72-.59,1.55-.88,2.21h2.35v4.39h-3.7Zm0-4.85v2.35h2.64V99.92Zm0,5.87v2.74h2.79v-2.74Zm9.11-7.38v2h3.23v7.09c0,.53-.1.86-.46,1a4.53,4.53,0,0,1-1.78.19,4.1,4.1,0,0,0-.32-1l1.23,0c.18,0,.22-.06.22-.22v-6h-2.13v9.62H307.4v-9.62h-2v7.25h-1.09v-8.34h3.06v-2h-3.65V97.34h8.48v1.07Z"/><path class="cls-3" d="M252.66,143c-.66-.45-2-1.22-2.95-1.73l.66-.86c.93.46,2.26,1.17,3,1.62Zm-2.56,6.45a46.28,46.28,0,0,0,3-5.12l.86.78a58.14,58.14,0,0,1-2.9,5.14Zm3.36-10.79c-.66-.46-2-1.23-3-1.76l.66-.85a29.27,29.27,0,0,1,3,1.65Zm6.4,3v2.63h3.35v6.1h-1.14v-.59h-5.7v.67h-1.09v-6.18h3.44v-2.62h-4.61v-1.15h4.61v-2.59c-1.17.18-2.38.32-3.52.43a5.68,5.68,0,0,0-.32-1,39.37,39.37,0,0,0,7.75-1.42l.94.93a25.81,25.81,0,0,1-3.71.9v2.77h4.39v1.15Zm2.21,3.73h-5.7v3.3h5.7Z"/><path class="cls-3" d="M280,139.54s0,.45,0,.61c-.18,6.71-.32,8.93-.86,9.6a1.26,1.26,0,0,1-1.07.59,11.06,11.06,0,0,1-1.94,0,3.23,3.23,0,0,0-.34-1.12c.77.06,1.47.08,1.78.08a.61.61,0,0,0,.58-.26c.37-.46.56-2.58.72-8.39h-2.29c-.19,4.26-.93,7.75-3.75,9.86a4.05,4.05,0,0,0-.88-.85,8.44,8.44,0,0,0,.7-.56c-2.43.29-4.91.56-6.71.75l-.18-1,3.47-.32v-1.38h-3v-.91h3v-1h-3v-4.75h3v-1h-3.46v-.93h3.46v-1.06c-1,.08-2.06.14-3,.18a3.56,3.56,0,0,0-.29-.88,50,50,0,0,0,6.9-.78l.59.91a30.46,30.46,0,0,1-3.12.46v1.17h3.39v.93h-3.39v1h3.11v4.75h-3.11v1h3.14v.91h-3.14v1.26c1-.1,2.13-.21,3.2-.34v.08c1.39-1.89,1.81-4.47,2-7.48h-1.87v-1.12h1.9c0-1.12,0-2.29,0-3.51h1.12c0,1.2,0,2.39,0,3.51Zm-12.79,2.91h2V141.3h-2Zm2,2v-1.17h-2v1.17Zm1.07-3.11v1.15h2.1V141.3Zm2.1,1.94h-2.1v1.17h2.1Z"/><path class="cls-3" d="M286.81,147.34h-3.44v1.28h-1.1V136.88h4.55ZM283.37,138v3.54h2.32V138Zm2.32,8.28v-3.68h-2.32v3.68Zm6.56-7.43v2.06h3.49v1.06h-1.39v1.74h1.86v1.06h-1.86V149c0,.69-.18,1-.66,1.2a8.49,8.49,0,0,1-2.59.21,4.21,4.21,0,0,0-.38-1.12c1,0,1.87,0,2.13,0s.34-.08.34-.32v-4.27h-6v-1.06h6v-1.74H287.8v-1.06h3.28v-2.06h-4v-1.07h4v-1.92h1.17v1.92h4v1.07Zm-3.14,6.48a17.67,17.67,0,0,1,2.06,2.72l-1,.64a15.52,15.52,0,0,0-2-2.8Z"/><path class="cls-3" d="M302.46,136.23a26.74,26.74,0,0,1-1.63,3.43v10.77h-1.17v-9a15.1,15.1,0,0,1-1.58,1.94,9.87,9.87,0,0,0-.67-1.17,18,18,0,0,0,3.94-6.34Zm3.43,10.48a15,15,0,0,1-3.06,3.7,5.32,5.32,0,0,0-.94-.74,11.21,11.21,0,0,0,2.87-3.31Zm6.43-2.42v1.17H302v-1.17h2.45v-3.91h-2.06v-1.15h2.06V136h1.15v3.22h3.12V136h1.15v3.23h2.27v1.15h-2.27v3.91Zm-6.74,0h3.12v-3.91h-3.12Zm3.71,2.11a18.45,18.45,0,0,1,2.85,3.41l-1,.66a17.88,17.88,0,0,0-2.77-3.54Z"/><path class="cls-3" d="M322,141.62c1.12,3.52,3.2,6.42,6.29,7.68a6.1,6.1,0,0,0-.9,1.12c-3.07-1.46-5.11-4.29-6.37-7.92a11.2,11.2,0,0,1-6.39,7.92,3.44,3.44,0,0,0-.9-1,10.39,10.39,0,0,0,6.23-7.83h-5.91v-1.22h6.1a34.09,34.09,0,0,0,.24-4.55h1.28a37.08,37.08,0,0,1-.26,4.55H328v1.22Z"/><path class="cls-3" d="M342.59,142.31c-.72.59-1.6,1.23-2.46,1.81a7.61,7.61,0,0,0,4.26,4.69,4.14,4.14,0,0,0-.77,1,8.73,8.73,0,0,1-4.42-5.07c-.24.16-.51.32-.75.45.54,2.06.14,4-.72,4.71a2.2,2.2,0,0,1-1.63.56l-1.38,0a2.61,2.61,0,0,0-.3-1.12c.58,0,1.1.08,1.44.08a1.31,1.31,0,0,0,1-.34,3.27,3.27,0,0,0,.62-2.75,23.91,23.91,0,0,1-6.85,3.43,4.78,4.78,0,0,0-.62-1,18.38,18.38,0,0,0,7.25-3.52,6.49,6.49,0,0,0-.43-1.12,25,25,0,0,1-5.94,2.79,4.6,4.6,0,0,0-.61-.93,19.43,19.43,0,0,0,6.07-2.66,5.22,5.22,0,0,0-.77-.94,23.48,23.48,0,0,1-4.61,1.89,5,5,0,0,0-.66-.94,18.1,18.1,0,0,0,5.71-2.32h-3.65v-1h9.2v1h-4a10.53,10.53,0,0,1-1.14.85,7.21,7.21,0,0,1,1.63,2.45,27.63,27.63,0,0,0,3.49-2.67Zm-11-1.78h-1.15v-3.28h6a11.41,11.41,0,0,0-.59-1.17l1.22-.35a9.16,9.16,0,0,1,.78,1.52h5.91v3.28h-1.2v-2.18h-11Z"/><path class="cls-3" d="M352.46,137.94v12.47h-1.15v-2.9c-2,.34-4.07.64-5.59.9l-.21-1.2,1.55-.19v-9.08h-1.25v-1.1h7.76v1.1Zm-1.15,0h-3.12v2.13h3.12Zm0,3.19h-3.12v2.22h3.12Zm-3.12,5.73c1-.13,2-.29,3.12-.45v-2h-3.12Zm11.7-8.66a19.47,19.47,0,0,1-2.59,8.12,8.89,8.89,0,0,0,3.3,3,5,5,0,0,0-.85,1,10,10,0,0,1-3.19-2.9,11.42,11.42,0,0,1-3.27,2.85,4.57,4.57,0,0,0-.78-1,9.76,9.76,0,0,0,3.36-3,22.3,22.3,0,0,1-2.38-6.83l1.14-.21a20.6,20.6,0,0,0,2,5.92,17.55,17.55,0,0,0,2-6h-5.39V138h5.71l.22,0Z"/><path class="cls-3" d="M375.15,148.84c0,.77-.21,1.12-.72,1.33a10.45,10.45,0,0,1-3,.19,4.72,4.72,0,0,0-.4-1.15c1.12,0,2.21,0,2.5,0s.43-.11.43-.42v-3.25h-4.31v4.72h-1.18v-4.72h-4a9.19,9.19,0,0,1-2,5,3.88,3.88,0,0,0-.91-.78c1.76-2,1.92-4.8,1.92-7V137h11.65Zm-6.66-4.4v-2.66h-3.83v.94c0,.53,0,1.12-.06,1.71Zm-3.83-6.34v2.56h3.83V138.1Zm9.32,0h-4.31v2.56H374Zm0,6.34v-2.66h-4.31v2.66Z"/><path class="cls-3" d="M254.83,177.88c-.51,1.31-1.14,2.88-1.71,4.15a4.84,4.84,0,0,1,1.54,3.44,2.23,2.23,0,0,1-.64,1.87,2.15,2.15,0,0,1-.86.32,9,9,0,0,1-1.15,0,2.87,2.87,0,0,0-.27-1.06,6.79,6.79,0,0,0,1,0,.77.77,0,0,0,.53-.16c.27-.18.37-.59.37-1.12a4.65,4.65,0,0,0-1.54-3.2c.48-1.14,1-2.53,1.34-3.6h-2v12.85H250.3V177.48h3.57l.18-.06Zm2.82,9.11a15.29,15.29,0,0,1-2.35,3.49,5.58,5.58,0,0,0-.9-.64,11.43,11.43,0,0,0,2.19-3.15Zm2.93-9.88c-.11.21-.24.4-.37.61a14.14,14.14,0,0,0,4.34,3.57,2.92,2.92,0,0,0-.78.93,16.48,16.48,0,0,1-4.15-3.65,15.3,15.3,0,0,1-4.29,3.79,4.43,4.43,0,0,0-.8-.85,12.89,12.89,0,0,0,5.06-4.79Zm-.29,8.68v4.27c0,.67-.16,1-.61,1.17a7,7,0,0,1-2.34.21,4.46,4.46,0,0,0-.42-1.1c.9,0,1.66,0,1.89,0s.32-.1.32-.3v-4.27H255V184.7h4.18v-1.94h-2.69v-1.06h6.27v1.06h-2.43v1.94h3.92v1.09Zm1.81.74a20,20,0,0,1,2.34,3.27l-1,.54A19.58,19.58,0,0,0,261.2,187Z"/><path class="cls-3" d="M279.24,178.68a22.64,22.64,0,0,1-5.57,4.29v6.92c0,.82-.21,1.17-.83,1.34a13.42,13.42,0,0,1-3.28.21,4.37,4.37,0,0,0-.48-1.18c1.33,0,2.56,0,2.93,0s.43-.1.43-.38v-7.51a19.55,19.55,0,0,0,4.45-3.14H266.6v-1.17H278l.29-.08Z"/><path class="cls-3" d="M283.34,187.22a21.81,21.81,0,0,1-.78,3.86,5.25,5.25,0,0,0-.88-.32,19.16,19.16,0,0,0,.75-3.68Zm3.17-4.31a26.41,26.41,0,0,1,1.07,3.06l-.9.35c0-.22-.13-.5-.19-.77-3.57.56-4,.67-4.35.83a5.19,5.19,0,0,0-.34-1c.32-.06.67-.46,1.14-1.07a20.45,20.45,0,0,0,1.31-1.87,7.54,7.54,0,0,0-2.21.38c-.06-.22-.22-.75-.34-1,.26-.06.53-.4.85-.88a21.28,21.28,0,0,0,2-4l1,.43a25.09,25.09,0,0,1-2.42,4.29l1.68-.16A24,24,0,0,0,286,179.2l.93.56a32.48,32.48,0,0,1-3.51,5.31l2.75-.38c-.18-.51-.38-1-.56-1.49Zm-1.6,4.1a24.3,24.3,0,0,1,.45,3.36l-.9.22a31.15,31.15,0,0,0-.38-3.43Zm1.68-.42a23.37,23.37,0,0,1,.94,3.07l-.83.3a23.31,23.31,0,0,0-.9-3.11Zm9.35,3.52c0,.66-.13.94-.54,1.14a5.25,5.25,0,0,1-2,.21,4.39,4.39,0,0,0-.3-1.06c.67,0,1.31,0,1.5,0s.27-.08.27-.3V178.65h-6v12.82h-1.07V177.6h8.15Zm-2.58-2.64a4.61,4.61,0,0,0,.94-.08c0,.27.06.64.1.88a4.4,4.4,0,0,1-1,.08h-2c-1.06,0-1.3-.38-1.3-1.44v-1.55h-.59v-.94h2.18A10,10,0,0,0,291,183l.74-.29h-2.45v-.94h3a17.63,17.63,0,0,0,.75-2.64l.86.26c-.24.78-.53,1.7-.78,2.39h1.36v.94h-2.69a13,13,0,0,1,.7,1.44l-.58.26h2.37v.94H291v1.57c0,.42,0,.54.38.54Zm-2.8-8.37a7.73,7.73,0,0,1,.86,2.27l-.77.27a8.66,8.66,0,0,0-.83-2.29Z"/><path class="cls-3" d="M311.2,178.75a12.18,12.18,0,0,1-2.34,4.26,10.7,10.7,0,0,0,3.65,2.35,4.89,4.89,0,0,0-.74,1c-.16-.08-.34-.14-.51-.22v5.27h-1.14v-.53h-4v.58H305V186.1c-.32.16-.64.3-1,.45a3.59,3.59,0,0,0-.58-.8H301.8v2.87l2.1-.5.11,1.07-6.13,1.49-.22-1.15.82-.18v-5.46h1v5.25l1.23-.29v-6.47h-2.24V177.5h5.17v4.24a11.64,11.64,0,0,0,2.9-4.91l1.14.27c-.16.46-.34.93-.51,1.36h3.09l.21,0Zm-11.67,2.59h3v-2.8h-3Zm4.26,4.11a11.22,11.22,0,0,0,3.62-2.5,14.58,14.58,0,0,1-1.47-2.19,11.53,11.53,0,0,1-1.46,1.84,6.6,6.6,0,0,0-.83-.7v.48H301.8v2.31h2Zm6.72.22a12,12,0,0,1-2.37-1.89,12.73,12.73,0,0,1-2.4,1.89Zm-.38,4.11v-3.07h-4v3.07Zm-3.46-10.29-.16.3a12.94,12.94,0,0,0,1.58,2.4,10.33,10.33,0,0,0,1.63-2.71Z"/><path class="cls-3" d="M322.11,183.07a2.93,2.93,0,0,0-.35.27,21.78,21.78,0,0,0,6.64,2.1,6.42,6.42,0,0,0-.7,1,23.28,23.28,0,0,1-3.44-.94v.64H317.8v-.69a32.66,32.66,0,0,1-3.17,1.1,6.87,6.87,0,0,0-.94-.85,21,21,0,0,0,7.28-3h-.54v-2.51h-5.07v2h-1.09v-2.8h6.16v-.9h-5.23v-.91h11.62v.91h-5.23v.9h6.18v2.8h-1.12v-2h-5.06v2.51h-.37Zm-6.56-.42c1-.19,2.54-.54,4.07-.88l.08.74c-1.33.38-2.66.74-3.78,1Zm9.4,4.11.75.5a13.32,13.32,0,0,1-3.27,2.72l1.33.66-.5.88c-1.17-.66-3.49-1.73-5.22-2.45l.5-.74c.83.34,1.81.74,2.75,1.15a16.11,16.11,0,0,0,2.56-1.74H315.7v-.91h9Zm-8.5-6.45a23.4,23.4,0,0,1,3.11.75l-.32.74a28.56,28.56,0,0,0-3.12-.85Zm7.44,5a16.86,16.86,0,0,1-2.94-1.44,23.25,23.25,0,0,1-2.9,1.44Zm-1.28-3.62.18,0-.4-.59a31.47,31.47,0,0,0,3.12-.85l.51.67a17.46,17.46,0,0,1-3.19.78,24.27,24.27,0,0,1,3.7,1l-.3.77a27.75,27.75,0,0,0-3.92-1.15Z"/><path class="cls-3" d="M343.2,182.25a18,18,0,0,1-2.82,5.41c.59,1.57,1.33,2.48,2.15,2.48.45,0,.64-.83.75-3a2.81,2.81,0,0,0,1,.64c-.22,2.72-.66,3.51-1.87,3.51s-2.19-1-2.93-2.62a14.29,14.29,0,0,1-3.3,2.66,6.72,6.72,0,0,0-.86-.94,12.77,12.77,0,0,0,3.68-3,31.47,31.47,0,0,1-1.17-6.74h-5.52v2.08h4.08v.51c-.08,3.59-.18,4.93-.51,5.35a1.24,1.24,0,0,1-1,.46,18.35,18.35,0,0,1-1.9,0,2.47,2.47,0,0,0-.34-1.12c.74.06,1.42.08,1.7.08s.38,0,.48-.18.3-1.25.37-4h-2.91V184c0,2.24-.24,5.46-1.68,7.54a4.73,4.73,0,0,0-1-.8c1.31-2,1.46-4.69,1.46-6.75v-4.47h6.67c-.06-.88-.08-1.78-.1-2.69h1.23c0,.93,0,1.82.06,2.69h5.17v1.17h-5.09a28.88,28.88,0,0,0,.88,5.55,15.84,15.84,0,0,0,2-4.32Zm-2.77-5.35a15.29,15.29,0,0,1,2.87,1.82l-.74.82a16.4,16.4,0,0,0-2.83-1.92Z"/><path class="cls-3" d="M355,181.37a13.88,13.88,0,0,0,5.38,6.48,4.92,4.92,0,0,0-.91,1,15.62,15.62,0,0,1-5.63-7.49h-.22v5.91h3.71v1.18h-3.71v3h-1.23v-3h-3.71v-1.18h3.71v-5.91h-.26a16.76,16.76,0,0,1-5.6,7.54,5.27,5.27,0,0,0-.85-.94,14.93,14.93,0,0,0,5.25-6.59h-4.83v-1.18h6.29v-3.35h1.23v3.35h6.34v1.18Z"/><path class="cls-3" d="M366.15,177c-.27.78-.56,1.67-.83,2.35H368v10.39h-4.45V191h-1.09V179.39h1.79a19.7,19.7,0,0,0,.64-2.59Zm.74,3.43h-3.36v3.35h3.36Zm0,8.24v-3.84h-3.36v3.84Zm8.92-8.76c-.26,7.3-.46,9.76-1.1,10.55a1.59,1.59,0,0,1-1.26.64,16.91,16.91,0,0,1-2.37,0,2.75,2.75,0,0,0-.4-1.17c1,.1,2,.1,2.37.1s.5,0,.66-.24c.53-.56.77-3,1-9.36H370.6a13.46,13.46,0,0,1-1.5,2.8,8.73,8.73,0,0,0-1-.67,16.25,16.25,0,0,0,2.45-5.81l1.14.27a22.58,22.58,0,0,1-.69,2.31h4.79Zm-3.54,7.22a28.48,28.48,0,0,0-2.43-3.7l.93-.54a31.34,31.34,0,0,1,2.51,3.62Z"/><path class="cls-3" d="M391.95,189.92V191H378v-1.09Zm-12.45-8.53h-1.15v-3.07h6.16a12.41,12.41,0,0,0-.64-1.22l1.15-.35a11.38,11.38,0,0,1,.83,1.57h5.81v3.07h-1.18v-2h-11Zm10.2.42h-9.41v-1h9.41Zm-9.16,7V183h8.85v5.86Zm1.15-3.39h6.53v-1.52h-6.53Zm0,2.45h6.53v-1.55h-6.53Z"/><path class="cls-3" d="M398.38,177.23a23.56,23.56,0,0,1-1.65,3.46v10.72h-1.12v-9a15.61,15.61,0,0,1-1.62,2,6.52,6.52,0,0,0-.67-1.15,18,18,0,0,0,4-6.35Zm7.7,9.73h2.24v1h-2.24v2.27c0,.64-.14.94-.64,1.1a9.65,9.65,0,0,1-2.5.16,4.08,4.08,0,0,0-.38-1,20.38,20.38,0,0,0,2,0c.26,0,.32-.06.32-.27v-2.26h-7.25v-1h7.25v-1c-2.53.08-5,.16-6.82.19l-.11-1c1.22,0,2.8,0,4.51,0v-1h-3.75v-4.24h3.75V179h-4.39v-.91h4.39V177h1.15v1.1h4.5V179h-4.5v.91h3.86v4.24h-1.18a13.76,13.76,0,0,1,2.08,1.89l-.85.54a7.77,7.77,0,0,0-.64-.7l-.85,0Zm-4.71,3.68a12.78,12.78,0,0,0-2-2.16l.88-.56a12.92,12.92,0,0,1,2,2.08Zm-1.52-9h2.66v-1h-2.66Zm2.66,1.75v-1h-2.66v1Zm1.15-2.74v1h2.72v-1Zm2.72,1.71h-2.72v1h2.72Zm-2.72,2.72,2.37,0c-.32-.27-.64-.53-.94-.75l.26-.14h-1.68Z"/><path class="cls-3" d="M416.59,179.21l.82.27c-.83,6.27-3.3,10-6.69,11.91a4.36,4.36,0,0,0-1-1,10.68,10.68,0,0,0,4.55-4.56,24.93,24.93,0,0,0-2.59-2.69,12,12,0,0,1-1,1.49,6.57,6.57,0,0,0-1-.75,15.88,15.88,0,0,0,3-7.07l1.17.22c-.18.77-.35,1.5-.58,2.23h3ZM413,180.4a15.49,15.49,0,0,1-.77,1.82,28.28,28.28,0,0,1,2.64,2.48A19.93,19.93,0,0,0,416,180.4Zm7.48,1.25a32.14,32.14,0,0,1,4,3.62l-.94.82a28.92,28.92,0,0,0-3.44-3.33v8.69h-1.22v-14.6H420V182Z"/><path class="cls-3" d="M431.34,186.37a2.78,2.78,0,0,0,2-2.35,1.54,1.54,0,0,1-.27,0,1.1,1.1,0,0,1-1.2-1.14,1.12,1.12,0,0,1,1.22-1.15c.88,0,1.36.72,1.36,1.84a3.81,3.81,0,0,1-2.77,3.63Z"/><path class="cls-3" d="M456.22,181.29v.91h-2.67l-.13,1.39h-9.24l.19-1.39h-2.54v-.91h2.66l.18-1.34h9.08l-.11,1.34Zm-5.52,8c1.84.46,3.76,1,5,1.47l-.78.77c-1.14-.43-3-1.06-4.87-1.55l.59-.69H447.1l.94.62a19,19,0,0,1-5.23,1.6,5.8,5.8,0,0,0-.64-.83,17.84,17.84,0,0,0,4.87-1.39H444v-5h10.15v5Zm-7.25-8.48h-1.09v-2.54h6.16a9.6,9.6,0,0,0-.7-1.18l1-.32a7.16,7.16,0,0,1,.94,1.5h5.92v2.54h-1.14V179.2H443.45Zm1.68,4.93h7.81V185h-7.81Zm0,1.41h7.81v-.74h-7.81Zm0,1.44h7.81v-.75h-7.81Zm.24-5.65h3l.1-.78h-3Zm.27-2.24-.1.74h3l0-.74Zm6.74,2.24.06-.78h-3c0,.29-.06.53-.08.78Zm.18-2.24h-3l-.06.74h3Z"/><path class="cls-3" d="M463.26,181.82h.69v2.29h-.74v6.13c0,.51-.1.77-.45.94a5.39,5.39,0,0,1-1.79.16,4.53,4.53,0,0,0-.34-.91l1.34,0c.18,0,.22-.06.22-.22v-2.1c-.75.46-1.47.91-2.15,1.3l-.45-.85c.69-.29,1.62-.77,2.59-1.28v-2.71h-2.51v2.15a8.66,8.66,0,0,1-1.1,4.77,3.62,3.62,0,0,0-.83-.64,7.41,7.41,0,0,0,.93-4.13v-2.62h-.78v-2.29h.66V177.4h4.71Zm-.26.86h-4.19v1.06H463Zm-3.47-.86h1v-2.48h1.74v-1h-2.74Zm2,5.33a13.43,13.43,0,0,0-1.7-1.41l.54-.54a11.45,11.45,0,0,1,1.75,1.3Zm.78-5.33v-1.73h-1v1.73Zm10,8.39v.93H464v-.93h2.29a12,12,0,0,0-.56-1.5l.93-.27c.24.54.53,1.26.69,1.78h1.54c.24-.56.53-1.31.69-1.82l1.09.32c-.27.5-.56,1.06-.8,1.5Zm-.14-5.59h-8v-.9h8Zm-.4-1.73h-7.22v-4.82h2v-1.22h1v1.22h1.15v-1.22h1v1.22h2.13ZM465,188.35v-3h6.4v3Zm.5-8.29h1.23v-1.14h-1.23Zm0,2h1.23v-1.18h-1.23Zm.56,5.51h4.24v-1.34H466Zm2.67-7.49v-1.14h-1.2v1.14Zm-1.2.8V182h1.2v-1.18Zm3.3-1.94h-1.3v1.14h1.3Zm0,1.94h-1.3V182h1.3Z"/><path class="cls-3" d="M485.69,180.81a16.9,16.9,0,0,1-3.75,6.19,15.72,15.72,0,0,0,6.47,3.25,5.49,5.49,0,0,0-.82,1.1,16.18,16.18,0,0,1-6.56-3.51,18.4,18.4,0,0,1-6.66,3.57,6.61,6.61,0,0,0-.74-1.1,17.22,17.22,0,0,0,6.53-3.31,18,18,0,0,1-3.84-6.19h-2.46v-1.17H488.2v1.17Zm-8.13,0a16.17,16.17,0,0,0,3.49,5.36,14.69,14.69,0,0,0,3.3-5.36Zm3.39-1.2a12.46,12.46,0,0,0-1.18-2.51l1.23-.35a13.15,13.15,0,0,1,1.25,2.45Z"/><path class="cls-3" d="M263.95,215.92V217H250v-1.09Zm-12.45-8.53h-1.15v-3.07h6.16a12.41,12.41,0,0,0-.64-1.22l1.15-.35a11.38,11.38,0,0,1,.83,1.57h5.81v3.07h-1.18v-2h-11Zm10.2.42h-9.41v-1h9.41Zm-9.16,7V209h8.85v5.86Zm1.15-3.39h6.53v-1.52h-6.53Zm0,2.45h6.53v-1.55h-6.53Z"/><path class="cls-3" d="M280.11,205.15h-2v10.6c0,.86-.21,1.28-.82,1.46a12.36,12.36,0,0,1-3.31.22,6,6,0,0,0-.51-1.26c1.28.06,2.59,0,3,0s.46-.13.46-.46V205.15h-11V204h14.17Zm-11.38,8.28v1.28h-1.15v-7.22h6.5v5.94Zm0-4.79v3.65h4.18v-3.65Z"/><path class="cls-3" d="M288.44,212.88c-2.21,1-4.63,2.06-6.39,2.83l-.43-1.23c.62-.24,1.38-.54,2.21-.9l-.27-9.89,1.22,0,.24,9.44,3.15-1.34Zm7,4.51a39.34,39.34,0,0,0-3.59-4.23,11.56,11.56,0,0,1-5.49,4.32,6.86,6.86,0,0,0-.94-1c5.49-2,7.19-5.89,7.89-12.81l1.3.13a23.68,23.68,0,0,1-2.11,8.29,40.91,40.91,0,0,1,3.94,4.4Zm-6.16-8.15a15.72,15.72,0,0,0-2.46-3.91l1.06-.53a15.16,15.16,0,0,1,2.53,3.83Z"/><path class="cls-3" d="M312.06,214.42H298v-1h2.27v-7.19h3.84a8.3,8.3,0,0,0,.16-1h-5.83v-1h6c.06-.48.11-1,.14-1.38l1.26.14-.21,1.23h6.08v1H305.4q-.1.55-.19,1h4.61v7.19h2.24Zm-8.45,1a20.54,20.54,0,0,1-4.83,2,8,8,0,0,0-.82-.83,18.53,18.53,0,0,0,4.61-1.89ZM301.38,207v1.07h7.25V207Zm7.25,1.84h-7.25v.91h7.25Zm-7.25,1.68v1h7.25v-1Zm0,2.85h7.25v-1.12h-7.25Zm5.84,1.28a38.88,38.88,0,0,1,4.9,1.9l-1,.83a30.18,30.18,0,0,0-4.67-2Z"/><path class="cls-3" d="M328.14,215.58v1.17H313.9v-1.17h2.18v-7.49h1.2v7.49h3.52V205.16H314.5V204h13.11v1.15H322v4.26h5v1.17h-5v5Z"/><path class="cls-3" d="M344,208.73c-.13,5.79-.26,7.65-.62,8.18a1,1,0,0,1-.86.5,8.94,8.94,0,0,1-1.33,0,2.73,2.73,0,0,0-.27-.91c.5,0,.93,0,1.14,0a.4.4,0,0,0,.4-.21c.27-.4.4-2.13.5-7.17h-5.27a9.35,9.35,0,0,1-1.46,1.67,3.6,3.6,0,0,0-.5-.48v5.89c0,.54-.13.86-.51,1a5.55,5.55,0,0,1-2,.19,3.42,3.42,0,0,0-.35-1c.77,0,1.46,0,1.65,0s.29-.06.29-.26v-3h-3.19a10.33,10.33,0,0,1-1.18,4.26,2.5,2.5,0,0,0-.8-.5c1-1.71,1.12-4.08,1.12-5.87v-3l-.37.48a5.25,5.25,0,0,0-.86-.69,12.89,12.89,0,0,0,2.43-5l1,.24c-.11.4-.22.78-.35,1.17h1.6l.19-.06.67.45a18.85,18.85,0,0,1-1,2.24h1.67v3a8.86,8.86,0,0,0,2-2.83h-1.5v-3.51h7.7V207h-5.06a11.75,11.75,0,0,1-.59,1.18H344Zm-11.75-3.57a16.58,16.58,0,0,1-.78,1.7H333a16.88,16.88,0,0,0,.7-1.7Zm-.59,6c0,.37,0,.77,0,1.18h1.17v-1.84h-1.14Zm0-1.55h1.14v-1.78h-1.14Zm3.11-1.78h-1.17v1.78h1.17Zm0,4.51v-1.84h-1.17v1.84Zm6.55,4.11c-.06-.18-.14-.4-.24-.62l-4.87.53-.18-.91c.74,0,1.65-.11,2.66-.21v-1.47h-2.13v-3.07h2.13v-1.22h.9v1.22h2.21v3.07h-2.21v1.41l1.14-.1c-.13-.27-.27-.56-.42-.8L341,214a13.73,13.73,0,0,1,1.06,2.11Zm-4.11-10.29h1.28v-1.71h-1.28Zm1.49,6.83v-1.54h-1.28V213Zm.67-6.83h1.34v-1.71h-1.34Zm.22,5.3V213h1.33v-1.54Zm2-5.3h1.38v-1.71h-1.38Z"/><path class="cls-3" d="M359.56,208.45a11.79,11.79,0,0,1-3.52,6,12.5,12.5,0,0,0,4.32,1.9,5.18,5.18,0,0,0-.82,1.12,12.34,12.34,0,0,1-4.5-2.22,15,15,0,0,1-5.07,2.34,4.15,4.15,0,0,0-.67-1.09,13.57,13.57,0,0,0,4.8-2.08,13.49,13.49,0,0,1-3.17-5.14h-.59a12.56,12.56,0,0,1-3.84,7.91,4.77,4.77,0,0,0-.86-1c3.39-3.15,3.67-7.14,3.67-10v-1.44h-2.8v-1.17h9.81c-.32,1.47-.74,3.27-1.09,4.56h3.28l.22-.06Zm-9.06-2.26c0,.61,0,1.26-.06,2h3.51c.29-1,.61-2.24.86-3.39h-4.31Zm1.58,3.07a11.19,11.19,0,0,0,3,4.39,10,10,0,0,0,2.93-4.39Z"/><path class="cls-3" d="M367.07,212.56c-.34-.46-1.06-1.31-1.66-2v6.87h-1.17v-6.51a14.13,14.13,0,0,1-2.21,1.84,4.52,4.52,0,0,0-.54-1.15,13.18,13.18,0,0,0,4.64-4.95h-4.21v-1.09h4.83l.22,0,.64.46a13.93,13.93,0,0,1-2,3.38c.64.61,1.86,1.86,2.21,2.21Zm-2-7.07a10.45,10.45,0,0,0-1.5-2.13l.9-.53a9.28,9.28,0,0,1,1.55,2.06Zm11.2,10.18v1.17h-9.14v-1.17h4.21V209h-3.46v-1.15h3.46v-5h1.18v5H376V209h-3.41v6.69Z"/><path class="cls-3" d="M389.34,215.6a18,18,0,0,0,2.66-.18c0,.34.13.88.19,1.14a15.51,15.51,0,0,1-2.86.14h-7c-2.45,0-3.63-.77-3.63-3.1v-9H378v-1.07H391.4v1.07H379.82v9c0,1.36.62,1.92,2.34,1.92Zm-8.26-5.3h4.16v4.1h-4.16Zm1,3.23h2.13v-2.37h-2.13Zm6.67-4.32h-5.94v-3.54h5.94Zm-1.17-2.69h-3.65v1.82h3.65Zm3,7.88h-4.31v-4.1h4.31Zm-1.06-3.23h-2.22v2.37h2.22Z"/><path class="cls-3" d="M402.79,210.43v1.87h4v5.12h-1.17v-.53h-6.71v.56h-1.14V212.3h3.86v-1.87h-5.15a15,15,0,0,1-1.86,7,5.15,5.15,0,0,0-1-.62c1.63-2.48,1.78-6,1.78-8.53v-4.63h11.72v3.89h-4.27v1.78H408v1.07Zm-1.17-1.07v-1.78h-5.09v.74c0,.34,0,.67,0,1Zm-5.09-4.59v1.74h9.35v-1.74Zm9.08,8.6h-6.71v2.48h6.71Z"/><path class="cls-3" d="M418.76,211.82c.83,2.54,2.3,4.29,3.73,4.27.46,0,.66-.66.74-2.34a3.15,3.15,0,0,0,1,.56c-.19,2.34-.67,2.95-1.84,2.95-2.14,0-4-2.26-4.91-5.44H412.7v4l3.84-.93a5.49,5.49,0,0,0,.13,1.09c-4.35,1.17-4.95,1.31-5.33,1.55a3.7,3.7,0,0,0-.56-1.09,1.28,1.28,0,0,0,.7-1.17V203.66H422.8v4.63h-4.67a14.46,14.46,0,0,0,.35,2.42H424v1.12Zm-6.07-7v2.39h8.92v-2.39Zm4.53,5.92a18.72,18.72,0,0,1-.32-2.42H412.7v2.42Z"/><path class="cls-3" d="M439.56,208.45a11.79,11.79,0,0,1-3.52,6,12.5,12.5,0,0,0,4.32,1.9,5.18,5.18,0,0,0-.82,1.12,12.34,12.34,0,0,1-4.5-2.22,15,15,0,0,1-5.07,2.34,4.15,4.15,0,0,0-.67-1.09,13.57,13.57,0,0,0,4.8-2.08,13.49,13.49,0,0,1-3.17-5.14h-.59a12.56,12.56,0,0,1-3.84,7.91,4.77,4.77,0,0,0-.86-1c3.39-3.15,3.67-7.14,3.67-10v-1.44h-2.8v-1.17h9.81c-.32,1.47-.74,3.27-1.09,4.56h3.28l.22-.06Zm-9.06-2.26c0,.61,0,1.26-.06,2h3.51c.29-1,.61-2.24.86-3.39h-4.31Zm1.58,3.07a11.19,11.19,0,0,0,3,4.39,10,10,0,0,0,2.93-4.39Z"/><path class="cls-3" d="M456,204.78v1.15H444.26v3c0,2.46-.24,6.11-1.66,8.53a5.83,5.83,0,0,0-1-.67c1.36-2.3,1.5-5.55,1.5-7.86v-4.15h6.24a10.3,10.3,0,0,0-.83-1.62l1.14-.29a9.24,9.24,0,0,1,1,1.9Zm-5.67,3.57h5.17v1.09h-5.17v2.14h4.4v5.63H453.6v-.61h-6.75v.64h-1.15v-5.67h3.49v-5.12h1.2Zm3.22,4.34h-6.75v2.87h6.75Z"/><path class="cls-3" d="M470.59,209.31c-.72.59-1.6,1.23-2.46,1.81a7.61,7.61,0,0,0,4.26,4.69,4.14,4.14,0,0,0-.77,1,8.73,8.73,0,0,1-4.42-5.07c-.24.16-.51.32-.75.45.54,2.06.14,4-.72,4.71a2.2,2.2,0,0,1-1.63.56l-1.38,0a2.61,2.61,0,0,0-.3-1.12c.58,0,1.1.08,1.44.08a1.31,1.31,0,0,0,1-.34,3.27,3.27,0,0,0,.62-2.75,23.91,23.91,0,0,1-6.85,3.43,4.78,4.78,0,0,0-.62-1,18.38,18.38,0,0,0,7.25-3.52,6.49,6.49,0,0,0-.43-1.12,25,25,0,0,1-5.94,2.79,4.6,4.6,0,0,0-.61-.93,19.43,19.43,0,0,0,6.07-2.66,5.22,5.22,0,0,0-.77-.94,23.48,23.48,0,0,1-4.61,1.89,5,5,0,0,0-.66-.94,18.1,18.1,0,0,0,5.71-2.32h-3.65v-1h9.2v1h-4a10.53,10.53,0,0,1-1.14.85,7.21,7.21,0,0,1,1.63,2.45,27.63,27.63,0,0,0,3.49-2.67Zm-11-1.78h-1.15v-3.28h6a11.41,11.41,0,0,0-.59-1.17l1.22-.35a9.16,9.16,0,0,1,.78,1.52h5.91v3.28h-1.2v-2.18h-11Z"/><path class="cls-3" d="M481.05,207.73a2.43,2.43,0,1,1-2.43,2.43A2.43,2.43,0,0,1,481.05,207.73Zm0,4a1.62,1.62,0,1,0-1.62-1.62A1.61,1.61,0,0,0,481.05,211.78Z"/></g></svg>