<svg xmlns="http://www.w3.org/2000/svg" viewBox="0 0 508.76 83.5"><defs><style>.cls-1{fill:#ff9947;}.cls-1,.cls-4{stroke:#e0e0e0;stroke-miterlimit:10;stroke-width:2px;}.cls-2{fill:#001f2e;}.cls-3{fill:#e0e0e0;}.cls-4{fill:none;}</style></defs><title>budget</title><g id="預算表"><rect class="cls-1" x="1" y="1" width="506.76" height="36"/><path class="cls-2" d="M20.84,18.82v1.77h5.42V22.4H23.58l1.7.61c-.6,1-1.26,2-1.79,2.7h3.65v1.85H12.45V25.72h3.35A14.13,14.13,0,0,0,14.38,23l1.34-.56H13.26V20.58h5.41V18.82H15.22V18q-1.07.51-2.19.92A7.32,7.32,0,0,0,11.68,17c3.2-.92,6.25-2.63,7.87-5.17l1.92.87-.48.68A18.84,18.84,0,0,0,28,17a9.82,9.82,0,0,0-1.39,1.77,22.44,22.44,0,0,1-2.31-1v1ZM16.1,22.4a11.61,11.61,0,0,1,1.48,2.7l-1.39.61h2.48V22.4ZM22.76,17a19.55,19.55,0,0,1-2.94-2.21A15.1,15.1,0,0,1,17.07,17ZM20.84,22.4v3.31H23l-1.14-.48a15.57,15.57,0,0,0,1.5-2.84Z"/><path class="cls-2" d="M36.69,22.67h.05v5.24H35v-.42H32.76v.44H31.08V23c-.2.08-.41.17-.61.24a6.92,6.92,0,0,0-1-1.6,11.18,11.18,0,0,0,2.94-1.31l-.88-.53,1.12-1.17,1.12.61a6,6,0,0,0,1-1.12H32.69A7.63,7.63,0,0,1,30.82,20a4.35,4.35,0,0,0-1-1.33,5.91,5.91,0,0,0,2.45-3.14l1.53.31a7,7,0,0,1-.29.76h2.14l.29-.05,0,0V15.31H31.4v1.46H29.94V13.72h3c-.12-.37-.25-.76-.37-1.07l1.61-.56c.2.49.44,1.1.65,1.63h2.72v3.06H36.21l.73.53a9.53,9.53,0,0,1-1.68,2.79c.92.53,1.82,1.07,2.4,1.48Zm-.58,0c-.56-.41-1.31-.88-2.11-1.38a11.07,11.07,0,0,1-2.16,1.38ZM35,25.92V24.24H32.76v1.68Zm8-1.36a19.39,19.39,0,0,1,2.77,2l-1.16,1.38a20.43,20.43,0,0,0-2.82-2.23l1-1.14H40.21l1.21,1.26A21,21,0,0,1,37.76,28a9.89,9.89,0,0,0-.83-1.48,16,16,0,0,0,3.21-2H38.3v-9h2.16c.07-.37.14-.78.19-1.17H37.88v-1.7h7.6v1.7h-3c-.1.41-.24.82-.36,1.17h2.92v9ZM40.1,18.14h3v-1h-3Zm0,2.45h3v-1h-3Zm0,2.43h3V22h-3Z"/><path class="cls-2" d="M86.42,22.71c-2.06.78-4.27,1.58-6,2.19L79.62,23l2.35-.7V15.74H80.08V13.87h5.81v1.87H84v5.9L86.1,21Zm2.24,1.87,1.56,1.1a15.76,15.76,0,0,1-4.4,2.23,10,10,0,0,0-1.22-1.38,13.67,13.67,0,0,0,3.93-2H86.81v-9h2.67c.08-.39.15-.8.22-1.17H86.11v-1.7h9.62v1.7H92c-.14.41-.29.8-.43,1.17h3.55v9Zm0-6.41h4.45V17.1H88.68Zm0,2.45h4.45V19.53H88.68Zm0,2.48h4.45V22H88.68Zm4,1.53A25.15,25.15,0,0,1,96,26.75l-1.6,1.19a24.26,24.26,0,0,0-3.28-2.24Z"/><path class="cls-2" d="M111.6,13V27.74h-2.14V26.69h-7.87v1.05h-2V13Zm-10,2v2h7.87v-2Zm0,3.86v2h7.87v-2Zm7.87,5.92v-2h-7.87v2Z"/><path class="cls-3" d="M93.46,58a18,18,0,0,1-2.82,5.41c.59,1.57,1.33,2.48,2.15,2.48.45,0,.64-.83.75-3a2.81,2.81,0,0,0,1,.64c-.22,2.72-.66,3.51-1.87,3.51s-2.19-1-2.93-2.62a14.29,14.29,0,0,1-3.3,2.66,6.72,6.72,0,0,0-.86-.94,12.77,12.77,0,0,0,3.68-3,31.47,31.47,0,0,1-1.17-6.74H82.59v2.08h4.08V59c-.08,3.59-.18,4.93-.51,5.35a1.24,1.24,0,0,1-1,.46,18.35,18.35,0,0,1-1.9,0A2.47,2.47,0,0,0,83,63.71c.74.06,1.42.08,1.7.08s.38,0,.48-.18.3-1.25.37-4H82.59v.13c0,2.24-.24,5.46-1.68,7.54a4.73,4.73,0,0,0-1-.8c1.31-2,1.46-4.69,1.46-6.75V55.26h6.67c-.06-.88-.08-1.78-.1-2.69h1.23c0,.93,0,1.82.06,2.69h5.17v1.17H89.33A28.88,28.88,0,0,0,90.21,62a15.84,15.84,0,0,0,2-4.32Zm-2.77-5.35a15.29,15.29,0,0,1,2.87,1.82l-.74.82A16.4,16.4,0,0,0,90,53.34Z"/><path class="cls-3" d="M110.36,65.3v1.18H96.18V65.3h7.75a51.42,51.42,0,0,0,2.37-7.7l1.34.26a76.65,76.65,0,0,1-2.43,7.44Zm-.64-8.56H96.86V55.57h12.85Zm-9.14,7.88a50.11,50.11,0,0,0-1.5-6.72l1.18-.29a61.54,61.54,0,0,1,1.58,6.71Zm2.32-9.24a18.44,18.44,0,0,0-.77-2.59l1.15-.3a21.25,21.25,0,0,1,.83,2.54Z"/><path class="cls-3" d="M126.42,64.75v1.18H112.14V64.75h6.43V55.57H113V54.35h12.65v1.22h-5.75v9.19Z"/><path class="cls-3" d="M133,53a24.8,24.8,0,0,1-1.63,3.43V67.14h-1.18v-8.9a15.85,15.85,0,0,1-1.58,1.9A6,6,0,0,0,127.9,59a17.82,17.82,0,0,0,4-6.35Zm4.67,3.38v2.29h4.56v1.1h-4.56v2.42h4.79v1.12h-4.79v3.87h-1.2V56.35h-1.1a17.53,17.53,0,0,1-2.27,3.33,7.77,7.77,0,0,0-.93-.8,17,17,0,0,0,3.52-6.13l1.14.3c-.26.74-.56,1.46-.88,2.16h6.66v1.14Z"/><path class="cls-3" d="M158.34,65.63v1.07h-14.1V65.63h6.42V63.52h-5V62.46h5V60.78h1.2v1.68h5.07v1.06h-5.07v2.11Zm-12.76-8.87h-1.15V53.95h6.43c-.18-.4-.42-.86-.62-1.23l1.14-.34a13.39,13.39,0,0,1,.82,1.57h5.92v2.82h-1.2V55.05H145.58Zm10.5,4.5a9.39,9.39,0,0,0-.91-1c-7.59.59-8.34.64-8.84.85A10.61,10.61,0,0,0,146,60a2.67,2.67,0,0,0,1.09-.58,18.15,18.15,0,0,0,2.21-1.92H146v-1H156.6v1h-5.78a22.85,22.85,0,0,1-2.71,2.32l6.18-.43c-.43-.4-.88-.78-1.3-1.12l.88-.56a22.46,22.46,0,0,1,3.14,2.9Z"/><path class="cls-3" d="M168.24,53.24h1.06L164.51,68.8h-1.07Z"/><path class="cls-3" d="M179.92,53.42a21.3,21.3,0,0,1-4.69,6.8,8.88,8.88,0,0,0-1.06-1A16.66,16.66,0,0,0,178.63,53Zm4.5,7.6A49.57,49.57,0,0,1,188,66.4l-1.18.66c-.22-.45-.53-1-.86-1.54-8.29.58-9.17.62-9.8.85a7.36,7.36,0,0,0-.46-1.26c.43-.1.9-.62,1.5-1.38a35.7,35.7,0,0,0,4-6.31l1.33.56a42,42,0,0,1-4.69,6.87l7.4-.42c-.62-1-1.34-2-2-2.88Zm.34-8.07A11.63,11.63,0,0,0,189,59.12a6.3,6.3,0,0,0-.93,1.1,13.35,13.35,0,0,1-4.21-6.07h-3V53Z"/><path class="cls-3" d="M203.7,65.39c0,.82-.18,1.23-.72,1.44a10.47,10.47,0,0,1-3,.22,4.29,4.29,0,0,0-.42-1.28c1.1,0,2.21,0,2.53,0s.38-.1.38-.4V54.72H191V53.58H203.7Zm-3-7.94h-9.57V56.38h9.57Zm-7.4,6.8v1.17h-1.17V59.17h7.48v5.09Zm0-4v3h5.14v-3Z"/><path class="cls-3" d="M17.51,56.93a1.21,1.21,0,0,0-.22-.64,1.3,1.3,0,0,0-1.15-.56A1.71,1.71,0,0,0,14.49,57a8,8,0,0,0-.37,2.11,2.66,2.66,0,0,1,1-.76,3.44,3.44,0,0,1,1.33-.24,3.45,3.45,0,0,1,2.63,1.09,3.89,3.89,0,0,1,1,2.78,4.69,4.69,0,0,1-1,3A3.71,3.71,0,0,1,16,66.25a3.59,3.59,0,0,1-3.35-1.9,7.75,7.75,0,0,1-.84-3.83,17.41,17.41,0,0,1,.12-2.24,6.85,6.85,0,0,1,.81-2.56,4.12,4.12,0,0,1,1.35-1.4,3.64,3.64,0,0,1,2-.53,4,4,0,0,1,2.67.86,3.27,3.27,0,0,1,1.12,2.29ZM14.7,63.71a1.67,1.67,0,0,0,1.33.61,1.47,1.47,0,0,0,1.24-.59,2.47,2.47,0,0,0,.45-1.54,2.31,2.31,0,0,0-.51-1.61A1.65,1.65,0,0,0,15.95,60a1.68,1.68,0,0,0-1.07.37,2.07,2.07,0,0,0-.7,1.74A2.36,2.36,0,0,0,14.7,63.71Z"/><path class="cls-3" d="M22.56,67.91a1.85,1.85,0,0,0,1-.66,2.45,2.45,0,0,0,.39-1.3H22.56V63.46h2.56V65.6A5,5,0,0,1,25,66.78a2.4,2.4,0,0,1-.56,1.06,2.87,2.87,0,0,1-1,.73,2.68,2.68,0,0,1-.82.24Z"/><path class="cls-3" d="M35.06,55.44A9.36,9.36,0,0,1,36,60a9.31,9.31,0,0,1-.93,4.59,3.4,3.4,0,0,1-3.22,1.61,3.4,3.4,0,0,1-3.22-1.61A9.31,9.31,0,0,1,27.68,60a9.36,9.36,0,0,1,.93-4.6,3.4,3.4,0,0,1,3.22-1.62A3.4,3.4,0,0,1,35.06,55.44Zm-4.62,7.77a1.37,1.37,0,0,0,1.39,1.1,1.35,1.35,0,0,0,1.38-1.1A11.74,11.74,0,0,0,33.54,60a11.61,11.61,0,0,0-.33-3.22,1.34,1.34,0,0,0-1.38-1,1.36,1.36,0,0,0-1.39,1A11.21,11.21,0,0,0,30.1,60,11.33,11.33,0,0,0,30.44,63.21Z"/><path class="cls-3" d="M45.36,55.44a9.36,9.36,0,0,1,.93,4.6,9.31,9.31,0,0,1-.93,4.59,3.4,3.4,0,0,1-3.22,1.61,3.4,3.4,0,0,1-3.22-1.61A9.31,9.31,0,0,1,38,60a9.36,9.36,0,0,1,.93-4.6,3.4,3.4,0,0,1,3.22-1.62A3.4,3.4,0,0,1,45.36,55.44Zm-4.62,7.77a1.37,1.37,0,0,0,1.39,1.1,1.35,1.35,0,0,0,1.38-1.1A11.74,11.74,0,0,0,43.85,60a11.61,11.61,0,0,0-.33-3.22,1.34,1.34,0,0,0-1.38-1,1.36,1.36,0,0,0-1.39,1A11.21,11.21,0,0,0,40.4,60,11.33,11.33,0,0,0,40.74,63.21Z"/><path class="cls-3" d="M55.67,55.44a9.36,9.36,0,0,1,.93,4.6,9.31,9.31,0,0,1-.93,4.59,3.4,3.4,0,0,1-3.22,1.61,3.4,3.4,0,0,1-3.22-1.61A9.31,9.31,0,0,1,48.29,60a9.36,9.36,0,0,1,.93-4.6,3.4,3.4,0,0,1,3.22-1.62A3.4,3.4,0,0,1,55.67,55.44ZM51,63.21a1.37,1.37,0,0,0,1.39,1.1,1.35,1.35,0,0,0,1.38-1.1A11.74,11.74,0,0,0,54.15,60a11.61,11.61,0,0,0-.33-3.22,1.34,1.34,0,0,0-1.38-1,1.36,1.36,0,0,0-1.39,1A11.21,11.21,0,0,0,50.71,60,11.33,11.33,0,0,0,51,63.21Z"/><path class="cls-2" d="M263.46,25.9c.27,0,.34-.22.37-1.82a4.87,4.87,0,0,0,1.73.77c-.19,2.28-.68,2.91-1.87,2.91h-1.14c-1.55,0-1.87-.61-1.87-2.36V22h-.78c-.25,2.69-.87,4.79-3.64,6a5.81,5.81,0,0,0-1-1.41V27H252v.71h-1.73V21.84h5V26.4c2.11-.92,2.5-2.45,2.65-4.4h-1.11V17.39c-.19.19-.39.37-.58.54a12.55,12.55,0,0,0-1.43-1.43l.07-.05h-5.32v-1.6h2.55a15.26,15.26,0,0,0-.82-2.14l1.7-.53a12.28,12.28,0,0,1,.93,2.19l-1.31.48h3v.94A11.7,11.7,0,0,0,258,12.27l1.87.58a17.39,17.39,0,0,1-2.36,3.74h5.83a31.74,31.74,0,0,0-2.79-3.54l1.41-1a27.7,27.7,0,0,1,3.6,4.5l-1.53,1.1c-.1-.19-.2-.37-.34-.58V22h-1.07v3.37c0,.49,0,.54.27.54Zm-8.41-7.16h-4.79V17.22h4.79Zm-4.79.75h4.79V21h-4.79Zm3.35,4H252v1.9h1.65Zm5.12-3.21h3V18.36h-3Z"/><path class="cls-2" d="M269.93,23.35v1.46h-1.87V13h5.66V23.35Zm0-8.55v2.41h1.92V14.8Zm1.92,6.71V19h-1.92v2.5Zm10.81,4.08c0,1.07-.22,1.6-.88,1.94a7.6,7.6,0,0,1-3.08.37,6.9,6.9,0,0,0-.7-2c.92.05,1.94,0,2.23,0s.43-.1.43-.39v-3H277A9,9,0,0,1,274.07,28a6.72,6.72,0,0,0-1.55-1.31c2.57-2.11,2.79-5.29,2.79-7.84V12.73h7.34Zm-2-4.83V18.59H277.3v.27c0,.59,0,1.24-.07,1.9ZM277.3,14.6v2.18h3.35V14.6Z"/><rect class="cls-4" x="1" y="1" width="506.76" height="79.5"/><line class="cls-4" x1="1" y1="80.5" x2="507.76" y2="80.5"/><line class="cls-4" x1="68.73" y1="1" x2="68.73" y2="80.5"/><line class="cls-4" x1="235.73" y1="1" x2="235.73" y2="80.5"/><path class="cls-3" d="M264.22,66.48h-6.47v.69h-1.12V59.54c-.34.32-.72.62-1.09.91a4.93,4.93,0,0,0-.69-.93v5.57H252v1.3h-1V61.15a10.18,10.18,0,0,1-.83,1.36,6.34,6.34,0,0,0-.69-1,16.55,16.55,0,0,0,2.27-6.72h-1.89V53.68h5.25v1.09h-2.21a28.76,28.76,0,0,1-.8,3.55h2.74v1.12a11.08,11.08,0,0,0,3.52-4.24h-1.87v1.71h-1V54.17h3.39c.21-.53.4-1.09.56-1.65l1.12.22a13.84,13.84,0,0,1-.5,1.42h3.83v2.71H262.8V55.2h-3.17a15.82,15.82,0,0,1-1.36,2.4h2.08c-.21-.48-.46-1-.69-1.47l1-.4a15.12,15.12,0,0,1,.9,1.87h2.19v1h-2.5v1.62h2.29v.93h-2.29v1.7h2.29v.93h-2.29v1.68h3Zm-10.4-7.12H252V64h1.78Zm6.32-.75h-2.38v1.62h2.38Zm0,2.54h-2.38v1.7h2.38Zm-2.38,4.31h2.38V63.78h-2.38Z"/><path class="cls-3" d="M271.32,56.19h-5.63v-1h5.63Zm-.38,2.11H266.1v-.94h4.83Zm-4.83,1.17h4.83v1H266.1Zm4.75,6.79h-3.75V67h-1V61.63h4.75Zm-3.75-3.65v2.67h2.72V62.61Zm1.2-7.51a13.33,13.33,0,0,0-1-2.18l1-.35a13.56,13.56,0,0,1,1.06,2.11Zm2.58,10.13A10.4,10.4,0,0,0,272,61.87l.85.26a11.16,11.16,0,0,1-1.1,3.49Zm5.41-11c-.29,2.88-1.09,5.27-4,6.59a2.73,2.73,0,0,0-.69-.85,5.21,5.21,0,0,0,2.82-2.53c-.59-.61-1.57-1.46-2.32-2.08l.62-.67c.67.53,1.5,1.22,2.11,1.74a11.68,11.68,0,0,0,.4-2.21h-3.3v-1h7.79s0,.35,0,.51c-.18,4-.35,5.49-.74,6a1.31,1.31,0,0,1-1,.46,16.66,16.66,0,0,1-1.81,0,2.63,2.63,0,0,0-.34-1.06c.74.06,1.41.08,1.67.08A.59.59,0,0,0,278,59c.26-.29.42-1.54.54-4.77Zm.53,11.65c.53,0,.62-.27.67-2.13a2.76,2.76,0,0,0,.94.4c-.11,2.18-.4,2.69-1.5,2.69h-2.08c-1.26,0-1.58-.32-1.58-1.42V61.5h1v3.89c0,.38.11.46.66.46Zm-1.52-5.51a14.26,14.26,0,0,1,1.76,2.29l-.78.54a14.7,14.7,0,0,0-1.71-2.37Zm3.71.88a17.72,17.72,0,0,1,1.41,3.3l-.91.35a18.67,18.67,0,0,0-1.34-3.36Z"/><path class="cls-3" d="M290,58.34c1.12,3.52,3.2,6.42,6.29,7.68a6.1,6.1,0,0,0-.9,1.12c-3.07-1.46-5.11-4.29-6.37-7.92a11.21,11.21,0,0,1-6.39,7.92,3.43,3.43,0,0,0-.9-1A10.39,10.39,0,0,0,288,58.34h-5.91V57.12h6.1a34.18,34.18,0,0,0,.24-4.55h1.28a37.18,37.18,0,0,1-.26,4.55H296v1.22Z"/><path class="cls-3" d="M310.59,59c-.72.59-1.6,1.23-2.46,1.81a7.61,7.61,0,0,0,4.26,4.69,4.12,4.12,0,0,0-.77,1,8.73,8.73,0,0,1-4.42-5.07c-.24.16-.51.32-.75.45.54,2.06.14,4-.72,4.71a2.2,2.2,0,0,1-1.63.56l-1.38,0a2.61,2.61,0,0,0-.3-1.12c.58,0,1.1.08,1.44.08a1.31,1.31,0,0,0,1-.34A3.28,3.28,0,0,0,305.5,63a23.92,23.92,0,0,1-6.85,3.43,4.76,4.76,0,0,0-.62-1,18.38,18.38,0,0,0,7.25-3.52,6.52,6.52,0,0,0-.43-1.12,25,25,0,0,1-5.94,2.79,4.62,4.62,0,0,0-.61-.93A19.43,19.43,0,0,0,304.36,60a5.2,5.2,0,0,0-.77-.94A23.49,23.49,0,0,1,299,60.9a5,5,0,0,0-.66-.94A18.1,18.1,0,0,0,304,57.63h-3.65v-1h9.2v1h-4a10.58,10.58,0,0,1-1.14.85,7.22,7.22,0,0,1,1.63,2.45,27.62,27.62,0,0,0,3.49-2.67Zm-11-1.78h-1.15V54h6a11.51,11.51,0,0,0-.59-1.17l1.22-.35A9.12,9.12,0,0,1,305.8,54h5.91v3.28h-1.2V55.07h-11Z"/><path class="cls-3" d="M322.22,53.42a18.91,18.91,0,0,1-2.32,4H322v1.06H319A17.36,17.36,0,0,1,317.51,60h3.73v6.88h-1.14v-.72h-3.59v.94h-1.1V61.6c-.4.27-.83.53-1.26.77a8,8,0,0,0-.75-1,15.65,15.65,0,0,0,4.15-3h-3.79V57.37h3.17V55.45h-2.45V54.4h2.45V52.68H318V54.4h2v.88a17.29,17.29,0,0,0,1.12-2.16ZM320.11,61h-3.59v1.55h3.59Zm0,4.19V63.47h-3.59v1.68Zm-1.58-7.78a18.35,18.35,0,0,0,1.39-1.92H318v1.92ZM328.36,54c-.67,1.5-1.55,3.33-2.32,4.8,1.68,1.49,2.11,2.74,2.11,3.87a2.23,2.23,0,0,1-.82,2.08,2.32,2.32,0,0,1-1.07.37,9.15,9.15,0,0,1-1.49,0,2.74,2.74,0,0,0-.35-1.17,8.07,8.07,0,0,0,1.36,0,1.87,1.87,0,0,0,.75-.19c.35-.19.48-.67.46-1.25,0-1-.5-2.21-2.18-3.6.69-1.36,1.44-3.06,2-4.34h-3V67.17h-1.17V53.45h4.69l.19,0Z"/><path class="cls-3" d="M335.35,55.73c-.3.62-.62,1.26-1,1.86h7.75v8.08c0,.72-.16,1.07-.67,1.26a9.8,9.8,0,0,1-2.79.21,4,4,0,0,0-.4-1.17c1.07,0,2,0,2.32,0s.37-.1.37-.34V64h-6.87a5.74,5.74,0,0,1-1.63,3.25,3.81,3.81,0,0,0-.83-.93,6,6,0,0,0,1.47-4.56V59.42a13.43,13.43,0,0,1-2.59,2.45,8,8,0,0,0-.75-.93,13.07,13.07,0,0,0,4.31-5.22h-4V54.61h4.5a20.69,20.69,0,0,0,.7-2.06l1.18.29a17.88,17.88,0,0,1-.62,1.78H344v1.12ZM341,63V61.31h-6.67v.48c0,.38,0,.77,0,1.18Zm0-4.32h-6.67v1.62H341Z"/><path class="cls-3" d="M348.36,58.4A32.19,32.19,0,0,1,347,64.67l-1.18-.5a25.09,25.09,0,0,0,1.44-6ZM351,57v7.89c0,.74.19.88,1.1.88h3.06c1,0,1.14-.56,1.26-3.31a3.78,3.78,0,0,0,1.12.53c-.18,3-.54,3.91-2.32,3.91H352c-1.73,0-2.21-.43-2.21-2V57Zm.34-3.87a29.25,29.25,0,0,1,4.31,3.54l-.85.88a30,30,0,0,0-4.24-3.63Zm7,4.66a28.75,28.75,0,0,1,2.14,6l-1.17.46a28.82,28.82,0,0,0-2.08-6Z"/><path class="cls-3" d="M363.64,58.58v8.6h-1.17V53.23h5.79v5.35Zm0-4.43v1.3h3.5v-1.3Zm3.5,3.52V56.29h-3.5v1.38Zm4,5.63v3.57h-1.06V63.3h-2.27a5.13,5.13,0,0,1-2.14,3.78,4.18,4.18,0,0,0-.79-.7,4,4,0,0,0,1.89-3.07h-2v-1h2V60.56H365v-1h7.89v1h-1.83v1.73h2.18v1Zm-1.06-1V60.56h-2.24v1.73Zm5.55,3.33c0,.7-.16,1.09-.62,1.3a7.44,7.44,0,0,1-2.48.21,4,4,0,0,0-.38-1.18c.88,0,1.74,0,2,0s.34-.1.34-.35v-7h-4.77V53.23h5.94Zm-4.8-11.48v1.3h3.63v-1.3Zm3.63,3.54V56.29h-3.63v1.39Z"/><path class="cls-3" d="M383,57a14.08,14.08,0,0,1-1.14,6,20.39,20.39,0,0,1,1.86,1.79l-.74.94a18,18,0,0,0-1.67-1.7,11.58,11.58,0,0,1-3,3.17,3.47,3.47,0,0,0-.82-.78,10.26,10.26,0,0,0,3-3.15c-.82-.69-1.67-1.38-2.43-2a40.37,40.37,0,0,0,1.09-4l-1.41.08-.13-1.09,1.76-.08c.24-1.22.45-2.47.58-3.55l1.1.08c-.14,1.06-.35,2.23-.58,3.41L382,56v-1.2H383V56l.75,0,0,1Zm-2.8.18c-.29,1.34-.62,2.64-.93,3.71.56.42,1.14.88,1.7,1.33a13,13,0,0,0,.94-5.14Zm9.51-2.31a20.81,20.81,0,0,1,2.71,4.47l-1,.51a12.25,12.25,0,0,0-.5-1.12c-5.84.45-6.53.51-7,.7a8.75,8.75,0,0,0-.4-1.14c.32-.06.63-.45,1-1a25.8,25.8,0,0,0,2.55-4.74l1.22.37A32.51,32.51,0,0,1,385.4,58l5-.32a25.57,25.57,0,0,0-1.55-2.39Zm-5.35,5.84h7v6.43H390.3v-.67h-4.79v.7h-1.1Zm1.1,1.07v3.63h4.79V61.78Z"/><path class="cls-3" d="M400.76,57.76h-6.95v-1h3V55.21h-2.43v-1h2.43V52.54H398v1.65h2.32v1H398v1.52h2.8ZM398,63.94v3.2h-1.12v-3.2h-3v-1h3V61.25h-2.54v-1h3.75a17.3,17.3,0,0,0,.77-2.34l1,.26c-.27.7-.54,1.47-.8,2.08h1.38v1H398v1.66h2.85v1Zm-2.31-3.76a8.59,8.59,0,0,0-.8-2.06l.85-.29a7.26,7.26,0,0,1,.85,2Zm11-4.51c-.06,5.31-.11,10,.8,10.18a6.44,6.44,0,0,0,.27-2.29,4.26,4.26,0,0,0,.72.77c-.11,2.39-.61,2.93-1.38,2.66-1.6-.48-1.58-4.82-1.55-10.2h-1.7v.62a23.21,23.21,0,0,1-.24,3.59,11.61,11.61,0,0,1,1.76,1.94l-.72.91a10.94,10.94,0,0,0-1.3-1.54,9.74,9.74,0,0,1-2.72,4.91,5.68,5.68,0,0,0-.91-.72,9.15,9.15,0,0,0,2.67-5.11,15.91,15.91,0,0,0-1.84-1.54l.67-.78c.45.3.93.67,1.38,1a22.41,22.41,0,0,0,.13-2.71v-.62h-1.81V55.66h1.81v-3.1h1.12v3.1Z"/><path class="cls-3" d="M415,56.37a20.14,20.14,0,0,1-1.76,2.42V67.2H412.1V60.1a19,19,0,0,1-1.81,1.66,11.42,11.42,0,0,0-.83-1,17.45,17.45,0,0,0,4.48-4.82ZM414.43,53a19.7,19.7,0,0,1-4.1,4,10.27,10.27,0,0,0-.71-.94,15.89,15.89,0,0,0,3.67-3.47Zm9.81,6h-2.42v6.61c0,.74-.18,1.1-.7,1.3a12.07,12.07,0,0,1-3,.18,4.28,4.28,0,0,0-.38-1.15c1.14,0,2.19,0,2.5,0s.4-.08.4-.35V59h-5.35V57.89h9Zm-.46-4.39H416V53.52h7.81Z"/></g></svg>