<svg xmlns="http://www.w3.org/2000/svg" viewBox="0 0 297.36 114.18"><defs><style>.cls-1{fill:#6bffba;}.cls-2{fill:#004864;}</style></defs><title>資產 2</title><g id="圖層_2" data-name="圖層 2"><g id="圖層_1-2" data-name="圖層 1"><path class="cls-1" d="M290.93,57.19a3.92,3.92,0,0,0,4-3.62,3.73,3.73,0,0,0-4-3.45H280.18a3.33,3.33,0,0,1-3.39-4l2-13h-32a5,5,0,0,0-4.72,4.5L239.28,54.3c-.48,2.83,1.25,4.51,3.14,4.51,2.16,0,3.55-1.46,3.89-3.64l1.8-10.68a4.62,4.62,0,0,1,4.22-4c2,0,3,1.78,2.58,4l-8.77,51.11a4.94,4.94,0,0,1-4.68,4H236.6a4.85,4.85,0,0,0-4.63,4l-1,6.63a3.49,3.49,0,0,0,2.94,4l.45,0a4.16,4.16,0,0,0,3.82-3.61,4.81,4.81,0,0,1,4.67-3.61h3.65a7.07,7.07,0,0,0,6.66-5.52L257,81.12a5,5,0,0,1,4.75-3.94h11.58a3.33,3.33,0,0,1,3.39,4l-4.44,28.26a4,4,0,0,0,4.05,4.74h7.16c2.21,0,4.43-1,4.43-3.72,0-1.27-1-3.15-4-3.15h0a3.33,3.33,0,0,1-3.39-4l4.4-28a4.75,4.75,0,0,0-4.84-5.65h-3a3.33,3.33,0,0,1-3.39-4L275,57.2h15.91Z"/><path class="cls-1" d="M269.7,12.64c1.33-1.76,3.17-1.55,4.08.45l5.3,11.6c.92,2-.14,3.64-2.34,3.64h-14.9c-2.2,0-2.92-1.44-1.59-3.2Z"/><path class="cls-1" d="M279.57,11a2.12,2.12,0,0,1-1.67-3.42L283.12.86a2.12,2.12,0,0,1,3.4,2.53l-.06.08-5.22,6.69A2.12,2.12,0,0,1,279.57,11Z"/><path class="cls-1" d="M283.53,18.41a2.12,2.12,0,0,1-.91-4l8.82-4.18a2.12,2.12,0,1,1,1.82,3.83l-8.82,4.18A2.11,2.11,0,0,1,283.53,18.41Z"/><path class="cls-1" d="M295.24,26.34H286.3a2.12,2.12,0,1,1,0-4.24h8.94a2.12,2.12,0,1,1,0,4.24Z"/><rect class="cls-1" y="16.76" width="207.19" height="64.89" rx="32.44" ry="32.44"/><path class="cls-2" d="M57.6,53.87a41,41,0,0,0-3.87-3.48,12.6,12.6,0,0,1-2,2.58,16.74,16.74,0,0,0-2.34-1.53,26.25,26.25,0,0,0,11.46,8.37,16.38,16.38,0,0,0-2.64,3.27,28.83,28.83,0,0,1-9.72-7.59v8.73H44.74V55.67a28.94,28.94,0,0,1-9.63,7.41A22,22,0,0,0,32.59,60a26.55,26.55,0,0,0,12.15-9.66V43.43H33.81V39.92H44.73V36.23h3.75v3.69H59.79v3.51H48.48v6.72c.15.24.3.45.45.69a13.37,13.37,0,0,0,3.78-7.23l3.48.63a26.7,26.7,0,0,1-1,3.21c1.71,1.32,3.78,2.91,4.89,3.93Zm-15.45-9.6a29.3,29.3,0,0,1-1.08,3.24c1.08.93,2.22,1.92,2.91,2.64l-2.4,2.49a24,24,0,0,0-2-2.1,16.09,16.09,0,0,1-3.45,4.11,21.43,21.43,0,0,0-2.76-2.34,14.52,14.52,0,0,0,5.31-8.7Z"/><path class="cls-2" d="M79.11,51.74a53.64,53.64,0,0,1-5.58,7.35l12.15-.72c-1-1.53-2.16-3-3.21-4.32l3.3-1.44a50.5,50.5,0,0,1,6.66,9.66l-3.48,1.8c-.33-.75-.75-1.59-1.26-2.49C72.57,62.78,70.47,62.87,69,63.44c-.21-.72-.81-2.52-1.23-3.51A4.85,4.85,0,0,0,70,58.13a40.24,40.24,0,0,0,4.53-6.39H66.15v-3.6H77.82V43.88H68.43v-3.6h9.39V36.14H81.6v4.14h9.66v3.6H81.6v4.26H93.42v3.6Z"/><path class="cls-2" d="M105.27,53.06v7c0,1.65-.27,2.52-1.17,3.06a8,8,0,0,1-4.14.69A11.75,11.75,0,0,0,99,60.54h2.49A.43.43,0,0,0,102,60V54l-2.76.78-.81-3.45c1-.21,2.22-.54,3.57-.87V45.18H98.79v-3.3H102V36.21h3.24v5.67h3v3.3h-3v4.44l2.7-.72.48,3.21Zm13.65,7.56c.69.06,1.35.09,2.1.09h6a10.52,10.52,0,0,0-1,3.12H120.8c-3.93,0-7-.72-9-4.35a13.25,13.25,0,0,1-3.15,4.71A18.34,18.34,0,0,0,106,62.06c2.49-2,3.72-5.31,4.17-9.39l3.24.39a27.28,27.28,0,0,1-.57,3,6.73,6.73,0,0,0,2.61,3.51V51.74h-7V48.86h17.73v2.88H118.9v2.64h5.73v2.79H118.9v3.45Zm5.82-13.14H110V37.13h14.76Zm-3.42-7.86h-8.07v1.5h8.07Zm0,3.81h-8.07V45h8.07Z"/><path class="cls-2" d="M159.36,57.5h-6.93a43.1,43.1,0,0,1,6.75,4.08l-2.79,2.49a42.86,42.86,0,0,0-7.56-4.86l2-1.71h-3.45v6.72h-3.57V57.5h-5l3.51,1.17a21.78,21.78,0,0,1-7.23,5,26.11,26.11,0,0,0-3-2.37,16.23,16.23,0,0,0,6.6-3.84h-6.54V54.52h11.7V52.45h3.57v2.07h11.94v3Zm-3.69-3.66a65,65,0,0,0-8.52-2.58c-3.36,1.38-7.83,2-13.74,2.34a9.76,9.76,0,0,0-1.23-2.94,62.93,62.93,0,0,0,8.82-.75c-1.68-.33-3.36-.63-5.13-.9a31.73,31.73,0,0,0,2.49-2.46h-6V43.74h8.43a31.27,31.27,0,0,0,1.89-2.61h-6.51v1.65h-3.3V38.19h10.65q-.31-.67-.63-1.26l3.78-.75a21.12,21.12,0,0,1,1.17,2h10.71v4.59H155.1V41.12h-11l2.16.66c-.48.63-1,1.29-1.53,2h5.79a16.37,16.37,0,0,0,.72-1.83l3.48.69c-.12.39-.27.78-.42,1.14H159v2.79h-6.12a11.24,11.24,0,0,1-2.28,2.58c3.24.78,6.18,1.62,8.43,2.4Zm-13.53-7.29a8.91,8.91,0,0,1-.75.75c1.65.27,3.33.6,4.92.93a10.13,10.13,0,0,0,2.31-1.68h-6.48Z"/><path class="cls-2" d="M168,58.94a3.13,3.13,0,1,1,2.87,2.87A3.12,3.12,0,0,1,168,58.94Zm.51-15.3-.12-4.47h5.49l-.15,4.47-1,10.26h-3.09Z"/><path class="cls-1" d="M201.57,37.62h19.56a1.86,1.86,0,0,1,1.32,3.18L203,60.23a1.86,1.86,0,0,1-3.18-1.31l-.13-19.43A1.86,1.86,0,0,1,201.57,37.62Z"/></g></g></svg>