<svg xmlns="http://www.w3.org/2000/svg" viewBox="0 0 105.61 73.05"><defs><style>.cls-1,.cls-2,.cls-3,.cls-6{fill:none;stroke-linecap:round;}.cls-1{stroke:#e0e0e0;stroke-linejoin:round;stroke-width:5px;}.cls-2,.cls-3{stroke:#bebebe;stroke-width:2.54px;}.cls-2,.cls-3,.cls-6{stroke-miterlimit:10;}.cls-3{stroke-dasharray:0 3.35;}.cls-4{fill:#004864;}.cls-5{fill:#0f9bff;}.cls-6{stroke:#004864;stroke-width:3.29px;}</style></defs><title>資產 13</title><g id="圖層_2" data-name="圖層 2"><g id="小物提示"><path class="cls-1" d="M62.22,21.42s7.83-1.77,11.85,1.34,18.42,7.53,27.31-.92S83,6.17,62.22,21.42Z"/><line class="cls-1" x1="62.22" y1="21.42" x2="62.22" y2="21.42"/><path class="cls-1" d="M65.54,21c2.62-.18,6.21,0,8.53,1.79,4,3.11,18.42,7.53,27.31-.92,8.7-8.27-17.24-15.36-37.79-1.39"/><ellipse class="cls-1" cx="50.49" cy="12.37" rx="7.68" ry="9.24" transform="translate(2.85 33.17) rotate(-37.35)"/><ellipse class="cls-1" cx="66.7" cy="33.61" rx="7.68" ry="9.24" transform="translate(-6.71 47.36) rotate(-37.35)"/><ellipse class="cls-1" cx="52.03" cy="11.2" rx="7.68" ry="9.24" transform="translate(3.87 33.87) rotate(-37.35)"/><ellipse class="cls-1" cx="68.24" cy="32.44" rx="7.68" ry="9.24" transform="translate(-5.68 48.05) rotate(-37.35)"/><path class="cls-1" d="M58.74,18.17c4.13-.56,6.18,2.13,4.55,6L55,43.64c-1.63,3.84-5,4.27-7.55,1L34.83,28c-2.53-3.31-1.22-6.48,2.91-7Z"/><path class="cls-1" d="M58.74,18.17c4.13-.56,6.18,2.13,4.55,6L55,43.64c-1.63,3.84-5,4.27-7.55,1L34.83,28c-2.53-3.31-1.22-6.48,2.91-7Z"/><line class="cls-1" x1="53.02" y1="22.07" x2="51.2" y2="23.46"/><ellipse class="cls-1" cx="43.54" cy="34.46" rx="8.79" ry="15.14" transform="translate(-11.98 33.48) rotate(-37.35)"/><line class="cls-1" x1="58.02" y1="28.61" x2="56.19" y2="30.01"/><path class="cls-1" d="M25,69.06,43.2,55.15a16.06,16.06,0,0,0,3-22.44h0a16.06,16.06,0,0,0-22.44-3L5.55,43.61C-1.45,48.95,18,74.4,25,69.06Z"/><ellipse class="cls-1" cx="15.22" cy="56.37" rx="10.32" ry="16.01" transform="translate(-31.08 20.79) rotate(-37.35)"/><line class="cls-2" x1="62.22" y1="21.42" x2="62.22" y2="21.42"/><path class="cls-3" d="M65.54,21c2.62-.18,6.21,0,8.53,1.79,4,3.11,18.42,7.53,27.31-.92,8.7-8.27-17.24-15.36-37.79-1.39"/><ellipse class="cls-4" cx="50.49" cy="12.37" rx="7.68" ry="9.24" transform="translate(2.85 33.17) rotate(-37.35)"/><ellipse class="cls-4" cx="66.7" cy="33.61" rx="7.68" ry="9.24" transform="translate(-6.71 47.36) rotate(-37.35)"/><ellipse class="cls-5" cx="52.03" cy="11.2" rx="7.68" ry="9.24" transform="translate(3.87 33.87) rotate(-37.35)"/><ellipse class="cls-5" cx="68.24" cy="32.44" rx="7.68" ry="9.24" transform="translate(-5.68 48.05) rotate(-37.35)"/><path class="cls-5" d="M58.74,18.17c4.13-.56,6.18,2.13,4.55,6L55,43.64c-1.63,3.84-5,4.27-7.55,1L34.83,28c-2.53-3.31-1.22-6.48,2.91-7Z"/><line class="cls-6" x1="53.02" y1="22.07" x2="51.2" y2="23.46"/><ellipse class="cls-4" cx="43.54" cy="34.46" rx="8.79" ry="15.14" transform="translate(-11.98 33.48) rotate(-37.35)"/><line class="cls-6" x1="58.02" y1="28.61" x2="56.19" y2="30.01"/><path class="cls-5" d="M25,69.06,43.2,55.15a16.06,16.06,0,0,0,3-22.44h0a16.06,16.06,0,0,0-22.44-3L5.55,43.61C-1.45,48.95,18,74.4,25,69.06Z"/><ellipse class="cls-4" cx="15.22" cy="56.37" rx="10.32" ry="16.01" transform="translate(-31.08 20.79) rotate(-37.35)"/></g></g></svg>