<svg xmlns="http://www.w3.org/2000/svg" viewBox="0 0 62.02 36.39"><defs><style>.cls-1{fill:#00364b;}.cls-2{fill:#e0e0e0;}.cls-3{fill:#ff665c;}</style></defs><title>資產 22</title><g id="圖層_2" data-name="圖層 2"><g id="content"><path class="cls-1" d="M60.26,20.34c-6.32,4.46-10.79,7.14-27.67,13.94C16.94,40.59,1.12,31.31,1.12,25S19.7,8.85,37.57,8.85,66.5,15.93,60.26,20.34Z"/><path class="cls-2" d="M9.8,30.92A9.79,9.79,0,0,1,4.65,12.8L23,1.46A9.79,9.79,0,1,1,33.29,18.12L14.94,29.46A9.75,9.75,0,0,1,9.8,30.92Z"/><path class="cls-3" d="M9.8,30.92A9.79,9.79,0,0,1,4.65,12.8L10.86,9A9.79,9.79,0,0,1,21.15,25.62l-6.21,3.84A9.74,9.74,0,0,1,9.8,30.92Z"/></g></g></svg>