<svg xmlns="http://www.w3.org/2000/svg" viewBox="0 0 193 80.81"><defs><style>.cls-1{fill:none;stroke:#f7f8f8;stroke-width:5px;}.cls-2{fill:#00364b;}.cls-3{fill:#e0e0e0;}.cls-4{fill:#ff665c;}</style></defs><title>資產 144</title><g id="圖層_2" data-name="圖層 2"><g id="小物提示"><path class="cls-1" d="M51.82,48.19,125,6.42a5.54,5.54,0,0,1,5.18-.91l58.67,17.12c2.15.91,2.27,2.89.25,4.38,0,0-67.69,39.58-69.5,40.64-4.77,2.82-6.54,3.17-11.28,1.68-3.1-1-56.75-16.77-56.75-16.77C49.51,51.94,49.69,49,51.82,48.19Z"/><path class="cls-1" d="M51.94,47.59,123.28,3.74a5.22,5.22,0,0,1,5.1-1l58.46,17.53c2.15.94,2.32,3,.36,4.56,0,0-66,41.53-67.75,42.65-4.65,3-6.4,3.33-11.11,1.8-3.09-1-56.55-17.18-56.55-17.18C49.75,51.5,49.86,48.46,51.94,47.59Z"/><path class="cls-1" d="M112.7,65.2a10.4,10.4,0,0,1-2.84-.64C107.35,63.75,73,53.34,59,49.11L125.9,8l.2-.13c.28-.19.45-.3.56-.36l.41.08,53,15.88L116.76,63.3C114.26,64.89,113.38,65.2,112.7,65.2Z"/><path class="cls-1" d="M29.35,52.54,97.16,7.15A5,5,0,0,1,102.08,6l57.19,15.21c2.11.85,2.33,2.86.48,4.46,0,0-62.7,42.94-64.37,44.1-4.41,3.05-6.1,3.48-10.72,2.14C81.64,71.06,29.33,57,29.33,57,27.35,56.45,27.36,53.46,29.35,52.54Z"/><path class="cls-1" d="M28.6,52.6,94.24,3.93a4.62,4.62,0,0,1,4.81-1.21l56.71,16.06c2.1.9,2.37,3,.59,4.76,0,0-60.67,46-62.29,47.28-4.27,3.27-5.92,3.73-10.5,2.32-3-.92-54.87-15.77-54.87-15.77C26.72,56.77,26.66,53.59,28.6,52.6Z"/><path class="cls-1" d="M87.51,68.88A9.7,9.7,0,0,1,85,68.35C82.56,67.58,48.29,57.77,35.11,54L97.22,7.95l.51-.4.09,0,51.93,14.7c-13.16,10-57.33,43.5-58.73,44.58C88.56,68.73,87.94,68.88,87.51,68.88Z"/><path class="cls-1" d="M6.7,66.29,56,16.84c1.32-1.46,2.22-2.13,4.48-2l55.61,5.68c2.09.51,2.54,2.53,1,4.5,0,0-44.85,46-46.28,47.53-3.77,3.91-5.3,4.64-9.81,4.07-2.95-.37-53.82-5.71-53.82-5.71C5.29,70.65,4.94,67.58,6.7,66.29Z"/><path class="cls-1" d="M3.62,66.17l49.17-52.9C54.11,11.7,55,11,57.29,11.15l56.29,6.93c2.12.58,2.61,2.78,1.08,4.89,0,0-44.68,49.27-46.1,50.85-3.76,4.18-5.29,5-9.85,4.27-3-.45-54.49-6.94-54.49-6.94C2.26,70.88,1.86,67.54,3.62,66.17Z"/><path class="cls-1" d="M61.18,73.31a12.06,12.06,0,0,1-1.7-.16C57,72.78,23.06,68.49,9.94,66.83L56.61,16.62l.4-.46,51.25,6.31C98.69,33,65.92,69.16,64.69,70.53,62.19,73.31,61.79,73.31,61.18,73.31Z"/><path class="cls-1" d="M61.18,73.31a12.06,12.06,0,0,1-1.7-.16C57,72.78,23.06,68.49,9.94,66.83L56.61,16.62l.4-.46,51.25,6.31C98.69,33,65.92,69.16,64.69,70.53,62.19,73.31,61.79,73.31,61.18,73.31Z"/><path class="cls-1" d="M61.18,73.31a12.06,12.06,0,0,1-1.7-.16C57,72.78,23.06,68.49,9.94,66.83L56.61,16.62l.4-.46,51.25,6.31C98.69,33,65.92,69.16,64.69,70.53,62.19,73.31,61.79,73.31,61.18,73.31Z"/><path class="cls-2" d="M51.82,48.19,125,6.42a5.54,5.54,0,0,1,5.18-.91l58.67,17.12c2.15.91,2.27,2.89.25,4.38,0,0-67.69,39.58-69.5,40.64-4.77,2.82-6.54,3.17-11.28,1.68-3.1-1-56.75-16.77-56.75-16.77C49.51,51.94,49.69,49,51.82,48.19Z"/><path class="cls-3" d="M51.94,47.59,123.28,3.74a5.22,5.22,0,0,1,5.1-1l58.46,17.53c2.15.94,2.32,3,.36,4.56,0,0-66,41.53-67.75,42.65-4.65,3-6.4,3.33-11.11,1.8-3.09-1-56.55-17.18-56.55-17.18C49.75,51.5,49.86,48.46,51.94,47.59Z"/><path class="cls-4" d="M112.7,65.2a10.4,10.4,0,0,1-2.84-.64C107.35,63.75,73,53.34,59,49.11L125.9,8l.2-.13c.28-.19.45-.3.56-.36l.41.08,53,15.88L116.76,63.3C114.26,64.89,113.38,65.2,112.7,65.2Z"/><path class="cls-2" d="M29.35,52.54,97.16,7.15A5,5,0,0,1,102.08,6l57.19,15.21c2.11.85,2.33,2.86.48,4.46,0,0-62.7,42.94-64.37,44.1-4.41,3.05-6.1,3.48-10.72,2.14C81.64,71.06,29.33,57,29.33,57,27.35,56.45,27.36,53.46,29.35,52.54Z"/><path class="cls-3" d="M28.6,52.6,94.24,3.93a4.62,4.62,0,0,1,4.81-1.21l56.71,16.06c2.1.9,2.37,3,.59,4.76,0,0-60.67,46-62.29,47.28-4.27,3.27-5.92,3.73-10.5,2.32-3-.92-54.87-15.77-54.87-15.77C26.72,56.77,26.66,53.59,28.6,52.6Z"/><path class="cls-4" d="M87.51,68.88A9.7,9.7,0,0,1,85,68.35C82.56,67.58,48.29,57.77,35.11,54L97.22,7.95l.51-.4.09,0,51.93,14.7c-13.16,10-57.33,43.5-58.73,44.58C88.56,68.73,87.94,68.88,87.51,68.88Z"/><path class="cls-2" d="M6.7,66.29,56,16.84c1.32-1.46,2.22-2.13,4.48-2l55.61,5.68c2.09.51,2.54,2.53,1,4.5,0,0-44.85,46-46.28,47.53-3.77,3.91-5.3,4.64-9.81,4.07-2.95-.37-53.82-5.71-53.82-5.71C5.29,70.65,4.94,67.58,6.7,66.29Z"/><path class="cls-3" d="M3.62,66.17l49.17-52.9C54.11,11.7,55,11,57.29,11.15l56.29,6.93c2.12.58,2.61,2.78,1.08,4.89,0,0-44.68,49.27-46.1,50.85-3.76,4.18-5.29,5-9.85,4.27-3-.45-54.49-6.94-54.49-6.94C2.26,70.88,1.86,67.54,3.62,66.17Z"/><path class="cls-4" d="M61.18,73.31a12.06,12.06,0,0,1-1.7-.16C57,72.78,23.06,68.49,9.94,66.83L56.61,16.62l.4-.46,51.25,6.31C98.69,33,65.92,69.16,64.69,70.53,62.19,73.31,61.79,73.31,61.18,73.31Z"/><path class="cls-4" d="M61.18,73.31a12.06,12.06,0,0,1-1.7-.16C57,72.78,23.06,68.49,9.94,66.83L56.61,16.62l.4-.46,51.25,6.31C98.69,33,65.92,69.16,64.69,70.53,62.19,73.31,61.79,73.31,61.18,73.31Z"/></g></g></svg>