<svg xmlns="http://www.w3.org/2000/svg" viewBox="0 0 101.88 73.65"><defs><style>.cls-1{fill:#00364b;}.cls-2,.cls-3,.cls-6{fill:none;stroke-linecap:round;stroke-miterlimit:10;}.cls-2,.cls-3{stroke:#bebebe;stroke-width:2.54px;}.cls-3{stroke-dasharray:0 3.35;}.cls-4{fill:#ff9947;}.cls-5{fill:#ffcd32;}.cls-6{stroke:#ff9947;stroke-width:3.29px;}</style></defs><title>資產 26</title><g id="圖層_2" data-name="圖層 2"><g id="content"><path class="cls-1" d="M89.22,36.93c-1.69,2.91-7.75,8.25-21,6,0,0,3.42,6.3-4.14,8.18,0,0,3.65,1.1,0,3.29S36.65,72.67,36.65,72.67,19.91,78.26,4,62.68l50.61-33S90,32.11,89.22,36.93Z"/><line class="cls-2" x1="59.72" y1="18.92" x2="59.72" y2="18.92"/><path class="cls-3" d="M63,18.47c2.62-.18,6.21,0,8.53,1.79,4,3.11,18.42,7.53,27.31-.92C107.58,11.07,81.64,4,61.09,18"/><ellipse class="cls-4" cx="47.99" cy="9.87" rx="7.68" ry="9.24" transform="translate(3.85 31.14) rotate(-37.35)"/><ellipse class="cls-4" cx="64.2" cy="31.11" rx="7.68" ry="9.24" transform="translate(-5.71 45.33) rotate(-37.35)"/><ellipse class="cls-5" cx="49.53" cy="8.7" rx="7.68" ry="9.24" transform="translate(4.88 31.84) rotate(-37.35)"/><ellipse class="cls-5" cx="65.74" cy="29.94" rx="7.68" ry="9.24" transform="translate(-4.68 46.02) rotate(-37.35)"/><path class="cls-5" d="M56.24,15.67c4.13-.56,6.18,2.13,4.55,6L52.52,41.14c-1.63,3.84-5,4.27-7.55,1L32.33,25.53c-2.53-3.31-1.22-6.48,2.91-7Z"/><line class="cls-6" x1="50.52" y1="19.57" x2="48.7" y2="20.96"/><ellipse class="cls-4" cx="41.04" cy="31.96" rx="8.79" ry="15.14" transform="translate(-10.98 31.45) rotate(-37.35)"/><line class="cls-6" x1="55.52" y1="26.11" x2="53.69" y2="27.51"/><path class="cls-5" d="M22.47,66.56,40.7,52.65a16.06,16.06,0,0,0,3-22.44h0a16.06,16.06,0,0,0-22.44-3L3,41.11C-4,46.45,15.47,71.9,22.47,66.56Z"/><ellipse class="cls-4" cx="12.72" cy="53.87" rx="10.32" ry="16.01" transform="translate(-30.07 18.76) rotate(-37.35)"/></g></g></svg>