<svg xmlns="http://www.w3.org/2000/svg" xmlns:xlink="http://www.w3.org/1999/xlink" viewBox="0 0 304.09 193.29"><defs><style>.cls-1{fill:url(#未命名漸層_7);}.cls-2{fill:#00364b;}.cls-3{fill:#3c9195;}.cls-4{fill:#004864;}.cls-5{fill:#0f9bff;}.cls-6{fill:#bebebe;}.cls-7{fill:none;stroke:#006464;stroke-linecap:round;stroke-miterlimit:10;}.cls-8{fill:#006464;}.cls-9{fill:#e0e0e0;}</style><linearGradient id="未命名漸層_7" x1="122.53" y1="-260.15" x2="223.64" y2="-19.04" gradientTransform="matrix(1, 0, 0, -1, 0, 66.4)" gradientUnits="userSpaceOnUse"><stop offset="0" stop-color="#ff9947"/><stop offset="1" stop-color="#00364b"/></linearGradient></defs><title>資產 1</title><g id="圖層_2" data-name="圖層 2"><g id="背景物件"><path class="cls-1" d="M220.34,138.48c11.53,11.27,24.15,28.73,38.68,36,10.15,5.09,26.27,7.08,35.37-.7,6.27-5.35,9.21-13.8,9.64-22s-1.36-16.4-3.15-24.44c-2.35-10.6-4.74-21.33-9.54-31.07-9-18.36-26-21.54-40.3-34.15-16-14.18-30.74-29.8-46.38-44.4C195.78,9.43,185.66.58,172.9,0c-11.48-.51-22.83,10-29.79,18.42-6.6,8-10.69,18.67-8.64,28.83,3.43,17,21.09,26.88,32.66,38,9.26,8.87,18,18.9,27.31,28Z"/><path class="cls-2" d="M106.4,193.29,9.65,96.62S-11,80,28.8,80H247.32l44,53.55s-13,46.38-24.45,59.71H106.4Z"/><path class="cls-3" d="M301.88,131.93h0c-.32-1.51-.65-3-1-4.61-2.35-10.6-4.74-21.32-9.54-31.06-.33-.68-.68-1.33-1-2l-.09-.16c-9.27-16.5-25.47-19.93-39.17-32-6.79-6-13.32-12.25-19.8-18.58l-213.83.36C10.32,42.66,3,49.36,3,61.59c0,15.83,6,31,19.5,43.8l81.34,79.31v-.34l.33.34H277.08a54.24,54.24,0,0,0,19.41-15.29C305.88,157.6,304.73,145.58,301.88,131.93Z"/><path class="cls-4" d="M290.24,176a53.84,53.84,0,0,0,6.23-6.59c10.46-13.13,7.87-26.51,4.42-42.1-2.35-10.6-4.74-21.32-9.54-31.06a43.09,43.09,0,0,0-2.19-3.9H12.64l91.49,92.36H277A54.35,54.35,0,0,0,290.24,176Z"/><path class="cls-5" d="M103.84,184.71,22.5,105.4C9,92.55,3,77.4,3,61.6S15.22,39.2,23.49,47.08l80.35,78.35v59.28Z"/><path class="cls-6" d="M103.84,179.29,24.22,99.54C13.41,89.11,7.34,77.89,7.34,64.26c0-17.5,11-18.47,17.67-12.07l78.83,79V179.3Z"/><polyline class="cls-7" points="13.8 50.39 103.12 136.59 278.71 139"/><polyline class="cls-7" points="10.85 53.49 101.84 142.38 277.11 143.7"/><polyline class="cls-7" points="8.41 57.93 101.02 148.7 275.77 149.16"/><polyline class="cls-7" points="8.01 64.34 100.09 154.96 274.66 155.66"/><polyline class="cls-7" points="8.41 71.69 101.75 163.98 274.52 163.86"/><polyline class="cls-7" points="10.1 79.38 103.27 172.42 275.82 172.97"/><path class="cls-5" d="M300.88,127.31c-2.35-10.6-4.74-21.32-9.54-31.06-9-18.36-26-21.54-40.3-34.15-6.79-6-13.32-12.25-19.8-18.58l-213.83.36,87.2,88H301.87C301.57,130.41,301.23,128.87,300.88,127.31Z"/><path class="cls-8" d="M290.24,176a53.84,53.84,0,0,0,6.23-6.59c9.41-11.82,8.26-23.83,5.41-37.49h-198a72.33,72.33,0,0,0-3.75,22.34c0,12.12,3.75,25.78,3.75,25.78H285.13A54.69,54.69,0,0,0,290.24,176Z"/><path class="cls-2" d="M274.72,120.35a48.53,48.53,0,0,0,4.45,7.65c2.13,3.36.6,6.7-1,9.63-6.84,12.16-10.06,21.56-9.46,37.38.07,2-.93,3.85-.67,5.79a6.41,6.41,0,0,0,1.9,3.91h7.16a54.24,54.24,0,0,0,19.41-15.29c10.46-13.13,7.87-26.51,4.42-42.1-2.35-10.6-4.74-21.32-9.54-31.06-9-18.36-26-21.54-40.3-34.15-7-6.2-13.77-12.68-20.46-19.22l-33.91.57c4.86,4.43,9.81,4.25,14.68,8.62a140.75,140.75,0,0,1,12,12.42c8.73,10,16.71,20.81,26.64,29.65C259.13,102.2,270.13,109.14,274.72,120.35Z"/><path class="cls-1" d="M220.34,138.48c11.53,11.27,24.15,28.73,38.68,36,10.15,5.09,26.27,7.08,35.37-.7,6.27-5.35,9.21-13.8,9.64-22s-1.36-16.4-3.15-24.44c-2.35-10.6-4.74-21.33-9.54-31.07-9-18.36-26-21.54-40.3-34.15-16-14.18-30.74-29.8-46.38-44.4C195.78,9.43,185.66.58,172.9,0c-11.48-.51-22.83,10-29.79,18.42-6.6,8-10.69,18.67-8.64,28.83,3.43,17,21.09,26.88,32.66,38,9.26,8.87,18,18.9,27.31,28Z"/><path class="cls-9" d="M103.84,187.71a3,3,0,0,1-2.1-.85L20.4,107.55C7.06,94.83,0,78.93,0,61.55,0,51.44,5.52,40.7,15.75,40.7a12.87,12.87,0,0,1,1.9.14l207.59-.36a3.58,3.58,0,0,1,2.1.85c6.6,4.88,12.54,12.16,19.69,18.47A103.84,103.84,0,0,0,262.4,70.48c9,5.44,18.21,11.06,24.43,22.12l.09.16c.39.69.76,1.39,1.11,2.11,5,10.12,7.42,21.11,9.78,31.74.35,1.57.69,3.12,1,4.64v0c2.71,13,4.46,26.78-6,39.92a57.26,57.26,0,0,1-20.49,16.14,3,3,0,0,1-1.27.28H103.84Z"/><path class="cls-3" d="M301.88,131.93h0c-.32-1.51-.65-3-1-4.61-2.35-10.6-4.74-21.32-9.54-31.06-.33-.68-.68-1.33-1-2l-.09-.16c-9.27-16.5-25.47-19.93-39.17-32-6.79-6-13.32-12.25-19.8-18.58l-213.83.36C10.32,42.66,3,49.36,3,61.59c0,15.83,6,31,19.5,43.8l81.34,79.31v-.34l.33.34H277.08a54.24,54.24,0,0,0,19.41-15.29C305.88,157.6,304.73,145.58,301.88,131.93Z"/><path class="cls-4" d="M290.24,176a53.84,53.84,0,0,0,6.23-6.59c10.46-13.13,7.87-26.51,4.42-42.1-2.35-10.6-4.74-21.32-9.54-31.06a43.09,43.09,0,0,0-2.19-3.9H12.64l91.49,92.36H277A54.35,54.35,0,0,0,290.24,176Z"/><path class="cls-5" d="M103.84,184.71,22.5,105.4C9,92.55,3,77.4,3,61.6S15.22,39.2,23.49,47.08l80.35,78.35v59.28Z"/><path class="cls-6" d="M103.84,179.29,24.22,99.54C13.41,89.11,7.34,77.89,7.34,64.26c0-17.5,11-18.47,17.67-12.07l78.83,79V179.3Z"/><polyline class="cls-7" points="13.8 50.39 103.12 136.59 278.71 139"/><polyline class="cls-7" points="10.85 53.49 101.84 142.38 277.11 143.7"/><polyline class="cls-7" points="8.41 57.93 101.02 148.7 275.77 149.16"/><polyline class="cls-7" points="8.01 64.34 100.09 154.96 274.66 155.66"/><polyline class="cls-7" points="8.41 71.69 101.75 163.98 274.52 163.86"/><polyline class="cls-7" points="10.1 79.38 103.27 172.42 275.82 172.97"/><path class="cls-5" d="M300.88,127.31c-2.35-10.6-4.74-21.32-9.54-31.06-9-18.36-26-21.54-40.3-34.15-6.79-6-13.32-12.25-19.8-18.58l-213.83.36,87.2,88H301.87C301.57,130.41,301.23,128.87,300.88,127.31Z"/><path class="cls-8" d="M290.24,176a53.84,53.84,0,0,0,6.23-6.59c9.41-11.82,8.26-23.83,5.41-37.49h-198a72.33,72.33,0,0,0-3.75,22.34c0,12.12,3.75,25.78,3.75,25.78H285.13A54.69,54.69,0,0,0,290.24,176Z"/><path class="cls-2" d="M274.72,120.35a48.53,48.53,0,0,0,4.45,7.65c2.13,3.36.6,6.7-1,9.63-6.84,12.16-10.06,21.56-9.46,37.38.07,2-.93,3.85-.67,5.79a6.41,6.41,0,0,0,1.9,3.91h7.16a54.24,54.24,0,0,0,19.41-15.29c10.46-13.13,7.87-26.51,4.42-42.1-2.35-10.6-4.74-21.32-9.54-31.06-9-18.36-26-21.54-40.3-34.15-7-6.2-13.77-12.68-20.46-19.22l-33.91.57c4.86,4.43,9.81,4.25,14.68,8.62a140.75,140.75,0,0,1,12,12.42c8.73,10,16.71,20.81,26.64,29.65C259.13,102.2,270.13,109.14,274.72,120.35Z"/></g></g></svg>