<svg xmlns="http://www.w3.org/2000/svg" viewBox="0 0 148.05 73.66"><defs><style>.cls-1,.cls-2,.cls-5,.cls-6{fill:none;}.cls-1{stroke:#00364b;stroke-width:4.75px;}.cls-1,.cls-2,.cls-5{stroke-miterlimit:10;}.cls-2{stroke:#3c9195;stroke-width:4px;}.cls-3{fill:#00364b;}.cls-4{fill:#3c9195;}.cls-5,.cls-6{stroke:#bebebe;}.cls-6{stroke-linecap:round;stroke-linejoin:round;}.cls-7{fill:#bebebe;}.cls-8{fill:#ff665c;}.cls-9{fill:#004864;}</style></defs><title>資產 12</title><g id="圖層_2" data-name="圖層 2"><g id="content"><ellipse class="cls-1" cx="22.97" cy="19.64" rx="6.03" ry="16.61" transform="translate(2.46 41.83) rotate(-87.79)"/><ellipse class="cls-2" cx="17.47" cy="9.19" rx="7.17" ry="15.48" transform="translate(7.62 26.29) rotate(-87.79)"/><path class="cls-3" d="M93.94,29.55s26.4,7.74,33.44,9.59c24.07,6.32,24.46,17.7,14.57,24-24.5,15.58-67.34,12-97.71,1.29S15.33,42.5,15.33,42.5Z"/><ellipse class="cls-4" cx="64.17" cy="43.25" rx="19.26" ry="49.17" transform="matrix(0.06, -1, 1, 0.06, 16.85, 104.47)"/><rect class="cls-4" x="15.63" y="24.01" width="98.33" height="19.26" transform="matrix(1, 0.06, -0.06, 1, 2.32, -4.13)"/><ellipse class="cls-4" cx="65.42" cy="24.03" rx="19.26" ry="49.17" transform="translate(37.19 87.75) rotate(-86.28)"/><ellipse class="cls-3" cx="65.28" cy="26.09" rx="18.95" ry="48.44" transform="translate(35.02 89.54) rotate(-86.28)"/><ellipse class="cls-5" cx="65.21" cy="28.09" rx="14.9" ry="38.09" transform="matrix(0.06, -1, 1, 0.06, 32.95, 91.33)"/><polyline class="cls-6" points="35.77 14.55 33.79 12.53 38.24 13.68 36.07 11.74"/><path class="cls-7" d="M87.49,39.79h0a3.26,3.26,0,0,1-2.95.1L43.13,22.39c-1-.43-1.36-1.18-.76-1.66h0a3.26,3.26,0,0,1,2.95-.1L86.73,38.12C87.76,38.56,88.09,39.3,87.49,39.79Z"/><path class="cls-8" d="M43.13,22.39c-1-.43-1.36-1.18-.76-1.66h0a3.26,3.26,0,0,1,2.95-.1l2.42,1-2.9,1.46Z"/><ellipse class="cls-9" cx="63.88" cy="29.55" rx="1.38" ry="3.52" transform="translate(30.25 91.38) rotate(-86.28)"/><rect class="cls-9" x="60.4" y="28.17" width="7.04" height="1.38" transform="translate(2.01 -4.09) rotate(3.72)"/><ellipse class="cls-7" cx="63.97" cy="28.17" rx="1.38" ry="3.52" transform="translate(31.71 90.18) rotate(-86.28)"/><ellipse class="cls-9" cx="63.96" cy="27.82" rx="0.82" ry="2.09" transform="translate(32.05 89.83) rotate(-86.28)"/><rect class="cls-9" x="61.89" y="27" width="4.18" height="0.82" transform="translate(1.91 -4.09) rotate(3.72)"/><ellipse class="cls-7" cx="64.01" cy="27" rx="0.82" ry="2.09" transform="translate(32.91 89.12) rotate(-86.28)"/><line class="cls-6" x1="85.23" y1="16.5" x2="87.87" y2="13.15"/><line class="cls-6" x1="43.33" y1="39.09" x2="37.27" y2="38.29"/><line class="cls-6" x1="95.05" y1="38.98" x2="100.35" y2="39.3"/></g></g></svg>