<svg xmlns="http://www.w3.org/2000/svg" viewBox="0 0 250.83 89.55"><defs><style>.cls-1{fill:#6bffba;}.cls-2{fill:#00364b;}</style></defs><title>資產 12</title><g id="圖層_2" data-name="圖層 2"><g id="對話框"><rect class="cls-1" width="250.83" height="49.48" rx="24.74" ry="24.74"/><path class="cls-2" d="M43.16,26.18a10.88,10.88,0,0,1-2.63,4.47,10.15,10.15,0,0,0,3.58,1.59A6.56,6.56,0,0,0,43,33.68a11.49,11.49,0,0,1-3.73-1.9,13.68,13.68,0,0,1-3.69,2,5.11,5.11,0,0,0-.95-1.41V33.8h-1.7V32c-2.34.24-4.66.51-6.43.72l-.15-1.6L28.13,31l0-6.25h-1.6V23.25l17.07.06v1.46l-9,0,0,7.54A10.64,10.64,0,0,0,38,30.6,11.12,11.12,0,0,1,36,27.32l.47-.13H35.32V25.76l6.43,0,.29-.06ZM30.6,22.48H28.87l0-6,12.57,0,0,6H39.62l0-4.66-9,0Zm-.85,8.34c1-.09,2.11-.21,3.2-.34v-.93h-3.2Zm0-2.61H33V27.13h-3.2Zm0-3.49v1.09H33V24.73Zm1.57-3.89,7.42,0V22l-7.42,0Zm7.41-2v1.13l-7.4,0V18.77Zm-1.18,8.39a9,9,0,0,0,1.67,2.38A8.65,8.65,0,0,0,41,27.2Z"/><path class="cls-2" d="M55.12,25.11a25,25,0,0,1-1.91,5.22c.29.2.66.47,1.17.78,1.32.82,3.09.95,5.37,1a71.35,71.35,0,0,0,7.78-.42A6.91,6.91,0,0,0,67,33.51c-1.52.09-5,.2-7.33.19-2.53,0-4.21-.23-5.61-1.05-.78-.45-1.5-1.14-1.89-1.14S51.06,32.77,50.55,34l-1.22-1.7a7.2,7.2,0,0,1,2.31-2.19A17.87,17.87,0,0,0,53,26.41H50.38c.47-1.13,1.08-2.68,1.59-4.16H49.66V20.59l4.54,0c-.47,1.34-1,2.9-1.57,4.22H54l.27-.08Zm-3.23-5.23c-.23-.84-.69-2.19-1-3.2l1.68-.44c.33,1,.81,2.24,1,3.06Zm6.75,3.4c-.16,2.42-.66,5.2-2.09,7.18A8.29,8.29,0,0,0,55,29.34c1.68-2.35,1.87-5.64,1.88-8l0-4.15A38.66,38.66,0,0,0,65.23,16l1.48,1.35a36.3,36.3,0,0,1-8,1.18v3l8.48,0v1.7H63.86l0,7.74H62l0-7.74Z"/><path class="cls-2" d="M90.42,19V20.7l-10.48,0a23.68,23.68,0,0,1-2.33,3.91l0,9.35H75.75l0-7.25a17,17,0,0,1-2,1.69,10.65,10.65,0,0,0-.89-1.7,15.9,15.9,0,0,0,5-6l-4.48,0V18.9l5.26,0a20.59,20.59,0,0,0,1-2.86l1.89.47c-.26.8-.53,1.6-.85,2.39Zm-5,12.86,4.89,0v1.7l-11.63,0V31.8l4.91,0,0-5H79.47V25.1h4.17V21.61H85.5v3.51l4.15,0v1.68l-4.15,0Z"/><path class="cls-2" d="M103.18,23.59c-.22.39-.41.76-.65,1.13l9.39,0,0,9.39h-1.81V33.4l-7.79,0v.74h-1.73l0-6.84a14.42,14.42,0,0,1-3.28,2.6,7.15,7.15,0,0,0-1.11-1.43,13.54,13.54,0,0,0,4.93-4.85l-4.38,0V22.13l5.16,0c.2-.37.37-.78.55-1.17l-4.33,0V19.54l4.81,0c.14-.37.24-.74.33-1.11-1.71.05-3.43.08-5,.08a4.26,4.26,0,0,0-.35-1.39,92.93,92.93,0,0,0,13.62-.83l1.09,1.31a67.06,67.06,0,0,1-7.31.73c-.12.41-.26.8-.39,1.21l7.83,0V21l-8.32,0c-.16.39-.33.8-.51,1.17l9.92,0v1.44ZM110.09,32V30.79l-7.79,0v1.19Zm-7.78-2.43,7.79,0V28.47l-7.79,0Zm7.81-3.4-7.79,0v1.11l7.79,0Z"/><path class="cls-2" d="M137,19.31s0,.62,0,.86c-.31,8.79-.55,11.81-1.33,12.78a2.17,2.17,0,0,1-1.7.91,21,21,0,0,1-2.94,0,4.25,4.25,0,0,0-.58-1.76c1.25.1,2.38.13,2.86.13a.87.87,0,0,0,.82-.33c.63-.64.89-3.58,1.17-10.93l-4.6,0a19.61,19.61,0,0,1-1.79,3.27,9.57,9.57,0,0,0-1.42-1l0,8.94-5.28,0V33.6h-1.66l.05-14.24h2.18a23.1,23.1,0,0,0,.69-3.15l2,.34c-.33,1-.71,2-1,2.82h3.12v3.68a18.61,18.61,0,0,0,2.93-6.83l1.75.42c-.24.9-.49,1.79-.81,2.65ZM125.84,30.54l0-4.31h-3.62l0,4.31Zm-3.59-9.6v3.7h3.62v-3.7ZM132.33,29a31.67,31.67,0,0,0-2.83-4.51l1.43-.79a35.07,35.07,0,0,1,2.93,4.36Z"/><path class="cls-2" d="M160.93,24.14v2l-17.73-.07v-2Z"/><path class="cls-2" d="M178.38,22.21a16.81,16.81,0,0,0,6,7.5A7.52,7.52,0,0,0,183,31.31a13.35,13.35,0,0,1-2.35-2.13v1.7l-4.31,0v3.45H174.4V30.85l-4.31,0V29.1a17,17,0,0,1-2.42,2.21,8,8,0,0,0-1.34-1.49,17.23,17.23,0,0,0,6-7.64l-5.38,0V20.34l7.46,0V16.43h1.91v3.94l7.56,0v1.83Zm-4,6.81,0-6.82h-.25a22.09,22.09,0,0,1-4,6.81Zm6.08,0a22.59,22.59,0,0,1-3.93-6.83h-.21l0,6.82Z"/><path class="cls-2" d="M207.42,26.28v1.31l-17.26-.06V26.21l7.64,0v-.94l-6.29,0V24.11l6.29,0v-.9l-5.83,0V22.07l5.83,0v-1l-7.62,0V19.8l7.62,0V18.9l-5.59,0V17.76l5.59,0V16.46h1.83v1.33l5.47,0v2h2.3v1.31h-2.3v2.1l-5.47,0v.9l6.43,0v1.17l-6.43,0v.94Zm-14.82,2,12.59,0,0,6.08h-1.83v-.56l-9,0v.58h-1.77Zm10.74,4.35v-1l-9,0v1Zm-9-3.17v1l9,0v-1Zm5.27-7.4h3.68v-1h-3.68Zm0-2.26h3.68v-.93h-3.68Z"/><path class="cls-2" d="M222.2,22.09c0-1.27-.95-2.11-2.74-2.12A4.53,4.53,0,0,0,216,21.61l-1.28-1.19a6.44,6.44,0,0,1,5-2.3c2.77,0,4.67,1.38,4.66,3.78,0,2.9-4.49,3.37-4.09,6.22h-2C217.79,24.93,222.2,24.15,222.2,22.09Zm-2.89,7.59a1.71,1.71,0,1,1-1.76,1.69A1.67,1.67,0,0,1,219.31,29.67Z"/><path class="cls-1" d="M129,49.37,136.53,86c1,4.86,4.64,4.73,5.54-.19l6.72-36.61c.67-3.65-.76-7.46-2.79-7.46H131.77C129.69,41.72,128.26,45.69,129,49.37Z"/></g></g></svg>