<svg xmlns="http://www.w3.org/2000/svg" xmlns:xlink="http://www.w3.org/1999/xlink" viewBox="0 0 842.29 221.15"><defs><style>.cls-1{fill:#0e364b;}.cls-2{fill:url(#未命名漸層_15);}.cls-3{fill:url(#未命名漸層_15-2);}.cls-4{fill:url(#未命名漸層_15-3);}.cls-5{fill:url(#未命名漸層_15-4);}</style><linearGradient id="未命名漸層_15" x1="-30.47" y1="156.78" x2="398.53" y2="137.78" gradientUnits="userSpaceOnUse"><stop offset="0" stop-color="#ff9947"/><stop offset="1" stop-color="#00364b"/></linearGradient><linearGradient id="未命名漸層_15-2" x1="338.18" y1="-68.34" x2="532.21" y2="111.09" xlink:href="#未命名漸層_15"/><linearGradient id="未命名漸層_15-3" x1="210.05" y1="337.59" x2="311.16" y2="96.48" xlink:href="#未命名漸層_15"/><linearGradient id="未命名漸層_15-4" x1="498.16" y1="-39.97" x2="514.51" y2="116.84" xlink:href="#未命名漸層_15"/></defs><title>資產 20</title><g id="圖層_2" data-name="圖層 2"><g id="背景物件"><path class="cls-1" d="M147,177.09h-.08c-25-2.2-44.83-7.79-66.51-17.1-9.24-4-18.62-7.88-27.43-12.76-4.94-2.74-8.58-6.9-13-10.17-5-3.7-10.38-7-15.46-10.67-3.26-2.35-4.86-7.13.34-8.15a54.17,54.17,0,0,1,10-1c2.65,0,5.06.71,7.71.78l20.81.57,41.62,1.15,83.24,2.3,80.75,2.23c5.52.15,11.23.38,16.67-.75.93-.19,11.28-2.56,11.5-2.87,1.64-2.31-4.25-11.76-6.28-13.17-3.65-2.54-9.28-3.38-13.66-4.13-12.51-2.13-25.46,1.06-38.07.41-17.11-.89-35,.81-52.25,1.37-37.2,1.22-74.49,1.89-111.68.11-6.18-.3-12.34-.74-18.52-1-4.7-.22-8.48.79-13.1,1.21-8,.73-16.11,1-24,1.42-1.89.11-3.47.92-5.25,1.38-1.43.37-2.92.26-4.37.69a11.63,11.63,0,0,0-7.12,6.18,14.88,14.88,0,0,0,.67,13c2.4,4.57,6.73,6.45,10,10.05a93.93,93.93,0,0,0,13.11,11.81c8.58,6.55,16.68,13.15,26.19,18.49,5.16,2.9,9.48,7.06,14.79,9.85a97.14,97.14,0,0,0,17.92,7.08c15.74,4.61,32.24,5.91,48.62,6.56q20.32.81,40.67.35c12.64-.29,24.84-1.85,37.44-1.94l82.94-.61c24.93,0,50.75-2.75,75.42,1.56,13.08,2.28,27.66,1.09,41.11,1.12l-.44-19c-34.84.05-69.68.11-104.3,1.31l-84.33,2.91C197.38,178.43,172.05,179.3,147,177.09Z"/><path class="cls-1" d="M540.89,9.16c-43.35.9-85.84,12.58-128.81,19-32.18,4.81-65.69,6.52-97.54-1.4-24.89-6.19-55-27.78-75.28.18a146.18,146.18,0,0,0-14.53,24.9c-3,6.54-5.51,13.72-3.85,20.66,1.51,6.31,6.25,11.44,10.88,16.23q13.22,13.68,27.06,26.8c9.37,8.88,19.86,17,28.86,26.2,2.81,2.87,4.08,6.44,6.49,9.59,3.75,4.9,8,9.55,12.07,14.22,21.1,24.19,40.69,44.57,73,51.48,19.27,4.13,39.13,4.13,58.82,4.12l366.9-.25c14,0,31.21-2.21,36.13-15.52,2.64-7.14.52-15.1-1.91-22.31-15.18-45-43-83.54-78.38-114.32-8.94-7.79-18.29-15.09-27.9-22-8-5.71-16.75-14.11-25.92-17.22-13.65-4.62-30.71-4.63-45-6.76l-43.48-6.5c-23.92-3.57-47.93-7.16-72.11-7.18Q543.64,9.1,540.89,9.16Z"/><path class="cls-2" d="M143.67,169.85l-20.58.45c-17,.36-31-7.79-46.47-14.37A345.15,345.15,0,0,1,44.73,140a76.06,76.06,0,0,1-15-10.88c-3.14-2.93-13.85-11.06-5.93-14.87a12.66,12.66,0,0,1,5.84-.78c10.22.25,20.44.51,30.65.62q20.81.22,41.61.5,41.61.56,83.21,1.34t83.21,1.8l21.63.54,10.82.28,5.41.14c.83,0,4.46-.4,5,.14C304.66,111.1,293.78,104.25,284,101c-14.21-4.71-32.45-.55-47.42-1.32-17.25-.89-35.28.81-52.67,1.37-19.09.62-38.19,1.1-57.29,1.18-27.16.12-54.23-.5-81.37-1-10-.2-19.93,1-30,1.57-6.36.37-12.23,3.45-14.18,8-2.95,7,.37,10.1,5.5,14.56,3,2.64,7.63,6.69,10.19,9.34,3,3.09,5.8,6.29,9.1,9.21,12.72,11.3,28.72,20.33,45.27,28.49,4.94,2.44,10,4.83,15.7,6.15a182.2,182.2,0,0,0,40.87,4.87c44,0,88.05.66,132.07,1l66.7.5c14,.11,29-.08,42.55,2.27,4,.7,8.24.37,12.19,1,4.42.67,8.13,2.74,12.79,2.28s9.46-3.61,10.18-8.26c1-6.62-6-11.55-12.41-13.58-12.36-3.92-25.59-3.67-38.55-3.38l-162.88,3.59Z"/><path class="cls-3" d="M534.54.05c-43.07.88-85.29,12.27-128,18.52-32,4.68-65.26,6.36-96.91-1.36-24.72-6-54.69-27.08-74.79.18a141.89,141.89,0,0,0-14.44,24.27C217.46,48,215,55,216.61,61.81c1.5,6.15,6.21,11.15,10.81,15.82Q240.55,91,254.31,103.76c9.31,8.66,19.73,16.59,28.67,25.54,2.79,2.8,4.06,6.28,6.45,9.35,3.73,4.77,7.94,9.31,12,13.86,21,23.58,40.43,43.45,72.51,50.19,19.14,4,38.88,4,58.44,4l364.53-.24c13.87,0,31-2.15,35.9-15.13,2.62-7,.52-14.72-1.9-21.75C815.8,125.72,788.12,88.15,753,58.15c-8.88-7.59-18.17-14.71-27.72-21.44-7.9-5.57-16.64-13.76-25.75-16.78C686,15.42,669,15.41,654.86,13.33L611.66,7C587.9,3.51,564,0,540,0Q537.28,0,534.54.05Z"/><path class="cls-4" d="M307.86,149.52c11.53,11.27,24.15,28.73,38.68,36,10.15,5.09,26.27,7.08,35.37-.7,6.27-5.35,9.21-13.8,9.64-22s-1.36-16.4-3.15-24.44c-2.35-10.6-4.74-21.33-9.54-31.07-9-18.36-26-21.54-40.3-34.15-16-14.18-30.74-29.8-46.38-44.4-8.88-8.29-19-17.14-31.76-17.7-11.48-.51-22.83,10-29.79,18.42-6.6,8-10.69,18.67-8.64,28.83,3.43,17,21.09,26.88,32.66,38,9.26,8.87,18.05,18.9,27.31,27.95Z"/><path class="cls-1" d="M341.29,33.91A687.24,687.24,0,0,0,431.78,32c29.59-2.48,58.28-8,87.58-12.51C529,18,538.63,16.68,548.3,15.57c46.36-5.31,94.7-4.83,137.89,12.81,9.1,3.72,18.09,8.31,24.89,15.41s11.15,17.11,9.48,26.8c-1.61,9.3-8.52,17-16.72,21.69S686.22,99,676.9,100.44a356.57,356.57,0,0,1-36,3.7c-22.65,1.22-45.35.73-68,.72-12,0-23.8-1.93-35.69-1.93-45.51,1.83-91.14,3.09-136.55,6q-10.58.68-21.13,1.78l1.26-1.53A63.18,63.18,0,0,1,368,99.27c-1-1.06-2.12-2.31-2.11-3.79A4,4,0,0,1,368,92.25c3.1-1.89,7.91-2.1,11.47-2.19,4-.1,8,.18,12,.18,11.44,0,22.89-.22,34.32-.72,5.75-.25,11.56-.94,17.31-1,5.2,0,10.4-.78,15.63-1.11,5.9-.37,12.28-1,18.1,0,6.25,1.06,13.16,1,19.49,1l79.42,1.19c29.55.44,59.16.89,88.6-1.77,8.6-.78,17.82-2.1,24.12-8,6.59-6.19,8.34-16.51,5.51-25.1A33.14,33.14,0,0,0,685,41.08c-3.38-3.19-7.21-5.33-11.21-7.59-3.05-1.72-5.45-4.26-8.66-5.71-9-4.08-19.42-6.27-29.12-7.88-19.87-3.3-40.7-2.81-60,3.14-10.11,3.11-21.64,3.33-32.15,5-11.21,1.76-22.38,3.75-33.55,5.79-22.1,4-44.17,8.32-66.42,11.52-21.4,3.08-43,5.16-64.63,5-5.4,0-10.8-.53-16.19-.56-3.56,0-6.76,1.29-10.29,1.54-11.25.81-22.37,1.18-33.56,2.91-2.75-3.54-5-6.63-8.47-9.36L297.37,34.45c-3.78-2.95,2.05-2.56,3.77-2.48Z"/><path class="cls-5" d="M341.29,28a687.24,687.24,0,0,0,90.48-1.9c29.59-2.48,58.28-8,87.58-12.51,9.62-1.47,19.27-2.82,28.94-3.93C594.66,4.31,643,4.79,686.19,22.44c9.1,3.72,18.09,8.31,24.89,15.41s11.15,17.11,9.48,26.8c-1.61,9.3-8.52,17-16.72,21.69S686.22,93,676.9,94.5a356.57,356.57,0,0,1-36,3.7c-22.65,1.22-45.35.73-68,.72a217.49,217.49,0,0,1-25.6-1.59c-10.56-1.23-21.94.3-32.55.71Q480,99.4,445.36,101.64q-17.32,1.12-34.62,2.47c-5.22.41-10.8.35-15.92,1.44-1.57.33-14.41,5.58-14.92,4.94-2.64-3.3-5.37-6.55-7.94-9.9-2.28-3-5.39-5.27-8.22-7.74a4,4,0,0,1-1.3-1.62c-1.86-5.61,14.34-7,17-7.1,4-.1,8,.18,12,.18,11.44,0,22.89-.22,34.32-.72,5.75-.25,11.56-.94,17.31-1,5.2,0,10.4-.78,15.63-1.11,5.9-.37,12.28-1,18.1,0,6.25,1.06,13.16,1,19.49,1l79.42,1.19c29.55.44,59.16.89,88.6-1.77,8.6-.78,17.82-2.1,24.12-8,6.59-6.19,8.34-16.51,5.51-25.1s-9.65-15.47-17.56-19.84C663.05,21.54,646.15,20,631.23,19a225.46,225.46,0,0,0-50.45,2.44c-28.92,4.82-58.56,5.6-87.56,10.07q-45.41,7-91.13,11.71-22.85,2.36-45.76,4.14c-7.6.59-15.36.71-22.93,1.64-5.22.65-9.9,5.45-15.28,4.77-4.32-.55-8.92-5.62-12.06-8.37-3.62-3.17-7-6.27-10.36-9.69-1.89-1.91-3.43-4.83-2.15-7.2s4.77-2.67,7.59-2.53Z"/></g></g></svg>