<svg xmlns="http://www.w3.org/2000/svg" viewBox="0 0 42.94 35.92"><defs><style>.cls-1{fill:none;stroke:#e0e0e0;stroke-width:5px;}.cls-2{fill:#e0e0e0;}.cls-3{fill:#ff665c;}</style></defs><title>資產 21</title><g id="圖層_2" data-name="圖層 2"><g id="小物提示"><path class="cls-1" d="M12.3,33.42A9.79,9.79,0,0,1,7.15,15.3L25.5,4A9.79,9.79,0,1,1,35.79,20.62L17.44,32A9.75,9.75,0,0,1,12.3,33.42Z"/><path class="cls-1" d="M12.3,33.42A9.79,9.79,0,0,1,7.15,15.3l6.21-3.84A9.79,9.79,0,1,1,23.65,28.12L17.44,32A9.74,9.74,0,0,1,12.3,33.42Z"/><path class="cls-2" d="M12.3,33.42A9.79,9.79,0,0,1,7.15,15.3L25.5,4A9.79,9.79,0,1,1,35.79,20.62L17.44,32A9.75,9.75,0,0,1,12.3,33.42Z"/><path class="cls-3" d="M12.3,33.42A9.79,9.79,0,0,1,7.15,15.3l6.21-3.84A9.79,9.79,0,1,1,23.65,28.12L17.44,32A9.74,9.74,0,0,1,12.3,33.42Z"/></g></g></svg>