<svg xmlns="http://www.w3.org/2000/svg" viewBox="0 0 210.33 89.55"><defs><style>.cls-1{fill:#6bffba;}.cls-2{fill:#00364b;}</style></defs><title>資產 12</title><g id="圖層_2" data-name="圖層 2"><g id="對話框"><rect class="cls-1" width="210.33" height="49.48" rx="24.74" ry="24.74"/><path class="cls-2" d="M50.17,26.18a10.88,10.88,0,0,1-2.63,4.47,10.15,10.15,0,0,0,3.58,1.59A6.56,6.56,0,0,0,50,33.68a11.49,11.49,0,0,1-3.73-1.9,13.68,13.68,0,0,1-3.69,2,5.11,5.11,0,0,0-.95-1.41V33.8H40V32c-2.34.24-4.66.51-6.43.72l-.15-1.6L35.15,31l0-6.25h-1.6V23.25l17.07.06v1.46l-9,0,0,7.54A10.64,10.64,0,0,0,45,30.6,11.12,11.12,0,0,1,43,27.32l.47-.13H42.33V25.76l6.43,0,.29-.06ZM37.61,22.48H35.88l0-6,12.57,0,0,6H46.64l0-4.66-9,0Zm-.85,8.34c1-.09,2.11-.21,3.2-.34v-.93h-3.2Zm0-2.61H40V27.13h-3.2Zm0-3.49v1.09H40V24.73Zm1.57-3.89,7.42,0V22l-7.42,0Zm7.41-2v1.13l-7.4,0V18.77Zm-1.18,8.39a9,9,0,0,0,1.67,2.38A8.65,8.65,0,0,0,48,27.2Z"/><path class="cls-2" d="M60.26,27.42l0-4.56a12.64,12.64,0,0,1-2.66,3.48A7.47,7.47,0,0,0,56.43,25,12.12,12.12,0,0,0,60,20.37H56.91V18.81h3.37V16H62v2.79h2.92v1.54H62v.94c.74.45,2.66,1.86,3.17,2.23l-1,1.48c-.47-.49-1.4-1.35-2.19-2l0,4.42ZM56.62,32a13.31,13.31,0,0,0,1.79-4l1.59.65a16.91,16.91,0,0,1-1.75,4.16Zm11.11-.13c.92,0,1.05-.27,1.18-2.22a5.11,5.11,0,0,0,1.63.67c-.26,2.57-.77,3.17-2.68,3.17h-3.8c-2.34,0-2.94-.5-2.93-2.21v-2.9h1.79v2.88c0,.53.19.6,1.3.61Zm-2.69-5c.87.82,2.06,2,2.66,2.68l-1.33,1.11a35.33,35.33,0,0,0-2.58-2.82Zm8.36.34-7.7,0,0-10.19,7.7,0Zm-1.72-3-4.31,0v1.54l4.31,0Zm0-2.88-4.31,0v1.52l4.31,0Zm0-2.86-4.31,0V20l4.31,0ZM72,27.78c.79,1.21,1.86,2.87,2.36,3.87l-1.68.85a45.28,45.28,0,0,0-2.26-4Z"/><path class="cls-2" d="M96.93,20.64a16.71,16.71,0,0,1-3,4.9c.53,3.94,1.34,6.63,2.08,6.63.29,0,.47-1,.56-3.19A4.09,4.09,0,0,0,98,30c-.27,3.08-.78,3.93-2.16,3.93-1.64,0-2.72-2.84-3.37-6.87a14.29,14.29,0,0,1-1.52,1.14,8.86,8.86,0,0,0-1-1l-6,0,0-4.46,6.25,0V26.6a10,10,0,0,0,2-1.53c-.19-1.74-.34-3.64-.41-5.59l-8.48,0v1.07l7.75,0v1.27l-7.75,0v.14c0,3.31-.3,8.57-2.05,12.07a5.88,5.88,0,0,0-1.42-1c1.63-3.31,1.8-8,1.81-11.12V18L91.7,18c0-.64,0-1.27,0-1.89h1.75c0,.62,0,1.25,0,1.89h1.79c-.5-.41-1.24-.9-1.79-1.27L94.5,16a24.22,24.22,0,0,1,2.14,1.41l-.78.64h1.73v1.46l-4.11,0c.05,1.31.13,2.59.26,3.8a12.93,12.93,0,0,0,1.57-3.05ZM82.49,32.78a35.26,35.26,0,0,0,.93-4l1.19.43c-.2,1.17-.56,2.94-.85,4.09Zm6.57-.27c.51,0,.63-.27.69-2.16a3.88,3.88,0,0,0,1.28.57c-.16,2.28-.56,2.86-1.82,2.86H86.95c-1.56,0-1.93-.42-1.92-1.8V28.7H86.5V32c0,.47.1.55.66.55ZM88.78,24H85.46V25.9h3.31Zm-.67,6.76c-.35-.72-1-2-1.61-2.89l1.17-.54a25.2,25.2,0,0,1,1.65,2.79Zm3.32-2.21c.64,1.23,1.45,2.91,1.82,3.88l-1.31.6a42.74,42.74,0,0,0-1.74-4Z"/><path class="cls-2" d="M108.92,20.88l-5.26,0V19.4l5.26,0ZM108.37,33h-2.81v.86h-1.34l0-6.55,4.15,0Zm-4.06-8.36,4.11,0V26l-4.11,0Zm0-2.59,4.11,0v1.42l-4.11,0Zm1.76-2.64a11.68,11.68,0,0,0-1-2.63l1.31-.48a12.05,12.05,0,0,1,1.06,2.58Zm-.5,9.31v2.84H107V28.69ZM116.19,26a13.79,13.79,0,0,1-1.53,2l0,4.19c0,.78-.16,1.23-.67,1.5a6.06,6.06,0,0,1-2.46.28,5,5,0,0,0-.52-1.5c.8,0,1.6,0,1.81,0s.33-.08.33-.33V29.53a21.61,21.61,0,0,1-3.77,2.77,11.17,11.17,0,0,0-.75-1.43,17.76,17.76,0,0,0,4.44-3.2c-1.44.17-2.85.32-4,.43l-.13-1.42.72-.06,0-8.3h1.44a17.57,17.57,0,0,0,.54-2.18l1.77.3-.77,1.89h2.07l0,7.38.18-.27Zm-5.09.51,2.07-.17V25.08H111.1Zm2.08-4h-2.07v1.34h2.07Zm0-2.67h-2.07v1.36h2.07Zm8,2.25h-1l0,10c0,.92-.2,1.36-.75,1.63a6.68,6.68,0,0,1-2.69.32,9.55,9.55,0,0,0-.58-1.62c.88,0,1.73,0,2,0s.37-.1.37-.41l0-10h-3.39V20.34h3.39v-4h1.64v4h1Zm-4.43,6.3a22.45,22.45,0,0,0-1.35-4.55l1.35-.36a19.9,19.9,0,0,1,1.44,4.45Z"/><path class="cls-2" d="M144.06,19.31s0,.62,0,.86c-.31,8.79-.55,11.81-1.33,12.78a2.17,2.17,0,0,1-1.7.91,21,21,0,0,1-2.94,0,4.25,4.25,0,0,0-.58-1.76c1.25.1,2.38.13,2.86.13a.87.87,0,0,0,.82-.33c.63-.64.89-3.58,1.17-10.93l-4.6,0A19.61,19.61,0,0,1,136,24.21a9.57,9.57,0,0,0-1.42-1l0,8.94-5.28,0V33.6h-1.66l.05-14.24h2.18a23.1,23.1,0,0,0,.69-3.15l2,.34c-.33,1-.71,2-1,2.82h3.12v3.68a18.61,18.61,0,0,0,2.93-6.83l1.75.42c-.24.9-.49,1.79-.81,2.65ZM132.85,30.54l0-4.31h-3.62l0,4.31Zm-3.59-9.6v3.7h3.62v-3.7ZM139.34,29a31.67,31.67,0,0,0-2.83-4.51l1.43-.79a35.07,35.07,0,0,1,2.93,4.36Z"/><path class="cls-2" d="M160,16.41c0,.74,0,1.75-.15,2.9.26,2.44,1.42,10.22,8.21,13.26a5.35,5.35,0,0,0-1.33,1.54c-4.57-2.18-6.68-6.48-7.7-10a15.53,15.53,0,0,1-7.48,10,5.61,5.61,0,0,0-1.49-1.45c8-4.1,7.8-13.18,7.87-16.3Z"/><path class="cls-2" d="M182.45,21.91c0-1.27-.95-2.11-2.74-2.11a4.52,4.52,0,0,0-3.44,1.64L175,20.25a6.43,6.43,0,0,1,5-2.3c2.77,0,4.67,1.38,4.66,3.78,0,2.9-4.49,3.37-4.09,6.22h-2C178,24.76,182.45,24,182.45,21.91Zm-2.89,7.59a1.71,1.71,0,1,1-1.76,1.69A1.67,1.67,0,0,1,179.56,29.5Z"/><path class="cls-1" d="M89.88,49.37,97.4,86c1,4.86,4.64,4.73,5.54-.19l6.72-36.61c.67-3.65-.76-7.46-2.79-7.46H92.63C90.55,41.72,89.12,45.69,89.88,49.37Z"/></g></g></svg>