<svg xmlns="http://www.w3.org/2000/svg" viewBox="0 0 197.99 99.77"><defs><style>.cls-1{fill:#00364b;}.cls-2{fill:#ff665c;}.cls-3,.cls-6,.cls-7{fill:none;stroke-linecap:round;stroke-miterlimit:10;}.cls-3{stroke:#ff9947;stroke-width:0.82px;}.cls-4{fill:#bebebe;}.cls-5{fill:#e0e0e0;}.cls-6{stroke:#e0e0e0;stroke-width:2.12px;}.cls-7{stroke:#00364b;}</style></defs><title>資產 18</title><g id="圖層_2" data-name="圖層 2"><g id="背景物件"><path class="cls-1" d="M89.22,99.77,198,61.79l-9.65-5.08s-48.76-43.47-64.45-45.32L114.7,4.63,6.06,33.18Z"/><path class="cls-2" d="M187.08,58.27l-15.36-7.11c.9.93-37.14-32.84-64.61-47.32L102.29,0,0,25.46,84.38,91.67Z"/><polyline class="cls-3" points="101.43 4.29 14.02 25.78 85.18 81.8 175.56 53.78"/><path class="cls-1" d="M30.28,27,99,8.7s12.4,6.8,16.72,12.16l-67.21,18Z"/><path class="cls-4" d="M140.52,45.25c1.25,5.52-11.21,13.43-27.82,17.67S81.62,66.12,80.37,60.6s11.21-13.43,27.82-17.67S139.27,39.73,140.52,45.25Z"/><path class="cls-5" d="M123.56,33.65c4.14,5.11,5,17.22-6.87,22.39-17.23,7.49-31.92-2.62-36.06-7.73"/><path class="cls-5" d="M123.92,34.53c.93,4.23-8.3,10.27-20.61,13.48s-23,2.38-24-1.85S87.65,35.88,100,32.67,123,30.29,123.92,34.53Z"/><path class="cls-1" d="M119.1,33.92c.83,2.53-6.73,6.91-16.89,9.77s-19.06,3.12-19.89.59S89,37.37,99.2,34.51,118.26,31.38,119.1,33.92Z"/><path class="cls-6" d="M121.5,32.6a3.66,3.66,0,0,1,3-2.31c6.38-.77,8.41,8.35,1.69,11.75"/><line class="cls-7" x1="17.74" y1="39.99" x2="26.26" y2="37.81"/></g></g></svg>