<svg xmlns="http://www.w3.org/2000/svg" viewBox="0 0 96.38 88.59"><defs><style>.cls-1{fill:none;stroke:#e0e0e0;stroke-linecap:round;stroke-linejoin:round;stroke-width:5px;}.cls-2{fill:#00364b;}.cls-3,.cls-5{fill:#e0e0e0;}.cls-4{fill:#bebebe;}.cls-5{stroke:#bebebe;stroke-miterlimit:10;stroke-width:0.97px;}.cls-6{fill:#50adc0;}.cls-7{fill:#6bffba;}</style></defs><title>資產 23</title><g id="圖層_2" data-name="圖層 2"><g id="小物提示"><polygon class="cls-1" points="16.38 45.19 15.86 65.56 44.71 71.93 89.93 26.13 93.02 10.03 64.18 4.5 16.38 45.19"/><polygon class="cls-1" points="16.38 45.19 15.86 65.56 44.71 71.93 89.93 26.13 93.02 10.03 64.18 4.5 16.38 45.19"/><polygon class="cls-1" points="16.38 45.19 15.86 65.56 44.71 71.93 89.93 26.13 93.02 10.03 64.18 4.5 16.38 45.19"/><path class="cls-1" d="M26.53,59,3.46,78.75a1.34,1.34,0,0,0,.62,2.34l23.43,4.5a1.34,1.34,0,0,0,1.18-.35L49.62,65.09a1.34,1.34,0,0,0-.68-2.28L27.65,58.72A1.34,1.34,0,0,0,26.53,59Z"/><path class="cls-1" d="M27.75,86.09a1.86,1.86,0,0,1-.34,0L4,81.56a1.83,1.83,0,0,1-.84-3.18L26.21,58.65a1.81,1.81,0,0,1,1.53-.41L49,62.33A1.83,1.83,0,0,1,50,65.44L29,85.58A1.83,1.83,0,0,1,27.75,86.09ZM27.4,59.18a.85.85,0,0,0-.55.21L3.77,79.11a.86.86,0,0,0,.39,1.49l23.43,4.5a.86.86,0,0,0,.75-.22L49.28,64.74a.85.85,0,0,0-.43-1.46L27.56,59.2Z"/><path class="cls-1" d="M26.53,59,3.46,78.75a1.34,1.34,0,0,0,.62,2.34l23.43,4.5a1.34,1.34,0,0,0,1.18-.35L49.62,65.09a1.34,1.34,0,0,0-.68-2.28L27.65,58.72A1.34,1.34,0,0,0,26.53,59Z"/><path class="cls-1" d="M27.75,86.09a1.86,1.86,0,0,1-.34,0L4,81.56a1.83,1.83,0,0,1-.84-3.18L26.21,58.65a1.81,1.81,0,0,1,1.53-.41L49,62.33A1.83,1.83,0,0,1,50,65.44L29,85.58A1.83,1.83,0,0,1,27.75,86.09ZM27.4,59.18a.85.85,0,0,0-.55.21L3.77,79.11a.86.86,0,0,0,.39,1.49l23.43,4.5a.86.86,0,0,0,.75-.22L49.28,64.74a.85.85,0,0,0-.43-1.46L27.56,59.2Z"/><path class="cls-1" d="M26.53,59,3.46,78.75a1.34,1.34,0,0,0,.62,2.34l23.43,4.5a1.34,1.34,0,0,0,1.18-.35L49.62,65.09a1.34,1.34,0,0,0-.68-2.28L27.65,58.72A1.34,1.34,0,0,0,26.53,59Z"/><path class="cls-1" d="M27.75,86.09a1.86,1.86,0,0,1-.34,0L4,81.56a1.83,1.83,0,0,1-.84-3.18L26.21,58.65a1.81,1.81,0,0,1,1.53-.41L49,62.33A1.83,1.83,0,0,1,50,65.44L29,85.58A1.83,1.83,0,0,1,27.75,86.09ZM27.4,59.18a.85.85,0,0,0-.55.21L3.77,79.11a.86.86,0,0,0,.39,1.49l23.43,4.5a.86.86,0,0,0,.75-.22L49.28,64.74a.85.85,0,0,0-.43-1.46L27.56,59.2Z"/><path class="cls-1" d="M18.84,79.67a.49.49,0,0,1-.34-.83L35.84,62a.49.49,0,0,1,.68.7L19.18,79.53A.48.48,0,0,1,18.84,79.67Z"/><path class="cls-1" d="M32,82.08h-.09L5.63,77.24a.49.49,0,1,1,.18-1l26.25,4.83a.49.49,0,0,1-.09,1Z"/><path class="cls-1" d="M18.84,79.67a.49.49,0,0,1-.34-.83L35.84,62a.49.49,0,0,1,.68.7L19.18,79.53A.48.48,0,0,1,18.84,79.67Z"/><path class="cls-1" d="M32,82.08h-.09L5.63,77.24a.49.49,0,1,1,.18-1l26.25,4.83a.49.49,0,0,1-.09,1Z"/><path class="cls-1" d="M18.84,79.67a.49.49,0,0,1-.34-.83L35.84,62a.49.49,0,0,1,.68.7L19.18,79.53A.48.48,0,0,1,18.84,79.67Z"/><path class="cls-1" d="M32,82.08h-.09L5.63,77.24a.49.49,0,1,1,.18-1l26.25,4.83a.49.49,0,0,1-.09,1Z"/><path class="cls-1" d="M37.12,45.57,14.05,65.29a1.34,1.34,0,0,0,.62,2.34l23.43,4.5a1.34,1.34,0,0,0,1.18-.35L60.21,51.64a1.34,1.34,0,0,0-.68-2.28L38.25,45.27A1.34,1.34,0,0,0,37.12,45.57Z"/><path class="cls-1" d="M36.81,41,13.66,60.83a1.3,1.3,0,0,0,.6,2.26l23.53,4.52a1.3,1.3,0,0,0,1.15-.34l21-20.21a1.3,1.3,0,0,0-.66-2.21L37.9,40.75A1.3,1.3,0,0,0,36.81,41Z"/><path class="cls-1" d="M36.49,36.51,13.26,56.38a1.26,1.26,0,0,0,.58,2.19l23.64,4.54a1.26,1.26,0,0,0,1.11-.33L59.67,42.5A1.26,1.26,0,0,0,59,40.36L37.54,36.23A1.26,1.26,0,0,0,36.49,36.51Z"/><path class="cls-1" d="M36.17,32,12.86,51.92A1.22,1.22,0,0,0,13.42,54L37.17,58.6a1.22,1.22,0,0,0,1.07-.32L59.39,37.93a1.22,1.22,0,0,0-.61-2.07L37.19,31.71A1.22,1.22,0,0,0,36.17,32Z"/><path class="cls-1" d="M37.12,45.57,14.05,65.29a1.34,1.34,0,0,0,.62,2.34l23.43,4.5a1.34,1.34,0,0,0,1.18-.35L60.21,51.64a1.34,1.34,0,0,0-.68-2.28L38.25,45.27A1.34,1.34,0,0,0,37.12,45.57Z"/><path class="cls-1" d="M36.81,41,13.66,60.83a1.3,1.3,0,0,0,.6,2.26l23.53,4.52a1.3,1.3,0,0,0,1.15-.34l21-20.21a1.3,1.3,0,0,0-.66-2.21L37.9,40.75A1.3,1.3,0,0,0,36.81,41Z"/><path class="cls-1" d="M36.49,36.51,13.26,56.38a1.26,1.26,0,0,0,.58,2.19l23.64,4.54a1.26,1.26,0,0,0,1.11-.33L59.67,42.5A1.26,1.26,0,0,0,59,40.36L37.54,36.23A1.26,1.26,0,0,0,36.49,36.51Z"/><path class="cls-1" d="M36.17,32,12.86,51.92A1.22,1.22,0,0,0,13.42,54L37.17,58.6a1.22,1.22,0,0,0,1.07-.32L59.39,37.93a1.22,1.22,0,0,0-.61-2.07L37.19,31.71A1.22,1.22,0,0,0,36.17,32Z"/><path class="cls-1" d="M37.12,45.57,14.05,65.29a1.34,1.34,0,0,0,.62,2.34l23.43,4.5a1.34,1.34,0,0,0,1.18-.35L60.21,51.64a1.34,1.34,0,0,0-.68-2.28L38.25,45.27A1.34,1.34,0,0,0,37.12,45.57Z"/><path class="cls-1" d="M36.81,41,13.66,60.83a1.3,1.3,0,0,0,.6,2.26l23.53,4.52a1.3,1.3,0,0,0,1.15-.34l21-20.21a1.3,1.3,0,0,0-.66-2.21L37.9,40.75A1.3,1.3,0,0,0,36.81,41Z"/><path class="cls-1" d="M36.49,36.51,13.26,56.38a1.26,1.26,0,0,0,.58,2.19l23.64,4.54a1.26,1.26,0,0,0,1.11-.33L59.67,42.5A1.26,1.26,0,0,0,59,40.36L37.54,36.23A1.26,1.26,0,0,0,36.49,36.51Z"/><path class="cls-1" d="M36.17,32,12.86,51.92A1.22,1.22,0,0,0,13.42,54L37.17,58.6a1.22,1.22,0,0,0,1.07-.32L59.39,37.93a1.22,1.22,0,0,0-.61-2.07L37.19,31.71A1.22,1.22,0,0,0,36.17,32Z"/><path class="cls-1" d="M28.28,52.24a.49.49,0,0,1-.34-.83L45.27,34.6a.49.49,0,0,1,.68.7L28.61,52.1A.48.48,0,0,1,28.28,52.24Z"/><path class="cls-1" d="M41.4,54.65h-.09L15.66,49.93a.49.49,0,1,1,.18-1l25.65,4.72a.49.49,0,0,1-.09,1Z"/><path class="cls-1" d="M28.28,52.24a.49.49,0,0,1-.34-.83L45.27,34.6a.49.49,0,0,1,.68.7L28.61,52.1A.48.48,0,0,1,28.28,52.24Z"/><path class="cls-1" d="M41.4,54.65h-.09L15.66,49.93a.49.49,0,1,1,.18-1l25.65,4.72a.49.49,0,0,1-.09,1Z"/><path class="cls-1" d="M28.28,52.24a.49.49,0,0,1-.34-.83L45.27,34.6a.49.49,0,0,1,.68.7L28.61,52.1A.48.48,0,0,1,28.28,52.24Z"/><path class="cls-1" d="M41.4,54.65h-.09L15.66,49.93a.49.49,0,1,1,.18-1l25.65,4.72a.49.49,0,0,1-.09,1Z"/><polygon class="cls-1" points="16.38 45.19 45.9 50.86 44.75 71.72 91.24 24.86 93.88 7.19 66.53 2.5 16.38 45.19"/><polygon class="cls-1" points="16.38 45.19 45.9 50.86 44.75 71.72 91.24 24.86 93.88 7.19 66.53 2.5 16.38 45.19"/><polygon class="cls-1" points="16.38 45.19 45.9 50.86 44.75 71.72 91.24 24.86 93.88 7.19 66.53 2.5 16.38 45.19"/><polygon class="cls-1" points="16.38 45.19 45.9 50.86 93.88 7.19 66.53 2.5 16.38 45.19"/><polygon class="cls-1" points="16.38 45.19 45.9 50.86 93.88 7.19 66.53 2.5 16.38 45.19"/><polygon class="cls-1" points="16.38 45.19 45.9 50.86 93.88 7.19 66.53 2.5 16.38 45.19"/><path class="cls-1" d="M69.83,6.57S46.54,26.69,42.31,30.08s-7.78,8.88,4.24,13c0,0,25.05-23.47,27.83-26S79.07,9.65,69.83,6.57Z"/><path class="cls-1" d="M69.83,6.57S46.54,26.69,42.31,30.08s-7.78,8.88,4.24,13c0,0,25.05-23.47,27.83-26S79.07,9.65,69.83,6.57Z"/><path class="cls-1" d="M69.83,6.57S46.54,26.69,42.31,30.08s-7.78,8.88,4.24,13c0,0,25.05-23.47,27.83-26S79.07,9.65,69.83,6.57Z"/><polygon class="cls-2" points="16.38 45.19 15.86 65.56 44.71 71.93 89.93 26.13 93.02 10.03 64.18 4.5 16.38 45.19"/><path class="cls-3" d="M26.53,59,3.46,78.75a1.34,1.34,0,0,0,.62,2.34l23.43,4.5a1.34,1.34,0,0,0,1.18-.35L49.62,65.09a1.34,1.34,0,0,0-.68-2.28L27.65,58.72A1.34,1.34,0,0,0,26.53,59Z"/><path class="cls-4" d="M27.75,86.09a1.86,1.86,0,0,1-.34,0L4,81.56a1.83,1.83,0,0,1-.84-3.18L26.21,58.65a1.81,1.81,0,0,1,1.53-.41L49,62.33A1.83,1.83,0,0,1,50,65.44L29,85.58A1.83,1.83,0,0,1,27.75,86.09ZM27.4,59.18a.85.85,0,0,0-.55.21L3.77,79.11a.86.86,0,0,0,.39,1.49l23.43,4.5a.86.86,0,0,0,.75-.22L49.28,64.74a.85.85,0,0,0-.43-1.46L27.56,59.2Z"/><path class="cls-4" d="M18.84,79.67a.49.49,0,0,1-.34-.83L35.84,62a.49.49,0,0,1,.68.7L19.18,79.53A.48.48,0,0,1,18.84,79.67Z"/><path class="cls-4" d="M32,82.08h-.09L5.63,77.24a.49.49,0,1,1,.18-1l26.25,4.83a.49.49,0,0,1-.09,1Z"/><path class="cls-5" d="M37.12,45.57,14.05,65.29a1.34,1.34,0,0,0,.62,2.34l23.43,4.5a1.34,1.34,0,0,0,1.18-.35L60.21,51.64a1.34,1.34,0,0,0-.68-2.28L38.25,45.27A1.34,1.34,0,0,0,37.12,45.57Z"/><path class="cls-5" d="M36.81,41,13.66,60.83a1.3,1.3,0,0,0,.6,2.26l23.53,4.52a1.3,1.3,0,0,0,1.15-.34l21-20.21a1.3,1.3,0,0,0-.66-2.21L37.9,40.75A1.3,1.3,0,0,0,36.81,41Z"/><path class="cls-5" d="M36.49,36.51,13.26,56.38a1.26,1.26,0,0,0,.58,2.19l23.64,4.54a1.26,1.26,0,0,0,1.11-.33L59.67,42.5A1.26,1.26,0,0,0,59,40.36L37.54,36.23A1.26,1.26,0,0,0,36.49,36.51Z"/><path class="cls-5" d="M36.17,32,12.86,51.92A1.22,1.22,0,0,0,13.42,54L37.17,58.6a1.22,1.22,0,0,0,1.07-.32L59.39,37.93a1.22,1.22,0,0,0-.61-2.07L37.19,31.71A1.22,1.22,0,0,0,36.17,32Z"/><path class="cls-4" d="M28.28,52.24a.49.49,0,0,1-.34-.83L45.27,34.6a.49.49,0,0,1,.68.7L28.61,52.1A.48.48,0,0,1,28.28,52.24Z"/><path class="cls-4" d="M41.4,54.65h-.09L15.66,49.93a.49.49,0,1,1,.18-1l25.65,4.72a.49.49,0,0,1-.09,1Z"/><polygon class="cls-6" points="16.38 45.19 45.9 50.86 44.75 71.72 91.24 24.86 93.88 7.19 66.53 2.5 16.38 45.19"/><polygon class="cls-7" points="16.38 45.19 45.9 50.86 93.88 7.19 66.53 2.5 16.38 45.19"/><path class="cls-6" d="M69.83,6.57S46.54,26.69,42.31,30.08s-7.78,8.88,4.24,13c0,0,25.05-23.47,27.83-26S79.07,9.65,69.83,6.57Z"/></g></g></svg>