<svg xmlns="http://www.w3.org/2000/svg" xmlns:xlink="http://www.w3.org/1999/xlink" viewBox="0 0 301.09 193.29"><defs><style>.cls-1{fill:url(#未命名漸層_7);}.cls-2{fill:#00364b;}.cls-3{fill:#3c9195;}.cls-4{fill:#004864;}.cls-5{fill:#0f9bff;}.cls-6{fill:#bebebe;}.cls-7{fill:none;stroke:#006464;stroke-linecap:round;stroke-miterlimit:10;}.cls-8{fill:#006464;}</style><linearGradient id="未命名漸層_7" x1="119.53" y1="-260.15" x2="220.64" y2="-19.04" gradientTransform="matrix(1, 0, 0, -1, 0, 66.4)" gradientUnits="userSpaceOnUse"><stop offset="0" stop-color="#ff9947"/><stop offset="1" stop-color="#00364b"/></linearGradient></defs><title>資產 2</title><g id="圖層_2" data-name="圖層 2"><g id="背景物件"><path class="cls-1" d="M217.34,138.48c11.53,11.27,24.15,28.73,38.68,36,10.15,5.09,26.27,7.08,35.37-.7,6.27-5.35,9.21-13.8,9.64-22s-1.36-16.4-3.15-24.44c-2.35-10.6-4.74-21.33-9.54-31.07-9-18.36-26-21.54-40.3-34.15-16-14.18-30.74-29.8-46.38-44.4C192.78,9.43,182.66.58,169.9,0c-11.48-.51-22.83,10-29.79,18.42-6.6,8-10.69,18.67-8.64,28.83,3.43,17,21.09,26.88,32.66,38,9.26,8.87,18,18.9,27.31,28Z"/><path class="cls-2" d="M103.4,193.29,6.65,96.62S-14,80,25.8,80H244.32l44,53.55s-13,46.38-24.45,59.71H103.4Z"/><path class="cls-3" d="M298.88,131.93h0c-.32-1.51-.65-3-1-4.61-2.35-10.6-4.74-21.32-9.54-31.06-.33-.68-.68-1.33-1-2l-.09-.16c-9.27-16.5-25.47-19.93-39.17-32-6.79-6-13.32-12.25-19.8-18.58l-213.83.36C7.32,42.66,0,49.36,0,61.59c0,15.83,6,31,19.5,43.8l81.34,79.31v-.34l.33.34H274.08a54.24,54.24,0,0,0,19.41-15.29C302.88,157.6,301.73,145.58,298.88,131.93Z"/><path class="cls-4" d="M287.24,176a53.84,53.84,0,0,0,6.23-6.59c10.46-13.13,7.87-26.51,4.42-42.1-2.35-10.6-4.74-21.32-9.54-31.06a43.09,43.09,0,0,0-2.19-3.9H9.64l91.49,92.36H274A54.35,54.35,0,0,0,287.24,176Z"/><path class="cls-5" d="M100.84,184.71,19.5,105.4C6,92.55,0,77.4,0,61.6S12.22,39.2,20.49,47.08l80.35,78.35v59.28Z"/><path class="cls-6" d="M100.84,179.29,21.22,99.54C10.41,89.11,4.34,77.89,4.34,64.26c0-17.5,11-18.47,17.67-12.07l78.83,79V179.3Z"/><polyline class="cls-7" points="10.8 50.39 100.12 136.59 275.71 139"/><polyline class="cls-7" points="7.85 53.49 98.84 142.38 274.11 143.7"/><polyline class="cls-7" points="5.41 57.93 98.02 148.7 272.77 149.16"/><polyline class="cls-7" points="5.01 64.34 97.09 154.96 271.66 155.66"/><path class="cls-5" d="M297.88,127.31c-2.35-10.6-4.74-21.32-9.54-31.06-9-18.36-26-21.54-40.3-34.15-6.79-6-13.32-12.25-19.8-18.58l-213.83.36,87.2,88H298.87C298.57,130.41,298.23,128.87,297.88,127.31Z"/><path class="cls-8" d="M287.24,176a53.84,53.84,0,0,0,6.23-6.59c9.41-11.82,8.26-23.83,5.41-37.49h-198a72.33,72.33,0,0,0-3.75,22.34c0,12.12,3.75,25.78,3.75,25.78H282.13A54.69,54.69,0,0,0,287.24,176Z"/><path class="cls-2" d="M271.72,120.35a48.53,48.53,0,0,0,4.45,7.65c2.13,3.36.6,6.7-1,9.63-6.84,12.16-10.06,21.56-9.46,37.38.07,2-.93,3.85-.67,5.79a6.41,6.41,0,0,0,1.9,3.91h7.16a54.24,54.24,0,0,0,19.41-15.29c10.46-13.13,7.87-26.51,4.42-42.1-2.35-10.6-4.74-21.32-9.54-31.06-9-18.36-26-21.54-40.3-34.15-7-6.2-13.77-12.68-20.46-19.22l-33.91.57c4.86,4.43,9.81,4.25,14.68,8.62a140.75,140.75,0,0,1,12,12.42c8.73,10,16.71,20.81,26.64,29.65C256.13,102.2,267.13,109.14,271.72,120.35Z"/><path class="cls-1" d="M217.34,138.48c11.53,11.27,24.15,28.73,38.68,36,10.15,5.09,26.27,7.08,35.37-.7,6.27-5.35,9.21-13.8,9.64-22s-1.36-16.4-3.15-24.44c-2.35-10.6-4.74-21.33-9.54-31.07-9-18.36-26-21.54-40.3-34.15-16-14.18-30.74-29.8-46.38-44.4C192.78,9.43,182.66.58,169.9,0c-11.48-.51-22.83,10-29.79,18.42-6.6,8-10.69,18.67-8.64,28.83,3.43,17,21.09,26.88,32.66,38,9.26,8.87,18,18.9,27.31,28Z"/><path class="cls-3" d="M298.88,131.93h0c-.32-1.51-.65-3-1-4.61-2.35-10.6-4.74-21.32-9.54-31.06-.33-.68-.68-1.33-1-2l-.09-.16c-9.27-16.5-25.47-19.93-39.17-32-6.79-6-13.32-12.25-19.8-18.58l-213.83.36C7.32,42.66,0,49.36,0,61.59c0,15.83,6,31,19.5,43.8l81.34,79.31v-.34l.33.34H274.08a54.24,54.24,0,0,0,19.41-15.29C302.88,157.6,301.73,145.58,298.88,131.93Z"/><path class="cls-4" d="M287.24,176a53.84,53.84,0,0,0,6.23-6.59c10.46-13.13,7.87-26.51,4.42-42.1-2.35-10.6-4.74-21.32-9.54-31.06a43.09,43.09,0,0,0-2.19-3.9H9.64l91.49,92.36H274A54.35,54.35,0,0,0,287.24,176Z"/><path class="cls-5" d="M100.84,184.71,19.5,105.4C6,92.55,0,77.4,0,61.6S12.22,39.2,20.49,47.08l80.35,78.35v59.28Z"/><path class="cls-6" d="M100.84,179.29,21.22,99.54C10.41,89.11,4.34,77.89,4.34,64.26c0-17.5,11-18.47,17.67-12.07l78.83,79V179.3Z"/><polyline class="cls-7" points="10.8 50.39 100.12 136.59 275.71 139"/><polyline class="cls-7" points="7.85 53.49 98.84 142.38 274.11 143.7"/><polyline class="cls-7" points="5.41 57.93 98.02 148.7 272.77 149.16"/><polyline class="cls-7" points="5.01 64.34 97.09 154.96 271.66 155.66"/><path class="cls-5" d="M297.88,127.31c-2.35-10.6-4.74-21.32-9.54-31.06-9-18.36-26-21.54-40.3-34.15-6.79-6-13.32-12.25-19.8-18.58l-213.83.36,87.2,88H298.87C298.57,130.41,298.23,128.87,297.88,127.31Z"/><path class="cls-8" d="M287.24,176a53.84,53.84,0,0,0,6.23-6.59c9.41-11.82,8.26-23.83,5.41-37.49h-198a72.33,72.33,0,0,0-3.75,22.34c0,12.12,3.75,25.78,3.75,25.78H282.13A54.69,54.69,0,0,0,287.24,176Z"/><path class="cls-2" d="M271.72,120.35a48.53,48.53,0,0,0,4.45,7.65c2.13,3.36.6,6.7-1,9.63-6.84,12.16-10.06,21.56-9.46,37.38.07,2-.93,3.85-.67,5.79a6.41,6.41,0,0,0,1.9,3.91h7.16a54.24,54.24,0,0,0,19.41-15.29c10.46-13.13,7.87-26.51,4.42-42.1-2.35-10.6-4.74-21.32-9.54-31.06-9-18.36-26-21.54-40.3-34.15-7-6.2-13.77-12.68-20.46-19.22l-33.91.57c4.86,4.43,9.81,4.25,14.68,8.62a140.75,140.75,0,0,1,12,12.42c8.73,10,16.71,20.81,26.64,29.65C256.13,102.2,267.13,109.14,271.72,120.35Z"/></g></g></svg>