<svg xmlns="http://www.w3.org/2000/svg" viewBox="0 0 80.13 51.6"><defs><style>.cls-1,.cls-10,.cls-11,.cls-12,.cls-9{fill:none;}.cls-1{stroke:#e0e0e0;stroke-linejoin:round;stroke-width:5px;}.cls-1,.cls-11,.cls-9{stroke-linecap:round;}.cls-2{fill:#ff9947;}.cls-3{fill:#3c9195;}.cls-4{fill:#006464;}.cls-5{fill:#ffcd32;}.cls-6{fill:#bebebe;}.cls-7{fill:#00364b;}.cls-8{fill:#e0e0e0;}.cls-10,.cls-9{stroke:#ff9947;}.cls-10,.cls-11,.cls-12,.cls-9{stroke-miterlimit:10;}.cls-11,.cls-12{stroke:#006464;}</style></defs><title>資產 15</title><g id="圖層_2" data-name="圖層 2"><g id="小物提示"><ellipse class="cls-1" cx="68.7" cy="12.28" rx="8.68" ry="10" transform="translate(1.24 30.17) rotate(-24.99)"/><ellipse class="cls-1" cx="60.84" cy="15.94" rx="7.45" ry="10.11" transform="translate(-1.04 27.19) rotate(-24.99)"/><rect class="cls-1" x="54.84" y="9.81" width="19.96" height="8.56" transform="translate(50.21 -50.62) rotate(65.01)"/><ellipse class="cls-1" cx="62.59" cy="15.12" rx="8.79" ry="10.13" transform="translate(-0.53 27.85) rotate(-24.99)"/><ellipse class="cls-1" cx="18.9" cy="35.49" rx="7.45" ry="10.11" transform="translate(-13.22 11.3) rotate(-24.99)"/><rect class="cls-1" x="30.63" y="1.2" width="20.22" height="48.21" transform="translate(46.47 -22.31) rotate(65.01)"/><ellipse class="cls-1" cx="22.61" cy="33.75" rx="7.8" ry="10.12" transform="translate(-12.14 12.71) rotate(-24.99)"/><polygon class="cls-1" points="26.8 43.01 18.25 24.68 6.22 30.24 14.76 48.57 26.8 43.01"/><ellipse class="cls-1" cx="10.49" cy="39.4" rx="7.45" ry="10.11" transform="translate(-15.66 8.12) rotate(-24.99)"/><ellipse class="cls-1" cx="9.7" cy="39.77" rx="5.82" ry="8.25" transform="translate(-15.89 7.82) rotate(-24.99)"/><ellipse class="cls-1" cx="10.36" cy="39.42" rx="5.46" ry="8.2" transform="translate(-15.68 8.07) rotate(-24.99)"/><ellipse class="cls-1" cx="9.04" cy="40.04" rx="2.96" ry="3.42" transform="translate(-16.07 7.56) rotate(-24.99)"/><rect class="cls-1" x="4.93" y="39.6" width="6.82" height="1.54" transform="translate(41.4 15.76) rotate(65.01)"/><ellipse class="cls-1" cx="7.7" cy="40.66" rx="2.51" ry="3.41" transform="translate(-16.46 7.06) rotate(-24.99)"/><line class="cls-1" x1="23.89" y1="36.93" x2="23.89" y2="40.15"/><line class="cls-1" x1="22.73" y1="39.26" x2="25.01" y2="38.03"/><ellipse class="cls-1" cx="23.84" cy="38.6" rx="3.89" ry="2.36" transform="translate(-20.16 49.69) rotate(-72.45)"/><line class="cls-1" x1="71.89" y1="14.93" x2="71.89" y2="18.15"/><ellipse class="cls-1" cx="71.84" cy="16.6" rx="3.89" ry="2.36" transform="translate(34.34 80.09) rotate(-72.45)"/><ellipse class="cls-2" cx="68.7" cy="12.28" rx="8.68" ry="10" transform="translate(1.24 30.17) rotate(-24.99)"/><ellipse class="cls-2" cx="60.84" cy="15.94" rx="7.45" ry="10.11" transform="translate(-1.04 27.19) rotate(-24.99)"/><rect class="cls-2" x="54.84" y="9.81" width="19.96" height="8.56" transform="translate(50.21 -50.62) rotate(65.01)"/><ellipse class="cls-2" cx="62.59" cy="15.12" rx="8.79" ry="10.13" transform="translate(-0.53 27.85) rotate(-24.99)"/><ellipse class="cls-3" cx="18.9" cy="35.49" rx="7.45" ry="10.11" transform="translate(-13.22 11.3) rotate(-24.99)"/><rect class="cls-2" x="30.63" y="1.2" width="20.22" height="48.21" transform="translate(46.47 -22.31) rotate(65.01)"/><ellipse class="cls-4" cx="22.61" cy="33.75" rx="7.8" ry="10.12" transform="translate(-12.14 12.71) rotate(-24.99)"/><polygon class="cls-4" points="26.8 43.01 18.25 24.68 6.22 30.24 14.76 48.57 26.8 43.01"/><ellipse class="cls-5" cx="10.49" cy="39.4" rx="7.45" ry="10.11" transform="translate(-15.66 8.12) rotate(-24.99)"/><ellipse class="cls-2" cx="9.7" cy="39.77" rx="5.82" ry="8.25" transform="translate(-15.89 7.82) rotate(-24.99)"/><ellipse class="cls-6" cx="10.36" cy="39.42" rx="5.46" ry="8.2" transform="translate(-15.68 8.07) rotate(-24.99)"/><ellipse class="cls-7" cx="9.04" cy="40.04" rx="2.96" ry="3.42" transform="translate(-16.07 7.56) rotate(-24.99)"/><rect class="cls-7" x="4.93" y="39.6" width="6.82" height="1.54" transform="translate(41.4 15.76) rotate(65.01)"/><ellipse class="cls-8" cx="7.7" cy="40.66" rx="2.51" ry="3.41" transform="translate(-16.46 7.06) rotate(-24.99)"/><line class="cls-9" x1="23.89" y1="36.93" x2="23.89" y2="40.15"/><line class="cls-9" x1="22.73" y1="39.26" x2="25.01" y2="38.03"/><ellipse class="cls-10" cx="23.84" cy="38.6" rx="3.89" ry="2.36" transform="translate(-20.16 49.69) rotate(-72.45)"/><line class="cls-11" x1="71.89" y1="14.93" x2="71.89" y2="18.15"/><ellipse class="cls-12" cx="71.84" cy="16.6" rx="3.89" ry="2.36" transform="translate(34.34 80.09) rotate(-72.45)"/></g></g></svg>