<svg xmlns="http://www.w3.org/2000/svg" viewBox="0 0 124.9 89.78"><defs><style>.cls-1{fill:#00364b;}.cls-2{fill:#e0e0e0;}.cls-2,.cls-3{stroke:#bebebe;stroke-miterlimit:10;stroke-width:0.97px;}.cls-3{fill:none;stroke-linecap:round;}.cls-4{fill:#50adc0;}.cls-5{fill:#6bffba;}</style></defs><title>資產 24</title><g id="圖層_2" data-name="圖層 2"><g id="content"><path class="cls-1" d="M67.95,17.65l53.6,7.56c2.94.48,4.37,3.09,2.54,4.64L78.54,79.43,51.94,76,37.78,89.78l-34-6.69Z"/><polygon class="cls-1" points="13.88 42.69 13.36 63.06 42.21 69.43 87.43 23.63 90.52 7.53 61.68 2 13.88 42.69"/><path class="cls-2" d="M24,56.52,1,76.25a1.34,1.34,0,0,0,.62,2.34L25,83.08a1.34,1.34,0,0,0,1.18-.35L47.12,62.59a1.34,1.34,0,0,0-.68-2.28L25.15,56.22A1.34,1.34,0,0,0,24,56.52Z"/><line class="cls-3" x1="16.34" y1="76.68" x2="33.67" y2="59.88"/><line class="cls-3" x1="3.21" y1="74.26" x2="29.47" y2="79.09"/><path class="cls-2" d="M34.62,43.07,11.55,62.79a1.34,1.34,0,0,0,.62,2.34l23.43,4.5a1.34,1.34,0,0,0,1.18-.35L57.71,49.14A1.34,1.34,0,0,0,57,46.86L35.75,42.77A1.34,1.34,0,0,0,34.62,43.07Z"/><path class="cls-2" d="M34.31,38.54,11.16,58.33a1.3,1.3,0,0,0,.6,2.26l23.53,4.52a1.3,1.3,0,0,0,1.15-.34l21-20.21a1.3,1.3,0,0,0-.66-2.21L35.4,38.25A1.3,1.3,0,0,0,34.31,38.54Z"/><path class="cls-2" d="M34,34,10.76,53.88a1.26,1.26,0,0,0,.58,2.19L35,60.61a1.26,1.26,0,0,0,1.11-.33L57.17,40a1.26,1.26,0,0,0-.63-2.14L35,33.73A1.26,1.26,0,0,0,34,34Z"/><path class="cls-2" d="M33.67,29.48,10.36,49.42a1.22,1.22,0,0,0,.56,2.12L34.67,56.1a1.22,1.22,0,0,0,1.07-.32L56.89,35.43a1.22,1.22,0,0,0-.61-2.07L34.69,29.21A1.22,1.22,0,0,0,33.67,29.48Z"/><line class="cls-3" x1="25.78" y1="49.25" x2="43.11" y2="32.45"/><line class="cls-3" x1="13.25" y1="46.95" x2="38.9" y2="51.67"/><polygon class="cls-4" points="13.88 42.69 43.4 48.36 42.25 69.22 88.74 22.36 91.38 4.69 64.03 0 13.88 42.69"/><polygon class="cls-5" points="13.88 42.69 43.4 48.36 91.38 4.69 64.03 0 13.88 42.69"/><path class="cls-4" d="M67.33,4.07S44,24.19,39.81,27.58,32,36.46,44,40.56c0,0,25.05-23.47,27.83-26S76.57,7.15,67.33,4.07Z"/></g></g></svg>