<svg xmlns="http://www.w3.org/2000/svg" viewBox="0 0 293.89 89.55"><defs><style>.cls-1{fill:#6bffba;}.cls-2{fill:#00364b;}</style></defs><title>資產 11</title><g id="圖層_2" data-name="圖層 2"><g id="對話框"><rect class="cls-1" width="293.89" height="49.48" rx="24.74" ry="24.74"/><path class="cls-2" d="M43.65,18.79v1.73l-10.48,0a23.73,23.73,0,0,1-2.33,3.91l0,9.35H29l0-7.25a17,17,0,0,1-2,1.69,10.64,10.64,0,0,0-.89-1.7,15.91,15.91,0,0,0,5-6l-4.48,0V18.73l5.26,0a20.64,20.64,0,0,0,1-2.86l1.89.47c-.26.8-.53,1.6-.85,2.39Zm-5,12.86,4.89,0v1.7l-11.63,0v-1.7l4.91,0,0-5-4.17,0V24.93l4.17,0V21.44h1.83V25h4.15v1.68H38.71Z"/><path class="cls-2" d="M66.49,16.81l-.06,17H64.7v-.92l-12.51,0v1H50.53l.06-17.13ZM64.71,31.52l0-13.31-12.51,0,0,13.31Zm-.54-3H61.52v1.56c0,.64-.16.86-.63,1a8.89,8.89,0,0,1-2.34.15,3.48,3.48,0,0,0-.39-1c.66,0,1.36,0,1.56,0S60,30.17,60,30V28.5l-7.23,0V27.42l7.23,0V26.8h1.52v.64h2.65ZM62,25a13.87,13.87,0,0,1,1.87,1.72l-1,.74a9.15,9.15,0,0,0-.76-.82l-9,.22L53,25.8c1.29,0,2.88,0,4.62,0V25l-4,0V21.05l4,0v-.7l-4.66,0V19.27l4.66,0v-.8h1.5v.8l4.75,0v1.07l-4.75,0v.7l4.15,0V25Zm-5.79,5.88a9.11,9.11,0,0,0-1.53-1.82l1.15-.58a9.25,9.25,0,0,1,1.59,1.74Zm1.43-6.74V23.4H55.09v.74ZM55.09,22.6h2.57v-.72H55.1Zm6.11,3.16-.35-.29.72-.47H59.16v.8Zm.65-1.59v-.74H59.16v.74Zm-2.68-2.27v.72h2.69V21.9Z"/><path class="cls-2" d="M79.51,17.54c-.55,1.61-1.24,3.64-1.85,5.16a6,6,0,0,1,1.58,4.06,2.76,2.76,0,0,1-.81,2.33,2.83,2.83,0,0,1-1.05.37,9.38,9.38,0,0,1-1.29,0,3.86,3.86,0,0,0-.4-1.56,5.77,5.77,0,0,0,1,0,1,1,0,0,0,.59-.17c.27-.19.37-.64.38-1.23a5.42,5.42,0,0,0-1.58-3.65c.51-1.32,1-3,1.38-4.34H75.35L75.3,34H73.7l.06-17.07,4.31,0,.25-.06Zm10.91,5.32c-.74.54-1.62,1.12-2.46,1.63a15.23,15.23,0,0,0,3.15,5.64,6.21,6.21,0,0,0-1.17,1.2,19.09,19.09,0,0,1-3.25-6.09l-.23.12c1,3.16.52,6.49-.61,7.52a2.53,2.53,0,0,1-2.07.85l-1.54,0a4.23,4.23,0,0,0-.44-1.62c.64.06,1.27.08,1.66.08a1.15,1.15,0,0,0,1.09-.48,5,5,0,0,0,.73-3.33A21.55,21.55,0,0,1,80,31.44a4.89,4.89,0,0,0-1.07-1.31,16.47,16.47,0,0,0,6.15-3.54,11.27,11.27,0,0,0-.37-1.31,25.17,25.17,0,0,1-4.08,2.6,8.55,8.55,0,0,0-1-1.31A17.16,17.16,0,0,0,84.2,24a11.63,11.63,0,0,0-.83-1.33,19.65,19.65,0,0,1-3.42,2.05,8.1,8.1,0,0,0-1.07-1.31,15,15,0,0,0,4.39-2.58H79.34V19.24h3.49A12,12,0,0,0,80.78,17l1.35-.85a11.06,11.06,0,0,1,2.31,2.41l-1,.66,2,0a17,17,0,0,0,2-3.13l1.73.53a25.31,25.31,0,0,1-1.8,2.6h3.33v1.56l-5.28,0a9.19,9.19,0,0,1-.88.87A9.09,9.09,0,0,1,86,24a25.94,25.94,0,0,0,3.32-2.38Z"/><path class="cls-2" d="M102.28,29a26.57,26.57,0,0,0-1.73-2.48l0,7.52H98.9l0-7.37a16.21,16.21,0,0,1-2.17,2.16A7.79,7.79,0,0,0,96,27.05a17,17,0,0,0,4.78-5.89l-4.19,0V19.51l5.07,0,.31-.1.91.74a21.37,21.37,0,0,1-2.28,4.34v.06l.54.55a16.48,16.48,0,0,0,1.43-1.89l1.09,1c-.61.62-1.23,1.24-1.76,1.73.6.64,1.2,1.33,1.44,1.58ZM99.9,19.49a21.51,21.51,0,0,0-1.53-2.58l1.29-.81a20.46,20.46,0,0,1,1.59,2.44ZM114.08,32v1.6l-11,0V32l4.56,0V29.53H103.9v-1.6h3.78V26.06h-3.84l0-9,9.47,0,0,9h-4v1.87l4.09,0v1.6l-4.09,0V32Zm-6.38-7.51V22.26h-2.22v2.26Zm-2.21-3.71h2.22V18.6H105.5Zm6.13,1.47h-2.24v2.26h2.24Zm0-3.66H109.4v2.22h2.24Z"/><path class="cls-2" d="M124.17,27l0,5c0,.94-.22,1.4-.77,1.65a6.6,6.6,0,0,1-2.77.32,6,6,0,0,0-.54-1.64c.86,0,1.7,0,1.93,0s.37-.1.37-.39l0-4.54-2.32.6-.48-1.76c.78-.17,1.76-.38,2.81-.63v-3.9h-2.55V20h2.55v-3.8h1.77v3.8H126v1.68h-1.81v3.49l1.76-.42.23,1.66Zm10.33-9.76a11.35,11.35,0,0,0,3.27,6.4,7.6,7.6,0,0,0-1.51,1.22l-.19-.2,0,.27c-.25,5.53-.52,7.58-1.08,8.26a1.7,1.7,0,0,1-1.29.68,11.14,11.14,0,0,1-2.18,0,4,4,0,0,0-.46-1.64,13,13,0,0,0,1.77.08.64.64,0,0,0,.62-.25c.35-.41.59-2,.8-6.23h-2.92c-.44,4-1.68,6.68-4.32,8.38a9.47,9.47,0,0,0-1.28-1.39c2.38-1.33,3.42-3.69,3.77-7h-1.91V24.29c-.2.23-.37.43-.57.62a8.91,8.91,0,0,0-1.36-1.17,11.71,11.71,0,0,0,3.14-6l1.73.36a15.55,15.55,0,0,1-2.83,6.07l7.93,0a14.45,14.45,0,0,1-2.55-5.31h-2V17.21Z"/><path class="cls-2" d="M146,24.86a22,22,0,0,0-3-1.75l1-1.36a29.29,29.29,0,0,1,3,1.61Zm1.84,2.79c-.79,2-1.81,4.3-2.73,6.11l-1.61-1.12a53.5,53.5,0,0,0,2.93-6.09Zm-.67-7.89a23,23,0,0,0-3-1.84l1-1.32a25.25,25.25,0,0,1,3,1.73Zm6.17,11.64a19.44,19.44,0,0,1-4.76,2.73,10.89,10.89,0,0,0-1.36-1.33,15.68,15.68,0,0,0,4.41-2.07Zm3.24-.83a36.51,36.51,0,0,1,4.08,2.49l-1.43,1.11a30.61,30.61,0,0,0-4.1-2.67l1.31-.93-7.52,0,0-6.82,4.4,0V22.53h-3.62V21.37h-1.44V18.05l5,0c-.17-.49-.42-1.05-.64-1.5l1.83-.32a15.43,15.43,0,0,1,.83,1.83l5.1,0v3.31h-1.56v1.15h-3.74v1.21l4.56,0,0,6.82Zm-6.6-11V21l8.69,0V19.59Zm.57,9.61h2.79V27.79h-2.79Zm0-2.69h2.79V25.12h-2.79Zm7.4,1.33h-2.88v1.38h2.88Zm-2.87-2.68v1.36h2.88V25.14Z"/><path class="cls-2" d="M183.81,19.49s0,.62,0,.86c-.31,8.79-.55,11.81-1.33,12.78a2.17,2.17,0,0,1-1.7.91,20.82,20.82,0,0,1-2.94,0,4.25,4.25,0,0,0-.58-1.76c1.25.1,2.38.13,2.86.13a.87.87,0,0,0,.82-.33c.63-.64.89-3.58,1.17-10.93l-4.6,0a19.64,19.64,0,0,1-1.79,3.27,9.5,9.5,0,0,0-1.42-1l0,8.94-5.28,0v1.48h-1.66l.05-14.24h2.18a23.08,23.08,0,0,0,.69-3.16l2,.34c-.33,1-.71,2-1,2.82h3.12v3.68a18.61,18.61,0,0,0,2.93-6.83l1.75.42c-.24.9-.49,1.79-.81,2.65ZM172.6,30.71l0-4.31H169l0,4.31ZM169,21.11v3.7h3.62v-3.7Zm10.08,8.1a31.8,31.8,0,0,0-2.83-4.51l1.42-.79a35.07,35.07,0,0,1,2.93,4.36Z"/><path class="cls-2" d="M206.05,32.27c0,1.07-.28,1.6-1.08,1.89a14.67,14.67,0,0,1-4,.28,7.28,7.28,0,0,0-.67-1.76c1.46.08,3,.07,3.45.05s.54-.11.55-.48v-2l-10.35,0a8.24,8.24,0,0,1-3,4.3,7.31,7.31,0,0,0-1.26-1.31c2.78-2,3.06-4.94,3.07-7.35v-3.2a14.26,14.26,0,0,1-1.33,1,5.46,5.46,0,0,0-1.3-1.29,15.71,15.71,0,0,0,5.28-5.94l1.95.38c-.14.27-.29.52-.45.8l4.29,0,.31-.08,1.22.82a19.29,19.29,0,0,1-1.69,2.57l5,0Zm-11.53-6a16.15,16.15,0,0,1-.22,2.3h4.09V26.3Zm1.41-7.17a19.63,19.63,0,0,1-1.41,1.79l4.54,0a19,19,0,0,0,1.18-1.79Zm-1.4,5.61h3.88v-2.2h-3.88Zm9.75,3.89v-2.3l-4.15,0v2.3Zm0-6.06-4.15,0v2.2l4.15,0Z"/><path class="cls-2" d="M227,32.53c1.87,0,2.18-.5,2.43-3a5.72,5.72,0,0,0,1.71.65c-.38,3.1-1,4-4.11,4l-7.09,0c-3.29,0-4.3-.62-4.3-3.09l0-7.74a18.16,18.16,0,0,1-1.46,1.1,14.22,14.22,0,0,0-1-1.72,17,17,0,0,0,6-6.19l1.65.61c-.2.37-.43.72-.67,1.09l4.83,0,.37-.09,1.18.84a24.34,24.34,0,0,1-2.45,3l5.07,0,0,7.07H227.4V28.3l-10,0v2.81c0,1.17.37,1.42,2.49,1.43Zm-7.92-12.69a19.25,19.25,0,0,1-1.88,2.12L222,22a14.81,14.81,0,0,0,1.84-2.12Zm-1.66,6.7,4.09,0v-2.9l-4.09,0Zm10-2.87-4.15,0v2.9l4.15,0Z"/><path class="cls-2" d="M246.62,32.46c.6.06,1.29.08,2,.08.86,0,4.75,0,5.9,0a6.24,6.24,0,0,0-.63,1.71l-5.38,0c-3.72,0-6.19-.57-7.78-3a9.49,9.49,0,0,1-2.9,3.4,10.63,10.63,0,0,0-1.34-1.29,8.73,8.73,0,0,0,3.71-6.1l1.81.26a15.77,15.77,0,0,1-.49,1.83,4.74,4.74,0,0,0,3.3,2.86l0-5.46-7.79,0v-1.6l17.07.06v1.6l-7.46,0v1.85l6.2,0v1.58l-6.2,0ZM252.09,24l-13.11,0,0-6.55,13.11,0Zm-1.82-2.64-9.53,0v1.31l9.53,0Zm0-2.57-9.53,0V20l9.53,0Z"/><path class="cls-2" d="M269,22.26c0-1.27-.95-2.11-2.74-2.11a4.53,4.53,0,0,0-3.44,1.64l-1.28-1.19a6.44,6.44,0,0,1,5-2.3c2.77,0,4.67,1.38,4.66,3.78,0,2.9-4.49,3.37-4.09,6.22h-2C264.56,25.11,269,24.32,269,22.26Zm-2.89,7.59a1.71,1.71,0,1,1-1.76,1.69A1.67,1.67,0,0,1,266.08,29.85Z"/><path class="cls-1" d="M89.9,49.37,97.41,86c1,4.86,4.64,4.73,5.54-.19l6.72-36.61c.67-3.65-.76-7.46-2.79-7.46H92.65C90.57,41.72,89.14,45.69,89.9,49.37Z"/></g></g></svg>