<svg xmlns="http://www.w3.org/2000/svg" viewBox="0 0 210.33 83.18"><defs><style>.cls-1{fill:#6bffba;}.cls-2{fill:#00364b;}</style></defs><title>資產 14</title><g id="圖層_2" data-name="圖層 2"><g id="對話框"><rect class="cls-1" width="210.33" height="49.48" rx="24.74" ry="24.74"/><path class="cls-2" d="M43,31.55a17.22,17.22,0,0,0,3.39.29c.74,0,3.78,0,4.73,0a7.07,7.07,0,0,0-.65,1.75l-4.17,0c-4,0-7.13-.71-9.1-3.89a9.58,9.58,0,0,1-2.82,4.14A8.64,8.64,0,0,0,33,32.62c2.27-1.75,3.2-5.09,3.5-7.88l1.89.24a26.52,26.52,0,0,1-.56,2.61A6.37,6.37,0,0,0,41.13,31l0-7.25-7.52,0V22l7.5,0V19.73l-5.81,0V18l5.81,0V15.93H43v2.12l6.18,0v1.68l-6.18,0v2.34l7.62,0v1.67l-7.6,0V26.5l6.31,0v1.64l-6.31,0Z"/><path class="cls-2" d="M63.71,30.9c-2.42.65-5,1.33-6.89,1.83l-.38-1.66c.31-.08.64-.13,1-.23l0-6.41h1.31l0,6.1,1-.23,0-7.27H57.49l0-6.08,5.69,0,0,6.08H61.31v2.18h1.95v1.58H61.29v3.12l2.22-.54ZM59,21.51h2.67v-3H59ZM66.22,16h1.66l0,8.18c0,3.53-.44,7.6-4,9.73a7.25,7.25,0,0,0-1.14-1.33c2.21-1.12,3-3.2,3.29-5.37-.8.64-1.62,1.26-2.37,1.86l-1-1.68c.88-.45,2.19-1.22,3.5-2,0-.41,0-.8,0-1.19v-1.4l-1.33.6a14,14,0,0,0-1.6-4.18l1.43-.62a16.91,16.91,0,0,1,1.51,3.32Zm6.41,16c.35,0,.41-.5.47-2.2a3.77,3.77,0,0,0,1.5.71c-.16,2.28-.58,3.12-1.86,3.11h-1.7c-1.44,0-1.85-.53-1.84-2.54L69.26,16H71l0,6.33a24.36,24.36,0,0,0,1.77-3.89l1.67.81A46.56,46.56,0,0,1,72,23.45l-1.05-.59V25l.33-.31a30,30,0,0,1,3.36,3l-1.17,1.3a28.53,28.53,0,0,0-2.52-2.46l0,4.66c0,.78.05.92.46.92Z"/><path class="cls-2" d="M83.57,25A31.11,31.11,0,0,0,80,22.91l1-1.32a24.78,24.78,0,0,1,3.6,1.94Zm2.06,2.52c-1,2-2.33,4.34-3.47,6.16l-1.54-1.23a50.36,50.36,0,0,0,3.69-6.14Zm-1.08-7.62a28.24,28.24,0,0,0-3.42-2.31l1.06-1.26a30.79,30.79,0,0,1,3.48,2.14ZM97.79,31V32.8l-12.41,0V30.94l5.07,0,0-11.32-4.09,0V17.81l10.44,0v1.81l-4.38,0,0,11.32Z"/><path class="cls-2" d="M106.43,24.71a13.62,13.62,0,0,0-3.11-1.9l1-1.3a12,12,0,0,1,3.17,1.79Zm-2.82,8.17a60.61,60.61,0,0,0,2.63-6.19l1.46,1c-.71,2-1.63,4.36-2.46,6.17Zm3.52-13.2a12,12,0,0,0-3-2l1-1.28a13.9,13.9,0,0,1,3.07,1.9Zm2.61,11.74v1.46h-1.56l0-7.89h2.11V21.72h-2.73V20.07h2.73V16.73H112v3.35h2.42v1.64H112V25h2l0,6.43Zm0-4.85v3.29h2.57V26.58Zm10.87,5.5c0,.8-.18,1.27-.71,1.54a5.83,5.83,0,0,1-2.57.28,5.81,5.81,0,0,0-.54-1.5c.82,0,1.62,0,1.85,0s.35-.1.35-.37L119,27l-1.82,1.69-.66-1.42c-.22,2.45-.82,5.08-2.44,6.89a7.24,7.24,0,0,0-1.34-.94c2.09-2.33,2.3-5.76,2.31-8.51l0-7.79,5.57,0Zm-4-7.38c0,.78,0,1.62-.11,2.49.66-.41,1.56-1.07,2.48-1.76V23.74l-.66.54a16.2,16.2,0,0,0-1.71-2.11Zm0-6.18v3.2l.68-.48A18,18,0,0,1,119,23.06l0-4.54Z"/><path class="cls-2" d="M144.38,30.95v1.81l-17.44-.07V30.88l7.62,0,0-10.68-6.59,0V18.34l15.39.06v1.87l-6.78,0,0,10.68Z"/><path class="cls-2" d="M162.22,30a48.16,48.16,0,0,1,5.68,2.87l-1.41,1.32a43,43,0,0,0-5.64-3.06l1-1.13-6.23,0,1.55,1.06a23.82,23.82,0,0,1-5.86,3.1,12,12,0,0,0-1.3-1.33,18.9,18.9,0,0,0,5.5-2.83l-5.22,0V28.36h2.82l0-11.11,12,0,0,11.11h2.67v1.64ZM155,28.38l8.26,0V26.93l-8.26,0Zm0-4.23v1.4l8.26,0v-1.4Zm8.27-2.68-8.26,0V22.8l8.26,0ZM155,18.73v1.38l8.26,0V18.76Z"/><path class="cls-2" d="M182.45,21.91c0-1.27-.95-2.11-2.74-2.11a4.53,4.53,0,0,0-3.44,1.64L175,20.25a6.43,6.43,0,0,1,5-2.3c2.77,0,4.67,1.38,4.66,3.78,0,2.9-4.49,3.37-4.1,6.22h-2C178,24.76,182.44,24,182.45,21.91Zm-2.89,7.59a1.71,1.71,0,1,1-1.76,1.69A1.67,1.67,0,0,1,179.56,29.5Z"/><path class="cls-1" d="M89.88,48.35,97.4,80.08c1,4.21,4.64,4.1,5.54-.17l6.72-31.73c.67-3.16-.76-6.46-2.79-6.46H92.63C90.55,41.72,89.12,45.16,89.88,48.35Z"/></g></g></svg>