<svg xmlns="http://www.w3.org/2000/svg" viewBox="0 0 89.98 62.84"><defs><style>.cls-1,.cls-3,.cls-4,.cls-5{fill:none;}.cls-1,.cls-5{stroke:#e0e0e0;}.cls-1{stroke-width:5px;}.cls-2{fill:#ffcd32;}.cls-3,.cls-4{stroke:#004864;}.cls-3,.cls-4,.cls-5{stroke-linecap:round;stroke-miterlimit:10;}.cls-3{stroke-width:7px;}.cls-4{stroke-width:4px;}</style></defs><title>資產 7</title><g id="圖層_2" data-name="圖層 2"><g id="小物提示"><path class="cls-1" d="M87.47,31c.48,15.44-18.16,28.54-41.62,29.26S3,49.1,2.51,33.66,20.61,3.25,44.07,2.53,87,15.6,87.47,31Z"/><line class="cls-1" x1="33.47" y1="21.15" x2="39.29" y2="15.64"/><polyline class="cls-1" points="64.34 27.72 56.23 27.84 57.92 33.49"/><path class="cls-1" d="M22.55,27.8c-.12.41-.87,8.66,8.52,13.93,12.4,7,23.48,1.57,24,1.12"/><path class="cls-1" d="M11.36,17.1A49.24,49.24,0,0,1,42.14,4.38a50,50,0,0,1,32,9.33"/><path class="cls-2" d="M87.47,31c.48,15.44-18.16,28.54-41.62,29.26S3,49.1,2.51,33.66,20.61,3.25,44.07,2.53,87,15.6,87.47,31Z"/><line class="cls-3" x1="33.47" y1="21.15" x2="39.29" y2="15.64"/><polyline class="cls-4" points="64.34 27.72 56.23 27.84 57.92 33.49"/><path class="cls-4" d="M22.55,27.8c-.12.41-.87,8.66,8.52,13.93,12.4,7,23.48,1.57,24,1.12"/><path class="cls-5" d="M11.36,17.1A49.24,49.24,0,0,1,42.14,4.38a50,50,0,0,1,32,9.33"/></g></g></svg>