<svg xmlns="http://www.w3.org/2000/svg" viewBox="0 0 139.64 70.99"><defs><style>.cls-1,.cls-2,.cls-3,.cls-5,.cls-8{fill:none;}.cls-1{stroke:#e0e0e0;stroke-width:5px;}.cls-1,.cls-5,.cls-8{stroke-linecap:round;stroke-linejoin:round;}.cls-2{stroke:#00364b;}.cls-2,.cls-3{stroke-miterlimit:10;stroke-width:0.89px;}.cls-3{stroke:#bebebe;}.cls-4{fill:#bebebe;}.cls-5,.cls-8{stroke:#004864;}.cls-5{stroke-width:0.87px;}.cls-6{fill:#004864;}.cls-7{fill:#00364b;}</style></defs><title>資產 9</title><g id="圖層_2" data-name="圖層 2"><g id="小物提示"><path class="cls-1" d="M80.88,16.74c1.63,2.92,6.57,3.26,11,.76s6.77-6.88,5.14-9.8"/><path class="cls-1" d="M80.36,16.2c1.63,2.92,6.57,3.26,11,.76s6.77-6.88,5.14-9.8"/><path class="cls-1" d="M8,44.08l-4.5-2.55A1.91,1.91,0,0,1,3.84,38L58.31,19.61a1.91,1.91,0,0,1,1.38.09l6.74,3.15a1.91,1.91,0,0,1-.24,3.55L29.42,38l-4.91-.25-1.28,2.2-2.86.9-6.77,0a.27.27,0,0,0-.16.5l1,.67a.44.44,0,0,1-.12.79l-4.8,1.51A1.91,1.91,0,0,1,8,44.08Z"/><path class="cls-1" d="M69.39,9c-13,0-23.57,4.84-23.57,10.81S56.37,30.59,69.39,30.59,93,25.75,93,19.78,82.4,9,69.39,9Zm10.55,9c-2.53,0-4.58-1-4.58-2.18s2.05-2.18,4.58-2.18,4.58,1,4.58,2.18S82.47,18,79.94,18Z"/><polyline class="cls-1" points="8.51 40.3 11.04 37.21 48.7 24.96"/><path class="cls-1" d="M120.73,8.14,91.82,7.89a4.69,4.69,0,0,1-3.68-2.25c-.65-1.22-.05-2.19,1.33-2.17l32.72.5c1.38,0,4.79,6.2,2.34,6.28C122.57,10.32,123.4,8.14,120.73,8.14Z"/><path class="cls-1" d="M129.44,9.29c.19-3.29-1.69-6.17-4.85-6.21L85.4,2.5a4.34,4.34,0,0,0-4,6.09L97.63,28.25a4,4,0,0,0,3.67,2.39h25.61a4,4,0,0,0,3.61-2.28Zm-6.08.15-29.13-.5A4.14,4.14,0,0,1,91,6.69c-.58-1.22,0-2.19,1.18-2.17l29.13.5a4.14,4.14,0,0,1,3.28,2.25C125.12,8.49,124.59,9.46,123.37,9.44Z"/><path class="cls-1" d="M105.51,29.67l18.31-.23a.54.54,0,0,1,.46.26l3,4.78a.54.54,0,0,1,.08.28v1.07a.54.54,0,0,1-.47.53l-1.91.24a.54.54,0,0,0-.42.76L137.09,64.7a.54.54,0,0,1,0,.23v1.19a.54.54,0,0,1-.38.51l-3.69,1.16-2.18.68a.54.54,0,0,1-.42,0l-1.44-.8a.53.53,0,0,1-.25-.31c-.16-.5-.67-1.77-1.76-1.77s-1.48,1-1.69,1.52a.54.54,0,0,1-.53.35l-1.08,0a.54.54,0,0,1-.48-.34L111.61,38a.54.54,0,0,0-.48-.34l-1.84-.07a.54.54,0,0,1-.45-.28L105,30.47A.54.54,0,0,1,105.51,29.67Z"/><path class="cls-1" d="M106,27.84l18.24-.23a.54.54,0,0,1,.51.34l2.35,6a.54.54,0,0,1-.46.73l-1.2.1a.54.54,0,0,0-.45.74l12,28.83a.54.54,0,0,1-.34.72l-5.22,1.54a.54.54,0,0,1-.42,0l-3.47-1.93a.54.54,0,0,0-.58,0l-1.06.79a.54.54,0,0,1-.34.11l-1.29,0a.54.54,0,0,1-.48-.34L112.07,36.16a.54.54,0,0,0-.48-.34l-1.84-.07a.54.54,0,0,1-.45-.28l-3.79-6.83A.54.54,0,0,1,106,27.84Z"/><line class="cls-1" x1="114.08" y1="31.55" x2="125.69" y2="61.62"/><line class="cls-1" x1="116.72" y1="31.53" x2="128.34" y2="61.61"/><line class="cls-1" x1="111.47" y1="34.35" x2="110.19" y2="31.34"/><path class="cls-1" d="M96.54,7.16C94.91,4.25,90,3.91,85.5,6.4s-6.77,6.88-5.14,9.8"/><path class="cls-1" d="M97.06,7.7c-1.63-2.92-6.57-3.26-11-.76s-6.77,6.88-5.14,9.8"/><path class="cls-2" d="M80.88,16.74c1.63,2.92,6.57,3.26,11,.76s6.77-6.88,5.14-9.8"/><path class="cls-3" d="M80.36,16.2c1.63,2.92,6.57,3.26,11,.76s6.77-6.88,5.14-9.8"/><path class="cls-4" d="M8,44.08l-4.5-2.55A1.91,1.91,0,0,1,3.84,38L58.31,19.61a1.91,1.91,0,0,1,1.38.09l6.74,3.15a1.91,1.91,0,0,1-.24,3.55L29.42,38l-4.91-.25-1.28,2.2-2.86.9-6.77,0a.27.27,0,0,0-.16.5l1,.67a.44.44,0,0,1-.12.79l-4.8,1.51A1.91,1.91,0,0,1,8,44.08Z"/><path class="cls-4" d="M69.39,9c-13,0-23.57,4.84-23.57,10.81S56.37,30.59,69.39,30.59,93,25.75,93,19.78,82.4,9,69.39,9Zm10.55,9c-2.53,0-4.58-1-4.58-2.18s2.05-2.18,4.58-2.18,4.58,1,4.58,2.18S82.47,18,79.94,18Z"/><polyline class="cls-5" points="8.51 40.3 11.04 37.21 48.7 24.96"/><path class="cls-6" d="M120.73,8.14,91.82,7.89a4.69,4.69,0,0,1-3.68-2.25c-.65-1.22-.05-2.19,1.33-2.17l32.72.5c1.38,0,4.79,6.2,2.34,6.28C122.57,10.32,123.4,8.14,120.73,8.14Z"/><path class="cls-7" d="M129.44,9.29c.19-3.29-1.69-6.17-4.85-6.21L85.4,2.5a4.34,4.34,0,0,0-4,6.09L97.63,28.25a4,4,0,0,0,3.67,2.39h25.61a4,4,0,0,0,3.61-2.28Zm-6.08.15-29.13-.5A4.14,4.14,0,0,1,91,6.69c-.58-1.22,0-2.19,1.18-2.17l29.13.5a4.14,4.14,0,0,1,3.28,2.25C125.12,8.49,124.59,9.46,123.37,9.44Z"/><path class="cls-7" d="M105.51,29.67l18.31-.23a.54.54,0,0,1,.46.26l3,4.78a.54.54,0,0,1,.08.28v1.07a.54.54,0,0,1-.47.53l-1.91.24a.54.54,0,0,0-.42.76L137.09,64.7a.54.54,0,0,1,0,.23v1.19a.54.54,0,0,1-.38.51l-3.69,1.16-2.18.68a.54.54,0,0,1-.42,0l-1.44-.8a.53.53,0,0,1-.25-.31c-.16-.5-.67-1.77-1.76-1.77s-1.48,1-1.69,1.52a.54.54,0,0,1-.53.35l-1.08,0a.54.54,0,0,1-.48-.34L111.61,38a.54.54,0,0,0-.48-.34l-1.84-.07a.54.54,0,0,1-.45-.28L105,30.47A.54.54,0,0,1,105.51,29.67Z"/><path class="cls-4" d="M106,27.84l18.24-.23a.54.54,0,0,1,.51.34l2.35,6a.54.54,0,0,1-.46.73l-1.2.1a.54.54,0,0,0-.45.74l12,28.83a.54.54,0,0,1-.34.72l-5.22,1.54a.54.54,0,0,1-.42,0l-3.47-1.93a.54.54,0,0,0-.58,0l-1.06.79a.54.54,0,0,1-.34.11l-1.29,0a.54.54,0,0,1-.48-.34L112.07,36.16a.54.54,0,0,0-.48-.34l-1.84-.07a.54.54,0,0,1-.45-.28l-3.79-6.83A.54.54,0,0,1,106,27.84Z"/><line class="cls-8" x1="114.08" y1="31.55" x2="125.69" y2="61.62"/><line class="cls-8" x1="116.72" y1="31.53" x2="128.34" y2="61.61"/><line class="cls-8" x1="111.47" y1="34.35" x2="110.19" y2="31.34"/><path class="cls-3" d="M96.54,7.16C94.91,4.25,90,3.91,85.5,6.4s-6.77,6.88-5.14,9.8"/><path class="cls-2" d="M97.06,7.7c-1.63-2.92-6.57-3.26-11-.76s-6.77,6.88-5.14,9.8"/></g></g></svg>