<svg xmlns="http://www.w3.org/2000/svg" viewBox="0 0 57.75 56.56"><defs><style>.cls-1{fill:none;stroke:#e0e0e0;stroke-width:5px;}.cls-2{fill:#e0e0e0;}.cls-3{fill:#bebebe;}.cls-4{fill:#50adc0;}.cls-5{fill:#ff665c;}.cls-6{fill:#004864;}</style></defs><title>資產 180</title><g id="圖層_2" data-name="圖層 2"><g id="小物提示"><path class="cls-1" d="M4.93,14,22,3.11a3.86,3.86,0,0,1,2.29-.61L51.59,3.94a3.86,3.86,0,0,1,3.66,3.94l-.64,29.58a3.86,3.86,0,0,1-1.49,3L36.64,53.25a3.86,3.86,0,0,1-2.72.8L6,51.49A3.86,3.86,0,0,1,2.5,47.56L3.16,17.2A3.86,3.86,0,0,1,4.93,14Z"/><path class="cls-1" d="M51.87,6.45,36.25,17.68c-.18.12-1.57,1.27-6.09,1.17-1.33,0-2.49.12-1.58.24,1.41.19,5.54-.21,6.53.68a2.72,2.72,0,0,1,.66,2.29l-.48,27.88c0,2.12.1,4.08-2.15,4a5.18,5.18,0,0,0,4.51-1.39L53.75,39.93a2.17,2.17,0,0,0,.84-1.66l.65-30A2.17,2.17,0,0,0,51.87,6.45Z"/><path class="cls-1" d="M43.94,23c-.05,2.37-1.18,5.15-2.52,6.22s-2.39,0-2.34-2.35,1.18-5.15,2.52-6.22S44,20.63,43.94,23Z"/><path class="cls-1" d="M53.67,15.27c-.05,2.37-1.18,5.15-2.52,6.22s-2.39,0-2.34-2.35S50,14,51.33,12.91,53.72,12.9,53.67,15.27Z"/><path class="cls-1" d="M48.62,27.71c-.05,2.37-1.18,5.15-2.52,6.22s-2.39,0-2.34-2.35,1.18-5.15,2.52-6.22S48.67,25.34,48.62,27.71Z"/><path class="cls-1" d="M43.57,40.15c-.05,2.37-1.18,5.15-2.52,6.22s-2.39,0-2.34-2.35,1.18-5.15,2.52-6.22S43.62,37.78,43.57,40.15Z"/><path class="cls-1" d="M53.3,32.42c-.05,2.37-1.18,5.15-2.52,6.22s-2.39,0-2.34-2.35,1.18-5.15,2.52-6.22S53.35,30,53.3,32.42Z"/><ellipse class="cls-1" cx="18.42" cy="35.26" rx="5.75" ry="5.38" transform="translate(-17.24 52.91) rotate(-88.76)"/><ellipse class="cls-1" cx="18.8" cy="34.77" rx="5.75" ry="5.38" transform="translate(-16.37 52.82) rotate(-88.76)"/><ellipse class="cls-1" cx="16.5" cy="12.48" rx="4.26" ry="1.88" transform="translate(-1.03 1.49) rotate(-5.01)"/><ellipse class="cls-1" cx="29.21" cy="9.75" rx="4.26" ry="1.88" transform="translate(-0.74 2.59) rotate(-5.01)"/><ellipse class="cls-1" cx="16.5" cy="12.89" rx="4.26" ry="1.88" transform="translate(-1.06 1.49) rotate(-5.01)"/><ellipse class="cls-1" cx="29.2" cy="10.17" rx="4.26" ry="1.88" transform="translate(-0.78 2.59) rotate(-5.01)"/><ellipse class="cls-1" cx="41.91" cy="7.03" rx="4.26" ry="1.88" transform="translate(-0.45 3.69) rotate(-5.01)"/><ellipse class="cls-1" cx="41.9" cy="7.44" rx="4.26" ry="1.88" transform="translate(-0.49 3.69) rotate(-5.01)"/><path class="cls-1" d="M43.44,23c-.05,2.37-1.18,5.15-2.52,6.22s-2.39,0-2.34-2.35,1.18-5.15,2.52-6.22S43.49,20.62,43.44,23Z"/><path class="cls-1" d="M53.17,15.26c-.05,2.37-1.18,5.15-2.52,6.22s-2.39,0-2.34-2.35S49.49,14,50.83,12.9,53.22,12.89,53.17,15.26Z"/><path class="cls-1" d="M48.12,27.7c-.05,2.37-1.18,5.15-2.52,6.22s-2.39,0-2.34-2.35,1.18-5.15,2.52-6.22S48.17,25.33,48.12,27.7Z"/><path class="cls-1" d="M43.07,40.14c-.05,2.37-1.18,5.15-2.52,6.22s-2.39,0-2.34-2.35,1.18-5.15,2.52-6.22S43.12,37.77,43.07,40.14Z"/><path class="cls-1" d="M52.8,32.4c-.05,2.37-1.18,5.15-2.52,6.22s-2.39,0-2.34-2.35,1.18-5.15,2.52-6.22S52.85,30,52.8,32.4Z"/><path class="cls-2" d="M4.93,14,22,3.11a3.86,3.86,0,0,1,2.29-.61L51.59,3.94a3.86,3.86,0,0,1,3.66,3.94l-.64,29.58a3.86,3.86,0,0,1-1.49,3L36.64,53.25a3.86,3.86,0,0,1-2.72.8L6,51.49A3.86,3.86,0,0,1,2.5,47.56L3.16,17.2A3.86,3.86,0,0,1,4.93,14Z"/><path class="cls-3" d="M51.87,6.45,36.25,17.68c-.18.12-1.57,1.27-6.09,1.17-1.33,0-2.49.12-1.58.24,1.41.19,5.54-.21,6.53.68a2.72,2.72,0,0,1,.66,2.29l-.48,27.88c0,2.12.1,4.08-2.15,4a5.18,5.18,0,0,0,4.51-1.39L53.75,39.93a2.17,2.17,0,0,0,.84-1.66l.65-30A2.17,2.17,0,0,0,51.87,6.45Z"/><path class="cls-4" d="M43.94,23c-.05,2.37-1.18,5.15-2.52,6.22s-2.39,0-2.34-2.35,1.18-5.15,2.52-6.22S44,20.63,43.94,23Z"/><path class="cls-4" d="M53.67,15.27c-.05,2.37-1.18,5.15-2.52,6.22s-2.39,0-2.34-2.35S50,14,51.33,12.91,53.72,12.9,53.67,15.27Z"/><path class="cls-4" d="M48.62,27.71c-.05,2.37-1.18,5.15-2.52,6.22s-2.39,0-2.34-2.35,1.18-5.15,2.52-6.22S48.67,25.34,48.62,27.71Z"/><path class="cls-4" d="M43.57,40.15c-.05,2.37-1.18,5.15-2.52,6.22s-2.39,0-2.34-2.35,1.18-5.15,2.52-6.22S43.62,37.78,43.57,40.15Z"/><path class="cls-4" d="M53.3,32.42c-.05,2.37-1.18,5.15-2.52,6.22s-2.39,0-2.34-2.35,1.18-5.15,2.52-6.22S53.35,30,53.3,32.42Z"/><ellipse class="cls-4" cx="18.42" cy="35.26" rx="5.75" ry="5.38" transform="translate(-17.24 52.91) rotate(-88.76)"/><ellipse class="cls-5" cx="18.8" cy="34.77" rx="5.75" ry="5.38" transform="translate(-16.37 52.82) rotate(-88.76)"/><ellipse class="cls-4" cx="16.5" cy="12.48" rx="4.26" ry="1.88" transform="translate(-1.03 1.49) rotate(-5.01)"/><ellipse class="cls-4" cx="29.21" cy="9.75" rx="4.26" ry="1.88" transform="translate(-0.74 2.59) rotate(-5.01)"/><ellipse class="cls-6" cx="16.5" cy="12.89" rx="4.26" ry="1.88" transform="translate(-1.06 1.49) rotate(-5.01)"/><ellipse class="cls-6" cx="29.2" cy="10.17" rx="4.26" ry="1.88" transform="translate(-0.78 2.59) rotate(-5.01)"/><ellipse class="cls-4" cx="41.91" cy="7.03" rx="4.26" ry="1.88" transform="translate(-0.45 3.69) rotate(-5.01)"/><ellipse class="cls-6" cx="41.9" cy="7.44" rx="4.26" ry="1.88" transform="translate(-0.49 3.69) rotate(-5.01)"/><path class="cls-6" d="M43.44,23c-.05,2.37-1.18,5.15-2.52,6.22s-2.39,0-2.34-2.35,1.18-5.15,2.52-6.22S43.49,20.62,43.44,23Z"/><path class="cls-6" d="M53.17,15.26c-.05,2.37-1.18,5.15-2.52,6.22s-2.39,0-2.34-2.35S49.49,14,50.83,12.9,53.22,12.89,53.17,15.26Z"/><path class="cls-6" d="M48.12,27.7c-.05,2.37-1.18,5.15-2.52,6.22s-2.39,0-2.34-2.35,1.18-5.15,2.52-6.22S48.17,25.33,48.12,27.7Z"/><path class="cls-6" d="M43.07,40.14c-.05,2.37-1.18,5.15-2.52,6.22s-2.39,0-2.34-2.35,1.18-5.15,2.52-6.22S43.12,37.77,43.07,40.14Z"/><path class="cls-6" d="M52.8,32.4c-.05,2.37-1.18,5.15-2.52,6.22s-2.39,0-2.34-2.35,1.18-5.15,2.52-6.22S52.85,30,52.8,32.4Z"/></g></g></svg>