<svg xmlns="http://www.w3.org/2000/svg" viewBox="0 0 301.56 89.55"><defs><style>.cls-1{fill:#6bffba;}.cls-2{fill:#00364b;}</style></defs><title>資產 5</title><g id="圖層_2" data-name="圖層 2"><g id="圖層_1-2" data-name="圖層 1"><rect class="cls-1" width="301.56" height="49.48" rx="24.1" ry="24.1"/><path class="cls-2" d="M42.67,31.56c0,1.05-.26,1.6-1,1.87a10.68,10.68,0,0,1-3.65.3,7.48,7.48,0,0,0-.6-1.76c1.25.06,2.53,0,2.9,0a.41.41,0,0,0,.49-.49V28H36.09v5.57H34.35V28H29.87a11.17,11.17,0,0,1-2.46,5.9A6,6,0,0,0,26,32.7c2.13-2.35,2.34-5.8,2.35-8.55V17.21l14.36.05Zm-8.32-5.25V23.43H30.12v.75a16.87,16.87,0,0,1-.09,2.1ZM30.15,19v2.75h4.23V19Zm10.73,7.37V23.46H36.16v2.88Zm0-7.33H36.16v2.75h4.72Z"/><path class="cls-2" d="M67.41,23.8v2l-17.73-.07v-2Z"/><path class="cls-2" d="M78.35,16.64a29.64,29.64,0,0,1-1.55,3.74l0,13.6H75V23.46A19.14,19.14,0,0,1,73.4,25.6a12.91,12.91,0,0,0-.89-1.91,21.85,21.85,0,0,0,4.14-7.53Zm11.88.57-.06,16.6H88.46v-1h-8V34H78.8l.06-16.78Zm-1.77,14V18.76h-8V31.21Zm-3.24-8.49v1.95h2.07v5.18H81.83V24.67h2V22.72H81.17V21.38h2.61v-2.1h1.44v2.1h2.71v1.34H85.22ZM85.87,26H83.16v2.57h2.71Z"/><path class="cls-2" d="M105.81,24.95v9.1H103.9v-9.1H96.61V23.16h7.23v-7h1.91v2.53h6.33v1.73h-6.33v2.76H114V25Zm6.31,6.16c-1.4-.79-4.3-2.06-6.32-2.91l.94-1.4c2,.75,4.9,1.95,6.4,2.67Z"/><path class="cls-2" d="M124.77,25.43a23.35,23.35,0,0,1-1.6,5c.37.2.78.53,1.4.92,1.36.82,3.13.95,5.43,1a71.4,71.4,0,0,0,7.8-.42,8.43,8.43,0,0,0-.53,1.87c-1.5.09-5.09.2-7.35.19-2.57,0-4.25-.23-5.65-1.05a8,8,0,0,0-1.91-1.14c-.45,0-1.12,1.26-1.65,2.45l-1.22-1.68a8.52,8.52,0,0,1,2-2,18.33,18.33,0,0,0,1.28-3.78h-2.49c.49-1.15,1.06-2.72,1.55-4.24h-2V20.91H124c-.43,1.38-1,3-1.46,4.32h1.07l.27-.08ZM121.89,20c-.21-.86-.69-2.24-1-3.28l1.6-.46c.35,1,.81,2.32,1.06,3.16Zm5.79,11.05H126v-10h5c-1-.49-2.2-1-3.19-1.4l1.17-1a27,27,0,0,1,2.51,1,16.22,16.22,0,0,0,2.13-1.32h-7.52V17h9.22l.35-.1,1.09.88A17.44,17.44,0,0,1,133,20.37a14.23,14.23,0,0,1,1.34.69h2.4v8.32a1.3,1.3,0,0,1-.71,1.46,7,7,0,0,1-2.61.26,4.92,4.92,0,0,0-.48-1.46h1.77a.26.26,0,0,0,.31-.31V27.95h-2.9v3h-1.64v-3h-2.81v3.14Zm2.82-4.43V25.18h-2.81v1.46h2.81Zm-2.79-4.2v1.4h2.81v-1.4ZM135,26.68v-1.5h-2.9v1.46H135Zm0-4.19h-2.9v1.4H135Z"/><path class="cls-2" d="M153,16.42a21.62,21.62,0,0,1-.15,2.9c.26,2.44,1.42,10.22,8.21,13.26a5.35,5.35,0,0,0-1.33,1.54c-4.57-2.18-6.68-6.48-7.7-10a15.53,15.53,0,0,1-7.48,10,5.61,5.61,0,0,0-1.49-1.45c8-4.1,7.8-13.18,7.87-16.3H153Z"/><path class="cls-2" d="M173.89,26.61c-.76.25-1.52.48-2.28.71v7h-1.68V27.87l-3.06.92L166.41,27c1-.25,2.2-.58,3.53-.94V22h-1.59a18.94,18.94,0,0,1-.81,2.71,11.09,11.09,0,0,0-1.32-.82,22.57,22.57,0,0,0,1.25-6.35l1.54.26c-.1.84-.2,1.67-.34,2.49h1.25V16.45h1.68v3.86h1.81V22H171.6V25.6l2-.58Zm10.35-7v.86c-.46,8.75-.84,11.82-1.61,12.78a1.84,1.84,0,0,1-1.43.85,11.23,11.23,0,0,1-2.2,0,4.29,4.29,0,0,0-.5-1.78c.82.08,1.54.08,1.91.08a.75.75,0,0,0,.7-.35c.57-.64,1-3.41,1.37-10.81h-.55c-1,5-3.12,10.14-6.28,12.66a8.25,8.25,0,0,0-1.5-1.08c3.15-2.23,5.21-6.88,6.2-11.59H179c-.87,3.27-2.58,6.83-4.65,8.65a6.58,6.58,0,0,0-1.4-1c2-1.55,3.62-4.62,4.53-7.62h-1.38A14.68,14.68,0,0,1,174,24.84a13.73,13.73,0,0,0-1.4-1A16.49,16.49,0,0,0,176,16.49l1.64.32a26.77,26.77,0,0,1-.81,2.82Z"/><path class="cls-2" d="M198.48,25.72v8.69h-1.77V25.72H194c-.09,3.2-.61,6.35-2.92,8.82a6.24,6.24,0,0,0-1.34-1.23c2-2.17,2.47-4.86,2.56-7.59h-2.38V24h2.4V19.36H190.2V17.69h10v1.67h-1.71V24h2v1.7h-2ZM196.71,24V19.36H194V24Zm11.13,4a17.25,17.25,0,0,1-7.23,6.36,6.93,6.93,0,0,0-1.28-1.47,14.54,14.54,0,0,0,6.8-5.59ZM207,17.53a19.94,19.94,0,0,1-5.57,4.66,6.3,6.3,0,0,0-1.3-1.29,16.16,16.16,0,0,0,5.16-4.05Zm.41,5.32a21.23,21.23,0,0,1-5.79,4.93,7.29,7.29,0,0,0-1.28-1.29,16.71,16.71,0,0,0,5.41-4.34Z"/><path class="cls-2" d="M223.53,23.07a4.22,4.22,0,0,1-.33.49,19.63,19.63,0,0,0,7.91,5,5.77,5.77,0,0,0-1.17,1.5c-.78-.33-1.54-.73-2.26-1.1v5.47h-1.85v-.54h-7.37v.6h-1.77v-5.3a21.59,21.59,0,0,1-2.36,1.1,7.29,7.29,0,0,0-1.14-1.47A17.26,17.26,0,0,0,222,22.38Zm-7.69-1h-1.77V18.29h7.35a12.63,12.63,0,0,0-.66-1.44l1.87-.4a13.76,13.76,0,0,1,.93,1.85h6.76v3.78h-1.83V19.94H215.84v2.14Zm4.7-.86a16.71,16.71,0,0,1-5,4.29,11.48,11.48,0,0,0-1.24-1.37,13.1,13.1,0,0,0,4.55-3.51Zm5.28,11.11V29.59h-7.37v2.73ZM226,28a19.79,19.79,0,0,1-3.77-3.17A19.49,19.49,0,0,1,218.7,28Zm-1.12-7.33a29.25,29.25,0,0,1,5,3.68l-1.31,1.16a29.31,29.31,0,0,0-4.9-3.82Z"/><path class="cls-2" d="M252.52,19.32l-.06,15.24h-1.91v-1h-9.86v1.05h-1.81l.06-15.32h4.91a21.12,21.12,0,0,0,.65-2.61l2.16.26a23.4,23.4,0,0,1-1,2.35Zm-2,12.58V29.39h-9.86V31.9Zm-9.83-6.72v2.49h9.86V25.18Zm0-4.17V23.5h9.86V21Z"/><path class="cls-2" d="M273.42,32.49c2,0,2.3-.5,2.53-3.4a7.75,7.75,0,0,0,1.85.73c-.38,3.55-1.09,4.5-4.38,4.48h-6.86c-3.31,0-4.38-.6-4.37-3V24.21h11.3v-4.4H261.93V18h13.46v9.2h-1.91V26h-9.43v5.3c0,1,.38,1.23,2.47,1.24Z"/><path class="cls-1" d="M114.35,49.37,121.87,86c1,4.86,4.64,4.73,5.54-.19l6.72-36.61c.67-3.65-.76-7.46-2.79-7.46H117.1C115,41.73,113.6,45.7,114.35,49.37Z"/></g></g></svg>