<svg xmlns="http://www.w3.org/2000/svg" viewBox="0 0 273.81 89.55"><defs><style>.cls-1{fill:#6bffba;}.cls-2{fill:#00364b;}</style></defs><title>資產 2</title><g id="圖層_2" data-name="圖層 2"><g id="圖層_1-2" data-name="圖層 1"><rect class="cls-1" width="273.81" height="49.48" rx="24.53" ry="24.53"/><path class="cls-2" d="M40.17,31.71c1.66,0,1.91-.38,2.13-2.31a5.79,5.79,0,0,0,1.75.67c-.34,2.61-1,3.35-3.79,3.34h-6.9c-3.25,0-4.21-.6-4.2-3V22.24a20.32,20.32,0,0,1-1.64,1.55A11.39,11.39,0,0,0,26,22.42a16.24,16.24,0,0,0,5.17-6.57l1.83.53a18.17,18.17,0,0,1-1.08,2.12h10.5v.8c-.24,6.27-.42,8.55-1,9.25a1.65,1.65,0,0,1-1.31.75,16.33,16.33,0,0,1-2.24,0,4.54,4.54,0,0,0-.46-1.72,13.13,13.13,0,0,0,1.79.08.63.63,0,0,0,.62-.27c.31-.43.51-2.28.71-7.21H30.79a20.67,20.67,0,0,1-1.37,1.73h7.75v5.94H30.94v2.51c0,1.07.33,1.31,2.37,1.31ZM31,23.51v2.71h4.46V23.51Z"/><path class="cls-2" d="M63.55,31.8c1.66,0,1.91-.38,2.13-2.31a5.79,5.79,0,0,0,1.75.67c-.34,2.61-1,3.35-3.79,3.34h-6.9c-3.25,0-4.21-.6-4.2-3V22.33a20.32,20.32,0,0,1-1.64,1.55,11.46,11.46,0,0,0-1.5-1.37,16.23,16.23,0,0,0,5.17-6.57l1.83.53a18.25,18.25,0,0,1-1.08,2.12h10.5v.8c-.24,6.27-.42,8.55-1,9.25a1.65,1.65,0,0,1-1.31.75,16.33,16.33,0,0,1-2.24,0,4.54,4.54,0,0,0-.46-1.72,13.28,13.28,0,0,0,1.79.08.64.64,0,0,0,.62-.27c.31-.43.51-2.28.71-7.21H54.17A20.53,20.53,0,0,1,52.8,22h7.75v5.94H54.32v2.51c0,1.07.33,1.31,2.37,1.31Zm-9.18-8.2v2.71h4.46V23.6Z"/><path class="cls-2" d="M78.9,28.92a26.57,26.57,0,0,0-1.73-2.48V34H75.53V26.59a16.26,16.26,0,0,1-2.17,2.15A7.79,7.79,0,0,0,72.57,27,17,17,0,0,0,77.35,21H73.16V19.4h5.07l.31-.1.91.74a21.37,21.37,0,0,1-2.28,4.34v.06l.54.55a16.46,16.46,0,0,0,1.43-1.89l1.09,1c-.61.62-1.23,1.24-1.76,1.73.6.64,1.2,1.33,1.44,1.58ZM76.52,19.4A21.52,21.52,0,0,0,75,16.82L76.28,16a20.45,20.45,0,0,1,1.59,2.44ZM90.7,31.94v1.6h-11v-1.6h4.56V29.47H80.48v-1.6h3.78V26H80.42V17h9.47v9h-4v1.87H90v1.6H85.89v2.47Zm-6.38-7.51V22.17H82.1v2.26h2.22Zm-2.21-3.71h2.24V18.5H82.13v2.22Zm6.13,1.47H86v2.26h2.24Zm0-3.66H86v2.22h2.24Z"/><path class="cls-2" d="M106.81,17.41a23.58,23.58,0,0,1-2.49,4.53h2v1.58h-3.25c-.51.58-1.06,1.15-1.6,1.67h4.07V33.7h-1.71v-.8H99.95V34h-1.6V27.64c-.43.25-.86.52-1.33.77a8.3,8.3,0,0,0-1-1.49,18.55,18.55,0,0,0,4.86-3.41H96.5V21.93h3.64v-2H97.35V18.37h2.79v-2h1.68v2h2.24v1a18.79,18.79,0,0,0,1.16-2.43Zm-3,14V29.66H100v1.75Zm0-4.77H100v1.6h3.86Zm-1.58-4.72a18.84,18.84,0,0,0,1.43-2h-1.91v2h.48ZM114.35,18c-.77,1.83-1.75,4-2.63,5.8A6,6,0,0,1,114,28.43a3,3,0,0,1-1,2.72,3.33,3.33,0,0,1-1.33.44,10.66,10.66,0,0,1-1.77,0,4.45,4.45,0,0,0-.48-1.76,9.72,9.72,0,0,0,1.46,0,1.85,1.85,0,0,0,.86-.21,1.52,1.52,0,0,0,.55-1.44c0-1.15-.54-2.59-2.36-4.2.73-1.52,1.53-3.54,2.08-5.08h-3.1L108.85,34h-1.77l.06-16.8h5.63l.27-.08Z"/><path class="cls-2" d="M123,22.69a4.08,4.08,0,0,1-2.49,3.46,3.55,3.55,0,0,0-.93-1.17,2.82,2.82,0,0,0,1.74-2.29H120V21.27h4.81v-1h-4v-3.7h1.54v2.26h2.42V16.3h1.7v9.53h-1.7v-3.1h-1.81ZM136.4,29a27.86,27.86,0,0,1-3.3,1.88,12.58,12.58,0,0,0,4.55,1.75,5.87,5.87,0,0,0-1,1.5,11.29,11.29,0,0,1-8.08-6.21h-.08a13.27,13.27,0,0,1-2.73,1.68v2.49l4.25-.84a9.62,9.62,0,0,0-.1,1.44c-5.09,1.11-5.77,1.28-6.18,1.52a5.38,5.38,0,0,0-.7-1.39,1.77,1.77,0,0,0,1-1.57v-.92a22,22,0,0,1-3.37.94,5.67,5.67,0,0,0-1-1.29,22.09,22.09,0,0,0,6.42-2.08H120V26.51h7.83a10.36,10.36,0,0,0-.54-1.13l1.78-.48a9.7,9.7,0,0,1,.81,1.62h7.5v1.42h-7A8.88,8.88,0,0,0,132,30a24.53,24.53,0,0,0,3.16-1.94Zm-5.15-8.67h-4V18.84h4V16.29H133v2.55h4.11v1.52H133v2.85h3.7v1.54h-9V23.21h3.55V20.36Z"/><path class="cls-2" d="M159.78,18.77A29.24,29.24,0,0,1,153.06,24v8c0,1.11-.3,1.66-1.14,1.91a13.79,13.79,0,0,1-4.09.3,6.06,6.06,0,0,0-.71-1.83c1.52.06,3,.07,3.49.05s.57-.12.57-.47V23.09a23.71,23.71,0,0,0,5-3.51H144.27V17.79H158l.41-.1Z"/><path class="cls-2" d="M175.62,25.88c-3.18.4-6.55.79-8.93,1.08l-.21-1.79,1.21-.09V18.47h1.66V24.9l1.46-.15V16.41h1.79v3.16h2.84v1.62H172.6v3.37l3-.34ZM166.75,32,184,32.1v1.79l-17.28-.06Zm2.2-4.14H182v1.73H168.95Zm9.88-1.48c-2,0-2.53-.57-2.52-2.54V16.44h1.81v3.18H183v1.62h-4.85v2.65c0,.7.13.82,1,.82h2.65c.68,0,.8-.35.91-2.26a4.53,4.53,0,0,0,1.63.71c-.22,2.55-.73,3.27-2.39,3.26h-3.09Z"/><path class="cls-2" d="M196.21,17.11A30.52,30.52,0,0,1,194.35,21V34.41H192.6V23.85a21.46,21.46,0,0,1-1.84,2.23,10.17,10.17,0,0,0-1-1.85,21.64,21.64,0,0,0,4.74-7.58Zm11.41,7.78h-5v9.55h-1.87V24.89h-5.22V23h5.22V16.73h1.87V23h5v1.85Z"/><path class="cls-2" d="M216.35,19.64v3.84c0,3.1-.26,7.91-1.76,11a7,7,0,0,0-1.44-1.1c1.36-2.9,1.47-7,1.48-10V18H222c-.12-.43-.25-.86-.38-1.25l1.83-.34A12.71,12.71,0,0,1,224,18h6.76v1.58Zm2.24,4.51a4,4,0,0,1-1.12,3.09,4.31,4.31,0,0,0-.91-.76,2.89,2.89,0,0,0,1-2.39v-.8h1.07v.86Zm8.85,5.57c1,1.21,2.37,2.91,3.08,3.93l-1.42.74c-.21-.33-.46-.72-.79-1.17-9.41.67-10.43.68-11.07.91a11.31,11.31,0,0,0-.42-1.5,8.25,8.25,0,0,0,2.26-.83c.51-.21,1.46-.71,2.64-1.37a16.7,16.7,0,0,0-3.67.36,8.46,8.46,0,0,0-.4-1.42,3.8,3.8,0,0,0,1.25-.5,18.8,18.8,0,0,0,3.44-2.44l1.26.78a24.88,24.88,0,0,1-3.4,2.25l3.37-.14a31.15,31.15,0,0,0,2.66-1.88l1.36,1a48.27,48.27,0,0,1-6.79,4l6.55-.44-1.24-1.56Zm-8-2.8V22.61h-2.32v-1.4h2.32v-1h1.4v1h2.42v1.4h-2.42v4.31Zm6-2.82A3.56,3.56,0,0,1,224.38,27a3.15,3.15,0,0,0-.87-.7v.08a3.15,3.15,0,0,1-.64.06h-.39c-.82,0-1-.37-1-1.21V23.38h1.05v1.83c0,.33,0,.43.21.43h.08a3.39,3.39,0,0,0,.6-.06l.06.66a2.59,2.59,0,0,0,.87-2.16v-.8h1.07v.82Zm.79,2.81V22.64h-2.44v-1.4h2.44v-1h1.4v1h2.88v1.4h-2.88v4.27Zm3.9-1a3.08,3.08,0,0,0,.72-.08l.05.82a2.73,2.73,0,0,1-.76.06h-.79c-.9,0-1.07-.39-1.07-1.27v-2.1h1.09v2.12c0,.33,0,.45.25.45h.51Z"/><path class="cls-2" d="M245.58,22.17c0-1.27-.95-2.11-2.74-2.12a4.53,4.53,0,0,0-3.44,1.64l-1.28-1.19a6.43,6.43,0,0,1,5-2.3c2.77,0,4.67,1.38,4.66,3.78,0,2.9-4.49,3.37-4.09,6.22h-2C241.17,25,245.57,24.23,245.58,22.17Zm-2.89,7.59a1.67,1.67,0,0,1,1.77,1.57s0,.09,0,.13a1.77,1.77,0,1,1-3.53,0,1.65,1.65,0,0,1,1.6-1.7Z"/><path class="cls-1" d="M180.92,49.37,188.44,86c1,4.86,4.64,4.73,5.54-.19l6.72-36.61c.67-3.65-.76-7.46-2.79-7.46H183.68C181.59,41.72,180.16,45.69,180.92,49.37Z"/></g></g></svg>