<svg xmlns="http://www.w3.org/2000/svg" viewBox="0 0 269.5 89.55"><defs><style>.cls-1{fill:#6bffba;}.cls-2{fill:#00364b;}</style></defs><title>資產 150</title><g id="圖層_2" data-name="圖層 2"><g id="對話框"><rect class="cls-1" width="269.5" height="49.48" rx="24.74" ry="24.74"/><path class="cls-2" d="M50.6,30.44v2.38l-16.91-.06V30.38Zm-1-12.79V20l-14.77-.05V17.6ZM48,23.87v2.36l-11.89,0V23.82Z"/><path class="cls-2" d="M62.23,16.53a37,37,0,0,1-1.54,3.7L60.64,34h-2.2l0-10a20,20,0,0,1-1.31,1.67,16.07,16.07,0,0,0-1.08-2.52,20.62,20.62,0,0,0,4-7.35Zm11.9.34-.06,17h-2.2v-1l-7.33,0V34H62.43l.06-17.19Zm-2.25,14,0-12-7.33,0,0,12Zm-2.78-8v1.68H71l0,5.22-5.4,0,0-5.22H67.3V22.92H65.07V21.24h2.24v-2h1.79v2h2.36v1.68Zm.13,3.27h-2v2h2Z"/><path class="cls-2" d="M88.11,25.9a19.62,19.62,0,0,1,.81,2.15l-.78.27h.29v1.87c0,1.54-.4,3-2.86,3.83a5.18,5.18,0,0,0-1-1.29,3.09,3.09,0,0,0,1.89-1.14h-2.2V28.64h1.4V30.3h1.17v-2h.86c0-.14-.08-.31-.12-.49a16,16,0,0,0-3.45.55v0a11.8,11.8,0,0,0-.38-1.29,2.54,2.54,0,0,0,1-.52c.15-.12.47-.37.84-.72a4.51,4.51,0,0,0-1.38.23v0a9.88,9.88,0,0,0-.46-1.33,1.11,1.11,0,0,0,.64-.35A5.5,5.5,0,0,0,85.57,23H83l0,11.13H80.73l.06-17.46,7.52,0,0,6.33h-2l.72.39a10.44,10.44,0,0,1-1.35,1.44l1,0c.25-.29.49-.6.72-.89l1.13.78A18.67,18.67,0,0,1,86,26.93l1.21-.11a6.05,6.05,0,0,0-.23-.62ZM83,21.42h3.12v-.9H83Zm0-3.21v.92h3.12v-.92Zm14.2,13.28c0,1.11-.16,1.75-.83,2.14a5.73,5.73,0,0,1-2.87.42A8.79,8.79,0,0,0,93,32.16H92.1v-.55H90.93v2.28H89.31l0-5.55h0c-.1-.31-.27-.88-.4-1.21a2,2,0,0,0,1-.52c.16-.12.45-.37.82-.72a4.58,4.58,0,0,0-1.38.23A8.12,8.12,0,0,0,89,24.78a1.4,1.4,0,0,0,.64-.35A7.13,7.13,0,0,0,90.77,23H89.58l0-6.33,7.66,0Zm-3.62.32a9.32,9.32,0,0,0,1.05,0c.25,0,.33-.1.33-.35L95,23H91.47l.76.41a10.08,10.08,0,0,1-1.31,1.42l1,0a11,11,0,0,0,.8-.93l1.11.8A23.29,23.29,0,0,1,91.26,27l1.19-.11c-.1-.21-.17-.43-.27-.62l1.09-.35a19.23,19.23,0,0,1,.91,2.15L93,28.5c-.06-.18-.13-.41-.19-.64a31.42,31.42,0,0,0-3.18.48h1.29v2H92.1V28.67h1.48ZM91.79,21.46H95v-.9H91.79Zm0-3.21v.92H95v-.92Z"/><path class="cls-2" d="M113.72,23a26.12,26.12,0,0,1-1.06,6.91c1.4,1.64,3.29,2.08,5.39,2.08.58,0,2.69,0,3.47,0a7.49,7.49,0,0,0-.63,1.89h-3c-2.42,0-4.44-.48-6-2.15a7.36,7.36,0,0,1-2.19,2.54,6.83,6.83,0,0,0-1-1.56,4,4,0,0,0,.71-.56c-2,.54-4,1.06-5.62,1.48l-.36-2.09L106,31l0-4.83h-2.34v-2H106V22.81h-1.42v-.68c-.21.23-.41.45-.62.64a18.77,18.77,0,0,0-.69-2.38,12.75,12.75,0,0,0,3.25-4.51l1.4.79c-.1.23-.2.47-.31.7a15.82,15.82,0,0,1,2.53,2.17l-.81,1.93A17.37,17.37,0,0,0,106.74,19a17.64,17.64,0,0,1-1.2,1.85h3.23v1.93h-1.23v1.42h1.77v2h-1.77l0,4.5,1.78-.38.11,1.79a6.4,6.4,0,0,0,1.37-2,13.64,13.64,0,0,1-1.26-3.28l1.48-.58a11.13,11.13,0,0,0,.48,1.56,21.68,21.68,0,0,0,.48-3.1h-2.53c.59-1.44,1.3-3.52,1.87-5.47h-1.46v-2h3.86c-.55,1.79-1.24,3.91-1.85,5.66h.54l.27,0Zm-8.55,3.9a26,26,0,0,1,.59,3.33l-1.27.44a25.6,25.6,0,0,0-.51-3.39ZM107.64,30a28.54,28.54,0,0,0,.58-3.27l1.38.45c-.32,1.15-.61,2.43-.85,3.25ZM116,19.15h-2V17.49h2V16h1.73V17.5h2.59v2.55h1v1.68h-1v2.59h-2.59v.88h2.79V27h-2.79v.94h3.16v1.79h-3.16v1.75H116V29.73h-2.42V27.93H116V27h-2V25.18h2v-.88h-2V22.65h2v-.94h-2.67V20H116Zm2.74,2.58h-1v.94h1Zm-1-2.58v.9h1v-.9Z"/><path class="cls-2" d="M144.2,28.74l-7.27,0v2.94c0,1.25-.3,1.87-1.26,2.22a10.94,10.94,0,0,1-3.78.38,8.37,8.37,0,0,0-1-2.36c1.21,0,2.67,0,3.06.05s.51-.08.51-.35V28.71l-7.23,0v-2.2l7.23,0v-1a13.4,13.4,0,0,0,2.38-1.59l-6.28,0V21.7l8.61,0,.53-.12,1.54,1.21a19.53,19.53,0,0,1-4.32,3.35v.33l7.27,0ZM129.63,22.4h-2.28l0-4.46,7.29,0a10.17,10.17,0,0,0-.75-1.29l2.32-.69a8.88,8.88,0,0,1,1.18,2l6.7,0,0,4.46h-2.4V20.16l-12.06,0Z"/><path class="cls-2" d="M158.94,25.82l0,8.57h-2.26l0-8.57H154.4c-.11,3.18-.65,6.33-3,8.72a8.81,8.81,0,0,0-1.69-1.6c1.88-2,2.37-4.51,2.5-7.12H150V23.64h2.26l0-4.19h-1.91V17.29l10.19,0v2.16H159l0,4.19h1.87v2.14Zm-2.25-2.15,0-4.19h-2.26l0,4.19Zm11.58,4.19a17.42,17.42,0,0,1-7.08,6.52,8.65,8.65,0,0,0-1.61-1.9A13.93,13.93,0,0,0,166.07,27Zm-.68-10.47A19.83,19.83,0,0,1,162,22.16a7.66,7.66,0,0,0-1.63-1.64,14.68,14.68,0,0,0,5-4Zm.29,5.32a20.77,20.77,0,0,1-5.67,5,9.67,9.67,0,0,0-1.61-1.62,15.82,15.82,0,0,0,5.16-4.29Z"/><path class="cls-2" d="M184.08,23c-.1.16-.2.33-.31.49a20,20,0,0,0,7.82,4.76,6.69,6.69,0,0,0-1.45,1.92c-.7-.31-1.34-.63-2-1l0,5.3h-2.38V34l-6.66,0v.55h-2.26l0-5.09c-.68.35-1.37.66-2.09.95a8.56,8.56,0,0,0-1.43-1.88c3.61-1.21,7-3.38,8.75-6.34Zm-7.63-1h-2.26l0-4.19,7.17,0c-.17-.43-.37-.88-.56-1.25l2.46-.52a14.51,14.51,0,0,1,.81,1.78l6.74,0,0,4.19h-2.38V20l-12,0Zm4.7-1a16.1,16.1,0,0,1-5,4.39,21.72,21.72,0,0,0-1.55-1.8,11.55,11.55,0,0,0,4.4-3.32Zm4.62,10.87V29.85l-6.66,0v2.07Zm.05-4.11A19.44,19.44,0,0,1,182.56,25a17.82,17.82,0,0,1-3.05,2.74Zm-.54-7.43a27.62,27.62,0,0,1,4.86,3.54l-1.7,1.48a28.22,28.22,0,0,0-4.76-3.72Z"/><path class="cls-2" d="M213.06,18.91,213,34.55h-2.47v-1l-9.25,0v1h-2.36L199,18.85l5,0a21.62,21.62,0,0,0,.54-2.55l2.8.32c-.29.78-.61,1.54-.92,2.24Zm-2.52,12.54v-2l-9.25,0v2Zm-9.23-6.21v2l9.25,0v-2Zm0-4.15v2l9.26,0v-2Z"/><path class="cls-2" d="M233.43,32c1.95,0,2.22-.48,2.49-3.28a8.91,8.91,0,0,0,2.36.89c-.44,3.72-1.3,4.73-4.79,4.72l-6.31,0c-3.64,0-4.83-.72-4.82-3.51l0-7,11.11,0,0-3.86-11.34,0V17.54l13.81.05,0,9.63h-2.47V26.09l-8.69,0,0,4.7c0,1,.35,1.21,2.43,1.22Z"/><path class="cls-1" d="M123.36,49.37,130.88,86c1,4.86,4.64,4.73,5.54-.19l6.72-36.61c.67-3.65-.76-7.46-2.79-7.46H126.12C124,41.72,122.61,45.69,123.36,49.37Z"/></g></g></svg>