<svg xmlns="http://www.w3.org/2000/svg" viewBox="0 0 199.47 97.18"><defs><style>.cls-1,.cls-3,.cls-7,.cls-8{fill:none;}.cls-1,.cls-7{stroke:#e0e0e0;}.cls-1{stroke-width:5px;}.cls-2{fill:#ff665c;}.cls-3{stroke:#ff9947;stroke-width:0.82px;}.cls-3,.cls-7,.cls-8{stroke-linecap:round;stroke-miterlimit:10;}.cls-4{fill:#00364b;}.cls-5{fill:#bebebe;}.cls-6{fill:#e0e0e0;}.cls-7{stroke-width:2.12px;}.cls-8{stroke:#00364b;}</style></defs><title>資產 17</title><g id="圖層_2" data-name="圖層 2"><g id="小物提示"><path class="cls-1" d="M192.64,61l-15.36-7.11c.9.93-37.14-32.84-64.61-47.32l-4.82-3.83L5.57,28.18,89.95,94.39Z"/><polyline class="cls-1" points="107 7.01 19.58 28.51 90.74 84.52 181.13 56.5"/><path class="cls-1" d="M35.85,29.72l68.68-18.3s12.4,6.8,16.72,12.16L54,41.62Z"/><path class="cls-1" d="M146.09,48c1.25,5.52-11.21,13.43-27.82,17.67s-31.09,3.21-32.33-2.31S97.15,49.9,113.76,45.66,144.84,42.45,146.09,48Z"/><path class="cls-1" d="M129.12,36.38c4.14,5.11,5,17.22-6.87,22.39C105,66.25,90.34,56.15,86.2,51"/><path class="cls-1" d="M129.49,37.25c.93,4.23-8.3,10.27-20.61,13.48s-23,2.38-24-1.85,8.3-10.27,20.61-13.48S128.56,33,129.49,37.25Z"/><path class="cls-1" d="M124.66,36.64c.83,2.53-6.73,6.91-16.89,9.77S88.71,49.53,87.88,47s6.73-6.91,16.89-9.77S123.83,34.11,124.66,36.64Z"/><path class="cls-1" d="M127.07,35.33a3.66,3.66,0,0,1,3-2.31c6.38-.77,8.41,8.35,1.69,11.75"/><line class="cls-1" x1="23.31" y1="42.71" x2="31.82" y2="40.53"/><path class="cls-2" d="M192.64,61l-15.36-7.11c.9.93-37.14-32.84-64.61-47.32l-4.82-3.83L5.57,28.18,89.95,94.39Z"/><polyline class="cls-3" points="107 7.01 19.58 28.51 90.74 84.52 181.13 56.5"/><path class="cls-4" d="M35.85,29.72l68.68-18.3s12.4,6.8,16.72,12.16L54,41.62Z"/><path class="cls-5" d="M146.09,48c1.25,5.52-11.21,13.43-27.82,17.67s-31.09,3.21-32.33-2.31S97.15,49.9,113.76,45.66,144.84,42.45,146.09,48Z"/><path class="cls-6" d="M129.12,36.38c4.14,5.11,5,17.22-6.87,22.39C105,66.25,90.34,56.15,86.2,51"/><path class="cls-6" d="M129.49,37.25c.93,4.23-8.3,10.27-20.61,13.48s-23,2.38-24-1.85,8.3-10.27,20.61-13.48S128.56,33,129.49,37.25Z"/><path class="cls-4" d="M124.66,36.64c.83,2.53-6.73,6.91-16.89,9.77S88.71,49.53,87.88,47s6.73-6.91,16.89-9.77S123.83,34.11,124.66,36.64Z"/><path class="cls-7" d="M127.07,35.33a3.66,3.66,0,0,1,3-2.31c6.38-.77,8.41,8.35,1.69,11.75"/><line class="cls-8" x1="23.31" y1="42.71" x2="31.82" y2="40.53"/></g></g></svg>