<svg xmlns="http://www.w3.org/2000/svg" viewBox="0 0 75.25 53.39"><defs><style>.cls-1{fill:#00364b;}.cls-2{fill:#e0e0e0;}.cls-3{fill:#bebebe;}.cls-4{fill:#50adc0;}.cls-5{fill:#ff665c;}.cls-6{fill:#004864;}</style></defs><title>資產 174</title><g id="圖層_2" data-name="圖層 2"><g id="小物"><path class="cls-1" d="M2.2,44.7a2.27,2.27,0,0,0,.58,4.2c7.93,1.86,25.85,4.52,29.58,4.48,4.85,0,23.93-4.36,28.16-5.23a2.25,2.25,0,0,0,1.14-.62L74.58,34.6a2.27,2.27,0,0,0-1.33-3.86L36.54,26.22a2.27,2.27,0,0,0-1.38.27Z"/><path class="cls-2" d="M2.43,11.54,19.48.61A3.86,3.86,0,0,1,21.76,0L49.09,1.44a3.86,3.86,0,0,1,3.66,3.94L52.11,35a3.86,3.86,0,0,1-1.49,3L34.14,50.75a3.86,3.86,0,0,1-2.72.8L3.51,49A3.86,3.86,0,0,1,0,45.06L.66,14.7A3.86,3.86,0,0,1,2.43,11.54Z"/><path class="cls-3" d="M49.37,3.95,33.75,15.18c-.18.12-1.57,1.27-6.09,1.17-1.33,0-2.49.12-1.58.24,1.41.19,5.54-.21,6.53.68a2.72,2.72,0,0,1,.66,2.29l-.48,27.88c0,2.12.1,4.08-2.15,4a5.18,5.18,0,0,0,4.51-1.39L51.25,37.43a2.17,2.17,0,0,0,.84-1.66l.65-30A2.17,2.17,0,0,0,49.37,3.95Z"/><path class="cls-4" d="M41.44,20.5c-.05,2.37-1.18,5.15-2.52,6.22s-2.39,0-2.34-2.35,1.18-5.15,2.52-6.22S41.49,18.13,41.44,20.5Z"/><path class="cls-4" d="M51.17,12.77C51.12,15.14,50,17.92,48.64,19s-2.39,0-2.34-2.35,1.18-5.15,2.52-6.22S51.22,10.4,51.17,12.77Z"/><path class="cls-4" d="M46.12,25.21c-.05,2.37-1.18,5.15-2.52,6.22s-2.39,0-2.34-2.35,1.18-5.15,2.52-6.22S46.17,22.84,46.12,25.21Z"/><path class="cls-4" d="M41.07,37.65C41,40,39.89,42.8,38.55,43.87s-2.39,0-2.34-2.35,1.18-5.15,2.52-6.22S41.12,35.28,41.07,37.65Z"/><path class="cls-4" d="M50.8,29.92c-.05,2.37-1.18,5.15-2.52,6.22s-2.39,0-2.34-2.35,1.18-5.15,2.52-6.22S50.85,27.55,50.8,29.92Z"/><ellipse class="cls-4" cx="15.92" cy="32.76" rx="5.75" ry="5.38" transform="translate(-17.18 47.97) rotate(-88.76)"/><ellipse class="cls-5" cx="16.3" cy="32.27" rx="5.75" ry="5.38" transform="translate(-16.32 47.87) rotate(-88.76)"/><ellipse class="cls-4" cx="14" cy="9.98" rx="4.26" ry="1.88" transform="translate(-0.82 1.26) rotate(-5.01)"/><ellipse class="cls-4" cx="26.71" cy="7.25" rx="4.26" ry="1.88" transform="translate(-0.53 2.36) rotate(-5.01)"/><ellipse class="cls-6" cx="14" cy="10.39" rx="4.26" ry="1.88" transform="translate(-0.86 1.26) rotate(-5.01)"/><ellipse class="cls-6" cx="26.7" cy="7.67" rx="4.26" ry="1.88" transform="translate(-0.57 2.36) rotate(-5.01)"/><ellipse class="cls-4" cx="39.41" cy="4.53" rx="4.26" ry="1.88" transform="translate(-0.24 3.46) rotate(-5.01)"/><ellipse class="cls-6" cx="39.4" cy="4.94" rx="4.26" ry="1.88" transform="translate(-0.28 3.46) rotate(-5.01)"/><path class="cls-6" d="M40.94,20.49c-.05,2.37-1.18,5.15-2.52,6.22s-2.39,0-2.34-2.35,1.18-5.15,2.52-6.22S41,18.12,40.94,20.49Z"/><path class="cls-6" d="M50.67,12.76c-.05,2.37-1.18,5.15-2.52,6.22s-2.39,0-2.34-2.35S47,11.47,48.33,10.4,50.72,10.39,50.67,12.76Z"/><path class="cls-6" d="M45.62,25.2c-.05,2.37-1.18,5.15-2.52,6.22s-2.39,0-2.34-2.35,1.18-5.15,2.52-6.22S45.67,22.83,45.62,25.2Z"/><path class="cls-6" d="M40.57,37.64C40.52,40,39.39,42.79,38,43.86s-2.39,0-2.34-2.35,1.18-5.15,2.52-6.22S40.62,35.27,40.57,37.64Z"/><path class="cls-6" d="M50.3,29.9c-.05,2.37-1.18,5.15-2.52,6.22s-2.39,0-2.34-2.35,1.18-5.15,2.52-6.22S50.35,27.54,50.3,29.9Z"/></g></g></svg>