<svg xmlns="http://www.w3.org/2000/svg" viewBox="0 0 95.16 57.27"><defs><style>.cls-1{fill:#00364b;}.cls-2{fill:#ff9947;}.cls-3{fill:#3c9195;}.cls-4{fill:#006464;}.cls-5{fill:#ffcd32;}.cls-6{fill:#bebebe;}.cls-7{fill:#e0e0e0;}.cls-10,.cls-11,.cls-8,.cls-9{fill:none;stroke-miterlimit:10;}.cls-8,.cls-9{stroke:#ff9947;}.cls-10,.cls-8{stroke-linecap:round;}.cls-10,.cls-11{stroke:#006464;}</style></defs><title>資產 16</title><g id="圖層_2" data-name="圖層 2"><g id="content"><path class="cls-1" d="M46.32,54.81,85.48,36s16.45-6,6.45-12.63c-10.28-6.85-22.81-10-22.81-10L.29,42.54s1,1.56,6.21,5.38C20,57.8,36.73,59.41,46.32,54.81Z"/><ellipse class="cls-2" cx="66.2" cy="9.78" rx="8.68" ry="10" transform="translate(2.06 28.88) rotate(-24.99)"/><ellipse class="cls-2" cx="58.34" cy="13.44" rx="7.45" ry="10.11" transform="translate(-0.22 25.9) rotate(-24.99)"/><rect class="cls-2" x="52.34" y="7.31" width="19.96" height="8.56" transform="translate(46.5 -49.79) rotate(65.01)"/><ellipse class="cls-2" cx="60.09" cy="12.62" rx="8.79" ry="10.13" transform="translate(0.29 26.56) rotate(-24.99)"/><ellipse class="cls-3" cx="16.4" cy="32.99" rx="7.45" ry="10.11" transform="translate(-12.4 10.01) rotate(-24.99)"/><rect class="cls-2" x="28.13" y="-1.3" width="20.22" height="48.21" transform="translate(42.76 -21.49) rotate(65.01)"/><ellipse class="cls-4" cx="20.11" cy="31.25" rx="7.8" ry="10.12" transform="translate(-11.32 11.42) rotate(-24.99)"/><polygon class="cls-4" points="24.3 40.51 15.75 22.18 3.72 27.74 12.26 46.07 24.3 40.51"/><ellipse class="cls-5" cx="7.99" cy="36.9" rx="7.45" ry="10.11" transform="translate(-14.84 6.83) rotate(-24.99)"/><ellipse class="cls-2" cx="7.2" cy="37.27" rx="5.82" ry="8.25" transform="translate(-15.07 6.53) rotate(-24.99)"/><ellipse class="cls-6" cx="7.86" cy="36.92" rx="5.46" ry="8.2" transform="translate(-14.86 6.78) rotate(-24.99)"/><ellipse class="cls-1" cx="6.54" cy="37.54" rx="2.96" ry="3.42" transform="translate(-15.25 6.27) rotate(-24.99)"/><rect class="cls-1" x="2.43" y="37.1" width="6.82" height="1.54" transform="translate(37.69 16.58) rotate(65.01)"/><ellipse class="cls-7" cx="5.2" cy="38.16" rx="2.51" ry="3.41" transform="translate(-15.63 5.77) rotate(-24.99)"/><line class="cls-8" x1="21.39" y1="34.43" x2="21.39" y2="37.65"/><line class="cls-8" x1="20.23" y1="36.76" x2="22.51" y2="35.53"/><ellipse class="cls-9" cx="21.34" cy="36.1" rx="3.89" ry="2.36" transform="translate(-19.52 45.56) rotate(-72.45)"/><line class="cls-10" x1="69.39" y1="12.43" x2="69.39" y2="15.65"/><ellipse class="cls-11" cx="69.34" cy="14.1" rx="3.89" ry="2.36" transform="translate(34.98 75.96) rotate(-72.45)"/></g></g></svg>