<svg xmlns="http://www.w3.org/2000/svg" viewBox="0 0 247.92 89.58"><defs><style>.cls-1{fill:#6bffba;}.cls-2{fill:#00364b;}</style></defs><title>資產 4</title><g id="圖層_2" data-name="圖層 2"><g id="圖層_1-2" data-name="圖層 1"><path class="cls-1" d="M24.74,0H223.18a24.74,24.74,0,0,1,24.74,24.74h0a24.74,24.74,0,0,1-24.74,24.74H24.74A24.74,24.74,0,0,1,0,24.74H0A24.74,24.74,0,0,1,24.74,0Z"/><path class="cls-2" d="M28.38,28.67a25.36,25.36,0,0,1-.93,4.69,7,7,0,0,0-1.34-.49A20,20,0,0,0,27,28.4Zm3.86-5.48a17.85,17.85,0,0,1,1.37,3.86l-1.31.5c-.06-.25-.11-.54-.21-.88-4.23.65-4.87.8-5.25,1a11.71,11.71,0,0,0-.54-1.5,3.7,3.7,0,0,0,1.47-1.32,20.75,20.75,0,0,0,1.47-2,8.79,8.79,0,0,0-2.52.44c-.1-.33-.35-1.09-.52-1.5a2.42,2.42,0,0,0,1.06-1A23.63,23.63,0,0,0,29.71,16l1.54.63a32,32,0,0,1-2.86,5l1.79-.13c.51-.87,1-1.81,1.45-2.7l1.42.86a38.59,38.59,0,0,1-4.25,6.22l2.9-.38A18.08,18.08,0,0,0,31,23.68Zm-1.87,5.14a38.23,38.23,0,0,1,.53,4.08l-1.37.35a37,37,0,0,0-.45-4.13Zm2-.5a26.76,26.76,0,0,1,1.14,3.69L32.26,32a31.68,31.68,0,0,0-1.08-3.78Zm11.52,4.68H36.23v1.36H34.59V23.19a11.9,11.9,0,0,1-1.06,1.36,10.43,10.43,0,0,0-.83-1.68A20,20,0,0,0,36.12,16l1.71.51a28.32,28.32,0,0,1-1.16,2.88h2.77a20.34,20.34,0,0,0-1.22-2.75L39.74,16A18.55,18.55,0,0,1,41,18.73l-1.5.7h4.09v1.64H40.45v2.1h2.79v1.64H40.45v2.12h2.83v1.62H40.45v2.28H44V32.5Zm-7.65-1.7h2.57V28.53H36.24Zm2.59-6H36.26v2.12h2.57Zm0-3.74H36.26v2.1h2.57Z"/><path class="cls-2" d="M55.63,26l-1.93.6V31.7A1.61,1.61,0,0,1,53,33.35a5.57,5.57,0,0,1-2.53.34A6.56,6.56,0,0,0,50,32h1.73a.28.28,0,0,0,.33-.35V27l-2.28.71L49.36,26c.74-.19,1.68-.44,2.69-.75V21.42h-2.4v-1.7H52V16h1.66v3.76h1.83v1.7H53.71v3.35l1.7-.5Zm11.82-7.55V20.1H62.56v2h4v1.66H56.82V22.1h4v-2h-5V18.4h5V16.1h1.73v2.3ZM65,25.72h2.3V27.4H65v4.54c0,1-.2,1.46-.82,1.73a8.69,8.69,0,0,1-3,.28,6.76,6.76,0,0,0-.54-1.72H63c.3,0,.37-.1.37-.35V27.36H56.07V25.7h7.27V24.16h1.71V25.7Zm-6.32,2A34.16,34.16,0,0,1,60.88,31l-1.52.87a27,27,0,0,0-2.07-3.44Z"/><path class="cls-2" d="M79.77,20.87a26.39,26.39,0,0,1-2.13,3V34H75.83V25.88a25.82,25.82,0,0,1-1.93,1.75,10.07,10.07,0,0,0-1.24-1.54,20.69,20.69,0,0,0,5.42-5.83ZM79,16.78a25.71,25.71,0,0,1-5.16,4.91,8.3,8.3,0,0,0-1-1.47A17.63,17.63,0,0,0,77.34,16ZM90.7,24.31H88v7.5c0,1-.24,1.56-1,1.85a12.19,12.19,0,0,1-3.68.28,7.3,7.3,0,0,0-.58-1.81h2.9c.35,0,.49-.1.49-.37V24.28H79.92V22.55H90.73v1.73ZM90.18,19H80.73V17.26h9.45Z"/><path class="cls-2" d="M113.81,20.65v.84c-.24,8-.43,10.81-1.06,11.65a1.73,1.73,0,0,1-1.39.83,13.92,13.92,0,0,1-2.4,0,4.77,4.77,0,0,0-.5-1.72c.9.08,1.7.08,2,.08a.73.73,0,0,0,.7-.31c.43-.54.64-3,.82-9.72h-2.3c-.27,5.18-1.16,9.31-4.53,11.87a6.12,6.12,0,0,0-1.3-1.35l.35-.27c-2.81.32-5.61.6-7.7.79l-.23-1.54c1.13-.07,2.53-.19,4.07-.32V30H96.79V28.67h3.55v-1H97V21.8h3.49v-1h-4V19.46h4V18.4c-1.19.09-2.38.15-3.47.18a5.38,5.38,0,0,0-.42-1.31,60.72,60.72,0,0,0,8.36-.92l.85,1.37a35.38,35.38,0,0,1-3.67.53V19.5H106v1.13h2V16.46h1.73c0,1.44,0,2.84,0,4.17h4ZM100.4,26.5V25.31h-2V26.5Zm-2-2.31h2V23h-2ZM102,31.34c1.21-.11,2.46-.22,3.68-.36,1.61-2.2,2.1-5.14,2.27-8.68h-2V20.84h-3.86v1h3.63v5.87H102.1v1h3.66V30H102v1.3Zm0-6v1.19h2.08V25.34Zm2.09-1.1V23h-2.08v1.19Z"/><path class="cls-2" d="M136.59,20.4v.9c-.46,7.89-.84,10.77-1.7,11.76a2.37,2.37,0,0,1-1.8.89,23,23,0,0,1-3.1,0,4.57,4.57,0,0,0-.64-1.87c1.29.12,2.47.13,3,.13a1.09,1.09,0,0,0,.9-.29c.66-.62,1.08-3.29,1.44-9.66h-6.1c-.31,4-1.65,8.72-7.2,12a7.64,7.64,0,0,0-1.4-1.47,12.51,12.51,0,0,0,6.67-10.52h-6V20.4h6.14V16.31h1.91V20.4Z"/><path class="cls-2" d="M160.43,19.4v.86c-.31,8.79-.55,11.81-1.33,12.78a2.18,2.18,0,0,1-1.7.91,20.88,20.88,0,0,1-2.94,0,4.25,4.25,0,0,0-.58-1.76c1.25.1,2.38.13,2.86.13a.87.87,0,0,0,.82-.33c.63-.64.89-3.58,1.17-10.93h-4.6a19.61,19.61,0,0,1-1.79,3.27,9.56,9.56,0,0,0-1.42-1v8.94h-5.28v1.48H144V19.4h2.18a23.08,23.08,0,0,0,.69-3.16l2,.34c-.33,1-.71,2-1,2.82H151v3.68a18.61,18.61,0,0,0,2.93-6.83l1.75.42c-.24.9-.49,1.79-.81,2.65ZM149.22,30.62V26.31H145.6v4.31ZM145.63,21v3.7h3.62V21Zm10.08,8.1a31.72,31.72,0,0,0-2.83-4.51l1.43-.79a35.07,35.07,0,0,1,2.93,4.36Z"/><path class="cls-2" d="M172.12,28.52c-.23-.55-.7-1.5-1.12-2.36v8.16h-1.68V27a18.55,18.55,0,0,1-2.1,4.08,10.1,10.1,0,0,0-.91-1.78,19.76,19.76,0,0,0,2.83-5.7h-2.32V21.91h2.51V19.12c-.64.13-1.29.25-1.89.34a10.07,10.07,0,0,0-.5-1.41,24.61,24.61,0,0,0,5.17-1.52L173.19,18a15.18,15.18,0,0,1-2.18.71v3.2h2.16v1.68H171V24c.48.63,1.86,2.56,2.19,3.09a27.23,27.23,0,0,0,.82-4.69l1.36.34a25,25,0,0,1-1.27,6.21l-1.4-.49a13.22,13.22,0,0,0,.47-1.32Zm8.58,4c.62,0,.72-.48.83-2.78a4.58,4.58,0,0,0,1.54.71c-.2,2.8-.64,3.66-2.22,3.66h-2.44c-1.71,0-2.2-.5-2.25-2.21a20.53,20.53,0,0,1-2.29,2,8.39,8.39,0,0,0-1.46-1.23,17.76,17.76,0,0,0,3.75-3.49v-8.4H178v6a33,33,0,0,0,3.74-9.09l1.73.34a47.35,47.35,0,0,1-1.91,5.53l1.21-.33a27.44,27.44,0,0,1,1.77,5.68l-1.66.46A28,28,0,0,0,181.31,24a29.5,29.5,0,0,1-3.37,5.85v1.73c0,.8.09.94.76.94h2.07Zm-1.36-12a28.12,28.12,0,0,0-3.59-2.92l1.08-1.22a25.59,25.59,0,0,1,3.67,2.76Z"/><path class="cls-2" d="M197,21.21h-7.07V19.77H197Zm-.84,12.06h-4v.84h-1.54V27.56h5.53Zm-5.46-8.36h5.5v1.4h-5.5Zm0-2.55h5.5v1.4h-5.5v-1.4ZM193,19.74a15,15,0,0,0-1.1-2.62l1.54-.52a13.43,13.43,0,0,1,1.18,2.56ZM192.13,29V31.8h2.46V29h-2.46Zm10-2a9.76,9.76,0,0,1-4.61,7.37A7.44,7.44,0,0,0,196.2,33a8.47,8.47,0,0,0,4.08-6H197V25.28h3.53c0-.56.06-1.17.07-1.75V21.4h-3.08V19.7h3.08v-3h1.81v3h3.9v5.61h1.32V27Zm.23-3.47v1.75h2.22V21.4H202.4v2.16Zm1.78,3.88c1.18,1.91,2.73,4.49,3.5,6l-1.64.83a68.54,68.54,0,0,0-3.35-6.19Z"/><path class="cls-2" d="M222.21,22.08c0-1.27-1-2.11-2.74-2.12A4.53,4.53,0,0,0,216,21.6l-1.28-1.2a6.44,6.44,0,0,1,5-2.3c2.77,0,4.67,1.38,4.66,3.78,0,2.9-4.49,3.37-4.09,6.22h-2C217.79,24.93,222.2,24.15,222.21,22.08Zm-2.89,7.59a1.71,1.71,0,1,1-1.76,1.69,1.67,1.67,0,0,1,1.65-1.69h.11Z"/><path class="cls-1" d="M154,49.4,161.47,86c1,4.86,4.64,4.73,5.54-.19l6.72-36.61c.67-3.65-.76-7.46-2.79-7.46H156.69C154.61,41.72,153.18,45.69,154,49.4Z"/></g></g></svg>