<svg xmlns="http://www.w3.org/2000/svg" viewBox="0 0 188 75.81"><defs><style>.cls-1{fill:#00364b;}.cls-2{fill:#e0e0e0;}.cls-3{fill:#ff665c;}</style></defs><title>資產 138</title><g id="圖層_2" data-name="圖層 2"><g id="小物"><path class="cls-1" d="M49.32,45.69,122.46,3.92A5.54,5.54,0,0,1,127.64,3l58.67,17.12c2.15.91,2.27,2.89.25,4.38,0,0-67.69,39.58-69.5,40.64-4.77,2.82-6.54,3.17-11.28,1.68C102.7,65.86,49,50.06,49,50.06,47,49.44,47.19,46.51,49.32,45.69Z"/><path class="cls-2" d="M49.44,45.09,120.78,1.24a5.22,5.22,0,0,1,5.1-1l58.46,17.53c2.15.94,2.32,3,.36,4.56,0,0-66,41.53-67.75,42.65-4.65,3-6.4,3.33-11.11,1.8-3.09-1-56.55-17.18-56.55-17.18C47.25,49,47.36,46,49.44,45.09Z"/><path class="cls-3" d="M110.2,62.7a10.4,10.4,0,0,1-2.84-.64c-2.51-.81-36.85-11.22-50.84-15.46L123.4,5.5l.2-.13c.28-.19.45-.3.56-.36l.41.08,53,15.88L114.26,60.8C111.76,62.39,110.88,62.7,110.2,62.7Z"/><path class="cls-1" d="M26.85,50,94.66,4.65a5,5,0,0,1,4.92-1.12l57.19,15.21c2.11.85,2.33,2.86.48,4.46,0,0-62.7,42.94-64.37,44.1-4.41,3.05-6.1,3.48-10.72,2.14-3-.88-55.33-14.93-55.33-14.93C24.85,53.95,24.86,51,26.85,50Z"/><path class="cls-2" d="M26.1,50.1,91.74,1.43A4.62,4.62,0,0,1,96.55.21l56.71,16.06c2.1.9,2.37,3,.59,4.76,0,0-60.67,46-62.29,47.28-4.27,3.27-5.92,3.73-10.5,2.32-3-.92-54.87-15.77-54.87-15.77C24.22,54.27,24.16,51.09,26.1,50.1Z"/><path class="cls-3" d="M85,66.38a9.7,9.7,0,0,1-2.47-.53c-2.48-.77-36.75-10.58-49.93-14.35L94.72,5.45l.51-.4.09,0,51.93,14.7c-13.16,10-57.33,43.5-58.73,44.58C86.06,66.23,85.44,66.38,85,66.38Z"/><path class="cls-1" d="M4.2,63.79,53.55,14.34c1.32-1.46,2.22-2.13,4.48-2L113.63,18c2.09.51,2.54,2.53,1,4.5,0,0-44.85,46-46.28,47.53-3.77,3.91-5.3,4.64-9.81,4.07-2.95-.37-53.82-5.71-53.82-5.71C2.79,68.15,2.44,65.08,4.2,63.79Z"/><path class="cls-2" d="M1.12,63.67l49.17-52.9c1.32-1.56,2.21-2.28,4.5-2.12l56.29,6.93c2.12.58,2.61,2.78,1.08,4.89,0,0-44.68,49.27-46.1,50.85-3.76,4.18-5.29,5-9.85,4.27-3-.45-54.49-6.94-54.49-6.94C-.24,68.38-.64,65,1.12,63.67Z"/><path class="cls-3" d="M58.68,70.81a12.06,12.06,0,0,1-1.7-.16C54.51,70.28,20.56,66,7.44,64.33L54.11,14.12l.4-.46L105.76,20C96.19,30.52,63.42,66.66,62.19,68,59.69,70.81,59.29,70.81,58.68,70.81Z"/><path class="cls-3" d="M58.68,70.81a12.06,12.06,0,0,1-1.7-.16C54.51,70.28,20.56,66,7.44,64.33L54.11,14.12l.4-.46L105.76,20C96.19,30.52,63.42,66.66,62.19,68,59.69,70.81,59.29,70.81,58.68,70.81Z"/></g></g></svg>