<svg xmlns="http://www.w3.org/2000/svg" viewBox="0 0 294.24 89.55"><defs><style>.cls-1{fill:#6bffba;}.cls-2{fill:#00364b;}</style></defs><title>資產 186</title><g id="圖層_2" data-name="圖層 2"><g id="對話框"><rect class="cls-1" width="294.24" height="49.48" rx="24.74" ry="24.74"/><path class="cls-2" d="M39,25.08A16.69,16.69,0,0,1,37.36,30c.29.18.64.39,1.09.65,1.34.77,3.19.89,5.41.9a63.92,63.92,0,0,0,7.91-.5,9.51,9.51,0,0,0-.71,2.45c-1.58.11-5,.21-7.31.21-2.55,0-4.21-.23-5.63-1-.82-.43-1.48-1-1.89-1s-1.17,1.26-1.7,2.31L33,31.7a7.47,7.47,0,0,1,1.86-1.63,11.59,11.59,0,0,0,1.63-3.5H33.79c.51-1.15,1.1-2.71,1.61-4.22H33.45V20.27l4.89,0c-.47,1.38-1,2.94-1.55,4.28h.51l.35-.06ZM35.7,19.75c-.33-.9-1-2.32-1.43-3.38l2-.73c.48,1.07,1.12,2.38,1.49,3.22Zm15.53,0-12.39,0V17.91l5.16,0a14.79,14.79,0,0,0-.83-1.66l2.24-.69a16.56,16.56,0,0,1,1.14,2.11l-.78.25,5.46,0ZM40,25.51l9.74,0,0,4.93-9.74,0ZM40.23,23l9.35,0v1.64l-9.35,0Zm9.36-.84-9.35,0V20.47l9.35,0Zm-7.43,6.66,5.3,0V27.18l-5.3,0Z"/><path class="cls-2" d="M74.35,32.5l-7.44,0V34H64.62V32.46l-7.46,0V30.91l7.46,0v-.62l-5.57,0,0-4.58,5.57,0v-.56l-6.7,0V23.69H60a10,10,0,0,0-.74-.9,4.86,4.86,0,0,0,2.89-.94c-1.77.13-3.51.22-4.89.29l-.13-1.34c1.5-.05,3.53-.12,5.63-.23a3.86,3.86,0,0,0,0-.49v0l-4.62,0V18.78l4.62,0v-.62l-5.07,0V16.85l5.07,0v-1h2.08l0,4.27a3.77,3.77,0,0,1-2.37,3.6h2.12V22.66h2.1l0-6.8h2.12v1l5.11,0v1.31l-5.11,0v.63l4.77,0V20.1l-4.77,0v.62l5.48,0V22L68.9,22V23.3H66.94v.43l6.82,0v1.46l-6.82,0v.56l5.83,0,0,4.58-5.83,0V31l7.44,0Zm-9.71-3.29v-.64H61.25v.64Zm-3.38-1.73h3.39v-.62H61.26Zm9.23,1.11H66.92v.64h3.57Zm-3.56-1.71v.62h3.57v-.62Z"/><path class="cls-2" d="M98,26.7l-7.56,0,0,4.7c0,1.3-.3,1.95-1.22,2.31a11.69,11.69,0,0,1-4.07.39,9.33,9.33,0,0,0-1-2.4c1.36.08,2.88.09,3.29.07s.56-.12.57-.45l0-4.64-7.72,0V24.32l7.72,0V21.64a24.24,24.24,0,0,0,3.77-2.29l-9.55,0V17l12.14,0,.55-.12,1.75,1.35a29.07,29.07,0,0,1-6.25,4.58v1.48l7.56,0Z"/><path class="cls-2" d="M109.11,16.69a39.54,39.54,0,0,1-1.57,3.93l-.05,13.56h-2.12l0-9.74A18.8,18.8,0,0,1,104.21,26a15.69,15.69,0,0,0-1.12-2.52A21.2,21.2,0,0,0,107,16Zm11.63,4.9A24.36,24.36,0,0,1,119,29.27a8.38,8.38,0,0,0,2.75,3.07,9.41,9.41,0,0,0-1.39,1.83,9.67,9.67,0,0,1-2.52-2.87,10.48,10.48,0,0,1-2.93,2.85,12.46,12.46,0,0,0-1.38-1.56,9.4,9.4,0,0,0,.78-.52h-3.72v1.38h-2l0-8.63h1.95V21.62h-2.24V19.53h2.24V16.27h2.18v3.27h2v2.08h-2v3.18h1.48c-.17-.26-.35-.49-.47-.65,1.35-1.92,2.1-5,2.52-8.12l2.06.36c-.18,1.07-.38,2.18-.62,3.21l4,0v1.95Zm-8.17,5.19h-2V30.1h2Zm2,5.05a9.3,9.3,0,0,0,2.23-2.62,22.41,22.41,0,0,1-1.13-4.13,8.44,8.44,0,0,1-.69,1.07,5.78,5.78,0,0,0-.39-.68Zm2.57-10.26-.18.56a26.86,26.86,0,0,0,.9,4.52,26.5,26.5,0,0,0,.92-5.08Z"/><path class="cls-2" d="M132.33,25.19a24.06,24.06,0,0,1-1.54,5.06c.31.2.68.47,1.19.78,1.34.8,3.17.93,5.45.94a66.15,66.15,0,0,0,7.89-.48,8.39,8.39,0,0,0-.69,2.37c-1.6.09-5,.21-7.33.21-2.59,0-4.23-.23-5.63-1.05-.82-.45-1.52-1.1-1.91-1.1s-1.15,1.32-1.65,2.43l-1.53-2.21a8.89,8.89,0,0,1,2.05-1.86,19,19,0,0,0,1.14-3.37h-2.46c.45-1.15,1-2.71,1.42-4.22H127V20.61l4.56,0c-.41,1.36-.89,2.92-1.36,4.28h.8l.35-.08Zm-3.25-5.14c-.21-.88-.73-2.28-1.06-3.36l2-.62c.37,1.05.87,2.36,1.14,3.24Zm5.69,11.05h-2l0-8.48h1.44l0-6,8.4,0,0,6h1.42l0,6.51c0,.92-.16,1.4-.77,1.71a5.57,5.57,0,0,1-2.42.3,6.15,6.15,0,0,0-.5-1.68h-2.92v.6h-1.66l0-4.91,5.09,0,0,4.19h.8c.21,0,.27-.06.27-.25l0-4.73-7.15,0Zm1.47-8.47h1.09V19.58h3.22V18.4l-4.31,0Zm2.95,4h-1.75V28h1.75ZM140.55,21H139v1.62h1.54Z"/><path class="cls-2" d="M167.57,26.59a11.86,11.86,0,0,1-2.41,4.49,10.94,10.94,0,0,0,3.33,1.38,7.64,7.64,0,0,0-1.37,1.79,10.71,10.71,0,0,1-3.5-1.73,12.88,12.88,0,0,1-3.42,1.86,8.54,8.54,0,0,0-1.14-1.72v1.73h-2.16V32.71c-2.26.24-4.52.45-6.28.64l-.17-2,1.7-.13,0-5.9h-1.52V23.49l17.3.06v1.83l-8.87,0,0,7.17A9.72,9.72,0,0,0,162,31.05a11.88,11.88,0,0,1-1.86-3l.7-.19h-1.17V26.09l6.08,0,.37-.08ZM155.16,22.9h-2.22l0-6.1,12.8,0,0,6.1H163.4l0-4.5-8.24,0ZM154.21,31c.86-.07,1.79-.15,2.69-.24v-.68h-2.69Zm0-2.53h2.69v-.78h-2.69Zm0-3.18v.8h2.69v-.8Zm8.46-4.86-6.92,0V19.1l6.92,0Zm-6.91,2.06V21.19l6.9,0v1.34Zm6.39,5.34a7.54,7.54,0,0,0,1.32,1.84,7.3,7.3,0,0,0,1.27-1.83Z"/><path class="cls-2" d="M181,17.79a22.19,22.19,0,0,1-1.82,2.29,13.8,13.8,0,0,1,1.26,6.63c0,2.67-.25,5.24-1.17,6.43a2.09,2.09,0,0,1-1.25.79,9.06,9.06,0,0,1-2.69.15,4.63,4.63,0,0,0-.65-2.3,14.39,14.39,0,0,0,2.24,0,.81.81,0,0,0,.62-.35c.39-.54.57-2.34.6-4.56a17.08,17.08,0,0,1-3.09,3,10.41,10.41,0,0,0-1.3-2,12,12,0,0,0,4.21-4.19,10.38,10.38,0,0,0-.5-1.89,23.27,23.27,0,0,1-2.54,2.1,9.66,9.66,0,0,0-1.32-2.05,17.14,17.14,0,0,0,2.81-2,10.6,10.6,0,0,0-1.94-2.05l1.68-1.28a11.32,11.32,0,0,1,1.82,1.78,13.24,13.24,0,0,0,1.29-1.63Zm10.71,13.72v2.2l-11.36,0v-2.2l4.75,0,0-5h-3.62V24.3h3.62l0-4.46h-3.86v-2.2l10.17,0v2.2h-3.92l0,4.46h3.74v2.18h-3.74l0,5Z"/><path class="cls-2" d="M214.72,19.4s0,.78,0,1.05c-.29,8.71-.51,11.81-1.31,12.84a2.6,2.6,0,0,1-1.87,1.06,21.72,21.72,0,0,1-3.06,0,5.46,5.46,0,0,0-.75-2.26c1.25.12,2.4.13,2.9.13a1,1,0,0,0,.86-.33c.57-.62.83-3.54,1.07-10.42l-4.17,0a16.84,16.84,0,0,1-1.73,3.07,14.57,14.57,0,0,0-1.5-1.1l0,9.1-5.2,0V34h-2.1l.05-14.48H200a20.72,20.72,0,0,0,.58-3.13l2.53.36c-.34,1-.69,1.95-1,2.78h3v3.16a20.18,20.18,0,0,0,2.65-6.26l2.2.51a22.58,22.58,0,0,1-.77,2.47ZM203,30.5V26.68h-3.1v3.82Zm0-9h-3.1v3.16H203Zm6.44,8A41.67,41.67,0,0,0,206.78,25l1.82-1a47.44,47.44,0,0,1,2.85,4.34Z"/><path class="cls-2" d="M238.45,29.27h-2v3.39h-2.36v-.8h-3.51v.6c0,1.15-.28,1.62-1,1.95a10.28,10.28,0,0,1-3.45.32,7.17,7.17,0,0,0-.75-1.84c.93,0,2.08,0,2.4,0s.49-.13.49-.49v-.6l-5.92,0V30.13l5.92,0v-.92l-7.72,0V27.43l7.72,0v-.84l-5.77,0V25l5.77,0V24.2l-5.28,0V20.33l5.28,0v-.8l-7.27,0V17.69l7.27,0V16.45h2.36v1.27l7.44,0v1.83l-7.44,0v.8l5.53,0v3.86l-5.53,0v.86l5.87,0v2.4h2Zm-10.22-6.53v-.94h-3.06v.94Zm5.84,6.51h-3.51v.92h3.51Zm-3.5-1.79h3.51v-.84h-3.51Zm0-5.65v.94h3.16v-.94Z"/><path class="cls-2" d="M243.57,25.43a27.41,27.41,0,0,0,1-5.08l1.75.26a30.75,30.75,0,0,1-.94,5.47Zm18.27-2.7v1.66l-11.92,0V22.71l-.45.25a16.2,16.2,0,0,0-.77-2.09l-.05,13.82h-2.12l.07-18.18h2.12v3.06l1-.46c.46,1,1.08,2.27,1.33,3l-1.07.56,4.68,0v-.84H251V20.3h3.6v-.78l-4.29,0V17.86l4.29,0V16.55H257v1.33l4.29,0v1.66l-4.29,0v.78h3.68v1.56H257v.84Zm-1.07,9.84c0,1-.2,1.56-.92,1.87a7.27,7.27,0,0,1-3,.32,8.53,8.53,0,0,0-.62-2c.8.06,1.71,0,2,0s.35-.08.35-.31v-.66l-5.79,0a7.2,7.2,0,0,1-1.43,3.07,9.62,9.62,0,0,0-1.65-1.54,7.41,7.41,0,0,0,1.23-4.75V25.09l9.86,0Zm-2.19-2.31v-.9l-5.51,0c0,.29,0,.58,0,.9Zm-5.48-3.55v1l5.5,0v-1Z"/><path class="cls-1" d="M148.1,49.37,155.62,86c1,4.86,4.64,4.73,5.54-.19l6.72-36.61c.67-3.65-.76-7.46-2.79-7.46H150.86C148.78,41.72,147.35,45.69,148.1,49.37Z"/></g></g></svg>