<svg xmlns="http://www.w3.org/2000/svg" viewBox="0 0 134.64 65.99"><defs><style>.cls-1{fill:#00364b;}.cls-2,.cls-3,.cls-5,.cls-7{fill:none;}.cls-2{stroke:#00364b;}.cls-2,.cls-3{stroke-miterlimit:10;stroke-width:0.89px;}.cls-3{stroke:#bebebe;}.cls-4{fill:#bebebe;}.cls-5,.cls-7{stroke:#004864;stroke-linecap:round;stroke-linejoin:round;}.cls-5{stroke-width:0.87px;}.cls-6{fill:#004864;}</style></defs><title>資產 10</title><g id="圖層_2" data-name="圖層 2"><g id="content"><path class="cls-1" d="M98.83,31.81h4.1l2.32,4h2.12l13.37,28.76,13.9-.93L122.44,34.1l1.91-.24-1.46-4.43h3.49s1.84-.22,1.65-3.57-3.15-14.76-3.15-14.76l-42,2.13L94.74,29.72A5,5,0,0,0,98.83,31.81Z"/><path class="cls-2" d="M78.38,14.24C80,17.15,85,17.49,89.42,15s6.77-6.88,5.14-9.8"/><path class="cls-3" d="M77.86,13.7c1.63,2.92,6.57,3.26,11,.76S95.67,7.58,94,4.66"/><path class="cls-1" d="M66.89,8.6c-13,0-23.57,4.84-23.57,10.81S53.87,30.22,66.89,30.22s23.57-4.84,23.57-10.81S79.9,8.6,66.89,8.6Zm10.55,9c-2.53,0-4.58-1-4.58-2.18s2.05-2.18,4.58-2.18,4.58,1,4.58,2.18S80,17.6,77.44,17.6Z"/><path class="cls-1" d="M5.46,44,1,41.41a1.91,1.91,0,0,1,.37-3.48L55.81,19.5a1.91,1.91,0,0,1,1.38.09l6.74,3.15a1.91,1.91,0,0,1-.24,3.55L26.92,37.86,22,37.6l-1.28,2.2-2.86.9-6.77,0a.27.27,0,0,0-.16.5l1,.67a.44.44,0,0,1-.12.79L7,44.12A1.91,1.91,0,0,1,5.46,44Z"/><path class="cls-4" d="M5.46,41.58,1,39a1.91,1.91,0,0,1,.37-3.48L55.81,17.11a1.91,1.91,0,0,1,1.38.09l6.74,3.15a1.91,1.91,0,0,1-.24,3.55L26.92,35.47,22,35.21l-1.28,2.2-2.86.9-6.77,0a.27.27,0,0,0-.16.5l1,.67a.44.44,0,0,1-.12.79L7,41.74A1.91,1.91,0,0,1,5.46,41.58Z"/><path class="cls-4" d="M66.89,6.47c-13,0-23.57,4.84-23.57,10.81S53.87,28.09,66.89,28.09s23.57-4.84,23.57-10.81S79.9,6.47,66.89,6.47Zm10.55,9c-2.53,0-4.58-1-4.58-2.18s2.05-2.18,4.58-2.18,4.58,1,4.58,2.18S80,15.47,77.44,15.47Z"/><polyline class="cls-5" points="6.01 37.8 8.54 34.71 46.2 22.46"/><path class="cls-6" d="M118.23,5.64,89.32,5.39a4.69,4.69,0,0,1-3.68-2.25C85,1.93,85.59.95,87,1l32.72.5c1.38,0,4.79,6.2,2.34,6.28C120.07,7.82,120.9,5.64,118.23,5.64Z"/><path class="cls-1" d="M126.94,6.79c.19-3.29-1.69-6.17-4.85-6.21L82.9,0a4.34,4.34,0,0,0-4,6.09L95.13,25.75a4,4,0,0,0,3.67,2.39h25.61A4,4,0,0,0,128,25.86Zm-6.08.15-29.13-.5a4.14,4.14,0,0,1-3.28-2.25C87.88,3,88.42,2,89.64,2l29.13.5A4.14,4.14,0,0,1,122,4.77C122.62,6,122.09,7,120.87,6.94Z"/><path class="cls-1" d="M103,27.17l18.31-.23a.54.54,0,0,1,.46.26l3,4.78a.54.54,0,0,1,.08.28v1.07a.54.54,0,0,1-.47.53l-1.91.24a.54.54,0,0,0-.42.76L134.59,62.2a.54.54,0,0,1,0,.23v1.19a.54.54,0,0,1-.38.51l-3.69,1.16L128.4,66a.54.54,0,0,1-.42,0l-1.44-.8a.53.53,0,0,1-.25-.31c-.16-.5-.67-1.77-1.76-1.77s-1.48,1-1.69,1.52a.54.54,0,0,1-.53.35l-1.08,0a.54.54,0,0,1-.48-.34L109.11,35.48a.54.54,0,0,0-.48-.34l-1.84-.07a.54.54,0,0,1-.45-.28L102.54,28A.54.54,0,0,1,103,27.17Z"/><path class="cls-4" d="M103.47,25.34l18.24-.23a.54.54,0,0,1,.51.34l2.35,6a.54.54,0,0,1-.46.73l-1.2.1a.54.54,0,0,0-.45.74l12,28.83a.54.54,0,0,1-.34.72l-5.22,1.54a.54.54,0,0,1-.42,0L125,62.17a.54.54,0,0,0-.58,0l-1.06.79a.54.54,0,0,1-.34.11l-1.29,0a.54.54,0,0,1-.48-.34L109.57,33.66a.54.54,0,0,0-.48-.34l-1.84-.07a.54.54,0,0,1-.45-.28L103,26.14A.54.54,0,0,1,103.47,25.34Z"/><line class="cls-7" x1="111.58" y1="29.05" x2="123.19" y2="59.12"/><line class="cls-7" x1="114.22" y1="29.03" x2="125.84" y2="59.11"/><line class="cls-7" x1="108.97" y1="31.85" x2="107.69" y2="28.84"/><path class="cls-3" d="M94,4.66c-1.63-2.92-6.57-3.26-11-.76s-6.77,6.88-5.14,9.8"/><path class="cls-2" d="M94.56,5.2c-1.63-2.92-6.57-3.26-11-.76s-6.77,6.88-5.14,9.8"/></g></g></svg>