<svg xmlns="http://www.w3.org/2000/svg" viewBox="0 0 221.8 89.55"><defs><style>.cls-1{fill:#6bffba;}.cls-2{fill:#00364b;}</style></defs><title>資產 6</title><g id="圖層_2" data-name="圖層 2"><g id="圖層_1-2" data-name="圖層 1"><g id="對話框"><rect class="cls-1" width="221.8" height="49.48" rx="23.4" ry="23.4"/><path class="cls-2" d="M43.16,26.18a10.88,10.88,0,0,1-2.63,4.47,10.15,10.15,0,0,0,3.58,1.59A6.56,6.56,0,0,0,43,33.68a11.49,11.49,0,0,1-3.73-1.9,13.68,13.68,0,0,1-3.69,2,5.11,5.11,0,0,0-1-1.41v1.46H32.9V32c-2.34.24-4.66.51-6.43.72l-.15-1.6L28.09,31V24.76h-1.6V23.3l17.07.06v1.46h-9v7.54A10.64,10.64,0,0,0,38,30.68a11.12,11.12,0,0,1-2-3.28l.47-.13H35.25V25.85h6.43l.29-.06ZM30.6,22.49H28.9v-6H41.47v6H39.66V17.83h-9Zm-.85,8.34c1-.09,2.11-.21,3.2-.34v-.93h-3.2v1.27Zm0-2.61H33v-1h-3.2v1Zm0-3.49v1.09H33V24.73Zm1.57-3.89h7.42V22H31.32Zm7.41-2V20h-7.4V18.84Zm-1.18,8.39a9,9,0,0,0,1.67,2.38,8.65,8.65,0,0,0,1.72-2.37H37.55Z"/><path class="cls-2" d="M66.73,18.9v4.35H64.9V20.46H52.14v2.72H50.41V18.83h2.88A13.51,13.51,0,0,0,52,16.78l1.64-.64a10.47,10.47,0,0,1,1.53,2.19l-1.15.5h3.63V16h1.87v2.86H63l-1.17-.45a14.87,14.87,0,0,0,1.53-2.25l1.93.63a26.18,26.18,0,0,1-1.8,2.08H66.7ZM65.57,31.29a1.46,1.46,0,0,1-.86,1.63,10.07,10.07,0,0,1-3.14.26,7.74,7.74,0,0,0-.6-1.66h2.34c.28,0,.39-.08.39-.31V28.87h-4v5H57.78v-5H53.47V33H51.64V27.23h6.14V25.81H53.42V21.56H63.67v4.25h-4v1.42h5.92Zm-10.4-6.78h6.66v-1.6H55.17Z"/><path class="cls-2" d="M88.9,32.12c.35,0,.43-.27.5-2.22a4.4,4.4,0,0,0,1.56.73c-.18,2.51-.64,3.16-1.84,3.15H87.6c-1.52,0-1.85-.53-1.84-2.21V27.24H84.47c-.3,3.06-1.07,5.47-4.08,6.84a4.83,4.83,0,0,0-1-1.41c2.56-1.06,3.13-3,3.37-5.44H81.28V21.72a11.37,11.37,0,0,1-.82.83,16.74,16.74,0,0,0-1.34-1.27c.18-.16.35-.31.53-.49H73V19.35h6.82v1.31a13.9,13.9,0,0,0,3-4.29l1.67.53a19.38,19.38,0,0,1-2.78,4.41H89A40,40,0,0,0,85.63,17l1.25-.85A31,31,0,0,1,91,21.4l-1.39,1A7.82,7.82,0,0,0,89,21.35v5.9H87.58v4.31c0,.51.06.57.39.57h.93Zm-9.57.72h-4v.88H73.75V27.13h5.61Zm-5.54-8.36h5.36v1.4H73.79Zm5.36-1.13H73.79V21.93h5.36Zm-3-4a13.61,13.61,0,0,0-1.08-2.62l1.54-.5a14.31,14.31,0,0,1,1.14,2.54Zm-.83,9.27v2.79h2.51V28.62ZM83,25.69h4.15V22.94H83Z"/><path class="cls-2" d="M113.66,19.23v.86c-.31,8.79-.55,11.81-1.33,12.78a2.17,2.17,0,0,1-1.7.91,21,21,0,0,1-2.94,0,4.26,4.26,0,0,0-.58-1.76c1.25.1,2.38.13,2.86.13a.87.87,0,0,0,.82-.33c.63-.64.89-3.58,1.17-10.93h-4.6a19.65,19.65,0,0,1-1.79,3.27,9.5,9.5,0,0,0-1.42-1V32.1H98.87v1.48H97.21l0-14.24h2.18a23.11,23.11,0,0,0,.69-3.15l2,.34c-.33,1-.71,2-1,2.82h3.12V23a18.61,18.61,0,0,0,2.93-6.83l1.75.42c-.24.9-.49,1.79-.81,2.65ZM102.45,30.45V26.14H98.83v4.31Zm-3.59-9.6v3.7h3.62v-3.7H98.86ZM108.94,29a31.67,31.67,0,0,0-2.83-4.51l1.43-.79A35.07,35.07,0,0,1,110.47,28Z"/><path class="cls-2" d="M136.08,18.24,136,33.67h-2V32.13H123.11v1.62h-1.87l.06-15.51Zm-2,12V20H123.17V30.24Z"/><path class="cls-2" d="M151.28,31.47c-2.75.63-5.67,1.29-7.84,1.76l-.42-1.7c1.4-.25,3.33-.63,5.36-1.05l-.78-.22a30.8,30.8,0,0,0,.79-3.91l1.75.42c-.36,1.23-.73,2.59-1.07,3.58l2-.42ZM151,19h-7.68V17.32H151Zm-.45,6.92h-6.7V20.64h6.7Zm-5.67,4.48a13.25,13.25,0,0,0-.69-3.53l1.46-.37a13.36,13.36,0,0,1,.79,3.53Zm4-8.31h-3.53v2.38h3.53Zm6.41,9.63a14,14,0,0,1-4.26,2.54,11.7,11.7,0,0,0-1.2-1.19,11.86,11.86,0,0,0,3.94-2.28Zm-.68-11.34c.12-.53.22-1.09.3-1.62h-3.45V17.18h9.33v1.54H157c-.18.56-.36,1.11-.51,1.62h3.82V30.47H152V20.34h2.63Zm3.87,7.15h-4.85v1.65h4.85V27.54Zm0-2.9h-4.85v1.64h4.85Zm0-2.88h-4.85v1.62h4.85Zm-.56,9.18a24.35,24.35,0,0,1,3.28,2.41l-1.46,1a22.29,22.29,0,0,0-3.21-2.51Z"/><path class="cls-2" d="M172.24,28.49c-.35-.53-1-1.37-1.55-2.13v7.93h-1.58v-7.6a14.28,14.28,0,0,1-2.27,2,7.51,7.51,0,0,0-.66-1.79A14.52,14.52,0,0,0,171,21.34h-4.31V19.7h3.22a12.61,12.61,0,0,0-1.45-2.38l1.19-.85a10,10,0,0,1,1.61,2.44l-1,.79h1.65l.29-.08.88.68a19.26,19.26,0,0,1-2.14,4.12c.68.7,2,2.15,2.33,2.54Zm12.13,3.12h-5.09v2.73h-1.6V31.61h-4.93V30.09h4.93V29h-3.9V22.35h9.53V29h-4v1.13h5.09v1.52ZM178,21.43H173.5V17.16H178Zm-1.45-3H174.9v1.75h1.68V18.43Zm1.12,9.12V26.24h-2.34v1.31ZM175.38,25h2.34V23.66h-2.34Zm8.24-3.52H179V17.16h4.66Zm-1.87,4.83H179.3v1.31h2.44V26.26Zm0-2.57h-2.44V25h2.44Zm.41-5.24h-1.79v1.73h1.79V18.45Z"/><path class="cls-2" d="M198.83,22c0-1.27-1-2.11-2.74-2.12a4.53,4.53,0,0,0-3.44,1.64l-1.28-1.19a6.43,6.43,0,0,1,5-2.3c2.77,0,4.67,1.38,4.66,3.78,0,2.9-4.49,3.37-4.09,6.22h-2C194.41,24.85,198.82,24.07,198.83,22Zm-2.89,7.59a1.71,1.71,0,1,1-1.76,1.69,1.67,1.67,0,0,1,1.65-1.69h.11Z"/><path class="cls-1" d="M114.35,49.37,121.9,86c1,4.86,4.64,4.73,5.54-.19l6.72-36.61c.67-3.65-.76-7.46-2.79-7.46H117.1C115,41.73,113.59,45.7,114.35,49.37Z"/></g></g></g></svg>