<svg xmlns="http://www.w3.org/2000/svg" viewBox="0 0 219.8 89.55"><defs><style>.cls-1{fill:#6bffba;}.cls-2{fill:#00364b;}</style></defs><title>資產 11</title><g id="圖層_2" data-name="圖層 2"><g id="對話框"><rect class="cls-1" width="219.8" height="49.48" rx="24.74" ry="24.74"/><path class="cls-2" d="M53.29,26.18a10.89,10.89,0,0,1-2.63,4.47,10.16,10.16,0,0,0,3.58,1.59,6.59,6.59,0,0,0-1.1,1.44,11.5,11.5,0,0,1-3.73-1.9,13.67,13.67,0,0,1-3.69,2,5.11,5.11,0,0,0-.95-1.41V33.8h-1.7V32c-2.34.24-4.66.51-6.43.72l-.15-1.6L38.26,31l0-6.25h-1.6V23.25l17.07.06v1.46l-9,0,0,7.54a10.63,10.63,0,0,0,3.4-1.68,11.12,11.12,0,0,1-2.05-3.28l.47-.13H45.45V25.76l6.43,0,.29-.06ZM40.73,22.48H39l0-6,12.57,0,0,6H49.75l0-4.66-9,0Zm-.85,8.34c1-.09,2.11-.21,3.2-.34v-.93h-3.2Zm0-2.61h3.2V27.13H39.9Zm0-3.49v1.09h3.2V24.73Zm1.57-3.89,7.42,0V22l-7.42,0Zm7.41-2v1.13l-7.4,0V18.77Zm-1.18,8.39a9,9,0,0,0,1.67,2.38A8.63,8.63,0,0,0,51.1,27.2Z"/><path class="cls-2" d="M76.85,18.9l0,4.35H75V20.45l-12.76,0v2.79H60.54l0-4.35h2.88a13.36,13.36,0,0,0-1.32-2.05l1.64-.64a10.51,10.51,0,0,1,1.53,2.19l-1.15.5h3.63V16h1.87v2.86h3.49L72,18.43a14.94,14.94,0,0,0,1.53-2.25l1.93.63a26.34,26.34,0,0,1-1.8,2.08ZM75.69,31.29c0,.88-.2,1.36-.86,1.63a10.08,10.08,0,0,1-3.14.26,7.69,7.69,0,0,0-.6-1.66c1,0,2.06,0,2.34,0s.39-.08.39-.31V28.92l-4.05,0,0,5H67.89l0-5-4.3,0,0,4.11H61.75l0-5.75,6.14,0V25.84l-4.36,0,0-4.25,10.25,0,0,4.25h-4v1.42l5.92,0ZM65.29,24.5l6.66,0v-1.6l-6.66,0Z"/><path class="cls-2" d="M99.74,25.76l0,8.22h-2V32.91l-13.52,0,0-7.15h2l0,5.34,4.72,0,0-6.47-5.81,0,0-6.82h1.91l0,5.07H91l0-6.74h2l0,6.74,4,0,0-5.07h2l0,6.82-6,0,0,6.47,4.78,0,0-5.34Z"/><path class="cls-2" d="M110,24.92a14.8,14.8,0,0,0-3.58-2.12l1-1.36a16.29,16.29,0,0,1,3.64,2Zm1.88,2.7c-1,2-2.2,4.34-3.29,6.15L107,32.59a58.81,58.81,0,0,0,3.49-6.16Zm-.83-7.8a15.47,15.47,0,0,0-3.52-2.24l1-1.32a14.13,14.13,0,0,1,3.56,2.08Zm12.22,5.81a11.43,11.43,0,0,1-3.49,5.07,15.89,15.89,0,0,0,4.67,1.73,7,7,0,0,0-1.19,1.63,16.1,16.1,0,0,1-5.06-2.24A19.2,19.2,0,0,1,112.3,34a6.23,6.23,0,0,0-.89-1.64,17,17,0,0,0,5.3-1.73A12.88,12.88,0,0,1,114,27.2l1.11-.38h-2.34V25.17l8.92,0,.33-.08Zm-7-6.09a11.36,11.36,0,0,1-3.12,5.33,9.67,9.67,0,0,0-1.54-1.16c2-1.57,3.05-4.24,3.46-7.57l1.85.24c-.08.51-.16,1-.26,1.5l6.53,0s0,.49,0,.72c-.25,3.25-.5,4.64-1,5.18a1.86,1.86,0,0,1-1.42.58,20,20,0,0,1-2.47,0,4.45,4.45,0,0,0-.52-1.68c.91.08,1.83.1,2.2.11a.89.89,0,0,0,.68-.17c.27-.25.49-1.13.65-3.1Zm-.55,7.27a9.82,9.82,0,0,0,2.48,2.85,9.17,9.17,0,0,0,2.5-2.83Z"/><path class="cls-2" d="M135.92,26.64l.42,1.6c-2.05,1-4.24,2-5.93,2.73l-.71-1.82c.7-.25,1.6-.6,2.6-1l0-5.61h-2.22V20.81h2.22l0-4.33H134l0,4.33h2v1.71h-2l0,4.91Zm8.85,5.51c1.07,0,1.27-.48,1.43-2.61a5.23,5.23,0,0,0,1.6.67c-.27,2.69-.81,3.56-2.92,3.55l-4.48,0c-2.4,0-3.08-.62-3.07-3l0-5.63-1.35.58-.68-1.62,2-.85,0-5.16h1.71l0,4.44,2.19-.91,0-5.36H143l0,4.64,2.62-1.1,1.34.45-.08.29a63.84,63.84,0,0,1-1,8.49l-1.48-.41A59.77,59.77,0,0,0,145,21.9l-2.07.89,0,7h-1.7l0-6.27-2.19.93,0,6.39c0,1.09.21,1.31,1.46,1.31Z"/><path class="cls-2" d="M153,33.56a6.66,6.66,0,0,0,1.32-3.46l1.25.33a7.25,7.25,0,0,1-1.38,3.78Zm.37-5.67,3.57-.12V26.5h-3.12v-1.4H157V24h-3l0-7,7.83,0,0,7h-3.18V25.1h3.23v1.4h-3.23V27.7l3.57-.16L162.08,29c-3.1.2-6.33.35-8.61.47Zm1.91-5.18h1.89l0-4.48h-1.89Zm1-3.8a12.17,12.17,0,0,1,.61,2.85L156,22a12.11,12.11,0,0,0-.55-2.91ZM157.13,30a14.15,14.15,0,0,1,.47,3.35l-1.21.15a18.3,18.3,0,0,0-.4-3.39Zm1.85-.17a14.39,14.39,0,0,1,.94,3.12l-1.17.27a14,14,0,0,0-.88-3.18Zm1.39-11.63h-2l0,4.48h2Zm-1.85,3.6a21.28,21.28,0,0,0,.81-3l1,.37c-.37,1-.75,2.16-1.08,2.88Zm2.31,7.61a11.75,11.75,0,0,1,1.61,2.95l-1.19.5a12.86,12.86,0,0,0-1.51-3Zm6.32-7.28v3.33h3.23l0,8.65h-1.71V33.4l-4.33,0v.84h-1.66l0-8.73h2.71l0-9.12h1.75V20.5h4v1.68Zm1.5,5-4.33,0,0,4.58,4.33,0Z"/><path class="cls-2" d="M185.57,21.91c0-1.27-.95-2.11-2.74-2.11a4.52,4.52,0,0,0-3.44,1.64l-1.28-1.19a6.43,6.43,0,0,1,5-2.3c2.77,0,4.67,1.38,4.66,3.78,0,2.9-4.49,3.37-4.09,6.22h-2C181.15,24.76,185.56,24,185.57,21.91Zm-2.89,7.59a1.71,1.71,0,1,1-1.76,1.69A1.67,1.67,0,0,1,182.68,29.5Z"/><path class="cls-1" d="M125.81,49.37,133.33,86c1,4.86,4.64,4.73,5.54-.19l6.72-36.61c.67-3.65-.76-7.46-2.79-7.46H128.56C126.48,41.72,125.06,45.69,125.81,49.37Z"/></g></g></svg>