<svg xmlns="http://www.w3.org/2000/svg" viewBox="0 0 117.94 100.16"><defs><style>.cls-1{fill:#00364b;}.cls-2{fill:#e0e0e0;}.cls-3{fill:#004864;}</style></defs><title>資產 3</title><g id="圖層_2" data-name="圖層 2"><g id="content"><path class="cls-1" d="M56.44,90.33c1.13-2,3.61-1.93,5.52-2.92,3.44-1.77,4.62-4.31,3.18-6.2a49,49,0,0,0,12.1-7.1,93.46,93.46,0,0,0,11-1s42.36-21.38,25.8-31.18L112,36.82l-3,2.85L97.55,36.52,94.06,39.9c-17.66,2.93-26.65,4.75-26.65,4.75l1.29,4.47L73,50.24c6.43-1.82,6,3.44,11.65,2.92-.87,3.72-25.44-.83-38,11.07a14,14,0,0,0,2.87,2.87,45.88,45.88,0,0,0-4.21,2.38A17,17,0,0,0,33.9,70.81l-1.84,1c-1.46.75-2.45,2.07-3.89,2.51a14.58,14.58,0,0,0-3.87,1.37c-3.16,1.87-9.27,9.2-12,11.83-8.49,8.19,14.57,15.78,32.54,11.4,2.63-.64,8.59-2.73,10-5C55.52,92.75,55.8,91.46,56.44,90.33Z"/><ellipse class="cls-2" cx="31.96" cy="89.16" rx="21.47" ry="9.15"/><path class="cls-3" d="M53.81,89.06c0,5.45-9.23,9.59-20.14,9.59s-21-2.53-21-7.4,10.11-10.57,21-10.57S53.81,84.19,53.81,89.06Z"/><rect class="cls-2" x="11.55" y="70.55" width="40.47" height="18.61" rx="8.3" ry="8.3"/><path class="cls-3" d="M44.9,89.52H17.72c-3.89,0-5.25-6.51-3.4-11.95,1.55-4.56,8-7,11.92-7H45c3.89,0,7.26,4,7.26,8.88v.84C52.21,85.17,48.79,89.52,44.9,89.52Z"/><path class="cls-2" d="M43.33,52.14c-5.67-13.59-4.93-12.4-4.93-12.4H25.18s.74-1.19-4.93,12.4-1.69,23.38-1.69,23.38,1.56,3.91,13.23,3.91S45,75.52,45,75.52,49,65.73,43.33,52.14Z"/><path class="cls-3" d="M43.51,52.14c-5.32-13.59-4.63-12.4-4.63-12.4H26.46s.7-1.19-4.63,12.4S18,75.41,18,75.41s3.46,5.1,14.43,5.1,13-5.13,13-5.13S48.84,65.73,43.51,52.14Z"/><path class="cls-2" d="M19.73,0l1.73,4.53L9.65,8.09l2.06,5.36C3.67,26.61,0,33.62,0,33.62l6.69,3.65L11,35.88c2-5.53,8.5-.1,11.64-3.91C26.9,36.14,4.46,46,11.55,65c0,0,23.82,8.29,39.55-15.48,0,0,.61-45.67-23.27-45.67Z"/><path class="cls-3" d="M12.93,9.44l.41,6.63L3.46,32.85l3.23,4.42L11,35.88a5.25,5.25,0,0,1,5.19-2.61c3.71.35,5.84.61,6.44-1.29,0,0,3.68,2.84-.07,12.35s-6.09,13.26-2.15,23.37c0,0,21.26,2.51,30.68-18.21,0,0-1.05-32.38-18.76-39.89L19.73,0,22,6.68Z"/><ellipse class="cls-2" cx="16.48" cy="21.02" rx="3.22" ry="1.64" transform="translate(-9.85 16.5) rotate(-42.17)"/></g></g></svg>