<svg xmlns="http://www.w3.org/2000/svg" viewBox="0 0 247.92 71.27"><defs><style>.cls-1{fill:#6bffba;}.cls-2{fill:#00364b;}</style></defs><title>資產 3</title><g id="圖層_2" data-name="圖層 2"><g id="圖層_1-2" data-name="圖層 1"><path class="cls-1" d="M24.74,0H223.18a24.74,24.74,0,0,1,24.74,24.74h0a24.74,24.74,0,0,1-24.74,24.74H24.74A24.74,24.74,0,0,1,0,24.74H0A24.74,24.74,0,0,1,24.74,0Z"/><path class="cls-2" d="M32.08,16.5a31.24,31.24,0,0,1-1.94,4.08V33.75H28.43V23.27a20.7,20.7,0,0,1-1.68,2,12.09,12.09,0,0,0-1-1.84,21.66,21.66,0,0,0,4.65-7.48Zm6.8,4.72V31.7a1.72,1.72,0,0,1-.79,1.77,6.46,6.46,0,0,1-2.69.34A6.49,6.49,0,0,0,34.76,32h2c.29,0,.35-.06.35-.31V21.21H34.48A18.57,18.57,0,0,1,32.6,24.4a11.31,11.31,0,0,0-1.48-1.19A18.23,18.23,0,0,0,34.38,16l1.79.4a27.85,27.85,0,0,1-1,3.13h7.37l.29-.06,1.27.26c-.26,1.48-.62,3.19-.87,4.28l-1.54-.3c.14-.66.28-1.58.4-2.51H38.88Zm-3.21,3.46a19.37,19.37,0,0,1-2.77,6.56,10.2,10.2,0,0,0-1.54-1,15.09,15.09,0,0,0,2.53-5.92Zm5.91-.48a24.78,24.78,0,0,1,2.28,6.4l-1.74.62A25.5,25.5,0,0,0,40,24.72Z"/><path class="cls-2" d="M66.89,19.06v.86c-.31,8.79-.55,11.81-1.33,12.78a2.17,2.17,0,0,1-1.7.91,20.8,20.8,0,0,1-2.94,0,4.25,4.25,0,0,0-.58-1.76c1.25.1,2.38.13,2.86.13a.87.87,0,0,0,.82-.33c.63-.64.89-3.58,1.17-10.93h-4.6A19.64,19.64,0,0,1,58.8,24a9.5,9.5,0,0,0-1.42-1v8.94H52.1v1.48H50.44l0-14.24h2.18A23.07,23.07,0,0,0,53.36,16l2,.34c-.33,1-.71,2-1,2.82h3.12v3.68A18.62,18.62,0,0,0,60.41,16l1.75.42c-.24.9-.49,1.79-.81,2.65ZM55.68,30.28V26h-3.6v4.31h3.6Zm-3.59-9.6v3.7h3.62v-3.7Zm10.08,8.11a31.81,31.81,0,0,0-2.83-4.51l1.42-.79a35,35,0,0,1,2.93,4.36Z"/><path class="cls-2" d="M78.45,18.49,78.39,34H77V30.3l-3.86.84-.35-1.56c.35-.06.7-.09,1.11-.17V18.48H73V16.86h6.24v1.62h-.76ZM75.27,29.14c.55-.1,1.15-.21,1.74-.34V26.38H75.28v2.77ZM77,22.42H75.3v2.46H77Zm0-3.94H75.3v2.44H77ZM90.59,25a18.08,18.08,0,0,1-2.51,4.88c.29,1.33.62,2.09,1,2.11s.51-1,.61-2.61a5,5,0,0,0,1.15,1C90.42,33.28,89.68,34,89,34c-1,0-1.61-1-2.11-2.64A15.94,15.94,0,0,1,84,33.88a5.19,5.19,0,0,0-1-1,11.75,11.75,0,0,0,1.52-1.12h-1v-.49H81.12v1.38h-1.4V24.39h5.12v7.07a17,17,0,0,0,1.7-1.84,50.86,50.86,0,0,1-.64-6.14H79V21.94h1.15a15.3,15.3,0,0,0-.42-2L81,19.73a14.82,14.82,0,0,1,.5,2.26h1.24a20.7,20.7,0,0,0,.52-2.28l1.42.26c-.22.68-.41,1.44-.61,2h1.67c-.09-1.79-.12-3.74-.15-5.79h1.56c0,2,0,4,.11,5.79h3.48v1.54H87.43c.09,1.58.22,3,.37,4.27a17.35,17.35,0,0,0,1.46-3.42ZM85.15,19.5H79.36V18.06h2.18c-.17-.53-.41-1.13-.6-1.62l1.52-.27c.25.57.52,1.31.71,1.89h2v1.42ZM83.42,29.94V28.38H81.08v1.56ZM81.1,25.61v1.5h2.34v-1.5Zm7.77-4.39a17.62,17.62,0,0,0-1.35-3.47l1.31-.44a18.42,18.42,0,0,1,1.45,3.38Z"/><path class="cls-2" d="M103.58,31a16.61,16.61,0,0,1-5.82,2.49,7.8,7.8,0,0,0-1.09-1.33,16.32,16.32,0,0,0,5.58-1.79Zm10.2-2.92v1.52H106.1V34.1h-1.77V29.58H96.77V28.06h7.56V26.89H98.58V25.53h5.75V24.36h-6.7V22.94h3.92a10.5,10.5,0,0,0-.85-1.68l1.13-.27h-5V19.55h3a14.59,14.59,0,0,0-1.41-2.64l1.58-.54a13.54,13.54,0,0,1,1.55,2.79l-1,.39h2.18V16.2h1.7v3.35h1.93V16.2H108v3.35h2.12l-.76-.26a17,17,0,0,0,1.37-2.88l1.87.49A30.57,30.57,0,0,1,111,19.54h2.79V21h-5.11l1.52.4c-.43.58-.88,1.11-1.27,1.55h4.13v1.42h-6.9v1.17h6v1.36h-6v1.18Zm-11.29-7.12a7.86,7.86,0,0,1,.91,1.72l-.88.23h5.32l-.7-.22a15.06,15.06,0,0,0,1.1-1.73Zm5.85,9.32c1.71.63,4.09,1.58,5.39,2.2l-1.21,1c-1.21-.61-3.58-1.65-5.35-2.34Z"/><path class="cls-2" d="M137.55,18.44v1.62h-13v4.15c0,3-.46,7.29-3.11,9.93a6.42,6.42,0,0,0-1.3-1.21,9.25,9.25,0,0,0,2.42-5.12c-.8.46-1.6.93-2.36,1.35l-.58-1.68c.82-.37,2-.91,3.16-1.53V18.43h6.72c-.15-.6-.37-1.29-.56-1.85l2-.36c.25.7.54,1.54.75,2.22Zm-16.29,5.8a15.84,15.84,0,0,0-1.41-3.65l1.35-.66a13.41,13.41,0,0,1,1.47,3.57Zm4-2.79h12.14v1.61h-5.48v1.75h5v7.46a1.43,1.43,0,0,1-.75,1.58,7,7,0,0,1-2.79.3,6.27,6.27,0,0,0-.58-1.6h2c.21,0,.35-.06.35-.31v-5.9h-3.32a5.21,5.21,0,0,1-.14.94,32.45,32.45,0,0,1,3.17,3.15l-1.15,1a26.65,26.65,0,0,0-2.5-2.7,6.31,6.31,0,0,1-2.87,2.91,6.32,6.32,0,0,0-1.09-1.21,4.82,4.82,0,0,0,2.94-4.1h-3v7.83h-1.62V24.79h4.68V23h-5V21.45Z"/><path class="cls-2" d="M153.09,32.11c.6.06,1.29.08,2,.09H161a6.24,6.24,0,0,0-.63,1.71H155c-3.72,0-6.19-.57-7.78-3a9.49,9.49,0,0,1-2.9,3.4A10.56,10.56,0,0,0,143,33a8.74,8.74,0,0,0,3.7-6.1l1.81.26A15.77,15.77,0,0,1,148,29a4.74,4.74,0,0,0,3.3,2.86V26.41h-7.79v-1.6l17.07.06v1.6H153.1v1.85h6.2V29.9h-6.2v2.21Zm5.47-8.47H145.45V17.09h13.11ZM156.74,21h-9.53v1.31h9.53Zm0-2.57h-9.53v1.31h9.53Z"/><path class="cls-2" d="M172.78,17.06a30.5,30.5,0,0,1-1.83,3.89V34.32H169.2V23.76A21.58,21.58,0,0,1,167.36,26a10.15,10.15,0,0,0-1-1.85,21.64,21.64,0,0,0,4.74-7.58Zm11.41,7.78h-5v9.55h-1.87V24.84H172.1V23.07h5.22V16.76h1.87v6.31h5Z"/><path class="cls-2" d="M193,19.56V23.4c0,3.1-.26,7.91-1.76,11a7,7,0,0,0-1.44-1.1c1.36-2.9,1.47-7,1.48-10V17.88h7.37c-.12-.43-.25-.86-.38-1.25l1.83-.34a12.6,12.6,0,0,1,.52,1.6h6.76v1.58Zm2.24,4.51a3.94,3.94,0,0,1-1.12,3.09,4.3,4.3,0,0,0-.91-.76,2.89,2.89,0,0,0,1-2.39v-.8h1.07v.85Zm8.85,5.57c1,1.21,2.37,2.91,3.08,3.93l-1.42.74c-.21-.33-.46-.72-.79-1.17-9.41.67-10.43.68-11.07.91a11.27,11.27,0,0,0-.42-1.5,8.29,8.29,0,0,0,2.26-.83c.51-.21,1.46-.71,2.64-1.37a16.7,16.7,0,0,0-3.67.36,8.45,8.45,0,0,0-.4-1.42,3.8,3.8,0,0,0,1.25-.5A18.8,18.8,0,0,0,199,26.35l1.26.78a24.89,24.89,0,0,1-3.4,2.25l3.37-.14a30.91,30.91,0,0,0,2.66-1.88l1.36,1a48.28,48.28,0,0,1-6.79,4l6.55-.44-1.24-1.56Zm-8-2.8V22.53h-2.29v-1.4h2.32v-1h1.4v1h2.42v1.4H197.5v4.31h-1.43Zm6-2.82A3.56,3.56,0,0,1,201,26.9a3.15,3.15,0,0,0-.87-.7v.08a3.15,3.15,0,0,1-.64.06h-.39c-.82,0-1-.37-1-1.21V23.3h1v1.83c0,.33,0,.43.21.43h.08a3.48,3.48,0,0,0,.6-.06l.06.66A2.59,2.59,0,0,0,201,24v-.8H202v.86Zm.79,2.81V22.56h-2.44v-1.4h2.44v-1h1.4v1h2.88v1.4h-2.88v4.27Zm3.9-1a3,3,0,0,0,.72-.08l0,.82a2.73,2.73,0,0,1-.76.06H206c-.9,0-1.07-.39-1.07-1.27v-2.1H206v2.12c0,.33,0,.45.25.45h.48Z"/><path class="cls-2" d="M222.2,22.06c0-1.27-1-2.11-2.74-2.12A4.53,4.53,0,0,0,216,21.58l-1.28-1.19a6.44,6.44,0,0,1,5-2.3c2.77,0,4.67,1.38,4.66,3.78,0,2.9-4.49,3.37-4.09,6.22h-2C217.78,24.93,222.19,24.15,222.2,22.06Zm-2.89,7.59a1.71,1.71,0,1,1-1.76,1.69,1.67,1.67,0,0,1,1.67-1.67h.09Z"/><path class="cls-1" d="M44.65,46.45l6.13,22.61c.81,3,3.78,2.93,4.52-.12L60.77,46.3c.54-2.26-.62-4.61-2.27-4.61H46.89C45.2,41.72,44,44.17,44.65,46.45Z"/></g></g></svg>