<svg xmlns="http://www.w3.org/2000/svg" viewBox="0 0 58.81 103.65"><defs><style>.cls-1{fill:none;stroke:#e0e0e0;stroke-linecap:round;stroke-linejoin:round;stroke-width:5px;}.cls-2{fill:#e0e0e0;}.cls-3{fill:#004864;}</style></defs><title>資產 4</title><g id="圖層_2" data-name="圖層 2"><g id="小物提示"><ellipse class="cls-1" cx="34.46" cy="91.66" rx="21.47" ry="9.15"/><path class="cls-1" d="M56.31,91.56c0,5.45-9.23,9.59-20.14,9.59s-21-2.53-21-7.4,10.11-10.57,21-10.57S56.31,86.69,56.31,91.56Z"/><rect class="cls-1" x="14.05" y="73.05" width="40.47" height="18.61" rx="8.3" ry="8.3"/><path class="cls-1" d="M47.4,92H20.22c-3.89,0-5.25-6.51-3.4-11.95,1.55-4.56,8-7,11.92-7H47.45c3.89,0,7.26,4,7.26,8.88v.84C54.71,87.67,51.29,92,47.4,92Z"/><path class="cls-1" d="M45.83,54.64C40.16,41,40.9,42.23,40.9,42.23H27.68s.74-1.19-4.93,12.4S21.06,78,21.06,78s1.56,3.91,13.23,3.91S47.51,78,47.51,78,51.5,68.23,45.83,54.64Z"/><path class="cls-1" d="M46,54.64c-5.32-13.59-4.63-12.4-4.63-12.4H29s.7-1.19-4.63,12.4-3.79,23.27-3.79,23.27S24,83,35,83s13-5.13,13-5.13S51.34,68.23,46,54.64Z"/><path class="cls-1" d="M22.23,2.5,24,7,12.15,10.59,14.22,16C6.17,29.11,2.5,36.12,2.5,36.12l6.69,3.65,4.31-1.39c2-5.53,8.5-.1,11.64-3.91,4.26,4.16-18.18,14-11.08,33,0,0,23.82,8.29,39.55-15.48,0,0,.61-45.67-23.27-45.67Z"/><path class="cls-1" d="M15.43,11.94l.41,6.63L6,35.35l3.23,4.42,4.31-1.39a5.25,5.25,0,0,1,5.19-2.61c3.71.35,5.84.61,6.44-1.29,0,0,3.68,2.84-.07,12.35S19,60.09,22.92,70.19c0,0,21.26,2.51,30.68-18.21,0,0-1.05-32.38-18.76-39.89L22.23,2.5l2.3,6.68Z"/><ellipse class="cls-1" cx="18.98" cy="23.52" rx="3.22" ry="1.64" transform="translate(-10.88 18.83) rotate(-42.17)"/><ellipse class="cls-2" cx="34.46" cy="91.66" rx="21.47" ry="9.15"/><path class="cls-3" d="M56.31,91.56c0,5.45-9.23,9.59-20.14,9.59s-21-2.53-21-7.4,10.11-10.57,21-10.57S56.31,86.69,56.31,91.56Z"/><rect class="cls-2" x="14.05" y="73.05" width="40.47" height="18.61" rx="8.3" ry="8.3"/><path class="cls-3" d="M47.4,92H20.22c-3.89,0-5.25-6.51-3.4-11.95,1.55-4.56,8-7,11.92-7H47.45c3.89,0,7.26,4,7.26,8.88v.84C54.71,87.67,51.29,92,47.4,92Z"/><path class="cls-2" d="M45.83,54.64C40.16,41,40.9,42.23,40.9,42.23H27.68s.74-1.19-4.93,12.4S21.06,78,21.06,78s1.56,3.91,13.23,3.91S47.51,78,47.51,78,51.5,68.23,45.83,54.64Z"/><path class="cls-3" d="M46,54.64c-5.32-13.59-4.63-12.4-4.63-12.4H29s.7-1.19-4.63,12.4-3.79,23.27-3.79,23.27S24,83,35,83s13-5.13,13-5.13S51.34,68.23,46,54.64Z"/><path class="cls-2" d="M22.23,2.5,24,7,12.15,10.59,14.22,16C6.17,29.11,2.5,36.12,2.5,36.12l6.69,3.65,4.31-1.39c2-5.53,8.5-.1,11.64-3.91,4.26,4.16-18.18,14-11.08,33,0,0,23.82,8.29,39.55-15.48,0,0,.61-45.67-23.27-45.67Z"/><path class="cls-3" d="M15.43,11.94l.41,6.63L6,35.35l3.23,4.42,4.31-1.39a5.25,5.25,0,0,1,5.19-2.61c3.71.35,5.84.61,6.44-1.29,0,0,3.68,2.84-.07,12.35S19,60.09,22.92,70.19c0,0,21.26,2.51,30.68-18.21,0,0-1.05-32.38-18.76-39.89L22.23,2.5l2.3,6.68Z"/><ellipse class="cls-2" cx="18.98" cy="23.52" rx="3.22" ry="1.64" transform="translate(-10.88 18.83) rotate(-42.17)"/></g></g></svg>