<svg xmlns="http://www.w3.org/2000/svg" viewBox="0 0 105.49 64.2"><defs><style>.cls-1{fill:#00364b;}.cls-2{fill:#ffcd32;}.cls-3,.cls-4,.cls-5{fill:none;stroke-linecap:round;stroke-miterlimit:10;}.cls-3,.cls-4{stroke:#004864;}.cls-3{stroke-width:7px;}.cls-4{stroke-width:4px;}.cls-5{stroke:#e0e0e0;}</style></defs><title>資產 8</title><g id="圖層_2" data-name="圖層 2"><g id="content"><path class="cls-1" d="M105.48,42.88c-.33,12.51-23.65,22-52.07,21.28S2.22,52.64,2.56,40.12,26.25,16.57,54.67,17.33,105.82,30.36,105.48,42.88Z"/><path class="cls-2" d="M85,28.54C85.44,44,66.81,57.08,43.35,57.81S.48,46.6,0,31.16,18.11.75,41.57,0,84.49,13.1,85,28.54Z"/><line class="cls-3" x1="30.97" y1="18.65" x2="36.79" y2="13.14"/><polyline class="cls-4" points="61.84 25.22 53.73 25.34 55.42 30.99"/><path class="cls-4" d="M20.05,25.3c-.12.41-.87,8.66,8.52,13.93,12.4,7,23.48,1.57,24,1.12"/><path class="cls-5" d="M8.86,14.6A49.24,49.24,0,0,1,39.64,1.88a50,50,0,0,1,32,9.33"/></g></g></svg>