<svg xmlns="http://www.w3.org/2000/svg" xmlns:xlink="http://www.w3.org/1999/xlink" viewBox="0 0 839 211.71"><defs><style>.cls-1{fill:none;stroke:#e0e0e0;stroke-width:5px;}.cls-2{fill:url(#未命名漸層_15);}.cls-3{fill:url(#未命名漸層_15-2);}.cls-4{fill:url(#未命名漸層_15-3);}.cls-5{fill:#0e364b;}.cls-6{fill:url(#未命名漸層_15-4);}</style><linearGradient id="未命名漸層_15" x1="-27.97" y1="159.28" x2="401.03" y2="140.28" gradientUnits="userSpaceOnUse"><stop offset="0" stop-color="#ff9947"/><stop offset="1" stop-color="#00364b"/></linearGradient><linearGradient id="未命名漸層_15-2" x1="340.68" y1="-65.84" x2="534.71" y2="113.59" xlink:href="#未命名漸層_15"/><linearGradient id="未命名漸層_15-3" x1="212.55" y1="340.09" x2="313.66" y2="98.98" xlink:href="#未命名漸層_15"/><linearGradient id="未命名漸層_15-4" x1="500.66" y1="-37.47" x2="517.01" y2="119.34" xlink:href="#未命名漸層_15"/></defs><title>資產 19</title><g id="圖層_2" data-name="圖層 2"><g id="小物提示"><path class="cls-1" d="M146.17,172.35l-20.58.45c-17,.36-31-7.79-46.47-14.37a345.15,345.15,0,0,1-31.89-15.9,76.06,76.06,0,0,1-15-10.88c-3.14-2.93-13.85-11.06-5.93-14.87a12.66,12.66,0,0,1,5.84-.78c10.22.25,20.44.51,30.65.62q20.81.22,41.61.5,41.61.56,83.21,1.34t83.21,1.8l21.63.54,10.82.28,5.41.14c.83,0,4.46-.4,5,.14-6.51-7.77-17.39-14.62-27.17-17.86-14.21-4.71-32.45-.55-47.42-1.32-17.25-.89-35.28.81-52.67,1.37-19.09.62-38.19,1.1-57.29,1.18-27.16.12-54.23-.5-81.37-1-10-.2-19.93,1-30,1.57-6.36.37-12.23,3.45-14.18,8-2.95,7,.37,10.1,5.5,14.56,3,2.64,7.63,6.69,10.19,9.34,3,3.09,5.8,6.29,9.1,9.21,12.72,11.3,28.72,20.33,45.27,28.49,4.94,2.44,10,4.83,15.7,6.15a182.2,182.2,0,0,0,40.87,4.87c44,0,88.05.66,132.07,1l66.7.5c14,.11,29-.08,42.55,2.27,4,.7,8.24.37,12.19,1,4.42.67,8.13,2.74,12.79,2.28s9.46-3.61,10.18-8.26c1-6.62-6-11.55-12.41-13.58-12.36-3.92-25.59-3.67-38.55-3.38l-162.88,3.59Z"/><path class="cls-1" d="M537,2.55c-43.07.88-85.29,12.27-128,18.52-32,4.68-65.26,6.36-96.91-1.36-24.72-6-54.69-27.08-74.79.18a141.89,141.89,0,0,0-14.44,24.27c-3,6.37-5.47,13.38-3.82,20.14,1.5,6.15,6.21,11.15,10.81,15.82q13.14,13.33,26.89,26.13c9.31,8.66,19.73,16.59,28.67,25.54,2.79,2.8,4.06,6.28,6.45,9.35,3.73,4.77,7.94,9.31,12,13.86,21,23.58,40.43,43.45,72.51,50.19,19.14,4,38.88,4,58.44,4L799.39,209c13.87,0,31-2.15,35.9-15.13,2.62-7,.52-14.72-1.9-21.75-15.09-43.87-42.76-81.44-77.87-111.44-8.88-7.59-18.17-14.71-27.72-21.44-7.9-5.57-16.64-13.76-25.75-16.78-13.57-4.5-30.51-4.51-44.68-6.59L614.16,9.5c-23.76-3.48-47.62-7-71.64-7Q539.78,2.5,537,2.55Z"/><path class="cls-1" d="M310.36,152c11.53,11.27,24.15,28.73,38.68,36,10.15,5.09,26.27,7.08,35.37-.7,6.27-5.35,9.21-13.8,9.64-22s-1.36-16.4-3.15-24.44c-2.35-10.6-4.74-21.33-9.54-31.07-9-18.36-26-21.54-40.3-34.15-16-14.18-30.74-29.8-46.38-44.4-8.88-8.29-19-17.14-31.76-17.7C251.44,13,240.09,23.5,233.13,32c-6.6,8-10.69,18.67-8.64,28.83,3.43,17,21.09,26.88,32.66,38,9.26,8.87,18.05,18.9,27.31,27.95Z"/><path class="cls-1" d="M343.79,36.41a687.24,687.24,0,0,0,90.48-1.9c29.59-2.48,58.28-8,87.58-12.51,9.62-1.47,19.27-2.82,28.94-3.93,46.36-5.31,94.7-4.83,137.89,12.81,9.1,3.72,18.09,8.31,24.89,15.41s11.15,17.11,9.48,26.8c-1.61,9.3-8.52,17-16.72,21.69s-17.62,6.67-26.94,8.16a356.57,356.57,0,0,1-36,3.7c-22.65,1.22-45.35.73-68,.72-12,0-23.8-1.93-35.69-1.93-45.51,1.83-91.14,3.09-136.55,6q-10.58.68-21.13,1.78l1.26-1.53a63.18,63.18,0,0,1-12.74-9.92c-1-1.06-2.12-2.31-2.11-3.79a4,4,0,0,1,2.08-3.23c3.1-1.89,7.91-2.1,11.47-2.19,4-.1,8,.18,12,.18,11.44,0,22.89-.22,34.32-.72,5.75-.25,11.56-.94,17.31-1,5.2,0,10.4-.78,15.63-1.11,5.9-.37,12.28-1,18.1,0,6.25,1.06,13.16,1,19.49,1l79.42,1.19c29.55.44,59.16.89,88.6-1.77,8.6-.78,17.82-2.1,24.12-8,6.59-6.19,8.34-16.51,5.51-25.1a33.14,33.14,0,0,0-8.93-13.59c-3.38-3.19-7.21-5.33-11.21-7.59-3.05-1.72-5.45-4.26-8.66-5.71-9-4.08-19.42-6.27-29.12-7.88-19.87-3.3-40.7-2.81-60,3.14-10.11,3.11-21.64,3.33-32.15,5-11.21,1.76-22.38,3.75-33.55,5.79-22.1,4-44.17,8.32-66.42,11.52-21.4,3.08-43,5.16-64.63,5-5.4,0-10.8-.53-16.19-.56-3.56,0-6.76,1.29-10.29,1.54C344,54.6,332.87,55,321.68,56.7c-2.75-3.54-5-6.63-8.47-9.36L299.87,36.95c-3.78-2.95,2.05-2.56,3.77-2.48Z"/><path class="cls-1" d="M343.79,30.47a687.24,687.24,0,0,0,90.48-1.9c29.59-2.48,58.28-8,87.58-12.51,9.62-1.47,19.27-2.82,28.94-3.93,46.36-5.31,94.7-4.83,137.89,12.81,9.1,3.72,18.09,8.31,24.89,15.41s11.15,17.11,9.48,26.8c-1.61,9.3-8.52,17-16.72,21.69S688.72,95.51,679.4,97a356.57,356.57,0,0,1-36,3.7c-22.65,1.22-45.35.73-68,.72a217.49,217.49,0,0,1-25.6-1.59c-10.56-1.23-21.94.3-32.55.71q-34.68,1.35-69.32,3.59-17.32,1.12-34.62,2.47c-5.22.41-10.8.35-15.92,1.44-1.57.33-14.41,5.58-14.92,4.94-2.64-3.3-5.37-6.55-7.94-9.9-2.28-3-5.39-5.27-8.22-7.74a4,4,0,0,1-1.3-1.62c-1.86-5.61,14.34-7,17-7.1,4-.1,8,.18,12,.18,11.44,0,22.89-.22,34.32-.72,5.75-.25,11.56-.94,17.31-1,5.2,0,10.4-.78,15.63-1.11,5.9-.37,12.28-1,18.1,0,6.25,1.06,13.16,1,19.49,1l79.42,1.19c29.55.44,59.16.89,88.6-1.77,8.6-.78,17.82-2.1,24.12-8,6.59-6.19,8.34-16.51,5.51-25.1s-9.65-15.47-17.56-19.84c-13.31-7.35-30.21-8.88-45.14-9.84A225.46,225.46,0,0,0,583.28,24c-28.92,4.82-58.56,5.6-87.56,10.07q-45.41,7-91.13,11.71-22.85,2.36-45.76,4.14c-7.6.59-15.36.71-22.93,1.64-5.22.65-9.9,5.45-15.28,4.77-4.32-.55-8.92-5.62-12.06-8.37-3.62-3.17-7-6.27-10.36-9.69-1.89-1.91-3.43-4.83-2.15-7.2s4.77-2.67,7.59-2.53Z"/><path class="cls-2" d="M146.17,172.35l-20.58.45c-17,.36-31-7.79-46.47-14.37a345.15,345.15,0,0,1-31.89-15.9,76.06,76.06,0,0,1-15-10.88c-3.14-2.93-13.85-11.06-5.93-14.87a12.66,12.66,0,0,1,5.84-.78c10.22.25,20.44.51,30.65.62q20.81.22,41.61.5,41.61.56,83.21,1.34t83.21,1.8l21.63.54,10.82.28,5.41.14c.83,0,4.46-.4,5,.14-6.51-7.77-17.39-14.62-27.17-17.86-14.21-4.71-32.45-.55-47.42-1.32-17.25-.89-35.28.81-52.67,1.37-19.09.62-38.19,1.1-57.29,1.18-27.16.12-54.23-.5-81.37-1-10-.2-19.93,1-30,1.57-6.36.37-12.23,3.45-14.18,8-2.95,7,.37,10.1,5.5,14.56,3,2.64,7.63,6.69,10.19,9.34,3,3.09,5.8,6.29,9.1,9.21,12.72,11.3,28.72,20.33,45.27,28.49,4.94,2.44,10,4.83,15.7,6.15a182.2,182.2,0,0,0,40.87,4.87c44,0,88.05.66,132.07,1l66.7.5c14,.11,29-.08,42.55,2.27,4,.7,8.24.37,12.19,1,4.42.67,8.13,2.74,12.79,2.28s9.46-3.61,10.18-8.26c1-6.62-6-11.55-12.41-13.58-12.36-3.92-25.59-3.67-38.55-3.38l-162.88,3.59Z"/><path class="cls-3" d="M537,2.55c-43.07.88-85.29,12.27-128,18.52-32,4.68-65.26,6.36-96.91-1.36-24.72-6-54.69-27.08-74.79.18a141.89,141.89,0,0,0-14.44,24.27c-3,6.37-5.47,13.38-3.82,20.14,1.5,6.15,6.21,11.15,10.81,15.82q13.14,13.33,26.89,26.13c9.31,8.66,19.73,16.59,28.67,25.54,2.79,2.8,4.06,6.28,6.45,9.35,3.73,4.77,7.94,9.31,12,13.86,21,23.58,40.43,43.45,72.51,50.19,19.14,4,38.88,4,58.44,4L799.39,209c13.87,0,31-2.15,35.9-15.13,2.62-7,.52-14.72-1.9-21.75-15.09-43.87-42.76-81.44-77.87-111.44-8.88-7.59-18.17-14.71-27.72-21.44-7.9-5.57-16.64-13.76-25.75-16.78-13.57-4.5-30.51-4.51-44.68-6.59L614.16,9.5c-23.76-3.48-47.62-7-71.64-7Q539.78,2.5,537,2.55Z"/><path class="cls-4" d="M310.36,152c11.53,11.27,24.15,28.73,38.68,36,10.15,5.09,26.27,7.08,35.37-.7,6.27-5.35,9.21-13.8,9.64-22s-1.36-16.4-3.15-24.44c-2.35-10.6-4.74-21.33-9.54-31.07-9-18.36-26-21.54-40.3-34.15-16-14.18-30.74-29.8-46.38-44.4-8.88-8.29-19-17.14-31.76-17.7C251.44,13,240.09,23.5,233.13,32c-6.6,8-10.69,18.67-8.64,28.83,3.43,17,21.09,26.88,32.66,38,9.26,8.87,18.05,18.9,27.31,27.95Z"/><path class="cls-5" d="M343.79,36.41a687.24,687.24,0,0,0,90.48-1.9c29.59-2.48,58.28-8,87.58-12.51,9.62-1.47,19.27-2.82,28.94-3.93,46.36-5.31,94.7-4.83,137.89,12.81,9.1,3.72,18.09,8.31,24.89,15.41s11.15,17.11,9.48,26.8c-1.61,9.3-8.52,17-16.72,21.69s-17.62,6.67-26.94,8.16a356.57,356.57,0,0,1-36,3.7c-22.65,1.22-45.35.73-68,.72-12,0-23.8-1.93-35.69-1.93-45.51,1.83-91.14,3.09-136.55,6q-10.58.68-21.13,1.78l1.26-1.53a63.18,63.18,0,0,1-12.74-9.92c-1-1.06-2.12-2.31-2.11-3.79a4,4,0,0,1,2.08-3.23c3.1-1.89,7.91-2.1,11.47-2.19,4-.1,8,.18,12,.18,11.44,0,22.89-.22,34.32-.72,5.75-.25,11.56-.94,17.31-1,5.2,0,10.4-.78,15.63-1.11,5.9-.37,12.28-1,18.1,0,6.25,1.06,13.16,1,19.49,1l79.42,1.19c29.55.44,59.16.89,88.6-1.77,8.6-.78,17.82-2.1,24.12-8,6.59-6.19,8.34-16.51,5.51-25.1a33.14,33.14,0,0,0-8.93-13.59c-3.38-3.19-7.21-5.33-11.21-7.59-3.05-1.72-5.45-4.26-8.66-5.71-9-4.08-19.42-6.27-29.12-7.88-19.87-3.3-40.7-2.81-60,3.14-10.11,3.11-21.64,3.33-32.15,5-11.21,1.76-22.38,3.75-33.55,5.79-22.1,4-44.17,8.32-66.42,11.52-21.4,3.08-43,5.16-64.63,5-5.4,0-10.8-.53-16.19-.56-3.56,0-6.76,1.29-10.29,1.54C344,54.6,332.87,55,321.68,56.7c-2.75-3.54-5-6.63-8.47-9.36L299.87,36.95c-3.78-2.95,2.05-2.56,3.77-2.48Z"/><path class="cls-6" d="M343.79,30.47a687.24,687.24,0,0,0,90.48-1.9c29.59-2.48,58.28-8,87.58-12.51,9.62-1.47,19.27-2.82,28.94-3.93,46.36-5.31,94.7-4.83,137.89,12.81,9.1,3.72,18.09,8.31,24.89,15.41s11.15,17.11,9.48,26.8c-1.61,9.3-8.52,17-16.72,21.69S688.72,95.51,679.4,97a356.57,356.57,0,0,1-36,3.7c-22.65,1.22-45.35.73-68,.72a217.49,217.49,0,0,1-25.6-1.59c-10.56-1.23-21.94.3-32.55.71q-34.68,1.35-69.32,3.59-17.32,1.12-34.62,2.47c-5.22.41-10.8.35-15.92,1.44-1.57.33-14.41,5.58-14.92,4.94-2.64-3.3-5.37-6.55-7.94-9.9-2.28-3-5.39-5.27-8.22-7.74a4,4,0,0,1-1.3-1.62c-1.86-5.61,14.34-7,17-7.1,4-.1,8,.18,12,.18,11.44,0,22.89-.22,34.32-.72,5.75-.25,11.56-.94,17.31-1,5.2,0,10.4-.78,15.63-1.11,5.9-.37,12.28-1,18.1,0,6.25,1.06,13.16,1,19.49,1l79.42,1.19c29.55.44,59.16.89,88.6-1.77,8.6-.78,17.82-2.1,24.12-8,6.59-6.19,8.34-16.51,5.51-25.1s-9.65-15.47-17.56-19.84c-13.31-7.35-30.21-8.88-45.14-9.84A225.46,225.46,0,0,0,583.28,24c-28.92,4.82-58.56,5.6-87.56,10.07q-45.41,7-91.13,11.71-22.85,2.36-45.76,4.14c-7.6.59-15.36.71-22.93,1.64-5.22.65-9.9,5.45-15.28,4.77-4.32-.55-8.92-5.62-12.06-8.37-3.62-3.17-7-6.27-10.36-9.69-1.89-1.91-3.43-4.83-2.15-7.2s4.77-2.67,7.59-2.53Z"/></g></g></svg>