<svg xmlns="http://www.w3.org/2000/svg" viewBox="0 0 119.64 67.73"><defs><style>.cls-1,.cls-4,.cls-5{fill:none;}.cls-1{stroke:#e0e0e0;stroke-width:5px;}.cls-2{fill:#3c9195;}.cls-3{fill:#00364b;}.cls-4,.cls-5{stroke:#bebebe;}.cls-4{stroke-miterlimit:10;}.cls-5{stroke-linecap:round;stroke-linejoin:round;}.cls-6{fill:#bebebe;}.cls-7{fill:#ff665c;}.cls-8{fill:#004864;}</style></defs><title>資產 11</title><g id="圖層_2" data-name="圖層 2"><g id="小物提示"><path class="cls-1" d="M21,20.87l-1.38,0C9.66,20.46,2.3,16.23,2.5,11c.1-2.74,2.22-5.1,6-6.66A28.86,28.86,0,0,1,20.33,2.53c10,.38,17.32,4.61,17.12,9.83-.1,2.74-2.22,5.1-6,6.66A27.86,27.86,0,0,1,21,20.87ZM19,6.5A24.21,24.21,0,0,0,10,8c-2.12.88-3.46,2.08-3.5,3.12-.08,2.1,5,5.36,13.27,5.68a25.05,25.05,0,0,0,10.17-1.52c2.12-.88,3.46-2.08,3.5-3.12.08-2.1-5-5.36-13.27-5.68Z"/><ellipse class="cls-1" cx="66.67" cy="45.75" rx="19.26" ry="49.17" transform="matrix(0.06, -1, 1, 0.06, 16.69, 109.31)"/><rect class="cls-1" x="18.13" y="26.51" width="98.33" height="19.26" transform="matrix(1, 0.06, -0.06, 1, 2.49, -4.29)"/><ellipse class="cls-1" cx="67.92" cy="26.53" rx="19.26" ry="49.17" transform="translate(37.04 92.58) rotate(-86.28)"/><ellipse class="cls-1" cx="67.78" cy="28.58" rx="18.95" ry="48.44" transform="translate(34.86 94.37) rotate(-86.28)"/><ellipse class="cls-1" cx="67.71" cy="30.58" rx="14.9" ry="38.09" transform="matrix(0.06, -1, 1, 0.06, 32.79, 96.16)"/><polyline class="cls-1" points="38.27 17.05 36.29 15.03 40.74 16.17 38.57 14.24"/><path class="cls-1" d="M90,42.29h0a3.26,3.26,0,0,1-2.95.1L45.63,24.89c-1-.43-1.36-1.18-.76-1.66h0a3.26,3.26,0,0,1,2.95-.1L89.23,40.62C90.26,41.06,90.59,41.8,90,42.29Z"/><path class="cls-1" d="M45.63,24.89c-1-.43-1.36-1.18-.76-1.66h0a3.26,3.26,0,0,1,2.95-.1l2.42,1-2.9,1.46Z"/><ellipse class="cls-1" cx="66.38" cy="32.05" rx="1.38" ry="3.52" transform="translate(30.09 96.21) rotate(-86.28)"/><rect class="cls-1" x="62.9" y="30.67" width="7.04" height="1.38" transform="translate(2.17 -4.24) rotate(3.72)"/><ellipse class="cls-1" cx="66.47" cy="30.67" rx="1.38" ry="3.52" transform="translate(31.55 95.01) rotate(-86.28)"/><ellipse class="cls-1" cx="66.46" cy="30.32" rx="0.82" ry="2.09" transform="translate(31.89 94.67) rotate(-86.28)"/><rect class="cls-1" x="64.39" y="29.5" width="4.18" height="0.82" transform="translate(2.08 -4.25) rotate(3.72)"/><ellipse class="cls-1" cx="66.51" cy="29.5" rx="0.82" ry="2.09" transform="translate(32.75 93.96) rotate(-86.28)"/><line class="cls-1" x1="87.73" y1="19" x2="90.37" y2="15.65"/><line class="cls-1" x1="45.83" y1="41.59" x2="39.77" y2="40.79"/><line class="cls-1" x1="97.55" y1="41.48" x2="102.85" y2="41.8"/><path class="cls-2" d="M21,20.87l-1.38,0C9.66,20.46,2.3,16.23,2.5,11c.1-2.74,2.22-5.1,6-6.66A28.86,28.86,0,0,1,20.33,2.53c10,.38,17.32,4.61,17.12,9.83-.1,2.74-2.22,5.1-6,6.66A27.86,27.86,0,0,1,21,20.87ZM19,6.5A24.21,24.21,0,0,0,10,8c-2.12.88-3.46,2.08-3.5,3.12-.08,2.1,5,5.36,13.27,5.68a25.05,25.05,0,0,0,10.17-1.52c2.12-.88,3.46-2.08,3.5-3.12.08-2.1-5-5.36-13.27-5.68Z"/><ellipse class="cls-2" cx="66.67" cy="45.75" rx="19.26" ry="49.17" transform="matrix(0.06, -1, 1, 0.06, 16.69, 109.31)"/><rect class="cls-2" x="18.13" y="26.51" width="98.33" height="19.26" transform="matrix(1, 0.06, -0.06, 1, 2.49, -4.29)"/><ellipse class="cls-2" cx="67.92" cy="26.53" rx="19.26" ry="49.17" transform="translate(37.04 92.58) rotate(-86.28)"/><ellipse class="cls-3" cx="67.78" cy="28.58" rx="18.95" ry="48.44" transform="translate(34.86 94.37) rotate(-86.28)"/><ellipse class="cls-4" cx="67.71" cy="30.58" rx="14.9" ry="38.09" transform="matrix(0.06, -1, 1, 0.06, 32.79, 96.16)"/><polyline class="cls-5" points="38.27 17.05 36.29 15.03 40.74 16.17 38.57 14.24"/><path class="cls-6" d="M90,42.29h0a3.26,3.26,0,0,1-2.95.1L45.63,24.89c-1-.43-1.36-1.18-.76-1.66h0a3.26,3.26,0,0,1,2.95-.1L89.23,40.62C90.26,41.06,90.59,41.8,90,42.29Z"/><path class="cls-7" d="M45.63,24.89c-1-.43-1.36-1.18-.76-1.66h0a3.26,3.26,0,0,1,2.95-.1l2.42,1-2.9,1.46Z"/><ellipse class="cls-8" cx="66.38" cy="32.05" rx="1.38" ry="3.52" transform="translate(30.09 96.21) rotate(-86.28)"/><rect class="cls-8" x="62.9" y="30.67" width="7.04" height="1.38" transform="translate(2.17 -4.24) rotate(3.72)"/><ellipse class="cls-6" cx="66.47" cy="30.67" rx="1.38" ry="3.52" transform="translate(31.55 95.01) rotate(-86.28)"/><ellipse class="cls-8" cx="66.46" cy="30.32" rx="0.82" ry="2.09" transform="translate(31.89 94.67) rotate(-86.28)"/><rect class="cls-8" x="64.39" y="29.5" width="4.18" height="0.82" transform="translate(2.08 -4.25) rotate(3.72)"/><ellipse class="cls-6" cx="66.51" cy="29.5" rx="0.82" ry="2.09" transform="translate(32.75 93.96) rotate(-86.28)"/><line class="cls-5" x1="87.73" y1="19" x2="90.37" y2="15.65"/><line class="cls-5" x1="45.83" y1="41.59" x2="39.77" y2="40.79"/><line class="cls-5" x1="97.55" y1="41.48" x2="102.85" y2="41.8"/></g></g></svg>