<svg xmlns="http://www.w3.org/2000/svg" viewBox="0 0 71.21 43.72"><defs><style>.cls-1{fill:#6bffba;}.cls-2{fill:#006464;}</style></defs><title>Asset 19 1</title><g id="Layer_2" data-name="Layer 2"><g id="頂部小人"><rect class="cls-1" width="71.21" height="36.13" rx="18.06" ry="18.06"/><path class="cls-1" d="M31.11,35.4V43a.72.72,0,0,0,1.24.51L39.89,36a.72.72,0,0,0-.51-1.24l-7.55,0A.72.72,0,0,0,31.11,35.4Z"/><path class="cls-2" d="M24.43,22.83v1.75H10.84V22.83h5.82V19H12.27V17.25h4.39V13.89h-5.1V12.12h12.1v1.77H18.54v3.36h4.54V19H18.54v3.81Z"/><path class="cls-2" d="M30.48,21.29a17.48,17.48,0,0,1-.65,3.66,7.28,7.28,0,0,0-1.29-.45,13.81,13.81,0,0,0,.6-3.42Zm2.94-4.36a11.23,11.23,0,0,1,1.08,3l-1.26.51c0-.18-.08-.39-.12-.6a21.57,21.57,0,0,0-3.92.76,12.52,12.52,0,0,0-.48-1.44c.36-.09.67-.43,1.15-1a13,13,0,0,0,1-1.33,5.94,5.94,0,0,0-1.75.33,11.77,11.77,0,0,0-.5-1.42c.29-.08.52-.36.83-.81a15.82,15.82,0,0,0,1.75-3.65l1.48.58a22,22,0,0,1-2,3.66l1.09-.08a21.64,21.64,0,0,0,1.09-2.11l1.33.84A28,28,0,0,1,31,18.83l1.74-.23a11.68,11.68,0,0,0-.51-1.25ZM32,21a28.38,28.38,0,0,1,.41,3.12l-1.29.33a24.52,24.52,0,0,0-.34-3.15Zm1.54-.45a20.71,20.71,0,0,1,.88,2.83l-1.21.44a24.1,24.1,0,0,0-.79-2.88Zm9,3.75H36.75v1h-1.6V17.49c-.23.28-.45.57-.68.84a9.48,9.48,0,0,0-.75-1.71,15.35,15.35,0,0,0,2.58-5.34l1.7.5c-.24.69-.51,1.4-.83,2.11H39c-.22-.58-.58-1.36-.88-2l1.49-.65a17.55,17.55,0,0,1,1,2.08l-1.09.52h2.88v1.6H40.08V16.8h2v1.59h-2v1.26h2v1.6h-2v1.35h2.5ZM38.47,15.5H36.75V16.8h1.72Zm0,2.9H36.75v1.26h1.72Zm-1.72,4.21h1.72V21.26H36.75Z"/><path class="cls-2" d="M51.37,17a21.21,21.21,0,0,1,.78,3.13l-1.26.39c0-.18-.06-.4-.11-.66a16.75,16.75,0,0,0-3.64.69c-.09-.28-.34-1-.53-1.48.36-.07.67-.42,1.11-1a10.77,10.77,0,0,0,.92-1.29,5.26,5.26,0,0,0-1.62.31c-.09-.31-.33-1.06-.5-1.46.27-.07.5-.36.78-.82A16,16,0,0,0,49,11.22l1.53.58a21.7,21.7,0,0,1-1.86,3.57l.9-.06c.33-.63.66-1.29.93-1.95l1.41.83A27.26,27.26,0,0,1,49,18.69l1.5-.18c-.1-.39-.21-.8-.33-1.16Zm-2.88,4.23a18.1,18.1,0,0,1-.66,3.79,9.91,9.91,0,0,0-1.29-.45,13.13,13.13,0,0,0,.63-3.54ZM49.92,21a28.83,28.83,0,0,1,.36,3.36L49,24.65a28,28,0,0,0-.28-3.37Zm1.33-.42a19.25,19.25,0,0,1,.81,2.77l-1.19.4A18.26,18.26,0,0,0,50.14,21Zm8.88,2.74c0,.81-.15,1.23-.64,1.49a5.42,5.42,0,0,1-2.33.28,6.14,6.14,0,0,0-.48-1.48c.69,0,1.46,0,1.67,0s.32-.09.32-.3V13.31h-5V25.23H52.24V11.75h7.89Zm-5.86-5.23h.88v3h.54V17.46H54.09V16.14H56.4A24,24,0,0,0,57,13.49l1.25.3c-.23.78-.46,1.65-.68,2.35h.75v1.32h-1.6v3.66h.55v-3h.89v4.3H54.27Zm1-4.58a9.17,9.17,0,0,1,.65,2.13L54.84,16a9.91,9.91,0,0,0-.58-2.19Z"/></g></g></svg>