<svg xmlns="http://www.w3.org/2000/svg" viewBox="0 0 83.22 71.13"><defs><style>.cls-1{fill:#ff8051;}.cls-1,.cls-3,.cls-4,.cls-5{stroke:#004864;stroke-width:0.93px;}.cls-1,.cls-10,.cls-11,.cls-12,.cls-3,.cls-4,.cls-5,.cls-7,.cls-8,.cls-9{stroke-linecap:round;}.cls-1,.cls-10,.cls-11,.cls-3,.cls-4,.cls-5,.cls-7,.cls-8,.cls-9{stroke-linejoin:round;}.cls-2{fill:#e0e0e0;}.cls-3{fill:#0f9bff;}.cls-4,.cls-6{fill:#ffcd32;}.cls-5{fill:#6bffba;}.cls-10,.cls-11,.cls-12,.cls-7,.cls-8,.cls-9{fill:none;stroke:#006464;}.cls-7{stroke-width:0.81px;}.cls-8{stroke-width:0.63px;}.cls-9{stroke-width:0.94px;}.cls-10{stroke-width:0.47px;}.cls-11{stroke-width:0.31px;}.cls-12{stroke-miterlimit:10;stroke-width:2.65px;}</style></defs><title>Asset 16</title><g id="Layer_2" data-name="Layer 2"><g id="頂部小人"><polygon class="cls-1" points="25.19 7.26 11.73 1.54 16.62 11.99 29.49 16.39 25.19 7.26"/><path class="cls-2" d="M26.76,6.25,12.84.32a14.36,14.36,0,0,1,2.62,4.44A42.48,42.48,0,0,1,16.62,12l12.87,4.39Z"/><path class="cls-2" d="M35.71,5.73,22.25,0a23.59,23.59,0,0,0-5.63,12l12.87,4.39Z"/><polygon class="cls-1" points="36.4 7.87 22.95 2.14 16.62 11.99 29.49 16.39 36.4 7.87"/><polygon class="cls-3" points="69.32 54.67 56.72 47.25 60.21 58.25 72.4 64.27 69.32 54.67"/><path class="cls-2" d="M71,53.87,58,46.18a14.36,14.36,0,0,1,2,4.74,42.48,42.48,0,0,1,.22,7.33l12.19,6Z"/><path class="cls-2" d="M79.95,54.51l-12.6-7.42a23.59,23.59,0,0,0-7.14,11.16l12.19,6Z"/><polygon class="cls-3" points="80.36 56.72 67.76 49.3 60.21 58.25 72.4 64.27 80.36 56.72"/><polygon class="cls-4" points="16.14 50.29 1.22 46.82 10.96 40.09 24.15 43.41 16.14 50.29"/><polygon class="cls-4" points="27.18 55.03 12.94 52.89 10.96 40.09 24.15 43.41 27.18 55.03"/><path class="cls-2" d="M23.35,42.55a14.45,14.45,0,0,1,5.71,10.51L14.77,50.68s.52-4.64-3.68-10.34c-.25-.34-.82-1.13.24-1.17S23.35,42.55,23.35,42.55Z"/><path class="cls-2" d="M11.66,39.2,2.73,45.32,0,44.82S5.15,38.48,11.66,39.2Z"/><polygon class="cls-5" points="70.29 17.89 55.38 14.41 65.12 7.69 78.31 11 70.29 17.89"/><polygon class="cls-5" points="81.33 22.63 67.09 20.48 65.12 7.69 78.31 11 81.33 22.63"/><path class="cls-2" d="M77.51,10.15a14.45,14.45,0,0,1,5.71,10.51L68.93,18.28s.52-4.64-3.68-10.34c-.25-.34-.82-1.13.24-1.17S77.51,10.15,77.51,10.15Z"/><path class="cls-2" d="M65.82,6.8l-8.94,6.12-2.73-.51S59.31,6.08,65.82,6.8Z"/><path class="cls-6" d="M41.25,7.57c1.44-2.29,3.74-2.26,5.11.08l6.3,10.77c1.37,2.34.27,4.25-2.44,4.25H36.67c-2.71,0-3.75-1.88-2.3-4.17Z"/><path class="cls-7" d="M38.23,13.35H41.9a.87.87,0,0,1,.87.87v1.62a1.31,1.31,0,0,1-1.31,1.31H38.53A1.17,1.17,0,0,1,37.36,16V14.22A.87.87,0,0,1,38.23,13.35Z"/><path class="cls-7" d="M45.36,13.35H49a.87.87,0,0,1,.87.87v1.54a1.39,1.39,0,0,1-1.39,1.39H45.62A1.14,1.14,0,0,1,44.49,16V14.22A.87.87,0,0,1,45.36,13.35Z"/><line class="cls-7" x1="42.77" y1="14.1" x2="44.49" y2="14.1"/><path class="cls-8" d="M39.3,11.07a12.53,12.53,0,0,1,4.41-.67,12.53,12.53,0,0,1,4.41.67"/><line class="cls-9" x1="46.87" y1="15.19" x2="46.88" y2="14.67"/><line class="cls-9" x1="40.41" y1="14.63" x2="40.42" y2="15.16"/><line class="cls-10" x1="41.72" y1="10.27" x2="42.24" y2="9.37"/><line class="cls-10" x1="43.43" y1="10.27" x2="43.95" y2="9.37"/><line class="cls-10" x1="45.14" y1="10.44" x2="45.66" y2="9.55"/><path class="cls-8" d="M40.9,20a.68.68,0,0,0,.63.42c.47,0,2.1-.3,2.1-.3a16.28,16.28,0,0,0,1.94.3,1.09,1.09,0,0,0,.81-.52"/><path class="cls-8" d="M44.87,12.74a1.84,1.84,0,0,1,2.06-.85"/><path class="cls-8" d="M42.77,12.9A2.06,2.06,0,0,0,40.58,12"/><line class="cls-11" x1="46.37" y1="15.6" x2="47.37" y2="15.6"/><line class="cls-11" x1="39.93" y1="15.6" x2="40.93" y2="15.6"/><path class="cls-6" d="M29.17,16.46A2.41,2.41,0,0,0,26.88,19V27.8a2.51,2.51,0,0,0,2.5,2.5h4.34a2.51,2.51,0,0,1,2.5,2.5V64.06a2.32,2.32,0,0,1-2.06,2.5,2.19,2.19,0,0,0-2.06,2.28,2.41,2.41,0,0,0,2.5,2.28h3.67a2.41,2.41,0,0,0,2.5-2.28V52.19a2.51,2.51,0,0,1,2.5-2.5h.47a2.51,2.51,0,0,1,2.5,2.5V68.84a2.41,2.41,0,0,0,2.5,2.28h3.67A2.41,2.41,0,0,0,55,68.84a2.19,2.19,0,0,0-2.06-2.28,2.32,2.32,0,0,1-2.06-2.5V45.75a2.51,2.51,0,0,1,2.5-2.5h2.88a2.51,2.51,0,0,0,2.5-2.5V28.24a2.51,2.51,0,0,0-2.5-2.5H34a2.51,2.51,0,0,1-2.5-2.5V19A2.41,2.41,0,0,0,29.17,16.46ZM52.5,39.53c-.91,0-1.66-1.13-1.66-2.5V33c0-1.38.75-2.5,1.66-2.5s1.66,1.13,1.66,2.5v4C54.16,38.41,53.41,39.53,52.5,39.53Z"/><line class="cls-12" x1="43.54" y1="34.23" x2="43.54" y2="42.14"/><line class="cls-12" x1="43.54" y1="29.45" x2="43.54" y2="29.43"/></g></g></svg>