<svg xmlns="http://www.w3.org/2000/svg" viewBox="0 0 50.01 71.14"><defs><style>.cls-1,.cls-10,.cls-11,.cls-12,.cls-6,.cls-7,.cls-8{fill:none;}.cls-1{stroke:#e0e0e0;stroke-width:2.34px;}.cls-1,.cls-10,.cls-12,.cls-6,.cls-7,.cls-8,.cls-9{stroke-linecap:round;}.cls-1,.cls-6,.cls-7,.cls-8,.cls-9{stroke-linejoin:round;}.cls-2{fill:#ff9947;}.cls-3{fill:#e0e0e0;}.cls-4{fill:#fff;}.cls-5,.cls-9{fill:#ffcd32;}.cls-6,.cls-7,.cls-8,.cls-9{stroke:#006464;}.cls-6{stroke-width:0.84px;}.cls-7{stroke-width:0.94px;}.cls-8,.cls-9{stroke-width:0.63px;}.cls-10,.cls-12{stroke:#fff;}.cls-10,.cls-11,.cls-12{stroke-miterlimit:10;}.cls-10{stroke-width:1.21px;}.cls-11{stroke:#ff665c;stroke-width:1.99px;}.cls-12{stroke-width:1.61px;}</style></defs><title>Asset 20 1</title><g id="Layer_2" data-name="Layer 2"><g id="頂部小人"><line class="cls-1" x1="42.04" y1="67.84" x2="42.04" y2="28.86"/><ellipse class="cls-2" cx="42.04" cy="29.32" rx="6.8" ry="3.47"/><ellipse class="cls-3" cx="42.03" cy="68.33" rx="7" ry="2.81"/><ellipse class="cls-2" cx="42.04" cy="16.38" rx="6.79" ry="2.94"/><rect class="cls-2" x="35.25" y="16.38" width="13.58" height="12.94"/><ellipse class="cls-4" cx="42.03" cy="16.77" rx="6.61" ry="2.65"/><path class="cls-5" d="M13.49,9.21c1.44-2.29,3.73-2.25,5.1.08L24.86,20c1.36,2.33.27,4.24-2.43,4.24H8.92c-2.7,0-3.74-1.87-2.3-4.16Z"/><path class="cls-6" d="M10.56,14.88h3.7a.85.85,0,0,1,.85.85v2a.79.79,0,0,1-.79.79H10.5a.79.79,0,0,1-.79-.79v-2A.85.85,0,0,1,10.56,14.88Z"/><path class="cls-6" d="M17.67,14.88h3.7a.85.85,0,0,1,.85.85v1.94a.82.82,0,0,1-.82.82H17.25a.43.43,0,0,1-.43-.43V15.72a.85.85,0,0,1,.85-.85Z"/><line class="cls-7" x1="15.29" y1="15.76" x2="16.71" y2="15.76"/><path class="cls-8" d="M18.38,16.51a2.15,2.15,0,0,1,2.49-.24"/><path class="cls-8" d="M13.81,16.51a2.15,2.15,0,0,0-2.49-.24"/><path class="cls-8" d="M17.27,13.88a2.59,2.59,0,0,1,2-.78"/><path class="cls-8" d="M15,13.88s-1.16-1.15-2-.79"/><path class="cls-8" d="M19.52,20.1c-.3.26.1.6.1.6A10,10,0,0,1,16,22a9.81,9.81,0,0,1-3.59-1.31s.32,0,.16-.44"/><polyline class="cls-9" points="15.29 15.76 15.11 19.53 16.02 19.89"/><path class="cls-9" d="M22.55,18.66c-1-.52-2.08.58-2.08.58"/><path class="cls-9" d="M9.21,18.66c1-.52,2.08.58,2.08.58"/><polyline class="cls-9" points="13.43 12.13 15.55 10.57 16 11.93 17.39 11.11"/><path class="cls-5" d="M22.47,31.13h7.58a2.42,2.42,0,0,0,2.39-2.28l.4-8.91a2.08,2.08,0,0,0-2-2.28,2.35,2.35,0,0,0-2.21,2.28l-.26,4.74A2.45,2.45,0,0,1,26,27H2.78A2.42,2.42,0,0,0,.38,29.24L0,37.44a2.06,2.06,0,0,0,1.93,2.28,2.33,2.33,0,0,0,2.16-2.28l.23-4a2.46,2.46,0,0,1,2.42-2.28h.1a2.23,2.23,0,0,1,2.23,2.28L8.21,68.86a2.23,2.23,0,0,0,2.23,2.28h3.95a2.27,2.27,0,0,0,2.34-2.08A2.07,2.07,0,0,0,14.61,67a2.17,2.17,0,0,1-2.12-2.28l.28-10.51a2.37,2.37,0,0,1,2.35-2.28h4.47a2.22,2.22,0,0,1,2.23,2.28l-.27,10.5c0,1.26-.08,3.22-.1,4.37a2.14,2.14,0,0,0,2.24,2.08H27a2.26,2.26,0,0,0,2.33-2.08A1.94,1.94,0,0,0,27.54,67a2.06,2.06,0,0,1-1.82-2.28L26.08,50a2.13,2.13,0,0,0-2-2.28h-2"/><line class="cls-10" x1="30.24" y1="20.71" x2="32.32" y2="9.62"/><path class="cls-11" d="M32.32,9.62c3.09-4.16,0-9.09,0-9.09"/><path class="cls-11" d="M36.13,2a9.21,9.21,0,0,1-3.81,7.62"/><path class="cls-11" d="M37.73,5.07a7.91,7.91,0,0,1-5.42,4.54"/><path class="cls-11" d="M32.32,9.62s-.62-6.35-4.16-7.08"/><path class="cls-4" d="M16.52,55.71h0a6.17,6.17,0,0,1-6.16-6.57l1.71-18.22h9.12l1.64,18.87A6.32,6.32,0,0,1,16.52,55.71Z"/><rect class="cls-4" x="8.52" y="40.34" width="11.33" height="1.99"/><line class="cls-12" x1="10.44" y1="9.38" x2="8.97" y2="7.67"/><line class="cls-12" x1="10.58" y1="11.35" x2="8.46" y2="12.13"/><path class="cls-4" d="M17.88,7.4l.94,2.3a9.21,9.21,0,0,0-6.88,2l-.31-6.63C13.95,5.32,17.38,6.13,17.88,7.4Z"/><rect class="cls-4" x="19.52" y="26.96" width="1.62" height="6.82"/><rect class="cls-4" x="12.06" y="26.96" width="1.62" height="6.82"/><circle class="cls-3" cx="44.1" cy="8.11" r="2.78"/><circle class="cls-3" cx="46.31" cy="6.62" r="1.29"/><circle class="cls-3" cx="49.09" cy="9.96" r="0.91"/><circle class="cls-3" cx="34.62" cy="13.52" r="1.11"/><circle class="cls-3" cx="35.56" cy="12.98" r="0.57"/></g></g></svg>