<svg xmlns="http://www.w3.org/2000/svg" viewBox="0 0 29.59 61.57"><defs><style>.cls-1,.cls-2{fill:none;stroke:#ffcd32;stroke-miterlimit:10;stroke-width:1.1px;}.cls-1{stroke-dasharray:0.98 0.98;}.cls-2{stroke-dasharray:0.97 0.97;}</style></defs><title>Asset 22 1</title><g id="Layer_2" data-name="Layer 2"><g id="頂部小人"><path class="cls-1" d="M12.73,2.15C14.09,0,16.26,0,17.54,2.23l5.94,10.16c1.29,2.21.25,4-2.3,4H8.41c-2.55,0-3.53-1.77-2.17-3.93Z"/><path class="cls-2" d="M3,19.22A2.47,2.47,0,0,0,.55,21.68V31a2.26,2.26,0,0,0,2,2.46,2.26,2.26,0,0,0,2-2.46V25.59a2.29,2.29,0,0,1,2-2.46,2.29,2.29,0,0,1,2,2.46V54.66c0,1.35-.79,2.46-1.76,2.46a1.87,1.87,0,0,0-1.76,2,2.26,2.26,0,0,0,2.46,2H10a2.47,2.47,0,0,0,2.46-2.46V43.81a2.35,2.35,0,1,1,4.69,0V58.57A2.47,2.47,0,0,0,19.6,61H22.1a2.26,2.26,0,0,0,2.46-2,1.87,1.87,0,0,0-1.76-2c-1,0-1.76-1.11-1.76-2.46V25.59a2.29,2.29,0,0,1,2-2.46,2.29,2.29,0,0,1,2,2.46V31a2.26,2.26,0,0,0,2,2.46A2.26,2.26,0,0,0,29,31V21.68a2.47,2.47,0,0,0-2.46-2.46Z"/></g></g></svg>