<svg xmlns="http://www.w3.org/2000/svg" viewBox="0 0 71.21 43.72"><defs><style>.cls-1{fill:#6bffba;}.cls-2{fill:#006464;}</style></defs><title>Asset 21 1</title><g id="Layer_2" data-name="Layer 2"><g id="頂部小人"><rect class="cls-1" width="71.21" height="36.13" rx="18.06" ry="18.06"/><path class="cls-1" d="M31.11,35.4V43a.72.72,0,0,0,1.24.51L39.89,36a.72.72,0,0,0-.51-1.24l-7.55,0A.72.72,0,0,0,31.11,35.4Z"/><path class="cls-2" d="M17.74,7.81a1.81,1.81,0,0,0-1.29-.47A2.72,2.72,0,0,0,15,7.73a3.25,3.25,0,0,0-1,1,4.58,4.58,0,0,0-.59,1.36,5.76,5.76,0,0,0-.2,1.46,3.52,3.52,0,0,0,.13,1,2.46,2.46,0,0,0,.41.82,1.94,1.94,0,0,0,.7.57,2.32,2.32,0,0,0,1,.21,2.24,2.24,0,0,0,.85-.16,2.42,2.42,0,0,0,.71-.43,2.54,2.54,0,0,0,.52-.64,2.31,2.31,0,0,0,.28-.76H20a8,8,0,0,1-.79,1.78,4.67,4.67,0,0,1-1,1.18,3.61,3.61,0,0,1-1.26.66,5.34,5.34,0,0,1-1.5.2,4.49,4.49,0,0,1-3.28-1.13A4.39,4.39,0,0,1,11,11.55a7,7,0,0,1,.38-2.31,5.94,5.94,0,0,1,1.08-1.92,5.12,5.12,0,0,1,4-1.81A5.25,5.25,0,0,1,18,5.74a3.6,3.6,0,0,1,1.28.71,3.15,3.15,0,0,1,.83,1.16,3.92,3.92,0,0,1,.28,1.6h-2.2A1.83,1.83,0,0,0,17.74,7.81Z"/><path class="cls-2" d="M21.25,11.06a4.33,4.33,0,0,1,.83-1.44,3.9,3.9,0,0,1,1.31-1,4.09,4.09,0,0,1,1.74-.36,4.68,4.68,0,0,1,1.37.19,3,3,0,0,1,1.07.57,2.53,2.53,0,0,1,.69,1,3.45,3.45,0,0,1,.25,1.36,5.44,5.44,0,0,1-.29,1.79,4.24,4.24,0,0,1-.83,1.45,3.86,3.86,0,0,1-1.32,1,4.27,4.27,0,0,1-1.77.35,3.57,3.57,0,0,1-2.42-.78,2.91,2.91,0,0,1-.9-2.33A5.23,5.23,0,0,1,21.25,11.06ZM23,13.42a1.51,1.51,0,0,0,.27.52,1.33,1.33,0,0,0,.45.36,1.35,1.35,0,0,0,.62.13,1.55,1.55,0,0,0,1-.3,2.45,2.45,0,0,0,.66-.76,3.7,3.7,0,0,0,.38-1,4.33,4.33,0,0,0,.13-1,1.88,1.88,0,0,0-.33-1.16,1.33,1.33,0,0,0-1.13-.43,1.52,1.52,0,0,0-.94.3,2.4,2.4,0,0,0-.65.75,3.77,3.77,0,0,0-.38,1,4.24,4.24,0,0,0-.13,1A2.07,2.07,0,0,0,23,13.42Z"/><path class="cls-2" d="M32.37,8.49l-.22,1h0a2.72,2.72,0,0,1,1.09-.92,3.44,3.44,0,0,1,1.44-.29,2.15,2.15,0,0,1,1.15.29,1.36,1.36,0,0,1,.6,1A2.27,2.27,0,0,1,36.92,9a3.45,3.45,0,0,1,.6-.4,3.12,3.12,0,0,1,.68-.26,2.84,2.84,0,0,1,.71-.09,3,3,0,0,1,.82.11,2.2,2.2,0,0,1,.71.34,1.62,1.62,0,0,1,.49.57,1.74,1.74,0,0,1,.18.81,3.37,3.37,0,0,1-.07.68l-.14.67L40,15.73H38l1-4.58a2.67,2.67,0,0,0,.06-.52.71.71,0,0,0-.25-.55.89.89,0,0,0-.62-.22,1.34,1.34,0,0,0-.71.19,2,2,0,0,0-.55.48,2.81,2.81,0,0,0-.39.64,3.47,3.47,0,0,0-.22.69l-.81,3.88h-2l1-4.58a2.67,2.67,0,0,0,.06-.52.71.71,0,0,0-.25-.55.89.89,0,0,0-.62-.22,1.34,1.34,0,0,0-.71.19,2,2,0,0,0-.55.48,2.81,2.81,0,0,0-.38.64,3.42,3.42,0,0,0-.22.69l-.81,3.88H29l1.5-7.24Z"/><path class="cls-2" d="M45.2,8.49l-1.54,7.24h-2L43.2,8.49ZM43.42,7.37l.36-1.64h2l-.36,1.64Z"/><path class="cls-2" d="M48.7,8.49l-.22,1h0A3.09,3.09,0,0,1,51,8.3q2.11,0,2.11,1.95a1.9,1.9,0,0,1,0,.29c0,.12,0,.24-.06.36l-.07.34c0,.11,0,.19,0,.26L52,15.73h-2l.88-4.24L51,11a2.75,2.75,0,0,0,0-.43.63.63,0,0,0-.3-.53,1.12,1.12,0,0,0-.65-.21,1.72,1.72,0,0,0-.79.18,2,2,0,0,0-.59.46,2.5,2.5,0,0,0-.41.64,4,4,0,0,0-.25.74l-.81,3.85h-2l1.5-7.24Z"/><path class="cls-2" d="M60.33,16.75a2.93,2.93,0,0,1-.79,1,3.21,3.21,0,0,1-1.15.56,6,6,0,0,1-1.56.18,4.94,4.94,0,0,1-1.1-.13,3.14,3.14,0,0,1-1-.41A2.22,2.22,0,0,1,54,17.2a2.09,2.09,0,0,1-.27-1.11h2a.86.86,0,0,0,.1.48.94.94,0,0,0,.3.32,1.31,1.31,0,0,0,.43.18,2.09,2.09,0,0,0,.48.06,1.48,1.48,0,0,0,.79-.2,1.76,1.76,0,0,0,.54-.53,3.35,3.35,0,0,0,.38-.8q.15-.46.31-1l0,0a2.38,2.38,0,0,1-2,1,3.07,3.07,0,0,1-1.16-.21,2.36,2.36,0,0,1-.87-.6,2.77,2.77,0,0,1-.55-.93,3.52,3.52,0,0,1-.2-1.21,5.19,5.19,0,0,1,.25-1.58,4.59,4.59,0,0,1,.71-1.4,3.72,3.72,0,0,1,1.15-1,3.08,3.08,0,0,1,1.55-.39,2.88,2.88,0,0,1,1.33.29,1.94,1.94,0,0,1,.88,1h0l.22-1.11h1.9l-1.44,6.86A5.75,5.75,0,0,1,60.33,16.75Zm-3-6.69a2.31,2.31,0,0,0-.63.67,3.24,3.24,0,0,0-.38.88,3.45,3.45,0,0,0-.13.92,2.36,2.36,0,0,0,.08.61,1.49,1.49,0,0,0,.25.51A1.18,1.18,0,0,0,57,14a1.33,1.33,0,0,0,.6.13,1.67,1.67,0,0,0,.93-.26,2.22,2.22,0,0,0,.66-.66,3.13,3.13,0,0,0,.39-.89,3.62,3.62,0,0,0,.13-1,1.76,1.76,0,0,0-.35-1.13,1.29,1.29,0,0,0-1.08-.44A1.49,1.49,0,0,0,57.38,10.06Z"/><path class="cls-2" d="M12.73,27.3a1.32,1.32,0,0,0,.45.57,1.9,1.9,0,0,0,.7.3,4,4,0,0,0,.88.09,2.76,2.76,0,0,0,.67-.08,2.13,2.13,0,0,0,.61-.25,1.41,1.41,0,0,0,.45-.43,1.15,1.15,0,0,0,.17-.64.82.82,0,0,0-.22-.6,2,2,0,0,0-.58-.4,5.09,5.09,0,0,0-.81-.29l-.92-.27a7.74,7.74,0,0,1-.92-.34,3.18,3.18,0,0,1-.8-.5,2.32,2.32,0,0,1-.57-.76,2.49,2.49,0,0,1-.22-1.09A2.74,2.74,0,0,1,12,21.18a2.94,2.94,0,0,1,.91-1,4,4,0,0,1,1.27-.55,5.94,5.94,0,0,1,1.43-.17,5.79,5.79,0,0,1,1.45.17,3.28,3.28,0,0,1,1.19.57,2.82,2.82,0,0,1,.81,1,3.31,3.31,0,0,1,.3,1.48H17.24a1.56,1.56,0,0,0-.12-.71,1.21,1.21,0,0,0-.38-.47,1.55,1.55,0,0,0-.58-.26,3.22,3.22,0,0,0-.71-.08,3.17,3.17,0,0,0-.62.06,1.83,1.83,0,0,0-.57.21,1.19,1.19,0,0,0-.41.38,1.06,1.06,0,0,0-.15.59.78.78,0,0,0,.27.61,2.29,2.29,0,0,0,.66.41,4.72,4.72,0,0,0,.79.25l.66.15a8.45,8.45,0,0,1,1.08.36,2.91,2.91,0,0,1,.85.52,2.2,2.2,0,0,1,.55.78,2.92,2.92,0,0,1,.2,1.13,3,3,0,0,1-.37,1.53,3.12,3.12,0,0,1-1,1,4,4,0,0,1-1.31.57,6.15,6.15,0,0,1-1.44.18,4.83,4.83,0,0,1-3.13-.85,3.3,3.3,0,0,1-1-2.69h2.09A2,2,0,0,0,12.73,27.3Z"/><path class="cls-2" d="M19.95,25.06a4.33,4.33,0,0,1,.83-1.44,3.9,3.9,0,0,1,1.31-1,4.09,4.09,0,0,1,1.74-.36,4.68,4.68,0,0,1,1.37.19,3,3,0,0,1,1.07.57,2.53,2.53,0,0,1,.69,1,3.45,3.45,0,0,1,.25,1.36,5.44,5.44,0,0,1-.29,1.79,4.24,4.24,0,0,1-.83,1.45,3.86,3.86,0,0,1-1.32,1,4.27,4.27,0,0,1-1.77.35,3.57,3.57,0,0,1-2.42-.78,2.91,2.91,0,0,1-.9-2.33A5.23,5.23,0,0,1,19.95,25.06Zm1.79,2.36a1.51,1.51,0,0,0,.27.52,1.33,1.33,0,0,0,.45.36,1.35,1.35,0,0,0,.62.13,1.55,1.55,0,0,0,1-.3,2.45,2.45,0,0,0,.66-.76,3.7,3.7,0,0,0,.38-1,4.33,4.33,0,0,0,.13-1,1.88,1.88,0,0,0-.33-1.16,1.33,1.33,0,0,0-1.13-.43,1.52,1.52,0,0,0-.94.3,2.4,2.4,0,0,0-.65.75,3.77,3.77,0,0,0-.38,1,4.24,4.24,0,0,0-.13,1A2.07,2.07,0,0,0,21.74,27.42Z"/><path class="cls-2" d="M28.25,25.06a4.33,4.33,0,0,1,.83-1.44,3.9,3.9,0,0,1,1.31-1,4.09,4.09,0,0,1,1.74-.36,4.68,4.68,0,0,1,1.37.19,3,3,0,0,1,1.07.57,2.53,2.53,0,0,1,.69,1,3.45,3.45,0,0,1,.25,1.36,5.44,5.44,0,0,1-.29,1.79,4.24,4.24,0,0,1-.83,1.45,3.86,3.86,0,0,1-1.32,1,4.27,4.27,0,0,1-1.77.35,3.57,3.57,0,0,1-2.42-.78,2.91,2.91,0,0,1-.9-2.33A5.23,5.23,0,0,1,28.25,25.06ZM30,27.42a1.51,1.51,0,0,0,.27.52,1.33,1.33,0,0,0,.45.36,1.35,1.35,0,0,0,.62.13,1.55,1.55,0,0,0,1-.3,2.45,2.45,0,0,0,.66-.76,3.7,3.7,0,0,0,.38-1,4.33,4.33,0,0,0,.13-1,1.88,1.88,0,0,0-.33-1.16,1.33,1.33,0,0,0-1.13-.43,1.52,1.52,0,0,0-.94.3,2.4,2.4,0,0,0-.65.75,3.77,3.77,0,0,0-.38,1,4.24,4.24,0,0,0-.13,1A2.07,2.07,0,0,0,30,27.42Z"/><path class="cls-2" d="M39.37,22.49l-.22,1h0a3.09,3.09,0,0,1,2.53-1.2q2.11,0,2.11,1.95a1.9,1.9,0,0,1,0,.29c0,.12,0,.24-.06.36l-.07.34c0,.11,0,.19,0,.26l-.9,4.24h-2l.88-4.24.08-.45a2.75,2.75,0,0,0,0-.43.63.63,0,0,0-.3-.53,1.12,1.12,0,0,0-.65-.21A1.72,1.72,0,0,0,40,24a2,2,0,0,0-.59.46,2.5,2.5,0,0,0-.41.64,4,4,0,0,0-.25.74l-.81,3.85H36l1.5-7.24Z"/><path class="cls-2" d="M47.3,27.58l-.46,2.16h-2.2l.45-2.16Zm-.46-.84h-1l.35-4.28.57-2.72h2.11l-.59,2.72Z"/></g></g></svg>