<svg xmlns="http://www.w3.org/2000/svg" viewBox="0 0 71.21 43.72"><defs><style>.cls-1{fill:#6bffba;}.cls-2{fill:#006464;}</style></defs><title>資產 5</title><g id="圖層_2" data-name="圖層 2"><g id="UI"><rect class="cls-1" width="71.21" height="36.13" rx="18.06" ry="18.06"/><path class="cls-1" d="M31.11,35.4V43a.72.72,0,0,0,1.24.51L39.89,36a.72.72,0,0,0-.51-1.24l-7.55,0A.72.72,0,0,0,31.11,35.4Z"/><path class="cls-2" d="M24.61,19.62H21.52v5.59H19.7V19.62H16.58V17.93H19.7v-3h-.9a12,12,0,0,1-1.3,2.32,10.23,10.23,0,0,0-1.37-.87v.77H11.32V15.8h4.81V16a6.53,6.53,0,0,0,.58-.9H10.59V13.7h2.52a7.38,7.38,0,0,0-.66-2l1.28-.46a6,6,0,0,1,.78,2.1l-.9.36h3.13v1.4a13.85,13.85,0,0,0,1.38-3.93l1.8.36c-.13.6-.32,1.18-.51,1.77h4.88v1.64H21.52v3h3.09Zm-8.52,4.81H12.82V25H11.28V19.91h4.81Zm-4.77-6.6h4.81v1.33H11.32Zm1.5,3.48V23h1.71V21.32Z"/><path class="cls-2" d="M32.53,11.49c-.22.73-.48,1.48-.71,2.13h1.71V22.7H30.67v1.14H29.16V13.62h1.14a17.32,17.32,0,0,0,.36-2.38ZM32,15.18H30.67v2.16H32Zm0,6V18.89H30.67v2.25Zm10.63-4.23v1.6H34v-1.6h3.49V15H36a12,12,0,0,1-.79,1.89,8.43,8.43,0,0,0-1.5-.81A12.39,12.39,0,0,0,35,11.67l1.7.3c-.08.5-.18,1-.29,1.46h1.06V11.22h1.82v2.21H42V15h-2.7v1.89Zm-8,2.47H42v5.8h-1.8v-.61H36.36v.63H34.63ZM36.36,21v2h3.79V21Z"/><path class="cls-2" d="M60,12.2v2.56H58.21V13.64H53.49a24.49,24.49,0,0,1,2.23,1.19l-1,1a20,20,0,0,0-2.56-1.46l.76-.73H48.88v1.13H47.17V12.2h5.56a7.58,7.58,0,0,0-.39-.78l1.8-.27a5.55,5.55,0,0,1,.58,1ZM59,23.6c0,.77-.15,1.14-.69,1.37a5.86,5.86,0,0,1-2.28.25,5.12,5.12,0,0,0-.51-1.41c.6,0,1.29,0,1.48,0s.27-.06.27-.25v-.44H54.43v1.92H52.77V23.13h-3a4.76,4.76,0,0,1-1.14,2.17,8.08,8.08,0,0,0-1.29-1.2,4.68,4.68,0,0,0,1-3.42V17.88H59Zm-1.49-9.31a24.38,24.38,0,0,1,2.33,2.38l-1.38.72a18.25,18.25,0,0,0-1.3-1.52c-.18,1.19-.65,1.52-1.82,1.52H53c-1.75,0-2.19-.39-2.19-1.68v-.52a9.45,9.45,0,0,1-2,2.43l-1.28-1a7,7,0,0,0,2.05-2.22L50.8,15v-.53h1.62v1.17c0,.36.12.41.74.41h2c.46,0,.57-.12.63-.83a6.15,6.15,0,0,0,1.2.44c-.27-.27-.54-.54-.79-.78Zm-4.71,7.54v-.69H50c0,.23,0,.45,0,.69ZM50,19.23v.66h2.78v-.66Zm4.44,0v.66h2.81v-.66Zm2.81,2.59v-.69H54.43v.69Z"/></g></g></svg>