<svg xmlns="http://www.w3.org/2000/svg" xmlns:xlink="http://www.w3.org/1999/xlink" viewBox="0 0 69.16 68.63"><defs><style>.cls-1,.cls-11,.cls-12,.cls-13,.cls-14,.cls-15,.cls-17,.cls-18,.cls-3,.cls-4,.cls-7,.cls-8,.cls-9{fill:none;}.cls-2{fill:#ff9947;}.cls-11,.cls-12,.cls-13,.cls-15,.cls-3,.cls-4,.cls-7,.cls-8,.cls-9{stroke:#006464;}.cls-11,.cls-12,.cls-13,.cls-14,.cls-15,.cls-3,.cls-4,.cls-7,.cls-8,.cls-9{stroke-linecap:round;}.cls-17,.cls-18,.cls-3,.cls-4,.cls-7,.cls-8,.cls-9{stroke-miterlimit:10;}.cls-3,.cls-4{stroke-width:0.31px;}.cls-3{stroke-dasharray:1.38 0.76;}.cls-4{stroke-dasharray:1.38 0.76;}.cls-5{fill:#00364b;}.cls-6{fill:url(#_10_dpi_40_2);}.cls-7,.cls-8,.cls-9{stroke-width:0.28px;}.cls-7{stroke-dasharray:1.26 0.7;}.cls-8{stroke-dasharray:1.31 0.73;}.cls-9{stroke-dasharray:1.36 0.75;}.cls-10{fill:#ffcd32;}.cls-11,.cls-12,.cls-15{stroke-linejoin:round;}.cls-11{stroke-width:0.96px;}.cls-12,.cls-13{stroke-width:0.64px;}.cls-14{stroke:#ffcd32;stroke-width:1.91px;}.cls-15{stroke-width:1.28px;}.cls-16{fill:#ff665c;}.cls-17,.cls-18{stroke:#ff9947;}.cls-17{stroke-width:0.78px;}.cls-18{stroke-width:0.71px;}</style><pattern id="_10_dpi_40_2" data-name="10 dpi 40% 2" width="60" height="61" patternTransform="translate(-34.24 -7.21) scale(0.14)" patternUnits="userSpaceOnUse" viewBox="0 0 60 61"><rect class="cls-1" width="60" height="61"/><circle class="cls-2" cx="56.23" cy="56.73" r="4.22"/><circle class="cls-2" cx="26.06" cy="56.73" r="4.22"/><circle class="cls-2" cx="56.23" cy="26.56" r="4.22"/><circle class="cls-2" cx="26.06" cy="26.56" r="4.22"/><circle class="cls-2" cx="10.97" cy="41.64" r="4.22"/><circle class="cls-2" cx="41.14" cy="41.64" r="4.22"/><circle class="cls-2" cx="10.97" cy="11.47" r="4.22"/><circle class="cls-2" cx="41.14" cy="11.47" r="4.22"/><circle class="cls-2" cx="-3.77" cy="56.73" r="4.22"/><circle class="cls-2" cx="-3.77" cy="26.56" r="4.22"/></pattern></defs><title>資產 132</title><g id="圖層_2" data-name="圖層 2"><g id="頂部小人"><ellipse class="cls-2" cx="41.79" cy="56.52" rx="27.38" ry="12.09" transform="translate(-1.58 1.2) rotate(-1.61)"/><ellipse class="cls-3" cx="41.86" cy="56.3" rx="25.02" ry="10.86" transform="translate(-1.18 0.9) rotate(-1.21)"/><ellipse class="cls-3" cx="41.79" cy="55.86" rx="21.27" ry="9.22" transform="translate(-1.17 0.89) rotate(-1.21)"/><ellipse class="cls-4" cx="41.73" cy="55.42" rx="17.52" ry="7.58" transform="translate(-1.16 0.89) rotate(-1.21)"/><path class="cls-2" d="M56.47,51.67c.35,2.37.14,4.17-1.35,5.58C52,60.18,49.69,60.86,42.6,61c-8.42.21-11.4-1.17-13.18-2.38a5.61,5.61,0,0,1-2.66-4.72l.3-7.64a7.9,7.9,0,0,1,3.62-6.4,16.29,16.29,0,0,1,7.67-2.56l5.25-.22a17.62,17.62,0,0,1,6.76,1.15,8,8,0,0,1,5.07,6.44S56.12,49.29,56.47,51.67Z"/><path class="cls-5" d="M56.23,50A4.49,4.49,0,0,1,55,52c-3.11,2.93-6.51,4.34-12.51,4.5-7,.18-11.42-1.87-13.2-3.08a6.1,6.1,0,0,1-2.38-2.94l-.14,3.46a5.61,5.61,0,0,0,2.66,4.72c1.78,1.21,4.84,3.1,13.27,2.88,7.08-.18,9.33-1.37,12.44-4.3,1.49-1.41,1.7-3.2,1.35-5.58Z"/><path class="cls-6" d="M56.23,50A4.49,4.49,0,0,1,55,52c-3.11,2.93-6.51,4.34-12.51,4.5-7,.18-11.42-1.87-13.2-3.08a6.1,6.1,0,0,1-2.38-2.94l-.14,3.46a5.61,5.61,0,0,0,2.66,4.72c1.78,1.21,4.84,3.1,13.27,2.88,7.08-.18,9.33-1.37,12.44-4.3,1.49-1.41,1.7-3.2,1.35-5.58Z"/><ellipse class="cls-7" cx="41.55" cy="42.11" rx="11.61" ry="4.19" transform="translate(-1.1 1.11) rotate(-1.51)"/><ellipse class="cls-8" cx="41.55" cy="41.96" rx="9.29" ry="3.01" transform="translate(-1.09 1.11) rotate(-1.51)"/><ellipse class="cls-9" cx="41.54" cy="41.81" rx="6.98" ry="1.82" transform="translate(-1.09 1.11) rotate(-1.51)"/><path class="cls-4" d="M56,48.61c-1,3.4-6.6,6.61-14.14,6.52C35.54,55,29.28,53.42,27,49.37"/><path class="cls-10" d="M34.19,1.72C32.72-.61,30.39-.57,29,1.8L22.62,12.73C21.23,15.1,22.35,17,25.1,17H38.83c2.75,0,3.8-1.9,2.34-4.23Z"/><path class="cls-11" d="M30.29,10.54a12.63,12.63,0,0,0-3.41,0"/><polyline class="cls-12" points="34.47 14.97 31.74 16.12 28.89 14.92"/><path class="cls-11" d="M34.84,8.23h1a2.23,2.23,0,0,1,2.23,2.23v1.92a1,1,0,0,1-1,1H33.63a1,1,0,0,1-1-1V10.46a2.23,2.23,0,0,1,2.23-2.23Z" transform="translate(70.7 21.63) rotate(180)"/><path class="cls-11" d="M27.61,8.23h1a2.23,2.23,0,0,1,2.23,2.23v1.92a1,1,0,0,1-1,1H26.4a1,1,0,0,1-1-1V10.46A2.23,2.23,0,0,1,27.61,8.23Z" transform="translate(56.24 21.63) rotate(-180)"/><line class="cls-11" x1="32.61" y1="9.25" x2="30.86" y2="9.25"/><line class="cls-13" x1="28.21" y1="10.37" x2="28.02" y2="9.77"/><line class="cls-13" x1="26.88" y1="10.37" x2="26.69" y2="9.77"/><path class="cls-11" d="M33.15,10.54a12.63,12.63,0,0,1,3.41,0"/><line class="cls-13" x1="36.47" y1="10.37" x2="36.66" y2="9.77"/><line class="cls-13" x1="35.17" y1="10.37" x2="35.36" y2="9.77"/><line class="cls-14" x1="40.42" y1="5.57" x2="22.93" y2="5.57"/><line class="cls-15" x1="36.01" y1="4.15" x2="27.54" y2="4.15"/><line class="cls-12" x1="25.08" y1="15.03" x2="24.37" y2="14.39"/><line class="cls-12" x1="23.82" y1="15.03" x2="23.11" y2="14.39"/><line class="cls-12" x1="38.35" y1="15.03" x2="39.07" y2="14.39"/><line class="cls-12" x1="39.63" y1="15.03" x2="40.35" y2="14.39"/><path class="cls-10" d="M29.06,25.94a2.11,2.11,0,0,0-2.1-2.1H18.51a2.11,2.11,0,0,1-2.1-2.1v-.15a2.11,2.11,0,0,1,2.1-2.1H36.33a2.63,2.63,0,0,1,2.48,2.07L42.58,42a1.69,1.69,0,0,1-1.72,2.07h-9.7a2.11,2.11,0,0,0-2.1,2.1V59.46a2.11,2.11,0,0,1-2.1,2.1H22.69a2.11,2.11,0,0,1-2.1-2.1v-.15a2.09,2.09,0,0,1,2.06-2.1,2.09,2.09,0,0,0,2.06-2.1V41.86a2.17,2.17,0,0,1,2.1-2.15H27a2.17,2.17,0,0,0,2.1-2.15,2,2,0,0,0-2-2.09H22.87a2.11,2.11,0,0,1-2.1-2.1V29.12a2.06,2.06,0,0,1,2.1-2H23a2.06,2.06,0,0,1,2.1,2,2,2,0,0,0,2,2,2,2,0,0,0,2-2.1Z"/><path class="cls-16" d="M30.6,19.11l9.49,8.71-.27-6.1a3.45,3.45,0,0,0-3.41-3Z"/><path class="cls-17" d="M.38,28.84S8,55.41,34.32,49.71"/><path class="cls-17" d="M3.75,25s2.35,28.34,31,24.47"/><path class="cls-17" d="M7.12,21.09S4.18,51.19,35.21,49.16"/><path class="cls-17" d="M10.5,17.22S2.27,49.07,35.66,48.89"/><path class="cls-17" d="M13.87,13.35S.35,47,36.1,48.61"/><path class="cls-18" d="M20.28,14.67S11.95,50.78,41.12,51.9"/><path class="cls-18" d="M18.69,15.91S9.36,53.29,40.93,51.7"/><path class="cls-18" d="M17.09,17.16S6.78,55.81,40.74,51.5"/><path class="cls-18" d="M15.5,18.41S4.2,58.33,40.56,51.3"/><path class="cls-18" d="M13.91,19.65S1.62,60.85,40.37,51.09"/></g></g></svg>