<svg xmlns="http://www.w3.org/2000/svg" xmlns:xlink="http://www.w3.org/1999/xlink" viewBox="0 0 847.27 391.21"><defs><style>.cls-1,.cls-11,.cls-15,.cls-16,.cls-17,.cls-18,.cls-19,.cls-21,.cls-22,.cls-3,.cls-4,.cls-7,.cls-8,.cls-9{fill:none;}.cls-2{fill:#ff9947;}.cls-15,.cls-16,.cls-17,.cls-19,.cls-3,.cls-4,.cls-7,.cls-8,.cls-9{stroke:#006464;}.cls-12,.cls-13,.cls-15,.cls-16,.cls-17,.cls-18,.cls-19,.cls-3,.cls-4,.cls-7,.cls-8,.cls-9{stroke-linecap:round;}.cls-11,.cls-12,.cls-13,.cls-21,.cls-22,.cls-3,.cls-4,.cls-7,.cls-8,.cls-9{stroke-miterlimit:10;}.cls-3,.cls-4{stroke-width:3.06px;}.cls-3{stroke-dasharray:13.75 7.64;}.cls-4{stroke-dasharray:13.75 7.64;}.cls-5{fill:#00364b;}.cls-6{fill:url(#_10_dpi_40_2);}.cls-7,.cls-8,.cls-9{stroke-width:2.8px;}.cls-7{stroke-dasharray:12.6 7;}.cls-8{stroke-dasharray:13.08 7.27;}.cls-9{stroke-dasharray:13.57 7.54;}.cls-10,.cls-12,.cls-13{fill:#e0e0e0;}.cls-11,.cls-12{stroke:#e0e0e0;}.cls-11{stroke-width:1.5px;}.cls-12,.cls-13{stroke-width:4.78px;}.cls-13{stroke:#ff665c;}.cls-14{fill:#ffcd32;}.cls-15,.cls-16,.cls-19{stroke-linejoin:round;}.cls-15{stroke-width:3.19px;}.cls-16,.cls-17{stroke-width:2.13px;}.cls-18{stroke:#ffcd32;stroke-width:6.38px;}.cls-19{stroke-width:4.25px;}.cls-20{fill:#ff665c;}.cls-21,.cls-22{stroke:#ff9947;}.cls-21{stroke-width:3.5px;}.cls-22{stroke-width:3.15px;}.cls-23{fill:#6bffba;}.cls-24{fill:#004864;}</style><pattern id="_10_dpi_40_2" data-name="10 dpi 40% 2" width="60" height="61" patternTransform="translate(58.37 -12.16) scale(1.4)" patternUnits="userSpaceOnUse" viewBox="0 0 60 61"><rect class="cls-1" width="60" height="61"/><circle class="cls-2" cx="56.23" cy="56.73" r="4.22"/><circle class="cls-2" cx="26.06" cy="56.73" r="4.22"/><circle class="cls-2" cx="56.23" cy="26.56" r="4.22"/><circle class="cls-2" cx="26.06" cy="26.56" r="4.22"/><circle class="cls-2" cx="10.97" cy="41.64" r="4.22"/><circle class="cls-2" cx="41.14" cy="41.64" r="4.22"/><circle class="cls-2" cx="10.97" cy="11.47" r="4.22"/><circle class="cls-2" cx="41.14" cy="11.47" r="4.22"/><circle class="cls-2" cx="-3.77" cy="56.73" r="4.22"/><circle class="cls-2" cx="-3.77" cy="26.56" r="4.22"/></pattern></defs><title>資產 117</title><g id="圖層_2" data-name="圖層 2"><g id="content"><ellipse class="cls-2" cx="573.91" cy="279.16" rx="273.44" ry="120.7" transform="translate(-7.64 7.42) rotate(-1.61)"/><ellipse class="cls-3" cx="574.65" cy="277" rx="249.83" ry="108.44" transform="translate(-5.72 3.32) rotate(-1.21)"/><ellipse class="cls-4" cx="573.96" cy="272.58" rx="212.37" ry="92.07" transform="translate(-5.62 3.31) rotate(-1.21)"/><ellipse class="cls-4" cx="573.27" cy="268.17" rx="174.92" ry="75.7" transform="translate(-5.53 3.29) rotate(-1.21)"/><path class="cls-2" d="M720.55,230.71c3.5,23.72,1.45,41.63-13.45,55.68-31,29.3-54.33,36.11-125.06,37.91-84.12,2.14-113.89-11.68-131.63-23.76-5-3.4-27.26-18.56-26.55-47.17l3-76.31A78.85,78.85,0,0,1,463,113.14C486,98.07,516,88.6,539.55,87.62L592,85.45c20.29-.84,45.63,3,67.52,11.47,27.94,10.87,47.17,35.67,50.6,64.28C710.13,161.2,717,207,720.55,230.71Z" transform="translate(0 -8.86)"/><path class="cls-5" d="M718.13,214.43a44.8,44.8,0,0,1-12.41,19.66c-31,29.3-65,43.33-124.88,44.91-69.66,1.84-114.07-18.68-131.81-30.75-3.83-2.61-17.82-12.15-23.81-29.36l-1.36,34.5c-.71,28.6,21.56,43.77,26.55,47.17,17.74,12.08,48.36,30.92,132.48,28.78,70.73-1.8,93.16-13.64,124.21-42.94,14.89-14.06,17-32,13.45-55.68C719.86,226,719,220.38,718.13,214.43Z" transform="translate(0 -8.86)"/><path class="cls-6" d="M718.13,214.43a44.8,44.8,0,0,1-12.41,19.66c-31,29.3-65,43.33-124.88,44.91-69.66,1.84-114.07-18.68-131.81-30.75-3.83-2.61-17.82-12.15-23.81-29.36l-1.36,34.5c-.71,28.6,21.56,43.77,26.55,47.17,17.74,12.08,48.36,30.92,132.48,28.78,70.73-1.8,93.16-13.64,124.21-42.94,14.89-14.06,17-32,13.45-55.68C719.86,226,719,220.38,718.13,214.43Z" transform="translate(0 -8.86)"/><ellipse class="cls-7" cx="571.52" cy="135.25" rx="115.96" ry="41.88" transform="translate(-3.38 6.29) rotate(-1.51)"/><ellipse class="cls-8" cx="571.48" cy="133.77" rx="92.81" ry="30.04" transform="translate(-3.34 6.29) rotate(-1.51)"/><ellipse class="cls-9" cx="571.44" cy="132.29" rx="69.66" ry="18.2" transform="translate(-3.3 6.28) rotate(-1.51)"/><path class="cls-4" d="M716.15,200.15c-10.43,33.94-65.92,66-141.2,65.07-63.41-.77-125.92-17-148.64-57.41" transform="translate(0 -8.86)"/><path class="cls-10" d="M661.44,62.25c2,0,3.59,2,3.59,4.38S667.72,71,671,71h3.47a6,6,0,0,0,6-6v-8.9a6,6,0,0,1,6-6h.41a6,6,0,0,1,6,6v28.1a6,6,0,0,1-6,6h-23a6,6,0,0,1-6-6v-16C657.85,64.94,659.46,62.25,661.44,62.25Z" transform="translate(0 -8.86)"/><path class="cls-11" d="M661.44,62.25c2,0,3.59,2,3.59,4.38S667.72,71,671,71h3.47a6,6,0,0,0,6-6v-8.9a6,6,0,0,1,6-6h.41a6,6,0,0,1,6,6v28.1a6,6,0,0,1-6,6h-23a6,6,0,0,1-6-6v-16C657.85,64.94,659.46,62.25,661.44,62.25Z" transform="translate(0 -8.86)"/><line class="cls-12" x1="670.84" y1="74.6" x2="670.84" y2="92.82"/><line class="cls-12" x1="678.65" y1="74.6" x2="678.65" y2="98.66"/><line class="cls-13" x1="692.05" y1="52.19" x2="695.18" y2="52.19"/><path class="cls-14" d="M445,17.59c-4.88-7.75-12.65-7.63-17.27.28L406.48,54.29c-4.62,7.91-.91,14.38,8.25,14.38h45.79c9.16,0,12.66-6.34,7.78-14.1Z" transform="translate(0 -8.86)"/><path class="cls-15" d="M432.06,47a42.11,42.11,0,0,0-11.37,0" transform="translate(0 -8.86)"/><polyline class="cls-16" points="445.98 52.9 436.86 56.72 427.36 52.74"/><path class="cls-15" d="M447.2,39.28h3.43a7.43,7.43,0,0,1,7.43,7.43v6.41a3.41,3.41,0,0,1-3.41,3.41H443.18a3.41,3.41,0,0,1-3.41-3.41V46.71a7.43,7.43,0,0,1,7.43-7.43Z" transform="translate(897.82 86.94) rotate(180)"/><path class="cls-15" d="M423.1,39.28h3.43A7.43,7.43,0,0,1,434,46.71v6.41a3.41,3.41,0,0,1-3.41,3.41H419.08a3.41,3.41,0,0,1-3.41-3.41V46.71A7.43,7.43,0,0,1,423.1,39.28Z" transform="translate(849.63 86.94) rotate(180)"/><line class="cls-15" x1="439.77" y1="33.82" x2="433.96" y2="33.82"/><line class="cls-17" x1="425.12" y1="37.57" x2="424.49" y2="35.55"/><line class="cls-17" x1="420.68" y1="37.57" x2="420.06" y2="35.55"/><path class="cls-15" d="M441.58,47A42.11,42.11,0,0,1,453,47" transform="translate(0 -8.86)"/><line class="cls-17" x1="452.64" y1="37.57" x2="453.27" y2="35.55"/><line class="cls-17" x1="448.3" y1="37.57" x2="448.93" y2="35.55"/><line class="cls-18" x1="465.8" y1="21.56" x2="407.53" y2="21.56"/><line class="cls-19" x1="451.1" y1="16.83" x2="422.88" y2="16.83"/><line class="cls-16" x1="414.69" y1="53.08" x2="412.3" y2="50.95"/><line class="cls-16" x1="410.49" y1="53.08" x2="408.1" y2="50.95"/><line class="cls-16" x1="458.91" y1="53.08" x2="461.3" y2="50.95"/><line class="cls-16" x1="463.19" y1="53.08" x2="465.58" y2="50.95"/><path class="cls-14" d="M428,98.31a7,7,0,0,0-7-7H392.77a7,7,0,0,1-7-7v-.48a7,7,0,0,1,7-7h59.39a8.76,8.76,0,0,1,8.27,6.88L473,152a5.63,5.63,0,0,1-5.73,6.88H435a7,7,0,0,0-7,7V210a7,7,0,0,1-7,7H406.7a7,7,0,0,1-7-7v-.48a7,7,0,0,1,6.88-7,7,7,0,0,0,6.88-7V151.39a7.24,7.24,0,0,1,7-7.18H421a7.23,7.23,0,0,0,7-7.16,6.81,6.81,0,0,0-6.58-7H407.3a7,7,0,0,1-7-7V108.91a6.86,6.86,0,0,1,7-6.67h.48a6.86,6.86,0,0,1,7,6.67,6.65,6.65,0,0,0,6.58,6.67,6.82,6.82,0,0,0,6.58-7Z" transform="translate(0 -8.86)"/><path class="cls-20" d="M433.09,75.57l31.65,29-.91-20.32a11.49,11.49,0,0,0-11.37-9.85Z" transform="translate(0 -8.86)"/><path class="cls-21" d="M309.21,103.28S343.34,222,460.9,196.57" transform="translate(0 -8.86)"/><path class="cls-21" d="M324.29,86s10.49,126.61,138.6,109.35" transform="translate(0 -8.86)"/><path class="cls-21" d="M339.36,68.69S326.22,203.15,464.87,194.11" transform="translate(0 -8.86)"/><path class="cls-21" d="M354.43,51.39S317.66,193.71,466.86,192.87" transform="translate(0 -8.86)"/><path class="cls-21" d="M369.51,34.1S309.1,184.28,468.85,191.64" transform="translate(0 -8.86)"/><path class="cls-22" d="M398.15,40S360.9,201.32,491.25,206.32" transform="translate(0 -8.86)"/><path class="cls-22" d="M391,45.54s-41.67,167,99.38,159.88" transform="translate(0 -8.86)"/><path class="cls-22" d="M383.91,51.11s-46.08,172.7,105.67,153.42" transform="translate(0 -8.86)"/><path class="cls-22" d="M376.79,56.68s-50.5,178.38,112,147" transform="translate(0 -8.86)"/><path class="cls-22" d="M369.66,62.25S314.75,246.32,487.92,202.74" transform="translate(0 -8.86)"/><rect class="cls-23" y="63.46" width="223.15" height="108.78" rx="54.39" ry="54.39"/><path class="cls-24" d="M81,102.7H51.51v10.42c0,1.55,0,3.34-.16,5.17a45.4,45.4,0,0,0,10.7-3.14c-.92,0-2,0-3.26,0a8.67,8.67,0,0,0-.6-2.59c-1.59.72-3.1,1.39-4.58,2l-1.39-2.82c2.15-.56,5.17-1.55,8.23-2.47l.44,2c-.87.4-1.67.76-2.51,1.11a19.66,19.66,0,0,0,2.59,0c.4,0,.52-.08.52-.48V107H56.32a27.26,27.26,0,0,1,2.31,1.87l-2.11,1.63a23,23,0,0,0-2.82-2.39L55.21,107H52.9V104H65.23v8.08a6.19,6.19,0,0,1-.12,1.31,12.11,12.11,0,0,0,1.11-.87l1.79.83-.83-1.75c2-.48,4.73-1.35,7.52-2.15l.4,2.07c-2,.88-3.86,1.75-5.65,2.55-.24.24-.52.44-.76.68a48.6,48.6,0,0,0,12.13,3.42,11.65,11.65,0,0,0-2.55,3.5,51,51,0,0,1-12.45-4.85,43.67,43.67,0,0,1-13.13,4.81,12.82,12.82,0,0,0-1.43-2.35c-.36,5.05-1.35,10.46-3.66,14.24A20.19,20.19,0,0,0,44,130.5c2.79-4.81,3-12,3-17.38V98.84H61.89a21.75,21.75,0,0,0-.84-2.15l4.77-1.11a34.77,34.77,0,0,1,1.35,3.26H81Zm-3.1,23.55c-4.85,4.1-13.29,6-22.55,7a13.21,13.21,0,0,0-1.91-3.3c8.55-.64,16.79-2.19,20.77-5.33Zm-5-3.34c-3.74,2.67-9.75,4.46-15.36,5.45a12.84,12.84,0,0,0-2-2.58c5.09-.72,11.06-2.35,14.12-4.38Zm-4.06-3.38c-2.67,2.19-7,3.82-10.82,4.73a14.27,14.27,0,0,0-2.19-2.19c3.46-.79,7.64-2.27,9.83-3.9Zm10.34-6.8c0,1.55-.28,2.23-1.27,2.67a12.41,12.41,0,0,1-4.3.44,10.68,10.68,0,0,0-.83-2.71c.88,0,1.91,0,2.23,0s.44-.12.44-.44v-5.65H70.29a29.89,29.89,0,0,1,2.39,1.87l-2.15,1.63a26,26,0,0,0-2.82-2.39l1.47-1.11H66.9v-2.94H79.24Z" transform="translate(0 -8.86)"/><path class="cls-24" d="M91.53,114.27a48.49,48.49,0,0,0,1.91-10.42l3.54.48a56.09,56.09,0,0,1-1.79,11.22Zm33.89.76a28.86,28.86,0,0,0-1.35-2.78c-14.12,1.23-16.27,1.51-17.78,2.11-.16-.68-.64-2.07-1.07-3.26l-1.51.76a52.83,52.83,0,0,0-1.95-5.89v27.25H97.06V96h4.69v7.6l2.79-1.11c.72,1.71,1.63,3.9,2.27,5.65a5.66,5.66,0,0,0,.52-.72,54.46,54.46,0,0,0,5.53-11.38l4.89,1.31a72.66,72.66,0,0,1-6.13,11.46l10.06-.68c-1-1.63-2.15-3.26-3.22-4.65l3.74-1.95a58.34,58.34,0,0,1,7.2,11.18Zm-18,1.51h18.54v16.63h-4.54v-1.59h-9.67v1.63H107.4Zm4.34,4.18v6.68h9.67v-6.68Z" transform="translate(0 -8.86)"/><path class="cls-24" d="M176.74,131.3H161.86v1.79h-4.26v-21.4c-.4.6-.83,1.19-1.23,1.71-.28-.44-.76-1.15-1.27-1.91v3.86h-2.23V128c0,2.31-.4,3.46-1.75,4.22s-3.34.84-6.17.84a20.84,20.84,0,0,0-1.27-4.38c1.83.08,3.62.08,4.22,0s.8-.16.8-.76V117.65a38.1,38.1,0,0,1-6.6,11.38,18.74,18.74,0,0,0-3-3.14c2.55-2.35,5.05-6.48,6.68-10.54h-5.81c.8-3.38,1.67-8.75,2.27-13.17h-2V97.92h15v4.26h-2.31V111h1.83c-.4-.52-.79-1-1.11-1.35,2.79-3.34,5.09-8.55,6.44-13.68l4.1,1.07c-.6,2.07-1.35,4.14-2.15,6.21h5.61a27.66,27.66,0,0,0-1.87-5.45l4.18-1.23a25.4,25.4,0,0,1,2.23,5.93l-2.43.76h6.8v4.22h-5.45v3.86h4.62v4h-4.62v3.82h4.62v4h-4.62V127h5.69Zm-30.63-29.12c-.4,2.82-.87,6-1.35,8.79h3.94v-8.79Zm20.61,5.25h-4.85v3.86h4.85Zm0,7.84h-4.85v3.82h4.85ZM161.86,127h4.85v-3.94h-4.85Z" transform="translate(0 -8.86)"/><path class="cls-24" d="M94.6,148.62H90.84v-2H94.6v-1H97v1h2.7v2H97v.91H94.6Zm13.72,14.13c0,1-.17,1.6-.79,2a5.37,5.37,0,0,1-2.62.39,6.44,6.44,0,0,0-.37-1.41V164H98v.58H96v-4.9a4.37,4.37,0,0,1-.46.44,12.92,12.92,0,0,0-1.39-1.43v6.41h-2.3V149.9h7.55v5.4h-2.1l1.56.52c-.19.33-.37.66-.58,1h1.91a6.15,6.15,0,0,0-.54-1l1.81-.35a7.58,7.58,0,0,1,.75,1.39h2.22v1.31H102v.71h1.93V160H102v.73h1.93v1.16H102v.71h2.53V163c.5,0,1,0,1.14,0s.29-.08.29-.31V155.3h-5.23v-5.4h7.57ZM94.16,151.34V152h3v-.66Zm0,2.51h3v-.68h-3Zm0,4.79A12.21,12.21,0,0,0,97,155.3h-2.8Zm6.08-.52H98v.71h2.28Zm0,1.85H98v.73h2.28ZM98,162.56h2.28v-.71H98Zm11.33-15.9v2H105.7v.91h-2.45v-.91h-2.82v-2h2.82v-1h2.45v1ZM103,151.34V152h3v-.66Zm3,2.51v-.68h-3v.68Z" transform="translate(0 -8.86)"/><path class="cls-24" d="M134.42,157.15h-8.05v5c0,1.39-.31,2.08-1.29,2.47a12.45,12.45,0,0,1-4.34.44,9.88,9.88,0,0,0-1.06-2.55c1.45.08,3.07.08,3.51.06s.6-.12.6-.48v-4.94h-8.22v-2.47h8.22v-2.88a25.85,25.85,0,0,0,4-2.45H117.63V146.9h12.93l.58-.12L133,148.2a30.94,30.94,0,0,1-6.64,4.9v1.58h8.05Z" transform="translate(0 -8.86)"/><path class="cls-23" d="M211.95,107.4H262.1a2.18,2.18,0,0,1,1.54,3.72l-50,22.72a2.18,2.18,0,0,1-3.72-1.53l-.15-22.72A2.18,2.18,0,0,1,211.95,107.4Z" transform="translate(0 -8.86)"/><path class="cls-23" d="M5.47,34.81h6l2.34-8.54h-6L9.12,21.4h6L18.38,9.62h5.89L21,21.4h4.85L29.09,9.62H35L31.77,21.4h6l-1.33,4.87h-6l-2.33,8.54h6l-1.32,4.87h-6L23.61,51.35H17.73L20.9,39.68H16l-3.2,11.66H6.93l3.2-11.66h-6Zm16.76,0,2.33-8.54H19.7l-2.34,8.54Z" transform="translate(0 -8.86)"/><path class="cls-23" d="M48.36,22.19l1.21-5.66A40.1,40.1,0,0,0,55.29,16a10.21,10.21,0,0,0,4.62-2.22,9.3,9.3,0,0,0,2.31-3,7.73,7.73,0,0,0,.71-1.69h7L60.82,51.35H52.18l6.28-29.16Z" transform="translate(0 -8.86)"/><path class="cls-23" d="M84.27,38.37a9.22,9.22,0,0,0-.09,4.2q.89,3.06,4.94,3.06A7.68,7.68,0,0,0,93.84,44a7.88,7.88,0,0,0,2.9-4.83q.89-4.17-2.25-5.57a16.12,16.12,0,0,0-6-.79l1.27-5.95A17.73,17.73,0,0,0,95.7,26a6.33,6.33,0,0,0,3.88-5A4.7,4.7,0,0,0,99,17.15a4.3,4.3,0,0,0-3.72-1.52,6.37,6.37,0,0,0-4.8,1.87,9.71,9.71,0,0,0-2.43,5H80.19a24.18,24.18,0,0,1,2.4-6,18.41,18.41,0,0,1,4.23-4.58,15,15,0,0,1,4.43-2.27A18.84,18.84,0,0,1,97,8.86q6.16,0,9.25,3.13t2,8.41a11.62,11.62,0,0,1-3.61,6.3,10.44,10.44,0,0,1-3.44,2.19q1.15,0,2.9,2,2.58,2.95,1.48,8a17.22,17.22,0,0,1-5.8,9.43Q95.11,52.4,87.71,52.4q-9.12,0-11.4-5.86-1.21-3.12-.33-8.16Z" transform="translate(0 -8.86)"/><path class="cls-20" d="M134.9,11.29h3.61L145,22.6V11.29h3.21V27.51h-3.44L138.1,16V27.51H134.9Z" transform="translate(0 -8.86)"/><path class="cls-20" d="M163.66,14.16h-8.72v3.44h8v2.82h-8V24.6h9.12v2.92H151.58V11.29h12.08Z" transform="translate(0 -8.86)"/><path class="cls-20" d="M169,11.29l2.17,9.29.47,2.58.47-2.53L174,11.29h3.63l2,9.29.5,2.59.51-2.49,2.2-9.39h3.51l-4.63,16.22h-3.29l-2-9.49-.58-3.14L175.19,18l-2,9.49H170l-4.67-16.22Z" transform="translate(0 -8.86)"/><polygon class="cls-20" points="153.31 26.56 161.1 42.48 168.67 26.56 153.31 26.56"/></g></g></svg>