<svg xmlns="http://www.w3.org/2000/svg" viewBox="0 0 53.77 58.65"><defs><style>.cls-1{fill:#ffcd32;}.cls-2{fill:#ff901c;}.cls-3,.cls-4,.cls-6,.cls-7{fill:none;stroke:#006464;stroke-linecap:round;}.cls-3,.cls-4,.cls-6{stroke-linejoin:round;}.cls-3{stroke-width:0.79px;}.cls-4,.cls-7{stroke-width:0.63px;}.cls-5{fill:#006464;}.cls-6{stroke-width:0.31px;}</style></defs><title>資產 4</title><g id="圖層_2" data-name="圖層 2"><g id="UI"><path class="cls-1" d="M25.12,17.11a2,2,0,0,1,1.86,2V24a2,2,0,0,0,2,2H41.28a2.49,2.49,0,0,1,2.37,2l2,12a30.07,30.07,0,0,1,.33,4V52.9a2,2,0,0,0,2,2h3.73a1.87,1.87,0,1,1,0,3.72H44.28a2,2,0,0,1-2-2v-7.5a2,2,0,0,0-2-2H35.12a2,2,0,0,0-2,2v7.5a2,2,0,0,1-2,2h-3a2,2,0,0,1-2-1.86,1.78,1.78,0,0,1,1.67-1.86,1.89,1.89,0,0,0,1.68-2V45.4a2,2,0,0,1,2-2H32a2,2,0,0,0,2-2v-2a2,2,0,0,0-2-2H19.71a1.87,1.87,0,1,1,0-3.72H32a1.9,1.9,0,1,0,0-3.79H25.12a2,2,0,0,1-1.86-2V19.14A2,2,0,0,1,25.12,17.11Z"/><path class="cls-2" d="M26.08,13.49V1.15a1.15,1.15,0,0,0-2.29,0V13.49a1.15,1.15,0,0,0,2.29,0Z"/><path class="cls-2" d="M15,34H2.62a1.15,1.15,0,0,0,0,2.29H15A1.15,1.15,0,0,0,15,34Z"/><path class="cls-2" d="M2.94,38.89a.76.76,0,0,0-1.36-.08L.1,41.46a.76.76,0,1,0,1.32.74L2.9,39.55A.76.76,0,0,0,2.94,38.89Z"/><path class="cls-2" d="M5.94,39.17a.76.76,0,0,0-1.46.26l-.15,3.49A.76.76,0,0,0,5.85,43L6,39.49A.76.76,0,0,0,5.94,39.17Z"/><path class="cls-2" d="M10.18,41.93,8.94,39a.76.76,0,1,0-1.4.59l1.24,2.95a.76.76,0,0,0,1.4-.59Z"/><path class="cls-2" d="M2.94,31.45a.76.76,0,0,1-1.36.08L.1,28.88a.76.76,0,1,1,1.32-.74L2.9,30.79A.76.76,0,0,1,2.94,31.45Z"/><path class="cls-2" d="M5.94,31.18a.76.76,0,0,1-1.46-.26l-.15-3.49a.76.76,0,0,1,1.52-.07L6,30.85A.76.76,0,0,1,5.94,31.18Z"/><path class="cls-2" d="M10.18,28.42,8.94,31.36a.76.76,0,0,1-1.4-.59l1.24-2.95a.76.76,0,1,1,1.4.59Z"/><path class="cls-1" d="M52,14.09a.57.57,0,0,1-.65.76c-1.53-.33-4.32-1-5.09-1.65a2.54,2.54,0,1,1,3.28-3.87C50.34,10,51.46,12.63,52,14.09Z"/><path class="cls-1" d="M36.55,8.73c1.45-2.3,3.75-2.26,5.12.08L48,19.61c1.37,2.34.27,4.26-2.44,4.26H32c-2.71,0-3.75-1.88-2.31-4.18Z"/><path class="cls-3" d="M37.59,14.62a3.17,3.17,0,0,0-4.42-.48"/><path class="cls-3" d="M40.49,14.62a2.94,2.94,0,0,1,4.25-.48"/><path class="cls-4" d="M40.75,16.22s1.59-2.06,4.08-.13"/><line class="cls-4" x1="42.91" y1="15.27" x2="43.05" y2="14.45"/><line class="cls-4" x1="43.75" y1="15.47" x2="44.16" y2="14.86"/><line class="cls-4" x1="44.48" y1="15.85" x2="45" y2="15.47"/><path class="cls-4" d="M37.23,16.22s-1.59-2.06-4.08-.13"/><line class="cls-4" x1="35.07" y1="15.27" x2="34.93" y2="14.45"/><line class="cls-4" x1="34.23" y1="15.47" x2="33.82" y2="14.86"/><line class="cls-4" x1="33.5" y1="15.85" x2="32.98" y2="15.47"/><path class="cls-4" d="M35.39,20.94h7s-.42,1.63-3.52,1.63S35.39,20.94,35.39,20.94Z"/><path class="cls-5" d="M43.55,18.47,42,18.84v-2a.76.76,0,0,1,.76-.76h0a.76.76,0,0,1,.76.76Z"/><path class="cls-5" d="M35.95,18.84l-1.52-.37V16.81a.76.76,0,0,1,.76-.76h0a.76.76,0,0,1,.76.76Z"/><polyline class="cls-4" points="38.44 16.95 37.89 19.36 38.84 19.36"/><line class="cls-6" x1="39.43" y1="21.75" x2="41.43" y2="21.75"/><path class="cls-4" d="M35.39,8.18s1.46,3.89,8.36,5"/><line class="cls-7" x1="42.03" y1="20.36" x2="42.43" y2="21.15"/><line class="cls-7" x1="35.6" y1="20.36" x2="35.2" y2="21.15"/></g></g></svg>