<svg xmlns="http://www.w3.org/2000/svg" viewBox="0 0 79.38 73.13"><defs><style>.cls-1{fill:#00364b;stroke-width:1.26px;}.cls-1,.cls-2{stroke:#e0e0e0;}.cls-1,.cls-6,.cls-7,.cls-8{stroke-linecap:round;}.cls-1,.cls-2,.cls-6,.cls-7,.cls-8{stroke-linejoin:round;}.cls-2,.cls-6,.cls-7{fill:none;}.cls-2{stroke-linecap:square;stroke-width:3.36px;}.cls-3{fill:#006464;}.cls-4{fill:#6bffba;}.cls-5,.cls-8{fill:#ffcd32;}.cls-6,.cls-7,.cls-8{stroke:#006464;}.cls-6{stroke-width:1.28px;}.cls-7,.cls-8{stroke-width:0.64px;}.cls-9{fill:#ff665c;}</style></defs><title>資產 135</title><g id="圖層_2" data-name="圖層 2"><g id="頂部小人"><line class="cls-1" x1="23.59" y1="26.71" x2="23.59" y2="7.53"/><line class="cls-2" x1="23" y1="6.15" x2="25.69" y2="3.82"/><line class="cls-2" x1="21.9" y1="7.25" x2="19.57" y2="4.56"/><line class="cls-2" x1="23" y1="8.36" x2="20.31" y2="10.69"/><line class="cls-2" x1="24.11" y1="7.25" x2="26.43" y2="9.94"/><circle class="cls-3" cx="23" cy="7.25" r="0.79"/><path class="cls-4" d="M15.69,30.52a.84.84,0,0,1-.84-.84V24.57a.84.84,0,0,1,1.68,0v5.11A.84.84,0,0,1,15.69,30.52Z"/><path class="cls-4" d="M16.76,28H14.58a.84.84,0,1,1,0-1.68h2.18a.84.84,0,1,1,0,1.68Z"/><path class="cls-4" d="M57.85,6.79A.84.84,0,0,1,57,5.95V.84a.84.84,0,0,1,1.68,0V5.95A.84.84,0,0,1,57.85,6.79Z"/><path class="cls-4" d="M58.92,4.23H56.74a.84.84,0,0,1,0-1.68h2.18a.84.84,0,0,1,0,1.68Z"/><path class="cls-4" d="M21.29,41.54h-3a.84.84,0,0,1,0-1.68h3a.84.84,0,1,1,0,1.68Z"/><path class="cls-4" d="M19.78,44.14a.84.84,0,0,1-.84-.84V38a.84.84,0,0,1,1.68,0V43.3A.84.84,0,0,1,19.78,44.14Z"/><path class="cls-4" d="M2.56,47a.84.84,0,0,1-.84-.84V38.94a.84.84,0,0,1,1.68,0v7.21A.84.84,0,0,1,2.56,47Z"/><path class="cls-4" d="M4.24,43.39H.84a.84.84,0,0,1,0-1.68h3.4a.84.84,0,0,1,0,1.68Z"/><path class="cls-4" d="M61.82,21.39a.84.84,0,0,1-.84-.84V13.34a.84.84,0,0,1,1.68,0v7.21A.84.84,0,0,1,61.82,21.39Z"/><path class="cls-4" d="M63.5,17.79H60.1a.84.84,0,1,1,0-1.68h3.4a.84.84,0,1,1,0,1.68Z"/><path class="cls-5" d="M54.52,40.38a2.37,2.37,0,0,0,2.3-2.09l0-.16A1.87,1.87,0,0,0,54.94,36H48a1.87,1.87,0,0,1-1.9-2.09l.78-8.13A1.87,1.87,0,0,0,45,23.73H22.55a2.37,2.37,0,0,0-2.3,2.09l0,.16a1.87,1.87,0,0,0,1.9,2.09H34.35a1.57,1.57,0,0,1,1.6,2L32.68,43.44a3.4,3.4,0,0,0,1.19,3.28l.54.39a4.1,4.1,0,0,1,1.49,3.33L34.48,65.13a1.87,1.87,0,0,0,1.9,2.09H40a2.37,2.37,0,0,0,2.3-2.09l0-.16a1.74,1.74,0,0,0-1.55-2.09,1.74,1.74,0,0,1-1.55-2.09l1-10.35a2.37,2.37,0,0,1,2.3-2.09h1a1.87,1.87,0,0,1,1.9,2.09l-.86,8.92a1.87,1.87,0,0,0,1.9,2.09h3.9a2.37,2.37,0,0,0,2.3-2.09l0-.16A1.78,1.78,0,0,0,51,57.1,1.78,1.78,0,0,1,49.33,55l.44-4.57L50,48.21,50.2,46a1.85,1.85,0,0,0-1.9-2h-1a1.76,1.76,0,0,1-1.93-1.81,2.22,2.22,0,0,1,2.27-1.81Z"/><path class="cls-5" d="M45.83,6.78C44.37,4.46,42,4.5,40.65,6.87L34.27,17.79c-1.39,2.37-.27,4.31,2.48,4.31H50.48c2.75,0,3.8-1.9,2.34-4.23Z"/><line class="cls-6" x1="39.96" y1="14.15" x2="40.09" y2="15.24"/><polyline class="cls-7" points="41.45 14.12 39.91 13.39 38.22 14.51 37.47 14.24"/><polyline class="cls-8" points="41.92 11.17 39.64 11.33 38.82 11.94"/><line class="cls-6" x1="46.92" y1="14.15" x2="46.79" y2="15.24"/><polyline class="cls-7" points="45.43 14.12 46.97 13.39 48.66 14.51 49.41 14.24"/><path class="cls-5" d="M30.32,11.15a.66.66,0,0,0,.76.89c1.8-.39,5.08-1.17,6-1.93A3,3,0,0,0,33.2,5.56C32.3,6.33,31,9.44,30.32,11.15Z"/><path class="cls-7" d="M45.91,18.38a1.72,1.72,0,0,1-2.58.64,1.62,1.62,0,0,1-2.52-.64"/><path class="cls-7" d="M44.12,16.39s-.86,1.16-1.62,0"/><path class="cls-8" d="M42.68,6.95a25.87,25.87,0,0,0,8.16,7.74"/><path class="cls-9" d="M35.68,52.81a1.32,1.32,0,0,1-.61-2.49L71.78,31.5A1.32,1.32,0,0,1,73,33.84L36.27,52.67A1.31,1.31,0,0,1,35.68,52.81Z"/><path class="cls-4" d="M33.33,56.91a1.32,1.32,0,0,1-1.15-.66l-2.43-4.19A1.32,1.32,0,1,1,32,50.74l2.43,4.19a1.32,1.32,0,0,1-1.13,2Z"/><path class="cls-4" d="M18.19,73.13a1.32,1.32,0,0,1-.79-2.37C21.7,67.57,26,64.38,27,63.5c.79-.7,2.38-3.39.26-7.44-1.34-2.56-3.39-3.42-6.09-2.56-1.24.39-3.88,1.4-10.2,3.81A1.32,1.32,0,0,1,10,54.86c.75-.29,8.72-3.35,10.34-3.86,3.93-1.25,7.29.15,9.22,3.84,2.8,5.34.67,9.29-.85,10.63-1.26,1.12-8.2,6.22-9.79,7.4A1.31,1.31,0,0,1,18.19,73.13Z"/><path class="cls-4" d="M14.7,69.81a1.08,1.08,0,0,1-.61-2L24,61.29a1.08,1.08,0,0,1,1.19,1.8l-9.88,6.54A1.08,1.08,0,0,1,14.7,69.81Z"/><path class="cls-4" d="M12.58,66.29a1.08,1.08,0,0,1-.55-2l8.66-4.95a1.08,1.08,0,0,1,1.07,1.88l-8.66,4.95A1.08,1.08,0,0,1,12.58,66.29Z"/><path class="cls-4" d="M10.5,62.14a1.08,1.08,0,0,1-.43-2.08l10-4.22a1.08,1.08,0,1,1,.84,2l-10,4.22A1.08,1.08,0,0,1,10.5,62.14Z"/><path class="cls-5" d="M36.1,48.35,34.48,65.13a1.87,1.87,0,0,0,1.9,2.09H40a2.37,2.37,0,0,0,2.3-2.09l0-.16a1.74,1.74,0,0,0-1.55-2.09,1.74,1.74,0,0,1-1.55-2.09l1.2-12.44"/><path class="cls-4" d="M78.54,16.95h-3a.84.84,0,0,1,0-1.68h3a.84.84,0,0,1,0,1.68Z"/><path class="cls-4" d="M77,19.54a.84.84,0,0,1-.84-.84V13.45a.84.84,0,0,1,1.68,0V18.7A.84.84,0,0,1,77,19.54Z"/></g></g></svg>