<svg xmlns="http://www.w3.org/2000/svg" viewBox="0 0 113.2 47.06"><defs><style>.cls-1{fill:#ffcd32;}.cls-2{fill:#ff9947;}</style></defs><title>Asset 18</title><g id="Layer_2" data-name="Layer 2"><g id="頂部小人"><rect class="cls-1" x="10.4" y="15.34" width="51.84" height="2.98"/><rect class="cls-1" x="56.73" y="1.47" width="2.56" height="35.88" rx="1.15" ry="1.15"/><rect class="cls-1" x="9.12" y="0.9" width="2.56" height="35.88" rx="1.15" ry="1.15"/><rect class="cls-1" x="50.1" y="27.73" width="2.56" height="19.33" rx="1.28" ry="1.28"/><rect class="cls-1" x="2.46" y="27.73" width="2.56" height="19.33" rx="1.28" ry="1.28"/><polygon class="cls-2" points="57.3 26.52 3.73 26.52 6.83 20.13 60.4 20.13 57.3 26.52"/><polygon class="cls-2" points="57.3 24.02 3.73 24.02 6.83 17.64 60.4 17.64 57.3 24.02"/><polygon class="cls-1" points="57.3 24.02 57.3 26.52 60.4 20.13 60.4 17.64 57.3 24.02"/><rect class="cls-1" x="3.73" y="24.02" width="53.57" height="2.5"/><polygon class="cls-2" points="53.57 34.23 0 34.23 3.09 27.85 56.66 27.85 53.57 34.23"/><polygon class="cls-2" points="53.57 31.73 0 31.73 3.09 25.35 56.66 25.35 53.57 31.73"/><polygon class="cls-1" points="53.57 31.73 53.57 34.23 56.66 27.85 56.66 25.35 53.57 31.73"/><rect class="cls-1" y="31.73" width="53.57" height="2.5"/><polygon class="cls-2" points="60.45 16.24 6.88 16.24 7.79 14.45 61.36 14.45 60.45 16.24"/><polygon class="cls-1" points="60.45 9.65 6.88 9.65 7.79 7.86 61.36 7.86 60.45 9.65"/><polygon class="cls-1" points="60.45 9.65 60.45 16.24 61.36 14.45 61.36 7.86 60.45 9.65"/><rect class="cls-2" x="6.88" y="9.65" width="53.57" height="6.59"/><polygon class="cls-2" points="60.45 8.38 6.88 8.38 7.79 6.59 61.36 6.59 60.45 8.38"/><polygon class="cls-1" points="60.45 1.79 6.88 1.79 7.79 0 61.36 0 60.45 1.79"/><polygon class="cls-1" points="60.45 1.79 60.45 8.38 61.36 6.59 61.36 0 60.45 1.79"/><rect class="cls-2" x="6.88" y="1.79" width="53.57" height="6.59"/><rect class="cls-1" x="62.24" y="15.34" width="47.16" height="2.98"/><rect class="cls-1" x="108.57" y="1.47" width="2.56" height="35.88" rx="1.15" ry="1.15"/><rect class="cls-1" x="60.96" y="0.9" width="2.56" height="35.88" rx="1.15" ry="1.15"/><rect class="cls-1" x="101.94" y="27.73" width="2.56" height="19.33" rx="1.28" ry="1.28"/><rect class="cls-1" x="54.29" y="27.73" width="2.56" height="19.33" rx="1.28" ry="1.28"/><polygon class="cls-2" points="109.14 26.52 55.57 26.52 58.66 20.13 112.23 20.13 109.14 26.52"/><polygon class="cls-2" points="109.14 24.02 55.57 24.02 58.66 17.64 112.23 17.64 109.14 24.02"/><polygon class="cls-1" points="109.14 24.02 109.14 26.52 112.23 20.13 112.23 17.64 109.14 24.02"/><rect class="cls-1" x="55.57" y="24.02" width="53.57" height="2.5"/><polygon class="cls-2" points="105.41 34.23 51.84 34.23 54.93 27.85 108.5 27.85 105.41 34.23"/><polygon class="cls-2" points="105.41 31.73 51.84 31.73 54.93 25.35 108.5 25.35 105.41 31.73"/><polygon class="cls-1" points="105.41 31.73 105.41 34.23 108.5 27.85 108.5 25.35 105.41 31.73"/><rect class="cls-1" x="51.84" y="31.73" width="53.57" height="2.5"/><polygon class="cls-2" points="112.28 16.24 58.71 16.24 59.63 14.45 113.2 14.45 112.28 16.24"/><polygon class="cls-1" points="112.28 9.65 58.71 9.65 59.63 7.86 113.2 7.86 112.28 9.65"/><polygon class="cls-1" points="112.28 9.65 112.28 16.24 113.2 14.45 113.2 7.86 112.28 9.65"/><rect class="cls-2" x="58.71" y="9.65" width="53.57" height="6.59"/><polygon class="cls-2" points="112.28 8.38 58.71 8.38 59.63 6.59 113.2 6.59 112.28 8.38"/><polygon class="cls-1" points="112.28 1.79 58.71 1.79 59.63 0 113.2 0 112.28 1.79"/><polygon class="cls-1" points="112.28 1.79 112.28 8.38 113.2 6.59 113.2 0 112.28 1.79"/><rect class="cls-2" x="58.71" y="1.79" width="53.57" height="6.59"/></g></g></svg>