<svg xmlns="http://www.w3.org/2000/svg" viewBox="0 0 108.71 96.84"><defs><style>.cls-1{fill:#00364b;}.cls-2{fill:#50adc0;}.cls-3{fill:#e0e0e0;}.cls-4{fill:#004864;}</style></defs><title>Asset 46</title><g id="Layer_2" data-name="Layer 2"><g id="小物"><path class="cls-1" d="M49.78,79.27C44.9,85.16,37.45,99.38,31.18,96.44c-9.12-4.28-11.61-1.85-15.8-2.23-12-1.08-4.71-7.77-15.37-9.62L33.33,77.4S54.66,73.38,49.78,79.27Z"/><path class="cls-1" d="M65.45,58.66c-2.93-2.72,2.83-9.6,6.33-16.39,4.38-8.47,8.74.59,21.41-1.67s6.55,8.1,15.52,11.19c0,0-18.87,5.94-32.5,8.23C70,61.06,68.38,61.38,65.45,58.66Z"/><ellipse class="cls-1" cx="55.6" cy="66.87" rx="29.88" ry="15.29" transform="translate(-2.98 2.59) rotate(-2.6)"/><path class="cls-2" d="M97.75,23.8s-25.63,7.51-30.54,13-7.33-2.54-7.33-2.54,3.36-22.42,2.36-29.48,8-4.87,11.06-2.21c3.61,3.15,8.2-6.43,15.56-.12S88.73,15.86,97.75,23.8Z"/><path class="cls-3" d="M69.57,12.27c0,1.31-.07,3.54-1,4a4.41,4.41,0,0,1-6.18-3.71c0-2.24,3.19-2.61,5.58-2.47A3.78,3.78,0,0,1,69.57,12.27Z"/><path class="cls-4" d="M64.19,31.83S65.5-.34,69.24.47c4.22.91,3.82,6.14,8.35,3.14,3.85-2.55,6.64,2,6.64,2s-7.06,10.5-7.9,13.11-5.63,11.86-3,10.26c6.46-3.89,24.41-5.22,24.41-5.22s-22.52,7.3-30.54,13C60.83,41.27,64.19,31.83,64.19,31.83Z"/><circle class="cls-2" cx="50.95" cy="47.75" r="26.92" transform="translate(-15.53 26.37) rotate(-25.32)"/><ellipse class="cls-3" cx="48.38" cy="63.67" rx="4.2" ry="5" transform="translate(-31.51 67.22) rotate(-55.32)"/><path class="cls-4" d="M71.82,62.42s-12.77,14.73-31-3.67c0,0-7.09,3.34-2.17,11.81a28,28,0,0,0,18.87,1.82A26.56,26.56,0,0,0,71.82,62.42Z"/><path class="cls-2" d="M3.26,64.73s26.7-.88,32.81-4.95,7.12,1.62,6,6-5.81,19.93-6.6,27-12.33,2.42-13.82-1.35-9.54,4.18-15.1-3.76S10,74.67,3.26,64.73Z"/><ellipse class="cls-3" cx="53.54" cy="25.85" rx="3.42" ry="4.65" transform="translate(26.45 78.78) rotate(-88.67)"/><ellipse class="cls-3" cx="30.06" cy="49.5" rx="4.65" ry="3.42" transform="translate(-20.12 78.4) rotate(-88.67)"/><circle class="cls-3" cx="59.84" cy="43.55" r="5.25" transform="translate(-12.87 29.77) rotate(-25.32)"/><path class="cls-3" d="M36.28,27c1.36,1.24,1.21,3.62-.35,5.32s-3.91,2.07-5.27.83-.43-2.74,1.12-4.44S34.92,25.76,36.28,27Z"/><path class="cls-3" d="M77.1,54.9c-.76,2.65-1.19,4.75-3.41,4.11S70.27,55.7,71,53s3.18-4.29,5.41-3.65S77.87,52.24,77.1,54.9Z"/><path class="cls-3" d="M19.27,73.27C19,77.12,17.22,78,14.56,77c-4-1.43-1.75-5.27.77-6.46S18.93,71.42,19.27,73.27Z"/><path class="cls-3" d="M86.21,23.38c-2.35-.76-3.9-5.14-1.42-6.5,3.06-1.68,3.15,2.13,5.4,3.84S88.56,24.14,86.21,23.38Z"/><path class="cls-3" d="M37,71.73c0,1.31-.07,3.54-1,4A4.41,4.41,0,0,1,29.88,72c0-2.24,3.19-2.61,5.58-2.47A3.78,3.78,0,0,1,37,71.73Z"/><path class="cls-4" d="M38.06,64.15c-1.43,2.34-15.24,25.28-15.24,25.28-2-2.58-9,.94-9,.94C13.14,88,34.38,64.59,38.22,62,39.57,61,39.49,61.81,38.06,64.15Z"/><path class="cls-3" d="M28.78,62.19c.72,1.52.38,2.21-1.26,3s-5.59-1.32-5.08-2C25.06,63,28.78,62.19,28.78,62.19Z"/><path class="cls-3" d="M91,4.78c-.69,1.53-1.71,1.3-3.36.55S86.21,1.16,87,1.13C89,2,91,4.78,91,4.78Z"/><path class="cls-3" d="M35.38,93.44c-1.67.18-2.21-.37-2.41-2.17s3.08-4.85,3.52-4.16C35.86,89.67,35.38,93.44,35.38,93.44Z"/></g></g></svg>