<svg xmlns="http://www.w3.org/2000/svg" viewBox="0 0 71.21 43.72"><defs><style>.cls-1{fill:#6bffba;}.cls-2{fill:#006464;}</style></defs><title>資產 128</title><g id="圖層_2" data-name="圖層 2"><g id="頂部小人"><rect class="cls-1" width="71.21" height="36.13" rx="18.06" ry="18.06"/><path class="cls-1" d="M31.11,35.4V43a.72.72,0,0,0,1.24.51L39.89,36a.72.72,0,0,0-.51-1.24l-7.55,0A.72.72,0,0,0,31.11,35.4Z"/><path class="cls-2" d="M21.88,20.34a8.29,8.29,0,0,0,2.89,2.75,6.28,6.28,0,0,0-1.17,1.4,9.14,9.14,0,0,1-2.74-3.15v3.9H19.12V21.36a9.41,9.41,0,0,1-3.3,3.23,7,7,0,0,0-1.18-1.41A8.39,8.39,0,0,0,18,20.34H16.24V15h2.88V14.1H15.72v-1c-.36,1.17-.76,2.5-1.12,3.49a4.62,4.62,0,0,1,1.1,3A2.2,2.2,0,0,1,15,21.48a2.15,2.15,0,0,1-.87.31,6.35,6.35,0,0,1-1,0,3.79,3.79,0,0,0-.39-1.51h.66a.78.78,0,0,0,.42-.13c.17-.12.22-.42.22-.84a4,4,0,0,0-1-2.62c.3-.94.62-2.25.86-3.27H12.76V25.23H11.22V11.87h3.25l.25-.07,1.17.67,0,.13h3.27V11.24h1.74V12.6h3.51v1.5H20.86V15h3v5.31ZM17.8,17.1h1.32v-.81H17.8Zm0,2h1.32v-.81H17.8Zm3.06-2.79v.81h1.36v-.81Zm1.36,2H20.86v.81h1.36Z"/><path class="cls-2" d="M33.42,22l1.42,1.13a26.37,26.37,0,0,1-5,2.08,9.25,9.25,0,0,0-1.16-1.32A20.2,20.2,0,0,0,33.28,22H28.9V20.37h2.54v-6H29.35V12.72h2.08V11.27h1.77v1.46h4.72V11.27h1.82v1.46h2.19v1.63H39.75v6h2.56V22Zm-.21-7.65v.93h4.72v-.93Zm0,3.42h4.72v-1H33.21Zm0,2.6h4.72v-1.1H33.21Zm4.42,1.74a43.28,43.28,0,0,1,4.75,1.95l-1.71,1.13a28.72,28.72,0,0,0-4.32-2Z"/><path class="cls-2" d="M60,22.29c-.79.31-1.6.65-2.35.88a12.25,12.25,0,0,0,3.06.62,5.7,5.7,0,0,0-.92,1.41c-3.12-.42-5.05-1.54-6.21-3.6H52.2v1.8L54.46,23a10.48,10.48,0,0,0,0,1.38c-3.21.71-3.73.81-4,1a4.7,4.7,0,0,0-.5-1.4,1.06,1.06,0,0,0,.61-1.06V21.6h-1a8.14,8.14,0,0,1-1.44,3.66,8.36,8.36,0,0,0-1.5-.92c1.3-1.6,1.46-3.85,1.46-5.41V17H60v1.26H49.8v.47h9.58v1.11h-9.6c0,.17,0,.33,0,.51h10.6V21.6h-1.2Zm-.6-5.76H48.21v-4.4h3v-.92H53v.92h1.44v-.92h1.75v.92h3.2Zm-9.53-2.71h1.4v-.6h-1.4Zm0,1.62h1.4v-.6h-1.4ZM53,13.22v.6h1.44v-.6Zm0,1.62v.6h1.44v-.6Zm2.26,6.77a3.71,3.71,0,0,0,1,.87,14.61,14.61,0,0,0,1.84-.87Zm2.42-8.38H56.17v.6h1.49Zm0,1.62H56.17v.6h1.49Z"/></g></g></svg>