<svg xmlns="http://www.w3.org/2000/svg" viewBox="0 0 71.21 43.72"><defs><style>.cls-1{fill:#6bffba;}.cls-2{fill:#006464;}</style></defs><title>Asset 17</title><g id="Layer_2" data-name="Layer 2"><g id="頂部小人"><rect class="cls-1" width="71.21" height="36.13" rx="18.06" ry="18.06"/><path class="cls-1" d="M31.11,35.4V43a.72.72,0,0,0,1.24.51L39.89,36a.72.72,0,0,0-.51-1.24l-7.55,0A.72.72,0,0,0,31.11,35.4Z"/><path class="cls-2" d="M20.74,22.74c1.42.46,2.92,1,3.88,1.37L23,25.23a44.17,44.17,0,0,0-4.36-1.7l.9-.79H15.41l1.1.77a20.27,20.27,0,0,1-4.7,1.75,10.5,10.5,0,0,0-1.23-1.2,19.47,19.47,0,0,0,4-1.32H12.49V17.79H22.84v4.95Zm3.72-5.41H10.81v-1.5H24.46ZM14.17,13.49H11.59V12.15h2.58v-.93h1.74v.93h3.43v-.93h1.83v.93h2.57v1.33H21.17v1.84h-7Zm0,6.22h2.46V19H14.22Zm0,1.83h2.46v-.72H14.22Zm1.7-8.05v.67h3.43v-.67ZM21,19H18.45v.72H21Zm0,1.83H18.45v.72H21Z"/><path class="cls-2" d="M42.15,16.59v1.47h-3l.55.3a18.27,18.27,0,0,1-6.49,2.06,6.61,6.61,0,0,0-.92-1.21,22.43,22.43,0,0,0,5.05-1.14H31.44v1.09c0,1.8-.27,4.38-1.61,6.06A6.77,6.77,0,0,0,28.39,24a7.91,7.91,0,0,0,1.27-4.9V16.59h1.73a6.35,6.35,0,0,0-.48-.77,31.62,31.62,0,0,0,3.15-.72c-.9-.27-1.8-.52-2.64-.7l1.13-.71H29.79V12.26h5.28a6.14,6.14,0,0,0-.36-.89L36.4,11a8.2,8.2,0,0,1,.52,1.25h5V13.7h-2.6l.41.23A13.81,13.81,0,0,1,37.84,15c1,.33,1.9.65,2.65.92l-.95.68Zm-.06,5.19c-2.08,2.07-5.54,3-9.49,3.56a5.93,5.93,0,0,0-.84-1.5c3.62-.35,7-1.17,8.7-2.83ZM40.76,20c-1.78,1.36-4.59,2.19-7.38,2.67a5.8,5.8,0,0,0-.88-1.29c2.55-.33,5.37-1.06,6.76-2.13Zm-2.32-3.45c-.68-.27-1.52-.57-2.37-.85-.92.33-1.86.61-2.79.85Zm-5.05-2.9c.86.23,1.77.48,2.69.75a11.53,11.53,0,0,0,1.66-.75Z"/><path class="cls-2" d="M50.85,11.73a27.76,27.76,0,0,1-1.12,3V25.22H48.06V17.85c-.27.4-.54.77-.79,1.09A12.05,12.05,0,0,0,46.38,17a16.35,16.35,0,0,0,2.82-5.77Zm4.72,1.51a8.74,8.74,0,0,1-4.14,6.1,6.05,6.05,0,0,0-.91-1.17,5.89,5.89,0,0,0,2.1-1.77,9.86,9.86,0,0,0-.88-.87,11,11,0,0,1-.77.89,4.08,4.08,0,0,0-1.11-.92,9.81,9.81,0,0,0,2.37-4.12l1.47.23c-.11.29-.21.6-.33.92h1.08l.25-.06,1,.33,0,0h2.13V11.43h1.5v1.41h.93v1.35h-.93v1.86h1.29v1.38H59.28V19h-1.5v-1.6H55.21c.24-.85.5-2.1.71-3.24h-.34Zm-1.2,8.63A16.28,16.28,0,0,1,51.67,25a14.63,14.63,0,0,0-1.32-1.19,10.49,10.49,0,0,0,2.38-2.5Zm2-.8v4.16H54.67V21.08h-4V19.55h4V18H56.4v1.51h4.14v1.53Zm-3.62-7.26-.27.55a11,11,0,0,1,.88.78,8.4,8.4,0,0,0,.53-1.33ZM58,21.26A21,21,0,0,1,60.58,24l-1.34,1.06a19.86,19.86,0,0,0-2.5-2.92Zm-.24-7.06h-.53c-.12.61-.26,1.27-.39,1.86h.92Z"/></g></g></svg>