<svg xmlns="http://www.w3.org/2000/svg" viewBox="0 0 71.21 43.72"><defs><style>.cls-1{fill:#6bffba;}.cls-2{fill:#006464;}</style></defs><title>資產 7</title><g id="圖層_2" data-name="圖層 2"><g id="UI"><rect class="cls-1" width="71.21" height="36.13" rx="18.06" ry="18.06"/><path class="cls-1" d="M31.11,35.4V43a.72.72,0,0,0,1.24.51L39.89,36a.72.72,0,0,0-.51-1.24l-7.55,0A.72.72,0,0,0,31.11,35.4Z"/><path class="cls-2" d="M17,14a26.43,26.43,0,0,1-1.54,3.3h7.89v7.88H21.45v-.84h-6v.9H13.63V19.89a11.37,11.37,0,0,1-2,1.88,10,10,0,0,0-1.26-1.38A13.24,13.24,0,0,0,15,14H11V12.24H24.21V14Zm4.42,5h-6v3.6h6Z"/><path class="cls-2" d="M41.91,21.66A19.35,19.35,0,0,1,40,22.82a8.34,8.34,0,0,0,2.63.92,7,7,0,0,0-1,1.48,7.3,7.3,0,0,1-5.25-4.29H34.78v2.34l2.52-.48a8.9,8.9,0,0,0-.15,1.47c-3.3.72-3.83.84-4.14,1v0a5.5,5.5,0,0,0-.65-1.44,1.62,1.62,0,0,0,.76-1.4V20.93H31.89v-1.5h2.19v-1H32.2V16.91h1.88v-1H31.89v.44c0,2.61-.24,6.51-1.82,9a7.56,7.56,0,0,0-1.59-.92c1.49-2.31,1.6-5.67,1.6-8.05V11.87H41.62v4h-2v1h2.16v1.48H39.59v1h2.8v1.5H40.83Zm-10-7.3h7.93v-1H31.89Zm3.82,2.55h2.24v-1H35.71Zm0,2.52h2.24v-1H35.71ZM38,20.93a4.8,4.8,0,0,0,.83,1,16.36,16.36,0,0,0,1.5-1Z"/><path class="cls-2" d="M52.26,15.27a11.23,11.23,0,0,1-4.33,7.09,6.85,6.85,0,0,0-1.38-1.24,8.69,8.69,0,0,0,3.62-4.69h-3V14.87h3.71l.31-.08ZM47,23.12H60.19v1.71H47Zm5.68-8.4a13.46,13.46,0,0,0,2.22-1.54H48.54V11.58h8.05l.41-.09,1.2.93a18.43,18.43,0,0,1-2.34,2,14.81,14.81,0,0,0,1,2.56,18.15,18.15,0,0,0,1.63-2.43l1.58,1.08c-.78.9-1.65,1.92-2.37,2.68a8.27,8.27,0,0,0,2.64,2.48,7.49,7.49,0,0,0-1.29,1.53c-2.14-1.46-3.6-4-4.51-7l-.06,0v5.54c0,.9-.18,1.33-.83,1.57A7.75,7.75,0,0,1,51,22.7a7.42,7.42,0,0,0-.53-1.63c.75,0,1.65,0,1.89,0s.34-.06.34-.28Z"/></g></g></svg>