<svg xmlns="http://www.w3.org/2000/svg" viewBox="0 0 221.8 89.55"><defs><style>.cls-1{fill:#6bffba;}.cls-2{fill:#00364b;}</style></defs><title>Asset 4</title><g id="Layer_2" data-name="Layer 2"><g id="對話框"><rect class="cls-1" width="221.8" height="49.48" rx="23.4" ry="23.4"/><path class="cls-2" d="M43.37,26.16A11.86,11.86,0,0,1,41,30.65,10.91,10.91,0,0,0,44.28,32a7.68,7.68,0,0,0-1.37,1.79,10.69,10.69,0,0,1-3.5-1.73A12.85,12.85,0,0,1,36,33.94a8.5,8.5,0,0,0-1.14-1.72V34H32.68V32.27c-2.26.24-4.52.45-6.28.64l-.17-2,1.7-.13,0-5.9H26.44V23.05l17.3.06v1.83l-8.87,0,0,7.17a9.72,9.72,0,0,0,2.95-1.47,11.88,11.88,0,0,1-1.86-3l.7-.19H35.48V25.66l6.08,0,.37-.08ZM31,22.47H28.73l0-6.1,12.8,0,0,6.1H39.2l0-4.5L31,18ZM30,30.61c.86-.08,1.79-.15,2.69-.24v-.68H30Zm0-2.53H32.7v-.78H30Zm0-3.18v.8h2.69v-.8ZM38.48,20l-6.92,0V18.67l6.92,0ZM31.58,22.1V20.75l6.9,0v1.34ZM38,27.44a7.56,7.56,0,0,0,1.32,1.84,7.32,7.32,0,0,0,1.27-1.83Z"/><path class="cls-2" d="M66.94,18.53l0,4.7H64.6V20.53l-12.2,0v2.69H50.18l0-4.7h2.63a10.94,10.94,0,0,0-1.08-1.7l2.11-.85A9.51,9.51,0,0,1,55.27,18l-1.05.46h3.1V15.82h2.4V18.5h3.06l-1.09-.39A13.31,13.31,0,0,0,63.09,16l2.49.75C65,17.43,64.46,18,64,18.52ZM65.76,31.11c0,1.07-.22,1.64-1,2a8.76,8.76,0,0,1-3.22.32,8.18,8.18,0,0,0-.73-2.11c.88,0,1.91,0,2.18,0s.39-.08.39-.29V29.17H59.88l0,4.91h-2.4l0-4.91H53.82v4H51.45l0-6.1,6,0V25.92l-4.17,0,0-4.48,10.37,0,0,4.48H59.9v1.17l5.88,0Zm-10.2-6.84,5.79,0V23.09l-5.79,0Z"/><path class="cls-2" d="M88.69,31.84c.31,0,.39-.25.44-2.08a5.57,5.57,0,0,0,2,.88C90.89,33.25,90.32,34,89,34h-1.3c-1.77,0-2.14-.71-2.13-2.72v-3.9h-.9c-.3,3.08-1,5.49-4.2,6.9a6.69,6.69,0,0,0-1.14-1.62v.43H75.5v.82h-2l0-6.72,5.79,0,0,5.22c2.42-1,2.87-2.79,3.06-5H81.09l0-5.28c-.21.21-.45.43-.67.62A14.5,14.5,0,0,0,78.81,21l.08-.06-6.1,0V19.11h2.92a17.37,17.37,0,0,0-.93-2.46l2-.6a14,14,0,0,1,1.06,2.52l-1.5.54h3.43v1.07a13.36,13.36,0,0,0,2.78-4l2.14.67a19.9,19.9,0,0,1-2.73,4.28l6.68,0a36.51,36.51,0,0,0-3.18-4.06L87.06,16a31.66,31.66,0,0,1,4.11,5.18l-1.76,1.26c-.12-.21-.23-.43-.39-.66l0,5.57H87.77v3.86c0,.57,0,.62.31.62Zm-15.11-7.4,5.49,0v1.75l-5.49,0Zm5.5-.84-5.49,0V21.82l5.49,0ZM77.4,29H75.51v2.18h1.89Zm5.88-3.66h3.43V23.18H83.29Z"/><path class="cls-2" d="M113.9,19.05s0,.78,0,1.05c-.29,8.71-.51,11.81-1.31,12.84A2.6,2.6,0,0,1,110.68,34a21.85,21.85,0,0,1-3.06,0,5.45,5.45,0,0,0-.75-2.26c1.25.12,2.4.13,2.9.13a1,1,0,0,0,.86-.33c.57-.62.83-3.54,1.07-10.42l-4.17,0a16.83,16.83,0,0,1-1.73,3.07,14.29,14.29,0,0,0-1.5-1.1l0,9.1-5.2,0v1.42H97L97,19.13h2.2A20.76,20.76,0,0,0,99.8,16l2.53.36c-.34,1-.69,1.95-1,2.78h3v3.16A20.19,20.19,0,0,0,107,16l2.2.51A22.57,22.57,0,0,1,108.4,19Zm-11.71,11.1V26.34H99.1v3.82Zm0-9h-3.1v3.16h3.1Zm6.44,8A41.48,41.48,0,0,0,106,24.61l1.82-1a47.31,47.31,0,0,1,2.85,4.34Z"/><path class="cls-2" d="M136.35,18l-.06,15.86h-2.55V32.36l-10.33,0V33.9H121L121,18ZM133.75,30l0-9.57-10.33,0,0,9.57Z"/><path class="cls-2" d="M151.32,31.66c-2.73.65-5.71,1.34-7.94,1.84l-.52-2.17c1.32-.23,3.1-.57,5-1l-.47-.12a27.87,27.87,0,0,0,.7-4l2.26.5c-.34,1.13-.67,2.34-1,3.29l1.79-.36Zm-.25-12.45-7.83,0V17.06l7.83,0ZM150.62,26l-6.88,0,0-5.46,6.88,0Zm-6,4.36a13.29,13.29,0,0,0-.63-3.47l1.85-.46a13.41,13.41,0,0,1,.75,3.41Zm4-8H145.7V24.2h2.86Zm7.12,9.46a14.31,14.31,0,0,1-4.34,2.58,12.2,12.2,0,0,0-1.51-1.49,11.85,11.85,0,0,0,4-2.3Zm-1.13-11.6c.08-.43.14-.88.2-1.31h-3.21V17l9.39,0V19h-3.64c-.14.45-.28.9-.41,1.3h3.62l0,10.29-8.5,0,0-10.29Zm3.69,7.38-4.17,0v1.25l4.17,0Zm0-2.84-4.17,0V26l4.17,0Zm0-2.81-4.17,0v1.23l4.17,0Zm0,8.83a30.72,30.72,0,0,1,3.24,2.43l-1.86,1.22a24.24,24.24,0,0,0-3.15-2.56Z"/><path class="cls-2" d="M172.06,28.76c-.31-.51-.78-1.17-1.26-1.86l0,7.54h-2l0-7.19a14.78,14.78,0,0,1-2,1.75,11,11,0,0,0-.77-2.38,12.94,12.94,0,0,0,4.48-5h-4V19.5h3a13.86,13.86,0,0,0-1.28-2.11l1.56-1.07a11.17,11.17,0,0,1,1.57,2.44l-1,.74h1.25l.35-.1,1.09.9a18.89,18.89,0,0,1-2,4.06c.7.7,1.94,2.05,2.27,2.44Zm12.44,3.18-4.93,0v2.59H177.5V31.91l-4.79,0V30l4.79,0v-.9h-3.8l0-6.92,9.8,0,0,6.92h-3.94V30l4.93,0Zm-6.29-10.47-4.77,0,0-4.42,4.77,0Zm-1.84-2.87h-1.19v1.33h1.19Zm1.16,8.81v-1H175.7v1Zm-1.82-2.58h1.83v-1H175.7Zm8-3.34-4.85,0,0-4.42,4.85,0Zm-2.26,4.94h-1.89v1h1.89Zm0-2.55H179.6v1h1.89Zm.41-5.26h-1.25v1.33h1.25Z"/><path class="cls-2" d="M198,22.21c0-1.17-.93-1.84-2.45-1.84a4,4,0,0,0-3.12,1.53l-1.59-1.49a6.48,6.48,0,0,1,5-2.36c2.83,0,4.89,1.32,4.88,3.91,0,2.86-4.26,3.18-4,5.89h-2.51C193.84,24.78,198,24.1,198,22.21Zm-2.48,7a1.92,1.92,0,1,1-2,1.9A1.9,1.9,0,0,1,195.5,29.19Z"/><path class="cls-1" d="M52.32,49.37,59.83,86c1,4.86,4.64,4.73,5.54-.19l6.72-36.61c.67-3.65-.76-7.46-2.79-7.46H55.07C53,41.72,51.56,45.69,52.32,49.37Z"/></g></g></svg>