<svg xmlns="http://www.w3.org/2000/svg" viewBox="0 0 71.21 43.72"><defs><style>.cls-1{fill:#6bffba;}.cls-2{fill:#006464;}</style></defs><title>資產 131</title><g id="圖層_2" data-name="圖層 2"><g id="頂部小人"><rect class="cls-1" width="71.21" height="36.13" rx="18.06" ry="18.06"/><path class="cls-1" d="M31.11,35.4V43a.72.72,0,0,0,1.24.51L39.89,36a.72.72,0,0,0-.51-1.24l-7.55,0A.72.72,0,0,0,31.11,35.4Z"/><path class="cls-2" d="M24.45,13.73H13.32v3.93c0,.58,0,1.26-.06,1.95a17.1,17.1,0,0,0,4-1.19c-.34,0-.76,0-1.23,0a3.3,3.3,0,0,0-.23-1l-1.72.77-.53-1.06c.81-.21,2-.58,3.11-.93l.17.77-.95.42a7.55,7.55,0,0,0,1,0c.15,0,.2,0,.2-.18v-1.9h-2a10,10,0,0,1,.87.71l-.79.61a8.72,8.72,0,0,0-1.06-.9l.57-.42h-.87V14.24h4.65v3a2.3,2.3,0,0,1,0,.49,4.54,4.54,0,0,0,.42-.33l.67.32-.32-.66c.75-.18,1.79-.51,2.83-.81l.15.78c-.76.33-1.46.66-2.13,1-.09.09-.2.16-.29.25a18.35,18.35,0,0,0,4.58,1.29,4.37,4.37,0,0,0-1,1.32,19.24,19.24,0,0,1-4.7-1.83,16.47,16.47,0,0,1-4.95,1.81,4.86,4.86,0,0,0-.54-.88,12.46,12.46,0,0,1-1.38,5.37,7.64,7.64,0,0,0-1.35-1.15c1-1.81,1.13-4.52,1.13-6.55V12.27h5.61a8.11,8.11,0,0,0-.32-.81l1.8-.42a12.78,12.78,0,0,1,.51,1.23h5.22Zm-1.17,8.88c-1.83,1.54-5,2.26-8.5,2.63A5,5,0,0,0,14.05,24c3.22-.24,6.33-.83,7.83-2ZM21.4,21.35a15.27,15.27,0,0,1-5.79,2.06,4.84,4.84,0,0,0-.75-1,14.86,14.86,0,0,0,5.33-1.65Zm-1.53-1.27a10.76,10.76,0,0,1-4.08,1.79A5.36,5.36,0,0,0,15,21a11.32,11.32,0,0,0,3.71-1.47Zm3.9-2.56c0,.58-.1.84-.48,1a4.68,4.68,0,0,1-1.62.16,4,4,0,0,0-.31-1h.84c.13,0,.17,0,.17-.17V15.38h-2c.33.24.69.51.9.71l-.81.62a9.76,9.76,0,0,0-1.07-.9l.55-.42h-.85V14.27h4.65Z"/><path class="cls-2" d="M28.41,18.09a18.24,18.24,0,0,0,.72-3.93l1.33.18a21,21,0,0,1-.67,4.23Zm12.78.29a10.86,10.86,0,0,0-.51-1c-5.32.46-6.13.57-6.7.79-.06-.25-.24-.78-.41-1.23l-.57.29A20,20,0,0,0,32.26,15V25.23H30.49v-14h1.77v2.86l1-.42c.27.65.61,1.47.85,2.13a2.12,2.12,0,0,0,.2-.27,20.58,20.58,0,0,0,2.08-4.29l1.84.5A27.46,27.46,0,0,1,36,16l3.79-.25c-.39-.62-.81-1.23-1.22-1.75L40,13.29a22,22,0,0,1,2.71,4.21Zm-6.79.57h7v6.27H39.67v-.6H36v.62H34.39ZM36,20.52V23h3.64V20.52Z"/><path class="cls-2" d="M60.54,24.51H54.93v.67h-1.6V17.12c-.15.22-.32.45-.46.65L52.38,17V18.5h-.84v4.78c0,.87-.15,1.31-.66,1.59a5.48,5.48,0,0,1-2.32.31,7.89,7.89,0,0,0-.48-1.65c.69,0,1.37,0,1.59,0s.3-.06.3-.29v-3.9a14.36,14.36,0,0,1-2.49,4.29,7.08,7.08,0,0,0-1.14-1.19,11.68,11.68,0,0,0,2.52-4H46.66c.3-1.27.63-3.3.86-5h-.77v-1.6h5.66v1.6h-.87v3.31h.69c-.15-.2-.3-.37-.42-.51a14.08,14.08,0,0,0,2.43-5.16l1.54.4c-.23.78-.51,1.56-.81,2.34h2.12a10.42,10.42,0,0,0-.71-2.06L58,11.4a9.59,9.59,0,0,1,.84,2.23l-.92.29h2.57v1.59H58.39V17h1.74v1.5H58.39v1.44h1.74v1.5H58.39v1.48h2.15ZM49,13.53c-.15,1.06-.33,2.26-.51,3.31H50V13.53Zm7.77,2H54.93V17h1.83Zm0,3H54.93v1.44h1.83Zm-1.83,4.42h1.83V21.41H54.93Z"/></g></g></svg>