<svg xmlns="http://www.w3.org/2000/svg" viewBox="0 0 62.18 77.3"><defs><style>.cls-1{fill:#ff665c;}.cls-2{fill:#ffcd32;}.cls-3,.cls-4,.cls-5,.cls-6,.cls-7,.cls-8{fill:none;stroke-linecap:round;}.cls-3,.cls-4{stroke:#ff665c;}.cls-3,.cls-4,.cls-7{stroke-linejoin:round;}.cls-3{stroke-width:0.81px;}.cls-4{stroke-width:0.91px;}.cls-5{stroke:#6bffba;stroke-miterlimit:10;stroke-width:2.44px;}.cls-6,.cls-7,.cls-8{stroke:#006464;}.cls-6{stroke-width:1.1px;}.cls-7,.cls-8{stroke-width:0.73px;}</style></defs><title>資產 2</title><g id="圖層_2" data-name="圖層 2"><g id="UI"><ellipse class="cls-1" cx="16.13" cy="75.26" rx="4.12" ry="2.05"/><ellipse class="cls-1" cx="16.13" cy="74.16" rx="5.38" ry="2.67"/><ellipse class="cls-2" cx="16.19" cy="74.61" rx="4.06" ry="1.8"/><path class="cls-1" d="M15.87,74.85c-.08.21-.29.26-.64.26s-.55-.06-.64-.26.29-.39.64-.39S15.87,74.63,15.87,74.85Z"/><path class="cls-1" d="M17.41,74.29c0,.09-.13.12-.29.12s-.25,0-.29-.12.13-.18.29-.18S17.41,74.19,17.41,74.29Z"/><path class="cls-1" d="M14.59,73.77c0,.09-.13.12-.29.12s-.25,0-.29-.12.13-.18.29-.18S14.59,73.67,14.59,73.77Z"/><ellipse class="cls-1" cx="32.72" cy="71.85" rx="4.12" ry="1.95"/><ellipse class="cls-1" cx="32.72" cy="70.81" rx="5.38" ry="2.54"/><ellipse class="cls-2" cx="32.68" cy="71.11" rx="4.16" ry="1.85"/><path class="cls-1" d="M31.77,71.82c.08.21.29.26.64.26S33,72,33,71.82s-.29-.39-.64-.39S31.77,71.61,31.77,71.82Z"/><path class="cls-1" d="M30.23,71.27c0,.09.13.12.29.12s.25,0,.29-.12-.13-.18-.29-.18S30.23,71.17,30.23,71.27Z"/><ellipse class="cls-1" cx="5.38" cy="69.5" rx="4.12" ry="1.98"/><ellipse class="cls-1" cx="5.38" cy="68.45" rx="5.38" ry="2.59"/><ellipse class="cls-2" cx="5.5" cy="68.79" rx="4.12" ry="1.83"/><path class="cls-1" d="M8.16,68.73c-.08.21-.29.26-.64.26s-.55-.06-.64-.26.29-.39.64-.39S8.16,68.52,8.16,68.73Z"/><path class="cls-1" d="M5.95,69.59c-.11.28-.4.36-.88.36s-.76-.08-.88-.36.4-.54.88-.54S5.95,69.3,5.95,69.59Z"/><ellipse class="cls-1" cx="25.29" cy="63.36" rx="11.28" ry="5.76"/><polyline class="cls-3" points="29.86 38.3 32.89 36.9 37.81 38.99 35.19 40.68"/><ellipse class="cls-1" cx="25.29" cy="41.89" rx="11.26" ry="4.88"/><rect class="cls-1" x="14.02" y="41.89" width="22.52" height="21.46"/><ellipse class="cls-2" cx="25.24" cy="43.61" rx="11.28" ry="4.89"/><polyline class="cls-4" points="14.64 46.21 10.76 47.66 16.29 50 19.3 48.96"/><path class="cls-1" d="M26.56,42.46c-.19.5-.7.63-1.57.63s-1.35-.14-1.57-.63c0-.52.7-.95,1.57-.95S26.56,41.94,26.56,42.46Z"/><path class="cls-1" d="M21.44,41.17c-.1.28-.39.35-.86.35s-.74-.08-.86-.35.39-.52.86-.52S21.44,40.88,21.44,41.17Z"/><path class="cls-1" d="M29,43.92c-.1.28-.39.35-.86.35s-.74-.08-.86-.35.39-.52.86-.52S29,43.63,29,43.92Z"/><line class="cls-5" x1="30.43" y1="40.98" x2="39.86" y2="22.07"/><path class="cls-2" d="M53.4,8.09a1.57,1.57,0,0,1,2.92,0l3.6,6.15c.78,1.34.15,2.43-1.39,2.43H50.78c-1.55,0-2.14-1.07-1.32-2.38Z"/><path class="cls-2" d="M49.9,19.86a1.94,1.94,0,0,0-2.06,1.77,1.94,1.94,0,0,1-2.06,1.77H38.27a2.06,2.06,0,0,0-2.06,2.06v.14a2.06,2.06,0,0,0,2.06,2.06h7.51a1.82,1.82,0,1,1,0,3.6H33.87a2.06,2.06,0,0,0-2.06,2.06v.14a2.06,2.06,0,0,0,2.06,2.06H45.78a2.06,2.06,0,0,1,2.06,2.06v.1a2,2,0,0,1-1.92,2.06A2,2,0,0,0,44,41.79V59.24a2,2,0,0,1-1.92,2.06,2,2,0,0,0-1.92,2.06v.14a2.06,2.06,0,0,0,2.06,2.06h4a2.06,2.06,0,0,0,2.06-2.06V46.05A2.06,2.06,0,0,1,50.31,44h4.84a2.06,2.06,0,0,1,2.06,2.06V59.24a2,2,0,0,1-1.92,2.06,2,2,0,0,0-1.92,2.06v.14a2.06,2.06,0,0,0,2.06,2.06h4a2.06,2.06,0,0,0,2.06-2.06V21.92a2.06,2.06,0,0,0-2.06-2.06Z"/><path class="cls-2" d="M50.1,1.71c1.45-2.31,3.77-2.27,5.14.08l6.34,10.85c1.38,2.36.27,4.28-2.46,4.28H45.49c-2.73,0-3.77-1.89-2.32-4.2Z"/><line class="cls-6" x1="50.47" y1="5.58" x2="49.26" y2="5.02"/><line class="cls-6" x1="54.3" y1="5.58" x2="55.51" y2="5.02"/><path class="cls-7" d="M48,7.1h2.79a.83.83,0,0,1,.83.83V9.49a1.81,1.81,0,0,1-1.81,1.81H49A1.81,1.81,0,0,1,47.2,9.49V7.93A.83.83,0,0,1,48,7.1Z"/><path class="cls-7" d="M53.9,7.1h2.79a.83.83,0,0,1,.83.83V9.49a1.81,1.81,0,0,1-1.81,1.81h-.83a1.81,1.81,0,0,1-1.81-1.81V7.93a.83.83,0,0,1,.83-.83Z"/><line class="cls-7" x1="51.66" y1="7.93" x2="53.07" y2="7.93"/><path class="cls-8" d="M49,13.38s-1.71.32-1.21.68,3.05-.4,4.64-.4,4.14.77,4.74.39-.65-.58-1.37-.67"/><line class="cls-8" x1="55.3" y1="8.45" x2="56.02" y2="8.75"/><line class="cls-8" x1="49.45" y1="8.45" x2="48.72" y2="8.75"/><path class="cls-8" d="M51.08,16c0,.21.42.68,1.35.68s1.22-.43,1.22-.68"/><line class="cls-8" x1="51.82" y1="11.56" x2="51.82" y2="11.79"/><line class="cls-8" x1="52.81" y1="11.56" x2="52.81" y2="11.79"/></g></g></svg>