<svg xmlns="http://www.w3.org/2000/svg" viewBox="0 0 503.4 352.62"><defs><style>.cls-1{fill:#004864;}.cls-2{fill:#ff665c;}.cls-3{fill:#ffcd32;}.cls-10,.cls-11,.cls-13,.cls-14,.cls-15,.cls-4,.cls-5,.cls-6,.cls-7,.cls-8,.cls-9{fill:none;}.cls-13,.cls-15,.cls-4{stroke:#ffcd32;}.cls-10,.cls-11,.cls-14,.cls-15,.cls-4,.cls-5,.cls-6,.cls-7,.cls-8,.cls-9{stroke-linecap:round;}.cls-13,.cls-4,.cls-5{stroke-miterlimit:10;}.cls-4{stroke-width:9.74px;}.cls-14,.cls-5{stroke:#00364b;}.cls-5{stroke-width:7.36px;}.cls-10,.cls-11,.cls-6,.cls-7,.cls-8,.cls-9{stroke:#006464;}.cls-10,.cls-14,.cls-15,.cls-6,.cls-7,.cls-8,.cls-9{stroke-linejoin:round;}.cls-6{stroke-width:2.86px;}.cls-7{stroke-width:3.19px;}.cls-8{stroke-width:4.25px;}.cls-9{stroke-width:0.91px;}.cls-10{stroke-width:2.13px;}.cls-11{stroke-width:2.45px;}.cls-12{fill:#00364b;}.cls-13{stroke-width:2.6px;stroke-dasharray:6.37 6.37;}.cls-14{stroke-width:8.35px;}.cls-15{stroke-width:8.73px;}.cls-16{fill:#6bffba;}</style></defs><title>資產 124</title><g id="圖層_2" data-name="圖層 2"><g id="content"><ellipse class="cls-1" cx="252.16" cy="245.25" rx="21.66" ry="12.91" transform="translate(-15.56 17.09) rotate(-3.77)"/><path class="cls-2" d="M234.82,239.74l9.94-51.89c1.81-5.85,6.5-5.36,7.62.8l17.25,53.52a5,5,0,0,1-1,4.25c-3.77,6-11.37,8-21.27,7.14C235.49,252.48,233.46,243.89,234.82,239.74Z"/><path class="cls-3" d="M242.68,198.27l-1.43,7.48s2.94,2.55,8.63,2.37,7.59-3.77,7.59-3.77l-2.25-7a7.9,7.9,0,0,1-6,2.81A10.54,10.54,0,0,1,242.68,198.27Z"/><ellipse class="cls-1" cx="133.05" cy="339.66" rx="21.66" ry="12.91" transform="translate(-22.02 9.47) rotate(-3.77)"/><path class="cls-2" d="M115.72,334.15l9.94-51.89c1.81-5.85,6.5-5.36,7.62.8l17.25,53.52a5,5,0,0,1-1,4.25c-3.77,6-11.37,8-21.27,7.14C116.38,346.89,114.35,338.3,115.72,334.15Z"/><path class="cls-3" d="M123.58,292.68l-1.43,7.48s2.94,2.55,8.63,2.37,7.59-3.77,7.59-3.77l-2.25-7a7.9,7.9,0,0,1-6,2.81A10.54,10.54,0,0,1,123.58,292.68Z"/><ellipse class="cls-1" cx="21.63" cy="243.03" rx="21.66" ry="12.91" transform="translate(-15.91 1.95) rotate(-3.77)"/><path class="cls-2" d="M4.3,237.52l9.94-51.89c1.81-5.85,6.5-5.36,7.62.8L39.1,239.95a5,5,0,0,1-1,4.25c-3.77,6-11.37,8-21.27,7.14C5,250.25,2.93,241.67,4.3,237.52Z"/><path class="cls-3" d="M12.16,196l-1.43,7.48s2.94,2.55,8.63,2.37,7.59-3.77,7.59-3.77l-2.25-7a7.9,7.9,0,0,1-6,2.81A10.54,10.54,0,0,1,12.16,196Z"/><path class="cls-2" d="M190.05,97a8.43,8.43,0,0,0-8.4,8.4v17.7a8.43,8.43,0,0,1-8.4,8.4h-56.7a8.43,8.43,0,0,1-8.4-8.4V32.69a8.43,8.43,0,0,0-8.4-8.4h-.58a8.43,8.43,0,0,0-8.4,8.4v.56a8.43,8.43,0,0,1-8.4,8.4H56.85a8.43,8.43,0,0,0-8.4,8.4V68a8.43,8.43,0,0,0,8.4,8.4h6.88a8.43,8.43,0,0,1,8.4,8.4V225.28a8.43,8.43,0,0,0,8.4,8.4h1.82a8.43,8.43,0,0,1,8.4,8.4v10.27c0,4.62-3.52,8.4-7.83,8.4s-7.83,3.78-7.83,8.4v.58a8.43,8.43,0,0,0,8.4,8.4H99.74a8.43,8.43,0,0,0,8.4-8.4V242.09a8.43,8.43,0,0,1,8.4-8.4h56.7a8.43,8.43,0,0,1,8.4,8.4v10.27c0,4.62-3.52,8.4-7.83,8.4s-7.83,3.78-7.83,8.4v.58a8.43,8.43,0,0,0,8.4,8.4h16.24a8.43,8.43,0,0,0,8.4-8.4V105.39a8.43,8.43,0,0,0-8.4-8.4Z"/><line class="cls-4" x1="81.6" y1="55.41" x2="70.64" y2="41.66"/><path class="cls-3" d="M212.9,43.1c-3.62,0-7.05,4.07-7.64,9l-.72,6.12a10.51,10.51,0,0,1-10.16,9H130.8a9.46,9.46,0,0,1-9.37-9.1l-.5-16.95c-.15-5-3.23-9.1-6.85-9.1s-6.58,4.09-6.59,9.1l0,30.1a9.11,9.11,0,0,0,9.08,9.1h3.57a8.24,8.24,0,0,1,8.33,9.07l-2.56,30.08a10.11,10.11,0,0,1-9.87,9.07h-6.19a10.11,10.11,0,0,0-9.87,9.07L96.77,175c-.42,5-3.44,9.07-6.69,9.07s-6.18,3-6.48,6.58,3.54,6.58,8.54,6.58h6.8c5,0,9.35-3,9.66-6.58L109.92,175,112,150.89a10.11,10.11,0,0,1,9.87-9.07H125a8.24,8.24,0,0,1,8.33,9.07l-3,35.29c-.42,5-3.58,9.07-7,9.07a7.15,7.15,0,0,0-6.81,6.58c-.31,3.62,3.54,6.58,8.54,6.58h7.46a10.11,10.11,0,0,0,9.87-9.07l4.12-48.45a10.11,10.11,0,0,1,9.87-9.07H157a10.11,10.11,0,0,0,9.87-9.07l3.68-43.23a10.11,10.11,0,0,1,9.87-9.07h26a10.37,10.37,0,0,0,10.06-9l2-19.26C219,47.17,216.52,43.1,212.9,43.1Z"/><line class="cls-5" x1="170.86" y1="67.3" x2="130.64" y2="123.08"/><line class="cls-5" x1="166.15" y1="125.18" x2="125.14" y2="122.75"/><line class="cls-5" x1="139.6" y1="67.3" x2="161.27" y2="124.89"/><path class="cls-3" d="M153.05,5.74C157.94-2,165.71-1.89,170.34,6l21.3,36.45c4.63,7.91.91,14.39-8.26,14.39H137.56c-9.17,0-12.67-6.35-7.79-14.11Z"/><path class="cls-6" d="M141.5,27.91h12.56a2.87,2.87,0,0,1,2.87,2.87v5.58a3.75,3.75,0,0,1-3.75,3.75H142.36a3.73,3.73,0,0,1-3.73-3.73V30.78a2.87,2.87,0,0,1,2.87-2.87Z"/><path class="cls-6" d="M168.12,27.91h12.56a2.87,2.87,0,0,1,2.87,2.87v5.61a3.73,3.73,0,0,1-3.73,3.73H169a3.75,3.75,0,0,1-3.75-3.75V30.78A2.87,2.87,0,0,1,168.12,27.91Z"/><line class="cls-7" x1="158.15" y1="30.92" x2="163.97" y2="30.92"/><line class="cls-8" x1="177.31" y1="33.95" x2="171.53" y2="34.47"/><line class="cls-8" x1="175.3" y1="22.73" x2="167.38" y2="25.65"/><line class="cls-8" x1="147.74" y1="23.22" x2="155.29" y2="25.92"/><line class="cls-8" x1="145.13" y1="34.48" x2="150.34" y2="34.8"/><polyline class="cls-6" points="173.85 50.78 167.73 52.29 161.04 50.78 154.35 52.29 149.16 50.78"/><line class="cls-9" x1="155.13" y1="45.86" x2="152.3" y2="47.68"/><line class="cls-9" x1="158.85" y1="45.86" x2="156.01" y2="47.68"/><line class="cls-9" x1="162.56" y1="45.86" x2="159.73" y2="47.68"/><line class="cls-9" x1="166.28" y1="45.86" x2="163.44" y2="47.68"/><line class="cls-9" x1="169.99" y1="45.86" x2="167.16" y2="47.68"/><line class="cls-10" x1="163.73" y1="17.73" x2="160.01" y2="7.63"/><line class="cls-10" x1="170.37" y1="17.73" x2="166.65" y2="7.63"/><line class="cls-10" x1="176.95" y1="17.73" x2="173.23" y2="7.63"/><line class="cls-10" x1="157.15" y1="17.73" x2="153.43" y2="7.63"/><line class="cls-10" x1="150.58" y1="17.73" x2="146.86" y2="7.63"/><line class="cls-11" x1="159.52" y1="42.34" x2="159.52" y2="43.1"/><line class="cls-11" x1="162.87" y1="42.34" x2="162.87" y2="43.1"/><rect class="cls-12" x="195.31" y="30.33" width="40.66" height="25.09" rx="4.91" ry="4.91"/><path class="cls-12" d="M253.5,50.37l-11.24-1.3a2.55,2.55,0,0,1-2.55-2.55V39.22a2.55,2.55,0,0,1,2.55-2.55l11.24-1.3A2.55,2.55,0,0,1,256,37.92v9.9A2.55,2.55,0,0,1,253.5,50.37Z"/><circle class="cls-12" cx="204.84" cy="18.43" r="9.53"/><circle class="cls-12" cx="226.66" cy="18.43" r="9.53"/><circle class="cls-12" cx="204.84" cy="18.43" r="6.1"/><circle class="cls-13" cx="204.84" cy="18.43" r="6.1"/><circle class="cls-12" cx="226.66" cy="18.43" r="6.1"/><circle class="cls-13" cx="226.66" cy="18.43" r="6.1"/><circle class="cls-2" cx="227.97" cy="38.21" r="2.23"/><line class="cls-14" x1="107.73" y1="116.73" x2="72.42" y2="133.49"/><polygon class="cls-15" points="72.42 138 65.64 151.24 73.23 152.7 72.42 138"/><rect class="cls-16" x="288.99" y="76.74" width="214.41" height="108.78" rx="54.39" ry="54.39"/><path class="cls-1" d="M343.65,124.69c-.72-1.31-1.91-3.22-3.1-5v17.86h-4.61V121.67a34,34,0,0,1-5.05,9.23,26.1,26.1,0,0,0-2.35-4.58c2.78-3.14,5.37-8.39,6.72-13.17h-5.61V108.7h6.29v-8.23h4.61v8.23h5.21v4.46h-5.21v.64c1.19,1.19,5.13,5.69,6,6.8Zm15.59-11.54c1.67,5.45,4.38,11,7.28,14.28A19.32,19.32,0,0,0,363,131.1a39.57,39.57,0,0,1-4.69-9.47v16h-4.77V121.47a35.69,35.69,0,0,1-6.84,10.66,23.07,23.07,0,0,0-2.67-4.34,37.39,37.39,0,0,0,8.75-14.64H347V108.7h6.52v-8.23h4.77v8.23h7v4.46Z"/><path class="cls-1" d="M390,126c-.68-1-1.79-2.43-2.9-3.82v15.47H382.4V123a35.49,35.49,0,0,1-4.54,3.5,23.75,23.75,0,0,0-1.79-4.85,27.52,27.52,0,0,0,10.22-10.26h-9.07v-4.26h7a27.07,27.07,0,0,0-3.1-4.65l3.66-2a22.83,22.83,0,0,1,3.66,5l-2.71,1.63h3.14l.83-.2,2.47,1.83a39.62,39.62,0,0,1-4.54,8.35c1.59,1.35,4.46,4.14,5.25,4.93Zm23.91,6.09v4.38H389.52v-4.38h4v-29.6h17v29.6Zm-15.79-25.22v5.37h7.68v-5.37Zm7.68,9.63h-7.68V122h7.68Zm-7.68,15.59h7.68v-5.77h-7.68Z"/><path class="cls-1" d="M436.5,101.86a63.27,63.27,0,0,1-3.66,8v27.69h-4.46V116.89a32.29,32.29,0,0,1-2.31,2.74,36.47,36.47,0,0,0-2.35-4.65,41.84,41.84,0,0,0,8.59-14.44Zm23.87,25.54a24,24,0,0,1-4.46,4.77c.64,1,1.35,1.63,2.11,1.63s.88-.72,1-2.71a8,8,0,0,0,2.94,1.75c-.56,3.86-1.67,4.81-4.3,4.85-2,0-3.66-1.15-5-3.14a35.19,35.19,0,0,1-4.61,2.55,22.81,22.81,0,0,0-2.62-3,32.53,32.53,0,0,0,5.65-2.82,29.7,29.7,0,0,1-1.35-5.33h-5.65v1.63l4.22-.4.08,3.26-4.3.48v2.74c0,1.87-.36,2.71-1.59,3.26s-2.94.56-5.33.56a12,12,0,0,0-1.11-3.38,31.9,31.9,0,0,0,3.3,0c.48,0,.64-.16.64-.6v-2.19l-5.73.6-.32-3.46c1.71-.12,3.78-.32,6-.52v-2h-5.77v-3.18H440V121c-1.59.16-3.22.28-4.69.32a13.19,13.19,0,0,0-1-2.74,63.61,63.61,0,0,0,11.38-1.67l2.35,2.74c-1.19.32-2.55.6-4,.84v2.27h5.17c-.16-1.71-.32-3.5-.36-5.37h4.14c0,1.87.12,3.7.28,5.37h4.38a23.82,23.82,0,0,0-4.26-3.74l2.78-2a31.17,31.17,0,0,1,4.46,3.62l-2.9,2.15h3.82V126h-7.8c.2,1,.4,1.91.64,2.78a17,17,0,0,0,2.27-2.59ZM440.76,104.2a26.35,26.35,0,0,0-1.63-2.47l3.74-1.31a17,17,0,0,1,2.55,3.78h5a25.18,25.18,0,0,0,2-3.82l4.61,1.23c-.68,1-1.35,1.83-2,2.59h5.17v3.06H450.06v1.47h8.83v3h-8.83v1.59h11.26v3.22H434.63v-3.22h10.82v-1.59h-8.39v-3h8.39v-1.47h-9.71V104.2Z"/><path class="cls-1" d="M378.72,160.13a21.08,21.08,0,0,0-3.84-2.2l1.31-1.85a22,22,0,0,1,3.9,2Zm2.45,2.61c-1,2.18-2.26,4.54-3.42,6.56l-2.14-1.62a55.5,55.5,0,0,0,3.69-6.52Zm-1.33-8.42a22.78,22.78,0,0,0-3.74-2.26l1.35-1.8a19.31,19.31,0,0,1,3.82,2.05Zm9.26,6c.93,3.2,2.68,5.87,5.42,7.2a7.83,7.83,0,0,0-1.64,2,12.4,12.4,0,0,1-5.25-6.6,13.46,13.46,0,0,1-5.58,6.62,9.81,9.81,0,0,0-1.89-1.81c3.84-2.18,5.19-5,5.64-7.45h-5v-2.41H386v-4c-1.31.21-2.66.37-3.9.5a8.11,8.11,0,0,0-.75-2.05,40.06,40.06,0,0,0,10-2.16l2.05,1.87a28.43,28.43,0,0,1-4.83,1.39v3.74c0,.23,0,.46,0,.71h5.71v2.41Z"/><path class="cls-1" d="M404.16,153.45h-3.8v-2.18h3.8v-1.14h2.45v1.14h2.62v2.18h-2.62v1.31h-2.45ZM418.9,166.5h-8.13v3h-2.49v-3h-7.91v-2.22h7.91V163.1h-5.56v-8h13.82v8h-5.77v1.18h8.13Zm-13.82-8.26h9V157h-9Zm0,3h9V160h-9Zm7.68-7.78H410v-2.18h2.76v-1.14h2.45v1.14h3.59v2.18H415.2v1.33h-2.45Z"/><path class="cls-16" d="M301.24,115.25H251.09a2.18,2.18,0,0,0-1.54,3.72l50,22.72a2.18,2.18,0,0,0,3.72-1.53l.15-22.72A2.18,2.18,0,0,0,301.24,115.25Z"/><path class="cls-16" d="M387.46,39.23h6l2.34-8.54h-6l1.32-4.87h6L400.37,14h5.89L403,25.81h4.85L411.08,14H417l-3.21,11.78h6l-1.32,4.87h-6l-2.33,8.54h6L414.8,44.1h-6L405.6,55.76h-5.88l3.18-11.66H398l-3.2,11.66h-5.89l3.2-11.66h-6Zm16.75,0,2.33-8.54h-4.86l-2.34,8.54Z"/><path class="cls-16" d="M455.84,35Q453.56,45.5,449,51.15t-12.72,5.66q-8.2,0-10.29-5.66T426.23,35q2.25-10.47,6.78-16.15t12.73-5.69q8.2,0,10.27,5.69T455.84,35ZM437.78,50q3.76,0,5.76-3.86A47.3,47.3,0,0,0,447.13,35q1.63-7.64,1.26-11.31T444.26,20a6.3,6.3,0,0,0-5.77,3.67q-2,3.67-3.64,11.31-1.6,7.29-1.21,11.15T437.78,50Z"/><path class="cls-16" d="M482.63,24.12a3.46,3.46,0,0,0-.33-2.25q-.92-2-3.67-2-4.12,0-6.84,4.55a33.56,33.56,0,0,0-2.9,7.41,12.58,12.58,0,0,1,4.22-2.68,14,14,0,0,1,4.93-.85q5.72,0,8.54,3.82t1.52,9.77a20.57,20.57,0,0,1-5.83,10.44q-4.56,4.52-12.11,4.52-8.11,0-10.51-6.68-1.86-5.22-.09-13.47a69.71,69.71,0,0,1,2.13-7.87,29.93,29.93,0,0,1,4.8-9,19.86,19.86,0,0,1,5.88-4.93,15.37,15.37,0,0,1,7.54-1.87q6,0,8.88,3t2.25,8Zm-10.87,26A6.61,6.61,0,0,0,476.64,48a10.67,10.67,0,0,0,2.77-5.41q.8-3.7-.61-5.67a4.69,4.69,0,0,0-4.07-2,7.24,7.24,0,0,0-4.09,1.28,9.25,9.25,0,0,0-3.82,6.12,7.13,7.13,0,0,0,.67,5.57A4.76,4.76,0,0,0,471.77,50.1Z"/></g></g></svg>