<svg xmlns="http://www.w3.org/2000/svg" viewBox="0 0 503.59 633.07"><defs><style>.cls-1,.cls-17{fill:#004864;}.cls-1,.cls-2{stroke:#00364b;stroke-width:3.95px;}.cls-1,.cls-10,.cls-11,.cls-12,.cls-13,.cls-14,.cls-15,.cls-2,.cls-3,.cls-5,.cls-6,.cls-7,.cls-8{stroke-linecap:round;}.cls-1,.cls-10,.cls-11,.cls-12,.cls-13,.cls-14,.cls-2,.cls-3,.cls-5,.cls-6,.cls-7,.cls-8{stroke-linejoin:round;}.cls-2{fill:#00364b;}.cls-3{fill:#ff8051;}.cls-3,.cls-5,.cls-6,.cls-7,.cls-8{stroke:#004864;}.cls-3,.cls-6,.cls-7,.cls-8{stroke-width:3.32px;}.cls-4{fill:#e0e0e0;}.cls-16,.cls-5{fill:#6bffba;}.cls-5{stroke-width:3.19px;}.cls-6{fill:#ff665c;}.cls-7,.cls-9{fill:#ffcd32;}.cls-8{fill:#0f9bff;}.cls-10,.cls-11,.cls-12,.cls-13,.cls-14,.cls-15{fill:none;stroke:#006464;}.cls-10{stroke-width:2.89px;}.cls-11{stroke-width:2.23px;}.cls-12{stroke-width:3.35px;}.cls-13{stroke-width:1.68px;}.cls-14{stroke-width:1.12px;}.cls-15{stroke-miterlimit:10;stroke-width:9.41px;}</style></defs><title>資產 123</title><g id="圖層_2" data-name="圖層 2"><g id="content"><path class="cls-1" d="M493.77,458.14l-39.47-1.68a8.74,8.74,0,0,1-2,5.29,10.61,10.61,0,0,1-4.2,2.57l32.63,1.53s16.18,1.23,20.18-3.29C504.41,458.57,493.77,458.14,493.77,458.14Z"/><path class="cls-2" d="M489.59,531.78l.78-65.94s8.85,1.65,11.24-4.61l-.67,65.34C503.12,534.42,489.59,531.78,489.59,531.78Z"/><polygon class="cls-2" points="448.07 464.31 446.24 529.83 489.58 531.78 490.36 465.84 448.07 464.31"/><polygon class="cls-3" points="303.95 292.66 256.14 272.31 273.5 309.45 319.21 325.06 303.95 292.66"/><path class="cls-4" d="M309.51,289,260.07,268s6.52,7.25,9.3,15.77,4.13,25.7,4.13,25.7l45.71,15.61Z"/><path class="cls-4" d="M341.31,287.19,293.5,266.85s-16.82,17.68-20,42.6l45.71,15.61Z"/><polygon class="cls-3" points="343.78 294.8 295.98 274.46 273.5 309.45 319.21 325.06 343.78 294.8"/><polygon class="cls-5" points="47.95 61.12 1.59 41.75 18.42 77.1 62.75 91.97 47.95 61.12"/><path class="cls-4" d="M53.35,57.68,5.4,37.62s6.32,6.9,9,15,4,24.47,4,24.47L62.75,92Z"/><path class="cls-4" d="M84.18,55.92,37.82,36.55S21.51,53.39,18.42,77.1L62.75,92Z"/><polygon class="cls-5" points="86.58 63.16 40.22 43.8 18.42 77.1 62.75 91.97 86.58 63.16"/><polygon class="cls-6" points="208.06 30.15 163.29 3.79 175.69 42.86 219 64.26 208.06 30.15"/><path class="cls-4" d="M214,27.29,167.74,0s5.52,8,7.18,16.84.77,26,.77,26L219,64.26Z"/><path class="cls-4" d="M245.81,29.57,201,3.21s-19,15.36-25.35,39.65L219,64.26Z"/><polygon class="cls-6" points="247.28 37.44 202.5 11.08 175.69 42.86 219 64.26 247.28 37.44"/><polygon class="cls-7" points="151.43 205.84 98.45 193.49 133.06 169.61 179.91 181.37 151.43 205.84"/><polygon class="cls-7" points="190.65 222.67 140.06 215.06 133.06 169.61 179.91 181.37 190.65 222.67"/><path class="cls-4" d="M177.07,178.33s19,13,20.27,37.34l-50.76-8.46s1.84-16.49-13.08-36.75c-.89-1.21-2.92-4,.85-4.15S177.07,178.33,177.07,178.33Z"/><path class="cls-4" d="M135.54,166.44l-31.74,21.75-9.69-1.8S112.42,163.87,135.54,166.44Z"/><polygon class="cls-8" points="286.8 167.53 233.82 155.18 268.43 131.3 315.28 143.06 286.8 167.53"/><polygon class="cls-8" points="326.02 184.36 275.43 176.75 268.43 131.3 315.28 143.06 326.02 184.36"/><path class="cls-4" d="M312.44,140s19,13,20.27,37.34L282,168.9s1.84-16.49-13.08-36.75c-.89-1.21-2.92-4,.85-4.15S312.44,140,312.44,140Z"/><path class="cls-4" d="M270.91,128.13l-31.74,21.75-9.69-1.8S247.79,125.56,270.91,128.13Z"/><path class="cls-9" d="M360.15,313.91c5.13-8.15,13.29-8,18.15.3l22.37,38.27c4.86,8.31,1,15.11-8.67,15.11H343.88c-9.63,0-13.31-6.67-8.18-14.81Z"/><path class="cls-10" d="M349.41,334.42h13a3.09,3.09,0,0,1,3.09,3.09v5.74a4.67,4.67,0,0,1-4.67,4.67H350.48a4.16,4.16,0,0,1-4.16-4.16v-6.25A3.09,3.09,0,0,1,349.41,334.42Z"/><path class="cls-10" d="M374.73,334.42h13a3.09,3.09,0,0,1,3.09,3.09V343a5,5,0,0,1-5,5H375.68a4,4,0,0,1-4-4v-6.37A3.09,3.09,0,0,1,374.73,334.42Z"/><line class="cls-10" x1="365.53" y1="337.09" x2="371.64" y2="337.09"/><path class="cls-11" d="M353.2,326.35S359,324,368.87,324s15.68,2.39,15.68,2.39"/><line class="cls-12" x1="380.11" y1="340.99" x2="380.15" y2="339.12"/><line class="cls-12" x1="357.15" y1="338.97" x2="357.2" y2="340.85"/><line class="cls-13" x1="361.81" y1="323.48" x2="363.66" y2="320.3"/><line class="cls-13" x1="367.89" y1="323.48" x2="369.73" y2="320.3"/><line class="cls-13" x1="373.96" y1="324.11" x2="375.8" y2="320.94"/><path class="cls-11" d="M358.9,358.23a2.42,2.42,0,0,0,2.23,1.49c1.68,0,7.46-1.07,7.46-1.07a57.82,57.82,0,0,0,6.88,1.07,3.88,3.88,0,0,0,2.87-1.86"/><path class="cls-11" d="M373,332.26s2.73-4.56,7.32-3"/><path class="cls-11" d="M365.53,332.82s-3.16-4.57-7.76-3"/><line class="cls-14" x1="378.33" y1="342.43" x2="381.89" y2="342.43"/><line class="cls-14" x1="355.46" y1="342.43" x2="359.01" y2="342.43"/><path class="cls-9" d="M317.21,345.5c-4.46,0-8.11,4-8.11,8.89v31.39a8.92,8.92,0,0,0,8.89,8.89h15.43a8.92,8.92,0,0,1,8.89,8.89v111c0,4.89-3.29,8.89-7.31,8.89s-7.31,3.65-7.31,8.11,4,8.11,8.89,8.11h13.06c4.89,0,8.89-3.65,8.89-8.11V472.41a8.92,8.92,0,0,1,8.89-8.89h1.68a8.92,8.92,0,0,1,8.89,8.89v59.16c0,4.46,4,8.11,8.89,8.11h13.06c4.89,0,8.89-3.65,8.89-8.11s-3.29-8.11-7.31-8.11-7.31-4-7.31-8.89v-65a8.92,8.92,0,0,1,8.89-8.89h10.22a8.92,8.92,0,0,0,8.89-8.89V387.34a8.92,8.92,0,0,0-8.89-8.89H334.21a8.92,8.92,0,0,1-8.89-8.89V354.39C325.32,349.5,321.67,345.5,317.21,345.5Zm82.89,81.95c-3.24,0-5.89-4-5.89-8.89V404.42c0-4.89,2.65-8.89,5.89-8.89s5.89,4,5.89,8.89v14.14C406,423.45,403.34,427.45,400.1,427.45Z"/><line class="cls-15" x1="368.26" y1="408.62" x2="368.26" y2="436.72"/><line class="cls-15" x1="368.26" y1="391.63" x2="368.26" y2="391.57"/><path class="cls-1" d="M431,539l-26.74-14.91a12,12,0,0,1-2.63,3.95c-1.8,1.88-7.47,1.75-7.47,1.75L422,546.5s5.38,3,10.09-.76S431,539,431,539Z"/><path class="cls-2" d="M421.19,612.45,422,546.5s10,4,11.77-4.05l-1.2,64.78C432.78,615.51,421.19,612.45,421.19,612.45Z"/><polygon class="cls-2" points="394.18 529.83 392.35 595.35 421.19 612.45 421.97 546.5 394.18 529.83"/><path class="cls-1" d="M283,539l26.74-14.91a12,12,0,0,0,2.63,3.95c1.8,1.88,7.47,1.75,7.47,1.75L292,546.5s-5.38,3-10.09-.76S283,539,283,539Z"/><path class="cls-2" d="M292.81,612.45,292,546.5s-10,4-11.77-4.05l1.2,64.78C281.23,615.51,292.81,612.45,292.81,612.45Z"/><polygon class="cls-2" points="319.83 529.83 321.66 595.35 292.82 612.45 292.04 546.5 319.83 529.83"/><path class="cls-1" d="M483.11,510.16l-39.47-1.68a8.74,8.74,0,0,1-2,5.29,10.61,10.61,0,0,1-4.2,2.57L470,517.86s16.18,1.23,20.18-3.29C493.75,510.59,483.11,510.16,483.11,510.16Z"/><path class="cls-2" d="M478.93,583.81l.78-65.94s8.85,1.65,11.24-4.61l-.67,65.34C492.46,586.44,478.93,583.81,478.93,583.81Z"/><polygon class="cls-2" points="437.42 516.33 435.59 581.85 478.92 583.81 479.7 517.86 437.42 516.33"/><path class="cls-1" d="M338.7,561.43l16.7-37.07a12.66,12.66,0,0,0,7.84,4c4.76.4,10.46-2.49,10.46-2.49L357,563a26.57,26.57,0,0,1-11.46,1.3C338.61,563.68,338.7,561.43,338.7,561.43Z"/><path class="cls-2" d="M357.79,628.9,357,563a25.82,25.82,0,0,1-10.14,1.41,15,15,0,0,1-8.16-2.94l2.4,66.08s1.71,3.08,7.22,3.54a16.11,16.11,0,0,0,9.46-2.14"/><polygon class="cls-2" points="373.7 525.88 375.53 591.4 357.79 628.9 357 562.95 373.7 525.88"/><rect class="cls-16" x="1.59" y="340.76" width="251.51" height="108.78" rx="54.39" ry="54.39"/><path class="cls-17" d="M90,388.68A22,22,0,0,0,97.67,396a16.66,16.66,0,0,0-3.1,3.7,24.23,24.23,0,0,1-7.28-8.35v10.34H82.67V391.38a25,25,0,0,1-8.75,8.55,18.71,18.71,0,0,0-3.14-3.74,22.23,22.23,0,0,0,8.87-7.52H75V374.6h7.64v-2.47h-9v-2.78c-1,3.1-2,6.64-3,9.27a12.25,12.25,0,0,1,2.9,8c0,2.55-.52,4.22-1.75,5.09a5.69,5.69,0,0,1-2.31.84,16.86,16.86,0,0,1-2.55.08,10,10,0,0,0-1-4c.72,0,1.27,0,1.75,0a2.06,2.06,0,0,0,1.11-.36c.44-.32.6-1.11.6-2.23a10.64,10.64,0,0,0-2.75-7c.8-2.51,1.63-6,2.27-8.67h-3.1v31.23h-4.1V366.2h8.63L71,366l3.1,1.79-.12.36h8.67v-3.62h4.62v3.62H96.6v4H87.29v2.47h8v14.08Zm-10.82-8.59h3.5v-2.15h-3.5Zm0,5.25h3.5v-2.15h-3.5Zm8.12-7.4v2.15h3.62v-2.15Zm3.62,5.25H87.29v2.15h3.62Z"/><path class="cls-17" d="M136.58,388.56a27.27,27.27,0,0,0,8.51,3.82,18.17,18.17,0,0,0-2.83,3.46,26.85,26.85,0,0,1-5.53-2.59,29.31,29.31,0,0,1,3.46,5l-3.9,1.91a36.18,36.18,0,0,0-5.37-7.68l2.82-1.35a27.34,27.34,0,0,1-2.67-2.59h-9.71a25.52,25.52,0,0,1-3.54,3.26L121,393.1a18.62,18.62,0,0,1-2.71,4.81c1.35,0,2.82,0,3.26,0s.6-.12.6-.52v-8.08h4.22v4.14l2.94-1a25.71,25.71,0,0,1,2.9,6.29l-3.58,1.23a25.27,25.27,0,0,0-2.27-5.77v3.34c0,1.91-.32,2.86-1.63,3.5s-2.94.6-5.21.6a14.65,14.65,0,0,0-1.23-3.66,12,12,0,0,1-2.9,2.55l-3.26-2.63a11.94,11.94,0,0,0,4.93-5.49,33.21,33.21,0,0,1-6.4,3.38,11.89,11.89,0,0,0-2.94-3.34,25.12,25.12,0,0,0,7.6-3.86h-6.72v-3.7h10.34a13.75,13.75,0,0,0,.88-1.43h-6.64V371.89h26.57v11.54H124.84c-.28.48-.52,1-.76,1.43h20.17v3.7ZM117.29,370h-8.47v-3.66h8.47v-1.87h4.61v1.87h4V370h-4v1.27h-4.61Zm.2,6.29h17.7v-1.59h-17.7Zm0,4.26h17.7V379h-17.7ZM131,370h-3.86v-3.66H131v-1.87h4.65v1.87h8.47V370h-8.47v1.27H131Z"/><path class="cls-17" d="M177.51,383.95c2.79,6.33,7.88,11,15.63,13a17,17,0,0,0-3.26,4.42c-7.48-2.39-12.29-7-15.63-13.53-2.19,5.29-6.68,10.3-15.63,13.64a18.23,18.23,0,0,0-3.1-4.1c9.19-3.26,13.09-8.39,14.72-13.45H156.91v-4.85h14.32c.08-1.07.12-2.07.12-3.06v-4h-13v-4.85h31.51V372H176.32v4.1c0,1,0,1.95-.08,3H191.4v4.85Z"/><path class="cls-17" d="M80.55,428.41A66.36,66.36,0,0,1,88,431.46l-1.16,2.12a68.76,68.76,0,0,0-8.3-3.61l.93-1.56h-.75c-1,2.55-3.22,4.19-8.76,5.1a6.29,6.29,0,0,0-1.22-2.22c4.17-.56,6.12-1.49,7.1-2.88H69.7v-2.1h7c.06-.33.13-.71.17-1.08H69.22V423.1h8V422H71v-2.08h6.14v-1.06H69.86v-2.18H73.8a11.82,11.82,0,0,0-1.16-1.83l2.2-.87a9.22,9.22,0,0,1,1.56,2.43l-.6.27h4.57a19.16,19.16,0,0,0,1.47-2.7l2.66.69c-.46.73-.93,1.41-1.39,2h4v2.18H79.74v1.06h6.35V422H79.74v1.1H88v2.14H79.47c0,.37-.1.73-.17,1.08H87.4v2.1Z"/><path class="cls-17" d="M112.22,419.13a17.19,17.19,0,0,1-3.13,5.23c.5,3.9,1.25,6.68,1.89,6.68.29,0,.48-1.06.54-3.32a5.17,5.17,0,0,0,1.83,1.35c-.35,3.42-1,4.32-2.68,4.32s-3-3-3.65-7.1c-.39.31-.81.58-1.22.85-.19-.25-.52-.58-.85-.93h-2.45a28.37,28.37,0,0,1,1.6,2.86l-1.62.87a22.42,22.42,0,0,0-1.16-2.39V431c0,.54.08.6.6.6h1.49c.48,0,.58-.31.62-2.2a5,5,0,0,0,1.33.6c-.29-.71-.58-1.41-.85-2l1.62-.62c.66,1.41,1.47,3.3,1.87,4.42l-1.74.75c-.12-.46-.33-1.06-.58-1.7-.23,1.91-.77,2.45-2.05,2.45h-2c-1.83,0-2.24-.54-2.24-2.24v-3.53h1.93l-.39-.71,1.29-.62h-4v-4.79H105V425a11.23,11.23,0,0,0,1.68-1.29c-.21-1.81-.33-3.74-.44-5.64H97.67v.89h7.95v1.64H97.67c0,3.69-.41,9.3-2.2,13a7.67,7.67,0,0,0-2-1.29c1.74-3.59,1.91-8.8,1.91-12.22v-4h10.73c0-.64,0-1.29,0-1.93h2.39v.66l1.31-.91c.66.48,1.6,1.16,2.08,1.6l-.77.58h1.66v2h-4.21c0,1.06.1,2.12.19,3.13a12.48,12.48,0,0,0,1.27-2.59Zm-15.52,13a40.44,40.44,0,0,0,.93-4.61l1.58.6c-.21,1.31-.54,3.36-.81,4.65Zm6.33-9.07H100.2v1.49H103Zm6.75-7c-.39-.35-.87-.73-1.29-1.06v1.06Z"/><path class="cls-17" d="M136.77,420.21a23.89,23.89,0,0,1-2.24,7.72,9.59,9.59,0,0,0,3.67,3.45,9.61,9.61,0,0,0-1.7,2.16,11.09,11.09,0,0,1-3.49-3.32,13.8,13.8,0,0,1-4.4,3.4,10.42,10.42,0,0,0-1.41-2.24,10.43,10.43,0,0,0,4.46-3.55,26.17,26.17,0,0,1-1.41-4.19c-.31.5-.62,1-1,1.43a14.55,14.55,0,0,0-1.37-1.29,20.74,20.74,0,0,1-2.86,2.68V427l3.63-.31v2.1c-1.21.13-2.43.25-3.63.35v2.05c0,1.08-.19,1.64-.91,2a7.64,7.64,0,0,1-3,.35,7.13,7.13,0,0,0-.71-2.1c.81,0,1.7,0,2,0s.35-.08.35-.29v-1.79l-3.94.39-.25-2.2c1.16-.1,2.61-.21,4.19-.35V426a15.11,15.11,0,0,0,1.72-1.45h-2.16a19.27,19.27,0,0,1-2.32,1.49,15,15,0,0,0-1.64-1.87,17.7,17.7,0,0,0,3.94-2.59h-3.69v-2.12h3.15v-1.39H119.4V416h2.37v-1.89H124V416h1.85v1.33a18.06,18.06,0,0,0,1.35-2.7l2.26.66a22.39,22.39,0,0,1-2.28,4.17h1.47v1.64a25.4,25.4,0,0,0,2-7l2.51.39c-.21,1.14-.46,2.3-.75,3.38H138v2.28ZM124,419.51h.33a13.6,13.6,0,0,0,1-1.39H124Zm3.4,3.63a10.55,10.55,0,0,0,1-1.52h-2.9a11.81,11.81,0,0,1-1,1.06h1.72l.44-.12Zm4.4-2.93a25.59,25.59,0,0,0,1.27,4.83,23.39,23.39,0,0,0,1.1-4.83Z"/><path class="cls-17" d="M150.34,427.39a22.48,22.48,0,0,0-1.25-2.28v8.43h-2.39v-7.47a19.32,19.32,0,0,1-2.26,4.11,13.7,13.7,0,0,0-1.14-2.34,19.44,19.44,0,0,0,3.07-5.56h-2.8V420h3.13v-2.34c-.81.12-1.58.25-2.34.33a7.43,7.43,0,0,0-.66-1.91,31.66,31.66,0,0,0,6.68-1.7l1.39,2a18.57,18.57,0,0,1-2.68.77V420h2.74v2.3h-2.74v.17c.6.58,2.3,2.53,2.7,3Zm10.23.89v5.23h-2.43v-4.79l-6.27,1.08-.39-2.34,6.66-1.14V414.15h2.43V425.9l2.05-.35.39,2.3Zm-5.21-2.88a18.72,18.72,0,0,0-3.3-3.18l1.58-1.41a18.24,18.24,0,0,1,3.4,3Zm.54-5.48a15.57,15.57,0,0,0-3.09-3.11l1.62-1.41a16.62,16.62,0,0,1,3.2,3Z"/><path class="cls-17" d="M179.24,421.52v.73h6.64v1.49h-6.64v.75h8.16v1.72H168.79v-1.72h8v-.75h-6.54v-1.49h6.54v-.73H170.7v-1.43h6.08v-.79h-8v-1.7h8v-.77h-5.85V415.4h5.85v-1.31h2.47v1.31H185v2.2h2.37v1.7H185v2.22Zm-7.87,5.33h13.76v6.72h-2.49V433h-8.88v.62h-2.39Zm2.39,1.58v.75h8.88v-.75Zm8.88,3v-.81h-8.88v.81Zm-3.4-13.82h3.34v-.77h-3.34Zm0,2.49h3.34v-.79h-3.34Z"/><path class="cls-16" d="M230.19,379.28h50.15a2.18,2.18,0,0,1,1.54,3.72l-50,22.72a2.18,2.18,0,0,1-3.72-1.53L228,381.48A2.18,2.18,0,0,1,230.19,379.28Z"/><path class="cls-16" d="M21.24,303.26h6l2.34-8.54h-6l1.32-4.87h6l3.23-11.78H40l-3.23,11.78h4.85l3.21-11.78h5.89l-3.21,11.78h6l-1.33,4.87h-6l-2.33,8.54h6l-1.32,4.87h-6l-3.18,11.66H33.5l3.18-11.66H31.79l-3.2,11.66H22.7l3.2-11.66h-6Zm16.76,0,2.33-8.54H35.47l-2.34,8.54Z"/><path class="cls-16" d="M89.62,299.06q-2.28,10.47-6.79,16.12t-12.72,5.66q-8.2,0-10.29-5.66T60,299.06q2.25-10.47,6.78-16.15t12.73-5.69q8.2,0,10.27,5.69T89.62,299.06Zm-18.06,15q3.76,0,5.76-3.86a47.3,47.3,0,0,0,3.6-11.15q1.63-7.64,1.26-11.31T78,284.07a6.3,6.3,0,0,0-5.77,3.67q-2,3.67-3.64,11.31-1.6,7.29-1.21,11.15T71.56,314.07Z"/><path class="cls-16" d="M126.93,284.57a74.07,74.07,0,0,0-6.68,6.55,76.49,76.49,0,0,0-7.74,9.72,72.29,72.29,0,0,0-5.34,9.62,45,45,0,0,0-3.45,9.33H94.95q2.81-11.37,12.67-23.65a76.07,76.07,0,0,1,10.07-10.61H96.28L98,278.06h30.32Z"/></g></g></svg>