<svg xmlns="http://www.w3.org/2000/svg" viewBox="0 0 319.83 71.3"><defs><style>.cls-1{fill:#6bffba;}.cls-2{fill:#00364b;}</style></defs><title>Asset 10</title><g id="Layer_2" data-name="Layer 2"><g id="對話框"><rect class="cls-1" width="319.83" height="49.48" rx="24.74" ry="24.74"/><path class="cls-2" d="M44,30.7V33L26.24,33V30.63l7,0L33.28,16h2.49l0,5.57,6.88,0V24l-6.88,0,0,6.74Z"/><path class="cls-2" d="M67.48,23.54v2.51L49.55,26V23.47Z"/><path class="cls-2" d="M79.17,28.84l-6.18,0V26.5l6.18,0ZM78.77,21l-5.36,0V18.71l5.36,0Zm6.46,3.14C86,27.83,87.72,30.74,91,32a8.42,8.42,0,0,0-1.55,2.06,9.75,9.75,0,0,1-5.1-5.55,10.68,10.68,0,0,1-5.71,5.71,9.47,9.47,0,0,0-1.75-1.92c5.23-2.38,5.79-6.17,5.8-8.69V21.82h2.49v2.28Zm-3.4-2.8a18.33,18.33,0,0,1-2.14,4A16.76,16.76,0,0,0,77.38,24c1.63-1.81,2.79-4.92,3.36-8.05l2.57.44c-.2.89-.42,1.77-.67,2.63l5.87,0L89,18.9l1.69,1a32.11,32.11,0,0,1-2,5.64,16.79,16.79,0,0,0-2-1,24.78,24.78,0,0,0,1.16-3.25Z"/><path class="cls-2" d="M96.19,33.37a18.09,18.09,0,0,0,2.41-3.56l2.24.61a24.45,24.45,0,0,1-2.41,3.89Zm16.44-3.89c-.58-.76-1.42-1.74-2.33-2.76a11.51,11.51,0,0,1-4.2,3.06,9.24,9.24,0,0,0-1.38-1.84,2,2,0,0,1-.45,1,1.67,1.67,0,0,1-1.17.52,11.21,11.21,0,0,1-1.91,0,4,4,0,0,0-.46-1.7,10.07,10.07,0,0,0,1.36.08.69.69,0,0,0,.55-.15,2.88,2.88,0,0,0,.34-1.3H100.7a6,6,0,0,1-3.15,3.38,5.3,5.3,0,0,0-1.24-1.64A4.71,4.71,0,0,0,99.13,24H96.46V22.32h3.8c-.14-.29-.31-.58-.45-.84l1.38-.27H97.36V19.48H100v-.76H97V17.16H100V16h2.22v1.17h2.92v1.56h-2.92v.76h2.57v1.73H102c.23.37.48.82.64,1.11h2.2l-.31-.22a13.13,13.13,0,0,0,3-6.32l2.24.46a24.31,24.31,0,0,1-.69,2.39l5.1,0v2h-1.05a16.65,16.65,0,0,1-1.54,4.2c1.09,1.12,2.06,2.21,2.72,3Zm-7.54-4.67s0,.47-.06.7a15.44,15.44,0,0,1-.32,2.39,9.19,9.19,0,0,0,4.06-2.83c-.66-.68-1.3-1.33-1.9-1.9l1.58-1.34,1.46,1.37a12.35,12.35,0,0,0,.85-2.53h-2.57a12.85,12.85,0,0,1-1.88,3,9.23,9.23,0,0,0-.72-.64V24l-4.33,0c0,.27-.08.53-.14.78ZM104,30.14a21.25,21.25,0,0,1,.47,3.57l-2.28.32a22,22,0,0,0-.36-3.66Zm4-.16a19,19,0,0,1,1.12,3.57l-2.32.44a18.85,18.85,0,0,0-1-3.65Zm3.92-.39a30.39,30.39,0,0,1,2.27,3.56l-2.28,1a24.9,24.9,0,0,0-2.11-3.69Z"/><path class="cls-2" d="M137,22.55a17.25,17.25,0,0,1-3.94,7.53,14.85,14.85,0,0,0,4.75,2.24,10.19,10.19,0,0,0-1.55,2.06,15.29,15.29,0,0,1-4.88-2.73,17.19,17.19,0,0,1-4.82,2.67,8,8,0,0,0-1.45-1.92,16.33,16.33,0,0,0,4.67-2.34,17.86,17.86,0,0,1-2.09-3,13.59,13.59,0,0,1-1.23,1.15,11.43,11.43,0,0,0-1.59-1.62,15.33,15.33,0,0,0,4.58-6.34l-4.77,0,1.67.51a22.35,22.35,0,0,1-1.71,3.23l0,10.37h-2.28l0-7.31c-.49.54-1,1-1.45,1.48a14.68,14.68,0,0,0-1.69-1.82,16.72,16.72,0,0,0,4.8-6.45l-4,0V18l7.66,0a15.12,15.12,0,0,0-.68-1.37l2.17-.73c.37.63.83,1.44,1.14,2.11l7,0v2.16l-7.07,0,1.58.43c-.18.43-.39.86-.59,1.28h3.92l.39-.08Zm-6.94,1.4c-.31.51-.65,1-1,1.48a12.54,12.54,0,0,0,2.31,3.22A12.66,12.66,0,0,0,134.26,24Zm1.49,3.3a10.13,10.13,0,0,0-1.8-2l1.39-1.07a12.21,12.21,0,0,1,1.9,1.8Z"/><path class="cls-2" d="M153.38,31.88c.51,0,1,.06,1.56.06,1.09,0,4.83,0,6.22,0a7.88,7.88,0,0,0-.79,2.22l-5.55,0c-3.57,0-6-.53-7.61-2.8a8.78,8.78,0,0,1-2.74,3.09,9.34,9.34,0,0,0-1.75-1.62,8.23,8.23,0,0,0,3.64-5.89l2.32.36c-.14.62-.3,1.21-.46,1.77a4.28,4.28,0,0,0,2.8,2.45l0-4.95-7.6,0v-2l17.19.06v2l-7.23,0V28l6,0v2l-6,0Zm5.41-8.24-13.54-.05,0-6.76,13.54.05ZM156.44,21l-8.92,0v1l8.92,0Zm0-2.51-8.92,0v1l8.92,0Z"/><path class="cls-2" d="M184,27.67c-.34,3.78-.68,5.41-1.29,6a2.08,2.08,0,0,1-1.46.71,16.74,16.74,0,0,1-2.32,0,5.07,5.07,0,0,0-.62-2.07,15.13,15.13,0,0,0,1.89.1.83.83,0,0,0,.64-.21c.31-.31.57-1.28.81-3.5l-11.59,0c-.31.23-.64.45-1,.66l1.77.57a8.14,8.14,0,0,1-2.3,4.39l-1.81-1.16a7,7,0,0,0,2.12-3.67c-.47.29-1,.54-1.44.79a14.21,14.21,0,0,0-1.2-2,17.78,17.78,0,0,0,7.49-6.66l-6.25,0v-2h3.27a16.19,16.19,0,0,0-1.22-2.48l2-.77A13.42,13.42,0,0,1,173,19.19l-1,.41h2.83a22,22,0,0,0,1.36-3.33l2.32.65q-.5,1.37-1.12,2.68h3.82c-.2,1.17-.5,2.49-.75,3.56h2.22c-.22,1.17-.48,2.53-.71,3.58H184ZM173.36,30a13.48,13.48,0,0,1,.51,3.59l-2,.25a13.38,13.38,0,0,0-.38-3.61Zm.5-4.77a18.28,18.28,0,0,1-1.47,1.57l7.44,0c.12-.47.24-1,.36-1.58Zm2.38,4.43a15.33,15.33,0,0,1,.92,3.16l-1.85.46a17,17,0,0,0-.88-3.24Zm.07-8c-.29.53-.61,1-.94,1.54h3c.12-.47.24-1,.34-1.54Zm2.12,10.59a11,11,0,0,0-1.14-2.63l1.6-.54a10.09,10.09,0,0,1,1.26,2.58Z"/><path class="cls-2" d="M206.82,19a32.32,32.32,0,0,1-6.72,5.39l0,7.52c0,1.33-.32,1.95-1.28,2.29a13.11,13.11,0,0,1-4.23.37,8.34,8.34,0,0,0-.93-2.34c1.38.06,3,.05,3.41.05s.58-.11.58-.45l0-8.63A24,24,0,0,0,202.16,20l-11.24,0V17.7l13.52,0,.51-.13Z"/><path class="cls-2" d="M219.67,17.2A33.42,33.42,0,0,1,218,20.92l-.05,13.68h-2.28l0-10.05a19.74,19.74,0,0,1-1.47,1.75,15.67,15.67,0,0,0-1.24-2.4,20.45,20.45,0,0,0,4.51-7.39Zm11.45,8-4.79,0,0,9.49h-2.42l0-9.49-5,0V22.87l5,0,0-6.14h2.42l0,6.14,4.79,0Z"/><path class="cls-2" d="M240,20v3.35c0,3.18-.3,8.18-1.76,11.33a8.69,8.69,0,0,0-1.85-1.37c1.28-2.9,1.39-7.07,1.4-10l0-5.36,7.31,0c-.1-.41-.21-.84-.31-1.17l2.34-.42a15.34,15.34,0,0,1,.52,1.6l6.64,0v2Zm2.18,4.47a4,4,0,0,1-1,3,5,5,0,0,0-1.11-.9,2.63,2.63,0,0,0,.86-2.18v-.76h1.27Zm8.87,5.39c1,1.15,2.41,2.79,3.14,3.79l-1.78.93c-.19-.29-.45-.64-.72-1-9.18.63-10.25.64-11,.88a18.27,18.27,0,0,0-.54-1.85,7.48,7.48,0,0,0,2.32-.85,20.4,20.4,0,0,0,2.21-1.1,13.77,13.77,0,0,0-3.29.36,14.76,14.76,0,0,0-.52-1.72,3.72,3.72,0,0,0,1.27-.48,17.39,17.39,0,0,0,3.28-2.17c-.43-.18-.52-.57-.52-1.25V23.71h1.23v1.66c0,.29,0,.39.21.39a2.36,2.36,0,0,0,.62-.06c0,.19,0,.39,0,.6a2.45,2.45,0,0,0,.79-2V23.6h1.27v.8a3.63,3.63,0,0,1-1,2.86,4.28,4.28,0,0,0-1-.84l0,.19a2.24,2.24,0,0,1-.68.08H246l1.19.76a24.06,24.06,0,0,1-3.09,1.92l2.9-.13a24.66,24.66,0,0,0,2.6-1.82l1.71,1.16a40.3,40.3,0,0,1-6.29,3.7l5.48-.35c-.39-.45-.78-.92-1.11-1.33Zm-8.35-2.74V23h-2.12V21.28h2.12v-.9h1.73v.9h2.36V23h-2.36V27.1Zm6.94.06V23h-2.34V21.3h2.34v-.9h1.73v.9h2.77v1.73h-2.77v4.11ZM253.75,26a3.35,3.35,0,0,0,.76-.08c0,.29,0,.66.08,1a3.09,3.09,0,0,1-.8.08h-.68c-1,0-1.19-.45-1.18-1.43V23.64h1.31v2c0,.31,0,.43.25.43Z"/><path class="cls-2" d="M277.92,29.44h-2v3.39h-2.36V32H270v.6c0,1.15-.28,1.62-1,1.95a10.26,10.26,0,0,1-3.45.32,7.14,7.14,0,0,0-.75-1.83c.94,0,2.08,0,2.4,0s.49-.13.49-.49V32l-5.92,0V30.3l5.92,0V29.4l-7.72,0V27.6l7.72,0v-.84l-5.77,0V25.21l5.77,0v-.86l-5.28,0V20.5l5.28,0v-.8l-7.27,0V17.86l7.27,0V16.62h2.36V17.9l7.44,0v1.83l-7.44,0v.8l5.53,0v3.86l-5.53,0v.86l5.87,0v2.4h2ZM267.7,22.92V22h-3.06v.94Zm5.84,6.51H270v.92h3.51ZM270,27.64h3.51v-.84H270Zm0-5.65v.94h3.16V22Z"/><path class="cls-2" d="M291.51,22.56c0-1.17-.93-1.84-2.45-1.84a4,4,0,0,0-3.12,1.53l-1.59-1.49a6.48,6.48,0,0,1,5-2.36c2.83,0,4.89,1.32,4.88,3.91,0,2.86-4.26,3.18-4,5.89h-2.51C287.37,25.13,291.5,24.45,291.51,22.56Zm-2.48,7a1.92,1.92,0,1,1-2,1.9A1.89,1.89,0,0,1,289,29.54Z"/><path class="cls-1" d="M122.31,46.45l6.12,22.64c.81,3,3.78,2.93,4.52-.12l5.47-22.64c.54-2.26-.62-4.61-2.27-4.61H124.56C122.86,41.72,121.7,44.18,122.31,46.45Z"/></g></g></svg>