<svg xmlns="http://www.w3.org/2000/svg" viewBox="0 0 392.26 333.65"><defs><style>.cls-1{fill:#ff665c;}.cls-2{fill:#ffcd32;}.cls-3,.cls-4,.cls-5,.cls-6,.cls-7,.cls-8{fill:none;stroke-linecap:round;}.cls-3,.cls-4{stroke:#ff665c;}.cls-3,.cls-4,.cls-7{stroke-linejoin:round;}.cls-3{stroke-width:2.85px;}.cls-4{stroke-width:3.21px;}.cls-5{stroke:#6bffba;stroke-miterlimit:10;stroke-width:8.61px;}.cls-6,.cls-7,.cls-8{stroke:#006464;}.cls-6{stroke-width:3.86px;}.cls-7,.cls-8{stroke-width:2.57px;}.cls-9{fill:#6bffba;}.cls-10{fill:#004864;}</style></defs><title>資產 1</title><g id="圖層_2" data-name="圖層 2"><g id="底"><ellipse class="cls-1" cx="229.97" cy="326.43" rx="14.52" ry="7.22"/><ellipse class="cls-1" cx="229.97" cy="322.58" rx="18.95" ry="9.43"/><ellipse class="cls-2" cx="230.18" cy="324.15" rx="14.31" ry="6.36"/><path class="cls-1" d="M229.05,325c-.27.72-1,.91-2.25.91s-1.94-.21-2.25-.91c0-.75,1-1.36,2.25-1.36S229.05,324.24,229.05,325Z"/><path class="cls-1" d="M234.47,323a.94.94,0,0,1-1,.42,1,1,0,0,1-1-.42,1.17,1.17,0,0,1,2,0Z"/><path class="cls-1" d="M224.55,321.18a.94.94,0,0,1-1,.42,1,1,0,0,1-1-.42,1.17,1.17,0,0,1,2,0Z"/><ellipse class="cls-1" cx="288.43" cy="314.44" rx="14.52" ry="6.86"/><ellipse class="cls-1" cx="288.43" cy="310.78" rx="18.95" ry="8.95"/><ellipse class="cls-2" cx="288.29" cy="311.81" rx="14.64" ry="6.51"/><path class="cls-1" d="M285.08,314.34c.27.72,1,.91,2.25.91s1.94-.21,2.25-.91c0-.75-1-1.36-2.25-1.36S285.08,313.57,285.08,314.34Z"/><path class="cls-1" d="M279.66,312.38a.94.94,0,0,0,1,.42,1,1,0,0,0,1-.42,1.17,1.17,0,0,0-2,0Z"/><ellipse class="cls-1" cx="192.06" cy="306.17" rx="14.52" ry="6.99"/><ellipse class="cls-1" cx="192.06" cy="302.44" rx="18.95" ry="9.12"/><ellipse class="cls-2" cx="192.49" cy="303.64" rx="14.51" ry="6.45"/><path class="cls-1" d="M201.86,303.44c-.27.72-1,.91-2.25.91s-1.94-.21-2.25-.91c0-.75,1-1.36,2.25-1.36S201.86,302.69,201.86,303.44Z"/><path class="cls-1" d="M194.07,306.48c-.37,1-1.4,1.26-3.12,1.26s-2.69-.29-3.12-1.26c0-1,1.4-1.89,3.12-1.89S194.07,305.44,194.07,306.48Z"/><ellipse class="cls-1" cx="262.23" cy="284.51" rx="39.76" ry="20.28"/><polyline class="cls-3" points="278.34 196.19 289.04 191.27 306.38 198.61 297.12 204.59"/><ellipse class="cls-1" cx="262.23" cy="208.86" rx="39.69" ry="17.2"/><rect class="cls-1" x="222.54" y="208.86" width="79.39" height="75.65"/><ellipse class="cls-2" cx="262.05" cy="214.91" rx="39.76" ry="17.23"/><polyline class="cls-4" points="224.7 224.05 211.02 229.18 230.52 237.43 241.15 233.77"/><path class="cls-1" d="M266.74,210.86c-.66,1.78-2.48,2.23-5.53,2.23s-4.77-.51-5.53-2.23c0-1.85,2.48-3.35,5.53-3.35S266.74,209,266.74,210.86Z"/><path class="cls-1" d="M248.68,206.29c-.36,1-1.36,1.22-3,1.22s-2.62-.28-3-1.22c0-1,1.36-1.84,3-1.84S248.68,205.27,248.68,206.29Z"/><path class="cls-1" d="M275.28,216c-.36,1-1.36,1.22-3,1.22s-2.62-.28-3-1.22c0-1,1.36-1.84,3-1.84S275.28,215,275.28,216Z"/><line class="cls-5" x1="280.35" y1="205.64" x2="313.61" y2="138.98"/><path class="cls-2" d="M361.31,89.72c2.9-4.62,7.53-4.54,10.28.17l12.68,21.68c2.75,4.71.54,8.56-4.91,8.56H352.09c-5.45,0-7.54-3.78-4.63-8.39Z"/><path class="cls-2" d="M349,131.21c-4,0-7.26,2.8-7.26,6.23s-3.27,6.23-7.26,6.23H308a7.28,7.28,0,0,0-7.26,7.26v.5a7.28,7.28,0,0,0,7.26,7.26h26.48c4,0,7.26,2.86,7.26,6.35s-3.27,6.35-7.26,6.35h-42a7.28,7.28,0,0,0-7.26,7.26v.5a7.28,7.28,0,0,0,7.26,7.26h42a7.28,7.28,0,0,1,7.26,7.26V194a7.05,7.05,0,0,1-6.78,7.26,7,7,0,0,0-6.78,7.26V270a7,7,0,0,1-6.73,7.26h0a7,7,0,0,0-6.76,7.23V285a7.28,7.28,0,0,0,7.26,7.26h14a7.28,7.28,0,0,0,7.26-7.26v-61.5a7.28,7.28,0,0,1,7.26-7.26h17.06a7.28,7.28,0,0,1,7.26,7.26V270a7,7,0,0,1-6.73,7.26h0a7,7,0,0,0-6.76,7.23V285a7.28,7.28,0,0,0,7.26,7.26h14a7.28,7.28,0,0,0,7.26-7.26V138.47a7.28,7.28,0,0,0-7.26-7.26Z"/><path class="cls-2" d="M349.69,67.22c5.12-8.14,13.28-8,18.13.3l22.34,38.23c4.85,8.3,1,15.09-8.66,15.09H333.44c-9.61,0-13.29-6.66-8.17-14.8Z"/><line class="cls-6" x1="350.98" y1="80.89" x2="346.74" y2="78.9"/><line class="cls-6" x1="364.5" y1="80.89" x2="368.74" y2="78.9"/><path class="cls-7" d="M342.38,86.23h9.84a2.93,2.93,0,0,1,2.93,2.93v5.5a6.37,6.37,0,0,1-6.37,6.37h-2.94a6.37,6.37,0,0,1-6.37-6.37v-5.5A2.93,2.93,0,0,1,342.38,86.23Z"/><path class="cls-7" d="M363.08,86.23h9.84a2.93,2.93,0,0,1,2.93,2.93v5.5a6.37,6.37,0,0,1-6.37,6.37h-2.94a6.37,6.37,0,0,1-6.37-6.37v-5.5A2.93,2.93,0,0,1,363.08,86.23Z"/><line class="cls-7" x1="355.17" y1="89.15" x2="360.16" y2="89.15"/><path class="cls-8" d="M345.76,108.38s-6,1.13-4.26,2.38,10.75-1.39,16.37-1.39,14.61,2.71,16.7,1.38c1.59-1-2.3-2.06-4.83-2.37"/><line class="cls-8" x1="368" y1="90.97" x2="370.56" y2="92.05"/><line class="cls-8" x1="347.38" y1="90.97" x2="344.82" y2="92.05"/><path class="cls-8" d="M353.13,117.57c0,.74,1.48,2.41,4.76,2.41s4.31-1.53,4.31-2.41"/><line class="cls-8" x1="355.73" y1="101.94" x2="355.73" y2="102.75"/><line class="cls-8" x1="359.24" y1="101.94" x2="359.24" y2="102.75"/><path class="cls-9" d="M54.39,63.55H160a54.39,54.39,0,0,1,54.39,54.39h0A54.39,54.39,0,0,1,160,172.33H54.39A54.39,54.39,0,0,1,0,117.94H0A54.39,54.39,0,0,1,54.39,63.55Z"/><path class="cls-10" d="M53.18,113.77a39.73,39.73,0,0,0-4.34-5.57,24.08,24.08,0,0,1-5.37,8.15,24.18,24.18,0,0,0-3.54-3.42c4.14-3.62,6.29-9.71,7.24-16.83l4.73.6a58,58,0,0,1-1.51,7A41,41,0,0,1,55.92,110ZM60.9,118H76.49v4.69H40.61V118H56V94.48H41.73V89.91H75.5v4.57H60.9v16.23c3-3.5,4.81-8.67,5.65-14.48l4.69.68a52.15,52.15,0,0,1-1.47,6.52,57.51,57.51,0,0,1,7,8.43l-3.3,3.58A52.09,52.09,0,0,0,68,108.16a23.2,23.2,0,0,1-4.77,7.2,27,27,0,0,0-2.35-2.23V118Z"/><path class="cls-10" d="M123.59,101.52v3.9h-8l1.47.8c-4.34,2.74-11.18,4.53-17.22,5.45a17.51,17.51,0,0,0-2.43-3.22,59.6,59.6,0,0,0,13.41-3H95.19v2.9c0,4.77-.72,11.62-4.26,16.07a17.87,17.87,0,0,0-3.82-3.1c3.06-3.86,3.38-9.23,3.38-13v-6.76h4.57a16.6,16.6,0,0,0-1.27-2,83.7,83.7,0,0,0,8.35-1.91c-2.39-.72-4.77-1.39-7-1.87l3-1.87H90.82V90.09h14a16,16,0,0,0-1-2.35l4.5-1a21.58,21.58,0,0,1,1.39,3.3h13.21v3.82h-6.84l1.07.6a36.27,36.27,0,0,1-5,2.86c2.63.88,5,1.71,7,2.43l-2.51,1.79h6.88Zm-.16,13.76c-5.53,5.49-14.68,8.08-25.18,9.43a15.81,15.81,0,0,0-2.23-4c9.59-.92,18.66-3.1,23.07-7.52Zm-3.5-4.61c-4.73,3.62-12.17,5.81-19.57,7.08A15.43,15.43,0,0,0,98,114.33c6.76-.87,14.24-2.82,17.94-5.65Zm-6.17-9.15c-1.79-.72-4-1.51-6.29-2.27-2.43.88-4.93,1.63-7.4,2.27h13.69Zm-13.38-7.68c2.27.6,4.69,1.27,7.12,2a30.47,30.47,0,0,0,4.42-2Z"/><path class="cls-10" d="M147.82,97.57c-.88,1.79-1.91,3.66-3.06,5.53h0v21.36h-4.38V109.28a34.79,34.79,0,0,1-2.86,3.26,39.61,39.61,0,0,0-2.59-4.42A43,43,0,0,0,143.6,96Zm-.68-8.51a65.4,65.4,0,0,1-9.75,11.1,31.53,31.53,0,0,0-2.19-3.9,40.31,40.31,0,0,0,7.72-8.91ZM145.07,121a21.19,21.19,0,0,0,3.1-7.36l3.58,1.39a27.72,27.72,0,0,1-3.14,8Zm27.49-9h-12c.84,1.39,1.75,3.1,2.27,4.22l-3.66,1.31a53.65,53.65,0,0,0-2.39-4.85l2-.68H146.91v-3.78h25.66V112ZM156.89,95.87l.24-2h-9.75V90.13h10c.08-1.07.12-2,.16-2.94l5,.16-.4,2.78h10.24v3.74h-10.7c-.12.72-.24,1.39-.32,2h9.83v10.54H148.86V95.87h8Zm5,24.5c1.11,0,1.35-.44,1.47-3.3a12.72,12.72,0,0,0,3.62,1.39c-.44,4.34-1.55,5.41-4.61,5.41h-4.93c-4.1,0-5.09-1.11-5.09-4.58v-4.85h4.14v4.81c0,1,.24,1.11,1.55,1.11h3.85Zm-6.64-21.16h-2.71v3.86h2.71Zm6,0h-2.77v3.86h2.78V99.21Zm3.18,3.86h3V99.21h-2.9v3.86Zm4.26,10.26a29,29,0,0,1,4.22,7.52l-3.7,1.67a25.65,25.65,0,0,0-4-7.64Z"/><path class="cls-10" d="M72,137c0,.87-.06,2-.15,3.24.29,2.8,1.56,10.63,8.8,13.82a6.58,6.58,0,0,0-1.81,2.14,16.06,16.06,0,0,1-8.11-9.82,16.9,16.9,0,0,1-7.64,9.94,7.93,7.93,0,0,0-2.05-2c8.42-4.5,8-13.8,8.11-17.31H72Z"/><path class="cls-10" d="M105.08,153.31v2.43H86.38v-2.43h8v-4.17H88.76v-2.39h5.62V143.1h-4.3a17.14,17.14,0,0,1-1.93,3,19.6,19.6,0,0,0-2.22-1.47,17.85,17.85,0,0,0,3.67-7.43l2.55.56a29.66,29.66,0,0,1-1,2.93h3.2V137h2.59v3.73h7v2.41h-7v3.65h6.21v2.39H96.94v4.17h8.14Z"/><path class="cls-10" d="M121.91,140.38c-.21.83-.44,1.62-.66,2.37h6.64v13.57h-2.64v-1.25h-9.17v1.25h-2.51V142.75h5.06c.15-.75.27-1.56.37-2.37h-7.51V138h18.24v2.41h-7.82Zm3.34,4.65h-9.17v2.72h9.17V145Zm0,7.76V150h-9.17v2.8h9.17Z"/><path class="cls-10" d="M138.72,151.13v1.66h-2.26v-14h6.23v12.39h-4Zm0-10v7.62h1.74v-7.62Zm12.1,6.2a15.23,15.23,0,0,0,4.54,5.73,11.63,11.63,0,0,0-1.83,2,17.15,17.15,0,0,1-3.34-4.48v5.67H147.7v-5.83a14.2,14.2,0,0,1-4.34,4.59,11.41,11.41,0,0,0-1.68-2,13,13,0,0,0,5.35-5.79h-3.8V145h4.46V142.4h-3.8v-2.34h3.8v-3h2.49v3h4.25v2.34h-4.25V145h4.92v2.34h-4.3Z"/><path class="cls-9" d="M210.05,102.07H260.2a2.18,2.18,0,0,1,1.54,3.72l-50,22.72A2.18,2.18,0,0,1,208,127l-.15-22.72a2.18,2.18,0,0,1,2.17-2.19Z"/><path class="cls-9" d="M8.1,26h6l2.34-8.54h-6l1.32-4.87h6L21,.85h5.89L23.65,12.63H28.5L31.71.85H37.6L34.38,12.63h6L39.06,17.5h-6L30.73,26h6l-1.32,4.87h-6L26.24,42.57H20.38l3.18-11.66H18.67L15.44,42.57H9.55l3.2-11.66h-6Zm16.76,0,2.33-8.54H22.33L20,26Z"/><path class="cls-9" d="M76.47,21.84Q74.19,32.31,69.68,38T57,43.62q-8.2,0-10.29-5.66t.19-16.12q2.25-10.47,6.78-16.15T66.38,0q8.2,0,10.27,5.69T76.47,21.84Zm-18.06,15q3.76,0,5.76-3.86a47.26,47.26,0,0,0,3.6-11.15Q69.4,14.19,69,10.52T64.9,6.85a6.3,6.3,0,0,0-5.77,3.67,44.4,44.4,0,0,0-3.64,11.31Q53.89,29.12,54.28,33t4.1,3.88Z"/><path class="cls-9" d="M84.71,13.41l1.21-5.66a40,40,0,0,0,5.71-.52A10.21,10.21,0,0,0,96.25,5a9.31,9.31,0,0,0,2.31-3A7.71,7.71,0,0,0,99.27.32h7l-9.1,42.25H88.52L94.8,13.41H84.71Z"/></g></g></svg>