<svg xmlns="http://www.w3.org/2000/svg" viewBox="0 0 34.49 80.78"><defs><style>.cls-1,.cls-10,.cls-11,.cls-12,.cls-13,.cls-14,.cls-15,.cls-16,.cls-17,.cls-19,.cls-2,.cls-20,.cls-21,.cls-22,.cls-3,.cls-4,.cls-5,.cls-6,.cls-7,.cls-8,.cls-9{fill:none;stroke-linecap:round;}.cls-1,.cls-10,.cls-11,.cls-12,.cls-13,.cls-14,.cls-15,.cls-16,.cls-17,.cls-2,.cls-3,.cls-4,.cls-5,.cls-6,.cls-7,.cls-8,.cls-9{stroke:#bebebe;stroke-miterlimit:10;}.cls-1{stroke-width:2.34px;}.cls-2{stroke-width:2.3px;}.cls-3{stroke-width:2.25px;}.cls-4{stroke-width:2.21px;}.cls-5{stroke-width:2.17px;}.cls-6{stroke-width:2.12px;}.cls-7{stroke-width:2.08px;}.cls-8{stroke-width:2.04px;}.cls-9{stroke-width:1.99px;}.cls-10{stroke-width:1.95px;}.cls-11{stroke-width:2px;}.cls-12{stroke-width:1.95px;}.cls-13{stroke-width:1.89px;}.cls-14{stroke-width:1.84px;}.cls-15{stroke-width:1.78px;}.cls-16{stroke-width:1.72px;}.cls-17{stroke-width:1.67px;}.cls-18{fill:#ffcd32;}.cls-19{stroke:#ff665c;stroke-width:2.73px;}.cls-19,.cls-20,.cls-21,.cls-22{stroke-linejoin:round;}.cls-20,.cls-21,.cls-22{stroke:#006464;}.cls-20{stroke-width:0.94px;}.cls-21{stroke-width:0.62px;}.cls-22{stroke-width:0.31px;}</style></defs><title>資產 8</title><g id="圖層_2" data-name="圖層 2"><g id="UI"><line class="cls-1" x1="6.58" y1="70.19" x2="5.53" y2="79.55"/><line class="cls-1" x1="22.21" y1="70.25" x2="21.16" y2="79.61"/><line class="cls-1" x1="6.58" y1="70.19" x2="22.21" y2="70.25"/><line class="cls-2" x1="7.13" y1="65.32" x2="6.07" y2="74.69"/><line class="cls-2" x1="22.75" y1="65.38" x2="21.7" y2="74.75"/><line class="cls-2" x1="7.13" y1="65.32" x2="22.75" y2="65.38"/><line class="cls-3" x1="7.67" y1="60.46" x2="6.62" y2="69.82"/><line class="cls-3" x1="23.3" y1="60.52" x2="22.25" y2="69.88"/><line class="cls-3" x1="7.67" y1="60.46" x2="23.3" y2="60.52"/><line class="cls-4" x1="8.22" y1="55.59" x2="7.17" y2="64.96"/><line class="cls-4" x1="23.84" y1="55.65" x2="22.79" y2="65.02"/><line class="cls-4" x1="8.22" y1="55.59" x2="23.84" y2="55.65"/><line class="cls-5" x1="8.76" y1="50.73" x2="7.71" y2="60.1"/><line class="cls-5" x1="24.39" y1="50.79" x2="23.34" y2="60.16"/><line class="cls-5" x1="8.76" y1="50.73" x2="24.39" y2="50.79"/><line class="cls-6" x1="9.31" y1="45.86" x2="8.26" y2="55.23"/><line class="cls-6" x1="24.94" y1="45.93" x2="23.88" y2="55.29"/><line class="cls-6" x1="9.31" y1="45.86" x2="24.94" y2="45.93"/><line class="cls-7" x1="9.85" y1="41" x2="8.8" y2="50.37"/><line class="cls-7" x1="25.48" y1="41.06" x2="24.43" y2="50.43"/><line class="cls-7" x1="9.85" y1="41" x2="25.48" y2="41.06"/><line class="cls-8" x1="10.4" y1="36.14" x2="9.35" y2="45.5"/><line class="cls-8" x1="26.03" y1="36.2" x2="24.98" y2="45.56"/><line class="cls-8" x1="10.4" y1="36.14" x2="26.03" y2="36.2"/><line class="cls-9" x1="10.94" y1="31.27" x2="9.89" y2="40.64"/><line class="cls-9" x1="26.57" y1="31.33" x2="25.52" y2="40.7"/><line class="cls-9" x1="10.94" y1="31.27" x2="26.57" y2="31.33"/><line class="cls-10" x1="11.49" y1="26.41" x2="10.44" y2="35.78"/><line class="cls-10" x1="27.12" y1="26.47" x2="26.07" y2="35.84"/><line class="cls-10" x1="11.49" y1="26.41" x2="27.12" y2="26.47"/><line class="cls-11" x1="32.44" y1="58.43" x2="33.49" y2="65.28"/><line class="cls-11" x1="16.81" y1="58.47" x2="17.86" y2="65.32"/><line class="cls-11" x1="32.44" y1="58.43" x2="16.81" y2="58.47"/><line class="cls-12" x1="31.62" y1="53.09" x2="32.67" y2="59.94"/><line class="cls-12" x1="15.99" y1="53.13" x2="17.04" y2="59.98"/><line class="cls-12" x1="31.62" y1="53.09" x2="15.99" y2="53.13"/><line class="cls-13" x1="30.8" y1="47.75" x2="31.85" y2="54.6"/><line class="cls-13" x1="15.17" y1="47.8" x2="16.23" y2="54.65"/><line class="cls-13" x1="30.8" y1="47.75" x2="15.17" y2="47.8"/><line class="cls-14" x1="29.98" y1="42.42" x2="31.03" y2="49.27"/><line class="cls-14" x1="14.36" y1="42.46" x2="15.41" y2="49.31"/><line class="cls-14" x1="29.98" y1="42.42" x2="14.36" y2="42.46"/><line class="cls-15" x1="29.17" y1="37.08" x2="30.22" y2="43.93"/><line class="cls-15" x1="13.54" y1="37.13" x2="14.59" y2="43.98"/><line class="cls-15" x1="29.17" y1="37.08" x2="13.54" y2="37.13"/><line class="cls-16" x1="28.35" y1="31.74" x2="29.4" y2="38.6"/><line class="cls-16" x1="12.72" y1="31.79" x2="13.77" y2="38.64"/><line class="cls-16" x1="28.35" y1="31.74" x2="12.72" y2="31.79"/><line class="cls-17" x1="27.53" y1="26.41" x2="28.58" y2="33.26"/><line class="cls-17" x1="11.9" y1="26.45" x2="12.95" y2="33.3"/><line class="cls-17" x1="27.53" y1="26.41" x2="11.9" y2="26.45"/><path class="cls-18" d="M2.1,21.62a2.15,2.15,0,0,1,2.1-1.95H22a2.28,2.28,0,0,0,2.19-1.94l.42-3.38a2.28,2.28,0,0,1,2.19-1.94h.13a1.72,1.72,0,0,1,1.74,1.94l-.8,7.41a2.23,2.23,0,0,1-2.16,1.94H16.81a2.15,2.15,0,0,0-2.1,1.95l-.07.95c-.08,1.07.34,1.93.94,1.92a1.16,1.16,0,0,0,1.16-1c0-.52,1-1,2-1h.13a1.78,1.78,0,0,1,1.8,1.95l-.16,2.05a2.17,2.17,0,0,1-2.1,2l-2.32,0a2.18,2.18,0,0,0-2.11,2L13.89,36A1.77,1.77,0,0,0,15.68,38h4.5A1.77,1.77,0,0,1,22,39.93l-.56,6.63c-.09,1.07.42,2,1.14,2s1.19.82,1.06,1.78a2.2,2.2,0,0,1-2.2,1.75H18.81a1.81,1.81,0,0,1-1.82-2l.39-5.6a1.8,1.8,0,0,0-1.82-1.95h-3.3a2.15,2.15,0,0,0-2.1,1.95L9.22,57A1.77,1.77,0,0,0,11,58.94a1.77,1.77,0,0,1,1.77,1.95V61A2.15,2.15,0,0,1,10.65,63h-4A1.78,1.78,0,0,1,4.87,61L6.13,44.49a1.78,1.78,0,0,0-1.8-1.95H2.46A1.78,1.78,0,0,1,.66,40.6Z"/><polyline class="cls-19" points="29.77 18.07 27.56 10.75 27.46 17.19 26.56 10.9 24.88 16.44"/><path class="cls-18" d="M7.63,1.68c1.43-2.28,3.72-2.24,5.07.08L19,12.47c1.36,2.32.27,4.22-2.42,4.22H3.08c-2.69,0-3.72-1.86-2.29-4.14Z"/><line class="cls-20" x1="11.87" y1="6.24" x2="13.85" y2="6.34"/><line class="cls-20" x1="8.02" y1="6.24" x2="6.04" y2="6.34"/><line class="cls-21" x1="12.52" y1="8.33" x2="13.68" y2="8.38"/><line class="cls-21" x1="7.49" y1="8.33" x2="6.34" y2="8.38"/><polyline class="cls-21" points="9.77 6.29 8.59 10.97 9.81 11.99"/><path class="cls-21" d="M7.42,13.49H12.9a2.84,2.84,0,0,1-2.74,1.93A2.84,2.84,0,0,1,7.42,13.49Z"/><line class="cls-22" x1="12.27" y1="14.31" x2="10.16" y2="14.31"/><line class="cls-21" x1="3.39" y1="9.36" x2="2.4" y2="9.62"/><line class="cls-21" x1="2.35" y1="10.84" x2="1.35" y2="11.1"/><line class="cls-21" x1="1.3" y1="12.31" x2="0.31" y2="12.57"/><line class="cls-21" x1="16.56" y1="9.36" x2="17.55" y2="9.62"/><line class="cls-21" x1="17.6" y1="10.84" x2="18.6" y2="11.1"/><line class="cls-21" x1="18.65" y1="12.31" x2="19.64" y2="12.57"/><polyline class="cls-21" points="7.8 2.18 8.59 3.17 9.2 2.18 9.81 3.17 10.61 2.18"/></g></g></svg>