<svg xmlns="http://www.w3.org/2000/svg" viewBox="0 0 76.46 69.2"><defs><style>.cls-1,.cls-10,.cls-11,.cls-13,.cls-14,.cls-15,.cls-3,.cls-4,.cls-5,.cls-6,.cls-8,.cls-9{fill:none;}.cls-1,.cls-8{stroke:#fff;}.cls-1,.cls-13{stroke-miterlimit:10;}.cls-1{stroke-width:0.84px;}.cls-2{fill:#ffcd32;}.cls-3,.cls-4,.cls-5,.cls-6{stroke:#006464;}.cls-10,.cls-11,.cls-13,.cls-14,.cls-15,.cls-3,.cls-4,.cls-5,.cls-6,.cls-8,.cls-9{stroke-linecap:round;}.cls-10,.cls-14,.cls-15,.cls-3,.cls-4,.cls-5,.cls-6{stroke-linejoin:round;}.cls-3{stroke-width:0.64px;}.cls-4{stroke-width:0.58px;}.cls-5{stroke-width:0.59px;}.cls-6{stroke-width:1.28px;}.cls-7{fill:#fff;}.cls-8{stroke-width:5.46px;}.cls-10,.cls-11,.cls-9{stroke:#ff665c;}.cls-10,.cls-9{stroke-width:2.52px;}.cls-11{stroke-width:1.68px;}.cls-12{fill:#ff9947;}.cls-13,.cls-15{stroke:#ff9947;}.cls-13,.cls-14{stroke-width:2.72px;}.cls-14{stroke:#6bffba;}.cls-15{stroke-width:2.72px;}</style></defs><title>資產 127</title><g id="圖層_2" data-name="圖層 2"><g id="頂部小人"><path class="cls-1" d="M48.72,22s-2.3-12.8,3-11.18c5.73,1.74-3,11.18-3,11.18"/><path class="cls-1" d="M48.72,22s.55-12.09,3-11.18-3,11.18-3,11.18"/><path class="cls-2" d="M32.5,7C31,4.71,28.7,4.75,27.32,7.12L20.93,18c-1.39,2.37-.27,4.31,2.48,4.31H37.14c2.75,0,3.8-1.9,2.34-4.23Z"/><path class="cls-3" d="M29,12.59s2.58-2.18,2.55-4.81"/><path class="cls-3" d="M27.54,12.59A7.78,7.78,0,0,0,29.48,10"/><path class="cls-3" d="M26.26,12.59A8.59,8.59,0,0,0,28,10"/><path class="cls-3" d="M24.92,12.59A8.59,8.59,0,0,0,26.66,10"/><path class="cls-3" d="M31.19,12.31A3,3,0,0,1,33,11.76a2,2,0,0,1,1.61.55"/><path class="cls-4" d="M31.72,15.07A3.09,3.09,0,0,1,33.84,14a2.28,2.28,0,0,1,1.52.54"/><path class="cls-5" d="M28.07,15.07a3.27,3.27,0,0,0-2.22-1.16,1.87,1.87,0,0,0-1.56.87"/><polygon class="cls-3" points="31.23 19.85 29.68 21.34 28.18 19.87 29.68 19.19 31.23 19.85"/><line class="cls-3" x1="30.27" y1="14.59" x2="30.02" y2="17.49"/><line class="cls-6" x1="25.52" y1="14.97" x2="25.16" y2="14.59"/><line class="cls-6" x1="33.27" y1="15.02" x2="32.79" y2="14.67"/><path class="cls-2" d="M37,45a34.25,34.25,0,0,0-.44-5L35,31.37a2,2,0,0,1,2.08-2.46L49.22,29a2.29,2.29,0,0,0,2.51-2,2.34,2.34,0,0,0-2.53-2l-27.75-.07A3.94,3.94,0,0,0,18,27.23l-4,10.35a2.23,2.23,0,0,0,1.06,3A2.47,2.47,0,0,0,18,38.93l3.06-7.84a2.63,2.63,0,0,1,2.83-1.83,2.66,2.66,0,0,1,1.55,3l-1.19,8.21a41.62,41.62,0,0,0-.36,5l0,18.61a2.48,2.48,0,0,0,2.52,2.48l2.55,0a2.45,2.45,0,0,0,2.52-2.29A2,2,0,0,0,29.77,62c-1,0-1.76-1.12-1.76-2.5V47.81a2.43,2.43,0,1,1,4.85,0v16a2.53,2.53,0,0,0,2.52,2.52h2.7a2.32,2.32,0,0,0,2.52-2,2,2,0,0,0-1.83-2c-1,0-1.83-1.13-1.83-2.52Z"/><polygon class="cls-7" points="33.55 8.75 26.26 8.62 26.41 4.35 33.64 4.44 33.55 8.75"/><line class="cls-8" x1="34.54" y1="4.81" x2="26.26" y2="2.73"/><circle class="cls-2" cx="21.52" cy="9.48" r="2.56"/><line class="cls-9" x1="48.72" y1="22.03" x2="47.27" y2="27.37"/><path class="cls-10" d="M26.26,24.88a10.27,10.27,0,0,0,3.5,1.18,10.27,10.27,0,0,0,3.5-1.18"/><line class="cls-11" x1="29.35" y1="27.47" x2="28.11" y2="28.89"/><line class="cls-11" x1="30.51" y1="27.47" x2="31.96" y2="28.89"/><path class="cls-12" d="M65.21,51.34H75.44a0,0,0,0,1,0,0v7a0,0,0,0,1,0,0H65.21a3.52,3.52,0,0,1-3.52-3.52v0A3.52,3.52,0,0,1,65.21,51.34Z" transform="translate(123.42 -13.71) rotate(90)"/><polyline class="cls-13" points="66.37 56.55 66.37 60.84 65.05 66.28"/><line class="cls-13" x1="70.27" y1="59.93" x2="75.1" y2="61.75"/><polyline class="cls-14" points="65.83 44.15 68.56 48.6 68.56 41.51"/><line class="cls-14" x1="68.56" y1="48.6" x2="70.93" y2="44.16"/><path class="cls-12" d="M48.25,53.28h7.57a0,0,0,0,1,0,0v7a0,0,0,0,1,0,0H48.25a3.52,3.52,0,0,1-3.52-3.52v0a3.52,3.52,0,0,1,3.52-3.52Z" transform="translate(107.07 6.53) rotate(90)"/><polyline class="cls-15" points="48.08 57.15 48.08 61.22 47.27 66.68"/><line class="cls-13" x1="51.98" y1="60.54" x2="56.35" y2="63.13"/><polyline class="cls-14" points="52.45 43.34 50.27 51.87 50.27 39.95"/><path class="cls-12" d="M-1.25,50.86H13.48a0,0,0,0,1,0,0v7a0,0,0,0,1,0,0H-1.25a3.52,3.52,0,0,1-3.52-3.52v0A3.52,3.52,0,0,1-1.25,50.86Z" transform="translate(58.74 50.02) rotate(90)"/><polyline class="cls-15" points="2.17 58.32 2.17 62.38 1.36 67.84"/><line class="cls-13" x1="6.07" y1="61.7" x2="10.44" y2="64.29"/><polyline class="cls-14" points="7.33 42.31 4.36 45.87 4.36 38.79"/></g></g></svg>