<svg xmlns="http://www.w3.org/2000/svg" xmlns:xlink="http://www.w3.org/1999/xlink" viewBox="0 0 254.22 158.45"><defs><style>.cls-1{fill:#00364b;}.cls-2{fill:#004864;}.cls-3{fill:#ff9947;}.cls-4{fill:#bebebe;}.cls-5{fill:#e0e0e0;stroke:#ff9947;}.cls-5,.cls-8{stroke-linecap:round;stroke-width:11px;}.cls-6{fill:url(#未命名漸層_15);}.cls-7{fill:#fff;}.cls-8{fill:none;stroke:#004864;}</style><linearGradient id="未命名漸層_15" x1="77.19" y1="16.66" x2="110.28" y2="103.11" gradientUnits="userSpaceOnUse"><stop offset="0" stop-color="#ff9947"/><stop offset="1" stop-color="#00364b"/></linearGradient></defs><title>Asset 7</title><g id="Layer_2" data-name="Layer 2"><g id="小物"><path class="cls-1" d="M211.24,96.13s6.9,1.46,2,6.21l-4.91,4.75,37.23,13.67s15.19,3.58,5.36,9.08c-4.79,2.68-129.08,26.92-129.08,26.92s-6.1,2.75-10.42,1.25S3.08,124,3.08,124s-4.67-3.88,1.33-7.6S211.24,96.13,211.24,96.13Z"/><path class="cls-2" d="M3.23,110.83,87.66,56.08a4.52,4.52,0,0,1,2.28-.33l119.87,36c4.27,1.87,4.61,6,.71,9.07,0,0-85.46,49.2-88.93,51.47s-4.6,4.23-10.75,2.26L2.91,119.87C-1.13,118.6-.91,112.55,3.23,110.83Z"/><path class="cls-2" d="M6.71,105.53S68.29,5.16,69.38,3.56c.73-1.31,1.71-3.17,4.08-2.37,0,0,108.66,25,111.45,25.7s9.37,2.23,3.62,10.94c0,0-66.28,105-68,107.92s-4.85,3.15-8.51,2L6.39,114.15C2.49,112.94,3.58,109.88,6.71,105.53Z"/><path class="cls-3" d="M4.2,104.53S65.79,4.16,66.88,2.56C67.61,1.26,68.59-.6,71,.19c0,0,108.66,25,111.45,25.7s9.37,2.23,3.62,10.94c0,0-66.28,105-68,107.92s-4.85,3.15-8.51,2L3.89,113.15C0,111.94,1.08,108.88,4.2,104.53Z"/><path class="cls-1" d="M13.4,99.92,70.14,4.21c.28-.5.75-.88,2.17-.61L178.45,28.66c1.33.29,1.84,1.39.87,2.81L115.24,132.84a1.47,1.47,0,0,1-1.14.12L13.62,102.65C12.34,102.25,12.47,101.56,13.4,99.92Z"/><polygon class="cls-4" points="13.1 102.47 71.22 4.87 179.61 31.01 114.94 133.71 13.1 102.47"/><line class="cls-5" x1="21.78" y1="114.94" x2="30.26" y2="117.85"/><polygon class="cls-6" points="13.1 102.47 71.22 4.87 179.61 31.01 114.94 133.71 13.1 102.47"/><polygon class="cls-7" points="138.44 96.51 162.2 58.9 135.35 20.22 79.94 6.56 138.44 96.51"/><polygon class="cls-7" points="164.59 27.43 148.45 23.45 166.96 51.35 173.64 40.79 164.59 27.43"/><line class="cls-8" x1="31.66" y1="118.33" x2="55.32" y2="126.46"/><line class="cls-5" x1="51.08" y1="125" x2="64.21" y2="129.51"/><line class="cls-8" x1="66.49" y1="130.27" x2="84.14" y2="136.34"/><line class="cls-5" x1="86.92" y1="135.97" x2="95.4" y2="138.88"/></g></g></svg>