<svg xmlns="http://www.w3.org/2000/svg" viewBox="0 0 81.28 66.77"><defs><style>.cls-1{fill:#ffcd32;}.cls-2,.cls-3,.cls-5,.cls-6{fill:none;stroke-linecap:round;}.cls-2{stroke:#006464;stroke-linejoin:round;stroke-width:0.64px;}.cls-3{stroke:#ffcd32;stroke-width:1.24px;}.cls-3,.cls-5,.cls-6{stroke-miterlimit:10;}.cls-4{fill:#fff;}.cls-5,.cls-6{stroke:#6bffba;}.cls-5{stroke-width:1.69px;}.cls-6{stroke-width:2.25px;}.cls-7{fill:#6bffba;}</style></defs><title>Asset 18 1</title><g id="Layer_2" data-name="Layer 2"><g id="頂部小人"><path class="cls-1" d="M39.13,3.25C40.61.9,43,.94,44.36,3.33l6.44,11c1.4,2.39.27,4.35-2.5,4.35H34.45c-2.77,0-3.83-1.92-2.36-4.26Z"/><path class="cls-2" d="M36.87,7.93H40a.83.83,0,0,1,.83.83v1.29A1.81,1.81,0,0,1,39,11.86H37.85A1.81,1.81,0,0,1,36,10.05V8.76a.83.83,0,0,1,.83-.83Z"/><path class="cls-2" d="M43.15,7.93h3.1a.83.83,0,0,1,.83.83v1.29a1.81,1.81,0,0,1-1.81,1.81H44.12a1.81,1.81,0,0,1-1.81-1.81V8.76a.83.83,0,0,1,.83-.83Z"/><line class="cls-2" x1="40.8" y1="8.71" x2="42.31" y2="8.71"/><line class="cls-2" x1="44.7" y1="9.25" x2="44.69" y2="9.79"/><line class="cls-2" x1="38.42" y1="9.19" x2="38.43" y2="9.74"/><line class="cls-2" x1="40.42" y1="11.23" x2="41.56" y2="13.18"/><polyline class="cls-2" points="40.49 14.38 39.28 15.28 40.42 16.11 39.7 16.82 40.52 17.49"/><polyline class="cls-2" points="40.42 16.11 42.88 15.77 43.91 15.35"/><line class="cls-2" x1="43.91" y1="8.96" x2="45.36" y2="8.96"/><line class="cls-2" x1="37.83" y1="8.96" x2="39.28" y2="8.96"/><line class="cls-2" x1="43.39" y1="6.23" x2="44.28" y2="5.67"/><line class="cls-2" x1="39.77" y1="6.23" x2="38.89" y2="5.67"/><polyline class="cls-1" points="43.03 2.07 40.17 0 40.4 1.59 38.89 1.29 39.62 2.47 38.33 2.49 39.67 4.14"/><path class="cls-1" d="M56.65,14A2.07,2.07,0,0,0,54.59,16v3a2.07,2.07,0,0,1-2.06,2.06H30.25A2.07,2.07,0,0,1,28.19,19V16A2.07,2.07,0,0,0,26.12,14H26A2.07,2.07,0,0,0,23.91,16v7.24A2.07,2.07,0,0,0,26,25.32h6.68a2.07,2.07,0,0,1,2.06,2.06V59.48a1.61,1.61,0,0,1-2,1.66,1.61,1.61,0,0,0-2,1.66v.14a2.67,2.67,0,0,0,2,2.5l4.21.9a1.6,1.6,0,0,0,2-1.63V47.32a2.07,2.07,0,0,1,2.06-2.06h1a2.07,2.07,0,0,1,2.06,2.06V64.7a2.07,2.07,0,0,0,2.06,2.06h4a2.07,2.07,0,0,0,2.06-2.06v-.14a2,2,0,0,0-1.92-2.06,2,2,0,0,1-1.92-2.06v-33a2.07,2.07,0,0,1,2.06-2.06H56.8a2.07,2.07,0,0,0,2.06-2.06V16A2.07,2.07,0,0,0,56.8,14Z"/><line class="cls-3" x1="25.97" y1="14.38" x2="25.97" y2="1.26"/><path class="cls-4" d="M41.37,21.7l-4.06,6.13,2.26.95a5,5,0,0,0,4-.05l1.83-.83Z"/><polyline class="cls-5" points="69.34 31.84 69.34 40.58 68.23 42.51"/><polyline class="cls-5" points="78.97 31.91 78.97 40.62 80.44 42.16"/><line class="cls-6" x1="71.5" y1="22.8" x2="71.5" y2="23.71"/><line class="cls-6" x1="76.26" y1="22.8" x2="76.26" y2="30.34"/><path class="cls-7" d="M73.08,30.09V26.3a.94.94,0,0,0-.94-.94H70.68a.94.94,0,0,1-.94-.94h0a.94.94,0,0,1,.94-.94h6.66a.94.94,0,0,1,.94.94v7.8a.94.94,0,0,1-.94.94H70.68a.94.94,0,0,1-.94-.94V32a.94.94,0,0,1,.94-.94h1.46A.94.94,0,0,0,73.08,30.09Z"/><line class="cls-5" x1="72.76" y1="32.51" x2="72.76" y2="38.79"/><line class="cls-5" x1="75.06" y1="32.51" x2="75.06" y2="38.79"/><rect class="cls-7" x="57.71" y="51.31" width="8.55" height="5.17" rx="0.83" ry="0.83"/><polyline class="cls-5" points="57.32 55.16 57.32 58.7 55.09 58.78"/><polyline class="cls-5" points="66.95 55.23 66.95 58.78 69.88 58.78"/><line class="cls-6" x1="59.47" y1="50.21" x2="59.47" y2="53.66"/><line class="cls-6" x1="64.23" y1="50.21" x2="64.23" y2="53.66"/><line class="cls-5" x1="60.74" y1="55.83" x2="60.74" y2="58.78"/><line class="cls-5" x1="63.04" y1="55.83" x2="63.04" y2="58.78"/><rect class="cls-7" x="4.47" y="35.17" width="8.55" height="5.17" rx="0.83" ry="0.83" transform="translate(17.48 75.51) rotate(-180)"/><polyline class="cls-5" points="13.4 39.02 13.4 42.57 15.63 42.64"/><polyline class="cls-5" points="3.77 39.09 3.77 42.64 0.84 42.64"/><line class="cls-6" x1="11.25" y1="34.08" x2="11.25" y2="37.52"/><line class="cls-6" x1="6.49" y1="34.08" x2="6.49" y2="37.52"/><line class="cls-5" x1="9.98" y1="39.7" x2="9.98" y2="42.64"/><line class="cls-5" x1="7.69" y1="39.7" x2="7.69" y2="42.64"/><polyline class="cls-5" points="25.46 59.31 25.46 63.99 27.69 64.06"/><polyline class="cls-5" points="15.83 59.39 15.83 64.06 12.9 64.06"/><line class="cls-6" x1="23.31" y1="50.93" x2="23.31" y2="52.12"/><line class="cls-6" x1="18.55" y1="50.93" x2="18.55" y2="57.82"/><path class="cls-7" d="M21.72,57.57V54.43a.94.94,0,0,1,.94-.94h1.46a.94.94,0,0,0,.94-.94h0a.94.94,0,0,0-.94-.94H17.47a.94.94,0,0,0-.94.94v7.15a.94.94,0,0,0,.94.94h6.66a.94.94,0,0,0,.94-.94v-.23a.94.94,0,0,0-.94-.94H22.67A.94.94,0,0,1,21.72,57.57Z"/><line class="cls-5" x1="22.04" y1="59.99" x2="22.04" y2="64.06"/><line class="cls-5" x1="19.74" y1="59.99" x2="19.74" y2="64.06"/></g></g></svg>