<svg xmlns="http://www.w3.org/2000/svg" viewBox="0 0 569.81 471.95"><defs><style>.cls-1{fill:#fff;}.cls-2{fill:#004864;}.cls-3{fill:#bebebe;}.cls-10,.cls-11,.cls-12,.cls-13,.cls-14,.cls-15,.cls-16,.cls-17,.cls-18,.cls-19,.cls-20,.cls-21,.cls-22,.cls-23,.cls-24,.cls-26,.cls-27,.cls-28,.cls-29,.cls-30,.cls-31,.cls-32,.cls-33,.cls-35,.cls-38,.cls-39,.cls-4,.cls-40,.cls-41,.cls-42,.cls-43,.cls-44,.cls-45,.cls-47,.cls-5,.cls-6,.cls-7,.cls-8,.cls-9{fill:none;}.cls-10,.cls-11,.cls-12,.cls-13,.cls-14,.cls-15,.cls-16,.cls-17,.cls-18,.cls-19,.cls-20,.cls-21,.cls-23,.cls-32,.cls-35,.cls-4,.cls-41,.cls-42,.cls-5,.cls-6,.cls-7,.cls-8,.cls-9{stroke:#bebebe;}.cls-10,.cls-11,.cls-12,.cls-13,.cls-14,.cls-15,.cls-16,.cls-17,.cls-18,.cls-19,.cls-20,.cls-21,.cls-22,.cls-23,.cls-24,.cls-26,.cls-27,.cls-28,.cls-29,.cls-30,.cls-31,.cls-32,.cls-33,.cls-34,.cls-35,.cls-39,.cls-4,.cls-40,.cls-41,.cls-42,.cls-43,.cls-44,.cls-45,.cls-47,.cls-5,.cls-6,.cls-7,.cls-8,.cls-9{stroke-linecap:round;}.cls-10,.cls-11,.cls-12,.cls-13,.cls-14,.cls-15,.cls-16,.cls-17,.cls-18,.cls-19,.cls-20,.cls-21,.cls-30,.cls-38,.cls-39,.cls-4,.cls-47,.cls-5,.cls-6,.cls-7,.cls-8,.cls-9{stroke-miterlimit:10;}.cls-4{stroke-width:8.53px;}.cls-5{stroke-width:8.37px;}.cls-6{stroke-width:8.22px;}.cls-7{stroke-width:8.06px;}.cls-8{stroke-width:7.9px;}.cls-9{stroke-width:7.74px;}.cls-10{stroke-width:7.58px;}.cls-11{stroke-width:7.43px;}.cls-12{stroke-width:7.27px;}.cls-13{stroke-width:7.11px;}.cls-14{stroke-width:7.3px;}.cls-15{stroke-width:7.12px;}.cls-16{stroke-width:6.95px;}.cls-17{stroke-width:6.78px;}.cls-18{stroke-width:6.6px;}.cls-19{stroke-width:6.43px;}.cls-20{stroke-width:6.25px;}.cls-21{stroke-width:6.08px;}.cls-22,.cls-47{stroke:#004864;}.cls-22,.cls-23,.cls-24,.cls-26,.cls-27,.cls-28,.cls-29,.cls-31,.cls-32,.cls-33,.cls-34,.cls-35,.cls-41,.cls-42,.cls-43,.cls-44,.cls-45{stroke-linejoin:round;}.cls-22,.cls-23,.cls-24,.cls-26{stroke-width:9.95px;}.cls-24,.cls-30,.cls-34,.cls-38,.cls-39,.cls-45{stroke:#e0e0e0;}.cls-25{fill:#ffcd32;}.cls-26{stroke:#ff665c;}.cls-27,.cls-28,.cls-29,.cls-33{stroke:#006464;}.cls-27{stroke-width:3.31px;}.cls-28{stroke-width:2.2px;}.cls-29{stroke-width:1.1px;}.cls-30{stroke-width:4.27px;}.cls-31,.cls-40{stroke:#ffcd32;}.cls-31,.cls-34,.cls-35{stroke-width:4.05px;}.cls-32{stroke-width:5.82px;}.cls-33{stroke-width:7.08px;}.cls-34,.cls-37{fill:#e0e0e0;}.cls-36{fill:#0f9bff;}.cls-38{stroke-width:1.8px;}.cls-39{stroke-width:3.6px;}.cls-40{stroke-width:6.58px;}.cls-41{stroke-width:5.26px;}.cls-42,.cls-43,.cls-45{stroke-width:3.66px;}.cls-43,.cls-44{stroke:#ff9947;}.cls-44{stroke-width:6.4px;}.cls-46{fill:#50adc0;}.cls-47{stroke-width:2.82px;}.cls-48{fill:#6bffba;}</style></defs><title>資產 5</title><g id="圖層_2" data-name="圖層 2"><g id="底"><g id="mask"><polygon class="cls-1" points="228.26 249.81 192 249.81 283.36 77.04 319.62 77.04 228.26 249.81"/><polygon class="cls-1" points="144.36 249.81 108.1 249.81 199.46 77.04 235.73 77.04 144.36 249.81"/></g><rect class="cls-2" x="185.33" y="180.24" width="8.45" height="203.16" rx="4.22" ry="4.22"/><rect class="cls-3" x="181.36" y="183" width="8.45" height="203.16" rx="4.22" ry="4.22"/><line class="cls-4" x1="23.53" y1="398.6" x2="19.7" y2="432.73"/><line class="cls-4" x1="80.48" y1="398.82" x2="76.65" y2="432.95"/><line class="cls-4" x1="23.53" y1="398.6" x2="80.48" y2="398.82"/><line class="cls-5" x1="25.52" y1="380.87" x2="21.69" y2="415.01"/><line class="cls-5" x1="82.47" y1="381.09" x2="78.64" y2="415.23"/><line class="cls-5" x1="25.52" y1="380.87" x2="82.47" y2="381.09"/><line class="cls-6" x1="27.51" y1="363.14" x2="23.68" y2="397.28"/><line class="cls-6" x1="84.46" y1="363.36" x2="80.63" y2="397.5"/><line class="cls-6" x1="27.51" y1="363.14" x2="84.46" y2="363.36"/><line class="cls-7" x1="29.49" y1="345.42" x2="25.66" y2="379.55"/><line class="cls-7" x1="86.45" y1="345.64" x2="82.62" y2="379.77"/><line class="cls-7" x1="29.49" y1="345.42" x2="86.45" y2="345.64"/><line class="cls-8" x1="31.48" y1="327.69" x2="27.65" y2="361.83"/><line class="cls-8" x1="88.44" y1="327.91" x2="84.61" y2="362.05"/><line class="cls-8" x1="31.48" y1="327.69" x2="88.44" y2="327.91"/><line class="cls-9" x1="33.47" y1="309.96" x2="29.64" y2="344.1"/><line class="cls-9" x1="90.43" y1="310.18" x2="86.6" y2="344.32"/><line class="cls-9" x1="33.47" y1="309.96" x2="90.43" y2="310.18"/><line class="cls-10" x1="35.46" y1="292.24" x2="31.63" y2="326.38"/><line class="cls-10" x1="92.41" y1="292.46" x2="88.58" y2="326.59"/><line class="cls-10" x1="35.46" y1="292.24" x2="92.41" y2="292.46"/><line class="cls-11" x1="37.45" y1="274.51" x2="33.62" y2="308.65"/><line class="cls-11" x1="94.4" y1="274.73" x2="90.57" y2="308.87"/><line class="cls-11" x1="37.45" y1="274.51" x2="94.4" y2="274.73"/><line class="cls-12" x1="39.44" y1="256.78" x2="35.61" y2="290.92"/><line class="cls-12" x1="96.39" y1="257" x2="92.56" y2="291.14"/><line class="cls-12" x1="39.44" y1="256.78" x2="96.39" y2="257"/><line class="cls-13" x1="41.43" y1="239.06" x2="37.6" y2="273.2"/><line class="cls-13" x1="98.38" y1="239.28" x2="94.55" y2="273.42"/><line class="cls-13" x1="41.43" y1="239.06" x2="98.38" y2="239.28"/><line class="cls-14" x1="117.77" y1="355.74" x2="121.6" y2="380.71"/><line class="cls-14" x1="60.82" y1="355.9" x2="64.65" y2="380.87"/><line class="cls-14" x1="117.77" y1="355.74" x2="60.82" y2="355.9"/><line class="cls-15" x1="115.21" y1="339.07" x2="119.04" y2="364.04"/><line class="cls-15" x1="58.26" y1="339.23" x2="62.09" y2="364.2"/><line class="cls-15" x1="115.21" y1="339.07" x2="58.26" y2="339.23"/><line class="cls-16" x1="112.66" y1="322.4" x2="116.49" y2="347.37"/><line class="cls-16" x1="55.7" y1="322.56" x2="59.53" y2="347.53"/><line class="cls-16" x1="112.66" y1="322.4" x2="55.7" y2="322.56"/><line class="cls-17" x1="110.1" y1="305.73" x2="113.93" y2="330.7"/><line class="cls-17" x1="53.15" y1="305.9" x2="56.98" y2="330.86"/><line class="cls-17" x1="110.1" y1="305.73" x2="53.15" y2="305.9"/><line class="cls-18" x1="107.54" y1="289.07" x2="111.37" y2="314.03"/><line class="cls-18" x1="50.59" y1="289.23" x2="54.42" y2="314.19"/><line class="cls-18" x1="107.54" y1="289.07" x2="50.59" y2="289.23"/><line class="cls-19" x1="104.99" y1="272.4" x2="108.82" y2="297.36"/><line class="cls-19" x1="48.03" y1="272.56" x2="51.86" y2="297.52"/><line class="cls-19" x1="104.99" y1="272.4" x2="48.03" y2="272.56"/><line class="cls-20" x1="102.43" y1="255.73" x2="106.26" y2="280.69"/><line class="cls-20" x1="45.48" y1="255.89" x2="49.31" y2="280.86"/><line class="cls-20" x1="102.43" y1="255.73" x2="45.48" y2="255.89"/><line class="cls-21" x1="99.87" y1="239.06" x2="103.7" y2="264.03"/><line class="cls-21" x1="42.92" y1="239.22" x2="46.75" y2="264.19"/><line class="cls-21" x1="99.87" y1="239.06" x2="42.92" y2="239.22"/><circle class="cls-22" cx="132.6" cy="187.53" r="32.47"/><circle class="cls-22" cx="248.68" cy="187.53" r="32.47"/><path class="cls-22" d="M181,100.54H166s-13.1-.31-13.1,15.91,25.89,0,25.89,0h15"/><path class="cls-22" d="M156.61,123.16l-16.69,56.55s-2.87,7.65-9.42,10.77"/><line class="cls-22" x1="151.91" y1="138.95" x2="217.17" y2="138.95"/><line class="cls-22" x1="222.47" y1="126.84" x2="196.51" y2="187.53"/><line class="cls-22" x1="212.49" y1="126.53" x2="231.83" y2="126.53"/><polyline class="cls-22" points="151.91 138.95 196.51 187.53 248.68 187.53 217.17 138.95"/><line class="cls-22" x1="222.67" y1="147.43" x2="270.51" y2="147.43"/><circle class="cls-23" cx="128.63" cy="192.74" r="32.47"/><circle class="cls-23" cx="244.71" cy="192.74" r="32.47"/><path class="cls-23" d="M177,105.76H162s-13.1-.31-13.1,15.91,25.89,0,25.89,0h15"/><path class="cls-23" d="M152.61,128.37l-16.7,56.54s-2.87,7.65-9.42,10.77"/><line class="cls-23" x1="147.94" y1="144.17" x2="213.2" y2="144.17"/><line class="cls-23" x1="218.51" y1="132.06" x2="192.54" y2="192.74"/><line class="cls-23" x1="208.52" y1="131.75" x2="227.86" y2="131.75"/><polyline class="cls-23" points="147.94 144.17 192.54 192.74 244.71 192.74 213.2 144.17"/><line class="cls-23" x1="218.7" y1="152.65" x2="266.54" y2="152.65"/><circle class="cls-24" cx="128.63" cy="192.74" r="32.47"/><circle class="cls-24" cx="244.71" cy="192.74" r="32.47"/><path class="cls-24" d="M177,105.76H162s-13.1-.31-13.1,15.91,25.89,0,25.89,0h15"/><path class="cls-24" d="M152.61,128.37l-16.7,56.54s-2.87,7.65-9.42,10.77"/><line class="cls-24" x1="147.94" y1="144.17" x2="213.2" y2="144.17"/><line class="cls-24" x1="218.51" y1="132.06" x2="192.54" y2="192.74"/><line class="cls-24" x1="208.52" y1="131.75" x2="227.86" y2="131.75"/><polyline class="cls-24" points="147.94 144.17 192.54 192.74 244.71 192.74 213.2 144.17"/><line class="cls-24" x1="218.7" y1="152.65" x2="266.54" y2="152.65"/><path class="cls-25" d="M7.21,221.6a7.82,7.82,0,0,1,7.65-7.09H79.73a8.3,8.3,0,0,0,8-7.05l1.55-12.32a8.3,8.3,0,0,1,8-7.05h.49a6.26,6.26,0,0,1,6.35,7.07l-2.92,27a8.12,8.12,0,0,1-7.87,7.07H60.81a7.82,7.82,0,0,0-7.65,7.09l-.26,3.45c-.3,3.9,1.25,7.05,3.43,7a4.24,4.24,0,0,0,4.24-3.56c.15-1.91,3.46-3.48,7.37-3.48h.49A6.5,6.5,0,0,1,75,246.82l-.57,7.48a7.89,7.89,0,0,1-7.65,7.14l-8.44.06a8,8,0,0,0-7.7,7.14l-.46,5.51a6.45,6.45,0,0,0,6.52,7.09H73.11a6.44,6.44,0,0,1,6.51,7.08l-2,24.17c-.33,3.9,1.53,7.13,4.14,7.18s4.34,3,3.85,6.5-4.09,6.39-8,6.37H68.16A6.6,6.6,0,0,1,61.52,326q0-.29,0-.57l1.37-20.5a6.56,6.56,0,0,0-6-7.07l-.61,0h-12a7.82,7.82,0,0,0-7.68,7.09l-3.47,45.57a6.45,6.45,0,0,0,6.45,7.09A6.45,6.45,0,0,1,46,364.66v.53a7.82,7.82,0,0,1-7.65,7.09H23.88a6.5,6.5,0,0,1-6.57-7.09l4.6-60.28a6.5,6.5,0,0,0-6.57-7.09H8.51a6.5,6.5,0,0,1-6.57-7.09Z"/><polyline class="cls-26" points="108.04 208.66 99.98 182 99.62 205.46 96.35 182.55 90.22 202.72"/><path class="cls-25" d="M26.92,154.5c5.06-8,13.12-7.91,17.91.29L66.9,192.55c4.79,8.2.94,14.91-8.56,14.91H10.86c-9.5,0-13.13-6.58-8.07-14.62Z"/><line class="cls-27" x1="41.88" y1="170.56" x2="48.86" y2="170.93"/><line class="cls-27" x1="28.29" y1="170.56" x2="21.31" y2="170.93"/><line class="cls-28" x1="44.19" y1="177.94" x2="48.26" y2="178.14"/><line class="cls-28" x1="26.44" y1="177.94" x2="22.36" y2="178.14"/><polyline class="cls-28" points="34.49 170.75 30.31 187.26 34.6 190.86"/><path class="cls-28" d="M26.17,196.18H45.52a10.29,10.29,0,0,1-19.35,0Z"/><line class="cls-29" x1="43.29" y1="199.08" x2="35.85" y2="199.08"/><line class="cls-28" x1="11.95" y1="181.6" x2="8.45" y2="182.52"/><line class="cls-28" x1="8.27" y1="186.8" x2="4.78" y2="187.72"/><line class="cls-28" x1="4.6" y1="192.01" x2="1.1" y2="192.93"/><line class="cls-28" x1="58.45" y1="181.6" x2="61.94" y2="182.52"/><line class="cls-28" x1="62.12" y1="186.8" x2="65.62" y2="187.72"/><line class="cls-28" x1="65.8" y1="192.01" x2="69.3" y2="192.93"/><polyline class="cls-28" points="27.52 156.26 30.31 159.75 32.46 156.26 34.6 159.75 37.44 156.26"/><line class="cls-30" x1="111.04" y1="114.42" x2="111.04" y2="128.87"/><line class="cls-30" x1="107.04" y1="121.26" x2="115.04" y2="121.26"/><line class="cls-30" x1="265.53" y1="103.54" x2="265.53" y2="125.35"/><line class="cls-30" x1="259.5" y1="113.86" x2="271.55" y2="113.86"/><line class="cls-30" x1="161.11" y1="242.85" x2="161.11" y2="253.75"/><line class="cls-30" x1="158.09" y1="248.01" x2="164.12" y2="248.01"/><line class="cls-31" x1="329.08" y1="110.82" x2="320.15" y2="82.03"/><path class="cls-32" d="M354.88,75.7c0,14.54,4.49,20.22,10,12.69s10-25.42,10-40-4.49-20.22-10-12.69S354.88,61.16,354.88,75.7Z"/><path class="cls-32" d="M319.06,124.45c0,14.54,4.49,20.22,10,12.69s10-25.42,10-40-4.49-20.22-10-12.69S319.06,109.91,319.06,124.45Z"/><line class="cls-31" x1="358.95" y1="30.79" x2="338.81" y2="58.2"/><line class="cls-31" x1="337.17" y1="50.61" x2="345.18" y2="88.91"/><line class="cls-33" x1="338.3" y1="44.54" x2="332.33" y2="52.66"/><polyline class="cls-31" points="358.44 32.95 343.51 88.91 329.08 110.82 332.09 83.8"/><polygon class="cls-34" points="329.39 87.48 344.15 67.38 326.74 67.38 311.98 87.48 329.39 87.48"/><path class="cls-35" d="M333.27,14.59l6.28-5.35a19.8,19.8,0,0,0,18,10.7c9.76,0,10.35-10.47,10.35-10.47l-5.27,9.24"/><path class="cls-31" d="M357.51,19.91l5.15,38.84s.89,5,2.91,4.78"/><polyline class="cls-31" points="339.1 89 350.59 88.81 348.88 98.68 354.88 98.68"/><path class="cls-36" d="M399.9,7.76C398,4.86,395.08,5,393.4,8l-7.6,13.84c-1.67,3-.2,5.53,3.27,5.53h17.35c3.47,0,4.76-2.38,2.85-5.28Z"/><path class="cls-36" d="M363.11,25.62a5,5,0,0,1,5,4.4c.14,2.42,2.61,4.4,5.49,4.4h34.58a5.63,5.63,0,0,1,5.54,5.23l3.67,63.89a5.63,5.63,0,0,0,5.54,5.23h9.68a5.4,5.4,0,0,1,5.51,4.78,4.7,4.7,0,0,1-4.61,4.79H414a5.63,5.63,0,0,1-5.54-5.23l-1.11-19.31a5.63,5.63,0,0,0-5.54-5.23H382.51a4.9,4.9,0,0,0-5,4.85q0,.19,0,.38l.56,9.75.57,10a4.7,4.7,0,0,1-4.61,4.79H366a5.4,5.4,0,0,1-5.51-4.78,4.27,4.27,0,0,1,3.72-4.76l.28,0c2.37,0,4.17-2.35,4-5.23l-1.11-19.31c-.17-2.88-.29-5.23-.29-5.23H381a4.27,4.27,0,0,0,4.11-4.42q0-.15,0-.31a5.38,5.38,0,0,0-5.51-4.73h-19A5.63,5.63,0,0,1,355,64.3l-.45-7.91a4.7,4.7,0,0,1,4.14-5.2l.34,0a5,5,0,0,1,5,4.4c.14,2.42,2.61,4.4,5.49,4.4h9.49a4.9,4.9,0,0,0,5-4.85q0-.19,0-.38l-.32-5.56a5.63,5.63,0,0,0-5.54-5.23H364.61a5.63,5.63,0,0,1-5.54-5.23l-.45-7.91a4.7,4.7,0,0,1,4.19-5.16Z"/><path class="cls-2" d="M364.12,55.61a5,5,0,0,0-5-4.4c-2.63,0-4.64,2.43-4.47,5.39l.44,7.58c.17,3,2,5.47,4,5.58s3.65-2,3.65-4.59.38-4.86.85-5S364.26,58,364.12,55.61Z"/><path class="cls-2" d="M368.14,30a5,5,0,0,0-5-4.4c-2.63,0-4.64,2.43-4.47,5.39l.44,7.58c.17,3,1.72,5.39,3.43,5.39s3.12-2.15,3.12-4.78.62-4.78,1.38-4.78S368.28,32.45,368.14,30Z"/><path class="cls-37" d="M394.18,5.7l-4.4,8h0l14.41-.33h0l-4.83-7.88a3,3,0,0,0-5.18.21Z"/><path class="cls-38" d="M394.18,5.7l-4.4,8h0l14.41-.33h0l-4.83-7.88a3,3,0,0,0-5.18.21Z"/><line class="cls-39" x1="406.54" y1="6.68" x2="410.72" y2="1.8"/><line class="cls-39" x1="408.77" y1="11.99" x2="416.41" y2="13.55"/><rect class="cls-37" x="387.62" y="33.66" width="6.47" height="23.22"/><rect class="cls-37" x="402.07" y="33.66" width="6.47" height="35.1"/><line class="cls-40" x1="340.72" y1="135.35" x2="360.44" y2="147.27"/><line class="cls-40" x1="345.16" y1="118.01" x2="349.27" y2="115.34"/><line class="cls-40" x1="357.71" y1="129.38" x2="360.18" y2="130"/><ellipse class="cls-32" cx="399.04" cy="144.24" rx="28.48" ry="15.69"/><circle class="cls-41" cx="458.25" cy="198.46" r="23.81"/><circle class="cls-41" cx="543.37" cy="198.46" r="23.81"/><path class="cls-42" d="M493.73,134.67h-11s-9.61-.23-9.61,11.67,19,0,19,0h11"/><path class="cls-43" d="M475.82,151.26l-12.21,41.46s-2.11,5.61-6.91,7.9"/><line class="cls-43" x1="472.4" y1="162.84" x2="520.26" y2="162.84"/><line class="cls-43" x1="524.15" y1="153.96" x2="505.11" y2="198.46"/><line class="cls-44" x1="516.83" y1="153.73" x2="531.01" y2="153.73"/><polyline class="cls-43" points="472.4 162.84 505.11 198.46 543.37 198.46 520.26 162.84"/><line class="cls-45" x1="524.3" y1="169.05" x2="559.38" y2="169.05"/><path class="cls-25" d="M525.69,102.47c1.76-2.79,4.55-2.74,6.22.1l7.66,13.11c1.66,2.85.33,5.17-3,5.17H520.11c-3.3,0-4.56-2.28-2.8-5.07Z"/><path class="cls-25" d="M488.49,127.56A4.4,4.4,0,0,0,484.1,132v.3a4.4,4.4,0,0,0,4.39,4.39h21a3.87,3.87,0,1,1,0,7.68h-12a4.4,4.4,0,0,0-4.39,4.39v.3a4.4,4.4,0,0,0,4.39,4.39h12a4.4,4.4,0,0,1,4.39,4.39v7.74a4.26,4.26,0,0,1-4.1,4.39,4.26,4.26,0,0,0-4.1,4.39v37.16a4.26,4.26,0,0,1-4.09,4.39,4.26,4.26,0,0,0-4.09,4.39v.3a4.4,4.4,0,0,0,4.39,4.39h8.48a4.4,4.4,0,0,0,4.39-4.39V183.39a4.4,4.4,0,0,1,4.39-4.39h10.31a4.4,4.4,0,0,1,4.39,4.39v28.09a4.26,4.26,0,0,1-4.09,4.39,4.26,4.26,0,0,0-4.09,4.39v.3a4.4,4.4,0,0,0,4.39,4.39h8.48a4.4,4.4,0,0,0,4.39-4.39V131.91a4.4,4.4,0,0,0-4.39-4.39h-50Z"/><ellipse class="cls-3" cx="118.61" cy="461.68" rx="20.14" ry="10.27"/><ellipse class="cls-3" cx="118.61" cy="423.38" rx="20.1" ry="8.71"/><rect class="cls-3" x="98.51" y="423.38" width="40.2" height="38.31"/><ellipse class="cls-46" cx="118.58" cy="424.53" rx="19.59" ry="7.85"/><path class="cls-47" d="M103.21,433.08s3.49,29,23.24,26.4c13.92-1.81,14.46-32.27,14.46-32.27"/><path class="cls-48" d="M389.52,389.72H258.21a51.51,51.51,0,0,1-51.51-51.51h0a51.51,51.51,0,0,1,51.51-51.51H389.52A51.51,51.51,0,0,1,441,338.21h0A51.51,51.51,0,0,1,389.52,389.72Z"/><path class="cls-2" d="M277.18,316.13a66.14,66.14,0,0,1-3.88,8.29h19.82V344.2H288.3v-2.11H273.23v2.26h-4.56V330.91a28.67,28.67,0,0,1-5.09,4.71,25.06,25.06,0,0,0-3.17-3.47c5.46-3.73,9.42-10.06,11.57-16h-9.83v-4.41h33.08v4.41h-18Zm11.11,12.58H273.23v9H288.3v-9Z"/><path class="cls-2" d="M339.68,335.38a48.42,48.42,0,0,1-4.86,2.9,20.93,20.93,0,0,0,6.59,2.3,17.36,17.36,0,0,0-2.6,3.73c-6.56-1.62-10.66-5.24-13.19-10.77h-3.84v5.88l6.33-1.21a22.37,22.37,0,0,0-.38,3.69c-8.29,1.81-9.61,2.11-10.4,2.64h0a13.72,13.72,0,0,0-1.62-3.62,4.08,4.08,0,0,0,1.92-3.5V333.5H314.5v-3.77H320v-2.6h-4.71V323.4H320v-2.6h-5.5v1.11c0,6.55-.6,16.35-4.56,22.53a19,19,0,0,0-4-2.3c3.73-5.8,4-14.24,4-20.23V310.76h29v10.06h-5.09v2.6h5.42v3.73h-5.42v2.6h7v3.77h-4ZM314.51,317h19.93v-2.49H314.51Zm9.61,6.41h5.61v-2.6h-5.61Zm0,6.33h5.61v-2.6h-5.61Zm5.73,3.77a12.15,12.15,0,0,0,2.07,2.52,41.11,41.11,0,0,0,3.77-2.52Z"/><path class="cls-2" d="M365.68,319.34c-1.85,8.36-6,14.54-10.89,17.82a17.26,17.26,0,0,0-3.47-3.13,21.83,21.83,0,0,0,9.08-11.79h-7.65v-3.92h9.31l.79-.19ZM352.49,339h33.12v4.29H352.49Zm14.28-21.1a33.69,33.69,0,0,0,5.58-3.88h-16v-4h20.26l1-.23,3,2.34a46.1,46.1,0,0,1-5.88,5,37.3,37.3,0,0,0,2.64,6.44,45.62,45.62,0,0,0,4.11-6.1l4,2.71c-2,2.26-4.14,4.82-6,6.74a20.76,20.76,0,0,0,6.63,6.22,18.86,18.86,0,0,0-3.24,3.84c-5.39-3.65-9-10.13-11.34-17.67l-.15.08v13.9c0,2.26-.45,3.35-2.07,4s-3.77.68-6.82.68a18.61,18.61,0,0,0-1.32-4.11c1.88.08,4.14.08,4.75.08s.87-.15.87-.72V317.91Z"/><path class="cls-2" d="M310.41,359v15.57h-1.73V371l-3.66.75-.39-1.95,1-.16V359h-.83v-2.09h6.29V359h-.68Zm-1.73,0h-1.37v2.08h1.38V359Zm0,4h-1.37v2.08h1.38V363Zm0,6.15V367h-1.37v2.4ZM323,365.42a17.65,17.65,0,0,1-2.54,5c.22,1,.47,1.53.75,1.55s.43-.86.53-2.36a6.41,6.41,0,0,0,1.4,1.28c-.47,2.95-1.34,3.64-2,3.64-.92,0-1.61-.87-2.12-2.34a15.26,15.26,0,0,1-2.83,2.3,6.78,6.78,0,0,0-1.3-1.3,11.64,11.64,0,0,0,1.34-.92h-1v-.47h-1.83v1.43H311.6v-8.55h5.33v7a13.87,13.87,0,0,0,1.55-1.65,48.6,48.6,0,0,1-.67-6H311v-2h.9a13,13,0,0,0-.37-1.79l1.59-.28a12.79,12.79,0,0,1,.45,2.06h1.07a14.92,14.92,0,0,0,.41-2.08l1.77.25c-.2.65-.39,1.28-.55,1.83h1.47c-.08-1.79-.12-3.71-.16-5.76h2c0,2,0,4,.12,5.76H323v2h-3.24c.08,1.32.18,2.52.29,3.58a16.2,16.2,0,0,0,1.2-3Zm-5.86-5.54h-5.8v-1.79h1.89c-.14-.51-.31-1-.47-1.49l1.91-.33c.22.55.45,1.24.63,1.83h1.85v1.78Zm-3.79,6.33v1.22h1.83v-1.22Zm1.83,4v-1.26h-1.83v1.26Zm5.64-8.69a22.77,22.77,0,0,0-1.24-3.62l1.63-.55a19.78,19.78,0,0,1,1.36,3.54Z"/><path class="cls-2" d="M338.61,356.21c0,.83-.06,1.89-.14,3.07.28,2.65,1.47,10.06,8.33,13.09a6.24,6.24,0,0,0-1.71,2,15.21,15.21,0,0,1-7.68-9.3,16,16,0,0,1-7.23,9.41,7.48,7.48,0,0,0-1.95-1.91c8-4.26,7.61-13.07,7.68-16.39h2.7Z"/><path class="cls-48" d="M216,323.91H165.81a2.18,2.18,0,0,0-1.54,3.72l50,22.72a2.18,2.18,0,0,0,3.72-1.53l.15-22.72a2.18,2.18,0,0,0-2.17-2.19Z"/><path class="cls-48" d="M320.17,251.67h6l2.34-8.54h-6l1.32-4.87h6l3.23-11.78h5.89l-3.23,11.78h4.89l3.21-11.78h5.89l-3.21,11.78h6l-1.33,4.87h-6l-2.33,8.54h6l-1.32,4.87h-6l-3.18,11.66h-5.89l3.18-11.66h-4.88l-3.2,11.66h-5.94l3.2-11.66h-6Zm16.75,0,2.33-8.54h-4.86l-2.34,8.54Z"/><path class="cls-48" d="M388.55,247.48q-2.28,10.47-6.79,16.13T369,269.27q-8.2,0-10.29-5.66t.19-16.12q2.25-10.47,6.78-16.15t12.73-5.69q8.2,0,10.27,5.69T388.55,247.48Zm-18.06,15q3.76,0,5.76-3.86a47.3,47.3,0,0,0,3.6-11.15q1.63-7.64,1.26-11.31T377,232.49a6.3,6.3,0,0,0-5.77,3.67,44.4,44.4,0,0,0-3.64,11.31q-1.6,7.29-1.21,11.15t4.13,3.87Z"/><path class="cls-48" d="M420,259.11H415.1l-2,9.1h-8.26l2-9.1h-17l1.57-7.26,21.32-25.66h9.47l-5.71,26.42h4.86Zm-11.72-6.5,3.94-18.25-14.69,18.25Z"/></g></g></svg>