<svg xmlns="http://www.w3.org/2000/svg" viewBox="0 0 247.92 89.55"><defs><style>.cls-1{fill:#6bffba;}.cls-2{fill:#00364b;}</style></defs><title>Asset 37</title><g id="Layer_2" data-name="Layer 2"><g id="對話框"><rect class="cls-1" width="247.92" height="49.48" rx="24.74" ry="24.74"/><path class="cls-2" d="M28.44,28.81a22.69,22.69,0,0,1-.86,4.75A9.5,9.5,0,0,0,25.91,33a18,18,0,0,0,.79-4.44Zm3.84-5.66a14.6,14.6,0,0,1,1.39,3.9L32,27.71c0-.23-.1-.51-.15-.78a28.06,28.06,0,0,0-5.09,1A16.18,16.18,0,0,0,26.17,26c.47-.12.88-.56,1.5-1.3A16.93,16.93,0,0,0,28.94,23a7.76,7.76,0,0,0-2.28.42A15.14,15.14,0,0,0,26,21.57c.37-.1.68-.46,1.08-1a20.46,20.46,0,0,0,2.3-4.73l1.93.77a28.61,28.61,0,0,1-2.65,4.74l1.42-.09a28.2,28.2,0,0,0,1.43-2.74l1.73,1.1a36.37,36.37,0,0,1-4.11,6l2.26-.28a15.25,15.25,0,0,0-.66-1.62Zm-1.81,5.25A36.76,36.76,0,0,1,31,32.46l-1.68.42a31.79,31.79,0,0,0-.43-4.09Zm2-.58a26.8,26.8,0,0,1,1.14,3.69L32,32.08a31.47,31.47,0,0,0-1-3.75Zm11.67,4.91-7.58,0V34H34.48l0-10.07c-.29.37-.59.74-.88,1.09a12.33,12.33,0,0,0-1-2.22A19.94,19.94,0,0,0,36,15.84l2.2.65c-.31.9-.67,1.81-1.08,2.74H39.5c-.29-.76-.75-1.78-1.14-2.56l1.93-.83a22.54,22.54,0,0,1,1.31,2.71l-1.42.68h3.74v2.08h-3V23h2.59V25.1H40.92v1.64h2.61v2.08H40.91v1.75h3.25Zm-7.57-2.19h2.24V28.81H36.58Zm2.26-5.47H36.59v1.64h2.24Zm0-3.76H36.61V23h2.24Z"/><path class="cls-2" d="M55.67,26.18c-.58.17-1.17.35-1.77.5l0,4.64c0,1.07-.18,1.64-.79,2a4.69,4.69,0,0,1-2.67.44,7.59,7.59,0,0,0-.6-2.13c.72,0,1.38,0,1.62,0s.31-.08.31-.33v-4l-2.07.6-.5-2.22c.72-.17,1.6-.38,2.57-.63V21.65H49.52V19.5h2.26V15.84h2.12v3.66h1.6v2.14h-1.6V24.5l1.48-.4Zm12-8.06v2.1l-4.77,0v1.54h3.92v2.1l-10,0v-2.1h3.86V20.2l-4.87,0v-2.1l4.87,0V16h2.2V18.1Zm-2.29,7.42h2.14v2.1H65.32v4c0,1.15-.22,1.71-1,2.06a8.1,8.1,0,0,1-3.14.34,9.9,9.9,0,0,0-.65-2.17,21.3,21.3,0,0,0,2.2,0c.27,0,.37-.06.37-.33v-4l-7.17,0V25.5l7.17,0V24.2h2.2Zm-6.5,2.22A31.58,31.58,0,0,1,61,31l-2,1.12a30.76,30.76,0,0,0-2-3.42Z"/><path class="cls-2" d="M80.08,21A25.87,25.87,0,0,1,78,24l0,10.17H75.63l0-7.62c-.55.52-1.08,1-1.6,1.44a22.68,22.68,0,0,0-1.57-2,19,19,0,0,0,5.38-5.81Zm-.71-4.15A26.17,26.17,0,0,1,74,21.94,13.43,13.43,0,0,0,72.72,20a17.35,17.35,0,0,0,4.42-4.13Zm11.43,7.8H88.13l0,6.84c0,1.25-.24,1.89-1.1,2.24a10.78,10.78,0,0,1-3.8.38,9.53,9.53,0,0,0-.69-2.36c1.11.06,2.4.07,2.75,0s.49-.08.49-.37l0-6.78L80,24.6V22.4l10.78,0Zm-.47-5.36-9.47,0V17l9.47,0Z"/><path class="cls-2" d="M114,20.44s0,.76,0,1c-.21,8-.37,10.79-1,11.69a2.17,2.17,0,0,1-1.54,1,13.06,13.06,0,0,1-2.42.07,5.43,5.43,0,0,0-.67-2.22c.86.08,1.6.1,2,.11a.71.71,0,0,0,.66-.33c.41-.52.61-2.9.75-9.19h-1.75c-.27,5.22-1.18,9.23-4.47,11.81a7.56,7.56,0,0,0-1.36-1.54c-2.81.28-5.61.56-7.72.73l-.27-1.95,4-.26V30.17H96.67V28.52h3.43v-.76H96.75l0-6h3.35V21H96.29V19.3h3.84v-.78c-1.13.07-2.24.13-3.29.14a7.21,7.21,0,0,0-.5-1.64,60.24,60.24,0,0,0,8.4-.92l1,1.74c-1,.21-2.24.38-3.51.51v1H106v1.07h1.83c0-1.29,0-2.63,0-4.07h2.22c0,1.42,0,2.79-.05,4.07Zm-13.86,5.89v-.88H98.6v.88ZM98.6,24.06h1.52v-.86H98.6Zm3.6,7.11c1.11-.07,2.26-.17,3.39-.26,1.53-2.1,2-4.88,2.16-8.37H106V21h-3.74v.76h3.45l0,6h-3.45v.76h3.53v1.64H102.2Zm0-5.71v.88h1.52v-.88Zm1.52-1.38v-.86h-1.52v.86Z"/><path class="cls-2" d="M136.75,20.19s0,.8-.06,1.11C136.27,29.05,135.87,32,135,33a2.63,2.63,0,0,1-2,1.08,19.89,19.89,0,0,1-3.12,0,5.39,5.39,0,0,0-.79-2.4c1.23.1,2.38.11,2.88.11a1.15,1.15,0,0,0,.92-.31c.59-.6,1-3.15,1.32-8.94l-5.46,0c-.33,4-1.71,8.76-7.2,11.84a9.24,9.24,0,0,0-1.8-1.9,11.88,11.88,0,0,0,6.51-10l-5.87,0V20.13l6,0v-4h2.47v4Z"/><path class="cls-2" d="M160.66,19.23s0,.78,0,1.05c-.29,8.71-.51,11.81-1.31,12.84a2.6,2.6,0,0,1-1.87,1.06,21.72,21.72,0,0,1-3.06,0,5.46,5.46,0,0,0-.75-2.26c1.25.12,2.4.13,2.9.13a1,1,0,0,0,.86-.33c.57-.62.83-3.54,1.07-10.42l-4.17,0a16.82,16.82,0,0,1-1.73,3.07,14.3,14.3,0,0,0-1.5-1.1l0,9.1-5.2,0v1.42h-2.1l.05-14.48H146a20.75,20.75,0,0,0,.58-3.13l2.53.36c-.34,1-.69,1.95-1,2.78h3v3.16a20.2,20.2,0,0,0,2.65-6.27l2.2.51a22.57,22.57,0,0,1-.77,2.47Zm-11.71,11.1V26.51h-3.1v3.82Zm0-9h-3.1v3.16H149Zm6.44,8a41.38,41.38,0,0,0-2.69-4.51l1.82-1a47,47,0,0,1,2.85,4.34Z"/><path class="cls-2" d="M172,29c-.19-.53-.54-1.27-.89-2l0,7.52H169l0-6.39a16.16,16.16,0,0,1-1.75,3.34,13,13,0,0,0-1.12-2.28,19,19,0,0,0,2.65-5.21h-2.1V21.74H169V19.39c-.58.11-1.15.21-1.72.29a8.16,8.16,0,0,0-.64-1.77A25.67,25.67,0,0,0,172,16.36l1.34,1.88a13.44,13.44,0,0,1-2.17.67v2.84h2.08v2.16h-2.08v.27c.41.49,1.53,2,2,2.68A29.17,29.17,0,0,0,174,22l1.71.4a28.85,28.85,0,0,1-1.08,6.33l-1.81-.61c0-.12.1-.23.14-.37Zm8.7,3.23c.56,0,.68-.46.77-2.67a6.81,6.81,0,0,0,2,.88c-.24,2.9-.83,3.84-2.57,3.83h-2.22c-1.68,0-2.34-.5-2.49-2a23.67,23.67,0,0,1-2,1.75,15.27,15.27,0,0,0-1.86-1.6,18.82,18.82,0,0,0,3.83-3.53l0-8h2.22l0,4.66a34.47,34.47,0,0,0,3.07-8l2.22.48a50.44,50.44,0,0,1-1.85,5.47l1.15-.31a31.58,31.58,0,0,1,1.64,5.6l-2.11.62a29.91,29.91,0,0,0-1.19-4.72,31.41,31.41,0,0,1-2.94,5.07v1.52c0,.82.08,1,.68,1Zm-1.54-11.44a37.9,37.9,0,0,0-3.54-3l1.43-1.57a42.34,42.34,0,0,1,3.59,2.74Z"/><path class="cls-2" d="M197,21.41l-7.25,0V19.55h3a17.56,17.56,0,0,0-.95-2.46l2-.62a16,16,0,0,1,1.1,2.52l-1.54.56H197Zm5.34,5.86a9.73,9.73,0,0,1-4.49,7.27,10.78,10.78,0,0,0-1.67-1.74v.68h-3.8v.76h-1.93l0-6.66,5.73,0,0,5.18a8.14,8.14,0,0,0,3.78-5.5H197V25.09h3.21c0-.51,0-1,0-1.5v-2h-2.81V19.44h2.81V16.57h2.3v2.88h3.9l0,5.65h1.27v2.16Zm-11.8-2.4,5.65,0v1.75l-5.65,0Zm5.65-.84-5.65,0V22.26l5.65,0Zm-2,5.39h-1.83V31.6h1.83Zm8.36-5.81c0,.51,0,1,0,1.5h1.71V21.63h-1.69Zm1.91,3.87c1.1,1.86,2.65,4.39,3.37,5.92l-2.07,1.08c-.64-1.56-2.11-4.18-3.19-6.13Z"/><path class="cls-2" d="M221.37,22.3c0-1.17-.93-1.84-2.45-1.84A4,4,0,0,0,215.79,22L214.2,20.5a6.48,6.48,0,0,1,5-2.36c2.83,0,4.89,1.32,4.88,3.92,0,2.86-4.26,3.18-4,5.89h-2.51C217.23,24.87,221.36,24.19,221.37,22.3Zm-2.48,7a1.92,1.92,0,1,1-2,1.9A1.9,1.9,0,0,1,218.88,29.28Z"/><path class="cls-1" d="M127.47,49.37,135,86c1,4.86,4.64,4.73,5.54-.19l6.72-36.61c.67-3.65-.76-7.46-2.79-7.46H130.22C128.14,41.72,126.72,45.69,127.47,49.37Z"/></g></g></svg>