<svg xmlns="http://www.w3.org/2000/svg" viewBox="0 0 454.11 497.33"><defs><style>.cls-1{fill:#ffcd32;}.cls-2{fill:#ff901c;}.cls-11,.cls-12,.cls-13,.cls-14,.cls-16,.cls-17,.cls-3,.cls-4,.cls-6,.cls-7{fill:none;}.cls-3,.cls-4,.cls-6,.cls-7{stroke:#006464;}.cls-11,.cls-16,.cls-17,.cls-3,.cls-4,.cls-6,.cls-7{stroke-linecap:round;}.cls-3,.cls-4,.cls-6{stroke-linejoin:round;}.cls-3{stroke-width:2.64px;}.cls-4,.cls-7{stroke-width:2.11px;}.cls-5{fill:#006464;}.cls-6{stroke-width:1.06px;}.cls-8{fill:#e0e0e0;}.cls-9{fill:#bebebe;}.cls-10{fill:#ff665c;}.cls-11,.cls-13,.cls-16{stroke:#004864;}.cls-11,.cls-12,.cls-13,.cls-14{stroke-miterlimit:10;stroke-width:8.68px;}.cls-12,.cls-14{stroke:#ffcd32;}.cls-14{stroke-dasharray:7.44 8.92;}.cls-15{fill:#004864;}.cls-16,.cls-17{stroke-width:4.34px;}.cls-17{stroke:#fff;}.cls-18{fill:#6bffba;}</style></defs><title>資產 2</title><g id="圖層_2" data-name="圖層 2"><g id="底"><path class="cls-1" d="M102.24,352.54c3.56,0,6.47,3.19,6.47,7.1v16.91a7.12,7.12,0,0,0,7.1,7.1h42.76a8.67,8.67,0,0,1,8.25,7l6.92,42a104.78,104.78,0,0,1,1.15,14.1v30.54a7.12,7.12,0,0,0,7.1,7.1h13c3.9,0,7.1,2.91,7.1,6.47s-3.19,6.47-7.1,6.47H169a7.12,7.12,0,0,1-7.1-7.1V464.07a7.12,7.12,0,0,0-7.1-7.1H137.07a7.12,7.12,0,0,0-7.1,7.1v26.14a7.12,7.12,0,0,1-7.1,7.1H112.46c-3.9,0-7.1-2.91-7.1-6.47s2.62-6.47,5.83-6.47,5.83-3.19,5.84-7.1V451.13a7.12,7.12,0,0,1,7.1-7.1h2.17a7.12,7.12,0,0,0,7.1-7.1v-7.11a7.12,7.12,0,0,0-7.1-7.1h-43c-3.9,0-7.1-2.91-7.1-6.47s3.19-6.47,7.1-6.47h43a6.62,6.62,0,1,0,0-13.2H102.24c-3.56,0-6.47-3.19-6.47-7.1V359.63A6.75,6.75,0,0,1,102.24,352.54Z"/><path class="cls-2" d="M105.55,340V297a4,4,0,0,0-8,0v43a4,4,0,0,0,8,0Z"/><path class="cls-2" d="M66.81,411.5h-43a4,4,0,0,0,0,8h43a4,4,0,0,0,0-8Z"/><path class="cls-2" d="M24.91,428.45a2.64,2.64,0,0,0-4.74-.27L15,437.41A2.64,2.64,0,0,0,19.61,440l5.17-9.23A2.64,2.64,0,0,0,24.91,428.45Z"/><path class="cls-2" d="M35.37,429.41a2.64,2.64,0,0,0-5.08.91l-.54,12.16a2.64,2.64,0,0,0,5.28.23l.54-12.16A2.63,2.63,0,0,0,35.37,429.41Z"/><path class="cls-2" d="M50.15,439.07,45.83,428.8a2.64,2.64,0,1,0-4.87,2l4.28,10.27a2.65,2.65,0,0,0,4.91-2Z"/><path class="cls-2" d="M24.91,402.54a2.64,2.64,0,0,1-4.74.27L15,393.58A2.64,2.64,0,0,1,19.61,391h0l5.17,9.23A2.64,2.64,0,0,1,24.91,402.54Z"/><path class="cls-2" d="M35.37,401.57a2.64,2.64,0,0,1-5.08-.91l-.54-12.16a2.64,2.64,0,0,1,5.28-.23l.54,12.16A2.63,2.63,0,0,1,35.37,401.57Z"/><path class="cls-2" d="M50.15,392l-4.32,10.27a2.64,2.64,0,1,1-4.87-2L45.28,390a2.64,2.64,0,1,1,4.87,2Z"/><path class="cls-1" d="M140.36,325c4.85-7.7,12.57-7.58,17.16.28l21.14,36.18c4.59,7.86.9,14.28-8.2,14.28H125c-9.1,0-12.58-6.3-7.73-14Z"/><path class="cls-3" d="M143.84,344.72s-6.57-7.91-14.83-1.62"/><path class="cls-3" d="M153.56,344.72s6-7.91,14.25-1.62"/><path class="cls-4" d="M154.44,350.07s5.33-6.89,13.67-.43"/><line class="cls-4" x1="161.7" y1="346.9" x2="162.16" y2="344.15"/><line class="cls-4" x1="164.49" y1="347.56" x2="165.88" y2="345.52"/><line class="cls-4" x1="166.95" y1="348.83" x2="168.69" y2="347.56"/><path class="cls-4" d="M142.64,350.07s-5.33-6.89-13.67-.43"/><line class="cls-4" x1="135.38" y1="346.9" x2="134.92" y2="344.15"/><line class="cls-4" x1="132.59" y1="347.56" x2="131.2" y2="345.52"/><line class="cls-4" x1="130.13" y1="348.83" x2="128.39" y2="347.56"/><path class="cls-4" d="M136.48,365.88h23.6s-1.41,5.48-11.8,5.48S136.48,365.88,136.48,365.88Z"/><path class="cls-5" d="M163.83,357.61l-5.09,1.25v-6.79a2.55,2.55,0,0,1,2.55-2.55h0a2.55,2.55,0,0,1,2.55,2.55h0v5.54Z"/><path class="cls-5" d="M138.35,358.87l-5.09-1.25v-5.55a2.55,2.55,0,0,1,2.55-2.55h0a2.55,2.55,0,0,1,2.55,2.55h0v6.8Z"/><polyline class="cls-4" points="146.71 352.51 144.86 360.61 148.03 360.61"/><line class="cls-6" x1="150" y1="368.62" x2="156.71" y2="368.62"/><path class="cls-4" d="M136.48,323.12s4.91,13.05,28,16.75"/><line class="cls-7" x1="158.73" y1="363.95" x2="160.07" y2="366.59"/><line class="cls-7" x1="137.16" y1="363.95" x2="135.82" y2="366.59"/><path class="cls-1" d="M199.83,351.61a2.2,2.2,0,0,1-2.51,3c-6-1.28-16.83-3.88-19.8-6.41a9.88,9.88,0,0,1,12.72-15.13C193.24,335.64,197.6,346,199.83,351.61Z"/><polygon class="cls-8" points="190.07 0 0 161.84 84.8 161.84 190.07 0"/><polygon class="cls-9" points="190.07 0 84.8 161.84 94.76 195.04 111.75 161.84 190.07 0"/><polygon class="cls-8" points="111.75 161.84 198.99 161.84 190.07 0 111.75 161.84"/><path class="cls-10" d="M81.35,73.19c1.59-2.1,3.79-1.86,4.89.54l6.34,13.89c1.1,2.4-.17,4.36-2.8,4.36H71.93c-2.64,0-3.5-1.72-1.9-3.83Z"/><path class="cls-10" d="M89,149.07a3.9,3.9,0,0,1,3.78,4.75L91.41,163l-.68,4.53a3.89,3.89,0,0,0,4.13,4.42h7.63a5.64,5.64,0,0,0,5.48-4.53c.37-2.49-1.16-4.53-3.4-4.53s-3.76-2.14-3.37-4.75l2-13.54A3.81,3.81,0,0,0,99.35,140h-9a3.9,3.9,0,0,1-3.78-4.75l3.57-23.72a5.77,5.77,0,0,1,5.51-4.75h18.89l3.7-24.59a3.91,3.91,0,0,0-3.82-4.75,5.61,5.61,0,0,0-5.24,4.75L107.56,93A5.77,5.77,0,0,1,102,97.73H64l-7.75,46.59a4,4,0,0,0,4.09,4.75H89Z"/><line class="cls-11" x1="69.26" y1="94.64" x2="90.4" y2="94.64"/><line class="cls-12" x1="69.26" y1="94.64" x2="75.76" y2="94.64"/><line class="cls-12" x1="83.9" y1="94.64" x2="90.4" y2="94.64"/><path class="cls-13" d="M6.35,134.75s17.35,17.71,32.17,4.16,8.3-43.45,37-44.26"/><path class="cls-12" d="M6.35,134.75a31.62,31.62,0,0,0,2.72,2.38"/><path class="cls-14" d="M16.64,141.8c6.22,2.81,14.38,4,21.89-2.9C51.79,126.77,48,101.57,67.6,95.81"/><path class="cls-12" d="M72,94.91a35.67,35.67,0,0,1,3.61-.27"/><circle class="cls-8" cx="53.32" cy="248.86" r="11.15"/><circle class="cls-8" cx="72.52" cy="231.33" r="6.14"/><circle class="cls-8" cx="85.24" cy="212.4" r="3.96"/><circle class="cls-8" cx="34.42" cy="269.03" r="16.17"/><circle class="cls-8" cx="39.63" cy="254.23" r="16.75"/><path class="cls-15" d="M56.83,121.07l2.55-16.4A8.74,8.74,0,0,1,67.7,97.5h9.93a6,6,0,0,1,6,7.17l-2.53,16.4a8.74,8.74,0,0,1-8.32,7.17H62.85a6,6,0,0,1-6-7.17Z"/><polyline class="cls-16" points="87.27 130.68 74.77 109.77 95.03 97.73"/><line class="cls-17" x1="67.84" y1="107.08" x2="67.12" y2="112"/><path class="cls-18" d="M402.6,399.3h-100a51.51,51.51,0,0,1-51.51-51.51h0a51.51,51.51,0,0,1,51.51-51.51h100a51.51,51.51,0,0,1,51.51,51.51h0A51.51,51.51,0,0,1,402.6,399.3Z"/><path class="cls-15" d="M302.1,337.07s0,1.13-.08,1.7c-.45,8.51-.87,12.13-2,13.37a3.84,3.84,0,0,1-2.83,1.54,28.38,28.38,0,0,1-4.6.11,9.71,9.71,0,0,0-1.36-4.41c1.66.15,3.17.19,3.92.19a1.67,1.67,0,0,0,1.36-.45c.57-.6.94-2.86,1.24-8.21h-6.93c.3-3.24.53-8.33.49-12.36h6.44v-4.18h-7v-4h11.11v12.17h-6.62c0,1.54-.08,3.09-.15,4.52h7Zm22.11,5.61c-1.7,1.13-3.47,2.3-5,3.16a21.11,21.11,0,0,0,6,4,18.75,18.75,0,0,0-3,3.65c-5.24-2.71-9.34-8-11.87-14h-1.88v8.82l4.86-1.39a22,22,0,0,0,.26,3.65c-7,2.22-8.29,2.83-9.08,3.43a16.22,16.22,0,0,0-1.88-3.58,3.62,3.62,0,0,0,1.66-3.09v-7.84h-1.66v-3.8h2.3V320.28h18.87v3.5h-14.5v1.81h13v3.13h-13v1.92h13v3.13h-13v1.92H324.4v3.8h-10a20.5,20.5,0,0,0,2.49,3.88,31.89,31.89,0,0,0,4-3.5Z"/><path class="cls-15" d="M349.31,334.84a42.11,42.11,0,0,1-2.71,3.69h5.09v-3.09H356v3.09h10.4v8.93c0,2-.38,3-1.77,3.65s-3.24.64-5.76.64a14.2,14.2,0,0,0-1.36-3.84c1.51.08,3.24.08,3.73.08s.68-.15.68-.56v-5H356v11.49H351.7V342.43h-5.35V352H341.9v-8.85a24,24,0,0,1-4.18,2.83,24.72,24.72,0,0,0-3-3.35,28.11,28.11,0,0,0,9.23-7.8h-8.1v-3.92h10.66a22.67,22.67,0,0,0,1.28-2.75c-2.75.75-5.5,1.32-8.1,1.85a31.46,31.46,0,0,0-3-3.73,111,111,0,0,0,11-2.11c-2.94-.94-5.84-1.81-8.48-2.49l3.13-2.6c3.47.83,7.61,2,11.64,3.2a36.14,36.14,0,0,0,8.1-3.73l3.73,2.56a47.27,47.27,0,0,1-6,3.09c2.79,1,5.31,2,7.31,2.9l-3.43,3.09a96.9,96.9,0,0,0-9.57-3.88c-1,.34-2.07.68-3.17,1l2.07.56a32,32,0,0,1-1.43,3.05h17.82v3.92H349.31Z"/><path class="cls-15" d="M380.43,350.07a32.31,32.31,0,0,0,3.31-7.31l3.88,1.77a57.66,57.66,0,0,1-3.13,7.53Zm2-15.75c-.23-.83-.75-2.3-1.09-3.17a4.14,4.14,0,0,0,1.9-1.08,25.36,25.36,0,0,0,3.35-3.39h-5.76V323h8.55c-.57-.94-1.21-1.92-1.73-2.75l4.11-1.77c1,1.39,2.26,3.2,3,4.52h6a26,26,0,0,0,2.15-4.37l5.27,1.32c-.83,1.09-1.66,2.11-2.41,3.05h9v3.69H406a36,36,0,0,1-3.73,4.22l4.07-.26a36.76,36.76,0,0,0,2.37-3.05l3.69,1.7a63.38,63.38,0,0,1-8.25,8.51l4.75-.3c-.45-.75-.9-1.51-1.32-2.15l3.28-1.24a55.38,55.38,0,0,1,3.92,6.86l-3.47,1.39c-.23-.53-.53-1.21-.87-1.92-9.08.68-10.44.87-11.38,1.24a32.84,32.84,0,0,0-1.17-3.62,6.59,6.59,0,0,0,2.94-1.85,22.47,22.47,0,0,0,2.6-2.37c-4,.38-4.93.6-5.5.87a33.19,33.19,0,0,0-1.24-3.47,3.78,3.78,0,0,0,1.85-1.17,26.5,26.5,0,0,0,2.86-3.39H391.1a32.58,32.58,0,0,1-3.92,4l4.26-.26c.83-.9,1.66-1.81,2.41-2.71l3.09,2.37a65.68,65.68,0,0,1-8.7,7.8l5-.23c-.34-.75-.68-1.47-1-2.11l3.09-1.13a53.71,53.71,0,0,1,3.13,6.63l-3.31,1.32a15.72,15.72,0,0,0-.53-1.62c-9.61.56-11.08.72-12,1.09a34.41,34.41,0,0,0-1.24-3.58,8.71,8.71,0,0,0,3.35-1.81,32.61,32.61,0,0,0,3.43-2.83c-4.11.42-5,.6-5.69.87h0v-.11Zm19.1,15.11c1.7,0,2-.53,2.18-4.37a11.67,11.67,0,0,0,4,1.58c-.57,5.39-1.73,6.71-5.84,6.71h-6.63c-5,0-6.33-1.21-6.33-5.09v-4.79h4.45v4.75c0,1.05.38,1.21,2.37,1.21h5.8Zm-3.2-7.42c1.13,1.21,2.71,3,3.54,4.07l-3.5,1.92c-.72-1.09-2.26-2.94-3.39-4.29Zm11.75-.26c1.62,2.22,4,5.35,5.09,7.23l-3.73,2.45a86.77,86.77,0,0,0-4.9-7.61Z"/><path class="cls-15" d="M327.94,373a22.49,22.49,0,0,1-2.69,6.74c.31,1.3.67,2,1,2s.45-.92.51-2.93a5,5,0,0,0,1.63,1.22c-.29,3-.9,3.87-2.42,3.87-1,0-1.71-.83-2.28-2.18a13.49,13.49,0,0,1-2.75,2.44,10.31,10.31,0,0,0-1.63-1.55,12.29,12.29,0,0,0,3.66-3.32,54.81,54.81,0,0,1-.92-8.67h-3.81v2.12h3.5v.79c-.06,4.38-.14,6.13-.53,6.66a1.5,1.5,0,0,1-1.08.69,8.47,8.47,0,0,1-1.69.08,5.27,5.27,0,0,0-.49-1.85,9.72,9.72,0,0,1-2.2,5.09,8.71,8.71,0,0,0-1.69-1.43,7.25,7.25,0,0,0,1.57-3.07l-5.07,2.08-.75-2.34c.59-.16,1.28-.39,2-.65v-6.19H310.1v-2.16h1.71v-4.32H314v4.4h1.53v2.16H314v5.44l1.51-.53.28,1.43a19.39,19.39,0,0,0,.31-3.91v-6.52H322v-2.73h2.2v2.73h1.53a13.19,13.19,0,0,0-1.49-1.87l1.59-.94a11.33,11.33,0,0,1,1.91,2.3l-.83.51H328v2.12h-3.74c.1,2.06.24,4,.45,5.68a20.68,20.68,0,0,0,1.16-3.73Zm-9.69,1.67V375a24.54,24.54,0,0,1-.29,4,8.63,8.63,0,0,0,1.08.06.55.55,0,0,0,.49-.24c.18-.29.24-1.34.28-4.25h-1.57Z"/><path class="cls-15" d="M343.76,370.71v2.2h6.33v6.62c0,1.16-.24,1.81-1.06,2.16a8.87,8.87,0,0,1-3.46.39,8.13,8.13,0,0,0-.79-2.3,15.78,15.78,0,0,0,2.44,0c.3-.06.43-.08.43-.33v-4.3h-3.89v8.92h-2.44v-8.84h-3.64v6.9h-2.36V373h6v-2.2h-7.64v-2.28h7.88c-.29-.71-.67-1.51-1-2.16l2.32-.73c.49.9,1.14,2.08,1.47,2.89h7.25v2.28h-7.84Z"/><path class="cls-15" d="M360.17,375.29a16.87,16.87,0,0,0-3.22-2.36l1.38-1.59a20.4,20.4,0,0,1,3.34,2.16Zm2,2.12c-.75,2.08-1.73,4.26-2.63,6.19l-2.14-1.36a55.81,55.81,0,0,0,2.84-6.17Zm-1.4-7A17.25,17.25,0,0,0,358,367.8l1.55-1.43a16.8,16.8,0,0,1,2.89,2.46Zm13.88,7.84a23.91,23.91,0,0,1-2.71,1.79,8.22,8.22,0,0,0,3.5,1.89,8.76,8.76,0,0,0-1.47,2c-3.48-1.2-5.37-3.73-6.51-7.37h-2.24v4.51l3.24-.94a13.82,13.82,0,0,0,.33,2c-4.34,1.38-5.11,1.69-5.62,2.06a6.72,6.72,0,0,0-1.22-1.71,2.74,2.74,0,0,0,.92-2.08V367.78h4.52a14.48,14.48,0,0,0-.67-1.69l2.16-.55a15.65,15.65,0,0,1,.94,2.24h4v8.77h-4.15a8.75,8.75,0,0,0,1,2,17.15,17.15,0,0,0,2.5-1.83Zm-9.43-8.41v1.38h6.33v-1.38Zm0,4.74h6.33v-1.42h-6.33Z"/><path class="cls-15" d="M390.92,365.8c0,.83-.06,1.89-.14,3.07.28,2.65,1.47,10.06,8.33,13.09a6.24,6.24,0,0,0-1.71,2,15.21,15.21,0,0,1-7.68-9.3,16,16,0,0,1-7.23,9.41,7.48,7.48,0,0,0-1.95-1.91c8-4.26,7.61-13.07,7.68-16.39h2.69Z"/><path class="cls-18" d="M257.69,333.54H207.54a2.18,2.18,0,0,0-1.54,3.72L256,360a2.18,2.18,0,0,0,3.72-1.53l.15-22.72a2.18,2.18,0,0,0-2.17-2.19Z"/><path class="cls-18" d="M348.9,257.52h6l2.34-8.54h-6l1.32-4.87h6l3.23-11.78h5.89l-3.22,11.74h4.85l3.21-11.78h5.89l-3.17,11.78h6l-1.32,4.87h-6l-2.33,8.54h6l-1.32,4.87h-6L367,274.07h-5.88l3.18-11.66h-4.89l-3.21,11.66h-5.89l3.2-11.66h-6Zm16.76,0L368,249h-4.86l-2.34,8.54Z"/><path class="cls-18" d="M417.24,253.32q-2.28,10.47-6.79,16.12t-12.72,5.66q-8.2,0-10.29-5.66t.19-16.12q2.25-10.47,6.78-16.15t12.73-5.69q8.2,0,10.27,5.69T417.24,253.32Zm-18.06,15q3.76,0,5.76-3.86a47.21,47.21,0,0,0,3.6-11.15q1.63-7.64,1.26-11.31t-4.13-3.67A6.3,6.3,0,0,0,399.9,242a44.4,44.4,0,0,0-3.64,11.31q-1.6,7.29-1.21,11.15t4.19,3.87Z"/><path class="cls-18" d="M420.68,265.74q2.72-4.23,10.45-9a84.85,84.85,0,0,0,8.82-5.89,11.16,11.16,0,0,0,3.94-6.06,5.77,5.77,0,0,0-.53-4.46,4.29,4.29,0,0,0-3.94-1.78,6.74,6.74,0,0,0-5.86,2.83,16.07,16.07,0,0,0-2,5.19h-8.2a24.44,24.44,0,0,1,3.85-8.72q4.74-6.33,13.35-6.33,6.81,0,10,3.72t1.89,9.84a16.64,16.64,0,0,1-4.62,8.34,38.91,38.91,0,0,1-7.31,5.39l-3.88,2.36q-3.64,2.22-5,3.21a12.51,12.51,0,0,0-2.46,2.3h18.74L446.35,274h-29.4A23.94,23.94,0,0,1,420.68,265.74Z"/></g></g></svg>