<svg xmlns="http://www.w3.org/2000/svg" viewBox="0 0 956.14 484.62"><defs><style>.cls-1{fill:#3c9195;}.cls-2{fill:#006464;}.cls-3{fill:#6bffba;}.cls-11,.cls-12,.cls-4,.cls-5,.cls-7,.cls-8,.cls-9{fill:none;}.cls-4,.cls-5{stroke:#6bffba;}.cls-11,.cls-12,.cls-4,.cls-5,.cls-6,.cls-7,.cls-8,.cls-9{stroke-linecap:round;}.cls-12,.cls-4,.cls-5{stroke-miterlimit:10;}.cls-4{stroke-width:6.34px;}.cls-5{stroke-width:8.45px;}.cls-14,.cls-6{fill:#004864;}.cls-6{stroke:#00364b;stroke-width:8.29px;}.cls-11,.cls-6,.cls-7,.cls-8,.cls-9{stroke-linejoin:round;}.cls-11,.cls-7{stroke:#006464;}.cls-7,.cls-8{stroke-width:2.76px;}.cls-8,.cls-9{stroke:#3c9195;}.cls-9{stroke-width:5.52px;}.cls-10{fill:#ffcd32;}.cls-11{stroke-width:2.13px;}.cls-12{stroke:#ffcd32;stroke-width:4.1px;}.cls-13{fill:#fff;}</style></defs><title>資產 122</title><g id="圖層_2" data-name="圖層 2"><g id="content"><path class="cls-1" d="M457.07,368.68c-34.78,55.65,147.36,35.19,113.82,83.44-28.67,41.23,138.9,41.28,225,41.28,134.08,0,160.2-26.11,160.2-98.93,0-53.29-83.18-88.22-231.35-88.22C660,306.25,491.86,313,457.07,368.68Z" transform="translate(0 -8.78)"/><path class="cls-2" d="M658.14,430a48.65,48.65,0,0,0,8.13.67c17,0,30.82-8.59,30.82-19.18s-13.8-19.18-30.82-19.18-30.82,8.59-30.82,19.18c0,4.43,2.42,8.51,6.48,11.76l21-9.71Z" transform="translate(0 -8.78)"/><path class="cls-2" d="M622.43,378.25a24.33,24.33,0,0,1-4.06.34c-8.51,0-15.41-4.29-15.41-9.59s6.9-9.59,15.41-9.59,15.41,4.29,15.41,9.59a7.65,7.65,0,0,1-3.24,5.88L620,370Z" transform="translate(0 -8.78)"/><rect class="cls-3" x="475.16" y="434.61" width="32.11" height="19.44" rx="3.13" ry="3.13"/><polyline class="cls-4" points="473.68 449.07 473.68 462.41 465.32 462.68"/><polyline class="cls-4" points="509.86 449.35 509.86 462.68 520.87 462.68"/><line class="cls-5" x1="481.78" y1="430.51" x2="481.78" y2="443.45"/><line class="cls-5" x1="499.65" y1="430.51" x2="499.65" y2="443.45"/><line class="cls-4" x1="486.53" y1="451.62" x2="486.53" y2="462.68"/><line class="cls-4" x1="495.16" y1="451.62" x2="495.16" y2="462.68"/><polyline class="cls-4" points="494.73 247.96 494.73 280.81 490.55 288.07"/><polyline class="cls-4" points="530.91 248.23 530.91 280.94 536.41 286.75"/><line class="cls-5" x1="502.83" y1="214.01" x2="502.83" y2="217.42"/><line class="cls-5" x1="520.7" y1="214.01" x2="520.7" y2="242.33"/><path class="cls-3" d="M508.77,250.19V236a3.55,3.55,0,0,0-3.55-3.55h-5.47a3.55,3.55,0,0,1-3.55-3.55h0a3.55,3.55,0,0,1,3.55-3.55h25a3.55,3.55,0,0,1,3.55,3.55v29.31a3.55,3.55,0,0,1-3.55,3.55h-25a3.55,3.55,0,0,1-3.55-3.55v-.88a3.55,3.55,0,0,1,3.55-3.55h5.47A3.55,3.55,0,0,0,508.77,250.19Z" transform="translate(0 -8.78)"/><line class="cls-4" x1="507.58" y1="250.5" x2="507.58" y2="274.08"/><line class="cls-4" x1="516.21" y1="250.5" x2="516.21" y2="274.08"/><polyline class="cls-4" points="650.33 377.47 650.33 395.03 641.97 395.3"/><polyline class="cls-4" points="686.51 377.74 686.51 395.3 697.52 395.3"/><line class="cls-5" x1="658.43" y1="345.96" x2="658.43" y2="350.44"/><line class="cls-5" x1="676.3" y1="345.96" x2="676.3" y2="371.84"/><path class="cls-3" d="M664.37,379.7V367.91a3.55,3.55,0,0,0-3.55-3.55h-5.47a3.55,3.55,0,0,1-3.55-3.55h0a3.55,3.55,0,0,1,3.55-3.55h25a3.55,3.55,0,0,1,3.55,3.55v26.86a3.55,3.55,0,0,1-3.55,3.55h-25a3.55,3.55,0,0,1-3.55-3.55v-.88a3.55,3.55,0,0,1,3.55-3.55h5.47A3.55,3.55,0,0,0,664.37,379.7Z" transform="translate(0 -8.78)"/><line class="cls-4" x1="663.18" y1="380.01" x2="663.18" y2="395.3"/><line class="cls-4" x1="671.81" y1="380.01" x2="671.81" y2="395.3"/><polygon class="cls-6" points="365.37 192.57 365.37 374.99 359.4 363.31 359.4 180.88 365.37 192.57"/><polygon class="cls-6" points="20.2 321.3 365.37 321.3 359.4 309.62 14.23 309.62 20.2 321.3"/><polygon class="cls-6" points="20.2 192.57 365.37 192.57 359.4 180.88 14.23 180.88 20.2 192.57"/><polygon class="cls-6" points="20.2 192.57 20.2 374.99 14.23 363.31 14.23 180.88 20.2 192.57"/><rect class="cls-6" x="19.91" y="193.14" width="345.18" height="128.74"/><line class="cls-6" x1="373.48" y1="389.45" x2="350.14" y2="346.58"/><line class="cls-6" x1="28.88" y1="391.13" x2="5.54" y2="348.26"/><ellipse class="cls-6" cx="27.58" cy="402.38" rx="1.7" ry="3.6" transform="translate(-111.05 14.85) rotate(-16.18)"/><ellipse class="cls-6" cx="5.89" cy="361.27" rx="1.7" ry="3.6" transform="translate(-45.51 -5.15) rotate(-7.25)"/><ellipse class="cls-6" cx="371.64" cy="400.88" rx="1.7" ry="3.6" transform="translate(-97 110.68) rotate(-16.18)"/><ellipse class="cls-6" cx="349.96" cy="359.77" rx="1.7" ry="3.6" transform="translate(-42.58 38.23) rotate(-7.25)"/><line class="cls-7" x1="57.48" y1="217.96" x2="312.41" y2="217.96"/><line class="cls-7" x1="57.48" y1="225.15" x2="312.41" y2="225.15"/><line class="cls-7" x1="57.48" y1="239.53" x2="312.41" y2="239.53"/><line class="cls-7" x1="57.48" y1="246.73" x2="312.41" y2="246.73"/><line class="cls-7" x1="57.48" y1="232.34" x2="312.41" y2="232.34"/><line class="cls-7" x1="57.48" y1="267.75" x2="312.41" y2="267.75"/><line class="cls-7" x1="57.48" y1="274.95" x2="312.41" y2="274.95"/><line class="cls-7" x1="57.48" y1="289.33" x2="312.41" y2="289.33"/><line class="cls-7" x1="57.48" y1="296.52" x2="312.41" y2="296.52"/><line class="cls-7" x1="57.48" y1="282.14" x2="312.41" y2="282.14"/><path class="cls-8" d="M66.46,244.4a2.34,2.34,0,0,1-.87-4.51c6.46-3.2,8.94,10.73,1.52,10.73s-8.88-7.71-7.55-11.51c1.89-5.37,15.64-7.26,2.52-17.73l8,40.77-2.91,1.07" transform="translate(0 -8.78)"/><path class="cls-8" d="M66.46,294.89a2.34,2.34,0,0,1-.87-4.51c6.46-3.2,8.94,10.73,1.52,10.73s-8.88-7.71-7.55-11.51c1.89-5.37,15.64-7.26,2.52-17.73l8,40.77-2.91,1.07" transform="translate(0 -8.78)"/><line class="cls-8" x1="90.65" y1="229.87" x2="90.65" y2="250.81"/><line class="cls-9" x1="93.27" y1="228.43" x2="91.31" y2="229.87"/><line class="cls-8" x1="104.29" y1="237.69" x2="104.29" y2="252.38"/><line class="cls-9" x1="106.91" y1="236.25" x2="104.95" y2="237.69"/><line class="cls-8" x1="133.18" y1="237.69" x2="133.18" y2="258.64"/><line class="cls-9" x1="135.79" y1="236.25" x2="133.83" y2="237.69"/><line class="cls-8" x1="153.2" y1="228.06" x2="153.2" y2="211.25"/><line class="cls-9" x1="149.77" y1="229.49" x2="152.34" y2="228.06"/><line class="cls-8" x1="141.82" y1="292.41" x2="141.82" y2="268.66"/><line class="cls-9" x1="138.38" y1="293.84" x2="140.96" y2="292.41"/><line class="cls-8" x1="164.8" y1="288.14" x2="164.8" y2="265.77"/><line class="cls-9" x1="161.36" y1="289.58" x2="163.94" y2="288.14"/><line class="cls-8" x1="178.38" y1="285.83" x2="178.38" y2="262.08"/><line class="cls-9" x1="174.94" y1="287.27" x2="177.52" y2="285.83"/><line class="cls-8" x1="170.28" y1="242.1" x2="170.28" y2="221.15"/><line class="cls-9" x1="166.85" y1="243.53" x2="169.43" y2="242.1"/><line class="cls-8" x1="229.79" y1="299.99" x2="229.79" y2="275.24"/><line class="cls-9" x1="226.35" y1="301.43" x2="228.93" y2="299.99"/><line class="cls-8" x1="245.87" y1="293.1" x2="245.87" y2="272.8"/><line class="cls-9" x1="242.43" y1="294.54" x2="245.01" y2="293.1"/><line class="cls-8" x1="259.17" y1="299.99" x2="259.17" y2="270.78"/><line class="cls-9" x1="255.74" y1="301.43" x2="258.31" y2="299.99"/><line class="cls-8" x1="275.25" y1="293.1" x2="275.25" y2="268.34"/><line class="cls-9" x1="271.82" y1="294.54" x2="274.39" y2="293.1"/><line class="cls-8" x1="296.44" y1="288.8" x2="296.44" y2="267.86"/><line class="cls-9" x1="293.01" y1="290.24" x2="295.59" y2="288.8"/><line class="cls-8" x1="193.2" y1="288.8" x2="193.2" y2="267.86"/><line class="cls-9" x1="189.76" y1="290.24" x2="192.34" y2="288.8"/><line class="cls-8" x1="212.42" y1="293.1" x2="212.42" y2="272.15"/><line class="cls-9" x1="208.98" y1="294.54" x2="211.56" y2="293.1"/><line class="cls-8" x1="189.71" y1="237.81" x2="189.71" y2="216.86"/><line class="cls-9" x1="186.27" y1="239.25" x2="188.85" y2="237.81"/><line class="cls-8" x1="119.6" y1="230.59" x2="119.6" y2="255.7"/><line class="cls-9" x1="122.22" y1="229.15" x2="120.25" y2="230.59"/><line class="cls-8" x1="90.65" y1="250.81" x2="133.18" y2="258.64"/><line class="cls-8" x1="83.36" y1="279.49" x2="83.36" y2="300.43"/><line class="cls-9" x1="85.97" y1="278.05" x2="84.01" y2="279.49"/><line class="cls-8" x1="97" y1="287.31" x2="97" y2="302"/><line class="cls-9" x1="99.61" y1="285.87" x2="97.65" y2="287.31"/><line class="cls-8" x1="125.88" y1="287.31" x2="125.88" y2="308.26"/><line class="cls-9" x1="128.5" y1="285.87" x2="126.54" y2="287.31"/><line class="cls-8" x1="112.3" y1="280.21" x2="112.3" y2="305.32"/><line class="cls-9" x1="114.92" y1="278.77" x2="112.96" y2="280.21"/><line class="cls-8" x1="83.36" y1="300.43" x2="125.88" y2="308.26"/><line class="cls-8" x1="153.2" y1="211.25" x2="170.28" y2="221.15"/><line class="cls-8" x1="205.09" y1="229.87" x2="205.09" y2="250.81"/><line class="cls-9" x1="207.71" y1="228.43" x2="205.74" y2="229.87"/><line class="cls-8" x1="218.73" y1="237.69" x2="218.73" y2="252.38"/><line class="cls-9" x1="221.35" y1="236.25" x2="219.39" y2="237.69"/><line class="cls-8" x1="247.62" y1="237.69" x2="247.62" y2="258.64"/><line class="cls-9" x1="250.23" y1="236.25" x2="248.27" y2="237.69"/><line class="cls-8" x1="267.64" y1="228.06" x2="267.64" y2="211.25"/><line class="cls-9" x1="264.21" y1="229.49" x2="266.78" y2="228.06"/><line class="cls-8" x1="284.72" y1="242.1" x2="284.72" y2="221.15"/><line class="cls-9" x1="281.29" y1="243.53" x2="283.86" y2="242.1"/><line class="cls-8" x1="304.15" y1="237.81" x2="304.15" y2="216.86"/><line class="cls-9" x1="300.71" y1="239.25" x2="303.29" y2="237.81"/><line class="cls-8" x1="234.04" y1="230.59" x2="234.04" y2="255.7"/><line class="cls-9" x1="236.66" y1="229.15" x2="234.69" y2="230.59"/><line class="cls-8" x1="205.09" y1="250.81" x2="247.62" y2="258.64"/><line class="cls-8" x1="267.64" y1="211.25" x2="284.72" y2="221.15"/><line class="cls-8" x1="141.82" y1="268.66" x2="178.38" y2="262.08"/><line class="cls-8" x1="164.8" y1="270.14" x2="178.38" y2="267.5"/><line class="cls-8" x1="193.2" y1="267.86" x2="212.42" y2="272.15"/><line class="cls-8" x1="229.79" y1="275.24" x2="275.25" y2="268.34"/><line class="cls-8" x1="229.79" y1="281.54" x2="275.25" y2="274.64"/><path class="cls-10" d="M365.71,224.72c4.89-7.76,12.67-7.64,17.3.28l21.32,36.47c4.63,7.92.91,14.4-8.26,14.4H350.2c-9.17,0-12.68-6.35-7.8-14.12Z" transform="translate(0 -8.78)"/><path class="cls-11" d="M358.23,231.45h10.26a2.75,2.75,0,0,1,2.75,2.75v4.27a6,6,0,0,1-6,6h-3.78a6,6,0,0,1-6-6V234.2a2.75,2.75,0,0,1,2.75-2.75Z"/><path class="cls-11" d="M379,231.45h10.26A2.75,2.75,0,0,1,392,234.2v4.27a6,6,0,0,1-6,6h-3.78a6,6,0,0,1-6-6V234.2a2.75,2.75,0,0,1,2.75-2.75Z"/><line class="cls-11" x1="371.24" y1="234.02" x2="376.25" y2="234.02"/><line class="cls-11" x1="384.14" y1="235.81" x2="384.1" y2="237.59"/><line class="cls-11" x1="363.34" y1="235.63" x2="363.38" y2="237.42"/><line class="cls-11" x1="369.98" y1="242.36" x2="373.74" y2="248.83"/><polyline class="cls-11" points="370.22 252.8 366.19 255.78 369.98 258.52 367.6 260.87 370.31 263.09"/><polyline class="cls-11" points="369.98 258.52 378.1 257.38 381.54 256.01"/><line class="cls-11" x1="381.54" y1="234.86" x2="386.33" y2="234.86"/><line class="cls-11" x1="361.4" y1="234.86" x2="366.19" y2="234.86"/><line class="cls-11" x1="379.81" y1="225.81" x2="382.73" y2="223.95"/><line class="cls-11" x1="367.83" y1="225.81" x2="364.91" y2="223.95"/><polyline class="cls-10" points="378.61 212.04 369.16 205.19 369.89 210.45 364.9 209.45 367.33 213.35 363.04 213.44 367.5 218.9"/><path class="cls-10" d="M423.71,260.17a6.85,6.85,0,0,0-6.83,6.83v9.81a6.85,6.85,0,0,1-6.83,6.83H336.31a6.85,6.85,0,0,1-6.83-6.83V267a6.85,6.85,0,0,0-6.83-6.83h-.47a6.85,6.85,0,0,0-6.83,6.83v24a6.85,6.85,0,0,0,6.83,6.83h22.12a6.85,6.85,0,0,1,6.83,6.83V410.87a5.32,5.32,0,0,1-6.58,5.49,5.32,5.32,0,0,0-6.58,5.49v.47a8.85,8.85,0,0,0,6.68,8.26l13.93,3a5.31,5.31,0,0,0,6.68-5.4V370.6a6.85,6.85,0,0,1,6.83-6.83h3.29a6.85,6.85,0,0,1,6.83,6.83v57.55a6.85,6.85,0,0,0,6.83,6.83h13.21a6.85,6.85,0,0,0,6.83-6.83v-.47a6.63,6.63,0,0,0-6.37-6.83,6.63,6.63,0,0,1-6.37-6.83V304.63a6.85,6.85,0,0,1,6.83-6.83h21A6.85,6.85,0,0,0,431,291V267a6.85,6.85,0,0,0-6.83-6.83Z" transform="translate(0 -8.78)"/><line class="cls-12" x1="322.15" y1="252.8" x2="322.15" y2="209.35"/><path class="cls-13" d="M373.13,285.79l-13.46,20.28,7.47,3.14a16.4,16.4,0,0,0,13.13-.17l6.06-2.74Z" transform="translate(0 -8.78)"/><rect class="cls-3" x="115.02" y="414.97" width="32.11" height="19.44" rx="3.13" ry="3.13" transform="translate(262.15 840.6) rotate(-180)"/><polyline class="cls-4" points="148.6 420.66 148.6 433.99 156.97 434.26"/><polyline class="cls-4" points="112.42 420.93 112.42 434.26 101.41 434.26"/><line class="cls-5" x1="140.5" y1="402.09" x2="140.5" y2="415.03"/><line class="cls-5" x1="122.63" y1="402.09" x2="122.63" y2="415.03"/><line class="cls-4" x1="135.75" y1="423.2" x2="135.75" y2="434.26"/><line class="cls-4" x1="127.12" y1="423.2" x2="127.12" y2="434.26"/><polyline class="cls-4" points="282.34 393.16 282.34 410.72 290.7 410.99"/><polyline class="cls-4" points="246.16 393.43 246.16 410.99 235.15 410.99"/><line class="cls-5" x1="274.24" y1="361.65" x2="274.24" y2="366.13"/><line class="cls-5" x1="256.37" y1="361.65" x2="256.37" y2="387.53"/><path class="cls-3" d="M268.3,395.39V383.6a3.55,3.55,0,0,1,3.55-3.55h5.47a3.55,3.55,0,0,0,3.55-3.55h0a3.55,3.55,0,0,0-3.55-3.55h-25a3.55,3.55,0,0,0-3.55,3.55v26.86a3.55,3.55,0,0,0,3.55,3.55h25a3.55,3.55,0,0,0,3.55-3.55v-.88a3.55,3.55,0,0,0-3.55-3.55h-5.47A3.55,3.55,0,0,1,268.3,395.39Z" transform="translate(0 -8.78)"/><line class="cls-4" x1="269.49" y1="395.7" x2="269.49" y2="410.99"/><line class="cls-4" x1="260.86" y1="395.7" x2="260.86" y2="410.99"/><rect class="cls-3" x="402.34" y="63.55" width="277.14" height="108.78" rx="54.39" ry="54.39"/><path class="cls-14" d="M500.53,126.6c3.78,1.23,7.76,2.59,10.3,3.62l-4.18,3a117.38,117.38,0,0,0-11.58-4.5l2.39-2.11H486.41l2.9,2a53.76,53.76,0,0,1-12.45,4.65,27.59,27.59,0,0,0-3.26-3.18,51.62,51.62,0,0,0,10.5-3.5h-5.45V113.48H506.1V126.6Zm9.87-14.36H474.2v-4h36.2Zm-27.29-10.18h-6.84V98.52h6.84V96.05h4.62v2.47h9.11V96.05h4.85v2.47h6.8v3.54h-6.8V107H483.11Zm.12,16.51h6.52v-1.91h-6.52Zm0,4.85h6.52v-1.91h-6.52Zm4.5-21.36v1.79h9.11v-1.79Zm13.6,14.6h-6.88v1.91h6.88Zm0,4.85h-6.88v1.91h6.88Z" transform="translate(0 -8.78)"/><path class="cls-14" d="M557.3,110.29v3.9h-8l1.47.8c-4.34,2.74-11.18,4.53-17.22,5.45a17.49,17.49,0,0,0-2.43-3.22,59.6,59.6,0,0,0,13.41-3H528.9v2.9c0,4.77-.71,11.62-4.26,16.07a17.89,17.89,0,0,0-3.82-3.1c3.06-3.86,3.38-9.23,3.38-13v-6.76h4.57a16.53,16.53,0,0,0-1.27-2,83.66,83.66,0,0,0,8.35-1.91c-2.39-.72-4.77-1.39-7-1.87l3-1.87h-7.32V98.8h14a16,16,0,0,0-1-2.35l4.5-1a21.77,21.77,0,0,1,1.39,3.3h13.21v3.82h-6.88l1.07.6a36.29,36.29,0,0,1-5,2.86c2.63.88,5.05,1.71,7,2.43l-2.51,1.79Zm-.16,13.76c-5.53,5.49-14.68,8.08-25.18,9.43a15.81,15.81,0,0,0-2.23-4c9.59-.92,18.66-3.1,23.07-7.52Zm-3.5-4.61c-4.73,3.62-12.17,5.81-19.57,7.08a15.41,15.41,0,0,0-2.35-3.42c6.76-.87,14.24-2.82,17.94-5.65Zm-6.17-9.15c-1.79-.72-4-1.51-6.29-2.27-2.43.88-4.93,1.63-7.4,2.27Zm-13.41-7.68c2.27.6,4.69,1.27,7.12,2a30.49,30.49,0,0,0,4.42-2Z" transform="translate(0 -8.78)"/><path class="cls-14" d="M580.38,97.41a72.56,72.56,0,0,1-3,8v27.77H573V113.64c-.72,1.07-1.43,2-2.11,2.9a32,32,0,0,0-2.35-5.09A43.36,43.36,0,0,0,576,96.13Zm12.53,4c-1.71,7.88-5.65,13.21-11,16.19a16,16,0,0,0-2.43-3.1,15.58,15.58,0,0,0,5.57-4.69,26,26,0,0,0-2.35-2.31,28.88,28.88,0,0,1-2,2.35,10.79,10.79,0,0,0-2.94-2.43A25.94,25.94,0,0,0,584,96.49l3.9.6c-.28.76-.56,1.59-.87,2.43h2.86l.68-.16,2.55.88,0,.12h5.65V96.61h4v3.74h2.47v3.58h-2.47v4.93h3.42v3.66h-3.42v4.26h-4v-4.26H592c.64-2.27,1.31-5.57,1.87-8.59h-.92Zm-3.18,22.87a43,43,0,0,1-7.16,8.27,38.3,38.3,0,0,0-3.5-3.14,27.86,27.86,0,0,0,6.32-6.64Zm5.37-2.11v11h-4.58v-11H579.86v-4.06h10.66v-4h4.58v4h11v4.06Zm-9.59-19.25c-.24.48-.48,1-.72,1.47a29.92,29.92,0,0,1,2.35,2.07,22.53,22.53,0,0,0,1.39-3.54Zm13.88,19.73a55.55,55.55,0,0,1,6.8,7.32l-3.54,2.83a52.57,52.57,0,0,0-6.64-7.76Zm-.64-18.74h-1.39c-.32,1.63-.68,3.38-1,4.93h2.43Z" transform="translate(0 -8.78)"/><path class="cls-14" d="M472.26,148.47v5.69h6v-5.69h3.26v14.82h-3.26V156.9h-6v6.39H469V148.47Z" transform="translate(0 -8.78)"/><path class="cls-14" d="M483.94,155.86a3.41,3.41,0,0,1,.52-1.72,3.53,3.53,0,0,1,1.16-1.1,5.05,5.05,0,0,1,1.59-.59,9.06,9.06,0,0,1,1.78-.18,12,12,0,0,1,1.64.11,5.05,5.05,0,0,1,1.52.45,3,3,0,0,1,1.12.92,2.58,2.58,0,0,1,.44,1.57v5.58a11.15,11.15,0,0,0,.08,1.39,2.49,2.49,0,0,0,.29,1h-3a3.75,3.75,0,0,1-.13-.51,4.26,4.26,0,0,1-.07-.53,3.83,3.83,0,0,1-1.66,1,6.67,6.67,0,0,1-2,.29,5.24,5.24,0,0,1-1.43-.19,3.28,3.28,0,0,1-1.16-.58,2.71,2.71,0,0,1-.78-1,3.37,3.37,0,0,1-.28-1.43,3.13,3.13,0,0,1,.32-1.5,2.68,2.68,0,0,1,.83-.94,3.74,3.74,0,0,1,1.16-.53,12.75,12.75,0,0,1,1.32-.28q.67-.1,1.31-.17a7.81,7.81,0,0,0,1.14-.19,2,2,0,0,0,.79-.36.8.8,0,0,0,.27-.7,1.56,1.56,0,0,0-.16-.76,1.14,1.14,0,0,0-.42-.44,1.63,1.63,0,0,0-.6-.21,5,5,0,0,0-.74-.05,2.24,2.24,0,0,0-1.37.37,1.67,1.67,0,0,0-.58,1.25Zm6.81,2.18a1.33,1.33,0,0,1-.47.26,4.88,4.88,0,0,1-.6.16l-.67.1-.71.1a5.58,5.58,0,0,0-.65.17,2,2,0,0,0-.56.28,1.33,1.33,0,0,0-.38.45,1.43,1.43,0,0,0-.15.68,1.37,1.37,0,0,0,.15.66,1.1,1.1,0,0,0,.39.43,1.68,1.68,0,0,0,.58.22,3.75,3.75,0,0,0,.69.06,2.6,2.6,0,0,0,1.35-.29,1.94,1.94,0,0,0,.71-.7,2.22,2.22,0,0,0,.28-.82,5.54,5.54,0,0,0,.05-.66Z" transform="translate(0 -8.78)"/><path class="cls-14" d="M498.93,148.47v5.58H499a3.4,3.4,0,0,1,1.43-1.36,3.87,3.87,0,0,1,1.7-.43,5,5,0,0,1,1.94.32,2.89,2.89,0,0,1,1.19.89,3.46,3.46,0,0,1,.61,1.39,8.67,8.67,0,0,1,.18,1.82v6.6H503.1v-6.06a3.75,3.75,0,0,0-.42-2,1.61,1.61,0,0,0-1.47-.65,2,2,0,0,0-1.74.72,4,4,0,0,0-.54,2.36v5.62H496V148.47Z" transform="translate(0 -8.78)"/><path class="cls-14" d="M508.35,155.6a4.9,4.9,0,0,1,2.86-2.93,6.11,6.11,0,0,1,2.28-.41,6.2,6.2,0,0,1,2.29.41,4.88,4.88,0,0,1,2.87,2.93,6.56,6.56,0,0,1,.39,2.33,6.48,6.48,0,0,1-.39,2.32,5,5,0,0,1-1.12,1.77,4.88,4.88,0,0,1-1.75,1.13,6.36,6.36,0,0,1-2.29.39,6.27,6.27,0,0,1-2.28-.39,4.88,4.88,0,0,1-1.74-1.13,5,5,0,0,1-1.12-1.77,6.48,6.48,0,0,1-.39-2.32A6.56,6.56,0,0,1,508.35,155.6Zm2.68,3.59a3.34,3.34,0,0,0,.43,1.1,2.27,2.27,0,0,0,.8.78,2.44,2.44,0,0,0,1.25.29,2.49,2.49,0,0,0,1.25-.29,2.24,2.24,0,0,0,.81-.78,3.37,3.37,0,0,0,.43-1.1,6.35,6.35,0,0,0,.12-1.26,6.52,6.52,0,0,0-.12-1.27,3.26,3.26,0,0,0-.43-1.1,2.37,2.37,0,0,0-.81-.78,2.43,2.43,0,0,0-1.25-.3,2.27,2.27,0,0,0-2,1.08,3.24,3.24,0,0,0-.43,1.1,6.52,6.52,0,0,0-.12,1.27A6.35,6.35,0,0,0,511,159.19Z" transform="translate(0 -8.78)"/><path class="cls-14" d="M530.2,163.29l-1.91-7.2h0l-1.83,7.2h-3.05L520,152.56h3.11l2,7.28h0l1.79-7.28h2.86l1.83,7.26h0l2-7.26h3l-3.38,10.73Z" transform="translate(0 -8.78)"/><path class="cls-14" d="M554.17,152.06a19.27,19.27,0,0,1-1.43,7.18,31.83,31.83,0,0,1,2.51,2.51l-1.62,2.05a27.43,27.43,0,0,0-2.12-2.32,14.22,14.22,0,0,1-3.53,3.65,9.14,9.14,0,0,0-1.74-1.72,12.55,12.55,0,0,0,3.51-3.63c-1.06-1-2.16-2-3.09-2.8.33-1.25.69-2.82,1-4.52l-1.16.08-.23-2.35,1.76-.06c.21-1.49.37-3,.46-4.36l2.45.1c-.12,1.31-.29,2.72-.52,4.15l1.49-.08v-1.31h2.3v1.18l1.08-.06V152Zm-4.15.27c-.25,1.37-.5,2.72-.77,3.9l1.6,1.35a17.11,17.11,0,0,0,1-5.37Zm15.65,4.25h-4.15v5.83c0,1.27-.27,1.89-1.14,2.28a9.61,9.61,0,0,1-3.63.39,9.07,9.07,0,0,0-.83-2.35c1,0,2.24,0,2.57,0s.46-.08.46-.39v-5.79h-4.36v-2.34h4.36v-2a16.66,16.66,0,0,0,2.53-3h-6.08V147h7.7l.58-.12,1.66,1.2a25.24,25.24,0,0,1-3.82,4.63v1.56h4.15Z" transform="translate(0 -8.78)"/><path class="cls-14" d="M590.23,161.3h-7.93v1.49c0,1.1-.25,1.64-1.1,2a11.9,11.9,0,0,1-3.55.31,8,8,0,0,0-.75-2.07c1,0,2.22,0,2.53,0s.44-.06.44-.31V161.3h-8.41v-2h8.41v-.6a15.17,15.17,0,0,0,2.28-1.2H575.5v-1.72h9l.52-.12,1.39,1.27a29,29,0,0,1-4,2.39h7.76Zm-16-3.9h-2.34v-4.25h1.56L573,147a28.8,28.8,0,0,0,4.19-1.16l1,1.43a19.74,19.74,0,0,1-2.82.79l0,.6h2.64v1.54h-2.55l0,.71h2.55v1.06a16.39,16.39,0,0,0,1.45-.79c-.39-.25-.79-.48-1.16-.69l1.14-1c.41.21.85.46,1.29.71a8,8,0,0,0,.83-.87l1.62.48a8.69,8.69,0,0,1-1.1,1.25,8.41,8.41,0,0,1,1.25,1l-1.22,1.08a13.7,13.7,0,0,0-1.2-1,15.27,15.27,0,0,1-1.68,1.08H586l.08-.73h-2.45v-1.54h2.59l0-.71h-2.53v-1.54h2.64l0-.68h-2.8V146.4h5.21c-.1,2.18-.25,4.81-.44,6.74H590v4.25h-2.45v-2.47H574.19Zm1.49-4.25H579c-.23-.27-.62-.66-.93-1v.23h-2.47Zm6.43-3.82a11,11,0,0,0-1.08-.87,10.53,10.53,0,0,1-1.68,1,11.42,11.42,0,0,0-1.29-1.1,9.47,9.47,0,0,0,1.58-.81c-.39-.23-.75-.44-1.12-.62l1.1-1c.39.19.83.42,1.27.66a7,7,0,0,0,.75-.83l1.62.48a7.58,7.58,0,0,1-1,1.14c.42.29.79.58,1.08.83Z" transform="translate(0 -8.78)"/><path class="cls-14" d="M602.37,158.68c-.25-.71-.71-1.74-1.16-2.74v9.15h-2.26v-8.38a21.09,21.09,0,0,1-2,4.92,15.48,15.48,0,0,0-1.14-2.45,21.64,21.64,0,0,0,2.7-7.1h-2.05V149.8h2.47v-4.11h2.26v4.09h2.05v2.3h-2.05v.66c.54.71,2.2,3.47,2.57,4.07Zm11.21-2.37a7.59,7.59,0,0,0-.52-.83,15.5,15.5,0,0,1-2.26,4.59,12.71,12.71,0,0,0,4.94,2.66,9.6,9.6,0,0,0-1.64,2.22,13.25,13.25,0,0,1-4.94-3,15.71,15.71,0,0,1-5,3.15,8.7,8.7,0,0,0-1.56-1.93,14.37,14.37,0,0,0,5-3.07,19.41,19.41,0,0,1-2.28-4.38c-.27.27-.56.5-.83.73a11.14,11.14,0,0,0-1.7-1.54,15.35,15.35,0,0,0,3.47-4l2.18,1A24,24,0,0,1,606,155l1.2-.31a13.89,13.89,0,0,0,1.87,3.57,11.61,11.61,0,0,0,1.64-3.59l2.1.56a23.26,23.26,0,0,0-2.76-3.15l1.41-1.18h-7.72V148.6h4.67a11.68,11.68,0,0,0-1.31-2.3l2.18-.81A10.79,10.79,0,0,1,610.9,148l-1.31.56h5.64v2.26H612a21,21,0,0,1,3.4,3.9Z" transform="translate(0 -8.78)"/><path class="cls-3" d="M448.53,159.5,423.6,203a2.18,2.18,0,0,0,2.46,3.19l44.57-32.09a2.18,2.18,0,0,0,.52-4L451.51,158.7A2.18,2.18,0,0,0,448.53,159.5Z" transform="translate(0 -8.78)"/><path class="cls-3" d="M542.12,34.81h6l2.34-8.54h-6l1.32-4.87h6L555,9.62h5.89L557.68,21.4h4.85l3.21-11.78h5.88L568.41,21.4h6l-1.33,4.87h-6l-2.33,8.54h6l-1.32,4.87h-6l-3.18,11.66h-5.89l3.18-11.66h-4.89l-3.2,11.66h-5.89l3.2-11.66h-6Zm16.76,0,2.33-8.54h-4.86L554,34.81Z" transform="translate(0 -8.78)"/><path class="cls-3" d="M610.49,30.62q-2.28,10.47-6.79,16.12T591,52.4q-8.2,0-10.29-5.66t.19-16.12q2.25-10.47,6.78-16.15T600.4,8.78q8.2,0,10.27,5.69T610.49,30.62Zm-18.06,15q3.76,0,5.76-3.86a47.21,47.21,0,0,0,3.6-11.15Q603.42,23,603,19.3t-4.13-3.67a6.3,6.3,0,0,0-5.77,3.67q-2,3.67-3.64,11.31-1.6,7.29-1.21,11.15T592.43,45.63Z" transform="translate(0 -8.78)"/><path class="cls-3" d="M621.15,28.84A7.28,7.28,0,0,1,618,24.42a11.55,11.55,0,0,1,0-4.45,13.41,13.41,0,0,1,5.23-7.86,16.92,16.92,0,0,1,10.64-3.25q6.42,0,9.25,3.25A8.55,8.55,0,0,1,645,20a14.52,14.52,0,0,1-1.89,4.45,11.73,11.73,0,0,1-4.92,4.13A8.68,8.68,0,0,1,642,33.18a12,12,0,0,1,.21,6.44,15.48,15.48,0,0,1-6,9.08,19,19,0,0,1-12,3.75q-7.2,0-10.08-3.75a10.54,10.54,0,0,1-1.73-9.08,15.7,15.7,0,0,1,3-6.44A14.07,14.07,0,0,1,621.15,28.84ZM626,45.63a7.3,7.3,0,0,0,4.91-1.72,8.53,8.53,0,0,0,2.7-4.84q.71-3.24-.61-4.91a5,5,0,0,0-4.16-1.68A7.4,7.4,0,0,0,624,34.16a8.49,8.49,0,0,0-2.74,4.91q-.68,3.12.59,4.84A4.85,4.85,0,0,0,626,45.63Zm4.2-19.51a6.37,6.37,0,0,0,6.51-5.22,4.52,4.52,0,0,0-.55-3.92,4.41,4.41,0,0,0-3.69-1.41A6.54,6.54,0,0,0,628.21,17a6.8,6.8,0,0,0-2.29,3.92,4.47,4.47,0,0,0,.64,3.76A4.31,4.31,0,0,0,630.21,26.13Z" transform="translate(0 -8.78)"/></g></g></svg>