<svg xmlns="http://www.w3.org/2000/svg" viewBox="0 0 81.03 70.18"><defs><style>.cls-1{fill:#006464;stroke:#3c9195;stroke-width:1.5px;}.cls-1,.cls-4,.cls-5,.cls-6{stroke-linecap:round;}.cls-1,.cls-5,.cls-6{stroke-linejoin:round;}.cls-2{fill:#0f9bff;}.cls-3{fill:#ffcd32;}.cls-4,.cls-5,.cls-6{fill:none;stroke:#006464;}.cls-4,.cls-6{stroke-width:0.59px;}.cls-5{stroke-width:0.49px;}.cls-7{fill:#bebebe;}</style></defs><title>資產 10</title><g id="圖層_2" data-name="圖層 2"><g id="UI"><polygon class="cls-1" points="8.58 41.7 0.75 57.91 0.75 16.96 8.58 0.75 8.58 41.7"/><polygon class="cls-1" points="5.43 40.96 0.75 50.65 0.75 16.96 5.43 7.27 5.43 40.96"/><path class="cls-2" d="M18.18,41.9s10.66-7.14,16.83-6c6.87,1.31,5.66,3.45,14.23,5.64a23.59,23.59,0,0,0,20.58-4.23L75.62,26s-11,10.11-22.36,8.15c-7.51-1.29-6.81-2.71-12.89-6-8.33-4.57-16.74,2.93-16.74,2.93Z"/><path class="cls-2" d="M70.61,36l1.23-.5a.23.23,0,0,0,0-.39l-1.11-.8a.23.23,0,0,0-.36.16l-.12,1.31A.23.23,0,0,0,70.61,36Z"/><path class="cls-2" d="M74,30.65l.68-1.14a.23.23,0,0,0-.2-.34l-1.37,0a.23.23,0,0,0-.19.34l.69,1.11A.23.23,0,0,0,74,30.65Z"/><path class="cls-2" d="M77.34,27.9l1.09,0a.19.19,0,0,0,.16-.28l-.57-1a.19.19,0,0,0-.32,0l-.52.94A.19.19,0,0,0,77.34,27.9Z"/><path class="cls-2" d="M80.3,29.78l.57-.23a.1.1,0,0,0,0-.18L80.38,29a.1.1,0,0,0-.17.08l-.05.6A.1.1,0,0,0,80.3,29.78Z"/><path class="cls-2" d="M80.26,23.81l0,.61a.1.1,0,0,0,.16.08l.52-.37A.1.1,0,0,0,81,24l-.55-.24A.1.1,0,0,0,80.26,23.81Z"/><path class="cls-2" d="M75.48,26.44,76,26.2a.1.1,0,0,0,0-.18l-.51-.37a.1.1,0,0,0-.17.08l-.05.6A.1.1,0,0,0,75.48,26.44Z"/><path class="cls-2" d="M73.89,32l1.54.89a.3.3,0,0,0,.45-.27l-.06-1.83a.3.3,0,0,0-.46-.25l-1.48.94A.3.3,0,0,0,73.89,32Z"/><path class="cls-3" d="M26.15,32A1.88,1.88,0,0,0,28,30.11V30a1.88,1.88,0,0,0-1.88-1.88H5.78A3.62,3.62,0,0,0,3,29.73l-.6,1a8.27,8.27,0,0,0-.94,3.5v14.5c0,1,.41,1.14.91.23L6.6,41.27a3.8,3.8,0,0,1,2.79-1.75L12,39.37c1-.06,2.72-.11,3.75-.11h5.66a1.88,1.88,0,0,0,1.88-1.88v-.13a1.88,1.88,0,0,0-1.88-1.88H15.11a1.7,1.7,0,1,1,0-3.38Z"/><path class="cls-3" d="M24.55,15.66a.56.56,0,0,1-.67.72c-1.49-.4-4.22-1.19-4.94-1.87a2.51,2.51,0,0,1,3.43-3.66C23.08,11.53,24.05,14.2,24.55,15.66Z"/><path class="cls-3" d="M9.82,11.69c1.35-2.14,3.49-2.1,4.77.08l5.87,10c1.28,2.18.25,4-2.28,4H5.54C3,25.79,2,24,3.39,21.9Z"/><path class="cls-4" d="M13.55,16.41a3.41,3.41,0,0,1,2,.49"/><path class="cls-4" d="M10.28,16.41a3.41,3.41,0,0,0-2,.49"/><polyline class="cls-5" points="10.03 24.04 12.03 22.87 14.07 24.04"/><path class="cls-5" d="M14.93,23.82a5.22,5.22,0,0,1-2.88.76,5.9,5.9,0,0,1-2.88-.76"/><path class="cls-4" d="M13.85,18.32a1.72,1.72,0,0,1,1.66.26"/><path class="cls-4" d="M10,18.32c-.16-.09-.73-.33-1.66.26"/><line class="cls-4" x1="15.51" y1="18.58" x2="16.06" y2="18.3"/><line class="cls-4" x1="8.37" y1="18.58" x2="7.82" y2="18.3"/><path class="cls-5" d="M12,21.35l-.77-.48a3.35,3.35,0,0,1,.67-2.17"/><path class="cls-6" d="M15.85,15.45s-4.51-.61-5.23-2.71a4.74,4.74,0,0,1-2.74,2.84"/><polygon class="cls-7" points="64.6 70.18 1.77 70.18 8.66 59.84 71.49 59.84 64.6 70.18"/></g></g></svg>