<svg xmlns="http://www.w3.org/2000/svg" viewBox="0 0 132.01 43.73"><defs><style>.cls-1{fill:#6bffba;}.cls-2{fill:#006464;}</style></defs><title>資產 1</title><g id="圖層_2" data-name="圖層 2"><g id="圖層_1-2" data-name="圖層 1"><rect class="cls-1" width="132.01" height="36.13" rx="18.06" ry="18.06"/><path class="cls-1" d="M91.91,35.4V43a.72.72,0,0,0,1.24.51L100.7,36a.72.72,0,0,0-.51-1.24H92.64A.72.72,0,0,0,91.91,35.4Z"/><path class="cls-2" d="M27.18,11.71v13.5h-2v-.79h-9v.79H14.36V11.71Zm-2,11V13.55h-9v9.21h9Zm-1.37-7.4V21H17.66v-5.7ZM22,16.88H19.34v2.6H22Z"/><path class="cls-2" d="M37,22.24l2.87-.48.09,1.53c-2.62.51-5.46,1-7.5,1.38L32.06,23c.9-.12,2-.3,3.24-.5v-2H32.57V19H35.3V17.61H37v1.33h2.7v1.54H37v1.75ZM32.21,12.11H40v1.53H37.89A16.72,16.72,0,0,1,40,16.83l-1.35.88c-.09-.22-.21-.48-.34-.75-4.14.34-4.78.42-5.22.6-.1-.36-.39-1.15-.57-1.62a1.46,1.46,0,0,0,.69-.63,11.81,11.81,0,0,0,.93-1.68h-1.9Zm5.25,3.49c-.28-.44-.58-.85-.87-1.23l1.22-.74H36a17.69,17.69,0,0,1-1.31,2.11Zm4.79,6.07H40.59V12.61h1.65v9.06Zm3-10.29V23a1.55,1.55,0,0,1-.75,1.68,6.53,6.53,0,0,1-2.59.33,7.28,7.28,0,0,0-.6-1.71h1.86a.29.29,0,0,0,.34-.34V11.38Z"/><path class="cls-2" d="M62.81,15.57a16.43,16.43,0,0,1-1.87,5.7,7.42,7.42,0,0,0,3,2.42,6.42,6.42,0,0,0-1.21,1.54,8.24,8.24,0,0,1-2.92-2.42,10.72,10.72,0,0,1-3.37,2.4,7.27,7.27,0,0,0-.95-1.53H52v.88H50.37V17.93h2v-2.3H49.76V14h2.61V11.22h1.79V14h2.45v1.67H54.15v2.31h1.66a4.56,4.56,0,0,0-.42-.3,12.67,12.67,0,0,0,2.56-6.42l1.86.28a24,24,0,0,1-.6,2.37h4.6v1.68h-1Zm-8.4,4H52V22h2.4Zm1.69,3.72a7.82,7.82,0,0,0,2.7-2.05,17.28,17.28,0,0,1-1.27-3.36,7.93,7.93,0,0,1-.66.95c-.17-.15-.45-.41-.75-.65v5.14Zm2.55-7.75a16.6,16.6,0,0,0,1.23,4,13.74,13.74,0,0,0,1.14-4H58.65Z"/><path class="cls-2" d="M81.69,21.06H80.13v2.61H78.32V23h-2.7v.47a1.32,1.32,0,0,1-.79,1.5,7.89,7.89,0,0,1-2.65.26,5.54,5.54,0,0,0-.58-1.41h1.84a.32.32,0,0,0,.38-.37V23H69.24V21.74h4.57V21H67.86V19.66h5.95V19H69.36V17.88h4.45v-.69H69.74v-3h4.07V13.6h-5.6V12.19h5.6v-1h1.81v1h5.73V13.6H75.62v.62h4.26v3H75.62v.66h4.51v1.84h1.56v1.34Zm-7.89-5v-.72H71.44v.72H73.8Zm1.81-.72v.72H78v-.72Zm0,4.35h2.7V19h-2.7Zm2.7,1.37h-2.7v.71h2.7Z"/><path class="cls-2" d="M99.51,23v1.75H86.09V23h5.72v-2.9h-4.3V18.39h4.3v-2.6H86.74V14h6a22.27,22.27,0,0,0-2.25-1.83l1.47-1a17,17,0,0,1,2.85,2.25L94,14h4.79v1.74h-5v2.6h4.31v1.72H93.81V23h5.7Z"/><path class="cls-2" d="M113.06,22.2c1.62.57,3.46,1.32,4.56,1.85l-1.81,1.18a30.06,30.06,0,0,0-4.35-2l1.25-1.08h-4l1.3,1a26,26,0,0,1-4.92,2,17.1,17.1,0,0,0-1.23-1.38,20.74,20.74,0,0,0,4.3-1.64H105.7v-7.7h3.81c.06-.29.12-.6.17-.9h-5.27V11.88h12.54V13.5h-5.14c-.09.31-.2.61-.3.9H116v7.77h-2.88Zm-5.46-5.58H114v-.83h-6.37v.83Zm0,2.1H114v-.84h-6.37v.83Zm0,2.11H114V20h-6.37v.83Z"/></g></g></svg>