<svg xmlns="http://www.w3.org/2000/svg" viewBox="0 0 71.21 43.72"><defs><style>.cls-1{fill:#6bffba;}.cls-2{fill:#006464;}</style></defs><title>資產 1</title><g id="圖層_2" data-name="圖層 2"><g id="UI"><rect class="cls-1" width="71.21" height="36.13" rx="18.06" ry="18.06"/><path class="cls-1" d="M31.11,35.4V43a.72.72,0,0,0,1.24.51L39.89,36a.72.72,0,0,0-.51-1.24l-7.55,0A.72.72,0,0,0,31.11,35.4Z"/><path class="cls-2" d="M15.6,21.21A15,15,0,0,0,14,19.11a9.07,9.07,0,0,1-2,3.08A9.11,9.11,0,0,0,10.6,20.9c1.56-1.37,2.37-3.66,2.73-6.34l1.79.23a21.85,21.85,0,0,1-.57,2.62,15.43,15.43,0,0,1,2.08,2.35Zm2.91,1.6h5.88v1.77H10.86V22.82h5.79V13.94H11.28V12.21H24v1.72h-5.5v6.12a10.71,10.71,0,0,0,2.13-5.46l1.77.25a19.73,19.73,0,0,1-.56,2.46,21.7,21.7,0,0,1,2.64,3.18l-1.25,1.35a19.68,19.68,0,0,0-2.05-2.74,8.77,8.77,0,0,1-1.8,2.71,10,10,0,0,0-.88-.84Z"/><path class="cls-2" d="M42.14,16.59v1.47h-3l.56.3a18.27,18.27,0,0,1-6.5,2.06,6.56,6.56,0,0,0-.92-1.21,22.45,22.45,0,0,0,5.05-1.14H31.44v1.09c0,1.8-.27,4.38-1.61,6.06A6.74,6.74,0,0,0,28.39,24a7.91,7.91,0,0,0,1.27-4.9V16.59h1.73a6.35,6.35,0,0,0-.48-.77,31.5,31.5,0,0,0,3.15-.72c-.9-.27-1.8-.52-2.64-.7l1.12-.71H29.79V12.26h5.28a6.14,6.14,0,0,0-.36-.89L36.4,11a8.11,8.11,0,0,1,.52,1.25h5V13.7h-2.6l.41.23A13.69,13.69,0,0,1,37.84,15c1,.33,1.91.65,2.66.92l-.95.68Zm-.06,5.19c-2.08,2.07-5.54,3-9.5,3.56a5.93,5.93,0,0,0-.84-1.5c3.62-.35,7-1.17,8.7-2.83ZM40.76,20c-1.78,1.36-4.59,2.19-7.38,2.67a5.77,5.77,0,0,0-.88-1.29c2.55-.33,5.37-1.06,6.76-2.13Zm-2.32-3.45c-.68-.27-1.52-.57-2.37-.85-.92.33-1.86.61-2.79.85Zm-5.06-2.9c.86.23,1.77.48,2.69.75a11.54,11.54,0,0,0,1.67-.75Z"/><path class="cls-2" d="M51.28,15.09c-.33.67-.72,1.38-1.16,2.08h0v8.05H48.48V19.52a13.28,13.28,0,0,1-1.08,1.23,15,15,0,0,0-1-1.67,16.2,16.2,0,0,0,3.27-4.56ZM51,11.88a24.63,24.63,0,0,1-3.67,4.18,11.83,11.83,0,0,0-.83-1.47,15.21,15.21,0,0,0,2.91-3.36Zm-.78,12a8,8,0,0,0,1.17-2.77l1.35.52a10.47,10.47,0,0,1-1.19,3Zm10.37-3.37H56.07c.31.52.66,1.17.85,1.59l-1.38.49a20.1,20.1,0,0,0-.9-1.83l.77-.25H50.94V19.11h9.67ZM54.7,14.46c0-.24.06-.49.09-.76H51.13V12.29h3.78c0-.4,0-.76.06-1.11l1.89.06-.15,1h3.84V13.7h-4c0,.27-.09.52-.12.76h3.7v4H51.67v-4Zm1.89,9.24c.42,0,.51-.17.55-1.24a4.81,4.81,0,0,0,1.37.52c-.17,1.63-.58,2-1.74,2H54.91C53.37,25,53,24.6,53,23.3V21.47h1.56v1.81c0,.38.09.42.58.42Zm-2.5-8h-1v1.46h1Zm2.26,0h-1v1.46h1Zm1.2,1.46h1.09V15.72H57.55ZM59.16,21a11,11,0,0,1,1.59,2.83l-1.4.63a9.66,9.66,0,0,0-1.5-2.88Z"/></g></g></svg>