<svg xmlns="http://www.w3.org/2000/svg" viewBox="0 0 301.56 89.55"><defs><style>.cls-1{fill:#6bffba;}.cls-2{fill:#00364b;}</style></defs><title>Asset 3</title><g id="Layer_2" data-name="Layer 2"><g id="對話框"><rect class="cls-1" width="301.56" height="49.48" rx="24.1" ry="24.1"/><path class="cls-2" d="M42.87,31.24c0,1.25-.28,1.87-1.06,2.22a9.06,9.06,0,0,1-3.74.39,8.71,8.71,0,0,0-.73-2.22c1.09.06,2.38,0,2.73,0s.51-.11.51-.46V28.29l-4.11,0,0,5.44H34.11l0-5.44h-4A11.17,11.17,0,0,1,27.68,34a8.57,8.57,0,0,0-1.83-1.51c2.13-2.33,2.32-5.8,2.33-8.53l0-7,14.71.05Zm-8.73-5.16v-2.4H30.48V24c0,.62,0,1.33-.07,2ZM30.5,19.25v2.26h3.66V19.26Zm10.09,6.86v-2.4l-4.11,0v2.4Zm0-6.82-4.11,0v2.26l4.11,0Z"/><path class="cls-2" d="M67.48,23.54v2.51L49.55,26V23.47Z"/><path class="cls-2" d="M78.54,16.62A36.79,36.79,0,0,1,77,20.32L77,34.13h-2.2l0-10a20.42,20.42,0,0,1-1.31,1.67,16.16,16.16,0,0,0-1.08-2.52,20.61,20.61,0,0,0,4-7.35Zm11.9.34-.06,17h-2.2V33l-7.33,0v1.13h-2.1l.06-17.19ZM88.19,31l0-12-7.33,0,0,12Zm-2.78-8V24.7h1.87l0,5.22-5.4,0,0-5.22h1.73V23H81.38V21.33h2.24v-2h1.79v2h2.36V23Zm.13,3.27h-2v2h2Z"/><path class="cls-2" d="M106.08,25.18v2.75l.82-1.22c1.93.75,4.94,1.93,6.46,2.67l-1.29,2.08c-1.32-.73-4-1.92-6-2.77l0,5.51h-2.47l0-9-7.13,0v-2.3l7,0,0-6.88H106v2.32l6.31,0v2.22l-6.31,0v2.34l8.16,0v2.3Z"/><path class="cls-2" d="M125,25.19a23,23,0,0,1-1.54,5.06c.31.2.68.47,1.21.78,1.32.8,3.15.93,5.43.94A65.33,65.33,0,0,0,138,31.5a9,9,0,0,0-.67,2.37c-1.62.09-5,.21-7.33.21-2.59,0-4.23-.23-5.63-1.05-.82-.45-1.5-1.1-1.91-1.1s-1.15,1.32-1.63,2.43l-1.55-2.21a8.7,8.7,0,0,1,2.05-1.84,19.74,19.74,0,0,0,1.14-3.39H120c.45-1.15,1-2.71,1.42-4.22h-1.75V20.61l4.56,0c-.41,1.36-.89,2.92-1.34,4.28h.78l.35-.08Zm-3.25-5.14c-.21-.88-.71-2.3-1-3.36l2-.62c.35,1.05.85,2.36,1.12,3.24Zm6.33,11h-2.18l0-10,4.37,0c-.9-.41-1.81-.81-2.61-1.14l1.5-1.22c.68.26,1.5.57,2.28.92a14.47,14.47,0,0,0,1.56-1l-6.92,0V16.74l8.94,0,.47-.12,1.36,1.1a20.1,20.1,0,0,1-3.48,2.64c.43.22.84.41,1.17.61H137l0,8c0,1-.18,1.42-.81,1.73a5.78,5.78,0,0,1-2.61.32,7.3,7.3,0,0,0-.58-1.81c.62,0,1.29,0,1.48,0s.29-.1.29-.29v-.9h-2.3v2.84h-2.07V28.1h-2.24Zm2.26-4.59V25.33h-2.24v1.09Zm-2.23-3.77V23.7h2.24V22.66Zm6.59,3.79V25.35h-2.3v1.09Zm0-3.76h-2.3v1.05h2.3Z"/><path class="cls-2" d="M153.21,16.22c0,.82-.07,1.87-.15,3,.26,2.63,1.43,10,8.21,13a6.2,6.2,0,0,0-1.7,2A15.08,15.08,0,0,1,152,25a15.88,15.88,0,0,1-7.21,9.31,7.44,7.44,0,0,0-1.92-1.9c7.93-4.2,7.59-12.93,7.68-16.22Z"/><path class="cls-2" d="M173.94,26.91c-.7.19-1.39.42-2.11.64l0,6.94h-2.12l0-6.29c-1.05.31-2,.62-2.93.85l-.56-2.2c1-.21,2.16-.52,3.49-.88V22.22h-1.31a17.53,17.53,0,0,1-.73,2.49,16.88,16.88,0,0,0-1.63-1.08,24.31,24.31,0,0,0,1.13-6.27l1.93.34c-.08.78-.18,1.54-.3,2.32h.92V16.28h2.12V20h1.62v2.2h-1.62v3.14l1.79-.5Zm10.51-7.58s0,.78,0,1.05c-.4,8.69-.77,11.86-1.51,12.84a2.14,2.14,0,0,1-1.52,1,11.14,11.14,0,0,1-2.2,0,6.46,6.46,0,0,0-.63-2.26,15.88,15.88,0,0,0,1.73.08.81.81,0,0,0,.72-.37c.49-.62.85-3.27,1.19-10.26h-.1c-1,4.91-3,10-6.15,12.55a8.63,8.63,0,0,0-1.88-1.35c3.13-2.23,5.09-6.65,6.08-11.2h-.92c-.87,3.17-2.52,6.66-4.49,8.52A8.17,8.17,0,0,0,173,28.66c1.94-1.51,3.47-4.39,4.33-7.21h-1a14.48,14.48,0,0,1-2,3.48,13.12,13.12,0,0,0-1.75-1.31,16.12,16.12,0,0,0,3.22-7.33l2.1.4c-.2.9-.46,1.77-.73,2.63Z"/><path class="cls-2" d="M198.63,26l0,8.57h-2.26l0-8.57h-2.28c-.11,3.18-.65,6.33-3,8.72a8.86,8.86,0,0,0-1.69-1.61c1.88-2,2.38-4.51,2.5-7.12h-2.24V23.82H192l0-4.19h-1.91V17.46l10.19,0v2.16h-1.62l0,4.19h1.87V26Zm-2.25-2.15,0-4.19h-2.26l0,4.19ZM208,28a17.42,17.42,0,0,1-7.08,6.52,8.63,8.63,0,0,0-1.61-1.9,13.94,13.94,0,0,0,6.49-5.49Zm-.68-10.47a19.86,19.86,0,0,1-5.61,4.77A7.69,7.69,0,0,0,200,20.7a14.7,14.7,0,0,0,5-4Zm.29,5.32a20.78,20.78,0,0,1-5.67,5,9.71,9.71,0,0,0-1.61-1.62A15.81,15.81,0,0,0,205.45,22Z"/><path class="cls-2" d="M223.78,23.16c-.1.15-.2.33-.31.49a20,20,0,0,0,7.82,4.76,6.68,6.68,0,0,0-1.45,1.92c-.7-.31-1.34-.63-2-1l0,5.3h-2.38v-.53l-6.66,0v.55h-2.26l0-5.09c-.68.35-1.37.66-2.09.95A8.61,8.61,0,0,0,213,28.64c3.61-1.21,7-3.38,8.75-6.34Zm-7.64-1h-2.26l0-4.19,7.17,0c-.17-.43-.37-.88-.56-1.25l2.46-.52a14.65,14.65,0,0,1,.81,1.78l6.74,0,0,4.19h-2.38V20.14l-12,0Zm4.7-1a16.1,16.1,0,0,1-5,4.38,21.7,21.7,0,0,0-1.55-1.8,11.56,11.56,0,0,0,4.4-3.32Zm4.62,10.87V30l-6.66,0v2.07Zm.05-4.11a19.43,19.43,0,0,1-3.26-2.76,17.73,17.73,0,0,1-3,2.74ZM225,20.56a27.59,27.59,0,0,1,4.86,3.54l-1.7,1.47a28.17,28.17,0,0,0-4.76-3.72Z"/><path class="cls-2" d="M252.75,19.08l-.06,15.65h-2.47v-1l-9.25,0v1H238.6L238.66,19l5,0a22,22,0,0,0,.54-2.55l2.8.32c-.29.78-.61,1.54-.92,2.24Zm-2.52,12.54v-2l-9.25,0v2ZM241,25.41v2l9.25,0v-2Zm0-4.15v2l9.25,0v-2Z"/><path class="cls-2" d="M273.12,32.17c1.95,0,2.22-.48,2.49-3.28a8.89,8.89,0,0,0,2.35.89c-.44,3.72-1.3,4.73-4.79,4.72l-6.31,0c-3.64,0-4.83-.72-4.82-3.51l0-7,11.11,0V20.13l-11.34,0V17.71l13.81.05,0,9.63h-2.47V26.27l-8.69,0,0,4.7c0,1,.35,1.21,2.43,1.22Z"/><path class="cls-1" d="M114.35,49.37,121.86,86c1,4.86,4.64,4.73,5.54-.19l6.72-36.61c.67-3.65-.76-7.46-2.79-7.46H117.1C115,41.72,113.59,45.69,114.35,49.37Z"/></g></g></svg>