<svg xmlns="http://www.w3.org/2000/svg" viewBox="0 0 27.49 62.22"><defs><style>.cls-1{fill:none;stroke:#ffcd32;stroke-miterlimit:10;stroke-width:1.1px;stroke-dasharray:0.97;}</style></defs><title>Asset 23 1</title><g id="Layer_2" data-name="Layer 2"><g id="頂部小人"><path class="cls-1" d="M11.68,2.34C13,.18,15.21.21,16.5,2.42l5.94,10.16c1.29,2.21.25,4-2.3,4H7.36c-2.55,0-3.53-1.77-2.17-3.93Z"/><path class="cls-1" d="M5.32,20A2.46,2.46,0,0,0,3,21.88l-2.44,11A1.89,1.89,0,0,0,2,35.13H2A1.88,1.88,0,0,0,4.26,33.7l1.77-8a1.76,1.76,0,0,1,2.11-1.4,2,2,0,0,1,1.34,2.28L7.86,35.06a23.7,23.7,0,0,0-.36,3.73V55.9a1.82,1.82,0,0,1-1.75,1.88A1.82,1.82,0,0,0,4,59.66v.13a1.89,1.89,0,0,0,1.88,1.88H9.51a1.89,1.89,0,0,0,1.88-1.88v-18a1.89,1.89,0,0,1,1.88-1.88h.91a1.89,1.89,0,0,1,1.88,1.88v18a1.89,1.89,0,0,0,1.88,1.88h3.63a1.89,1.89,0,0,0,1.88-1.88v-.13a1.82,1.82,0,0,0-1.75-1.88,1.82,1.82,0,0,1-1.75-1.88V38.78a24.19,24.19,0,0,0-.35-3.73L18,26.62a2.06,2.06,0,0,1,1.3-2.34,1.65,1.65,0,0,1,2.05,1.34l1.78,8a2,2,0,0,0,2.25,1.48l.09,0a1.81,1.81,0,0,0,1.43-2.19l-2.49-11A2.47,2.47,0,0,0,22.11,20Z"/><path class="cls-1" d="M26.1,6.4a.62.62,0,0,1-.7.83c-1.67-.36-4.72-1.09-5.56-1.8a2.77,2.77,0,1,1,3.58-4.22C24.26,1.91,25.48,4.81,26.1,6.4Z"/></g></g></svg>