<svg xmlns="http://www.w3.org/2000/svg" viewBox="0 0 795.45 350.54"><defs><style>.cls-1{fill:#006464;stroke:#3c9195;stroke-width:5.73px;}.cls-1,.cls-4,.cls-5,.cls-6{stroke-linecap:round;}.cls-1,.cls-5,.cls-6{stroke-linejoin:round;}.cls-2{fill:#0f9bff;}.cls-3{fill:#ffcd32;}.cls-4,.cls-5,.cls-6{fill:none;stroke:#006464;}.cls-4,.cls-6{stroke-width:2.19px;}.cls-5{stroke-width:1.82px;}.cls-7{fill:#004864;}.cls-8{fill:#6bffba;}</style></defs><title>資產 6</title><g id="圖層_2" data-name="圖層 2"><g id="底"><polygon class="cls-1" points="331.8 219.45 301.99 281.19 301.99 125.2 331.8 63.46 331.8 219.45"/><polygon class="cls-1" points="319.81 216.6 301.99 253.51 301.99 125.2 319.81 88.29 319.81 216.6"/><path class="cls-2" d="M364.49,231.77s73.1-49,115.42-40.93c47.1,9,38.8,23.67,97.6,38.66,84.25,21.47,141.13-29,141.13-29L758.42,123S683,192.32,605.1,178.91c-51.52-8.86-46.7-18.61-88.37-41.48-57.1-31.35-114.78,20.09-114.78,20.09Z"/><path class="cls-2" d="M724,191.45l8.41-3.45a1.55,1.55,0,0,0,.32-2.69l-7.6-5.5a1.55,1.55,0,0,0-2.45,1.11l-.81,8.95a1.55,1.55,0,0,0,2.13,1.58Z"/><path class="cls-2" d="M747.07,154.6l4.64-7.81a1.55,1.55,0,0,0-1.36-2.34l-9.38.18a1.55,1.55,0,0,0-1.29,2.36l4.74,7.63a1.55,1.55,0,0,0,2.65,0Z"/><path class="cls-2" d="M770.17,135.78l7.48.18a1.27,1.27,0,0,0,1.13-1.92l-3.91-6.66a1.27,1.27,0,0,0-2.21,0l-3.57,6.56a1.27,1.27,0,0,0,1.08,1.84Z"/><path class="cls-2" d="M790.49,148.64l3.89-1.59a.72.72,0,0,0,.15-1.24L791,143.27a.72.72,0,0,0-1.13.52l-.4,4.15a.72.72,0,0,0,1,.7Z"/><path class="cls-2" d="M790.22,107.75l.27,4.19a.72.72,0,0,0,1.13.54l3.53-2.51a.72.72,0,0,0-.13-1.24l-3.8-1.68a.72.72,0,0,0-1,.7Z"/><path class="cls-2" d="M757.4,125.73l3.89-1.59a.72.72,0,0,0,.15-1.24l-3.51-2.54a.72.72,0,0,0-1.13.52l-.37,4.14a.72.72,0,0,0,1,.71Z"/><path class="cls-2" d="M746.49,163.75,757,169.83a2.07,2.07,0,0,0,3.11-1.86l-.4-12.56a2.07,2.07,0,0,0-3.19-1.68l-10.06,6.47a2.07,2.07,0,0,0,0,3.55Z"/><path class="cls-3" d="M398.72,182.44a7.18,7.18,0,0,0,7.16-7.16v-.49a7.18,7.18,0,0,0-7.16-7.16H321.14a13.79,13.79,0,0,0-10.75,6.19l-2.3,4a31.5,31.5,0,0,0-3.59,13.35v55.22c0,3.94,1.56,4.34,3.46.89l16.29-29.46a14.47,14.47,0,0,1,10.61-6.67l10.06-.57c3.93-.22,10.37-.41,14.3-.41h21.56a7.18,7.18,0,0,0,7.16-7.16v-.49a7.18,7.18,0,0,0-7.16-7.16H356.69c-3.94,0-7.16-2.9-7.16-6.44s3.22-6.44,7.16-6.44h42Z"/><path class="cls-3" d="M335.57,106c5-8,13-7.85,17.77.29l21.9,37.48c4.76,8.14.93,14.8-8.49,14.8H319.63c-9.43,0-13-6.53-8-14.5Z"/><path class="cls-4" d="M349.49,123.62a12.73,12.73,0,0,1,7.29,1.81"/><path class="cls-4" d="M337.29,123.62a12.73,12.73,0,0,0-7.29,1.81"/><polyline class="cls-5" points="336.35 152.08 343.83 147.7 351.43 152.08"/><path class="cls-5" d="M354.63,151.26s-3.92,2.82-10.74,2.82a22,22,0,0,1-10.74-2.82"/><path class="cls-4" d="M350.6,130.76c.54-.17,2.73-1.22,6.2,1"/><path class="cls-4" d="M336.38,130.76c-.59-.34-2.73-1.22-6.2,1"/><line class="cls-4" x1="356.8" y1="131.74" x2="358.85" y2="130.68"/><line class="cls-4" x1="330.18" y1="131.74" x2="328.13" y2="130.68"/><path class="cls-5" d="M343.79,142l-2.88-1.79a12.5,12.5,0,0,1,2.49-8.08"/><path class="cls-6" d="M358.07,120.05s-16.82-2.28-19.5-10.12c-2.19,7.66-10.21,10.57-10.21,10.57"/><path class="cls-3" d="M393.12,124.45a2.28,2.28,0,0,1-2.6,3.06c-6.16-1.32-17.43-4-20.51-6.64a10.22,10.22,0,1,1,13.11-15.68l.12.1C386.32,107.94,390.81,118.59,393.12,124.45Z"/><polygon class="cls-7" points="692.38 350.54 295.21 350.54 332.11 288.54 729.28 288.54 692.38 350.54"/><path class="cls-8" d="M54.39,63.54H160a54.39,54.39,0,0,1,54.39,54.39h0A54.39,54.39,0,0,1,160,172.32H54.39A54.39,54.39,0,0,1,0,117.93H0A54.39,54.39,0,0,1,54.39,63.54Z"/><path class="cls-7" d="M60,89.42a12.63,12.63,0,0,1-.12,1.79c-.44,8.27-1,11.78-2.07,13A3.87,3.87,0,0,1,55,105.72a26,26,0,0,1-4.53.12,11.32,11.32,0,0,0-1.27-4.37c1.51.16,2.86.2,3.54.2a1.52,1.52,0,0,0,1.27-.48c.56-.64,1-2.67,1.27-7.6H50.87c-1.07,6.29-3.58,10.54-8.11,13.29a23,23,0,0,0-3.38-3.1c4.06-2,6.13-5.37,7-10.18H40.89V89.38H60ZM42,107.84H58.93v16.1H54.36v-1.47h-8v2H42V107.84Zm4.38,4.3v6h8v-6ZM77,91.53c-1.43,3.86-3.22,8.31-4.89,11.7,3.46,3.46,4.18,6.64,4.18,9.23,0,3-.72,4.89-2.31,6a5.74,5.74,0,0,1-2.82,1,18.26,18.26,0,0,1-3.34.08,11.8,11.8,0,0,0-1.23-4.73,18.26,18.26,0,0,0,2.39.12,3,3,0,0,0,1.59-.44c.72-.36,1-1.23,1-2.62,0-2.15-1-5-4.22-8.08,1.19-2.79,2.51-6.84,3.5-9.87H66.19v30.55H61.62v-35H72.79l.76-.16Z"/><path class="cls-7" d="M121.84,112.25a18.13,18.13,0,0,1-5.33,6.48,39,39,0,0,0,8.43,1.75,16.14,16.14,0,0,0-2.67,3.9,34.78,34.78,0,0,1-10.3-3,40.55,40.55,0,0,1-11.18,3.14,15.39,15.39,0,0,0-2-3.62,39.91,39.91,0,0,0,9-1.95,30.11,30.11,0,0,1-2.71-2.35c-.84.52-1.63,1-2.43,1.39a23,23,0,0,0-2.16-2v.28c-4.14,1.43-8.63,2.94-12.21,4.14l-1-4.34c1.27-.36,2.78-.8,4.46-1.31v-9.63H88.16v-4.14h3.58V93.7H87.88V89.52H100V93.7H96v7.24h3.26v4.14H96v8.23l3.7-1.19.48,2.63a25.09,25.09,0,0,0,2.31-1.19,18.82,18.82,0,0,1-1.91-3.14l3.78-1.11a19.26,19.26,0,0,0,1.31,2.15,18.11,18.11,0,0,0,2.74-2.78c-1-.6-1.31-1.71-1.31-3.62V102.2h3.5a13.76,13.76,0,0,0-1.47-.83l1.19-1.11h-5.81v2.39l2.51,1a11.63,11.63,0,0,1-4.06,6l-2.9-2.23a9.66,9.66,0,0,0,3.54-4.42h-3V96.67h3.3a14.64,14.64,0,0,0-1.35-2.74l2.63-1c-1.27.08-2.55.16-3.74.2a13.45,13.45,0,0,0-1.11-3.22c7.12-.4,15.28-1.19,19.93-2.43l3.22,3a79.39,79.39,0,0,1-10.7,1.83,12,12,0,0,1,1.55,4.06l-1.15.36h3.38a32.07,32.07,0,0,0,2-5.05L122.86,93c-.76,1.31-1.55,2.63-2.31,3.78h3.7v6.21h-2.86a21.82,21.82,0,0,1,3.5,4.54l-3.22,1.91a17.94,17.94,0,0,0-2.23-3.34c-.52,2.43-1.51,3.14-3.78,3.14H111.6a10.09,10.09,0,0,1-1.63-.08l2.52.83a10.76,10.76,0,0,1-.87,1.11h6.68l.72-.16Zm-9.47-20c-2.11.24-4.22.4-6.29.56a11.6,11.6,0,0,1,1.75,3.62l-.48.2h3.14a17.07,17.07,0,0,0-1.27-3.42Zm-4.06,22a19.29,19.29,0,0,0,4,2.67,14.49,14.49,0,0,0,3.3-2.67h-7.3Zm5.57-9.43a15.13,15.13,0,0,0-3-2.47V105c0,.84.16.92,1.23.92h3.06c.76,0,1-.2,1.07-2.07a8.75,8.75,0,0,0,2.11,1c-.4-.44-.76-.84-1.15-1.23l2.9-1.67v-1.67h-6.61a14.8,14.8,0,0,1,2.82,2.19Z"/><path class="cls-7" d="M148.38,99.25a40.56,40.56,0,0,1-2.63,14.28,60.23,60.23,0,0,1,4.1,4.53l-2.78,3.62a45.28,45.28,0,0,0-3.3-4.14A27.27,27.27,0,0,1,138,124.1a13.78,13.78,0,0,0-3-2.9,24.5,24.5,0,0,0,5.85-6.84c-1.71-1.75-3.5-3.54-5-5.05.68-2.55,1.35-5.85,1.91-9.35l-2.07.12-.44-4.26,3.14-.16c.4-2.79.68-5.61.84-8.12l4,.16c-.2,2.43-.52,5.13-.87,7.8l2.07-.12V92.83h3.9v2.31l1.63-.08v4.06Zm-6.6.48c-.52,2.94-1,5.77-1.59,8.31l2.47,2.35a34.6,34.6,0,0,0,1.79-10.86Zm30.51,12.69h-3.38v2.39H163.1V120c0,2.07-.36,3.06-1.87,3.7s-3.38.6-6,.6a15.12,15.12,0,0,0-1.23-3.94,29.26,29.26,0,0,0,3.82,0c.52-.08.68-.12.68-.56v-5.05h-6.29v-2.39h-3.34v-6.8h23.42v6.84Zm0-18.1H149.18V90.5h9.31a22.51,22.51,0,0,0-1-2.19l4.34-1.19a24,24,0,0,1,1.63,3.38h8.87v3.82Zm-20.37,9.83V95.76h17.82v8.39H151.92Zm.91,5.21v1.79h15.4v-1.79Zm3.26-8.35h9.19V98.9h-9.19Z"/><path class="cls-7" d="M77.11,142.83a21.78,21.78,0,0,1-4.27,7.43,20.11,20.11,0,0,0,7.84,3.59,11.4,11.4,0,0,0-1.66,2.3,20.76,20.76,0,0,1-8.11-4.07,23,23,0,0,1-8.4,4.19A12.41,12.41,0,0,0,61,154a21.31,21.31,0,0,0,8.07-3.67,23.28,23.28,0,0,1-4.42-7.47H61.41v-2.41h8.76A15.84,15.84,0,0,0,69,137.49l2.64-.77a17.7,17.7,0,0,1,1.41,3.13l-1.78.56h9v2.41H77.11Zm-9.9,0a17.85,17.85,0,0,0,3.74,5.75,16.74,16.74,0,0,0,3.38-5.75Z"/><path class="cls-7" d="M93.49,137.78a32.07,32.07,0,0,1-2,3.94v14.59H89.15V145.12a20.83,20.83,0,0,1-2,2.2,20,20,0,0,0-1.31-2.57A21.08,21.08,0,0,0,91.19,137Zm8.18,15.88c1.06,0,1.22-.87,1.41-4.3a6.2,6.2,0,0,0,2.18,1c-.27,4-.89,5.44-3.4,5.44H98.39c-2.55,0-3.28-.83-3.28-3.65V137.29h2.38v5.27h7.22v2.38H97.49v7.26c0,1.22.15,1.43,1.14,1.43h3Z"/><path class="cls-7" d="M119.38,153.94c-2.68.71-5.54,1.39-7.74,2l-.56-2.39,3.24-.6v-5h-2.83v-2.14h2.86v-1.47h-1.74v-.89c-.27.23-.54.44-.81.64a15,15,0,0,0-1-2.41,14.62,14.62,0,0,0,4.44-4.71l2,.75a4.53,4.53,0,0,1-.33.62,26.14,26.14,0,0,1,3.13,2.82l-1.47,1.74-.27-.31v1.74h-1.81v1.47h2.74v2.14h-2.74v4.57l1.39-.29-1.29-.37a31.42,31.42,0,0,0,.77-3.49l1.81.46c-.37,1.16-.79,2.49-1.12,3.36l1.18-.25Zm-6-5.35a22.51,22.51,0,0,1,.85,3.61l-1.68.48a20.78,20.78,0,0,0-.79-3.65Zm4.61-6.41c-.64-.66-1.45-1.43-2.26-2.12a22,22,0,0,1-1.81,2.12Zm12.29,7.1a33.65,33.65,0,0,1-2.76,2,8,8,0,0,0,3.07,2.78,9.43,9.43,0,0,0-1.7,2.12c-2.78-1.7-4.32-4.9-5.23-8.82h-1.17v5.73l2.7-.71a13.63,13.63,0,0,0,.21,2.16c-4.11,1.25-4.86,1.58-5.33,1.93a6.57,6.57,0,0,0-.81-2.1,1.32,1.32,0,0,0,.85-1.33v-15.3h9.48v9.53h-3.9a16.81,16.81,0,0,0,.75,2.12,16.55,16.55,0,0,0,2.14-1.89Zm-7.7-9.36v1.62h4.69v-1.62h-4.69Zm0,5.27h4.69v-1.66h-4.78v1.66Z"/><path class="cls-7" d="M143.58,142.33a27.52,27.52,0,0,1-2.22,3.17v10.83h-2.47v-8.11c-.58.56-1.14,1.08-1.7,1.54a24.32,24.32,0,0,0-1.68-2.14,20.22,20.22,0,0,0,5.71-6.21Zm-.77-4.42a27.89,27.89,0,0,1-5.71,5.46,14.34,14.34,0,0,0-1.37-2,18.45,18.45,0,0,0,4.69-4.42Zm12.2,8.26h-2.84v7.28c0,1.33-.25,2-1.16,2.39a11.44,11.44,0,0,1-4,.42,10.22,10.22,0,0,0-.75-2.51,22.85,22.85,0,0,0,2.93,0c.38-.06.52-.08.52-.39v-7.22h-6.22V143.8H155v2.34Zm-.52-5.71H144.41v-2.34h10.08v2.34Z"/><path class="cls-8" d="M210.05,102.06H260.2a2.18,2.18,0,0,1,1.54,3.72l-50,22.72A2.18,2.18,0,0,1,208,127l-.15-22.72a2.18,2.18,0,0,1,2.17-2.19Z"/><path class="cls-8" d="M8.1,26h6l2.34-8.54h-6l1.32-4.87h6L21,.84h5.89L23.65,12.62h4.84L31.7.84h5.89L34.38,12.62h6l-1.32,4.87h-6L30.73,26h6l-1.24,4.91h-6L26.31,42.6H20.42l3.07-11.66H18.6L15.4,42.6H9.51l3.2-11.66h-6Zm16.76,0,2.33-8.54H22.33L20,26Z"/><path class="cls-8" d="M76.49,21.84Q74.21,32.31,69.7,38T57,43.62q-8.2,0-10.29-5.66t.19-16.12q2.25-10.47,6.78-16.15T66.39,0q8.2,0,10.27,5.69T76.49,21.84Zm-18.06,15q3.76,0,5.76-3.86a47.26,47.26,0,0,0,3.6-11.15q1.63-7.64,1.26-11.31T64.92,6.85a6.3,6.3,0,0,0-5.77,3.67,44.4,44.4,0,0,0-3.64,11.31Q53.91,29.12,54.3,33t4.11,3.87Z"/><path class="cls-8" d="M86.66,31.25a6.47,6.47,0,0,0,1,4.18,4.48,4.48,0,0,0,3.83,1.51,7,7,0,0,0,5.24-2.17,11,11,0,0,0,2.81-5.47,8.42,8.42,0,0,0-.34-5.47q-1-2.23-4.31-2.23a9.22,9.22,0,0,0-2.75.38,7.16,7.16,0,0,0-3.55,2.59l-7.52-.35L89.15.86h23.66l-1.54,7.06H93.74l-3.52,9.24a23,23,0,0,1,3.4-1.66,14.42,14.42,0,0,1,4.62-.67,11,11,0,0,1,8.53,3.53q3.2,3.53,1.75,10.26a20.09,20.09,0,0,1-6.07,10.47A17.27,17.27,0,0,1,90,43.7q-6.13,0-9.36-3.24t-2.4-9.18h8.41Z"/></g></g></svg>