<svg xmlns="http://www.w3.org/2000/svg" viewBox="0 0 71.21 43.72"><defs><style>.cls-1{fill:#6bffba;}.cls-2{fill:#006464;}</style></defs><title>資產 9</title><g id="圖層_2" data-name="圖層 2"><g id="UI"><rect class="cls-1" width="71.21" height="36.13" rx="18.06" ry="18.06"/><path class="cls-1" d="M31.11,35.4V43a.72.72,0,0,0,1.24.51L39.89,36a.72.72,0,0,0-.51-1.24l-7.55,0A.72.72,0,0,0,31.11,35.4Z"/><path class="cls-2" d="M18.18,12s0,.45,0,.67c-.17,3.12-.36,4.44-.78,4.92a1.46,1.46,0,0,1-1.07.57,9.82,9.82,0,0,1-1.71,0,4.27,4.27,0,0,0-.48-1.65c.57.06,1.08.07,1.33.07a.57.57,0,0,0,.48-.18c.21-.24.36-1,.48-2.86H14.73a6.67,6.67,0,0,1-3.06,5,8.65,8.65,0,0,0-1.27-1.17A4.82,4.82,0,0,0,13,13.62H11V12ZM11.4,19h6.38V25H16v-.55H13v.75H11.4ZM13,20.6v2.28h3V20.6ZM24.6,12.83c-.54,1.46-1.21,3.13-1.84,4.41a4.7,4.7,0,0,1,1.58,3.48A2.48,2.48,0,0,1,23.46,23a2.16,2.16,0,0,1-1.07.39,6.84,6.84,0,0,1-1.26,0,4.44,4.44,0,0,0-.46-1.78,6.9,6.9,0,0,0,.9,0,1.12,1.12,0,0,0,.6-.17c.27-.14.39-.46.39-1a4.26,4.26,0,0,0-1.59-3c.45-1,.95-2.58,1.32-3.72H20.5V25.25H18.78V12H23l.29-.06Z"/><path class="cls-2" d="M41.49,20.64a6.84,6.84,0,0,1-2,2.44,14.68,14.68,0,0,0,3.18.66,6.08,6.08,0,0,0-1,1.47,13.12,13.12,0,0,1-3.89-1.12,15.29,15.29,0,0,1-4.21,1.19,5.78,5.78,0,0,0-.75-1.37,15,15,0,0,0,3.38-.73,11.31,11.31,0,0,1-1-.88c-.32.19-.62.38-.92.52a8.6,8.6,0,0,0-.83-.78l0,.1c-1.56.54-3.25,1.11-4.61,1.56l-.37-1.63,1.68-.5V17.94H28.78V16.38h1.35V13.65H28.68V12.08h4.57v1.58h-1.5v2.73H33v1.56H31.75V21l1.4-.45.18,1a9.65,9.65,0,0,0,.87-.45A7.09,7.09,0,0,1,33.48,20l1.42-.42a7.08,7.08,0,0,0,.5.81,6.81,6.81,0,0,0,1-1c-.39-.23-.49-.65-.49-1.36V16.85h1.32a5.15,5.15,0,0,0-.55-.31l.45-.42H35V17l.95.36a4.39,4.39,0,0,1-1.53,2.26l-1.09-.84a3.64,3.64,0,0,0,1.33-1.67H33.48V14.75h1.24a5.46,5.46,0,0,0-.51-1l1-.39-1.41.07a5.05,5.05,0,0,0-.42-1.21,44.63,44.63,0,0,0,7.51-.92l1.21,1.13a29.89,29.89,0,0,1-4,.69,4.56,4.56,0,0,1,.58,1.53l-.44.13h1.28a12,12,0,0,0,.73-1.9l1.64.48c-.29.5-.58,1-.87,1.42h1.39v2.38H41.31a8.23,8.23,0,0,1,1.32,1.71l-1.21.72a6.81,6.81,0,0,0-.84-1.26c-.2.92-.57,1.19-1.43,1.19H37.62c-.24,0-.44,0-.62,0l1,.33a4,4,0,0,1-.33.42h2.52l.27-.06ZM37.92,13.1c-.79.09-1.59.15-2.37.21a4.37,4.37,0,0,1,.66,1.37l-.18.07H37.2a6.42,6.42,0,0,0-.48-1.29Zm-1.53,8.31a7.29,7.29,0,0,0,1.5,1,5.45,5.45,0,0,0,1.25-1Zm2.1-3.55a5.7,5.7,0,0,0-1.12-.93v1c0,.31.06.34.46.34H39c.28,0,.36-.07.4-.78a3.32,3.32,0,0,0,.79.36l-.43-.46,1.09-.63v-.63H38.35a5.58,5.58,0,0,1,1.07.82Z"/><path class="cls-2" d="M51.49,15.74a15.28,15.28,0,0,1-1,5.38A22.6,22.6,0,0,1,52,22.83L51,24.2a16.92,16.92,0,0,0-1.25-1.56,10.28,10.28,0,0,1-2.16,2.48A5.22,5.22,0,0,0,46.47,24a9.23,9.23,0,0,0,2.2-2.58c-.64-.66-1.32-1.33-1.89-1.91.25-1,.51-2.2.72-3.52l-.78,0-.17-1.6,1.18-.06c.15-1,.25-2.11.32-3.06l1.51.06c-.08.92-.2,1.94-.33,2.94l.78,0v-1h1.47v.87l.62,0v1.53ZM49,15.92c-.19,1.11-.39,2.17-.6,3.13l.93.89A13,13,0,0,0,50,15.84Zm11.5,4.78H59.23v.9H57v2c0,.78-.13,1.15-.71,1.4a6.32,6.32,0,0,1-2.25.22,5.67,5.67,0,0,0-.46-1.48c.57,0,1.25,0,1.44,0s.25,0,.25-.21V21.6H52.95v-.9H51.69V18.14h8.82Zm0-6.82h-8.7V12.44h3.5a8.55,8.55,0,0,0-.39-.82l1.63-.45a9,9,0,0,1,.61,1.27h3.35Zm-7.68,3.71V14.42h6.72v3.17Zm.34,2v.67H59v-.67Zm1.23-3.15h3.46V15.6H54.39Z"/></g></g></svg>