<svg xmlns="http://www.w3.org/2000/svg" viewBox="0 0 71.21 43.72"><defs><style>.cls-1{fill:#6bffba;}.cls-2{fill:#006464;}</style></defs><title>Asset 13</title><g id="Layer_2" data-name="Layer 2"><g id="頂部小人"><rect class="cls-1" width="71.21" height="36.13" rx="18.06" ry="18.06"/><path class="cls-1" d="M31.11,35.4V43a.72.72,0,0,0,1.24.51L39.89,36a.72.72,0,0,0-.51-1.24l-7.55,0A.72.72,0,0,0,31.11,35.4Z"/><path class="cls-2" d="M16.15,20.36c-.27-.5-.72-1.21-1.17-1.87v6.73H13.24v-6a12.79,12.79,0,0,1-1.91,3.48A9.88,9.88,0,0,0,10.45,21,13.73,13.73,0,0,0,13,16H10.87V14.33h2.37v-3.1H15v3.1h2V16H15v.24c.45.45,1.93,2.15,2.28,2.56ZM22,16a15.66,15.66,0,0,0,2.74,5.38,7.3,7.3,0,0,0-1.33,1.38,15,15,0,0,1-1.77-3.57v6h-1.8V19.14a13.44,13.44,0,0,1-2.58,4,8.7,8.7,0,0,0-1-1.63A14.1,14.1,0,0,0,19.58,16H17.41V14.33h2.46v-3.1h1.8v3.1h2.64V16Z"/><path class="cls-2" d="M33.61,20.84c-.25-.39-.67-.92-1.09-1.44v5.83H30.76V19.71A13.42,13.42,0,0,1,29.05,21a8.91,8.91,0,0,0-.68-1.83,10.38,10.38,0,0,0,3.86-3.87H28.81v-1.6h2.63A10.25,10.25,0,0,0,30.27,12l1.38-.75A8.63,8.63,0,0,1,33,13.11l-1,.61h1.19l.31-.07.93.69a15,15,0,0,1-1.71,3.15c.6.51,1.68,1.56,2,1.86Zm9,2.29v1.65H33.45V23.13h1.5V12h6.42V23.13Zm-6-9.51v2h2.9v-2Zm2.9,3.63h-2.9v2.1h2.9Zm-2.9,5.88h2.9V21h-2.9Z"/><path class="cls-2" d="M51.16,11.75a23.8,23.8,0,0,1-1.38,3V25.22H48.1v-7.8a12.23,12.23,0,0,1-.87,1,13.82,13.82,0,0,0-.88-1.75,15.78,15.78,0,0,0,3.24-5.44Zm9,9.63a9,9,0,0,1-1.68,1.8c.24.39.51.62.8.62s.33-.27.39-1a3,3,0,0,0,1.11.66c-.21,1.46-.63,1.81-1.62,1.83a2.25,2.25,0,0,1-1.87-1.19,13.32,13.32,0,0,1-1.74,1,8.54,8.54,0,0,0-1-1.12,12.22,12.22,0,0,0,2.13-1.06,11.22,11.22,0,0,1-.51-2H54v.61l1.59-.15,0,1.23L54,22.71v1c0,.71-.13,1-.6,1.23a5.33,5.33,0,0,1-2,.21A4.59,4.59,0,0,0,51,23.91a12,12,0,0,0,1.24,0c.18,0,.24-.06.24-.23v-.82l-2.16.22-.12-1.3c.65,0,1.43-.12,2.28-.19v-.77H50.32v-1.2H52.5V19c-.6.06-1.21.1-1.77.12a5,5,0,0,0-.36-1,24,24,0,0,0,4.29-.63l.88,1c-.45.12-1,.23-1.5.31v.85h2c-.06-.64-.12-1.32-.13-2h1.56c0,.71,0,1.4.1,2h1.65a9,9,0,0,0-1.6-1.41l1-.77a11.84,11.84,0,0,1,1.68,1.37l-1.09.81h1.44v1.2H57.7c.08.38.15.72.24,1a6.49,6.49,0,0,0,.85-1Zm-7.39-8.74a10.15,10.15,0,0,0-.62-.93l1.41-.49a6.42,6.42,0,0,1,1,1.42h1.89a9.5,9.5,0,0,0,.75-1.44l1.74.46c-.26.36-.51.69-.75,1H60.1v1.15H56.28v.56H59.6v1.13H56.28v.6h4.24v1.22H50.46V16.07h4.08v-.6H51.37V14.34h3.17v-.56H50.87V12.63Z"/></g></g></svg>