<svg xmlns="http://www.w3.org/2000/svg" viewBox="0 0 293.89 89.55"><defs><style>.cls-1{fill:#6bffba;}.cls-2{fill:#00364b;}</style></defs><title>Asset 4</title><g id="Layer_2" data-name="Layer 2"><g id="對話框"><rect class="cls-1" width="293.89" height="49.48" rx="24.74" ry="24.74"/><path class="cls-2" d="M43.81,18.48V20.7l-10.42,0a22.44,22.44,0,0,1-2.29,3.83l0,9.43H28.69l0-6.78A14.58,14.58,0,0,1,27,28.49a16.22,16.22,0,0,0-1.14-2.25,14.75,14.75,0,0,0,4.87-5.59l-4.23,0V18.42l5.26,0c.33-.92.63-1.81.87-2.71l2.43.59c-.22.72-.47,1.42-.75,2.12ZM39.08,31.34l4.62,0V33.5L32,33.46V31.32l4.72,0,0-4.44h-4V24.73h4V21.51h2.34v3.23H43v2.14H39.1Z"/><path class="cls-2" d="M66.73,16.52l-.07,17.54h-2.2v-.92l-12.06,0v1H50.32l.07-17.58ZM64.47,31.38l0-13.11-12.06,0,0,13.11Zm-.42-2.79H61.54v1.25c0,.74-.16,1-.71,1.15a9.64,9.64,0,0,1-2.38.15A5.07,5.07,0,0,0,58,30c.54,0,1.19,0,1.36,0s.27-.06.27-.23V28.57H56.18a8.21,8.21,0,0,1,1.3,1.58l-1.54.75a9,9,0,0,0-1.34-1.76l1.23-.58h-3V27.3l6.82,0v-.57h1.91v.57h1a7.45,7.45,0,0,0-.56-.66c-3.21.1-6.43.19-8.81.22l-.07-1.23,4.35,0V25H53.62V21H57.5v-.58l-4.4,0V19.22l4.4,0v-.72H59.4v.72l4.44,0V20.5l-4.44,0v.58H63.3v4h-1a11.25,11.25,0,0,1,1.61,1.53l-1,.76h1.17Zm-6.57-4.53V23.5h-2.1v.57Zm-2.1-1.49h2.1V22h-2.1Zm4,3.09h1.56l-.21-.18.67-.45h-2Zm2.07-2.16H59.38v.57h2.07ZM59.38,22v.56h2.07V22Z"/><path class="cls-2" d="M79.68,17.54c-.51,1.65-1.18,3.78-1.71,5.29a6.07,6.07,0,0,1,1.41,3.92c0,1.27-.26,2.06-.89,2.49a2.39,2.39,0,0,1-1.11.42,8.59,8.59,0,0,1-1.25,0,4.84,4.84,0,0,0-.5-2c.35,0,.62,0,.84,0a1,1,0,0,0,.55-.17c.23-.17.31-.56.32-1.09A5.22,5.22,0,0,0,76,23.06c.39-1.21.79-2.92,1.13-4.24H75.61l-.06,15.3h-2l.06-17.36,4.23,0,.33-.1Zm11.07,5.61a24,24,0,0,1-2.3,1.42A16.08,16.08,0,0,0,91.37,30a7.41,7.41,0,0,0-1.47,1.46,19.86,19.86,0,0,1-3.08-6l-.08,0c.92,3.1.48,6.35-.61,7.42a2.65,2.65,0,0,1-2.28,1c-.41,0-1,0-1.58,0a4.89,4.89,0,0,0-.54-2.07,15,15,0,0,0,1.71.1,1,1,0,0,0,1-.54,4.21,4.21,0,0,0,.61-2.51,20.18,20.18,0,0,1-4.9,2.75A7.67,7.67,0,0,0,78.84,30a15.35,15.35,0,0,0,6.07-3.31c-.08-.31-.15-.66-.27-1A22,22,0,0,1,80.85,28a7,7,0,0,0-1.22-1.64A16,16,0,0,0,84,24,8.65,8.65,0,0,0,83.33,23a19.4,19.4,0,0,1-3.14,1.82,14.16,14.16,0,0,0-1.34-1.62,15.37,15.37,0,0,0,4-2.17H79.48V19h3.08a12.48,12.48,0,0,0-1.84-2l1.7-1a10.48,10.48,0,0,1,2.31,2.35l-.94.66h1.75a19.18,19.18,0,0,0,1.79-3l2.22.63c-.53.86-1.12,1.69-1.65,2.39h2.9v2l-5.18,0a10.75,10.75,0,0,1-.82.78,8,8,0,0,1,1.3,2,26.39,26.39,0,0,0,3.22-2.19Z"/><path class="cls-2" d="M101.05,24.93a13.06,13.06,0,0,0,1.35-1.86l1.36,1.27c-.62.56-1.21,1.14-1.7,1.61l1.36,1.47-1.21,1.81A25.92,25.92,0,0,0,100.69,27l0,7.15H98.58l0-7A14.52,14.52,0,0,1,96.77,29a9.94,9.94,0,0,0-1-2.3,15.5,15.5,0,0,0,4.44-5.34H96.41V19.28h3.1a26,26,0,0,0-1.43-2.38l1.66-1a20.43,20.43,0,0,1,1.63,2.46l-1.33.93h1.36l.37-.1,1.15.94a22.18,22.18,0,0,1-2.22,4.34v.12Zm13.15,6.85v2l-11.09,0v-2l4.33,0v-2h-3.58v-2h3.58V26.22h-3.7l0-9.29,9.72,0,0,9.29h-3.86v1.52h4v2h-4v2Zm-6.73-7.51V22.46h-1.64v1.81Zm-1.62-3.63h1.64V18.87h-1.64Zm5.47,1.83h-1.68v1.81h1.68Zm0-3.58h-1.68v1.77h1.68Z"/><path class="cls-2" d="M126.2,26.64c-.62.17-1.25.31-1.89.46l0,4.58c0,1.13-.2,1.69-.87,2a6.22,6.22,0,0,1-3,.42,7.76,7.76,0,0,0-.63-2.11c.78,0,1.58,0,1.83,0s.37-.1.37-.37v-4l-2,.5-.59-2.22c.76-.13,1.64-.32,2.61-.54V21.93h-2.36V19.78h2.36v-3.7h2.26v3.7h1.71v2.14h-1.71v2.94c.55-.12,1.07-.25,1.62-.38ZM134.73,17A11.36,11.36,0,0,0,138,23.41a10.17,10.17,0,0,0-1.68,1.34l0,.21c-.23,5.38-.48,7.5-1,8.18a2,2,0,0,1-1.41.83,15,15,0,0,1-2.2.05,5.44,5.44,0,0,0-.6-2.11c.68.06,1.29.08,1.6.08a.68.68,0,0,0,.62-.27c.31-.39.51-1.85.7-5.57H131.6c-.46,3.86-1.62,6.54-4.26,8.23a11.19,11.19,0,0,0-1.59-1.76c2.25-1.26,3.21-3.44,3.51-6.47h-1.62v-1.5c-.14.16-.25.29-.39.43a12.11,12.11,0,0,0-1.73-1.53,12,12,0,0,0,3.06-6l2.22.44a17.9,17.9,0,0,1-2.65,6l7,0a14.68,14.68,0,0,1-2.24-5H131.1V17Z"/><path class="cls-2" d="M145.91,25.15a27,27,0,0,0-3.07-1.8L144,21.64a24.11,24.11,0,0,1,3.11,1.61ZM148,27.83c-.79,2-1.75,4.2-2.67,6.07l-2-1.41a58.62,58.62,0,0,0,2.91-6.07Zm9.19,2.84a34.77,34.77,0,0,1,3.69,2.25L159,34.3a33.09,33.09,0,0,0-4.08-2.68l1.35-1-4.81,0,2.14.87a19.41,19.41,0,0,1-4.86,2.73,16.08,16.08,0,0,0-1.75-1.7,14.18,14.18,0,0,0,4.39-1.89h-2.57l0-7.07,4.27,0v-1h-3.43V21.31h-1.5V18.4L147,20a22.14,22.14,0,0,0-3-1.9l1.29-1.67A22.1,22.1,0,0,1,148.19,18v-.33l4.71,0a11.52,11.52,0,0,0-.48-1.33l2.36-.36a10.8,10.8,0,0,1,.71,1.7l5,0v3.58H158.9v1.31h-3.58v1l4.46,0,0,7.07ZM150.31,19.6v1.19l8,0V19.63Zm.55,9.34h2.22v-1h-2.22Zm0-2.61h2.22V25.28h-2.22Zm6.74,1.62h-2.32v1h2.32Zm-2.31-2.66v1.05h2.32V25.29Z"/><path class="cls-2" d="M184,19.31s0,.78,0,1.05c-.29,8.71-.51,11.81-1.31,12.84a2.6,2.6,0,0,1-1.87,1.06,21.87,21.87,0,0,1-3.06,0A5.46,5.46,0,0,0,177,32c1.25.12,2.4.13,2.9.13a1,1,0,0,0,.86-.33c.57-.62.83-3.54,1.07-10.42h-4.17A16.82,16.82,0,0,1,176,24.47a14.44,14.44,0,0,0-1.5-1.1l0,9.1-5.2,0v1.42h-2.1l.05-14.48h2.2a20.75,20.75,0,0,0,.58-3.13l2.53.36c-.34,1-.69,1.95-1,2.78h3v3.16a20.18,20.18,0,0,0,2.65-6.26l2.2.51a22.57,22.57,0,0,1-.77,2.47Zm-11.71,11.1V26.6h-3.1V30.4Zm0-9h-3.1v3.16h3.1Zm6.44,8a41.38,41.38,0,0,0-2.69-4.51l1.82-1a47.17,47.17,0,0,1,2.85,4.33Z"/><path class="cls-2" d="M206.29,32c0,1.27-.32,1.89-1.22,2.26a12.82,12.82,0,0,1-4.17.37,9,9,0,0,0-.87-2.24c1.36.08,3,.07,3.39.07s.57-.13.57-.5V30.4l-9.74,0a8.07,8.07,0,0,1-3.05,4.28A8.62,8.62,0,0,0,189.56,33c2.79-2,3.08-4.82,3.08-7.18v-2.9c-.33.29-.68.56-1,.83a7.11,7.11,0,0,0-1.63-1.7,15,15,0,0,0,5.09-5.79l2.47.44c-.12.23-.26.49-.39.72H201l.37-.1,1.58,1a25.29,25.29,0,0,1-1.59,2.41l4.95,0Zm-11.42-5.46a14.92,14.92,0,0,1-.16,1.85h3.51V26.54Zm1.1-7.21c-.35.49-.72,1-1.14,1.46h4c.31-.45.65-1,.92-1.46Zm-1.07,5.26h3.33V22.81H194.9Zm9.1,3.83V26.56h-3.58V28.4Zm0-5.57h-3.58V24.6H204Z"/><path class="cls-2" d="M226.63,32.21c1.87,0,2.17-.42,2.43-2.84a8.23,8.23,0,0,0,2.18.83c-.42,3.19-1.22,4.13-4.5,4.11l-6.66,0c-3.62,0-4.73-.72-4.72-3.51l0-7.09c-.39.31-.78.58-1.15.85A12.12,12.12,0,0,0,213,22.32a17,17,0,0,0,6-6l2.1.81-.49.84,4.48,0,.45-.12L227,19a24.71,24.71,0,0,1-2.41,2.89l4.75,0,0,7.33H227v-.66l-9.43,0v2.3c0,1.19.33,1.39,2.45,1.39ZM219.09,20a24.55,24.55,0,0,1-1.64,1.83l4.36,0A14.94,14.94,0,0,0,223.46,20Zm-1.48,6.29h3.62V24h-3.62ZM227,24H223.5v2.32H227Z"/><path class="cls-2" d="M246.91,32.23c.51,0,1,.06,1.56.06,1.09,0,4.83,0,6.22,0a7.89,7.89,0,0,0-.79,2.22l-5.55,0c-3.57,0-6-.53-7.61-2.8A8.77,8.77,0,0,1,238,34.75a9.38,9.38,0,0,0-1.75-1.62,8.23,8.23,0,0,0,3.65-5.89l2.32.36c-.14.62-.3,1.21-.46,1.77a4.29,4.29,0,0,0,2.8,2.45l0-4.95-7.6,0v-2l17.19.06v2l-7.23,0v1.46l6,0v2l-6,0ZM252.32,24l-13.54,0,0-6.76,13.54,0ZM250,21.35l-8.92,0v1l8.92,0Zm0-2.51-8.92,0v1l8.92,0Z"/><path class="cls-2" d="M268.13,22.47c0-1.17-.93-1.83-2.45-1.84a4,4,0,0,0-3.12,1.53L261,20.67a6.48,6.48,0,0,1,5-2.36c2.83,0,4.89,1.32,4.88,3.92,0,2.86-4.26,3.18-4,5.89h-2.51C264,25,268.12,24.36,268.13,22.47Zm-2.48,7a1.92,1.92,0,1,1-2,1.9A1.9,1.9,0,0,1,265.65,29.46Z"/><path class="cls-1" d="M89.9,49.37,97.41,86c1,4.86,4.64,4.73,5.54-.19l6.72-36.61c.67-3.65-.76-7.46-2.79-7.46H92.65C90.57,41.72,89.14,45.69,89.9,49.37Z"/></g></g></svg>