<svg xmlns="http://www.w3.org/2000/svg" viewBox="0 0 71.21 43.72"><defs><style>.cls-1{fill:#6bffba;}.cls-2{fill:#006464;}</style></defs><title>Asset 15</title><g id="Layer_2" data-name="Layer 2"><g id="頂部小人"><rect class="cls-1" width="71.21" height="36.13" rx="18.06" ry="18.06"/><path class="cls-1" d="M31.11,35.4V43a.72.72,0,0,0,1.24.51L39.89,36a.72.72,0,0,0-.51-1.24l-7.55,0A.72.72,0,0,0,31.11,35.4Z"/><path class="cls-2" d="M21.88,20.34a8.29,8.29,0,0,0,2.89,2.75,6.28,6.28,0,0,0-1.17,1.4,9.14,9.14,0,0,1-2.74-3.15v3.9H19.12V21.36a9.41,9.41,0,0,1-3.3,3.23,7,7,0,0,0-1.18-1.41A8.39,8.39,0,0,0,18,20.34H16.24V15h2.88V14.1H15.72v-1c-.36,1.17-.76,2.5-1.12,3.49a4.62,4.62,0,0,1,1.1,3A2.2,2.2,0,0,1,15,21.48a2.15,2.15,0,0,1-.87.31,6.35,6.35,0,0,1-1,0,3.79,3.79,0,0,0-.39-1.51h.66a.78.78,0,0,0,.42-.13c.17-.12.22-.42.22-.84a4,4,0,0,0-1-2.62c.3-.94.62-2.25.86-3.27H12.76V25.23H11.22V11.87h3.25l.25-.07,1.17.67,0,.13h3.27V11.24h1.74V12.6h3.51v1.5H20.86V15h3v5.31ZM17.8,17.1h1.32v-.81H17.8Zm0,2h1.32v-.81H17.8Zm3.06-2.79v.81h1.36v-.81Zm1.36,2H20.86v.81h1.36Z"/><path class="cls-2" d="M39.45,20.3a10.27,10.27,0,0,0,3.21,1.44A6.84,6.84,0,0,0,41.59,23a10.16,10.16,0,0,1-2.08-1A11,11,0,0,1,40.81,24l-1.47.72a13.66,13.66,0,0,0-2-2.9l1.06-.51a10.35,10.35,0,0,1-1-1H33.72a9.56,9.56,0,0,1-1.33,1.23l1.19.48a7,7,0,0,1-1,1.81c.51,0,1.07,0,1.23,0s.22,0,.22-.19v-3h1.59v1.56l1.11-.39a9.7,9.7,0,0,1,1.09,2.37l-1.35.47a9.54,9.54,0,0,0-.86-2.18v1.26c0,.72-.12,1.08-.61,1.32a4.83,4.83,0,0,1-2,.23,5.53,5.53,0,0,0-.47-1.38,4.48,4.48,0,0,1-1.09,1l-1.23-1a4.5,4.5,0,0,0,1.86-2.07A12.5,12.5,0,0,1,29.67,23a4.47,4.47,0,0,0-1.11-1.26,9.47,9.47,0,0,0,2.86-1.46H28.89V18.9h3.9a5.12,5.12,0,0,0,.33-.54h-2.5V14h10v4.35H35c-.11.18-.2.36-.29.54h7.6v1.4Zm-7.28-7H29V11.93h3.19v-.71h1.74v.71h1.51v1.38H33.91v.48H32.17Zm.08,2.37h6.67v-.6H32.25Zm0,1.6h6.67v-.6H32.25Zm5.08-4H35.88V11.93h1.46v-.71h1.75v.71h3.2v1.38h-3.2v.48H37.33Z"/><path class="cls-2" d="M54.88,18.56a8.47,8.47,0,0,0,5.89,4.9,6.4,6.4,0,0,0-1.23,1.66A9.61,9.61,0,0,1,53.65,20c-.83,2-2.52,3.88-5.89,5.15a6.88,6.88,0,0,0-1.17-1.54c3.46-1.23,4.93-3.17,5.55-5.07h-5V16.73h5.4c0-.4,0-.78,0-1.15V14.06H47.65V12.23H59.53v1.83h-5.1V15.6c0,.36,0,.73,0,1.12h5.71v1.83Z"/></g></g></svg>