<svg xmlns="http://www.w3.org/2000/svg" viewBox="0 0 210.33 83.18"><defs><style>.cls-1{fill:#6bffba;}.cls-2{fill:#00364b;}</style></defs><title>Asset 21</title><g id="Layer_2" data-name="Layer 2"><g id="對話框"><rect class="cls-1" width="210.33" height="49.48" rx="24.74" ry="24.74"/><path class="cls-2" d="M50.38,26.16A11.86,11.86,0,0,1,48,30.65,10.91,10.91,0,0,0,51.3,32a7.68,7.68,0,0,0-1.37,1.79,10.69,10.69,0,0,1-3.5-1.73A12.85,12.85,0,0,1,43,33.94a8.5,8.5,0,0,0-1.14-1.72V34H39.7V32.27c-2.26.24-4.52.45-6.28.64l-.17-2,1.7-.13,0-5.9H33.45V23.05l17.3.06v1.83l-8.87,0,0,7.17a9.72,9.72,0,0,0,2.95-1.47,11.88,11.88,0,0,1-1.86-3l.7-.19H42.49V25.66l6.08,0,.37-.08ZM38,22.47H35.74l0-6.1,12.8,0,0,6.1H46.21l0-4.5L38,18ZM37,30.61c.86-.08,1.79-.15,2.69-.24v-.68H37Zm0-2.53h2.69v-.78H37Zm0-3.18v.8h2.69v-.8ZM45.5,20l-6.92,0V18.67l6.92,0ZM38.59,22.1V20.75l6.9,0v1.34ZM45,27.44a7.56,7.56,0,0,0,1.32,1.84,7.32,7.32,0,0,0,1.27-1.83Z"/><path class="cls-2" d="M63.58,23.67l0,9.82h-2.2l0-9.82H59.76V24c0,2.86-.3,7.21-1.83,9.85a8.25,8.25,0,0,0-1.65-1.56C57.5,30,57.61,26.55,57.62,24l0-6.24a24.07,24.07,0,0,0,5.87-1.91l1.79,1.66a31,31,0,0,1-5.52,1.67v2.28l5.24,0v1.31a17,17,0,0,0,2.33-7l2.18.34c-.12.86-.3,1.69-.5,2.51h3.9l.35-.08,1.54.45a45,45,0,0,1-1.66,5.57L71.36,24c.28-.86.61-2.06.87-3.27H68.41a14.08,14.08,0,0,1-1.77,3.68A14.06,14.06,0,0,0,65,23.33v.35Zm7-.5c0,.43,0,.92,0,1.42.82,3.67,2,5.87,4.39,7.75a5.09,5.09,0,0,0-1.45,1.71,13.28,13.28,0,0,1-3.76-5.39,11.63,11.63,0,0,1-4,5.52,9.09,9.09,0,0,0-1.44-1.78c3.71-2.73,4.12-6.8,4.13-9.3V21.64h2.14Z"/><path class="cls-2" d="M92.51,31.32c1.83.51,3.81,1.16,5,1.64l-2.42,1.22a48.49,48.49,0,0,0-5.23-1.85l1.5-1-5.57,0,2,.77a19,19,0,0,1-6,2.18,14.37,14.37,0,0,0-1.71-1.74,20.34,20.34,0,0,0,5.3-1.21H82.65l0-7,12.72,0,0,7Zm-9.65-9.68H80.72v-3.7h2.69a14.48,14.48,0,0,0-.93-1.39L84.56,16a10.18,10.18,0,0,1,1.3,1.88l-.24.08h2.1v-2H90v2h2.14a12.9,12.9,0,0,0,1.24-2l2.38.57A16.07,16.07,0,0,1,94.61,18h2.71v3.7H95V19.56l-12.18,0Zm.95,2V20.24l10.35,0v3.39Zm1,6.4,8.22,0v-.7l-8.22,0Zm0-1.91,8.22,0v-.68l-8.22,0Zm0-1.89,8.22,0v-.68l-8.22,0ZM86,22.35l5.9,0v-.82l-5.9,0Z"/><path class="cls-2" d="M120.91,19.05s0,.78,0,1.05c-.29,8.71-.51,11.81-1.31,12.84A2.6,2.6,0,0,1,117.7,34a21.85,21.85,0,0,1-3.06,0,5.45,5.45,0,0,0-.75-2.26c1.25.12,2.4.13,2.9.13a1,1,0,0,0,.86-.33c.57-.62.83-3.54,1.07-10.42l-4.17,0a16.83,16.83,0,0,1-1.73,3.07,14.29,14.29,0,0,0-1.5-1.1l0,9.1-5.2,0v1.42H104L104,19.13h2.2a20.76,20.76,0,0,0,.58-3.13l2.53.36c-.34,1-.69,1.95-1,2.78h3v3.16A20.19,20.19,0,0,0,114,16l2.2.51a22.57,22.57,0,0,1-.77,2.47Zm-11.71,11.1V26.34h-3.1v3.82Zm0-9h-3.1v3.16h3.1Zm6.44,8A41.48,41.48,0,0,0,113,24.61l1.82-1a47.31,47.31,0,0,1,2.85,4.34Z"/><path class="cls-2" d="M143.89,16.78l-.07,17.54h-2.2v-.92l-12.06,0v1h-2.08l.07-17.58Zm-2.26,14.86,0-13.11-12.06,0,0,13.11Zm-.42-2.79H138.7v1.25c0,.74-.16,1-.71,1.15a9.64,9.64,0,0,1-2.38.15,5.09,5.09,0,0,0-.46-1.15c.54,0,1.19,0,1.36,0s.27-.06.27-.23V28.83h-3.45a8.19,8.19,0,0,1,1.3,1.58l-1.54.75a9,9,0,0,0-1.34-1.76l1.23-.58h-3V27.56l6.82,0V27h1.91v.57h1a7.32,7.32,0,0,0-.56-.66c-3.21.1-6.43.19-8.81.22l-.07-1.23,4.35,0V25.3h-3.86v-4h3.86v-.58l-4.4,0V19.48l4.4,0v-.72h1.89v.72l4.44,0v1.25l-4.44,0v.58h3.92v4h-1a11.2,11.2,0,0,1,1.61,1.53l-1,.76h1.17Zm-6.57-4.53v-.57h-2.1v.57Zm-2.1-1.49h2.1v-.56h-2.1Zm4,3.09h1.56l-.21-.18.67-.45h-2Zm2.07-2.16h-2.07v.57h2.07Zm-2.06-1.49v.56h2.07v-.56Z"/><path class="cls-2" d="M156.84,17.8c-.51,1.65-1.18,3.78-1.71,5.29A6.07,6.07,0,0,1,156.54,27c0,1.27-.26,2.06-.89,2.49a2.38,2.38,0,0,1-1.11.42,8.45,8.45,0,0,1-1.25,0,4.85,4.85,0,0,0-.5-2c.35,0,.62,0,.84,0a1,1,0,0,0,.55-.17c.23-.17.31-.56.32-1.09a5.22,5.22,0,0,0-1.33-3.43c.39-1.21.79-2.92,1.13-4.24h-1.52l-.06,15.3h-2L150.77,17,155,17l.33-.1Zm11.07,5.61a24.14,24.14,0,0,1-2.3,1.41,16.06,16.06,0,0,0,2.92,5.39,7.41,7.41,0,0,0-1.47,1.46,19.87,19.87,0,0,1-3.08-6l-.08,0c.92,3.1.48,6.35-.61,7.42a2.65,2.65,0,0,1-2.28,1c-.41,0-1,0-1.58,0a4.89,4.89,0,0,0-.54-2.07,14.94,14.94,0,0,0,1.71.1,1,1,0,0,0,1-.54,4.21,4.21,0,0,0,.61-2.51,20.15,20.15,0,0,1-4.9,2.75A7.67,7.67,0,0,0,156,30.23a15.35,15.35,0,0,0,6.07-3.31c-.08-.31-.15-.66-.27-1A22,22,0,0,1,158,28.29a7,7,0,0,0-1.22-1.64,16,16,0,0,0,4.37-2.38,8.63,8.63,0,0,0-.68-1.05A19.4,19.4,0,0,1,157.34,25,14.08,14.08,0,0,0,156,23.41a15.4,15.4,0,0,0,4-2.17h-3.39v-2h3.08a12.44,12.44,0,0,0-1.84-2l1.7-1a10.49,10.49,0,0,1,2.31,2.35l-.94.66h1.75a19.27,19.27,0,0,0,1.79-3l2.22.63c-.53.86-1.12,1.69-1.65,2.39H168v2l-5.18,0A10.74,10.74,0,0,1,162,22a8,8,0,0,1,1.3,2,26.39,26.39,0,0,0,3.22-2.19Z"/><path class="cls-2" d="M181.61,22.12c0-1.17-.93-1.84-2.45-1.84A4,4,0,0,0,176,21.81l-1.59-1.49a6.48,6.48,0,0,1,5-2.36c2.83,0,4.89,1.32,4.88,3.91,0,2.86-4.26,3.18-4,5.89h-2.51C177.47,24.7,181.61,24,181.61,22.12Zm-2.48,7a1.92,1.92,0,1,1-2,1.9A1.89,1.89,0,0,1,179.13,29.11Z"/><path class="cls-1" d="M89.88,48.35,97.4,80.08c1,4.21,4.64,4.1,5.54-.17l6.72-31.73c.67-3.16-.76-6.46-2.79-6.46H92.63C90.55,41.72,89.12,45.16,89.88,48.35Z"/></g></g></svg>