<svg xmlns="http://www.w3.org/2000/svg" viewBox="0 0 303.91 147.19"><defs><style>.cls-1{fill:#e0e0e0;}.cls-2{fill:#3c9195;}.cls-3{fill:#004864;}.cls-4{fill:#ff9947;}.cls-5{fill:#bebebe;}.cls-6{fill:none;stroke:#006464;stroke-linecap:round;stroke-miterlimit:10;}.cls-7{fill:#006464;}.cls-8{fill:#00364b;}</style></defs><title>Asset 17</title><g id="Layer_2" data-name="Layer 2"><g id="小物提示"><path class="cls-1" d="M103.83,147.19a3,3,0,0,1-2.1-.85L20.4,67C7.06,54.3,0,38.4,0,21.07,0,11,5.52.22,15.75.22a12.87,12.87,0,0,1,1.9.14L225.24,0a3.58,3.58,0,0,1,2.1.85C233.94,5.74,239.87,13,247,19.33A103.84,103.84,0,0,0,262.4,30c9,5.44,18.21,11.06,24.43,22.12l.09.16c.39.69.76,1.39,1.11,2.11,5,10.12,7.42,21.11,9.78,31.74.35,1.57.69,3.12,1,4.64v.05c2.71,13,4.46,26.78-6,39.92a57.26,57.26,0,0,1-20.49,16.14,3,3,0,0,1-1.27.28H103.83Z"/><path class="cls-2" d="M301.88,91.4h0q-.47-2.28-1-4.61c-2.35-10.6-4.74-21.32-9.54-31.06-.33-.68-.68-1.33-1-2l-.09-.16c-9.27-16.5-25.47-19.93-39.17-32-6.79-6-13.32-12.25-19.8-18.58L17.42,3.36C10.29,2.15,3,8.84,3,21.07,3,36.9,9,52,22.5,64.88l81.34,79.31v-.34l.33.34H277.05a54.24,54.24,0,0,0,19.41-15.29C305.88,117.07,304.72,105.06,301.88,91.4Z"/><path class="cls-3" d="M290.23,135.48a53.84,53.84,0,0,0,6.23-6.59c10.46-13.13,7.87-26.51,4.42-42.1-2.35-10.6-4.74-21.32-9.54-31.06a43.07,43.07,0,0,0-2.19-3.9H12.63l91.53,92.36H277.05A54.35,54.35,0,0,0,290.23,135.48Z"/><path class="cls-4" d="M103.83,144.19,22.5,64.87C9,52,3,36.9,3,21.07S15.22-1.33,23.49,6.56L103.83,84.9Z"/><path class="cls-5" d="M103.83,138.77,24.21,59C13.4,48.59,7.33,37.36,7.33,23.74c0-17.5,11-18.47,17.67-12.07l78.83,79Z"/><polyline class="cls-6" points="13.79 9.86 103.11 96.06 278.7 98.47"/><polyline class="cls-6" points="10.84 12.97 101.83 101.86 277.1 103.18"/><polyline class="cls-6" points="8.4 17.41 101.02 108.17 275.76 108.64"/><polyline class="cls-6" points="8 23.82 100.08 114.44 274.65 115.14"/><polyline class="cls-6" points="8.4 31.16 101.74 123.46 274.51 123.33"/><polyline class="cls-6" points="10.09 38.85 103.26 131.9 275.81 132.45"/><path class="cls-4" d="M300.88,86.79c-2.35-10.6-4.74-21.32-9.54-31.06-9-18.36-26-21.54-40.3-34.15-6.79-6-13.32-12.25-19.8-18.58L17.42,3.36l87.2,88H301.88C301.56,89.89,301.22,88.35,300.88,86.79Z"/><path class="cls-7" d="M290.23,135.48a53.84,53.84,0,0,0,6.23-6.59c9.41-11.82,8.26-23.83,5.41-37.49h-198a72.33,72.33,0,0,0-3.75,22.33c0,12.12,3.75,25.78,3.75,25.78H285.13A54.69,54.69,0,0,0,290.23,135.48Z"/><path class="cls-8" d="M274.71,79.83a48.53,48.53,0,0,0,4.45,7.65c2.13,3.36.6,6.7-1,9.63-6.84,12.16-10.06,21.56-9.46,37.38.07,2-.93,3.85-.67,5.79a6.41,6.41,0,0,0,1.9,3.91h7.16a54.24,54.24,0,0,0,19.41-15.29c10.46-13.13,7.87-26.51,4.42-42.1-2.35-10.6-4.74-21.32-9.54-31.06-9-18.36-26-21.54-40.3-34.15-7-6.2-13.77-12.68-20.46-19.22l-33.91.57c4.86,4.43,9.81,4.25,14.68,8.62a140.75,140.75,0,0,1,12,12.42c8.73,10,16.71,20.81,26.64,29.65C259.08,61.68,270.09,68.61,274.71,79.83Z"/></g></g></svg>