<svg xmlns="http://www.w3.org/2000/svg" viewBox="0 0 71.21 43.72"><defs><style>.cls-1{fill:#6bffba;}.cls-2{fill:#006464;}</style></defs><title>資產 134</title><g id="圖層_2" data-name="圖層 2"><g id="頂部小人"><rect class="cls-1" width="71.21" height="36.13" rx="18.06" ry="18.06"/><path class="cls-1" d="M31.11,35.4V43a.72.72,0,0,0,1.24.51L39.89,36a.72.72,0,0,0-.51-1.24l-7.55,0A.72.72,0,0,0,31.11,35.4Z"/><path class="cls-2" d="M24.21,12.62v1.5H11v-1.5h5.78c-.12-.36-.24-.73-.36-1l1.84-.45c.17.46.41,1,.58,1.5Zm-.34,11c0,.78-.2,1.1-.77,1.32a8.08,8.08,0,0,1-2.38.18,5.76,5.76,0,0,0-.52-1.26H15.9v.63H14.25v-4h6.53v3.33h-.21c.53,0,1.05,0,1.2,0s.3-.06.3-.26V20h-9v5.26H11.38v-6.7H23.86Zm-1.44-5.7H13V14.69h9.46Zm-1.87-2h-5.8v.82h5.8ZM19.2,21.75H15.9v.85h3.3Z"/><path class="cls-2" d="M31.11,18.57a12.25,12.25,0,0,0-2.43-1.65l1-1.21a11.54,11.54,0,0,1,2.49,1.52Zm-2,5.44a43.12,43.12,0,0,0,2.08-4.81l1.37,1c-.56,1.59-1.23,3.33-1.89,4.8Zm3-9.66a14.53,14.53,0,0,0-2.58-1.69l1-1.2A15.68,15.68,0,0,1,33.16,13Zm9.4,5.52c0,.6-.09,1.13-.13,1.59h.92V23H41.17a3.45,3.45,0,0,1-.45,1.4,1.63,1.63,0,0,1-1.21.67,9.41,9.41,0,0,1-1.87,0,3.6,3.6,0,0,0-.46-1.45c.66.06,1.25.06,1.54.06a.61.61,0,0,0,.55-.24,1.39,1.39,0,0,0,.2-.46H33.27c.17-.85.34-2,.51-3.1H32.44V18.26H34c.1-.81.2-1.62.27-2.38-.18.27-.37.52-.55.77a14,14,0,0,0-1.53-1,12,12,0,0,0,2.4-4.44l1.72.44c-.12.35-.25.72-.4,1.08h6.37v1.59H35.16c-.18.35-.34.67-.54,1h7.09s0,.53,0,.75c0,.79-.08,1.52-.11,2.19h1.07v1.62Zm-6.08,0c-.07.56-.15,1.08-.22,1.59h2.26a12.73,12.73,0,0,0-1.3-1.23l.57-.36Zm.39-3-.18,1.42h2a10.77,10.77,0,0,0-1.09-1.09l.51-.33Zm3.9,4.63c.06-.45.11-1,.15-1.59H37.45a10,10,0,0,1,1.33,1.26l-.48.33ZM37.8,16.83A10.16,10.16,0,0,1,38.93,18l-.42.28H40c0-.45,0-.92.06-1.42Z"/><path class="cls-2" d="M51.55,22.32l-4.78,1.44-.32-1.71c.51-.12,1.11-.27,1.77-.45V18H46.78V16.38h1.44V13.74H46.69V12.08h4.8v1.67H49.84v2.64h1.41V18H49.84v3.12l1.52-.42Zm6.58-.54a23.8,23.8,0,0,1,2.64,2.44l-1.42,1a18.59,18.59,0,0,0-2.67-2.67l1.2-.79H54.15l1.18.72A11.1,11.1,0,0,1,52,25.32a6.58,6.58,0,0,0-1.11-1.25,9.9,9.9,0,0,0,2.82-2.29H51.6V20.19h1.5V14.76H51.9V13.17h1.2v-2H54.8v2h2.6v-2h1.75v2h1.26v1.59H59.16v5.43h1.42v1.59Zm-3.33-7v.87h2.6v-.87Zm0,3.12h2.6V17H54.8Zm0,2.31h2.6v-.94H54.8Z"/></g></g></svg>