<svg xmlns="http://www.w3.org/2000/svg" xmlns:xlink="http://www.w3.org/1999/xlink" viewBox="0 0 81.33 74.34"><defs><style>.cls-1,.cls-11,.cls-7,.cls-8,.cls-9{fill:none;}.cls-2{fill:#bebebe;}.cls-3{fill:#006464;}.cls-3,.cls-5,.cls-6,.cls-9{stroke:#006464;}.cls-11,.cls-3,.cls-5,.cls-6,.cls-7,.cls-8,.cls-9{stroke-linecap:round;}.cls-3,.cls-5,.cls-6,.cls-8,.cls-9{stroke-linejoin:round;}.cls-3,.cls-9{stroke-width:3.74px;}.cls-4,.cls-5,.cls-6{fill:#ffcd32;}.cls-5{stroke-width:0.62px;}.cls-6{stroke-width:0.93px;}.cls-7{stroke:#00364b;stroke-width:2.28px;}.cls-11,.cls-7{stroke-miterlimit:10;}.cls-11,.cls-8{stroke:#6bffba;}.cls-8{stroke-width:1.98px;}.cls-10{clip-path:url(#clip-path);}.cls-11{stroke-width:2.38px;}.cls-12{clip-path:url(#clip-path-2);}.cls-13{clip-path:url(#clip-path-3);}</style><clipPath id="clip-path"><polygon class="cls-1" points="24.03 12.99 9.78 12.39 9.78 24.46 24.03 25.05 24.03 12.99"/></clipPath><clipPath id="clip-path-2"><polygon class="cls-1" points="26.09 6.27 12.86 2.55 9.85 14.23 23.08 17.95 26.09 6.27"/></clipPath><clipPath id="clip-path-3"><polygon class="cls-1" points="22.49 19.76 9.1 24.34 12.98 35.77 26.37 31.18 22.49 19.76"/></clipPath></defs><title>資產 125</title><g id="圖層_2" data-name="圖層 2"><g id="頂部小人"><ellipse class="cls-2" cx="45.15" cy="69.24" rx="16.71" ry="5.1"/><path class="cls-3" d="M59.19,22.3s2.9,11.4,15.6,22.2L51.15,46,47.72,22.45Z"/><path class="cls-4" d="M33.36,18.61a2.2,2.2,0,0,1-2-2.09,2,2,0,0,0-2-1.89h-.14a2,2,0,0,0-2,2v3.92a2.18,2.18,0,0,0,2,2.14l12.51,1a2.18,2.18,0,0,1,2,2.14V36.84a2,2,0,0,1-2,2H40.38a2.1,2.1,0,0,0-2.08,2l-.7,15.38a2,2,0,0,1-1.94,2,1.93,1.93,0,0,0-1.85,2v.14a2,2,0,0,0,2,2h3.84a2.1,2.1,0,0,0,2.07-2l.69-15.38a2.1,2.1,0,0,1,2.07-2H50.8a1.8,1.8,0,0,1,1.82,2l-.55,6.43a2.19,2.19,0,0,1-2.12,2,2,2,0,0,0-2,2v.14a2,2,0,0,0,2,2h4a2.14,2.14,0,0,0,2.1-2l.65-10.92c.06-1.09.12-2.87.12-4V26a2,2,0,0,1,2-2h3.89a2,2,0,0,1,2,2v1.45a2,2,0,0,1-1.8,2,1.92,1.92,0,0,0-1.79,2,2,2,0,0,0,2,2l3.61,0a2,2,0,0,0,2-2V21.65a2,2,0,0,0-2-2h-21c-1.09,0-2.87-.09-4-.2Z"/><path class="cls-4" d="M46.18,2.24C47.6,0,49.86,0,51.2,2.32l6.19,10.59c1.34,2.3.26,4.18-2.4,4.18H41.67C39,17.09,38,15.25,39.41,13Z"/><path class="cls-4" d="M51.64,3.07c-3.1-.18-6,2.3-7.41,3.61-.3.29-.72,0-.75-.37a5.94,5.94,0,0,1,1.46-5C48.33-1.86,51.12,1.45,51.64,3.07Z"/><path class="cls-5" d="M50.67,3.17a2.25,2.25,0,0,0-2.94-1.58c-2.06.73-1.58,3.79-1.58,3.79"/><path class="cls-5" d="M45.15,2.87a3.81,3.81,0,0,0-.21,2.79"/><polyline class="cls-6" points="49.86 8.23 52.91 7.31 53.8 7.61"/><polyline class="cls-6" points="47.03 8.23 43.98 7.31 43.09 7.61"/><path class="cls-5" d="M51,9.83a2.86,2.86,0,0,1,2.42-.44"/><path class="cls-5" d="M46.16,9.83a2.86,2.86,0,0,0-2.42-.44"/><polyline class="cls-5" points="47.14 12.82 48.49 13.36 48.49 9.57"/><line class="cls-5" x1="48.49" y1="13.36" x2="49.69" y2="12.87"/><polyline class="cls-5" points="44.41 14.84 45.49 15.15 48.39 14.61 51.53 15.15 52.52 14.88"/><line class="cls-7" x1="43.09" y1="36.7" x2="56.89" y2="36.7"/><line class="cls-7" x1="53.8" y1="38.35" x2="53.8" y2="34.61"/><line class="cls-7" x1="44.41" y1="38.35" x2="44.41" y2="34.61"/><line class="cls-8" x1="70.36" y1="31.9" x2="80.34" y2="33.35"/><polyline class="cls-9" points="57.36 19.32 47.72 20.71 43.73 19.67"/><line class="cls-8" x1="40.49" y1="27.68" x2="59.13" y2="30.65"/><g class="cls-10"><path class="cls-11" d="M11.11,19a3.18,3.18,0,0,1-4.89-.11,3.34,3.34,0,0,0-5-.11"/><path class="cls-11" d="M31,19.46a3.18,3.18,0,0,1-4.89-.11,3.34,3.34,0,0,0-5-.11"/><path class="cls-11" d="M40.88,19.68A3.18,3.18,0,0,1,36,19.57a3.34,3.34,0,0,0-5-.11"/><path class="cls-11" d="M21,19.24a3.18,3.18,0,0,1-4.89-.11,3.34,3.34,0,0,0-5-.11"/></g><g class="cls-12"><path class="cls-11" d="M12.34,8.39A3.18,3.18,0,0,1,7.63,7.06,3.34,3.34,0,0,0,2.79,5.7"/><path class="cls-11" d="M31.44,13.77a3.18,3.18,0,0,1-4.71-1.33,3.34,3.34,0,0,0-4.84-1.36"/><path class="cls-11" d="M41,16.46a3.18,3.18,0,0,1-4.71-1.33,3.34,3.34,0,0,0-4.84-1.36"/><path class="cls-11" d="M21.89,11.08a3.18,3.18,0,0,1-4.71-1.33,3.34,3.34,0,0,0-4.84-1.36"/></g><g class="cls-13"><path class="cls-11" d="M13.13,29.58A3.18,3.18,0,0,1,8.46,31a3.34,3.34,0,0,0-4.8,1.51"/><path class="cls-11" d="M32.06,23.62a3.18,3.18,0,0,1-4.67,1.47,3.34,3.34,0,0,0-4.8,1.51"/><path class="cls-11" d="M41.53,20.64a3.18,3.18,0,0,1-4.67,1.47,3.34,3.34,0,0,0-4.8,1.51"/><path class="cls-11" d="M22.6,26.6a3.18,3.18,0,0,1-4.67,1.47,3.34,3.34,0,0,0-4.8,1.51"/></g></g></g></svg>