<svg xmlns="http://www.w3.org/2000/svg" xmlns:xlink="http://www.w3.org/1999/xlink" viewBox="0 0 1280 4551.52"><defs><style>.cls-1,.cls-15,.cls-16,.cls-18,.cls-19,.cls-2,.cls-21,.cls-22,.cls-23,.cls-24,.cls-25,.cls-26,.cls-27,.cls-28,.cls-29,.cls-3,.cls-30,.cls-31,.cls-32,.cls-33,.cls-34,.cls-35,.cls-36,.cls-37,.cls-38,.cls-39,.cls-4,.cls-40,.cls-41,.cls-42,.cls-43,.cls-44,.cls-45,.cls-47,.cls-48,.cls-49{fill:none;}.cls-2,.cls-21,.cls-3,.cls-4,.cls-47,.cls-48,.cls-49{stroke:#004864;}.cls-2,.cls-21,.cls-23,.cls-25,.cls-27,.cls-29,.cls-3,.cls-31,.cls-33,.cls-35,.cls-37,.cls-39,.cls-4,.cls-41,.cls-43,.cls-47,.cls-48,.cls-49{stroke-linecap:round;}.cls-2{stroke-width:2.59px;}.cls-16,.cls-18,.cls-19,.cls-3,.cls-45,.cls-47,.cls-48{stroke-linejoin:round;}.cls-3,.cls-4{stroke-width:5px;}.cls-15,.cls-4,.cls-49{stroke-miterlimit:10;}.cls-5{fill:url(#未命名漸層_10);}.cls-6{fill:url(#未命名漸層_10-2);}.cls-7{fill:url(#未命名漸層_10-3);}.cls-8{fill:url(#未命名漸層_10-4);}.cls-9{fill:url(#未命名漸層_10-5);}.cls-10{fill:url(#未命名漸層_10-6);}.cls-11{fill:url(#未命名漸層_10-7);}.cls-12{fill:#006464;}.cls-13{fill:url(#USGS_22_沙礫海灘_2_拷貝_3);}.cls-14{fill:url(#_6_lpi_10_2_拷貝_4);}.cls-15{stroke:#6bffba;stroke-width:255px;}.cls-16{stroke:#006464;stroke-width:240px;}.cls-17{fill:#6bffba;}.cls-18,.cls-19,.cls-45{stroke:#50adc0;stroke-width:55.7px;}.cls-18{stroke-dasharray:60.15 4.95;}.cls-20{fill:#fff;}.cls-21,.cls-22,.cls-23,.cls-24,.cls-25,.cls-26,.cls-27,.cls-28,.cls-29,.cls-30,.cls-31,.cls-32,.cls-33,.cls-34,.cls-35,.cls-36,.cls-37,.cls-38,.cls-39,.cls-40,.cls-41,.cls-42,.cls-43,.cls-44{stroke-linejoin:bevel;}.cls-21,.cls-23,.cls-25,.cls-27,.cls-29,.cls-31,.cls-33,.cls-35,.cls-37,.cls-39,.cls-41,.cls-43{stroke-width:76px;}.cls-22,.cls-24,.cls-26,.cls-28,.cls-30,.cls-32,.cls-34,.cls-36,.cls-38,.cls-40,.cls-42,.cls-44{stroke-linecap:square;stroke:url(#USGS_22_沙礫海灘_3);}.cls-22{stroke-width:79px;}.cls-23{stroke:#004662;}.cls-24{stroke-width:79.18px;}.cls-25{stroke:#00455f;}.cls-26{stroke-width:79.36px;}.cls-27{stroke:#00435d;}.cls-28{stroke-width:79.55px;}.cls-29{stroke:#00415b;}.cls-30{stroke-width:79.73px;}.cls-31{stroke:#004059;}.cls-32{stroke-width:79.91px;}.cls-33{stroke:#003e56;}.cls-34{stroke-width:80.09px;}.cls-35{stroke:#003d54;}.cls-36{stroke-width:80.27px;}.cls-37{stroke:#003b52;}.cls-38{stroke-width:80.45px;}.cls-39{stroke:#003950;}.cls-40{stroke-width:80.64px;}.cls-41{stroke:#00384d;}.cls-42{stroke-width:80.82px;}.cls-43{stroke:#00364b;}.cls-44{stroke-width:81px;}.cls-45{stroke-dasharray:57 4.69;}.cls-46{fill:#00364b;}.cls-47{stroke-width:11.59px;}.cls-48{stroke-width:11.4px;}.cls-49{stroke-width:13.93px;}.cls-50{fill:#ffcd32;}.cls-51{fill:#ff9947;}</style><linearGradient id="未命名漸層_10" x1="286.09" y1="-15153.27" x2="286.09" y2="-15059.27" gradientTransform="matrix(1, 0, 0, -1, 0, -14886)" gradientUnits="userSpaceOnUse"><stop offset="0" stop-color="#006464"/><stop offset="1" stop-color="#50adc0"/></linearGradient><linearGradient id="未命名漸層_10-2" x1="143.05" y1="-15226.47" x2="143.05" y2="-15132.47" xlink:href="#未命名漸層_10"/><linearGradient id="未命名漸層_10-3" x1="0" y1="-15153.27" x2="0" y2="-15059.27" xlink:href="#未命名漸層_10"/><linearGradient id="未命名漸層_10-4" x1="286.09" y1="-15006.87" x2="286.09" y2="-14912.87" xlink:href="#未命名漸層_10"/><linearGradient id="未命名漸層_10-5" x1="143.05" y1="-15080.07" x2="143.05" y2="-14986.07" xlink:href="#未命名漸層_10"/><linearGradient id="未命名漸層_10-6" x1="0" y1="-15006.87" x2="0" y2="-14912.87" xlink:href="#未命名漸層_10"/><linearGradient id="未命名漸層_10-7" x1="143.05" y1="-14933.67" x2="143.05" y2="-14839.67" xlink:href="#未命名漸層_10"/><pattern id="USGS_22_沙礫海灘_2_拷貝_3" data-name="USGS 22 沙礫海灘 2 拷貝 3" width="423.74" height="244.18" patternUnits="userSpaceOnUse" viewBox="0 0 423.74 244.18"><rect class="cls-1" width="423.74" height="244.18"/><line class="cls-3" x1="79.14" y1="140.32" x2="79.14" y2="145.95"/><line class="cls-3" x1="86.09" y1="145.95" x2="89.72" y2="143.19"/><line class="cls-3" x1="72.18" y1="145.95" x2="68.17" y2="143.19"/><line class="cls-3" x1="404.66" y1="28.47" x2="404.66" y2="34.1"/><line class="cls-3" x1="411.61" y1="34.1" x2="415.24" y2="31.34"/><line class="cls-3" x1="397.71" y1="34.1" x2="393.69" y2="31.34"/><line class="cls-3" x1="122.64" y1="134.7" x2="122.64" y2="145.95"/><line class="cls-3" x1="129.58" y1="145.95" x2="133.22" y2="143.19"/><line class="cls-3" x1="115.68" y1="145.95" x2="111.66" y2="143.19"/><ellipse class="cls-4" cx="122.64" cy="127.45" rx="8.24" ry="4.58"/><polyline class="cls-3" points="134.97 121.24 131.83 121.24 130.88 116.34"/><line class="cls-3" x1="374.15" y1="115.81" x2="374.15" y2="127.06"/><line class="cls-3" x1="381.09" y1="127.06" x2="384.73" y2="124.31"/><line class="cls-3" x1="367.19" y1="127.06" x2="363.17" y2="124.31"/><ellipse class="cls-4" cx="374.15" cy="108.56" rx="8.24" ry="4.58"/><line class="cls-3" x1="112.73" y1="90.03" x2="112.73" y2="95.65"/><line class="cls-3" x1="119.68" y1="95.65" x2="123.32" y2="92.9"/><line class="cls-3" x1="105.78" y1="95.65" x2="101.76" y2="92.9"/><line class="cls-3" x1="152.34" y1="45.25" x2="152.34" y2="50.88"/><line class="cls-3" x1="159.28" y1="50.88" x2="162.92" y2="48.12"/><line class="cls-3" x1="145.38" y1="50.88" x2="141.36" y2="48.12"/><line class="cls-3" x1="227.12" y1="13.5" x2="227.12" y2="19.13"/><line class="cls-3" x1="234.06" y1="19.13" x2="237.7" y2="16.37"/><line class="cls-3" x1="220.16" y1="19.13" x2="216.14" y2="16.37"/><line class="cls-3" x1="29.38" y1="25.66" x2="29.38" y2="31.29"/><line class="cls-3" x1="36.33" y1="31.29" x2="39.96" y2="28.53"/><line class="cls-3" x1="22.43" y1="31.29" x2="18.41" y2="28.53"/><line class="cls-3" x1="75.76" y1="25.66" x2="75.76" y2="31.29"/><line class="cls-3" x1="82.71" y1="31.29" x2="86.34" y2="28.53"/><line class="cls-3" x1="68.81" y1="31.29" x2="64.79" y2="28.53"/><line class="cls-3" x1="144.04" y1="197.32" x2="144.04" y2="202.95"/><line class="cls-3" x1="150.99" y1="202.95" x2="154.62" y2="200.19"/><line class="cls-3" x1="137.09" y1="202.95" x2="133.07" y2="200.19"/><line class="cls-3" x1="235.92" y1="188.93" x2="235.92" y2="194.55"/><line class="cls-3" x1="242.87" y1="194.55" x2="246.5" y2="191.79"/><line class="cls-3" x1="228.96" y1="194.55" x2="224.95" y2="191.79"/><line class="cls-3" x1="385.12" y1="68.82" x2="385.12" y2="74.45"/><line class="cls-3" x1="392.07" y1="74.45" x2="395.7" y2="71.69"/><line class="cls-3" x1="378.16" y1="74.45" x2="374.15" y2="71.69"/><line class="cls-3" x1="45.43" y1="173.72" x2="45.43" y2="179.34"/><line class="cls-3" x1="52.38" y1="179.34" x2="56.01" y2="176.59"/><line class="cls-3" x1="38.47" y1="179.34" x2="34.46" y2="176.59"/><line class="cls-3" x1="282.46" y1="61.92" x2="282.46" y2="67.55"/><line class="cls-3" x1="289.4" y1="67.55" x2="293.04" y2="64.79"/><line class="cls-3" x1="275.5" y1="67.55" x2="271.48" y2="64.79"/><line class="cls-3" x1="288.34" y1="152.8" x2="288.34" y2="158.42"/><line class="cls-3" x1="295.29" y1="158.42" x2="298.92" y2="155.67"/><line class="cls-3" x1="281.39" y1="158.42" x2="277.37" y2="155.67"/><line class="cls-3" x1="84.95" y1="222.19" x2="84.95" y2="227.81"/><line class="cls-3" x1="91.9" y1="227.81" x2="95.53" y2="225.06"/><line class="cls-3" x1="77.99" y1="227.81" x2="73.98" y2="225.06"/><line class="cls-3" x1="189.89" y1="225" x2="189.89" y2="230.62"/><line class="cls-3" x1="196.83" y1="230.62" x2="200.47" y2="227.87"/><line class="cls-3" x1="182.93" y1="230.62" x2="178.91" y2="227.87"/><line class="cls-3" x1="19.47" y1="215.31" x2="19.47" y2="220.93"/><line class="cls-3" x1="26.42" y1="220.93" x2="30.05" y2="218.18"/><line class="cls-3" x1="12.52" y1="220.93" x2="8.5" y2="218.18"/><line class="cls-3" x1="348.17" y1="157.42" x2="348.17" y2="163.05"/><line class="cls-3" x1="355.12" y1="163.05" x2="358.75" y2="160.29"/><line class="cls-3" x1="341.22" y1="163.05" x2="337.2" y2="160.29"/><line class="cls-3" x1="319.69" y1="199.22" x2="319.69" y2="204.84"/><line class="cls-3" x1="326.63" y1="204.84" x2="330.27" y2="202.09"/><line class="cls-3" x1="312.73" y1="204.84" x2="308.71" y2="202.09"/><line class="cls-3" x1="226.92" y1="152.8" x2="226.92" y2="158.42"/><line class="cls-3" x1="233.87" y1="158.42" x2="237.5" y2="155.67"/><line class="cls-3" x1="219.97" y1="158.42" x2="215.95" y2="155.67"/><line class="cls-3" x1="269.48" y1="225.06" x2="269.48" y2="230.68"/><line class="cls-3" x1="276.43" y1="230.68" x2="280.06" y2="227.93"/><line class="cls-3" x1="262.52" y1="230.68" x2="258.51" y2="227.93"/></pattern><pattern id="_6_lpi_10_2_拷貝_4" data-name="6 lpi 10% 2 拷貝 4" width="165.66" height="186.92" patternUnits="userSpaceOnUse" viewBox="0 0 165.66 186.92"><rect class="cls-1" width="165.66" height="186.92"/><line class="cls-2" x1="170.72" y1="131.41" x2="147.15" y2="180.12"/><line class="cls-2" x1="184.46" y1="131.41" x2="160.89" y2="180.12"/><line class="cls-2" x1="87.89" y1="131.41" x2="64.32" y2="180.12"/><line class="cls-2" x1="115.36" y1="131.41" x2="91.79" y2="180.12"/><line class="cls-2" x1="142.83" y1="131.41" x2="119.26" y2="180.12"/><line class="cls-2" x1="101.63" y1="131.41" x2="78.06" y2="180.12"/><line class="cls-2" x1="129.09" y1="131.41" x2="105.52" y2="180.12"/><line class="cls-2" x1="156.56" y1="131.41" x2="132.99" y2="180.12"/><line class="cls-2" x1="5.06" y1="131.41" x2="-18.51" y2="180.12"/><line class="cls-2" x1="32.53" y1="131.41" x2="8.96" y2="180.12"/><line class="cls-2" x1="60" y1="131.41" x2="36.43" y2="180.12"/><line class="cls-2" x1="18.79" y1="131.41" x2="-4.77" y2="180.12"/><line class="cls-2" x1="46.26" y1="131.41" x2="22.69" y2="180.12"/><line class="cls-2" x1="73.73" y1="131.41" x2="50.16" y2="180.12"/><line class="cls-2" x1="143.11" y1="69.1" x2="119.54" y2="117.82"/><line class="cls-2" x1="170.58" y1="69.1" x2="147.01" y2="117.82"/><line class="cls-2" x1="156.85" y1="69.1" x2="133.28" y2="117.82"/><line class="cls-2" x1="184.31" y1="69.1" x2="160.74" y2="117.82"/><line class="cls-2" x1="60.28" y1="69.1" x2="36.71" y2="117.82"/><line class="cls-2" x1="87.75" y1="69.1" x2="64.18" y2="117.82"/><line class="cls-2" x1="115.22" y1="69.1" x2="91.65" y2="117.82"/><line class="cls-2" x1="74.01" y1="69.1" x2="50.45" y2="117.82"/><line class="cls-2" x1="101.48" y1="69.1" x2="77.91" y2="117.82"/><line class="cls-2" x1="128.95" y1="69.1" x2="105.38" y2="117.82"/><line class="cls-2" x1="4.92" y1="69.1" x2="-18.65" y2="117.82"/><line class="cls-2" x1="32.39" y1="69.1" x2="8.82" y2="117.82"/><line class="cls-2" x1="18.65" y1="69.1" x2="-4.92" y2="117.82"/><line class="cls-2" x1="46.12" y1="69.1" x2="22.55" y2="117.82"/><line class="cls-2" x1="115.5" y1="6.8" x2="91.93" y2="55.51"/><line class="cls-2" x1="142.97" y1="6.8" x2="119.4" y2="55.51"/><line class="cls-2" x1="170.44" y1="6.8" x2="146.87" y2="55.51"/><line class="cls-2" x1="129.24" y1="6.8" x2="105.67" y2="55.51"/><line class="cls-2" x1="156.7" y1="6.8" x2="133.13" y2="55.51"/><line class="cls-2" x1="184.17" y1="6.8" x2="160.6" y2="55.51"/><line class="cls-2" x1="32.67" y1="6.8" x2="9.1" y2="55.51"/><line class="cls-2" x1="60.14" y1="6.8" x2="36.57" y2="55.51"/><line class="cls-2" x1="87.61" y1="6.8" x2="64.04" y2="55.51"/><line class="cls-2" x1="46.4" y1="6.8" x2="22.84" y2="55.51"/><line class="cls-2" x1="73.87" y1="6.8" x2="50.3" y2="55.51"/><line class="cls-2" x1="101.34" y1="6.8" x2="77.77" y2="55.51"/><line class="cls-2" x1="4.78" y1="6.8" x2="-18.79" y2="55.51"/><line class="cls-2" x1="18.51" y1="6.8" x2="-5.06" y2="55.51"/></pattern><pattern id="USGS_22_沙礫海灘_3" data-name="USGS 22 沙礫海灘 3" width="286.09" height="292.8" patternUnits="userSpaceOnUse" viewBox="0 0 286.09 292.8"><rect class="cls-1" width="286.09" height="292.8"/><path class="cls-5" d="M262.84,229.3h-3a2.91,2.91,0,0,1-2.91-2.91v-3a2.91,2.91,0,0,1,2.91-2.91h3a2.91,2.91,0,0,1,2.91,2.91v3A2.91,2.91,0,0,1,262.84,229.3ZM260,214h0a1.3,1.3,0,0,0-1.3-1.3h0a1.3,1.3,0,0,0-1.3,1.3h0a1.3,1.3,0,0,0,1.3,1.3h0A1.3,1.3,0,0,0,260,214Zm0,19.16h0a1.3,1.3,0,0,0-1.3-1.3h0a1.3,1.3,0,0,0-1.3,1.3h0a1.3,1.3,0,0,0,1.3,1.3h0A1.3,1.3,0,0,0,260,233.17ZM249.8,213.42v-2a1.3,1.3,0,0,0-1.3-1.3h-2a1.3,1.3,0,0,0-1.3,1.3v2a1.3,1.3,0,0,0,1.3,1.3h2A1.3,1.3,0,0,0,249.8,213.42Zm77.43,22.07v-2a1.3,1.3,0,0,0-1.3-1.3h-2a1.3,1.3,0,0,0-1.3,1.3v2a1.3,1.3,0,0,0,1.3,1.3h2A1.3,1.3,0,0,0,327.23,235.48Zm-48.49-34.35v-2a1.3,1.3,0,0,0-1.3-1.3h-2a1.3,1.3,0,0,0-1.3,1.3v2a1.3,1.3,0,0,0,1.3,1.3h2A1.3,1.3,0,0,0,278.74,201.13Zm35-44.2v-2a1.3,1.3,0,0,0-1.3-1.3h-2a1.3,1.3,0,0,0-1.3,1.3v2a1.3,1.3,0,0,0,1.3,1.3h2A1.3,1.3,0,0,0,313.72,156.94Zm-65.94,75.64h0a1.3,1.3,0,0,0-1.3-1.3h0a1.3,1.3,0,0,0-1.3,1.3h0a1.3,1.3,0,0,0,1.3,1.3h0A1.3,1.3,0,0,0,247.78,232.57Zm-9.44-39.93v-3a2.91,2.91,0,0,0-2.91-2.91h-3a2.91,2.91,0,0,0-2.91,2.91v3a2.91,2.91,0,0,0,2.91,2.91h3A2.91,2.91,0,0,0,238.34,192.64Zm6.65-13h0a1.3,1.3,0,0,0-1.3-1.3h0a1.3,1.3,0,0,0-1.3,1.3h0a1.3,1.3,0,0,0,1.3,1.3h0A1.3,1.3,0,0,0,245,179.66Zm0,19.16h0a1.3,1.3,0,0,0-1.3-1.3h0a1.3,1.3,0,0,0-1.3,1.3h0a1.3,1.3,0,0,0,1.3,1.3h0A1.3,1.3,0,0,0,245,198.82Zm-22.61-19.16v-2a1.3,1.3,0,0,0-1.3-1.3h-2a1.3,1.3,0,0,0-1.3,1.3v2a1.3,1.3,0,0,0,1.3,1.3h2A1.3,1.3,0,0,0,222.38,179.66Zm-2,19.16h0a1.3,1.3,0,0,0-1.3-1.3h0a1.3,1.3,0,0,0-1.3,1.3h0a1.3,1.3,0,0,0,1.3,1.3h0A1.3,1.3,0,0,0,220.36,198.82ZM249,264.9v3a2.91,2.91,0,0,0,2.91,2.91h3a2.91,2.91,0,0,0,2.91-2.91v-3a2.91,2.91,0,0,0-2.91-2.91h-3A2.91,2.91,0,0,0,249,264.9Zm-43.49,6.64h0a1.3,1.3,0,0,0,1.3,1.3h0a1.3,1.3,0,0,0,1.3-1.3h0a1.3,1.3,0,0,0-1.3-1.3h0A1.3,1.3,0,0,0,205.49,271.54Zm31.64-18h0a1.3,1.3,0,0,0,1.3,1.3h0a1.3,1.3,0,0,0,1.3-1.3h0a1.3,1.3,0,0,0-1.3-1.3h0A1.3,1.3,0,0,0,237.13,253.53Zm-20.68-17.24h0a1.3,1.3,0,0,0,1.3,1.3h0a1.3,1.3,0,0,0,1.3-1.3h0a1.3,1.3,0,0,0-1.3-1.3h0A1.3,1.3,0,0,0,216.45,236.29Zm11.64,35.25v2a1.3,1.3,0,0,0,1.3,1.3h2a1.3,1.3,0,0,0,1.3-1.3v-2a1.3,1.3,0,0,0-1.3-1.3h-2A1.3,1.3,0,0,0,228.1,271.54Zm60.8,15.93v2a1.3,1.3,0,0,0,1.3,1.3h2a1.3,1.3,0,0,0,1.3-1.3v-2a1.3,1.3,0,0,0-1.3-1.3h-2A1.3,1.3,0,0,0,288.9,287.47Zm-58.78-35.09h0a1.3,1.3,0,0,0,1.3,1.3h0a1.3,1.3,0,0,0,1.3-1.3h0a1.3,1.3,0,0,0-1.3-1.3h0A1.3,1.3,0,0,0,230.12,252.39Zm-30-31.94h0a1.3,1.3,0,0,0,1.3,1.3h0a1.3,1.3,0,0,0,1.3-1.3h0a1.3,1.3,0,0,0-1.3-1.3h0A1.3,1.3,0,0,0,200.11,220.44Zm129.32,56.48h6.25a1.3,1.3,0,0,0,1.3-1.3v-6.25a1.3,1.3,0,0,0-1.3-1.3h-6.25a1.3,1.3,0,0,0-1.3,1.3v6.25A1.3,1.3,0,0,0,329.43,276.92Zm12,9.25h0a1.3,1.3,0,0,0,1.3-1.3h0a1.3,1.3,0,0,0-1.3-1.3h0a1.3,1.3,0,0,0-1.3,1.3h0A1.3,1.3,0,0,0,341.42,286.17Zm-19.16,0h0a1.3,1.3,0,0,0,1.3-1.3h0a1.3,1.3,0,0,0-1.3-1.3h0a1.3,1.3,0,0,0-1.3,1.3h0A1.3,1.3,0,0,0,322.26,286.17Zm19.16-22.61h2a1.3,1.3,0,0,0,1.3-1.3v-2a1.3,1.3,0,0,0-1.3-1.3h-2a1.3,1.3,0,0,0-1.3,1.3v2A1.3,1.3,0,0,0,341.42,263.56Zm-19.16-2h0a1.3,1.3,0,0,0,1.3-1.3h0a1.3,1.3,0,0,0-1.3-1.3h0a1.3,1.3,0,0,0-1.3,1.3h0A1.3,1.3,0,0,0,322.26,261.54Zm-29.53-18h-3a2.91,2.91,0,0,0-2.91,2.91v3a2.91,2.91,0,0,0,2.91,2.91h3a2.91,2.91,0,0,0,2.91-2.91v-3A2.91,2.91,0,0,0,292.73,243.52Zm-13-11.85h0a1.3,1.3,0,0,0-1.3,1.3h0a1.3,1.3,0,0,0,1.3,1.3h0a1.3,1.3,0,0,0,1.3-1.3h0A1.3,1.3,0,0,0,279.75,231.67Zm19.16,0h0a1.3,1.3,0,0,0-1.3,1.3h0a1.3,1.3,0,0,0,1.3,1.3h0a1.3,1.3,0,0,0,1.3-1.3h0A1.3,1.3,0,0,0,298.91,231.67Zm-19.16,22.61h-2a1.3,1.3,0,0,0-1.3,1.3v2a1.3,1.3,0,0,0,1.3,1.3h2a1.3,1.3,0,0,0,1.3-1.3v-2A1.3,1.3,0,0,0,279.75,254.28Zm19.16,2h0a1.3,1.3,0,0,0-1.3,1.3h0a1.3,1.3,0,0,0,1.3,1.3h0a1.3,1.3,0,0,0,1.3-1.3h0A1.3,1.3,0,0,0,298.91,256.3ZM362,222.94h-3a2.91,2.91,0,0,0-2.91,2.91v3A2.91,2.91,0,0,0,359,231.8h3a2.91,2.91,0,0,0,2.91-2.91v-3A2.91,2.91,0,0,0,362,222.94Zm-10.38-9.25h0a1.3,1.3,0,0,0-1.3,1.3h0a1.3,1.3,0,0,0,1.3,1.3h0a1.3,1.3,0,0,0,1.3-1.3h0A1.3,1.3,0,0,0,351.61,213.69Zm19.16,0h0a1.3,1.3,0,0,0-1.3,1.3h0a1.3,1.3,0,0,0,1.3,1.3h0a1.3,1.3,0,0,0,1.3-1.3h0A1.3,1.3,0,0,0,370.77,213.69Zm-19.16,22.61h-2a1.3,1.3,0,0,0-1.3,1.3v2a1.3,1.3,0,0,0,1.3,1.3h2a1.3,1.3,0,0,0,1.3-1.3v-2A1.3,1.3,0,0,0,351.61,236.29Zm19.16,2h0a1.3,1.3,0,0,0-1.3,1.3h0a1.3,1.3,0,0,0,1.3,1.3h0a1.3,1.3,0,0,0,1.3-1.3h0A1.3,1.3,0,0,0,370.77,238.32Zm-98.58-75.46h-3a2.91,2.91,0,0,0-2.91,2.91v3a2.91,2.91,0,0,0,2.91,2.91h3a2.91,2.91,0,0,0,2.91-2.91v-3A2.91,2.91,0,0,0,272.19,162.86Zm-13-11.85h0a1.3,1.3,0,0,0-1.3,1.3h0a1.3,1.3,0,0,0,1.3,1.3h0a1.3,1.3,0,0,0,1.3-1.3h0A1.3,1.3,0,0,0,259.21,151Zm19.16,0h0a1.3,1.3,0,0,0-1.3,1.3h0a1.3,1.3,0,0,0,1.3,1.3h0a1.3,1.3,0,0,0,1.3-1.3h0A1.3,1.3,0,0,0,278.36,151Zm-19.16,22.61h-2a1.3,1.3,0,0,0-1.3,1.3v2a1.3,1.3,0,0,0,1.3,1.3h2a1.3,1.3,0,0,0,1.3-1.3v-2A1.3,1.3,0,0,0,259.21,173.61Zm19.16,2h0a1.3,1.3,0,0,0-1.3,1.3h0a1.3,1.3,0,0,0,1.3,1.3h0a1.3,1.3,0,0,0,1.3-1.3h0A1.3,1.3,0,0,0,278.36,175.63ZM233.91,148.4h0a1.3,1.3,0,0,0-1.3,1.3h0a1.3,1.3,0,0,0,1.3,1.3h0a1.3,1.3,0,0,0,1.3-1.3h0A1.3,1.3,0,0,0,233.91,148.4ZM307,201.69v3a2.91,2.91,0,0,0,2.91,2.91h3a2.91,2.91,0,0,0,2.91-2.91v-3a2.91,2.91,0,0,0-2.91-2.91h-3A2.91,2.91,0,0,0,307,201.69Zm-11.85,7.78h0a1.3,1.3,0,0,0,1.3,1.3h0a1.3,1.3,0,0,0,1.3-1.3h0a1.3,1.3,0,0,0-1.3-1.3h0A1.3,1.3,0,0,0,295.12,209.48Zm0-19.16h0a1.3,1.3,0,0,0,1.3,1.3h0a1.3,1.3,0,0,0,1.3-1.3h0a1.3,1.3,0,0,0-1.3-1.3h0A1.3,1.3,0,0,0,295.12,190.32Zm22.61,19.16v2a1.3,1.3,0,0,0,1.3,1.3h2a1.3,1.3,0,0,0,1.3-1.3v-2a1.3,1.3,0,0,0-1.3-1.3h-2A1.3,1.3,0,0,0,317.73,209.48Zm2-19.16h0a1.3,1.3,0,0,0,1.3,1.3h0a1.3,1.3,0,0,0,1.3-1.3h0a1.3,1.3,0,0,0-1.3-1.3h0A1.3,1.3,0,0,0,319.75,190.32Zm21.12-6.95v-3a2.91,2.91,0,0,0-2.91-2.91h-3a2.91,2.91,0,0,0-2.91,2.91v3a2.91,2.91,0,0,0,2.91,2.91h3A2.91,2.91,0,0,0,340.87,183.37Zm6.65-13h0a1.3,1.3,0,0,0-1.3-1.3h0a1.3,1.3,0,0,0-1.3,1.3h0a1.3,1.3,0,0,0,1.3,1.3h0A1.3,1.3,0,0,0,347.52,170.39Zm0,19.16h0a1.3,1.3,0,0,0-1.3-1.3h0a1.3,1.3,0,0,0-1.3,1.3h0a1.3,1.3,0,0,0,1.3,1.3h0A1.3,1.3,0,0,0,347.52,189.55Zm-22.61-19.16v-2a1.3,1.3,0,0,0-1.3-1.3h-2a1.3,1.3,0,0,0-1.3,1.3v2a1.3,1.3,0,0,0,1.3,1.3h2A1.3,1.3,0,0,0,324.92,170.39Zm-2,19.16h0a1.3,1.3,0,0,0-1.3-1.3h0a1.3,1.3,0,0,0-1.3,1.3h0a1.3,1.3,0,0,0,1.3,1.3h0A1.3,1.3,0,0,0,322.9,189.55Z"/><path class="cls-6" d="M119.8,302.5h-3a2.91,2.91,0,0,1-2.91-2.91v-3a2.91,2.91,0,0,1,2.91-2.91h3a2.91,2.91,0,0,1,2.91,2.91v3A2.91,2.91,0,0,1,119.8,302.5Zm-2.88-15.29h0a1.3,1.3,0,0,0-1.3-1.3h0a1.3,1.3,0,0,0-1.3,1.3h0a1.3,1.3,0,0,0,1.3,1.3h0A1.3,1.3,0,0,0,116.91,287.21Zm0,19.16h0a1.3,1.3,0,0,0-1.3-1.3h0a1.3,1.3,0,0,0-1.3,1.3h0a1.3,1.3,0,0,0,1.3,1.3h0A1.3,1.3,0,0,0,116.91,306.37Zm-10.16-19.75v-2a1.3,1.3,0,0,0-1.3-1.3h-2a1.3,1.3,0,0,0-1.3,1.3v2a1.3,1.3,0,0,0,1.3,1.3h2A1.3,1.3,0,0,0,106.75,286.61Zm77.43,22.07v-2a1.3,1.3,0,0,0-1.3-1.3h-2a1.3,1.3,0,0,0-1.3,1.3v2a1.3,1.3,0,0,0,1.3,1.3h2A1.3,1.3,0,0,0,184.18,308.68Zm-48.49-34.35v-2a1.3,1.3,0,0,0-1.3-1.3h-2a1.3,1.3,0,0,0-1.3,1.3v2a1.3,1.3,0,0,0,1.3,1.3h2A1.3,1.3,0,0,0,135.69,274.33Zm35-44.2v-2a1.3,1.3,0,0,0-1.3-1.3h-2a1.3,1.3,0,0,0-1.3,1.3v2a1.3,1.3,0,0,0,1.3,1.3h2A1.3,1.3,0,0,0,170.67,230.14Zm-65.94,75.64h0a1.3,1.3,0,0,0-1.3-1.3h0a1.3,1.3,0,0,0-1.3,1.3h0a1.3,1.3,0,0,0,1.3,1.3h0A1.3,1.3,0,0,0,104.73,305.77Zm-9.44-39.93v-3a2.91,2.91,0,0,0-2.91-2.91h-3a2.91,2.91,0,0,0-2.91,2.91v3a2.91,2.91,0,0,0,2.91,2.91h3A2.91,2.91,0,0,0,95.29,265.84Zm6.65-13h0a1.3,1.3,0,0,0-1.3-1.3h0a1.3,1.3,0,0,0-1.3,1.3h0a1.3,1.3,0,0,0,1.3,1.3h0A1.3,1.3,0,0,0,101.95,252.86Zm0,19.16h0a1.3,1.3,0,0,0-1.3-1.3h0a1.3,1.3,0,0,0-1.3,1.3h0a1.3,1.3,0,0,0,1.3,1.3h0A1.3,1.3,0,0,0,101.95,272ZM79.34,252.86v-2a1.3,1.3,0,0,0-1.3-1.3H76a1.3,1.3,0,0,0-1.3,1.3v2a1.3,1.3,0,0,0,1.3,1.3h2A1.3,1.3,0,0,0,79.34,252.86Zm-2,19.16h0a1.3,1.3,0,0,0-1.3-1.3h0a1.3,1.3,0,0,0-1.3,1.3h0a1.3,1.3,0,0,0,1.3,1.3h0A1.3,1.3,0,0,0,77.32,272Zm28.62,66.08v3a2.91,2.91,0,0,0,2.91,2.91h3a2.91,2.91,0,0,0,2.91-2.91v-3a2.91,2.91,0,0,0-2.91-2.91h-3A2.91,2.91,0,0,0,105.93,338.1Zm-43.49,6.64h0a1.3,1.3,0,0,0,1.3,1.3h0a1.3,1.3,0,0,0,1.3-1.3h0a1.3,1.3,0,0,0-1.3-1.3h0A1.3,1.3,0,0,0,62.44,344.74Zm31.64-18h0a1.3,1.3,0,0,0,1.3,1.3h0a1.3,1.3,0,0,0,1.3-1.3h0a1.3,1.3,0,0,0-1.3-1.3h0A1.3,1.3,0,0,0,94.08,326.73ZM73.41,309.49h0a1.3,1.3,0,0,0,1.3,1.3h0a1.3,1.3,0,0,0,1.3-1.3h0a1.3,1.3,0,0,0-1.3-1.3h0A1.3,1.3,0,0,0,73.41,309.49ZM85,344.74v2a1.3,1.3,0,0,0,1.3,1.3h2a1.3,1.3,0,0,0,1.3-1.3v-2a1.3,1.3,0,0,0-1.3-1.3h-2A1.3,1.3,0,0,0,85,344.74Zm60.8,15.93v2a1.3,1.3,0,0,0,1.3,1.3h2a1.3,1.3,0,0,0,1.3-1.3v-2a1.3,1.3,0,0,0-1.3-1.3h-2A1.3,1.3,0,0,0,145.85,360.67ZM87.07,325.59h0a1.3,1.3,0,0,0,1.3,1.3h0a1.3,1.3,0,0,0,1.3-1.3h0a1.3,1.3,0,0,0-1.3-1.3h0A1.3,1.3,0,0,0,87.07,325.59Zm-30-31.94h0a1.3,1.3,0,0,0,1.3,1.3h0a1.3,1.3,0,0,0,1.3-1.3h0a1.3,1.3,0,0,0-1.3-1.3h0A1.3,1.3,0,0,0,57.07,293.64Zm129.32,56.48h6.25a1.3,1.3,0,0,0,1.3-1.3v-6.25a1.3,1.3,0,0,0-1.3-1.3h-6.25a1.3,1.3,0,0,0-1.3,1.3v6.25A1.3,1.3,0,0,0,186.38,350.12Zm12,9.25h0a1.3,1.3,0,0,0,1.3-1.3h0a1.3,1.3,0,0,0-1.3-1.3h0a1.3,1.3,0,0,0-1.3,1.3h0A1.3,1.3,0,0,0,198.37,359.37Zm-19.16,0h0a1.3,1.3,0,0,0,1.3-1.3h0a1.3,1.3,0,0,0-1.3-1.3h0a1.3,1.3,0,0,0-1.3,1.3h0A1.3,1.3,0,0,0,179.22,359.37Zm19.16-22.61h2a1.3,1.3,0,0,0,1.3-1.3v-2a1.3,1.3,0,0,0-1.3-1.3h-2a1.3,1.3,0,0,0-1.3,1.3v2A1.3,1.3,0,0,0,198.37,336.76Zm-19.16-2h0a1.3,1.3,0,0,0,1.3-1.3h0a1.3,1.3,0,0,0-1.3-1.3h0a1.3,1.3,0,0,0-1.3,1.3h0A1.3,1.3,0,0,0,179.22,334.74Zm-29.53-18h-3a2.91,2.91,0,0,0-2.91,2.91v3a2.91,2.91,0,0,0,2.91,2.91h3a2.91,2.91,0,0,0,2.91-2.91v-3A2.91,2.91,0,0,0,149.68,316.72Zm-13-11.85h0a1.3,1.3,0,0,0-1.3,1.3h0a1.3,1.3,0,0,0,1.3,1.3h0a1.3,1.3,0,0,0,1.3-1.3h0A1.3,1.3,0,0,0,136.7,304.87Zm19.16,0h0a1.3,1.3,0,0,0-1.3,1.3h0a1.3,1.3,0,0,0,1.3,1.3h0a1.3,1.3,0,0,0,1.3-1.3h0A1.3,1.3,0,0,0,155.86,304.87ZM136.7,327.48h-2a1.3,1.3,0,0,0-1.3,1.3v2a1.3,1.3,0,0,0,1.3,1.3h2a1.3,1.3,0,0,0,1.3-1.3v-2A1.3,1.3,0,0,0,136.7,327.48Zm19.16,2h0a1.3,1.3,0,0,0-1.3,1.3h0a1.3,1.3,0,0,0,1.3,1.3h0a1.3,1.3,0,0,0,1.3-1.3h0A1.3,1.3,0,0,0,155.86,329.5Zm63.09-33.36h-3A2.91,2.91,0,0,0,213,299v3a2.91,2.91,0,0,0,2.91,2.91h3a2.91,2.91,0,0,0,2.91-2.91v-3A2.91,2.91,0,0,0,218.95,296.14Zm-10.38-9.25h0a1.3,1.3,0,0,0-1.3,1.3h0a1.3,1.3,0,0,0,1.3,1.3h0a1.3,1.3,0,0,0,1.3-1.3h0A1.3,1.3,0,0,0,208.57,286.89Zm19.16,0h0a1.3,1.3,0,0,0-1.3,1.3h0a1.3,1.3,0,0,0,1.3,1.3h0a1.3,1.3,0,0,0,1.3-1.3h0A1.3,1.3,0,0,0,227.72,286.89Zm-19.16,22.61h-2a1.3,1.3,0,0,0-1.3,1.3v2a1.3,1.3,0,0,0,1.3,1.3h2a1.3,1.3,0,0,0,1.3-1.3v-2A1.3,1.3,0,0,0,208.57,309.49Zm19.16,2h0a1.3,1.3,0,0,0-1.3,1.3h0a1.3,1.3,0,0,0,1.3,1.3h0a1.3,1.3,0,0,0,1.3-1.3h0A1.3,1.3,0,0,0,227.72,311.51Zm-98.58-75.46h-3a2.91,2.91,0,0,0-2.91,2.91v3a2.91,2.91,0,0,0,2.91,2.91h3a2.91,2.91,0,0,0,2.91-2.91v-3A2.91,2.91,0,0,0,129.14,236.05Zm-13-11.85h0a1.3,1.3,0,0,0-1.3,1.3h0a1.3,1.3,0,0,0,1.3,1.3h0a1.3,1.3,0,0,0,1.3-1.3h0A1.3,1.3,0,0,0,116.16,224.21Zm19.16,0h0a1.3,1.3,0,0,0-1.3,1.3h0a1.3,1.3,0,0,0,1.3,1.3h0a1.3,1.3,0,0,0,1.3-1.3h0A1.3,1.3,0,0,0,135.32,224.21Zm-19.16,22.61h-2a1.3,1.3,0,0,0-1.3,1.3v2a1.3,1.3,0,0,0,1.3,1.3h2a1.3,1.3,0,0,0,1.3-1.3v-2A1.3,1.3,0,0,0,116.16,246.81Zm19.16,2h0a1.3,1.3,0,0,0-1.3,1.3h0a1.3,1.3,0,0,0,1.3,1.3h0a1.3,1.3,0,0,0,1.3-1.3h0A1.3,1.3,0,0,0,135.32,248.83ZM90.86,221.6h0a1.3,1.3,0,0,0-1.3,1.3h0a1.3,1.3,0,0,0,1.3,1.3h0a1.3,1.3,0,0,0,1.3-1.3h0A1.3,1.3,0,0,0,90.86,221.6Zm73.07,53.29v3a2.91,2.91,0,0,0,2.91,2.91h3a2.91,2.91,0,0,0,2.91-2.91v-3a2.91,2.91,0,0,0-2.91-2.91h-3A2.91,2.91,0,0,0,163.93,274.89Zm-11.85,7.78h0a1.3,1.3,0,0,0,1.3,1.3h0a1.3,1.3,0,0,0,1.3-1.3h0a1.3,1.3,0,0,0-1.3-1.3h0A1.3,1.3,0,0,0,152.08,282.68Zm0-19.16h0a1.3,1.3,0,0,0,1.3,1.3h0a1.3,1.3,0,0,0,1.3-1.3h0a1.3,1.3,0,0,0-1.3-1.3h0A1.3,1.3,0,0,0,152.08,263.52Zm22.61,19.16v2A1.3,1.3,0,0,0,176,286h2a1.3,1.3,0,0,0,1.3-1.3v-2a1.3,1.3,0,0,0-1.3-1.3h-2A1.3,1.3,0,0,0,174.68,282.68Zm2-19.16h0a1.3,1.3,0,0,0,1.3,1.3h0a1.3,1.3,0,0,0,1.3-1.3h0a1.3,1.3,0,0,0-1.3-1.3h0A1.3,1.3,0,0,0,176.71,263.52Zm21.12-6.95v-3a2.91,2.91,0,0,0-2.91-2.91h-3a2.91,2.91,0,0,0-2.91,2.91v3a2.91,2.91,0,0,0,2.91,2.91h3A2.91,2.91,0,0,0,197.82,256.57Zm6.65-13h0a1.3,1.3,0,0,0-1.3-1.3h0a1.3,1.3,0,0,0-1.3,1.3h0a1.3,1.3,0,0,0,1.3,1.3h0A1.3,1.3,0,0,0,204.48,243.59Zm0,19.16h0a1.3,1.3,0,0,0-1.3-1.3h0a1.3,1.3,0,0,0-1.3,1.3h0a1.3,1.3,0,0,0,1.3,1.3h0A1.3,1.3,0,0,0,204.48,262.75Zm-22.61-19.16v-2a1.3,1.3,0,0,0-1.3-1.3h-2a1.3,1.3,0,0,0-1.3,1.3v2a1.3,1.3,0,0,0,1.3,1.3h2A1.3,1.3,0,0,0,181.87,243.59Zm-2,19.16h0a1.3,1.3,0,0,0-1.3-1.3h0a1.3,1.3,0,0,0-1.3,1.3h0a1.3,1.3,0,0,0,1.3,1.3h0A1.3,1.3,0,0,0,179.85,262.75Z"/><path class="cls-7" d="M-23.25,229.3h-3a2.91,2.91,0,0,1-2.91-2.91v-3a2.91,2.91,0,0,1,2.91-2.91h3a2.91,2.91,0,0,1,2.91,2.91v3A2.91,2.91,0,0,1-23.25,229.3ZM-26.13,214h0a1.3,1.3,0,0,0-1.3-1.3h0a1.3,1.3,0,0,0-1.3,1.3h0a1.3,1.3,0,0,0,1.3,1.3h0A1.3,1.3,0,0,0-26.13,214Zm0,19.16h0a1.3,1.3,0,0,0-1.3-1.3h0a1.3,1.3,0,0,0-1.3,1.3h0a1.3,1.3,0,0,0,1.3,1.3h0A1.3,1.3,0,0,0-26.13,233.17Zm-10.16-19.75v-2a1.3,1.3,0,0,0-1.3-1.3h-2a1.3,1.3,0,0,0-1.3,1.3v2a1.3,1.3,0,0,0,1.3,1.3h2A1.3,1.3,0,0,0-36.29,213.42Zm77.43,22.07v-2a1.3,1.3,0,0,0-1.3-1.3h-2a1.3,1.3,0,0,0-1.3,1.3v2a1.3,1.3,0,0,0,1.3,1.3h2A1.3,1.3,0,0,0,41.14,235.48ZM-7.35,201.13v-2a1.3,1.3,0,0,0-1.3-1.3h-2a1.3,1.3,0,0,0-1.3,1.3v2a1.3,1.3,0,0,0,1.3,1.3h2A1.3,1.3,0,0,0-7.35,201.13Zm35-44.2v-2a1.3,1.3,0,0,0-1.3-1.3h-2a1.3,1.3,0,0,0-1.3,1.3v2a1.3,1.3,0,0,0,1.3,1.3h2A1.3,1.3,0,0,0,27.62,156.94Zm-65.94,75.64h0a1.3,1.3,0,0,0-1.3-1.3h0a1.3,1.3,0,0,0-1.3,1.3h0a1.3,1.3,0,0,0,1.3,1.3h0A1.3,1.3,0,0,0-38.31,232.57Zm-9.44-39.93v-3a2.91,2.91,0,0,0-2.91-2.91h-3a2.91,2.91,0,0,0-2.91,2.91v3a2.91,2.91,0,0,0,2.91,2.91h3A2.91,2.91,0,0,0-47.76,192.64Zm6.65-13h0a1.3,1.3,0,0,0-1.3-1.3h0a1.3,1.3,0,0,0-1.3,1.3h0a1.3,1.3,0,0,0,1.3,1.3h0A1.3,1.3,0,0,0-41.1,179.66Zm0,19.16h0a1.3,1.3,0,0,0-1.3-1.3h0a1.3,1.3,0,0,0-1.3,1.3h0a1.3,1.3,0,0,0,1.3,1.3h0A1.3,1.3,0,0,0-41.1,198.82Zm-22.61-19.16v-2a1.3,1.3,0,0,0-1.3-1.3h-2a1.3,1.3,0,0,0-1.3,1.3v2A1.3,1.3,0,0,0-67,181h2A1.3,1.3,0,0,0-63.71,179.66Zm-2,19.16h0a1.3,1.3,0,0,0-1.3-1.3h0a1.3,1.3,0,0,0-1.3,1.3h0a1.3,1.3,0,0,0,1.3,1.3h0A1.3,1.3,0,0,0-65.73,198.82Zm28.62,66.08v3a2.91,2.91,0,0,0,2.91,2.91h3a2.91,2.91,0,0,0,2.91-2.91v-3A2.91,2.91,0,0,0-31.16,262h-3A2.91,2.91,0,0,0-37.11,264.9Zm-43.49,6.64h0a1.3,1.3,0,0,0,1.3,1.3h0a1.3,1.3,0,0,0,1.3-1.3h0a1.3,1.3,0,0,0-1.3-1.3h0A1.3,1.3,0,0,0-80.61,271.54Zm31.64-18h0a1.3,1.3,0,0,0,1.3,1.3h0a1.3,1.3,0,0,0,1.3-1.3h0a1.3,1.3,0,0,0-1.3-1.3h0A1.3,1.3,0,0,0-49,253.53Zm-20.68-17.24h0a1.3,1.3,0,0,0,1.3,1.3h0a1.3,1.3,0,0,0,1.3-1.3h0a1.3,1.3,0,0,0-1.3-1.3h0A1.3,1.3,0,0,0-69.64,236.29ZM-58,271.54v2a1.3,1.3,0,0,0,1.3,1.3h2a1.3,1.3,0,0,0,1.3-1.3v-2a1.3,1.3,0,0,0-1.3-1.3h-2A1.3,1.3,0,0,0-58,271.54ZM2.8,287.47v2a1.3,1.3,0,0,0,1.3,1.3h2a1.3,1.3,0,0,0,1.3-1.3v-2a1.3,1.3,0,0,0-1.3-1.3h-2A1.3,1.3,0,0,0,2.8,287.47ZM-56,252.39h0a1.3,1.3,0,0,0,1.3,1.3h0a1.3,1.3,0,0,0,1.3-1.3h0a1.3,1.3,0,0,0-1.3-1.3h0A1.3,1.3,0,0,0-56,252.39Zm-30-31.94h0a1.3,1.3,0,0,0,1.3,1.3h0a1.3,1.3,0,0,0,1.3-1.3h0a1.3,1.3,0,0,0-1.3-1.3h0A1.3,1.3,0,0,0-86,220.44ZM43.34,276.92h6.25a1.3,1.3,0,0,0,1.3-1.3v-6.25a1.3,1.3,0,0,0-1.3-1.3H43.34a1.3,1.3,0,0,0-1.3,1.3v6.25A1.3,1.3,0,0,0,43.34,276.92Zm12,9.25h0a1.3,1.3,0,0,0,1.3-1.3h0a1.3,1.3,0,0,0-1.3-1.3h0a1.3,1.3,0,0,0-1.3,1.3h0A1.3,1.3,0,0,0,55.32,286.17Zm-19.16,0h0a1.3,1.3,0,0,0,1.3-1.3h0a1.3,1.3,0,0,0-1.3-1.3h0a1.3,1.3,0,0,0-1.3,1.3h0A1.3,1.3,0,0,0,36.17,286.17Zm19.16-22.61h2a1.3,1.3,0,0,0,1.3-1.3v-2a1.3,1.3,0,0,0-1.3-1.3h-2a1.3,1.3,0,0,0-1.3,1.3v2A1.3,1.3,0,0,0,55.32,263.56Zm-19.16-2h0a1.3,1.3,0,0,0,1.3-1.3h0a1.3,1.3,0,0,0-1.3-1.3h0a1.3,1.3,0,0,0-1.3,1.3h0A1.3,1.3,0,0,0,36.17,261.54Zm-29.53-18h-3a2.91,2.91,0,0,0-2.91,2.91v3a2.91,2.91,0,0,0,2.91,2.91h3a2.91,2.91,0,0,0,2.91-2.91v-3A2.91,2.91,0,0,0,6.64,243.52Zm-13-11.85h0a1.3,1.3,0,0,0-1.3,1.3h0a1.3,1.3,0,0,0,1.3,1.3h0A1.3,1.3,0,0,0-5,233h0A1.3,1.3,0,0,0-6.34,231.67Zm19.16,0h0a1.3,1.3,0,0,0-1.3,1.3h0a1.3,1.3,0,0,0,1.3,1.3h0a1.3,1.3,0,0,0,1.3-1.3h0A1.3,1.3,0,0,0,12.81,231.67ZM-6.34,254.28h-2a1.3,1.3,0,0,0-1.3,1.3v2a1.3,1.3,0,0,0,1.3,1.3h2a1.3,1.3,0,0,0,1.3-1.3v-2A1.3,1.3,0,0,0-6.34,254.28Zm19.16,2h0a1.3,1.3,0,0,0-1.3,1.3h0a1.3,1.3,0,0,0,1.3,1.3h0a1.3,1.3,0,0,0,1.3-1.3h0A1.3,1.3,0,0,0,12.81,256.3ZM75.9,222.94h-3A2.91,2.91,0,0,0,70,225.85v3a2.91,2.91,0,0,0,2.91,2.91h3a2.91,2.91,0,0,0,2.91-2.91v-3A2.91,2.91,0,0,0,75.9,222.94Zm-10.38-9.25h0a1.3,1.3,0,0,0-1.3,1.3h0a1.3,1.3,0,0,0,1.3,1.3h0a1.3,1.3,0,0,0,1.3-1.3h0A1.3,1.3,0,0,0,65.52,213.69Zm19.16,0h0a1.3,1.3,0,0,0-1.3,1.3h0a1.3,1.3,0,0,0,1.3,1.3h0A1.3,1.3,0,0,0,86,215h0A1.3,1.3,0,0,0,84.68,213.69ZM65.52,236.29h-2a1.3,1.3,0,0,0-1.3,1.3v2a1.3,1.3,0,0,0,1.3,1.3h2a1.3,1.3,0,0,0,1.3-1.3v-2A1.3,1.3,0,0,0,65.52,236.29Zm19.16,2h0a1.3,1.3,0,0,0-1.3,1.3h0a1.3,1.3,0,0,0,1.3,1.3h0a1.3,1.3,0,0,0,1.3-1.3h0A1.3,1.3,0,0,0,84.68,238.32Zm-98.58-75.46h-3a2.91,2.91,0,0,0-2.91,2.91v3a2.91,2.91,0,0,0,2.91,2.91h3A2.91,2.91,0,0,0-11,168.81v-3A2.91,2.91,0,0,0-13.91,162.86Zm-13-11.85h0a1.3,1.3,0,0,0-1.3,1.3h0a1.3,1.3,0,0,0,1.3,1.3h0a1.3,1.3,0,0,0,1.3-1.3h0A1.3,1.3,0,0,0-26.88,151Zm19.16,0h0a1.3,1.3,0,0,0-1.3,1.3h0a1.3,1.3,0,0,0,1.3,1.3h0a1.3,1.3,0,0,0,1.3-1.3h0A1.3,1.3,0,0,0-7.73,151Zm-19.16,22.61h-2a1.3,1.3,0,0,0-1.3,1.3v2a1.3,1.3,0,0,0,1.3,1.3h2a1.3,1.3,0,0,0,1.3-1.3v-2A1.3,1.3,0,0,0-26.88,173.61Zm19.16,2h0a1.3,1.3,0,0,0-1.3,1.3h0a1.3,1.3,0,0,0,1.3,1.3h0a1.3,1.3,0,0,0,1.3-1.3h0A1.3,1.3,0,0,0-7.73,175.63ZM-52.19,148.4h0a1.3,1.3,0,0,0-1.3,1.3h0a1.3,1.3,0,0,0,1.3,1.3h0a1.3,1.3,0,0,0,1.3-1.3h0A1.3,1.3,0,0,0-52.19,148.4Zm73.07,53.29v3a2.91,2.91,0,0,0,2.91,2.91h3a2.91,2.91,0,0,0,2.91-2.91v-3a2.91,2.91,0,0,0-2.91-2.91h-3A2.91,2.91,0,0,0,20.88,201.69ZM9,209.48H9a1.3,1.3,0,0,0,1.3,1.3h0a1.3,1.3,0,0,0,1.3-1.3h0a1.3,1.3,0,0,0-1.3-1.3h0A1.3,1.3,0,0,0,9,209.48Zm0-19.16H9a1.3,1.3,0,0,0,1.3,1.3h0a1.3,1.3,0,0,0,1.3-1.3h0a1.3,1.3,0,0,0-1.3-1.3h0A1.3,1.3,0,0,0,9,190.32Zm22.61,19.16v2a1.3,1.3,0,0,0,1.3,1.3h2a1.3,1.3,0,0,0,1.3-1.3v-2a1.3,1.3,0,0,0-1.3-1.3h-2A1.3,1.3,0,0,0,31.64,209.48Zm2-19.16h0a1.3,1.3,0,0,0,1.3,1.3h0a1.3,1.3,0,0,0,1.3-1.3h0A1.3,1.3,0,0,0,35,189h0A1.3,1.3,0,0,0,33.66,190.32Zm21.12-6.95v-3a2.91,2.91,0,0,0-2.91-2.91h-3a2.91,2.91,0,0,0-2.91,2.91v3a2.91,2.91,0,0,0,2.91,2.91h3A2.91,2.91,0,0,0,54.78,183.37Zm6.65-13h0a1.3,1.3,0,0,0-1.3-1.3h0a1.3,1.3,0,0,0-1.3,1.3h0a1.3,1.3,0,0,0,1.3,1.3h0A1.3,1.3,0,0,0,61.43,170.39Zm0,19.16h0a1.3,1.3,0,0,0-1.3-1.3h0a1.3,1.3,0,0,0-1.3,1.3h0a1.3,1.3,0,0,0,1.3,1.3h0A1.3,1.3,0,0,0,61.43,189.55ZM38.82,170.39v-2a1.3,1.3,0,0,0-1.3-1.3h-2a1.3,1.3,0,0,0-1.3,1.3v2a1.3,1.3,0,0,0,1.3,1.3h2A1.3,1.3,0,0,0,38.82,170.39Zm-2,19.16h0a1.3,1.3,0,0,0-1.3-1.3h0a1.3,1.3,0,0,0-1.3,1.3h0a1.3,1.3,0,0,0,1.3,1.3h0A1.3,1.3,0,0,0,36.8,189.55Z"/><path class="cls-8" d="M262.84,82.91h-3A2.91,2.91,0,0,1,256.89,80V77A2.91,2.91,0,0,1,259.8,74h3A2.91,2.91,0,0,1,265.75,77v3A2.91,2.91,0,0,1,262.84,82.91ZM260,67.61h0a1.3,1.3,0,0,0-1.3-1.3h0a1.3,1.3,0,0,0-1.3,1.3h0a1.3,1.3,0,0,0,1.3,1.3h0A1.3,1.3,0,0,0,260,67.61Zm0,19.16h0a1.3,1.3,0,0,0-1.3-1.3h0a1.3,1.3,0,0,0-1.3,1.3h0a1.3,1.3,0,0,0,1.3,1.3h0A1.3,1.3,0,0,0,260,86.77ZM249.8,67V65a1.3,1.3,0,0,0-1.3-1.3h-2a1.3,1.3,0,0,0-1.3,1.3v2a1.3,1.3,0,0,0,1.3,1.3h2A1.3,1.3,0,0,0,249.8,67Zm77.43,22.07v-2a1.3,1.3,0,0,0-1.3-1.3h-2a1.3,1.3,0,0,0-1.3,1.3v2a1.3,1.3,0,0,0,1.3,1.3h2A1.3,1.3,0,0,0,327.23,89.08ZM278.74,54.74v-2a1.3,1.3,0,0,0-1.3-1.3h-2a1.3,1.3,0,0,0-1.3,1.3v2a1.3,1.3,0,0,0,1.3,1.3h2A1.3,1.3,0,0,0,278.74,54.74Zm35-44.2v-2a1.3,1.3,0,0,0-1.3-1.3h-2a1.3,1.3,0,0,0-1.3,1.3v2a1.3,1.3,0,0,0,1.3,1.3h2A1.3,1.3,0,0,0,313.72,10.54ZM247.78,86.17h0a1.3,1.3,0,0,0-1.3-1.3h0a1.3,1.3,0,0,0-1.3,1.3h0a1.3,1.3,0,0,0,1.3,1.3h0A1.3,1.3,0,0,0,247.78,86.17Zm-9.44-39.93v-3a2.91,2.91,0,0,0-2.91-2.91h-3a2.91,2.91,0,0,0-2.91,2.91v3a2.91,2.91,0,0,0,2.91,2.91h3A2.91,2.91,0,0,0,238.34,46.24Zm6.65-13h0a1.3,1.3,0,0,0-1.3-1.3h0a1.3,1.3,0,0,0-1.3,1.3h0a1.3,1.3,0,0,0,1.3,1.3h0A1.3,1.3,0,0,0,245,33.27Zm0,19.16h0a1.3,1.3,0,0,0-1.3-1.3h0a1.3,1.3,0,0,0-1.3,1.3h0a1.3,1.3,0,0,0,1.3,1.3h0A1.3,1.3,0,0,0,245,52.42ZM222.38,33.27v-2a1.3,1.3,0,0,0-1.3-1.3h-2a1.3,1.3,0,0,0-1.3,1.3v2a1.3,1.3,0,0,0,1.3,1.3h2A1.3,1.3,0,0,0,222.38,33.27Zm-2,19.16h0a1.3,1.3,0,0,0-1.3-1.3h0a1.3,1.3,0,0,0-1.3,1.3h0a1.3,1.3,0,0,0,1.3,1.3h0A1.3,1.3,0,0,0,220.36,52.42ZM249,118.51v3a2.91,2.91,0,0,0,2.91,2.91h3a2.91,2.91,0,0,0,2.91-2.91v-3a2.91,2.91,0,0,0-2.91-2.91h-3A2.91,2.91,0,0,0,249,118.51Zm-43.49,6.64h0a1.3,1.3,0,0,0,1.3,1.3h0a1.3,1.3,0,0,0,1.3-1.3h0a1.3,1.3,0,0,0-1.3-1.3h0A1.3,1.3,0,0,0,205.49,125.14Zm31.64-18h0a1.3,1.3,0,0,0,1.3,1.3h0a1.3,1.3,0,0,0,1.3-1.3h0a1.3,1.3,0,0,0-1.3-1.3h0A1.3,1.3,0,0,0,237.13,107.13ZM216.45,89.89h0a1.3,1.3,0,0,0,1.3,1.3h0a1.3,1.3,0,0,0,1.3-1.3h0a1.3,1.3,0,0,0-1.3-1.3h0A1.3,1.3,0,0,0,216.45,89.89Zm11.64,35.25v2a1.3,1.3,0,0,0,1.3,1.3h2a1.3,1.3,0,0,0,1.3-1.3v-2a1.3,1.3,0,0,0-1.3-1.3h-2A1.3,1.3,0,0,0,228.1,125.14Zm60.8,15.93v2a1.3,1.3,0,0,0,1.3,1.3h2a1.3,1.3,0,0,0,1.3-1.3v-2a1.3,1.3,0,0,0-1.3-1.3h-2A1.3,1.3,0,0,0,288.9,141.08ZM230.12,106h0a1.3,1.3,0,0,0,1.3,1.3h0a1.3,1.3,0,0,0,1.3-1.3h0a1.3,1.3,0,0,0-1.3-1.3h0A1.3,1.3,0,0,0,230.12,106ZM200.11,74h0a1.3,1.3,0,0,0,1.3,1.3h0a1.3,1.3,0,0,0,1.3-1.3h0a1.3,1.3,0,0,0-1.3-1.3h0A1.3,1.3,0,0,0,200.11,74Zm129.32,56.48h6.25a1.3,1.3,0,0,0,1.3-1.3V123a1.3,1.3,0,0,0-1.3-1.3h-6.25a1.3,1.3,0,0,0-1.3,1.3v6.25A1.3,1.3,0,0,0,329.43,130.52Zm12,9.25h0a1.3,1.3,0,0,0,1.3-1.3h0a1.3,1.3,0,0,0-1.3-1.3h0a1.3,1.3,0,0,0-1.3,1.3h0A1.3,1.3,0,0,0,341.42,139.77Zm-19.16,0h0a1.3,1.3,0,0,0,1.3-1.3h0a1.3,1.3,0,0,0-1.3-1.3h0a1.3,1.3,0,0,0-1.3,1.3h0A1.3,1.3,0,0,0,322.26,139.77Zm19.16-22.61h2a1.3,1.3,0,0,0,1.3-1.3v-2a1.3,1.3,0,0,0-1.3-1.3h-2a1.3,1.3,0,0,0-1.3,1.3v2A1.3,1.3,0,0,0,341.42,117.16Zm-19.16-2h0a1.3,1.3,0,0,0,1.3-1.3h0a1.3,1.3,0,0,0-1.3-1.3h0a1.3,1.3,0,0,0-1.3,1.3h0A1.3,1.3,0,0,0,322.26,115.14Zm-29.53-18h-3a2.91,2.91,0,0,0-2.91,2.91v3a2.91,2.91,0,0,0,2.91,2.91h3a2.91,2.91,0,0,0,2.91-2.91v-3A2.91,2.91,0,0,0,292.73,97.12Zm-13-11.85h0a1.3,1.3,0,0,0-1.3,1.3h0a1.3,1.3,0,0,0,1.3,1.3h0a1.3,1.3,0,0,0,1.3-1.3h0A1.3,1.3,0,0,0,279.75,85.27Zm19.16,0h0a1.3,1.3,0,0,0-1.3,1.3h0a1.3,1.3,0,0,0,1.3,1.3h0a1.3,1.3,0,0,0,1.3-1.3h0A1.3,1.3,0,0,0,298.91,85.27Zm-19.16,22.61h-2a1.3,1.3,0,0,0-1.3,1.3v2a1.3,1.3,0,0,0,1.3,1.3h2a1.3,1.3,0,0,0,1.3-1.3v-2A1.3,1.3,0,0,0,279.75,107.88Zm19.16,2h0a1.3,1.3,0,0,0-1.3,1.3h0a1.3,1.3,0,0,0,1.3,1.3h0a1.3,1.3,0,0,0,1.3-1.3h0A1.3,1.3,0,0,0,298.91,109.9ZM362,76.54h-3A2.91,2.91,0,0,0,356,79.45v3A2.91,2.91,0,0,0,359,85.4h3a2.91,2.91,0,0,0,2.91-2.91v-3A2.91,2.91,0,0,0,362,76.54Zm-10.38-9.25h0a1.3,1.3,0,0,0-1.3,1.3h0a1.3,1.3,0,0,0,1.3,1.3h0a1.3,1.3,0,0,0,1.3-1.3h0A1.3,1.3,0,0,0,351.61,67.29Zm19.16,0h0a1.3,1.3,0,0,0-1.3,1.3h0a1.3,1.3,0,0,0,1.3,1.3h0a1.3,1.3,0,0,0,1.3-1.3h0A1.3,1.3,0,0,0,370.77,67.29ZM351.61,89.89h-2a1.3,1.3,0,0,0-1.3,1.3v2a1.3,1.3,0,0,0,1.3,1.3h2a1.3,1.3,0,0,0,1.3-1.3v-2A1.3,1.3,0,0,0,351.61,89.89Zm19.16,2h0a1.3,1.3,0,0,0-1.3,1.3h0a1.3,1.3,0,0,0,1.3,1.3h0a1.3,1.3,0,0,0,1.3-1.3h0A1.3,1.3,0,0,0,370.77,91.92ZM272.19,16.46h-3a2.91,2.91,0,0,0-2.91,2.91v3a2.91,2.91,0,0,0,2.91,2.91h3a2.91,2.91,0,0,0,2.91-2.91v-3A2.91,2.91,0,0,0,272.19,16.46Zm-13-11.85h0a1.3,1.3,0,0,0-1.3,1.3h0a1.3,1.3,0,0,0,1.3,1.3h0a1.3,1.3,0,0,0,1.3-1.3h0A1.3,1.3,0,0,0,259.21,4.61Zm19.16,0h0a1.3,1.3,0,0,0-1.3,1.3h0a1.3,1.3,0,0,0,1.3,1.3h0a1.3,1.3,0,0,0,1.3-1.3h0A1.3,1.3,0,0,0,278.36,4.61ZM259.21,27.21h-2a1.3,1.3,0,0,0-1.3,1.3v2a1.3,1.3,0,0,0,1.3,1.3h2a1.3,1.3,0,0,0,1.3-1.3v-2A1.3,1.3,0,0,0,259.21,27.21Zm19.16,2h0a1.3,1.3,0,0,0-1.3,1.3h0a1.3,1.3,0,0,0,1.3,1.3h0a1.3,1.3,0,0,0,1.3-1.3h0A1.3,1.3,0,0,0,278.36,29.24ZM233.91,2h0a1.3,1.3,0,0,0-1.3,1.3h0a1.3,1.3,0,0,0,1.3,1.3h0a1.3,1.3,0,0,0,1.3-1.3h0A1.3,1.3,0,0,0,233.91,2ZM307,55.29v3a2.91,2.91,0,0,0,2.91,2.91h3a2.91,2.91,0,0,0,2.91-2.91v-3a2.91,2.91,0,0,0-2.91-2.91h-3A2.91,2.91,0,0,0,307,55.29Zm-11.85,7.78h0a1.3,1.3,0,0,0,1.3,1.3h0a1.3,1.3,0,0,0,1.3-1.3h0a1.3,1.3,0,0,0-1.3-1.3h0A1.3,1.3,0,0,0,295.12,63.08Zm0-19.16h0a1.3,1.3,0,0,0,1.3,1.3h0a1.3,1.3,0,0,0,1.3-1.3h0a1.3,1.3,0,0,0-1.3-1.3h0A1.3,1.3,0,0,0,295.12,43.92Zm22.61,19.16v2a1.3,1.3,0,0,0,1.3,1.3h2a1.3,1.3,0,0,0,1.3-1.3v-2a1.3,1.3,0,0,0-1.3-1.3h-2A1.3,1.3,0,0,0,317.73,63.08Zm2-19.16h0a1.3,1.3,0,0,0,1.3,1.3h0a1.3,1.3,0,0,0,1.3-1.3h0a1.3,1.3,0,0,0-1.3-1.3h0A1.3,1.3,0,0,0,319.75,43.92ZM340.87,37v-3A2.91,2.91,0,0,0,338,31h-3A2.91,2.91,0,0,0,332,33.93v3a2.91,2.91,0,0,0,2.91,2.91h3A2.91,2.91,0,0,0,340.87,37Zm6.65-13h0a1.3,1.3,0,0,0-1.3-1.3h0a1.3,1.3,0,0,0-1.3,1.3h0a1.3,1.3,0,0,0,1.3,1.3h0A1.3,1.3,0,0,0,347.52,24Zm0,19.16h0a1.3,1.3,0,0,0-1.3-1.3h0a1.3,1.3,0,0,0-1.3,1.3h0a1.3,1.3,0,0,0,1.3,1.3h0A1.3,1.3,0,0,0,347.52,43.15ZM324.92,24V22a1.3,1.3,0,0,0-1.3-1.3h-2a1.3,1.3,0,0,0-1.3,1.3v2a1.3,1.3,0,0,0,1.3,1.3h2A1.3,1.3,0,0,0,324.92,24Zm-2,19.16h0a1.3,1.3,0,0,0-1.3-1.3h0a1.3,1.3,0,0,0-1.3,1.3h0a1.3,1.3,0,0,0,1.3,1.3h0A1.3,1.3,0,0,0,322.9,43.15Z"/><path class="cls-9" d="M119.8,156.1h-3a2.91,2.91,0,0,1-2.91-2.91v-3a2.91,2.91,0,0,1,2.91-2.91h3a2.91,2.91,0,0,1,2.91,2.91v3A2.91,2.91,0,0,1,119.8,156.1Zm-2.88-15.29h0a1.3,1.3,0,0,0-1.3-1.3h0a1.3,1.3,0,0,0-1.3,1.3h0a1.3,1.3,0,0,0,1.3,1.3h0A1.3,1.3,0,0,0,116.91,140.81Zm0,19.16h0a1.3,1.3,0,0,0-1.3-1.3h0a1.3,1.3,0,0,0-1.3,1.3h0a1.3,1.3,0,0,0,1.3,1.3h0A1.3,1.3,0,0,0,116.91,160Zm-10.16-19.75v-2a1.3,1.3,0,0,0-1.3-1.3h-2a1.3,1.3,0,0,0-1.3,1.3v2a1.3,1.3,0,0,0,1.3,1.3h2A1.3,1.3,0,0,0,106.75,140.22Zm77.43,22.07v-2a1.3,1.3,0,0,0-1.3-1.3h-2a1.3,1.3,0,0,0-1.3,1.3v2a1.3,1.3,0,0,0,1.3,1.3h2A1.3,1.3,0,0,0,184.18,162.28Zm-48.49-34.35v-2a1.3,1.3,0,0,0-1.3-1.3h-2a1.3,1.3,0,0,0-1.3,1.3v2a1.3,1.3,0,0,0,1.3,1.3h2A1.3,1.3,0,0,0,135.69,127.93Zm35-44.2v-2a1.3,1.3,0,0,0-1.3-1.3h-2a1.3,1.3,0,0,0-1.3,1.3v2a1.3,1.3,0,0,0,1.3,1.3h2A1.3,1.3,0,0,0,170.67,83.74Zm-65.94,75.64h0a1.3,1.3,0,0,0-1.3-1.3h0a1.3,1.3,0,0,0-1.3,1.3h0a1.3,1.3,0,0,0,1.3,1.3h0A1.3,1.3,0,0,0,104.73,159.37Zm-9.44-39.93v-3a2.91,2.91,0,0,0-2.91-2.91h-3a2.91,2.91,0,0,0-2.91,2.91v3a2.91,2.91,0,0,0,2.91,2.91h3A2.91,2.91,0,0,0,95.29,119.44Zm6.65-13h0a1.3,1.3,0,0,0-1.3-1.3h0a1.3,1.3,0,0,0-1.3,1.3h0a1.3,1.3,0,0,0,1.3,1.3h0A1.3,1.3,0,0,0,101.95,106.47Zm0,19.16h0a1.3,1.3,0,0,0-1.3-1.3h0a1.3,1.3,0,0,0-1.3,1.3h0a1.3,1.3,0,0,0,1.3,1.3h0A1.3,1.3,0,0,0,101.95,125.62ZM79.34,106.47v-2a1.3,1.3,0,0,0-1.3-1.3H76a1.3,1.3,0,0,0-1.3,1.3v2a1.3,1.3,0,0,0,1.3,1.3h2A1.3,1.3,0,0,0,79.34,106.47Zm-2,19.16h0a1.3,1.3,0,0,0-1.3-1.3h0a1.3,1.3,0,0,0-1.3,1.3h0a1.3,1.3,0,0,0,1.3,1.3h0A1.3,1.3,0,0,0,77.32,125.62Zm28.62,66.08v3a2.91,2.91,0,0,0,2.91,2.91h3a2.91,2.91,0,0,0,2.91-2.91v-3a2.91,2.91,0,0,0-2.91-2.91h-3A2.91,2.91,0,0,0,105.93,191.7Zm-43.49,6.64h0a1.3,1.3,0,0,0,1.3,1.3h0a1.3,1.3,0,0,0,1.3-1.3h0a1.3,1.3,0,0,0-1.3-1.3h0A1.3,1.3,0,0,0,62.44,198.34Zm31.64-18h0a1.3,1.3,0,0,0,1.3,1.3h0a1.3,1.3,0,0,0,1.3-1.3h0a1.3,1.3,0,0,0-1.3-1.3h0A1.3,1.3,0,0,0,94.08,180.33ZM73.41,163.09h0a1.3,1.3,0,0,0,1.3,1.3h0a1.3,1.3,0,0,0,1.3-1.3h0a1.3,1.3,0,0,0-1.3-1.3h0A1.3,1.3,0,0,0,73.41,163.09ZM85,198.34v2a1.3,1.3,0,0,0,1.3,1.3h2a1.3,1.3,0,0,0,1.3-1.3v-2a1.3,1.3,0,0,0-1.3-1.3h-2A1.3,1.3,0,0,0,85,198.34Zm60.8,15.93v2a1.3,1.3,0,0,0,1.3,1.3h2a1.3,1.3,0,0,0,1.3-1.3v-2a1.3,1.3,0,0,0-1.3-1.3h-2A1.3,1.3,0,0,0,145.85,214.28ZM87.07,179.19h0a1.3,1.3,0,0,0,1.3,1.3h0a1.3,1.3,0,0,0,1.3-1.3h0a1.3,1.3,0,0,0-1.3-1.3h0A1.3,1.3,0,0,0,87.07,179.19Zm-30-31.94h0a1.3,1.3,0,0,0,1.3,1.3h0a1.3,1.3,0,0,0,1.3-1.3h0a1.3,1.3,0,0,0-1.3-1.3h0A1.3,1.3,0,0,0,57.07,147.24Zm129.32,56.48h6.25a1.3,1.3,0,0,0,1.3-1.3v-6.25a1.3,1.3,0,0,0-1.3-1.3h-6.25a1.3,1.3,0,0,0-1.3,1.3v6.25A1.3,1.3,0,0,0,186.38,203.72Zm12,9.25h0a1.3,1.3,0,0,0,1.3-1.3h0a1.3,1.3,0,0,0-1.3-1.3h0a1.3,1.3,0,0,0-1.3,1.3h0A1.3,1.3,0,0,0,198.37,213Zm-19.16,0h0a1.3,1.3,0,0,0,1.3-1.3h0a1.3,1.3,0,0,0-1.3-1.3h0a1.3,1.3,0,0,0-1.3,1.3h0A1.3,1.3,0,0,0,179.22,213Zm19.16-22.61h2a1.3,1.3,0,0,0,1.3-1.3v-2a1.3,1.3,0,0,0-1.3-1.3h-2a1.3,1.3,0,0,0-1.3,1.3v2A1.3,1.3,0,0,0,198.37,190.36Zm-19.16-2h0a1.3,1.3,0,0,0,1.3-1.3h0a1.3,1.3,0,0,0-1.3-1.3h0a1.3,1.3,0,0,0-1.3,1.3h0A1.3,1.3,0,0,0,179.22,188.34Zm-29.53-18h-3a2.91,2.91,0,0,0-2.91,2.91v3a2.91,2.91,0,0,0,2.91,2.91h3a2.91,2.91,0,0,0,2.91-2.91v-3A2.91,2.91,0,0,0,149.68,170.32Zm-13-11.85h0a1.3,1.3,0,0,0-1.3,1.3h0a1.3,1.3,0,0,0,1.3,1.3h0a1.3,1.3,0,0,0,1.3-1.3h0A1.3,1.3,0,0,0,136.7,158.47Zm19.16,0h0a1.3,1.3,0,0,0-1.3,1.3h0a1.3,1.3,0,0,0,1.3,1.3h0a1.3,1.3,0,0,0,1.3-1.3h0A1.3,1.3,0,0,0,155.86,158.47ZM136.7,181.08h-2a1.3,1.3,0,0,0-1.3,1.3v2a1.3,1.3,0,0,0,1.3,1.3h2a1.3,1.3,0,0,0,1.3-1.3v-2A1.3,1.3,0,0,0,136.7,181.08Zm19.16,2h0a1.3,1.3,0,0,0-1.3,1.3h0a1.3,1.3,0,0,0,1.3,1.3h0a1.3,1.3,0,0,0,1.3-1.3h0A1.3,1.3,0,0,0,155.86,183.1Zm63.09-33.36h-3a2.91,2.91,0,0,0-2.91,2.91v3a2.91,2.91,0,0,0,2.91,2.91h3a2.91,2.91,0,0,0,2.91-2.91v-3A2.91,2.91,0,0,0,218.95,149.74Zm-10.38-9.25h0a1.3,1.3,0,0,0-1.3,1.3h0a1.3,1.3,0,0,0,1.3,1.3h0a1.3,1.3,0,0,0,1.3-1.3h0A1.3,1.3,0,0,0,208.57,140.49Zm19.16,0h0a1.3,1.3,0,0,0-1.3,1.3h0a1.3,1.3,0,0,0,1.3,1.3h0a1.3,1.3,0,0,0,1.3-1.3h0A1.3,1.3,0,0,0,227.72,140.49Zm-19.16,22.61h-2a1.3,1.3,0,0,0-1.3,1.3v2a1.3,1.3,0,0,0,1.3,1.3h2a1.3,1.3,0,0,0,1.3-1.3v-2A1.3,1.3,0,0,0,208.57,163.09Zm19.16,2h0a1.3,1.3,0,0,0-1.3,1.3h0a1.3,1.3,0,0,0,1.3,1.3h0a1.3,1.3,0,0,0,1.3-1.3h0A1.3,1.3,0,0,0,227.72,165.12ZM129.14,89.66h-3a2.91,2.91,0,0,0-2.91,2.91v3a2.91,2.91,0,0,0,2.91,2.91h3a2.91,2.91,0,0,0,2.91-2.91v-3A2.91,2.91,0,0,0,129.14,89.66Zm-13-11.85h0a1.3,1.3,0,0,0-1.3,1.3h0a1.3,1.3,0,0,0,1.3,1.3h0a1.3,1.3,0,0,0,1.3-1.3h0A1.3,1.3,0,0,0,116.16,77.81Zm19.16,0h0a1.3,1.3,0,0,0-1.3,1.3h0a1.3,1.3,0,0,0,1.3,1.3h0a1.3,1.3,0,0,0,1.3-1.3h0A1.3,1.3,0,0,0,135.32,77.81Zm-19.16,22.61h-2a1.3,1.3,0,0,0-1.3,1.3v2a1.3,1.3,0,0,0,1.3,1.3h2a1.3,1.3,0,0,0,1.3-1.3v-2A1.3,1.3,0,0,0,116.16,100.41Zm19.16,2h0a1.3,1.3,0,0,0-1.3,1.3h0a1.3,1.3,0,0,0,1.3,1.3h0a1.3,1.3,0,0,0,1.3-1.3h0A1.3,1.3,0,0,0,135.32,102.43ZM90.86,75.2h0a1.3,1.3,0,0,0-1.3,1.3h0a1.3,1.3,0,0,0,1.3,1.3h0a1.3,1.3,0,0,0,1.3-1.3h0A1.3,1.3,0,0,0,90.86,75.2Zm73.07,53.29v3a2.91,2.91,0,0,0,2.91,2.91h3a2.91,2.91,0,0,0,2.91-2.91v-3a2.91,2.91,0,0,0-2.91-2.91h-3A2.91,2.91,0,0,0,163.93,128.49Zm-11.85,7.78h0a1.3,1.3,0,0,0,1.3,1.3h0a1.3,1.3,0,0,0,1.3-1.3h0a1.3,1.3,0,0,0-1.3-1.3h0A1.3,1.3,0,0,0,152.08,136.28Zm0-19.16h0a1.3,1.3,0,0,0,1.3,1.3h0a1.3,1.3,0,0,0,1.3-1.3h0a1.3,1.3,0,0,0-1.3-1.3h0A1.3,1.3,0,0,0,152.08,117.12Zm22.61,19.16v2a1.3,1.3,0,0,0,1.3,1.3h2a1.3,1.3,0,0,0,1.3-1.3v-2A1.3,1.3,0,0,0,178,135h-2A1.3,1.3,0,0,0,174.68,136.28Zm2-19.16h0a1.3,1.3,0,0,0,1.3,1.3h0a1.3,1.3,0,0,0,1.3-1.3h0a1.3,1.3,0,0,0-1.3-1.3h0A1.3,1.3,0,0,0,176.71,117.12Zm21.12-6.95v-3a2.91,2.91,0,0,0-2.91-2.91h-3a2.91,2.91,0,0,0-2.91,2.91v3a2.91,2.91,0,0,0,2.91,2.91h3A2.91,2.91,0,0,0,197.82,110.17Zm6.65-13h0a1.3,1.3,0,0,0-1.3-1.3h0a1.3,1.3,0,0,0-1.3,1.3h0a1.3,1.3,0,0,0,1.3,1.3h0A1.3,1.3,0,0,0,204.48,97.19Zm0,19.16h0a1.3,1.3,0,0,0-1.3-1.3h0a1.3,1.3,0,0,0-1.3,1.3h0a1.3,1.3,0,0,0,1.3,1.3h0A1.3,1.3,0,0,0,204.48,116.35ZM181.87,97.19v-2a1.3,1.3,0,0,0-1.3-1.3h-2a1.3,1.3,0,0,0-1.3,1.3v2a1.3,1.3,0,0,0,1.3,1.3h2A1.3,1.3,0,0,0,181.87,97.19Zm-2,19.16h0a1.3,1.3,0,0,0-1.3-1.3h0a1.3,1.3,0,0,0-1.3,1.3h0a1.3,1.3,0,0,0,1.3,1.3h0A1.3,1.3,0,0,0,179.85,116.35Z"/><path class="cls-10" d="M-23.25,82.91h-3A2.91,2.91,0,0,1-29.2,80V77A2.91,2.91,0,0,1-26.29,74h3A2.91,2.91,0,0,1-20.34,77v3A2.91,2.91,0,0,1-23.25,82.91Zm-2.88-15.29h0a1.3,1.3,0,0,0-1.3-1.3h0a1.3,1.3,0,0,0-1.3,1.3h0a1.3,1.3,0,0,0,1.3,1.3h0A1.3,1.3,0,0,0-26.13,67.61Zm0,19.16h0a1.3,1.3,0,0,0-1.3-1.3h0a1.3,1.3,0,0,0-1.3,1.3h0a1.3,1.3,0,0,0,1.3,1.3h0A1.3,1.3,0,0,0-26.13,86.77ZM-36.29,67V65a1.3,1.3,0,0,0-1.3-1.3h-2a1.3,1.3,0,0,0-1.3,1.3v2a1.3,1.3,0,0,0,1.3,1.3h2A1.3,1.3,0,0,0-36.29,67ZM41.14,89.08v-2a1.3,1.3,0,0,0-1.3-1.3h-2a1.3,1.3,0,0,0-1.3,1.3v2a1.3,1.3,0,0,0,1.3,1.3h2A1.3,1.3,0,0,0,41.14,89.08ZM-7.35,54.74v-2a1.3,1.3,0,0,0-1.3-1.3h-2a1.3,1.3,0,0,0-1.3,1.3v2a1.3,1.3,0,0,0,1.3,1.3h2A1.3,1.3,0,0,0-7.35,54.74Zm35-44.2v-2a1.3,1.3,0,0,0-1.3-1.3h-2A1.3,1.3,0,0,0,23,8.52v2a1.3,1.3,0,0,0,1.3,1.3h2A1.3,1.3,0,0,0,27.62,10.54ZM-38.31,86.17h0a1.3,1.3,0,0,0-1.3-1.3h0a1.3,1.3,0,0,0-1.3,1.3h0a1.3,1.3,0,0,0,1.3,1.3h0A1.3,1.3,0,0,0-38.31,86.17Zm-9.44-39.93v-3a2.91,2.91,0,0,0-2.91-2.91h-3a2.91,2.91,0,0,0-2.91,2.91v3a2.91,2.91,0,0,0,2.91,2.91h3A2.91,2.91,0,0,0-47.76,46.24Zm6.65-13h0A1.3,1.3,0,0,0-42.4,32h0a1.3,1.3,0,0,0-1.3,1.3h0a1.3,1.3,0,0,0,1.3,1.3h0A1.3,1.3,0,0,0-41.1,33.27Zm0,19.16h0a1.3,1.3,0,0,0-1.3-1.3h0a1.3,1.3,0,0,0-1.3,1.3h0a1.3,1.3,0,0,0,1.3,1.3h0A1.3,1.3,0,0,0-41.1,52.42ZM-63.71,33.27v-2a1.3,1.3,0,0,0-1.3-1.3h-2a1.3,1.3,0,0,0-1.3,1.3v2a1.3,1.3,0,0,0,1.3,1.3h2A1.3,1.3,0,0,0-63.71,33.27Zm-2,19.16h0a1.3,1.3,0,0,0-1.3-1.3h0a1.3,1.3,0,0,0-1.3,1.3h0a1.3,1.3,0,0,0,1.3,1.3h0A1.3,1.3,0,0,0-65.73,52.42Zm28.62,66.08v3a2.91,2.91,0,0,0,2.91,2.91h3a2.91,2.91,0,0,0,2.91-2.91v-3a2.91,2.91,0,0,0-2.91-2.91h-3A2.91,2.91,0,0,0-37.11,118.51Zm-43.49,6.64h0a1.3,1.3,0,0,0,1.3,1.3h0a1.3,1.3,0,0,0,1.3-1.3h0a1.3,1.3,0,0,0-1.3-1.3h0A1.3,1.3,0,0,0-80.61,125.14Zm31.64-18h0a1.3,1.3,0,0,0,1.3,1.3h0a1.3,1.3,0,0,0,1.3-1.3h0a1.3,1.3,0,0,0-1.3-1.3h0A1.3,1.3,0,0,0-49,107.13ZM-69.64,89.89h0a1.3,1.3,0,0,0,1.3,1.3h0a1.3,1.3,0,0,0,1.3-1.3h0a1.3,1.3,0,0,0-1.3-1.3h0A1.3,1.3,0,0,0-69.64,89.89ZM-58,125.14v2a1.3,1.3,0,0,0,1.3,1.3h2a1.3,1.3,0,0,0,1.3-1.3v-2a1.3,1.3,0,0,0-1.3-1.3h-2A1.3,1.3,0,0,0-58,125.14ZM2.8,141.08v2a1.3,1.3,0,0,0,1.3,1.3h2a1.3,1.3,0,0,0,1.3-1.3v-2a1.3,1.3,0,0,0-1.3-1.3h-2A1.3,1.3,0,0,0,2.8,141.08ZM-56,106h0a1.3,1.3,0,0,0,1.3,1.3h0a1.3,1.3,0,0,0,1.3-1.3h0a1.3,1.3,0,0,0-1.3-1.3h0A1.3,1.3,0,0,0-56,106ZM-86,74h0a1.3,1.3,0,0,0,1.3,1.3h0a1.3,1.3,0,0,0,1.3-1.3h0a1.3,1.3,0,0,0-1.3-1.3h0A1.3,1.3,0,0,0-86,74ZM43.34,130.52h6.25a1.3,1.3,0,0,0,1.3-1.3V123a1.3,1.3,0,0,0-1.3-1.3H43.34A1.3,1.3,0,0,0,42,123v6.25A1.3,1.3,0,0,0,43.34,130.52Zm12,9.25h0a1.3,1.3,0,0,0,1.3-1.3h0a1.3,1.3,0,0,0-1.3-1.3h0a1.3,1.3,0,0,0-1.3,1.3h0A1.3,1.3,0,0,0,55.32,139.77Zm-19.16,0h0a1.3,1.3,0,0,0,1.3-1.3h0a1.3,1.3,0,0,0-1.3-1.3h0a1.3,1.3,0,0,0-1.3,1.3h0A1.3,1.3,0,0,0,36.17,139.77Zm19.16-22.61h2a1.3,1.3,0,0,0,1.3-1.3v-2a1.3,1.3,0,0,0-1.3-1.3h-2a1.3,1.3,0,0,0-1.3,1.3v2A1.3,1.3,0,0,0,55.32,117.16Zm-19.16-2h0a1.3,1.3,0,0,0,1.3-1.3h0a1.3,1.3,0,0,0-1.3-1.3h0a1.3,1.3,0,0,0-1.3,1.3h0A1.3,1.3,0,0,0,36.17,115.14Zm-29.53-18h-3A2.91,2.91,0,0,0,.68,100v3A2.91,2.91,0,0,0,3.59,106h3a2.91,2.91,0,0,0,2.91-2.91v-3A2.91,2.91,0,0,0,6.64,97.12Zm-13-11.85h0a1.3,1.3,0,0,0-1.3,1.3h0a1.3,1.3,0,0,0,1.3,1.3h0A1.3,1.3,0,0,0-5,86.58h0A1.3,1.3,0,0,0-6.34,85.27Zm19.16,0h0a1.3,1.3,0,0,0-1.3,1.3h0a1.3,1.3,0,0,0,1.3,1.3h0a1.3,1.3,0,0,0,1.3-1.3h0A1.3,1.3,0,0,0,12.81,85.27ZM-6.34,107.88h-2a1.3,1.3,0,0,0-1.3,1.3v2a1.3,1.3,0,0,0,1.3,1.3h2a1.3,1.3,0,0,0,1.3-1.3v-2A1.3,1.3,0,0,0-6.34,107.88Zm19.16,2h0a1.3,1.3,0,0,0-1.3,1.3h0a1.3,1.3,0,0,0,1.3,1.3h0a1.3,1.3,0,0,0,1.3-1.3h0A1.3,1.3,0,0,0,12.81,109.9ZM75.9,76.54h-3A2.91,2.91,0,0,0,70,79.45v3a2.91,2.91,0,0,0,2.91,2.91h3a2.91,2.91,0,0,0,2.91-2.91v-3A2.91,2.91,0,0,0,75.9,76.54ZM65.52,67.29h0a1.3,1.3,0,0,0-1.3,1.3h0a1.3,1.3,0,0,0,1.3,1.3h0a1.3,1.3,0,0,0,1.3-1.3h0A1.3,1.3,0,0,0,65.52,67.29Zm19.16,0h0a1.3,1.3,0,0,0-1.3,1.3h0a1.3,1.3,0,0,0,1.3,1.3h0a1.3,1.3,0,0,0,1.3-1.3h0A1.3,1.3,0,0,0,84.68,67.29ZM65.52,89.89h-2a1.3,1.3,0,0,0-1.3,1.3v2a1.3,1.3,0,0,0,1.3,1.3h2a1.3,1.3,0,0,0,1.3-1.3v-2A1.3,1.3,0,0,0,65.52,89.89Zm19.16,2h0a1.3,1.3,0,0,0-1.3,1.3h0a1.3,1.3,0,0,0,1.3,1.3h0a1.3,1.3,0,0,0,1.3-1.3h0A1.3,1.3,0,0,0,84.68,91.92ZM-13.91,16.46h-3a2.91,2.91,0,0,0-2.91,2.91v3a2.91,2.91,0,0,0,2.91,2.91h3A2.91,2.91,0,0,0-11,22.41v-3A2.91,2.91,0,0,0-13.91,16.46Zm-13-11.85h0a1.3,1.3,0,0,0-1.3,1.3h0a1.3,1.3,0,0,0,1.3,1.3h0a1.3,1.3,0,0,0,1.3-1.3h0A1.3,1.3,0,0,0-26.88,4.61Zm19.16,0h0A1.3,1.3,0,0,0-9,5.91h0a1.3,1.3,0,0,0,1.3,1.3h0a1.3,1.3,0,0,0,1.3-1.3h0A1.3,1.3,0,0,0-7.73,4.61ZM-26.88,27.21h-2a1.3,1.3,0,0,0-1.3,1.3v2a1.3,1.3,0,0,0,1.3,1.3h2a1.3,1.3,0,0,0,1.3-1.3v-2A1.3,1.3,0,0,0-26.88,27.21Zm19.16,2h0A1.3,1.3,0,0,0-9,30.54h0a1.3,1.3,0,0,0,1.3,1.3h0a1.3,1.3,0,0,0,1.3-1.3h0A1.3,1.3,0,0,0-7.73,29.24ZM-52.19,2h0a1.3,1.3,0,0,0-1.3,1.3h0a1.3,1.3,0,0,0,1.3,1.3h0a1.3,1.3,0,0,0,1.3-1.3h0A1.3,1.3,0,0,0-52.19,2ZM20.88,55.29v3a2.91,2.91,0,0,0,2.91,2.91h3a2.91,2.91,0,0,0,2.91-2.91v-3a2.91,2.91,0,0,0-2.91-2.91h-3A2.91,2.91,0,0,0,20.88,55.29ZM9,63.08H9a1.3,1.3,0,0,0,1.3,1.3h0a1.3,1.3,0,0,0,1.3-1.3h0a1.3,1.3,0,0,0-1.3-1.3h0A1.3,1.3,0,0,0,9,63.08ZM9,43.92H9a1.3,1.3,0,0,0,1.3,1.3h0a1.3,1.3,0,0,0,1.3-1.3h0a1.3,1.3,0,0,0-1.3-1.3h0A1.3,1.3,0,0,0,9,43.92ZM31.64,63.08v2a1.3,1.3,0,0,0,1.3,1.3h2a1.3,1.3,0,0,0,1.3-1.3v-2a1.3,1.3,0,0,0-1.3-1.3h-2A1.3,1.3,0,0,0,31.64,63.08Zm2-19.16h0a1.3,1.3,0,0,0,1.3,1.3h0a1.3,1.3,0,0,0,1.3-1.3h0a1.3,1.3,0,0,0-1.3-1.3h0A1.3,1.3,0,0,0,33.66,43.92ZM54.78,37v-3A2.91,2.91,0,0,0,51.87,31h-3a2.91,2.91,0,0,0-2.91,2.91v3a2.91,2.91,0,0,0,2.91,2.91h3A2.91,2.91,0,0,0,54.78,37Zm6.65-13h0a1.3,1.3,0,0,0-1.3-1.3h0a1.3,1.3,0,0,0-1.3,1.3h0a1.3,1.3,0,0,0,1.3,1.3h0A1.3,1.3,0,0,0,61.43,24Zm0,19.16h0a1.3,1.3,0,0,0-1.3-1.3h0a1.3,1.3,0,0,0-1.3,1.3h0a1.3,1.3,0,0,0,1.3,1.3h0A1.3,1.3,0,0,0,61.43,43.15ZM38.82,24V22a1.3,1.3,0,0,0-1.3-1.3h-2A1.3,1.3,0,0,0,34.2,22v2a1.3,1.3,0,0,0,1.3,1.3h2A1.3,1.3,0,0,0,38.82,24Zm-2,19.16h0a1.3,1.3,0,0,0-1.3-1.3h0a1.3,1.3,0,0,0-1.3,1.3h0a1.3,1.3,0,0,0,1.3,1.3h0A1.3,1.3,0,0,0,36.8,43.15Z"/><path class="cls-11" d="M119.8,9.71h-3a2.91,2.91,0,0,1-2.91-2.91v-3A2.91,2.91,0,0,1,116.76.84h3a2.91,2.91,0,0,1,2.91,2.91v3A2.91,2.91,0,0,1,119.8,9.71ZM116.91-5.59h0a1.3,1.3,0,0,0-1.3-1.3h0a1.3,1.3,0,0,0-1.3,1.3h0a1.3,1.3,0,0,0,1.3,1.3h0A1.3,1.3,0,0,0,116.91-5.59Zm0,19.16h0a1.3,1.3,0,0,0-1.3-1.3h0a1.3,1.3,0,0,0-1.3,1.3h0a1.3,1.3,0,0,0,1.3,1.3h0A1.3,1.3,0,0,0,116.91,13.57ZM106.75-6.18v-2a1.3,1.3,0,0,0-1.3-1.3h-2a1.3,1.3,0,0,0-1.3,1.3v2a1.3,1.3,0,0,0,1.3,1.3h2A1.3,1.3,0,0,0,106.75-6.18Zm77.43,22.07v-2a1.3,1.3,0,0,0-1.3-1.3h-2a1.3,1.3,0,0,0-1.3,1.3v2a1.3,1.3,0,0,0,1.3,1.3h2A1.3,1.3,0,0,0,184.18,15.88ZM135.69-18.46v-2a1.3,1.3,0,0,0-1.3-1.3h-2a1.3,1.3,0,0,0-1.3,1.3v2a1.3,1.3,0,0,0,1.3,1.3h2A1.3,1.3,0,0,0,135.69-18.46Zm35-44.2v-2a1.3,1.3,0,0,0-1.3-1.3h-2a1.3,1.3,0,0,0-1.3,1.3v2a1.3,1.3,0,0,0,1.3,1.3h2A1.3,1.3,0,0,0,170.67-62.66ZM104.73,13h0a1.3,1.3,0,0,0-1.3-1.3h0a1.3,1.3,0,0,0-1.3,1.3h0a1.3,1.3,0,0,0,1.3,1.3h0A1.3,1.3,0,0,0,104.73,13ZM95.29-27v-3a2.91,2.91,0,0,0-2.91-2.91h-3A2.91,2.91,0,0,0,86.43-30v3A2.91,2.91,0,0,0,89.34-24h3A2.91,2.91,0,0,0,95.29-27Zm6.65-13h0a1.3,1.3,0,0,0-1.3-1.3h0a1.3,1.3,0,0,0-1.3,1.3h0a1.3,1.3,0,0,0,1.3,1.3h0A1.3,1.3,0,0,0,101.95-39.93Zm0,19.16h0a1.3,1.3,0,0,0-1.3-1.3h0a1.3,1.3,0,0,0-1.3,1.3h0a1.3,1.3,0,0,0,1.3,1.3h0A1.3,1.3,0,0,0,101.95-20.78ZM79.34-39.93v-2a1.3,1.3,0,0,0-1.3-1.3H76a1.3,1.3,0,0,0-1.3,1.3v2a1.3,1.3,0,0,0,1.3,1.3h2A1.3,1.3,0,0,0,79.34-39.93Zm-2,19.16h0a1.3,1.3,0,0,0-1.3-1.3h0a1.3,1.3,0,0,0-1.3,1.3h0a1.3,1.3,0,0,0,1.3,1.3h0A1.3,1.3,0,0,0,77.32-20.78Zm28.62,66.08v3a2.91,2.91,0,0,0,2.91,2.91h3a2.91,2.91,0,0,0,2.91-2.91v-3a2.91,2.91,0,0,0-2.91-2.91h-3A2.91,2.91,0,0,0,105.93,45.31ZM62.44,51.94h0a1.3,1.3,0,0,0,1.3,1.3h0a1.3,1.3,0,0,0,1.3-1.3h0a1.3,1.3,0,0,0-1.3-1.3h0A1.3,1.3,0,0,0,62.44,51.94Zm31.64-18h0a1.3,1.3,0,0,0,1.3,1.3h0a1.3,1.3,0,0,0,1.3-1.3h0a1.3,1.3,0,0,0-1.3-1.3h0A1.3,1.3,0,0,0,94.08,33.93ZM73.41,16.7h0a1.3,1.3,0,0,0,1.3,1.3h0A1.3,1.3,0,0,0,76,16.7h0a1.3,1.3,0,0,0-1.3-1.3h0A1.3,1.3,0,0,0,73.41,16.7ZM85,51.94v2a1.3,1.3,0,0,0,1.3,1.3h2a1.3,1.3,0,0,0,1.3-1.3v-2a1.3,1.3,0,0,0-1.3-1.3h-2A1.3,1.3,0,0,0,85,51.94Zm60.8,15.93v2a1.3,1.3,0,0,0,1.3,1.3h2a1.3,1.3,0,0,0,1.3-1.3v-2a1.3,1.3,0,0,0-1.3-1.3h-2A1.3,1.3,0,0,0,145.85,67.88ZM87.07,32.79h0a1.3,1.3,0,0,0,1.3,1.3h0a1.3,1.3,0,0,0,1.3-1.3h0a1.3,1.3,0,0,0-1.3-1.3h0A1.3,1.3,0,0,0,87.07,32.79ZM57.07.84h0a1.3,1.3,0,0,0,1.3,1.3h0a1.3,1.3,0,0,0,1.3-1.3h0a1.3,1.3,0,0,0-1.3-1.3h0A1.3,1.3,0,0,0,57.07.84ZM186.38,57.32h6.25a1.3,1.3,0,0,0,1.3-1.3V49.76a1.3,1.3,0,0,0-1.3-1.3h-6.25a1.3,1.3,0,0,0-1.3,1.3V56A1.3,1.3,0,0,0,186.38,57.32Zm12,9.25h0a1.3,1.3,0,0,0,1.3-1.3h0a1.3,1.3,0,0,0-1.3-1.3h0a1.3,1.3,0,0,0-1.3,1.3h0A1.3,1.3,0,0,0,198.37,66.57Zm-19.16,0h0a1.3,1.3,0,0,0,1.3-1.3h0a1.3,1.3,0,0,0-1.3-1.3h0a1.3,1.3,0,0,0-1.3,1.3h0A1.3,1.3,0,0,0,179.22,66.57ZM198.37,44h2a1.3,1.3,0,0,0,1.3-1.3v-2a1.3,1.3,0,0,0-1.3-1.3h-2a1.3,1.3,0,0,0-1.3,1.3v2A1.3,1.3,0,0,0,198.37,44Zm-19.16-2h0a1.3,1.3,0,0,0,1.3-1.3h0a1.3,1.3,0,0,0-1.3-1.3h0a1.3,1.3,0,0,0-1.3,1.3h0A1.3,1.3,0,0,0,179.22,41.94Zm-29.53-18h-3a2.91,2.91,0,0,0-2.91,2.91v3a2.91,2.91,0,0,0,2.91,2.91h3a2.91,2.91,0,0,0,2.91-2.91v-3A2.91,2.91,0,0,0,149.68,23.92Zm-13-11.85h0a1.3,1.3,0,0,0-1.3,1.3h0a1.3,1.3,0,0,0,1.3,1.3h0a1.3,1.3,0,0,0,1.3-1.3h0A1.3,1.3,0,0,0,136.7,12.07Zm19.16,0h0a1.3,1.3,0,0,0-1.3,1.3h0a1.3,1.3,0,0,0,1.3,1.3h0a1.3,1.3,0,0,0,1.3-1.3h0A1.3,1.3,0,0,0,155.86,12.07ZM136.7,34.68h-2a1.3,1.3,0,0,0-1.3,1.3v2a1.3,1.3,0,0,0,1.3,1.3h2A1.3,1.3,0,0,0,138,38V36A1.3,1.3,0,0,0,136.7,34.68Zm19.16,2h0a1.3,1.3,0,0,0-1.3,1.3h0a1.3,1.3,0,0,0,1.3,1.3h0a1.3,1.3,0,0,0,1.3-1.3h0A1.3,1.3,0,0,0,155.86,36.7ZM218.95,3.34h-3A2.91,2.91,0,0,0,213,6.25v3a2.91,2.91,0,0,0,2.91,2.91h3a2.91,2.91,0,0,0,2.91-2.91v-3A2.91,2.91,0,0,0,218.95,3.34ZM208.57-5.91h0a1.3,1.3,0,0,0-1.3,1.3h0a1.3,1.3,0,0,0,1.3,1.3h0a1.3,1.3,0,0,0,1.3-1.3h0A1.3,1.3,0,0,0,208.57-5.91Zm19.16,0h0a1.3,1.3,0,0,0-1.3,1.3h0a1.3,1.3,0,0,0,1.3,1.3h0a1.3,1.3,0,0,0,1.3-1.3h0A1.3,1.3,0,0,0,227.72-5.91ZM208.57,16.7h-2a1.3,1.3,0,0,0-1.3,1.3v2a1.3,1.3,0,0,0,1.3,1.3h2a1.3,1.3,0,0,0,1.3-1.3V18A1.3,1.3,0,0,0,208.57,16.7Zm19.16,2h0a1.3,1.3,0,0,0-1.3,1.3h0a1.3,1.3,0,0,0,1.3,1.3h0A1.3,1.3,0,0,0,229,20h0A1.3,1.3,0,0,0,227.72,18.72ZM129.14-56.74h-3a2.91,2.91,0,0,0-2.91,2.91v3a2.91,2.91,0,0,0,2.91,2.91h3a2.91,2.91,0,0,0,2.91-2.91v-3A2.91,2.91,0,0,0,129.14-56.74Zm-13-11.85h0a1.3,1.3,0,0,0-1.3,1.3h0a1.3,1.3,0,0,0,1.3,1.3h0a1.3,1.3,0,0,0,1.3-1.3h0A1.3,1.3,0,0,0,116.16-68.59Zm19.16,0h0a1.3,1.3,0,0,0-1.3,1.3h0a1.3,1.3,0,0,0,1.3,1.3h0a1.3,1.3,0,0,0,1.3-1.3h0A1.3,1.3,0,0,0,135.32-68.59ZM116.16-46h-2a1.3,1.3,0,0,0-1.3,1.3v2a1.3,1.3,0,0,0,1.3,1.3h2a1.3,1.3,0,0,0,1.3-1.3v-2A1.3,1.3,0,0,0,116.16-46Zm19.16,2h0a1.3,1.3,0,0,0-1.3,1.3h0a1.3,1.3,0,0,0,1.3,1.3h0a1.3,1.3,0,0,0,1.3-1.3h0A1.3,1.3,0,0,0,135.32-44ZM90.86-71.2h0a1.3,1.3,0,0,0-1.3,1.3h0a1.3,1.3,0,0,0,1.3,1.3h0a1.3,1.3,0,0,0,1.3-1.3h0A1.3,1.3,0,0,0,90.86-71.2Zm73.07,53.29v3A2.91,2.91,0,0,0,166.84-12h3a2.91,2.91,0,0,0,2.91-2.91v-3a2.91,2.91,0,0,0-2.91-2.91h-3A2.91,2.91,0,0,0,163.93-17.91Zm-11.85,7.78h0a1.3,1.3,0,0,0,1.3,1.3h0a1.3,1.3,0,0,0,1.3-1.3h0a1.3,1.3,0,0,0-1.3-1.3h0A1.3,1.3,0,0,0,152.08-10.12Zm0-19.16h0a1.3,1.3,0,0,0,1.3,1.3h0a1.3,1.3,0,0,0,1.3-1.3h0a1.3,1.3,0,0,0-1.3-1.3h0A1.3,1.3,0,0,0,152.08-29.28Zm22.61,19.16v2A1.3,1.3,0,0,0,176-6.8h2a1.3,1.3,0,0,0,1.3-1.3v-2a1.3,1.3,0,0,0-1.3-1.3h-2A1.3,1.3,0,0,0,174.68-10.12Zm2-19.16h0A1.3,1.3,0,0,0,178-28h0a1.3,1.3,0,0,0,1.3-1.3h0a1.3,1.3,0,0,0-1.3-1.3h0A1.3,1.3,0,0,0,176.71-29.28Zm21.12-6.95v-3a2.91,2.91,0,0,0-2.91-2.91h-3A2.91,2.91,0,0,0,189-39.27v3a2.91,2.91,0,0,0,2.91,2.91h3A2.91,2.91,0,0,0,197.82-36.23Zm6.65-13h0a1.3,1.3,0,0,0-1.3-1.3h0a1.3,1.3,0,0,0-1.3,1.3h0a1.3,1.3,0,0,0,1.3,1.3h0A1.3,1.3,0,0,0,204.48-49.21Zm0,19.16h0a1.3,1.3,0,0,0-1.3-1.3h0a1.3,1.3,0,0,0-1.3,1.3h0a1.3,1.3,0,0,0,1.3,1.3h0A1.3,1.3,0,0,0,204.48-30.05ZM181.87-49.21v-2a1.3,1.3,0,0,0-1.3-1.3h-2a1.3,1.3,0,0,0-1.3,1.3v2a1.3,1.3,0,0,0,1.3,1.3h2A1.3,1.3,0,0,0,181.87-49.21Zm-2,19.16h0a1.3,1.3,0,0,0-1.3-1.3h0a1.3,1.3,0,0,0-1.3,1.3h0a1.3,1.3,0,0,0,1.3,1.3h0A1.3,1.3,0,0,0,179.85-30.05Z"/></pattern></defs><title>Rethink_partner bg_0830</title><g id="底"><rect class="cls-12" width="1280" height="4551.52"/></g><g id="底色"><rect class="cls-13" x="98.1" y="374.8" width="1083.79" height="2291.02" rx="420.75" ry="420.75"/><polygon class="cls-14" points="147.12 4551.52 -624.26 4551.52 171 2705.07 944.39 2705.07 147.12 4551.52"/><polygon class="cls-13" points="1405.59 4551.52 148.61 4551.52 955.49 2745.26 1595.02 2745.26 1405.59 4551.52"/><line class="cls-15" x1="-110.46" y1="2561.32" x2="1315.21" y2="2561.32"/><line class="cls-16" x1="-110.46" y1="2561.32" x2="1315.21" y2="2561.32"/><polygon class="cls-17" points="754.05 2481.21 763.02 2462.22 494.24 2462.6 485.27 2481.59 754.05 2481.21"/><polygon class="cls-17" points="735.95 2525.41 744.92 2506.43 472.45 2506.8 463.48 2525.79 735.95 2525.41"/><polygon class="cls-17" points="717.84 2569.62 726.81 2550.64 450.66 2551.01 441.69 2570 717.84 2569.62"/><polygon class="cls-17" points="699.73 2613.83 708.71 2594.84 428.86 2595.22 419.89 2614.21 699.73 2613.83"/><polygon class="cls-17" points="681.63 2658.04 690.6 2639.05 407.07 2639.43 398.1 2658.41 681.63 2658.04"/><rect class="cls-17" x="816.74" y="4385.08" width="172.25" height="87.39" rx="43.69" ry="43.69"/><path class="cls-17" d="M892,4470.71v18.37a1.75,1.75,0,0,0,3,1.24l18.26-18.26a1.75,1.75,0,0,0-1.23-3l-18.26-.12A1.75,1.75,0,0,0,892,4470.71Z"/><path class="cls-12" d="M859.64,4404a4.38,4.38,0,0,0-3.13-1.13,6.59,6.59,0,0,0-3.54.93,7.84,7.84,0,0,0-2.47,2.4,11,11,0,0,0-1.44,3.28,13.94,13.94,0,0,0-.47,3.54,8.52,8.52,0,0,0,.32,2.37,5.93,5.93,0,0,0,1,2,4.72,4.72,0,0,0,1.69,1.37,5.59,5.59,0,0,0,2.49.51,5.42,5.42,0,0,0,2-.39,5.88,5.88,0,0,0,1.71-1,6.17,6.17,0,0,0,1.25-1.54,5.61,5.61,0,0,0,.68-1.83h5.32a19.13,19.13,0,0,1-1.91,4.3,11.28,11.28,0,0,1-2.47,2.86,8.75,8.75,0,0,1-3,1.59,12.91,12.91,0,0,1-3.64.49q-5.15,0-7.94-2.74t-2.79-7.92a17,17,0,0,1,.92-5.59,14.39,14.39,0,0,1,2.62-4.66,12.39,12.39,0,0,1,9.67-4.38,12.72,12.72,0,0,1,3.89.58,8.71,8.71,0,0,1,3.1,1.71,7.6,7.6,0,0,1,2,2.81,9.49,9.49,0,0,1,.68,3.88h-5.32A4.42,4.42,0,0,0,859.64,4404Z"/><path class="cls-12" d="M868.14,4411.84a10.47,10.47,0,0,1,2-3.47,9.42,9.42,0,0,1,3.17-2.35,9.88,9.88,0,0,1,4.2-.86,11.34,11.34,0,0,1,3.3.46,7.2,7.2,0,0,1,2.59,1.37,6.08,6.08,0,0,1,1.68,2.3,8.34,8.34,0,0,1,.59,3.28,13.16,13.16,0,0,1-.69,4.32,10.24,10.24,0,0,1-2,3.5,9.35,9.35,0,0,1-3.2,2.34,10.34,10.34,0,0,1-4.28.85,8.65,8.65,0,0,1-5.84-1.88,7,7,0,0,1-2.18-5.64A12.65,12.65,0,0,1,868.14,4411.84Zm4.33,5.71a3.67,3.67,0,0,0,.66,1.25,3.23,3.23,0,0,0,1.08.86,3.28,3.28,0,0,0,1.49.32,3.74,3.74,0,0,0,2.32-.73,5.93,5.93,0,0,0,1.59-1.83,9,9,0,0,0,.93-2.39,10.46,10.46,0,0,0,.3-2.4,4.54,4.54,0,0,0-.8-2.81,3.21,3.21,0,0,0-2.73-1,3.69,3.69,0,0,0-2.29.73,5.81,5.81,0,0,0-1.57,1.81,9.11,9.11,0,0,0-.91,2.35,10.26,10.26,0,0,0-.31,2.39A5,5,0,0,0,872.48,4417.55Z"/><path class="cls-12" d="M895,4405.63l-.54,2.47h.07a6.58,6.58,0,0,1,2.64-2.24,8.31,8.31,0,0,1,3.49-.71,5.18,5.18,0,0,1,2.78.71,3.29,3.29,0,0,1,1.46,2.34,5.49,5.49,0,0,1,1.12-1.24,8.33,8.33,0,0,1,1.46-1,7.58,7.58,0,0,1,1.64-.63,6.87,6.87,0,0,1,1.71-.22,7.29,7.29,0,0,1,2,.27,5.32,5.32,0,0,1,1.71.81,3.94,3.94,0,0,1,1.19,1.39,4.21,4.21,0,0,1,.44,2,8.16,8.16,0,0,1-.17,1.64q-.17.83-.34,1.61l-2.17,10.29h-4.81l2.3-11.07a6.45,6.45,0,0,0,.14-1.25,1.72,1.72,0,0,0-.59-1.32,2.15,2.15,0,0,0-1.51-.54,3.26,3.26,0,0,0-1.71.46,5,5,0,0,0-1.32,1.15,6.81,6.81,0,0,0-.93,1.54,8.34,8.34,0,0,0-.54,1.66l-2,9.38h-4.84l2.3-11.07a6.38,6.38,0,0,0,.14-1.25,1.72,1.72,0,0,0-.59-1.32,2.15,2.15,0,0,0-1.51-.54,3.26,3.26,0,0,0-1.71.46,5,5,0,0,0-1.32,1.15,6.81,6.81,0,0,0-.93,1.54,8.34,8.34,0,0,0-.54,1.66l-2,9.38h-4.77l3.62-17.51Z"/><path class="cls-12" d="M926.07,4405.63l-3.72,17.51h-4.81l3.69-17.51Zm-4.3-2.71.88-4h4.84l-.88,4Z"/><path class="cls-12" d="M934.53,4405.63l-.54,2.44h.07a7.48,7.48,0,0,1,6.13-2.91q5.11,0,5.11,4.71a4.59,4.59,0,0,1-.07.69q-.07.42-.15.86t-.17.83q-.08.39-.12.63l-2.17,10.26h-4.81l2.13-10.26q.07-.41.19-1.08a6.55,6.55,0,0,0,.12-1,1.52,1.52,0,0,0-.73-1.29,2.7,2.7,0,0,0-1.57-.51,4.15,4.15,0,0,0-1.91.42,4.73,4.73,0,0,0-1.42,1.1,6.09,6.09,0,0,0-1,1.56,9.59,9.59,0,0,0-.59,1.79l-2,9.31H926.3l3.62-17.51Z"/><path class="cls-12" d="M962.67,4425.61a7.1,7.1,0,0,1-1.91,2.34,7.79,7.79,0,0,1-2.78,1.35,14.43,14.43,0,0,1-3.78.44,11.94,11.94,0,0,1-2.66-.3,7.6,7.6,0,0,1-2.4-1,5.37,5.37,0,0,1-1.73-1.76,5.05,5.05,0,0,1-.66-2.67h4.77a2.06,2.06,0,0,0,.24,1.15,2.28,2.28,0,0,0,.73.78,3.15,3.15,0,0,0,1,.44,5,5,0,0,0,1.15.14,3.56,3.56,0,0,0,1.91-.47,4.29,4.29,0,0,0,1.3-1.29,8.06,8.06,0,0,0,.91-1.93q.37-1.12.75-2.37l-.07-.07a5.76,5.76,0,0,1-4.81,2.47,7.41,7.41,0,0,1-2.81-.51,5.71,5.71,0,0,1-2.12-1.46,6.69,6.69,0,0,1-1.34-2.25,8.51,8.51,0,0,1-.47-2.93,12.58,12.58,0,0,1,.59-3.81,11.14,11.14,0,0,1,1.73-3.39,9,9,0,0,1,2.78-2.44,7.45,7.45,0,0,1,3.74-.93,7,7,0,0,1,3.22.71,4.69,4.69,0,0,1,2.13,2.44h.07l.54-2.67h4.61l-3.49,16.59A13.86,13.86,0,0,1,962.67,4425.61Zm-7.14-16.19A5.61,5.61,0,0,0,954,4411a7.87,7.87,0,0,0-.93,2.13,8.35,8.35,0,0,0-.32,2.22,5.67,5.67,0,0,0,.19,1.47,3.56,3.56,0,0,0,.59,1.24,2.84,2.84,0,0,0,1,.85,3.22,3.22,0,0,0,1.46.3,4,4,0,0,0,2.25-.63,5.35,5.35,0,0,0,1.59-1.59,7.58,7.58,0,0,0,.95-2.15,8.8,8.8,0,0,0,.32-2.3,4.25,4.25,0,0,0-.85-2.73,3.13,3.13,0,0,0-2.61-1.07A3.61,3.61,0,0,0,955.53,4409.42Z"/><path class="cls-12" d="M847.54,4451.12a3.21,3.21,0,0,0,1.08,1.37,4.61,4.61,0,0,0,1.69.73,9.76,9.76,0,0,0,2.13.22,6.67,6.67,0,0,0,1.63-.2,5.21,5.21,0,0,0,1.47-.61,3.45,3.45,0,0,0,1.08-1,2.77,2.77,0,0,0,.42-1.56,2,2,0,0,0-.54-1.44,4.76,4.76,0,0,0-1.41-1,12.31,12.31,0,0,0-2-.71l-2.22-.64a18.74,18.74,0,0,1-2.24-.81,7.64,7.64,0,0,1-1.95-1.22,5.59,5.59,0,0,1-1.39-1.83,6,6,0,0,1-.53-2.64,6.64,6.64,0,0,1,.85-3.45,7.1,7.1,0,0,1,2.2-2.32,9.78,9.78,0,0,1,3.06-1.32,14.44,14.44,0,0,1,3.47-.42,14.05,14.05,0,0,1,3.5.42,7.94,7.94,0,0,1,2.88,1.37,6.78,6.78,0,0,1,2,2.42,8,8,0,0,1,.73,3.57h-5a3.75,3.75,0,0,0-.29-1.71,2.92,2.92,0,0,0-.91-1.13,3.71,3.71,0,0,0-1.41-.63,7.82,7.82,0,0,0-3.23,0,4.41,4.41,0,0,0-1.37.51,2.88,2.88,0,0,0-1,.93,2.57,2.57,0,0,0-.37,1.42,1.9,1.9,0,0,0,.66,1.47,5.58,5.58,0,0,0,1.59,1,11.38,11.38,0,0,0,1.91.61l1.59.36a20.15,20.15,0,0,1,2.61.86,7.08,7.08,0,0,1,2,1.27,5.32,5.32,0,0,1,1.34,1.9,7,7,0,0,1,.47,2.74,7.16,7.16,0,0,1-.9,3.69,7.57,7.57,0,0,1-2.3,2.47,9.61,9.61,0,0,1-3.17,1.37,14.88,14.88,0,0,1-3.49.42q-5.08,0-7.57-2.07t-2.49-6.5h5A4.8,4.8,0,0,0,847.54,4451.12Z"/><path class="cls-12" d="M865,4445.71a10.46,10.46,0,0,1,2-3.47,9.4,9.4,0,0,1,3.17-2.35,9.88,9.88,0,0,1,4.2-.86,11.34,11.34,0,0,1,3.3.46,7.2,7.2,0,0,1,2.59,1.37,6.08,6.08,0,0,1,1.68,2.3,8.34,8.34,0,0,1,.59,3.28,13.19,13.19,0,0,1-.69,4.32,10.26,10.26,0,0,1-2,3.5,9.35,9.35,0,0,1-3.2,2.34,10.34,10.34,0,0,1-4.28.85,8.65,8.65,0,0,1-5.84-1.88,7,7,0,0,1-2.18-5.64A12.65,12.65,0,0,1,865,4445.71Zm4.33,5.71a3.67,3.67,0,0,0,.66,1.25,3.24,3.24,0,0,0,1.08.86,3.29,3.29,0,0,0,1.49.32,3.74,3.74,0,0,0,2.32-.73,5.94,5.94,0,0,0,1.59-1.83,9,9,0,0,0,.93-2.39,10.46,10.46,0,0,0,.3-2.4,4.54,4.54,0,0,0-.8-2.81,3.22,3.22,0,0,0-2.73-1,3.69,3.69,0,0,0-2.29.73,5.81,5.81,0,0,0-1.58,1.81,9.11,9.11,0,0,0-.91,2.35,10.26,10.26,0,0,0-.3,2.39A5,5,0,0,0,869.33,4451.41Z"/><path class="cls-12" d="M885.07,4445.71a10.46,10.46,0,0,1,2-3.47,9.4,9.4,0,0,1,3.17-2.35,9.88,9.88,0,0,1,4.2-.86,11.34,11.34,0,0,1,3.3.46,7.2,7.2,0,0,1,2.59,1.37,6.08,6.08,0,0,1,1.68,2.3,8.34,8.34,0,0,1,.59,3.28,13.19,13.19,0,0,1-.69,4.32,10.26,10.26,0,0,1-2,3.5,9.35,9.35,0,0,1-3.2,2.34,10.34,10.34,0,0,1-4.28.85,8.65,8.65,0,0,1-5.84-1.88,7,7,0,0,1-2.18-5.64A12.65,12.65,0,0,1,885.07,4445.71Zm4.33,5.71a3.67,3.67,0,0,0,.66,1.25,3.24,3.24,0,0,0,1.08.86,3.29,3.29,0,0,0,1.49.32,3.74,3.74,0,0,0,2.32-.73,5.94,5.94,0,0,0,1.59-1.83,9,9,0,0,0,.93-2.39,10.46,10.46,0,0,0,.3-2.4,4.54,4.54,0,0,0-.8-2.81,3.22,3.22,0,0,0-2.73-1,3.69,3.69,0,0,0-2.29.73,5.81,5.81,0,0,0-1.58,1.81,9.11,9.11,0,0,0-.91,2.35,10.26,10.26,0,0,0-.3,2.39A5,5,0,0,0,889.41,4451.41Z"/><path class="cls-12" d="M912,4439.49l-.54,2.44h.07a7.48,7.48,0,0,1,6.13-2.91q5.11,0,5.11,4.71a4.59,4.59,0,0,1-.07.69q-.07.42-.15.86t-.17.83q-.08.39-.12.63L920.07,4457h-4.81l2.13-10.26q.07-.41.19-1.08a6.55,6.55,0,0,0,.12-1,1.52,1.52,0,0,0-.73-1.29,2.7,2.7,0,0,0-1.57-.51,4.15,4.15,0,0,0-1.91.42,4.73,4.73,0,0,0-1.42,1.1,6.09,6.09,0,0,0-1,1.56,9.59,9.59,0,0,0-.59,1.79l-2,9.31h-4.78l3.62-17.51Z"/><path class="cls-12" d="M931.14,4451.78,930,4457h-5.32l1.08-5.21Zm-1.12-2h-2.37l.85-10.36,1.39-6.57H935l-1.42,6.57Z"/></g><g id="背景物件"><line class="cls-18" x1="1279.79" y1="2434.78" x2="826.57" y2="2434.78"/><line class="cls-19" x1="824.09" y1="2434.78" x2="794.87" y2="2434.78"/><line class="cls-20" x1="814.58" y1="2377.44" x2="814.58" y2="2416.21"/><line class="cls-21" x1="814.58" y1="2377.44" x2="814.58" y2="2416.21"/><line class="cls-22" x1="814.58" y1="2377.44" x2="814.58" y2="2416.21"/><line class="cls-20" x1="857.73" y1="2377.44" x2="857.73" y2="2416.21"/><line class="cls-23" x1="857.73" y1="2377.44" x2="857.73" y2="2416.21"/><line class="cls-24" x1="857.73" y1="2377.44" x2="857.73" y2="2416.21"/><line class="cls-20" x1="900.88" y1="2377.44" x2="900.88" y2="2416.21"/><line class="cls-25" x1="900.88" y1="2377.44" x2="900.88" y2="2416.21"/><line class="cls-26" x1="900.88" y1="2377.44" x2="900.88" y2="2416.21"/><line class="cls-20" x1="944.03" y1="2377.44" x2="944.03" y2="2416.21"/><line class="cls-27" x1="944.03" y1="2377.44" x2="944.03" y2="2416.21"/><line class="cls-28" x1="944.03" y1="2377.44" x2="944.03" y2="2416.21"/><line class="cls-20" x1="987.17" y1="2377.44" x2="987.17" y2="2416.21"/><line class="cls-29" x1="987.17" y1="2377.44" x2="987.17" y2="2416.21"/><line class="cls-30" x1="987.17" y1="2377.44" x2="987.17" y2="2416.21"/><line class="cls-20" x1="1030.32" y1="2377.44" x2="1030.32" y2="2416.21"/><line class="cls-31" x1="1030.32" y1="2377.44" x2="1030.32" y2="2416.21"/><line class="cls-32" x1="1030.32" y1="2377.44" x2="1030.32" y2="2416.21"/><line class="cls-20" x1="1073.47" y1="2377.44" x2="1073.47" y2="2416.21"/><line class="cls-33" x1="1073.47" y1="2377.44" x2="1073.47" y2="2416.21"/><line class="cls-34" x1="1073.47" y1="2377.44" x2="1073.47" y2="2416.21"/><line class="cls-20" x1="1116.62" y1="2377.44" x2="1116.62" y2="2416.21"/><line class="cls-35" x1="1116.62" y1="2377.44" x2="1116.62" y2="2416.21"/><line class="cls-36" x1="1116.62" y1="2377.44" x2="1116.62" y2="2416.21"/><line class="cls-20" x1="1159.77" y1="2377.44" x2="1159.77" y2="2416.21"/><line class="cls-37" x1="1159.77" y1="2377.44" x2="1159.77" y2="2416.21"/><line class="cls-38" x1="1159.77" y1="2377.44" x2="1159.77" y2="2416.21"/><line class="cls-20" x1="1202.92" y1="2377.44" x2="1202.92" y2="2416.21"/><line class="cls-39" x1="1202.92" y1="2377.44" x2="1202.92" y2="2416.21"/><line class="cls-40" x1="1202.92" y1="2377.44" x2="1202.92" y2="2416.21"/><line class="cls-20" x1="1246.06" y1="2377.44" x2="1246.06" y2="2416.21"/><line class="cls-41" x1="1246.06" y1="2377.44" x2="1246.06" y2="2416.21"/><line class="cls-42" x1="1246.06" y1="2377.44" x2="1246.06" y2="2416.21"/><line class="cls-43" x1="1289.21" y1="2377.44" x2="1289.21" y2="2416.21"/><line class="cls-44" x1="1289.21" y1="2377.44" x2="1289.21" y2="2416.21"/><line class="cls-19" x1="456.45" y1="2434.78" x2="427.22" y2="2434.78"/><line class="cls-45" x1="422.53" y1="2434.78" x2="-68.71" y2="2434.78"/><line class="cls-23" x1="-34" y1="2377.44" x2="-34" y2="2416.21"/><line class="cls-24" x1="-34" y1="2377.44" x2="-34" y2="2416.21"/><line class="cls-20" x1="12.57" y1="2377.44" x2="12.57" y2="2416.21"/><line class="cls-25" x1="12.57" y1="2377.44" x2="12.57" y2="2416.21"/><line class="cls-26" x1="12.57" y1="2377.44" x2="12.57" y2="2416.21"/><line class="cls-20" x1="59.14" y1="2377.44" x2="59.14" y2="2416.21"/><line class="cls-27" x1="59.14" y1="2377.44" x2="59.14" y2="2416.21"/><line class="cls-28" x1="59.14" y1="2377.44" x2="59.14" y2="2416.21"/><line class="cls-20" x1="105.71" y1="2377.44" x2="105.71" y2="2416.21"/><line class="cls-29" x1="105.71" y1="2377.44" x2="105.71" y2="2416.21"/><line class="cls-30" x1="105.71" y1="2377.44" x2="105.71" y2="2416.21"/><line class="cls-20" x1="152.28" y1="2377.44" x2="152.28" y2="2416.21"/><line class="cls-31" x1="152.28" y1="2377.44" x2="152.28" y2="2416.21"/><line class="cls-32" x1="152.28" y1="2377.44" x2="152.28" y2="2416.21"/><line class="cls-20" x1="198.85" y1="2377.44" x2="198.85" y2="2416.21"/><line class="cls-33" x1="198.85" y1="2377.44" x2="198.85" y2="2416.21"/><line class="cls-34" x1="198.85" y1="2377.44" x2="198.85" y2="2416.21"/><line class="cls-20" x1="245.41" y1="2377.44" x2="245.41" y2="2416.21"/><line class="cls-35" x1="245.41" y1="2377.44" x2="245.41" y2="2416.21"/><line class="cls-36" x1="245.41" y1="2377.44" x2="245.41" y2="2416.21"/><line class="cls-20" x1="291.98" y1="2377.44" x2="291.98" y2="2416.21"/><line class="cls-37" x1="291.98" y1="2377.44" x2="291.98" y2="2416.21"/><line class="cls-38" x1="291.98" y1="2377.44" x2="291.98" y2="2416.21"/><line class="cls-20" x1="338.55" y1="2377.44" x2="338.55" y2="2416.21"/><line class="cls-39" x1="338.55" y1="2377.44" x2="338.55" y2="2416.21"/><line class="cls-40" x1="338.55" y1="2377.44" x2="338.55" y2="2416.21"/><line class="cls-20" x1="385.12" y1="2377.44" x2="385.12" y2="2416.21"/><line class="cls-41" x1="385.12" y1="2377.44" x2="385.12" y2="2416.21"/><line class="cls-42" x1="385.12" y1="2377.44" x2="385.12" y2="2416.21"/><line class="cls-20" x1="431.69" y1="2377.44" x2="431.69" y2="2416.21"/><line class="cls-43" x1="431.69" y1="2377.44" x2="431.69" y2="2416.21"/><line class="cls-44" x1="431.69" y1="2377.44" x2="431.69" y2="2416.21"/><path class="cls-46" d="M1333.35,3120.58l70.6,120.81c15,25.66-3.51,57.91-33.23,57.91H1224.11c-30.29,0-48.71-33.36-32.58-59l76-120.81C1282.93,3095,1318.77,3095.64,1333.35,3120.58Z"/><path class="cls-46" d="M1328.83,3058.25l61.71,105.59c13.11,22.43-3.07,50.62-29,50.62H1233.34c-26.47,0-42.57-29.16-28.48-51.56l66.44-105.59A33.64,33.64,0,0,1,1328.83,3058.25Z"/><path class="cls-46" d="M1323.21,3013l50.68,86.72a27.63,27.63,0,0,1-23.86,41.57H1244.79a27.63,27.63,0,0,1-23.39-42.35l54.56-86.72A27.63,27.63,0,0,1,1323.21,3013Z"/><path class="cls-46" d="M1318.46,2970.77l41.33,70.73a22.54,22.54,0,0,1-19.46,33.91H1254.5a22.54,22.54,0,0,1-19.07-34.54l44.5-70.73A22.54,22.54,0,0,1,1318.46,2970.77Z"/><line class="cls-47" x1="1297.41" y1="3294.52" x2="1245.29" y2="3242.4"/><line class="cls-47" x1="1297.06" y1="3221.79" x2="1255.47" y2="3180.2"/><line class="cls-47" x1="1297.41" y1="3151.24" x2="1269.87" y2="3123.69"/><line class="cls-47" x1="1297.41" y1="3087.03" x2="1275.32" y2="3064.93"/><path class="cls-46" d="M1261,3297.14,1330.51,3416c14.76,25.25-3.46,57-32.7,57H1153.56c-29.8,0-47.93-32.82-32.06-58l74.79-118.86C1211.43,3272,1246.7,3272.6,1261,3297.14Z"/><path class="cls-46" d="M1256.59,3235.81l60.72,103.89c12.9,22.07-3,49.81-28.58,49.81H1162.64c-26,0-41.89-28.69-28-50.73L1200,3234.89A33.1,33.1,0,0,1,1256.59,3235.81Z"/><path class="cls-46" d="M1251.07,3191.24l49.86,85.33a27.19,27.19,0,0,1-23.47,40.9H1173.91a27.19,27.19,0,0,1-23-41.67l53.69-85.33A27.19,27.19,0,0,1,1251.07,3191.24Z"/><path class="cls-46" d="M1246.39,3149.74l40.67,69.59a22.17,22.17,0,0,1-19.14,33.36h-84.46a22.17,22.17,0,0,1-18.77-34l43.79-69.59A22.17,22.17,0,0,1,1246.39,3149.74Z"/><line class="cls-48" x1="1229.91" y1="3448.16" x2="1276.11" y2="3396.07"/><line class="cls-48" x1="1225.68" y1="3468.28" x2="1174.4" y2="3417"/><line class="cls-49" x1="1225.68" y1="3591.1" x2="1225.68" y2="3210.2"/><line class="cls-48" x1="1229.91" y1="3366.23" x2="1261.15" y2="3327.71"/><line class="cls-48" x1="1225.33" y1="3396.73" x2="1184.41" y2="3355.8"/><line class="cls-48" x1="1229.91" y1="3293.73" x2="1251.89" y2="3266.63"/><line class="cls-48" x1="1225.68" y1="3327.3" x2="1198.58" y2="3300.2"/><line class="cls-48" x1="1229.91" y1="3244.05" x2="1248.35" y2="3221.32"/><line class="cls-48" x1="1225.68" y1="3264.13" x2="1203.94" y2="3242.38"/><path class="cls-46" d="M1310.09,4250.52l69.46,118.86c14.76,25.25-3.46,57-32.7,57H1202.6c-29.8,0-47.93-32.82-32.06-58l74.79-118.86C1260.47,4225.39,1295.74,4226,1310.09,4250.52Z"/><path class="cls-46" d="M1305.63,4189.19l60.72,103.89c12.9,22.07-3,49.81-28.58,49.81H1211.68c-26,0-41.89-28.69-28-50.73L1249,4188.26A33.1,33.1,0,0,1,1305.63,4189.19Z"/><path class="cls-46" d="M1300.11,4144.62l49.86,85.33a27.19,27.19,0,0,1-23.47,40.9H1222.95a27.19,27.19,0,0,1-23-41.67l53.69-85.33A27.19,27.19,0,0,1,1300.11,4144.62Z"/><path class="cls-46" d="M1295.43,4103.11l40.67,69.59a22.17,22.17,0,0,1-19.14,33.36H1232.5a22.17,22.17,0,0,1-18.77-34l43.79-69.59A22.17,22.17,0,0,1,1295.43,4103.11Z"/><line class="cls-48" x1="1278.95" y1="4401.54" x2="1325.15" y2="4349.44"/><line class="cls-48" x1="1274.72" y1="4421.66" x2="1223.44" y2="4370.38"/><line class="cls-49" x1="1274.72" y1="4544.47" x2="1274.72" y2="4163.57"/><line class="cls-48" x1="1278.95" y1="4319.6" x2="1310.19" y2="4281.09"/><line class="cls-48" x1="1274.37" y1="4350.1" x2="1233.45" y2="4309.18"/><line class="cls-48" x1="1278.95" y1="4247.11" x2="1300.93" y2="4220.01"/><line class="cls-48" x1="1274.72" y1="4280.68" x2="1247.62" y2="4253.58"/><line class="cls-48" x1="1278.95" y1="4197.43" x2="1297.39" y2="4174.69"/><line class="cls-48" x1="1274.72" y1="4217.5" x2="1252.98" y2="4195.76"/><path class="cls-46" d="M1235.4,4381.36l69.46,118.86c14.76,25.25-3.46,57-32.7,57H1127.92c-29.8,0-47.93-32.82-32.06-58l74.79-118.86C1185.79,4356.24,1221.06,4356.81,1235.4,4381.36Z"/><path class="cls-46" d="M1230.95,4320l60.72,103.89c12.9,22.07-3,49.81-28.58,49.81H1137c-26,0-41.89-28.69-28-50.73l65.37-103.89A33.1,33.1,0,0,1,1230.95,4320Z"/><path class="cls-46" d="M1225.43,4275.46l49.86,85.33a27.19,27.19,0,0,1-23.47,40.9H1148.27a27.19,27.19,0,0,1-23-41.67l53.69-85.33A27.19,27.19,0,0,1,1225.43,4275.46Z"/><path class="cls-46" d="M1220.74,4234l40.67,69.59a22.17,22.17,0,0,1-19.14,33.36h-84.46a22.17,22.17,0,0,1-18.77-34l43.79-69.59A22.17,22.17,0,0,1,1220.74,4234Z"/><line class="cls-48" x1="1204.27" y1="4532.38" x2="1250.46" y2="4480.29"/><line class="cls-48" x1="1200.04" y1="4552.5" x2="1148.76" y2="4501.22"/><line class="cls-49" x1="1200.04" y1="4675.31" x2="1200.04" y2="4294.41"/><line class="cls-48" x1="1204.27" y1="4450.44" x2="1235.51" y2="4411.93"/><line class="cls-48" x1="1199.69" y1="4480.94" x2="1158.77" y2="4440.02"/><line class="cls-48" x1="1204.27" y1="4377.95" x2="1226.25" y2="4350.85"/><line class="cls-48" x1="1200.04" y1="4411.52" x2="1172.94" y2="4384.42"/><line class="cls-48" x1="1204.27" y1="4328.27" x2="1222.71" y2="4305.53"/><line class="cls-48" x1="1200.04" y1="4348.34" x2="1178.3" y2="4326.6"/><path class="cls-46" d="M1267.26,2571.27l69.46,118.86c14.76,25.25-3.46,57-32.7,57H1159.77c-29.8,0-47.93-32.82-32.06-58l74.79-118.86C1217.64,2546.15,1252.91,2546.72,1267.26,2571.27Z"/><path class="cls-46" d="M1262.8,2509.94l60.72,103.89c12.9,22.07-3,49.81-28.58,49.81H1168.86c-26,0-41.89-28.69-28-50.73L1206.21,2509A33.1,33.1,0,0,1,1262.8,2509.94Z"/><path class="cls-46" d="M1257.28,2465.37l49.86,85.33a27.19,27.19,0,0,1-23.47,40.9H1180.12a27.19,27.19,0,0,1-23-41.67l53.69-85.33A27.19,27.19,0,0,1,1257.28,2465.37Z"/><path class="cls-46" d="M1252.6,2423.86l40.67,69.59a22.17,22.17,0,0,1-19.14,33.36h-84.46a22.17,22.17,0,0,1-18.77-34l43.79-69.59A22.17,22.17,0,0,1,1252.6,2423.86Z"/><line class="cls-48" x1="1236.12" y1="2722.29" x2="1282.32" y2="2670.19"/><line class="cls-48" x1="1231.9" y1="2742.41" x2="1180.61" y2="2691.13"/><line class="cls-49" x1="1231.9" y1="2865.22" x2="1231.9" y2="2484.32"/><line class="cls-48" x1="1236.12" y1="2640.35" x2="1267.37" y2="2601.84"/><line class="cls-48" x1="1231.54" y1="2670.85" x2="1190.62" y2="2629.93"/><line class="cls-48" x1="1236.12" y1="2567.86" x2="1258.11" y2="2540.76"/><line class="cls-48" x1="1231.9" y1="2601.43" x2="1204.8" y2="2574.33"/><line class="cls-48" x1="1236.12" y1="2518.18" x2="1254.57" y2="2495.44"/><line class="cls-48" x1="1231.9" y1="2538.25" x2="1210.15" y2="2516.51"/><path class="cls-46" d="M1096.34,2571.27l69.46,118.86c14.76,25.25-3.46,57-32.7,57H988.85c-29.8,0-47.93-32.82-32.06-58l74.79-118.86C1046.72,2546.15,1082,2546.72,1096.34,2571.27Z"/><path class="cls-46" d="M1091.88,2509.94l60.72,103.89c12.9,22.07-3,49.81-28.58,49.81H997.93c-26,0-41.89-28.69-28-50.73L1035.28,2509A33.1,33.1,0,0,1,1091.88,2509.94Z"/><path class="cls-46" d="M1086.36,2465.37l49.86,85.33a27.19,27.19,0,0,1-23.47,40.9H1009.2a27.19,27.19,0,0,1-23-41.67l53.69-85.33A27.19,27.19,0,0,1,1086.36,2465.37Z"/><path class="cls-46" d="M1081.68,2423.86l40.67,69.59a22.17,22.17,0,0,1-19.14,33.36h-84.46a22.17,22.17,0,0,1-18.77-34l43.79-69.59A22.17,22.17,0,0,1,1081.68,2423.86Z"/><line class="cls-48" x1="1065.2" y1="2722.29" x2="1111.4" y2="2670.19"/><line class="cls-48" x1="1060.97" y1="2742.41" x2="1009.69" y2="2691.13"/><line class="cls-49" x1="1060.97" y1="2865.22" x2="1060.97" y2="2484.32"/><line class="cls-48" x1="1065.2" y1="2640.35" x2="1096.44" y2="2601.84"/><line class="cls-48" x1="1060.62" y1="2670.85" x2="1019.7" y2="2629.93"/><line class="cls-48" x1="1065.2" y1="2567.86" x2="1087.18" y2="2540.76"/><line class="cls-48" x1="1060.97" y1="2601.43" x2="1033.87" y2="2574.33"/><line class="cls-48" x1="1065.2" y1="2518.18" x2="1083.64" y2="2495.44"/><line class="cls-48" x1="1060.97" y1="2538.25" x2="1039.23" y2="2516.51"/><path class="cls-46" d="M927.29,2571.27l69.46,118.86c14.76,25.25-3.46,57-32.7,57H819.8c-29.8,0-47.93-32.82-32.06-58l74.79-118.86C877.67,2546.15,912.94,2546.72,927.29,2571.27Z"/><path class="cls-46" d="M922.83,2509.94l60.72,103.89c12.9,22.07-3,49.81-28.58,49.81H828.88c-26,0-41.89-28.69-28-50.73L866.23,2509A33.1,33.1,0,0,1,922.83,2509.94Z"/><path class="cls-46" d="M917.31,2465.37l49.86,85.33a27.19,27.19,0,0,1-23.47,40.9H840.15a27.19,27.19,0,0,1-23-41.67l53.69-85.33A27.19,27.19,0,0,1,917.31,2465.37Z"/><path class="cls-46" d="M912.63,2423.86l40.67,69.59a22.17,22.17,0,0,1-19.14,33.36H849.7a22.17,22.17,0,0,1-18.77-34l43.79-69.59A22.17,22.17,0,0,1,912.63,2423.86Z"/><line class="cls-48" x1="896.15" y1="2722.29" x2="942.35" y2="2670.19"/><line class="cls-48" x1="891.92" y1="2742.41" x2="840.64" y2="2691.13"/><line class="cls-49" x1="891.92" y1="2865.22" x2="891.92" y2="2484.32"/><line class="cls-48" x1="896.15" y1="2640.35" x2="927.39" y2="2601.84"/><line class="cls-48" x1="891.57" y1="2670.85" x2="850.65" y2="2629.93"/><line class="cls-48" x1="896.15" y1="2567.86" x2="918.14" y2="2540.76"/><line class="cls-48" x1="891.92" y1="2601.43" x2="864.82" y2="2574.33"/><line class="cls-48" x1="896.15" y1="2518.18" x2="914.59" y2="2495.44"/><line class="cls-48" x1="891.92" y1="2538.25" x2="870.18" y2="2516.51"/><path class="cls-46" d="M86.55,2571.27,156,2690.13c14.76,25.25-3.46,57-32.7,57H-20.94c-29.8,0-47.93-32.82-32.06-58l74.79-118.86C36.94,2546.15,72.21,2546.72,86.55,2571.27Z"/><path class="cls-46" d="M82.1,2509.94l60.72,103.89c12.9,22.07-3,49.81-28.58,49.81H-11.85c-26,0-41.89-28.69-28-50.73L25.5,2509A33.1,33.1,0,0,1,82.1,2509.94Z"/><path class="cls-46" d="M76.57,2465.37l49.86,85.33A27.19,27.19,0,0,1,103,2591.6H-.59a27.19,27.19,0,0,1-23-41.67l53.69-85.33A27.19,27.19,0,0,1,76.57,2465.37Z"/><path class="cls-46" d="M71.89,2423.86l40.67,69.59a22.17,22.17,0,0,1-19.14,33.36H9a22.17,22.17,0,0,1-18.77-34L34,2423.24A22.17,22.17,0,0,1,71.89,2423.86Z"/><line class="cls-48" x1="55.41" y1="2722.29" x2="101.61" y2="2670.19"/><line class="cls-48" x1="51.19" y1="2742.41" x2="-0.1" y2="2691.13"/><line class="cls-49" x1="51.19" y1="2865.22" x2="51.19" y2="2484.32"/><line class="cls-48" x1="55.41" y1="2640.35" x2="86.66" y2="2601.84"/><line class="cls-48" x1="50.84" y1="2670.85" x2="9.91" y2="2629.93"/><line class="cls-48" x1="55.41" y1="2567.86" x2="77.4" y2="2540.76"/><line class="cls-48" x1="51.19" y1="2601.43" x2="24.09" y2="2574.33"/><line class="cls-48" x1="55.41" y1="2518.18" x2="73.86" y2="2495.44"/><line class="cls-48" x1="51.19" y1="2538.25" x2="29.44" y2="2516.51"/><path class="cls-46" d="M12.42,909.22-57,1028.08c-14.76,25.25,3.46,57,32.7,57H119.91c29.8,0,47.93-32.82,32.06-58L77.18,908.16C62,884.09,26.77,884.67,12.42,909.22Z"/><path class="cls-46" d="M16.88,847.89-43.84,951.78c-12.9,22.07,3,49.81,28.58,49.81H110.83c26,0,41.89-28.69,28-50.73L73.48,847A33.1,33.1,0,0,0,16.88,847.89Z"/><path class="cls-46" d="M22.4,803.31l-49.86,85.33A27.19,27.19,0,0,0-4,929.54H99.56a27.19,27.19,0,0,0,23-41.67L68.89,802.55A27.19,27.19,0,0,0,22.4,803.31Z"/><path class="cls-46" d="M27.08,761.81-13.59,831.4A22.17,22.17,0,0,0,5.56,864.76H90a22.17,22.17,0,0,0,18.77-34L65,761.19A22.17,22.17,0,0,0,27.08,761.81Z"/><line class="cls-48" x1="43.56" y1="1060.24" x2="-2.64" y2="1008.14"/><line class="cls-48" x1="47.79" y1="1080.36" x2="99.07" y2="1029.07"/><line class="cls-49" x1="47.79" y1="1203.17" x2="47.79" y2="822.27"/><line class="cls-48" x1="43.56" y1="978.3" x2="12.32" y2="939.79"/><line class="cls-48" x1="48.14" y1="1008.8" x2="89.06" y2="967.88"/><line class="cls-48" x1="43.56" y1="905.8" x2="21.58" y2="878.7"/><line class="cls-48" x1="47.79" y1="939.38" x2="74.89" y2="912.28"/><line class="cls-48" x1="43.56" y1="856.12" x2="25.12" y2="833.39"/><line class="cls-48" x1="47.79" y1="876.2" x2="69.53" y2="854.46"/><path class="cls-46" d="M-62.25,1012.17-131.72,1131c-14.76,25.25,3.46,57,32.7,57H45.23c29.8,0,47.93-32.82,32.06-58L2.5,1011.11C-12.64,987-47.91,987.63-62.25,1012.17Z"/><path class="cls-46" d="M-57.8,950.84l-60.72,103.89c-12.9,22.07,3,49.81,28.58,49.81H36.15c26,0,41.89-28.69,28-50.73L-1.2,949.92A33.1,33.1,0,0,0-57.8,950.84Z"/><path class="cls-46" d="M-52.28,906.27l-49.86,85.33a27.19,27.19,0,0,0,23.47,40.9H24.88a27.19,27.19,0,0,0,23-41.67L-5.79,905.51A27.19,27.19,0,0,0-52.28,906.27Z"/><path class="cls-46" d="M-47.59,864.77l-40.67,69.59a22.17,22.17,0,0,0,19.14,33.36H15.34a22.17,22.17,0,0,0,18.77-34L-9.68,864.14A22.17,22.17,0,0,0-47.59,864.77Z"/><line class="cls-48" x1="-26.89" y1="1183.31" x2="24.39" y2="1132.03"/><line class="cls-48" x1="-26.54" y1="1111.76" x2="14.38" y2="1070.83"/><line class="cls-48" x1="-26.89" y1="1042.33" x2="0.21" y2="1015.23"/><line class="cls-48" x1="-26.89" y1="979.16" x2="-5.15" y2="957.41"/><path class="cls-46" d="M174.68,257.22,105.21,376.09c-14.76,25.25,3.46,57,32.7,57H282.17c29.8,0,47.93-32.82,32.06-58L239.43,256.16C224.29,232.1,189,232.67,174.68,257.22Z"/><path class="cls-46" d="M179.13,195.89,118.42,299.78c-12.9,22.07,3,49.81,28.58,49.81H273.08c26,0,41.89-28.69,28-50.73L235.73,195A33.1,33.1,0,0,0,179.13,195.89Z"/><path class="cls-46" d="M184.66,151.32l-49.86,85.33a27.19,27.19,0,0,0,23.47,40.9H261.81a27.19,27.19,0,0,0,23-41.67l-53.69-85.33A27.19,27.19,0,0,0,184.66,151.32Z"/><path class="cls-46" d="M189.34,109.81,148.67,179.4a22.17,22.17,0,0,0,19.14,33.36h84.46a22.17,22.17,0,0,0,18.77-34l-43.79-69.59A22.17,22.17,0,0,0,189.34,109.81Z"/><line class="cls-48" x1="205.82" y1="408.24" x2="159.62" y2="356.15"/><line class="cls-48" x1="210.04" y1="428.36" x2="261.32" y2="377.08"/><line class="cls-49" x1="210.04" y1="551.17" x2="210.04" y2="170.27"/><line class="cls-48" x1="205.82" y1="326.3" x2="174.57" y2="287.79"/><line class="cls-48" x1="210.39" y1="356.8" x2="251.32" y2="315.88"/><line class="cls-48" x1="205.82" y1="253.81" x2="183.83" y2="226.71"/><line class="cls-48" x1="210.04" y1="287.38" x2="237.14" y2="260.28"/><line class="cls-48" x1="205.82" y1="204.13" x2="187.37" y2="181.39"/><line class="cls-48" x1="210.04" y1="224.2" x2="231.78" y2="202.46"/><path class="cls-46" d="M51.63,299.62-17.83,418.49c-14.76,25.25,3.46,57,32.7,57H159.12c29.8,0,47.93-32.82,32.06-58L116.39,298.56C101.25,274.5,66,275.08,51.63,299.62Z"/><path class="cls-46" d="M56.09,238.29-4.63,342.19C-17.53,364.26-1.61,392,24,392H150c26,0,41.89-28.69,28-50.73L112.69,237.37A33.1,33.1,0,0,0,56.09,238.29Z"/><path class="cls-46" d="M61.61,193.72,11.75,279A27.19,27.19,0,0,0,35.22,320H138.77a27.19,27.19,0,0,0,23-41.67L108.09,193A27.19,27.19,0,0,0,61.61,193.72Z"/><path class="cls-46" d="M66.29,152.22,25.62,221.81a22.17,22.17,0,0,0,19.14,33.36h84.46a22.17,22.17,0,0,0,18.77-34L104.2,151.6A22.17,22.17,0,0,0,66.29,152.22Z"/><line class="cls-48" x1="82.77" y1="450.64" x2="36.57" y2="398.55"/><line class="cls-48" x1="87" y1="470.76" x2="138.28" y2="419.48"/><line class="cls-49" x1="87" y1="593.58" x2="87" y2="212.68"/><line class="cls-48" x1="82.77" y1="368.71" x2="51.53" y2="330.19"/><line class="cls-48" x1="87.35" y1="399.21" x2="128.27" y2="358.28"/><line class="cls-48" x1="82.77" y1="296.21" x2="60.78" y2="269.11"/><line class="cls-48" x1="87" y1="329.78" x2="114.1" y2="302.68"/><line class="cls-48" x1="82.77" y1="246.53" x2="64.33" y2="223.8"/><line class="cls-48" x1="87" y1="266.61" x2="108.74" y2="244.86"/><path class="cls-46" d="M-71.87,421.59l-69.46,118.86c-14.76,25.25,3.46,57,32.7,57H35.61c29.8,0,47.93-32.82,32.06-58L-7.12,420.53C-22.26,396.46-57.53,397-71.87,421.59Z"/><path class="cls-46" d="M-67.42,360.26l-60.72,103.89c-12.9,22.07,3,49.81,28.58,49.81H26.53c26,0,41.89-28.69,28-50.73L-10.82,359.33A33.1,33.1,0,0,0-67.42,360.26Z"/><path class="cls-46" d="M-61.9,315.69-111.76,401a27.19,27.19,0,0,0,23.47,40.9H15.26a27.19,27.19,0,0,0,23-41.67l-53.69-85.33A27.19,27.19,0,0,0-61.9,315.69Z"/><path class="cls-46" d="M-57.22,274.18l-40.67,69.59a22.17,22.17,0,0,0,19.14,33.36H5.71a22.17,22.17,0,0,0,18.77-34L-19.3,273.56A22.17,22.17,0,0,0-57.22,274.18Z"/><line class="cls-48" x1="-36.51" y1="592.73" x2="14.77" y2="541.44"/><line class="cls-48" x1="-36.16" y1="521.17" x2="4.76" y2="480.25"/><path class="cls-46" d="M1083.91,257.22l69.46,118.86c14.76,25.25-3.46,57-32.7,57H976.42c-29.8,0-47.93-32.82-32.06-58l74.79-118.86C1034.29,232.1,1069.56,232.67,1083.91,257.22Z"/><path class="cls-46" d="M1079.45,195.89l60.72,103.89c12.9,22.07-3,49.81-28.58,49.81H985.5c-26,0-41.89-28.69-28-50.73L1022.85,195A33.1,33.1,0,0,1,1079.45,195.89Z"/><path class="cls-46" d="M1073.93,151.32l49.86,85.33a27.19,27.19,0,0,1-23.47,40.9H996.77a27.19,27.19,0,0,1-23-41.67l53.69-85.33A27.19,27.19,0,0,1,1073.93,151.32Z"/><path class="cls-46" d="M1069.25,109.81l40.67,69.59a22.17,22.17,0,0,1-19.14,33.36h-84.46a22.17,22.17,0,0,1-18.77-34l43.79-69.59A22.17,22.17,0,0,1,1069.25,109.81Z"/><line class="cls-48" x1="1052.77" y1="408.24" x2="1098.97" y2="356.15"/><line class="cls-48" x1="1048.54" y1="428.36" x2="997.26" y2="377.08"/><line class="cls-49" x1="1048.54" y1="551.17" x2="1048.54" y2="170.27"/><line class="cls-48" x1="1052.77" y1="326.3" x2="1084.01" y2="287.79"/><line class="cls-48" x1="1048.19" y1="356.8" x2="1007.27" y2="315.88"/><line class="cls-48" x1="1052.77" y1="253.81" x2="1074.75" y2="226.71"/><line class="cls-48" x1="1048.54" y1="287.38" x2="1021.44" y2="260.28"/><line class="cls-48" x1="1052.77" y1="204.13" x2="1071.21" y2="181.39"/><line class="cls-48" x1="1048.54" y1="224.2" x2="1026.8" y2="202.46"/><path class="cls-46" d="M1219.67,299.62l69.46,118.86c14.76,25.25-3.46,57-32.7,57H1112.18c-29.8,0-47.93-32.82-32.06-58l74.79-118.86C1170.05,274.5,1205.32,275.08,1219.67,299.62Z"/><path class="cls-46" d="M1215.21,238.29l60.72,103.89c12.9,22.07-3,49.81-28.58,49.81H1121.26c-26,0-41.89-28.69-28-50.73l65.37-103.89A33.1,33.1,0,0,1,1215.21,238.29Z"/><path class="cls-46" d="M1209.69,193.72,1259.55,279a27.19,27.19,0,0,1-23.47,40.9H1132.53a27.19,27.19,0,0,1-23-41.67L1163.2,193A27.19,27.19,0,0,1,1209.69,193.72Z"/><path class="cls-46" d="M1205,152.22l40.67,69.59a22.17,22.17,0,0,1-19.14,33.36h-84.46a22.17,22.17,0,0,1-18.77-34l43.79-69.59A22.17,22.17,0,0,1,1205,152.22Z"/><line class="cls-48" x1="1188.53" y1="450.64" x2="1234.73" y2="398.55"/><line class="cls-48" x1="1184.3" y1="470.76" x2="1133.02" y2="419.48"/><line class="cls-49" x1="1184.3" y1="593.58" x2="1184.3" y2="212.68"/><line class="cls-48" x1="1188.53" y1="368.71" x2="1219.77" y2="330.19"/><line class="cls-48" x1="1183.95" y1="399.21" x2="1143.03" y2="358.28"/><line class="cls-48" x1="1188.53" y1="296.21" x2="1210.51" y2="269.11"/><line class="cls-48" x1="1184.3" y1="329.78" x2="1157.2" y2="302.68"/><line class="cls-48" x1="1188.53" y1="246.53" x2="1206.97" y2="223.8"/><line class="cls-48" x1="1184.3" y1="266.61" x2="1162.56" y2="244.86"/><path class="cls-46" d="M1350.47,421.59l69.46,118.86c14.76,25.25-3.46,57-32.7,57H1243c-29.8,0-47.93-32.82-32.06-58l74.79-118.86C1300.86,396.46,1336.13,397,1350.47,421.59Z"/><path class="cls-46" d="M1346,360.26l60.72,103.89c12.9,22.07-3,49.81-28.58,49.81H1252.07c-26,0-41.89-28.69-28-50.73l65.37-103.89A33.1,33.1,0,0,1,1346,360.26Z"/><path class="cls-46" d="M1340.49,315.69,1390.36,401a27.19,27.19,0,0,1-23.47,40.9H1263.34a27.19,27.19,0,0,1-23-41.67L1294,314.92A27.19,27.19,0,0,1,1340.49,315.69Z"/><path class="cls-46" d="M1335.81,274.18l40.67,69.59a22.17,22.17,0,0,1-19.14,33.36h-84.46a22.17,22.17,0,0,1-18.77-34l43.79-69.59A22.17,22.17,0,0,1,1335.81,274.18Z"/><line class="cls-48" x1="1315.11" y1="592.73" x2="1263.83" y2="541.44"/><line class="cls-48" x1="1314.76" y1="521.17" x2="1273.84" y2="480.25"/><path class="cls-46" d="M1337.42,1151.1,1406.89,1270c14.76,25.25-3.46,57-32.7,57H1229.94c-29.8,0-47.93-32.82-32.06-58L1272.67,1150C1287.81,1126,1323.08,1126.56,1337.42,1151.1Z"/><path class="cls-46" d="M1333,1089.77l60.72,103.89c12.9,22.07-3,49.81-28.58,49.81H1239c-26,0-41.89-28.69-28-50.73l65.37-103.89A33.1,33.1,0,0,1,1333,1089.77Z"/><path class="cls-46" d="M1327.45,1045.2l49.86,85.33a27.19,27.19,0,0,1-23.47,40.9H1250.29a27.19,27.19,0,0,1-23-41.67l53.69-85.33A27.19,27.19,0,0,1,1327.45,1045.2Z"/><path class="cls-46" d="M1322.76,1003.7l40.67,69.59a22.17,22.17,0,0,1-19.14,33.36h-84.46a22.17,22.17,0,0,1-18.77-34l43.79-69.59A22.17,22.17,0,0,1,1322.76,1003.7Z"/><line class="cls-48" x1="1302.06" y1="1322.24" x2="1250.78" y2="1270.96"/><line class="cls-48" x1="1301.71" y1="1250.69" x2="1260.79" y2="1209.76"/><line class="cls-48" x1="1302.06" y1="1181.26" x2="1274.96" y2="1154.16"/><line class="cls-48" x1="1302.06" y1="1118.09" x2="1280.32" y2="1096.34"/><path class="cls-46" d="M1350.31,683l69.46,118.86c14.76,25.25-3.46,57-32.7,57H1242.82c-29.8,0-47.93-32.82-32.06-58L1285.55,682C1300.69,657.92,1336,658.5,1350.31,683Z"/><path class="cls-46" d="M1345.85,621.71l60.72,103.89c12.9,22.07-3,49.81-28.58,49.81H1251.91c-26,0-41.89-28.69-28-50.73l65.37-103.89A33.1,33.1,0,0,1,1345.85,621.71Z"/><path class="cls-46" d="M1340.33,577.14l49.86,85.33a27.19,27.19,0,0,1-23.47,40.9H1263.17a27.19,27.19,0,0,1-23-41.67l53.69-85.33A27.19,27.19,0,0,1,1340.33,577.14Z"/><path class="cls-46" d="M1335.65,535.64l40.67,69.59a22.17,22.17,0,0,1-19.14,33.36h-84.46a22.17,22.17,0,0,1-18.77-34L1297.74,535A22.17,22.17,0,0,1,1335.65,535.64Z"/><line class="cls-48" x1="1314.95" y1="854.18" x2="1263.66" y2="802.9"/><line class="cls-48" x1="1314.59" y1="782.63" x2="1273.67" y2="741.7"/><path class="cls-46" d="M1376.52,1936.23,1446,2055.1c14.76,25.25-3.46,57-32.7,57H1269c-29.8,0-47.93-32.82-32.06-58l74.79-118.86C1326.9,1911.11,1362.17,1911.69,1376.52,1936.23Z"/><path class="cls-46" d="M1372.06,1874.9l60.72,103.89c12.9,22.07-3,49.81-28.58,49.81H1278.12c-26,0-41.89-28.69-28-50.73L1315.46,1874A33.1,33.1,0,0,1,1372.06,1874.9Z"/><path class="cls-46" d="M1366.54,1830.33l49.86,85.33a27.19,27.19,0,0,1-23.47,40.9H1289.38a27.19,27.19,0,0,1-23-41.67l53.69-85.33A27.19,27.19,0,0,1,1366.54,1830.33Z"/><path class="cls-46" d="M1361.86,1788.83l40.67,69.59a22.17,22.17,0,0,1-19.14,33.36h-84.46a22.17,22.17,0,0,1-18.77-34l43.79-69.59A22.17,22.17,0,0,1,1361.86,1788.83Z"/><path class="cls-46" d="M1292.4,2042.24l69.46,118.86c14.76,25.25-3.46,57-32.7,57H1184.92c-29.8,0-47.93-32.82-32.06-58l74.79-118.86C1242.79,2017.12,1278.06,2017.7,1292.4,2042.24Z"/><path class="cls-46" d="M1287.95,1980.91l60.72,103.89c12.9,22.07-3,49.81-28.58,49.81H1194c-26,0-41.89-28.69-28-50.73L1231.35,1980A33.1,33.1,0,0,1,1287.95,1980.91Z"/><path class="cls-46" d="M1282.42,1936.34l49.86,85.33a27.19,27.19,0,0,1-23.47,40.9H1205.27a27.19,27.19,0,0,1-23-41.67l53.69-85.33A27.19,27.19,0,0,1,1282.42,1936.34Z"/><path class="cls-46" d="M1277.74,1894.84l40.67,69.59a22.17,22.17,0,0,1-19.14,33.36h-84.46a22.17,22.17,0,0,1-18.77-34l43.79-69.59A22.17,22.17,0,0,1,1277.74,1894.84Z"/><line class="cls-48" x1="1261.27" y1="2193.26" x2="1307.46" y2="2141.17"/><line class="cls-48" x1="1257.04" y1="2213.39" x2="1205.76" y2="2162.1"/><line class="cls-49" x1="1257.04" y1="2336.2" x2="1257.04" y2="1955.3"/><line class="cls-48" x1="1261.27" y1="2111.33" x2="1292.51" y2="2072.81"/><line class="cls-48" x1="1256.69" y1="2141.83" x2="1215.77" y2="2100.9"/><line class="cls-48" x1="1261.27" y1="2038.83" x2="1283.25" y2="2011.73"/><line class="cls-48" x1="1257.04" y1="2072.41" x2="1229.94" y2="2045.3"/><line class="cls-48" x1="1261.27" y1="1989.15" x2="1279.71" y2="1966.42"/><line class="cls-48" x1="1257.04" y1="2009.23" x2="1235.3" y2="1987.48"/><path class="cls-46" d="M119.53,1629.51,189,1748.38c14.76,25.25-3.46,57-32.7,57H12c-29.8,0-47.93-32.82-32.06-58l74.79-118.86C69.92,1604.39,105.19,1605,119.53,1629.51Z"/><path class="cls-46" d="M115.08,1568.18l60.72,103.89c12.9,22.07-3,49.81-28.58,49.81H21.13c-26,0-41.89-28.69-28-50.73l65.37-103.89A33.1,33.1,0,0,1,115.08,1568.18Z"/><path class="cls-46" d="M109.55,1523.61l49.86,85.33a27.19,27.19,0,0,1-23.47,40.9H32.4a27.19,27.19,0,0,1-23-41.67l53.69-85.33A27.19,27.19,0,0,1,109.55,1523.61Z"/><path class="cls-46" d="M104.87,1482.1l40.67,69.59a22.17,22.17,0,0,1-19.14,33.36H41.94a22.17,22.17,0,0,1-18.77-34L67,1481.48A22.17,22.17,0,0,1,104.87,1482.1Z"/><line class="cls-48" x1="88.39" y1="1780.53" x2="134.59" y2="1728.44"/><line class="cls-48" x1="84.17" y1="1800.65" x2="32.89" y2="1749.37"/><line class="cls-49" x1="84.17" y1="1923.46" x2="84.17" y2="1515.21"/><line class="cls-48" x1="88.39" y1="1698.6" x2="119.64" y2="1660.08"/><line class="cls-48" x1="83.82" y1="1729.09" x2="42.89" y2="1688.17"/><line class="cls-48" x1="88.39" y1="1626.1" x2="110.38" y2="1599"/><line class="cls-48" x1="84.17" y1="1659.67" x2="57.07" y2="1632.57"/><line class="cls-48" x1="88.39" y1="1561.44" x2="106.84" y2="1538.7"/><line class="cls-48" x1="84.17" y1="1596.49" x2="62.43" y2="1574.75"/><path class="cls-46" d="M3.18,1768.41l-69.46,118.86c-14.76,25.25,3.46,57,32.7,57H110.67c29.8,0,47.93-32.82,32.06-58L67.94,1767.35C52.8,1743.29,17.53,1743.87,3.18,1768.41Z"/><path class="cls-46" d="M7.64,1707.08-53.08,1811c-12.9,22.07,3,49.81,28.58,49.81H101.59c26,0,41.89-28.69,28-50.73L64.24,1706.16A33.1,33.1,0,0,0,7.64,1707.08Z"/><path class="cls-46" d="M13.16,1662.51l-49.86,85.33a27.19,27.19,0,0,0,23.47,40.9H90.32a27.19,27.19,0,0,0,23-41.67l-53.69-85.33A27.19,27.19,0,0,0,13.16,1662.51Z"/><path class="cls-46" d="M17.84,1621l-40.67,69.59A22.17,22.17,0,0,0-3.68,1724H80.77a22.17,22.17,0,0,0,18.77-34l-43.79-69.59A22.17,22.17,0,0,0,17.84,1621Z"/><line class="cls-48" x1="34.32" y1="1919.43" x2="-11.88" y2="1867.34"/><line class="cls-48" x1="38.55" y1="1939.55" x2="89.83" y2="1888.27"/><line class="cls-49" x1="38.55" y1="2062.37" x2="38.55" y2="1662.97"/><line class="cls-48" x1="34.32" y1="1837.5" x2="3.08" y2="1798.98"/><line class="cls-48" x1="38.9" y1="1868" x2="79.82" y2="1827.07"/><line class="cls-48" x1="34.32" y1="1765" x2="12.34" y2="1737.9"/><line class="cls-48" x1="38.55" y1="1798.57" x2="65.65" y2="1771.47"/><line class="cls-48" x1="34.32" y1="1700.34" x2="23.33" y2="1686.79"/><line class="cls-48" x1="38.55" y1="1735.4" x2="60.29" y2="1713.65"/><path class="cls-46" d="M116.7,3648l69.46,118.86c14.76,25.25-3.46,57-32.7,57H9.21c-29.8,0-47.93-32.82-32.06-58L51.95,3647C67.09,3622.92,102.36,3623.5,116.7,3648Z"/><path class="cls-46" d="M112.25,3586.72,173,3690.61c12.9,22.07-3,49.81-28.58,49.81H18.3c-26,0-41.89-28.69-28-50.73l65.37-103.89A33.1,33.1,0,0,1,112.25,3586.72Z"/><path class="cls-46" d="M106.72,3542.14l49.86,85.33a27.19,27.19,0,0,1-23.47,40.9H29.57a27.19,27.19,0,0,1-23-41.67l53.69-85.33A27.19,27.19,0,0,1,106.72,3542.14Z"/><path class="cls-46" d="M102,3500.64l40.67,69.59a22.17,22.17,0,0,1-19.14,33.36H39.11a22.17,22.17,0,0,1-18.77-34L64.13,3500A22.17,22.17,0,0,1,102,3500.64Z"/><line class="cls-48" x1="85.56" y1="3799.07" x2="131.76" y2="3746.97"/><line class="cls-48" x1="81.34" y1="3819.19" x2="30.06" y2="3767.9"/><line class="cls-49" x1="81.34" y1="3942" x2="81.34" y2="3533.74"/><line class="cls-48" x1="85.56" y1="3717.13" x2="116.81" y2="3678.61"/><line class="cls-48" x1="80.99" y1="3747.63" x2="40.06" y2="3706.71"/><line class="cls-48" x1="85.56" y1="3644.63" x2="107.55" y2="3617.53"/><line class="cls-48" x1="81.34" y1="3678.21" x2="54.24" y2="3651.11"/><line class="cls-48" x1="85.56" y1="3579.97" x2="104.01" y2="3557.24"/><line class="cls-48" x1="81.34" y1="3615.03" x2="59.6" y2="3593.29"/><path class="cls-46" d="M.35,3786.95l-69.46,118.86c-14.76,25.25,3.46,57,32.7,57H107.84c29.8,0,47.93-32.82,32.06-58L65.11,3785.89C50,3761.82,14.7,3762.4.35,3786.95Z"/><path class="cls-46" d="M4.81,3725.62l-60.72,103.89c-12.9,22.07,3,49.81,28.58,49.81H98.76c26,0,41.89-28.69,28-50.73L61.41,3724.69A33.1,33.1,0,0,0,4.81,3725.62Z"/><path class="cls-46" d="M10.33,3681l-49.86,85.33a27.19,27.19,0,0,0,23.47,40.9H87.49a27.19,27.19,0,0,0,23-41.67l-53.69-85.33A27.19,27.19,0,0,0,10.33,3681Z"/><path class="cls-46" d="M15,3639.54l-40.67,69.59a22.17,22.17,0,0,0,19.14,33.36H77.94a22.17,22.17,0,0,0,18.77-34l-43.79-69.59A22.17,22.17,0,0,0,15,3639.54Z"/><line class="cls-48" x1="31.49" y1="3937.97" x2="-14.71" y2="3885.87"/><line class="cls-48" x1="35.72" y1="3958.09" x2="87" y2="3906.8"/><line class="cls-49" x1="35.72" y1="4080.9" x2="35.72" y2="3681.5"/><line class="cls-48" x1="31.49" y1="3856.03" x2="0.25" y2="3817.52"/><line class="cls-48" x1="36.07" y1="3886.53" x2="76.99" y2="3845.61"/><line class="cls-48" x1="31.49" y1="3783.53" x2="9.51" y2="3756.43"/><line class="cls-48" x1="35.72" y1="3817.11" x2="62.82" y2="3790.01"/><line class="cls-48" x1="31.49" y1="3718.88" x2="20.5" y2="3705.32"/><line class="cls-48" x1="35.72" y1="3753.93" x2="57.46" y2="3732.19"/><rect class="cls-50" x="513.65" y="392.8" width="127.2" height="7.31"/><rect class="cls-50" x="627.34" y="358.75" width="6.27" height="88.04" rx="2.83" ry="2.83"/><rect class="cls-50" x="510.52" y="357.35" width="6.27" height="88.04" rx="2.83" ry="2.83"/><rect class="cls-50" x="611.07" y="423.2" width="6.27" height="47.44" rx="3.14" ry="3.14"/><rect class="cls-50" x="494.16" y="423.2" width="6.27" height="47.44" rx="3.14" ry="3.14"/><polygon class="cls-51" points="628.75 420.21 497.3 420.21 504.88 404.56 636.33 404.56 628.75 420.21"/><polygon class="cls-51" points="628.75 414.08 497.3 414.08 504.88 398.42 636.33 398.42 628.75 414.08"/><polygon class="cls-50" points="628.75 414.08 628.75 420.21 636.33 404.56 636.33 398.42 628.75 414.08"/><rect class="cls-50" x="497.3" y="414.08" width="131.45" height="6.13"/><polygon class="cls-51" points="619.58 439.14 488.13 439.14 495.71 423.48 627.16 423.48 619.58 439.14"/><polygon class="cls-51" points="619.58 433.01 488.13 433.01 495.71 417.35 627.16 417.35 619.58 433.01"/><polygon class="cls-50" points="619.58 433.01 619.58 439.14 627.16 423.48 627.16 417.35 619.58 433.01"/><rect class="cls-50" x="488.13" y="433.01" width="131.45" height="6.13"/><polygon class="cls-51" points="636.46 395 505.01 395 507.26 390.6 638.71 390.6 636.46 395"/><polygon class="cls-50" points="636.46 378.83 505.01 378.83 507.26 374.43 638.71 374.43 636.46 378.83"/><polygon class="cls-50" points="636.46 378.83 636.46 395 638.71 390.6 638.71 374.43 636.46 378.83"/><rect class="cls-51" x="505.01" y="378.83" width="131.45" height="16.17"/><polygon class="cls-51" points="636.46 375.73 505.01 375.73 507.26 371.32 638.71 371.32 636.46 375.73"/><polygon class="cls-50" points="636.46 359.55 505.01 359.55 507.26 355.15 638.71 355.15 636.46 359.55"/><polygon class="cls-50" points="636.46 359.55 636.46 375.73 638.71 371.32 638.71 355.15 636.46 359.55"/><rect class="cls-51" x="505.01" y="359.55" width="131.45" height="16.17"/><rect class="cls-50" x="640.85" y="392.8" width="115.73" height="7.31"/><rect class="cls-50" x="754.54" y="358.75" width="6.27" height="88.04" rx="2.83" ry="2.83"/><rect class="cls-50" x="637.71" y="357.35" width="6.27" height="88.04" rx="2.83" ry="2.83"/><rect class="cls-50" x="738.27" y="423.2" width="6.27" height="47.44" rx="3.14" ry="3.14"/><rect class="cls-50" x="621.36" y="423.2" width="6.27" height="47.44" rx="3.14" ry="3.14"/><polygon class="cls-51" points="755.94 420.21 624.49 420.21 632.08 404.56 763.53 404.56 755.94 420.21"/><polygon class="cls-51" points="755.94 414.08 624.49 414.08 632.08 398.42 763.53 398.42 755.94 414.08"/><polygon class="cls-50" points="755.94 414.08 755.94 420.21 763.53 404.56 763.53 398.42 755.94 414.08"/><rect class="cls-50" x="624.49" y="414.08" width="131.45" height="6.13"/><polygon class="cls-51" points="746.78 439.14 615.33 439.14 622.91 423.48 754.36 423.48 746.78 439.14"/><polygon class="cls-51" points="746.78 433.01 615.33 433.01 622.91 417.35 754.36 417.35 746.78 433.01"/><polygon class="cls-50" points="746.78 433.01 746.78 439.14 754.36 423.48 754.36 417.35 746.78 433.01"/><rect class="cls-50" x="615.33" y="433.01" width="131.45" height="6.13"/><polygon class="cls-51" points="763.65 395 632.21 395 634.46 390.6 765.91 390.6 763.65 395"/><polygon class="cls-50" points="763.65 378.83 632.21 378.83 634.46 374.43 765.91 374.43 763.65 378.83"/><polygon class="cls-50" points="763.65 378.83 763.65 395 765.91 390.6 765.91 374.43 763.65 378.83"/><rect class="cls-51" x="632.21" y="378.83" width="131.45" height="16.17"/><polygon class="cls-51" points="763.65 375.73 632.21 375.73 634.46 371.32 765.91 371.32 763.65 375.73"/><polygon class="cls-50" points="763.65 359.55 632.21 359.55 634.46 355.15 765.91 355.15 763.65 359.55"/><polygon class="cls-50" points="763.65 359.55 763.65 375.73 765.91 371.32 765.91 355.15 763.65 359.55"/><rect class="cls-51" x="632.21" y="359.55" width="131.45" height="16.17"/></g></svg>