<svg xmlns="http://www.w3.org/2000/svg" viewBox="0 0 300.91 150.42"><defs><style>.cls-1{fill:#00364b;}.cls-2{fill:#3c9195;}.cls-3{fill:#004864;}.cls-4{fill:#bebebe;}.cls-5{fill:none;stroke:#006464;stroke-linecap:round;stroke-miterlimit:10;}.cls-6{fill:#006464;}</style></defs><title>Asset 29</title><g id="Layer_2" data-name="Layer 2"><g id="小物"><path class="cls-1" d="M103.39,150.42,6.64,53.74S-14.05,37.15,25.8,37.15H244.31l44,53.55s-13,46.38-24.45,59.71Z"/><path class="cls-2" d="M298.88,89.05h0q-.47-2.28-1-4.61c-2.35-10.6-4.74-21.32-9.54-31.06-.33-.68-.68-1.33-1-2l-.09-.16c-9.27-16.5-25.47-19.93-39.17-32-6.79-6-13.32-12.25-19.8-18.58L14.42,1C7.29-.21,0,6.49,0,18.72c0,15.83,6,31,19.5,43.8l81.34,79.31v-.34l.33.34H274a54.24,54.24,0,0,0,19.41-15.29C302.87,114.72,301.72,102.71,298.88,89.05Z"/><path class="cls-3" d="M287.23,133.13a53.84,53.84,0,0,0,6.23-6.59c10.46-13.13,7.87-26.51,4.42-42.1-2.35-10.6-4.74-21.32-9.54-31.06a43.07,43.07,0,0,0-2.19-3.9H9.63l91.53,92.36H274A54.35,54.35,0,0,0,287.23,133.13Z"/><path class="cls-2" d="M100.83,141.83,19.5,62.52C6,49.68,0,34.55,0,18.72S12.22-3.69,20.49,4.2l80.35,78.35Z"/><path class="cls-4" d="M100.83,136.42,21.21,56.66C10.4,46.24,4.33,35,4.33,21.39c0-17.5,11-18.47,17.67-12.07l78.83,79Z"/><polyline class="cls-5" points="10.79 7.51 100.11 93.71 275.7 96.12"/><polyline class="cls-5" points="7.84 10.62 98.83 99.5 274.1 100.83"/><polyline class="cls-5" points="5.4 15.05 98.02 105.82 272.76 106.29"/><polyline class="cls-5" points="5 21.47 97.08 112.08 271.65 112.78"/><polyline class="cls-5" points="5.4 28.81 98.74 121.11 271.51 120.98"/><polyline class="cls-5" points="7.09 36.5 100.26 129.54 272.81 130.09"/><path class="cls-2" d="M297.88,84.44c-2.35-10.6-4.74-21.32-9.54-31.06-9-18.36-26-21.54-40.3-34.15-6.79-6-13.32-12.25-19.8-18.58L14.42,1l87.2,88H298.88C298.56,87.53,298.22,86,297.88,84.44Z"/><path class="cls-6" d="M287.23,133.13a53.84,53.84,0,0,0,6.23-6.59c9.41-11.82,8.26-23.83,5.41-37.49h-198a72.33,72.33,0,0,0-3.75,22.33c0,12.12,3.75,25.78,3.75,25.78H282.13A54.69,54.69,0,0,0,287.23,133.13Z"/><path class="cls-1" d="M271.71,77.47a48.53,48.53,0,0,0,4.45,7.65c2.13,3.36.6,6.7-1,9.63-6.84,12.16-10.06,21.56-9.46,37.38.07,2-.93,3.85-.67,5.79a6.41,6.41,0,0,0,1.9,3.91H274a54.24,54.24,0,0,0,19.41-15.29c10.46-13.13,7.87-26.51,4.42-42.1-2.35-10.6-4.74-21.32-9.54-31.06-9-18.36-26-21.54-40.3-34.15C241,13,234.27,6.54,227.58,0L193.67.57c4.86,4.43,9.81,4.25,14.68,8.62a140.75,140.75,0,0,1,12,12.42c8.73,10,16.71,20.81,26.64,29.65C256.08,59.33,267.09,66.26,271.71,77.47Z"/></g></g></svg>