<svg xmlns="http://www.w3.org/2000/svg" viewBox="0 0 777.85 556.48"><defs><style>.cls-1,.cls-10,.cls-11,.cls-12,.cls-15,.cls-16,.cls-17,.cls-23,.cls-28,.cls-6,.cls-7,.cls-8{fill:none;}.cls-1,.cls-16,.cls-17{stroke:#004864;}.cls-1,.cls-10,.cls-12,.cls-15,.cls-16,.cls-17,.cls-18,.cls-19,.cls-20,.cls-23,.cls-28,.cls-6,.cls-7,.cls-8,.cls-9{stroke-linecap:round;}.cls-1,.cls-16,.cls-18,.cls-19,.cls-20,.cls-6,.cls-7,.cls-8,.cls-9{stroke-linejoin:round;}.cls-1{stroke-width:7.81px;}.cls-2{fill:#ff9947;}.cls-20,.cls-24,.cls-3{fill:#004864;}.cls-4{fill:#fff;}.cls-5,.cls-9{fill:#ffcd32;}.cls-6,.cls-7,.cls-8,.cls-9{stroke:#006464;}.cls-6{stroke-width:2.82px;}.cls-7{stroke-width:3.14px;}.cls-8,.cls-9{stroke-width:2.09px;}.cls-10,.cls-12{stroke:#fff;}.cls-10,.cls-11,.cls-12,.cls-15,.cls-17,.cls-23,.cls-24,.cls-28{stroke-miterlimit:10;}.cls-10{stroke-width:4.03px;}.cls-11{stroke:#ff665c;stroke-width:6.64px;}.cls-12{stroke-width:5.38px;}.cls-13{fill:#e0e0e0;}.cls-14,.cls-19{fill:#00364b;}.cls-15,.cls-23{stroke:#50adc0;}.cls-15{stroke-width:5.82px;}.cls-16,.cls-17{stroke-width:7.49px;}.cls-18,.cls-27{fill:#3c9195;}.cls-18{stroke:#3c9195;stroke-width:11.11px;}.cls-19,.cls-20,.cls-24{stroke:#00364b;}.cls-19,.cls-20{stroke-width:4.81px;}.cls-21{fill:#6bffba;}.cls-22{fill:#ff665c;}.cls-23{stroke-width:6.94px;}.cls-24{stroke-width:3.88px;}.cls-25{fill:#0f9bff;}.cls-26{fill:#50adc0;}.cls-28{stroke:#6bffba;stroke-width:1.6px;}</style></defs><title>資產 121</title><g id="圖層_2" data-name="圖層 2"><g id="content"><line class="cls-1" x1="593.76" y1="299.77" x2="593.76" y2="169.66"/><ellipse class="cls-2" cx="593.76" cy="171.21" rx="22.69" ry="11.58"/><ellipse class="cls-3" cx="593.73" cy="301.4" rx="23.36" ry="9.36"/><ellipse class="cls-2" cx="593.76" cy="128.04" rx="22.65" ry="9.82"/><rect class="cls-2" x="571.11" y="128.04" width="45.3" height="43.17"/><ellipse class="cls-4" cx="593.73" cy="129.34" rx="22.08" ry="8.85"/><path class="cls-5" d="M498.49,109.45c4.8-7.63,12.46-7.51,17,.28l21,35.86c4.55,7.79.89,14.16-8.12,14.16H483.24c-9,0-12.47-6.25-7.67-13.88Z" transform="translate(0 -8.72)"/><path class="cls-6" d="M488.71,119.63h12.35a2.83,2.83,0,0,1,2.83,2.83V129a2.63,2.63,0,0,1-2.63,2.63H488.53a2.64,2.64,0,0,1-2.64-2.64v-6.57a2.83,2.83,0,0,1,2.83-2.83Z"/><path class="cls-6" d="M512.44,119.63h12.35a2.83,2.83,0,0,1,2.83,2.83v6.48a2.73,2.73,0,0,1-2.73,2.73H511a1.43,1.43,0,0,1-1.43-1.43v-7.78a2.83,2.83,0,0,1,2.83-2.83Z"/><line class="cls-7" x1="504.52" y1="122.59" x2="509.23" y2="122.59"/><path class="cls-8" d="M514.81,133.81a7.18,7.18,0,0,1,8.31-.78" transform="translate(0 -8.72)"/><path class="cls-8" d="M499.57,133.81a7.18,7.18,0,0,0-8.31-.78" transform="translate(0 -8.72)"/><path class="cls-8" d="M511.1,125s2.93-3.06,6.52-2.59" transform="translate(0 -8.72)"/><path class="cls-8" d="M503.43,125s-3.86-3.83-6.8-2.64" transform="translate(0 -8.72)"/><path class="cls-8" d="M518.61,145.8c-1,.87.35,2,.35,2s-7.51,4.36-12.09,4.36-12-4.36-12-4.36,1.05,0,.53-1.48" transform="translate(0 -8.72)"/><polyline class="cls-9" points="504.52 122.59 503.89 135.16 506.92 136.38"/><path class="cls-9" d="M528.74,141c-3.31-1.74-6.93,1.92-6.93,1.92" transform="translate(0 -8.72)"/><path class="cls-9" d="M484.22,141c3.31-1.74,6.93,1.92,6.93,1.92" transform="translate(0 -8.72)"/><polyline class="cls-9" points="498.3 110.46 505.39 105.28 506.87 109.79 511.5 107.06"/><path class="cls-5" d="M528.46,182.6h25.3a8.07,8.07,0,0,0,8-7.62l1.33-29.73c.19-4.19-2.79-7.62-6.62-7.62s-7.15,3.43-7.38,7.61l-.87,15.82a8.18,8.18,0,0,1-8,7.61H462.74a8.09,8.09,0,0,0-8,7.62l-1.27,27.36c-.2,4.19,2.7,7.62,6.42,7.62s7-3.43,7.21-7.61l.77-13.45a8.19,8.19,0,0,1,8.06-7.61h.35a7.43,7.43,0,0,1,7.44,7.62L480.89,308.5a7.43,7.43,0,0,0,7.44,7.62h13.18c4.19,0,7.71-3.12,7.82-6.94a6.9,6.9,0,0,0-7.09-6.94,7.24,7.24,0,0,1-7.08-7.62l1-35.09a7.9,7.9,0,0,1,7.83-7.62h14.92a7.41,7.41,0,0,1,7.43,7.62l-.91,35c-.11,4.19-.27,10.75-.35,14.58s3.28,7,7.47,7h11.2c4.19,0,7.69-3.13,7.78-7s-2.67-7-6.11-7-6.18-3.43-6.08-7.62l1.23-48.94c.11-4.19-2.94-7.62-6.77-7.62h-6.52" transform="translate(0 -8.72)"/><line class="cls-10" x1="554.39" y1="139.11" x2="561.33" y2="92.07"/><path class="cls-11" d="M561.33,100.79c6.24-10.6,5.65-30.33,5.65-30.33" transform="translate(0 -8.72)"/><path class="cls-11" d="M577.23,79.59c-3.17,8.93-7,13.83-15.9,21.2" transform="translate(0 -8.72)"/><path class="cls-11" d="M577.23,88.52s-2.54,9.39-15.9,12.27" transform="translate(0 -8.72)"/><path class="cls-11" d="M561.33,100.79s-1.31-21.2-1.8-33.91" transform="translate(0 -8.72)"/><path class="cls-4" d="M508.6,264.61h0A20.6,20.6,0,0,1,488,242.7l5.7-60.81h30.43l5.47,63A21.08,21.08,0,0,1,508.6,264.61Z" transform="translate(0 -8.72)"/><rect class="cls-4" x="481.92" y="204.62" width="37.8" height="6.63"/><line class="cls-12" x1="488.33" y1="101.29" x2="483.4" y2="95.59"/><line class="cls-12" x1="488.78" y1="107.87" x2="481.72" y2="110.46"/><path class="cls-4" d="M513.14,103.39l3.14,7.67c-12.85-2.13-23,6.62-23,6.62l-1.05-22.12C500,96.45,511.46,99.16,513.14,103.39Z" transform="translate(0 -8.72)"/><rect class="cls-4" x="518.61" y="159.96" width="5.4" height="22.75"/><rect class="cls-4" x="493.72" y="159.96" width="5.4" height="22.75"/><circle class="cls-13" cx="600.66" cy="97.06" r="9.29"/><circle class="cls-13" cx="608.03" cy="92.07" r="4.3"/><circle class="cls-13" cx="617.31" cy="103.23" r="3.04"/><circle class="cls-13" cx="569.01" cy="115.09" r="3.7"/><circle class="cls-13" cx="572.15" cy="113.29" r="1.9"/><ellipse class="cls-3" cx="574.27" cy="360.87" rx="22.78" ry="11.62"/><ellipse class="cls-3" cx="574.27" cy="327.99" rx="29.64" ry="12.84"/><polygon class="cls-3" points="597.01 360.87 551.53 360.87 544.63 327.99 603.91 327.99 597.01 360.87"/><ellipse class="cls-14" cx="574.27" cy="327.99" rx="21.25" ry="8.21"/><ellipse class="cls-3" cx="619.83" cy="336.06" rx="17.68" ry="9.02"/><ellipse class="cls-3" cx="619.83" cy="310.54" rx="23" ry="9.97"/><polygon class="cls-3" points="637.48 336.06 602.18 336.06 596.83 310.54 642.83 310.54 637.48 336.06"/><ellipse class="cls-14" cx="619.83" cy="310.54" rx="16.49" ry="6.38"/><line class="cls-15" x1="574.69" y1="263.54" x2="574.69" y2="327.99"/><path class="cls-15" d="M601.32,287.54c-13.39,13.83-15.71,47.71-15.71,47.71" transform="translate(0 -8.72)"/><line class="cls-15" x1="574.69" y1="292.43" x2="582.39" y2="283.52"/><line class="cls-15" x1="574.69" y1="305.96" x2="582.39" y2="297.05"/><line class="cls-15" x1="574.69" y1="278.52" x2="582.39" y2="269.6"/><line class="cls-15" x1="574.69" y1="292.43" x2="566.99" y2="283.52"/><line class="cls-15" x1="574.69" y1="305.96" x2="566.99" y2="297.05"/><line class="cls-15" x1="574.69" y1="278.52" x2="566.99" y2="269.6"/><line class="cls-15" x1="590.35" y1="305.36" x2="600.35" y2="299.14"/><line class="cls-15" x1="586.33" y1="318.28" x2="596.33" y2="312.06"/><line class="cls-15" x1="594.49" y1="292.07" x2="604.49" y2="285.85"/><line class="cls-15" x1="590.35" y1="305.36" x2="585.65" y2="294.56"/><line class="cls-15" x1="586.33" y1="318.28" x2="581.62" y2="307.48"/><line class="cls-15" x1="594.49" y1="292.07" x2="589.79" y2="281.27"/><path class="cls-15" d="M548.07,287.54c13.39,13.83,15.71,47.71,15.71,47.71" transform="translate(0 -8.72)"/><line class="cls-15" x1="559.04" y1="305.36" x2="549.04" y2="299.14"/><line class="cls-15" x1="563.06" y1="318.28" x2="553.06" y2="312.06"/><line class="cls-15" x1="554.9" y1="292.07" x2="544.9" y2="285.85"/><line class="cls-15" x1="559.04" y1="305.36" x2="563.74" y2="294.56"/><line class="cls-15" x1="563.06" y1="318.28" x2="567.76" y2="307.48"/><line class="cls-15" x1="554.9" y1="292.07" x2="559.6" y2="281.27"/><line class="cls-15" x1="619.83" y1="310.54" x2="619.83" y2="294.67"/><ellipse class="cls-15" cx="619.81" cy="289.94" rx="10.37" ry="4.73"/><line class="cls-15" x1="627.45" y1="310.68" x2="632.84" y2="299.48"/><line class="cls-15" x1="611.98" y1="310.54" x2="606.16" y2="299.48"/><ellipse class="cls-3" cx="77.69" cy="395.21" rx="21.76" ry="11.1"/><ellipse class="cls-3" cx="77.69" cy="353.81" rx="21.73" ry="9.41"/><rect class="cls-3" x="55.96" y="353.81" width="43.45" height="41.41"/><ellipse class="cls-14" cx="77.66" cy="355.06" rx="21.17" ry="8.49"/><path class="cls-14" d="M94.37,203.55l32.77,56.07a17.87,17.87,0,0,1-15.43,26.88H43.66a17.87,17.87,0,0,1-15.12-27.38L63.82,203A17.87,17.87,0,0,1,94.37,203.55Z" transform="translate(0 -8.72)"/><polyline class="cls-16" points="77.69 355.06 77.69 264.24 98.22 238.93"/><line class="cls-17" x1="77.69" y1="264.24" x2="57.02" y2="243.57"/><line class="cls-17" x1="77.69" y1="265.76" x2="77.69" y2="205.88"/><polygon class="cls-18" points="631.34 423.03 218.06 423.03 151.91 550.93 565.19 550.93 631.34 423.03"/><rect class="cls-19" x="253.44" y="196.85" width="110.2" height="198.59"/><polygon class="cls-19" points="238.38 226.09 238.38 424.28 253.44 395.04 253.44 196.85 238.38 226.09"/><polygon class="cls-20" points="348.58 226.09 238.38 226.09 253.44 196.85 363.64 196.85 348.58 226.09"/><polygon class="cls-20" points="348.58 289.34 238.38 289.34 253.44 261.36 363.64 261.36 348.58 289.34"/><polygon class="cls-20" points="348.58 355.06 238.38 355.06 253.44 325.82 363.64 325.82 348.58 355.06"/><polygon class="cls-20" points="348.58 424.5 238.38 424.5 253.44 395.26 363.64 395.26 348.58 424.5"/><polygon class="cls-20" points="348.58 226.09 348.58 424.68 363.64 395.44 363.64 196.85 348.58 226.09"/><path class="cls-21" d="M181,408.31a4.21,4.21,0,0,1-4,4.34,4.21,4.21,0,0,0-4,4.34v.3a4.35,4.35,0,0,0,4.34,4.34h8.38a4.35,4.35,0,0,0,4.34-4.34V380.76a4.35,4.35,0,0,1,4.34-4.34h2.09a4.35,4.35,0,0,1,4.34,4.34v36.52a4.35,4.35,0,0,0,4.34,4.34h8.38a4.35,4.35,0,0,0,4.34-4.34V417a4.21,4.21,0,0,0-4-4.34,4.21,4.21,0,0,1-4-4.34V362.73a4.35,4.35,0,0,1,4.34-4.34h9.7a4.35,4.35,0,0,0,4.34-4.34V329.93a4.35,4.35,0,0,0-4.34-4.34H185.34a4.35,4.35,0,0,0-4.34,4.34v15.15a4.35,4.35,0,0,1-4.34,4.34H167a4.35,4.35,0,0,0-4.34,4.34v.3a4.35,4.35,0,0,0,4.34,4.34h9.7a4.35,4.35,0,0,1,4.34,4.34Zm33-58.89a4.35,4.35,0,0,1-4.34-4.34V338.9a4.35,4.35,0,0,1,4.34-4.34h.72a4.35,4.35,0,0,1,4.34,4.34v6.18a4.35,4.35,0,0,1-4.34,4.34Z" transform="translate(0 -8.72)"/><path class="cls-21" d="M198.11,301.31c-1.74-2.76-4.5-2.71-6.15.1l-7.57,13c-1.64,2.81-.32,5.12,2.94,5.12h16.3c3.26,0,4.51-2.26,2.77-5Z" transform="translate(0 -8.72)"/><path class="cls-22" d="M110.66,343.64a2.82,2.82,0,0,1,1.61,3.28c-.33,1.36.94,3.22,2.81,4.13l16.26,7.89c1.87.91,3.41-.05,3.41-2.13v-3.67a3.8,3.8,0,0,1,3.79-3.79h5a3.8,3.8,0,0,0,3.79-3.79v-2.81a3.8,3.8,0,0,1,3.79-3.79H167c2.08,0,3.79,1.09,3.79,2.43s-1.7,2.43-3.79,2.43H155.65c-2.08,0-3.79,1.24-3.79,2.76a2.68,2.68,0,0,0,2.57,2.76c1.41,0,2.57,1.7,2.57,3.79V369a3.8,3.8,0,0,1-3.79,3.79H138.54a3.58,3.58,0,0,1-3.79-3.3,6.24,6.24,0,0,0-3.41-5L113.86,356c-1.87-.91-3.7-.61-4.06.66a2,2,0,0,1-2.75,1.42c-1.16-.49-1.7-2.55-1.21-4.58l1.71-7C108.05,344.49,109.45,343.2,110.66,343.64Z" transform="translate(0 -8.72)"/><path class="cls-5" d="M748.86,237.27c1.4-2.89,4.09-3.13,6-.53l9.76,13.39c1.89,2.59.81,4.71-2.4,4.71h-16c-3.21,0-4.69-2.36-3.29-5.25Z" transform="translate(0 -8.72)"/><path class="cls-5" d="M771.82,265.58a5.09,5.09,0,0,0-4.88-4.22H747a3.55,3.55,0,0,0-3.61,4.22l2.34,15a3.54,3.54,0,0,1-3.61,4.21H730.9a3.59,3.59,0,0,0-3.66,4.22l.06.4a5.09,5.09,0,0,0,4.88,4.22h11.17a5.09,5.09,0,0,1,4.88,4.22l.07.48a3.6,3.6,0,0,1-3.66,4.22H736.8a3.6,3.6,0,0,0-3.66,4.22l4.14,28.73a3.48,3.48,0,0,1-3.37,4.22,3.48,3.48,0,0,0-3.37,4.22l.06.38a5.09,5.09,0,0,0,4.88,4.22h8.25a3.6,3.6,0,0,0,3.66-4.22l-4.14-28.73a3.6,3.6,0,0,1,3.66-4.22h5.79a5.09,5.09,0,0,1,4.88,4.22l4,27.41a3.57,3.57,0,0,1-3.59,4.22,3.57,3.57,0,0,0-3.59,4.22l.06.38a5.09,5.09,0,0,0,4.88,4.22H768a3.6,3.6,0,0,0,3.66-4.22l-5.22-36.23a3.6,3.6,0,0,1,3.66-4.22h4.1a3.6,3.6,0,0,0,3.66-4.22Z" transform="translate(0 -8.72)"/><ellipse class="cls-3" cx="735.02" cy="285.32" rx="14.41" ry="7.35"/><ellipse class="cls-3" cx="735.02" cy="264.51" rx="18.75" ry="8.13"/><polygon class="cls-3" points="720.63 285.32 749.41 285.32 753.77 264.51 716.27 264.51 720.63 285.32"/><ellipse class="cls-14" cx="735.02" cy="264.51" rx="13.44" ry="5.2"/><path class="cls-5" d="M759.48,264.86a4.8,4.8,0,0,0-4.65,4.71l-.33,10.78a4.9,4.9,0,0,1-4.85,4.71H735a4.68,4.68,0,0,0-4.76,4.5,4.56,4.56,0,0,0,4.66,4.5h23.69a4.86,4.86,0,0,0,4.82-4.71l.49-19.78A4.49,4.49,0,0,0,759.48,264.86Z" transform="translate(0 -8.72)"/><path class="cls-23" d="M734,270.84c-3.43-33-45.22-38.12-48.15-62.48a29.43,29.43,0,0,1,25.71-32.74,19.5,19.5,0,0,1,21.69,17A12.92,12.92,0,0,1,721.93,207a8.56,8.56,0,0,1-9.53-7.48,5.68,5.68,0,0,1,5-6.31,3.76,3.76,0,0,1,4.18,3.28" transform="translate(0 -8.72)"/><path class="cls-23" d="M735,271.12c1.71-16.85-18.67-23.76-17.61-36.25a15,15,0,0,1,16.26-13.71,10,10,0,0,1,9.09,10.77,6.6,6.6,0,0,1-7.14,6,4.38,4.38,0,0,1-4-4.73,2.9,2.9,0,0,1,3.14-2.64,1.92,1.92,0,0,1,1.75,2.08" transform="translate(0 -8.72)"/><path class="cls-24" d="M2.26,475.24l-.32-36.61c0-5.18,3.59-12.16,8-13l117.34-49.46c4.75-.92,25.76-.12,25.85,10l.31,35.74c0,4.95-3.07,9.51-7.24,10.63l-128.87,57C12.4,490.93,2.31,481.08,2.26,475.24Z" transform="translate(0 -8.72)"/><path class="cls-14" d="M12.08,520.54l-.65-26.75c0-2.81,1.66-5.33,3.77-5.83l142.66-60.7a3.1,3.1,0,0,1,1.37,0l41.46,9c1.85.4,3.13,2.46,3.11,5l-.27,29.07c0,2.7-1.44,4.24-3.55,5.77L70.45,551.3a3.09,3.09,0,0,1-2.35-.2L14.43,525.26A5.11,5.11,0,0,1,12.08,520.54Z" transform="translate(0 -8.72)"/><path class="cls-24" d="M146.68,411.6l8.1-4.12a4.3,4.3,0,0,1,1.82,0l42.52,9.75c2.64.52,4.53,3.48,4.56,7.17l.09,10.16c0,4-2.11,7.65-5,8.55l-10.56,4.14a4.3,4.3,0,0,1-2.84-.07l-40.08-10.9c-2.29-.87-3.83-3.65-3.86-7l-.08-9C141.31,416.08,143,414.43,146.68,411.6Z" transform="translate(0 -8.72)"/><path class="cls-24" d="M34.28,475.88l107.06-50.57a4.3,4.3,0,0,1,1.82,0l41.89,10.33c2.64.52,3.49,1.85,3.53,5.54l0,2.27c0,4-2.11,7.65-5,8.55L70,512.75a4.3,4.3,0,0,1-2.84-.07L32.86,499.59c-2.29-.87-3.83-3.65-3.86-7l-.05-8.11C28.91,480.36,31.24,476.6,34.28,475.88Z" transform="translate(0 -8.72)"/><path class="cls-24" d="M16,476s8-4.42,10.12-4.91a9.73,9.73,0,0,1,5.63.4l44.54,16.27c2.64.52,4.53,3.48,4.56,7.17L81,505.09c0,4-1.89,6.17-5,8.55l-11.28,6.7a4.3,4.3,0,0,1-2.84-.07l-47.2-19.63c-2.29-.87-3.83-3.65-3.86-7l-.08-9C10.64,480.48,12.77,478.21,16,476Z" transform="translate(0 -8.72)"/><path class="cls-25" d="M453.71,340.73c1.74-2.77,4.51-2.72,6.16.1l7.59,13c1.65,2.82.32,5.13-2.94,5.13H448.19c-3.27,0-4.52-2.26-2.78-5Z" transform="translate(0 -8.72)"/><path class="cls-25" d="M430.38,365.08a5.59,5.59,0,0,0-5.4,4.77l-2.88,23.34A4,4,0,0,0,426,398a5.42,5.42,0,0,0,5.09-4.77l1.77-14.35a5.54,5.54,0,0,1,5.3-4.77,4.11,4.11,0,0,1,4.12,4.77l-8.48,68.74c-.32,2.62-2.41,4.77-4.64,4.77a5,5,0,0,0-4.61,4.5,4,4,0,0,0,4.25,4.5h7.49a5.59,5.59,0,0,0,5.4-4.77l4.41-35.77a5.59,5.59,0,0,1,5.4-4.77h1.18a4.16,4.16,0,0,1,4.22,4.77l-4.41,35.77a4.16,4.16,0,0,0,4.22,4.77h7.49a5.44,5.44,0,0,0,5.36-4.5c.31-2.47-1.27-4.5-3.5-4.5s-3.79-2.15-3.46-4.77l8.48-68.74a5.54,5.54,0,0,1,5.3-4.77,4.11,4.11,0,0,1,4.12,4.77l-1.77,14.35a4,4,0,0,0,3.91,4.77,5.42,5.42,0,0,0,5.09-4.77l2.88-23.34a4.16,4.16,0,0,0-4.22-4.77Z" transform="translate(0 -8.72)"/><rect class="cls-19" x="456.36" y="445.28" width="13.08" height="85.46" rx="6.54" ry="6.54"/><rect class="cls-19" x="485.75" y="396.44" width="13.08" height="85.46" rx="6.54" ry="6.54"/><rect class="cls-19" x="230.84" y="445.28" width="13.08" height="85.46" rx="6.54" ry="6.54"/><rect class="cls-19" x="260.24" y="396.44" width="13.08" height="85.46" rx="6.54" ry="6.54"/><polygon class="cls-20" points="476.6 454.32 219.85 454.32 253.09 389.81 509.84 389.81 476.6 454.32"/><polygon class="cls-19" points="476.6 454.32 476.6 471.57 509.84 407.06 509.84 389.81 476.6 454.32"/><rect class="cls-19" x="219.85" y="454.32" width="256.75" height="17.25"/><polygon class="cls-22" points="474.75 412.33 433.58 412.33 444.76 390.82 485.93 390.82 474.75 412.33"/><ellipse class="cls-26" cx="301.21" cy="399.72" rx="9.92" ry="5.06"/><ellipse class="cls-26" cx="301.21" cy="344.06" rx="9.91" ry="4.29"/><rect class="cls-26" x="291.3" y="344.06" width="19.81" height="55.66"/><ellipse class="cls-27" cx="301.19" cy="344.63" rx="9.65" ry="3.87"/><line class="cls-28" x1="312.7" y1="309" x2="307.54" y2="345.27"/><line class="cls-28" x1="294.18" y1="311.8" x2="297.58" y2="346.35"/><line class="cls-28" x1="299.58" y1="318.01" x2="300.39" y2="346.45"/><line class="cls-28" x1="304.49" y1="324.92" x2="302.89" y2="346.55"/><line class="cls-28" x1="308.5" y1="317.46" x2="305.19" y2="345.65"/><line class="cls-28" x1="291.54" y1="320.81" x2="295.08" y2="345.55"/><path class="cls-25" d="M485.46,375.24a5.4,5.4,0,0,0-5.1,4.67l-2.15,16.71a5.51,5.51,0,0,1-5.31,4.67H458.21a5.42,5.42,0,0,0-5.29,4.5,4,4,0,0,0,4.13,4.5h23.69a5.51,5.51,0,0,0,5.31-4.67l3.31-25.72A4,4,0,0,0,485.46,375.24Z" transform="translate(0 -8.72)"/><rect class="cls-21" x="181.86" y="63.6" width="223.15" height="108.78" rx="54.39" ry="54.39"/><path class="cls-3" d="M262.85,126.84v4.65h-36v-4.65h15.43v-10.1H230.58V112h11.66v-8.91H228.72V98.44h32.1v4.69h-13.6V112h12.05v4.69H247.21v10.1Z" transform="translate(0 -8.72)"/><path class="cls-3" d="M278.88,122.75a46.47,46.47,0,0,1-1.71,9.71,19.3,19.3,0,0,0-3.42-1.19,36.66,36.66,0,0,0,1.59-9.07Zm7.8-11.58a29.8,29.8,0,0,1,2.86,8l-3.34,1.35c-.08-.48-.2-1-.32-1.59-8.08,1.27-9.51,1.67-10.38,2a32.72,32.72,0,0,0-1.27-3.82c1-.24,1.79-1.15,3.06-2.67a35.17,35.17,0,0,0,2.59-3.54c-3.18.36-4.06.6-4.65.88a31,31,0,0,0-1.31-3.78c.76-.2,1.39-1,2.19-2.15a41.88,41.88,0,0,0,4.65-9.67l3.94,1.55a58.45,58.45,0,0,1-5.37,9.71l2.9-.2a57.23,57.23,0,0,0,2.9-5.61l3.54,2.23a74.18,74.18,0,0,1-8.35,12.37l4.61-.6a31.53,31.53,0,0,0-1.35-3.3ZM283,121.91a75.22,75.22,0,0,1,1.07,8.27l-3.42.88a65,65,0,0,0-.92-8.35Zm4.1-1.19a55.15,55.15,0,0,1,2.35,7.52l-3.22,1.15a64.25,64.25,0,0,0-2.11-7.64ZM311,130.66H295.51v2.59h-4.26V112.68c-.6.76-1.19,1.51-1.79,2.23a25.32,25.32,0,0,0-2-4.53c3-3.58,5.65-9.59,6.84-14.16l4.5,1.31c-.64,1.83-1.35,3.7-2.19,5.61h4.77c-.6-1.55-1.55-3.62-2.35-5.21L303,96.21a46.58,46.58,0,0,1,2.71,5.53l-2.9,1.39h7.64v4.26h-6.09v3.46h5.29v4.22h-5.29v3.34h5.33v4.26h-5.33v3.58H311Zm-10.9-23.27h-4.57v3.46h4.57Zm0,7.68h-4.57v3.34h4.57Zm-4.57,11.18h4.57v-3.58h-4.57Z" transform="translate(0 -8.72)"/><path class="cls-3" d="M334.3,111.49a56.11,56.11,0,0,1,2.07,8.31l-3.34,1c0-.48-.16-1.07-.28-1.75-7.4,1.07-8.79,1.43-9.67,1.83-.24-.76-.92-2.78-1.39-3.94,1-.2,1.79-1.11,2.94-2.63a28.06,28.06,0,0,0,2.43-3.42c-2.86.32-3.7.56-4.3.84-.24-.84-.87-2.82-1.31-3.86.72-.2,1.31-1,2.07-2.19a42.6,42.6,0,0,0,4.38-9.67l4.06,1.55a57.64,57.64,0,0,1-4.93,9.47l2.39-.16c.88-1.67,1.75-3.42,2.47-5.17l3.74,2.19a72.27,72.27,0,0,1-7.6,11.93l4-.48c-.28-1-.56-2.11-.87-3.06Zm-7.64,11.22a48.11,48.11,0,0,1-1.75,10.06,26.42,26.42,0,0,0-3.42-1.19,34.78,34.78,0,0,0,1.67-9.39Zm3.78-.6a76.75,76.75,0,0,1,1,8.91l-3.38.64a74.13,74.13,0,0,0-.75-9ZM334,121a50.82,50.82,0,0,1,2.15,7.36L333,129.43a48.34,48.34,0,0,0-1.95-7.48Zm23.55,7.28c0,2.15-.4,3.26-1.71,3.94s-3.22.75-6.17.75a16.19,16.19,0,0,0-1.27-3.94c1.83.08,3.86.08,4.42,0s.84-.24.84-.8V101.58H340.46v31.62H336.6V97.45h20.92ZM342,114.39h2.35v7.92h1.43V112.6H341.5v-3.5h6.13a63.36,63.36,0,0,0,1.47-7l3.3.8c-.6,2.07-1.23,4.38-1.79,6.25h2v3.5h-4.26v9.71h1.47v-7.92h2.35v11.42H342Zm2.63-12.13a24.2,24.2,0,0,1,1.71,5.65l-2.82.83a26.39,26.39,0,0,0-1.55-5.81Z" transform="translate(0 -8.72)"/><path class="cls-3" d="M289.26,149.24a32.68,32.68,0,0,1-1.49,6.06c.73,3.17,2,6,4.11,7.55A9.3,9.3,0,0,0,290,165a13.14,13.14,0,0,1-3.74-6.33,18.08,18.08,0,0,1-5.91,6.54,9.75,9.75,0,0,0-1.8-2.12c3.73-2.14,6.54-6.62,7.78-12h-2.51a23.26,23.26,0,0,1-2.55,5.08,15.32,15.32,0,0,0-2.1-1.33v.83h-1.89v3.69l2.43-.5.21,2.37c-2.59.6-5.37,1.2-7.49,1.66l-.44-2.51c.81-.15,1.81-.31,2.84-.52v-4.19h-2.26v-2.37h2.26v-3.57h-2.45v-2.37h7.29v2.37h-2.39v3.57h1.89v1.27a21.8,21.8,0,0,0,3.53-8.88l2.55.48c-.19.87-.42,1.72-.66,2.57h2.51l.46-.1Z" transform="translate(0 -8.72)"/><path class="cls-3" d="M302.54,158.16c-.23-.6-.58-1.47-1-2.3v9.23h-2.24v-8.3a37.81,37.81,0,0,1-1.33,4.46,18.19,18.19,0,0,0-1.12-2.57,35.63,35.63,0,0,0,2.16-6.83h-1.79v-2.28h2.08v-3.86h2.24v3.86h1.74v2.28h-1.74v.91c.54.71,2.1,3.13,2.43,3.71Zm11.64,2a6.05,6.05,0,0,1-1.47,2.08,37.64,37.64,0,0,1,3.63,1.35l-1.64,1.56a32.41,32.41,0,0,0-4-1.6,22.56,22.56,0,0,1-6.56,1.58,7.13,7.13,0,0,0-.87-1.78,27.61,27.61,0,0,0,4.46-.71c-1.1-.31-2.22-.58-3.22-.81a20.1,20.1,0,0,0,1.43-1.66h-2.28v-1.83h3.65c.27-.39.5-.79.73-1.16h-3.63v-3.78h4.46v-.71h-4v-2.05h-1.18v-1.81h1.18v-2h4v-1.08h2.28v1.08h4.13v2h1.08v1.79h-1.08v2.08h-4.13v.71h4.63v3.78h-5.25c-.21.37-.46.77-.68,1.16h2.78a5.92,5.92,0,0,0,.15-.64h2.16c0,.23-.08.44-.12.64h1.74v1.83Zm-7.6-4.46h2.26v-.81h-2.26Zm.33-7.41v.81h1.93v-.81Zm1.93,2.93v-.87h-1.93v.87Zm-.35,8.94c-.21.25-.42.5-.6.75.83.19,1.7.39,2.53.62a4,4,0,0,0,1.43-1.37Zm2.63-11.87v.81h2v-.81Zm2,2.93v-.87h-2v.87Zm-2,3.67v.81h2.35v-.81Z" transform="translate(0 -8.72)"/><path class="cls-21" d="M393.8,145.06H444a2.18,2.18,0,0,0,1.54-3.72l-50-22.72a2.18,2.18,0,0,0-3.72,1.53l-.15,22.72A2.18,2.18,0,0,0,393.8,145.06Z" transform="translate(0 -8.72)"/><path class="cls-21" d="M187.33,34.81h6l2.34-8.54h-6L191,21.4h6l3.23-11.78h5.89L202.9,21.4h4.85l3.21-11.78h5.89L213.63,21.4h6l-1.33,4.87h-6L210,34.81h6l-1.32,4.87h-6l-3.18,11.66h-5.89l3.18-11.66h-4.88l-3.2,11.66h-5.89L192,39.68h-6Zm16.76,0,2.33-8.54h-4.86l-2.34,8.54Z" transform="translate(0 -8.72)"/><path class="cls-21" d="M255.71,30.62q-2.28,10.47-6.79,16.12T236.2,52.4q-8.2,0-10.29-5.66t.19-16.12q2.25-10.47,6.78-16.15t12.73-5.69q8.2,0,10.27,5.69T255.71,30.62Zm-18.06,15q3.76,0,5.76-3.86A47.3,47.3,0,0,0,247,30.62q1.63-7.64,1.26-11.31t-4.13-3.67a6.3,6.3,0,0,0-5.77,3.67q-2,3.67-3.64,11.31-1.6,7.29-1.21,11.15T237.65,45.63Z" transform="translate(0 -8.72)"/><path class="cls-21" d="M278.77,8.72q9.8,0,11.61,8.54,1,4.84-.68,12.74A42.16,42.16,0,0,1,285,42.8q-5.89,9.77-16,9.77a11.87,11.87,0,0,1-8.07-2.81q-3.24-2.81-2.65-8.21h8.41a4,4,0,0,0,.93,3,4.11,4.11,0,0,0,3.21,1.17q4.17,0,6.84-4.55a30.07,30.07,0,0,0,2.75-7.32,12,12,0,0,1-9.06,3.59A10.86,10.86,0,0,1,263,34q-3.23-3.48-1.81-10a19.59,19.59,0,0,1,6.37-11A16.72,16.72,0,0,1,278.77,8.72Zm-.68,21a8.87,8.87,0,0,0,4.23-6.27q.77-3.59-.47-5.69a4.49,4.49,0,0,0-4.21-2.1,7,7,0,0,0-4,1.2q-2.84,1.87-3.79,6.33-.83,3.76.33,5.64t4.38,1.88A7,7,0,0,0,278.09,29.71Z" transform="translate(0 -8.72)"/></g></g></svg>