<svg xmlns="http://www.w3.org/2000/svg" xmlns:xlink="http://www.w3.org/1999/xlink" viewBox="0 0 835.43 362"><defs><style>.cls-1,.cls-10,.cls-6,.cls-7,.cls-8{fill:none;}.cls-15,.cls-2{fill:#00364b;}.cls-15,.cls-2,.cls-6,.cls-8{stroke:#00364b;}.cls-10,.cls-14,.cls-15,.cls-2,.cls-4,.cls-5,.cls-6,.cls-7,.cls-8{stroke-linecap:round;}.cls-14,.cls-15,.cls-2,.cls-4,.cls-5,.cls-7,.cls-8{stroke-linejoin:round;}.cls-2,.cls-8{stroke-width:12.47px;}.cls-3,.cls-4,.cls-5{fill:#ffcd32;}.cls-4,.cls-5{stroke:#006464;}.cls-4{stroke-width:2.06px;}.cls-5{stroke-width:3.09px;}.cls-10,.cls-6{stroke-miterlimit:10;}.cls-6{stroke-width:7.59px;}.cls-10,.cls-7{stroke:#6bffba;}.cls-7{stroke-width:6.62px;}.cls-9{clip-path:url(#clip-path);}.cls-10{stroke-width:7.94px;}.cls-11{clip-path:url(#clip-path-2);}.cls-12{clip-path:url(#clip-path-3);}.cls-13{fill:#004864;}.cls-14{fill:#bebebe;stroke:#bebebe;}.cls-14,.cls-15{stroke-width:4.5px;}.cls-16{fill:#6bffba;}.cls-17{fill:#ff665c;}</style><clipPath id="clip-path" transform="translate(0 -8.78)"><polygon class="cls-1" points="439.21 139.24 391.73 137.24 391.73 177.45 439.21 179.45 439.21 139.24"/></clipPath><clipPath id="clip-path-2" transform="translate(0 -8.78)"><polygon class="cls-1" points="446.09 116.84 401.98 104.42 391.95 143.36 436.05 155.78 446.09 116.84"/></clipPath><clipPath id="clip-path-3" transform="translate(0 -8.78)"><polygon class="cls-1" points="434.08 161.8 389.45 177.08 402.38 215.15 447 199.88 434.08 161.8"/></clipPath></defs><title>資產 120</title><g id="圖層_2" data-name="圖層 2"><g id="content"><path class="cls-2" d="M556.41,180.28s9.66,38,52,74l-78.78,5-11.45-78.53Z" transform="translate(0 -8.78)"/><path class="cls-3" d="M470.32,168a7.34,7.34,0,0,1-6.58-7,6.49,6.49,0,0,0-6.62-6.31h-.46a6.64,6.64,0,0,0-6.62,6.62v13.07a7.28,7.28,0,0,0,6.6,7.12l41.71,3.2a7.28,7.28,0,0,1,6.6,7.12v36.94a6.64,6.64,0,0,1-6.62,6.62h-4.63a7,7,0,0,0-6.92,6.61l-2.34,51.27a6.78,6.78,0,0,1-6.47,6.61,6.42,6.42,0,0,0-6.16,6.62v.46a6.64,6.64,0,0,0,6.62,6.62h12.79a7,7,0,0,0,6.91-6.61l2.3-51.27a7,7,0,0,1,6.91-6.61h21.09a6,6,0,0,1,6.06,6.59l-1.82,21.44a7.29,7.29,0,0,1-7.06,6.59,6.58,6.58,0,0,0-6.5,6.62v.46a6.64,6.64,0,0,0,6.62,6.62H539.2a7.13,7.13,0,0,0,7-6.6l2.15-36.41c.21-3.63.39-9.58.39-13.22V192.57a6.64,6.64,0,0,1,6.62-6.62h13a6.58,6.58,0,0,1,6.57,6.62l0,4.84c0,3.64-2.73,6.67-6,6.73a6.41,6.41,0,0,0-6,6.62,6.65,6.65,0,0,0,6.62,6.56l12,.11a6.57,6.57,0,0,0,6.62-6.56V178.11a6.64,6.64,0,0,0-6.62-6.62H511.51c-3.64,0-9.58-.3-13.2-.67Z" transform="translate(0 -8.78)"/><path class="cls-3" d="M513,113.39c4.73-7.52,12.26-7.39,16.74.27L550.42,149c4.48,7.67.88,13.94-8,13.94H498c-8.88,0-12.28-6.15-7.55-13.67Z" transform="translate(0 -8.78)"/><path class="cls-3" d="M531.25,116.17c-10.34-.6-20.14,7.68-24.69,12-1,1-2.4.15-2.5-1.24-.39-5.14,0-11.82,4.88-16.51C520.22,99.72,529.5,110.78,531.25,116.17Z" transform="translate(0 -8.78)"/><path class="cls-4" d="M528,116.51s-2.34-7.94-9.79-5.28c-6.86,2.45-5.28,12.62-5.28,12.62" transform="translate(0 -8.78)"/><path class="cls-4" d="M509.6,115.51s-2.45,4.75-.71,9.31" transform="translate(0 -8.78)"/><polyline class="cls-5" points="525.32 124.6 535.49 121.51 538.45 122.54"/><polyline class="cls-5" points="515.9 124.6 505.73 121.51 502.76 122.54"/><path class="cls-4" d="M529.22,138.7s2.75-2.49,8.07-1.46" transform="translate(0 -8.78)"/><path class="cls-4" d="M513,138.7s-2.75-2.49-8.07-1.46" transform="translate(0 -8.78)"/><polyline class="cls-4" points="516.24 139.89 520.74 141.69 520.74 129.07"/><line class="cls-4" x1="520.74" y1="141.69" x2="524.75" y2="140.06"/><polyline class="cls-4" points="507.16 146.63 510.76 147.66 520.41 145.85 530.88 147.66 534.18 146.76"/><line class="cls-6" x1="502.77" y1="219.49" x2="548.75" y2="219.49"/><line class="cls-6" x1="538.45" y1="225" x2="538.45" y2="212.52"/><line class="cls-6" x1="507.16" y1="225" x2="507.16" y2="212.52"/><line class="cls-7" x1="593.65" y1="203.5" x2="626.92" y2="208.32"/><polyline class="cls-8" points="550.33 161.56 518.18 166.2 504.9 162.72"/><line class="cls-7" x1="494.08" y1="189.43" x2="556.22" y2="199.32"/><g class="cls-9"><path class="cls-10" d="M396.16,159.33s-7.69,8.65-16.32-.36-16.76-.37-16.76-.37" transform="translate(0 -8.78)"/><path class="cls-10" d="M462.3,160.8s-7.69,8.65-16.32-.36-16.76-.37-16.76-.37" transform="translate(0 -8.78)"/><path class="cls-10" d="M495.38,161.54s-7.69,8.65-16.32-.36-16.76-.37-16.76-.37" transform="translate(0 -8.78)"/><path class="cls-10" d="M429.23,160.07s-7.69,8.65-16.32-.36-16.76-.37-16.76-.37" transform="translate(0 -8.78)"/></g><g class="cls-11"><path class="cls-10" d="M400.25,123.89s-9.61,6.46-15.71-4.43-16.13-4.54-16.13-4.54" transform="translate(0 -8.78)"/><path class="cls-10" d="M463.93,141.83s-9.61,6.46-15.71-4.43-16.13-4.54-16.13-4.54" transform="translate(0 -8.78)"/><path class="cls-10" d="M495.77,150.8s-9.61,6.46-15.71-4.43-16.13-4.54-16.13-4.54" transform="translate(0 -8.78)"/><path class="cls-10" d="M432.09,132.86s-9.61,6.46-15.71-4.43-16.13-4.54-16.13-4.54" transform="translate(0 -8.78)"/></g><g class="cls-12"><path class="cls-10" d="M402.88,194.52s-4.5,10.67-15.57,4.9-16,5-16,5" transform="translate(0 -8.78)"/><path class="cls-10" d="M466,174.66s-4.5,10.67-15.57,4.9-16,5-16,5" transform="translate(0 -8.78)"/><path class="cls-10" d="M497.55,164.73s-4.5,10.67-15.57,4.9-16,5-16,5" transform="translate(0 -8.78)"/><path class="cls-10" d="M434.44,184.59s-4.5,10.67-15.57,4.9-16,5-16,5" transform="translate(0 -8.78)"/></g><ellipse class="cls-13" cx="522.75" cy="345" rx="55.7" ry="17"/><ellipse class="cls-13" cx="180.28" cy="322.65" rx="165.04" ry="24.95"/><polygon class="cls-14" points="367.02 121.24 333.06 85.02 296.71 90.59 333.64 128.13 367.02 121.24"/><polygon class="cls-14" points="296.71 90.59 211.48 174.7 217.19 241.11 333.64 128.13 296.71 90.59"/><polygon class="cls-15" points="142.67 187.37 41.06 288.95 79.8 276.79 146.79 209.82 142.67 187.37"/><polygon class="cls-14" points="184.24 274.12 167.46 84.92 134.88 117.49 134.88 117.51 2.25 250.15 39.45 287.35 142.67 187.37 147.71 236.97 184.24 274.12"/><polygon class="cls-15" points="333.64 128.13 217.49 241.41 204.38 121.65 167.12 84.39 184.24 274.12 222.98 261.95 367.05 121.27 333.64 128.13"/><polyline class="cls-7" points="359.27 160.25 370.22 171.19 347.76 169 345.81 197.17 308.1 183.69 283.13 203.22 269.34 199.63 257.59 175.05 239.65 185.13 234.93 173.75 235.6 162.42 222.28 156.02 223.89 141.68 229.42 131.01"/><polyline class="cls-7" points="377.16 139.75 387.12 147.39 376.8 152.12 372.04 155.9"/><polyline class="cls-7" points="214.66 101.87 207.39 84.5 190.98 85.48 182.16 74.29 173.15 87.77 169.22 104.86 180.66 105.83 180.47 126.96 177.94 134.9"/><polyline class="cls-7" points="129.95 265.67 123.36 273.54 113.17 278.55"/><polyline class="cls-7" points="46.31 188.36 42.17 221.87 46.09 230.62 50.8 247.5 61.75 265.42"/><rect class="cls-16" x="621.02" y="63.55" width="214.41" height="108.78" rx="54.39" ry="54.39"/><path class="cls-13" d="M672.81,97.45a68.67,68.67,0,0,1-3,7.72v28h-4.62V113.48c-.79,1.15-1.63,2.23-2.43,3.22a30.6,30.6,0,0,0-2.31-5.13,44.8,44.8,0,0,0,8-15.4Zm17.07,26.41c2.71,2,6.4,4.81,8.35,6.52l-3.3,3.22c-1.87-1.95-5.89-5.13-8.67-7.4l2.66-2.35h-3c-1.43,3.46-4.81,7-12.29,9.55a17.41,17.41,0,0,0-3-3.5c6-1.67,8.87-3.86,10.22-6h-9.47v-4.1h10.74v-3.9h-4.77a30.94,30.94,0,0,1-2.63,3.3,28.92,28.92,0,0,0-3.66-2.39,23.48,23.48,0,0,0,5.17-7.72h-4.61v-4h15.24c.2-1.15.4-2.27.52-3.38H675V97.72h13.33l.76-.2,3.42.4c-.24,2.43-.6,4.89-1,7.12H698v4H677.19l3.38,1a21,21,0,0,1-.91,1.91h16.23v3.94h-9.07v3.9h11v4.1Z" transform="translate(0 -8.78)"/><path class="cls-13" d="M724.13,115.82A63.29,63.29,0,0,0,719,112a18,18,0,0,1-7.32,5.73,15,15,0,0,0-3-3.18c4.06-1.59,6.09-3.54,7.08-5.53h-6.6v-3.7h2.67c-1-.6-2.23-1.31-3-1.71a17,17,0,0,0,4.38-7.76l4.18.88c-.24.76-.48,1.55-.79,2.35h9.87v3.66h-5.17v1.79a5.43,5.43,0,0,1,0,.8h6.13V109h-6.56c1.67.88,5.65,3.14,6.68,3.82Zm-7.4-10.54a6.54,6.54,0,0,0,0-.88V102.7h-2a18.67,18.67,0,0,1-1.83,2.59Zm-2.27,11.14H740.4v16.75h-4.85V131.9H719.12v1.31h-4.65Zm4.65,3.7v2.23h16.43v-2.23Zm16.43,8v-2.35H719.12v2.35ZM743.82,99V114H728.7V99Zm-4.69,4.18h-6v6.72h6Z" transform="translate(0 -8.78)"/><path class="cls-13" d="M777.16,124.14h15.43v3H787.3a53.57,53.57,0,0,1,5.29,4.22l-3.86,1.87a42.27,42.27,0,0,0-5.61-4.77l2.78-1.31h-6.48a20.93,20.93,0,0,1,2.59,4.46l-4.1,1.47a19.81,19.81,0,0,0-2.59-4.81l3.34-1.11H763l2.83,1.51a19.84,19.84,0,0,1-5.33,4.5L757,130.62a15.94,15.94,0,0,0,4.77-3.5h-4.37v-3h15.16v-1.31H759.61v-2.59h12.93v-1.15H760.89v-8.15h11.66v-1.15H757.63V107h14.92V105.8c-4,.12-8.08.16-11.89.12a8.74,8.74,0,0,0-.68-2.47c9.55,0,20.61-.32,26.93-1l2.75,2.35c-3.62.4-8,.68-12.49.88V107h15.24v2.75H777.16v1.15h12v8.15h-12v1.15h13.33v2.59H777.16Zm-12.45-23.27h-7.56V97.72h7.56V96.05h4.61v1.67H774v3.14h-4.65v1.87h-4.61ZM772.54,117V113h-7.48V117H768a18.39,18.39,0,0,0-1.63-3l2.94-.87a13.77,13.77,0,0,1,1.91,3.06l-2.35.8ZM772,127.16a23,23,0,0,1,1.67,4.77L769.24,133a25,25,0,0,0-1.39-4.89Zm20.8-29.48v3.14h-7.24v1.67H781v-1.67h-5.25V97.68H781V96.05h4.57v1.63ZM777.16,113V117H780l-1.75-.56c.56-1,1.43-2.39,1.87-3.38Zm7.56,0h-4l2.71.8c-.76,1.15-1.59,2.27-2.27,3.14h3.54Z" transform="translate(0 -8.78)"/><path class="cls-13" d="M698.39,147.93h3.13l4.46,8.18,1.54,3.32h.1c-.17-1.6-.39-3.63-.39-5.37v-6.12h2.91v15.36H707l-4.44-8.22-1.56-3.3h-.1c.15,1.66.38,3.59.38,5.35v6.16h-2.91Z" transform="translate(0 -8.78)"/><path class="cls-13" d="M723.71,159.47h-6.58V157h6.58Zm-.46-8.38h-5.71V148.7h5.71Zm6.89,3.32c.87,4,2.68,7.06,6.23,8.38a8.94,8.94,0,0,0-1.64,2.2,10.38,10.38,0,0,1-5.46-5.89,11.36,11.36,0,0,1-6.06,6.1,10.12,10.12,0,0,0-1.87-2c5.56-2.55,6.14-6.6,6.14-9.28V152h2.66v2.43Zm-3.63-3a19.51,19.51,0,0,1-2.26,4.32,17.94,17.94,0,0,0-2.47-1.43c1.72-1.93,2.95-5.25,3.55-8.59l2.74.46c-.21,1-.44,1.89-.71,2.8h6.25l.48-.15,1.8,1.06a34,34,0,0,1-2.16,6,18.32,18.32,0,0,0-2.12-1,26.32,26.32,0,0,0,1.22-3.47Z" transform="translate(0 -8.78)"/><path class="cls-13" d="M754.23,151.54v2.51h5.94s0,.73,0,1c-.25,5.71-.5,8-1.18,8.8a2.23,2.23,0,0,1-1.76.93,17.07,17.07,0,0,1-2.84.06,5.7,5.7,0,0,0-.81-2.43c1.06.08,2,.1,2.49.1a.91.91,0,0,0,.79-.29c.39-.42.62-2,.79-5.94h-3.46a11.28,11.28,0,0,1-5.46,8.76,10,10,0,0,0-1.89-1.7,10,10,0,0,0,5-9.21v-2.63h-3V153h-2v4.88c.73-.25,1.43-.52,2.14-.75l.48,2.28c-2.45,1-5.06,2-7.14,2.74l-.56-2.59c.75-.21,1.66-.5,2.68-.85V153h-2.28v-2.32h2.28v-4.59h2.41v4.59h1.93v-1.51h5.54a29.15,29.15,0,0,0-.89-3.11l2.32-.56c.37,1,.83,2.3,1,3.09l-2.14.58h6.56v2.37Z" transform="translate(0 -8.78)"/><path class="cls-16" d="M633.27,110.84H583.12a2.18,2.18,0,0,0-1.54,3.72l50,22.72a2.18,2.18,0,0,0,3.72-1.53l.15-22.72A2.18,2.18,0,0,0,633.27,110.84Z" transform="translate(0 -8.78)"/><path class="cls-16" d="M719.49,34.81h6l2.34-8.54h-6l1.32-4.87h6l3.23-11.78h5.89L735,21.4h4.85L743.1,9.62H749L745.78,21.4h6l-1.32,4.87h-6l-2.33,8.54h6l-1.32,4.87h-6l-3.18,11.66h-5.88l3.18-11.66H730l-3.2,11.66h-5.89l3.2-11.66h-6Zm16.75,0,2.33-8.54h-4.86l-2.34,8.54Z" transform="translate(0 -8.78)"/><path class="cls-16" d="M762.37,22.19l1.21-5.66A40.1,40.1,0,0,0,769.3,16a10.21,10.21,0,0,0,4.62-2.22,9.31,9.31,0,0,0,2.31-3,7.78,7.78,0,0,0,.71-1.69h7l-9.12,42.28h-8.65l6.28-29.16Z" transform="translate(0 -8.78)"/><path class="cls-16" d="M821.59,30.62q-2.28,10.47-6.79,16.12T802.07,52.4q-8.2,0-10.29-5.66T792,30.62q2.25-10.47,6.78-16.15t12.73-5.69q8.2,0,10.27,5.69T821.59,30.62Zm-18.06,15q3.76,0,5.76-3.86a47.21,47.21,0,0,0,3.6-11.15q1.63-7.64,1.26-11.31T810,15.63a6.3,6.3,0,0,0-5.77,3.67q-2,3.67-3.64,11.31-1.6,7.29-1.21,11.15T803.53,45.63Z" transform="translate(0 -8.78)"/><path class="cls-17" d="M655.56,19h3.61l6.54,11.31V19h3.21V35.2h-3.44l-6.71-11.51V35.2h-3.21Z" transform="translate(0 -8.78)"/><path class="cls-17" d="M684.32,21.85h-8.72V25.3h8v2.82h-8v4.17h9.12V35.2H672.24V19h12.08Z" transform="translate(0 -8.78)"/><path class="cls-17" d="M689.65,19l2.17,9.29.47,2.58.47-2.53L694.63,19h3.63l2,9.29.5,2.59.51-2.49,2.2-9.39h3.51L702.3,35.2H699l-2-9.49-.58-3.14-.58,3.14-2,9.49h-3.2L686,19Z" transform="translate(0 -8.78)"/><polygon class="cls-17" points="673.97 34.34 681.77 50.26 689.34 34.34 673.97 34.34"/></g></g></svg>