<svg xmlns="http://www.w3.org/2000/svg" viewBox="0 0 653.85 553.51"><defs><style>.cls-1{fill:#006463;}.cls-2{fill:#ff9947;}.cls-10,.cls-11,.cls-12,.cls-14,.cls-15,.cls-16,.cls-17,.cls-18,.cls-3,.cls-4,.cls-7,.cls-9{fill:none;}.cls-18,.cls-3{stroke:#ff9947;}.cls-10,.cls-11,.cls-12,.cls-14,.cls-15,.cls-16,.cls-17,.cls-18,.cls-3,.cls-4,.cls-9{stroke-linecap:round;}.cls-3,.cls-7{stroke-miterlimit:10;}.cls-3,.cls-4{stroke-width:9.07px;}.cls-4{stroke:#6bffba;}.cls-10,.cls-11,.cls-12,.cls-16,.cls-18,.cls-4,.cls-9{stroke-linejoin:round;}.cls-5{fill:#6bffba;}.cls-6{fill:#004864;}.cls-14,.cls-7{stroke:#fff;}.cls-7{stroke-width:2.8px;}.cls-8{fill:#ffcd32;}.cls-10,.cls-11,.cls-12,.cls-9{stroke:#006464;}.cls-9{stroke-width:2.13px;}.cls-10{stroke-width:1.95px;}.cls-11{stroke-width:1.98px;}.cls-12{stroke-width:4.25px;}.cls-13{fill:#fff;}.cls-14{stroke-width:18.19px;}.cls-15,.cls-16,.cls-17{stroke:#ff665c;}.cls-15,.cls-16{stroke-width:8.4px;}.cls-17{stroke-width:5.6px;}.cls-18{stroke-width:9.07px;}.cls-19{fill:#ff665c;}</style></defs><title>資產 119</title><g id="圖層_2" data-name="圖層 2"><g id="content"><path class="cls-1" d="M316.74,307.11l-4.32-18.81V257.92a15.61,15.61,0,0,0-5.64-12.06l7.07-18.13a8.54,8.54,0,1,0-15.9-6.2l-.91,2.34a8.53,8.53,0,0,0-3.15-.6,8.54,8.54,0,0,0-8.42,10l2,11.68A15.72,15.72,0,0,0,263,262l-8.08,19.4A8.53,8.53,0,1,0,270.7,288l3-7.16,7.17,12v31.74a8.54,8.54,0,1,0,17.07,0V301.44l2.18,9.48a8.53,8.53,0,1,0,16.64-3.82Z"/><path class="cls-2" d="M285.5,257.39h34.11a0,0,0,0,1,0,0v23.46a0,0,0,0,1,0,0H285.5a11.73,11.73,0,0,1-11.73-11.73v0a11.73,11.73,0,0,1,11.73-11.73Z" transform="translate(565.81 -27.58) rotate(90)"/><path class="cls-2" d="M272.65,255.43h34.11a0,0,0,0,1,0,0v23.46a0,0,0,0,1,0,0H272.65a11.73,11.73,0,0,1-11.73-11.73v0A11.73,11.73,0,0,1,272.65,255.43Z" transform="matrix(0.51, 0.86, -0.86, 0.51, 367.41, -113.57)"/><line class="cls-3" x1="289.39" y1="274.75" x2="289.39" y2="324.55"/><line class="cls-3" x1="273.58" y1="258.88" x2="262.83" y2="284.7"/><line class="cls-3" x1="303.38" y1="287.08" x2="308.42" y2="309.02"/><polyline class="cls-4" points="293.88 231.81 296.69 248.25 305.9 224.63"/><rect class="cls-5" y="316.05" width="245.04" height="108.78" rx="54.39" ry="54.39"/><path class="cls-6" d="M85.17,364a22,22,0,0,0,7.68,7.28,16.66,16.66,0,0,0-3.1,3.7,24.23,24.23,0,0,1-7.28-8.35v10.34H77.85V366.67a25,25,0,0,1-8.75,8.55A18.71,18.71,0,0,0,66,371.49,22.23,22.23,0,0,0,74.83,364H70.21V349.89h7.64v-2.47h-9v-2.78c-1,3.1-2,6.64-3,9.27a12.25,12.25,0,0,1,2.9,8c0,2.55-.52,4.22-1.75,5.09a5.69,5.69,0,0,1-2.31.84,16.86,16.86,0,0,1-2.55.08,10,10,0,0,0-1-4c.72,0,1.27,0,1.75,0a2.06,2.06,0,0,0,1.11-.36c.44-.32.6-1.11.6-2.23a10.64,10.64,0,0,0-2.75-7c.8-2.51,1.63-6,2.27-8.67H61v31.23h-4.1V341.49h8.63l.68-.2,3.1,1.79-.12.36h8.67v-3.62h4.62v3.62h9.31v4H82.46v2.47h8V364Zm-10.82-8.59h3.5v-2.15h-3.5Zm0,5.25h3.5v-2.15h-3.5Zm8.12-7.4v2.15h3.62v-2.15Zm3.62,5.25H82.46v2.15h3.62Z"/><path class="cls-6" d="M115.76,368.38l3.78,3a69.88,69.88,0,0,1-13.21,5.53,24.65,24.65,0,0,0-3.06-3.5,53.54,53.54,0,0,0,12.13-5H103.79V364h6.72v-16H105v-4.34h5.53V339.9h4.69v3.86h12.53V339.9h4.81v3.86h5.81v4.34h-5.81v16h6.8v4.34Zm-.56-20.29v2.47h12.53V348.1Zm0,9.07h12.53V354.5H115.2Zm0,6.88h12.53v-2.9H115.2Zm11.74,4.61a114.86,114.86,0,0,1,12.61,5.17l-4.54,3a76,76,0,0,0-11.46-5.25Z"/><path class="cls-6" d="M186.18,369.14c-2.11.83-4.26,1.71-6.25,2.35a32.49,32.49,0,0,0,8.12,1.63,15.11,15.11,0,0,0-2.43,3.74c-8.28-1.11-13.41-4.1-16.47-9.55h-3.58v4.77l6-1.15a27.87,27.87,0,0,0,0,3.66c-8.51,1.87-9.91,2.15-10.7,2.63a12.34,12.34,0,0,0-1.31-3.7,2.81,2.81,0,0,0,1.63-2.82v-3.38h-2.54a21.58,21.58,0,0,1-3.82,9.71,22.13,22.13,0,0,0-4-2.43c3.46-4.26,3.86-10.22,3.86-14.36V355.1h31.47v3.34h-27v1.23h25.42v2.94H159.16c0,.44-.08.88-.08,1.35h28.12v3.34H184Zm-1.59-15.28H155V342.21h8v-2.43h4.62v2.43h3.82v-2.43h4.65v2.43h8.47Zm-25.26-7.2H163v-1.59h-3.7Zm0,4.3H163v-1.59h-3.7Zm8.31-5.89v1.59h3.82v-1.59Zm0,4.3V351h3.82v-1.59Zm6,17.94a9.89,9.89,0,0,0,2.63,2.31,38.73,38.73,0,0,0,4.89-2.31Zm6.4-22.24h-3.94v1.59H180Zm0,4.3h-3.94V351H180Z"/><path class="cls-6" d="M82.7,392.12a13.84,13.84,0,0,1-3.63,5,16.93,16.93,0,0,0,4.5,1.49,8.44,8.44,0,0,0-.79,2.34,19,19,0,0,1-5.64-2.39,19.32,19.32,0,0,1-4.86,2.3h9.54v7.78H79.35v-1H74.27v1.1H71.93V401l-.62.19a8.22,8.22,0,0,0-.73-1.37l-.48.6c-.25-.5-.66-1.29-1.1-2V408.8H66.65v-8.24a18.29,18.29,0,0,1-1.83,4.38,12.85,12.85,0,0,0-1.14-2.49,20.49,20.49,0,0,0,2.68-6.87H64.14V393.3h2.51v-3.86H69v3.86h1.87v1.14a12.78,12.78,0,0,0,3.47-5.19l2.14.6c-.19.46-.39,1-.62,1.43H80.7l.44-.08Zm-7.53,5a15.06,15.06,0,0,1-1.74-1.91,10.37,10.37,0,0,1-1.2,1.31,17.25,17.25,0,0,0-1.35-2v1.06H69a36.22,36.22,0,0,1,2.51,3A18.87,18.87,0,0,0,75.16,397.08ZM74.27,403v2.45h5.08V403Zm.56-9.57a9.54,9.54,0,0,0,2.2,2.39,10.25,10.25,0,0,0,2.26-2.39Z"/><path class="cls-6" d="M97.8,392.37l1.76.5c-1,8.41-4,13.51-8.59,15.92a10.93,10.93,0,0,0-2.08-2.08,12,12,0,0,0,5.6-5.27c-.68-.87-1.7-2-2.68-2.95a13.71,13.71,0,0,1-1,1.58,20.91,20.91,0,0,0-2.07-1.58c1.8-2.08,3-5.5,3.67-9.07l2.49.44c-.19.89-.39,1.74-.62,2.59h3.07Zm-4.32,2.43c-.19.54-.37,1-.58,1.54.83.81,1.87,1.76,2.68,2.64a22.74,22.74,0,0,0,1-4.17Zm12.87,7.26a38.76,38.76,0,0,0-3.34-3.88v10.65H100.4V389.44H103v6.89l.91-.66c1.43,1.41,3.53,3.45,4.52,4.71Z"/><path class="cls-6" d="M121.56,394.26a13.39,13.39,0,0,1-.83,1.64h9.65v10.25c0,1.22-.23,1.89-1.08,2.26a9.15,9.15,0,0,1-3.67.42,10.17,10.17,0,0,0-.75-2.39c1.06.06,2.26.06,2.62.06s.48-.12.48-.42v-1.25h-7.8a7.23,7.23,0,0,1-2.3,4.13,8.56,8.56,0,0,0-1.79-1.89c1.79-1.56,1.93-3.78,1.93-5.71v-1.68a16.64,16.64,0,0,1-2.57,2.26,14.21,14.21,0,0,0-1.62-1.91,15.72,15.72,0,0,0,5-5.79h-4.5v-2.32h5.56a25.39,25.39,0,0,0,.83-2.51l2.55.58c-.21.64-.44,1.29-.66,1.93h10.13v2.32Zm6.41,8.53v-1.35h-7.45c0,.44,0,.87,0,1.35Zm0-4.71h-7.45v1.31H128Z"/><path class="cls-6" d="M138.85,407.1a10.26,10.26,0,0,0,2.57-3.53l2.05.91a12.9,12.9,0,0,1-2.57,3.82Zm18.53-11.23h-18V394h4.34a8.09,8.09,0,0,0-.42-1.14l1.56-.31h-4.46V390.6h6.72c-.1-.33-.23-.68-.35-1l2.41-.44a9.63,9.63,0,0,1,.6,1.41h6.45v1.91H152l1.66.29c-.25.42-.46.81-.66,1.16h4.36ZM155.14,403h-6.35a16.1,16.1,0,0,1,2.18,1.37l-1.52,1.52a14.39,14.39,0,0,0-3.26-2.05L147,403h-5.27v-6.33h13.36Zm-4.81,3.67c.77,0,.89-.23,1-1.68a7.15,7.15,0,0,0,2.1.77c-.27,2.3-.93,2.88-2.87,2.88h-3.34c-2.62,0-3.26-.6-3.26-2.55v-2.18h2.41V406c0,.54.17.6,1.1.6Zm2.37-8.47H144.1v.89h8.59Zm0,2.34H144.1v.89h8.59Zm-7-8a9.33,9.33,0,0,1,.58,1.45h4.23c.21-.48.44-1,.58-1.45Zm9.4,10.87a15.8,15.8,0,0,1,2.53,3.67l-2.14,1a15.38,15.38,0,0,0-2.39-3.76Z"/><path class="cls-6" d="M163.71,406.42a14.22,14.22,0,0,0,2.18-4.81l2.24.81a17.63,17.63,0,0,1-2.2,5.23Zm8.57-6.27h-6.5v-9.84h14.86v9.84H172.8a16.42,16.42,0,0,1,3.84,2.64l-1.76,1.68a17.22,17.22,0,0,0-4-3Zm-4.17-6H172v-1.74h-3.9Zm0,3.82H172v-1.83h-3.9Zm7.33,8.2c.85,0,1-.31,1.14-2.37a7.07,7.07,0,0,0,2.22.91c-.27,2.95-1,3.69-3.15,3.69H172.2c-2.74,0-3.42-.73-3.42-2.93v-3.4h2.49v3.38c0,.62.19.71,1.22.71Zm2.76-13.76h-3.8v1.74h3.8Zm0,3.73h-3.8V398h3.8Zm2,5.29a18,18,0,0,1,2.74,5l-2.41,1a18.63,18.63,0,0,0-2.53-5.13Z"/><path class="cls-5" d="M232.53,354.57h50.15a2.18,2.18,0,0,1,1.54,3.72l-50,22.72a2.18,2.18,0,0,1-3.72-1.53l-.15-22.72A2.18,2.18,0,0,1,232.53,354.57Z"/><path class="cls-7" d="M475.57,310.45s-7.66-42.66,10.08-37.28c19.12,5.8-10.08,37.28-10.08,37.28"/><path class="cls-7" d="M475.57,310.45s1.82-40.31,10.08-37.28-10.08,37.28-10.08,37.28"/><path class="cls-8" d="M421.5,260.48c-4.88-7.75-12.65-7.63-17.27.28l-21.28,36.42c-4.62,7.91-.91,14.38,8.25,14.38H437c9.16,0,12.66-6.34,7.78-14.1Z"/><path class="cls-9" d="M409.82,279s8.62-7.26,8.5-16"/><path class="cls-9" d="M405,279s4.91-4.31,6.47-8.77"/><path class="cls-9" d="M400.72,279s4.23-4.31,5.79-8.77"/><path class="cls-9" d="M396.25,279s4.23-4.31,5.79-8.77"/><path class="cls-9" d="M417.13,278.06a9.89,9.89,0,0,1,6.15-1.84c4,0,5.37,1.84,5.37,1.84"/><path class="cls-10" d="M418.92,287.25s3.35-4,7.06-3.72,5.06,1.79,5.06,1.79"/><path class="cls-11" d="M406.75,287.25s-3.54-4.13-7.38-3.87a6.23,6.23,0,0,0-5.19,2.9"/><polygon class="cls-9" points="417.29 303.19 412.12 308.16 407.12 303.27 412.12 300.99 417.29 303.19"/><line class="cls-9" x1="414.09" y1="285.65" x2="413.23" y2="295.31"/><line class="cls-12" x1="398.25" y1="286.92" x2="397.06" y2="285.65"/><line class="cls-12" x1="424.08" y1="287.09" x2="422.47" y2="285.91"/><path class="cls-8" d="M436.41,387.16A114.29,114.29,0,0,0,435,370.49l-5.13-28.88a6.75,6.75,0,0,1,6.93-8.21l40.5.28c4.62,0,8.38-3,8.37-6.69s-3.81-6.76-8.43-6.77L384.68,320a13.15,13.15,0,0,0-11.41,7.82L360,362.32c-1.66,4.31-.07,8.84,3.53,10.06s7.92-1.3,9.6-5.6l10.21-26.13c1.68-4.3,5.93-7,9.45-6.1s5.84,5.46,5.18,10L394,372a139,139,0,0,0-1.19,16.71l.13,72a8.26,8.26,0,0,0,8.41,8.25l8.51-.15c4.62-.08,8.4-3.51,8.4-7.62s-2.64-7.45-5.86-7.41-5.86-3.72-5.86-8.34V396.38a8.1,8.1,0,1,1,16.18,0v63.21a8.42,8.42,0,0,0,8.4,8.4h9c4.62,0,8.4-3.06,8.4-6.79s-2.75-6.79-6.12-6.79-6.11-3.78-6.1-8.4Z"/><polygon class="cls-13" points="425.02 266.2 400.72 265.75 401.22 251.53 425.31 251.81 425.02 266.2"/><line class="cls-14" x1="428.3" y1="253.04" x2="400.72" y2="246.12"/><circle class="cls-8" cx="384.91" cy="268.63" r="8.52"/><line class="cls-15" x1="475.57" y1="310.45" x2="470.75" y2="328.27"/><path class="cls-16" d="M400.72,320s7.3,3.93,11.68,3.93S424.08,320,424.08,320"/><line class="cls-17" x1="411.02" y1="328.6" x2="406.89" y2="333.31"/><line class="cls-17" x1="414.87" y1="328.6" x2="419.7" y2="333.31"/><path class="cls-2" d="M289.18,408.45h34.11a0,0,0,0,1,0,0v23.46a0,0,0,0,1,0,0H289.18a11.73,11.73,0,0,1-11.73-11.73v0A11.73,11.73,0,0,1,289.18,408.45Z" transform="translate(720.55 119.82) rotate(90)"/><line class="cls-3" x1="293.06" y1="425.81" x2="293.06" y2="484.28"/><line class="cls-3" x1="306.05" y1="437.1" x2="320.83" y2="472.9"/><polyline class="cls-4" points="293.06 387.51 300.37 399.32 300.37 375.7"/><path class="cls-2" d="M536.77,499.16h34.11a0,0,0,0,1,0,0v23.46a0,0,0,0,1,0,0H536.77A11.73,11.73,0,0,1,525,510.89v0A11.73,11.73,0,0,1,536.77,499.16Z" transform="translate(1058.85 -37.07) rotate(90)"/><polyline class="cls-3" points="540.66 516.52 540.66 530.83 536.23 548.98"/><line class="cls-3" x1="553.65" y1="527.8" x2="569.75" y2="533.87"/><polyline class="cls-4" points="538.86 475.19 547.96 490.03 547.96 466.41"/><line class="cls-4" x1="547.96" y1="490.03" x2="555.84" y2="475.25"/><path class="cls-2" d="M618.72,493.59h34.11a0,0,0,0,1,0,0v23.46a0,0,0,0,1,0,0H618.72A11.73,11.73,0,0,1,607,505.32v0A11.73,11.73,0,0,1,618.72,493.59Z" transform="translate(1135.24 -124.59) rotate(90)"/><polyline class="cls-18" points="622.61 510.95 622.61 524.5 619.91 542.7"/><line class="cls-3" x1="635.6" y1="522.24" x2="649.31" y2="526.83"/><polyline class="cls-4" points="620.81 469.63 629.91 484.46 629.91 460.84"/><path class="cls-2" d="M464.6,504h25.24a0,0,0,0,1,0,0v23.46a0,0,0,0,1,0,0H464.6a11.73,11.73,0,0,1-11.73-11.73v0A11.73,11.73,0,0,1,464.6,504Z" transform="translate(987.04 44.33) rotate(90)"/><polyline class="cls-18" points="464.05 516.88 464.05 530.42 461.35 548.62"/><line class="cls-3" x1="477.04" y1="528.16" x2="491.63" y2="536.79"/><polyline class="cls-4" points="478.61 470.84 471.35 499.26 471.35 459.53"/><path class="cls-2" d="M337.08,481.85h49.1a0,0,0,0,1,0,0v23.46a0,0,0,0,1,0,0h-49.1a11.73,11.73,0,0,1-11.73-11.73v0A11.73,11.73,0,0,1,337.08,481.85Z" transform="translate(849.35 137.82) rotate(90)"/><polyline class="cls-18" points="348.46 506.71 348.46 520.25 345.77 538.45"/><line class="cls-3" x1="361.45" y1="517.99" x2="376.04" y2="526.62"/><polyline class="cls-4" points="365.68 453.36 355.77 465.23 355.77 441.61"/><path class="cls-1" d="M348.94,114.4h-.26a8.54,8.54,0,0,0-12.95-7.9l-10,6.1A15.65,15.65,0,0,0,314.51,111l-9.7,2a13.71,13.71,0,0,0-1.92.56,15.79,15.79,0,0,0-11.19,15l-.36,32v.84l-.19,16.81h.19v17.29a8.54,8.54,0,0,0,17.07,0V180.14l8.5,9.75a8.54,8.54,0,0,0,12.87-11.22l-7.08-8.12.33-29.27A15.69,15.69,0,0,0,333,131.4l15.94.07a8.54,8.54,0,0,0,0-17.07Z"/><path class="cls-1" d="M368.78,83.44,360.05,75V57.94a15.71,15.71,0,0,0-5.76-12.17L365.4,19.82A8.54,8.54,0,0,0,352.86,9.33v-.8a8.54,8.54,0,0,0-17.07,0V20a8.67,8.67,0,0,0-1.47-.12,8.58,8.58,0,0,0-3.83.91,8.53,8.53,0,0,0-3.79,11.46l7.07,14a15.68,15.68,0,0,0-5.17,11.66v6.62a8.42,8.42,0,0,0-.11,1.33V78.8l-2.6,17.58a8.54,8.54,0,0,0,7.2,9.69,8.53,8.53,0,0,0,9.69-7.19l1.73-11.7h3.58l8.83,8.54a8.49,8.49,0,0,0,5.93,2.4,8.58,8.58,0,0,0,6.14-2.6,8.54,8.54,0,0,0-.21-12.07Z"/><path class="cls-2" d="M300.95,141.9l19.81-4.13a11.73,11.73,0,0,0,8.73-14.11h0a11.73,11.73,0,0,0-14.11-8.73l-9.75,2a10,10,0,0,0-7.71,12.1Z"/><path class="cls-2" d="M318.65,174.27l.52-45.61a11.73,11.73,0,0,0-11.73-11.73h0a11.73,11.73,0,0,0-11.73,11.73l-.52,45.61Z"/><line class="cls-3" x1="299.87" y1="160.98" x2="299.87" y2="195.56"/><line class="cls-3" x1="312.86" y1="172.26" x2="323.33" y2="184.28"/><polyline class="cls-4" points="340.16 113.8 325.28 122.83 348.9 122.94"/><path class="cls-2" d="M337.57,53h25.24a0,0,0,0,1,0,0V76.42a0,0,0,0,1,0,0H337.57a11.73,11.73,0,0,1-11.73-11.73v0A11.73,11.73,0,0,1,337.57,53Z" transform="translate(409.02 -279.63) rotate(90)"/><polyline class="cls-18" points="337.02 65.88 337.02 79.43 334.33 97.63"/><line class="cls-3" x1="350.01" y1="77.17" x2="362.85" y2="89.57"/><polyline class="cls-4" points="334.33 28.4 344.32 48.27 344.32 8.54"/><line class="cls-4" x1="345.83" y1="43.86" x2="357.56" y2="16.46"/><path class="cls-5" d="M18.08,278.54h6L26.41,270h-6l1.32-4.87h6L31,253.35h5.89l-3.23,11.78h4.85l3.21-11.78h5.89l-3.21,11.78h6L49.06,270H43l-2.33,8.54h6l-1.32,4.87h-6l-3.18,11.66H30.33l3.18-11.66H28.62l-3.2,11.66H19.53l3.2-11.66h-6Zm16.75,0L37.16,270H32.3L30,278.54Z"/><path class="cls-5" d="M61,265.92l1.21-5.66a40.1,40.1,0,0,0,5.71-.52,10.21,10.21,0,0,0,4.62-2.22,9.31,9.31,0,0,0,2.31-3,7.78,7.78,0,0,0,.71-1.69h7l-9.12,42.28H64.78l6.28-29.16Z"/><path class="cls-5" d="M91.37,265.92l1.21-5.66a40.1,40.1,0,0,0,5.71-.52,10.21,10.21,0,0,0,4.62-2.22,9.31,9.31,0,0,0,2.31-3,7.78,7.78,0,0,0,.71-1.69h7l-9.12,42.28H95.19l6.28-29.16Z"/><path class="cls-19" d="M150.12,255.55h3.61l6.54,11.31V255.55h3.21v16.22H160l-6.71-11.51v11.51h-3.21Z"/><path class="cls-19" d="M178.88,258.42h-8.72v3.44h8v2.82h-8v4.17h9.12v2.92H166.8V255.55h12.08Z"/><path class="cls-19" d="M184.21,255.55l2.17,9.29.47,2.58.47-2.53,1.86-9.34h3.63l2,9.29.5,2.59.51-2.49,2.2-9.39h3.51l-4.63,16.22h-3.29l-2-9.49-.58-3.14-.58,3.14-2,9.49h-3.2l-4.67-16.22Z"/><polygon class="cls-19" points="168.53 279.68 176.33 295.6 183.89 279.68 168.53 279.68"/></g></g></svg>