<svg xmlns="http://www.w3.org/2000/svg" viewBox="0 0 289.43 89.55"><defs><style>.cls-1{fill:#6bffba;}.cls-2{fill:#00364b;}</style></defs><title>Asset 40</title><g id="Layer_2" data-name="Layer 2"><g id="對話框"><rect class="cls-1" width="289.43" height="49.48" rx="24.74" ry="24.74"/><path class="cls-2" d="M48.08,18.73H44.71A12.44,12.44,0,0,1,46,20l-1.41,1.22h1.6l0,4.93-6.18,0v1.15l7.13,0s0,.57-.06.84c-.2,2.59-.44,3.86-1,4.36a2,2,0,0,1-1.48.68,19,19,0,0,1-2.47,0,4.66,4.66,0,0,0-.63-2.11,16.12,16.12,0,0,0,2,.09.89.89,0,0,0,.66-.17,3.48,3.48,0,0,0,.47-1.79l-4.66,0L40,34H37.74v-3.8a17.61,17.61,0,0,1-5.94,3.7A8.92,8.92,0,0,0,30.36,32,17.21,17.21,0,0,0,36,29.15l-4.19,0a42.35,42.35,0,0,0,.74-5l5.2,0V23.06l-5.92,0V21.13h4A15.55,15.55,0,0,0,34,19.35l.74-.64H33.64a15.39,15.39,0,0,1-2,2.51,14.49,14.49,0,0,0-1.55-1.57,11.16,11.16,0,0,0,2.84-4.08l2,.59a6.76,6.76,0,0,1-.35.78l4.29,0v1.77H36.12A12.08,12.08,0,0,1,37.44,20l-1.25,1.15,8.22,0a15,15,0,0,0-1.88-1.74l.84-.72h-1.6a10.24,10.24,0,0,1-1.53,1.88,10.9,10.9,0,0,0-1.73-1.35A8.8,8.8,0,0,0,41,15.59l2.1.53c-.1.27-.22.56-.33.84l5.36,0ZM37.77,26.08H34.59c-.06.39-.1.78-.16,1.15h3.33Zm6.17-3H40.06v1.11h3.88Z"/><path class="cls-2" d="M71.48,23.54v2.51L53.55,26V23.47Z"/><path class="cls-2" d="M83.17,28.84l-6.18,0V26.5l6.18,0ZM82.78,21l-5.36,0V18.71l5.36,0Zm6.46,3.14C90,27.83,91.72,30.74,95,32a8.42,8.42,0,0,0-1.55,2.06,9.75,9.75,0,0,1-5.1-5.55,10.68,10.68,0,0,1-5.71,5.71,9.47,9.47,0,0,0-1.75-1.92c5.23-2.38,5.79-6.17,5.8-8.69V21.82h2.49v2.28Zm-3.4-2.8a18.33,18.33,0,0,1-2.14,4A16.76,16.76,0,0,0,81.38,24c1.63-1.81,2.79-4.92,3.36-8.05l2.57.44c-.2.89-.42,1.77-.67,2.63l5.87,0L93,18.9l1.69,1a32.11,32.11,0,0,1-2,5.64,16.79,16.79,0,0,0-2-1,24.78,24.78,0,0,0,1.16-3.25Z"/><path class="cls-2" d="M106.61,21.15a20.63,20.63,0,0,1-1.71,2.45l0,10.58h-2.24l0-8.09a18.45,18.45,0,0,1-1.76,1.57,17.38,17.38,0,0,0-1.1-2.4,17.48,17.48,0,0,0,4.79-5Zm-.32-4.23a20.62,20.62,0,0,1-5.12,4.87,14.31,14.31,0,0,0-1.14-2,13.88,13.88,0,0,0,4.07-3.8Zm11.8,12.26h-2.67v2.77c0,1.07-.2,1.62-1,1.95a7.7,7.7,0,0,1-3,.32,8.12,8.12,0,0,0-.71-2.07c.82,0,1.73,0,2,0s.35-.1.35-.31V29.17l-4.09,0a20.59,20.59,0,0,1,2.21,2.44l-1.74,1.22a16.47,16.47,0,0,0-2.23-2.72l1.45-1h-2.73v-2l7.13,0V26.09l-6.66,0V24.17l11.28,0v1.89h-2.26v1.11h2.65Zm-1-5.83-9.65,0,0-6.74,9.65,0Zm-2.33-2.64-5.07,0v1l5.07,0Zm0-2.49-5.07,0v1l5.07,0Z"/><path class="cls-2" d="M130.32,30.42c1.23-.21,2.5-.42,3.72-.61l.11,2c-3.41.65-7.1,1.3-9.75,1.76l-.5-2.15c1.17-.15,2.63-.38,4.21-.63V28.13h-3.55v-2h3.55V24.39h2.2v1.73h3.51v2h-3.51Zm-6.17-13.2,10.13,0v2h-2.75a21.71,21.71,0,0,1,2.69,4.16l-1.76,1.14c-.12-.29-.27-.62-.44-1-5.38.43-6.22.52-6.78.75-.13-.47-.5-1.5-.73-2.11a1.91,1.91,0,0,0,.9-.81,15.47,15.47,0,0,0,1.22-2.18h-2.47Zm6.8,4.57c-.37-.57-.76-1.11-1.12-1.6l1.64-.95h-2.34A22.94,22.94,0,0,1,127.43,22Zm6.19,7.91H135l0-11.77h2.14ZM141,16.35,141,31.43c0,1.23-.24,1.81-1,2.18a8.49,8.49,0,0,1-3.37.42,9.46,9.46,0,0,0-.77-2.22c1,0,2.08,0,2.42,0s.45-.12.45-.45l.06-15.06Z"/><path class="cls-2" d="M158.38,30.48c2.28.65,5.12,1.52,6.7,2.13L163.9,34.4c-1.73-.75-5.24-1.93-7.73-2.66l.92-1.26h-.94c-1,2-3.19,3.28-8.26,3.91a6.61,6.61,0,0,0-1-2c3.62-.34,5.54-.9,6.53-1.87l-6.06,0v-2l7.13,0a7.65,7.65,0,0,0,.18-1.05l-5.28,0,0-6.68,13.39,0,0,6.68-5.83,0c0,.37-.08.7-.14,1.05l7.93,0v2Zm-7-11.27h-3.94v-2h3.94v-1h2.26v1h2.12v2h-2.12v1.19h-2.26Zm.19,6.55,8.91,0v-1l-8.91,0Zm0-2.49,8.91,0v-.94l-8.91,0Zm6.93-4h-2.1v-2h2.1v-1h2.26v1h3.9v2h-3.9v1.19H158.5Z"/><path class="cls-2" d="M181.2,23.9c1.27,3.8,3.62,6.87,7.26,8.37a9.36,9.36,0,0,0-1.72,2.18c-3.52-1.67-5.77-4.52-7.28-8.29a13.41,13.41,0,0,1-7.32,8.25,6.88,6.88,0,0,0-1.73-2,11.68,11.68,0,0,0,7.1-8.55l-6.7,0v-2.4l7.09,0c.2-1.83.19-3.6.21-5.2h2.53c0,1.6-.05,3.39-.25,5.2l7.66,0v2.4Z"/><path class="cls-2" d="M211.43,19.4s0,.78,0,1.05c-.29,8.71-.51,11.81-1.31,12.84a2.6,2.6,0,0,1-1.87,1.06,21.87,21.87,0,0,1-3.06,0,5.46,5.46,0,0,0-.75-2.26c1.25.12,2.4.13,2.9.13a1,1,0,0,0,.86-.33c.57-.62.83-3.54,1.07-10.42l-4.17,0a16.83,16.83,0,0,1-1.73,3.07,14.44,14.44,0,0,0-1.5-1.1l0,9.1-5.2,0V34h-2.1l.05-14.48h2.2a20.75,20.75,0,0,0,.58-3.13l2.53.36c-.34,1-.69,1.95-1,2.78h3v3.16a20.19,20.19,0,0,0,2.65-6.26l2.2.51a22.57,22.57,0,0,1-.77,2.47ZM199.71,30.5V26.68h-3.1v3.82Zm0-9h-3.1v3.16h3.1Zm6.44,8A41.48,41.48,0,0,0,203.49,25l1.82-1a47.31,47.31,0,0,1,2.85,4.34Z"/><path class="cls-2" d="M235,24.08a16.29,16.29,0,0,1-3.08,6.69,10.14,10.14,0,0,0,3.44,1.94,10.24,10.24,0,0,0-1.55,2,11.08,11.08,0,0,1-3.5-2.24,12.64,12.64,0,0,1-3.59,2.25,8.63,8.63,0,0,0-1.46-1.78L217.35,34,217,31.93c1.34-.13,3.12-.34,5-.57a19.18,19.18,0,0,0,.77-2.88l2.1.46c-.26.74-.51,1.5-.77,2.16l1.85-.23.07,1.6a11.24,11.24,0,0,0,2.71-1.72,16.7,16.7,0,0,1-2.4-4.71L228,25.6h-1.93V23.53h3.2V21.35h-3.18V19.22h3.18V16.44h2.3v2.79H235v2.12h-3.43v2.18h1.52l.41-.1Zm-14.4-4.32h-3.33V17.88h3.33V16.43h2.26V17.9h3.08v1.87h-3.08V20.9h2.84v1.87l-7.89,0V20.88h2.79Zm4.86,8.71-7.44,0,0-4.81,7.44,0Zm-5.1,0a8.09,8.09,0,0,1,.75,2.44l-2,.6a8.63,8.63,0,0,0-.63-2.5Zm2.86-3.07h-3.08V26.7h3.08Zm5.2.2a12.14,12.14,0,0,0,1.92,3.53,11.69,11.69,0,0,0,1.88-3.52Z"/><path class="cls-2" d="M249.37,28.06a10.3,10.3,0,0,1-7,6.83A6.58,6.58,0,0,0,241,33.25a11.34,11.34,0,0,0,3.32-1.45,15.69,15.69,0,0,0-1.4-1.45,13.34,13.34,0,0,1-1.15.8,18.08,18.08,0,0,0-1.38-1.39,8.86,8.86,0,0,0,3.74-3.44h-3.43V24.5h3V23.22h-2V21.36h2V20H246v1.4h1.19V20h2v1.34h1.3V20.05h2V21.4h1.25V20h2.22v1.42h1.87v1.85h-1.87v1.29h2.55v1.81l-13.5,0,1.13.32c-.16.29-.33.58-.51.88h2.2l.33-.06Zm-5-8.65a16.4,16.4,0,0,1-2.09,1.67,6.41,6.41,0,0,0-1.65-1.35,10.89,10.89,0,0,0,3.58-3.24l2.22.44c-.18.27-.35.52-.55.78l11.5,0v1.71Zm.06,9.63-.2.19a18.23,18.23,0,0,1,1.53,1.41A7.19,7.19,0,0,0,246.89,29ZM246,24.52h1.19V23.23H246Zm12.62,8.15h-3.08v2.07h-2.2V32.65h-4.5c.37-.92.77-2.16,1.14-3.35h-.53V27.53h3.9v-1h2.2v1h2.71v1.77H255.5v1.6h3.08Zm-9.42-9.43v1.29h1.3V23.25Zm4.14,7.67v-1.6H252c-.18.54-.36,1.07-.53,1.6Zm-.83-7.66v1.29h1.25V23.26Z"/><path class="cls-1" d="M143.29,49.37,150.81,86c1,4.86,4.64,4.73,5.54-.19l6.72-36.61c.67-3.65-.76-7.46-2.79-7.46H146C144,41.72,142.54,45.69,143.29,49.37Z"/></g></g></svg>