<svg xmlns="http://www.w3.org/2000/svg" viewBox="0 0 71.21 43.72"><defs><style>.cls-1{fill:#6bffba;}.cls-2{fill:#006464;}</style></defs><title>資產 126</title><g id="圖層_2" data-name="圖層 2"><g id="頂部小人"><rect class="cls-1" width="71.21" height="36.13" rx="18.06" ry="18.06"/><path class="cls-1" d="M31.11,35.4V43a.72.72,0,0,0,1.24.51L39.89,36a.72.72,0,0,0-.51-1.24l-7.55,0A.72.72,0,0,0,31.11,35.4Z"/><path class="cls-2" d="M15.07,11.75a26.16,26.16,0,0,1-1.14,2.91V25.23H12.19V17.79c-.3.44-.62.84-.92,1.21a11.47,11.47,0,0,0-.87-1.93,16.89,16.89,0,0,0,3-5.81Zm6.43,10c1,.75,2.42,1.81,3.15,2.46l-1.25,1.22c-.71-.73-2.22-1.94-3.27-2.79l1-.88H20c-.54,1.3-1.82,2.62-4.64,3.6A6.56,6.56,0,0,0,14.25,24c2.25-.63,3.34-1.46,3.86-2.28H14.53V20.16h4V18.69h-1.8a11.63,11.63,0,0,1-1,1.25,10.86,10.86,0,0,0-1.38-.9,8.86,8.86,0,0,0,2-2.91H14.62V14.61h5.75c.08-.44.15-.85.19-1.27H15.9V11.85h5l.29-.07,1.29.15c-.09.92-.23,1.84-.37,2.69h2.43v1.51H16.72l1.28.36a7.73,7.73,0,0,1-.34.72h6.12v1.48H20.35v1.47h4.16v1.54Z"/><path class="cls-2" d="M34.42,18.68a23.86,23.86,0,0,0-1.93-1.45,6.79,6.79,0,0,1-2.76,2.16,5.65,5.65,0,0,0-1.12-1.2,4.63,4.63,0,0,0,2.67-2.08H28.78V14.7h1c-.36-.23-.84-.5-1.14-.65a6.41,6.41,0,0,0,1.65-2.92l1.58.33c-.09.28-.18.58-.3.88h3.72v1.38h-2v.68a2.06,2.06,0,0,1,0,.3h2.31v1.4H33.16c.63.33,2.13,1.19,2.52,1.44Zm-2.79-4a2.44,2.44,0,0,0,0-.33v-.65H30.9a7,7,0,0,1-.69,1Zm-.85,4.2h9.78v6.31H38.72v-.48H32.53v.5H30.78Zm1.75,1.4v.84h6.19V20.3Zm6.19,3v-.89H32.53v.89Zm3.12-11V18h-5.7V12.32Zm-1.77,1.57H37.8v2.54h2.28Z"/><path class="cls-2" d="M54.42,21.81h5.82v1.13h-2a20.18,20.18,0,0,1,2,1.59l-1.46.71a16,16,0,0,0-2.12-1.8l1-.49H55.27a7.91,7.91,0,0,1,1,1.68l-1.54.56a7.48,7.48,0,0,0-1-1.81L55,22.94H49.06l1.06.57a7.47,7.47,0,0,1-2,1.69l-1.3-.94a6,6,0,0,0,1.8-1.32H47V21.81h5.71v-.5H47.8v-1h4.87v-.44H48.28V16.83h4.39V16.4H47.05v-1h5.62V14.9c-1.51,0-3,.06-4.48,0a3.29,3.29,0,0,0-.25-.93c3.6,0,7.77-.12,10.15-.37l1,.88c-1.37.15-3,.26-4.71.33v.51h5.75v1H54.42v.44h4.53v3.07H54.42v.44h5v1h-5ZM49.72,13H46.87V11.85h2.85v-.63h1.74v.63h1.75V13H51.46v.71H49.72Zm3,6.07V17.63H49.86v1.48H51A7,7,0,0,0,50.35,18l1.11-.33a5.2,5.2,0,0,1,.72,1.15l-.89.3ZM52.47,23a8.62,8.62,0,0,1,.63,1.8l-1.66.4a9.5,9.5,0,0,0-.53-1.84Zm7.84-11.11V13H57.58v.63H55.86V13h-2V11.84h2v-.62h1.72v.62Zm-5.89,5.79v1.48h1.07l-.66-.21c.21-.37.54-.9.71-1.27Zm2.85,0h-1.5l1,.3c-.29.43-.6.85-.86,1.18h1.33Z"/></g></g></svg>