<svg xmlns="http://www.w3.org/2000/svg" xmlns:xlink="http://www.w3.org/1999/xlink" viewBox="0 0 812.48 532.67"><defs><style>.cls-1,.cls-16,.cls-17,.cls-20,.cls-21,.cls-22,.cls-24,.cls-25,.cls-26,.cls-27,.cls-28{fill:none;}.cls-2{fill:url(#未命名漸層_10);}.cls-3{fill:url(#未命名漸層_10-2);}.cls-4{fill:url(#未命名漸層_10-3);}.cls-5{fill:url(#未命名漸層_10-4);}.cls-6{fill:url(#未命名漸層_10-5);}.cls-7{fill:url(#未命名漸層_10-6);}.cls-8{fill:url(#未命名漸層_10-7);}.cls-9{fill:#00364b;}.cls-10{fill:#004864;}.cls-11{fill:url(#USGS_22_沙礫海灘_3);}.cls-12,.cls-18{fill:#6bffba;}.cls-12,.cls-13,.cls-16,.cls-26,.cls-27,.cls-28,.cls-29{stroke:#004864;}.cls-12,.cls-13,.cls-16,.cls-17,.cls-20,.cls-21,.cls-22,.cls-24,.cls-25,.cls-26,.cls-27,.cls-28,.cls-29{stroke-linecap:round;}.cls-12,.cls-13,.cls-26,.cls-27,.cls-28,.cls-29{stroke-linejoin:round;}.cls-12,.cls-13{stroke-width:8.4px;}.cls-13{fill:#006464;}.cls-14{fill:#ff9947;}.cls-15{fill:#e0e0e0;}.cls-16,.cls-17,.cls-20,.cls-21,.cls-22,.cls-24,.cls-25{stroke-miterlimit:10;}.cls-16{stroke-width:2.89px;}.cls-17,.cls-20{stroke:#ff9947;}.cls-17{stroke-width:2.91px;}.cls-19{fill:url(#未命名漸層_6);}.cls-20{stroke-width:3.22px;}.cls-21,.cls-22,.cls-25{stroke:#e0e0e0;}.cls-21{stroke-width:4.71px;}.cls-22{stroke-width:3.14px;}.cls-23,.cls-29{fill:#ffcd32;}.cls-24{stroke:#ffcd32;stroke-width:5.18px;}.cls-25{stroke-width:4.09px;}.cls-26{stroke-width:3px;}.cls-27,.cls-29{stroke-width:2px;}.cls-28{stroke-width:4px;}.cls-30{fill:#ff665c;}</style><linearGradient id="未命名漸層_10" x1="286.09" y1="-15153.27" x2="286.09" y2="-15059.27" gradientTransform="matrix(1, 0, 0, -1, 0, -14886)" gradientUnits="userSpaceOnUse"><stop offset="0" stop-color="#006464"/><stop offset="1" stop-color="#50adc0"/></linearGradient><linearGradient id="未命名漸層_10-2" x1="143.05" y1="-15226.47" x2="143.05" y2="-15132.47" xlink:href="#未命名漸層_10"/><linearGradient id="未命名漸層_10-3" x1="0" y1="-15153.27" x2="0" y2="-15059.27" xlink:href="#未命名漸層_10"/><linearGradient id="未命名漸層_10-4" x1="286.09" y1="-15006.87" x2="286.09" y2="-14912.87" xlink:href="#未命名漸層_10"/><linearGradient id="未命名漸層_10-5" x1="143.05" y1="-15080.07" x2="143.05" y2="-14986.07" xlink:href="#未命名漸層_10"/><linearGradient id="未命名漸層_10-6" x1="0" y1="-15006.87" x2="0" y2="-14912.87" xlink:href="#未命名漸層_10"/><linearGradient id="未命名漸層_10-7" x1="143.05" y1="-14933.67" x2="143.05" y2="-14839.67" xlink:href="#未命名漸層_10"/><pattern id="USGS_22_沙礫海灘_3" data-name="USGS 22 沙礫海灘 3" width="286.09" height="292.8" patternTransform="matrix(-1.4, 0, 0, 1.4, -302.29, -335.39)" patternUnits="userSpaceOnUse" viewBox="0 0 286.09 292.8"><rect class="cls-1" width="286.09" height="292.8"/><path class="cls-2" d="M262.84,229.3h-3a2.91,2.91,0,0,1-2.91-2.91v-3a2.91,2.91,0,0,1,2.91-2.91h3a2.91,2.91,0,0,1,2.91,2.91v3A2.91,2.91,0,0,1,262.84,229.3ZM260,214h0a1.3,1.3,0,0,0-1.3-1.3h0a1.3,1.3,0,0,0-1.3,1.3h0a1.3,1.3,0,0,0,1.3,1.3h0A1.3,1.3,0,0,0,260,214Zm0,19.16h0a1.3,1.3,0,0,0-1.3-1.3h0a1.3,1.3,0,0,0-1.3,1.3h0a1.3,1.3,0,0,0,1.3,1.3h0A1.3,1.3,0,0,0,260,233.17ZM249.8,213.42v-2a1.3,1.3,0,0,0-1.3-1.3h-2a1.3,1.3,0,0,0-1.3,1.3v2a1.3,1.3,0,0,0,1.3,1.3h2A1.3,1.3,0,0,0,249.8,213.42Zm77.43,22.07v-2a1.3,1.3,0,0,0-1.3-1.3h-2a1.3,1.3,0,0,0-1.3,1.3v2a1.3,1.3,0,0,0,1.3,1.3h2A1.3,1.3,0,0,0,327.23,235.48Zm-48.49-34.35v-2a1.3,1.3,0,0,0-1.3-1.3h-2a1.3,1.3,0,0,0-1.3,1.3v2a1.3,1.3,0,0,0,1.3,1.3h2A1.3,1.3,0,0,0,278.74,201.13Zm35-44.2v-2a1.3,1.3,0,0,0-1.3-1.3h-2a1.3,1.3,0,0,0-1.3,1.3v2a1.3,1.3,0,0,0,1.3,1.3h2A1.3,1.3,0,0,0,313.72,156.94Zm-65.94,75.64h0a1.3,1.3,0,0,0-1.3-1.3h0a1.3,1.3,0,0,0-1.3,1.3h0a1.3,1.3,0,0,0,1.3,1.3h0A1.3,1.3,0,0,0,247.78,232.57Zm-9.44-39.93v-3a2.91,2.91,0,0,0-2.91-2.91h-3a2.91,2.91,0,0,0-2.91,2.91v3a2.91,2.91,0,0,0,2.91,2.91h3A2.91,2.91,0,0,0,238.34,192.64Zm6.65-13h0a1.3,1.3,0,0,0-1.3-1.3h0a1.3,1.3,0,0,0-1.3,1.3h0a1.3,1.3,0,0,0,1.3,1.3h0A1.3,1.3,0,0,0,245,179.66Zm0,19.16h0a1.3,1.3,0,0,0-1.3-1.3h0a1.3,1.3,0,0,0-1.3,1.3h0a1.3,1.3,0,0,0,1.3,1.3h0A1.3,1.3,0,0,0,245,198.82Zm-22.61-19.16v-2a1.3,1.3,0,0,0-1.3-1.3h-2a1.3,1.3,0,0,0-1.3,1.3v2a1.3,1.3,0,0,0,1.3,1.3h2A1.3,1.3,0,0,0,222.38,179.66Zm-2,19.16h0a1.3,1.3,0,0,0-1.3-1.3h0a1.3,1.3,0,0,0-1.3,1.3h0a1.3,1.3,0,0,0,1.3,1.3h0A1.3,1.3,0,0,0,220.36,198.82ZM249,264.9v3a2.91,2.91,0,0,0,2.91,2.91h3a2.91,2.91,0,0,0,2.91-2.91v-3a2.91,2.91,0,0,0-2.91-2.91h-3A2.91,2.91,0,0,0,249,264.9Zm-43.49,6.64h0a1.3,1.3,0,0,0,1.3,1.3h0a1.3,1.3,0,0,0,1.3-1.3h0a1.3,1.3,0,0,0-1.3-1.3h0A1.3,1.3,0,0,0,205.49,271.54Zm31.64-18h0a1.3,1.3,0,0,0,1.3,1.3h0a1.3,1.3,0,0,0,1.3-1.3h0a1.3,1.3,0,0,0-1.3-1.3h0A1.3,1.3,0,0,0,237.13,253.53Zm-20.68-17.24h0a1.3,1.3,0,0,0,1.3,1.3h0a1.3,1.3,0,0,0,1.3-1.3h0a1.3,1.3,0,0,0-1.3-1.3h0A1.3,1.3,0,0,0,216.45,236.29Zm11.64,35.25v2a1.3,1.3,0,0,0,1.3,1.3h2a1.3,1.3,0,0,0,1.3-1.3v-2a1.3,1.3,0,0,0-1.3-1.3h-2A1.3,1.3,0,0,0,228.1,271.54Zm60.8,15.93v2a1.3,1.3,0,0,0,1.3,1.3h2a1.3,1.3,0,0,0,1.3-1.3v-2a1.3,1.3,0,0,0-1.3-1.3h-2A1.3,1.3,0,0,0,288.9,287.47Zm-58.78-35.09h0a1.3,1.3,0,0,0,1.3,1.3h0a1.3,1.3,0,0,0,1.3-1.3h0a1.3,1.3,0,0,0-1.3-1.3h0A1.3,1.3,0,0,0,230.12,252.39Zm-30-31.94h0a1.3,1.3,0,0,0,1.3,1.3h0a1.3,1.3,0,0,0,1.3-1.3h0a1.3,1.3,0,0,0-1.3-1.3h0A1.3,1.3,0,0,0,200.11,220.44Zm129.32,56.48h6.25a1.3,1.3,0,0,0,1.3-1.3v-6.25a1.3,1.3,0,0,0-1.3-1.3h-6.25a1.3,1.3,0,0,0-1.3,1.3v6.25A1.3,1.3,0,0,0,329.43,276.92Zm12,9.25h0a1.3,1.3,0,0,0,1.3-1.3h0a1.3,1.3,0,0,0-1.3-1.3h0a1.3,1.3,0,0,0-1.3,1.3h0A1.3,1.3,0,0,0,341.42,286.17Zm-19.16,0h0a1.3,1.3,0,0,0,1.3-1.3h0a1.3,1.3,0,0,0-1.3-1.3h0a1.3,1.3,0,0,0-1.3,1.3h0A1.3,1.3,0,0,0,322.26,286.17Zm19.16-22.61h2a1.3,1.3,0,0,0,1.3-1.3v-2a1.3,1.3,0,0,0-1.3-1.3h-2a1.3,1.3,0,0,0-1.3,1.3v2A1.3,1.3,0,0,0,341.42,263.56Zm-19.16-2h0a1.3,1.3,0,0,0,1.3-1.3h0a1.3,1.3,0,0,0-1.3-1.3h0a1.3,1.3,0,0,0-1.3,1.3h0A1.3,1.3,0,0,0,322.26,261.54Zm-29.53-18h-3a2.91,2.91,0,0,0-2.91,2.91v3a2.91,2.91,0,0,0,2.91,2.91h3a2.91,2.91,0,0,0,2.91-2.91v-3A2.91,2.91,0,0,0,292.73,243.52Zm-13-11.85h0a1.3,1.3,0,0,0-1.3,1.3h0a1.3,1.3,0,0,0,1.3,1.3h0a1.3,1.3,0,0,0,1.3-1.3h0A1.3,1.3,0,0,0,279.75,231.67Zm19.16,0h0a1.3,1.3,0,0,0-1.3,1.3h0a1.3,1.3,0,0,0,1.3,1.3h0a1.3,1.3,0,0,0,1.3-1.3h0A1.3,1.3,0,0,0,298.91,231.67Zm-19.16,22.61h-2a1.3,1.3,0,0,0-1.3,1.3v2a1.3,1.3,0,0,0,1.3,1.3h2a1.3,1.3,0,0,0,1.3-1.3v-2A1.3,1.3,0,0,0,279.75,254.28Zm19.16,2h0a1.3,1.3,0,0,0-1.3,1.3h0a1.3,1.3,0,0,0,1.3,1.3h0a1.3,1.3,0,0,0,1.3-1.3h0A1.3,1.3,0,0,0,298.91,256.3ZM362,222.94h-3a2.91,2.91,0,0,0-2.91,2.91v3A2.91,2.91,0,0,0,359,231.8h3a2.91,2.91,0,0,0,2.91-2.91v-3A2.91,2.91,0,0,0,362,222.94Zm-10.38-9.25h0a1.3,1.3,0,0,0-1.3,1.3h0a1.3,1.3,0,0,0,1.3,1.3h0a1.3,1.3,0,0,0,1.3-1.3h0A1.3,1.3,0,0,0,351.61,213.69Zm19.16,0h0a1.3,1.3,0,0,0-1.3,1.3h0a1.3,1.3,0,0,0,1.3,1.3h0a1.3,1.3,0,0,0,1.3-1.3h0A1.3,1.3,0,0,0,370.77,213.69Zm-19.16,22.61h-2a1.3,1.3,0,0,0-1.3,1.3v2a1.3,1.3,0,0,0,1.3,1.3h2a1.3,1.3,0,0,0,1.3-1.3v-2A1.3,1.3,0,0,0,351.61,236.29Zm19.16,2h0a1.3,1.3,0,0,0-1.3,1.3h0a1.3,1.3,0,0,0,1.3,1.3h0a1.3,1.3,0,0,0,1.3-1.3h0A1.3,1.3,0,0,0,370.77,238.32Zm-98.58-75.46h-3a2.91,2.91,0,0,0-2.91,2.91v3a2.91,2.91,0,0,0,2.91,2.91h3a2.91,2.91,0,0,0,2.91-2.91v-3A2.91,2.91,0,0,0,272.19,162.86Zm-13-11.85h0a1.3,1.3,0,0,0-1.3,1.3h0a1.3,1.3,0,0,0,1.3,1.3h0a1.3,1.3,0,0,0,1.3-1.3h0A1.3,1.3,0,0,0,259.21,151Zm19.16,0h0a1.3,1.3,0,0,0-1.3,1.3h0a1.3,1.3,0,0,0,1.3,1.3h0a1.3,1.3,0,0,0,1.3-1.3h0A1.3,1.3,0,0,0,278.36,151Zm-19.16,22.61h-2a1.3,1.3,0,0,0-1.3,1.3v2a1.3,1.3,0,0,0,1.3,1.3h2a1.3,1.3,0,0,0,1.3-1.3v-2A1.3,1.3,0,0,0,259.21,173.61Zm19.16,2h0a1.3,1.3,0,0,0-1.3,1.3h0a1.3,1.3,0,0,0,1.3,1.3h0a1.3,1.3,0,0,0,1.3-1.3h0A1.3,1.3,0,0,0,278.36,175.63ZM233.91,148.4h0a1.3,1.3,0,0,0-1.3,1.3h0a1.3,1.3,0,0,0,1.3,1.3h0a1.3,1.3,0,0,0,1.3-1.3h0A1.3,1.3,0,0,0,233.91,148.4ZM307,201.69v3a2.91,2.91,0,0,0,2.91,2.91h3a2.91,2.91,0,0,0,2.91-2.91v-3a2.91,2.91,0,0,0-2.91-2.91h-3A2.91,2.91,0,0,0,307,201.69Zm-11.85,7.78h0a1.3,1.3,0,0,0,1.3,1.3h0a1.3,1.3,0,0,0,1.3-1.3h0a1.3,1.3,0,0,0-1.3-1.3h0A1.3,1.3,0,0,0,295.12,209.48Zm0-19.16h0a1.3,1.3,0,0,0,1.3,1.3h0a1.3,1.3,0,0,0,1.3-1.3h0a1.3,1.3,0,0,0-1.3-1.3h0A1.3,1.3,0,0,0,295.12,190.32Zm22.61,19.16v2a1.3,1.3,0,0,0,1.3,1.3h2a1.3,1.3,0,0,0,1.3-1.3v-2a1.3,1.3,0,0,0-1.3-1.3h-2A1.3,1.3,0,0,0,317.73,209.48Zm2-19.16h0a1.3,1.3,0,0,0,1.3,1.3h0a1.3,1.3,0,0,0,1.3-1.3h0a1.3,1.3,0,0,0-1.3-1.3h0A1.3,1.3,0,0,0,319.75,190.32Zm21.12-6.95v-3a2.91,2.91,0,0,0-2.91-2.91h-3a2.91,2.91,0,0,0-2.91,2.91v3a2.91,2.91,0,0,0,2.91,2.91h3A2.91,2.91,0,0,0,340.87,183.37Zm6.65-13h0a1.3,1.3,0,0,0-1.3-1.3h0a1.3,1.3,0,0,0-1.3,1.3h0a1.3,1.3,0,0,0,1.3,1.3h0A1.3,1.3,0,0,0,347.52,170.39Zm0,19.16h0a1.3,1.3,0,0,0-1.3-1.3h0a1.3,1.3,0,0,0-1.3,1.3h0a1.3,1.3,0,0,0,1.3,1.3h0A1.3,1.3,0,0,0,347.52,189.55Zm-22.61-19.16v-2a1.3,1.3,0,0,0-1.3-1.3h-2a1.3,1.3,0,0,0-1.3,1.3v2a1.3,1.3,0,0,0,1.3,1.3h2A1.3,1.3,0,0,0,324.92,170.39Zm-2,19.16h0a1.3,1.3,0,0,0-1.3-1.3h0a1.3,1.3,0,0,0-1.3,1.3h0a1.3,1.3,0,0,0,1.3,1.3h0A1.3,1.3,0,0,0,322.9,189.55Z"/><path class="cls-3" d="M119.8,302.5h-3a2.91,2.91,0,0,1-2.91-2.91v-3a2.91,2.91,0,0,1,2.91-2.91h3a2.91,2.91,0,0,1,2.91,2.91v3A2.91,2.91,0,0,1,119.8,302.5Zm-2.88-15.29h0a1.3,1.3,0,0,0-1.3-1.3h0a1.3,1.3,0,0,0-1.3,1.3h0a1.3,1.3,0,0,0,1.3,1.3h0A1.3,1.3,0,0,0,116.91,287.21Zm0,19.16h0a1.3,1.3,0,0,0-1.3-1.3h0a1.3,1.3,0,0,0-1.3,1.3h0a1.3,1.3,0,0,0,1.3,1.3h0A1.3,1.3,0,0,0,116.91,306.37Zm-10.16-19.75v-2a1.3,1.3,0,0,0-1.3-1.3h-2a1.3,1.3,0,0,0-1.3,1.3v2a1.3,1.3,0,0,0,1.3,1.3h2A1.3,1.3,0,0,0,106.75,286.61Zm77.43,22.07v-2a1.3,1.3,0,0,0-1.3-1.3h-2a1.3,1.3,0,0,0-1.3,1.3v2a1.3,1.3,0,0,0,1.3,1.3h2A1.3,1.3,0,0,0,184.18,308.68Zm-48.49-34.35v-2a1.3,1.3,0,0,0-1.3-1.3h-2a1.3,1.3,0,0,0-1.3,1.3v2a1.3,1.3,0,0,0,1.3,1.3h2A1.3,1.3,0,0,0,135.69,274.33Zm35-44.2v-2a1.3,1.3,0,0,0-1.3-1.3h-2a1.3,1.3,0,0,0-1.3,1.3v2a1.3,1.3,0,0,0,1.3,1.3h2A1.3,1.3,0,0,0,170.67,230.14Zm-65.94,75.64h0a1.3,1.3,0,0,0-1.3-1.3h0a1.3,1.3,0,0,0-1.3,1.3h0a1.3,1.3,0,0,0,1.3,1.3h0A1.3,1.3,0,0,0,104.73,305.77Zm-9.44-39.93v-3a2.91,2.91,0,0,0-2.91-2.91h-3a2.91,2.91,0,0,0-2.91,2.91v3a2.91,2.91,0,0,0,2.91,2.91h3A2.91,2.91,0,0,0,95.29,265.84Zm6.65-13h0a1.3,1.3,0,0,0-1.3-1.3h0a1.3,1.3,0,0,0-1.3,1.3h0a1.3,1.3,0,0,0,1.3,1.3h0A1.3,1.3,0,0,0,101.95,252.86Zm0,19.16h0a1.3,1.3,0,0,0-1.3-1.3h0a1.3,1.3,0,0,0-1.3,1.3h0a1.3,1.3,0,0,0,1.3,1.3h0A1.3,1.3,0,0,0,101.95,272ZM79.34,252.86v-2a1.3,1.3,0,0,0-1.3-1.3H76a1.3,1.3,0,0,0-1.3,1.3v2a1.3,1.3,0,0,0,1.3,1.3h2A1.3,1.3,0,0,0,79.34,252.86Zm-2,19.16h0a1.3,1.3,0,0,0-1.3-1.3h0a1.3,1.3,0,0,0-1.3,1.3h0a1.3,1.3,0,0,0,1.3,1.3h0A1.3,1.3,0,0,0,77.32,272Zm28.62,66.08v3a2.91,2.91,0,0,0,2.91,2.91h3a2.91,2.91,0,0,0,2.91-2.91v-3a2.91,2.91,0,0,0-2.91-2.91h-3A2.91,2.91,0,0,0,105.93,338.1Zm-43.49,6.64h0a1.3,1.3,0,0,0,1.3,1.3h0a1.3,1.3,0,0,0,1.3-1.3h0a1.3,1.3,0,0,0-1.3-1.3h0A1.3,1.3,0,0,0,62.44,344.74Zm31.64-18h0a1.3,1.3,0,0,0,1.3,1.3h0a1.3,1.3,0,0,0,1.3-1.3h0a1.3,1.3,0,0,0-1.3-1.3h0A1.3,1.3,0,0,0,94.08,326.73ZM73.41,309.49h0a1.3,1.3,0,0,0,1.3,1.3h0a1.3,1.3,0,0,0,1.3-1.3h0a1.3,1.3,0,0,0-1.3-1.3h0A1.3,1.3,0,0,0,73.41,309.49ZM85,344.74v2a1.3,1.3,0,0,0,1.3,1.3h2a1.3,1.3,0,0,0,1.3-1.3v-2a1.3,1.3,0,0,0-1.3-1.3h-2A1.3,1.3,0,0,0,85,344.74Zm60.8,15.93v2a1.3,1.3,0,0,0,1.3,1.3h2a1.3,1.3,0,0,0,1.3-1.3v-2a1.3,1.3,0,0,0-1.3-1.3h-2A1.3,1.3,0,0,0,145.85,360.67ZM87.07,325.59h0a1.3,1.3,0,0,0,1.3,1.3h0a1.3,1.3,0,0,0,1.3-1.3h0a1.3,1.3,0,0,0-1.3-1.3h0A1.3,1.3,0,0,0,87.07,325.59Zm-30-31.94h0a1.3,1.3,0,0,0,1.3,1.3h0a1.3,1.3,0,0,0,1.3-1.3h0a1.3,1.3,0,0,0-1.3-1.3h0A1.3,1.3,0,0,0,57.07,293.64Zm129.32,56.48h6.25a1.3,1.3,0,0,0,1.3-1.3v-6.25a1.3,1.3,0,0,0-1.3-1.3h-6.25a1.3,1.3,0,0,0-1.3,1.3v6.25A1.3,1.3,0,0,0,186.38,350.12Zm12,9.25h0a1.3,1.3,0,0,0,1.3-1.3h0a1.3,1.3,0,0,0-1.3-1.3h0a1.3,1.3,0,0,0-1.3,1.3h0A1.3,1.3,0,0,0,198.37,359.37Zm-19.16,0h0a1.3,1.3,0,0,0,1.3-1.3h0a1.3,1.3,0,0,0-1.3-1.3h0a1.3,1.3,0,0,0-1.3,1.3h0A1.3,1.3,0,0,0,179.22,359.37Zm19.16-22.61h2a1.3,1.3,0,0,0,1.3-1.3v-2a1.3,1.3,0,0,0-1.3-1.3h-2a1.3,1.3,0,0,0-1.3,1.3v2A1.3,1.3,0,0,0,198.37,336.76Zm-19.16-2h0a1.3,1.3,0,0,0,1.3-1.3h0a1.3,1.3,0,0,0-1.3-1.3h0a1.3,1.3,0,0,0-1.3,1.3h0A1.3,1.3,0,0,0,179.22,334.74Zm-29.53-18h-3a2.91,2.91,0,0,0-2.91,2.91v3a2.91,2.91,0,0,0,2.91,2.91h3a2.91,2.91,0,0,0,2.91-2.91v-3A2.91,2.91,0,0,0,149.68,316.72Zm-13-11.85h0a1.3,1.3,0,0,0-1.3,1.3h0a1.3,1.3,0,0,0,1.3,1.3h0a1.3,1.3,0,0,0,1.3-1.3h0A1.3,1.3,0,0,0,136.7,304.87Zm19.16,0h0a1.3,1.3,0,0,0-1.3,1.3h0a1.3,1.3,0,0,0,1.3,1.3h0a1.3,1.3,0,0,0,1.3-1.3h0A1.3,1.3,0,0,0,155.86,304.87ZM136.7,327.48h-2a1.3,1.3,0,0,0-1.3,1.3v2a1.3,1.3,0,0,0,1.3,1.3h2a1.3,1.3,0,0,0,1.3-1.3v-2A1.3,1.3,0,0,0,136.7,327.48Zm19.16,2h0a1.3,1.3,0,0,0-1.3,1.3h0a1.3,1.3,0,0,0,1.3,1.3h0a1.3,1.3,0,0,0,1.3-1.3h0A1.3,1.3,0,0,0,155.86,329.5Zm63.09-33.36h-3A2.91,2.91,0,0,0,213,299v3a2.91,2.91,0,0,0,2.91,2.91h3a2.91,2.91,0,0,0,2.91-2.91v-3A2.91,2.91,0,0,0,218.95,296.14Zm-10.38-9.25h0a1.3,1.3,0,0,0-1.3,1.3h0a1.3,1.3,0,0,0,1.3,1.3h0a1.3,1.3,0,0,0,1.3-1.3h0A1.3,1.3,0,0,0,208.57,286.89Zm19.16,0h0a1.3,1.3,0,0,0-1.3,1.3h0a1.3,1.3,0,0,0,1.3,1.3h0a1.3,1.3,0,0,0,1.3-1.3h0A1.3,1.3,0,0,0,227.72,286.89Zm-19.16,22.61h-2a1.3,1.3,0,0,0-1.3,1.3v2a1.3,1.3,0,0,0,1.3,1.3h2a1.3,1.3,0,0,0,1.3-1.3v-2A1.3,1.3,0,0,0,208.57,309.49Zm19.16,2h0a1.3,1.3,0,0,0-1.3,1.3h0a1.3,1.3,0,0,0,1.3,1.3h0a1.3,1.3,0,0,0,1.3-1.3h0A1.3,1.3,0,0,0,227.72,311.51Zm-98.58-75.46h-3a2.91,2.91,0,0,0-2.91,2.91v3a2.91,2.91,0,0,0,2.91,2.91h3a2.91,2.91,0,0,0,2.91-2.91v-3A2.91,2.91,0,0,0,129.14,236.05Zm-13-11.85h0a1.3,1.3,0,0,0-1.3,1.3h0a1.3,1.3,0,0,0,1.3,1.3h0a1.3,1.3,0,0,0,1.3-1.3h0A1.3,1.3,0,0,0,116.16,224.21Zm19.16,0h0a1.3,1.3,0,0,0-1.3,1.3h0a1.3,1.3,0,0,0,1.3,1.3h0a1.3,1.3,0,0,0,1.3-1.3h0A1.3,1.3,0,0,0,135.32,224.21Zm-19.16,22.61h-2a1.3,1.3,0,0,0-1.3,1.3v2a1.3,1.3,0,0,0,1.3,1.3h2a1.3,1.3,0,0,0,1.3-1.3v-2A1.3,1.3,0,0,0,116.16,246.81Zm19.16,2h0a1.3,1.3,0,0,0-1.3,1.3h0a1.3,1.3,0,0,0,1.3,1.3h0a1.3,1.3,0,0,0,1.3-1.3h0A1.3,1.3,0,0,0,135.32,248.83ZM90.86,221.6h0a1.3,1.3,0,0,0-1.3,1.3h0a1.3,1.3,0,0,0,1.3,1.3h0a1.3,1.3,0,0,0,1.3-1.3h0A1.3,1.3,0,0,0,90.86,221.6Zm73.07,53.29v3a2.91,2.91,0,0,0,2.91,2.91h3a2.91,2.91,0,0,0,2.91-2.91v-3a2.91,2.91,0,0,0-2.91-2.91h-3A2.91,2.91,0,0,0,163.93,274.89Zm-11.85,7.78h0a1.3,1.3,0,0,0,1.3,1.3h0a1.3,1.3,0,0,0,1.3-1.3h0a1.3,1.3,0,0,0-1.3-1.3h0A1.3,1.3,0,0,0,152.08,282.68Zm0-19.16h0a1.3,1.3,0,0,0,1.3,1.3h0a1.3,1.3,0,0,0,1.3-1.3h0a1.3,1.3,0,0,0-1.3-1.3h0A1.3,1.3,0,0,0,152.08,263.52Zm22.61,19.16v2A1.3,1.3,0,0,0,176,286h2a1.3,1.3,0,0,0,1.3-1.3v-2a1.3,1.3,0,0,0-1.3-1.3h-2A1.3,1.3,0,0,0,174.68,282.68Zm2-19.16h0a1.3,1.3,0,0,0,1.3,1.3h0a1.3,1.3,0,0,0,1.3-1.3h0a1.3,1.3,0,0,0-1.3-1.3h0A1.3,1.3,0,0,0,176.71,263.52Zm21.12-6.95v-3a2.91,2.91,0,0,0-2.91-2.91h-3a2.91,2.91,0,0,0-2.91,2.91v3a2.91,2.91,0,0,0,2.91,2.91h3A2.91,2.91,0,0,0,197.82,256.57Zm6.65-13h0a1.3,1.3,0,0,0-1.3-1.3h0a1.3,1.3,0,0,0-1.3,1.3h0a1.3,1.3,0,0,0,1.3,1.3h0A1.3,1.3,0,0,0,204.48,243.59Zm0,19.16h0a1.3,1.3,0,0,0-1.3-1.3h0a1.3,1.3,0,0,0-1.3,1.3h0a1.3,1.3,0,0,0,1.3,1.3h0A1.3,1.3,0,0,0,204.48,262.75Zm-22.61-19.16v-2a1.3,1.3,0,0,0-1.3-1.3h-2a1.3,1.3,0,0,0-1.3,1.3v2a1.3,1.3,0,0,0,1.3,1.3h2A1.3,1.3,0,0,0,181.87,243.59Zm-2,19.16h0a1.3,1.3,0,0,0-1.3-1.3h0a1.3,1.3,0,0,0-1.3,1.3h0a1.3,1.3,0,0,0,1.3,1.3h0A1.3,1.3,0,0,0,179.85,262.75Z"/><path class="cls-4" d="M-23.25,229.3h-3a2.91,2.91,0,0,1-2.91-2.91v-3a2.91,2.91,0,0,1,2.91-2.91h3a2.91,2.91,0,0,1,2.91,2.91v3A2.91,2.91,0,0,1-23.25,229.3ZM-26.13,214h0a1.3,1.3,0,0,0-1.3-1.3h0a1.3,1.3,0,0,0-1.3,1.3h0a1.3,1.3,0,0,0,1.3,1.3h0A1.3,1.3,0,0,0-26.13,214Zm0,19.16h0a1.3,1.3,0,0,0-1.3-1.3h0a1.3,1.3,0,0,0-1.3,1.3h0a1.3,1.3,0,0,0,1.3,1.3h0A1.3,1.3,0,0,0-26.13,233.17Zm-10.16-19.75v-2a1.3,1.3,0,0,0-1.3-1.3h-2a1.3,1.3,0,0,0-1.3,1.3v2a1.3,1.3,0,0,0,1.3,1.3h2A1.3,1.3,0,0,0-36.29,213.42Zm77.43,22.07v-2a1.3,1.3,0,0,0-1.3-1.3h-2a1.3,1.3,0,0,0-1.3,1.3v2a1.3,1.3,0,0,0,1.3,1.3h2A1.3,1.3,0,0,0,41.14,235.48ZM-7.35,201.13v-2a1.3,1.3,0,0,0-1.3-1.3h-2a1.3,1.3,0,0,0-1.3,1.3v2a1.3,1.3,0,0,0,1.3,1.3h2A1.3,1.3,0,0,0-7.35,201.13Zm35-44.2v-2a1.3,1.3,0,0,0-1.3-1.3h-2a1.3,1.3,0,0,0-1.3,1.3v2a1.3,1.3,0,0,0,1.3,1.3h2A1.3,1.3,0,0,0,27.62,156.94Zm-65.94,75.64h0a1.3,1.3,0,0,0-1.3-1.3h0a1.3,1.3,0,0,0-1.3,1.3h0a1.3,1.3,0,0,0,1.3,1.3h0A1.3,1.3,0,0,0-38.31,232.57Zm-9.44-39.93v-3a2.91,2.91,0,0,0-2.91-2.91h-3a2.91,2.91,0,0,0-2.91,2.91v3a2.91,2.91,0,0,0,2.91,2.91h3A2.91,2.91,0,0,0-47.76,192.64Zm6.65-13h0a1.3,1.3,0,0,0-1.3-1.3h0a1.3,1.3,0,0,0-1.3,1.3h0a1.3,1.3,0,0,0,1.3,1.3h0A1.3,1.3,0,0,0-41.1,179.66Zm0,19.16h0a1.3,1.3,0,0,0-1.3-1.3h0a1.3,1.3,0,0,0-1.3,1.3h0a1.3,1.3,0,0,0,1.3,1.3h0A1.3,1.3,0,0,0-41.1,198.82Zm-22.61-19.16v-2a1.3,1.3,0,0,0-1.3-1.3h-2a1.3,1.3,0,0,0-1.3,1.3v2A1.3,1.3,0,0,0-67,181h2A1.3,1.3,0,0,0-63.71,179.66Zm-2,19.16h0a1.3,1.3,0,0,0-1.3-1.3h0a1.3,1.3,0,0,0-1.3,1.3h0a1.3,1.3,0,0,0,1.3,1.3h0A1.3,1.3,0,0,0-65.73,198.82Zm28.62,66.08v3a2.91,2.91,0,0,0,2.91,2.91h3a2.91,2.91,0,0,0,2.91-2.91v-3A2.91,2.91,0,0,0-31.16,262h-3A2.91,2.91,0,0,0-37.11,264.9Zm-43.49,6.64h0a1.3,1.3,0,0,0,1.3,1.3h0a1.3,1.3,0,0,0,1.3-1.3h0a1.3,1.3,0,0,0-1.3-1.3h0A1.3,1.3,0,0,0-80.61,271.54Zm31.64-18h0a1.3,1.3,0,0,0,1.3,1.3h0a1.3,1.3,0,0,0,1.3-1.3h0a1.3,1.3,0,0,0-1.3-1.3h0A1.3,1.3,0,0,0-49,253.53Zm-20.68-17.24h0a1.3,1.3,0,0,0,1.3,1.3h0a1.3,1.3,0,0,0,1.3-1.3h0a1.3,1.3,0,0,0-1.3-1.3h0A1.3,1.3,0,0,0-69.64,236.29ZM-58,271.54v2a1.3,1.3,0,0,0,1.3,1.3h2a1.3,1.3,0,0,0,1.3-1.3v-2a1.3,1.3,0,0,0-1.3-1.3h-2A1.3,1.3,0,0,0-58,271.54ZM2.8,287.47v2a1.3,1.3,0,0,0,1.3,1.3h2a1.3,1.3,0,0,0,1.3-1.3v-2a1.3,1.3,0,0,0-1.3-1.3h-2A1.3,1.3,0,0,0,2.8,287.47ZM-56,252.39h0a1.3,1.3,0,0,0,1.3,1.3h0a1.3,1.3,0,0,0,1.3-1.3h0a1.3,1.3,0,0,0-1.3-1.3h0A1.3,1.3,0,0,0-56,252.39Zm-30-31.94h0a1.3,1.3,0,0,0,1.3,1.3h0a1.3,1.3,0,0,0,1.3-1.3h0a1.3,1.3,0,0,0-1.3-1.3h0A1.3,1.3,0,0,0-86,220.44ZM43.34,276.92h6.25a1.3,1.3,0,0,0,1.3-1.3v-6.25a1.3,1.3,0,0,0-1.3-1.3H43.34a1.3,1.3,0,0,0-1.3,1.3v6.25A1.3,1.3,0,0,0,43.34,276.92Zm12,9.25h0a1.3,1.3,0,0,0,1.3-1.3h0a1.3,1.3,0,0,0-1.3-1.3h0a1.3,1.3,0,0,0-1.3,1.3h0A1.3,1.3,0,0,0,55.32,286.17Zm-19.16,0h0a1.3,1.3,0,0,0,1.3-1.3h0a1.3,1.3,0,0,0-1.3-1.3h0a1.3,1.3,0,0,0-1.3,1.3h0A1.3,1.3,0,0,0,36.17,286.17Zm19.16-22.61h2a1.3,1.3,0,0,0,1.3-1.3v-2a1.3,1.3,0,0,0-1.3-1.3h-2a1.3,1.3,0,0,0-1.3,1.3v2A1.3,1.3,0,0,0,55.32,263.56Zm-19.16-2h0a1.3,1.3,0,0,0,1.3-1.3h0a1.3,1.3,0,0,0-1.3-1.3h0a1.3,1.3,0,0,0-1.3,1.3h0A1.3,1.3,0,0,0,36.17,261.54Zm-29.53-18h-3a2.91,2.91,0,0,0-2.91,2.91v3a2.91,2.91,0,0,0,2.91,2.91h3a2.91,2.91,0,0,0,2.91-2.91v-3A2.91,2.91,0,0,0,6.64,243.52Zm-13-11.85h0a1.3,1.3,0,0,0-1.3,1.3h0a1.3,1.3,0,0,0,1.3,1.3h0A1.3,1.3,0,0,0-5,233h0A1.3,1.3,0,0,0-6.34,231.67Zm19.16,0h0a1.3,1.3,0,0,0-1.3,1.3h0a1.3,1.3,0,0,0,1.3,1.3h0a1.3,1.3,0,0,0,1.3-1.3h0A1.3,1.3,0,0,0,12.81,231.67ZM-6.34,254.28h-2a1.3,1.3,0,0,0-1.3,1.3v2a1.3,1.3,0,0,0,1.3,1.3h2a1.3,1.3,0,0,0,1.3-1.3v-2A1.3,1.3,0,0,0-6.34,254.28Zm19.16,2h0a1.3,1.3,0,0,0-1.3,1.3h0a1.3,1.3,0,0,0,1.3,1.3h0a1.3,1.3,0,0,0,1.3-1.3h0A1.3,1.3,0,0,0,12.81,256.3ZM75.9,222.94h-3A2.91,2.91,0,0,0,70,225.85v3a2.91,2.91,0,0,0,2.91,2.91h3a2.91,2.91,0,0,0,2.91-2.91v-3A2.91,2.91,0,0,0,75.9,222.94Zm-10.38-9.25h0a1.3,1.3,0,0,0-1.3,1.3h0a1.3,1.3,0,0,0,1.3,1.3h0a1.3,1.3,0,0,0,1.3-1.3h0A1.3,1.3,0,0,0,65.52,213.69Zm19.16,0h0a1.3,1.3,0,0,0-1.3,1.3h0a1.3,1.3,0,0,0,1.3,1.3h0A1.3,1.3,0,0,0,86,215h0A1.3,1.3,0,0,0,84.68,213.69ZM65.52,236.29h-2a1.3,1.3,0,0,0-1.3,1.3v2a1.3,1.3,0,0,0,1.3,1.3h2a1.3,1.3,0,0,0,1.3-1.3v-2A1.3,1.3,0,0,0,65.52,236.29Zm19.16,2h0a1.3,1.3,0,0,0-1.3,1.3h0a1.3,1.3,0,0,0,1.3,1.3h0a1.3,1.3,0,0,0,1.3-1.3h0A1.3,1.3,0,0,0,84.68,238.32Zm-98.58-75.46h-3a2.91,2.91,0,0,0-2.91,2.91v3a2.91,2.91,0,0,0,2.91,2.91h3A2.91,2.91,0,0,0-11,168.81v-3A2.91,2.91,0,0,0-13.91,162.86Zm-13-11.85h0a1.3,1.3,0,0,0-1.3,1.3h0a1.3,1.3,0,0,0,1.3,1.3h0a1.3,1.3,0,0,0,1.3-1.3h0A1.3,1.3,0,0,0-26.88,151Zm19.16,0h0a1.3,1.3,0,0,0-1.3,1.3h0a1.3,1.3,0,0,0,1.3,1.3h0a1.3,1.3,0,0,0,1.3-1.3h0A1.3,1.3,0,0,0-7.73,151Zm-19.16,22.61h-2a1.3,1.3,0,0,0-1.3,1.3v2a1.3,1.3,0,0,0,1.3,1.3h2a1.3,1.3,0,0,0,1.3-1.3v-2A1.3,1.3,0,0,0-26.88,173.61Zm19.16,2h0a1.3,1.3,0,0,0-1.3,1.3h0a1.3,1.3,0,0,0,1.3,1.3h0a1.3,1.3,0,0,0,1.3-1.3h0A1.3,1.3,0,0,0-7.73,175.63ZM-52.19,148.4h0a1.3,1.3,0,0,0-1.3,1.3h0a1.3,1.3,0,0,0,1.3,1.3h0a1.3,1.3,0,0,0,1.3-1.3h0A1.3,1.3,0,0,0-52.19,148.4Zm73.07,53.29v3a2.91,2.91,0,0,0,2.91,2.91h3a2.91,2.91,0,0,0,2.91-2.91v-3a2.91,2.91,0,0,0-2.91-2.91h-3A2.91,2.91,0,0,0,20.88,201.69ZM9,209.48H9a1.3,1.3,0,0,0,1.3,1.3h0a1.3,1.3,0,0,0,1.3-1.3h0a1.3,1.3,0,0,0-1.3-1.3h0A1.3,1.3,0,0,0,9,209.48Zm0-19.16H9a1.3,1.3,0,0,0,1.3,1.3h0a1.3,1.3,0,0,0,1.3-1.3h0a1.3,1.3,0,0,0-1.3-1.3h0A1.3,1.3,0,0,0,9,190.32Zm22.61,19.16v2a1.3,1.3,0,0,0,1.3,1.3h2a1.3,1.3,0,0,0,1.3-1.3v-2a1.3,1.3,0,0,0-1.3-1.3h-2A1.3,1.3,0,0,0,31.64,209.48Zm2-19.16h0a1.3,1.3,0,0,0,1.3,1.3h0a1.3,1.3,0,0,0,1.3-1.3h0A1.3,1.3,0,0,0,35,189h0A1.3,1.3,0,0,0,33.66,190.32Zm21.12-6.95v-3a2.91,2.91,0,0,0-2.91-2.91h-3a2.91,2.91,0,0,0-2.91,2.91v3a2.91,2.91,0,0,0,2.91,2.91h3A2.91,2.91,0,0,0,54.78,183.37Zm6.65-13h0a1.3,1.3,0,0,0-1.3-1.3h0a1.3,1.3,0,0,0-1.3,1.3h0a1.3,1.3,0,0,0,1.3,1.3h0A1.3,1.3,0,0,0,61.43,170.39Zm0,19.16h0a1.3,1.3,0,0,0-1.3-1.3h0a1.3,1.3,0,0,0-1.3,1.3h0a1.3,1.3,0,0,0,1.3,1.3h0A1.3,1.3,0,0,0,61.43,189.55ZM38.82,170.39v-2a1.3,1.3,0,0,0-1.3-1.3h-2a1.3,1.3,0,0,0-1.3,1.3v2a1.3,1.3,0,0,0,1.3,1.3h2A1.3,1.3,0,0,0,38.82,170.39Zm-2,19.16h0a1.3,1.3,0,0,0-1.3-1.3h0a1.3,1.3,0,0,0-1.3,1.3h0a1.3,1.3,0,0,0,1.3,1.3h0A1.3,1.3,0,0,0,36.8,189.55Z"/><path class="cls-5" d="M262.84,82.91h-3A2.91,2.91,0,0,1,256.89,80V77A2.91,2.91,0,0,1,259.8,74h3A2.91,2.91,0,0,1,265.75,77v3A2.91,2.91,0,0,1,262.84,82.91ZM260,67.61h0a1.3,1.3,0,0,0-1.3-1.3h0a1.3,1.3,0,0,0-1.3,1.3h0a1.3,1.3,0,0,0,1.3,1.3h0A1.3,1.3,0,0,0,260,67.61Zm0,19.16h0a1.3,1.3,0,0,0-1.3-1.3h0a1.3,1.3,0,0,0-1.3,1.3h0a1.3,1.3,0,0,0,1.3,1.3h0A1.3,1.3,0,0,0,260,86.77ZM249.8,67V65a1.3,1.3,0,0,0-1.3-1.3h-2a1.3,1.3,0,0,0-1.3,1.3v2a1.3,1.3,0,0,0,1.3,1.3h2A1.3,1.3,0,0,0,249.8,67Zm77.43,22.07v-2a1.3,1.3,0,0,0-1.3-1.3h-2a1.3,1.3,0,0,0-1.3,1.3v2a1.3,1.3,0,0,0,1.3,1.3h2A1.3,1.3,0,0,0,327.23,89.08ZM278.74,54.74v-2a1.3,1.3,0,0,0-1.3-1.3h-2a1.3,1.3,0,0,0-1.3,1.3v2a1.3,1.3,0,0,0,1.3,1.3h2A1.3,1.3,0,0,0,278.74,54.74Zm35-44.2v-2a1.3,1.3,0,0,0-1.3-1.3h-2a1.3,1.3,0,0,0-1.3,1.3v2a1.3,1.3,0,0,0,1.3,1.3h2A1.3,1.3,0,0,0,313.72,10.54ZM247.78,86.17h0a1.3,1.3,0,0,0-1.3-1.3h0a1.3,1.3,0,0,0-1.3,1.3h0a1.3,1.3,0,0,0,1.3,1.3h0A1.3,1.3,0,0,0,247.78,86.17Zm-9.44-39.93v-3a2.91,2.91,0,0,0-2.91-2.91h-3a2.91,2.91,0,0,0-2.91,2.91v3a2.91,2.91,0,0,0,2.91,2.91h3A2.91,2.91,0,0,0,238.34,46.24Zm6.65-13h0a1.3,1.3,0,0,0-1.3-1.3h0a1.3,1.3,0,0,0-1.3,1.3h0a1.3,1.3,0,0,0,1.3,1.3h0A1.3,1.3,0,0,0,245,33.27Zm0,19.16h0a1.3,1.3,0,0,0-1.3-1.3h0a1.3,1.3,0,0,0-1.3,1.3h0a1.3,1.3,0,0,0,1.3,1.3h0A1.3,1.3,0,0,0,245,52.42ZM222.38,33.27v-2a1.3,1.3,0,0,0-1.3-1.3h-2a1.3,1.3,0,0,0-1.3,1.3v2a1.3,1.3,0,0,0,1.3,1.3h2A1.3,1.3,0,0,0,222.38,33.27Zm-2,19.16h0a1.3,1.3,0,0,0-1.3-1.3h0a1.3,1.3,0,0,0-1.3,1.3h0a1.3,1.3,0,0,0,1.3,1.3h0A1.3,1.3,0,0,0,220.36,52.42ZM249,118.51v3a2.91,2.91,0,0,0,2.91,2.91h3a2.91,2.91,0,0,0,2.91-2.91v-3a2.91,2.91,0,0,0-2.91-2.91h-3A2.91,2.91,0,0,0,249,118.51Zm-43.49,6.64h0a1.3,1.3,0,0,0,1.3,1.3h0a1.3,1.3,0,0,0,1.3-1.3h0a1.3,1.3,0,0,0-1.3-1.3h0A1.3,1.3,0,0,0,205.49,125.14Zm31.64-18h0a1.3,1.3,0,0,0,1.3,1.3h0a1.3,1.3,0,0,0,1.3-1.3h0a1.3,1.3,0,0,0-1.3-1.3h0A1.3,1.3,0,0,0,237.13,107.13ZM216.45,89.89h0a1.3,1.3,0,0,0,1.3,1.3h0a1.3,1.3,0,0,0,1.3-1.3h0a1.3,1.3,0,0,0-1.3-1.3h0A1.3,1.3,0,0,0,216.45,89.89Zm11.64,35.25v2a1.3,1.3,0,0,0,1.3,1.3h2a1.3,1.3,0,0,0,1.3-1.3v-2a1.3,1.3,0,0,0-1.3-1.3h-2A1.3,1.3,0,0,0,228.1,125.14Zm60.8,15.93v2a1.3,1.3,0,0,0,1.3,1.3h2a1.3,1.3,0,0,0,1.3-1.3v-2a1.3,1.3,0,0,0-1.3-1.3h-2A1.3,1.3,0,0,0,288.9,141.08ZM230.12,106h0a1.3,1.3,0,0,0,1.3,1.3h0a1.3,1.3,0,0,0,1.3-1.3h0a1.3,1.3,0,0,0-1.3-1.3h0A1.3,1.3,0,0,0,230.12,106ZM200.11,74h0a1.3,1.3,0,0,0,1.3,1.3h0a1.3,1.3,0,0,0,1.3-1.3h0a1.3,1.3,0,0,0-1.3-1.3h0A1.3,1.3,0,0,0,200.11,74Zm129.32,56.48h6.25a1.3,1.3,0,0,0,1.3-1.3V123a1.3,1.3,0,0,0-1.3-1.3h-6.25a1.3,1.3,0,0,0-1.3,1.3v6.25A1.3,1.3,0,0,0,329.43,130.52Zm12,9.25h0a1.3,1.3,0,0,0,1.3-1.3h0a1.3,1.3,0,0,0-1.3-1.3h0a1.3,1.3,0,0,0-1.3,1.3h0A1.3,1.3,0,0,0,341.42,139.77Zm-19.16,0h0a1.3,1.3,0,0,0,1.3-1.3h0a1.3,1.3,0,0,0-1.3-1.3h0a1.3,1.3,0,0,0-1.3,1.3h0A1.3,1.3,0,0,0,322.26,139.77Zm19.16-22.61h2a1.3,1.3,0,0,0,1.3-1.3v-2a1.3,1.3,0,0,0-1.3-1.3h-2a1.3,1.3,0,0,0-1.3,1.3v2A1.3,1.3,0,0,0,341.42,117.16Zm-19.16-2h0a1.3,1.3,0,0,0,1.3-1.3h0a1.3,1.3,0,0,0-1.3-1.3h0a1.3,1.3,0,0,0-1.3,1.3h0A1.3,1.3,0,0,0,322.26,115.14Zm-29.53-18h-3a2.91,2.91,0,0,0-2.91,2.91v3a2.91,2.91,0,0,0,2.91,2.91h3a2.91,2.91,0,0,0,2.91-2.91v-3A2.91,2.91,0,0,0,292.73,97.12Zm-13-11.85h0a1.3,1.3,0,0,0-1.3,1.3h0a1.3,1.3,0,0,0,1.3,1.3h0a1.3,1.3,0,0,0,1.3-1.3h0A1.3,1.3,0,0,0,279.75,85.27Zm19.16,0h0a1.3,1.3,0,0,0-1.3,1.3h0a1.3,1.3,0,0,0,1.3,1.3h0a1.3,1.3,0,0,0,1.3-1.3h0A1.3,1.3,0,0,0,298.91,85.27Zm-19.16,22.61h-2a1.3,1.3,0,0,0-1.3,1.3v2a1.3,1.3,0,0,0,1.3,1.3h2a1.3,1.3,0,0,0,1.3-1.3v-2A1.3,1.3,0,0,0,279.75,107.88Zm19.16,2h0a1.3,1.3,0,0,0-1.3,1.3h0a1.3,1.3,0,0,0,1.3,1.3h0a1.3,1.3,0,0,0,1.3-1.3h0A1.3,1.3,0,0,0,298.91,109.9ZM362,76.54h-3A2.91,2.91,0,0,0,356,79.45v3A2.91,2.91,0,0,0,359,85.4h3a2.91,2.91,0,0,0,2.91-2.91v-3A2.91,2.91,0,0,0,362,76.54Zm-10.38-9.25h0a1.3,1.3,0,0,0-1.3,1.3h0a1.3,1.3,0,0,0,1.3,1.3h0a1.3,1.3,0,0,0,1.3-1.3h0A1.3,1.3,0,0,0,351.61,67.29Zm19.16,0h0a1.3,1.3,0,0,0-1.3,1.3h0a1.3,1.3,0,0,0,1.3,1.3h0a1.3,1.3,0,0,0,1.3-1.3h0A1.3,1.3,0,0,0,370.77,67.29ZM351.61,89.89h-2a1.3,1.3,0,0,0-1.3,1.3v2a1.3,1.3,0,0,0,1.3,1.3h2a1.3,1.3,0,0,0,1.3-1.3v-2A1.3,1.3,0,0,0,351.61,89.89Zm19.16,2h0a1.3,1.3,0,0,0-1.3,1.3h0a1.3,1.3,0,0,0,1.3,1.3h0a1.3,1.3,0,0,0,1.3-1.3h0A1.3,1.3,0,0,0,370.77,91.92ZM272.19,16.46h-3a2.91,2.91,0,0,0-2.91,2.91v3a2.91,2.91,0,0,0,2.91,2.91h3a2.91,2.91,0,0,0,2.91-2.91v-3A2.91,2.91,0,0,0,272.19,16.46Zm-13-11.85h0a1.3,1.3,0,0,0-1.3,1.3h0a1.3,1.3,0,0,0,1.3,1.3h0a1.3,1.3,0,0,0,1.3-1.3h0A1.3,1.3,0,0,0,259.21,4.61Zm19.16,0h0a1.3,1.3,0,0,0-1.3,1.3h0a1.3,1.3,0,0,0,1.3,1.3h0a1.3,1.3,0,0,0,1.3-1.3h0A1.3,1.3,0,0,0,278.36,4.61ZM259.21,27.21h-2a1.3,1.3,0,0,0-1.3,1.3v2a1.3,1.3,0,0,0,1.3,1.3h2a1.3,1.3,0,0,0,1.3-1.3v-2A1.3,1.3,0,0,0,259.21,27.21Zm19.16,2h0a1.3,1.3,0,0,0-1.3,1.3h0a1.3,1.3,0,0,0,1.3,1.3h0a1.3,1.3,0,0,0,1.3-1.3h0A1.3,1.3,0,0,0,278.36,29.24ZM233.91,2h0a1.3,1.3,0,0,0-1.3,1.3h0a1.3,1.3,0,0,0,1.3,1.3h0a1.3,1.3,0,0,0,1.3-1.3h0A1.3,1.3,0,0,0,233.91,2ZM307,55.29v3a2.91,2.91,0,0,0,2.91,2.91h3a2.91,2.91,0,0,0,2.91-2.91v-3a2.91,2.91,0,0,0-2.91-2.91h-3A2.91,2.91,0,0,0,307,55.29Zm-11.85,7.78h0a1.3,1.3,0,0,0,1.3,1.3h0a1.3,1.3,0,0,0,1.3-1.3h0a1.3,1.3,0,0,0-1.3-1.3h0A1.3,1.3,0,0,0,295.12,63.08Zm0-19.16h0a1.3,1.3,0,0,0,1.3,1.3h0a1.3,1.3,0,0,0,1.3-1.3h0a1.3,1.3,0,0,0-1.3-1.3h0A1.3,1.3,0,0,0,295.12,43.92Zm22.61,19.16v2a1.3,1.3,0,0,0,1.3,1.3h2a1.3,1.3,0,0,0,1.3-1.3v-2a1.3,1.3,0,0,0-1.3-1.3h-2A1.3,1.3,0,0,0,317.73,63.08Zm2-19.16h0a1.3,1.3,0,0,0,1.3,1.3h0a1.3,1.3,0,0,0,1.3-1.3h0a1.3,1.3,0,0,0-1.3-1.3h0A1.3,1.3,0,0,0,319.75,43.92ZM340.87,37v-3A2.91,2.91,0,0,0,338,31h-3A2.91,2.91,0,0,0,332,33.93v3a2.91,2.91,0,0,0,2.91,2.91h3A2.91,2.91,0,0,0,340.87,37Zm6.65-13h0a1.3,1.3,0,0,0-1.3-1.3h0a1.3,1.3,0,0,0-1.3,1.3h0a1.3,1.3,0,0,0,1.3,1.3h0A1.3,1.3,0,0,0,347.52,24Zm0,19.16h0a1.3,1.3,0,0,0-1.3-1.3h0a1.3,1.3,0,0,0-1.3,1.3h0a1.3,1.3,0,0,0,1.3,1.3h0A1.3,1.3,0,0,0,347.52,43.15ZM324.92,24V22a1.3,1.3,0,0,0-1.3-1.3h-2a1.3,1.3,0,0,0-1.3,1.3v2a1.3,1.3,0,0,0,1.3,1.3h2A1.3,1.3,0,0,0,324.92,24Zm-2,19.16h0a1.3,1.3,0,0,0-1.3-1.3h0a1.3,1.3,0,0,0-1.3,1.3h0a1.3,1.3,0,0,0,1.3,1.3h0A1.3,1.3,0,0,0,322.9,43.15Z"/><path class="cls-6" d="M119.8,156.1h-3a2.91,2.91,0,0,1-2.91-2.91v-3a2.91,2.91,0,0,1,2.91-2.91h3a2.91,2.91,0,0,1,2.91,2.91v3A2.91,2.91,0,0,1,119.8,156.1Zm-2.88-15.29h0a1.3,1.3,0,0,0-1.3-1.3h0a1.3,1.3,0,0,0-1.3,1.3h0a1.3,1.3,0,0,0,1.3,1.3h0A1.3,1.3,0,0,0,116.91,140.81Zm0,19.16h0a1.3,1.3,0,0,0-1.3-1.3h0a1.3,1.3,0,0,0-1.3,1.3h0a1.3,1.3,0,0,0,1.3,1.3h0A1.3,1.3,0,0,0,116.91,160Zm-10.16-19.75v-2a1.3,1.3,0,0,0-1.3-1.3h-2a1.3,1.3,0,0,0-1.3,1.3v2a1.3,1.3,0,0,0,1.3,1.3h2A1.3,1.3,0,0,0,106.75,140.22Zm77.43,22.07v-2a1.3,1.3,0,0,0-1.3-1.3h-2a1.3,1.3,0,0,0-1.3,1.3v2a1.3,1.3,0,0,0,1.3,1.3h2A1.3,1.3,0,0,0,184.18,162.28Zm-48.49-34.35v-2a1.3,1.3,0,0,0-1.3-1.3h-2a1.3,1.3,0,0,0-1.3,1.3v2a1.3,1.3,0,0,0,1.3,1.3h2A1.3,1.3,0,0,0,135.69,127.93Zm35-44.2v-2a1.3,1.3,0,0,0-1.3-1.3h-2a1.3,1.3,0,0,0-1.3,1.3v2a1.3,1.3,0,0,0,1.3,1.3h2A1.3,1.3,0,0,0,170.67,83.74Zm-65.94,75.64h0a1.3,1.3,0,0,0-1.3-1.3h0a1.3,1.3,0,0,0-1.3,1.3h0a1.3,1.3,0,0,0,1.3,1.3h0A1.3,1.3,0,0,0,104.73,159.37Zm-9.44-39.93v-3a2.91,2.91,0,0,0-2.91-2.91h-3a2.91,2.91,0,0,0-2.91,2.91v3a2.91,2.91,0,0,0,2.91,2.91h3A2.91,2.91,0,0,0,95.29,119.44Zm6.65-13h0a1.3,1.3,0,0,0-1.3-1.3h0a1.3,1.3,0,0,0-1.3,1.3h0a1.3,1.3,0,0,0,1.3,1.3h0A1.3,1.3,0,0,0,101.95,106.47Zm0,19.16h0a1.3,1.3,0,0,0-1.3-1.3h0a1.3,1.3,0,0,0-1.3,1.3h0a1.3,1.3,0,0,0,1.3,1.3h0A1.3,1.3,0,0,0,101.95,125.62ZM79.34,106.47v-2a1.3,1.3,0,0,0-1.3-1.3H76a1.3,1.3,0,0,0-1.3,1.3v2a1.3,1.3,0,0,0,1.3,1.3h2A1.3,1.3,0,0,0,79.34,106.47Zm-2,19.16h0a1.3,1.3,0,0,0-1.3-1.3h0a1.3,1.3,0,0,0-1.3,1.3h0a1.3,1.3,0,0,0,1.3,1.3h0A1.3,1.3,0,0,0,77.32,125.62Zm28.62,66.08v3a2.91,2.91,0,0,0,2.91,2.91h3a2.91,2.91,0,0,0,2.91-2.91v-3a2.91,2.91,0,0,0-2.91-2.91h-3A2.91,2.91,0,0,0,105.93,191.7Zm-43.49,6.64h0a1.3,1.3,0,0,0,1.3,1.3h0a1.3,1.3,0,0,0,1.3-1.3h0a1.3,1.3,0,0,0-1.3-1.3h0A1.3,1.3,0,0,0,62.44,198.34Zm31.64-18h0a1.3,1.3,0,0,0,1.3,1.3h0a1.3,1.3,0,0,0,1.3-1.3h0a1.3,1.3,0,0,0-1.3-1.3h0A1.3,1.3,0,0,0,94.08,180.33ZM73.41,163.09h0a1.3,1.3,0,0,0,1.3,1.3h0a1.3,1.3,0,0,0,1.3-1.3h0a1.3,1.3,0,0,0-1.3-1.3h0A1.3,1.3,0,0,0,73.41,163.09ZM85,198.34v2a1.3,1.3,0,0,0,1.3,1.3h2a1.3,1.3,0,0,0,1.3-1.3v-2a1.3,1.3,0,0,0-1.3-1.3h-2A1.3,1.3,0,0,0,85,198.34Zm60.8,15.93v2a1.3,1.3,0,0,0,1.3,1.3h2a1.3,1.3,0,0,0,1.3-1.3v-2a1.3,1.3,0,0,0-1.3-1.3h-2A1.3,1.3,0,0,0,145.85,214.28ZM87.07,179.19h0a1.3,1.3,0,0,0,1.3,1.3h0a1.3,1.3,0,0,0,1.3-1.3h0a1.3,1.3,0,0,0-1.3-1.3h0A1.3,1.3,0,0,0,87.07,179.19Zm-30-31.94h0a1.3,1.3,0,0,0,1.3,1.3h0a1.3,1.3,0,0,0,1.3-1.3h0a1.3,1.3,0,0,0-1.3-1.3h0A1.3,1.3,0,0,0,57.07,147.24Zm129.32,56.48h6.25a1.3,1.3,0,0,0,1.3-1.3v-6.25a1.3,1.3,0,0,0-1.3-1.3h-6.25a1.3,1.3,0,0,0-1.3,1.3v6.25A1.3,1.3,0,0,0,186.38,203.72Zm12,9.25h0a1.3,1.3,0,0,0,1.3-1.3h0a1.3,1.3,0,0,0-1.3-1.3h0a1.3,1.3,0,0,0-1.3,1.3h0A1.3,1.3,0,0,0,198.37,213Zm-19.16,0h0a1.3,1.3,0,0,0,1.3-1.3h0a1.3,1.3,0,0,0-1.3-1.3h0a1.3,1.3,0,0,0-1.3,1.3h0A1.3,1.3,0,0,0,179.22,213Zm19.16-22.61h2a1.3,1.3,0,0,0,1.3-1.3v-2a1.3,1.3,0,0,0-1.3-1.3h-2a1.3,1.3,0,0,0-1.3,1.3v2A1.3,1.3,0,0,0,198.37,190.36Zm-19.16-2h0a1.3,1.3,0,0,0,1.3-1.3h0a1.3,1.3,0,0,0-1.3-1.3h0a1.3,1.3,0,0,0-1.3,1.3h0A1.3,1.3,0,0,0,179.22,188.34Zm-29.53-18h-3a2.91,2.91,0,0,0-2.91,2.91v3a2.91,2.91,0,0,0,2.91,2.91h3a2.91,2.91,0,0,0,2.91-2.91v-3A2.91,2.91,0,0,0,149.68,170.32Zm-13-11.85h0a1.3,1.3,0,0,0-1.3,1.3h0a1.3,1.3,0,0,0,1.3,1.3h0a1.3,1.3,0,0,0,1.3-1.3h0A1.3,1.3,0,0,0,136.7,158.47Zm19.16,0h0a1.3,1.3,0,0,0-1.3,1.3h0a1.3,1.3,0,0,0,1.3,1.3h0a1.3,1.3,0,0,0,1.3-1.3h0A1.3,1.3,0,0,0,155.86,158.47ZM136.7,181.08h-2a1.3,1.3,0,0,0-1.3,1.3v2a1.3,1.3,0,0,0,1.3,1.3h2a1.3,1.3,0,0,0,1.3-1.3v-2A1.3,1.3,0,0,0,136.7,181.08Zm19.16,2h0a1.3,1.3,0,0,0-1.3,1.3h0a1.3,1.3,0,0,0,1.3,1.3h0a1.3,1.3,0,0,0,1.3-1.3h0A1.3,1.3,0,0,0,155.86,183.1Zm63.09-33.36h-3a2.91,2.91,0,0,0-2.91,2.91v3a2.91,2.91,0,0,0,2.91,2.91h3a2.91,2.91,0,0,0,2.91-2.91v-3A2.91,2.91,0,0,0,218.95,149.74Zm-10.38-9.25h0a1.3,1.3,0,0,0-1.3,1.3h0a1.3,1.3,0,0,0,1.3,1.3h0a1.3,1.3,0,0,0,1.3-1.3h0A1.3,1.3,0,0,0,208.57,140.49Zm19.16,0h0a1.3,1.3,0,0,0-1.3,1.3h0a1.3,1.3,0,0,0,1.3,1.3h0a1.3,1.3,0,0,0,1.3-1.3h0A1.3,1.3,0,0,0,227.72,140.49Zm-19.16,22.61h-2a1.3,1.3,0,0,0-1.3,1.3v2a1.3,1.3,0,0,0,1.3,1.3h2a1.3,1.3,0,0,0,1.3-1.3v-2A1.3,1.3,0,0,0,208.57,163.09Zm19.16,2h0a1.3,1.3,0,0,0-1.3,1.3h0a1.3,1.3,0,0,0,1.3,1.3h0a1.3,1.3,0,0,0,1.3-1.3h0A1.3,1.3,0,0,0,227.72,165.12ZM129.14,89.66h-3a2.91,2.91,0,0,0-2.91,2.91v3a2.91,2.91,0,0,0,2.91,2.91h3a2.91,2.91,0,0,0,2.91-2.91v-3A2.91,2.91,0,0,0,129.14,89.66Zm-13-11.85h0a1.3,1.3,0,0,0-1.3,1.3h0a1.3,1.3,0,0,0,1.3,1.3h0a1.3,1.3,0,0,0,1.3-1.3h0A1.3,1.3,0,0,0,116.16,77.81Zm19.16,0h0a1.3,1.3,0,0,0-1.3,1.3h0a1.3,1.3,0,0,0,1.3,1.3h0a1.3,1.3,0,0,0,1.3-1.3h0A1.3,1.3,0,0,0,135.32,77.81Zm-19.16,22.61h-2a1.3,1.3,0,0,0-1.3,1.3v2a1.3,1.3,0,0,0,1.3,1.3h2a1.3,1.3,0,0,0,1.3-1.3v-2A1.3,1.3,0,0,0,116.16,100.41Zm19.16,2h0a1.3,1.3,0,0,0-1.3,1.3h0a1.3,1.3,0,0,0,1.3,1.3h0a1.3,1.3,0,0,0,1.3-1.3h0A1.3,1.3,0,0,0,135.32,102.43ZM90.86,75.2h0a1.3,1.3,0,0,0-1.3,1.3h0a1.3,1.3,0,0,0,1.3,1.3h0a1.3,1.3,0,0,0,1.3-1.3h0A1.3,1.3,0,0,0,90.86,75.2Zm73.07,53.29v3a2.91,2.91,0,0,0,2.91,2.91h3a2.91,2.91,0,0,0,2.91-2.91v-3a2.91,2.91,0,0,0-2.91-2.91h-3A2.91,2.91,0,0,0,163.93,128.49Zm-11.85,7.78h0a1.3,1.3,0,0,0,1.3,1.3h0a1.3,1.3,0,0,0,1.3-1.3h0a1.3,1.3,0,0,0-1.3-1.3h0A1.3,1.3,0,0,0,152.08,136.28Zm0-19.16h0a1.3,1.3,0,0,0,1.3,1.3h0a1.3,1.3,0,0,0,1.3-1.3h0a1.3,1.3,0,0,0-1.3-1.3h0A1.3,1.3,0,0,0,152.08,117.12Zm22.61,19.16v2a1.3,1.3,0,0,0,1.3,1.3h2a1.3,1.3,0,0,0,1.3-1.3v-2A1.3,1.3,0,0,0,178,135h-2A1.3,1.3,0,0,0,174.68,136.28Zm2-19.16h0a1.3,1.3,0,0,0,1.3,1.3h0a1.3,1.3,0,0,0,1.3-1.3h0a1.3,1.3,0,0,0-1.3-1.3h0A1.3,1.3,0,0,0,176.71,117.12Zm21.12-6.95v-3a2.91,2.91,0,0,0-2.91-2.91h-3a2.91,2.91,0,0,0-2.91,2.91v3a2.91,2.91,0,0,0,2.91,2.91h3A2.91,2.91,0,0,0,197.82,110.17Zm6.65-13h0a1.3,1.3,0,0,0-1.3-1.3h0a1.3,1.3,0,0,0-1.3,1.3h0a1.3,1.3,0,0,0,1.3,1.3h0A1.3,1.3,0,0,0,204.48,97.19Zm0,19.16h0a1.3,1.3,0,0,0-1.3-1.3h0a1.3,1.3,0,0,0-1.3,1.3h0a1.3,1.3,0,0,0,1.3,1.3h0A1.3,1.3,0,0,0,204.48,116.35ZM181.87,97.19v-2a1.3,1.3,0,0,0-1.3-1.3h-2a1.3,1.3,0,0,0-1.3,1.3v2a1.3,1.3,0,0,0,1.3,1.3h2A1.3,1.3,0,0,0,181.87,97.19Zm-2,19.16h0a1.3,1.3,0,0,0-1.3-1.3h0a1.3,1.3,0,0,0-1.3,1.3h0a1.3,1.3,0,0,0,1.3,1.3h0A1.3,1.3,0,0,0,179.85,116.35Z"/><path class="cls-7" d="M-23.25,82.91h-3A2.91,2.91,0,0,1-29.2,80V77A2.91,2.91,0,0,1-26.29,74h3A2.91,2.91,0,0,1-20.34,77v3A2.91,2.91,0,0,1-23.25,82.91Zm-2.88-15.29h0a1.3,1.3,0,0,0-1.3-1.3h0a1.3,1.3,0,0,0-1.3,1.3h0a1.3,1.3,0,0,0,1.3,1.3h0A1.3,1.3,0,0,0-26.13,67.61Zm0,19.16h0a1.3,1.3,0,0,0-1.3-1.3h0a1.3,1.3,0,0,0-1.3,1.3h0a1.3,1.3,0,0,0,1.3,1.3h0A1.3,1.3,0,0,0-26.13,86.77ZM-36.29,67V65a1.3,1.3,0,0,0-1.3-1.3h-2a1.3,1.3,0,0,0-1.3,1.3v2a1.3,1.3,0,0,0,1.3,1.3h2A1.3,1.3,0,0,0-36.29,67ZM41.14,89.08v-2a1.3,1.3,0,0,0-1.3-1.3h-2a1.3,1.3,0,0,0-1.3,1.3v2a1.3,1.3,0,0,0,1.3,1.3h2A1.3,1.3,0,0,0,41.14,89.08ZM-7.35,54.74v-2a1.3,1.3,0,0,0-1.3-1.3h-2a1.3,1.3,0,0,0-1.3,1.3v2a1.3,1.3,0,0,0,1.3,1.3h2A1.3,1.3,0,0,0-7.35,54.74Zm35-44.2v-2a1.3,1.3,0,0,0-1.3-1.3h-2A1.3,1.3,0,0,0,23,8.52v2a1.3,1.3,0,0,0,1.3,1.3h2A1.3,1.3,0,0,0,27.62,10.54ZM-38.31,86.17h0a1.3,1.3,0,0,0-1.3-1.3h0a1.3,1.3,0,0,0-1.3,1.3h0a1.3,1.3,0,0,0,1.3,1.3h0A1.3,1.3,0,0,0-38.31,86.17Zm-9.44-39.93v-3a2.91,2.91,0,0,0-2.91-2.91h-3a2.91,2.91,0,0,0-2.91,2.91v3a2.91,2.91,0,0,0,2.91,2.91h3A2.91,2.91,0,0,0-47.76,46.24Zm6.65-13h0A1.3,1.3,0,0,0-42.4,32h0a1.3,1.3,0,0,0-1.3,1.3h0a1.3,1.3,0,0,0,1.3,1.3h0A1.3,1.3,0,0,0-41.1,33.27Zm0,19.16h0a1.3,1.3,0,0,0-1.3-1.3h0a1.3,1.3,0,0,0-1.3,1.3h0a1.3,1.3,0,0,0,1.3,1.3h0A1.3,1.3,0,0,0-41.1,52.42ZM-63.71,33.27v-2a1.3,1.3,0,0,0-1.3-1.3h-2a1.3,1.3,0,0,0-1.3,1.3v2a1.3,1.3,0,0,0,1.3,1.3h2A1.3,1.3,0,0,0-63.71,33.27Zm-2,19.16h0a1.3,1.3,0,0,0-1.3-1.3h0a1.3,1.3,0,0,0-1.3,1.3h0a1.3,1.3,0,0,0,1.3,1.3h0A1.3,1.3,0,0,0-65.73,52.42Zm28.62,66.08v3a2.91,2.91,0,0,0,2.91,2.91h3a2.91,2.91,0,0,0,2.91-2.91v-3a2.91,2.91,0,0,0-2.91-2.91h-3A2.91,2.91,0,0,0-37.11,118.51Zm-43.49,6.64h0a1.3,1.3,0,0,0,1.3,1.3h0a1.3,1.3,0,0,0,1.3-1.3h0a1.3,1.3,0,0,0-1.3-1.3h0A1.3,1.3,0,0,0-80.61,125.14Zm31.64-18h0a1.3,1.3,0,0,0,1.3,1.3h0a1.3,1.3,0,0,0,1.3-1.3h0a1.3,1.3,0,0,0-1.3-1.3h0A1.3,1.3,0,0,0-49,107.13ZM-69.64,89.89h0a1.3,1.3,0,0,0,1.3,1.3h0a1.3,1.3,0,0,0,1.3-1.3h0a1.3,1.3,0,0,0-1.3-1.3h0A1.3,1.3,0,0,0-69.64,89.89ZM-58,125.14v2a1.3,1.3,0,0,0,1.3,1.3h2a1.3,1.3,0,0,0,1.3-1.3v-2a1.3,1.3,0,0,0-1.3-1.3h-2A1.3,1.3,0,0,0-58,125.14ZM2.8,141.08v2a1.3,1.3,0,0,0,1.3,1.3h2a1.3,1.3,0,0,0,1.3-1.3v-2a1.3,1.3,0,0,0-1.3-1.3h-2A1.3,1.3,0,0,0,2.8,141.08ZM-56,106h0a1.3,1.3,0,0,0,1.3,1.3h0a1.3,1.3,0,0,0,1.3-1.3h0a1.3,1.3,0,0,0-1.3-1.3h0A1.3,1.3,0,0,0-56,106ZM-86,74h0a1.3,1.3,0,0,0,1.3,1.3h0a1.3,1.3,0,0,0,1.3-1.3h0a1.3,1.3,0,0,0-1.3-1.3h0A1.3,1.3,0,0,0-86,74ZM43.34,130.52h6.25a1.3,1.3,0,0,0,1.3-1.3V123a1.3,1.3,0,0,0-1.3-1.3H43.34A1.3,1.3,0,0,0,42,123v6.25A1.3,1.3,0,0,0,43.34,130.52Zm12,9.25h0a1.3,1.3,0,0,0,1.3-1.3h0a1.3,1.3,0,0,0-1.3-1.3h0a1.3,1.3,0,0,0-1.3,1.3h0A1.3,1.3,0,0,0,55.32,139.77Zm-19.16,0h0a1.3,1.3,0,0,0,1.3-1.3h0a1.3,1.3,0,0,0-1.3-1.3h0a1.3,1.3,0,0,0-1.3,1.3h0A1.3,1.3,0,0,0,36.17,139.77Zm19.16-22.61h2a1.3,1.3,0,0,0,1.3-1.3v-2a1.3,1.3,0,0,0-1.3-1.3h-2a1.3,1.3,0,0,0-1.3,1.3v2A1.3,1.3,0,0,0,55.32,117.16Zm-19.16-2h0a1.3,1.3,0,0,0,1.3-1.3h0a1.3,1.3,0,0,0-1.3-1.3h0a1.3,1.3,0,0,0-1.3,1.3h0A1.3,1.3,0,0,0,36.17,115.14Zm-29.53-18h-3A2.91,2.91,0,0,0,.68,100v3A2.91,2.91,0,0,0,3.59,106h3a2.91,2.91,0,0,0,2.91-2.91v-3A2.91,2.91,0,0,0,6.64,97.12Zm-13-11.85h0a1.3,1.3,0,0,0-1.3,1.3h0a1.3,1.3,0,0,0,1.3,1.3h0A1.3,1.3,0,0,0-5,86.58h0A1.3,1.3,0,0,0-6.34,85.27Zm19.16,0h0a1.3,1.3,0,0,0-1.3,1.3h0a1.3,1.3,0,0,0,1.3,1.3h0a1.3,1.3,0,0,0,1.3-1.3h0A1.3,1.3,0,0,0,12.81,85.27ZM-6.34,107.88h-2a1.3,1.3,0,0,0-1.3,1.3v2a1.3,1.3,0,0,0,1.3,1.3h2a1.3,1.3,0,0,0,1.3-1.3v-2A1.3,1.3,0,0,0-6.34,107.88Zm19.16,2h0a1.3,1.3,0,0,0-1.3,1.3h0a1.3,1.3,0,0,0,1.3,1.3h0a1.3,1.3,0,0,0,1.3-1.3h0A1.3,1.3,0,0,0,12.81,109.9ZM75.9,76.54h-3A2.91,2.91,0,0,0,70,79.45v3a2.91,2.91,0,0,0,2.91,2.91h3a2.91,2.91,0,0,0,2.91-2.91v-3A2.91,2.91,0,0,0,75.9,76.54ZM65.52,67.29h0a1.3,1.3,0,0,0-1.3,1.3h0a1.3,1.3,0,0,0,1.3,1.3h0a1.3,1.3,0,0,0,1.3-1.3h0A1.3,1.3,0,0,0,65.52,67.29Zm19.16,0h0a1.3,1.3,0,0,0-1.3,1.3h0a1.3,1.3,0,0,0,1.3,1.3h0a1.3,1.3,0,0,0,1.3-1.3h0A1.3,1.3,0,0,0,84.68,67.29ZM65.52,89.89h-2a1.3,1.3,0,0,0-1.3,1.3v2a1.3,1.3,0,0,0,1.3,1.3h2a1.3,1.3,0,0,0,1.3-1.3v-2A1.3,1.3,0,0,0,65.52,89.89Zm19.16,2h0a1.3,1.3,0,0,0-1.3,1.3h0a1.3,1.3,0,0,0,1.3,1.3h0a1.3,1.3,0,0,0,1.3-1.3h0A1.3,1.3,0,0,0,84.68,91.92ZM-13.91,16.46h-3a2.91,2.91,0,0,0-2.91,2.91v3a2.91,2.91,0,0,0,2.91,2.91h3A2.91,2.91,0,0,0-11,22.41v-3A2.91,2.91,0,0,0-13.91,16.46Zm-13-11.85h0a1.3,1.3,0,0,0-1.3,1.3h0a1.3,1.3,0,0,0,1.3,1.3h0a1.3,1.3,0,0,0,1.3-1.3h0A1.3,1.3,0,0,0-26.88,4.61Zm19.16,0h0A1.3,1.3,0,0,0-9,5.91h0a1.3,1.3,0,0,0,1.3,1.3h0a1.3,1.3,0,0,0,1.3-1.3h0A1.3,1.3,0,0,0-7.73,4.61ZM-26.88,27.21h-2a1.3,1.3,0,0,0-1.3,1.3v2a1.3,1.3,0,0,0,1.3,1.3h2a1.3,1.3,0,0,0,1.3-1.3v-2A1.3,1.3,0,0,0-26.88,27.21Zm19.16,2h0A1.3,1.3,0,0,0-9,30.54h0a1.3,1.3,0,0,0,1.3,1.3h0a1.3,1.3,0,0,0,1.3-1.3h0A1.3,1.3,0,0,0-7.73,29.24ZM-52.19,2h0a1.3,1.3,0,0,0-1.3,1.3h0a1.3,1.3,0,0,0,1.3,1.3h0a1.3,1.3,0,0,0,1.3-1.3h0A1.3,1.3,0,0,0-52.19,2ZM20.88,55.29v3a2.91,2.91,0,0,0,2.91,2.91h3a2.91,2.91,0,0,0,2.91-2.91v-3a2.91,2.91,0,0,0-2.91-2.91h-3A2.91,2.91,0,0,0,20.88,55.29ZM9,63.08H9a1.3,1.3,0,0,0,1.3,1.3h0a1.3,1.3,0,0,0,1.3-1.3h0a1.3,1.3,0,0,0-1.3-1.3h0A1.3,1.3,0,0,0,9,63.08ZM9,43.92H9a1.3,1.3,0,0,0,1.3,1.3h0a1.3,1.3,0,0,0,1.3-1.3h0a1.3,1.3,0,0,0-1.3-1.3h0A1.3,1.3,0,0,0,9,43.92ZM31.64,63.08v2a1.3,1.3,0,0,0,1.3,1.3h2a1.3,1.3,0,0,0,1.3-1.3v-2a1.3,1.3,0,0,0-1.3-1.3h-2A1.3,1.3,0,0,0,31.64,63.08Zm2-19.16h0a1.3,1.3,0,0,0,1.3,1.3h0a1.3,1.3,0,0,0,1.3-1.3h0a1.3,1.3,0,0,0-1.3-1.3h0A1.3,1.3,0,0,0,33.66,43.92ZM54.78,37v-3A2.91,2.91,0,0,0,51.87,31h-3a2.91,2.91,0,0,0-2.91,2.91v3a2.91,2.91,0,0,0,2.91,2.91h3A2.91,2.91,0,0,0,54.78,37Zm6.65-13h0a1.3,1.3,0,0,0-1.3-1.3h0a1.3,1.3,0,0,0-1.3,1.3h0a1.3,1.3,0,0,0,1.3,1.3h0A1.3,1.3,0,0,0,61.43,24Zm0,19.16h0a1.3,1.3,0,0,0-1.3-1.3h0a1.3,1.3,0,0,0-1.3,1.3h0a1.3,1.3,0,0,0,1.3,1.3h0A1.3,1.3,0,0,0,61.43,43.15ZM38.82,24V22a1.3,1.3,0,0,0-1.3-1.3h-2A1.3,1.3,0,0,0,34.2,22v2a1.3,1.3,0,0,0,1.3,1.3h2A1.3,1.3,0,0,0,38.82,24Zm-2,19.16h0a1.3,1.3,0,0,0-1.3-1.3h0a1.3,1.3,0,0,0-1.3,1.3h0a1.3,1.3,0,0,0,1.3,1.3h0A1.3,1.3,0,0,0,36.8,43.15Z"/><path class="cls-8" d="M119.8,9.71h-3a2.91,2.91,0,0,1-2.91-2.91v-3A2.91,2.91,0,0,1,116.76.84h3a2.91,2.91,0,0,1,2.91,2.91v3A2.91,2.91,0,0,1,119.8,9.71ZM116.91-5.59h0a1.3,1.3,0,0,0-1.3-1.3h0a1.3,1.3,0,0,0-1.3,1.3h0a1.3,1.3,0,0,0,1.3,1.3h0A1.3,1.3,0,0,0,116.91-5.59Zm0,19.16h0a1.3,1.3,0,0,0-1.3-1.3h0a1.3,1.3,0,0,0-1.3,1.3h0a1.3,1.3,0,0,0,1.3,1.3h0A1.3,1.3,0,0,0,116.91,13.57ZM106.75-6.18v-2a1.3,1.3,0,0,0-1.3-1.3h-2a1.3,1.3,0,0,0-1.3,1.3v2a1.3,1.3,0,0,0,1.3,1.3h2A1.3,1.3,0,0,0,106.75-6.18Zm77.43,22.07v-2a1.3,1.3,0,0,0-1.3-1.3h-2a1.3,1.3,0,0,0-1.3,1.3v2a1.3,1.3,0,0,0,1.3,1.3h2A1.3,1.3,0,0,0,184.18,15.88ZM135.69-18.46v-2a1.3,1.3,0,0,0-1.3-1.3h-2a1.3,1.3,0,0,0-1.3,1.3v2a1.3,1.3,0,0,0,1.3,1.3h2A1.3,1.3,0,0,0,135.69-18.46Zm35-44.2v-2a1.3,1.3,0,0,0-1.3-1.3h-2a1.3,1.3,0,0,0-1.3,1.3v2a1.3,1.3,0,0,0,1.3,1.3h2A1.3,1.3,0,0,0,170.67-62.66ZM104.73,13h0a1.3,1.3,0,0,0-1.3-1.3h0a1.3,1.3,0,0,0-1.3,1.3h0a1.3,1.3,0,0,0,1.3,1.3h0A1.3,1.3,0,0,0,104.73,13ZM95.29-27v-3a2.91,2.91,0,0,0-2.91-2.91h-3A2.91,2.91,0,0,0,86.43-30v3A2.91,2.91,0,0,0,89.34-24h3A2.91,2.91,0,0,0,95.29-27Zm6.65-13h0a1.3,1.3,0,0,0-1.3-1.3h0a1.3,1.3,0,0,0-1.3,1.3h0a1.3,1.3,0,0,0,1.3,1.3h0A1.3,1.3,0,0,0,101.95-39.93Zm0,19.16h0a1.3,1.3,0,0,0-1.3-1.3h0a1.3,1.3,0,0,0-1.3,1.3h0a1.3,1.3,0,0,0,1.3,1.3h0A1.3,1.3,0,0,0,101.95-20.78ZM79.34-39.93v-2a1.3,1.3,0,0,0-1.3-1.3H76a1.3,1.3,0,0,0-1.3,1.3v2a1.3,1.3,0,0,0,1.3,1.3h2A1.3,1.3,0,0,0,79.34-39.93Zm-2,19.16h0a1.3,1.3,0,0,0-1.3-1.3h0a1.3,1.3,0,0,0-1.3,1.3h0a1.3,1.3,0,0,0,1.3,1.3h0A1.3,1.3,0,0,0,77.32-20.78Zm28.62,66.08v3a2.91,2.91,0,0,0,2.91,2.91h3a2.91,2.91,0,0,0,2.91-2.91v-3a2.91,2.91,0,0,0-2.91-2.91h-3A2.91,2.91,0,0,0,105.93,45.31ZM62.44,51.94h0a1.3,1.3,0,0,0,1.3,1.3h0a1.3,1.3,0,0,0,1.3-1.3h0a1.3,1.3,0,0,0-1.3-1.3h0A1.3,1.3,0,0,0,62.44,51.94Zm31.64-18h0a1.3,1.3,0,0,0,1.3,1.3h0a1.3,1.3,0,0,0,1.3-1.3h0a1.3,1.3,0,0,0-1.3-1.3h0A1.3,1.3,0,0,0,94.08,33.93ZM73.41,16.7h0a1.3,1.3,0,0,0,1.3,1.3h0A1.3,1.3,0,0,0,76,16.7h0a1.3,1.3,0,0,0-1.3-1.3h0A1.3,1.3,0,0,0,73.41,16.7ZM85,51.94v2a1.3,1.3,0,0,0,1.3,1.3h2a1.3,1.3,0,0,0,1.3-1.3v-2a1.3,1.3,0,0,0-1.3-1.3h-2A1.3,1.3,0,0,0,85,51.94Zm60.8,15.93v2a1.3,1.3,0,0,0,1.3,1.3h2a1.3,1.3,0,0,0,1.3-1.3v-2a1.3,1.3,0,0,0-1.3-1.3h-2A1.3,1.3,0,0,0,145.85,67.88ZM87.07,32.79h0a1.3,1.3,0,0,0,1.3,1.3h0a1.3,1.3,0,0,0,1.3-1.3h0a1.3,1.3,0,0,0-1.3-1.3h0A1.3,1.3,0,0,0,87.07,32.79ZM57.07.84h0a1.3,1.3,0,0,0,1.3,1.3h0a1.3,1.3,0,0,0,1.3-1.3h0a1.3,1.3,0,0,0-1.3-1.3h0A1.3,1.3,0,0,0,57.07.84ZM186.38,57.32h6.25a1.3,1.3,0,0,0,1.3-1.3V49.76a1.3,1.3,0,0,0-1.3-1.3h-6.25a1.3,1.3,0,0,0-1.3,1.3V56A1.3,1.3,0,0,0,186.38,57.32Zm12,9.25h0a1.3,1.3,0,0,0,1.3-1.3h0a1.3,1.3,0,0,0-1.3-1.3h0a1.3,1.3,0,0,0-1.3,1.3h0A1.3,1.3,0,0,0,198.37,66.57Zm-19.16,0h0a1.3,1.3,0,0,0,1.3-1.3h0a1.3,1.3,0,0,0-1.3-1.3h0a1.3,1.3,0,0,0-1.3,1.3h0A1.3,1.3,0,0,0,179.22,66.57ZM198.37,44h2a1.3,1.3,0,0,0,1.3-1.3v-2a1.3,1.3,0,0,0-1.3-1.3h-2a1.3,1.3,0,0,0-1.3,1.3v2A1.3,1.3,0,0,0,198.37,44Zm-19.16-2h0a1.3,1.3,0,0,0,1.3-1.3h0a1.3,1.3,0,0,0-1.3-1.3h0a1.3,1.3,0,0,0-1.3,1.3h0A1.3,1.3,0,0,0,179.22,41.94Zm-29.53-18h-3a2.91,2.91,0,0,0-2.91,2.91v3a2.91,2.91,0,0,0,2.91,2.91h3a2.91,2.91,0,0,0,2.91-2.91v-3A2.91,2.91,0,0,0,149.68,23.92Zm-13-11.85h0a1.3,1.3,0,0,0-1.3,1.3h0a1.3,1.3,0,0,0,1.3,1.3h0a1.3,1.3,0,0,0,1.3-1.3h0A1.3,1.3,0,0,0,136.7,12.07Zm19.16,0h0a1.3,1.3,0,0,0-1.3,1.3h0a1.3,1.3,0,0,0,1.3,1.3h0a1.3,1.3,0,0,0,1.3-1.3h0A1.3,1.3,0,0,0,155.86,12.07ZM136.7,34.68h-2a1.3,1.3,0,0,0-1.3,1.3v2a1.3,1.3,0,0,0,1.3,1.3h2A1.3,1.3,0,0,0,138,38V36A1.3,1.3,0,0,0,136.7,34.68Zm19.16,2h0a1.3,1.3,0,0,0-1.3,1.3h0a1.3,1.3,0,0,0,1.3,1.3h0a1.3,1.3,0,0,0,1.3-1.3h0A1.3,1.3,0,0,0,155.86,36.7ZM218.95,3.34h-3A2.91,2.91,0,0,0,213,6.25v3a2.91,2.91,0,0,0,2.91,2.91h3a2.91,2.91,0,0,0,2.91-2.91v-3A2.91,2.91,0,0,0,218.95,3.34ZM208.57-5.91h0a1.3,1.3,0,0,0-1.3,1.3h0a1.3,1.3,0,0,0,1.3,1.3h0a1.3,1.3,0,0,0,1.3-1.3h0A1.3,1.3,0,0,0,208.57-5.91Zm19.16,0h0a1.3,1.3,0,0,0-1.3,1.3h0a1.3,1.3,0,0,0,1.3,1.3h0a1.3,1.3,0,0,0,1.3-1.3h0A1.3,1.3,0,0,0,227.72-5.91ZM208.57,16.7h-2a1.3,1.3,0,0,0-1.3,1.3v2a1.3,1.3,0,0,0,1.3,1.3h2a1.3,1.3,0,0,0,1.3-1.3V18A1.3,1.3,0,0,0,208.57,16.7Zm19.16,2h0a1.3,1.3,0,0,0-1.3,1.3h0a1.3,1.3,0,0,0,1.3,1.3h0A1.3,1.3,0,0,0,229,20h0A1.3,1.3,0,0,0,227.72,18.72ZM129.14-56.74h-3a2.91,2.91,0,0,0-2.91,2.91v3a2.91,2.91,0,0,0,2.91,2.91h3a2.91,2.91,0,0,0,2.91-2.91v-3A2.91,2.91,0,0,0,129.14-56.74Zm-13-11.85h0a1.3,1.3,0,0,0-1.3,1.3h0a1.3,1.3,0,0,0,1.3,1.3h0a1.3,1.3,0,0,0,1.3-1.3h0A1.3,1.3,0,0,0,116.16-68.59Zm19.16,0h0a1.3,1.3,0,0,0-1.3,1.3h0a1.3,1.3,0,0,0,1.3,1.3h0a1.3,1.3,0,0,0,1.3-1.3h0A1.3,1.3,0,0,0,135.32-68.59ZM116.16-46h-2a1.3,1.3,0,0,0-1.3,1.3v2a1.3,1.3,0,0,0,1.3,1.3h2a1.3,1.3,0,0,0,1.3-1.3v-2A1.3,1.3,0,0,0,116.16-46Zm19.16,2h0a1.3,1.3,0,0,0-1.3,1.3h0a1.3,1.3,0,0,0,1.3,1.3h0a1.3,1.3,0,0,0,1.3-1.3h0A1.3,1.3,0,0,0,135.32-44ZM90.86-71.2h0a1.3,1.3,0,0,0-1.3,1.3h0a1.3,1.3,0,0,0,1.3,1.3h0a1.3,1.3,0,0,0,1.3-1.3h0A1.3,1.3,0,0,0,90.86-71.2Zm73.07,53.29v3A2.91,2.91,0,0,0,166.84-12h3a2.91,2.91,0,0,0,2.91-2.91v-3a2.91,2.91,0,0,0-2.91-2.91h-3A2.91,2.91,0,0,0,163.93-17.91Zm-11.85,7.78h0a1.3,1.3,0,0,0,1.3,1.3h0a1.3,1.3,0,0,0,1.3-1.3h0a1.3,1.3,0,0,0-1.3-1.3h0A1.3,1.3,0,0,0,152.08-10.12Zm0-19.16h0a1.3,1.3,0,0,0,1.3,1.3h0a1.3,1.3,0,0,0,1.3-1.3h0a1.3,1.3,0,0,0-1.3-1.3h0A1.3,1.3,0,0,0,152.08-29.28Zm22.61,19.16v2A1.3,1.3,0,0,0,176-6.8h2a1.3,1.3,0,0,0,1.3-1.3v-2a1.3,1.3,0,0,0-1.3-1.3h-2A1.3,1.3,0,0,0,174.68-10.12Zm2-19.16h0A1.3,1.3,0,0,0,178-28h0a1.3,1.3,0,0,0,1.3-1.3h0a1.3,1.3,0,0,0-1.3-1.3h0A1.3,1.3,0,0,0,176.71-29.28Zm21.12-6.95v-3a2.91,2.91,0,0,0-2.91-2.91h-3A2.91,2.91,0,0,0,189-39.27v3a2.91,2.91,0,0,0,2.91,2.91h3A2.91,2.91,0,0,0,197.82-36.23Zm6.65-13h0a1.3,1.3,0,0,0-1.3-1.3h0a1.3,1.3,0,0,0-1.3,1.3h0a1.3,1.3,0,0,0,1.3,1.3h0A1.3,1.3,0,0,0,204.48-49.21Zm0,19.16h0a1.3,1.3,0,0,0-1.3-1.3h0a1.3,1.3,0,0,0-1.3,1.3h0a1.3,1.3,0,0,0,1.3,1.3h0A1.3,1.3,0,0,0,204.48-30.05ZM181.87-49.21v-2a1.3,1.3,0,0,0-1.3-1.3h-2a1.3,1.3,0,0,0-1.3,1.3v2a1.3,1.3,0,0,0,1.3,1.3h2A1.3,1.3,0,0,0,181.87-49.21Zm-2,19.16h0a1.3,1.3,0,0,0-1.3-1.3h0a1.3,1.3,0,0,0-1.3,1.3h0a1.3,1.3,0,0,0,1.3,1.3h0A1.3,1.3,0,0,0,179.85-30.05Z"/></pattern><linearGradient id="未命名漸層_6" x1="255.77" y1="196.69" x2="302.67" y2="114.09" gradientTransform="matrix(-1, 0, 0, 1, 369.45, 0)" gradientUnits="userSpaceOnUse"><stop offset="0" stop-color="#004864"/><stop offset="1" stop-color="#00364b"/></linearGradient></defs><title>資產 118</title><g id="圖層_2" data-name="圖層 2"><g id="content"><ellipse class="cls-9" cx="213.07" cy="469.44" rx="157.71" ry="63.23"/><circle class="cls-10" cx="212.34" cy="213.87" r="212.29" transform="translate(-69.49 107.09) rotate(-24.45)"/><path class="cls-11" d="M309.36,100.19C260.48,44.57,200.13,7.46,126.25,19,209.19-18.75,310.36.14,373.63,72.13s75.84,206-8.65,289.36C408,286.34,358.24,155.81,309.36,100.19Z"/><path class="cls-12" d="M149.08,91.62c0,20.23-16.4,43.19-36.63,51.27s-36.63-1.76-36.63-22,16.4-43.19,36.63-51.27S149.08,71.39,149.08,91.62Z"/><polygon class="cls-13" points="149.08 91.62 75.81 120.9 75.81 216.8 149.08 187.52 149.08 91.62"/><polygon class="cls-12" points="149.08 91.62 112.45 105.37 112.45 169.49 149.08 187.52 149.08 91.62"/><line class="cls-12" x1="112.45" y1="71.21" x2="112.45" y2="106.68"/><line class="cls-12" x1="112.45" y1="105.37" x2="147.22" y2="123.4"/><line class="cls-12" x1="112.45" y1="137.57" x2="147.22" y2="155.6"/><path class="cls-10" d="M29.69,301.65c0,50.14,79.9,97,175,97S376.91,358,376.91,307.87s-77.1-90.78-172.21-90.78S29.69,251.51,29.69,301.65Z"/><ellipse class="cls-14" cx="340.78" cy="272.37" rx="15.3" ry="7.81"/><ellipse class="cls-14" cx="340.78" cy="243.25" rx="15.28" ry="6.62"/><rect class="cls-14" x="325.51" y="243.25" width="30.55" height="29.11" transform="translate(681.57 515.62) rotate(-180)"/><ellipse class="cls-15" cx="340.8" cy="244.13" rx="14.89" ry="5.97"/><path class="cls-16" d="M352.49,250.63s-2.65,22-17.66,20.06c-10.58-1.37-11-24.52-11-24.52"/><ellipse class="cls-14" cx="381.43" cy="289.34" rx="7.81" ry="15.3" transform="translate(-63.62 112.88) rotate(-15.55)"/><ellipse class="cls-14" cx="353.38" cy="297.14" rx="6.62" ry="15.28" transform="matrix(0.96, -0.27, 0.27, 0.96, -66.74, 105.64)"/><rect class="cls-14" x="352.13" y="278.68" width="30.55" height="29.11" transform="translate(551.38 -139.35) rotate(74.45)"/><ellipse class="cls-10" cx="354.22" cy="296.89" rx="5.97" ry="14.89" transform="translate(-66.64 105.86) rotate(-15.55)"/><path class="cls-17" d="M355.47,314.73s-25.83,8.63-29.17-3.47c-2.35-8.53,17-14.15,17-14.15"/><ellipse class="cls-15" cx="354.46" cy="308.91" rx="5.8" ry="3.3"/><ellipse class="cls-15" cx="344.86" cy="311.11" rx="1.7" ry="1.1"/><ellipse class="cls-15" cx="334.07" cy="310.01" rx="0.82" ry="0.53"/><path class="cls-18" d="M309.36,100.19C260.48,44.57,200.13,7.46,126.25,19,209.19-18.75,310.36.14,373.63,72.13s75.84,206-8.65,289.36C408,286.34,358.24,155.81,309.36,100.19Z"/><path class="cls-19" d="M92.69,118.51s33.56,9.19,51.09,66.4L80.32,210.42V123.5Z"/><path class="cls-15" d="M163.58,39.12a1.78,1.78,0,0,0,1.14-.45,1.8,1.8,0,0,0,.45-1.14,1.48,1.48,0,0,0-.5-1.14,1.66,1.66,0,0,0-2.22,0,1.78,1.78,0,0,0-.46,1.14,1.58,1.58,0,0,0,.46,1.09A1.6,1.6,0,0,0,163.58,39.12Z"/><path class="cls-15" d="M132.93,33.44a1.78,1.78,0,0,0,1.14-.45,1.65,1.65,0,0,0,0-2.27,1.61,1.61,0,0,0-2.73,1.14,1.78,1.78,0,0,0,.46,1.14A1.76,1.76,0,0,0,132.93,33.44Z"/><path class="cls-15" d="M41,145.82a1.78,1.78,0,0,0,1.14-.45,1.67,1.67,0,0,0,.45-1.14,1.8,1.8,0,0,0-.45-1.14,1.62,1.62,0,0,0-2.27,0,1.64,1.64,0,0,0,0,2.27A1.76,1.76,0,0,0,41,145.82Z"/><path class="cls-15" d="M39.85,171.93a1.78,1.78,0,0,0,1.14-.45,1.65,1.65,0,0,0,0-2.27,1.67,1.67,0,0,0-2.27,0,1.58,1.58,0,0,0-.46,1.14,1.78,1.78,0,0,0,.46,1.14A1.67,1.67,0,0,0,39.85,171.93Z"/><path class="cls-15" d="M41,206a1.78,1.78,0,0,0,1.14-.45,1.8,1.8,0,0,0,.45-1.14,1.42,1.42,0,0,0-.45-1.09,1.53,1.53,0,0,0-2.23,0,1.62,1.62,0,0,0-.5,1.14,1.78,1.78,0,0,0,.46,1.14A1.67,1.67,0,0,0,41,206Z"/><path class="cls-15" d="M30.77,206a1.78,1.78,0,0,0,1.14-.45,1.8,1.8,0,0,0,.45-1.14,1.48,1.48,0,0,0-.5-1.14,1.61,1.61,0,0,0-2.22,0,1.43,1.43,0,0,0-.46,1.09,1.78,1.78,0,0,0,.46,1.14A1.76,1.76,0,0,0,30.77,206Z"/><path class="cls-15" d="M177.2,39.12a1.78,1.78,0,0,0,1.14-.45,1.65,1.65,0,0,0,0-2.27,1.61,1.61,0,0,0-2.73,1.14,1.78,1.78,0,0,0,.46,1.14A1.76,1.76,0,0,0,177.2,39.12Z"/><path class="cls-15" d="M53.47,85.66a1.56,1.56,0,0,0,1.09-.45,1.62,1.62,0,0,0,.5-1.14,1.8,1.8,0,0,0-.45-1.14,1.63,1.63,0,0,0-2.27,0,1.5,1.5,0,0,0-.46,1.09,1.78,1.78,0,0,0,.46,1.14A1.76,1.76,0,0,0,53.47,85.66Z"/><path class="cls-15" d="M54.6,103.82a1.48,1.48,0,0,0,1.14-.5,1.6,1.6,0,0,0,.45-1.09,1.8,1.8,0,0,0-.45-1.14,1.72,1.72,0,0,0-2.27,0,1.64,1.64,0,0,0,0,2.27A1.76,1.76,0,0,0,54.6,103.82Z"/><path class="cls-15" d="M224.88,50.47A1.78,1.78,0,0,0,226,50a1.65,1.65,0,0,0,0-2.27,1.66,1.66,0,0,0-2.23,0,1.48,1.48,0,0,0-.5,1.14,1.78,1.78,0,0,0,.46,1.14A1.76,1.76,0,0,0,224.88,50.47Z"/><path class="cls-15" d="M245.31,59.55a1.78,1.78,0,0,0,1.14-.45,1.65,1.65,0,0,0,0-2.27,1.61,1.61,0,0,0-2.23,0,1.48,1.48,0,0,0-.5,1.14,1.69,1.69,0,0,0,.46,1.14A1.76,1.76,0,0,0,245.31,59.55Z"/><path class="cls-15" d="M261.2,76.58a1.78,1.78,0,0,0,1.14-.45,1.65,1.65,0,0,0,0-2.27,1.67,1.67,0,0,0-2.27,0,1.58,1.58,0,0,0-.46,1.14,1.48,1.48,0,0,0,.46,1.09A1.61,1.61,0,0,0,261.2,76.58Z"/><path class="cls-15" d="M214.66,80a1.78,1.78,0,0,0,1.14-.45,1.8,1.8,0,0,0,.45-1.14,1.48,1.48,0,0,0-.5-1.14,1.65,1.65,0,0,0-2.22,0,1.61,1.61,0,0,0-.46,1.14,1.78,1.78,0,0,0,.46,1.14A1.67,1.67,0,0,0,214.66,80Z"/><path class="cls-15" d="M152.23,53.88a1.78,1.78,0,0,0,1.14-.45,1.65,1.65,0,0,0,0-2.27,1.67,1.67,0,0,0-2.27,0,1.64,1.64,0,0,0,0,2.27A1.76,1.76,0,0,0,152.23,53.88Z"/><path class="cls-15" d="M94.33,56.15a1.78,1.78,0,0,0,1.14-.45,1.65,1.65,0,0,0,0-2.27,1.67,1.67,0,0,0-2.27,0,1.64,1.64,0,0,0,0,2.27A1.67,1.67,0,0,0,94.33,56.15Z"/><path class="cls-15" d="M98.88,65.23a1.78,1.78,0,0,0,1.14-.45,1.65,1.65,0,0,0,0-2.27,1.67,1.67,0,0,0-2.27,0,1.64,1.64,0,0,0,0,2.27A1.76,1.76,0,0,0,98.88,65.23Z"/><path class="cls-15" d="M269.15,117.44a1.78,1.78,0,0,0,1.14-.45,1.81,1.81,0,0,0,.45-1.14,1.48,1.48,0,0,0-.5-1.14,1.65,1.65,0,0,0-2.22,0,1.61,1.61,0,0,0-.46,1.14A1.79,1.79,0,0,0,268,117,1.76,1.76,0,0,0,269.15,117.44Z"/><path class="cls-15" d="M232.82,99.28a1.78,1.78,0,0,0,1.14-.45,1.65,1.65,0,0,0,0-2.27,1.61,1.61,0,0,0-2.73,1.14,1.79,1.79,0,0,0,.46,1.14A1.76,1.76,0,0,0,232.82,99.28Z"/><path class="cls-15" d="M39.85,217.34a1.78,1.78,0,0,0,1.14-.45,1.65,1.65,0,0,0,0-2.27,1.67,1.67,0,0,0-2.27,0,1.78,1.78,0,0,0-.46,1.14,1.58,1.58,0,0,0,.46,1.14A1.76,1.76,0,0,0,39.85,217.34Z"/><path class="cls-15" d="M182.88,36.85A1.78,1.78,0,0,0,184,36.4a1.8,1.8,0,0,0,.45-1.14,1.71,1.71,0,0,0-.45-1.14,1.66,1.66,0,0,0-2.23,0,1.62,1.62,0,0,0-.5,1.14,1.78,1.78,0,0,0,.46,1.14A1.76,1.76,0,0,0,182.88,36.85Z"/><path class="cls-15" d="M251,99.28a1.78,1.78,0,0,0,1.14-.45,1.81,1.81,0,0,0,.45-1.14,1.48,1.48,0,0,0-.5-1.14,1.65,1.65,0,0,0-2.22,0,1.61,1.61,0,0,0-.46,1.14,1.79,1.79,0,0,0,.46,1.14A1.76,1.76,0,0,0,251,99.28Z"/><path class="cls-15" d="M199.9,60.69a1.78,1.78,0,0,0,1.14-.45A1.65,1.65,0,0,0,201,58a1.72,1.72,0,0,0-2.27,0,1.64,1.64,0,0,0,0,2.27A1.76,1.76,0,0,0,199.9,60.69Z"/><path class="cls-15" d="M224.88,68.63a1.78,1.78,0,0,0,1.14-.45,1.8,1.8,0,0,0,.45-1.14,1.48,1.48,0,0,0-.5-1.14,1.65,1.65,0,0,0-2.22,0,1.61,1.61,0,0,0-.46,1.14,1.69,1.69,0,0,0,.46,1.14A1.76,1.76,0,0,0,224.88,68.63Z"/><path class="cls-15" d="M248.72,84.52a1.78,1.78,0,0,0,1.14-.45,1.65,1.65,0,0,0,0-2.27,1.72,1.72,0,0,0-2.27,0,1.69,1.69,0,0,0-.46,1.14,1.79,1.79,0,0,0,.46,1.14A1.76,1.76,0,0,0,248.72,84.52Z"/><path class="cls-15" d="M179.47,56.15a1.78,1.78,0,0,0,1.14-.45,1.8,1.8,0,0,0,.45-1.14,1.48,1.48,0,0,0-.5-1.14,1.57,1.57,0,0,0-2.68,1.14,1.78,1.78,0,0,0,.46,1.14A1.76,1.76,0,0,0,179.47,56.15Z"/><path class="cls-15" d="M126.12,57.28a1.78,1.78,0,0,0,1.14-.45,1.8,1.8,0,0,0,.45-1.14,1.48,1.48,0,0,0-.5-1.14,1.57,1.57,0,0,0-2.68,1.14,1.78,1.78,0,0,0,.46,1.14A1.76,1.76,0,0,0,126.12,57.28Z"/><path class="cls-15" d="M117,42.52a1.78,1.78,0,0,0,1.14-.45,1.8,1.8,0,0,0,.45-1.14,1.59,1.59,0,0,0-.45-1.14,1.67,1.67,0,0,0-2.27,0,1.64,1.64,0,0,0,0,2.27A1.67,1.67,0,0,0,117,42.52Z"/><path class="cls-15" d="M71.63,94.74a1.62,1.62,0,0,0,1.14-.5,1.6,1.6,0,0,0,.45-1.09A1.8,1.8,0,0,0,72.77,92a1.67,1.67,0,0,0-2.27,0A1.69,1.69,0,0,0,70,93.15a1.48,1.48,0,0,0,.5,1.14A1.57,1.57,0,0,0,71.63,94.74Z"/><path class="cls-15" d="M33,233.23a1.61,1.61,0,0,0,1.14-.45,1.65,1.65,0,0,0,0-2.27,1.61,1.61,0,0,0-2.73,1.14,1.78,1.78,0,0,0,.46,1.14A1.67,1.67,0,0,0,33,233.23Z"/><path class="cls-15" d="M35.31,189.19a3,3,0,0,0,2.09-5,3.08,3.08,0,0,0-4.18,0,3,3,0,0,0,2.09,5Z"/><path class="cls-15" d="M58,134.7a3,3,0,0,0,2.09-5,3.08,3.08,0,0,0-4.18,0,3,3,0,0,0,2.09,5Z"/><path class="cls-15" d="M195.36,47.3a3,3,0,0,0,2.09-5,3.08,3.08,0,0,0-4.18,0,3,3,0,0,0,0,4.18A2.9,2.9,0,0,0,195.36,47.3Z"/><path class="cls-15" d="M221.47,84.76a2.94,2.94,0,0,0,2.95-3,2.91,2.91,0,0,0-.86-2.09,3,3,0,0,0-4.18,0,3,3,0,0,0,2.09,5Z"/><path class="cls-15" d="M163.58,49.57a3,3,0,0,0,2.09-.86,3.07,3.07,0,0,0,.86-2.09,3,3,0,0,0-.86-2.09,3,3,0,0,0-4.18,0,2.92,2.92,0,0,0-.86,2.09,3,3,0,0,0,3,3Z"/><path class="cls-15" d="M84.12,74.54a3,3,0,0,0,2.09-5,3.08,3.08,0,0,0-4.18,0,3,3,0,0,0-.86,2.09A3.08,3.08,0,0,0,82,73.67,3,3,0,0,0,84.12,74.54Z"/><path class="cls-15" d="M254.39,130.16a3,3,0,0,0,2.09-.86,3.07,3.07,0,0,0,.86-2.09,3,3,0,0,0-.86-2.09,3,3,0,0,0-4.18,0,3,3,0,0,0-.86,2.09,3.08,3.08,0,0,0,.86,2.09A2.9,2.9,0,0,0,254.39,130.16Z"/><path class="cls-15" d="M103.42,47.3a3,3,0,0,0,2.09-.86,3.07,3.07,0,0,0,.86-2.09,3,3,0,0,0-.86-2.09,3.08,3.08,0,0,0-4.18,0,3,3,0,0,0-.86,2.09,3.08,3.08,0,0,0,.86,2.09A3,3,0,0,0,103.42,47.3Z"/><path class="cls-15" d="M358.6,206a1.78,1.78,0,0,0,1.14-.45,1.8,1.8,0,0,0,.45-1.14,1.48,1.48,0,0,0-.5-1.14,1.61,1.61,0,0,0-2.22,0,1.43,1.43,0,0,0-.46,1.09,1.78,1.78,0,0,0,.46,1.14A1.76,1.76,0,0,0,358.6,206Z"/><path class="cls-15" d="M346.11,202.58a1.78,1.78,0,0,0,1.14-.45,1.65,1.65,0,0,0,0-2.27,1.61,1.61,0,0,0-2.73,1.14,1.78,1.78,0,0,0,.46,1.14A1.76,1.76,0,0,0,346.11,202.58Z"/><path class="cls-15" d="M335.9,195.77a1.62,1.62,0,0,0,1.14-.5,1.6,1.6,0,0,0,.45-1.09A1.8,1.8,0,0,0,337,193a1.67,1.67,0,0,0-2.27,0,1.69,1.69,0,0,0-.46,1.14,1.78,1.78,0,0,0,.46,1.14A1.76,1.76,0,0,0,335.9,195.77Z"/><path class="cls-15" d="M317.73,134.47a1.78,1.78,0,0,0,1.14-.45,1.8,1.8,0,0,0,.45-1.14,1.48,1.48,0,0,0-.5-1.14,1.61,1.61,0,0,0-2.22,0,1.43,1.43,0,0,0-.46,1.09,1.78,1.78,0,0,0,.46,1.14A1.76,1.76,0,0,0,317.73,134.47Z"/><path class="cls-15" d="M305.25,151.5a1.78,1.78,0,0,0,1.14-.45,1.8,1.8,0,0,0,.45-1.14,1.48,1.48,0,0,0-.5-1.14,1.65,1.65,0,0,0-2.22,0,1.61,1.61,0,0,0-.46,1.14,1.78,1.78,0,0,0,.46,1.14A1.76,1.76,0,0,0,305.25,151.5Z"/><path class="cls-15" d="M284.81,120.85a1.78,1.78,0,0,0,1.14-.45,1.65,1.65,0,0,0,0-2.27,1.67,1.67,0,0,0-2.27,0,1.64,1.64,0,0,0,0,2.27A1.76,1.76,0,0,0,284.81,120.85Z"/><path class="cls-15" d="M291.63,216.2a1.78,1.78,0,0,0,1.14-.45,1.8,1.8,0,0,0,.45-1.14,1.48,1.48,0,0,0-.5-1.14,1.65,1.65,0,0,0-2.22,0,1.61,1.61,0,0,0-.46,1.14,1.78,1.78,0,0,0,.46,1.14A1.76,1.76,0,0,0,291.63,216.2Z"/><path class="cls-15" d="M329.09,233.23a1.78,1.78,0,0,0,1.14-.45,1.59,1.59,0,0,0,.45-1.14,1.8,1.8,0,0,0-.45-1.14,1.67,1.67,0,0,0-2.27,0,1.61,1.61,0,0,0-.46,1.14,1.69,1.69,0,0,0,.46,1.14A1.76,1.76,0,0,0,329.09,233.23Z"/><path class="cls-15" d="M314.33,175.34a1.78,1.78,0,0,0,1.14-.45,1.8,1.8,0,0,0,.45-1.14,1.48,1.48,0,0,0-.5-1.14,1.65,1.65,0,0,0-2.22,0,1.61,1.61,0,0,0-.46,1.14,1.78,1.78,0,0,0,.46,1.14A1.76,1.76,0,0,0,314.33,175.34Z"/><path class="cls-15" d="M328,147a1.48,1.48,0,0,0,1.14-.5,1.6,1.6,0,0,0,.45-1.09,1.59,1.59,0,0,0-2.68-1.14,1.62,1.62,0,0,0-.5,1.14,1.78,1.78,0,0,0,.46,1.14A1.67,1.67,0,0,0,328,147Z"/><path class="cls-15" d="M312.06,196.91a1.56,1.56,0,0,0,1.09-.45,1.62,1.62,0,0,0,.5-1.14,1.8,1.8,0,0,0-.45-1.14,1.61,1.61,0,0,0-2.23,0,1.46,1.46,0,0,0-.5,1.14,1.78,1.78,0,0,0,.46,1.14A1.76,1.76,0,0,0,312.06,196.91Z"/><path class="cls-15" d="M281.41,193.5a1.78,1.78,0,0,0,1.14-.45,1.8,1.8,0,0,0,.45-1.14,1.48,1.48,0,0,0-.5-1.14,1.65,1.65,0,0,0-2.22,0,1.61,1.61,0,0,0-.46,1.14,1.78,1.78,0,0,0,.46,1.14A1.76,1.76,0,0,0,281.41,193.5Z"/><path class="cls-15" d="M306.38,213.93a1.78,1.78,0,0,0,1.14-.45,1.65,1.65,0,0,0,0-2.27,1.63,1.63,0,0,0-2.27,0,1.58,1.58,0,0,0-.46,1.09,1.78,1.78,0,0,0,.46,1.14A1.76,1.76,0,0,0,306.38,213.93Z"/><path class="cls-15" d="M301.84,226.42A1.78,1.78,0,0,0,303,226a1.65,1.65,0,0,0,0-2.27,1.67,1.67,0,0,0-2.27,0,1.64,1.64,0,0,0,0,2.27A1.76,1.76,0,0,0,301.84,226.42Z"/><path class="cls-15" d="M316.6,235.5a1.78,1.78,0,0,0,1.14-.45,1.8,1.8,0,0,0,.45-1.14,1.55,1.55,0,0,0-.5-1.14,1.61,1.61,0,0,0-2.22,0,1.43,1.43,0,0,0-.46,1.09,1.78,1.78,0,0,0,.46,1.14A1.76,1.76,0,0,0,316.6,235.5Z"/><path class="cls-15" d="M360.87,233.23a1.61,1.61,0,0,0,1.14-.45,1.65,1.65,0,0,0,0-2.27,1.61,1.61,0,0,0-2.73,1.14,1.78,1.78,0,0,0,.46,1.14A1.67,1.67,0,0,0,360.87,233.23Z"/><path class="cls-15" d="M276.87,103.82a1.78,1.78,0,0,0,1.14-.45,1.65,1.65,0,0,0,0-2.27,1.67,1.67,0,0,0-2.27,0,1.64,1.64,0,0,0,0,2.27A1.76,1.76,0,0,0,276.87,103.82Z"/><path class="cls-15" d="M289.36,190.09a1.78,1.78,0,0,0,1.14-.45,1.8,1.8,0,0,0,.45-1.14,1.59,1.59,0,0,0-2.72-1.14,1.64,1.64,0,0,0,0,2.27A1.76,1.76,0,0,0,289.36,190.09Z"/><path class="cls-15" d="M350.65,214.16a3,3,0,0,0,2.09-.86,3.07,3.07,0,0,0,.86-2.09,2.91,2.91,0,0,0-.86-2.09,3.08,3.08,0,0,0-4.18,0,2.92,2.92,0,0,0-.86,2.09,3.08,3.08,0,0,0,.86,2.09A3,3,0,0,0,350.65,214.16Z"/><path class="cls-15" d="M293.9,116.54a3,3,0,0,0,2.09-.86,3.07,3.07,0,0,0,.86-2.09,3,3,0,0,0-.86-2.09,3.08,3.08,0,0,0-4.18,0,2.92,2.92,0,0,0-.86,2.09,3,3,0,0,0,3,3Z"/><path class="cls-15" d="M293.9,177.84A3,3,0,0,0,296,177a3.07,3.07,0,0,0,.86-2.09,3,3,0,0,0-.86-2.09,3.08,3.08,0,0,0-4.18,0,2.92,2.92,0,0,0-.86,2.09,3,3,0,0,0,3,3Z"/><path class="cls-15" d="M333.63,176.7a3,3,0,0,0,2.09-.86,3.07,3.07,0,0,0,.86-2.09,3,3,0,0,0-.86-2.09,3.08,3.08,0,0,0-4.18,0,3,3,0,0,0-.86,2.09,3.08,3.08,0,0,0,.86,2.09A3,3,0,0,0,333.63,176.7Z"/><path class="cls-15" d="M324.54,216.43a3,3,0,0,0,2.09-5,3,3,0,0,0-4.18,0,2.92,2.92,0,0,0-.86,2.09,3,3,0,0,0,3,3Z"/><path class="cls-15" d="M343.84,244.78a1.78,1.78,0,0,0,1.14-.45,1.65,1.65,0,0,0,0-2.27,1.63,1.63,0,0,0-2.27,0,1.58,1.58,0,0,0-.46,1.09,1.78,1.78,0,0,0,.46,1.14A1.76,1.76,0,0,0,343.84,244.78Z"/><ellipse class="cls-14" cx="170.07" cy="285.03" rx="15.4" ry="7.86"/><ellipse class="cls-14" cx="170.07" cy="255.73" rx="15.37" ry="6.66"/><rect class="cls-14" x="154.7" y="255.73" width="30.75" height="29.3"/><ellipse class="cls-15" cx="170.05" cy="256.61" rx="14.98" ry="6"/><path class="cls-20" d="M158.29,256.17s-.86-27.41,14.38-27.41c10.75,0,10.41,20.31,10.41,20.31"/><line class="cls-21" x1="168.91" y1="261.68" x2="168.91" y2="269.82"/><line class="cls-22" x1="173.82" y1="261.24" x2="173.82" y2="266.78"/><path class="cls-23" d="M212.51,142.16c2.73-4.33,7.07-4.26,9.65.16l11.89,20.35c2.58,4.42.51,8-4.61,8H203.85c-5.12,0-7.08-3.54-4.35-7.88Z"/><path class="cls-23" d="M267.8,161.34a6.83,6.83,0,0,0-6.81,6.81v6.15a6.83,6.83,0,0,1-6.81,6.81l-71.33,0a8.59,8.59,0,0,0-8.09,6.69l-7.34,38.51a6.56,6.56,0,0,0,5.45,7.74l.15,0a7.13,7.13,0,0,0,8-5.64l5.08-26.54c.7-3.68,4.1-6.41,7.55-6.08a6.36,6.36,0,0,1,5.41,7.37L195,235.71a130.56,130.56,0,0,0-.86,13.57v46.26a6.83,6.83,0,0,1-6.81,6.81H170.89a6.83,6.83,0,0,0-6.81,6.81v.47a6.83,6.83,0,0,0,6.81,6.81h30.5a6.83,6.83,0,0,0,6.81-6.81v-1.52a6.83,6.83,0,0,1,6.81-6.81h17.37a6.83,6.83,0,0,0,6.81-6.81V249.27c0-3.75-.32-9.86-.71-13.58L235,202a6,6,0,0,1,6.1-6.77h27.2a6.83,6.83,0,0,0,6.81-6.81V168.15a6.83,6.83,0,0,0-6.81-6.81ZM225.1,280.39a6.83,6.83,0,0,1-6.81,6.81H215a6.83,6.83,0,0,1-6.81-6.81V261a6.83,6.83,0,0,1,6.81-6.81h3.28A6.83,6.83,0,0,1,225.1,261Z"/><line class="cls-24" x1="274.26" y1="148.14" x2="252.22" y2="163.73"/><line class="cls-24" x1="270.21" y1="142.83" x2="278.61" y2="153.86"/><line class="cls-24" x1="276.04" y1="136.18" x2="286.37" y2="150.03"/><line class="cls-25" x1="283.66" y1="131.54" x2="292.17" y2="125.58"/><line class="cls-25" x1="288.33" y1="138.23" x2="296.85" y2="132.27"/><line class="cls-25" x1="293.01" y1="144.91" x2="301.53" y2="138.95"/><path class="cls-23" d="M207.37,124.55c4.58-7.29,11.89-7.17,16.23.27l20,34.23c4.34,7.43.85,13.51-7.76,13.51h-43c-8.61,0-11.9-6-7.32-13.25Z"/><path class="cls-26" d="M197.63,143.44H208.4a3.2,3.2,0,0,1,3.2,3.2v6a7,7,0,0,1-7,7H201.4a7,7,0,0,1-7-7v-6a3.2,3.2,0,0,1,3.2-3.2Z"/><path class="cls-26" d="M220.28,143.44H231a3.2,3.2,0,0,1,3.2,3.2v6a7,7,0,0,1-7,7h-3.22a7,7,0,0,1-7-7v-6a3.2,3.2,0,0,1,3.2-3.2Z"/><line class="cls-26" x1="211.61" y1="146.64" x2="217.07" y2="146.64"/><polygon class="cls-27" points="197.92 164.29 231.58 164.29 228.58 170.41 200.92 170.41 197.92 164.29"/><line class="cls-27" x1="224.6" y1="164.29" x2="224.6" y2="170.41"/><line class="cls-27" x1="206.04" y1="164.29" x2="206.04" y2="170.41"/><line class="cls-27" x1="218.61" y1="164.29" x2="218.61" y2="170.41"/><line class="cls-27" x1="211.61" y1="164.29" x2="211.61" y2="170.41"/><line class="cls-28" x1="223.77" y1="148.93" x2="224.08" y2="151.83"/><line class="cls-28" x1="204.92" y1="148.31" x2="204.27" y2="151.83"/><line class="cls-27" x1="221.27" y1="150.07" x2="226.77" y2="150.07"/><line class="cls-27" x1="201.85" y1="150.07" x2="207.34" y2="150.07"/><line class="cls-29" x1="218.61" y1="139.61" x2="226.77" y2="136.95"/><line class="cls-29" x1="210.95" y1="139.61" x2="202.79" y2="136.95"/><path class="cls-23" d="M174.5,138.23a2.08,2.08,0,0,0,2.37,2.8c5.63-1.21,15.92-3.67,18.73-6.06a9.33,9.33,0,1,0-12.08-14.23C180.71,123.12,176.61,132.87,174.5,138.23Z"/><ellipse class="cls-9" cx="207.34" cy="351.91" rx="34.34" ry="13.77"/><rect class="cls-18" x="506.23" y="152.98" width="306.25" height="108.78" rx="54.39" ry="54.39"/><path class="cls-10" d="M622,200.9a22,22,0,0,0,7.68,7.28,16.66,16.66,0,0,0-3.1,3.7,24.24,24.24,0,0,1-7.28-8.35v10.34h-4.61V203.61a25,25,0,0,1-8.75,8.55,18.67,18.67,0,0,0-3.14-3.74,22.23,22.23,0,0,0,8.87-7.52H607V186.82h7.64v-2.47h-9v-2.78c-1,3.1-2,6.64-3,9.27a12.25,12.25,0,0,1,2.9,8c0,2.55-.52,4.22-1.75,5.09a5.69,5.69,0,0,1-2.31.84,16.83,16.83,0,0,1-2.54.08,10.05,10.05,0,0,0-1-4c.72,0,1.27,0,1.75,0a2.06,2.06,0,0,0,1.11-.36c.44-.32.6-1.11.6-2.23a10.65,10.65,0,0,0-2.74-7c.79-2.51,1.63-6,2.27-8.67h-3.1v31.23h-4.1V178.43h8.63l.68-.2,3.1,1.79-.12.36h8.67v-3.62h4.61v3.62h9.31v4h-9.31v2.47h8V200.9Zm-10.82-8.59h3.5v-2.15h-3.5Zm0,5.25h3.5v-2.15h-3.5Zm8.12-7.4v2.15h3.62v-2.15Zm3.62,5.25h-3.62v2.15h3.62Z"/><path class="cls-10" d="M674.63,209.49c0,2.07-.4,3.14-1.79,3.82s-3.26.68-5.77.68a17.37,17.37,0,0,0-1.35-4c1.51.08,3.06,0,3.58,0s.64-.12.64-.6v-8H665.6a39.3,39.3,0,0,1,3.9,6.13l-3.34,1.75a14.34,14.34,0,0,0-.87-1.75l-16.39,1.91-.72-4.06c2.11-.16,4.85-.4,7.8-.72v-3.26h-9.15v12.37h-4.46V201.46H641v-3.94h1.35v-1.19h4.46v1.19H656v-2.43H645.23V185H656v-2.43c-4.22.24-8.51.36-12.45.4a13.76,13.76,0,0,0-1-3.86,260.89,260.89,0,0,0,28.48-2l2.79,3.82c-3.9.64-8.47,1.07-13.25,1.39V185h11.22v10.1H660.55v2.43h14.08Zm-18.66-18v-2.86h-6.36v2.86Zm4.58-2.86v2.86h6.52v-2.86ZM663.17,204c-.32-.44-.64-.88-.92-1.31l2.9-1.27h-4.61v2.82Z"/><path class="cls-10" d="M716.28,197a23.85,23.85,0,0,1-3.7,7.4,80.83,80.83,0,0,1,11,5.41l-3.5,4.18A82.22,82.22,0,0,0,708.88,208c-4.1,3.14-9.71,4.89-17.22,6a20.42,20.42,0,0,0-2.94-4.77c6.29-.56,11.06-1.63,14.6-3.54-3.42-1.43-7-2.71-10.1-3.7a57.9,57.9,0,0,0,3.22-5h-7.76v-4.46h10.14a49.2,49.2,0,0,0,2.63-6.17l5.53,1c-.64,1.63-1.39,3.38-2.23,5.13h7c.2-1.11.32-2.35.44-3.62l5.73.36v-3.86H694.25v4.46h-4.81V181h14.12c-.44-1.15-1-2.39-1.39-3.46l5.33-1.23c.68,1.43,1.51,3.22,2.07,4.69H723v8.83h-5c-.16.91-.32,1.79-.48,2.67h6.25V197Zm-13.8,0c-.6,1-1.15,2-1.75,2.94,2.23.72,4.49,1.55,6.84,2.43a16.73,16.73,0,0,0,3-5.37Z"/><path class="cls-10" d="M582.32,243.1v2.14H564V243.1h7.91v-1.41h-5.35v-1.93h5.35v-1.27h-4.4a14.35,14.35,0,0,1-1.91,2.08,12.64,12.64,0,0,0-2.08-1.51,11.63,11.63,0,0,0,3.44-4.23h-1V227.1h14.19v7.72H567.81l1.72.5c-.19.37-.37.75-.6,1.14h3v-1.27h2.55v1.27H581v2H574.5v1.27h5.56v1.93H574.5v1.41Zm-13.84-13h9.17V229h-9.17Zm0,2.86h9.17v-1.12h-9.17Z"/><path class="cls-10" d="M607.57,233.93a46.56,46.56,0,0,1-3.42,4,11.43,11.43,0,0,0,3.88,4.36,5.34,5.34,0,0,0-1.52,1.87,13.82,13.82,0,0,1-3.92-4.48V243c0,1.25-.25,1.89-1,2.28a6.81,6.81,0,0,1-3.3.52,10.82,10.82,0,0,0-.83-2.39c1,0,2,0,2.28,0s.46-.1.46-.41v-3.4c-1.45,1.41-2.95,2.84-4.23,4l-1.14-1.74-6.16,2-.52-2.34q1.09-.28,2.49-.68v-5h-2.08v-2.26h2.08v-3.65h-2.18v-2.3h6.58v2.3H593v3.65h1.79v2.26H593v4.34l2.12-.64.23,1.35c1.35-1,3.2-2.45,4.92-3.88v-5h-4.77v-2.26h4.77V226.4h2.37v3.32h2.82a15.41,15.41,0,0,0-2.18-2l1.35-1.25a12.64,12.64,0,0,1,2.49,2.05l-1.18,1.14h1.78V232h-5.08v.83a25.53,25.53,0,0,0,.75,3.07,27.15,27.15,0,0,0,2.1-3.07Zm-10.09-1a15.59,15.59,0,0,1,2,3.65l-2,.93a16.66,16.66,0,0,0-1.89-3.74Z"/><path class="cls-10" d="M632.45,232.21V234H628.7l-.17,1.62H616.6l.21-1.62h-3.26v-1.76h3.51l.21-1.58H629l-.15,1.58Zm-5.52,10.71c1.83.5,3.65,1,4.88,1.43l-1.68,1.51c-1.49-.56-3.92-1.39-6.31-2l.85-.93h-3.8l1.24.91a25.66,25.66,0,0,1-7.05,2.05,11.89,11.89,0,0,0-1.31-1.68,27.68,27.68,0,0,0,5.46-1.29h-3v-6.72h13.53v6.72Zm-10.58-11.25h-2.22v-3.61h7.57a10,10,0,0,0-.6-1.25l2.16-.6a11.15,11.15,0,0,1,1,1.85h7.58v3.61h-2.3V230H616.35Zm2.28,6.37h8.63v-.6h-8.63Zm0,1.83h8.63v-.64h-8.63Zm0,1.83h8.63V241h-8.63Zm.33-7.33h2.74l.08-.66H619Zm.31-2.49-.08.6h2.72l.06-.6Zm7.12,2.49.06-.66H623.8l-.08.66Zm.21-2.49H624l0,.6h2.62Z"/><path class="cls-10" d="M638,243.89a25.2,25.2,0,0,0,.85-4.48l1.22.44a27,27,0,0,1-.75,4.5Zm12.41-4.17c-.12.54-.27,1.08-.44,1.6a9.94,9.94,0,0,1,2,1.52l-1.2,1.6a12.36,12.36,0,0,0-1.47-1.29,10,10,0,0,1-1.78,2.64,13.1,13.1,0,0,0-1.56-1.33,1.34,1.34,0,0,1-.21.46,1.47,1.47,0,0,1-1.14.69,8.51,8.51,0,0,1-1.72.08,5.06,5.06,0,0,0-.48-1.83,9.64,9.64,0,0,0,1.16.06.52.52,0,0,0,.52-.23,5.31,5.31,0,0,0,.29-1.79l-.73.27a17.65,17.65,0,0,0-.83-2.68l.87-.29a16.54,16.54,0,0,1,.73,2c0-.66.06-1.49.1-2.49H639.1V227.16h7.18v2h-2.12v1.37h1.79V231a15.08,15.08,0,0,0,5.31-4.92l2.2.77a6.9,6.9,0,0,1-.42.64,16.24,16.24,0,0,0,4.65,2.8,9.21,9.21,0,0,0-.91,2.26,18.64,18.64,0,0,1-1.93-1.14v1.37h-6.1v-1c-.48.31-1,.6-1.43.89a9.76,9.76,0,0,0-1.37-1.43v1.14h-1.79v1.22H646v1.81h-1.85v1.31h2.3s0,.54,0,.79a41.11,41.11,0,0,1-.46,6.81,9.15,9.15,0,0,0,2.39-4.94Zm-9.09,0c.1,1.18.17,2.74.17,3.78l-1.08.13c0-1,0-2.62-.1-3.82ZM641,229.18v1.37h1.29v-1.37Zm1.29,3.2H641v1.22h1.29ZM641,236.71h1.29V235.4H641Zm1.56,2.82a29.65,29.65,0,0,1,.6,3.34l-1,.21a24.59,24.59,0,0,0-.56-3.38Zm4.44-5.62h4.44v5H647Zm1.6,3.49h1.14v-2H648.6Zm5.52-6.45c-.81-.6-1.6-1.22-2.3-1.87a15.68,15.68,0,0,1-2,1.87Zm1.52,8.7a17.75,17.75,0,0,1-.58,2.41,20.26,20.26,0,0,1,2.41,1.83L656,245.55a15,15,0,0,0-1.81-1.56,8.69,8.69,0,0,1-1.22,1.78,11.17,11.17,0,0,0-1.78-1.37,9.1,9.1,0,0,0,2.22-5.15Zm-3.53-5.73h4.61v5h-4.61Zm1.6,3.49H655v-2H653.7Z"/><path class="cls-10" d="M667.4,232.21v-.81a22.14,22.14,0,0,1-2.22,1.49h8.76v6.52h-7.2c0,.21-.06.44-.1.64h7.8v5.54h-2.16V245h-3.84v.64h-2.05v-4.3a13.18,13.18,0,0,1-1.33,3.63,11.26,11.26,0,0,0-2.16-1c1.64-2.64,1.81-6.35,1.81-8.78v-2.1l-.48.25a13.16,13.16,0,0,0-1.29-2.37,14.29,14.29,0,0,0,6.16-4.71l2.26.89c-.12.19-.25.35-.37.52,1.54.89,3.26,1.91,4.21,2.59l-1.27,2.08c-.56-.46-1.37-1-2.26-1.58v1.35Zm4.29,5.5v-.85h-4.75c0,.27,0,.56,0,.85ZM667,234.59v.81h4.71v-.81Zm4.54-3.84-2-1.25c-.44.42-.89.85-1.35,1.25Zm-3.09,11v1.47h3.84v-1.47Zm9.48-1.64H675.6V228.51h2.32Zm3.8-13.65v16.35c0,1.33-.25,2-1,2.39a7.87,7.87,0,0,1-3.57.5,10.11,10.11,0,0,0-.73-2.47c1.06,0,2.14,0,2.47,0s.48-.1.48-.46V226.44Z"/><path class="cls-10" d="M694.92,227.2a32.4,32.4,0,0,1-2,4.32v14.21h-2.49V235.36c-.44.52-.87,1-1.29,1.49a16.85,16.85,0,0,0-1.37-2.64,21.58,21.58,0,0,0,4.73-7.76Zm6.58,4.9v2.18h5.38v2.24H701.5v2.34h5.64v2.28H701.5v4.61H699V232.1h-.79a23,23,0,0,1-2.72,4,16.72,16.72,0,0,0-1.89-1.72,20.61,20.61,0,0,0,4.4-7.82l2.39.6a24.3,24.3,0,0,1-1,2.57h8.05v2.34Z"/><path class="cls-10" d="M722,230.77c-.31,3.49-1.37,5.27-7.37,6.06a5.55,5.55,0,0,0-1.16-2c5-.5,5.79-1.56,6-4h-3.49v2.82h-2.43v-5.06h7.64c-.21-.56-.42-1.12-.64-1.62l2.59-.73c.37.73.81,1.6,1.1,2.34h7.41v4.67H729v-2.43h-2.93v2.51c0,.58.1.79.73.79h3.09a11.48,11.48,0,0,0,2-.15c.06.64.12,1.6.21,2.18a8.43,8.43,0,0,1-2.1.17h-3.22c-2.47,0-3.13-.79-3.13-3v-2.47ZM724,243h7.7v2.32H713.53V243h7.85v-3.34h-5.52v-2.28h13.82v2.28H724Z"/><path class="cls-10" d="M741.22,234.65v11.1h-2.45V227.16h7.95v7.49Zm0-5.71V230h3.2v-1.1Zm3.2,3.94v-1.18h-3.2v1.18Zm11.87,9.94c0,1.33-.27,2.05-1.1,2.45a9,9,0,0,1-3.8.48,9.08,9.08,0,0,0-.54-1.93H745.7v1.06h-2.24v-9h8v7.37c.81,0,1.58,0,1.85,0s.5-.12.5-.46V234.7h-5.64v-7.53h8.13Zm-10.58-5.11V239h3.42v-1.25Zm3.42,4.3v-1.29H745.7V242Zm1.37-13.07V230h3.3v-1.1Zm3.3,4v-1.22h-3.3v1.22Z"/><path class="cls-18" d="M525.4,191.5H475.25a2.18,2.18,0,0,0-1.54,3.72l50,22.72a2.18,2.18,0,0,0,3.72-1.53l.15-22.72A2.18,2.18,0,0,0,525.4,191.5Z"/><path class="cls-18" d="M650.62,115.48h6l2.34-8.54h-6l1.32-4.87h6l3.23-11.78h5.89l-3.23,11.78H671l3.21-11.78h5.89l-3.21,11.78h6l-1.32,4.87h-6l-2.33,8.54h6L678,120.35h-6L668.76,132h-5.88L666,120.35h-4.88L658,132h-5.89l3.2-11.66h-6Zm16.75,0,2.33-8.54h-4.86l-2.34,8.54Z"/><path class="cls-18" d="M693.5,102.85l1.21-5.66a40.1,40.1,0,0,0,5.71-.52A10.21,10.21,0,0,0,705,94.45a9.31,9.31,0,0,0,2.31-3,7.78,7.78,0,0,0,.71-1.69h7L706,132h-8.65l6.28-29.16Z"/><path class="cls-18" d="M722.4,123.7q2.72-4.23,10.45-9a85,85,0,0,0,8.82-5.89,11.17,11.17,0,0,0,3.94-6.06,5.77,5.77,0,0,0-.53-4.46,4.29,4.29,0,0,0-3.94-1.78,6.74,6.74,0,0,0-5.86,2.83,16.07,16.07,0,0,0-2,5.19H725a24.44,24.44,0,0,1,3.85-8.72q4.74-6.33,13.35-6.33,6.81,0,10,3.72t1.89,9.84a16.64,16.64,0,0,1-4.62,8.34,38.86,38.86,0,0,1-7.31,5.39l-3.88,2.36q-3.64,2.22-5,3.21a12.5,12.5,0,0,0-2.46,2.3h18.74L748,132h-29.4A23.92,23.92,0,0,1,722.4,123.7Z"/><path class="cls-30" d="M562.69,92h3.61l6.54,11.31V92H576v16.22H572.6L565.9,96.66v11.51h-3.21Z"/><path class="cls-30" d="M591.45,94.82h-8.72v3.44h8v2.82h-8v4.17h9.12v2.92H579.37V92h12.08Z"/><path class="cls-30" d="M596.78,92l2.17,9.29.47,2.58.47-2.53L601.76,92h3.63l2,9.29.5,2.59.51-2.49,2.2-9.39h3.51l-4.63,16.22h-3.29l-2-9.49-.58-3.14L603,98.69l-2,9.49h-3.2L593.12,92Z"/><polygon class="cls-30" points="581.1 116.08 588.9 132.01 596.46 116.08 581.1 116.08"/></g></g></svg>