<svg xmlns="http://www.w3.org/2000/svg" viewBox="0 0 273.81 89.55"><defs><style>.cls-1{fill:#6bffba;}.cls-2{fill:#00364b;}</style></defs><title>Asset 18</title><g id="Layer_2" data-name="Layer 2"><g id="對話框"><rect class="cls-1" width="273.81" height="49.48" rx="24.53" ry="24.53"/><path class="cls-2" d="M39.88,31.42c1.6,0,1.89-.32,2.11-2.17a7.07,7.07,0,0,0,2.22.81C43.81,32.8,43,33.6,40,33.59l-6.35,0c-3.58,0-4.63-.72-4.63-3.45l0-7.33c-.43.41-.86.82-1.27,1.16a18.17,18.17,0,0,0-1.88-1.76A15.93,15.93,0,0,0,31,15.63l2.4.73a20.31,20.31,0,0,1-1,1.93l10.29,0s0,.68,0,1c-.2,6.12-.38,8.4-.93,9.15a1.89,1.89,0,0,1-1.43.87,11,11,0,0,1-2.24.07,5.18,5.18,0,0,0-.59-2.2,12.18,12.18,0,0,0,1.58.06.61.61,0,0,0,.61-.27c.31-.41.47-2.06.63-6.49l-9.28,0c-.37.51-.74,1-1.12,1.42l7.44,0,0,6.24-6,0v2c0,1.13.31,1.31,2.33,1.31Zm-8.51-7.51v2.14h3.7V23.92Z"/><path class="cls-2" d="M63.27,31.51c1.6,0,1.89-.32,2.11-2.17a7,7,0,0,0,2.22.81c-.4,2.75-1.18,3.54-4.18,3.53l-6.35,0c-3.58,0-4.63-.72-4.62-3.45l0-7.33c-.43.41-.86.82-1.27,1.16a18.06,18.06,0,0,0-1.88-1.76,15.93,15.93,0,0,0,5.11-6.57l2.4.73a20.31,20.31,0,0,1-1,1.93l10.29,0s0,.68,0,1c-.2,6.12-.38,8.4-.93,9.16a1.89,1.89,0,0,1-1.43.87,11,11,0,0,1-2.24.07,5.18,5.18,0,0,0-.59-2.2,12.36,12.36,0,0,0,1.58.06.61.61,0,0,0,.61-.27c.31-.41.47-2.06.63-6.49l-9.28,0c-.37.51-.74,1-1.12,1.42l7.44,0,0,6.24-6,0v2c0,1.13.31,1.31,2.33,1.31ZM54.76,24v2.14h3.7V24Z"/><path class="cls-2" d="M77.67,24.84A13.06,13.06,0,0,0,79,23l1.36,1.27c-.62.56-1.21,1.14-1.7,1.61L80,27.33l-1.21,1.81a26.08,26.08,0,0,0-1.51-2.19l0,7.15H75.2l0-7a14.52,14.52,0,0,1-1.84,1.8,9.94,9.94,0,0,0-1-2.3,15.49,15.49,0,0,0,4.44-5.34H73V19.19h3.1a26,26,0,0,0-1.43-2.38l1.66-1A20.35,20.35,0,0,1,78,18.28l-1.33.93H78l.37-.1,1.15.94a22.15,22.15,0,0,1-2.22,4.34v.12Zm13.15,6.85v2l-11.09,0v-2l4.33,0v-2H80.48v-2h3.58V26.13h-3.7l0-9.29,9.72,0,0,9.29H86.24v1.52h4v2h-4v2Zm-6.73-7.51V22.37H82.45v1.81Zm-1.62-3.63H84.1V18.79H82.47Zm5.47,1.83H86.25v1.81h1.68Zm0-3.58H86.27v1.77h1.68Z"/><path class="cls-2" d="M114.5,18.1c-.71,1.87-1.57,4.07-2.38,5.78a6.24,6.24,0,0,1,2,4.53c0,1.46-.32,2.42-1.1,2.92a3,3,0,0,1-1.37.52,9.57,9.57,0,0,1-1.7,0,5.64,5.64,0,0,0-.58-2.24,9.21,9.21,0,0,0,1.23,0,1.59,1.59,0,0,0,.78-.17c.37-.21.51-.68.51-1.32a5.61,5.61,0,0,0-2-4c.57-1.4,1.24-3.37,1.73-4.86h-2.47l-.06,14.93h-2.28l.06-16.68a23.64,23.64,0,0,1-2.1,4.14h1.44v2h-2.9c-.41.5-.82,1-1.25,1.42h3.51l0,8.79h-2.2v-.74h-3.14v1h-2.1l0-5.9c-.33.21-.67.41-1,.58a11.91,11.91,0,0,0-1.34-1.94,18,18,0,0,0,4.67-3.2l-4.15,0v-2H99.7v-1.6H97.15v-2h2.55V16.17h2.14v1.89h2v1a18.52,18.52,0,0,0,1-2.18l2,.57V17.1l5.61,0,.35-.08ZM103.33,31.31V29.93H100.2V31.3Zm0-4.37h-3.14v1.25h3.14Zm-1.11-5.28c.37-.51.72-1,1.08-1.59h-1.46v1.6Z"/><path class="cls-2" d="M136.7,29.19a23.91,23.91,0,0,1-3.1,1.82,13.1,13.1,0,0,0,4.24,1.46,7.84,7.84,0,0,0-1.31,1.87c-4.05-.89-6.52-2.91-8-6.19h0A12.61,12.61,0,0,1,126,29.7v2.14l3.9-.75a13.6,13.6,0,0,0-.16,1.87c-5,1-5.7,1.19-6.14,1.46a5.45,5.45,0,0,0-.85-1.72,1.93,1.93,0,0,0,1-1.73v-.33a21,21,0,0,1-3.12.79,8.85,8.85,0,0,0-1.22-1.64,21.85,21.85,0,0,0,5.85-1.65l-5.5,0V26.36l7.62,0a8.52,8.52,0,0,0-.41-.94l2.26-.63a14.81,14.81,0,0,1,.77,1.58l7.42,0v1.75h-2.16Zm-13.48-6.42a4,4,0,0,1-2.6,3.38,4.76,4.76,0,0,0-1.14-1.5,2.48,2.48,0,0,0,1.63-1.88h-1.29V21l4.85,0v-.88h-4v-3.8h1.95v2h2.08V16.09h2.2l0,9.63h-2.2V22.78Zm8-2.31h-3.78V18.5h3.78V16.1h2.3v2.42h3.84v1.95h-3.84v2.4h3.41v1.95l-9,0V22.85h3.27Zm-.52,7.7a7.35,7.35,0,0,0,1.38,1.72,22.11,22.11,0,0,0,2.7-1.7Z"/><path class="cls-2" d="M160.06,18.81a32.31,32.31,0,0,1-6.72,5.39l0,7.52c0,1.33-.32,1.95-1.28,2.29a13.09,13.09,0,0,1-4.23.37,8.33,8.33,0,0,0-.93-2.34c1.38.06,3,0,3.41.05s.58-.11.58-.45l0-8.63a24,24,0,0,0,4.49-3.18l-11.24,0V17.53l13.52.05.51-.13Z"/><path class="cls-2" d="M175.7,26.08c-3.2.4-6.65.77-9.12,1.06l-.23-2.3,1.07-.09,0-6.51h2.14l0,6.31,1.11-.09,0-8.18H173v2.92h2.53v2.07H173v3l2.69-.28Zm-9.1,5.66,17.58.06v2.32l-17.58-.06Zm2.26-4,13.25,0V30l-13.25,0ZM179,26.56c-2.26,0-2.82-.73-2.81-3l0-7.25h2.32v2.94l4.54,0v2.07l-4.54,0v2.22c0,.74.11.86.83.86h2.08c.62,0,.76-.35.85-2.24a7.23,7.23,0,0,0,2.1.92c-.26,2.69-.89,3.49-2.74,3.48Z"/><path class="cls-2" d="M196.29,17.12a33.42,33.42,0,0,1-1.71,3.72l-.05,13.68h-2.28l0-10.05a19.91,19.91,0,0,1-1.47,1.75,15.64,15.64,0,0,0-1.24-2.4,20.44,20.44,0,0,0,4.51-7.39Zm11.45,8-4.79,0,0,9.49h-2.42l0-9.49-5,0V22.78l5,0,0-6.14H203l0,6.14,4.79,0Z"/><path class="cls-2" d="M216.66,19.88v3.35c0,3.18-.3,8.18-1.76,11.33A8.75,8.75,0,0,0,213,33.2c1.28-2.9,1.39-7.07,1.4-10l0-5.36,7.31,0c-.1-.41-.21-.84-.31-1.17l2.34-.42a15.34,15.34,0,0,1,.52,1.6l6.64,0v2Zm2.19,4.47a4,4,0,0,1-1,3,5,5,0,0,0-1.11-.9,2.64,2.64,0,0,0,.87-2.18v-.76h1.27Zm8.87,5.39c1,1.15,2.41,2.79,3.14,3.79l-1.78.93c-.19-.29-.45-.64-.72-1-9.18.63-10.25.64-11,.88a18,18,0,0,0-.54-1.85,7.45,7.45,0,0,0,2.32-.85,20.53,20.53,0,0,0,2.21-1.1,13.75,13.75,0,0,0-3.29.36,14.76,14.76,0,0,0-.52-1.72,3.7,3.7,0,0,0,1.27-.48,17.39,17.39,0,0,0,3.28-2.17c-.43-.18-.52-.57-.52-1.25V23.62h1.23v1.66c0,.29,0,.39.21.39a2.32,2.32,0,0,0,.62-.06c0,.19,0,.39,0,.6a2.45,2.45,0,0,0,.79-2v-.74h1.27v.8a3.63,3.63,0,0,1-1,2.86,4.31,4.31,0,0,0-1-.84l0,.19a2.24,2.24,0,0,1-.68.08h-.37l1.19.76a24.06,24.06,0,0,1-3.09,1.92l2.9-.13a24.66,24.66,0,0,0,2.6-1.82L228,28.5a40.3,40.3,0,0,1-6.29,3.7l5.48-.35c-.39-.45-.78-.92-1.11-1.33ZM219.36,27V22.93h-2.12V21.19h2.12v-.9h1.73v.9h2.36v1.73h-2.36V27Zm6.94.06V23H224V21.21h2.34v-.9h1.73v.9h2.77V23H228v4.11ZM230.37,26a3.35,3.35,0,0,0,.76-.08c0,.29,0,.66.08,1a3.09,3.09,0,0,1-.8.08h-.68c-1,0-1.19-.45-1.18-1.43V23.55h1.31v2c0,.31,0,.43.25.43Z"/><path class="cls-2" d="M244.75,22.38c0-1.17-.93-1.83-2.45-1.84a4,4,0,0,0-3.12,1.53l-1.59-1.49a6.48,6.48,0,0,1,5-2.36c2.83,0,4.89,1.32,4.88,3.92,0,2.86-4.26,3.18-4,5.89H241C240.61,25,244.74,24.27,244.75,22.38Zm-2.48,7a1.92,1.92,0,1,1-2,1.9A1.9,1.9,0,0,1,242.27,29.37Z"/><path class="cls-1" d="M180.92,49.37,188.44,86c1,4.86,4.64,4.73,5.54-.19l6.72-36.61c.67-3.65-.76-7.46-2.79-7.46H183.67C181.59,41.72,180.16,45.69,180.92,49.37Z"/></g></g></svg>