<svg xmlns="http://www.w3.org/2000/svg" viewBox="0 0 53.6 70.21"><defs><style>.cls-1{fill:#bebebe;}.cls-2{fill:#ff9947;}.cls-3{fill:#e0e0e0;}.cls-10,.cls-11,.cls-12,.cls-4,.cls-5,.cls-6,.cls-8,.cls-9{fill:none;}.cls-4{stroke:#ff9947;stroke-width:0.97px;}.cls-10,.cls-11,.cls-12,.cls-13,.cls-4,.cls-5,.cls-6,.cls-8,.cls-9{stroke-linecap:round;}.cls-4,.cls-5,.cls-6,.cls-8,.cls-9{stroke-miterlimit:10;}.cls-5,.cls-6,.cls-9{stroke:#e0e0e0;}.cls-5{stroke-width:1.41px;}.cls-6{stroke-width:0.94px;}.cls-13,.cls-7{fill:#ffcd32;}.cls-8{stroke:#ffcd32;stroke-width:1.55px;}.cls-9{stroke-width:1.23px;}.cls-10,.cls-11,.cls-12,.cls-13{stroke:#004864;stroke-linejoin:round;}.cls-10{stroke-width:0.9px;}.cls-11,.cls-13{stroke-width:0.6px;}.cls-12{stroke-width:1.2px;}.cls-14{fill:#004864;}.cls-15{fill:#6bffba;}</style></defs><title>資產 129</title><g id="圖層_2" data-name="圖層 2"><g id="頂部小人"><ellipse class="cls-1" cx="41.38" cy="59.04" rx="10.3" ry="4.13"/><ellipse class="cls-2" cx="4.62" cy="49.96" rx="4.62" ry="2.36"/><ellipse class="cls-2" cx="4.62" cy="41.17" rx="4.61" ry="2"/><rect class="cls-2" x="0.01" y="41.17" width="9.22" height="8.79"/><ellipse class="cls-3" cx="4.61" cy="41.43" rx="4.49" ry="1.8"/><path class="cls-4" d="M1.09,41.3S.83,33.08,5.4,33.08c3.22,0,3.12,6.09,3.12,6.09"/><line class="cls-5" x1="4.27" y1="42.95" x2="4.27" y2="45.39"/><line class="cls-6" x1="5.74" y1="42.82" x2="5.74" y2="44.48"/><path class="cls-7" d="M17.35,7.09a1.56,1.56,0,0,1,2.9,0l3.57,6.11c.77,1.33.15,2.41-1.38,2.41H14.75c-1.54,0-2.12-1.06-1.31-2.36Z"/><path class="cls-7" d="M33.94,12.85a2,2,0,0,0-2,2v1.84a2.05,2.05,0,0,1-2,2H8.45A2.58,2.58,0,0,0,6,20.8L3.83,32.35a2,2,0,0,0,1.64,2.32h0A2.14,2.14,0,0,0,7.91,33l1.53-8A2.21,2.21,0,0,1,11.7,23.2a1.91,1.91,0,0,1,1.62,2.21l-1.24,9.75a39.17,39.17,0,0,0-.26,4.07V53.11a2,2,0,0,1-2,2H4.87a2,2,0,0,0-2,2v.14a2,2,0,0,0,2,2H14a2,2,0,0,0,2-2v-.46a2,2,0,0,1,2-2h5.21a2,2,0,0,0,2-2V39.23c0-1.12-.1-3-.21-4.08L24.09,25a1.81,1.81,0,0,1,1.83-2h8.16a2,2,0,0,0,2-2V14.89a2,2,0,0,0-2-2ZM21.13,48.56a2,2,0,0,1-2,2h-1a2,2,0,0,1-2-2V42.75a2,2,0,0,1,2-2h1a2,2,0,0,1,2,2Z"/><line class="cls-8" x1="35.88" y1="8.89" x2="29.27" y2="13.57"/><line class="cls-8" x1="34.66" y1="7.3" x2="37.18" y2="10.6"/><line class="cls-8" x1="36.41" y1="5.3" x2="39.51" y2="9.46"/><line class="cls-9" x1="38.7" y1="3.91" x2="41.25" y2="2.12"/><line class="cls-9" x1="40.1" y1="5.92" x2="42.65" y2="4.13"/><line class="cls-9" x1="41.5" y1="7.92" x2="44.06" y2="6.13"/><path class="cls-7" d="M15.81,1.81c1.38-2.19,3.57-2.15,4.87.08l6,10.27c1.3,2.23.26,4.05-2.33,4.05H11.44c-2.58,0-3.57-1.79-2.2-4Z"/><path class="cls-10" d="M12.89,7.48h3.23a1,1,0,0,1,1,1v1.81A2.09,2.09,0,0,1,15,12.34H14a2.09,2.09,0,0,1-2.09-2.09V8.44a1,1,0,0,1,1-1Z"/><path class="cls-10" d="M19.68,7.48h3.23a1,1,0,0,1,1,1v1.81a2.09,2.09,0,0,1-2.09,2.09h-1a2.09,2.09,0,0,1-2.09-2.09V8.44a1,1,0,0,1,1-1Z"/><line class="cls-10" x1="17.08" y1="8.44" x2="18.72" y2="8.44"/><polygon class="cls-11" points="12.98 13.73 23.07 13.73 22.17 15.57 13.88 15.57 12.98 13.73"/><line class="cls-11" x1="20.98" y1="13.73" x2="20.98" y2="15.57"/><line class="cls-11" x1="15.41" y1="13.73" x2="15.41" y2="15.57"/><line class="cls-11" x1="19.18" y1="13.73" x2="19.18" y2="15.57"/><line class="cls-11" x1="17.08" y1="13.73" x2="17.08" y2="15.57"/><line class="cls-12" x1="20.73" y1="9.13" x2="20.82" y2="10"/><line class="cls-12" x1="15.07" y1="8.94" x2="14.88" y2="10"/><line class="cls-11" x1="19.98" y1="9.47" x2="21.63" y2="9.47"/><line class="cls-11" x1="14.15" y1="9.47" x2="15.8" y2="9.47"/><line class="cls-13" x1="19.18" y1="6.33" x2="21.63" y2="5.53"/><line class="cls-13" x1="16.88" y1="6.33" x2="14.44" y2="5.53"/><path class="cls-7" d="M5.95,5.91a.62.62,0,0,0,.71.84c1.69-.36,4.78-1.1,5.62-1.82A2.8,2.8,0,0,0,8.66.67C7.81,1.38,6.58,4.31,5.95,5.91Z"/><ellipse class="cls-1" cx="15.8" cy="66.43" rx="9.42" ry="3.78"/><circle class="cls-14" cx="41.38" cy="38.42" r="12.22" transform="translate(-13.13 53.18) rotate(-58.02)"/><path class="cls-15" d="M36.71,31.21c3.21-2.81,6.93-4.47,11.06-3.25a12.22,12.22,0,0,0-14.52,1.17C29.1,32.75,27.37,40.3,31.56,45.7,29.67,41.08,33.5,34,36.71,31.21Z"/></g></g></svg>