<svg xmlns="http://www.w3.org/2000/svg" viewBox="0 0 71.21 43.72"><defs><style>.cls-1{fill:#6bffba;}.cls-2{fill:#006464;}</style></defs><title>資產 133</title><g id="圖層_2" data-name="圖層 2"><g id="頂部小人"><rect class="cls-1" width="71.21" height="36.13" rx="18.06" ry="18.06"/><path class="cls-1" d="M31.11,35.4V43a.72.72,0,0,0,1.24.51L39.89,36a.72.72,0,0,0-.51-1.24l-7.55,0A.72.72,0,0,0,31.11,35.4Z"/><path class="cls-2" d="M23.82,18.23a17.75,17.75,0,0,1-1.17,3.9c.24.15.52.36.93.6a8.28,8.28,0,0,0,4.18.7A50.87,50.87,0,0,0,33.84,23a6.47,6.47,0,0,0-.53,1.83c-1.23.08-3.88.18-5.64.18a8.25,8.25,0,0,1-4.33-.79c-.63-.35-1.17-.84-1.47-.84s-.88,1-1.24,1.87l-1.2-1.69A7.09,7.09,0,0,1,21,22.16a14.52,14.52,0,0,0,.87-2.59H20c.34-.89.73-2.08,1.08-3.25H19.7V14.72h3.51c-.31,1-.67,2.25-1,3.3h.61l.27-.06ZM21.29,14.3c-.16-.69-.57-1.77-.81-2.6l1.57-.46c.27.79.66,1.8.87,2.48Zm6.2-.56H23.74V12.3h3.75V11.24h1.74V12.3h3.93v1.44H29.23v.73H32.5v5.1H29.23v.69h4.1v1.45h-4.1v1.35H27.49V21.72H23.77V20.27h3.72v-.69H24.34v-5.1h3.15ZM26,16.44h1.51v-.73H26Zm1.51,1.91v-.77H26v.77Zm1.74-2.64v.73h1.56v-.73Zm1.56,1.88H29.23v.77h1.56Z"/><path class="cls-2" d="M47.3,22.47A31.73,31.73,0,0,1,51.45,24L50,25.23a24.69,24.69,0,0,0-4.32-1.77l1-1H42.22l1.39,1a17.85,17.85,0,0,1-4.53,1.8A11.59,11.59,0,0,0,37.87,24,16.06,16.06,0,0,0,42,22.47h-4.1V21h2V14.4h3.58q.07-.31.13-.68H38.35V12.24h5.52c0-.37.07-.73.09-1l1.88.18-.15.87h5.23v1.48H45.4c-.06.24-.09.47-.13.68h4.08V21h1.94v1.47Zm-5.64-7v.65h5.88v-.65Zm5.88,1.65H41.67v.57h5.88Zm-5.88,1.56v.58h5.88v-.58Zm0,2.28h5.88v-.69H41.67Z"/></g></g></svg>