<svg xmlns="http://www.w3.org/2000/svg" xmlns:xlink="http://www.w3.org/1999/xlink" viewBox="0 0 392.94 150.1"><defs><style>.cls-1{fill:#fff;}.cls-2{mask:url(#mask);}.cls-3{fill:#004864;}.cls-4{fill:#00364b;}.cls-5{fill:#ff665c;}.cls-6{fill:#bebebe;}.cls-7{fill:#006464;}.cls-8{fill:none;stroke:#006464;stroke-linecap:round;stroke-miterlimit:10;}</style><mask id="mask" x="-40.39" y="-76.2" width="474.07" height="259.7" maskUnits="userSpaceOnUse"><rect class="cls-1" x="-40.39" y="-75" width="435.5" height="258.5"/><path d="M291.34,134.24a53.83,53.83,0,0,0,6.23-6.59c10.46-13.13,7.87-26.51,4.42-42.1-2.35-10.6-4.74-21.32-9.54-31.06-9-18.36-26-21.54-40.3-34.15-16-14.18-30.74-29.8-46.38-44.4-8.88-8.29-19-17.14-31.76-17.7-6.26-.29-12.15,2.68-17.11,6.22-6.08,4.34-7.21,7.23-14.91,7.09C150.6-41,163.54-50,177.09-56.93c45.49-23.31,101.22-25.61,148.48-6.14s85.19,60.37,101.06,109c5.78,17.69,8.75,36.6,6,55s-11.62,36.3-26.31,47.72c-12.26,9.53-27.8,14.09-43.27,15.5-16.15,1.47-31.94-2.41-47.89-1.71A121.34,121.34,0,0,1,273,156.9c-4.9-1.51-10.56-4.32-10.89-9.44A52.54,52.54,0,0,0,291.34,134.24Z"/></mask></defs><title>Asset 47</title><g id="Layer_2" data-name="Layer 2"><g id="小物"><g class="cls-2"><path class="cls-3" d="M380,142.95H105.27L13.74,50.58H300.5l83.09,83.84A5,5,0,0,1,380,142.95Z"/><path class="cls-4" d="M101.19,150.1,6.44,53.43s-22.7-16.59,17.15-16.59H257L392.94,150.1Z"/><path class="cls-5" d="M380.64,90.17H105.71l-87.2-88,261.1-.44L383.16,82.86A4.09,4.09,0,0,1,380.64,90.17Z"/><path class="cls-5" d="M104.94,142.95,23.6,63.64c-13.47-12.85-19.5-28-19.5-43.8S16.32-2.57,24.59,5.32l80.35,78.35Z"/><path class="cls-6" d="M104.94,137.53,25.32,57.78C14.51,47.35,8.44,36.13,8.44,22.5,8.44,5,19.47,4,26.11,10.43l78.83,79Z"/><path class="cls-7" d="M370.6,138.28H104.94s-3.75-13.66-3.75-25.78a72.33,72.33,0,0,1,3.75-22.33H370.6s-5.37,6.28-5.37,24.06S370.6,138.28,370.6,138.28Z"/><polyline class="cls-8" points="14.89 8.62 104.21 94.83 369.03 93.34"/><polyline class="cls-8" points="11.95 11.73 102.94 100.62 367.43 98.04"/><polyline class="cls-8" points="9.5 16.17 102.12 106.94 366.09 103.5"/><polyline class="cls-8" points="9.1 22.58 101.19 113.2 364.98 110"/><polyline class="cls-8" points="9.5 29.92 102.84 122.22 364.84 118.2"/><polyline class="cls-8" points="11.2 37.61 104.37 130.66 366.14 127.31"/><path class="cls-4" d="M224.48,22.72c8.73,10,16.71,20.81,26.64,29.65,9.06,8.07,20.07,15,24.69,26.21a48.54,48.54,0,0,0,4.45,7.65c2.13,3.36.6,6.7-1,9.63-6.84,12.16-10.06,21.56-9.46,37.38.07,2-.93,3.85-.67,5.79,1,7.63,10.55,6.16,16.07,7,5.23.78,9.55.28,14.76.27l47.84-.06c3.53,0,7.15,0,10.44-1.29,4.52-1.74,7.92-5.68,10-10,2.73-5.66,2.56-12,5-17.58,2.83-6.34,5.5-12.72,7.79-19.28a20.14,20.14,0,0,1,1.89-4.68c.59-.88,1.69-1.2,1.76-2.37.14-2.44-4.5-7.28-5.9-9.21-9.28-12.75-20.71-23.72-32-34.6L308.47,10.41C305,7.07,301.84,3.34,298.37,0H196.61c4.86,4.43,11,5.93,15.85,10.3A140.73,140.73,0,0,1,224.48,22.72Z"/></g></g></g></svg>