<svg xmlns="http://www.w3.org/2000/svg" viewBox="0 0 71.21 43.72"><defs><style>.cls-1{fill:#6bffba;}.cls-2{fill:#006464;}</style></defs><title>資產 3</title><g id="圖層_2" data-name="圖層 2"><g id="UI"><rect class="cls-1" width="71.21" height="36.13" rx="18.06" ry="18.06"/><path class="cls-1" d="M31.11,35.4V43a.72.72,0,0,0,1.24.51L39.89,36a.72.72,0,0,0-.51-1.24l-7.55,0A.72.72,0,0,0,31.11,35.4Z"/><path class="cls-2" d="M15.51,18.51s0,.45,0,.67c-.18,3.39-.35,4.83-.78,5.32a1.53,1.53,0,0,1-1.12.61,11.33,11.33,0,0,1-1.83,0,3.87,3.87,0,0,0-.54-1.75c.66.06,1.26.07,1.56.07a.66.66,0,0,0,.54-.18c.22-.24.38-1.14.49-3.27H11c.12-1.29.21-3.31.2-4.92H13.8V13.46H11V11.87h4.42v4.84H12.76c0,.62,0,1.23-.06,1.8Zm8.8,2.23c-.67.45-1.38.91-2,1.26a8.41,8.41,0,0,0,2.4,1.6,7.49,7.49,0,0,0-1.2,1.46,10.93,10.93,0,0,1-4.72-5.58H18V23L20,22.44a8.71,8.71,0,0,0,.11,1.46c-2.8.88-3.3,1.12-3.62,1.36a6.41,6.41,0,0,0-.75-1.42,1.44,1.44,0,0,0,.66-1.23V19.49h-.66V18h.92V11.84h7.51v1.4H18.37V14h5.17V15.2H18.37V16h5.19v1.25H18.37V18h6v1.51h-4a8.11,8.11,0,0,0,1,1.54A12.71,12.71,0,0,0,23,19.64Z"/><path class="cls-2" d="M34.3,17.63a16.63,16.63,0,0,1-1.08,1.47h2V17.87H37V19.1h4.14v3.55c0,.79-.15,1.2-.71,1.46a6.11,6.11,0,0,1-2.29.25,5.65,5.65,0,0,0-.54-1.53c.6,0,1.29,0,1.48,0s.27-.06.27-.23v-2H37v4.58H35.25V20.66H33.12v3.81H31.35V20.94a9.57,9.57,0,0,1-1.67,1.13,9.86,9.86,0,0,0-1.19-1.33,11.18,11.18,0,0,0,3.67-3.1H28.95V16.07h4.25A9,9,0,0,0,33.7,15c-1.09.3-2.19.52-3.22.73a12.5,12.5,0,0,0-1.21-1.48,44.29,44.29,0,0,0,4.38-.84c-1.17-.37-2.33-.72-3.37-1l1.25-1c1.38.33,3,.78,4.63,1.27a14.4,14.4,0,0,0,3.22-1.48l1.48,1a18.83,18.83,0,0,1-2.4,1.23c1.11.39,2.12.78,2.91,1.16L40,15.78a38.55,38.55,0,0,0-3.81-1.54c-.41.13-.83.27-1.26.39l.82.23a12.75,12.75,0,0,1-.57,1.21h7.09v1.56Z"/><path class="cls-2" d="M46.69,23.7A12.86,12.86,0,0,0,48,20.79l1.54.71a23,23,0,0,1-1.25,3Zm.81-6.27c-.09-.33-.3-.92-.43-1.26a1.65,1.65,0,0,0,.76-.45,10.05,10.05,0,0,0,1.33-1.35H46.87V12.9h3.41c-.22-.37-.48-.77-.69-1.1l1.64-.71c.39.56.9,1.28,1.18,1.8h2.38a10.37,10.37,0,0,0,.86-1.74l2.1.52c-.33.44-.66.84-1,1.22h3.6v1.47h-3.5a14.37,14.37,0,0,1-1.48,1.68l1.62-.1A14.62,14.62,0,0,0,58,14.73l1.47.68a25.22,25.22,0,0,1-3.28,3.39L58,18.68c-.18-.3-.36-.6-.53-.85l1.31-.49a22,22,0,0,1,1.56,2.73L59,20.61c-.09-.21-.21-.48-.34-.76-3.62.27-4.16.34-4.53.49a13.18,13.18,0,0,0-.46-1.44,2.62,2.62,0,0,0,1.17-.73,9,9,0,0,0,1-.94,7.62,7.62,0,0,0-2.19.34,13.19,13.19,0,0,0-.49-1.38,1.5,1.5,0,0,0,.73-.46,10.53,10.53,0,0,0,1.14-1.35H51A12.94,12.94,0,0,1,49.41,16l1.7-.1c.33-.36.66-.72,1-1.08l1.23.94a26.17,26.17,0,0,1-3.46,3.1l2-.09c-.14-.3-.27-.58-.41-.84l1.23-.45a21.44,21.44,0,0,1,1.25,2.64l-1.32.52c0-.18-.12-.39-.21-.65-3.83.23-4.41.29-4.77.44a13.44,13.44,0,0,0-.5-1.42,3.47,3.47,0,0,0,1.33-.72,12.83,12.83,0,0,0,1.37-1.12,9.44,9.44,0,0,0-2.26.35v0h0Zm7.61,6c.67,0,.78-.21.87-1.74a4.66,4.66,0,0,0,1.59.63c-.23,2.15-.69,2.67-2.33,2.67H52.57c-2,0-2.52-.48-2.52-2V21.08h1.77V23c0,.42.15.48.95.48Zm-1.28-3c.45.48,1.08,1.19,1.41,1.62l-1.4.77c-.28-.44-.9-1.17-1.35-1.71Zm4.68-.1c.65.89,1.58,2.13,2,2.88l-1.49,1a34.53,34.53,0,0,0-2-3Z"/></g></g></svg>