<?xml version="1.0" encoding="utf-8"?>
<!-- Generator: Adobe Illustrator 20.1.0, SVG Export Plug-In . SVG Version: 6.00 Build 0)  -->
<svg version="1.1" id="底" xmlns="http://www.w3.org/2000/svg" xmlns:xlink="http://www.w3.org/1999/xlink" x="0px" y="0px"
	 viewBox="0 0 1280 2891.9" style="enable-background:new 0 0 1280 2891.9;" xml:space="preserve">
<style type="text/css">
	.st0{fill:none;}
	.st1{fill:#006464;}
	.st2{fill:url(#SVGID_1_);}
	.st3{fill:url(#SVGID_2_);}
	.st4{fill:url(#SVGID_3_);}
	.st5{fill:none;stroke:#6BFFBA;stroke-width:255;stroke-miterlimit:10;}
	.st6{fill:none;stroke:#006464;stroke-width:240;stroke-linejoin:round;}
	.st7{fill:#6BFFBA;}
	.st8{fill:none;stroke:#50ADC0;stroke-width:55.7;stroke-linejoin:round;stroke-dasharray:60.15,4.95;}
	.st9{fill:none;stroke:#50ADC0;stroke-width:55.7;stroke-linejoin:round;}
	.st10{fill:none;stroke:#004864;stroke-width:76;stroke-linecap:round;stroke-linejoin:bevel;}
	.st11{fill:none;stroke:#004662;stroke-width:76;stroke-linecap:round;stroke-linejoin:bevel;}
	.st12{fill:none;stroke:#00455F;stroke-width:76;stroke-linecap:round;stroke-linejoin:bevel;}
	.st13{fill:none;stroke:#00435D;stroke-width:76;stroke-linecap:round;stroke-linejoin:bevel;}
	.st14{fill:none;stroke:#00415B;stroke-width:76;stroke-linecap:round;stroke-linejoin:bevel;}
	.st15{fill:none;stroke:#004059;stroke-width:76;stroke-linecap:round;stroke-linejoin:bevel;}
	.st16{fill:none;stroke:#003E56;stroke-width:76;stroke-linecap:round;stroke-linejoin:bevel;}
	.st17{fill:none;stroke:#003D54;stroke-width:76;stroke-linecap:round;stroke-linejoin:bevel;}
	.st18{fill:none;stroke:#003B52;stroke-width:76;stroke-linecap:round;stroke-linejoin:bevel;}
	.st19{fill:none;stroke:#003950;stroke-width:76;stroke-linecap:round;stroke-linejoin:bevel;}
	.st20{fill:none;stroke:#00384D;stroke-width:76;stroke-linecap:round;stroke-linejoin:bevel;}
	.st21{fill:none;stroke:#00364B;stroke-width:76;stroke-linecap:round;stroke-linejoin:bevel;}
	.st22{fill:none;stroke:#50ADC0;stroke-width:55.7;stroke-linejoin:round;stroke-dasharray:57,4.69;}
	.st23{fill:#00364B;}
	.st24{fill:none;stroke:#004864;stroke-width:11.4;stroke-linecap:round;stroke-linejoin:round;}
	.st25{fill:none;stroke:#004864;stroke-width:13.93;stroke-linecap:round;stroke-miterlimit:10;}
	.st26{fill:#FFCD32;}
	.st27{fill:#FF9947;}
	.st28{fill:none;stroke:#006464;stroke-width:3.86;stroke-linecap:round;}
</style>
<pattern  y="2891.9" width="1280" height="2891.9" patternUnits="userSpaceOnUse" id="SVGID_10_" viewBox="0 -2891.9 1280 2891.9" style="overflow:visible;">
	<g>
		<rect y="-2891.9" class="st0" width="1280" height="2891.9"/>
	</g>
</pattern>
<pattern  y="2891.9" width="1280" height="2891.9" patternUnits="userSpaceOnUse" id="SVGID_8_" viewBox="0 -2891.9 1280 2891.9" style="overflow:visible;">
	<g>
		<rect y="-2891.9" class="st0" width="1280" height="2891.9"/>
	</g>
</pattern>
<pattern  y="2891.9" width="1280" height="2891.9" patternUnits="userSpaceOnUse" id="SVGID_9_" viewBox="0 -2891.9 1280 2891.9" style="overflow:visible;">
	<g>
		<rect y="-2891.9" class="st0" width="1280" height="2891.9"/>
	</g>
</pattern>
<title>Rethink Taiwan_partner展開0815</title>
<rect class="st1" width="1280" height="3676.5"/>
<pattern  id="SVGID_1_" xlink:href="#SVGID_8_" patternTransform="matrix(1 0 0 1 180.1 18412.5977)">
</pattern>
<path class="st2" d="M518.8,374.8h242.3c232.4,0,420.8,188.4,420.8,420.8v1449.5c0,232.4-188.4,420.8-420.8,420.8H518.8
	c-232.4,0-420.7-188.4-420.7-420.8V795.5C98.1,563.2,286.5,374.8,518.8,374.8z"/>
<pattern  id="SVGID_2_" xlink:href="#SVGID_9_" patternTransform="matrix(1 0 0 1 -195.5 16009.9004)">
</pattern>
<polygon class="st3" points="493.9,3716.2 -277.5,3716.2 171,2705.1 944.4,2705.1 "/>
<pattern  id="SVGID_3_" xlink:href="#SVGID_10_" patternTransform="matrix(1 0 0 1 602.8 16042.0977)">
</pattern>
<polygon class="st4" points="1200.8,3756.4 520.8,3756.4 955.5,2745.3 1595,2745.3 "/>
<line class="st5" x1="-110.5" y1="2561.3" x2="1315.2" y2="2561.3"/>
<line class="st6" x1="-110.5" y1="2561.3" x2="1315.2" y2="2561.3"/>
<polygon class="st7" points="754,2481.2 763,2462.2 494.2,2462.6 485.3,2481.6 "/>
<polygon class="st7" points="736,2525.4 744.9,2506.4 472.5,2506.8 463.5,2525.8 "/>
<polygon class="st7" points="717.8,2569.6 726.8,2550.6 450.7,2551 441.7,2570 "/>
<polygon class="st7" points="699.7,2613.8 708.7,2594.8 428.9,2595.2 419.9,2614.2 "/>
<polygon class="st7" points="681.6,2658 690.6,2639.1 407.1,2639.4 398.1,2658.4 "/>
<line class="st8" x1="1279.8" y1="2434.8" x2="826.6" y2="2434.8"/>
<line class="st9" x1="824.1" y1="2434.8" x2="794.9" y2="2434.8"/>
<line class="st0" x1="814.6" y1="2377.4" x2="814.6" y2="2416.2"/>
<line class="st10" x1="814.6" y1="2377.4" x2="814.6" y2="2416.2"/>
<line class="st0" x1="814.6" y1="2377.4" x2="814.6" y2="2416.2"/>
<line class="st0" x1="857.7" y1="2377.4" x2="857.7" y2="2416.2"/>
<line class="st11" x1="857.7" y1="2377.4" x2="857.7" y2="2416.2"/>
<line class="st0" x1="857.7" y1="2377.4" x2="857.7" y2="2416.2"/>
<line class="st0" x1="900.9" y1="2377.4" x2="900.9" y2="2416.2"/>
<line class="st12" x1="900.9" y1="2377.4" x2="900.9" y2="2416.2"/>
<line class="st0" x1="900.9" y1="2377.4" x2="900.9" y2="2416.2"/>
<line class="st0" x1="944" y1="2377.4" x2="944" y2="2416.2"/>
<line class="st13" x1="944" y1="2377.4" x2="944" y2="2416.2"/>
<line class="st0" x1="944" y1="2377.4" x2="944" y2="2416.2"/>
<line class="st0" x1="987.2" y1="2377.4" x2="987.2" y2="2416.2"/>
<line class="st14" x1="987.2" y1="2377.4" x2="987.2" y2="2416.2"/>
<line class="st0" x1="987.2" y1="2377.4" x2="987.2" y2="2416.2"/>
<line class="st0" x1="1030.3" y1="2377.4" x2="1030.3" y2="2416.2"/>
<line class="st15" x1="1030.3" y1="2377.4" x2="1030.3" y2="2416.2"/>
<line class="st0" x1="1030.3" y1="2377.4" x2="1030.3" y2="2416.2"/>
<line class="st0" x1="1073.5" y1="2377.4" x2="1073.5" y2="2416.2"/>
<line class="st16" x1="1073.5" y1="2377.4" x2="1073.5" y2="2416.2"/>
<line class="st0" x1="1073.5" y1="2377.4" x2="1073.5" y2="2416.2"/>
<line class="st0" x1="1116.6" y1="2377.4" x2="1116.6" y2="2416.2"/>
<line class="st17" x1="1116.6" y1="2377.4" x2="1116.6" y2="2416.2"/>
<line class="st0" x1="1116.6" y1="2377.4" x2="1116.6" y2="2416.2"/>
<line class="st0" x1="1159.8" y1="2377.4" x2="1159.8" y2="2416.2"/>
<line class="st18" x1="1159.8" y1="2377.4" x2="1159.8" y2="2416.2"/>
<line class="st0" x1="1159.8" y1="2377.4" x2="1159.8" y2="2416.2"/>
<line class="st0" x1="1202.9" y1="2377.4" x2="1202.9" y2="2416.2"/>
<line class="st19" x1="1202.9" y1="2377.4" x2="1202.9" y2="2416.2"/>
<line class="st0" x1="1202.9" y1="2377.4" x2="1202.9" y2="2416.2"/>
<line class="st0" x1="1246.1" y1="2377.4" x2="1246.1" y2="2416.2"/>
<line class="st20" x1="1246.1" y1="2377.4" x2="1246.1" y2="2416.2"/>
<line class="st0" x1="1246.1" y1="2377.4" x2="1246.1" y2="2416.2"/>
<line class="st21" x1="1289.2" y1="2377.4" x2="1289.2" y2="2416.2"/>
<line class="st0" x1="1289.2" y1="2377.4" x2="1289.2" y2="2416.2"/>
<line class="st9" x1="456.5" y1="2434.8" x2="427.2" y2="2434.8"/>
<line class="st22" x1="422.5" y1="2434.8" x2="-68.7" y2="2434.8"/>
<line class="st11" x1="-34" y1="2377.4" x2="-34" y2="2416.2"/>
<line class="st0" x1="-34" y1="2377.4" x2="-34" y2="2416.2"/>
<line class="st0" x1="12.6" y1="2377.4" x2="12.6" y2="2416.2"/>
<line class="st12" x1="12.6" y1="2377.4" x2="12.6" y2="2416.2"/>
<line class="st0" x1="12.6" y1="2377.4" x2="12.6" y2="2416.2"/>
<line class="st0" x1="59.1" y1="2377.4" x2="59.1" y2="2416.2"/>
<line class="st13" x1="59.1" y1="2377.4" x2="59.1" y2="2416.2"/>
<line class="st0" x1="59.1" y1="2377.4" x2="59.1" y2="2416.2"/>
<line class="st0" x1="105.7" y1="2377.4" x2="105.7" y2="2416.2"/>
<line class="st14" x1="105.7" y1="2377.4" x2="105.7" y2="2416.2"/>
<line class="st0" x1="105.7" y1="2377.4" x2="105.7" y2="2416.2"/>
<line class="st0" x1="152.3" y1="2377.4" x2="152.3" y2="2416.2"/>
<line class="st15" x1="152.3" y1="2377.4" x2="152.3" y2="2416.2"/>
<line class="st0" x1="152.3" y1="2377.4" x2="152.3" y2="2416.2"/>
<line class="st0" x1="198.9" y1="2377.4" x2="198.9" y2="2416.2"/>
<line class="st16" x1="198.9" y1="2377.4" x2="198.9" y2="2416.2"/>
<line class="st0" x1="198.9" y1="2377.4" x2="198.9" y2="2416.2"/>
<line class="st0" x1="245.4" y1="2377.4" x2="245.4" y2="2416.2"/>
<line class="st17" x1="245.4" y1="2377.4" x2="245.4" y2="2416.2"/>
<line class="st0" x1="245.4" y1="2377.4" x2="245.4" y2="2416.2"/>
<line class="st0" x1="292" y1="2377.4" x2="292" y2="2416.2"/>
<line class="st18" x1="292" y1="2377.4" x2="292" y2="2416.2"/>
<line class="st0" x1="292" y1="2377.4" x2="292" y2="2416.2"/>
<line class="st0" x1="338.5" y1="2377.4" x2="338.5" y2="2416.2"/>
<line class="st19" x1="338.5" y1="2377.4" x2="338.5" y2="2416.2"/>
<line class="st0" x1="338.5" y1="2377.4" x2="338.5" y2="2416.2"/>
<line class="st0" x1="385.1" y1="2377.4" x2="385.1" y2="2416.2"/>
<line class="st20" x1="385.1" y1="2377.4" x2="385.1" y2="2416.2"/>
<line class="st0" x1="385.1" y1="2377.4" x2="385.1" y2="2416.2"/>
<line class="st0" x1="431.7" y1="2377.4" x2="431.7" y2="2416.2"/>
<line class="st21" x1="431.7" y1="2377.4" x2="431.7" y2="2416.2"/>
<line class="st0" x1="431.7" y1="2377.4" x2="431.7" y2="2416.2"/>
<path class="st23" d="M1267.3,2571.3l69.5,118.9c14.8,25.2-3.5,57-32.7,57h-144.2c-29.8,0-47.9-32.8-32.1-58l74.8-118.9
	C1217.6,2546.1,1252.9,2546.7,1267.3,2571.3z"/>
<path class="st23" d="M1262.8,2509.9l60.7,103.9c12.9,22.1-3,49.8-28.6,49.8h-126.1c-26,0-41.9-28.7-28-50.7l65.3-103.9
	c9.7-15.5,30.2-20.1,45.6-10.4C1256.4,2501.5,1260.1,2505.3,1262.8,2509.9z"/>
<path class="st23" d="M1257.3,2465.4l49.9,85.3c7.6,13,3.2,29.6-9.8,37.2c-4.2,2.4-8.9,3.7-13.7,3.7h-103.6
	c-15,0-27.2-12.2-27.2-27.2c0-5.1,1.5-10.1,4.2-14.5l53.7-85.3c8-12.7,24.8-16.5,37.5-8.5C1252,2458.4,1255.1,2461.6,1257.3,2465.4z
	"/>
<path class="st23" d="M1252.6,2423.9l40.7,69.6c6.2,10.6,2.6,24.1-7.9,30.3c-3.4,2-7.3,3-11.2,3h-84.5c-12.2,0-22.2-9.9-22.2-22.1
	c0-4.2,1.2-8.3,3.4-11.9l43.8-69.6c6.5-10.4,20.2-13.5,30.6-6.9C1248.3,2418.2,1250.8,2420.8,1252.6,2423.9z"/>
<line class="st24" x1="1236.1" y1="2722.3" x2="1282.3" y2="2670.2"/>
<line class="st24" x1="1231.9" y1="2742.4" x2="1180.6" y2="2691.1"/>
<line class="st25" x1="1231.9" y1="2865.2" x2="1231.9" y2="2484.3"/>
<line class="st24" x1="1236.1" y1="2640.4" x2="1267.4" y2="2601.8"/>
<line class="st24" x1="1231.5" y1="2670.9" x2="1190.6" y2="2629.9"/>
<line class="st24" x1="1236.1" y1="2567.9" x2="1258.1" y2="2540.8"/>
<line class="st24" x1="1231.9" y1="2601.4" x2="1204.8" y2="2574.3"/>
<line class="st24" x1="1236.1" y1="2518.2" x2="1254.6" y2="2495.4"/>
<line class="st24" x1="1231.9" y1="2538.2" x2="1210.2" y2="2516.5"/>
<path class="st23" d="M1096.3,2571.3l69.5,118.9c14.8,25.2-3.5,57-32.7,57H988.8c-29.8,0-47.9-32.8-32.1-58l74.8-118.9
	C1046.7,2546.1,1082,2546.7,1096.3,2571.3z"/>
<path class="st23" d="M1091.9,2509.9l60.7,103.9c12.9,22.1-3,49.8-28.6,49.8H997.9c-26,0-41.9-28.7-28-50.7l65.4-103.9
	c9.7-15.5,30.2-20.1,45.6-10.4C1085.4,2501.5,1089.2,2505.3,1091.9,2509.9z"/>
<path class="st23" d="M1086.4,2465.4l49.9,85.3c7.6,13,3.2,29.6-9.8,37.2c-4.2,2.4-8.9,3.7-13.7,3.7h-103.5
	c-15,0-27.2-12.2-27.2-27.2c0-5.1,1.5-10.1,4.2-14.5l53.7-85.3c8-12.7,24.8-16.5,37.5-8.5
	C1081.1,2458.4,1084.2,2461.6,1086.4,2465.4z"/>
<path class="st23" d="M1081.7,2423.9l40.7,69.6c6.2,10.6,2.6,24.1-7.9,30.3c-3.4,2-7.3,3-11.2,3h-84.5c-12.2,0-22.2-9.9-22.2-22.1
	c0-4.2,1.2-8.3,3.4-11.9l43.8-69.6c6.5-10.4,20.2-13.5,30.6-6.9C1077.4,2418.2,1079.9,2420.8,1081.7,2423.9z"/>
<line class="st24" x1="1065.2" y1="2722.3" x2="1111.4" y2="2670.2"/>
<line class="st24" x1="1061" y1="2742.4" x2="1009.7" y2="2691.1"/>
<line class="st25" x1="1061" y1="2865.2" x2="1061" y2="2484.3"/>
<line class="st24" x1="1065.2" y1="2640.4" x2="1096.4" y2="2601.8"/>
<line class="st24" x1="1060.6" y1="2670.9" x2="1019.7" y2="2629.9"/>
<line class="st24" x1="1065.2" y1="2567.9" x2="1087.2" y2="2540.8"/>
<line class="st24" x1="1061" y1="2601.4" x2="1033.9" y2="2574.3"/>
<line class="st24" x1="1065.2" y1="2518.2" x2="1083.6" y2="2495.4"/>
<line class="st24" x1="1061" y1="2538.2" x2="1039.2" y2="2516.5"/>
<path class="st23" d="M927.3,2571.3l69.5,118.9c14.8,25.2-3.5,57-32.7,57H819.8c-29.8,0-47.9-32.8-32.1-58l74.8-118.9
	C877.7,2546.1,912.9,2546.7,927.3,2571.3z"/>
<path class="st23" d="M922.8,2509.9l60.7,103.9c12.9,22.1-3,49.8-28.6,49.8h-126c-26,0-41.9-28.7-28-50.7l65.3-103.9
	c9.7-15.5,30.2-20.1,45.6-10.4C916.4,2501.5,920.1,2505.3,922.8,2509.9z"/>
<path class="st23" d="M917.3,2465.4l49.9,85.3c7.6,13,3.2,29.6-9.8,37.2c-4.2,2.4-8.9,3.7-13.7,3.7H840.2c-15,0-27.2-12.2-27.2-27.2
	c0-5.1,1.5-10.1,4.2-14.5l53.7-85.3c8-12.7,24.8-16.5,37.5-8.5C912,2458.4,915.1,2461.6,917.3,2465.4z"/>
<path class="st23" d="M912.6,2423.9l40.7,69.6c6.2,10.6,2.6,24.1-7.9,30.3c-3.4,2-7.3,3-11.2,3h-84.5c-12.2,0-22.2-9.9-22.2-22.1
	c0-4.2,1.2-8.3,3.4-11.9l43.8-69.6c6.5-10.4,20.2-13.5,30.6-6.9C908.3,2418.2,910.8,2420.8,912.6,2423.9z"/>
<line class="st24" x1="896.2" y1="2722.3" x2="942.3" y2="2670.2"/>
<line class="st24" x1="891.9" y1="2742.4" x2="840.6" y2="2691.1"/>
<line class="st25" x1="891.9" y1="2865.2" x2="891.9" y2="2484.3"/>
<line class="st24" x1="896.2" y1="2640.4" x2="927.4" y2="2601.8"/>
<line class="st24" x1="891.6" y1="2670.9" x2="850.7" y2="2629.9"/>
<line class="st24" x1="896.2" y1="2567.9" x2="918.1" y2="2540.8"/>
<line class="st24" x1="891.9" y1="2601.4" x2="864.8" y2="2574.3"/>
<line class="st24" x1="896.2" y1="2518.2" x2="914.6" y2="2495.4"/>
<line class="st24" x1="891.9" y1="2538.2" x2="870.2" y2="2516.5"/>
<path class="st23" d="M86.6,2571.3l69.4,118.9c14.8,25.2-3.5,57-32.7,57H-20.9c-29.8,0-47.9-32.8-32.1-58l74.8-118.9
	C36.9,2546.1,72.2,2546.7,86.6,2571.3z"/>
<path class="st23" d="M82.1,2509.9l60.7,103.9c12.9,22.1-3,49.8-28.6,49.8H-11.9c-26,0-41.9-28.7-28-50.7L25.5,2509
	c9.7-15.5,30.2-20.1,45.6-10.4C75.7,2501.5,79.4,2505.3,82.1,2509.9z"/>
<path class="st23" d="M76.6,2465.4l49.9,85.3c7.6,13,3.2,29.6-9.8,37.2c-4.1,2.4-8.9,3.7-13.7,3.7H-0.6c-15,0-27.2-12.2-27.2-27.2
	c0-5.1,1.5-10.1,4.2-14.5l53.7-85.3c8-12.7,24.8-16.5,37.5-8.5C71.3,2458.4,74.4,2461.6,76.6,2465.4z"/>
<path class="st23" d="M71.9,2423.9l40.7,69.6c6.2,10.6,2.6,24.1-7.9,30.3c-3.4,2-7.3,3-11.2,3H9c-12.2,0-22.2-9.9-22.2-22.1
	c0-4.2,1.2-8.3,3.4-11.9l43.8-69.6c6.5-10.4,20.2-13.5,30.6-6.9C67.6,2418.2,70.1,2420.8,71.9,2423.9z"/>
<line class="st24" x1="55.4" y1="2722.3" x2="101.6" y2="2670.2"/>
<line class="st24" x1="51.2" y1="2742.4" x2="-0.1" y2="2691.1"/>
<line class="st25" x1="51.2" y1="2865.2" x2="51.2" y2="2484.3"/>
<line class="st24" x1="55.4" y1="2640.4" x2="86.7" y2="2601.8"/>
<line class="st24" x1="50.8" y1="2670.9" x2="9.9" y2="2629.9"/>
<line class="st24" x1="55.4" y1="2567.9" x2="77.4" y2="2540.8"/>
<line class="st24" x1="51.2" y1="2601.4" x2="24.1" y2="2574.3"/>
<line class="st24" x1="55.4" y1="2518.2" x2="73.9" y2="2495.4"/>
<line class="st24" x1="51.2" y1="2538.2" x2="29.4" y2="2516.5"/>
<path class="st23" d="M12.4,909.2L-57,1028.1c-14.8,25.2,3.5,57,32.7,57h144.2c29.8,0,47.9-32.8,32.1-58L77.2,908.2
	C62,884.1,26.8,884.7,12.4,909.2z"/>
<path class="st23" d="M16.9,847.9l-60.7,103.9c-12.9,22.1,3,49.8,28.6,49.8h126.1c26,0,41.9-28.7,28-50.7L73.5,847
	c-9.7-15.5-30.2-20.1-45.6-10.4C23.3,839.4,19.6,843.3,16.9,847.9z"/>
<path class="st23" d="M22.4,803.3l-49.9,85.3c-7.6,13-3.2,29.6,9.8,37.2c4.2,2.4,8.9,3.7,13.7,3.7H99.6c15,0,27.2-12.2,27.2-27.2
	c0-5.1-1.5-10.1-4.2-14.5l-53.7-85.3c-8-12.7-24.8-16.5-37.5-8.5C27.7,796.3,24.6,799.5,22.4,803.3z"/>
<path class="st23" d="M27.1,761.8l-40.7,69.6c-6.2,10.6-2.6,24.1,7.9,30.3c3.4,2,7.3,3,11.2,3H90c12.2,0,22.2-9.9,22.2-22.1
	c0-4.2-1.2-8.3-3.4-11.9L65,761.2c-6.5-10.4-20.2-13.5-30.6-7C31.4,756.1,28.9,758.7,27.1,761.8z"/>
<line class="st24" x1="43.6" y1="1060.2" x2="-2.6" y2="1008.1"/>
<line class="st24" x1="47.8" y1="1080.4" x2="99.1" y2="1029.1"/>
<line class="st25" x1="47.8" y1="1203.2" x2="47.8" y2="822.3"/>
<line class="st24" x1="43.6" y1="978.3" x2="12.3" y2="939.8"/>
<line class="st24" x1="48.1" y1="1008.8" x2="89.1" y2="967.9"/>
<line class="st24" x1="43.6" y1="905.8" x2="21.6" y2="878.7"/>
<line class="st24" x1="47.8" y1="939.4" x2="74.9" y2="912.3"/>
<line class="st24" x1="43.6" y1="856.1" x2="25.1" y2="833.4"/>
<line class="st24" x1="47.8" y1="876.2" x2="69.5" y2="854.5"/>
<path class="st23" d="M-62.2,1012.2l-69.5,118.8c-14.8,25.2,3.5,57,32.7,57H45.2c29.8,0,47.9-32.8,32.1-58L2.5,1011.1
	C-12.6,987-47.9,987.6-62.2,1012.2z"/>
<path class="st23" d="M-57.8,950.8l-60.7,103.9c-12.9,22.1,3,49.8,28.6,49.8H36.2c26,0,41.9-28.7,28-50.7L-1.2,949.9
	c-9.7-15.5-30.2-20.1-45.6-10.4C-51.4,942.4-55.1,946.2-57.8,950.8z"/>
<path class="st23" d="M-52.3,906.3l-49.9,85.3c-7.6,13-3.2,29.6,9.8,37.2c4.2,2.4,8.9,3.7,13.7,3.7H24.9c15,0,27.2-12.2,27.2-27.2
	c0-5.1-1.5-10.1-4.2-14.5l-53.7-85.3c-8-12.7-24.8-16.5-37.5-8.5C-47,899.3-50.1,902.5-52.3,906.3z"/>
<path class="st23" d="M-47.6,864.8l-40.7,69.6c-6.2,10.6-2.6,24.1,7.9,30.3c3.4,2,7.3,3,11.2,3h84.5c12.2,0,22.2-9.9,22.2-22.1
	c0-4.2-1.2-8.3-3.4-11.9l-43.8-69.6c-6.5-10.4-20.2-13.5-30.6-7C-43.3,859.1-45.8,861.7-47.6,864.8z"/>
<line class="st24" x1="-26.9" y1="1183.3" x2="24.4" y2="1132"/>
<line class="st24" x1="-26.5" y1="1111.8" x2="14.4" y2="1070.8"/>
<line class="st24" x1="-26.9" y1="1042.3" x2="0.2" y2="1015.2"/>
<line class="st24" x1="-26.9" y1="979.2" x2="-5.2" y2="957.4"/>
<path class="st23" d="M174.7,257.2l-69.5,118.9c-14.8,25.2,3.5,57,32.7,57h144.3c29.8,0,47.9-32.8,32.1-58l-74.8-118.9
	C224.3,232.1,189,232.7,174.7,257.2z"/>
<path class="st23" d="M179.1,195.9l-60.7,103.9c-12.9,22.1,3,49.8,28.6,49.8h126.1c26,0,41.9-28.7,28-50.7L235.7,195
	c-9.7-15.5-30.2-20.1-45.6-10.4C185.6,187.4,181.8,191.3,179.1,195.9z"/>
<path class="st23" d="M184.7,151.3l-49.9,85.3c-7.6,13-3.2,29.6,9.8,37.2c4.2,2.4,8.9,3.7,13.7,3.7h103.5c15,0,27.2-12.2,27.2-27.2
	c0-5.1-1.5-10.1-4.2-14.5l-53.7-85.3c-8-12.7-24.8-16.5-37.5-8.5C189.9,144.4,186.9,147.6,184.7,151.3z"/>
<path class="st23" d="M189.3,109.8l-40.7,69.6c-6.2,10.6-2.6,24.1,7.9,30.3c3.4,2,7.3,3,11.2,3h84.5c12.2,0,22.2-9.9,22.2-22.1
	c0-4.2-1.2-8.3-3.4-11.9l-43.8-69.6c-6.5-10.4-20.2-13.5-30.6-6.9C193.7,104.1,191.1,106.7,189.3,109.8z"/>
<line class="st24" x1="205.8" y1="408.2" x2="159.6" y2="356.1"/>
<line class="st24" x1="210" y1="428.4" x2="261.3" y2="377.1"/>
<line class="st25" x1="210" y1="551.2" x2="210" y2="170.3"/>
<line class="st24" x1="205.8" y1="326.3" x2="174.6" y2="287.8"/>
<line class="st24" x1="210.4" y1="356.8" x2="251.3" y2="315.9"/>
<line class="st24" x1="205.8" y1="253.8" x2="183.8" y2="226.7"/>
<line class="st24" x1="210" y1="287.4" x2="237.1" y2="260.3"/>
<line class="st24" x1="205.8" y1="204.1" x2="187.4" y2="181.4"/>
<line class="st24" x1="210" y1="224.2" x2="231.8" y2="202.5"/>
<path class="st23" d="M51.6,299.6l-69.5,118.9c-14.8,25.2,3.5,57,32.7,57H159c29.8,0,47.9-32.8,32.1-58l-74.8-118.9
	C101.2,274.5,66,275.1,51.6,299.6z"/>
<path class="st23" d="M56.1,238.3L-4.6,342.2C-17.5,364.3-1.6,392,24,392h126c26,0,41.9-28.7,28-50.7l-65.3-103.9
	C103,221.9,82.5,217.2,67,227C62.5,229.8,58.8,233.7,56.1,238.3z"/>
<path class="st23" d="M61.6,193.7L11.8,279c-7.6,12.9-3.3,29.6,9.6,37.2c4.2,2.5,9,3.8,13.9,3.8h103.6c15,0,27.2-12.2,27.2-27.2
	c0-5.1-1.5-10.1-4.2-14.5L108.1,193c-8-12.7-24.8-16.5-37.5-8.6C66.9,186.8,63.8,190,61.6,193.7z"/>
<path class="st23" d="M66.3,152.2l-40.7,69.6c-6.2,10.6-2.6,24.1,7.9,30.3c3.4,2,7.3,3,11.2,3h84.5c12.2,0,22.2-9.9,22.2-22.1
	c0-4.2-1.2-8.3-3.4-11.9l-43.8-69.6c-6.5-10.4-20.2-13.5-30.6-7C70.6,146.5,68.1,149.1,66.3,152.2z"/>
<line class="st24" x1="82.8" y1="450.6" x2="36.6" y2="398.5"/>
<line class="st24" x1="87" y1="470.8" x2="138.3" y2="419.5"/>
<line class="st25" x1="87" y1="593.6" x2="87" y2="212.7"/>
<line class="st24" x1="82.8" y1="368.7" x2="51.5" y2="330.2"/>
<line class="st24" x1="87.3" y1="399.2" x2="128.3" y2="358.3"/>
<line class="st24" x1="82.8" y1="296.2" x2="60.8" y2="269.1"/>
<line class="st24" x1="87" y1="329.8" x2="114.1" y2="302.7"/>
<line class="st24" x1="82.8" y1="246.5" x2="64.3" y2="223.8"/>
<line class="st24" x1="87" y1="266.6" x2="108.7" y2="244.9"/>
<path class="st23" d="M-71.9,421.6l-69.5,118.9c-14.8,25.2,3.5,57,32.7,57H35.6c29.8,0,47.9-32.8,32.1-58l-74.8-119
	C-22.3,396.5-57.5,397-71.9,421.6z"/>
<path class="st23" d="M-67.4,360.3l-60.7,103.9c-12.9,22.1,3,49.8,28.6,49.8h126c26,0,41.9-28.7,28-50.7l-65.3-103.9
	c-9.7-15.5-30.2-20.1-45.6-10.4C-61,351.8-64.7,355.7-67.4,360.3z"/>
<path class="st23" d="M-61.9,315.7l-49.9,85.3c-7.6,13-3.2,29.6,9.8,37.2c4.2,2.4,8.9,3.7,13.7,3.7H15.3c15,0,27.2-12.2,27.2-27.2
	c0-5.1-1.5-10.1-4.2-14.5l-53.7-85.3c-8-12.7-24.8-16.5-37.5-8.5C-56.6,308.7-59.7,311.9-61.9,315.7z"/>
<path class="st23" d="M-57.2,274.2l-40.7,69.6c-6.2,10.6-2.6,24.1,7.9,30.3c3.4,2,7.3,3,11.2,3H5.7c12.2,0,22.2-9.9,22.2-22.1
	c0-4.2-1.2-8.3-3.4-11.9l-43.8-69.6c-6.5-10.4-20.2-13.5-30.6-7C-52.9,268.5-55.4,271.1-57.2,274.2z"/>
<line class="st24" x1="-36.5" y1="592.7" x2="14.8" y2="541.4"/>
<line class="st24" x1="-36.2" y1="521.2" x2="4.8" y2="480.2"/>
<path class="st23" d="M1083.9,257.2l69.5,118.9c14.8,25.2-3.5,57-32.7,57H976.4c-29.8,0-47.9-32.8-32.1-58l74.8-118.9
	C1034.3,232.1,1069.6,232.7,1083.9,257.2z"/>
<path class="st23" d="M1079.4,195.9l60.7,103.9c12.9,22.1-3,49.8-28.6,49.8h-126c-26,0-41.9-28.7-28-50.7l65.3-103.9
	c9.7-15.5,30.2-20.1,45.6-10.4C1073,187.4,1076.8,191.3,1079.4,195.9z"/>
<path class="st23" d="M1073.9,151.3l49.9,85.3c7.6,13,3.2,29.6-9.8,37.2c-4.2,2.4-8.9,3.7-13.7,3.7H996.8c-15,0-27.2-12.2-27.2-27.2
	c0-5.1,1.5-10.1,4.2-14.5l53.7-85.3c8-12.7,24.8-16.5,37.5-8.5C1068.7,144.4,1071.7,147.6,1073.9,151.3z"/>
<path class="st23" d="M1069.2,109.8l40.7,69.6c6.2,10.6,2.6,24.1-7.9,30.3c-3.4,2-7.3,3-11.2,3h-84.5c-12.2,0-22.2-9.9-22.2-22.1
	c0-4.2,1.2-8.3,3.4-11.9l43.8-69.6c6.5-10.4,20.2-13.5,30.6-6.9C1064.9,104.1,1067.5,106.7,1069.2,109.8z"/>
<line class="st24" x1="1052.8" y1="408.2" x2="1099" y2="356.1"/>
<line class="st24" x1="1048.5" y1="428.4" x2="997.3" y2="377.1"/>
<line class="st25" x1="1048.5" y1="551.2" x2="1048.5" y2="170.3"/>
<line class="st24" x1="1052.8" y1="326.3" x2="1084" y2="287.8"/>
<line class="st24" x1="1048.2" y1="356.8" x2="1007.3" y2="315.9"/>
<line class="st24" x1="1052.8" y1="253.8" x2="1074.8" y2="226.7"/>
<line class="st24" x1="1048.5" y1="287.4" x2="1021.4" y2="260.3"/>
<line class="st24" x1="1052.8" y1="204.1" x2="1071.2" y2="181.4"/>
<line class="st24" x1="1048.5" y1="224.2" x2="1026.8" y2="202.5"/>
<path class="st23" d="M1219.7,299.6l69.5,118.9c14.8,25.2-3.5,57-32.7,57h-144.2c-29.8,0-47.9-32.8-32.1-58l74.8-118.9
	C1170.1,274.5,1205.3,275.1,1219.7,299.6z"/>
<path class="st23" d="M1215.2,238.3l60.7,103.9c12.9,22.1-3,49.8-28.6,49.8h-126.1c-26,0-41.9-28.7-28-50.7l65.4-103.9
	c9.7-15.5,30.2-20.1,45.6-10.4C1208.8,229.8,1212.5,233.7,1215.2,238.3z"/>
<path class="st23" d="M1209.7,193.7l49.9,85.3c7.6,13,3.2,29.6-9.8,37.2c-4.2,2.4-8.9,3.7-13.7,3.7h-103.6
	c-15,0-27.2-12.2-27.2-27.2c0-5.1,1.5-10.1,4.2-14.5l53.7-85.2c8-12.7,24.8-16.6,37.5-8.6C1204.4,186.8,1207.5,189.9,1209.7,193.7z"
	/>
<path class="st23" d="M1205,152.2l40.7,69.6c6.2,10.6,2.6,24.1-7.9,30.3c-3.4,2-7.3,3-11.2,3h-84.5c-12.2,0-22.2-9.9-22.2-22.1
	c0-4.2,1.2-8.3,3.4-11.9l43.8-69.6c6.5-10.4,20.2-13.5,30.6-6.9C1200.7,146.5,1203.2,149.1,1205,152.2z"/>
<line class="st24" x1="1188.5" y1="450.6" x2="1234.7" y2="398.5"/>
<line class="st24" x1="1184.3" y1="470.8" x2="1133" y2="419.5"/>
<line class="st25" x1="1184.3" y1="593.6" x2="1184.3" y2="212.7"/>
<line class="st24" x1="1188.5" y1="368.7" x2="1219.8" y2="330.2"/>
<line class="st24" x1="1183.9" y1="399.2" x2="1143" y2="358.3"/>
<line class="st24" x1="1188.5" y1="296.2" x2="1210.5" y2="269.1"/>
<line class="st24" x1="1184.3" y1="329.8" x2="1157.2" y2="302.7"/>
<line class="st24" x1="1188.5" y1="246.5" x2="1207" y2="223.8"/>
<line class="st24" x1="1184.3" y1="266.6" x2="1162.6" y2="244.9"/>
<path class="st23" d="M1350.5,421.6l69.5,118.9c14.8,25.2-3.5,57-32.7,57H1243c-29.8,0-47.9-32.8-32.1-58l74.8-118.9
	C1300.9,396.5,1336.1,397,1350.5,421.6z"/>
<path class="st23" d="M1346,360.3l60.7,103.9c12.9,22.1-3,49.8-28.6,49.8H1252c-26,0-41.9-28.7-28-50.7l65.4-103.9
	c9.7-15.5,30.2-20.1,45.7-10.3C1339.6,351.8,1343.3,355.7,1346,360.3z"/>
<path class="st23" d="M1340.5,315.7l49.9,85.3c7.6,13,3.2,29.6-9.8,37.2c-4.2,2.4-8.9,3.7-13.7,3.7h-103.6
	c-15,0-27.2-12.2-27.2-27.2c0-5.1,1.5-10.1,4.2-14.5l53.7-85.3c8-12.7,24.8-16.5,37.5-8.5C1335.2,308.7,1338.3,311.9,1340.5,315.7z"
	/>
<path class="st23" d="M1335.8,274.2l40.7,69.6c6.2,10.6,2.6,24.1-7.9,30.3c-3.4,2-7.3,3-11.2,3h-84.5c-12.2,0-22.2-9.9-22.2-22.1
	c0-4.2,1.2-8.3,3.4-11.9l43.8-69.6c6.5-10.4,20.2-13.5,30.6-6.9C1331.5,268.5,1334,271.1,1335.8,274.2z"/>
<line class="st24" x1="1315.1" y1="592.7" x2="1263.8" y2="541.4"/>
<line class="st24" x1="1314.8" y1="521.2" x2="1273.8" y2="480.2"/>
<path class="st23" d="M1337.4,1151.1l69.5,118.9c14.8,25.2-3.5,57-32.7,57h-144.3c-29.8,0-47.9-32.8-32.1-58l74.8-119
	C1287.8,1126,1323.1,1126.6,1337.4,1151.1z"/>
<path class="st23" d="M1333,1089.8l60.7,103.9c12.9,22.1-3,49.8-28.6,49.8H1239c-26,0-41.9-28.7-28-50.7l65.4-103.9
	c9.7-15.5,30.1-20.2,45.6-10.4C1326.5,1081.3,1330.3,1085.1,1333,1089.8z"/>
<path class="st23" d="M1327.4,1045.2l49.9,85.3c7.6,13,3.2,29.6-9.8,37.2c-4.2,2.4-8.9,3.7-13.7,3.7h-103.5
	c-15,0-27.2-12.2-27.2-27.2c0-5.1,1.5-10.1,4.2-14.5l53.7-85.3c8-12.7,24.8-16.5,37.5-8.5
	C1322.2,1038.3,1325.2,1041.4,1327.4,1045.2z"/>
<path class="st23" d="M1322.8,1003.7l40.7,69.6c6.2,10.6,2.6,24.1-7.9,30.3c-3.4,2-7.3,3-11.2,3h-84.5c-12.2,0-22.2-9.9-22.2-22.1
	c0-4.2,1.2-8.3,3.4-11.9l43.8-69.6c6.5-10.4,20.2-13.5,30.6-6.9C1318.4,998,1321,1000.6,1322.8,1003.7z"/>
<line class="st24" x1="1302.1" y1="1322.2" x2="1250.8" y2="1271"/>
<line class="st24" x1="1301.7" y1="1250.7" x2="1260.8" y2="1209.8"/>
<line class="st24" x1="1302.1" y1="1181.3" x2="1275" y2="1154.2"/>
<line class="st24" x1="1302.1" y1="1118.1" x2="1280.3" y2="1096.3"/>
<path class="st23" d="M1350.3,683l69.5,118.9c14.8,25.2-3.5,57-32.7,57h-144.3c-29.8,0-47.9-32.8-32.1-58l74.8-118.9
	C1300.7,657.9,1336,658.5,1350.3,683z"/>
<path class="st23" d="M1345.8,621.7l60.7,103.9c12.9,22.1-3,49.8-28.6,49.8h-126.1c-26,0-41.9-28.7-28-50.7l65.4-103.9
	c9.7-15.5,30.2-20.1,45.6-10.4C1339.4,613.3,1343.2,617.1,1345.8,621.7z"/>
<path class="st23" d="M1340.3,577.1l49.9,85.3c7.6,13,3.2,29.6-9.8,37.2c-4.2,2.4-8.9,3.7-13.7,3.7h-103.5
	c-15,0-27.2-12.2-27.2-27.2c0-5.1,1.5-10.1,4.2-14.5l53.7-85.3c8-12.7,24.8-16.5,37.5-8.5C1335.1,570.2,1338.1,573.4,1340.3,577.1z"
	/>
<path class="st23" d="M1335.7,535.6l40.7,69.6c6.2,10.6,2.6,24.1-7.9,30.3c-3.4,2-7.3,3-11.2,3h-84.5c-12.2,0-22.2-9.9-22.2-22.1
	c0-4.2,1.2-8.3,3.4-11.9l43.8-69.6c6.5-10.4,20.2-13.5,30.6-6.9C1331.3,530,1333.9,532.6,1335.7,535.6z"/>
<line class="st24" x1="1314.9" y1="854.2" x2="1263.7" y2="802.9"/>
<line class="st24" x1="1314.6" y1="782.6" x2="1273.7" y2="741.7"/>
<path class="st23" d="M1376.5,1936.2l69.5,118.9c14.8,25.2-3.5,57-32.7,57H1269c-29.8,0-47.9-32.8-32.1-58l74.8-118.9
	C1326.9,1911.1,1362.2,1911.7,1376.5,1936.2z"/>
<path class="st23" d="M1372.1,1874.9l60.7,103.9c12.9,22.1-3,49.8-28.6,49.8h-126.1c-26,0-41.9-28.7-28-50.7l65.3-103.9
	c9.7-15.5,30.2-20.1,45.6-10.4C1365.6,1866.4,1369.4,1870.3,1372.1,1874.9z"/>
<path class="st23" d="M1366.5,1830.3l49.9,85.3c7.6,13,3.2,29.6-9.8,37.2c-4.2,2.4-8.9,3.7-13.7,3.7h-103.6
	c-15,0-27.2-12.2-27.2-27.2c0-5.1,1.5-10.1,4.2-14.5l53.7-85.3c8-12.7,24.8-16.5,37.5-8.5
	C1361.3,1823.4,1364.3,1826.6,1366.5,1830.3z"/>
<path class="st23" d="M1361.9,1788.8l40.7,69.6c6.2,10.6,2.6,24.1-7.9,30.3c-3.4,2-7.3,3-11.2,3H1299c-12.2,0-22.2-9.9-22.2-22.1
	c0-4.2,1.2-8.3,3.4-11.9l43.8-69.6c6.5-10.4,20.2-13.5,30.6-6.9C1357.5,1783.1,1360.1,1785.7,1361.9,1788.8z"/>
<path class="st23" d="M1292.4,2042.2l69.5,118.9c14.8,25.2-3.5,57-32.7,57H1185c-29.8,0-47.9-32.8-32.1-58l74.8-118.9
	C1242.8,2017.1,1278.1,2017.7,1292.4,2042.2z"/>
<path class="st23" d="M1287.9,1980.9l60.7,103.9c12.9,22.1-3,49.8-28.6,49.8h-126c-26,0-41.9-28.7-28-50.7l65.3-103.9
	c9.7-15.5,30.2-20.1,45.6-10.4C1281.5,1972.4,1285.3,1976.3,1287.9,1980.9z"/>
<path class="st23" d="M1282.4,1936.3l49.9,85.3c7.6,13,3.2,29.6-9.8,37.2c-4.2,2.4-8.9,3.7-13.7,3.7h-103.5
	c-15,0-27.2-12.2-27.2-27.2c0-5.1,1.5-10.1,4.2-14.5l53.7-85.3c8-12.7,24.8-16.5,37.5-8.5
	C1277.1,1929.4,1280.2,1932.6,1282.4,1936.3z"/>
<path class="st23" d="M1277.7,1894.8l40.7,69.6c6.2,10.6,2.6,24.1-7.9,30.3c-3.4,2-7.3,3-11.2,3h-84.5c-12.2,0-22.2-9.9-22.2-22.1
	c0-4.2,1.2-8.3,3.4-11.9l43.8-69.6c6.5-10.4,20.2-13.5,30.6-6.9C1273.4,1889.2,1275.9,1891.8,1277.7,1894.8z"/>
<line class="st24" x1="1261.3" y1="2193.3" x2="1307.5" y2="2141.2"/>
<line class="st24" x1="1257" y1="2213.4" x2="1205.8" y2="2162.1"/>
<line class="st25" x1="1257" y1="2336.2" x2="1257" y2="1955.3"/>
<line class="st24" x1="1261.3" y1="2111.3" x2="1292.5" y2="2072.8"/>
<line class="st24" x1="1256.7" y1="2141.8" x2="1215.8" y2="2100.9"/>
<line class="st24" x1="1261.3" y1="2038.8" x2="1283.2" y2="2011.7"/>
<line class="st24" x1="1257" y1="2072.4" x2="1229.9" y2="2045.3"/>
<line class="st24" x1="1261.3" y1="1989.2" x2="1279.7" y2="1966.4"/>
<line class="st24" x1="1257" y1="2009.2" x2="1235.3" y2="1987.5"/>
<path class="st23" d="M119.5,1629.5l69.5,118.9c14.8,25.2-3.5,57-32.7,57H12c-29.8,0-47.9-32.8-32.1-58l74.8-118.9
	C69.9,1604.4,105.2,1605,119.5,1629.5z"/>
<path class="st23" d="M115.1,1568.2l60.7,103.9c12.9,22.1-3,49.8-28.6,49.8H21.1c-26,0-41.9-28.7-28-50.7l65.4-103.9
	c9.7-15.5,30.2-20.1,45.6-10.4C108.6,1559.7,112.4,1563.6,115.1,1568.2z"/>
<path class="st23" d="M109.6,1523.6l49.9,85.3c7.6,13,3.2,29.6-9.8,37.2c-4.2,2.4-8.9,3.7-13.7,3.7H32.4c-15,0-27.2-12.2-27.2-27.2
	c0-5.1,1.5-10.1,4.2-14.5l53.7-85.3c8-12.7,24.8-16.5,37.5-8.5C104.3,1516.7,107.3,1519.9,109.6,1523.6z"/>
<path class="st23" d="M104.9,1482.1l40.7,69.6c6.2,10.6,2.6,24.1-7.9,30.3c-3.4,2-7.3,3-11.2,3H41.9c-12.2,0-22.2-9.9-22.2-22.1
	c0-4.2,1.2-8.3,3.4-11.9l43.8-69.6c6.5-10.4,20.2-13.4,30.6-6.9C100.6,1476.5,103.1,1479,104.9,1482.1z"/>
<line class="st24" x1="88.4" y1="1780.5" x2="134.6" y2="1728.4"/>
<line class="st24" x1="84.2" y1="1800.7" x2="32.9" y2="1749.4"/>
<line class="st25" x1="84.2" y1="1923.5" x2="84.2" y2="1515.2"/>
<line class="st24" x1="88.4" y1="1698.6" x2="119.6" y2="1660.1"/>
<line class="st24" x1="83.8" y1="1729.1" x2="42.9" y2="1688.2"/>
<line class="st24" x1="88.4" y1="1626.1" x2="110.4" y2="1599"/>
<line class="st24" x1="84.2" y1="1659.7" x2="57.1" y2="1632.6"/>
<line class="st24" x1="88.4" y1="1561.4" x2="106.8" y2="1538.7"/>
<line class="st24" x1="84.2" y1="1596.5" x2="62.4" y2="1574.8"/>
<path class="st23" d="M3.2,1768.4l-69.5,118.9c-14.8,25.2,3.5,57,32.7,57h144.2c29.8,0,47.9-32.8,32.1-58l-74.8-118.9
	C52.8,1743.3,17.5,1743.9,3.2,1768.4z"/>
<path class="st23" d="M7.6,1707.1L-53.1,1811c-12.9,22.1,3,49.8,28.6,49.8h126.1c26,0,41.9-28.7,28-50.7l-65.3-103.9
	c-9.7-15.5-30.2-20.1-45.6-10.4C14.1,1698.6,10.3,1702.5,7.6,1707.1z"/>
<path class="st23" d="M13.2,1662.5l-49.9,85.3c-7.6,13-3.2,29.6,9.8,37.2c4.2,2.4,8.9,3.7,13.7,3.7H90.3c15,0,27.2-12.2,27.2-27.2
	c0-5.1-1.5-10.1-4.2-14.5l-53.7-85.3c-8-12.7-24.8-16.5-37.5-8.5C18.4,1655.6,15.4,1658.7,13.2,1662.5z"/>
<path class="st23" d="M17.8,1621l-40.7,69.6c-6.2,10.6-2.7,24.1,7.9,30.3c3.4,2,7.3,3.1,11.3,3.1h84.4c12.2,0,22.2-9.9,22.2-22.1
	c0-4.2-1.2-8.3-3.4-11.9l-43.8-69.6c-6.5-10.4-20.2-13.5-30.6-7C22.2,1615.3,19.6,1617.9,17.8,1621z"/>
<line class="st24" x1="34.3" y1="1919.4" x2="-11.9" y2="1867.3"/>
<line class="st24" x1="38.5" y1="1939.6" x2="89.8" y2="1888.3"/>
<line class="st25" x1="38.5" y1="2062.4" x2="38.5" y2="1663"/>
<line class="st24" x1="34.3" y1="1837.5" x2="3.1" y2="1799"/>
<line class="st24" x1="38.9" y1="1868" x2="79.8" y2="1827.1"/>
<line class="st24" x1="34.3" y1="1765" x2="12.3" y2="1737.9"/>
<line class="st24" x1="38.5" y1="1798.6" x2="65.7" y2="1771.5"/>
<line class="st24" x1="34.3" y1="1700.3" x2="23.3" y2="1686.8"/>
<line class="st24" x1="38.5" y1="1735.4" x2="60.3" y2="1713.7"/>
<rect x="513.7" y="392.8" class="st26" width="127.2" height="7.3"/>
<path class="st26" d="M630.2,358.8h0.6c1.6,0,2.8,1.3,2.8,2.8V444c0,1.6-1.3,2.8-2.8,2.8h-0.6c-1.6,0-2.8-1.3-2.8-2.8v-82.4
	C627.3,360,628.6,358.8,630.2,358.8z"/>
<path class="st26" d="M513.3,357.4h0.6c1.6,0,2.8,1.3,2.8,2.8v82.4c0,1.6-1.3,2.8-2.8,2.8h-0.6c-1.6,0-2.8-1.3-2.8-2.8v-82.4
	C510.5,358.6,511.8,357.4,513.3,357.4z"/>
<path class="st26" d="M614.2,423.2L614.2,423.2c1.7,0,3.1,1.4,3.1,3.1v41.2c0,1.7-1.4,3.1-3.1,3.1l0,0c-1.7,0-3.1-1.4-3.1-3.1v-41.2
	C611.1,424.6,612.5,423.2,614.2,423.2z"/>
<path class="st26" d="M497.3,423.2L497.3,423.2c1.7,0,3.1,1.4,3.1,3.1v41.2c0,1.7-1.4,3.1-3.1,3.1l0,0c-1.7,0-3.1-1.4-3.1-3.1v-41.2
	C494.2,424.6,495.6,423.2,497.3,423.2z"/>
<polygon class="st27" points="628.8,420.2 497.3,420.2 504.9,404.6 636.3,404.6 "/>
<polygon class="st27" points="628.8,414.1 497.3,414.1 504.9,398.4 636.3,398.4 "/>
<polygon class="st26" points="628.8,414.1 628.8,420.2 636.3,404.6 636.3,398.4 "/>
<rect x="497.3" y="414.1" class="st26" width="131.5" height="6.1"/>
<polygon class="st27" points="619.6,439.1 488.1,439.1 495.7,423.5 627.2,423.5 "/>
<polygon class="st27" points="619.6,433 488.1,433 495.7,417.4 627.2,417.4 "/>
<polygon class="st26" points="619.6,433 619.6,439.1 627.2,423.5 627.2,417.4 "/>
<rect x="488.1" y="433" class="st26" width="131.5" height="6.1"/>
<polygon class="st27" points="636.5,395 505,395 507.3,390.6 638.7,390.6 "/>
<polygon class="st26" points="636.5,378.8 505,378.8 507.3,374.4 638.7,374.4 "/>
<polygon class="st26" points="636.5,378.8 636.5,395 638.7,390.6 638.7,374.4 "/>
<rect x="505" y="378.8" class="st27" width="131.5" height="16.2"/>
<polygon class="st27" points="636.5,375.7 505,375.7 507.3,371.3 638.7,371.3 "/>
<polygon class="st26" points="636.5,359.5 505,359.5 507.3,355.1 638.7,355.1 "/>
<polygon class="st26" points="636.5,359.5 636.5,375.7 638.7,371.3 638.7,355.1 "/>
<rect x="505" y="359.5" class="st27" width="131.5" height="16.2"/>
<rect x="640.8" y="392.8" class="st26" width="115.7" height="7.3"/>
<path class="st26" d="M757.4,358.8h0.6c1.6,0,2.8,1.3,2.8,2.8V444c0,1.6-1.3,2.8-2.8,2.8h-0.6c-1.6,0-2.8-1.3-2.8-2.8v-82.4
	C754.5,360,755.8,358.8,757.4,358.8z"/>
<path class="st26" d="M640.5,357.4h0.6c1.6,0,2.8,1.3,2.8,2.8v82.4c0,1.6-1.3,2.8-2.8,2.8h-0.6c-1.6,0-2.8-1.3-2.8-2.8v-82.4
	C637.7,358.6,639,357.4,640.5,357.4z"/>
<path class="st26" d="M741.4,423.2L741.4,423.2c1.7,0,3.1,1.4,3.1,3.1v41.2c0,1.7-1.4,3.1-3.1,3.1l0,0c-1.7,0-3.1-1.4-3.1-3.1v-41.2
	C738.3,424.6,739.7,423.2,741.4,423.2z"/>
<path class="st26" d="M624.5,423.2L624.5,423.2c1.7,0,3.1,1.4,3.1,3.1v41.2c0,1.7-1.4,3.1-3.1,3.1l0,0c-1.7,0-3.1-1.4-3.1-3.1v-41.2
	C621.4,424.6,622.8,423.2,624.5,423.2z"/>
<polygon class="st27" points="755.9,420.2 624.5,420.2 632.1,404.6 763.5,404.6 "/>
<polygon class="st27" points="755.9,414.1 624.5,414.1 632.1,398.4 763.5,398.4 "/>
<polygon class="st26" points="755.9,414.1 755.9,420.2 763.5,404.6 763.5,398.4 "/>
<rect x="624.5" y="414.1" class="st26" width="131.5" height="6.1"/>
<polygon class="st27" points="746.8,439.1 615.3,439.1 622.9,423.5 754.4,423.5 "/>
<polygon class="st27" points="746.8,433 615.3,433 622.9,417.4 754.4,417.4 "/>
<polygon class="st26" points="746.8,433 746.8,439.1 754.4,423.5 754.4,417.4 "/>
<rect x="615.3" y="433" class="st26" width="131.5" height="6.1"/>
<polygon class="st27" points="763.7,395 632.2,395 634.5,390.6 765.9,390.6 "/>
<polygon class="st26" points="763.7,378.8 632.2,378.8 634.5,374.4 765.9,374.4 "/>
<polygon class="st26" points="763.7,378.8 763.7,395 765.9,390.6 765.9,374.4 "/>
<rect x="632.2" y="378.8" class="st27" width="131.5" height="16.2"/>
<polygon class="st27" points="763.7,375.7 632.2,375.7 634.5,371.3 765.9,371.3 "/>
<polygon class="st26" points="763.7,359.5 632.2,359.5 634.5,355.1 765.9,355.1 "/>
<polygon class="st26" points="763.7,359.5 763.7,375.7 765.9,371.3 765.9,355.1 "/>
<rect x="632.2" y="359.5" class="st27" width="131.5" height="16.2"/>
<line class="st28" x1="531.6" y1="693.3" x2="527.4" y2="691.3"/>
<line class="st28" x1="545.1" y1="693.3" x2="549.4" y2="691.3"/>
<path class="st7" d="M448.4,2737.4h84.9c24.1,0,43.7,19.6,43.7,43.7l0,0c0,24.1-19.6,43.7-43.7,43.7h-84.9
	c-24.1,0-43.7-19.6-43.7-43.7l0,0C404.8,2757,424.3,2737.4,448.4,2737.4z"/>
<path class="st7" d="M480,2823v18.4c0,1,0.8,1.8,1.7,1.8c0.5,0,0.9-0.2,1.3-0.5l18.3-18.3c0.7-0.7,0.7-1.8,0-2.5
	c-0.3-0.3-0.8-0.5-1.3-0.5l-18.3-0.1C480.8,2821.2,480,2822,480,2823L480,2823z"/>
<path class="st1" d="M447.6,2756.3c-0.9-0.8-2-1.2-3.1-1.1c-1.2,0-2.5,0.3-3.5,0.9c-1,0.6-1.8,1.4-2.5,2.4s-1.1,2.1-1.4,3.3
	s-0.5,2.3-0.5,3.5c0,0.8,0.1,1.6,0.3,2.4c0.2,0.7,0.5,1.4,1,2c0.4,0.6,1,1.1,1.7,1.4c0.8,0.4,1.6,0.5,2.5,0.5c0.7,0,1.4-0.1,2-0.4
	c0.6-0.2,1.2-0.6,1.7-1s0.9-1,1.2-1.5c0.3-0.6,0.6-1.2,0.7-1.8h5.3c-0.5,1.5-1.1,3-1.9,4.3c-0.7,1.1-1.5,2.1-2.5,2.9
	c-0.9,0.7-1.9,1.3-3,1.6c-1.2,0.3-2.4,0.5-3.6,0.5c-3.4,0-6.1-0.9-7.9-2.7c-1.9-1.8-2.8-4.5-2.8-7.9c0-1.9,0.3-3.8,0.9-5.6
	c0.6-1.7,1.5-3.3,2.6-4.7c2.4-2.8,6-4.4,9.7-4.4c1.3,0,2.6,0.2,3.9,0.6c1.1,0.4,2.2,0.9,3.1,1.7s1.6,1.7,2,2.8
	c0.5,1.2,0.7,2.6,0.7,3.9h-5.3C449,2758.5,448.5,2757.2,447.6,2756.3z"/>
<path class="st1" d="M456.1,2764.2c0.4-1.3,1.1-2.5,2-3.5s2-1.8,3.2-2.4c1.3-0.6,2.8-0.9,4.2-0.9c1.1,0,2.2,0.1,3.3,0.5
	c0.9,0.3,1.8,0.7,2.6,1.4c0.7,0.6,1.3,1.4,1.7,2.3c0.4,1,0.6,2.2,0.6,3.3c0,1.5-0.2,2.9-0.7,4.3c-0.4,1.3-1.1,2.5-2,3.5
	s-2,1.8-3.2,2.3c-1.3,0.6-2.8,0.9-4.3,0.9c-2.1,0.1-4.2-0.6-5.8-1.9c-1.5-1.5-2.3-3.5-2.2-5.6
	C455.5,2766.9,455.7,2765.5,456.1,2764.2z M460.5,2769.9c0.1,0.5,0.4,0.9,0.7,1.2c0.3,0.4,0.7,0.7,1.1,0.9c0.5,0.2,1,0.3,1.5,0.3
	c0.8,0,1.6-0.2,2.3-0.7c0.7-0.5,1.2-1.1,1.6-1.8s0.7-1.6,0.9-2.4c0.2-0.8,0.3-1.6,0.3-2.4c0.1-1-0.2-2-0.8-2.8
	c-0.7-0.8-1.7-1.1-2.7-1c-0.8,0-1.6,0.2-2.3,0.7c-0.6,0.5-1.2,1.1-1.6,1.8s-0.7,1.5-0.9,2.4c-0.2,0.8-0.3,1.6-0.3,2.4
	C460.2,2768.9,460.3,2769.4,460.5,2769.9L460.5,2769.9z"/>
<path class="st1" d="M483,2757.9l-0.5,2.5h0.1c0.7-1,1.6-1.7,2.6-2.2c1.1-0.5,2.3-0.7,3.5-0.7c1,0,1.9,0.2,2.8,0.7
	c0.8,0.5,1.3,1.4,1.5,2.3c0.3-0.5,0.7-0.9,1.1-1.2c0.4-0.4,0.9-0.7,1.5-1c0.5-0.3,1.1-0.5,1.6-0.6c0.6-0.1,1.1-0.2,1.7-0.2
	c0.7,0,1.3,0.1,2,0.3c0.6,0.2,1.2,0.4,1.7,0.8c0.5,0.4,0.9,0.8,1.2,1.4c0.3,0.6,0.5,1.3,0.4,2c0,0.6-0.1,1.1-0.2,1.6
	c-0.1,0.6-0.2,1.1-0.3,1.6l-2.2,10.3h-4.8l2.3-11.1c0.1-0.4,0.1-0.8,0.1-1.2c0-0.5-0.2-1-0.6-1.3c-0.4-0.4-1-0.6-1.5-0.5
	c-0.6,0-1.2,0.2-1.7,0.5s-1,0.7-1.3,1.1c-0.4,0.5-0.7,1-0.9,1.5c-0.2,0.5-0.4,1.1-0.5,1.7l-2,9.4h-4.8l2.3-11.1
	c0.1-0.4,0.1-0.8,0.1-1.2c0-0.5-0.2-1-0.6-1.3c-0.4-0.4-1-0.6-1.5-0.5c-0.6,0-1.2,0.2-1.7,0.5s-1,0.7-1.3,1.1
	c-0.4,0.5-0.7,1-0.9,1.5c-0.2,0.5-0.4,1.1-0.5,1.7l-2,9.4h-4.8l3.6-17.5L483,2757.9L483,2757.9z"/>
<path class="st1" d="M514.1,2757.9l-3.7,17.5h-4.8l3.7-17.5H514.1L514.1,2757.9z M509.8,2755.2l0.9-4h4.8l-0.9,4H509.8L509.8,2755.2
	z"/>
<path class="st1" d="M522.5,2757.9l-0.5,2.4h0.1c1.5-1.9,3.7-3,6.1-2.9c3.4,0,5.1,1.6,5.1,4.7c0,0.2,0,0.5-0.1,0.7
	c0,0.3-0.1,0.6-0.2,0.9s-0.1,0.6-0.2,0.8c-0.1,0.3-0.1,0.5-0.1,0.6l-2.2,10.3h-4.8l2.1-10.3l0.2-1.1c0.1-0.3,0.1-0.7,0.1-1
	c0-0.5-0.3-1-0.7-1.3c-0.5-0.3-1-0.5-1.6-0.5c-0.7,0-1.3,0.1-1.9,0.4c-0.5,0.3-1,0.6-1.4,1.1s-0.7,1-1,1.6s-0.5,1.2-0.6,1.8l-2,9.3
	h-4.8l3.6-17.5H522.5L522.5,2757.9z"/>
<path class="st1" d="M550.7,2777.9c-0.5,0.9-1.1,1.7-1.9,2.3c-0.8,0.6-1.8,1.1-2.8,1.4c-1.2,0.3-2.5,0.5-3.8,0.4
	c-0.9,0-1.8-0.1-2.7-0.3s-1.7-0.5-2.4-1c-0.7-0.4-1.3-1-1.7-1.8c-0.5-0.8-0.7-1.7-0.7-2.7h4.8c0,0.4,0.1,0.8,0.2,1.1
	c0.2,0.3,0.4,0.6,0.7,0.8s0.6,0.4,1,0.4c0.4,0.1,0.8,0.1,1.2,0.1c0.7,0,1.3-0.1,1.9-0.5c0.5-0.3,1-0.8,1.3-1.3
	c0.4-0.6,0.7-1.2,0.9-1.9s0.5-1.5,0.8-2.4l-0.1-0.1c-1.1,1.6-2.9,2.5-4.8,2.5c-1,0-1.9-0.2-2.8-0.5c-0.8-0.3-1.5-0.8-2.1-1.5
	s-1-1.4-1.3-2.2c-0.3-0.9-0.5-1.9-0.5-2.9c0-1.3,0.2-2.6,0.6-3.8c0.4-1.2,1-2.4,1.7-3.4s1.7-1.8,2.8-2.4c1.1-0.6,2.4-1,3.7-0.9
	c1.1,0,2.2,0.2,3.2,0.7s1.7,1.4,2.1,2.4h0.1l0.5-2.7h4.6l-3.5,16.6C551.6,2775.7,551.2,2776.9,550.7,2777.9z M543.5,2761.7
	c-0.6,0.4-1.1,1-1.5,1.6c-0.4,0.7-0.7,1.4-0.9,2.1c-0.2,0.7-0.3,1.5-0.3,2.2c0,0.5,0.1,1,0.2,1.5c0.1,0.4,0.3,0.9,0.6,1.2
	c0.3,0.4,0.6,0.6,1,0.9c0.5,0.2,1,0.3,1.5,0.3c0.8,0,1.6-0.2,2.2-0.6c0.6-0.4,1.2-1,1.6-1.6c0.4-0.7,0.7-1.4,1-2.1
	c0.2-0.7,0.3-1.5,0.3-2.3c0-1-0.3-1.9-0.8-2.7c-0.7-0.8-1.6-1.1-2.6-1.1C544.9,2761.1,544.2,2761.3,543.5,2761.7L543.5,2761.7z"/>
<path class="st1" d="M435.5,2803.4c0.2,0.5,0.6,1,1.1,1.4s1.1,0.6,1.7,0.7c0.7,0.2,1.4,0.2,2.1,0.2c0.5,0,1.1-0.1,1.6-0.2
	c0.5-0.1,1-0.3,1.5-0.6c0.4-0.3,0.8-0.6,1.1-1c0.3-0.5,0.4-1,0.4-1.6c0-0.5-0.2-1.1-0.5-1.4c-0.4-0.4-0.9-0.8-1.4-1
	c-0.6-0.3-1.3-0.5-2-0.7l-2.2-0.6c-0.8-0.2-1.5-0.5-2.2-0.8s-1.4-0.7-2-1.2s-1.1-1.1-1.4-1.8c-0.4-0.8-0.5-1.7-0.5-2.6
	c0-1.2,0.3-2.4,0.9-3.4c0.5-0.9,1.3-1.7,2.2-2.3c0.9-0.6,2-1.1,3.1-1.3c1.1-0.3,2.3-0.4,3.5-0.4s2.4,0.1,3.5,0.4
	c1,0.3,2,0.7,2.9,1.4c0.8,0.6,1.5,1.5,2,2.4c0.5,1.1,0.8,2.3,0.7,3.6h-5c0-0.6-0.1-1.2-0.3-1.7c-0.2-0.4-0.5-0.8-0.9-1.1
	s-0.9-0.5-1.4-0.6c-1.1-0.2-2.2-0.2-3.2,0c-0.5,0.1-0.9,0.3-1.4,0.5c-0.4,0.2-0.7,0.5-1,0.9s-0.4,0.9-0.4,1.4c0,0.6,0.2,1.1,0.7,1.5
	s1,0.8,1.6,1c0.6,0.3,1.3,0.5,1.9,0.6l1.6,0.4c0.9,0.2,1.8,0.5,2.6,0.9c0.7,0.3,1.4,0.7,2,1.3c0.6,0.5,1,1.2,1.3,1.9
	c0.3,0.9,0.5,1.8,0.5,2.7c0,1.3-0.3,2.6-0.9,3.7c-0.6,1-1.4,1.8-2.3,2.5c-1,0.6-2,1.1-3.2,1.4c-1.1,0.3-2.3,0.4-3.5,0.4
	c-3.4,0-5.9-0.7-7.6-2.1c-1.7-1.4-2.5-3.5-2.5-6.5h5C435.1,2802.1,435.2,2802.8,435.5,2803.4z"/>
<path class="st1" d="M453,2798c0.4-1.3,1.1-2.5,2-3.5s2-1.8,3.2-2.4c1.3-0.6,2.8-0.9,4.2-0.9c1.1,0,2.2,0.1,3.3,0.5
	c0.9,0.3,1.8,0.7,2.6,1.4c0.7,0.6,1.3,1.4,1.7,2.3c0.4,1,0.6,2.2,0.6,3.3c0,1.5-0.2,2.9-0.7,4.3c-0.4,1.3-1.1,2.5-2,3.5
	s-2,1.8-3.2,2.3c-1.3,0.6-2.8,0.9-4.3,0.9c-2.1,0.1-4.2-0.6-5.8-1.9c-1.5-1.5-2.3-3.5-2.2-5.6C452.3,2800.8,452.5,2799.4,453,2798z
	 M457.3,2803.7c0.1,0.5,0.4,0.9,0.7,1.3c0.3,0.4,0.7,0.7,1.1,0.9c0.5,0.2,1,0.3,1.5,0.3c0.8,0,1.6-0.2,2.3-0.7
	c0.7-0.5,1.2-1.1,1.6-1.8s0.7-1.6,0.9-2.4c0.2-0.8,0.3-1.6,0.3-2.4c0.1-1-0.2-2-0.8-2.8c-0.7-0.8-1.7-1.1-2.7-1
	c-0.8,0-1.6,0.2-2.3,0.7c-0.6,0.5-1.2,1.1-1.6,1.8s-0.7,1.5-0.9,2.4c-0.2,0.8-0.3,1.6-0.3,2.4
	C457.1,2802.8,457.2,2803.3,457.3,2803.7L457.3,2803.7z"/>
<path class="st1" d="M473.1,2798c0.4-1.3,1.1-2.5,2-3.5s2-1.8,3.2-2.4c1.3-0.6,2.8-0.9,4.2-0.9c1.1,0,2.2,0.1,3.3,0.5
	c0.9,0.3,1.8,0.7,2.6,1.4c0.7,0.6,1.3,1.4,1.7,2.3c0.4,1,0.6,2.2,0.6,3.3c0,1.5-0.2,2.9-0.7,4.3c-0.4,1.3-1.1,2.5-2,3.5
	s-2,1.8-3.2,2.3c-1.3,0.6-2.8,0.9-4.3,0.9c-2.1,0.1-4.2-0.6-5.8-1.9c-1.5-1.5-2.3-3.5-2.2-5.6C472.4,2800.8,472.6,2799.4,473.1,2798
	z M477.4,2803.7c0.1,0.5,0.4,0.9,0.7,1.2c0.3,0.4,0.7,0.7,1.1,0.9c0.5,0.2,1,0.3,1.5,0.3c0.8,0,1.6-0.2,2.3-0.7
	c0.7-0.5,1.2-1.1,1.6-1.8s0.7-1.6,0.9-2.4c0.2-0.8,0.3-1.6,0.3-2.4c0.1-1-0.2-2-0.8-2.8c-0.7-0.8-1.7-1.1-2.7-1
	c-0.8,0-1.6,0.2-2.3,0.7c-0.6,0.5-1.2,1.1-1.6,1.8s-0.7,1.5-0.9,2.4c-0.2,0.8-0.3,1.6-0.3,2.4
	C477.2,2802.8,477.3,2803.3,477.4,2803.7L477.4,2803.7z"/>
<path class="st1" d="M500,2791.8l-0.5,2.4h0.1c1.5-1.9,3.7-3,6.1-2.9c3.4,0,5.1,1.6,5.1,4.7c0,0.2,0,0.5-0.1,0.7
	c0,0.3-0.1,0.6-0.1,0.9s-0.1,0.6-0.2,0.8c-0.1,0.3-0.1,0.5-0.1,0.6l-2.2,10.3h-4.8l2.1-10.3l0.2-1.1c0.1-0.3,0.1-0.7,0.1-1
	c0-0.5-0.3-1-0.7-1.3c-0.5-0.3-1-0.5-1.6-0.5c-0.7,0-1.3,0.1-1.9,0.4c-0.5,0.3-1,0.6-1.4,1.1s-0.7,1-1,1.6s-0.5,1.2-0.6,1.8l-2,9.3
	h-4.8l3.6-17.5H500L500,2791.8z"/>
<path class="st1" d="M519.2,2804.1l-1.1,5.2h-5.3l1.1-5.2H519.2L519.2,2804.1z M518,2802.1h-2.4l0.8-10.4l1.4-6.6h5.1l-1.4,6.6
	L518,2802.1z"/>
</svg>
