<svg xmlns="http://www.w3.org/2000/svg" viewBox="0 0 250.83 89.55"><defs><style>.cls-1{fill:#6bffba;}.cls-2{fill:#00364b;}</style></defs><title>Asset 23</title><g id="Layer_2" data-name="Layer 2"><g id="對話框"><rect class="cls-1" width="250.83" height="49.48" rx="24.74" ry="24.74"/><path class="cls-2" d="M43.37,26.16A11.86,11.86,0,0,1,41,30.65,10.91,10.91,0,0,0,44.28,32a7.68,7.68,0,0,0-1.37,1.79,10.69,10.69,0,0,1-3.5-1.73A12.85,12.85,0,0,1,36,33.94a8.5,8.5,0,0,0-1.14-1.72V34H32.68V32.27c-2.26.24-4.52.45-6.28.64l-.17-2,1.7-.13,0-5.9H26.44V23.05l17.3.06V25l-8.87,0,0,7.17a9.72,9.72,0,0,0,2.95-1.47,11.88,11.88,0,0,1-1.86-3l.7-.19H35.48V25.66l6.08,0,.37-.08ZM31,22.47H28.73l0-6.1,12.8,0,0,6.1H39.2l0-4.5L31,18ZM30,30.61c.86-.08,1.79-.15,2.69-.24v-.68H30Zm0-2.53H32.7v-.78H30Zm0-3.18v.8h2.69v-.8ZM38.48,20l-6.92,0V18.67l6.92,0ZM31.58,22.1V20.75l6.9,0v1.34ZM38,27.44a7.56,7.56,0,0,0,1.32,1.84,7.32,7.32,0,0,0,1.27-1.83Z"/><path class="cls-2" d="M55.36,24.88a23.89,23.89,0,0,1-1.85,5.29c.25.18.52.39.89.61,1.32.8,3.15.93,5.41.94a66.09,66.09,0,0,0,7.89-.48A8.34,8.34,0,0,0,67,33.61c-1.64.09-5,.21-7.31.21-2.59,0-4.21-.23-5.63-1.05-.8-.45-1.5-1.1-1.89-1.1S51.12,33,50.67,34.1l-1.53-2.23a7.22,7.22,0,0,1,2.42-2.06,20.37,20.37,0,0,0,1.18-3.29H50.13c.45-1.09,1-2.63,1.48-4.09H49.54V20.35l4.77,0c-.41,1.32-.91,2.84-1.4,4.17H54l.33-.1Zm-3.64-5c-.25-.88-.73-2.24-1.08-3.28L52.76,16c.37,1,.85,2.32,1.12,3.14ZM59,23.43A14.5,14.5,0,0,1,57,30.53a9.72,9.72,0,0,0-2-1.41c1.61-2.27,1.77-5.57,1.78-7.94l0-4.21a36.15,36.15,0,0,0,8.27-1l1.88,1.7a33.34,33.34,0,0,1-7.8,1.2v2.46l8.15,0v2.14h-3l0,7.41H61.79l0-7.41Z"/><path class="cls-2" d="M90.57,18.65v2.22l-10.42,0a22.39,22.39,0,0,1-2.29,3.83l0,9.43H75.45l0-6.78a14.69,14.69,0,0,1-1.72,1.36,16.29,16.29,0,0,0-1.14-2.25,14.75,14.75,0,0,0,4.87-5.59l-4.23,0V18.59l5.26,0c.33-.92.63-1.81.87-2.71l2.43.59c-.22.72-.47,1.42-.75,2.12ZM85.85,31.52l4.62,0v2.14l-11.67,0V31.49l4.72,0,0-4.44h-4V24.91h4V21.69h2.34v3.23h3.86v2.14H85.86Z"/><path class="cls-2" d="M103.41,23.79c-.14.27-.29.53-.45.8l9.12,0,0,9.68h-2.34v-.7l-7.05,0v.7h-2.22l0-6.41a14.9,14.9,0,0,1-3,2.33A13.46,13.46,0,0,0,96,28.3a13,13,0,0,0,4.77-4.52H96.61V21.93l5.12,0c.14-.27.26-.56.37-.84H98V19.35l4.75,0c.08-.27.16-.55.22-.84-1.62.05-3.23.06-4.75,0a6,6,0,0,0-.42-1.74,98.89,98.89,0,0,0,13.66-.73l1.36,1.66a65.9,65.9,0,0,1-7.29.67c-.08.31-.18.62-.28.93l7.64,0v1.75l-8.26,0c-.1.27-.22.56-.33.84l9.65,0v1.83Zm6.3,8.05v-.9l-7.05,0v.9Zm0-3.2-7.05,0v.86l7.05,0Zm0-2.28-7.05,0v.84l7.05,0Z"/><path class="cls-2" d="M137.28,19.14s0,.78,0,1.05C137,28.9,136.74,32,135.94,33a2.6,2.6,0,0,1-1.87,1.06,21.72,21.72,0,0,1-3.06,0,5.45,5.45,0,0,0-.75-2.26c1.25.12,2.4.13,2.9.13a1,1,0,0,0,.86-.33c.57-.62.83-3.54,1.07-10.42l-4.17,0a16.79,16.79,0,0,1-1.73,3.07,14.44,14.44,0,0,0-1.5-1.1l0,9.1-5.2,0V33.7h-2.1l.05-14.48h2.2a20.75,20.75,0,0,0,.58-3.13l2.53.36c-.34,1-.69,1.95-1,2.78h3V22.4a20.19,20.19,0,0,0,2.65-6.26l2.2.51a22.57,22.57,0,0,1-.77,2.47Zm-11.71,11.1V26.42h-3.1v3.82Zm0-9h-3.1V24.4h3.1Zm6.44,8a41.48,41.48,0,0,0-2.69-4.51l1.82-1A47.18,47.18,0,0,1,134,28Z"/><path class="cls-2" d="M161,23.88V26.4l-17.93-.07V23.82Z"/><path class="cls-2" d="M179.08,22.43a16.57,16.57,0,0,0,5.45,7.07,9.52,9.52,0,0,0-1.84,2,13.38,13.38,0,0,1-2.06-2v1.7h-4v3.29h-2.46V31.18h-4.09V29.43a16.34,16.34,0,0,1-2.21,2.13,10.54,10.54,0,0,0-1.69-1.9,16.81,16.81,0,0,0,5.48-7.27l-4.77,0V20l7.31,0V16.3h2.46v3.76l7.35,0v2.36Zm-4.92,6.39,0-6.41h-.14a24,24,0,0,1-3.47,6.4Zm5.92,0a24.5,24.5,0,0,1-3.37-6.42h-.08l0,6.41Z"/><path class="cls-2" d="M199.87,23.29V24l6.24,0v1.4l-6.24,0v.7l7.66,0v1.62L190,27.66V26l7.5,0v-.7l-6.14,0v-1.4l6.14,0v-.68l-5.71,0V21.91l5.71,0v-.74l-7.48,0v-1.6l7.48,0v-.72l-5.49,0V17.51l5.5,0V16.3h2.32v1.23l5.44,0v2.07h2.22v1.6h-2.22v2.08Zm-7.4,5,12.92,0,0,6.31H203v-.57l-8.34,0v.58h-2.24ZM203,32.6v-.76l-8.34,0v.76Zm-8.33-2.84v.7l8.34,0v-.7Zm5.17-7.81H203v-.74h-3.14Zm0-2.34H203V18.9h-3.14Z"/><path class="cls-2" d="M221.37,22.3c0-1.17-.93-1.84-2.45-1.84A4,4,0,0,0,215.79,22L214.2,20.5a6.48,6.48,0,0,1,5-2.36c2.83,0,4.89,1.32,4.88,3.92,0,2.86-4.26,3.18-4,5.89h-2.51C217.23,24.87,221.36,24.19,221.37,22.3Zm-2.48,7a1.92,1.92,0,1,1-2,1.9A1.9,1.9,0,0,1,218.88,29.28Z"/><path class="cls-1" d="M129,49.37,136.53,86c1,4.86,4.64,4.73,5.54-.19l6.72-36.61c.67-3.65-.76-7.46-2.79-7.46H131.77C129.69,41.72,128.26,45.69,129,49.37Z"/></g></g></svg>