<svg xmlns="http://www.w3.org/2000/svg" viewBox="0 0 835.06 595.2"><defs><style>.cls-1,.cls-31{fill:#ff665c;}.cls-10,.cls-11,.cls-14,.cls-18,.cls-19,.cls-2,.cls-24,.cls-26,.cls-28,.cls-29,.cls-3,.cls-43,.cls-44,.cls-46,.cls-6,.cls-8,.cls-9{fill:none;}.cls-2,.cls-3,.cls-46{stroke:#004864;}.cls-10,.cls-11,.cls-12,.cls-13,.cls-14,.cls-15,.cls-2,.cls-21,.cls-22,.cls-24,.cls-25,.cls-26,.cls-28,.cls-29,.cls-3,.cls-30,.cls-31,.cls-32,.cls-33,.cls-34,.cls-35,.cls-36,.cls-37,.cls-38,.cls-39,.cls-40,.cls-41,.cls-42,.cls-43,.cls-44,.cls-46,.cls-5,.cls-8,.cls-9{stroke-linecap:round;}.cls-10,.cls-11,.cls-12,.cls-13,.cls-19,.cls-2,.cls-24,.cls-25,.cls-26,.cls-28,.cls-29,.cls-30,.cls-31,.cls-32,.cls-33,.cls-34,.cls-35,.cls-36,.cls-37,.cls-38,.cls-39,.cls-40,.cls-41,.cls-42,.cls-46,.cls-5,.cls-6,.cls-8,.cls-9{stroke-linejoin:round;}.cls-2,.cls-3{stroke-width:12.6px;}.cls-14,.cls-15,.cls-18,.cls-21,.cls-22,.cls-3,.cls-43,.cls-44{stroke-miterlimit:10;}.cls-4,.cls-41{fill:#ffb33c;}.cls-22,.cls-5{fill:#00364b;}.cls-19,.cls-22,.cls-43,.cls-44,.cls-5{stroke:#e0e0e0;}.cls-5{stroke-width:4.2px;}.cls-15,.cls-31,.cls-6{stroke:#ff665c;}.cls-19,.cls-6{stroke-linecap:square;stroke-width:11.2px;}.cls-15,.cls-7{fill:#e0e0e0;}.cls-12,.cls-13,.cls-8,.cls-9{stroke:#00364b;}.cls-10,.cls-8{stroke-width:8.36px;}.cls-11,.cls-9{stroke-width:6.27px;}.cls-10,.cls-11,.cls-18,.cls-26,.cls-28,.cls-29,.cls-30{stroke:#006464;}.cls-12,.cls-17,.cls-42{fill:#006464;}.cls-12,.cls-13{stroke-width:6.62px;}.cls-13,.cls-16,.cls-21{fill:#50adc0;}.cls-14{stroke:#50adc0;}.cls-14,.cls-15,.cls-21,.cls-22{stroke-width:5.6px;}.cls-18,.cls-44{stroke-width:2.8px;}.cls-20,.cls-25{fill:#ff9947;}.cls-21{stroke:#ffcd32;}.cls-23,.cls-30{fill:#ffcd32;}.cls-24,.cls-25,.cls-42{stroke:#ff9947;}.cls-24{stroke-width:3.12px;}.cls-25{stroke-width:3.2px;}.cls-26{stroke-width:2.38px;}.cls-27{fill:#6bffba;}.cls-28{stroke-width:4.25px;}.cls-29,.cls-30{stroke-width:2.13px;}.cls-31,.cls-32,.cls-33,.cls-34,.cls-35,.cls-36,.cls-37,.cls-38,.cls-39,.cls-40,.cls-41,.cls-46{stroke-width:5.06px;}.cls-32{fill:#ff6e59;stroke:#ff6e59;}.cls-33{fill:#ff7556;stroke:#ff7556;}.cls-34{fill:#ff7d52;stroke:#ff7d52;}.cls-35{fill:#ff854f;stroke:#ff854f;}.cls-36{fill:#ff8c4c;stroke:#ff8c4c;}.cls-37{fill:#ff9449;stroke:#ff9449;}.cls-38{fill:#ff9c46;stroke:#ff9c46;}.cls-39{fill:#ffa442;stroke:#ffa442;}.cls-40{fill:#ffab3f;stroke:#ffab3f;}.cls-41{stroke:#ffb33c;}.cls-42{stroke-width:6.68px;}.cls-43{stroke-width:2.97px;}.cls-45{fill:#004864;}</style></defs><title>資產 116</title><g id="圖層_2" data-name="圖層 2"><g id="content"><path class="cls-1" d="M150.65,271l55.11,94.3a30,30,0,0,1-25.94,45.21H65.37c-23.64,0-38-26-25.43-46l59.33-94.3A30,30,0,0,1,150.65,271Z" transform="translate(0 -8.68)"/><polyline class="cls-2" points="122.59 515.09 122.59 379.07 157.12 336.5"/><line class="cls-3" x1="122.59" y1="379.07" x2="87.83" y2="344.31"/><line class="cls-3" x1="122.59" y1="381.62" x2="122.59" y2="280.93"/><path class="cls-4" d="M667.36,272.41l55.11,94.3a30,30,0,0,1-25.94,45.21H582.08c-23.64,0-38-26-25.43-46L616,271.57A30,30,0,0,1,667.36,272.41Z" transform="translate(0 -8.68)"/><polyline class="cls-2" points="639.3 520.11 639.3 380.47 673.84 337.9"/><line class="cls-3" x1="639.3" y1="380.47" x2="604.54" y2="345.71"/><line class="cls-3" x1="639.3" y1="383.03" x2="639.3" y2="282.33"/><line class="cls-5" x1="586.31" y1="464.13" x2="586.31" y2="383.36"/><line class="cls-6" x1="584.36" y1="378.75" x2="593.33" y2="370.99"/><line class="cls-6" x1="580.68" y1="382.43" x2="572.92" y2="373.46"/><line class="cls-6" x1="584.36" y1="386.11" x2="575.4" y2="393.87"/><line class="cls-6" x1="588.04" y1="382.43" x2="595.8" y2="391.39"/><circle class="cls-7" cx="584.36" cy="382.43" r="2.03"/><path class="cls-8" d="M18.54,527.78A28.48,28.48,0,0,0,56.4,542.15a29,29,0,0,0,14.91-38A28.48,28.48,0,0,0,33.45,489.8,29,29,0,0,0,18.54,527.78Z" transform="translate(0 -8.68)"/><line class="cls-9" x1="65.21" y1="486.72" x2="24.89" y2="528.17"/><line class="cls-9" x1="64.73" y1="527.68" x2="26.88" y2="487.89"/><line class="cls-9" x1="73.69" y1="506.43" x2="16.15" y2="507.78"/><line class="cls-9" x1="44.97" y1="478.58" x2="43.29" y2="535.99"/><path class="cls-10" d="M158.57,527.78a28.48,28.48,0,0,0,37.85,14.37,29,29,0,0,0,14.91-38,28.48,28.48,0,0,0-37.85-14.37A29,29,0,0,0,158.57,527.78Z" transform="translate(0 -8.68)"/><line class="cls-11" x1="205.23" y1="486.72" x2="164.91" y2="528.17"/><line class="cls-11" x1="204.75" y1="527.68" x2="166.9" y2="487.89"/><line class="cls-11" x1="213.72" y1="506.43" x2="156.18" y2="507.78"/><line class="cls-11" x1="184.99" y1="478.58" x2="183.31" y2="535.99"/><polygon class="cls-12" points="26.05 502.09 15.46 465.3 15.46 495.04 26.05 530.65 26.05 502.09"/><rect class="cls-13" x="26.06" y="501.3" width="205.87" height="28.8"/><polygon class="cls-7" points="26.05 501.3 231.92 501.3 216.24 465.3 15.46 465.3 26.05 501.3"/><path class="cls-8" d="M31.33,578.37a28.48,28.48,0,0,0,37.85,14.37,29,29,0,0,0,14.91-38,28.48,28.48,0,0,0-37.85-14.37A29,29,0,0,0,31.33,578.37Z" transform="translate(0 -8.68)"/><line class="cls-9" x1="77.99" y1="537.31" x2="37.67" y2="578.76"/><line class="cls-9" x1="77.51" y1="578.27" x2="39.66" y2="538.48"/><line class="cls-9" x1="86.48" y1="557.02" x2="28.94" y2="558.37"/><line class="cls-9" x1="57.75" y1="529.17" x2="56.07" y2="586.58"/><path class="cls-8" d="M172.75,578.37a28.48,28.48,0,0,0,37.85,14.37,29,29,0,0,0,14.91-38,28.48,28.48,0,0,0-37.85-14.37A29,29,0,0,0,172.75,578.37Z" transform="translate(0 -8.68)"/><line class="cls-9" x1="219.42" y1="537.31" x2="179.09" y2="578.76"/><line class="cls-9" x1="218.94" y1="578.27" x2="181.09" y2="538.48"/><line class="cls-9" x1="227.9" y1="557.02" x2="170.36" y2="558.37"/><line class="cls-9" x1="199.18" y1="529.17" x2="197.49" y2="586.58"/><polygon class="cls-7" points="185.43 595.2 131.63 595.2 126.84 522.77 180.65 522.77 185.43 595.2"/><line class="cls-14" x1="161.1" y1="583.61" x2="149.43" y2="543.97"/><line class="cls-14" x1="166.59" y1="537.51" x2="161.1" y2="583.61"/><circle class="cls-15" cx="166.59" cy="537.51" r="5.49"/><line class="cls-14" x1="141.03" y1="559.9" x2="161.1" y2="583.61"/><circle class="cls-15" cx="149.43" cy="543.97" r="5.49"/><circle class="cls-15" cx="141.03" cy="559.9" r="5.49"/><line class="cls-14" x1="178.21" y1="571.76" x2="169.34" y2="582.68"/><line class="cls-14" x1="143.95" y1="581.28" x2="151.07" y2="586.61"/><path class="cls-8" d="M542.15,527.78A28.48,28.48,0,0,0,580,542.15a29,29,0,0,0,14.91-38,28.48,28.48,0,0,0-37.85-14.37A29,29,0,0,0,542.15,527.78Z" transform="translate(0 -8.68)"/><line class="cls-9" x1="588.81" y1="486.72" x2="548.49" y2="528.17"/><line class="cls-9" x1="588.33" y1="527.68" x2="550.48" y2="487.89"/><line class="cls-9" x1="597.29" y1="506.43" x2="539.76" y2="507.78"/><line class="cls-9" x1="568.57" y1="478.58" x2="566.89" y2="535.99"/><path class="cls-8" d="M682.17,527.78A28.48,28.48,0,0,0,720,542.15a29,29,0,0,0,14.91-38,28.48,28.48,0,0,0-37.85-14.37A29,29,0,0,0,682.17,527.78Z" transform="translate(0 -8.68)"/><line class="cls-9" x1="728.84" y1="486.72" x2="688.51" y2="528.17"/><line class="cls-9" x1="728.36" y1="527.68" x2="690.51" y2="487.89"/><line class="cls-9" x1="737.32" y1="506.43" x2="679.78" y2="507.78"/><line class="cls-9" x1="708.6" y1="478.58" x2="706.91" y2="535.99"/><polygon class="cls-12" points="549.66 502.09 539.06 465.3 539.06 495.04 549.66 530.65 549.66 502.09"/><rect class="cls-13" x="549.66" y="501.3" width="205.87" height="28.8"/><polygon class="cls-13" points="549.66 501.3 755.52 501.3 739.85 465.3 539.06 465.3 549.66 501.3"/><path class="cls-8" d="M554.93,578.37a28.48,28.48,0,0,0,37.85,14.37,29,29,0,0,0,14.91-38,28.48,28.48,0,0,0-37.85-14.37A29,29,0,0,0,554.93,578.37Z" transform="translate(0 -8.68)"/><line class="cls-9" x1="601.6" y1="537.31" x2="561.27" y2="578.76"/><line class="cls-9" x1="601.12" y1="578.27" x2="563.26" y2="538.48"/><line class="cls-9" x1="610.08" y1="557.02" x2="552.54" y2="558.37"/><line class="cls-9" x1="581.36" y1="529.17" x2="579.67" y2="586.58"/><path class="cls-8" d="M696.35,578.37a28.48,28.48,0,0,0,37.85,14.37,29,29,0,0,0,14.91-38,28.48,28.48,0,0,0-37.85-14.37A29,29,0,0,0,696.35,578.37Z" transform="translate(0 -8.68)"/><line class="cls-9" x1="743.02" y1="537.31" x2="702.7" y2="578.76"/><line class="cls-9" x1="742.54" y1="578.27" x2="704.69" y2="538.48"/><line class="cls-9" x1="751.5" y1="557.02" x2="693.96" y2="558.37"/><line class="cls-9" x1="722.78" y1="529.17" x2="721.1" y2="586.58"/><polygon class="cls-16" points="199.65 486.15 145.84 486.15 141.41 481.95 136.63 411.53 190.43 411.53 194.87 413.72 199.65 486.15"/><polygon class="cls-7" points="149.77 481.95 145.55 417.92 190.94 417.92 195.16 481.95 149.77 481.95"/><path class="cls-17" d="M187,430.8l3.67,55.63h-37L150,430.8h37m7.86-8.4H141.06l4.78,72.43h53.81l-4.78-72.43Z" transform="translate(0 -8.68)"/><line class="cls-18" x1="159.54" y1="435.14" x2="179.49" y2="435.14"/><line class="cls-18" x1="160.38" y1="443.91" x2="180.33" y2="443.91"/><line class="cls-18" x1="161.22" y1="452.67" x2="181.17" y2="452.67"/><line class="cls-18" x1="162.05" y1="461.43" x2="182" y2="461.43"/><line class="cls-5" x1="21.29" y1="465.3" x2="21.29" y2="401.37"/><line class="cls-19" x1="19.34" y1="396.76" x2="28.3" y2="389.01"/><line class="cls-19" x1="15.66" y1="400.44" x2="7.9" y2="391.48"/><line class="cls-19" x1="19.34" y1="404.13" x2="10.37" y2="411.88"/><line class="cls-19" x1="23.02" y1="400.44" x2="30.78" y2="409.41"/><circle class="cls-17" cx="19.34" cy="400.44" r="2.62"/><ellipse class="cls-20" cx="123.39" cy="480.03" rx="12.9" ry="6.58"/><ellipse class="cls-20" cx="123.39" cy="467.68" rx="12.88" ry="5.58"/><rect class="cls-20" x="110.51" y="467.68" width="25.76" height="12.27"/><ellipse class="cls-17" cx="123.37" cy="468.42" rx="12.55" ry="5.03"/><line class="cls-14" x1="123.69" y1="468.93" x2="105.37" y2="421.55"/><line class="cls-14" x1="123.69" y1="468.93" x2="116.18" y2="421.55"/><line class="cls-14" x1="128.54" y1="430.32" x2="123.69" y2="468.93"/><circle class="cls-15" cx="128.88" cy="430.32" r="5.49"/><circle class="cls-15" cx="106" cy="422.77" r="5.49"/><circle class="cls-15" cx="115.66" cy="419.21" r="5.49"/><line class="cls-14" x1="137.71" y1="460.46" x2="123.69" y2="468.93"/><line class="cls-14" x1="111.48" y1="458.43" x2="123.69" y2="468.93"/><ellipse class="cls-20" cx="81.44" cy="487.35" rx="15.3" ry="7.81"/><ellipse class="cls-20" cx="81.44" cy="472.7" rx="15.28" ry="6.62"/><rect class="cls-20" x="66.17" y="472.7" width="30.55" height="14.56"/><ellipse class="cls-17" cx="81.42" cy="473.58" rx="14.89" ry="5.97"/><line class="cls-14" x1="80.22" y1="474.55" x2="68.3" y2="446.72"/><line class="cls-14" x1="80.22" y1="474.55" x2="81.44" y2="426.77"/><line class="cls-14" x1="92.16" y1="445.91" x2="80.22" y2="474.55"/><line class="cls-14" x1="96.75" y1="465.03" x2="80.83" y2="474.54"/><rect class="cls-21" x="61.29" y="444.61" width="9.77" height="9.77" transform="translate(256.24 28.15) rotate(33.1)"/><rect class="cls-21" x="75.95" y="430.9" width="9.77" height="9.77" transform="translate(251.13 17.91) rotate(33.1)"/><rect class="cls-21" x="87.28" y="447.7" width="9.77" height="9.77" transform="translate(262.14 14.45) rotate(33.1)"/><ellipse class="cls-16" cx="256.85" cy="568.37" rx="15.3" ry="7.81"/><ellipse class="cls-16" cx="256.85" cy="487.64" rx="15.28" ry="6.62"/><rect class="cls-16" x="241.57" y="496.32" width="30.55" height="80.73" transform="translate(513.69 1064.69) rotate(-180)"/><ellipse class="cls-17" cx="256.87" cy="488.52" rx="14.89" ry="5.97"/><line class="cls-14" x1="258.07" y1="489.49" x2="269.99" y2="461.67"/><line class="cls-14" x1="258.07" y1="489.49" x2="256.85" y2="441.72"/><line class="cls-14" x1="246.13" y1="460.85" x2="258.07" y2="489.49"/><line class="cls-14" x1="241.54" y1="479.97" x2="257.46" y2="489.48"/><rect class="cls-22" x="267.24" y="459.56" width="9.77" height="9.77" transform="translate(753.73 696.19) rotate(146.9)"/><rect class="cls-22" x="252.57" y="445.85" width="9.77" height="9.77" transform="translate(719.3 679.01) rotate(146.9)"/><rect class="cls-22" x="241.25" y="462.64" width="9.77" height="9.77" transform="translate(707.65 716.05) rotate(146.9)"/><path class="cls-23" d="M309.05,465.92c1.63-2.58,4.22-2.54,5.76.09l7.1,12.14c1.54,2.64.3,4.79-2.75,4.79H303.89c-3.05,0-4.22-2.11-2.6-4.7Z" transform="translate(0 -8.68)"/><path class="cls-23" d="M302.14,489.16a3.82,3.82,0,0,0-4.06,3.49,3.82,3.82,0,0,1-4.06,3.49H274.6a4.07,4.07,0,0,0-4.06,4.06v.28a4.07,4.07,0,0,0,4.06,4.06H294a3.59,3.59,0,1,1,0,7.11H274.6a4.07,4.07,0,0,0-4.06,4.06V516a4.07,4.07,0,0,0,4.06,4.06H294a4.07,4.07,0,0,1,4.06,4.06v.19a4,4,0,0,1-3.8,4.06,4,4,0,0,0-3.8,4.06v34.42a3.94,3.94,0,0,1-3.79,4.06,3.94,3.94,0,0,0-3.79,4.06v.28a4.07,4.07,0,0,0,4.06,4.06h7.85a4.07,4.07,0,0,0,4.06-4.06V540.84a4.07,4.07,0,0,1,4.06-4.06h9.55a4.07,4.07,0,0,1,4.06,4.06v26a3.94,3.94,0,0,1-3.79,4.06A3.94,3.94,0,0,0,309,575v.28a4.07,4.07,0,0,0,4.06,4.06h7.85a4.07,4.07,0,0,0,4.06-4.06v-82a4.07,4.07,0,0,0-4.06-4.06Z" transform="translate(0 -8.68)"/><ellipse class="cls-24" cx="412.93" cy="584.24" rx="2.61" ry="3.02" transform="translate(-247.64 300.79) rotate(-32.16)"/><ellipse class="cls-24" cx="400.64" cy="582.66" rx="2.61" ry="3.02" transform="translate(-248.68 294.01) rotate(-32.16)"/><ellipse class="cls-24" cx="432.98" cy="576.63" rx="2.61" ry="3.02" transform="translate(-240.51 310.29) rotate(-32.16)"/><polygon class="cls-25" points="413.51 572.74 435.71 563.72 435.71 520.76 413.51 527.05 413.51 572.74"/><polyline class="cls-25" points="398.08 525.65 413.51 527.05 413.51 572.74 398.08 569.27 398.08 525.65"/><polygon class="cls-25" points="435.71 520.76 418.9 519.48 398.08 525.03 413.51 527.05 435.71 520.76"/><line class="cls-26" x1="407.67" y1="531.94" x2="407.67" y2="565.99"/><line class="cls-26" x1="403.28" y1="530.6" x2="403.28" y2="564.51"/><polyline class="cls-24" points="430.44 522.26 430.44 495.12 415.6 497.95 415.6 526.78"/><path class="cls-27" d="M316.88,326a2.8,2.8,0,0,1-2.8-2.8v-17a2.8,2.8,0,0,1,5.6,0v17A2.8,2.8,0,0,1,316.88,326Z" transform="translate(0 -8.68)"/><path class="cls-27" d="M320.45,317.45h-7.27a2.8,2.8,0,1,1,0-5.6h7.27a2.8,2.8,0,1,1,0,5.6Z" transform="translate(0 -8.68)"/><path class="cls-27" d="M480,31.31a2.8,2.8,0,0,1-2.8-2.8v-17a2.8,2.8,0,1,1,5.6,0v17A2.8,2.8,0,0,1,480,31.31Z" transform="translate(0 -8.68)"/><path class="cls-27" d="M483.61,22.79h-7.27a2.8,2.8,0,0,1,0-5.6h7.27a2.8,2.8,0,1,1,0,5.6Z" transform="translate(0 -8.68)"/><path class="cls-27" d="M335.56,362.7H325.48a2.8,2.8,0,1,1,0-5.6h10.07a2.8,2.8,0,0,1,0,5.6Z" transform="translate(0 -8.68)"/><path class="cls-27" d="M330.52,371.36a2.8,2.8,0,0,1-2.8-2.8V351a2.8,2.8,0,0,1,5.6,0v17.52A2.8,2.8,0,0,1,330.52,371.36Z" transform="translate(0 -8.68)"/><path class="cls-27" d="M273.12,380.88a2.8,2.8,0,0,1-2.8-2.8V354a2.8,2.8,0,0,1,5.6,0v24A2.8,2.8,0,0,1,273.12,380.88Z" transform="translate(0 -8.68)"/><path class="cls-27" d="M278.72,368.86H267.37a2.8,2.8,0,1,1,0-5.6h11.34a2.8,2.8,0,0,1,0,5.6Z" transform="translate(0 -8.68)"/><path class="cls-27" d="M496.9,107.76a2.8,2.8,0,0,1-2.8-2.8v-24a2.8,2.8,0,0,1,5.6,0v24A2.8,2.8,0,0,1,496.9,107.76Z" transform="translate(0 -8.68)"/><path class="cls-27" d="M502.5,95.75H491.16a2.8,2.8,0,0,1,0-5.6H502.5a2.8,2.8,0,1,1,0,5.6Z" transform="translate(0 -8.68)"/><path class="cls-23" d="M472.57,171.07a7.89,7.89,0,0,0,7.67-7l.05-.55a6.25,6.25,0,0,0-6.33-7H450.9a6.25,6.25,0,0,1-6.33-7l2.62-27.09a6.25,6.25,0,0,0-6.33-7H366a7.89,7.89,0,0,0-7.67,7l-.05.55a6.25,6.25,0,0,0,6.33,7h40.74a5.24,5.24,0,0,1,5.33,6.8l-10.92,44.4a11.32,11.32,0,0,0,4,10.93l1.79,1.31a13.65,13.65,0,0,1,5,11.1l-4.73,49a6.25,6.25,0,0,0,6.33,7h12.16a7.89,7.89,0,0,0,7.67-7L432,253c.37-3.83-2-7-5.17-7s-5.54-3.14-5.17-7L425,204.58a7.89,7.89,0,0,1,7.67-7h3.28a6.25,6.25,0,0,1,6.33,7l-2.87,29.72a6.25,6.25,0,0,0,6.33,7h13a7.89,7.89,0,0,0,7.67-7l.05-.55c.37-3.83-2.14-7-5.58-7s-6-3.14-5.58-7l1.47-15.24.72-7.42.7-7.24a6.17,6.17,0,0,0-6.34-6.79h-3.47c-3.85,0-6.74-2.71-6.42-6s3.73-6,7.58-6Z" transform="translate(0 -8.68)"/><path class="cls-23" d="M443.6,59.07c-4.88-7.75-12.65-7.63-17.27.28L405,95.77c-4.62,7.91-.91,14.38,8.25,14.38h45.79c9.16,0,12.66-6.34,7.78-14.1Z" transform="translate(0 -8.68)"/><line class="cls-28" x1="424.03" y1="74.93" x2="424.47" y2="78.58"/><polyline class="cls-29" points="428.99 74.86 423.87 72.42 418.22 76.14 415.73 75.25"/><polyline class="cls-30" points="430.56 65.01 422.97 65.55 420.22 67.6"/><line class="cls-28" x1="447.23" y1="74.93" x2="446.79" y2="78.58"/><polyline class="cls-29" points="442.27 74.86 447.39 72.42 453.03 76.14 455.53 75.25"/><path class="cls-23" d="M391.89,73.62a2.21,2.21,0,0,0,2.53,3c6-1.29,16.94-3.91,19.93-6.45A9.93,9.93,0,1,0,401.5,55C398.5,57.54,394.13,67.92,391.89,73.62Z" transform="translate(0 -8.68)"/><path class="cls-29" d="M443.87,97.73s-3.32,6-8.61,2.13c0,0-4.67,3.83-8.4-2.13" transform="translate(0 -8.68)"/><path class="cls-29" d="M437.89,91.1s-2.86,3.86-5.4,0" transform="translate(0 -8.68)"/><path class="cls-30" d="M433.11,59.62s10.1,16.08,27.19,25.81" transform="translate(0 -8.68)"/><path class="cls-1" d="M408,237.58a4.39,4.39,0,0,1-5-6.88L492.1,126a4.39,4.39,0,0,1,6.68,5.69L409.67,236.38A4.37,4.37,0,0,1,408,237.58Z" transform="translate(0 -8.68)"/><path class="cls-27" d="M406,253.21a4.38,4.38,0,0,1-4.37-.56l-12.84-9.82a4.39,4.39,0,1,1,5.33-7L407,245.68a4.39,4.39,0,0,1-1,7.52Z" transform="translate(0 -8.68)"/><path class="cls-27" d="M380,322.43a4.39,4.39,0,0,1-5.46-6.31c9.22-15.27,18.43-30.61,20.38-34.59,1.55-3.16,3-13.48-8.67-23.25-7.38-6.18-14.79-6.22-22-.12-3.31,2.79-10.18,9.25-26.56,24.73a4.39,4.39,0,0,1-6-6.38c1.94-1.83,22.6-21.41,26.93-25.06,10.51-8.85,22.64-8.82,33.3.1,15.42,12.9,13.88,27.77,10.92,33.83-2.47,5-17.33,29.61-20.75,35.26A4.37,4.37,0,0,1,380,322.43Z" transform="translate(0 -8.68)"/><path class="cls-27" d="M365,316.67a3.61,3.61,0,0,1-4.39-5.34l22.12-32.71a3.61,3.61,0,0,1,6,4l-22.12,32.71A3.59,3.59,0,0,1,365,316.67Z" transform="translate(0 -8.68)"/><path class="cls-27" d="M354,308.5a3.61,3.61,0,0,1-4.25-5.53l20.37-26.25a3.61,3.61,0,1,1,5.7,4.42l-20.37,26.25A3.59,3.59,0,0,1,354,308.5Z" transform="translate(0 -8.68)"/><path class="cls-27" d="M342.32,298.38a3.61,3.61,0,0,1-4-5.86l25.57-25.78a3.61,3.61,0,1,1,5.12,5.08L343.48,297.6A3.59,3.59,0,0,1,342.32,298.38Z" transform="translate(0 -8.68)"/><path class="cls-23" d="M411.17,197.61l-5.4,55.94a6.25,6.25,0,0,0,6.33,7h12.16a7.89,7.89,0,0,0,7.67-7L432,253c.37-3.83-2-7-5.17-7s-5.54-3.14-5.17-7l4-41.46" transform="translate(0 -8.68)"/><path class="cls-27" d="M552.62,92.95H542.55a2.8,2.8,0,1,1,0-5.6h10.07a2.8,2.8,0,0,1,0,5.6Z" transform="translate(0 -8.68)"/><path class="cls-27" d="M547.59,101.6a2.8,2.8,0,0,1-2.8-2.8V81.28a2.8,2.8,0,1,1,5.6,0V98.8A2.8,2.8,0,0,1,547.59,101.6Z" transform="translate(0 -8.68)"/><polygon class="cls-31" points="357.99 143.09 377.3 167.43 344.24 173.85 357.99 143.09"/><polygon class="cls-32" points="345.62 168.21 364.66 193.34 331.57 198.62 345.62 168.21"/><polygon class="cls-33" points="333.25 193.33 352.02 219.26 318.9 223.38 333.25 193.33"/><polygon class="cls-34" points="320.88 218.45 339.38 245.18 306.23 248.15 320.88 218.45"/><polygon class="cls-35" points="311.14 240.59 323.07 271.37 290.27 266.06 311.14 240.59"/><polygon class="cls-36" points="293.77 261.89 305.27 293.39 272.69 286.95 293.77 261.89"/><polygon class="cls-37" points="276.41 283.19 287.47 315.42 255.1 307.84 276.41 283.19"/><polygon class="cls-38" points="263.78 299.1 262.91 333.71 235.45 314.85 263.78 299.1"/><polygon class="cls-39" points="240.15 311.5 230.53 345.34 208.98 319.8 240.15 311.5"/><polygon class="cls-40" points="213.33 326.26 187.67 351.16 182.3 318.02 213.33 326.26"/><polygon class="cls-41" points="185.74 321.16 159.24 346.02 154.97 312.53 185.74 321.16"/><line class="cls-42" x1="509.62" y1="445.43" x2="504.81" y2="563.11"/><line class="cls-42" x1="460.62" y1="445.43" x2="450.39" y2="561.51"/><line class="cls-42" x1="509.62" y1="445.43" x2="522.62" y2="542.13"/><line class="cls-42" x1="460.62" y1="445.43" x2="468.42" y2="540.86"/><polygon class="cls-42" points="506.79 519 454.93 519 459.76 439.48 511.61 439.48 506.79 519"/><path class="cls-23" d="M472.53,468.86c1.56-2.49,4.06-2.45,5.54.09l6.83,11.68c1.48,2.54.29,4.61-2.65,4.61H467.57c-2.94,0-4.06-2-2.5-4.52Z" transform="translate(0 -8.68)"/><path class="cls-23" d="M498,476.47a4.26,4.26,0,0,0-4,4.43v5.88a4.45,4.45,0,0,1-4.43,4.43H450.06a4.45,4.45,0,0,0-4.43,4.43v22.15a4.45,4.45,0,0,0,4.43,4.43h5.09a4.45,4.45,0,0,1,4.43,4.43v43.45c0,2.44-1.64,4.43-3.64,4.43a3.87,3.87,0,0,0-3.64,4,4.26,4.26,0,0,0,4.43,4h6.51a4.26,4.26,0,0,0,4.43-4V541.47a4.45,4.45,0,0,1,4.43-4.43h.84a4.45,4.45,0,0,1,4.43,4.43V578.6a4.26,4.26,0,0,0,4.43,4h6.51a4.26,4.26,0,0,0,4.43-4,3.87,3.87,0,0,0-3.64-4c-2,0-3.64-2-3.64-4.43V503.74a4.45,4.45,0,0,1,4.43-4.43h7.69a4.45,4.45,0,0,0,4.43-4.43v-14A4.26,4.26,0,0,0,498,476.47Zm-41.33,39.18c-1.61,0-2.93-2-2.93-4.43v-7c0-2.44,1.32-4.43,2.93-4.43s2.93,2,2.93,4.43v7C459.58,513.65,458.26,515.65,456.65,515.65Z" transform="translate(0 -8.68)"/><line class="cls-43" x1="497.64" y1="465.19" x2="495.54" y2="457.29"/><line class="cls-44" x1="479.45" y1="457.29" x2="495.54" y2="457.29"/><rect class="cls-27" x="624.85" y="63.64" width="210.21" height="108.78" rx="54.39" ry="54.39"/><path class="cls-45" d="M697.74,114.63a46.88,46.88,0,0,1-3.1,10.34c.64.4,1.39,1,2.47,1.59,2.71,1.63,6.44,1.87,11.1,1.87a134.89,134.89,0,0,0,16.11-1,17.19,17.19,0,0,0-1.39,4.85c-3.26.2-10.3.48-15,.48-5.29,0-8.63-.44-11.5-2.11-1.67-.92-3.1-2.23-3.9-2.23s-2.35,2.71-3.3,5l-3.18-4.5a19,19,0,0,1,4.18-3.82,38.84,38.84,0,0,0,2.31-6.88h-5c.91-2.35,1.95-5.53,2.86-8.63h-3.58v-4.22h9.31c-.83,2.79-1.79,6-2.74,8.75H695l.72-.16Zm-6.68-10.42c-.44-1.83-1.51-4.69-2.15-6.88l4.18-1.23c.72,2.11,1.75,4.77,2.31,6.56Zm16.43-1.47h-9.95V98.92h9.95V96.09h4.61v2.82h10.42v3.82H712.1v1.95h8.67v13.52H712.1V120H723v3.86H712.1v3.58h-4.61V123.9h-9.87V120h9.87v-1.83h-8.35V104.69h8.35Zm-4,7.16h4v-1.95h-4Zm4,5.05v-2h-4v2Zm4.61-7v1.95h4.14v-1.95Zm4.14,5H712.1v2h4.14Z" transform="translate(0 -8.68)"/><path class="cls-45" d="M760,125.89A84.21,84.21,0,0,1,771,130l-3.94,3.18a65.47,65.47,0,0,0-11.46-4.69l2.55-2.62H746.55l3.7,2.59a47.4,47.4,0,0,1-12,4.77A30.68,30.68,0,0,0,735,130a42.53,42.53,0,0,0,11.06-4.14H735.21V122h5.29v-17.5H750q.18-.83.36-1.79H736.29V98.76h14.64c.08-1,.2-1.95.24-2.78l5,.48-.4,2.31h13.88v3.94H755c-.16.64-.24,1.23-.36,1.79h10.82V122h5.13v3.9Zm-15-18.46v1.71h15.59v-1.71Zm15.59,4.38H745.08v1.51h15.59Zm-15.59,4.14v1.55h15.59v-1.55Zm0,6h15.59v-1.83H745.08Z" transform="translate(0 -8.68)"/><path class="cls-45" d="M691.75,152.06a19.25,19.25,0,0,1-1.43,7.18,31.83,31.83,0,0,1,2.51,2.51l-1.62,2.05a27.29,27.29,0,0,0-2.12-2.32,14.22,14.22,0,0,1-3.53,3.65,9.16,9.16,0,0,0-1.74-1.72,12.56,12.56,0,0,0,3.51-3.63c-1.06-1-2.16-2-3.09-2.8.33-1.25.69-2.82,1-4.52l-1.16.08-.23-2.35,1.76-.06c.21-1.49.37-3,.46-4.36l2.45.1c-.12,1.31-.29,2.72-.52,4.15l1.49-.08v-1.31h2.3v1.18l1.08-.06V152Zm-4.15.27c-.25,1.37-.5,2.72-.77,3.9l1.6,1.35a17.06,17.06,0,0,0,1-5.37Zm15.65,4.25H699.1v5.83c0,1.27-.27,1.89-1.14,2.28a9.61,9.61,0,0,1-3.63.39,9.07,9.07,0,0,0-.83-2.35c1,0,2.24,0,2.57,0s.46-.08.46-.39v-5.79h-4.36v-2.34h4.36v-2a16.62,16.62,0,0,0,2.53-3H693V147h7.7l.58-.12,1.66,1.2a25.32,25.32,0,0,1-3.82,4.63v1.56h4.15Z" transform="translate(0 -8.68)"/><path class="cls-45" d="M714.77,146.42a41,41,0,0,1-1.56,4.07v14.59h-2.35V154.82c-.39.58-.79,1.1-1.16,1.58a21,21,0,0,0-1.2-2.68,23.09,23.09,0,0,0,4-8Zm13.09,13h-5.52v5.69h-2.47v-5.69h-5.5V157.1h5.5V154.7h-4.63v-2.3h4.63v-6.7h2.47v6.7H727v2.3h-4.69v2.41h5.52Zm-10.48-7.26a37,37,0,0,0-2.7-4.46l1.93-.93a29.2,29.2,0,0,1,2.76,4.25Zm9.75-4.73c-.62,1.58-1.52,3.51-2.14,4.71a12.49,12.49,0,0,0-2.08-1,29.52,29.52,0,0,0,2-4.38Z" transform="translate(0 -8.68)"/><path class="cls-45" d="M740.6,159c-.35-.54-.93-1.31-1.52-2v8.09h-2.43v-7.64a15.52,15.52,0,0,1-2.37,1.83,12.23,12.23,0,0,0-.93-2.51,14.55,14.55,0,0,0,5.33-5.37H734v-2.22h3.63a13.8,13.8,0,0,0-1.68-2.55l2-1a13.22,13.22,0,0,1,1.89,2.62l-1.64,1H740l.41-.1,1.31,1a19.7,19.7,0,0,1-2.39,4.34c.85.75,2.34,2.2,2.76,2.59ZM753,162v2.45h-12V162h5v-7.7H742v-2.39h4.09v-6.08h2.55v6.08h3.92v2.39h-3.92V162Z" transform="translate(0 -8.68)"/><path class="cls-45" d="M767.85,151.09h-8.74v-2h3.61a19.5,19.5,0,0,0-1.33-2.61l1.93-.89a18.57,18.57,0,0,1,1.52,2.76l-1.37.75h4.38Zm-7.82,2.8V152h7v1.87Zm6.91,2.78H760V154.8h6.91ZM767,164h-4.83v.87h-2.08v-7.16H767Zm-4.83-4.32V162h2.7v-2.32ZM777.81,155H774v10.06H771.4V155h-3.63V152.6h3.63v-6.52H774v6.52h3.84Z" transform="translate(0 -8.68)"/><path class="cls-27" d="M632.64,119l-50.11,2.11a2.18,2.18,0,0,0-1.38,3.78l50.92,20.6a2.18,2.18,0,0,0,3.65-1.68l-.81-22.71A2.18,2.18,0,0,0,632.64,119Z" transform="translate(0 -8.68)"/><path class="cls-46" d="M361.7,128.81c1.93-2.25-95.35,301.63-238.28,164.76" transform="translate(0 -8.68)"/><path class="cls-27" d="M731.17,34.81h6l2.34-8.54h-6l1.32-4.87h6l3.23-11.78H750L746.73,21.4h4.85l3.21-11.78h5.89L757.46,21.4h6l-1.33,4.87h-6l-2.33,8.54h6l-1.32,4.87h-6l-3.18,11.66h-5.89l3.18-11.66h-4.88l-3.2,11.66h-5.89l3.2-11.66h-6Zm16.76,0,2.33-8.54h-4.86L743,34.81Z" transform="translate(0 -8.68)"/><path class="cls-27" d="M774,22.19l1.21-5.66A40,40,0,0,0,781,16a10.21,10.21,0,0,0,4.62-2.22,9.31,9.31,0,0,0,2.31-3,7.72,7.72,0,0,0,.71-1.69h7l-9.12,42.28h-8.65l6.28-29.16Z" transform="translate(0 -8.68)"/><path class="cls-27" d="M831,42.25H826.1l-2,9.1h-8.26l2-9.1h-17L802.41,35,823.73,9.33h9.47l-5.71,26.42h4.86Zm-11.72-6.5,3.94-18.25L808.48,35.75Z" transform="translate(0 -8.68)"/><path class="cls-1" d="M647.74,11.29h3.61l6.54,11.31V11.29h3.21V27.51h-3.44L650.95,16V27.51h-3.21Z" transform="translate(0 -8.68)"/><path class="cls-1" d="M676.5,14.16h-8.72v3.44h8v2.82h-8V24.6h9.12v2.92H664.42V11.29H676.5Z" transform="translate(0 -8.68)"/><path class="cls-1" d="M681.83,11.29,684,20.58l.47,2.58.47-2.53,1.86-9.34h3.63l2,9.29.5,2.59.51-2.49,2.2-9.39h3.51l-4.63,16.22h-3.29l-2-9.49-.58-3.14L688,18l-2,9.49h-3.2l-4.67-16.22Z" transform="translate(0 -8.68)"/><polygon class="cls-1" points="666.15 26.74 673.95 42.67 681.52 26.74 666.15 26.74"/></g></g></svg>