<svg xmlns="http://www.w3.org/2000/svg" xmlns:xlink="http://www.w3.org/1999/xlink" viewBox="0 0 218.23 160.32"><defs><style>.cls-1,.cls-9{fill:none;}.cls-1{stroke:#e0e0e0;stroke-width:5px;}.cls-2{fill:#004864;}.cls-3{fill:#ff9947;}.cls-4{fill:#00364b;}.cls-5{fill:#bebebe;}.cls-6{fill:#e0e0e0;stroke:#ff9947;}.cls-6,.cls-9{stroke-linecap:round;stroke-width:11px;}.cls-7{fill:url(#未命名漸層_15);}.cls-8{fill:#fff;}.cls-9{stroke:#004864;}</style><linearGradient id="未命名漸層_15" x1="79.69" y1="19.16" x2="112.78" y2="105.61" gradientUnits="userSpaceOnUse"><stop offset="0" stop-color="#ff9947"/><stop offset="1" stop-color="#00364b"/></linearGradient></defs><title>Asset 13</title><g id="Layer_2" data-name="Layer 2"><g id="小物提示"><path class="cls-1" d="M5.73,113.33,90.16,58.58a4.52,4.52,0,0,1,2.28-.33l119.87,36c4.27,1.87,4.61,6,.71,9.07,0,0-85.46,49.2-88.93,51.47s-4.6,4.23-10.75,2.26L5.41,122.37C1.37,121.1,1.59,115,5.73,113.33Z"/><path class="cls-1" d="M9.21,108S70.79,7.66,71.88,6.06C72.61,4.76,73.59,2.9,76,3.69c0,0,108.66,25,111.45,25.7s9.37,2.23,3.62,10.94c0,0-66.28,105-68,107.92s-4.85,3.15-8.51,2L8.89,116.65C5,115.44,6.08,112.38,9.21,108Z"/><path class="cls-1" d="M6.7,107S68.29,6.66,69.38,5.06c.73-1.31,1.71-3.17,4.08-2.37,0,0,108.66,25,111.45,25.7s9.37,2.23,3.62,10.94c0,0-66.28,105-68,107.92s-4.85,3.15-8.51,2L6.39,115.65C2.49,114.44,3.58,111.38,6.7,107Z"/><path class="cls-1" d="M15.9,102.42,72.64,6.71c.28-.5.75-.87,2.17-.61L181,31.16c1.33.29,1.84,1.39.87,2.81L117.74,135.34a1.47,1.47,0,0,1-1.14.12L16.12,105.15C14.84,104.75,15,104.06,15.9,102.42Z"/><polygon class="cls-1" points="15.6 104.97 73.72 7.37 182.11 33.51 117.44 136.21 15.6 104.97"/><line class="cls-1" x1="24.28" y1="117.44" x2="32.76" y2="120.35"/><polygon class="cls-1" points="15.6 104.97 73.72 7.37 182.11 33.51 117.44 136.21 15.6 104.97"/><polygon class="cls-1" points="140.94 99.01 164.7 61.4 137.85 22.72 82.44 9.06 140.94 99.01"/><polygon class="cls-1" points="167.09 29.93 150.95 25.95 169.46 53.85 176.14 43.29 167.09 29.93"/><line class="cls-1" x1="34.16" y1="120.83" x2="57.82" y2="128.96"/><line class="cls-1" x1="53.58" y1="127.5" x2="66.71" y2="132.01"/><line class="cls-1" x1="68.99" y1="132.77" x2="86.64" y2="138.84"/><line class="cls-1" x1="89.42" y1="138.47" x2="97.9" y2="141.38"/><path class="cls-2" d="M5.73,113.33,90.16,58.58a4.52,4.52,0,0,1,2.28-.33l119.87,36c4.27,1.87,4.61,6,.71,9.07,0,0-85.46,49.2-88.93,51.47s-4.6,4.23-10.75,2.26L5.41,122.37C1.37,121.1,1.59,115,5.73,113.33Z"/><path class="cls-2" d="M9.21,108S70.79,7.66,71.88,6.06C72.61,4.76,73.59,2.9,76,3.69c0,0,108.66,25,111.45,25.7s9.37,2.23,3.62,10.94c0,0-66.28,105-68,107.92s-4.85,3.15-8.51,2L8.89,116.65C5,115.44,6.08,112.38,9.21,108Z"/><path class="cls-3" d="M6.7,107S68.29,6.66,69.38,5.06c.73-1.31,1.71-3.17,4.08-2.37,0,0,108.66,25,111.45,25.7s9.37,2.23,3.62,10.94c0,0-66.28,105-68,107.92s-4.85,3.15-8.51,2L6.39,115.65C2.49,114.44,3.58,111.38,6.7,107Z"/><path class="cls-4" d="M15.9,102.42,72.64,6.71c.28-.5.75-.87,2.17-.61L181,31.16c1.33.29,1.84,1.39.87,2.81L117.74,135.34a1.47,1.47,0,0,1-1.14.12L16.12,105.15C14.84,104.75,15,104.06,15.9,102.42Z"/><polygon class="cls-5" points="15.6 104.97 73.72 7.37 182.11 33.51 117.44 136.21 15.6 104.97"/><line class="cls-6" x1="24.28" y1="117.44" x2="32.76" y2="120.35"/><polygon class="cls-7" points="15.6 104.97 73.72 7.37 182.11 33.51 117.44 136.21 15.6 104.97"/><polygon class="cls-8" points="140.94 99.01 164.7 61.4 137.85 22.72 82.44 9.06 140.94 99.01"/><polygon class="cls-8" points="167.09 29.93 150.95 25.95 169.46 53.85 176.14 43.29 167.09 29.93"/><line class="cls-9" x1="34.16" y1="120.83" x2="57.82" y2="128.96"/><line class="cls-6" x1="53.58" y1="127.5" x2="66.71" y2="132.01"/><line class="cls-9" x1="68.99" y1="132.77" x2="86.64" y2="138.84"/><line class="cls-6" x1="89.42" y1="138.47" x2="97.9" y2="141.38"/></g></g></svg>