<svg xmlns="http://www.w3.org/2000/svg" viewBox="0 0 247.92 71.3"><defs><style>.cls-1{fill:#6bffba;}.cls-2{fill:#00364b;}</style></defs><title>Asset 20</title><g id="Layer_2" data-name="Layer 2"><g id="對話框"><rect class="cls-1" width="247.92" height="49.48" rx="24.74" ry="24.74"/><path class="cls-2" d="M32.26,16.51a29.42,29.42,0,0,1-1.87,4l0,13.41H28.12l0-10a18.79,18.79,0,0,1-1.31,1.57,14.89,14.89,0,0,0-1.24-2.42,20.52,20.52,0,0,0,4.45-7.27Zm6.88,4.9,0,10c0,1.11-.2,1.75-.9,2.14a6.14,6.14,0,0,1-2.87.46,8,8,0,0,0-.79-2.34c.82,0,1.64,0,1.91,0s.35-.08.35-.33l0-9.94H34.58a16.64,16.64,0,0,1-1.84,3,16.12,16.12,0,0,0-1.86-1.53,17.3,17.3,0,0,0,3.34-7l2.26.51a29.65,29.65,0,0,1-.93,2.9l6.7,0,.37-.08,1.64.32C44,21.09,43.68,22.9,43.4,24l-2-.34c.1-.6.22-1.42.32-2.28Zm-3.25,3.5a20,20,0,0,1-2.67,6.5,14.35,14.35,0,0,0-2-1.25,14.07,14.07,0,0,0,2.4-5.72Zm6-.64A24.1,24.1,0,0,1,44,30.62l-2.22.75A24.62,24.62,0,0,0,39.83,25Z"/><path class="cls-2" d="M67.13,18.88s0,.78,0,1.05c-.29,8.71-.51,11.81-1.31,12.84a2.6,2.6,0,0,1-1.88,1.06,21.87,21.87,0,0,1-3.06,0,5.46,5.46,0,0,0-.75-2.26c1.25.12,2.4.13,2.9.13a1,1,0,0,0,.86-.33c.57-.62.83-3.54,1.07-10.42l-4.17,0A16.83,16.83,0,0,1,59,24a14.44,14.44,0,0,0-1.5-1.1l0,9.1-5.2,0v1.42H50.2L50.26,19h2.2A20.75,20.75,0,0,0,53,15.83l2.53.36c-.34,1-.69,1.95-1,2.78h3v3.16a20.19,20.19,0,0,0,2.65-6.26l2.2.51a22.57,22.57,0,0,1-.77,2.47ZM55.42,30V26.16h-3.1V30Zm0-9h-3.1v3.16h3.1Zm6.44,8a41.48,41.48,0,0,0-2.69-4.51l1.82-1a47.31,47.31,0,0,1,2.85,4.34Z"/><path class="cls-2" d="M78.47,18.71l-.06,15.43H76.7V30.63l-3.63.73-.38-1.93,1-.15,0-10.58H72.9V16.62l6.24,0v2.07Zm-1.75,10V26.61H75.36V29Zm0-6.1H75.38v2.07h1.36Zm0-4H75.39v2.07h1.36ZM90.9,25.11A17.57,17.57,0,0,1,88.37,30c.21,1,.46,1.52.73,1.54s.43-.86.54-2.34A6.31,6.31,0,0,0,91,30.5c-.48,2.92-1.34,3.6-2,3.6-.92,0-1.59-.86-2.1-2.33A15.11,15.11,0,0,1,84.08,34a6.65,6.65,0,0,0-1.28-1.29,11.32,11.32,0,0,0,1.33-.91h-1v-.47H81.31v1.42H79.55l0-8.48,5.28,0,0,6.92a13.76,13.76,0,0,0,1.55-1.63,48,48,0,0,1-.64-6L79,23.6V21.65h.9a12.69,12.69,0,0,0-.36-1.77l1.58-.27a12.64,12.64,0,0,1,.44,2h1.05A14.83,14.83,0,0,0,83,19.6l1.75.26c-.2.64-.39,1.27-.55,1.81h1.46c-.07-1.77-.1-3.68-.13-5.71h2c0,2,0,3.92.1,5.71h3.31v1.95H87.67c.07,1.31.17,2.49.28,3.55a16.08,16.08,0,0,0,1.2-3Zm-5.79-5.52-5.75,0V17.79h1.87c-.13-.51-.31-1-.46-1.48L82.67,16c.21.54.44,1.23.62,1.81h1.83Zm-2,10.26V28.6H81.32v1.25Zm-1.8-4v1.21h1.81V25.86Zm7.42-4.59a22.43,22.43,0,0,0-1.21-3.59l1.62-.54a19.64,19.64,0,0,1,1.33,3.51Z"/><path class="cls-2" d="M103.6,31.17a15.05,15.05,0,0,1-5.68,2.57,9,9,0,0,0-1.36-1.68,16.32,16.32,0,0,0,5.4-1.64Zm10.34-3.25v1.91l-7.56,0,0,4.44h-2.3l0-4.44-7.42,0V27.85l7.42,0V27l-5.61,0V25.33l5.61,0v-.88l-6.59,0V22.69h3.59a10.94,10.94,0,0,0-.72-1.43l1.31-.29-5,0V19.16h2.65a17.91,17.91,0,0,0-1.24-2.42l2-.66a12.62,12.62,0,0,1,1.47,2.73l-.94.35h1.79V16h2.14v3.18h1.46V16h2.18v3.18H110l-.7-.22a17.13,17.13,0,0,0,1.26-2.8l2.43.58c-.55.89-1.08,1.77-1.57,2.45h2.51V21l-5.14,0,1.83.47c-.43.46-.84.89-1.19,1.24h3.76v1.75l-6.76,0v.88l5.85,0v1.68l-5.85,0v.86ZM102.72,21a9.14,9.14,0,0,1,.77,1.46l-1.05.25,5.32,0-.7-.22c.31-.45.73-1,1-1.5Zm6,9.34c1.58.59,3.87,1.57,5.12,2.2l-1.64,1.26c-1.13-.65-3.4-1.69-5-2.38Z"/><path class="cls-2" d="M137.69,18.23v2.08l-12.82,0V24c0,3.1-.48,7.56-3.2,10.22A7.73,7.73,0,0,0,120,32.66a8.74,8.74,0,0,0,2.28-4.53c-.7.43-1.45.87-2.15,1.26l-.65-2.18c.8-.35,1.93-.87,3.12-1.47,0-.6,0-1.21,0-1.77v-.57l-1.68.89a17.32,17.32,0,0,0-1.29-3.71l1.68-.83a18.94,18.94,0,0,1,1.29,3.12l0-4.7,6.62,0c-.13-.59-.31-1.19-.46-1.72l2.5-.46c.25.66.52,1.48.71,2.19Zm-12.33,3.11,12.12,0v2l-5.34,0v1.36l4.93,0L137,32c0,1-.2,1.56-.88,1.91a6.59,6.59,0,0,1-2.81.36,6.88,6.88,0,0,0-.73-2c.8,0,1.62,0,1.87,0s.33-.08.33-.29V30.26l-1.43,1.24a21.37,21.37,0,0,0-2.12-2.23,6.12,6.12,0,0,1-2.5,2.54,8.37,8.37,0,0,0-1.24-1.43v3.9h-2.07l0-9.61,4.5,0V23.32l-4.64,0Zm2.17,8.89a4.3,4.3,0,0,0,2.39-3.58h-2.38Zm7.3-3.56h-2.77c0,.27-.08.53-.12.8a28.56,28.56,0,0,1,2.87,2.76Z"/><path class="cls-2" d="M153.38,31.88c.51,0,1,.06,1.56.06,1.09,0,4.83,0,6.22,0a7.88,7.88,0,0,0-.79,2.22l-5.55,0c-3.57,0-6-.53-7.61-2.8a8.78,8.78,0,0,1-2.74,3.09,9.34,9.34,0,0,0-1.75-1.62,8.23,8.23,0,0,0,3.64-5.89l2.32.36c-.14.62-.3,1.21-.46,1.77a4.28,4.28,0,0,0,2.8,2.45l0-4.95-7.6,0v-2l17.19.06v2l-7.23,0V28l6,0v2l-6,0Zm5.41-8.24-13.54-.05,0-6.76,13.54.05ZM156.44,21l-8.92,0v1l8.92,0Zm0-2.51-8.92,0v1l8.92,0Z"/><path class="cls-2" d="M172.9,17a33.42,33.42,0,0,1-1.71,3.72l-.05,13.68h-2.28l0-10.05a19.76,19.76,0,0,1-1.47,1.75,15.64,15.64,0,0,0-1.24-2.4,20.44,20.44,0,0,0,4.51-7.39Zm11.45,8-4.79,0,0,9.49h-2.42l0-9.49-5,0V22.7l5,0,0-6.14h2.42l0,6.14,4.79,0Z"/><path class="cls-2" d="M193.28,19.8v3.35c0,3.18-.3,8.18-1.76,11.33a8.75,8.75,0,0,0-1.85-1.37c1.28-2.9,1.39-7.07,1.4-10l0-5.36,7.31,0c-.1-.41-.21-.84-.31-1.17l2.34-.42a15.42,15.42,0,0,1,.52,1.6l6.64,0v2Zm2.19,4.47a4,4,0,0,1-1,3,5,5,0,0,0-1.11-.9,2.64,2.64,0,0,0,.87-2.18v-.76h1.27Zm8.87,5.39c1,1.15,2.41,2.79,3.14,3.79l-1.78.93c-.19-.29-.45-.64-.72-1-9.18.63-10.25.64-11,.88a17.88,17.88,0,0,0-.54-1.85,7.48,7.48,0,0,0,2.32-.85,20.53,20.53,0,0,0,2.21-1.1,13.81,13.81,0,0,0-3.29.36,14.76,14.76,0,0,0-.52-1.72,3.7,3.7,0,0,0,1.27-.48,17.42,17.42,0,0,0,3.28-2.17c-.43-.18-.52-.57-.52-1.25V23.54h1.23V25.2c0,.29,0,.39.21.39a2.28,2.28,0,0,0,.62-.06c0,.19,0,.39,0,.6a2.45,2.45,0,0,0,.79-2v-.74h1.27v.8a3.63,3.63,0,0,1-1,2.86,4.3,4.3,0,0,0-1-.84l0,.19a2.28,2.28,0,0,1-.68.08h-.37l1.19.76a24,24,0,0,1-3.09,1.92l2.9-.13a24.66,24.66,0,0,0,2.6-1.82l1.71,1.16a40.3,40.3,0,0,1-6.29,3.7l5.48-.35c-.39-.45-.78-.92-1.11-1.33ZM196,26.92V22.85h-2.12V21.1H196v-.9h1.73v.9h2.36v1.73h-2.36v4.07Zm6.94.06V22.87h-2.34V21.13h2.34v-.9h1.73v.9h2.77v1.73h-2.77V27ZM207,25.87a3.35,3.35,0,0,0,.76-.08c0,.29,0,.66.08,1a3.09,3.09,0,0,1-.8.08h-.68c-1,0-1.19-.45-1.18-1.43V23.46h1.31v2c0,.31,0,.43.25.43Z"/><path class="cls-2" d="M221.37,22.3c0-1.17-.93-1.84-2.45-1.84A4,4,0,0,0,215.79,22L214.2,20.5a6.48,6.48,0,0,1,5-2.36c2.83,0,4.89,1.32,4.88,3.92,0,2.86-4.26,3.18-4,5.89h-2.51C217.23,24.87,221.36,24.19,221.37,22.3Zm-2.48,7a1.92,1.92,0,1,1-2,1.9A1.9,1.9,0,0,1,218.88,29.28Z"/><path class="cls-1" d="M44.65,46.45l6.12,22.64c.81,3,3.78,2.93,4.52-.12l5.47-22.64c.54-2.26-.62-4.61-2.27-4.61H46.9C45.2,41.72,44,44.18,44.65,46.45Z"/></g></g></svg>