<svg xmlns="http://www.w3.org/2000/svg" viewBox="0 0 104.17 101.44"><defs><style>.cls-1{fill:none;stroke:#e0e0e0;stroke-width:5px;}.cls-2{fill:#50adc0;}.cls-3{fill:#e0e0e0;}.cls-4{fill:#004864;}</style></defs><title>Asset 52</title><g id="Layer_2" data-name="Layer 2"><g id="小物提示"><path class="cls-1" d="M99.11,26.3s-25.63,7.51-30.54,13-7.33-2.54-7.33-2.54S64.6,14.32,63.6,7.25s8-4.87,11.06-2.21c3.61,3.15,8.2-6.43,15.56-.12S90.09,18.36,99.11,26.3Z"/><path class="cls-1" d="M70.92,14.77c0,1.31-.07,3.54-1,4A4.41,4.41,0,0,1,63.76,15c0-2.24,3.19-2.61,5.58-2.47A3.78,3.78,0,0,1,70.92,14.77Z"/><path class="cls-1" d="M65.55,34.33S66.86,2.16,70.6,3c4.22.91,3.82,6.14,8.35,3.14,3.85-2.55,6.64,2,6.64,2s-7.06,10.5-7.9,13.11S72,33.12,74.7,31.52c6.46-3.89,24.41-5.22,24.41-5.22s-22.52,7.3-30.54,13C62.19,43.77,65.55,34.33,65.55,34.33Z"/><circle class="cls-1" cx="52.31" cy="50.25" r="26.92" transform="translate(-16.47 27.19) rotate(-25.32)"/><ellipse class="cls-1" cx="49.73" cy="66.17" rx="4.2" ry="5" transform="translate(-32.98 69.41) rotate(-55.32)"/><path class="cls-1" d="M73.18,64.92s-12.77,14.73-31-3.67c0,0-7.09,3.34-2.17,11.81a28,28,0,0,0,18.87,1.82A26.56,26.56,0,0,0,73.18,64.92Z"/><path class="cls-1" d="M4.62,67.23s26.7-.88,32.81-4.95,7.12,1.62,6,6-5.81,19.93-6.6,27S24.49,97.68,23,93.91s-9.54,4.18-15.1-3.76S11.37,77.17,4.62,67.23Z"/><ellipse class="cls-1" cx="54.89" cy="28.35" rx="3.42" ry="4.65" transform="translate(25.28 82.57) rotate(-88.67)"/><ellipse class="cls-1" cx="31.42" cy="52" rx="4.65" ry="3.42" transform="translate(-21.29 82.2) rotate(-88.67)"/><circle class="cls-1" cx="61.2" cy="46.05" r="5.25" transform="translate(-13.81 30.59) rotate(-25.32)"/><path class="cls-1" d="M37.64,29.5c1.36,1.24,1.21,3.62-.35,5.32s-3.91,2.07-5.27.83-.43-2.74,1.12-4.44S36.28,28.26,37.64,29.5Z"/><path class="cls-1" d="M78.46,57.4c-.76,2.65-1.19,4.75-3.41,4.11s-3.42-3.31-2.65-6,3.18-4.29,5.41-3.65S79.22,54.74,78.46,57.4Z"/><path class="cls-1" d="M20.63,75.77c-.25,3.84-2.05,4.7-4.72,3.75-4-1.43-1.75-5.27.77-6.46S20.28,73.92,20.63,75.77Z"/><path class="cls-1" d="M87.57,25.88c-2.35-.76-3.9-5.14-1.42-6.5,3.06-1.68,3.15,2.13,5.4,3.84S89.91,26.64,87.57,25.88Z"/><path class="cls-1" d="M38.39,74.23c0,1.31-.07,3.54-1,4a4.41,4.41,0,0,1-6.18-3.71c0-2.24,3.19-2.61,5.58-2.47A3.78,3.78,0,0,1,38.39,74.23Z"/><path class="cls-1" d="M39.42,66.65C38,69,24.18,91.93,24.18,91.93c-2-2.58-9,.94-9,.94-.68-2.41,20.55-25.78,24.4-28.41C40.92,63.54,40.85,64.31,39.42,66.65Z"/><path class="cls-1" d="M30.13,64.69c.72,1.52.38,2.21-1.26,3s-5.59-1.32-5.08-2C26.41,65.47,30.13,64.69,30.13,64.69Z"/><path class="cls-1" d="M92.31,7.28c-.69,1.53-1.71,1.3-3.36.55s-1.39-4.16-.57-4.19C90.37,4.47,92.31,7.28,92.31,7.28Z"/><path class="cls-1" d="M36.74,95.94c-1.67.18-2.21-.37-2.41-2.17s3.08-4.85,3.52-4.16C37.22,92.17,36.74,95.94,36.74,95.94Z"/><path class="cls-2" d="M99.11,26.3s-25.63,7.51-30.54,13-7.33-2.54-7.33-2.54S64.6,14.32,63.6,7.25s8-4.87,11.06-2.21c3.61,3.15,8.2-6.43,15.56-.12S90.09,18.36,99.11,26.3Z"/><path class="cls-3" d="M70.92,14.77c0,1.31-.07,3.54-1,4A4.41,4.41,0,0,1,63.76,15c0-2.24,3.19-2.61,5.58-2.47A3.78,3.78,0,0,1,70.92,14.77Z"/><path class="cls-4" d="M65.55,34.33S66.86,2.16,70.6,3c4.22.91,3.82,6.14,8.35,3.14,3.85-2.55,6.64,2,6.64,2s-7.06,10.5-7.9,13.11S72,33.12,74.7,31.52c6.46-3.89,24.41-5.22,24.41-5.22s-22.52,7.3-30.54,13C62.19,43.77,65.55,34.33,65.55,34.33Z"/><circle class="cls-2" cx="52.31" cy="50.25" r="26.92" transform="translate(-16.47 27.19) rotate(-25.32)"/><ellipse class="cls-3" cx="49.73" cy="66.17" rx="4.2" ry="5" transform="translate(-32.98 69.41) rotate(-55.32)"/><path class="cls-4" d="M73.18,64.92s-12.77,14.73-31-3.67c0,0-7.09,3.34-2.17,11.81a28,28,0,0,0,18.87,1.82A26.56,26.56,0,0,0,73.18,64.92Z"/><path class="cls-2" d="M4.62,67.23s26.7-.88,32.81-4.95,7.12,1.62,6,6-5.81,19.93-6.6,27S24.49,97.68,23,93.91s-9.54,4.18-15.1-3.76S11.37,77.17,4.62,67.23Z"/><ellipse class="cls-3" cx="54.89" cy="28.35" rx="3.42" ry="4.65" transform="translate(25.28 82.57) rotate(-88.67)"/><ellipse class="cls-3" cx="31.42" cy="52" rx="4.65" ry="3.42" transform="translate(-21.29 82.2) rotate(-88.67)"/><circle class="cls-3" cx="61.2" cy="46.05" r="5.25" transform="translate(-13.81 30.59) rotate(-25.32)"/><path class="cls-3" d="M37.64,29.5c1.36,1.24,1.21,3.62-.35,5.32s-3.91,2.07-5.27.83-.43-2.74,1.12-4.44S36.28,28.26,37.64,29.5Z"/><path class="cls-3" d="M78.46,57.4c-.76,2.65-1.19,4.75-3.41,4.11s-3.42-3.31-2.65-6,3.18-4.29,5.41-3.65S79.22,54.74,78.46,57.4Z"/><path class="cls-3" d="M20.63,75.77c-.25,3.84-2.05,4.7-4.72,3.75-4-1.43-1.75-5.27.77-6.46S20.28,73.92,20.63,75.77Z"/><path class="cls-3" d="M87.57,25.88c-2.35-.76-3.9-5.14-1.42-6.5,3.06-1.68,3.15,2.13,5.4,3.84S89.91,26.64,87.57,25.88Z"/><path class="cls-3" d="M38.39,74.23c0,1.31-.07,3.54-1,4a4.41,4.41,0,0,1-6.18-3.71c0-2.24,3.19-2.61,5.58-2.47A3.78,3.78,0,0,1,38.39,74.23Z"/><path class="cls-4" d="M39.42,66.65C38,69,24.18,91.93,24.18,91.93c-2-2.58-9,.94-9,.94-.68-2.41,20.55-25.78,24.4-28.41C40.92,63.54,40.85,64.31,39.42,66.65Z"/><path class="cls-3" d="M30.13,64.69c.72,1.52.38,2.21-1.26,3s-5.59-1.32-5.08-2C26.41,65.47,30.13,64.69,30.13,64.69Z"/><path class="cls-3" d="M92.31,7.28c-.69,1.53-1.71,1.3-3.36.55s-1.39-4.16-.57-4.19C90.37,4.47,92.31,7.28,92.31,7.28Z"/><path class="cls-3" d="M36.74,95.94c-1.67.18-2.21-.37-2.41-2.17s3.08-4.85,3.52-4.16C37.22,92.17,36.74,95.94,36.74,95.94Z"/></g></g></svg>