<svg xmlns="http://www.w3.org/2000/svg" viewBox="0 0 263.03 89.55"><defs><style>.cls-1{fill:#6bffba;}.cls-2{fill:#00364b;}</style></defs><title>Asset 1</title><g id="Layer_2" data-name="Layer 2"><g id="對話框"><rect class="cls-1" width="263.03" height="49.48" rx="24.74" ry="24.74"/><path class="cls-2" d="M29.9,22.87A51.38,51.38,0,0,1,28.45,31L26.11,30a38.11,38.11,0,0,0,1.53-7.57Zm3.67-1.57,0,9c0,.92.15,1.07,1.09,1.08h2.79c1,0,1.15-.62,1.3-3.66a7.05,7.05,0,0,0,2.18,1c-.29,3.7-.92,4.85-3.31,4.84H34.34c-2.53,0-3.23-.79-3.22-3.25l0-9Zm-.16-5.24a35.34,35.34,0,0,1,5.38,4.05l-1.72,1.81a34.14,34.14,0,0,0-5.25-4.29Zm8.47,5.8a36.12,36.12,0,0,1,2.49,7.26l-2.36,1a33,33,0,0,0-2.29-7.35Z"/><path class="cls-2" d="M65.38,16.92l-.06,16.93H62.87V32.64l-9,0v1.21H51.51l.06-16.93Zm-2.5,13.46v-2.3l-9,0v2.3Zm-9-6.82v2.3l9,0V23.6Zm0-4.42v2.24l9,0V19.18Z"/><path class="cls-2" d="M89.93,19.33l0,9.72H87.45v-1l-4.4,0,0,6.08H80.58l0-6.08-4.38,0V29.1H73.87l0-9.82,6.72,0V15.93H83.1v3.37Zm-9.32,6.43,0-4.19-4.38,0,0,4.19Zm6.86,0,0-4.19-4.4,0,0,4.19Z"/><path class="cls-2" d="M113.9,19.05s0,.78,0,1.05c-.29,8.71-.51,11.81-1.31,12.84A2.6,2.6,0,0,1,110.68,34a21.85,21.85,0,0,1-3.06,0,5.45,5.45,0,0,0-.75-2.26c1.25.12,2.4.13,2.9.13a1,1,0,0,0,.86-.33c.57-.62.83-3.54,1.07-10.42l-4.17,0a16.83,16.83,0,0,1-1.73,3.07,14.29,14.29,0,0,0-1.5-1.1l0,9.1-5.2,0v1.42H97L97,19.13h2.2A20.76,20.76,0,0,0,99.8,16l2.53.36c-.34,1-.69,1.95-1,2.78h3v3.16A20.19,20.19,0,0,0,107,16l2.2.51A22.57,22.57,0,0,1,108.4,19Zm-11.71,11.1V26.34H99.1v3.82Zm0-9h-3.1v3.16h3.1Zm6.44,8A41.48,41.48,0,0,0,106,24.62l1.82-1a47.31,47.31,0,0,1,2.85,4.34Z"/><path class="cls-2" d="M126.85,21.17a25.87,25.87,0,0,1-2.1,3l0,10.17h-2.32l0-7.62c-.55.52-1.08,1-1.6,1.44a22.4,22.4,0,0,0-1.57-2,19,19,0,0,0,5.38-5.81ZM126.14,17a26.19,26.19,0,0,1-5.38,5.1,13.49,13.49,0,0,0-1.28-1.89,17.33,17.33,0,0,0,4.42-4.13Zm11.43,7.8H134.9l0,6.84c0,1.25-.24,1.89-1.1,2.24a10.76,10.76,0,0,1-3.8.38,9.53,9.53,0,0,0-.69-2.36c1.11.06,2.4.07,2.75,0s.49-.08.49-.37l0-6.78-5.75,0v-2.2l10.78,0Zm-.47-5.36-9.47,0v-2.2l9.47,0Z"/><path class="cls-2" d="M160.73,20.61s0,.76,0,1c-.21,8-.37,10.79-1,11.69a2.17,2.17,0,0,1-1.54,1,13.08,13.08,0,0,1-2.42.07,5.44,5.44,0,0,0-.67-2.22c.86.08,1.6.1,2,.1a.71.71,0,0,0,.66-.33c.41-.53.61-2.9.75-9.19h-1.75c-.27,5.22-1.18,9.23-4.47,11.81A7.56,7.56,0,0,0,150.89,33c-2.81.28-5.61.56-7.72.73l-.27-1.95,4-.26V30.34h-3.43V28.69h3.43v-.76h-3.35l0-6h3.35v-.76h-3.84V19.47h3.84v-.78c-1.13.07-2.24.13-3.29.14a7.21,7.21,0,0,0-.5-1.64,60.24,60.24,0,0,0,8.4-.92l1,1.74c-1,.21-2.24.38-3.51.51v1h3.74v1.07h1.83c0-1.29,0-2.63,0-4.07h2.22c0,1.42,0,2.79-.05,4.07ZM146.88,26.5v-.88h-1.52v.88Zm-1.51-2.27h1.52v-.86h-1.52Zm3.6,7.11c1.11-.07,2.26-.17,3.39-.26,1.53-2.1,2-4.88,2.16-8.37h-1.77V21.18H149v.76h3.45l0,6H149v.76h3.53v1.64H149Zm0-5.71v.88h1.52v-.88Zm1.52-1.38V23.4H149v.86Z"/><path class="cls-2" d="M177.13,24.22c-.76.54-1.5,1-2.3,1.55l7.07,0,0,8.65h-2.42v-.51l-6.7,0v.58h-2.32l0-6.37c-1,.42-2,.85-3,1.22A12.83,12.83,0,0,0,166,27.41a34.74,34.74,0,0,0,7.26-3.21l-6.62,0v-2l6.25,0V20.38l-4.58,0v-2l4.58,0v-2.1h2.3v2.1l4.23,0v1a23.72,23.72,0,0,0,2-2.47l2,1a28.54,28.54,0,0,1-3.85,4.27l4.52,0v2ZM179.45,32V30.68l-6.7,0V32Zm0-4.33-6.7,0V28.9l6.7,0Zm-4.23-5.51h1.07a26.39,26.39,0,0,0,2.11-1.77h-3.18Z"/><path class="cls-2" d="M194.86,27.81c-.17-.57-.5-1.35-.83-2.15l0,8.87h-1.93l0-7.5a18.35,18.35,0,0,1-1.67,4,13.78,13.78,0,0,0-1-2.34A19.46,19.46,0,0,0,192,22.11h-2.12V20h2.28V16.34h1.93V20h1.85v2.14H194v.58c.46.68,1.78,3,2.07,3.55Zm7.94-3.89a10.39,10.39,0,0,1,.52,1.81h3.94v1.89l-5.87,0a12.85,12.85,0,0,1-.18,1.3l5.44,0s0,.53-.06.8c-.18,2.46-.42,3.62-.89,4.11a1.92,1.92,0,0,1-1.39.62,15.57,15.57,0,0,1-2.24,0,4.81,4.81,0,0,0-.56-1.93,16.22,16.22,0,0,0,1.73.08c.29,0,.43,0,.58-.15a3.56,3.56,0,0,0,.43-1.69h-3.53a6.32,6.32,0,0,1-3.91,3.82,5.8,5.8,0,0,0-1.3-1.74c2.77-1.06,3.42-2.79,3.66-5.27h-2.61V25.71l4.38,0a11.57,11.57,0,0,0-.35-1.46Zm4.84-2.11v3.37h-2.18V23.6l-7.09,0v1.62h-2.1V21.77h2.38a13.74,13.74,0,0,0-.44-1.6l1.6-.27h-3.2V18.05l4.33,0a12,12,0,0,0-.33-1.52l2.14-.26a11,11,0,0,1,.46,1.79h4.07v1.85h-2.86l1.52.24-.69,1.63Zm-7.36-1.9a15.64,15.64,0,0,1,.56,1.87h2.28a19.21,19.21,0,0,0,.51-1.87Z"/><path class="cls-2" d="M218.89,28.5c-.23-.57-.64-1.44-1.06-2.28l0,8.4h-2.1l0-7.29a16.39,16.39,0,0,1-1.79,3.83,11.09,11.09,0,0,0-1-2,19.49,19.49,0,0,0,2.64-6.52H213.4V20.43h2.34v-4h2.1v4h1.95V22.6h-1.95v.86c.52.72,1.92,2.87,2.25,3.4Zm5.3.82a8,8,0,0,1-4.05,5,9.45,9.45,0,0,0-1.18-1.49,6.26,6.26,0,0,0,2.72-2.42h-2.12V28.86h3l.33-.06Zm7-.91c-1,.7-2,1.42-2.87,2a8.79,8.79,0,0,0,3.23,2.12,8.85,8.85,0,0,0-1.37,1.69A9.62,9.62,0,0,1,226.56,31v1.52c0,1-.18,1.48-.84,1.79a6.45,6.45,0,0,1-2.69.32,6.27,6.27,0,0,0-.58-1.89c.68,0,1.42,0,1.64,0s.31-.06.31-.27l0-4.31h-3.2V26.62l4.68,0c-.89-.37-1.89-.75-2.74-1l.57-.62h-4V23.3l4.64,0v-.76H221V21h3.39v-.72l-4.09,0V18.61h2.07a12,12,0,0,0-.87-1.54l1.7-.62a11.31,11.31,0,0,1,1.18,2l-.51.21H227l-.39-.14a17.7,17.7,0,0,0,1-2l2,.59-1.18,1.58h2.4v1.64l-4.29,0V21h3.82v1.58h-3.82v.76l4.62,0V25l-4.85,0a16.35,16.35,0,0,1,2.43,1.06l-1.23,1.38c-.27-.16-.6-.33-1-.51v1a7.4,7.4,0,0,0,.7,1.21,20.38,20.38,0,0,0,2.19-2Z"/><path class="cls-1" d="M114.35,49.37,121.86,86c1,4.86,4.64,4.73,5.54-.19l6.72-36.61c.67-3.65-.76-7.46-2.79-7.46H117.1C115,41.72,113.59,45.69,114.35,49.37Z"/></g></g></svg>