<svg xmlns="http://www.w3.org/2000/svg" viewBox="0 0 73.27 73.27"><defs><style>.cls-1{fill:#50adc0;}.cls-2{fill:#e0e0e0;}.cls-3{fill:#004864;}.cls-4{fill:none;stroke:#e0e0e0;stroke-width:5px;}</style></defs><title>資產 2 1</title><g id="圖層_2" data-name="圖層 2"><g id="重要時點"><circle class="cls-1" cx="36.63" cy="36.63" r="36.63"/><circle class="cls-2" cx="55.33" cy="14.36" r="3.75"/><path class="cls-3" d="M58.44,29.78c1.34.81,1.3,2.08-.09,2.81l-5.17,2.73a1.86,1.86,0,0,1-2.89-1.49l-.95-7c-.21-1.55.71-2.15,2-1.34Z"/><path class="cls-3" d="M21.32,40.45a2.71,2.71,0,0,1-2.52,2H14a2.5,2.5,0,0,0-2.39,2.06L10.94,49a1.74,1.74,0,0,0,1.77,2.06h.14a2.68,2.68,0,0,0,2.51-2l0-.23a2.68,2.68,0,0,1,2.51-2h5a2.67,2.67,0,0,0,2.5-2L26.81,38a2.67,2.67,0,0,1,2.5-2h3.78A2.44,2.44,0,0,1,35.44,38l.35,2.69A1.79,1.79,0,0,1,34,42.77H30.78a2,2,0,0,0-2,2.08l.1,4.16A2.14,2.14,0,0,0,31,51.09,2,2,0,0,0,33,49v-.15a2,2,0,0,1,2-2.08h3.46a1.8,1.8,0,0,0,1.82-2.07L39.45,38A1.72,1.72,0,0,1,41.08,36,2.37,2.37,0,0,1,43.26,38l1.59,11a2.48,2.48,0,0,0,2.38,2.06h.14A1.76,1.76,0,0,0,49.16,49l-3.57-24.8a2.48,2.48,0,0,0-2.38-2.06H27.37a2.71,2.71,0,0,0-2.52,2Z"/><path class="cls-3" d="M53,38.43a1.71,1.71,0,0,0-1.74,2.05l1.4,8.44A2.55,2.55,0,0,0,55.09,51h.14A1.71,1.71,0,0,0,57,48.92l-1.4-8.44a2.55,2.55,0,0,0-2.42-2.05Z"/></g><g id="重要時點提示"><path class="cls-4" d="M58.44,29.78c1.34.81,1.3,2.08-.09,2.81l-5.17,2.73a1.86,1.86,0,0,1-2.89-1.49l-.95-7c-.21-1.55.71-2.15,2-1.34Z"/><path class="cls-4" d="M58.44,29.78c1.34.81,1.3,2.08-.09,2.81l-5.17,2.73a1.86,1.86,0,0,1-2.89-1.49l-.95-7c-.21-1.55.71-2.15,2-1.34Z"/><path class="cls-4" d="M21.32,40.45a2.71,2.71,0,0,1-2.52,2H14a2.5,2.5,0,0,0-2.39,2.06L10.94,49a1.74,1.74,0,0,0,1.77,2.06h.14a2.68,2.68,0,0,0,2.51-2l0-.23a2.68,2.68,0,0,1,2.51-2h5a2.67,2.67,0,0,0,2.5-2L26.81,38a2.67,2.67,0,0,1,2.5-2h3.78A2.44,2.44,0,0,1,35.44,38l.35,2.69A1.79,1.79,0,0,1,34,42.77H30.78a2,2,0,0,0-2,2.08l.1,4.16A2.14,2.14,0,0,0,31,51.09,2,2,0,0,0,33,49v-.15a2,2,0,0,1,2-2.08h3.46a1.8,1.8,0,0,0,1.82-2.07L39.45,38A1.72,1.72,0,0,1,41.08,36,2.37,2.37,0,0,1,43.26,38l1.59,11a2.48,2.48,0,0,0,2.38,2.06h.14A1.76,1.76,0,0,0,49.16,49l-3.57-24.8a2.48,2.48,0,0,0-2.38-2.06H27.37a2.71,2.71,0,0,0-2.52,2Z"/><path class="cls-4" d="M21.32,40.45a2.71,2.71,0,0,1-2.52,2H14a2.5,2.5,0,0,0-2.39,2.06L10.94,49a1.74,1.74,0,0,0,1.77,2.06h.14a2.68,2.68,0,0,0,2.51-2l0-.23a2.68,2.68,0,0,1,2.51-2h5a2.67,2.67,0,0,0,2.5-2L26.81,38a2.67,2.67,0,0,1,2.5-2h3.78A2.44,2.44,0,0,1,35.44,38l.35,2.69A1.79,1.79,0,0,1,34,42.77H30.78a2,2,0,0,0-2,2.08l.1,4.16A2.14,2.14,0,0,0,31,51.09,2,2,0,0,0,33,49v-.15a2,2,0,0,1,2-2.08h3.46a1.8,1.8,0,0,0,1.82-2.07L39.45,38A1.72,1.72,0,0,1,41.08,36,2.37,2.37,0,0,1,43.26,38l1.59,11a2.48,2.48,0,0,0,2.38,2.06h.14A1.76,1.76,0,0,0,49.16,49l-3.57-24.8a2.48,2.48,0,0,0-2.38-2.06H27.37a2.71,2.71,0,0,0-2.52,2Z"/><path class="cls-4" d="M53,38.43a1.71,1.71,0,0,0-1.74,2.05l1.4,8.44A2.55,2.55,0,0,0,55.09,51h.14A1.71,1.71,0,0,0,57,48.92l-1.4-8.44a2.55,2.55,0,0,0-2.42-2.05Z"/><path class="cls-4" d="M53,38.43a1.71,1.71,0,0,0-1.74,2.05l1.4,8.44A2.55,2.55,0,0,0,55.09,51h.14A1.71,1.71,0,0,0,57,48.92l-1.4-8.44a2.55,2.55,0,0,0-2.42-2.05Z"/><path class="cls-3" d="M58.44,29.78c1.34.81,1.3,2.08-.09,2.81l-5.17,2.73a1.86,1.86,0,0,1-2.89-1.49l-.95-7c-.21-1.55.71-2.15,2-1.34Z"/><path class="cls-3" d="M21.32,40.45a2.71,2.71,0,0,1-2.52,2H14a2.5,2.5,0,0,0-2.39,2.06L10.94,49a1.74,1.74,0,0,0,1.77,2.06h.14a2.68,2.68,0,0,0,2.51-2l0-.23a2.68,2.68,0,0,1,2.51-2h5a2.67,2.67,0,0,0,2.5-2L26.81,38a2.67,2.67,0,0,1,2.5-2h3.78A2.44,2.44,0,0,1,35.44,38l.35,2.69A1.79,1.79,0,0,1,34,42.77H30.78a2,2,0,0,0-2,2.08l.1,4.16A2.14,2.14,0,0,0,31,51.09,2,2,0,0,0,33,49v-.15a2,2,0,0,1,2-2.08h3.46a1.8,1.8,0,0,0,1.82-2.07L39.45,38A1.72,1.72,0,0,1,41.08,36,2.37,2.37,0,0,1,43.26,38l1.59,11a2.48,2.48,0,0,0,2.38,2.06h.14A1.76,1.76,0,0,0,49.16,49l-3.57-24.8a2.48,2.48,0,0,0-2.38-2.06H27.37a2.71,2.71,0,0,0-2.52,2Z"/><path class="cls-3" d="M53,38.43a1.71,1.71,0,0,0-1.74,2.05l1.4,8.44A2.55,2.55,0,0,0,55.09,51h.14A1.71,1.71,0,0,0,57,48.92l-1.4-8.44a2.55,2.55,0,0,0-2.42-2.05Z"/></g></g></svg>