<svg xmlns="http://www.w3.org/2000/svg" viewBox="0 0 73.27 73.27"><defs><style>.cls-1{fill:#50adc0;}.cls-2{fill:#e0e0e0;}.cls-3{fill:#004864;}</style></defs><title>資產 4</title><g id="圖層_2" data-name="圖層 2"><g id="重要時點"><circle class="cls-1" cx="36.63" cy="36.63" r="36.63"/><circle class="cls-2" cx="55.54" cy="20.63" r="3.75"/><path class="cls-3" d="M20.66,22.21c-1.55-.46-1.85-1.73-.66-2.83l5.63-5.2c1.19-1.1,2.36-.69,2.6.91l1,6.88a1.73,1.73,0,0,1-2.38,2.07Z"/><path class="cls-3" d="M51.79,53.12A2.51,2.51,0,0,1,49.37,51L45.52,20.64A2.51,2.51,0,0,0,43.1,18.5H32.26s.08,1,.22,2.14l1.44,12A1.87,1.87,0,0,1,32,34.81H29.43A2.36,2.36,0,0,1,27,32.92,1.64,1.64,0,0,1,28.57,31a2.06,2.06,0,0,0-.1-4.09H24.6A1.88,1.88,0,0,0,22.76,29L24.8,51A1.87,1.87,0,0,1,23,53.12a1.86,1.86,0,0,0-1.8,2.14l0,.17a2.42,2.42,0,0,0,2.36,2.14h4.16a1.92,1.92,0,0,0,1.94-2.14l-.92-9.58a1.92,1.92,0,0,1,1.94-2.14H41.45a2.57,2.57,0,0,1,2.46,2.13l1.4,9.6a2.57,2.57,0,0,0,2.46,2.13h9.5a1.92,1.92,0,0,0,1.94-2.14l0-.17a2.42,2.42,0,0,0-2.36-2.14Z"/></g></g></svg>