<svg xmlns="http://www.w3.org/2000/svg" viewBox="0 0 73.27 73.27"><defs><style>.cls-1{fill:#50adc0;}.cls-2{fill:#e0e0e0;}.cls-3{fill:#004864;}.cls-4{fill:none;stroke:#e0e0e0;stroke-width:5px;}</style></defs><title>資產 1</title><g id="圖層_2" data-name="圖層 2"><g id="重要時點"><circle class="cls-1" cx="36.63" cy="36.63" r="36.63"/><circle class="cls-2" cx="55.54" cy="20.63" r="3.75"/><path class="cls-3" d="M44.51,46.7a1.8,1.8,0,0,1-1.8-1.8V35a1.8,1.8,0,0,1,1.8-1.8h.12a1.8,1.8,0,0,0,1.8-1.8V16.17a1.74,1.74,0,0,1,1.67-1.8,1.74,1.74,0,0,0,1.67-1.8v-.12a1.8,1.8,0,0,0-1.8-1.8H44.51a1.8,1.8,0,0,0-1.8,1.8V27.58a1.8,1.8,0,0,1-1.8,1.8H32.62a1.8,1.8,0,0,1-1.8-1.8V12.46a1.8,1.8,0,0,0-1.8-1.8H25.56a1.8,1.8,0,0,0-1.8,1.8v.12a1.74,1.74,0,0,0,1.67,1.8,1.74,1.74,0,0,1,1.67,1.8V31.38a1.8,1.8,0,0,0,1.8,1.8H29a1.8,1.8,0,0,1,1.8,1.8V44.9A1.8,1.8,0,0,1,29,46.7H25a1.79,1.79,0,0,0-1.78,1.8l.05,8a1.67,1.67,0,0,1-1.52,1.8A1.67,1.67,0,0,0,20.24,60,1.79,1.79,0,0,0,22,61.82h3.2A1.8,1.8,0,0,0,27,60V52.21a1.8,1.8,0,0,1,1.8-1.8h16a1.8,1.8,0,0,1,1.8,1.8V60a1.8,1.8,0,0,0,1.8,1.8h2.84A1.79,1.79,0,0,0,53,60a1.62,1.62,0,0,0-1.36-1.78c-.75,0-1.36-.81-1.36-1.8v-8a1.8,1.8,0,0,0-1.8-1.8Z"/><path class="cls-3" d="M37.91,60.53a1.37,1.37,0,0,1-2.54,0l-3.14-5.37C31.55,54,32.09,53,33.44,53h6.75c1.35,0,1.87.93,1.15,2.08Z"/></g><g id="重要時點提示"><path class="cls-4" d="M44.51,46.7a1.8,1.8,0,0,1-1.8-1.8V35a1.8,1.8,0,0,1,1.8-1.8h.12a1.8,1.8,0,0,0,1.8-1.8V16.17a1.74,1.74,0,0,1,1.67-1.8,1.74,1.74,0,0,0,1.67-1.8v-.12a1.8,1.8,0,0,0-1.8-1.8H44.51a1.8,1.8,0,0,0-1.8,1.8V27.58a1.8,1.8,0,0,1-1.8,1.8H32.62a1.8,1.8,0,0,1-1.8-1.8V12.46a1.8,1.8,0,0,0-1.8-1.8H25.56a1.8,1.8,0,0,0-1.8,1.8v.12a1.74,1.74,0,0,0,1.67,1.8,1.74,1.74,0,0,1,1.67,1.8V31.38a1.8,1.8,0,0,0,1.8,1.8H29a1.8,1.8,0,0,1,1.8,1.8V44.9A1.8,1.8,0,0,1,29,46.7H25a1.79,1.79,0,0,0-1.78,1.8l.05,8a1.67,1.67,0,0,1-1.52,1.8A1.67,1.67,0,0,0,20.24,60,1.79,1.79,0,0,0,22,61.82h3.2A1.8,1.8,0,0,0,27,60V52.21a1.8,1.8,0,0,1,1.8-1.8h16a1.8,1.8,0,0,1,1.8,1.8V60a1.8,1.8,0,0,0,1.8,1.8h2.84A1.79,1.79,0,0,0,53,60a1.62,1.62,0,0,0-1.36-1.78c-.75,0-1.36-.81-1.36-1.8v-8a1.8,1.8,0,0,0-1.8-1.8Z"/><path class="cls-4" d="M44.51,46.7a1.8,1.8,0,0,1-1.8-1.8V35a1.8,1.8,0,0,1,1.8-1.8h.12a1.8,1.8,0,0,0,1.8-1.8V16.17a1.74,1.74,0,0,1,1.67-1.8,1.74,1.74,0,0,0,1.67-1.8v-.12a1.8,1.8,0,0,0-1.8-1.8H44.51a1.8,1.8,0,0,0-1.8,1.8V27.58a1.8,1.8,0,0,1-1.8,1.8H32.62a1.8,1.8,0,0,1-1.8-1.8V12.46a1.8,1.8,0,0,0-1.8-1.8H25.56a1.8,1.8,0,0,0-1.8,1.8v.12a1.74,1.74,0,0,0,1.67,1.8,1.74,1.74,0,0,1,1.67,1.8V31.38a1.8,1.8,0,0,0,1.8,1.8H29a1.8,1.8,0,0,1,1.8,1.8V44.9A1.8,1.8,0,0,1,29,46.7H25a1.79,1.79,0,0,0-1.78,1.8l.05,8a1.67,1.67,0,0,1-1.52,1.8A1.67,1.67,0,0,0,20.24,60,1.79,1.79,0,0,0,22,61.82h3.2A1.8,1.8,0,0,0,27,60V52.21a1.8,1.8,0,0,1,1.8-1.8h16a1.8,1.8,0,0,1,1.8,1.8V60a1.8,1.8,0,0,0,1.8,1.8h2.84A1.79,1.79,0,0,0,53,60a1.62,1.62,0,0,0-1.36-1.78c-.75,0-1.36-.81-1.36-1.8v-8a1.8,1.8,0,0,0-1.8-1.8Z"/><path class="cls-4" d="M37.91,60.53a1.37,1.37,0,0,1-2.54,0l-3.14-5.37C31.55,54,32.09,53,33.44,53h6.75c1.35,0,1.87.93,1.15,2.08Z"/><path class="cls-4" d="M37.91,60.53a1.37,1.37,0,0,1-2.54,0l-3.14-5.37C31.55,54,32.09,53,33.44,53h6.75c1.35,0,1.87.93,1.15,2.08Z"/><path class="cls-3" d="M44.51,46.7a1.8,1.8,0,0,1-1.8-1.8V35a1.8,1.8,0,0,1,1.8-1.8h.12a1.8,1.8,0,0,0,1.8-1.8V16.17a1.74,1.74,0,0,1,1.67-1.8,1.74,1.74,0,0,0,1.67-1.8v-.12a1.8,1.8,0,0,0-1.8-1.8H44.51a1.8,1.8,0,0,0-1.8,1.8V27.58a1.8,1.8,0,0,1-1.8,1.8H32.62a1.8,1.8,0,0,1-1.8-1.8V12.46a1.8,1.8,0,0,0-1.8-1.8H25.56a1.8,1.8,0,0,0-1.8,1.8v.12a1.74,1.74,0,0,0,1.67,1.8,1.74,1.74,0,0,1,1.67,1.8V31.38a1.8,1.8,0,0,0,1.8,1.8H29a1.8,1.8,0,0,1,1.8,1.8V44.9A1.8,1.8,0,0,1,29,46.7H25a1.79,1.79,0,0,0-1.78,1.8l.05,8a1.67,1.67,0,0,1-1.52,1.8A1.67,1.67,0,0,0,20.24,60,1.79,1.79,0,0,0,22,61.82h3.2A1.8,1.8,0,0,0,27,60V52.21a1.8,1.8,0,0,1,1.8-1.8h16a1.8,1.8,0,0,1,1.8,1.8V60a1.8,1.8,0,0,0,1.8,1.8h2.84A1.79,1.79,0,0,0,53,60a1.62,1.62,0,0,0-1.36-1.78c-.75,0-1.36-.81-1.36-1.8v-8a1.8,1.8,0,0,0-1.8-1.8Z"/><path class="cls-3" d="M37.91,60.53a1.37,1.37,0,0,1-2.54,0l-3.14-5.37C31.55,54,32.09,53,33.44,53h6.75c1.35,0,1.87.93,1.15,2.08Z"/></g></g></svg>