<svg xmlns="http://www.w3.org/2000/svg" viewBox="0 0 71.03 115.93"><defs><style>.cls-1{fill:none;stroke:#e0e0e0;stroke-width:5px;}.cls-2{fill:#4eb5ff;}</style></defs><title>資產 4 1</title><g id="圖層_2" data-name="圖層 2"><g id="重要時點提示"><path class="cls-1" d="M53.92,40.43A2.6,2.6,0,0,0,56.59,38,2.47,2.47,0,0,0,54,35.74H46.83a2.21,2.21,0,0,1-2.25-2.63l1.36-8.65H24.71a3.34,3.34,0,0,0-3.13,3L19.73,38.52c-.32,1.88.83,3,2.08,3a2.57,2.57,0,0,0,2.58-2.41L25.59,32a3.07,3.07,0,0,1,2.8-2.63c1.31,0,2,1.18,1.71,2.62L24.28,65.93a3.28,3.28,0,0,1-3.11,2.62H17.95a3.22,3.22,0,0,0-3.07,2.63l-.69,4.4a2.32,2.32,0,0,0,2.25,2.63A2.76,2.76,0,0,0,19,75.81a3.19,3.19,0,0,1,3.1-2.4h2.43a4.69,4.69,0,0,0,4.42-3.66l2.54-13.46a3.35,3.35,0,0,1,3.15-2.61h7.69a2.21,2.21,0,0,1,2.25,2.63L41.59,75.06a2.64,2.64,0,0,0,2.69,3.14H49c1.47,0,2.94-.68,2.94-2.47,0-.84-.67-2.09-2.65-2.09h0A2.21,2.21,0,0,1,47.07,71L50,52.42a3.15,3.15,0,0,0-3.21-3.75h-2A2.21,2.21,0,0,1,42.55,46l.88-5.61Z"/><path class="cls-1" d="M39.84,10.86a1.46,1.46,0,0,1,2.71.3l3.52,7.7a1.58,1.58,0,0,1-1.55,2.42H34.61c-1.46,0-1.94-1-1.05-2.12Z"/><path class="cls-1" d="M46.38,9.76a1.41,1.41,0,0,1-1.11-2.27L48.74,3A1.41,1.41,0,1,1,51,4.77L47.49,9.21A1.41,1.41,0,0,1,46.38,9.76Z"/><path class="cls-1" d="M49,14.69a1.41,1.41,0,0,1-.6-2.68l5.86-2.77a1.41,1.41,0,0,1,1.2,2.54l-5.86,2.77A1.4,1.4,0,0,1,49,14.69Z"/><path class="cls-1" d="M56.78,20H50.85a1.41,1.41,0,1,1,0-2.81h5.93a1.41,1.41,0,1,1,0,2.81Z"/><path class="cls-1" d="M15.59,102.32A1.46,1.46,0,0,1,17,100.86h2.22a1.25,1.25,0,1,0,0-2.46H14.58a1.46,1.46,0,0,0-1.45,1.45v12a1.46,1.46,0,0,0,1.45,1.45h5.53a1.25,1.25,0,1,0,0-2.46H17a1.46,1.46,0,0,1-1.45-1.45Z"/><path class="cls-1" d="M38,112a1.46,1.46,0,0,0,1.45,1.45H44A1.46,1.46,0,0,0,45.44,112V99.79A1.46,1.46,0,0,0,44,98.33H39.48A1.46,1.46,0,0,0,38,99.79Zm3.71-11.3a1.41,1.41,0,0,1,1.36,1.45v7.49a1.36,1.36,0,1,1-2.72,0v-7.49A1.41,1.41,0,0,1,41.73,100.68Z"/><path class="cls-1" d="M33.39,111.9a1.25,1.25,0,1,0,2.46,0v-12a1.25,1.25,0,1,0-2.46,0Z"/><path class="cls-1" d="M65.53,111.58a1.52,1.52,0,1,0,3,0V96.88a1.78,1.78,0,0,0-1.77-1.77h-1.4a1.77,1.77,0,0,0-1.77,1.76c0,1,.44,1.76,1,1.76s1,.8,1,1.77Z"/><path class="cls-1" d="M23.54,98.4a1.25,1.25,0,1,0,0,2.46h.85a1.46,1.46,0,0,1,1.45,1.45v9.59a1.25,1.25,0,1,0,2.46,0v-9.59a1.46,1.46,0,0,1,1.45-1.45h.94a1.25,1.25,0,1,0,0-2.46Z"/><path class="cls-1" d="M6.41,95.95a1.25,1.25,0,1,0,0,2.46h.83A1.46,1.46,0,0,1,8.7,99.86v3.34a1.46,1.46,0,0,1-1.45,1.45H6.41A1.46,1.46,0,0,1,5,103.2V99.86A1.36,1.36,0,0,0,3.73,98.4,1.36,1.36,0,0,0,2.5,99.86V112a1.36,1.36,0,0,0,1.23,1.45A1.36,1.36,0,0,0,5,112v-3.41a1.46,1.46,0,0,1,1.45-1.45h.83a1.46,1.46,0,0,1,1.45,1.45V112a1.36,1.36,0,0,0,1.23,1.45A1.36,1.36,0,0,0,11.16,112V97.4a1.46,1.46,0,0,0-1.45-1.45Z"/><path class="cls-1" d="M57.2,100.08c0-1-.55-1.74-1.23-1.74s-1.23.78-1.24,1.74l0,5.31c0,1-.41,1.07-.91.25l-3.11-5.12a2,2,0,0,0-2-1.1,2.32,2.32,0,0,0-1.12,2.14v9.57c0,1,.55,1.74,1.23,1.74s1.23-.78,1.23-1.74v-4.85c0-1,.38-1.06.85-.22l3.26,5.85c.47.84,1.35,1.37,2,1.19A2.18,2.18,0,0,0,57.2,111Z"/><path class="cls-2" d="M53.92,40.43A2.6,2.6,0,0,0,56.59,38,2.47,2.47,0,0,0,54,35.74H46.83a2.21,2.21,0,0,1-2.25-2.63l1.36-8.65H24.71a3.34,3.34,0,0,0-3.13,3L19.73,38.52c-.32,1.88.83,3,2.08,3a2.57,2.57,0,0,0,2.58-2.41L25.59,32a3.07,3.07,0,0,1,2.8-2.63c1.31,0,2,1.18,1.71,2.62L24.28,65.93a3.28,3.28,0,0,1-3.11,2.62H17.95a3.22,3.22,0,0,0-3.07,2.63l-.69,4.4a2.32,2.32,0,0,0,2.25,2.63A2.76,2.76,0,0,0,19,75.81a3.19,3.19,0,0,1,3.1-2.4h2.43a4.69,4.69,0,0,0,4.42-3.66l2.54-13.46a3.35,3.35,0,0,1,3.15-2.61h7.69a2.21,2.21,0,0,1,2.25,2.63L41.59,75.06a2.64,2.64,0,0,0,2.69,3.14H49c1.47,0,2.94-.68,2.94-2.47,0-.84-.67-2.09-2.65-2.09h0A2.21,2.21,0,0,1,47.07,71L50,52.42a3.15,3.15,0,0,0-3.21-3.75h-2A2.21,2.21,0,0,1,42.55,46l.88-5.61Z"/><path class="cls-2" d="M39.84,10.86a1.46,1.46,0,0,1,2.71.3l3.52,7.7a1.58,1.58,0,0,1-1.55,2.42H34.61c-1.46,0-1.94-1-1.05-2.12Z"/><path class="cls-2" d="M46.38,9.76a1.41,1.41,0,0,1-1.11-2.27L48.74,3A1.41,1.41,0,1,1,51,4.77L47.49,9.21A1.41,1.41,0,0,1,46.38,9.76Z"/><path class="cls-2" d="M49,14.69a1.41,1.41,0,0,1-.6-2.68l5.86-2.77a1.41,1.41,0,0,1,1.2,2.54l-5.86,2.77A1.4,1.4,0,0,1,49,14.69Z"/><path class="cls-2" d="M56.78,20H50.85a1.41,1.41,0,1,1,0-2.81h5.93a1.41,1.41,0,1,1,0,2.81Z"/><path class="cls-2" d="M15.59,102.32A1.46,1.46,0,0,1,17,100.86h2.22a1.25,1.25,0,1,0,0-2.46H14.58a1.46,1.46,0,0,0-1.45,1.45v12a1.46,1.46,0,0,0,1.45,1.45h5.53a1.25,1.25,0,1,0,0-2.46H17a1.46,1.46,0,0,1-1.45-1.45Z"/><path class="cls-2" d="M38,112a1.46,1.46,0,0,0,1.45,1.45H44A1.46,1.46,0,0,0,45.44,112V99.79A1.46,1.46,0,0,0,44,98.33H39.48A1.46,1.46,0,0,0,38,99.79Zm3.71-11.3a1.41,1.41,0,0,1,1.36,1.45v7.49a1.36,1.36,0,1,1-2.72,0v-7.49A1.41,1.41,0,0,1,41.73,100.68Z"/><path class="cls-2" d="M33.39,111.9a1.25,1.25,0,1,0,2.46,0v-12a1.25,1.25,0,1,0-2.46,0Z"/><path class="cls-2" d="M65.53,111.58a1.52,1.52,0,1,0,3,0V96.88a1.78,1.78,0,0,0-1.77-1.77h-1.4a1.77,1.77,0,0,0-1.77,1.76c0,1,.44,1.76,1,1.76s1,.8,1,1.77Z"/><path class="cls-2" d="M23.54,98.4a1.25,1.25,0,1,0,0,2.46h.85a1.46,1.46,0,0,1,1.45,1.45v9.59a1.25,1.25,0,1,0,2.46,0v-9.59a1.46,1.46,0,0,1,1.45-1.45h.94a1.25,1.25,0,1,0,0-2.46Z"/><path class="cls-2" d="M6.41,95.95a1.25,1.25,0,1,0,0,2.46h.83A1.46,1.46,0,0,1,8.7,99.86v3.34a1.46,1.46,0,0,1-1.45,1.45H6.41A1.46,1.46,0,0,1,5,103.2V99.86A1.36,1.36,0,0,0,3.73,98.4,1.36,1.36,0,0,0,2.5,99.86V112a1.36,1.36,0,0,0,1.23,1.45A1.36,1.36,0,0,0,5,112v-3.41a1.46,1.46,0,0,1,1.45-1.45h.83a1.46,1.46,0,0,1,1.45,1.45V112a1.36,1.36,0,0,0,1.23,1.45A1.36,1.36,0,0,0,11.16,112V97.4a1.46,1.46,0,0,0-1.45-1.45Z"/><path class="cls-2" d="M57.2,100.08c0-1-.55-1.74-1.23-1.74s-1.23.78-1.24,1.74l0,5.31c0,1-.41,1.07-.91.25l-3.11-5.12a2,2,0,0,0-2-1.1,2.32,2.32,0,0,0-1.12,2.14v9.57c0,1,.55,1.74,1.23,1.74s1.23-.78,1.23-1.74v-4.85c0-1,.38-1.06.85-.22l3.26,5.85c.47.84,1.35,1.37,2,1.19A2.18,2.18,0,0,0,57.2,111Z"/></g></g></svg>