<svg xmlns="http://www.w3.org/2000/svg" viewBox="0 0 66.03 110.93"><defs><style>.cls-1{fill:#4eb5ff;}</style></defs><title>資產 5</title><g id="圖層_2" data-name="圖層 2"><g id="重要時點"><path class="cls-1" d="M51.42,37.93a2.6,2.6,0,0,0,2.67-2.4,2.47,2.47,0,0,0-2.63-2.29H44.33a2.21,2.21,0,0,1-2.25-2.63L43.44,22H22.21a3.34,3.34,0,0,0-3.13,3L17.23,36c-.32,1.88.83,3,2.08,3a2.57,2.57,0,0,0,2.58-2.41l1.2-7.09a3.07,3.07,0,0,1,2.8-2.63c1.31,0,2,1.18,1.71,2.62L21.78,63.43a3.28,3.28,0,0,1-3.11,2.62H15.45a3.22,3.22,0,0,0-3.07,2.63l-.69,4.4a2.32,2.32,0,0,0,2.25,2.63,2.76,2.76,0,0,0,2.53-2.4,3.19,3.19,0,0,1,3.1-2.4H22a4.69,4.69,0,0,0,4.42-3.66L29,53.79a3.35,3.35,0,0,1,3.15-2.61h7.69A2.21,2.21,0,0,1,42,53.8L39.09,72.56a2.64,2.64,0,0,0,2.69,3.14h4.75c1.47,0,2.94-.68,2.94-2.47,0-.84-.67-2.09-2.65-2.09h0a2.21,2.21,0,0,1-2.25-2.63l2.92-18.59a3.15,3.15,0,0,0-3.21-3.75h-2a2.21,2.21,0,0,1-2.25-2.63l.88-5.61Z"/><path class="cls-1" d="M37.34,8.36a1.46,1.46,0,0,1,2.71.3l3.52,7.7A1.58,1.58,0,0,1,42,18.78H32.11c-1.46,0-1.94-1-1.05-2.12Z"/><path class="cls-1" d="M43.88,7.26A1.41,1.41,0,0,1,42.77,5L46.24.54a1.41,1.41,0,1,1,2.22,1.73L45,6.71A1.41,1.41,0,0,1,43.88,7.26Z"/><path class="cls-1" d="M46.51,12.19a1.41,1.41,0,0,1-.6-2.68l5.86-2.77A1.41,1.41,0,0,1,53,9.28l-5.86,2.77A1.4,1.4,0,0,1,46.51,12.19Z"/><path class="cls-1" d="M54.28,17.46H48.35a1.41,1.41,0,1,1,0-2.81h5.93a1.41,1.41,0,1,1,0,2.81Z"/><path class="cls-1" d="M13.09,99.82a1.46,1.46,0,0,1,1.45-1.45h2.22a1.25,1.25,0,1,0,0-2.46H12.08a1.46,1.46,0,0,0-1.45,1.45v12a1.46,1.46,0,0,0,1.45,1.45h5.53a1.25,1.25,0,1,0,0-2.46H14.54a1.46,1.46,0,0,1-1.45-1.45Z"/><path class="cls-1" d="M35.52,109.48A1.46,1.46,0,0,0,37,110.93h4.51a1.46,1.46,0,0,0,1.45-1.45V97.29a1.46,1.46,0,0,0-1.45-1.45H37a1.46,1.46,0,0,0-1.45,1.45Zm3.71-11.3a1.41,1.41,0,0,1,1.36,1.45v7.49a1.36,1.36,0,1,1-2.72,0V99.63A1.41,1.41,0,0,1,39.23,98.18Z"/><path class="cls-1" d="M30.89,109.4a1.25,1.25,0,1,0,2.46,0v-12a1.25,1.25,0,1,0-2.46,0Z"/><path class="cls-1" d="M63,109.08a1.52,1.52,0,1,0,3,0V94.38a1.78,1.78,0,0,0-1.77-1.77h-1.4a1.77,1.77,0,0,0-1.77,1.76c0,1,.44,1.76,1,1.76s1,.8,1,1.77Z"/><path class="cls-1" d="M21,95.9a1.25,1.25,0,1,0,0,2.46h.85a1.46,1.46,0,0,1,1.45,1.45v9.59a1.36,1.36,0,0,0,1.23,1.45,1.36,1.36,0,0,0,1.23-1.45V99.82a1.46,1.46,0,0,1,1.45-1.45h.94a1.25,1.25,0,1,0,0-2.46Z"/><path class="cls-1" d="M3.91,93.45a1.25,1.25,0,1,0,0,2.46h.83A1.46,1.46,0,0,1,6.2,97.36v3.34a1.46,1.46,0,0,1-1.45,1.45H3.91a1.46,1.46,0,0,1-1.45-1.45V97.36A1.36,1.36,0,0,0,1.23,95.9,1.36,1.36,0,0,0,0,97.36v12.12a1.36,1.36,0,0,0,1.23,1.45,1.36,1.36,0,0,0,1.23-1.45v-3.41a1.46,1.46,0,0,1,1.45-1.45h.83a1.46,1.46,0,0,1,1.45,1.45v3.41a1.36,1.36,0,0,0,1.23,1.45,1.36,1.36,0,0,0,1.23-1.45V94.9a1.46,1.46,0,0,0-1.45-1.45Z"/><path class="cls-1" d="M54.7,97.58c0-1-.55-1.74-1.23-1.74s-1.23.78-1.24,1.74l0,5.31c0,1-.41,1.07-.91.25L48.19,98a2,2,0,0,0-2-1.1A2.32,2.32,0,0,0,45,99.06v9.57c0,1,.55,1.74,1.23,1.74s1.23-.78,1.23-1.74v-4.85c0-1,.38-1.06.85-.22l3.26,5.85c.47.84,1.35,1.37,2,1.19a2.18,2.18,0,0,0,1.12-2.08Z"/></g></g></svg>