<svg xmlns="http://www.w3.org/2000/svg" viewBox="0 0 114.56 119.71"><defs><style>.cls-1{fill:#ff7167;}.cls-2{fill:#ff665c;}</style></defs><title>資產 9</title><g id="圖層_2" data-name="圖層 2"><g id="重要時點"><path class="cls-1" d="M110.72,48.39a2.34,2.34,0,0,0,2.4-2.16,2.22,2.22,0,0,0-2.36-2.06h-6.4a2,2,0,0,1-2-2.36l1.22-7.76H84.5a3,3,0,0,0-2.81,2.68L80,46.68c-.29,1.69.74,2.69,1.87,2.69a2.31,2.31,0,0,0,2.32-2.17l1.08-6.36a2.76,2.76,0,0,1,2.52-2.36c1.18,0,1.76,1.06,1.54,2.35L84.12,71.28a2.94,2.94,0,0,1-2.79,2.35h-2.9A2.89,2.89,0,0,0,75.67,76L75,79.94a2.08,2.08,0,0,0,2,2.36,2.48,2.48,0,0,0,2.27-2.15A2.86,2.86,0,0,1,82.12,78H84.3a4.21,4.21,0,0,0,4-3.29l2.28-12.08a3,3,0,0,1,2.83-2.35h6.9a2,2,0,0,1,2,2.36L99.66,79.48a2.37,2.37,0,0,0,2.41,2.82h4.26c1.32,0,2.64-.61,2.64-2.22,0-.76-.6-1.88-2.38-1.88h0a2,2,0,0,1-2-2.36l2.62-16.69a2.83,2.83,0,0,0-2.88-3.37h-1.78a2,2,0,0,1-2-2.36l.79-5Z"/><path class="cls-1" d="M98.08,21.85a1.31,1.31,0,0,1,2.43.27L103.67,29a1.42,1.42,0,0,1-1.4,2.17H93.39c-1.31,0-1.74-.86-.95-1.9Z"/><path class="cls-1" d="M104,20.86a1.26,1.26,0,0,1-1-2l3.11-4a1.26,1.26,0,1,1,2,1.55l-3.11,4A1.26,1.26,0,0,1,104,20.86Z"/><path class="cls-1" d="M106.32,25.29a1.26,1.26,0,0,1-.54-2.41L111,20.39a1.26,1.26,0,0,1,1.08,2.28l-5.26,2.49A1.26,1.26,0,0,1,106.32,25.29Z"/><path class="cls-1" d="M113.29,30H108a1.26,1.26,0,0,1,0-2.53h5.32a1.26,1.26,0,1,1,0,2.53Z"/><path class="cls-1" d="M30.72,20.86a1.26,1.26,0,0,1-1-2l3.11-4a1.26,1.26,0,1,1,2,1.55l-3.11,4A1.26,1.26,0,0,1,30.72,20.86Z"/><path class="cls-1" d="M33.09,25.29a1.26,1.26,0,0,1-.54-2.41l5.26-2.49a1.26,1.26,0,0,1,1.08,2.28l-5.26,2.49A1.26,1.26,0,0,1,33.09,25.29Z"/><path class="cls-1" d="M40.06,30H34.74a1.26,1.26,0,1,1,0-2.53h5.32a1.26,1.26,0,0,1,0,2.53Z"/><path class="cls-1" d="M23.73,21.85a1.31,1.31,0,0,1,2.43.27L29.32,29a1.42,1.42,0,0,1-1.4,2.17H19c-1.31,0-1.74-.86-.95-1.9Z"/><path class="cls-1" d="M25.47,59.6s.18-1.06.37-2.36l.26-1.75a2.87,2.87,0,0,1,2.74-2.36h3.79a2.81,2.81,0,0,0,2.73-2.25,2,2,0,0,0-2-2.25H29.53a2,2,0,0,1-2-2.36l1.83-12.2H12.65A2.79,2.79,0,0,0,10,36.42L8.56,46.29a2,2,0,0,0,1.9,2.36A2,2,0,0,1,12.36,51l-.24,1.61-.7,4.67L10.71,62,10.4,64a2.79,2.79,0,0,1-2.61,2.36H3.29A2.72,2.72,0,0,0,.69,68.64L0,73.08a1.87,1.87,0,0,0,1.92,2.19,2.69,2.69,0,0,0,2.58-2.19,2.77,2.77,0,0,1,2.72-2.19h4.24a2.81,2.81,0,0,0,2.73-2.25L14.91,64,15.22,62A2.87,2.87,0,0,1,18,59.6h.6a2,2,0,0,1,2,2.36l-2,13.47L17.87,80a2,2,0,0,0,2,2.25h3.79A2.81,2.81,0,0,0,26.44,80a1.81,1.81,0,0,0-1.69-2.25,1.87,1.87,0,0,1-1.68-2.36L25.1,62C25.29,60.66,25.46,59.6,25.47,59.6Z"/><path class="cls-1" d="M66.19,20.86a1.26,1.26,0,0,1-1-2l3.11-4a1.26,1.26,0,1,1,2,1.55l-3.11,4A1.26,1.26,0,0,1,66.19,20.86Z"/><path class="cls-1" d="M68.56,25.29A1.26,1.26,0,0,1,68,22.88l3.6-1.7a1.26,1.26,0,0,1,1.08,2.28l-3.6,1.7A1.26,1.26,0,0,1,68.56,25.29Z"/><path class="cls-1" d="M75.53,30H70.21a1.26,1.26,0,1,1,0-2.53h5.32a1.26,1.26,0,0,1,0,2.53Z"/><path class="cls-1" d="M59.15,21.85a1.31,1.31,0,0,1,2.43.27L64.73,29a1.42,1.42,0,0,1-1.4,2.17H54.46c-1.31,0-1.74-.86-.95-1.9Z"/><path class="cls-1" d="M76,36.31l.69-4.61.81-5.36A2,2,0,0,0,75.6,24,2.79,2.79,0,0,0,73,26.34l-.81,5.36a2.87,2.87,0,0,1-2.74,2.36H43.5a2.81,2.81,0,0,0-2.73,2.25l-.69,4.61-.81,5.36a2,2,0,0,0,1.9,2.36,2.79,2.79,0,0,0,2.61-2.36l.81-5.36a2.79,2.79,0,0,1,2.61-2.36,2,2,0,0,1,1.9,2.36L46.65,57.24a2,2,0,0,0,2,2.36H49a2,2,0,0,1,2,2.36L49.7,71a2.79,2.79,0,0,1-2.61,2.36H42.58A2.72,2.72,0,0,0,40,75.6L39.32,80a1.87,1.87,0,0,0,1.92,2.19A2.69,2.69,0,0,0,43.83,80a2.77,2.77,0,0,1,2.72-2.19h4.24a2.81,2.81,0,0,0,2.73-2.25L54.21,71l1.36-9A11.8,11.8,0,0,1,56,59.6H63A1.94,1.94,0,0,1,64.83,62l-.32,2.12-.36,2.42-.34,2.25a1.93,1.93,0,0,0,2.06,2.2h3.79a2.81,2.81,0,0,0,2.73-2.25,1.81,1.81,0,0,0-1.69-2.25A1.87,1.87,0,0,1,69,64.08L69.34,62,70,57.34a1.9,1.9,0,0,0-1.92-2.25H63.63a1.94,1.94,0,0,1-1.88-2.36l1.77-11.8a2.87,2.87,0,0,1,2.74-2.36h9.4L76,36.31Z"/><line class="cls-1" x1="76.79" y1="17.98" x2="79.15" y2="2.36"/><path class="cls-1" d="M76.8,19.78l-.27,0a1.8,1.8,0,0,1-1.51-2L77.37,2.1a1.8,1.8,0,1,1,3.56.54L78.57,18.25A1.8,1.8,0,0,1,76.8,19.78Z"/><polygon class="cls-1" points="80.08 8.24 46.08 8.24 47.33 0 81.33 0 80.08 8.24"/><path class="cls-2" d="M30.78,108.6a1.46,1.46,0,0,1,1.45-1.45h2.22a1.25,1.25,0,1,0,0-2.46H29.77a1.46,1.46,0,0,0-1.45,1.45v12a1.46,1.46,0,0,0,1.45,1.45H35.3a1.25,1.25,0,1,0,0-2.46H32.23a1.46,1.46,0,0,1-1.45-1.45Z"/><path class="cls-2" d="M53.21,118.26a1.46,1.46,0,0,0,1.45,1.45h4.51a1.46,1.46,0,0,0,1.45-1.45V106.07a1.46,1.46,0,0,0-1.45-1.45H54.67a1.46,1.46,0,0,0-1.45,1.45ZM56.92,107a1.41,1.41,0,0,1,1.36,1.45v7.49a1.36,1.36,0,1,1-2.72,0v-7.49A1.41,1.41,0,0,1,56.92,107Z"/><path class="cls-2" d="M48.58,118.19a1.25,1.25,0,1,0,2.46,0v-12a1.25,1.25,0,1,0-2.46,0Z"/><path class="cls-2" d="M38.73,104.69a1.25,1.25,0,1,0,0,2.46h.85A1.46,1.46,0,0,1,41,108.6v9.59a1.25,1.25,0,1,0,2.46,0V108.6a1.46,1.46,0,0,1,1.45-1.45h.94a1.25,1.25,0,1,0,0-2.46Z"/><path class="cls-2" d="M21.6,102.23a1.25,1.25,0,1,0,0,2.46h.83a1.46,1.46,0,0,1,1.45,1.45v3.34a1.46,1.46,0,0,1-1.45,1.45H21.6a1.46,1.46,0,0,1-1.45-1.45v-3.34a1.36,1.36,0,0,0-1.23-1.45,1.36,1.36,0,0,0-1.23,1.45v12.12a1.36,1.36,0,0,0,1.23,1.45,1.36,1.36,0,0,0,1.23-1.45v-3.41a1.46,1.46,0,0,1,1.45-1.45h.83a1.46,1.46,0,0,1,1.45,1.45v3.41a1.36,1.36,0,0,0,1.23,1.45,1.36,1.36,0,0,0,1.23-1.45V103.68a1.46,1.46,0,0,0-1.45-1.45Z"/><path class="cls-2" d="M72.39,106.36c0-1-.55-1.74-1.23-1.74s-1.23.78-1.24,1.74l0,5.31c0,1-.41,1.07-.91.25l-3.11-5.12a2,2,0,0,0-2-1.1,2.32,2.32,0,0,0-1.12,2.14v9.57c0,1,.55,1.74,1.23,1.74s1.23-.78,1.23-1.74v-4.85c0-1,.38-1.06.85-.22l3.26,5.85c.47.84,1.35,1.37,2,1.19a2.18,2.18,0,0,0,1.12-2.08Z"/><path class="cls-2" d="M85.68,114.21A1.7,1.7,0,0,0,84,112.52H82.42a1.45,1.45,0,1,1,0-2.86H84A1.7,1.7,0,0,0,85.68,108v-1.19A1.7,1.7,0,0,0,84,105.09h-3.3a1.45,1.45,0,1,1,0-2.86h6.16a1.7,1.7,0,0,1,1.69,1.69v14a1.7,1.7,0,0,1-1.69,1.69H80.79a1.45,1.45,0,1,1,0-2.86H84a1.7,1.7,0,0,0,1.69-1.69Z"/></g></g></svg>