<svg xmlns="http://www.w3.org/2000/svg" viewBox="0 0 119.56 124.71"><defs><style>.cls-1{fill:none;stroke:#e0e0e0;stroke-width:5px;}.cls-2{fill:#ff7167;}.cls-3{fill:#ff665c;}</style></defs><title>資產 8</title><g id="圖層_2" data-name="圖層 2"><g id="重要時點提示"><path class="cls-1" d="M113.22,50.89a2.34,2.34,0,0,0,2.4-2.16,2.22,2.22,0,0,0-2.36-2.06h-6.4a2,2,0,0,1-2-2.36l1.22-7.76H87a3,3,0,0,0-2.81,2.68l-1.66,9.94c-.29,1.69.74,2.69,1.87,2.69a2.31,2.31,0,0,0,2.32-2.17l1.08-6.36A2.76,2.76,0,0,1,90.31,41c1.18,0,1.76,1.06,1.54,2.35L86.62,73.78a2.94,2.94,0,0,1-2.79,2.35h-2.9a2.89,2.89,0,0,0-2.76,2.36l-.62,3.95a2.08,2.08,0,0,0,2,2.36,2.48,2.48,0,0,0,2.27-2.15,2.86,2.86,0,0,1,2.78-2.15H86.8a4.21,4.21,0,0,0,4-3.29l2.28-12.08a3,3,0,0,1,2.83-2.35h6.9a2,2,0,0,1,2,2.36L102.16,82a2.37,2.37,0,0,0,2.41,2.82h4.26c1.32,0,2.64-.61,2.64-2.22,0-.76-.6-1.88-2.38-1.88h0a2,2,0,0,1-2-2.36l2.62-16.69a2.83,2.83,0,0,0-2.88-3.37H105a2,2,0,0,1-2-2.36l.79-5Z"/><path class="cls-1" d="M100.58,24.35a1.31,1.31,0,0,1,2.43.27l3.16,6.91a1.42,1.42,0,0,1-1.4,2.17H95.89c-1.31,0-1.74-.86-.95-1.9Z"/><path class="cls-1" d="M106.46,23.36a1.26,1.26,0,0,1-1-2l3.11-4a1.26,1.26,0,1,1,2,1.55l-3.11,4A1.26,1.26,0,0,1,106.46,23.36Z"/><path class="cls-1" d="M108.82,27.79a1.26,1.26,0,0,1-.54-2.41l5.26-2.49a1.26,1.26,0,0,1,1.08,2.28l-5.26,2.49A1.26,1.26,0,0,1,108.82,27.79Z"/><path class="cls-1" d="M115.79,32.52h-5.32a1.26,1.26,0,0,1,0-2.53h5.32a1.26,1.26,0,1,1,0,2.53Z"/><path class="cls-1" d="M33.22,23.36a1.26,1.26,0,0,1-1-2l3.11-4a1.26,1.26,0,1,1,2,1.55l-3.11,4A1.26,1.26,0,0,1,33.22,23.36Z"/><path class="cls-1" d="M35.59,27.79A1.26,1.26,0,0,1,35,25.38l5.26-2.49a1.26,1.26,0,0,1,1.08,2.28l-5.26,2.49A1.26,1.26,0,0,1,35.59,27.79Z"/><path class="cls-1" d="M42.56,32.52H37.24a1.26,1.26,0,1,1,0-2.53h5.32a1.26,1.26,0,0,1,0,2.53Z"/><path class="cls-1" d="M26.23,24.35a1.31,1.31,0,0,1,2.43.27l3.16,6.91a1.42,1.42,0,0,1-1.4,2.17H21.55c-1.31,0-1.74-.86-.95-1.9Z"/><path class="cls-1" d="M28,62.1s.18-1.06.37-2.36L28.61,58a2.87,2.87,0,0,1,2.74-2.36h3.79a2.81,2.81,0,0,0,2.73-2.25,2,2,0,0,0-2-2.25H32a2,2,0,0,1-2-2.36l1.83-12.2H15.15a2.79,2.79,0,0,0-2.61,2.36l-1.48,9.87A2,2,0,0,0,13,51.15a2,2,0,0,1,1.9,2.36l-.24,1.61-.7,4.67-.7,4.67-.31,2.07a2.79,2.79,0,0,1-2.61,2.36H5.79a2.72,2.72,0,0,0-2.59,2.25l-.67,4.45a1.87,1.87,0,0,0,1.92,2.19A2.69,2.69,0,0,0,7,75.58a2.77,2.77,0,0,1,2.72-2.19H14a2.81,2.81,0,0,0,2.73-2.25l.69-4.61.31-2.07a2.87,2.87,0,0,1,2.74-2.36h.6a2,2,0,0,1,2,2.36l-2,13.47-.69,4.61a2,2,0,0,0,2,2.25h3.79a2.81,2.81,0,0,0,2.73-2.25,1.81,1.81,0,0,0-1.69-2.25,1.87,1.87,0,0,1-1.68-2.36l2-13.47C27.79,63.16,28,62.1,28,62.1Z"/><path class="cls-1" d="M68.69,23.36a1.26,1.26,0,0,1-1-2l3.11-4a1.26,1.26,0,1,1,2,1.55l-3.11,4A1.26,1.26,0,0,1,68.69,23.36Z"/><path class="cls-1" d="M71.06,27.79a1.26,1.26,0,0,1-.54-2.41l3.6-1.7A1.26,1.26,0,0,1,75.19,26l-3.6,1.7A1.26,1.26,0,0,1,71.06,27.79Z"/><path class="cls-1" d="M78,32.52H72.71a1.26,1.26,0,1,1,0-2.53H78a1.26,1.26,0,0,1,0,2.53Z"/><path class="cls-1" d="M61.65,24.35a1.31,1.31,0,0,1,2.43.27l3.16,6.91a1.42,1.42,0,0,1-1.4,2.17H57c-1.31,0-1.74-.86-.95-1.9Z"/><path class="cls-1" d="M78.5,38.81l.69-4.61L80,28.84a2,2,0,0,0-1.9-2.36,2.79,2.79,0,0,0-2.61,2.36l-.81,5.36a2.87,2.87,0,0,1-2.74,2.36H46a2.81,2.81,0,0,0-2.73,2.25l-.69,4.61-.81,5.36a2,2,0,0,0,1.9,2.36,2.79,2.79,0,0,0,2.61-2.36l.81-5.36a2.79,2.79,0,0,1,2.61-2.36,2,2,0,0,1,1.9,2.36L49.15,59.74a2,2,0,0,0,2,2.36h.34a2,2,0,0,1,2,2.36l-1.36,9a2.79,2.79,0,0,1-2.61,2.36H45.08a2.72,2.72,0,0,0-2.59,2.25l-.67,4.45a1.87,1.87,0,0,0,1.92,2.19,2.69,2.69,0,0,0,2.58-2.19A2.77,2.77,0,0,1,49,80.35h4.24A2.81,2.81,0,0,0,56,78.1l.69-4.61,1.36-9a11.8,11.8,0,0,1,.48-2.36h6.91a1.94,1.94,0,0,1,1.88,2.36L67,66.58,66.65,69l-.34,2.25a1.93,1.93,0,0,0,2.06,2.2h3.79a2.81,2.81,0,0,0,2.73-2.25,1.81,1.81,0,0,0-1.69-2.25,1.87,1.87,0,0,1-1.68-2.36l.32-2.12.69-4.61a1.9,1.9,0,0,0-1.92-2.25H66.13a1.94,1.94,0,0,1-1.88-2.36L66,43.43a2.87,2.87,0,0,1,2.74-2.36h9.4l.34-2.25Z"/><line class="cls-1" x1="79.29" y1="20.48" x2="81.65" y2="4.86"/><path class="cls-1" d="M79.3,22.28l-.27,0a1.8,1.8,0,0,1-1.51-2L79.87,4.6a1.8,1.8,0,1,1,3.56.54L81.07,20.75A1.8,1.8,0,0,1,79.3,22.28Z"/><polygon class="cls-1" points="82.58 10.74 48.58 10.74 49.83 2.5 83.83 2.5 82.58 10.74"/><path class="cls-1" d="M33.28,111.1a1.46,1.46,0,0,1,1.45-1.45h2.22a1.25,1.25,0,1,0,0-2.46H32.27a1.46,1.46,0,0,0-1.45,1.45v12a1.46,1.46,0,0,0,1.45,1.45H37.8a1.25,1.25,0,1,0,0-2.46H34.73a1.46,1.46,0,0,1-1.45-1.45Z"/><path class="cls-1" d="M55.71,120.76a1.46,1.46,0,0,0,1.45,1.45h4.51a1.46,1.46,0,0,0,1.45-1.45V108.57a1.46,1.46,0,0,0-1.45-1.45H57.17a1.46,1.46,0,0,0-1.45,1.45Zm3.71-11.3a1.41,1.41,0,0,1,1.36,1.45v7.49a1.36,1.36,0,1,1-2.72,0v-7.49A1.41,1.41,0,0,1,59.42,109.46Z"/><path class="cls-1" d="M51.08,120.69a1.25,1.25,0,1,0,2.46,0v-12a1.25,1.25,0,1,0-2.46,0Z"/><path class="cls-1" d="M41.23,107.19a1.25,1.25,0,1,0,0,2.46h.85a1.46,1.46,0,0,1,1.45,1.45v9.59a1.25,1.25,0,1,0,2.46,0V111.1a1.46,1.46,0,0,1,1.45-1.45h.94a1.25,1.25,0,1,0,0-2.46Z"/><path class="cls-1" d="M24.1,104.73a1.25,1.25,0,1,0,0,2.46h.83a1.46,1.46,0,0,1,1.45,1.45V112a1.46,1.46,0,0,1-1.45,1.45H24.1A1.46,1.46,0,0,1,22.65,112v-3.34a1.36,1.36,0,0,0-1.23-1.45,1.36,1.36,0,0,0-1.23,1.45v12.12a1.36,1.36,0,0,0,1.23,1.45,1.36,1.36,0,0,0,1.23-1.45v-3.41a1.46,1.46,0,0,1,1.45-1.45h.83a1.46,1.46,0,0,1,1.45,1.45v3.41a1.25,1.25,0,1,0,2.46,0V106.18a1.46,1.46,0,0,0-1.45-1.45Z"/><path class="cls-1" d="M74.89,108.86c0-1-.55-1.74-1.23-1.74s-1.23.78-1.24,1.74l0,5.31c0,1-.41,1.07-.91.25l-3.11-5.12a2,2,0,0,0-2-1.1,2.32,2.32,0,0,0-1.12,2.14v9.57c0,1,.55,1.74,1.23,1.74s1.23-.78,1.23-1.74v-4.85c0-1,.38-1.06.85-.22l3.26,5.85c.47.84,1.35,1.37,2,1.19a2.18,2.18,0,0,0,1.12-2.08Z"/><path class="cls-1" d="M88.18,116.71A1.7,1.7,0,0,0,86.49,115H84.92a1.45,1.45,0,1,1,0-2.86h1.57a1.7,1.7,0,0,0,1.69-1.69v-1.19a1.7,1.7,0,0,0-1.69-1.69h-3.3a1.45,1.45,0,1,1,0-2.86h6.16A1.7,1.7,0,0,1,91,106.42v14a1.7,1.7,0,0,1-1.69,1.69H83.29a1.45,1.45,0,1,1,0-2.86h3.21a1.7,1.7,0,0,0,1.69-1.69Z"/><path class="cls-2" d="M113.22,50.89a2.34,2.34,0,0,0,2.4-2.16,2.22,2.22,0,0,0-2.36-2.06h-6.4a2,2,0,0,1-2-2.36l1.22-7.76H87a3,3,0,0,0-2.81,2.68l-1.66,9.94c-.29,1.69.74,2.69,1.87,2.69a2.31,2.31,0,0,0,2.32-2.17l1.08-6.36A2.76,2.76,0,0,1,90.31,41c1.18,0,1.76,1.06,1.54,2.35L86.62,73.78a2.94,2.94,0,0,1-2.79,2.35h-2.9a2.89,2.89,0,0,0-2.76,2.36l-.62,3.95a2.08,2.08,0,0,0,2,2.36,2.48,2.48,0,0,0,2.27-2.15,2.86,2.86,0,0,1,2.78-2.15H86.8a4.21,4.21,0,0,0,4-3.29l2.28-12.08a3,3,0,0,1,2.83-2.35h6.9a2,2,0,0,1,2,2.36L102.16,82a2.37,2.37,0,0,0,2.41,2.82h4.26c1.32,0,2.64-.61,2.64-2.22,0-.76-.6-1.88-2.38-1.88h0a2,2,0,0,1-2-2.36l2.62-16.69a2.83,2.83,0,0,0-2.88-3.37H105a2,2,0,0,1-2-2.36l.79-5Z"/><path class="cls-2" d="M100.58,24.35a1.31,1.31,0,0,1,2.43.27l3.16,6.91a1.42,1.42,0,0,1-1.4,2.17H95.89c-1.31,0-1.74-.86-.95-1.9Z"/><path class="cls-2" d="M106.46,23.36a1.26,1.26,0,0,1-1-2l3.11-4a1.26,1.26,0,1,1,2,1.55l-3.11,4A1.26,1.26,0,0,1,106.46,23.36Z"/><path class="cls-2" d="M108.82,27.79a1.26,1.26,0,0,1-.54-2.41l5.26-2.49a1.26,1.26,0,0,1,1.08,2.28l-5.26,2.49A1.26,1.26,0,0,1,108.82,27.79Z"/><path class="cls-2" d="M115.79,32.52h-5.32a1.26,1.26,0,0,1,0-2.53h5.32a1.26,1.26,0,1,1,0,2.53Z"/><path class="cls-2" d="M33.22,23.36a1.26,1.26,0,0,1-1-2l3.11-4a1.26,1.26,0,1,1,2,1.55l-3.11,4A1.26,1.26,0,0,1,33.22,23.36Z"/><path class="cls-2" d="M35.59,27.79A1.26,1.26,0,0,1,35,25.38l5.26-2.49a1.26,1.26,0,0,1,1.08,2.28l-5.26,2.49A1.26,1.26,0,0,1,35.59,27.79Z"/><path class="cls-2" d="M42.56,32.52H37.24a1.26,1.26,0,1,1,0-2.53h5.32a1.26,1.26,0,0,1,0,2.53Z"/><path class="cls-2" d="M26.23,24.35a1.31,1.31,0,0,1,2.43.27l3.16,6.91a1.42,1.42,0,0,1-1.4,2.17H21.55c-1.31,0-1.74-.86-.95-1.9Z"/><path class="cls-2" d="M28,62.1s.18-1.06.37-2.36L28.61,58a2.87,2.87,0,0,1,2.74-2.36h3.79a2.81,2.81,0,0,0,2.73-2.25,2,2,0,0,0-2-2.25H32a2,2,0,0,1-2-2.36l1.83-12.2H15.15a2.79,2.79,0,0,0-2.61,2.36l-1.48,9.87A2,2,0,0,0,13,51.15a2,2,0,0,1,1.9,2.36l-.24,1.61-.7,4.67-.7,4.67-.31,2.07a2.79,2.79,0,0,1-2.61,2.36H5.79a2.72,2.72,0,0,0-2.59,2.25l-.67,4.45a1.87,1.87,0,0,0,1.92,2.19A2.69,2.69,0,0,0,7,75.58a2.77,2.77,0,0,1,2.72-2.19H14a2.81,2.81,0,0,0,2.73-2.25l.69-4.61.31-2.07a2.87,2.87,0,0,1,2.74-2.36h.6a2,2,0,0,1,2,2.36l-2,13.47-.69,4.61a2,2,0,0,0,2,2.25h3.79a2.81,2.81,0,0,0,2.73-2.25,1.81,1.81,0,0,0-1.69-2.25,1.87,1.87,0,0,1-1.68-2.36l2-13.47C27.79,63.16,28,62.1,28,62.1Z"/><path class="cls-2" d="M68.69,23.36a1.26,1.26,0,0,1-1-2l3.11-4a1.26,1.26,0,1,1,2,1.55l-3.11,4A1.26,1.26,0,0,1,68.69,23.36Z"/><path class="cls-2" d="M71.06,27.79a1.26,1.26,0,0,1-.54-2.41l3.6-1.7A1.26,1.26,0,0,1,75.19,26l-3.6,1.7A1.26,1.26,0,0,1,71.06,27.79Z"/><path class="cls-2" d="M78,32.52H72.71a1.26,1.26,0,1,1,0-2.53H78a1.26,1.26,0,0,1,0,2.53Z"/><path class="cls-2" d="M61.65,24.35a1.31,1.31,0,0,1,2.43.27l3.16,6.91a1.42,1.42,0,0,1-1.4,2.17H57c-1.31,0-1.74-.86-.95-1.9Z"/><path class="cls-2" d="M78.5,38.81l.69-4.61L80,28.84a2,2,0,0,0-1.9-2.36,2.79,2.79,0,0,0-2.61,2.36l-.81,5.36a2.87,2.87,0,0,1-2.74,2.36H46a2.81,2.81,0,0,0-2.73,2.25l-.69,4.61-.81,5.36a2,2,0,0,0,1.9,2.36,2.79,2.79,0,0,0,2.61-2.36l.81-5.36a2.79,2.79,0,0,1,2.61-2.36,2,2,0,0,1,1.9,2.36L49.15,59.74a2,2,0,0,0,2,2.36h.34a2,2,0,0,1,2,2.36l-1.36,9a2.79,2.79,0,0,1-2.61,2.36H45.08a2.72,2.72,0,0,0-2.59,2.25l-.67,4.45a1.87,1.87,0,0,0,1.92,2.19,2.69,2.69,0,0,0,2.58-2.19A2.77,2.77,0,0,1,49,80.35h4.24A2.81,2.81,0,0,0,56,78.1l.69-4.61,1.36-9a11.8,11.8,0,0,1,.48-2.36h6.91a1.94,1.94,0,0,1,1.88,2.36L67,66.58,66.65,69l-.34,2.25a1.93,1.93,0,0,0,2.06,2.2h3.79a2.81,2.81,0,0,0,2.73-2.25,1.81,1.81,0,0,0-1.69-2.25,1.87,1.87,0,0,1-1.68-2.36l.32-2.12.69-4.61a1.9,1.9,0,0,0-1.92-2.25H66.13a1.94,1.94,0,0,1-1.88-2.36L66,43.43a2.87,2.87,0,0,1,2.74-2.36h9.4l.34-2.25Z"/><line class="cls-2" x1="79.29" y1="20.48" x2="81.65" y2="4.86"/><path class="cls-2" d="M79.3,22.28l-.27,0a1.8,1.8,0,0,1-1.51-2L79.87,4.6a1.8,1.8,0,1,1,3.56.54L81.07,20.75A1.8,1.8,0,0,1,79.3,22.28Z"/><polygon class="cls-2" points="82.58 10.74 48.58 10.74 49.83 2.5 83.83 2.5 82.58 10.74"/><path class="cls-3" d="M33.28,111.1a1.46,1.46,0,0,1,1.45-1.45h2.22a1.25,1.25,0,1,0,0-2.46H32.27a1.46,1.46,0,0,0-1.45,1.45v12a1.46,1.46,0,0,0,1.45,1.45H37.8a1.25,1.25,0,1,0,0-2.46H34.73a1.46,1.46,0,0,1-1.45-1.45Z"/><path class="cls-3" d="M55.71,120.76a1.46,1.46,0,0,0,1.45,1.45h4.51a1.46,1.46,0,0,0,1.45-1.45V108.57a1.46,1.46,0,0,0-1.45-1.45H57.17a1.46,1.46,0,0,0-1.45,1.45Zm3.71-11.3a1.41,1.41,0,0,1,1.36,1.45v7.49a1.36,1.36,0,1,1-2.72,0v-7.49A1.41,1.41,0,0,1,59.42,109.46Z"/><path class="cls-3" d="M51.08,120.69a1.25,1.25,0,1,0,2.46,0v-12a1.25,1.25,0,1,0-2.46,0Z"/><path class="cls-3" d="M41.23,107.19a1.25,1.25,0,1,0,0,2.46h.85a1.46,1.46,0,0,1,1.45,1.45v9.59a1.25,1.25,0,1,0,2.46,0V111.1a1.46,1.46,0,0,1,1.45-1.45h.94a1.25,1.25,0,1,0,0-2.46Z"/><path class="cls-3" d="M24.1,104.73a1.25,1.25,0,1,0,0,2.46h.83a1.46,1.46,0,0,1,1.45,1.45V112a1.46,1.46,0,0,1-1.45,1.45H24.1A1.46,1.46,0,0,1,22.65,112v-3.34a1.36,1.36,0,0,0-1.23-1.45,1.36,1.36,0,0,0-1.23,1.45v12.12a1.36,1.36,0,0,0,1.23,1.45,1.36,1.36,0,0,0,1.23-1.45v-3.41a1.46,1.46,0,0,1,1.45-1.45h.83a1.46,1.46,0,0,1,1.45,1.45v3.41a1.25,1.25,0,1,0,2.46,0V106.18a1.46,1.46,0,0,0-1.45-1.45Z"/><path class="cls-3" d="M74.89,108.86c0-1-.55-1.74-1.23-1.74s-1.23.78-1.24,1.74l0,5.31c0,1-.41,1.07-.91.25l-3.11-5.12a2,2,0,0,0-2-1.1,2.32,2.32,0,0,0-1.12,2.14v9.57c0,1,.55,1.74,1.23,1.74s1.23-.78,1.23-1.74v-4.85c0-1,.38-1.06.85-.22l3.26,5.85c.47.84,1.35,1.37,2,1.19a2.18,2.18,0,0,0,1.12-2.08Z"/><path class="cls-3" d="M88.18,116.71A1.7,1.7,0,0,0,86.49,115H84.92a1.45,1.45,0,1,1,0-2.86h1.57a1.7,1.7,0,0,0,1.69-1.69v-1.19a1.7,1.7,0,0,0-1.69-1.69h-3.3a1.45,1.45,0,1,1,0-2.86h6.16A1.7,1.7,0,0,1,91,106.42v14a1.7,1.7,0,0,1-1.69,1.69H83.29a1.45,1.45,0,1,1,0-2.86h3.21a1.7,1.7,0,0,0,1.69-1.69Z"/></g></g></svg>