<svg xmlns="http://www.w3.org/2000/svg" viewBox="0 0 120.8 114.81"><defs><style>.cls-1{fill:none;stroke:#e0e0e0;stroke-width:5px;}.cls-2{fill:#ffcd32;}</style></defs><title>資產 6</title><g id="圖層_2" data-name="圖層 2"><g id="重要時點提示"><path class="cls-1" d="M59.78,40.05a2.74,2.74,0,0,1-2.67-3.34l.25-1.11a2.74,2.74,0,0,1,5.34,1.2l-.25,1.11A2.74,2.74,0,0,1,59.78,40.05Z"/><path class="cls-1" d="M61.1,36.89A5.49,5.49,0,1,1,65,35.29,5.52,5.52,0,0,1,61.1,36.89Z"/><path class="cls-1" d="M22.74,20.7c1.06-1.36,2.48-1.18,3.16.4l2.84,6.61a1.92,1.92,0,0,1-1.9,2.88H18.22c-1.72,0-2.27-1.12-1.22-2.48Z"/><path class="cls-1" d="M41.63,29.72a2.46,2.46,0,0,0-2.5,2.19,2.6,2.6,0,0,1-2.73,2.19H17.34a2.8,2.8,0,0,0-2.75,2.6L12.76,68.42A2.8,2.8,0,0,1,10,71H5.24A2.68,2.68,0,0,0,2.5,73.39,2.34,2.34,0,0,0,5,75.77h9.52a2.8,2.8,0,0,0,2.75-2.6l.55-9.59A2.8,2.8,0,0,1,20.54,61h9.57a2.43,2.43,0,0,1,2.45,2.6l-.28,4.84-.29,5a2.34,2.34,0,0,0,2.47,2.37h3.82A2.68,2.68,0,0,0,41,73.39,2.12,2.12,0,0,0,39,71a2.25,2.25,0,0,1-2-2.6l.55-9.59c.08-1.43.15-2.6.15-2.6H30.82a2.12,2.12,0,0,1-2-2.35,2.67,2.67,0,0,1,2.74-2.35h3.86a2.8,2.8,0,0,0,2.75-2.6L38.36,45a2.34,2.34,0,0,0-2.22-2.6,2.46,2.46,0,0,0-2.5,2.19,2.34,2.34,0,0,1-2.28,2.19,2.26,2.26,0,0,1-2-2.6l.16-2.76a2.8,2.8,0,0,1,2.75-2.6h8.62a2.8,2.8,0,0,0,2.75-2.6l.23-3.93A2.34,2.34,0,0,0,41.63,29.72Z"/><path class="cls-1" d="M98.05,20.7c-1.06-1.36-2.48-1.18-3.16.4L92.06,27.7A1.92,1.92,0,0,0,94,30.59h8.62c1.72,0,2.27-1.12,1.22-2.48Z"/><path class="cls-1" d="M79.17,29.72a2.46,2.46,0,0,1,2.5,2.19,2.6,2.6,0,0,0,2.73,2.19h19.06a2.8,2.8,0,0,1,2.75,2.6L108,68.42a2.8,2.8,0,0,0,2.75,2.6h4.77a2.68,2.68,0,0,1,2.74,2.37,2.34,2.34,0,0,1-2.47,2.37h-9.52a2.8,2.8,0,0,1-2.75-2.6L103,63.58a2.8,2.8,0,0,0-2.75-2.6H90.69a2.43,2.43,0,0,0-2.45,2.6l.28,4.84.29,5a2.34,2.34,0,0,1-2.47,2.37H82.52a2.68,2.68,0,0,1-2.74-2.37,2.12,2.12,0,0,1,2-2.37,2.25,2.25,0,0,0,2-2.6l-.55-9.59c-.08-1.43-.15-2.6-.15-2.6H90a2.12,2.12,0,0,0,2-2.35,2.67,2.67,0,0,0-2.74-2.35H85.41a2.8,2.8,0,0,1-2.75-2.6L82.44,45a2.34,2.34,0,0,1,2.22-2.6,2.46,2.46,0,0,1,2.5,2.19,2.34,2.34,0,0,0,2.28,2.19,2.26,2.26,0,0,0,2-2.6l-.16-2.76a2.8,2.8,0,0,0-2.75-2.6H79.92a2.8,2.8,0,0,1-2.75-2.6l-.23-3.93A2.34,2.34,0,0,1,79.17,29.72Z"/><path class="cls-1" d="M53.15,18.7a1.84,1.84,0,0,1-1.64-1L49.67,14A1.84,1.84,0,1,1,53,12.37L54.79,16a1.84,1.84,0,0,1-1.64,2.66Z"/><path class="cls-1" d="M63,49.59A1.84,1.84,0,0,1,61.2,48l-.34-2.26a1.84,1.84,0,0,1,3.63-.54l.34,2.26a1.83,1.83,0,0,1-1.55,2.09Z"/><path class="cls-1" d="M70.4,22.47a1.84,1.84,0,0,1-1.55-2.81l1.7-2.7a1.84,1.84,0,1,1,3.11,2L72,21.61A1.83,1.83,0,0,1,70.4,22.47Z"/><path class="cls-1" d="M49.9,32.81a1.83,1.83,0,0,1-1.3-3.13,1.89,1.89,0,0,1,2.59,0,1.83,1.83,0,0,1-1.3,3.13Z"/><path class="cls-1" d="M63.14,15.47H62.9a2.06,2.06,0,0,1-1.81-2.29l1-8.84a2.06,2.06,0,1,1,4.1.48l-1,8.84A2.06,2.06,0,0,1,63.14,15.47Z"/><path class="cls-1" d="M73.5,57.5a2.07,2.07,0,0,1-1.93-1.33l-2.18-5.69A2.06,2.06,0,1,1,73.24,49l2.18,5.69a2.07,2.07,0,0,1-1.93,2.8Z"/><path class="cls-1" d="M48.87,65.12a2.07,2.07,0,0,1-1.93-2.8L50.84,52a2.06,2.06,0,1,1,3.86,1.46L50.8,63.78A2.07,2.07,0,0,1,48.87,65.12Z"/><path class="cls-1" d="M65.08,29.71a1.84,1.84,0,0,1-1.48-2.92l.67-.92a1.84,1.84,0,0,1,3,2.16l-.67.92A1.83,1.83,0,0,1,65.08,29.71Z"/><path class="cls-1" d="M69.62,38.78a1.84,1.84,0,0,1-1.3-.54,1.84,1.84,0,0,1,0-2.6,1.9,1.9,0,0,1,2.59,0,1.84,1.84,0,0,1,0,2.6A1.84,1.84,0,0,1,69.62,38.78Z"/><path class="cls-1" d="M37.38,101.2a1.46,1.46,0,0,1,1.45-1.45h2.22a1.25,1.25,0,1,0,0-2.46H36.37a1.46,1.46,0,0,0-1.45,1.45v12a1.46,1.46,0,0,0,1.45,1.45h5.53a1.25,1.25,0,1,0,0-2.46H38.83a1.46,1.46,0,0,1-1.45-1.45Z"/><path class="cls-1" d="M59.81,110.86a1.46,1.46,0,0,0,1.45,1.45h4.51a1.46,1.46,0,0,0,1.45-1.45V98.67a1.46,1.46,0,0,0-1.45-1.45H61.27a1.46,1.46,0,0,0-1.45,1.45Zm3.71-11.3A1.41,1.41,0,0,1,64.88,101v7.49a1.36,1.36,0,1,1-2.72,0V101A1.41,1.41,0,0,1,63.52,99.56Z"/><path class="cls-1" d="M55.18,110.78a1.25,1.25,0,1,0,2.46,0v-12a1.25,1.25,0,1,0-2.46,0Z"/><path class="cls-1" d="M45.33,97.28a1.25,1.25,0,1,0,0,2.46h.85a1.46,1.46,0,0,1,1.45,1.45v9.59a1.25,1.25,0,1,0,2.46,0V101.2a1.46,1.46,0,0,1,1.45-1.45h.94a1.25,1.25,0,1,0,0-2.46Z"/><path class="cls-1" d="M28.2,94.83a1.25,1.25,0,1,0,0,2.46H29a1.46,1.46,0,0,1,1.45,1.45v3.34A1.46,1.46,0,0,1,29,103.53H28.2a1.46,1.46,0,0,1-1.45-1.45V98.74a1.25,1.25,0,1,0-2.46,0v12.12a1.25,1.25,0,1,0,2.46,0v-3.41A1.46,1.46,0,0,1,28.2,106H29a1.46,1.46,0,0,1,1.45,1.45v3.41a1.25,1.25,0,1,0,2.46,0V96.28a1.46,1.46,0,0,0-1.45-1.45Z"/><path class="cls-1" d="M79,99c0-1-.55-1.74-1.23-1.74S76.53,98,76.53,99l0,5.31c0,1-.41,1.07-.91.25l-3.11-5.12a2,2,0,0,0-2-1.1,2.32,2.32,0,0,0-1.12,2.14V110c0,1,.55,1.74,1.23,1.74S71.8,111,71.8,110v-4.85c0-1,.38-1.06.85-.22l3.26,5.85c.47.84,1.35,1.37,2,1.19A2.18,2.18,0,0,0,79,109.9Z"/><path class="cls-1" d="M87.8,94.27a1.38,1.38,0,1,0,0,2.73h2a1.62,1.62,0,0,1,1.61,1.61v1a1.62,1.62,0,0,1-1.61,1.61H87.9a1.62,1.62,0,0,0-1.61,1.61v7.38a1.62,1.62,0,0,0,1.61,1.61h4.6a1.38,1.38,0,1,0,0-2.73H90.62A1.62,1.62,0,0,1,89,107.47v-1.93a1.62,1.62,0,0,1,1.61-1.61H92.5a1.62,1.62,0,0,0,1.61-1.61V95.88a1.62,1.62,0,0,0-1.61-1.61Z"/><path class="cls-2" d="M59.78,40.05a2.74,2.74,0,0,1-2.67-3.34l.25-1.11a2.74,2.74,0,0,1,5.34,1.2l-.25,1.11A2.74,2.74,0,0,1,59.78,40.05Z"/><path class="cls-2" d="M61.1,36.89A5.49,5.49,0,1,1,65,35.29,5.52,5.52,0,0,1,61.1,36.89Z"/><path class="cls-2" d="M22.74,20.7c1.06-1.36,2.48-1.18,3.16.4l2.84,6.61a1.92,1.92,0,0,1-1.9,2.88H18.22c-1.72,0-2.27-1.12-1.22-2.48Z"/><path class="cls-2" d="M41.63,29.72a2.46,2.46,0,0,0-2.5,2.19,2.6,2.6,0,0,1-2.73,2.19H17.34a2.8,2.8,0,0,0-2.75,2.6L12.76,68.42A2.8,2.8,0,0,1,10,71H5.24A2.68,2.68,0,0,0,2.5,73.39,2.34,2.34,0,0,0,5,75.77h9.52a2.8,2.8,0,0,0,2.75-2.6l.55-9.59A2.8,2.8,0,0,1,20.54,61h9.57a2.43,2.43,0,0,1,2.45,2.6l-.28,4.84-.29,5a2.34,2.34,0,0,0,2.47,2.37h3.82A2.68,2.68,0,0,0,41,73.39,2.12,2.12,0,0,0,39,71a2.25,2.25,0,0,1-2-2.6l.55-9.59c.08-1.43.15-2.6.15-2.6H30.82a2.12,2.12,0,0,1-2-2.35,2.67,2.67,0,0,1,2.74-2.35h3.86a2.8,2.8,0,0,0,2.75-2.6L38.36,45a2.34,2.34,0,0,0-2.22-2.6,2.46,2.46,0,0,0-2.5,2.19,2.34,2.34,0,0,1-2.28,2.19,2.26,2.26,0,0,1-2-2.6l.16-2.76a2.8,2.8,0,0,1,2.75-2.6h8.62a2.8,2.8,0,0,0,2.75-2.6l.23-3.93A2.34,2.34,0,0,0,41.63,29.72Z"/><path class="cls-2" d="M98.05,20.7c-1.06-1.36-2.48-1.18-3.16.4L92.06,27.7A1.92,1.92,0,0,0,94,30.59h8.62c1.72,0,2.27-1.12,1.22-2.48Z"/><path class="cls-2" d="M79.17,29.72a2.46,2.46,0,0,1,2.5,2.19,2.6,2.6,0,0,0,2.73,2.19h19.06a2.8,2.8,0,0,1,2.75,2.6L108,68.42a2.8,2.8,0,0,0,2.75,2.6h4.77a2.68,2.68,0,0,1,2.74,2.37,2.34,2.34,0,0,1-2.47,2.37h-9.52a2.8,2.8,0,0,1-2.75-2.6L103,63.58a2.8,2.8,0,0,0-2.75-2.6H90.69a2.43,2.43,0,0,0-2.45,2.6l.28,4.84.29,5a2.34,2.34,0,0,1-2.47,2.37H82.52a2.68,2.68,0,0,1-2.74-2.37,2.12,2.12,0,0,1,2-2.37,2.25,2.25,0,0,0,2-2.6l-.55-9.59c-.08-1.43-.15-2.6-.15-2.6H90a2.12,2.12,0,0,0,2-2.35,2.67,2.67,0,0,0-2.74-2.35H85.41a2.8,2.8,0,0,1-2.75-2.6L82.44,45a2.34,2.34,0,0,1,2.22-2.6,2.46,2.46,0,0,1,2.5,2.19,2.34,2.34,0,0,0,2.28,2.19,2.26,2.26,0,0,0,2-2.6l-.16-2.76a2.8,2.8,0,0,0-2.75-2.6H79.92a2.8,2.8,0,0,1-2.75-2.6l-.23-3.93A2.34,2.34,0,0,1,79.17,29.72Z"/><path class="cls-2" d="M53.15,18.7a1.84,1.84,0,0,1-1.64-1L49.67,14A1.84,1.84,0,1,1,53,12.37L54.79,16a1.84,1.84,0,0,1-1.64,2.66Z"/><path class="cls-2" d="M63,49.59A1.84,1.84,0,0,1,61.2,48l-.34-2.26a1.84,1.84,0,0,1,3.63-.54l.34,2.26a1.83,1.83,0,0,1-1.55,2.09Z"/><path class="cls-2" d="M70.4,22.47a1.84,1.84,0,0,1-1.55-2.81l1.7-2.7a1.84,1.84,0,1,1,3.11,2L72,21.61A1.83,1.83,0,0,1,70.4,22.47Z"/><path class="cls-2" d="M49.9,32.81a1.83,1.83,0,0,1-1.3-3.13,1.89,1.89,0,0,1,2.59,0,1.83,1.83,0,0,1-1.3,3.13Z"/><path class="cls-2" d="M63.14,15.47H62.9a2.06,2.06,0,0,1-1.81-2.29l1-8.84a2.06,2.06,0,1,1,4.1.48l-1,8.84A2.06,2.06,0,0,1,63.14,15.47Z"/><path class="cls-2" d="M73.5,57.5a2.07,2.07,0,0,1-1.93-1.33l-2.18-5.69A2.06,2.06,0,1,1,73.24,49l2.18,5.69a2.07,2.07,0,0,1-1.93,2.8Z"/><path class="cls-2" d="M48.87,65.12a2.07,2.07,0,0,1-1.93-2.8L50.84,52a2.06,2.06,0,1,1,3.86,1.46L50.8,63.78A2.07,2.07,0,0,1,48.87,65.12Z"/><path class="cls-2" d="M65.08,29.71a1.84,1.84,0,0,1-1.48-2.92l.67-.92a1.84,1.84,0,0,1,3,2.16l-.67.92A1.83,1.83,0,0,1,65.08,29.71Z"/><path class="cls-2" d="M69.62,38.78a1.84,1.84,0,0,1-1.3-.54,1.84,1.84,0,0,1,0-2.6,1.9,1.9,0,0,1,2.59,0,1.84,1.84,0,0,1,0,2.6A1.84,1.84,0,0,1,69.62,38.78Z"/><path class="cls-2" d="M37.38,101.2a1.46,1.46,0,0,1,1.45-1.45h2.22a1.25,1.25,0,1,0,0-2.46H36.37a1.46,1.46,0,0,0-1.45,1.45v12a1.46,1.46,0,0,0,1.45,1.45h5.53a1.25,1.25,0,1,0,0-2.46H38.83a1.46,1.46,0,0,1-1.45-1.45Z"/><path class="cls-2" d="M59.81,110.86a1.46,1.46,0,0,0,1.45,1.45h4.51a1.46,1.46,0,0,0,1.45-1.45V98.67a1.46,1.46,0,0,0-1.45-1.45H61.27a1.46,1.46,0,0,0-1.45,1.45Zm3.71-11.3A1.41,1.41,0,0,1,64.88,101v7.49a1.36,1.36,0,1,1-2.72,0V101A1.41,1.41,0,0,1,63.52,99.56Z"/><path class="cls-2" d="M55.18,110.78a1.25,1.25,0,1,0,2.46,0v-12a1.25,1.25,0,1,0-2.46,0Z"/><path class="cls-2" d="M45.33,97.28a1.25,1.25,0,1,0,0,2.46h.85a1.46,1.46,0,0,1,1.45,1.45v9.59a1.25,1.25,0,1,0,2.46,0V101.2a1.46,1.46,0,0,1,1.45-1.45h.94a1.25,1.25,0,1,0,0-2.46Z"/><path class="cls-2" d="M28.2,94.83a1.25,1.25,0,1,0,0,2.46H29a1.46,1.46,0,0,1,1.45,1.45v3.34A1.46,1.46,0,0,1,29,103.53H28.2a1.46,1.46,0,0,1-1.45-1.45V98.74a1.25,1.25,0,1,0-2.46,0v12.12a1.25,1.25,0,1,0,2.46,0v-3.41A1.46,1.46,0,0,1,28.2,106H29a1.46,1.46,0,0,1,1.45,1.45v3.41a1.25,1.25,0,1,0,2.46,0V96.28a1.46,1.46,0,0,0-1.45-1.45Z"/><path class="cls-2" d="M79,99c0-1-.55-1.74-1.23-1.74S76.53,98,76.53,99l0,5.31c0,1-.41,1.07-.91.25l-3.11-5.12a2,2,0,0,0-2-1.1,2.32,2.32,0,0,0-1.12,2.14V110c0,1,.55,1.74,1.23,1.74S71.8,111,71.8,110v-4.85c0-1,.38-1.06.85-.22l3.26,5.85c.47.84,1.35,1.37,2,1.19A2.18,2.18,0,0,0,79,109.9Z"/><path class="cls-2" d="M87.8,94.27a1.38,1.38,0,1,0,0,2.73h2a1.62,1.62,0,0,1,1.61,1.61v1a1.62,1.62,0,0,1-1.61,1.61H87.9a1.62,1.62,0,0,0-1.61,1.61v7.38a1.62,1.62,0,0,0,1.61,1.61h4.6a1.38,1.38,0,1,0,0-2.73H90.62A1.62,1.62,0,0,1,89,107.47v-1.93a1.62,1.62,0,0,1,1.61-1.61H92.5a1.62,1.62,0,0,0,1.61-1.61V95.88a1.62,1.62,0,0,0-1.61-1.61Z"/></g></g></svg>