<svg xmlns="http://www.w3.org/2000/svg" viewBox="0 0 115.8 109.81"><defs><style>.cls-1{fill:#ffcd32;}</style></defs><title>資產 7</title><g id="圖層_2" data-name="圖層 2"><g id="重要時點"><path class="cls-1" d="M57.28,37.55a2.74,2.74,0,0,1-2.67-3.34l.25-1.11a2.74,2.74,0,0,1,5.34,1.2l-.25,1.11A2.74,2.74,0,0,1,57.28,37.55Z"/><path class="cls-1" d="M58.6,34.39a5.49,5.49,0,1,1,3.87-1.61A5.52,5.52,0,0,1,58.6,34.39Z"/><path class="cls-1" d="M20.24,18.2c1.06-1.36,2.48-1.18,3.16.4l2.84,6.61a1.92,1.92,0,0,1-1.9,2.88H15.72c-1.72,0-2.27-1.12-1.22-2.48Z"/><path class="cls-1" d="M39.13,27.22a2.46,2.46,0,0,0-2.5,2.19,2.6,2.6,0,0,1-2.73,2.19H14.84a2.8,2.8,0,0,0-2.75,2.6L10.26,65.92a2.8,2.8,0,0,1-2.75,2.6H2.74A2.68,2.68,0,0,0,0,70.89a2.34,2.34,0,0,0,2.47,2.37H12a2.8,2.8,0,0,0,2.75-2.6l.55-9.59A2.8,2.8,0,0,1,18,58.48h9.57a2.43,2.43,0,0,1,2.45,2.6l-.28,4.84-.29,5A2.34,2.34,0,0,0,32,73.27h3.82a2.68,2.68,0,0,0,2.74-2.37,2.12,2.12,0,0,0-2-2.37,2.25,2.25,0,0,1-2-2.6l.55-9.59c.08-1.43.15-2.6.15-2.6H28.32a2.12,2.12,0,0,1-2-2.35A2.67,2.67,0,0,1,29,49h3.86a2.8,2.8,0,0,0,2.75-2.6l.23-3.93a2.34,2.34,0,0,0-2.22-2.6,2.46,2.46,0,0,0-2.5,2.19,2.34,2.34,0,0,1-2.28,2.19,2.26,2.26,0,0,1-2-2.6L27,38.93a2.8,2.8,0,0,1,2.75-2.6h8.62a2.8,2.8,0,0,0,2.75-2.6l.23-3.93A2.34,2.34,0,0,0,39.13,27.22Z"/><path class="cls-1" d="M95.55,18.2c-1.06-1.36-2.48-1.18-3.16.4L89.56,25.2a1.92,1.92,0,0,0,1.9,2.88h8.62c1.72,0,2.27-1.12,1.22-2.48Z"/><path class="cls-1" d="M76.67,27.22a2.46,2.46,0,0,1,2.5,2.19,2.6,2.6,0,0,0,2.73,2.19H101a2.8,2.8,0,0,1,2.75,2.6l1.82,31.74a2.8,2.8,0,0,0,2.75,2.6h4.77a2.68,2.68,0,0,1,2.74,2.37,2.34,2.34,0,0,1-2.47,2.37h-9.52a2.8,2.8,0,0,1-2.75-2.6l-.55-9.59a2.8,2.8,0,0,0-2.75-2.6H88.19a2.43,2.43,0,0,0-2.45,2.6L86,65.92l.29,5a2.34,2.34,0,0,1-2.47,2.37H80a2.68,2.68,0,0,1-2.74-2.37,2.12,2.12,0,0,1,2-2.37,2.25,2.25,0,0,0,2-2.6l-.55-9.59c-.08-1.43-.15-2.6-.15-2.6h6.91a2.12,2.12,0,0,0,2-2.35A2.67,2.67,0,0,0,86.77,49H82.91a2.8,2.8,0,0,1-2.75-2.6l-.23-3.93a2.34,2.34,0,0,1,2.22-2.6,2.46,2.46,0,0,1,2.5,2.19,2.34,2.34,0,0,0,2.28,2.19,2.26,2.26,0,0,0,2-2.6l-.16-2.76A2.8,2.8,0,0,0,86,36.34H77.42a2.8,2.8,0,0,1-2.75-2.6l-.23-3.93A2.34,2.34,0,0,1,76.67,27.22Z"/><path class="cls-1" d="M50.65,16.2a1.84,1.84,0,0,1-1.64-1l-1.84-3.67a1.84,1.84,0,1,1,3.28-1.64l1.84,3.67a1.84,1.84,0,0,1-1.64,2.66Z"/><path class="cls-1" d="M60.51,47.09a1.84,1.84,0,0,1-1.81-1.57l-.34-2.26A1.84,1.84,0,0,1,62,42.72L62.33,45a1.83,1.83,0,0,1-1.55,2.09Z"/><path class="cls-1" d="M67.9,20a1.84,1.84,0,0,1-1.55-2.81l1.7-2.7a1.84,1.84,0,1,1,3.11,2l-1.7,2.7A1.83,1.83,0,0,1,67.9,20Z"/><path class="cls-1" d="M47.4,30.31a1.83,1.83,0,0,1-1.3-3.13,1.89,1.89,0,0,1,2.59,0,1.83,1.83,0,0,1-1.3,3.13Z"/><path class="cls-1" d="M60.64,13H60.4a2.06,2.06,0,0,1-1.81-2.29l1-8.84a2.06,2.06,0,1,1,4.1.48l-1,8.84A2.06,2.06,0,0,1,60.64,13Z"/><path class="cls-1" d="M71,55a2.07,2.07,0,0,1-1.93-1.33L66.89,48a2.06,2.06,0,1,1,3.86-1.48l2.18,5.69A2.07,2.07,0,0,1,71,55Z"/><path class="cls-1" d="M46.37,62.62a2.07,2.07,0,0,1-1.93-2.8l3.9-10.31A2.06,2.06,0,1,1,52.2,51L48.3,61.28A2.07,2.07,0,0,1,46.37,62.62Z"/><path class="cls-1" d="M62.58,27.21a1.84,1.84,0,0,1-1.48-2.92l.67-.92a1.84,1.84,0,0,1,3,2.16l-.67.92A1.83,1.83,0,0,1,62.58,27.21Z"/><path class="cls-1" d="M67.12,36.28a1.84,1.84,0,0,1-1.3-.54,1.84,1.84,0,0,1,0-2.6,1.9,1.9,0,0,1,2.59,0,1.84,1.84,0,0,1,0,2.6A1.84,1.84,0,0,1,67.12,36.28Z"/><path class="cls-1" d="M34.88,98.7a1.46,1.46,0,0,1,1.45-1.45h2.22a1.25,1.25,0,1,0,0-2.46H33.87a1.46,1.46,0,0,0-1.45,1.45v12a1.46,1.46,0,0,0,1.45,1.45h5.53a1.25,1.25,0,1,0,0-2.46H36.33a1.46,1.46,0,0,1-1.45-1.45Z"/><path class="cls-1" d="M57.31,108.36a1.46,1.46,0,0,0,1.45,1.45h4.51a1.46,1.46,0,0,0,1.45-1.45V96.17a1.46,1.46,0,0,0-1.45-1.45H58.77a1.46,1.46,0,0,0-1.45,1.45ZM61,97.06a1.41,1.41,0,0,1,1.36,1.45V106a1.36,1.36,0,1,1-2.72,0V98.51A1.41,1.41,0,0,1,61,97.06Z"/><path class="cls-1" d="M52.68,108.28a1.25,1.25,0,1,0,2.46,0v-12a1.25,1.25,0,1,0-2.46,0Z"/><path class="cls-1" d="M42.83,94.78a1.25,1.25,0,1,0,0,2.46h.85a1.46,1.46,0,0,1,1.45,1.45v9.59a1.25,1.25,0,1,0,2.46,0V98.7A1.46,1.46,0,0,1,49,97.24H50a1.25,1.25,0,1,0,0-2.46Z"/><path class="cls-1" d="M25.7,92.33a1.25,1.25,0,1,0,0,2.46h.83A1.46,1.46,0,0,1,28,96.24v3.34A1.46,1.46,0,0,1,26.54,101H25.7a1.46,1.46,0,0,1-1.45-1.45V96.24A1.36,1.36,0,0,0,23,94.78a1.36,1.36,0,0,0-1.23,1.45v12.12A1.36,1.36,0,0,0,23,109.81a1.36,1.36,0,0,0,1.23-1.45v-3.41a1.46,1.46,0,0,1,1.45-1.45h.83A1.46,1.46,0,0,1,28,104.95v3.41a1.25,1.25,0,1,0,2.46,0V93.78A1.46,1.46,0,0,0,29,92.33Z"/><path class="cls-1" d="M76.49,96.46c0-1-.55-1.74-1.23-1.74S74,95.5,74,96.46l0,5.31c0,1-.41,1.07-.91.25L70,96.91a2,2,0,0,0-2-1.1,2.32,2.32,0,0,0-1.12,2.14v9.57c0,1,.55,1.74,1.23,1.74s1.23-.78,1.23-1.74v-4.85c0-1,.38-1.06.85-.22l3.26,5.85c.47.84,1.35,1.37,2,1.19a2.18,2.18,0,0,0,1.12-2.08Z"/><path class="cls-1" d="M85.3,91.77a1.38,1.38,0,1,0,0,2.73h2a1.62,1.62,0,0,1,1.61,1.61v1a1.62,1.62,0,0,1-1.61,1.61H85.4a1.62,1.62,0,0,0-1.61,1.61v7.38a1.62,1.62,0,0,0,1.61,1.61H90a1.38,1.38,0,1,0,0-2.73H88.12A1.62,1.62,0,0,1,86.51,105V103a1.62,1.62,0,0,1,1.61-1.61H90a1.62,1.62,0,0,0,1.61-1.61V93.38A1.62,1.62,0,0,0,90,91.77Z"/></g></g></svg>