<svg xmlns="http://www.w3.org/2000/svg" viewBox="0 0 387.24 123.17"><defs><style>.cls-1{fill:#6bffba;}.cls-2{fill:#004864;}</style></defs><title>資產 1</title><g id="圖層_2" data-name="圖層 2"><g id="圖層_1-2" data-name="圖層 1"><rect class="cls-1" x="94.45" y="12.08" width="292.79" height="64.89" rx="32.44" ry="32.44"/><path class="cls-2" d="M137.81,42.67c-.21.42-.45.81-.69,1.23h14V58.81h-3.6V57.73H136.7v1.08h-3.42V48.94a22.93,22.93,0,0,1-4.62,3.6,20.75,20.75,0,0,0-2.25-2.88,20,20,0,0,0,7.32-7h-6.39V39.84h7.89c.21-.42.39-.87.57-1.29h-6.36v-2.7h7.32c.12-.42.24-.84.33-1.29-2.49.09-5,.12-7.32.09a9.15,9.15,0,0,0-.66-2.67c7.32,0,16-.36,21-1.2l2.1,2.55A101.18,101.18,0,0,1,141,34.41c-.12.48-.27,1-.42,1.44h11.76v2.7H139.64c-.15.42-.33.87-.51,1.29H154v2.82H137.81Zm9.75,3.93H136.7v1.29h10.86Zm0,3.51H136.7v1.32h10.86V50.11Zm0,4.92V53.65H136.7v1.42h10.86Z"/><path class="cls-2" d="M175.31,49.33a9.82,9.82,0,0,1-2.19,4.17c3.9,1.29,8.82,1.41,14.91,1.38a8.64,8.64,0,0,0-1.53,3.54c-6.51-.15-12-.6-16.32-2.49A27.06,27.06,0,0,1,162,58.75a16.56,16.56,0,0,0-2.16-3.18,29.17,29.17,0,0,0,6.78-1.77,14.46,14.46,0,0,1-3.09-3.36l2.73-1.11h-3.17V37H172V35.23h-11.5V32.07H186.8v3.18h-11V37H185V49.35h-9.63Zm-8.82-7.53H172V39.88h-5.52Zm0,4.62H172v-2h-5.52v2Zm.3,2.91a11.39,11.39,0,0,0,2.91,2.61,6.54,6.54,0,0,0,1.74-2.61h-4.65Zm14.61-4.86h-5.64v2h5.67v-2Zm-5.64-4.59V41.8h5.64V39.88Z"/><path class="cls-2" d="M220.25,45.43c-4.23,9.12-14.07,12.27-25.5,13.35a15,15,0,0,0-1.44-3.45,49.58,49.58,0,0,0,13-2.37,35.48,35.48,0,0,0-3.12-2.79,32.63,32.63,0,0,1-3.87,1.65,11.24,11.24,0,0,0-2.18-2.75c6.18-1.92,10.32-4.86,12.6-7.77l3.87.9c-.6.69-1.17,1.35-1.83,2h5.36l.66-.18Zm-4-11c-3.87,6.9-12.39,10.62-21,12.24a13.18,13.18,0,0,0-1.65-3.15,41.18,41.18,0,0,0,8.85-2.28,38,38,0,0,0-2.94-2.7c-.87.48-1.77.93-2.73,1.35a11,11,0,0,0-2.43-2.55,25.77,25.77,0,0,0,10.41-6.69l3.84.9q-.76.81-1.62,1.62h6.33l.63-.15Zm-13.11,1.85c-.27.21-.57.39-.87.6a24,24,0,0,1,3.39,2.91,20,20,0,0,0,5-3.51h-7.47ZM208,47.35l-1.74,1.17a29.39,29.39,0,0,1,3.51,3,16,16,0,0,0,5-4.14h-6.81Z"/><path class="cls-2" d="M253.91,45.76c-2,7.47-6.84,11.22-13.53,13.14a11.36,11.36,0,0,0-1.89-3,18.76,18.76,0,0,0,6.33-2.61,24.52,24.52,0,0,0-2.43-2.73c-.45.33-1,.63-1.44.93a9.61,9.61,0,0,0-2.16-2.37l.57-.3h-4.08C236.78,50,239,52,239.66,52.6l-2.1,2.94c-.63-.93-1.77-2.34-2.88-3.66v6.81H231.2v-6a20.72,20.72,0,0,1-4.26,5.16,18.64,18.64,0,0,0-1.59-3.51,19.27,19.27,0,0,0,4.86-5.52h-4V45.67h5V43.81h-4.38V31.87H239.1v4.89a14.93,14.93,0,0,0,5.43-6.06l3.27.54a14.64,14.64,0,0,1-.81,1.5h3.15l.63-.09,2.28.9a16.29,16.29,0,0,1-6.69,9.21l2.58.48q-.5.9-1.08,1.8H251l.66-.12Zm-24.18-9.18h1.92V34.75h-1.92Zm0,4.44h1.92v-1.8h-1.92Zm6.33-4.44V34.75H234.2v1.83Zm0,4.44v-1.8H234.2V41Zm3.42,7.74a15.4,15.4,0,0,0,5.61-5.25,22.24,22.24,0,0,1-4.23,1.83,10.62,10.62,0,0,0-1.77-2.46v1h-4.41v1.86h4.8v3Zm-.39-6a15.37,15.37,0,0,0,5.16-2.43,26.09,26.09,0,0,0-2-2q-.63.5-1.35,1a7.78,7.78,0,0,0-1.77-1.83v5.31ZM245,35.59c-.21.24-.39.48-.63.72a20.48,20.48,0,0,1,2.19,2,11.63,11.63,0,0,0,2-2.73H245ZM245.51,48c-.24.24-.48.48-.75.72a29,29,0,0,1,2.55,2.49A13.07,13.07,0,0,0,249.47,48h-4Z"/><path class="cls-2" d="M267.32,31.72a59.13,59.13,0,0,1-2.25,5.88V58.69h-3.39V43.87c-.57.84-1.14,1.59-1.68,2.28a30.38,30.38,0,0,0-1.74-3.87A33.34,33.34,0,0,0,264,30.73Zm18.93,18.75h-8v8.22h-3.57V50.47h-8v-3.3h8V43.69H268V40.36h6.69V30.67h3.57v9.69H285v3.33h-6.78v3.48h8ZM271.14,40a53.69,53.69,0,0,0-3.9-6.45L270,32.17a42.22,42.22,0,0,1,4,6.15Zm14.1-6.84c-.9,2.28-2.19,5.07-3.09,6.81a18,18,0,0,0-3-1.38A42.78,42.78,0,0,0,282,32.23Z"/><path class="cls-2" d="M317.78,39.4A32.88,32.88,0,0,1,314,50.8a14.85,14.85,0,0,0,6,4.83,12.89,12.89,0,0,0-2.43,3.09,16.51,16.51,0,0,1-5.85-4.83,21.41,21.41,0,0,1-6.75,4.8,14.63,14.63,0,0,0-1.89-3.06h-7V57.4h-3.3V44.14h4V39.52h-5.22V36.19h5.22V30.7h3.57v5.49h4.92v3.33h-4.89v4.62h3.3a9,9,0,0,0-.84-.6c2.67-2.91,4.32-7.71,5.13-12.84l3.66.57A48.27,48.27,0,0,1,310.55,36h9.15V39.4h-1.92ZM301,47.47h-4.84V52.3h4.8V47.47Zm3.39,7.44a15.65,15.65,0,0,0,5.4-4.11,34.68,34.68,0,0,1-2.63-6.73A16,16,0,0,1,305.82,46c-.33-.3-.9-.81-1.5-1.29V55Zm5.1-15.51a33.12,33.12,0,0,0,2.46,8,27.55,27.55,0,0,0,2.28-8Z"/><path class="cls-2" d="M352.52,50.38H349.4V55.6h-3.63V54.37h-5.4v.93c0,1.77-.42,2.49-1.59,3s-2.76.51-5.31.51A11,11,0,0,0,332.3,56c1.44.06,3.21.06,3.69.06a.63.63,0,0,0,.75-.75v-.93h-9.12V51.79h9.12V50.38H324.86V47.65h11.88V46.36h-8.88V44h8.88V42.64h-8.13V36.7h8.13V35.47H325.55V32.65h11.19v-2h3.63v2h11.46v2.82H340.37V36.7h8.52v5.94h-8.52V44h9v3.69h3.12v2.73Zm-15.78-10V38.94H332v1.44Zm3.63-1.44v1.44h4.86V38.94Zm0,8.7h5.4V46.35h-5.4Zm5.4,2.73h-5.4v1.41h5.4Z"/><path class="cls-1" d="M100.06,32.95H80.5a1.86,1.86,0,0,0-1.32,3.18L98.61,55.56a1.86,1.86,0,0,0,3.18-1.31l.13-19.43a1.86,1.86,0,0,0-1.85-1.87Z"/><path class="cls-1" d="M27.14,14.56c1.57-2.49,4.06-2.45,5.55.09l6.84,11.7C41,28.89,39.82,31,36.88,31H22.14c-2.94,0-4.07-2-2.5-4.53Z"/><path class="cls-1" d="M16.58,69.92,36.44,36.48h-32A4.45,4.45,0,0,0,0,40.92V61.65a4.45,4.45,0,0,0,4.44,4.44h7.71A4.45,4.45,0,0,1,16.58,69.92ZM8.14,53.55V49.07a4.25,4.25,0,1,1,8.48,0V53.6A32.33,32.33,0,0,1,16.47,58H12.23a4.29,4.29,0,0,1-4.09-4.48Z"/><path class="cls-1" d="M58.33,29.39a3.83,3.83,0,0,0-4.05,3.54c0,2-2,3.54-4.44,3.54h-5.2l-28,47.16v27c0,2.44-1.64,4.44-3.65,4.44a3.88,3.88,0,0,0-3.65,4,4.27,4.27,0,0,0,4.44,4H20.3a4.45,4.45,0,0,0,4.44-4.44V86.81a4.45,4.45,0,0,1,4.44-4.44H30a4.45,4.45,0,0,1,4.44,4.44v31.92a4.45,4.45,0,0,0,4.44,4.44h6.52a4.27,4.27,0,0,0,4.44-4,3.88,3.88,0,0,0-3.65-4c-2,0-3.65-2-3.65-4.44V49.07A4.5,4.5,0,0,1,47,44.59l11-.1A4.5,4.5,0,0,0,62.44,40V33.89a4.27,4.27,0,0,0-4-4.5Z"/><path class="cls-1" d="M40.05,10.44a2,2,0,0,1-1.59-3.27l5-6.39a2,2,0,1,1,3.19,2.49h0l-5,6.39A2,2,0,0,1,40.05,10.44Z"/><path class="cls-1" d="M43.84,17.54A2,2,0,0,1,43,13.69l8.42-4a2,2,0,1,1,1.73,3.66h0l-8.42,4A2,2,0,0,1,43.84,17.54Z"/><path class="cls-1" d="M55,25.07H46.48a2,2,0,0,1,0-4H55a2,2,0,0,1,0,4Z"/></g></g></svg>