<svg xmlns="http://www.w3.org/2000/svg" viewBox="0 0 307.27 43.4"><defs><style>.cls-1{fill:#ffcd32;}.cls-2{fill:#ffd248;}</style></defs><title>資產 1</title><g id="圖層_2" data-name="圖層 2"><g id="圖層_1-2" data-name="圖層 1"><g id="X檔案選取提示"><rect class="cls-1" x="2.97" y="3.9" width="301.4" height="36.8"/><path class="cls-2" d="M306.77,40c0,1,.4.6.5.8C307.17,39.1,306.67,40,306.77,40Z"/><polygon class="cls-2" points="305.87 23.5 306.07 23.8 305.57 21.3 305.87 23.5"/><path class="cls-2" d="M305.87,8.1c-.7,1.5.1,5.6-.1,8.3l-.2.4.6,1.2C306.07,14.7,305.67,10.4,305.87,8.1Z"/><path class="cls-2" d="M300.27.9c.2.1-.2.2-.2.2h.4l3.1-.1L303,.9Z"/><path class="cls-2" d="M302.87.9c3,0-1.8-.2,0,0Z"/><path class="cls-2" d="M294.37,1.1l2.1-.2c-.4-.2-2.3-.2-1.6-.3C292.67.6,293.17.8,294.37,1.1Z"/><path class="cls-2" d="M292.37,1.6l1.1-.1A1.38,1.38,0,0,0,292.37,1.6Z"/><path class="cls-2" d="M295.77,1.3l-2.3.2a.79.79,0,0,0,1.1-.1C294.37,1.6,294.77,1.4,295.77,1.3Z"/><path class="cls-2" d="M297.17,1.4c1.2.2,2.8.2.6.5C301.77,1.8,301.17,1.3,297.17,1.4Z"/><path class="cls-2" d="M305.17,7.2,305,8.9l.2,1.4C305.07,9.6,305.37,7.2,305.17,7.2Z"/><path class="cls-2" d="M281.07.7c-.1.1.7.4.9.6l1.6-.2A6.91,6.91,0,0,1,281.07.7Z"/><path class="cls-2" d="M282,1.3l-2.4.3C281.67,1.6,282.07,1.5,282,1.3Z"/><polygon class="cls-2" points="291.97 2.4 295.87 1.8 291.17 2.4 291.97 2.4"/><polygon class="cls-2" points="271.97 0.7 273.37 0.3 270.97 0.9 271.97 0.7"/><path class="cls-2" d="M266.07.7c1-.3-1.4-.5-.3-.7a31.49,31.49,0,0,0-4.3.5A36.1,36.1,0,0,1,266.07.7Z"/><path class="cls-2" d="M259.37.9c.7-.1,1.3-.2,2.1-.3Z"/><path class="cls-2" d="M275.57,1.5a4.06,4.06,0,0,0-1.9-.4l.9.4Z"/><path class="cls-2" d="M274.67,1.5Z"/><path class="cls-2" d="M275.77,1.5h0Z"/><path class="cls-2" d="M285.77,2c-1.4.2-4.3.5-1.5.9C285.27,2.5,283.67,2.3,285.77,2Z"/><path class="cls-2" d="M277,2l2.5.1c0-.1-.5-.3.2-.4Z"/><polygon class="cls-2" points="275.67 2.2 276.97 2 275.97 2 275.67 2.2"/><path class="cls-2" d="M263.67,1.3a21.74,21.74,0,0,1-3.6.2c1.4.1,2.9.1,4.3.1C264.57,1.5,265.17,1.3,263.67,1.3Z"/><path class="cls-2" d="M269,1.4h-.2C268.87,1.5,269,1.5,269,1.4Z"/><path class="cls-2" d="M246.87,1.5l.2.1V1.5Z"/><path class="cls-2" d="M264.57,1.8a8.68,8.68,0,0,0,2.3-.1c-.8,0-1.7.1-2.6.1C264.27,1.7,264.27,1.8,264.57,1.8Z"/><path class="cls-2" d="M255.67,1.1a11.07,11.07,0,0,0,1.9.2A12.27,12.27,0,0,0,255.67,1.1Z"/><path class="cls-2" d="M268.37,1.3h.2C268.17,1.2,268.27,1.3,268.37,1.3Z"/><path class="cls-2" d="M268.37,1.3a5.78,5.78,0,0,0-1.4.3c.7,0,1.3-.1,1.8-.1C268.57,1.4,268.47,1.4,268.37,1.3Z"/><path class="cls-2" d="M242.87,4.3c.2-.4,3-.8,5.5-.3,2.4-.3.8-1.6-1.3-2.3-.1.2-.1.3-2.6.6.9.2,5.5.5,3.4.9a8.86,8.86,0,0,1-4.3-.4c1.4.5-4.2.7-3.5,1.4l2.9-.3C243.07,4,242.07,4.2,242.87,4.3Z"/><path class="cls-2" d="M251.77,1.7h1c-1.2-.1-2.4-.3-3.5-.5-1.7.2-2.1.3-2.2.5l5,.1Z"/><path class="cls-2" d="M257.37,1.6c-.8.4-3.2.6-1.8,1.1,3,0,2.1-.4,3.9-.6-4.8.2,1.4-.2-2.1-.5,1,0,1.8-.1,2.7-.1-.9-.1-1.7-.1-2.5-.2h.1c.2.1.3.1,0,.1h-.1c-.1.1-.2.1-.2.2-1.5-.1-.3-.2.2-.2l.1-.1h0l-4.8.2A19.64,19.64,0,0,0,257.37,1.6Z"/><path class="cls-2" d="M281.67,3.8c-.2,0-.1-.1-.2-.1C281.17,3.7,281.07,3.8,281.67,3.8Z"/><path class="cls-2" d="M279.67,3.5a5.54,5.54,0,0,1,1.8-.2c1,.1,0,.2,0,.4.7-.1,2.4-.3.2-.5l-.3.1a18.52,18.52,0,0,1-4.1-.7A11.72,11.72,0,0,0,279.67,3.5Z"/><path class="cls-2" d="M268.37,2.7l-4,.2,2.1.4-.1-.2C268.57,3.1,268.17,2.8,268.37,2.7Z"/><polygon class="cls-2" points="246.37 1.3 246.97 0.9 244.57 1.5 246.37 1.3"/><polygon class="cls-2" points="241.17 1.4 241.37 1 239.97 1.2 241.17 1.4"/><path class="cls-2" d="M23.67,38.4l1.2-.1A3.77,3.77,0,0,0,23.67,38.4Z"/><path class="cls-2" d="M15.07,38.3l-.2.2C15.27,38.4,15.47,38.4,15.07,38.3Z"/><path class="cls-2" d="M112.47,1.4c-1.7-.4-3.7-.9-3.5-.5l.5.4C110.47,1.3,111.47,1.3,112.47,1.4Z"/><path class="cls-2" d="M24.27,4l.5.1L26,3.7Z"/><path class="cls-2" d="M23.07,5.8l-2.3-.3C21.27,5.6,22.07,5.7,23.07,5.8Z"/><path class="cls-2" d="M70.57,37.9l1.4-.4C69.77,37.5,70.67,37.7,70.57,37.9Z"/><path class="cls-2" d="M187.47,1.5c-1.5-.2-2.7-.2-3.7-.3C185.57,1.5,187,1.9,187.47,1.5Z"/><path class="cls-2" d="M20.27,43a1.21,1.21,0,0,0,1-.3C20.57,42.8,20.17,42.9,20.27,43Z"/><path class="cls-2" d="M179.47,1.3l.8.1c1.1-.1,2.2-.1,3.5-.1A10.38,10.38,0,0,0,179.47,1.3Z"/><path class="cls-2" d="M240.47,38.3l.4.1C240.87,38.3,240.77,38.3,240.47,38.3Z"/><path class="cls-2" d="M290,42.7h0Z"/><path class="cls-2" d="M220.07,1.2Z"/><path class="cls-2" d="M225.47,2.9a.52.52,0,0,0-.4.2A.52.52,0,0,1,225.47,2.9Z"/><path class="cls-2" d="M168.37,4Z"/><path class="cls-2" d="M221.77,1.4a6.14,6.14,0,0,0-1.4-.1A10.32,10.32,0,0,1,221.77,1.4Z"/><path class="cls-2" d="M221.47,1.2h1C222.57,1.2,222.47,1.1,221.47,1.2Z"/><path class="cls-2" d="M218.47,1.2h1.8c-.2,0-.3-.1-.2-.1Z"/><path class="cls-2" d="M149.47,39.4h.2C150.77,39.3,150.27,39.3,149.47,39.4Z"/><path class="cls-2" d="M83.47,5.9h0Z"/><path class="cls-2" d="M79.47,6.3a9.13,9.13,0,0,1,4-.4l-1.3-1.2Z"/><path class="cls-2" d="M44.27,38.2l-2.8-.4c3.4-.6,5.8-.4,3.2-1-.4,1.4-10.9.1-11.3,1.5l-1.8-.3c.5,0,.6-.1,1.1-.1-3.6-.6-2.7,1-7.3.8-1.6-.1-2.7-.3-1.6-.5l-3.6.3c-1,0-.8-.3.2-.2l-5.5.1h0c-.8.2-2.6.5-3.4.7-1.4-.2.7-.1.3-.3l-3,.3c-1.2-.4,1.3-.7,3.4-.6a4.13,4.13,0,0,0-3.1-.4,13.54,13.54,0,0,1-2,.2h-.7a1.42,1.42,0,0,1-.6-.2l1-.2-.3-.6a.66.66,0,0,1,.4-.5,1.38,1.38,0,0,0-.4.3l-.6.9c-.1.2-.2.4-.4.4s-.1-.1-.1-.2a1.7,1.7,0,0,0,.1-.7v-.7l-.1-.6c.5,0,.4-1.8.3-3.9l.6.1a13.94,13.94,0,0,0-.8-3.6c.1-2.6.6-3.2,1-3.8.1-4.2-.8,2.9-.9-2.1a56.54,56.54,0,0,0-.4-10.1c.2-2.4.4.4.6-.4l-.5-2.2c0-.5.2-.4.2-.3a1.5,1.5,0,0,0-.4-1.1.76.76,0,0,1-.2-.5c0-.2-.1-.4-.1-.6a1.49,1.49,0,0,0-.1-.6c-.3-.3-.2-1.1.1-1.9.7.1,1.4.3,2,.4h1.3a8.76,8.76,0,0,0,1.6-.2c.9.2-.4.4-.2.6a75,75,0,0,0,8.1-1.1l3.4.4c-2.5-.5.7-1,3.5-1.5-.9-.2-1.7-.4-2.2-.5l4.5-.3c.5.1.1.3-.6.6l.8-.1c1.6.2.8.6-.4,1L25,4.1c-1.1.4-2.1.8-1.9,1.2a7.71,7.71,0,0,1,1.5-.2c-.3.1-.5.2-.3.3a5.07,5.07,0,0,0,1.3-.2l1,.7.2-.3,5.8.4c4.2-.7,7.8-1.8,14.5-2.1-1.7.5-.3.9-.4,1.5-1.8-.7-5.1.3-8.6.1,1.8.1,1.4.4.9.5l6.1-.6c-.1.5,1.3.4,2.9.6-1.2-1,4.6-.7,7.1-1,.2.3-.4.7-3.5.6,3.4.8,4.3-1.2,7.6-.5a3.21,3.21,0,0,0-1.4.1c1.7-.3,6-.1,5,.2h-.7c4.9.1,15,0,15.8-.8a2.34,2.34,0,0,1-1,1.2l8.8-2.9c-.8.7,2.2,2.5-1.9,2.9a21.76,21.76,0,0,0,5.1,0c-.8-.1-2-1.1-.9-1.1a37.15,37.15,0,0,0,5.8,1.1c-1.2-.2.1-1.3,2-1.3-.3.2.2,1.1-.5,1.2L100,4.6c-1.2.2-.2,1,.8,1.3-.5-.2,4.1,0,5.3-.1l-2-.3c5.3.2,5.3-1.6,10.6-1.5-.6.2-1.6,1.4,1.1,1.6A32.79,32.79,0,0,1,126,2.4l.9.3,3.6-.4a96.92,96.92,0,0,1-12,3.4c2,.3.6.4,3.5.4,1.1.3-1.6.5-2.5.5l7,.2c-.3-.7,5.3-.7,5.1-1.2l-7.6.7c-.3-.7,4.4-1.9,9.3-1.8,1.3.3-.9,1.2-.8,1.4a21.87,21.87,0,0,1,5.1-.3l-2.1.4c2.8.2,4.5-.9,7.8-.2,1.1,0,3.4.9,3.6.5-1.9-.8-2.2-3.1-1-3.7.4.1,6,.7,7.3,1.1,1.9.6-2.8,1.4-1.2,2a4.42,4.42,0,0,1,1.5-.5c1.2.2-.5.6,2.1.5.4-.7,5.3.1,1.2-.6,2.5-.2,2.7.1,5.7.1-1-.4,2.7-1.5,5.2-1.7-.2.2.4.4.7.5,5.2.1,8,.4,12.9.4.5.2,2.8.4,1.8.7a13.51,13.51,0,0,1,2.8-.4c2.9.6-3.3.1-1.1.8.2-.4,3.9-.6,6-.8-.7-.6-4.9-.1-7.1.1,0-.8,3.7-1.7,8.8-2.1,4-.2,1.8.6,2.5.4,7.6.1,6.5-1.5,12.8-.9,2.5.5.1,1.1.7,1.5-3.3.2-5.1-.3-7.3-.3l2.7.2a22,22,0,0,1-4.4.2c2.1.5,12.8.1,18.7.5,1-.2,2.8-.4,2-.6l-1.8.1c-1.7-.4,3.5-.6,1.1-.8a36.89,36.89,0,0,1,8.8-.5l.7.6a9.2,9.2,0,0,0-3.3-.2c1.5-.3,5.4.8,7,0l-2.4-.4a51.19,51.19,0,0,1,8.7-.8c-1.4-.6-.7.1-2.9-.6,1.9.9-7.9,0-4.9.9-2.3-.8-3.9-.4-6.9-1,.1.2,1,.4-1.6.3-.2.1-.4.1-.6.2h0a2.77,2.77,0,0,1,1.3.3c-1.3.5-5.4.4-6.8.7-1.5-.1.7-.2-.2-.4l-2.1.4c-.2-.4-4.1-.8-.5-1h-3.3a32.15,32.15,0,0,0-6.2-.2c-1.5-.1-3.9.5-2.6.1l-5.1.3V1.6c-5.1-.1-10.4.7-16.2-.1a44.2,44.2,0,0,1-6.3.1l-.6-.6c-2.2.1-6.6-.4-7.5,0-2.4-1-10.6-.2-14.5-.4l-.2.5c-2.7,0-5.2.1-8.5.3l.2.4c-2.8.4-7.3-.3-11.8-.3a8.1,8.1,0,0,1,2.2,0c-5.4-1-11.3.7-16.2,0a14,14,0,0,1-2.9,0h-.2l-1.7-.2a6.75,6.75,0,0,0,1.4.2c-.9,0-2.3.1-3.7.2l-.6-.5h-.3c-1.4-.2-1.1.2-.4.6l-1.8.3c-1.1-.8-3.6.3-5.2-.6-.9.4-7,.3-7.7,1.1,0-.1-.5-.2.3-.2a17,17,0,0,0-4.5,0l-.7-.6-3.4.8c-2-.4-2.9-.6-.9-1.1-4.9.7-4,.3-8.2,1l.2-.4c-1.5,0-3.9.6-4.8.2-3.3-.8-16.6-.1-25.2-.8,1.7,1.2-4-.5-4.3.4-.5-.3-1.7-.4-.3-.7-4.4.3-6.6-.4-9.6.3-.5-.3.9-.4.5-.6a5.46,5.46,0,0,1-1.8.1c-.5-.2.6-.2,1.3-.4-4.5,0-4.9.9-5.3,1.7a9.41,9.41,0,0,0-5,.2c-.8-.3-2.1-.5.7-.6-1.6,0-9.6-.4-9.7.3a11.29,11.29,0,0,0-2.6,0l-3.7-.1H2.37l1.3.1A3.29,3.29,0,0,1,2,2.6a16.24,16.24,0,0,1-.1,2.1L1.77,6V7.5l-.1-.1c-.6,6.4.3,2.8-.4,9l.5-.3c1,.6-.6,5.6-.2,9.2l.3-1.3c.3,2-1.4,5.6-1.5,7.6-.1.4-.1-.7-.2-1.3-.6,5.2.6.7.8,4.6-.2.4-.4.1-.6.1s-.2.1-.2.3-.1.3-.1.5v1c0,2,0,4,.2,6,2.1-.1,4.4-.3,6.4-.4a22.86,22.86,0,0,1,3.7.1c-.8-.3-1.6-.5.2-.7,2.8-.1,7.5,1,10,.2a.76.76,0,0,1,.5.2c2.1-.2,6.9-.4,8.2-.8,2,1.7,13.2-.8,13.2.7L49,42l-.2.2a21.16,21.16,0,0,0,7.1-.6c1,.1.3.2.2.3a42.36,42.36,0,0,0,11.8-.5l.5.5c1.4-.3,8.8.8,14.8.2a1.44,1.44,0,0,1-.7.2c6.7-.6,16.1,1.4,18.6-.4l4.5-.4c-5.8-.1.9-.8-1.5-1.1,2.3-.1,5.8.5,3.1.6l-.4-.1c-1,.9,7.2.3,7,1,11.3,0,22.4.5,33,.5l-1.2-.7h3.7c1,.2,1.3.6-1.3.5a9.8,9.8,0,0,0,4.5-.5c5.2.3-2,.9-.4.9l2.2-.1-.5-.1a22.21,22.21,0,0,1,5.1-.6c2,.1,1,.4,1.8.5a2.44,2.44,0,0,0,1.2,0l4.7.1-1.9-.6c2.1-.3,4.4,0,2.2-.6,3.2,1,17.4.4,19.3.7a57.91,57.91,0,0,1,9.3-.4c-.9-.1-1.4-.8,1.7-.7-1.1,1.3,5.6.6,8.1,1.6-2.2-.6,8.7-.2,5.2-1.1,2.6.1.2.5,2.1.8,6.1-.5,13.4.3,20.9.2.1-.2-1.1-.4.5-.7l4,.9c1.5-.1,1.4-1,4.1-.4-.4-.1-1-.4,0-.4,14.7.9,30-.7,44.9.9-2-.3-.7-.4.9-.4-1-.1,0-.4-.2-.7l6.2.7c1.1-.7,6.7,0,7.3-.7l-2,.1c2.6-.8-3.7-1.7-3.3-2.6-2.9.9-7.8-1.3-12.6,0-1.1-.2.9-.3.3-.5a12.36,12.36,0,0,1-5.4.3l.3-.1c-7.7.1-11-.3-19.7-.6l.6.5a16.28,16.28,0,0,1-3.1-.3c-2.1.7,5.2,0,3.3.8-2.5-1-13.1,0-14.8-1.1-2.9,0,.8.6-2,.5l-.8-.3-.7.4c-1.9-.1-2.8-.4-2.9-.7.4,0,1.3-.1,1.8-.1-2.4-.4-6.8.1-7.7,0l2.8.2c-7.8.3-17.3-.1-24.9.5l.6.2c-5.8.4-4.6-.2-10.9-.1l.2-.1a35.94,35.94,0,0,1-4.7.3c1.6-.3-3-.5-.9-.8-6.2.4-3.1.4-7.2,1.2l-1-.4a14.81,14.81,0,0,1-4.7.6c2.6-.3-2-.6.9-1-6.6-.8-9.8.8-12.9-.4-3,1,5.7.6,4,.8,1.4.3-2.5.8-4.6.7s-3.6-1.3-8.9-1.3c.5,0,.6-.1,1.1-.1-2-.3-3.9.4-6.3-.1-1.4.6-3.2,0-3.6.8l4.9-.2c-2.8.2-5.4,1.1-9.9.7a23.85,23.85,0,0,1,2.6-.5c-1.3-.2-2.6.1-4-.1.4-.8,5.9-.2,8.9-.8-1.4-.3-5.6.6-4.1-.3-2.1,1.1-5.2-.1-8.8.7l.2-.5a13.33,13.33,0,0,1-2.8.3l1.9-.6c-2.9.5-5.6-.5-8.4-.2,5.9,0,1.3.6,3.8.9-7.2.6-4.2-1.2-12.2-1,1.1-.1,4.1.3,2.4.5a34.42,34.42,0,0,1-4.5-.5c-5.4.1.8.5-1.5.8-1.8-.6-2.6.2-5,.4v-.5c-6.1-.3-1.6,1-7.1.6l2.3-.7-2.9.2.6-.6a28.93,28.93,0,0,1-7.2.1c.7.3-.4.9-3.1.9-1.8-.3,1-.5-2.8-.4a4.7,4.7,0,0,1,3.5-.2c.2-.2.8-.3,1-.5a45.61,45.61,0,0,0-6.4-.1,7.56,7.56,0,0,1,1.5.1l-5.6.7c-.9-.2-.2-.3.5-.5a28.67,28.67,0,0,1-3.6.3c.4-.4.3-.8,2.7-1l-5.3.4c-.3-.2-2.7-.5-2-.6-2.9-.2-7.2.8-11.1.5a7.84,7.84,0,0,1-1.4.2c-3.7-.1-6.9-.6-11.2,0l-2.5-.7c-3.4.2,3.3.9-2.3,1.1-4,.2-1.5-.6-2.9-.8a25.42,25.42,0,0,1-9.1.5A6.07,6.07,0,0,0,44.27,38.2Zm-39.1,0c0,.1.1.1.1.2a.91.91,0,0,1,1,0,1.06,1.06,0,0,1-1.2.2ZM30.47,4.9a7.58,7.58,0,0,1-2.6-.1,22.58,22.58,0,0,1,2.6.1Zm177.4-3.4h0c-1.9-.1-1.3,0,0,0Zm3.8.3c.4-.1.3-.1.2-.2a7.41,7.41,0,0,1-2.1.1,4,4,0,0,0,1.9.1Zm-50.4,40.8-.7-.1c1.6-.1,1.2,0,.7.1Z"/><path class="cls-2" d="M23.17,5.6a.32.32,0,0,1-.3-.3C22.57,5.4,22.57,5.5,23.17,5.6Z"/><path class="cls-2" d="M70.27,38h0c.1,0,.2,0,.2-.1Z"/><path class="cls-2" d="M153.37,5.9a7.73,7.73,0,0,1-1.5-.2C151.87,5.8,152.17,5.9,153.37,5.9Z"/><path class="cls-2" d="M231.57,1l-2.4.1a8.21,8.21,0,0,1,2.2.2C231.27,1.1,230.77,1,231.57,1Z"/><path class="cls-2" d="M252.47,4c.3-.1.8,0,1.1-.1l-.1-.2C252,3.7,251,3.9,252.47,4Z"/><path class="cls-2" d="M233.77,2.6c.2.4,1.7.3,3.4.2h-.3C237.37,2.2,235.57,2.4,233.77,2.6Z"/><path class="cls-2" d="M237.57,2.8h1.6C239.37,2.5,238.47,2.7,237.57,2.8Z"/><path class="cls-2" d="M216.37,1.5c.8.1.5-.5,1-.4C218.27.7,212.07,1.8,216.37,1.5Z"/><polygon class="cls-2" points="235.17 3.9 234.57 3.4 233.57 3.8 235.17 3.9"/><path class="cls-2" d="M221.87,3.5l2.7.1a1.85,1.85,0,0,1,.7-.2C224.07,3.4,223,3.4,221.87,3.5Z"/><path class="cls-2" d="M225.27,3.5a16.93,16.93,0,0,0,2.2-.1C227,3.4,226,3.5,225.27,3.5Z"/><polygon class="cls-2" points="231.47 4.1 230.67 4 228.77 3.9 231.47 4.1"/><path class="cls-2" d="M192.87,3.5l-2.9.1c-.3.2.5.3,1.6.2C192.17,3.7,193.27,3.6,192.87,3.5Z"/><path class="cls-2" d="M201.77,4.8a2.84,2.84,0,0,1-1.3-.4l-.1.6Z"/><path class="cls-2" d="M193.17,5c-.3.2-4.3.5-.5.5C193,5.3,195.87,5.1,193.17,5Z"/><polygon class="cls-2" points="148.87 4.2 149.57 4.2 149.47 3.2 148.87 4.2"/><path class="cls-2" d="M109.77,6.6c3.5.2.8-.6,4-.3.8-.2-2.6-.2-1.7-.5C109.87,6.1,108.77,6,109.77,6.6Z"/><path class="cls-2" d="M112,5.8c.3,0,.7-.1,1.1-.1C112.67,5.7,112.37,5.8,112,5.8Z"/><polygon class="cls-2" points="298.17 43.2 300.47 43.4 298.97 43.1 298.17 43.2"/><path class="cls-2" d="M302.47,42.4l.5.6,1.3-.6A2.76,2.76,0,0,1,302.47,42.4Z"/><path class="cls-2" d="M6.47,33.9l-.2-.2a4.13,4.13,0,0,0-.2,1.9Z"/><polygon class="cls-2" points="26.47 37.7 25.97 37.7 26.97 38.3 26.47 37.7"/><path class="cls-2" d="M52.07,37c-1,0-2.3.1-3.3.1C51,37,52.37,37.7,52.07,37Z"/></g></g></g></svg>