<svg xmlns="http://www.w3.org/2000/svg" viewBox="0 0 305.1 44.1"><defs><style>.cls-1{fill:#ffcd32;}.cls-2{fill:#ffd248;}</style></defs><title>資產 2</title><g id="圖層_2" data-name="圖層 2"><g id="圖層_1-2" data-name="圖層 1"><rect class="cls-1" y="3.4" width="301.4" height="36.8"/><path class="cls-2" d="M2.4,39.4c0,1,.4.6.5.8C2.8,38.6,2.3,39.5,2.4,39.4Z"/><polygon class="cls-2" points="1.5 23 1.6 23.3 1.2 20.8 1.5 23"/><path class="cls-2" d="M1.5,7.6c-.7,1.5.1,5.6-.1,8.3l-.2.4.6,1.2C1.7,14.2,1.3,9.9,1.5,7.6Z"/><path class="cls-2" d="M4.1,6.4c-.2-.1.2-.2.2-.2H3.7l-.3.1.1.1Z"/><path class="cls-2" d="M3.5,6.4c-.3,0,.3.3,0,0Z"/><path class="cls-2" d="M10,6.3l-2.1.2c.5.2,2.3.2,1.6.3C11.7,6.7,11.2,6.5,10,6.3Z"/><path class="cls-2" d="M12,5.8l-1.1.1A1.38,1.38,0,0,0,12,5.8Z"/><path class="cls-2" d="M8.6,6.1l2.3-.2A.79.79,0,0,0,9.8,6C10,5.7,9.6,5.9,8.6,6.1Z"/><path class="cls-2" d="M7.2,6c-1.2-.2-2.8-.2-.6-.5C2.5,5.6,3.1,6.1,7.2,6Z"/><path class="cls-2" d="M.7,6.9a3.2,3.2,0,0,1-.1.7l-.1.8L.7,9.8C.6,9,1,6.7.7,6.9Z"/><path class="cls-2" d="M23.3,6.6c.1-.1-.7-.4-.9-.6l-1.6.2A10.06,10.06,0,0,1,23.3,6.6Z"/><path class="cls-2" d="M22.4,6l2.4-.3C22.7,5.8,22.3,5.9,22.4,6Z"/><polygon class="cls-2" points="12.4 5 8.5 5.5 13.2 4.9 12.4 5"/><polygon class="cls-2" points="32.3 6.7 31 7 33.4 6.5 32.3 6.7"/><path class="cls-2" d="M38.3,6.6c-1,.3,1.4.5.3.7a31.49,31.49,0,0,0,4.3-.5A23.63,23.63,0,0,1,38.3,6.6Z"/><path class="cls-2" d="M45,6.4c-.7.1-1.3.2-2.1.3A7.62,7.62,0,0,0,45,6.4Z"/><path class="cls-2" d="M28.8,5.9a4.06,4.06,0,0,0,1.9.4l-.9-.4Z"/><path class="cls-2" d="M29.7,5.9Z"/><path class="cls-2" d="M28.6,5.9h.2C28.8,5.8,28.7,5.8,28.6,5.9Z"/><path class="cls-2" d="M18.6,5.4c1.4-.2,4.3-.5,1.5-.9C19.1,4.8,20.7,5,18.6,5.4Z"/><path class="cls-2" d="M27.4,5.3l-2.5-.1c0,.1.5.3-.2.4Z"/><polygon class="cls-2" points="28.7 5.2 27.4 5.3 28.4 5.4 28.7 5.2"/><path class="cls-2" d="M40.7,6a21.74,21.74,0,0,1,3.6-.2c-1.4-.1-2.9-.1-4.3-.1C39.8,5.8,39.2,6,40.7,6Z"/><path class="cls-2" d="M35.4,5.9h.2C35.5,5.8,35.3,5.8,35.4,5.9Z"/><path class="cls-2" d="M57.5,5.8l-.2-.1v.1Z"/><path class="cls-2" d="M39.7,5.6a8.68,8.68,0,0,0-2.3.1c.8,0,1.7-.1,2.6-.1Z"/><path class="cls-2" d="M48.7,6.2A11.07,11.07,0,0,0,46.8,6,6.16,6.16,0,0,0,48.7,6.2Z"/><path class="cls-2" d="M36,6h-.2C36.2,6.1,36.1,6.1,36,6Z"/><path class="cls-2" d="M36,6a5.78,5.78,0,0,0,1.4-.3c-.7,0-1.3.1-1.8.1C35.8,5.9,35.9,5.9,36,6Z"/><path class="cls-2" d="M61.5,3c-.2.4-3,.8-5.5.3-2.4.3-.8,1.6,1.3,2.3.1-.2.1-.3,2.6-.6-.9-.2-5.5-.5-3.4-.9a8.86,8.86,0,0,1,4.3.4C59.4,4,65,3.8,64.3,3.1l-2.9.3C61.3,3.3,62.3,3.2,61.5,3Z"/><path class="cls-2" d="M52.6,5.7h-1c1.2.1,2.4.3,3.5.5,1.7-.2,2-.3,2.2-.5l-5-.1Z"/><path class="cls-2" d="M47,5.7c.8-.4,3.2-.6,1.8-1.1-3,0-2.1.4-3.9.6,4.8-.1-1.4.2,2.1.5-1,0-1.8.1-2.7.1.9.1,1.7.1,2.5.2h-.1c-.2-.1-.3-.1,0-.1h.1c.1-.1.2-.1.2-.2,1.5.1.3.2-.2.2l-.1.1h0l4.8-.2C50.5,5.7,49.2,5.7,47,5.7Z"/><path class="cls-2" d="M22.7,3.6c.2,0,.1.1.2.1S23.2,3.6,22.7,3.6Z"/><path class="cls-2" d="M24.7,3.8a5.54,5.54,0,0,1-1.8.2c-1-.1,0-.2,0-.4-.7.1-2.4.3-.2.5L23,4a18.52,18.52,0,0,1,4.1.7A11.73,11.73,0,0,0,24.7,3.8Z"/><path class="cls-2" d="M36,4.7l4-.2-2-.4.1.2C35.7,4.2,36.2,4.5,36,4.7Z"/><polygon class="cls-2" points="58 6 57.4 6.5 59.8 5.8 58 6"/><polygon class="cls-2" points="63.2 5.9 63 6.4 64.4 6.1 63.2 5.9"/><path class="cls-2" d="M280.7,42.6l-1.2.1A4.13,4.13,0,0,0,280.7,42.6Z"/><path class="cls-2" d="M289.2,42.7l.2-.2C289.1,42.6,288.9,42.6,289.2,42.7Z"/><path class="cls-2" d="M191.9,5.9c1.7.4,3.7.9,3.4.5l-.5-.4C193.9,6,192.9,6,191.9,5.9Z"/><path class="cls-2" d="M280.1,3.3l-.5-.1-1.2.4Z"/><path class="cls-2" d="M281.3,1.5l2.3.3C283.1,1.7,282.3,1.6,281.3,1.5Z"/><path class="cls-2" d="M233.8,43.1l-1.4.4C234.6,43.5,233.6,43.3,233.8,43.1Z"/><path class="cls-2" d="M116.9,5.8c1.5.2,2.7.2,3.7.3C118.8,5.8,117.4,5.4,116.9,5.8Z"/><path class="cls-2" d="M284,38a1.21,1.21,0,0,0-1,.3C283.8,38.2,284.2,38.1,284,38Z"/><path class="cls-2" d="M124.9,6l-.8-.1c-1.1.1-2.2.1-3.5.1A10.38,10.38,0,0,0,124.9,6Z"/><path class="cls-2" d="M63.9,42.7l-.4-.1C63.5,42.7,63.6,42.7,63.9,42.7Z"/><path class="cls-2" d="M14.4,38.3h0Z"/><path class="cls-2" d="M84.3,6.1Z"/><path class="cls-2" d="M78.9,4.4a.52.52,0,0,0,.4-.2A.52.52,0,0,1,78.9,4.4Z"/><path class="cls-2" d="M136,3.4h0C135.7,3.3,135.8,3.3,136,3.4Z"/><path class="cls-2" d="M82.6,5.9A6.14,6.14,0,0,0,84,6,10.41,10.41,0,0,1,82.6,5.9Z"/><path class="cls-2" d="M82.8,6.2h0Z"/><path class="cls-2" d="M85.8,6.1H84c.2,0,.3.1.2.1Z"/><path class="cls-2" d="M154.9,41.6h-.2C153.6,41.7,154.1,41.7,154.9,41.6Z"/><path class="cls-2" d="M220.8,1.4h0Z"/><path class="cls-2" d="M224.8,1.1a9.13,9.13,0,0,1-4,.4l1.3,1.2Z"/><path class="cls-2" d="M260.1,42.7l2.8.4c-3.4.6-5.8.4-3.2,1,.4-1.4,10.9-.1,11.3-1.5l1.8.3c-.5,0-.6.1-1.1.1,3.6.6,2.7-1,7.3-.8,1.6.1,2.7.3,1.6.5l3.6-.3c1,0,.8.3-.2.2l5.5-.1h0c.8-.2,2.6-.5,3.4-.7,1.4.2-.7.1-.3.3l3-.3c1.2.4-1.3.7-3.4.6a4.13,4.13,0,0,0,3.1.4,13.54,13.54,0,0,1,2-.2h2.3c1,0,2.1.1,3.4.2l-4.8.2a34.94,34.94,0,0,0,6.5.6c.1-2,.1-4.4.4-7.3-.1.4-.2,1.9-.4,3.3a19.1,19.1,0,0,1-.6,3.3c-.8-.2-1-.3-.4-.4,0-.3-.1-.7-.1-1.2s.1-1.5.1-2.6a10.29,10.29,0,0,0-.1-1.7v-.9l-.1-.6c.5,0,.4-1.8.3-3.9l.6.1a13.93,13.93,0,0,0-.8-3.6c.1-2.6.6-3.2,1-3.8.1-4.2-.8,2.9-.9-2.1a56.55,56.55,0,0,0-.4-10.1c.2-2.4.4.4.6-.4l-.5-2.2c0-.5.2-.4.2-.3a1.5,1.5,0,0,0-.4-1.1.76.76,0,0,1-.2-.5c0-.2-.1-.4-.1-.6s-.1-.7-.1-1.2c-.3-.4-.2-1.9.1-4.2-1.2-.1-2.7-.3-4.3-.4h-2a8.76,8.76,0,0,0-1.6.2c-.9-.2.4-.4.2-.6A76.78,76.78,0,0,0,287,1.9l-3.4-.4c2.5.5-.7,1-3.5,1.5.9.2,1.7.4,2.2.5l-4.5.3c-.5-.1-.1-.3.6-.6l-.8.1c-1.6-.2-.8-.6.4-1l1.6.4c1.1-.4,2.1-.8,1.9-1.2a7.71,7.71,0,0,1-1.5.2c.3-.1.5-.2.3-.3a5.07,5.07,0,0,0-1.3.2l-1-.7-.2.3L272,.8c-4.2.7-7.8,1.8-14.4,2.1,1.7-.5.3-.9.4-1.5,1.8.7,5.1-.3,8.6-.1-1.8-.1-1.4-.4-.9-.5l-6.1.6c.1-.5-1.3-.4-2.9-.6,1.2,1-4.6.7-7.1,1-.2-.3.4-.7,3.5-.6-3.4-.8-4.3,1.2-7.6.5a3.21,3.21,0,0,0,1.4-.1c-1.7.3-6,.1-5-.2h.7c-4.9-.1-15,0-15.8.8a2.73,2.73,0,0,1,.9-1.2l-8.8,2.9c.8-.7-2.2-2.5,1.9-2.9a21.76,21.76,0,0,0-5.1,0c.8.1,2,1.1.9,1.1A37.15,37.15,0,0,0,210.8,1c1.2.2-.1,1.3-2,1.3.3-.2-.2-1.1.5-1.2l-4.7,1.1c1.2-.2.2-1-.8-1.3.5.2-4.1,0-5.3.1l2,.3c-5.3-.2-5.3,1.6-10.6,1.5.6-.2,1.6-1.4-1.1-1.6a32.79,32.79,0,0,1-10.2,3.2l-.9-.3-3.6.4A100.55,100.55,0,0,1,186,1.1c-2-.3-.6-.4-3.6-.4-1.1-.3,1.6-.5,2.5-.5l-7-.2c.3.7-5.3.7-5.1,1.2l7.6-.7c.3.7-4.4,1.9-9.3,1.8-1.3-.3.9-1.2.8-1.4a21.87,21.87,0,0,1-5.1.3l2.1-.4c-2.8-.2-4.5.9-7.8.2-1.1,0-3.4-.9-3.6-.5,1.9.8,2.2,3.1,1,3.7-.4-.1-6-.7-7.3-1.1-1.9-.6,2.8-1.4,1.2-2a4.42,4.42,0,0,1-1.5.5c-1.2-.2.5-.6-2.1-.5-.4.7-5.3-.1-1.2.6-2.5.2-2.7-.1-5.7-.1,1,.4-2.7,1.5-5.2,1.7.2-.2-.4-.4-.7-.5-5.2-.1-8-.4-12.9-.4-.5-.2-2.8-.4-1.8-.7a13.51,13.51,0,0,1-2.8.4c-2.9-.6,3.3-.1,1.1-.8-.2.4-3.9.6-6,.8.7.6,4.9.1,7.1-.1,0,.8-3.7,1.7-8.8,2.1-4,.2-1.8-.6-2.5-.4-7.6-.1-6.5,1.5-12.8.9-2.5-.5-.1-1.1-.7-1.5,3.3-.2,5,.3,7.3.3l-2.7-.2a22,22,0,0,1,4.4-.2c-2.1-.5-12.8-.1-18.7-.5-1,.2-2.8.4-2,.6L86,3c1.7.4-3.5.6-1.1.8a36.89,36.89,0,0,1-8.8.5l-.7-.6a9.2,9.2,0,0,0,3.3.2c-1.5.3-5.4-.8-7,0l2.5.4a51.19,51.19,0,0,1-8.7.8c1.4.6.7-.1,2.9.6-1.9-.9,7.9,0,4.9-.9,2.3.8,3.9.4,6.9,1-.1-.2-1-.4,1.5-.3.2-.1.4-.1.6-.2h.1A2.77,2.77,0,0,1,81.1,5c1.3-.5,5.4-.4,6.8-.7,1.5.1-.7.2.2.4l2.1-.4c.2.4,4.1.8.5,1H94a32.15,32.15,0,0,0,6.2.2c1.5.1,3.9-.5,2.5-.1l5.1-.3v.1c5.1.1,10.4-.7,16.2.1a44.2,44.2,0,0,1,6.3-.1l.6.4c2.2-.1,6.6.4,7.5,0,2.4,1,10.6.2,14.5.4l.2-.5c2.7,0,5.2-.1,8.5-.3l-.2-.4c2.8-.4,7.3.3,11.8.3a8.1,8.1,0,0,1-2.2,0c5.4,1,11.3-.7,16.2,0a14,14,0,0,1,2.9,0h.2l1.7.2a6.75,6.75,0,0,0-1.4-.2c.9,0,2.3-.1,3.7-.2l.6.5h.3c1.4.2,1.1-.2.4-.6l1.8-.3c1.1.8,3.6-.3,5.2.6.9-.4,7-.3,7.7-1.1,0,.1.5.2-.3.2a17,17,0,0,0,4.5,0l.7.6,3.4-.8c2.1.4,2.9.6.9,1.1,4.9-.7,4-.3,8.2-1l-.2.4c1.5,0,3.9-.6,4.8-.2,3.3.8,16.6.1,25.2.8-1.7-1.2,4,.5,4.3-.4.5.3,1.7.4.3.7,4.4-.3,6.6.4,9.6-.3.5.3-.9.4-.5.6a5.46,5.46,0,0,1,1.8-.1c.4.2-.6.2-1.3.4,4.5,0,4.9-.9,5.3-1.7a9.41,9.41,0,0,0,5-.2c.8.3,2.1.5-.7.6,1.6,0,9.6.4,9.7-.3a11.29,11.29,0,0,0,2.6,0l3.7.1h2.5l-.6-.1a3.31,3.31,0,0,1,1.5-.4,6.6,6.6,0,0,1-.1,1.4l-.1.8v1l-.1-.1c-.6,6.4.3,2.8-.4,9l.5-.3c1,.6-.6,5.6-.2,9.2l.3-1.3c.3,2-1.4,5.6-1.5,7.6-.1.4-.1-.7-.2-1.3-.6,5.2.6.7.8,4.6-.2.4-.4.1-.6.1s-.2.1-.2.3-.1.3-.1.5v.6a5.86,5.86,0,0,0,.2,1.3,5.73,5.73,0,0,1-1.4.4,22.86,22.86,0,0,1-3.7-.1c.8.3,1.6.5-.2.7-2.8.1-7.5-1-10-.2a.76.76,0,0,1-.5-.2c-2.1.2-6.9.4-8.2.8-2-1.7-13.2.8-13.2-.7l-6.5.1.2-.2a21.16,21.16,0,0,0-7.1.6c-1-.1-.3-.2-.2-.3a42.36,42.36,0,0,0-11.8.5l-.5-.5c-1.4.3-8.8-.8-14.8-.2a1.44,1.44,0,0,1,.7-.2c-6.7.6-16.1-1.4-18.6.4l-4.4.4c5.8.1-.9.8,1.5,1.1-2.3.1-5.8-.5-3.1-.6l.4.1c1-.9-7.2-.3-7-1-11.3,0-22.4-.5-33-.5l1.2.7h-3.7c-1-.2-1.3-.6,1.3-.5a9.8,9.8,0,0,0-4.5.5c-5.2-.3,2-.9.4-.9l-2.2.1.5.1a22.21,22.21,0,0,1-5.1.6c-2-.1-1-.4-1.8-.5a2.44,2.44,0,0,0-1.2,0l-4.7-.1,1.9.6c-2.1.3-4.4,0-2.2.6-3.2-1-17.4-.4-19.3-.7a57.91,57.91,0,0,1-9.3.4c.9.1,1.4.8-1.7.7,1.1-1.3-5.6-.6-8.1-1.6,2.2.6-8.7.2-5.2,1.1-2.5-.1-.2-.5-2.1-.8-6.1.5-13.4-.3-20.9-.2-.1.2,1.1.4-.5.7l-4-.9c-1.5.1-1.4,1-4.1.4.4.1,1,.4,0,.4-14.7-.9-30,.7-44.9-.9,2,.3.7.4-.9.4,1,.1,0,.4.2.7L10.5,38c-1.1.7-6.7,0-7.3.7l2-.1c-2.6.8,3.7,1.7,3.3,2.6,2.9-.9,7.8,1.3,12.6,0,1.1.2-.9.3-.3.5a12.3,12.3,0,0,1,5.4,0l-.3.1c7.7-.1,11,.3,19.7.6l-.6-.5a16.28,16.28,0,0,1,3.1.3c2.1-.7-5.2,0-3.3-.8,2.5,1,13.1,0,14.8,1.1,2.9,0-.8-.6,2-.5l.8.3.7-.4c1.9.1,2.8.4,2.9.7-.5,0-1.3.1-1.8.1,2.4.4,6.8-.1,7.7,0l-2.8-.2c7.8-.3,17.3.1,24.9-.5l-.6-.2c5.8-.4,4.6.2,10.9.1l-.2.1a35.94,35.94,0,0,1,4.7-.3c-1.6.3,3,.5.9.8,6.2-.4,3.1-.4,7.2-1.2l1,.4a14.81,14.81,0,0,1,4.7-.6c-2.6.3,2,.6-.9,1,6.6.8,9.8-.8,12.9.4,3-1-5.7-.6-4-.8-1.4-.3,2.5-.8,4.6-.7s3.6,1.3,8.9,1.3c-.5,0-.6.1-1.1.1,2,.3,3.9-.4,6.3.1,1.4-.6,3.2,0,3.6-.8l-4.9.2c2.8-.2,5.4-1.1,9.9-.7a23.85,23.85,0,0,1-2.6.5c1.3.2,2.6-.1,4,.1-.4.8-5.9.2-8.9.8,1.4.3,5.6-.6,4.1.3,2.1-1.1,5.2.1,8.8-.7l-.2.5a13.33,13.33,0,0,1,2.8-.3L164,43c2.9-.5,5.6.5,8.4.2-5.9,0-1.3-.6-3.8-.9,7.2-.6,4.2,1.2,12.2,1-1.1.1-4.1-.3-2.4-.5a34.42,34.42,0,0,1,4.5.5c5.4-.1-.8-.5,1.5-.8,1.8.6,2.6-.2,5-.4v.5c6.1.3,1.6-1,7.1-.6l-2.3.7,2.9-.2-.6.6a28.93,28.93,0,0,1,7.2-.1c-.7-.3.4-.9,3.1-.9,1.8.3-1,.5,2.8.4a4.7,4.7,0,0,1-3.5.2c-.2.2-.8.3-1,.5a45.61,45.61,0,0,0,6.4.1,7.56,7.56,0,0,1-1.5-.1l5.6-.7c.9.2.2.3-.5.5a28.67,28.67,0,0,1,3.6-.3c-.4.4-.3.8-2.7,1l5.3-.4c.3.2,2.7.5,2,.6,2.9.2,7.2-.8,11.1-.5a7.84,7.84,0,0,1,1.4-.2c3.7.1,6.9.6,11.2,0l2.5.7c3.4-.2-3.3-.9,2.3-1.1,4-.2,1.5.6,2.9.8a25.42,25.42,0,0,1,9.1-.5A17.89,17.89,0,0,0,260.1,42.7Zm43.5-1.3.1,1.1a12.11,12.11,0,0,1-3.8,0c1-.5,1.9-.4,3.6-.2Zm-29.7-39a7.58,7.58,0,0,1,2.6.1,22.69,22.69,0,0,1-2.6-.1ZM96.5,5.7h0c1.9.2,1.2.1,0,0Zm-3.8-.2c-.4.1-.3.1-.2.2a7.41,7.41,0,0,1,2.1-.1,4.09,4.09,0,0,0-1.9-.1ZM143,38.3l.7.1c-1.6.2-1.1,0-.7-.1Z"/><path class="cls-2" d="M281.1,1.7a.32.32,0,0,1,.3.3C281.8,1.9,281.8,1.8,281.1,1.7Z"/><path class="cls-2" d="M234.1,43H234c-.1,0-.1,0-.1.1Z"/><path class="cls-2" d="M151,1.4a7.73,7.73,0,0,1,1.5.2A8.28,8.28,0,0,0,151,1.4Z"/><path class="cls-2" d="M72.8,6.4l2.4-.1A8.21,8.21,0,0,1,73,6.1C73.1,6.2,73.5,6.4,72.8,6.4Z"/><path class="cls-2" d="M51.9,3.4c-.3.1-.8,0-1.1.1l.1.2C52.4,3.7,53.4,3.5,51.9,3.4Z"/><path class="cls-2" d="M70.6,4.8c-.2-.4-1.7-.3-3.4-.2h.3C67,5.1,68.8,4.9,70.6,4.8Z"/><path class="cls-2" d="M66.8,4.6H65.2C65,4.8,65.8,4.6,66.8,4.6Z"/><path class="cls-2" d="M88,5.8c-.8-.1-.5.5-1,.4C86.1,6.7,92.3,5.5,88,5.8Z"/><polygon class="cls-2" points="69.2 3.4 69.8 3.9 70.8 3.5 69.2 3.4"/><path class="cls-2" d="M82.5,3.8l-2.7-.1a1.85,1.85,0,0,1-.7.2C80.2,3.9,81.4,3.9,82.5,3.8Z"/><path class="cls-2" d="M79.1,3.8a16.93,16.93,0,0,0-2.2.1A17.71,17.71,0,0,0,79.1,3.8Z"/><polygon class="cls-2" points="72.9 3.3 73.7 3.4 75.6 3.4 72.9 3.3"/><path class="cls-2" d="M111.5,3.9l2.9-.1c.3-.2-.5-.3-1.6-.2C112.1,3.7,111,3.7,111.5,3.9Z"/><path class="cls-2" d="M102.6,2.5a2.84,2.84,0,0,1,1.3.4l.1-.6Z"/><path class="cls-2" d="M111.2,2.4c.3-.2,4.3-.5.5-.5C111.4,2.1,108.5,2.2,111.2,2.4Z"/><polygon class="cls-2" points="155.5 3.2 154.8 3.2 154.9 4.2 155.5 3.2"/><path class="cls-2" d="M194.6.7c-3.5-.2-.8.6-4,.3-.8.2,2.6.2,1.7.5C194.5,1.2,195.6,1.4,194.6.7Z"/><path class="cls-2" d="M192.4,1.5c-.3,0-.7.1-1.1.1A4.48,4.48,0,0,0,192.4,1.5Z"/><polygon class="cls-2" points="6.2 37.8 3.9 37.6 5.4 37.9 6.2 37.8"/><path class="cls-2" d="M1.8,38.6,1.3,38,0,38.6A2.78,2.78,0,0,1,1.8,38.6Z"/><path class="cls-2" d="M304.9,33.4l-.2-.2a4.13,4.13,0,0,0-.2,1.9Z"/><polygon class="cls-2" points="277.8 43.2 278.4 43.3 277.4 42.7 277.8 43.2"/><path class="cls-2" d="M252.3,44c1,0,2.3-.1,3.3-.1C253.4,44,252,43.3,252.3,44Z"/></g></g></svg>