<svg xmlns="http://www.w3.org/2000/svg" viewBox="0 0 307.03 43.35"><defs><style>.cls-1{fill:#ffcd32;}.cls-2{fill:#ffd248;}</style></defs><title>資產 1</title><g id="圖層_2" data-name="圖層 2"><g id="圖層_1-2" data-name="圖層 1"><rect class="cls-1" x="2.73" y="3.85" width="301.42" height="36.83"/><path class="cls-2" d="M306.57,39.89c0,1,.38.64.46.79C306.95,39,306.48,39.94,306.57,39.89Z"/><polygon class="cls-2" points="305.63 23.41 305.8 23.7 305.39 21.27 305.63 23.41"/><path class="cls-2" d="M305.64,8c-.71,1.46.11,5.59-.14,8.33l-.16.45.57,1.24C305.82,14.68,305.44,10.34,305.64,8Z"/><path class="cls-2" d="M300.07.82c.25.14-.19.2-.24.2h.37l3.08-.09-.59-.07Z"/><path class="cls-2" d="M302.69.84c2.93,0-1.83-.23,0,0Z"/><path class="cls-2" d="M294.14,1l2.14-.25c-.45-.16-2.35-.2-1.64-.32C292.44.56,292.89.73,294.14,1Z"/><path class="cls-2" d="M292.11,1.52l1.11-.1A1.72,1.72,0,0,0,292.11,1.52Z"/><path class="cls-2" d="M295.57,1.19l-2.35.22a.8.8,0,0,0,1.08-.08C294.1,1.54,294.57,1.34,295.57,1.19Z"/><path class="cls-2" d="M296.9,1.3c1.2.16,2.75.25.6.5C301.57,1.7,301,1.19,296.9,1.3Z"/><path class="cls-2" d="M304.9,7.1l-.21,1.7.24,1.39C304.82,9.51,305.13,7.11,304.9,7.1Z"/><path class="cls-2" d="M280.81.63c-.13.15.72.4.88.6l1.58-.17A8.37,8.37,0,0,1,280.81.63Z"/><path class="cls-2" d="M281.69,1.19l-2.36.26C281.44,1.52,281.83,1.39,281.69,1.19Z"/><polygon class="cls-2" points="291.73 2.31 295.61 1.76 290.98 2.32 291.73 2.31"/><polygon class="cls-2" points="271.79 0.61 273.13 0.25 270.74 0.79 271.79 0.61"/><path class="cls-2" d="M265.8.67c1-.29-1.36-.49-.31-.67a28.26,28.26,0,0,0-4.27.53A20,20,0,0,1,265.8.67Z"/><path class="cls-2" d="M259.12.85c.66-.07,1.35-.19,2.1-.33A15.73,15.73,0,0,0,259.12.85Z"/><path class="cls-2" d="M275.3,1.41A4,4,0,0,0,273.44,1l.93.43h.93Z"/><path class="cls-2" d="M274.4,1.42Z"/><path class="cls-2" d="M275.57,1.41h-.23A.21.21,0,0,0,275.57,1.41Z"/><path class="cls-2" d="M285.57,1.92c-1.39.24-4.28.5-1.48.86C285,2.49,283.44,2.28,285.57,1.92Z"/><path class="cls-2" d="M276.69,1.95l2.51.1c0-.11-.5-.28.19-.4Z"/><polygon class="cls-2" points="275.46 2.08 276.69 1.95 275.76 1.91 275.46 2.08"/><path class="cls-2" d="M263.42,1.25a25.29,25.29,0,0,1-3.61.23c1.44.08,2.92.13,4.33.13C264.34,1.48,265,1.19,263.42,1.25Z"/><path class="cls-2" d="M268.76,1.37h-.24C268.67,1.43,268.78,1.44,268.76,1.37Z"/><path class="cls-2" d="M246.57,1.48l.21.08V1.49h-.21Z"/><path class="cls-2" d="M264.38,1.69a7.39,7.39,0,0,0,2.34-.15c-.81,0-1.66.07-2.58.07C264,1.67,264,1.71,264.38,1.69Z"/><path class="cls-2" d="M255.44,1.05c.56.09,1.2.17,1.87.23A5.8,5.8,0,0,0,255.44,1.05Z"/><path class="cls-2" d="M268.15,1.27h.16C268,1.19,268,1.19,268.15,1.27Z"/><path class="cls-2" d="M268.15,1.27a13.33,13.33,0,0,0-1.43.26,15.2,15.2,0,0,0,1.79-.14A2.15,2.15,0,0,1,268.15,1.27Z"/><path class="cls-2" d="M242.62,4.19c.19-.4,3-.76,5.48-.34,2.41-.3.83-1.6-1.27-2.33-.07.17-.07.33-2.56.57.87.22,5.51.51,3.41.86-3.29.2-2.69-.14-4.29-.35,1.36.49-4.18.72-3.47,1.44l2.88-.26C242.87,3.94,241.82,4.12,242.62,4.19Z"/><path class="cls-2" d="M251.57,1.6h1A23.11,23.11,0,0,1,249,1.06c-1.7.19-2.05.34-2.17.47l5,.06Z"/><path class="cls-2" d="M257.16,1.55c-.8.43-3.25.61-1.75,1.08,3,0,2.1-.36,3.89-.55-4.83.11,1.39-.24-2.1-.48,1-.07,1.8-.1,2.61-.11-.87-.05-1.71-.12-2.5-.2h.11c.21.05.28.09,0,.06h-.1a.54.54,0,0,1-.22.16c-1.4-.09-.22-.11.22-.16l.06-.06h0l-4.84.24C253.57,1.61,254.89,1.6,257.16,1.55Z"/><path class="cls-2" d="M281.47,3.71c-.15,0-.14-.07-.16-.1C281,3.66,280.88,3.7,281.47,3.71Z"/><path class="cls-2" d="M279.47,3.45a5.22,5.22,0,0,1,1.79-.19c1,.13,0,.21,0,.35.69-.11,2.41-.31.25-.52l-.34.06a15.26,15.26,0,0,1-4.11-.74A7.21,7.21,0,0,0,279.47,3.45Z"/><path class="cls-2" d="M268.18,2.61l-4,.21,2.05.37-.1-.22C268.39,3.05,267.89,2.78,268.18,2.61Z"/><polygon class="cls-2" points="246.16 1.26 246.69 0.81 244.36 1.45 246.16 1.26"/><polygon class="cls-2" points="240.92 1.32 241.11 0.92 239.73 1.16 240.92 1.32"/><path class="cls-2" d="M23.46,38.31l1.19-.11A6,6,0,0,0,23.46,38.31Z"/><path class="cls-2" d="M14.88,38.28l-.21.19C15.07,38.37,15.23,38.29,14.88,38.28Z"/><path class="cls-2" d="M112.2,1.36c-1.73-.37-3.65-.94-3.45-.5l.53.43A15.58,15.58,0,0,1,112.2,1.36Z"/><path class="cls-2" d="M24,3.95l.5.13,1.17-.42Z"/><path class="cls-2" d="M22.83,5.75l-2.28-.28C21.07,5.57,21.8,5.66,22.83,5.75Z"/><path class="cls-2" d="M70.32,37.85l1.38-.44C69.57,37.41,70.49,37.63,70.32,37.85Z"/><path class="cls-2" d="M187.24,1.48c-1.49-.17-2.67-.24-3.72-.26C185.32,1.47,186.77,1.84,187.24,1.48Z"/><path class="cls-2" d="M20.09,42.91a1.38,1.38,0,0,0,1-.26C20.35,42.72,19.93,42.81,20.09,42.91Z"/><path class="cls-2" d="M179.22,1.19l.79.1c1.09-.07,2.18-.13,3.51-.1A12.76,12.76,0,0,0,179.22,1.19Z"/><path class="cls-2" d="M240.25,38.19l.38.05C240.67,38.19,240.5,38.19,240.25,38.19Z"/><path class="cls-2" d="M289.76,42.59h-2A16.37,16.37,0,0,0,289.76,42.59Z"/><path class="cls-2" d="M219.83,1.13Z"/><path class="cls-2" d="M225.24,2.85a.58.58,0,0,0-.44.21A.79.79,0,0,1,225.24,2.85Z"/><path class="cls-2" d="M168.15,3.92H168C168.38,4,168.33,4,168.15,3.92Z"/><path class="cls-2" d="M221.5,1.33c-.42-.05-.9-.1-1.42-.13C220.31,1.19,220.74,1.27,221.5,1.33Z"/><path class="cls-2" d="M221.28,1.12h1C222.39,1.09,222.26,1.05,221.28,1.12Z"/><path class="cls-2" d="M218.28,1.19h1.8c-.22,0-.31-.05-.25-.07Z"/><path class="cls-2" d="M149.2,39.37h.24C150.57,39.19,150.07,39.26,149.2,39.37Z"/><path class="cls-2" d="M83.27,5.87h0Z"/><path class="cls-2" d="M79.28,6.19a8.61,8.61,0,0,1,4-.36L82,4.58Z"/><path class="cls-2" d="M44,38.19l-2.8-.39c3.38-.64,5.83-.42,3.2-1-.4,1.36-10.9.14-11.29,1.5L31.27,38c.53,0,.61-.07,1.14-.05-3.59-.65-2.67,1-7.3.79-1.61-.1-2.74-.3-1.64-.46l-3.6.34c-1,0-.79-.26.25-.24l-5.49.11h0c-.78.21-2.56.54-3.42.68-1.39-.19.7-.14.34-.31l-3,.33c-1.24-.35,1.28-.69,3.38-.64a4.29,4.29,0,0,0-3.09-.44,15.65,15.65,0,0,1-2,.2H6.12a1.7,1.7,0,0,1-.59-.19l1-.17a3,3,0,0,0-.35-.61.83.83,0,0,1,.36-.51,1.62,1.62,0,0,0-.42.28,5.44,5.44,0,0,0-.59.88.62.62,0,0,1-.42.42A.25.25,0,0,1,5,38.23a3,3,0,0,0,.08-.74,2.53,2.53,0,0,0,0-.42V37a1.07,1.07,0,0,1,0-.21l-.09-.64c.48,0,.36-1.75.34-3.93l.64.15c-.18-2.35-.51-2.16-.8-3.55.06-2.62.56-3.16,1-3.78.1-4.19-.79,2.9-.92-2.07a56.79,56.79,0,0,0-.4-10.11c.22-2.44.39.43.57-.45L4.85,10.2c0-.53.17-.36.25-.27a1.32,1.32,0,0,0-.42-1.12,1,1,0,0,1-.22-.48,4.71,4.71,0,0,1-.1-.55,5.48,5.48,0,0,0-.08-.57c-.31-.27-.15-1.14.06-1.85.74.13,1.44.29,2,.35H7.57a9.16,9.16,0,0,0,1.57-.2c.87.18-.42.39-.15.64a76.29,76.29,0,0,0,8.17-1.09l3.4.42C18.06,5,21.25,4.48,24,4c-.89-.23-1.65-.44-2.15-.53l4.47-.34c.54.1.09.32-.64.59l.82-.15c1.6.24.77.61-.38,1l-1.61-.39c-1.1.39-2.14.82-1.91,1.19a9.32,9.32,0,0,1,1.46-.17c-.29.11-.47.2-.34.26a4.41,4.41,0,0,0,1.35-.24l1,.71.25-.28,5.84.45C36.39,5.34,40,4.29,46.66,4c-1.65.52-.35.85-.44,1.47-1.81-.66-5.14.28-8.58.15,1.79.07,1.4.36.94.47l6.13-.6c-.14.51,1.3.38,2.91.59-1.21-1,4.57-.67,7.07-1,.16.34-.44.68-3.49.6,3.36.75,4.34-1.18,7.64-.54a3.31,3.31,0,0,0-1.44.13c1.74-.3,6-.06,5,.23h-.73c4.94.12,15,0,15.76-.84a3.3,3.3,0,0,1-1,1.2L85.29,3c-.78.73,2.2,2.47-1.89,2.88a23.77,23.77,0,0,0,5.11,0c-.8-.1-2-1.06-.9-1.12A45.86,45.86,0,0,0,93.4,5.88c-1.2-.16.13-1.3,2-1.27-.3.17.16,1.13-.54,1.25l4.73-1.12c-1.18.2-.21,1,.85,1.27-.49-.22,4.09,0,5.35-.09l-2-.26c5.34.17,5.27-1.58,10.57-1.52-.64.23-1.58,1.43,1.11,1.57A30.88,30.88,0,0,1,125.62,2.5l.9.33,3.59-.37a107.4,107.4,0,0,1-12,3.4c2,.26.56.39,3.55.36,1.06.31-1.63.47-2.51.49l7,.2c-.31-.67,5.33-.67,5.06-1.23l-7.56.7c-.31-.67,4.37-1.91,9.31-1.79,1.26.27-.94,1.2-.84,1.42a23,23,0,0,1,5.14-.28l-2.09.36c2.75.25,4.48-.89,7.78-.25,1.14,0,3.4.87,3.6.47-1.86-.77-2.22-3.14-1-3.72.4.05,6,.73,7.28,1.11,1.88.6-2.82,1.43-1.22,2a4,4,0,0,1,1.54-.48c1.2.16-.5.57,2.1.49.43-.68,5.29.06,1.23-.58,2.54-.19,2.7.14,5.69.11-1-.44,2.68-1.5,5.23-1.69-.15.17.42.4.7.5,5.21.06,8,.37,12.87.38.45.17,2.79.36,1.79.66a12.78,12.78,0,0,1,2.84-.37c2.9.59-3.34.09-1.13.8.19-.4,3.88-.55,6-.79-.66-.61-4.93-.12-7.07.13,0-.84,3.71-1.73,8.79-2.12,4-.21,1.75.55,2.45.43,7.58.15,6.46-1.47,12.76-.86,2.5.54.11,1.07.67,1.46-3.29.2-5.05-.34-7.28-.32l2.74.25a19.43,19.43,0,0,1-4.44.16c2.09.48,12.81.09,18.67.54,1-.18,2.83-.37,2-.58L218,3.9c-1.7-.43,3.48-.6,1.14-.8a41.9,41.9,0,0,1,8.76-.54l.66.61A8.34,8.34,0,0,0,225.25,3c1.46-.27,5.36.83,7,0l-2.45-.42a45.74,45.74,0,0,1,8.68-.77c-1.41-.61-.71.07-2.92-.64,1.91.88-7.93,0-4.86.89-2.26-.82-3.91-.35-6.86-1,.09.2,1,.39-1.55.29a3.73,3.73,0,0,1-.57.18h0a5,5,0,0,1,1.33.31c-1.29.46-5.43.45-6.83.69-1.54-.1.65-.23-.2-.45l-2.09.36c-.21-.45-4.1-.75-.46-1h-3.27A29.77,29.77,0,0,0,204,1.27c-1.54-.1-3.9.5-2.55.15l-5.13.28V1.59c-5.06-.06-10.43.74-16.22-.07a49.73,49.73,0,0,1-6.32.12l-.56-.39c-2.19.14-6.57-.39-7.52,0-2.36-1-10.62-.23-14.47-.41l-.15.51c-2.65,0-5.19.12-8.48.32l.2.45c-2.84.37-7.29-.32-11.78-.27a5.91,5.91,0,0,1,2.25,0c-5.36-1-11.31.74-16.17,0a10.37,10.37,0,0,1-2.94,0H114l-1.68-.24a13.12,13.12,0,0,0,1.42.24c-.93,0-2.35.06-3.74.18l-.59-.48H109c-1.36-.18-1.1.23-.37.59a16.79,16.79,0,0,0-1.84.29c-1.11-.78-3.64.26-5.15-.57-.94.4-7,.3-7.72,1.15,0-.11-.46-.16.29-.17a19.86,19.86,0,0,0-4.48,0L89,2.23,85.66,3c-2-.37-2.91-.59-.87-1.06-4.92.72-4,.27-8.18,1l.2-.4c-1.5,0-3.89.55-4.79.22-3.35-.75-16.57-.1-25.16-.8,1.67,1.17-4-.52-4.34.38-.5-.28-1.7-.43-.31-.67-4.39.27-6.59-.44-9.62.32-.5-.28.94-.4.49-.57a5,5,0,0,1-1.85.08c-.45-.16.64-.23,1.34-.35-4.48,0-4.93.9-5.26,1.69a9.29,9.29,0,0,0-5,.2c-.79-.26-2.11-.53.68-.63-1.57,0-9.57-.38-9.73.26a9.58,9.58,0,0,0-2.6,0L7,2.67H2.26l1.35.1a3.35,3.35,0,0,1-1.66.4c0,.65,0,1.3-.07,2.1L1.82,6.59V8.1L1.74,8c-.56,6.38.27,2.75-.37,9l.48-.34c1,.59-.61,5.58-.21,9.23l.27-1.32c.35,2-1.4,5.58-1.53,7.58-.09.44-.14-.69-.21-1.3-.61,5.25.63.68.77,4.59-.17.36-.38.13-.57.14s-.17.07-.24.29a2.9,2.9,0,0,0-.08.48v.82a48.92,48.92,0,0,0,.24,6c2.13-.14,4.42-.28,6.43-.35A16.9,16.9,0,0,1,10.4,43c-.79-.26-1.58-.52.24-.72,2.78-.09,7.52,1,10,.16a.68.68,0,0,1,.5.2c2.13-.21,6.91-.35,8.19-.8,2,1.66,13.23-.81,13.18.72L49,42.46l-.17.16A22.5,22.5,0,0,0,56,42c1,.1.26.25.18.33A42.21,42.21,0,0,0,68,41.8l.53.5c1.39-.29,8.84.78,14.83.2a1.12,1.12,0,0,1-.66.22c6.74-.58,16.14,1.38,18.62-.43l4.45-.44c-5.76-.14.86-.78-1.51-1.08,2.26-.11,5.85.54,3.07.64l-.44-.09c-1,.94,7.15.33,7,1,11.33,0,22.37.47,33,.51l-1.22-.73h3.7c1,.17,1.3.57-1.34.54a9.3,9.3,0,0,0,4.5-.51c5.17.3-2,.85-.43.87l2.15-.05-.49-.09a17,17,0,0,1,5.07-.58c2,.15,1,.45,1.82.48a2.64,2.64,0,0,0,1.21,0l4.66.06-1.86-.58c2.07-.28,4.39,0,2.23-.62,3.16,1,17.4.36,19.34.68a58,58,0,0,1,9.29-.36c-.88-.12-1.41-.77,1.65-.69-1.12,1.34,5.59.58,8.06,1.55-2.21-.64,8.68-.16,5.22-1.07,2.55.11.15.5,2.09.82,6.06-.52,13.36.34,20.86.16.12-.18-1.14-.44.47-.71l4,.88c1.48-.09,1.36-1,4.07-.4-.38-.15-1-.37,0-.43,14.68.86,30-.7,44.92.91-2-.34-.67-.37.87-.39-1-.08,0-.43-.17-.67l6.24.66c1.14-.66,6.69,0,7.35-.68l-2,.11c2.63-.75-3.68-1.66-3.29-2.62-2.94.85-7.76-1.26-12.59,0-1.07-.2.91-.31.34-.53a14.09,14.09,0,0,1-5.44.31l.31-.1c-7.7.1-11-.3-19.65-.57l.64.47a19.51,19.51,0,0,1-3.12-.33c-2.13.72,5.22,0,3.28.83-2.47-1-13.1,0-14.77-1.11-2.86,0,.84.55-2,.54l-.76-.3-.72.38c-1.87-.06-2.82-.43-2.89-.68.45,0,1.29-.07,1.78-.09-2.43-.35-6.85.12-7.69,0l2.75.18c-7.8.28-17.33-.11-24.87.49l.57.22c-5.76.41-4.61-.25-10.93-.05l.23-.05a26.32,26.32,0,0,1-4.68.31c1.6-.26-3-.51-.91-.8-6.24.44-3.09.35-7.21,1.18l-1-.37a15,15,0,0,1-4.68.61c2.59-.32-2-.56.89-1-6.62-.81-9.83.82-12.87-.37-3,1,5.73.57,4,.79,1.43.34-2.51.77-4.59.66s-3.6-1.31-8.92-1.29c.53,0,.57-.07,1.09-.07-2-.26-3.9.35-6.35-.07-1.37.62-3.17,0-3.57.76l4.88-.18c-2.77.21-5.36,1.13-9.92.68a16.11,16.11,0,0,1,2.64-.49c-1.33-.23-2.57.15-3.95-.08.39-.79,5.93-.17,8.9-.78-1.43-.33-5.61.57-4.12-.28-2.14,1.09-5.24-.14-8.85.7l.24-.47a19.28,19.28,0,0,1-2.8.29l1.9-.62c-2.92.52-5.63-.46-8.42-.17,5.86,0,1.32.57,3.79.92-7.23.64-4.16-1.24-12.25-1,1.1-.07,4.11.29,2.4.5a31.21,31.21,0,0,1-4.52-.53c-5.36.1.82.49-1.46.78-1.83-.58-2.63.24-5,.42v-.48c-6.11-.31-1.62,1-7.12.63l2.32-.67-2.87.17.59-.55a30.54,30.54,0,0,1-7.15.15c.71.34-.4.88-3.11.89-1.85-.29,1-.46-2.8-.39a5.11,5.11,0,0,1,3.48-.24c.17-.16.85-.3,1-.46A41.38,41.38,0,0,0,93,38a11.34,11.34,0,0,1,1.5.11l-5.56.67c-.88-.18-.18-.33.51-.47-1.13.05-1.91.27-3.56.32.43-.39.33-.8,2.67-1l-5.3.44c-.35-.17-2.72-.47-2-.61-2.94-.23-7.21.76-11.1.46a5.85,5.85,0,0,1-1.44.21c-3.66-.09-6.9-.57-11.24,0L55,37.42c-3.4.16,3.33.89-2.32,1.15-4,.22-1.49-.6-2.9-.8a27.1,27.1,0,0,1-9.13.5A28,28,0,0,1,44,38.19Zm-39.08,0,.09.18a1,1,0,0,1,1,0,.93.93,0,0,1-1.17.21ZM30.23,4.85a6.85,6.85,0,0,1-2.59-.1,14.41,14.41,0,0,1,2.58.13ZM207.66,1.49h-.09c-1.82-.13-1.18-.06.08,0Zm3.76.21c.38-.07.35-.13.19-.2a7.15,7.15,0,0,1-2.07.1,3.77,3.77,0,0,0,1.87.13ZM161.09,42.59l-.73-.13c1.63-.11,1.21,0,.71.16Z"/><path class="cls-2" d="M23,5.54a.55.55,0,0,1-.35-.26C22.33,5.36,22.32,5.45,23,5.54Z"/><path class="cls-2" d="M70.06,37.93h.13a.28.28,0,0,0,.13-.09Z"/><path class="cls-2" d="M153.15,5.82a7.12,7.12,0,0,1-1.49-.25C151.57,5.69,152,5.79,153.15,5.82Z"/><path class="cls-2" d="M231.33.91,228.92,1a10.68,10.68,0,0,1,2.17.16C231,1.08,230.57.92,231.33.91Z"/><path class="cls-2" d="M252.24,3.9c.35-.06.75,0,1.09-.07l-.1-.22C251.74,3.62,250.69,3.8,252.24,3.9Z"/><path class="cls-2" d="M233.57,2.51c.19.41,1.7.27,3.39.19h-.3C237.15,2.14,235.35,2.33,233.57,2.51Z"/><path class="cls-2" d="M237.34,2.69h1.56C239.1,2.46,238.27,2.64,237.34,2.69Z"/><path class="cls-2" d="M216.18,1.46c.8.1.5-.52,1-.35C218,.59,211.8,1.73,216.18,1.46Z"/><polygon class="cls-2" points="234.93 3.85 234.33 3.35 233.38 3.75 234.93 3.85"/><path class="cls-2" d="M221.57,3.48l2.7.14a1,1,0,0,1,.72-.17A18.48,18.48,0,0,0,221.57,3.48Z"/><path class="cls-2" d="M225,3.45a14.54,14.54,0,0,0,2.17-.08C226.73,3.37,225.72,3.39,225,3.45Z"/><polygon class="cls-2" points="231.24 4 230.45 3.9 228.54 3.86 231.24 4"/><path class="cls-2" d="M192.62,3.39l-2.94.14c-.3.17.5.28,1.6.21C192,3.62,193.08,3.55,192.62,3.39Z"/><path class="cls-2" d="M201.57,4.76a3.81,3.81,0,0,1-1.3-.38l-.09.62Z"/><path class="cls-2" d="M192.94,4.9c-.29.17-4.27.49-.54.46C192.7,5.19,195.65,5.05,192.94,4.9Z"/><polygon class="cls-2" points="148.6 4.12 149.35 4.11 149.24 3.09 148.6 4.12"/><path class="cls-2" d="M109.57,6.56c3.49.24.83-.63,4-.32.82-.24-2.58-.25-1.74-.46C109.66,6,108.57,5.89,109.57,6.56Z"/><path class="cls-2" d="M111.77,5.77a7.25,7.25,0,0,0,1.07-.15A8.73,8.73,0,0,0,111.77,5.77Z"/><polygon class="cls-2" points="297.97 43.13 300.21 43.35 298.77 43 297.97 43.13"/><path class="cls-2" d="M302.28,42.38l.53.65,1.35-.59A6.57,6.57,0,0,1,302.28,42.38Z"/><path class="cls-2" d="M6.23,33.83l-.16-.17a5.38,5.38,0,0,0-.21,1.92Z"/><polygon class="cls-2" points="26.29 37.67 25.76 37.66 26.74 38.25 26.29 37.67"/><path class="cls-2" d="M51.81,36.93c-1,0-2.27.11-3.31.08C50.77,36.9,52.09,37.66,51.81,36.93Z"/></g></g></svg>