<svg xmlns="http://www.w3.org/2000/svg" viewBox="0 0 305.17 43.81"><defs><style>.cls-1{fill:#ffcd32;}.cls-2{fill:#ffd248;}</style></defs><title>資產 1</title><g id="圖層_2" data-name="圖層 2"><g id="圖層_1-2" data-name="圖層 1"><rect class="cls-1" x="0.01" y="3.09" width="301.42" height="36.83"/><path class="cls-2" d="M2.44,39.13c0,1,.38.64.46.79C2.81,38.25,2.33,39.17,2.44,39.13Z"/><polygon class="cls-2" points="1.49 22.64 1.66 22.93 1.24 20.5 1.49 22.64"/><path class="cls-2" d="M1.5,7.23c-.71,1.46.12,5.59-.14,8.33L1.2,16l.57,1.24C1.68,13.91,1.3,9.58,1.5,7.23Z"/><path class="cls-2" d="M4.09,6.13c-.25-.14.19-.2.24-.2h-.6L3.47,6,3.58,6H4.1Z"/><path class="cls-2" d="M3.57,6.11c-.32,0,.3.23,0,0Z"/><path class="cls-2" d="M10,5.95,7.88,6.2c.45.16,2.35.2,1.64.32C11.72,6.36,11.22,6.22,10,5.95Z"/><path class="cls-2" d="M12.05,5.43l-1.11.1A1.72,1.72,0,0,0,12.05,5.43Z"/><path class="cls-2" d="M8.59,5.76l2.35-.22a.8.8,0,0,0-1.08.08C10.05,5.36,9.59,5.61,8.59,5.76Z"/><path class="cls-2" d="M7.22,5.65c-1.2-.16-2.75-.25-.6-.5C2.57,5.25,3.17,5.75,7.22,5.65Z"/><path class="cls-2" d="M.76,6.54s0,.27-.1.7L.56,8,.8,9.43C.67,8.73,1,6.36.76,6.54Z"/><path class="cls-2" d="M23.35,6.36c.13-.15-.72-.4-.88-.6l-1.58.17A8.37,8.37,0,0,1,23.35,6.36Z"/><path class="cls-2" d="M22.47,5.72l2.36-.26C22.72,5.43,22.33,5.55,22.47,5.72Z"/><polygon class="cls-2" points="12.43 4.64 8.55 5.18 13.18 4.63 12.43 4.64"/><polygon class="cls-2" points="32.37 6.34 31.03 6.69 33.42 6.16 32.37 6.34"/><path class="cls-2" d="M38.36,6.28c-1,.29,1.36.49.31.67a28.23,28.23,0,0,0,4.27-.53A20,20,0,0,1,38.36,6.28Z"/><path class="cls-2" d="M45,6.09c-.66.07-1.35.19-2.1.33A15.72,15.72,0,0,0,45,6.09Z"/><path class="cls-2" d="M28.86,5.54A4,4,0,0,0,30.72,6l-.93-.43Z"/><path class="cls-2" d="M29.75,5.53Z"/><path class="cls-2" d="M28.62,5.53h.23A.21.21,0,0,0,28.62,5.53Z"/><path class="cls-2" d="M18.63,5c1.39-.24,4.28-.5,1.48-.86C19.11,4.46,20.72,4.66,18.63,5Z"/><path class="cls-2" d="M27.47,5,25,4.9c0,.11.5.28-.19.4Z"/><polygon class="cls-2" points="28.7 4.86 27.47 5 28.4 5.04 28.7 4.86"/><path class="cls-2" d="M40.74,5.69a25.32,25.32,0,0,1,3.61-.23c-1.44-.08-2.92-.13-4.33-.13C39.82,5.47,39.22,5.71,40.74,5.69Z"/><path class="cls-2" d="M35.4,5.58h.24C35.49,5.52,35.37,5.5,35.4,5.58Z"/><path class="cls-2" d="M57.54,5.47l-.21-.08v.07h.21Z"/><path class="cls-2" d="M39.78,5.26a7.39,7.39,0,0,0-2.34.15c.81,0,1.66-.07,2.58-.07C40.11,5.27,40.12,5.23,39.78,5.26Z"/><path class="cls-2" d="M48.72,5.89c-.56-.09-1.2-.17-1.87-.23A5.79,5.79,0,0,0,48.72,5.89Z"/><path class="cls-2" d="M36,5.67h-.16C36.22,5.78,36.15,5.74,36,5.67Z"/><path class="cls-2" d="M36,5.67a13.34,13.34,0,0,0,1.43-.26,15.2,15.2,0,0,0-1.79.14A2.15,2.15,0,0,1,36,5.67Z"/><path class="cls-2" d="M61.54,2.72c-.19.4-3,.76-5.48.34-2.41.3-.83,1.6,1.27,2.33.07-.17.07-.33,2.56-.57C59,4.6,54.38,4.31,56.48,4c3.29-.2,2.69.14,4.29.35-1.36-.49,4.18-.72,3.47-1.44l-2.88.26C61.29,3,62.34,2.83,61.54,2.72Z"/><path class="cls-2" d="M52.6,5.36h-1a23.11,23.11,0,0,1,3.53.54c1.7-.19,2-.34,2.17-.47l-5-.06Z"/><path class="cls-2" d="M47,5.36c.8-.43,3.25-.61,1.75-1.08-3,0-2.1.36-3.89.55,4.83-.11-1.39.24,2.1.48-1,.07-1.8.1-2.61.11.87.05,1.71.12,2.5.2h-.11c-.21-.05-.28-.09,0-.06h.1a.54.54,0,0,1,.22-.16c1.4.09.22.11-.22.16l-.06.06h0l4.84-.24C50.56,5.36,49.27,5.36,47,5.36Z"/><path class="cls-2" d="M22.69,3.24c.15,0,.14.07.15.1C23.16,3.28,23.28,3.25,22.69,3.24Z"/><path class="cls-2" d="M24.69,3.5a5.22,5.22,0,0,1-1.79.19c-1-.13,0-.21,0-.35-.69.11-2.41.31-.25.52L23,3.8a15.26,15.26,0,0,1,4.11.74A7.21,7.21,0,0,0,24.69,3.5Z"/><path class="cls-2" d="M36,4.36l4-.21-2-.37L38,4C35.77,3.89,36.22,4.17,36,4.36Z"/><polygon class="cls-2" points="58 5.68 57.47 6.14 59.8 5.49 58 5.68"/><polygon class="cls-2" points="63.24 5.63 63.05 6.02 64.43 5.78 63.24 5.63"/><path class="cls-2" d="M280.7,42.3l-1.19.11C280.07,42.36,280.43,42.36,280.7,42.3Z"/><path class="cls-2" d="M289.27,42.36l.21-.2C289.09,42.24,288.93,42.36,289.27,42.36Z"/><path class="cls-2" d="M192,5.58c1.73.37,3.65.94,3.45.5l-.53-.43A15.6,15.6,0,0,1,192,5.58Z"/><path class="cls-2" d="M280.11,3l-.5-.13-1.17.42Z"/><path class="cls-2" d="M281.33,1.2l2.28.28A16.78,16.78,0,0,0,281.33,1.2Z"/><path class="cls-2" d="M233.84,42.76l-1.38.44C234.62,43.2,233.67,43,233.84,42.76Z"/><path class="cls-2" d="M116.92,5.47c1.49.17,2.67.24,3.72.26C118.84,5.48,117.39,5.11,116.92,5.47Z"/><path class="cls-2" d="M284.07,37.69a1.37,1.37,0,0,0-1,.26C283.8,37.88,284.22,37.8,284.07,37.69Z"/><path class="cls-2" d="M124.94,5.73l-.79-.1c-1.09.07-2.18.13-3.51.1A12.76,12.76,0,0,0,124.94,5.73Z"/><path class="cls-2" d="M63.91,42.36l-.38-.05C63.49,42.36,63.66,42.36,63.91,42.36Z"/><path class="cls-2" d="M14.4,38h2A16.37,16.37,0,0,0,14.4,38Z"/><path class="cls-2" d="M84.33,5.82Z"/><path class="cls-2" d="M78.92,4.1a.58.58,0,0,0,.44-.21A.79.79,0,0,1,78.92,4.1Z"/><path class="cls-2" d="M136,3h.1C135.77,2.94,135.83,3,136,3Z"/><path class="cls-2" d="M82.66,5.62c.42.05.9.1,1.42.13C83.85,5.71,83.42,5.67,82.66,5.62Z"/><path class="cls-2" d="M82.88,5.82h-1C81.77,5.85,81.89,5.9,82.88,5.82Z"/><path class="cls-2" d="M85.88,5.79h-1.8c.22,0,.31.05.25.07Z"/><path class="cls-2" d="M155,41.24h-.24C153.6,41.36,154.09,41.36,155,41.24Z"/><path class="cls-2" d="M220.89,1.08h0Z"/><path class="cls-2" d="M224.88.75a8.61,8.61,0,0,1-4,.36l1.34,1.25Z"/><path class="cls-2" d="M260.15,42.42l2.8.39c-3.38.64-5.83.42-3.2,1,.4-1.36,10.9-.14,11.29-1.5l1.85.29c-.53,0-.61.07-1.14.05,3.59.65,2.67-1,7.3-.79,1.61.1,2.74.3,1.64.46l3.6-.34c1,0,.79.26-.25.24l5.49-.11h0c.78-.21,2.56-.54,3.42-.68,1.39.19-.7.14-.34.31l3-.33c1.24.35-1.28.69-3.38.64a4.29,4.29,0,0,0,3.09.44,15.7,15.7,0,0,1,2-.2h2.33c1,0,2.07.09,3.43.19l-4.78.17a35.51,35.51,0,0,0,6.51.61c.08-2,.14-4.44.36-7.29-.08.41-.23,1.94-.42,3.33a21.35,21.35,0,0,1-.59,3.3c-.78-.16-1-.31-.42-.42,0-.27-.08-.69-.12-1.22s.09-1.52.08-2.55c0-.51,0-1.07-.05-1.68v-.86l-.09-.64c.48,0,.36-1.75.34-3.93l.64.15c-.18-2.35-.51-2.16-.8-3.55.06-2.62.56-3.16,1-3.78.1-4.19-.79,2.9-.91-2.07a56.79,56.79,0,0,0-.4-10.11c.22-2.44.39.43.57-.45l-.51-2.16c0-.53.17-.36.25-.27a1.32,1.32,0,0,0-.42-1.12,1,1,0,0,1-.23-.48,4.66,4.66,0,0,1-.1-.55c0-.29-.05-.71-.08-1.18-.31-.41-.15-1.88.06-4.19-1.19-.13-2.7-.29-4.34-.35h-2a9.16,9.16,0,0,0-1.57.2c-.87-.18.42-.39.16-.64a76.29,76.29,0,0,0-8.17,1.09l-3.4-.42c2.5.48-.69,1-3.49,1.52.89.23,1.65.44,2.15.53l-4.47.34c-.54-.1-.09-.32.64-.59l-.82.15c-1.6-.24-.77-.61.38-1l1.61.39c1.1-.39,2.14-.82,1.91-1.19a9.32,9.32,0,0,1-1.46.17c.29-.11.47-.2.34-.26a4.41,4.41,0,0,0-1.35.24l-1-.71-.25.28L272,.84c-4.18.72-7.82,1.77-14.45,2.07,1.65-.52.35-.85.44-1.47,1.81.66,5.14-.28,8.58-.15-1.79-.07-1.4-.36-.94-.47l-6.13.6c.14-.51-1.3-.38-2.91-.59,1.21,1-4.57.67-7.07,1-.15-.34.44-.68,3.49-.6-3.36-.75-4.34,1.18-7.64.54a3.31,3.31,0,0,0,1.44-.13c-1.74.3-6,.06-5-.23h.74c-4.94-.12-15,0-15.76.84a3.3,3.3,0,0,1,.95-1.2L219,3.91c.78-.73-2.2-2.47,1.89-2.88a23.77,23.77,0,0,0-5.11,0c.8.1,2,1.06.9,1.12A45.86,45.86,0,0,0,210.85,1c1.2.16-.13,1.3-2,1.27.3-.17-.16-1.13.54-1.25l-4.73,1.12c1.18-.2.21-1-.85-1.27.49.22-4.09,0-5.35.09l2,.26c-5.34-.17-5.27,1.58-10.57,1.52.64-.23,1.58-1.43-1.11-1.57A30.88,30.88,0,0,1,178.63,4.4l-.9-.33-3.59.38a107.34,107.34,0,0,1,11.95-3.4c-2-.26-.56-.39-3.55-.36-1.06-.31,1.63-.47,2.51-.49l-7-.2c.31.67-5.33.67-5.06,1.23l7.56-.7c.31.67-4.37,1.91-9.31,1.79-1.26-.27.94-1.2.84-1.42a23,23,0,0,1-5.14.28L169,.82c-2.75-.25-4.48.89-7.78.25-1.14,0-3.4-.87-3.6-.47,1.86.77,2.22,3.14,1,3.72-.4-.05-6-.73-7.28-1.11-1.88-.6,2.82-1.43,1.22-2a4,4,0,0,1-1.54.48c-1.2-.16.5-.57-2.1-.49-.43.68-5.29-.06-1.23.58-2.54.19-2.7-.14-5.69-.11,1,.44-2.68,1.5-5.23,1.69.15-.17-.42-.4-.7-.5-5.21-.06-8-.37-12.87-.38-.45-.17-2.79-.36-1.79-.66a12.76,12.76,0,0,1-2.84.37c-2.9-.59,3.34-.09,1.13-.8-.19.4-3.88.55-6,.79.66.61,4.93.12,7.07-.13,0,.84-3.71,1.73-8.79,2.12-4,.21-1.75-.55-2.45-.43C102,3.59,103.1,5.21,96.8,4.6c-2.5-.54-.11-1.07-.67-1.46,3.29-.2,5,.34,7.28.32l-2.74-.25a19.41,19.41,0,0,1,4.44-.16C103,2.57,92.3,3,86.44,2.51c-1,.18-2.83.37-2,.58L86.29,3c1.7.43-3.48.6-1.14.8a41.9,41.9,0,0,1-8.76.54l-.66-.61A8.34,8.34,0,0,0,79,3.92c-1.46.27-5.36-.83-7,0l2.45.42a45.74,45.74,0,0,1-8.68.77c1.41.61.71-.07,2.92.64-1.91-.88,7.93,0,4.86-.89,2.26.82,3.91.35,6.86,1-.09-.2-1-.39,1.56-.29a3.73,3.73,0,0,1,.57-.18h0a5,5,0,0,1-1.33-.31c1.29-.46,5.43-.45,6.83-.69,1.54.1-.65.23.2.45l2.09-.36c.21.45,4.1.75.46,1h3.27a29.75,29.75,0,0,0,6.21.16c1.54.1,3.9-.5,2.55-.15l5.13-.28v.11c5.06.06,10.43-.74,16.22.07a49.73,49.73,0,0,1,6.32-.12l.56.39c2.19-.14,6.57.39,7.51,0,2.36,1,10.63.23,14.48.41l.15-.51c2.65,0,5.19-.12,8.48-.32l-.2-.45c2.84-.37,7.29.32,11.78.27a5.91,5.91,0,0,1-2.25,0c5.36,1,11.31-.74,16.17,0a10.37,10.37,0,0,1,2.94,0h.2L192,5.3a13.12,13.12,0,0,0-1.42-.24c.93,0,2.35-.06,3.74-.18l.59.48h.33c1.36.18,1.1-.23.37-.59a16.79,16.79,0,0,0,1.84-.29c1.11.78,3.64-.26,5.15.57.94-.4,7-.3,7.72-1.15,0,.11.46.16-.29.17a19.86,19.86,0,0,0,4.48,0l.66.61,3.38-.82c2.05.37,2.91.59.87,1.06,4.92-.72,4-.27,8.18-1l-.2.4c1.5,0,3.89-.55,4.79-.22,3.35.75,16.57.1,25.16.8-1.67-1.17,4,.52,4.34-.38.5.28,1.7.43.31.67,4.39-.27,6.59.44,9.62-.32.5.28-.94.4-.49.57A5,5,0,0,1,273,5.36c.45.16-.64.23-1.34.35,4.48,0,4.93-.9,5.26-1.69a9.29,9.29,0,0,0,5-.2c.79.26,2.11.53-.68.63,1.57,0,9.57.38,9.73-.26a9.58,9.58,0,0,0,2.6,0l3.66.05h2.49l-.56-.1a3.25,3.25,0,0,1,1.46-.4,12.07,12.07,0,0,1-.07,1.42l-.06.84V7l-.08-.08c-.56,6.38.27,2.75-.37,9l.48-.34c1,.59-.61,5.58-.21,9.23l.27-1.32c.35,2-1.4,5.58-1.53,7.58-.09.44-.14-.69-.21-1.3-.61,5.25.63.68.77,4.59-.17.36-.39.13-.57.13a.3.3,0,0,0-.24.29,2.93,2.93,0,0,0-.08.48v.64a2.7,2.7,0,0,0,.24,1.27,4.29,4.29,0,0,1-1.39.35,16.92,16.92,0,0,1-3.68-.14c.79.26,1.58.52-.24.72-2.78.09-7.52-1-10-.16a.68.68,0,0,1-.5-.2c-2.13.21-6.91.35-8.19.8-2-1.66-13.23.81-13.18-.72l-6.54.08.17-.16a22.5,22.5,0,0,0-7.13.63c-1-.1-.26-.25-.18-.33a42.21,42.21,0,0,0-11.84.52l-.53-.5c-1.39.29-8.84-.78-14.83-.2a1.12,1.12,0,0,1,.66-.22c-6.74.58-16.15-1.37-18.62.43l-4.45.44c5.76.14-.86.78,1.51,1.08-2.26.11-5.85-.54-3.07-.64l.44.09c1-.94-7.15-.33-7-1-11.33,0-22.37-.47-33-.51l1.22.73h-3.7c-1-.17-1.3-.57,1.34-.54a9.29,9.29,0,0,0-4.5.51c-5.17-.3,2-.85.43-.87l-2.15.05.49.09a16.94,16.94,0,0,1-5.07.58c-2-.15-1-.45-1.82-.48a2.64,2.64,0,0,0-1.21,0l-4.66-.06,1.86.58c-2.07.28-4.39,0-2.23.62-3.16-1-17.4-.36-19.34-.68a58,58,0,0,1-9.29.36c.88.12,1.41.77-1.65.69,1.12-1.34-5.59-.58-8.06-1.55,2.21.64-8.68.16-5.22,1.07-2.55-.11-.16-.5-2.09-.82-6.06.52-13.36-.34-20.86-.16-.12.18,1.14.44-.47.71l-4-.88c-1.48.09-1.36,1-4.07.4.38.15,1,.37,0,.43-14.68-.86-30,.7-44.92-.91,2,.34.67.37-.87.39,1,.08,0,.43.17.67l-6.24-.66c-1.14.66-6.69,0-7.35.68l2-.11C2.44,39.12,8.75,40,8.36,41c2.94-.85,7.76,1.26,12.59,0,1.07.2-.91.31-.34.53a14.1,14.1,0,0,1,5.44-.31l-.31.1c7.7-.1,11,.3,19.65.57l-.64-.47a19.51,19.51,0,0,1,3.12.33c2.13-.72-5.22,0-3.28-.83,2.47,1,13.1,0,14.77,1.11,2.86,0-.84-.55,2-.54l.76.3.72-.38c1.87.06,2.82.43,2.89.68-.45,0-1.29.07-1.78.09,2.43.35,6.85-.12,7.69,0L68.89,42c7.8-.28,17.33.11,24.87-.49l-.57-.22c5.76-.41,4.61.25,10.93.05l-.23.05a26.32,26.32,0,0,1,4.68-.31c-1.6.26,3,.51.91.8,6.24-.44,3.09-.35,7.21-1.18l1,.37a15,15,0,0,1,4.68-.61c-2.59.32,2,.57-.89,1,6.62.81,9.83-.82,12.87.37,3-1-5.73-.57-4-.79-1.43-.34,2.51-.77,4.59-.66s3.6,1.31,8.92,1.29c-.53,0-.57.07-1.09.07,2,.26,3.9-.35,6.35.07,1.37-.62,3.17,0,3.57-.76l-4.88.18c2.77-.21,5.36-1.13,9.92-.68a16.08,16.08,0,0,1-2.64.49c1.33.23,2.57-.15,4,.08-.39.79-5.93.17-8.9.78,1.43.33,5.61-.57,4.12.28,2.14-1.09,5.24.14,8.85-.7l-.24.47a19.28,19.28,0,0,1,2.8-.29l-1.9.62c2.92-.52,5.63.46,8.42.17-5.86,0-1.32-.57-3.79-.92,7.23-.64,4.16,1.24,12.25,1-1.1.07-4.11-.29-2.4-.51a31.28,31.28,0,0,1,4.52.53c5.36-.1-.82-.49,1.46-.78,1.83.58,2.63-.24,5-.42v.48c6.11.31,1.62-1,7.12-.63l-2.32.67,2.87-.17-.59.55a30.57,30.57,0,0,1,7.15-.15c-.71-.34.4-.88,3.11-.89,1.85.29-1,.46,2.8.39a5.11,5.11,0,0,1-3.48.24c-.17.16-.85.3-1,.46a41.45,41.45,0,0,0,6.38.07,11.34,11.34,0,0,1-1.5-.11l5.56-.67c.88.18.18.33-.51.47,1.13-.05,1.91-.27,3.56-.32-.43.39-.33.8-2.67,1l5.3-.44c.35.17,2.72.47,2,.61,2.94.23,7.21-.76,11.1-.46a5.88,5.88,0,0,1,1.44-.2c3.66.09,6.9.57,11.24,0l2.46.7c3.4-.16-3.33-.89,2.32-1.15,4-.22,1.49.6,2.9.8a27.1,27.1,0,0,1,9.13-.5A13.7,13.7,0,0,1,260.15,42.42Zm43.46-1.29.09,1.07a14.11,14.11,0,0,1-3.8,0c1-.46,1.92-.35,3.63-.21ZM273.93,2.06a6.85,6.85,0,0,1,2.59.1,14.4,14.4,0,0,1-2.58-.1ZM96.5,5.42h.09c1.82.17,1.18.09-.08,0Zm-3.76-.21c-.38.07-.35.13-.19.2a7.15,7.15,0,0,1,2.07-.1,3.77,3.77,0,0,0-1.87-.1ZM143.07,38l.73.13c-1.63.13-1.17,0-.71-.13Z"/><path class="cls-2" d="M281.16,1.36a.55.55,0,0,1,.35.26C281.83,1.58,281.83,1.49,281.16,1.36Z"/><path class="cls-2" d="M234.1,42.67H234a.29.29,0,0,0-.13.09Z"/><path class="cls-2" d="M151,1.12a7.12,7.12,0,0,1,1.49.25C152.54,1.25,152.22,1.15,151,1.12Z"/><path class="cls-2" d="M72.82,6l2.41-.13a10.68,10.68,0,0,1-2.17-.16C73.12,5.86,73.58,6,72.82,6Z"/><path class="cls-2" d="M51.92,3c-.35.06-.75,0-1.09.07l.1.22C52.42,3.36,53.47,3.14,51.92,3Z"/><path class="cls-2" d="M70.59,4.43c-.19-.41-1.7-.27-3.39-.19h.3C67,4.81,68.8,4.62,70.59,4.43Z"/><path class="cls-2" d="M66.81,4.25H65.25C65.06,4.49,65.89,4.31,66.81,4.25Z"/><path class="cls-2" d="M88,5.48c-.8-.1-.5.52-1,.35C86.13,6.36,92.36,5.21,88,5.48Z"/><polygon class="cls-2" points="69.23 3.09 69.83 3.59 70.78 3.19 69.23 3.09"/><path class="cls-2" d="M82.55,3.46l-2.7-.14a1,1,0,0,1-.72.17A18.46,18.46,0,0,0,82.55,3.46Z"/><path class="cls-2" d="M79.13,3.49A14.54,14.54,0,0,0,77,3.57C77.43,3.57,78.44,3.55,79.13,3.49Z"/><polygon class="cls-2" points="72.91 2.94 73.71 3.05 75.61 3.08 72.91 2.94"/><path class="cls-2" d="M111.53,3.56l2.94-.14c.3-.17-.5-.28-1.6-.21C112.22,3.36,111.08,3.36,111.53,3.56Z"/><path class="cls-2" d="M102.64,2.19a3.81,3.81,0,0,1,1.3.38l.09-.62Z"/><path class="cls-2" d="M111.22,2c.29-.17,4.27-.49.54-.46C111.46,1.76,108.51,1.9,111.22,2Z"/><polygon class="cls-2" points="155.55 2.83 154.81 2.83 154.91 3.85 155.55 2.83"/><path class="cls-2" d="M194.63.36c-3.49-.24-.83.63-4,.32-.82.24,2.58.25,1.74.46C194.49.92,195.6,1.06,194.63.36Z"/><path class="cls-2" d="M192.39,1.17a7.25,7.25,0,0,0-1.07.15A8.83,8.83,0,0,0,192.39,1.17Z"/><polygon class="cls-2" points="6.19 37.47 3.94 37.26 5.39 37.6 6.19 37.47"/><path class="cls-2" d="M1.88,38.23l-.53-.65L0,38.17A6.57,6.57,0,0,1,1.88,38.23Z"/><path class="cls-2" d="M304.92,33.07l-.16-.17a5.38,5.38,0,0,0-.21,1.92Z"/><polygon class="cls-2" points="277.87 42.93 278.39 42.94 277.42 42.36 277.87 42.93"/><path class="cls-2" d="M252.35,43.68c1,0,2.27-.11,3.31-.08C253.39,43.7,252.07,42.95,252.35,43.68Z"/></g></g></svg>