<svg xmlns="http://www.w3.org/2000/svg" viewBox="0 0 1054.42 853.32"><defs><style>.cls-1,.cls-10,.cls-12,.cls-13,.cls-15,.cls-9{fill:none;}.cls-1{stroke:#3c9195;}.cls-1,.cls-2{stroke-miterlimit:10;stroke-width:6.04px;}.cls-11,.cls-2,.cls-3,.cls-8{fill:#ffcd32;}.cls-10,.cls-12,.cls-14,.cls-2,.cls-6,.cls-8,.cls-9{stroke:#ffcd32;}.cls-14,.cls-16,.cls-4,.cls-5,.cls-6{fill:#006464;}.cls-11,.cls-13,.cls-15,.cls-16,.cls-5{stroke:#006464;}.cls-10,.cls-11,.cls-12,.cls-13,.cls-14,.cls-15,.cls-16,.cls-5,.cls-6,.cls-7,.cls-8,.cls-9{stroke-linecap:round;stroke-linejoin:round;}.cls-10,.cls-5,.cls-6,.cls-7{stroke-width:5.02px;}.cls-7{fill:#004864;stroke:#00364b;}.cls-8{stroke-width:4.41px;}.cls-9{stroke-width:4.74px;}.cls-11,.cls-14{stroke-width:2px;}.cls-12,.cls-13{stroke-width:1.67px;}.cls-15{stroke-width:3.25px;}.cls-16{stroke-width:2.17px;}</style></defs><title>資產 3</title><g id="圖層_2" data-name="圖層 2"><g id="首頁階梯"><circle class="cls-1" cx="627.76" cy="426.66" r="423.64"/><circle class="cls-2" cx="627.76" cy="426.66" r="423.64"/><polygon class="cls-3" points="433.06 522.37 29.51 522.37 56.14 470.27 458.85 470.27 433.06 522.37"/><circle class="cls-4" cx="72.38" cy="493.64" r="23.42"/><circle class="cls-5" cx="72.38" cy="493.92" r="20.79"/><circle class="cls-6" cx="70.02" cy="496.32" r="20.79"/><circle class="cls-4" cx="125.94" cy="493.64" r="23.42"/><circle class="cls-5" cx="125" cy="493.92" r="20.79"/><circle class="cls-6" cx="122.64" cy="496.32" r="20.79"/><polygon class="cls-7" points="346.55 490.22 29.51 490.22 56.14 438.12 373.18 438.12 346.55 490.22"/><polygon class="cls-6" points="346.55 368.56 29.51 368.56 56.14 316.46 373.18 316.46 346.55 368.56"/><rect class="cls-6" x="29.51" y="368.56" width="317.04" height="121.66"/><polygon class="cls-8" points="29.51 368.56 68.13 448.69 346.55 473.13 346.55 368.56 29.51 368.56"/><line class="cls-9" x1="29.51" y1="490.22" x2="68.13" y2="448.69"/><line class="cls-10" x1="2.51" y1="389.78" x2="29.51" y2="414.82"/><polygon class="cls-6" points="319.55 389.78 2.51 389.78 29.15 368.56 346.18 368.56 319.55 389.78"/><path class="cls-4" d="M101.23,366.45a4,4,0,0,1-4-4v-23a4,4,0,0,1,4-4h8.92a3.62,3.62,0,1,1,0,7.2h-4.23a1.52,1.52,0,0,0-1.52,1.52h0v13.59a1.52,1.52,0,0,0,1.52,1.52h5.86a3.62,3.62,0,1,1,0,7.2H101.23Z"/><path class="cls-3" d="M110.14,336.69a2.38,2.38,0,1,1,0,4.69h-4.23a2.78,2.78,0,0,0-2.77,2.77v13.59a2.78,2.78,0,0,0,2.77,2.77h5.86a2.38,2.38,0,1,1,0,4.69H101.23a2.78,2.78,0,0,1-2.77-2.77v-23a2.78,2.78,0,0,1,2.77-2.77h8.92m0-2.51h-8.92a5.29,5.29,0,0,0-5.28,5.28v23a5.29,5.29,0,0,0,5.28,5.28h10.54a4.87,4.87,0,1,0,0-9.71h-5.86a.27.27,0,0,1-.26-.26V344.15a.27.27,0,0,1,.26-.26h4.23a4.87,4.87,0,1,0,0-9.71h0Z"/><path class="cls-4" d="M148.68,366.59a4,4,0,0,1-4-4V339.32a4,4,0,0,1,4-4h8.59a4,4,0,0,1,4,4v23.24a4,4,0,0,1-4,4h-8.59Zm4.3-24.3a1.45,1.45,0,0,0-1.34,1.52v14.28a1.35,1.35,0,1,0,2.68,0V343.8a1.45,1.45,0,0,0-1.34-1.52Z"/><path class="cls-3" d="M157.27,336.55a2.78,2.78,0,0,1,2.77,2.77v23.24a2.78,2.78,0,0,1-2.77,2.77h-8.59a2.78,2.78,0,0,1-2.77-2.77V339.32a2.78,2.78,0,0,1,2.77-2.77h8.59M153,360.86a2.7,2.7,0,0,0,2.59-2.77V343.8a2.6,2.6,0,1,0-5.19,0v14.28a2.69,2.69,0,0,0,2.59,2.77m4.3-26.82h-8.59a5.29,5.29,0,0,0-5.28,5.28v23.24a5.29,5.29,0,0,0,5.28,5.28h8.59a5.29,5.29,0,0,0,5.28-5.28V339.32a5.29,5.29,0,0,0-5.28-5.28h0ZM153,358.31a.36.36,0,0,1-.08-.24V343.8a.36.36,0,0,1,.08-.24.35.35,0,0,1,.08.24v14.28a.35.35,0,0,1-.08.24h0Z"/><path class="cls-4" d="M139.42,366.45a3.84,3.84,0,0,1-3.6-4v-23a3.62,3.62,0,1,1,7.2,0v23A3.84,3.84,0,0,1,139.42,366.45Z"/><path class="cls-3" d="M139.42,336.69a2.59,2.59,0,0,1,2.34,2.77v23a2.38,2.38,0,1,1-4.69,0v-23a2.59,2.59,0,0,1,2.34-2.77m0-2.51a5.09,5.09,0,0,0-4.85,5.28v23a4.87,4.87,0,1,0,9.71,0v-23a5.09,5.09,0,0,0-4.85-5.28h0Z"/><path class="cls-4" d="M125,366.45a3.84,3.84,0,0,1-3.6-4v-18.3a1.52,1.52,0,0,0-1.52-1.52h-1.61a3.62,3.62,0,1,1,0-7.2h13.63a3.62,3.62,0,1,1,0,7.2h-1.78a1.52,1.52,0,0,0-1.52,1.52h0v18.27A3.84,3.84,0,0,1,125,366.45Z"/><path class="cls-3" d="M131.92,336.69a2.38,2.38,0,1,1,0,4.69h-1.78a2.78,2.78,0,0,0-2.77,2.77v18.27a2.38,2.38,0,1,1-4.69,0V344.15a2.78,2.78,0,0,0-2.77-2.77H118.3a2.38,2.38,0,1,1,0-4.69h13.63m0-2.51H118.3a4.87,4.87,0,1,0,0,9.71h1.61a.27.27,0,0,1,.26.26v18.27a4.87,4.87,0,1,0,9.71,0V344.15a.27.27,0,0,1,.26-.26h1.78a4.87,4.87,0,1,0,0-9.71h0Z"/><path class="cls-4" d="M92.36,366.59a3.84,3.84,0,0,1-3.6-4V356a1.52,1.52,0,0,0-1.52-1.52H85.65A1.52,1.52,0,0,0,84.13,356h0v6.5a3.62,3.62,0,1,1-7.2,0v-23.1a3.84,3.84,0,0,1,3.6-4,3.25,3.25,0,0,1,1.41.32,3.26,3.26,0,0,1-.32-1.41,3.84,3.84,0,0,1,4-3.6H91.9a4,4,0,0,1,4,4v27.78A3.84,3.84,0,0,1,92.36,366.59Zm-8.69-29.11a4.38,4.38,0,0,1,.47,2v6.37a1.52,1.52,0,0,0,1.52,1.52h1.59a1.52,1.52,0,0,0,1.52-1.52h0v-6.37A1.52,1.52,0,0,0,87.25,338h-1.6A4.38,4.38,0,0,1,83.67,337.48Z"/><path class="cls-3" d="M91.93,332a2.78,2.78,0,0,1,2.77,2.77v27.78a2.38,2.38,0,1,1-4.69,0V356a2.78,2.78,0,0,0-2.77-2.77H85.65a2.78,2.78,0,0,0-2.8,2.76h0v6.5a2.38,2.38,0,1,1-4.69,0v-23.1a2.38,2.38,0,1,1,4.69,0v6.37a2.78,2.78,0,0,0,2.77,2.77h1.59A2.78,2.78,0,0,0,90,345.8v-6.37a2.78,2.78,0,0,0-2.77-2.77H85.65a2.38,2.38,0,1,1,0-4.69h6.28m0-2.51H85.65a5.11,5.11,0,0,0-5.28,4.69,5.11,5.11,0,0,0-4.69,5.28v23.1a4.87,4.87,0,1,0,9.71,0V356a.27.27,0,0,1,.26-.26h1.59a.27.27,0,0,1,.26.26v6.5a4.87,4.87,0,1,0,9.71,0V334.78a5.29,5.29,0,0,0-5.28-5.28h0Zm-6.28,16.6a.27.27,0,0,1-.26-.26v-6.64h1.86a.27.27,0,0,1,.26.26v6.37a.27.27,0,0,1-.26.26h-1.6Z"/><path class="cls-4" d="M179.85,366a5.42,5.42,0,0,1-4.35-3L170,353.19v7.75c0,2.57-1.58,4.58-3.6,4.58s-3.6-2-3.6-4.58V342.71c0-2.4,1.28-4.66,3-5.26a3.06,3.06,0,0,1,1-.17,5.48,5.48,0,0,1,4.33,2.79l5.34,8.79v-9c0-2.56,1.6-4.57,3.61-4.57s3.6,2,3.6,4.58v20.87c0,2.43-1.3,4.65-3,5.16A3,3,0,0,1,179.85,366Z"/><path class="cls-3" d="M180.12,336.55c1.29,0,2.34,1.5,2.34,3.32v20.87c0,1.83-1,3.61-2.13,4a1.7,1.7,0,0,1-.49.07,4.26,4.26,0,0,1-3.26-2.34l-6.22-11.15a1.75,1.75,0,0,0-1.06-1.08c-.34,0-.56.51-.56,1.5V361c0,1.83-1.06,3.32-2.34,3.32s-2.34-1.5-2.34-3.32V342.71c0-1.83,1-3.66,2.13-4.07a1.8,1.8,0,0,1,.6-.1,4.28,4.28,0,0,1,3.26,2.19l5.92,9.75a1.77,1.77,0,0,0,1.12,1c.37,0,.61-.52.62-1.53V339.82c0-1.83,1.07-3.32,2.36-3.32m0-2.51c-2.72,0-4.85,2.56-4.87,5.82v4.55l-3-5a6.68,6.68,0,0,0-5.41-3.4,4.3,4.3,0,0,0-1.43.24c-2.5.88-3.81,3.91-3.81,6.44v18.24c0,3.27,2.13,5.83,4.85,5.83s4.85-2.56,4.86-5.83V358l3.14,5.63a6.69,6.69,0,0,0,5.45,3.62,4.22,4.22,0,0,0,1.21-.17c2.57-.77,3.92-3.78,3.92-6.36V339.87c0-3.27-2.13-5.83-4.85-5.83h0Z"/><path class="cls-4" d="M212.85,366.45c-2.61,0-5.4-1.39-6.33-3.16a17.58,17.58,0,0,1-1.47-7v-19.9c0-3.16,2-4.6,3.9-4.6s3.9,1.44,3.9,4.6V356c0,1.44.87,2.65,1.9,2.65s1.9-1.21,1.9-2.65v-5.46c0-2.89,1.71-5.16,3.9-5.16s3.9,2.27,3.9,5.16V356c0,1.44.87,2.65,1.9,2.65s1.9-1.21,1.9-2.65V336.4c0-3.16,2-4.6,3.9-4.6s3.9,1.44,3.9,4.6v19.9a17.58,17.58,0,0,1-1.47,7c-.94,1.77-3.72,3.16-6.33,3.16h-15.4Z"/><path class="cls-3" d="M232.16,333c1.45,0,2.64,1.2,2.64,3.34v19.9a16.46,16.46,0,0,1-1.32,6.4c-.73,1.37-3.08,2.49-5.23,2.49h-15.4c-2.15,0-4.5-1.12-5.23-2.49a16.46,16.46,0,0,1-1.32-6.4v-19.9c0-2.15,1.19-3.34,2.64-3.34s2.64,1.2,2.64,3.34V356c0,2.15,1.42,3.91,3.16,3.91s3.16-1.76,3.16-3.91v-5.46c0-2.15,1.19-3.9,2.64-3.9s2.64,1.76,2.64,3.9V356c0,2.15,1.42,3.91,3.16,3.91s3.16-1.76,3.16-3.91V336.4c0-2.15,1.19-3.34,2.64-3.34m0-2.51c-2.56,0-5.15,2-5.15,5.85V356a.85.85,0,1,1-1.29,0v-5.46c0-3.6-2.26-6.42-5.15-6.42s-5.15,2.82-5.15,6.42V356a.85.85,0,1,1-1.29,0V336.4c0-3.84-2.59-5.85-5.15-5.85s-5.15,2-5.15,5.85v19.9a18.71,18.71,0,0,0,1.61,7.57c1.33,2.51,4.75,3.83,7.44,3.83h15.38c2.69,0,6.11-1.31,7.44-3.83a18.71,18.71,0,0,0,1.61-7.57V336.4c0-3.84-2.59-5.85-5.15-5.85h0Z"/><path class="cls-4" d="M252.72,366.45c-1.79,0-3.6-1.26-3.6-4.08V356.6a2.22,2.22,0,0,0-2.21-2.21h-.21a2.22,2.22,0,0,0-2.21,2.21v5.77c0,2.82-1.81,4.08-3.6,4.08s-3.6-1.26-3.6-4.08V343.9c0-2.82,1.81-4.09,3.6-4.09a3.66,3.66,0,0,1,1.38.27,3.34,3.34,0,0,1-.29-1.36c0-1.79,1.46-3.6,4.26-3.6h5.36a4.73,4.73,0,0,1,4.73,4.73h0v22.53C256.33,365.19,254.52,366.45,252.72,366.45Zm-8.62-24.56a5,5,0,0,1,.38,2V345a2.22,2.22,0,0,0,2.21,2.21h.21a2.22,2.22,0,0,0,2.21-2.21v-.43a2.22,2.22,0,0,0-2.21-2.21h-.67a5.09,5.09,0,0,1-2.13-.43Z"/><path class="cls-3" d="M251.6,336.37a3.48,3.48,0,0,1,3.47,3.47v22.53c0,1.91-1.06,2.82-2.35,2.82s-2.35-.91-2.35-2.82V356.6a3.48,3.48,0,0,0-3.47-3.47h-.21a3.48,3.48,0,0,0-3.47,3.47v5.77c0,1.91-1.06,2.82-2.35,2.82s-2.35-.91-2.35-2.82V343.9c0-1.91,1.06-2.83,2.35-2.83s2.35.92,2.35,2.83V345a3.48,3.48,0,0,0,3.47,3.47h.21a3.48,3.48,0,0,0,3.47-3.47v-.43a3.48,3.48,0,0,0-3.47-3.47h-.67c-1.91,0-3-1.06-3-2.35s1.1-2.35,3-2.35h5.36m0-2.51h-5.36c-3.54,0-5.43,2.34-5.52,4.7-2.29.08-4.7,1.75-4.7,5.34v18.48c0,3.66,2.52,5.33,4.86,5.33s4.86-1.67,4.86-5.33v-5.77a1,1,0,0,1,1-1h.21a1,1,0,0,1,1,1v5.77c0,3.66,2.52,5.33,4.86,5.33s4.86-1.67,4.86-5.33V339.84a6,6,0,0,0-6-6h0Zm-4.9,12.06a1,1,0,0,1-1-1v-1.41h1.17a1,1,0,0,1,1,1v.43a1,1,0,0,1-1,1h-.21Z"/><path class="cls-4" d="M262.15,366.45a4,4,0,0,1-4-4v-23a3.63,3.63,0,1,1,7.2,0v18.3a1.52,1.52,0,0,0,1.52,1.52h5.87a3.62,3.62,0,1,1,0,7.2H262.15Z"/><path class="cls-3" d="M261.72,336.65a2.6,2.6,0,0,1,2.35,2.78v18.3a2.78,2.78,0,0,0,2.78,2.78h5.87a2.38,2.38,0,1,1,0,4.69H262.15a2.78,2.78,0,0,1-2.78-2.78v-23a2.6,2.6,0,0,1,2.35-2.78m0-2.51a5.09,5.09,0,0,0-4.86,5.29v23a5.29,5.29,0,0,0,5.29,5.29h10.56a4.88,4.88,0,1,0,0-9.72h-5.86a.28.28,0,0,1-.27-.27v-18.3a5.09,5.09,0,0,0-4.86-5.29h0Z"/><path class="cls-4" d="M280.63,366.45a4,4,0,0,1-4-4v-23a3.63,3.63,0,1,1,7.2,0v18.3a1.52,1.52,0,0,0,1.52,1.52h5.87a3.62,3.62,0,1,1,0,7.2H280.63Z"/><path class="cls-3" d="M280.2,336.65a2.6,2.6,0,0,1,2.35,2.78v18.3a2.78,2.78,0,0,0,2.78,2.78h5.87a2.38,2.38,0,1,1,0,4.69H280.63a2.78,2.78,0,0,1-2.78-2.78v-23a2.6,2.6,0,0,1,2.35-2.78m0-2.51a5.09,5.09,0,0,0-4.86,5.29v23a5.29,5.29,0,0,0,5.29,5.29h10.56a4.88,4.88,0,1,0,0-9.72h-5.87a.28.28,0,0,1-.27-.27v-18.3a5.09,5.09,0,0,0-4.86-5.29h0Z"/><rect class="cls-11" x="76.45" y="417.8" width="13.74" height="21.14"/><rect class="cls-11" x="100.02" y="427.55" width="13.74" height="21.14"/><rect class="cls-11" x="128.31" y="414.82" width="13.74" height="21.14"/><rect class="cls-11" x="249.57" y="400.01" width="13.74" height="21.14"/><rect class="cls-11" x="280.83" y="417.89" width="13.74" height="21.14"/><rect class="cls-11" x="219.21" y="439.84" width="13.74" height="21.14"/><rect class="cls-11" x="174.35" y="430.48" width="13.74" height="21.14"/><polygon class="cls-3" points="143.47 512.25 129.34 534.96 171.62 535.3 184.59 512.58 143.47 512.25"/><polygon class="cls-6" points="141.48 487.13 127.34 532.39 169.62 532.72 182.6 487.47 141.48 487.13"/><line class="cls-12" x1="99.24" y1="462.12" x2="113.75" y2="462.12"/><line class="cls-13" x1="75.67" y1="444.61" x2="90.18" y2="444.61"/><line class="cls-13" x1="127.64" y1="448.69" x2="142.15" y2="448.69"/><line class="cls-13" x1="71.32" y1="441.05" x2="71.32" y2="420.84"/><line class="cls-12" x1="218.83" y1="473.13" x2="233.34" y2="473.13"/><line class="cls-12" x1="173.96" y1="462.12" x2="188.47" y2="462.12"/><line class="cls-13" x1="282.29" y1="456.95" x2="293.17" y2="456.95"/><line class="cls-13" x1="251.12" y1="450.41" x2="260.13" y2="450.41"/><rect class="cls-14" x="97.34" y="504.14" width="13.74" height="21.14"/><line class="cls-12" x1="96.95" y1="539.42" x2="111.47" y2="539.42"/><polygon class="cls-3" points="278.28 613.35 245.47 613.35 256.25 592.25 289.07 592.25 278.28 613.35"/><line class="cls-15" x1="267.58" y1="575.52" x2="267.58" y2="601.63"/><line class="cls-15" x1="264.15" y1="608.67" x2="270.1" y2="596.48"/><line class="cls-15" x1="259.45" y1="601.63" x2="274.71" y2="601.63"/><polygon class="cls-3" points="256.18 628.27 237.23 628.27 245.68 613.1 264.63 613.1 256.18 628.27"/><polygon class="cls-16" points="278.6 586.06 245.79 586.06 256.57 564.97 289.38 564.97 278.6 586.06"/><line class="cls-15" x1="252.84" y1="607.08" x2="252.84" y2="625.67"/><line class="cls-15" x1="241.63" y1="607.08" x2="241.63" y2="625.67"/><line class="cls-15" x1="257.14" y1="601.24" x2="257.14" y2="617.83"/><line class="cls-15" x1="245.93" y1="601.24" x2="245.93" y2="617.83"/><path class="cls-4" d="M254.1,609.4H241.75a2.11,2.11,0,0,1-1.87-3.06l3.46-6.77a2.11,2.11,0,0,1,1.87-1.15h12.34a2.11,2.11,0,0,1,1.87,3.06L256,608.25A2.11,2.11,0,0,1,254.1,609.4Z"/><polygon class="cls-3" points="326.96 669.06 294.15 669.06 304.93 647.97 337.74 647.97 326.96 669.06"/><line class="cls-15" x1="316.26" y1="631.23" x2="316.26" y2="657.35"/><line class="cls-15" x1="312.82" y1="664.39" x2="318.77" y2="652.2"/><line class="cls-15" x1="308.13" y1="657.35" x2="323.39" y2="657.35"/><polygon class="cls-16" points="327.28 641.78 294.46 641.78 305.25 620.69 338.06 620.69 327.28 641.78"/><polygon class="cls-3" points="289.1 666.86 270.15 666.86 278.6 651.69 297.55 651.69 289.1 666.86"/><path class="cls-4" d="M287,648H274.67A2.11,2.11,0,0,1,272.8,645l3.46-6.77a2.11,2.11,0,0,1,1.87-1.15h12.35a2.11,2.11,0,0,1,1.87,3l-3.5,6.81A2.11,2.11,0,0,1,287,648Z"/><line class="cls-15" x1="285.76" y1="645.67" x2="285.76" y2="664.26"/><line class="cls-15" x1="274.55" y1="645.67" x2="274.55" y2="664.26"/><line class="cls-15" x1="278.85" y1="639.83" x2="278.85" y2="656.42"/><polygon class="cls-3" points="354.74 659 335.79 659 344.24 643.83 363.19 643.83 354.74 659"/><path class="cls-4" d="M352.65,640.13H340.31a2.11,2.11,0,0,1-1.87-3.06l3.46-6.77a2.11,2.11,0,0,1,1.87-1.15h12.35a2.11,2.11,0,0,1,1.87,3.06L354.53,639A2.11,2.11,0,0,1,352.65,640.13Z"/><line class="cls-15" x1="351.4" y1="637.81" x2="351.4" y2="656.4"/><line class="cls-15" x1="340.19" y1="637.81" x2="340.19" y2="656.4"/><line class="cls-15" x1="355.7" y1="631.97" x2="355.7" y2="648.56"/><line class="cls-15" x1="344.49" y1="631.97" x2="344.49" y2="648.56"/><polygon class="cls-14" points="272.74 568.44 257.44 568.44 261.38 542.68 276.68 542.68 272.74 568.44"/><path class="cls-4" d="M243.46,569.65a2.72,2.72,0,0,1-2.3-4.62l6.56-8.66a3.26,3.26,0,0,1,2.59-1.42,3.14,3.14,0,0,1,2.81,2l3.67,8a3.14,3.14,0,0,1-3,4.65H243.46Z"/><path class="cls-3" d="M250.3,556.44a1.67,1.67,0,0,1,1.44,1.14l3.67,8a1.65,1.65,0,0,1-1.62,2.53H243.46c-1.53,0-2-1-1.1-2.22l6.56-8.66a1.81,1.81,0,0,1,1.39-.83m0-3h0a4.73,4.73,0,0,0-3.78,2L240,564.06a4.21,4.21,0,0,0,3.49,7h10.33a4.63,4.63,0,0,0,4.35-6.77l-3.67-8a4.6,4.6,0,0,0-4.17-2.9h0Z"/><path class="cls-4" d="M257.13,615.88a4,4,0,0,1-3-1.34,3.61,3.61,0,0,1-.83-2.94l1.19-7.91a1,1,0,0,0-.18-.8.66.66,0,0,0-.53-.22H237.13a3.82,3.82,0,0,1-3.85-4.47l4.5-27a1.5,1.5,0,0,1,1.48-1.25h22a1.83,1.83,0,0,0,1.71-1.47v-.12l.63-2.71a4.73,4.73,0,0,1,4.51-4,3.66,3.66,0,0,1,2.82,1.27,4,4,0,0,1,.87,3.2l-1.85,10.79a1.5,1.5,0,0,1-1.48,1.25H257.59a1.83,1.83,0,0,0-1.71,1.47l-2,13.76a1,1,0,0,0,.18.8.66.66,0,0,0,.53.22h5.23a3.76,3.76,0,0,1,2.86,1.28,3.81,3.81,0,0,1,.85,3.06l-1.18,7.84a1.14,1.14,0,0,0,.17.89.35.35,0,0,0,.29.13,3.38,3.38,0,0,1,2.6,1.19,3.93,3.93,0,0,1,.85,3.16,4.74,4.74,0,0,1-4.66,3.9h-4.42Z"/><path class="cls-3" d="M268.17,563.18a2.26,2.26,0,0,1,2.21,2.75l-1.85,10.76H257.59a3.34,3.34,0,0,0-3.19,2.75l-2.06,13.73a2.26,2.26,0,0,0,2.19,2.75h5.23a2.21,2.21,0,0,1,2.23,2.62l-1.14,7.84a2.18,2.18,0,0,0,2,2.75,2.11,2.11,0,0,1,2,2.62,3.26,3.26,0,0,1-3.17,2.62h-4.42a2.25,2.25,0,0,1-2.39-2.56l.39-2.62.79-5.28a2.26,2.26,0,0,0-2.19-2.75H237.13a2.33,2.33,0,0,1-2.37-2.75l4.5-27h22a3.34,3.34,0,0,0,3.19-2.75l.65-2.77a3.25,3.25,0,0,1,3-2.75m0-3a6.26,6.26,0,0,0-6,5.16l-.53,2.73v.24a.45.45,0,0,1-.24.19h-22a3,3,0,0,0-3,2.51l-4.5,27a5.32,5.32,0,0,0,5.32,6.24h15.7l-.69,4.58-.4,2.63a5.16,5.16,0,0,0,1.18,4.14,5.49,5.49,0,0,0,4.18,1.86h4.42a6.27,6.27,0,0,0,6.14-5.18,5.42,5.42,0,0,0-1.19-4.36,4.91,4.91,0,0,0-2.64-1.58L265,599a5.21,5.21,0,0,0-5.2-6.07h-4.34l2-13a.45.45,0,0,1,.24-.19h10.92a3,3,0,0,0,3-2.49l1.85-10.76v-.06a5.47,5.47,0,0,0-1.22-4.4,5.21,5.21,0,0,0-4-1.79h0Z"/><polygon class="cls-14" points="197.06 493.94 183.32 493.94 178.09 475.29 191.82 475.29 197.06 493.94"/><path class="cls-4" d="M205.34,506.8a3.21,3.21,0,0,1-3.06-4.76l3.83-8.39a3.21,3.21,0,0,1,2.87-2.07,3.34,3.34,0,0,1,2.65,1.46l6.84,9a2.77,2.77,0,0,1-2.35,4.72H205.34Z"/><path class="cls-3" d="M209,493.08a1.88,1.88,0,0,1,1.45.87l6.84,9c1,1.27.44,2.31-1.15,2.31H205.34a1.72,1.72,0,0,1-1.69-2.64l3.83-8.39A1.74,1.74,0,0,1,209,493m0-3a4.67,4.67,0,0,0-4.23,3l-3.83,8.39a4.7,4.7,0,0,0,4.42,6.88h10.78a4.26,4.26,0,0,0,3.54-7.12l-6.84-9a4.8,4.8,0,0,0-3.84-2h0Z"/><path class="cls-4" d="M232.16,568.76a4.74,4.74,0,0,1-4.62-3.94,1.89,1.89,0,0,0-1.82-1.39h-5.15a4.88,4.88,0,0,1-4.79-4l-2.49-16.56q-.15-1-.27-1.59h-7.17a.75.75,0,0,0-.6.25,1.11,1.11,0,0,0-.2.89l1.24,8.25a3.71,3.71,0,0,1-.85,3,4.1,4.1,0,0,1-3.13,1.37H197.7a4.88,4.88,0,0,1-4.79-4,4,4,0,0,1,.87-3.24,3.47,3.47,0,0,1,2.67-1.22.43.43,0,0,0,.35-.16,1.25,1.25,0,0,0,.2-1l-1.23-8.18a3.91,3.91,0,0,1,.87-3.15,3.86,3.86,0,0,1,2.94-1.31H205a.75.75,0,0,0,.6-.25,1.11,1.11,0,0,0,.2-.89l-2.15-14.33a2,2,0,0,0-1.85-1.59H190.38a1.5,1.5,0,0,1-1.48-1.28l-2.23-14.84a4.08,4.08,0,0,1,.89-3.28,3.75,3.75,0,0,1,2.89-1.3,4.87,4.87,0,0,1,4.65,4.14l1,6.5a2,2,0,0,0,1.85,1.59h31.49a4.88,4.88,0,0,1,4.79,4l1.82,12.11a4.08,4.08,0,0,1-.89,3.28,3.76,3.76,0,0,1-2.89,1.31,4.87,4.87,0,0,1-4.65-4.14l-1-6.5a1.91,1.91,0,0,0-1.68-1.59.78.78,0,0,0-.62.26,1.08,1.08,0,0,0-.2.88l3,19.8a3.92,3.92,0,0,1-4,4.59h-.41a.93.93,0,0,0-1,1.14l1.65,11A1.91,1.91,0,0,0,225,555h5.47a4.79,4.79,0,0,1,4.63,4l.81,5.4a3.82,3.82,0,0,1-.85,3.07A3.89,3.89,0,0,1,232.16,568.76Z"/><path class="cls-3" d="M190.45,496.53a3.39,3.39,0,0,1,3.17,2.87l1,6.5a3.48,3.48,0,0,0,3.33,2.87h31.49a3.41,3.41,0,0,1,3.31,2.74l.84,5.6,1,6.5a2.36,2.36,0,0,1-2.31,2.87,3.39,3.39,0,0,1-3.17-2.87l-1-6.5a3.39,3.39,0,0,0-3.17-2.87,2.36,2.36,0,0,0-2.31,2.87l3,19.8a2.43,2.43,0,0,1-2.47,2.87h-.42a2.43,2.43,0,0,0-2.47,2.87l1.65,11a3.39,3.39,0,0,0,3.17,2.87h5.47a3.31,3.31,0,0,1,3.15,2.74l.81,5.4a2.27,2.27,0,0,1-2.34,2.66,3.26,3.26,0,0,1-3.14-2.66,3.37,3.37,0,0,0-3.3-2.66h-5.15a3.41,3.41,0,0,1-3.31-2.74l-.84-5.6-1.65-11a14.35,14.35,0,0,0-.59-2.87h-8.35a2.35,2.35,0,0,0-2.28,2.87l.39,2.58.44,2.94.41,2.74a2.35,2.35,0,0,1-2.5,2.67H197.7a3.41,3.41,0,0,1-3.31-2.74,2.2,2.2,0,0,1,2.05-2.74c1.36,0,2.27-1.29,2-2.87l-.39-2.58-.84-5.6a2.3,2.3,0,0,1,2.33-2.74H205a2.35,2.35,0,0,0,2.28-2.87l-2.15-14.33a3.48,3.48,0,0,0-3.33-2.87H190.38l-.41-2.7h0l-.84-5.58-1-6.5a2.36,2.36,0,0,1,2.31-2.87M189.9,511l.06.41h0l.06.4-.13-.87m.55-17.54a5.3,5.3,0,0,0-4,1.83,5.58,5.58,0,0,0-1.24,4.49l1,6.5.75,5a5.34,5.34,0,0,0,.2,1.31l.31,2a3,3,0,0,0,3,2.55h11.41a.56.56,0,0,1,.36.31l2.07,13.74h-4.68a5.31,5.31,0,0,0-5.3,6.19l.84,5.6.32,2.1a5,5,0,0,0-2.8,1.64,5.53,5.53,0,0,0-1.22,4.45,6.41,6.41,0,0,0,6.28,5.29h4.61a5.6,5.6,0,0,0,4.27-1.9,5.25,5.25,0,0,0,1.2-4.22l-.41-2.74-.07-.5-.49-2.35-.3-2h5.19v.31l1.65,11,.84,5.6a6.41,6.41,0,0,0,6.28,5.29h5.15a.54.54,0,0,1,.34.18,6.27,6.27,0,0,0,6.09,5.15,5.39,5.39,0,0,0,4.1-1.84,5.32,5.32,0,0,0,1.2-4.27l-.14-.91-.68-4.49a6.31,6.31,0,0,0-6.11-5.29H225a.52.52,0,0,1-.25-.31l-1.56-10.38a5.42,5.42,0,0,0,5.26-6.31L227,526.63a6.28,6.28,0,0,0,5.16,2.89,5.3,5.3,0,0,0,4-1.83,5.58,5.58,0,0,0,1.24-4.49l-1-6.5-.84-5.6a6.41,6.41,0,0,0-6.28-5.29H197.93a.56.56,0,0,1-.36-.31l-1-6.5a6.39,6.39,0,0,0-6.13-5.42h0Z"/><path class="cls-4" d="M45.43,478.61a4.38,4.38,0,0,1-3.9-7l5.32-8.41a4.59,4.59,0,0,1,8.22.13l4.78,8.29a4.46,4.46,0,0,1-4,7H45.43Z"/><path class="cls-3" d="M50.91,463.18a2.38,2.38,0,0,1,2,1.37l4.84,8.28c1.05,1.8.21,3.27-1.88,3.27H45.43c-2.08,0-2.88-1.44-1.77-3.21L49,464.48a2.4,2.4,0,0,1,2-1.3m0-5h0a7.33,7.33,0,0,0-6.21,3.65l-5.29,8.41a6.88,6.88,0,0,0,6,10.9h10.4a7,7,0,0,0,6.21-10.83L57.22,462a7.37,7.37,0,0,0-6.31-3.86h0Z"/><path class="cls-4" d="M57.22,547.67a5.53,5.53,0,0,1-5.65-5.38V516a.64.64,0,0,0-.63-.63h-.6a.64.64,0,0,0-.63.63v26.32a5.53,5.53,0,0,1-5.65,5.38H39.44a5.53,5.53,0,0,1-5.65-5.38,5.26,5.26,0,0,1,5-5.38,1,1,0,0,0,.19-.63V505.47a.64.64,0,0,0-.63-.63H34.71a5.66,5.66,0,0,1-5.65-5.65V483.48a5.66,5.66,0,0,1,5.65-5.65h28a.64.64,0,0,0,.63-.63v-5.37a5.39,5.39,0,1,1,10.76,0v11.1a5.66,5.66,0,0,1-5.65,5.65H63a.64.64,0,0,0-.63.63v47.06a1,1,0,0,0,.19.63,5.26,5.26,0,0,1,5,5.38,5.53,5.53,0,0,1-5.67,5.39H57.22Z"/><path class="cls-3" d="M68.69,468.69a3,3,0,0,1,2.87,3.12v11.12a3.15,3.15,0,0,1-3.15,3.1H63a3.15,3.15,0,0,0-3.11,3.19h0v47.06a2.91,2.91,0,0,0,2.58,3.14A2.74,2.74,0,0,1,65,542.29a3,3,0,0,1-3.12,2.87H57.22a3,3,0,0,1-3.14-2.85V516a3.15,3.15,0,0,0-3.14-3.14h-.6A3.15,3.15,0,0,0,47.2,516v26.32a3,3,0,0,1-3.12,2.87H39.44a3,3,0,0,1-3.14-2.85v0a2.74,2.74,0,0,1,2.55-2.87,2.91,2.91,0,0,0,2.58-3.14V505.47a3.15,3.15,0,0,0-3.14-3.14H34.71a3.15,3.15,0,0,1-3.14-3.14V483.48a3.15,3.15,0,0,1,3.14-3.14h28a3.15,3.15,0,0,0,3.14-3.15v-5.36a3,3,0,0,1,2.85-3.14h0m-18,18A1.67,1.67,0,1,0,49.06,485h0a1.65,1.65,0,0,0,1.65,1.65h0m-11.26,11c1.14,0,2.08-1.41,2.08-3.14v-5c0-1.73-.94-3.14-2.08-3.14s-2.08,1.41-2.08,3.14v5c0,1.73.94,3.14,2.08,3.14m11.26,4.94a1.66,1.66,0,0,0,1.66-1.66h0V491a1.67,1.67,0,1,0-3.33,0h0V501a1.66,1.66,0,0,0,1.66,1.66h0m18-38.93a8,8,0,0,0-7.89,8.11v3.54H34.71a8.18,8.18,0,0,0-8.17,8.17v15.71a8.18,8.18,0,0,0,8.17,8.17h1.73v27.46a7.89,7.89,0,0,0-5.17,7.47,8,8,0,0,0,8.11,7.89h4.68A8.25,8.25,0,0,0,50.64,547a8.25,8.25,0,0,0,6.58,3.23h4.63A8,8,0,0,0,70,542.38v-.06a7.89,7.89,0,0,0-5.17-7.5V491.09h3.57a8.18,8.18,0,0,0,8.17-8.17V471.83a8,8,0,0,0-7.83-8.17H68.7Z"/><line class="cls-13" x1="226.08" y1="524.63" x2="241.42" y2="525.74"/></g></g></svg>