<?xml version="1.0" encoding="utf-8"?>
<!-- Generator: Adobe Illustrator 20.1.0, SVG Export Plug-In . SVG Version: 6.00 Build 0)  -->
<svg version="1.1" id="圖層_1" xmlns="http://www.w3.org/2000/svg" xmlns:xlink="http://www.w3.org/1999/xlink" x="0px" y="0px"
	 viewBox="0 0 1061 1034" style="enable-background:new 0 0 1061 1034;" xml:space="preserve">
<style type="text/css">
	.st0{fill:#FF9947;stroke:#FF9947;stroke-width:6.0392;stroke-miterlimit:10;}
	.st1{fill:#FF9947;}
	.st2{fill:none;stroke:#006464;stroke-width:1.6177;stroke-linecap:round;stroke-linejoin:round;stroke-miterlimit:10;}
	.st3{fill:#006464;}
	.st4{fill:none;stroke:#006464;stroke-width:1.8187;stroke-linecap:round;stroke-linejoin:round;stroke-miterlimit:10;}
	.st5{fill:none;stroke:#006464;stroke-width:4.8767;stroke-linecap:round;stroke-miterlimit:10;}
	.st6{fill:none;stroke:#006464;stroke-width:4.6015;stroke-linecap:round;stroke-miterlimit:10;}
	.st7{fill:#FF9947;stroke:#FF9947;stroke-width:2.48;stroke-miterlimit:10;}
	.st8{fill:#FF9947;stroke:#FF9947;stroke-width:2.4802;stroke-linecap:round;stroke-miterlimit:10;}
	.st9{fill:#006464;stroke:#006464;stroke-width:0.7669;stroke-miterlimit:10;}
	.st10{fill:none;stroke:#006464;stroke-width:2.48;stroke-miterlimit:10;}
	.st11{fill:#006464;stroke:#FF9947;stroke-width:17.639;stroke-linecap:round;stroke-miterlimit:10;}
</style>
<g>
	<circle class="st0" cx="544.9" cy="516.6" r="512.8"/>
	<g>
		<g>
			<ellipse class="st1" cx="72.4" cy="800.3" rx="22.5" ry="11.5"/>
			<g>
				<polyline class="st2" points="81.6,750.2 87.6,747.5 97.5,751.6 92.2,755 				"/>
				<ellipse class="st1" cx="72.4" cy="757.4" rx="22.5" ry="9.7"/>
				<rect x="49.9" y="757.4" class="st1" width="45" height="42.9"/>
				<ellipse class="st3" cx="72.3" cy="760.9" rx="22.5" ry="9.8"/>
				<polyline class="st4" points="51.2,766 43.4,768.9 54.5,773.6 60.5,771.5 				"/>
				<path class="st1" d="M75,758.6c-0.4,1-1.4,1.3-3.1,1.3c-1.7,0-2.7-0.3-3.1-1.3c0-1,1.4-1.9,3.1-1.9
					C73.6,756.7,75,757.5,75,758.6z"/>
				<path class="st1" d="M64.8,756c-0.2,0.6-0.8,0.7-1.7,0.7c-0.9,0-1.5-0.2-1.7-0.7c0-0.6,0.8-1,1.7-1
					C64,754.9,64.8,755.4,64.8,756z"/>
				<path class="st1" d="M79.8,761.5c-0.2,0.6-0.8,0.7-1.7,0.7s-1.5-0.2-1.7-0.7c0-0.6,0.8-1,1.7-1S79.8,760.9,79.8,761.5z"/>
			</g>
		</g>
		<line class="st5" x1="82.7" y1="755.6" x2="101.5" y2="717.8"/>
		<g>
			<g>
				<path class="st3" d="M121.6,713.4c-2.3,0-4.1,1.6-4.1,3.5s-1.9,3.5-4.1,3.5h-15c-2.3,0-4.1,1.9-4.1,4.1v0.3
					c0,2.3,1.9,4.1,4.1,4.1h15c2.3,0,4.1,1.6,4.1,3.6s-1.9,3.6-4.1,3.6H89.6c-2.3,0-4.1,1.9-4.1,4.1v0.3c0,2.3,1.9,4.1,4.1,4.1h23.8
					c2.3,0,4.1,1.9,4.1,4.1v0.2c0,2.3-1.7,4.1-3.8,4.1s-3.8,1.9-3.8,4.1v34.8c0,2.3-1.7,4.1-3.8,4.1s-3.8,1.9-3.8,4.1v0.3
					c0,2.3,1.9,4.1,4.1,4.1h7.9c2.3,0,4.1-1.9,4.1-4.1v-34.8c0-2.3,1.9-4.1,4.1-4.1h9.7c2.3,0,4.1,1.9,4.1,4.1v26.3
					c0,2.3-1.7,4.1-3.8,4.1s-3.8,1.9-3.8,4.1v0.3c0,2.3,1.9,4.1,4.1,4.1h7.9c2.3,0,4.1-1.9,4.1-4.1v-83c0-2.3-1.9-4.1-4.1-4.1H121.6
					z"/>
			</g>
		</g>
		<g>
			<path class="st3" d="M122,677.2c2.9-4.6,7.5-4.5,10.3,0.2l12.7,21.7c2.7,4.7,0.5,8.6-4.9,8.6h-27.2c-5.4,0-7.5-3.8-4.6-8.4
				L122,677.2z"/>
		</g>
	</g>
	<g>
		<g>
			<g>
				<g>
					<path class="st3" d="M84.1,439.6c-1.5-2.4-3.9-2.3-5.3,0.1l-6.5,11.1c-1.4,2.4-0.3,4.4,2.5,4.4h13.9c2.8,0,3.9-1.9,2.4-4.3
						L84.1,439.6z"/>
				</g>
				<g>
					<path class="st3" d="M54.1,442.4c2.1,0,3.8,1.9,3.8,4.2v10c0,2.3,1.9,4.2,4.2,4.2h25.4c2.3,0,4.5,1.9,4.9,4.2l4.1,24.9
						c0.4,2.3,0.7,6,0.7,8.4v18.1c0,2.3,1.9,4.2,4.2,4.2h7.7c2.3,0,4.2,1.7,4.2,3.8s-1.9,3.8-4.2,3.8H93.7c-2.3,0-4.2-1.9-4.2-4.2
						v-15.5c0-2.3-1.9-4.2-4.2-4.2H74.8c-2.3,0-4.2,1.9-4.2,4.2v15.5c0,2.3-1.9,4.2-4.2,4.2h-6.2c-2.3,0-4.2-1.7-4.2-3.8
						s1.6-3.8,3.5-3.8c1.9,0,3.5-1.9,3.5-4.2l0-15.5c0-2.3,1.9-4.2,4.2-4.2h1.3c2.3,0,4.2-1.9,4.2-4.2v-4.2c0-2.3-1.9-4.2-4.2-4.2
						H42.9c-2.3,0-4.2-1.7-4.2-3.8c0-2.1,1.9-3.8,4.2-3.8h25.5c2.3,0,4.2-1.8,4.2-3.9c0-2.2-1.9-3.9-4.2-3.9h-6.3
						c-2.3,0-5.9,0-8.1,0c-2.1,0-3.8-1.9-3.8-4.2v-17.7C50.2,444.3,51.9,442.4,54.1,442.4z"/>
				</g>
			</g>
			<g>
				<g>
					<path class="st3" d="M56,434.9v-25.5c0-1.3-1.1-2.4-2.4-2.4c-1.3,0-2.4,1.1-2.4,2.4v25.5c0,1.3,1.1,2.4,2.4,2.4
						C55,437.3,56,436.2,56,434.9z"/>
				</g>
			</g>
			<g>
				<g>
					<path class="st1" d="M33.1,477.4H7.5c-1.3,0-2.4,1.1-2.4,2.4s1.1,2.4,2.4,2.4h25.5c1.3,0,2.4-1.1,2.4-2.4
						S34.4,477.4,33.1,477.4z"/>
				</g>
			</g>
			<g>
				<path class="st1" d="M8.2,487.4c-0.1-0.3-0.4-0.6-0.7-0.8c-0.8-0.4-1.7-0.2-2.1,0.6l-3.1,5.5c-0.4,0.8-0.2,1.7,0.6,2.1
					c0.8,0.4,1.7,0.2,2.1-0.6l3.1-5.5C8.4,488.4,8.4,487.8,8.2,487.4z"/>
			</g>
			<g>
				<path class="st1" d="M14.4,488c-0.2-0.5-0.8-0.9-1.4-1c-0.9,0-1.6,0.6-1.6,1.5l-0.3,7.2c0,0.9,0.6,1.6,1.5,1.6
					c0.9,0,1.6-0.6,1.6-1.5l0.3-7.2C14.5,488.4,14.5,488.2,14.4,488z"/>
			</g>
			<g>
				<path class="st1" d="M23.2,493.7l-2.6-6.1c-0.3-0.8-1.3-1.2-2.1-0.8c-0.8,0.3-1.2,1.3-0.8,2.1l2.6,6.1c0.3,0.8,1.3,1.2,2.1,0.8
					C23.1,495.4,23.5,494.5,23.2,493.7z"/>
			</g>
			<g>
				<path class="st1" d="M8.2,472c-0.1,0.3-0.4,0.6-0.7,0.8c-0.8,0.4-1.7,0.2-2.1-0.6l-3.1-5.5c-0.4-0.8-0.2-1.7,0.6-2.1
					c0.8-0.4,1.7-0.2,2.1,0.6l3.1,5.5C8.4,471.1,8.4,471.6,8.2,472z"/>
			</g>
			<g>
				<path class="st1" d="M14.4,471.5c-0.2,0.5-0.8,0.9-1.4,1c-0.9,0-1.6-0.6-1.6-1.5l-0.3-7.2c0-0.9,0.6-1.6,1.5-1.6
					c0.9,0,1.6,0.6,1.6,1.5l0.3,7.2C14.5,471,14.5,471.3,14.4,471.5z"/>
			</g>
			<g>
				<path class="st1" d="M23.2,465.8l-2.6,6.1c-0.3,0.8-1.3,1.2-2.1,0.8c-0.8-0.3-1.2-1.3-0.8-2.1l2.6-6.1c0.3-0.8,1.3-1.2,2.1-0.8
					C23.1,464,23.5,465,23.2,465.8z"/>
			</g>
		</g>
		<g>
			<g>
				<path class="st3" d="M76.9,426.2c2.9-4.6,7.5-4.5,10.2,0.2l12.6,21.5c2.7,4.7,0.5,8.5-4.9,8.5H67.8c-5.4,0-7.5-3.8-4.6-8.3
					L76.9,426.2z"/>
			</g>
		</g>
		<path class="st3" d="M107.6,436.1c0.3,0.9-0.4,1.8-1.3,1.6c-3.2-0.7-8.9-2.1-10.5-3.4c-2.2-1.9-2.5-5.2-0.6-7.4
			c1.9-2.2,5.2-2.5,7.4-0.6C104.2,427.6,106.5,433.1,107.6,436.1z"/>
	</g>
	<g>
		<g>
			<path class="st3" d="M133.9,387.8c-0.2,0-0.4,0-0.5,0l-7.1-0.8c-2.6-0.3-4.6-2.6-4.6-5.2l0.8-30.5c0-1.4-1.1-2.7-2.5-2.9
				l-1.8-0.2c-0.1,0-0.2,0-0.3,0c-1.2,0-2.1,0.9-2.2,2.1l-0.8,30.5c-0.1,2.5-2,4.4-4.5,4.4c-0.2,0-0.4,0-0.5,0l-7.1-0.8
				c-2.6-0.3-4.6-2.6-4.6-5.2l0-0.2c0.1-2.5,2-4.4,4.3-4.4c0.2,0,0.3,0,0.5,0c0.1,0,0.2,0,0.2,0c1.1,0,2-0.9,2-2.2l1.5-58
				c0-1.4-1.1-2.7-2.5-2.9l-17.4-2c-2.6-0.3-4.6-2.6-4.6-5.2l0-0.2c0.1-2.5,2-4.4,4.5-4.4c0.2,0,0.3,0,0.5,0l65.4,7
				c2.6,0.3,4.6,2.6,4.6,5.2l-0.5,20.1c-0.1,2.5-2.1,4.4-4.5,4.4c-0.2,0-0.3,0-0.5,0l-16.6-1.6c-0.1,0-0.2,0-0.2,0
				c-1.2,0-2.2,0.9-2.2,2.2l-1,38.1c0,1.4,1,2.7,2.3,2.9c2.5,0.3,4.4,2.6,4.3,5.2l0,0.2C138.3,385.8,136.4,387.8,133.9,387.8z
				 M135.5,314.9c-1.3,0-2.2,1-2.3,2.2l-0.1,5.1c0,1.4,1.1,2.7,2.5,2.8l9,0.8c0.1,0,0.1,0,0.2,0c1.3,0,2.2-1,2.3-2.2l0.1-5.1
				c0-1.4-1.1-2.7-2.5-2.8l-9-0.8C135.7,314.9,135.6,314.9,135.5,314.9z"/>
			<path class="st3" d="M86.8,300.8c0.1,0,0.3,0,0.4,0l65.4,7c2,0.2,3.6,2,3.5,4l-0.5,20.1c0,1.9-1.5,3.3-3.4,3.3
				c-0.1,0-0.2,0-0.3,0l-16.6-1.6c-0.1,0-0.2,0-0.3,0c-1.8,0-3.3,1.4-3.4,3.3l-1,38.1c-0.1,2,1.4,3.8,3.3,4c1.9,0.2,3.4,2,3.3,4
				l0,0.2c0,1.9-1.5,3.3-3.3,3.3c-0.1,0-0.3,0-0.4,0l-7.1-0.8c-2-0.2-3.6-2-3.5-4.1l0.8-30.5c0.1-2-1.5-3.8-3.5-4.1l-1.8-0.2
				c-0.1,0-0.3,0-0.4,0c-1.8,0-3.3,1.4-3.3,3.3l-0.8,30.5c0,1.9-1.5,3.3-3.3,3.3c-0.1,0-0.3,0-0.4,0l-7.1-0.8c-2-0.2-3.6-2-3.5-4.1
				l0-0.2c0-1.9,1.4-3.3,3.1-3.3c0.1,0,0.2,0,0.4,0c0.1,0,0.2,0,0.4,0c1.7,0,3.1-1.4,3.1-3.3l1.5-58c0.1-2-1.5-3.8-3.5-4.1l-17.4-2
				c-2-0.2-3.6-2-3.5-4.1l0-0.2C83.5,302.2,85,300.8,86.8,300.8 M144.8,327c1.9,0,3.4-1.4,3.4-3.3l0.1-5.1c0.1-2-1.5-3.8-3.5-4
				l-9-0.8c-0.1,0-0.2,0-0.3,0c-1.9,0-3.4,1.4-3.4,3.3l-0.1,5.1c-0.1,2,1.5,3.8,3.5,4l9,0.8C144.6,327,144.7,327,144.8,327
				 M86.8,298.5c-3.1,0-5.6,2.4-5.6,5.5l0,0.2c-0.1,3.2,2.4,6,5.6,6.4l17.4,2c0.8,0.1,1.5,0.9,1.5,1.7l-1.5,58c0,0.6-0.4,1-0.8,1
				c0,0-0.1,0-0.1,0c-0.2,0-0.4,0-0.6,0c-3,0-5.4,2.4-5.4,5.5l0,0.2c-0.1,3.2,2.4,6,5.6,6.4l7.1,0.8c0.2,0,0.4,0,0.7,0
				c3.1,0,5.5-2.4,5.6-5.5l0.8-30.5c0-0.6,0.4-1,1-1c0,0,0.1,0,0.1,0l1.8,0.2c0.8,0.1,1.5,0.9,1.5,1.7l-0.8,30.5
				c-0.1,3.2,2.4,6,5.6,6.4l7.1,0.8c0.2,0,0.4,0,0.7,0c3.1,0,5.5-2.4,5.6-5.5l0-0.2c0.1-3.2-2.3-6-5.4-6.4c-0.7-0.1-1.3-0.9-1.3-1.7
				l1-38.1c0-0.6,0.5-1.1,1.1-1.1c0,0,0.1,0,0.1,0l16.6,1.6c0.2,0,0.4,0,0.6,0c3.1,0,5.6-2.4,5.7-5.6l0.5-20.1
				c0.1-3.2-2.4-6-5.6-6.4l-65.4-7C87.2,298.5,87,298.5,86.8,298.5L86.8,298.5z M144.8,324.7c0,0-0.1,0-0.1,0l-9-0.8
				c-0.8-0.1-1.5-0.8-1.4-1.6l0.1-5.1c0-0.6,0.5-1.1,1.1-1.1c0,0,0.1,0,0.1,0l9,0.8c0.8,0.1,1.5,0.8,1.4,1.6l-0.1,5.1
				C145.9,324.2,145.5,324.7,144.8,324.7L144.8,324.7z"/>
		</g>
		<path class="st1" d="M16.9,286.9c0,0,12.9-2.6,20.8-0.5c4.9,1.3,9.8,7.5,23,7.5c16.7,0,25.2-6.9,25.2-6.9l-0.8-22.2
			c0,0-8.9,7.2-24.2,7.2c-11.4,0-17.8-7.6-23.4-8.8c-9.6-2.1-20.6,1.7-20.6,1.7V286.9z"/>
		<line class="st6" x1="84.4" y1="375" x2="84.4" y2="265.7"/>
		<g>
			<path class="st3" d="M117.4,265.1c2.8-4.4,7.1-4.3,9.8,0.2l12,20.6c2.6,4.5,0.5,8.1-4.7,8.1h-25.9c-5.2,0-7.2-3.6-4.4-8
				L117.4,265.1z"/>
		</g>
		<g>
			<line class="st7" x1="111.2" y1="331.1" x2="110.8" y2="343.4"/>
			<line class="st8" x1="110.5" y1="337.3" x2="105.4" y2="332.1"/>
			
				<ellipse transform="matrix(0.9999 -1.422843e-02 1.422843e-02 0.9999 -4.7146 1.5328)" class="st9" cx="105.4" cy="332.1" rx="2.9" ry="2.9"/>
		</g>
		<polygon class="st1" points="114.8,327.3 111.1,327 111.6,312.1 115.3,312.5 		"/>
		<polygon class="st1" points="121.4,328 117.7,327.7 118.2,312.8 121.9,313.1 		"/>
		<polygon class="st1" points="128,328.7 124.3,328.3 124.9,313.5 128.5,313.8 		"/>
		<g>
			<g>
				<path class="st3" d="M145.7,311.8c4.1-1,6.6,1.6,5.5,5.7l-4.8,18.7c-1,4.1-4.3,5-7.3,2l-14.9-14.8c-3-3-2.1-6.2,2-7.1
					L145.7,311.8z"/>
				<path class="st10" d="M145.7,311.8c4.1-1,6.6,1.6,5.5,5.7l-4.8,18.7c-1,4.1-4.3,5-7.3,2l-14.9-14.8c-3-3-2.1-6.2,2-7.1
					L145.7,311.8z"/>
			</g>
			<line class="st11" x1="137.8" y1="316.6" x2="139.5" y2="318.5"/>
		</g>
	</g>
</g>
</svg>
