<svg xmlns="http://www.w3.org/2000/svg" viewBox="0 0 1243.25 1210.08"><defs><style>.cls-1,.cls-6,.cls-7{fill:none;}.cls-1{stroke:#3c9195;}.cls-1,.cls-2,.cls-7{stroke-miterlimit:10;}.cls-1,.cls-2{stroke-width:6.04px;}.cls-2,.cls-4{fill:#ff665c;}.cls-2{stroke:#ff665c;}.cls-3{fill:#006464;}.cls-5{fill:#406462;}.cls-6,.cls-7{stroke:#006464;stroke-linecap:round;stroke-width:7.76px;}.cls-6{stroke-linejoin:round;}.cls-8{fill:#806560;}.cls-9{fill:#bf655e;}</style></defs><title>資產 5</title><g id="圖層_2" data-name="圖層 2"><g id="首頁階梯"><circle class="cls-1" cx="638.21" cy="605.04" r="602.02"/><circle class="cls-2" cx="638.21" cy="605.04" r="602.02"/><path class="cls-3" d="M1177.92,514.29l9.45-37.16c1.57-4.16,4.94-3.6,5.48.91L1203,517.56a3.62,3.62,0,0,1-.89,3c-3,4.17-8.59,5.33-15.72,4.25C1177.85,523.54,1176.75,517.23,1177.92,514.29Z"/><path class="cls-4" d="M1185.41,484.59l-1.36,5.36a9.45,9.45,0,0,0,6.15,2.09c4.13.11,5.66-2.41,5.66-2.41l-1.33-5.17a5.74,5.74,0,0,1-4.46,1.77A7.65,7.65,0,0,1,1185.41,484.59Z"/><path class="cls-3" d="M201.4,294.5l34,58.11a18.52,18.52,0,0,1-16,27.86H148.85a18.52,18.52,0,0,1-15.67-28.38L169.74,294a18.52,18.52,0,0,1,31.66.52Z"/><path class="cls-5" d="M130.3,404.84l34,58.11a18.52,18.52,0,0,1-16,27.86H77.74a18.52,18.52,0,0,1-15.67-28.4L98.63,404.3a18.52,18.52,0,0,1,31.67.54Z"/><polyline class="cls-6" points="113 531.97 113 476.77 134.28 450.54"/><line class="cls-7" x1="113" y1="476.77" x2="91.58" y2="455.35"/><line class="cls-7" x1="113" y1="478.34" x2="113" y2="416.29"/><path class="cls-8" d="M88.63,526.41l34,58.11a18.52,18.52,0,0,1-16,27.86H36.08A18.52,18.52,0,0,1,20.41,584L57,525.89a18.52,18.52,0,0,1,31.66.52Z"/><polyline class="cls-6" points="71.34 653.5 71.34 598.3 92.62 572.06"/><line class="cls-7" x1="71.34" y1="598.3" x2="49.92" y2="576.88"/><line class="cls-7" x1="71.34" y1="599.87" x2="71.34" y2="537.82"/><path class="cls-9" d="M71.06,655.93l34,58.11a18.52,18.52,0,0,1-16,27.86H18.51A18.52,18.52,0,0,1,2.84,713.52L39.4,655.41a18.52,18.52,0,0,1,31.66.52Z"/><polyline class="cls-6" points="53.77 783.06 53.77 727.86 75.05 701.63"/><line class="cls-7" x1="53.77" y1="727.86" x2="32.35" y2="706.44"/><line class="cls-7" x1="53.77" y1="729.43" x2="53.77" y2="667.38"/><path class="cls-4" d="M108.2,781.83l34,58.11a18.52,18.52,0,0,1-16,27.86H55.65A18.52,18.52,0,0,1,40,839.41L76.54,781.3a18.52,18.52,0,0,1,31.66.53Z"/><polyline class="cls-6" points="90.92 908.97 90.92 853.77 112.19 827.54"/><line class="cls-7" x1="90.92" y1="853.77" x2="69.5" y2="832.35"/><line class="cls-7" x1="90.92" y1="855.34" x2="90.92" y2="793.29"/></g></g></svg>