<svg xmlns="http://www.w3.org/2000/svg" viewBox="0 0 505.35 530.18"><defs><style>.cls-1{fill:#0f9bff;stroke:#0f9bff;stroke-miterlimit:10;stroke-width:6.04px;}.cls-2{fill:#006464;}</style></defs><title>資產 1</title><g id="圖層_2" data-name="圖層 2"><g id="首頁階梯"><circle class="cls-1" cx="257.06" cy="248.29" r="245.27"/><path class="cls-2" d="M124.49,350.81c3.21,2,3.12,5-.21,6.75l-12.43,6.57c-3.32,1.76-6.45.15-7-3.58l-2.22-16.89c-.5-3.72,1.71-5.17,4.92-3.22Z"/><path class="cls-2" d="M35.32,376.43a6.5,6.5,0,0,1-6.06,4.89H17.76A6,6,0,0,0,12,386.26l-1.63,10.8A4.18,4.18,0,0,0,14.63,402H15a6.43,6.43,0,0,0,6-4.89l.12-.56a6.43,6.43,0,0,1,6-4.89h12a6.42,6.42,0,0,0,6-4.9l3.35-16.24a6.42,6.42,0,0,1,6-4.9h9.08a5.86,5.86,0,0,1,5.64,5l.83,6.46a4.29,4.29,0,0,1-4.36,5H58A4.88,4.88,0,0,0,53.17,387s0,.08,0,.12l.23,10a5.14,5.14,0,0,0,5.08,5,4.85,4.85,0,0,0,4.84-4.86s0-.09,0-.14v-.42a4.87,4.87,0,0,1,4.74-5h8.45a4.31,4.31,0,0,0,4.38-5l-2-16.11c-.34-2.73,1.42-5,3.91-5a5.7,5.7,0,0,1,5.25,5L91.86,397a6,6,0,0,0,5.71,5h.35a4.22,4.22,0,0,0,4.23-4.87l-8.58-59.57a6,6,0,0,0-5.71-5h-38a6.5,6.5,0,0,0-6.06,4.89Z"/><path class="cls-2" d="M111.46,371.58a4.11,4.11,0,0,0-4.18,4.93l3.36,20.27a6.12,6.12,0,0,0,5.82,4.93h.35a4.11,4.11,0,0,0,4.18-4.93l-3.36-20.27a6.12,6.12,0,0,0-5.82-4.93Z"/><path class="cls-2" d="M131.69,54.85c-3.6-1.07-4.29-4-1.53-6.58l13.08-12.08c2.76-2.55,5.48-1.6,6,2.12l2.42,16c.56,3.72-1.93,5.88-5.53,4.82Z"/><path class="cls-2" d="M204.06,126.66a5.84,5.84,0,0,1-5.63-5l-9-70.56a5.84,5.84,0,0,0-5.63-5H158.64s.18,2.23.5,5l3.35,28a4.34,4.34,0,0,1-4.41,5h-6c-2.75,0-5.24-2-5.53-4.39a3.82,3.82,0,0,1,3.07-4.44l.47-.06c2.24-.06,4.06-2.23,4-4.81a4.54,4.54,0,0,0-4.28-4.7h-9a4.37,4.37,0,0,0-4.28,5l4.73,51a4.34,4.34,0,0,1-4.2,5,4.32,4.32,0,0,0-4.18,5v.39a5.63,5.63,0,0,0,5.48,5H148a4.46,4.46,0,0,0,4.52-5l-2.15-22.27a4.46,4.46,0,0,1,4.52-5h25a6,6,0,0,1,5.72,4.95l3.26,22.33a6,6,0,0,0,5.72,4.95h22.08a4.46,4.46,0,0,0,4.52-5v-.39a5.63,5.63,0,0,0-5.48-5Z"/><path class="cls-2" d="M67.62,229.26a5,5,0,0,1-5-5v-27.6a5,5,0,0,1,5-5H68a5,5,0,0,0,5-5V144.25a4.85,4.85,0,0,1,4.66-5,4.85,4.85,0,0,0,4.66-5v-.35a5,5,0,0,0-5-5H67.63a5,5,0,0,0-5,5V176a5,5,0,0,1-5,5H34.53a5,5,0,0,1-5-5V133.9a5,5,0,0,0-5-5H14.87a5,5,0,0,0-5,5v.35a4.85,4.85,0,0,0,4.66,5,4.85,4.85,0,0,1,4.66,5v42.41a5,5,0,0,0,5,5h.35a5,5,0,0,1,5,5v27.6a5,5,0,0,1-5,5H13.35a5,5,0,0,0-5,5l.14,22.21c0,2.75-1.89,5-4.23,5S0,263.7,0,266.47a5,5,0,0,0,5,5h8.92a5,5,0,0,0,5-5V244.61a5,5,0,0,1,5-5h44.5a5,5,0,0,1,5,5v21.78a5,5,0,0,0,5,5h7.91a5,5,0,0,0,5-5c0-2.73-1.7-5-3.78-5s-3.78-2.25-3.78-5V234.26a5,5,0,0,0-5-5Z"/><path class="cls-2" d="M49.25,267.78c-2,3.18-5.19,3.13-7.09-.12l-8.73-14.94c-1.9-3.24-.37-5.9,3.39-5.9H55.61c3.76,0,5.2,2.6,3.19,5.78Z"/><path class="cls-2" d="M216.15,450.73c3.08,0,5.6-2.4,5.61-5s-2.46-4.82-5.54-4.82h-15a4.64,4.64,0,0,1-4.73-5.52l2.85-18.18H154.69c-3.08,0-6,2.49-6.59,6.27l-3.89,23.28c-.67,4,1.74,6.3,4.38,6.3,3,0,5-2,5.43-5.08l2.52-14.91c.48-3,3.13-5.52,5.89-5.52s4.12,2.48,3.6,5.51l-12.24,71.3a6.89,6.89,0,0,1-6.54,5.51h-6.79a6.77,6.77,0,0,0-6.46,5.52l-1.45,9.27a4.88,4.88,0,0,0,4.74,5.52c2.64,0,4.82-2.27,5.33-5a6.71,6.71,0,0,1,6.51-5h5.1a9.86,9.86,0,0,0,9.3-7.7l5.35-28.3a7,7,0,0,1,6.63-5.5h16.16a4.64,4.64,0,0,1,4.73,5.52l-6.25,39.36a5.56,5.56,0,0,0,5.66,6.61h10c3.08,0,6.18-1.42,6.18-5.2,0-1.77-1.41-4.4-5.58-4.4h0a4.64,4.64,0,0,1-4.73-5.52L207.82,476a6.63,6.63,0,0,0-6.67-7.9H197a4.64,4.64,0,0,1-4.73-5.52l1.85-11.8h22Z"/><path class="cls-2" d="M186.5,388.56c1.86-2.45,4.42-2.17,5.7.63l7.39,16.19c1.28,2.8-.19,5.09-3.27,5.09h-20.8c-3.08,0-4.07-2-2.22-4.46Z"/></g></g></svg>