<?xml version="1.0" encoding="utf-8"?>
<!-- Generator: Adobe Illustrator 20.1.0, SVG Export Plug-In . SVG Version: 6.00 Build 0)  -->
<svg version="1.1" id="圖層_1" xmlns="http://www.w3.org/2000/svg" xmlns:xlink="http://www.w3.org/1999/xlink" x="0px" y="0px"
	 viewBox="0 0 952 855" style="enable-background:new 0 0 952 855;" xml:space="preserve">
<style type="text/css">
	.st0{fill:#FFCD32;stroke:#FFCD32;stroke-width:6.0392;stroke-miterlimit:10;}
	.st1{fill:#006464;stroke:#FFCD32;stroke-width:4;stroke-linecap:round;stroke-linejoin:round;stroke-miterlimit:10;}
	.st2{fill:#006464;}
	.st3{fill:#FFCD32;}
	.st4{fill:#E0E0E0;stroke:#3C9195;stroke-width:4;stroke-linecap:round;stroke-linejoin:round;stroke-miterlimit:10;}
</style>
<g>
	<circle class="st0" cx="525.9" cy="428.6" r="423.6"/>
	<g>
		<path class="st1" d="M233.9,536.5L233.9,536.5c-2.2,0-4-1.8-4-4v-40.3c0-2.2,1.8-4,4-4l0,0c2.2,0,4,1.8,4,4v40.3
			C237.9,534.7,236.1,536.5,233.9,536.5z"/>
		<g>
			<path class="st2" d="M149.5,536.5L149.5,536.5c-2.2,0-4-1.8-4-4v-40.3c0-2.2,1.8-4,4-4l0,0c2.2,0,4,1.8,4,4v40.3
				C153.5,534.7,151.7,536.5,149.5,536.5z"/>
		</g>
		<g>
			<path class="st2" d="M65.1,538.5c-3.3,0-6-2.7-6-6v-40.3c0-3.3,2.7-6,6-6s6,2.7,6,6v40.3C71.1,535.8,68.4,538.5,65.1,538.5z"/>
			<path class="st3" d="M65.1,488.2c2.2,0,4,1.8,4,4v40.3c0,2.2-1.8,4-4,4c-2.2,0-4-1.8-4-4v-40.3C61.1,490,62.9,488.2,65.1,488.2
				 M65.1,484.2c-4.4,0-8,3.6-8,8v40.3c0,4.4,3.6,8,8,8s8-3.6,8-8v-40.3C73.1,487.8,69.5,484.2,65.1,484.2L65.1,484.2z"/>
		</g>
		<polygon class="st4" points="278.1,496.4 4.5,496.4 12.8,480.1 286.5,480.1 		"/>
		<polygon class="st1" points="278.1,348.3 4.5,348.3 12.8,332 286.5,332 		"/>
		<polygon class="st1" points="278.1,348.3 278.1,496.4 286.5,480.1 286.5,332 		"/>
		<rect x="4.5" y="348.3" class="st1" width="273.7" height="148.1"/>
		<g>
			<g>
				<path class="st3" d="M44.3,446.6h2.3l1.4,9.8h-2.2l-0.2-2h-3.6l-1.1,2h-2.1L44.3,446.6z M42.9,452.7h2.5l-0.4-3.9L42.9,452.7z"
					/>
				<path class="st3" d="M51.9,446.6l0.1,5.6l-0.1,1.6l0.6-1.5l2.3-5.7h2.2l0,5.6l0,1.6l0.6-1.5l2.5-5.7h2.1l-4.9,9.8h-2l0-5.8
					l0.1-1.9l-0.7,1.9l-2.4,5.8h-1.9l-0.7-9.8H51.9z"/>
				<path class="st3" d="M65.6,446.6h2.3l1.4,9.8H67l-0.2-2h-3.6l-1.1,2H60L65.6,446.6z M64.1,452.7h2.5l-0.4-3.9L64.1,452.7z"/>
				<path class="st3" d="M79.8,447.6c0.2,0.2,0.3,0.5,0.3,0.8c0.1,0.3,0.1,0.6,0,1c-0.1,0.5-0.3,0.9-0.7,1.4c-0.3,0.5-0.8,0.8-1.4,1
					c0.4,0.2,0.7,0.4,0.8,0.8c0.1,0.3,0.1,0.8,0,1.5l-0.1,0.7c-0.1,0.4-0.1,0.8-0.1,0.9c0,0.3,0.1,0.4,0.3,0.6l0,0.2h-2.3
					c0-0.2,0-0.4,0-0.5c0-0.3,0-0.6,0.1-0.8l0.2-0.9c0.1-0.6,0.1-1-0.1-1.3s-0.6-0.3-1.2-0.3h-2.1l-0.8,3.9h-2l2.1-9.8h4.8
					c0.7,0,1.2,0.1,1.5,0.3S79.6,447.2,79.8,447.6z M74.3,448.3l-0.6,2.6h2.3c0.5,0,0.8-0.1,1.1-0.2c0.4-0.2,0.7-0.6,0.9-1.1
					c0.1-0.6,0-1-0.3-1.2c-0.2-0.1-0.5-0.2-1-0.2H74.3z"/>
				<path class="st3" d="M89.4,448.4h-5.2l-0.4,2.1h4.8l-0.4,1.7h-4.8l-0.5,2.5h5.4l-0.4,1.8h-7.5l2.1-9.8h7.2L89.4,448.4z"/>
				<path class="st3" d="M91.6,446.6h2.2l2.5,6.9l1.5-6.9h1.9l-2.1,9.8h-2.1l-2.5-7l-1.5,7h-1.9L91.6,446.6z"/>
				<path class="st3" d="M108.3,448.4h-5.2l-0.4,2.1h4.8l-0.4,1.7h-4.8l-0.5,2.5h5.4l-0.4,1.8h-7.5l2.1-9.8h7.2L108.3,448.4z"/>
				<path class="st3" d="M110.6,453.4c0,0.4,0,0.8,0.2,1c0.2,0.4,0.8,0.6,1.6,0.6c0.5,0,0.9-0.1,1.2-0.2c0.6-0.2,1-0.6,1.1-1.1
					c0.1-0.3,0-0.6-0.3-0.8c-0.2-0.2-0.7-0.3-1.2-0.5l-1-0.2c-1-0.2-1.6-0.5-2-0.8c-0.6-0.5-0.7-1.2-0.5-2.1
					c0.2-0.9,0.7-1.6,1.4-2.2c0.8-0.6,1.8-0.9,3-0.9c1,0,1.9,0.3,2.5,0.8c0.6,0.5,0.8,1.3,0.6,2.4h-2c0.1-0.6-0.1-1-0.5-1.3
					c-0.3-0.2-0.7-0.2-1.1-0.2c-0.5,0-1,0.1-1.3,0.3s-0.6,0.5-0.7,0.9c-0.1,0.4,0,0.6,0.3,0.8c0.2,0.1,0.6,0.3,1.2,0.4l1.6,0.4
					c0.7,0.2,1.2,0.4,1.5,0.7c0.5,0.5,0.6,1.1,0.5,2c-0.2,0.9-0.7,1.6-1.5,2.2c-0.8,0.6-1.8,0.9-3.1,0.9c-1.3,0-2.2-0.3-2.8-0.9
					c-0.6-0.6-0.8-1.4-0.6-2.4H110.6z"/>
				<path class="st3" d="M119.7,453.4c0,0.4,0,0.8,0.2,1c0.2,0.4,0.8,0.6,1.6,0.6c0.5,0,0.9-0.1,1.2-0.2c0.6-0.2,1-0.6,1.1-1.1
					c0.1-0.3,0-0.6-0.3-0.8c-0.2-0.2-0.7-0.3-1.2-0.5l-1-0.2c-1-0.2-1.6-0.5-2-0.8c-0.6-0.5-0.7-1.2-0.5-2.1
					c0.2-0.9,0.7-1.6,1.4-2.2c0.8-0.6,1.8-0.9,3-0.9c1,0,1.9,0.3,2.5,0.8c0.6,0.5,0.8,1.3,0.6,2.4h-2c0.1-0.6-0.1-1-0.5-1.3
					c-0.3-0.2-0.7-0.2-1.1-0.2c-0.5,0-1,0.1-1.3,0.3s-0.6,0.5-0.7,0.9c-0.1,0.4,0,0.6,0.3,0.8c0.2,0.1,0.6,0.3,1.2,0.4l1.6,0.4
					c0.7,0.2,1.2,0.4,1.5,0.7c0.5,0.5,0.6,1.1,0.5,2c-0.2,0.9-0.7,1.6-1.5,2.2c-0.8,0.6-1.8,0.9-3.1,0.9c-1.3,0-2.2-0.3-2.8-0.9
					c-0.6-0.6-0.8-1.4-0.6-2.4H119.7z"/>
			</g>
			<g>
				<path class="st3" d="M58,468c-0.5,0.7-1.2,1.4-1.8,2.1l-1.4,7.2h-2l1-4.9c-0.4,0.3-0.7,0.5-1,0.8c-0.2-0.4-0.7-1.3-1-1.7
					c1.6-1,3.4-2.5,4.5-4.1L58,468z M58.1,465c-1.3,1.4-3.1,2.8-4.6,3.7c-0.2-0.5-0.5-1.2-0.8-1.6c1.3-0.7,2.8-2,3.7-2.9L58.1,465z
					 M64.9,470.7h-1.8l-0.8,4.3c-0.2,1-0.5,1.6-1.2,1.9c-0.7,0.3-1.6,0.3-2.8,0.3c0-0.6,0-1.5-0.2-2c0.7,0,1.6,0,1.8,0
					c0.2,0,0.3-0.1,0.4-0.2l0.8-4.3h-3.7l0.4-1.9h7.6L64.9,470.7z M65.3,466.9h-6.7L59,465h6.7L65.3,466.9z"/>
				<path class="st3" d="M79.1,467.3c0,0-0.1,0.6-0.2,0.8c-1.2,5.5-1.7,7.6-2.2,8.2c-0.4,0.5-0.8,0.7-1.3,0.8
					c-0.5,0.1-1.1,0.1-1.7,0.1c0.1-0.5,0-1.4-0.2-1.9c0.5,0.1,1,0.1,1.3,0.1c0.2,0,0.3-0.1,0.5-0.2c0.3-0.4,0.8-2,1.6-6.1H76
					c-0.9,3.7-2.1,6.4-4.7,8.2c-0.1-0.3-0.4-0.7-0.7-1.1c-2.1,0.2-4.3,0.4-5.9,0.5l0.1-1.6c0.8,0,1.7-0.1,2.7-0.2l0.1-0.6h-2.3
					l0.3-1.4h2.3l0.1-0.4h-2.2l0.8-4.3h2.2l0.1-0.3h-2.6l0.3-1.4h2.6l0.1-0.3c-0.7,0-1.5,0.1-2.2,0.1c0-0.4,0-1-0.2-1.4
					c2.1-0.1,4.4-0.3,6-0.7l0.5,1.5c-0.7,0.1-1.6,0.3-2.4,0.4l-0.1,0.5h2.5l-0.3,1.4h-2.5l-0.1,0.3h2.3l-0.8,4.3h-2.3l-0.1,0.4h2.4
					l-0.3,1.4c1.1-1.4,1.7-3.1,2.3-5.3H73l0.4-1.8h1.1c0.2-0.9,0.3-1.8,0.5-2.8h1.9c-0.2,1-0.4,1.9-0.6,2.8H79.1z M68.2,471.5
					l0.1-0.4h-0.7l-0.1,0.4H68.2z M67.9,469.9h0.7l0.1-0.4h-0.7L67.9,469.9z M69.4,474.9c0.7-0.1,1.5-0.1,2.2-0.2
					c0.1-0.1,0.2-0.2,0.3-0.3h-2.4L69.4,474.9z M70.8,471h-0.7l-0.1,0.4h0.7L70.8,471z M70.4,469.5l-0.1,0.4H71l0.1-0.4H70.4z"/>
				<path class="st3" d="M87.5,469.8c0.4,2.5,1.6,4.5,3.9,5.4c-0.6,0.4-1.4,1.3-1.8,1.9c-2.2-1.1-3.3-2.9-3.9-5.3
					c-1.2,2.1-3,4-6,5.3c-0.2-0.5-0.7-1.3-1.2-1.7c3.3-1.4,4.9-3.4,5.9-5.6h-4.5l0.4-2.1h4.8c0.3-1.2,0.6-2.4,0.8-3.5h2.2
					c-0.2,1.1-0.5,2.3-0.8,3.5h5.2l-0.4,2.1H87.5z"/>
				<path class="st3" d="M102.2,472.2c-0.3,0.8-0.6,1.6-1.1,2.2c1.1,0.5,2.5,0.9,4.3,1c-0.5,0.4-1.2,1.2-1.5,1.8
					c-1.7-0.2-3.1-0.7-4.2-1.4c-0.8,0.6-1.7,1-2.9,1.4c-0.1-0.4-0.6-1.2-0.9-1.7c1-0.2,1.8-0.5,2.5-0.9c-0.5-0.5-0.8-1.2-1.1-1.9
					l1.7-0.5c0.2,0.4,0.5,0.8,0.8,1.1c0.3-0.4,0.5-0.8,0.6-1.2h-2.9l0.8-4.2h3l0.1-0.8H98l0.2-1.2c-0.3,0.5-0.6,0.9-0.9,1.3
					l-1.9,9.9h-1.9l1.4-7c-0.4,0.4-0.7,0.7-1.1,1c-0.1-0.5-0.4-1.6-0.6-2.1c1.5-1.2,3.1-3.1,4.2-5l1.7,0.6c-0.1,0.2-0.3,0.5-0.4,0.7
					h3l0.2-1.1h2l-0.2,1.1h3.5l-0.3,1.8h-3.5l-0.1,0.8h3.1l-0.8,4.2H102.2z M99.4,470.6h1.2l0.2-1h-1.2L99.4,470.6z M102.8,469.6
					l-0.2,1h1.2l0.2-1H102.8z"/>
			</g>
			<g>
				<path class="st3" d="M206.2,468c-0.5,0.7-1.2,1.4-1.8,2.1l-1.4,7.2h-2l1-4.9c-0.4,0.3-0.7,0.5-1,0.8c-0.2-0.4-0.7-1.3-1-1.7
					c1.6-1,3.4-2.5,4.5-4.1L206.2,468z M206.3,465c-1.3,1.4-3.1,2.8-4.6,3.7c-0.2-0.5-0.5-1.2-0.8-1.6c1.3-0.7,2.8-2,3.7-2.9
					L206.3,465z M213.1,470.7h-1.8l-0.8,4.3c-0.2,1-0.5,1.6-1.2,1.9c-0.7,0.3-1.6,0.3-2.8,0.3c0-0.6,0-1.5-0.2-2c0.7,0,1.6,0,1.8,0
					c0.2,0,0.3-0.1,0.4-0.2l0.8-4.3h-3.7l0.4-1.9h7.6L213.1,470.7z M213.5,466.9h-6.7l0.4-1.9h6.7L213.5,466.9z"/>
				<path class="st3" d="M227.3,467.3c0,0-0.1,0.6-0.2,0.8c-1.2,5.5-1.7,7.6-2.2,8.2c-0.4,0.5-0.8,0.7-1.3,0.8
					c-0.5,0.1-1.1,0.1-1.7,0.1c0.1-0.5,0-1.4-0.2-1.9c0.5,0.1,1,0.1,1.3,0.1c0.2,0,0.3-0.1,0.5-0.2c0.3-0.4,0.8-2,1.6-6.1h-0.8
					c-0.9,3.7-2.1,6.4-4.7,8.2c-0.1-0.3-0.4-0.7-0.7-1.1c-2.1,0.2-4.3,0.4-5.9,0.5l0.1-1.6c0.8,0,1.7-0.1,2.7-0.2l0.1-0.6h-2.3
					l0.3-1.4h2.3l0.1-0.4H214l0.8-4.3h2.2l0.1-0.3h-2.6l0.3-1.4h2.6l0.1-0.3c-0.7,0-1.5,0.1-2.2,0.1c0-0.4,0-1-0.2-1.4
					c2.1-0.1,4.4-0.3,6-0.7l0.5,1.5c-0.7,0.1-1.6,0.3-2.4,0.4l-0.1,0.5h2.5l-0.3,1.4h-2.5l-0.1,0.3h2.3l-0.8,4.3H218l-0.1,0.4h2.4
					l-0.3,1.4c1.1-1.4,1.7-3.1,2.3-5.3h-1.1l0.4-1.8h1.1c0.2-0.9,0.3-1.8,0.5-2.8h1.9c-0.2,1-0.4,1.9-0.6,2.8H227.3z M216.5,471.5
					l0.1-0.4h-0.7l-0.1,0.4H216.5z M216.1,469.9h0.7l0.1-0.4h-0.7L216.1,469.9z M217.6,474.9c0.7-0.1,1.5-0.1,2.2-0.2
					c0.1-0.1,0.2-0.2,0.3-0.3h-2.4L217.6,474.9z M219,471h-0.7l-0.1,0.4h0.7L219,471z M218.6,469.5l-0.1,0.4h0.7l0.1-0.4H218.6z"/>
				<path class="st3" d="M240.6,471.2c-1.5,3.5-4,5.2-7.3,6.1c-0.1-0.5-0.4-1.3-0.7-1.7c1-0.2,1.9-0.5,2.7-1
					c-0.2-0.3-0.4-0.7-0.7-1.1c-0.2,0.1-0.3,0.2-0.5,0.3c-0.1-0.3-0.4-0.7-0.7-1.1h-1.7c0.6,0.5,1.4,1.2,1.6,1.5l-1.5,1.6
					c-0.2-0.4-0.5-0.9-0.8-1.4l-0.5,2.7h-1.9l0.4-2.3c-0.7,0.8-1.4,1.5-2.1,2c-0.1-0.6-0.3-1.4-0.5-2c0.9-0.5,1.8-1.3,2.5-2.1h-1.6
					l0.3-1.7h2.1l0.1-0.7h-1.9l1.1-5.7h5.8l-0.4,2c1.2-0.7,2.2-1.6,2.7-2.5l1.7,0.3c-0.1,0.2-0.3,0.4-0.4,0.5h1.1l0.4-0.1l1.2,0.5
					c-1,2-2.3,3.4-4,4.4l1.2,0.2c-0.2,0.2-0.3,0.5-0.5,0.7h1.1l0.4-0.1L240.6,471.2z M230.1,468.8h0.6l0.1-0.5h-0.6L230.1,468.8z
					 M230.4,466.9h0.6l0.1-0.5h-0.6L230.4,466.9z M233.7,472.4c1.1-0.5,1.9-1.2,2.5-1.9c-0.5,0.2-1,0.4-1.6,0.6
					c-0.1-0.4-0.4-0.8-0.6-1.2l-0.1,0.5h-2l-0.1,0.7h2.1L233.7,472.4z M232.6,468.8l0.1-0.5h-0.6l-0.1,0.5H232.6z M233,466.9
					l0.1-0.5h-0.6l-0.1,0.5H233z M234.1,469.6c0.8-0.2,1.5-0.5,2.2-0.9c-0.1-0.3-0.3-0.5-0.5-0.8c-0.2,0.1-0.3,0.2-0.5,0.3
					c-0.1-0.3-0.4-0.6-0.7-0.9L234.1,469.6z M236.3,472.5c0.2,0.3,0.5,0.6,0.7,0.9c0.3-0.3,0.7-0.7,0.9-1.1h-1.4L236.3,472.5z
					 M237.3,466.6l-0.1,0.1c0.2,0.2,0.4,0.5,0.6,0.8c0.3-0.3,0.6-0.6,0.8-0.9H237.3z"/>
				<path class="st3" d="M247.3,468.5c-0.2-0.8-0.7-2-1.2-2.9c-0.3,0.6-0.7,1.2-1.1,1.8l-1.9,9.8h-1.9l1.2-6.4
					c-0.2,0.3-0.5,0.5-0.7,0.7c-0.1-0.5-0.3-1.7-0.5-2.2c1.3-1.2,2.6-3.2,3.6-5.1l1.7,0.5c-0.1,0.2-0.3,0.5-0.4,0.8l1.6-0.7
					c0.5,0.9,1.1,2,1.3,2.8L247.3,468.5z M253.5,473.6h-3.4l-0.7,3.6h-2l0.7-3.6h-3.5l0.4-1.8h3.5l0.3-1.3h-2.9l0.4-1.8h2.9l0.8-4.3
					h2l-0.8,4.3h2.9l-0.4,1.8h-2.9l-0.3,1.3h3.4L253.5,473.6z M254.9,465.4c-0.6,1-1.4,2.3-1.9,3.1c-0.3-0.3-1.1-0.6-1.5-0.8
					c0.5-0.7,1.3-1.9,1.7-2.9L254.9,465.4z"/>
			</g>
			<g>
				<path class="st3" d="M154.2,473.2c-0.4,0.3-0.7,0.6-1.2,0.8c0.8,0.1,1.6,0.2,2.5,0.2c-0.3,0.2-0.6,0.7-0.8,1
					c-1.3-0.1-2.4-0.3-3.3-0.6c-1.1,0.3-2.4,0.5-3.6,0.6c-0.1-0.3-0.2-0.8-0.4-1c0.9,0,1.8-0.1,2.6-0.2c-0.2-0.2-0.5-0.3-0.7-0.5
					c-0.4,0.2-0.8,0.4-1.2,0.6c-0.1-0.2-0.3-0.7-0.5-0.9c1-0.3,1.9-0.8,2.5-1.4l-0.2,0.1c0-0.3,0-0.8,0-1.1l0.7-0.2
					c0,0.3,0.1,0.8,0.1,1.1l-0.4,0.1l0.9,0.3c-0.1,0.1-0.1,0.1-0.2,0.2h4.5l-0.2,0.9H154.2z M148.9,470.8c-0.1,0.5-0.3,1.1-0.5,1.5
					c-0.1-0.1-0.4-0.3-0.5-0.4c0.2-0.3,0.3-0.8,0.4-1.3L148.9,470.8z M150.3,470.5c0-0.1,0-0.1,0-0.2c-1.4,0.2-1.7,0.2-1.9,0.3
					c0-0.2-0.1-0.6-0.1-0.8c0.2,0,0.4-0.2,0.6-0.3c0.1-0.1,0.3-0.2,0.5-0.4c-0.5,0-0.6,0.1-0.7,0.1c0-0.2-0.1-0.6-0.1-0.8
					c0.1,0,0.3-0.1,0.4-0.3c0.1-0.1,0.6-0.7,0.9-1.2l0.8,0.3c-0.3,0.4-0.6,0.8-1,1.2l0.4,0c0.2-0.2,0.3-0.3,0.4-0.5l0.7,0.3l0.1-0.5
					h1c0-0.2-0.1-0.3-0.1-0.5l1-0.3c0.1,0.2,0.1,0.6,0.2,0.8h0.7l-0.1,0.6h-2.7l0-0.1c-0.5,0.5-1,1-1.5,1.4l0.6,0c0-0.1,0-0.2,0-0.3
					l0.7-0.2c0.1,0.4,0.1,0.8,0.1,1.1L150.3,470.5z M148.9,472c0.1-0.3,0.1-0.9,0.1-1.3l0.7-0.1c0,0.4,0,0.9-0.1,1.3L148.9,472z
					 M150.5,473.2c0.3,0.2,0.7,0.4,1.1,0.5c0.4-0.1,0.8-0.3,1.1-0.5H150.5z M150.7,471.9l0.3-1.6h2.3l-0.3,1.6H150.7z M153.4,470
					h-2.4l0.1-0.6h2.4L153.4,470z M153.6,469.2h-2.4l0.1-0.6h2.4L153.6,469.2z M151.5,471.3h0.9l0.1-0.4h-0.9L151.5,471.3z
					 M154.3,470.8c-0.1,0.5-0.3,1-0.5,1.4c-0.1-0.1-0.4-0.3-0.6-0.4c0.2-0.3,0.3-0.8,0.4-1.2L154.3,470.8z M155.5,470.5
					c0-0.1,0-0.2,0-0.2c-1.4,0.2-1.7,0.2-1.8,0.3c0-0.2-0.1-0.5-0.1-0.7c0.2,0,0.4-0.1,0.6-0.3c0.1-0.1,0.2-0.2,0.4-0.4
					c-0.5,0-0.6,0.1-0.7,0.1c0-0.2-0.1-0.6-0.1-0.8c0.1,0,0.3-0.1,0.4-0.3c0.1-0.1,0.6-0.6,0.9-1.2l0.8,0.3c-0.3,0.4-0.7,0.8-1,1.2
					l0.4,0c0.2-0.2,0.3-0.3,0.5-0.5l0.7,0.3c-0.3,0.3-0.6,0.6-0.9,0.9l0.6-0.2c0.1,0.4,0.1,0.9,0.1,1.3L155.5,470.5z M154.3,472
					c0.1-0.3,0.1-0.9,0.1-1.3l0.7-0.1c0,0.4,0,0.9-0.1,1.2L154.3,472z M155.5,469.6c0-0.1,0-0.3,0-0.4c-0.2,0.2-0.3,0.3-0.5,0.5
					L155.5,469.6z M155.3,471.9c0-0.3,0-0.9,0-1.3l0.7-0.2c0.1,0.4,0.1,0.9,0.1,1.2L155.3,471.9z"/>
				<path class="st3" d="M165,470.1c-0.6,0.7-1.2,1.3-1.8,1.8l-0.4,1.9c-0.1,0.7-0.3,1-0.8,1.2c-0.5,0.2-1,0.2-1.8,0.2
					c0-0.4-0.1-1-0.2-1.3c-1.1,0.5-2.2,0.9-3.3,1.2c-0.1-0.3-0.4-0.9-0.6-1.2c1.3-0.3,2.5-0.7,3.6-1.2c-1.1,0.1-2.1,0.1-2.9,0.2
					l0.1-1.1c0.3,0,0.7,0,1.1-0.1l0.8-4h1.8c0.2-0.3,0.3-0.6,0.4-0.8l1.5,0.1c-0.2,0.2-0.3,0.5-0.5,0.7h2l-0.4,2.1
					c0.1-0.1,0.2-0.2,0.3-0.4L165,470.1z M159.2,471.7c0.8-0.1,1.6-0.1,2.5-0.2c0.1-0.1,0.2-0.1,0.3-0.2l0,0h-2.7L159.2,471.7z
					 M162.2,470.1h-2.7l-0.1,0.4h2.7L162.2,470.1z M159.8,468.9l-0.1,0.3h2.7l0.1-0.3H159.8z M161.7,473c-0.5,0.3-1.1,0.6-1.6,0.9
					c0.4,0,1,0,1.2,0c0.2,0,0.2-0.1,0.3-0.2L161.7,473z"/>
			</g>
			<g>
				<path class="st3" d="M207.3,446.6h2.3l1.4,9.8h-2.2l-0.2-2h-3.6l-1.1,2h-2.1L207.3,446.6z M205.8,452.7h2.5l-0.4-3.9
					L205.8,452.7z"/>
				<path class="st3" d="M215,447.6c1-0.8,2.1-1.2,3.3-1.2c1.7,0,2.7,0.5,3.3,1.6c0.3,0.6,0.4,1.2,0.3,1.8h-2.1
					c0-0.5-0.1-0.8-0.3-1.1c-0.3-0.4-0.8-0.6-1.5-0.6c-0.7,0-1.4,0.3-2,0.9c-0.6,0.6-1,1.5-1.2,2.6c-0.2,1.1-0.2,1.9,0.2,2.5
					s0.9,0.8,1.6,0.8c0.7,0,1.3-0.2,1.8-0.7c0.3-0.3,0.5-0.6,0.8-1.1h2c-0.4,1.1-1,1.9-1.9,2.6c-0.9,0.7-1.9,1-3,1
					c-1.4,0-2.4-0.5-3-1.4c-0.6-0.9-0.8-2.2-0.4-3.7C213.2,449.9,213.9,448.6,215,447.6z"/>
				<path class="st3" d="M231.3,446.6l-0.4,1.7H228l-1.7,8.1h-2.1l1.7-8.1h-3l0.4-1.7H231.3z"/>
				<path class="st3" d="M232.3,456.4h-2l2.1-9.8h2L232.3,456.4z"/>
				<path class="st3" d="M242,455.6c-0.9,0.8-2.1,1.1-3.5,1.1s-2.4-0.4-3-1.1c-0.8-0.9-1-2.3-0.6-4.1c0.4-1.8,1.2-3.2,2.4-4.1
					c0.9-0.8,2.1-1.1,3.5-1.1s2.4,0.4,3,1.1c0.8,0.9,1,2.3,0.6,4.1C243.9,453.3,243.2,454.6,242,455.6z M242.3,451.5
					c0.2-1.1,0.2-2-0.2-2.6c-0.3-0.6-0.9-0.9-1.7-0.9c-0.8,0-1.5,0.3-2.1,0.9c-0.6,0.6-1,1.5-1.3,2.6c-0.2,1.1-0.2,2,0.2,2.6
					c0.4,0.6,0.9,0.9,1.8,0.9c0.8,0,1.5-0.3,2.1-0.9C241.6,453.5,242,452.6,242.3,451.5z"/>
				<path class="st3" d="M246.9,446.6h2.2l2.5,6.9l1.5-6.9h1.9l-2.1,9.8h-2.1l-2.5-7l-1.5,7h-1.9L246.9,446.6z"/>
			</g>
			<g>
				<path class="st3" d="M182.5,453.2h-39.2c-0.6,0-1.1-0.5-1.1-1.1s0.5-1.1,1.1-1.1H177l-1.4-1.4c-0.4-0.4-0.4-1.2,0-1.6
					c0.4-0.4,1.2-0.4,1.6,0L182.5,453.2z"/>
			</g>
			<g>
				<g>
					<path class="st3" d="M91.5,379.9c0.5-0.9,1.4-0.9,1.9,0l2.4,4.1c0.5,0.9,0.1,1.6-0.9,1.6h-5.1c-1,0-1.4-0.7-0.9-1.6L91.5,379.9
						z"/>
				</g>
			</g>
			<g>
				<g>
					<path class="st3" d="M87.7,399.1l6.8-11.5h-11c-0.9,0-1.6,0.7-1.6,1.6v7.3c0,0.9,0.7,1.6,1.6,1.6h2.7
						C87,397.9,87.6,398.4,87.7,399.1z M84.8,393.5v-1.6c0-0.9,0.7-1.6,1.5-1.6c0.8,0,1.5,0.7,1.5,1.6v1.6c0,0.9,0,1.6-0.1,1.6
						c0,0-0.7,0-1.5,0C85.5,395.1,84.8,394.4,84.8,393.5z"/>
				</g>
				<g>
					<path class="st3" d="M100.8,380.3c-0.8,0-1.4,0.7-1.4,1.6v4.1c0,0.9-0.7,1.6-1.6,1.6h-0.4l-9.6,16.2v9.7c0,0.9-0.6,1.6-1.3,1.6
						c-0.7,0-1.3,0.6-1.3,1.4s0.7,1.4,1.6,1.4h2.3c0.9,0,1.6-0.7,1.6-1.6v-11.2c0-0.9,0.7-1.6,1.6-1.6h0.3c0.9,0,1.6,0.7,1.6,1.6
						v11.2c0,0.9,0.7,1.6,1.6,1.6h2.3c0.9,0,1.6-0.6,1.6-1.4s-0.6-1.4-1.3-1.4c-0.7,0-1.3-0.7-1.3-1.6v-21.6c0-0.9,0.7-1.6,1.6-1.6
						l2.3,0c0.9,0,1.6-0.7,1.6-1.6v-6.9C102.2,381,101.6,380.3,100.8,380.3z"/>
				</g>
			</g>
			<g>
				<g>
					<path class="st3" d="M116.3,379.9c0.5-0.9,1.4-0.9,1.9,0l2.4,4.1c0.5,0.9,0.1,1.6-0.9,1.6h-5.1c-1,0-1.4-0.7-0.9-1.6
						L116.3,379.9z"/>
				</g>
			</g>
			<g>
				<g>
					<path class="st3" d="M68.3,379.9c-0.5-0.9-1.4-0.9-1.9,0L64,384c-0.5,0.9-0.1,1.6,0.9,1.6H70c1,0,1.4-0.7,0.9-1.6L68.3,379.9z"
						/>
				</g>
			</g>
			<g>
				<g>
					<path class="st3" d="M112.6,399.2l6.9-11.7h-11.2c-0.9,0-1.6,0.7-1.6,1.6v7.3c0,0.9,0.7,1.6,1.6,1.6h2.7
						C111.9,397.9,112.5,398.5,112.6,399.2z M109.7,393.5v-1.6c0-0.9,0.7-1.6,1.5-1.6c0.8,0,1.5,0.7,1.5,1.6v1.6
						c0,0.9,0,1.6-0.1,1.6c0,0-0.7,0-1.5,0C110.3,395.1,109.7,394.4,109.7,393.5z"/>
				</g>
				<g>
					<path class="st3" d="M127.2,385.1c-0.8,0-1.4,0.6-1.4,1.2c0,0.7-0.7,1.2-1.6,1.2h-1.8l-9.8,16.5v9.4c0,0.9-0.6,1.6-1.3,1.6
						c-0.7,0-1.3,0.6-1.3,1.4s0.7,1.4,1.6,1.4h2.3c0.9,0,1.6-0.7,1.6-1.6v-11.2c0-0.9,0.7-1.6,1.6-1.6h0.3c0.9,0,1.6,0.7,1.6,1.6
						v11.2c0,0.9,0.7,1.6,1.6,1.6h2.3c0.9,0,1.6-0.6,1.6-1.4s-0.6-1.4-1.3-1.4c-0.7,0-1.3-0.7-1.3-1.6v-21.6c0-0.9,0.7-1.6,1.6-1.6
						l3.8,0c0.9,0,1.6-0.7,1.6-1.6v-2.1C128.7,385.8,128,385.1,127.2,385.1z"/>
				</g>
			</g>
			<g>
				<g>
					<path class="st3" d="M62.9,391.9v6.9l6.7-11.3h-9.6c-0.9,0-1.6-0.6-1.6-1.3c0-0.7-0.6-1.3-1.4-1.3c-0.8,0-1.4,0.7-1.4,1.6v2.3
						c0,0.9,0.7,1.6,1.6,1.6h4.1C62.2,390.4,62.9,391.1,62.9,391.9z"/>
				</g>
				<g>
					<path class="st3" d="M76.2,387.5h-3.7l-9.6,16.2v9.8c0,0.9-0.6,1.6-1.3,1.6s-1.3,0.6-1.3,1.4s0.7,1.4,1.6,1.4h2.3
						c0.9,0,1.6-0.7,1.6-1.6v-11.2c0-0.9,0.7-1.6,1.6-1.6h0.3c0.9,0,1.6,0.7,1.6,1.6v11.2c0,0.9,0.7,1.6,1.6,1.6H73
						c0.9,0,1.6-0.6,1.6-1.4s-0.6-1.4-1.3-1.4c-0.7,0-1.3-0.7-1.3-1.6v-14c0-0.9,0.7-1.6,1.6-1.6h2.7c0.9,0,1.6-0.7,1.6-1.6v-7.3
						C77.8,388.2,77.1,387.5,76.2,387.5z M74.9,393.5c0,0.9-0.6,1.6-1.4,1.6c-0.8,0-1.4,0-1.5,0s-0.1-0.7-0.1-1.6v-1.6
						c0-0.9,0.7-1.6,1.5-1.6c0.8,0,1.5,0.7,1.5,1.6V393.5z"/>
				</g>
			</g>
			<g>
				<g>
					<g>
						<path class="st3" d="M120.8,378.4c-0.2,0-0.3,0-0.4-0.1c-0.3-0.2-0.4-0.7-0.1-1l1.7-2.2c0.2-0.3,0.7-0.4,1-0.1
							c0.3,0.2,0.4,0.7,0.1,1l-1.7,2.2C121.3,378.3,121,378.4,120.8,378.4z"/>
					</g>
				</g>
			</g>
			<g>
				<g>
					<g>
						<path class="st3" d="M122.2,380.9c-0.3,0-0.5-0.1-0.6-0.4c-0.2-0.4,0-0.8,0.3-0.9l2.9-1.4c0.4-0.2,0.8,0,0.9,0.3
							c0.2,0.4,0,0.8-0.3,0.9l-2.9,1.4C122.4,380.9,122.3,380.9,122.2,380.9z"/>
					</g>
				</g>
			</g>
			<g>
				<g>
					<g>
						<path class="st3" d="M126.1,383.6h-3c-0.4,0-0.7-0.3-0.7-0.7s0.3-0.7,0.7-0.7h3c0.4,0,0.7,0.3,0.7,0.7
							S126.5,383.6,126.1,383.6z"/>
					</g>
				</g>
			</g>
			<g>
				<g>
					<g>
						<path class="st3" d="M64,378.4c0.2,0,0.3,0,0.4-0.1c0.3-0.2,0.4-0.7,0.1-1l-1.7-2.2c-0.2-0.3-0.7-0.4-1-0.1
							c-0.3,0.2-0.4,0.7-0.1,1l1.7,2.2C63.6,378.3,63.8,378.4,64,378.4z"/>
					</g>
				</g>
			</g>
			<g>
				<g>
					<g>
						<path class="st3" d="M62.7,380.9c0.3,0,0.5-0.1,0.6-0.4c0.2-0.4,0-0.8-0.3-0.9l-2.9-1.4c-0.4-0.2-0.8,0-0.9,0.3
							c-0.2,0.4,0,0.8,0.3,0.9l2.9,1.4C62.5,380.9,62.6,380.9,62.7,380.9z"/>
					</g>
				</g>
			</g>
			<g>
				<g>
					<g>
						<path class="st3" d="M58.8,383.6h3c0.4,0,0.7-0.3,0.7-0.7s-0.3-0.7-0.7-0.7h-3c-0.4,0-0.7,0.3-0.7,0.7S58.4,383.6,58.8,383.6z
							"/>
					</g>
				</g>
			</g>
			<g>
				<g>
					<path class="st3" d="M100.8,377.7c-0.8,0-1,0.5-1,0.5l0-10.6c0-0.6,0.5-0.9,1-0.8c0.6,0.1,1,0.6,1,1.1l0,10.3
						C101.8,378.2,101.5,377.7,100.8,377.7z"/>
				</g>
			</g>
			<g>
				<g>
					<path class="st3" d="M101.8,371.1c0,0-2-1-6.3-1s-4.5,3-9.2,3s-5.7-2-5.7-2v-4.6c0,0,1.5,2,5.8,2c4.3,0,4.7-3,9-3s6.4,1,6.4,1
						L101.8,371.1z"/>
				</g>
			</g>
			<g>
				<g>
					<rect x="54.3" y="420" class="st3" width="75.6" height="3.5"/>
				</g>
			</g>
			<g>
				<g>
					<rect x="41.3" y="425.8" class="st3" width="99.6" height="3.5"/>
				</g>
			</g>
			<g>
				<g>
					<rect x="29.9" y="431.6" class="st3" width="122.9" height="3.5"/>
				</g>
			</g>
			<g>
				<g>
					<rect x="19.2" y="437.3" class="st3" width="235.5" height="3.5"/>
				</g>
			</g>
			<g>
				<g>
					<g>
						<path class="st3" d="M245.9,406.5c0.8,0,1.5-0.6,1.5-1.3c0-0.7-0.7-1.3-1.5-1.3l-28.5,0c-0.8,0-1.6,0.7-1.8,1.7l-1,6.2
							c-0.2,1.1,0.5,1.7,1.2,1.7c0.8,0,1.3-0.5,1.4-1.4l0.7-4c0.1-0.8,0.8-1.5,1.6-1.5s1.1,0.7,1,1.5l-3.3,19
							c-0.1,0.8-0.9,1.5-1.7,1.5h-1.8c-0.8,0-1.6,0.7-1.7,1.5l-0.4,2.5c-0.1,0.8,0.6,1.5,1.3,1.5c0.7,0,1.3-0.6,1.4-1.3
							s0.9-1.3,1.7-1.3h1.4c1.2,0,2.3-0.9,2.5-2.1l1.4-7.6c0.2-0.8,0.9-1.5,1.8-1.5h4.3c0.8,0,1.4,0.7,1.3,1.5l-1.7,10.5
							c-0.2,1,0.5,1.8,1.5,1.8h2.7c0.8,0,1.6-0.4,1.6-1.4c0-0.5-0.4-1.2-1.5-1.2l0,0c-0.8,0-1.4-0.7-1.3-1.5l1.6-10.4
							c0.2-1.2-0.6-2.1-1.8-2.1h-1.1c-0.8,0-1.4-0.7-1.3-1.5l1.5-9.4L245.9,406.5z"/>
					</g>
				</g>
			</g>
			<g>
				<g>
					<path class="st3" d="M225.9,396.2c0.5-0.7,1.2-0.6,1.5,0.2l2,4.3c0.3,0.7-0.1,1.4-0.9,1.4l-5.6,0c-0.8,0-1.1-0.5-0.6-1.2
						L225.9,396.2z"/>
				</g>
			</g>
			<g>
				<g>
					<path class="st3" d="M246.7,396.2c0.5-0.7,1.2-0.6,1.5,0.2l2,4.3c0.3,0.7-0.1,1.4-0.9,1.4l-5.6,0c-0.8,0-1.1-0.5-0.6-1.2
						L246.7,396.2z"/>
				</g>
			</g>
			<g>
				<g>
					<g>
						<path class="st3" d="M229.6,395.6c-0.2,0-0.3-0.1-0.5-0.2c-0.3-0.3-0.4-0.8-0.1-1.1l1.9-2.5c0.3-0.3,0.8-0.4,1.1-0.1
							c0.3,0.3,0.4,0.8,0.1,1.1l-1.9,2.5C230,395.5,229.8,395.6,229.6,395.6z"/>
					</g>
				</g>
			</g>
			<g>
				<g>
					<g>
						<path class="st3" d="M231,398.4c-0.3,0-0.6-0.2-0.7-0.5c-0.2-0.4,0-0.9,0.4-1.1l3.3-1.6c0.4-0.2,0.9,0,1.1,0.4
							c0.2,0.4,0,0.9-0.4,1.1l-3.3,1.6C231.3,398.3,231.1,398.4,231,398.4z"/>
					</g>
				</g>
			</g>
			<g>
				<g>
					<g>
						<path class="st3" d="M235.4,401.3h-3.3c-0.4,0-0.8-0.4-0.8-0.8c0-0.4,0.4-0.8,0.8-0.8h3.3c0.4,0,0.8,0.4,0.8,0.8
							C236.2,401,235.8,401.3,235.4,401.3z"/>
					</g>
				</g>
			</g>
			<g>
				<g>
					<path class="st3" d="M249.7,403.8l-5,0c-0.8,0-1.6,0.7-1.8,1.5l-1.9,9.6L249.7,403.8z"/>
				</g>
				<g>
					<path class="st3" d="M258.7,397c-0.8,0-1.5,0.7-1.7,1.5l-0.8,3.9c-0.2,0.8-1,1.5-1.8,1.5h-1.6L240,420.2l-0.5,2.4
						c-0.2,0.8-1,1.5-1.8,1.5h-2.7c-0.8,0-1.6,0.7-1.8,1.5l-0.5,2.6c-0.2,0.8,0.3,1.5,1.1,1.5s1.5-0.6,1.7-1.4
						c0.1-0.8,0.9-1.4,1.8-1.4h2.7c0.8,0,1.6-0.7,1.8-1.5l0.8-4.1c0.2-0.8,1-1.5,1.8-1.5h0.4c0.8,0,1.4,0.7,1.2,1.5l-2.2,11.3
						c-0.2,0.8,0.4,1.5,1.2,1.5h2.4c0.8,0,1.6-0.6,1.8-1.4c0.2-0.8-0.3-1.4-1-1.4c-0.7,0-1.1-0.7-1-1.5l4.2-21.6
						c0.2-0.8,1-1.5,1.8-1.5l3.5,0c0.8,0,1.6-0.7,1.8-1.5l1.3-6.7C259.9,397.7,259.4,397,258.7,397z"/>
				</g>
			</g>
			<g>
				<g>
					<path class="st3" d="M195.3,413c0.8,0,1.5-0.7,1.7-1.5l0.7-3.4c0.2-0.8,0.9-1.5,1.7-1.5c0.8,0,1.3,0.7,1.1,1.5l-1.4,7.1
						l8.9-11.4l-10.8,0c-0.8,0-1.6,0.7-1.8,1.5l-1.2,6.2C194,412.3,194.5,413,195.3,413z"/>
				</g>
				<g>
					<path class="st3" d="M221.3,403.8l-10.1,0c0,0,0,0,0,0.1l-12.2,15.6c0.2,0.2,0.5,0.3,0.8,0.3h0.2c0.8,0,1.4,0.7,1.2,1.5
						l-1.1,5.7c-0.2,0.8-1,1.5-1.8,1.5h-2.7c-0.8,0-1.6,0.7-1.8,1.5l-0.5,2.6c-0.2,0.8,0.3,1.5,1.1,1.5c0.8,0,1.5-0.6,1.7-1.4
						c0.1-0.8,0.9-1.4,1.8-1.4h2.7c0.8,0,1.6-0.7,1.8-1.5l1.7-8.5c0.2-0.8,0.3-1.5,0.4-1.5c0,0,0.8,0,1.6,0h2.7
						c0.8,0,1.4,0.7,1.2,1.5l-0.8,4.2c-0.2,0.8,0.4,1.5,1.2,1.5h2.4c0.8,0,1.6-0.6,1.8-1.4c0.2-0.8-0.3-1.4-1-1.4s-1.1-0.7-1-1.5
						l0.8-4.2c0.2-0.8-0.4-1.5-1.2-1.5h-2.6c-0.8,0-1.4-0.7-1.2-1.5l1.4-7.4c0.2-0.8,1-1.5,1.8-1.5l9.4,0c0.8,0,1.6-0.6,1.8-1.4
						S222.1,403.8,221.3,403.8z"/>
				</g>
			</g>
			<g>
				<g>
					<path class="st3" d="M207.5,396.2c0.5-0.7,1.2-0.6,1.5,0.2l2,4.3c0.3,0.7-0.1,1.4-0.9,1.4l-5.6,0c-0.8,0-1.1-0.5-0.6-1.2
						L207.5,396.2z"/>
				</g>
			</g>
			<g>
				<g>
					<path class="st3" d="M258.5,394.7c-0.8,0-1,0.5-1,0.5l0-10.6c0-0.6,0.5-0.9,1-0.8c0.6,0.1,1,0.6,1,1.1l0,10.3
						C259.5,395.2,259.3,394.7,258.5,394.7z"/>
				</g>
			</g>
			<g>
				<g>
					<path class="st3" d="M259.6,388.1c0,0-2-1-6.3-1c-4.3,0-4.5,3-9.2,3c-4.7,0-5.7-2-5.7-2v-4.6c0,0,1.5,2,5.8,2c4.3,0,4.7-3,9-3
						c4.3,0,6.4,1,6.4,1L259.6,388.1z"/>
				</g>
			</g>
			<g>
				<g>
					<path class="st3" d="M183,396.1c0.5-0.7,1.2-0.6,1.5,0.2l2,4.3c0.3,0.8-0.1,1.4-0.9,1.4l-5.6,0c-0.8,0-1.1-0.5-0.6-1.2
						L183,396.1z"/>
				</g>
			</g>
			<g>
				<g>
					<path class="st3" d="M191,410.1l-4,0c-0.8,0-1.4-0.7-1.3-1.5l0.3-1.8l-10.6,13.5l-1.2,6.8c-0.1,0.8-0.9,1.5-1.8,1.5h-1.8
						c-0.8,0-1.6,0.7-1.7,1.5l-0.4,2.5c-0.1,0.8,0.6,1.5,1.3,1.5c0.7,0,1.3-0.6,1.4-1.4c0.1-0.7,0.9-1.4,1.7-1.4h1.4
						c1.2,0,2.3-0.9,2.5-2.1l1.4-7.6c0.2-0.8,1-1.5,1.8-1.5h4.3c0.8,0,1.4,0.7,1.3,1.5l-1.7,10.6c-0.2,1,0.5,1.8,1.5,1.8h2.7
						c0.8,0,1.7-0.4,1.7-1.4c0-0.5-0.4-1.2-1.5-1.2c-0.8,0-1.4-0.7-1.3-1.5l1.6-10.5c0.2-1.2-0.6-2.1-1.8-2.1h-1.1
						c-0.8,0-1.4-0.7-1.3-1.5l0.5-3.2l5.9,0c0.8,0,1.5-0.6,1.5-1.4C192.5,410.7,191.8,410.1,191,410.1z"/>
				</g>
				<g>
					<path class="st3" d="M172.9,413.3c0.8,0,1.3-0.5,1.5-1.4l0.7-4c0.1-0.8,0.8-1.5,1.6-1.5c0.7,0,1.1,0.7,1,1.5l-1.2,7.2l9-11.5
						h-10.8c-0.8,0-1.6,0.7-1.8,1.7l-1,6.2C171.5,412.7,172.2,413.3,172.9,413.3z"/>
				</g>
			</g>
			<g>
				<g>
					<rect x="257.3" y="437.3" class="st3" width="3.5" height="3.5"/>
				</g>
			</g>
			<g>
				<g>
					<rect x="264.5" y="437.3" class="st3" width="1.4" height="3.5"/>
				</g>
			</g>
			<g>
				<g>
					<path class="st3" d="M39.8,391.8c0.6-0.8,1.5-0.7,1.8,0.3l1.5,3.8c0.4,0.9-0.2,1.7-1.2,1.7h-5c-1,0-1.3-0.6-0.7-1.4L39.8,391.8
						z"/>
				</g>
			</g>
			<g>
				<g>
					<path class="st3" d="M43.3,401.2c0.1-0.8-0.6-1.5-1.4-1.5H30.6c-0.8,0-1.6,0.7-1.7,1.5l-0.7,5.5c-0.1,0.8,0.4,1.5,1.2,1.5
						s1.4-0.7,1.6-1.5l0.4-2.7c0.1-0.8,0.9-1.5,1.7-1.5c0.8,0,1.4,0.7,1.3,1.5l-2.5,24.9c-0.1,0.8,0.5,1.5,1.4,1.5h2.6
						c0.8,0,1.6-0.6,1.7-1.4c0.1-0.8-0.5-1.4-1.3-1.4s-1.4-0.7-1.3-1.5l0.9-9.1c0.1-0.8,0.8-1.5,1.7-1.5h3c0.8,0,1.5,0.7,1.4,1.5
						l-0.3,3.2c-0.1,0.8-0.2,2.1-0.3,2.9s0.5,1.4,1.4,1.4h2.2c0.8,0,1.6-0.6,1.7-1.4s-0.4-1.4-1.1-1.4c-0.7,0-1.2-0.7-1.1-1.5l0.6-6
						c0.1-0.8-0.5-1.5-1.2-1.5c-0.8,0-1.4,0-1.3,0s0.1-0.7,0.2-1.5l0.1-1.4c0.1-0.8,0.8-1.5,1.7-1.5l4.5,0c0.8,0,1.6-0.7,1.7-1.4
						s-0.5-1.4-1.4-1.4l-4.6,0c-0.8,0-1.5-0.7-1.4-1.5L43.3,401.2z"/>
				</g>
			</g>
			<g>
				<g>
					<g>
						<path class="st3" d="M48.7,400.7c0.6,0,1.2-0.2,1.6-0.7c0.4-0.4,0.7-1,0.7-1.6c0-0.6-0.2-1.2-0.7-1.6c-0.4-0.4-1-0.7-1.6-0.7
							c-0.6,0-1.2,0.2-1.6,0.7c-0.4,0.4-0.7,1-0.7,1.6c0,0.6,0.2,1.2,0.7,1.6C47.5,400.5,48.1,400.7,48.7,400.7z"/>
					</g>
				</g>
			</g>
			<g>
				<g>
					<path class="st3" d="M48.7,401.5c0.4,0,0.8-0.1,1.1-0.3c0,0,0,0,0,0.1v0.5c0,0.6-0.5,1.1-1.1,1.1c-0.6,0-1.1-0.5-1.1-1.1v-0.5
						c0,0,0,0,0-0.1C47.9,401.4,48.3,401.5,48.7,401.5z"/>
				</g>
			</g>
			<g>
				<g>
					<g>
						<path class="st3" d="M48.7,395c0.3,0,0.6-0.2,0.6-0.6V393c0-0.3-0.2-0.6-0.6-0.6s-0.6,0.2-0.6,0.6v1.5
							C48.2,394.8,48.4,395,48.7,395z"/>
					</g>
				</g>
			</g>
			<g>
				<g>
					<g>
						<path class="st3" d="M50.8,395.8c0.1,0,0.3-0.1,0.4-0.2l0.9-0.8c0.2-0.2,0.2-0.6,0-0.8c-0.2-0.2-0.6-0.2-0.8,0l-0.9,0.8
							c-0.2,0.2-0.2,0.6,0,0.8C50.5,395.8,50.6,395.8,50.8,395.8z"/>
					</g>
				</g>
			</g>
			<g>
				<g>
					<g>
						<path class="st3" d="M46.7,395.8c0.1,0,0.3-0.1,0.4-0.2c0.2-0.2,0.2-0.6,0-0.8l-0.9-0.8c-0.2-0.2-0.6-0.2-0.8,0
							c-0.2,0.2-0.2,0.6,0,0.8l0.9,0.8C46.4,395.8,46.5,395.8,46.7,395.8z"/>
					</g>
				</g>
			</g>
		</g>
	</g>
</g>
</svg>
