<svg xmlns="http://www.w3.org/2000/svg" viewBox="0 0 335.85 318.2"><defs><style>.cls-1,.cls-3{fill:#e0e0e0;}.cls-1{stroke:#e0e0e0;stroke-miterlimit:10;stroke-width:6.04px;}.cls-2{fill:#006464;}.cls-4{fill:none;stroke:#006464;stroke-linecap:round;stroke-linejoin:round;stroke-width:5px;}</style></defs><title>資產 2</title><g id="圖層_2" data-name="圖層 2"><g id="首頁階梯"><circle class="cls-1" cx="176.75" cy="159.1" r="156.08"/><path class="cls-2" d="M52.28,156.35a1.08,1.08,0,0,1,1.07,1.07v44a1.07,1.07,0,1,1-2.14,0v-44a1.08,1.08,0,0,1,1.07-1.07m0-3.38a4.47,4.47,0,0,0-4.44,4.45v44a4.45,4.45,0,1,0,8.91,0v-44A4.47,4.47,0,0,0,52.3,153h0Z"/><path class="cls-2" d="M53.64,151.68l16.2,26.92-4.37-1.52a18.88,18.88,0,0,1-12.47-20l.65-5.44m-3.23-15.07L48,156.49A23.77,23.77,0,0,0,63.84,181.8l17.41,6.06L50.44,136.6h0Z"/><path class="cls-3" d="M93.07,187.94c-12.7,0-26.47-10.36-34.25-25.77-5-9.84-6.92-20.43-5.5-29.82,1.38-9.08,5.76-15.9,12.34-19.23A20.38,20.38,0,0,1,74.94,111c12.7,0,26.47,10.36,34.25,25.77,10.12,20,7,42-6.84,49A20.38,20.38,0,0,1,93.07,187.94Z"/><path class="cls-2" d="M74.93,113.47c11.78,0,24.65,9.8,32,24.4,4.74,9.38,6.61,19.44,5.26,28.32-1.25,8.25-5.15,14.42-11,17.37A17.9,17.9,0,0,1,93,185.44c-11.78,0-24.65-9.8-32-24.4-4.74-9.38-6.61-19.44-5.26-28.32,1.25-8.25,5.15-14.42,11-17.37a17.91,17.91,0,0,1,8.15-1.88h0m0-5a22.89,22.89,0,0,0-10.4,2.42c-15.14,7.65-18.7,31.11-7.94,52.41C65,180,79.79,190.44,93.08,190.44a22.89,22.89,0,0,0,10.4-2.42c15.14-7.65,18.7-31.11,7.94-52.41-8.45-16.73-23.2-27.14-36.49-27.14Z"/><line class="cls-4" x1="67.25" y1="162.27" x2="100.23" y2="140.29"/><line class="cls-4" x1="81.31" y1="171.46" x2="88.75" y2="148.17"/><line class="cls-4" x1="67.64" y1="145.16" x2="88.75" y2="148.17"/><line class="cls-4" x1="35.38" y1="210.89" x2="35.38" y2="109.43"/><line class="cls-4" x1="2.5" y1="127.29" x2="73.84" y2="85.56"/><line class="cls-4" x1="31.67" y1="102.7" x2="48.51" y2="105.99"/><line class="cls-4" x1="13.44" y1="113.94" x2="35.38" y2="119.9"/><line class="cls-4" x1="2.57" y1="120.66" x2="24.41" y2="127.89"/><line class="cls-4" x1="44.77" y1="94.41" x2="61.62" y2="97.7"/><line class="cls-4" x1="56.31" y1="87.42" x2="73.16" y2="90.7"/><polygon class="cls-2" points="12.04 195.23 69.04 195.23 69.04 249.23 45.77 278.89 12.04 278.89 12.04 195.23"/><path class="cls-2" d="M243.54,75.61,253,38.47c1.57-4.16,4.94-3.6,5.48.91L268.65,78.9a3.62,3.62,0,0,1-.89,3c-3,4.17-8.59,5.33-15.72,4.25C243.47,84.86,242.37,78.55,243.54,75.61Z"/><path class="cls-3" d="M251,45.9l-1.36,5.36a9.45,9.45,0,0,0,6.15,2.09c4.13.11,5.66-2.41,5.66-2.41l-1.33-5.17a5.74,5.74,0,0,1-4.46,1.77A7.65,7.65,0,0,1,251,45.9Z"/></g></g></svg>