<?xml version="1.0" encoding="utf-8"?>
<!-- Generator: Adobe Illustrator 20.1.0, SVG Export Plug-In . SVG Version: 6.00 Build 0)  -->
<svg version="1.1" id="圖層_1" xmlns="http://www.w3.org/2000/svg" xmlns:xlink="http://www.w3.org/1999/xlink" x="0px" y="0px"
	 viewBox="0 0 338 320" style="enable-background:new 0 0 338 320;" xml:space="preserve">
<style type="text/css">
	.st0{fill:#E0E0E0;stroke:#E0E0E0;stroke-width:6.0392;stroke-miterlimit:10;}
	.st1{fill:#006261;}
	.st2{fill:#E0E0E0;}
	.st3{fill:none;stroke:#006261;stroke-width:5;stroke-linecap:round;stroke-linejoin:round;stroke-miterlimit:10;}
</style>
<g>
	<circle class="st0" cx="177.9" cy="159.6" r="156.1"/>
	<g>
		<g>
			<path class="st1" d="M53.4,204.8c-1.5,0-2.8-1.2-2.8-2.8v-44c0-1.5,1.2-2.8,2.8-2.8s2.8,1.2,2.8,2.8v44
				C56.2,203.5,55,204.8,53.4,204.8z"/>
			<path class="st1" d="M53.4,156.9c0.6,0,1.1,0.5,1.1,1.1v44c0,0.6-0.5,1.1-1.1,1.1s-1.1-0.5-1.1-1.1v-44
				C52.4,157.4,52.9,156.9,53.4,156.9 M53.4,153.5c-2.4,0-4.5,2-4.5,4.5v44c0,2.4,2,4.5,4.5,4.5s4.5-2,4.5-4.5v-44
				C57.9,155.5,55.9,153.5,53.4,153.5L53.4,153.5z"/>
		</g>
		<g>
			<g>
				<path class="st1" d="M65.8,180c-9.4-3.3-15.3-12.8-14.1-22.6l1.5-12.7l23.5,39.1L65.8,180z"/>
				<path class="st1" d="M54.8,152.2L71,179.1l-4.4-1.5c-8.3-2.9-13.5-11.3-12.5-20L54.8,152.2 M51.6,137.1l-2.4,19.9
					c-1.3,11.1,5.2,21.6,15.8,25.3l17.4,6.1L51.6,137.1L51.6,137.1z"/>
			</g>
			<g>
				<path class="st2" d="M94.2,188.5c-12.7,0-26.5-10.4-34.3-25.8c-5-9.8-6.9-20.4-5.5-29.8c1.4-9.1,5.8-15.9,12.3-19.2
					c2.8-1.4,5.9-2.2,9.3-2.2c12.7,0,26.5,10.4,34.3,25.8c5,9.8,6.9,20.4,5.5,29.8c-1.4,9.1-5.8,15.9-12.3,19.2
					C100.7,187.7,97.6,188.5,94.2,188.5z"/>
				<path class="st1" d="M76.1,114c11.8,0,24.7,9.8,32,24.4c4.7,9.4,6.6,19.4,5.3,28.3c-1.3,8.3-5.2,14.4-11,17.4
					c-2.5,1.2-5.2,1.9-8.1,1.9c-11.8,0-24.7-9.8-32-24.4c-4.7-9.4-6.6-19.4-5.3-28.3c1.3-8.3,5.2-14.4,11-17.4
					C70.4,114.6,73.2,114,76.1,114C76.1,114,76.1,114,76.1,114 M76.1,109c-3.6,0-7.2,0.8-10.4,2.4c-15.1,7.6-18.7,31.1-7.9,52.4
					c8.4,16.7,23.2,27.1,36.5,27.1c3.6,0,7.2-0.8,10.4-2.4c15.1-7.6,18.7-31.1,7.9-52.4C104.1,119.4,89.4,109,76.1,109L76.1,109z"/>
			</g>
			<g>
				<line class="st3" x1="68.4" y1="162.8" x2="101.4" y2="140.8"/>
				<line class="st3" x1="82.5" y1="172" x2="89.9" y2="148.7"/>
				<line class="st3" x1="68.8" y1="145.7" x2="89.9" y2="148.7"/>
			</g>
		</g>
		<g>
			<line class="st3" x1="36.5" y1="211.4" x2="36.5" y2="110"/>
			<line class="st3" x1="3.7" y1="127.8" x2="75" y2="86.1"/>
			<line class="st3" x1="32.8" y1="103.2" x2="49.7" y2="106.5"/>
			<line class="st3" x1="14.6" y1="114.5" x2="36.5" y2="120.4"/>
			<line class="st3" x1="3.7" y1="121.2" x2="25.6" y2="128.4"/>
			<line class="st3" x1="45.9" y1="94.9" x2="62.8" y2="98.2"/>
			<line class="st3" x1="57.5" y1="87.9" x2="74.3" y2="91.2"/>
		</g>
	</g>
	<polygon class="st1" points="13.2,195.8 70.2,195.8 70.2,249.8 46.9,279.4 13.2,279.4 	"/>
</g>
</svg>
