<svg xmlns="http://www.w3.org/2000/svg" viewBox="0 0 779.14 674.94"><defs><style>.cls-1,.cls-2,.cls-5,.cls-6,.cls-8{fill:none;}.cls-1{stroke:#3c9195;}.cls-1,.cls-3,.cls-6,.cls-8{stroke-miterlimit:10;}.cls-1,.cls-3{stroke-width:6.04px;}.cls-2,.cls-3{stroke:#6bffba;}.cls-2,.cls-5,.cls-6{stroke-linecap:round;}.cls-2,.cls-5{stroke-linejoin:round;stroke-width:5.7px;}.cls-3,.cls-7{fill:#6bffba;}.cls-4{fill:#006464;}.cls-5,.cls-6,.cls-8{stroke:#006464;}.cls-6{stroke-width:24.06px;}.cls-8{stroke-width:0.99px;}</style></defs><title>資產 2 1</title><g id="圖層_2" data-name="圖層 2"><g id="首頁階梯"><circle class="cls-1" cx="441.67" cy="337.47" r="334.45"/><line class="cls-2" x1="197.66" y1="238.12" x2="73.76" y2="238.12"/><circle class="cls-3" cx="441.67" cy="337.47" r="334.45"/><polygon class="cls-4" points="83.37 493.55 68.15 493.55 99.6 427.63 114.81 427.63 83.37 493.55"/><polygon class="cls-4" points="114.35 493.55 99.14 493.55 130.59 427.63 145.8 427.63 114.35 493.55"/><polygon class="cls-4" points="145.34 493.55 130.13 493.55 161.57 427.63 176.79 427.63 145.34 493.55"/><polygon class="cls-4" points="176.33 493.55 161.12 493.55 192.56 427.63 207.77 427.63 176.33 493.55"/><polygon class="cls-4" points="207.32 493.55 192.1 493.55 223.55 427.63 238.76 427.63 207.32 493.55"/><polygon class="cls-4" points="238.3 493.55 223.09 493.55 254.54 427.63 269.75 427.63 238.3 493.55"/><polygon class="cls-4" points="269.29 493.55 254.08 493.55 285.52 427.63 300.74 427.63 269.29 493.55"/><polygon class="cls-4" points="300.28 493.55 285.07 493.55 316.51 427.63 331.72 427.63 300.28 493.55"/><polygon class="cls-4" points="331.27 493.55 316.05 493.55 347.5 427.63 362.71 427.63 331.27 493.55"/><polygon class="cls-4" points="362.25 493.55 347.04 493.55 378.49 427.63 393.7 427.63 362.25 493.55"/><path class="cls-5" d="M213.57,346.41V254a15.91,15.91,0,0,0-15.91-15.91H118.17"/><line class="cls-6" x1="127.33" y1="239.13" x2="168.85" y2="239.13"/><line class="cls-6" x1="128.94" y1="236.29" x2="170.47" y2="236.29"/><circle class="cls-7" cx="127.32" cy="242.08" r="6.47"/><circle class="cls-7" cx="144.04" cy="242.08" r="6.47"/><circle class="cls-7" cx="161.2" cy="242.08" r="6.47"/><path class="cls-8" d="M84.83,246H19.31a12,12,0,0,1-12-12h0a12,12,0,0,1,12-12h66a11.75,11.75,0,0,1,11.75,11.75h0A12.22,12.22,0,0,1,84.87,246Z"/><path class="cls-7" d="M85.3,222a11.75,11.75,0,0,1,11.75,11.75A12.22,12.22,0,0,1,84.83,246H19.31a12,12,0,0,1,0-24h66m0-5.42h-66a17.41,17.41,0,0,0,0,34.81H84.83a17.66,17.66,0,0,0,17.64-17.64A17.19,17.19,0,0,0,85.3,216.55h0Z"/><path class="cls-4" d="M82.51,250.34H17a12,12,0,0,1-12-12H5a12,12,0,0,1,12-12H83a11.75,11.75,0,0,1,11.77,11.73s0,0,0,.05h0a12.22,12.22,0,0,1-12.22,12.22Z"/><path class="cls-7" d="M83,226.36a11.75,11.75,0,0,1,11.78,11.72v0a12.22,12.22,0,0,1-12.22,12.22H17a12,12,0,1,1,0-24H83m0-5.42H17a17.41,17.41,0,0,0,0,34.81H82.51a17.66,17.66,0,0,0,17.64-17.64A17.19,17.19,0,0,0,83,220.92h0Z"/><path class="cls-7" d="M28.89,236.19a1.44,1.44,0,0,1,1.44-1.44h2.19a1.23,1.23,0,1,0,0-2.43H27.9a1.44,1.44,0,0,0-1.44,1.44h0v11.89a1.44,1.44,0,0,0,1.44,1.44h5.46a1.23,1.23,0,1,0,0-2.43h-3a1.44,1.44,0,0,1-1.44-1.44h0v-7Z"/><path class="cls-7" d="M51,245.72a1.44,1.44,0,0,0,1.44,1.44h4.45a1.44,1.44,0,0,0,1.44-1.44v-12a1.44,1.44,0,0,0-1.44-1.44H52.48A1.44,1.44,0,0,0,51,233.72h0v12Zm3.66-11.15A1.4,1.4,0,0,1,56,236v7.4a1.35,1.35,0,1,1-2.69,0V236a1.4,1.4,0,0,1,1.35-1.44Z"/><path class="cls-7" d="M46.47,245.65a1.23,1.23,0,1,0,2.43,0V233.76a1.23,1.23,0,1,0-2.43,0Z"/><path class="cls-7" d="M78.2,245.34a1.5,1.5,0,0,0,3,0v-14.5a1.76,1.76,0,0,0-1.75-1.75H78.07a1.75,1.75,0,0,0-1.75,1.74c0,1,.43,1.74,1,1.74s1,.79,1,1.75v11Z"/><path class="cls-7" d="M36.76,232.32a1.23,1.23,0,1,0,0,2.43h.84A1.44,1.44,0,0,1,39,236.19h0v9.47a1.23,1.23,0,1,0,2.43,0v-9.47a1.44,1.44,0,0,1,1.44-1.44h.85a1.23,1.23,0,1,0,0-2.43Z"/><path class="cls-7" d="M19.83,229.9a1.23,1.23,0,1,0,0,2.43h.82a1.44,1.44,0,0,1,1.44,1.44h0v3.3a1.44,1.44,0,0,1-1.44,1.44h-.82a1.44,1.44,0,0,1-1.44-1.44h0v-3.3a1.23,1.23,0,1,0-2.43,0v12a1.23,1.23,0,1,0,2.43,0V242.4A1.44,1.44,0,0,1,19.83,241h.82a1.44,1.44,0,0,1,1.44,1.44h0v3.37a1.23,1.23,0,1,0,2.43,0V231.33a1.44,1.44,0,0,0-1.44-1.44H19.83Z"/><path class="cls-7" d="M70,234a1.29,1.29,0,1,0-2.44,0v5.25c0,.95-.41,1.06-.9.25l-3.07-5.05a2,2,0,0,0-2-1.08,2.29,2.29,0,0,0-1.11,2.11v9.39a1.29,1.29,0,1,0,2.43,0v-4.79c0-.95.38-1,.84-.22L67,245.61a2,2,0,0,0,1.94,1.17,2.15,2.15,0,0,0,1.1-2V234Z"/></g></g></svg>