<?xml version="1.0" encoding="utf-8"?>
<!-- Generator: Adobe Illustrator 20.1.0, SVG Export Plug-In . SVG Version: 6.00 Build 0)  -->
<svg version="1.1" id="圖層_1" xmlns="http://www.w3.org/2000/svg" xmlns:xlink="http://www.w3.org/1999/xlink" x="0px" y="0px"
	 viewBox="0 0 507 532" style="enable-background:new 0 0 507 532;" xml:space="preserve">
<style type="text/css">
	.st0{fill:#0F9BFF;stroke:#0F9BFF;stroke-width:6.0392;stroke-miterlimit:10;}
	.st1{fill:#006261;}
</style>
<g>
	<circle class="st0" cx="257.9" cy="249.6" r="245.3"/>
	<g>
		<g>
			<path class="st1" d="M125.3,352.1c3.2,2,3.1,5-0.2,6.7l-12.4,6.6c-3.3,1.8-6.5,0.1-7-3.6l-2.3-16.8c-0.5-3.7,1.7-5.2,4.9-3.2
				L125.3,352.1z"/>
		</g>
		<g>
			<g>
				<path class="st1" d="M36.2,377.8c-0.6,2.7-3.3,4.9-6.1,4.9H18.6c-2.7,0-5.3,2.2-5.7,4.9l-1.6,10.8c-0.4,2.7,1.5,4.9,4.3,4.9h0.3
					c2.8,0,5.5-2.2,6-4.9l0.1-0.6c0.6-2.7,3.3-4.9,6-4.9h12c2.8,0,5.5-2.2,6-4.9l3.4-16.2c0.6-2.7,3.3-4.9,6-4.9h9.1
					c2.8,0,5.3,2.2,5.6,5l0.8,6.5c0.4,2.7-1.6,5-4.4,5h-7.7c-2.8,0-4.9,2.2-4.9,5l0.2,10c0.1,2.7,2.4,5,5.1,5s4.9-2.2,4.8-5v-0.3
					c-0.1-2.7,2.1-5,4.9-5h8.3c2.8,0,4.7-2.2,4.4-5l-2-16.1c-0.3-2.7,1.4-5,3.9-5s4.9,2.2,5.2,4.9l3.8,26.5c0.4,2.7,3,4.9,5.7,4.9
					h0.3c2.8,0,4.7-2.2,4.3-4.9l-8.6-59.6c-0.4-2.7-3-4.9-5.7-4.9H50.7c-2.8,0-5.5,2.2-6.1,4.9L36.2,377.8z"/>
			</g>
			<g>
				<path class="st1" d="M112.3,372.9c-2.8,0-4.6,2.2-4.2,4.9l3.4,20.3c0.4,2.7,3.1,4.9,5.8,4.9h0.3c2.8,0,4.6-2.2,4.2-4.9
					l-3.4-20.3c-0.4-2.7-3.1-4.9-5.8-4.9H112.3z"/>
			</g>
		</g>
	</g>
	<g>
		<g>
			<path class="st1" d="M132.5,56.2c-3.6-1.1-4.3-4-1.5-6.6l13.1-12.1c2.8-2.5,5.5-1.6,6,2.1l2.4,16c0.6,3.7-1.9,5.9-5.5,4.8
				L132.5,56.2z"/>
		</g>
		<g>
			<path class="st1" d="M204.9,128c-2.8,0-5.3-2.2-5.6-5l-9-70.6c-0.3-2.7-2.9-5-5.6-5h-20.1c-2.8,0-5,0-5.1,0s0.2,2.2,0.5,5l3.3,28
				c0.3,2.7-1.7,5-4.4,5h-6c-2.8,0-5.2-2-5.5-4.4s1.3-4.4,3.5-4.5s4.1-2.2,4-4.8c0-2.6-1.9-4.7-4.3-4.7c-2.3,0-6.4,0-9,0
				s-4.5,2.2-4.3,5l4.7,51c0.3,2.7-1.6,5-4.2,5s-4.4,2.2-4.2,5v0.4c0.3,2.7,2.7,5,5.5,5h9.7c2.8,0,4.8-2.2,4.5-5l-2.1-22.3
				c-0.3-2.7,1.8-5,4.5-5h25c2.8,0,5.3,2.2,5.7,4.9l3.3,22.3c0.4,2.7,3,4.9,5.7,4.9h22.1c2.8,0,4.8-2.2,4.5-5v-0.4
				c-0.3-2.7-2.7-5-5.5-5h-11.6V128z"/>
		</g>
	</g>
	<g>
		<g>
			<path class="st1" d="M68.5,230.6c-2.8,0-5-2.2-5-5V198c0-2.8,2.2-5,5-5h0.3c2.8,0,5-2.2,5-5v-42.4c0-2.8,2.1-5,4.7-5
				s4.7-2.2,4.7-5v-0.3c0-2.8-2.2-5-5-5h-9.7c-2.8,0-5,2.2-5,5v42.1c0,2.8-2.2,5-5,5H35.4c-2.8,0-5-2.2-5-5v-42.1c0-2.8-2.2-5-5-5
				h-9.7c-2.8,0-5,2.2-5,5v0.3c0,2.8,2.1,5,4.7,5s4.7,2.2,4.7,5V188c0,2.8,2.2,5,5,5h0.3c2.8,0,5,2.2,5,5v27.7c0,2.8-2.2,5-5,5H14.2
				c-2.8,0-5,2.2-5,5l0.1,22.2c0,2.7-1.9,5-4.2,5s-4.3,2.2-4.3,5c0,2.7,2.2,5,5,5h8.9c2.8,0,5-2.2,5-5v-21.8c0-2.8,2.2-5,5-5h44.5
				c2.8,0,5,2.2,5,5v21.8c0,2.8,2.2,5,5,5h7.9c2.8,0,5-2.2,5-5c0-2.7-1.7-5-3.8-5s-3.8-2.2-3.8-5v-22.2c0-2.8-2.2-5-5-5L68.5,230.6
				L68.5,230.6z"/>
		</g>
		<g>
			<path class="st1" d="M50.1,269.1c-2,3.2-5.2,3.1-7.1-0.1l-8.7-14.9c-1.9-3.2-0.4-5.9,3.4-5.9h18.8c3.8,0,5.2,2.6,3.2,5.8
				L50.1,269.1z"/>
		</g>
	</g>
	<g>
		<g>
			<path class="st1" d="M217,452.1c3.1,0,5.6-2.4,5.6-5s-2.5-4.8-5.5-4.8h-15c-3.1,0-5.2-2.5-4.7-5.5l2.9-18.2h-44.6
				c-3.1,0-6,2.5-6.6,6.3l-3.9,23.3c-0.7,3.9,1.7,6.3,4.4,6.3c3,0,5-2,5.4-5.1l2.5-14.9c0.5-3,3.1-5.5,5.9-5.5s4.1,2.5,3.6,5.5
				l-12.2,71.3c-0.5,3-3.5,5.5-6.5,5.5h-6.8c-3.1,0-6,2.5-6.5,5.5l-1.5,9.2c-0.5,3,2.1,5.5,4.7,5.5c2.6,0,4.8-2.3,5.3-5s3.4-5,6.5-5
				h5.1c4.3,0,8.5-3.5,9.3-7.7l5.3-28.3c0.6-3,3.6-5.5,6.6-5.5h16.2c3.1,0,5.2,2.5,4.7,5.5l-6.2,39.4c-0.6,3.6,2,6.6,5.7,6.6h10
				c3.1,0,6.2-1.4,6.2-5.2c0-1.8-1.4-4.4-5.6-4.4l0,0c-3.1,0-5.2-2.5-4.7-5.5l6.1-39.1c0.7-4.3-2.4-7.9-6.7-7.9h-4.2
				c-3.1,0-5.2-2.5-4.7-5.5l1.9-11.8L217,452.1z"/>
		</g>
		<path class="st1" d="M187.4,389.9c1.9-2.5,4.4-2.2,5.7,0.6l7.4,16.2c1.3,2.8-0.2,5.1-3.3,5.1h-20.8c-3.1,0-4.1-2-2.2-4.5
			L187.4,389.9z"/>
	</g>
</g>
</svg>
