<?xml version="1.0" encoding="utf-8"?>
<!-- Generator: Adobe Illustrator 20.1.0, SVG Export Plug-In . SVG Version: 6.00 Build 0)  -->
<svg version="1.1" id="圖層_1" xmlns="http://www.w3.org/2000/svg" xmlns:xlink="http://www.w3.org/1999/xlink" x="0px" y="0px"
	 viewBox="0 0 335.9 318.2" style="enable-background:new 0 0 335.9 318.2;" xml:space="preserve">
<style type="text/css">
	.st0{fill:#E0E0E0;stroke:#E0E0E0;stroke-width:6.04;stroke-miterlimit:10;}
	.st1{fill:#006464;}
	.st2{fill:#E0E0E0;}
	.st3{fill:none;stroke:#006464;stroke-width:5;stroke-linecap:round;stroke-linejoin:round;}
</style>
<title>資產 2</title>
<g id="圖層_2">
	<g id="首頁階梯">
		<circle class="st0" cx="176.8" cy="159.1" r="156.1"/>
		<path class="st1" d="M52.3,156.4c0.6,0,1.1,0.5,1.1,1.1v44c0,0.6-0.5,1.1-1.1,1.1s-1.1-0.5-1.1-1.1c0,0,0,0,0,0v-44
			C51.2,156.8,51.7,156.4,52.3,156.4 M52.3,153c-2.4,0-4.4,2-4.4,4.4v44c0,2.5,2,4.5,4.5,4.5c2.5,0,4.5-2,4.5-4.5v-44
			C56.7,155,54.7,153,52.3,153L52.3,153L52.3,153z"/>
		<path class="st1" d="M53.6,151.7l16.2,26.9l-4.4-1.5c-8.3-2.9-13.5-11.2-12.5-20L53.6,151.7 M50.4,136.6L48,156.5
			c-1.3,11.1,5.3,21.7,15.8,25.3l17.4,6.1L50.4,136.6L50.4,136.6L50.4,136.6z"/>
		<path class="st2" d="M93.1,187.9c-12.7,0-26.5-10.4-34.2-25.8c-5-9.8-6.9-20.4-5.5-29.8c1.4-9.1,5.8-15.9,12.3-19.2
			c2.9-1.4,6.1-2.2,9.3-2.1c12.7,0,26.5,10.4,34.2,25.8c10.1,20,7,42-6.8,49C99.5,187.2,96.3,188,93.1,187.9z"/>
		<path class="st1" d="M74.9,113.5c11.8,0,24.7,9.8,32,24.4c4.7,9.4,6.6,19.4,5.3,28.3c-1.2,8.2-5.2,14.4-11,17.4
			c-2.5,1.3-5.3,1.9-8.2,1.9c-11.8,0-24.7-9.8-32-24.4c-4.7-9.4-6.6-19.4-5.3-28.3c1.2-8.2,5.2-14.4,11-17.4
			C69.3,114.1,72.1,113.4,74.9,113.5L74.9,113.5 M74.9,108.5c-3.6,0-7.2,0.8-10.4,2.4c-15.1,7.7-18.7,31.1-7.9,52.4
			c8.5,16.7,23.2,27.1,36.5,27.1c3.6,0,7.2-0.8,10.4-2.4c15.1-7.6,18.7-31.1,7.9-52.4C103,118.9,88.2,108.5,74.9,108.5L74.9,108.5z"
			/>
		<line class="st3" x1="67.2" y1="162.3" x2="100.2" y2="140.3"/>
		<line class="st3" x1="81.3" y1="171.5" x2="88.8" y2="148.2"/>
		<line class="st3" x1="67.6" y1="145.2" x2="88.8" y2="148.2"/>
		<line class="st3" x1="35.4" y1="210.9" x2="35.4" y2="109.4"/>
		<line class="st3" x1="2.5" y1="127.3" x2="73.8" y2="85.6"/>
		<line class="st3" x1="31.7" y1="102.7" x2="48.5" y2="106"/>
		<line class="st3" x1="13.4" y1="113.9" x2="35.4" y2="119.9"/>
		<line class="st3" x1="2.6" y1="120.7" x2="24.4" y2="127.9"/>
		<line class="st3" x1="44.8" y1="94.4" x2="61.6" y2="97.7"/>
		<line class="st3" x1="56.3" y1="87.4" x2="73.2" y2="90.7"/>
		<polygon class="st1" points="12,195.2 69,195.2 69,249.2 45.8,278.9 12,278.9 		"/>
		<path class="st2" d="M251,45.9l-1.4,5.4c1.7,1.4,3.9,2.1,6.1,2.1c4.1,0.1,5.7-2.4,5.7-2.4l-1.3-5.2c-1.2,1.2-2.8,1.9-4.5,1.8
			C254,47.5,252.3,46.9,251,45.9z"/>
	</g>
</g>
</svg>
