<?xml version="1.0" encoding="utf-8"?>
<!-- Generator: Adobe Illustrator 20.1.0, SVG Export Plug-In . SVG Version: 6.00 Build 0)  -->
<svg version="1.1" id="圖層_1" xmlns="http://www.w3.org/2000/svg" xmlns:xlink="http://www.w3.org/1999/xlink" x="0px" y="0px"
	 viewBox="0 0 1243.2 1210.1" style="enable-background:new 0 0 1243.2 1210.1;" xml:space="preserve">
<style type="text/css">
	.st0{fill:none;stroke:#3C9195;stroke-width:6.04;stroke-miterlimit:10;}
	.st1{fill:#FF665C;stroke:#FF665C;stroke-width:6.04;stroke-miterlimit:10;}
	.st2{fill:#FF665C;}
	.st3{fill:#006464;}
	.st4{fill:#406462;}
	.st5{fill:none;stroke:#006464;stroke-width:7.76;stroke-linecap:round;stroke-linejoin:round;}
	.st6{fill:none;stroke:#006464;stroke-width:7.76;stroke-linecap:round;stroke-miterlimit:10;}
	.st7{fill:#806560;}
	.st8{fill:#BF655E;}
</style>
<title>資產 5</title>
<g id="圖層_2">
	<g id="首頁階梯">
		<circle class="st0" cx="638.2" cy="605" r="602"/>
		<circle class="st1" cx="638.2" cy="605" r="602"/>
		<path class="st2" d="M1185.4,484.6l-1.4,5.4c1.7,1.4,3.9,2.1,6.2,2.1c4.1,0.1,5.7-2.4,5.7-2.4l-1.3-5.2c-1.2,1.2-2.8,1.9-4.5,1.8
			C1188.4,486.2,1186.7,485.6,1185.4,484.6z"/>
		<path class="st3" d="M201.4,294.5l34,58.1c5.2,8.8,2.2,20.2-6.7,25.3c-2.8,1.7-6.1,2.5-9.3,2.5h-70.5c-10.2,0-18.5-8.3-18.5-18.5
			c0-3.5,1-6.9,2.8-9.9l36.6-58.1c5.4-8.7,16.9-11.3,25.5-5.8C197.8,289.8,199.9,292,201.4,294.5L201.4,294.5z"/>
		<path class="st4" d="M130.3,404.8l34,58.1c5.2,8.8,2.2,20.2-6.7,25.3c-2.8,1.7-6.1,2.5-9.3,2.5H77.7c-10.2,0-18.5-8.3-18.5-18.5
			c0-3.5,1-6.9,2.9-9.9l36.6-58.1c5.5-8.7,16.9-11.3,25.5-5.8C126.7,400.1,128.8,402.3,130.3,404.8z"/>
		<polyline class="st5" points="113,532 113,476.8 134.3,450.5 		"/>
		<line class="st6" x1="113" y1="476.8" x2="91.6" y2="455.4"/>
		<line class="st6" x1="113" y1="478.3" x2="113" y2="416.3"/>
		<path class="st7" d="M88.6,526.4l34,58.1c5.2,8.8,2.2,20.2-6.7,25.3c-2.8,1.7-6.1,2.5-9.3,2.5H36.1c-10.2,0-18.5-8.3-18.5-18.5
			c0-3.5,1-6.9,2.8-9.9L57,525.9c5.4-8.7,16.9-11.3,25.5-5.8C85.1,521.7,87.2,523.8,88.6,526.4L88.6,526.4z"/>
		<polyline class="st5" points="71.3,653.5 71.3,598.3 92.6,572.1 		"/>
		<line class="st6" x1="71.3" y1="598.3" x2="49.9" y2="576.9"/>
		<line class="st6" x1="71.3" y1="599.9" x2="71.3" y2="537.8"/>
		<path class="st8" d="M71.1,655.9l34,58.1c5.2,8.8,2.2,20.2-6.7,25.3c-2.8,1.7-6.1,2.5-9.3,2.5H18.5C8.3,741.9,0,733.6,0,723.4
			c0-3.5,1-6.9,2.8-9.9l36.6-58.1c5.4-8.7,16.9-11.3,25.5-5.8C67.5,651.2,69.6,653.4,71.1,655.9z"/>
		<polyline class="st5" points="53.8,783.1 53.8,727.9 75.1,701.6 		"/>
		<line class="st6" x1="53.8" y1="727.9" x2="32.3" y2="706.4"/>
		<line class="st6" x1="53.8" y1="729.4" x2="53.8" y2="667.4"/>
		<path class="st2" d="M108.2,781.8l34,58.1c5.2,8.8,2.2,20.2-6.7,25.3c-2.8,1.7-6.1,2.5-9.3,2.5H55.7c-10.2,0-18.5-8.3-18.5-18.5
			c0-3.5,1-6.9,2.8-9.8l36.5-58.1c5.5-8.7,16.9-11.2,25.5-5.8C104.6,777.1,106.7,779.3,108.2,781.8z"/>
		<polyline class="st5" points="90.9,909 90.9,853.8 112.2,827.5 		"/>
		<line class="st6" x1="90.9" y1="853.8" x2="69.5" y2="832.3"/>
		<line class="st6" x1="90.9" y1="855.3" x2="90.9" y2="793.3"/>
	</g>
</g>
</svg>
