<?xml version="1.0" encoding="utf-8"?>
<!-- Generator: Adobe Illustrator 20.1.0, SVG Export Plug-In . SVG Version: 6.00 Build 0)  -->
<svg version="1.1" id="圖層_1" xmlns="http://www.w3.org/2000/svg" xmlns:xlink="http://www.w3.org/1999/xlink" x="0px" y="0px"
	 viewBox="0 0 782 677" style="enable-background:new 0 0 782 677;" xml:space="preserve">
<style type="text/css">
	.st0{fill:none;stroke:#6BFFBA;stroke-width:5.699;stroke-linecap:round;stroke-linejoin:round;stroke-miterlimit:10;}
	.st1{fill:#6BFFBA;stroke:#6BFFBA;stroke-width:6.0392;stroke-miterlimit:10;}
	.st2{fill:#006464;}
	.st3{fill:none;stroke:#006464;stroke-width:5.699;stroke-linecap:round;stroke-linejoin:round;stroke-miterlimit:10;}
	.st4{fill:none;stroke:#006464;stroke-width:24.0623;stroke-linecap:round;stroke-miterlimit:10;}
	.st5{fill:#6BFFBA;}
	.st6{fill:none;stroke:#006464;stroke-width:0.9878;stroke-miterlimit:10;}
</style>
<g>
	<line class="st0" x1="199.9" y1="239.3" x2="76" y2="239.3"/>
	<circle class="st1" cx="443.9" cy="338.6" r="334.5"/>
	<g>
		<polygon class="st2" points="85.6,494.7 70.4,494.7 101.8,428.8 117.1,428.8 		"/>
		<polygon class="st2" points="116.6,494.7 101.4,494.7 132.8,428.8 148,428.8 		"/>
		<polygon class="st2" points="147.6,494.7 132.4,494.7 163.8,428.8 179,428.8 		"/>
		<polygon class="st2" points="178.6,494.7 163.4,494.7 194.8,428.8 210,428.8 		"/>
		<polygon class="st2" points="209.6,494.7 194.3,494.7 225.8,428.8 241,428.8 		"/>
		<polygon class="st2" points="240.5,494.7 225.3,494.7 256.8,428.8 272,428.8 		"/>
		<polygon class="st2" points="271.5,494.7 256.3,494.7 287.8,428.8 303,428.8 		"/>
		<polygon class="st2" points="302.5,494.7 287.3,494.7 318.8,428.8 334,428.8 		"/>
		<polygon class="st2" points="333.5,494.7 318.3,494.7 349.7,428.8 365,428.8 		"/>
		<polygon class="st2" points="364.5,494.7 349.3,494.7 380.7,428.8 395.9,428.8 		"/>
	</g>
	<g>
		<path class="st3" d="M215.8,347.6v-92.4c0-8.8-7.1-15.9-15.9-15.9h-79.5"/>
		<line class="st4" x1="129.6" y1="240.3" x2="171.1" y2="240.3"/>
		<line class="st4" x1="131.2" y1="237.4" x2="172.7" y2="237.4"/>
		<circle class="st5" cx="129.6" cy="243.2" r="6.5"/>
		<circle class="st5" cx="146.3" cy="243.2" r="6.5"/>
		<circle class="st5" cx="163.4" cy="243.2" r="6.5"/>
		<g>
			<path class="st6" d="M87.1,247.1H21.5c-6.6,0-12-5.4-12-12v0c0-6.6,5.4-12,12-12h66c6.5,0,11.8,5.3,11.8,11.8v0
				C99.3,241.7,93.8,247.1,87.1,247.1z"/>
			<path class="st5" d="M87.5,223.2c6.5,0,11.8,5.3,11.8,11.8v0c0,6.8-5.5,12.2-12.2,12.2H21.5c-6.6,0-12-5.4-12-12v0
				c0-6.6,5.4-12,12-12H87.5 M87.5,217.7h-66c-9.6,0-17.4,7.8-17.4,17.4c0,9.6,7.8,17.4,17.4,17.4h65.5c9.7,0,17.6-7.9,17.6-17.6
				C104.7,225.4,97,217.7,87.5,217.7L87.5,217.7z"/>
		</g>
		<g>
			<path class="st2" d="M84.8,251.5H19.2c-6.6,0-12-5.4-12-12v0c0-6.6,5.4-12,12-12h66c6.5,0,11.8,5.3,11.8,11.8v0
				C97,246,91.5,251.5,84.8,251.5z"/>
			<g>
				<path class="st5" d="M85.2,227.5c6.5,0,11.8,5.3,11.8,11.8v0c0,6.8-5.5,12.2-12.2,12.2H19.2c-6.6,0-12-5.4-12-12v0
					c0-6.6,5.4-12,12-12H85.2 M85.2,222.1h-66c-9.6,0-17.4,7.8-17.4,17.4c0,9.6,7.8,17.4,17.4,17.4h65.5c9.7,0,17.6-7.9,17.6-17.6
					C102.4,229.8,94.7,222.1,85.2,222.1L85.2,222.1z"/>
			</g>
		</g>
		<g>
			<path class="st5" d="M31.1,237.3c0-0.8,0.6-1.4,1.4-1.4h2.2c0.8,0,1.4-0.5,1.4-1.2s-0.6-1.2-1.4-1.2h-4.6c-0.8,0-1.4,0.6-1.4,1.4
				v11.9c0,0.8,0.6,1.4,1.4,1.4h5.5c0.8,0,1.4-0.5,1.4-1.2c0-0.7-0.6-1.2-1.4-1.2h-3c-0.8,0-1.4-0.6-1.4-1.4V237.3z"/>
			<path class="st5" d="M53.3,246.9c0,0.8,0.6,1.4,1.4,1.4h4.5c0.8,0,1.4-0.6,1.4-1.4v-12c0-0.8-0.6-1.4-1.4-1.4h-4.5
				c-0.8,0-1.4,0.6-1.4,1.4V246.9z M56.9,235.7c0.7,0,1.3,0.6,1.3,1.4v7.4c0,0.8-0.6,1.4-1.3,1.4s-1.3-0.6-1.3-1.4v-7.4
				C55.6,236.4,56.2,235.7,56.9,235.7z"/>
			<path class="st5" d="M48.7,246.8c0,0.8,0.5,1.4,1.2,1.4s1.2-0.6,1.2-1.4v-11.9c0-0.8-0.5-1.4-1.2-1.4s-1.2,0.6-1.2,1.4V246.8z"/>
			<path class="st5" d="M80.4,246.5c0,1,0.7,1.8,1.5,1.8s1.5-0.8,1.5-1.8V232c0-1-0.8-1.8-1.8-1.8h-1.4c-1,0-1.8,0.8-1.8,1.7
				c0,1,0.4,1.7,1,1.7c0.5,0,1,0.8,1,1.8V246.5z"/>
			<path class="st5" d="M39,233.5c-0.8,0-1.4,0.5-1.4,1.2s0.6,1.2,1.4,1.2h0.8c0.8,0,1.4,0.6,1.4,1.4v9.5c0,0.8,0.5,1.4,1.2,1.4
				s1.2-0.6,1.2-1.4v-9.5c0-0.8,0.6-1.4,1.4-1.4H46c0.8,0,1.4-0.5,1.4-1.2s-0.6-1.2-1.4-1.2H39z"/>
			<path class="st5" d="M22.1,231.1c-0.8,0-1.4,0.5-1.4,1.2s0.6,1.2,1.4,1.2h0.8c0.8,0,1.4,0.6,1.4,1.4v3.3c0,0.8-0.6,1.4-1.4,1.4
				h-0.8c-0.8,0-1.4-0.6-1.4-1.4v-3.3c0-0.8-0.5-1.4-1.2-1.4c-0.7,0-1.2,0.6-1.2,1.4v12c0,0.8,0.5,1.4,1.2,1.4
				c0.7,0,1.2-0.6,1.2-1.4v-3.4c0-0.8,0.6-1.4,1.4-1.4h0.8c0.8,0,1.4,0.6,1.4,1.4v3.4c0,0.8,0.5,1.4,1.2,1.4c0.7,0,1.2-0.6,1.2-1.4
				v-14.4c0-0.8-0.6-1.4-1.4-1.4H22.1z"/>
			<path class="st5" d="M72.2,235.1c0-0.9-0.5-1.7-1.2-1.7s-1.2,0.8-1.2,1.7l0,5.2c0,0.9-0.4,1.1-0.9,0.3l-3.1-5.1
				c-0.5-0.8-1.4-1.3-2-1.1c-0.6,0.2-1.1,1.2-1.1,2.1v9.4c0,0.9,0.5,1.7,1.2,1.7s1.2-0.8,1.2-1.7l0-4.8c0-0.9,0.4-1,0.8-0.2l3.2,5.8
				c0.5,0.8,1.3,1.4,1.9,1.2c0.6-0.2,1.1-1.1,1.1-2V235.1z"/>
		</g>
	</g>
</g>
</svg>
