<svg xmlns="http://www.w3.org/2000/svg" viewBox="0 0 1136.01 1031.7"><defs><style>.cls-1,.cls-10,.cls-12,.cls-13,.cls-4,.cls-6,.cls-7,.cls-8,.cls-9{fill:none;}.cls-1{stroke:#3c9195;}.cls-1,.cls-10,.cls-11,.cls-12,.cls-13,.cls-2,.cls-7,.cls-8,.cls-9{stroke-miterlimit:10;}.cls-1,.cls-2{stroke-width:6.04px;}.cls-2,.cls-3{fill:#ff9947;}.cls-10,.cls-13,.cls-2,.cls-9{stroke:#ff9947;}.cls-11,.cls-12,.cls-4,.cls-6,.cls-7,.cls-8{stroke:#006464;}.cls-10,.cls-13,.cls-4,.cls-6,.cls-7,.cls-8{stroke-linecap:round;}.cls-4,.cls-6{stroke-linejoin:round;}.cls-4{stroke-width:1.62px;}.cls-11,.cls-5{fill:#006464;}.cls-6{stroke-width:1.82px;}.cls-7{stroke-width:4.88px;}.cls-8{stroke-width:4.6px;}.cls-10,.cls-12,.cls-9{stroke-width:2.48px;}.cls-11{stroke-width:0.77px;}.cls-13{stroke-width:17.64px;}</style></defs><title>資產 4</title><g id="圖層_2" data-name="圖層 2"><g id="首頁階梯"><circle class="cls-1" cx="620.16" cy="515.85" r="512.83"/><circle class="cls-2" cx="620.16" cy="515.85" r="512.83"/><ellipse class="cls-3" cx="147.68" cy="799.51" rx="22.53" ry="11.49"/><polyline class="cls-4" points="156.81 749.46 162.87 746.67 172.7 750.84 167.45 754.22"/><ellipse class="cls-3" cx="147.68" cy="756.64" rx="22.49" ry="9.75"/><rect class="cls-3" x="125.19" y="756.64" width="44.98" height="42.87"/><ellipse class="cls-5" cx="147.58" cy="760.07" rx="22.53" ry="9.76"/><polyline class="cls-6" points="126.41 765.25 118.66 768.15 129.71 772.83 135.74 770.76"/><path class="cls-3" d="M150.25,757.77c-.38,1-1.4,1.26-3.13,1.26s-2.7-.29-3.13-1.26c0-1,1.4-1.9,3.13-1.9S150.25,756.73,150.25,757.77Z"/><path class="cls-3" d="M140,755.22c-.21.55-.77.69-1.72.69s-1.48-.16-1.72-.69c0-.57.77-1,1.72-1S140,754.61,140,755.22Z"/><path class="cls-3" d="M155.08,760.69c-.21.55-.77.69-1.72.69s-1.48-.16-1.72-.69c0-.57.77-1,1.72-1S155.08,760.11,155.08,760.69Z"/><line class="cls-7" x1="157.95" y1="754.82" x2="176.8" y2="717.05"/><path class="cls-5" d="M196.83,712.64a3.87,3.87,0,0,0-4.11,3.53,3.87,3.87,0,0,1-4.11,3.53h-15a4.12,4.12,0,0,0-4.11,4.11v.28a4.12,4.12,0,0,0,4.11,4.11h15a3.63,3.63,0,1,1,0,7.2H164.83a4.12,4.12,0,0,0-4.11,4.11v.28a4.12,4.12,0,0,0,4.11,4.11h23.78a4.12,4.12,0,0,1,4.11,4.11v.21a4,4,0,0,1-3.84,4.11,4,4,0,0,0-3.84,4.11v34.83a4,4,0,0,1-3.83,4.11,4,4,0,0,0-3.83,4.11v.28a4.12,4.12,0,0,0,4.11,4.11h7.95a4.12,4.12,0,0,0,4.11-4.11V764.95a4.12,4.12,0,0,1,4.11-4.11h9.66a4.12,4.12,0,0,1,4.11,4.11v26.33a4,4,0,0,1-3.83,4.11,4,4,0,0,0-3.83,4.11v.28a4.12,4.12,0,0,0,4.11,4.11h7.95a4.12,4.12,0,0,0,4.11-4.11v-83a4.12,4.12,0,0,0-4.11-4.11h-19Z"/><path class="cls-5" d="M197.25,676.38c2.9-4.61,7.52-4.54,10.27.17l12.65,21.67c2.75,4.7.54,8.55-4.91,8.55H188c-5.45,0-7.53-3.77-4.63-8.38Z"/><path class="cls-5" d="M159.33,438.82c-1.49-2.36-3.85-2.32-5.26.09L147.59,450c-1.41,2.41-.28,4.38,2.51,4.38h13.95c2.79,0,3.86-1.93,2.37-4.29Z"/><path class="cls-5" d="M129.31,441.6a4,4,0,0,1,3.84,4.15v10.06a4.22,4.22,0,0,0,4.21,4.21h25.37a5.15,5.15,0,0,1,4.89,4.15l4.11,24.91a62.17,62.17,0,0,1,.68,8.36v18.12a4.22,4.22,0,0,0,4.21,4.21h7.72a3.86,3.86,0,1,1,0,7.68h-15.4a4.22,4.22,0,0,1-4.21-4.21V507.78a4.22,4.22,0,0,0-4.21-4.21H150a4.22,4.22,0,0,0-4.21,4.21v15.51a4.22,4.22,0,0,1-4.21,4.21H135.4a4,4,0,0,1-4.21-3.78v-.06a3.68,3.68,0,0,1,3.46-3.84c1.9,0,3.46-1.89,3.46-4.21V500.1a4.23,4.23,0,0,1,4.21-4.21h1.28a4.22,4.22,0,0,0,4.21-4.21v-4.22a4.22,4.22,0,0,0-4.21-4.21H118.14a3.86,3.86,0,1,1,0-7.68h25.49a3.93,3.93,0,1,0,0-7.83H129.31a4,4,0,0,1-3.84-4.15V445.81a4,4,0,0,1,3.78-4.21Z"/><path class="cls-5" d="M131.25,434.13V408.6a2.37,2.37,0,0,0-4.74,0v25.53a2.37,2.37,0,0,0,4.74,0Z"/><path class="cls-3" d="M108.32,476.58H82.78a2.37,2.37,0,0,0,0,4.74h25.53a2.37,2.37,0,1,0,0-4.74Z"/><path class="cls-3" d="M83.45,486.64a1.57,1.57,0,0,0-2.81-.16L77.57,492a1.57,1.57,0,1,0,2.69,1.62l.05-.09L83.38,488A1.57,1.57,0,0,0,83.45,486.64Z"/><path class="cls-3" d="M89.66,487.22a1.57,1.57,0,0,0-3,.54L86.34,495a1.57,1.57,0,0,0,3.13.14l.32-7.21A1.56,1.56,0,0,0,89.66,487.22Z"/><path class="cls-3" d="M98.43,492.92l-2.56-6.09a1.57,1.57,0,1,0-2.94,1.09l.05.13,2.56,6.09A1.57,1.57,0,1,0,98.48,493Z"/><path class="cls-3" d="M83.45,471.22a1.57,1.57,0,0,1-2.81.16l-3.07-5.47a1.57,1.57,0,1,1,2.69-1.62l.05.09,3.07,5.47A1.57,1.57,0,0,1,83.45,471.22Z"/><path class="cls-3" d="M89.66,470.69a1.57,1.57,0,0,1-3-.54l-.32-7.21a1.57,1.57,0,0,1,3.13-.14l.32,7.21A1.56,1.56,0,0,1,89.66,470.69Z"/><path class="cls-3" d="M98.43,465l-2.56,6.09A1.57,1.57,0,1,1,92.93,470l.05-.13,2.56-6.09A1.57,1.57,0,0,1,98.43,465Z"/><path class="cls-5" d="M152.17,425.39c2.88-4.58,7.48-4.51,10.21.17L175,447.09c2.73,4.68.54,8.5-4.88,8.5H143c-5.42,0-7.49-3.75-4.6-8.33Z"/><path class="cls-5" d="M182.89,435.35a1.17,1.17,0,0,1-1.33,1.57c-3.16-.68-8.94-2.06-10.52-3.4a5.24,5.24,0,0,1,6.78-8C179.4,426.87,181.71,432.35,182.89,435.35Z"/><path class="cls-5" d="M209.17,387h-.53l-7.15-.81a5.23,5.23,0,0,1-4.55-5.23l.8-30.48a2.92,2.92,0,0,0-2.51-2.88l-1.83-.21h-.28a2.15,2.15,0,0,0-2.17,2.13h0l-.8,30.48a4.46,4.46,0,0,1-4.47,4.38h-.53l-7.15-.81a5.23,5.23,0,0,1-4.55-5.23v-.21a4.39,4.39,0,0,1,4.3-4.4h.72a2.08,2.08,0,0,0,2-2.16h0l1.51-58a2.92,2.92,0,0,0-2.51-2.88l-17.36-2a5.23,5.23,0,0,1-4.55-5.23v-.21a4.48,4.48,0,0,1,4.49-4.4h.51l65.43,7a5.2,5.2,0,0,1,4.56,5.21L232,331.18a4.52,4.52,0,0,1-4.53,4.44H227L210.47,334h-.22a2.21,2.21,0,0,0-2.23,2.19h0l-1,38.05a2.8,2.8,0,0,0,2.29,2.86,5.11,5.11,0,0,1,4.34,5.2v.21a4.46,4.46,0,0,1-4.48,4.44Zm1.62-72.84a2.23,2.23,0,0,0-2.26,2.2v0l-.13,5.12a2.8,2.8,0,0,0,2.49,2.79l9,.79h.22a2.23,2.23,0,0,0,2.26-2.2v0l.13-5.12a2.8,2.8,0,0,0-2.49-2.79l-9-.79Z"/><path class="cls-5" d="M162.06,300.06h.38l65.43,7a4,4,0,0,1,3.53,4l-.52,20.16a3.36,3.36,0,0,1-3.38,3.32h-.35L210.58,333h-.35a3.36,3.36,0,0,0-3.38,3.27l-1,38.05a4,4,0,0,0,3.32,4,4,4,0,0,1,3.32,4v.21a3.29,3.29,0,0,1-3.32,3.26h-.4l-7.15-.81a4.06,4.06,0,0,1-3.53-4.06l.8-30.48a4.06,4.06,0,0,0-3.53-4.06l-1.83-.21h-.4a3.29,3.29,0,0,0-3.32,3.26h0l-.8,30.48a3.29,3.29,0,0,1-3.32,3.26h-.4l-7.15-.81a4.06,4.06,0,0,1-3.53-4.06V378a3.22,3.22,0,0,1,3.15-3.28h.72a3.22,3.22,0,0,0,3.15-3.28l1.51-58a4.06,4.06,0,0,0-3.53-4.06l-17.36-2a4.06,4.06,0,0,1-3.53-4.06v-.21a3.31,3.31,0,0,1,3.34-3.28h0m58,26.18a3.39,3.39,0,0,0,3.41-3.34l.13-5.12a3.94,3.94,0,0,0-3.54-4l-9-.79h-.32a3.39,3.39,0,0,0-3.41,3.34l-.08,5.32a3.94,3.94,0,0,0,3.54,4l9,.79h.32m-58-28.48a5.62,5.62,0,0,0-5.64,5.52v.21a6.4,6.4,0,0,0,5.57,6.4l17.36,2a1.75,1.75,0,0,1,1.49,1.71l-1.51,58a1,1,0,0,1-.85,1h-.1a5.45,5.45,0,0,0-6.06,5.49v.12a6.4,6.4,0,0,0,5.57,6.4l7.15.81a5.91,5.91,0,0,0,.66,0,5.6,5.6,0,0,0,5.62-5.5l.8-30.48a1,1,0,0,1,1-1h.08l1.83.21a1.75,1.75,0,0,1,1.49,1.71l-.8,30.48a6.4,6.4,0,0,0,5.57,6.4l7.15.81a5.91,5.91,0,0,0,.66,0,5.6,5.6,0,0,0,5.62-5.5v-.21a6.28,6.28,0,0,0-5.36-6.38,1.67,1.67,0,0,1-1.27-1.69l1-38.05a1.06,1.06,0,0,1,1.11-1h.13L227,336.81h.56a5.66,5.66,0,0,0,5.68-5.56l.51-20a6.37,6.37,0,0,0-5.59-6.38l-65.43-7a5.93,5.93,0,0,0-.63,0h0Zm58,26.18H220l-9-.79a1.64,1.64,0,0,1-1.44-1.61l.13-5.12a1.09,1.09,0,0,1,1.08-1.1h.15l9,.79a1.64,1.64,0,0,1,1.44,1.61l-.13,5.12a1.09,1.09,0,0,1-1.08,1.1Z"/><path class="cls-3" d="M92.2,286.08s12.86-2.56,20.79-.55c4.93,1.25,9.8,7.46,23,7.46,16.67,0,25.2-6.92,25.2-6.92l-.83-22.24S151.5,271,136.16,271c-11.41,0-17.75-7.58-23.42-8.82-9.57-2.1-20.58,1.66-20.58,1.66v22.25Z"/><line class="cls-8" x1="159.65" y1="374.25" x2="159.65" y2="264.9"/><path class="cls-5" d="M192.63,264.3c2.75-4.38,7.14-4.31,9.75.16l12,20.57c2.61,4.47.51,8.12-4.66,8.12H183.89c-5.17,0-7.15-3.58-4.4-8Z"/><line class="cls-9" x1="186.42" y1="330.33" x2="186.02" y2="342.65"/><line class="cls-10" x1="185.76" y1="336.5" x2="180.62" y2="331.32"/><circle class="cls-11" cx="180.63" cy="331.3" r="2.92" transform="translate(-4.72 2.62) rotate(-0.82)"/><polygon class="cls-3" points="190.01 326.56 186.33 326.24 186.87 311.36 190.54 311.67 190.01 326.56"/><polygon class="cls-3" points="196.63 327.22 192.96 326.9 193.49 312.02 197.16 312.33 196.63 327.22"/><polygon class="cls-3" points="203.25 327.88 199.58 327.56 200.11 312.68 203.78 312.99 203.25 327.88"/><path class="cls-5" d="M220.94,311c4.09-1,6.59,1.6,5.54,5.67l-4.83,18.75c-1,4.07-4.35,5-7.33,2L199.4,322.64c-3-3-2.08-6.16,2-7.11Z"/><path class="cls-12" d="M220.94,311c4.09-1,6.59,1.6,5.54,5.67l-4.83,18.75c-1,4.07-4.35,5-7.33,2L199.4,322.64c-3-3-2.08-6.16,2-7.11Z"/><line class="cls-13" x1="213.02" y1="315.78" x2="214.77" y2="317.72"/><path class="cls-3" d="M128.86,633.64S107,619,94.36,621.41c-14.08,2.68-11.6,7.08-29.18,11.56A48.36,48.36,0,0,1,23,624.3L11.1,601.12s22.53,20.72,45.83,16.71c15.4-2.65,14-5.56,26.42-12.4,17.07-9.37,34.31,6,34.31,6Z"/><path class="cls-3" d="M21.37,621.58l-2.51-1a.46.46,0,0,1-.1-.8L21,618.14a.46.46,0,0,1,.73.33l.24,2.68a.46.46,0,0,1-.63.43Z"/><path class="cls-3" d="M14.48,610.57l-1.39-2.35a.46.46,0,0,1,.41-.7l2.8,0a.46.46,0,0,1,.38.71l-1.43,2.3a.46.46,0,0,1-.77,0Z"/><path class="cls-3" d="M7.58,604.94l-2.24,0a.38.38,0,0,1-.34-.57l1.17-2a.38.38,0,0,1,.66,0l1.07,1.94a.38.38,0,0,1-.32.58Z"/><path class="cls-3" d="M1.51,608.79l-1.16-.48a.21.21,0,0,1,0-.37l1-.72a.21.21,0,0,1,.34.15l.11,1.24a.21.21,0,0,1-.22.2Z"/><path class="cls-3" d="M1.58,596.56l-.08,1.25a.21.21,0,0,1-.34.16l-1-.75a.21.21,0,0,1,0-.37l1.14-.5a.21.21,0,0,1,.33.21Z"/><path class="cls-3" d="M11.39,601.94l-1.14-.48a.21.21,0,0,1,0-.37l1-.76a.21.21,0,0,1,.34.15l.11,1.24a.21.21,0,0,1-.36.22Z"/><path class="cls-3" d="M14.64,613.3l-3.15,1.82a.62.62,0,0,1-.93-.56l.12-3.76a.62.62,0,0,1,1-.5l3,1.94a.62.62,0,0,1,0,1.06Z"/><path class="cls-5" d="M109.39,612.69a4.08,4.08,0,0,1-4.07-4.07v-.28a4.08,4.08,0,0,1,4.07-4.07h44.09a7.84,7.84,0,0,1,6.11,3.52L160.9,610a17.9,17.9,0,0,1,2,7.59V649c0,2.24-.89,2.47-2,.51l-9.26-16.74a8.22,8.22,0,0,0-6-3.79l-5.72-.33c-2.23-.13-5.89-.23-8.13-.23h-12.2a4.08,4.08,0,0,1-4.07-4.07v-.28a4.08,4.08,0,0,1,4.07-4.07h13.66a3.68,3.68,0,1,0,0-7.32H109.39Z"/><path class="cls-5" d="M145.25,569.22c-2.84-4.52-7.37-4.44-10.07.16l-12.4,21.23c-2.69,4.61-.53,8.38,4.81,8.38h26.66c5.34,0,7.38-3.7,4.54-8.22Z"/><path class="cls-5" d="M166.37,576.82a1.21,1.21,0,0,0,.66-2c-2.31-2.42-6.66-6.77-8.7-7.43A5.42,5.42,0,0,0,155,577.7h0C157,578.34,163.08,577.4,166.37,576.82Z"/></g></g></svg>