<?xml version="1.0" encoding="utf-8"?>
<!-- Generator: Adobe Illustrator 20.1.0, SVG Export Plug-In . SVG Version: 6.00 Build 0)  -->
<svg version="1.1" id="圖層_1" xmlns="http://www.w3.org/2000/svg" xmlns:xlink="http://www.w3.org/1999/xlink" x="0px" y="0px"
	 viewBox="0 0 167 49" style="enable-background:new 0 0 167 49;" xml:space="preserve">
<style type="text/css">
	.st0{fill:#6BFFBA;}
	.st1{enable-background:new    ;}
	.st2{fill:#004864;}
</style>
<path class="st0" d="M102.6,48.2H22c-11.6,0-21.1-9.6-21.1-21.2l0,0C0.9,15.4,10.4,5.8,22,5.8h80.5c11.6,0,21.1,9.5,21.1,21.1l0,0
	C123.7,38.6,114.2,48.2,102.6,48.2z"/>
<g class="st1">
	<path class="st2" d="M31.7,28.5c-0.9,0.3-1.9,0.6-2.9,0.9V33c0,1.1-0.6,1.7-1.7,1.7h-1.9l-0.4-1.6c0.6,0.1,1.2,0.1,1.7,0.1
		c0.4,0,0.6-0.2,0.6-0.6v-2.8c-1,0.2-2.1,0.4-3.2,0.6l-0.2-1.6c1.2-0.2,2.3-0.4,3.4-0.6v-3.1h-3.4v-1.6h3.4v-1.8
		c-0.9,0.2-1.7,0.3-2.6,0.4l-0.3-1.5c2.4-0.3,4.5-0.8,6.4-1.5l0.6,1.5c-0.7,0.3-1.5,0.5-2.3,0.7v2.2h3.7c-0.2-1.3-0.2-2.8-0.2-4.4
		H34c0,1.7,0.1,3.1,0.2,4.4h5.2v1.6h-5c0.1,1.1,0.3,2.1,0.5,2.8c0.1,0.3,0.2,0.6,0.2,0.9c0.7-0.9,1.4-1.9,1.9-3l1.4,0.7
		c-0.8,1.6-1.7,2.9-2.7,4c0.2,0.5,0.4,0.9,0.6,1.2c0.5,0.8,0.9,1.2,1.2,1.2c0.2,0,0.4-0.9,0.7-2.7l1.4,0.8c-0.6,2.3-1.2,3.6-2,3.6
		c-0.7,0-1.5-0.5-2.3-1.5c-0.4-0.5-0.6-0.9-0.9-1.5c-1.2,1-2.5,1.8-4,2.3l-0.9-1.3c1.6-0.6,3-1.4,4.2-2.5c-0.2-0.6-0.4-1.1-0.5-1.8
		c-0.2-0.9-0.4-2-0.6-3.3h-3.8v2.7c1-0.3,2-0.6,2.9-0.9C31.7,26.9,31.7,28.5,31.7,28.5z M39,21.5l-1.2,1.2c-0.7-0.8-1.7-1.6-3-2.4
		l1.1-1C37.1,20,38.1,20.9,39,21.5z"/>
	<path class="st2" d="M58.2,19.6v1.5h-4.9v1.2h3.9v4.5h-7c-0.3,0.4-0.5,0.8-0.7,1.2h8.9v1.6h-3.6c-0.3,0.9-0.9,1.7-1.7,2.3
		c1.6,0.5,3.3,1.1,5,1.7l-1,1.3c-1.8-0.8-3.6-1.5-5.5-2c-1.6,0.8-4.2,1.5-7.9,2l-0.6-1.4c2.7-0.3,4.9-0.7,6.4-1.2
		c-1.3-0.4-2.6-0.7-3.9-1c0.4-0.5,0.8-1.1,1.1-1.6h-3.9v-1.5h4.9c0.2-0.4,0.5-0.8,0.7-1.2h-4.3v-4.5H48v-1.2h-4.9v-1.7H58.2z
		 M47.9,23.8h-2.3v1.8h2.3V23.8z M53.2,29.6h-4.6l-0.7,1c1.1,0.2,2.3,0.5,3.5,0.8C52.2,30.9,52.8,30.4,53.2,29.6z M51.8,21.1h-2.3
		v1.2h2.3V21.1z M51.8,23.8h-2.3v1.8h2.3V23.8z M55.6,23.8h-2.3v1.8h2.3V23.8z"/>
	<path class="st2" d="M62.4,34.8L62,33.2c0.4,0.1,0.9,0.1,1.3,0.1c0.4,0,0.6-0.2,0.6-0.6v-3.7c-0.6,0.2-1.2,0.4-1.8,0.6l-0.4-1.6
		c0.7-0.2,1.5-0.4,2.2-0.6v-3.5H62v-1.6h1.9v-3.1h1.6v3.1h1.6v1.6h-1.6v2.8c0.4-0.2,0.9-0.4,1.3-0.7v1.7c-0.4,0.2-0.9,0.4-1.3,0.6
		v4.8c0,1.1-0.6,1.7-1.7,1.7C63.8,34.8,62.4,34.8,62.4,34.8z M77.1,26.6v1.5H73v1.6h3.4v1.4H73V33c0.6,0.1,1.4,0.1,2.2,0.1
		c0.9,0,1.7,0,2.4-0.1l-0.4,1.6c-0.7,0-1.3,0-1.8,0c-2.3,0-3.8-0.2-4.7-0.6c-0.6-0.3-1.1-0.9-1.6-1.6c-0.4,0.9-0.9,1.8-1.5,2.6
		l-1.2-1c1.2-1.5,1.9-3.2,2-5.1l1.4,0.2c0,0.6-0.1,1.2-0.2,1.8c0.5,1,1.1,1.6,1.8,1.9l0.2,0.1v-4.5h-4.2v-1.7H77.1z M76.1,19.6v6.2
		h-7.7v-6.2H76.1z M74.5,22v-1.1H70V22H74.5z M74.5,23.4H70v1.2h4.5V23.4z"/>
	<path class="st2" d="M88,29.1v-1.2h1.6v1.2h6.5v1.4h-6.5v4.3H88v-4.3h-6.6v-1.4C81.4,29.2,88,29.2,88,29.1z M86.5,31.9
		c-1.1,1.1-2.5,2-4.1,2.8l-1-1.3c1.6-0.7,3-1.5,4.1-2.4L86.5,31.9z M89,22.4c-0.3,0.3-0.5,0.6-0.7,0.9h7.3v1.3h-2.8
		c-0.5,0.7-1.1,1.3-1.7,1.7c1.4,0.3,2.9,0.8,4.3,1.2l-0.9,1.2c-1.7-0.6-3.3-1.1-5-1.6c-1.8,0.8-4.1,1.2-7,1.3L81.6,27
		c2.4,0,4.3-0.2,5.7-0.5c-1.1-0.3-2.1-0.5-3.2-0.7c0.4-0.5,0.8-0.9,1.2-1.4h-3.4v-1.3h4.5c0.4-0.4,0.7-0.9,1-1.3L89,22.4z
		 M95.7,22.9h-1.5v-1.3H83.3v1.2h-1.5v-2.6h6.1c-0.2-0.4-0.4-0.7-0.7-1.1l1.7-0.3c0.2,0.4,0.4,0.9,0.6,1.3h6.1v2.8H95.7z M91,24.4
		h-3.9c-0.2,0.3-0.4,0.5-0.6,0.7c0.9,0.2,1.9,0.3,2.8,0.6C90,25.4,90.5,24.9,91,24.4z M95.9,33.5l-1.1,1.1c-0.9-0.9-2.2-1.8-3.8-2.8
		l1-1C93.6,31.7,94.9,32.7,95.9,33.5z"/>
</g>
<path class="st0" d="M120,19.4h12.7c1.1,0,1.6,1.3,0.9,2.1l-12.7,12.7c-0.8,0.8-2.1,0.2-2.1-0.9V20.6
	C118.8,19.9,119.4,19.4,120,19.4z"/>
</svg>
