<?xml version="1.0" encoding="utf-8"?>
<!-- Generator: Adobe Illustrator 20.1.0, SVG Export Plug-In . SVG Version: 6.00 Build 0)  -->
<svg version="1.1" id="圖層_1" xmlns="http://www.w3.org/2000/svg" xmlns:xlink="http://www.w3.org/1999/xlink" x="0px" y="0px"
	 viewBox="0 0 33 28" style="enable-background:new 0 0 33 28;" xml:space="preserve">
<style type="text/css">
	.st0{fill:#6BFFBA;}
</style>
<g>
	<path class="st0" d="M32,17.5v-4.2c-3.6-1.1-8.6-2-15.2-2c-7.2,0-12.4,1-16,2.2v4.2c3.2-1.2,8.4-2.4,16-2.4
		C23.8,15.3,28.8,16.4,32,17.5z"/>
	<path class="st0" d="M0.8,7.9c3.4-1.1,8.6-2.2,16-2.2c6.9,0,11.9,0.9,15.2,2V3.5c-3.7-1-8.7-1.8-15.2-1.8c-7,0-12.3,0.9-16,2V7.9z"
		/>
	<path class="st0" d="M32,23.1c-3.6-1.1-8.6-2-15.2-2c-7.2,0-12.4,1-16,2.2v4.2c3.2-1.2,8.4-2.4,16-2.4c7.1,0,12,1.1,15.2,2.2V23.1z
		"/>
</g>
</svg>
