<?xml version="1.0" encoding="utf-8"?>
<!-- Generator: Adobe Illustrator 20.1.0, SVG Export Plug-In . SVG Version: 6.00 Build 0)  -->
<svg version="1.1" id="圖層_1" xmlns="http://www.w3.org/2000/svg" xmlns:xlink="http://www.w3.org/1999/xlink" x="0px" y="0px"
	 viewBox="0 0 202 50" style="enable-background:new 0 0 202 50;" xml:space="preserve">
<style type="text/css">
	.st0{fill:#6BFFBA;}
	.st1{fill:#004864;}
</style>
<g>
	<path class="st0" d="M137.7,46H93.5C82.4,46,73.3,37,73.3,25.9v0c0-11.1,9.1-20.2,20.2-20.2h44.3c11.1,0,20.2,9.1,20.2,20.2v0
		C157.9,37,148.8,46,137.7,46z"/>
	<path class="st0" d="M142.2,10.1l8.4-8.8c0.7-0.7,2-0.3,2,0.8l0.4,17.1c0,1-1.2,1.6-2,0.9l-8.8-8.3
		C141.7,11.3,141.7,10.6,142.2,10.1z"/>
</g>
<g>
	<path class="st1" d="M112.3,28.4h-2.4l1.5,0.3c-0.2,0.5-0.5,1-0.7,1.4h3.9v1.5h-13.4v-1.5h3.7c-0.1-0.4-0.4-1-0.6-1.4l1.2-0.4h-2.2
		v-4c-0.5,0.4-1.1,0.7-1.6,0.9c-0.2-0.4-0.7-1-1.1-1.3c0.9-0.4,1.8-0.9,2.6-1.6c-0.4-0.4-1.1-0.9-1.6-1.3l1-1
		c0.6,0.3,1.3,0.8,1.7,1.2c0.5-0.5,0.8-1,1.2-1.6h-3.6v-1.5h4.5l0.3-0.1l1.2,0.6c-0.4,1.1-1,2.1-1.6,3h3.7c-0.8-1-1.5-2.2-2-3.5
		l1.6-0.5c0.2,0.5,0.5,1.1,0.8,1.6c0.6-0.5,1.2-1,1.6-1.5l1.4,1c-0.7,0.6-1.5,1.2-2.1,1.6c0.2,0.3,0.4,0.5,0.7,0.8
		c0.6-0.5,1.3-1.1,1.8-1.6l1.3,0.9c-0.6,0.6-1.4,1.1-2.1,1.6c0.8,0.6,1.6,1.1,2.6,1.5c-0.4,0.4-1,1.1-1.2,1.5
		c-0.6-0.3-1.1-0.6-1.7-0.9v4.3H112.3z M105.2,22.8c-0.5,0.5-1.1,1-1.7,1.4h8.6c-0.6-0.4-1.1-0.9-1.6-1.4v0.5h-5.3V22.8z
		 M110.4,25.7h-5.3V27h5.3V25.7z M108.9,30.2c0.3-0.5,0.6-1.2,0.8-1.8H106c0.3,0.5,0.6,1.1,0.7,1.5l-0.8,0.3H108.9z"/>
	<path class="st1" d="M124.2,18.7c0,2.9,0.4,8.4,6,11.7c-0.4,0.3-1.1,1.1-1.5,1.6c-3.2-1.9-4.8-4.8-5.6-7.5c-1.1,3.4-3,5.9-5.6,7.5
		c-0.3-0.4-1.2-1.1-1.7-1.5c3.2-1.6,5-4.5,5.8-8.5l0.9,0.2c-0.1-0.6-0.2-1.1-0.2-1.6H119v-1.8h5.2V18.7z"/>
</g>
</svg>
