<?xml version="1.0" encoding="utf-8"?>
<!-- Generator: Adobe Illustrator 20.1.0, SVG Export Plug-In . SVG Version: 6.00 Build 0)  -->
<svg version="1.1" id="圖層_1" xmlns="http://www.w3.org/2000/svg" xmlns:xlink="http://www.w3.org/1999/xlink" x="0px" y="0px"
	 viewBox="0 0 74 31" style="enable-background:new 0 0 74 31;" xml:space="preserve">
<style type="text/css">
	.st0{fill:#FFCD32;}
</style>
<g>
	<g>
		<g>
			<g>
				<path class="st0" d="M46.8,8.4c0.1-0.5-0.3-1-0.7-1s-0.8-0.4-0.8-0.9S45,5.7,44.4,5.7c-0.5,0-1,0.4-1.1,0.9
					c-0.1,0.5-0.6,0.9-1.2,0.9s-1.2,0.4-1.3,1c-0.1,0.5,0.5,1,1.3,1h3C46,9.4,46.7,9,46.8,8.4z"/>
			</g>
		</g>
		<g>
			<g>
				<path class="st0" d="M45,16.3c0.1-0.5-0.5-1-1.3-1h-2.1c-0.8,0-1.5,0.4-1.6,1c-0.1,0.5,0.5,1,1.3,1h2.1
					C44.2,17.3,44.9,16.8,45,16.3z"/>
			</g>
		</g>
		<g>
			<g>
				<path class="st0" d="M61,13.4c0.8,0,1.1,0.3,1.1,0.6c0,0.4-0.4,0.6-1.2,0.6h-2c-0.8,0-1.5,0.4-1.6,1c-0.1,0.5,0.5,1,1.3,1h2
					c0.8,0,1.1,0.3,1.1,0.7c-0.1,0.4-0.4,0.7-1.2,0.7h-4.1c-0.8,0-1.5,0.4-1.6,1c-0.1,0.5,0.5,1,1.2,1c0.8,0,1.3,0.7,1.2,1.5
					L56.3,27h8.5c0.8,0,1.6-0.7,1.7-1.5l0.6-4c0.1-0.8,0.9-1.5,1.7-1.5h1.2c0.8,0,1.3-0.4,1.4-1c0.1-0.5-0.3-1-1.1-1h-1.2
					c-0.8,0-2.1,0-2.9,0h-1.3c-0.8,0-1.2-0.3-1.1-0.7c0.1-0.4,0.5-0.7,1.3-0.7h1.3c0.8,0,1.5-0.4,1.6-1c0.1-0.5-0.5-1-1.3-1h-1.4
					c-0.8,0-1.1-0.3-1-0.6c0-0.4,0.4-0.6,1.2-0.6h1.4c0.8,0,1.6-0.7,1.7-1.5l0-0.4c0.1-0.8,0.9-1.5,1.7-1.5h1.7c0.8,0,1.5-0.4,1.6-1
					c0.1-0.5-0.5-1-1.3-1h-1.7c-0.8,0-1.4-0.7-1.3-1.5l0.3-1.8h-2.5c-0.8,0-1.4-0.7-1.3-1.5l0.1-0.5c0.1-0.8-0.2-1.5-0.8-1.5
					c-0.5,0-1.1,0.7-1.2,1.5l-0.1,0.5c-0.1,0.8-0.9,1.5-1.7,1.5h-1.7c-0.8,0-1.5,0.4-1.6,1c-0.1,0.5,0.5,1,1.3,1h2
					c0.8,0,1.1,0.3,1.1,0.7s-0.4,0.7-1.2,0.7h-4.2c-0.8,0-1.5,0.4-1.6,1c-0.1,0.5,0.5,1,1.3,1h4.2c0.8,0,1.1,0.3,1.1,0.7
					c0,0.4-0.4,0.7-1.2,0.7h-4.5c-0.8,0-1.8,0-2.1,0s-1.3,0-2,0s-1.2-0.7-1.1-1.5l0.6-4.7c0.1-0.8-0.2-1.5-0.8-1.5
					c-0.5,0-1.1,0.7-1.2,1.5L49.4,10c-0.1,0.8-0.9,1.5-1.7,1.5h-5.6c-0.8,0-1.5,0.4-1.6,1s0.5,1,1.3,1h5.6c0.8,0,1.4,0.7,1.3,1.5
					l-2,14.2c-0.1,0.8,0.2,1.5,0.8,1.5s1.1-0.7,1.2-1.5l2-14.2c0.1-0.8,0.8-1.5,1.5-1.5s1.6,0,2,0s1.3,0,2.1,0H61z M59.1,21
					c0.1-0.5,0.6-1,1.1-1s0.9,0.4,0.9,1s-0.6,1-1.1,1C59.4,22,59,21.6,59.1,21z M58.6,24.3c0.1-0.6,0.6-1,1.1-1c0.5,0,0.9,0.5,0.9,1
					c-0.1,0.6-0.6,1-1.1,1S58.6,24.8,58.6,24.3z M64.6,24.3c-0.1,0.6-0.6,1-1.1,1s-0.9-0.5-0.9-1c0.1-0.6,0.6-1,1.1-1
					C64.3,23.2,64.7,23.7,64.6,24.3z M64.2,20c0.5,0,0.9,0.4,0.9,1s-0.6,1-1.1,1c-0.5,0-0.9-0.4-0.9-1S63.6,20,64.2,20z M64.9,7.4
					c0.1-0.5,0.6-1,1.1-1s0.9,0.4,0.9,1s-0.6,1-1.1,1S64.9,7.9,64.9,7.4z M64.5,10.5c0.1-0.5,0.6-0.9,1.1-0.9s0.9,0.4,0.9,0.9
					c-0.1,0.5-0.6,0.9-1.1,0.9S64.4,11,64.5,10.5z"/>
			</g>
		</g>
		<g>
			<g>
				<path class="st0" d="M42.6,27.3c0.5,0,1.1-0.7,1.2-1.5l0.8-5.5c0.1-0.8-0.5-1.5-1.3-1.5h-2.8c-0.8,0-1.6,0.7-1.7,1.5l-0.6,4.1
					c-0.1,0.8-0.2,1.8-0.3,2.1c-0.1,0.4,0.4,0.7,0.9,0.7s1-0.3,1.1-0.7c0.1-0.4,0.5-0.7,1-0.7c0.5,0,0.8,0.3,0.8,0.7
					C41.7,27,42.1,27.3,42.6,27.3z M41.2,24c-0.5,0-0.8-0.3-0.7-1.1l0.2-1c0.1-0.8,0.5-1,1-1c0.5,0,0.9,0.2,0.8,1.1l-0.1,1
					C42.1,23.7,41.7,24,41.2,24z"/>
			</g>
		</g>
		<g>
			<g>
				<path class="st0" d="M70.7,29.4c0.1-0.5-0.5-1-1.3-1H54c-0.8,0-1.5,0.4-1.6,1c-0.1,0.5,0.5,1,1.3,1h15.4
					C69.9,30.4,70.6,30,70.7,29.4z"/>
			</g>
		</g>
		<g>
			<path class="st0" d="M4.3,25.8c-0.1,0.5-0.6,1-1.1,1H2.5c-0.5,0-1,0.4-1.1,1l0,0c-0.1,0.5,0.3,1,0.9,1h14.2c0.5,0,1-0.4,1.1-1v0
				c0.1-0.5-0.3-1-0.9-1H7.1c-0.5,0-0.9-0.4-0.8-0.9l1.2-11c0.1-0.6-0.3-1.1-0.9-1.1s-1,0.5-1,1C5.5,15.2,4.3,25.8,4.3,25.8z"/>
		</g>
		<g>
			<path class="st0" d="M14.8,10.8c-0.5,0-1,0.4-1.1,1l-0.8,6.7c-0.1,0.5,0.3,1,0.9,1h0c0.5,0,1-0.4,1.1-1l0.8-6.7
				C15.7,11.2,15.4,10.8,14.8,10.8L14.8,10.8z"/>
		</g>
		<g>
			<path class="st0" d="M35,15.2c-0.4,0-0.7,0.4-0.8,0.9l0,0.1c-0.1,0.5,0.3,0.9,0.8,0.9h1.4c0.5,0,0.9,0,0.9,0s0.1-0.4,0.1-0.9
				l0.3-2.8c0.1-0.5-0.3-1-0.9-1h0.1c-0.5,0-1.1,0.4-1.2,1l-0.1,0.9C35.8,14.8,35.4,15.2,35,15.2z"/>
		</g>
		<g>
			<path class="st0" d="M23.4,16.5c-0.1,0.5,0.3,0.9,0.8,0.9h0c0.5,0,1-0.4,1.1-0.9l0.4-3c0.1-0.5,0.1-0.9,0.1-0.9c0,0-0.4,0-0.9,0
				c-0.5,0-0.8-0.4-0.8-0.9l0.1-0.4c0.1-0.5,0.5-0.9,1-0.9c0.5,0,0.9-0.4,1-0.9l0-0.1c0.1-0.5-0.3-0.9-0.8-0.9
				c-0.5,0-0.8-0.4-0.8-0.9L24.8,7c0.1-0.5-0.3-1-0.9-1h0c-0.5,0-1,0.4-1.1,1l-0.8,6.6c-0.1,0.5,0.3,0.9,0.8,0.9
				c0.5,0,0.8,0.4,0.8,0.9L23.4,16.5z"/>
		</g>
	</g>
	<path class="st0" d="M37.2,6.1h-3.1c-0.5,0-1,0.4-1.1,1C33,7.6,32.5,8,32,8l-1.2,0c-0.5,0-0.9-0.4-0.8-0.9L30.2,5
		c0.1-0.5-0.3-1-0.9-1c-0.5,0-1,0.4-1.1,1l-1.4,11.4c-0.1,0.5,0.3,0.9,0.8,0.9h1.7c0.5,0,0.9,0.3,0.9,0.6c0,0.3-0.5,0.6-1,0.6h-5.1
		c-0.5,0-1,0.4-1.1,1c-0.1,0.5,0.3,1,0.9,1h1.4c0.5,0,0.9,0.3,0.8,0.6c0,0.3-0.5,0.6-1,0.6l-6,0c-0.5,0-0.9-0.4-0.8-0.9l1.3-10.9
		c0.1-0.5,0.1-1,0.1-1.1c0-0.1,0.1-0.5,0.1-1C20,7.3,19.6,7,19.1,7c0,0-3.1,0-3.6,0s-1.2,0.2-1.3,0.8c-0.1,0.9,0.5,1.1,0.8,1.1
		c0.7,0,1.9,0,1.9,0c0.5,0,0.9,0.4,0.8,0.9l-1.3,10.9c-0.1,0.5-0.5,0.9-1,0.9h-4c-0.5,0-0.9-0.4-0.8-0.9c0,0,0.7-6,0.7-6.5
		c0-0.4-0.1-1.1-0.8-1.1c-0.7,0-1.1,0.7-1.1,1.2c-0.1,0.4-1.1,9.6-1.1,9.6c-0.1,0.6,0.3,1,0.9,1c0.5,0,1-0.3,1-0.7
		c0-0.4,0.5-0.7,1-0.7h4c0.5,0,0.9,0.3,0.8,0.7s0.3,0.7,0.8,0.7H17c0.5,0,1-0.3,1-0.7c0-0.4,0.5-0.7,1-0.7h4c0.5,0,0.8,0.9,0.8,1.4
		l-0.5,4.1c-0.1,0.5,0.3,0.9,0.8,0.9h7.8c0.5,0,1-0.4,1-0.9l0.6-4.8c0.1-0.5,0.5-0.8,1-0.8l0.6,0c0.5,0,1-0.4,1-0.9l0-0.1
		c0.1-0.5,0.1-0.9,0.1-0.9c0,0-0.4,0-0.9,0h-2.7c-0.5,0-0.9-0.3-0.8-0.6c0-0.3,0.5-0.6,1-0.6h2.6c0.5,0,1-0.4,1.1-1
		c0.1-0.5-0.3-1-0.9-1h-2.6c-0.5,0-0.9-0.4-0.8-0.9l0.6-4.8c0.1-0.5,0.5-0.9,1-0.9h0.7c0.5,0,1-0.4,1.1-1c0.1-0.5-0.3-1-0.9-1h-0.7
		c-0.5,0-0.9-0.4-0.8-0.9l0-0.1c0.1-0.5,0.5-0.9,1-0.9H35c0.5,0,0.9,0.4,0.8,0.9c-0.1,0.5,0.3,0.9,0.8,0.9h0c0.5,0,1-0.4,1.1-0.9
		L38,7c0.1-0.5,0.1-0.9,0.1-0.9C38.1,6.1,37.7,6.1,37.2,6.1z M29.3,10.9c0.1-0.6,0.6-1,1.2-1c0.6,0,1,0.4,0.9,1
		c-0.1,0.6-0.6,1.1-1.1,1.1C29.6,12,29.2,11.5,29.3,10.9z M29.7,15.7c-0.6,0-1-0.5-0.9-1c0.1-0.6,0.6-1,1.1-1c0.6,0,1,0.5,0.9,1
		C30.8,15.2,30.3,15.7,29.7,15.7z M28.1,21.1c0.1-0.4,0.5-0.8,1.1-0.8c0.6,0,1,0.3,0.9,0.8s-0.5,0.8-1.1,0.8S28,21.5,28.1,21.1z
		 M30.1,28.3h-4c-0.5,0-0.9-0.3-0.8-0.8c0.1-0.6,0.6-0.8,1.1-0.8h3.9c0.5,0,0.9,0.4,0.8,0.8C31.1,28,30.6,28.3,30.1,28.3z
		 M30.6,25.2h-4.2c-0.5,0-0.8-0.3-0.8-0.8c0.1-0.5,0.4-0.8,0.9-0.8h4.1c0.5,0,0.8,0.5,0.7,0.8C31.5,24.7,31.2,25.2,30.6,25.2z"/>
	<g>
		<path class="st0" d="M7.4,9.4L7.4,9.4c-1-0.1-2,0.4-2.7,1.2C4.3,11,4.2,11.7,4.6,12c0.3,0.4,0.9,0.3,1.3-0.1
			c0.3-0.3,0.7-0.5,1.1-0.5c0.4,0,0.7,0.3,0.9,0.7c0.1,0.3,0.4,0.5,0.7,0.5c0,0,0.1,0,0.1,0c0.1,0,0.3-0.1,0.4-0.2
			c0.5-0.3,0.7-0.9,0.5-1.4C9.1,10.1,8.4,9.5,7.4,9.4z"/>
		<path class="st0" d="M8.3,5.3L8.3,5.3C6.8,5.2,5.3,5.9,4.2,7C4,7.2,3.9,7.5,3.9,7.7c0,0.3,0.1,0.5,0.2,0.7c0.3,0.4,1,0.3,1.4-0.1
			c0.7-0.7,1.5-1,2.3-1c0.8,0.1,1.5,0.5,1.9,1.3c0.1,0.3,0.4,0.5,0.7,0.5c0,0,0.1,0,0.1,0c0.2,0,0.3-0.1,0.5-0.2
			c0.2-0.1,0.4-0.4,0.5-0.6c0.1-0.3,0.1-0.5,0-0.8C10.9,6.3,9.7,5.5,8.3,5.3z"/>
		<path class="st0" d="M13.9,4.3c-0.9-1.8-2.6-3-4.7-3.1c-0.3,0-0.7,0-1,0c-1.8,0.1-3.5,1-4.9,2.3C3,3.6,2.9,3.9,2.8,4.2
			c0,0.3,0.1,0.5,0.3,0.7c0.4,0.4,1,0.3,1.4-0.1C5.7,3.6,7.2,3,8.6,3.1l0-0.1l0,0.1l0,0C10.2,3.2,11.4,4,12,5.3
			c0.1,0.3,0.4,0.4,0.7,0.5c0,0,0.1,0,0.1,0c0.2,0,0.3-0.1,0.5-0.2c0.3-0.1,0.5-0.4,0.5-0.7C14,4.7,14,4.5,13.9,4.3z"/>
	</g>
</g>
</svg>
