<?xml version="1.0" encoding="utf-8"?>
<!-- Generator: Adobe Illustrator 20.1.0, SVG Export Plug-In . SVG Version: 6.00 Build 0)  -->
<svg version="1.1" id="圖層_1" xmlns="http://www.w3.org/2000/svg" xmlns:xlink="http://www.w3.org/1999/xlink" x="0px" y="0px"
	 viewBox="0 0 202 50" style="enable-background:new 0 0 202 50;" xml:space="preserve">
<style type="text/css">
	.st0{fill:#6BFFBA;}
	.st1{fill:#004864;}
</style>
<g>
	<path class="st0" d="M138.2,46H61.4c-11.1,0-20.2-9.1-20.2-20.2v0c0-11.1,9.1-20.2,20.2-20.2l76.8,0c11.1,0,20.2,9.1,20.2,20.2v0
		C158.3,36.9,149.3,46,138.2,46z"/>
	<g>
		<path class="st1" d="M77.3,25.6c-0.7,1.3-1.6,2.5-2.7,3.6c0.4,1.3,0.9,2,1.4,2c0.3,0,0.5-0.8,0.6-2.7c0.4,0.5,1.1,0.9,1.6,1.1
			c-0.3,2.8-0.9,3.6-2.4,3.6c-1.2,0-2.1-1-2.8-2.6c-0.9,0.8-2,1.4-3,2c-0.3-0.5-0.8-1.1-1.3-1.6c1.3-0.6,2.5-1.4,3.6-2.3
			c-0.4-1.3-0.6-2.8-0.8-4.4h-3.3v1.9c0.8-0.1,1.7-0.3,2.5-0.5l0.1,1.8L68.2,28v2.8c0,1.1-0.2,1.6-0.9,1.9c-0.6,0.3-1.6,0.4-2.9,0.4
			c-0.1-0.5-0.4-1.4-0.7-2c0.9,0,1.9,0,2.1,0c0.3,0,0.4-0.1,0.4-0.3v-2.4c-1,0.2-2.1,0.4-2.9,0.6l-0.5-2c0.9-0.1,2.1-0.3,3.4-0.6
			v-2.2h-3.1v-1.8h3.1v-1.9c-0.9,0.1-1.8,0.3-2.6,0.4c-0.1-0.5-0.3-1.2-0.6-1.6c2.3-0.3,4.8-0.8,6.5-1.4l1.3,1.6
			c-0.8,0.2-1.7,0.5-2.7,0.7v2.2h3.1c-0.1-1.5-0.2-3-0.2-4.5h2c0,1.5,0,3,0.2,4.5h4.4v1.8h-4.2c0.1,1,0.3,1.9,0.5,2.8
			c0.6-0.7,1.1-1.4,1.5-2.2L77.3,25.6z M76.1,22c-0.4-0.7-1.4-1.9-2.3-2.7l1.5-1c0.9,0.7,1.9,1.8,2.4,2.6L76.1,22z"/>
		<path class="st1" d="M97.2,20.4c0,0,0,0.7,0,0.9c-0.2,7.3-0.4,9.9-1.1,10.7c-0.5,0.6-0.9,0.8-1.6,0.9c-0.6,0.1-1.6,0.1-2.6,0
			c0-0.5-0.3-1.4-0.6-1.9c1,0.1,2,0.1,2.4,0.1c0.3,0,0.5-0.1,0.7-0.3c0.5-0.5,0.7-3,0.9-8.7h-3.5c-0.4,1-0.9,1.9-1.4,2.6
			c-0.3-0.2-0.8-0.6-1.3-0.9v7.6h-4.3v1.2h-1.8V20.5h1.8c0.2-0.8,0.4-1.9,0.5-2.6l2.1,0.3c-0.3,0.8-0.6,1.6-0.8,2.3h2.5v2.6
			c0.9-1.4,1.7-3.3,2.2-5.2l1.8,0.4c-0.2,0.7-0.4,1.4-0.6,2.1H97.2z M87.4,22.2h-2.6v2.6h2.6V22.2z M87.4,29.7v-3.2h-2.6v3.2H87.4z
			 M92.8,28.8c-0.5-1-1.5-2.6-2.3-3.8l1.5-0.9c0.8,1.1,1.9,2.7,2.4,3.6L92.8,28.8z"/>
		<path class="st1" d="M105.5,27v3.8c0,0.9-0.1,1.4-0.6,1.7c-0.5,0.3-1.2,0.4-2.2,0.4c0-0.5-0.3-1.3-0.5-1.8c0.6,0,1.2,0,1.4,0
			c0.2,0,0.3-0.1,0.3-0.3v-3.3c-0.5,0.1-1,0.3-1.5,0.4l-0.4-1.9c0.6-0.1,1.2-0.3,1.9-0.5v-2.9H102V21h1.8v-3.1h1.8V21h1.6v1.8h-1.6
			v2.4l1.5-0.4l0.3,1.7L105.5,27z M112.9,31.1c0.4,0,0.7,0,1.1,0c0.6,0,2.6,0,3.3,0c-0.2,0.4-0.5,1.2-0.5,1.7H114
			c-2.1,0-3.8-0.4-4.9-2.4c-0.4,1-1,1.9-1.7,2.6c-0.3-0.3-1-0.9-1.4-1.2c1.4-1.1,2-2.9,2.3-5.1L110,27c-0.1,0.6-0.2,1.1-0.3,1.6
			c0.4,0.9,0.8,1.5,1.4,1.9v-4.2h-3.8v-1.6h9.6v1.6h-4v1.4h3.1v1.5h-3.1V31.1z M116.1,24h-8v-5.6h8V24z M114.2,19.7h-4.4v0.8h4.4
			V19.7z M114.2,21.8h-4.4v0.8h4.4V21.8z"/>
		<path class="st1" d="M136.5,29.4h-3.8c1.3,0.6,2.8,1.5,3.7,2.2l-1.5,1.4c-0.9-0.8-2.7-1.9-4.1-2.6l1.1-0.9H130v3.6h-1.9v-3.6h-2.7
			l1.9,0.6c-0.9,1.1-2.5,2.1-3.9,2.7c-0.4-0.4-1.2-1-1.6-1.3c1.4-0.5,2.8-1.2,3.6-2.1h-3.5v-1.6h6.3v-1.1h1.9v1.1h6.5V29.4z
			 M134.5,27.5c-1.2-0.5-2.8-0.9-4.6-1.4c-1.8,0.7-4.2,1.1-7.5,1.3c-0.1-0.6-0.4-1.2-0.7-1.6c1.9,0,3.5-0.2,4.8-0.4
			c-0.9-0.2-1.8-0.3-2.8-0.5c0.4-0.4,0.9-0.8,1.4-1.3h-3.2V22h4.6c0.4-0.5,0.7-1,1-1.4h-3.5v0.9h-1.8V19h5.8
			c-0.1-0.2-0.2-0.5-0.3-0.7l2.1-0.4c0.2,0.3,0.4,0.7,0.6,1.1h5.8v2.5h-1.9v-0.9h-6l1.2,0.4c-0.3,0.3-0.5,0.7-0.8,1.1h3.1
			c0.1-0.3,0.3-0.7,0.4-1l1.9,0.4c-0.1,0.2-0.1,0.4-0.2,0.6h2.6v1.5H133c-0.4,0.6-0.8,1-1.2,1.4c1.8,0.4,3.4,0.9,4.6,1.3L134.5,27.5
			z M127.1,23.5c-0.1,0.1-0.3,0.3-0.4,0.4c0.9,0.1,1.8,0.3,2.7,0.5c0.5-0.3,0.9-0.6,1.3-0.9H127.1z"/>
	</g>
	<path class="st0" d="M154.8,18.6H167c1,0,1.5,1.2,0.8,2l-12.1,12.1c-0.7,0.7-2,0.2-2-0.8l-0.1-12.1
		C153.7,19.2,154.2,18.6,154.8,18.6z"/>
</g>
</svg>
