<svg id="bg" xmlns="http://www.w3.org/2000/svg" viewBox="0 0 1280 650"><defs><style>.cls-1{fill:#006464;}.cls-2{fill:#004864;}</style></defs><title>Registration_bg-13</title><rect class="cls-1" width="1280" height="650"/><path class="cls-2" d="M1073.09,576.36a1.82,1.82,0,0,0,1.87-1.68,1.73,1.73,0,0,0-1.84-1.6h-5a1.55,1.55,0,0,1-1.57-1.84l1-6.06h-14.87a2.34,2.34,0,0,0-2.19,2.09l-1.3,7.76a1.61,1.61,0,0,0,1.46,2.1,1.8,1.8,0,0,0,1.81-1.69l0.84-5a2.15,2.15,0,0,1,2-1.84c0.92,0,1.37.83,1.2,1.84l-4.08,23.76a2.3,2.3,0,0,1-2.18,1.84h-2.26a2.26,2.26,0,0,0-2.15,1.84l-0.49,3.08a1.62,1.62,0,0,0,1.58,1.84,1.93,1.93,0,0,0,1.77-1.68,2.23,2.23,0,0,1,2.17-1.68h1.7a3.29,3.29,0,0,0,3.1-2.57l1.78-9.43a2.34,2.34,0,0,1,2.21-1.83h5.38a1.55,1.55,0,0,1,1.57,1.84l-2.06,13.14a1.85,1.85,0,0,0,1.88,2.2h3.33a1.79,1.79,0,0,0,2.06-1.73,1.61,1.61,0,0,0-1.86-1.47h0a1.55,1.55,0,0,1-1.57-1.84l2-13a2.21,2.21,0,0,0-2.25-2.63h-1.39a1.55,1.55,0,0,1-1.57-1.84l0.62-3.93h7.35Z"/><path class="cls-2" d="M1063.22,555.64a1,1,0,0,1,1.9.21l2.46,5.39a1.11,1.11,0,0,1-1.09,1.69h-6.93c-1,0-1.36-.67-0.74-1.49Z"/><path class="cls-2" d="M1067.81,554.87a1,1,0,0,1-.78-1.59l2.43-3.11a1,1,0,1,1,1.56,1.21l-2.42,3.11A1,1,0,0,1,1067.81,554.87Z"/><path class="cls-2" d="M1069.65,558.33a1,1,0,0,1-.42-1.88l4.1-1.94a1,1,0,0,1,.84,1.78l-4.1,1.94A1,1,0,0,1,1069.65,558.33Z"/><path class="cls-2" d="M1075.1,562h-4.16a1,1,0,0,1,0-2h4.16A1,1,0,1,1,1075.1,562Z"/><path class="cls-2" d="M918.44,590.9a1.82,1.82,0,0,0,1.87-1.68,1.73,1.73,0,0,0-1.84-1.6h-5a1.55,1.55,0,0,1-1.57-1.84l1-6.06H898a2.34,2.34,0,0,0-2.19,2.09l-1.3,7.76a1.61,1.61,0,0,0,1.46,2.1,1.8,1.8,0,0,0,1.81-1.69l0.84-5a2.15,2.15,0,0,1,2-1.84c0.92,0,1.37.83,1.2,1.84l-4.08,23.76a2.3,2.3,0,0,1-2.18,1.84h-2.26a2.26,2.26,0,0,0-2.15,1.84l-0.49,3.08a1.62,1.62,0,0,0,1.58,1.84,1.93,1.93,0,0,0,1.77-1.68,2.23,2.23,0,0,1,2.17-1.68h1.7a3.29,3.29,0,0,0,3.1-2.57l1.78-9.43a2.34,2.34,0,0,1,2.21-1.83h5.38a1.55,1.55,0,0,1,1.57,1.84l-2.06,13.14a1.85,1.85,0,0,0,1.88,2.2H915a1.79,1.79,0,0,0,2.06-1.73,1.61,1.61,0,0,0-1.86-1.47h0a1.55,1.55,0,0,1-1.57-1.84l2-13a2.21,2.21,0,0,0-2.25-2.63H912a1.55,1.55,0,0,1-1.57-1.84l0.62-3.93h7.35Z"/><path class="cls-2" d="M908.57,570.19a1,1,0,0,1,1.9.21l2.46,5.39a1.11,1.11,0,0,1-1.09,1.69h-6.93c-1,0-1.36-.67-0.74-1.49Z"/><path class="cls-2" d="M913.15,569.41a1,1,0,0,1-.78-1.59l2.43-3.11a1,1,0,1,1,1.56,1.21L913.93,569A1,1,0,0,1,913.15,569.41Z"/><path class="cls-2" d="M915,572.87a1,1,0,0,1-.42-1.88l4.1-1.94a1,1,0,0,1,.84,1.78l-4.1,1.94A1,1,0,0,1,915,572.87Z"/><path class="cls-2" d="M920.44,576.56h-4.16a1,1,0,1,1,0-2h4.16A1,1,0,0,1,920.44,576.56Z"/><path class="cls-2" d="M87.48,542a1.82,1.82,0,0,0,1.87-1.68,1.73,1.73,0,0,0-1.84-1.6h-5a1.55,1.55,0,0,1-1.57-1.84l1-6.06H67a2.34,2.34,0,0,0-2.19,2.09l-1.3,7.76a1.61,1.61,0,0,0,1.46,2.1,1.8,1.8,0,0,0,1.81-1.69l0.84-5a2.15,2.15,0,0,1,2-1.84c0.92,0,1.37.83,1.2,1.84l-4.08,23.76a2.3,2.3,0,0,1-2.18,1.84H62.28a2.26,2.26,0,0,0-2.15,1.84l-0.49,3.08a1.62,1.62,0,0,0,1.58,1.84A1.93,1.93,0,0,0,63,566.81a2.23,2.23,0,0,1,2.17-1.68h1.7a3.29,3.29,0,0,0,3.1-2.57l1.78-9.43a2.34,2.34,0,0,1,2.21-1.83h5.38a1.55,1.55,0,0,1,1.57,1.84l-2.06,13.14a1.85,1.85,0,0,0,1.88,2.2h3.33a1.79,1.79,0,0,0,2.06-1.73,1.61,1.61,0,0,0-1.86-1.47h0a1.55,1.55,0,0,1-1.57-1.84l2-13a2.21,2.21,0,0,0-2.25-2.63H81.09A1.55,1.55,0,0,1,79.51,546L80.13,542h7.35Z"/><path class="cls-2" d="M77.61,521.32a1,1,0,0,1,1.9.21L82,526.92a1.11,1.11,0,0,1-1.09,1.69H74c-1,0-1.36-.67-0.74-1.49Z"/><path class="cls-2" d="M82.2,520.54a1,1,0,0,1-.78-1.59l2.43-3.11A1,1,0,1,1,85.4,517L83,520.16A1,1,0,0,1,82.2,520.54Z"/><path class="cls-2" d="M84,524a1,1,0,0,1-.42-1.88l4.1-1.94a1,1,0,0,1,.84,1.78l-4.1,1.94A1,1,0,0,1,84,524Z"/><path class="cls-2" d="M89.48,527.69H85.33a1,1,0,1,1,0-2h4.16A1,1,0,1,1,89.48,527.69Z"/><path class="cls-2" d="M319.53,583.2a1.82,1.82,0,0,0,1.87-1.68,1.73,1.73,0,0,0-1.84-1.6h-5a1.55,1.55,0,0,1-1.57-1.84l1-6.06H299.07a2.34,2.34,0,0,0-2.19,2.09l-1.3,7.76A1.61,1.61,0,0,0,297,584a1.8,1.8,0,0,0,1.81-1.69l0.84-5a2.15,2.15,0,0,1,2-1.84c0.92,0,1.37.83,1.2,1.84l-4.08,23.76a2.3,2.3,0,0,1-2.18,1.84h-2.26a2.26,2.26,0,0,0-2.15,1.84l-0.49,3.08a1.62,1.62,0,0,0,1.58,1.84A1.93,1.93,0,0,0,295,608a2.23,2.23,0,0,1,2.17-1.68h1.7a3.29,3.29,0,0,0,3.1-2.57l1.78-9.43a2.34,2.34,0,0,1,2.21-1.83h5.38a1.55,1.55,0,0,1,1.57,1.84l-2.06,13.14a1.85,1.85,0,0,0,1.88,2.2h3.33a1.79,1.79,0,0,0,2.06-1.73,1.61,1.61,0,0,0-1.86-1.47h0a1.55,1.55,0,0,1-1.57-1.84l2-13a2.21,2.21,0,0,0-2.25-2.63h-1.39a1.55,1.55,0,0,1-1.57-1.84l0.62-3.93h7.35Z"/><path class="cls-2" d="M309.66,562.49a1,1,0,0,1,1.9.21l2.46,5.39a1.11,1.11,0,0,1-1.09,1.69H306c-1,0-1.36-.67-0.74-1.49Z"/><path class="cls-2" d="M314.25,561.72a1,1,0,0,1-.78-1.59L315.9,557a1,1,0,1,1,1.56,1.21L315,561.34A1,1,0,0,1,314.25,561.72Z"/><path class="cls-2" d="M316.09,565.17a1,1,0,0,1-.42-1.88l4.1-1.94a1,1,0,0,1,.84,1.78l-4.1,1.94A1,1,0,0,1,316.09,565.17Z"/><path class="cls-2" d="M321.54,568.86h-4.16a1,1,0,0,1,0-2h4.16A1,1,0,0,1,321.54,568.86Z"/><path class="cls-2" d="M820.84,545.46a1,1,0,0,1-.78-1.59l2.43-3.11A1,1,0,1,1,824,542l-2.43,3.11A1,1,0,0,1,820.84,545.46Z"/><path class="cls-2" d="M822.68,548.92a1,1,0,0,1-.42-1.88l4.1-1.94a1,1,0,0,1,.84,1.78l-4.1,1.94A1,1,0,0,1,822.68,548.92Z"/><path class="cls-2" d="M828.13,552.61H824a1,1,0,1,1,0-2h4.16A1,1,0,1,1,828.13,552.61Z"/><path class="cls-2" d="M815.38,546.24a1,1,0,0,1,1.9.21l2.46,5.39a1.11,1.11,0,0,1-1.09,1.69h-6.93c-1,0-1.36-.67-0.74-1.49Z"/><path class="cls-2" d="M816.74,575.69s0.14-.83.29-1.84l0.21-1.36a2.24,2.24,0,0,1,2.14-1.84h3a2.19,2.19,0,0,0,2.13-1.76,1.53,1.53,0,0,0-1.6-1.76h-3a1.56,1.56,0,0,1-1.59-1.84l1.43-9.52h-13a2.18,2.18,0,0,0-2,1.84l-1.16,7.7a1.52,1.52,0,0,0,1.48,1.84,1.52,1.52,0,0,1,1.48,1.84l-0.19,1.25-0.55,3.65-0.55,3.65L805,579.15a2.18,2.18,0,0,1-2,1.84h-3.52a2.13,2.13,0,0,0-2,1.76l-0.52,3.47a1.46,1.46,0,0,0,1.5,1.71,2.1,2.1,0,0,0,2-1.71,2.16,2.16,0,0,1,2.12-1.71h3.31a2.19,2.19,0,0,0,2.13-1.76l0.54-3.6,0.24-1.61a2.24,2.24,0,0,1,2.14-1.84h0.47a1.56,1.56,0,0,1,1.59,1.84L811.35,588l-0.54,3.6a1.53,1.53,0,0,0,1.6,1.76h3a2.19,2.19,0,0,0,2.13-1.76,1.42,1.42,0,0,0-1.32-1.76,1.46,1.46,0,0,1-1.31-1.84l1.58-10.51C816.6,576.52,816.73,575.69,816.74,575.69Z"/><path class="cls-2" d="M171.86,480.3a1,1,0,0,1-.78-1.59l2.43-3.11a1,1,0,1,1,1.56,1.21l-2.43,3.11A1,1,0,0,1,171.86,480.3Z"/><path class="cls-2" d="M173.7,483.76a1,1,0,0,1-.42-1.88l4.1-1.94a1,1,0,0,1,.84,1.78l-4.1,1.94A1,1,0,0,1,173.7,483.76Z"/><path class="cls-2" d="M179.14,487.45H175a1,1,0,0,1,0-2h4.16A1,1,0,1,1,179.14,487.45Z"/><path class="cls-2" d="M166.4,481.08a1,1,0,0,1,1.9.21l2.46,5.39a1.11,1.11,0,0,1-1.09,1.69h-6.93c-1,0-1.36-.67-0.74-1.49Z"/><path class="cls-2" d="M167.76,510.54s0.14-.83.29-1.84l0.21-1.36a2.24,2.24,0,0,1,2.14-1.84h3a2.19,2.19,0,0,0,2.13-1.76,1.53,1.53,0,0,0-1.6-1.76h-3a1.56,1.56,0,0,1-1.59-1.84l1.43-9.52h-13a2.18,2.18,0,0,0-2,1.84l-1.16,7.7A1.52,1.52,0,0,0,156,502a1.52,1.52,0,0,1,1.48,1.84l-0.19,1.25-0.55,3.65-0.55,3.65L156,514a2.18,2.18,0,0,1-2,1.84h-3.52a2.13,2.13,0,0,0-2,1.76l-0.52,3.47a1.46,1.46,0,0,0,1.5,1.71,2.1,2.1,0,0,0,2-1.71,2.16,2.16,0,0,1,2.12-1.71h3.31a2.19,2.19,0,0,0,2.13-1.76l0.54-3.6,0.24-1.61a2.24,2.24,0,0,1,2.14-1.84h0.47a1.56,1.56,0,0,1,1.59,1.84l-1.58,10.51-0.54,3.6a1.53,1.53,0,0,0,1.6,1.76h3a2.19,2.19,0,0,0,2.13-1.76,1.42,1.42,0,0,0-1.32-1.76,1.46,1.46,0,0,1-1.31-1.84l1.58-10.51C167.62,511.36,167.75,510.54,167.76,510.54Z"/><path class="cls-2" d="M433,545.67a1,1,0,0,1-.78-1.59l2.43-3.11a1,1,0,1,1,1.56,1.21l-2.43,3.11A1,1,0,0,1,433,545.67Z"/><path class="cls-2" d="M434.83,549.13a1,1,0,0,1-.42-1.88l4.1-1.94a1,1,0,0,1,.84,1.78l-4.1,1.94A1,1,0,0,1,434.83,549.13Z"/><path class="cls-2" d="M440.27,552.82h-4.16a1,1,0,0,1,0-2h4.16A1,1,0,0,1,440.27,552.82Z"/><path class="cls-2" d="M427.53,546.45a1,1,0,0,1,1.9.21l2.46,5.39a1.11,1.11,0,0,1-1.09,1.69h-6.93c-1,0-1.36-.67-0.74-1.49Z"/><path class="cls-2" d="M428.88,575.91s0.14-.83.29-1.84l0.21-1.36a2.24,2.24,0,0,1,2.14-1.84h3a2.19,2.19,0,0,0,2.13-1.76,1.53,1.53,0,0,0-1.6-1.76h-3a1.56,1.56,0,0,1-1.59-1.84l1.43-9.52h-13a2.18,2.18,0,0,0-2,1.84l-1.16,7.7a1.52,1.52,0,0,0,1.48,1.84,1.52,1.52,0,0,1,1.48,1.84l-0.19,1.25-0.55,3.65-0.55,3.65-0.24,1.61a2.18,2.18,0,0,1-2,1.84h-3.52a2.13,2.13,0,0,0-2,1.76L409,586.43a1.46,1.46,0,0,0,1.5,1.71,2.1,2.1,0,0,0,2-1.71,2.16,2.16,0,0,1,2.12-1.71H418A2.19,2.19,0,0,0,420.1,583l0.54-3.6,0.24-1.61a2.24,2.24,0,0,1,2.14-1.84h0.47a1.56,1.56,0,0,1,1.59,1.84l-1.58,10.51-0.54,3.6a1.53,1.53,0,0,0,1.6,1.76h3a2.19,2.19,0,0,0,2.13-1.76,1.42,1.42,0,0,0-1.32-1.76,1.46,1.46,0,0,1-1.31-1.84l1.58-10.51C428.75,576.74,428.88,575.91,428.88,575.91Z"/><path class="cls-2" d="M1000.4,517.66a1,1,0,0,1-.78-1.59L1002,513a1,1,0,1,1,1.56,1.21l-2.43,3.11A1,1,0,0,1,1000.4,517.66Z"/><path class="cls-2" d="M1002.24,521.12a1,1,0,0,1-.42-1.88l2.81-1.33a1,1,0,0,1,.84,1.78l-2.81,1.33A1,1,0,0,1,1002.24,521.12Z"/><path class="cls-2" d="M1007.68,524.81h-4.16a1,1,0,0,1,0-2h4.16A1,1,0,0,1,1007.68,524.81Z"/><path class="cls-2" d="M994.9,518.44a1,1,0,0,1,1.9.21l2.46,5.39a1.11,1.11,0,0,1-1.09,1.69h-6.93c-1,0-1.36-.67-0.74-1.49Z"/><path class="cls-2" d="M1008.05,529.73l0.54-3.6,0.63-4.18a1.52,1.52,0,0,0-1.48-1.84,2.18,2.18,0,0,0-2,1.84l-0.63,4.18a2.24,2.24,0,0,1-2.14,1.84H982.69a2.19,2.19,0,0,0-2.13,1.76l-0.54,3.6-0.63,4.18a1.52,1.52,0,0,0,1.48,1.84,2.18,2.18,0,0,0,2-1.84l0.63-4.18a2.18,2.18,0,0,1,2-1.84,1.52,1.52,0,0,1,1.48,1.84l-1.91,12.73a1.56,1.56,0,0,0,1.59,1.84H987a1.56,1.56,0,0,1,1.59,1.84l-1.06,7a2.18,2.18,0,0,1-2,1.84H982a2.13,2.13,0,0,0-2,1.76l-0.52,3.47a1.46,1.46,0,0,0,1.5,1.71,2.1,2.1,0,0,0,2-1.71,2.16,2.16,0,0,1,2.12-1.71h3.31a2.19,2.19,0,0,0,2.13-1.76l0.54-3.6,1.06-7a9.21,9.21,0,0,1,.38-1.84h5.39a1.51,1.51,0,0,1,1.47,1.84l-0.25,1.66-0.28,1.89L998.54,555a1.51,1.51,0,0,0,1.61,1.71h3a2.19,2.19,0,0,0,2.13-1.76,1.42,1.42,0,0,0-1.32-1.76,1.46,1.46,0,0,1-1.31-1.84l0.25-1.66,0.54-3.6a1.48,1.48,0,0,0-1.49-1.76h-3.5a1.51,1.51,0,0,1-1.47-1.84l1.38-9.21a2.24,2.24,0,0,1,2.14-1.84h7.33l0.26-1.76h0Z"/><path class="cls-2" d="M200.38,557.39a1,1,0,0,1-.78-1.59l2.43-3.11a1,1,0,1,1,1.56,1.21L201.16,557A1,1,0,0,1,200.38,557.39Z"/><path class="cls-2" d="M202.22,560.85a1,1,0,0,1-.42-1.88l2.81-1.33a1,1,0,0,1,.84,1.78l-2.81,1.33A1,1,0,0,1,202.22,560.85Z"/><path class="cls-2" d="M207.67,564.54h-4.16a1,1,0,1,1,0-2h4.16A1,1,0,1,1,207.67,564.54Z"/><path class="cls-2" d="M194.88,558.17a1,1,0,0,1,1.9.21l2.46,5.39a1.11,1.11,0,0,1-1.09,1.69h-6.93c-1,0-1.36-.67-0.74-1.49Z"/><path class="cls-2" d="M208,569.45l0.54-3.6,0.63-4.18a1.52,1.52,0,0,0-1.48-1.84,2.18,2.18,0,0,0-2,1.84l-0.63,4.18a2.24,2.24,0,0,1-2.14,1.84H182.67a2.19,2.19,0,0,0-2.13,1.76l-0.54,3.6-0.63,4.18a1.52,1.52,0,0,0,1.48,1.84,2.18,2.18,0,0,0,2-1.84l0.63-4.18a2.18,2.18,0,0,1,2-1.84,1.52,1.52,0,0,1,1.48,1.84l-1.91,12.73a1.56,1.56,0,0,0,1.59,1.84H187a1.56,1.56,0,0,1,1.59,1.84l-1.06,7a2.18,2.18,0,0,1-2,1.84H182a2.13,2.13,0,0,0-2,1.76l-0.52,3.47a1.46,1.46,0,0,0,1.5,1.71,2.1,2.1,0,0,0,2-1.71,2.16,2.16,0,0,1,2.12-1.71h3.31a2.19,2.19,0,0,0,2.13-1.76l0.54-3.6,1.06-7a9.21,9.21,0,0,1,.38-1.84h5.39a1.51,1.51,0,0,1,1.47,1.84l-0.25,1.66L198.79,593l-0.26,1.76a1.51,1.51,0,0,0,1.61,1.71h3a2.19,2.19,0,0,0,2.13-1.76A1.42,1.42,0,0,0,203.9,593a1.46,1.46,0,0,1-1.31-1.84l0.25-1.66,0.54-3.6a1.48,1.48,0,0,0-1.49-1.76h-3.5a1.51,1.51,0,0,1-1.47-1.84l1.38-9.21a2.24,2.24,0,0,1,2.14-1.84h7.33l0.26-1.76h0Z"/><path class="cls-2" d="M1205.19,564.85a1.82,1.82,0,0,0,1.87-1.68,1.73,1.73,0,0,0-1.84-1.6h-5a1.55,1.55,0,0,1-1.57-1.84l1-6.06h-14.87a2.34,2.34,0,0,0-2.19,2.09l-1.3,7.76a1.61,1.61,0,0,0,1.46,2.1,1.8,1.8,0,0,0,1.81-1.69l0.84-5a2.15,2.15,0,0,1,2-1.84c0.92,0,1.37.83,1.2,1.84l-4.08,23.76a2.3,2.3,0,0,1-2.18,1.84H1180a2.26,2.26,0,0,0-2.15,1.84l-0.49,3.08a1.62,1.62,0,0,0,1.58,1.84,1.93,1.93,0,0,0,1.77-1.68,2.23,2.23,0,0,1,2.17-1.68h1.7a3.29,3.29,0,0,0,3.1-2.57l1.78-9.43a2.34,2.34,0,0,1,2.21-1.83H1197a1.55,1.55,0,0,1,1.57,1.84l-2.06,13.14a1.85,1.85,0,0,0,1.88,2.2h3.33a1.79,1.79,0,0,0,2.06-1.73,1.61,1.61,0,0,0-1.86-1.47h0a1.55,1.55,0,0,1-1.57-1.84l2-13a2.21,2.21,0,0,0-2.25-2.63h-1.39a1.55,1.55,0,0,1-1.57-1.84l0.62-3.93h7.35Z"/><path class="cls-2" d="M1195.32,544.14a1,1,0,0,1,1.9.21l2.46,5.39a1.11,1.11,0,0,1-1.09,1.69h-6.93c-1,0-1.36-.67-0.74-1.49Z"/><path class="cls-2" d="M1199.9,543.36a1,1,0,0,1-.78-1.59l2.42-3.11a1,1,0,1,1,1.56,1.21l-2.42,3.11A1,1,0,0,1,1199.9,543.36Z"/><path class="cls-2" d="M1201.75,546.82a1,1,0,0,1-.42-1.88l4.1-1.94a1,1,0,0,1,.84,1.78l-4.1,1.94A1,1,0,0,1,1201.75,546.82Z"/><path class="cls-2" d="M1207.19,550.51H1203a1,1,0,0,1,0-2h4.16A1,1,0,0,1,1207.19,550.51Z"/><path class="cls-2" d="M1142.75,543.36a1,1,0,0,1-.78-1.59l2.42-3.11a1,1,0,1,1,1.56,1.21l-2.42,3.11A1,1,0,0,1,1142.75,543.36Z"/><path class="cls-2" d="M1144.6,546.82a1,1,0,0,1-.42-1.88l4.1-1.94a1,1,0,0,1,.84,1.78l-4.1,1.94A1,1,0,0,1,1144.6,546.82Z"/><path class="cls-2" d="M1150,550.51h-4.16a1,1,0,0,1,0-2H1150A1,1,0,0,1,1150,550.51Z"/><path class="cls-2" d="M1137.3,544.14a1,1,0,0,1,1.9.21l2.46,5.39a1.11,1.11,0,0,1-1.09,1.69h-6.93c-1,0-1.36-.67-0.74-1.49Z"/><path class="cls-2" d="M1138.66,573.59s0.14-.83.29-1.84l0.21-1.36a2.24,2.24,0,0,1,2.14-1.84h3a2.19,2.19,0,0,0,2.13-1.76,1.53,1.53,0,0,0-1.6-1.76h-3a1.56,1.56,0,0,1-1.59-1.84l1.43-9.52h-13a2.18,2.18,0,0,0-2,1.84l-1.16,7.7a1.52,1.52,0,0,0,1.48,1.84,1.52,1.52,0,0,1,1.48,1.84l-0.19,1.25-0.55,3.65-0.55,3.65-0.24,1.61a2.18,2.18,0,0,1-2,1.84h-3.52a2.13,2.13,0,0,0-2,1.76l-0.52,3.47a1.46,1.46,0,0,0,1.5,1.71,2.1,2.1,0,0,0,2-1.71,2.16,2.16,0,0,1,2.12-1.71h3.31a2.19,2.19,0,0,0,2.13-1.76l0.54-3.6,0.24-1.61a2.24,2.24,0,0,1,2.14-1.84h0.47a1.56,1.56,0,0,1,1.59,1.84L1133.27,586l-0.54,3.6a1.53,1.53,0,0,0,1.6,1.76h3a2.19,2.19,0,0,0,2.13-1.76,1.42,1.42,0,0,0-1.32-1.76,1.46,1.46,0,0,1-1.31-1.84l1.58-10.51C1138.52,574.42,1138.65,573.59,1138.66,573.59Z"/><path class="cls-2" d="M1170.43,543.36a1,1,0,0,1-.78-1.59l2.42-3.11a1,1,0,1,1,1.56,1.21l-2.43,3.11A1,1,0,0,1,1170.43,543.36Z"/><path class="cls-2" d="M1172.28,546.82a1,1,0,0,1-.42-1.88l2.81-1.33a1,1,0,0,1,.84,1.78l-2.81,1.33A1,1,0,0,1,1172.28,546.82Z"/><path class="cls-2" d="M1177.72,550.51h-4.16a1,1,0,0,1,0-2h4.16A1,1,0,0,1,1177.72,550.51Z"/><path class="cls-2" d="M1164.93,544.14a1,1,0,0,1,1.9.21l2.46,5.39a1.11,1.11,0,0,1-1.09,1.69h-6.93c-1,0-1.36-.67-0.74-1.49Z"/><path class="cls-2" d="M1178.09,555.42l0.54-3.6,0.63-4.18a1.52,1.52,0,0,0-1.48-1.84,2.18,2.18,0,0,0-2,1.84l-0.63,4.18a2.24,2.24,0,0,1-2.14,1.84h-20.24a2.19,2.19,0,0,0-2.13,1.76l-0.54,3.6-0.63,4.18a1.52,1.52,0,0,0,1.48,1.84,2.18,2.18,0,0,0,2-1.84l0.63-4.18a2.18,2.18,0,0,1,2-1.84,1.52,1.52,0,0,1,1.48,1.84l-1.91,12.73a1.56,1.56,0,0,0,1.59,1.84H1157a1.56,1.56,0,0,1,1.59,1.84l-1.06,7a2.18,2.18,0,0,1-2,1.84H1152a2.13,2.13,0,0,0-2,1.76l-0.52,3.47a1.46,1.46,0,0,0,1.5,1.71,2.1,2.1,0,0,0,2-1.71,2.16,2.16,0,0,1,2.12-1.71h3.31a2.19,2.19,0,0,0,2.13-1.76l0.54-3.6,1.06-7a9.21,9.21,0,0,1,.38-1.84h5.39a1.51,1.51,0,0,1,1.47,1.84l-0.25,1.66-0.28,1.89-0.26,1.76a1.51,1.51,0,0,0,1.61,1.71h3a2.19,2.19,0,0,0,2.13-1.76,1.42,1.42,0,0,0-1.32-1.76,1.46,1.46,0,0,1-1.31-1.84l0.25-1.66,0.54-3.6a1.48,1.48,0,0,0-1.49-1.76h-3.5a1.51,1.51,0,0,1-1.47-1.84l1.38-9.21a2.24,2.24,0,0,1,2.14-1.84h7.33l0.26-1.76h0Z"/><line class="cls-2" x1="1178.71" y1="541.12" x2="1180.55" y2="528.93"/><path class="cls-2" d="M1178.71,542.52l-0.21,0a1.4,1.4,0,0,1-1.18-1.6l1.84-12.19a1.4,1.4,0,1,1,2.77.42l-1.84,12.19A1.4,1.4,0,0,1,1178.71,542.52Z"/><polygon class="cls-2" points="1181.27 533.52 1154.73 533.52 1155.71 527.09 1182.24 527.09 1181.27 533.52"/></svg>