<svg xmlns="http://www.w3.org/2000/svg" viewBox="0 0 32.84 23.43"><defs><style>.cls-1{fill:#6bffba;}</style></defs><title>資產 13</title><g id="圖層_2" data-name="圖層 2"><g id="馬路物件"><path class="cls-1" d="M18.1,9.05a1.76,1.76,0,0,1-1.38-2.84L21,.68a1.76,1.76,0,1,1,2.77,2.16L19.49,8.38A1.75,1.75,0,0,1,18.1,9.05Z"/><path class="cls-1" d="M21.39,15.22a1.76,1.76,0,0,1-.75-3.34l7.31-3.46a1.76,1.76,0,0,1,1.5,3.17L22.14,15A1.75,1.75,0,0,1,21.39,15.22Z"/><path class="cls-1" d="M31.09,21.79h-7.4a1.76,1.76,0,0,1,0-3.51h7.4a1.76,1.76,0,0,1,0,3.51Z"/><path class="cls-1" d="M8.39,10.44C9.49,9,11,9.15,11.77,10.81l4.39,9.6a2,2,0,0,1-1.94,3H1.87C0,23.43-.55,22.24.55,20.79Z"/></g></g></svg>