<?xml version="1.0" encoding="utf-8"?>
<!-- Generator: Adobe Illustrator 20.1.0, SVG Export Plug-In . SVG Version: 6.00 Build 0)  -->
<svg version="1.1" id="圖層_1" xmlns="http://www.w3.org/2000/svg" xmlns:xlink="http://www.w3.org/1999/xlink" x="0px" y="0px"
	 viewBox="0 0 1280 800" style="enable-background:new 0 0 1280 800;" xml:space="preserve">
<style type="text/css">
	.st0{fill:none;}
	.st1{fill:none;stroke:#014762;stroke-width:2.24;stroke-linecap:round;}
	.st2{fill:#014762;}
	.st3{opacity:0.5;fill:url(#SVGID_1_);enable-background:new    ;}
	.st4{opacity:0.5;fill:url(#SVGID_2_);enable-background:new    ;}
	.st5{fill:none;stroke:#00354A;stroke-width:157.85;stroke-miterlimit:10;}
	.st6{fill:none;stroke:#014762;stroke-width:148.57;stroke-linejoin:round;}
	.st7{fill:#00354A;}
	.st8{fill:#00354A;stroke:#014762;stroke-width:1.98;stroke-linecap:round;stroke-linejoin:round;}
	.st9{fill:#EB645B;}
	.st10{fill:none;stroke:#00354A;stroke-width:4.01;stroke-linecap:round;stroke-linejoin:round;}
	.st11{fill:none;stroke:#00354A;stroke-width:16.95;stroke-linecap:round;stroke-miterlimit:10;}
	.st12{fill:#F5C73C;}
	.st13{fill:#5BAADF;}
	.st14{fill:#182449;}
	.st15{fill:#89CAA3;}
	.st16{fill:#00354A;stroke:#014762;stroke-width:2.1;stroke-linecap:round;stroke-linejoin:round;}
	.st17{fill:#9FD3B7;}
</style>
<pattern  width="143.5" height="150.7" patternUnits="userSpaceOnUse" id="_6_lpi_10_2_拷貝_5" viewBox="17.4 -150.7 143.5 150.7" style="overflow:visible;">
	<g>
		<rect x="17.4" y="-150.7" class="st0" width="143.5" height="150.7"/>
		<rect x="17.4" y="-150.7" class="st0" width="143.5" height="150.7"/>
		<line class="st1" x1="165.4" y1="-104.6" x2="145.1" y2="-146.6"/>
		<line class="st1" x1="177.3" y1="-104.6" x2="157" y2="-146.6"/>
		<line class="st1" x1="93.7" y1="-104.6" x2="73.4" y2="-146.6"/>
		<line class="st1" x1="117.4" y1="-104.6" x2="97" y2="-146.6"/>
		<line class="st1" x1="141.1" y1="-104.6" x2="120.7" y2="-146.6"/>
		<line class="st1" x1="105.5" y1="-104.6" x2="85.2" y2="-146.6"/>
		<line class="st1" x1="129.2" y1="-104.6" x2="108.9" y2="-146.6"/>
		<line class="st1" x1="152.9" y1="-104.6" x2="132.6" y2="-146.6"/>
		<line class="st1" x1="21.9" y1="-104.6" x2="1.6" y2="-146.6"/>
		<line class="st1" x1="45.6" y1="-104.6" x2="25.3" y2="-146.6"/>
		<line class="st1" x1="69.3" y1="-104.6" x2="49" y2="-146.6"/>
		<line class="st1" x1="33.8" y1="-104.6" x2="13.4" y2="-146.6"/>
		<line class="st1" x1="57.4" y1="-104.6" x2="37.1" y2="-146.6"/>
		<line class="st1" x1="81.1" y1="-104.6" x2="60.8" y2="-146.6"/>
		<line class="st1" x1="141.5" y1="-54.4" x2="121.2" y2="-96.4"/>
		<line class="st1" x1="165.2" y1="-54.4" x2="144.9" y2="-96.4"/>
		<line class="st1" x1="153.4" y1="-54.4" x2="133" y2="-96.4"/>
		<line class="st1" x1="177.1" y1="-54.4" x2="156.7" y2="-96.4"/>
		<line class="st1" x1="69.8" y1="-54.4" x2="49.4" y2="-96.4"/>
		<line class="st1" x1="93.4" y1="-54.4" x2="73.1" y2="-96.4"/>
		<line class="st1" x1="117.1" y1="-54.4" x2="96.8" y2="-96.4"/>
		<line class="st1" x1="81.6" y1="-54.4" x2="61.3" y2="-96.4"/>
		<line class="st1" x1="105.3" y1="-54.4" x2="85" y2="-96.4"/>
		<line class="st1" x1="129" y1="-54.4" x2="108.6" y2="-96.4"/>
		<line class="st1" x1="21.7" y1="-54.4" x2="1.4" y2="-96.4"/>
		<line class="st1" x1="45.4" y1="-54.4" x2="25" y2="-96.4"/>
		<line class="st1" x1="33.5" y1="-54.4" x2="13.2" y2="-96.4"/>
		<line class="st1" x1="57.2" y1="-54.4" x2="36.9" y2="-96.4"/>
		<line class="st1" x1="117.6" y1="-4.1" x2="97.3" y2="-46.1"/>
		<line class="st1" x1="141.3" y1="-4.1" x2="121" y2="-46.1"/>
		<line class="st1" x1="165" y1="-4.1" x2="144.6" y2="-46.1"/>
		<line class="st1" x1="129.4" y1="-4.1" x2="109.1" y2="-46.1"/>
		<line class="st1" x1="153.1" y1="-4.1" x2="132.8" y2="-46.1"/>
		<line class="st1" x1="176.8" y1="-4.1" x2="156.5" y2="-46.1"/>
		<line class="st1" x1="45.8" y1="-4.1" x2="25.5" y2="-46.1"/>
		<line class="st1" x1="69.5" y1="-4.1" x2="49.2" y2="-46.1"/>
		<line class="st1" x1="93.2" y1="-4.1" x2="72.9" y2="-46.1"/>
		<line class="st1" x1="57.7" y1="-4.1" x2="37.4" y2="-46.1"/>
		<line class="st1" x1="81.4" y1="-4.1" x2="61" y2="-46.1"/>
		<line class="st1" x1="105" y1="-4.1" x2="84.7" y2="-46.1"/>
		<line class="st1" x1="21.4" y1="-4.1" x2="1.1" y2="-46.1"/>
		<line class="st1" x1="33.3" y1="-4.1" x2="13" y2="-46.1"/>
	</g>
</pattern>
<rect x="1.8" y="1.1" class="st2" width="1280" height="815.1"/>
<pattern  id="SVGID_1_" xlink:href="#_6_lpi_10_2_瑁_5" patternTransform="matrix(0.9999 0 0 -0.9999 40.4755 -13723.0586)">
</pattern>
<polygon class="st3" points="846,436.1 1.8,436.1 1.8,88.1 1008.8,88.1 "/>
<pattern  id="SVGID_2_" xlink:href="#_6_lpi_10_2_瑁_5" patternTransform="matrix(0.9999 0 0 -0.9999 40.4755 -13723.0586)">
</pattern>
<polygon class="st4" points="1290.5,816.2 1059,816.2 1174.9,588.2 1397.2,588.2 "/>
<polyline class="st5" points="-4.5,511.7 730,511.7 1186.3,-431.3 1430.9,-431.3 "/>
<polyline class="st6" points="-4.5,511.7 730,511.7 1186.3,-431.3 1430.9,-431.3 "/>
<polyline class="st5" points="1024.2,877.3 1188.8,535.3 1532,535.3 "/>
<polyline class="st6" points="1024.2,877.3 1188.8,535.3 1532,535.3 "/>
<rect x="1.8" y="633.4" class="st7" width="1280" height="10.2"/>
<rect x="1.8" y="614.5" class="st7" width="1280" height="8.4"/>
<rect x="1.8" y="1.1" class="st7" width="1280" height="34.3"/>
<rect x="1.8" y="21.9" class="st7" width="1280" height="32.4"/>
<rect x="1.8" y="42.7" class="st7" width="1280" height="30.6"/>
<rect x="1.8" y="63.5" class="st7" width="1280" height="28.7"/>
<rect x="1.8" y="84.4" class="st7" width="1280" height="26.9"/>
<rect x="1.8" y="105.2" class="st7" width="1280" height="25"/>
<rect x="1.8" y="126" class="st7" width="1280" height="23.2"/>
<rect x="1.8" y="146.8" class="st7" width="1280" height="21.3"/>
<rect x="1.8" y="167.6" class="st7" width="1280" height="19.5"/>
<rect x="1.8" y="188.4" class="st7" width="1280" height="17.6"/>
<rect x="1.8" y="209.2" class="st7" width="1280" height="15.8"/>
<rect x="1.8" y="230" class="st7" width="1280" height="13.9"/>
<rect x="1.8" y="250.8" class="st7" width="1280" height="12.1"/>
<rect x="1.8" y="271.6" class="st7" width="1280" height="10.2"/>
<rect x="1.8" y="292.4" class="st7" width="1280" height="8.4"/>
<polygon class="st8" points="1234.3,444.9 1154.3,444.9 1183.9,387 1263.9,387 "/>
<polygon class="st8" points="1234.3,411.1 1154.3,411.1 1183.9,353.2 1263.9,353.2 "/>
<polygon class="st8" points="1234.3,411.1 1234.3,444.9 1263.9,387 1263.9,353.2 "/>
<rect x="1154.3" y="411.1" class="st8" width="80.1" height="33.8"/>
<polygon class="st8" points="1234.3,397 1154.3,397 1183.9,339.1 1263.9,339.1 "/>
<polygon class="st8" points="1234.3,363.2 1154.3,363.2 1183.9,305.3 1263.9,305.3 "/>
<polygon class="st8" points="1234.3,363.2 1234.3,397 1263.9,339.1 1263.9,305.3 "/>
<rect x="1154.3" y="363.2" class="st8" width="80.1" height="33.8"/>
<polygon class="st8" points="1234.3,349.2 1154.3,349.2 1183.9,291.3 1263.9,291.3 "/>
<polygon class="st8" points="1234.3,315.3 1154.3,315.3 1183.9,257.4 1263.9,257.4 "/>
<polygon class="st8" points="1234.3,315.3 1234.3,349.2 1263.9,291.3 1263.9,257.4 "/>
<rect x="1154.3" y="315.3" class="st8" width="80.1" height="33.8"/>
<polygon class="st8" points="1234.3,301.3 1154.3,301.3 1183.9,243.4 1263.9,243.4 "/>
<polygon class="st8" points="1234.3,267.5 1154.3,267.5 1183.9,209.6 1263.9,209.6 "/>
<polygon class="st8" points="1234.3,267.5 1234.3,301.3 1263.9,243.4 1263.9,209.6 "/>
<rect x="1154.3" y="267.5" class="st8" width="80.1" height="33.8"/>
<polygon class="st8" points="1324.2,444.9 1244.1,444.9 1273.7,387 1353.8,387 "/>
<polygon class="st8" points="1324.2,411.1 1244.1,411.1 1273.7,353.2 1353.8,353.2 "/>
<rect x="1244.1" y="411.1" class="st8" width="80.1" height="33.8"/>
<polygon class="st8" points="1324.2,400.7 1244.1,400.7 1273.7,342.8 1353.8,342.8 "/>
<polygon class="st8" points="1324.2,366.8 1244.1,366.8 1273.7,308.9 1353.8,308.9 "/>
<rect x="1244.1" y="366.8" class="st8" width="80.1" height="33.8"/>
<polygon class="st8" points="1324.2,356.4 1244.1,356.4 1273.7,298.5 1353.8,298.5 "/>
<polygon class="st8" points="1324.2,322.6 1244.1,322.6 1273.7,264.7 1353.8,264.7 "/>
<rect x="1244.1" y="322.6" class="st8" width="80.1" height="33.8"/>
<path class="st9" d="M1083.4,402.5c0.2-0.4,0.6-0.6,1-0.4c0.2,0.1,0.3,0.2,0.4,0.4l1.4,2.8c0.2,0.4,0,0.9-0.4,1
	c-0.4,0.2-0.9,0-1-0.4l-1.4-2.8C1083.3,402.9,1083.3,402.7,1083.4,402.5z"/>
<path class="st9" d="M1080.3,402.6c0.2-0.4,0.6-0.6,1-0.4c0.3,0.1,0.5,0.4,0.5,0.8l-0.1,3.6c0,0.4-0.4,0.8-0.8,0.8
	c-0.4,0-0.8-0.4-0.8-0.8l0.1-3.6C1080.2,402.8,1080.2,402.7,1080.3,402.6z"/>
<path class="st9" d="M1075.7,405.2l1.5-3c0.2-0.4,0.7-0.6,1.1-0.4c0.4,0.2,0.6,0.7,0.4,1.1l-1.5,3c-0.2,0.4-0.7,0.6-1.1,0.4
	C1075.7,406,1075.5,405.6,1075.7,405.2z"/>
<path class="st10" d="M1141.5,465.9v-65.1c0-6.2-5-11.2-11.2-11.2H1043"/>
<line class="st11" x1="1080.7" y1="390.4" x2="1110" y2="390.4"/>
<line class="st11" x1="1081.8" y1="388.3" x2="1111.1" y2="388.3"/>
<circle class="st9" cx="1080.7" cy="392.4" r="4.6"/>
<circle class="st12" cx="1092.5" cy="392.4" r="4.6"/>
<circle class="st13" cx="1104.6" cy="392.4" r="4.6"/>
<path class="st14" d="M1004.1,397.8c-5.7,0-10.4-4.6-10.4-10.4c0-5.7,4.6-10.4,10.4-10.4h46.5c5.6,0,10.2,4.6,10.2,10.2
	c0,5.8-4.7,10.5-10.5,10.5H1004.1z"/>
<path class="st7" d="M1050.6,379c4.6,0,8.3,3.7,8.3,8.3v0l0,0c0,4.8-3.9,8.6-8.6,8.6h-46.2c-4.7,0-8.4-3.8-8.4-8.4
	c0-4.7,3.8-8.4,8.4-8.4H1050.6 M1050.6,375.1h-46.5c-6.8,0-12.3,5.5-12.3,12.3c0,6.8,5.5,12.3,12.3,12.3h46.2
	c6.9,0,12.4-5.6,12.4-12.4C1062.7,380.6,1057.3,375.1,1050.6,375.1L1050.6,375.1z"/>
<path class="st15" d="M1002.5,400.8c-5.7,0-10.4-4.6-10.4-10.4c0-5.7,4.6-10.4,10.4-10.4h46.5c5.6,0,10.2,4.6,10.2,10.2
	c0,5.8-4.7,10.5-10.5,10.5H1002.5z"/>
<path class="st7" d="M1049,382.1c4.6,0,8.3,3.7,8.3,8.3v0c0,4.8-3.9,8.6-8.6,8.6h-46.2c-4.7,0-8.4-3.8-8.4-8.4l0,0l0,0
	c0-4.7,3.8-8.4,8.4-8.4l0,0L1049,382.1 M1049,378.3h-46.5c-6.8,0-12.3,5.5-12.3,12.3c0,6.8,5.5,12.3,12.3,12.3h46.2
	c6.9,0,12.4-5.6,12.4-12.4C1061.1,383.7,1055.7,378.3,1049,378.3L1049,378.3L1049,378.3z"/>
<path class="st2" d="M1015.7,389.3c0-0.6,0.4-1,1-1h1.5c0.5,0.1,0.9-0.2,1-0.7s-0.2-0.9-0.7-1c-0.1,0-0.2,0-0.3,0h-3.2
	c-0.6,0-1,0.4-1,1v8.4c0,0.6,0.4,1,1,1h3.8c0.5,0.1,0.9-0.2,1-0.7s-0.2-0.9-0.7-1c-0.1,0-0.2,0-0.3,0h-2.1c-0.6,0-1-0.4-1-1
	L1015.7,389.3L1015.7,389.3z"/>
<path class="st2" d="M1031.3,396c0,0.6,0.4,1,1,1h3.1c0.6,0,1-0.4,1-1v-8.5c0-0.6-0.4-1-1-1h-3.1c-0.6,0-1,0.4-1,1V396z
	 M1033.9,388.1c0.5,0,1,0.5,0.9,1v5.2c0.1,0.5-0.3,1-0.8,1c-0.5,0.1-1-0.3-1-0.8c0-0.1,0-0.1,0-0.2v-5.2
	C1033,388.6,1033.4,388.2,1033.9,388.1L1033.9,388.1z"/>
<path class="st2" d="M1028.1,395.9c-0.1,0.5,0.2,0.9,0.7,1c0.5,0.1,0.9-0.2,1-0.7c0-0.1,0-0.2,0-0.3v-8.4c0.1-0.5-0.2-0.9-0.7-1
	c-0.5-0.1-0.9,0.2-1,0.7c0,0.1,0,0.2,0,0.3V395.9z"/>
<path class="st2" d="M1021.3,386.6c-0.5-0.1-0.9,0.2-1,0.7s0.2,0.9,0.7,1c0.1,0,0.2,0,0.3,0h0.6c0.6,0,1,0.4,1,1v6.7
	c-0.1,0.5,0.2,0.9,0.7,1s0.9-0.2,1-0.7c0-0.1,0-0.2,0-0.3v-6.6c0-0.6,0.4-1,1-1h0.6c0.5,0.1,0.9-0.2,1-0.7s-0.2-0.9-0.7-1
	c-0.1,0-0.2,0-0.3,0L1021.3,386.6L1021.3,386.6z"/>
<path class="st2" d="M1009.3,384.8c-0.5-0.1-0.9,0.2-1,0.7s0.2,0.9,0.7,1c0.1,0,0.2,0,0.3,0h0.6c0.6,0,1,0.4,1,1v2.3
	c0,0.6-0.4,1-1,1h-0.6c-0.6,0-1-0.4-1-1v-2.3c0.1-0.5-0.2-0.9-0.7-1s-0.9,0.2-1,0.7c0,0.1,0,0.2,0,0.3v8.4c-0.1,0.5,0.2,0.9,0.7,1
	s0.9-0.2,1-0.7c0-0.1,0-0.2,0-0.3v-2.4c0-0.6,0.4-1,1-1h0.6c0.6,0,1,0.4,1,1v2.4c-0.1,0.5,0.2,0.9,0.7,1s0.9-0.2,1-0.7
	c0-0.1,0-0.2,0-0.3v-10.1c0-0.6-0.4-1-1-1L1009.3,384.8L1009.3,384.8z"/>
<path class="st2" d="M1044.7,387.7c0.2-0.5-0.1-1-0.6-1.2c-0.5-0.2-1,0.1-1.2,0.6c-0.1,0.2-0.1,0.4,0,0.6v3.7c0,0.7-0.3,0.8-0.6,0.2
	l-2.2-3.6c-0.3-0.5-0.8-0.8-1.4-0.8c-0.5,0.3-0.8,0.9-0.8,1.5v6.6c-0.2,0.5,0.1,1,0.5,1.2c0.5,0.2,1-0.1,1.2-0.5
	c0.1-0.2,0.1-0.4,0-0.6v-3.3c0-0.7,0.3-0.7,0.6-0.1l2.3,4.1c0.2,0.5,0.8,0.9,1.4,0.8c0.5-0.3,0.8-0.8,0.8-1.4L1044.7,387.7
	L1044.7,387.7z"/>
<polygon class="st7" points="828.1,551.3 815.1,551.3 842,494.9 855,494.9 "/>
<polygon class="st7" points="859.2,551.3 846.2,551.3 873.1,494.9 886.1,494.9 "/>
<polygon class="st7" points="890.4,551.3 877.4,551.3 904.2,494.9 917.2,494.9 "/>
<polygon class="st7" points="921.5,551.3 908.5,551.3 935.4,494.9 948.4,494.9 "/>
<polygon class="st7" points="952.7,551.3 939.7,551.3 966.5,494.9 979.5,494.9 "/>
<polygon class="st7" points="983.8,551.3 970.8,551.3 997.7,494.9 1010.7,494.9 "/>
<polygon class="st7" points="1014.9,551.3 1001.9,551.3 1028.8,494.9 1041.8,494.9 "/>
<polygon class="st7" points="1046.1,551.3 1033.1,551.3 1060,494.9 1073,494.9 "/>
<polygon class="st7" points="1077.2,551.3 1064.2,551.3 1091.1,494.9 1104.1,494.9 "/>
<polygon class="st16" points="672.9,422.8 585.4,422.8 616.8,361.4 704.3,361.4 "/>
<polygon class="st16" points="672.9,386.9 585.4,386.9 616.8,325.5 704.3,325.5 "/>
<polygon class="st16" points="672.9,386.9 672.9,422.8 704.3,361.4 704.3,325.5 "/>
<rect x="585.4" y="386.9" class="st16" width="87.4" height="35.9"/>
<polygon class="st16" points="672.9,376.6 585.4,376.6 616.8,315.2 704.3,315.2 "/>
<polygon class="st16" points="672.9,340.7 585.4,340.7 616.8,279.3 704.3,279.3 "/>
<polygon class="st16" points="672.9,340.7 672.9,376.6 704.3,315.2 704.3,279.3 "/>
<rect x="585.4" y="340.7" class="st16" width="87.4" height="35.9"/>
<polygon class="st16" points="672.9,330.4 585.4,330.4 616.8,269 704.3,269 "/>
<polygon class="st16" points="672.9,294.5 585.4,294.5 616.8,233.1 704.3,233.1 "/>
<polygon class="st16" points="672.9,294.5 672.9,330.4 704.3,269 704.3,233.1 "/>
<rect x="585.4" y="294.5" class="st16" width="87.4" height="35.9"/>
<path class="st9" d="M960.4,480.1c0.8,0,1.4-0.6,1.5-1.4c-0.1-0.8-0.7-1.3-1.5-1.3h-4c-0.7,0-1.3-0.5-1.3-1.2c0-0.1,0-0.2,0-0.3
	l0.8-4.9h-12c-0.9,0.1-1.7,0.8-1.8,1.7l-1,6.2c-0.2,0.7,0.1,1.4,0.8,1.6c0.1,0,0.2,0.1,0.3,0.1c0.8,0,1.4-0.6,1.5-1.4l0.7-4
	c0.1-0.8,0.8-1.4,1.6-1.5c0.6,0,1.1,0.5,1.1,1.1c0,0.1,0,0.2-0.1,0.3l-3.3,19.1c-0.2,0.8-0.9,1.5-1.8,1.5h-1.8
	c-0.9,0-1.6,0.6-1.7,1.5l-0.4,2.5c-0.1,0.7,0.4,1.4,1.1,1.5c0,0,0.1,0,0.1,0c0.7-0.1,1.3-0.6,1.4-1.4c0.2-0.8,0.9-1.3,1.7-1.4h1.3
	c1.2,0,2.2-0.9,2.5-2.1l1.4-7.6c0.2-0.8,0.9-1.4,1.8-1.5h4.3c0.7,0,1.3,0.5,1.3,1.2c0,0.1,0,0.2,0,0.3l-1.7,10.6
	c-0.2,0.8,0.4,1.6,1.2,1.7c0.1,0,0.2,0,0.3,0h2.7c0.8,0.1,1.5-0.4,1.6-1.2c0-0.1,0-0.1,0-0.2c-0.1-0.7-0.7-1.2-1.4-1.2
	c0,0-0.1,0-0.1,0l0,0c-0.7,0-1.3-0.5-1.3-1.2c0-0.1,0-0.2,0-0.3l1.6-10.5c0.2-1-0.5-1.9-1.4-2.1c-0.1,0-0.3,0-0.4,0h-1.1
	c-0.7,0-1.3-0.5-1.3-1.2c0-0.1,0-0.2,0-0.3l0.5-3.2L960.4,480.1L960.4,480.1z"/>
<path class="st9" d="M952.5,463.4c0.2-0.4,0.7-0.6,1.1-0.4c0.2,0.1,0.4,0.3,0.4,0.5l2,4.3c0.3,0.4,0.1,1-0.3,1.2
	c-0.2,0.1-0.4,0.2-0.6,0.1h-5.6c-0.8,0-1.1-0.5-0.6-1.2L952.5,463.4z"/>
<path class="st9" d="M956.2,462.8c-0.4,0-0.8-0.4-0.8-0.8c0-0.2,0.1-0.4,0.2-0.5l2-2.5c0.3-0.3,0.8-0.4,1.1-0.1s0.4,0.8,0.1,1.1
	l-2,2.5C956.6,462.7,956.4,462.8,956.2,462.8z"/>
<path class="st9" d="M957.6,465.6c-0.4,0-0.8-0.3-0.8-0.8c0-0.3,0.2-0.6,0.5-0.7l3.3-1.6c0.4-0.2,0.9,0,1.1,0.4s0,0.9-0.4,1.1l0,0
	l-3.3,1.6C957.9,465.6,957.8,465.6,957.6,465.6z"/>
<path class="st9" d="M962,468.6h-3.3c-0.4,0-0.8-0.4-0.8-0.8c0-0.4,0.4-0.8,0.8-0.8c0,0,0,0,0,0h3.3c0.4,0,0.8,0.4,0.8,0.8
	C962.8,468.2,962.5,468.6,962,468.6z"/>
<path class="st17" d="M1106.6,508.6c0.8,0,1.4-0.6,1.5-1.4c-0.1-0.8-0.7-1.3-1.5-1.3h-4c-0.7,0-1.3-0.5-1.3-1.2c0-0.1,0-0.2,0-0.3
	l0.8-4.9h-12c-0.9,0.1-1.7,0.8-1.8,1.7l-1,6.2c-0.2,0.7,0.1,1.4,0.8,1.6c0.1,0,0.2,0.1,0.3,0.1c0.8,0,1.4-0.6,1.4-1.4l0.7-4
	c0.1-0.8,0.8-1.4,1.6-1.5c0.6,0,1.1,0.5,1.1,1.1c0,0.1,0,0.2-0.1,0.3L1090,523c-0.2,0.8-0.9,1.5-1.8,1.5h-1.8
	c-0.9,0-1.6,0.6-1.7,1.5l-0.4,2.5c-0.1,0.7,0.4,1.4,1.1,1.5c0,0,0.1,0,0.1,0c0.7-0.1,1.3-0.6,1.4-1.3c0.2-0.8,0.9-1.3,1.7-1.3h1.4
	c1.2,0,2.2-0.9,2.5-2.1l1.4-7.6c0.2-0.8,0.9-1.4,1.8-1.5h4.3c0.7,0,1.3,0.5,1.3,1.2c0,0.1,0,0.2,0,0.3l-1.7,10.5
	c-0.2,0.8,0.4,1.6,1.2,1.7c0.1,0,0.2,0,0.3,0h2.6c0.8,0.1,1.5-0.4,1.6-1.2c0-0.1,0-0.1,0-0.2c-0.1-0.7-0.7-1.2-1.4-1.2
	c0,0-0.1,0-0.1,0l0,0c-0.7,0-1.3-0.5-1.3-1.2c0-0.1,0-0.2,0-0.3l1.6-10.5c0.2-1-0.5-1.9-1.4-2.1c-0.1,0-0.3,0-0.4,0h-1.1
	c-0.7,0-1.3-0.5-1.3-1.2c0-0.1,0-0.2,0-0.3l0.5-3.2L1106.6,508.6L1106.6,508.6z"/>
<path class="st17" d="M1098.7,492c0.2-0.4,0.7-0.6,1.1-0.4c0.2,0.1,0.4,0.3,0.4,0.5l2,4.3c0.3,0.4,0.1,1-0.3,1.2
	c-0.2,0.1-0.4,0.2-0.6,0.1h-5.6c-0.8,0-1.1-0.5-0.6-1.2L1098.7,492z"/>
<path class="st17" d="M1102.4,491.4c-0.4,0-0.8-0.4-0.8-0.8c0-0.2,0.1-0.4,0.2-0.5l1.9-2.5c0.3-0.3,0.8-0.4,1.1-0.1s0.4,0.8,0.1,1.1
	l0,0l-1.9,2.5C1102.9,491.3,1102.6,491.4,1102.4,491.4z"/>
<path class="st17" d="M1103.8,494.1c-0.4,0-0.8-0.3-0.8-0.8c0-0.3,0.2-0.6,0.5-0.7l3.3-1.5c0.4-0.2,0.9,0,1.1,0.4
	c0.2,0.4,0,0.9-0.4,1.1l-3.3,1.6C1104.1,494.1,1104,494.1,1103.8,494.1z"/>
<path class="st17" d="M1108.2,497.1h-3.3c-0.4,0-0.8-0.4-0.8-0.8c0-0.4,0.4-0.8,0.8-0.8c0,0,0,0,0,0h3.3c0.4,0,0.8,0.4,0.8,0.8
	C1109,496.7,1108.7,497.1,1108.2,497.1C1108.2,497.1,1108.2,497.1,1108.2,497.1z"/>
<path class="st17" d="M865.1,504.4c0.8,0,1.4-0.6,1.5-1.4c-0.1-0.8-0.7-1.3-1.5-1.3h-4c-0.7,0-1.3-0.5-1.3-1.2c0-0.1,0-0.2,0-0.3
	l0.8-4.9h-12c-0.9,0.1-1.7,0.8-1.7,1.7l-1,6.2c-0.2,0.7,0.1,1.4,0.8,1.6c0.1,0,0.2,0.1,0.3,0.1c0.8,0,1.4-0.6,1.5-1.4l0.7-4
	c0.1-0.8,0.8-1.4,1.6-1.5c0.6,0,1.1,0.5,1.1,1.1c0,0.1,0,0.2-0.1,0.3l-3.3,19.1c-0.2,0.8-0.9,1.5-1.8,1.5h-1.8
	c-0.9,0-1.6,0.6-1.7,1.5l-0.4,2.5c-0.1,0.7,0.4,1.4,1.1,1.5c0,0,0.1,0,0.1,0c0.7-0.1,1.3-0.6,1.4-1.3c0.2-0.8,0.9-1.3,1.7-1.3h1.4
	c1.2,0,2.2-0.9,2.5-2.1l1.4-7.6c0.2-0.8,0.9-1.4,1.8-1.5h4.3c0.7,0,1.3,0.5,1.3,1.2c0,0.1,0,0.2,0,0.3l-1.7,10.6
	c-0.2,0.8,0.4,1.6,1.2,1.7c0.1,0,0.2,0,0.3,0h2.7c0.8,0.1,1.5-0.4,1.6-1.2c0-0.1,0-0.1,0-0.2c-0.1-0.7-0.7-1.2-1.4-1.2
	c0,0-0.1,0-0.1,0l0,0c-0.7,0-1.3-0.5-1.3-1.2c0-0.1,0-0.2,0-0.3l1.6-10.5c0.2-1-0.5-1.9-1.4-2.1c-0.1,0-0.3,0-0.4,0h-1.1
	c-0.7,0-1.3-0.5-1.3-1.2c0-0.1,0-0.2,0-0.3l0.5-3.2L865.1,504.4L865.1,504.4z"/>
<path class="st17" d="M857.1,487.7c0.2-0.4,0.7-0.6,1.1-0.4c0.2,0.1,0.4,0.3,0.4,0.5l2,4.3c0.3,0.4,0.1,1-0.3,1.2
	c-0.2,0.1-0.4,0.2-0.6,0.1h-5.6c-0.8,0-1.1-0.5-0.6-1.2L857.1,487.7z"/>
<path class="st17" d="M860.8,487.1c-0.4,0-0.8-0.4-0.8-0.8c0-0.2,0.1-0.4,0.2-0.5l2-2.5c0.3-0.3,0.8-0.4,1.1-0.1s0.4,0.8,0.1,1.1
	l-2,2.5C861.3,487,861.1,487.1,860.8,487.1z"/>
<path class="st17" d="M862.3,489.9c-0.4,0-0.8-0.3-0.8-0.8c0-0.3,0.2-0.6,0.5-0.7l3.3-1.6c0.4-0.2,0.9,0,1.1,0.4s0,0.9-0.4,1.1l0,0
	l-3.3,1.6C862.5,489.8,862.4,489.9,862.3,489.9z"/>
<path class="st17" d="M866.7,492.8h-3.3c-0.4,0-0.8-0.4-0.8-0.8c0-0.4,0.4-0.8,0.8-0.8c0,0,0,0,0,0h3.3c0.4,0,0.8,0.4,0.8,0.8
	C867.5,492.5,867.1,492.8,866.7,492.8z"/>
<path class="st17" d="M653.1,495.1c0.8,0,1.4-0.6,1.5-1.4c-0.1-0.8-0.7-1.3-1.5-1.3h-4c-0.7,0-1.3-0.5-1.3-1.2c0-0.1,0-0.2,0-0.3
	l0.8-4.9h-12c-0.9,0.1-1.7,0.8-1.8,1.7l-1,6.3c-0.2,0.7,0.1,1.4,0.8,1.6c0.1,0,0.2,0.1,0.3,0.1c0.8,0,1.4-0.6,1.5-1.4l0.7-4
	c0.1-0.8,0.8-1.4,1.6-1.5c0.6,0,1.1,0.5,1.1,1.1c0,0.1,0,0.2-0.1,0.3l-3.3,19.1c-0.2,0.8-0.9,1.5-1.8,1.5h-1.8
	c-0.9,0-1.6,0.6-1.7,1.5l-0.4,2.5c-0.1,0.7,0.4,1.4,1.1,1.5c0,0,0.1,0,0.1,0c0.7-0.1,1.3-0.6,1.4-1.3c0.2-0.8,0.9-1.3,1.7-1.3h1.4
	c1.2,0,2.2-0.9,2.5-2.1l1.4-7.6c0.2-0.8,0.9-1.4,1.8-1.5h4.3c0.7,0,1.3,0.5,1.3,1.2c0,0.1,0,0.2,0,0.3l-1.7,10.6
	c-0.2,0.8,0.4,1.6,1.2,1.7c0.1,0,0.2,0,0.3,0h2.7c0.8,0.1,1.5-0.4,1.6-1.2c0-0.1,0-0.1,0-0.2c-0.1-0.7-0.7-1.2-1.4-1.2
	c0,0-0.1,0-0.1,0l0,0c-0.7,0-1.3-0.5-1.3-1.2c0-0.1,0-0.2,0-0.3l1.6-10.5c0.2-1-0.5-1.9-1.4-2.1c-0.1,0-0.3,0-0.4,0h-1.1
	c-0.7,0-1.3-0.5-1.3-1.2c0-0.1,0-0.2,0-0.3l0.5-3.2L653.1,495.1L653.1,495.1z"/>
<path class="st17" d="M645.1,478.5c0.2-0.4,0.7-0.6,1.1-0.4c0.2,0.1,0.4,0.3,0.4,0.5l2,4.3c0.3,0.4,0.1,1-0.3,1.2
	c-0.2,0.1-0.4,0.2-0.6,0.1h-5.6c-0.8,0-1.1-0.5-0.6-1.2L645.1,478.5z"/>
<path class="st17" d="M648.8,477.9c-0.4,0-0.8-0.4-0.8-0.8c0-0.2,0.1-0.4,0.2-0.5l2-2.5c0.3-0.3,0.8-0.4,1.1-0.1s0.4,0.8,0.1,1.1
	l-2,2.5C649.3,477.8,649.1,477.9,648.8,477.9z"/>
<path class="st17" d="M650.3,480.6c-0.4,0-0.8-0.3-0.8-0.8c0-0.3,0.2-0.6,0.5-0.7l3.3-1.6c0.4-0.2,0.9,0,1.1,0.4s0,0.9-0.4,1.1l0,0
	l-3.3,1.6C650.5,480.6,650.4,480.6,650.3,480.6z"/>
<path class="st17" d="M654.7,483.6h-3.3c-0.4,0-0.8-0.4-0.8-0.8c0-0.4,0.4-0.8,0.8-0.8h3.3c0.4,0,0.8,0.4,0.8,0.8
	C655.4,483.3,655.1,483.6,654.7,483.6z"/>
<path class="st15" d="M790.3,517c0.8,0,1.4-0.6,1.5-1.3c-0.1-0.8-0.7-1.3-1.5-1.3h-4c-0.7,0-1.3-0.5-1.3-1.2c0-0.1,0-0.2,0-0.3
	l0.8-4.9h-12c-0.9,0.1-1.7,0.8-1.8,1.7l-1,6.2c-0.2,0.7,0.1,1.4,0.8,1.6c0.1,0,0.2,0.1,0.3,0.1c0.8,0,1.4-0.6,1.5-1.4l0.7-4
	c0.1-0.8,0.8-1.4,1.6-1.5c0.6,0,1.1,0.5,1.1,1.1c0,0.1,0,0.2-0.1,0.3l-3.3,19.1c-0.2,0.8-0.9,1.5-1.8,1.5H770
	c-0.9,0-1.6,0.6-1.7,1.5l-0.4,2.5c-0.1,0.7,0.4,1.4,1.1,1.5c0,0,0.1,0,0.1,0c0.7-0.1,1.3-0.6,1.4-1.3c0.2-0.8,0.9-1.3,1.7-1.3h1.4
	c1.2,0,2.2-0.9,2.5-2.1l1.4-7.6c0.2-0.8,0.9-1.4,1.8-1.5h4.3c0.7,0,1.3,0.5,1.3,1.2c0,0.1,0,0.2,0,0.3l-1.7,10.6
	c-0.2,0.8,0.4,1.6,1.2,1.7c0.1,0,0.2,0,0.3,0h2.7c0.8,0.1,1.5-0.4,1.6-1.2c0-0.1,0-0.1,0-0.2c-0.1-0.7-0.7-1.2-1.4-1.2
	c0,0-0.1,0-0.1,0l0,0c-0.7,0-1.3-0.5-1.3-1.2c0-0.1,0-0.2,0-0.3l1.6-10.5c0.2-1-0.5-1.9-1.4-2.1c-0.1,0-0.3,0-0.4,0h-1.1
	c-0.7,0-1.3-0.5-1.3-1.2c0-0.1,0-0.2,0-0.3l0.5-3.2L790.3,517L790.3,517z"/>
<path class="st15" d="M782.4,500.3c0.2-0.4,0.7-0.6,1.1-0.4c0.2,0.1,0.4,0.3,0.4,0.5l2,4.3c0.3,0.4,0.1,1-0.3,1.2
	c-0.2,0.1-0.4,0.2-0.6,0.1h-5.6c-0.8,0-1.1-0.5-0.6-1.2L782.4,500.3z"/>
<path class="st15" d="M786,499.7c-0.4,0-0.8-0.4-0.8-0.8c0-0.2,0.1-0.4,0.2-0.5l2-2.5c0.3-0.3,0.8-0.4,1.1-0.1s0.4,0.8,0.1,1.1
	l-2,2.5C786.5,499.6,786.3,499.7,786,499.7z"/>
<path class="st15" d="M787.5,502.5c-0.4,0-0.8-0.3-0.8-0.8c0-0.3,0.2-0.6,0.5-0.7l3.3-1.6c0.4-0.2,0.9,0,1.1,0.4s0,0.9-0.4,1.1
	l-3.3,1.6C787.8,502.5,787.6,502.5,787.5,502.5z"/>
<path class="st15" d="M791.9,505.5h-3.3c-0.4,0-0.8-0.4-0.8-0.8c0-0.4,0.4-0.8,0.8-0.8c0,0,0,0,0,0h3.3c0.4,0,0.8,0.4,0.8,0.8
	C792.7,505.1,792.3,505.5,791.9,505.5z"/>
<path class="st13" d="M910.2,462.8c-0.4,0-0.8-0.4-0.8-0.8c0-0.2,0.1-0.4,0.2-0.5l2-2.5c0.3-0.3,0.8-0.4,1.1-0.1s0.4,0.8,0.1,1.1
	l-2,2.5C910.7,462.7,910.5,462.8,910.2,462.8z"/>
<path class="st13" d="M911.7,465.6c-0.4,0-0.8-0.3-0.8-0.8c0-0.3,0.2-0.6,0.5-0.7l3.3-1.6c0.4-0.2,0.9,0,1.1,0.4s0,0.9-0.4,1.1l0,0
	l-3.3,1.6C912,465.6,911.8,465.6,911.7,465.6z"/>
<path class="st13" d="M916.1,468.6h-3.3c-0.4,0-0.8-0.4-0.8-0.8c0-0.4,0.4-0.8,0.8-0.8c0,0,0,0,0,0h3.3c0.4,0,0.8,0.4,0.8,0.8
	C916.9,468.2,916.5,468.6,916.1,468.6z"/>
<path class="st13" d="M905.8,463.4c0.2-0.4,0.7-0.6,1.1-0.4c0.2,0.1,0.4,0.3,0.4,0.5l2,4.3c0.3,0.4,0.1,1-0.3,1.2
	c-0.2,0.1-0.4,0.2-0.6,0.1h-5.6c-0.8,0-1.1-0.5-0.6-1.2L905.8,463.4z"/>
<path class="st13" d="M906.9,487.1c0,0,0.1-0.7,0.2-1.5l0.2-1.1c0.2-0.8,0.9-1.5,1.7-1.5h2.4c0.8,0,1.5-0.6,1.7-1.4
	c0.1-0.7-0.4-1.3-1-1.4c-0.1,0-0.2,0-0.2,0h-2.4c-0.7,0-1.3-0.5-1.3-1.2c0-0.1,0-0.2,0-0.3l1.2-7.6h-10.5c-0.8,0-1.5,0.7-1.6,1.5
	l-0.9,6.2c-0.1,0.7,0.3,1.3,0.9,1.5c0.1,0,0.2,0,0.3,0c0.7,0,1.2,0.5,1.2,1.2c0,0.1,0,0.2,0,0.3l-0.2,1l-0.4,2.9l-0.4,2.9l-0.2,1.3
	c-0.1,0.8-0.8,1.4-1.6,1.5H893c-0.8,0-1.5,0.6-1.6,1.4l-0.4,2.8c-0.1,0.6,0.3,1.2,0.9,1.4c0.1,0,0.2,0,0.3,0c0.8,0,1.5-0.6,1.6-1.4
	c0.2-0.8,0.9-1.4,1.7-1.4h2.7c0.8,0,1.5-0.6,1.7-1.4l0.4-2.9l0.2-1.3c0.2-0.8,0.9-1.5,1.7-1.5h0.4c0.7,0,1.3,0.6,1.3,1.2
	c0,0.1,0,0.2,0,0.3l-1.2,8.5l-0.4,2.9c-0.1,0.7,0.4,1.3,1,1.4c0.1,0,0.2,0,0.2,0h2.4c0.8,0,1.5-0.6,1.7-1.4c0.1-0.6-0.2-1.2-0.8-1.4
	c-0.1,0-0.1,0-0.2,0c-0.6,0-1.1-0.6-1.1-1.2c0-0.1,0-0.2,0-0.2l1.3-8.5C906.8,487.8,906.9,487.1,906.9,487.1z"/>
<path class="st15" d="M997.8,472.2c-0.4,0-0.8-0.4-0.8-0.8c0-0.2,0.1-0.4,0.2-0.5l2-2.5c0.3-0.3,0.8-0.4,1.1-0.1s0.4,0.8,0.1,1.1
	l0,0l-2,2.5C998.3,472.1,998.1,472.2,997.8,472.2z"/>
<path class="st15" d="M999.4,475c-0.4,0-0.8-0.3-0.8-0.8c0-0.3,0.2-0.6,0.5-0.7l3.3-1.6c0.4-0.2,0.9,0,1.1,0.4s0,0.9-0.4,1.1l0,0
	l-3.3,1.6C999.6,475,999.5,475,999.4,475z"/>
<path class="st15" d="M1003.7,477.9h-3.3c-0.4,0-0.8-0.4-0.8-0.8c0-0.4,0.4-0.8,0.8-0.8c0,0,0,0,0,0h3.3c0.4,0,0.8,0.4,0.8,0.8
	C1004.5,477.6,1004.2,477.9,1003.7,477.9C1003.7,477.9,1003.7,477.9,1003.7,477.9z"/>
<path class="st15" d="M993.5,472.8c0.2-0.4,0.7-0.6,1.1-0.4c0.2,0.1,0.4,0.3,0.4,0.5l2,4.3c0.3,0.4,0.1,1-0.3,1.2
	c-0.2,0.1-0.4,0.2-0.6,0.1h-5.6c-0.8,0-1.1-0.5-0.6-1.2L993.5,472.8z"/>
<path class="st15" d="M994.6,496.5c0,0,0.1-0.7,0.2-1.5l0.2-1.1c0.2-0.8,0.9-1.5,1.7-1.5h2.4c0.8,0,1.5-0.6,1.7-1.4
	c0.1-0.7-0.4-1.3-1-1.4c-0.1,0-0.2,0-0.2,0h-2.4c-0.7,0-1.3-0.5-1.3-1.2c0-0.1,0-0.2,0-0.3l1.2-7.6h-10.5c-0.8,0-1.5,0.7-1.6,1.5
	l-0.9,6.2c-0.1,0.7,0.3,1.3,0.9,1.5c0.1,0,0.2,0,0.3,0c0.7,0,1.2,0.5,1.2,1.2c0,0.1,0,0.2,0,0.3l-0.2,1l-0.4,3l-0.4,2.9l-0.2,1.3
	c-0.1,0.8-0.8,1.4-1.6,1.5h-2.8c-0.8,0-1.5,0.6-1.6,1.4l-0.4,2.8c-0.1,0.6,0.3,1.2,0.9,1.4c0.1,0,0.2,0,0.3,0c0.8,0,1.5-0.6,1.6-1.4
	c0.2-0.8,0.9-1.4,1.7-1.4h2.7c0.8,0,1.5-0.6,1.7-1.4l0.4-2.9l0.2-1.3c0.2-0.8,0.9-1.5,1.7-1.5h0.4c0.7,0,1.3,0.5,1.3,1.2
	c0,0.1,0,0.2,0,0.3l-1.3,8.5l-0.4,2.9c-0.1,0.7,0.4,1.3,1,1.4c0.1,0,0.2,0,0.2,0h2.4c0.8,0,1.5-0.6,1.7-1.4c0.1-0.6-0.2-1.2-0.8-1.4
	c-0.1,0-0.1,0-0.2,0c-0.6,0-1.1-0.6-1.1-1.2c0-0.1,0-0.2,0-0.2l1.3-8.5C994.5,497.2,994.6,496.5,994.6,496.5z"/>
<path class="st15" d="M690.2,448.7c-0.4,0-0.8-0.4-0.8-0.8c0-0.2,0.1-0.4,0.2-0.5l2-2.5c0.3-0.3,0.8-0.4,1.1-0.1s0.4,0.8,0.1,1.1
	l-2,2.5C690.7,448.6,690.4,448.8,690.2,448.7z"/>
<path class="st15" d="M691.7,451.5c-0.4,0-0.8-0.3-0.8-0.8c0-0.3,0.2-0.6,0.5-0.7l3.3-1.6c0.4-0.2,0.9,0,1.1,0.4s0,0.9-0.4,1.1l0,0
	l-3.3,1.6C691.9,451.5,691.8,451.5,691.7,451.5z"/>
<path class="st15" d="M696,454.5h-3.3c-0.4,0-0.8-0.4-0.8-0.8c0-0.4,0.4-0.8,0.8-0.8c0,0,0,0,0,0h3.3c0.4,0,0.8,0.4,0.8,0.8
	C696.8,454.1,696.5,454.5,696,454.5C696,454.5,696,454.5,696,454.5z"/>
<path class="st15" d="M685.8,449.4c0.2-0.4,0.7-0.6,1.1-0.4c0.2,0.1,0.4,0.3,0.4,0.5l2,4.3c0.3,0.4,0.1,1-0.3,1.2
	c-0.2,0.1-0.4,0.2-0.6,0.1h-5.7c-0.8,0-1.1-0.5-0.6-1.2L685.8,449.4z"/>
<path class="st15" d="M686.9,473.1c0,0,0.1-0.7,0.2-1.5l0.2-1.1c0.2-0.8,0.9-1.5,1.7-1.5h2.4c0.8,0,1.5-0.6,1.7-1.4
	c0.1-0.7-0.4-1.3-1-1.4c-0.1,0-0.2,0-0.2,0h-2.4c-0.7,0-1.3-0.5-1.3-1.2c0-0.1,0-0.2,0-0.3l1.2-7.6h-10.5c-0.8,0-1.5,0.7-1.6,1.5
	l-0.9,6.2c-0.1,0.7,0.3,1.3,0.9,1.5c0.1,0,0.2,0,0.3,0c0.7,0,1.2,0.5,1.2,1.2c0,0.1,0,0.2,0,0.3l-0.2,1l-0.4,2.9l-0.4,2.9l-0.2,1.3
	c-0.1,0.8-0.8,1.4-1.6,1.5H673c-0.8,0-1.5,0.6-1.6,1.4l-0.4,2.8c-0.1,0.6,0.3,1.2,0.9,1.4c0.1,0,0.2,0,0.3,0c0.8,0,1.5-0.6,1.6-1.4
	c0.2-0.8,0.9-1.4,1.7-1.4h2.7c0.8,0,1.5-0.6,1.7-1.4l0.4-2.9l0.2-1.3c0.2-0.8,0.9-1.5,1.7-1.5h0.4c0.7,0,1.3,0.5,1.3,1.2
	c0,0.1,0,0.2,0,0.3l-1.3,8.5l-0.4,2.9c-0.1,0.7,0.4,1.3,1,1.4c0.1,0,0.2,0,0.2,0h2.5c0.8,0,1.5-0.6,1.7-1.4c0.1-0.6-0.2-1.2-0.8-1.4
	c-0.1,0-0.1,0-0.2,0c-0.6,0-1.1-0.6-1.1-1.2c0-0.1,0-0.2,0-0.2l1.3-8.5C686.8,473.7,686.8,473.1,686.9,473.1z"/>
<path class="st15" d="M1222.4,476.9c-0.4,0-0.8-0.4-0.8-0.8c0-0.2,0.1-0.4,0.2-0.5l1.9-2.5c0.3-0.3,0.8-0.4,1.1-0.1s0.4,0.8,0.1,1.1
	l-1.9,2.5C1222.8,476.8,1222.6,476.9,1222.4,476.9z"/>
<path class="st15" d="M1223.8,479.7c-0.4,0-0.8-0.3-0.8-0.8c0-0.3,0.2-0.6,0.5-0.7l3.3-1.6c0.4-0.2,0.9,0,1.1,0.4
	c0.2,0.4,0,0.9-0.4,1.1l-3.3,1.6C1224.1,479.7,1223.9,479.7,1223.8,479.7z"/>
<path class="st15" d="M1228.2,482.7h-3.4c-0.4,0-0.8-0.4-0.8-0.8c0-0.4,0.4-0.8,0.8-0.8h3.3c0.4,0,0.8,0.3,0.8,0.8
	C1229,482.3,1228.6,482.6,1228.2,482.7z"/>
<path class="st15" d="M1218,477.5c0.2-0.4,0.7-0.6,1.1-0.4c0.2,0.1,0.4,0.3,0.4,0.5l2,4.3c0.3,0.4,0.1,1-0.3,1.2
	c-0.2,0.1-0.4,0.2-0.6,0.1h-5.6c-0.8,0-1.1-0.5-0.6-1.2L1218,477.5z"/>
<path class="st15" d="M1219.1,501.2c0,0,0.1-0.7,0.2-1.5l0.2-1.1c0.2-0.8,0.9-1.5,1.7-1.5h2.4c0.8,0,1.5-0.6,1.7-1.4
	c0.1-0.7-0.4-1.3-1-1.4c-0.1,0-0.2,0-0.2,0h-2.4c-0.7,0-1.3-0.5-1.3-1.2c0-0.1,0-0.2,0-0.3l1.2-7.6H1211c-0.8,0-1.5,0.7-1.6,1.5
	l-0.9,6.2c-0.1,0.7,0.3,1.3,0.9,1.5c0.1,0,0.2,0,0.3,0c0.7,0,1.2,0.5,1.2,1.2c0,0.1,0,0.2,0,0.3l-0.2,1l-0.4,2.9l-0.4,2.9l-0.2,1.3
	c-0.1,0.8-0.8,1.4-1.6,1.5h-2.8c-0.8,0-1.5,0.6-1.6,1.4l-0.4,2.8c-0.1,0.6,0.3,1.2,0.9,1.4c0.1,0,0.2,0,0.3,0c0.8,0,1.5-0.6,1.6-1.4
	c0.2-0.8,0.9-1.4,1.7-1.4h2.7c0.8,0,1.5-0.6,1.7-1.4l0.4-2.9l0.2-1.3c0.2-0.8,0.9-1.5,1.7-1.5h0.4c0.7,0,1.3,0.5,1.3,1.2
	c0,0.1,0,0.2,0,0.3l-1.3,8.5l-0.4,2.9c-0.1,0.7,0.4,1.3,1,1.4c0.1,0,0.2,0,0.2,0h2.4c0.8,0,1.5-0.6,1.7-1.4c0.1-0.6-0.2-1.2-0.8-1.4
	c-0.1,0-0.1,0-0.2,0c-0.6,0-1.1-0.6-1.1-1.2c0-0.1,0-0.2,0-0.2l1.3-8.5C1219,501.9,1219.1,501.2,1219.1,501.2z"/>
<path class="st12" d="M932.5,462.8c-0.4,0-0.8-0.4-0.8-0.8c0-0.2,0.1-0.4,0.2-0.5l2-2.5c0.3-0.3,0.8-0.4,1.1-0.1s0.4,0.8,0.1,1.1
	l-2,2.5C933,462.7,932.7,462.8,932.5,462.8z"/>
<path class="st12" d="M934,465.6c-0.4,0-0.8-0.3-0.8-0.8c0-0.3,0.2-0.6,0.5-0.7l2.3-1.1c0.4-0.2,0.9,0,1.1,0.4s0,0.9-0.4,1.1l0,0
	l-2.3,1.1C934.2,465.6,934.1,465.6,934,465.6z"/>
<path class="st12" d="M938.3,468.6H935c-0.4,0-0.8-0.4-0.8-0.8c0-0.4,0.4-0.8,0.8-0.8c0,0,0,0,0,0h3.3c0.4,0,0.8,0.4,0.8,0.8
	C939.1,468.2,938.8,468.6,938.3,468.6z"/>
<path class="st12" d="M928.1,463.4c0.2-0.4,0.7-0.6,1.1-0.4c0.2,0.1,0.4,0.3,0.4,0.5l2,4.3c0.3,0.4,0.1,1-0.3,1.2
	c-0.2,0.1-0.4,0.2-0.6,0.1h-5.6c-0.8,0-1.1-0.5-0.6-1.2L928.1,463.4z"/>
<path class="st12" d="M938.6,472.5l0.4-2.9l0.5-3.4c0.1-0.7-0.3-1.3-0.9-1.5c-0.1,0-0.2,0-0.3,0c-0.8,0-1.5,0.7-1.6,1.5l-0.5,3.4
	c-0.2,0.8-0.9,1.5-1.7,1.5h-16.3c-0.8,0-1.5,0.6-1.7,1.4l-0.4,2.9l-0.5,3.4c-0.1,0.7,0.3,1.3,0.9,1.5c0.1,0,0.2,0,0.3,0
	c0.8,0,1.5-0.7,1.6-1.5l0.5-3.4c0.1-0.8,0.8-1.4,1.6-1.5c0.7,0,1.2,0.5,1.2,1.2c0,0.1,0,0.2,0,0.3l-1.5,10.2c-0.1,0.7,0.3,1.3,1,1.5
	c0.1,0,0.2,0,0.3,0h0.2c0.7,0,1.3,0.5,1.3,1.2c0,0.1,0,0.2,0,0.3l-0.8,5.7c-0.1,0.8-0.8,1.4-1.6,1.5h-2.8c-0.8,0-1.5,0.6-1.6,1.4
	l-0.4,2.8c-0.1,0.6,0.3,1.2,0.9,1.4c0.1,0,0.2,0,0.3,0c0.8,0,1.5-0.6,1.6-1.4c0.2-0.8,0.9-1.4,1.7-1.4h2.7c0.8,0,1.5-0.6,1.7-1.4
	l0.4-2.9l0.8-5.7c0-0.5,0.1-1,0.3-1.5h4.3c0.7,0,1.2,0.6,1.2,1.2c0,0.1,0,0.2,0,0.2l-0.2,1.3l-0.2,1.5l-0.2,1.4
	c-0.1,0.7,0.4,1.3,1,1.4c0.1,0,0.2,0,0.3,0h2.4c0.8,0,1.5-0.6,1.7-1.4c0.1-0.6-0.2-1.2-0.8-1.4c-0.1,0-0.1,0-0.2,0
	c-0.6,0-1.1-0.6-1.1-1.2c0-0.1,0-0.2,0-0.2l0.2-1.3l0.4-2.9c0.1-0.6-0.3-1.3-0.9-1.4c-0.1,0-0.2,0-0.3,0h-2.9
	c-0.7,0-1.2-0.6-1.2-1.2c0-0.1,0-0.2,0-0.2l1.1-7.4c0.2-0.8,0.9-1.5,1.7-1.5h5.9L938.6,472.5L938.6,472.5L938.6,472.5z"/>
<line class="st0" x1="939.1" y1="461" x2="940.6" y2="451.2"/>
<path class="st12" d="M939.1,462.1H939c-0.6-0.1-1-0.7-1-1.3l1.5-9.8c0.1-0.6,0.6-1.1,1.2-1c0.6,0.1,1.1,0.6,1,1.2c0,0,0,0.1,0,0.1
	l-1.5,9.8C940.1,461.7,939.7,462.1,939.1,462.1z"/>
<polygon class="st12" points="941.2,454.9 919.9,454.9 920.7,449.7 942,449.7 "/>
<path class="st15" d="M1037.1,462.9c-0.4,0-0.8-0.4-0.8-0.8c0-0.2,0.1-0.4,0.2-0.5l1.9-2.5c0.3-0.3,0.8-0.4,1.1-0.1s0.4,0.8,0.1,1.1
	l-1.9,2.5C1037.5,462.8,1037.3,462.9,1037.1,462.9z"/>
<path class="st15" d="M1038.5,465.7c-0.4,0-0.8-0.3-0.8-0.8c0-0.3,0.2-0.6,0.5-0.7l2.3-1.1c0.4-0.2,0.9,0,1.1,0.4
	c0.2,0.4,0,0.9-0.4,1.1l-2.3,1.1C1038.8,465.7,1038.7,465.7,1038.5,465.7z"/>
<path class="st15" d="M1042.9,468.6h-3.3c-0.4,0-0.8-0.4-0.8-0.8c0-0.4,0.4-0.8,0.8-0.8h3.3c0.4,0,0.8,0.4,0.8,0.8
	C1043.7,468.3,1043.4,468.6,1042.9,468.6C1042.9,468.6,1042.9,468.6,1042.9,468.6z"/>
<path class="st15" d="M1032.6,463.5c0.2-0.4,0.7-0.6,1.1-0.4c0.2,0.1,0.4,0.3,0.4,0.5l2,4.3c0.3,0.4,0.1,1-0.3,1.2
	c-0.2,0.1-0.4,0.2-0.6,0.1h-5.6c-0.8,0-1.1-0.5-0.6-1.2L1032.6,463.5z"/>
<path class="st15" d="M1043.2,472.6l0.4-2.9l0.5-3.4c0.1-0.7-0.3-1.3-0.9-1.5c-0.1,0-0.2,0-0.3,0c-0.8,0-1.5,0.7-1.6,1.5l-0.5,3.4
	c-0.2,0.8-0.9,1.5-1.7,1.5h-16.3c-0.8,0-1.5,0.6-1.7,1.4l-0.4,2.9l-0.5,3.4c-0.1,0.7,0.3,1.3,0.9,1.5c0.1,0,0.2,0,0.3,0
	c0.8,0,1.5-0.7,1.6-1.5l0.5-3.4c0.1-0.8,0.8-1.4,1.6-1.5c0.7,0,1.2,0.5,1.2,1.2c0,0.1,0,0.2,0,0.3l-1.5,10.2c-0.1,0.7,0.3,1.3,1,1.5
	c0.1,0,0.2,0,0.3,0h0.2c0.7,0,1.3,0.5,1.3,1.2c0,0.1,0,0.2,0,0.3l-0.8,5.7c-0.1,0.8-0.8,1.4-1.6,1.5h-2.8c-0.8,0-1.5,0.6-1.6,1.4
	l-0.4,2.8c-0.1,0.6,0.3,1.2,0.9,1.4c0.1,0,0.2,0,0.3,0c0.8,0,1.5-0.6,1.6-1.4c0.2-0.8,0.9-1.4,1.7-1.4h2.7c0.8,0,1.5-0.6,1.7-1.4
	l0.4-2.9l0.8-5.7c0-0.5,0.1-1,0.3-1.5h4.3c0.7,0,1.2,0.6,1.2,1.2c0,0.1,0,0.2,0,0.2l-0.2,1.3l-0.2,1.5l-0.2,1.4
	c-0.1,0.7,0.4,1.3,1,1.4c0.1,0,0.2,0,0.3,0h2.4c0.8,0,1.5-0.6,1.7-1.4c0.1-0.6-0.2-1.2-0.8-1.4c-0.1,0-0.1,0-0.2,0
	c-0.6,0-1.1-0.6-1.1-1.2c0-0.1,0-0.2,0-0.2l0.2-1.3l0.4-2.9c0.1-0.6-0.3-1.3-0.9-1.4c-0.1,0-0.2,0-0.3,0h-2.8
	c-0.7,0-1.2-0.6-1.2-1.2c0-0.1,0-0.2,0-0.2l1.1-7.4c0.2-0.8,0.9-1.5,1.7-1.5h5.9L1043.2,472.6L1043.2,472.6L1043.2,472.6z"/>
<path class="st15" d="M713.1,510.7c-0.4,0-0.8-0.4-0.8-0.8c0-0.2,0.1-0.4,0.2-0.5l2-2.5c0.3-0.3,0.8-0.4,1.1-0.1s0.4,0.8,0.1,1.1
	l-2,2.5C713.6,510.6,713.3,510.7,713.1,510.7z"/>
<path class="st15" d="M714.6,513.5c-0.4,0-0.8-0.3-0.8-0.8c0-0.3,0.2-0.6,0.5-0.7l2.3-1.1c0.4-0.2,0.9,0,1.1,0.4s0,0.9-0.4,1.1l0,0
	l-2.3,1.1C714.8,513.4,714.7,513.5,714.6,513.5z"/>
<path class="st15" d="M719,516.4h-3.3c-0.4,0-0.8-0.4-0.8-0.8c0-0.4,0.4-0.8,0.8-0.8h3.3c0.4,0,0.8,0.4,0.8,0.8
	C719.8,516.1,719.4,516.4,719,516.4z"/>
<path class="st15" d="M708.7,511.3c0.2-0.4,0.7-0.6,1.1-0.4c0.2,0.1,0.4,0.3,0.4,0.5l2,4.3c0.3,0.4,0.1,1-0.3,1.2
	c-0.2,0.1-0.4,0.2-0.6,0.1h-5.6c-0.8,0-1.1-0.5-0.6-1.2L708.7,511.3z"/>
<path class="st15" d="M719.3,520.4l0.4-2.9l0.5-3.4c0.1-0.7-0.3-1.3-0.9-1.5c-0.1,0-0.2,0-0.3,0c-0.8,0-1.5,0.7-1.6,1.5l-0.5,3.4
	c-0.2,0.8-0.9,1.5-1.7,1.5h-16.3c-0.8,0-1.5,0.6-1.7,1.4l-0.4,2.9l-0.5,3.4c-0.1,0.7,0.3,1.3,0.9,1.5c0.1,0,0.2,0,0.3,0
	c0.8,0,1.5-0.7,1.6-1.5l0.5-3.4c0.1-0.8,0.8-1.4,1.6-1.5c0.7,0,1.2,0.5,1.2,1.2c0,0.1,0,0.2,0,0.3l-1.5,10.2c-0.1,0.7,0.3,1.3,1,1.5
	c0.1,0,0.2,0,0.3,0h0.2c0.7,0,1.3,0.5,1.3,1.2c0,0.1,0,0.2,0,0.3l-0.8,5.6c-0.1,0.8-0.8,1.4-1.6,1.5h-2.8c-0.8,0-1.5,0.6-1.6,1.4
	l-0.4,2.8c-0.1,0.6,0.3,1.2,0.9,1.4c0.1,0,0.2,0,0.3,0c0.8,0,1.5-0.6,1.6-1.4c0.2-0.8,0.9-1.4,1.7-1.4h2.7c0.8,0,1.5-0.6,1.7-1.4
	l0.4-2.9l0.8-5.7c0-0.5,0.1-1,0.3-1.5h4.3c0.7,0,1.2,0.6,1.2,1.2c0,0.1,0,0.2,0,0.2l-0.2,1.3l-0.2,1.6l-0.2,1.4
	c-0.1,0.7,0.4,1.3,1,1.4c0.1,0,0.2,0,0.3,0h2.4c0.8,0,1.5-0.6,1.7-1.4c0.1-0.6-0.2-1.2-0.8-1.4c-0.1,0-0.1,0-0.2,0
	c-0.6,0-1.1-0.6-1.1-1.2c0-0.1,0-0.2,0-0.2l0.2-1.3l0.4-2.9c0.1-0.6-0.3-1.3-0.9-1.4c-0.1,0-0.2,0-0.3,0h-2.8
	c-0.7,0-1.2-0.6-1.2-1.2c0-0.1,0-0.2,0-0.2l1.1-7.4c0.2-0.8,0.9-1.5,1.7-1.5h5.9L719.3,520.4L719.3,520.4L719.3,520.4z"/>
<path class="st15" d="M1160.3,459.2c-0.4,0-0.8-0.4-0.8-0.8c0-0.2,0.1-0.4,0.2-0.5l1.9-2.5c0.3-0.3,0.8-0.4,1.1-0.1s0.4,0.8,0.1,1.1
	l-1.9,2.5C1160.8,459.1,1160.6,459.2,1160.3,459.2z"/>
<path class="st15" d="M1161.8,461.9c-0.4,0-0.8-0.3-0.8-0.8c0-0.3,0.2-0.6,0.5-0.7l2.3-1.1c0.4-0.2,0.9,0,1.1,0.4
	c0.2,0.4,0,0.9-0.4,1.1l-2.3,1.1C1162.1,461.9,1161.9,461.9,1161.8,461.9z"/>
<path class="st15" d="M1166.2,464.9h-3.3c-0.4,0-0.8-0.4-0.8-0.8c0-0.4,0.4-0.8,0.8-0.8c0,0,0,0,0,0h3.3c0.4,0,0.8,0.4,0.8,0.8
	C1167,464.5,1166.6,464.9,1166.2,464.9C1166.2,464.9,1166.2,464.9,1166.2,464.9z"/>
<path class="st15" d="M1155.9,459.8c0.2-0.4,0.7-0.6,1.1-0.4c0.2,0.1,0.4,0.3,0.4,0.5l2,4.3c0.3,0.4,0.1,1-0.3,1.2
	c-0.2,0.1-0.4,0.2-0.6,0.1h-5.6c-0.8,0-1.1-0.5-0.6-1.2L1155.9,459.8z"/>
<path class="st15" d="M1166.5,468.9l0.4-2.9l0.5-3.4c0.1-0.7-0.3-1.3-0.9-1.5c-0.1,0-0.2,0-0.3,0c-0.8,0-1.5,0.7-1.6,1.5l-0.5,3.4
	c-0.2,0.8-0.9,1.5-1.7,1.5h-16.3c-0.8,0-1.5,0.6-1.7,1.4l-0.4,2.9l-0.5,3.3c-0.1,0.7,0.3,1.3,0.9,1.5c0.1,0,0.2,0,0.3,0
	c0.8,0,1.5-0.7,1.6-1.5l0.5-3.4c0.1-0.8,0.8-1.4,1.6-1.5c0.7,0,1.2,0.5,1.2,1.2c0,0.1,0,0.2,0,0.3l-1.5,10.2c-0.1,0.7,0.3,1.3,1,1.5
	c0.1,0,0.2,0,0.3,0h0.2c0.7,0,1.3,0.5,1.3,1.2c0,0.1,0,0.2,0,0.3l-0.8,5.7c-0.1,0.8-0.8,1.4-1.6,1.5h-2.8c-0.8,0-1.5,0.6-1.6,1.4
	l-0.4,2.8c-0.1,0.6,0.3,1.2,0.9,1.4c0.1,0,0.2,0,0.3,0c0.8,0,1.5-0.6,1.6-1.4c0.2-0.8,0.9-1.4,1.7-1.4h2.7c0.8,0,1.5-0.6,1.7-1.4
	l0.4-2.9l0.8-5.7c0-0.5,0.1-1,0.3-1.5h4.3c0.7,0,1.2,0.6,1.2,1.2c0,0.1,0,0.2,0,0.2l-0.2,1.3l-0.2,1.5l-0.2,1.4
	c-0.1,0.7,0.4,1.3,1,1.4c0.1,0,0.2,0,0.3,0h2.4c0.8,0,1.5-0.6,1.7-1.4c0.1-0.6-0.2-1.2-0.8-1.4c-0.1,0-0.1,0-0.2,0
	c-0.6,0-1.1-0.6-1.1-1.2c0-0.1,0-0.2,0-0.2l0.2-1.3l0.4-2.9c0.1-0.6-0.3-1.3-0.9-1.4c-0.1,0-0.2,0-0.3,0h-2.8
	c-0.7,0-1.2-0.6-1.2-1.2c0-0.1,0-0.2,0-0.2l1.1-7.4c0.2-0.8,0.9-1.5,1.7-1.5h5.9L1166.5,468.9L1166.5,468.9L1166.5,468.9z"/>
</svg>
