<?xml version="1.0" encoding="utf-8"?>
<!-- Generator: Adobe Illustrator 20.1.0, SVG Export Plug-In . SVG Version: 6.00 Build 0)  -->
<svg version="1.1" id="圖層_1" xmlns="http://www.w3.org/2000/svg" xmlns:xlink="http://www.w3.org/1999/xlink" x="0px" y="0px"
	 viewBox="0 0 85 91" style="enable-background:new 0 0 85 91;" xml:space="preserve">
<style type="text/css">
	.st0{fill:#E0E0E0;}
</style>
<path class="st0" d="M52.9,64.3c0.1-0.5-0.2-1-0.7-1.1c-0.1,0-0.1,0-0.2,0c-0.5,0-0.9-0.3-0.9-0.8c0-0.1,0-0.1,0-0.2
	c0-0.5-0.3-0.9-0.8-1c-0.1,0-0.1,0-0.2,0c-0.6,0-1.1,0.4-1.3,1c-0.2,0.6-0.8,1-1.4,1c-0.7,0-1.3,0.5-1.4,1.1
	c-0.1,0.6,0.6,1.1,1.5,1.1H51C51.9,65.5,52.8,65,52.9,64.3z"/>
<path class="st0" d="M50.8,73.3c0.1-0.6-0.6-1.1-1.5-1.1h-2.4c-0.9,0-1.8,0.5-1.8,1.1c-0.1,0.6,0.6,1.1,1.5,1.1H49
	C49.9,74.5,50.7,74,50.8,73.3z"/>
<path class="st0" d="M69.1,70.1c0.9,0,1.3,0.3,1.2,0.7c-0.1,0.4-0.5,0.7-1.4,0.7h-2.3c-0.9,0-1.8,0.5-1.8,1.1
	c-0.1,0.6,0.6,1.1,1.5,1.1h2.3c0.9,0,1.3,0.3,1.2,0.8c-0.1,0.4-0.5,0.8-1.4,0.8h-4.7c-0.9,0-1.8,0.5-1.8,1.1s0.6,1.1,1.4,1.1
	c0.8,0,1.4,0.6,1.4,1.4c0,0.1,0,0.2,0,0.3l-0.9,6.3h9.7c1,0,1.8-0.8,1.9-1.7l0.6-4.6c0.1-1,1-1.7,1.9-1.7h1.3
	c0.7,0.1,1.4-0.4,1.6-1.1c0.1-0.6-0.3-1.1-1.3-1.1h-6.1c-0.9,0-1.4-0.3-1.3-0.8c0.1-0.4,0.6-0.8,1.5-0.8h1.5c0.9,0,1.8-0.5,1.8-1.1
	c0.1-0.6-0.6-1.1-1.5-1.1h-1.6c-0.9,0-1.3-0.3-1.2-0.7c0.1-0.4,0.5-0.7,1.4-0.7h1.6c1,0,1.8-0.8,1.9-1.7l0.1-0.4
	c0.1-1,1-1.7,1.9-1.7h1.9c0.9,0,1.8-0.5,1.8-1.1c0.1-0.6-0.6-1.1-1.5-1.1h-1.9c-0.8,0-1.5-0.6-1.5-1.4c0-0.1,0-0.2,0-0.3l0.3-2.1
	h-2.9c-0.8,0-1.5-0.6-1.5-1.4c0-0.1,0-0.2,0-0.3l0.1-0.6c0.1-0.9-0.3-1.7-0.9-1.7s-1.2,0.8-1.4,1.7l-0.1,0.6c-0.1,1-1,1.7-1.9,1.7
	h-2c-0.9,0-1.8,0.5-1.8,1.1c-0.1,0.6,0.6,1.1,1.5,1.1h2.3c0.9,0,1.3,0.3,1.2,0.8c-0.1,0.4-0.5,0.8-1.4,0.8h-4.8
	c-0.9,0-1.8,0.5-1.8,1.1c-0.1,0.6,0.6,1.1,1.5,1.1h4.8c0.9,0,1.3,0.3,1.2,0.8c-0.1,0.4-0.5,0.8-1.4,0.8h-9.9c-0.8,0-1.4-0.7-1.3-1.4
	c0-0.1,0-0.2,0-0.3l0.7-5.4c0.1-0.9-0.3-1.7-0.9-1.7c-0.6,0-1.2,0.8-1.4,1.7L55.9,66c-0.1,1-1,1.7-1.9,1.7h-6.4
	c-0.9,0-1.8,0.5-1.8,1.1c-0.1,0.6,0.6,1.1,1.5,1.1h6.4c0.8,0,1.5,0.6,1.5,1.4c0,0.1,0,0.2,0,0.3l-2.2,16.3c-0.1,0.9,0.3,1.7,0.9,1.7
	c0.6,0,1.2-0.8,1.4-1.7l2.2-16.3c0.1-0.9,0.8-1.6,1.8-1.7h10L69.1,70.1z M67,78.8c0.1-0.6,0.6-1.1,1.3-1.1c0.5,0,1,0.4,1,1
	c0,0.1,0,0.1,0,0.2c-0.1,0.6-0.6,1.1-1.3,1.1c-0.5,0-1-0.4-1-1C66.9,78.9,67,78.9,67,78.8z M66.5,82.5c0.1-0.7,0.6-1.2,1.3-1.2
	c0.6,0,1,0.5,1,1c0,0.1,0,0.1,0,0.2c-0.1,0.7-0.6,1.2-1.3,1.2c-0.6,0-1-0.5-1-1C66.5,82.6,66.5,82.6,66.5,82.5z M73.3,82.5
	c-0.1,0.7-0.6,1.2-1.3,1.2c-0.6,0-1-0.5-1-1c0-0.1,0-0.1,0-0.2c0.1-0.7,0.6-1.2,1.3-1.2c0.6,0,1,0.5,1,1
	C73.3,82.4,73.3,82.4,73.3,82.5z M72.9,77.6c0.5,0,1,0.4,1,1c0,0.1,0,0.1,0,0.2c-0.1,0.6-0.6,1.1-1.3,1.1c-0.5,0-1-0.4-1-1
	c0-0.1,0-0.1,0-0.2C71.7,78.2,72.2,77.7,72.9,77.6L72.9,77.6z M73.7,63.1c0.1-0.6,0.7-1.1,1.3-1.1c0.5,0,1,0.4,1,0.9
	c0,0.1,0,0.1,0,0.2c-0.1,0.6-0.7,1.1-1.3,1.1c-0.5,0-1-0.4-1-0.9C73.7,63.2,73.7,63.2,73.7,63.1z M73.2,66.7
	c0.1-0.6,0.7-1.1,1.3-1.1c0.5,0,1,0.3,1,0.9c0,0.1,0,0.1,0,0.2c-0.1,0.6-0.7,1.1-1.3,1.1c-0.5,0-1-0.3-1-0.9
	C73.2,66.9,73.2,66.8,73.2,66.7L73.2,66.7z"/>
<path class="st0" d="M48.1,86c0.6,0,1.2-0.8,1.4-1.7l0.9-6.3c0.2-0.8-0.4-1.5-1.1-1.7c-0.1,0-0.2,0-0.3,0h-3.2c-1,0-1.8,0.8-1.9,1.7
	L43,82.8l-0.3,2.5c-0.1,0.4,0.4,0.8,1,0.8c0.5,0.1,1.1-0.3,1.3-0.8c0.1-0.5,0.6-0.8,1.1-0.8c0.4-0.1,0.8,0.2,0.9,0.7
	c0,0,0,0.1,0,0.1C47,85.7,47.4,86,48.1,86z M46.5,82.2c-0.6,0-1-0.3-0.8-1.2l0.2-1.1c0.1-0.9,0.6-1.1,1.1-1.1s1,0.3,0.9,1.2L47.7,81
	C47.5,81.9,47,82.2,46.5,82.2z"/>
<path class="st0" d="M80.3,88.4c0.1-0.6-0.6-1.1-1.5-1.1H61.2c-0.9,0-1.8,0.5-1.8,1.1c-0.1,0.6,0.6,1.1,1.5,1.1h17.6
	C79.4,89.6,80.3,89.1,80.3,88.4z"/>
<path class="st0" d="M4.1,84.3c-0.1,0.6-0.6,1.1-1.2,1.1H2c-0.6,0-1.2,0.5-1.2,1.1l0,0c-0.1,0.5,0.3,1,0.8,1.1c0.1,0,0.1,0,0.2,0
	h16.4c0.6,0,1.2-0.5,1.2-1.1l0,0c0.1-0.5-0.3-1-0.8-1.1c-0.1,0-0.1,0-0.2,0H7.2c-0.5,0-0.9-0.4-0.9-0.9c0-0.1,0-0.1,0-0.2l1.4-12.6
	c0.1-0.6-0.3-1.2-0.9-1.3c0,0-0.1,0-0.1,0c-0.6,0.1-1.1,0.5-1.2,1.1C5.4,72.1,4.1,84.3,4.1,84.3z"/>
<path class="st0" d="M16.1,67c-0.6,0-1.1,0.5-1.2,1.1L14,75.9c-0.1,0.5,0.3,1,0.8,1.1c0.1,0,0.1,0,0.2,0l0,0c0.6,0,1.1-0.5,1.2-1.1
	l0.9-7.7c0.1-0.5-0.3-1-0.8-1.1C16.2,67,16.2,67,16.1,67L16.1,67z"/>
<path class="st0" d="M39.4,72.1c-0.5,0.1-0.9,0.5-0.9,1.1v0.1c-0.1,0.5,0.3,1,0.8,1c0,0,0.1,0,0.1,0h2.7c0,0,0.1-0.5,0.1-1.1
	l0.4-3.2c0.1-0.5-0.3-1-0.8-1.1c-0.1,0-0.1,0-0.2,0h0.1c-0.6,0-1.2,0.5-1.3,1.1l-0.1,1C40.3,71.6,39.9,72,39.4,72.1z"/>
<path class="st0" d="M26,73.6c-0.1,0.5,0.3,1,0.8,1c0.1,0,0.1,0,0.2,0h0c0.6,0,1.1-0.5,1.2-1.1l0.5-3.5c0.1-0.6,0.1-1.1,0.1-1.1h-1
	c-0.5,0-0.9-0.4-0.9-0.9c0-0.1,0-0.1,0-0.2l0.1-0.5c0.1-0.6,0.6-1,1.1-1.1s1.1-0.5,1.1-1.1v-0.1c0.1-0.5-0.2-1-0.7-1
	c0,0-0.1,0-0.2,0c-0.5,0-0.9-0.4-0.9-0.9c0-0.1,0-0.1,0-0.2l0.1-0.5c0.1-0.5-0.3-1-0.8-1.1c-0.1,0-0.1,0-0.2,0l0,0
	c-0.6,0-1.1,0.5-1.2,1.1l-0.9,7.5c-0.1,0.5,0.2,1,0.7,1c0,0,0.1,0,0.2,0c0.5,0,0.9,0.4,0.9,0.9c0,0.1,0,0.1,0,0.2L26,73.6z"/>
<path class="st0" d="M41.8,61.7h-3.5c-0.6,0-1.1,0.5-1.2,1.1c-0.1,0.6-0.6,1.1-1.2,1.1h-1.4c-0.5,0-0.9-0.4-0.9-0.9c0,0,0-0.1,0-0.1
	l0.3-2.4c0.1-0.5-0.3-1-0.8-1.1c-0.1,0-0.1,0-0.2,0c-0.6,0-1.1,0.5-1.2,1.1L30,73.5c-0.1,0.5,0.3,1,0.8,1c0.1,0,0.1,0,0.2,0h1.9
	c0.6,0,1,0.3,1,0.7c-0.2,0.5-0.7,0.7-1.1,0.7h-5.8c-0.6,0-1.2,0.5-1.2,1.1c-0.1,0.5,0.3,1,0.8,1.1c0.1,0,0.1,0,0.2,0h1.6
	c0.6,0,1,0.3,1,0.7c-0.2,0.5-0.6,0.8-1.1,0.7h-6.9c-0.5,0-0.9-0.4-0.9-0.9c0-0.1,0-0.1,0-0.2l1.5-12.6l0.2-1.3l0.1-1.1
	c0-0.5-0.4-0.9-0.8-0.9c0,0-0.1,0-0.1,0h-4.1c-0.6,0-1.4,0.2-1.5,1c-0.1,0.5,0.2,1.1,0.7,1.2c0.1,0,0.2,0,0.3,0h2.1
	c0.5,0,0.9,0.4,0.9,0.9c0,0.1,0,0.1,0,0.2L18,78.5c-0.1,0.6-0.6,1-1.2,1.1h-4.5c-0.5,0-0.9-0.4-0.9-0.9c0-0.1,0-0.1,0-0.2
	c0,0,0.8-6.9,0.9-7.4c0-0.4-0.2-1.3-0.9-1.3c-0.7,0.1-1.3,0.6-1.3,1.4l-1.3,11c-0.1,0.6,0.3,1.1,0.9,1.1c0.1,0,0.1,0,0.2,0
	c0.5,0,1-0.3,1.1-0.8s0.6-0.8,1.1-0.8h4.5c0.6,0,1,0.3,1,0.8s0.4,0.8,1,0.8h0.1c0.5,0,1-0.3,1.1-0.8s0.6-0.8,1.1-0.8h4.5
	c0.6,0,0.9,1,0.9,1.6l-0.6,4.7c-0.1,0.5,0.3,1,0.8,1c0.1,0,0.1,0,0.2,0h9c0.6,0,1.1-0.5,1.2-1.1l0.6-5.5c0.1-0.5,0.6-0.9,1.1-0.9
	h0.7c0.6,0,1.1-0.5,1.2-1.1v-0.1l0.1-1.1h-4.1c-0.6,0-1-0.3-1-0.7c0.2-0.5,0.6-0.8,1.1-0.7h3c0.6,0,1.2-0.5,1.2-1.1
	c0.1-0.5-0.3-1-0.8-1.1c-0.1,0-0.1,0-0.2,0h-3c-0.5,0-0.9-0.4-0.9-0.9c0-0.1,0-0.1,0-0.2l0.7-5.5c0.1-0.6,0.6-1,1.2-1.1h0.8
	c0.6,0,1.2-0.5,1.2-1.1c0.1-0.5-0.3-1-0.8-1.1c-0.1,0-0.1,0-0.2,0h-0.8c-0.5,0-0.9-0.4-0.9-0.9c0-0.1,0-0.1,0-0.2v-0.1
	c0.1-0.6,0.6-1,1.2-1.1h0.8c0.5,0,1,0.4,1,0.9c0,0.1,0,0.1,0,0.2c-0.1,0.5,0.3,1,0.8,1.1c0.1,0,0.1,0,0.2,0h0c0.6,0,1.1-0.5,1.2-1.1
	l0.3-2.3c0.1-0.6,0.1-1.1,0.1-1.1L41.8,61.7L41.8,61.7z M32.7,67.1c0.1-0.7,0.7-1.2,1.3-1.1c0.5,0,1,0.4,1,0.9c0,0.1,0,0.2,0,0.3
	c-0.1,0.7-0.6,1.2-1.3,1.3c-0.6,0-1-0.5-1-1.1C32.7,67.3,32.7,67.2,32.7,67.1L32.7,67.1z M33.2,72.6c-0.6,0-1-0.4-1-1
	c0-0.1,0-0.1,0-0.2c0.1-0.7,0.7-1.1,1.3-1.1c0.6,0,1,0.4,1,1c0,0.1,0,0.1,0,0.2C34.4,72.1,33.9,72.6,33.2,72.6L33.2,72.6z
	 M31.3,78.8c0.1-0.6,0.6-0.9,1.2-0.9c0.7,0,1.1,0.4,1.1,0.9c-0.2,0.6-0.7,0.9-1.3,0.9C31.7,79.7,31.3,79.3,31.3,78.8L31.3,78.8z
	 M33.7,87.1h-4.5c-0.6,0-1-0.3-1-0.9c0.1-0.7,0.7-0.9,1.3-0.9H34c0.5-0.1,0.9,0.3,0.9,0.7c0,0,0,0.1,0,0.1
	C34.8,86.8,34.3,87.2,33.7,87.1z M34.3,83.6h-4.8c-0.4,0.1-0.8-0.2-0.9-0.7c0-0.1,0-0.2,0-0.2c0-0.5,0.5-0.9,1.1-0.9c0,0,0,0,0,0
	h4.8c0.5,0,0.8,0.4,0.8,0.9c0,0,0,0,0,0C35.2,83.2,34.8,83.5,34.3,83.6L34.3,83.6z"/>
<path class="st0" d="M7.6,65.5L7.6,65.5c-1.2,0-2.4,0.4-3.1,1.3C4,67.3,4,68,4.3,68.5c0.4,0.4,1.1,0.4,1.5-0.1c0,0,0,0,0,0
	c0.3-0.4,0.8-0.6,1.3-0.6c0.4,0.1,0.8,0.3,1,0.8c0.1,0.3,0.4,0.5,0.8,0.6H9c0.2,0,0.4-0.1,0.5-0.2c0.5-0.3,0.8-1,0.6-1.6
	C9.7,66.3,8.7,65.6,7.6,65.5z"/>
<path class="st0" d="M8.6,60.8L8.6,60.8c-1.8-0.1-3.5,0.6-4.6,1.9c-0.2,0.2-0.4,0.5-0.4,0.8c0,0.3,0.1,0.6,0.3,0.8
	c0.5,0.4,1.2,0.4,1.6-0.1c0.7-0.7,1.7-1.2,2.7-1.1c0.9,0.1,1.7,0.7,2.1,1.5c0.1,0.3,0.5,0.5,0.8,0.5h0.2c0.2,0,0.4-0.1,0.5-0.2
	c0.3-0.2,0.5-0.4,0.6-0.7c0.1-0.3,0.1-0.6,0-0.9C11.7,61.9,10.2,60.9,8.6,60.8z"/>
<path class="st0" d="M15,59.5c-1-2.1-3.1-3.5-5.4-3.6c-0.4,0-0.8,0-1.2,0c-2.1,0.2-4.1,1.2-5.6,2.7c-0.2,0.2-0.4,0.5-0.4,0.9
	c0,0.3,0.1,0.6,0.3,0.8c0.5,0.4,1.2,0.3,1.7-0.1c1.2-1.3,2.9-2,4.7-1.9v-0.2v0.2h0c1.6,0.1,3.1,1.1,3.8,2.5c0.2,0.3,0.5,0.5,0.8,0.5
	h0.2c0.2,0,0.4-0.1,0.6-0.2c0.3-0.2,0.5-0.4,0.6-0.7C15.2,60.1,15.2,59.8,15,59.5z"/>
<path class="st0" d="M16.4,29.7c0.1-1,0.9-1.7,1.9-1.7h0.8c0.8,0.1,1.4-0.4,1.6-1.1c0.1-0.6-0.4-1.1-1.3-1.1h-0.8
	c-0.8,0-1.5-0.6-1.5-1.4c0-0.1,0-0.2,0-0.3l0-0.3c0.1-1,0.9-1.7,1.9-1.7h0.8c0.8,0.1,1.5-0.4,1.6-1.1c0.1-0.6-0.4-1.1-1.3-1.1h-3.1
	c-1,0-1.8,0.8-1.9,1.7l-1.4,10.5c-0.1,0.8,0.4,1.5,1.2,1.7c0.1,0,0.2,0,0.3,0H21c0.7,0.1,1.4-0.4,1.5-1.1c0.1-0.6-0.3-1.1-1.2-1.1
	h-3.4c-0.8,0-1.5-0.6-1.5-1.4C16.4,29.9,16.4,29.8,16.4,29.7L16.4,29.7L16.4,29.7z"/>
<path class="st0" d="M43,32.2c-0.1,0.9,0.3,1.4,1,1.4c0.7,0,1.3-0.7,1.3-1.4l1.4-11.2c0.1-0.9-0.3-1.4-1-1.4c-0.7,0-1.3,0.6-1.3,1.4
	L43,32.2z"/>
<path class="st0" d="M37.9,48.3c0,0.9-0.7,1.6-1.6,1.7c-0.8,0-1.3-0.8-1.1-1.7l0.3-2.4c0.1-0.9-0.3-1.7-0.9-1.7S33.3,45,33.2,46
	l-0.3,2.4c0,0.9-0.7,1.6-1.6,1.7c-0.8,0-1.3-0.8-1.1-1.7l1.1-8.5c0.1-0.9-0.3-1.5-1-1.5s-1.2,0.5-1.3,1.5l-1.1,8.6
	c-0.1,0.9-0.1,1.9,0.2,2.8c0.2,0.6,1.2,1.1,2.1,1.1h6.7c0.9,0,1.8-0.4,2.4-1.1c0.5-0.9,0.8-1.8,0.9-2.8l1.1-8.6
	c0.1-0.9-0.3-1.5-1-1.5c-0.6,0-1.2,0.5-1.3,1.5L37.9,48.3z"/>
<path class="st0" d="M39.2,23.3c-0.1,1-0.9,1.7-1.9,1.7H37c-0.8,0-1.5-0.6-1.5-1.4c0-0.1,0-0.2,0-0.3l0.3-2.2c0.1-0.9-0.3-1.4-1-1.4
	c-0.7,0-1.3,0.7-1.3,1.4L32,32.3c-0.1,0.9,0.3,1.4,1,1.4c0.7,0,1.3-0.6,1.3-1.4l0.4-3.3c0.1-1,0.9-1.7,1.9-1.7h0.3
	c0.8,0,1.5,0.6,1.5,1.4c0,0.1,0,0.2,0,0.3L38,32.3c-0.1,0.9,0.3,1.4,1,1.4c0.7,0,1.3-0.6,1.3-1.4l1.5-11.2c0.1-0.9-0.3-1.4-1-1.4
	c-0.7,0-1.3,0.7-1.3,1.4L39.2,23.3z"/>
<path class="st0" d="M4.8,19.7L3.3,31.6c-0.1,0.9,0.3,1.5,1,1.5s1.2-0.6,1.3-1.5l0.2-1.4c0.1-0.9,0.9-1.7,1.8-1.7
	C8.4,28.6,9,29.2,9,30c0,0.1,0,0.2,0,0.3l-0.5,4.1c-0.1,0.9,0.3,1.4,1,1.4c0.7,0,1.3-0.7,1.3-1.4l0.6-4.9c0.1-0.9-0.3-1.7-0.8-1.7
	c-0.5,0-1-0.4-1-0.9c0-0.7,0.6-1.3,1.3-1.3c0.6,0,1.2-0.8,1.3-1.7l0.3-2.4c0.1-0.8-0.4-1.5-1.2-1.7c-0.1,0-0.2,0-0.3,0L4.8,19.7
	L4.8,19.7z M8.1,24.9c-0.8,0-1.4-0.6-1.4-1.4c0-0.1,0-0.2,0-0.2c0.1-0.9,0.9-1.6,1.8-1.6c0.8,0,1.4,0.6,1.4,1.4c0,0.1,0,0.2,0,0.2
	C9.8,24.2,9,24.9,8.1,24.9z"/>
<path class="st0" d="M7,0.9C6.3,0.8,5.6,1.3,5.4,2C5.3,2.7,5.8,3.2,6.7,3.2h1.2c0.8,0,1.5,0.6,1.5,1.4c0,0.1,0,0.2,0,0.3V5
	C9.3,6,8.5,6.7,7.5,6.7H6.6c-1,0-1.8,0.8-1.9,1.7L4,14c-0.1,0.8,0.4,1.5,1.2,1.7c0.1,0,0.2,0,0.3,0h3.5c0.7,0.1,1.4-0.4,1.5-1.1
	c0.1-0.6-0.3-1.1-1.2-1.1H8c-0.8,0-1.5-0.6-1.5-1.4c0-0.1,0-0.2,0-0.3l0.1-0.9c0.1-1,0.9-1.7,1.9-1.7h0.9c1,0,1.8-0.8,1.9-1.7
	L12,2.6c0.1-0.8-0.4-1.5-1.2-1.7c-0.1,0-0.2,0-0.3,0H7z"/>
<path class="st0" d="M13,13.9c-0.1,0.8,0.4,1.5,1.2,1.7c0.1,0,0.2,0,0.3,0h3.8c1,0,1.8-0.8,1.9-1.7l1.5-11.3
	c0.1-0.8-0.4-1.5-1.2-1.7c-0.1,0-0.2,0-0.3,0h-3.8c-1,0-1.8,0.8-1.9,1.7L13,13.9z M18,3.2c0.7,0,1.2,0.8,1.1,1.7l-0.9,6.8
	c-0.1,0.9-0.8,1.7-1.5,1.7c-0.7,0-1.2-0.8-1.1-1.7l0.9-6.8C16.6,3.9,17.3,3.2,18,3.2L18,3.2z"/>
<path class="st0" d="M25.5,19.7c-0.7-0.1-1.4,0.4-1.5,1.1c-0.1,0.6,0.3,1.1,0.9,1.1c0.1,0,0.1,0,0.2,0c0.7,0,1.1,0.8,1,1.7l-1.1,8.6
	c-0.1,0.9,0.3,1.3,1,1.3c0.7,0,1.3-0.6,1.3-1.3c0,0,0,0,0,0l1.1-8.6c0.1-0.9,0.8-1.6,1.6-1.7c0.7,0,1.2-0.5,1.3-1.1
	c0.1-0.6-0.3-1.1-1.3-1.1H25.5L25.5,19.7z"/>
<path class="st0" d="M22.5,50.9c-0.1,0.9,0.3,1.5,1,1.5s1.2-0.5,1.3-1.5l1.4-11c0.1-0.9-0.3-1.5-1-1.5c-0.6,0-1.2,0.5-1.3,1.5
	L22.5,50.9z"/>
<path class="st0" d="M4.2,38.4c-0.7-0.1-1.4,0.4-1.6,1.1c-0.1,0.6,0.3,1.1,1.3,1.1h0.4c0.8,0,1.5,0.6,1.5,1.4c0,0.1,0,0.2,0,0.3
	l-1.1,8.5c-0.1,0.9,0.3,1.4,1,1.4s1.2-0.5,1.3-1.4l1.1-8.5c0.1-1,0.9-1.7,1.9-1.7h0.4c0.9,0,1.6-0.5,1.6-1.1
	c0.1-0.6-0.4-1.1-1.3-1.1H4.2L4.2,38.4z"/>
<path class="st0" d="M16.8,38.4c-0.8-0.1-1.5,0.4-1.6,1.1c-0.1,0.6,0.4,1.1,1.3,1.1h0.3c0.8,0,1.5,0.6,1.5,1.4c0,0.1,0,0.2,0,0.3
	v0.2c-0.1,1-0.9,1.7-1.9,1.7h-0.1c-0.8,0-1.5-0.6-1.5-1.4c0-0.1,0-0.2,0-0.3l0.1-0.5c0.1-0.9-0.3-1.4-1-1.4c-0.7,0-1.3,0.6-1.3,1.4
	l-1.1,9c-0.1,0.9,0.3,1.4,1,1.4c0.7,0,1.3-0.6,1.3-1.4l0.4-2.8c0.1-1,0.9-1.7,1.9-1.7h0.1c0.8,0,1.5,0.6,1.5,1.4c0,0.1,0,0.2,0,0.3
	l-0.4,2.8c-0.1,0.9,0.3,1.4,1,1.4c0.7,0,1.3-0.6,1.3-1.4l1.4-11c0.1-0.8-0.4-1.5-1.2-1.7c-0.1,0-0.2,0-0.3,0L16.8,38.4L16.8,38.4z"
	/>
<path class="st0" d="M25.6,0.9C24.9,0.8,24.2,1.3,24,2c-0.1,0.6,0.4,1.1,1.3,1.1h1.2c0.8,0,1.5,0.6,1.5,1.4c0,0.1,0,0.2,0,0.3V5
	c-0.1,1-0.9,1.7-1.9,1.7h-0.9c-1,0-1.8,0.8-1.9,1.7L22.6,14c-0.1,0.8,0.4,1.5,1.2,1.7c0.1,0,0.2,0,0.3,0h3.5
	c0.7,0.1,1.4-0.4,1.5-1.1c0.1-0.6-0.3-1.1-1.2-1.1h-1.2c-0.8,0-1.5-0.6-1.5-1.4c0-0.1,0-0.2,0-0.3l0.1-0.9c0.1-1,0.9-1.7,1.9-1.7
	h0.9c1,0,1.8-0.8,1.9-1.7l0.6-4.7c0.1-0.8-0.4-1.5-1.2-1.7c-0.1,0-0.2,0-0.3,0H25.6L25.6,0.9z"/>
<path class="st0" d="M34.9,0.9h-1.7c0,0-0.1,0.8-0.2,1.7l-0.4,3.1c-0.1,0.9,0.3,1.4,1,1.4c0.7,0,1.3-0.6,1.3-1.4L35,4.9
	c0.1-0.9,0.7-1.7,1.3-1.7s1,0.8,0.9,1.7L36,14.2c-0.1,0.9,0.3,1.4,1,1.4c0.7,0,1.3-0.7,1.3-1.4l1.5-11.6C40,1.8,39.4,1,38.6,0.9
	c-0.1,0-0.2,0-0.3,0H34.9L34.9,0.9z"/>
<path class="st0" d="M57.1,21.2c0.1-0.9-0.3-1.4-0.9-1.4c-0.8,0-1.4,0.7-1.4,1.4l-0.4,3.2c-0.1,0.9-1.1,1.3-1.3,0.2l-0.9-3.3
	c-0.3-1-0.7-1.6-1.3-1.6c-1,0-1.5,0.8-1.6,1.7l-1.4,10.9c-0.1,0.9,0.3,1.4,1,1.4c0.7,0,1.3-0.6,1.3-1.4l0.5-3.7
	c0.1-0.9,1.1-1.1,1.3-0.1l0.7,3.7c0.2,1.2,0.9,1.4,1.5,1.4c0.8-0.1,1.5-0.7,1.6-1.6L57.1,21.2z"/>
<path class="st0" d="M63.7,38.9c0.1-0.9-0.3-1.4-1-1.4c-0.7,0-1.3,0.6-1.3,1.4l-0.6,4.4c-0.2,1.2-1.2,1.3-1.6,0.4l-1.7-3.9
	c-0.3-0.8-0.9-1.4-1.7-1.2c-1,0.3-1.2,1.3-1.4,2.2l-1.3,10.1c-0.1,0.9,0.3,1.4,1,1.4c0.6,0,1.2-0.5,1.3-1.4l0.6-4.5
	c0.1-0.8,1-1.3,1.3-0.4l2.1,5.5c0.3,0.8,0.9,1.1,1.6,1c0.6-0.1,1-0.7,1.1-1.6L63.7,38.9z"/>
<path class="st0" d="M67.5,21.4c0.6-0.6,0.7-1.3,0.3-1.8s-1.2-0.4-1.9,0.3l-3.2,3.2c-0.5,0.6-1.1,0.3-1-0.4l0.2-1.4
	c0.1-0.9-0.3-1.4-1-1.4s-1.2,0.5-1.3,1.4l-1.4,11c-0.1,0.9,0.3,1.4,1,1.4c0.7,0,1.3-0.6,1.3-1.4l0.5-3.9c0.1-0.6,0.7-0.9,1-0.3
	l2.6,4.8c0.4,0.8,1.1,0.9,1.7,0.6c0.6-0.5,0.7-1.3,0.3-1.9l-2.5-5c-0.4-0.8-0.5-1.1,0.2-1.8L67.5,21.4z"/>
<path class="st0" d="M47.8,38.4c-0.8-0.1-1.5,0.4-1.6,1.1c-0.1,0.6,0.4,1.1,1.3,1.1h0.3c0.8,0,1.5,0.6,1.5,1.4c0,0.1,0,0.2,0,0.3
	v0.2c-0.1,1-0.9,1.7-1.9,1.7h-0.1c-0.8,0-1.5-0.6-1.5-1.4c0-0.1,0-0.2,0-0.3l0.1-0.5c0.1-0.9-0.3-1.4-1-1.4c-0.7,0-1.3,0.6-1.3,1.4
	l-1.1,9c-0.1,0.9,0.3,1.4,1,1.4c0.7,0,1.3-0.6,1.3-1.4l0.3-2.8c0.1-1,0.9-1.7,1.9-1.7H47c0.8,0,1.5,0.6,1.5,1.4c0,0.1,0,0.2,0,0.3
	l-0.3,2.8c-0.1,0.9,0.3,1.4,1,1.4c0.7,0,1.3-0.6,1.3-1.4l1.4-11c0.1-0.8-0.4-1.5-1.2-1.7c-0.1,0-0.2,0-0.3,0L47.8,38.4L47.8,38.4z"
	/>
</svg>
