<svg xmlns="http://www.w3.org/2000/svg" viewBox="0 0 381.51 196.48"><defs><style>.cls-1{fill:#6bffba;}</style></defs><title>資產 1</title><g id="圖層_2" data-name="圖層 2"><g id="BG"><path class="cls-1" d="M314.78,122.43a853.69,853.69,0,0,1-116.46-10.71c-17.88-2.94-34.91-6.43-50.94-10.42s-31.08-8.43-45-13.34c-27.77-9.77-51-21.37-68-34A112.84,112.84,0,0,1,13.79,34.78,64.92,64.92,0,0,1,3.21,17a46.69,46.69,0,0,1-3-12.54A31.13,31.13,0,0,1,0,1.12v0A24,24,0,0,0,.19,4.43,46.77,46.77,0,0,0,3.12,17,65.11,65.11,0,0,0,13.63,35,113.21,113.21,0,0,0,34.15,54.4c17,12.74,40.16,24.54,67.92,34.53,13.88,5,28.93,9.59,45,13.69s33.08,7.73,51,10.81A855.76,855.76,0,0,0,314.74,125q16.75.53,34,.5v-2.86Q331.51,122.85,314.78,122.43Z"/><path class="cls-1" d="M379.82,159.64c2.31,1.41,2.24,3.59-.15,4.85l-8.93,4.72a3.21,3.21,0,0,1-5-2.57l-1.63-12.1c-.36-2.68,1.23-3.72,3.54-2.31Z"/><path class="cls-1" d="M315.72,178.1a4.67,4.67,0,0,1-4.36,3.51h-8.27a4.32,4.32,0,0,0-4.13,3.55l-1.17,7.77a3,3,0,0,0,3.06,3.55h.25a4.63,4.63,0,0,0,4.33-3.52l.08-.4a4.63,4.63,0,0,1,4.33-3.52h8.63a4.62,4.62,0,0,0,4.32-3.52l2.42-11.66a4.62,4.62,0,0,1,4.32-3.52h6.53a4.21,4.21,0,0,1,4,3.56l.6,4.64a3.09,3.09,0,0,1-3.13,3.56h-5.5a3.5,3.5,0,0,0-3.51,3.49s0,.07,0,.1l.17,7.19a3.7,3.7,0,0,0,3.65,3.59,3.49,3.49,0,0,0,3.48-3.5s0-.06,0-.09v-.24a3.5,3.5,0,0,1,3.41-3.59h6.1a3.1,3.1,0,0,0,3.15-3.57l-1.45-11.58a3,3,0,0,1,2.81-3.57,4.1,4.1,0,0,1,3.77,3.56l2.74,19a4.29,4.29,0,0,0,4.11,3.56h.25a3,3,0,0,0,3.08-3.56l-6.16-42.83a4.29,4.29,0,0,0-4.11-3.56H326.16A4.67,4.67,0,0,0,321.8,150Z"/><path class="cls-1" d="M370.45,174.64a3,3,0,0,0-3,3.55l2.42,14.58a4.4,4.4,0,0,0,4.18,3.55h.25a3,3,0,0,0,3-3.55l-2.42-14.58a4.4,4.4,0,0,0-4.18-3.55Z"/></g></g></svg>