<svg xmlns="http://www.w3.org/2000/svg" viewBox="0 0 863.6 419.74"><defs><style>.cls-1{fill:#bebebe;}.cls-2{fill:#cfcfcf;}</style></defs><title>資產 1</title><g id="圖層_2" data-name="圖層 2"><g id="BG"><path class="cls-1" d="M777.2,220.9v-1.15l-.12-1.23c-.09-.81-.14-1.66-.28-2.44l-.41-2.37a52.56,52.56,0,0,0-2.69-9.17,67.32,67.32,0,0,0-9.42-16.37,99,99,0,0,0-12.71-13.62,146.64,146.64,0,0,0-14.5-11.41A225.79,225.79,0,0,0,705.36,145q-8.2-3.92-16.59-7.33t-16.86-6.44a539.18,539.18,0,0,0-68.63-19.06c-23-4.85-45.87-8.47-68.5-11.12a910.16,910.16,0,0,0-97-6q-17.28-.16-34.09.26a859.07,859.07,0,0,0-117.22,10.79c-18,3-35.19,6.49-51.37,10.51s-31.39,8.51-45.46,13.49c-28.14,9.91-51.79,21.69-69.42,34.72A118.24,118.24,0,0,0,98.64,185a70.4,70.4,0,0,0-11.47,19.36,52.19,52.19,0,0,0-3.34,14c-.21,1.63-.19,2.87-.24,3.71v1.26h11v-1a20.88,20.88,0,0,1,.17-2.92,41.25,41.25,0,0,1,2.6-11.17A59.58,59.58,0,0,1,107,191.75a107.7,107.7,0,0,1,19.53-18.43C142.89,161,165.62,149.41,193,139.56c13.7-5,28.58-9.47,44.47-13.54s32.79-7.66,50.56-10.72A850.24,850.24,0,0,1,404,103.81q16.67-.53,33.85-.5A902.33,902.33,0,0,1,534,108.57c22.44,2.47,45.16,5.89,67.91,10.53a532.48,532.48,0,0,1,67.85,18.33q8.38,2.89,16.62,6.22t16.31,7.07a219.74,219.74,0,0,1,31,17.4,140.73,140.73,0,0,1,14,10.84,93.27,93.27,0,0,1,12.07,12.74,61.66,61.66,0,0,1,8.71,14.93,47,47,0,0,1,2.47,8.19l.34,2.08c.13.7.16,1.37.25,2.06.2,1.26.18,3,.26,4.31A45.42,45.42,0,0,1,768.56,240a61.82,61.82,0,0,1-8.62,15,93.55,93.55,0,0,1-12,12.87,141.17,141.17,0,0,1-14,11A220.3,220.3,0,0,1,703,296.52q-8,3.84-16.3,7.21t-16.62,6.35A533.71,533.71,0,0,1,602.2,328.9c-22.77,4.81-45.52,8.4-68,11a904.65,904.65,0,0,1-96.42,6q-17.2.16-33.93-.26a853.69,853.69,0,0,1-116.46-10.71c-17.88-2.94-34.91-6.43-50.94-10.42s-31.08-8.43-45-13.34c-27.77-9.77-51-21.37-68-34A112.84,112.84,0,0,1,102.86,258a64.92,64.92,0,0,1-10.58-17.76,46.69,46.69,0,0,1-3-12.54,31.13,31.13,0,0,1-.21-3.31v0a24,24,0,0,0,.19,3.31,46.77,46.77,0,0,0,2.93,12.58,65.11,65.11,0,0,0,10.51,18,113.21,113.21,0,0,0,20.52,19.39c17,12.74,40.16,24.54,67.92,34.53,13.88,5,28.93,9.59,45,13.69s33.08,7.73,51,10.81a855.76,855.76,0,0,0,116.67,11.57q16.75.53,34,.5a907.82,907.82,0,0,0,96.81-5.29c22.59-2.49,45.47-5.93,68.42-10.61a537.83,537.83,0,0,0,68.56-18.52q8.49-2.93,16.86-6.31T705,300.84A225.1,225.1,0,0,0,736.8,283a146.16,146.16,0,0,0,14.48-11.31A98.68,98.68,0,0,0,764,258.2a67.1,67.1,0,0,0,9.49-16.3,50.85,50.85,0,0,0,3.75-18.64Z"/><path class="cls-1" d="M468.89,382.9c2.31,1.41,2.24,3.59-.15,4.85l-8.93,4.72a3.21,3.21,0,0,1-5-2.57l-1.63-12.1c-.36-2.68,1.23-3.72,3.54-2.31Z"/><path class="cls-1" d="M404.79,401.36a4.67,4.67,0,0,1-4.36,3.51h-8.27a4.32,4.32,0,0,0-4.13,3.55l-1.17,7.77a3,3,0,0,0,3.06,3.55h.25a4.63,4.63,0,0,0,4.33-3.52l.08-.4a4.63,4.63,0,0,1,4.33-3.52h8.63a4.62,4.62,0,0,0,4.32-3.52l2.42-11.66a4.62,4.62,0,0,1,4.32-3.52h6.53a4.21,4.21,0,0,1,4,3.56l.6,4.64a3.09,3.09,0,0,1-3.13,3.56h-5.5a3.5,3.5,0,0,0-3.51,3.49s0,.07,0,.1l.17,7.19a3.7,3.7,0,0,0,3.65,3.59,3.49,3.49,0,0,0,3.48-3.5s0-.06,0-.09v-.24a3.5,3.5,0,0,1,3.41-3.59h6.1a3.1,3.1,0,0,0,3.15-3.57l-1.45-11.58a3,3,0,0,1,2.81-3.57,4.1,4.1,0,0,1,3.77,3.56l2.74,19a4.29,4.29,0,0,0,4.11,3.56h.25a3,3,0,0,0,3.08-3.56l-6.16-42.83a4.29,4.29,0,0,0-4.11-3.56H415.23a4.67,4.67,0,0,0-4.36,3.51Z"/><path class="cls-1" d="M459.52,397.9a3,3,0,0,0-3,3.55L458.94,416a4.4,4.4,0,0,0,4.18,3.55h.25a3,3,0,0,0,3-3.55l-2.42-14.58a4.4,4.4,0,0,0-4.18-3.55Z"/><path class="cls-1" d="M408.28,14.44c-2.59-.77-3.09-2.89-1.1-4.73L416.58,1c2-1.83,3.94-1.15,4.34,1.52l1.74,11.51c.4,2.67-1.38,4.23-4,3.46Z"/><path class="cls-1" d="M460.34,66.1a4.2,4.2,0,0,1-4-3.57L449.9,11.8a4.2,4.2,0,0,0-4-3.57H427.69s.13,1.61.36,3.57l2.4,20.1a3.12,3.12,0,0,1-3.17,3.57h-4.33a4,4,0,0,1-4-3.16,2.74,2.74,0,0,1,2.19-3.2l.36,0a3.45,3.45,0,0,0-.17-6.83h-6.47a3.14,3.14,0,0,0-3.08,3.58l3.4,36.67A3.12,3.12,0,0,1,412.55,66l-.38,0a3.11,3.11,0,0,0-3,3.58v.28a4,4,0,0,0,3.94,3.58h7a3.21,3.21,0,0,0,3.25-3.58l-1.54-16a3.21,3.21,0,0,1,2.82-3.56l.43,0h18a4.3,4.3,0,0,1,4.11,3.56L449.48,70a4.3,4.3,0,0,0,4.11,3.56h15.88a3.21,3.21,0,0,0,3.25-3.58v-.28a4,4,0,0,0-3.94-3.58h-8.44Z"/><path class="cls-1" d="M846.48,233.9a3.61,3.61,0,0,1-3.59-3.59V210.43a3.61,3.61,0,0,1,3.59-3.59h.25a3.61,3.61,0,0,0,3.59-3.59V172.78a3.49,3.49,0,0,1,3.35-3.59A3.49,3.49,0,0,0,857,165.6v-.25a3.61,3.61,0,0,0-3.59-3.59h-6.95a3.61,3.61,0,0,0-3.59,3.59v30.27a3.61,3.61,0,0,1-3.59,3.59H822.68a3.61,3.61,0,0,1-3.59-3.59V165.34a3.61,3.61,0,0,0-3.59-3.59h-7a3.61,3.61,0,0,0-3.59,3.59v.25a3.49,3.49,0,0,0,3.35,3.59,3.49,3.49,0,0,1,3.35,3.59v30.46a3.61,3.61,0,0,0,3.59,3.59h.25a3.61,3.61,0,0,1,3.59,3.59v19.88a3.61,3.61,0,0,1-3.59,3.59h-8a3.58,3.58,0,0,0-3.57,3.59h0l.1,16a3.35,3.35,0,0,1-3,3.59,3.35,3.35,0,0,0-3.06,3.56,3.59,3.59,0,0,0,3.59,3.56H808a3.61,3.61,0,0,0,3.59-3.59V244.9a3.61,3.61,0,0,1,3.59-3.59h32a3.61,3.61,0,0,1,3.59,3.59v15.66a3.61,3.61,0,0,0,3.59,3.59H860a3.59,3.59,0,0,0,3.59-3.56c0-2-1.22-3.56-2.72-3.56s-2.72-1.62-2.72-3.59v-16a3.61,3.61,0,0,0-3.59-3.59h-8Z"/><path class="cls-1" d="M833.28,261.59c-1.44,2.29-3.73,2.25-5.09-.08l-6.28-10.74c-1.36-2.33-.27-4.24,2.43-4.24h13.51c2.7,0,3.73,1.87,2.3,4.16Z"/><path class="cls-2" d="M60.14,208.15a3.93,3.93,0,0,0,4-3.63,3.74,3.74,0,0,0-4-3.46H49.42a3.34,3.34,0,0,1-3.4-4L48.07,184H16a5,5,0,0,0-4.74,4.51l-2.8,16.74c-.48,2.84,1.25,4.53,3.15,4.53,2.16,0,3.56-1.46,3.9-3.65l1.79-10.7a4.64,4.64,0,0,1,4.24-4c2,0,3,1.78,2.59,4l-8.8,51.29a5,5,0,0,1-4.7,4H5.73a4.87,4.87,0,0,0-4.64,4L0,261.36a3.5,3.5,0,0,0,3,4l.44,0a4.17,4.17,0,0,0,3.83-3.63,4.82,4.82,0,0,1,4.68-3.63h3.67a7.09,7.09,0,0,0,6.68-5.54l3.85-20.34a5.06,5.06,0,0,1,4.77-4H42.54a3.34,3.34,0,0,1,3.4,4l-4.45,28.36a4,4,0,0,0,4.07,4.75h7.18c2.22,0,4.44-1,4.44-3.74,0-1.27-1-3.17-4-3.17h0a3.34,3.34,0,0,1-3.4-4l4.41-28.1a4.77,4.77,0,0,0-4.85-5.67h-3a3.34,3.34,0,0,1-3.4-4l1.33-8.48H60.13Z"/><path class="cls-2" d="M38.85,163.45c1.33-1.76,3.18-1.56,4.1.45l5.33,11.63c.92,2-.14,3.66-2.35,3.66h-15c-2.21,0-2.93-1.44-1.59-3.21Z"/></g></g></svg>