<svg xmlns="http://www.w3.org/2000/svg" viewBox="0 0 371.32 223.27"><defs><style>.cls-1{fill:#ffcd32;}</style></defs><title>資產 1</title><g id="圖層_2" data-name="圖層 2"><g id="BG"><path class="cls-1" d="M371.19,219.75l-.12-1.23c-.09-.81-.14-1.66-.28-2.44l-.41-2.37a52.56,52.56,0,0,0-2.69-9.17,67.32,67.32,0,0,0-9.37-16.37,99,99,0,0,0-12.71-13.62,146.64,146.64,0,0,0-14.5-11.41A225.79,225.79,0,0,0,299.4,145q-8.2-3.92-16.59-7.33t-16.86-6.44a539.18,539.18,0,0,0-68.63-19.06c-23-4.85-45.87-8.47-68.5-11.12a910.16,910.16,0,0,0-97-6v8.21A902.33,902.33,0,0,1,128,108.55c22.44,2.47,45.16,5.89,67.91,10.53a532.48,532.48,0,0,1,67.85,18.33q8.38,2.89,16.62,6.22t16.31,7.07a219.74,219.74,0,0,1,31,17.4,140.73,140.73,0,0,1,14,10.84,93.27,93.27,0,0,1,12.07,12.74,61.66,61.66,0,0,1,8.71,14.93,47,47,0,0,1,2.47,8.19l.37,2.1c.13.7.16,1.37.25,2.06.2,1.26.18,3,.26,4.31h5.49l-.08-2.37C371.22,220.51,371.23,220.16,371.19,219.75Z"/><path class="cls-1" d="M2.32,14.44c-2.59-.77-3.09-2.89-1.1-4.73L10.62,1C12.62-.8,14.56-.12,15,2.55L16.7,14.06c.4,2.67-1.38,4.23-4,3.46Z"/><path class="cls-1" d="M54.38,66.1a4.2,4.2,0,0,1-4-3.57L43.94,11.8a4.2,4.2,0,0,0-4-3.57H21.73s.13,1.61.36,3.57l2.4,20.1a3.12,3.12,0,0,1-3.17,3.57H17a4,4,0,0,1-4-3.16,2.74,2.74,0,0,1,2.19-3.2l.36,0a3.45,3.45,0,0,0-.17-6.83H8.9a3.14,3.14,0,0,0-3.08,3.58l3.4,36.67A3.12,3.12,0,0,1,6.6,66l-.38,0a3.11,3.11,0,0,0-3,3.58v.28a4,4,0,0,0,3.94,3.58h7a3.21,3.21,0,0,0,3.25-3.58l-1.54-16a3.21,3.21,0,0,1,2.82-3.56l.43,0h18a4.3,4.3,0,0,1,4.11,3.56L43.52,70a4.3,4.3,0,0,0,4.11,3.56H63.51a3.21,3.21,0,0,0,3.25-3.58v-.28a4,4,0,0,0-3.94-3.58H54.38Z"/></g></g></svg>