<svg xmlns="http://www.w3.org/2000/svg" viewBox="0 0 437.79 170.34"><defs><style>.cls-1{fill:#4eb5ff;}</style></defs><title>資產 1</title><g id="圖層_2" data-name="圖層 2"><g id="BG"><path class="cls-1" d="M94.57,127.25a20.88,20.88,0,0,1,.17-2.92,41.25,41.25,0,0,1,2.6-11.17A59.58,59.58,0,0,1,107,96.69a107.7,107.7,0,0,1,19.53-18.43C142.87,66,165.6,54.35,193,44.5c13.7-5,28.58-9.47,44.47-13.54S270.25,23.3,288,20.24A850.24,850.24,0,0,1,403.94,8.75q16.67-.53,33.85-.5V0Q420.51-.12,403.7.3A859.07,859.07,0,0,0,286.48,11.09c-18,3-35.19,6.49-51.37,10.51s-31.39,8.51-45.46,13.49C161.51,45,137.86,56.78,120.23,69.81A118.24,118.24,0,0,0,98.65,89.94,70.4,70.4,0,0,0,87.18,109.3a52.19,52.19,0,0,0-3.34,14c-.21,1.63-.19,2.87-.24,3.71v1.26h11Z"/><path class="cls-1" d="M60.14,113.13a3.93,3.93,0,0,0,4-3.63,3.74,3.74,0,0,0-4-3.46H49.42a3.34,3.34,0,0,1-3.4-4L48.07,89H16a5,5,0,0,0-4.74,4.51l-2.8,16.74c-.48,2.84,1.25,4.53,3.15,4.53,2.16,0,3.56-1.46,3.9-3.65l1.79-10.7a4.64,4.64,0,0,1,4.24-4c2,0,3,1.78,2.59,4l-8.8,51.29a5,5,0,0,1-4.7,4H5.73a4.87,4.87,0,0,0-4.64,4L0,166.34a3.5,3.5,0,0,0,3,4l.44,0a4.17,4.17,0,0,0,3.83-3.63,4.82,4.82,0,0,1,4.68-3.63h3.67a7.09,7.09,0,0,0,6.68-5.54l3.85-20.34a5.06,5.06,0,0,1,4.77-4H42.54a3.34,3.34,0,0,1,3.4,4l-4.45,28.36a4,4,0,0,0,4.07,4.75h7.18c2.22,0,4.44-1,4.44-3.74,0-1.27-1-3.17-4-3.17h0a3.34,3.34,0,0,1-3.4-4l4.41-28.1a4.77,4.77,0,0,0-4.85-5.67h-3a3.34,3.34,0,0,1-3.4-4l1.33-8.48H60.13Z"/><path class="cls-1" d="M38.85,68.43c1.33-1.76,3.18-1.56,4.1.45l5.33,11.63c.92,2-.14,3.66-2.35,3.66h-15c-2.21,0-2.93-1.44-1.59-3.21Z"/></g></g></svg>