<svg xmlns="http://www.w3.org/2000/svg" viewBox="0 0 425.82 186.94"><defs><style>.cls-1{fill:#ff665c;}</style></defs><title>資產 1</title><g id="圖層_2" data-name="圖層 2"><g id="BG"><path class="cls-1" d="M333.17,70a47,47,0,0,1-2.41,8.23,61.82,61.82,0,0,1-8.62,15,93.55,93.55,0,0,1-12,12.87,141.17,141.17,0,0,1-14,11,220.3,220.3,0,0,1-30.94,17.67q-8,3.84-16.3,7.21t-16.62,6.35a533.71,533.71,0,0,1-67.86,18.82c-22.77,4.81-45.52,8.4-68,11a904.65,904.65,0,0,1-96.42,6v2.79a907.82,907.82,0,0,0,96.81-5.29c22.59-2.49,45.47-5.93,68.42-10.61a537.83,537.83,0,0,0,68.56-18.52q8.49-2.93,16.86-6.31T267.24,139A225.1,225.1,0,0,0,299,121.18a146.16,146.16,0,0,0,14.51-11.24,98.68,98.68,0,0,0,12.76-13.49,67.1,67.1,0,0,0,9.49-16.3,50.85,50.85,0,0,0,3.75-18.64H334A47.19,47.19,0,0,1,333.17,70Z"/><path class="cls-1" d="M408.7,72.15a3.61,3.61,0,0,1-3.59-3.59V48.68a3.61,3.61,0,0,1,3.59-3.59h.25a3.61,3.61,0,0,0,3.59-3.59V11a3.49,3.49,0,0,1,3.35-3.59,3.49,3.49,0,0,0,3.35-3.59V3.6A3.61,3.61,0,0,0,415.65,0H408.7a3.61,3.61,0,0,0-3.59,3.59V33.87a3.61,3.61,0,0,1-3.59,3.59H384.9a3.61,3.61,0,0,1-3.59-3.59V3.59A3.61,3.61,0,0,0,377.72,0h-7a3.61,3.61,0,0,0-3.59,3.59v.25a3.49,3.49,0,0,0,3.35,3.59A3.49,3.49,0,0,1,373.88,11V41.48a3.61,3.61,0,0,0,3.59,3.59h.25a3.61,3.61,0,0,1,3.59,3.59V68.54a3.61,3.61,0,0,1-3.59,3.59h-8a3.58,3.58,0,0,0-3.57,3.59h0l.1,16a3.35,3.35,0,0,1-3,3.59,3.35,3.35,0,0,0-3.06,3.56,3.59,3.59,0,0,0,3.59,3.56h6.41a3.61,3.61,0,0,0,3.59-3.59V83.15a3.61,3.61,0,0,1,3.59-3.59h32A3.61,3.61,0,0,1,413,83.15V98.81a3.61,3.61,0,0,0,3.59,3.59h5.68a3.59,3.59,0,0,0,3.59-3.56c0-2-1.22-3.56-2.72-3.56s-2.72-1.62-2.72-3.59v-16a3.61,3.61,0,0,0-3.59-3.59h-8Z"/><path class="cls-1" d="M395.5,99.84c-1.44,2.29-3.73,2.25-5.09-.08L384.13,89c-1.36-2.33-.27-4.24,2.43-4.24h13.51c2.7,0,3.73,1.87,2.3,4.16Z"/></g></g></svg>