<svg xmlns="http://www.w3.org/2000/svg" viewBox="0 0 112.35 119.39"><defs><style>.cls-1{fill:#ff665c;}</style></defs><title>資產 8</title><g id="圖層_2" data-name="圖層 2"><g id="content"><path class="cls-1" d="M86.3,68.75c2.48,1.56,2.44,4.05-.09,5.54L74.53,81.11c-2.53,1.48-4.61.29-4.61-2.64V63.79c0-2.94,2-4.06,4.52-2.49Z"/><path class="cls-1" d="M76.71,119.12a2,2,0,0,1-2-2v-8.79a2,2,0,0,1,3.91,0v8.79A2,2,0,0,1,76.71,119.12Z"/><path class="cls-1" d="M82.14,119.12A2,2,0,0,1,81,115.61l2.84-2.15a2,2,0,1,1,2.36,3.11l-2.84,2.15A2,2,0,0,1,82.14,119.12Z"/><path class="cls-1" d="M71.28,119.12a2,2,0,0,1-1.1-.34L67,116.62a2,2,0,0,1,2.21-3.22l3.14,2.15a2,2,0,0,1-1.11,3.56Z"/><path class="cls-1" d="M51.3,119.12a2,2,0,0,1-2-2v-4.39a2,2,0,1,1,3.91,0v4.39A2,2,0,0,1,51.3,119.12Z"/><path class="cls-1" d="M56.73,119.12a2,2,0,0,1-1.18-3.51l2.84-2.15a2,2,0,1,1,2.36,3.11l-2.84,2.15A2,2,0,0,1,56.73,119.12Z"/><path class="cls-1" d="M45.86,119.12a2,2,0,0,1-1.1-.34l-3.14-2.15a2,2,0,0,1,2.21-3.22L47,115.55a2,2,0,0,1-1.11,3.56Z"/><path class="cls-1" d="M102.13,119.12a2,2,0,0,1-2-2v-4.39a2,2,0,1,1,3.91,0v4.39A2,2,0,0,1,102.13,119.12Z"/><path class="cls-1" d="M107.56,119.12a2,2,0,0,1-1.18-3.51l2.84-2.15a2,2,0,0,1,2.36,3.11l-2.84,2.15A1.94,1.94,0,0,1,107.56,119.12Z"/><path class="cls-1" d="M96.7,119.12a1.94,1.94,0,0,1-1.1-.34l-3.14-2.15a2,2,0,1,1,2.21-3.22l3.14,2.15a2,2,0,0,1-1.11,3.56Z"/><path class="cls-1" d="M76.71,108.25c-4.78,0-8.39-2.38-8.39-5.53s3.61-5.53,8.39-5.53,8.39,2.38,8.39,5.53S81.5,108.25,76.71,108.25Zm0-7.16c-2.89,0-4.48,1.22-4.48,1.63s1.59,1.63,4.48,1.63,4.48-1.22,4.48-1.63S79.61,101.09,76.71,101.09Z"/><path class="cls-1" d="M86,51a18.36,18.36,0,1,1,18.36-18.36A18.39,18.39,0,0,1,86,51Zm0-32.82a14.46,14.46,0,1,0,14.46,14.46A14.48,14.48,0,0,0,86,18.18Z"/><path class="cls-1" d="M43.44,52.47c-2.44,0-3.61,1.82-2.62,4l8,17.77c1,2.22,2.55,4,3.46,4s2.36-1.86,3.24-4.13L62.25,56.6a2.84,2.84,0,0,0-2.84-4.13Z"/><path class="cls-1" d="M59.68,74.19c-.87,2.27-.24,4.13,1.41,4.13s3-2,3-4.43V67.17c0-2.44-.72-2.57-1.59-.29Z"/><path class="cls-1" d="M26.38,82.75a4.44,4.44,0,0,1,4.43-4.43H41.9c2.44,0,3.61-1.82,2.62-4l-8-17.77a7.46,7.46,0,0,0-6.24-4H22.73a4.42,4.42,0,0,0-4.41,4.43L18.59,115A4.47,4.47,0,0,0,23,119.39h6.67a4.26,4.26,0,0,0,4.43-4,4,4,0,0,0-3.88-4,4.19,4.19,0,0,1-3.88-4.43Z"/><path class="cls-1" d="M37.84,82.11v-4H59.65a4.06,4.06,0,1,1,0,8.08H42.26A4.26,4.26,0,0,1,37.84,82.11Z"/><path class="cls-1" d="M69.76,54.42H34.14a2,2,0,0,1-2-2V12.11a2,2,0,0,1,2-2H69.76a2,2,0,0,1,2,2V52.47A2,2,0,0,1,69.76,54.42ZM36.1,50.52H67.81V14.06H36.1Z"/><path class="cls-1" d="M34.14,54.42H2a2,2,0,0,1-2-2V2A2,2,0,0,1,2,0H34.14a2,2,0,0,1,2,2V52.47A2,2,0,0,1,34.14,54.42ZM3.91,50.52H32.19V3.91H3.91Z"/><path class="cls-1" d="M86.35,99.82H83.9A2,2,0,0,1,82,98.24l-.74-3.83a2,2,0,0,1,3.83-.74l.44,2.25h.84a2,2,0,1,1,0,3.91Z"/></g></g></svg>