<svg xmlns="http://www.w3.org/2000/svg" viewBox="0 0 174.67 109.84"><defs><style>.cls-1{fill:#bebebe;}</style></defs><title>資產 2</title><g id="圖層_2" data-name="圖層 2"><g id="content"><path class="cls-1" d="M79,9.72h-.19a2,2,0,0,1-1.76-2.13l.56-5.82a2,2,0,1,1,3.89.37L81,8A2,2,0,0,1,79,9.72Z"/><path class="cls-1" d="M85.57,13a2,2,0,0,1-1.4-3.32l3.15-3.23a2,2,0,1,1,2.8,2.72L87,12.43A2,2,0,0,1,85.57,13Z"/><path class="cls-1" d="M71.72,13a2,2,0,0,1-1.47-.67L67.42,9.12a2,2,0,1,1,2.94-2.57l2.83,3.23A2,2,0,0,1,71.72,13Z"/><path class="cls-1" d="M154.78,69.51c-2.44,0-4.43,1.55-4.43,3.44a3.73,3.73,0,0,1-4,3.44,3.74,3.74,0,0,0-4,3.44,3.59,3.59,0,0,1-3.7,3.44,4.06,4.06,0,0,0,0,8.08c2,0,3.7,2,3.7,4.43v1.55a4.31,4.31,0,0,1-4.15,4.43,4,4,0,1,0,0,8.08h32a4.44,4.44,0,0,0,4.43-4.43V73.94a4.44,4.44,0,0,0-4.43-4.43Z"/><path class="cls-1" d="M105.41,69.44a4.79,4.79,0,0,0,4.82-4,3.8,3.8,0,0,0-4-4H87.26a4,4,0,0,1-4-4.41L84.57,43.3a4,4,0,0,0-4-4.41H59.38a21,21,0,0,0-.67,4.41L53.52,97.35a5,5,0,0,1-4.85,4.41H40.54a4.79,4.79,0,0,0-4.82,4,3.8,3.8,0,0,0,4,4H56a5,5,0,0,0,4.85-4.41L62.4,89.08a5,5,0,0,1,4.85-4.41H83.54a4,4,0,0,1,4,4.41L86,105.43a4,4,0,0,0,4,4.41h6.5a4.79,4.79,0,0,0,4.82-4,3.45,3.45,0,0,0-3.25-4c-2,0-3.45-2-3.22-4.41L96.4,81a4,4,0,0,0-4-4.41H85.8c-2.44,0-4.27-1.61-4.09-3.57s2.34-3.57,4.77-3.57Z"/><path class="cls-1" d="M123.35,109.73h-5.52a2,2,0,0,1-1.74-1.07L112.23,101A2,2,0,0,1,114,98.21h12.89a2,2,0,0,1,1.77,2.77l-3.52,7.62A2,2,0,0,1,123.35,109.73ZM119,105.83h3.07l1.71-3.72h-6.66Z"/><circle class="cls-1" cx="160.14" cy="54.94" r="9.04" transform="translate(56.09 188.49) rotate(-71.01)"/><path class="cls-1" d="M111,57.18l-2.58-5.29c-1.24-2.53-3.72-2.58-5.53-.09L99,57.18Z"/><path class="cls-1" d="M83.26,21H72.43L67,28.41c-1.8,2.48-.87,4.52,2.06,4.52H83.76c2.94,0,4.32-2.07,3.09-4.61Z"/><path class="cls-1" d="M107.76,40.49l-.29,0a2,2,0,0,1-1.64-2.22c1-6.53,0-11.55-2.84-14.9-3.85-4.5-10-4.59-10.09-4.59a2,2,0,0,1,0-3.91h0c.35,0,8,.07,13,5.91,3.66,4.25,4.93,10.33,3.77,18.06A2,2,0,0,1,107.76,40.49Z"/><path class="cls-1" d="M43.71,77.87c-4.82,0-7.38-2.25-9.85-4.42-2.77-2.43-5.63-4.95-12.68-4.95-12.65,0-17.33,8-17.52,8.37A2,2,0,0,1,0,75.73L2.59,48.89a1.94,1.94,0,0,1,.23-.76c.23-.42,5.89-10.38,20.93-10.38,8.59,0,12.42,3.32,15.49,6,2.27,2,3.9,3.39,7,3.39a12.17,12.17,0,0,0,11.52-7,2,2,0,0,1,3.65,1.39A16,16,0,0,1,46.29,51c-4.59,0-7.14-2.21-9.6-4.34-2.85-2.47-5.81-5-12.93-5-11.35,0-16.33,6.55-17.32,8.06l-2,20.45c3.28-2.72,8.65-5.58,16.71-5.58,8.52,0,12.25,3.28,15.26,5.92,2.28,2,3.93,3.45,7.28,3.45a14.83,14.83,0,0,0,13.6-8.37,2,2,0,0,1,3.59,1.53A18.72,18.72,0,0,1,43.71,77.87Z"/></g></g></svg>