<svg xmlns="http://www.w3.org/2000/svg" viewBox="0 0 286.91 104.31"><defs><style>.cls-1{fill:#4eb5ff;}</style></defs><title>Asset 2</title><g id="Layer_2" data-name="Layer 2"><g id="content"><path class="cls-1" d="M28.32,79.76a105.61,105.61,0,0,1-11,14.45L41.23,92.8c-2.06-3-4.25-6-6.31-8.49l6.49-2.83c5.13,5.9,10.5,13.63,13.1,19L47.67,104c-.65-1.47-1.47-3.13-2.48-4.9-29.73,2.36-33.86,2.54-36.81,3.66-.41-1.42-1.59-5-2.42-6.9,1.53-.35,2.77-1.53,4.54-3.54a79.27,79.27,0,0,0,8.91-12.57H2.83V72.68H25.78V64.3H7.32V57.23H25.78V49.08h7.43v8.14h19V64.3h-19v8.38H56.45v7.08Z" transform="translate(-2.83 -0.34)"/><path class="cls-1" d="M80.52,88.84H69.37v5.25H63V54.28H80.52ZM69.37,60.71V82.41h4.72V60.71Zm36.69,36.1c3.13,0,3.72-1.36,4.19-7.43a17.25,17.25,0,0,0,6.31,2.71c-.89,8.26-3,11.21-9.85,11.21H94.38c-7.67,0-10.09-2.12-10.09-10.62v-40h29.79V85.07H107.3V81.65H91.2V92.74c0,3.54.47,4.07,4,4.07ZM91.2,59.11V75.28h4.66V59.11Zm16.11,0h-5.07V75.28h5.07Z" transform="translate(-2.83 -0.34)"/><path class="cls-1" d="M140,93.86a6.14,6.14,0,0,1,12.27,0c0,3.42-2.65,5.78-6.13,5.78S140,97.28,140,93.86Zm1-30.09L140.75,55h10.79l-.29,8.79-2.06,20.17H143.1Z" transform="translate(-2.83 -0.34)"/><path class="cls-1" d="M198.26,64.48a78.18,78.18,0,0,1-6.31,9V104.3h-7V81.23c-1.65,1.59-3.25,3.07-4.84,4.37a69.38,69.38,0,0,0-4.78-6.08,57.46,57.46,0,0,0,16.22-17.64Zm-2.18-12.57a79.27,79.27,0,0,1-16.22,15.52A40.83,40.83,0,0,0,176,61.71a52.5,52.5,0,0,0,13.33-12.56Zm34.69,23.48h-8.08V96.1c0,3.78-.71,5.72-3.3,6.78s-6.25,1.18-11.5,1.18a29.09,29.09,0,0,0-2.12-7.14c3.36.18,7.26.18,8.32.12s1.47-.24,1.47-1.12V75.39h-17.4V68.73h32.62Zm-1.47-16.22H200.62V52.51h28.67Z" transform="translate(-2.83 -0.34)"/><path class="cls-1" d="M289,62.42s-.06,2.3-.06,3.13c-.53,24.13-1,32.68-2.89,35.39a6.57,6.57,0,0,1-4.66,2.95,39.55,39.55,0,0,1-7.31.24,16.41,16.41,0,0,0-2.06-6.72c2.6.24,4.84.29,6,.29a2.14,2.14,0,0,0,2-1c1.24-1.59,1.83-8.79,2.18-27.84h-5.31c-.77,15.81-3.48,28-13.39,35.81a22.9,22.9,0,0,0-4.13-4.66c-8.49.88-17,1.77-23.36,2.3l-.83-5.9c3.3-.24,7.43-.53,12-.83V92H236.77v-5h10.38v-2.3H237V66.55h10.15v-2.3H235.54V59.17h11.62V56.81c-3.42.24-6.78.41-10,.47a21.86,21.86,0,0,0-1.53-5c8.73-.47,18.94-1.48,25.42-2.89l3.07,5.25c-3.13.65-6.79,1.18-10.62,1.59v2.89h11.33v3.25h5.54c.06-3.89.06-8,.06-12.33h6.73c0,4.31,0,8.44-.12,12.33ZM242.56,73.57h4.6V71h-4.6Zm4.6,6.84V77.75h-4.6v2.65ZM253.53,95c3.36-.24,6.84-.53,10.26-.83,4.6-6.37,6-14.81,6.43-25.37h-5.37v-4.6H253.53v2.3H264V84.77H253.53v2.3h10.68v5H253.53Zm4.6-21.47V71h-4.6v2.6Zm-4.6,4.19v2.65h4.6V77.75Z" transform="translate(-2.83 -0.34)"/><path class="cls-1" d="M16.06,6.3h4.81l2.89,20.36H19.14l-.43-4.19h-7.5L8.92,26.66H4.48ZM13.11,19h5.17l-.84-8Z" transform="translate(-2.83 -0.34)"/><path class="cls-1" d="M37.06,17a3,3,0,0,0-.25-1.52,1.89,1.89,0,0,0-1.86-.91,3.5,3.5,0,0,0-3.14,2,9.69,9.69,0,0,0-1,2.79A7.59,7.59,0,0,0,30.65,22a2,2,0,0,0,2.25,1.88A2.85,2.85,0,0,0,35,23.13a4.68,4.68,0,0,0,1.11-1.93h4a8.29,8.29,0,0,1-2,3.4,7.9,7.9,0,0,1-6,2.58q-3.63,0-4.88-2.15a7.73,7.73,0,0,1-.52-5.59,11,11,0,0,1,3.17-6,8.12,8.12,0,0,1,5.68-2.15,6.67,6.67,0,0,1,4.37,1.27q1.53,1.27,1.17,4.49Z" transform="translate(-2.83 -0.34)"/><path class="cls-1" d="M42.78,14.54l.59-2.8h2.1l.9-4.2h3.9l-.9,4.2h2.45l-.59,2.8H48.77l-1.7,8q-.19.93,0,1.15c.13.15.59.23,1.39.23h.38l.41,0-.64,2.94-1.88.07q-2.8.1-3.61-1a2.57,2.57,0,0,1-.22-2.09l2-9.27Z" transform="translate(-2.83 -0.34)"/><path class="cls-1" d="M54.42,11.6h4L55.22,26.66h-4ZM58.8,9.8h-4l.77-3.63h4Z" transform="translate(-2.83 -0.34)"/><path class="cls-1" d="M65.68,27.18q-3.88,0-5.28-2.35a7.64,7.64,0,0,1-.7-5.67,11,11,0,0,1,3.11-5.65,8.57,8.57,0,0,1,6.3-2.39q3.88,0,5.28,2.39a7.7,7.7,0,0,1,.7,5.65A10.94,10.94,0,0,1,72,24.83,8.62,8.62,0,0,1,65.68,27.18Zm5.28-8a5.11,5.11,0,0,0-.19-3.49,2.49,2.49,0,0,0-2.4-1.22,3.9,3.9,0,0,0-2.91,1.22,7,7,0,0,0-1.67,3.49A5.13,5.13,0,0,0,64,22.65a2.49,2.49,0,0,0,2.4,1.23,3.89,3.89,0,0,0,2.92-1.23A7,7,0,0,0,71,19.16Z" transform="translate(-2.83 -0.34)"/><path class="cls-1" d="M92.12,16.52,90,26.66h-4l1.93-9.16a3.8,3.8,0,0,0,.07-1.82q-.33-1.16-2-1.16a3.51,3.51,0,0,0-3.11,1.7A6.74,6.74,0,0,0,82,18.51l-1.73,8.15H76.34l3.19-15h3.8l-.47,2.2a9.13,9.13,0,0,1,1.8-1.67,5.89,5.89,0,0,1,3.27-.91,4.82,4.82,0,0,1,3.56,1.22Q92.71,13.69,92.12,16.52Z" transform="translate(-2.83 -0.34)"/><path class="cls-1" d="M105,11.52l.62-2.94a20.21,20.21,0,0,0,2.92-.27,5.18,5.18,0,0,0,2.36-1.15,4.82,4.82,0,0,0,1.18-1.57,4,4,0,0,0,.36-.88H116l-4.66,21.95h-4.42l3.21-15.14Z" transform="translate(-2.83 -0.34)"/><path class="cls-1" d="M136,.34V30.54H289.74V.34Zm18.29,24.12h-3.43l2.49-11.74h-4l.48-2.28a15.68,15.68,0,0,0,2.27-.21,4,4,0,0,0,1.83-.89,3.72,3.72,0,0,0,.92-1.22,3.14,3.14,0,0,0,.28-.68h2.78Zm18.54-8.35a15.88,15.88,0,0,1-2.7,6.49,6,6,0,0,1-5,2.28q-3.25,0-4.08-2.28t.08-6.49a15.83,15.83,0,0,1,2.69-6.51,6,6,0,0,1,5.05-2.29q3.25,0,4.07,2.29T172.83,16.12ZM177,24.47h-3.56l.74-3.5h3.56Zm16.46-11.65a6.74,6.74,0,0,1-1.83,3.36,15.38,15.38,0,0,1-2.9,2.17l-1.54,1q-1.44.89-2,1.29a5,5,0,0,0-1,.93h7.44L191,24.47H179.37a9.7,9.7,0,0,1,1.49-3.35,12.94,12.94,0,0,1,4.14-3.6,33.82,33.82,0,0,0,3.5-2.37,4.5,4.5,0,0,0,1.56-2.44,2.36,2.36,0,0,0-.21-1.8,1.7,1.7,0,0,0-1.56-.72A2.66,2.66,0,0,0,186,11.33a6.58,6.58,0,0,0-.81,2.09h-3.25a9.9,9.9,0,0,1,1.53-3.51,6.2,6.2,0,0,1,5.29-2.55,5,5,0,0,1,4,1.5A4.38,4.38,0,0,1,193.46,12.82ZM207,19.35h-6.74l.68-3.17h6.74Zm15.42,5.12H219l2.49-11.74h-4l.48-2.28a15.74,15.74,0,0,0,2.27-.21,4,4,0,0,0,1.83-.89A3.78,3.78,0,0,0,223,8.12a3.1,3.1,0,0,0,.28-.68h2.78ZM241,16.12a15.88,15.88,0,0,1-2.7,6.49,6,6,0,0,1-5,2.28q-3.25,0-4.08-2.28t.08-6.49A15.83,15.83,0,0,1,232,9.61,6,6,0,0,1,237,7.32q3.25,0,4.07,2.29T241,16.12Zm4.17,8.35h-3.56l.74-3.5h3.56Zm14,0H247.56A9.7,9.7,0,0,1,249,21.12a12.94,12.94,0,0,1,4.14-3.6,33.82,33.82,0,0,0,3.5-2.37,4.5,4.5,0,0,0,1.56-2.44,2.36,2.36,0,0,0-.21-1.8,1.7,1.7,0,0,0-1.56-.72,2.66,2.66,0,0,0-2.33,1.14,6.58,6.58,0,0,0-.81,2.09h-3.25a9.9,9.9,0,0,1,1.53-3.51,6.2,6.2,0,0,1,5.29-2.55,5,5,0,0,1,4,1.5,4.38,4.38,0,0,1,.75,4,6.74,6.74,0,0,1-1.83,3.36,15.38,15.38,0,0,1-2.9,2.17l-1.54,1q-1.44.89-2,1.29a5,5,0,0,0-1,.93h7.44ZM275,12.82a6.73,6.73,0,0,1-1.83,3.36,15.42,15.42,0,0,1-2.9,2.17l-1.54,1q-1.44.89-2,1.29a4.94,4.94,0,0,0-1,.93h7.43l-.62,2.95H260.93a9.7,9.7,0,0,1,1.49-3.35,13,13,0,0,1,4.15-3.6,33.82,33.82,0,0,0,3.5-2.37,4.51,4.51,0,0,0,1.56-2.44,2.36,2.36,0,0,0-.21-1.8,1.69,1.69,0,0,0-1.56-.72,2.66,2.66,0,0,0-2.32,1.14,6.49,6.49,0,0,0-.81,2.09h-3.25A9.93,9.93,0,0,1,265,9.9a6.2,6.2,0,0,1,5.3-2.55,5,5,0,0,1,4,1.5A4.38,4.38,0,0,1,275,12.82Z" transform="translate(-2.83 -0.34)"/><path class="cls-1" d="M168.24,10.08a2.5,2.5,0,0,0-2.29,1.48,17.86,17.86,0,0,0-1.44,4.56,15.71,15.71,0,0,0-.48,4.49,1.51,1.51,0,0,0,1.64,1.56A2.48,2.48,0,0,0,168,20.61a19.27,19.27,0,0,0,1.43-4.49,16.6,16.6,0,0,0,.5-4.56A1.47,1.47,0,0,0,168.24,10.08Z" transform="translate(-2.83 -0.34)"/><path class="cls-1" d="M236.42,10.08a2.5,2.5,0,0,0-2.29,1.48,17.86,17.86,0,0,0-1.44,4.56,15.71,15.71,0,0,0-.48,4.49,1.51,1.51,0,0,0,1.64,1.56,2.48,2.48,0,0,0,2.29-1.56,19.27,19.27,0,0,0,1.43-4.49,16.6,16.6,0,0,0,.5-4.56A1.47,1.47,0,0,0,236.42,10.08Z" transform="translate(-2.83 -0.34)"/></g></g></svg>