<svg xmlns="http://www.w3.org/2000/svg" viewBox="0 0 176.84 111.89"><defs><style>.cls-1{fill:#ffcd32;}</style></defs><title>資產 11</title><g id="圖層_2" data-name="圖層 2"><g id="content"><path class="cls-1" d="M87.48,57.35a4.19,4.19,0,0,1-4.09-5.1l.38-1.7a4.18,4.18,0,0,1,8.16,1.83l-.38,1.7A4.18,4.18,0,0,1,87.48,57.35Z"/><path class="cls-1" d="M89.5,52.53a8.38,8.38,0,1,1,5.91-2.46A8.43,8.43,0,0,1,89.5,52.53Z"/><path class="cls-1" d="M30.92,27.79c1.61-2.08,3.78-1.81,4.82.61l4.33,10.09c1,2.42-.26,4.4-2.9,4.4H24c-2.63,0-3.47-1.7-1.86-3.79Z"/><path class="cls-1" d="M59.75,41.56a3.76,3.76,0,0,0-3.82,3.34c-.11,1.84-2,3.34-4.16,3.34H22.66a4.27,4.27,0,0,0-4.2,4l-2.78,48.47a4.27,4.27,0,0,1-4.2,4H4.19A4.1,4.1,0,0,0,0,108.27a3.57,3.57,0,0,0,3.76,3.62H18.31a4.27,4.27,0,0,0,4.2-4l.84-14.65a4.27,4.27,0,0,1,4.2-4H42.16a3.72,3.72,0,0,1,3.75,4l-.42,7.4L45,108.27a3.57,3.57,0,0,0,3.76,3.62h5.83a4.1,4.1,0,0,0,4.18-3.62,3.24,3.24,0,0,0-3.06-3.62c-1.8,0-3.16-1.78-3-4L53.57,86c.13-2.18.22-4,.22-4H43.25a3.24,3.24,0,0,1-3.1-3.59,4.08,4.08,0,0,1,4.18-3.59h5.89a4.27,4.27,0,0,0,4.2-4l.34-6a3.57,3.57,0,0,0-3.4-4,3.76,3.76,0,0,0-3.82,3.34,3.57,3.57,0,0,1-3.49,3.34c-1.81,0-3.19-1.78-3.07-4l.24-4.22a4.27,4.27,0,0,1,4.2-4H58.6a4.27,4.27,0,0,0,4.2-4l.34-6A3.57,3.57,0,0,0,59.75,41.56Z"/><path class="cls-1" d="M145.93,27.79c-1.61-2.08-3.78-1.81-4.82.61l-4.33,10.09c-1,2.42.26,4.4,2.9,4.4h13.16c2.63,0,3.47-1.7,1.86-3.79Z"/><path class="cls-1" d="M117.09,41.56a3.76,3.76,0,0,1,3.82,3.34c.11,1.84,2,3.34,4.16,3.34h29.11a4.27,4.27,0,0,1,4.2,4l2.78,48.47a4.27,4.27,0,0,0,4.2,4h7.29a4.1,4.1,0,0,1,4.18,3.62,3.57,3.57,0,0,1-3.76,3.62H158.54a4.27,4.27,0,0,1-4.2-4l-.84-14.65a4.27,4.27,0,0,0-4.2-4H134.68a3.72,3.72,0,0,0-3.75,4l.42,7.4.44,7.59a3.57,3.57,0,0,1-3.76,3.62H122.2a4.1,4.1,0,0,1-4.18-3.62,3.24,3.24,0,0,1,3.06-3.62c1.8,0,3.16-1.78,3-4L123.27,86c-.13-2.18-.22-4-.22-4H133.6a3.24,3.24,0,0,0,3.1-3.59,4.08,4.08,0,0,0-4.18-3.59h-5.89a4.27,4.27,0,0,1-4.2-4l-.34-6a3.57,3.57,0,0,1,3.4-4,3.76,3.76,0,0,1,3.82,3.34,3.57,3.57,0,0,0,3.49,3.34c1.81,0,3.19-1.78,3.07-4l-.24-4.22a4.27,4.27,0,0,0-4.2-4H118.24a4.27,4.27,0,0,1-4.2-4l-.34-6A3.57,3.57,0,0,1,117.09,41.56Z"/><path class="cls-1" d="M77.36,24.73a2.8,2.8,0,0,1-2.51-1.55L72,17.57a2.8,2.8,0,1,1,5-2.51l2.8,5.61a2.8,2.8,0,0,1-2.51,4.06Z"/><path class="cls-1" d="M92.42,71.92a2.8,2.8,0,0,1-2.77-2.39l-.51-3.45a2.8,2.8,0,0,1,5.54-.82l.51,3.45a2.8,2.8,0,0,1-2.36,3.18A2.77,2.77,0,0,1,92.42,71.92Z"/><path class="cls-1" d="M103.69,30.49a2.8,2.8,0,0,1-2.37-4.3l2.6-4.12a2.8,2.8,0,1,1,4.74,3l-2.6,4.12A2.8,2.8,0,0,1,103.69,30.49Z"/><path class="cls-1" d="M72.38,46.29a2.8,2.8,0,0,1-2-4.78,2.88,2.88,0,0,1,4,0,2.8,2.8,0,0,1-2,4.78Z"/><path class="cls-1" d="M92.61,19.81l-.37,0a3.15,3.15,0,0,1-2.77-3.5L91,2.79a3.15,3.15,0,1,1,6.26.73L95.74,17A3.15,3.15,0,0,1,92.61,19.81Z"/><path class="cls-1" d="M108.43,84a3.15,3.15,0,0,1-2.95-2l-3.33-8.68A3.15,3.15,0,1,1,108,71l3.33,8.68A3.16,3.16,0,0,1,108.43,84Z"/><path class="cls-1" d="M70.81,95.63a3.16,3.16,0,0,1-2.95-4.27l6-15.75a3.15,3.15,0,1,1,5.9,2.23l-6,15.75A3.16,3.16,0,0,1,70.81,95.63Z"/><path class="cls-1" d="M95.57,41.55a2.8,2.8,0,0,1-2.26-4.45l1-1.41A2.8,2.8,0,0,1,98.87,39l-1,1.41A2.8,2.8,0,0,1,95.57,41.55Z"/><path class="cls-1" d="M102.51,55.4a2.81,2.81,0,0,1-2-.82,2.82,2.82,0,0,1,0-4,2.9,2.9,0,0,1,4,0,2.82,2.82,0,0,1,0,4A2.81,2.81,0,0,1,102.51,55.4Z"/></g></g></svg>