<svg xmlns="http://www.w3.org/2000/svg" viewBox="0 0 62.96 108.22"><defs><style>.cls-1{fill:#4eb5ff;}</style></defs><title>資產 10</title><g id="圖層_2" data-name="圖層 2"><g id="content"><path class="cls-1" d="M56.85,54.22a3.72,3.72,0,0,0,3.81-3.43,3.54,3.54,0,0,0-3.76-3.27H46.71a3.16,3.16,0,0,1-3.21-3.76L45.44,31.4H15.09a4.77,4.77,0,0,0-4.48,4.26L8,51.49c-.45,2.68,1.18,4.28,3,4.28a3.67,3.67,0,0,0,3.69-3.45l1.71-10.13a4.39,4.39,0,0,1,4-3.76c1.88,0,2.8,1.69,2.45,3.75L14.48,90.68A4.68,4.68,0,0,1,10,94.42H5.42A4.6,4.6,0,0,0,1,98.18l-1,6.29a3.31,3.31,0,0,0,3.22,3.76,3.94,3.94,0,0,0,3.62-3.43,4.56,4.56,0,0,1,4.43-3.43h3.47a6.7,6.7,0,0,0,6.32-5.24l3.64-19.23a4.78,4.78,0,0,1,4.51-3.74h11a3.16,3.16,0,0,1,3.21,3.76l-4.21,26.81a3.78,3.78,0,0,0,3.84,4.49h6.79c2.1,0,4.2-1,4.2-3.53,0-1.2-1-3-3.79-3h0a3.16,3.16,0,0,1-3.21-3.76l4.17-26.57A4.51,4.51,0,0,0,46.64,66H43.81a3.16,3.16,0,0,1-3.21-3.76l1.26-8Z"/><path class="cls-1" d="M36.72,12c1.26-1.67,3-1.48,3.87.43l5,11c.87,1.9-.13,3.46-2.22,3.46H29.25c-2.09,0-2.77-1.36-1.51-3Z"/><path class="cls-1" d="M46.07,10.37a2,2,0,0,1-1.59-3.25L49.44.78a2,2,0,1,1,3.17,2.47L47.66,9.6A2,2,0,0,1,46.07,10.37Z"/><path class="cls-1" d="M49.84,17.43A2,2,0,0,1,49,13.6l8.37-4a2,2,0,0,1,1.72,3.64l-8.37,4A2,2,0,0,1,49.84,17.43Z"/><path class="cls-1" d="M60.94,25H52.46a2,2,0,0,1,0-4h8.48a2,2,0,1,1,0,4Z"/></g></g></svg>