<svg xmlns="http://www.w3.org/2000/svg" viewBox="0 0 174.95 125.69"><defs><style>.cls-1{fill:#ff665c;}</style></defs><title>資產 12</title><g id="圖層_2" data-name="圖層 2"><g id="content"><path class="cls-1" d="M169.1,73.9a3.57,3.57,0,0,0,3.66-3.29,3.39,3.39,0,0,0-3.61-3.14h-9.78a3,3,0,0,1-3.08-3.6L158.15,52h-29.1a4.57,4.57,0,0,0-4.29,4.09l-2.54,15.18c-.44,2.57,1.13,4.11,2.86,4.11a3.52,3.52,0,0,0,3.54-3.31l1.64-9.72a4.21,4.21,0,0,1,3.84-3.6c1.8,0,2.69,1.62,2.35,3.59l-8,46.5a4.49,4.49,0,0,1-4.26,3.59h-4.42a4.42,4.42,0,0,0-4.21,3.6l-1,6a3.18,3.18,0,0,0,3.09,3.6,3.78,3.78,0,0,0,3.47-3.29,4.37,4.37,0,0,1,4.25-3.29h3.33a6.43,6.43,0,0,0,6.06-5l3.49-18.45a4.59,4.59,0,0,1,4.32-3.58h10.54a3,3,0,0,1,3.08,3.6l-4,25.71a3.62,3.62,0,0,0,3.69,4.31h6.51c2,0,4-.93,4-3.39,0-1.16-.92-2.87-3.64-2.87h0a3,3,0,0,1-3.08-3.6l4-25.48a4.32,4.32,0,0,0-4.4-5.14h-2.72a3,3,0,0,1-3.08-3.6l1.21-7.69Z"/><path class="cls-1" d="M149.79,33.37c1.21-1.6,2.88-1.41,3.71.41l4.82,10.55a2.17,2.17,0,0,1-2.13,3.32H142.63c-2,0-2.66-1.31-1.45-2.91Z"/><path class="cls-1" d="M158.76,31.85a1.93,1.93,0,0,1-1.52-3.12L162,22.65A1.93,1.93,0,1,1,165,25l-4.75,6.09A1.93,1.93,0,0,1,158.76,31.85Z"/><path class="cls-1" d="M162.37,38.62a1.93,1.93,0,0,1-.83-3.67l8-3.8a1.93,1.93,0,0,1,1.65,3.49l-8,3.8A1.92,1.92,0,0,1,162.37,38.62Z"/><path class="cls-1" d="M173,45.84h-8.13a1.93,1.93,0,1,1,0-3.86H173a1.93,1.93,0,1,1,0,3.86Z"/><path class="cls-1" d="M46.92,31.85a1.93,1.93,0,0,1-1.52-3.12l4.75-6.09a1.93,1.93,0,1,1,3,2.37l-4.75,6.09A1.93,1.93,0,0,1,46.92,31.85Z"/><path class="cls-1" d="M50.53,38.62a1.93,1.93,0,0,1-.83-3.67l8-3.8a1.93,1.93,0,0,1,1.65,3.49l-8,3.8A1.92,1.92,0,0,1,50.53,38.62Z"/><path class="cls-1" d="M61.18,45.84H53A1.93,1.93,0,1,1,53,42h8.13a1.93,1.93,0,0,1,0,3.86Z"/><path class="cls-1" d="M36.24,33.37c1.21-1.6,2.88-1.41,3.71.41l4.82,10.55a2.17,2.17,0,0,1-2.13,3.32H29.09c-2,0-2.66-1.31-1.45-2.91Z"/><path class="cls-1" d="M38.9,91s.27-1.62.57-3.61l.4-2.67a4.38,4.38,0,0,1,4.19-3.61h5.79A4.29,4.29,0,0,0,54,77.69a3,3,0,0,0-3.13-3.44H45.09a3.05,3.05,0,0,1-3.1-3.6L44.79,52H19.32a4.26,4.26,0,0,0-4,3.61L13.07,70.69A3,3,0,0,0,16,74.29a3,3,0,0,1,2.9,3.61l-.37,2.45-1.07,7.13-1.07,7.13-.47,3.15a4.26,4.26,0,0,1-4,3.61H5a4.16,4.16,0,0,0-4,3.44l-1,6.79A2.86,2.86,0,0,0,3,115a4.1,4.1,0,0,0,3.95-3.35,4.23,4.23,0,0,1,4.15-3.35h6.48a4.28,4.28,0,0,0,4.16-3.44l1.06-7,.47-3.15A4.38,4.38,0,0,1,27.43,91h.91a3.05,3.05,0,0,1,3.1,3.61L28.35,115.2l-1.06,7a3,3,0,0,0,3.13,3.44h5.79a4.28,4.28,0,0,0,4.16-3.44,2.77,2.77,0,0,0-2.58-3.44c-1.71,0-2.86-1.62-2.56-3.61l3.09-20.58C38.63,92.64,38.89,91,38.9,91Z"/><path class="cls-1" d="M101.09,31.85a1.93,1.93,0,0,1-1.52-3.12l4.75-6.09a1.93,1.93,0,1,1,3,2.37l-4.75,6.09A1.93,1.93,0,0,1,101.09,31.85Z"/><path class="cls-1" d="M104.7,38.62a1.93,1.93,0,0,1-.83-3.67l5.49-2.6A1.93,1.93,0,0,1,111,35.83l-5.49,2.6A1.92,1.92,0,0,1,104.7,38.62Z"/><path class="cls-1" d="M115.35,45.84h-8.13a1.93,1.93,0,1,1,0-3.86h8.13a1.93,1.93,0,1,1,0,3.86Z"/><path class="cls-1" d="M90.33,33.37c1.21-1.6,2.88-1.41,3.71.41l4.82,10.55a2.17,2.17,0,0,1-2.13,3.32H83.17c-2,0-2.66-1.31-1.45-2.91Z"/><path class="cls-1" d="M116.07,55.46l1.06-7,1.23-8.18a3,3,0,0,0-2.9-3.61,4.26,4.26,0,0,0-4,3.61l-1.23,8.18A4.38,4.38,0,0,1,106.06,52H66.44a4.29,4.29,0,0,0-4.16,3.44l-1.06,7L60,70.69a3,3,0,0,0,2.9,3.61,4.26,4.26,0,0,0,4-3.61l1.23-8.18a4.26,4.26,0,0,1,4-3.61A3,3,0,0,1,75,62.5L71.24,87.41A3.05,3.05,0,0,0,74.35,91h.52A3.05,3.05,0,0,1,78,94.62L75.9,108.4a4.26,4.26,0,0,1-4,3.61H65a4.16,4.16,0,0,0-4,3.44l-1,6.79A2.86,2.86,0,0,0,63,125.6a4.1,4.1,0,0,0,3.95-3.35,4.23,4.23,0,0,1,4.15-3.35h6.48a4.28,4.28,0,0,0,4.16-3.44l1.06-7,2.07-13.78A18,18,0,0,1,85.59,91H96.14A3,3,0,0,1,99,94.62l-.49,3.24L98,101.55,97.46,105a3,3,0,0,0,3.14,3.35h5.79a4.28,4.28,0,0,0,4.16-3.44,2.77,2.77,0,0,0-2.58-3.44c-1.71,0-2.86-1.62-2.56-3.61l.49-3.24,1.06-7A2.9,2.9,0,0,0,104,84.13H97.18a3,3,0,0,1-2.87-3.61l2.71-18a4.38,4.38,0,0,1,4.19-3.61h14.35l.52-3.44Z"/><line class="cls-1" x1="117.28" y1="27.46" x2="120.88" y2="3.61"/><path class="cls-1" d="M117.28,30.21a2.78,2.78,0,0,1-.41,0,2.75,2.75,0,0,1-2.31-3.13l3.6-23.85a2.75,2.75,0,1,1,5.43.82L120,27.87A2.75,2.75,0,0,1,117.28,30.21Z"/><polygon class="cls-1" points="122.3 12.59 70.37 12.59 72.28 0 124.2 0 122.3 12.59"/></g></g></svg>