<svg xmlns="http://www.w3.org/2000/svg" viewBox="0 0 287.86 103.9"><defs><style>.cls-1{fill:#fff;}</style></defs><title>Asset 1</title><g id="Layer_2" data-name="Layer 2"><g id="content"><path class="cls-1" d="M16.07,6.3h4.81l2.89,20.36H19.15l-.43-4.19h-7.5L8.92,26.66H4.48ZM13.11,19h5.17l-.84-8Z" transform="translate(-1.71 -0.34)"/><path class="cls-1" d="M37.06,17a3,3,0,0,0-.25-1.52,1.89,1.89,0,0,0-1.86-.91,3.5,3.5,0,0,0-3.14,2,9.69,9.69,0,0,0-1,2.79A7.59,7.59,0,0,0,30.65,22a2,2,0,0,0,2.25,1.88A2.85,2.85,0,0,0,35,23.13a4.68,4.68,0,0,0,1.11-1.93h4a8.29,8.29,0,0,1-2,3.4,7.9,7.9,0,0,1-6,2.58q-3.63,0-4.88-2.15a7.73,7.73,0,0,1-.52-5.59,11,11,0,0,1,3.17-6,8.12,8.12,0,0,1,5.68-2.15,6.67,6.67,0,0,1,4.37,1.27q1.53,1.27,1.17,4.49Z" transform="translate(-1.71 -0.34)"/><path class="cls-1" d="M42.78,14.54l.59-2.8h2.1l.9-4.2h3.9l-.9,4.2h2.45l-.59,2.8H48.77l-1.7,8q-.19.93,0,1.15c.13.15.59.23,1.39.23h.38l.41,0-.64,2.94-1.88.07q-2.8.1-3.61-1a2.57,2.57,0,0,1-.22-2.09l2-9.27Z" transform="translate(-1.71 -0.34)"/><path class="cls-1" d="M54.42,11.6h4L55.22,26.66h-4ZM58.8,9.8h-4l.77-3.63h4Z" transform="translate(-1.71 -0.34)"/><path class="cls-1" d="M65.68,27.18q-3.88,0-5.28-2.35a7.64,7.64,0,0,1-.7-5.67,11,11,0,0,1,3.11-5.65,8.57,8.57,0,0,1,6.3-2.39q3.88,0,5.28,2.39a7.7,7.7,0,0,1,.7,5.65A10.94,10.94,0,0,1,72,24.83,8.62,8.62,0,0,1,65.68,27.18Zm5.28-8a5.11,5.11,0,0,0-.19-3.49,2.49,2.49,0,0,0-2.4-1.22,3.9,3.9,0,0,0-2.91,1.22,7,7,0,0,0-1.67,3.49A5.13,5.13,0,0,0,64,22.65a2.49,2.49,0,0,0,2.4,1.23,3.89,3.89,0,0,0,2.92-1.23A7,7,0,0,0,71,19.16Z" transform="translate(-1.71 -0.34)"/><path class="cls-1" d="M92.12,16.52,90,26.66h-4l1.93-9.16a3.8,3.8,0,0,0,.07-1.82q-.33-1.16-2-1.16a3.51,3.51,0,0,0-3.11,1.7A6.74,6.74,0,0,0,82,18.51l-1.73,8.15H76.34l3.19-15h3.8l-.47,2.2a9.13,9.13,0,0,1,1.8-1.67,5.89,5.89,0,0,1,3.27-.91,4.82,4.82,0,0,1,3.56,1.22Q92.71,13.69,92.12,16.52Z" transform="translate(-1.71 -0.34)"/><path class="cls-1" d="M118,15.89a20.43,20.43,0,0,1-3.47,8.37A7.79,7.79,0,0,1,108,27.2q-4.19,0-5.26-2.94t.1-8.37a20.39,20.39,0,0,1,3.47-8.39,7.8,7.8,0,0,1,6.51-3q4.19,0,5.25,3T118,15.89Zm-9.23,7.79a3.19,3.19,0,0,0,2.94-2,24.77,24.77,0,0,0,1.84-5.79A21.44,21.44,0,0,0,114.2,10a1.89,1.89,0,0,0-2.11-1.91,3.22,3.22,0,0,0-3,1.91,23,23,0,0,0-1.86,5.87,20.24,20.24,0,0,0-.62,5.79A1.94,1.94,0,0,0,108.77,23.69Z" transform="translate(-1.71 -0.34)"/><path class="cls-1" d="M50.91,83.89A80.74,80.74,0,0,0,43.3,77a24.74,24.74,0,0,1-4,5.07,32.73,32.73,0,0,0-4.6-3A51.6,51.6,0,0,0,57.28,95.57,32.24,32.24,0,0,0,52.09,102,56.7,56.7,0,0,1,33,87.07v17.17H25.6V87.43A56.91,56.91,0,0,1,6.67,102a43.25,43.25,0,0,0-5-6c9.56-3.72,18.76-11,23.89-19V63.36H4.13v-6.9H25.6V49.2H33v7.26H55.22v6.9H33V76.57c.29.47.59.88.88,1.36,3.78-3.36,6.25-8.61,7.43-14.22L48.14,65a52.49,52.49,0,0,1-1.95,6.31c3.36,2.6,7.43,5.72,9.62,7.73ZM20.53,65a57.52,57.52,0,0,1-2.12,6.37c2.12,1.83,4.37,3.78,5.72,5.19l-4.72,4.9a47.74,47.74,0,0,0-4-4.13,31.65,31.65,0,0,1-6.78,8.08,42,42,0,0,0-5.43-4.6C8.44,77.11,12,70.91,13.69,63.71Z" transform="translate(-1.71 -0.34)"/><path class="cls-1" d="M80.52,88.84H69.37v5.25H63V54.28H80.52ZM69.37,60.71V82.41h4.72V60.71Zm36.69,36.1c3.13,0,3.72-1.36,4.19-7.43a17.24,17.24,0,0,0,6.31,2.71c-.89,8.26-3,11.21-9.85,11.21H94.38c-7.67,0-10.09-2.12-10.09-10.62v-40h29.79V85.07H107.3V81.65H91.2V92.74c0,3.54.47,4.07,4,4.07ZM91.2,59.11V75.28h4.66V59.11Zm16.1,0h-5.07V75.28h5.07Z" transform="translate(-1.71 -0.34)"/><path class="cls-1" d="M140,93.86a6.14,6.14,0,0,1,12.27,0c0,3.42-2.65,5.78-6.13,5.78S140,97.28,140,93.86Zm1-30.08L140.75,55h10.79l-.29,8.79-2.06,20.17H143.1Z" transform="translate(-1.71 -0.34)"/><path class="cls-1" d="M189.11,82.3V96c0,3.24-.53,5-2.3,6s-4.37,1.42-8.14,1.36A23.06,23.06,0,0,0,176.84,97c2.18.06,4.19.06,4.9,0s1-.24,1-1V84.18c-1.95.53-3.72,1.06-5.43,1.53l-1.59-6.78c2-.41,4.37-1.06,7-1.71V66.78h-6.37V60.29h6.37V49.14h6.37V60.29H195v6.49h-5.9v8.73l5.31-1.42.94,6.31ZM216,97.16c1.36.12,2.66.18,4.13.18,2,0,9.32,0,11.86-.06a20.71,20.71,0,0,0-1.89,6.13H219.79c-7.73,0-13.69-1.42-17.7-8.55a26.08,26.08,0,0,1-6.19,9.26,36.06,36.06,0,0,0-5.13-4.19c4.9-3.89,7.31-10.44,8.2-18.46l6.37.77a53.44,53.44,0,0,1-1.12,6,13.24,13.24,0,0,0,5.13,6.9V79.7H195.49V74h34.86V79.7H216v5.19h11.27v5.49H216ZM227.4,71.32h-29V51h29Zm-6.72-15.46H204.81v3h15.87Zm0,7.49H204.81v3h15.87Z" transform="translate(-1.71 -0.34)"/><path class="cls-1" d="M289.57,91H275.95a84.79,84.79,0,0,1,13.27,8l-5.49,4.9c-3.13-2.83-9.73-6.9-14.87-9.56l4-3.36h-6.78v13.21h-7V91h-9.91l6.9,2.3c-3.42,4-9.2,7.67-14.22,9.91a51.11,51.11,0,0,0-5.9-4.66c5-1.65,10.26-4.48,13-7.55H236.07V85.25h23V81.18h7v4.07h23.48Zm-7.26-7.2a127.72,127.72,0,0,0-16.75-5.07c-6.61,2.71-15.4,4-27,4.6a19.19,19.19,0,0,0-2.42-5.78,123.54,123.54,0,0,0,17.34-1.47c-3.3-.65-6.61-1.24-10.09-1.77a62.45,62.45,0,0,0,4.9-4.84H236.54V64h16.58a61.64,61.64,0,0,0,3.72-5.13H244v3.24h-6.49v-9h20.94q-.62-1.33-1.24-2.48l7.43-1.47a41.11,41.11,0,0,1,2.3,4H288v9h-6.78V58.88H259.61l4.25,1.3c-.94,1.24-1.89,2.54-3,3.83h11.39a32.77,32.77,0,0,0,1.42-3.6l6.84,1.36c-.24.77-.53,1.53-.83,2.24h9.26V69.5h-12a22.12,22.12,0,0,1-4.48,5.07c6.37,1.53,12.15,3.19,16.58,4.72ZM255.71,69.5A17.51,17.51,0,0,1,254.24,71c3.24.53,6.55,1.18,9.67,1.83a20,20,0,0,0,4.54-3.3Z" transform="translate(-1.71 -0.34)"/><polygon class="cls-1" points="178.43 16.42 170.47 16.42 169.69 20.16 177.65 20.16 178.43 16.42"/><polygon class="cls-1" points="202.41 9.34 200.15 9.34 199.58 12.03 201.84 12.03 202.41 9.34"/><polygon class="cls-1" points="151.76 13.27 148.88 13.27 148.62 14.52 151.5 14.52 151.76 13.27"/><polygon class="cls-1" points="179.75 10.14 171.79 10.14 171.06 13.65 179.01 13.65 179.75 10.14"/><path class="cls-1" d="M238.49,9.84a2.77,2.77,0,0,0-1.57.48,3.84,3.84,0,0,0-1.5,2.55,3.16,3.16,0,0,0,.13,2.27,1.86,1.86,0,0,0,1.74.76,2.76,2.76,0,0,0,1.39-.4A3.58,3.58,0,0,0,240.34,13a3.19,3.19,0,0,0-.19-2.29A1.77,1.77,0,0,0,238.49,9.84Z" transform="translate(-1.71 -0.34)"/><polygon class="cls-1" points="152.52 9.66 149.64 9.66 149.4 10.82 152.28 10.82 152.52 9.66"/><path class="cls-1" d="M134.71.34V30.54H288.28V.34Zm17,22.14c-4.59,1.29-5.52,1.63-6.2,2a8.57,8.57,0,0,0-.45-2.88,2,2,0,0,0,1.23-1.38L149,7.53h8.54l-2.07,9.8h-5.68l-.69,3.28,2-.5c-.14-.5-.3-1-.45-1.4l2.67-1.19a28.13,28.13,0,0,1,1.56,5.08L152,24A10.83,10.83,0,0,0,151.75,22.48Zm11.33-3.7a3,3,0,0,1-1.38,2.36,5.61,5.61,0,0,1-2.84.48,8.33,8.33,0,0,0-.18-2.63A10.8,10.8,0,0,0,160,19c.21,0,.3-.06.35-.29l1.79-8.5h-1.65l-3.07,14.6h-2.8l3.61-17.15h7.19Zm18.42,5.81h-3l.27-1.27h-8l-.27,1.27h-2.88l3.56-16.92h13.85ZM204,24.34h-7.48c-3.32,0-5.5-.4-6.63-2.32a18.7,18.7,0,0,1-1.44,3.11,14.42,14.42,0,0,0-2.1-1.15c1.28-2,2.15-5.22,2.86-8.48l2.49.19c-.19.81-.38,1.61-.6,2.4a5.45,5.45,0,0,0,.36,1.38l1-4.85h-3.59l.51-2.44h3l.3-1.42h-2.47l.51-2.4h2.47l.36-1.69h2.61l-.36,1.69h2.44l-.5,2.4h-2.44l-.3,1.42H198l-.51,2.44H195l-.34,1.63h2.24l-.5,2.4h-2.24l-.57,2.71a13,13,0,0,0,3.48.33c1.76,0,6.46,0,8.54-.1A12.18,12.18,0,0,0,204,24.34Zm-3.16-5.83h2c.67,0,.89-.42,1.42-2.38a5.86,5.86,0,0,0,2.19,1.06C205.49,20,204.57,21,202.5,21h-2.61c-2.36,0-3-.75-2.36-3.55l2.15-10.21h7.61l-1.58,7.52h-4.93l-.57,2.69C200,18.39,200.09,18.51,200.82,18.51Zm21.75.59h-6.74l.68-3.17h6.74Zm20.69-3.48a17.17,17.17,0,0,1-1.88,5.16q-2.34,3.93-6.35,3.93a4.67,4.67,0,0,1-3.2-1.13,3.62,3.62,0,0,1-1.05-3.31h3.33A1.48,1.48,0,0,0,235.76,22a3.11,3.11,0,0,0,2.71-1.83,12.18,12.18,0,0,0,1.09-2.95A4.74,4.74,0,0,1,236,18.63a4.27,4.27,0,0,1-3.31-1.4,4.36,4.36,0,0,1-.72-4,7.91,7.91,0,0,1,2.52-4.43A6.58,6.58,0,0,1,238.93,7q3.89,0,4.6,3.44A12.81,12.81,0,0,1,243.27,15.62Zm4.06,8.6h-3.56l.74-3.5h3.56Zm14,0H249.7a9.7,9.7,0,0,1,1.49-3.35,13,13,0,0,1,4.15-3.6,33.82,33.82,0,0,0,3.5-2.37,4.51,4.51,0,0,0,1.56-2.44,2.36,2.36,0,0,0-.21-1.8,1.7,1.7,0,0,0-1.56-.72,2.66,2.66,0,0,0-2.33,1.14,6.53,6.53,0,0,0-.81,2.09h-3.25a9.92,9.92,0,0,1,1.53-3.51,6.2,6.2,0,0,1,5.3-2.55,5,5,0,0,1,4,1.5,4.38,4.38,0,0,1,.75,4A6.73,6.73,0,0,1,262,15.93a15.4,15.4,0,0,1-2.9,2.17l-1.54,1q-1.44.89-2,1.29a5,5,0,0,0-1,.93H262Zm15.81-11.65a6.73,6.73,0,0,1-1.83,3.36,15.4,15.4,0,0,1-2.9,2.17l-1.54,1q-1.44.89-2,1.29a5,5,0,0,0-1,.93h7.43l-.62,2.95H263.08a9.7,9.7,0,0,1,1.49-3.35,13,13,0,0,1,4.15-3.6,33.82,33.82,0,0,0,3.5-2.37,4.51,4.51,0,0,0,1.56-2.44,2.36,2.36,0,0,0-.21-1.8A1.7,1.7,0,0,0,272,9.94a2.66,2.66,0,0,0-2.33,1.14,6.53,6.53,0,0,0-.81,2.09h-3.25a9.92,9.92,0,0,1,1.53-3.51,6.2,6.2,0,0,1,5.3-2.55,5,5,0,0,1,4,1.5A4.38,4.38,0,0,1,277.17,12.57Z" transform="translate(-1.71 -0.34)"/></g></g></svg>