<svg xmlns="http://www.w3.org/2000/svg" viewBox="0 0 52.13 134.44"><defs><style>.cls-1{fill:#bebebe;}</style></defs><title>資產 6</title><g id="圖層_2" data-name="圖層 2"><g id="content"><path class="cls-1" d="M41.41,58H3.92A3.77,3.77,0,0,0,0,61.54V80.17a3.77,3.77,0,0,0,3.57,3.92,3.77,3.77,0,0,0,3.57-3.92V69a3.84,3.84,0,0,1,3.74-3.92A3.84,3.84,0,0,1,14.63,69v54.35c0,2.15-1.45,3.92-3.22,3.92a3.42,3.42,0,0,0-3.22,3.57,3.77,3.77,0,0,0,3.92,3.57h5.75a3.77,3.77,0,0,0,3.92-3.57v-28.5a3.93,3.93,0,0,1,3.92-3.92h.74a3.93,3.93,0,0,1,3.92,3.92v28.5a3.77,3.77,0,0,0,3.92,3.57H40a3.77,3.77,0,0,0,3.92-3.57,3.42,3.42,0,0,0-3.22-3.57c-1.77,0-3.22-1.76-3.22-3.92V69A3.75,3.75,0,1,1,45,69V80.17a3.59,3.59,0,1,0,7.15,0V61.54A3.77,3.77,0,0,0,48.21,58Z"/><path class="cls-1" d="M23.87,38.62c1.38-2.2,3.59-2.16,4.9.08L34.8,49c1.31,2.24.26,4.08-2.34,4.08h-13c-2.6,0-3.59-1.8-2.21-4Z"/><path class="cls-1" d="M26.06,30.15a2.91,2.91,0,0,1-2.91-2.91V26A2.91,2.91,0,1,1,29,26v1.21A2.91,2.91,0,0,1,26.06,30.15Z"/><path class="cls-1" d="M26.07,26.64a5.81,5.81,0,1,1,4.1-1.7A5.85,5.85,0,0,1,26.07,26.64Z"/><path class="cls-1" d="M26,9.85A2.07,2.07,0,0,1,23.9,7.78V2.07a2.07,2.07,0,0,1,4.15,0v5.7A2.07,2.07,0,0,1,26,9.85Z"/><path class="cls-1" d="M18.26,13.73a2.07,2.07,0,0,1-1.43-.57L13.53,10a2.07,2.07,0,0,1,2.86-3l3.3,3.15a2.07,2.07,0,0,1-1.43,3.57Z"/><path class="cls-1" d="M33.69,13.73a2.07,2.07,0,0,1-1.43-3.57L35.56,7a2.07,2.07,0,1,1,2.86,3l-3.3,3.15A2.07,2.07,0,0,1,33.69,13.73Z"/></g></g></svg>