<svg xmlns="http://www.w3.org/2000/svg" viewBox="0 0 286.28 104.25"><defs><style>.cls-1{fill:#ff665c;}</style></defs><title>Asset 4</title><g id="Layer_2" data-name="Layer 2"><g id="content"><path class="cls-1" d="M53.86,76.83V97.47H46.19v-2.3h-13v9.08H25.54V95.17H12.86v2.36H5.54V76.83h20V73.29H8V55.77H25.54V49.22h7.61v6.55H51.26V73.29H33.15v3.54ZM25.54,88.92V83.2H12.86v5.72Zm0-21.77V61.84H15.22v5.31Zm7.61-5.31v5.31H43.59V61.84Zm13,27.08V83.2h-13v5.72Z" transform="translate(-4.47 -0.36)"/><path class="cls-1" d="M80.52,88.86H69.37v5.25H63V54.29H80.52ZM69.37,60.72V82.43h4.72V60.72Zm36.69,36.1c3.13,0,3.72-1.36,4.19-7.43a17.25,17.25,0,0,0,6.31,2.71c-.89,8.26-3,11.21-9.85,11.21H94.38c-7.67,0-10.09-2.12-10.09-10.62v-40h29.79V85.09H107.3V81.66H91.2V92.75c0,3.54.47,4.07,4,4.07ZM91.2,59.13V75.29h4.66V59.13Zm16.1,0h-5.07V75.29h5.07Z" transform="translate(-4.47 -0.36)"/><path class="cls-1" d="M140,93.88a6.14,6.14,0,0,1,12.27,0c0,3.42-2.65,5.78-6.13,5.78S140,97.3,140,93.88Zm1-30.08L140.75,55h10.79l-.29,8.79L149.18,84H143.1Z" transform="translate(-4.47 -0.36)"/><path class="cls-1" d="M209.17,72.23c3.89,11.5,11,20.76,22.06,25.25a28.23,28.23,0,0,0-5.19,6.61c-10.68-5-17.52-13.63-22.12-25-3.19,9.85-9.56,19.05-22.06,25.07a20.77,20.77,0,0,0-5.25-6c13.51-6,19.11-15.81,21.41-26H177.73V65H199.2c.59-5.54.53-10.91.59-15.75h7.67c-.06,4.84-.12,10.26-.71,15.75h23.18v7.26Z" transform="translate(-4.47 -0.36)"/><path class="cls-1" d="M290.75,78.77c-3.83,14.69-13.45,22.06-26.6,25.84a22.31,22.31,0,0,0-3.72-5.84,36.89,36.89,0,0,0,12.45-5.13,48.28,48.28,0,0,0-4.78-5.37c-.88.65-1.89,1.24-2.83,1.83A18.87,18.87,0,0,0,261,85.44l1.12-.59h-8c2.95,2.42,7.37,6.19,8.61,7.43l-4.13,5.78c-1.24-1.83-3.48-4.6-5.66-7.2v13.39H246.1V92.46a40.7,40.7,0,0,1-8.38,10.15,36.34,36.34,0,0,0-3.13-6.9,37.91,37.91,0,0,0,9.56-10.85h-7.9V78.66h9.85V75h-8.61V51.52h24.13v9.62a29.35,29.35,0,0,0,10.68-11.92l6.43,1.06a28.34,28.34,0,0,1-1.59,2.95h6.14l1.24-.18L289,54.82a32,32,0,0,1-13.16,18.11l5.07.94q-1,1.77-2.12,3.54H285l1.3-.24ZM243.21,60.72H247v-3.6h-3.78Zm0,8.73H247V65.91h-3.78Zm12.45-8.73v-3.6H252v3.6Zm0,8.73V65.91H252v3.54Zm6.73,15.22a30.32,30.32,0,0,0,11-10.32,43.69,43.69,0,0,1-8.32,3.6,20.89,20.89,0,0,0-3.48-4.84V75h-8.67v3.66h9.44Zm-.77-11.8a30.25,30.25,0,0,0,10.15-4.78,51.22,51.22,0,0,0-4-4q-1.24,1-2.66,1.95a15.33,15.33,0,0,0-3.48-3.6Zm11.62-14.1c-.41.47-.77.94-1.24,1.42a40.47,40.47,0,0,1,4.31,4,22.87,22.87,0,0,0,3.83-5.37Zm1,24.36c-.47.47-.94.94-1.47,1.42a56.57,56.57,0,0,1,5,4.9A25.78,25.78,0,0,0,282,83.14Z" transform="translate(-4.47 -0.36)"/><path class="cls-1" d="M16.06,6.3h4.81l2.89,20.36H19.14l-.43-4.19h-7.5L8.92,26.66H4.47ZM13.1,19h5.17l-.84-8Z" transform="translate(-4.47 -0.36)"/><path class="cls-1" d="M37.05,17a3,3,0,0,0-.25-1.52,1.89,1.89,0,0,0-1.86-.91,3.5,3.5,0,0,0-3.14,2,9.75,9.75,0,0,0-1,2.79A7.61,7.61,0,0,0,30.64,22a2,2,0,0,0,2.25,1.88A2.86,2.86,0,0,0,35,23.13a4.68,4.68,0,0,0,1.11-1.93h4a8.3,8.3,0,0,1-2,3.4,7.89,7.89,0,0,1-6,2.58q-3.63,0-4.88-2.15a7.73,7.73,0,0,1-.52-5.59,11,11,0,0,1,3.17-6,8.12,8.12,0,0,1,5.68-2.15,6.67,6.67,0,0,1,4.37,1.27q1.53,1.27,1.17,4.49Z" transform="translate(-4.47 -0.36)"/><path class="cls-1" d="M42.77,14.54l.59-2.8h2.1l.9-4.2h3.89l-.9,4.2H51.8l-.59,2.8H48.76l-1.7,8q-.19.93,0,1.15c.13.15.59.23,1.39.23h.38l.41,0-.64,2.94-1.88.07q-2.8.1-3.61-1a2.57,2.57,0,0,1-.22-2.09l2-9.27Z" transform="translate(-4.47 -0.36)"/><path class="cls-1" d="M54.41,11.6h4L55.21,26.66h-4ZM58.79,9.8h-4l.77-3.63h4Z" transform="translate(-4.47 -0.36)"/><path class="cls-1" d="M65.67,27.18q-3.88,0-5.28-2.35a7.65,7.65,0,0,1-.7-5.67,11,11,0,0,1,3.11-5.65,8.57,8.57,0,0,1,6.3-2.39q3.88,0,5.28,2.39a7.7,7.7,0,0,1,.7,5.65A10.94,10.94,0,0,1,72,24.83,8.62,8.62,0,0,1,65.67,27.18Zm5.28-8a5.1,5.1,0,0,0-.19-3.49,2.49,2.49,0,0,0-2.4-1.22,3.91,3.91,0,0,0-2.91,1.22,7,7,0,0,0-1.67,3.49A5.12,5.12,0,0,0,64,22.65a2.49,2.49,0,0,0,2.4,1.23,3.89,3.89,0,0,0,2.91-1.23A7,7,0,0,0,70.95,19.16Z" transform="translate(-4.47 -0.36)"/><path class="cls-1" d="M92.11,16.52,90,26.66h-4l1.93-9.16a3.81,3.81,0,0,0,.07-1.82q-.33-1.16-2-1.16a3.5,3.5,0,0,0-3.11,1.7A6.74,6.74,0,0,0,82,18.51l-1.73,8.15H76.33l3.19-15h3.8l-.47,2.2a9.13,9.13,0,0,1,1.79-1.67,5.9,5.9,0,0,1,3.27-.91,4.82,4.82,0,0,1,3.56,1.22Q92.7,13.69,92.11,16.52Z" transform="translate(-4.47 -0.36)"/><path class="cls-1" d="M106.09,19.92a4.84,4.84,0,0,0,0,2.18,2.28,2.28,0,0,0,2.53,1.59,3.89,3.89,0,0,0,2.41-.87,4.1,4.1,0,0,0,1.48-2.5q.45-2.17-1.15-2.89a8.13,8.13,0,0,0-3.06-.41l.65-3.09a8.93,8.93,0,0,0,3-.41,3.28,3.28,0,0,0,2-2.57,2.47,2.47,0,0,0-.3-2,2.18,2.18,0,0,0-1.9-.79,3.23,3.23,0,0,0-2.45,1A5.06,5.06,0,0,0,108,11.67h-4a12.7,12.7,0,0,1,1.23-3.1,9.5,9.5,0,0,1,2.16-2.38A7.62,7.62,0,0,1,109.65,5a9.49,9.49,0,0,1,2.94-.41,6.31,6.31,0,0,1,4.73,1.63,4.55,4.55,0,0,1,1,4.37,6.06,6.06,0,0,1-1.85,3.27A5.33,5.33,0,0,1,114.73,15q.59,0,1.48,1a4.63,4.63,0,0,1,.76,4.18,9,9,0,0,1-9.13,7q-4.66,0-5.83-3a8.12,8.12,0,0,1-.17-4.24Z" transform="translate(-4.47 -0.36)"/><path class="cls-1" d="M199.61,10.07a2.57,2.57,0,0,0-1.7.57,2.75,2.75,0,0,0-.91,1.58,1.82,1.82,0,0,0,.25,1.52,1.7,1.7,0,0,0,1.45.59,2.54,2.54,0,0,0,1.71-.59,2.62,2.62,0,0,0,.88-1.52,1.84,1.84,0,0,0-.22-1.58A1.73,1.73,0,0,0,199.61,10.07Z" transform="translate(-4.47 -0.36)"/><path class="cls-1" d="M198.17,16.89a2.9,2.9,0,0,0-1.93.67,3.43,3.43,0,0,0-1.09,2,2.38,2.38,0,0,0,.24,2,1.91,1.91,0,0,0,1.66.69,2.87,2.87,0,0,0,2-.69,3.45,3.45,0,0,0,1.07-2,2.35,2.35,0,0,0-.24-2A2,2,0,0,0,198.17,16.89Z" transform="translate(-4.47 -0.36)"/><path class="cls-1" d="M266.35,16.89a2.9,2.9,0,0,0-1.93.67,3.43,3.43,0,0,0-1.09,2,2.38,2.38,0,0,0,.24,2,1.91,1.91,0,0,0,1.66.69,2.87,2.87,0,0,0,2-.69,3.45,3.45,0,0,0,1.07-2,2.35,2.35,0,0,0-.24-2A2,2,0,0,0,266.35,16.89Z" transform="translate(-4.47 -0.36)"/><path class="cls-1" d="M134.71.36V30.55H286V.36Zm17.57,24.12h-3.43l2.49-11.74h-4l.48-2.28a15.71,15.71,0,0,0,2.27-.21,4,4,0,0,0,1.83-.89,3.73,3.73,0,0,0,.92-1.22,3.14,3.14,0,0,0,.28-.68h2.78Zm17.31-2.95L169,24.48H157.31a9.69,9.69,0,0,1,1.49-3.35,13,13,0,0,1,4.15-3.61,33.7,33.7,0,0,0,3.5-2.37A4.51,4.51,0,0,0,168,12.72a2.36,2.36,0,0,0-.21-1.8,1.7,1.7,0,0,0-1.56-.72,2.66,2.66,0,0,0-2.33,1.14,6.55,6.55,0,0,0-.81,2.09h-3.25a9.92,9.92,0,0,1,1.53-3.51,6.2,6.2,0,0,1,5.3-2.55,5,5,0,0,1,4,1.5,4.38,4.38,0,0,1,.75,4,6.73,6.73,0,0,1-1.83,3.36,15.45,15.45,0,0,1-2.9,2.17l-1.54,1q-1.44.89-2,1.29a5,5,0,0,0-1,.93Zm5.4,2.95h-3.56l.74-3.5h3.56Zm10.72,0h-3.43l2.49-11.74h-4l.48-2.28a15.71,15.71,0,0,0,2.27-.21,4,4,0,0,0,1.83-.89,3.73,3.73,0,0,0,.92-1.22,3.14,3.14,0,0,0,.28-.68h2.78Zm18.86-12.64a5.88,5.88,0,0,1-.75,1.79,4.67,4.67,0,0,1-1.95,1.66,3.48,3.48,0,0,1,1.49,1.87,4.89,4.89,0,0,1,.08,2.6,6.25,6.25,0,0,1-2.37,3.66,7.46,7.46,0,0,1-4.77,1.51q-2.85,0-4-1.51a4.29,4.29,0,0,1-.69-3.66,6.36,6.36,0,0,1,1.2-2.6,5.6,5.6,0,0,1,2.28-1.75,2.93,2.93,0,0,1-1.23-1.78,4.7,4.7,0,0,1,0-1.79A5.41,5.41,0,0,1,196,8.68a6.64,6.64,0,0,1,4.22-1.31,4.59,4.59,0,0,1,3.67,1.31A3.48,3.48,0,0,1,204.58,11.85Zm13.85,7.52h-6.74l.68-3.17h6.74Zm19.35,2.17-.62,2.95H225.5A9.69,9.69,0,0,1,227,21.14a13,13,0,0,1,4.15-3.61,33.7,33.7,0,0,0,3.5-2.37,4.51,4.51,0,0,0,1.56-2.44,2.36,2.36,0,0,0-.21-1.8,1.7,1.7,0,0,0-1.56-.72,2.66,2.66,0,0,0-2.33,1.14,6.55,6.55,0,0,0-.81,2.09H228a9.92,9.92,0,0,1,1.53-3.51,6.2,6.2,0,0,1,5.3-2.55,5,5,0,0,1,4,1.5,4.38,4.38,0,0,1,.75,4,6.73,6.73,0,0,1-1.83,3.36,15.45,15.45,0,0,1-2.9,2.17l-1.54,1q-1.44.89-2,1.29a5,5,0,0,0-1,.93Zm5.4,2.95h-3.56l.74-3.5h3.56Zm10.72,0h-3.43L253,12.74h-4l.48-2.28a15.71,15.71,0,0,0,2.27-.21,4,4,0,0,0,1.83-.89,3.73,3.73,0,0,0,.92-1.22,3.14,3.14,0,0,0,.28-.68h2.78Zm18.86-12.64a5.88,5.88,0,0,1-.75,1.79,4.67,4.67,0,0,1-1.95,1.66,3.48,3.48,0,0,1,1.49,1.87,4.89,4.89,0,0,1,.08,2.6,6.25,6.25,0,0,1-2.37,3.66,7.46,7.46,0,0,1-4.77,1.51q-2.85,0-4-1.51a4.29,4.29,0,0,1-.69-3.66,6.36,6.36,0,0,1,1.2-2.6,5.6,5.6,0,0,1,2.28-1.75,2.93,2.93,0,0,1-1.23-1.78,4.7,4.7,0,0,1,0-1.79,5.41,5.41,0,0,1,2.07-3.17,6.64,6.64,0,0,1,4.22-1.31A4.59,4.59,0,0,1,272,8.68,3.48,3.48,0,0,1,272.77,11.85Z" transform="translate(-4.47 -0.36)"/><path class="cls-1" d="M267.8,10.07a2.57,2.57,0,0,0-1.7.57,2.75,2.75,0,0,0-.91,1.58,1.82,1.82,0,0,0,.25,1.52,1.7,1.7,0,0,0,1.45.59,2.54,2.54,0,0,0,1.71-.59,2.62,2.62,0,0,0,.88-1.52,1.84,1.84,0,0,0-.22-1.58A1.73,1.73,0,0,0,267.8,10.07Z" transform="translate(-4.47 -0.36)"/></g></g></svg>