<svg xmlns="http://www.w3.org/2000/svg" viewBox="0 0 295.5 103.96"><defs><style>.cls-1{fill:#ffcd32;}</style></defs><title>Asset 3</title><g id="Layer_2" data-name="Layer 2"><g id="content"><path class="cls-1" d="M14.28,65.72v-2.3A62.29,62.29,0,0,1,8,67.67H32.86V86.19H12.39c-.12.59-.18,1.24-.29,1.83H34.27v15.75H28.14v-1.59H17.23V104H11.39V91.79a37.72,37.72,0,0,1-3.78,10.32A32.25,32.25,0,0,0,1.47,99.4c4.66-7.49,5.13-18.05,5.13-25v-6l-1.36.71a37.46,37.46,0,0,0-3.66-6.72c6.84-2.89,13.75-7.73,17.52-13.39l6.43,2.54c-.35.53-.71,1-1.06,1.47,4.37,2.54,9.26,5.43,12,7.37l-3.6,5.9c-1.59-1.3-3.89-2.83-6.43-4.48v3.83ZM26.49,81.35V78.93H13c0,.77-.06,1.59-.12,2.42ZM13.1,72.5v2.3H26.49V72.5ZM26,61.59c-1.89-1.18-3.83-2.42-5.6-3.54-1.24,1.18-2.54,2.42-3.83,3.54ZM17.23,92.8V97H28.14V92.8Zm27-4.66H37.58V55.22h6.61ZM55,49.32V95.8c0,3.78-.71,5.66-2.89,6.78S46.66,104,41.94,104a28.75,28.75,0,0,0-2.06-7c3,.06,6.08.06,7,.06s1.36-.29,1.36-1.3V49.32Z" transform="translate(-1.47 -0.34)"/><path class="cls-1" d="M80.52,88.84H69.37v5.25H63V54.28H80.52ZM69.37,60.71V82.41h4.72V60.71Zm36.69,36.1c3.13,0,3.72-1.36,4.19-7.43a17.25,17.25,0,0,0,6.31,2.71c-.89,8.26-3,11.21-9.85,11.21H94.38c-7.67,0-10.09-2.12-10.09-10.62v-40h29.79V85.07H107.3V81.65H91.2V92.74c0,3.54.47,4.07,4,4.07ZM91.2,59.11V75.28h4.66V59.11Zm16.1,0h-5.07V75.28h5.07Z" transform="translate(-1.47 -0.34)"/><path class="cls-1" d="M140,93.86a6.14,6.14,0,0,1,12.27,0c0,3.42-2.65,5.78-6.13,5.78S140,97.28,140,93.86Zm1-30.08L140.75,55h10.79l-.29,8.79-2.06,20.17H143.1Z" transform="translate(-1.47 -0.34)"/><path class="cls-1" d="M178.5,77.7H201v26.25h-7v-2.66h-8.79v3H178.5Zm6.67,6.72V94.57H194V84.42Zm36-11.62H186.64V51.44h34.57Zm-7.14-14.63H193.42v8h20.65Zm15.1,19.53V104h-7.08v-2.71h-9.38v3H206V77.7Zm-7.08,16.87V84.42h-9.38V94.57Z" transform="translate(-1.47 -0.34)"/><path class="cls-1" d="M249.34,49.2h5.78V70.56h-10v2c0,1.48,0,3.07-.06,4.66h9.91V104.3h-6.43V83.18H244.8c-.47,7.26-1.59,15-3.89,21a53.66,53.66,0,0,0-6.13-1.95c3.48-8.55,4-21.41,4-29.61V50.68h6.31v14h4.25ZM290.16,93h-8.85v11.21h-6.25V93H256.3V86.78h5.54a21,21,0,0,0-2.42-1.89,24,24,0,0,0,5.9-5.43H258V55.16h8.2a42.84,42.84,0,0,0,2.36-6l7.79,1.06c-.94,1.77-1.89,3.42-2.77,4.9h14.16v24.3h-15.4a27.85,27.85,0,0,1-5.6,7.31h8.32V80.7h6.25v6.08h8.91ZM264.44,64.66h5.25v-4h-5.25Zm4,9.26a21.35,21.35,0,0,0,1.12-4.07h-5.07v4.07ZM281,69.85h-5.37a28.94,28.94,0,0,1-1,4.07H281Zm0-9.14h-5.13v4H281Z" transform="translate(-1.47 -0.34)"/><path class="cls-1" d="M15.28,6.3h4.81L23,26.66H18.36l-.43-4.19h-7.5L8.14,26.66H3.69ZM12.33,19h5.17l-.84-8Z" transform="translate(-1.47 -0.34)"/><path class="cls-1" d="M36.28,17A3,3,0,0,0,36,15.48a1.89,1.89,0,0,0-1.86-.91,3.5,3.5,0,0,0-3.14,2,9.75,9.75,0,0,0-1,2.79A7.61,7.61,0,0,0,29.87,22a2,2,0,0,0,2.25,1.88,2.86,2.86,0,0,0,2.12-.75,4.68,4.68,0,0,0,1.11-1.93h4a8.3,8.3,0,0,1-2,3.4,7.89,7.89,0,0,1-6,2.58q-3.63,0-4.88-2.15a7.73,7.73,0,0,1-.52-5.59,11,11,0,0,1,3.17-6,8.12,8.12,0,0,1,5.68-2.15,6.67,6.67,0,0,1,4.37,1.27q1.53,1.27,1.17,4.49Z" transform="translate(-1.47 -0.34)"/><path class="cls-1" d="M42,14.54l.59-2.8h2.1l.9-4.2h3.89l-.9,4.2H51l-.59,2.8H48l-1.7,8q-.19.93,0,1.15c.13.15.59.23,1.39.23H48l.41,0-.64,2.94-1.88.07q-2.8.1-3.61-1a2.57,2.57,0,0,1-.22-2.09l2-9.27Z" transform="translate(-1.47 -0.34)"/><path class="cls-1" d="M53.64,11.6h4L54.44,26.66h-4ZM58,9.8H54l.77-3.63h4Z" transform="translate(-1.47 -0.34)"/><path class="cls-1" d="M64.89,27.18q-3.88,0-5.28-2.35a7.65,7.65,0,0,1-.7-5.67A11,11,0,0,1,62,13.51a8.57,8.57,0,0,1,6.3-2.39q3.88,0,5.28,2.39a7.7,7.7,0,0,1,.7,5.65,10.94,10.94,0,0,1-3.11,5.67A8.62,8.62,0,0,1,64.89,27.18Zm5.28-8A5.1,5.1,0,0,0,70,15.67a2.49,2.49,0,0,0-2.4-1.22,3.91,3.91,0,0,0-2.91,1.22A7,7,0,0,0,63,19.16a5.12,5.12,0,0,0,.19,3.49,2.49,2.49,0,0,0,2.4,1.23,3.89,3.89,0,0,0,2.91-1.23A7,7,0,0,0,70.17,19.16Z" transform="translate(-1.47 -0.34)"/><path class="cls-1" d="M91.33,16.52,89.18,26.66h-4l1.93-9.16a3.81,3.81,0,0,0,.07-1.82q-.33-1.16-2-1.16a3.5,3.5,0,0,0-3.11,1.7,6.74,6.74,0,0,0-.87,2.29l-1.73,8.15H75.56l3.19-15h3.8l-.47,2.2a9.13,9.13,0,0,1,1.79-1.67,5.9,5.9,0,0,1,3.27-.91,4.82,4.82,0,0,1,3.56,1.22Q91.92,13.69,91.33,16.52Z" transform="translate(-1.47 -0.34)"/><path class="cls-1" d="M101.72,22.34a16.7,16.7,0,0,1,5.34-4.65,43.39,43.39,0,0,0,4.51-3.06,5.81,5.81,0,0,0,2-3.15,3,3,0,0,0-.27-2.32,2.18,2.18,0,0,0-2-.92,3.43,3.43,0,0,0-3,1.47,8.44,8.44,0,0,0-1,2.69h-4.19a12.76,12.76,0,0,1,2-4.53,8,8,0,0,1,6.83-3.29q3.48,0,5.13,1.93a5.65,5.65,0,0,1,1,5.11A8.69,8.69,0,0,1,115.6,16a20,20,0,0,1-3.74,2.8l-2,1.23q-1.86,1.15-2.57,1.67a6.37,6.37,0,0,0-1.26,1.2h9.58l-.8,3.8h-15A12.52,12.52,0,0,1,101.72,22.34Z" transform="translate(-1.47 -0.34)"/><path class="cls-1" d="M166.24,10.08a2.49,2.49,0,0,0-2.29,1.48,17.84,17.84,0,0,0-1.45,4.56,15.76,15.76,0,0,0-.48,4.49,1.5,1.5,0,0,0,1.64,1.56,2.48,2.48,0,0,0,2.28-1.56,19.25,19.25,0,0,0,1.43-4.49,16.65,16.65,0,0,0,.5-4.56A1.47,1.47,0,0,0,166.24,10.08Z" transform="translate(-1.47 -0.34)"/><path class="cls-1" d="M134.71.34V30.54H297V.34Zm17.57,24.12h-3.43l2.49-11.74h-4l.48-2.28a15.74,15.74,0,0,0,2.27-.21,4,4,0,0,0,1.83-.89,3.76,3.76,0,0,0,.92-1.22,3.12,3.12,0,0,0,.28-.68h2.78Zm18.54-8.35a15.82,15.82,0,0,1-2.7,6.49,6,6,0,0,1-5,2.28q-3.25,0-4.08-2.28t.08-6.49a15.8,15.8,0,0,1,2.69-6.51,6.05,6.05,0,0,1,5.05-2.29q3.25,0,4.07,2.29T170.83,16.12ZM175,24.47h-3.56l.74-3.5h3.56Zm14.66-2.95L189,24.47H177.37a9.69,9.69,0,0,1,1.49-3.35A13,13,0,0,1,183,17.51a33.7,33.7,0,0,0,3.5-2.37,4.51,4.51,0,0,0,1.56-2.44,2.36,2.36,0,0,0-.21-1.8,1.69,1.69,0,0,0-1.56-.72A2.66,2.66,0,0,0,184,11.33a6.5,6.5,0,0,0-.81,2.09h-3.25a9.93,9.93,0,0,1,1.53-3.51,6.2,6.2,0,0,1,5.3-2.55,5,5,0,0,1,4,1.5,4.38,4.38,0,0,1,.75,4,6.73,6.73,0,0,1-1.83,3.36,15.47,15.47,0,0,1-2.9,2.17l-1.54,1q-1.44.89-2,1.29a4.91,4.91,0,0,0-1,.93ZM204.52,12a4.7,4.7,0,0,1-1.43,2.54,4.12,4.12,0,0,1-1.36.88q.46,0,1.15.79a3.59,3.59,0,0,1,.59,3.24,7,7,0,0,1-7.08,5.44q-3.62,0-4.52-2.36a6.27,6.27,0,0,1-.13-3.29H195a3.77,3.77,0,0,0,0,1.69,1.77,1.77,0,0,0,2,1.23,3,3,0,0,0,1.87-.67A3.19,3.19,0,0,0,200,19.55q.35-1.68-.89-2.24A6.3,6.3,0,0,0,196.7,17l.51-2.4a6.94,6.94,0,0,0,2.35-.32,2.54,2.54,0,0,0,1.54-2,1.92,1.92,0,0,0-.23-1.59,1.7,1.7,0,0,0-1.47-.61,2.5,2.5,0,0,0-1.9.75,3.93,3.93,0,0,0-1,2H193.4a9.86,9.86,0,0,1,1-2.41A7.4,7.4,0,0,1,196,8.59a6,6,0,0,1,1.76-.92,7.39,7.39,0,0,1,2.29-.32,4.9,4.9,0,0,1,3.67,1.26A3.53,3.53,0,0,1,204.52,12Zm13.9,7.34h-6.74l.68-3.17h6.74Zm15.42,5.12h-3.43l2.49-11.74h-4l.48-2.28a15.68,15.68,0,0,0,2.27-.21,4,4,0,0,0,1.83-.89,3.71,3.71,0,0,0,.92-1.22,3.16,3.16,0,0,0,.28-.68h2.78Zm17.31-2.95-.62,2.95H238.87a9.69,9.69,0,0,1,1.49-3.35,13,13,0,0,1,4.14-3.61,33.7,33.7,0,0,0,3.5-2.37,4.5,4.5,0,0,0,1.56-2.44,2.36,2.36,0,0,0-.21-1.8,1.7,1.7,0,0,0-1.56-.72,2.67,2.67,0,0,0-2.33,1.14,6.59,6.59,0,0,0-.81,2.09h-3.25a9.9,9.9,0,0,1,1.53-3.51,6.2,6.2,0,0,1,5.29-2.55,5,5,0,0,1,4,1.5,4.38,4.38,0,0,1,.75,4,6.74,6.74,0,0,1-1.83,3.36,15.43,15.43,0,0,1-2.9,2.17l-1.54,1q-1.44.89-2,1.29a5,5,0,0,0-1,.93Zm5.4,2.95H253l.74-3.5h3.56Zm10.72,0h-3.43l2.49-11.74h-4l.48-2.28a15.74,15.74,0,0,0,2.27-.21,4,4,0,0,0,1.83-.89,3.76,3.76,0,0,0,.92-1.22,3.12,3.12,0,0,0,.28-.68h2.78Zm20-14.19a29.45,29.45,0,0,0-2.65,2.64,30.75,30.75,0,0,0-3.07,3.92,29.18,29.18,0,0,0-2.12,3.88A18.37,18.37,0,0,0,278,24.47h-3.48a25.35,25.35,0,0,1,5-9.52,30.43,30.43,0,0,1,4-4.27h-8.49l.69-3h12Z" transform="translate(-1.47 -0.34)"/></g></g></svg>