<svg xmlns="http://www.w3.org/2000/svg" xmlns:xlink="http://www.w3.org/1999/xlink" viewBox="0 0 151.31 175.22"><defs><style>.cls-1{fill:none;}.cls-2{fill:#ffda67;stroke:#ffda67;stroke-linecap:round;stroke-linejoin:round;stroke-width:4px;}.cls-3{clip-path:url(#clip-path);}.cls-4{fill:#00364b;}</style><clipPath id="clip-path" transform="translate(0 0)"><path class="cls-1" d="M143,.27a2,2,0,0,0-2,0L1,81.1a2,2,0,0,0-.72,2.75l47.15,80a2,2,0,0,0,1.72,1s0,.63,0,.63l92.86-.84a8.33,8.33,0,0,0,2.72-2.63V2A11.64,11.64,0,0,0,143,.27Z"/></clipPath></defs><title>資產 1</title><g id="圖層_2" data-name="圖層 2"><g id="content"><polygon class="cls-2" points="142.01 162 142.01 2 2 82.84 49.15 162.83 142.01 162"/><g class="cls-3"><path class="cls-4" d="M63,69.48c1.45-2.31,3.77-2.27,5.15.08l6.35,10.86c1.38,2.36.27,4.29-2.46,4.29H58.41c-2.73,0-3.77-1.89-2.32-4.2Z" transform="translate(0 0)"/><path class="cls-4" d="M88.89,75a4,4,0,0,0-3.76,4.12v7A4.13,4.13,0,0,1,81,90.26H44.35a4.13,4.13,0,0,0-4.12,4.12V115a4.13,4.13,0,0,0,4.12,4.12h4.73a4.13,4.13,0,0,1,4.12,4.12v40.38c0,2.27-1.52,4.12-3.39,4.12a3.6,3.6,0,0,0-3.39,3.76,4,4,0,0,0,4.12,3.76h6a4,4,0,0,0,4.12-3.76V137a4.13,4.13,0,0,1,4.12-4.12h.78A4.13,4.13,0,0,1,69.74,137v34.5a4,4,0,0,0,4.12,3.76h6A4,4,0,0,0,84,171.46a3.6,3.6,0,0,0-3.39-3.76c-1.86,0-3.39-1.85-3.39-4.12V101.89a4.13,4.13,0,0,1,4.12-4.12h7.15a4.13,4.13,0,0,0,4.12-4.12V79.11A4,4,0,0,0,88.89,75ZM53.21,108.84c0,2.27-1.23,4.12-2.73,4.12s-2.73-1.85-2.73-4.12v-6.55c0-2.27,1.23-4.12,2.73-4.12s2.73,1.85,2.73,4.12Zm14.21,8.41a2.18,2.18,0,1,1-4.36,0v-13a2.18,2.18,0,1,1,4.36,0ZM65.23,98.53a2.17,2.17,0,0,1-2.18-2.16v0a2.18,2.18,0,1,1,2.18,2.19Z" transform="translate(0 0)"/><path class="cls-4" d="M95.94,57.72A5.42,5.42,0,0,0,92.11,67a5.35,5.35,0,0,0,1.14.86c0,.05,0,.1,0,.16v1.13a2.71,2.71,0,0,0,5.42,0V68c0-.05,0-.11,0-.16A5.36,5.36,0,0,0,99.77,67a5.41,5.41,0,0,0-3.83-9.24Z" transform="translate(0 0)"/><path class="cls-4" d="M95.86,52.91A1.93,1.93,0,0,0,97.79,51V45.66a1.93,1.93,0,1,0-3.86,0V51A1.93,1.93,0,0,0,95.86,52.91Z" transform="translate(0 0)"/><path class="cls-4" d="M90,53.2l-3.07-2.93a1.93,1.93,0,0,0-2.67,2.79L87.34,56A1.93,1.93,0,0,0,90,53.2Z" transform="translate(0 0)"/><path class="cls-4" d="M107.51,50.33a1.93,1.93,0,0,0-2.73-.06l-3.07,2.93A1.93,1.93,0,0,0,104.38,56l3.07-2.93A1.93,1.93,0,0,0,107.51,50.33Z" transform="translate(0 0)"/><path class="cls-4" d="M117.18,70.17c1.05-2.35,3.18-2.6,4.74-.54l8.34,11c1.56,2.05.72,3.73-1.86,3.73H115.52c-2.58,0-3.83-1.93-2.78-4.28Z" transform="translate(0 0)"/><path class="cls-4" d="M151.27,108.82l-1.72-14A4.52,4.52,0,0,0,145.19,91H112a4.57,4.57,0,0,1-4.4-3.85L106.57,79a4.38,4.38,0,0,0-4.06-3.85A3.23,3.23,0,0,0,99.44,79l1.85,15.2a4.51,4.51,0,0,0,4.36,3.86h4.75l2.79,28.25h-3.33a3.31,3.31,0,0,0-3.16,3.87l3.46,34.08c.22,2.13-1,3.87-2.8,3.87a3,3,0,0,0-2.85,3.55,4.22,4.22,0,0,0,4.24,3.55h5.71a3.33,3.33,0,0,0,3.54-3.55c-.19-2-.53-5.29-.74-7.41l-2.75-27a3.45,3.45,0,0,1,3.49-3.87h7.61a4.41,4.41,0,0,1,4.29,3.87l2.78,27a3.37,3.37,0,0,1-3.31,3.87,3.22,3.22,0,0,0-3.34,3.54,4.25,4.25,0,0,0,4.26,3.54H137a3.45,3.45,0,0,0,3.5-3.87l-7-69.43a3.45,3.45,0,0,1,3.5-3.87h2a4.58,4.58,0,0,1,4.4,3.85l.92,6.91a4.35,4.35,0,0,0,4,3.85A3.19,3.19,0,0,0,151.27,108.82Zm-32.5-12.25v0a2.18,2.18,0,1,1,2.38,2h-.21A2.16,2.16,0,0,1,118.78,96.57Zm4.41,22.86H123a2.18,2.18,0,0,1-2.17-2l-1.26-13a2.18,2.18,0,0,1,4.34-.42l1.26,13A2.18,2.18,0,0,1,123.19,119.43Z" transform="translate(0 0)"/></g></g></g></svg>