<svg xmlns="http://www.w3.org/2000/svg" xmlns:xlink="http://www.w3.org/1999/xlink" viewBox="0 0 189.71 164.83"><defs><style>.cls-1{fill:none;}.cls-2{fill:#4eb5ff;stroke:#4eb5ff;stroke-linecap:round;stroke-linejoin:round;stroke-width:4px;}.cls-3{clip-path:url(#clip-path);}.cls-4{fill:#00364b;}</style><clipPath id="clip-path" transform="translate(0 -0.01)"><path class="cls-1" d="M189.44,81,142.28,1a2.08,2.08,0,0,0-2.75-.76L1,80.24A2.17,2.17,0,0,0,0,82,2.31,2.31,0,0,0,.92,83.8l140,80.84a3.76,3.76,0,0,0,1.08.21,2,2,0,0,0,1.74-1L189.46,83A2,2,0,0,0,189.44,81Z"/></clipPath></defs><title>資產 1</title><g id="圖層_2" data-name="圖層 2"><g id="content"><polygon class="cls-2" points="140.56 2 2 82 142.01 162.83 187.72 82 140.56 2"/><g class="cls-3"><path class="cls-4" d="M126.2,70.9a3.94,3.94,0,0,0,4-3.64,3.75,3.75,0,0,0-4-3.47l-77,0a5.06,5.06,0,0,0-4.75,4.52L41.7,85c-.48,2.85,1.25,4.54,3.16,4.54,2.17,0,3.57-1.47,3.91-3.66l1.82-10.75a4.65,4.65,0,0,1,4.25-4c2,0,3,1.79,2.6,4L48.6,126.6a5,5,0,0,1-4.71,4H39a4.88,4.88,0,0,0-4.66,4l-1.05,6.67a3.51,3.51,0,0,0,3.41,4,4.18,4.18,0,0,0,3.84-3.64,4.83,4.83,0,0,1,4.69-3.64h3.68a7.11,7.11,0,0,0,6.7-5.55L59.47,112a5.07,5.07,0,0,1,4.78-4H75.9a3.35,3.35,0,0,1,3.41,4l-4.46,28.43a4,4,0,0,0,4.08,4.77h7.2c2.22,0,4.46-1,4.46-3.75,0-1.28-1-3.17-4-3.17h0a3.35,3.35,0,0,1-3.41-4l4.42-28.18a4.78,4.78,0,0,0-4.86-5.69h-3a3.35,3.35,0,0,1-3.41-4l4-25.36Z" transform="translate(0 -0.01)"/><path class="cls-4" d="M72.18,43.13c1.34-1.77,3.19-1.56,4.11.45l5.33,11.67c.92,2-.14,3.67-2.36,3.67h-15c-2.22,0-2.94-1.45-1.6-3.21Z" transform="translate(0 -0.01)"/><path class="cls-4" d="M128.42,43.13c1.34-1.77,3.19-1.56,4.11.45l5.33,11.67c.92,2-.14,3.67-2.36,3.67h-15c-2.22,0-2.94-1.45-1.6-3.21Z" transform="translate(0 -0.01)"/><path class="cls-4" d="M136.5,63.74H123a5.11,5.11,0,0,0-4.8,4l-5.06,25.88Z" transform="translate(0 -0.01)"/><path class="cls-4" d="M160.69,45.35a5,5,0,0,0-4.58,4l-2,10.48a5.11,5.11,0,0,1-4.8,4H145L110.3,108l-1.25,6.4a5.11,5.11,0,0,1-4.8,4H97.08a5.11,5.11,0,0,0-4.8,4l-1.39,7.11a3.11,3.11,0,0,0,3,4,4.8,4.8,0,0,0,4.53-3.7,5,5,0,0,1,4.75-3.7h7.16a5.11,5.11,0,0,0,4.8-4l2.18-11.16a5.11,5.11,0,0,1,4.8-4h1a3.2,3.2,0,0,1,3.26,4l-5.95,30.42a3.2,3.2,0,0,0,3.26,4h6.41a5,5,0,0,0,4.77-3.81c.41-2.09-.8-3.81-2.68-3.81s-3.08-1.78-2.65-4L141,75.31a5.11,5.11,0,0,1,4.81-4h9.54a5.11,5.11,0,0,0,4.8-4l3.54-18.1A3.11,3.11,0,0,0,160.69,45.35Z" transform="translate(0 -0.01)"/></g></g></g></svg>