<svg xmlns="http://www.w3.org/2000/svg" xmlns:xlink="http://www.w3.org/1999/xlink" viewBox="0 0 150.65 165.67"><defs><style>.cls-1{fill:none;}.cls-2{fill:#ff665c;stroke:#ff665c;stroke-linecap:round;stroke-linejoin:round;stroke-width:4px;}.cls-3{clip-path:url(#clip-path);}.cls-4{fill:#00364b;}</style><clipPath id="clip-path" transform="translate(0)"><path class="cls-1" d="M142,.58A2,2,0,0,0,140.54,0L47.69.84a2,2,0,0,0-1.72,1L.26,82.69A2,2,0,0,0,1,85.41l138.56,80a2,2,0,0,0,2,0,2.32,2.32,0,0,0,1.09-1.82V1.92A2.62,2.62,0,0,0,142,.58Z"/></clipPath></defs><title>資產 2</title><g id="圖層_2" data-name="圖層 2"><g id="content"><polygon class="cls-2" points="140.56 2 47.7 2.84 2 83.67 140.56 163.67 140.56 2"/><g class="cls-3"><path class="cls-4" d="M66.94,19.19,76,7.27c1.27-1.68,3-1.48,3.9.43l1.85,4.06H79.43a2.43,2.43,0,1,0,0,4.86h4.51l1,2.15c.87,1.91-.13,3.48-2.23,3.48H68.46C66.36,22.24,65.68,20.87,66.94,19.19Z" transform="translate(0)"/><path class="cls-4" d="M108,59.76h5.87a2.43,2.43,0,0,0,0-4.86h-3.78l1.74-4.05c1-2.41,3.19-2.68,4.8-.61l8.72,11.26c1.6,2.07.77,3.77-1.85,3.77h-13.1c-2.62,0-3.92-2-2.88-4.38Z" transform="translate(0)"/><path class="cls-4" d="M84.09,95.53a4.28,4.28,0,0,0,4.3,3.61h16.9c2.18,0,4.09,1.44,4.26,3.19s-1.47,3.19-3.65,3.19H100a3.53,3.53,0,0,0-3.58,3.94l1.4,14.61c.21,2.17-1.08,3.94-2.87,3.94a3.09,3.09,0,0,0-2.9,3.61,4.28,4.28,0,0,0,4.3,3.61h5.81a3.53,3.53,0,0,0,3.58-3.94l-1.4-14.61a3.53,3.53,0,0,1,3.58-3.94h14.55a4.45,4.45,0,0,1,4.33,3.94l1.4,14.61a4.45,4.45,0,0,0,4.33,3.94H147a3.4,3.4,0,0,0,3.61-3.61,4.28,4.28,0,0,0-4.3-3.61h-7.26a4.45,4.45,0,0,1-4.33-3.94L130.1,75.79a18.76,18.76,0,0,0-.6-3.94H110.59A3.53,3.53,0,0,0,107,75.79L108.18,88a3.53,3.53,0,0,1-3.58,3.94H87.7A3.4,3.4,0,0,0,84.09,95.53ZM126,95.18A2,2,0,0,1,128.25,97l.75,6.85a2,2,0,0,1-1.79,2.23H127a2,2,0,0,1-2-1.8l-.75-6.85A2,2,0,0,1,126,95.18Zm-7.4,0A2,2,0,0,1,120.84,97l.75,6.85a2,2,0,0,1-1.79,2.23h-.22a2,2,0,0,1-2-1.8l-.75-6.85A2,2,0,0,1,118.61,95.18Z" transform="translate(0)"/><path class="cls-4" d="M103,30l-.06.42L103,30Z" transform="translate(0)"/><path class="cls-4" d="M102.91,30.8l.06-.37Z" transform="translate(0)"/><path class="cls-4" d="M44.22,100.47A3,3,0,0,0,47.3,104a4.3,4.3,0,0,0,4.14-3.51A4.44,4.44,0,0,1,55.79,97h6.79a4.49,4.49,0,0,0,4.37-3.61L68.06,86,70.23,71.5A18.93,18.93,0,0,1,71,67.72H82.07a3.11,3.11,0,0,1,3,3.78l-.51,3.4L84,78.77l-.54,3.61a3.1,3.1,0,0,0,3.29,3.52h6.08a4.49,4.49,0,0,0,4.37-3.61c.3-2-.92-3.61-2.71-3.61s-3-1.7-2.68-3.78l.51-3.4,1.11-7.39a3,3,0,0,0-3.07-3.61H83.15a3.11,3.11,0,0,1-3-3.78L83,37.82A4.59,4.59,0,0,1,87.37,34h15.05l.46-3.06,0-.17v0l.06-.39L103,30v0l0-.13,1-6.84,1.29-8.58a3.12,3.12,0,0,0-3-3.78,4.47,4.47,0,0,0-4.18,3.78L96.86,23a4.59,4.59,0,0,1-4.39,3.78H50.92a4.49,4.49,0,0,0-4.37,3.61l-1.11,7.39L44.15,46.4a3.12,3.12,0,0,0,3,3.78,4.47,4.47,0,0,0,4.18-3.78l1.29-8.58A4.47,4.47,0,0,1,56.84,34a3.12,3.12,0,0,1,3,3.78L56,63.94a3.2,3.2,0,0,0,3.25,3.78h.55A3.2,3.2,0,0,1,63,71.5L60.84,86a4.47,4.47,0,0,1-4.18,3.78H49.44a4.36,4.36,0,0,0-4.15,3.61ZM68.16,58.29l1.15-7a2,2,0,1,1,4,.66l-1.15,7a2,2,0,0,1-2,1.7l-.33,0A2,2,0,0,1,68.16,58.29Zm-5.4,2.35-.33,0a2,2,0,0,1-1.67-2.33l1.15-7a2,2,0,1,1,4,.66l-1.15,7A2,2,0,0,1,62.75,60.64Z" transform="translate(0)"/></g></g></g></svg>