<svg xmlns="http://www.w3.org/2000/svg" viewBox="0 0 278.39 138.19"><defs><style>.cls-1{fill:#e0e0e0;}.cls-2{fill:#004864;}</style></defs><title>資產 192</title><g id="圖層_2" data-name="圖層 2"><g id="團隊名HL"><rect class="cls-1" x="34.08" y="51.16" width="244.31" height="87.03" rx="43.51" ry="43.51"/><path class="cls-2" d="M94.48,100.8A27.39,27.39,0,0,0,89.26,97l2.23-2.58a33.09,33.09,0,0,1,5.41,3.5Zm3.18,3.44c-1.21,3.37-2.8,6.91-4.27,10l-3.47-2.2A90.58,90.58,0,0,0,94.61,102ZM95.4,92.91a27.87,27.87,0,0,0-4.52-4.23l2.51-2.32a27.29,27.29,0,0,1,4.68,4Zm22.47,12.7a38.68,38.68,0,0,1-4.39,2.9,13.34,13.34,0,0,0,5.67,3.06,14.18,14.18,0,0,0-2.39,3.28c-5.63-1.94-8.69-6-10.54-11.94h-3.63v7.26l5.25-1.53a22.39,22.39,0,0,0,.54,3.31c-7,2.23-8.28,2.74-9.1,3.34a10.93,10.93,0,0,0-2-2.77,4.44,4.44,0,0,0,1.5-3.37V88.71h7.32A23.27,23.27,0,0,0,105,86l3.5-.89a25.21,25.21,0,0,1,1.53,3.63h6.46v14.2h-6.72a14.18,14.18,0,0,0,1.59,3.18,27.65,27.65,0,0,0,4-3ZM102.59,92v2.23h10.25V92Zm0,7.67h10.25V97.36H102.59Z" transform="translate(0 -6.69)"/><path class="cls-2" d="M145.27,98.26c2.26,6,6.24,10.89,12.32,13.18a14.9,14.9,0,0,0-2.83,3.6c-5.89-2.61-9.61-7.19-12.16-13.27a21.55,21.55,0,0,1-12,13.24,11.28,11.28,0,0,0-3-3.34c7.32-3.09,10.38-8.08,11.68-13.4h-11.2V94.34H140c.35-3.06.32-6.11.38-8.91h4.14c0,2.8-.06,5.86-.38,8.91h12.6v3.92Zm7-4.81a28.79,28.79,0,0,0-5.92-5.22L148.9,86a28.9,28.9,0,0,1,6.21,5Z" transform="translate(0 -6.69)"/><path class="cls-2" d="M172.9,96.79v18.33H169.2V96.79h-3.47V93.35h3.47V85.43h3.69v7.93H176v3.44Zm22.54,11.43h-4.14v3.34c0,1.66-.29,2.51-1.5,3a14.28,14.28,0,0,1-5,.51,13.19,13.19,0,0,0-1-3.18c1.46.06,3.09.06,3.53,0s.6-.13.6-.48v-3.25h-6.21c1.18.8,2.36,1.69,3.12,2.26L182.48,113c-1.05-1-3.18-2.58-4.71-3.69l1.11-1.11h-4v-3h13V104h1.15a18.23,18.23,0,0,0-1-2.1c.83,0,1.66,0,1.94,0s.41-.09.41-.38v-.48H187v2.36h-3.47v-2.36h-3.47V104h-3.18V92.56h6.65v-.92H176V88.71h7.61V85.43H187v3.28h3.44L188,87.4l1.72-2c1.43.64,3.44,1.65,4.52,2.23l-.86,1.11H195v2.93h-8v.92h6.75v9.1c0,1.34-.25,1.85-1.15,2.16a5.46,5.46,0,0,1-1.34.32v1h4.11ZM180.09,95v1h3.47V95Zm3.47,4.11v-1h-3.47v1ZM187,95v1h3.44V95Zm3.44,4.11v-1H187v1Z" transform="translate(0 -6.69)"/><path class="cls-2" d="M220.8,98.67v11.24h10.82v3.79H206.19v-3.79h10.54V98.67H204.47V94.91h12.25V85.46h4.07v9.45H233.3v3.76Z" transform="translate(0 -6.69)"/><path class="cls-1" d="M98.37,6.69H106l8.72,24,5.19-24h6.8l-7.41,34.38H112l-9-24.42L97.76,41.08H91Z" transform="translate(0 -6.69)"/><path class="cls-1" d="M137,42q-6.66,0-9.06-4t-1.2-9.58A18.5,18.5,0,0,1,132,18.87a14.83,14.83,0,0,1,10.8-4q6.66,0,9,4a12.83,12.83,0,0,1,1.21,9.54A18.39,18.39,0,0,1,147.75,38,14.91,14.91,0,0,1,137,42Zm9-13.55q.83-3.83-.32-5.89a4.29,4.29,0,0,0-4.11-2.06,6.75,6.75,0,0,0-5,2.06,11.71,11.71,0,0,0-2.87,5.89q-.83,3.82.32,5.9a4.29,4.29,0,0,0,4.11,2.08,6.73,6.73,0,0,0,5-2.08A11.79,11.79,0,0,0,146,28.41Z" transform="translate(0 -6.69)"/><path class="cls-1" d="M156.57,34.13h7.18l-1.49,7h-7.18Z" transform="translate(0 -6.69)"/><path class="cls-1" d="M175.47,32a5.18,5.18,0,0,0,.82,3.35,3.61,3.61,0,0,0,3.07,1.18,5.59,5.59,0,0,0,4.19-1.74,8.81,8.81,0,0,0,2.25-4.37,6.74,6.74,0,0,0-.27-4.37q-.84-1.78-3.45-1.78a7.41,7.41,0,0,0-2.2.3A5.73,5.73,0,0,0,177,26.66l-6-.28L177.49,7.7h18.93l-1.23,5.65h-14l-2.82,7.39A18.48,18.48,0,0,1,181,19.41a11.55,11.55,0,0,1,3.7-.54,8.76,8.76,0,0,1,6.82,2.82q2.56,2.82,1.4,8.21a16.08,16.08,0,0,1-4.86,8.37A13.82,13.82,0,0,1,178.15,42q-4.9,0-7.49-2.59T168.75,32Z" transform="translate(0 -6.69)"/><path class="cls-1" d="M212.76,7q7.84,0,9.29,6.83.83,3.87-.54,10.19a33.73,33.73,0,0,1-3.79,10.24q-4.71,7.81-12.81,7.81a9.5,9.5,0,0,1-6.46-2.25q-2.59-2.25-2.12-6.57H203a3.16,3.16,0,0,0,.75,2.43,3.29,3.29,0,0,0,2.57.93q3.34,0,5.47-3.64a24,24,0,0,0,2.2-5.86,10.3,10.3,0,0,1-2.34,1.75,10.38,10.38,0,0,1-4.9,1.12,8.69,8.69,0,0,1-6.68-2.79q-2.58-2.79-1.45-8a15.67,15.67,0,0,1,5.09-8.81A13.38,13.38,0,0,1,212.76,7Zm-.54,16.79a7.1,7.1,0,0,0,3.39-5,6.25,6.25,0,0,0-.38-4.55,3.59,3.59,0,0,0-3.36-1.68,5.64,5.64,0,0,0-3.17,1,7.6,7.6,0,0,0-3,5.06q-.66,3,.26,4.51t3.51,1.5A5.61,5.61,0,0,0,212.21,23.77Z" transform="translate(0 -6.69)"/><path class="cls-1" d="M2,97.59c-2.71,1.66-2.7,4.36,0,6l12.56,7.53c2.73,1.64,5,.37,5-2.81l.18-15.9c0-3.18-2.15-4.42-4.86-2.76Z" transform="translate(0 -6.69)"/></g></g></svg>