<svg xmlns="http://www.w3.org/2000/svg" viewBox="0 0 336.61 138.19"><defs><style>.cls-1{fill:#d5de44;}.cls-2{fill:#004864;}</style></defs><title>資產 188</title><g id="圖層_2" data-name="圖層 2"><g id="團隊名"><rect class="cls-1" x="33.14" y="51.16" width="303.48" height="87.03" rx="43.51" ry="43.51"/><path class="cls-2" d="M103.74,102.33a19.35,19.35,0,0,1-3.92,7.35,17.77,17.77,0,0,0,5.44,2.23,12.48,12.48,0,0,0-2.23,2.93,17.49,17.49,0,0,1-5.73-2.8,21.06,21.06,0,0,1-5.57,3.06,13.93,13.93,0,0,0-1.88-2.8v2.83H86.33v-2.74c-3.69.41-7.38.76-10.25,1.08l-.29-3.25c.83-.06,1.75-.13,2.77-.22v-9.64H76.08v-3h28.26v3H89.86v11.71a15.89,15.89,0,0,0,4.81-2.42,19.45,19.45,0,0,1-3.06-4.87l1.15-.32H90.85v-2.9h9.93l.61-.13Zm-20.31-6H79.8v-10h20.91v10H96.89V89H83.43Zm-1.5,4v1.3h4.39v-1.3Zm0,5.19h4.39v-1.27H81.93Zm0,4.14c1.4-.13,2.93-.25,4.39-.41v-1.11H81.93ZM95.72,92.37H84.42v-2.2h11.3ZM84.45,95.77v-2.2H95.72v2.2Zm10.47,8.69a12.37,12.37,0,0,0,2.17,3,12,12,0,0,0,2.07-3Z" transform="translate(0 -6.69)"/><path class="cls-2" d="M123.53,93.42a36.69,36.69,0,0,1-2.51,4.2v17.6h-3.57V102c-.67.7-1.37,1.34-2,1.91a23.6,23.6,0,0,0-2-3.53,26.44,26.44,0,0,0,6.75-8.15ZM123,86.7a34.64,34.64,0,0,1-7.26,7.8,24.17,24.17,0,0,0-2-2.74,25.78,25.78,0,0,0,5.92-6.33Zm17.73,16.07a17.79,17.79,0,0,1-5.32,7.16,33.77,33.77,0,0,0,7.48,2,13.68,13.68,0,0,0-2.26,3.28,29.55,29.55,0,0,1-8.66-3,33.76,33.76,0,0,1-8.79,3.09,12.19,12.19,0,0,0-1.78-3.21,30.9,30.9,0,0,0,7.26-2.07,19.81,19.81,0,0,1-2.1-1.88,23.41,23.41,0,0,1-2.07,1.65,28.12,28.12,0,0,0-2.48-2.74,26.06,26.06,0,0,0,2.29-1.69,19.27,19.27,0,0,1-1.69-2.8l3.09-1a11.86,11.86,0,0,0,.86,1.53,20.61,20.61,0,0,0,2.2-3.06c-3.44.29-4.33.45-5,.7a25.1,25.1,0,0,0-1.11-3.44,10,10,0,0,0,3.6-1.56,27.59,27.59,0,0,0,2.9-1.69c-3.31.16-4.11.32-4.68.54-.22-.8-.79-2.58-1.21-3.57a6.27,6.27,0,0,0,2.13-1.11,25.15,25.15,0,0,0,5.12-4.46l3.79,1.66a39.71,39.71,0,0,1-5.09,4.07l4.11-.06a45.35,45.35,0,0,0,3.44-3l3.53,1.91a60.55,60.55,0,0,1-10,6.81l6.65-.35c-.45-.64-.89-1.24-1.31-1.81l2.9-1.5a70.76,70.76,0,0,1,4.81,6.91l-3.12,1.78a26.22,26.22,0,0,0-1.46-2.58l-5.86.38c-.35.73-.73,1.43-1.11,2.13h6l.61-.16Zm-11.11,2.07c-.25.32-.51.64-.76.92a19.14,19.14,0,0,0,3.18,2.45,13.54,13.54,0,0,0,3.6-3.37Z" transform="translate(0 -6.69)"/><path class="cls-2" d="M181.3,97.9V102H152V97.9Z" transform="translate(0 -6.69)"/><path class="cls-2" d="M199.31,86.54a60.36,60.36,0,0,1-2.48,6v22.57h-3.6V98.86a32.41,32.41,0,0,1-2.13,2.74,26.78,26.78,0,0,0-1.78-4.11,33.67,33.67,0,0,0,6.49-12Zm19.45.48v27.79h-3.6v-1.56h-12v1.85h-3.44V87ZM215.16,110V90.3h-12V110Zm-4.58-13v2.74h3.06v8.53h-8.82V99.69h2.83V97H204V94.21h3.66V91h2.93v3.25h3.85V97Zm.22,5.35h-3.25v3.34h3.25Z" transform="translate(0 -6.69)"/><path class="cls-2" d="M253.86,111.59c.8,0,1-.51,1.05-3.69a9.8,9.8,0,0,0,3.06,1.34c-.32,4.2-1.21,5.38-3.72,5.38h-3.31c-3.15,0-3.88-1-3.88-4.07V108.6a16.21,16.21,0,0,1-8.31,6.53,9.11,9.11,0,0,0-2.13-2.83c5.41-1.94,7.83-5,8.91-8.75h-5.67V96.82a12.35,12.35,0,0,0-1.37-1.62v13.91h-6v2.42h-3.28V87.72h9.26v6a20.06,20.06,0,0,0,5.09-8.24l3.72.6c-.25.67-.51,1.34-.83,2h5.12l.6-.16,2.8.89a40.77,40.77,0,0,1-3.06,4.77h4.33v10h-5.73v7c0,1,.13,1.08,1,1.08ZM232.5,91.09v5.54h2.71V91.09Zm2.71,14.64V99.94H232.5v5.79Zm11-5.12c.19-1.3.29-2.64.38-4.07h-3.31v4.07ZM245,91.09a24.16,24.16,0,0,1-1.66,2.48h4.55a26.15,26.15,0,0,0,1.72-2.48Zm7.73,5.44H250c-.1,1.4-.22,2.74-.41,4.07h3.12Z" transform="translate(0 -6.69)"/><path class="cls-2" d="M289.31,101.6a19.1,19.1,0,0,1-3,5.92,64.58,64.58,0,0,1,8.79,4.33l-2.8,3.34a65.93,65.93,0,0,0-8.94-4.74c-3.28,2.51-7.77,3.92-13.78,4.77a16.34,16.34,0,0,0-2.36-3.82c5-.45,8.85-1.3,11.68-2.83-2.74-1.15-5.57-2.16-8.08-3a46.56,46.56,0,0,0,2.58-4h-6.21V98h8.12a39.47,39.47,0,0,0,2.1-4.93l4.42.83c-.51,1.31-1.11,2.71-1.78,4.11h5.6c.16-.89.25-1.88.35-2.9l4.58.29V92.33H271.68V95.9h-3.85V88.83h11.3c-.35-.92-.76-1.91-1.11-2.77l4.27-1c.54,1.15,1.21,2.58,1.66,3.76h10.73V95.9h-4c-.13.73-.25,1.43-.38,2.13h5v3.56Zm-11,0c-.48.83-.92,1.59-1.4,2.36,1.78.57,3.6,1.24,5.47,1.94a13.35,13.35,0,0,0,2.42-4.3Z" transform="translate(0 -6.69)"/><path class="cls-1" d="M113.52,6.69h7.65l8.72,24,5.19-24h6.8l-7.41,34.38h-7.3l-9-24.42-5.26,24.42h-6.8Z" transform="translate(0 -6.69)"/><path class="cls-1" d="M152.11,42q-6.66,0-9.06-4t-1.2-9.58a18.5,18.5,0,0,1,5.33-9.54,14.83,14.83,0,0,1,10.8-4q6.66,0,9,4a12.83,12.83,0,0,1,1.21,9.54A18.39,18.39,0,0,1,162.9,38,14.91,14.91,0,0,1,152.11,42Zm9-13.55q.83-3.83-.32-5.89a4.29,4.29,0,0,0-4.11-2.06,6.75,6.75,0,0,0-5,2.06,11.71,11.71,0,0,0-2.87,5.89q-.83,3.82.32,5.9a4.29,4.29,0,0,0,4.11,2.08,6.73,6.73,0,0,0,5-2.08A11.79,11.79,0,0,0,161.16,28.41Z" transform="translate(0 -6.69)"/><path class="cls-1" d="M171.72,34.13h7.18l-1.49,7h-7.18Z" transform="translate(0 -6.69)"/><path class="cls-1" d="M189.06,17.75l1-4.53a32.17,32.17,0,0,0,4.57-.42A8.17,8.17,0,0,0,198.3,11a7.43,7.43,0,0,0,1.85-2.43,6.2,6.2,0,0,0,.57-1.35h5.61L199,41.08h-6.92l5-23.33Z" transform="translate(0 -6.69)"/><path class="cls-1" d="M227.9,7q7.84,0,9.29,6.83.83,3.87-.54,10.19a33.73,33.73,0,0,1-3.79,10.24q-4.71,7.81-12.81,7.81a9.5,9.5,0,0,1-6.46-2.25q-2.59-2.25-2.12-6.57h6.73a3.16,3.16,0,0,0,.75,2.43,3.29,3.29,0,0,0,2.57.93q3.34,0,5.47-3.64a24,24,0,0,0,2.2-5.86,10.3,10.3,0,0,1-2.34,1.75,10.38,10.38,0,0,1-4.9,1.12,8.69,8.69,0,0,1-6.68-2.79q-2.58-2.79-1.45-8a15.67,15.67,0,0,1,5.09-8.81A13.38,13.38,0,0,1,227.9,7Zm-.54,16.79a7.1,7.1,0,0,0,3.39-5,6.25,6.25,0,0,0-.38-4.55A3.59,3.59,0,0,0,227,12.53a5.64,5.64,0,0,0-3.17,1,7.6,7.6,0,0,0-3,5.06q-.66,3,.26,4.51t3.51,1.5A5.61,5.61,0,0,0,227.36,23.77Z" transform="translate(0 -6.69)"/><path class="cls-1" d="M254.88,7q7.84,0,9.29,6.83.83,3.87-.54,10.19a33.73,33.73,0,0,1-3.79,10.24q-4.71,7.81-12.81,7.81a9.5,9.5,0,0,1-6.46-2.25q-2.59-2.25-2.12-6.57h6.73a3.16,3.16,0,0,0,.75,2.43,3.29,3.29,0,0,0,2.57.93q3.34,0,5.47-3.64a24,24,0,0,0,2.2-5.86,10.3,10.3,0,0,1-2.34,1.75,10.38,10.38,0,0,1-4.9,1.12,8.69,8.69,0,0,1-6.68-2.79q-2.58-2.79-1.45-8a15.67,15.67,0,0,1,5.09-8.81A13.38,13.38,0,0,1,254.88,7Zm-.54,16.79a7.1,7.1,0,0,0,3.39-5,6.25,6.25,0,0,0-.38-4.55A3.59,3.59,0,0,0,254,12.53a5.64,5.64,0,0,0-3.17,1,7.6,7.6,0,0,0-3,5.06q-.66,3,.26,4.51t3.51,1.5A5.61,5.61,0,0,0,254.34,23.77Z" transform="translate(0 -6.69)"/><path class="cls-1" d="M2,97.59c-2.71,1.66-2.7,4.36,0,6l12.56,7.53c2.73,1.64,5,.37,5-2.81l.18-15.9c0-3.18-2.15-4.42-4.86-2.76Z" transform="translate(0 -6.69)"/></g></g></svg>