<svg xmlns="http://www.w3.org/2000/svg" viewBox="0 0 278.39 138.19"><defs><style>.cls-1{fill:#e0e0e0;}.cls-2{fill:#004864;}</style></defs><title>資產 194</title><g id="圖層_2" data-name="圖層 2"><g id="團隊名HL"><rect class="cls-1" x="34.08" y="51.16" width="244.31" height="87.03" rx="43.51" ry="43.51"/><path class="cls-2" d="M99.92,106.56A22.64,22.64,0,0,1,93,113.73a24.49,24.49,0,0,0-3.25-2.42,16,16,0,0,0,6.37-5.86Zm6.17-2.13v10.66h-3.92V104.43H90.44v-3.56h11.75V97.52H93.65V86.67h21.42V97.52h-9v3.34H118v3.56ZM97.41,94h13.66V90.14H97.41ZM111,105.23A49.32,49.32,0,0,1,118.6,111l-3.12,2.36a44.5,44.5,0,0,0-7.38-6.08Z" transform="translate(0 -6.69)"/><path class="cls-2" d="M153,111c.64,0,.76-1,.86-5.73a11.45,11.45,0,0,0,3.56,1.69c-.35,5.76-1.21,7.73-4,7.73h-2.58c-2.9,0-3.88-1.18-3.88-5.22V95.8h-7.32a38.41,38.41,0,0,1-.64,4.77,43.24,43.24,0,0,1,7.1,5.13l-2.77,3A37.74,37.74,0,0,0,138,104.4a19.38,19.38,0,0,1-7.86,10.73,11.23,11.23,0,0,0-2.86-3c6-3.76,7.8-9.61,8.34-16.3H129.1V92h6.72c.06-2.13.06-4.36.06-6.59H140c0,2.2,0,4.42-.13,6.59h11v17.41c0,1.3.1,1.53.67,1.53Z" transform="translate(0 -6.69)"/><path class="cls-2" d="M194.19,86.67V115h-3.95v-1.34H170.8V115H167V86.67Zm-3.95,23.49v-20H170.8v20Zm-3.66-.6c-1.37-1-3.21-2.17-5.28-3.41a22.89,22.89,0,0,1-7.83,3.57,12.48,12.48,0,0,0-1.72-3.12A21,21,0,0,0,178,104.3c-1.59-.89-3.25-1.75-4.9-2.48a49.55,49.55,0,0,0,2.51-4.3h-3.88V94.34h5.41a37.09,37.09,0,0,0,1.46-3.69l3.63.6c-.35,1-.76,2-1.21,3.09h3.09c.1-.6.19-1.24.25-1.88l3.69.19c-.09.57-.16,1.15-.29,1.69h1.5v3.18H187a17.36,17.36,0,0,1-3.25,6.3c2.26,1.27,4.3,2.45,5.79,3.47Zm-7-12c-.57,1.18-1.15,2.29-1.69,3.25.92.48,1.85,1,2.8,1.43a12.57,12.57,0,0,0,2.71-4.68Z" transform="translate(0 -6.69)"/><path class="cls-2" d="M214.21,86.61a51.83,51.83,0,0,1-3.15,6.94v21.55h-3.63V99.21c-.57.76-1.18,1.46-1.75,2.1a25.53,25.53,0,0,0-2-3.92,33.43,33.43,0,0,0,7-11.9Zm19.45,16h-8.15v8c0,2.1-.45,3.12-1.85,3.72s-3.47.64-6.3.64a14.2,14.2,0,0,0-1.27-3.82c2,.06,4.17.1,4.77.06s.83-.16.83-.67v-7.93h-8.56V99h8.56V94.63a30.53,30.53,0,0,0,4.77-3.5H215.1V87.59h14.8l.7-.19,2.61,1.88a39.88,39.88,0,0,1-7.7,6.84V99h8.15Z" transform="translate(0 -6.69)"/><path class="cls-1" d="M86.21,6.69h7.65l8.72,24,5.19-24h6.8l-7.41,34.38h-7.3l-9-24.42L85.59,41.08H78.8Z" transform="translate(0 -6.69)"/><path class="cls-1" d="M124.8,42q-6.66,0-9.06-4t-1.2-9.58a18.5,18.5,0,0,1,5.33-9.54,14.83,14.83,0,0,1,10.8-4q6.66,0,9,4a12.83,12.83,0,0,1,1.21,9.54A18.39,18.39,0,0,1,135.59,38,14.91,14.91,0,0,1,124.8,42Zm9-13.55q.83-3.83-.32-5.89a4.29,4.29,0,0,0-4.11-2.06,6.75,6.75,0,0,0-5,2.06,11.71,11.71,0,0,0-2.87,5.89q-.83,3.82.32,5.9A4.29,4.29,0,0,0,126,36.39a6.73,6.73,0,0,0,5-2.08A11.79,11.79,0,0,0,133.84,28.41Z" transform="translate(0 -6.69)"/><path class="cls-1" d="M144.41,34.13h7.18l-1.49,7h-7.18Z" transform="translate(0 -6.69)"/><path class="cls-1" d="M161.75,17.75l1-4.53a32.17,32.17,0,0,0,4.57-.42A8.17,8.17,0,0,0,171,11a7.43,7.43,0,0,0,1.85-2.43,6.2,6.2,0,0,0,.57-1.35H179l-7.29,33.82H164.8l5-23.33Z" transform="translate(0 -6.69)"/><path class="cls-1" d="M186.07,17.75l1-4.53a32.17,32.17,0,0,0,4.57-.42,8.17,8.17,0,0,0,3.7-1.77,7.43,7.43,0,0,0,1.85-2.43,6.2,6.2,0,0,0,.57-1.35h5.61L196,41.08h-6.92l5-23.33Z" transform="translate(0 -6.69)"/><path class="cls-1" d="M227.9,15.77a2.76,2.76,0,0,0-.26-1.8,2.91,2.91,0,0,0-2.94-1.59q-3.29,0-5.47,3.64A26.85,26.85,0,0,0,216.91,22a10.06,10.06,0,0,1,3.38-2.15,11.19,11.19,0,0,1,3.94-.68q4.57,0,6.83,3.06T232.29,30a16.46,16.46,0,0,1-4.67,8.35A13.16,13.16,0,0,1,217.93,42q-6.49,0-8.41-5.34-1.49-4.18-.07-10.78a55.74,55.74,0,0,1,1.71-6.3A23.92,23.92,0,0,1,215,12.36a15.88,15.88,0,0,1,4.7-3.94,12.29,12.29,0,0,1,6-1.49q4.78,0,7.11,2.41a7.41,7.41,0,0,1,1.8,6.43Zm-8.69,20.78a5.29,5.29,0,0,0,3.9-1.67,8.54,8.54,0,0,0,2.21-4.33q.64-3-.49-4.54a3.75,3.75,0,0,0-3.26-1.57,5.79,5.79,0,0,0-3.27,1,7.4,7.4,0,0,0-3.06,4.9,5.71,5.71,0,0,0,.53,4.46A3.8,3.8,0,0,0,219.21,36.55Z" transform="translate(0 -6.69)"/><path class="cls-1" d="M2,97.59c-2.71,1.66-2.7,4.36,0,6l12.56,7.53c2.73,1.64,5,.37,5-2.81l.18-15.9c0-3.18-2.15-4.42-4.86-2.76Z" transform="translate(0 -6.69)"/></g></g></svg>