<svg xmlns="http://www.w3.org/2000/svg" viewBox="0 0 390.93 138.19"><defs><style>.cls-1{fill:#e0e0e0;}.cls-2{fill:#004864;}</style></defs><title>資產 199</title><g id="圖層_2" data-name="圖層 2"><g id="團隊名HL"><rect class="cls-1" y="51.16" width="358.12" height="87.03" rx="43.51" ry="43.51"/><path class="cls-2" d="M68.74,101.28V105h-29v-3.69h6.84V95.17H40.85V91.51h5.73V85.62h3.95v5.89h7.32V85.62H61.8v5.89h6v3.66h-6v6.11ZM52,107.74a39.8,39.8,0,0,1-8.94,7.42,26.35,26.35,0,0,0-3.12-2.64A28.55,28.55,0,0,0,48,106.18Zm-1.46-6.46h7.32V95.17H50.53Zm9.33,4.81a93.27,93.27,0,0,1,8.66,6.84l-3.76,2.23A75.49,75.49,0,0,0,56.39,108Z" transform="translate(0 -6.69)"/><path class="cls-2" d="M105.4,92.11v22.95h-4V112.8H79.52V92.24H83.4v16.68h7V85.62h4v23.3h7.07V92.11Z" transform="translate(0 -6.69)"/><path class="cls-2" d="M120,109v2.45h-3.28V87.72h8.94V109Zm0-18v5.6h2.32V91Zm2.32,14.71V99.88H120v5.86Zm19.7,5.86c.51,0,.64-.25.73-2.45a9.57,9.57,0,0,0,3.06,1.34c-.38,3.47-1.3,4.36-3.41,4.36h-2.39c-2.87,0-3.47-1-3.47-4.07v-3.69h-2.48c-.54,4.2-2.23,6.72-8.24,8.08a9.51,9.51,0,0,0-1.94-3c4.9-.89,6.24-2.36,6.72-5.09h-4.42v-3h19.22v3h-5.38v3.63c0,.83.06.89.6.89ZM126.5,100.8c.83-.06,1.78-.16,2.83-.25V98.89H127V96.44h2.36V94.82h-2.77V92H134V90.36h-5.86V87.59H134v-2h3.53v2h6.08v2.77h-6.08V92h7.54v2.87h-3.25v1.62h2.67v2.45h-2.67v1.53h3.37V103h-9.68v-2.55h3.37V98.89H136.4V96.44h2.48V94.82h-6.68v1.62h2.45v2.45h-2.45v1.37l2.61-.25.06,2.39c-2.83.38-5.7.73-8.08,1Z" transform="translate(0 -6.69)"/><path class="cls-2" d="M157.5,109.52a3.31,3.31,0,0,1,6.62,0,3.32,3.32,0,0,1-6.62,0ZM158,93.29l-.13-4.74h5.83l-.16,4.74-1.11,10.89h-3.28Z" transform="translate(0 -6.69)"/><path class="cls-2" d="M196.61,88.33c2.93,2.74,6.72,6.65,8.37,9.33L201.77,100a27.86,27.86,0,0,0-1.66-2.42c-16.9.83-19.16.89-20.85,1.46A28.92,28.92,0,0,0,178,95.39a6.57,6.57,0,0,0,2.64-1.85,42.44,42.44,0,0,0,6.75-8.66l3.82,1.62a52.3,52.3,0,0,1-6.94,8.12l13-.41c-1.24-1.4-2.51-2.74-3.69-3.92Zm-16.3,12.79h21.45v13.94h-4.07v-1.59H184.2v1.62h-3.88Zm3.88,3.63v5.09h13.5v-5.09Z" transform="translate(0 -6.69)"/><path class="cls-2" d="M226.69,93.64H214.4v-3h5.51a30,30,0,0,0-2.07-4l2.93-1.37a29,29,0,0,1,2.39,4.23L221,90.65h5.67Zm-.92,19.73h-6.84v1.34h-3.18v-11h10Zm-.22-15.44H215.8V95.07h9.74Zm-9.74,1.43h9.74v2.83H215.8Zm3.12,7.38v3.56h3.57v-3.56Zm25.18-8.15v3.12h-18V98.61h3.79c.19-1.05.45-2.23.67-3.5h-2.86V92h3.41c.13-.8.22-1.59.35-2.36h-4.55V86.57h16.33v3.12h-8.05c-.13.76-.25,1.56-.41,2.36h6.59v6.56Zm-16.36,4.62h14.64v11.84h-3.69v-1h-7.42v1.15h-3.53Zm3.53,3.25v4.3h7.42v-4.3Zm3-11.36c-.22,1.27-.48,2.45-.7,3.5h4.33V95.1Z" transform="translate(0 -6.69)"/><path class="cls-2" d="M264.49,109.84a24.25,24.25,0,0,1-9.58,4.46,14.83,14.83,0,0,0-2.45-3c3.31-.48,7.1-1.53,9.07-2.77Zm4.84-2.2v7.45h-3.85v-7.45H253.16v-3.06h12.32V103h3.85v1.56h12.45v3.06Zm9.29-5H256.25V91.76h8.85V85.43H269v1.81h11.24v3H269v1.53h9.61Zm-3.95-8.12H260v1.4h14.64Zm0,3.95H260v1.46h14.64Zm-2,9.58a80.73,80.73,0,0,1,9.39,3.6l-2.39,2.58a76.09,76.09,0,0,0-9.26-3.92Z" transform="translate(0 -6.69)"/><path class="cls-2" d="M298.67,100.23a42.56,42.56,0,0,1-2.26,8.56c.54.32,1.18.79,2.07,1.3,2.2,1.27,5.25,1.5,9,1.5a124.45,124.45,0,0,0,13-.8,14,14,0,0,0-1.08,3.69c-2.58.13-8.37.35-12.13.35-4.27,0-7-.32-9.36-1.62-1.37-.76-2.48-1.81-3.18-1.81s-1.5,2.17-2.07,3.95l-2.42-3.5a13.29,13.29,0,0,1,3.15-3.15,31.62,31.62,0,0,0,1.56-5.6h-3.5c.64-1.88,1.37-4.42,2-6.91H291V92.81h6.49c-.57,2.23-1.24,4.77-1.88,7h1.15l.48-.1ZM294,91.89c-.35-1.43-1-3.76-1.53-5.47l2.9-.86c.54,1.72,1.21,3.88,1.66,5.32Zm7,.73h-2.61V89.5h4c-.25-1-.6-2.23-1-3.18l3.41-.6a32.68,32.68,0,0,1,1.24,3.79h2.93v1.78a24.42,24.42,0,0,0,2.48-6l3.18.86c-.25.83-.54,1.62-.83,2.45h6.14v3.12h-7.51c-.35.7-.7,1.3-1,1.91h6l.61-.19,2,1.56a32.06,32.06,0,0,1-3.53,3.69v1.24h3.69v3h-3.69v3.76c0,1.5-.19,2.39-1.24,2.9a9.19,9.19,0,0,1-4.11.54,9.75,9.75,0,0,0-1-3.12c1.18,0,2.36,0,2.71,0s.48-.1.48-.38v-3.72h-3.56v-3h3.56v-2A14.75,14.75,0,0,0,315,96.35h-4.36v-2c-.6-.54-1.56-1.27-2.16-1.72h-4.33v2.32h5v1.31c-.19,8.56-.38,11.71-1.11,12.7a2.33,2.33,0,0,1-1.81,1.18,17.49,17.49,0,0,1-2.8.13,7.8,7.8,0,0,0-.83-3,15.39,15.39,0,0,0,1.88.1.85.85,0,0,0,.8-.41c.38-.57.54-2.77.67-8.88h-1.81c-.13,3.82-.86,8.56-3.85,11.78a12,12,0,0,0-2.2-2.2c2.71-3.12,3-7.86,3-11.17Z" transform="translate(0 -6.69)"/><path class="cls-1" d="M107.71,6.69h7.65l8.72,24,5.19-24h6.8l-7.41,34.38h-7.3l-9-24.42-5.26,24.42h-6.8Z" transform="translate(0 -6.69)"/><path class="cls-1" d="M146.29,42q-6.66,0-9.06-4T136,28.41a18.5,18.5,0,0,1,5.33-9.54,14.83,14.83,0,0,1,10.8-4q6.66,0,9,4a12.83,12.83,0,0,1,1.21,9.54A18.39,18.39,0,0,1,157.08,38,14.91,14.91,0,0,1,146.29,42Zm9-13.55q.83-3.83-.32-5.89a4.29,4.29,0,0,0-4.11-2.06,6.75,6.75,0,0,0-5,2.06A11.71,11.71,0,0,0,143,28.41q-.83,3.82.32,5.9a4.29,4.29,0,0,0,4.11,2.08,6.73,6.73,0,0,0,5-2.08A11.79,11.79,0,0,0,155.34,28.41Z" transform="translate(0 -6.69)"/><path class="cls-1" d="M165.91,34.13h7.18l-1.49,7h-7.18Z" transform="translate(0 -6.69)"/><path class="cls-1" d="M179.38,34.43q2.18-3.38,8.36-7.16a67.85,67.85,0,0,0,7.06-4.71A8.94,8.94,0,0,0,198,17.71a4.61,4.61,0,0,0-.43-3.57,3.43,3.43,0,0,0-3.15-1.42A5.4,5.4,0,0,0,189.69,15a12.85,12.85,0,0,0-1.63,4.15h-6.56a19.54,19.54,0,0,1,3.08-7,12.57,12.57,0,0,1,10.68-5.06q5.45,0,8,3t1.52,7.87a13.32,13.32,0,0,1-3.7,6.67,31.09,31.09,0,0,1-5.85,4.32l-3.1,1.89q-2.91,1.77-4,2.57a10,10,0,0,0-2,1.84h15l-1.25,5.86H176.37A19.14,19.14,0,0,1,179.38,34.43Z" transform="translate(0 -6.69)"/><path class="cls-1" d="M230.62,24.49q-1.82,8.37-5.44,12.9T215,41.92q-6.56,0-8.23-4.53t.15-12.9q1.8-8.37,5.42-12.92T222.54,7q6.56,0,8.22,4.55T230.62,24.49Zm-14.45,12a5,5,0,0,0,4.61-3.09,37.78,37.78,0,0,0,2.88-8.92,32.55,32.55,0,0,0,1-9.05,3,3,0,0,0-3.3-2.94,5,5,0,0,0-4.62,2.94,35,35,0,0,0-2.91,9.05,30.76,30.76,0,0,0-1,8.92Q213.16,36.51,216.17,36.51Z" transform="translate(0 -6.69)"/><path class="cls-1" d="M239,30.7a7.38,7.38,0,0,0-.07,3.36q.71,2.45,4,2.45a6.15,6.15,0,0,0,3.77-1.34,6.31,6.31,0,0,0,2.32-3.86q.71-3.34-1.8-4.46a12.89,12.89,0,0,0-4.78-.63l1-4.76a14.18,14.18,0,0,0,4.74-.63,5.07,5.07,0,0,0,3.1-4,3.76,3.76,0,0,0-.46-3.15,3.44,3.44,0,0,0-3-1.21A5.09,5.09,0,0,0,243.93,14,7.76,7.76,0,0,0,242,18h-6.3a19.37,19.37,0,0,1,1.92-4.78A14.74,14.74,0,0,1,241,9.54a12,12,0,0,1,3.54-1.82,15.07,15.07,0,0,1,4.61-.63q4.93,0,7.4,2.51t1.58,6.73a9.3,9.3,0,0,1-2.89,5,8.35,8.35,0,0,1-2.75,1.75q.92,0,2.32,1.56Q256.86,27,256,31.12a13.78,13.78,0,0,1-4.64,7.55,14.11,14.11,0,0,1-9.64,3.25q-7.3,0-9.12-4.69a12.32,12.32,0,0,1-.26-6.53Z" transform="translate(0 -6.69)"/><path class="cls-1" d="M388.9,97.59c2.71,1.66,2.7,4.36,0,6l-12.56,7.53c-2.73,1.64-5,.37-5-2.81l-.18-15.9c0-3.18,2.15-4.42,4.86-2.76Z" transform="translate(0 -6.69)"/></g></g></svg>