<svg xmlns="http://www.w3.org/2000/svg" viewBox="0 0 276.1 138.19"><defs><style>.cls-1{fill:#d5de44;}.cls-2{fill:#004864;}</style></defs><title>資產 185</title><g id="圖層_2" data-name="圖層 2"><g id="團隊名"><rect class="cls-1" y="51.16" width="242.14" height="87.03" rx="43.51" ry="43.51"/><path class="cls-2" d="M56,97a16.55,16.55,0,0,1-3.06,7.67,15.25,15.25,0,0,0-3.18-2.29c2.51-3.06,2.8-7.26,2.8-10.22V88.64H64.37c-.16-1.05-.25-2.1-.32-3.21h3.79c.06,1.11.16,2.16.32,3.21h3.63a14.42,14.42,0,0,0-2.35-1.91L72,85.21a17.77,17.77,0,0,1,3.5,2.74l-1,.7h4.07v3.25H68.86A21.71,21.71,0,0,0,70.48,96a16.66,16.66,0,0,0,2.74-3.66l3.41,1a21.56,21.56,0,0,1-4.23,5.47,3.83,3.83,0,0,0,2.61,1.4c.8,0,1.08-.92,1.27-3.34a9.16,9.16,0,0,0,3,1.69c-.57,4.26-1.72,5.25-4.42,5.22a7.42,7.42,0,0,1-5.32-2.61,30,30,0,0,1-4.36,2.55,21.67,21.67,0,0,0-2.2-2.61,2,2,0,0,1-.32.51,2.7,2.7,0,0,1-2,.92,25.2,25.2,0,0,1-3.34.1,6.71,6.71,0,0,0-.76-2.83,17.58,17.58,0,0,0,2.29.13.93.93,0,0,0,.8-.29A6.06,6.06,0,0,0,60.08,97Zm19.61,14.2h3.53v3.37H50.18v-3.37H54V104H75.58ZM56.32,91.89v.25c0,.6,0,1.21-.06,1.88H63.7s0,.73-.06,1.15a23.91,23.91,0,0,1-.57,5.54,27.18,27.18,0,0,0,4.49-2.32A24.88,24.88,0,0,1,65,91.89Zm1.18,19.26h2.45V107H57.5ZM63.42,107v4.17H65.9V107Zm6,0v4.17h2.51V107Z" transform="translate(0 -6.69)"/><path class="cls-2" d="M113.77,105.67a16,16,0,0,1-5.76,5,65.41,65.41,0,0,0,9.61,1,11.41,11.41,0,0,0-1.81,3,54.29,54.29,0,0,1-12.32-2,59.24,59.24,0,0,1-13,2.42,10.61,10.61,0,0,0-1.3-2.86,64.54,64.54,0,0,0,9.9-1.34,19,19,0,0,1-3.34-2.07,24.37,24.37,0,0,1-3.95,2.13,9.89,9.89,0,0,0-2.29-2.58,20.6,20.6,0,0,0,3.76-1.78,21.51,21.51,0,0,1-1.5-1.81l2.71-1.05A13.82,13.82,0,0,0,95.5,105a14.72,14.72,0,0,0,1.88-1.85H92V90.94h8.21c.1-.41.16-.83.22-1.24H89.23V86.64h27.21v3.06H104.57a11.32,11.32,0,0,1-.45,1.24h9.61v12.22H101.54c-.32.41-.57.83-.89,1.24H110.9l.6-.16ZM95.66,94.28h14.26V93H95.66Zm0,3.37h14.26V96.38H95.66Zm0,3.37h14.26V99.75H95.66Zm2.36,6a22.59,22.59,0,0,0,5.44,2.48,17,17,0,0,0,4.71-2.58h-10Z" transform="translate(0 -6.69)"/><path class="cls-2" d="M152,103.32c-4.52,7.54-13,10.44-24.29,11.75a13.63,13.63,0,0,0-1.75-3.63c10.63-.89,18.62-3.18,22.57-9.64ZM135.63,91a55.75,55.75,0,0,1-5.79,11.2,25.32,25.32,0,0,0-3.31-1.85A36.27,36.27,0,0,0,132,90.08Zm6.88-5.57v19.8h-3.76V85.43Zm7.29,4.49a87.56,87.56,0,0,1,5.92,10.25l-3.25,1.91a91.1,91.1,0,0,0-5.73-10.57Z" transform="translate(0 -6.69)"/><path class="cls-2" d="M193.78,108.35H182.89v6.81H179v-6.81H164.65v-3.63h5V96.38H179V92.56h-6.81a28.63,28.63,0,0,1-4.33,5.79,29.32,29.32,0,0,0-3.28-2.45,24.54,24.54,0,0,0,6.68-10.6l3.85,1a20.4,20.4,0,0,1-1,2.61h18v3.66h-9.13v3.82h8.4v3.5h-8.4v4.84h10.89ZM179,104.72V99.88h-5.51v4.84Z" transform="translate(0 -6.69)"/><path class="cls-1" d="M49.72,6.69h7.65l8.72,24,5.19-24h6.8L70.66,41.08h-7.3l-9-24.42L49.1,41.08H42.3Z" transform="translate(0 -6.69)"/><path class="cls-1" d="M88.3,42q-6.66,0-9.06-4T78,28.41a18.5,18.5,0,0,1,5.33-9.54,14.83,14.83,0,0,1,10.8-4q6.66,0,9,4a12.83,12.83,0,0,1,1.21,9.54A18.39,18.39,0,0,1,99.09,38,14.91,14.91,0,0,1,88.3,42Zm9-13.55q.83-3.83-.32-5.89a4.29,4.29,0,0,0-4.11-2.06,6.75,6.75,0,0,0-5,2.06,11.71,11.71,0,0,0-2.87,5.89q-.83,3.82.32,5.9a4.29,4.29,0,0,0,4.11,2.08,6.73,6.73,0,0,0,5-2.08A11.79,11.79,0,0,0,97.35,28.41Z" transform="translate(0 -6.69)"/><path class="cls-1" d="M107.92,34.13h7.18l-1.49,7h-7.18Z" transform="translate(0 -6.69)"/><path class="cls-1" d="M125.26,17.75l1-4.53a32.17,32.17,0,0,0,4.57-.42,8.17,8.17,0,0,0,3.7-1.77,7.43,7.43,0,0,0,1.85-2.43,6.2,6.2,0,0,0,.57-1.35h5.61l-7.29,33.82h-6.92l5-23.33Z" transform="translate(0 -6.69)"/><path class="cls-1" d="M148.37,34.43q2.18-3.38,8.36-7.16a67.85,67.85,0,0,0,7.06-4.71,8.94,8.94,0,0,0,3.15-4.85,4.61,4.61,0,0,0-.43-3.57,3.43,3.43,0,0,0-3.15-1.42A5.4,5.4,0,0,0,158.68,15,12.85,12.85,0,0,0,157,19.13h-6.56a19.54,19.54,0,0,1,3.08-7,12.57,12.57,0,0,1,10.68-5.06q5.45,0,8,3t1.52,7.87a13.32,13.32,0,0,1-3.7,6.67,31.09,31.09,0,0,1-5.85,4.32l-3.1,1.89q-2.91,1.77-4,2.57a10,10,0,0,0-2,1.84h15l-1.25,5.86H145.37A19.14,19.14,0,0,1,148.37,34.43Z" transform="translate(0 -6.69)"/><path class="cls-1" d="M199.61,24.49q-1.82,8.37-5.44,12.9T184,41.92q-6.56,0-8.23-4.53t.15-12.9q1.8-8.37,5.42-12.92T191.53,7q6.56,0,8.22,4.55T199.61,24.49Zm-14.45,12a5,5,0,0,0,4.61-3.09,37.78,37.78,0,0,0,2.88-8.92,32.55,32.55,0,0,0,1-9.05,3,3,0,0,0-3.3-2.94,5,5,0,0,0-4.62,2.94,35,35,0,0,0-2.91,9.05,30.76,30.76,0,0,0-1,8.92Q182.15,36.51,185.16,36.51Z" transform="translate(0 -6.69)"/><path class="cls-1" d="M274.08,97.59c2.71,1.66,2.7,4.36,0,6l-12.56,7.53c-2.73,1.64-5,.37-5-2.81l-.18-15.9c0-3.18,2.15-4.42,4.86-2.76Z" transform="translate(0 -6.69)"/></g></g></svg>