<svg xmlns="http://www.w3.org/2000/svg" viewBox="0 0 298.8 138.19"><defs><style>.cls-1{fill:#e0e0e0;}.cls-2{fill:#004864;}</style></defs><title>資產 191</title><g id="圖層_2" data-name="圖層 2"><g id="團隊名HL"><rect class="cls-1" y="51.16" width="264.68" height="87.03" rx="43.51" ry="43.51"/><path class="cls-2" d="M40.65,93.83v-4.2H59.26v4.2H52.45v18.52h-5V93.83Z" transform="translate(0 -6.69)"/><path class="cls-2" d="M70.43,95.9v3H67.13v8.15A1.53,1.53,0,0,0,69,109q.38,0,.73,0a6,6,0,0,0,.67-.1v3.5a10.86,10.86,0,0,1-1.27.13c-.47,0-.92,0-1.37,0a13.16,13.16,0,0,1-2-.14,4.66,4.66,0,0,1-1.65-.56A2.94,2.94,0,0,1,63,110.64a4.2,4.2,0,0,1-.41-2V98.92H59.87v-3h2.74V91h4.52V95.9Z" transform="translate(0 -6.69)"/><path class="cls-2" d="M98.79,107.26a101.68,101.68,0,0,1,11.49,4.68l-1.78,3.25a105.15,105.15,0,0,0-12.73-5.54l1.43-2.39H96.06c-1.53,3.92-4.93,6.43-13.43,7.83a9.68,9.68,0,0,0-1.88-3.41c6.4-.86,9.39-2.29,10.89-4.42H82.15V104H92.87c.1-.51.19-1.08.25-1.66H81.41V99.11H93.64V97.43H84.22V94.24h9.42V92.62H82.4V89.28h6a18.2,18.2,0,0,0-1.78-2.8L90,85.14a14.07,14.07,0,0,1,2.39,3.72l-.92.41h7a29.45,29.45,0,0,0,2.26-4.14l4.07,1.05c-.7,1.11-1.43,2.16-2.13,3.09h6.11v3.34H97.55v1.62h9.74v3.18H97.55v1.69h12.67v3.28H97.14c-.06.57-.16,1.11-.25,1.66H109.3v3.21Z" transform="translate(0 -6.69)"/><path class="cls-2" d="M148.06,91c0,15.63,0,20.75-.92,22.31A3.55,3.55,0,0,1,144.5,115a28.63,28.63,0,0,1-4.49.1,7.67,7.67,0,0,0-1.11-3.41c1.72.13,3.25.13,3.95.13a1.19,1.19,0,0,0,1.15-.57c.67-.92.7-5.76.7-18.56H134.37a23.11,23.11,0,0,1-2.58,3.72h1.62v7.8a33.06,33.06,0,0,0,2.29-4.11c-.83-1.62-1.75-3.25-2.61-4.65l2.17-.92c.57.86,1.15,1.81,1.72,2.8.41-1,.79-2,1.15-3l2.45.73c-.64,1.62-1.34,3.31-2.1,4.93.83,1.62,1.59,3.18,2.16,4.52V96.47h2.8v13.72H130.62V96.44h.45A12.87,12.87,0,0,0,129.38,95v16.3c0,1.53-.22,2.45-1.15,3s-2.07.64-3.92.64a11.07,11.07,0,0,0-.89-3.21c1,.06,2.1,0,2.45,0s.45-.13.45-.51v-7.42c-.64.67-1.31,1.3-1.94,1.91l-.89-2.13c-.25,4.07-.86,8.43-2.2,11.65a11.17,11.17,0,0,0-2.55-2.1c1.72-4.36,1.85-10.66,1.85-15.25V86.51h8.79v6.84a19.79,19.79,0,0,0,3.92-8l3.72.86c-.29,1-.67,2.07-1,3.09h12.09ZM123.65,97.9c0,1.34,0,2.9-.1,4.52q1.19-.76,2.77-1.91V97.33l-1.11.8a15.38,15.38,0,0,0-1.56-2.29Zm0-8v4l1-.67c.51.6,1.11,1.27,1.66,1.91V89.92Zm15,16.55c-.38-1-.92-2.26-1.56-3.6-.73,1.4-1.46,2.64-2.13,3.72a15.83,15.83,0,0,0-1.56-1.08v1.78h7.23v-1.81Z" transform="translate(0 -6.69)"/><path class="cls-2" d="M185,94.69a36.64,36.64,0,0,1-3.44,11.84,14.71,14.71,0,0,0,5.63,5.28,14.8,14.8,0,0,0-2.61,3.31,17,17,0,0,1-5.35-5.09,21.17,21.17,0,0,1-6.75,5.22,15.92,15.92,0,0,0-2.17-3.44,16,16,0,0,0,6.84-5.44A40,40,0,0,1,175,99.94c-.48.76-1,1.53-1.46,2.2a22.23,22.23,0,0,0-2.1-2,31.77,31.77,0,0,1-4.39,4.11v.8l5.57-.48v3.21c-1.85.19-3.72.38-5.57.54v3.15c0,1.66-.29,2.51-1.4,3a11.71,11.71,0,0,1-4.62.54,11,11,0,0,0-1.08-3.21c1.24,0,2.61,0,3,0s.54-.13.54-.45V108.7c-2.2.22-4.3.41-6,.6l-.38-3.37c1.78-.16,4-.32,6.43-.54v-1.75a23.4,23.4,0,0,0,2.64-2.23h-3.31a29.52,29.52,0,0,1-3.57,2.29,23.17,23.17,0,0,0-2.51-2.86,27.22,27.22,0,0,0,6-4h-5.67V93.61H162V91.47h-3.63V88.29H162V85.4h3.5v2.9h2.83v2a27.88,27.88,0,0,0,2.07-4.14l3.47,1a34.3,34.3,0,0,1-3.5,6.4h2.26v2.51a38.89,38.89,0,0,0,3.09-10.73l3.85.6c-.32,1.75-.7,3.53-1.15,5.19h8.47v3.5ZM165.5,93.61H166a20.64,20.64,0,0,0,1.59-2.13h-2.1Zm5.22,5.57a16.3,16.3,0,0,0,1.53-2.32h-4.46a18,18,0,0,1-1.5,1.62h2.64l.67-.19Zm6.75-4.49a39.53,39.53,0,0,0,1.94,7.42,35.88,35.88,0,0,0,1.69-7.42Z" transform="translate(0 -6.69)"/><path class="cls-2" d="M224.41,110.92v3.34h-28.2v-3.34h12v-2.74H199v-3.25h9.26v-2.42h3.88v2.42h9.74v3.25h-9.74v2.74ZM199.84,94H196.3V87.94h12.22a13.15,13.15,0,0,0-.86-1.91L211.36,85a19.79,19.79,0,0,1,1.43,3h11.33V94h-3.37v2.55H217a41,41,0,0,1,5.32,5l-3,2a19.43,19.43,0,0,0-1.69-2c-14.23,1.15-15.95,1.27-17.22,1.78a32.73,32.73,0,0,0-1.08-3.28,5.23,5.23,0,0,0,2.26-1.15,31.77,31.77,0,0,0,2.93-2.35h-4.68Zm.16-2.64v1.94h20.28V91.38ZM215,99c-.57-.51-1.15-1-1.66-1.4l1.56-1h-5.51a42.68,42.68,0,0,1-3.69,3.05Z" transform="translate(0 -6.69)"/><path class="cls-1" d="M74.47,6.69h7.65l8.72,24L96,6.69h6.8L95.41,41.08h-7.3l-9-24.42L73.86,41.08h-6.8Z" transform="translate(0 -6.69)"/><path class="cls-1" d="M113.06,42q-6.66,0-9.06-4t-1.2-9.58a18.5,18.5,0,0,1,5.33-9.54,14.83,14.83,0,0,1,10.8-4q6.66,0,9,4a12.83,12.83,0,0,1,1.21,9.54A18.39,18.39,0,0,1,123.85,38,14.91,14.91,0,0,1,113.06,42Zm9-13.55q.83-3.83-.32-5.89a4.29,4.29,0,0,0-4.11-2.06,6.75,6.75,0,0,0-5,2.06,11.71,11.71,0,0,0-2.87,5.89q-.83,3.82.32,5.9a4.29,4.29,0,0,0,4.11,2.08,6.73,6.73,0,0,0,5-2.08A11.79,11.79,0,0,0,122.11,28.41Z" transform="translate(0 -6.69)"/><path class="cls-1" d="M132.67,34.13h7.18l-1.49,7h-7.18Z" transform="translate(0 -6.69)"/><path class="cls-1" d="M151.58,32a5.18,5.18,0,0,0,.82,3.35,3.61,3.61,0,0,0,3.07,1.18,5.59,5.59,0,0,0,4.19-1.74,8.81,8.81,0,0,0,2.25-4.37,6.74,6.74,0,0,0-.27-4.37q-.84-1.78-3.45-1.78a7.41,7.41,0,0,0-2.2.3,5.73,5.73,0,0,0-2.84,2.08l-6-.28L153.59,7.7h18.93l-1.23,5.65h-14l-2.82,7.39a18.48,18.48,0,0,1,2.72-1.33,11.55,11.55,0,0,1,3.7-.54,8.76,8.76,0,0,1,6.82,2.82q2.56,2.82,1.4,8.21a16.08,16.08,0,0,1-4.86,8.37A13.82,13.82,0,0,1,154.25,42q-4.9,0-7.49-2.59T144.85,32Z" transform="translate(0 -6.69)"/><path class="cls-1" d="M178.55,32a5.18,5.18,0,0,0,.82,3.35,3.61,3.61,0,0,0,3.07,1.18,5.59,5.59,0,0,0,4.19-1.74,8.81,8.81,0,0,0,2.25-4.37,6.74,6.74,0,0,0-.27-4.37q-.84-1.78-3.45-1.78a7.41,7.41,0,0,0-2.2.3,5.73,5.73,0,0,0-2.84,2.08l-6-.28L180.57,7.7h18.93l-1.23,5.65h-14l-2.82,7.39a18.48,18.48,0,0,1,2.72-1.33,11.55,11.55,0,0,1,3.7-.54,8.76,8.76,0,0,1,6.82,2.82q2.56,2.82,1.4,8.21a16.08,16.08,0,0,1-4.86,8.37A13.82,13.82,0,0,1,181.23,42q-4.9,0-7.49-2.59T171.83,32Z" transform="translate(0 -6.69)"/><path class="cls-1" d="M296.77,97.59c2.71,1.66,2.7,4.36,0,6l-12.56,7.53c-2.73,1.64-5,.37-5-2.81L279,92.41c0-3.18,2.15-4.42,4.86-2.76Z" transform="translate(0 -6.69)"/></g></g></svg>