<svg xmlns="http://www.w3.org/2000/svg" viewBox="0 0 265.57 138.19"><defs><style>.cls-1{fill:#e0e0e0;}.cls-2{fill:#004864;}</style></defs><title>資產 197</title><g id="圖層_2" data-name="圖層 2"><g id="團隊名HL"><rect class="cls-1" y="51.16" width="230.07" height="87.03" rx="43.51" ry="43.51"/><path class="cls-2" d="M74.72,93.67a42.1,42.1,0,0,1-3.41,4.87v16.62H67.53V102.71c-.89.86-1.75,1.66-2.61,2.36a37.38,37.38,0,0,0-2.58-3.28,31,31,0,0,0,8.75-9.52Zm-1.18-6.78a42.72,42.72,0,0,1-8.75,8.37,21.87,21.87,0,0,0-2.1-3.09,28.32,28.32,0,0,0,7.19-6.78ZM92.26,99.56H87.9v11.17c0,2-.38,3.09-1.78,3.66s-3.37.64-6.21.64a15.65,15.65,0,0,0-1.15-3.85c1.81.1,3.92.1,4.49.06s.8-.13.8-.6V99.56H74.66V96h17.6Zm-.8-8.75H76v-3.6H91.47Z" transform="translate(0 -6.69)"/><path class="cls-2" d="M130.07,92.56s0,1.24,0,1.69c-.29,13-.54,17.63-1.56,19.1a3.55,3.55,0,0,1-2.51,1.59,21.29,21.29,0,0,1-3.95.13,8.85,8.85,0,0,0-1.11-3.63c1.4.13,2.61.16,3.21.16a1.16,1.16,0,0,0,1.08-.54c.67-.86,1-4.74,1.18-15h-2.87c-.41,8.53-1.88,15.09-7.22,19.32a12.43,12.43,0,0,0-2.23-2.51c-4.58.48-9.17,1-12.6,1.24l-.45-3.18c1.78-.13,4-.29,6.46-.45v-1.91h-5.6v-2.67h5.6v-1.24H102V94.79h5.47V93.54H101.2V90.81h6.27V89.53c-1.85.13-3.66.22-5.38.25a11.81,11.81,0,0,0-.83-2.67A98.69,98.69,0,0,0,115,85.56l1.66,2.83c-1.69.35-3.66.64-5.73.86v1.56H117v1.75h3c0-2.1,0-4.3,0-6.65h3.63c0,2.32,0,4.55-.06,6.65Zm-25.08,6h2.48v-1.4H105Zm2.48,3.69v-1.43H105v1.43Zm3.44,7.89c1.81-.13,3.69-.29,5.54-.45,2.48-3.44,3.25-8,3.47-13.69H117V93.54h-6.11v1.24h5.63v9.84h-5.63v1.24h5.76v2.67h-5.76Zm2.48-11.59v-1.4h-2.48v1.4Zm-2.48,2.26v1.43h2.48v-1.43Z" transform="translate(0 -6.69)"/><path class="cls-2" d="M168.42,109.3H156.26v2.29c0,1.69-.38,2.51-1.69,3a18.22,18.22,0,0,1-5.44.48,12.23,12.23,0,0,0-1.15-3.18c1.5.06,3.41.06,3.88,0s.67-.1.67-.48V109.3H139.65v-3h12.89v-.92a23.2,23.2,0,0,0,3.5-1.85H145.82V100.9h13.85l.8-.19,2.13,1.94a44.55,44.55,0,0,1-6.08,3.66h11.9Zm-24.6-6h-3.6V96.79h2.39L142,87.34a44.29,44.29,0,0,0,6.43-1.78l1.53,2.2A30.36,30.36,0,0,1,145.66,89l.06.92h4v2.36h-3.92l.06,1.08h3.92v1.62a24.89,24.89,0,0,0,2.23-1.21c-.6-.38-1.21-.73-1.78-1.05l1.75-1.5c.64.32,1.3.7,2,1.08a12.17,12.17,0,0,0,1.27-1.34l2.48.73a13.45,13.45,0,0,1-1.69,1.91A12.84,12.84,0,0,1,158,95L156.1,96.7a21,21,0,0,0-1.85-1.56,23.37,23.37,0,0,1-2.58,1.66H162l.13-1.11h-3.76V93.32h4l.06-1.08h-3.88V89.88h4l.06-1.05h-4.3V86.45h8c-.16,3.34-.38,7.38-.67,10.34H168v6.52h-3.76V99.53H143.82Zm2.29-6.52h5.16a20.49,20.49,0,0,0-1.43-1.46v.35H146ZM156,90.93a16.6,16.6,0,0,0-1.65-1.34,16.17,16.17,0,0,1-2.58,1.59,17.66,17.66,0,0,0-2-1.69,14.55,14.55,0,0,0,2.42-1.24c-.6-.35-1.15-.67-1.72-1l1.69-1.46c.61.29,1.27.64,1.94,1a10.57,10.57,0,0,0,1.15-1.27l2.48.73a11.56,11.56,0,0,1-1.59,1.75c.64.45,1.21.89,1.66,1.27Z" transform="translate(0 -6.69)"/><path class="cls-1" d="M43.68,6.69h7.65L60,30.7l5.19-24H72L64.62,41.08h-7.3l-9-24.42L43.06,41.08h-6.8Z" transform="translate(0 -6.69)"/><path class="cls-1" d="M82.27,42q-6.66,0-9.06-4T72,28.41a18.5,18.5,0,0,1,5.33-9.54,14.83,14.83,0,0,1,10.8-4q6.66,0,9,4a12.83,12.83,0,0,1,1.21,9.54A18.39,18.39,0,0,1,93.06,38,14.91,14.91,0,0,1,82.27,42Zm9-13.55q.83-3.83-.32-5.89a4.29,4.29,0,0,0-4.11-2.06,6.75,6.75,0,0,0-5,2.06A11.71,11.71,0,0,0,79,28.41q-.83,3.82.32,5.9a4.29,4.29,0,0,0,4.11,2.08,6.73,6.73,0,0,0,5-2.08A11.79,11.79,0,0,0,91.31,28.41Z" transform="translate(0 -6.69)"/><path class="cls-1" d="M101.88,34.13h7.18l-1.49,7h-7.18Z" transform="translate(0 -6.69)"/><path class="cls-1" d="M119.22,17.75l1-4.53a32.17,32.17,0,0,0,4.57-.42,8.17,8.17,0,0,0,3.7-1.77,7.43,7.43,0,0,0,1.85-2.43,6.2,6.2,0,0,0,.57-1.35h5.61l-7.29,33.82h-6.92l5-23.33Z" transform="translate(0 -6.69)"/><path class="cls-1" d="M147.95,30.7a7.38,7.38,0,0,0-.07,3.36q.71,2.45,4,2.45a6.15,6.15,0,0,0,3.77-1.34,6.31,6.31,0,0,0,2.32-3.86q.71-3.34-1.8-4.46a12.89,12.89,0,0,0-4.78-.63l1-4.76a14.18,14.18,0,0,0,4.74-.63,5.07,5.07,0,0,0,3.1-4,3.76,3.76,0,0,0-.46-3.15,3.44,3.44,0,0,0-3-1.21A5.09,5.09,0,0,0,152.92,14,7.76,7.76,0,0,0,151,18h-6.3a19.37,19.37,0,0,1,1.92-4.78A14.74,14.74,0,0,1,150,9.54a12,12,0,0,1,3.54-1.82,15.07,15.07,0,0,1,4.61-.63q4.93,0,7.4,2.51t1.58,6.73a9.3,9.3,0,0,1-2.89,5,8.35,8.35,0,0,1-2.75,1.75q.92,0,2.32,1.56Q165.86,27,165,31.12a13.78,13.78,0,0,1-4.64,7.55,14.11,14.11,0,0,1-9.64,3.25q-7.3,0-9.12-4.69a12.32,12.32,0,0,1-.26-6.53Z" transform="translate(0 -6.69)"/><path class="cls-1" d="M188,15.77a2.76,2.76,0,0,0-.26-1.8,2.91,2.91,0,0,0-2.94-1.59q-3.29,0-5.47,3.64A26.85,26.85,0,0,0,177,22a10.06,10.06,0,0,1,3.38-2.15,11.19,11.19,0,0,1,3.94-.68q4.57,0,6.83,3.06T192.41,30a16.46,16.46,0,0,1-4.67,8.35A13.16,13.16,0,0,1,178.06,42q-6.49,0-8.41-5.34-1.49-4.18-.07-10.78a55.74,55.74,0,0,1,1.71-6.3,23.92,23.92,0,0,1,3.84-7.18,15.88,15.88,0,0,1,4.7-3.94,12.29,12.29,0,0,1,6-1.49q4.78,0,7.11,2.41a7.41,7.41,0,0,1,1.8,6.43Zm-8.69,20.78a5.29,5.29,0,0,0,3.9-1.67,8.54,8.54,0,0,0,2.21-4.33q.64-3-.49-4.54a3.75,3.75,0,0,0-3.26-1.57,5.79,5.79,0,0,0-3.27,1,7.4,7.4,0,0,0-3.06,4.9,5.71,5.71,0,0,0,.53,4.46A3.8,3.8,0,0,0,179.34,36.55Z" transform="translate(0 -6.69)"/><path class="cls-1" d="M263.55,97.59c2.71,1.66,2.7,4.36,0,6L251,111.12c-2.73,1.64-5,.37-5-2.81l-.18-15.9c0-3.18,2.15-4.42,4.86-2.76Z" transform="translate(0 -6.69)"/></g></g></svg>