<svg xmlns="http://www.w3.org/2000/svg" viewBox="0 0 336.61 138.19"><defs><style>.cls-1{fill:#e0e0e0;}.cls-2{fill:#004864;}</style></defs><title>資產 200</title><g id="圖層_2" data-name="圖層 2"><g id="團隊名HL"><rect class="cls-1" x="33.14" y="51.16" width="303.48" height="87.03" rx="43.51" ry="43.51"/><path class="cls-2" d="M118.44,100.74A22.18,22.18,0,0,0,113,97.3l1.78-2.86a24.74,24.74,0,0,1,5.54,3.15Zm-4.55,11.46a86.13,86.13,0,0,0,5.47-9.9l2.51,2.55c-1.53,3.31-3.37,6.84-5.09,9.9ZM120,92.15a20.75,20.75,0,0,0-5.28-3.6l1.85-2.77A20.06,20.06,0,0,1,122,89.09Zm23.11,11h-2.2V108h-7.38v3.21c0,1.85-.35,2.74-1.56,3.28s-2.9.57-5.28.57a12.15,12.15,0,0,0-1-3.37c1.53.06,3.21.06,3.72,0s.64-.13.64-.57V108h-6.78v-3H130v-1.81h-8.37V99.94H130V98.26H123.5v-3h1.4a15.64,15.64,0,0,0-1.78-3.47l2.61-1.15a13.81,13.81,0,0,1,2.07,3.76l-1.81.86h14.93v4.68h2.2Zm-2-15a93.55,93.55,0,0,1-17.76,2.51,11.72,11.72,0,0,0-.89-2.9,88.55,88.55,0,0,0,16.14-2.32Zm-10,7.07a16.32,16.32,0,0,0-1.69-4.36l2.77-.89a19.45,19.45,0,0,1,1.81,4.2Zm2.45,4.74h4.14V98.26h-4.14Zm4.14,3.21h-4.14V105h4.14Zm-2.36-9a28.24,28.24,0,0,0,2.48-4.77l3.5.92c-1,1.81-2,3.53-2.9,4.74Z" transform="translate(0 -6.69)"/><path class="cls-2" d="M161,93.26a36.75,36.75,0,0,1-2.36,4.36v17.51h-3.47V102.24a23.6,23.6,0,0,1-1.94,2,21.16,21.16,0,0,0-2.07-3.47,25.13,25.13,0,0,0,6.46-8.66Zm-.7-6.59a30.84,30.84,0,0,1-6.78,7.67,25,25,0,0,0-2-2.83,21.34,21.34,0,0,0,5.35-6.08ZM181.42,99H179v11.94c0,1.85-.25,2.87-1.43,3.5s-2.71.67-4.87.67a16.83,16.83,0,0,0-.89-3.41c-4.17.51-8.53,1-11.78,1.34l-.38-3.47c1.37-.1,3-.25,4.81-.41v-3.79h-3.95v-3.25h3.95V99h3.57v3.15H172v3.25h-3.92v3.44l4.46-.48.1,3c1,0,1.81,0,2.16,0s.54-.1.54-.48V99h-2.58V95.62h8.69ZM164.52,92h-3.6V88.9h3.6V85.4h3.6v3.5h3.6V92h-3.6v3.09h4.07v3.28H160.32V95.14h4.2Zm16.39-1.62h-8V87.12h8Z" transform="translate(0 -6.69)"/><path class="cls-2" d="M195.26,98.45v16.68h-3.76V86.61h12.16V98.45Zm0-8.94v1.72h4.87V89.5Zm4.87,6.08V93.77h-4.87v1.81Zm1.94,15.06v1.78h-3.53V100.64h12.32v10Zm0-6.87v3.76h5.25v-3.76Zm16.26,6.84c0,2.1-.45,3.18-1.78,3.79s-3.31.73-6.24.73a13.57,13.57,0,0,0-1.27-3.88c1.85.13,4,.1,4.62.06s.83-.19.83-.76V98.48h-8.63V86.61h12.48Zm-8.88-21.13v1.75h5V89.47Zm5,6.14V93.77h-5v1.85Z" transform="translate(0 -6.69)"/><path class="cls-2" d="M245.77,94.21c-.22.32-.48.6-.7.92a52.34,52.34,0,0,0,13.24,5.63,19,19,0,0,0-2.61,3.31,44.9,44.9,0,0,1-6.27-2.77v1.75H236.67v-1.31a39.84,39.84,0,0,1-6.27,2.77,14.72,14.72,0,0,0-2.36-3.09c6-1.81,11.59-5,14.39-8.69l2.13.92a20.88,20.88,0,0,0-2.64-2.45l.29-.25h-5.16a21.7,21.7,0,0,1,2.83,2.86l-2.77,2.36a21.83,21.83,0,0,0-3.15-3.5L236.13,91h-2a26.43,26.43,0,0,1-3.56,4.36,23.14,23.14,0,0,0-2.48-3.25,18.79,18.79,0,0,0,4.84-6.94l3.69,1.11c-.19.48-.41,1-.64,1.43h6.84v2.64a14.85,14.85,0,0,0,3-5.16l3.85,1c-.19.51-.38,1-.6,1.53h8.43V91h-6.3a16.76,16.76,0,0,1,2.61,2.61l-2.71,2.32a21.31,21.31,0,0,0-3.12-3.44l1.81-1.5h-2.48a15.2,15.2,0,0,1-2.26,2.9Zm-12.22,10.57h19v10.28h-3.79v-.86H237.18v1h-3.63Zm3.63,3.25v2.9h11.55V108Zm9.8-8.08c-1.5-.89-2.86-1.78-4-2.61a29.41,29.41,0,0,1-3.28,2.61Z" transform="translate(0 -6.69)"/><path class="cls-1" d="M113.52,6.69h7.65l8.72,24,5.19-24h6.8l-7.41,34.38h-7.3l-9-24.42-5.26,24.42h-6.8Z" transform="translate(0 -6.69)"/><path class="cls-1" d="M152.11,42q-6.66,0-9.06-4t-1.2-9.58a18.5,18.5,0,0,1,5.33-9.54,14.83,14.83,0,0,1,10.8-4q6.66,0,9,4a12.83,12.83,0,0,1,1.21,9.54A18.39,18.39,0,0,1,162.9,38,14.91,14.91,0,0,1,152.11,42Zm9-13.55q.83-3.83-.32-5.89a4.29,4.29,0,0,0-4.11-2.06,6.75,6.75,0,0,0-5,2.06,11.71,11.71,0,0,0-2.87,5.89q-.83,3.82.32,5.9a4.29,4.29,0,0,0,4.11,2.08,6.73,6.73,0,0,0,5-2.08A11.79,11.79,0,0,0,161.16,28.41Z" transform="translate(0 -6.69)"/><path class="cls-1" d="M171.72,34.13h7.18l-1.49,7h-7.18Z" transform="translate(0 -6.69)"/><path class="cls-1" d="M185.2,34.43q2.18-3.38,8.36-7.16a67.85,67.85,0,0,0,7.06-4.71,8.94,8.94,0,0,0,3.15-4.85,4.61,4.61,0,0,0-.43-3.57,3.43,3.43,0,0,0-3.15-1.42A5.4,5.4,0,0,0,195.5,15a12.85,12.85,0,0,0-1.63,4.15h-6.56a19.54,19.54,0,0,1,3.08-7,12.57,12.57,0,0,1,10.68-5.06q5.45,0,8,3t1.52,7.87a13.32,13.32,0,0,1-3.7,6.67,31.09,31.09,0,0,1-5.85,4.32L198,30.81q-2.91,1.77-4,2.57a10,10,0,0,0-2,1.84h15l-1.25,5.86H182.19A19.14,19.14,0,0,1,185.2,34.43Z" transform="translate(0 -6.69)"/><path class="cls-1" d="M236.43,24.49q-1.82,8.37-5.44,12.9t-10.17,4.53q-6.56,0-8.23-4.53t.15-12.9q1.8-8.37,5.42-12.92T228.36,7q6.56,0,8.22,4.55T236.43,24.49ZM222,36.51a5,5,0,0,0,4.61-3.09,37.78,37.78,0,0,0,2.88-8.92,32.55,32.55,0,0,0,1-9.05,3,3,0,0,0-3.3-2.94,5,5,0,0,0-4.62,2.94,35,35,0,0,0-2.91,9.05,30.76,30.76,0,0,0-1,8.92Q219,36.51,222,36.51Z" transform="translate(0 -6.69)"/><path class="cls-1" d="M261.56,33.8h-3.88l-1.56,7.28h-6.61l1.56-7.28h-13.6L238.73,28,255.79,7.46h7.58L258.79,28.6h3.88Zm-9.38-5.2L255.34,14,243.59,28.6Z" transform="translate(0 -6.69)"/><path class="cls-1" d="M2,97.59c-2.71,1.66-2.7,4.36,0,6l12.56,7.53c2.73,1.64,5,.37,5-2.81l.18-15.9c0-3.18-2.15-4.42-4.86-2.76Z" transform="translate(0 -6.69)"/></g></g></svg>