<svg xmlns="http://www.w3.org/2000/svg" viewBox="0 0 318.78 138.19"><defs><style>.cls-1{fill:#d5de44;}.cls-2{fill:#004864;}</style></defs><title>資產 186</title><g id="圖層_2" data-name="圖層 2"><g id="團隊名"><rect class="cls-1" x="31.03" y="51.16" width="287.75" height="87.03" rx="43.51" ry="43.51"/><path class="cls-2" d="M113.5,87v2.32H101.18v1.05h9.74v2.2h-23v-2.2h9.45V89.31h-12V87h12V85.4h3.82V87Zm-12.32,24.92h12.13v2.55H85.55v-2.55H97.36v-1H88.64v-2.23h8.72v-.92c-5.44.13-6.4.22-7.1.45-.13-.51-.51-1.69-.76-2.36a7.39,7.39,0,0,0,1.66-.41,18.29,18.29,0,0,0,2.16-.92H89V104H85.68V99.21h27.44V104h-3.56v-2.39H89.05v.92h20.37v2h-2.26a30.11,30.11,0,0,1,3.53,2.45l-2.07,1.72h1.88v2.23h-9.33Zm8.75-18.43v4.81H89.05V93.48Zm-3.72,1.85H92.52v1.11h13.69Zm-8.79,9.17c-.73.45-1.43.86-2.13,1.21l8.72-.13c-.61-.35-1.21-.67-1.72-1l.16-.13Zm3.76,4.17h7.13c-.38-.35-.89-.76-1.43-1.18l-5.7.16Z" transform="translate(0 -6.69)"/><path class="cls-2" d="M127.05,100a22.62,22.62,0,0,0-4.58-3.25l2.07-2.64a21.24,21.24,0,0,1,4.74,3Zm.54-8.18a21.26,21.26,0,0,0-4.46-3.5l2.16-2.55A23,23,0,0,1,129.92,89Zm-4.39,21a97.34,97.34,0,0,0,3.95-10.19l3,1.91c-1,3.41-2.32,7.07-3.57,10.15Zm8.47-15.18a14.68,14.68,0,0,1-1.3,4.27,10.69,10.69,0,0,0-1.56-1.11,10.76,10.76,0,0,0,1-3.6Zm3.95-1.3a10.23,10.23,0,0,0-.29-1c-4,.57-4.84.76-5.35,1a10.93,10.93,0,0,0-.73-1.56c.51-.06.92-.48,1.5-1.08a16.34,16.34,0,0,0,1.59-2,8.46,8.46,0,0,0-2.48.41,8.36,8.36,0,0,0-.76-1.5,1.67,1.67,0,0,0,1.05-.86A15.86,15.86,0,0,0,132,85.68l2,.73a16.45,16.45,0,0,1-2,3.47l1.43-.06a15.69,15.69,0,0,0,.76-1.43l1.94.92A27.18,27.18,0,0,1,132.84,94l1.81-.19c-.13-.29-.29-.57-.41-.83l1.59-.57a21.64,21.64,0,0,1,1.4,3.34Zm15.56,11.9a8.46,8.46,0,0,1-.19,1.34c-.51,2.55-1.08,3.95-1.94,4.65a5,5,0,0,1-3,.83c-1.05,0-3,0-4.93-.06a6.4,6.4,0,0,0-1-2.77c1.88.19,4,.22,4.77.22a2.28,2.28,0,0,0,1.37-.25,3.22,3.22,0,0,0,.92-1.66H131.09a53.71,53.71,0,0,0,1.43-5.44h13.59v-1H131.57V102h18v5.25h-14.1l-.25,1Zm-18.56-6.94a17.13,17.13,0,0,0-.6-3.69l1.62-.41a14.19,14.19,0,0,1,.67,3.56Zm2.74-.73a13.7,13.7,0,0,0-.86-3.41l1.46-.57a14.19,14.19,0,0,1,1,3.28Zm8.94-10.09H136.7v-2h3a15.52,15.52,0,0,0-1-2.26l2.48-.51a20.52,20.52,0,0,1,1.15,2.45l-1.27.32h3.21Zm-6.72,5.86h6.08v4.74h-6.08Zm6.08-3.31h-6V91.35h6Zm0,2.45h-6V93.8h6Zm-3.88,3.95h1.59v-1.4h-1.59Zm6.88-1.91a13.52,13.52,0,0,1-1.31,4.23,9.47,9.47,0,0,0-1.53-1.11,10.32,10.32,0,0,0,1-3.6Zm4-1.11c-.06-.29-.19-.64-.32-1-4,.54-4.87.73-5.38,1a6.81,6.81,0,0,0-.73-1.56,2.66,2.66,0,0,0,1.5-1.11,19.91,19.91,0,0,0,1.59-2,12.16,12.16,0,0,0-2.51.38,10.25,10.25,0,0,0-.7-1.53c.38-.06.67-.38,1-.86a14.18,14.18,0,0,0,1.94-4.07l2,.76a21.24,21.24,0,0,1-2,3.47l1.46-.06c.25-.48.51-1,.73-1.43l1.94.86A28.89,28.89,0,0,1,147.87,94l1.78-.19c-.13-.29-.25-.57-.38-.83l1.56-.57a19.52,19.52,0,0,1,1.43,3.41Zm-3.09,5.22a19.74,19.74,0,0,0-.64-4l1.62-.45a17.37,17.37,0,0,1,.7,3.85Zm3.41-5a18.32,18.32,0,0,1,1.15,3.85l-1.59.73a17.62,17.62,0,0,0-1.08-4Z" transform="translate(0 -6.69)"/><path class="cls-2" d="M172.37,110c-.48-.41-1.27-1-2.13-1.69v6.59h-3.56v-5.7a17.08,17.08,0,0,1-4.42,4.07,19.32,19.32,0,0,0-1.5-3.47,17.41,17.41,0,0,0,5.67-4.9h-4.65v-3.31h4.9V98.48h3.56v3.09h4.52v3.31h-4.52v.1c1.27.73,4.27,2.58,5.06,3.15Zm1.43-17.12a26.44,26.44,0,0,1-10.66,6.84,11.66,11.66,0,0,0-2.32-3,25.22,25.22,0,0,0,9.68-5.16h-8.18V88.26H173.8v-2.9h3.79v2.9h11.52v3.31H181c3.41,1.53,7.86,3.63,9.14,4.36l-1.18,3.53c-2.48-1.66-8-4.78-11.33-6.59v6.78H173.8ZM184.5,105a22.5,22.5,0,0,0,6.53,5.44,16.93,16.93,0,0,0-2.67,3,24.94,24.94,0,0,1-4.33-4.55v6.3h-3.6v-6.3a21.29,21.29,0,0,1-5.63,4.65,13.44,13.44,0,0,0-2.36-2.71,18.33,18.33,0,0,0,7.42-5.83h-4v-3.28h4.58V98.48H184v3.21h5.79V105Z" transform="translate(0 -6.69)"/><path class="cls-2" d="M221.58,110.16a16.66,16.66,0,0,0,3.79-.35c.1,1.05.29,2.74.48,3.63a18.25,18.25,0,0,1-4.36.32h-6.72c-4.74,0-6.43-1.85-6.43-6.87V100.1l-8.28,1.24-.64-3.82,8.91-1.37v-10h4.07v9.42l15-2.29.64,3.88-15.66,2.32v7.67c0,2.23.48,3,2.23,3Z" transform="translate(0 -6.69)"/><path class="cls-2" d="M259.77,110.16a16.66,16.66,0,0,0,3.79-.35c.1,1.05.29,2.74.48,3.63a18.25,18.25,0,0,1-4.36.32H253c-4.74,0-6.43-1.85-6.43-6.87V100.1l-8.28,1.24-.64-3.82,8.91-1.37v-10h4.07v9.42l15-2.29.64,3.88L250.6,99.46v7.67c0,2.23.48,3,2.23,3Z" transform="translate(0 -6.69)"/><path class="cls-1" d="M103.55,6.69h7.65l8.72,24,5.19-24h6.8l-7.41,34.38h-7.3l-9-24.42-5.26,24.42h-6.8Z" transform="translate(0 -6.69)"/><path class="cls-1" d="M142.14,42q-6.66,0-9.06-4t-1.2-9.58a18.5,18.5,0,0,1,5.33-9.54,14.83,14.83,0,0,1,10.8-4q6.66,0,9,4a12.83,12.83,0,0,1,1.21,9.54A18.39,18.39,0,0,1,152.93,38,14.91,14.91,0,0,1,142.14,42Zm9-13.55q.83-3.83-.32-5.89a4.29,4.29,0,0,0-4.11-2.06,6.75,6.75,0,0,0-5,2.06,11.71,11.71,0,0,0-2.87,5.89q-.83,3.82.32,5.9a4.29,4.29,0,0,0,4.11,2.08,6.73,6.73,0,0,0,5-2.08A11.79,11.79,0,0,0,151.18,28.41Z" transform="translate(0 -6.69)"/><path class="cls-1" d="M161.75,34.13h7.18l-1.49,7h-7.18Z" transform="translate(0 -6.69)"/><path class="cls-1" d="M179.09,17.75l1-4.53a32.17,32.17,0,0,0,4.57-.42,8.17,8.17,0,0,0,3.7-1.77,7.43,7.43,0,0,0,1.85-2.43,6.2,6.2,0,0,0,.57-1.35h5.61l-7.29,33.82h-6.92l5-23.33Z" transform="translate(0 -6.69)"/><path class="cls-1" d="M202.21,34.43q2.18-3.38,8.36-7.16a67.85,67.85,0,0,0,7.06-4.71,8.94,8.94,0,0,0,3.15-4.85,4.61,4.61,0,0,0-.43-3.57,3.43,3.43,0,0,0-3.15-1.42A5.4,5.4,0,0,0,212.51,15a12.85,12.85,0,0,0-1.63,4.15h-6.56a19.54,19.54,0,0,1,3.08-7,12.57,12.57,0,0,1,10.68-5.06q5.45,0,8,3t1.52,7.87a13.32,13.32,0,0,1-3.7,6.67,31.09,31.09,0,0,1-5.85,4.32L215,30.81q-2.91,1.77-4,2.57a10,10,0,0,0-2,1.84h15l-1.25,5.86H199.2A19.14,19.14,0,0,1,202.21,34.43Z" transform="translate(0 -6.69)"/><path class="cls-1" d="M229.19,34.43q2.18-3.38,8.36-7.16a67.85,67.85,0,0,0,7.06-4.71,8.94,8.94,0,0,0,3.15-4.85,4.61,4.61,0,0,0-.43-3.57,3.43,3.43,0,0,0-3.15-1.42A5.4,5.4,0,0,0,239.49,15a12.85,12.85,0,0,0-1.63,4.15h-6.56a19.54,19.54,0,0,1,3.08-7,12.57,12.57,0,0,1,10.68-5.06q5.45,0,8,3t1.52,7.87a13.32,13.32,0,0,1-3.7,6.67,31.09,31.09,0,0,1-5.85,4.32L242,30.81q-2.91,1.77-4,2.57a10,10,0,0,0-2,1.84h15l-1.25,5.86H226.18A19.14,19.14,0,0,1,229.19,34.43Z" transform="translate(0 -6.69)"/><path class="cls-1" d="M2,97.59c-2.71,1.66-2.7,4.36,0,6l12.56,7.53c2.73,1.64,5,.37,5-2.81l.18-15.9c0-3.18-2.15-4.42-4.86-2.76Z" transform="translate(0 -6.69)"/></g></g></svg>