<svg xmlns="http://www.w3.org/2000/svg" viewBox="0 0 353.42 138.19"><defs><style>.cls-1{fill:#e0e0e0;}.cls-2{fill:#004864;}</style></defs><title>資產 193</title><g id="圖層_2" data-name="圖層 2"><g id="團隊名HL"><rect class="cls-1" y="51.16" width="320.25" height="87.03" rx="43.51" ry="43.51"/><path class="cls-2" d="M57.89,93.67H47.45v-3H52a20.09,20.09,0,0,0-1.66-4.2l2.67-1a21.67,21.67,0,0,1,1.88,4.23l-2.26.92h5.28Zm-.83,19.7h-6v1.34H48.43V103.83h8.63ZM56.87,98H48.75V95.1h8.12Zm-8.12,1.46h8.12v2.83H48.75Zm2.32,7.29v3.76h3.28v-3.76ZM76.79,109a18.25,18.25,0,0,1-3.09,1.72,12.47,12.47,0,0,0,4,1.62A11,11,0,0,0,75.74,115a12.5,12.5,0,0,1-8.4-7.89h-.41a13.51,13.51,0,0,1-2.1,1.59v2.51l3.69-.6a19.62,19.62,0,0,0,.13,2.8c-5.09,1-6.08,1.31-6.65,1.66A9.18,9.18,0,0,0,60.43,113a3.93,3.93,0,0,0,1.5-2.67,26.44,26.44,0,0,1-3,1.18,15.47,15.47,0,0,0-1.72-2.36,23.3,23.3,0,0,0,5.41-2H57.85v-2.58h4.52v-1H59.29v-2.26h3.09v-1h-3.5V98h3.5v-1.4H59.32V91h7.58v5.57H65.72V98h3.37v-1.4h-1V91h7.7v5.57H72.5V98h3.92v2.26H72.5v1H76v2.26H72.5v1h4.62v2.58H70.46A10.2,10.2,0,0,0,71.8,109a28.07,28.07,0,0,0,3.09-1.85Zm-.06-18.87H58.2V87.43h7.51a12.49,12.49,0,0,0-.7-1.59l3.15-1a14.4,14.4,0,0,1,1.24,2.55h7.32ZM62,94.63h2V93H62Zm3.69,6.65h3.37v-1H65.72Zm0,3.28h3.37v-1H65.72Zm5.09-9.93h2.13V93H70.81Z" transform="translate(0 -6.69)"/><path class="cls-2" d="M113.81,100.48a31.46,31.46,0,0,1-5.28,7c.86,2.45,1.85,3.92,2.8,3.92.67,0,1-1.53,1.21-5.28a9.66,9.66,0,0,0,3.12,2.16c-.61,5.57-1.78,7-4.68,7-2.32,0-4.11-1.91-5.47-5a33,33,0,0,1-5.89,3.88A16.55,16.55,0,0,0,97.09,111a32.42,32.42,0,0,0,7.1-4.49A59.12,59.12,0,0,1,102.57,98H96.11v3.63l4.9-.89.29,3.44-5.19,1.05v5.44c0,2.07-.45,3.09-1.72,3.69s-3.15.76-5.73.73a15.19,15.19,0,0,0-1.34-3.82c1.78.1,3.63.06,4.2,0s.76-.16.76-.67V106c-2,.41-4,.83-5.7,1.15l-.92-3.82c1.81-.29,4.11-.64,6.62-1.08V98h-6V94.4h6V90.78c-1.72.29-3.47.51-5.09.7a14.43,14.43,0,0,0-1.08-3.18,80.72,80.72,0,0,0,12.64-2.67l2.55,3.21c-1.59.48-3.34.89-5.19,1.27v4.3h6.11c-.25-2.86-.35-5.83-.38-8.72h4a78.41,78.41,0,0,0,.32,8.72h8.66V98h-8.28c.25,1.91.57,3.76.92,5.38a26.51,26.51,0,0,0,3-4.33Zm-2.32-7A25.26,25.26,0,0,0,107,88.23l2.87-1.94a27.46,27.46,0,0,1,4.71,5.06Z" transform="translate(0 -6.69)"/><path class="cls-2" d="M127.75,85.24h10.54v3.44H131.5v16.9h-3.76Z" transform="translate(0 -6.69)"/><path class="cls-2" d="M175.33,112.39H162.85v2.71H159v-2.71H146.68v-2.9H159v-1.24h-9.36V98.61h9V93.86H148.4V86.45h25.24v7.42h-11.2v1.08h11.08v2.51H162.43v1.15h9.84v9.64h-9.42v1.24h12.45ZM155.59,89.12H152v2h3.57Zm-2.29,13.15h15.12v-1.21H153.3Zm0,3.53h15.12v-1.21H153.3Zm5.76-14.64h3.6v-2h-3.6Zm7.07,0h3.72v-2h-3.72Z" transform="translate(0 -6.69)"/><path class="cls-2" d="M194.23,115.29H183.66v-3.44h6.78V94.95h3.79Z" transform="translate(0 -6.69)"/><path class="cls-2" d="M222.42,112.29a15.45,15.45,0,0,0,3.63-3.31l3,1.78a19.13,19.13,0,0,1-5.32,4.39c-.45-.48-1.21-1.21-1.88-1.78h-7.13v1.46H212V106.5l-.57.67c-.13-.22-.32-.57-.57-1a32.6,32.6,0,0,1-1.78,8.59,13.15,13.15,0,0,0-2.8-1.53c1.78-4.62,1.91-11.3,1.91-15.95V87.72a61.8,61.8,0,0,0,11.2-1.88l2.74,2.51a62.63,62.63,0,0,1-10.85,1.85v1h10.7v7.35h-8.34l2.1.57c-.19.64-.41,1.24-.64,1.88h1.65c-.22-.6-.48-1.24-.73-1.78l2.48-.64a14.84,14.84,0,0,1,1.08,2.42h2.64v2.36h-3v1.11h2.64v2.07h-2.64v1.11h2.67v2.16h-2.67v1.15h3.21Zm-11.2-13.78c0,1.37-.06,2.86-.16,4.42a16.32,16.32,0,0,0,2-4.42Zm0-4.55v1.75h7.32V94Zm5.54,9.36h-2.07v1.11h2.07Zm0,3.18h-2.07v1.15h2.07Zm-2.07,4.42h2.07v-1.15h-2.07Zm12.51-19c.1-.67.16-1.37.22-2h-4.71V86.67h13.21v3.18h-4.74c-.19.7-.38,1.4-.57,2h4.52v16.68H223.38V91.89Zm4.74,2.83h-5.47v1.91h5.47Zm0,4.52h-5.47v2h5.47Zm0,4.62h-5.47v1.91h5.47Zm.64,5.19a28,28,0,0,1,3.85,4l-2.87,1.91a26.76,26.76,0,0,0-3.69-4.23Z" transform="translate(0 -6.69)"/><path class="cls-2" d="M254.92,86.64a48.18,48.18,0,0,1-3,6.53v21.9h-3.63V98.8a30.58,30.58,0,0,1-2.13,2.58,24.4,24.4,0,0,0-2-3.95,33.51,33.51,0,0,0,7.23-11.91Zm11.27,8v16.3c0,1.81-.32,2.86-1.46,3.5a10,10,0,0,1-4.68.76,12.92,12.92,0,0,0-1.31-3.82c1.34,0,2.67,0,3.12,0s.57-.13.57-.54V94.6h-3.69a27.06,27.06,0,0,1-3,4.87A26.53,26.53,0,0,0,252.69,97c2.42-2.71,4.33-7.1,5.41-11.46l3.69.83a48,48,0,0,1-1.5,4.74h11l.6-.13,2.67.51c-.38,2.58-.92,5.54-1.37,7.38l-3.21-.54c.16-1,.35-2.32.51-3.72Zm-5.28,5.73A32.71,32.71,0,0,1,256.57,111a23.44,23.44,0,0,0-3.25-2c1.81-2.23,3.15-5.83,3.88-9.36Zm9.8-1.08a39.35,39.35,0,0,1,3.47,10.38l-3.63,1.24a40.3,40.3,0,0,0-3.21-10.47Z" transform="translate(0 -6.69)"/><path class="cls-1" d="M102.26,6.69h7.65l8.72,24,5.19-24h6.8L123.2,41.08h-7.3l-9-24.42-5.26,24.42h-6.8Z" transform="translate(0 -6.69)"/><path class="cls-1" d="M140.85,42q-6.66,0-9.06-4t-1.2-9.58a18.5,18.5,0,0,1,5.33-9.54,14.83,14.83,0,0,1,10.8-4q6.66,0,9,4A12.83,12.83,0,0,1,157,28.41,18.39,18.39,0,0,1,151.64,38,14.91,14.91,0,0,1,140.85,42Zm9-13.55q.83-3.83-.32-5.89a4.29,4.29,0,0,0-4.11-2.06,6.75,6.75,0,0,0-5,2.06,11.71,11.71,0,0,0-2.87,5.89q-.83,3.82.32,5.9A4.29,4.29,0,0,0,142,36.39a6.73,6.73,0,0,0,5-2.08A11.79,11.79,0,0,0,149.9,28.41Z" transform="translate(0 -6.69)"/><path class="cls-1" d="M160.46,34.13h7.18l-1.49,7H159Z" transform="translate(0 -6.69)"/><path class="cls-1" d="M189.67,7q7.84,0,9.29,6.83.83,3.87-.54,10.19a33.73,33.73,0,0,1-3.79,10.24q-4.71,7.81-12.81,7.81a9.5,9.5,0,0,1-6.46-2.25q-2.59-2.25-2.12-6.57H180a3.16,3.16,0,0,0,.75,2.43,3.29,3.29,0,0,0,2.57.93q3.34,0,5.47-3.64a24,24,0,0,0,2.2-5.86,10.3,10.3,0,0,1-2.34,1.75A10.38,10.38,0,0,1,183.7,30,8.69,8.69,0,0,1,177,27.19q-2.58-2.79-1.45-8a15.67,15.67,0,0,1,5.09-8.81A13.38,13.38,0,0,1,189.67,7Zm-.54,16.79a7.1,7.1,0,0,0,3.39-5,6.25,6.25,0,0,0-.38-4.55,3.59,3.59,0,0,0-3.36-1.68,5.64,5.64,0,0,0-3.17,1,7.6,7.6,0,0,0-3,5.06q-.66,3,.26,4.51t3.51,1.5A5.61,5.61,0,0,0,189.12,23.77Z" transform="translate(0 -6.69)"/><path class="cls-1" d="M216.65,7q7.84,0,9.29,6.83.83,3.87-.54,10.19a33.73,33.73,0,0,1-3.79,10.24q-4.71,7.81-12.81,7.81a9.5,9.5,0,0,1-6.46-2.25q-2.59-2.25-2.12-6.57h6.73a3.16,3.16,0,0,0,.75,2.43,3.29,3.29,0,0,0,2.57.93q3.34,0,5.47-3.64a24,24,0,0,0,2.2-5.86,10.3,10.3,0,0,1-2.34,1.75,10.38,10.38,0,0,1-4.9,1.12A8.69,8.69,0,0,1,204,27.19q-2.58-2.79-1.45-8a15.67,15.67,0,0,1,5.09-8.81A13.38,13.38,0,0,1,216.65,7Zm-.54,16.79a7.1,7.1,0,0,0,3.39-5,6.25,6.25,0,0,0-.38-4.55,3.59,3.59,0,0,0-3.36-1.68,5.64,5.64,0,0,0-3.17,1,7.6,7.6,0,0,0-3,5.06q-.66,3,.26,4.51t3.51,1.5A5.61,5.61,0,0,0,216.1,23.77Z" transform="translate(0 -6.69)"/><path class="cls-1" d="M351.39,97.59c2.71,1.66,2.7,4.36,0,6l-12.56,7.53c-2.73,1.64-5,.37-5-2.81l-.18-15.9c0-3.18,2.15-4.42,4.86-2.76Z" transform="translate(0 -6.69)"/></g></g></svg>