<?xml version="1.0" encoding="utf-8"?>
<!-- Generator: Adobe Illustrator 20.1.0, SVG Export Plug-In . SVG Version: 6.00 Build 0)  -->
<svg version="1.1" id="圖層_1" xmlns="http://www.w3.org/2000/svg" xmlns:xlink="http://www.w3.org/1999/xlink" x="0px" y="0px"
	 viewBox="0 0 853 1170" style="enable-background:new 0 0 853 1170;" xml:space="preserve">
<style type="text/css">
	.st0{fill:#000066;stroke:#00009B;stroke-width:6;stroke-linecap:round;stroke-linejoin:round;}
	.st1{fill:#FFEA36;}
</style>
<polygon class="st0" points="412.5,917.6 169.5,917.6 259.4,741.9 502.4,741.9 "/>
<polygon class="st0" points="412.5,780.6 169.5,780.6 259.4,604.9 502.4,604.9 "/>
<polygon class="st0" points="412.5,643.6 169.5,643.6 259.4,467.9 502.4,467.9 "/>
<polygon class="st0" points="438.1,1031.4 195,1031.4 284.9,855.7 527.9,855.7 "/>
<polygon class="st0" points="760.3,677.4 240.1,677.4 329.9,501.7 850.1,501.7 "/>
<polygon class="st0" points="760.3,574.7 240.1,574.7 329.9,399 850.1,399 "/>
<rect x="240.1" y="574.7" class="st0" width="520.2" height="102.7"/>
<polygon class="st0" points="760.3,547.5 240.1,547.5 329.9,371.8 850.1,371.8 "/>
<polygon class="st0" points="760.3,444.8 240.1,444.8 329.9,269.1 850.1,269.1 "/>
<rect x="240.1" y="444.8" class="st0" width="520.2" height="102.7"/>
<polygon class="st0" points="760.3,417.6 240.1,417.6 329.9,241.9 850.1,241.9 "/>
<polygon class="st0" points="760.3,314.9 240.1,314.9 329.9,139.2 850.1,139.2 "/>
<rect x="240.1" y="314.9" class="st0" width="520.2" height="102.7"/>
<polygon class="st0" points="760.3,287.7 240.1,287.7 329.9,112 850.1,112 "/>
<polygon class="st0" points="760.3,185 240.1,185 329.9,9.3 850.1,9.3 "/>
<rect x="240.1" y="185" class="st0" width="520.2" height="102.7"/>
<polygon class="st0" points="660.5,893.3 143,893.3 232.9,717.6 750.4,717.6 "/>
<polygon class="st0" points="660.5,790.7 143,790.7 232.9,615 750.4,615 "/>
<rect x="143" y="790.7" class="st0" width="517.5" height="102.7"/>
<polygon class="st0" points="660.5,756.2 143,756.2 232.9,580.5 750.4,580.5 "/>
<polygon class="st0" points="660.5,653.5 143,653.5 232.9,477.8 750.4,477.8 "/>
<rect x="143" y="653.5" class="st0" width="517.5" height="102.7"/>
<polygon class="st0" points="660.5,619.1 143,619.1 232.9,443.4 750.4,443.4 "/>
<polygon class="st0" points="660.5,516.4 143,516.4 232.9,340.7 750.4,340.7 "/>
<rect x="143" y="516.4" class="st0" width="517.5" height="102.7"/>
<polygon class="st0" points="660.5,481.9 143,481.9 232.9,306.2 750.4,306.2 "/>
<polygon class="st0" points="660.5,379.3 143,379.3 232.9,203.5 750.4,203.5 "/>
<rect x="143" y="379.3" class="st0" width="517.5" height="102.7"/>
<polygon class="st0" points="246.1,966.8 3,966.8 92.9,791 335.9,791 "/>
<polygon class="st0" points="246.1,966.8 246.1,1069.4 335.9,893.7 335.9,791 "/>
<rect x="3" y="966.8" class="st0" width="243" height="102.7"/>
<polygon class="st0" points="246.1,829.8 3,829.8 92.9,654.1 335.9,654.1 "/>
<polygon class="st0" points="246.1,829.8 246.1,932.5 335.9,756.7 335.9,654.1 "/>
<rect x="3" y="829.8" class="st0" width="243" height="102.7"/>
<polygon class="st0" points="246.1,692.8 3,692.8 92.9,517.1 335.9,517.1 "/>
<polygon class="st0" points="246.1,692.8 246.1,795.5 335.9,619.8 335.9,517.1 "/>
<rect x="3" y="692.8" class="st0" width="243" height="102.7"/>
<polygon class="st0" points="246.1,555.9 3,555.9 92.9,380.1 335.9,380.1 "/>
<polygon class="st0" points="246.1,555.9 246.1,658.5 335.9,482.8 335.9,380.1 "/>
<rect x="3" y="555.8" class="st0" width="243" height="102.7"/>
<path class="st1" d="M117.9,1076.5c1,0,1.9-0.8,1.9-1.9v-7.9c0.1-0.9-0.5-1.7-1.4-1.9c-0.9-0.1-1.7,0.5-1.9,1.4c0,0.2,0,0.3,0,0.5
	v0.4c0,1-0.8,1.9-1.9,1.9h-2.7c-1,0-1.9,0.8-1.9,1.9v3.7c0,1,0.8,1.9,1.9,1.9H117.9L117.9,1076.5z"/>
<path class="st1" d="M125.6,1098c-1,0-1.9-0.8-1.9-1.9v-14.8c0-1-0.8-1.9-1.9-1.9h-6.7c-1,0-1.9,0.8-1.9,1.9v8.3
	c0.1,1-0.7,1.8-1.6,1.9s-1.7,0.9-1.6,1.9v6c-0.1,1,0.7,1.8,1.6,1.9h24.5c0.9,0.1,1.7-0.5,1.9-1.4c0.1-0.9-0.5-1.7-1.4-1.9
	c-0.2,0-0.3,0-0.5,0H125.6L125.6,1098z"/>
<path class="st1" d="M98.8,1075c1.7,0,3.1-1.2,3.4-2.8c0.1-1.5-1-2.7-2.5-2.8c-0.1,0-0.2,0-0.4,0H86.1c-1.5,0-2.8-1.2-2.8-2.7
	c0-0.1,0-0.2,0-0.4l0.9-9.5c0.2-1.5-0.9-2.9-2.4-3.1c-0.1,0-0.2,0-0.4,0H66.6c-0.3,1-0.4,2-0.5,3.1l-3.6,37.7
	c-0.2,1.7-1.6,3-3.4,3.1h-5.7c-1.7,0-3.1,1.2-3.4,2.8c-0.1,1.5,1,2.7,2.5,2.8c0.1,0,0.2,0,0.4,0h11.3c1.7,0,3.2-1.3,3.4-3.1
	l1.1-11.4c0.2-1.7,1.6-3,3.4-3.1h11.4c1.5,0,2.8,1.2,2.8,2.7c0,0.1,0,0.2,0,0.4l-1.1,11.4c-0.2,1.5,0.9,2.9,2.4,3.1
	c0.1,0,0.2,0,0.4,0h4.5c1.7,0,3.1-1.2,3.4-2.8c0.2-1.3-0.7-2.6-2-2.8c-0.1,0-0.2,0-0.3,0c-1.4,0-2.4-1.4-2.2-3.1l1.1-11.4
	c0.2-1.5-0.9-2.9-2.4-3.1c-0.1,0-0.2,0-0.4,0h-4.6c-1.7,0-3-1.1-2.8-2.5c0.3-1.5,1.8-2.6,3.3-2.5L98.8,1075L98.8,1075z"/>
<path class="st1" d="M76.7,1036.8c1.2-1.6,2.9-1.4,3.8,0.5l3.4,7.8c0.6,1.1,0.3,2.5-0.8,3.1c-0.4,0.3-0.9,0.4-1.4,0.3H71.5
	c-2,0-2.7-1.3-1.4-2.9L76.7,1036.8z"/>
</svg>
