<?xml version="1.0" encoding="utf-8"?>
<!-- Generator: Adobe Illustrator 20.1.0, SVG Export Plug-In . SVG Version: 6.00 Build 0)  -->
<svg version="1.1" id="圖層_1" xmlns="http://www.w3.org/2000/svg" xmlns:xlink="http://www.w3.org/1999/xlink" x="0px" y="0px"
	 viewBox="0 0 660 212" style="enable-background:new 0 0 660 212;" xml:space="preserve">
<style type="text/css">
	.st0{fill:none;stroke:#FFEA36;stroke-width:7.06;stroke-linecap:round;stroke-miterlimit:10;}
	.st1{fill:none;stroke:#FFEA36;stroke-width:14.12;stroke-linecap:round;stroke-miterlimit:10;}
	.st2{fill:#FFEA36;}
	.st3{fill:none;stroke:#FFEA36;stroke-width:4.73;stroke-linecap:round;stroke-miterlimit:10;}
	.st4{fill:none;stroke:#FFEA36;stroke-width:5.32;stroke-linecap:round;stroke-miterlimit:10;}
	.st5{fill:#CFBA00;}
	.st6{fill:#A59400;}
	.st7{fill:#6E6400;}
	.st8{fill:#474829;}
</style>
<line class="st0" x1="330.9" y1="44.5" x2="330.6" y2="45.9"/>
<line class="st1" x1="332.3" y1="38.3" x2="332.3" y2="38.3"/>
<path class="st2" d="M282.8,24.5c1.4-1.8,3.2-1.5,4.1,0.5l3.7,8.5c0.7,1.2,0.3,2.7-0.9,3.4c-0.5,0.3-1,0.4-1.6,0.3H277
	c-2.2,0-2.9-1.4-1.6-3.2L282.8,24.5z"/>
<path class="st2" d="M307.2,36.1c-1.6,0-3,1.2-3.2,2.8c-0.3,1.7-1.8,2.9-3.5,2.8h-24.6c-1.9,0-3.4,1.5-3.5,3.4l-2.4,47
	c-0.1,1.9-1.7,3.3-3.5,3.4h-6.2c-1.8,0-3.3,1.3-3.5,3.1c0,1.7,1.3,3,2.9,3.1c0.1,0,0.2,0,0.2,0h12.3c1.9,0,3.4-1.5,3.5-3.4l0.8-18.5
	c0.1-1.9,1.6-3.3,3.5-3.4h12.3c1.7,0,3,1.3,3,3c0,0.1,0,0.2,0,0.3v0.4c-0.2,1.8-0.4,4.7-0.5,6.4c0,1.7,1.3,3,2.9,3.1
	c0.1,0,0.2,0,0.2,0h4.9c1.8,0,3.3-1.3,3.5-3.1c0.2-1.5-0.9-2.9-2.4-3c-0.1,0-0.1,0-0.2,0c-1.5,0-2.6-1.5-2.5-3.3l0.5-6.6
	c0.2-1.8,0.3-3.3,0.3-3.3h-8.9c-1.5-0.1-2.7-1.3-2.6-2.8c0-0.1,0-0.1,0-0.2c0.2-1.8,1.8-3.1,3.5-3h5c1.9,0,3.4-1.5,3.5-3.4l0.3-5.1
	c0.2-1.6-1-3.1-2.6-3.3c-0.1,0-0.2,0-0.2,0c-1.6,0-3,1.2-3.2,2.8c-0.1,1.6-1.4,2.8-2.9,2.8s-2.7-1.5-2.6-3.4l0.2-3.6
	c0.1-1.9,1.7-3.3,3.5-3.4h11c1.9,0,3.4-1.5,3.5-3.4l0.3-5.1c0.2-1.6-1-3.1-2.6-3.3C307.3,36.2,307.3,36.1,307.2,36.1z"/>
<path class="st2" d="M379.9,24.5c-1.4-1.8-3.2-1.5-4.1,0.5l-3.7,8.5c-0.7,1.2-0.3,2.7,0.9,3.4c0.5,0.3,1,0.4,1.6,0.3h11.1
	c2.2,0,2.9-1.4,1.6-3.2L379.9,24.5z"/>
<path class="st2" d="M355.6,36.1c1.6,0,3,1.2,3.2,2.8c0.3,1.7,1.8,2.9,3.5,2.8h24.6c1.9,0,3.4,1.5,3.6,3.3l3.4,44.6
	c0.2,1.9,1.7,3.3,3.6,3.3h6.2c1.8,0,3.3,1.3,3.5,3.1c0,1.7-1.3,3-2.9,3.1c-0.1,0-0.2,0-0.2,0h-12.3c-1.9,0-3.5-1.5-3.7-3.3
	l-1.6-16.1c-0.2-1.9-1.8-3.3-3.7-3.3h-12.3c-1.7,0-3,1.3-3,3c0,0.1,0,0.2,0,0.3v0.4c0.2,1.8,0.4,4.7,0.5,6.4c0,1.7-1.3,3-2.9,3.1
	c-0.1,0-0.2,0-0.2,0H360c-1.8,0-3.3-1.3-3.5-3.1c-0.2-1.5,0.9-2.9,2.4-3c0.1,0,0.1,0,0.2,0c1.5,0,2.6-1.5,2.5-3.3l-0.5-6.6
	c-0.2-1.8-0.3-3.3-0.3-3.3h8.9c1.5-0.1,2.7-1.3,2.6-2.8c0-0.1,0-0.1,0-0.2c-0.2-1.8-1.8-3.1-3.5-3h-5c-1.9,0-3.4-1.5-3.5-3.4
	l-0.3-5.1c-0.2-1.6,1-3.1,2.6-3.3c0.1,0,0.2,0,0.2,0c1.6,0,3,1.2,3.2,2.8c0.1,1.6,1.4,2.8,2.9,2.8s2.7-1.5,2.6-3.4l-0.2-3.6
	c-0.1-1.9-1.7-3.3-3.5-3.4h-11c-1.9,0-3.4-1.5-3.5-3.4l-0.3-5.1c-0.2-1.6,1-3.1,2.6-3.4C355.4,36.2,355.5,36.1,355.6,36.1z"/>
<line class="st3" x1="322" y1="19.6" x2="319.7" y2="14.8"/>
<line class="st3" x1="334.7" y1="59.4" x2="334.3" y2="56.5"/>
<line class="st3" x1="344.2" y1="24.4" x2="346.4" y2="21"/>
<line class="st3" x1="317.8" y1="37.8" x2="317.8" y2="37.8"/>
<line class="st4" x1="334.9" y1="15.1" x2="336.2" y2="3.7"/>
<line class="st4" x1="345.4" y1="62" x2="348.2" y2="69.3"/>
<line class="st4" x1="321.5" y1="65.8" x2="316.5" y2="79.1"/>
<line class="st3" x1="337.4" y1="33.8" x2="338.3" y2="32.6"/>
<line class="st3" x1="343.2" y1="45.5" x2="343.2" y2="45.5"/>
<path class="st5" d="M223.5,41.6c1.1-1.4,2.6-1.3,3.3,0.4l4.3,9.5c0.6,1,0.2,2.2-0.7,2.7c-0.4,0.2-0.8,0.3-1.2,0.3H217
	c-1.8,0-2.4-1.2-1.3-2.6L223.5,41.6z"/>
<path class="st5" d="M246.7,61.5l1-6.3l1.1-7.4c0.3-1.4-0.6-2.9-2-3.2c-0.2,0-0.4-0.1-0.6-0.1c-1.8,0.1-3.3,1.4-3.6,3.2l-1.1,7.4
	c-0.3,1.8-1.9,3.2-3.8,3.2h-35.6c-1.8,0-3.4,1.3-3.7,3.1l-1,6.3l-1.1,7.4c-0.3,1.4,0.6,2.9,2,3.2c0.2,0,0.4,0.1,0.6,0.1
	c1.8-0.1,3.3-1.4,3.6-3.2l1.1-7.4c0.3-1.8,1.8-3.1,3.6-3.2c1.5,0,2.7,1.2,2.7,2.7c0,0.2,0,0.4-0.1,0.6l-3.4,22.4
	c-0.3,1.5,0.7,2.9,2.2,3.2c0.2,0,0.4,0.1,0.6,0h0.5c1.5-0.1,2.8,1.1,2.8,2.6c0,0.2,0,0.4,0,0.6l-1.9,12.4c-0.3,1.8-1.8,3.1-3.6,3.2
	h-6.2c-1.8,0.1-3.3,1.3-3.6,3.1l-0.9,6.1c-0.2,1.4,0.7,2.7,2.1,3c0.2,0,0.4,0,0.5,0c1.7,0,3.2-1.3,3.5-3c0.4-1.8,1.9-3,3.7-3h5.8
	c1.8,0,3.4-1.3,3.7-3.1l1-6.3l1.9-12.4c0.1-1.1,0.3-2.2,0.7-3.2h9.5c1.5,0,2.7,1.2,2.6,2.7c0,0.2,0,0.4-0.1,0.6l-0.4,2.9l-0.5,3.3
	l-0.5,3.1c-0.2,1.5,0.8,2.8,2.3,3c0.2,0,0.4,0,0.6,0h5.2c1.8,0,3.4-1.3,3.7-3.1c0.3-1.3-0.5-2.7-1.8-3c-0.2,0-0.3-0.1-0.5-0.1
	c-1.5,0-2.6-1.5-2.3-3.2l0.4-2.9l1-6.3c0.3-1.4-0.7-2.8-2.1-3c-0.2,0-0.4-0.1-0.6,0h-6.2c-1.5,0-2.7-1.2-2.6-2.7
	c0-0.2,0-0.4,0.1-0.6l2.4-16.2c0.3-1.8,1.9-3.2,3.8-3.2h12.9L246.7,61.5L246.7,61.5L246.7,61.5z"/>
<path class="st6" d="M517.5,104.7c-1.1-1.4-2.6-1.3-3.3,0.4l-4.3,9.5c-0.6,1-0.2,2.2,0.7,2.7c0.4,0.2,0.8,0.3,1.2,0.3H524
	c1.8,0,2.4-1.2,1.3-2.6L517.5,104.7z"/>
<path class="st6" d="M494.4,124.5l-1-6.3l-1.1-7.4c-0.3-1.4,0.6-2.9,2-3.2c0.2,0,0.4-0.1,0.6-0.1c1.8,0.1,3.3,1.4,3.6,3.2l1.1,7.4
	c0.3,1.8,1.9,3.2,3.8,3.2H539c1.8,0,3.4,1.3,3.7,3.1l1,6.3l1.1,7.4c0.3,1.4-0.6,2.9-2,3.2c-0.2,0-0.4,0.1-0.6,0.1
	c-1.8-0.1-3.3-1.4-3.6-3.2l-1.1-7.4c-0.3-1.8-1.8-3.1-3.6-3.2c-1.5,0-2.7,1.2-2.7,2.7c0,0.2,0,0.4,0.1,0.6l3.4,22.4
	c0.3,1.5-0.7,2.9-2.2,3.2c-0.2,0-0.4,0.1-0.6,0h-0.5c-1.5-0.1-2.8,1.1-2.8,2.6c0,0.2,0,0.4,0,0.6l1.9,12.4c0.3,1.8,1.8,3.1,3.6,3.2
	h6.2c1.8,0.1,3.3,1.3,3.6,3.1l0.9,6.1c0.2,1.4-0.7,2.7-2.1,3c-0.2,0-0.4,0-0.5,0c-1.7,0-3.2-1.3-3.5-3c-0.4-1.8-1.9-3-3.7-3h-6
	c-1.8,0-3.4-1.3-3.7-3.1l-1-6.3l-1.9-12.4c-0.1-1.1-0.3-2.2-0.7-3.2h-9.5c-1.5,0-2.7,1.2-2.6,2.7c0,0.2,0,0.4,0.1,0.6l0.4,2.9
	l0.5,3.3l0.5,3.1c0.2,1.5-0.8,2.8-2.3,3c-0.2,0-0.4,0-0.6,0H503c-1.8,0-3.4-1.3-3.7-3.1c-0.3-1.3,0.5-2.7,1.8-3
	c0.2,0,0.3-0.1,0.5-0.1c1.5,0,2.6-1.5,2.3-3.2l-0.4-2.9l-1-6.3c-0.3-1.4,0.7-2.8,2.1-3c0.2,0,0.4-0.1,0.6,0h6.2
	c1.5,0,2.7-1.2,2.6-2.7c0-0.2,0-0.4-0.1-0.6l-2.4-16.2c-0.3-1.8-1.9-3.2-3.8-3.2h-12.9L494.4,124.5L494.4,124.5L494.4,124.5z"/>
<path class="st7" d="M105.9,159.7c1.7,0,3.1-1.2,3.3-2.9c-0.1-1.7-1.6-2.9-3.2-2.8l0,0h-8.7c-1.5,0.1-2.7-1.1-2.8-2.6
	c0-0.2,0-0.4,0-0.6l1.7-10.6h-26c-2,0.1-3.6,1.7-3.8,3.6l-2.3,13.6c-0.4,2.3,1,3.7,2.5,3.7c1.7,0,3.1-1.3,3.2-3l1.5-8.7
	c0.2-1.7,1.7-3.1,3.4-3.2c1.6,0,2.4,1.4,2.1,3.2l-7.1,41.5c-0.4,1.8-1.9,3.2-3.8,3.2h-4c-1.9,0.1-3.4,1.4-3.8,3.2l-0.9,5.4
	c-0.2,1.5,0.8,3,2.4,3.3c0.1,0,0.3,0,0.4,0c1.6-0.1,2.9-1.3,3.1-2.9c0.4-1.7,2-2.9,3.8-2.9h3c2.6-0.1,4.8-1.9,5.4-4.5l3.1-16.5
	c0.4-1.8,2-3.1,3.9-3.2h9.4c1.5-0.1,2.7,1.1,2.8,2.6c0,0.2,0,0.4,0,0.6l-3.6,23c-0.3,1.8,0.8,3.5,2.6,3.8c0.2,0,0.5,0.1,0.7,0.1h5.9
	c1.8,0,3.6-0.8,3.6-3c0-1-0.8-2.6-3.2-2.6l0,0c-1.5,0.1-2.7-1.1-2.8-2.6c0-0.2,0-0.4,0-0.6l3.6-22.8c0.4-2.1-1-4.1-3.1-4.5
	c-0.3-0.1-0.6-0.1-0.9-0.1h-2.4c-1.5,0.1-2.7-1.1-2.8-2.6c0-0.2,0-0.4,0-0.6l1.1-6.9L105.9,159.7L105.9,159.7z"/>
<path class="st7" d="M88.7,123.5c1.1-1.4,2.6-1.3,3.3,0.4l4.3,9.4c0.6,0.9,0.4,2.1-0.5,2.7c-0.4,0.3-0.9,0.4-1.4,0.3H82.3
	c-1.8,0-2.4-1.2-1.3-2.6L88.7,123.5z"/>
<path class="st8" d="M610.1,159.7c-1.7,0-3.1-1.2-3.3-2.9c0.1-1.7,1.5-2.9,3.2-2.8h8.7c1.5,0.1,2.7-1.1,2.8-2.6c0-0.2,0-0.4,0-0.6
	l-1.7-10.6h26c2,0.1,3.6,1.7,3.8,3.6l2.3,13.6c0.4,2.3-1,3.7-2.5,3.7c-1.7,0-3.1-1.3-3.2-3l-1.5-8.7c-0.2-1.7-1.7-3.1-3.4-3.2
	c-1.6,0-2.4,1.4-2.1,3.2l7.1,41.5c0.4,1.8,1.9,3.2,3.8,3.2h4c1.9,0.1,3.4,1.4,3.8,3.2l0.8,5.4c0.2,1.5-0.8,3-2.4,3.3
	c-0.1,0-0.3,0-0.4,0c-1.6-0.1-2.9-1.3-3.1-2.9c-0.4-1.7-2-2.9-3.8-2.9h-3c-2.6-0.1-4.8-1.9-5.4-4.5l-3.1-16.5
	c-0.4-1.8-2-3.1-3.9-3.2h-9.4c-1.5-0.1-2.7,1.1-2.8,2.6c0,0.2,0,0.4,0,0.6l3.6,23c0.3,1.8-0.8,3.5-2.6,3.8c-0.2,0-0.5,0.1-0.7,0.1
	h-5.8c-1.8,0-3.6-0.8-3.6-3c0-1,0.8-2.6,3.2-2.6l0,0c1.5,0.1,2.7-1.1,2.8-2.6c0-0.2,0-0.4,0-0.6l-3.6-22.8c-0.4-2.1,1-4.1,3.1-4.5
	c0.3-0.1,0.6-0.1,0.9-0.1h2.4c1.5,0.1,2.7-1.1,2.8-2.6c0-0.2,0-0.4,0-0.6l-1.1-6.9L610.1,159.7L610.1,159.7z"/>
<path class="st8" d="M627.3,123.5c-1.1-1.4-2.6-1.3-3.3,0.4l-4.3,9.4c-0.6,0.9-0.4,2.1,0.5,2.7c0.4,0.3,0.9,0.4,1.4,0.3h12.1
	c1.8,0,2.4-1.2,1.3-2.6L627.3,123.5z"/>
<path class="st7" d="M570.9,118.5c-1.1-1.4-2.6-1.3-3.3,0.4l-4.3,9.4c-0.6,0.9-0.4,2.1,0.5,2.7c0.4,0.3,0.9,0.4,1.4,0.3h12.1
	c1.8,0,2.4-1.2,1.3-2.6L570.9,118.5z"/>
<path class="st7" d="M568.5,170c0,0-0.2-1.4-0.5-3.2l-0.4-2.4c-0.3-1.8-1.9-3.2-3.7-3.2h-5.2c-1.8,0-3.4-1.3-3.7-3.1
	c-0.2-1.5,0.8-2.8,2.2-3c0.2,0,0.4,0,0.6,0h5.2c1.5,0.1,2.8-1.1,2.8-2.6c0-0.2,0-0.4,0-0.6l-2.5-16.6H586c1.8,0.1,3.3,1.4,3.6,3.2
	l2,13.4c0.3,1.4-0.7,2.8-2.1,3.1c-0.2,0-0.3,0-0.5,0c-1.5,0-2.7,1.2-2.7,2.6c0,0.2,0,0.4,0.1,0.6l0.3,2.2l1,6.4l1,6.4l0.4,2.8
	c0.3,1.8,1.8,3.1,3.6,3.2h6.2c1.8,0.1,3.2,1.3,3.5,3.1l0.9,6.1c0.2,1.4-0.7,2.7-2.1,3c-0.2,0-0.4,0-0.6,0c-1.7,0-3.2-1.3-3.5-3
	c-0.4-1.8-1.9-3-3.7-3h-5.9c-1.8,0-3.4-1.3-3.7-3.1l-1-6.3l-0.4-2.8c-0.3-1.8-1.9-3.2-3.7-3.2H578c-1.5,0-2.8,1.1-2.8,2.6
	c0,0.2,0,0.4,0,0.6l2.8,18.4l1,6.3c0.2,1.5-0.8,2.8-2.2,3c-0.2,0-0.4,0-0.6,0H571c-1.8,0-3.4-1.3-3.7-3.1c-0.3-1.3,0.5-2.7,1.8-3
	c0.2,0,0.3-0.1,0.5-0.1c1.5,0,2.5-1.4,2.3-3.2l-2.9-18.3C568.8,171.4,568.5,170,568.5,170z"/>
<path class="st8" d="M34.5,127.3c1.1-1.4,2.6-1.3,3.3,0.4l4.3,9.4c0.6,0.9,0.4,2.1-0.5,2.7c-0.4,0.3-0.9,0.4-1.4,0.3H28.1
	c-1.8,0-2.4-1.2-1.3-2.6L34.5,127.3z"/>
<path class="st8" d="M36.8,178.8c0,0,0.2-1.4,0.5-3.2l0.4-2.4c0.3-1.8,1.9-3.2,3.7-3.2h5.2c1.8,0,3.4-1.3,3.7-3.1
	c0.2-1.5-0.8-2.8-2.2-3c-0.2,0-0.4,0-0.6,0h-5.2c-1.5,0.1-2.8-1.1-2.8-2.6c0-0.2,0-0.4,0-0.6l2.5-16.6H19.2
	c-1.8,0.1-3.3,1.4-3.6,3.2l-2,13.4c-0.3,1.4,0.6,2.8,2,3.2c0.2,0,0.4,0.1,0.6,0.1c1.5,0,2.7,1.2,2.7,2.6c0,0.2,0,0.4-0.1,0.6
	l-0.3,2.2l-1,6.4l-1,6.4l-0.4,2.8c-0.3,1.8-1.8,3.1-3.6,3.2H6.4c-1.8,0.1-3.2,1.3-3.5,3.1L2,197.4c-0.2,1.4,0.7,2.7,2.1,3
	c0.2,0,0.4,0,0.6,0c1.7,0,3.2-1.3,3.5-3c0.4-1.8,1.9-3,3.7-3h5.8c1.8,0,3.4-1.3,3.7-3.1l1-6.3l0.4-2.8c0.3-1.8,1.9-3.2,3.7-3.2h0.8
	c1.5,0,2.8,1.1,2.8,2.6c0,0.2,0,0.4,0,0.6l-2.8,18.4l-1,6.3c-0.2,1.5,0.8,2.8,2.2,3c0.2,0,0.4,0,0.6,0h5.2c1.8,0,3.4-1.3,3.7-3.1
	c0.3-1.3-0.5-2.7-1.8-3c-0.2,0-0.3-0.1-0.5-0.1c-1.5,0-2.5-1.4-2.3-3.2l2.8-18.4C36.6,180.2,36.8,178.8,36.8,178.8z"/>
<path class="st5" d="M452.5,43.4c-1.6-2.1-3.7-1.8-4.8,0.6l-3,6.9c-1,2.4,0.3,4.4,2.9,4.4h9.3c2.6,0,3.4-1.7,1.8-3.7L452.5,43.4z"/>
<path class="st5" d="M443.4,65.6h-13.5c-2.2,0-4-1.7-4.2-3.9l-0.2-3.6c-0.1-2.2,1.1-3.9,2.8-3.9c1.6,0,3,1.2,3.1,2.8
	c0.1,1.5,1.9,2.8,4.1,2.8h34c2.2,0.1,4.1,1.7,4.4,3.9l0.9,8.1c0.2,2.1-1,3.9-2.8,3.9s-3.4-1.8-3.6-3.9l-0.2-2.4
	c-0.2-2.1-1.6-3.9-3.1-3.9s-2.6,1.8-2.5,3.9l1.9,32.9c0.2,2.2,2,3.9,4.2,3.9h4.7c2.2,0,4,1.7,4.2,3.9l0.2,3.8
	c0.1,2.2-1.1,3.9-2.7,3.9c-1.6,0-3-1.2-3.2-2.8c-0.1-1.6-2-2.8-4.1-2.8h-4.7c-2.2,0-4-1.7-4.2-3.9l-0.6-10.8c-0.2-2.2-2-3.9-4.2-3.9
	h-10.7c-2,0-3.7,1.6-3.7,3.6c0,0.1,0,0.2,0,0.3l0.7,11.2c0.1,2.2,0.3,5.3,0.4,6.9s-1.6,3-3.8,3h-3.5c-2.2,0-4-1.3-4.1-3
	c-0.2-1.5,0.9-2.8,2.3-3c0.1,0,0.1,0,0.2,0c1.5,0,2.6-1.8,2.5-3.9l-1-17.2c-0.1-2,1.4-3.8,3.4-3.9c0.1,0,0.2,0,0.3,0h7.5"/>
<path class="st6" d="M180.7,106.2c2,0,3.7-1.4,4-3.4c0.1-1.7-1.2-3.2-2.9-3.4c-0.1,0-0.3,0-0.4,0h-9.6c-1.8,0-3.3-1.4-3.3-3.2
	c0-0.1,0-0.3,0-0.4l0.3-3.6c0.2-1.8-1.1-3.4-2.9-3.6c-0.1,0-0.3,0-0.4,0h-17.6c-0.3,1.2-0.5,2.4-0.5,3.7l-5,51.5
	c-0.2,2-1.9,3.6-4,3.7h-6.7c-2,0-3.7,1.4-4,3.4c-0.1,1.7,1.2,3.2,2.9,3.4c0.1,0,0.3,0,0.4,0h13.4c2.1-0.1,3.8-1.6,4-3.7l2-20.3
	c0.2-2,1.9-3.6,4-3.7h13.5c1.8,0,3.3,1.4,3.4,3.2c0,0.2,0,0.3,0,0.5l-1,10.6c-0.2,1.8,1.1,3.4,2.9,3.6c0.2,0,0.3,0,0.5,0h5.4
	c2,0,3.7-1.4,4-3.4c0.3-1.6-0.8-3-2.3-3.3c-0.1,0-0.2,0-0.4,0c-1.7,0-2.9-1.6-2.7-3.7l1-10.6c0.2-1.8-1.1-3.4-2.9-3.6
	c-0.2,0-0.3,0-0.5,0h-5.5c-1.8,0-3.3-1.4-3.3-3.2c0-0.1,0-0.3,0-0.4l0.6-6.3c0.2-2,1.9-3.6,4-3.7L180.7,106.2L180.7,106.2z"/>
<path class="st6" d="M157.8,70.3c1.1-1.5,2.7-1.3,3.5,0.4l4.5,9.9c0.6,0.9,0.4,2.1-0.5,2.8c-0.4,0.3-1,0.4-1.5,0.3H151
	c-1.9,0-2.5-1.2-1.4-2.7L157.8,70.3z"/>
</svg>
