<?xml version="1.0" encoding="utf-8"?>
<!-- Generator: Adobe Illustrator 20.1.0, SVG Export Plug-In . SVG Version: 6.00 Build 0)  -->
<svg version="1.1" id="圖層_1" xmlns="http://www.w3.org/2000/svg" xmlns:xlink="http://www.w3.org/1999/xlink" x="0px" y="0px"
	 viewBox="0 0 58 100" style="enable-background:new 0 0 58 100;" xml:space="preserve">
<style type="text/css">
	.st0{fill:#F73967;}
</style>
<path class="st0" d="M51.7,50.6c1.7,0,3.2-1.3,3.3-3c-0.1-1.7-1.6-3-3.3-2.9h-8.9c-1.5,0-2.8-1.1-2.8-2.7c0-0.2,0-0.4,0-0.6
	l1.7-10.8H15.2c-2,0.1-3.7,1.7-3.9,3.7L9,48.1c-0.4,2.3,1,3.7,2.6,3.7c1.7,0,3.1-1.3,3.2-3l1.5-8.8c0.3-1.8,1.7-3.1,3.5-3.3
	c1.6,0,2.5,1.5,2.1,3.3l-7.3,42.3c-0.4,1.9-2,3.2-3.9,3.3h-4c-1.9,0-3.5,1.4-3.9,3.3l-0.9,5.5c-0.2,1.6,0.9,3,2.5,3.3
	c0.1,0,0.2,0,0.3,0c1.6-0.1,3-1.4,3.2-3c0.5-1.8,2-3,3.9-3h3c2.7-0.1,4.9-2,5.5-4.6l3.2-16.8c0.4-1.9,2-3.2,3.9-3.3H37
	c1.5,0,2.8,1.1,2.8,2.7c0,0.2,0,0.4,0,0.6l-3.7,23.4c-0.3,1.8,0.8,3.5,2.6,3.9c0.2,0,0.5,0.1,0.7,0.1h5.9c1.8,0,3.7-0.8,3.7-3.1
	c0-1.1-0.8-2.6-3.3-2.6l0,0c-1.5,0-2.8-1.1-2.8-2.7c0-0.2,0-0.4,0-0.6l3.6-23.2c0.4-2.1-1-4.2-3.1-4.6c-0.3-0.1-0.6-0.1-0.9-0.1H40
	c-1.5,0-2.8-1.1-2.8-2.7c0-0.2,0-0.4,0-0.6l1.1-7L51.7,50.6L51.7,50.6z"/>
<path class="st0" d="M34.1,13.7c1.1-1.5,2.6-1.3,3.4,0.4l4.4,9.6c0.6,1,0.2,2.2-0.7,2.7c-0.4,0.2-0.8,0.3-1.2,0.3H27.7
	c-1.8,0-2.4-1.2-1.3-2.7L34.1,13.7z"/>
<path class="st0" d="M42.3,12.4c-1,0-1.8-0.8-1.8-1.8c0-0.4,0.1-0.8,0.4-1.1L45.2,4c0.5-0.8,1.6-1,2.4-0.5c0.8,0.5,1,1.6,0.5,2.4
	C48.1,6,48,6,48,6.1l-4.3,5.5C43.4,12.1,42.9,12.4,42.3,12.4z"/>
<path class="st0" d="M45.6,18.5c-1,0-1.7-0.8-1.7-1.8c0-0.7,0.4-1.3,1-1.6l7.3-3.5c0.9-0.3,1.9,0.1,2.3,1c0.3,0.8,0,1.7-0.8,2.1
	l-7.3,3.5C46.1,18.5,45.9,18.5,45.6,18.5z"/>
<path class="st0" d="M55.3,25.1h-7.4c-1,0.1-1.8-0.7-1.9-1.6c-0.1-1,0.7-1.8,1.6-1.9c0.1,0,0.2,0,0.3,0h7.4c1-0.1,1.8,0.7,1.9,1.6
	c0.1,1-0.7,1.8-1.6,1.9C55.5,25.1,55.4,25.1,55.3,25.1z"/>
</svg>
