<?xml version="1.0" encoding="utf-8"?>
<!-- Generator: Adobe Illustrator 20.1.0, SVG Export Plug-In . SVG Version: 6.00 Build 0)  -->
<svg version="1.1" id="圖層_1" xmlns="http://www.w3.org/2000/svg" xmlns:xlink="http://www.w3.org/1999/xlink" x="0px" y="0px"
	 viewBox="0 0 46 72" style="enable-background:new 0 0 46 72;" xml:space="preserve">
<style type="text/css">
	.st0{fill:#FF6338;}
</style>
<g>
	<g>
		<path class="st0" d="M30.6,1.7c0.9-1.2,2.2-1.1,2.8,0.3l3.6,7.9c0.6,1.4-0.1,2.5-1.6,2.5l-10.2,0c-1.5,0-2-1-1.1-2.2L30.6,1.7z"/>
		<path class="st0" d="M32.6,45.1c0,0,0.2-1.2,0.4-2.7l0.3-2c0.2-1.5,1.6-2.7,3.1-2.7l4.4,0c1.5,0,2.9-1.2,3.1-2.6
			c0.2-1.4-0.8-2.6-2.4-2.6l-4.4,0c-1.5,0-2.6-1.2-2.3-2.7l2.1-14H23.3c-1.5,0-3.9,0-5.3,0c-1.4,0-2.8,1.2-3,2.7l-1.7,11.3
			c-0.2,1.5,0.8,2.7,2.2,2.7s2.4,1.2,2.2,2.7L17.3,37c-0.2,1.5-0.6,3.9-0.8,5.4c-0.2,1.5-0.6,3.9-0.8,5.4l-0.4,2.4
			c-0.2,1.5-1.6,2.7-3,2.7s-3.8,0-5.2,0s-2.8,1.2-3,2.6c-0.2,1.4-0.6,3.7-0.8,5.1c-0.2,1.4,0.8,2.5,2.2,2.5s2.8-1.1,3-2.5
			c0.2-1.4,1.6-2.5,3.1-2.5h4.9c1.5,0,2.9-1.2,3.1-2.6s0.6-3.8,0.8-5.3l0.4-2.4c0.2-1.5,1.6-2.7,3.1-2.7h0.7c1.5,0,2.6,1.2,2.3,2.7
			l-2.3,15.5c-0.2,1.5-0.6,3.9-0.8,5.3c-0.2,1.4,0.8,2.6,2.4,2.6h4.4c1.5,0,2.9-1.2,3.1-2.6c0.2-1.4-0.7-2.6-1.9-2.6
			s-2.1-1.2-1.9-2.7l2.3-15.5C32.4,46.3,32.6,45.1,32.6,45.1z"/>
	</g>
</g>
</svg>
