<svg id="bg" xmlns="http://www.w3.org/2000/svg" xmlns:xlink="http://www.w3.org/1999/xlink" viewBox="0 0 1280 650"><defs><style>.cls-1{fill:#fff;}.cls-2,.cls-72,.cls-73{fill:#00364b;}.cls-3{mask:url(#mask);}.cls-4,.cls-5,.cls-6,.cls-7,.cls-8{fill:none;stroke-miterlimit:10;}.cls-4,.cls-5,.cls-6,.cls-7,.cls-72,.cls-73,.cls-8{stroke:#004864;stroke-linecap:round;}.cls-4{stroke-width:10px;stroke-dasharray:107.59 24.45;}.cls-5{stroke-width:7.85px;stroke-dasharray:211.03 30.15;}.cls-6{stroke-width:5.69px;stroke-dasharray:269.89 29.67;}.cls-7{stroke-width:3.54px;stroke-dasharray:343.94 31.78;}.cls-8{stroke-width:1.39px;stroke-dasharray:457.42 37.28;}.cls-10,.cls-11,.cls-12,.cls-13,.cls-14,.cls-15,.cls-16,.cls-17,.cls-18,.cls-19,.cls-20,.cls-21,.cls-22,.cls-23,.cls-24,.cls-25,.cls-26,.cls-27,.cls-28,.cls-29,.cls-30,.cls-31,.cls-32,.cls-33,.cls-34,.cls-35,.cls-36,.cls-37,.cls-38,.cls-39,.cls-40,.cls-41,.cls-42,.cls-43,.cls-44,.cls-45,.cls-46,.cls-47,.cls-48,.cls-49,.cls-50,.cls-51,.cls-52,.cls-53,.cls-54,.cls-55,.cls-56,.cls-57,.cls-58,.cls-59,.cls-60,.cls-61,.cls-62,.cls-63,.cls-64,.cls-65,.cls-66,.cls-67,.cls-68,.cls-69,.cls-70,.cls-9{fill:#004661;}.cls-10{opacity:0.99;}.cls-11{opacity:0.98;}.cls-12{opacity:0.97;}.cls-13{opacity:0.96;}.cls-14{opacity:0.94;}.cls-15{opacity:0.93;}.cls-16{opacity:0.92;}.cls-17{opacity:0.91;}.cls-18{opacity:0.9;}.cls-19{opacity:0.89;}.cls-20{opacity:0.88;}.cls-21{opacity:0.87;}.cls-22{opacity:0.86;}.cls-23{opacity:0.84;}.cls-24{opacity:0.83;}.cls-25{opacity:0.82;}.cls-26{opacity:0.81;}.cls-27{opacity:0.8;}.cls-28{opacity:0.79;}.cls-29{opacity:0.78;}.cls-30{opacity:0.77;}.cls-31{opacity:0.75;}.cls-32{opacity:0.74;}.cls-33{opacity:0.73;}.cls-34{opacity:0.72;}.cls-35{opacity:0.71;}.cls-36{opacity:0.7;}.cls-37{opacity:0.69;}.cls-38{opacity:0.68;}.cls-39{opacity:0.67;}.cls-40{opacity:0.65;}.cls-41{opacity:0.64;}.cls-42{opacity:0.63;}.cls-43{opacity:0.62;}.cls-44{opacity:0.61;}.cls-45{opacity:0.6;}.cls-46{opacity:0.59;}.cls-47{opacity:0.58;}.cls-48{opacity:0.57;}.cls-49{opacity:0.55;}.cls-50{opacity:0.54;}.cls-51{opacity:0.53;}.cls-52{opacity:0.52;}.cls-53{opacity:0.51;}.cls-54{opacity:0.5;}.cls-55{opacity:0.49;}.cls-56{opacity:0.48;}.cls-57{opacity:0.46;}.cls-58{opacity:0.45;}.cls-59{opacity:0.44;}.cls-60{opacity:0.43;}.cls-61{opacity:0.42;}.cls-62{opacity:0.41;}.cls-63{opacity:0.4;}.cls-64{opacity:0.39;}.cls-65{opacity:0.38;}.cls-66{opacity:0.36;}.cls-67{opacity:0.35;}.cls-68{opacity:0.34;}.cls-69{opacity:0.33;}.cls-70{opacity:0.32;}.cls-71{opacity:0.5;}.cls-72,.cls-73{stroke-linejoin:round;}.cls-72{stroke-width:2.21px;}.cls-73{stroke-width:1.99px;}</style><mask id="mask" x="-27.38" y="-30.99" width="1319.93" height="1103.54" maskUnits="userSpaceOnUse"><rect class="cls-1" x="-27.38" y="-17.65" width="1319.93" height="604.11"/></mask></defs><title>Registration_bg</title><rect class="cls-2" width="1280" height="650"/><g class="cls-3"><circle class="cls-4" cx="646.17" cy="639.79" r="21.02"/><circle class="cls-5" cx="646.17" cy="610.04" r="153.54"/><circle class="cls-6" cx="646.17" cy="580.29" r="286.05"/><circle class="cls-7" cx="646.17" cy="550.54" r="418.56"/><circle class="cls-8" cx="646.17" cy="520.79" r="551.08"/></g><rect class="cls-9" x="-36.58" y="641.21" width="1365.75" height="12.49" transform="translate(4.37 -4.34) rotate(0.39)"/><rect class="cls-10" x="640.23" y="-45.29" width="12.28" height="1365.75" transform="translate(4.45 1279.65) rotate(-89.61)"/><rect class="cls-11" x="640.41" y="-55.16" width="12.08" height="1365.75" transform="translate(14.4 1269.93) rotate(-89.61)"/><rect class="cls-12" x="640.59" y="-65.02" width="11.87" height="1365.75" transform="translate(24.34 1260.21) rotate(-89.61)"/><rect class="cls-13" x="640.77" y="-74.89" width="11.67" height="1365.75" transform="matrix(0.01, -1, 1, 0.01, 34.28, 1250.48)"/><rect class="cls-14" x="640.95" y="-84.76" width="11.46" height="1365.75" transform="translate(44.22 1240.76) rotate(-89.61)"/><rect class="cls-15" x="641.13" y="-94.62" width="11.26" height="1365.75" transform="translate(54.17 1231.04) rotate(-89.61)"/><rect class="cls-16" x="641.31" y="-104.49" width="11.05" height="1365.75" transform="translate(64.11 1221.32) rotate(-89.61)"/><rect class="cls-17" x="641.49" y="-114.35" width="10.85" height="1365.75" transform="translate(74.05 1211.6) rotate(-89.61)"/><rect class="cls-18" x="641.67" y="-124.22" width="10.64" height="1365.75" transform="translate(83.99 1201.88) rotate(-89.61)"/><rect class="cls-19" x="641.85" y="-134.08" width="10.44" height="1365.75" transform="translate(93.94 1192.15) rotate(-89.61)"/><rect class="cls-20" x="642.03" y="-143.95" width="10.24" height="1365.75" transform="translate(103.88 1182.43) rotate(-89.61)"/><rect class="cls-21" x="642.21" y="-153.82" width="10.03" height="1365.75" transform="translate(113.82 1172.71) rotate(-89.61)"/><rect class="cls-22" x="642.39" y="-163.68" width="9.83" height="1365.75" transform="translate(123.77 1162.99) rotate(-89.61)"/><rect class="cls-23" x="642.57" y="-173.55" width="9.62" height="1365.75" transform="translate(133.71 1153.27) rotate(-89.61)"/><rect class="cls-24" x="642.75" y="-183.41" width="9.42" height="1365.75" transform="translate(143.65 1143.54) rotate(-89.61)"/><rect class="cls-25" x="642.93" y="-193.28" width="9.21" height="1365.75" transform="translate(153.59 1133.82) rotate(-89.61)"/><rect class="cls-26" x="643.11" y="-203.15" width="9.01" height="1365.75" transform="translate(163.54 1124.1) rotate(-89.61)"/><rect class="cls-27" x="643.29" y="-213.01" width="8.8" height="1365.75" transform="translate(173.48 1114.38) rotate(-89.61)"/><rect class="cls-28" x="643.47" y="-222.88" width="8.6" height="1365.75" transform="translate(183.42 1104.66) rotate(-89.61)"/><rect class="cls-29" x="643.65" y="-232.74" width="8.39" height="1365.75" transform="translate(193.36 1094.93) rotate(-89.61)"/><rect class="cls-30" x="643.83" y="-242.61" width="8.19" height="1365.75" transform="translate(203.31 1085.21) rotate(-89.61)"/><rect class="cls-31" x="644.01" y="-252.47" width="7.98" height="1365.75" transform="translate(213.25 1075.49) rotate(-89.61)"/><rect class="cls-32" x="644.19" y="-262.34" width="7.78" height="1365.75" transform="translate(223.19 1065.77) rotate(-89.61)"/><rect class="cls-33" x="644.37" y="-272.21" width="7.58" height="1365.75" transform="translate(233.13 1056.05) rotate(-89.61)"/><rect class="cls-34" x="644.55" y="-282.07" width="7.37" height="1365.75" transform="translate(243.08 1046.32) rotate(-89.61)"/><rect class="cls-35" x="644.73" y="-291.94" width="7.17" height="1365.75" transform="translate(253.02 1036.6) rotate(-89.61)"/><rect class="cls-36" x="644.91" y="-301.8" width="6.96" height="1365.75" transform="translate(262.96 1026.88) rotate(-89.61)"/><rect class="cls-37" x="645.09" y="-311.67" width="6.76" height="1365.75" transform="translate(272.9 1017.16) rotate(-89.61)"/><rect class="cls-38" x="645.27" y="-321.54" width="6.55" height="1365.75" transform="translate(282.85 1007.44) rotate(-89.61)"/><rect class="cls-39" x="645.45" y="-331.4" width="6.35" height="1365.75" transform="translate(292.79 997.72) rotate(-89.61)"/><rect class="cls-40" x="645.63" y="-341.27" width="6.14" height="1365.75" transform="translate(302.73 987.99) rotate(-89.61)"/><rect class="cls-41" x="645.81" y="-351.13" width="5.94" height="1365.75" transform="translate(312.67 978.27) rotate(-89.61)"/><rect class="cls-42" x="645.99" y="-361" width="5.73" height="1365.75" transform="translate(322.62 968.55) rotate(-89.61)"/><rect class="cls-43" x="646.17" y="-370.86" width="5.53" height="1365.75" transform="translate(332.56 958.83) rotate(-89.61)"/><rect class="cls-44" x="646.35" y="-380.73" width="5.32" height="1365.75" transform="translate(342.5 949.11) rotate(-89.61)"/><rect class="cls-45" x="646.53" y="-390.6" width="5.12" height="1365.75" transform="translate(352.44 939.38) rotate(-89.61)"/><rect class="cls-46" x="646.71" y="-400.46" width="4.91" height="1365.75" transform="translate(362.39 929.66) rotate(-89.61)"/><rect class="cls-47" x="646.89" y="-410.33" width="4.71" height="1365.75" transform="translate(372.33 919.94) rotate(-89.61)"/><rect class="cls-48" x="647.07" y="-420.19" width="4.51" height="1365.75" transform="translate(382.27 910.22) rotate(-89.61)"/><rect class="cls-49" x="647.25" y="-430.06" width="4.3" height="1365.75" transform="translate(392.22 900.5) rotate(-89.61)"/><rect class="cls-50" x="647.43" y="-439.93" width="4.1" height="1365.75" transform="translate(402.16 890.77) rotate(-89.61)"/><rect class="cls-51" x="647.61" y="-449.79" width="3.89" height="1365.75" transform="translate(412.1 881.05) rotate(-89.61)"/><rect class="cls-52" x="647.79" y="-459.66" width="3.69" height="1365.75" transform="translate(422.04 871.33) rotate(-89.61)"/><rect class="cls-53" x="647.97" y="-469.52" width="3.48" height="1365.75" transform="translate(431.99 861.61) rotate(-89.61)"/><rect class="cls-54" x="648.15" y="-479.39" width="3.28" height="1365.75" transform="translate(441.93 851.89) rotate(-89.61)"/><rect class="cls-55" x="648.33" y="-489.25" width="3.07" height="1365.75" transform="translate(451.87 842.16) rotate(-89.61)"/><rect class="cls-56" x="648.51" y="-499.12" width="2.87" height="1365.75" transform="translate(461.81 832.44) rotate(-89.61)"/><rect class="cls-57" x="648.68" y="-508.99" width="2.66" height="1365.75" transform="translate(471.76 822.72) rotate(-89.61)"/><rect class="cls-58" x="648.86" y="-518.85" width="2.46" height="1365.75" transform="translate(481.7 813) rotate(-89.61)"/><rect class="cls-59" x="649.04" y="-528.72" width="2.25" height="1365.75" transform="translate(491.64 803.28) rotate(-89.61)"/><rect class="cls-60" x="649.22" y="-538.58" width="2.05" height="1365.75" transform="translate(501.58 793.56) rotate(-89.61)"/><rect class="cls-61" x="649.4" y="-548.45" width="1.85" height="1365.75" transform="translate(511.53 783.83) rotate(-89.61)"/><rect class="cls-62" x="649.58" y="-558.31" width="1.64" height="1365.75" transform="translate(521.47 774.11) rotate(-89.61)"/><rect class="cls-63" x="649.76" y="-568.18" width="1.44" height="1365.75" transform="matrix(0.01, -1, 1, 0.01, 531.41, 764.39)"/><rect class="cls-64" x="649.94" y="-578.05" width="1.23" height="1365.75" transform="matrix(0.01, -1, 1, 0.01, 541.35, 754.67)"/><rect class="cls-65" x="650.12" y="-587.91" width="1.03" height="1365.75" transform="translate(551.3 744.95) rotate(-89.61)"/><rect class="cls-66" x="650.3" y="-597.78" width="0.82" height="1365.75" transform="translate(561.24 735.22) rotate(-89.61)"/><rect class="cls-67" x="650.48" y="-607.64" width="0.62" height="1365.75" transform="translate(571.18 725.5) rotate(-89.61)"/><rect class="cls-68" x="650.66" y="-617.51" width="0.41" height="1365.75" transform="translate(581.12 715.78) rotate(-89.61)"/><rect class="cls-69" x="650.84" y="-627.38" width="0.21" height="1365.75" transform="matrix(0.01, -1, 1, 0.01, 591.07, 706.06)"/><rect class="cls-70" x="-31.85" y="45.63" width="1365.75" transform="translate(0.32 -4.38) rotate(0.39)"/><g class="cls-71"><polygon class="cls-72" points="90.38 682.58 0.71 682.58 33.85 617.75 123.52 617.75 90.38 682.58"/><polygon class="cls-72" points="90.38 682.58 90.38 720.46 123.52 655.63 123.52 617.75 90.38 682.58"/><polygon class="cls-72" points="90.02 669.62 0.34 669.62 33.49 604.79 123.16 604.79 90.02 669.62"/><polygon class="cls-72" points="90.02 631.74 0.34 631.74 33.49 566.91 123.16 566.91 90.02 631.74"/><polygon class="cls-72" points="90.02 631.74 90.02 669.62 123.16 604.79 123.16 566.91 90.02 631.74"/><rect class="cls-72" x="0.35" y="631.74" width="89.67" height="37.88"/><polygon class="cls-72" points="89.66 618.78 -0.02 618.78 33.13 553.95 122.8 553.95 89.66 618.78"/><polygon class="cls-72" points="89.66 580.9 -0.02 580.9 33.13 516.07 122.8 516.07 89.66 580.9"/><polygon class="cls-72" points="89.66 580.9 89.66 618.78 122.8 553.95 122.8 516.07 89.66 580.9"/><rect class="cls-72" x="-0.02" y="580.9" width="89.67" height="37.88"/><polygon class="cls-72" points="89.29 567.94 -0.38 567.94 32.76 503.11 122.44 503.11 89.29 567.94"/><polygon class="cls-72" points="89.29 530.06 -0.38 530.06 32.76 465.23 122.44 465.23 89.29 530.06"/><polygon class="cls-72" points="89.29 530.06 89.29 567.94 122.44 503.11 122.44 465.23 89.29 530.06"/><rect class="cls-72" x="-0.38" y="530.06" width="89.67" height="37.88"/><polygon class="cls-72" points="88.93 517.1 -0.74 517.1 32.4 452.27 122.07 452.27 88.93 517.1"/><polygon class="cls-72" points="88.93 479.22 -0.74 479.22 32.4 414.39 122.07 414.39 88.93 479.22"/><polygon class="cls-72" points="88.93 479.22 88.93 517.1 122.07 452.27 122.07 414.39 88.93 479.22"/><rect class="cls-72" x="-0.74" y="479.22" width="89.67" height="37.88"/><polygon class="cls-72" points="88.57 466.26 -1.1 466.26 32.04 401.43 121.71 401.43 88.57 466.26"/><polygon class="cls-72" points="88.57 428.38 -1.1 428.38 32.04 363.55 121.71 363.55 88.57 428.38"/><polygon class="cls-72" points="88.57 428.38 88.57 466.26 121.71 401.43 121.71 363.55 88.57 428.38"/><rect class="cls-72" x="-1.1" y="428.38" width="89.67" height="37.88"/><polygon class="cls-72" points="88.21 415.42 -1.47 415.42 31.68 350.59 121.35 350.59 88.21 415.42"/><polygon class="cls-72" points="88.21 377.54 -1.47 377.54 31.68 312.71 121.35 312.71 88.21 377.54"/><polygon class="cls-72" points="88.21 377.54 88.21 415.42 121.35 350.59 121.35 312.71 88.21 377.54"/><rect class="cls-72" x="-1.47" y="377.54" width="89.67" height="37.88"/><polygon class="cls-72" points="1283.72 570.22 1226.53 570.22 1247.67 528.87 1304.85 528.87 1283.72 570.22"/><polygon class="cls-72" points="1283.72 546.06 1226.53 546.06 1247.67 504.71 1304.85 504.71 1283.72 546.06"/><rect class="cls-72" x="1226.53" y="546.06" width="57.19" height="24.16"/><polygon class="cls-72" points="1283.37 521.58 1226.18 521.58 1247.32 480.24 1304.51 480.24 1283.37 521.58"/><polygon class="cls-72" points="1283.37 497.43 1226.18 497.43 1247.32 456.08 1304.51 456.08 1283.37 497.43"/><rect class="cls-72" x="1226.18" y="497.43" width="57.19" height="24.16"/><polygon class="cls-72" points="1283.03 472.95 1225.84 472.95 1246.97 431.61 1304.16 431.61 1283.03 472.95"/><polygon class="cls-72" points="1283.03 448.79 1225.84 448.79 1246.97 407.45 1304.16 407.45 1283.03 448.79"/><rect class="cls-72" x="1225.84" y="448.79" width="57.19" height="24.16"/><polygon class="cls-72" points="1282.68 424.32 1225.49 424.32 1246.63 382.97 1303.81 382.97 1282.68 424.32"/><polygon class="cls-72" points="1282.68 400.16 1225.49 400.16 1246.63 358.81 1303.81 358.81 1282.68 400.16"/><rect class="cls-72" x="1225.49" y="400.16" width="57.19" height="24.16"/><polygon class="cls-72" points="1282.33 375.68 1225.14 375.68 1246.28 334.34 1303.47 334.34 1282.33 375.68"/><polygon class="cls-72" points="1282.33 351.53 1225.14 351.53 1246.28 310.18 1303.47 310.18 1282.33 351.53"/><rect class="cls-72" x="1225.15" y="351.53" width="57.19" height="24.16"/><polygon class="cls-72" points="-10.26 681.7 -99.94 681.7 -66.8 616.87 22.88 616.87 -10.26 681.7"/><polygon class="cls-72" points="-10.26 681.7 -10.26 719.58 22.88 654.75 22.88 616.87 -10.26 681.7"/><polygon class="cls-72" points="-10.99 662.04 -100.66 662.04 -67.52 597.21 22.15 597.21 -10.99 662.04"/><polygon class="cls-72" points="-10.99 624.16 -100.66 624.16 -67.52 559.33 22.15 559.33 -10.99 624.16"/><polygon class="cls-72" points="-10.99 624.16 -10.99 662.04 22.15 597.21 22.15 559.33 -10.99 624.16"/><polygon class="cls-72" points="-11.71 604.5 -101.39 604.5 -68.24 539.67 21.43 539.67 -11.71 604.5"/><polygon class="cls-72" points="-11.71 566.62 -101.39 566.62 -68.24 501.79 21.43 501.79 -11.71 566.62"/><polygon class="cls-72" points="-11.71 566.62 -11.71 604.5 21.43 539.67 21.43 501.79 -11.71 566.62"/><polygon class="cls-72" points="86.29 679.68 -3.38 679.68 29.76 614.85 119.44 614.85 86.29 679.68"/><polygon class="cls-72" points="86.29 679.68 86.29 717.56 119.44 652.73 119.44 614.85 86.29 679.68"/><polygon class="cls-72" points="85.57 660.02 -4.1 660.02 29.04 595.19 118.71 595.19 85.57 660.02"/><polygon class="cls-72" points="85.57 622.14 -4.1 622.14 29.04 557.31 118.71 557.31 85.57 622.14"/><polygon class="cls-72" points="85.57 622.14 85.57 660.02 118.71 595.19 118.71 557.31 85.57 622.14"/><rect class="cls-72" x="-4.1" y="622.14" width="89.67" height="37.88"/><polygon class="cls-72" points="573.4 687.58 502.45 687.58 528.67 636.29 599.62 636.29 573.4 687.58"/><polygon class="cls-72" points="573.4 657.62 502.45 657.62 528.67 606.33 599.62 606.33 573.4 657.62"/><polygon class="cls-72" points="573.4 657.62 573.4 687.58 599.62 636.29 599.62 606.33 573.4 657.62"/><polygon class="cls-72" points="572.82 642.06 501.88 642.06 528.1 590.77 599.04 590.77 572.82 642.06"/><polygon class="cls-72" points="572.82 612.1 501.88 612.1 528.1 560.8 599.04 560.8 572.82 612.1"/><polygon class="cls-72" points="572.82 612.1 572.82 642.06 599.04 590.77 599.04 560.8 572.82 612.1"/><rect class="cls-72" x="501.88" y="612.1" width="70.94" height="29.97"/><polygon class="cls-72" points="187.31 702.27 97.64 702.27 130.78 637.44 220.45 637.44 187.31 702.27"/><polygon class="cls-72" points="187.31 702.27 187.31 740.15 220.45 675.32 220.45 637.44 187.31 702.27"/><polygon class="cls-72" points="186.59 682.61 96.92 682.61 130.06 617.78 219.73 617.78 186.59 682.61"/><polygon class="cls-72" points="186.59 644.73 96.92 644.73 130.06 579.9 219.73 579.9 186.59 644.73"/><polygon class="cls-72" points="186.59 644.73 186.59 682.61 219.73 617.78 219.73 579.9 186.59 644.73"/><rect class="cls-72" x="96.92" y="644.73" width="89.67" height="37.88"/><polygon class="cls-72" points="185.86 625.07 96.19 625.07 129.33 560.24 219 560.24 185.86 625.07"/><polygon class="cls-72" points="185.86 587.19 96.19 587.19 129.33 522.36 219 522.36 185.86 587.19"/><polygon class="cls-72" points="185.86 587.19 185.86 625.07 219 560.24 219 522.36 185.86 587.19"/><rect class="cls-72" x="96.19" y="587.19" width="89.67" height="37.88"/><polygon class="cls-72" points="298.89 688.99 229.06 688.99 254.87 638.5 324.7 638.5 298.89 688.99"/><polygon class="cls-72" points="298.89 659.49 229.06 659.49 254.87 609 324.7 609 298.89 659.49"/><polygon class="cls-72" points="298.89 659.49 298.89 688.99 324.7 638.5 324.7 609 298.89 659.49"/><polygon class="cls-72" points="486.47 689.51 333.8 689.51 366.94 624.68 519.61 624.68 486.47 689.51"/><polygon class="cls-72" points="486.47 689.51 486.47 727.39 519.61 662.56 519.61 624.68 486.47 689.51"/><polygon class="cls-72" points="679.27 688.99 589.6 688.99 622.74 624.16 712.42 624.16 679.27 688.99"/><polygon class="cls-72" points="679.27 688.99 679.27 726.87 712.42 662.04 712.42 624.16 679.27 688.99"/><polygon class="cls-72" points="678.55 669.33 588.88 669.33 622.02 604.5 711.69 604.5 678.55 669.33"/><polygon class="cls-72" points="678.55 631.45 588.88 631.45 622.02 566.62 711.69 566.62 678.55 631.45"/><polygon class="cls-72" points="678.55 631.45 678.55 669.33 711.69 604.5 711.69 566.62 678.55 631.45"/><rect class="cls-72" x="588.88" y="631.45" width="89.67" height="37.88"/><polygon class="cls-72" points="804.4 683.33 714.73 683.33 747.87 618.5 837.54 618.5 804.4 683.33"/><polygon class="cls-72" points="804.4 683.33 804.4 721.21 837.54 656.38 837.54 618.5 804.4 683.33"/><polygon class="cls-72" points="803.67 663.67 714 663.67 747.14 598.84 836.82 598.84 803.67 663.67"/><polygon class="cls-72" points="803.67 625.79 714 625.79 747.14 560.96 836.82 560.96 803.67 625.79"/><polygon class="cls-72" points="803.67 625.79 803.67 663.67 836.82 598.84 836.82 560.96 803.67 625.79"/><rect class="cls-72" x="714" y="625.79" width="89.67" height="37.88"/><polygon class="cls-72" points="802.95 606.13 713.28 606.13 746.42 541.3 836.09 541.3 802.95 606.13"/><polygon class="cls-72" points="802.95 568.25 713.28 568.25 746.42 503.42 836.09 503.42 802.95 568.25"/><polygon class="cls-72" points="802.95 568.25 802.95 606.13 836.09 541.3 836.09 503.42 802.95 568.25"/><rect class="cls-72" x="713.28" y="568.25" width="89.67" height="37.88"/><polygon class="cls-72" points="1083.12 685.35 993.45 685.35 1026.59 620.51 1116.26 620.51 1083.12 685.35"/><polygon class="cls-72" points="1083.12 685.35 1083.12 723.23 1116.26 658.39 1116.26 620.51 1083.12 685.35"/><polygon class="cls-72" points="1082.4 665.69 992.72 665.69 1025.87 600.85 1115.54 600.85 1082.4 665.69"/><polygon class="cls-72" points="1082.4 627.81 992.72 627.81 1025.87 562.98 1115.54 562.98 1082.4 627.81"/><polygon class="cls-72" points="1082.4 627.81 1082.4 665.69 1115.54 600.85 1115.54 562.98 1082.4 627.81"/><rect class="cls-72" x="992.72" y="627.81" width="89.67" height="37.88"/><polygon class="cls-72" points="1081.67 608.15 992 608.15 1025.14 543.32 1114.81 543.32 1081.67 608.15"/><polygon class="cls-72" points="1081.67 570.27 992 570.27 1025.14 505.44 1114.81 505.44 1081.67 570.27"/><polygon class="cls-72" points="1081.67 570.27 1081.67 608.15 1114.81 543.32 1114.81 505.44 1081.67 570.27"/><rect class="cls-72" x="992" y="570.27" width="89.67" height="37.88"/><polygon class="cls-72" points="1080.95 550.61 991.27 550.61 1024.42 485.77 1114.09 485.77 1080.95 550.61"/><polygon class="cls-72" points="1080.95 512.73 991.27 512.73 1024.42 447.9 1114.09 447.9 1080.95 512.73"/><polygon class="cls-72" points="1080.95 512.73 1080.95 550.61 1114.09 485.77 1114.09 447.9 1080.95 512.73"/><rect class="cls-72" x="991.28" y="512.73" width="89.67" height="37.88"/><polygon class="cls-73" points="1238.05 632.85 1183.78 632.85 1199.89 601.33 1254.16 601.33 1238.05 632.85"/><polygon class="cls-73" points="1238.05 598.75 1183.78 598.75 1199.89 567.24 1254.16 567.24 1238.05 598.75"/><polygon class="cls-73" points="1238.05 598.75 1238.05 632.85 1254.16 601.33 1254.16 567.24 1238.05 598.75"/><rect class="cls-73" x="1183.78" y="598.75" width="54.27" height="34.09"/><polygon class="cls-73" points="1237.4 581.06 1183.13 581.06 1199.23 549.54 1253.51 549.54 1237.4 581.06"/><polygon class="cls-73" points="1237.4 546.96 1183.13 546.96 1199.23 515.45 1253.51 515.45 1237.4 546.96"/><polygon class="cls-73" points="1237.4 546.96 1237.4 581.06 1253.51 549.54 1253.51 515.45 1237.4 546.96"/><rect class="cls-73" x="1183.13" y="546.96" width="54.27" height="34.09"/><polygon class="cls-73" points="1236.75 529.27 1182.47 529.27 1198.58 497.75 1252.86 497.75 1236.75 529.27"/><polygon class="cls-73" points="1236.75 495.17 1182.47 495.17 1198.58 463.66 1252.86 463.66 1236.75 495.17"/><polygon class="cls-73" points="1236.75 495.17 1236.75 529.27 1252.86 497.75 1252.86 463.66 1236.75 495.17"/><rect class="cls-73" x="1182.47" y="495.17" width="54.27" height="34.09"/><polygon class="cls-73" points="1236.09 477.48 1181.82 477.48 1197.93 445.96 1252.2 445.96 1236.09 477.48"/><polygon class="cls-73" points="1236.09 443.38 1181.82 443.38 1197.93 411.87 1252.2 411.87 1236.09 443.38"/><polygon class="cls-73" points="1236.09 443.38 1236.09 477.48 1252.2 445.96 1252.2 411.87 1236.09 443.38"/><rect class="cls-73" x="1181.82" y="443.38" width="54.27" height="34.09"/><polygon class="cls-72" points="1255.88 712.29 1166.21 712.29 1199.35 647.46 1289.02 647.46 1255.88 712.29"/><polygon class="cls-72" points="1255.88 712.29 1255.88 750.17 1289.02 685.33 1289.02 647.46 1255.88 712.29"/><polygon class="cls-72" points="1255.16 692.63 1165.49 692.63 1198.63 627.79 1288.3 627.79 1255.16 692.63"/><polygon class="cls-72" points="1255.16 654.75 1165.49 654.75 1198.63 589.92 1288.3 589.92 1255.16 654.75"/><polygon class="cls-72" points="1255.16 654.75 1255.16 692.63 1288.3 627.79 1288.3 589.92 1255.16 654.75"/><polygon class="cls-72" points="1254.43 635.09 1164.76 635.09 1197.9 570.25 1287.58 570.25 1254.43 635.09"/><polygon class="cls-72" points="1254.43 597.21 1164.76 597.21 1197.9 532.38 1287.58 532.38 1254.43 597.21"/><polygon class="cls-72" points="1254.43 597.21 1254.43 635.09 1287.58 570.25 1287.58 532.38 1254.43 597.21"/><rect class="cls-72" x="1164.76" y="597.21" width="89.67" height="37.88"/><polygon class="cls-72" points="1253.71 577.55 1164.04 577.55 1197.18 512.72 1286.85 512.72 1253.71 577.55"/><polygon class="cls-72" points="1253.71 539.67 1164.04 539.67 1197.18 474.84 1286.85 474.84 1253.71 539.67"/><polygon class="cls-72" points="1253.71 539.67 1253.71 577.55 1286.85 512.72 1286.85 474.84 1253.71 539.67"/><rect class="cls-72" x="1164.04" y="539.67" width="89.67" height="37.88"/><polygon class="cls-72" points="1177.03 710.75 1087.36 710.75 1120.5 645.91 1210.17 645.91 1177.03 710.75"/><polygon class="cls-72" points="1177.03 710.75 1177.03 748.62 1210.17 683.79 1210.17 645.91 1177.03 710.75"/><polygon class="cls-72" points="1176.31 691.09 1086.63 691.09 1119.78 626.25 1209.45 626.25 1176.31 691.09"/><polygon class="cls-72" points="1176.31 653.21 1086.63 653.21 1119.78 588.37 1209.45 588.37 1176.31 653.21"/><polygon class="cls-72" points="1176.31 653.21 1176.31 691.09 1209.45 626.25 1209.45 588.37 1176.31 653.21"/><polygon class="cls-72" points="1175.58 633.54 1085.91 633.54 1119.05 568.71 1208.72 568.71 1175.58 633.54"/><polygon class="cls-72" points="1175.58 595.67 1085.91 595.67 1119.05 530.84 1208.72 530.84 1175.58 595.67"/><polygon class="cls-72" points="1175.58 595.67 1175.58 633.54 1208.72 568.71 1208.72 530.84 1175.58 595.67"/><rect class="cls-72" x="1085.91" y="595.67" width="89.67" height="37.88"/><polygon class="cls-72" points="1174.86 576.01 1085.19 576.01 1118.33 511.17 1208 511.17 1174.86 576.01"/><polygon class="cls-72" points="1174.86 538.13 1085.19 538.13 1118.33 473.3 1208 473.3 1174.86 538.13"/><polygon class="cls-72" points="1174.86 538.13 1174.86 576.01 1208 511.17 1208 473.3 1174.86 538.13"/><rect class="cls-72" x="1085.19" y="538.13" width="89.67" height="37.88"/><polygon class="cls-72" points="1347.95 714.28 1258.28 714.28 1291.42 649.44 1381.09 649.44 1347.95 714.28"/><polygon class="cls-72" points="1347.95 676.4 1258.28 676.4 1291.42 611.57 1381.09 611.57 1347.95 676.4"/><polygon class="cls-72" points="1347.23 656.74 1257.56 656.74 1290.7 591.9 1380.37 591.9 1347.23 656.74"/><polygon class="cls-72" points="1347.23 618.86 1257.56 618.86 1290.7 554.03 1380.37 554.03 1347.23 618.86"/><rect class="cls-72" x="1257.55" y="618.86" width="89.67" height="37.88"/><polygon class="cls-72" points="1346.5 599.2 1256.83 599.2 1289.97 534.37 1379.64 534.37 1346.5 599.2"/><polygon class="cls-72" points="1346.5 561.32 1256.83 561.32 1289.97 496.49 1379.64 496.49 1346.5 561.32"/><rect class="cls-72" x="1256.83" y="561.32" width="89.67" height="37.88"/><polygon class="cls-72" points="1074.67 691.32 922 691.32 955.14 626.49 1107.81 626.49 1074.67 691.32"/><polygon class="cls-72" points="1074.67 691.32 1074.67 729.2 1107.81 664.37 1107.81 626.49 1074.67 691.32"/><polygon class="cls-72" points="908.19 678.33 755.51 678.33 788.65 613.5 941.33 613.5 908.19 678.33"/><polygon class="cls-72" points="908.19 678.33 908.19 716.21 941.33 651.38 941.33 613.5 908.19 678.33"/></g></svg>