<svg xmlns="http://www.w3.org/2000/svg" viewBox="0 0 23.92 34.25"><defs><style>.cls-1{fill:#50adc0;}</style></defs><title>資產 1</title><g id="圖層_2" data-name="圖層 2"><g id="圖層_1-2" data-name="圖層 1"><path class="cls-1" d="M23.92,33.65a12.48,12.48,0,0,1-3.92.59,10.33,10.33,0,0,1-10-6.4C4,27,0,21.84,0,13.9,0,5.26,4.82,0,11.69,0S23.38,5.26,23.38,13.9c0,7.76-3.88,12.91-9.67,13.9,1.23,2.39,3.73,3.6,6.72,3.6a9.55,9.55,0,0,0,2.88-.4ZM11.64,25.16c4.89,0,8.14-4.38,8.14-11.25S16.53,3,11.64,3,3.5,7.15,3.5,13.91s3.2,11.24,8.13,11.24Z"/></g></g></svg>