<?xml version="1.0" encoding="utf-8"?>
<!-- Generator: Adobe Illustrator 20.1.0, SVG Export Plug-In . SVG Version: 6.00 Build 0)  -->
<svg version="1.1" id="bg" xmlns="http://www.w3.org/2000/svg" xmlns:xlink="http://www.w3.org/1999/xlink" x="0px" y="0px"
	 viewBox="0 0 1280 650" style="enable-background:new 0 0 1280 650;" xml:space="preserve">
<style type="text/css">
	.st0{fill:#FFFFFF;}
	.st1{fill:#00364B;}
	.st2{fill:none;stroke:#004864;stroke-width:10;stroke-linecap:round;stroke-miterlimit:10;stroke-dasharray:107.59,24.45;}
	.st3{fill:none;stroke:#004864;stroke-width:7.85;stroke-linecap:round;stroke-miterlimit:10;stroke-dasharray:211.03,30.15;}
	.st4{fill:none;stroke:#004864;stroke-width:5.69;stroke-linecap:round;stroke-miterlimit:10;stroke-dasharray:269.89,29.67;}
	.st5{fill:none;stroke:#004864;stroke-width:3.54;stroke-linecap:round;stroke-miterlimit:10;stroke-dasharray:343.94,31.78;}
	.st6{fill:none;stroke:#004864;stroke-width:1.39;stroke-linecap:round;stroke-miterlimit:10;stroke-dasharray:457.42,37.28;}
	.st7{opacity:0.99;fill:#004661;enable-background:new    ;}
	.st8{opacity:0.98;fill:#004661;enable-background:new    ;}
	.st9{opacity:0.97;fill:#004661;enable-background:new    ;}
	.st10{opacity:0.96;fill:#004661;enable-background:new    ;}
	.st11{opacity:0.94;fill:#004661;enable-background:new    ;}
	.st12{opacity:0.93;fill:#004661;enable-background:new    ;}
	.st13{opacity:0.92;fill:#004661;enable-background:new    ;}
	.st14{opacity:0.91;fill:#004661;enable-background:new    ;}
	.st15{opacity:0.9;fill:#004661;enable-background:new    ;}
	.st16{opacity:0.89;fill:#004661;enable-background:new    ;}
	.st17{opacity:0.88;fill:#004661;enable-background:new    ;}
	.st18{opacity:0.87;fill:#004661;enable-background:new    ;}
	.st19{opacity:0.86;fill:#004661;enable-background:new    ;}
	.st20{opacity:0.84;fill:#004661;enable-background:new    ;}
	.st21{opacity:0.83;fill:#004661;enable-background:new    ;}
	.st22{opacity:0.82;fill:#004661;enable-background:new    ;}
	.st23{opacity:0.81;fill:#004661;enable-background:new    ;}
	.st24{opacity:0.8;fill:#004661;enable-background:new    ;}
	.st25{opacity:0.79;fill:#004661;enable-background:new    ;}
	.st26{opacity:0.78;fill:#004661;enable-background:new    ;}
	.st27{opacity:0.77;fill:#004661;enable-background:new    ;}
	.st28{opacity:0.75;fill:#004661;enable-background:new    ;}
	.st29{opacity:0.74;fill:#004661;enable-background:new    ;}
	.st30{opacity:0.73;fill:#004661;enable-background:new    ;}
	.st31{opacity:0.72;fill:#004661;enable-background:new    ;}
	.st32{opacity:0.71;fill:#004661;enable-background:new    ;}
	.st33{opacity:0.7;fill:#004661;enable-background:new    ;}
	.st34{opacity:0.69;fill:#004661;enable-background:new    ;}
	.st35{opacity:0.68;fill:#004661;enable-background:new    ;}
	.st36{opacity:0.67;fill:#004661;enable-background:new    ;}
	.st37{opacity:0.65;fill:#004661;enable-background:new    ;}
	.st38{opacity:0.64;fill:#004661;enable-background:new    ;}
	.st39{opacity:0.63;fill:#004661;enable-background:new    ;}
	.st40{opacity:0.62;fill:#004661;enable-background:new    ;}
	.st41{opacity:0.61;fill:#004661;enable-background:new    ;}
	.st42{opacity:0.6;fill:#004661;enable-background:new    ;}
	.st43{opacity:0.59;fill:#004661;enable-background:new    ;}
	.st44{opacity:0.58;fill:#004661;enable-background:new    ;}
	.st45{opacity:0.57;fill:#004661;enable-background:new    ;}
	.st46{opacity:0.55;fill:#004661;enable-background:new    ;}
	.st47{opacity:0.54;fill:#004661;enable-background:new    ;}
	.st48{opacity:0.53;fill:#004661;enable-background:new    ;}
	.st49{opacity:0.52;fill:#004661;enable-background:new    ;}
	.st50{opacity:0.51;fill:#004661;enable-background:new    ;}
	.st51{opacity:0.5;fill:#004661;enable-background:new    ;}
	.st52{opacity:0.49;fill:#004661;enable-background:new    ;}
	.st53{opacity:0.48;fill:#004661;enable-background:new    ;}
	.st54{opacity:0.46;fill:#004661;enable-background:new    ;}
	.st55{opacity:0.45;fill:#004661;enable-background:new    ;}
	.st56{opacity:0.44;fill:#004661;enable-background:new    ;}
	.st57{opacity:0.43;fill:#004661;enable-background:new    ;}
	.st58{opacity:0.42;fill:#004661;enable-background:new    ;}
	.st59{opacity:0.41;fill:#004661;enable-background:new    ;}
	.st60{opacity:0.4;fill:#004661;enable-background:new    ;}
	.st61{opacity:0.39;fill:#004661;enable-background:new    ;}
	.st62{opacity:0.38;fill:#004661;enable-background:new    ;}
	.st63{opacity:0.36;fill:#004661;enable-background:new    ;}
	.st64{opacity:0.35;fill:#004661;enable-background:new    ;}
	.st65{opacity:0.34;fill:#004661;enable-background:new    ;}
	.st66{opacity:0.33;fill:#004661;enable-background:new    ;}
	.st67{opacity:0.32;fill:#004661;enable-background:new    ;}
	.st68{fill:#6BFFBA;}
	.st69{enable-background:new    ;}
	.st70{fill:#004864;}
	.st71{fill:none;stroke:#00364B;stroke-width:2.95;stroke-linecap:round;stroke-linejoin:round;}
	.st72{fill:#6BFFBA;stroke:#00364B;stroke-width:2.38;stroke-linecap:round;stroke-linejoin:round;}
	.st73{fill:none;stroke:#00364B;stroke-width:3.58;stroke-linecap:round;stroke-linejoin:round;}
	.st74{fill:none;stroke:#00364B;stroke-width:1.19;stroke-linecap:round;stroke-linejoin:round;}
	.st75{fill:none;stroke:#00364B;stroke-width:2.38;stroke-linecap:round;stroke-linejoin:round;}
	.st76{fill:#FFFFFF;stroke:#00364B;stroke-width:2.38;stroke-linecap:round;stroke-linejoin:round;}
	.st77{fill:none;stroke:#00364B;stroke-width:3.18;stroke-linecap:round;stroke-linejoin:round;}
	.st78{fill:none;stroke:#00364B;stroke-width:11;stroke-linecap:round;stroke-linejoin:round;}
	.st79{fill:#BEBEBE;}
</style>
<rect x="-27.4" y="-17.6" class="st0" width="1319.9" height="604.1"/>
<title>verify</title>
<rect class="st1" width="1280" height="650"/>
<g>
	<circle class="st2" cx="646.2" cy="639.8" r="21"/>
	<circle class="st3" cx="646.2" cy="610" r="153.5"/>
	<circle class="st4" cx="646.2" cy="580.3" r="286"/>
	<circle class="st5" cx="646.2" cy="550.5" r="418.6"/>
	<circle class="st6" cx="646.2" cy="520.8" r="551.1"/>
</g>
<rect x="640.3" y="-31.2" transform="matrix(6.806721e-03 -1 1 6.806721e-03 -9.6056 1293.6093)" class="st7" width="12.3" height="1365.7"/>
<rect x="640.5" y="-41.1" transform="matrix(6.806721e-03 -1 1 6.806721e-03 0.3517 1283.88)" class="st8" width="12.1" height="1365.7"/>
<rect x="640.6" y="-51" transform="matrix(6.806721e-03 -1 1 6.806721e-03 10.2938 1274.1658)" class="st9" width="11.9" height="1365.8"/>
<rect x="640.8" y="-60.8" transform="matrix(6.806721e-03 -1 1 6.806721e-03 20.231 1264.4365)" class="st10" width="11.7" height="1365.8"/>
<rect x="641" y="-70.7" transform="matrix(6.806721e-03 -1 1 6.806721e-03 30.1632 1254.7123)" class="st11" width="11.5" height="1365.8"/>
<rect x="641.2" y="-80.6" transform="matrix(6.806721e-03 -1 1 6.806721e-03 40.1203 1245.0029)" class="st12" width="11.3" height="1365.8"/>
<rect x="641.4" y="-90.4" transform="matrix(6.806721e-03 -1 1 6.806721e-03 50.0525 1235.2787)" class="st13" width="11" height="1365.8"/>
<rect x="641.5" y="-100.3" transform="matrix(6.806721e-03 -1 1 6.806721e-03 60.0096 1225.5497)" class="st14" width="10.8" height="1365.8"/>
<rect x="641.7" y="-110.2" transform="matrix(6.806721e-03 -1 1 6.806721e-03 69.9517 1215.8353)" class="st15" width="10.6" height="1365.8"/>
<rect x="641.9" y="-120" transform="matrix(6.806721e-03 -1 1 6.806721e-03 79.8988 1206.1162)" class="st16" width="10.4" height="1365.8"/>
<rect x="642.1" y="-129.9" transform="matrix(6.806721e-03 -1 1 6.806721e-03 89.8361 1196.3868)" class="st17" width="10.2" height="1365.8"/>
<rect x="642.3" y="-139.8" transform="matrix(6.806721e-03 -1 1 6.806721e-03 99.7683 1186.6625)" class="st18" width="10" height="1365.7"/>
<rect x="642.4" y="-149.6" transform="matrix(6.806721e-03 -1 1 6.806721e-03 109.7354 1176.9435)" class="st19" width="9.8" height="1365.8"/>
<rect x="642.6" y="-159.5" transform="matrix(6.806721e-03 -1 1 6.806721e-03 119.6674 1167.2191)" class="st20" width="9.6" height="1365.7"/>
<rect x="642.8" y="-169.4" transform="matrix(6.806721e-03 -1 1 6.806721e-03 129.6146 1157.4999)" class="st21" width="9.4" height="1365.8"/>
<rect x="643" y="-179.2" transform="matrix(6.806721e-03 -1 1 6.806721e-03 139.5468 1147.7756)" class="st22" width="9.2" height="1365.8"/>
<rect x="643.2" y="-189.1" transform="matrix(6.806721e-03 -1 1 6.806721e-03 149.494 1138.0564)" class="st23" width="9" height="1365.8"/>
<rect x="643.3" y="-199" transform="matrix(6.806721e-03 -1 1 6.806721e-03 159.446 1128.3323)" class="st24" width="8.8" height="1365.8"/>
<rect x="643.5" y="-208.8" transform="matrix(6.806721e-03 -1 1 6.806721e-03 169.3832 1118.603)" class="st25" width="8.6" height="1365.8"/>
<rect x="645.8" y="-217.3" transform="matrix(9.999500e-03 -0.9999 0.9999 9.999500e-03 177.861 1110.9211)" class="st26" width="8.4" height="1365.8"/>
<rect x="643.9" y="-228.6" transform="matrix(6.806721e-03 -1 1 6.806721e-03 189.2726 1099.1694)" class="st27" width="8.2" height="1365.8"/>
<rect x="644.1" y="-238.4" transform="matrix(6.806721e-03 -1 1 6.806721e-03 199.2146 1089.4553)" class="st28" width="8" height="1365.8"/>
<rect x="644.2" y="-248.3" transform="matrix(6.806721e-03 -1 1 6.806721e-03 209.1619 1079.7161)" class="st29" width="7.8" height="1365.8"/>
<rect x="644.4" y="-258.2" transform="matrix(6.806721e-03 -1 1 6.806721e-03 219.0992 1069.9868)" class="st30" width="7.6" height="1365.8"/>
<rect x="644.6" y="-268" transform="matrix(6.806721e-03 -1 1 6.806721e-03 229.0511 1060.2825)" class="st31" width="7.4" height="1365.7"/>
<rect x="644.8" y="-277.9" transform="matrix(6.806721e-03 -1 1 6.806721e-03 238.9884 1050.5533)" class="st32" width="7.2" height="1365.8"/>
<rect x="645" y="-287.8" transform="matrix(6.806721e-03 -1 1 6.806721e-03 248.9304 1040.8391)" class="st33" width="7" height="1365.7"/>
<rect x="645.1" y="-297.6" transform="matrix(6.806721e-03 -1 1 6.806721e-03 258.8777 1031.0999)" class="st34" width="6.8" height="1365.8"/>
<rect x="645.3" y="-307.5" transform="matrix(6.806721e-03 -1 1 6.806721e-03 268.8198 1021.3856)" class="st35" width="6.5" height="1365.8"/>
<rect x="645.5" y="-317.4" transform="matrix(6.806721e-03 -1 1 6.806721e-03 278.767 1011.6664)" class="st36" width="6.3" height="1365.8"/>
<rect x="645.7" y="-327.2" transform="matrix(6.806721e-03 -1 1 6.806721e-03 288.6992 1001.9421)" class="st37" width="6.1" height="1365.8"/>
<rect x="645.9" y="-337.1" transform="matrix(6.806721e-03 -1 1 6.806721e-03 298.6463 992.2229)" class="st38" width="5.9" height="1365.8"/>
<rect x="646" y="-347" transform="matrix(6.806721e-03 -1 1 6.806721e-03 308.5883 982.5086)" class="st39" width="5.7" height="1365.8"/>
<rect x="646.2" y="-356.8" transform="matrix(6.806721e-03 -1 1 6.806721e-03 318.5455 972.7795)" class="st40" width="5.5" height="1365.8"/>
<rect x="646.4" y="-366.7" transform="matrix(6.806721e-03 -1 1 6.806721e-03 328.4777 963.0552)" class="st41" width="5.3" height="1365.8"/>
<rect x="648.7" y="-375.6" transform="matrix(9.999500e-03 -0.9999 0.9999 9.999500e-03 337.4568 955.3736)" class="st42" width="5.1" height="1365.8"/>
<rect x="646.8" y="-386.4" transform="matrix(6.806721e-03 -1 1 6.806721e-03 348.367 943.6217)" class="st43" width="4.9" height="1365.8"/>
<rect x="646.9" y="-396.3" transform="matrix(6.806721e-03 -1 1 6.806721e-03 358.3043 933.8924)" class="st44" width="4.7" height="1365.8"/>
<rect x="647.1" y="-406.2" transform="matrix(6.806721e-03 -1 1 6.806721e-03 368.2613 924.1633)" class="st45" width="4.5" height="1365.8"/>
<rect x="647.3" y="-416" transform="matrix(6.806721e-03 -1 1 6.806721e-03 378.2034 914.449)" class="st46" width="4.3" height="1365.8"/>
<rect x="647.5" y="-425.9" transform="matrix(6.806721e-03 -1 1 6.806721e-03 388.1407 904.7198)" class="st47" width="4.1" height="1365.8"/>
<rect x="647.7" y="-435.8" transform="matrix(6.806721e-03 -1 1 6.806721e-03 398.0827 895.0055)" class="st48" width="3.9" height="1365.8"/>
<rect x="647.8" y="-445.6" transform="matrix(6.806721e-03 -1 1 6.806721e-03 408.02 885.2762)" class="st49" width="3.7" height="1365.8"/>
<rect x="648" y="-455.5" transform="matrix(6.806721e-03 -1 1 6.806721e-03 417.982 875.5621)" class="st50" width="3.5" height="1365.8"/>
<rect x="648.2" y="-465.4" transform="matrix(6.806721e-03 -1 1 6.806721e-03 427.9193 865.8328)" class="st51" width="3.3" height="1365.8"/>
<rect x="648.4" y="-475.2" transform="matrix(6.806721e-03 -1 1 6.806721e-03 437.8614 856.1186)" class="st52" width="3.1" height="1365.8"/>
<rect x="648.5" y="-485.1" transform="matrix(6.806721e-03 -1 1 6.806721e-03 447.7986 846.3893)" class="st53" width="2.9" height="1365.8"/>
<rect x="648.7" y="-495" transform="matrix(6.806721e-03 -1 1 6.806721e-03 457.7307 836.6849)" class="st54" width="2.7" height="1365.8"/>
<rect x="648.9" y="-504.8" transform="matrix(6.806721e-03 -1 1 6.806721e-03 467.6878 826.9558)" class="st55" width="2.5" height="1365.8"/>
<rect x="649.1" y="-514.7" transform="matrix(6.806721e-03 -1 1 6.806721e-03 477.62 817.2315)" class="st56" width="2.2" height="1365.8"/>
<rect x="649.3" y="-524.6" transform="matrix(6.806721e-03 -1 1 6.806721e-03 487.567 807.5123)" class="st57" width="2" height="1365.8"/>
<rect x="649.5" y="-534.4" transform="matrix(6.806721e-03 -1 1 6.806721e-03 497.5143 797.793)" class="st58" width="1.8" height="1365.8"/>
<rect x="649.6" y="-544.3" transform="matrix(6.806721e-03 -1 1 6.806721e-03 507.4564 788.0788)" class="st59" width="1.6" height="1365.8"/>
<rect x="649.8" y="-554.2" transform="matrix(6.806721e-03 -1 1 6.806721e-03 517.3936 778.3495)" class="st60" width="1.4" height="1365.8"/>
<rect x="650" y="-564" transform="matrix(6.806721e-03 -1 1 6.806721e-03 527.3358 768.6153)" class="st61" width="1.2" height="1365.8"/>
<rect x="650.2" y="-573.9" transform="matrix(6.806721e-03 -1 1 6.806721e-03 537.2929 758.9061)" class="st62" width="1" height="1365.8"/>
<rect x="650.4" y="-583.8" transform="matrix(6.806721e-03 -1 1 6.806721e-03 547.225 749.1818)" class="st63" width="0.8" height="1365.8"/>
<rect x="650.5" y="-593.6" transform="matrix(6.806721e-03 -1 1 6.806721e-03 557.1721 739.4626)" class="st64" width="0.6" height="1365.8"/>
<rect x="650.7" y="-603.5" transform="matrix(6.806721e-03 -1 1 6.806721e-03 567.1043 729.7383)" class="st65" width="0.4" height="1365.8"/>
<rect x="650.9" y="-613.4" transform="matrix(6.806721e-03 -1 1 6.806721e-03 577.0616 720.0092)" class="st66" width="0.2" height="1365.8"/>
<polygon class="st67" points="-31.8,55 1333.9,64.3 1333.9,64.3 "/>
<path class="st68" d="M1251.1,41.8c0.9,0,1.6-0.6,1.7-1.5c-0.1-0.8-0.8-1.5-1.6-1.4h-4.4c-0.8,0-1.4-0.6-1.4-1.3c0-0.1,0-0.2,0-0.3
	l0.8-5.4h-13.2c-1,0-1.9,0.8-2,1.9l-1.2,6.9c-0.2,0.8,0.2,1.6,0.9,1.8c0.1,0,0.2,0.1,0.4,0.1c0.9,0,1.6-0.7,1.6-1.5l0.8-4.4
	c0.1-0.9,0.9-1.6,1.8-1.6c0.7,0,1.2,0.6,1.1,1.3c0,0.1,0,0.3-0.1,0.4l-3.6,21.2c-0.2,0.9-1,1.6-1.9,1.6h-2c-0.9,0-1.7,0.7-1.9,1.6
	l-0.4,2.7c-0.1,0.8,0.5,1.5,1.2,1.6c0.1,0,0.1,0,0.2,0c0.8-0.1,1.5-0.7,1.6-1.5c0.2-0.9,1-1.5,1.9-1.5h1.5c1.3,0,2.5-1,2.8-2.3
	l1.6-8.4c0.2-0.9,1-1.6,2-1.6h4.8c0.8,0,1.4,0.6,1.4,1.3c0,0.1,0,0.2,0,0.3l-1.8,11.7c-0.2,0.9,0.4,1.8,1.3,2c0.1,0,0.3,0,0.4,0h3
	c0.9,0.1,1.7-0.5,1.8-1.3c0-0.1,0-0.1,0-0.2c-0.1-0.8-0.7-1.4-1.5-1.3c0,0-0.1,0-0.1,0l0,0c-0.8,0-1.4-0.6-1.4-1.3
	c0-0.1,0-0.2,0-0.3l1.8-11.6c0.2-1.1-0.5-2.1-1.6-2.3c-0.1,0-0.2,0-0.4,0h-1.2c-0.8,0-1.4-0.6-1.4-1.3c0-0.1,0-0.2,0-0.3l0.6-3.5
	L1251.1,41.8L1251.1,41.8z"/>
<path class="st68" d="M1242.3,23.4c0.2-0.4,0.8-0.6,1.2-0.4c0.2,0.1,0.4,0.3,0.5,0.6l2.2,4.8c0.3,0.5,0.1,1.1-0.3,1.4
	c-0.2,0.1-0.4,0.2-0.7,0.1h-6.2c-0.9,0-1.2-0.6-0.7-1.3L1242.3,23.4z"/>
<path class="st68" d="M1246.4,22.7c-0.5,0-0.9-0.4-0.9-0.9c0-0.2,0.1-0.4,0.2-0.5l2.2-2.8c0.3-0.4,0.9-0.5,1.2-0.2
	c0.4,0.3,0.5,0.9,0.2,1.2l-2.2,2.8C1246.9,22.6,1246.7,22.7,1246.4,22.7z"/>
<path class="st68" d="M1248,25.8c-0.5,0-0.9-0.4-0.9-0.9c0-0.3,0.2-0.6,0.5-0.8l3.7-1.7c0.4-0.2,1,0,1.2,0.4c0.2,0.4,0,1-0.4,1.2
	l-3.7,1.7C1248.2,25.8,1248.1,25.8,1248,25.8z"/>
<path class="st68" d="M1252.9,29.1h-3.7c-0.5,0-0.9-0.4-0.9-0.9c0-0.5,0.4-0.9,0.9-0.9h3.7c0.5,0,0.9,0.4,0.9,0.9
	C1253.8,28.7,1253.4,29.1,1252.9,29.1L1252.9,29.1z"/>
<g class="st69">
	<path class="st68" d="M170.5,201.6c-0.8,2.7-2.2,5.9-3.4,7.7c-0.7-0.5-2.1-1.4-2.9-1.9c1.1-1.8,2.2-4.4,2.9-6.7L170.5,201.6z
		 M175.1,199.8v11.9h-3.9v-11.9h-6.6v-3.5h6.6v-2.5h-6.9v-3.6h9.8c0.4-1.5,0.9-3.4,1.2-4.8l3.9,0.7c-0.5,1.4-1,2.8-1.4,4h3.2v3.6
		h-5.8v2.5h5.2v3.5H175.1z M180.1,185.4h-15.2v-3.5h5.7c-0.3-0.7-0.6-1.5-0.9-2.2l4-1.1c0.5,1,1.1,2.2,1.6,3.2h4.9V185.4z
		 M167.8,190.2c-0.1-1-0.6-2.7-1-3.9l3.4-0.7c0.5,1.2,0.9,2.7,1.1,3.7L167.8,190.2z M178.3,206.9c-0.5-1.4-1.7-3.5-2.6-5.1l2.7-1.4
		c1,1.5,2.2,3.5,2.8,4.8L178.3,206.9z M194.5,207.7c0.5,0,0.7-0.5,0.7-4.3c0.7,0.6,2.4,1.2,3.5,1.5c-0.3,5.1-1.3,6.4-3.7,6.4h-2.1
		c-3.1,0-3.7-1.2-3.7-4.6v-6.1h-1.6c-0.5,5.3-1.9,9.1-7.6,11.3c-0.4-1-1.5-2.5-2.3-3.1c4.6-1.6,5.6-4.3,5.9-8.2h-1.9V180h14.8v20.6
		h-3.4v6c0,0.9,0.1,1,0.5,1H194.5z M185.5,186h6.8v-2.2h-6.8V186z M185.5,191.4h6.8v-2.2h-6.8V191.4z M185.5,197h6.8v-2.2h-6.8V197z
		"/>
	<path class="st68" d="M232.1,201.2c-1.5,2.2-3.5,4-6,5.5c3.4,0.6,7.1,1.1,11.2,1.3c-0.9,1-1.9,2.7-2.4,3.9
		c-5.4-0.4-10.2-1.3-14.4-2.7c-4.3,1.5-9.3,2.3-14.4,2.8c-0.4-1-1.4-2.7-2.2-3.5c4.1-0.2,8-0.7,11.5-1.5c-1.3-0.7-2.5-1.5-3.7-2.3
		c-1.3,0.7-2.6,1.2-3.9,1.7c-0.7-0.7-2.1-2.2-3-2.8c1.3-0.4,2.7-0.9,3.9-1.5c-0.8-0.8-1.5-1.7-2.2-2.6l3.4-1.4
		c0.6,0.8,1.3,1.6,2.1,2.3c1.4-0.9,2.7-1.8,3.7-2.9c-1.6-0.5-2-1.5-2-3.5v-2.5h4v2.5c0,0.8,0.3,0.9,1.5,0.9h3.8
		c0.9,0,1.1-0.2,1.2-1.6c0.8,0.5,2.3,0.9,3.3,1.1c-0.4,2.7-1.4,3.5-4.1,3.5h-3.3l0.2,0.1c-0.4,0.5-0.9,1.1-1.4,1.6h9.6l0.7-0.1
		L232.1,201.2z M209.1,193.4H205v-6.5h6c-0.4-0.8-0.9-1.7-1.5-2.5l1.9-0.8c-1.5,0-3,0.1-4.5,0.1c-0.1-0.9-0.5-2.3-0.8-3.1
		c8.9-0.2,19.5-0.9,25.5-2l2.9,2.8c-1.4,0.3-3,0.6-4.6,0.7l3.2,1c-0.9,1.3-1.9,2.6-2.7,3.7h5.9v7h-3.5c1,0.9,1.8,1.8,2.3,2.6
		l-3.1,2.3c-1.1-1.7-3.5-4.1-5.6-5.7l2.9-2c0.8,0.6,1.7,1.4,2.6,2.1v-3h-9.9c1,0.5,1.8,1.1,2.4,1.6l-2.1,2.4c-1.1-1-3.3-2.3-5.2-3.1
		l0.8-0.9h-8.7V193.4z M213.6,192.7c-0.8,2-2,4.2-3.9,5.7l-3-2.3c1.6-1.1,2.9-3,3.6-4.8L213.6,192.7z M219.5,183.2
		c-2.1,0.1-4.1,0.2-6.2,0.3c0.7,0.9,1.4,1.9,1.6,2.7l-1.5,0.6h5.3c-0.3-0.9-0.9-2-1.5-2.9L219.5,183.2z M215.2,202.7
		c1.7,1,3.6,1.9,5.8,2.6c1.8-0.7,3.3-1.6,4.6-2.6L215.2,202.7L215.2,202.7z M226,186.8c0.8-1.3,1.9-3.1,2.5-4.5
		c-2.4,0.3-4.9,0.5-7.5,0.7c0.7,1,1.4,2.1,1.6,3l-2.2,0.8H226z"/>
	<path class="st68" d="M276,184.1c0,0,0,1.4,0,1.9c-0.5,15.9-0.9,21.6-2.4,23.5c-1,1.3-2,1.7-3.5,2c-1.4,0.2-3.6,0.1-5.7,0.1
		c-0.1-1.2-0.7-3-1.4-4.1c2.3,0.2,4.5,0.2,5.4,0.2c0.7,0,1.1-0.1,1.6-0.6c1.1-1.1,1.5-6.5,1.9-19.1h-7.8c-0.9,2.1-2.1,4.1-3.2,5.6
		c-0.6-0.5-1.8-1.4-2.8-2v16.7h-9.7v2.6h-3.9v-26.5h4.1c0.5-1.8,0.9-4.1,1.1-5.7l4.7,0.6c-0.6,1.8-1.3,3.6-1.9,5.1h5.6v5.8
		c2.1-3,3.9-7.3,4.9-11.5l4.1,0.9c-0.4,1.5-0.9,3-1.4,4.5H276z M254.2,188.1h-5.8v5.8h5.8V188.1z M254.2,204.5v-7h-5.8v7H254.2z
		 M266.2,202.6c-1-2.1-3.3-5.6-5.1-8.2l3.4-1.9c1.8,2.5,4.2,5.9,5.3,7.9L266.2,202.6z"/>
	<path class="st68" d="M285.9,200.2c2.8-0.9,4.5-2.4,4.7-4.3c-0.1,0-0.3,0-0.4,0c-1.8,0-3.5-1.1-3.5-3.2c0-2,1.6-3.2,3.6-3.2
		c2.6,0,3.9,1.9,3.9,4.9c0,4-2.7,7.3-7.2,8.6L285.9,200.2z"/>
	<path class="st68" d="M315,180c-0.9,2.5-2.1,5-3.5,7.3v24.5h-4.1v-18.2c-0.8,1.1-1.6,2-2.4,2.9c-0.4-1.1-1.6-3.4-2.3-4.4
		c3.3-3.2,6.4-8.3,8.3-13.3L315,180z M327.9,188.9v18.3c0,2-0.4,3.2-1.7,3.9c-1.3,0.7-3,0.9-5.3,0.9c-0.2-1.2-0.8-3.1-1.5-4.3
		c1.5,0,3.1,0,3.6,0c0.5,0,0.7-0.1,0.7-0.6v-18.2h-4.2c-1,2.1-2.2,4-3.4,5.5c-0.8-0.7-2.5-2.1-3.5-2.8c2.8-3,4.9-8,6.2-12.8l4.2,0.9
		c-0.5,1.8-1.1,3.6-1.7,5.3h12.5l0.7-0.1l3.1,0.6c-0.4,2.9-1.1,6.2-1.6,8.3l-3.7-0.6c0.2-1.1,0.4-2.6,0.6-4.2H327.9z M321.9,195.3
		c-1.1,4.5-2.9,9-4.9,11.9c-0.8-0.7-2.7-1.7-3.7-2.3c2.1-2.5,3.6-6.5,4.4-10.5L321.9,195.3z M333.1,194.1c1.9,3.7,3.5,8.4,4,11.6
		l-4.1,1.4c-0.4-3.2-1.9-8.1-3.7-11.7L333.1,194.1z"/>
	<path class="st68" d="M375.9,184.1c0,0,0,1.4,0,1.9c-0.5,15.9-0.9,21.6-2.4,23.5c-1,1.3-2,1.7-3.5,2c-1.4,0.2-3.6,0.1-5.7,0.1
		c-0.1-1.2-0.7-3-1.4-4.1c2.3,0.2,4.5,0.2,5.4,0.2c0.7,0,1.1-0.1,1.6-0.6c1.1-1.1,1.5-6.5,1.9-19.1H364c-0.9,2.1-2.1,4.1-3.2,5.6
		c-0.6-0.5-1.8-1.4-2.8-2v16.7h-9.7v2.6h-3.9v-26.5h4.1c0.5-1.8,0.9-4.1,1.1-5.7l4.7,0.6c-0.6,1.8-1.3,3.6-1.9,5.1h5.6v5.8
		c2.1-3,3.9-7.3,4.9-11.5l4.1,0.9c-0.4,1.5-0.9,3-1.4,4.5H375.9z M354.1,188.1h-5.8v5.8h5.8V188.1z M354.1,204.5v-7h-5.8v7H354.1z
		 M366.1,202.6c-1-2.1-3.3-5.6-5.1-8.2l3.4-1.9c1.8,2.5,4.2,5.9,5.3,7.9L366.1,202.6z"/>
	<path class="st68" d="M390.1,198.7v8.3c0,2-0.3,3-1.4,3.6c-1.1,0.7-2.7,0.9-5,0.8c-0.1-1-0.6-2.8-1.1-3.9c1.3,0,2.6,0,3,0
		c0.4,0,0.6-0.1,0.6-0.6v-7.1c-1.2,0.3-2.3,0.6-3.3,0.9l-1-4.1c1.2-0.2,2.7-0.6,4.3-1v-6.3h-3.9v-3.9h3.9v-6.7h3.9v6.7h3.6v3.9h-3.6
		v5.3l3.3-0.9l0.6,3.8L390.1,198.7z M406.7,207.6c0.8,0.1,1.6,0.1,2.5,0.1c1.2,0,5.7,0,7.3,0c-0.5,0.9-1,2.6-1.2,3.7H409
		c-4.8,0-8.4-0.9-10.9-5.2c-0.9,2.2-2.2,4.1-3.8,5.6c-0.7-0.7-2.3-2-3.2-2.5c3-2.4,4.5-6.3,5.1-11.2l3.9,0.5
		c-0.2,1.3-0.4,2.5-0.7,3.6c0.8,2.1,1.9,3.4,3.2,4.2v-9.3h-8.5v-3.4h21.5v3.4h-8.9v3.1h6.9v3.3h-6.9V207.6z M413.7,192h-17.9v-12.3
		h17.9V192z M409.6,182.7h-9.8v1.8h9.8V182.7z M409.6,187.2h-9.8v1.8h9.8V187.2z"/>
	<path class="st68" d="M455.1,203.9h-8.4c2.8,1.4,6.3,3.4,8.2,4.9l-3.4,3c-1.9-1.7-6-4.2-9.2-5.8l2.5-2h-4.2v8h-4.3v-8h-6.1l4.3,1.4
		c-2.1,2.4-5.7,4.6-8.8,6c-0.8-0.8-2.6-2.1-3.6-2.8c3.1-1,6.3-2.7,8-4.6h-7.9v-3.5h14.2V198h4.3v2.5h14.5V203.9z M450.6,199.6
		c-2.6-1-6.2-2.1-10.3-3.1c-4.1,1.6-9.5,2.4-16.7,2.8c-0.3-1.3-0.9-2.6-1.5-3.5c4.2-0.1,7.7-0.4,10.7-0.9c-2-0.4-4.1-0.7-6.2-1.1
		c0.9-0.8,2-1.8,3-2.9h-7.2v-3.3h10.2c0.9-1.1,1.6-2.1,2.3-3.1H427v2h-4V181h12.9c-0.3-0.5-0.5-1-0.8-1.5l4.6-0.9
		c0.5,0.7,1,1.6,1.4,2.4h13v5.5h-4.2v-2h-13.4l2.6,0.8c-0.6,0.7-1.2,1.5-1.9,2.3h7c0.3-0.7,0.6-1.4,0.9-2.2l4.2,0.8
		c-0.1,0.5-0.3,0.9-0.5,1.4h5.7v3.3h-7.4c-0.8,1.2-1.7,2.2-2.8,3.1c3.9,0.9,7.5,1.9,10.2,2.9L450.6,199.6z M434.2,190.9
		c-0.3,0.3-0.6,0.6-0.9,0.9c2,0.3,4,0.7,6,1.1c1.1-0.6,2-1.2,2.8-2H434.2z"/>
	<path class="st68" d="M494.4,206.4v4.2h-33.1v-4.2h4.5v-15.8h4.5v15.8h6.3v-21.4h-14v-4.1h30.8v4.1h-12.2v7.8h10.3v4.1h-10.3v9.4
		H494.4z"/>
	<path class="st68" d="M533.4,183.5v4.1H514c-1.2,2.5-2.6,4.9-4.3,7v17.3h-4.4v-12.4c-1,0.9-2,1.7-3.2,2.5c-0.5-1.1-1.5-3.1-2.1-4.1
		c3.8-2.4,6.9-6.2,9.1-10.3h-7.9v-4.1h9.8c0.6-1.7,1.2-3.3,1.6-5l4.5,1.1c-0.4,1.3-0.9,2.6-1.4,3.9H533.4z M524.7,207.1h8.6v3.9
		h-21.8v-3.9h8.8V199H513V195h7.4v-5.9h4.4v5.9h7.2v3.9h-7.2V207.1z"/>
	<path class="st68" d="M570.4,202.9c-0.5-0.4-1.1-0.9-1.8-1.4v10.2h-4.3v-0.8H549v0.9h-4.1v-10.1c-1,0.4-1.9,0.8-2.9,1.2
		c-0.6-1-1.9-2.5-2.8-3.4c3.3-0.9,6.9-2.4,9.7-4.2h-8.4v-3.4h5.9c-0.3-0.8-0.7-1.7-1.1-2.3l1.5-0.3c-0.1-0.9-0.5-2.1-0.9-2.8
		c6.5-0.1,14.2-0.6,18.9-1.4l2.2,2.9c-0.9,0.1-1.9,0.3-3,0.4l4.1,1c-0.6,0.9-1.2,1.7-1.7,2.5h6.3v3.4h-7.3c3.2,1.9,6.3,3.8,8.4,5.3
		L570.4,202.9z M545,188.1h-4v-7.1h13c-0.2-0.5-0.5-1.1-0.7-1.6l4.4-1.2c0.5,0.9,1,1.8,1.4,2.8h13.1v7.1H568v-3.5h-23V188.1z
		 M554.5,202H549v1.7h5.5V202z M549,208h5.5v-1.7H549V208z M554.5,189.2c-1.7,0.1-3.4,0.1-5.1,0.2c0.5,0.8,0.9,1.8,1.2,2.6h3.9
		V189.2z M554.5,195.5c-1.4,1.3-2.9,2.5-4.7,3.6h4.7V195.5z M564.3,202h-5.7v1.7h5.7V202z M564.3,208v-1.7h-5.7v1.7H564.3z
		 M562.4,191.9c0.5-1.1,1.2-2.5,1.6-3.5c-1.7,0.2-3.6,0.4-5.4,0.5v3H562.4z M565,199.1c-2-1.3-4.1-2.6-6.3-3.7h-0.1v3.7H565z"/>
	<path class="st68" d="M589.7,199.5c-0.4-1-1-2.4-1.7-3.8v16.2h-4.1v-13.1c-0.9,2.6-2,5.1-3.2,6.7c-0.4-1.2-1.3-3.1-2.1-4.3
		c2.2-2.8,4.1-7.8,5.2-12.1h-4.4v-3.9h4.4v-6.7h4.1v6.6h3.6v4H588v1.1c1,1.3,3.6,5.4,4.2,6.4L589.7,199.5z M612.7,197.1
		c-1.5,2.4-3.3,4.6-5.5,6.6c2.2,1.7,4.6,3.7,6,5.1l-3.3,2.7c-1.2-1.5-3.5-3.6-5.7-5.4c-3.4,2.4-7.3,4.4-11.7,5.7
		c-0.5-1-1.7-2.7-2.5-3.6c8.5-2.3,15.4-7.2,18.3-12.8L612.7,197.1z M610.2,190.1c-3.4,5.8-9.2,11-16,14c-0.5-0.9-1.6-2.5-2.4-3.2
		c3.3-1.3,6.4-3.2,8.9-5.5c-5.5,0.4-6.7,0.6-7.4,0.9c-0.1-1-0.7-3-1.1-3.9c0.9-0.2,2.2-0.5,2.9-1.2c0.6-0.6,2-2.8,3.1-4.6h-6v-3.9
		h8.5c-0.3-1.1-0.8-2.3-1.3-3.4l4.1-1.2c0.8,1.4,1.6,3.2,1.9,4.6h7.4v3.9h-10c-1.1,1.7-2.3,3.6-3.4,5.3l4.8-0.2c0.7-1,1.4-2,1.9-3
		L610.2,190.1z"/>
	<path class="st68" d="M650.3,184.8v17.8h-4.5v-1.8h-8.2v11.1H633v-11.1h-8.2v2h-4.4v-18H633v-6.2h4.6v6.2H650.3z M633,196.6v-7.7
		h-8.2v7.7H633z M645.8,196.6v-7.7h-8.2v7.7H645.8z"/>
</g>
<path class="st68" d="M330.6,269.6h305.1c31.1,0,56.3,31.1,56.3,69.5V441c0,38.4-25.2,69.5-56.3,69.5H330.6
	c-31.1,0-56.3-31.1-56.3-69.5V339C274.3,300.7,299.5,269.6,330.6,269.6z"/>
<path class="st68" d="M280,335.1L254.6,321c-2.2-1.2-2-4,0.2-4.5L292,309c2.2-0.5,4.3,1.9,3.3,3.7l-11.8,21.6
	C282.8,335.5,281.2,335.8,280,335.1z"/>
<g class="st69">
	<path class="st70" d="M335.9,297.9h4.9v16.2h-3.1v-10.9c0-0.3,0-0.8,0-1.3c0-0.6,0-1,0-1.3l-3.1,13.6h-3.3l-3-13.6
		c0,0.3,0,0.7,0,1.3c0,0.6,0,1,0,1.3v10.9h-3.1v-16.2h4.9l2.9,12.7L335.9,297.9z"/>
	<path class="st70" d="M346,310.2c0.1,0.6,0.2,1,0.4,1.2c0.4,0.4,1.1,0.6,2.2,0.6c0.6,0,1.1-0.1,1.5-0.3c0.4-0.2,0.5-0.5,0.5-0.8
		c0-0.4-0.1-0.6-0.4-0.8c-0.3-0.2-1.4-0.5-3.3-0.9c-1.4-0.3-2.3-0.8-2.9-1.3c-0.6-0.5-0.8-1.2-0.8-2.1c0-1.1,0.4-2.1,1.3-2.8
		c0.9-0.8,2.1-1.2,3.7-1.2c1.5,0,2.7,0.3,3.7,0.9c0.9,0.6,1.5,1.6,1.6,3.1h-3.1c0-0.4-0.2-0.7-0.3-1c-0.3-0.4-0.9-0.6-1.8-0.6
		c-0.7,0-1.2,0.1-1.5,0.3c-0.3,0.2-0.4,0.5-0.4,0.7c0,0.4,0.2,0.6,0.5,0.8c0.3,0.2,1.4,0.5,3.3,0.9c1.2,0.3,2.2,0.7,2.8,1.3
		c0.6,0.6,0.9,1.3,0.9,2.2c0,1.2-0.4,2.1-1.3,2.9c-0.9,0.7-2.2,1.1-4.1,1.1c-1.9,0-3.3-0.4-4.2-1.2c-0.9-0.8-1.3-1.8-1.3-3H346z"/>
	<path class="st70" d="M356,310.8h3.3v3.3H356V310.8z"/>
	<path class="st70" d="M371.3,309.1c0.1,0.7,0.3,1.3,0.6,1.7c0.6,0.7,1.5,1,2.9,1c0.8,0,1.5-0.1,2-0.3c1-0.3,1.4-1,1.4-1.9
		c0-0.5-0.2-0.9-0.7-1.2c-0.5-0.3-1.2-0.5-2.2-0.8l-1.7-0.4c-1.7-0.4-2.9-0.8-3.5-1.2c-1.1-0.7-1.6-1.9-1.6-3.5
		c0-1.4,0.5-2.6,1.6-3.6c1.1-1,2.6-1.4,4.7-1.4c1.7,0,3.2,0.5,4.4,1.4c1.2,0.9,1.9,2.2,1.9,3.9h-3.2c-0.1-1-0.5-1.7-1.3-2.1
		c-0.5-0.3-1.2-0.4-2-0.4c-0.9,0-1.6,0.2-2.1,0.5s-0.8,0.8-0.8,1.5c0,0.6,0.3,1,0.8,1.3c0.3,0.2,1.1,0.4,2.1,0.7l2.8,0.7
		c1.2,0.3,2.2,0.7,2.8,1.2c1,0.8,1.4,1.9,1.4,3.3c0,1.5-0.6,2.7-1.7,3.7c-1.1,1-2.8,1.5-4.8,1.5c-2.1,0-3.8-0.5-5-1.4
		s-1.8-2.3-1.8-4H371.3z"/>
	<path class="st70" d="M391.3,302.4c0.8,0.4,1.5,1,2.1,1.8c0.5,0.7,0.8,1.5,1,2.5c0.1,0.5,0.1,1.3,0.1,2.4h-8.7c0,1.2,0.5,2,1.2,2.5
		c0.5,0.3,1.1,0.4,1.7,0.4c0.7,0,1.3-0.2,1.7-0.5c0.2-0.2,0.5-0.5,0.6-0.8h3.2c-0.1,0.7-0.5,1.4-1.2,2.2c-1.1,1.2-2.6,1.7-4.5,1.7
		c-1.6,0-3-0.5-4.2-1.5c-1.2-1-1.8-2.6-1.8-4.8c0-2.1,0.5-3.7,1.6-4.8c1.1-1.1,2.5-1.7,4.3-1.7C389.5,301.8,390.5,302,391.3,302.4z
		 M386.6,305.1c-0.4,0.5-0.7,1.1-0.8,1.8h5.4c-0.1-0.8-0.3-1.5-0.8-1.9c-0.5-0.4-1.1-0.6-1.9-0.6
		C387.7,304.4,387.1,304.6,386.6,305.1z"/>
	<path class="st70" d="M403.2,306.4c-0.1-0.4-0.2-0.8-0.5-1.2c-0.4-0.5-0.9-0.7-1.6-0.7c-1.1,0-1.8,0.5-2.2,1.6
		c-0.2,0.6-0.3,1.3-0.3,2.2c0,0.9,0.1,1.6,0.3,2.1c0.4,1,1.1,1.5,2.1,1.5c0.7,0,1.3-0.2,1.6-0.6c0.3-0.4,0.5-0.9,0.6-1.5h3.2
		c-0.1,0.9-0.4,1.8-1,2.7c-1,1.4-2.4,2-4.4,2c-1.9,0-3.3-0.6-4.2-1.7s-1.4-2.6-1.4-4.4c0-2,0.5-3.6,1.5-4.8c1-1.1,2.4-1.7,4.1-1.7
		c1.5,0,2.7,0.3,3.7,1s1.5,1.9,1.7,3.6H403.2z"/>
	<path class="st70" d="M415.1,301.8c0,0,0.1,0,0.3,0v3.2c-0.2,0-0.4,0-0.5,0c-0.2,0-0.3,0-0.4,0c-1.3,0-2.1,0.4-2.5,1.2
		c-0.2,0.5-0.4,1.2-0.4,2.1v5.7h-3.1v-11.9h3v2.1c0.5-0.8,0.9-1.3,1.3-1.6c0.6-0.5,1.3-0.7,2.3-0.7
		C415,301.8,415.1,301.8,415.1,301.8z"/>
	<path class="st70" d="M425,302.4c0.8,0.4,1.5,1,2.1,1.8c0.5,0.7,0.8,1.5,1,2.5c0.1,0.5,0.1,1.3,0.1,2.4h-8.7c0,1.2,0.5,2,1.2,2.5
		c0.5,0.3,1.1,0.4,1.7,0.4c0.7,0,1.3-0.2,1.7-0.5c0.2-0.2,0.5-0.5,0.6-0.8h3.2c-0.1,0.7-0.5,1.4-1.2,2.2c-1.1,1.2-2.6,1.7-4.5,1.7
		c-1.6,0-3-0.5-4.2-1.5c-1.2-1-1.8-2.6-1.8-4.8c0-2.1,0.5-3.7,1.6-4.8c1.1-1.1,2.5-1.7,4.3-1.7C423.2,301.8,424.2,302,425,302.4z
		 M420.3,305.1c-0.4,0.5-0.7,1.1-0.8,1.8h5.4c-0.1-0.8-0.3-1.5-0.8-1.9c-0.5-0.4-1.1-0.6-1.9-0.6
		C421.4,304.4,420.8,304.6,420.3,305.1z"/>
	<path class="st70" d="M428.5,304.5v-2.2h1.7v-3.3h3.1v3.3h1.9v2.2h-1.9v6.3c0,0.5,0.1,0.8,0.2,0.9c0.1,0.1,0.5,0.2,1.1,0.2
		c0.1,0,0.2,0,0.3,0c0.1,0,0.2,0,0.3,0v2.3l-1.5,0.1c-1.5,0.1-2.5-0.2-3-0.8c-0.4-0.4-0.5-0.9-0.5-1.7v-7.4H428.5z"/>
	<path class="st70" d="M441.9,306.8c0.6-0.1,1-0.2,1.2-0.3c0.4-0.2,0.7-0.5,0.7-0.9c0-0.5-0.2-0.8-0.5-1s-0.8-0.3-1.5-0.3
		c-0.7,0-1.3,0.2-1.6,0.5c-0.2,0.3-0.4,0.6-0.4,1.1h-3c0.1-1,0.4-1.9,0.9-2.6c0.8-1.1,2.3-1.6,4.3-1.6c1.3,0,2.5,0.3,3.5,0.8
		c1,0.5,1.5,1.5,1.5,2.9v5.5c0,0.4,0,0.8,0,1.4c0,0.4,0.1,0.7,0.2,0.8c0.1,0.1,0.3,0.3,0.5,0.4v0.5h-3.4c-0.1-0.2-0.2-0.5-0.2-0.7
		c0-0.2-0.1-0.5-0.1-0.7c-0.4,0.5-0.9,0.9-1.5,1.2c-0.7,0.4-1.4,0.6-2.3,0.6c-1.1,0-2-0.3-2.7-0.9s-1.1-1.5-1.1-2.6
		c0-1.5,0.6-2.5,1.7-3.2c0.6-0.4,1.5-0.6,2.8-0.8L441.9,306.8z M443.8,308.3c-0.2,0.1-0.4,0.2-0.6,0.3c-0.2,0.1-0.5,0.1-0.8,0.2
		l-0.7,0.1c-0.7,0.1-1.1,0.3-1.4,0.4c-0.5,0.3-0.7,0.7-0.7,1.3c0,0.5,0.2,0.9,0.5,1.2s0.7,0.4,1.1,0.4c0.7,0,1.3-0.2,1.9-0.6
		c0.6-0.4,0.9-1.1,0.9-2.2V308.3z"/>
	<path class="st70" d="M456.3,301.8c0,0,0.1,0,0.3,0v3.2c-0.2,0-0.4,0-0.5,0c-0.2,0-0.3,0-0.4,0c-1.3,0-2.1,0.4-2.5,1.2
		c-0.2,0.5-0.4,1.2-0.4,2.1v5.7h-3.1v-11.9h3v2.1c0.5-0.8,0.9-1.3,1.3-1.6c0.6-0.5,1.3-0.7,2.3-0.7
		C456.2,301.8,456.3,301.8,456.3,301.8z"/>
	<path class="st70" d="M458.9,316.4l0.4,0c0.3,0,0.6,0,0.9,0c0.3,0,0.5-0.1,0.7-0.3c0.2-0.1,0.4-0.4,0.5-0.8s0.2-0.6,0.2-0.7
		l-4.4-12.5h3.5l2.6,8.8l2.5-8.8h3.3l-4.1,11.7c-0.8,2.3-1.4,3.7-1.9,4.2s-1.4,0.8-2.8,0.8c-0.3,0-0.5,0-0.7,0c-0.2,0-0.4,0-0.8,0
		V316.4z"/>
</g>
<g class="st69">
	<path class="st70" d="M471,303.7c0-1.2,0.9-2.2,2-2.2c1.2,0,2.1,0.9,2.1,2.2c0,1.2-0.9,2.1-2.1,2.1
		C471.9,305.8,471,304.9,471,303.7z M471,312.2c0-1.2,0.9-2.2,2-2.2c1.2,0,2.1,0.9,2.1,2.2s-0.9,2.2-2.1,2.2
		C471.9,314.4,471,313.4,471,312.2z"/>
</g>
<path class="st0" d="M186.7,285.8c5.5-8.7,14.2-8.5,19.4,0.3l23.9,40.9c5.2,8.9,1,16.1-9.3,16.1h-51.4c-10.3,0-14.2-7.1-8.7-15.8
	L186.7,285.8z"/>
<path class="st0" d="M162.3,351.8c-4.2-0.1-6.2-3.4-4.6-7.2l5.8-13.6c1.7-3.8-0.1-8.2-3.9-9.9c-3.9-1.6-8.3,0.2-10,4l-15,33.2
	c-1.7,3.8,0.3,7.1,4.4,7.5l33.5,2.5c3.6,0.2,6.4,3.3,6.3,6.9c0,0.4-0.1,0.7-0.1,1.1l-7.5,38.6c-0.9,5-1.4,10-1.4,15v68.8
	c0.1,4-3,7.4-7,7.6c-4,0.2-7.1,3.6-7,7.6v0.5c0,4.2,3.3,6.6,7.2,5.4l15.2-4.5c4.2-1.4,7.1-5.3,7.2-9.7v-43.4c0-4.2,0.1-7.6,0.3-7.6
	h18c0.2,0,0.4,3.4,0.4,7.6v44.3c0.2,4.4,3.1,8.2,7.3,9.5l15.1,4c2.9,1,6.1-0.6,7-3.5c0.2-0.7,0.3-1.4,0.3-2.2v-0.5
	c0.1-4-3-7.4-7-7.6s-7.1-3.6-7-7.6v-68.9c-0.1-5-0.6-10-1.4-15l-6.4-34c-0.8-4.1,1.6-8.3,5.2-9.4s7.4,1.3,8.3,5.4l2.1,9.3
	c0.9,3.9-1.6,7.8-5.5,8.7c-0.1,0-0.2,0-0.3,0.1l-0.3,0c-4.1,0.8-6.9,4.7-6.2,8.9l1.6,10c0.6,4.1,4.4,6.9,8.5,6.4
	c4-0.6,6.9-3.5,6.4-6.6s2.5-6.2,6.5-7l1.9-0.4c3.9-0.7,6.6-4.5,5.8-8.4c0-0.1,0-0.2-0.1-0.3l-8.1-35.8c-1.1-4.2-4.8-7.3-9.2-7.6
	L162.3,351.8z"/>
<path class="st71" d="M199.4,317.1v2.5c0,2.5,2,4.5,4.5,4.5c20.8-0.1,17.7-14.4,17.7-14.4h-14.8C202.7,309.7,199.4,313,199.4,317.1
	C199.4,317.1,199.4,317.1,199.4,317.1z"/>
<path class="st71" d="M191.9,317.1v2.5c0,2.5-2,4.5-4.5,4.5c-20.8-0.1-17.7-14.4-17.7-14.4h14.8C188.6,309.7,191.9,313,191.9,317.1
	C191.9,317.1,191.9,317.1,191.9,317.1z"/>
<path class="st72" d="M191.9,316.4c2.1-1.9,5.4-1.9,7.5,0"/>
<polyline class="st73" points="191.9,330.8 195.6,334 198.7,330.8 "/>
<path class="st74" d="M203.5,314.9c0,0,4.7-2.8,8.5,0l1.9-1.2"/>
<line class="st75" x1="208.2" y1="314.4" x2="208.2" y2="317.5"/>
<path class="st74" d="M187.8,314.9c0,0-4.7-2.8-8.6,0l-1.9-1.2"/>
<line class="st75" x1="183.1" y1="314.4" x2="183.1" y2="317.5"/>
<line class="st75" x1="201.4" y1="305.3" x2="211.9" y2="301.8"/>
<line class="st75" x1="180.2" y1="301.8" x2="190.7" y2="305.3"/>
<line class="st71" x1="218.8" y1="327" x2="218.8" y2="327"/>
<circle class="st0" cx="225.1" cy="289.6" r="10"/>
<path class="st0" d="M166,303h-1.3v-2.3c0-0.7-0.5-1.2-1.2-1.2s-1.2,0.5-1.2,1.2v2.3h-1.7c-0.7,0-1.2,0.5-1.2,1.2s0.5,1.2,1.2,1.2
	h1.7v2.3c0,0.7,0.5,1.2,1.2,1.2s1.2-0.5,1.2-1.2v-2.3h1.3c0.7,0,1.2-0.5,1.2-1.2S166.7,303,166,303z"/>
<line class="st74" x1="204.8" y1="286.8" x2="204.8" y2="293.8"/>
<line class="st74" x1="187.4" y1="286.8" x2="187.4" y2="293.8"/>
<line class="st74" x1="199.1" y1="282.2" x2="199.1" y2="293.8"/>
<line class="st74" x1="193.4" y1="282.2" x2="193.4" y2="293.8"/>
<polyline class="st76" points="180.7,359.8 195.6,374.7 209.4,359.8 "/>
<line class="st75" x1="195.6" y1="384" x2="195.6" y2="384.9"/>
<line class="st75" x1="195.6" y1="393.1" x2="195.6" y2="394"/>
<line class="st75" x1="146.4" y1="341.4" x2="146.1" y2="342.3"/>
<polyline class="st77" points="174.6,405 190.2,412.5 195.4,408.3 200.2,412.5 215.1,405 "/>
<line class="st77" x1="156.4" y1="338.8" x2="147.9" y2="336.2"/>
<line class="st75" x1="234.9" y1="401.6" x2="234" y2="402.4"/>
<line class="st77" x1="224.7" y1="398" x2="230.3" y2="405.7"/>
<polyline class="st78" points="182,515.9 182,508.6 168.4,515.9 151.3,515.9 "/>
<polyline class="st78" points="207.3,515.9 207.3,508.6 220.9,515.9 238,515.9 "/>
<line class="st77" x1="169.9" y1="454.6" x2="219.9" y2="454.6"/>
<g class="st69">
	<path class="st79" d="M944.9,585.2v3.2c0,0.8-0.1,1.2-0.6,1.4c-0.4,0.3-1,0.3-2,0.3c0-0.4-0.2-1.1-0.4-1.5c0.5,0,1,0,1.2,0
		c0.2,0,0.2-0.1,0.2-0.2v-2.8c-0.5,0.1-0.9,0.2-1.3,0.4l-0.4-1.6c0.5-0.1,1-0.2,1.7-0.4v-2.5h-1.5V580h1.5v-2.6h1.5v2.6h1.4v1.5
		h-1.4v2.1l1.3-0.3l0.2,1.5L944.9,585.2z M951.3,588.7c0.3,0,0.6,0,1,0c0.5,0,2.2,0,2.8,0c-0.2,0.3-0.4,1-0.5,1.4h-2.5
		c-1.9,0-3.3-0.3-4.2-2c-0.4,0.9-0.9,1.6-1.5,2.2c-0.3-0.3-0.9-0.8-1.2-1c1.2-0.9,1.8-2.5,2-4.3l1.5,0.2c-0.1,0.5-0.2,1-0.3,1.4
		c0.3,0.8,0.7,1.3,1.2,1.6v-3.6h-3.3v-1.3h8.4v1.3h-3.5v1.2h2.7v1.3h-2.7V588.7z M954,582.6h-7v-4.8h7V582.6z M952.4,579h-3.8v0.7
		h3.8V579z M952.4,580.7h-3.8v0.7h3.8V580.7z"/>
	<path class="st79" d="M969.9,587.2h-3.3c1.1,0.5,2.4,1.3,3.2,1.9l-1.3,1.2c-0.8-0.7-2.3-1.6-3.6-2.2l1-0.8h-1.6v3.1h-1.7v-3.1h-2.4
		l1.7,0.5c-0.8,0.9-2.2,1.8-3.4,2.3c-0.3-0.3-1-0.8-1.4-1.1c1.2-0.4,2.5-1.1,3.1-1.8h-3.1v-1.4h5.5v-1h1.7v1h5.6V587.2z
		 M968.2,585.5c-1-0.4-2.4-0.8-4-1.2c-1.6,0.6-3.7,0.9-6.5,1.1c-0.1-0.5-0.3-1-0.6-1.4c1.6,0,3-0.2,4.2-0.3
		c-0.8-0.2-1.6-0.3-2.4-0.4c0.4-0.3,0.8-0.7,1.2-1.1h-2.8v-1.3h4c0.3-0.4,0.6-0.8,0.9-1.2H959v0.8h-1.6v-2.1h5
		c-0.1-0.2-0.2-0.4-0.3-0.6l1.8-0.3c0.2,0.3,0.4,0.6,0.6,0.9h5v2.1H968v-0.8h-5.2l1,0.3c-0.2,0.3-0.5,0.6-0.7,0.9h2.7
		c0.1-0.3,0.2-0.6,0.3-0.8l1.6,0.3c-0.1,0.2-0.1,0.4-0.2,0.5h2.2v1.3h-2.9c-0.3,0.5-0.7,0.9-1.1,1.2c1.5,0.4,2.9,0.7,4,1.1
		L968.2,585.5z M961.8,582.2c-0.1,0.1-0.2,0.2-0.4,0.3c0.8,0.1,1.6,0.3,2.3,0.4c0.4-0.2,0.8-0.5,1.1-0.8H961.8z"/>
	<path class="st79" d="M984,586.8c-0.2-0.2-0.4-0.3-0.7-0.5v4h-1.7v-0.3h-6v0.4h-1.6v-3.9c-0.4,0.2-0.7,0.3-1.1,0.5
		c-0.2-0.4-0.7-1-1.1-1.3c1.3-0.4,2.7-0.9,3.8-1.6h-3.3v-1.3h2.3c-0.1-0.3-0.3-0.7-0.4-0.9l0.6-0.1c0-0.3-0.2-0.8-0.3-1.1
		c2.5-0.1,5.5-0.2,7.3-0.5l0.9,1.1c-0.4,0.1-0.7,0.1-1.2,0.2l1.6,0.4c-0.2,0.3-0.5,0.7-0.7,1h2.5v1.3h-2.9c1.3,0.7,2.5,1.5,3.3,2.1
		L984,586.8z M974.1,581.1h-1.6v-2.7h5.1c-0.1-0.2-0.2-0.4-0.3-0.6l1.7-0.5c0.2,0.3,0.4,0.7,0.6,1.1h5.1v2.7h-1.6v-1.4h-9V581.1z
		 M977.8,586.5h-2.1v0.7h2.1V586.5z M975.7,588.8h2.1v-0.7h-2.1V588.8z M977.8,581.5c-0.7,0-1.3,0.1-2,0.1c0.2,0.3,0.4,0.7,0.5,1
		h1.5V581.5z M977.8,584c-0.5,0.5-1.1,1-1.8,1.4h1.8V584z M981.6,586.5h-2.2v0.7h2.2V586.5z M981.6,588.8v-0.7h-2.2v0.7H981.6z
		 M980.9,582.6c0.2-0.4,0.5-1,0.6-1.4c-0.7,0.1-1.4,0.1-2.1,0.2v1.2H980.9z M981.9,585.4c-0.8-0.5-1.6-1-2.4-1.5h-0.1v1.5H981.9z"/>
	<path class="st79" d="M991.3,585.5c-0.1-0.4-0.4-0.9-0.7-1.5v6.3h-1.6v-5.1c-0.4,1-0.8,2-1.2,2.6c-0.2-0.5-0.5-1.2-0.8-1.7
		c0.9-1.1,1.6-3,2-4.7h-1.7V580h1.7v-2.6h1.6v2.6h1.4v1.5h-1.4v0.4c0.4,0.5,1.4,2.1,1.6,2.5L991.3,585.5z M1000.3,584.6
		c-0.6,0.9-1.3,1.8-2.1,2.6c0.8,0.7,1.8,1.4,2.3,2l-1.3,1.1c-0.5-0.6-1.4-1.4-2.2-2.1c-1.3,0.9-2.8,1.7-4.6,2.2
		c-0.2-0.4-0.7-1-1-1.4c3.3-0.9,6-2.8,7.1-5L1000.3,584.6z M999.3,581.8c-1.3,2.2-3.6,4.3-6.2,5.4c-0.2-0.4-0.6-1-0.9-1.3
		c1.3-0.5,2.5-1.3,3.5-2.1c-2.1,0.2-2.6,0.2-2.9,0.4c-0.1-0.4-0.3-1.2-0.4-1.5c0.3-0.1,0.8-0.2,1.1-0.5c0.2-0.2,0.8-1.1,1.2-1.8
		h-2.3V579h3.3c-0.1-0.4-0.3-0.9-0.5-1.3l1.6-0.5c0.3,0.6,0.6,1.2,0.7,1.8h2.9v1.5h-3.9c-0.4,0.7-0.9,1.4-1.3,2.1l1.9-0.1
		c0.3-0.4,0.6-0.8,0.8-1.2L999.3,581.8z"/>
</g>
<g class="st69">
	<path class="st79" d="M1016.4,579.8v6.9h-1.8V586h-3.2v4.3h-1.8V586h-3.2v0.8h-1.7v-7h4.9v-2.4h1.8v2.4H1016.4z M1009.7,584.4v-3
		h-3.2v3H1009.7z M1014.7,584.4v-3h-3.2v3H1014.7z"/>
</g>
<g class="st69">
	<path class="st79" d="M1023.6,588c0-0.7,0.6-1.3,1.3-1.3c0.8,0,1.3,0.6,1.3,1.3s-0.6,1.3-1.3,1.3
		C1024.2,589.3,1023.6,588.8,1023.6,588z"/>
	<path class="st79" d="M1029.2,588c0-0.7,0.6-1.3,1.3-1.3c0.8,0,1.3,0.6,1.3,1.3s-0.6,1.3-1.3,1.3
		C1029.8,589.3,1029.2,588.8,1029.2,588z"/>
	<path class="st79" d="M1034.8,588c0-0.7,0.6-1.3,1.3-1.3c0.8,0,1.3,0.6,1.3,1.3s-0.6,1.3-1.3,1.3
		C1035.4,589.3,1034.8,588.8,1034.8,588z"/>
</g>
<g>
	<path class="st1" d="M327.5,335.5c-0.5,0.2-1.1,0.4-1.6,0.6v4.2c0,0.6-0.1,0.9-0.5,1.1c-0.3,0.2-0.9,0.2-1.9,0.2
		c0-0.3-0.2-0.7-0.3-1c0.6,0,1.2,0,1.4,0c0.2,0,0.3-0.1,0.3-0.3v-3.9c-0.6,0.2-1.2,0.4-1.7,0.6l-0.3-1.1c0.6-0.1,1.2-0.3,2-0.6V332
		H323v-1h1.8v-3h1v3h1.6v1h-1.6v3l1.5-0.5L327.5,335.5z M332.5,340.3c0.4,0.1,0.9,0.1,1.4,0.1c0.4,0,2.4,0,2.9,0
		c-0.1,0.2-0.3,0.7-0.3,1h-2.6c-2.2,0-3.7-0.4-4.7-2.5c-0.4,1.1-1,2-1.8,2.7c-0.2-0.2-0.6-0.5-0.8-0.7c1.3-1.1,2-2.7,2.2-5l1,0.1
		c-0.1,0.6-0.2,1.1-0.3,1.6c0.4,1.3,1.1,2,2,2.3v-4.7h-3.7v-0.9h8.5v0.9h-3.8v1.8h3.1v0.9h-3.1V340.3z M335.5,333.3h-7v-4.9h7V333.3
		z M334.4,329.3h-4.9v1.2h4.9V329.3z M334.4,331.3h-4.9v1.2h4.9V331.3z"/>
	<path class="st1" d="M351.9,337v0.9h-6.2v3.7h-1.1V338h-6.1V337h6.1v-1.2h1.1v1.2H351.9z M350.5,336.4c-1.2-0.5-2.9-0.9-4.9-1.4
		c-1.6,0.7-3.8,1-6.5,1.2c-0.1-0.3-0.3-0.7-0.4-1c2.1-0.1,3.7-0.3,5.1-0.6c-1-0.2-2.1-0.4-3.2-0.5c0.5-0.4,1-0.9,1.5-1.5h-3.4v-0.9
		h4.2c0.5-0.5,0.9-1.1,1.2-1.5l1.1,0.3c-0.3,0.4-0.6,0.8-0.9,1.2h3.7c0.2-0.3,0.3-0.7,0.5-1l1.1,0.3c-0.1,0.3-0.2,0.5-0.3,0.8h2.7
		v0.9h-3.1c-0.5,0.7-1.1,1.3-1.8,1.7c1.8,0.4,3.5,0.8,4.7,1.3L350.5,336.4z M343.4,338.7c-0.9,1-2.4,2-3.7,2.5
		c-0.2-0.2-0.6-0.6-0.9-0.8c1.4-0.5,2.8-1.3,3.6-2.1L343.4,338.7z M340,331.2h-1v-2.1h5.8c-0.2-0.3-0.4-0.6-0.5-0.9l1.1-0.3
		c0.2,0.3,0.5,0.8,0.8,1.2h5.5v2.1h-1.1V330H340V331.2z M343.4,332.6c-0.3,0.3-0.6,0.6-0.9,0.9c1,0.1,2,0.3,2.9,0.5
		c0.8-0.4,1.4-0.9,1.9-1.4H343.4z M347.7,338.2c1.3,0.6,3.1,1.6,4,2.3l-0.8,0.8c-0.8-0.7-2.5-1.8-3.9-2.4L347.7,338.2z"/>
	<path class="st1" d="M358.3,337c0-0.2-0.1-0.5-0.2-0.8c-3.2,0.5-3.6,0.6-3.9,0.7c-0.1-0.2-0.2-0.8-0.4-1c0.3-0.1,0.7-0.5,1.1-1
		c0.2-0.3,0.7-0.9,1.2-1.7c-1.5,0.2-1.9,0.2-2.1,0.3c-0.1-0.2-0.2-0.7-0.3-1c0.3-0.1,0.5-0.4,0.8-0.8c0.3-0.4,1.4-2.2,2-3.8l1,0.4
		c-0.7,1.4-1.5,2.9-2.3,4l1.5-0.1c0.4-0.6,0.8-1.3,1.1-2l1,0.6c-1,1.7-2.1,3.5-3.3,4.8l2.4-0.3c-0.2-0.5-0.3-1-0.5-1.5l0.9-0.2
		c0.4,1,0.8,2.3,1,3.1L358.3,337z M355.4,337.7c-0.1,1.3-0.4,2.7-0.8,3.7c-0.2-0.1-0.7-0.3-0.9-0.3c0.3-0.9,0.6-2.3,0.7-3.5
		L355.4,337.7z M356.9,337.5c0.2,1,0.4,2.3,0.4,3.2l-0.9,0.2c0-0.8-0.2-2.1-0.4-3.2L356.9,337.5z M358.3,337.1
		c0.3,0.8,0.6,1.8,0.8,2.5l-0.8,0.3c-0.1-0.7-0.4-1.7-0.7-2.5L358.3,337.1z M367.4,340.3v1h-8.5v-1h3.8v-2.9h-3v-1h7.1v1h-3v2.9
		H367.4z M361,335.9c-0.3-0.8-1-1.9-1.8-3c0.6-0.9,1.2-2.1,1.6-2.8l1,0.3c-0.4,0.8-1,1.7-1.5,2.5c0.7,0.9,1.3,1.9,1.6,2.6L361,335.9
		z M367.3,329.7h-7.9v-1h7.9V329.7z M364.4,330.5c-0.4,0.8-1,1.7-1.5,2.4c0.7,0.9,1.4,1.9,1.7,2.5l-0.9,0.4
		c-0.3-0.8-1.1-1.9-1.9-2.9c0.6-0.9,1.3-2,1.6-2.7L364.4,330.5z M366.3,335.9c-0.4-0.8-1.2-2-2-3c0.6-0.9,1.3-2.1,1.7-2.8l1,0.3
		c-0.4,0.8-1.1,1.7-1.5,2.5c0.7,0.8,1.4,1.9,1.8,2.5L366.3,335.9z"/>
	<path class="st1" d="M376.7,328c0,0.5,0,1.3-0.1,2.2c0.2,1.8,1.1,8.1,6.4,10.4c-0.3,0.3-0.6,0.6-0.8,0.9c-3.8-1.8-5.4-5.5-6.1-8.2
		c-0.7,3-2.3,6.4-5.9,8.3c-0.2-0.3-0.6-0.6-0.9-0.9c6.2-3.1,6.1-10.4,6.2-12.7H376.7z"/>
	<path class="st1" d="M398.2,339.4v1.1h-13.4v-1.1h6v-8.6h-5.2v-1.1h11.8v1.1h-5.4v8.6H398.2z"/>
	<path class="st1" d="M412.9,337.8c-0.3-0.3-0.7-0.6-1.1-0.9v4.6h-1.1v-0.4h-7.3v0.5h-1v-4.5c-0.6,0.3-1.1,0.5-1.6,0.7
		c-0.1-0.3-0.5-0.7-0.7-0.9c1.7-0.5,3.6-1.4,4.9-2.4h-4.5v-0.9h2.9c-0.1-0.4-0.4-0.9-0.6-1.2l0.9-0.2c0.3,0.4,0.6,1,0.7,1.4
		l-0.4,0.1h2.4v-1.6c-1.2,0.1-2.5,0.1-3.7,0.1c0-0.2-0.1-0.6-0.3-0.8c2.8-0.1,6.3-0.3,8.2-0.6l0.6,0.8c-1,0.2-2.4,0.3-3.8,0.4v1.7
		h1.9c0.3-0.5,0.6-1.2,0.8-1.7l1,0.3c-0.3,0.5-0.5,0.9-0.8,1.3h3.1v0.9h-4c1.7,0.9,3.2,1.9,4.3,2.8L412.9,337.8z M401.7,331.8h-1
		v-2.7h5.7c-0.1-0.3-0.3-0.7-0.5-0.9l1.1-0.3c0.2,0.4,0.5,0.9,0.7,1.3h5.6v2.7h-1.1v-1.7h-10.5V331.8z M406.4,337.2h-3.1v1.2h3.1
		V337.2z M403.3,340.3h3.1v-1.2h-3.1V340.3z M406.2,334.4c-0.7,0.7-1.6,1.3-2.6,1.9h2.7v-1.9H406.2z M410.9,336.3
		c-1-0.6-2.1-1.3-3.2-1.9h-0.2v1.9H410.9z M410.6,337.2h-3.2v1.2h3.2V337.2z M410.6,340.3v-1.2h-3.2v1.2H410.6z"/>
	<path class="st1" d="M419.9,335.9c-0.2-0.5-0.7-1.3-1.1-2.1v7.8h-1.1v-7.2c-0.5,1.6-1.1,3.2-1.8,4.1c-0.1-0.3-0.4-0.8-0.6-1.1
		c0.9-1.2,1.9-3.6,2.3-5.7h-1.9v-1h2v-2.9h1.1v2.9h1.7v1h-1.7v0.6c0.4,0.6,1.5,2.2,1.8,2.7L419.9,335.9z M428.8,335.4
		c-0.6,1.1-1.4,2.1-2.4,2.9c1,0.8,2.2,1.8,2.8,2.5l-0.9,0.7c-0.6-0.7-1.7-1.7-2.7-2.5c-1.4,1.1-3.1,2-5,2.7
		c-0.1-0.3-0.4-0.7-0.7-0.9c3.5-1.1,6.3-3.3,7.6-5.8L428.8,335.4z M427.7,332.7c-1.3,2.3-3.5,4.4-6.2,5.7c-0.1-0.2-0.4-0.6-0.6-0.8
		c1.5-0.7,2.9-1.7,4-2.8c-2.7,0.2-3.1,0.3-3.4,0.4c0-0.3-0.2-0.8-0.3-1c0.3-0.1,0.7-0.2,1-0.4c0.3-0.3,1.1-1.6,1.6-2.5h-2.8v-1h3.9
		c-0.2-0.5-0.5-1.2-0.8-1.8l1-0.3c0.4,0.6,0.8,1.5,0.9,2l-0.1,0.1h3.4v1h-4.2c-0.5,0.8-1.2,2-1.8,2.8l2.5-0.2
		c0.3-0.4,0.7-0.9,0.9-1.4L427.7,332.7z"/>
	<path class="st1" d="M435.8,336.9c1.2-0.5,1.8-1.2,1.9-2.2c-0.1,0-0.2,0-0.3,0c-0.6,0-1.1-0.4-1.1-1.1c0-0.7,0.5-1.1,1.1-1.1
		c0.8,0,1.3,0.7,1.3,1.7c0,1.6-1,2.8-2.6,3.4L435.8,336.9z"/>
	<path class="st1" d="M452.8,336.1c-0.1,0.4-0.3,0.8-0.4,1.1h5.6v3.4c0,0.5-0.1,0.8-0.5,0.9c-0.4,0.2-0.9,0.2-1.7,0.2
		c-0.1-0.3-0.2-0.7-0.3-0.9c0.6,0,1.1,0,1.3,0c0.2,0,0.2-0.1,0.2-0.2v-2.5h-2.3v3.5h-1v-3.5h-2.3v3.5h-1v-3.5h-2.2v3.6H447v-4.5h4.3
		c0.1-0.3,0.2-0.7,0.3-1.1h-5.8v-0.9h13v0.9H452.8z M447.1,333.7H446v-3.2h5.7v-1.1h-5.1v-0.9H458v0.9h-5.1v1.1h5.8v3.2h-1.1v-2.3
		h-4.7v3.3h-1.1v-3.3h-4.7V333.7z M447.4,334c0.9-0.1,2.2-0.3,3.6-0.5l0,0.7c-1.2,0.2-2.3,0.5-3.3,0.6L447.4,334z M448.1,331.7
		c0.9,0.2,2.2,0.5,2.9,0.8l-0.3,0.7c-0.7-0.3-1.9-0.7-2.9-0.9L448.1,331.7z M457,334.9c-0.8-0.3-2.3-0.6-3.5-0.8l0.3-0.7
		c1.1,0.1,2.7,0.4,3.5,0.7L457,334.9z M457,332.3c-0.9,0.3-2.1,0.7-2.9,0.8l-0.4-0.6c0.9-0.2,2.1-0.6,2.8-0.9L457,332.3z"/>
	<path class="st1" d="M465.7,338.7h-3.2v1.2h-1v-11h4.3V338.7z M462.5,330v3.3h2.2V330H462.5z M464.7,337.7v-3.5h-2.2v3.5H464.7z
		 M470.8,330.7v1.9h3.3v1h-1.3v1.6h1.7v1h-1.7v4c0,0.6-0.2,1-0.6,1.1c-0.5,0.2-1.2,0.2-2.4,0.2c0-0.3-0.2-0.8-0.4-1c0.9,0,1.8,0,2,0
		c0.2,0,0.3-0.1,0.3-0.3v-4h-5.6v-1h5.6v-1.6h-5v-1h3.1v-1.9H466v-1h3.7v-1.8h1.1v1.8h3.8v1H470.8z M467.9,336.8
		c0.7,0.8,1.5,1.9,1.9,2.5l-1,0.6c-0.4-0.7-1.2-1.8-1.9-2.6L467.9,336.8z"/>
	<path class="st1" d="M483.5,339.7c2.7-3.1,4.2-5.1,4.2-7c0-1.2-0.5-2-1.6-2c-0.8,0-1.4,0.5-1.9,1.2l-0.8-0.8
		c0.8-0.9,1.6-1.6,2.9-1.6c1.7,0,2.8,1.2,2.8,3.1c0,2-1.5,4-3.7,6.7c0.6,0,1.1-0.1,1.7-0.1h2.5v1.2h-6.1V339.7z"/>
	<path class="st1" d="M491.9,335.7h4.3v1.1h-4.3V335.7z"/>
	<path class="st1" d="M498.3,339.2l0.7-0.9c0.5,0.7,1.3,1.2,2.2,1.2c1,0,1.8-0.7,1.8-1.9c0-1.3-0.8-2.1-2.8-2.1v-1.1
		c1.8,0,2.5-0.9,2.5-2c0-1-0.6-1.7-1.5-1.7c-0.7,0-1.3,0.4-1.8,1.1l-0.8-0.9c0.7-0.8,1.6-1.3,2.7-1.3c1.6,0,2.7,1,2.7,2.7
		c0,1.3-0.7,2.2-1.6,2.6v0.1c1,0.3,1.9,1.3,1.9,2.8c0,1.9-1.3,3-3,3C499.9,340.7,498.9,340,498.3,339.2z"/>
	<path class="st1" d="M517.4,328.3c-0.3,1-0.7,2-1.2,2.9v10.4h-1.1v-8.5c-0.5,0.7-0.9,1.4-1.5,2c-0.1-0.2-0.4-0.9-0.6-1.1
		c1.3-1.5,2.5-3.7,3.3-6L517.4,328.3z M526.6,328.9v12.6h-1.1v-0.8H519v0.9h-1v-12.8H526.6z M525.6,339.7v-9.9H519v9.9H525.6z
		 M522.7,332.9v1.7h1.7v4h-4.3v-4h1.6v-1.7h-2.2V332h2.2v-1.7h0.9v1.7h2.3v0.9H522.7z M523.6,335.4h-2.5v2.3h2.5V335.4z"/>
	<path class="st1" d="M542.4,339.4v1.1H529v-1.1h6v-8.6h-5.2v-1.1h11.8v1.1h-5.4v8.6H542.4z"/>
	<path class="st1" d="M549,328.3c-0.4,1.1-0.9,2.2-1.5,3.2v10.1h-1.1v-8.3c-0.5,0.7-1,1.3-1.5,1.8c-0.1-0.3-0.4-0.9-0.6-1.1
		c1.5-1.4,2.9-3.7,3.7-6L549,328.3z M553.4,331.5v2.1h4.3v1h-4.3v2.3h4.5v1h-4.5v3.6h-1.1v-10.1h-1c-0.6,1.2-1.4,2.3-2.1,3.1
		c-0.2-0.2-0.6-0.6-0.9-0.7c1.4-1.4,2.6-3.6,3.3-5.7l1.1,0.3c-0.2,0.7-0.5,1.4-0.8,2h6.2v1.1H553.4z"/>
	<path class="st1" d="M567.4,334.8c1.1,2.8,3.1,4.9,6.1,5.8c-0.3,0.2-0.6,0.7-0.8,1c-3-1-5-3-6.2-6c-0.7,2.2-2.3,4.4-6.1,6
		c-0.1-0.3-0.5-0.7-0.7-0.9c3.9-1.6,5.3-3.8,5.8-5.9h-5.5v-1.1h5.7c0.1-0.6,0.1-1.2,0.1-1.7v-1.8h-5.2v-1.1h11.8v1.1H567v1.8
		c0,0.5,0,1.1-0.1,1.7h6.1v1.1H567.4z"/>
	<path class="st1" d="M580,336.9c1.2-0.5,1.8-1.2,1.9-2.2c-0.1,0-0.2,0-0.3,0c-0.6,0-1.1-0.4-1.1-1.1c0-0.7,0.5-1.1,1.1-1.1
		c0.8,0,1.3,0.7,1.3,1.7c0,1.6-1,2.8-2.6,3.4L580,336.9z"/>
	<path class="st1" d="M598.2,330.1c-0.3,0.6-0.7,1.1-1.1,1.7v9.8H596v-8.3c-1.5,1.7-3.3,3.3-5.4,4.4c-0.2-0.3-0.5-0.7-0.8-1
		c3-1.5,5.5-4,7-6.5h-6.6V329H603v1.1H598.2z M598.3,332.6c1.7,1.1,4,2.8,5.1,3.9l-0.9,0.9c-1.1-1.1-3.3-2.9-5.1-4.1L598.3,332.6z"
		/>
	<path class="st1" d="M609.7,331.4h-4.5v-0.9h4.5V331.4z M609.4,340.7h-2.9v0.7h-0.9v-5h3.8V340.7z M609.3,332.5v0.9h-3.6v-0.9
		H609.3z M609.3,335.3h-3.6v-0.9h3.6V335.3z M607.5,330.3c-0.2-0.5-0.7-1.4-1.1-2l0.9-0.4c0.4,0.6,0.9,1.4,1.2,1.9L607.5,330.3z
		 M606.5,337.3v2.5h2v-2.5H606.5z M615,328.5c-0.1,0.2-0.2,0.3-0.3,0.5c0.9,1.4,2.6,2.8,4.3,3.4c-0.3,0.2-0.6,0.7-0.8,1
		c-0.5-0.2-1-0.5-1.4-0.9v0.6h-5.1v-0.7c-0.5,0.4-1.1,0.9-1.7,1.2c-0.1-0.3-0.4-0.8-0.7-1c1.8-0.9,3.8-2.8,4.8-4.6L615,328.5z
		 M618,340.5c0,0.5-0.1,0.8-0.4,0.9c-0.3,0.2-0.7,0.2-1.3,0.2c0-0.3-0.2-0.7-0.3-0.9c0.4,0,0.7,0,0.8,0c0.1,0,0.2,0,0.2-0.2v-2.2
		h-1.4v3.1h-0.8v-3.1h-1.3v3.1h-0.8v-3.1h-1.3v3.5h-0.9v-7.4h7.6V340.5z M612.7,337.3v-2h-1.3v2H612.7z M616.2,332.1
		c-0.8-0.7-1.5-1.5-2.1-2.3c-0.6,0.8-1.4,1.6-2.1,2.3H616.2z M614.9,337.3v-2h-1.3v2H614.9z M617.1,337.3v-2h-1.4v2H617.1z"/>
	<path class="st1" d="M633.3,337.8c-0.3-0.3-0.7-0.6-1.1-0.9v4.6h-1.1v-0.4h-7.3v0.5h-1v-4.5c-0.6,0.3-1.1,0.5-1.7,0.7
		c-0.1-0.3-0.5-0.7-0.7-0.9c1.7-0.5,3.6-1.4,5-2.4h-4.5v-0.9h2.9c-0.1-0.4-0.4-0.9-0.6-1.2l0.9-0.2c0.3,0.4,0.6,1,0.7,1.4l-0.4,0.1
		h2.4v-1.6c-1.2,0.1-2.5,0.1-3.7,0.1c0-0.2-0.2-0.6-0.3-0.8c2.8-0.1,6.3-0.3,8.2-0.6l0.6,0.8c-1,0.2-2.4,0.3-3.8,0.4v1.7h1.9
		c0.3-0.5,0.6-1.2,0.8-1.7l1,0.3c-0.3,0.5-0.5,0.9-0.8,1.3h3.1v0.9h-4c1.7,0.9,3.2,1.9,4.3,2.8L633.3,337.8z M622.2,331.8h-1v-2.7
		h5.7c-0.2-0.3-0.3-0.7-0.5-0.9l1.1-0.3c0.2,0.4,0.5,0.9,0.7,1.3h5.6v2.7h-1.1v-1.7h-10.5V331.8z M626.9,337.2h-3.1v1.2h3.1V337.2z
		 M623.8,340.3h3.1v-1.2h-3.1V340.3z M626.7,334.4c-0.7,0.7-1.6,1.3-2.6,1.9h2.7v-1.9H626.7z M631.4,336.3c-1-0.6-2.1-1.3-3.2-1.9
		h-0.2v1.9H631.4z M631.1,337.2h-3.2v1.2h3.2V337.2z M631.1,340.3v-1.2h-3.2v1.2H631.1z"/>
	<path class="st1" d="M640.4,335.9c-0.2-0.5-0.7-1.3-1.1-2.1v7.8h-1.1v-7.2c-0.5,1.6-1.1,3.2-1.8,4.1c-0.1-0.3-0.4-0.8-0.6-1.1
		c0.9-1.2,1.9-3.6,2.3-5.7h-1.9v-1h2v-2.9h1.1v2.9h1.7v1h-1.7v0.6c0.4,0.6,1.5,2.2,1.8,2.7L640.4,335.9z M649.3,335.4
		c-0.6,1.1-1.4,2.1-2.4,2.9c1,0.8,2.2,1.8,2.8,2.5l-0.9,0.7c-0.6-0.7-1.7-1.7-2.7-2.5c-1.4,1.1-3.1,2-5,2.7
		c-0.1-0.3-0.5-0.7-0.7-0.9c3.5-1.1,6.3-3.3,7.6-5.8L649.3,335.4z M648.1,332.7c-1.3,2.3-3.5,4.4-6.2,5.7c-0.1-0.2-0.4-0.6-0.6-0.8
		c1.5-0.7,2.9-1.7,4-2.8c-2.7,0.2-3.1,0.3-3.4,0.4c0-0.3-0.2-0.8-0.3-1c0.3-0.1,0.7-0.2,1-0.4c0.3-0.3,1.1-1.6,1.6-2.5h-2.9v-1h3.9
		c-0.2-0.5-0.5-1.2-0.8-1.8l1-0.3c0.4,0.6,0.8,1.5,0.9,2l-0.2,0.1h3.4v1h-4.2c-0.5,0.8-1.2,2-1.8,2.8l2.5-0.2
		c0.3-0.4,0.7-0.9,0.9-1.4L648.1,332.7z"/>
	<path class="st1" d="M330.5,363.2c0.5,0.1,1.1,0.1,1.8,0.1c0.6,0,3.7,0,4.4,0c-0.2,0.3-0.3,0.7-0.4,1.1h-4.1c-3,0-4.9-0.5-6.1-2.5
		c-0.6,1.2-1.4,2.1-2.3,2.8c-0.1-0.2-0.6-0.6-0.8-0.8c1.6-1,2.5-2.7,2.9-4.9l1.1,0.2c-0.1,0.5-0.2,1-0.4,1.5c0.6,1.3,1.5,2,2.8,2.4
		v-4.5h-6.1v-1h13.2v1h-5.9v1.7h4.9v1h-4.9V363.2z M334.8,356.5h-10v-5h10V356.5z M333.6,352.4h-7.8v1.2h7.8V352.4z M333.6,354.4
		h-7.8v1.2h7.8V354.4z"/>
	<path class="st1" d="M344.2,355c-1.7,1.3-3.6,2.3-5.5,3c-0.2-0.3-0.5-0.8-0.8-1c2.7-0.9,5.3-2.3,7.1-4.1h-6.6v-1h12.9v1h-4.8
		c-0.3,0.4-0.7,0.8-1.1,1.2v4.6h-1.1V355z M340,359h9.7v5.6h-1.2v-0.7h-7.4v0.7H340V359z M341.1,360v2.9h7.4V360H341.1z
		 M346.8,354.3c1.7,0.7,3.8,1.9,4.9,2.7l-0.8,0.8c-1.1-0.9-3.1-2.1-4.9-2.8L346.8,354.3z"/>
	<path class="st1" d="M356.6,358.1c-0.3,1.3-0.7,2.8-1.2,3.9c0.3,0.2,0.6,0.4,1.2,0.8c1.1,0.6,2.4,0.8,4.2,0.8c1.9,0,4.3-0.1,6-0.3
		c-0.1,0.3-0.3,0.8-0.3,1.2c-1.1,0.1-4,0.2-5.7,0.2c-2,0-3.3-0.2-4.4-0.8c-0.6-0.4-1.2-0.9-1.5-0.9c-0.3,0-0.8,0.9-1.3,1.9l-0.8-1
		c0.5-0.8,1-1.4,1.5-1.7c0.5-0.9,0.8-2,1.1-3.1h-1.9c0.4-0.9,0.9-2.2,1.3-3.3h-1.7v-1h3.1c-0.4,1.1-0.8,2.3-1.2,3.4h1l0.2,0
		L356.6,358.1z M354.6,353.8c-0.2-0.6-0.5-1.7-0.8-2.5l1-0.3c0.3,0.8,0.6,1.8,0.8,2.4L354.6,353.8z M358.8,362.4h-1.1v-7.7h4.3
		c-0.9-0.4-2-0.9-2.9-1.2l0.7-0.6c0.6,0.2,1.4,0.5,2.1,0.8c0.7-0.3,1.5-0.8,2.1-1.2h-6.3v-0.9h7.3l0.2-0.1l0.7,0.5
		c-0.8,0.8-1.9,1.5-3,2.1c0.4,0.2,0.8,0.4,1.2,0.6h1.9v6.6c0,0.6-0.1,0.8-0.5,1c-0.4,0.2-1,0.2-2,0.2c0-0.3-0.2-0.7-0.3-0.9
		c0.7,0,1.3,0,1.5,0c0.2,0,0.3-0.1,0.3-0.3v-1.4h-2.6v2.4h-1v-2.4h-2.5V362.4z M358.8,355.5v1.3h2.5v-1.3H358.8z M361.3,359.1v-1.4
		h-2.5v1.4H361.3z M365,355.5h-2.6v1.3h2.6V355.5z M365,359.1v-1.4h-2.6v1.4H365z"/>
	<path class="st1" d="M371.6,358.1c-0.3,1.3-0.7,2.8-1.2,3.9c0.3,0.2,0.6,0.4,1.2,0.8c1.1,0.6,2.4,0.8,4.2,0.8c1.9,0,4.3-0.1,6-0.3
		c-0.1,0.3-0.3,0.8-0.3,1.2c-1.1,0.1-4,0.2-5.7,0.2c-2,0-3.3-0.2-4.4-0.8c-0.6-0.4-1.2-0.9-1.5-0.9c-0.3,0-0.8,0.9-1.3,1.9l-0.8-1
		c0.5-0.8,1.1-1.4,1.5-1.7c0.5-0.9,0.8-2,1.1-3.1h-2c0.4-0.9,0.9-2.2,1.3-3.3h-1.7v-1h3.1c-0.4,1.1-0.8,2.3-1.2,3.4h1l0.2,0
		L371.6,358.1z M369.6,353.8c-0.2-0.6-0.5-1.7-0.8-2.5l1-0.3c0.3,0.8,0.6,1.8,0.8,2.4L369.6,353.8z M373.4,362.6h-1v-6.5h1.2v-4.6
		h6.1v4.6h1.2v5.4c0,0.5-0.1,0.8-0.5,0.9c-0.4,0.2-0.9,0.2-1.8,0.2c0-0.3-0.2-0.6-0.3-0.9c0.6,0,1.2,0,1.3,0c0.2,0,0.2-0.1,0.2-0.2
		V357h-6.4V362.6z M374.6,356.1h1.4v-2.5h2.7v-1.2h-4.1V356.1z M378.6,361.1h-3v0.6h-0.9v-3.8h3.9V361.1z M377.7,358.7h-2.1v1.6h2.1
		V358.7z M378.7,356.1v-1.7h-1.9v1.7H378.7z"/>
	<path class="st1" d="M395.7,357.5c-0.7,1.3-1.6,2.5-2.6,3.5c0.6,1.6,1.2,2.5,2,2.5c0.4,0,0.6-0.8,0.7-2.7c0.2,0.2,0.6,0.5,0.9,0.6
		c-0.2,2.5-0.6,3.2-1.7,3.2c-1.2,0-2.1-1-2.8-2.8c-1,0.9-2,1.6-3.2,2.2c-0.2-0.3-0.5-0.6-0.8-0.9c1.3-0.6,2.5-1.4,3.6-2.4
		c-0.4-1.2-0.6-2.7-0.8-4.4h-3.5v2.4c0.9-0.2,1.8-0.4,2.7-0.6l0.1,1c-0.9,0.2-1.8,0.4-2.8,0.6v3.3c0,0.7-0.2,1-0.6,1.2
		c-0.5,0.2-1.3,0.2-2.5,0.2c-0.1-0.3-0.3-0.8-0.4-1.1c1,0,1.8,0,2.1,0c0.3,0,0.4-0.1,0.4-0.3v-3c-1.1,0.2-2.2,0.5-3.1,0.7l-0.3-1.1
		c0.9-0.1,2.1-0.4,3.4-0.7v-2.6h-3.2v-1.1h3.2V353c-0.9,0.2-1.9,0.3-2.8,0.4c-0.1-0.3-0.2-0.7-0.4-0.9c2.1-0.3,4.5-0.8,5.9-1.3
		l0.8,0.9c-0.7,0.3-1.6,0.5-2.5,0.7v2.6h3.4c-0.1-1.4-0.2-2.8-0.2-4.3h1.1c0,1.5,0.1,2.9,0.2,4.3h4.4v1.1h-4.3
		c0.1,1.3,0.4,2.4,0.6,3.4c0.8-0.9,1.5-1.8,2-2.7L395.7,357.5z M395.2,354.5c-0.5-0.7-1.5-1.8-2.4-2.5l0.9-0.6
		c0.9,0.7,1.9,1.8,2.4,2.5L395.2,354.5z"/>
	<path class="st1" d="M401.9,351.3c-0.3,1-0.7,2-1.2,2.9v10.4h-1.1v-8.4c-0.4,0.8-0.9,1.4-1.4,2c-0.1-0.3-0.4-0.9-0.6-1.1
		c1.3-1.5,2.5-3.8,3.2-6.1L401.9,351.3z M406.1,357.2h-3v7.4h-1v-12.8h4V357.2z M403.1,352.7v1.4h2.1v-1.4H403.1z M405.2,356.4v-1.5
		h-2.1v1.5H405.2z M411.2,363.2c0,0.7-0.2,1.1-0.7,1.2c-0.5,0.2-1.4,0.2-2.8,0.2c-0.1-0.3-0.2-0.8-0.4-1.1c1.1,0,2.1,0,2.4,0
		c0.3,0,0.4-0.1,0.4-0.4v-5.9H407v-5.4h4.2V363.2z M407.9,352.7v1.4h2.2v-1.4H407.9z M410.1,356.4v-1.5h-2.2v1.5H410.1z"/>
	<path class="st1" d="M420.9,351.8c-0.6,1.4-1.3,2.6-2.2,3.7h1.9v1H418c-0.5,0.5-0.9,1-1.4,1.5h3.5v6.5H419v-0.7h-3.4v0.9h-1v-5.1
		c-0.4,0.3-0.8,0.5-1.2,0.7c-0.1-0.2-0.5-0.7-0.7-0.9c1.5-0.7,2.8-1.7,3.9-2.8H413v-1h3v-1.8h-2.3v-1h2.3v-1.6h1v1.6h1.9v0.8
		c0.4-0.6,0.7-1.3,1-2L420.9,351.8z M419,358.8h-3.4v1.5h3.4V358.8z M419,362.8v-1.6h-3.4v1.6H419z M417.5,355.5
		c0.5-0.6,0.9-1.2,1.3-1.8H417v1.8H417.5z M426.7,352.3c-0.6,1.4-1.5,3.1-2.2,4.5c1.6,1.4,2,2.6,2,3.6c0,0.9-0.2,1.6-0.8,2
		c-0.3,0.2-0.6,0.3-1,0.3c-0.4,0-0.9,0-1.4,0c0-0.3-0.1-0.8-0.3-1.1c0.5,0,0.9,0.1,1.3,0c0.3,0,0.5-0.1,0.7-0.2
		c0.3-0.2,0.5-0.6,0.4-1.2c0-0.9-0.5-2.1-2-3.4c0.6-1.3,1.4-2.9,1.8-4.1h-2.8v11.8h-1.1v-12.9h4.4l0.2,0L426.7,352.3z"/>
	<path class="st1" d="M435.7,351.3c-0.1,0.1-0.1,0.2-0.2,0.3c1.4,1.4,4,2.6,6.3,3.1c-0.2,0.2-0.5,0.6-0.7,0.9
		c-1.2-0.3-2.5-0.9-3.7-1.5v0.5h-5.2v-0.4c-1.2,0.6-2.4,1.1-3.7,1.5c-0.1-0.2-0.4-0.6-0.6-0.9c2.7-0.7,5.4-2,6.8-3.9L435.7,351.3z
		 M429.8,355.2h10v3.8h-10V355.2z M430.7,359.7h8.4v4.9H438v-0.5h-6.2v0.5h-1.1V359.7z M430.8,358.2h3.5V356h-3.5V358.2z
		 M432.5,356.2c0.4,0.5,0.8,1.2,0.9,1.7l-0.9,0.3c-0.1-0.5-0.5-1.2-0.8-1.8L432.5,356.2z M431.8,360.5v1h6.2v-1H431.8z M438,363.3
		v-1h-6.2v1H438z M436.8,353.7c-0.7-0.5-1.4-1-2-1.5c-0.6,0.6-1.2,1.1-1.9,1.5H436.8z M438.8,356h-3.6v2.2h3.6V356z M436.2,357.9
		c0.3-0.5,0.7-1.3,0.8-1.8l0.9,0.3c-0.3,0.6-0.7,1.3-1,1.8L436.2,357.9z"/>
	<path class="st1" d="M456.4,358.9h-2.1v4.5c0,0.6-0.1,0.9-0.6,1.1c-0.5,0.2-1.2,0.1-2.4,0.1c-0.1-0.3-0.2-0.7-0.4-1
		c0.9,0,1.7,0,2,0c0.2,0,0.3-0.1,0.3-0.3v-4.5h-10v-1h1.8c-0.1-0.3-0.3-0.6-0.5-0.7c2.5-0.3,3.7-0.9,4.3-2h-3.8v-0.9h4.2
		c0.1-0.3,0.1-0.5,0.2-0.9h1.1c0,0.3-0.1,0.6-0.2,0.9h4.3v0.9H450c0,0.1-0.1,0.2-0.1,0.3c1.6,0.4,3.6,1.2,4.7,1.7l-0.5,0.7h2.3
		V358.9z M444.5,354.8h-1v-2.6h6c-0.1-0.4-0.2-0.7-0.4-1l1.1-0.2c0.2,0.4,0.4,0.9,0.5,1.3h5.6v2.6h-1.1v-1.6h-10.6V354.8z
		 M446.1,363.1v0.8h-1v-4h6v3.3H446.1z M453.8,357.9c-1.1-0.6-2.9-1.2-4.4-1.7c-0.7,0.8-1.8,1.3-3.7,1.7H453.8z M446.1,360.7v1.5h4
		v-1.5H446.1z"/>
	<path class="st1" d="M462.2,351.3c-0.3,1-0.8,2-1.3,3v10.4h-1v-8.6c-0.5,0.7-0.9,1.4-1.4,1.9c-0.1-0.2-0.4-0.8-0.6-1
		c1.4-1.5,2.6-3.7,3.3-6L462.2,351.3z M471.5,353.4v0.9H462v-0.9H471.5z M462.9,359.8h7.6v4.8h-1v-0.5h-5.6v0.6h-1V359.8z
		 M470.3,356.5h-7.2v-0.9h7.2V356.5z M463.1,357.7h7.2v0.9h-7.2V357.7z M463.8,360.8v2.4h5.6v-2.4H463.8z M466.5,353.3
		c-0.2-0.5-0.7-1.4-1-2l0.9-0.4c0.4,0.6,0.9,1.4,1.1,2L466.5,353.3z"/>
	<path class="st1" d="M486.4,356.5v1h-13.1v-1h6.3v-2.4h-3.7c-0.5,0.8-0.9,1.5-1.4,2c-0.2-0.2-0.7-0.5-1-0.6c1.1-1.1,2-2.8,2.6-4.4
		l1.1,0.3c-0.2,0.6-0.5,1.2-0.7,1.8h3.1v-2.2h1.2v2.2h4.6v1h-4.6v2.4H486.4z M475.1,359h9.5v5.8h-1.1v-0.8h-7.3v0.8h-1.1V359z
		 M476.2,360v2.9h7.3V360H476.2z"/>
	<path class="st1" d="M493.4,354.4H488v-0.9h5.4V354.4z M488.6,356.3v-0.9h4.2v0.9H488.6z M488.6,357.4h4.2v0.9h-4.2V357.4z
		 M492.9,363.7h-3.2v0.7h-1v-5h4.2V363.7z M489.6,360.3v2.5h2.3v-2.5H489.6z M490.7,353.3c-0.2-0.5-0.6-1.4-1-2l0.9-0.3
		c0.4,0.6,0.8,1.4,1,1.9L490.7,353.3z M498.9,358.4c1,0.8,2.1,1.8,2.8,2.4l-0.7,0.8c-0.5-0.5-1.3-1.3-2.1-2v5h-1.1v-7.8h-2.4v0.6
		c0,2.2-0.2,5.2-1.6,7.2c-0.2-0.2-0.6-0.6-0.9-0.7c1.3-1.8,1.4-4.5,1.4-6.5v-5.1c2-0.3,4.4-0.8,5.7-1.4l1,0.8
		c-1.5,0.6-3.6,1-5.5,1.3v2.7h6.2v1h-2.7V358.4z"/>
	<path class="st1" d="M507.4,351.3c-0.4,1.1-1,2.2-1.5,3.2v10.1h-1.1v-8.4c-0.5,0.7-1,1.3-1.5,1.9c-0.1-0.3-0.4-0.8-0.6-1.1
		c1.5-1.4,2.9-3.7,3.7-6L507.4,351.3z M512.6,354.9v8.4c0,0.6-0.1,1-0.5,1.1c-0.4,0.2-1,0.2-2,0.2c-0.1-0.3-0.2-0.8-0.4-1.1
		c0.7,0,1.4,0,1.5,0s0.3-0.1,0.3-0.3v-8.4h-2.3c-0.4,1-0.9,1.9-1.5,2.6c-0.2-0.2-0.6-0.5-0.9-0.7c1.1-1.4,2-3.5,2.5-5.7l1.1,0.2
		c-0.2,0.9-0.5,1.7-0.8,2.6h6.1l0.2,0l0.8,0.2c-0.2,1.1-0.5,2.4-0.7,3.2L515,357c0.1-0.5,0.2-1.3,0.3-2.1H512.6z M510.1,357.5
		c-0.5,2-1.3,3.9-2.2,5.1c-0.2-0.2-0.7-0.5-1-0.6c0.9-1.1,1.6-2.9,2.1-4.7L510.1,357.5z M514.6,357.2c0.9,1.6,1.6,3.6,1.9,5
		l-1.1,0.4c-0.2-1.4-1-3.5-1.8-5L514.6,357.2z"/>
	<path class="st1" d="M522.6,356.6c0.4,1,0.8,2.3,1,3.1l-0.9,0.3c0-0.3-0.1-0.6-0.2-0.9c-3.4,0.5-3.9,0.6-4.2,0.8
		c0-0.2-0.2-0.8-0.3-1c0.3-0.1,0.7-0.4,1.1-1c0.2-0.3,0.7-0.9,1.3-1.7c-1.6,0.2-2,0.3-2.2,0.3c-0.1-0.2-0.2-0.7-0.3-1
		c0.3-0.1,0.5-0.4,0.9-0.8c0.3-0.4,1.4-2.2,2.1-3.8l1,0.4c-0.7,1.4-1.5,2.9-2.4,4l1.6-0.1c0.4-0.6,0.8-1.3,1.1-1.9l0.9,0.6
		c-1,1.7-2.2,3.4-3.4,4.8l2.5-0.3c-0.1-0.5-0.3-1-0.5-1.4L522.6,356.6z M519.6,360.7c-0.2,1.3-0.5,2.8-0.8,3.7
		c-0.2-0.1-0.7-0.2-0.9-0.3c0.4-0.9,0.6-2.3,0.7-3.6L519.6,360.7z M521.1,360.5c0.2,1.1,0.4,2.5,0.5,3.4l-0.9,0.2
		c0-0.9-0.2-2.3-0.4-3.4L521.1,360.5z M522.6,360.1c0.4,0.9,0.7,2.1,0.9,2.9l-0.8,0.3c-0.2-0.8-0.5-2-0.8-3L522.6,360.1z M528,354
		v2.4h3.1v1h-7v-1h2.8V354h-3.3v-1h3.3v-2h1.1v2h3.5v1H528z M524.3,358.9h6.3v5.7h-1.1V364h-4.2v0.6h-1V358.9z M525.4,359.9v3h4.2
		v-3H525.4z"/>
	<path class="st1" d="M541.3,359.9c1.4,1.4,3.5,2.6,5.4,3.3c-0.3,0.2-0.6,0.7-0.8,0.9c-1.9-0.8-4.1-2.2-5.6-3.8v4.4h-1.2v-4.3
		c-1.4,1.6-3.6,3.1-5.6,3.8c-0.2-0.3-0.5-0.7-0.8-0.9c1.9-0.6,4.1-1.9,5.4-3.3h-5v-1h6v-1.3h-4.5v-5.9H545v5.9h-4.6v1.3h6v1H541.3z
		 M535.9,354.2h3.4v-1.5h-3.4V354.2z M539.2,356.6v-1.5h-3.4v1.5H539.2z M543.8,352.6h-3.4v1.5h3.4V352.6z M543.8,355.1h-3.4v1.5
		h3.4V355.1z"/>
	<path class="st1" d="M549.5,360.7v1.4h-1v-9.8h3.8v8.3H549.5z M549.5,353.4v6.3h1.7v-6.3H549.5z M561.6,363.4v0.9h-8.1v-0.9h3.6
		v-1.7h-2.7v-0.9h2.7v-1.4c-1.8,0.1-2.1,0.2-2.4,0.3c0-0.2-0.2-0.7-0.3-1c0.2,0,0.4-0.2,0.7-0.5c0.2-0.2,0.8-0.8,1.3-1.6h-2.1
		c0,2.5-0.3,5.7-1.9,8c-0.2-0.2-0.6-0.5-0.9-0.6c1.6-2.2,1.7-5.5,1.7-7.8v-4.7h7.8v3.3h-6.7v1h7.3v0.9h-3.9c-0.5,0.7-1,1.4-1.6,1.9
		l3.4-0.2c-0.3-0.4-0.6-0.8-0.9-1.1l0.8-0.4c0.7,0.7,1.5,1.7,1.9,2.4l-0.8,0.4c-0.1-0.2-0.2-0.4-0.3-0.6c-1.1,0.1-2,0.2-2.7,0.2h0.8
		v1.4h2.9v0.9h-2.9v1.7H561.6z M554.2,352.5v1.4h5.7v-1.4H554.2z"/>
	<path class="st1" d="M569.9,355.5c1.3,0,2.3,1,2.3,2.3s-1,2.3-2.3,2.3c-1.2,0-2.3-1-2.3-2.3S568.6,355.5,569.9,355.5z M569.9,359.3
		c0.8,0,1.5-0.7,1.5-1.5s-0.7-1.5-1.5-1.5c-0.8,0-1.5,0.7-1.5,1.5S569,359.3,569.9,359.3z"/>
	<path class="st1" d="M329.2,399.6l0.6,0l0,1l-0.6,0v0.1c0,1.8-0.2,4.2-1.6,6.3c0.7,0.7,1.4,1.3,1.9,1.8l-0.8,0.9
		c-0.4-0.5-1-1.1-1.7-1.8c-0.8,1-1.9,1.9-3.3,2.7c-0.2-0.3-0.5-0.6-0.8-0.8c1.4-0.8,2.5-1.7,3.2-2.6c-0.8-0.8-1.8-1.5-2.6-2.1
		c0.3-1.1,0.7-2.6,1-4.2l-1.5,0.1l-0.1-1.1l1.9-0.1c0.1-1,0.3-2,0.4-2.8l1.2,0.1c-0.1,0.9-0.3,1.8-0.4,2.7l2.2-0.1v-0.7h1.1V399.6z
		 M325.7,400.9c-0.3,1.4-0.6,2.8-0.9,3.9c0.6,0.5,1.3,1,2,1.6c1.2-1.9,1.4-4,1.4-5.6L325.7,400.9z M335.8,398.6v11.5h-1.1v-0.9h-3.2
		v1.1h-1.1v-11.7H335.8z M334.7,408.1v-8.5h-3.2v8.5H334.7z"/>
	<path class="st1" d="M347,405.9c1.4,1.4,3.5,2.6,5.4,3.3c-0.3,0.2-0.6,0.7-0.8,0.9c-1.9-0.8-4.1-2.2-5.6-3.8v4.4H345v-4.3
		c-1.4,1.6-3.6,3.1-5.6,3.8c-0.2-0.3-0.5-0.7-0.8-0.9c1.9-0.6,4.1-1.9,5.4-3.3h-5v-1h6v-1.3h-4.5v-5.9h10.2v5.9h-4.6v1.3h6v1H347z
		 M341.6,400.2h3.4v-1.5h-3.4V400.2z M345,402.6v-1.5h-3.4v1.5H345z M349.5,398.6h-3.4v1.5h3.4V398.6z M349.5,401.1h-3.4v1.5h3.4
		V401.1z"/>
	<path class="st1" d="M368.1,403v1.2h-13.6V403H368.1z"/>
	<path class="st1" d="M383.7,409.1v1h-13.5v-1h2.1v-8.6h3.5c0.1-0.4,0.1-0.8,0.2-1.2h-5.4v-1h5.5c0.1-0.5,0.1-0.9,0.1-1.3l1.2,0.1
		l-0.2,1.2h5.9v1h-6.1c-0.1,0.4-0.1,0.8-0.2,1.2h4.8v8.6H383.7z M373.4,401.4v1.3h7.2v-1.3H373.4z M380.6,403.5h-7.2v1.2h7.2V403.5z
		 M373.4,406.9h7.2v-1.3h-7.2V406.9z M373.4,409.1h7.2v-1.3h-7.2V409.1z"/>
	<path class="st1" d="M389.4,404.1c-0.3,1.3-0.7,2.7-1.2,3.8c0.3,0.1,0.7,0.5,1.3,0.8c1.1,0.6,2.4,0.8,4.2,0.8c1.9,0,4.3-0.1,6-0.3
		c-0.1,0.3-0.3,0.8-0.3,1.2c-1.1,0.1-4,0.2-5.7,0.2c-2,0-3.3-0.2-4.4-0.8c-0.6-0.4-1.2-0.9-1.5-0.9c-0.3,0-0.8,0.9-1.3,1.9l-0.8-1
		c0.5-0.7,1-1.3,1.4-1.6c0.4-0.9,0.8-2.1,1.1-3.2h-1.8c0.5-0.9,1-2.2,1.4-3.3H386v-1h3.3c-0.4,1.1-0.9,2.3-1.4,3.4h0.9l0.2,0
		L389.4,404.1z M387.8,399.8c-0.2-0.6-0.7-1.7-1.1-2.5l0.9-0.3c0.4,0.8,0.9,1.8,1.1,2.4L387.8,399.8z M391.3,401.5
		c0,2.1-0.2,5-1.1,7c-0.2-0.2-0.6-0.5-0.9-0.5c0.9-1.9,1-4.5,1-6.5v-4h8.7v2.6h-7.7V401.5z M394.8,408.9v-1.7h-3.7v-0.8h3.7v-1.1
		H393c-0.2,0.4-0.5,0.8-0.7,1.1c-0.2-0.1-0.6-0.3-0.8-0.4c0.6-0.6,1.1-1.5,1.4-2.4l0.9,0.2c-0.1,0.3-0.2,0.5-0.3,0.8h1.5v-1h1v1h2.9
		v0.8h-2.9v1.1h3.5v0.8h-3.5v1.7H394.8z M391.3,398.3v1.1h6.6v-1.1H391.3z M391.4,402.8c0.8-0.2,1.8-0.6,2.9-0.9l0.1,0.7
		c-0.9,0.3-1.9,0.7-2.7,1L391.4,402.8z M392.5,400.2c0.6,0.3,1.3,0.8,1.6,1.1l-0.8,0.6c-0.3-0.3-1-0.9-1.6-1.2L392.5,400.2z
		 M395.9,403h-1v-2.6h1V403z M396.5,401.8c0.9,0.3,2.1,0.9,2.8,1.3l-0.6,0.6c-0.6-0.4-1.8-1-2.7-1.3L396.5,401.8z M396.4,401.4
		c0.5-0.3,1.2-0.9,1.6-1.3l0.9,0.5c-0.6,0.5-1.2,0.9-1.8,1.2L396.4,401.4z"/>
	<path class="st1" d="M405.1,404.1c-0.3,1.3-0.7,2.7-1.2,3.8c0.3,0.1,0.7,0.5,1.3,0.8c1.1,0.6,2.4,0.8,4.2,0.8c1.9,0,4.3-0.1,6-0.3
		c-0.1,0.3-0.3,0.8-0.3,1.2c-1.1,0.1-4,0.2-5.7,0.2c-2,0-3.3-0.2-4.4-0.8c-0.6-0.4-1.2-0.9-1.5-0.9c-0.3,0-0.8,0.9-1.3,1.9l-0.8-1
		c0.5-0.7,1-1.3,1.4-1.6c0.4-0.9,0.8-2.1,1.1-3.2h-1.8c0.5-0.9,1-2.2,1.4-3.3h-1.8v-1h3.3c-0.4,1.1-0.9,2.3-1.4,3.4h0.9l0.2,0
		L405.1,404.1z M403.6,399.8c-0.2-0.6-0.7-1.7-1.1-2.5l0.9-0.3c0.4,0.8,0.9,1.8,1.1,2.4L403.6,399.8z M407,401.5c0,2.1-0.2,5-1.1,7
		c-0.2-0.2-0.6-0.5-0.9-0.5c0.9-1.9,1-4.5,1-6.5v-4h8.7v2.6H407V401.5z M410.5,408.9v-1.7h-3.7v-0.8h3.7v-1.1h-1.9
		c-0.2,0.4-0.5,0.8-0.7,1.1c-0.2-0.1-0.6-0.3-0.8-0.4c0.6-0.6,1.1-1.5,1.4-2.4l0.9,0.2c-0.1,0.3-0.2,0.5-0.3,0.8h1.5v-1h1v1h2.9v0.8
		h-2.9v1.1h3.5v0.8h-3.5v1.7H410.5z M407,398.3v1.1h6.6v-1.1H407z M407.2,402.8c0.8-0.2,1.8-0.6,2.9-0.9l0.1,0.7
		c-0.9,0.3-1.9,0.7-2.7,1L407.2,402.8z M408.2,400.2c0.6,0.3,1.3,0.8,1.6,1.1l-0.8,0.6c-0.3-0.3-1-0.9-1.6-1.2L408.2,400.2z
		 M411.6,403h-1v-2.6h1V403z M412.2,401.8c0.9,0.3,2.1,0.9,2.8,1.3l-0.6,0.6c-0.6-0.4-1.8-1-2.7-1.3L412.2,401.8z M412.1,401.4
		c0.5-0.3,1.2-0.9,1.6-1.3l0.9,0.5c-0.6,0.5-1.2,0.9-1.8,1.2L412.1,401.4z"/>
	<path class="st1" d="M420,403.5c-0.6-0.5-1.8-1.2-2.8-1.6l0.6-0.8c1,0.4,2.2,1,2.8,1.5L420,403.5z M421.3,405.6
		c-0.7,1.6-1.7,3.4-2.6,4.8l-0.9-0.7c0.8-1.2,1.8-3.1,2.7-4.8L421.3,405.6z M420.8,399.6c-0.6-0.5-1.7-1.3-2.7-1.7l0.6-0.8
		c1,0.4,2.1,1.1,2.7,1.6L420.8,399.6z M430.1,404.2c-0.6,1.7-1.6,3-2.9,4c1.1,0.7,2.4,1.2,3.8,1.5c-0.3,0.2-0.6,0.7-0.7,1
		c-1.5-0.4-2.9-1-4-1.8c-1.4,0.9-3,1.5-4.7,1.8c-0.1-0.3-0.3-0.8-0.6-1c1.5-0.3,3-0.8,4.4-1.5c-0.9-0.8-1.7-1.8-2.3-2.9l0.7-0.3
		h-1.7v-1h7.1l0.2,0L430.1,404.2z M424.7,399.3c-0.5,1.8-1.3,3.2-2.4,4.2c-0.2-0.2-0.7-0.5-0.9-0.7c1.6-1.2,2.4-3.3,2.7-5.9l1.1,0.2
		c-0.1,0.4-0.1,0.8-0.2,1.2h5.2c0,0,0,0.3,0,0.5c-0.2,2.6-0.4,3.6-0.8,4c-0.3,0.3-0.6,0.4-1,0.4c-0.4,0-1.1,0-1.9,0
		c0-0.3-0.2-0.8-0.3-1c0.8,0.1,1.5,0.1,1.8,0.1c0.3,0,0.4,0,0.5-0.1c0.3-0.2,0.4-1,0.6-2.8H424.7z M424.1,404.9
		c0.5,1,1.3,1.8,2.2,2.6c0.9-0.7,1.7-1.6,2.3-2.6H424.1z"/>
	<path class="st1" d="M437.3,397.2h1.1v13.5h-1.1v-4.2c-2.7,1-3.2,1.2-3.5,1.5c-0.1-0.3-0.3-0.8-0.4-1c0.2-0.1,0.5-0.4,0.5-1v-7.3
		h1.1v7.6l2.3-0.8V397.2z M445.5,400.9c-0.4,2.4-1,4.3-2,5.9c0.9,1.2,2,2.2,3.2,2.9c-0.3,0.2-0.6,0.6-0.8,0.9
		c-1.2-0.7-2.2-1.6-3.1-2.8c-0.9,1.2-2,2.1-3.4,2.9c-0.1-0.2-0.5-0.7-0.7-0.9c1.5-0.7,2.7-1.7,3.5-3c-0.8-1.3-1.4-2.7-1.8-4.3
		c-0.3,0.7-0.8,1.4-1.2,1.9c-0.1-0.2-0.6-0.7-0.8-0.9c1.3-1.5,2.1-4,2.5-6.6l1.1,0.2c-0.2,0.9-0.4,1.8-0.6,2.7h5.1v1H445.5z
		 M441.1,401.1c0.4,1.7,1,3.3,1.8,4.7c0.7-1.3,1.2-3,1.5-4.9h-3.2L441.1,401.1z"/>
	<path class="st1" d="M453.6,408.1c1-0.2,2.1-0.4,3.1-0.6l0.1,1c-2.7,0.5-5.5,1-7.5,1.4l-0.2-1c0.9-0.2,2.1-0.4,3.4-0.6v-2.5h-2.9
		v-1h2.9v-1.6h1.1v1.6h3v1h-3V408.1z M449.2,397.9h7.7v1h-4c-0.5,1-1.1,2-1.7,2.8l3.8-0.3c-0.4-0.5-0.8-1-1.1-1.5l0.8-0.5
		c0.8,1,1.8,2.4,2.3,3.2l-0.9,0.6c-0.1-0.3-0.3-0.6-0.5-0.9c-4.7,0.5-5.2,0.5-5.6,0.7c-0.1-0.2-0.2-0.8-0.4-1.1
		c0.2,0,0.5-0.3,0.7-0.7c0.2-0.3,0.8-1.2,1.3-2.3h-2.4V397.9z M458.7,407.3h-1v-9h1V407.3z M461.7,397.2v11.7c0,0.7-0.2,1-0.6,1.2
		c-0.5,0.2-1.3,0.2-2.3,0.2c0-0.3-0.2-0.8-0.4-1.1c0.9,0,1.7,0,2,0s0.3-0.1,0.3-0.3v-11.7H461.7z"/>
	<path class="st1" d="M468.7,397.3c-0.3,1-0.8,2-1.3,3v10.4h-1v-8.6c-0.5,0.7-0.9,1.4-1.4,1.9c-0.1-0.2-0.4-0.8-0.6-1
		c1.4-1.5,2.6-3.7,3.3-6L468.7,397.3z M478,399.4v0.9h-9.5v-0.9H478z M469.4,405.8h7.6v4.8h-1v-0.5h-5.6v0.6h-1V405.8z M476.8,402.5
		h-7.2v-0.9h7.2V402.5z M469.6,403.7h7.2v0.9h-7.2V403.7z M470.3,406.8v2.4h5.6v-2.4H470.3z M473,399.3c-0.2-0.5-0.7-1.4-1-2
		l0.9-0.4c0.4,0.6,0.9,1.4,1.1,2L473,399.3z"/>
	<path class="st1" d="M484.8,405.9c1.2-0.5,1.8-1.2,1.9-2.2c-0.1,0-0.2,0-0.3,0c-0.6,0-1.1-0.4-1.1-1.1c0-0.7,0.5-1.1,1.1-1.1
		c0.8,0,1.3,0.7,1.3,1.7c0,1.6-1,2.8-2.6,3.4L484.8,405.9z"/>
	<path class="st1" d="M494.5,399.5h5.1v0.9h-5.1V399.5z M499.3,402.2h-4.4v-0.9h4.4V402.2z M494.9,403.4h4.4v0.9h-4.4V403.4z
		 M499.2,409.8h-3.3v0.7h-1v-5h4.3V409.8z M495.9,406.3v2.5h2.3v-2.5H495.9z M497.1,399.3c-0.1-0.5-0.5-1.4-0.8-2l0.9-0.3
		c0.3,0.6,0.6,1.4,0.8,2L497.1,399.3z M507.3,409.5c0,0.5-0.1,0.8-0.5,1c-0.4,0.2-1,0.2-1.9,0.2c0-0.3-0.2-0.7-0.3-0.9
		c0.7,0,1.3,0,1.5,0c0.2,0,0.2-0.1,0.2-0.2v-1.3h-4.6c-0.2,0.9-0.5,1.9-1.1,2.6c-0.2-0.2-0.6-0.6-0.8-0.7c0.9-1.1,1-2.6,1-3.8v-2.8
		h6.6V409.5z M508.2,401.8v0.9h-8.3v-0.9h3.5v-1h-3v-0.8h3V399H500v-0.9h3.4V397h1.1v1.2h3.5v0.9h-3.5v0.9h3.3v0.8h-3.3v1H508.2z
		 M506.3,407.4v-1.1h-4.5c0,0.3,0,0.7,0,1.1H506.3z M501.8,404.4v1.1h4.5v-1.1H501.8z"/>
	<path class="st1" d="M518.7,399.1c-0.3,0.6-0.7,1.1-1.1,1.7v9.8h-1.2v-8.3c-1.5,1.7-3.3,3.3-5.4,4.4c-0.2-0.3-0.5-0.7-0.7-1
		c3-1.5,5.5-4,7-6.5h-6.6V398h12.8v1.1H518.7z M518.8,401.6c1.7,1.1,4,2.8,5.1,3.9l-0.9,0.9c-1.1-1.1-3.3-2.9-5.1-4.1L518.8,401.6z"
		/>
	<path class="st1" d="M536.4,406.4c-0.5,0.8-1.1,1.5-1.9,2.1c1.8,0.4,3.5,0.9,4.7,1.3l-1,0.8c-1.2-0.5-3-1-4.9-1.4
		c-1.7,0.8-3.9,1.2-6.7,1.5c-0.1-0.3-0.3-0.7-0.4-1c2.2-0.1,4-0.4,5.4-0.9c-1.1-0.2-2.3-0.4-3.5-0.6c0.4-0.5,0.9-1.1,1.3-1.7h-3.2
		v-1h3.9c0.3-0.5,0.6-1.1,0.9-1.6l1.1,0.3c-0.2,0.4-0.4,0.9-0.7,1.3h4.4c0.1-0.3,0.3-0.6,0.4-0.9l1.1,0.3c-0.1,0.2-0.1,0.4-0.2,0.6
		h2.6v1H536.4z M530.4,398.6h-4.1v-1h12.8v1H535v1.3h3.6v3.9h-11.4v-3.9h3.3V398.6z M528.2,402.8h2.2v-2h-2.2V402.8z M530.6,406.4
		c-0.3,0.4-0.6,0.8-0.8,1.2c1.1,0.2,2.1,0.4,3.2,0.6c0.8-0.4,1.5-1,2.1-1.8H530.6z M533.9,398.6h-2.4v1.3h2.4V398.6z M531.5,402.8
		h2.4v-2h-2.4V402.8z M535,400.8v2h2.5v-2H535z"/>
	<path class="st1" d="M555.1,404.6v0.9h-13.2v-0.9h6v-1.1h-4.6v-0.9h4.6v-0.9c-1.5,0.1-3.1,0.1-4.6,0.1c0-0.2-0.1-0.5-0.2-0.7h-0.9
		v-2.6h5.8c-0.2-0.4-0.5-0.9-0.7-1.3l1-0.3c0.3,0.5,0.7,1.2,0.9,1.6h5.2v2.6h-1c-1.3,0.2-2.9,0.4-4.7,0.5v1h4.7v0.9H549v1.1H555.1z
		 M543.4,401c1.5,0,3-0.1,4.5-0.1v-1.1h1v1c1.6-0.1,3-0.3,4-0.5l0.5,0.5v-1.4h-10.1V401z M544.1,406.4h9v4.2H552v-0.5h-6.9v0.5h-1.1
		V406.4z M545.1,407.3v1.9h6.9v-1.9H545.1z"/>
	<path class="st1" d="M561.7,403.8c-0.6,2.9-1.8,5.3-3.6,6.8c-0.2-0.2-0.6-0.6-0.9-0.8c1.7-1.3,2.8-3.4,3.3-6h-3v-0.9h6v-1.1h-4.8
		v-0.9h4.8v-1.1h-5.4v-1h3c-0.2-0.5-0.6-1-1-1.5l0.9-0.4c0.5,0.5,1,1.2,1.2,1.8l-0.3,0.1h4l-0.2-0.1c0.4-0.5,0.9-1.3,1.1-1.8
		l1.2,0.3c-0.4,0.6-0.8,1.1-1.2,1.6h3.2v1h-5.5v1.1h4.8v0.9h-4.8v1.1h6.1v0.9H561.7z M571.1,409.4v0.9h-11v-0.9h3.4
		c0.1-0.4,0.2-0.9,0.2-1.4h-2.5v-0.9h2.7c0.1-0.5,0.1-0.9,0.2-1.3h-2.1v-0.9h5.9l0.2-0.1l0.8,0.1c0,0.7-0.1,1.4-0.1,2.2h2.1v0.9
		h-2.2c0,0.5-0.1,1-0.1,1.4H571.1z M564.7,408c-0.1,0.5-0.2,1-0.2,1.4h2.9c0-0.4,0.1-0.9,0.1-1.4H564.7z M565,405.8
		c0,0.4-0.1,0.9-0.2,1.3h2.7c0-0.5,0-0.9,0.1-1.3H565z"/>
	<path class="st1" d="M586.6,409.1v1.1h-13.3v-1.1h6v-3.7h-4.6v-1.1h4.6V401H574v-1.1h6.6c-0.6-0.7-1.7-1.6-2.5-2.3l0.9-0.6
		c1,0.7,2.2,1.7,2.7,2.4l-0.7,0.5h4.8v1.1h-5.3v3.3h4.7v1.1h-4.7v3.7H586.6z"/>
	<path class="st1" d="M602.2,400.4c0,0,0,0.4,0,0.6c-0.2,6.3-0.3,8.4-0.8,9c-0.3,0.4-0.6,0.5-1,0.6c-0.4,0.1-1.1,0-1.8,0
		c0-0.3-0.2-0.8-0.3-1c0.7,0.1,1.4,0.1,1.7,0.1c0.3,0,0.4,0,0.5-0.2c0.3-0.4,0.5-2.4,0.7-7.9H599c-0.2,4-0.9,7.3-3.5,9.2
		c-0.2-0.2-0.6-0.6-0.8-0.8c0.2-0.2,0.5-0.3,0.7-0.5c-2.3,0.3-4.6,0.5-6.3,0.7l-0.2-1c0.9-0.1,2-0.2,3.3-0.3v-1.3h-2.8v-0.9h2.8
		v-0.9h-2.8v-4.5h2.8v-0.9h-3.2v-0.9h3.2v-1c-1,0.1-1.9,0.1-2.8,0.2c0-0.2-0.2-0.6-0.3-0.8c2.2-0.1,4.9-0.4,6.5-0.7l0.6,0.9
		c-0.8,0.2-1.8,0.3-2.9,0.4v1.1h3.2v0.9h-3.2v0.9h2.9v4.5h-2.9v0.9h2.9v0.9h-2.9v1.2c1-0.1,2-0.2,3-0.3v0.1c1.3-1.8,1.7-4.2,1.8-7
		h-1.8v-1h1.8c0-1.1,0-2.1,0-3.3h1.1c0,1.1,0,2.2,0,3.3H602.2z M590.2,403.2h1.9v-1.1h-1.9V403.2z M592.1,405v-1.1h-1.9v1.1H592.1z
		 M593.1,402.1v1.1h2v-1.1H593.1z M595.1,403.9h-2v1.1h2V403.9z"/>
	<path class="st1" d="M618.2,406.1v1h-13.5v-1h1.5l-0.3-7.9c0.9-0.3,2.1-0.8,2.8-1.2l0.5,0.9c-0.7,0.3-1.5,0.6-2.3,0.8l0.1,1.8h2v1
		h-2l0.1,1.8h2v1h-1.9l0.1,1.8h8.5c0-0.5,0.1-1.2,0.1-1.8h-2v-0.9h2c0-0.6,0-1.2,0.1-1.8h-2v-1h2c0-0.6,0-1.3,0-1.9h-2.2v-1h3.2
		c0,2.6-0.1,6.2-0.2,8.4H618.2z M610,408.1c-1.2,0.9-3,1.9-4.5,2.6c-0.1-0.2-0.4-0.6-0.7-0.8c1.4-0.6,3.2-1.6,4.2-2.4L610,408.1z
		 M611.1,402.7c-0.1,1-0.5,2.1-0.9,2.8c-0.2-0.1-0.6-0.4-0.8-0.5c0.5-0.7,0.7-1.6,0.8-2.5L611.1,402.7z M612.2,401.9h-2.4V397h1v1.4
		h2.5v0.9h-2.5v1.6h2v0h0.4v3.9c0,0.5-0.1,0.7-0.4,0.8c-0.3,0.1-0.9,0.1-1.6,0.1c0-0.2-0.2-0.5-0.3-0.8c0.5,0,1,0,1.1,0
		c0.2,0,0.2-0.1,0.2-0.2V401.9z M613.4,407.3c1.6,0.8,3.3,1.7,4.4,2.4l-0.7,0.8c-1-0.7-2.7-1.7-4.2-2.5L613.4,407.3z"/>
	<path class="st1" d="M633,403.5c-0.7,1.3-1.6,2.5-2.6,3.5c0.6,1.6,1.2,2.5,2,2.5c0.4,0,0.6-0.8,0.7-2.7c0.2,0.2,0.6,0.5,0.9,0.6
		c-0.2,2.5-0.6,3.2-1.7,3.2c-1.2,0-2.1-1-2.8-2.8c-1,0.9-2,1.6-3.2,2.2c-0.2-0.3-0.5-0.6-0.8-0.9c1.3-0.6,2.5-1.4,3.6-2.4
		c-0.4-1.2-0.6-2.7-0.8-4.4h-3.5v2.4c0.9-0.2,1.8-0.4,2.7-0.6l0.1,1c-0.9,0.2-1.8,0.4-2.8,0.6v3.3c0,0.7-0.2,1-0.6,1.2
		c-0.5,0.2-1.3,0.2-2.5,0.2c-0.1-0.3-0.3-0.8-0.4-1.1c1,0,1.8,0,2.1,0c0.3,0,0.4-0.1,0.4-0.3v-3c-1.1,0.2-2.2,0.5-3.1,0.7l-0.3-1.1
		c0.9-0.1,2.1-0.4,3.4-0.7v-2.6h-3.2v-1.1h3.2V399c-0.9,0.2-1.9,0.3-2.8,0.4c-0.1-0.3-0.2-0.7-0.4-0.9c2.1-0.3,4.5-0.8,5.9-1.3
		l0.8,0.9c-0.7,0.3-1.6,0.5-2.5,0.7v2.6h3.4c-0.1-1.4-0.2-2.8-0.2-4.3h1.1c0,1.5,0.1,2.9,0.2,4.3h4.4v1.1h-4.3
		c0.2,1.3,0.4,2.4,0.6,3.4c0.8-0.9,1.5-1.8,2-2.7L633,403.5z M632.5,400.5c-0.5-0.7-1.5-1.8-2.4-2.5l0.9-0.6
		c0.9,0.7,1.9,1.8,2.4,2.5L632.5,400.5z"/>
	<path class="st1" d="M639.9,397.3c-0.3,1-0.7,2-1.2,2.9v10.4h-1.1v-8.4c-0.5,0.8-0.9,1.4-1.4,2c-0.1-0.3-0.4-0.9-0.6-1.1
		c1.3-1.5,2.5-3.8,3.2-6.1L639.9,397.3z M644.1,403.2h-3v7.4h-1v-12.8h4V403.2z M641.2,398.7v1.4h2.1v-1.4H641.2z M643.2,402.4v-1.5
		h-2.1v1.5H643.2z M649.2,409.2c0,0.7-0.2,1.1-0.7,1.2c-0.5,0.2-1.4,0.2-2.8,0.2c-0.1-0.3-0.2-0.8-0.4-1.1c1.1,0,2.1,0,2.4,0
		c0.3,0,0.4-0.1,0.4-0.4v-5.9H645v-5.4h4.2V409.2z M645.9,398.7v1.4h2.2v-1.4H645.9z M648.1,402.4v-1.5h-2.2v1.5H648.1z"/>
	<path class="st1" d="M327.4,421.6v12h-1v-2.8c-1.2,0.2-2.4,0.4-3.3,0.6l-0.2-1c0.3,0,0.6-0.1,0.9-0.1v-8.7h-0.8v-1h4.9v1H327.4z
		 M326.5,421.6h-1.7v2.1h1.7V421.6z M326.5,424.7h-1.7v2.1h1.7V424.7z M326.5,429.9v-2.2h-1.7v2.4L326.5,429.9z M331.4,424.5
		c0.3,0.8,0.6,1.8,0.8,2.4l-0.7,0.2c0-0.2-0.1-0.5-0.2-0.8c-2.6,0.3-3,0.4-3.2,0.5c0-0.2-0.2-0.7-0.3-1c0.3,0,0.5-0.3,0.9-0.7
		c0.2-0.2,0.6-0.7,1-1.3c-1.1,0.1-1.4,0.1-1.5,0.2c0-0.2-0.2-0.7-0.3-1c0.2,0,0.4-0.2,0.6-0.5c0.2-0.3,1-1.4,1.4-2.5l0.8,0.4
		c-0.5,1-1.1,2-1.7,2.7l1.2-0.1c0.3-0.4,0.5-0.9,0.8-1.3l0.8,0.4c-0.8,1.3-1.7,2.7-2.7,3.7l2-0.2c-0.1-0.3-0.2-0.7-0.3-1
		L331.4,424.5z M330.8,427.3h1v2.3c0,1.4-0.5,3.1-2.6,4.1c-0.1-0.2-0.4-0.6-0.6-0.8c1.4-0.7,1.9-1.5,2.1-2.4h-2.1v-3.3h0.9v2.3h1.3
		v-0.1V427.3z M335.8,424.4c0.4,0.8,0.8,1.9,1,2.5l-0.7,0.3c-0.1-0.2-0.1-0.5-0.3-0.8c-2.6,0.4-3,0.4-3.3,0.6c0-0.2-0.1-0.7-0.3-1
		c0.2,0,0.5-0.3,0.8-0.7c0.2-0.2,0.5-0.7,1-1.4c-1.2,0.1-1.5,0.2-1.6,0.2c0-0.2-0.2-0.7-0.3-1c0.2,0,0.4-0.2,0.6-0.5
		c0.2-0.3,0.9-1.4,1.3-2.4l0.8,0.4c-0.4,0.9-1,1.9-1.5,2.6l1.2-0.1c0.2-0.4,0.4-0.8,0.6-1.2l0.8,0.4c-0.7,1.3-1.5,2.6-2.3,3.6
		l1.9-0.2c-0.1-0.4-0.3-0.7-0.4-1L335.8,424.4z M335,427.4h0.9v3.7H335v-0.6h-1.3v3.1h-1v-6.4h1v2.3h1.3V427.4z"/>
	<path class="st1" d="M342.8,431.5c-1,0.7-2.6,1.4-3.9,1.8c-0.2-0.2-0.6-0.5-0.8-0.7c1.3-0.3,2.8-0.9,3.7-1.5L342.8,431.5z
		 M345.5,430.8v1.7c0,0.5-0.1,0.8-0.6,0.9c-0.5,0.1-1.2,0.1-2.3,0.1c-0.1-0.3-0.3-0.6-0.4-0.9c0.9,0,1.7,0,1.9,0
		c0.2,0,0.3-0.1,0.3-0.2v-1.6c-4,0.3-4.6,0.3-5,0.5c0-0.2-0.2-0.6-0.3-0.9c0.5,0,1.1-0.2,1.9-0.5c0.4-0.1,1.3-0.4,2.4-0.9
		c-2.5,0.2-2.9,0.3-3.2,0.3c0-0.2-0.2-0.6-0.3-0.8c0.3,0,0.6-0.1,1-0.3c0.4-0.1,1.4-0.7,2.4-1.3h-4.6v-1.4h0.9v0.8h1.4v-1h-2.8v-0.6
		h2.8v-0.5h-2.3v-2.6h2.3v-0.5h-2.7v-0.6h2.7v-0.8h1v0.8h2.7v0.6H342v0.5h2.3v2.6H342v0.5h2.9v0.6H342v1h1.5v-0.8h0.9v1.4h-0.4
		l0.5,0.3c-0.7,0.5-1.4,0.9-2.2,1.2l3.1-0.2c0.6-0.3,1.3-0.6,1.9-1l0.8,0.6c-1.8,0.9-3.5,1.6-5.3,2.2l5.4-0.3
		c-0.4-0.2-0.7-0.5-1.1-0.7l0.8-0.5c1.1,0.6,2.5,1.6,3.2,2.2l-0.8,0.5c-0.3-0.3-0.7-0.6-1.1-1L345.5,430.8z M339.6,422.8h1.4v-0.5
		h-1.4V422.8z M341,423.9v-0.5h-1.4v0.5H341z M342,422.3v0.5h1.5v-0.5H342z M343.5,423.3H342v0.5h1.5V423.3z M350.6,423.6
		c-0.4,1-1,1.8-1.9,2.4c0.8,0.4,1.8,0.6,2.9,0.8c-0.2,0.2-0.5,0.6-0.6,0.8c-1.2-0.2-2.3-0.6-3.2-1.1c-0.8,0.4-1.7,0.7-2.7,0.9
		c-0.1-0.2-0.3-0.6-0.5-0.8c0.9-0.1,1.7-0.4,2.4-0.7c-0.6-0.5-1-1-1.3-1.7l0.6-0.1h-0.9v-0.5l0,0c-0.1-0.2-0.5-0.6-0.7-0.7
		c1-0.5,1.2-1.1,1.2-1.6v-1h3.8v1.8c0,0.3,0,0.4,0.2,0.4h0.9c0.2,0,0.5,0,0.7,0c0,0.2,0,0.5,0.1,0.7c-0.1,0-0.4,0.1-0.7,0.1h-1
		c-0.9,0-1-0.3-1-1.1v-1h-1.9v0.2c0,0.7-0.2,1.5-1.1,2.1h4.2l0.2,0L350.6,423.6z M346.6,424.2c0.3,0.5,0.7,1,1.3,1.3
		c0.6-0.4,1-0.8,1.4-1.3H346.6z M347.5,431.1c1.3,0.4,2.9,1,3.7,1.5l-0.8,0.6c-0.8-0.5-2.4-1.2-3.7-1.6L347.5,431.1z"/>
	<path class="st1" d="M357.5,429.7h-2.9v1.4h-1v-9.8h4V429.7z M354.5,422.4v6.3h1.9v-6.3H354.5z M364.6,432.3c0.8,0,1-0.4,1.1-2.1
		c0.3,0.2,0.7,0.4,1,0.4c-0.2,2-0.5,2.7-2.1,2.7H361c-1.6,0-2.2-0.4-2.2-2.1v-10.4h7.4v7.8h-1.1v-0.9h-5.2v3.5c0,0.8,0.2,1,1.1,1
		H364.6z M359.9,422v4.8h2V422H359.9z M365.1,422H363v4.8h2.1V422z"/>
	<path class="st1" d="M369.9,431.4c0-0.7,0.5-1.2,1.2-1.2c0.7,0,1.2,0.5,1.2,1.2c0,0.7-0.5,1.2-1.2,1.2
		C370.4,432.6,369.9,432.1,369.9,431.4z M370.2,423l0-1.8h1.8l0,1.8l-0.4,5.8h-1L370.2,423z"/>
	<path class="st1" d="M385.2,426.8c0-2.9,1.2-5.3,3-7.1l0.9,0.5c-1.7,1.8-2.8,4-2.8,6.7s1.1,4.9,2.8,6.7l-0.9,0.5
		C386.4,432.1,385.2,429.7,385.2,426.8z"/>
	<path class="st1" d="M394.9,420.3c-0.4,1.1-1,2.2-1.5,3.2v10.1h-1.1v-8.4c-0.5,0.7-1,1.3-1.5,1.9c-0.1-0.3-0.4-0.8-0.6-1.1
		c1.5-1.4,2.9-3.7,3.7-6L394.9,420.3z M400.1,423.9v8.4c0,0.6-0.1,1-0.5,1.1c-0.4,0.2-1,0.2-2,0.2c-0.1-0.3-0.2-0.8-0.4-1.1
		c0.7,0,1.4,0,1.5,0s0.3-0.1,0.3-0.3v-8.4h-2.3c-0.4,1-0.9,1.9-1.5,2.6c-0.2-0.2-0.6-0.5-0.9-0.7c1.1-1.4,2-3.5,2.5-5.7l1.1,0.2
		c-0.2,0.9-0.5,1.7-0.8,2.6h6.1l0.2,0l0.8,0.2c-0.2,1.1-0.5,2.4-0.7,3.2l-0.9-0.2c0.1-0.5,0.2-1.3,0.3-2.1H400.1z M397.6,426.5
		c-0.5,2-1.3,3.9-2.2,5.1c-0.2-0.2-0.7-0.5-1-0.6c0.9-1.1,1.6-2.9,2.1-4.7L397.6,426.5z M402.1,426.2c0.9,1.6,1.6,3.6,1.9,5
		l-1.1,0.4c-0.2-1.4-1-3.5-1.8-5L402.1,426.2z"/>
	<path class="st1" d="M419,422.1h-1.8v9.9c0,0.8-0.2,1.2-0.8,1.4c-0.6,0.2-1.6,0.2-3.1,0.2c-0.1-0.3-0.3-0.9-0.5-1.2
		c1.2,0.1,2.4,0,2.8,0c0.3,0,0.4-0.1,0.4-0.4v-9.9h-10.3V421H419V422.1z M408.3,429.9v1.2h-1.1v-6.8h6.1v5.6H408.3z M408.3,425.4
		v3.4h3.9v-3.4H408.3z"/>
	<path class="st1" d="M426.8,429.4c-2.1,0.9-4.3,1.9-6,2.7l-0.4-1.2c0.6-0.2,1.3-0.5,2.1-0.8l-0.3-9.3l1.1,0l0.2,8.8
		c1-0.4,2-0.8,3-1.3L426.8,429.4z M433.4,433.6c-0.7-1-2.1-2.6-3.4-4c-1.2,1.8-2.8,3.1-5.1,4c-0.1-0.2-0.6-0.7-0.9-1
		c5.1-1.9,6.7-5.5,7.4-12l1.2,0.1c-0.4,3.2-0.9,5.8-2,7.8c1.3,1.3,2.9,3,3.7,4.1L433.4,433.6z M427.6,426c-0.4-1-1.4-2.6-2.3-3.7
		l1-0.5c1,1.1,1.9,2.6,2.4,3.6L427.6,426z"/>
	<path class="st1" d="M441.2,428.9c-0.3-0.5-1.1-1.6-1.7-2.4v7.1h-1.1v-6.8c-0.7,1.6-1.6,3.2-2.5,4.1c-0.1-0.3-0.4-0.8-0.6-1
		c1.1-1,2.2-3,2.9-4.7h-2.4v-1h2.6V422c-0.8,0.2-1.6,0.3-2.4,0.4c0-0.2-0.2-0.6-0.3-0.9c1.9-0.3,4.1-0.8,5.4-1.3l0.6,0.9
		c-0.6,0.3-1.4,0.5-2.3,0.7v2.4h2.4v1h-2.4v0.2c0.5,0.5,2,2.2,2.4,2.6L441.2,428.9z M448,433.2c-0.1-0.5-0.3-1-0.5-1.6
		c-5.2,0.8-5.8,0.9-6.2,1.2c-0.1-0.2-0.2-0.8-0.4-1.1c0.3-0.1,0.7-0.9,1.1-2.1c0.4-1.1,1.7-5.4,2.3-9.2l1.2,0.2
		c-0.7,3.7-1.7,7.6-2.9,10.7l4.5-0.6c-0.5-1.4-1.1-2.9-1.7-4.1l1-0.4c1,2.1,2.1,4.9,2.6,6.6L448,433.2z"/>
	<path class="st1" d="M456,423.4h-5.4v-0.9h5.4V423.4z M455.4,432.7h-3.3v0.7h-0.9v-5h4.2V432.7z M451.2,425.3v-0.9h4.2v0.9H451.2z
		 M451.2,426.4h4.2v0.9h-4.2V426.4z M452.1,429.3v2.5h2.4v-2.5H452.1z M453.2,422.3c-0.2-0.5-0.7-1.4-1-2l0.8-0.5
		c0.4,0.6,0.9,1.4,1.1,1.9L453.2,422.3z M462.6,420.8c-0.1,6.1-0.1,11.3,0.7,11.5c0.1,0,0.2-0.9,0.3-2c0.2,0.3,0.5,0.7,0.6,0.8
		c-0.2,2.1-0.6,2.6-1.3,2.3c-1.5-0.5-1.4-5.4-1.4-11.5H459v4.4h2v1h-2v6.3h-1v-6.3h-2v-1h2v-4.4h-1.9v-1.1H462.6z"/>
	<path class="st1" d="M467.7,427.1c-0.3,1.6-1,3.7-1.8,4.8c-0.1-0.4-0.4-0.9-0.5-1.2c0.7-0.9,1.4-2.5,1.6-3.9L467.7,427.1z
		 M468.9,426v7.7h-1V426h-2.3v-1h2.3v-5h1v5h2v0.5c1-1.2,1.6-2.8,1.9-4.7l1,0.2c-0.4,2.2-1.2,4.2-2.3,5.5c-0.1-0.2-0.4-0.4-0.6-0.6
		v0.1H468.9z M466.5,424.4c-0.1-0.9-0.4-2.3-0.8-3.3l0.8-0.2c0.4,1,0.8,2.4,0.9,3.3L466.5,424.4z M469.7,426.9
		c0.3,0.4,1.3,2.3,1.6,2.8l-0.8,0.8c-0.3-0.8-1.1-2.6-1.4-3.2L469.7,426.9z M471.4,421.1c-0.4,1.1-0.9,2.5-1.3,3.3l-0.8-0.2
		c0.4-0.9,0.8-2.4,1-3.4L471.4,421.1z M477,420.4c0.3,2.2,1.1,4.2,2.3,5.3c-0.3,0.2-0.7,0.6-0.9,0.8c-0.1-0.1-0.2-0.2-0.3-0.3
		c0,0.1,0,0.3,0,0.3c-0.2,4.4-0.4,5.9-0.9,6.4c-0.3,0.3-0.5,0.4-0.9,0.5c-0.4,0-1,0-1.7,0c0-0.3-0.1-0.7-0.3-1
		c0.6,0.1,1.2,0.1,1.5,0.1c0.2,0,0.3,0,0.5-0.2c0.3-0.3,0.5-1.7,0.7-5.2h-2.4c-0.3,3.1-1.2,5.2-3.1,6.6c-0.1-0.2-0.5-0.6-0.7-0.8
		c1.7-1.2,2.5-3.1,2.7-5.8h-1.6v-1h6.1c-0.9-1.2-1.5-2.8-1.8-4.6h-1.8v-1H477z"/>
	<path class="st1" d="M494.1,430.3h-3.6v2.1c0,0.6-0.1,0.9-0.6,1c-0.5,0.2-1.2,0.2-2.4,0.2c0-0.3-0.2-0.7-0.4-1c0.9,0,1.8,0,2,0
		c0.2,0,0.3-0.1,0.3-0.3v-2.1h-5.7c0.9,0.5,1.9,1.3,2.5,1.8l-0.8,0.7c-0.5-0.6-1.6-1.4-2.5-1.9l0.7-0.6h-3.1v-0.9h8.9v-0.9
		c-3.1,0.1-6.1,0.2-8.2,0.2l0-0.9c1.5,0,3.4,0,5.6,0v-0.8h-4.6v-4.1h4.6V422H481v-0.9h5.7V420h1.1v1.1h5.7v0.9h-5.7v0.8h4.7v4.1
		h-1.7c1,0.4,2.1,1,2.7,1.5l-0.7,0.6c-0.2-0.2-0.5-0.4-0.9-0.6l-1.5,0v1h3.6V430.3z M483.2,424.5h3.5v-0.9h-3.5V424.5z M486.7,426.2
		v-0.9h-3.5v0.9H486.7z M487.8,423.6v0.9h3.6v-0.9H487.8z M491.5,425.2h-3.6v0.9h3.6V425.2z M487.8,427.7l2.8,0
		c-0.4-0.2-0.8-0.3-1.1-0.5l0.4-0.3h-2.1V427.7z"/>
	<path class="st1" d="M502.5,431.2c-2.3,0.5-4.7,1-6.5,1.4l-0.2-1.1c1.6-0.3,4.2-0.8,6.6-1.3L502.5,431.2z M508.2,424.8
		c-0.6,2-1.5,3.8-2.7,5.2c0.6,1.5,1.2,2.5,2,2.5c0.4,0,0.6-0.8,0.7-2.8c0.3,0.3,0.7,0.5,1,0.6c-0.2,2.6-0.6,3.3-1.8,3.3
		c-1.1,0-2-1-2.7-2.6c-0.9,1-2,1.9-3.2,2.6c-0.2-0.2-0.6-0.7-0.9-0.9c1.4-0.8,2.6-1.7,3.6-2.9c-0.5-1.8-0.9-4-1.1-6.4h-7.4v-1.1h7.3
		c0-0.8-0.1-1.6-0.1-2.4h1.2c0,0.8,0,1.6,0,2.4h4.5v1.1h-4.4c0.1,2,0.4,3.8,0.8,5.2c0.8-1.2,1.5-2.6,1.9-4.2L508.2,424.8z
		 M501.9,424.8v4.5h-5.2v-4.5H501.9z M500.8,425.7h-3v2.6h3V425.7z M507.7,422.3c-0.5-0.5-1.6-1.2-2.5-1.6l0.6-0.7
		c0.9,0.4,2,1,2.6,1.5L507.7,422.3z"/>
	<path class="st1" d="M523.9,427.9h-2.1v4.5c0,0.6-0.1,0.9-0.6,1.1c-0.5,0.2-1.2,0.1-2.4,0.1c-0.1-0.3-0.2-0.7-0.4-1
		c0.9,0,1.7,0,2,0c0.2,0,0.3-0.1,0.3-0.3v-4.5h-10v-1h1.8c-0.1-0.3-0.3-0.6-0.5-0.7c2.5-0.3,3.7-0.9,4.3-2h-3.8v-0.9h4.2
		c0.1-0.3,0.1-0.5,0.2-0.9h1.1c0,0.3-0.1,0.6-0.2,0.9h4.3v0.9h-4.5c0,0.1-0.1,0.2-0.1,0.3c1.6,0.4,3.6,1.2,4.7,1.7l-0.5,0.7h2.3
		V427.9z M512,423.8h-1v-2.6h6c-0.1-0.4-0.2-0.7-0.4-1l1.1-0.2c0.2,0.4,0.4,0.9,0.5,1.3h5.6v2.6h-1.1v-1.6H512V423.8z M513.6,432.1
		v0.8h-1v-4h6v3.3H513.6z M521.3,426.9c-1.1-0.6-2.9-1.2-4.4-1.7c-0.7,0.8-1.8,1.3-3.7,1.7H521.3z M513.6,429.7v1.5h4v-1.5H513.6z"
		/>
	<path class="st1" d="M529.7,420.3c-0.3,1-0.8,2-1.3,3v10.4h-1v-8.6c-0.5,0.7-0.9,1.4-1.4,1.9c-0.1-0.2-0.4-0.8-0.6-1
		c1.4-1.5,2.6-3.7,3.3-6L529.7,420.3z M539,422.4v0.9h-9.5v-0.9H539z M530.4,428.8h7.6v4.8h-1v-0.5h-5.6v0.6h-1V428.8z M537.8,425.5
		h-7.2v-0.9h7.2V425.5z M530.6,426.7h7.2v0.9h-7.2V426.7z M531.3,429.8v2.4h5.6v-2.4H531.3z M534,422.3c-0.2-0.5-0.7-1.4-1-2
		l0.9-0.4c0.4,0.6,0.9,1.4,1.1,2L534,422.3z"/>
	<path class="st1" d="M554,432v1.1h-13.3V432h6v-2.8H542v-1h4.7v-2h1.1v2h4.9v1h-4.9v2.8H554z M552.5,426.6c-0.2-0.3-0.6-0.7-1-1.1
		c-8.1,0.4-8.9,0.4-9.4,0.6c-0.1-0.3-0.2-0.8-0.4-1.1c0.3,0,0.6-0.3,1-0.7c0.4-0.3,1.4-1.3,2.2-2.5h-4v-1h12.5v1h-7.1
		c-0.9,1.2-1.8,2.2-2.8,3.1l6.9-0.3c-0.6-0.6-1.3-1.1-1.9-1.6l0.9-0.6c1.3,1,3,2.5,3.8,3.5L552.5,426.6z"/>
	<path class="st1" d="M568.6,421.4v2.7h-1.2v-1.6h-10.4v1.6H556v-2.7h6c-0.1-0.4-0.3-0.9-0.5-1.3l1.1-0.3c0.3,0.5,0.5,1.1,0.7,1.5
		H568.6z M559,429h8.3v4.6h-1.1V433H559v0.7h-1.1v-9.9h8.8v3.8H559V429z M559,424.7v1.9h6.6v-1.9H559z M559,430v2h7.1v-2H559z"/>
	<path class="st1" d="M576.2,423.6c0,0.8-0.1,1.6-0.2,2.4h6.4c0,0,0,0.4,0,0.5c-0.3,4.2-0.6,5.8-1.2,6.4c-0.4,0.4-0.7,0.5-1.3,0.5
		c-0.5,0-1.5,0-2.5-0.1c0-0.3-0.2-0.8-0.4-1.1c1.1,0.1,2.1,0.1,2.5,0.1c0.3,0,0.5,0,0.7-0.2c0.4-0.4,0.7-1.8,1-5.2h-5.3
		c-0.5,2.6-1.6,5.1-4.4,6.6c-0.2-0.3-0.5-0.7-0.8-0.9c3.8-1.9,4.2-5.7,4.4-9.2h-4v-1.1h6.6c-0.2-0.6-0.6-1.6-1-2.2l1.1-0.4
		c0.4,0.7,0.9,1.6,1.1,2.2l-1,0.4h6.3v1.1H576.2z"/>
	<path class="st1" d="M589.7,420.3c-0.3,1-0.8,2-1.3,3v10.4h-1v-8.6c-0.5,0.7-0.9,1.4-1.4,1.9c-0.1-0.2-0.4-0.8-0.6-1
		c1.3-1.5,2.6-3.7,3.3-6L589.7,420.3z M599,422.4v0.9h-9.5v-0.9H599z M590.4,428.8h7.6v4.8h-1v-0.5h-5.6v0.6h-1V428.8z M597.8,425.5
		h-7.2v-0.9h7.2V425.5z M590.6,426.7h7.2v0.9h-7.2V426.7z M591.3,429.8v2.4h5.6v-2.4H591.3z M594,422.3c-0.2-0.5-0.7-1.4-1-2
		l0.9-0.4c0.4,0.6,0.9,1.4,1.1,2L594,422.3z"/>
	<path class="st1" d="M602.7,422.1c-0.5,0.7-1,1.4-1.5,1.9c-0.2-0.2-0.6-0.6-0.9-0.7c1-0.9,1.8-2.1,2.4-3.5l1.1,0.3
		c-0.1,0.3-0.3,0.7-0.5,1h3.9v1H602.7z M604.4,427.5c0.6,0.5,2,1.9,2.4,2.2l-0.7,0.9c-0.3-0.4-1.1-1.3-1.7-2v5h-1.1v-5
		c-0.7,1.3-1.5,2.5-2.3,3.4c-0.1-0.3-0.5-0.6-0.7-0.9c1-0.9,2.1-2.7,2.8-4.3h-2.4v-1h2.6v-1.7h1.1v1.7h2.4v1h-2.4V427.5z
		 M605.1,424.4c-0.3-0.5-1-1.1-1.5-1.6l0.7-0.6c0.6,0.5,1.2,1.1,1.5,1.6L605.1,424.4z M614,421.2v1h-2.9c0.5,0.5,1.2,1.2,1.5,1.6
		l-0.7,0.7c-0.3-0.5-1-1.2-1.6-1.8l0.6-0.5h-1.7c-0.4,0.7-0.9,1.4-1.4,1.9c-0.2-0.2-0.7-0.5-0.9-0.6c1-0.8,1.8-2.1,2.2-3.5l1.1,0.2
		c-0.1,0.4-0.3,0.7-0.4,1.1H614z M607.3,424.7h6.2v8.8h-1.1V433h-4v0.6h-1.1V424.7z M608.3,425.7v1.5h4v-1.5H608.3z M612.3,429.6
		v-1.5h-4v1.5H612.3z M612.3,432v-1.6h-4v1.6H612.3z"/>
	<path class="st1" d="M619.4,426.8c0,2.9-1.2,5.3-3,7.1l-0.9-0.5c1.7-1.8,2.8-4,2.8-6.7s-1.1-4.9-2.8-6.7l0.9-0.5
		C618.2,421.5,619.4,423.9,619.4,426.8z"/>
	<path class="st1" d="M336.6,449v1.2H323V449H336.6z"/>
	<path class="st1" d="M343.3,443.3c-0.4,1.1-1,2.2-1.6,3.2v10.1h-1.1v-8.4c-0.5,0.7-1,1.3-1.5,1.8c-0.1-0.3-0.4-0.9-0.6-1.1
		c1.5-1.4,2.9-3.6,3.7-5.9L343.3,443.3z M352.5,455v1h-9.8v-1H352.5z M351.2,453.1h-7.3V444h7.3V453.1z M350,445.1h-5v2.9h5V445.1z
		 M350,449h-5v3h5V449z"/>
	<path class="st1" d="M367.2,452.8c-0.3-0.3-0.7-0.6-1.1-0.9v4.6h-1.1v-0.4h-7.3v0.5h-1v-4.5c-0.6,0.3-1.1,0.5-1.6,0.7
		c-0.1-0.3-0.5-0.7-0.7-0.9c1.7-0.5,3.6-1.4,4.9-2.4h-4.5v-0.9h2.9c-0.1-0.4-0.4-0.9-0.6-1.2l0.9-0.2c0.3,0.4,0.6,1,0.7,1.4
		l-0.4,0.1h2.4v-1.6c-1.2,0.1-2.5,0.1-3.7,0.1c0-0.2-0.1-0.6-0.3-0.8c2.8-0.1,6.3-0.3,8.2-0.6l0.6,0.8c-1,0.2-2.4,0.3-3.8,0.4v1.7
		h1.9c0.3-0.5,0.6-1.2,0.8-1.7l1,0.3c-0.3,0.5-0.5,0.9-0.8,1.3h3.1v0.9h-4c1.7,0.9,3.2,1.9,4.3,2.8L367.2,452.8z M356,446.8H355
		v-2.7h5.7c-0.1-0.3-0.3-0.7-0.5-0.9l1.1-0.3c0.2,0.4,0.5,0.9,0.7,1.3h5.6v2.7h-1.1v-1.7H356V446.8z M360.7,452.2h-3.1v1.2h3.1
		V452.2z M357.6,455.3h3.1v-1.2h-3.1V455.3z M360.5,449.4c-0.7,0.7-1.6,1.3-2.6,1.9h2.7v-1.9H360.5z M365.2,451.3
		c-1-0.6-2.1-1.3-3.2-1.9h-0.2v1.9H365.2z M364.9,452.2h-3.2v1.2h3.2V452.2z M364.9,455.3v-1.2h-3.2v1.2H364.9z"/>
	<path class="st1" d="M374.6,450.9c-0.2-0.5-0.7-1.3-1.1-2.1v7.8h-1.1v-7.2c-0.5,1.6-1.1,3.2-1.8,4.1c-0.1-0.3-0.4-0.8-0.6-1.1
		c0.9-1.2,1.9-3.6,2.3-5.7h-1.9v-1h2v-2.9h1.1v2.9h1.7v1h-1.7v0.6c0.4,0.6,1.5,2.2,1.8,2.7L374.6,450.9z M383.5,450.4
		c-0.6,1.1-1.4,2.1-2.4,2.9c1,0.8,2.2,1.8,2.8,2.5l-0.9,0.7c-0.6-0.7-1.7-1.7-2.7-2.5c-1.4,1.1-3.1,2-5,2.7
		c-0.1-0.3-0.4-0.7-0.7-0.9c3.5-1.1,6.3-3.3,7.6-5.8L383.5,450.4z M382.3,447.7c-1.3,2.3-3.5,4.4-6.2,5.7c-0.1-0.2-0.4-0.6-0.6-0.8
		c1.5-0.7,2.9-1.7,4-2.8c-2.7,0.2-3.1,0.3-3.4,0.4c0-0.3-0.2-0.8-0.3-1c0.3-0.1,0.7-0.2,1-0.4c0.3-0.3,1.1-1.6,1.6-2.5h-2.8v-1h3.9
		c-0.2-0.5-0.5-1.2-0.8-1.8l1-0.3c0.4,0.6,0.8,1.5,0.9,2l-0.1,0.1h3.4v1h-4.2c-0.5,0.8-1.2,2-1.8,2.8l2.5-0.2
		c0.3-0.4,0.7-0.9,0.9-1.4L382.3,447.7z"/>
	<path class="st1" d="M389.5,450.1c-0.3,1.3-0.7,2.8-1.2,3.9c0.3,0.2,0.6,0.4,1.2,0.8c1.1,0.6,2.4,0.8,4.2,0.8c1.9,0,4.3-0.1,6-0.3
		c-0.1,0.3-0.3,0.8-0.3,1.2c-1.1,0.1-4,0.2-5.7,0.2c-2,0-3.3-0.2-4.4-0.8c-0.6-0.4-1.2-0.9-1.5-0.9c-0.3,0-0.8,0.9-1.3,1.9l-0.8-1
		c0.5-0.8,1-1.4,1.5-1.7c0.5-0.9,0.8-2,1.1-3.1h-1.9c0.4-0.9,0.9-2.2,1.3-3.3H386v-1h3.1c-0.4,1.1-0.8,2.3-1.2,3.4h1l0.2,0
		L389.5,450.1z M387.5,445.8c-0.2-0.6-0.5-1.7-0.8-2.5l1-0.3c0.3,0.8,0.6,1.8,0.8,2.4L387.5,445.8z M391.7,454.4h-1.1v-7.7h4.3
		c-0.9-0.4-2-0.9-2.9-1.2l0.7-0.6c0.6,0.2,1.4,0.5,2.1,0.8c0.7-0.3,1.5-0.8,2.1-1.2h-6.3v-0.9h7.3l0.2-0.1l0.7,0.5
		c-0.8,0.8-1.9,1.5-3,2.1c0.4,0.2,0.8,0.4,1.2,0.6h1.9v6.6c0,0.6-0.1,0.8-0.5,1c-0.4,0.2-1,0.2-2,0.2c0-0.3-0.2-0.7-0.3-0.9
		c0.7,0,1.3,0,1.5,0c0.2,0,0.3-0.1,0.3-0.3v-1.4h-2.6v2.4h-1v-2.4h-2.5V454.4z M391.7,447.5v1.3h2.5v-1.3H391.7z M394.2,451.1v-1.4
		h-2.5v1.4H394.2z M397.8,447.5h-2.6v1.3h2.6V447.5z M397.8,451.1v-1.4h-2.6v1.4H397.8z"/>
	<path class="st1" d="M405.2,450.1c-0.3,1.3-0.7,2.8-1.2,3.9c0.3,0.2,0.6,0.4,1.2,0.8c1.1,0.6,2.4,0.8,4.2,0.8c1.9,0,4.3-0.1,6-0.3
		c-0.1,0.3-0.3,0.8-0.3,1.2c-1.1,0.1-4,0.2-5.7,0.2c-2,0-3.3-0.2-4.4-0.8c-0.6-0.4-1.2-0.9-1.5-0.9c-0.3,0-0.8,0.9-1.3,1.9l-0.8-1
		c0.5-0.8,1.1-1.4,1.5-1.7c0.5-0.9,0.8-2,1.1-3.1h-2c0.4-0.9,0.9-2.2,1.3-3.3h-1.7v-1h3.1c-0.4,1.1-0.8,2.3-1.2,3.4h1l0.2,0
		L405.2,450.1z M403.2,445.8c-0.2-0.6-0.5-1.7-0.8-2.5l1-0.3c0.3,0.8,0.6,1.8,0.8,2.4L403.2,445.8z M407.1,454.6h-1v-6.5h1.2v-4.6
		h6.1v4.6h1.2v5.4c0,0.5-0.1,0.8-0.5,0.9c-0.4,0.2-0.9,0.2-1.8,0.2c0-0.3-0.2-0.6-0.3-0.9c0.6,0,1.2,0,1.3,0c0.2,0,0.2-0.1,0.2-0.2
		V449h-6.4V454.6z M408.2,448.1h1.4v-2.5h2.7v-1.2h-4.1V448.1z M412.2,453.1h-3v0.6h-0.9v-3.8h3.9V453.1z M411.3,450.7h-2.1v1.6h2.1
		V450.7z M412.4,448.1v-1.7h-1.9v1.7H412.4z"/>
	<path class="st1" d="M421.9,451.9c1.2-0.5,1.8-1.2,1.9-2.2c-0.1,0-0.2,0-0.3,0c-0.6,0-1.1-0.4-1.1-1.1c0-0.7,0.5-1.1,1.1-1.1
		c0.8,0,1.3,0.7,1.3,1.7c0,1.6-1,2.8-2.6,3.4L421.9,451.9z"/>
	<path class="st1" d="M436,443.3c-0.4,1.1-1,2.2-1.5,3.2v10.1h-1.1v-8.4c-0.5,0.7-1,1.3-1.5,1.9c-0.1-0.3-0.4-0.8-0.6-1.1
		c1.5-1.4,2.9-3.7,3.7-6L436,443.3z M441.2,446.9v8.4c0,0.6-0.1,1-0.5,1.1c-0.4,0.2-1,0.2-2,0.2c-0.1-0.3-0.2-0.8-0.4-1.1
		c0.7,0,1.4,0,1.5,0s0.3-0.1,0.3-0.3v-8.4h-2.3c-0.4,1-0.9,1.9-1.5,2.6c-0.2-0.2-0.6-0.5-0.9-0.7c1.1-1.4,2-3.5,2.5-5.7l1.1,0.2
		c-0.2,0.9-0.5,1.7-0.8,2.6h6.1l0.2,0l0.8,0.2c-0.2,1.1-0.5,2.4-0.7,3.2l-0.9-0.2c0.1-0.5,0.2-1.3,0.3-2.1H441.2z M438.8,449.5
		c-0.5,2-1.3,3.9-2.2,5.1c-0.2-0.2-0.7-0.5-1-0.6c0.9-1.1,1.6-2.9,2.1-4.7L438.8,449.5z M443.3,449.2c0.9,1.6,1.6,3.6,1.9,5
		l-1.1,0.4c-0.2-1.4-1-3.5-1.8-5L443.3,449.2z"/>
	<path class="st1" d="M451.5,443.1c-0.3,0.7-0.5,1.6-0.8,2.2h2.5v9.7H449v1.2h-1v-10.9h1.7c0.2-0.7,0.5-1.7,0.6-2.4L451.5,443.1z
		 M452.2,446.3H449v3.1h3.1V446.3z M452.2,454.1v-3.6H449v3.6H452.2z M460.5,445.9c-0.2,6.8-0.4,9.1-1,9.9c-0.3,0.4-0.7,0.6-1.2,0.6
		c-0.5,0.1-1.4,0-2.2,0c0-0.3-0.2-0.8-0.4-1.1c1,0.1,1.9,0.1,2.2,0.1c0.3,0,0.5,0,0.6-0.2c0.5-0.5,0.7-2.8,0.9-8.8h-3.8
		c-0.4,1-0.9,1.9-1.4,2.6c-0.2-0.2-0.7-0.5-0.9-0.6c1-1.3,1.8-3.4,2.3-5.4l1.1,0.3c-0.2,0.7-0.4,1.5-0.6,2.2h4.5V445.9z
		 M457.2,452.6c-0.5-0.9-1.5-2.4-2.3-3.5l0.9-0.5c0.8,1.1,1.9,2.5,2.4,3.4L457.2,452.6z"/>
	<path class="st1" d="M467.6,450.5c-0.5,0.2-1.1,0.4-1.6,0.6v4.2c0,0.6-0.1,0.9-0.5,1.1c-0.3,0.2-0.9,0.2-1.9,0.2
		c0-0.3-0.2-0.7-0.3-1c0.6,0,1.2,0,1.4,0c0.2,0,0.3-0.1,0.3-0.3v-3.9c-0.6,0.2-1.2,0.4-1.7,0.6l-0.3-1.1c0.6-0.1,1.2-0.3,2-0.6V447
		H463v-1h1.8v-3h1v3h1.6v1h-1.6v3l1.5-0.5L467.6,450.5z M472.6,455.3c0.4,0.1,0.9,0.1,1.4,0.1c0.4,0,2.4,0,2.9,0
		c-0.1,0.2-0.3,0.7-0.3,1h-2.6c-2.2,0-3.7-0.4-4.7-2.5c-0.4,1.1-1,2-1.8,2.7c-0.2-0.2-0.6-0.5-0.8-0.7c1.3-1.1,2-2.7,2.2-5l1,0.1
		c-0.1,0.6-0.2,1.1-0.3,1.6c0.4,1.3,1.1,2,2,2.3v-4.7h-3.7v-0.9h8.5v0.9h-3.8v1.8h3.1v0.9h-3.1V455.3z M475.6,448.3h-7v-4.9h7V448.3
		z M474.5,444.3h-4.9v1.2h4.9V444.3z M474.5,446.3h-4.9v1.2h4.9V446.3z"/>
	<path class="st1" d="M492.3,452v0.9h-6.2v3.7H485V453h-6.1V452h6.1v-1.2h1.1v1.2H492.3z M490.9,451.4c-1.2-0.5-2.9-0.9-4.9-1.4
		c-1.6,0.7-3.8,1-6.5,1.2c-0.1-0.3-0.3-0.7-0.4-1c2.1-0.1,3.7-0.3,5.1-0.6c-1-0.2-2.1-0.4-3.2-0.5c0.5-0.4,1-0.9,1.5-1.5h-3.4v-0.9
		h4.2c0.5-0.5,0.9-1.1,1.2-1.5l1.1,0.3c-0.3,0.4-0.6,0.8-0.9,1.2h3.7c0.2-0.3,0.3-0.7,0.5-1l1.1,0.3c-0.1,0.3-0.2,0.5-0.3,0.8h2.7
		v0.9H489c-0.5,0.7-1.1,1.3-1.8,1.7c1.8,0.4,3.5,0.8,4.7,1.3L490.9,451.4z M483.8,453.7c-0.9,1-2.4,2-3.7,2.5
		c-0.2-0.2-0.6-0.6-0.9-0.8c1.4-0.5,2.8-1.3,3.6-2.1L483.8,453.7z M480.4,446.2h-1v-2.1h5.8c-0.2-0.3-0.4-0.6-0.5-0.9l1.1-0.3
		c0.2,0.3,0.5,0.8,0.8,1.2h5.5v2.1h-1.1V445h-10.5V446.2z M483.7,447.6c-0.3,0.3-0.6,0.6-0.9,0.9c1,0.1,2,0.3,2.9,0.5
		c0.8-0.4,1.4-0.9,1.9-1.4H483.7z M488,453.2c1.3,0.6,3.1,1.6,4,2.3l-0.8,0.8c-0.8-0.7-2.5-1.8-3.9-2.4L488,453.2z"/>
	<path class="st1" d="M496.9,451.6c-0.3,1.4-0.9,2.7-1.5,3.6c-0.2-0.1-0.6-0.4-0.8-0.5c0.6-0.8,1.1-2.1,1.4-3.3L496.9,451.6z
		 M501.5,445.8h-6.8v-1h3.2c-0.2-0.5-0.4-1.1-0.7-1.6l1-0.2c0.3,0.6,0.6,1.3,0.8,1.9h2.5V445.8z M498.7,450.6v4.9
		c0,0.5-0.1,0.8-0.5,0.9c-0.3,0.2-0.8,0.2-1.6,0.2c0-0.3-0.2-0.7-0.3-0.9c0.5,0,1,0,1.2,0c0.2,0,0.2,0,0.2-0.2v-4.8h-2.2V447h5.4
		v3.6H498.7z M496.5,449.7h3.4v-1.8h-3.4V449.7z M500.4,454.2c-0.2-0.7-0.6-1.8-1.1-2.6l0.8-0.4c0.5,0.8,1,1.9,1.1,2.6L500.4,454.2z
		 M504.6,447.8c-0.3,3.4-1.1,6.7-3.4,8.8c-0.2-0.2-0.5-0.5-0.8-0.7c2.2-1.9,2.9-5,3.2-8.2h-1.9v-1h2c0.1-1.3,0.1-2.6,0.1-3.8h1
		c0,1.2,0,2.5-0.1,3.8h3.4v1H504.6z M506.7,455.4c0.2,0,0.4,0,0.4-0.1c0.1,0,0.2-0.2,0.2-0.4c0-0.3,0.1-0.9,0.1-1.6
		c0.2,0.2,0.6,0.4,0.9,0.5c0,0.7-0.1,1.5-0.2,1.8c-0.1,0.3-0.3,0.5-0.5,0.6c-0.2,0.1-0.6,0.2-0.9,0.2h-1c-0.3,0-0.7-0.1-0.9-0.3
		c-0.2-0.2-0.3-0.4-0.3-1.4V449h1v5.8c0,0.3,0,0.5,0.1,0.6c0.1,0,0.2,0.1,0.4,0.1H506.7z M506.8,446.3c-0.3-0.6-0.9-1.6-1.5-2.2
		l0.8-0.4c0.6,0.6,1.3,1.6,1.5,2.2L506.8,446.3z"/>
	<path class="st1" d="M517.9,443.3c-0.1,0.1-0.1,0.2-0.2,0.3c1.4,1.4,4,2.6,6.3,3.1c-0.2,0.2-0.5,0.6-0.7,0.9
		c-1.2-0.3-2.5-0.9-3.7-1.5v0.5h-5.2v-0.4c-1.2,0.6-2.4,1.1-3.7,1.5c-0.1-0.2-0.4-0.6-0.6-0.9c2.7-0.7,5.4-2,6.8-3.9L517.9,443.3z
		 M512,447.2h10v3.8h-10V447.2z M512.9,451.7h8.4v4.9h-1.1v-0.5H514v0.5h-1.1V451.7z M513,450.2h3.5V448H513V450.2z M514.7,448.2
		c0.4,0.5,0.8,1.2,0.9,1.7l-0.9,0.3c-0.1-0.5-0.5-1.2-0.8-1.8L514.7,448.2z M514,452.5v1h6.2v-1H514z M520.2,455.3v-1H514v1H520.2z
		 M519.1,445.7c-0.7-0.5-1.4-1-2-1.5c-0.6,0.6-1.2,1.1-1.9,1.5H519.1z M521.1,448h-3.6v2.2h3.6V448z M518.4,449.9
		c0.3-0.5,0.7-1.3,0.8-1.8l0.9,0.3c-0.3,0.6-0.7,1.3-1,1.8L518.4,449.9z"/>
	<path class="st1" d="M539.5,455.1v1H526v-1h2.1v-8.6h3.5c0.1-0.4,0.1-0.8,0.2-1.2h-5.4v-1h5.5c0.1-0.5,0.1-0.9,0.1-1.3l1.2,0.1
		l-0.2,1.2h5.9v1H533c-0.1,0.4-0.1,0.8-0.2,1.2h4.8v8.6H539.5z M529.2,447.4v1.3h7.2v-1.3H529.2z M536.4,449.5h-7.2v1.2h7.2V449.5z
		 M529.2,452.9h7.2v-1.3h-7.2V452.9z M529.2,455.1h7.2v-1.3h-7.2V455.1z"/>
	<path class="st1" d="M544.6,446h1.7v1h-1.7v2.9c0.5-0.2,1-0.3,1.4-0.5l0.2,1l-1.6,0.5v4.3c0,0.6-0.1,0.9-0.5,1.1
		c-0.4,0.2-0.9,0.2-1.8,0.2c0-0.3-0.2-0.7-0.3-1.1c0.6,0,1.2,0,1.4,0c0.2,0,0.3-0.1,0.3-0.3v-4c-0.7,0.2-1.3,0.4-1.8,0.6l-0.3-1.1
		c0.6-0.2,1.3-0.4,2.1-0.6V447h-1.9v-1h1.9v-3h1V446z M553.8,451.6c-0.3,1.1-0.9,2-1.6,2.7c1.1,0.5,2.2,1,2.9,1.5l-0.8,0.8
		c-0.7-0.5-1.8-1.1-3-1.6c-1.1,0.8-2.5,1.3-4.5,1.6c-0.1-0.3-0.3-0.7-0.5-1c1.6-0.2,2.9-0.6,3.9-1.2c-1-0.4-2-0.8-3-1.2
		c0.4-0.5,0.8-1.1,1.2-1.7h-2.1v-1h2.6c0.3-0.5,0.6-1,0.8-1.5l1,0.2c-0.2,0.4-0.4,0.9-0.6,1.3h2.7c0.1-0.3,0.1-0.6,0.2-0.9l1.1,0.2
		c0,0.2-0.1,0.5-0.1,0.7h1.3v1H553.8z M555.2,449h-8.7v-1h5c0.4-0.6,0.9-1.6,1.1-2.3l1.1,0.3c-0.3,0.7-0.8,1.4-1.1,2h2.5V449z
		 M554.9,445.5h-8v-1h3.7c-0.2-0.5-0.4-1-0.7-1.4l1.2-0.2c0.3,0.5,0.6,1.1,0.8,1.6h3V445.5z M549.1,447.9c-0.2-0.5-0.6-1.3-1.1-1.9
		l0.9-0.4c0.4,0.6,0.9,1.3,1.1,1.8L549.1,447.9z M549.6,451.6c-0.3,0.5-0.6,0.9-0.9,1.3c0.8,0.3,1.6,0.6,2.4,0.9
		c0.7-0.6,1.1-1.3,1.5-2.3H549.6z"/>
	<path class="st1" d="M557.3,456.2c0.5-0.6,0.9-1.7,1.1-2.5l0.8,0.3c-0.2,0.8-0.6,1.9-1.1,2.6L557.3,456.2z M560.5,451.2
		c0.3,0.6,0.6,1.5,0.7,2l-0.7,0.2c0-0.1-0.1-0.3-0.1-0.5c-2.1,0.2-2.4,0.3-2.7,0.4c0-0.2-0.2-0.6-0.3-0.9c0.2,0,0.5-0.3,0.8-0.6
		c0.2-0.2,0.5-0.6,0.9-1.1c-1,0.1-1.2,0.2-1.4,0.2c-0.1-0.2-0.2-0.6-0.3-0.8c0.2,0,0.3-0.2,0.4-0.4c0.1-0.2,0.6-1,0.9-1.7h-0.7v-4.4
		h6.3v4.4h-1.8l0.8,0.3c-0.3,0.6-0.7,1.2-1,1.7l1-0.1c0.2-0.3,0.4-0.6,0.5-0.8l0.9,0.4c-0.7,1-1.4,2-2.2,2.8l1.5-0.1
		c-0.1-0.3-0.2-0.5-0.3-0.7l0.7-0.3c0.4,0.7,0.8,1.5,0.9,2.1l-0.7,0.3c-0.1-0.2-0.1-0.4-0.2-0.7c-2.3,0.3-2.7,0.3-3,0.4v0
		c0-0.2-0.2-0.6-0.3-0.9c0.2,0,0.5-0.3,0.8-0.6c0.2-0.2,0.5-0.6,0.9-1.1c-1,0.1-1.2,0.2-1.4,0.2c0-0.2-0.2-0.6-0.3-0.9
		c0.2,0,0.3-0.2,0.5-0.4c0.1-0.2,0.7-0.9,0.9-1.7H559l0.7,0.2c-0.3,0.6-0.7,1.3-1,1.8l1-0.1c0.2-0.3,0.4-0.6,0.5-0.9l0.9,0.3
		c-0.7,1-1.4,2.1-2.2,2.9l1.3-0.1c-0.1-0.3-0.2-0.6-0.3-0.8L560.5,451.2z M559,445.5h4.3v-1.1H559V445.5z M559,447.3h4.3v-1.1H559
		V447.3z M560.6,453.8c0.2,0.8,0.3,1.8,0.3,2.4l-0.9,0.1c0-0.7-0.1-1.7-0.3-2.4L560.6,453.8z M562.1,453.7c0.3,0.7,0.6,1.6,0.7,2.2
		l-0.8,0.2c-0.1-0.6-0.4-1.5-0.7-2.2L562.1,453.7z M563.8,453.3c0.4,0.6,0.8,1.4,1,2l-0.8,0.3c-0.2-0.5-0.6-1.4-1-2L563.8,453.3z
		 M567.6,454.7c-0.7,0.7-1.7,1.5-2.6,2c-0.2-0.2-0.5-0.5-0.7-0.7c0.9-0.4,1.9-1.2,2.4-1.8L567.6,454.7z M567.1,446
		c0.1-0.4,0.1-0.9,0.2-1.4H565v-1h5.9v1h-2.5c-0.1,0.5-0.2,1-0.3,1.4h2.5v7.8h-5.2V446H567.1z M569.6,446.9h-3.3v1.4h3.3V446.9z
		 M569.6,449.2h-3.3v1.5h3.3V449.2z M569.6,451.5h-3.3v1.5h3.3V451.5z M569.3,454.2c0.7,0.6,1.5,1.3,1.9,1.9l-0.8,0.6
		c-0.4-0.5-1.2-1.4-1.9-1.9L569.3,454.2z"/>
	<path class="st1" d="M577.1,450.6c-0.7,1.8-1.8,3.6-3,4.8c-0.2-0.2-0.7-0.5-1-0.7c1.2-1.1,2.2-2.7,2.9-4.4L577.1,450.6z
		 M580.5,448.7v7.9h-1.2v-7.9h-5.9v-1.1h13.1v1.1H580.5z M585.2,445.1h-10.5V444h10.5V445.1z M584,450.2c1.1,1.4,2.3,3.3,2.7,4.5
		l-1.1,0.5c-0.4-1.2-1.5-3.2-2.6-4.6L584,450.2z"/>
	<path class="st1" d="M602.2,445.3v1.1H594c-0.5,1.1-1.1,2.1-1.8,3.1v7.2h-1.1v-5.9c-0.5,0.6-1.1,1.1-1.7,1.5
		c-0.1-0.3-0.4-0.8-0.6-1c1.7-1.2,3-3,4-4.9h-3.6v-1.1h4.1c0.3-0.8,0.6-1.6,0.8-2.3l1.1,0.3c-0.2,0.7-0.5,1.4-0.7,2H602.2z
		 M598.2,455.2h4v1h-9v-1h3.9V451h-3.4v-1h3.4v-2.9h1.1v2.9h3.4v1h-3.4V455.2z"/>
	<path class="st1" d="M609.1,450.5c-0.5,0.2-1.1,0.4-1.6,0.6v4.2c0,0.6-0.1,0.9-0.5,1.1c-0.3,0.2-0.9,0.2-1.9,0.2
		c0-0.3-0.2-0.7-0.3-1c0.6,0,1.2,0,1.4,0c0.2,0,0.3-0.1,0.3-0.3v-3.9c-0.6,0.2-1.2,0.4-1.7,0.6l-0.3-1.1c0.6-0.1,1.2-0.3,2-0.6V447
		h-1.8v-1h1.8v-3h1v3h1.6v1h-1.6v3l1.5-0.5L609.1,450.5z M614.1,455.3c0.4,0.1,0.9,0.1,1.4,0.1c0.4,0,2.4,0,2.9,0
		c-0.1,0.2-0.3,0.7-0.3,1h-2.6c-2.2,0-3.7-0.4-4.7-2.5c-0.4,1.1-1,2-1.8,2.7c-0.2-0.2-0.6-0.5-0.8-0.7c1.3-1.1,2-2.7,2.2-5l1,0.1
		c-0.1,0.6-0.2,1.1-0.3,1.6c0.4,1.3,1.1,2,2,2.3v-4.7h-3.7v-0.9h8.5v0.9h-3.8v1.8h3.1v0.9h-3.1V455.3z M617.1,448.3h-7v-4.9h7V448.3
		z M616,444.3h-5v1.2h5V444.3z M616,446.3h-5v1.2h5V446.3z"/>
	<path class="st1" d="M633.8,452v0.9h-6.2v3.7h-1.1V453h-6.1V452h6.1v-1.2h1.1v1.2H633.8z M632.4,451.4c-1.2-0.5-2.9-0.9-4.9-1.4
		c-1.6,0.7-3.7,1-6.5,1.2c-0.1-0.3-0.3-0.7-0.4-1c2.1-0.1,3.7-0.3,5.1-0.6c-1-0.2-2.1-0.4-3.2-0.5c0.5-0.4,1-0.9,1.5-1.5h-3.4v-0.9
		h4.2c0.5-0.5,0.9-1.1,1.2-1.5l1.1,0.3c-0.3,0.4-0.6,0.8-0.9,1.2h3.7c0.2-0.3,0.3-0.7,0.4-1l1.1,0.3c-0.1,0.3-0.2,0.5-0.3,0.8h2.7
		v0.9h-3.2c-0.5,0.7-1,1.3-1.8,1.7c1.8,0.4,3.5,0.8,4.7,1.3L632.4,451.4z M625.3,453.7c-0.9,1-2.4,2-3.8,2.5
		c-0.2-0.2-0.6-0.6-0.9-0.8c1.4-0.5,2.8-1.3,3.6-2.1L625.3,453.7z M621.9,446.2h-1v-2.1h5.8c-0.2-0.3-0.4-0.6-0.5-0.9l1.1-0.3
		c0.2,0.3,0.5,0.8,0.8,1.2h5.5v2.1h-1.1V445h-10.5V446.2z M625.3,447.6c-0.3,0.3-0.6,0.6-0.9,0.9c1,0.1,2,0.3,2.9,0.5
		c0.8-0.4,1.4-0.9,1.9-1.4H625.3z M629.6,453.2c1.4,0.6,3.1,1.6,4,2.3l-0.8,0.8c-0.8-0.7-2.5-1.8-3.9-2.4L629.6,453.2z"/>
	<path class="st1" d="M639.1,443h1v13.6h-1v-5.2h-1.2v0.4c0,1.3-0.2,3.4-1.1,4.8c-0.2-0.2-0.6-0.4-0.8-0.5c0.8-1.4,1-3.2,1-4.3v-0.4
		H636v-1h3.1v-1.9h-2.4v-4.8h0.9v3.8h1.4V443z M649.7,448.9v0.9h-9.1v-0.9h4v-3.8h-3.5v-0.9h3.5V443h1v1.3h3.7v0.9h-3.7v3.8H649.7z
		 M643.4,445.5c-0.1,0.4-0.2,0.8-0.3,1.2c0.5,0.4,1,0.9,1.2,1.2l-0.5,0.6c-0.2-0.3-0.6-0.8-1-1.1c-0.3,0.6-0.7,1-1.2,1.4
		c-0.1-0.2-0.5-0.5-0.7-0.6c0.9-0.6,1.4-1.6,1.7-2.8L643.4,445.5z M641.5,450.7h7.4v5.9h-1v-0.4h-5.4v0.5h-1V450.7z M642.5,451.5
		v3.9h5.4v-3.9H642.5z M646.9,454.6h-3.5v-2.4h3.5V454.6z M646.2,452.8h-2v1.1h2V452.8z M648.2,445.5c-0.1,0.4-0.2,0.8-0.3,1.1
		c0.6,0.5,1.3,1.1,1.7,1.6l-0.6,0.6c-0.3-0.4-0.9-1-1.5-1.4c-0.3,0.5-0.7,1-1.2,1.4c-0.1-0.2-0.5-0.5-0.6-0.6
		c0.9-0.6,1.4-1.5,1.6-2.7L648.2,445.5z"/>
	<path class="st1" d="M336.5,477.8v1.1h-13.4v-1.1h5.6v-11.6h1.2v4.6h5.6v1.1h-5.6v5.9H336.5z"/>
	<path class="st1" d="M339.2,475.9v1.5h-0.9v-10.3h3.4v8.8H339.2z M339.2,468v7h1.6v-7H339.2z M343.1,476.7c-0.2,1-0.6,2.1-0.9,2.9
		c-0.2-0.1-0.5-0.2-0.7-0.2c0.3-0.8,0.6-1.8,0.8-2.8L343.1,476.7z M345.4,473.8c0.3,0.8,0.6,1.8,0.8,2.4l-0.7,0.2
		c0-0.2-0.1-0.4-0.1-0.7c-2.3,0.3-2.7,0.4-2.9,0.5c0-0.2-0.1-0.6-0.3-0.8c0.3,0,0.5-0.3,0.9-0.7c0.2-0.2,0.6-0.7,1-1.3
		c-1.1,0.1-1.4,0.1-1.5,0.2c0-0.2-0.2-0.6-0.3-0.8c0.2,0,0.4-0.2,0.6-0.5c0.2-0.2,0.9-1.3,1.2-2.2l0.8,0.3c-0.4,0.8-0.9,1.6-1.4,2.3
		l1.1,0c0.3-0.5,0.6-0.9,0.8-1.4l0.8,0.4c-0.7,1.3-1.6,2.6-2.5,3.6l1.6-0.2c-0.1-0.4-0.2-0.8-0.4-1.1L345.4,473.8z M351.1,469.9
		h-8.5v-3.3h8.5V469.9z M345.2,467.5h-1.6v1.6h1.6V467.5z M344.3,476.6c0.1,0.8,0.2,1.9,0.3,2.6l-0.7,0.1c0-0.7-0.1-1.8-0.2-2.6
		L344.3,476.6z M345.4,476.4c0.3,0.8,0.5,1.7,0.7,2.3l-0.7,0.2c-0.1-0.6-0.4-1.6-0.6-2.4L345.4,476.4z M351.5,478.9h-4v0.8h-0.9
		v-5.9c-0.1,0.1-0.2,0.2-0.3,0.4c-0.2-0.1-0.5-0.4-0.8-0.5c0.8-0.9,1.4-2.3,1.8-3.6l0.9,0.2c-0.2,0.5-0.3,1-0.5,1.4h1.4
		c-0.1-0.4-0.3-1-0.5-1.4l0.8-0.2c0.2,0.5,0.5,1.1,0.6,1.6h1.4v0.9h-1.6v1.3h1.4v0.8h-1.4v1.3h1.4v0.8h-1.4v1.3h1.7V478.9z
		 M347.6,467.5H346v1.6h1.7V467.5z M349,472.5h-1.4v1.3h1.4V472.5z M349,474.6h-1.4v1.3h1.4V474.6z M347.6,478h1.4v-1.3h-1.4V478z
		 M350.1,467.5h-1.7v1.6h1.7V467.5z"/>
	<path class="st1" d="M359.2,467.3h1.2l2.3,6.5h-1.2l-1-3l-0.7-2.2h-0.1l-0.7,2.2l-1,3h-1.2L359.2,467.3z"/>
	<path class="st1" d="M364.3,479.7h6v0.9h-6V479.7z"/>
	<path class="st1" d="M374.2,467.3h1.2l2.3,6.5h-1.2l-1-3l-0.7-2.2h-0.1l-0.7,2.2l-1,3h-1.2L374.2,467.3z"/>
</g>
</svg>
