<?xml version="1.0" encoding="utf-8"?>
<!-- Generator: Adobe Illustrator 20.1.0, SVG Export Plug-In . SVG Version: 6.00 Build 0)  -->
<svg version="1.1" id="圖層_1" xmlns="http://www.w3.org/2000/svg" xmlns:xlink="http://www.w3.org/1999/xlink" x="0px" y="0px"
	 viewBox="0 0 1281.8 159.3" style="enable-background:new 0 0 1281.8 159.3;" xml:space="preserve">
<style type="text/css">
	.st0{fill:none;stroke:#004864;stroke-width:9;stroke-linecap:round;stroke-linejoin:round;}
	.st1{fill:none;stroke:#004864;stroke-width:9;stroke-linecap:round;stroke-miterlimit:10;}
	.st2{fill:#FFCD32;}
	.st3{fill:#E0E0E0;}
	.st4{font-family:'NotoSansCJKtc-Bold-B5pc-H';}
	.st5{font-size:12px;}
	.st6{letter-spacing:2;}
	.st7{fill:#00364B;}
	.st8{fill:#BEBEBE;}
	.st9{font-family:'HelveticaNeue';}
	.st10{font-size:13px;}
	.st11{letter-spacing:-1;}
	.st12{fill:none;stroke:#E0E0E0;stroke-width:0.77;stroke-linecap:round;stroke-linejoin:round;}
	.st13{font-family:'HelveticaNeue-Bold';}
	.st14{font-size:11px;}
	.st15{font-family:'NotoSansCJKtc-Regular-B5pc-H';}
	.st16{letter-spacing:1;}
	.st17{font-size:11.0049px;}
</style>
<title>資產 1</title>
<g id="圖層_2">
	<g id="全域底色">
		<polyline class="st0" points="707,98.9 707,34.9 731.6,4.5 		"/>
		<line class="st1" x1="707" y1="34.9" x2="682.1" y2="10.1"/>
		<polyline class="st0" points="1004.8,152.1 1004.8,88.2 1029.4,57.8 		"/>
		<line class="st1" x1="1004.8" y1="88.2" x2="979.9" y2="63.3"/>
		<line class="st1" x1="1004.8" y1="90" x2="1004.8" y2="18"/>
		<path class="st2" d="M853.2,26.8l39.4,67.4c6,10.2,2.5,23.4-7.7,29.4c-3.3,1.9-7,2.9-10.9,2.9h-81.7c-11.9,0-21.5-9.6-21.5-21.5
			c0-4,1.1-8,3.3-11.4l42.4-67.4c6.3-10,19.6-13.1,29.6-6.8C849,21.3,851.5,23.8,853.2,26.8z"/>
		<line class="st1" x1="833.2" y1="110.1" x2="808.3" y2="85.3"/>
		<line class="st1" x1="833.2" y1="112" x2="833.2" y2="40"/>
		<line class="st1" x1="1136.8" y1="152.3" x2="1111.9" y2="127.5"/>
		<line class="st1" x1="1136.8" y1="154.1" x2="1136.8" y2="82.2"/>
		<text transform="matrix(1 0 0 1 41.81 33.84)" class="st3 st4 st5 st6">主辦</text>
		<rect y="0.8" class="st7" width="1281.8" height="158.6"/>
		<text transform="matrix(1 0 0 1 41.81 34.23)" class="st3 st4 st5 st6">主辦</text>
		<text transform="matrix(1 0 0 1 232.48 34.23)" class="st3 st4 st5 st6">承辦</text>
		<path class="st3" d="M234.1,57.9h17c10.8,0,18.3,7.5,18.3,17.2v0.1c0,9.7-7.5,17.2-18.3,17.2h-17L234.1,57.9L234.1,57.9z"/>
		<path class="st3" d="M345.6,74.4c-0.6,0.3-1.3,0.5-2,0.5c-2.5,0-4-1.5-4-4.2c-0.2-2.2,1.5-4.2,3.8-4.4c0.2,0,0.4,0,0.6,0
			c2.6,0,4.2,1.4,4.2,4.1c0,1.7-1,2.6-2.2,2.6c-0.6,0-1.1-0.2-1.4-0.7c-0.4,0.4-0.9,0.6-1.4,0.7c-0.7,0.1-1.3-0.5-1.3-1.1
			c0-0.1,0-0.1,0-0.2c0-0.9,0.7-1.4,2-1.4h0.5v-0.4c0-0.3-0.2-0.6-0.5-0.6c0,0,0,0,0,0h-0.2c-0.4,0-0.9,0.1-1.3,0.2l-0.2-0.9
			c0.6-0.2,1.2-0.3,1.8-0.3c1.2,0,1.7,0.4,1.7,1.5v1.9c0,0.2,0.1,0.4,0.3,0.4c0,0,0,0,0,0h0.1c0.5,0,0.8-0.5,0.8-1.6
			c0.2-1.5-0.9-2.8-2.4-3c-0.2,0-0.4,0-0.6,0c-1.9,0-3,1.2-3,3.2s0.9,3.1,2.8,3.1c0.5,0,1-0.1,1.5-0.3L345.6,74.4z M344,71
			c-0.6,0-0.8,0.2-0.8,0.5c0,0.2,0.2,0.4,0.4,0.4h0c0.3,0,0.6-0.2,0.8-0.4V71H344z"/>
		<path class="st3" d="M349.7,65.7h1.9l4.3,5.6v-5.6h2v9.1h-1.7l-4.4-5.8v5.8h-2L349.7,65.7L349.7,65.7z"/>
		<path class="st3" d="M361.5,67.5h-2.8v-1.8h7.6v1.9h-2.8v7.3h-2L361.5,67.5L361.5,67.5z"/>
		<path class="st3" d="M367.1,70.9v-5.2h2v5.2c0,1.5,0.7,2.3,2,2.3c1,0.1,1.9-0.7,2-1.8c0-0.1,0-0.3,0-0.4v-5.2h2v5.1
			c0,2.8-1.6,4.1-4,4.1S367.1,73.6,367.1,70.9z"/>
		<path class="st3" d="M278.7,64.9h3.9c2.8-0.2,5.1,1.9,5.3,4.7c0,0.1,0,0.2,0,0.3l0,0c0,2.8-2.2,5-5,5h-4.2L278.7,64.9z
			 M280.9,66.9v6h1.7c1.6,0.1,2.9-1.1,3-2.7c0-0.1,0-0.2,0-0.3l0,0c0.1-1.6-1.1-2.9-2.7-3H280.9L280.9,66.9z"/>
		<path class="st3" d="M288.7,69.4h4.4v2.1h-4.4V69.4z"/>
		<path class="st3" d="M293.6,73.4l1.3-1.6c0.8,0.8,1.9,1.2,3,1.2c0.9,0,1.4-0.4,1.4-0.9l0,0c0-0.6-0.3-0.8-2-1.3
			c-2-0.5-3.3-1.1-3.3-3.1l0,0c0-1.8,1.5-3,3.5-3c1.3,0,2.7,0.4,3.7,1.2l-1.1,1.7c-0.7-0.6-1.7-0.9-2.6-1c-0.5-0.2-1.1,0.2-1.2,0.7
			c0,0,0,0.1,0,0.1v0.1l0,0c0,0.7,0.4,0.9,2.2,1.3c2,0.5,3.2,1.3,3.2,3l0,0c0,2-1.5,3.1-3.7,3.1C296.3,75,294.8,74.4,293.6,73.4z"/>
		<path class="st3" d="M302.1,71.1L302.1,71.1c0-2.2,1.7-4,3.9-4c0,0,0,0,0,0h0.1c1.1-0.1,2.2,0.4,3,1.3l-1.3,1.4
			c-0.4-0.5-1.1-0.8-1.7-0.8c-1.1,0.1-1.9,1-1.8,2.1l0,0c-0.1,1.1,0.8,2,1.9,2.1c0,0,0,0,0,0h0c0.7,0,1.3-0.3,1.8-0.8l1.3,1.3
			c-0.8,0.9-1.9,1.4-3.1,1.4C303.9,75,302.1,73.3,302.1,71.1C302.1,71.2,302.1,71.1,302.1,71.1L302.1,71.1z"/>
		<path class="st3" d="M309.9,64.5h2.2v3.9c0.5-0.8,1.3-1.2,2.2-1.2c1.6,0,2.6,1.1,2.6,2.8v5h-2.2v-4.3c0.1-0.7-0.3-1.4-1-1.5
			c-0.1,0-0.2,0-0.3,0c-0.7,0-1.4,0.5-1.4,1.3c0,0.1,0,0.2,0,0.3v4.3h-2.2V64.5z"/>
		<path class="st3" d="M317.7,71.1L317.7,71.1c0-2.3,1.9-4.1,4.1-4.1c2.3,0,4.1,1.9,4.1,4.1l0,0c0,2.2-1.8,4-4,4h-0.2
			c-2.2,0.1-4.1-1.7-4.1-3.9c0,0,0,0,0,0C317.7,71.2,317.7,71.1,317.7,71.1z M323.9,71.1L323.9,71.1c0.1-1.1-0.8-2-1.9-2.1h-0.1
			c-1.1,0-2,0.9-2,2c0,0,0,0.1,0,0.1l0,0c-0.1,1.1,0.8,2,1.9,2.1c0,0,0,0,0,0h0.1C323,73.2,323.9,72.3,323.9,71.1
			C323.9,71.2,323.9,71.1,323.9,71.1L323.9,71.1z"/>
		<path class="st3" d="M326.5,71.1L326.5,71.1c0-2.2,1.8-4,4-4h0.2c2.2-0.1,4.1,1.7,4.1,3.9c0,0,0,0,0,0c0,0,0,0.1,0,0.1l0,0
			c0,2.3-1.9,4.1-4.1,4.1C328.3,75.3,326.5,73.4,326.5,71.1L326.5,71.1z M332.6,71.1L332.6,71.1c0.1-1.1-0.8-2-1.9-2.1h-0.1
			c-1.1,0-2,0.9-2,2c0,0,0,0.1,0,0.1l0,0c-0.1,1.1,0.8,2,1.9,2.1c0,0,0,0,0,0h0.1C331.7,73.2,332.6,72.3,332.6,71.1
			C332.6,71.2,332.6,71.1,332.6,71.1z"/>
		<path class="st3" d="M335.7,64.5h2.2v10.4h-2.2V64.5z"/>
		<path class="st3" d="M279,83v4.4h1.2v-0.4h4.1v0.4h1.3V83H279z M284.3,85.8h-4.1v-1.7h4.1V85.8z"/>
		<path class="st3" d="M320.4,79.6v0.9h-3.9v-0.9H320.4z M324.7,82.2l0.8,0.3c-0.4,1-0.9,2-1.6,2.9c0.6,0.4,1.3,0.7,2.1,0.9
			c-0.3,0.3-0.6,0.6-0.8,1c-0.8-0.2-1.5-0.6-2.2-1.1c-0.7,0.5-1.5,0.9-2.3,1.1c-0.2-0.4-0.4-0.7-0.6-1v0.5h-2.1v0.4h-1v-3.4h3.1v2.5
			c0.7-0.2,1.4-0.5,2-0.9c-0.5-0.5-0.9-1.1-1.2-1.8l1-0.3h-1.4v-1.1h0.4c-0.3-0.3-0.5-0.5-0.8-0.7v0.4h-3.1V81h3.1v0.5
			c0.7-0.5,1.1-1.2,1-2.1v-1.2h3.4v2.2c0,0.1,0,0.2,0,0.3h0.4c0.2-0.3,0.2-0.7,0.2-1c0.3,0.2,0.6,0.4,1,0.4c-0.1,1.2-0.4,1.6-1,1.6
			h-0.6c-0.8,0-1-0.3-1-1.3v-1.2h-1.1c0.1,1.1-0.3,2.3-1.2,3L324.7,82.2L324.7,82.2z M320,82.4v0.9h-3.1v-0.9H320L320,82.4z
			 M320,78.2v0.9h-3v-0.9L320,78.2L320,78.2z M319,85.8v-1.2h-1.1v1.2L319,85.8L319,85.8z M322,83.3c0.3,0.5,0.6,1,1,1.4
			c0.4-0.4,0.7-0.9,1-1.4H322z"/>
		<path class="st3" d="M330.4,79.6v0.9h-4.1v-0.9H330.4z M330,83.8v3h-2.2v0.4h-1v-3.4H330z M326.8,81.9V81h3.2v0.9L326.8,81.9
			L326.8,81.9z M326.8,83.3v-0.9h3.2v0.9H326.8z M330,78.3v0.9h-3.2v-1L330,78.3L330,78.3z M328.9,84.7h-1.1v1.2h1.1
			C328.9,85.9,328.9,84.7,328.9,84.7z M335.8,81.3v1.2h-2.1v4.8h-1.2v-4.9h-2.1v-1.2h2.1V78h1.2v3.3L335.8,81.3L335.8,81.3z"/>
		<path class="st3" d="M339.5,79.2c0.2,0.2,0.4,0.3,0.6,0.5c0.3-0.1,0.5-0.3,0.8-0.5c0.2,0.1,0.3,0.3,0.5,0.4l0.6-0.5
			c-0.1-0.1-0.3-0.3-0.5-0.4c0.2-0.2,0.3-0.3,0.5-0.5l-0.8-0.3c-0.1,0.1-0.2,0.3-0.4,0.4c-0.2-0.1-0.4-0.2-0.6-0.3l-0.5,0.5
			c0.2,0.1,0.4,0.2,0.5,0.3C340,79,339.8,79.1,339.5,79.2z"/>
		<path class="st3" d="M344.5,81.5c0.1-0.9,0.2-2.2,0.2-3.3h-2.5V79h1.4v0.3h-1.3v0.8h1.3v0.3h-1.3v0.7h1.2v0.3h-5v-0.3h1.2v-0.1
			c0.2,0.1,0.3,0.3,0.5,0.4c0.3-0.1,0.6-0.3,0.9-0.5c0.2,0.1,0.4,0.3,0.5,0.4l0.6-0.5c-0.2-0.1-0.3-0.3-0.5-0.4
			c0.2-0.2,0.4-0.4,0.5-0.6l-0.8-0.3c-0.1,0.1-0.2,0.3-0.4,0.4c-0.2-0.1-0.4-0.2-0.6-0.3l-0.5,0.5c0.2,0.1,0.4,0.2,0.5,0.3
			c-0.2,0.2-0.5,0.3-0.7,0.4v-0.5h-1.3v-0.3h1.3v-0.7h-1.3v-0.2c0.6-0.1,1.5-0.4,1.5-0.4l-0.6-0.7c-0.3,0.2-2,0.7-2,0.7l0.2,2.8
			h-0.8v2.1h1.1v-1.2h6.3v1.2h1.2v-2.1H344.5L344.5,81.5z"/>
		<path class="st3" d="M345.2,85.5h-3.7v0.7c0.1,0.4-0.1,0.8-0.5,0.9c-0.6,0.1-1.1,0.2-1.7,0.2c-0.1-0.3-0.2-0.7-0.4-1h1.2
			c0.1,0,0.2-0.1,0.2-0.2v-0.7h-3.9v-0.9h3.9v-0.3c0.4-0.2,0.8-0.4,1.1-0.6h-3.2v-0.8h4.3l0.2-0.1l0.7,0.6c-0.6,0.4-1.2,0.8-1.9,1.1
			h3.6L345.2,85.5L345.2,85.5z"/>
		<path class="st3" d="M353.7,85.8c0,0.3,0,0.3,0.2,0.3h0.3c0.2-0.3,0.3-0.7,0.2-1.1c0.3,0.2,0.6,0.4,1,0.4
			c-0.1,1.4-0.4,1.7-1.1,1.7h-0.7c-0.9,0-1.1-0.3-1.1-1.4v-2h-0.8c-0.1,1.7-0.5,2.9-2.5,3.6c-0.2-0.4-0.4-0.7-0.6-0.9
			c1.3-0.2,2.1-1.4,2-2.6h-1.1v-1.1h5.6v1.1h-1.5V85.8z M349.6,79.2h2.1v-1.2h1.1v1.2h2.2v2.1h-0.8V82h-4v-0.8h-0.8V79.2z M354,81
			v-0.8h-3.4V81H354z M349.5,78.8c-0.3,0.8-0.6,1.9-0.9,2.7c0.5,0.6,0.7,1.3,0.7,2.1c0.1,0.5-0.1,0.9-0.4,1.3
			c-0.2,0.1-0.4,0.2-0.6,0.2c-0.2,0-0.4,0-0.6,0c0-0.3-0.1-0.7-0.3-1h0.5c0.1,0,0.2,0,0.3-0.1c0.1-0.2,0.2-0.4,0.2-0.6
			c0-0.7-0.2-1.3-0.7-1.8c0.2-0.6,0.4-1.5,0.6-2.1h-0.8v7.9h-1v-9h2.4L349.5,78.8z"/>
		<path class="st3" d="M284,78.9c1,0.9,1.9,1.9,2.6,2.9l-1,0.7c-0.2-0.3-0.3-0.5-0.5-0.8c-5.3,0.3-6,0.3-6.5,0.5
			c-0.1-0.4-0.2-0.8-0.4-1.1c0.3-0.1,0.6-0.3,0.8-0.6c0.8-0.8,1.5-1.7,2.1-2.7l1.2,0.5c-0.6,0.9-1.4,1.8-2.2,2.5l4.1-0.1
			c-0.4-0.4-0.8-0.9-1.1-1.2L284,78.9z"/>
		<path class="st3" d="M292.5,81.8h3.5v-1.2h-3.9c0.1-0.8,0.1-2.6,0.1-2.6l-1.3-0.1c0,0.9,0,1.8-0.1,2.7h-3.7v1.2h3.5
			c-0.3,2-1.7,3.7-3.6,4.4c0.4,0.3,0.6,0.6,0.9,1c1.8-0.7,3.2-2.2,3.8-4.1c0.6,1.8,2,3.3,3.8,4c0.2-0.4,0.5-0.8,0.9-1.1
			C294.4,85.4,292.9,83.8,292.5,81.8z"/>
		<path class="st3" d="M301,80.7v-0.5c0.2,0.2,0.4,0.4,0.6,0.6l0.6-0.9c-0.6-0.5-1.3-1-2.1-1.4l0.1-0.2l-1.1-0.2
			c-0.6,1.1-1.5,2-2.5,2.6c0.3,0.3,0.5,0.6,0.6,0.9l0.4-0.3v1.3c0.1,1.4-0.3,2.7-1,3.9c0.3,0.2,0.6,0.4,0.8,0.7
			c0.3-0.5,0.6-1,0.8-1.5v1.7h1V87h1.7v0.3h1v-2.7h-3.5l0.1-0.4h3.2V81h-4c0.3-0.2,0.6-0.5,0.9-0.8v0.4L301,80.7z M299.2,85.4h1.7
			v0.7h-1.7V85.4z M298.7,81.9h2.1v0.4h-2.1V81.9z M298.7,83h2.1v0.4h-2.1C298.6,83.2,298.6,83.1,298.7,83L298.7,83z M299.7,79.2
			c0.3,0.2,0.7,0.4,1,0.7h-1.6C299.3,79.7,299.5,79.4,299.7,79.2L299.7,79.2z"/>
		<rect x="302.4" y="79.1" class="st3" width="1.1" height="5.7"/>
		<path class="st3" d="M305.8,78.1h-1.2v7.7c0,0.1,0,0.2-0.1,0.2c0,0,0,0,0,0H303c0.2,0.4,0.3,0.8,0.4,1.2c2,0,2.4-0.3,2.4-1.4
			L305.8,78.1L305.8,78.1z"/>
		<path class="st3" d="M312.9,79.9c1-0.3,2-0.7,3-1.2l-1.1-0.8c-1,0.5-2,0.9-3,1.2v3.1c0.1,1.5-0.3,3-1.3,4.2
			c0.3,0.2,0.6,0.5,0.9,0.8c1.3-1.4,1.6-3.6,1.6-5h1v5h1.1v-5h1v-1.1h-3.1L312.9,79.9L312.9,79.9z"/>
		<path class="st3" d="M311.5,82.2v-1h-1.1c0.2-0.4,0.4-0.8,0.5-1.2l-0.6-0.2h1v-1h-1.6v-1h-1.1v1h-1.6v1h1.1l-0.7,0.2
			c0.2,0.4,0.3,0.7,0.4,1.1h-1v1h1.9V83h-1.7v1h1.5c-0.5,0.7-1.1,1.4-1.8,1.9c0.3,0.3,0.6,0.5,0.8,0.8c0.5-0.4,0.9-0.8,1.2-1.3v1.9
			h1.1v-2.1c0.3,0.3,0.6,0.6,0.8,0.8l0.7-0.9c-0.5-0.4-1-0.7-1.5-1V84h1.7v-1h-1.7v-0.7L311.5,82.2L311.5,82.2z M309.3,81.2h-1.1
			l0.4-0.1c-0.1-0.4-0.2-0.8-0.4-1.2h1.6C309.6,80.4,309.5,80.8,309.3,81.2L309.3,81.2z"/>
		<text transform="matrix(1 0 0 1 418.6 34.23)" class="st3 st4 st5 st6">協辦</text>
		<text transform="matrix(1 0 0 1 813.7 34.23)" class="st3 st4 st5 st6">聯絡我們</text>
		<path class="st3" d="M456.6,50.1c-0.4-0.4-0.9-0.5-1.4-0.3l-22.6,9.7l-7.5-3.2c-0.5-0.2-1.1-0.1-1.4,0.3c-2.2,2.4-2.2,6.1,0,8.5
			c0.4,0.4,0.9,0.5,1.4,0.3l7.5-3.2l22.5,9.7c0.1,0,0.2,0.1,0.3,0.1c0.4,0,0.8-0.1,1.1-0.4C462.1,65.5,462.1,56.3,456.6,50.1z
			 M425.1,62.7c-0.6-1.2-0.6-2.6,0-3.8l4.4,1.9L425.1,62.7z M455.4,69.2l-19.5-8.4l19.6-8.4C459.2,57.4,459.2,64.3,455.4,69.2
			L455.4,69.2z"/>
		<path class="st3" d="M475.8,56.6v10.9h-2.6V56.6h-3.4v-2.3h9.5v2.3H475.8z"/>
		<path class="st3" d="M481.3,67.5V54.3h8.7v2.3h-6.1v3.1h5.2V62h-5.2v3.2h6.1v2.3L481.3,67.5L481.3,67.5z"/>
		<path class="st3" d="M497.3,67.6c-1.3,0-2.6-0.5-3.6-1.5c-0.6-0.5-0.9-1.2-1.1-2c-0.2-1.1-0.2-2.2-0.2-3.3c0-1.1,0.1-2.2,0.2-3.3
			c0.1-0.8,0.5-1.5,1.1-2c0.9-1,2.2-1.5,3.6-1.5c2.5-0.1,4.6,1.7,4.9,4.2h-2.6c-0.1-1.1-1.1-1.9-2.2-1.9c-0.6,0-1.2,0.2-1.7,0.7
			c-0.5,0.6-0.7,1.2-0.7,3.8s0.1,3.2,0.7,3.8c0.4,0.5,1,0.7,1.7,0.7c1.1,0,2.1-0.8,2.2-1.9h2.6C501.9,65.9,499.8,67.7,497.3,67.6z"
			/>
		<path class="st3" d="M471,73.9c-0.1,0-0.2,0.1-0.2,0.2v0.7c0,0.1,0.1,0.2,0.2,0.2c0,0,0,0,0,0h3.5c0.1,0,0.2-0.1,0.2-0.2v-0.7
			c0-0.1,0-0.2-0.1-0.2L471,73.9L471,73.9z M474.3,74.6h-3.1v-0.3h3.1V74.6L474.3,74.6z"/>
		<path class="st3" d="M475.5,75.2h-5.6c-0.1,0-0.2,0.1-0.2,0.2v0.9h0.5v-0.7h5.1v0.7h0.5v-1C475.8,75.4,475.7,75.3,475.5,75.2z"/>
		<polygon class="st3" points="472.5,73.2 470.5,73.2 470.5,73.7 474.9,73.7 474.9,73.2 473,73.2 473,73 475.2,73 475.2,72.5 
			473,72.5 473,72.3 472.5,72.3 472.5,72.5 470.2,72.5 470.2,73 472.5,73 		"/>
		<path class="st3" d="M473,77.8h2v-0.4h-2.1v-0.2h1.4l0.1,0.1l0.3-0.3l-0.5-0.6h0.5v-0.4h-4.1v0.4h0.8l-0.5,0.4
			c-0.1,0.1-0.1,0.2,0,0.3c0,0,0.1,0.1,0.1,0.1h1.3v0.2h-2v0.4h2V78h-2.6v0.5h5.5V78h-2.5L473,77.8L473,77.8z M472.2,76.4h1.5
			l0.3,0.3h-2.2L472.2,76.4z"/>
		<path class="st3" d="M482.8,77.8c-1.7-0.9-2.5-2-2.6-3.4h2.7v-0.6h-2.7v-1.6h-0.6v1.6H477v0.6h2.7c0,1.1-0.2,2.2-2.5,3.4L477,78
			l0.3,0.5l0.2-0.1c1.1-0.5,2-1.4,2.5-2.5c0.5,1.1,1.4,2,2.5,2.5l0.2,0.1l0.3-0.5L482.8,77.8z"/>
		<path class="st3" d="M486.1,72.2l-1.8,1.4l0.3,0.4l1.6-1.3l1.6,1.2l0.3-0.4l-1.7-1.4C486.3,72.1,486.2,72.1,486.1,72.2z"/>
		
			<rect x="486.1" y="73" transform="matrix(1.396295e-03 -1 1 1.396295e-03 411.992 559.8944)" class="st3" width="0.5" height="1.3"/>
		<path class="st3" d="M487.6,74.1H485c-0.1,0-0.3,0.1-0.3,0.3c0,0,0,0,0,0l0,0V76c0,0.6-0.1,1.2-0.3,1.8l-0.1,0.2l0.5,0.3l0.1-0.2
			c0.3-0.6,0.4-1.2,0.4-1.8h2.3c0.1,0,0.3-0.1,0.3-0.3c0,0,0,0,0,0l0,0v-1.7C487.8,74.2,487.7,74.1,487.6,74.1z M487.3,74.6v0.3h-2
			v-0.3H487.3z M485.3,75.7v-0.3h2v0.4L485.3,75.7L485.3,75.7z"/>
		
			<rect x="487" y="74.9" transform="matrix(1.396295e-03 -1 1 1.396295e-03 413.1049 564.0231)" class="st3" width="3.9" height="0.5"/>
		<path class="st3" d="M489.8,72.3v5c0,0.3-0.3,0.6-0.6,0.6c0,0,0,0,0,0h-0.3v0.5h0.3c0.6,0,1.2-0.5,1.2-1.1c0,0,0,0,0,0
			c0,0,0,0,0-0.1v-5L489.8,72.3z"/>
		<path class="st3" d="M487.6,76.6h-1.9c-0.1,0-0.3,0.1-0.3,0.3c0,0,0,0,0,0l0,0v1.4c0,0.1,0.1,0.3,0.3,0.3l0,0h1.9
			c0.1,0,0.3-0.1,0.3-0.3c0,0,0,0,0,0l0,0v-1.5C487.8,76.6,487.7,76.6,487.6,76.6z M487.3,78H486v-0.9h1.3L487.3,78L487.3,78z"/>
		<path class="st3" d="M493.5,72.2l-1.8,1.4l0.3,0.4l1.6-1.3l1.6,1.2l0.3-0.4l-1.7-1.4C493.7,72.1,493.6,72.1,493.5,72.2z"/>
		
			<rect x="493.5" y="73" transform="matrix(1.396295e-03 -1 1 1.396295e-03 419.3519 567.2848)" class="st3" width="0.5" height="1.3"/>
		<path class="st3" d="M495,74.1h-2.6c-0.1,0-0.3,0.1-0.3,0.3c0,0,0,0,0,0l0,0V76c0,0.6-0.1,1.2-0.3,1.8l-0.1,0.2l0.5,0.3l0.1-0.2
			c0.3-0.6,0.4-1.2,0.4-1.8h2.3c0.1,0,0.3-0.1,0.3-0.3c0,0,0,0,0,0l0,0v-1.6C495.3,74.2,495.1,74.1,495,74.1L495,74.1z M494.7,74.6
			v0.3h-2v-0.3H494.7z M492.7,75.7v-0.3h2v0.3L492.7,75.7L492.7,75.7z"/>
		
			<rect x="494.4" y="74.9" transform="matrix(1.396295e-03 -1 1 1.396295e-03 420.4749 571.4034)" class="st3" width="3.9" height="0.5"/>
		<path class="st3" d="M497.1,72.3v5c0,0.3-0.3,0.6-0.6,0.6c0,0,0,0,0,0h-0.3v0.5h0.3c0.6,0,1.2-0.5,1.2-1.1c0,0,0,0,0,0
			c0,0,0,0,0-0.1v-5L497.1,72.3z"/>
		<path class="st3" d="M495,76.6h-1.9c-0.1,0-0.3,0.1-0.3,0.3c0,0,0,0,0,0l0,0v1.4c0,0.1,0.1,0.3,0.3,0.3l0,0h1.9
			c0.1,0,0.3-0.1,0.3-0.3c0,0,0,0,0,0l0,0v-1.4C495.3,76.7,495.1,76.6,495,76.6L495,76.6z M494.7,78h-1.3v-0.9h1.3V78z"/>
		<path class="st3" d="M471.3,81.8v3.5h-0.6v-3.5h-1.1v-0.6h2.8v0.6H471.3L471.3,81.8z"/>
		<path class="st3" d="M474.3,85.2V85c-0.4,0.4-1.1,0.4-1.5,0c-0.2-0.2-0.2-0.4-0.2-0.6c0-0.5,0.4-0.8,0.9-0.8c0,0,0,0,0,0h0.9v-0.2
			c0-0.3-0.2-0.5-0.5-0.6h-0.2c-0.2,0-0.5,0.1-0.6,0.3l-0.4-0.3c0.2-0.3,0.6-0.4,1-0.4c0.5-0.1,1.1,0.2,1.2,0.8c0,0.1,0,0.1,0,0.2
			v1.9L474.3,85.2L474.3,85.2z M474.3,84h-0.7c-0.2,0-0.4,0.1-0.5,0.3c0,0.2,0.1,0.4,0.3,0.5h0.1c0.2,0,0.4,0,0.5-0.2
			c0.1-0.1,0.1-0.3,0.1-0.4L474.3,84L474.3,84z"/>
		<path class="st3" d="M475.7,81.8v-0.6h0.6v0.6H475.7z M475.7,85.2v-2.9h0.6v2.9L475.7,85.2L475.7,85.2z"/>
		<path class="st3" d="M479,85.2v-0.3c-0.2,0.2-0.5,0.4-0.8,0.3c-0.3,0-0.5-0.1-0.7-0.3c-0.4-0.8-0.4-1.7,0-2.4
			c0.2-0.2,0.4-0.3,0.7-0.3c0.3,0,0.6,0.1,0.8,0.3v-1.5h0.6v4.1H479z M478.4,82.8c-0.5,0-0.6,0.4-0.6,1s0.1,1,0.6,1s0.6-0.4,0.6-1
			S478.9,82.8,478.4,82.8L478.4,82.8z"/>
		<path class="st3" d="M482.1,85.2V85c-0.4,0.4-1.1,0.4-1.5,0c-0.2-0.2-0.2-0.4-0.2-0.6c0-0.5,0.4-0.8,0.9-0.8c0,0,0,0,0,0h0.8v-0.2
			c0-0.3-0.2-0.5-0.5-0.6h-0.2c-0.2,0-0.5,0.1-0.6,0.3l-0.3-0.3c0.2-0.3,0.6-0.4,1-0.4c0.5-0.1,1.1,0.2,1.2,0.8c0,0.1,0,0.1,0,0.2
			v1.9L482.1,85.2L482.1,85.2z M482.1,84h-0.7c-0.2,0-0.4,0.1-0.5,0.3c0,0.2,0.1,0.4,0.3,0.5l0,0h0.1c0.2,0,0.4,0,0.5-0.2
			c0.1-0.1,0.1-0.3,0.1-0.4L482.1,84L482.1,84z"/>
		<path class="st3" d="M485.3,85.2v-1.8c0-0.3-0.2-0.6-0.5-0.6l0,0h-0.1c-0.3,0-0.6,0.2-0.6,0.5c0,0,0,0.1,0,0.1v1.8h-0.6v-4.1h0.6
			v1.5c0.4-0.4,1-0.5,1.4-0.1c0.2,0.2,0.3,0.5,0.3,0.8c0,0,0,0,0,0.1v1.9H485.3z"/>
		<path class="st3" d="M470,90.9v-4h2.6v0.6h-2v1.2h1.7v0.6h-1.7v1.2h2v0.6L470,90.9z"/>
		<path class="st3" d="M474.9,90.9v-1.8c0-0.3-0.2-0.6-0.5-0.6h-0.1c-0.3,0-0.6,0.2-0.6,0.6c0,0,0,0.1,0,0.1v1.8h-0.6V88h0.6v0.3
			c0.4-0.4,1-0.4,1.5-0.1c0.2,0.2,0.3,0.5,0.3,0.8v1.8L474.9,90.9z"/>
		<path class="st3" d="M477.2,90.9c-0.4,0-0.8-0.3-0.8-0.7c0,0,0-0.1,0-0.1v-1.6h-0.3v-0.4h0.3v-0.9h0.6v0.9h0.6v0.4H477v1.6
			c0,0.2,0.1,0.3,0.2,0.3c0,0,0,0,0,0h0.3v0.5L477.2,90.9L477.2,90.9z"/>
		<path class="st3" d="M479.9,88.8c-0.1-0.1-0.3-0.2-0.4-0.2c-0.3,0-0.6,0.3-0.6,0.6c0,0,0,0,0,0c0,0,0,0,0,0.1V91h-0.6v-3h0.6v0.3
			c0.2-0.2,0.5-0.4,0.8-0.3c0.3,0,0.5,0.1,0.7,0.3L479.9,88.8z"/>
		<path class="st3" d="M480.9,89.7c-0.1,0.4,0.2,0.7,0.6,0.8h0.1c0.3,0,0.5-0.1,0.7-0.3l0.4,0.3c-0.3,0.3-0.7,0.5-1.1,0.4
			c-0.8-0.1-1.4-0.9-1.3-1.7c0.1-0.6,0.5-1,1-1.2h0.2c0.7,0,1.2,0.6,1.2,1.2c0,0.1,0,0.1,0,0.2v0.3L480.9,89.7L480.9,89.7z
			 M482.1,88.9c-0.1-0.2-0.3-0.4-0.6-0.4c-0.2,0-0.5,0.1-0.6,0.4c-0.1,0.1-0.1,0.3-0.1,0.4h1.3C482.2,89.1,482.2,89,482.1,88.9
			L482.1,88.9z"/>
		<path class="st3" d="M485.4,90.8c-0.2,0.2-0.4,0.3-0.7,0.3c-0.3,0-0.6-0.1-0.8-0.3v1.5h-0.6V88h0.6v0.3c0.2-0.2,0.5-0.4,0.8-0.3
			c0.3,0,0.5,0.1,0.7,0.3C485.8,89,485.8,90,485.4,90.8z M484.5,88.6c-0.5,0-0.6,0.4-0.6,1s0.1,1,0.6,1s0.6-0.4,0.6-1
			S485,88.5,484.5,88.6L484.5,88.6z"/>
		<path class="st3" d="M487.8,88.8c-0.1-0.1-0.3-0.2-0.4-0.2c-0.3,0-0.6,0.3-0.6,0.6c0,0,0,0,0,0c0,0,0,0,0,0.1V91h-0.6v-2.9h0.6
			v0.3c0.2-0.2,0.5-0.4,0.8-0.3c0.3,0,0.5,0.1,0.7,0.3L487.8,88.8z"/>
		<path class="st3" d="M489,89.7c-0.1,0.4,0.2,0.7,0.6,0.8h0.1c0.3,0,0.5-0.1,0.7-0.3l0.4,0.3c-0.3,0.3-0.7,0.5-1.1,0.4
			c-0.8-0.1-1.4-0.9-1.3-1.7c0.1-0.6,0.5-1,1-1.2h0.2c0.7,0,1.2,0.6,1.2,1.2c0,0.1,0,0.1,0,0.2v0.2L489,89.7z M490.2,88.9
			c-0.2-0.3-0.5-0.4-0.9-0.3c-0.1,0.1-0.2,0.2-0.3,0.3c-0.1,0.1-0.1,0.3-0.1,0.4h1.3C490.3,89.1,490.3,89,490.2,88.9L490.2,88.9z"/>
		<path class="st3" d="M493.3,91v-1.8c0-0.3-0.2-0.6-0.5-0.6h-0.1c-0.3,0-0.6,0.2-0.6,0.6c0,0,0,0.1,0,0.1V91h-0.6v-2.9h0.6v0.3
			c0.4-0.4,1-0.4,1.5-0.1c0.2,0.2,0.3,0.5,0.3,0.8V91H493.3z"/>
		<path class="st3" d="M495,89.7c-0.1,0.4,0.2,0.7,0.6,0.8h0.1c0.3,0,0.5-0.1,0.7-0.3l0.4,0.3c-0.3,0.3-0.7,0.5-1.1,0.4
			c-0.8-0.1-1.4-0.9-1.3-1.7c0.1-0.6,0.5-1,1-1.2h0.2c0.7,0,1.2,0.6,1.2,1.2c0,0.1,0,0.1,0,0.2v0.3L495,89.7L495,89.7z M496.2,88.9
			c-0.2-0.3-0.5-0.4-0.9-0.3c-0.1,0.1-0.2,0.2-0.3,0.3c-0.1,0.1-0.1,0.3-0.1,0.4h1.3C496.3,89.1,496.3,89,496.2,88.9L496.2,88.9z"/>
		<path class="st3" d="M499.1,91v-0.3c-0.4,0.4-1,0.4-1.5,0.1c-0.2-0.2-0.3-0.5-0.3-0.8v-1.9h0.6v1.8c0,0.3,0.2,0.6,0.5,0.6h0.1
			c0.3,0,0.6-0.2,0.6-0.6c0,0,0-0.1,0-0.1v-1.8h0.6V91H499.1z"/>
		<path class="st3" d="M502.1,88.8c-0.1-0.1-0.3-0.2-0.4-0.2c-0.3,0-0.6,0.3-0.6,0.6c0,0,0,0,0,0c0,0,0,0,0,0.1V91h-0.6v-2.9h0.6
			v0.3c0.2-0.2,0.5-0.4,0.8-0.3c0.3,0,0.5,0.1,0.7,0.3L502.1,88.8z"/>
		<path class="st3" d="M503.8,91c-0.4,0-0.9-0.1-1.2-0.4l0.4-0.4c0.2,0.2,0.5,0.3,0.8,0.3c0.3,0.1,0.6-0.1,0.6-0.4c0,0,0,0,0,0l0,0
			c0-0.2-0.2-0.3-0.3-0.3l0,0h-0.5c-0.4,0-0.8-0.3-0.8-0.7c0,0,0-0.1,0-0.1c0.1-0.5,0.5-0.9,1.1-0.9c0.4,0,0.8,0.1,1.1,0.3l-0.3,0.3
			c-0.2-0.2-0.5-0.2-0.7-0.2c-0.2,0-0.5,0.1-0.5,0.3l0,0c0,0.2,0.1,0.3,0.4,0.3h0.5c0.4,0,0.8,0.3,0.9,0.7c0,0,0,0.1,0,0.1
			c0,0.5-0.5,1-1,0.9L503.8,91z"/>
		<path class="st3" d="M507.3,91v-1.8c0-0.3-0.2-0.6-0.5-0.6l0,0h-0.1c-0.3,0-0.6,0.2-0.6,0.5c0,0,0,0.1,0,0.1V91h-0.6v-4.1h0.6v1.5
			c0.4-0.4,1-0.5,1.4-0.1c0.2,0.2,0.3,0.5,0.3,0.8c0,0,0,0,0,0.1V91H507.3z"/>
		<path class="st3" d="M508.7,87.5v-0.6h0.6v0.6L508.7,87.5z M508.7,91v-2.9h0.6V91L508.7,91L508.7,91z"/>
		<path class="st3" d="M512.1,90.8c-0.2,0.2-0.4,0.3-0.7,0.3c-0.3,0-0.6-0.1-0.8-0.3v1.5h-0.6v-4.1h0.6v0.3c0.2-0.2,0.5-0.4,0.8-0.3
			c0.3,0,0.5,0.1,0.7,0.3C512.5,89.1,512.5,90,512.1,90.8z M511.3,88.6c-0.5,0-0.6,0.4-0.6,1s0.1,1,0.6,1s0.6-0.4,0.6-1
			S511.8,88.6,511.3,88.6z"/>
		<path class="st3" d="M471.3,96.7c-0.4,0-0.8-0.1-1.1-0.4c-0.5-1-0.5-2.2,0-3.3c0.3-0.3,0.7-0.4,1.1-0.4c0.7,0,1.4,0.5,1.4,1.2
			h-0.6c-0.1-0.5-0.5-0.8-1-0.7c-0.2,0-0.3,0.1-0.4,0.2c-0.3,0.8-0.3,1.7,0,2.5c0.2,0.2,0.4,0.3,0.6,0.2c0.4,0,0.8-0.3,0.8-0.7h0.6
			C472.6,96.1,472,96.7,471.3,96.7z"/>
		<path class="st3" d="M473.7,95.3c-0.1,0.4,0.2,0.7,0.6,0.8h0.1c0.3,0,0.5-0.1,0.7-0.3l0.4,0.3c-0.3,0.3-0.7,0.5-1.1,0.4
			c-0.8-0.1-1.4-0.9-1.3-1.7c0.1-0.6,0.5-1,1-1.2h0.2c0.7,0,1.2,0.6,1.2,1.2c0,0.1,0,0.1,0,0.2v0.3L473.7,95.3L473.7,95.3z
			 M474.9,94.5c-0.2-0.3-0.5-0.4-0.9-0.3c-0.1,0.1-0.2,0.2-0.3,0.3c-0.1,0.1-0.1,0.3-0.1,0.4h1.3C475,94.8,474.9,94.7,474.9,94.5
			L474.9,94.5z"/>
		<path class="st3" d="M478,96.6v-1.8c0-0.3-0.2-0.6-0.5-0.6h-0.1c-0.3,0-0.6,0.2-0.6,0.5c0,0,0,0.1,0,0.1v1.8h-0.6v-2.9h0.6v0.3
			c0.4-0.4,1-0.4,1.5-0.1c0.2,0.2,0.3,0.5,0.3,0.8v1.8L478,96.6L478,96.6z"/>
		<path class="st3" d="M480.3,96.6c-0.4,0-0.8-0.3-0.8-0.7c0,0,0-0.1,0-0.1v-1.6h-0.3v-0.5h0.3v-0.8h0.6v0.8h0.6v0.4h-0.6v1.6
			c0,0.2,0.1,0.3,0.2,0.3c0,0,0,0,0,0h0.3v0.5L480.3,96.6L480.3,96.6z"/>
		<path class="st3" d="M481.8,95.4c-0.1,0.4,0.2,0.7,0.6,0.8h0.1c0.3,0,0.5-0.1,0.7-0.3l0.4,0.3c-0.3,0.3-0.7,0.5-1.1,0.4
			c-0.8-0.1-1.4-0.9-1.3-1.7c0.1-0.6,0.5-1,1-1.2h0.2c0.7,0,1.2,0.6,1.2,1.2c0,0.1,0,0.1,0,0.2v0.3L481.8,95.4L481.8,95.4z
			 M483,94.6c-0.2-0.3-0.5-0.4-0.9-0.3c-0.1,0.1-0.2,0.2-0.3,0.3c-0.1,0.1-0.1,0.3-0.1,0.4h1.3C483.1,94.8,483.1,94.7,483,94.6
			L483,94.6z"/>
		<path class="st3" d="M485.9,94.4c-0.1-0.1-0.3-0.2-0.4-0.2c-0.3,0-0.6,0.3-0.6,0.6c0,0,0,0,0,0c0,0,0,0,0,0.1v1.8h-0.6v-2.9h0.6
			v0.3c0.2-0.2,0.5-0.4,0.8-0.3c0.3,0,0.5,0.1,0.7,0.3L485.9,94.4z"/>
		<path class="st3" d="M504.6,73.4h-2.2v-1.2h-0.6v1.2h-2.2c-0.2,0-0.3,0.1-0.3,0.3c0,0,0,0,0,0l0,0v2.6c0,0.2,0.1,0.3,0.3,0.3
			c0,0,0,0,0,0h2.2v1.9h0.6v-1.9h2.2c0.2,0,0.3-0.1,0.3-0.3c0,0,0,0,0,0l0,0v-2.6C504.9,73.6,504.8,73.4,504.6,73.4
			C504.6,73.4,504.6,73.4,504.6,73.4L504.6,73.4z M499.8,76v-2h1.9v2H499.8z M504.3,76h-1.9v-2h1.9V76z"/>
		<path class="st3" d="M510.5,77.3c0,0.3-0.3,0.6-0.6,0.6c0,0,0,0,0,0H509c-0.3,0-0.6-0.2-0.6-0.5c0,0,0,0,0,0c0,0,0-0.1,0-0.1V74
			h-0.6v3.3c0,0.6,0.5,1.2,1.1,1.2c0,0,0,0,0,0h0.9c0.6,0,1.2-0.5,1.2-1.2c0,0,0,0,0,0l0,0V77h-0.6L510.5,77.3L510.5,77.3z"/>
		
			<rect x="505.2" y="75.7" transform="matrix(0.2108 -0.9775 0.9775 0.2108 325.4982 555.181)" class="st3" width="2.9" height="0.6"/>
		
			<rect x="511.3" y="74.4" transform="matrix(0.9613 -0.2756 0.2756 0.9613 -1.0816 143.9516)" class="st3" width="0.6" height="2.8"/>
		
			<rect x="508.8" y="72.2" transform="matrix(0.5941 -0.8044 0.8044 0.5941 147.752 439.1609)" class="st3" width="0.6" height="2"/>
		
			<image style="overflow:visible;enable-background:new    ;" width="878" height="556" xlink:href="570B1424277B89D6.png"  transform="matrix(8.887244e-02 0 0 8.870504e-02 101.05 48.94)">
		</image>
		
			<image style="overflow:visible;enable-background:new    ;" width="1000" height="1000" xlink:href="570B1424277B89DA.png"  transform="matrix(4.905000e-02 0 0 4.905000e-02 41.68 47.22)">
		</image>
		<g>
			<text transform="matrix(1 0 0 1 41.68 135.86)" class="st8 st9 st10">© 2027 Rethink</text>
			<text transform="matrix(1 0 0 1 135.9 135.86)" class="st8 st9 st10 st11">T</text>
			<text transform="matrix(1 0 0 1 141.92 135.86)" class="st8 st9 st10">aiwan all rights</text>
			<text transform="matrix(1 0 0 1 231.94 135.86)" class="st8 st9 st10">r</text>
			<text transform="matrix(1 0 0 1 236.04 135.86)" class="st8 st9 st10">eserved.</text>
		</g>
		<path class="st3" d="M1030.4,55.5c2.4-4,6.3-4,8.7,0l11.2,18.5c2.4,4,0.6,7.2-4,7.2h-23.1c-4.6,0-6.4-3.2-4-7.2L1030.4,55.5z"/>
		<path class="st7" d="M1028,66h13.6c0.3,0,0.6,0.3,0.6,0.6v7.5c0,0.3-0.3,0.6-0.6,0.6H1028c-0.3,0-0.6-0.3-0.6-0.6v-7.5
			C1027.4,66.2,1027.7,66,1028,66z"/>
		<path class="st12" d="M1028.7,67.4c0.1,0,6,4.4,6,4.4l6-4.4"/>
		<g>
			<text transform="matrix(1 0 0 1 1063.63 69.26)" class="st3 st13 st14">r</text>
			<text transform="matrix(1 0 0 1 1067.8199 69.26)" class="st3 st13 st14">ethinktaiwan2027@gmail.com</text>
		</g>
		<path class="st3" d="M827.2,55.5c2.4-4,6.3-4,8.7,0L847.2,74c2.4,3.9,0.6,7.2-4,7.2h-23.1c-4.6,0-6.4-3.2-4-7.2L827.2,55.5z"/>
		<path class="st7" d="M829.7,78.1v-8.8h-2.2v-2.9c0-0.1,0-0.1,0.1-0.2h2c0.1,0,0.1,0,0.2-0.1c0,0,0,0,0-0.1v-2.5
			c0-0.6,0.2-1.2,0.4-1.7c0.3-0.5,0.8-1,1.4-1.1c0.5-0.2,1.1-0.3,1.7-0.3h2.5v3h-1.8c-0.1,0-0.3,0-0.4,0.1c-0.3,0.1-0.5,0.3-0.5,0.6
			v1.9c0,0.1,0.1,0.1,0.1,0.1h2.6l-0.3,3H833V78L829.7,78.1L829.7,78.1z"/>
		<g>
			<text transform="matrix(1 0 0 1 859.46 63.41)" class="st3 st15 st14">青年迴響計</text>
			<text transform="matrix(1 0 0 1 915.01 63.41)" class="st3 st15 st14 st16">畫</text>
			<text transform="matrix(1 0 0 1 928.87 63.41)" class="st3 st15 st14">-</text>
			<text transform="matrix(1 0 0 1 859.46 78.41)" class="st3 st15 st14">給你一個行動的藉口</text>
		</g>
		<path class="st3" d="M1030.4,97.9c2.4-3.9,6.3-3.9,8.7,0l11.2,18.5c2.4,4,0.6,7.2-4,7.2h-23.1c-4.6,0-6.4-3.2-4-7.2L1030.4,97.9z"
			/>
		<path class="st7" d="M1038.8,106.6c-2-2.2-5.3-2.4-7.5-0.4c-2.2,2-2.4,5.3-0.4,7.5c0.3,0.3,0.5,0.5,0.8,0.8
			c0.8,0.6,1.5,1.5,1.8,2.5l0.8,2.4c0.1,0.3,0.4,0.5,0.7,0.4c0.2-0.1,0.3-0.2,0.4-0.4l0.8-2.4c0.3-1,0.9-1.9,1.8-2.5
			c2.4-1.7,2.9-5.1,1.2-7.5c0,0,0,0,0,0C1039,106.9,1038.9,106.8,1038.8,106.6z M1036.5,111.9c-1,1-2.5,1-3.5,0c-1-1-1-2.5,0-3.5
			c1-1,2.5-1,3.5,0c0,0,0,0,0,0l0,0C1037.5,109.4,1037.5,111,1036.5,111.9z"/>
		<g>
			<text transform="matrix(0.9996 2.998651e-02 -2.998651e-02 0.9996 1063.6594 106.4202)" class="st3 st15 st17">臺</text>
			<text transform="matrix(0.9996 2.998651e-02 -2.998651e-02 0.9996 1075.1499 106.4201)" class="st3 st15 st17">北</text>
			<text transform="matrix(0.9996 2.998651e-02 -2.998651e-02 0.9996 1086.6298 106.4201)" class="st3 st15 st17">市</text>
			<text transform="matrix(0.9996 2.998651e-02 -2.998651e-02 0.9996 1098.1202 106.4204)" class="st3 st15 st17">思</text>
			<text transform="matrix(0.9996 2.998651e-02 -2.998651e-02 0.9996 1109.6097 106.4202)" class="st3 st15 st17">源</text>
			<text transform="matrix(0.9996 2.998651e-02 -2.998651e-02 0.9996 1121.0896 106.4202)" class="st3 st15 st17 st6">街</text>
			<text transform="matrix(0.9996 2.998651e-02 -2.998651e-02 0.9996 1135.3298 106.5001)" class="st3 st13 st17">1</text>
			<text transform="matrix(0.9996 2.998651e-02 -2.998651e-02 0.9996 1141.9393 106.5)" class="st3 st13 st17">8</text>
			<text transform="matrix(0.9996 2.998651e-02 -2.998651e-02 0.9996 1151.5095 106.4203)" class="st3 st15 st17">號</text>
			<text transform="matrix(0.9996 2.998651e-02 -2.998651e-02 0.9996 1063.6598 121.4202)" class="st3 st15 st17">臺</text>
			<text transform="matrix(0.9996 2.998651e-02 -2.998651e-02 0.9996 1075.1396 121.4202)" class="st3 st15 st17">灣</text>
			<text transform="matrix(0.9996 2.998651e-02 -2.998651e-02 0.9996 1086.6301 121.4205)" class="st3 st15 st17">大</text>
			<text transform="matrix(0.9996 2.998651e-02 -2.998651e-02 0.9996 1098.1196 121.4203)" class="st3 st15 st17">學</text>
			<text transform="matrix(0.9996 2.998651e-02 -2.998651e-02 0.9996 1109.5994 121.4203)" class="st3 st15 st17">卓</text>
			<text transform="matrix(0.9996 2.998651e-02 -2.998651e-02 0.9996 1121.09 121.4201)" class="st3 st15 st17">越</text>
			<text transform="matrix(0.9996 2.998651e-02 -2.998651e-02 0.9996 1132.5795 121.4204)" class="st3 st15 st17">研</text>
			<text transform="matrix(0.9996 2.998651e-02 -2.998651e-02 0.9996 1144.0699 121.4202)" class="st3 st15 st17">究</text>
			<text transform="matrix(0.9996 2.998651e-02 -2.998651e-02 0.9996 1155.5498 121.4202)" class="st3 st15 st17">大</text>
			<text transform="matrix(0.9996 2.998651e-02 -2.998651e-02 0.9996 1167.05 121.4204)" class="st3 st15 st17 st6">樓</text>
			<text transform="matrix(0.9996 2.998651e-02 -2.998651e-02 0.9996 1181.2904 121.5003)" class="st3 st13 st17">4</text>
			<text transform="matrix(0.9996 2.998651e-02 -2.998651e-02 0.9996 1190.8499 121.4202)" class="st3 st15 st17">樓</text>
			<text transform="matrix(0.9996 2.998651e-02 -2.998651e-02 0.9996 1205.3099 121.5003)" class="st3 st13 st17">4</text>
			<text transform="matrix(0.9996 2.998651e-02 -2.998651e-02 0.9996 1211.9097 121.5005)" class="st3 st13 st17">0</text>
			<text transform="matrix(0.9996 2.998651e-02 -2.998651e-02 0.9996 1218.5298 121.5002)" class="st3 st13 st17">7</text>
			<text transform="matrix(0.9996 2.998651e-02 -2.998651e-02 0.9996 1228.1 121.4205)" class="st3 st15 st17">室</text>
		</g>
		<path class="st3" d="M827.3,97.9c2.4-3.9,6.3-3.9,8.7,0l11.2,18.5c2.4,4,0.6,7.2-4,7.2h-23.1c-4.6,0-6.4-3.2-4-7.2L827.3,97.9z"/>
		<path class="st7" d="M830.2,109.9l1.7-1.7c0.4-0.4,0.4-0.9,0-1.3c0,0,0,0,0,0l0,0l-2-2c-0.4-0.4-0.9-0.4-1.3,0c0,0,0,0,0,0l0,0
			l-1.4,1.4c-1,1-1.3,2.4-0.9,3.8c0.4,1.3,1.5,3.2,4.1,5.7c3.4,3.3,5.6,3.5,6.9,3.3c0.8-0.2,1.5-0.6,2.1-1.2l1.2-1.2
			c0.4-0.4,0.4-0.9,0-1.3c0,0,0,0,0,0l0,0l-2-1.9c-0.4-0.4-0.9-0.4-1.3,0c0,0,0,0,0,0l0,0l-1.6,1.7c-0.4,0.4-0.9,0.4-1.3,0l-4.2-4
			C829.9,110.8,829.9,110.3,830.2,109.9z"/>
		<g>
			<text transform="matrix(1 0 0 1 860.29 114.12)" class="st3 st13 st14">02-3366-1869</text>
			<text transform="matrix(1 0 0 1 938.06 114.37)" class="st3 st15 st14">分機</text>
			<text transform="matrix(1 0 0 1 960.28 114.12)" class="st3 st13 st14"> 55385</text>
		</g>
	</g>
</g>
</svg>
