<svg xmlns="http://www.w3.org/2000/svg" viewBox="0 0 1340.14 654.85"><defs><style>.cls-1,.cls-131,.cls-2,.cls-3,.cls-4,.cls-5,.cls-6,.cls-7,.cls-8,.cls-9{fill:none;}.cls-1,.cls-2,.cls-3{stroke:#d7e044;}.cls-1,.cls-131,.cls-132,.cls-139,.cls-142,.cls-145,.cls-148,.cls-151,.cls-2,.cls-3,.cls-4,.cls-5,.cls-6,.cls-7,.cls-8,.cls-9{stroke-miterlimit:10;}.cls-1,.cls-4,.cls-7{stroke-width:5.38px;}.cls-132,.cls-138,.cls-139,.cls-141,.cls-142,.cls-144,.cls-145,.cls-147,.cls-148,.cls-150,.cls-151,.cls-2,.cls-5,.cls-8{stroke-linecap:round;}.cls-2,.cls-5,.cls-8{stroke-width:5.38px;}.cls-3,.cls-6,.cls-9{stroke-width:19.99px;}.cls-4,.cls-5,.cls-6{stroke:#8fd0db;}.cls-131,.cls-132,.cls-138,.cls-139,.cls-141,.cls-142,.cls-144,.cls-145,.cls-147,.cls-148,.cls-150,.cls-151,.cls-7,.cls-8,.cls-9{stroke:#3c9195;}.cls-10,.cls-100,.cls-101,.cls-102,.cls-103,.cls-104,.cls-105,.cls-106,.cls-107,.cls-108,.cls-109,.cls-11,.cls-110,.cls-111,.cls-112,.cls-113,.cls-114,.cls-115,.cls-116,.cls-117,.cls-118,.cls-119,.cls-12,.cls-120,.cls-121,.cls-122,.cls-123,.cls-124,.cls-125,.cls-126,.cls-127,.cls-128,.cls-129,.cls-13,.cls-130,.cls-14,.cls-15,.cls-16,.cls-17,.cls-18,.cls-19,.cls-20,.cls-21,.cls-22,.cls-23,.cls-24,.cls-25,.cls-26,.cls-27,.cls-28,.cls-29,.cls-30,.cls-31,.cls-32,.cls-33,.cls-34,.cls-35,.cls-36,.cls-37,.cls-38,.cls-39,.cls-40,.cls-41,.cls-42,.cls-43,.cls-44,.cls-45,.cls-46,.cls-47,.cls-48,.cls-49,.cls-50,.cls-51,.cls-52,.cls-53,.cls-54,.cls-55,.cls-56,.cls-57,.cls-58,.cls-59,.cls-60,.cls-61,.cls-62,.cls-63,.cls-64,.cls-65,.cls-66,.cls-67,.cls-68,.cls-69,.cls-70,.cls-71,.cls-72,.cls-73,.cls-74,.cls-75,.cls-76,.cls-77,.cls-78,.cls-79,.cls-80,.cls-81,.cls-82,.cls-83,.cls-84,.cls-85,.cls-86,.cls-87,.cls-88,.cls-89,.cls-90,.cls-91,.cls-92,.cls-93,.cls-94,.cls-95,.cls-96,.cls-97,.cls-98,.cls-99{fill:#e9e9e9;}.cls-11{opacity:0.99;}.cls-12{opacity:0.99;}.cls-13{opacity:0.98;}.cls-14{opacity:0.98;}.cls-15{opacity:0.97;}.cls-16{opacity:0.97;}.cls-17{opacity:0.96;}.cls-18{opacity:0.95;}.cls-19{opacity:0.95;}.cls-20{opacity:0.94;}.cls-21{opacity:0.94;}.cls-22{opacity:0.93;}.cls-23{opacity:0.93;}.cls-24{opacity:0.92;}.cls-25{opacity:0.91;}.cls-26{opacity:0.91;}.cls-27{opacity:0.9;}.cls-28{opacity:0.9;}.cls-29{opacity:0.89;}.cls-30{opacity:0.89;}.cls-31{opacity:0.88;}.cls-32{opacity:0.88;}.cls-33{opacity:0.87;}.cls-34{opacity:0.86;}.cls-35{opacity:0.86;}.cls-36{opacity:0.85;}.cls-37{opacity:0.85;}.cls-38{opacity:0.84;}.cls-39{opacity:0.84;}.cls-40{opacity:0.83;}.cls-41{opacity:0.82;}.cls-42{opacity:0.82;}.cls-43{opacity:0.81;}.cls-44{opacity:0.81;}.cls-45{opacity:0.8;}.cls-46{opacity:0.8;}.cls-47{opacity:0.79;}.cls-48{opacity:0.78;}.cls-49{opacity:0.78;}.cls-50{opacity:0.77;}.cls-51{opacity:0.77;}.cls-52{opacity:0.76;}.cls-53{opacity:0.76;}.cls-54{opacity:0.75;}.cls-55{opacity:0.74;}.cls-56{opacity:0.74;}.cls-57{opacity:0.73;}.cls-58{opacity:0.73;}.cls-59{opacity:0.72;}.cls-60{opacity:0.72;}.cls-61{opacity:0.71;}.cls-62{opacity:0.71;}.cls-63{opacity:0.7;}.cls-64{opacity:0.69;}.cls-65{opacity:0.69;}.cls-66{opacity:0.68;}.cls-67{opacity:0.68;}.cls-68{opacity:0.67;}.cls-69{opacity:0.67;}.cls-70{opacity:0.66;}.cls-71{opacity:0.65;}.cls-72{opacity:0.65;}.cls-73{opacity:0.64;}.cls-74{opacity:0.64;}.cls-75{opacity:0.63;}.cls-76{opacity:0.63;}.cls-77{opacity:0.62;}.cls-78{opacity:0.61;}.cls-79{opacity:0.61;}.cls-80{opacity:0.6;}.cls-81{opacity:0.6;}.cls-82{opacity:0.59;}.cls-83{opacity:0.59;}.cls-84{opacity:0.58;}.cls-85{opacity:0.58;}.cls-86{opacity:0.57;}.cls-87{opacity:0.56;}.cls-88{opacity:0.56;}.cls-89{opacity:0.55;}.cls-90{opacity:0.55;}.cls-91{opacity:0.54;}.cls-92{opacity:0.54;}.cls-93{opacity:0.53;}.cls-94{opacity:0.52;}.cls-95{opacity:0.52;}.cls-96{opacity:0.51;}.cls-97{opacity:0.51;}.cls-98{opacity:0.5;}.cls-99{opacity:0.5;}.cls-100{opacity:0.49;}.cls-101{opacity:0.48;}.cls-102{opacity:0.48;}.cls-103{opacity:0.47;}.cls-104{opacity:0.47;}.cls-105{opacity:0.46;}.cls-106{opacity:0.46;}.cls-107{opacity:0.45;}.cls-108{opacity:0.44;}.cls-109{opacity:0.44;}.cls-110{opacity:0.43;}.cls-111{opacity:0.43;}.cls-112{opacity:0.42;}.cls-113{opacity:0.42;}.cls-114{opacity:0.41;}.cls-115{opacity:0.41;}.cls-116{opacity:0.4;}.cls-117{opacity:0.39;}.cls-118{opacity:0.39;}.cls-119{opacity:0.38;}.cls-120{opacity:0.38;}.cls-121{opacity:0.37;}.cls-122{opacity:0.37;}.cls-123{opacity:0.36;}.cls-124{opacity:0.35;}.cls-125{opacity:0.35;}.cls-126{opacity:0.34;}.cls-127{opacity:0.34;}.cls-128{opacity:0.33;}.cls-129{opacity:0.33;}.cls-130{opacity:0.32;}.cls-131{stroke-width:6.1px;}.cls-132,.cls-133{fill:#d7e044;}.cls-132{stroke-width:21.02px;}.cls-134{fill:#3c9195;}.cls-135{fill:#ff665c;}.cls-136{fill:#50adc0;}.cls-137{fill:#8fd0db;}.cls-138,.cls-141,.cls-144,.cls-147,.cls-150{fill:#ffcd32;stroke-linejoin:round;}.cls-138{stroke-width:6.5px;}.cls-139,.cls-142,.cls-145,.cls-148,.cls-151{fill:#006464;}.cls-139{stroke-width:7.94px;}.cls-140{fill:#ff845b;}.cls-141{stroke-width:6.61px;}.cls-142{stroke-width:8.08px;}.cls-143{fill:#ffa15a;}.cls-144{stroke-width:6.71px;}.cls-145{stroke-width:8.21px;}.cls-146{fill:#ffbf59;}.cls-147{stroke-width:6.82px;}.cls-148{stroke-width:8.34px;}.cls-149{fill:#ffdd58;}.cls-150{stroke-width:6.93px;}.cls-151{stroke-width:8.47px;}</style></defs><title>資產 25</title><g id="圖層_2" data-name="圖層 2"><g id="首頁物件"><line class="cls-1" x1="946.6" y1="242.01" x2="946.6" y2="584.41"/><line class="cls-2" x1="928.56" y1="278.91" x2="964.64" y2="205.1"/><line class="cls-3" x1="950.16" y1="199.26" x2="977.07" y2="199.26"/><line class="cls-3" x1="929.94" y1="235.14" x2="956.85" y2="235.14"/><line class="cls-3" x1="908.05" y1="273.27" x2="934.96" y2="273.27"/><line class="cls-4" x1="942.59" y1="244.72" x2="942.59" y2="585.06"/><line class="cls-5" x1="924.55" y1="281.62" x2="960.63" y2="207.81"/><line class="cls-6" x1="946.15" y1="201.97" x2="973.06" y2="201.97"/><line class="cls-6" x1="925.93" y1="237.85" x2="952.84" y2="237.85"/><line class="cls-6" x1="904.04" y1="275.99" x2="930.95" y2="275.99"/><line class="cls-1" x1="385.26" y1="248.72" x2="385.26" y2="584.61"/><line class="cls-2" x1="403.3" y1="285.63" x2="367.22" y2="211.82"/><line class="cls-3" x1="381.7" y1="205.97" x2="354.79" y2="205.97"/><line class="cls-3" x1="401.92" y1="241.85" x2="375.01" y2="241.85"/><line class="cls-3" x1="423.8" y1="279.99" x2="396.89" y2="279.99"/><line class="cls-4" x1="381.19" y1="250.67" x2="381.19" y2="584.61"/><line class="cls-5" x1="399.23" y1="287.58" x2="363.15" y2="213.77"/><line class="cls-6" x1="377.63" y1="207.92" x2="350.72" y2="207.92"/><line class="cls-6" x1="397.84" y1="243.8" x2="370.93" y2="243.8"/><line class="cls-6" x1="419.73" y1="281.94" x2="392.82" y2="281.94"/><line class="cls-7" x1="383.32" y1="250.67" x2="383.32" y2="598.63"/><line class="cls-8" x1="401.36" y1="287.58" x2="365.28" y2="213.77"/><line class="cls-9" x1="379.76" y1="207.92" x2="352.85" y2="207.92"/><line class="cls-9" x1="399.98" y1="243.8" x2="373.07" y2="243.8"/><line class="cls-9" x1="421.86" y1="281.94" x2="394.95" y2="281.94"/><line class="cls-7" x1="944.53" y1="243.43" x2="944.53" y2="597.98"/><line class="cls-8" x1="926.49" y1="280.33" x2="962.57" y2="206.52"/><line class="cls-9" x1="948.09" y1="200.68" x2="975" y2="200.68"/><line class="cls-9" x1="927.87" y1="236.56" x2="954.78" y2="236.56"/><line class="cls-9" x1="905.99" y1="276.99" x2="932.9" y2="276.99"/><rect class="cls-10" x="669.57" y="-656.62" width="12.76" height="1328.36" transform="translate(667.19 683.5) rotate(-89.9)"/><rect class="cls-11" x="669.62" y="-652.43" width="12.66" height="1328.36" transform="translate(663 687.68) rotate(-89.9)"/><rect class="cls-12" x="669.68" y="-648.24" width="12.55" height="1328.36" transform="translate(658.81 691.86) rotate(-89.9)"/><rect class="cls-13" x="669.73" y="-644.05" width="12.44" height="1328.36" transform="translate(654.62 696.04) rotate(-89.9)"/><rect class="cls-14" x="669.78" y="-639.86" width="12.34" height="1328.36" transform="translate(650.43 700.22) rotate(-89.9)"/><rect class="cls-15" x="669.83" y="-635.67" width="12.23" height="1328.36" transform="translate(646.24 704.4) rotate(-89.9)"/><rect class="cls-16" x="669.88" y="-631.48" width="12.13" height="1328.36" transform="translate(642.04 708.58) rotate(-89.9)"/><rect class="cls-17" x="669.93" y="-627.29" width="12.02" height="1328.36" transform="translate(637.85 712.76) rotate(-89.9)"/><rect class="cls-18" x="669.98" y="-623.1" width="11.91" height="1328.36" transform="translate(633.66 716.94) rotate(-89.9)"/><rect class="cls-19" x="670.04" y="-618.91" width="11.81" height="1328.36" transform="translate(629.47 721.12) rotate(-89.9)"/><rect class="cls-20" x="670.09" y="-614.72" width="11.7" height="1328.36" transform="translate(625.28 725.3) rotate(-89.9)"/><rect class="cls-21" x="670.14" y="-610.53" width="11.59" height="1328.36" transform="translate(621.09 729.48) rotate(-89.9)"/><rect class="cls-22" x="670.19" y="-606.34" width="11.49" height="1328.36" transform="translate(616.9 733.66) rotate(-89.9)"/><rect class="cls-23" x="670.24" y="-602.16" width="11.38" height="1328.36" transform="translate(612.71 737.84) rotate(-89.9)"/><rect class="cls-24" x="670.29" y="-597.97" width="11.27" height="1328.36" transform="translate(608.52 742.02) rotate(-89.9)"/><rect class="cls-25" x="670.34" y="-593.78" width="11.17" height="1328.36" transform="translate(604.33 746.2) rotate(-89.9)"/><rect class="cls-26" x="670.4" y="-589.59" width="11.06" height="1328.36" transform="translate(600.13 750.38) rotate(-89.9)"/><rect class="cls-27" x="670.45" y="-585.4" width="10.96" height="1328.36" transform="translate(595.94 754.56) rotate(-89.9)"/><rect class="cls-28" x="670.5" y="-581.21" width="10.85" height="1328.36" transform="translate(591.75 758.74) rotate(-89.9)"/><rect class="cls-29" x="670.55" y="-577.02" width="10.74" height="1328.36" transform="translate(587.56 762.92) rotate(-89.9)"/><rect class="cls-30" x="670.6" y="-572.83" width="10.64" height="1328.36" transform="translate(583.37 767.1) rotate(-89.9)"/><rect class="cls-31" x="670.65" y="-568.64" width="10.53" height="1328.36" transform="translate(579.18 771.28) rotate(-89.9)"/><rect class="cls-32" x="670.7" y="-564.45" width="10.42" height="1328.36" transform="translate(574.99 775.46) rotate(-89.9)"/><rect class="cls-33" x="670.76" y="-560.26" width="10.32" height="1328.36" transform="translate(570.8 779.65) rotate(-89.9)"/><rect class="cls-34" x="670.81" y="-556.07" width="10.21" height="1328.36" transform="translate(566.61 783.83) rotate(-89.9)"/><rect class="cls-35" x="670.86" y="-551.88" width="10.1" height="1328.36" transform="translate(562.42 788.01) rotate(-89.9)"/><rect class="cls-36" x="670.91" y="-547.69" width="10" height="1328.36" transform="translate(558.22 792.19) rotate(-89.9)"/><rect class="cls-37" x="670.96" y="-543.5" width="9.89" height="1328.36" transform="translate(554.03 796.37) rotate(-89.9)"/><rect class="cls-38" x="671.01" y="-539.32" width="9.79" height="1328.36" transform="translate(549.84 800.55) rotate(-89.9)"/><rect class="cls-39" x="671.06" y="-535.13" width="9.68" height="1328.36" transform="translate(545.65 804.73) rotate(-89.9)"/><rect class="cls-40" x="671.12" y="-530.94" width="9.57" height="1328.36" transform="translate(541.46 808.91) rotate(-89.9)"/><rect class="cls-41" x="671.17" y="-526.75" width="9.47" height="1328.36" transform="translate(537.27 813.09) rotate(-89.9)"/><rect class="cls-42" x="671.22" y="-522.56" width="9.36" height="1328.36" transform="translate(533.08 817.27) rotate(-89.9)"/><rect class="cls-43" x="671.27" y="-518.37" width="9.25" height="1328.36" transform="translate(528.89 821.45) rotate(-89.9)"/><rect class="cls-44" x="671.32" y="-514.18" width="9.15" height="1328.36" transform="translate(524.7 825.63) rotate(-89.9)"/><rect class="cls-45" x="671.37" y="-509.99" width="9.04" height="1328.36" transform="matrix(0, -1, 1, 0, 520.5, 829.81)"/><rect class="cls-46" x="671.42" y="-505.8" width="8.94" height="1328.36" transform="translate(516.31 833.99) rotate(-89.9)"/><rect class="cls-47" x="671.48" y="-501.61" width="8.83" height="1328.36" transform="matrix(0, -1, 1, 0, 512.12, 838.17)"/><rect class="cls-48" x="671.53" y="-497.42" width="8.72" height="1328.36" transform="translate(507.93 842.35) rotate(-89.9)"/><rect class="cls-49" x="671.58" y="-493.23" width="8.62" height="1328.36" transform="matrix(0, -1, 1, 0, 503.74, 846.53)"/><rect class="cls-50" x="671.63" y="-489.04" width="8.51" height="1328.36" transform="translate(499.55 850.71) rotate(-89.9)"/><rect class="cls-51" x="671.68" y="-484.85" width="8.4" height="1328.36" transform="translate(495.36 854.89) rotate(-89.9)"/><rect class="cls-52" x="671.73" y="-480.67" width="8.3" height="1328.36" transform="translate(491.17 859.07) rotate(-89.9)"/><rect class="cls-53" x="671.79" y="-476.48" width="8.19" height="1328.36" transform="translate(486.98 863.25) rotate(-89.9)"/><rect class="cls-54" x="671.84" y="-472.29" width="8.08" height="1328.36" transform="translate(482.79 867.43) rotate(-89.9)"/><rect class="cls-55" x="671.89" y="-468.1" width="7.98" height="1328.36" transform="translate(478.59 871.61) rotate(-89.9)"/><rect class="cls-56" x="671.94" y="-463.91" width="7.87" height="1328.36" transform="translate(474.4 875.79) rotate(-89.9)"/><rect class="cls-57" x="671.99" y="-459.72" width="7.77" height="1328.36" transform="translate(470.21 879.97) rotate(-89.9)"/><rect class="cls-58" x="672.04" y="-455.53" width="7.66" height="1328.36" transform="translate(466.02 884.15) rotate(-89.9)"/><rect class="cls-59" x="672.09" y="-451.34" width="7.55" height="1328.36" transform="translate(461.83 888.33) rotate(-89.9)"/><rect class="cls-60" x="672.15" y="-447.15" width="7.45" height="1328.36" transform="translate(457.64 892.51) rotate(-89.9)"/><rect class="cls-61" x="672.2" y="-442.96" width="7.34" height="1328.36" transform="translate(453.45 896.69) rotate(-89.9)"/><rect class="cls-62" x="672.25" y="-438.77" width="7.23" height="1328.36" transform="translate(449.26 900.87) rotate(-89.9)"/><rect class="cls-63" x="672.3" y="-434.58" width="7.13" height="1328.36" transform="translate(445.07 905.05) rotate(-89.9)"/><rect class="cls-64" x="672.35" y="-430.39" width="7.02" height="1328.36" transform="translate(440.88 909.23) rotate(-89.9)"/><rect class="cls-65" x="672.4" y="-426.2" width="6.91" height="1328.36" transform="translate(436.68 913.41) rotate(-89.9)"/><rect class="cls-66" x="672.45" y="-422.01" width="6.81" height="1328.36" transform="translate(432.49 917.59) rotate(-89.9)"/><rect class="cls-67" x="672.51" y="-417.83" width="6.7" height="1328.36" transform="translate(428.3 921.77) rotate(-89.9)"/><rect class="cls-68" x="672.56" y="-413.64" width="6.6" height="1328.36" transform="translate(424.11 925.95) rotate(-89.9)"/><rect class="cls-69" x="672.61" y="-409.45" width="6.49" height="1328.36" transform="translate(419.92 930.13) rotate(-89.9)"/><rect class="cls-70" x="672.66" y="-405.26" width="6.38" height="1328.36" transform="translate(415.73 934.31) rotate(-89.9)"/><rect class="cls-71" x="672.71" y="-401.07" width="6.28" height="1328.36" transform="translate(411.54 938.49) rotate(-89.9)"/><rect class="cls-72" x="672.76" y="-396.88" width="6.17" height="1328.36" transform="translate(407.35 942.67) rotate(-89.9)"/><rect class="cls-73" x="672.81" y="-392.69" width="6.06" height="1328.36" transform="translate(403.16 946.85) rotate(-89.9)"/><rect class="cls-74" x="672.87" y="-388.5" width="5.96" height="1328.36" transform="translate(398.97 951.03) rotate(-89.9)"/><rect class="cls-75" x="672.92" y="-384.31" width="5.85" height="1328.36" transform="translate(394.77 955.21) rotate(-89.9)"/><rect class="cls-76" x="672.97" y="-380.12" width="5.75" height="1328.36" transform="translate(390.58 959.39) rotate(-89.9)"/><rect class="cls-77" x="673.02" y="-375.93" width="5.64" height="1328.36" transform="translate(386.39 963.57) rotate(-89.9)"/><rect class="cls-78" x="673.07" y="-371.74" width="5.53" height="1328.36" transform="translate(382.2 967.75) rotate(-89.9)"/><rect class="cls-79" x="673.12" y="-367.55" width="5.43" height="1328.36" transform="translate(378.01 971.93) rotate(-89.9)"/><rect class="cls-80" x="673.17" y="-363.36" width="5.32" height="1328.36" transform="translate(373.82 976.11) rotate(-89.9)"/><rect class="cls-81" x="673.23" y="-359.18" width="5.21" height="1328.36" transform="translate(369.63 980.29) rotate(-89.9)"/><rect class="cls-82" x="673.28" y="-354.99" width="5.11" height="1328.36" transform="translate(365.44 984.47) rotate(-89.9)"/><rect class="cls-83" x="673.33" y="-350.8" width="5" height="1328.36" transform="translate(361.25 988.65) rotate(-89.9)"/><rect class="cls-84" x="673.38" y="-346.61" width="4.89" height="1328.36" transform="translate(357.06 992.83) rotate(-89.9)"/><rect class="cls-85" x="673.43" y="-342.42" width="4.79" height="1328.36" transform="translate(352.86 997.01) rotate(-89.9)"/><rect class="cls-86" x="673.48" y="-338.23" width="4.68" height="1328.36" transform="translate(348.67 1001.19) rotate(-89.9)"/><rect class="cls-87" x="673.53" y="-334.04" width="4.58" height="1328.36" transform="translate(344.48 1005.37) rotate(-89.9)"/><rect class="cls-88" x="673.59" y="-329.85" width="4.47" height="1328.36" transform="translate(340.29 1009.55) rotate(-89.9)"/><rect class="cls-89" x="673.64" y="-325.66" width="4.36" height="1328.36" transform="translate(336.1 1013.73) rotate(-89.9)"/><rect class="cls-90" x="673.69" y="-321.47" width="4.26" height="1328.36" transform="translate(331.91 1017.91) rotate(-89.9)"/><rect class="cls-91" x="673.74" y="-317.28" width="4.15" height="1328.36" transform="translate(327.72 1022.09) rotate(-89.9)"/><rect class="cls-92" x="673.79" y="-313.09" width="4.04" height="1328.36" transform="translate(323.53 1026.27) rotate(-89.9)"/><rect class="cls-93" x="673.84" y="-308.9" width="3.94" height="1328.36" transform="translate(319.34 1030.45) rotate(-89.9)"/><rect class="cls-94" x="673.89" y="-304.71" width="3.83" height="1328.36" transform="translate(315.15 1034.63) rotate(-89.9)"/><rect class="cls-95" x="673.95" y="-300.52" width="3.73" height="1328.36" transform="translate(310.95 1038.81) rotate(-89.9)"/><rect class="cls-96" x="674" y="-296.34" width="3.62" height="1328.36" transform="translate(306.76 1043) rotate(-89.9)"/><rect class="cls-97" x="674.05" y="-292.15" width="3.51" height="1328.36" transform="translate(302.57 1047.18) rotate(-89.9)"/><rect class="cls-98" x="674.1" y="-287.96" width="3.41" height="1328.36" transform="translate(298.38 1051.36) rotate(-89.9)"/><rect class="cls-99" x="674.15" y="-283.77" width="3.3" height="1328.36" transform="translate(294.19 1055.54) rotate(-89.9)"/><rect class="cls-100" x="674.2" y="-279.58" width="3.19" height="1328.36" transform="translate(290 1059.72) rotate(-89.9)"/><rect class="cls-101" x="674.26" y="-275.39" width="3.09" height="1328.36" transform="translate(285.81 1063.9) rotate(-89.9)"/><rect class="cls-102" x="674.31" y="-271.2" width="2.98" height="1328.36" transform="translate(281.62 1068.08) rotate(-89.9)"/><rect class="cls-103" x="674.36" y="-267.01" width="2.87" height="1328.36" transform="translate(277.43 1072.26) rotate(-89.9)"/><rect class="cls-104" x="674.41" y="-262.82" width="2.77" height="1328.36" transform="translate(273.24 1076.44) rotate(-89.9)"/><rect class="cls-105" x="674.46" y="-258.63" width="2.66" height="1328.36" transform="translate(269.04 1080.62) rotate(-89.9)"/><rect class="cls-106" x="674.51" y="-254.44" width="2.56" height="1328.36" transform="translate(264.85 1084.8) rotate(-89.9)"/><rect class="cls-107" x="674.56" y="-250.25" width="2.45" height="1328.36" transform="translate(260.66 1088.98) rotate(-89.9)"/><rect class="cls-108" x="674.62" y="-246.06" width="2.34" height="1328.36" transform="translate(256.47 1093.16) rotate(-89.9)"/><rect class="cls-109" x="674.67" y="-241.87" width="2.24" height="1328.36" transform="translate(252.28 1097.34) rotate(-89.9)"/><rect class="cls-110" x="674.72" y="-237.69" width="2.13" height="1328.36" transform="translate(248.09 1101.52) rotate(-89.9)"/><rect class="cls-111" x="674.77" y="-233.5" width="2.02" height="1328.36" transform="translate(243.9 1105.7) rotate(-89.9)"/><rect class="cls-112" x="674.82" y="-229.31" width="1.92" height="1328.36" transform="translate(239.71 1109.88) rotate(-89.9)"/><rect class="cls-113" x="674.87" y="-225.12" width="1.81" height="1328.36" transform="translate(235.52 1114.06) rotate(-89.9)"/><rect class="cls-114" x="674.92" y="-220.93" width="1.7" height="1328.36" transform="translate(231.33 1118.24) rotate(-89.9)"/><rect class="cls-115" x="674.98" y="-216.74" width="1.6" height="1328.36" transform="translate(227.13 1122.42) rotate(-89.9)"/><rect class="cls-116" x="675.03" y="-212.55" width="1.49" height="1328.36" transform="translate(222.94 1126.6) rotate(-89.9)"/><rect class="cls-117" x="675.08" y="-208.36" width="1.39" height="1328.36" transform="translate(218.75 1130.78) rotate(-89.9)"/><rect class="cls-118" x="675.13" y="-204.17" width="1.28" height="1328.36" transform="translate(214.56 1134.96) rotate(-89.9)"/><rect class="cls-119" x="675.18" y="-199.98" width="1.17" height="1328.36" transform="translate(210.37 1139.14) rotate(-89.9)"/><rect class="cls-120" x="675.23" y="-195.79" width="1.07" height="1328.36" transform="translate(206.18 1143.32) rotate(-89.9)"/><rect class="cls-121" x="675.28" y="-191.6" width="0.96" height="1328.36" transform="translate(201.99 1147.5) rotate(-89.9)"/><rect class="cls-122" x="675.34" y="-187.41" width="0.85" height="1328.36" transform="translate(197.8 1151.68) rotate(-89.9)"/><rect class="cls-123" x="675.39" y="-183.22" width="0.75" height="1328.36" transform="translate(193.61 1155.86) rotate(-89.9)"/><rect class="cls-124" x="675.44" y="-179.03" width="0.64" height="1328.36" transform="translate(189.42 1160.04) rotate(-89.9)"/><rect class="cls-125" x="675.49" y="-174.85" width="0.54" height="1328.36" transform="translate(185.22 1164.22) rotate(-89.9)"/><rect class="cls-126" x="675.54" y="-170.66" width="0.43" height="1328.36" transform="translate(181.03 1168.4) rotate(-89.9)"/><rect class="cls-127" x="675.59" y="-166.47" width="0.32" height="1328.36" transform="translate(176.84 1172.58) rotate(-89.9)"/><rect class="cls-128" x="675.64" y="-162.28" width="0.22" height="1328.36" transform="translate(172.65 1176.76) rotate(-89.9)"/><rect class="cls-129" x="675.7" y="-158.09" width="0.11" height="1328.36" transform="translate(168.46 1180.94) rotate(-89.9)"/><rect class="cls-130" x="675.75" y="-153.9" height="1328.36" transform="translate(164.27 1185.12) rotate(-89.9)"/><path class="cls-131" d="M802.23,603.86V454.28a13.9,13.9,0,0,0-13.9-13.9H687.57"/><line class="cls-132" x1="734.37" y1="441.27" x2="770.65" y2="441.27"/><line class="cls-132" x1="735.78" y1="438.78" x2="772.06" y2="438.78"/><path class="cls-133" d="M639.43,450.46a12.84,12.84,0,0,1,0-25.68h57.65a12.65,12.65,0,0,1,12.63,12.63,13.06,13.06,0,0,1-13,13Z"/><path class="cls-134" d="M697.08,427.15a10.27,10.27,0,0,1,10.27,10.27,10.68,10.68,0,0,1-10.68,10.68H639.43a10.47,10.47,0,1,1,0-20.94h57.65m0-4.74H639.43a15.21,15.21,0,0,0,0,30.41h57.24a15.43,15.43,0,0,0,15.41-15.41,15,15,0,0,0-15-15Z"/><path class="cls-133" d="M637.4,454.28a12.84,12.84,0,0,1,0-25.68h57.65a12.65,12.65,0,0,1,12.63,12.63,13.06,13.06,0,0,1-13,13Z"/><path class="cls-134" d="M695.05,431a10.27,10.27,0,0,1,10.27,10.27,10.68,10.68,0,0,1-10.68,10.68H637.4a10.47,10.47,0,1,1,0-20.94h57.65m0-4.74H637.4a15.21,15.21,0,0,0,0,30.41h57.24a15.43,15.43,0,0,0,15.41-15.41,15,15,0,0,0-15-15Z"/><path class="cls-134" d="M687.74,462.72a1.55,1.55,0,0,1,2.69-.73l4.08,4.66a1.55,1.55,0,1,1-2.33,2L688.09,464A1.55,1.55,0,0,1,687.74,462.72Z"/><path class="cls-134" d="M680.52,466.29a1.55,1.55,0,0,1,3-.48l2.65,6.62a1.55,1.55,0,0,1-2.88,1.15L680.63,467A1.54,1.54,0,0,1,680.52,466.29Z"/><path class="cls-134" d="M648.92,463.36a1.55,1.55,0,0,0-2.62-.95l-4.45,4.31a1.55,1.55,0,1,0,2.15,2.23l4.45-4.31A1.55,1.55,0,0,0,648.92,463.36Z"/><path class="cls-134" d="M657.17,466.6a1.55,1.55,0,0,0-2.95-.68l-3.08,6.43a1.55,1.55,0,0,0,2.79,1.34l3.08-6.43A1.54,1.54,0,0,0,657.17,466.6Z"/><path class="cls-134" d="M672.8,475.49l-1-6.44a1.55,1.55,0,1,1,3.06-.49l1,6.44a1.55,1.55,0,0,1-3.06.49Z"/><path class="cls-134" d="M661.56,475l1.53-6.35a1.55,1.55,0,1,1,3,.72l-1.53,6.35a1.55,1.55,0,1,1-3-.72Z"/><path class="cls-134" d="M687.74,416.68a1.55,1.55,0,0,0,2.69.73l4.08-4.66a1.55,1.55,0,1,0-2.33-2l-4.08,4.66A1.55,1.55,0,0,0,687.74,416.68Z"/><path class="cls-134" d="M680.52,413.11a1.55,1.55,0,0,0,3,.48l2.65-6.62a1.55,1.55,0,0,0-2.88-1.15l-2.65,6.62A1.54,1.54,0,0,0,680.52,413.11Z"/><path class="cls-134" d="M648.92,416a1.55,1.55,0,0,1-2.62.95l-4.45-4.31a1.55,1.55,0,1,1,2.15-2.23l4.45,4.31A1.55,1.55,0,0,1,648.92,416Z"/><path class="cls-134" d="M657.17,412.8a1.55,1.55,0,0,1-2.95.68L651.14,407a1.55,1.55,0,0,1,2.79-1.34l3.08,6.43A1.54,1.54,0,0,1,657.17,412.8Z"/><path class="cls-134" d="M672.8,403.91l-1,6.44a1.55,1.55,0,1,0,3.06.49l1-6.44a1.55,1.55,0,0,0-3.06-.49Z"/><path class="cls-134" d="M661.56,404.43l1.53,6.35a1.55,1.55,0,0,0,3-.72l-1.53-6.35a1.55,1.55,0,0,0-3,.72Z"/><circle class="cls-133" cx="733.53" cy="443.8" r="5.21"/><path class="cls-135" d="M655.26,439.69a1.16,1.16,0,0,1,1.16-1.16h1.76a1,1,0,1,0,0-2h-3.72a1.16,1.16,0,0,0-1.16,1.16v9.58a1.16,1.16,0,0,0,1.16,1.16h4.4a1,1,0,1,0,0-2h-2.44a1.16,1.16,0,0,1-1.16-1.16Z"/><path class="cls-135" d="M673.11,447.37a1.16,1.16,0,0,0,1.16,1.16h3.59a1.16,1.16,0,0,0,1.16-1.16v-9.7a1.16,1.16,0,0,0-1.16-1.16h-3.59a1.16,1.16,0,0,0-1.16,1.16Zm2.95-9a1.12,1.12,0,0,1,1.08,1.16v6a1.08,1.08,0,1,1-2.16,0v-6A1.12,1.12,0,0,1,676.06,438.39Z"/><path class="cls-135" d="M669.43,447.32a1,1,0,1,0,2,0v-9.58a1,1,0,1,0-2,0Z"/><path class="cls-135" d="M661.59,436.58a1,1,0,1,0,0,2h.67a1.16,1.16,0,0,1,1.16,1.16v7.63a1,1,0,1,0,2,0v-7.63a1.16,1.16,0,0,1,1.16-1.16h.74a1,1,0,1,0,0-2Z"/><path class="cls-135" d="M648,434.62a1,1,0,1,0,0,2h.66a1.16,1.16,0,0,1,1.16,1.16v2.66a1.16,1.16,0,0,1-1.16,1.16H648a1.16,1.16,0,0,1-1.16-1.16v-2.66a1,1,0,1,0-2,0v9.64a1,1,0,1,0,2,0v-2.71A1.16,1.16,0,0,1,648,443.5h.66a1.16,1.16,0,0,1,1.16,1.16v2.71a1,1,0,1,0,2,0V435.78a1.16,1.16,0,0,0-1.16-1.16Z"/><path class="cls-135" d="M688.37,437.91c0-.76-.44-1.39-1-1.39s-1,.62-1,1.39l0,4.23c0,.76-.33.85-.73.2l-2.47-4.07a1.58,1.58,0,0,0-1.61-.87,1.85,1.85,0,0,0-.89,1.7v7.61c0,.76.44,1.39,1,1.39s1-.62,1-1.39v-3.86c0-.76.3-.84.68-.18l2.6,4.65c.37.67,1.07,1.09,1.56.95a1.74,1.74,0,0,0,.89-1.65Z"/><circle class="cls-136" cx="747" cy="443.8" r="5.21"/><circle class="cls-136" cx="760.83" cy="443.8" r="5.21"/><path class="cls-137" d="M715.32,554a2.12,2.12,0,0,0,2.17-2,2,2,0,0,0-2.14-1.86h-5.8a1.79,1.79,0,0,1-1.83-2.13l1.1-7H691.58a2.71,2.71,0,0,0-2.55,2.42l-1.5,9a1.87,1.87,0,0,0,1.69,2.43,2.09,2.09,0,0,0,2.1-2l1-5.76a2.49,2.49,0,0,1,2.28-2.14c1.07,0,1.59,1,1.39,2.13l-4.73,27.57a2.66,2.66,0,0,1-2.53,2.13h-2.62a2.62,2.62,0,0,0-2.5,2.14L683,582.6a1.88,1.88,0,0,0,1.83,2.14,2.24,2.24,0,0,0,2.06-1.95,2.59,2.59,0,0,1,2.52-1.95h2a3.81,3.81,0,0,0,3.59-3l2.07-10.94a2.72,2.72,0,0,1,2.56-2.12h6.25a1.8,1.8,0,0,1,1.83,2.14l-2.39,15.25a2.15,2.15,0,0,0,2.19,2.56h3.86c1.19,0,2.39-.55,2.39-2,0-.68-.55-1.7-2.16-1.7h0a1.8,1.8,0,0,1-1.83-2.14l2.37-15.11a2.56,2.56,0,0,0-2.61-3h-1.61a1.8,1.8,0,0,1-1.83-2.14l.72-4.56Z"/><path class="cls-137" d="M703.88,530a1.18,1.18,0,0,1,2.2.24l2.86,6.26a1.28,1.28,0,0,1-1.26,2h-8c-1.19,0-1.57-.78-.86-1.72Z"/><path class="cls-137" d="M709.2,529.11a1.14,1.14,0,0,1-.9-1.85l2.81-3.61a1.14,1.14,0,1,1,1.8,1.41l-2.81,3.61A1.14,1.14,0,0,1,709.2,529.11Z"/><path class="cls-137" d="M711.34,533.12a1.14,1.14,0,0,1-.49-2.18l4.76-2.25a1.14,1.14,0,0,1,1,2.07L711.82,533A1.14,1.14,0,0,1,711.34,533.12Z"/><path class="cls-137" d="M717.65,537.4h-4.82a1.14,1.14,0,1,1,0-2.29h4.82a1.14,1.14,0,0,1,0,2.29Z"/><path class="cls-137" d="M642.89,529.11a1.14,1.14,0,0,1-.9-1.85l2.81-3.61a1.14,1.14,0,1,1,1.8,1.41l-2.81,3.61A1.14,1.14,0,0,1,642.89,529.11Z"/><path class="cls-137" d="M645,533.12a1.14,1.14,0,0,1-.49-2.18l4.76-2.25a1.14,1.14,0,0,1,1,2.07L645.52,533A1.14,1.14,0,0,1,645,533.12Z"/><path class="cls-137" d="M651.34,537.4h-4.82a1.14,1.14,0,0,1,0-2.29h4.82a1.14,1.14,0,0,1,0,2.29Z"/><path class="cls-137" d="M636.56,530a1.18,1.18,0,0,1,2.2.24l2.86,6.26a1.28,1.28,0,0,1-1.26,2h-8c-1.19,0-1.57-.78-.86-1.72Z"/><path class="cls-137" d="M638.14,564.18s.16-1,.34-2.14l.24-1.58a2.6,2.6,0,0,1,2.48-2.14h3.43a2.54,2.54,0,0,0,2.47-2,1.77,1.77,0,0,0-1.85-2h-3.43a1.81,1.81,0,0,1-1.84-2.14l1.66-11h-15.1a2.53,2.53,0,0,0-2.36,2.14l-1.34,8.93a1.76,1.76,0,0,0,1.72,2.14,1.76,1.76,0,0,1,1.72,2.14l-.22,1.45-.64,4.23-.64,4.23-.28,1.87a2.53,2.53,0,0,1-2.36,2.14H618a2.47,2.47,0,0,0-2.35,2l-.61,4a1.7,1.7,0,0,0,1.74,2,2.43,2.43,0,0,0,2.34-2,2.51,2.51,0,0,1,2.46-2h3.84a2.54,2.54,0,0,0,2.47-2l.63-4.18.28-1.87a2.6,2.6,0,0,1,2.48-2.14h.54a1.81,1.81,0,0,1,1.84,2.14l-1.83,12.2-.63,4.18a1.77,1.77,0,0,0,1.85,2h3.43a2.54,2.54,0,0,0,2.47-2,1.64,1.64,0,0,0-1.53-2,1.69,1.69,0,0,1-1.52-2.14l1.83-12.2C638,565.15,638.13,564.18,638.14,564.18Z"/><path class="cls-137" d="M675,529.11a1.14,1.14,0,0,1-.9-1.85l2.81-3.61a1.14,1.14,0,1,1,1.8,1.41l-2.81,3.61A1.14,1.14,0,0,1,675,529.11Z"/><path class="cls-137" d="M677.14,533.12a1.14,1.14,0,0,1-.49-2.18l3.26-1.54a1.14,1.14,0,0,1,1,2.07L677.63,533A1.14,1.14,0,0,1,677.14,533.12Z"/><path class="cls-137" d="M683.46,537.4h-4.82a1.14,1.14,0,0,1,0-2.29h4.82a1.14,1.14,0,0,1,0,2.29Z"/><path class="cls-137" d="M668.62,530a1.18,1.18,0,0,1,2.2.24l2.86,6.26a1.28,1.28,0,0,1-1.26,2h-8c-1.19,0-1.57-.78-.86-1.72Z"/><path class="cls-137" d="M683.89,543.1l.63-4.18.73-4.85a1.76,1.76,0,0,0-1.72-2.14,2.53,2.53,0,0,0-2.36,2.14l-.73,4.85a2.6,2.6,0,0,1-2.48,2.14H654.46a2.54,2.54,0,0,0-2.47,2l-.63,4.18-.73,4.85a1.76,1.76,0,0,0,1.72,2.14,2.53,2.53,0,0,0,2.36-2.14l.73-4.85a2.53,2.53,0,0,1,2.36-2.14,1.76,1.76,0,0,1,1.72,2.14L657.31,562a1.81,1.81,0,0,0,1.84,2.14h.31a1.81,1.81,0,0,1,1.84,2.14l-1.23,8.17a2.53,2.53,0,0,1-2.36,2.14h-4.08a2.47,2.47,0,0,0-2.35,2l-.61,4a1.7,1.7,0,0,0,1.74,2,2.43,2.43,0,0,0,2.34-2,2.51,2.51,0,0,1,2.46-2h3.84a2.54,2.54,0,0,0,2.47-2l.63-4.18,1.23-8.17a10.69,10.69,0,0,1,.44-2.14h6.25a1.76,1.76,0,0,1,1.7,2.14l-.29,1.92-.33,2.19-.31,2a1.75,1.75,0,0,0,1.86,2h3.43a2.54,2.54,0,0,0,2.47-2,1.64,1.64,0,0,0-1.53-2,1.69,1.69,0,0,1-1.52-2.14l.29-1.92.63-4.18a1.72,1.72,0,0,0-1.73-2h-4.07A1.76,1.76,0,0,1,671,558l1.61-10.68a2.6,2.6,0,0,1,2.48-2.14h8.51l.31-2Z"/><line class="cls-137" x1="684.6" y1="526.51" x2="686.74" y2="512.36"/><path class="cls-137" d="M684.61,528.14l-.24,0a1.63,1.63,0,0,1-1.37-1.85l2.13-14.14a1.63,1.63,0,1,1,3.22.49l-2.13,14.14A1.63,1.63,0,0,1,684.61,528.14Z"/><polygon class="cls-137" points="687.58 517.69 656.79 517.69 657.92 510.22 688.71 510.22 687.58 517.69"/><path class="cls-133" d="M712.94,554a2.12,2.12,0,0,0,2.17-2,2,2,0,0,0-2.14-1.86h-5.8a1.79,1.79,0,0,1-1.83-2.13l1.1-7H689.19a2.71,2.71,0,0,0-2.55,2.42l-1.5,9a1.87,1.87,0,0,0,1.69,2.43,2.09,2.09,0,0,0,2.1-2l1-5.76a2.49,2.49,0,0,1,2.28-2.14c1.07,0,1.59,1,1.39,2.13l-4.73,27.57a2.66,2.66,0,0,1-2.53,2.13H683.7a2.62,2.62,0,0,0-2.5,2.14l-.56,3.57a1.88,1.88,0,0,0,1.83,2.14,2.24,2.24,0,0,0,2.06-1.95,2.59,2.59,0,0,1,2.52-1.95h2a3.81,3.81,0,0,0,3.59-3l2.07-10.94a2.72,2.72,0,0,1,2.56-2.12h6.25a1.8,1.8,0,0,1,1.83,2.14l-2.39,15.25a2.15,2.15,0,0,0,2.19,2.56H709c1.19,0,2.39-.55,2.39-2,0-.68-.55-1.7-2.16-1.7h0a1.8,1.8,0,0,1-1.83-2.14l2.37-15.11a2.56,2.56,0,0,0-2.61-3h-1.61a1.8,1.8,0,0,1-1.83-2.14l.72-4.56Z"/><path class="cls-133" d="M701.49,530a1.18,1.18,0,0,1,2.2.24l2.86,6.26a1.28,1.28,0,0,1-1.26,2h-8c-1.19,0-1.57-.78-.86-1.72Z"/><path class="cls-133" d="M706.81,529.11a1.14,1.14,0,0,1-.9-1.85l2.81-3.61a1.14,1.14,0,1,1,1.8,1.41l-2.81,3.61A1.14,1.14,0,0,1,706.81,529.11Z"/><path class="cls-133" d="M708.95,533.12a1.14,1.14,0,0,1-.49-2.18l4.76-2.25a1.14,1.14,0,0,1,1,2.07L709.44,533A1.14,1.14,0,0,1,708.95,533.12Z"/><path class="cls-133" d="M715.26,537.4h-4.82a1.14,1.14,0,0,1,0-2.29h4.82a1.14,1.14,0,0,1,0,2.29Z"/><path class="cls-133" d="M640.5,529.11a1.14,1.14,0,0,1-.9-1.85l2.81-3.61a1.14,1.14,0,1,1,1.8,1.41l-2.81,3.61A1.14,1.14,0,0,1,640.5,529.11Z"/><path class="cls-133" d="M642.64,533.12a1.14,1.14,0,0,1-.49-2.18l4.76-2.25a1.14,1.14,0,0,1,1,2.07L643.13,533A1.14,1.14,0,0,1,642.64,533.12Z"/><path class="cls-133" d="M649,537.4h-4.82a1.14,1.14,0,0,1,0-2.29H649a1.14,1.14,0,1,1,0,2.29Z"/><path class="cls-133" d="M634.17,530a1.18,1.18,0,0,1,2.2.24l2.86,6.26a1.28,1.28,0,0,1-1.26,2h-8c-1.19,0-1.57-.78-.86-1.72Z"/><path class="cls-133" d="M635.75,564.18s.16-1,.34-2.14l.24-1.58a2.6,2.6,0,0,1,2.48-2.14h3.43a2.54,2.54,0,0,0,2.47-2,1.77,1.77,0,0,0-1.85-2h-3.43a1.81,1.81,0,0,1-1.84-2.14l1.66-11h-15.1a2.53,2.53,0,0,0-2.36,2.14l-1.34,8.93a1.76,1.76,0,0,0,1.72,2.14,1.76,1.76,0,0,1,1.72,2.14l-.22,1.45-.64,4.23-.64,4.23-.28,1.87a2.53,2.53,0,0,1-2.36,2.14h-4.08a2.47,2.47,0,0,0-2.35,2l-.61,4a1.7,1.7,0,0,0,1.74,2,2.43,2.43,0,0,0,2.34-2,2.51,2.51,0,0,1,2.46-2h3.84a2.54,2.54,0,0,0,2.47-2l.63-4.18.28-1.87a2.6,2.6,0,0,1,2.48-2.14h.54a1.81,1.81,0,0,1,1.84,2.14l-1.83,12.2-.63,4.18a1.77,1.77,0,0,0,1.85,2h3.43a2.54,2.54,0,0,0,2.47-2,1.64,1.64,0,0,0-1.53-2,1.69,1.69,0,0,1-1.52-2.14l1.83-12.2C635.59,565.15,635.74,564.18,635.75,564.18Z"/><path class="cls-133" d="M672.62,529.11a1.14,1.14,0,0,1-.9-1.85l2.81-3.61a1.14,1.14,0,1,1,1.8,1.41l-2.81,3.61A1.14,1.14,0,0,1,672.62,529.11Z"/><path class="cls-133" d="M674.76,533.12a1.14,1.14,0,0,1-.49-2.18l3.26-1.54a1.14,1.14,0,0,1,1,2.07L675.25,533A1.14,1.14,0,0,1,674.76,533.12Z"/><path class="cls-133" d="M681.07,537.4h-4.82a1.14,1.14,0,0,1,0-2.29h4.82a1.14,1.14,0,0,1,0,2.29Z"/><path class="cls-133" d="M666.24,530a1.18,1.18,0,0,1,2.2.24l2.86,6.26a1.28,1.28,0,0,1-1.26,2h-8c-1.19,0-1.57-.78-.86-1.72Z"/><path class="cls-133" d="M681.5,543.1l.63-4.18.73-4.85a1.76,1.76,0,0,0-1.72-2.14,2.53,2.53,0,0,0-2.36,2.14l-.73,4.85a2.6,2.6,0,0,1-2.48,2.14H652.08a2.54,2.54,0,0,0-2.47,2l-.63,4.18-.73,4.85a1.76,1.76,0,0,0,1.72,2.14,2.53,2.53,0,0,0,2.36-2.14l.73-4.85a2.53,2.53,0,0,1,2.36-2.14,1.76,1.76,0,0,1,1.72,2.14L654.92,562a1.81,1.81,0,0,0,1.84,2.14h.31a1.81,1.81,0,0,1,1.84,2.14l-1.23,8.17a2.53,2.53,0,0,1-2.36,2.14h-4.08a2.47,2.47,0,0,0-2.35,2l-.61,4a1.7,1.7,0,0,0,1.74,2,2.43,2.43,0,0,0,2.34-2,2.51,2.51,0,0,1,2.46-2h3.84a2.54,2.54,0,0,0,2.47-2l.63-4.18,1.23-8.17a10.69,10.69,0,0,1,.44-2.14h6.25a1.76,1.76,0,0,1,1.7,2.14l-.29,1.92-.33,2.19-.31,2a1.75,1.75,0,0,0,1.86,2h3.43a2.54,2.54,0,0,0,2.47-2,1.64,1.64,0,0,0-1.53-2,1.69,1.69,0,0,1-1.52-2.14l.29-1.92.63-4.18a1.72,1.72,0,0,0-1.73-2H670.3a1.76,1.76,0,0,1-1.7-2.14l1.61-10.68a2.6,2.6,0,0,1,2.48-2.14h8.51l.31-2Z"/><line class="cls-133" x1="682.22" y1="526.51" x2="684.35" y2="512.36"/><path class="cls-133" d="M682.22,528.14l-.24,0a1.63,1.63,0,0,1-1.37-1.85l2.13-14.14a1.63,1.63,0,1,1,3.22.49l-2.13,14.14A1.63,1.63,0,0,1,682.22,528.14Z"/><polygon class="cls-133" points="685.19 517.69 654.4 517.69 655.54 510.22 686.32 510.22 685.19 517.69"/><path class="cls-136" d="M714.24,554.06a2.12,2.12,0,0,0,2.17-2,2,2,0,0,0-2.14-1.86h-5.8a1.79,1.79,0,0,1-1.83-2.13l1.1-7H690.5a2.71,2.71,0,0,0-2.55,2.42l-1.5,9a1.87,1.87,0,0,0,1.69,2.43,2.09,2.09,0,0,0,2.1-2l1-5.76a2.49,2.49,0,0,1,2.28-2.14c1.07,0,1.59,1,1.39,2.13l-4.73,27.57a2.66,2.66,0,0,1-2.53,2.13H685a2.62,2.62,0,0,0-2.5,2.14l-.56,3.57a1.88,1.88,0,0,0,1.83,2.14,2.24,2.24,0,0,0,2.06-1.95,2.59,2.59,0,0,1,2.52-1.95h2a3.81,3.81,0,0,0,3.59-3L696,567a2.72,2.72,0,0,1,2.56-2.12h6.25a1.8,1.8,0,0,1,1.83,2.14l-2.39,15.25a2.15,2.15,0,0,0,2.19,2.56h3.86c1.19,0,2.39-.55,2.39-2,0-.68-.55-1.7-2.16-1.7h0a1.8,1.8,0,0,1-1.83-2.14L711,563.81a2.56,2.56,0,0,0-2.61-3h-1.61a1.8,1.8,0,0,1-1.83-2.14l.72-4.56Z"/><path class="cls-136" d="M702.79,530a1.18,1.18,0,0,1,2.2.24l2.86,6.26a1.28,1.28,0,0,1-1.26,2h-8c-1.19,0-1.57-.78-.86-1.72Z"/><path class="cls-136" d="M708.11,529.13a1.14,1.14,0,0,1-.9-1.85l2.81-3.61a1.14,1.14,0,1,1,1.8,1.41L709,528.69A1.14,1.14,0,0,1,708.11,529.13Z"/><path class="cls-136" d="M710.25,533.14a1.14,1.14,0,0,1-.49-2.18l4.76-2.25a1.14,1.14,0,0,1,1,2.07L710.74,533A1.14,1.14,0,0,1,710.25,533.14Z"/><path class="cls-136" d="M716.57,537.42h-4.82a1.14,1.14,0,1,1,0-2.29h4.82a1.14,1.14,0,0,1,0,2.29Z"/><path class="cls-136" d="M641.81,529.13a1.14,1.14,0,0,1-.9-1.85l2.81-3.61a1.14,1.14,0,1,1,1.8,1.41l-2.81,3.61A1.14,1.14,0,0,1,641.81,529.13Z"/><path class="cls-136" d="M643.94,533.14a1.14,1.14,0,0,1-.49-2.18l4.76-2.25a1.14,1.14,0,0,1,1,2.07L644.43,533A1.14,1.14,0,0,1,643.94,533.14Z"/><path class="cls-136" d="M650.26,537.42h-4.82a1.14,1.14,0,0,1,0-2.29h4.82a1.14,1.14,0,1,1,0,2.29Z"/><path class="cls-136" d="M635.48,530a1.18,1.18,0,0,1,2.2.24l2.86,6.26a1.28,1.28,0,0,1-1.26,2h-8c-1.19,0-1.57-.78-.86-1.72Z"/><path class="cls-136" d="M637.05,564.21s.16-1,.34-2.14l.24-1.58a2.6,2.6,0,0,1,2.48-2.14h3.43a2.54,2.54,0,0,0,2.47-2,1.77,1.77,0,0,0-1.85-2h-3.43a1.81,1.81,0,0,1-1.84-2.14l1.66-11h-15.1a2.53,2.53,0,0,0-2.36,2.14l-1.34,8.93a1.76,1.76,0,0,0,1.72,2.14,1.76,1.76,0,0,1,1.72,2.14l-.22,1.45-.64,4.23-.64,4.23-.28,1.87a2.53,2.53,0,0,1-2.36,2.14H617a2.47,2.47,0,0,0-2.35,2l-.61,4a1.7,1.7,0,0,0,1.74,2,2.43,2.43,0,0,0,2.34-2,2.51,2.51,0,0,1,2.46-2h3.84a2.54,2.54,0,0,0,2.47-2l.63-4.18.28-1.87a2.6,2.6,0,0,1,2.48-2.14h.54a1.81,1.81,0,0,1,1.84,2.14l-1.83,12.2-.63,4.18a1.77,1.77,0,0,0,1.85,2h3.43a2.54,2.54,0,0,0,2.47-2,1.64,1.64,0,0,0-1.53-2,1.69,1.69,0,0,1-1.52-2.14l1.83-12.2C636.89,565.17,637,564.21,637.05,564.21Z"/><path class="cls-136" d="M673.92,529.13a1.14,1.14,0,0,1-.9-1.85l2.81-3.61a1.14,1.14,0,1,1,1.8,1.41l-2.81,3.61A1.14,1.14,0,0,1,673.92,529.13Z"/><path class="cls-136" d="M676.06,533.14a1.14,1.14,0,0,1-.49-2.18l3.26-1.54a1.14,1.14,0,0,1,1,2.07L676.55,533A1.14,1.14,0,0,1,676.06,533.14Z"/><path class="cls-136" d="M682.37,537.42h-4.82a1.14,1.14,0,0,1,0-2.29h4.82a1.14,1.14,0,0,1,0,2.29Z"/><path class="cls-136" d="M667.54,530a1.18,1.18,0,0,1,2.2.24l2.86,6.26a1.28,1.28,0,0,1-1.26,2h-8c-1.19,0-1.57-.78-.86-1.72Z"/><path class="cls-136" d="M682.8,543.13l.63-4.18.73-4.85a1.76,1.76,0,0,0-1.72-2.14,2.53,2.53,0,0,0-2.36,2.14l-.73,4.85a2.6,2.6,0,0,1-2.48,2.14H653.38a2.54,2.54,0,0,0-2.47,2l-.63,4.18-.73,4.85a1.76,1.76,0,0,0,1.72,2.14,2.53,2.53,0,0,0,2.36-2.14l.73-4.85a2.53,2.53,0,0,1,2.36-2.14,1.76,1.76,0,0,1,1.72,2.14l-2.22,14.77a1.81,1.81,0,0,0,1.84,2.14h.31a1.81,1.81,0,0,1,1.84,2.14L659,574.52a2.53,2.53,0,0,1-2.36,2.14h-4.08a2.47,2.47,0,0,0-2.35,2l-.61,4a1.7,1.7,0,0,0,1.74,2,2.43,2.43,0,0,0,2.34-2,2.51,2.51,0,0,1,2.46-2H660a2.54,2.54,0,0,0,2.47-2l.63-4.18,1.23-8.17a10.69,10.69,0,0,1,.44-2.14H671a1.76,1.76,0,0,1,1.7,2.14l-.29,1.92-.33,2.19-.31,2a1.75,1.75,0,0,0,1.86,2h3.43a2.54,2.54,0,0,0,2.47-2,1.64,1.64,0,0,0-1.53-2,1.69,1.69,0,0,1-1.52-2.14l.29-1.92.63-4.18a1.72,1.72,0,0,0-1.73-2H671.6a1.76,1.76,0,0,1-1.7-2.14l1.61-10.68a2.6,2.6,0,0,1,2.48-2.14h8.51l.31-2Z"/><line class="cls-136" x1="683.52" y1="526.53" x2="685.65" y2="512.39"/><path class="cls-136" d="M683.52,528.16l-.24,0a1.63,1.63,0,0,1-1.37-1.85L684,512.15a1.63,1.63,0,1,1,3.22.49l-2.13,14.14A1.63,1.63,0,0,1,683.52,528.16Z"/><polygon class="cls-136" points="686.49 517.71 655.71 517.71 656.84 510.25 687.62 510.25 686.49 517.71"/><path class="cls-135" d="M886.15,464.66l39.61,67.77a21.6,21.6,0,0,1-18.64,32.49H824.86a21.6,21.6,0,0,1-18.28-33.1l42.64-67.77A21.6,21.6,0,0,1,886.15,464.66Z"/><path class="cls-135" d="M883.61,429.69l34.62,59.24a18.88,18.88,0,0,1-16.3,28.4H830a18.88,18.88,0,0,1-16-28.93l37.27-59.24A18.88,18.88,0,0,1,883.61,429.69Z"/><path class="cls-135" d="M880.46,404.27l28.43,48.65a15.5,15.5,0,0,1-13.38,23.32h-59a15.5,15.5,0,0,1-13.12-23.76L854,403.84A15.5,15.5,0,0,1,880.46,404.27Z"/><line class="cls-138" x1="868.39" y1="540.05" x2="894.74" y2="510.35"/><line class="cls-138" x1="865.99" y1="562.24" x2="836.74" y2="533"/><line class="cls-139" x1="865.99" y1="650.88" x2="865.99" y2="433.81"/><line class="cls-138" x1="868.39" y1="504.05" x2="886.21" y2="482.09"/><line class="cls-138" x1="865.78" y1="521.44" x2="842.45" y2="498.1"/><line class="cls-138" x1="868.39" y1="465.83" x2="880.93" y2="450.37"/><line class="cls-138" x1="865.99" y1="487.17" x2="850.53" y2="471.72"/><path class="cls-140" d="M985.21,462.6l40.26,68.89a22,22,0,0,1-19,33h-83.6a22,22,0,0,1-18.58-33.64L947.68,462A22,22,0,0,1,985.21,462.6Z"/><path class="cls-140" d="M982.63,427.06l35.19,60.21a19.18,19.18,0,0,1-16.56,28.86H928.18a19.18,19.18,0,0,1-16.24-29.4l37.88-60.21A19.18,19.18,0,0,1,982.63,427.06Z"/><path class="cls-140" d="M979.43,401.22l28.9,49.45a15.76,15.76,0,0,1-13.6,23.71h-60a15.76,15.76,0,0,1-13.34-24.15l31.11-49.45A15.76,15.76,0,0,1,979.43,401.22Z"/><line class="cls-141" x1="967.17" y1="540.51" x2="993.94" y2="510.32"/><line class="cls-141" x1="964.72" y1="561.78" x2="935" y2="532.06"/><line class="cls-142" x1="964.72" y1="649.83" x2="964.72" y2="430.92"/><line class="cls-141" x1="967.17" y1="502.63" x2="985.27" y2="480.31"/><line class="cls-141" x1="964.51" y1="520.31" x2="940.8" y2="496.59"/><line class="cls-141" x1="967.17" y1="463.79" x2="979.91" y2="448.08"/><line class="cls-141" x1="964.72" y1="485.49" x2="949.01" y2="469.78"/><path class="cls-143" d="M1084.27,460.54l40.91,70a22.3,22.3,0,0,1-19.26,33.56H1021a22.3,22.3,0,0,1-18.88-34.18l44-70A22.3,22.3,0,0,1,1084.27,460.54Z"/><path class="cls-143" d="M1081.65,424.42l35.75,61.18a19.49,19.49,0,0,1-16.83,29.33h-74.25a19.49,19.49,0,0,1-16.5-29.88l38.49-61.18A19.49,19.49,0,0,1,1081.65,424.42Z"/><path class="cls-143" d="M1078.4,398.18l29.36,50.25a16,16,0,0,1-13.82,24.09h-61A16,16,0,0,1,1019.41,448L1051,397.73A16,16,0,0,1,1078.4,398.18Z"/><line class="cls-144" x1="1065.94" y1="540.96" x2="1093.14" y2="510.29"/><line class="cls-144" x1="1063.45" y1="561.32" x2="1033.25" y2="531.12"/><line class="cls-145" x1="1063.45" y1="648.78" x2="1063.45" y2="428.02"/><line class="cls-144" x1="1065.94" y1="501.22" x2="1084.34" y2="478.54"/><line class="cls-144" x1="1063.24" y1="519.18" x2="1039.14" y2="495.08"/><line class="cls-144" x1="1065.94" y1="461.75" x2="1078.88" y2="445.79"/><line class="cls-144" x1="1063.45" y1="483.8" x2="1047.49" y2="467.84"/><path class="cls-146" d="M1183.34,458.48l41.55,71.11a22.66,22.66,0,0,1-19.56,34.09H1119A22.66,22.66,0,0,1,1099.86,529l44.74-71.11A22.66,22.66,0,0,1,1183.34,458.48Z"/><path class="cls-146" d="M1180.67,421.79,1217,483.94a19.8,19.8,0,0,1-17.1,29.79h-75.43a19.8,19.8,0,0,1-16.76-30.35l39.1-62.15A19.8,19.8,0,0,1,1180.67,421.79Z"/><path class="cls-146" d="M1177.37,395.13l29.83,51a16.26,16.26,0,0,1-14,24.47h-61.95a16.26,16.26,0,0,1-13.77-24.92l32.12-51A16.26,16.26,0,0,1,1177.37,395.13Z"/><line class="cls-147" x1="1164.71" y1="541.42" x2="1192.35" y2="510.26"/><line class="cls-147" x1="1162.18" y1="560.86" x2="1131.5" y2="530.18"/><line class="cls-148" x1="1162.18" y1="647.74" x2="1162.18" y2="425.13"/><line class="cls-147" x1="1164.71" y1="499.81" x2="1183.4" y2="476.77"/><line class="cls-147" x1="1161.97" y1="518.05" x2="1137.49" y2="493.57"/><line class="cls-147" x1="1164.71" y1="459.71" x2="1177.86" y2="443.5"/><line class="cls-147" x1="1162.18" y1="482.11" x2="1145.97" y2="465.9"/><path class="cls-149" d="M1282.4,456.42l42.2,72.22a23,23,0,0,1-19.87,34.62h-87.64A23,23,0,0,1,1197.62,528l45.44-72.22A23,23,0,0,1,1282.4,456.42Z"/><path class="cls-149" d="M1279.69,419.16l36.89,63.12a20.11,20.11,0,0,1-17.36,30.26h-76.6a20.11,20.11,0,0,1-17-30.82l39.72-63.12A20.11,20.11,0,0,1,1279.69,419.16Z"/><path class="cls-149" d="M1276.34,392.08l30.3,51.84a16.52,16.52,0,0,1-14.26,24.85h-62.91a16.52,16.52,0,0,1-14-25.31l32.62-51.84A16.52,16.52,0,0,1,1276.34,392.08Z"/><line class="cls-150" x1="1263.48" y1="541.88" x2="1291.55" y2="510.23"/><line class="cls-150" x1="1260.91" y1="560.4" x2="1229.76" y2="529.24"/><line class="cls-151" x1="1260.91" y1="646.69" x2="1260.91" y2="422.23"/><line class="cls-150" x1="1263.48" y1="498.4" x2="1282.46" y2="475"/><line class="cls-150" x1="1260.7" y1="516.93" x2="1235.84" y2="492.06"/><line class="cls-150" x1="1263.48" y1="457.67" x2="1276.84" y2="441.21"/><line class="cls-150" x1="1260.91" y1="480.42" x2="1244.45" y2="463.95"/><path class="cls-135" d="M441.63,464.66,402,532.43a21.6,21.6,0,0,0,18.64,32.49h82.25a21.6,21.6,0,0,0,18.28-33.1l-42.64-67.77A21.6,21.6,0,0,0,441.63,464.66Z"/><path class="cls-135" d="M444.17,429.69l-34.62,59.24a18.88,18.88,0,0,0,16.3,28.4h71.89a18.88,18.88,0,0,0,16-28.93l-37.27-59.24A18.88,18.88,0,0,0,444.17,429.69Z"/><path class="cls-135" d="M447.32,404.27l-28.43,48.65a15.5,15.5,0,0,0,13.38,23.32h59a15.5,15.5,0,0,0,13.12-23.76l-30.61-48.65A15.5,15.5,0,0,0,447.32,404.27Z"/><line class="cls-138" x1="459.39" y1="540.05" x2="433.05" y2="510.35"/><line class="cls-138" x1="461.8" y1="562.24" x2="491.04" y2="533"/><line class="cls-139" x1="461.8" y1="650.88" x2="461.8" y2="433.81"/><line class="cls-138" x1="459.39" y1="504.05" x2="441.57" y2="482.09"/><line class="cls-138" x1="462" y1="521.44" x2="485.33" y2="498.1"/><line class="cls-138" x1="459.39" y1="465.83" x2="446.85" y2="450.37"/><line class="cls-138" x1="461.8" y1="487.17" x2="477.25" y2="471.72"/><path class="cls-140" d="M342.57,462.6l-40.26,68.89a22,22,0,0,0,19,33h83.6a22,22,0,0,0,18.58-33.64L380.1,462A22,22,0,0,0,342.57,462.6Z"/><path class="cls-140" d="M345.15,427.06,310,487.26a19.18,19.18,0,0,0,16.56,28.86H399.6a19.18,19.18,0,0,0,16.24-29.4L378,426.52A19.18,19.18,0,0,0,345.15,427.06Z"/><path class="cls-140" d="M348.35,401.22l-28.9,49.45a15.76,15.76,0,0,0,13.6,23.71h60a15.76,15.76,0,0,0,13.34-24.15l-31.11-49.45A15.76,15.76,0,0,0,348.35,401.22Z"/><line class="cls-141" x1="360.62" y1="540.51" x2="333.84" y2="510.32"/><line class="cls-141" x1="363.06" y1="561.78" x2="392.78" y2="532.06"/><line class="cls-142" x1="363.06" y1="649.83" x2="363.06" y2="430.92"/><line class="cls-141" x1="360.62" y1="502.63" x2="342.51" y2="480.31"/><line class="cls-141" x1="363.27" y1="520.31" x2="386.98" y2="496.59"/><line class="cls-141" x1="360.62" y1="463.79" x2="347.87" y2="448.08"/><line class="cls-141" x1="363.06" y1="485.49" x2="378.77" y2="469.78"/><path class="cls-143" d="M243.51,460.54l-40.91,70a22.3,22.3,0,0,0,19.26,33.56H306.8a22.3,22.3,0,0,0,18.88-34.18l-44-70A22.3,22.3,0,0,0,243.51,460.54Z"/><path class="cls-143" d="M246.13,424.42,210.38,485.6a19.49,19.49,0,0,0,16.83,29.33h74.25A19.49,19.49,0,0,0,318,485.06l-38.49-61.18A19.49,19.49,0,0,0,246.13,424.42Z"/><path class="cls-143" d="M249.38,398.18,220,448.42a16,16,0,0,0,13.82,24.09h61A16,16,0,0,0,308.37,448l-31.61-50.25A16,16,0,0,0,249.38,398.18Z"/><line class="cls-144" x1="261.84" y1="540.96" x2="234.64" y2="510.29"/><line class="cls-144" x1="264.33" y1="561.32" x2="294.53" y2="531.12"/><line class="cls-145" x1="264.33" y1="648.78" x2="264.33" y2="428.02"/><line class="cls-144" x1="261.84" y1="501.22" x2="243.44" y2="478.54"/><line class="cls-144" x1="264.54" y1="519.18" x2="288.64" y2="495.08"/><line class="cls-144" x1="261.84" y1="461.75" x2="248.9" y2="445.79"/><line class="cls-144" x1="264.33" y1="483.8" x2="280.29" y2="467.84"/><path class="cls-146" d="M144.45,458.48l-41.55,71.11a22.66,22.66,0,0,0,19.56,34.09h86.29A22.66,22.66,0,0,0,227.92,529l-44.74-71.11A22.66,22.66,0,0,0,144.45,458.48Z"/><path class="cls-146" d="M147.11,421.79l-36.32,62.15a19.8,19.8,0,0,0,17.1,29.79h75.43a19.8,19.8,0,0,0,16.76-30.35L181,421.24A19.8,19.8,0,0,0,147.11,421.79Z"/><path class="cls-146" d="M150.41,395.13l-29.83,51a16.26,16.26,0,0,0,14,24.47h61.95a16.26,16.26,0,0,0,13.77-24.92l-32.12-51A16.26,16.26,0,0,0,150.41,395.13Z"/><line class="cls-147" x1="163.07" y1="541.42" x2="135.44" y2="510.26"/><line class="cls-147" x1="165.6" y1="560.86" x2="196.28" y2="530.18"/><line class="cls-148" x1="165.6" y1="647.74" x2="165.6" y2="425.13"/><line class="cls-147" x1="163.07" y1="499.81" x2="144.38" y2="476.77"/><line class="cls-147" x1="165.81" y1="518.05" x2="190.29" y2="493.57"/><line class="cls-147" x1="163.07" y1="459.71" x2="149.92" y2="443.5"/><line class="cls-147" x1="165.6" y1="482.11" x2="181.81" y2="465.9"/><path class="cls-149" d="M45.38,456.42,3.18,528.64A23,23,0,0,0,23,563.26h87.64A23,23,0,0,0,130.16,528L84.73,455.78A23,23,0,0,0,45.38,456.42Z"/><path class="cls-149" d="M48.09,419.16,11.2,482.28a20.11,20.11,0,0,0,17.36,30.26h76.6a20.11,20.11,0,0,0,17-30.82L82.48,418.6A20.11,20.11,0,0,0,48.09,419.16Z"/><path class="cls-149" d="M51.44,392.08l-30.3,51.84a16.52,16.52,0,0,0,14.26,24.85H98.32a16.52,16.52,0,0,0,14-25.31L79.69,391.62A16.52,16.52,0,0,0,51.44,392.08Z"/><line class="cls-150" x1="64.3" y1="541.88" x2="36.23" y2="510.23"/><line class="cls-150" x1="66.87" y1="560.4" x2="98.03" y2="529.24"/><line class="cls-151" x1="66.87" y1="646.69" x2="66.87" y2="422.23"/><line class="cls-150" x1="64.3" y1="498.4" x2="45.32" y2="475"/><line class="cls-150" x1="67.08" y1="516.93" x2="91.94" y2="492.06"/><line class="cls-150" x1="64.3" y1="457.67" x2="50.94" y2="441.21"/><line class="cls-150" x1="66.87" y1="480.42" x2="83.33" y2="463.95"/></g></g></svg>