<svg xmlns="http://www.w3.org/2000/svg" viewBox="0 0 680.34 123.06"><defs><style>.cls-1{fill:#004864;}.cls-2{fill:#fff;}</style></defs><title>資產 24</title><g id="圖層_2" data-name="圖層 2"><g id="資訊"><path class="cls-1" d="M12,34.57q5.28-4.9,13.81-4.9a22.13,22.13,0,0,1,6.34.88,14.92,14.92,0,0,1,5.21,2.71,12.83,12.83,0,0,1,3.56,4.65,15.65,15.65,0,0,1,1.3,6.62A13.3,13.3,0,0,1,40.65,51a20,20,0,0,1-4,5.14A34.53,34.53,0,0,1,31,60.32Q27.9,62.22,24.8,64t-5.92,3.56a23.18,23.18,0,0,0-4.72,3.8H38.47l-2,8.59H0a19.72,19.72,0,0,1,2-8,22,22,0,0,1,4.51-6,35.5,35.5,0,0,1,6.2-4.61q3.45-2,7-3.95,1.83-1.06,4-2.18a27,27,0,0,0,4-2.57,14.72,14.72,0,0,0,3.13-3.28,7.36,7.36,0,0,0,1.27-4.3q0-3.73-2.22-5.32a9,9,0,0,0-5.39-1.58,8.3,8.3,0,0,0-3.7.81,8.39,8.39,0,0,0-2.82,2.22,10.94,10.94,0,0,0-1.83,3.24,12.44,12.44,0,0,0-.74,3.87H6Q6.69,39.47,12,34.57Z" transform="translate(0 -2.16)"/><path class="cls-1" d="M42.48,54.76a46.56,46.56,0,0,1,1.87-7.33,36.08,36.08,0,0,1,3.17-6.83A26.35,26.35,0,0,1,52,34.92a19.87,19.87,0,0,1,5.85-3.84,18.08,18.08,0,0,1,7.22-1.41A17.78,17.78,0,0,1,72.35,31a13.84,13.84,0,0,1,5.14,3.84,16.51,16.51,0,0,1,3.06,5.88,26.39,26.39,0,0,1,1,7.57,45.58,45.58,0,0,1-.63,7.43A41.62,41.62,0,0,1,79,63.21,36.75,36.75,0,0,1,75.7,70,25.56,25.56,0,0,1,71,75.68,21.29,21.29,0,0,1,65,79.48a19.42,19.42,0,0,1-7.54,1.41,15.86,15.86,0,0,1-7.22-1.51,12.9,12.9,0,0,1-4.83-4.12,17.76,17.76,0,0,1-2.68-6A30,30,0,0,1,41.85,62,43.32,43.32,0,0,1,42.48,54.76ZM52.1,67.4a7.58,7.58,0,0,0,1.09,2.75A5.62,5.62,0,0,0,55.3,72a8,8,0,0,0,7.85-.74,13.06,13.06,0,0,0,3.35-3.77,26.63,26.63,0,0,0,2.4-5.21,48.1,48.1,0,0,0,1.58-5.78,51.28,51.28,0,0,0,.85-5.46q.25-2.57.25-4.26a14.9,14.9,0,0,0-.39-3.45,7.75,7.75,0,0,0-1.27-2.82,6.36,6.36,0,0,0-2.25-1.9,7.11,7.11,0,0,0-3.28-.71A7,7,0,0,0,60,39.36a13.36,13.36,0,0,0-3.31,3.77,25,25,0,0,0-2.36,5.25,49.13,49.13,0,0,0-1.51,5.81q-.57,2.89-.81,5.5t-.25,4.37A17.07,17.07,0,0,0,52.1,67.4Z" transform="translate(0 -2.16)"/><path class="cls-1" d="M93.35,80l6.76-32h-12l1.62-7.54a38.26,38.26,0,0,0,5.18-.6,16,16,0,0,0,4.51-1.55,14.46,14.46,0,0,0,3.8-2.92,17.64,17.64,0,0,0,3.06-4.72h8.17L104,80Z" transform="translate(0 -2.16)"/><path class="cls-1" d="M152.14,47.61a86.71,86.71,0,0,0-7,10.25A94.6,94.6,0,0,0,139.56,69a77.77,77.77,0,0,0-3.73,11H125.19a65.61,65.61,0,0,1,3.73-10.64,97.87,97.87,0,0,1,5.67-10.88,95.51,95.51,0,0,1,7-10.11A75.14,75.14,0,0,1,149.28,40H125l2-9.3h35l-1.83,8.59A57.06,57.06,0,0,0,152.14,47.61Z" transform="translate(0 -2.16)"/><path class="cls-1" d="M191.7,69.13,189.37,80H178.31l2.25-10.85Z" transform="translate(0 -2.16)"/><path class="cls-1" d="M210.86,80l6.76-32h-12l1.62-7.54a38.26,38.26,0,0,0,5.18-.6,16,16,0,0,0,4.51-1.55,14.46,14.46,0,0,0,3.8-2.92,17.64,17.64,0,0,0,3.06-4.72h8.17L221.5,80Z" transform="translate(0 -2.16)"/><path class="cls-1" d="M247,34.57q5.28-4.9,13.81-4.9a22.13,22.13,0,0,1,6.34.88,14.92,14.92,0,0,1,5.21,2.71,12.83,12.83,0,0,1,3.56,4.65,15.65,15.65,0,0,1,1.3,6.62A13.3,13.3,0,0,1,275.67,51a20,20,0,0,1-4,5.14,34.53,34.53,0,0,1-5.6,4.19q-3.14,1.9-6.24,3.7t-5.92,3.56a23.18,23.18,0,0,0-4.72,3.8h24.31l-2,8.59H235a19.72,19.72,0,0,1,2-8,22,22,0,0,1,4.51-6,35.5,35.5,0,0,1,6.2-4.61q3.45-2,7-3.95,1.83-1.06,4-2.18a27,27,0,0,0,4-2.57A14.72,14.72,0,0,0,266,49.47a7.36,7.36,0,0,0,1.27-4.3q0-3.73-2.22-5.32a9,9,0,0,0-5.39-1.58,8.3,8.3,0,0,0-3.7.81,8.39,8.39,0,0,0-2.82,2.22,10.94,10.94,0,0,0-1.83,3.24,12.44,12.44,0,0,0-.74,3.87H241Q241.71,39.47,247,34.57Z" transform="translate(0 -2.16)"/><path class="cls-1" d="M309.21,69.13,306.88,80H295.82l2.25-10.85Z" transform="translate(0 -2.16)"/><path class="cls-1" d="M328.37,80l6.76-32h-12l1.62-7.54a38.26,38.26,0,0,0,5.18-.6,16,16,0,0,0,4.51-1.55,14.46,14.46,0,0,0,3.8-2.92,17.64,17.64,0,0,0,3.06-4.72h8.17L339,80Z" transform="translate(0 -2.16)"/><path class="cls-1" d="M384.63,38.9a6.12,6.12,0,0,0-4.47-1.69,8.8,8.8,0,0,0-5,1.41,13.28,13.28,0,0,0-3.59,3.56,23.44,23.44,0,0,0-2.5,4.76q-1,2.61-1.8,5l.14.14a11,11,0,0,1,4.79-4,15.28,15.28,0,0,1,6.06-1.23,16.48,16.48,0,0,1,6,1.06,12.75,12.75,0,0,1,4.61,3,13.42,13.42,0,0,1,2.92,4.75,18,18,0,0,1,1,6.24,19.15,19.15,0,0,1-1.44,7.47,18.16,18.16,0,0,1-4,6,19.23,19.23,0,0,1-6.06,4,19,19,0,0,1-7.5,1.48,19.62,19.62,0,0,1-8-1.48,14.11,14.11,0,0,1-5.42-4.16,17,17,0,0,1-3.06-6.34,31.88,31.88,0,0,1-1-8A44,44,0,0,1,358,48.73a30.5,30.5,0,0,1,4.76-9.9,23.53,23.53,0,0,1,7.61-6.69,20.74,20.74,0,0,1,10.18-2.47,21.52,21.52,0,0,1,6,.81A14,14,0,0,1,391.39,33a11.82,11.82,0,0,1,3.31,4.26,15.9,15.9,0,0,1,1.37,6.2h-9.65A6.26,6.26,0,0,0,384.63,38.9ZM368.07,70.36a6.92,6.92,0,0,0,5.46,2.36,8.53,8.53,0,0,0,6.87-2.85,10.64,10.64,0,0,0,2.43-7.15q0-4.23-2.11-6.27a7.86,7.86,0,0,0-5.71-2,8.48,8.48,0,0,0-3.77.81,8.6,8.6,0,0,0-2.82,2.18,10,10,0,0,0-1.8,3.17,11.45,11.45,0,0,0-.63,3.84A8.68,8.68,0,0,0,368.07,70.36Z" transform="translate(0 -2.16)"/><path class="cls-1" d="M458.71,56.45,456.87,65H435.67l1.83-8.59Z" transform="translate(0 -2.16)"/><path class="cls-1" d="M494.14,80l6.76-32h-12l1.62-7.54a38.26,38.26,0,0,0,5.18-.6,16,16,0,0,0,4.51-1.55,14.46,14.46,0,0,0,3.8-2.92A17.64,17.64,0,0,0,507,30.66h8.17L504.78,80Z" transform="translate(0 -2.16)"/><path class="cls-1" d="M530.28,34.57q5.28-4.9,13.81-4.9a22.13,22.13,0,0,1,6.34.88,14.92,14.92,0,0,1,5.21,2.71,12.83,12.83,0,0,1,3.56,4.65,15.65,15.65,0,0,1,1.3,6.62A13.3,13.3,0,0,1,559,51a20,20,0,0,1-4,5.14,34.53,34.53,0,0,1-5.6,4.19q-3.14,1.9-6.24,3.7t-5.92,3.56a23.18,23.18,0,0,0-4.72,3.8h24.31l-2,8.59H518.31a19.72,19.72,0,0,1,2-8,22,22,0,0,1,4.51-6,35.5,35.5,0,0,1,6.2-4.61q3.45-2,7-3.95,1.83-1.06,4-2.18a27,27,0,0,0,4-2.57,14.72,14.72,0,0,0,3.13-3.28,7.36,7.36,0,0,0,1.27-4.3q0-3.73-2.22-5.32a9,9,0,0,0-5.39-1.58,8.3,8.3,0,0,0-3.7.81,8.39,8.39,0,0,0-2.82,2.22,10.94,10.94,0,0,0-1.83,3.24,12.44,12.44,0,0,0-.74,3.87h-9.51Q525,39.47,530.28,34.57Z" transform="translate(0 -2.16)"/><path class="cls-1" d="M592.49,69.13,590.17,80H579.11l2.25-10.85Z" transform="translate(0 -2.16)"/><path class="cls-1" d="M611.65,80l6.76-32h-12L608,40.45a38.26,38.26,0,0,0,5.18-.6,16,16,0,0,0,4.51-1.55,14.46,14.46,0,0,0,3.8-2.92,17.64,17.64,0,0,0,3.06-4.72h8.17L622.29,80Z" transform="translate(0 -2.16)"/><path class="cls-1" d="M670.45,47.61a86.71,86.71,0,0,0-7,10.25A94.6,94.6,0,0,0,657.87,69a77.77,77.77,0,0,0-3.73,11H643.5a65.61,65.61,0,0,1,3.73-10.64,97.87,97.87,0,0,1,5.67-10.88,95.51,95.51,0,0,1,7-10.11A75.14,75.14,0,0,1,667.59,40H643.36l2-9.3h35l-1.83,8.59A57.06,57.06,0,0,0,670.45,47.61Z" transform="translate(0 -2.16)"/><path class="cls-1" d="M349.07,16.22a1.62,1.62,0,0,0,.55.69,2.33,2.33,0,0,0,.86.37,4.93,4.93,0,0,0,1.08.11,3.39,3.39,0,0,0,.82-.1,2.67,2.67,0,0,0,.75-.31,1.74,1.74,0,0,0,.55-.53,1.4,1.4,0,0,0,.21-.79,1,1,0,0,0-.27-.73,2.4,2.4,0,0,0-.71-.49,6.18,6.18,0,0,0-1-.36l-1.12-.33a9.51,9.51,0,0,1-1.13-.41,3.82,3.82,0,0,1-1-.62,2.83,2.83,0,0,1-.7-.92,3,3,0,0,1-.27-1.34,3.35,3.35,0,0,1,.43-1.75,3.58,3.58,0,0,1,1.11-1.17,4.92,4.92,0,0,1,1.55-.67,7.3,7.3,0,0,1,1.76-.21,7.1,7.1,0,0,1,1.77.21,4,4,0,0,1,1.46.69,3.44,3.44,0,0,1,1,1.23,4,4,0,0,1,.37,1.81h-2.55a1.9,1.9,0,0,0-.15-.87,1.48,1.48,0,0,0-.46-.57,1.88,1.88,0,0,0-.71-.32,4,4,0,0,0-1.64,0,2.27,2.27,0,0,0-.69.26,1.47,1.47,0,0,0-.5.47,1.3,1.3,0,0,0-.19.72,1,1,0,0,0,.33.75,2.8,2.8,0,0,0,.81.5,5.72,5.72,0,0,0,1,.31l.81.18a10.2,10.2,0,0,1,1.32.44,3.59,3.59,0,0,1,1,.64,2.69,2.69,0,0,1,.68,1,3.55,3.55,0,0,1,.24,1.39A3.62,3.62,0,0,1,356,17.3a3.83,3.83,0,0,1-1.17,1.25,4.88,4.88,0,0,1-1.6.69,7.5,7.5,0,0,1-1.77.21,5.91,5.91,0,0,1-3.83-1,4,4,0,0,1-1.26-3.29h2.55A2.43,2.43,0,0,0,349.07,16.22Z" transform="translate(0 -2.16)"/><path class="cls-1" d="M366.06,7l2,12.24h-2.67L365,16.46h-4.58l-1.54,2.73h-2.83L363.3,7Zm-1.27,7.51-.6-4.87h0l-2.64,4.87Z" transform="translate(0 -2.16)"/><path class="cls-1" d="M368.47,9.21,369,7h10.22l-.48,2.26H375l-2.09,10h-2.71l2.09-10Z" transform="translate(0 -2.16)"/><path class="cls-1" d="M379.17,16.55l-.57,2.64h-2.69l.55-2.64Z" transform="translate(0 -2.16)"/><path class="cls-1" d="M635.45,16.22a1.62,1.62,0,0,0,.55.69,2.33,2.33,0,0,0,.86.37,4.93,4.93,0,0,0,1.08.11,3.39,3.39,0,0,0,.82-.1,2.67,2.67,0,0,0,.75-.31,1.74,1.74,0,0,0,.55-.53,1.4,1.4,0,0,0,.21-.79,1,1,0,0,0-.27-.73,2.4,2.4,0,0,0-.71-.49,6.18,6.18,0,0,0-1-.36l-1.12-.33a9.51,9.51,0,0,1-1.13-.41,3.82,3.82,0,0,1-1-.62,2.83,2.83,0,0,1-.7-.92,3,3,0,0,1-.27-1.34,3.35,3.35,0,0,1,.43-1.75,3.58,3.58,0,0,1,1.11-1.17,4.92,4.92,0,0,1,1.55-.67,7.3,7.3,0,0,1,1.76-.21,7.1,7.1,0,0,1,1.77.21,4,4,0,0,1,1.46.69,3.44,3.44,0,0,1,1,1.23,4,4,0,0,1,.37,1.81H641a1.9,1.9,0,0,0-.15-.87,1.48,1.48,0,0,0-.46-.57,1.88,1.88,0,0,0-.71-.32,4,4,0,0,0-1.64,0,2.27,2.27,0,0,0-.69.26,1.47,1.47,0,0,0-.5.47,1.3,1.3,0,0,0-.19.72A1,1,0,0,0,637,11a2.8,2.8,0,0,0,.81.5,5.72,5.72,0,0,0,1,.31l.81.18a10.2,10.2,0,0,1,1.32.44,3.59,3.59,0,0,1,1,.64,2.69,2.69,0,0,1,.68,1,3.55,3.55,0,0,1,.24,1.39,3.62,3.62,0,0,1-.45,1.87,3.83,3.83,0,0,1-1.17,1.25,4.88,4.88,0,0,1-1.6.69,7.5,7.5,0,0,1-1.77.21,5.91,5.91,0,0,1-3.83-1,4,4,0,0,1-1.26-3.29h2.55A2.43,2.43,0,0,0,635.45,16.22Z" transform="translate(0 -2.16)"/><path class="cls-1" d="M654.43,16.4a5.08,5.08,0,0,1-1.11,1.69,4.48,4.48,0,0,1-1.68,1,7.29,7.29,0,0,1-2.42.35,8.28,8.28,0,0,1-1.76-.19,4.87,4.87,0,0,1-1.54-.61,3.31,3.31,0,0,1-1.1-1.11,3.24,3.24,0,0,1-.42-1.71,4.89,4.89,0,0,1,.09-.92l.17-.9L646.16,7h2.69L647.36,14l-.08.35c0,.13-.06.27-.09.42s-.05.29-.07.42a2.86,2.86,0,0,0,0,.35,1.71,1.71,0,0,0,.09.51,1.33,1.33,0,0,0,.35.54,2.07,2.07,0,0,0,.7.42,3.24,3.24,0,0,0,1.15.17,3.52,3.52,0,0,0,1.34-.21,2.09,2.09,0,0,0,.83-.6,2.83,2.83,0,0,0,.5-1c.12-.38.23-.79.33-1.25L653.92,7h2.69l-1.49,7.11A13.12,13.12,0,0,1,654.43,16.4Z" transform="translate(0 -2.16)"/><path class="cls-1" d="M661.76,7l3.33,8.71h0L666.87,7h2.47l-2.59,12.24h-2.69L660.7,10.6h0l-1.75,8.59h-2.5L659,7Z" transform="translate(0 -2.16)"/><path class="cls-1" d="M672.21,16.55l-.57,2.64H669l.55-2.64Z" transform="translate(0 -2.16)"/><path class="cls-1" d="M123.2,116.15l-.2,1.67h10.76l-.4,3.28H122.59l-.49,4h-3.81l.49-4H108.05l.4-3.28h10.73l.2-1.67h-12.6l.42-3.44h12.6l.92-7.56h-11.8l.4-3.24H137l-.4,3.24h-12l-.92,7.56h12.93l-.42,3.44Zm-6.78-10.4-.17,1.44h3l-.41,3.34h-3l-.2,1.61h-3.56l.2-1.61h-4l.41-3.34h4l.17-1.44Zm-.53-6.49H109l.42-3.48h6.85l.23-1.87h3.75l-.23,1.87h3.3l-.42,3.48h-3.3l-.23,1.87h-3.75Zm11.18,0H124l.42-3.48h3.1l.23-1.87h3.75l-.23,1.87h7l-.42,3.48h-7l-.23,1.87h-3.75Zm1,12.88.22-1.77h-3.13l.41-3.34h3.13l.15-1.27h3.55l-.15,1.27h3.88l-.41,3.34h-3.88l-.22,1.77Z" transform="translate(0 -2.16)"/><path class="cls-1" d="M168.78,100.94,165.84,125h-4l.29-2.37H139.85l2.63-21.6h3.94l-2.14,17.52h7.08l3-24.48h4l-3,24.48h7.17l2.15-17.66Z" transform="translate(0 -2.16)"/><path class="cls-1" d="M182.65,122.21,188.08,106h-6.16l1.29-3.82a20.54,20.54,0,0,0,2.68-.3,9.19,9.19,0,0,0,2.4-.79,8.78,8.78,0,0,0,2.13-1.48,10.58,10.58,0,0,0,1.86-2.39h4.18l-8.38,25Z" transform="translate(0 -2.16)"/><path class="cls-1" d="M202.4,118a2.79,2.79,0,0,0,2.18.86,5,5,0,0,0,2.64-.72,8.07,8.07,0,0,0,2.06-1.8,13.94,13.94,0,0,0,1.57-2.41q.68-1.32,1.23-2.54l-.06-.07a6.68,6.68,0,0,1-2.69,2,8.44,8.44,0,0,1-3.17.63,8,8,0,0,1-3-.54,5.5,5.5,0,0,1-2.17-1.54,5.81,5.81,0,0,1-1.2-2.41,8.7,8.7,0,0,1-.14-3.16,10.55,10.55,0,0,1,1.2-3.77,11.11,11.11,0,0,1,2.43-3.07,11.39,11.39,0,0,1,3.35-2.06,10.47,10.47,0,0,1,3.93-.75,9.23,9.23,0,0,1,4,.77,6.18,6.18,0,0,1,2.51,2.13,7.55,7.55,0,0,1,1.17,3.22,15.75,15.75,0,0,1,0,4.07,23.75,23.75,0,0,1-1.58,6.16,18,18,0,0,1-3,5,14.07,14.07,0,0,1-4.3,3.38,11.68,11.68,0,0,1-5.35,1.23,11,11,0,0,1-3-.39A5.81,5.81,0,0,1,198.6,121a5.11,5.11,0,0,1-1.41-2.16,7.57,7.57,0,0,1-.32-3.14h4.9A2.84,2.84,0,0,0,202.4,118Zm11-14.63a3.36,3.36,0,0,0-.65-1.32,3.26,3.26,0,0,0-1.12-.87,3.36,3.36,0,0,0-1.49-.32,4.94,4.94,0,0,0-3.69,1.45,6.07,6.07,0,0,0-1.68,3.63,3.85,3.85,0,0,0,.69,3.18,3.6,3.6,0,0,0,2.79,1,4.68,4.68,0,0,0,2-.41,5.22,5.22,0,0,0,1.58-1.11,5.91,5.91,0,0,0,1.12-1.62,6.31,6.31,0,0,0,.56-1.93A4.64,4.64,0,0,0,213.42,103.39Z" transform="translate(0 -2.16)"/><path class="cls-1" d="M222.68,122.21,228.12,106H222l1.29-3.82a20.56,20.56,0,0,0,2.68-.3,9.19,9.19,0,0,0,2.4-.79,8.78,8.78,0,0,0,2.13-1.48,10.58,10.58,0,0,0,1.86-2.39h4.18l-8.38,25Z" transform="translate(0 -2.16)"/><path class="cls-1" d="M257.23,112.24l-1.41,4.18h-3.35l-2,5.79h-4.86l2-5.79H236l1.5-4.61L254,97.19h5l-5,15Zm-5-9.61h-.07l-10.64,9.61H249Z" transform="translate(0 -2.16)"/><path class="cls-1" d="M294.81,103.38a41.59,41.59,0,0,1-8.12,12,26.75,26.75,0,0,0,11.51,5.79,21.94,21.94,0,0,0-3,3.71,27.46,27.46,0,0,1-11.84-6.55A40.89,40.89,0,0,1,269.41,125a17.18,17.18,0,0,0-1.87-3.71,37.52,37.52,0,0,0,13.29-5.92,32.7,32.7,0,0,1-5.42-12h-5.07l.47-3.88h13.64a23.52,23.52,0,0,0-1.23-4.72l4.26-1.24a25.9,25.9,0,0,1,1.58,5.05l-2.89.9h14.06l-.47,3.88Zm-15.42,0a24.73,24.73,0,0,0,4.69,9.26,32,32,0,0,0,6.4-9.26Z" transform="translate(0 -2.16)"/><path class="cls-1" d="M314.83,95.25a61.54,61.54,0,0,1-3.91,6.35l-2.87,23.51H304.4l2.2-18a40,40,0,0,1-3.53,3.54,28.69,28.69,0,0,0-1.53-4.15A40.36,40.36,0,0,0,311.4,94Zm9.61,25.58c1.65,0,2.08-1.4,3-6.92a8.22,8.22,0,0,0,3.19,1.67c-1.21,6.45-2.46,8.76-6.37,8.76h-5.4c-4,0-4.94-1.34-4.39-5.89l2.92-23.95h3.72l-1,8.5h11.25l-.46,3.81H319.66l-1.43,11.71c-.24,2-.05,2.31,1.5,2.31Z" transform="translate(0 -2.16)"/><path class="cls-1" d="M341.29,103.28l.16-1.3a40.2,40.2,0,0,1-3.75,2.41h13.64l-1.28,10.5H338.84c-.11.33-.18.7-.29,1H350.7l-1.09,8.93h-3.36l.11-.9h-6l-.13,1h-3.2l.84-6.92a24.86,24.86,0,0,1-2.78,5.85,15.07,15.07,0,0,0-3.17-1.54c3.07-4.25,4.06-10.23,4.54-14.15l.41-3.38-.79.4a18.78,18.78,0,0,0-1.54-3.81,26.56,26.56,0,0,0,10.52-7.59l3.35,1.44c-.23.3-.46.57-.68.84,2.22,1.44,4.7,3.08,6.05,4.18l-2.38,3.34a37.22,37.22,0,0,0-3.21-2.54l-.27,2.17Zm5.61,8.86.17-1.37h-7.4c-.05.43-.14.9-.23,1.37Zm-6.72-5-.13,1.1,0,.2h7.34l.16-1.3Zm.86,11.5-.29,2.37h6l.29-2.37Zm7-17.69-2.83-2c-.76.67-1.56,1.37-2.34,2Zm8.12,15h-3.62l2.28-18.66h3.62Zm8.6-22-3.21,26.35c-.26,2.14-.78,3.21-2.05,3.85s-3.07.8-5.66.8a15.51,15.51,0,0,0-.65-4c1.64,0,3.33,0,3.84,0s.76-.17.83-.74L361,94Z" transform="translate(0 -2.16)"/><path class="cls-1" d="M364.79,122.34a19.65,19.65,0,0,0,4.7-5.68l3,1.47a24.73,24.73,0,0,1-4.76,6.15Zm31.07-18.09h-28l.38-3.08H375a12.18,12.18,0,0,0-.42-1.84l2.49-.5h-6.95l.38-3.08H381a15.77,15.77,0,0,0-.36-1.57l3.83-.7a14.07,14.07,0,0,1,.66,2.27h10.05l-.37,3.08h-6.63l2.53.47c-.47.67-.87,1.3-1.26,1.87h6.79ZM391,115.65h-9.89a21.25,21.25,0,0,1,3.13,2.21l-2.66,2.44a19,19,0,0,0-4.67-3.31l1.49-1.34h-8.21l1.24-10.2h20.81Zm-8.22,5.92c1.2,0,1.43-.37,1.88-2.71a9.72,9.72,0,0,0,3.11,1.24c-.87,3.71-2,4.65-5,4.65h-5.2c-4.07,0-5-1-4.57-4.11l.43-3.51h3.75l-.42,3.48c-.11.87.14,1,1.59,1Zm4.89-9.87H374.26l-.18,1.44h13.38Zm.46-3.78H374.72l-.18,1.44h13.38Zm-9.81-9.1a13.51,13.51,0,0,1,.62,2.34h6.59c.42-.77.88-1.64,1.19-2.34Zm12.5,17.52a21.69,21.69,0,0,1,3.22,5.92l-3.52,1.54a21.34,21.34,0,0,0-3-6.05Z" transform="translate(0 -2.16)"/><path class="cls-1" d="M429,95.15l-3.66,30h-3.75l.15-1.2h-20.2l-.15,1.2h-3.62l3.66-30Zm-6.82,25.22,2.64-21.64h-20.2L402,120.37ZM414,115.85a12.1,12.1,0,0,0-.29,2.41c-5.67,1.41-6.64,1.74-7.23,2.07a5.68,5.68,0,0,0-.62-2,2,2,0,0,0,1.29-1.87l.15-1.2c-.91.34-1.82.64-2.66.9a18.81,18.81,0,0,0-1.57-2.21,30.82,30.82,0,0,0,6.39-2h-3.68l.58-4.78h14.9l-.58,4.78h-6.95a18.75,18.75,0,0,1-3.52,2.07l-.35,2.84Zm8.77-9.67h-18l.27-2.21h7.21l.16-1.3h-5.69l.26-2.14h5.69l.17-1.41h3.49l-.17,1.41h5.95l-.26,2.14H416l-.16,1.3h7.27Zm-13.61,4h8.34l.17-1.37h-8.34Zm13,3.61a25.12,25.12,0,0,1-2.93,1.77,27.85,27.85,0,0,1,2.57,2.27l-2.64,1.5a47,47,0,0,0-7-5.82l2.49-1.34c.84.57,1.79,1.27,2.77,2a30.41,30.41,0,0,0,2.69-1.91Z" transform="translate(0 -2.16)"/><path class="cls-1" d="M452.81,120.27a38,38,0,0,0,6-.43c0,1,0,2.78.1,3.71a36.61,36.61,0,0,1-6.73.37H439.44c-5.69,0-8.15-1.81-7.4-8l2.12-17.39h-1.29l.43-3.51h27.47l-.43,3.51h-22.4l-2.15,17.66c-.35,2.91.44,4,3.77,4Zm-14.75-10.73H447l-1.1,9H437Zm2.33,6.32h2.52l.44-3.65h-2.52Zm13.85-7.79h-12.7l1-8h12.7Zm-3.16-5.35h-5.3l-.33,2.74h5.3Zm5.34,15.82H447.3l1.1-9h9.11Zm-2.56-6.32h-2.62l-.44,3.65h2.62Z" transform="translate(0 -2.16)"/><path class="cls-1" d="M488.23,95c-.25.43-.53.9-.81,1.34a50.53,50.53,0,0,1,4.93,4.08l-1.88,3.24c-.35-.33-.72-.7-1.16-1.1l-.37,3h-2.71l-.3,2.44h3.75l-.41,3.38h-3.75l-1,7.79,3.84-.74-.19,3.14c-4,.94-8.11,1.81-11.3,2.54l-.27-3.58c1.32-.2,3-.5,4.79-.84l1-8.33h-4.23l.41-3.38h4.23l.3-2.44h-2.42l.18-1.5c-.58.54-1.12,1-1.69,1.44a25.93,25.93,0,0,0-.83-4.08,27.77,27.77,0,0,0,7.25-7.79Zm-7.61,17.63a40.89,40.89,0,0,1,.43,5.72l-2.48.73a40.65,40.65,0,0,0-.33-5.79ZM489,102.27c-1.07-1-2.33-2.11-3.56-3.11-.84,1.07-1.75,2.14-2.67,3.11ZM485,118a47.62,47.62,0,0,0,1.79-5.65l2.56.77c-.82,2-1.64,4.18-2.27,5.58Zm22.58-11-1.79,14.65c-.19,1.57-.53,2.47-1.63,3s-2.49.57-4.5.57a11,11,0,0,0-.51-3.24,27.19,27.19,0,0,0,2.78,0c.39,0,.53-.1.57-.47l1.38-11.34H494l-1.82,14.95H489L491.17,107h1.58l1.46-12h13.31l-1.46,12Zm-6.33,13.48h-7.11l1-8.49h7.11ZM496,107h1.62l.76-6.25h5.2l.31-2.51H497Zm3.26,7.73h-1.81l-.37,3h1.81Zm4-11H501l-.4,3.28h2.2Z" transform="translate(0 -2.16)"/><path class="cls-1" d="M538.76,121.64l-.33,2.68H521.15l.28-2.31a18.33,18.33,0,0,1-1.6,3.08,12.54,12.54,0,0,0-2.61-1.94,18.71,18.71,0,0,0,1.72-3.48l-2.19,2.07c-.35-1.07-1-2.64-1.69-4.15a21.36,21.36,0,0,1-4.66,7.49,10.51,10.51,0,0,0-2.1-2.68c4.2-4.48,5.31-10.43,6-16.12l1.47-12H519l-1.45,11.87a63.87,63.87,0,0,0,2.18-6.75l2.54.9.19-1.54h6.24l.6-4.88h3.59l-.2,1.6h7.89l-.29,2.34h-7.89l-.11.94h6.14l.53-.1,2.31.4a51.15,51.15,0,0,1-1.67,5.45l-2.79-.47c.18-.7.35-1.57.6-2.51h-4.95l-.12,1,3.81-.23-.15,2-3.92.3c0,.5.1.74.75.74h2.58A12.32,12.32,0,0,0,538,105c0,.94-.09,1.5,0,2.38a10.11,10.11,0,0,1-2.65.23h-3.91c-2.17,0-2.77-.87-2.74-2.41l-3,.3.19-2.61,3.09-.2.15-1.24h-3.65l-.91,7.42a51,51,0,0,1-3,12.71h1.87l.6-5h13.87l-.6,5ZM511,109.73a92.84,92.84,0,0,0,0-9.53l2.54-.43c.21,3.08.31,7,.19,9.33Zm6.5-2.71a58.35,58.35,0,0,1-1.16,6.59c.81,1.34,2.26,4.25,2.87,5.38a48.38,48.38,0,0,0,2.07-10.07l1-8.13c-1.1,2.37-2.18,5.18-3.11,6.92Zm8.2,1.37h12.73l-.9,7.39H524.77Zm.45,13.24h1.36l.32-2.61h-1.36Zm1.74-7.66h2l.13-1h-2Zm.34-2.78h2l.12-1h-2Zm1.73,7.83-.32,2.61H531l.32-2.61Zm4.91-6.09h-2.17l-.13,1h2.17Zm.33-2.74H533l-.12,1h2.17ZM533.46,119l-.32,2.61h1.36l.32-2.61Z" transform="translate(0 -2.16)"/><path class="cls-1" d="M570.48,120.7l-.43,3.51H541.42l.43-3.51h12.22l.35-2.87H545l.42-3.41h9.4l.31-2.54h3.94l-.31,2.54h9.89l-.42,3.41h-9.89L558,120.7ZM547.7,102.94h-3.59l.78-6.39H557.3a12.64,12.64,0,0,0-.63-2l3.89-1.14a18.55,18.55,0,0,1,1.07,3.14h11.51l-.78,6.39h-3.43l-.33,2.67h-3.81a35.36,35.36,0,0,1,4.76,5.22l-3.3,2.14a17.22,17.22,0,0,0-1.46-2.11c-14.59,1.2-16.35,1.34-17.71,1.87a32.27,32.27,0,0,0-.68-3.45,6,6,0,0,0,2.44-1.2,38.67,38.67,0,0,0,3.28-2.47h-4.75Zm.5-2.78-.25,2h20.59l.25-2Zm14.21,8c-.52-.54-1-1-1.5-1.47l1.72-1.1H557a52.06,52.06,0,0,1-4.14,3.21Z" transform="translate(0 -2.16)"/><path class="cls-2" d="M12,30.07q5.28-4.9,13.81-4.9a22.13,22.13,0,0,1,6.34.88,14.92,14.92,0,0,1,5.21,2.71,12.83,12.83,0,0,1,3.56,4.65A15.65,15.65,0,0,1,42.2,40a13.3,13.3,0,0,1-1.55,6.45,20,20,0,0,1-4,5.14A34.53,34.53,0,0,1,31,55.82q-3.14,1.9-6.24,3.7t-5.92,3.56a23.18,23.18,0,0,0-4.72,3.8H38.47l-2,8.59H0a19.72,19.72,0,0,1,2-8,22,22,0,0,1,4.51-6,35.5,35.5,0,0,1,6.2-4.61q3.45-2,7-3.95,1.83-1.06,4-2.18a27,27,0,0,0,4-2.57A14.72,14.72,0,0,0,30.93,45a7.36,7.36,0,0,0,1.27-4.3q0-3.73-2.22-5.32a9,9,0,0,0-5.39-1.58,8.3,8.3,0,0,0-3.7.81,8.39,8.39,0,0,0-2.82,2.22A10.94,10.94,0,0,0,16.24,40a12.44,12.44,0,0,0-.74,3.87H6Q6.69,35,12,30.07Z" transform="translate(0 -2.16)"/><path class="cls-2" d="M42.48,50.26a46.56,46.56,0,0,1,1.87-7.33,36.08,36.08,0,0,1,3.17-6.83A26.35,26.35,0,0,1,52,30.42a19.87,19.87,0,0,1,5.85-3.84,18.08,18.08,0,0,1,7.22-1.41,17.78,17.78,0,0,1,7.26,1.37,13.84,13.84,0,0,1,5.14,3.84,16.51,16.51,0,0,1,3.06,5.88,26.39,26.39,0,0,1,1,7.57,45.58,45.58,0,0,1-.63,7.43A41.62,41.62,0,0,1,79,58.71a36.75,36.75,0,0,1-3.31,6.83A25.56,25.56,0,0,1,71,71.18,21.29,21.29,0,0,1,65,75a19.42,19.42,0,0,1-7.54,1.41,15.86,15.86,0,0,1-7.22-1.51,12.9,12.9,0,0,1-4.83-4.12,17.76,17.76,0,0,1-2.68-6,30,30,0,0,1-.84-7.22A43.32,43.32,0,0,1,42.48,50.26ZM52.1,62.9a7.58,7.58,0,0,0,1.09,2.75,5.62,5.62,0,0,0,2.11,1.87,8,8,0,0,0,7.85-.74A13.06,13.06,0,0,0,66.5,63a26.63,26.63,0,0,0,2.4-5.21A48.1,48.1,0,0,0,70.49,52a51.28,51.28,0,0,0,.85-5.46q.25-2.57.25-4.26a14.9,14.9,0,0,0-.39-3.45A7.75,7.75,0,0,0,69.92,36a6.36,6.36,0,0,0-2.25-1.9,7.11,7.11,0,0,0-3.28-.71A7,7,0,0,0,60,34.86a13.36,13.36,0,0,0-3.31,3.77,25,25,0,0,0-2.36,5.25,49.13,49.13,0,0,0-1.51,5.81q-.57,2.89-.81,5.5t-.25,4.37A17.07,17.07,0,0,0,52.1,62.9Z" transform="translate(0 -2.16)"/><path class="cls-2" d="M93.35,75.48l6.76-32h-12L89.68,36a38.26,38.26,0,0,0,5.18-.6,16,16,0,0,0,4.51-1.55,14.46,14.46,0,0,0,3.8-2.92,17.64,17.64,0,0,0,3.06-4.72h8.17L104,75.48Z" transform="translate(0 -2.16)"/><path class="cls-2" d="M152.14,43.11a86.71,86.71,0,0,0-7,10.25,94.6,94.6,0,0,0-5.57,11.13,77.77,77.77,0,0,0-3.73,11H125.19a65.61,65.61,0,0,1,3.73-10.64A97.87,97.87,0,0,1,134.6,54a95.51,95.51,0,0,1,7-10.11,75.14,75.14,0,0,1,7.68-8.38H125l2-9.3h35l-1.83,8.59A57.06,57.06,0,0,0,152.14,43.11Z" transform="translate(0 -2.16)"/><path class="cls-2" d="M191.7,64.63l-2.32,10.85H178.31l2.25-10.85Z" transform="translate(0 -2.16)"/><path class="cls-2" d="M210.86,75.48l6.76-32h-12L207.2,36a38.26,38.26,0,0,0,5.18-.6,16,16,0,0,0,4.51-1.55,14.46,14.46,0,0,0,3.8-2.92,17.64,17.64,0,0,0,3.06-4.72h8.17L221.5,75.48Z" transform="translate(0 -2.16)"/><path class="cls-2" d="M247,30.07q5.28-4.9,13.81-4.9a22.13,22.13,0,0,1,6.34.88,14.92,14.92,0,0,1,5.21,2.71,12.83,12.83,0,0,1,3.56,4.65,15.65,15.65,0,0,1,1.3,6.62,13.3,13.3,0,0,1-1.55,6.45,20,20,0,0,1-4,5.14,34.53,34.53,0,0,1-5.6,4.19q-3.14,1.9-6.24,3.7t-5.92,3.56a23.18,23.18,0,0,0-4.72,3.8h24.31l-2,8.59H235a19.72,19.72,0,0,1,2-8,22,22,0,0,1,4.51-6,35.5,35.5,0,0,1,6.2-4.61q3.45-2,7-3.95,1.83-1.06,4-2.18a27,27,0,0,0,4-2.57A14.72,14.72,0,0,0,266,45a7.36,7.36,0,0,0,1.27-4.3q0-3.73-2.22-5.32a9,9,0,0,0-5.39-1.58,8.3,8.3,0,0,0-3.7.81,8.39,8.39,0,0,0-2.82,2.22A10.94,10.94,0,0,0,251.26,40a12.44,12.44,0,0,0-.74,3.87H241Q241.71,35,247,30.07Z" transform="translate(0 -2.16)"/><path class="cls-2" d="M309.21,64.63l-2.32,10.85H295.82l2.25-10.85Z" transform="translate(0 -2.16)"/><path class="cls-2" d="M328.37,75.48l6.76-32h-12L324.71,36a38.26,38.26,0,0,0,5.18-.6,16,16,0,0,0,4.51-1.55,14.46,14.46,0,0,0,3.8-2.92,17.64,17.64,0,0,0,3.06-4.72h8.17L339,75.48Z" transform="translate(0 -2.16)"/><path class="cls-2" d="M384.63,34.4a6.12,6.12,0,0,0-4.47-1.69,8.8,8.8,0,0,0-5,1.41,13.28,13.28,0,0,0-3.59,3.56,23.44,23.44,0,0,0-2.5,4.76q-1,2.61-1.8,5l.14.14a11,11,0,0,1,4.79-4,15.28,15.28,0,0,1,6.06-1.23,16.48,16.48,0,0,1,6,1.06,12.75,12.75,0,0,1,4.61,3,13.42,13.42,0,0,1,2.92,4.75,18,18,0,0,1,1,6.24,19.15,19.15,0,0,1-1.44,7.47,18.16,18.16,0,0,1-4,6,19.23,19.23,0,0,1-6.06,4,19,19,0,0,1-7.5,1.48,19.62,19.62,0,0,1-8-1.48,14.11,14.11,0,0,1-5.42-4.16,17,17,0,0,1-3.06-6.34,31.88,31.88,0,0,1-1-8A44,44,0,0,1,358,44.23a30.5,30.5,0,0,1,4.76-9.9,23.53,23.53,0,0,1,7.61-6.69,20.74,20.74,0,0,1,10.18-2.47,21.52,21.52,0,0,1,6,.81,14,14,0,0,1,4.86,2.47,11.82,11.82,0,0,1,3.31,4.26,15.9,15.9,0,0,1,1.37,6.2h-9.65A6.26,6.26,0,0,0,384.63,34.4ZM368.07,65.86a6.92,6.92,0,0,0,5.46,2.36,8.53,8.53,0,0,0,6.87-2.85,10.64,10.64,0,0,0,2.43-7.15q0-4.23-2.11-6.27a7.86,7.86,0,0,0-5.71-2,8.48,8.48,0,0,0-3.77.81,8.6,8.6,0,0,0-2.82,2.18,10,10,0,0,0-1.8,3.17,11.45,11.45,0,0,0-.63,3.84A8.68,8.68,0,0,0,368.07,65.86Z" transform="translate(0 -2.16)"/><path class="cls-2" d="M458.71,51.95l-1.83,8.59H435.67l1.83-8.59Z" transform="translate(0 -2.16)"/><path class="cls-2" d="M494.14,75.48l6.76-32h-12L490.48,36a38.26,38.26,0,0,0,5.18-.6,16,16,0,0,0,4.51-1.55,14.46,14.46,0,0,0,3.8-2.92A17.64,17.64,0,0,0,507,26.16h8.17L504.78,75.48Z" transform="translate(0 -2.16)"/><path class="cls-2" d="M530.28,30.07q5.28-4.9,13.81-4.9a22.13,22.13,0,0,1,6.34.88,14.92,14.92,0,0,1,5.21,2.71,12.83,12.83,0,0,1,3.56,4.65,15.65,15.65,0,0,1,1.3,6.62A13.3,13.3,0,0,1,559,46.49a20,20,0,0,1-4,5.14,34.53,34.53,0,0,1-5.6,4.19q-3.14,1.9-6.24,3.7t-5.92,3.56a23.18,23.18,0,0,0-4.72,3.8h24.31l-2,8.59H518.31a19.72,19.72,0,0,1,2-8,22,22,0,0,1,4.51-6,35.5,35.5,0,0,1,6.2-4.61q3.45-2,7-3.95,1.83-1.06,4-2.18a27,27,0,0,0,4-2.57A14.72,14.72,0,0,0,549.23,45a7.36,7.36,0,0,0,1.27-4.3q0-3.73-2.22-5.32a9,9,0,0,0-5.39-1.58,8.3,8.3,0,0,0-3.7.81,8.39,8.39,0,0,0-2.82,2.22A10.94,10.94,0,0,0,534.55,40a12.44,12.44,0,0,0-.74,3.87h-9.51Q525,35,530.28,30.07Z" transform="translate(0 -2.16)"/><path class="cls-2" d="M592.49,64.63l-2.32,10.85H579.11l2.25-10.85Z" transform="translate(0 -2.16)"/><path class="cls-2" d="M611.65,75.48l6.76-32h-12L608,36a38.26,38.26,0,0,0,5.18-.6,16,16,0,0,0,4.51-1.55,14.46,14.46,0,0,0,3.8-2.92,17.64,17.64,0,0,0,3.06-4.72h8.17L622.29,75.48Z" transform="translate(0 -2.16)"/><path class="cls-2" d="M670.45,43.11a86.71,86.71,0,0,0-7,10.25,94.6,94.6,0,0,0-5.57,11.13,77.77,77.77,0,0,0-3.73,11H643.5a65.61,65.61,0,0,1,3.73-10.64A97.87,97.87,0,0,1,652.9,54a95.51,95.51,0,0,1,7-10.11,75.14,75.14,0,0,1,7.68-8.38H643.36l2-9.3h35l-1.83,8.59A57.06,57.06,0,0,0,670.45,43.11Z" transform="translate(0 -2.16)"/><path class="cls-2" d="M349.07,11.72a1.62,1.62,0,0,0,.55.69,2.33,2.33,0,0,0,.86.37,4.93,4.93,0,0,0,1.08.11,3.39,3.39,0,0,0,.82-.1,2.67,2.67,0,0,0,.75-.31,1.74,1.74,0,0,0,.55-.53,1.4,1.4,0,0,0,.21-.79,1,1,0,0,0-.27-.73,2.4,2.4,0,0,0-.71-.49,6.18,6.18,0,0,0-1-.36l-1.12-.33a9.51,9.51,0,0,1-1.13-.41,3.82,3.82,0,0,1-1-.62,2.83,2.83,0,0,1-.7-.92A3,3,0,0,1,347.7,6a3.35,3.35,0,0,1,.43-1.75A3.58,3.58,0,0,1,349.24,3a4.92,4.92,0,0,1,1.55-.67,7.3,7.3,0,0,1,1.76-.21,7.1,7.1,0,0,1,1.77.21,4,4,0,0,1,1.46.69,3.44,3.44,0,0,1,1,1.23,4,4,0,0,1,.37,1.81h-2.55a1.9,1.9,0,0,0-.15-.87,1.48,1.48,0,0,0-.46-.57,1.88,1.88,0,0,0-.71-.32,4,4,0,0,0-1.64,0,2.27,2.27,0,0,0-.69.26,1.47,1.47,0,0,0-.5.47,1.3,1.3,0,0,0-.19.72,1,1,0,0,0,.33.75,2.8,2.8,0,0,0,.81.5,5.72,5.72,0,0,0,1,.31l.81.18a10.2,10.2,0,0,1,1.32.44,3.59,3.59,0,0,1,1,.64,2.69,2.69,0,0,1,.68,1,3.55,3.55,0,0,1,.24,1.39A3.62,3.62,0,0,1,356,12.8a3.83,3.83,0,0,1-1.17,1.25,4.88,4.88,0,0,1-1.6.69,7.5,7.5,0,0,1-1.77.21,5.91,5.91,0,0,1-3.83-1,4,4,0,0,1-1.26-3.29h2.55A2.43,2.43,0,0,0,349.07,11.72Z" transform="translate(0 -2.16)"/><path class="cls-2" d="M366.06,2.45l2,12.24h-2.67L365,12h-4.58l-1.54,2.73h-2.83L363.3,2.45ZM364.79,10l-.6-4.87h0L361.51,10Z" transform="translate(0 -2.16)"/><path class="cls-2" d="M368.47,4.71,369,2.45h10.22l-.48,2.26H375l-2.09,10h-2.71l2.09-10Z" transform="translate(0 -2.16)"/><path class="cls-2" d="M379.17,12.05l-.57,2.64h-2.69l.55-2.64Z" transform="translate(0 -2.16)"/><path class="cls-2" d="M635.45,11.72a1.62,1.62,0,0,0,.55.69,2.33,2.33,0,0,0,.86.37,4.93,4.93,0,0,0,1.08.11,3.39,3.39,0,0,0,.82-.1,2.67,2.67,0,0,0,.75-.31,1.74,1.74,0,0,0,.55-.53,1.4,1.4,0,0,0,.21-.79,1,1,0,0,0-.27-.73,2.4,2.4,0,0,0-.71-.49,6.18,6.18,0,0,0-1-.36l-1.12-.33A9.51,9.51,0,0,1,636,8.84a3.82,3.82,0,0,1-1-.62,2.83,2.83,0,0,1-.7-.92A3,3,0,0,1,634.07,6a3.35,3.35,0,0,1,.43-1.75A3.58,3.58,0,0,1,635.62,3a4.92,4.92,0,0,1,1.55-.67,7.3,7.3,0,0,1,1.76-.21,7.1,7.1,0,0,1,1.77.21,4,4,0,0,1,1.46.69,3.44,3.44,0,0,1,1,1.23,4,4,0,0,1,.37,1.81H641a1.9,1.9,0,0,0-.15-.87,1.48,1.48,0,0,0-.46-.57,1.88,1.88,0,0,0-.71-.32,4,4,0,0,0-1.64,0,2.27,2.27,0,0,0-.69.26,1.47,1.47,0,0,0-.5.47,1.3,1.3,0,0,0-.19.72,1,1,0,0,0,.33.75,2.8,2.8,0,0,0,.81.5,5.72,5.72,0,0,0,1,.31l.81.18a10.2,10.2,0,0,1,1.32.44,3.59,3.59,0,0,1,1,.64,2.69,2.69,0,0,1,.68,1,3.55,3.55,0,0,1,.24,1.39,3.62,3.62,0,0,1-.45,1.87,3.83,3.83,0,0,1-1.17,1.25,4.88,4.88,0,0,1-1.6.69,7.5,7.5,0,0,1-1.77.21,5.91,5.91,0,0,1-3.83-1,4,4,0,0,1-1.26-3.29h2.55A2.43,2.43,0,0,0,635.45,11.72Z" transform="translate(0 -2.16)"/><path class="cls-2" d="M654.43,11.9a5.08,5.08,0,0,1-1.11,1.69,4.48,4.48,0,0,1-1.68,1,7.29,7.29,0,0,1-2.42.35,8.28,8.28,0,0,1-1.76-.19,4.87,4.87,0,0,1-1.54-.61,3.31,3.31,0,0,1-1.1-1.11,3.24,3.24,0,0,1-.42-1.71,4.89,4.89,0,0,1,.09-.92l.17-.9,1.49-7.08h2.69l-1.49,7.08-.08.35c0,.13-.06.27-.09.42s-.05.29-.07.42a2.86,2.86,0,0,0,0,.35,1.71,1.71,0,0,0,.09.51,1.33,1.33,0,0,0,.35.54,2.07,2.07,0,0,0,.7.42,3.24,3.24,0,0,0,1.15.17,3.52,3.52,0,0,0,1.34-.21,2.09,2.09,0,0,0,.83-.6,2.83,2.83,0,0,0,.5-1c.12-.38.23-.79.33-1.25l1.53-7.25h2.69l-1.49,7.11A13.12,13.12,0,0,1,654.43,11.9Z" transform="translate(0 -2.16)"/><path class="cls-2" d="M661.76,2.45l3.33,8.71h0l1.75-8.71h2.47l-2.59,12.24h-2.69L660.7,6.1h0l-1.75,8.59h-2.5L659,2.45Z" transform="translate(0 -2.16)"/><path class="cls-2" d="M672.21,12.05l-.57,2.64H669l.55-2.64Z" transform="translate(0 -2.16)"/><path class="cls-2" d="M123.2,111.65l-.2,1.67h10.76l-.4,3.28H122.59l-.49,4h-3.81l.49-4H108.05l.4-3.28h10.73l.2-1.67h-12.6l.42-3.44h12.6l.92-7.56h-11.8l.4-3.24H137l-.4,3.24h-12l-.92,7.56h12.93l-.42,3.44Zm-6.78-10.4-.17,1.44h3l-.41,3.34h-3l-.2,1.61h-3.56l.2-1.61h-4l.41-3.34h4l.17-1.44Zm-.53-6.49H109l.42-3.48h6.85l.23-1.87h3.75l-.23,1.87h3.3l-.42,3.48h-3.3l-.23,1.87h-3.75Zm11.18,0H124l.42-3.48h3.1l.23-1.87h3.75l-.23,1.87h7l-.42,3.48h-7l-.23,1.87h-3.75Zm1,12.88.22-1.77h-3.13l.41-3.34h3.13l.15-1.27h3.55l-.15,1.27h3.88l-.41,3.34h-3.88l-.22,1.77Z" transform="translate(0 -2.16)"/><path class="cls-2" d="M168.78,96.44l-2.94,24.11h-4l.29-2.37H139.85l2.63-21.6h3.94l-2.14,17.52h7.08l3-24.48h4l-3,24.48h7.17l2.15-17.66Z" transform="translate(0 -2.16)"/><path class="cls-2" d="M182.65,117.71l5.43-16.22h-6.16l1.29-3.82a20.54,20.54,0,0,0,2.68-.3,9.19,9.19,0,0,0,2.4-.79,8.78,8.78,0,0,0,2.13-1.48,10.58,10.58,0,0,0,1.86-2.39h4.18l-8.38,25Z" transform="translate(0 -2.16)"/><path class="cls-2" d="M202.4,113.53a2.79,2.79,0,0,0,2.18.86,5,5,0,0,0,2.64-.72,8.07,8.07,0,0,0,2.06-1.8,13.94,13.94,0,0,0,1.57-2.41q.68-1.32,1.23-2.54l-.06-.07a6.68,6.68,0,0,1-2.69,2,8.44,8.44,0,0,1-3.17.63,8,8,0,0,1-3-.54,5.5,5.5,0,0,1-2.17-1.54,5.81,5.81,0,0,1-1.2-2.41,8.7,8.7,0,0,1-.14-3.16,10.55,10.55,0,0,1,1.2-3.77A11.11,11.11,0,0,1,203.26,95a11.39,11.39,0,0,1,3.35-2.06,10.47,10.47,0,0,1,3.93-.75,9.23,9.23,0,0,1,4,.77,6.18,6.18,0,0,1,2.51,2.13,7.55,7.55,0,0,1,1.17,3.22,15.75,15.75,0,0,1,0,4.07,23.75,23.75,0,0,1-1.58,6.16,18,18,0,0,1-3,5,14.07,14.07,0,0,1-4.3,3.38,11.68,11.68,0,0,1-5.35,1.23,11,11,0,0,1-3-.39,5.81,5.81,0,0,1-2.32-1.23,5.11,5.11,0,0,1-1.41-2.16,7.57,7.57,0,0,1-.32-3.14h4.9A2.84,2.84,0,0,0,202.4,113.53Zm11-14.63a3.36,3.36,0,0,0-.65-1.32,3.26,3.26,0,0,0-1.12-.87,3.36,3.36,0,0,0-1.49-.32,4.94,4.94,0,0,0-3.69,1.45,6.07,6.07,0,0,0-1.68,3.63,3.85,3.85,0,0,0,.69,3.18,3.6,3.6,0,0,0,2.79,1,4.68,4.68,0,0,0,2-.41,5.22,5.22,0,0,0,1.58-1.11,5.91,5.91,0,0,0,1.12-1.62,6.31,6.31,0,0,0,.56-1.93A4.64,4.64,0,0,0,213.42,98.89Z" transform="translate(0 -2.16)"/><path class="cls-2" d="M222.68,117.71l5.43-16.22H222l1.29-3.82a20.56,20.56,0,0,0,2.68-.3,9.19,9.19,0,0,0,2.4-.79,8.78,8.78,0,0,0,2.13-1.48,10.58,10.58,0,0,0,1.86-2.39h4.18l-8.38,25Z" transform="translate(0 -2.16)"/><path class="cls-2" d="M257.23,107.74l-1.41,4.18h-3.35l-2,5.79h-4.86l2-5.79H236l1.5-4.61L254,92.69h5l-5,15Zm-5-9.61h-.07l-10.64,9.61H249Z" transform="translate(0 -2.16)"/><path class="cls-2" d="M294.81,98.88a41.59,41.59,0,0,1-8.12,12,26.75,26.75,0,0,0,11.51,5.79,21.94,21.94,0,0,0-3,3.71,27.46,27.46,0,0,1-11.84-6.55,40.89,40.89,0,0,1-13.91,6.76,17.18,17.18,0,0,0-1.87-3.71,37.52,37.52,0,0,0,13.29-5.92,32.7,32.7,0,0,1-5.42-12h-5.07l.47-3.88h13.64a23.52,23.52,0,0,0-1.23-4.72L287.48,89a25.9,25.9,0,0,1,1.58,5.05l-2.89.9h14.06l-.47,3.88Zm-15.42,0a24.73,24.73,0,0,0,4.69,9.26,32,32,0,0,0,6.4-9.26Z" transform="translate(0 -2.16)"/><path class="cls-2" d="M314.83,90.75a61.54,61.54,0,0,1-3.91,6.35l-2.87,23.51H304.4l2.2-18a40,40,0,0,1-3.53,3.54,28.69,28.69,0,0,0-1.53-4.15,40.36,40.36,0,0,0,9.86-12.47Zm9.61,25.58c1.65,0,2.08-1.4,3-6.92a8.22,8.22,0,0,0,3.19,1.67c-1.21,6.45-2.46,8.76-6.37,8.76h-5.4c-4,0-4.94-1.34-4.39-5.89L317.44,90h3.72l-1,8.5h11.25l-.46,3.81H319.66L318.23,114c-.24,2-.05,2.31,1.5,2.31Z" transform="translate(0 -2.16)"/><path class="cls-2" d="M341.29,98.78l.16-1.3a40.2,40.2,0,0,1-3.75,2.41h13.64l-1.28,10.5H338.84c-.11.33-.18.7-.29,1H350.7l-1.09,8.93h-3.36l.11-.9h-6l-.13,1h-3.2l.84-6.92a24.86,24.86,0,0,1-2.78,5.85,15.07,15.07,0,0,0-3.17-1.54c3.07-4.25,4.06-10.23,4.54-14.15l.41-3.38-.79.4a18.78,18.78,0,0,0-1.54-3.81,26.56,26.56,0,0,0,10.52-7.59l3.35,1.44c-.23.3-.46.57-.68.84,2.22,1.44,4.7,3.08,6.05,4.18l-2.38,3.34a37.22,37.22,0,0,0-3.21-2.54l-.27,2.17Zm5.61,8.86.17-1.37h-7.4c-.05.43-.14.9-.23,1.37Zm-6.72-5-.13,1.1,0,.2h7.34l.16-1.3Zm.86,11.5-.29,2.37h6l.29-2.37Zm7-17.69-2.83-2c-.76.67-1.56,1.37-2.34,2Zm8.12,15h-3.62l2.28-18.66h3.62Zm8.6-22-3.21,26.35c-.26,2.14-.78,3.21-2.05,3.85s-3.07.8-5.66.8a15.51,15.51,0,0,0-.65-4c1.64,0,3.33,0,3.84,0s.76-.17.83-.74L361,89.48Z" transform="translate(0 -2.16)"/><path class="cls-2" d="M364.79,117.84a19.65,19.65,0,0,0,4.7-5.68l3,1.47a24.73,24.73,0,0,1-4.76,6.15Zm31.07-18.09h-28l.38-3.08H375a12.18,12.18,0,0,0-.42-1.84l2.49-.5h-6.95l.38-3.08H381a15.77,15.77,0,0,0-.36-1.57l3.83-.7a14.07,14.07,0,0,1,.66,2.27h10.05l-.37,3.08h-6.63l2.53.47c-.47.67-.87,1.3-1.26,1.87h6.79ZM391,111.15h-9.89a21.25,21.25,0,0,1,3.13,2.21l-2.66,2.44a19,19,0,0,0-4.67-3.31l1.49-1.34h-8.21L371.4,101h20.81Zm-8.22,5.92c1.2,0,1.43-.37,1.88-2.71a9.72,9.72,0,0,0,3.11,1.24c-.87,3.71-2,4.65-5,4.65h-5.2c-4.07,0-5-1-4.57-4.11l.43-3.51h3.75l-.42,3.48c-.11.87.14,1,1.59,1Zm4.89-9.87H374.26l-.18,1.44h13.38Zm.46-3.78H374.72l-.18,1.44h13.38Zm-9.81-9.1a13.51,13.51,0,0,1,.62,2.34h6.59c.42-.77.88-1.64,1.19-2.34Zm12.5,17.52a21.69,21.69,0,0,1,3.22,5.92l-3.52,1.54a21.34,21.34,0,0,0-3-6.05Z" transform="translate(0 -2.16)"/><path class="cls-2" d="M429,90.65l-3.66,30h-3.75l.15-1.2h-20.2l-.15,1.2h-3.62l3.66-30Zm-6.82,25.22,2.64-21.64h-20.2L402,115.87ZM414,111.35a12.1,12.1,0,0,0-.29,2.41c-5.67,1.41-6.64,1.74-7.23,2.07a5.68,5.68,0,0,0-.62-2,2,2,0,0,0,1.29-1.87l.15-1.2c-.91.34-1.82.64-2.66.9a18.81,18.81,0,0,0-1.57-2.21,30.82,30.82,0,0,0,6.39-2h-3.68l.58-4.78h14.9l-.58,4.78h-6.95a18.75,18.75,0,0,1-3.52,2.07l-.35,2.84Zm8.77-9.67h-18l.27-2.21h7.21l.16-1.3h-5.69L407,96h5.69l.17-1.41h3.49L416.21,96h5.95l-.26,2.14H416l-.16,1.3h7.27Zm-13.61,4h8.34l.17-1.37h-8.34Zm13,3.61a25.12,25.12,0,0,1-2.93,1.77,27.85,27.85,0,0,1,2.57,2.27l-2.64,1.5a47,47,0,0,0-7-5.82l2.49-1.34c.84.57,1.79,1.27,2.77,2a30.41,30.41,0,0,0,2.69-1.91Z" transform="translate(0 -2.16)"/><path class="cls-2" d="M452.81,115.77a38,38,0,0,0,6-.43c0,1,0,2.78.1,3.71a36.61,36.61,0,0,1-6.73.37H439.44c-5.69,0-8.15-1.81-7.4-8l2.12-17.39h-1.29l.43-3.51h27.47l-.43,3.51h-22.4l-2.15,17.66c-.35,2.91.44,4,3.77,4ZM438.06,105H447l-1.1,9H437Zm2.33,6.32h2.52l.44-3.65h-2.52Zm13.85-7.79h-12.7l1-8h12.7Zm-3.16-5.35h-5.3l-.33,2.74h5.3ZM456.42,114H447.3l1.1-9h9.11Zm-2.56-6.32h-2.62l-.44,3.65h2.62Z" transform="translate(0 -2.16)"/><path class="cls-2" d="M488.23,90.52c-.25.43-.53.9-.81,1.34a50.53,50.53,0,0,1,4.93,4.08l-1.88,3.24c-.35-.33-.72-.7-1.16-1.1l-.37,3h-2.71l-.3,2.44h3.75l-.41,3.38h-3.75l-1,7.79,3.84-.74-.19,3.14c-4,.94-8.11,1.81-11.3,2.54l-.27-3.58c1.32-.2,3-.5,4.79-.84l1-8.33h-4.23l.41-3.38h4.23l.3-2.44h-2.42l.18-1.5c-.58.54-1.12,1-1.69,1.44a25.93,25.93,0,0,0-.83-4.08,27.77,27.77,0,0,0,7.25-7.79Zm-7.61,17.63a40.89,40.89,0,0,1,.43,5.72l-2.48.73a40.65,40.65,0,0,0-.33-5.79ZM489,97.77c-1.07-1-2.33-2.11-3.56-3.11-.84,1.07-1.75,2.14-2.67,3.11Zm-4,15.69a47.62,47.62,0,0,0,1.79-5.65l2.56.77c-.82,2-1.64,4.18-2.27,5.58Zm22.58-11-1.79,14.65c-.19,1.57-.53,2.47-1.63,3s-2.49.57-4.5.57a11,11,0,0,0-.51-3.24,27.19,27.19,0,0,0,2.78,0c.39,0,.53-.1.57-.47l1.38-11.34H494l-1.82,14.95H489l2.22-18.19h1.58l1.46-12h13.31l-1.46,12Zm-6.33,13.48h-7.11l1-8.49h7.11ZM496,102.46h1.62l.76-6.25h5.2l.31-2.51H497Zm3.26,7.73h-1.81l-.37,3h1.81Zm4-11H501l-.4,3.28h2.2Z" transform="translate(0 -2.16)"/><path class="cls-2" d="M538.76,117.14l-.33,2.68H521.15l.28-2.31a18.33,18.33,0,0,1-1.6,3.08,12.54,12.54,0,0,0-2.61-1.94,18.71,18.71,0,0,0,1.72-3.48l-2.19,2.07c-.35-1.07-1-2.64-1.69-4.15a21.36,21.36,0,0,1-4.66,7.49,10.51,10.51,0,0,0-2.1-2.68c4.2-4.48,5.31-10.43,6-16.12l1.47-12H519l-1.45,11.87a63.87,63.87,0,0,0,2.18-6.75l2.54.9.19-1.54h6.24l.6-4.88h3.59l-.2,1.6h7.89l-.29,2.34h-7.89l-.11.94h6.14l.53-.1,2.31.4a51.15,51.15,0,0,1-1.67,5.45l-2.79-.47c.18-.7.35-1.57.6-2.51h-4.95l-.12,1,3.81-.23-.15,2-3.92.3c0,.5.1.74.75.74h2.58a12.32,12.32,0,0,0,2.58-.23c0,.94-.09,1.5,0,2.38a10.11,10.11,0,0,1-2.65.23h-3.91c-2.17,0-2.77-.87-2.74-2.41l-3,.3.19-2.61,3.09-.2L529.1,97h-3.65l-.91,7.42a51,51,0,0,1-3,12.71h1.87l.6-5h13.87l-.6,5ZM511,105.23a92.84,92.84,0,0,0,0-9.53l2.54-.43c.21,3.08.31,7,.19,9.33Zm6.5-2.71a58.35,58.35,0,0,1-1.16,6.59c.81,1.34,2.26,4.25,2.87,5.38a48.38,48.38,0,0,0,2.07-10.07l1-8.13c-1.1,2.37-2.18,5.18-3.11,6.92Zm8.2,1.37h12.73l-.9,7.39H524.77Zm.45,13.24h1.36l.32-2.61h-1.36Zm1.74-7.66h2l.13-1h-2Zm.34-2.78h2l.12-1h-2Zm1.73,7.83-.32,2.61H531l.32-2.61Zm4.91-6.09h-2.17l-.13,1h2.17Zm.33-2.74H533l-.12,1h2.17Zm-1.72,8.83-.32,2.61h1.36l.32-2.61Z" transform="translate(0 -2.16)"/><path class="cls-2" d="M570.48,116.2l-.43,3.51H541.42l.43-3.51h12.22l.35-2.87H545l.42-3.41h9.4l.31-2.54h3.94l-.31,2.54h9.89l-.42,3.41h-9.89L558,116.2ZM547.7,98.44h-3.59l.78-6.39H557.3a12.64,12.64,0,0,0-.63-2l3.89-1.14a18.55,18.55,0,0,1,1.07,3.14h11.51l-.78,6.39h-3.43l-.33,2.67h-3.81a35.36,35.36,0,0,1,4.76,5.22l-3.3,2.14a17.22,17.22,0,0,0-1.46-2.11c-14.59,1.2-16.35,1.34-17.71,1.87a32.27,32.27,0,0,0-.68-3.45,6,6,0,0,0,2.44-1.2,38.67,38.67,0,0,0,3.28-2.47h-4.75Zm.5-2.78-.25,2h20.59l.25-2Zm14.21,8c-.52-.54-1-1-1.5-1.47l1.72-1.1H557a52.06,52.06,0,0,1-4.14,3.21Z" transform="translate(0 -2.16)"/></g></g></svg>