<?xml version="1.0" encoding="utf-8"?>
<!-- Generator: Adobe Illustrator 20.1.0, SVG Export Plug-In . SVG Version: 6.00 Build 0)  -->
<svg version="1.1" id="圖層_1" xmlns="http://www.w3.org/2000/svg" xmlns:xlink="http://www.w3.org/1999/xlink" x="0px" y="0px"
	 viewBox="0 0 198 212" style="enable-background:new 0 0 198 212;" xml:space="preserve">
<style type="text/css">
	.st0{fill:#F5C73C;}
</style>
<path class="st0" d="M124.5,151.5c0.3-1.2-0.4-2.4-1.6-2.7c-0.1,0-0.2,0-0.4-0.1c-1.1,0.1-2-0.8-2.1-1.9c0-0.2,0-0.3,0-0.5
	c0.1-1.2-0.8-2.2-2-2.3c-0.1,0-0.3,0-0.4,0c-1.4,0-2.7,0.9-3,2.3c-0.2,1.3-1.7,2.3-3.4,2.3c-1.6,0-3.1,1.1-3.4,2.7
	c-0.2,1.5,1.4,2.7,3.6,2.7h8.3C122.3,154.2,124.3,152.9,124.5,151.5z"/>
<path class="st0" d="M119.6,172.7c0.2-1.5-1.4-2.7-3.6-2.7h-5.8c-2.2,0-4.2,1.2-4.4,2.7c-0.2,1.5,1.4,2.7,3.6,2.7h5.8
	C117.5,175.4,119.4,174.2,119.6,172.7z"/>
<path class="st0" d="M163.1,165c2.2,0,3,0.8,2.9,1.8c-0.1,1-1.2,1.8-3.4,1.8h-5.4c-2.2,0-4.2,1.2-4.4,2.7c-0.2,1.5,1.4,2.7,3.6,2.7
	h5.4c2.2,0,3,0.8,2.9,1.8c-0.1,1-1.2,1.8-3.4,1.8H150c-2.2,0-4.2,1.2-4.4,2.7c-0.2,1.5,1.3,2.7,3.4,2.7c1.8,0,3.3,1.5,3.3,3.4
	c0,0.2,0,0.4-0.1,0.6l-2.1,15h23c2.3-0.1,4.2-1.7,4.6-4l1.5-11c0.4-2.3,2.3-3.9,4.6-4h3.2c2.2,0,3.5-1.2,3.7-2.7
	c0.2-1.5-0.8-2.7-3-2.7H173c-2.2,0-3.3-0.8-3.1-1.8c0.2-1,1.4-1.8,3.6-1.8h3.5c2.2,0,4.2-1.2,4.4-2.7s-1.4-2.7-3.6-2.7H174
	c-2.2,0-3-0.8-2.8-1.8c0.2-1,1.1-1.8,3.3-1.8h3.8c2.3-0.1,4.2-1.7,4.6-4l0.1-1c0.4-2.3,2.3-3.9,4.6-4h4.6c2.2,0,4.2-1.2,4.4-2.7
	c0.2-1.5-1.4-2.8-3.6-2.8h-4.6c-1.9,0-3.5-1.5-3.5-3.4c0-0.2,0-0.4,0-0.6l0.7-5h-6.8c-1.9,0-3.5-1.5-3.5-3.4c0-0.2,0-0.4,0-0.6
	l0.2-1.4c0.3-2.2-0.7-4-2.2-4c-1.5,0-3,1.8-3.3,4l-0.2,1.4c-0.4,2.3-2.3,3.9-4.6,4h-4.5c-2.2,0-4.2,1.2-4.4,2.7s1.4,2.7,3.6,2.7h5.4
	c2.2,0,3,0.8,2.9,1.8c-0.1,1-1.2,1.8-3.4,1.8h-11.3c-2.2,0-4.2,1.2-4.4,2.7c-0.2,1.5,1.4,2.7,3.6,2.7h11.5c2.2,0,3,0.8,2.9,1.8
	c-0.1,1-1.2,1.8-3.4,1.8h-23.6c-1.8-0.1-3.2-1.6-3.2-3.4c0-0.2,0-0.4,0.1-0.6l1.8-12.8c0.3-2.2-0.7-4-2.2-4s-3,1.8-3.3,4l-1.7,12.9
	c-0.4,2.3-2.3,3.9-4.6,4h-15.2c-2.2,0-4.2,1.2-4.4,2.7c-0.2,1.5,1.4,2.7,3.6,2.7h15.2c1.9,0,3.5,1.5,3.5,3.4c0,0.2,0,0.4,0,0.6
	l-5.3,38.5c-0.3,2.2,0.7,4,2.2,4s3-1.8,3.3-4l5.3-38.5c0.3-2.2,2-3.8,4.2-4H163.1L163.1,165z M157.9,185.7c0.2-1.5,1.5-2.7,3.1-2.7
	c1.3,0,2.3,1,2.4,2.3c0,0.1,0,0.3,0,0.4c-0.2,1.5-1.5,2.7-3.1,2.7c-1.3,0-2.3-1-2.4-2.3C157.9,186,157.9,185.8,157.9,185.7z
	 M156.7,194.5c0.2-1.6,1.5-2.8,3.1-2.9c1.3,0,2.4,1.1,2.4,2.4c0,0.2,0,0.3,0,0.5c-0.2,1.6-1.5,2.8-3.1,2.9c-1.3,0-2.4-1.1-2.4-2.4
	C156.7,194.8,156.7,194.7,156.7,194.5z M172.9,194.5c-0.2,1.6-1.5,2.8-3.1,2.9c-1.3,0-2.4-1.1-2.3-2.4c0-0.1,0-0.3,0-0.4
	c0.2-1.6,1.5-2.8,3.1-2.9c1.3,0,2.4,1.1,2.3,2.4C172.9,194.2,172.9,194.4,172.9,194.5z M171.7,183c1.3,0,2.3,1,2.4,2.3
	c0,0.1,0,0.3,0,0.4c-0.2,1.5-1.5,2.7-3.1,2.7c-1.3,0-2.3-1-2.4-2.3c0-0.1,0-0.3,0-0.4C169,184.2,170.2,183,171.7,183L171.7,183z
	 M173.7,148.5c0.3-1.5,1.6-2.6,3.1-2.6c1.3-0.1,2.3,0.9,2.4,2.2c0,0.1,0,0.3,0,0.4c-0.3,1.5-1.6,2.6-3.1,2.6c-1.3,0-2.3-1-2.3-2.2
	C173.8,148.8,173.8,148.6,173.7,148.5L173.7,148.5z M172.6,157.1c0.3-1.5,1.6-2.5,3.1-2.5c1.2-0.1,2.3,0.8,2.4,2.1
	c0,0.1,0,0.3,0,0.4c-0.3,1.5-1.6,2.5-3.1,2.5c-1.2,0.1-2.3-0.9-2.3-2.1C172.6,157.4,172.6,157.3,172.6,157.1L172.6,157.1z"/>
<path class="st0" d="M113.2,202.9c1.5,0,3-1.8,3.3-4l2-14.9c0.3-1.9-0.9-3.6-2.8-4c-0.2,0-0.4-0.1-0.6,0h-7.7
	c-2.3,0.1-4.2,1.7-4.6,4l-1.5,11.2l-0.8,5.9c-0.1,1,1,1.8,2.5,1.8c1.5,0,2.8-0.8,3-1.8c0.3-1.2,1.5-1.9,2.7-1.8
	c1.3,0,2.3,0.8,2.2,1.8C110.8,202.1,111.7,202.9,113.2,202.9z M109.3,193.8c-1.3,0-2.3-0.7-2-2.9l0.4-2.8c0.3-2.2,1.4-2.7,2.7-2.7
	c1.3,0,2.4,0.7,2.1,2.9l-0.4,2.6C111.8,193.1,110.6,193.8,109.3,193.8L109.3,193.8z"/>
<path class="st0" d="M189.6,208.5c0.2-1.5-1.4-2.7-3.6-2.7h-41.8c-2.2,0-4.2,1.2-4.4,2.7c-0.2,1.5,1.4,2.7,3.6,2.7h41.8
	C187.4,211.2,189.4,210,189.6,208.5z"/>
<path class="st0" d="M8.9,198.7c-0.2,1.5-1.5,2.6-3,2.6H3.8c-1.5,0-2.8,1.1-3,2.6l0,0c-0.2,1.3,0.7,2.4,2,2.6c0.1,0,0.3,0,0.4,0H42
	c1.5,0,2.8-1.1,3-2.6l0,0c0.2-1.3-0.7-2.4-2-2.6c-0.1,0-0.3,0-0.4,0H16.4c-1.2,0-2.2-0.9-2.2-2.1c0-0.1,0-0.3,0-0.4l3.2-30
	c0.2-1.4-0.8-2.8-2.2-3c-0.1,0-0.1,0-0.2,0c-1.5,0.1-2.6,1.3-2.8,2.7C12,169.7,8.9,198.7,8.9,198.7z"/>
<path class="st0" d="M37.5,157.9c-1.5,0-2.7,1.1-2.9,2.6l-2.2,18.4c-0.2,1.3,0.7,2.4,1.9,2.6c0.1,0,0.3,0,0.4,0l0,0
	c1.5,0,2.7-1.1,2.9-2.6l2.2-18.4c0.2-1.3-0.7-2.4-1.9-2.6C37.7,157.9,37.6,157.9,37.5,157.9L37.5,157.9L37.5,157.9z"/>
<path class="st0" d="M92.6,169.9c-1,0-2,1.1-2.1,2.5v0.3c-0.2,1.2,0.7,2.3,1.9,2.5c0.1,0,0.2,0,0.3,0H99c0,0,0.1-1.1,0.3-2.5
	l0.9-7.7c0.2-1.3-0.7-2.4-1.9-2.6c-0.1,0-0.3,0-0.4,0h0.2c-1.5,0-2.8,1.1-3.2,2.6l-0.3,2.4C94.5,168.8,93.6,169.9,92.6,169.9z"/>
<path class="st0" d="M60.9,173.3c-0.2,1.2,0.6,2.3,1.8,2.5c0.1,0,0.3,0,0.4,0h0.1c1.5,0,2.7-1.1,2.9-2.5l1.1-8.3
	c0.2-1.4,0.3-2.5,0.3-2.5h-2.4c-1.2,0-2.1-1-2.1-2.1c0-0.1,0-0.2,0-0.4l0.1-1.2c0.2-1.4,1.3-2.4,2.7-2.5c1.4-0.1,2.5-1.1,2.7-2.5
	v-0.3c0.2-1.2-0.6-2.3-1.7-2.5c-0.1,0-0.2,0-0.4,0c-1.2,0-2.1-1-2.1-2.1c0-0.1,0-0.2,0-0.4l0.1-1.2c0.2-1.3-0.7-2.4-1.9-2.6
	c-0.1,0-0.3,0-0.4,0l0,0c-1.5,0-2.7,1.1-2.9,2.6L57,165.3c-0.2,1.2,0.6,2.3,1.7,2.5c0.1,0,0.2,0,0.4,0c1.2,0,2.1,1,2.1,2.1
	c0,0.1,0,0.2,0,0.4L60.9,173.3z"/>
<path class="st0" d="M98.3,145.1H90c-1.5,0-2.7,1.1-2.9,2.6c-0.2,1.5-1.5,2.6-2.9,2.6h-3.3c-1.2,0-2.2-0.9-2.2-2.1
	c0-0.1,0-0.3,0-0.4l0.7-5.7c0.2-1.3-0.7-2.4-1.9-2.6c-0.1,0-0.3,0-0.4,0c-1.5,0-2.7,1.1-2.9,2.6l-3.7,31c-0.2,1.2,0.6,2.3,1.8,2.5
	c0.1,0,0.3,0,0.4,0h4.6c1.4,0,2.4,0.7,2.3,1.6s-1.3,1.6-2.7,1.6H63.1c-1.5,0-2.8,1.1-3,2.6c-0.2,1.3,0.7,2.4,2,2.6
	c0.1,0,0.3,0,0.4,0h3.8c1.4,0,2.4,0.8,2.3,1.7s-1.3,1.8-2.7,1.8H49.6c-1.2,0-2.2-0.9-2.2-2.1c0-0.1,0-0.3,0-0.4l3.5-29.7l0.4-3.1
	l0.3-2.6c0-1.1-0.8-2-1.9-2.1c-0.1,0-0.2,0-0.4,0h-9.8c-1.5,0-3.2,0.4-3.5,2.3c-0.3,1.3,0.4,2.6,1.7,2.9c0.2,0.1,0.4,0.1,0.7,0.1
	h5.1c1.2,0,2.2,0.9,2.2,2.1c0,0.1,0,0.3,0,0.4L42.2,185c-0.2,1.4-1.4,2.5-2.8,2.5H28.6c-1.2,0-2.2-0.9-2.2-2.1c0-0.1,0-0.3,0-0.4
	c0,0,1.9-16.4,2-17.7c0.1-1-0.4-3.1-2.2-3.1c-2,0-3,2-3.1,3.2l-3,26.1c-0.2,1.3,0.7,2.5,2,2.7c0.1,0,0.3,0,0.4,0
	c1.4,0,2.6-0.8,2.7-1.8c0.1-1,1.3-1.8,2.7-1.8h10.8c1.4,0,2.4,0.8,2.3,1.8c-0.1,1,0.9,1.8,2.3,1.8h0.2c1.4,0,2.6-0.8,2.7-1.8
	c0.1-1,1.3-1.8,2.7-1.8h10.8c1.4,0,2.2,2.5,2.1,3.9l-1.3,11.3c-0.2,1.2,0.6,2.3,1.8,2.5c0.1,0,0.3,0,0.4,0h21.2
	c1.4,0,2.6-1.1,2.8-2.5l1.5-13c0.2-1.3,1.4-2.2,2.8-2.1h1.7c1.4,0,2.6-1.1,2.8-2.5V190l0.3-2.5h-9.7c-1.4,0-2.4-0.8-2.3-1.7
	s1.3-1.7,2.7-1.7h7.1c1.5,0,2.8-1.1,3-2.6c0.2-1.3-0.7-2.4-2-2.6c-0.1,0-0.3,0-0.4,0h-7.1c-1.2,0-2.2-0.9-2.2-2.1c0-0.1,0-0.3,0-0.4
	l1.6-13.1c0.2-1.4,1.4-2.5,2.8-2.5h1.8c1.5,0,2.8-1.1,3-2.6c0.2-1.3-0.7-2.4-2-2.6c-0.1,0-0.3,0-0.4,0h-1.8c-1.2,0-2.2-0.9-2.2-2.1
	c0-0.1,0-0.3,0-0.4V153c0.2-1.4,1.4-2.5,2.8-2.5h1.9c1.2,0,2.3,0.9,2.3,2.2c0,0.1,0,0.3,0,0.4c-0.2,1.2,0.7,2.4,1.9,2.6
	c0.1,0,0.3,0,0.4,0H97c1.5,0,2.7-1.1,2.9-2.6l0.7-5.4c0.2-1.4,0.3-2.5,0.3-2.5L98.3,145.1L98.3,145.1z M76.8,158.1
	c0.2-1.6,1.6-2.8,3.2-2.8c1.3-0.1,2.4,0.9,2.5,2.1c0,0.2,0,0.4,0,0.7c-0.1,1.6-1.5,2.9-3.1,3c-1.4,0-2.5-1.1-2.5-2.5
	C76.7,158.4,76.8,158.2,76.8,158.1z M78.1,171.1c-1.3,0-2.4-1-2.5-2.3c0-0.1,0-0.3,0-0.4c0.2-1.5,1.6-2.7,3.1-2.7
	c1.3,0,2.4,1,2.5,2.3c0,0.1,0,0.3,0,0.4C80.9,169.9,79.6,171,78.1,171.1L78.1,171.1z M73.6,185.8c0.3-1.3,1.5-2.3,2.9-2.1
	c1.6,0,2.7,1,2.6,2.1s-1.5,2.1-3.1,2.1C74.4,187.9,73.4,186.9,73.6,185.8L73.6,185.8z M79.2,205.4H68.4c-1.4,0-2.5-0.8-2.3-2.1
	c0.3-1.8,1.7-2.1,3-2.1h10.6c1.1-0.1,2.1,0.7,2.2,1.8c0,0.1,0,0.2,0,0.3C81.7,204.6,80.5,205.6,79.2,205.4L79.2,205.4z M80.6,197
	H69.2c-1,0.2-1.9-0.5-2.1-1.5c0-0.2,0-0.4,0-0.6c0.1-1.3,1.2-2.2,2.5-2.1c0,0,0,0,0.1,0h11.2c1.1,0,2,0.9,2,2v0.1
	C82.7,196,81.7,196.9,80.6,197L80.6,197z"/>
<path class="st0" d="M17.3,154.2L17.3,154.2c-2.9-0.1-5.6,1.1-7.5,3.2c-1.1,1-1.2,2.7-0.3,3.9c1,0.9,2.6,0.9,3.5-0.1l0.1-0.1
	c0.8-0.9,1.9-1.3,3-1.3c1.1,0.1,2,0.8,2.4,1.8c0.3,0.7,1,1.2,1.8,1.3c0.1,0,0.2,0,0.4,0c0.4,0,0.8-0.2,1.2-0.4
	c1.3-0.8,1.8-2.4,1.3-3.8C22.1,156.1,19.8,154.4,17.3,154.2z"/>
<path class="st0" d="M19.6,143h-0.2c-4.1-0.2-8.1,1.5-10.9,4.5c-0.5,0.5-0.9,1.2-0.9,2c-0.1,0.7,0.2,1.4,0.7,1.9
	c1.1,1,2.8,0.8,3.8-0.3c1.6-1.8,4-2.8,6.4-2.6c2.2,0.2,4.2,1.6,5.1,3.6c0.4,0.7,1.1,1.2,1.9,1.3h0.4c0.4,0,0.9-0.2,1.2-0.4
	c0.7-0.4,1.2-1,1.4-1.7c0.3-0.7,0.2-1.4-0.1-2.1C26.8,145.6,23.4,143.3,19.6,143z"/>
<path class="st0" d="M34.9,140c-2.4-5-7.4-8.3-12.9-8.6c-0.9-0.1-1.9-0.1-2.8,0c-5.1,0.5-9.8,2.7-13.4,6.4c-0.6,0.5-0.9,1.2-1,2
	c-0.1,0.7,0.2,1.4,0.7,1.9c1.2,0.9,2.9,0.8,3.9-0.3c2.9-3,7-4.6,11.2-4.5l0.1-0.4v0.4h0.1c3.9,0.2,7.3,2.5,9,6
	c0.4,0.8,1.2,1.2,2,1.3c0.1,0,0.3,0,0.4,0c0.5,0,0.9-0.2,1.3-0.4c0.7-0.4,1.2-1,1.5-1.8C35.2,141.4,35.2,140.7,34.9,140z"/>
<path class="st0" d="M38.1,69.3c0.4-2.3,2.3-3.9,4.5-4h2c2.2,0,3.6-1.2,3.8-2.7c0.2-1.5-0.9-2.7-3.1-2.7h-2c-1.9,0-3.5-1.5-3.5-3.4
	c0-0.2,0-0.4,0-0.6l0.1-0.7c0.4-2.3,2.3-3.9,4.5-4h1.9c2.2,0,3.7-1.2,3.8-2.7c0.1-1.5-0.9-2.7-3.1-2.7h-7.3c-2.3,0.1-4.2,1.7-4.5,4
	L32,74.8c-0.3,1.9,1,3.7,2.9,4c0.2,0,0.4,0,0.6,0h13.4c2.2,0,3.4-1.2,3.6-2.7c0.2-1.5-0.7-2.7-2.9-2.7h-8c-1.9,0-3.5-1.5-3.5-3.4
	C38.1,69.8,38.1,69.5,38.1,69.3L38.1,69.3L38.1,69.3z"/>
<path class="st0" d="M101.1,75.5c-0.3,2.2,0.8,3.4,2.3,3.4s2.9-1.1,3.2-3.4l3.4-26.4c0.3-2.2-0.8-3.3-2.3-3.3
	c-1.5,0-2.9,1.1-3.1,3.3L101.1,75.5z"/>
<path class="st0" d="M89.1,113.5c-0.3,2.2-2,4-3.8,4s-3-1.8-2.7-4l0.7-5.6c0.3-2.2-0.7-4-2.2-4c-1.5,0-3,1.8-3.2,4l-0.7,5.6
	c-0.3,2.2-2,4-3.8,4s-3-1.8-2.7-4l2.6-20.1c0.3-2.2-0.8-3.4-2.3-3.4c-1.5,0-2.9,1.2-3.2,3.4l-2.7,20.4c-0.3,2.2-0.1,4.5,0.5,6.6
	c0.6,1.4,2.8,2.6,5,2.6h15.8c2.2,0,4.8-1.2,5.7-2.6c1.1-2,1.9-4.3,2.2-6.6l2.7-20.4c0.3-2.2-0.8-3.4-2.3-3.4c-1.5,0-2.9,1.2-3.2,3.4
	L89.1,113.5z"/>
<path class="st0" d="M92.1,54.3c-0.4,2.3-2.3,3.9-4.5,4H87c-1.9,0-3.5-1.5-3.5-3.4c0-0.2,0-0.4,0-0.6l0.7-5.1
	c0.3-2.2-0.8-3.3-2.3-3.3S79,47,78.7,49.2l-3.4,26.4c-0.3,2.2,0.8,3.3,2.3,3.3c1.5,0,2.9-1.1,3.1-3.3l1-7.9c0.4-2.3,2.3-3.9,4.5-4
	h0.6c1.9,0,3.5,1.5,3.5,3.4c0,0.2,0,0.4,0,0.6l-1,7.9c-0.3,2.2,0.8,3.3,2.3,3.3c1.5,0,2.9-1.1,3.1-3.3L98,49.2
	c0.3-2.2-0.8-3.3-2.3-3.3c-1.5,0-2.9,1.1-3.2,3.3L92.1,54.3z"/>
<path class="st0" d="M10.7,45.8L7,74c-0.3,2.2,0.8,3.5,2.3,3.5s2.9-1.3,3.2-3.5l0.4-3.3c0.3-2.2,2.1-3.9,4.4-4
	c1.9,0,3.4,1.5,3.4,3.4c0,0.2,0,0.4-0.1,0.6l-1.3,9.8c-0.3,2.2,0.8,3.3,2.3,3.3c1.5,0,2.9-1.1,3.2-3.3l1.6-11.7c0.3-2.2-0.6-3.9-2-4
	c-1.2,0-2.3-0.9-2.4-2.2c0-1.7,1.3-3,3-3.1c1.4,0,2.9-1.8,3.2-4l0.8-5.8c0.3-1.9-1-3.7-2.9-4c-0.2,0-0.4,0-0.6,0H10.7L10.7,45.8z
	 M18.4,58c-1.8,0-3.4-1.4-3.4-3.3c0-0.2,0-0.4,0-0.6c0.3-2.2,2.1-3.8,4.3-3.9c1.8,0,3.4,1.4,3.4,3.3c0,0.2,0,0.4,0,0.6
	C22.3,56.4,20.5,57.9,18.4,58L18.4,58z"/>
<path class="st0" d="M16,1.1c-2.2,0-3.6,1.2-3.8,2.7c-0.2,1.5,0.9,2.7,3.1,2.7h2.8c1.9,0,3.5,1.5,3.5,3.4c0,0.2,0,0.4,0,0.6v0.3
	c-0.4,2.3-2.3,3.9-4.5,4H15c-2.3,0.1-4.2,1.7-4.5,4L8.8,31.8c-0.3,1.9,1,3.7,2.9,4c0.2,0,0.4,0,0.6,0h8.3c2.2,0,3.5-1.2,3.7-2.7
	c0.2-1.5-0.8-2.7-3-2.7h-2.8c-1.9,0-3.5-1.5-3.5-3.4c0-0.2,0-0.4,0-0.6l0.3-2.2c0.4-2.3,2.3-3.9,4.5-4h2.1c2.3-0.1,4.2-1.7,4.5-4
	l1.5-11.2c0.3-1.9-1-3.7-2.9-4c-0.2,0-0.4,0-0.6,0C24.2,1.1,16,1.1,16,1.1z"/>
<path class="st0" d="M30,32c-0.3,1.9,1,3.7,2.9,4c0.2,0,0.4,0,0.6,0h9.1c2.3-0.1,4.2-1.7,4.5-4l3.5-26.8c0.3-1.9-1-3.7-2.9-4
	c-0.2,0-0.4,0-0.6,0H38c-2.3,0.1-4.2,1.7-4.5,4L30,32z M41.9,6.6c1.7,0,2.9,1.8,2.6,4l-2.1,16.1c-0.3,2.2-1.9,4-3.7,4
	s-2.9-1.8-2.6-4l2.1-16.1C38.5,8.4,40.1,6.6,41.9,6.6z"/>
<path class="st0" d="M59.6,45.8c-2.2,0-3.3,1.2-3.5,2.7C56,49.8,57,51,58.2,51.2c0.2,0,0.3,0,0.5,0c1.6,0,2.7,1.8,2.4,4l-2.7,20.4
	c-0.3,2.2,0.8,3.2,2.3,3.2s2.8-0.9,3.1-3.2l2.7-20.4c0.3-2.2,2.2-4,3.9-4c1.6,0,2.9-1.2,3-2.7c0.2-1.5-0.8-2.7-3-2.7H59.6z"/>
<path class="st0" d="M52.7,119.5c-0.3,2.2,0.8,3.4,2.3,3.4c1.5,0,2.9-1.2,3.2-3.4l3.4-26.1c0.3-2.2-0.8-3.4-2.3-3.4
	c-1.5,0-2.9,1.2-3.2,3.4L52.7,119.5z"/>
<path class="st0" d="M9.3,90c-2.2,0-3.5,1.2-3.7,2.7s0.8,2.7,3,2.7h0.9c1.9,0,3.5,1.5,3.5,3.4c0,0.2,0,0.4,0,0.6l-2.6,20.1
	c-0.3,2.2,0.8,3.4,2.3,3.4s2.9-1.2,3.2-3.4l2.6-20.1c0.4-2.3,2.3-3.9,4.5-4h1c2.2,0,3.7-1.2,3.9-2.7s-1-2.7-3.2-2.7H9.3z"/>
<path class="st0" d="M39.1,90c-2.2,0-3.6,1.2-3.8,2.7c-0.2,1.5,0.9,2.7,3.1,2.7h0.8c1.9,0,3.5,1.5,3.5,3.4c0,0.2,0,0.4,0,0.6
	l-0.1,0.5c-0.4,2.3-2.3,3.9-4.5,4h-0.2c-1.9,0-3.5-1.5-3.5-3.4c0-0.2,0-0.4,0-0.6l0.2-1.2c0.3-2.2-0.8-3.3-2.3-3.3s-2.9,1.1-3.2,3.3
	L26.3,120c-0.3,2.2,0.8,3.3,2.3,3.3c1.5,0,2.9-1.1,3.1-3.3l0.9-6.7c0.4-2.3,2.3-3.9,4.5-4h0.2c1.9,0,3.5,1.5,3.5,3.4
	c0,0.2,0,0.4,0,0.6l-0.9,6.7c-0.3,2.2,0.8,3.3,2.3,3.3s2.9-1.1,3.1-3.3l3.4-26c0.3-1.9-1-3.7-2.9-4c-0.2,0-0.4,0-0.6,0L39.1,90
	L39.1,90z"/>
<path class="st0" d="M59.9,1.1c-2.2,0-3.6,1.2-3.8,2.7s0.8,2.7,3,2.7H62c1.9,0,3.5,1.5,3.5,3.4c0,0.2,0,0.4,0,0.6v0.3
	c-0.4,2.3-2.3,3.9-4.5,4h-2.1c-2.3,0.1-4.2,1.7-4.5,4l-1.7,13.1c-0.3,1.9,1,3.7,2.9,4c0.2,0,0.4,0,0.6,0h8.3c2.2,0,3.5-1.2,3.7-2.7
	c0.2-1.5-0.7-2.7-2.9-2.7h-2.9c-1.9,0-3.5-1.5-3.5-3.4c0-0.2,0-0.4,0-0.6l0.3-2.2c0.4-2.3,2.3-3.9,4.5-4h2.2c2.3-0.1,4.2-1.7,4.5-4
	l1.5-11.2c0.3-1.9-1-3.7-2.9-4c-0.2,0-0.4,0-0.6,0L59.9,1.1L59.9,1.1z"/>
<path class="st0" d="M82,1.1h-4c0,0-0.2,1.8-0.5,4l-1,7.4c-0.3,2.2,0.8,3.3,2.3,3.3c1.5,0,2.9-1.1,3.2-3.3l0.3-2
	c0.3-2.2,1.7-4,3.2-4c1.5,0,2.4,1.8,2.2,4l-2.9,22.1c-0.3,2.2,0.8,3.3,2.3,3.3c1.5,0,2.9-1.1,3.2-3.3l3.6-27.5c0.3-1.9-1-3.7-2.9-4
	c-0.2,0-0.4,0-0.6,0H82L82,1.1z"/>
<path class="st0" d="M134.5,49.2c0.3-2.2-0.6-3.4-2.1-3.4c-1.8,0.1-3.3,1.6-3.3,3.4l-1,7.5c-0.3,2.2-2.6,3.1-3.1,0.6l-2.1-7.7
	c-0.6-2.5-1.7-3.7-3.2-3.7c-2.3,0-3.6,1.8-3.8,4l-3.3,25.7c-0.3,2.2,0.8,3.3,2.3,3.3c1.5,0,2.9-1,3.2-3.3l1.2-8.7
	c0.3-2.2,2.6-2.6,3-0.2l1.7,8.8c0.5,2.9,2,3.4,3.6,3.4c2-0.2,3.5-1.7,3.7-3.7L134.5,49.2z"/>
<path class="st0" d="M150.1,91.3c0.3-2.2-0.8-3.2-2.3-3.2c-1.5,0-2.9,1-3.2,3.2l-1.4,10.4c-0.4,2.9-3,3-3.8,1l-4-9.4
	c-0.8-1.9-2.1-3.4-4-2.8c-2.3,0.6-2.9,3-3.2,5.2l-3.1,23.9c-0.3,2.2,0.8,3.4,2.3,3.4c1.5,0,2.9-1.2,3.2-3.4l1.4-10.7
	c0.2-1.9,2.4-3,3.1-0.9l5.1,13.1c0.8,2,2.1,2.7,3.7,2.3c1.4-0.4,2.4-1.7,2.7-3.9L150.1,91.3z"/>
<path class="st0" d="M159.2,49.7c1.4-1.4,1.7-3.2,0.8-4.2s-2.8-1.1-4.4,0.7l-7.6,7.7c-1.1,1.3-2.7,0.7-2.5-1l0.4-3.3
	c0.3-2.2-0.8-3.4-2.3-3.4c-1.5,0-2.9,1.2-3.2,3.4L137,75.5c-0.3,2.2,0.8,3.3,2.3,3.3c1.5,0,2.9-1,3.1-3.3l1.2-9.3
	c0.2-1.5,1.6-2.1,2.3-0.7l6.2,11.3c1,1.8,2.7,2.2,4,1.3s1.7-2.7,0.8-4.6l-6-11.8c-1-1.9-1.2-2.6,0.4-4.3L159.2,49.7z"/>
<path class="st0" d="M112.5,90c-2.2,0-3.6,1.2-3.8,2.7s0.9,2.7,3.1,2.7h0.8c1.9,0,3.5,1.5,3.5,3.4c0,0.2,0,0.4,0,0.6l-0.1,0.5
	c-0.4,2.3-2.3,3.9-4.5,4h-0.2c-1.9,0-3.5-1.5-3.5-3.4c0-0.2,0-0.4,0-0.6l0.2-1.2c0.3-2.2-0.8-3.3-2.3-3.3c-1.5,0-2.9,1.1-3.2,3.3
	L99.7,120c-0.3,2.2,0.8,3.3,2.3,3.3c1.5,0,2.9-1.1,3.1-3.3l0.9-6.7c0.4-2.3,2.3-3.9,4.5-4h0.2c1.9,0,3.5,1.5,3.5,3.4
	c0,0.2,0,0.4,0,0.6l-0.9,6.7c-0.3,2.2,0.8,3.3,2.3,3.3c1.5,0,2.9-1.1,3.1-3.3l3.4-26c0.3-1.9-1-3.7-2.9-4c-0.2,0-0.4,0-0.6,0
	L112.5,90L112.5,90z"/>
</svg>
