<?xml version="1.0" encoding="utf-8"?>
<!-- Generator: Adobe Illustrator 23.0.6, SVG Export Plug-In . SVG Version: 6.00 Build 0)  -->
<svg version="1.1" id="圖層_1" xmlns="http://www.w3.org/2000/svg" xmlns:xlink="http://www.w3.org/1999/xlink" x="0px" y="0px"
	 viewBox="0 0 736.7 132.1" style="enable-background:new 0 0 736.7 132.1;" xml:space="preserve">
<style type="text/css">
	.st0{clip-path:url(#SVGID_2_);}
	.st1{fill:#E6E6E6;}
	.st2{fill:none;stroke:#FFEEAC;stroke-width:2.63;stroke-linecap:round;stroke-miterlimit:10;}
	.st3{fill:none;stroke:#FFF7D5;stroke-width:1.67;stroke-linecap:round;stroke-miterlimit:10;}
	.st4{fill:none;stroke:#FFFFFF;stroke-width:0.77;stroke-linecap:round;stroke-miterlimit:10;}
	.st5{fill:none;stroke:#FFE682;stroke-width:4;stroke-linecap:round;stroke-miterlimit:10;}
	.st6{fill:#BEBEBE;}
	.st7{opacity:0.98;fill:#BEBEBE;enable-background:new    ;}
	.st8{opacity:0.96;fill:#BEBEBE;enable-background:new    ;}
	.st9{opacity:0.94;fill:#BEBEBE;enable-background:new    ;}
	.st10{opacity:0.93;fill:#BEBEBE;enable-background:new    ;}
	.st11{opacity:0.91;fill:#BEBEBE;enable-background:new    ;}
	.st12{opacity:0.89;fill:#BEBEBE;enable-background:new    ;}
	.st13{opacity:0.87;fill:#BEBEBE;enable-background:new    ;}
	.st14{opacity:0.85;fill:#BEBEBE;enable-background:new    ;}
	.st15{opacity:0.83;fill:#BEBEBE;enable-background:new    ;}
	.st16{opacity:0.82;fill:#BEBEBE;enable-background:new    ;}
	.st17{opacity:0.8;fill:#BEBEBE;enable-background:new    ;}
	.st18{opacity:0.78;fill:#BEBEBE;enable-background:new    ;}
	.st19{opacity:0.76;fill:#BEBEBE;enable-background:new    ;}
	.st20{opacity:0.74;fill:#BEBEBE;enable-background:new    ;}
	.st21{opacity:0.72;fill:#BEBEBE;enable-background:new    ;}
	.st22{opacity:0.71;fill:#BEBEBE;enable-background:new    ;}
	.st23{opacity:0.69;fill:#BEBEBE;enable-background:new    ;}
	.st24{opacity:0.67;fill:#BEBEBE;enable-background:new    ;}
	.st25{opacity:0.65;fill:#BEBEBE;enable-background:new    ;}
	.st26{opacity:0.63;fill:#BEBEBE;enable-background:new    ;}
	.st27{opacity:0.61;fill:#BEBEBE;enable-background:new    ;}
	.st28{opacity:0.6;fill:#BEBEBE;enable-background:new    ;}
	.st29{opacity:0.58;fill:#BEBEBE;enable-background:new    ;}
	.st30{opacity:0.56;fill:#BEBEBE;enable-background:new    ;}
	.st31{opacity:0.54;fill:#BEBEBE;enable-background:new    ;}
	.st32{opacity:0.52;fill:#BEBEBE;enable-background:new    ;}
	.st33{opacity:0.5;fill:#BEBEBE;enable-background:new    ;}
	.st34{opacity:0.49;fill:#BEBEBE;enable-background:new    ;}
	.st35{opacity:0.47;fill:#BEBEBE;enable-background:new    ;}
	.st36{opacity:0.45;fill:#BEBEBE;enable-background:new    ;}
	.st37{opacity:0.43;fill:#BEBEBE;enable-background:new    ;}
	.st38{opacity:0.41;fill:#BEBEBE;enable-background:new    ;}
	.st39{opacity:0.39;fill:#BEBEBE;enable-background:new    ;}
	.st40{opacity:0.38;fill:#BEBEBE;enable-background:new    ;}
	.st41{opacity:0.36;fill:#BEBEBE;enable-background:new    ;}
	.st42{opacity:0.34;fill:#BEBEBE;enable-background:new    ;}
	.st43{opacity:0.32;fill:#BEBEBE;enable-background:new    ;}
	.st44{fill:#FFFFFF;}
	.st45{fill:#E5E5E4;}
	
		.st46{fill:#9FC0C1;stroke:#006464;stroke-width:1.49;stroke-linecap:round;stroke-miterlimit:10;stroke-dasharray:100.12,25.23,0,0;}
	
		.st47{fill:#4F9292;stroke:#006464;stroke-width:2.98;stroke-linecap:round;stroke-miterlimit:10;stroke-dasharray:100.12,25.23,0,0;}
	
		.st48{fill:#006464;stroke:#006464;stroke-width:4.48;stroke-linecap:round;stroke-miterlimit:10;stroke-dasharray:100.12,25.23,0,0;}
	.st49{clip-path:url(#SVGID_4_);}
	.st50{clip-path:url(#SVGID_6_);}
	.st51{clip-path:url(#SVGID_8_);}
	.st52{clip-path:url(#SVGID_10_);}
	.st53{clip-path:url(#SVGID_12_);}
	.st54{clip-path:url(#SVGID_14_);}
	.st55{fill:#0099FF;}
	.st56{fill:#17BBEF;}
	.st57{fill:#A4CB35;}
	.st58{fill:#D7E044;}
	.st59{fill:#FF6E2B;}
	.st60{fill:#FF9947;}
	.st61{fill:#3C9195;stroke:#E6E6E6;stroke-width:0.42;stroke-miterlimit:10;}
	.st62{fill:none;stroke:#3C9195;stroke-width:0.79;stroke-miterlimit:10;}
	.st63{fill:#3C9195;}
	.st64{fill:none;stroke:#3C9195;stroke-width:1.59;stroke-linecap:round;stroke-linejoin:round;}
	.st65{fill:#3C9195;stroke:#E6E6E6;stroke-width:0.79;stroke-miterlimit:10;}
	.st66{fill:none;stroke:#3C9195;stroke-width:0.79;stroke-linecap:round;stroke-miterlimit:10;}
	.st67{fill:#3C9195;stroke:#E6E6E6;stroke-width:0.59;stroke-miterlimit:10;}
	.st68{opacity:0.9;}
	.st69{opacity:0.94;fill:#E0E0E0;enable-background:new    ;}
	.st70{opacity:0.92;fill:#E0E0E0;enable-background:new    ;}
	.st71{opacity:0.9;fill:#E0E0E0;enable-background:new    ;}
	.st72{opacity:0.88;fill:#E0E0E0;enable-background:new    ;}
	.st73{opacity:0.86;fill:#E0E0E0;enable-background:new    ;}
	.st74{opacity:0.84;fill:#E0E0E0;enable-background:new    ;}
	.st75{opacity:0.82;fill:#E0E0E0;enable-background:new    ;}
	.st76{opacity:0.8;fill:#E0E0E0;enable-background:new    ;}
	.st77{opacity:0.78;fill:#E0E0E0;enable-background:new    ;}
	.st78{opacity:0.76;fill:#E0E0E0;enable-background:new    ;}
	.st79{opacity:0.74;fill:#E0E0E0;enable-background:new    ;}
	.st80{opacity:0.72;fill:#E0E0E0;enable-background:new    ;}
	.st81{opacity:0.7;fill:#E0E0E0;enable-background:new    ;}
	.st82{opacity:0.68;fill:#E0E0E0;enable-background:new    ;}
	.st83{opacity:0.66;fill:#E0E0E0;enable-background:new    ;}
	.st84{opacity:0.64;fill:#E0E0E0;enable-background:new    ;}
	.st85{opacity:0.62;fill:#E0E0E0;enable-background:new    ;}
	.st86{opacity:0.6;fill:#E0E0E0;enable-background:new    ;}
	.st87{opacity:0.58;fill:#E0E0E0;enable-background:new    ;}
	.st88{opacity:0.56;fill:#E0E0E0;enable-background:new    ;}
	.st89{opacity:0.54;fill:#E0E0E0;enable-background:new    ;}
	.st90{opacity:0.52;fill:#E0E0E0;enable-background:new    ;}
	.st91{opacity:0.5;fill:#E0E0E0;enable-background:new    ;}
	.st92{opacity:0.48;fill:#E0E0E0;enable-background:new    ;}
	.st93{opacity:0.46;fill:#E0E0E0;enable-background:new    ;}
	.st94{opacity:0.44;fill:#E0E0E0;enable-background:new    ;}
	.st95{opacity:0.42;fill:#E0E0E0;enable-background:new    ;}
	.st96{opacity:0.4;fill:#E0E0E0;enable-background:new    ;}
	.st97{opacity:0.38;fill:#E0E0E0;enable-background:new    ;}
	.st98{opacity:0.36;fill:#E0E0E0;enable-background:new    ;}
	.st99{opacity:0.34;fill:#E0E0E0;enable-background:new    ;}
	.st100{opacity:0.32;fill:#E0E0E0;enable-background:new    ;}
	.st101{fill:#E0E0E0;fill-opacity:0;}
	.st102{opacity:0.25;fill:#A8C0C0;enable-background:new    ;}
	.st103{opacity:0.5;fill:#70A1A1;enable-background:new    ;}
	.st104{opacity:0.75;fill:#388181;enable-background:new    ;}
	.st105{fill:#388181;}
	.st106{fill:none;stroke:#006261;stroke-width:1.48;stroke-linecap:round;stroke-linejoin:round;}
	.st107{fill:none;stroke:#006261;stroke-width:1.81;stroke-linecap:round;stroke-miterlimit:10;}
	.st108{fill:#2D8588;}
	.st109{fill:none;stroke:#006261;stroke-width:1.81;stroke-linecap:round;stroke-linejoin:round;}
	.st110{fill:none;stroke:#006261;stroke-width:2.22;stroke-linecap:round;stroke-miterlimit:10;}
	.st111{fill:#1E797B;}
	.st112{fill:none;stroke:#006261;stroke-width:2.15;stroke-linecap:round;stroke-linejoin:round;}
	.st113{fill:none;stroke:#006261;stroke-width:2.63;stroke-linecap:round;stroke-miterlimit:10;}
	.st114{fill:#0F6D6E;}
	.st115{fill:none;stroke:#006261;stroke-width:2.49;stroke-linecap:round;stroke-linejoin:round;}
	.st116{fill:none;stroke:#006261;stroke-width:3.04;stroke-linecap:round;stroke-miterlimit:10;}
	.st117{fill:#006261;}
	.st118{fill:none;stroke:#006261;stroke-width:2.82;stroke-linecap:round;stroke-linejoin:round;}
	.st119{fill:none;stroke:#006261;stroke-width:3.45;stroke-linecap:round;stroke-miterlimit:10;}
	.st120{fill:none;stroke:#006261;stroke-width:2.88;stroke-linecap:round;stroke-linejoin:round;}
	.st121{fill:none;stroke:#006261;stroke-width:3.52;stroke-linecap:round;stroke-miterlimit:10;}
	.st122{fill:none;stroke:#006261;stroke-width:3.54;stroke-linecap:round;stroke-linejoin:round;}
	.st123{fill:none;}
	.st124{fill:#FFDD58;}
	.st125{opacity:0.98;fill:#004864;enable-background:new    ;}
	.st126{opacity:0.96;fill:#004864;enable-background:new    ;}
	.st127{opacity:0.94;fill:#004864;enable-background:new    ;}
	.st128{opacity:0.93;fill:#004864;enable-background:new    ;}
	.st129{opacity:0.91;fill:#004864;enable-background:new    ;}
	.st130{opacity:0.89;fill:#004864;enable-background:new    ;}
	.st131{opacity:0.87;fill:#004864;enable-background:new    ;}
	.st132{opacity:0.85;fill:#004864;enable-background:new    ;}
	.st133{opacity:0.83;fill:#004864;enable-background:new    ;}
	.st134{opacity:0.82;fill:#004864;enable-background:new    ;}
	.st135{opacity:0.8;fill:#004864;enable-background:new    ;}
	.st136{opacity:0.78;fill:#004864;enable-background:new    ;}
	.st137{opacity:0.76;fill:#004864;enable-background:new    ;}
	.st138{opacity:0.74;fill:#004864;enable-background:new    ;}
	.st139{opacity:0.72;fill:#004864;enable-background:new    ;}
	.st140{opacity:0.71;fill:#004864;enable-background:new    ;}
	.st141{opacity:0.69;fill:#004864;enable-background:new    ;}
	.st142{opacity:0.67;fill:#004864;enable-background:new    ;}
	.st143{opacity:0.65;fill:#004864;enable-background:new    ;}
	.st144{opacity:0.63;fill:#004864;enable-background:new    ;}
	.st145{opacity:0.61;fill:#004864;enable-background:new    ;}
	.st146{opacity:0.6;fill:#004864;enable-background:new    ;}
	.st147{opacity:0.58;fill:#004864;enable-background:new    ;}
	.st148{opacity:0.56;fill:#004864;enable-background:new    ;}
	.st149{opacity:0.54;fill:#004864;enable-background:new    ;}
	.st150{opacity:0.52;fill:#004864;enable-background:new    ;}
	.st151{opacity:0.5;fill:#004864;enable-background:new    ;}
	.st152{opacity:0.49;fill:#004864;enable-background:new    ;}
	.st153{opacity:0.47;fill:#004864;enable-background:new    ;}
	.st154{opacity:0.45;fill:#004864;enable-background:new    ;}
	.st155{opacity:0.43;fill:#004864;enable-background:new    ;}
	.st156{opacity:0.41;fill:#004864;enable-background:new    ;}
	.st157{opacity:0.39;fill:#004864;enable-background:new    ;}
	.st158{opacity:0.38;fill:#004864;enable-background:new    ;}
	.st159{opacity:0.36;fill:#004864;enable-background:new    ;}
	.st160{opacity:0.34;fill:#004864;enable-background:new    ;}
	.st161{opacity:0.32;fill:#004864;enable-background:new    ;}
	.st162{fill:#BF9B46;}
	.st163{fill:#F2F2F2;}
	.st164{fill:#FFFCDB;}
</style>
<title>Rethink Taiwan_Landing Page</title>
<g id="_2018">
	<g>
		<defs>
			<path id="SVGID_1_" d="M736.7,132.1H67.8c-36.5,0-66.1-29.6-66.1-66.1c0,0,0,0,0,0l0,0C1.7,29.6,31.3,0,67.8,0c0,0,0,0,0,0h668.9
				V132.1z"/>
		</defs>
		<clipPath id="SVGID_2_">
			<use xlink:href="#SVGID_1_"  style="overflow:visible;"/>
		</clipPath>
		<g class="st0">
			<rect x="-161.7" y="-3.9" class="st1" width="990.1" height="136.7"/>
			<ellipse class="st2" cx="228.7" cy="19.8" rx="159" ry="158.5"/>
			<ellipse class="st3" cx="228.7" cy="21.1" rx="229.9" ry="229.2"/>
			<ellipse class="st4" cx="228.7" cy="22.1" rx="306.5" ry="305.5"/>
			<ellipse class="st5" cx="228.7" cy="16.4" rx="94.9" ry="94.6"/>
			<rect x="-158.9" y="130.3" class="st6" width="978.1" height="2.5"/>
			
				<rect x="329.6" y="-359.2" transform="matrix(1.919872e-03 -1 1 1.919872e-03 200.3452 460.3198)" class="st7" width="2.4" height="978.1"/>
			
				<rect x="329.6" y="-361.3" transform="matrix(1.919872e-03 -1 1 1.919872e-03 202.3741 458.2748)" class="st8" width="2.4" height="978.1"/>
			
				<rect x="329.6" y="-363.3" transform="matrix(1.919872e-03 -1 1 1.919872e-03 204.393 456.2598)" class="st9" width="2.3" height="978.1"/>
			
				<rect x="329.6" y="-365.3" transform="matrix(1.919872e-03 -1 1 1.919872e-03 206.4119 454.2248)" class="st10" width="2.2" height="978.1"/>
			
				<rect x="329.7" y="-367.4" transform="matrix(1.919872e-03 -1 1 1.919872e-03 208.4458 452.1748)" class="st11" width="2.2" height="978.1"/>
			
				<rect x="329.7" y="-369.4" transform="matrix(1.919872e-03 -1 1 1.919872e-03 210.4547 450.1497)" class="st12" width="2.1" height="978.1"/>
			
				<rect x="329.7" y="-371.4" transform="matrix(1.919872e-03 -1 1 1.919872e-03 212.4736 448.1148)" class="st13" width="2" height="978.1"/>
			
				<rect x="329.7" y="-373.4" transform="matrix(1.919872e-03 -1 1 1.919872e-03 214.5025 446.0897)" class="st14" width="2" height="978.1"/>
			
				<rect x="329.8" y="-375.5" transform="matrix(1.919872e-03 -1 1 1.919872e-03 216.5264 444.0497)" class="st15" width="1.9" height="978.1"/>
			<rect x="-159" y="110.4" class="st16" width="978.1" height="1.8"/>
			
				<rect x="329.8" y="-379.5" transform="matrix(1.919872e-03 -1 1 1.919872e-03 220.5642 439.9797)" class="st17" width="1.8" height="978.1"/>
			
				<rect x="329.8" y="-381.6" transform="matrix(1.919872e-03 -1 1 1.919872e-03 222.5831 437.9447)" class="st18" width="1.7" height="978.1"/>
			
				<rect x="329.9" y="-383.6" transform="matrix(1.919872e-03 -1 1 1.919872e-03 224.597 435.9147)" class="st19" width="1.6" height="978.1"/>
			
				<rect x="329.9" y="-385.6" transform="matrix(1.919872e-03 -1 1 1.919872e-03 226.6359 433.8797)" class="st20" width="1.5" height="978.1"/>
			
				<rect x="329.9" y="-387.7" transform="matrix(1.919872e-03 -1 1 1.919872e-03 228.6548 431.8447)" class="st21" width="1.5" height="978.1"/>
			<rect x="-159" y="98.4" class="st22" width="978.1" height="1.4"/>
			<rect x="-159" y="96.5" class="st23" width="978.1" height="1.4"/>
			
				<rect x="330" y="-393.7" transform="matrix(1.919872e-03 -1 1 1.919872e-03 234.7164 425.7546)" class="st24" width="1.3" height="978.1"/>
			
				<rect x="330" y="-395.8" transform="matrix(1.919872e-03 -1 1 1.919872e-03 236.7353 423.7196)" class="st25" width="1.2" height="978.1"/>
			
				<rect x="330.1" y="-397.8" transform="matrix(1.919872e-03 -1 1 1.919872e-03 238.7692 421.6897)" class="st26" width="1.1" height="978.1"/>
			
				<rect x="330.1" y="-399.8" transform="matrix(1.919872e-03 -1 1 1.919872e-03 240.7881 419.6546)" class="st27" width="1.1" height="978.1"/>
			
				<rect x="330.1" y="-401.9" transform="matrix(1.919872e-03 -1 1 1.919872e-03 242.807 417.6196)" class="st28" width="1" height="978.1"/>
			
				<rect x="330.1" y="-403.9" transform="matrix(1.919872e-03 -1 1 1.919872e-03 244.8159 415.5945)" class="st29" width="0.9" height="978.1"/>
			
				<rect x="330.2" y="-405.9" transform="matrix(1.919872e-03 -1 1 1.919872e-03 246.8499 413.5446)" class="st30" width="0.9" height="978.1"/>
			
				<rect x="330.2" y="-407.9" transform="matrix(1.919872e-03 -1 1 1.919872e-03 248.8787 411.5196)" class="st31" width="0.8" height="978.1"/>
			
				<rect x="330.2" y="-410" transform="matrix(1.919872e-03 -1 1 1.919872e-03 250.8876 409.4945)" class="st32" width="0.7" height="978.1"/>
			
				<rect x="330.2" y="-412" transform="matrix(1.919872e-03 -1 1 1.919872e-03 252.9165 407.4496)" class="st33" width="0.7" height="978.1"/>
			<rect x="-159.1" y="74.6" class="st34" width="978.1" height="0.6"/>
			
				<rect x="330.3" y="-416.1" transform="matrix(1.919872e-03 -1 1 1.919872e-03 256.9493 403.3845)" class="st35" width="0.5" height="978.1"/>
			
				<rect x="330.3" y="-418.1" transform="matrix(1.919872e-03 -1 1 1.919872e-03 258.9782 401.3395)" class="st36" width="0.5" height="978.1"/>
			
				<rect x="330.3" y="-420.1" transform="matrix(1.919872e-03 -1 1 1.919872e-03 260.9971 399.3245)" class="st37" width="0.4" height="978.1"/>
			
				<rect x="330.4" y="-422.2" transform="matrix(1.919872e-03 -1 1 1.919872e-03 263.0211 397.2845)" class="st38" width="0.3" height="978.1"/>
			
				<rect x="330.4" y="-424.2" transform="matrix(1.919872e-03 -1 1 1.919872e-03 265.0399 395.2495)" class="st39" width="0.3" height="978.1"/>
			<rect x="-159.1" y="62.6" class="st40" width="978.1" height="0.2"/>
			<rect x="-159.2" y="60.6" class="st41" width="978.1" height="0.1"/>
			
				<rect x="330.5" y="-430.3" transform="matrix(1.919872e-03 -1 1 1.919872e-03 271.1216 389.1594)" class="st42" width="0.1" height="978.1"/>
			<polygon class="st43" points="-158.5,55.8 -158.5,55.8 819.5,57.7 819.5,57.7 			"/>
			<circle class="st44" cx="35.8" cy="34.8" r="1.8"/>
			<circle class="st44" cx="355.9" cy="122.7" r="1.2"/>
			<circle class="st44" cx="64.2" cy="2.5" r="1.2"/>
			<circle class="st44" cx="8.9" cy="42.6" r="1.2"/>
			<circle class="st44" cx="145.4" cy="88.9" r="1.2"/>
			<circle class="st44" cx="329.4" cy="26.8" r="1.2"/>
			<circle class="st44" cx="476.9" cy="37.6" r="1.2"/>
			<circle class="st44" cx="452.6" cy="80.5" r="1.2"/>
			<circle class="st44" cx="399.3" cy="96.7" r="1.2"/>
			<circle class="st44" cx="511.3" cy="46.7" r="1.2"/>
			<circle class="st44" cx="186" cy="60.1" r="2.3"/>
			<circle class="st44" cx="72.6" cy="22" r="1.1"/>
			<circle class="st45" cx="45.4" cy="16.8" r="1.1"/>
			<circle class="st44" cx="95.7" cy="15.6" r="0.6"/>
			<circle class="st44" cx="95.6" cy="57.9" r="0.6"/>
			<circle class="st44" cx="114.5" cy="103.3" r="0.6"/>
			<circle class="st44" cx="128.1" cy="8.4" r="0.6"/>
			<circle class="st44" cx="184.3" cy="11.7" r="0.6"/>
			<circle class="st44" cx="79.2" cy="81.6" r="0.6"/>
			<circle class="st44" cx="56" cy="124.7" r="0.6"/>
			<circle class="st44" cx="44.6" cy="102" r="0.6"/>
			<circle class="st44" cx="34.4" cy="71.7" r="0.6"/>
			<circle class="st44" cx="57.2" cy="56.2" r="0.6"/>
			<circle class="st44" cx="128" cy="124.4" r="0.6"/>
			<circle class="st44" cx="91.6" cy="117.2" r="0.6"/>
			<circle class="st44" cx="204.6" cy="118.2" r="0.6"/>
			<circle class="st44" cx="326.3" cy="79.1" r="0.6"/>
			<circle class="st44" cx="251" cy="98.5" r="0.6"/>
			<circle class="st44" cx="383.7" cy="73.8" r="0.6"/>
			<circle class="st44" cx="354.5" cy="56.8" r="0.6"/>
			<circle class="st44" cx="442.2" cy="24.6" r="3.2"/>
			<circle class="st44" cx="349.6" cy="28" r="0.6"/>
			<circle class="st44" cx="120.7" cy="9.2" r="0.6"/>
			<circle class="st44" cx="2.9" cy="15.6" r="1.2"/>
			<circle class="st44" cx="69" cy="23.4" r="1.2"/>
			<circle class="st44" cx="8.8" cy="61.7" r="3"/>
			<circle class="st44" cx="85.5" cy="7.1" r="0.6"/>
			<circle class="st44" cx="88.2" cy="33.2" r="0.6"/>
			<circle class="st1" cx="32.6" cy="43.6" r="1.1"/>
			<circle class="st44" cx="48" cy="81.6" r="1.8"/>
			<circle class="st44" cx="389.2" cy="44.5" r="1.2"/>
			<circle class="st44" cx="422.5" cy="60.1" r="1.2"/>
			<circle class="st44" cx="388" cy="17.7" r="1.2"/>
			<circle class="st44" cx="343.5" cy="8.9" r="1.2"/>
			<circle class="st44" cx="472.9" cy="64.4" r="1.2"/>
			<circle class="st44" cx="472.4" cy="37.9" r="1.2"/>
			<circle class="st44" cx="439.9" cy="93.8" r="1.2"/>
			<circle class="st44" cx="518.5" cy="90.4" r="1.2"/>
			<circle class="st44" cx="453" cy="10.6" r="1.2"/>
			<circle class="st44" cx="425.1" cy="12.9" r="1.2"/>
			<circle class="st44" cx="352.2" cy="88.1" r="3"/>
			<circle class="st44" cx="354" cy="66.2" r="3"/>
			<circle class="st44" cx="490.4" cy="26.8" r="0.6"/>
			<circle class="st44" cx="479.3" cy="10.1" r="0.6"/>
			<circle class="st44" cx="24.9" cy="25.1" r="1.2"/>
			<circle class="st44" cx="22.2" cy="60.1" r="1.2"/>
			<circle class="st44" cx="78.8" cy="14.4" r="0.6"/>
			<circle class="st44" cx="72.5" cy="47.7" r="0.6"/>
			<circle class="st44" cx="47.2" cy="22.8" r="0.6"/>
			<circle class="st44" cx="47.6" cy="48.2" r="0.6"/>
			<circle class="st44" cx="163.6" cy="117.3" r="1.8"/>
			<circle class="st44" cx="451.8" cy="121.8" r="1.8"/>
			<circle class="st44" cx="229.1" cy="97.6" r="1.2"/>
			<circle class="st44" cx="21.6" cy="9.2" r="1.2"/>
			<circle class="st44" cx="293.3" cy="88.9" r="1.2"/>
			<circle class="st44" cx="95.9" cy="12.1" r="3"/>
			<circle class="st1" cx="24.9" cy="51.4" r="1.1"/>
			<ellipse class="st46" cx="228.7" cy="14.4" rx="84.5" ry="84.4"/>
			<ellipse class="st47" cx="228.7" cy="14.4" rx="78.8" ry="78.6"/>
			<ellipse class="st48" cx="228.7" cy="14.4" rx="73.1" ry="72.9"/>
			
				<image style="overflow:visible;enable-background:new    ;" width="559" height="159" xlink:href="E9E292160A7AC06E.png"  transform="matrix(0.48 0 0 0.48 254.93 77.66)">
			</image>
			<g>
				<defs>
					<path id="SVGID_3_" d="M256,80.2l-1-0.3c-0.6-0.2-1-0.8-0.8-1.4c0.2-0.6,0.8-1,1.4-0.8l0,0l0.9,0.3L256,80.2z"/>
				</defs>
				<clipPath id="SVGID_4_">
					<use xlink:href="#SVGID_3_"  style="overflow:visible;"/>
				</clipPath>
				<g class="st49">
					
						<image style="overflow:visible;enable-background:new    ;" width="13" height="9" xlink:href="E9E292160A7AC072.png"  transform="matrix(0.48 0 0 0.48 250.61 76.22)">
					</image>
				</g>
			</g>
			
				<image style="overflow:visible;enable-background:new    ;" width="337" height="159" xlink:href="E9E292160A7AC075.png"  transform="matrix(0.48 0 0 0.48 243.89 77.66)">
			</image>
			<g>
				<defs>
					<path id="SVGID_5_" d="M245,80.3l-0.9-0.4c-0.6-0.3-0.8-1-0.5-1.5c0.3-0.6,1-0.8,1.5-0.5l0.9,0.4L245,80.3z"/>
				</defs>
				<clipPath id="SVGID_6_">
					<use xlink:href="#SVGID_5_"  style="overflow:visible;"/>
				</clipPath>
				<g class="st50">
					
						<image style="overflow:visible;enable-background:new    ;" width="14" height="10" xlink:href="E9E292160A7AC076.png"  transform="matrix(0.48 0 0 0.48 239.57 75.74)">
					</image>
				</g>
			</g>
			
				<image style="overflow:visible;enable-background:new    ;" width="115" height="157" xlink:href="E9E292160A7AC074.png"  transform="matrix(0.48 0 0 0.48 232.85 78.14)">
			</image>
			<g>
				<defs>
					<path id="SVGID_7_" d="M233.7,80.3l-0.6-0.8c-0.3-0.6-0.1-1.3,0.5-1.5c0.4-0.2,1-0.1,1.3,0.2l0.6,0.8L233.7,80.3z"/>
				</defs>
				<clipPath id="SVGID_8_">
					<use xlink:href="#SVGID_7_"  style="overflow:visible;"/>
				</clipPath>
				<g class="st51">
					
						<image style="overflow:visible;enable-background:new    ;" width="11" height="13" xlink:href="E9E292160A7AC073.png"  transform="matrix(0.48 0 0 0.48 230.45 74.3)">
					</image>
				</g>
			</g>
			
				<image style="overflow:visible;enable-background:new    ;" width="559" height="159" xlink:href="E9E292160A7AC07D.png"  transform="matrix(0.48 0 0 0.48 -65.71 77.66)">
			</image>
			<g>
				<defs>
					<path id="SVGID_9_" d="M200.8,78l1-0.3c0.6-0.2,1.2,0.2,1.4,0.8c0.2,0.6-0.2,1.2-0.8,1.4l-0.9,0.3L200.8,78z"/>
				</defs>
				<clipPath id="SVGID_10_">
					<use xlink:href="#SVGID_9_"  style="overflow:visible;"/>
				</clipPath>
				<g class="st52">
					
						<image style="overflow:visible;enable-background:new    ;" width="13" height="9" xlink:href="E9E292160A7AC07E.png"  transform="matrix(0.48 0 0 0.48 200.69 76.22)">
					</image>
				</g>
			</g>
			
				<image style="overflow:visible;enable-background:new    ;" width="337" height="159" xlink:href="E9E292160A7AC07C.png"  transform="matrix(0.48 0 0 0.48 51.89 77.66)">
			</image>
			<g>
				<defs>
					<path id="SVGID_11_" d="M211.6,78.2l0.9-0.4c0.6-0.3,1.3,0,1.5,0.5c0.3,0.6,0,1.3-0.5,1.5l0,0l-0.9,0.4L211.6,78.2z"/>
				</defs>
				<clipPath id="SVGID_12_">
					<use xlink:href="#SVGID_11_"  style="overflow:visible;"/>
				</clipPath>
				<g class="st53">
					
						<image style="overflow:visible;enable-background:new    ;" width="14" height="10" xlink:href="CDBF1D2F83BDD031.png"  transform="matrix(0.48 0 0 0.48 211.25 75.74)">
					</image>
				</g>
			</g>
			
				<image style="overflow:visible;enable-background:new    ;" width="116" height="157" xlink:href="CDBF1D2F83BDD037.png"  transform="matrix(0.48 0 0 0.48 169.01 78.14)">
			</image>
			<g>
				<defs>
					<path id="SVGID_13_" d="M221.9,79l0.6-0.8c0.4-0.5,1.1-0.6,1.6-0.3s0.6,1.1,0.3,1.6l-0.6,0.8L221.9,79z"/>
				</defs>
				<clipPath id="SVGID_14_">
					<use xlink:href="#SVGID_13_"  style="overflow:visible;"/>
				</clipPath>
				<g class="st54">
					
						<image style="overflow:visible;enable-background:new    ;" width="11" height="13" xlink:href="CDBF1D2F83BDD030.png"  transform="matrix(0.48 0 0 0.48 221.81 74.3)">
					</image>
				</g>
			</g>
			<circle class="st55" cx="70.9" cy="3.9" r="20.1"/>
			<circle class="st56" cx="69.5" cy="6.8" r="20.1"/>
			<path class="st57" d="M324.3,29.3l4.1,3.3c1.1,0.9,1.3,2.6,0.4,3.7l-3.3,4.1c-0.9,1.1-2.6,1.3-3.7,0.4l-4.1-3.3
				c-1.1-0.9-1.3-2.6-0.4-3.7l3.3-4.1C321.5,28.6,323.2,28.4,324.3,29.3z"/>
			<path class="st58" d="M323.2,30.7l4.1,3.3c1.1,0.9,1.3,2.6,0.4,3.7l-3.3,4.1c-0.9,1.1-2.6,1.3-3.7,0.4l-4.1-3.3
				c-1.1-0.9-1.3-2.6-0.4-3.7l3.3-4.1C320.4,30,322.1,29.8,323.2,30.7z"/>
			<path class="st59" d="M390.7-3.3h-6.8c-1.7,0-3.3,0.9-4.1,2.3l-3.4,6c-0.9,1.5-0.9,3.3,0,4.8l3.4,5.9c0.9,1.4,2.4,2.3,4.1,2.3
				h6.8c1.7,0,3.3-0.9,4.1-2.4l3.4-5.9c0.8-1.5,0.8-3.3,0-4.8L394.9-1C394-2.5,392.4-3.4,390.7-3.3z"/>
			<path class="st60" d="M393-8.1h-8c-2,0-3.8,1.1-4.8,2.8l-4,6.9c-1,1.7-1,3.9,0,5.6l4,6.9c1,1.7,2.8,2.8,4.8,2.8h8
				c2,0,3.8-1.1,4.8-2.8l4-6.9c1-1.7,1-3.9,0-5.6l-4-6.9C396.8-7,395-8.1,393-8.1z"/>
			<circle class="st61" cx="116.1" cy="46" r="1.5"/>
			<circle class="st61" cx="121.3" cy="45.6" r="1.5"/>
			<line class="st62" x1="116.2" y1="45.9" x2="121" y2="45.5"/>
			
				<rect x="116.4" y="33.3" transform="matrix(0.997 -7.793710e-02 7.793710e-02 0.997 -2.3117 9.2557)" class="st63" width="2" height="2"/>
			<line class="st64" x1="116.3" y1="33.3" x2="118.3" y2="33.2"/>
			<path class="st63" d="M127.5,45.3l-2.2-3.1l0,0c-0.1-0.7-0.6-1.1-1.3-1.1c0,0,0,0,0,0h-0.4v-0.4l-1.2,0.1c-0.4,0-0.4-0.2-0.4-0.3
				l0,0l-0.2-2.7c-0.1-1.5-1.5-2.7-3-2.6l-15.4,1.2c-0.4,0-0.8-0.3-0.8-0.7c0,0,0,0,0,0c0-0.4-0.4-0.7-0.8-0.7c0,0,0,0,0,0l-12.3,1
				c-0.4,0-0.8,0.4-0.7,0.8c0,0,0,0,0,0v0.4c0,0.4,0.4,0.7,0.8,0.7c0,0,0,0,0,0c0.4,0,0.8,0.3,0.8,0.7l0.5,6c0,0.4-0.3,0.8-0.7,0.8
				c-0.4,0-0.7,0.4-0.7,0.8l0,0c0,0.4,0.4,0.8,0.9,0.7l3.6-0.3c0.4,0,0.7-0.4,0.7-0.8c0,0,0,0,0,0c0-0.4,0.3-0.8,0.7-0.8l17.8-1.4
				v-0.4l1-0.1c0,0,0,0,0,0.1v0.2c0,0.6,0.5,1,1.1,1c0,0,0,0,0,0l4.2-0.3c0.6,0,1-0.5,1-1.1c0,0,0,0,0,0c0,0,0-0.3,0-0.3l2-0.2
				c0.4,0,0.7,0.3,0.8,0.7l0.2,2.6c0,0.3,0.3,0.6,0.7,0.6c0,0,0,0,0,0l3.2-0.2c0.2,0,0.4-0.3,0.4-0.5
				C127.7,45.5,127.6,45.4,127.5,45.3z M95.8,41.3c0,0.4-0.3,0.8-0.7,0.8c0,0,0,0,0,0l-2,0.2c-0.4,0-0.8-0.3-0.8-0.7c0,0,0,0,0,0
				L92,38.4c0-0.4,0.3-0.8,0.7-0.8c0,0,0,0,0,0l2-0.2c0.4,0,0.8,0.3,0.8,0.7L95.8,41.3z"/>
			<circle class="st65" cx="98.1" cy="45.5" r="3.2"/>
			<circle class="st65" cx="104.7" cy="45.2" r="3.2"/>
			<circle class="st65" cx="111.2" cy="44.9" r="3.2"/>
			<line class="st62" x1="98.1" y1="45.5" x2="104.8" y2="44.8"/>
			<line class="st62" x1="106.7" y1="44.8" x2="109.6" y2="43.5"/>
			<line class="st66" x1="88.6" y1="45.8" x2="88.7" y2="46.6"/>
			<path class="st63" d="M86,44.7l-0.5-4c-0.1-1-1.1-1.8-2.1-1.7l-19.2,2.2c-1,0.1-1.7,1-1.5,2l0.5,4.2l-1.6,0.2l0.1,1.2l1.6-0.2
				l0.1,0.8l22.8-2.7h0.2c0.5-0.1,0.9-0.6,0.9-1.1l0,0c-0.1-0.5-0.6-0.9-1.1-0.9L86,44.7z"/>
			<circle class="st67" cx="80.9" cy="47" r="2"/>
			<circle class="st67" cx="74.6" cy="47.8" r="2"/>
			<circle class="st67" cx="68.3" cy="48.5" r="2"/>
			<line class="st66" x1="60.8" y1="47.6" x2="60.9" y2="48.8"/>
			<path class="st63" d="M58.7,48.3l-0.8-3.9c-0.2-1-1.2-1.7-2.3-1.5l-18.9,3.9c-0.9,0.2-1.6,1.1-1.4,2.1c0,0,0,0,0,0l0.8,4.2
				l-1.6,0.3l0.2,1.2l1.5-0.3l0.2,0.8l22.5-4.6h0.2c0.5-0.1,0.9-0.7,0.8-1.2c0,0,0,0,0,0l0,0c-0.1-0.5-0.6-0.9-1.2-0.8L58.7,48.3z"
				/>
			<circle class="st67" cx="53.8" cy="51.2" r="2"/>
			<circle class="st67" cx="47.6" cy="52.4" r="2"/>
			<circle class="st67" cx="41.3" cy="53.7" r="2"/>
			<line class="st66" x1="33.8" y1="53.4" x2="34" y2="54.6"/>
			<path class="st63" d="M31.6,53.7l-1.1-3.9c-0.3-1-1.4-1.6-2.4-1.3L9.5,53.7C8.6,54,8,54.9,8.3,55.9l1.1,4l-1.5,0.4l0.3,1.1
				L9.7,61l0.2,0.8l22.1-6.2h0.2c0.5-0.1,0.9-0.7,0.7-1.2c0,0,0,0,0-0.1l0,0c-0.2-0.5-0.7-0.8-1.2-0.7L31.6,53.7z"/>
			<circle class="st67" cx="26.9" cy="56.8" r="2"/>
			<circle class="st67" cx="20.8" cy="58.6" r="2"/>
			<circle class="st67" cx="14.7" cy="60.3" r="2"/>
			<line class="st66" x1="7.1" y1="60.6" x2="7.4" y2="61.7"/>
			<path class="st63" d="M4.8,60.7l-1.4-3.8c-0.4-1-1.5-1.5-2.5-1.2l-18.2,6.5c-0.9,0.3-1.4,1.3-1.1,2.2l1.4,3.9l-1.5,0.5l0.4,1.1
				l1.5-0.5l0.3,0.7l21.6-7.7l0.2-0.1c0.5-0.2,0.8-0.8,0.6-1.3l0,0c-0.2-0.5-0.7-0.8-1.3-0.6L4.8,60.7z"/>
			<circle class="st67" cx="0.4" cy="64.2" r="2"/>
			<path class="st63" d="M107.7,20.3c0.7,0,1.2,0.4,1.3,1.1s-0.4,1.2-1.1,1.3c-0.7,0-1.2-0.4-1.3-1.1c0,0,0,0,0,0
				C106.5,20.9,107,20.3,107.7,20.3z"/>
			<path class="st63" d="M98,4.4h0.6c0.4,0.5,1.3,0.4,2.2-0.1c0.9-0.6,2-0.9,3.1-1c0.9-0.1,1.8,0,2.7,0.4c0.6,0.3,1.3,0.5,1.9,0.6
				h0.2c0.4,0,0.7,0.3,0.8,0.7V5c0.2,0.5,0.5,1,0.9,1.3c0.5,0.6,2,3.1,2.8,3.7c1,0.8,1.7,2,1.9,3.4c0.2,2.8-1.9,5.3-4.8,5.5
				c0,0,0,0,0,0c-0.7,0.1-1.4,0-2-0.3c-0.8-0.5-1.8-0.7-2.7-0.6h-0.6c-4.1,0.3-7.7-2.8-8-6.9c0,0,0,0,0,0c-0.1-0.9,0-1.8,0.4-2.7
				c0.4-0.9,0.2-1.9-0.4-2.2V5.6C96.8,5,97.3,4.4,98,4.4z"/>
			<path class="st63" d="M119.9,22c0.4-0.1,0.8,0.2,0.8,0.6c0.1,0.4-0.2,0.8-0.6,0.8c0,0-0.1,0-0.1,0c-0.4,0-0.7-0.3-0.7-0.7
				C119.3,22.3,119.6,22.1,119.9,22z"/>
			<path class="st63" d="M114.3,20.4c1.9-0.2,3.6,1.3,3.7,3.2c0,0,0,0,0,0v0.5c-0.1,0.7,0,1.4,0.3,1.9v0.6c0.1,1.4-0.9,2.5-2.3,2.6
				c0,0,0,0,0,0c-1.3,0.1-1.7-0.6-1.7-0.6c-0.6-1-1.4-1.9-2.4-2.6c-0.6-0.5-0.9-1.2-0.9-2C111,22.2,112.4,20.5,114.3,20.4z"/>
			<g class="st68">
				
					<rect x="331.9" y="-494.2" transform="matrix(1.919872e-03 -1 1 1.919872e-03 333.257 331.1534)" class="st69" width="1.2" height="985.6"/>
				
					<rect x="331.9" y="-493.2" transform="matrix(1.919872e-03 -1 1 1.919872e-03 332.3202 332.1084)" class="st70" width="1.2" height="985.6"/>
				
					<rect x="332" y="-492.3" transform="matrix(1.919872e-03 -1 1 1.919872e-03 331.3883 333.0584)" class="st71" width="1.1" height="985.6"/>
				
					<rect x="332" y="-491.3" transform="matrix(1.919872e-03 -1 1 1.919872e-03 330.4366 334.0084)" class="st72" width="1.1" height="985.6"/>
				
					<rect x="332" y="-490.4" transform="matrix(1.919872e-03 -1 1 1.919872e-03 329.4947 334.9684)" class="st73" width="1" height="985.6"/>
				
					<rect x="332.1" y="-489.4" transform="matrix(1.919872e-03 -1 1 1.919872e-03 328.5529 335.9284)" class="st74" width="1" height="985.6"/>
				
					<rect x="332.1" y="-488.5" transform="matrix(1.919872e-03 -1 1 1.919872e-03 327.6211 336.8784)" class="st75" width="1" height="985.6"/>
				
					<rect x="332.1" y="-487.5" transform="matrix(1.919872e-03 -1 1 1.919872e-03 326.6792 337.8385)" class="st76" width="0.9" height="985.6"/>
				
					<rect x="332.1" y="-486.6" transform="matrix(1.919872e-03 -1 1 1.919872e-03 325.7374 338.7984)" class="st77" width="0.9" height="985.6"/>
				
					<rect x="332.2" y="-485.7" transform="matrix(1.919872e-03 -1 1 1.919872e-03 324.7956 339.7385)" class="st78" width="0.9" height="985.6"/>
				
					<rect x="332.2" y="-484.7" transform="matrix(1.919872e-03 -1 1 1.919872e-03 323.8488 340.6835)" class="st79" width="0.8" height="985.6"/>
				
					<rect x="332.2" y="-483.8" transform="matrix(1.919872e-03 -1 1 1.919872e-03 322.917 341.6335)" class="st80" width="0.8" height="985.6"/>
				
					<rect x="332.2" y="-482.8" transform="matrix(1.919872e-03 -1 1 1.919872e-03 321.9652 342.6035)" class="st81" width="0.7" height="985.6"/>
				
					<rect x="332.3" y="-481.9" transform="matrix(1.919872e-03 -1 1 1.919872e-03 321.0334 343.5536)" class="st82" width="0.7" height="985.6"/>
				
					<rect x="332.3" y="-480.9" transform="matrix(1.919872e-03 -1 1 1.919872e-03 320.0915 344.5135)" class="st83" width="0.7" height="985.6"/>
				
					<rect x="332.3" y="-480" transform="matrix(1.919872e-03 -1 1 1.919872e-03 319.1597 345.4636)" class="st84" width="0.6" height="985.6"/>
				
					<rect x="332.4" y="-479" transform="matrix(1.919872e-03 -1 1 1.919872e-03 318.2078 346.4336)" class="st85" width="0.6" height="985.6"/>
				
					<rect x="332.4" y="-478.1" transform="matrix(1.919872e-03 -1 1 1.919872e-03 317.2661 347.3736)" class="st86" width="0.5" height="985.6"/>
				
					<rect x="332.4" y="-477.1" transform="matrix(1.919872e-03 -1 1 1.919872e-03 316.3292 348.3286)" class="st87" width="0.5" height="985.6"/>
				
					<rect x="332.4" y="-476.2" transform="matrix(1.919872e-03 -1 1 1.919872e-03 315.3974 349.2787)" class="st88" width="0.5" height="985.6"/>
				
					<rect x="332.5" y="-475.2" transform="matrix(1.919872e-03 -1 1 1.919872e-03 314.4456 350.2487)" class="st89" width="0.4" height="985.6"/>
				
					<rect x="332.5" y="-474.3" transform="matrix(1.919872e-03 -1 1 1.919872e-03 313.5138 351.1987)" class="st90" width="0.4" height="985.6"/>
				
					<rect x="332.5" y="-473.3" transform="matrix(1.919872e-03 -1 1 1.919872e-03 312.5719 352.1587)" class="st91" width="0.4" height="985.6"/>
				
					<rect x="332.5" y="-472.4" transform="matrix(1.919872e-03 -1 1 1.919872e-03 311.6302 353.0987)" class="st92" width="0.3" height="985.6"/>
				
					<rect x="332.6" y="-471.4" transform="matrix(1.919872e-03 -1 1 1.919872e-03 310.6783 354.0687)" class="st93" width="0.3" height="985.6"/>
				
					<rect x="332.6" y="-470.5" transform="matrix(1.919872e-03 -1 1 1.919872e-03 309.7465 355.0187)" class="st94" width="0.2" height="985.6"/>
				
					<rect x="332.6" y="-469.5" transform="matrix(1.919872e-03 -1 1 1.919872e-03 308.8046 355.9787)" class="st95" width="0.2" height="985.6"/>
				
					<rect x="332.7" y="-468.6" transform="matrix(1.919872e-03 -1 1 1.919872e-03 307.8778 356.9238)" class="st96" width="0.2" height="985.6"/>
				
					<rect x="332.7" y="-467.6" transform="matrix(1.919872e-03 -1 1 1.919872e-03 306.936 357.8838)" class="st97" width="0.1" height="985.6"/>
				
					<rect x="332.7" y="-466.7" transform="matrix(1.919872e-03 -1 1 1.919872e-03 305.9942 358.8438)" class="st98" width="0.1" height="985.6"/>
				
					<rect x="332.7" y="-465.7" transform="matrix(1.919872e-03 -1 1 1.919872e-03 305.0424 359.7938)" class="st99" width="0" height="985.6"/>
				<polygon class="st100" points="-160,27.1 -160,27.1 825.6,29 825.6,29 				"/>
			</g>
			<path class="st101" d="M512.8,136.4H-13.9v-23.8c313.1-62,526.7,0,526.7,0V136.4z"/>
			<path class="st102" d="M512.8,145.3H-13.9v-28.8c313.1-62,526.7,0,526.7,0V145.3z"/>
			<path class="st103" d="M512.8,154.3H-13.9v-33.8c313.1-62,526.7,0,526.7,0V154.3z"/>
			<path class="st104" d="M512.8,163.3H-13.9v-38.9c313.1-62,526.7,0,526.7,0V163.3z"/>
			<path class="st105" d="M512.8,172.2H-13.9v-43.9c313.1-62,526.7,0,526.7,0V172.2z"/>
			<path class="st63" d="M145.2,88.8l-9,15.4c-1.4,2.3-0.6,5.3,1.8,6.7c0.8,0.4,1.6,0.7,2.5,0.7h18.7c2.7,0,4.9-2.2,4.9-4.9
				c0-0.9-0.3-1.8-0.7-2.6l-9.7-15.4c-1.4-2.3-4.5-3-6.8-1.5C146.2,87.5,145.6,88.1,145.2,88.8z"/>
			<path class="st63" d="M145.8,80.8l-7.9,13.5c-1.2,2-0.5,4.7,1.5,5.9c0.7,0.4,1.4,0.6,2.2,0.6H158c2.4,0,4.3-1.9,4.3-4.3
				c0-0.8-0.2-1.6-0.7-2.3l-8.5-13.5c-1.2-2-3.9-2.6-5.9-1.4C146.6,79.6,146.1,80.2,145.8,80.8z"/>
			<path class="st63" d="M146.5,75L140,86.1c-1,1.7-0.4,3.8,1.3,4.8c0.5,0.3,1.1,0.5,1.7,0.5h13.5c1.9,0,3.5-1.6,3.5-3.5
				c0-0.7-0.2-1.3-0.5-1.9l-7-11.1c-1-1.6-3.2-2.1-4.9-1.1C147.2,74.1,146.8,74.5,146.5,75z"/>
			<line class="st106" x1="149.2" y1="105.9" x2="143.2" y2="99.1"/>
			<line class="st106" x1="149.8" y1="110.9" x2="156.4" y2="104.3"/>
			<line class="st107" x1="149.8" y1="129.9" x2="149.8" y2="81.7"/>
			<line class="st106" x1="149.2" y1="97.7" x2="145.2" y2="92.7"/>
			<line class="st106" x1="149.8" y1="101.7" x2="155.1" y2="96.3"/>
			<line class="st106" x1="149.2" y1="89" x2="146.4" y2="85.5"/>
			<line class="st106" x1="149.8" y1="93.9" x2="153.3" y2="90.3"/>
			<path class="st108" d="M124.3,87.8l-11.1,18.9c-1.7,2.8-0.8,6.5,2.1,8.2c0.9,0.6,2,0.9,3.1,0.8h23c3.3,0,6-2.6,6-5.9
				c0-1.2-0.3-2.3-0.9-3.3l-11.9-18.9c-1.7-2.8-5.4-3.7-8.2-2C125.5,86.2,124.8,86.9,124.3,87.8z"/>
			<path class="st108" d="M125,78.1l-9.7,16.5c-1.5,2.5-0.6,5.7,1.9,7.2c0.8,0.5,1.7,0.7,2.7,0.7H140c2.9,0,5.3-2.4,5.3-5.3
				c0-1-0.3-2-0.8-2.8L134,77.9c-1.5-2.5-4.8-3.2-7.3-1.7C126,76.7,125.4,77.3,125,78.1z"/>
			<path class="st108" d="M125.8,71l-7.9,13.6c-1.2,2.1-0.5,4.7,1.5,5.9c0.7,0.4,1.4,0.6,2.2,0.6h16.5c2.4,0,4.3-1.9,4.3-4.3
				c0-0.8-0.2-1.6-0.7-2.3l-8.6-13.6c-1.3-2-3.9-2.6-6-1.4C126.7,69.9,126.2,70.4,125.8,71z"/>
			<line class="st109" x1="129.2" y1="109.4" x2="121.9" y2="101.1"/>
			<line class="st109" x1="129.9" y1="115.1" x2="138.1" y2="106.9"/>
			<line class="st110" x1="129.9" y1="140" x2="129.9" y2="79.1"/>
			<line class="st109" x1="129.2" y1="98.8" x2="124.2" y2="92.7"/>
			<line class="st109" x1="129.9" y1="103.7" x2="136.5" y2="97.2"/>
			<line class="st109" x1="129.2" y1="88.1" x2="125.7" y2="83.8"/>
			<line class="st109" x1="129.9" y1="94.1" x2="134.2" y2="89.8"/>
			<path class="st111" d="M99.9,86.9l-13.1,22.4c-2,3.4-0.8,7.8,2.6,9.8c1.1,0.6,2.3,1,3.6,1h27.2c3.9,0,7.1-3.2,7.1-7.1
				c0-1.4-0.4-2.7-1.1-3.9l-14.1-22.4c-2.1-3.3-6.5-4.3-9.8-2.2C101.3,85,100.5,85.9,99.9,86.9z"/>
			<path class="st111" d="M100.8,75.3L89.3,94.9c-1.7,3-0.7,6.8,2.2,8.5c1,0.6,2,0.9,3.1,0.9h23.8c3.4,0,6.2-2.8,6.3-6.2
				c0-1.2-0.3-2.3-1-3.3l-12.3-19.6c-1.8-2.9-5.7-3.8-8.6-2C102,73.7,101.3,74.4,100.8,75.3z"/>
			<path class="st111" d="M101.8,66.9L92.4,83c-1.4,2.4-0.6,5.6,1.8,7c0.8,0.5,1.7,0.7,2.6,0.7h19.5c2.8,0,5.1-2.3,5.1-5.1
				c0-1-0.3-1.9-0.8-2.7l-10.1-16.1c-1.5-2.4-4.7-3.1-7.1-1.6C102.8,65.6,102.2,66.2,101.8,66.9z"/>
			<line class="st112" x1="105.8" y1="112.9" x2="97.1" y2="103"/>
			<line class="st112" x1="106.6" y1="119.2" x2="116.2" y2="109.5"/>
			<line class="st113" x1="106.6" y1="150" x2="106.6" y2="76.4"/>
			<line class="st112" x1="105.8" y1="99.9" x2="99.9" y2="92.7"/>
			<line class="st112" x1="106.7" y1="105.7" x2="114.4" y2="97.9"/>
			<line class="st112" x1="105.8" y1="87.3" x2="101.6" y2="82.2"/>
			<line class="st112" x1="106.6" y1="94.3" x2="111.7" y2="89.2"/>
			<path class="st114" d="M75.6,86l-15.2,25.9c-2.3,3.9-1,9,3,11.3c1.3,0.7,2.7,1.1,4.2,1.1H99c4.6,0,8.3-3.7,8.3-8.3
				c0-1.6-0.4-3.1-1.3-4.4L89.7,85.7c-2.4-3.9-7.5-5-11.4-2.6C77.2,83.9,76.2,84.8,75.6,86z"/>
			<path class="st114" d="M76.5,72.6L63.3,95.2c-2,3.5-0.8,7.9,2.6,9.9c1.1,0.6,2.4,1,3.6,1H97c4,0,7.2-3.2,7.3-7.2
				c0-1.4-0.4-2.8-1.1-3.9L88.9,72.4c-2.1-3.4-6.6-4.4-10-2.3C77.9,70.7,77.1,71.6,76.5,72.6z"/>
			<path class="st114" d="M77.7,62.8L66.8,81.5c-1.7,2.8-0.7,6.5,2.1,8.1c0.9,0.5,2,0.8,3,0.8h22.6c3.3,0,5.9-2.7,5.9-5.9
				c0-1.1-0.3-2.2-0.9-3.1L87.9,62.7c-1.7-2.8-5.4-3.6-8.2-1.9C78.9,61.3,78.2,62,77.7,62.8z"/>
			<line class="st115" x1="82.3" y1="116.4" x2="72.3" y2="105"/>
			<line class="st115" x1="83.3" y1="123.3" x2="94.4" y2="112.1"/>
			<line class="st116" x1="83.3" y1="160.1" x2="83.3" y2="73.7"/>
			<line class="st115" x1="82.3" y1="101" x2="75.5" y2="92.6"/>
			<line class="st115" x1="83.3" y1="107.7" x2="92.3" y2="98.8"/>
			<line class="st115" x1="82.3" y1="86.4" x2="77.5" y2="80.5"/>
			<line class="st115" x1="83.3" y1="94.6" x2="89.2" y2="88.7"/>
			<path class="st117" d="M51.2,85L34,114.5c-2.6,4.5-1.1,10.2,3.4,12.8c1.4,0.8,3.1,1.3,4.7,1.3h35.7c5.2,0,9.4-4.2,9.4-9.4
				c0-1.8-0.5-3.5-1.4-5L67.2,84.8c-2.8-4.4-8.5-5.7-12.9-3C53,82.6,52,83.7,51.2,85z"/>
			<path class="st117" d="M52.3,69.8l-15,25.7c-2.3,3.9-1,8.9,2.9,11.2c1.3,0.7,2.7,1.1,4.1,1.1h31.2c4.5,0,8.2-3.7,8.2-8.2
				c0-1.5-0.4-3.1-1.3-4.4L66.3,69.6c-2.4-3.8-7.5-5-11.3-2.6C53.9,67.7,53,68.7,52.3,69.8z"/>
			<path class="st117" d="M53.7,58.8L41.3,79.9c-1.9,3.2-0.8,7.3,2.4,9.2c1,0.6,2.2,0.9,3.4,0.9h25.6c3.7,0,6.7-3,6.7-6.7
				c0-1.3-0.4-2.5-1-3.6L65.2,58.6c-2-3.2-6.1-4.1-9.3-2.1C55,57.1,54.2,57.8,53.7,58.8z"/>
			<line class="st118" x1="58.9" y1="119.9" x2="47.5" y2="107"/>
			<line class="st118" x1="60" y1="127.4" x2="72.7" y2="114.7"/>
			<line class="st119" x1="60" y1="170.2" x2="60" y2="71.1"/>
			<line class="st118" x1="58.9" y1="102.1" x2="51.2" y2="92.6"/>
			<line class="st118" x1="60" y1="109.7" x2="70.2" y2="99.6"/>
			<line class="st118" x1="58.9" y1="85.5" x2="53.5" y2="78.8"/>
			<line class="st118" x1="60" y1="94.8" x2="66.7" y2="88.1"/>
			<path class="st63" d="M377.4,85.9l9,15.4c1.4,2.3,0.6,5.3-1.7,6.7c-0.8,0.4-1.6,0.7-2.5,0.7h-18.7c-2.7,0-4.9-2.2-4.9-4.9
				c0-0.9,0.3-1.8,0.8-2.6l9.7-15.4c1.5-2.3,4.5-3,6.8-1.5C376.4,84.7,377,85.3,377.4,85.9z"/>
			<path class="st63" d="M376.8,78l7.9,13.5c1.2,2,0.5,4.7-1.5,5.9c-0.7,0.4-1.4,0.6-2.2,0.6h-16.3c-2.4,0-4.3-1.9-4.3-4.3
				c0-0.8,0.2-1.7,0.7-2.3l8.5-13.5c1.3-2,3.9-2.6,5.9-1.3C376,76.9,376.4,77.4,376.8,78z"/>
			<path class="st63" d="M376.1,72.2l6.5,11.1c1,1.7,0.4,3.8-1.3,4.8c-0.5,0.3-1.1,0.5-1.7,0.5h-13.5c-1.9,0-3.5-1.6-3.5-3.5
				c0-0.7,0.2-1.3,0.5-1.9l7-11.1c1.1-1.6,3.2-2.1,4.9-1.1C375.4,71.3,375.8,71.7,376.1,72.2z"/>
			<line class="st106" x1="373.3" y1="103.1" x2="379.3" y2="96.3"/>
			<line class="st106" x1="372.8" y1="108.1" x2="366.1" y2="101.4"/>
			<line class="st107" x1="372.8" y1="127.1" x2="372.8" y2="78.9"/>
			<line class="st106" x1="373.3" y1="94.9" x2="377.4" y2="89.9"/>
			<line class="st106" x1="372.7" y1="98.8" x2="367.4" y2="93.5"/>
			<line class="st106" x1="373.3" y1="86.2" x2="376.2" y2="82.7"/>
			<line class="st106" x1="372.8" y1="91" x2="369.3" y2="87.5"/>
			<path class="st108" d="M398.3,85l11,18.9c1.7,2.9,0.7,6.5-2.1,8.2c-0.9,0.6-2,0.8-3.1,0.8h-23c-3.3,0-6-2.6-6-6
				c0-1.2,0.3-2.3,0.9-3.3l12-18.9c1.8-2.8,5.5-3.7,8.3-1.9C397.1,83.4,397.8,84.1,398.3,85z"/>
			<path class="st108" d="M397.6,75.2l9.7,16.5c1.5,2.5,0.6,5.7-1.9,7.2c-0.8,0.5-1.7,0.7-2.7,0.7h-20.1c-2.9,0-5.3-2.3-5.3-5.2
				c0-1,0.3-2,0.8-2.8l10.4-16.5c1.6-2.5,4.8-3.2,7.3-1.6C396.6,73.9,397.2,74.5,397.6,75.2z"/>
			<path class="st108" d="M396.7,68.1l7.9,13.6c1.2,2.1,0.5,4.7-1.5,5.9c-0.7,0.4-1.4,0.6-2.2,0.6h-16.5c-2.4,0-4.3-1.9-4.3-4.3
				c0-0.8,0.2-1.6,0.7-2.3l8.5-13.6c1.3-2,4-2.6,6-1.3C395.9,67,396.4,67.5,396.7,68.1z"/>
			<line class="st109" x1="393.3" y1="106.5" x2="400.7" y2="98.2"/>
			<line class="st109" x1="392.7" y1="112.2" x2="384.5" y2="104.1"/>
			<line class="st110" x1="392.7" y1="137.1" x2="392.7" y2="76.2"/>
			<line class="st109" x1="393.3" y1="96" x2="398.3" y2="89.8"/>
			<line class="st109" x1="392.6" y1="100.8" x2="386.1" y2="94.3"/>
			<line class="st109" x1="393.3" y1="85.3" x2="396.8" y2="81"/>
			<line class="st109" x1="392.7" y1="91.3" x2="388.4" y2="86.9"/>
			<path class="st111" d="M422.6,84.1l13.1,22.4c2,3.4,0.9,7.8-2.6,9.8c-1.1,0.6-2.3,1-3.6,1h-27.2c-3.9,0-7.2-3.2-7.2-7.1
				c0-1.4,0.4-2.7,1.1-3.9l14.1-22.4c2.1-3.3,6.5-4.3,9.9-2.2C421.3,82.2,422.1,83.1,422.6,84.1z"/>
			<path class="st111" d="M421.8,72.5l11.5,19.6c1.7,3,0.7,6.8-2.2,8.5c-1,0.6-2,0.9-3.1,0.9h-23.8c-3.5,0-6.3-2.8-6.2-6.3
				c0-1.2,0.3-2.3,1-3.3l12.3-19.6c1.8-2.9,5.7-3.8,8.6-2C420.6,70.9,421.3,71.6,421.8,72.5z"/>
			<path class="st111" d="M420.8,64.1l9.4,16.1c1.4,2.4,0.6,5.6-1.8,7c-0.8,0.5-1.7,0.7-2.6,0.7h-19.5c-2.8,0-5.1-2.3-5.1-5.1
				c0-1,0.3-1.9,0.8-2.8L412,63.9c1.5-2.4,4.7-3.1,7.1-1.6C419.8,62.8,420.4,63.4,420.8,64.1z"/>
			<line class="st112" x1="416.8" y1="110" x2="425.5" y2="100.2"/>
			<line class="st112" x1="416" y1="116.3" x2="406.3" y2="106.7"/>
			<line class="st113" x1="416" y1="147.2" x2="416" y2="73.6"/>
			<line class="st112" x1="416.8" y1="97.1" x2="422.7" y2="89.8"/>
			<line class="st112" x1="415.9" y1="102.8" x2="408.2" y2="95.1"/>
			<line class="st112" x1="416.8" y1="84.4" x2="420.9" y2="79.3"/>
			<line class="st112" x1="416" y1="91.5" x2="410.9" y2="86.4"/>
			<path class="st114" d="M447,83.1l15.2,25.9c2.3,3.9,1,9-3,11.3c-1.3,0.7-2.7,1.1-4.2,1.1h-31.4c-4.6,0-8.3-3.7-8.3-8.2
				c0-1.6,0.4-3.1,1.3-4.4l16.3-25.9c2.4-3.9,7.5-5,11.4-2.6C445.4,81,446.3,82,447,83.1z"/>
			<path class="st114" d="M446,69.7l13.3,22.7c2,3.5,0.8,7.9-2.6,9.9c-1.1,0.6-2.4,1-3.6,1h-27.5c-4,0-7.2-3.2-7.2-7.2
				c0-1.4,0.4-2.7,1.1-3.9l14.3-22.7c2.1-3.4,6.6-4.4,10-2.2C444.6,67.9,445.4,68.7,446,69.7z"/>
			<path class="st114" d="M444.8,60l10.9,18.6c1.7,2.8,0.7,6.5-2.1,8.1c-0.9,0.5-1.9,0.8-3,0.8H428c-3.3,0-5.9-2.7-5.9-5.9
				c0-1.1,0.3-2.2,0.9-3.1l11.7-18.6c1.8-2.8,5.4-3.6,8.2-1.8C443.7,58.5,444.4,59.2,444.8,60z"/>
			<line class="st115" x1="440.2" y1="113.5" x2="450.3" y2="102.2"/>
			<line class="st115" x1="439.3" y1="120.5" x2="428.1" y2="109.3"/>
			<line class="st116" x1="439.3" y1="157.3" x2="439.3" y2="70.9"/>
			<line class="st115" x1="440.2" y1="98.2" x2="447" y2="89.8"/>
			<line class="st115" x1="439.2" y1="104.8" x2="430.3" y2="95.9"/>
			<line class="st115" x1="440.2" y1="83.6" x2="445" y2="77.7"/>
			<line class="st115" x1="439.3" y1="91.7" x2="433.4" y2="85.8"/>
			<path class="st117" d="M471.4,82.2l17.2,29.5c2.6,4.5,1.1,10.2-3.4,12.8c-1.4,0.8-3.1,1.3-4.7,1.3h-35.7c-5.2,0-9.4-4.2-9.4-9.4
				c0-1.8,0.5-3.5,1.4-5l18.5-29.4c2.8-4.4,8.5-5.7,12.9-2.9C469.5,79.8,470.6,80.9,471.4,82.2z"/>
			<path class="st117" d="M470.3,67l15,25.7c2.3,3.9,1,8.9-2.9,11.2c-1.3,0.7-2.7,1.1-4.1,1.1H447c-4.5,0-8.2-3.7-8.2-8.2
				c0-1.5,0.4-3.1,1.3-4.4l16.2-25.7c2.4-3.8,7.5-5,11.3-2.6C468.7,64.9,469.6,65.9,470.3,67z"/>
			<path class="st117" d="M468.9,56l12.4,21.1c1.9,3.2,0.8,7.3-2.4,9.2c-1,0.6-2.2,0.9-3.4,0.9h-25.6c-3.7,0-6.7-3-6.7-6.7
				c0-1.3,0.4-2.5,1-3.6l13.3-21.1c2-3.1,6.1-4.1,9.3-2.1C467.6,54.3,468.4,55.1,468.9,56z"/>
			<line class="st118" x1="463.7" y1="117" x2="475.1" y2="104.1"/>
			<line class="st118" x1="462.6" y1="124.6" x2="449.9" y2="111.9"/>
			<line class="st119" x1="462.6" y1="167.3" x2="462.6" y2="68.2"/>
			<line class="st118" x1="463.7" y1="99.3" x2="471.4" y2="89.8"/>
			<line class="st118" x1="462.5" y1="106.8" x2="452.4" y2="96.7"/>
			<line class="st118" x1="463.7" y1="82.7" x2="469.1" y2="76"/>
			<line class="st118" x1="462.6" y1="92" x2="455.9" y2="85.2"/>
			<path class="st117" d="M512.8,216.7H-13.9v-88.3c313.1-62,526.7,0,526.7,0V216.7z"/>
			<path class="st63" d="M18.8,89.8l-17.5,30c-2.7,4.6-1.1,10.4,3.4,13.1c1.5,0.9,3.1,1.3,4.8,1.3H46c5.3,0,9.6-4.3,9.6-9.6
				c0-1.8-0.5-3.6-1.5-5.1l-18.9-30c-2.8-4.5-8.7-5.8-13.2-3C20.7,87.4,19.6,88.5,18.8,89.8z"/>
			<path class="st63" d="M19.9,74.3L4.6,100.6c-2.3,4-1,9.1,3,11.4c1.3,0.7,2.7,1.1,4.2,1.1h31.9c4.6,0,8.4-3.8,8.4-8.4
				c0-1.6-0.4-3.1-1.3-4.4L34.2,74.1c-2.5-3.9-7.6-5.1-11.5-2.6C21.6,72.2,20.6,73.2,19.9,74.3z"/>
			<path class="st63" d="M21.3,63.1L8.7,84.6c-1.9,3.3-0.9,7.5,2.4,9.4c1.1,0.6,2.3,1,3.5,1h26.2c3.8,0,6.9-3.1,6.9-6.9
				c0-1.3-0.4-2.6-1-3.6L33.1,62.9c-2-3.2-6.2-4.2-9.5-2.2C22.7,61.3,21.9,62.1,21.3,63.1z"/>
			<line class="st120" x1="26.7" y1="123.2" x2="15" y2="110.1"/>
			<line class="st120" x1="27.8" y1="133.1" x2="40.7" y2="120.1"/>
			<line class="st121" x1="27.8" y1="170" x2="27.8" y2="76.2"/>
			<line class="st120" x1="26.7" y1="107.3" x2="18.8" y2="97.6"/>
			<line class="st120" x1="27.8" y1="115" x2="38.2" y2="104.7"/>
			<line class="st120" x1="26.7" y1="90.4" x2="21.1" y2="83.5"/>
			<line class="st120" x1="27.8" y1="99.8" x2="34.6" y2="93"/>
			<path class="st108" d="M-21.3,79.5l-21.5,36.9c-3.3,5.6-1.4,12.8,4.2,16.1c1.8,1,3.8,1.6,5.9,1.6H12c6.5,0,11.8-5.2,11.8-11.7
				c0-2.2-0.6-4.4-1.8-6.3L-1.2,79.1C-4.7,73.6-12,72-17.5,75.4C-19.1,76.4-20.4,77.8-21.3,79.5z"/>
			<path class="st108" d="M-20,60.4l-18.8,32.2c-2.9,4.9-1.2,11.2,3.7,14c1.6,0.9,3.4,1.4,5.2,1.4H9.2c5.7,0,10.3-4.6,10.3-10.3
				c0-1.9-0.5-3.8-1.6-5.5L-2.4,60.2c-3-4.8-9.3-6.3-14.1-3.3C-18,57.8-19.2,59-20,60.4z"/>
			<path class="st108" d="M-18.2,46.6l-15.5,26.5c-2.4,4-1,9.2,3,11.5c1.3,0.8,2.8,1.2,4.3,1.2H5.7c4.7,0,8.4-3.8,8.4-8.4
				c0-1.6-0.4-3.2-1.3-4.5L-3.8,46.4c-2.5-3.9-7.7-5.1-11.6-2.7C-16.6,44.4-17.6,45.4-18.2,46.6z"/>
			<line class="st122" x1="-10.4" y1="132.6" x2="5.5" y2="116.7"/>
			<line class="st122" x1="-10.3" y1="110.4" x2="2.4" y2="97.7"/>
			<path class="st117" d="M302.5,86.5c-0.6,0-1-0.4-1.1-1c0-0.6,0.5-1,1.1-0.9c0,0,0,0,0.1,0l3,0.1c0.5,0,1-0.3,1-0.8
				c0-0.1,0-0.1,0-0.2l-0.4-3.6l8.9,0.4c0.7,0.1,1.2,0.6,1.3,1.3l0.6,4.7c0.1,0.5-0.2,1.1-0.8,1.2c-0.1,0-0.1,0-0.2,0
				c-0.5,0-1-0.5-1-1l-0.4-3c-0.1-0.6-0.5-1.1-1.1-1.2c-0.5,0-0.8,0.5-0.8,1.1l1.9,14.3c0.1,0.6,0.6,1.1,1.3,1.2h1.4
				c0.6,0,1.2,0.5,1.2,1.2l0.2,1.8c0,0.6-0.4,1-0.9,1.1c0,0,0,0-0.1,0c-0.5-0.1-0.9-0.5-1-1c-0.1-0.6-0.6-1-1.2-1.1h-1
				c-0.9-0.1-1.6-0.7-1.8-1.6l-0.8-5.7c-0.1-0.6-0.6-1.1-1.3-1.2l-3.2-0.1c-0.5,0-1,0.3-1,0.8c0,0.1,0,0.1,0,0.2l0.9,7.9
				c0.1,0.6-0.3,1.2-0.9,1.3c-0.1,0-0.2,0-0.2,0l-2-0.1c-0.6,0-1.2-0.3-1.2-1.1c0-0.3,0.3-0.9,1.1-0.8l0,0c0.5,0.1,1-0.3,1-0.8
				c0-0.1,0-0.2,0-0.2l-0.9-7.9c-0.1-0.7,0.3-1.4,1-1.5c0.1,0,0.2,0,0.3,0h0.8c0.5,0.1,1-0.3,1-0.8c0-0.1,0-0.2,0-0.2l-0.3-2.4
				L302.5,86.5z"/>
			<path class="st117" d="M308.9,74.3c-0.1-0.3-0.5-0.4-0.8-0.3c-0.2,0.1-0.3,0.2-0.3,0.4l-1.6,3.2c-0.2,0.3-0.1,0.7,0.2,0.9
				c0.1,0.1,0.3,0.1,0.4,0.1l4.1,0.2c0.6,0,0.8-0.4,0.5-0.9L308.9,74.3z"/>
			<path class="st117" d="M306.2,73.8c0.1,0,0.3,0,0.4-0.1c0.3-0.2,0.3-0.6,0.1-0.8c0,0,0,0,0,0l-1.4-1.9c-0.2-0.3-0.6-0.3-0.8-0.1
				c-0.3,0.2-0.3,0.6-0.1,0.8l1.4,1.9C305.8,73.7,306,73.8,306.2,73.8z"/>
			<path class="st117" d="M305,75.8c0.2,0,0.4-0.1,0.5-0.3c0.2-0.3,0-0.6-0.2-0.8c0,0,0,0,0,0l-2.4-1.3c-0.3-0.2-0.6,0-0.8,0.2
				c0,0,0,0,0,0c-0.2,0.3,0,0.6,0.2,0.8c0,0,0,0,0,0l2.4,1.3C304.8,75.8,304.9,75.8,305,75.8z"/>
			<path class="st117" d="M301.7,77.9l2.5,0.1c0.3,0,0.6-0.2,0.6-0.6c0-0.3-0.2-0.6-0.6-0.6c0,0,0,0,0,0l-2.5-0.1
				c-0.3,0-0.6,0.2-0.6,0.6C301.1,77.6,301.3,77.9,301.7,77.9z"/>
			<path class="st117" d="M340.3,75.1c0.1,0,0.3,0,0.4-0.1c0.3-0.2,0.3-0.6,0.1-0.8l-1.4-1.9c-0.2-0.3-0.6-0.3-0.8-0.2
				c-0.3,0.2-0.3,0.6-0.2,0.8l1.4,1.9C339.9,75.1,340.1,75.1,340.3,75.1z"/>
			<path class="st117" d="M339.1,77.2c0.3,0,0.6-0.3,0.6-0.6c0-0.2-0.1-0.4-0.3-0.5l-2.4-1.3c-0.3-0.2-0.6,0-0.8,0.2c0,0,0,0,0,0
				c-0.2,0.3,0,0.6,0.2,0.8c0,0,0,0,0,0l2.4,1.2C338.9,77.1,339,77.2,339.1,77.2z"/>
			<path class="st117" d="M335.8,79.2l2.5,0.1c0.3,0.1,0.6-0.2,0.7-0.5c0.1-0.3-0.2-0.6-0.5-0.7c0,0-0.1,0-0.1,0l-2.5-0.1
				c-0.3,0-0.6,0.3-0.5,0.6C335.3,79,335.5,79.2,335.8,79.2z"/>
			<path class="st117" d="M343.5,75.7c-0.1-0.3-0.5-0.4-0.8-0.3c-0.2,0.1-0.3,0.2-0.3,0.4l-1.6,3.2c-0.2,0.3-0.1,0.7,0.2,0.9
				c0.1,0.1,0.3,0.1,0.4,0.1l4.1,0.2c0.6,0,0.8-0.4,0.5-0.9L343.5,75.7z"/>
			<path class="st117" d="M342,93.3c0,0-0.1-0.5-0.1-1.1l-0.1-0.8c-0.1-0.6-0.6-1.1-1.2-1.2l-1.8-0.1c-0.6,0-1.1-0.5-1.2-1.1
				c-0.1-0.5,0.3-0.9,0.8-1c0.1,0,0.1,0,0.2,0l1.8,0.1c0.5,0,1-0.3,1-0.8c0-0.1,0-0.1,0-0.2l-0.6-5.7l5.6,0.2l2.2,0.1
				c0.6,0.1,1.1,0.5,1.2,1.2l0.5,4.6c0.1,0.5-0.3,1-0.7,1c-0.1,0-0.1,0-0.2,0c-0.5,0-0.9,0.4-0.9,0.9c0,0.1,0,0.1,0,0.2l0.1,0.8
				l0.2,2.2l0.2,2.2l0.1,1c0.1,0.6,0.6,1.1,1.2,1.2l2.1,0.1c0.6,0,1.1,0.5,1.2,1.1l0.2,2.1c0.1,0.5-0.3,0.9-0.7,1
				c-0.1,0-0.1,0-0.2,0c-0.6,0-1.1-0.5-1.2-1.1c-0.1-0.6-0.6-1-1.2-1.1l-2-0.1c-0.6,0-1.1-0.5-1.2-1.1l-0.2-2.2l-0.1-1
				c-0.1-0.6-0.6-1.1-1.2-1.2h-0.3c-0.5,0-1,0.3-1,0.8c0,0.1,0,0.1,0,0.2l0.7,6.3l0.2,2.2c0,0.5-0.3,1-0.8,1c-0.1,0-0.1,0-0.2,0
				l-1.8-0.1c-0.6,0-1.1-0.5-1.2-1.1c-0.1-0.5,0.2-0.9,0.7-1c0,0,0.1,0,0.1,0c0.5,0,0.9-0.4,0.8-0.9c0-0.1,0-0.1,0-0.2l-0.7-6.3
				C342.1,93.8,342,93.3,342,93.3z"/>
			<path class="st117" d="M323.8,74.5c0.1,0,0.3,0,0.4-0.1c0.3-0.2,0.3-0.6,0.1-0.8l-1.4-1.9c-0.2-0.3-0.6-0.3-0.8-0.1
				c-0.3,0.2-0.3,0.5-0.1,0.8c0,0,0,0,0,0l1.4,1.9C323.4,74.4,323.6,74.5,323.8,74.5z"/>
			<path class="st117" d="M322.6,76.5c0.2,0,0.4-0.1,0.5-0.3c0.1-0.3,0-0.6-0.2-0.8l-1.6-0.9c-0.3-0.1-0.6,0.1-0.7,0.4
				c0,0.2,0,0.4,0.2,0.6l1.6,0.9C322.4,76.4,322.5,76.5,322.6,76.5z"/>
			<path class="st117" d="M319.2,78.6l2.5,0.1c0.3,0,0.6-0.2,0.6-0.5c0,0,0,0,0,0c0-0.3-0.2-0.6-0.6-0.6c0,0,0,0,0,0l-2.5-0.1
				c-0.3,0-0.6,0.2-0.6,0.6C318.7,78.3,318.9,78.6,319.2,78.6z"/>
			<path class="st117" d="M327,75.1c-0.1-0.3-0.5-0.4-0.8-0.3c-0.2,0.1-0.3,0.2-0.3,0.4l-1.6,3.2c-0.2,0.3-0.1,0.7,0.2,0.9
				c0.1,0.1,0.3,0.1,0.4,0.1l4.1,0.2c0.6,0,0.8-0.4,0.5-0.9L327,75.1z"/>
			<path class="st117" d="M318.9,81.5l-0.2-2.2l-0.3-2.5c-0.1-0.5,0.3-1,0.7-1c0.1,0,0.1,0,0.2,0c0.6,0.1,1.1,0.5,1.2,1.2l0.3,2.5
				c0.1,0.6,0.6,1.1,1.2,1.1l1.5,0.1l2.2,0.1l1.9,0.1h1.1h1.1l4.2,0.2c0.6,0,1.1,0.5,1.2,1.1l0.2,2.2l0.3,2.5c0.1,0.5-0.2,1-0.7,1.1
				c-0.1,0-0.1,0-0.2,0c-0.6-0.1-1.1-0.5-1.2-1.2l-0.3-2.5c-0.1-0.6-0.6-1.1-1.2-1.2c-0.5,0-0.9,0.4-0.9,0.9c0,0.1,0,0.1,0,0.2
				l0.8,7.6c0.1,0.5-0.3,1-0.8,1.1c-0.1,0-0.1,0-0.2,0H331c-0.5,0-1,0.3-1,0.8c0,0.1,0,0.1,0,0.2l0.5,4.2c0.1,0.6,0.6,1.1,1.2,1.2
				l2.1,0.1c0.6,0.1,1.1,0.5,1.2,1.1l0.2,2.1c0.1,0.5-0.3,0.9-0.7,1c-0.1,0-0.1,0-0.2,0c-0.6,0-1.1-0.5-1.2-1.1
				c-0.1-0.6-0.6-1-1.2-1.1l-2-0.1c-0.6,0-1.1-0.5-1.2-1.1l-0.2-2.2l-0.4-4.2c0-0.4-0.1-0.7-0.2-1.1h-1.1l-2.1-0.1
				c-0.5,0-0.9,0.4-0.9,0.9c0,0.1,0,0.1,0,0.2l0.1,1l0.1,1.1l0.1,1.1c0.1,0.5-0.3,0.9-0.8,1c-0.1,0-0.1,0-0.2,0l-1.8-0.1
				c-0.6,0-1.1-0.5-1.2-1.1c-0.1-0.5,0.2-0.9,0.7-1c0,0,0.1,0,0.1,0c0.5,0,0.9-0.4,0.9-0.9c0-0.1,0-0.1,0-0.2l-0.1-1l-0.2-2.2
				c-0.1-0.5,0.3-0.9,0.7-1c0.1,0,0.1,0,0.2,0l2.1,0.1c0.5,0,0.9-0.4,0.9-0.9c0-0.1,0-0.1,0-0.2l-0.6-5.5c-0.1-0.6-0.6-1.1-1.2-1.2
				l-2.9-0.1h-1.3H319l-0.1-1C318.9,80.9,319,82.1,318.9,81.5z"/>
			<line class="st123" x1="318.9" y1="72.9" x2="318.1" y2="65.6"/>
			<path class="st117" d="M318.9,73.8h0.1c0.5-0.1,0.8-0.5,0.7-0.9c0,0,0,0,0,0l-0.8-7.3c-0.1-0.5-0.5-0.8-0.9-0.8
				c-0.5,0.1-0.8,0.5-0.7,0.9c0,0,0,0,0,0l0.8,7.3C318.1,73.4,318.4,73.8,318.9,73.8z"/>
			<polygon class="st117" points="317.5,68.3 333.4,69 333,65.1 317.1,64.5 			"/>
			<path class="st124" d="M243.4,20.6c0.1-0.5-0.2-1.1-0.7-1.2c-0.1,0-0.1,0-0.2,0c-0.5,0-0.9-0.4-1-0.9c0-0.1,0-0.1,0-0.2
				c0-0.6-0.4-1-0.9-1.1c-0.1,0-0.1,0-0.2,0c-0.7,0-1.2,0.4-1.4,1.1c-0.2,0.7-0.8,1.1-1.5,1.1c-0.7,0-1.4,0.5-1.5,1.2
				c-0.1,0.7,0.7,1.2,1.7,1.2h3.8C242.4,21.8,243.3,21.2,243.4,20.6z"/>
			<path class="st124" d="M241.2,30.3c0.1-0.7-0.6-1.2-1.7-1.2h-2.6c-1,0-1.9,0.6-2,1.2s0.6,1.2,1.7,1.2h2.6
				C240.2,31.6,241.1,31,241.2,30.3z"/>
			<path class="st124" d="M261.1,26.8c1,0,1.4,0.4,1.3,0.8s-0.5,0.8-1.5,0.8h-2.5c-1,0-1.9,0.5-2,1.2s0.7,1.2,1.7,1.2h2.5
				c1,0,1.4,0.4,1.3,0.8c-0.1,0.4-0.5,0.8-1.5,0.8h-5.1c-1,0-1.9,0.6-2,1.2s0.6,1.2,1.6,1.2c0.8,0,1.5,0.7,1.5,1.5
				c0,0.1,0,0.2,0,0.3l-0.8,6.1h10.6c1,0,1.9-0.8,2.1-1.8l0.6-4.2c0.2-1,1-1.8,2.1-1.9h1.4c0.8,0.1,1.6-0.4,1.7-1.2
				c0.1-0.7-0.4-1.2-1.4-1.2h-6.7c-1,0-1.5-0.4-1.4-0.8s0.6-0.8,1.7-0.8h1.6c1,0,1.9-0.6,2-1.2s-0.6-1.2-1.7-1.2h-1.7
				c-1,0-1.4-0.4-1.3-0.8s0.5-0.8,1.5-0.8h1.7c1,0,1.9-0.8,2.1-1.8l0.1-0.4c0.2-1,1-1.8,2.1-1.8h2.1c1,0,1.9-0.5,2-1.2
				s-0.6-1.2-1.7-1.2h-2.1c-0.9,0-1.6-0.7-1.6-1.5c0-0.1,0-0.2,0-0.3l0.3-2.3h-3.1c-0.9,0-1.6-0.7-1.6-1.5c0-0.1,0-0.2,0-0.3
				l0.1-0.7c0.1-1-0.3-1.8-1-1.8s-1.4,0.8-1.5,1.8l-0.1,0.7c-0.2,1-1,1.8-2.1,1.8h-2.1c-1,0-1.9,0.6-2,1.2s0.6,1.2,1.7,1.2h2.5
				c1,0,1.4,0.4,1.3,0.8s-0.5,0.8-1.5,0.8h-5.2c-1,0-1.9,0.6-2,1.2s0.6,1.2,1.7,1.2h5.2c1,0,1.4,0.4,1.3,0.8s-0.5,0.8-1.5,0.8h-10.8
				c-0.8,0-1.5-0.7-1.5-1.6c0-0.1,0-0.2,0-0.3l0.8-5.8c0.1-1-0.3-1.8-1-1.8s-1.4,0.8-1.5,1.8l-0.8,5.8c-0.2,1-1,1.8-2.1,1.8h-7
				c-1,0-1.9,0.6-2,1.2s0.7,1.2,1.7,1.2h7c0.9,0,1.6,0.7,1.6,1.5c0,0.1,0,0.2,0,0.3l-2.4,17.7c-0.1,1,0.3,1.8,1,1.8s1.4-0.8,1.5-1.8
				l2.4-17.7c0.1-1,0.9-1.8,1.9-1.8L261.1,26.8L261.1,26.8z M258.9,36.3c0.1-0.7,0.7-1.2,1.4-1.3c0.6,0,1.1,0.4,1.1,1
				c0,0.1,0,0.1,0,0.2c-0.1,0.7-0.7,1.2-1.4,1.3c-0.6,0-1.1-0.4-1.1-1C258.9,36.4,258.9,36.3,258.9,36.3z M258.4,39.8
				c0.1-0.7,0.7-1.3,1.4-1.3c0.6,0,1.1,0.5,1.1,1.1c0,0.1,0,0.1,0,0.2c-0.1,0.7-0.7,1.3-1.4,1.3c-0.6,0-1.1-0.5-1.1-1.1
				C258.4,40,258.4,39.9,258.4,39.8z M265.5,39.8c-0.1,0.7-0.7,1.3-1.4,1.3c-0.6,0-1.1-0.5-1.1-1.1c0-0.1,0-0.1,0-0.2
				c0.1-0.7,0.7-1.3,1.4-1.3c0.6,0,1.1,0.5,1.1,1.1C265.5,39.7,265.5,39.8,265.5,39.8z M265,35c0.6,0,1.1,0.4,1.1,1
				c0,0.1,0,0.1,0,0.2c-0.1,0.7-0.7,1.2-1.4,1.2c-0.6,0-1.1-0.4-1.1-1c0-0.1,0-0.1,0-0.2C263.7,35.5,264.3,35,265,35z M266.1,19.2
				c0.1-0.7,0.7-1.2,1.4-1.2c0.5-0.1,1,0.3,1.1,0.9c0,0.1,0,0.2,0,0.3c-0.1,0.7-0.7,1.2-1.4,1.2c-0.5,0.1-1-0.4-1.1-0.9
				C266,19.4,266,19.3,266.1,19.2L266.1,19.2z M265.5,23.2c0.1-0.7,0.7-1.1,1.4-1.1c0.6,0,1,0.4,1.1,0.9c0,0.1,0,0.1,0,0.2
				c-0.1,0.7-0.7,1.1-1.4,1.1c-0.5,0.1-1-0.3-1.1-0.9C265.5,23.3,265.5,23.3,265.5,23.2L265.5,23.2z"/>
			<path class="st124" d="M238.2,44.1c0.7,0,1.4-0.8,1.5-1.8l0.9-6.8c0.1-0.9-0.4-1.7-1.3-1.8c-0.1,0-0.2,0-0.3,0h-3.5
				c-1,0-1.9,0.8-2.1,1.8l-0.7,5.1l-0.4,2.7c-0.1,0.5,0.4,0.8,1.1,0.8s1.3-0.4,1.4-0.8c0.2-0.5,0.7-0.9,1.2-0.8c0.6,0,1.1,0.4,1,0.8
				S237.6,44.1,238.2,44.1z M236.5,40c-0.6,0-1.1-0.3-0.9-1.3l0.2-1.2c0.1-1,0.6-1.3,1.2-1.3s1.1,0.3,0.9,1.3l-0.2,1.2
				C237.6,39.7,237.1,40,236.5,40z"/>
			<path class="st124" d="M272.1,46.3c0.1-0.7-0.6-1.2-1.7-1.2H253c-1,0-1.9,0.6-2,1.2s0.7,1.2,1.7,1.2h17.4
				C271.1,47.6,272,47,272.1,46.3z"/>
			<path class="st124" d="M188.8,42.8c-0.1,0.7-0.7,1.2-1.4,1.2h-1c-0.7,0-1.3,0.5-1.4,1.2l0,0c-0.1,0.6,0.3,1.2,0.9,1.2
				c0.1,0,0.1,0,0.2,0h18.4c0.7,0,1.4-0.5,1.5-1.2l0,0c0.1-0.6-0.3-1.2-0.9-1.3c-0.1,0-0.2,0-0.3,0h-12.5c-0.6,0-1-0.4-1.1-0.9
				c0-0.1,0-0.2,0-0.3l1.5-14.4c0.1-0.7-0.4-1.2-1.1-1.3c0,0-0.1,0-0.1,0c-0.7,0-1.2,0.5-1.3,1.2C190.3,28.9,188.8,42.8,188.8,42.8z
				"/>
			<path class="st124" d="M202.5,22.6c-0.7,0-1.3,0.5-1.4,1.2l-1.1,8.7c-0.1,0.6,0.3,1.2,0.9,1.2c0.1,0,0.1,0,0.2,0l0,0
				c0.7,0,1.3-0.5,1.4-1.2l1.1-8.7c0.1-0.6-0.3-1.1-0.9-1.2C202.6,22.6,202.5,22.6,202.5,22.6L202.5,22.6z"/>
			<path class="st124" d="M228.6,28.3c-0.5,0-0.9,0.5-1,1.2v0.1c-0.1,0.6,0.3,1.1,0.9,1.2c0,0,0.1,0,0.1,0h3c0,0,0.1-0.5,0.1-1.2
				l0.4-3.7c0.1-0.6-0.3-1.1-0.9-1.2c-0.1,0-0.1,0-0.2,0h0.1c-0.7,0-1.4,0.5-1.5,1.2l-0.1,1.2C229.6,27.8,229.1,28.3,228.6,28.3z"/>
			<path class="st124" d="M213.4,29.7c-0.1,0.5,0.2,1.1,0.8,1.2c0.1,0,0.1,0,0.2,0h0.1c0.7,0,1.3-0.5,1.4-1.2l0.5-3.9
				c0.1-0.6,0.1-1.2,0.1-1.2h-1.1c-0.6,0-1-0.4-1-1c0-0.1,0-0.1,0-0.2l0.1-0.6c0.1-0.6,0.6-1.1,1.3-1.2c0.7,0,1.2-0.5,1.3-1.2v-0.1
				c0.1-0.5-0.3-1.1-0.8-1.2c-0.1,0-0.1,0-0.2,0c-0.6,0-1-0.4-1-1c0-0.1,0-0.1,0-0.2l0.1-0.5c0.1-0.6-0.3-1.2-0.9-1.2
				c-0.1,0-0.1,0-0.2,0l0,0c-0.7,0-1.3,0.5-1.4,1.2l-1,8.5c-0.1,0.5,0.3,1.1,0.8,1.2c0.1,0,0.1,0,0.2,0c0.6,0,1,0.4,1,1
				c0,0.1,0,0.1,0,0.2L213.4,29.7z"/>
			<path class="st124" d="M231.4,16.6h-4c-0.7,0-1.3,0.5-1.4,1.2c-0.1,0.7-0.7,1.2-1.4,1.2h-1.6c-0.6,0-1-0.4-1-1c0-0.1,0-0.1,0-0.2
				l0.3-2.7c0.1-0.6-0.3-1.1-0.9-1.2c-0.1,0-0.1,0-0.2,0c-0.7,0-1.3,0.5-1.4,1.2l-1.8,14.8c-0.1,0.5,0.3,1.1,0.8,1.2
				c0.1,0,0.1,0,0.2,0h2.2c0.7,0,1.1,0.4,1.1,0.8c0,0.4-0.6,0.8-1.3,0.8h-6.6c-0.7,0-1.3,0.5-1.4,1.2c-0.1,0.6,0.3,1.2,0.9,1.2
				c0.1,0,0.1,0,0.2,0h1.8c0.6,0,1.1,0.4,1.1,0.8s-0.6,0.8-1.3,0.8h-7.8c-0.6,0-1-0.4-1-1c0-0.1,0-0.1,0-0.2l1.6-14.1
				c0.1-0.6,0.2-1.3,0.2-1.5s0.1-0.7,0.1-1.3s-0.4-1-1.1-1h-4.7c-0.7,0-1.5,0.2-1.6,1.1c-0.2,0.6,0.2,1.2,0.8,1.4c0.1,0,0.2,0,0.3,0
				h2.4c0.6,0,1,0.4,1,1c0,0.1,0,0.1,0,0.2l-1.6,14.2c-0.1,0.7-0.7,1.2-1.3,1.2h-5.1c-0.6,0-1-0.4-1-1c0-0.1,0-0.1,0-0.2
				c0,0,0.9-7.9,1-8.5c0.1-0.7-0.4-1.2-1.1-1.3c0,0-0.1,0-0.1,0c-0.7,0-1.4,0.6-1.4,1.3c-0.1,0.6-1.5,12.6-1.5,12.6
				c-0.1,0.6,0.3,1.2,1,1.3c0.1,0,0.1,0,0.2,0c0.6,0,1.2-0.4,1.3-0.9c0.2-0.6,0.7-0.9,1.3-0.9h5.1c0.6,0,1.1,0.4,1.1,0.9
				s0.4,0.9,1.1,0.9h0.1c0.6,0.1,1.1-0.3,1.3-0.9c0.2-0.6,0.7-0.9,1.3-0.9h5.1c0.7,0,1.1,1.2,1,1.8l-0.6,5.3
				c-0.1,0.5,0.2,1.1,0.8,1.2c0.1,0,0.1,0,0.2,0h10.1c0.7,0,1.2-0.5,1.3-1.2l0.7-6.2c0.1-0.6,0.7-1.1,1.3-1h0.8
				c0.7,0,1.3-0.5,1.4-1.2v-0.1c0.1-0.7,0.1-1.2,0.1-1.2h-4.6c-0.6,0-1.1-0.4-1.1-0.8s0.6-0.8,1.3-0.8h3.4c0.7,0,1.3-0.5,1.4-1.2
				c0.1-0.6-0.3-1.1-0.9-1.2c-0.1,0-0.1,0-0.2,0H226c-0.6,0-1-0.4-1.1-0.9c0-0.1,0-0.2,0-0.3l0.7-6.2c0.1-0.7,0.7-1.2,1.3-1.2h0.9
				c0.7,0,1.3-0.5,1.4-1.2c0.1-0.6-0.3-1.2-0.9-1.2c-0.1,0-0.1,0-0.2,0h-0.9c-0.6,0-1-0.4-1.1-0.9c0-0.1,0-0.2,0-0.2v-0.1
				c0.1-0.7,0.7-1.2,1.3-1.2h0.9c0.6,0,1.1,0.4,1.1,1c0,0.1,0,0.1,0,0.2c-0.1,0.6,0.3,1.1,0.9,1.2c0.1,0,0.1,0,0.2,0l0,0
				c0.7,0,1.3-0.5,1.4-1.2l0.3-2.5c0.1-0.6,0.1-1.2,0.1-1.2L231.4,16.6z M221.1,22.7c0.1-0.8,0.7-1.3,1.5-1.3c0.6,0,1.1,0.4,1.2,1
				c0,0.1,0,0.2,0,0.3c-0.1,0.8-0.7,1.4-1.5,1.4c-0.7,0-1.2-0.5-1.2-1.2C221.1,22.9,221.1,22.8,221.1,22.7z M221.7,28.9
				c-0.6,0-1.2-0.5-1.2-1.1c0-0.1,0-0.1,0-0.2c0.1-0.7,0.7-1.3,1.5-1.3c0.6,0,1.2,0.5,1.2,1.1c0,0.1,0,0.1,0,0.2
				C223.1,28.3,222.5,28.9,221.7,28.9z M219.6,35.9c0.1-0.6,0.7-1.1,1.4-1c0.8,0,1.3,0.5,1.2,1c-0.2,0.6-0.8,1.1-1.5,1
				C220,36.9,219.5,36.4,219.6,35.9L219.6,35.9z M222.3,45.2h-5.1c-0.6,0-1.2-0.4-1.1-1c0.1-0.8,0.8-1,1.4-1h5.1c0.5,0,1,0.4,1,0.9
				c0,0,0,0.1,0,0.1C223.5,44.8,222.9,45.3,222.3,45.2L222.3,45.2z M222.9,41.2h-5.4c-0.6,0-1.1-0.4-1-1c0-0.6,0.6-1.1,1.2-1
				c0,0,0,0,0.1,0h5.3c0.5,0,0.9,0.5,0.9,1C223.9,40.8,223.5,41.1,222.9,41.2L222.9,41.2z"/>
			<path class="st124" d="M192.7,21.3c-1.2-0.1-2.5,0.3-3.4,1.1c-0.5,0.4-0.6,1.1-0.2,1.6c0.4,0.4,1,0.4,1.4,0.1c0,0,0,0,0.1-0.1
				c0.5-0.4,1-0.6,1.6-0.5c0.6,0,1.2,0.3,1.6,0.8c0.3,0.5,1,0.6,1.5,0.3c0,0,0.1-0.1,0.1-0.1c0.4-0.5,0.4-1.2,0-1.7
				C194.7,21.9,193.7,21.3,192.7,21.3z"/>
			<path class="st124" d="M193.6,15.7L193.6,15.7c-2.1-0.2-4.1,0.3-5.7,1.6c-0.4,0.3-0.7,0.7-0.7,1.3c0,0.4,0.1,0.7,0.4,0.9
				c0.6,0.4,1.3,0.4,1.9-0.1c1-0.7,2.2-1.1,3.4-1c1.1,0.1,2.2,0.5,3.1,1.3c0.4,0.3,1,1.3,2,0.9c0.5-0.1,0.8-0.6,0.8-1.1
				c0-0.7-0.3-1.3-0.8-1.7C196.8,16.6,195.2,15.9,193.6,15.7z"/>
			<path class="st124" d="M201.2,13.6c-1.3-1.8-4.1-3.3-7.2-3.5c-2.7-0.2-5.3,0.5-7.5,2c-0.5,0.3-0.9,0.7-1,1.3c0,0.4,0.1,0.7,0.3,1
				c0.5,0.5,1.3,0.5,1.8,0c1.8-1.3,4-1.9,6.1-1.6c2.1,0.2,4,1.2,5.4,2.8c0.4,0.5,1.2,0.7,1.8,0.4c0.3-0.2,0.6-0.5,0.7-0.8
				C201.6,14.5,201.5,14,201.2,13.6z"/>
			<path class="st124" d="M211,53.4c-0.9-0.1-1.8,0.5-2,1.5c-0.1,0.8,0.5,1.5,1.7,1.5h1.5c1,0,1.8,0.9,1.8,1.9c0,0.1,0,0.2,0,0.3
				v0.2c-0.2,1.2-1.2,2.1-2.4,2.2h-1.1c-1.2,0-2.3,0.9-2.4,2.1l-0.9,7c-0.2,1,0.5,2,1.5,2.1c0.1,0,0.3,0,0.4,0h4.4
				c0.9,0.1,1.8-0.5,2-1.4c0.1-0.8-0.4-1.4-1.6-1.4h-1.5c-1,0-1.9-0.7-1.9-1.8c0-0.1,0-0.3,0-0.4l0.1-1.2c0.2-1.2,1.2-2.1,2.5-2.1
				h1.1c1.2,0,2.2-0.9,2.4-2.2l0.8-6c0.2-1-0.5-2-1.5-2.1c-0.1,0-0.2,0-0.3,0L211,53.4z"/>
			<path class="st124" d="M218.6,69.9c-0.2,1,0.5,2,1.5,2.1c0.1,0,0.2,0,0.3,0h4.9c1.2,0,2.2-0.9,2.4-2.2l1.9-14.4
				c0.2-1-0.5-2-1.5-2.1c-0.1,0-0.2,0-0.3,0h-4.9c-1.2,0-2.2,0.9-2.4,2.1L218.6,69.9z M224.9,56.3c0.9,0,1.6,1,1.4,2.2l-1.1,8.5
				c-0.1,1.1-0.9,2-2,2.2c-0.9,0-1.6-1-1.4-2.2l1.1-8.6C223,57.3,223.8,56.5,224.9,56.3z"/>
			<path class="st124" d="M232.8,70.2c-0.2,0.8,0.3,1.6,1.1,1.8c0.1,0,0.2,0,0.3,0c1-0.1,1.7-0.9,1.8-1.8l2.1-15
				c0.1-0.9-0.4-1.7-1.3-1.8c-0.1,0-0.2,0-0.3,0h-2c-1,0-1.8,0.6-2,1.6c-0.2,0.6,0.2,1.3,0.9,1.5c0.1,0,0.1,0,0.2,0
				c0.7,0,1.2,0.8,1,1.8L232.8,70.2z"/>
			<polygon class="st117" points="855.7,132.6 410.5,132.6 453,-4.4 855.7,-4.4 			"/>
			
				<rect x="374.5" y="-334.4" transform="matrix(1.570732e-03 -1 1 1.570732e-03 241.2803 508.0489)" class="st125" width="1.1" height="935.2"/>
			
				<rect x="374.5" y="-335.4" transform="matrix(1.570732e-03 -1 1 1.570732e-03 242.2769 507.0139)" class="st126" width="1.1" height="935.1"/>
			
				<rect x="374.5" y="-336.4" transform="matrix(1.570732e-03 -1 1 1.570732e-03 243.2834 505.9889)" class="st127" width="1" height="935.1"/>
			
				<rect x="374.5" y="-337.4" transform="matrix(1.570732e-03 -1 1 1.570732e-03 244.2901 504.9839)" class="st128" width="1" height="935.2"/>
			
				<rect x="374.5" y="-338.4" transform="matrix(1.570732e-03 -1 1 1.570732e-03 245.2866 503.9688)" class="st129" width="1" height="935.2"/>
			
				<rect x="374.5" y="-339.4" transform="matrix(1.570732e-03 -1 1 1.570732e-03 246.2883 502.9289)" class="st130" width="1" height="935.2"/>
			
				<rect x="374.5" y="-340.5" transform="matrix(1.570732e-03 -1 1 1.570732e-03 247.2949 501.9038)" class="st131" width="0.9" height="935.2"/>
			
				<rect x="374.5" y="-341.5" transform="matrix(1.570732e-03 -1 1 1.570732e-03 248.2915 500.8888)" class="st132" width="0.9" height="935.2"/>
			
				<rect x="374.5" y="-342.5" transform="matrix(1.570732e-03 -1 1 1.570732e-03 249.308 499.8738)" class="st133" width="0.9" height="935.2"/>
			
				<rect x="374.5" y="-343.5" transform="matrix(1.570732e-03 -1 1 1.570732e-03 250.2946 498.8488)" class="st134" width="0.9" height="935.2"/>
			
				<rect x="374.5" y="-344.5" transform="matrix(1.570732e-03 -1 1 1.570732e-03 251.2962 497.8287)" class="st135" width="0.8" height="935.1"/>
			
				<rect x="374.5" y="-345.5" transform="matrix(1.570732e-03 -1 1 1.570732e-03 252.3028 496.8037)" class="st136" width="0.8" height="935.1"/>
			
				<rect x="374.5" y="-346.5" transform="matrix(1.570732e-03 -1 1 1.570732e-03 253.2994 495.7687)" class="st137" width="0.8" height="935.2"/>
			
				<rect x="374.6" y="-347.5" transform="matrix(1.570732e-03 -1 1 1.570732e-03 254.306 494.7637)" class="st138" width="0.7" height="935.2"/>
			
				<rect x="374.6" y="-348.6" transform="matrix(1.570732e-03 -1 1 1.570732e-03 255.3126 493.7387)" class="st139" width="0.7" height="935.2"/>
			
				<rect x="374.6" y="-349.6" transform="matrix(1.570732e-03 -1 1 1.570732e-03 256.3142 492.7187)" class="st140" width="0.7" height="935.2"/>
			
				<rect x="374.6" y="-350.6" transform="matrix(1.570732e-03 -1 1 1.570732e-03 257.3008 491.6937)" class="st141" width="0.7" height="935.2"/>
			
				<rect x="374.6" y="-351.6" transform="matrix(1.570732e-03 -1 1 1.570732e-03 258.3273 490.6687)" class="st142" width="0.6" height="935.2"/>
			
				<rect x="374.6" y="-352.6" transform="matrix(1.570732e-03 -1 1 1.570732e-03 259.3239 489.6536)" class="st143" width="0.6" height="935.2"/>
			
				<rect x="374.6" y="-353.6" transform="matrix(1.570732e-03 -1 1 1.570732e-03 260.3105 488.6286)" class="st144" width="0.6" height="935.2"/>
			
				<rect x="374.6" y="-354.6" transform="matrix(1.570732e-03 -1 1 1.570732e-03 261.3221 487.5986)" class="st145" width="0.5" height="935.1"/>
			
				<rect x="374.6" y="-355.6" transform="matrix(1.570732e-03 -1 1 1.570732e-03 262.3187 486.5836)" class="st146" width="0.5" height="935.1"/>
			<polygon class="st147" points="-92.8,110 842.4,111.4 842.4,111.8 -92.8,110.4 			"/>
			<polygon class="st148" points="-92.8,109 842.4,110.4 842.4,110.8 -92.8,109.4 			"/>
			<polygon class="st149" points="-92.8,108 842.3,109.4 842.3,109.8 -92.8,108.4 			"/>
			<polygon class="st150" points="-92.8,107 842.3,108.4 842.3,108.8 -92.8,107.4 			"/>
			<polygon class="st151" points="-92.8,106 842.3,107.4 842.3,107.7 -92.8,106.3 			"/>
			<polygon class="st152" points="-92.8,105 842.3,106.4 842.3,106.7 -92.8,105.3 			"/>
			<polygon class="st153" points="-92.8,104 842.3,105.4 842.3,105.7 -92.8,104.3 			"/>
			<polygon class="st154" points="-92.8,103 842.3,104.4 842.3,104.7 -92.8,103.3 			"/>
			<polygon class="st155" points="-92.9,102 842.3,103.4 842.3,103.6 -92.9,102.2 			"/>
			<polygon class="st156" points="-92.9,101 842.3,102.4 842.3,102.6 -92.9,101.2 			"/>
			<polygon class="st157" points="-92.9,100 842.3,101.4 842.3,101.6 -92.9,100.2 			"/>
			<polygon class="st158" points="-92.9,99 842.2,100.4 842.3,100.6 -92.9,99.2 			"/>
			<polygon class="st159" points="-92.9,98 842.2,99.4 842.2,99.5 -92.9,98.1 			"/>
			<polygon class="st160" points="-92.9,97 842.2,98.4 842.2,98.5 -92.9,97.1 			"/>
			<polygon class="st161" points="-92.9,96 842.2,97.4 842.2,97.5 -92.9,96.1 			"/>
			<path class="st162" d="M471.3,78.9h226.2c10.3,0,18.7,8.4,18.7,18.7l0,0c0,10.3-8.4,18.7-18.7,18.7H471.3
				c-10.3,0-18.7-8.4-18.7-18.7l0,0C452.6,87.3,461,78.9,471.3,78.9z"/>
			<path class="st163" d="M515,105.5c0,1.2-0.2,1.8-1,2.2c-1,0.4-2.1,0.5-3.2,0.4c-0.2-0.8-0.5-1.6-0.9-2.3c0.8,0,1.8,0,2.1,0
				s0.4-0.1,0.4-0.4v-2h-4c-0.2,1.7-0.8,3.3-1.7,4.7c-0.6-0.6-1.3-1.1-2-1.5c1.4-2,1.6-4.9,1.6-7.1v-5.2h8.8V105.5z M525.4,90.4v2.4
				h-20.8v-2.4h4.9c-0.5-0.9-1.1-1.7-1.7-2.5l2.6-0.9c0.9,0.9,1.6,1.9,2.1,3l-1.3,0.4h6.4c0.7-1.1,1.3-2.2,1.9-3.4l3,0.9
				c-0.5,0.9-1.2,1.8-1.8,2.6L525.4,90.4z M512.4,101.5V100h-3.8c0,0.5,0,1-0.1,1.5L512.4,101.5z M508.6,96.5V98h3.8v-1.5
				L508.6,96.5z M519.5,103.8H517v-9.2h2.5L519.5,103.8z M521.5,94h2.7v11.2c0,1.3-0.2,2-1.2,2.4c-1.2,0.4-2.5,0.6-3.8,0.4
				c-0.2-0.9-0.5-1.7-1-2.5c1.2,0,2.4,0,2.8,0s0.5-0.1,0.5-0.4L521.5,94z"/>
			<path class="st163" d="M531.8,99.1c-0.6,0.6-1.2,1.1-1.7,1.6c-0.4-1-0.8-1.9-1.3-2.8c2.1-1.6,3.9-3.5,5.3-5.8l2.4,0.9
				c-0.5,1-1.2,1.9-1.8,2.8v12.4h-2.8L531.8,99.1z M536.1,88.1c-1.5,2.2-3.4,4.2-5.6,5.7c-0.4-0.8-0.9-1.5-1.4-2.3
				c1.7-1.2,3.2-2.7,4.4-4.4L536.1,88.1z M550.3,104.9v2.6h-14.5v-2.6h6.1v-4.6h-4.6v-2.5h4.6v-4h-5.3v-2.5h5.8
				c-0.4-1.2-0.9-2.4-1.6-3.5l2.5-0.8c0.7,1.1,1.3,2.3,1.8,3.5l-2.2,0.8h6.8v2.6h-5v4h4.3v2.6h-4.3v4.6L550.3,104.9z"/>
			<path class="st163" d="M574.9,90.5h-4c0.6,0.4,1.1,0.9,1.6,1.4l-1.7,1.4h1.9V99h-7.3v1.3h8.4c0,0,0,0.7-0.1,1
				c-0.2,3-0.5,4.5-1.1,5.1c-0.4,0.5-1.1,0.8-1.7,0.8c-1,0.1-1.9,0.1-2.9,0c-0.1-0.9-0.3-1.7-0.8-2.4c0.8,0.1,1.6,0.1,2.3,0.1
				c0.3,0,0.6,0,0.8-0.2c0.4-0.6,0.6-1.3,0.5-2.1h-5.5v5.6h-2.7v-4.4c-2,1.9-4.4,3.3-7,4.3c-0.5-0.8-1.1-1.5-1.7-2.1
				c2.4-0.7,4.7-1.8,6.7-3.4h-4.9c0.4-1.9,0.7-3.8,0.8-5.8h6.1v-1.3h-7v-2.2h4.7c-0.6-0.7-1.4-1.4-2.1-2.1l0.9-0.7h-1.3
				c-0.7,1.1-1.5,2-2.3,2.9c-0.6-0.6-1.2-1.3-1.8-1.8c1.5-1.3,2.6-2.9,3.3-4.7l2.4,0.7c-0.1,0.3-0.3,0.6-0.4,0.9h5v2.1h-3.3
				c0.6,0.5,1.1,1,1.6,1.5l-1.5,1.3h9.7c-0.7-0.7-1.4-1.4-2.2-2l1-0.8h-1.9c-0.5,0.8-1.1,1.5-1.8,2.2c-0.6-0.6-1.3-1.1-2-1.6
				c1.3-1.1,2.3-2.6,2.9-4.2l2.5,0.6c-0.1,0.3-0.2,0.7-0.4,1h6.3L574.9,90.5z M562.8,99H559c-0.1,0.5-0.1,0.9-0.2,1.3h3.9V99z
				 M570,95.5h-4.6v1.3h4.5L570,95.5z"/>
			<path class="st163" d="M622.8,94.7H608c0,3.9-0.4,9.8-2.8,13.5c-0.7-0.6-1.6-1-2.4-1.4c2.3-3.5,2.5-8.5,2.5-12.1v-6.6h17.5
				L622.8,94.7z M620,90.5h-12v1.8h12V90.5z M623.2,96.5v11.7h-2.6v-0.8h-11.9V96.5h2.6v8.5h9.3v-8.5L623.2,96.5z M614.7,101.6v-2.2
				h-2.3v-2.2h2.3v-2h2.5v2h2.3v2.2h-2.3v2.2h2.8v2.2h-8v-2.2L614.7,101.6z"/>
			<path class="st163" d="M648.3,88.9v4.4h-2.9v-1.9h-14.4v1.9h-2.8v-4.4h9c-0.2-0.5-0.3-1-0.6-1.4l2.8-0.6c0.4,0.6,0.7,1.3,0.9,2
				L648.3,88.9z M634,100.6h12.2v7.4h-2.8v-0.8H634v0.9h-2.8V92.8h14.2v6.3H634V100.6z M634,95.1v1.7h8.7v-1.7H634z M634,102.9v2
				h9.4v-2H634z"/>
			<path class="st163" d="M655,102.2c-0.1,1.9-0.5,3.7-1,5.5c-0.6-0.3-1.2-0.5-1.9-0.7c0.5-1.7,0.8-3.4,0.9-5.2L655,102.2z
				 M673.2,105.5c0,1.2-0.2,1.8-0.9,2.2c-1,0.4-2.1,0.5-3.2,0.4c-0.1-0.8-0.3-1.6-0.7-2.3c0.8,0,1.7,0,2,0s0.4-0.1,0.4-0.4V90.3
				h-7.4v17.8H661v-8l-1.8,0.8c-0.1-0.3-0.1-0.7-0.2-1c-4.5,0.7-5.2,1-5.8,1.2c-0.2-0.7-0.4-1.5-0.8-2.2c0.6-0.1,1-0.7,1.7-1.5
				c0.5-0.6,1-1.3,1.5-2c-0.9,0.1-1.8,0.3-2.6,0.6c-0.2-0.7-0.5-1.4-0.8-2.2c0.4-0.1,0.8-0.5,1.2-1.2c1.1-1.7,1.9-3.6,2.6-5.5
				l2.2,0.9c-0.8,1.9-1.8,3.8-3,5.5l1.6-0.1c0.6-1,1.1-2.1,1.6-3.2l2,1.3c-1.3,2.5-2.9,4.8-4.7,7l2.5-0.3c-0.2-0.6-0.4-1.1-0.5-1.5
				l1.7-0.7c0.6,1.3,1,2.6,1.5,4V88h12.2L673.2,105.5z M657.3,101.7c0.3,1.6,0.5,3.1,0.6,4.7l-1.9,0.5c-0.1-1.6-0.2-3.2-0.5-4.7
				L657.3,101.7z M659.6,101.1c0.5,1.4,1,2.8,1.3,4.2l-1.8,0.7c-0.3-1.5-0.7-2.9-1.2-4.3L659.6,101.1z M668.8,102.2
				c0.4,0,0.9,0,1.3-0.1c0,0.5,0.1,1.3,0.2,1.8c-0.5,0.1-0.9,0.2-1.4,0.1h-1.9c-2,0-2.3-0.7-2.3-2.5v-1.3h-0.7v-2h2.3
				c-0.2-0.5-0.4-1-0.6-1.5l1.4-0.4h-3.2v-2h1.2c-0.2-1-0.4-2-0.8-2.9l1.5-0.5c0.5,1,0.8,2,1,3l-1.3,0.4h2c0.3-1.1,0.6-2.2,0.8-3.4
				l1.8,0.5c-0.3,1-0.6,2.1-0.9,2.9h1.2v2h-2.7c0.3,0.5,0.5,1,0.7,1.6l-0.9,0.3h2.8v2h-3.4v1.4c0,0.5,0.1,0.7,0.4,0.7L668.8,102.2z"
				/>
			<path class="st163" d="M684.1,104.3c0-1.2,0.9-2.1,2-2.2c0,0,0.1,0,0.1,0c1.2,0,2.2,1,2.2,2.2c0,1.2-1,2.2-2.2,2.2
				C685,106.5,684.1,105.6,684.1,104.3C684.1,104.4,684.1,104.4,684.1,104.3z M684.6,92.2l-0.1-3.2h3.4l-0.1,3.1l-0.5,8.3h-2.2
				L684.6,92.2z"/>
			<path class="st164" d="M483.6,95.2l-8.5-4.9c-1.4-0.8-3.1-0.3-3.9,1c-0.2,0.4-0.4,0.9-0.4,1.4v9.8c0,1.6,1.3,2.9,2.9,2.9
				c0.5,0,1-0.1,1.4-0.4l8.5-4.9c1.4-0.8,1.8-2.5,1.1-3.9C484.4,95.8,484.1,95.4,483.6,95.2z"/>
		</g>
		<g class="st0">
			<path class="st124" d="M243.2,53.4c-0.9,0-1.7,0.7-1.8,1.6l-1.2,8.5c-0.1,0.9,0.5,1.6,1.4,1.6h3.8c0.9,0,1.5,0.7,1.4,1.6
				l-0.1,0.5c-0.1,0.9-0.9,1.6-1.8,1.6l-3.8,0c-0.9,0-1.7,0.6-1.8,1.4c-0.1,0.8,0.5,1.4,1.4,1.4h6.5c0.9,0,1.7-0.7,1.8-1.6l2.1-15.2
				c0.1-0.9-0.5-1.6-1.4-1.6H243.2L243.2,53.4z M244.7,62.5c-0.9,0-1.5-0.7-1.4-1.6l0.5-3.3c0.1-0.9,0.9-1.6,1.8-1.6h1.1
				c0.9,0,1.5,0.7,1.4,1.6l-0.5,3.3c-0.1,0.9-0.9,1.6-1.8,1.6H244.7z"/>
		</g>
	</g>
</g>
<g>
	<path class="st163" d="M468.4,32.1c4.8-4.4,8.1-7.9,8.1-10.7c0-1.8-1-2.7-2.5-2.7c-1.3,0-2.4,0.9-3.3,1.9l-2.5-2.5
		c1.9-2,3.7-3,6.4-3c3.7,0,6.3,2.4,6.3,6.1c0,3.3-2.9,7-5.8,10c1-0.1,2.3-0.3,3.1-0.3h3.6v3.9h-13.4V32.1z"/>
	<path class="st163" d="M484.2,25c0-6.7,2.8-9.9,6.8-9.9s6.9,3.3,6.9,9.9c0,6.7-2.8,10.1-6.9,10.1S484.2,31.7,484.2,25z M493.6,25
		c0-5.3-1.1-6.4-2.5-6.4s-2.5,1.1-2.5,6.4c0,5.3,1.1,6.6,2.5,6.6S493.6,30.3,493.6,25z"/>
	<path class="st163" d="M501,31h4.1V20h-3.6v-2.9c2.1-0.4,3.4-0.9,4.8-1.7h3.4V31h3.5v3.7H501V31z"/>
	<path class="st163" d="M518.5,30.1c0.7,0.7,1.8,1.3,3,1.3c2,0,3.5-1.4,3.7-5.6c-0.9,1.2-2.6,2-3.7,2c-3.2,0-5.7-1.9-5.7-6.1
		c0-4.1,2.9-6.6,6.4-6.6c3.7,0,7.2,2.8,7.2,9.8c0,7-3.7,10.3-7.6,10.3c-2.6,0-4.5-1.1-5.7-2.3L518.5,30.1z M525.1,22.6
		c-0.4-3.2-1.6-4.1-2.8-4.1c-1.2,0-2.3,0.9-2.3,3.1c0,2.1,1,2.8,2.3,2.8C523.3,24.5,524.3,24,525.1,22.6z"/>
	<path class="st163" d="M532.5,32.3c0-1.6,1.1-2.9,2.8-2.9c1.6,0,2.8,1.3,2.8,2.9c0,1.6-1.2,2.9-2.8,2.9
		C533.6,35.2,532.5,33.9,532.5,32.3z"/>
	<path class="st163" d="M540.9,25c0-6.7,2.8-9.9,6.8-9.9s6.9,3.3,6.9,9.9c0,6.7-2.8,10.1-6.9,10.1S540.9,31.7,540.9,25z M550.2,25
		c0-5.3-1.1-6.4-2.5-6.4s-2.5,1.1-2.5,6.4c0,5.3,1.1,6.6,2.5,6.6S550.2,30.3,550.2,25z"/>
	<path class="st163" d="M559.3,30.1c0.7,0.7,1.8,1.3,3,1.3c2,0,3.5-1.4,3.7-5.6c-0.9,1.2-2.6,2-3.7,2c-3.2,0-5.7-1.9-5.7-6.1
		c0-4.1,2.9-6.6,6.4-6.6c3.7,0,7.2,2.8,7.2,9.8c0,7-3.7,10.3-7.6,10.3c-2.6,0-4.5-1.1-5.7-2.3L559.3,30.1z M565.9,22.6
		c-0.4-3.2-1.6-4.1-2.8-4.1c-1.2,0-2.3,0.9-2.3,3.1c0,2.1,1,2.8,2.3,2.8C564.1,24.5,565.1,24,565.9,22.6z"/>
	<path class="st163" d="M573.3,32.3c0-1.6,1.1-2.9,2.8-2.9c1.6,0,2.8,1.3,2.8,2.9c0,1.6-1.2,2.9-2.8,2.9
		C574.4,35.2,573.3,33.9,573.3,32.3z"/>
	<path class="st163" d="M581.7,32.1c4.8-4.4,8.1-7.9,8.1-10.7c0-1.8-1-2.7-2.5-2.7c-1.3,0-2.4,0.9-3.3,1.9l-2.5-2.5
		c1.9-2,3.7-3,6.4-3c3.7,0,6.3,2.4,6.3,6.1c0,3.3-2.9,7-5.8,10c1-0.1,2.3-0.3,3.1-0.3h3.6v3.9h-13.4V32.1z"/>
	<path class="st163" d="M597,32.4l2.1-2.9c1.2,1.1,2.5,1.9,4,1.9c1.8,0,3-0.8,3-2.2c0-1.7-0.9-2.7-4.9-2.7v-3.2c3.3,0,4.3-1,4.3-2.5
		c0-1.3-0.8-2.1-2.2-2.1c-1.3,0-2.3,0.6-3.5,1.6l-2.3-2.8c1.8-1.5,3.7-2.4,6-2.4c4,0,6.6,1.9,6.6,5.3c0,1.9-1,3.4-3.1,4.3v0.1
		c2.2,0.6,3.7,2.2,3.7,4.7c0,3.6-3.3,5.6-7.2,5.6C600.6,35.2,598.4,34.1,597,32.4z"/>
	<path class="st163" d="M619.5,25.6h7.4v3.2h-7.4V25.6z"/>
	<path class="st163" d="M636.1,31h4.1V20h-3.6v-2.9c2.1-0.4,3.4-0.9,4.8-1.7h3.4V31h3.5v3.7h-12.2V31z"/>
	<path class="st163" d="M651,25c0-6.7,2.8-9.9,6.8-9.9s6.9,3.3,6.9,9.9c0,6.7-2.8,10.1-6.9,10.1S651,31.7,651,25z M660.3,25
		c0-5.3-1.1-6.4-2.5-6.4s-2.5,1.1-2.5,6.4c0,5.3,1.1,6.6,2.5,6.6S660.3,30.3,660.3,25z"/>
	<path class="st163" d="M667.6,32.3c0-1.6,1.1-2.9,2.8-2.9c1.6,0,2.8,1.3,2.8,2.9c0,1.6-1.2,2.9-2.8,2.9
		C668.7,35.2,667.6,33.9,667.6,32.3z"/>
	<path class="st163" d="M676.9,31h4.1V20h-3.6v-2.9c2.1-0.4,3.4-0.9,4.8-1.7h3.4V31h3.5v3.7h-12.2V31z"/>
	<path class="st163" d="M694.4,30.1c0.7,0.7,1.8,1.3,3,1.3c2,0,3.5-1.4,3.7-5.6c-0.9,1.2-2.6,2-3.7,2c-3.2,0-5.7-1.9-5.7-6.1
		c0-4.1,2.9-6.6,6.4-6.6c3.7,0,7.2,2.8,7.2,9.8c0,7-3.7,10.3-7.6,10.3c-2.6,0-4.5-1.1-5.7-2.3L694.4,30.1z M701,22.6
		c-0.4-3.2-1.6-4.1-2.8-4.1c-1.2,0-2.3,0.9-2.3,3.1c0,2.1,1,2.8,2.3,2.8C699.2,24.5,700.3,24,701,22.6z"/>
	<path class="st163" d="M490.5,47h-3.6c0.5,0.4,1,0.8,1.3,1.1l-1.8,1.6h1.8v6.6h-7.4v1h8.8c0,0,0,0.8-0.1,1.2
		c-0.2,3.1-0.5,4.7-1.1,5.4c-0.6,0.6-1.2,0.9-2,1c-0.7,0.1-1.8,0.1-3.1,0.1c0-1-0.5-2.3-1-3.2c0.9,0.1,1.8,0.1,2.3,0.1
		c0.4,0,0.6,0,0.8-0.2c0.2-0.2,0.3-0.6,0.4-1.5h-5.1v5.8h-3.4v-4.2c-2,1.8-4.4,3.2-6.9,4.1c-0.5-0.8-1.5-2.1-2.2-2.7
		c2.3-0.6,4.5-1.7,6.3-2.9h-4.3c0.4-1.8,0.7-4.5,0.9-6.7h6.2v-0.9h-7v-2.4c-0.5-0.6-1.6-1.8-2.3-2.4c1.4-1.2,2.7-3.1,3.4-4.9
		l3.1,0.9c-0.1,0.2-0.2,0.4-0.3,0.6h4.8v2.4c1.1-1.1,1.9-2.5,2.4-4l3.2,0.8c-0.1,0.2-0.2,0.5-0.3,0.7h6.3V47z M472.7,47
		c-0.6,1-1.3,1.9-2.1,2.7h4.2c-0.6-0.6-1.3-1.3-1.9-1.8l0.9-0.8H472.7z M477.3,56.3h-3.1l-0.1,1h3.2V56.3z M485.5,49.7
		c-0.6-0.6-1.4-1.3-2.1-1.8l1.1-0.9h-1.6c-0.6,0.9-1.2,1.8-1.9,2.4c-0.6-0.6-1.8-1.6-2.6-2c0.1-0.1,0.3-0.2,0.4-0.4h-2.6
		c0.5,0.4,1,0.9,1.3,1.3l-1.5,1.4H485.5z M484.7,52.5h-4v0.9h4V52.5z"/>
	<path class="st163" d="M513.8,61v3.6h-21V61H513.8z M512.5,45.3v3.6h-18.4v-3.6H512.5z M510.6,53v3.6h-14.7V53H510.6z"/>
	<path class="st163" d="M521.8,51.7c0,4.2-0.5,10.4-3,14.2c-0.7-0.6-2.2-1.5-3.1-1.8c2.4-3.6,2.6-9.1,2.6-12.9v-7.2h18.8v7.6H521.8z
		 M521.8,47.3v1.3h11.8v-1.3H521.8z M537.5,53.4v12.4h-3.3v-0.8h-12V53.5h3.3v8.6h8.7v-8.6H537.5z M528.3,58.5v-1.7h-1.9V54h1.9
		v-1.7h3.1V54h1.9v2.8h-1.9v1.7h2.3v2.8H526v-2.8H528.3z"/>
	<path class="st163" d="M549.5,49.6c-0.7,1.2-1.6,2.4-2.5,3.6v12.6h-3.5v-8.7c-0.5,0.5-1,1-1.5,1.4c-0.5-0.7-1.7-2.3-2.4-3
		c2.4-1.7,5-4.5,6.6-7.2L549.5,49.6z M548.6,44.5c-1.8,2.4-4.5,4.9-6.9,6.6c-0.4-0.8-1.3-2.2-1.9-2.9c2-1.2,4.3-3.4,5.4-5.1
		L548.6,44.5z M562.5,54.4h-3.1V62c0,1.8-0.3,2.7-1.5,3.3c-1.2,0.5-2.8,0.6-4.8,0.6c-0.1-1-0.6-2.6-1-3.6c1.2,0.1,2.8,0.1,3.2,0.1
		c0.4,0,0.6-0.1,0.6-0.4v-7.5h-6.6v-3.3h13.3V54.4z M561.9,47.7h-11.7v-3.3h11.7V47.7z"/>
	<path class="st163" d="M586.2,48.4c0,0,0,1.1,0,1.5c-0.2,9.7-0.4,13.3-1.1,14.4c-0.6,0.9-1.2,1.2-2,1.4c-0.8,0.2-1.9,0.2-3,0.1
		c-0.1-1-0.5-2.4-1-3.3c1,0.1,1.8,0.1,2.3,0.1c0.4,0,0.6-0.1,0.8-0.4c0.5-0.6,0.6-3.4,0.8-10.6h-1.5c-0.3,6.5-1.4,11.3-5.4,14.5
		c-0.3-0.6-0.9-1.3-1.5-1.9c-3.6,0.4-7.4,0.7-10.2,0.9l-0.4-2.9c1.3-0.1,2.9-0.2,4.7-0.3v-1h-4v-2.4h4v-0.6h-3.9v-7.6h3.9v-0.6h-4.5
		v-2.5h4.5v-0.6c-1.3,0.1-2.6,0.1-3.8,0.1c-0.1-0.7-0.4-1.8-0.7-2.4c3.6-0.2,7.7-0.6,10.4-1.2l1.5,2.6c-1.2,0.3-2.7,0.5-4.2,0.6v0.8
		h4.3v2.5h-4.3v0.6h4v7.6h-4v0.6h4.2v2.4c1.5-2.4,2-5.5,2.2-9.3h-1.9v-3.2h2c0-1.5,0-3.1,0-4.9h3.3c0,1.7,0,3.3,0,4.9H586.2z
		 M567.4,53.1h1.2v-0.7h-1.2V53.1z M568.6,55.8V55h-1.2v0.7H568.6z M571.7,52.4v0.7h1.2v-0.7H571.7z M572.9,55h-1.2v0.7h1.2V55z
		 M571.7,61.7c1.3-0.1,2.5-0.2,3.8-0.3c0.1-0.2,0.2-0.3,0.4-0.5h-4.2V61.7z"/>
	<path class="st163" d="M604.7,62.5c0.4,0,0.9,0,1.3,0c0.9,0,3.8,0,5,0c-0.4,0.7-0.8,2.2-0.9,3h-4.2c-3,0-5.4-0.5-7-3.2
		c-0.6,1.4-1.4,2.5-2.4,3.5c-0.5-0.6-1.8-1.6-2.5-2.1c1.9-1.5,2.9-4.2,3.2-7.3l3.1,0.4c-0.1,0.8-0.3,1.6-0.4,2.4
		c0.4,1,0.9,1.7,1.5,2.2v-5.5H596l0,0.3c-0.8,0.2-1.6,0.5-2.5,0.7v5c0,1.5-0.2,2.4-1,2.9c-0.8,0.6-1.9,0.7-3.5,0.7
		c-0.1-0.9-0.5-2.3-0.9-3.2c0.8,0,1.6,0,1.8,0s0.4-0.1,0.4-0.4v-4.1l-1.9,0.5l-0.7-3.3c0.8-0.1,1.7-0.3,2.6-0.6v-3.7H588v-3.2h2.4
		v-4.4h3.2v4.4h2.3v3.2h-2.3v3l2-0.5l0.3,2v-1.9h14.5v2.8h-5.7v1.7h4.3v2.7h-4.3V62.5z M609.3,52.4h-12.1v-8.6h12.1V52.4z
		 M605.9,46.2h-5.6V47h5.6V46.2z M605.9,49.2h-5.6V50h5.6V49.2z"/>
	<path class="st163" d="M629.8,60.7c1.7,0.9,3.6,2,4.6,2.9l-2.8,2.4c-1.2-1.1-3.9-2.8-5.9-3.9l1.6-1.4H625v5.1h-3.5v-5.1h-3.4
		l2.6,0.8c-1.4,1.7-3.7,3.2-5.7,4.1c-0.7-0.7-2.1-1.8-3-2.3c1.8-0.6,3.7-1.5,4.8-2.6h-4.6v-2.8h9.2v-1.4c-2.2,0.5-4.9,0.7-8.1,0.9
		c-0.3-1-0.7-2.1-1.2-2.8c2.4,0,4.5-0.1,6.3-0.4c-1.1-0.2-2.2-0.4-3.4-0.6c0.6-0.5,1.2-1.1,1.8-1.8h-4.4v-2.7h6.7
		c0.5-0.6,0.9-1.2,1.2-1.8h-4.4v1h-3.2v-3.8h8.2l-0.3-0.8l3.8-0.7c0.2,0.5,0.6,1,0.8,1.5h8.4v3.8h-3.1l0.3,0
		c-0.1,0.2-0.2,0.5-0.3,0.7h3.5v2.7h-4.8c-0.4,0.6-0.9,1.2-1.4,1.7c2.5,0.6,4.7,1.2,6.4,1.8l-3.3,2.2c-1.6-0.7-3.8-1.4-6.3-2
		c-0.8,0.3-1.8,0.6-2.8,0.9h3v1.5h9.4v2.8H629.8z M620.4,51.9c1.2,0.2,2.4,0.4,3.5,0.7c0.4-0.2,0.7-0.5,1.1-0.8h-4.5L620.4,51.9z
		 M624.1,47.8c-0.3,0.5-0.7,0.9-1.1,1.4h3.9c0.2-0.4,0.4-0.9,0.5-1.4l3,0.6v-0.9h-7.6L624.1,47.8z"/>
	<path class="st163" d="M644.3,56.1l-2.5,0.7v5.2c0,1.6-0.2,2.5-1.1,3.1c-0.8,0.6-2,0.7-3.6,0.7c-0.1-0.9-0.5-2.4-0.9-3.4
		c0.7,0,1.6,0,1.8,0s0.4-0.1,0.4-0.4v-4.3l-1.9,0.5l-0.7-3.3c0.8-0.1,1.7-0.3,2.7-0.6v-3.7h-2.3v-3.2h2.3v-4.4h3.4v4.4h2.5v3.2h-2.5
		v2.9l2.1-0.5L644.3,56.1z M658.1,44.2c0,0,0,0.9,0,1.3c-0.2,5.1-0.4,7.4-1,8.2c-0.6,0.7-1.2,1-1.9,1.1c-0.7,0.1-1.8,0.1-2.9,0.1
		c0-1-0.4-2.4-1-3.3c0.9,0.1,1.6,0.1,2.1,0.1c0.3,0,0.6-0.1,0.8-0.3c0.3-0.3,0.4-1.4,0.5-4.1h-3.4c-0.4,3.6-1.5,6.3-5.5,8.1
		c-0.4-0.9-1.3-2.1-2-2.8c2.9-1.2,3.7-3,4-5.3h-3v-3.1H658.1z M645.3,55.5h12.4v10.2h-3.5V65h-5.5v0.9h-3.4V55.5z M648.7,58.6v3.2
		h5.5v-3.2H648.7z"/>
	<path class="st163" d="M678.8,58c1.2,0.7,2.8,1.2,4.3,1.6c-0.7,0.6-1.7,1.9-2.2,2.8c-1-0.3-1.9-0.7-2.8-1.2c-0.2,2.2-0.5,3.3-1,3.9
		c-0.5,0.5-1.1,0.7-1.9,0.8c-0.6,0.1-1.7,0.1-2.8,0c0-0.8-0.4-1.9-0.8-2.6c0.9,0.1,1.7,0.1,2.1,0.1c0.3,0,0.6,0,0.7-0.2
		c0.2-0.2,0.3-0.6,0.4-1.3h-3.6c-1,1.9-3,3.3-7.4,4.1c-0.2-0.8-1-1.9-1.6-2.5c2.5-0.4,4.1-0.9,5-1.6h-3.2v-0.8
		c-0.8,0.4-1.7,0.8-2.7,1.2c-0.4-0.8-1.3-2-1.9-2.5c1.6-0.4,2.9-1,3.9-1.6h-3v-2.7h6c0.1-0.2,0.3-0.4,0.4-0.6h-3.9v-7h16.9v7h-9.3
		c-0.1,0.2-0.2,0.4-0.3,0.6h12V58H678.8z M665.7,46.7h-5.1v-2.5h5.1v-1.2h3.4v1.2h2v2.5h-2v0.6h-3.4V46.7z M666.3,50.3h10v-0.6h-10
		V50.3z M666.3,52.8h10v-0.6h-10V52.8z M672.3,58.3c0,0.3-0.1,0.7-0.1,1h3.6c-0.5-0.4-0.9-0.9-1.3-1.3h-6.2
		c-0.4,0.5-0.9,0.9-1.4,1.3h2.2c0.1-0.3,0.1-0.6,0.2-1H672.3z M673.6,46.7h-1.8v-2.5h1.8v-1.2h3.4v1.2h5.2v2.5H677v0.6h-3.4V46.7z"
		/>
	<path class="st163" d="M705.4,47.2v12.5h-3.7v-1.1h-4.6v7.3h-3.7v-7.3h-4.6v1.2h-3.5V47.2h8.1v-4.1h3.7v4.1H705.4z M693.4,55.1
		v-4.5h-4.6v4.5H693.4z M701.8,55.1v-4.5h-4.6v4.5H701.8z"/>
</g>
<g>
	<path class="st163" d="M599.3,104.1v2.9h-20.8v-2.9H599.3z M598,88.4v2.9h-18.2v-2.9H598z M596.1,96v2.9h-14.6V96H596.1z"/>
</g>
</svg>
