<?xml version="1.0" encoding="utf-8"?>
<!-- Generator: Adobe Illustrator 20.1.0, SVG Export Plug-In . SVG Version: 6.00 Build 0)  -->
<svg version="1.1" id="圖層_1" xmlns="http://www.w3.org/2000/svg" xmlns:xlink="http://www.w3.org/1999/xlink" x="0px" y="0px"
	 viewBox="0 0 46 72" style="enable-background:new 0 0 46 72;" xml:space="preserve">
<style type="text/css">
	.st0{fill:#FF665C;}
</style>
<g>
	<g>
		<path class="st0" d="M28.1,10.3c0.9,1.2,0.4,2.2-1.1,2.2H16.8c-1.5,0-2.2-1.1-1.6-2.5l3.6-7.9c0.6-1.4,1.9-1.5,2.8-0.3L28.1,10.3z
			"/>
		<path class="st0" d="M2.2,18.4C2.4,19.8,2.6,21,2.6,21s0.2,0,0.5,0s1.7,0,3.2,0h7.1c1.5,0,2.9,1.2,3.1,2.7l2,13.5
			c0.2,1.5-0.7,2.7-2.2,2.7s-3.8,0-5.2,0s-2.4,1.2-2.2,2.6c0.2,1.4,0.6,3.8,0.8,5.3l0.4,2.4c0.2,1.5-0.7,2.7-1.9,2.7
			s-2.1,1.2-1.9,2.6c0.2,1.4,1.6,2.6,3.1,2.6h4.4c1.5,0,2.6-1.1,2.4-2.5C16,54.2,15.8,53,15.8,53c0-0.1-0.2-1.3-0.4-2.8L15,47.8
			c-0.2-1.5,0.8-2.7,2.2-2.7s3.8,0,5.2,0c1.5,0,2.7,0,2.8,0s0.4,1.2,0.6,2.7l1.6,10.4c0.2,1.5,0.6,3.9,0.8,5.3s1.6,2.6,3.1,2.6h4.9
			c1.5,0,2.9,1.1,3.1,2.5s1.6,2.5,3,2.5s2.4-1.1,2.2-2.5s-0.6-3.7-0.8-5.1s-1.6-2.6-3-2.6s-3.8,0-5.2,0s-2.8-1.2-3-2.7l-1.6-10.4
			c-0.3-1.5,0.8-2.7,2.3-2.7h0.4c1.5,0,2.5-1.2,2.3-2.7l-2.8-18.7c-0.2-1.5,0.8-2.7,2.2-2.7s2.7,1.2,2.8,2.6l0.9,6.2
			c0.2,1.5,1.6,2.7,3,2.7s2.4-1.2,2.2-2.7l-0.9-6.1c-0.2-1.5-0.6-3.9-0.8-5.3c-0.2-1.4-1.6-2.6-3.1-2.6H29.1c-1.5,0-2.7,0-2.7,0
			s-1.2,0-2.7,0h-4.8c-1.5,0-4,0-5.5,0H9.7c-1.5,0-2.9-1.2-3.1-2.7L5.7,7c-0.2-1.5-1.6-2.7-3-2.7S0.3,5.5,0.5,7l0.9,6.1
			C1.6,14.6,2,17,2.2,18.4S2,17,2.2,18.4z"/>
	</g>
</g>
</svg>
