<?xml version="1.0" encoding="utf-8"?>
<!-- Generator: Adobe Illustrator 20.1.0, SVG Export Plug-In . SVG Version: 6.00 Build 0)  -->
<svg version="1.1" id="圖層_1" xmlns="http://www.w3.org/2000/svg" xmlns:xlink="http://www.w3.org/1999/xlink" x="0px" y="0px"
	 viewBox="0 0 46 72" style="enable-background:new 0 0 46 72;" xml:space="preserve">
<style type="text/css">
	.st0{fill:#FF665C;}
</style>
<g>
	<g>
		<path class="st0" d="M23.4,1.8c0.9-1.2,2.2-1.1,2.8,0.3l3.6,7.9c0.6,1.4-0.1,2.5-1.6,2.5H18c-1.5,0-2-1-1.1-2.2L23.4,1.8z"/>
		<path class="st0" d="M42.8,18.4c0.2-1.4,0.6-3.8,0.8-5.3L44.5,7c0.2-1.5-0.8-2.7-2.2-2.7s-2.8,1.2-3,2.7l-0.9,6.1
			c-0.2,1.5-1.6,2.7-3.1,2.7h-3.7c-1.5,0-4,0-5.5,0h-4.8c-1.5,0-2.7,0-2.7,0s-1.2,0-2.7,0H5.6c-1.5,0-2.9,1.2-3.1,2.6
			c-0.2,1.4-0.6,3.8-0.8,5.3l-0.9,6.1c-0.2,1.5,0.8,2.7,2.2,2.7s2.8-1.2,3-2.7l0.9-6.2C7,22.2,8.3,21,9.7,21s2.4,1.2,2.2,2.7
			L9.1,42.4c-0.2,1.5,0.8,2.7,2.3,2.7h0.4c1.5,0,2.6,1.2,2.3,2.7l-1.6,10.4c-0.2,1.5-1.6,2.7-3,2.7s-3.8,0-5.2,0s-2.8,1.2-3,2.6
			s-0.6,3.7-0.8,5.1s0.8,2.5,2.2,2.5s2.8-1.1,3-2.5c0.2-1.4,1.6-2.5,3.1-2.5h4.9c1.5,0,2.9-1.2,3.1-2.6s0.6-3.8,0.8-5.3l1.6-10.4
			c0.2-1.5,0.5-2.7,0.6-2.7s1.3,0,2.8,0c1.4,0,3.8,0,5.2,0s2.4,1.2,2.2,2.7l-0.4,2.4c-0.2,1.5-0.4,2.7-0.4,2.8c0,0-0.2,1.2-0.4,2.6
			c-0.2,1.4,0.9,2.5,2.4,2.5h4.4c1.5,0,2.9-1.2,3.1-2.6c0.2-1.4-0.7-2.6-1.9-2.6s-2.1-1.2-1.9-2.7l0.4-2.4c0.2-1.5,0.6-3.9,0.8-5.3
			c0.2-1.4-0.8-2.6-2.2-2.6s-3.7,0-5.2,0s-2.4-1.2-2.2-2.7l2-13.5c0.2-1.5,1.6-2.7,3.1-2.7h7.1c1.5,0,2.9,0,3.2,0s0.5,0,0.5,0
			S42.6,19.8,42.8,18.4S42.6,19.8,42.8,18.4z"/>
	</g>
</g>
</svg>
