<?xml version="1.0" encoding="utf-8"?>
<!-- Generator: Adobe Illustrator 20.1.0, SVG Export Plug-In . SVG Version: 6.00 Build 0)  -->
<svg version="1.1" id="圖層_1" xmlns="http://www.w3.org/2000/svg" xmlns:xlink="http://www.w3.org/1999/xlink" x="0px" y="0px"
	 viewBox="0 0 46 72" style="enable-background:new 0 0 46 72;" xml:space="preserve">
<style type="text/css">
	.st0{fill:#FF665C;}
</style>
<g>
	<g>
		<path class="st0" d="M23.1,10.2c0.9,1.2,0.4,2.2-1.1,2.2H11.8c-1.5,0-2.2-1.1-1.6-2.5L13.8,2c0.6-1.4,1.9-1.5,2.8-0.3L23.1,10.2z"
			/>
		<path class="st0" d="M15,47.8l2.3,15.5c0.2,1.5-0.7,2.7-1.9,2.7s-2.1,1.2-1.9,2.6s1.6,2.6,3.1,2.6H21c1.6,0,2.6-1.2,2.4-2.6
			s-0.6-3.8-0.8-5.3l-2.3-15.5c-0.3-1.5,0.8-2.7,2.3-2.7h0.7c1.5,0,2.9,1.2,3.1,2.7l0.4,2.4c0.2,1.5,0.6,3.9,0.8,5.3
			s1.6,2.6,3.1,2.6h4.9c1.5,0,2.9,1.1,3.1,2.5c0.2,1.4,1.6,2.5,3,2.5s2.4-1.1,2.2-2.5s-0.6-3.7-0.8-5.1c-0.2-1.4-1.6-2.6-3-2.6
			s-3.8,0-5.2,0s-2.8-1.2-3-2.7l-0.4-2.4c-0.2-1.5-0.6-3.9-0.8-5.4c-0.2-1.5-0.6-3.9-0.8-5.4l-0.4-1.8c-0.2-1.5,0.8-2.7,2.2-2.7
			s2.4-1.2,2.2-2.7l-1.7-11.3c-0.2-1.5-1.6-2.7-3-2.7s-3.8,0-5.3,0H10.3l2.1,14c0.3,1.5-0.8,2.7-2.3,2.7H5.7c-1.6,0-2.6,1.2-2.4,2.6
			c0.2,1.4,1.6,2.6,3.1,2.6h4.4c1.5,0,2.9,1.2,3.1,2.7l0.3,2c0.2,1.5,0.4,2.7,0.4,2.7S14.8,46.3,15,47.8z"/>
	</g>
</g>
</svg>
