<svg xmlns="http://www.w3.org/2000/svg" xmlns:xlink="http://www.w3.org/1999/xlink" viewBox="0 0 568.93 312.09"><defs><style>.cls-1{fill:#fff;}.cls-10,.cls-2,.cls-24,.cls-26,.cls-27,.cls-29,.cls-3,.cls-30,.cls-31,.cls-32,.cls-33,.cls-34,.cls-35,.cls-4,.cls-9{fill:none;stroke-linecap:round;}.cls-2,.cls-3{stroke:#006261;}.cls-10,.cls-2,.cls-24,.cls-27,.cls-29,.cls-3,.cls-30,.cls-31,.cls-35,.cls-9{stroke-miterlimit:10;}.cls-2{stroke-width:14px;}.cls-24,.cls-3,.cls-31,.cls-32,.cls-33,.cls-4{stroke-width:6px;}.cls-10,.cls-30,.cls-34,.cls-35,.cls-4{stroke:#ff9947;}.cls-26,.cls-32,.cls-33,.cls-34,.cls-4{stroke-linejoin:round;}.cls-5{fill:#006261;}.cls-6{fill:#ff9947;}.cls-7{fill:#17bbef;}.cls-8{fill:#e0e0e0;}.cls-29,.cls-31,.cls-32,.cls-9{stroke:#17bbef;}.cls-10,.cls-9{stroke-width:2.15px;}.cls-11{mask:url(#mask);}.cls-12{fill:#3c9195;}.cls-13{fill:#368c90;}.cls-14{fill:#30888b;}.cls-15{fill:#2a8385;}.cls-16{fill:#247e80;}.cls-17{fill:#1e797b;}.cls-18{fill:#187576;}.cls-19{fill:#127071;}.cls-20{fill:#0c6b6b;}.cls-21{fill:#066666;}.cls-22{fill:#004864;}.cls-23{mask:url(#mask-2);}.cls-24,.cls-33{stroke:#a4cb35;}.cls-25{mask:url(#mask-3);}.cls-26,.cls-27{stroke:#4d9da8;stroke-width:6.34px;}.cls-28{mask:url(#mask-4);}.cls-29,.cls-30{stroke-width:1.96px;}.cls-34{stroke-width:18px;}.cls-35{stroke-width:9px;}</style><mask id="mask" x="184.38" y="0" width="349.46" height="228.76" maskUnits="userSpaceOnUse"><g transform="translate(0 0)"><path class="cls-1" d="M187.14,146.15c19.38-16.8,37.79-21.34,82.39-46.57,20-11.33,49.8-37,111.56-41.53s95.71,32.77,112.64,65.62C511.46,158.08,550,171,526.38,190c-10.47,8.39-81.23,42.09-177.78,38.5S167.91,162.82,187.14,146.15Z"/></g></mask><mask id="mask-2" x="277.22" y="43.85" width="181.67" height="182" maskUnits="userSpaceOnUse"><g transform="translate(0 0)"><path class="cls-1" d="M458.89,225.85H281.22v-182S396.06,58.31,408.72,59s29.75,8.5,29.75,8.5Z"/></g></mask><mask id="mask-3" x="-1.3" y="68.02" width="378.32" height="237.32" maskUnits="userSpaceOnUse"><g transform="translate(0 0)"><path class="cls-1" d="M2.91,221.41c20.69-18,40.48-23.15,88.26-50.52,21.45-12.29,53.24-39.83,119.77-45.73S314.5,158,333.13,192.33c19.52,35.95,61.25,48.93,36,69.32-11.18,9-40.75,43.69-191.18,43.69C36.37,305.34-17.63,239.32,2.91,221.41Z"/></g></mask><mask id="mask-4" x="10.72" y="107.85" width="253.5" height="218" maskUnits="userSpaceOnUse"><g transform="translate(0 0)"><path class="cls-1" d="M255.22,325.85H10.72v-218s222.17,16.67,234,17.83a59.51,59.51,0,0,1,19.5,5.08Z"/></g></mask></defs><title>資產 7</title><g id="圖層_2" data-name="圖層 2"><g id="圖層_2-2" data-name="圖層 2"><line class="cls-2" x1="449.15" y1="281.5" x2="458.79" y2="282.1"/><line class="cls-3" x1="443.98" y1="297.72" x2="455.34" y2="280.01"/><line class="cls-3" x1="484.34" y1="270.62" x2="455.34" y2="280.01"/><line class="cls-3" x1="404.97" y1="273.92" x2="455.34" y2="280.01"/><line class="cls-4" x1="443.98" y1="297.72" x2="443.98" y2="292.85"/><line class="cls-4" x1="483.22" y1="267.48" x2="484.34" y2="270.62"/><line class="cls-4" x1="404.97" y1="273.92" x2="406.26" y2="269.75"/><ellipse class="cls-5" cx="531.87" cy="158.5" rx="37.06" ry="8.38"/><path class="cls-6" d="M514.17,68.33c-1.77-2.53-4.36-2.34-5.75.42l-6.09,12.12c-1.39,2.76,0,5,3.09,5h15.45c3.09,0,4.17-2.07,2.39-4.6Z" transform="translate(0 0)"/><path class="cls-6" d="M478.51,95a4.39,4.39,0,0,1,5.81,1.63,5.79,5.79,0,0,0,6.72,2l12.19-4.75a32.48,32.48,0,0,1,9-1.84l18.93-.58a7,7,0,0,1,6.32,4.21l7.3,19.16c.91,2.4.11,4.86-1.78,5.48s-4.18-.84-5.09-3.24l-5.54-14.65c-.91-2.4-3.16-3.79-5-3.09s-2.84,3.3-2.21,5.79l5.12,20.16a58.73,58.73,0,0,1,1.41,9.17l1.11,19.24a5,5,0,0,0,4.93,4.65h8.55a4.81,4.81,0,0,1,4.91,4.25,4.19,4.19,0,0,1-4.42,4.25H529.73a5,5,0,0,1-4.93-4.65l-1-17.19a5,5,0,0,0-4.93-4.65H501.74a4.36,4.36,0,0,0-4.39,4.65l.5,8.68.51,8.91a4.19,4.19,0,0,1-4.42,4.25H487.1a4.81,4.81,0,0,1-4.91-4.25,3.8,3.8,0,0,1,3.59-4.25c2.11,0,3.71-2.09,3.56-4.65l-1-17.19c-.15-2.56-.26-4.65-.25-4.65h12.37c2.13,0,4.1-2.09,4.37-4.63l2.37-22.31c.27-2.55-1.48-3.92-3.89-3L488,107.46a6.47,6.47,0,0,1-7.07-2.21l-3.11-4.39C476.29,98.77,476.62,96.13,478.51,95Z" transform="translate(0 0)"/><rect class="cls-7" x="520.71" y="107.04" width="31.76" height="22.64" rx="1.66" ry="1.66" transform="translate(1075.75 12.39) rotate(156.44)"/><rect class="cls-8" x="523.43" y="108.23" width="31.76" height="22.64" transform="translate(1081.45 13.58) rotate(156.44)"/><line class="cls-9" x1="525.78" y1="116.64" x2="529.25" y2="125.74"/><line class="cls-9" x1="531.09" y1="130.15" x2="531.45" y2="131.13"/><line class="cls-9" x1="535.37" y1="128.47" x2="535.73" y2="129.45"/><line class="cls-9" x1="530.16" y1="114.81" x2="533.63" y2="123.91"/><line class="cls-9" x1="540.64" y1="126.4" x2="541" y2="127.38"/><line class="cls-9" x1="535.44" y1="112.73" x2="538.91" y2="121.84"/><line class="cls-10" x1="522.88" y1="121.6" x2="526.01" y2="128.79"/><path class="cls-6" d="M514,92.17l17.13-.68a7,7,0,0,1,6.32,4.17l7.3,19.16c.91,2.4.11,4.86-1.78,5.48s-4.18-.84-5.09-3.24l-5.54-14.65c-.91-2.4-3.16-3.79-5-3.09L524,100.6" transform="translate(0 0)"/><g class="cls-11"><path class="cls-12" d="M187.14,146.15c19.38-16.8,37.79-21.34,82.39-46.57,20-11.33,49.8-37,111.56-41.53s95.71,32.77,112.64,65.62C511.46,158.08,550,171,526.38,190c-10.47,8.39-81.23,42.09-177.78,38.5S167.91,162.82,187.14,146.15Z" transform="translate(0 0)"/><path class="cls-13" d="M200.7,134.88c18.17-15.76,35.44-20,77.27-43.67,18.78-10.62,46.7-34.68,104.63-39S472.37,83,488.24,113.8c16.63,32.27,52.8,44.43,30.62,62.21-9.82,7.87-76.18,39.47-166.73,36.1S182.67,150.52,200.7,134.88Z" transform="translate(0 0)"/><path class="cls-14" d="M214.27,123.61c17-14.72,33.09-18.69,72.15-40.78C304,72.92,330,50.46,384.12,46.46s83.81,28.7,98.63,57.47c15.53,30.14,49.3,41.49,28.59,58.08-9.17,7.35-71.13,36.86-155.68,33.71S197.43,138.22,214.27,123.61Z" transform="translate(0 0)"/><path class="cls-15" d="M227.84,112.35c15.76-13.67,30.74-17.36,67-37.88,16.29-9.21,40.51-30.08,90.76-33.79s77.86,26.66,91.63,53.39c14.42,28,45.8,38.54,26.56,54-8.51,6.83-66.08,34.24-144.62,31.32S212.2,125.91,227.84,112.35Z" transform="translate(0 0)"/><path class="cls-16" d="M241.41,101.08c14.56-12.63,28.39-16,61.9-35,15-8.51,37.42-27.78,83.83-31.21s71.91,24.62,84.63,49.31c13.32,25.86,42.3,35.6,24.54,49.84-7.86,6.3-61,31.63-133.57,28.93S227,113.61,241.41,101.08Z" transform="translate(0 0)"/><path class="cls-17" d="M255,89.81c13.36-11.58,26-14.71,56.78-32.1,13.8-7.81,34.32-25.48,76.89-28.62s66,22.59,77.63,45.23C478.5,98,505.08,107,488.79,120c-7.21,5.78-56,29-122.52,26.53S241.72,101.31,255,89.81Z" transform="translate(0 0)"/><path class="cls-18" d="M268.55,78.55C280.7,68,292.24,65.17,320.21,49.35c12.56-7.1,31.22-23.18,70-26s60,20.55,70.63,41.15C471.91,86,496.09,94.16,481.27,106c-6.56,5.26-50.94,26.39-111.47,24.14S256.49,89,268.55,78.55Z" transform="translate(0 0)"/><path class="cls-19" d="M282.11,67.28c10.95-9.49,21.34-12.06,46.54-26.31,11.31-6.4,28.13-20.89,63-23.46S445.74,36,455.3,54.58c10,19.44,31.8,26.76,18.45,37.47-5.91,4.74-45.89,23.78-100.42,21.75S271.25,76.7,282.11,67.28Z" transform="translate(0 0)"/><path class="cls-20" d="M295.68,56c9.74-8.45,19-10.73,41.42-23.41,10.07-5.69,25-18.59,56.09-20.88s48.12,16.48,56.62,33c8.91,17.3,28.3,23.82,16.42,33.35-5.26,4.22-40.84,21.16-89.37,19.35S286,64.4,295.68,56Z" transform="translate(0 0)"/><path class="cls-21" d="M309.25,44.75c8.54-7.4,16.65-9.4,36.3-20.52,8.82-5,21.94-16.29,49.15-18.3s42.17,14.44,49.62,28.91c7.81,15.16,24.8,20.87,14.39,29.22-4.61,3.7-35.79,18.54-78.32,17S300.78,52.1,309.25,44.75Z" transform="translate(0 0)"/><path class="cls-5" d="M322.82,33.48c7.33-6.36,14.3-8.08,31.18-17.62,7.58-4.29,18.84-14,42.22-15.72S432.43,12.55,438.83,25c6.71,13,21.3,17.93,12.36,25.1-4,3.17-30.74,15.93-67.27,14.57S315.54,39.79,322.82,33.48Z" transform="translate(0 0)"/></g><path class="cls-22" d="M408.33,58.64c0,4.46-5.91,6.12-13.2,6.12s-13.2-1.66-13.2-6.12,5.91-8.07,13.2-8.07S408.33,54.18,408.33,58.64Z" transform="translate(0 0)"/><g class="cls-23"><path class="cls-24" d="M280.22,214.35l30-13c17-5,22.5-30,28.67-50.17,13.33-43.67,39.83-87.83,92.83-94.33" transform="translate(0 0)"/></g><g class="cls-25"><path class="cls-12" d="M2.91,221.41c20.69-18,40.48-23.15,88.26-50.52,21.45-12.29,53.24-39.83,119.77-45.73S314.5,158,333.13,192.33c19.52,35.95,61.25,48.93,36,69.32-11.18,9-66.06,43.78-191.18,43.69C73.81,305.27-17.63,239.32,2.91,221.41Z" transform="translate(0 0)"/><path class="cls-13" d="M17.88,209.59c19.37-16.9,37.9-21.68,82.64-47.3,20.08-11.5,49.85-37.3,112.14-42.81s97,30.76,114.41,62.89c18.28,33.66,57.35,45.81,33.7,64.9-10.47,8.45-62.61,41.06-179,40.91C84.26,288-1.35,226.36,17.88,209.59Z" transform="translate(0 0)"/><path class="cls-14" d="M32.85,197.76c18.05-15.75,35.32-20.2,77-44.08,18.72-10.72,46.46-34.76,104.51-39.9S304.74,142.44,321,172.39c17,31.37,53.45,42.69,31.4,60.48-9.76,7.87-59.17,38.34-166.82,38.12C94.72,270.79,14.93,213.39,32.85,197.76Z" transform="translate(0 0)"/><path class="cls-15" d="M47.82,185.94c16.73-14.6,32.74-18.73,71.39-40.86,17.35-9.94,43.06-32.22,96.88-37s83.77,26.57,98.84,54.33C330.72,191.49,364.48,202,344,218.48c-9,7.3-55.72,35.63-154.64,35.34C105.17,253.55,31.21,200.42,47.82,185.94Z" transform="translate(0 0)"/><path class="cls-16" d="M62.79,174.11c15.42-13.45,30.16-17.25,65.77-37.64,16-9.16,39.67-29.68,89.25-34.07s77.17,24.48,91.06,50c14.55,26.79,45.64,36.46,26.82,51.65-8.33,6.72-52.28,32.91-142.46,32.56C115.63,236.31,47.49,187.46,62.79,174.11Z" transform="translate(0 0)"/><path class="cls-17" d="M77.76,162.29c14.1-12.3,27.58-15.78,60.15-34.43,14.62-8.37,36.28-27.15,81.62-31.16s70.57,22.39,83.27,45.77c13.3,24.5,41.74,33.34,24.52,47.24-7.62,6.15-48.83,30.2-130.28,29.77C126.08,219.07,63.77,174.49,77.76,162.29Z" transform="translate(0 0)"/><path class="cls-18" d="M92.73,150.46c12.78-11.15,25-14.3,54.52-31.21,13.25-7.59,32.89-24.61,74-28.25s64,20.29,75.49,41.49c12.06,22.21,37.84,30.23,22.23,42.82-6.91,5.57-45.38,27.48-118.1,27C136.54,201.83,80.05,161.53,92.73,150.46Z" transform="translate(0 0)"/><path class="cls-19" d="M107.71,138.64c11.46-10,22.43-12.83,48.9-28,11.89-6.81,29.5-22.07,66.36-25.33s57.38,18.2,67.7,37.21c10.82,19.92,33.94,27.11,19.94,38.4-6.2,5-41.94,24.76-105.92,24.21C147,184.59,96.33,148.56,107.71,138.64Z" transform="translate(0 0)"/><path class="cls-20" d="M122.68,126.81C132.82,118,142.52,115.46,166,102c10.52-6,26.11-19.53,58.73-22.42s50.78,16.11,59.92,32.93c9.57,17.63,30,24,17.65,34-5.48,4.42-38.49,22-93.74,21.42C157.45,167.35,112.61,135.6,122.68,126.81Z" transform="translate(0 0)"/><path class="cls-21" d="M137.65,115c8.83-7.7,17.27-9.88,37.65-21.55,9.15-5.24,22.71-17,51.1-19.51s44.18,14,52.13,28.65c8.33,15.34,26.13,20.87,15.35,29.57-4.77,3.85-35,19.33-81.56,18.64C167.9,150.11,128.89,122.63,137.65,115Z" transform="translate(0 0)"/><path class="cls-5" d="M152.62,103.16c7.51-6.55,14.69-8.4,32-18.33,7.79-4.46,19.32-14.46,43.47-16.6s37.59,11.92,44.35,24.38c7.08,13,22.23,17.76,13.06,25.16-4.06,3.28-31.6,16.61-69.38,15.86S145.17,109.66,152.62,103.16Z" transform="translate(0 0)"/></g><path class="cls-22" d="M239.59,127c0,5.12-7,7-15.61,7s-15.61-1.91-15.61-7,7-9.27,15.61-9.27S239.59,121.83,239.59,127Z" transform="translate(0 0)"/><line class="cls-26" x1="476.2" y1="177.2" x2="476.2" y2="191.46"/><line class="cls-26" x1="467.39" y1="191.46" x2="462.79" y2="187.97"/><line class="cls-26" x1="485.01" y1="191.46" x2="490.1" y2="187.97"/><ellipse class="cls-27" cx="476.2" cy="168.01" rx="10.45" ry="5.81"/><polyline class="cls-26" points="460.57 160.15 464.55 160.15 465.75 153.93"/><line class="cls-26" x1="316.47" y1="269.75" x2="316.47" y2="276.87"/><line class="cls-26" x1="307.66" y1="276.87" x2="303.06" y2="273.38"/><line class="cls-26" x1="325.28" y1="276.87" x2="330.38" y2="273.38"/><line class="cls-26" x1="83.17" y1="266.18" x2="83.17" y2="273.31"/><line class="cls-26" x1="74.36" y1="273.31" x2="69.76" y2="269.82"/><line class="cls-26" x1="91.98" y1="273.31" x2="97.07" y2="269.82"/><line class="cls-26" x1="413.22" y1="201.06" x2="413.22" y2="208.19"/><line class="cls-26" x1="404.42" y1="208.19" x2="399.81" y2="204.7"/><line class="cls-26" x1="422.04" y1="208.19" x2="427.13" y2="204.7"/><ellipse class="cls-5" cx="82.63" cy="286.51" rx="55.18" ry="13.46"/><g class="cls-28"><path class="cls-24" d="M100,303.85,131.22,285c7.51-4.61,12.94-8.75,14.45-16.43,6.71-34.29,33.81-129.93,112.23-142.35" transform="translate(0 0)"/></g><path class="cls-6" d="M131.9,246.4c2.75,1.68,2.67,4.28-.18,5.78l-10.65,5.63c-2.85,1.51-5.53.13-6-3.07l-1.95-14.43c-.43-3.19,1.47-4.43,4.22-2.76Z" transform="translate(0 0)"/><path class="cls-6" d="M56.23,269.45a5.41,5.41,0,0,1-5.09,4.21H41.29a5.15,5.15,0,0,0-4.93,4.24L35,287.15a3.58,3.58,0,0,0,3.64,4.24h.3a5.51,5.51,0,0,0,5.16-4.2l.1-.48a5.51,5.51,0,0,1,5.16-4.2H59.6A6,6,0,0,0,65,278.39l4.06-14.74a6.19,6.19,0,0,1,5.42-4.26l5.21-.16a5.64,5.64,0,0,1,5.39,3.68c.61,2.1-.82,3.92-3.17,4.06l-3.46.2a4.48,4.48,0,0,0-4.18,4.53l.2,8.57a4.41,4.41,0,0,0,4.35,4.28A4.16,4.16,0,0,0,83,280.27V280a4.46,4.46,0,0,1,4.18-4.52l4-.22a3.61,3.61,0,0,0,3.44-4.43l-1.5-7.49c-.46-2.31.91-4.2,3-4.2a5,5,0,0,1,4.54,4.23l3.6,23.16a4.42,4.42,0,0,0,4.91,3.67h0a4.22,4.22,0,0,0,3.62-4.8l-5.74-39a7.07,7.07,0,0,0-4.77-5.34l-20.25-5.38a17.79,17.79,0,0,0-22,13.85Z" transform="translate(0 0)"/><path class="cls-6" d="M121.08,261.67a3.52,3.52,0,0,0-2.2,5.09l7.81,15.79a5.24,5.24,0,0,0,6,2.6l.28-.09a3.52,3.52,0,0,0,2.2-5.09l-7.81-15.79a5.24,5.24,0,0,0-6-2.6Z" transform="translate(0 0)"/><path class="cls-7" d="M91.89,301,69,288.23a3.07,3.07,0,0,0-2.81-.08L51.6,297.29c-.69.43-.55,1.17.31,1.65l22.92,12.76a3.07,3.07,0,0,0,2.81.08l14.56-9.14C92.89,302.21,92.75,301.47,91.89,301Z" transform="translate(0 0)"/><polygon class="cls-8" points="93.2 299.77 67.16 285.28 50.09 296 76.13 310.49 93.2 299.77"/><line class="cls-29" x1="74.22" y1="306.54" x2="81.99" y2="302.17"/><line class="cls-29" x1="85.65" y1="299.95" x2="86.5" y2="299.49"/><line class="cls-29" x1="81.48" y1="297.49" x2="82.32" y2="297.02"/><line class="cls-29" x1="69.82" y1="304.04" x2="77.59" y2="299.67"/><line class="cls-29" x1="76.32" y1="294.44" x2="77.16" y2="293.98"/><line class="cls-29" x1="64.67" y1="301" x2="72.44" y2="296.63"/><line class="cls-30" x1="81.13" y1="307.35" x2="87.04" y2="303.64"/><line class="cls-30" x1="54.22" y1="304.6" x2="66.35" y2="311.1"/><polyline class="cls-31" points="415.98 6.9 414.89 16.19 420.65 16.19"/><polyline class="cls-31" points="407.98 13.73 414.89 16.19 414.31 18.73"/><polyline class="cls-32" points="365.79 46.04 363.8 36.85 359.1 38.98"/><polyline class="cls-32" points="371.6 38.98 363.8 36.85 363.6 38.04"/><polyline class="cls-33" points="406.26 269.75 442.46 153.16 482.96 266.74"/><line class="cls-24" x1="442.46" y1="153.16" x2="443.98" y2="292.85"/><line class="cls-34" x1="443.22" y1="156.22" x2="443.22" y2="136.97"/><polyline class="cls-35" points="433.62 162.33 446.23 166.1 453.34 161.2"/><line class="cls-35" x1="445.23" y1="143.21" x2="454.23" y2="138.47"/></g></g></svg>