<svg xmlns="http://www.w3.org/2000/svg" xmlns:xlink="http://www.w3.org/1999/xlink" viewBox="0 0 547.9 371.61"><defs><style>.cls-1{fill:#fff;}.cls-2{fill:#006261;}.cls-3{fill:#ff9947;}.cls-11,.cls-12,.cls-13,.cls-16,.cls-17,.cls-18,.cls-4,.cls-5,.cls-6,.cls-7{fill:none;stroke-linecap:round;}.cls-13,.cls-4{stroke:#004864;}.cls-11,.cls-12,.cls-13,.cls-16,.cls-17,.cls-4,.cls-5,.cls-6,.cls-7{stroke-miterlimit:10;}.cls-4,.cls-7{stroke-width:94px;}.cls-11,.cls-12,.cls-5{stroke:#fff;}.cls-5{stroke-width:45px;}.cls-6,.cls-7{stroke:#ff9947;}.cls-6{stroke-width:20px;}.cls-8{fill:#3c9195;}.cls-9{fill:#004864;}.cls-10{fill:#00364b;}.cls-11,.cls-17{stroke-width:4.52px;}.cls-12,.cls-13{stroke-width:8px;}.cls-14{fill:#ffdd58;}.cls-15{fill:#17bbef;}.cls-16{stroke:#17bbef;stroke-width:4px;}.cls-17,.cls-18{stroke:#00364b;}.cls-18{stroke-linejoin:round;stroke-width:12px;}.cls-19{mask:url(#mask);}</style><mask id="mask" x="159.77" y="88.18" width="73.92" height="116.08" maskUnits="userSpaceOnUse"><ellipse class="cls-1" cx="203.22" cy="161.16" rx="30.63" ry="16.4" transform="translate(-17.93 25.64) rotate(-6.92)"/><rect class="cls-1" x="159.77" y="88.18" width="61.72" height="75.75"/></mask></defs><title>資產 6</title><g id="圖層_2" data-name="圖層 2"><g id="圖層_2-2" data-name="圖層 2"><path class="cls-2" d="M398.58,350.21l-3.87-2.58a1.47,1.47,0,0,1,.81-2.69H403a1.47,1.47,0,0,0,.85-2.67l-19.15-11.84a1.47,1.47,0,0,1,.82-2.67l30.23-.29a18.87,18.87,0,0,1,8.58,2l1.5.74a19.54,19.54,0,0,0,9.47,2.37h1.84a16.36,16.36,0,0,1,7.86,2.08l23.37,13.05a1.47,1.47,0,0,1-.71,2.75H456.3a1.47,1.47,0,0,1-.72-.19L442.72,343a13.48,13.48,0,0,0-6.72-1.76l-15.27.07a1.47,1.47,0,0,0-1,2.5l4.18,4.18a1.47,1.47,0,0,1-1,2.5H399.39A1.47,1.47,0,0,1,398.58,350.21Z"/><path class="cls-2" d="M493.72,342.09l-2.65-1.77a1.38,1.38,0,0,1,.76-2.52h2.9a1.24,1.24,0,0,0,.72-2.26l-16.22-10a1.24,1.24,0,0,1,.69-2.26l28.93-.28a2.12,2.12,0,0,1,1,.22l12.2,7.5c2.47,1.23,6.83,4.21,9.58,4.06l2.74.06a11.9,11.9,0,0,1,6.5,1.65l5.06,2.41c2.82,1.15,2.37,3.58.38,3.64H543a11.87,11.87,0,0,1-5.63-1.42l-3.2-1.6-6.82-.38c-2.24-.13-2.69-.74-4.72-1.68l-7.3-3.84a9.51,9.51,0,0,0-4-.88h-7.69a1.36,1.36,0,0,0-.91,2.37l5.55,5a1.38,1.38,0,0,1-.92,2.4H495A2.28,2.28,0,0,1,493.72,342.09Z"/><path class="cls-2" d="M382.24,360a1.66,1.66,0,0,0,.85-3.11L346.5,337.29,325.67,325a1.78,1.78,0,0,0-1.4-.17l-21.58,6.33a1.64,1.64,0,0,0-.56,2.95l40.19,27a1.75,1.75,0,0,0,1,.29l5.56-.22a1.67,1.67,0,0,0,1-3l-18-12.09a1.64,1.64,0,0,1,.5-2.93l2.79-.91c2.59-.81,3.25-.25,5.79,1.26l28.57,15.59a9.26,9.26,0,0,0,4.79,1.11Z"/><path class="cls-3" d="M363.57,232.07c1.86-2.95,4.81-2.9,6.57.11l8.1,13.86c1.76,3,.35,5.47-3.14,5.47H357.68c-3.48,0-4.82-2.41-3-5.36Z"/><path class="cls-3" d="M361.26,258.59c-2.55,0-4.64,1.79-4.64,4s-2.09,4-4.64,4H339.4a4.65,4.65,0,0,0-4.64,4.64v.32a4.65,4.65,0,0,0,4.64,4.64H352c2.55,0,4.64,1.83,4.64,4.06s-2.09,4.06-4.64,4.07l-20.61.05a4.66,4.66,0,0,0-4.64,4.65v.32a4.64,4.64,0,0,0,4.64,4.62l20.61-.05a4.64,4.64,0,0,1,4.64,4.62v.22a4.51,4.51,0,0,1-4.33,4.64A4.51,4.51,0,0,0,348,308v39.28a4.5,4.5,0,0,1-4.32,4.64,4.5,4.5,0,0,0-4.32,4.64v.32a4.65,4.65,0,0,0,4.64,4.64h9a4.65,4.65,0,0,0,4.64-4.64V317.57a4.65,4.65,0,0,1,4.64-4.64h10.9a4.65,4.65,0,0,1,4.64,4.64v29.69a4.5,4.5,0,0,1-4.32,4.64,4.5,4.5,0,0,0-4.32,4.64v.32a4.65,4.65,0,0,0,4.64,4.64h9a4.65,4.65,0,0,0,4.64-4.64V308.62a67.66,67.66,0,0,0-.76-9.21l-6-36.24a5.68,5.68,0,0,0-5.4-4.57Z"/><line class="cls-4" x1="150.37" y1="212" x2="241.03" y2="178.66"/><path class="cls-2" d="M318.54,355.73l-7.6-3.42a1.3,1.3,0,0,0-.29-.17l-.25-.08-12.14-5.47a1.29,1.29,0,0,0-.23-.13l-.2-.06-12.25-5.52a1.28,1.28,0,0,0-.18-.1l-.15,0-11.14-5,2.75-1.34c1.25-.61,35.92-17.21,35.92-17.21,5.8-2.1,7.56-7,3.93-10.93s-13-6.47-18.76-4.37l-17.55,8-.41-.21-11.3-5a16.67,16.67,0,0,1-9.57-13.05,9.3,9.3,0,0,0-.34-1.47c-2.92-9.1-19.57-12.71-43.12-10.92a16.68,16.68,0,0,1-8-1.34l-10.6-4.65a1.41,1.41,0,0,1,.09-2.63l5.24-1.89c5.8-2.1,7.56-7,3.93-10.93s-11.29-5.44-17.09-3.34l-46.86,16.93c-5.8,2.1-7.56,7-3.93,10.93,2.92,3.17,8.43,4.76,13.49,4.17a16,16,0,0,0,3.6-.83l16.42-5.93a7.38,7.38,0,0,1,5.47.18l5.41,2.37a1.11,1.11,0,0,1-.21,2.1c-8.71,2-17.81,4.42-27.09,7.39-29.47,9.44-49.15,18.34-63.46,32-8.75,8.32-16.55,19.38-19.38,26.92a4.29,4.29,0,0,0,2.89,5.63c16,4.3,43.13,3.12,61.33,1.15,14.78-1.6,18.85-3.09,36.92-8.58a269.47,269.47,0,0,0,38.93-15.42l8,3.58,0,0h0l73.06,33.06a3.59,3.59,0,0,0,2.5.22,2.3,2.3,0,0,0,1.44-.9,1.49,1.49,0,0,0-.76-2.28L292.55,365c-1.13-.51-.78-1.56.78-2.36l11.46-5.89a6.85,6.85,0,0,1,5.05-.55l6.68,3a4.11,4.11,0,0,0,2.64,0,3.1,3.1,0,0,0,1.69-1.1C321.46,357.31,319.29,356.07,318.54,355.73Zm-60.17-40.29,2.95,1.29-8.57,3.09a9.17,9.17,0,0,0-5.14,4l-.59-.27h0l-9.48-4.27q1.35-.93,2.62-1.86A18.38,18.38,0,0,1,258.37,315.44ZM221.53,333l-3-1.37a.6.6,0,0,1,0-1.08c4.72-2.45,9.12-4.94,13.15-7.44a4.43,4.43,0,0,1,4.16-.29l3,1.37c1.13.51.78,1.56-.78,2.36l-11.46,5.89A6.85,6.85,0,0,1,221.53,333Zm13.12,5.91L229,336.35c-1.13-.51-.78-1.56.78-2.36l11.46-5.89a6.85,6.85,0,0,1,5.05-.55l.93.42a7.16,7.16,0,0,0,1.65,2.8,11,11,0,0,0,2.18,1.79l-11.3,5.81A6.85,6.85,0,0,1,234.65,338.92Zm12.62,5.68-5.19-2.34c-1.13-.51-.78-1.56.78-2.36l11.35-5.83a18.89,18.89,0,0,0,7.63.91v4.18L252.32,344A6.85,6.85,0,0,1,247.27,344.6Zm12.62,5.68-5.19-2.34c-1.13-.51-.78-1.56.78-2.36l11.46-5.89a6.85,6.85,0,0,1,5.05-.55l5.19,2.34c1.13.51.78,1.56-.78,2.36l-11.46,5.89A6.85,6.85,0,0,1,259.89,350.28ZM272.5,356l-5.19-2.34c-1.13-.51-.78-1.56.78-2.36l11.46-5.89a6.85,6.85,0,0,1,5.05-.55l5.19,2.34c1.13.51.78,1.56-.78,2.36l-11.46,5.89A6.85,6.85,0,0,1,272.5,356Zm29.13-.76-11.46,5.89a6.85,6.85,0,0,1-5.05.55l-5.19-2.34c-1.13-.51-.78-1.56.78-2.36l11.46-5.89a6.85,6.85,0,0,1,5.05-.55l5.19,2.34C303.55,353.35,303.2,354.4,301.64,355.2Z"/><line class="cls-5" x1="129.01" y1="151.17" x2="155.55" y2="143.11"/><line class="cls-6" x1="305.4" y1="217.87" x2="235.58" y2="182.86"/><line class="cls-5" x1="292.06" y1="229.69" x2="328.69" y2="216.01"/><line class="cls-6" x1="155.13" y1="151.81" x2="213.8" y2="178.04"/><path class="cls-2" d="M269.43,342.94l0,1.2a5.68,5.68,0,0,0,3.06,5.25l12.12,6.17a5.68,5.68,0,0,0,5.51-.15l5.76-3.41a5.68,5.68,0,0,1,6.1.2l12.44,8.51a5.68,5.68,0,0,0,6.51-.07h0a5.68,5.68,0,0,0-.64-9.63l-32.59-16.24a7.83,7.83,0,0,0-4.4-.13l-8.32,2.85C272,339.05,269.55,340,269.43,342.94Z"/><line class="cls-7" x1="140.68" y1="215.57" x2="231.34" y2="182.23"/><path class="cls-8" d="M64.68,239,99.8,190.48A46,46,0,1,1,125.53,262l-58-15a5.17,5.17,0,0,1-3.71-6.29A5.25,5.25,0,0,1,64.68,239Z"/><path class="cls-9" d="M60.53,240.27l33.9-48.41a46.28,46.28,0,1,1,26.23,71.33L63.48,248.28a5.2,5.2,0,0,1-3.72-6.34A5.3,5.3,0,0,1,60.53,240.27Z"/><ellipse class="cls-10" cx="203.22" cy="161.08" rx="30.63" ry="16.4" transform="translate(-17.92 25.64) rotate(-6.92)"/><ellipse class="cls-11" cx="227.37" cy="105.98" rx="22.21" ry="36.71"/><line class="cls-12" x1="214.51" y1="144.52" x2="228.24" y2="148.15"/><path class="cls-10" d="M324.29,355.14l-6.76-16.26a2.78,2.78,0,0,0-.18-.55,2.68,2.68,0,0,0-.19-.33L309,318.45a2.75,2.75,0,0,0-.14-.44,2.67,2.67,0,0,0-.15-.26L300.56,298a2.72,2.72,0,0,0-.11-.33c0-.07-.08-.13-.11-.2l-8.27-19.89c0-.07,0-.15-.07-.22s-.05-.09-.08-.13l-8.34-20.07s0-.08,0-.11l0-.07-8.75-21h0l-22-52.84-.34-.81-13.19-8a3.12,3.12,0,0,0-4.12.82,2.84,2.84,0,0,0,.74,4.1l9.18,5.58a9.55,9.55,0,0,1,3.86,4.51l9.24,22.23a3.86,3.86,0,0,1-2,4.88L242.64,223a3.55,3.55,0,0,1-4.89-1.74L227.5,196.55l-.3-.72-12.85-9a3.09,3.09,0,0,0-4.15.56,2.86,2.86,0,0,0,.48,4.15l9.47,6.66a9.55,9.55,0,0,1,3.33,4.16l11.38,27.37c0,.06,0,.12.06.18l0,.08,8.71,21,0,.08,0,0,49.43,118.92a2.72,2.72,0,0,0,2.54,1.67,3.07,3.07,0,0,0,2.8-4.28L294,356.67a3.86,3.86,0,0,1,2-4.88l13.56-6.55a3.55,3.55,0,0,1,4.89,1.74l4.47,10.76a2.72,2.72,0,0,0,2.54,1.67,3.07,3.07,0,0,0,2.8-4.28Zm-45.16-44,13.56-6.55a3.55,3.55,0,0,1,4.89,1.74l3.47,8.36a3.86,3.86,0,0,1-2,4.88l-13.56,6.55a3.55,3.55,0,0,1-4.89-1.74L277.16,316A3.86,3.86,0,0,1,279.13,311.17Zm-8.44-20.31,13.56-6.55a3.55,3.55,0,0,1,4.89,1.74l3.47,8.36a3.86,3.86,0,0,1-2,4.88l-13.56,6.55a3.55,3.55,0,0,1-4.89-1.74l-3.47-8.36A3.86,3.86,0,0,1,270.69,290.85Zm-8.44-20.31L275.81,264a3.55,3.55,0,0,1,4.89,1.74l3.47,8.36a3.86,3.86,0,0,1-2,4.88l-13.56,6.55a3.55,3.55,0,0,1-4.89-1.74l-3.47-8.36A3.86,3.86,0,0,1,262.24,270.54Zm-8.78-21.12L267,242.87a3.55,3.55,0,0,1,4.89,1.74l3.81,9.16a3.86,3.86,0,0,1-2,4.88L260.2,265.2a3.55,3.55,0,0,1-4.89-1.74l-3.81-9.16A3.86,3.86,0,0,1,253.47,249.42Zm9.68-25.93,3.81,9.16a3.86,3.86,0,0,1-2,4.88l-13.56,6.55a3.55,3.55,0,0,1-4.89-1.74l-3.81-9.16a3.86,3.86,0,0,1,2-4.88l13.56-6.55A3.55,3.55,0,0,1,263.14,223.49Zm25.93,121.23-3.47-8.36a3.86,3.86,0,0,1,2-4.88l13.56-6.55a3.55,3.55,0,0,1,4.89,1.74L309.5,335a3.86,3.86,0,0,1-2,4.88L294,346.45A3.55,3.55,0,0,1,289.08,344.72Z"/><line class="cls-13" x1="187.36" y1="237.31" x2="194.39" y2="234.75"/><line class="cls-13" x1="203.99" y1="231.24" x2="211.67" y2="228.44"/><path class="cls-11" d="M262.74,106c0,30.4-23.1,36.71-35.37,36.71S205.16,126.26,205.16,106s9.94-36.71,22.21-36.71S262.74,75.58,262.74,106Z"/><path class="cls-14" d="M400.1,168.4a2.26,2.26,0,0,0-3.13-1.22L383.39,174a.62.62,0,0,1-.67-.07l-6-4.92c-.91-.75-2.41-1.92-3.93-.94-1.21.78-1,2.4.08,3.42.7.63,2.32,1.87,2.82,2.46a.15.15,0,0,1-.18.23l-6.87-3.49a2.26,2.26,0,0,0-1.85,4.12l10.23,4.66a.68.68,0,0,1,.32.33,2.09,2.09,0,0,0,1.7,1.18l1.07.08a.93.93,0,0,1,.53.22l9.36,7.95a2.26,2.26,0,0,0,3.4-.61,2.33,2.33,0,0,0-.59-2.93L388,181.61a.12.12,0,0,1,.12-.2c1.74.76,5.13,2.6,6.09,2.58a2.27,2.27,0,0,0,2.2-1.76,2.34,2.34,0,0,0-1.54-2.66l-6.1-2.22a.53.53,0,0,1-.06-1l10.16-5.1A2.35,2.35,0,0,0,400.1,168.4Z"/><path class="cls-14" d="M375.82,181.35a1.58,1.58,0,0,0-3.16,0v.17a1.58,1.58,0,0,0,3.16,0Z"/><path class="cls-14" d="M378.68,182.25a1.58,1.58,0,0,0-1.58,1.58V184a1.58,1.58,0,1,0,3.16,0v-.17A1.58,1.58,0,0,0,378.68,182.25Z"/><path class="cls-14" d="M293.37,9a2.26,2.26,0,0,0-2.58-2.14L275.75,9a.62.62,0,0,1-.62-.28L271,2.21c-.63-1-1.68-2.58-3.43-2.13-1.4.36-1.74,1.95-1,3.27.46.82,1.61,2.51,1.91,3.22a.15.15,0,0,1-.25.16l-5.43-5.47a2.26,2.26,0,1,0-3.05,3.33L268,12.23a.68.68,0,0,1,.2.41,2.09,2.09,0,0,0,1.24,1.66l1,.41a.93.93,0,0,1,.44.37l6.38,10.49a2.26,2.26,0,0,0,3.42.49,2.33,2.33,0,0,0,.36-3l-3.3-5.38a.12.12,0,0,1,.18-.16c1.41,1.27,4.05,4.08,5,4.37a2.27,2.27,0,0,0,2.65-1,2.34,2.34,0,0,0-.63-3l-5.09-4a.53.53,0,0,1,.25-.94l11.25-1.64A2.35,2.35,0,0,0,293.37,9Z"/><path class="cls-14" d="M266.25,13.64a1.58,1.58,0,0,0-3-1l-.06.17a1.58,1.58,0,1,0,3,1Z"/><path class="cls-14" d="M268.68,15.39a1.58,1.58,0,0,0-2,1l-.06.17a1.58,1.58,0,0,0,3,1l.06-.17A1.58,1.58,0,0,0,268.68,15.39Z"/><path class="cls-14" d="M34.34,293.57a2.26,2.26,0,0,0-2.58-2.14l-15,2.19a.62.62,0,0,1-.62-.28L12,286.79c-.63-1-1.68-2.58-3.43-2.13-1.4.36-1.74,1.95-1,3.27.46.82,1.61,2.51,1.91,3.22a.15.15,0,0,1-.25.16l-5.43-5.47a2.26,2.26,0,0,0-3.05,3.33L9,296.82a.68.68,0,0,1,.2.41,2.09,2.09,0,0,0,1.24,1.66l1,.41a.93.93,0,0,1,.44.37l6.38,10.49a2.26,2.26,0,0,0,3.42.49,2.33,2.33,0,0,0,.36-3l-3.3-5.38a.12.12,0,0,1,.18-.16c1.41,1.27,4.05,4.08,5,4.37a2.27,2.27,0,0,0,2.65-1,2.34,2.34,0,0,0-.63-3l-5.09-4a.53.53,0,0,1,.25-.94l11.25-1.64A2.35,2.35,0,0,0,34.34,293.57Z"/><path class="cls-14" d="M7.21,298.22a1.58,1.58,0,1,0-3-1l-.06.17a1.58,1.58,0,1,0,3,1Z"/><path class="cls-14" d="M9.64,300a1.58,1.58,0,0,0-2,1l-.06.17a1.58,1.58,0,1,0,3,1l.06-.17A1.58,1.58,0,0,0,9.64,300Z"/><path class="cls-14" d="M70.9,39.86A2.26,2.26,0,0,0,69.08,37l-15-2.44a.62.62,0,0,1-.5-.45c-.41-1.59-2-7.48-2-7.48-.3-1.14-.83-3-2.63-3.06-1.44-.08-2.25,1.33-1.93,2.82.19.92.78,2.87.85,3.65a.15.15,0,0,1-.28.08L44.1,23.29a2.26,2.26,0,0,0-3.92,2.25l5.56,9.77a.68.68,0,0,1,.07.45,2.09,2.09,0,0,0,.68,2l.82.69a.93.93,0,0,1,.3.49l2.92,11.93a2.26,2.26,0,0,0,3.12,1.5,2.33,2.33,0,0,0,1.23-2.72l-1.53-6.12a.12.12,0,0,1,.22-.09C54.54,45,56.22,48.49,57,49a2.27,2.27,0,0,0,2.82-.14,2.34,2.34,0,0,0,.31-3.06l-3.64-5.37a.53.53,0,0,1,.52-.82l11.22,1.82A2.35,2.35,0,0,0,70.9,39.86Z"/><path class="cls-14" d="M43.64,36.13a1.58,1.58,0,1,0-2.56-1.85l-.1.14a1.58,1.58,0,1,0,2.56,1.85Z"/><path class="cls-14" d="M45.43,38.53a1.58,1.58,0,0,0-2.21.35l-.1.14a1.58,1.58,0,1,0,2.56,1.85l.1-.14A1.58,1.58,0,0,0,45.43,38.53Z"/><path class="cls-14" d="M424.91,71.38a2.26,2.26,0,0,0-3.35.14l-9.71,11.69a.62.62,0,0,1-.65.2l-7.44-2.11c-1.14-.32-3-.79-4,.71-.8,1.2,0,2.61,1.45,3.1.89.3,2.87.79,3.57,1.12a.15.15,0,0,1-.08.28l-7.7-.44a2.26,2.26,0,0,0,0,4.52l11.24.17a.68.68,0,0,1,.43.17,2.09,2.09,0,0,0,2,.4l1-.36a.93.93,0,0,1,.58,0L424,94.49a2.26,2.26,0,0,0,2.87-1.93,2.33,2.33,0,0,0-1.72-2.44l-6.05-1.79a.12.12,0,0,1,0-.24c1.89,0,5.74.32,6.61-.07a2.27,2.27,0,0,0,1.31-2.5,2.34,2.34,0,0,0-2.48-1.82l-6.48.41a.53.53,0,0,1-.44-.87l7.27-8.75A2.35,2.35,0,0,0,424.91,71.38Z"/><path class="cls-14" d="M407.86,93a1.58,1.58,0,1,0-2.9,1.27l.07.16a1.58,1.58,0,0,0,2.9-1.27Z"/><path class="cls-14" d="M410.83,92.66a1.58,1.58,0,0,0-.81,2.08l.07.16a1.58,1.58,0,1,0,2.9-1.27l-.07-.16A1.58,1.58,0,0,0,410.83,92.66Z"/><path class="cls-15" d="M316.74,257.56c1.67-2.66,4.33-2.61,5.92.1l7.29,12.48c1.58,2.71.31,4.93-2.83,4.93H311.44c-3.14,0-4.34-2.17-2.67-4.83Z"/><path class="cls-15" d="M290.09,281.44a4.19,4.19,0,0,0-4.17,4.17v.29a4.19,4.19,0,0,0,4.17,4.17h15c2.3,0,4.27,1.41,4.38,3.13s-1.68,3.13-4,3.13h-8.42a4.19,4.19,0,0,0-4.17,4.17v.29a4.19,4.19,0,0,0,4.17,4.17h8.42a4.07,4.07,0,0,1,4.07,4.17l-.2,8.41a4.31,4.31,0,0,1-4.28,4.17h-6.48s0,1.88,0,4.17v9.71a4.05,4.05,0,0,1-3.89,4.17,4.05,4.05,0,0,0-3.89,4.17v.29a4.19,4.19,0,0,0,4.17,4.17h8.07a4.19,4.19,0,0,0,4.17-4.17v-9.71a4.19,4.19,0,0,1,4.17-4.17h9.4a4.19,4.19,0,0,1,4.17,4.17V349.2a4.15,4.15,0,0,1-4.1,4.17,4.15,4.15,0,0,0-4.1,4.17v.29A4.19,4.19,0,0,0,321,362h12.46a20.62,20.62,0,0,0,.21-4.17V326.33c0-2.3-.15-6-.34-8.34l-2.66-32.39a4.62,4.62,0,0,0-4.52-4.16Z"/><circle class="cls-16" cx="319.28" cy="266.06" r="16.99"/><line class="cls-17" x1="309.36" y1="281.44" x2="331.62" y2="301.26"/><line class="cls-18" x1="333.67" y1="309" x2="332.43" y2="294.74"/><g class="cls-19"><path class="cls-15" d="M214,130.09a4.23,4.23,0,0,0-4.22,4.22v2.29a4.23,4.23,0,0,1-4.22,4.22H173.76a4.23,4.23,0,0,1-4.22-4.22v-2.29a4.23,4.23,0,0,0-4.22-4.22H165a4.23,4.23,0,0,0-4.22,4.22v11a4.23,4.23,0,0,0,4.22,4.22h6.43a4.23,4.23,0,0,1,4.22,4.22V191.3a4.1,4.1,0,0,1-3.93,4.22,4.1,4.1,0,0,0-3.93,4.22V200a4.23,4.23,0,0,0,4.22,4.22h8.16a4.23,4.23,0,0,0,4.22-4.22V181.5a4.23,4.23,0,0,1,4.22-4.22h2a4.23,4.23,0,0,1,4.22,4.22V200a4.23,4.23,0,0,0,4.22,4.22h8.16a4.23,4.23,0,0,0,4.22-4.22v-.29a4.1,4.1,0,0,0-3.93-4.22,4.1,4.1,0,0,1-3.93-4.22V153.77a4.23,4.23,0,0,1,4.22-4.22h6.43a4.23,4.23,0,0,0,4.22-4.22v-11a4.23,4.23,0,0,0-4.22-4.22Z"/><line class="cls-17" x1="203.22" y1="140.82" x2="175.68" y2="173.14"/><path class="cls-15" d="M187,117.19c1.69-2.68,4.38-2.64,6,.1l7.37,12.61c1.6,2.74.31,5-2.86,5H181.61c-3.17,0-4.38-2.2-2.7-4.88Z"/></g><circle class="cls-16" cx="189.67" cy="125.59" r="16.99"/><path class="cls-3" d="M436.91,244.62c1.77-2.82,4.6-2.77,6.28.1L450.92,258c1.68,2.88.33,5.23-3,5.23H431.27c-3.33,0-4.6-2.31-2.83-5.13Z"/><path class="cls-3" d="M469.66,259.18a4.83,4.83,0,0,0-4.58,5v.74a5,5,0,0,1-5,5H433a6.57,6.57,0,0,0-6.11,4.9L419.31,309a55.22,55.22,0,0,0-1.09,9.93v17.33a5,5,0,0,1-5,5H404a4.6,4.6,0,1,0,0,9.17h18.39a5,5,0,0,0,5-5V326.93a5,5,0,0,1,5-5h18.48a5,5,0,0,1,5,5v18.51a5,5,0,0,0,5,5h7.38a4.83,4.83,0,0,0,5-4.58,4.39,4.39,0,0,0-4.13-4.58c-2.27,0-4.13-2.26-4.13-5V317.76c0-2.76,0-5,0-5H452.57a5,5,0,0,1-5-5v-.27a5,5,0,0,1,5-5h10a4.61,4.61,0,1,0,0-9.18h-10a5,5,0,0,1-5-5v-4.07a5,5,0,0,1,5-5h16.65a5,5,0,0,0,5-5V264.2A4.83,4.83,0,0,0,469.66,259.18Z"/><line class="cls-18" x1="527.91" y1="302" x2="526.67" y2="287.74"/><path class="cls-15" d="M491.09,297.08c-2.52,0-4.59-1.78-4.6-3.95s2-3.95,4.57-3.95h8.21a3.81,3.81,0,0,0,3.88-4.53l-.88-5.6a3.81,3.81,0,0,1,3.88-4.53h26.51A5.61,5.61,0,0,1,538,279l1.89,11.46c.41,2.49-1,4.53-3.19,4.53s-4.28-2-4.71-4.52l-.61-3.6a5.38,5.38,0,0,0-4.89-4.52c-2.27,0-3.76,2-3.33,4.52l5.42,30.75a5.68,5.68,0,0,0,5.38,4.52h1.58a5.56,5.56,0,0,1,5.3,4.53L542,333.8c.39,2.49-1.06,4.53-3.23,4.53a4.93,4.93,0,0,1-4.59-4.14,5.33,5.33,0,0,0-5.24-4.14h-2.59a6,6,0,0,1-5.55-4.48l-1-4.56a6,6,0,0,0-5.55-4.48h-8.1a3.78,3.78,0,0,0-3.85,4.53L505,338a3.78,3.78,0,0,1-3.85,4.53h-8.48c-2.52,0-4.87-1.77-5.21-3.94s1.45-3.94,4-3.94h.61a3.78,3.78,0,0,0,3.85-4.53L493.13,313a3.78,3.78,0,0,1,3.85-4.53h5.39a3.78,3.78,0,0,0,3.85-4.53l-.38-2.32a5.59,5.59,0,0,0-5.32-4.53Z"/><path class="cls-15" d="M510.13,250.77c-1.52-2-3.63-1.78-4.67.51l-6.06,13.28c-1,2.29.16,4.17,2.68,4.17h17.06c2.52,0,3.34-1.65,1.82-3.66Z"/><line class="cls-17" x1="503.6" y1="274.44" x2="525.86" y2="294.26"/><circle class="cls-16" cx="476.11" cy="249.59" r="16.99"/></g></g></svg>