<svg xmlns="http://www.w3.org/2000/svg" viewBox="0 0 518.29 435.01"><defs><style>.cls-1{fill:#bebebe;}.cls-2{fill:#006261;}.cls-12,.cls-13,.cls-14,.cls-15,.cls-3,.cls-4,.cls-5,.cls-9{fill:none;}.cls-3,.cls-4,.cls-5{stroke:#00364b;stroke-width:4.46px;}.cls-10,.cls-12,.cls-13,.cls-14,.cls-15,.cls-3,.cls-4,.cls-5,.cls-7,.cls-9{stroke-linecap:round;stroke-linejoin:round;}.cls-4{stroke-dasharray:11.93 14.1;}.cls-5{stroke-dasharray:11.31 13.37;}.cls-10,.cls-6,.cls-7{fill:#00364b;}.cls-10,.cls-7,.cls-9{stroke:#004864;}.cls-7,.cls-9{stroke-width:5.2px;}.cls-8{fill:#004864;}.cls-10{stroke-width:4.58px;}.cls-11{fill:#ff9947;}.cls-12,.cls-15{stroke:#bebebe;}.cls-12,.cls-14{stroke-width:4.89px;}.cls-13,.cls-14{stroke:#ff9947;}.cls-13,.cls-15{stroke-width:4.23px;}</style></defs><title>資產 4</title><g id="圖層_2" data-name="圖層 2"><g id="圖層_2-2" data-name="圖層 2"><path class="cls-1" d="M343.7,3.29A62.61,62.61,0,0,1,328,45.43a63,63,0,0,1-82.22,10.65,63.82,63.82,0,0,1-6.9-5.37,3.26,3.26,0,0,0-5.17,3.65A63.61,63.61,0,0,0,256.2,83.7a63.87,63.87,0,0,0,93.62-82A3.26,3.26,0,0,0,343.7,3.29Z"/><path class="cls-2" d="M311,319.13C170.52,314.83,35.37,331.4,8,352.08c-20,15.09-5.1,33.07,74.31,43.75,20,2.69,45.44,4.69,34.89,15-13.39,13-5.09,22,52.5,22.43,90.21.75,154.51,5,167-3,16.87-10.75,22.55-21.68,47.22-23.18,92.44-5.6,121.92-20.19,132.49-35.89C531.73,348.44,451.53,323.43,311,319.13Z"/><polyline class="cls-1" points="245.66 306.63 228.35 306.63 227.54 276.82 236.67 276.82 237.29 297.5 274.15 297.5 276.81 395.21 258.16 395.21 257.92 386.11 267.47 386.11 266.61 349.22 246.82 349.22 247.64 386.07 247.83 395.2 230.48 395.2 230.29 386.07 238.51 386.07 237.5 340.09 246.63 340.09 246.35 340.09"/><line class="cls-3" x1="478.77" y1="232.16" x2="477.51" y2="237.68"/><line class="cls-4" x1="474.38" y1="251.42" x2="452.79" y2="346.08"/><line class="cls-3" x1="451.23" y1="352.95" x2="449.97" y2="358.47"/><line class="cls-3" x1="451.44" y1="231.84" x2="450.18" y2="237.36"/><line class="cls-4" x1="447.04" y1="251.11" x2="425.46" y2="345.76"/><line class="cls-3" x1="423.89" y1="352.64" x2="422.64" y2="358.15"/><line class="cls-3" x1="424.1" y1="231.53" x2="422.85" y2="237.04"/><line class="cls-4" x1="419.71" y1="250.79" x2="398.13" y2="345.45"/><line class="cls-3" x1="396.56" y1="352.32" x2="395.3" y2="357.84"/><line class="cls-3" x1="396.77" y1="231.21" x2="395.51" y2="236.73"/><line class="cls-4" x1="392.38" y1="250.47" x2="370.8" y2="345.13"/><line class="cls-3" x1="369.23" y1="352" x2="367.97" y2="357.52"/><line class="cls-3" x1="369.44" y1="230.89" x2="368.18" y2="236.41"/><line class="cls-4" x1="365.05" y1="250.16" x2="343.46" y2="344.81"/><line class="cls-3" x1="341.9" y1="351.69" x2="340.64" y2="357.2"/><line class="cls-3" x1="342.11" y1="230.58" x2="340.85" y2="236.09"/><line class="cls-4" x1="337.71" y1="249.84" x2="316.13" y2="344.5"/><line class="cls-3" x1="314.56" y1="351.37" x2="313.31" y2="356.89"/><line class="cls-3" x1="314.77" y1="230.26" x2="313.52" y2="235.78"/><line class="cls-4" x1="310.38" y1="249.52" x2="288.8" y2="344.18"/><line class="cls-3" x1="287.23" y1="351.05" x2="285.97" y2="356.57"/><line class="cls-5" x1="287.44" y1="229.94" x2="258.64" y2="356.25"/><line class="cls-5" x1="260.11" y1="229.63" x2="231.31" y2="355.94"/><line class="cls-5" x1="232.78" y1="229.31" x2="203.98" y2="355.62"/><line class="cls-5" x1="205.44" y1="228.99" x2="176.64" y2="355.3"/><line class="cls-5" x1="178.11" y1="228.68" x2="149.31" y2="354.99"/><line class="cls-5" x1="150.78" y1="228.36" x2="121.98" y2="354.67"/><line class="cls-5" x1="123.45" y1="228.04" x2="94.65" y2="354.35"/><line class="cls-5" x1="96.11" y1="227.73" x2="67.31" y2="354.04"/><path class="cls-6" d="M230.65,62.39a52.35,52.35,0,0,0-14.71.69,5.81,5.81,0,0,1-6.62-4,52,52,0,0,0-100,1.69,1.83,1.83,0,0,1-1.77,1.38h0A52,52,0,0,0,58.46,97a4.72,4.72,0,0,1-5.59,3.06,33.58,33.58,0,1,0-8.33,66.11H225.72a52,52,0,0,0,4.94-103.79Z"/><path class="cls-6" d="M191.42,189.47a33.25,33.25,0,0,0-12.18,1.32,33.18,33.18,0,0,0-64.85-1.4l-.91,0a33.16,33.16,0,0,0-28.65,16.44A13.93,13.93,0,0,1,73,212.88l-.74,0a21.43,21.43,0,0,0,1,42.83H188.86a33.18,33.18,0,0,0,2.56-66.26Z"/><path class="cls-6" d="M312.24,73.39a33.25,33.25,0,0,1,12.18,1.32,33.18,33.18,0,0,1,64.85-1.4l.91,0a33.16,33.16,0,0,1,28.65,16.44,13.93,13.93,0,0,0,11.79,7.07l.74,0a21.43,21.43,0,0,1-1,42.83H314.8a33.18,33.18,0,0,1-2.56-66.26Z"/><path class="cls-6" d="M277.69,103.2q1.12-.11,2.21-.13a11.52,11.52,0,0,0,9.94-6,24.39,24.39,0,0,1,45.14,6l.67,0a24.38,24.38,0,0,1,21.72,13.29,7.63,7.63,0,0,0,7.19,4q.58,0,1.16,0a15.75,15.75,0,0,1-.52,31.49h-85a24.39,24.39,0,0,1-2.56-48.64Z"/><path class="cls-6" d="M305.66,155.28a50.9,50.9,0,0,1,8.09-.11,15.07,15.07,0,0,0,14.7-9,50.15,50.15,0,0,1,94.16,7.57,1.77,1.77,0,0,0,1.7,1.33h0a50.15,50.15,0,0,1,45.72,29.54,10.76,10.76,0,0,0,11.19,6.22,32.38,32.38,0,1,1,3.85,64.53H310.42a50.15,50.15,0,0,1-4.76-100.07Z"/><rect class="cls-7" x="190.4" y="84.02" width="189.88" height="276.18" rx="17.42" ry="17.42"/><rect class="cls-7" x="181.45" y="94.07" width="186.71" height="276.18" rx="17.42" ry="17.42"/><rect class="cls-8" x="193.07" y="105.69" width="163.45" height="226.49" rx="5.79" ry="5.79"/><line class="cls-9" x1="196.77" y1="87.97" x2="186.22" y2="99.51"/><line class="cls-9" x1="362.42" y1="365.95" x2="374.49" y2="355.74"/><circle class="cls-10" cx="274.8" cy="350.12" r="11.37"/><rect class="cls-11" x="270.84" y="168.05" width="75.06" height="41.37" rx="10.76" ry="10.76"/><rect class="cls-11" x="270.84" y="299.51" width="75.06" height="19.4" rx="9.7" ry="9.7"/><rect class="cls-11" x="270.84" y="112.51" width="75.06" height="19.4" rx="9.7" ry="9.7"/><rect class="cls-11" x="270.84" y="243.38" width="75.06" height="19.4" rx="9.7" ry="9.7"/><rect class="cls-1" x="202.33" y="139.44" width="75.06" height="19.4" rx="9.7" ry="9.7"/><rect class="cls-1" x="202.33" y="217.23" width="75.06" height="19.4" rx="9.7" ry="9.7"/><rect class="cls-1" x="202.33" y="269.76" width="75.06" height="19.4" rx="9.7" ry="9.7"/><circle class="cls-6" cx="287.42" cy="312.33" r="2.09"/><circle class="cls-6" cx="295.44" cy="312.33" r="2.09"/><circle class="cls-6" cx="303.46" cy="312.33" r="2.09"/><circle class="cls-6" cx="311.48" cy="312.33" r="2.09"/><circle class="cls-6" cx="319.5" cy="312.33" r="2.09"/><circle class="cls-6" cx="327.52" cy="312.33" r="2.09"/><path class="cls-11" d="M159.46,298.47c1.52-2.95,4.21-3.06,6-.25l8.11,12.89c1.77,2.81.5,5.1-2.82,5.1H156.32c-3.32,0-4.78-2.41-3.26-5.36Z"/><path class="cls-11" d="M161.37,326.44a4,4,0,0,1,4.1-4.9l18.27.06a10.84,10.84,0,0,0,7.89-4.06l7.7-10.86c1.59-2.25,4.52-2.93,6.5-1.53s2.38,4.44.88,6.75l-6.87,10.56a21.06,21.06,0,0,1-7.24,6.35l-3,1.41a5.9,5.9,0,0,0-3,6.92l7.22,22.41a60.41,60.41,0,0,1,2.09,9.73l5.07,45a4.38,4.38,0,0,1-4.44,5H188a5.45,5.45,0,0,1-5.47-4.55,4.15,4.15,0,0,1,4.31-4.55,4.36,4.36,0,0,0,4.29-5l-2.65-26.93a5.65,5.65,0,0,0-5.49-5h-9.79a4.46,4.46,0,0,0-4.52,5l2.62,26.89c.27,2.74.68,7,.92,9.54a4.3,4.3,0,0,1-4.57,4.56h-7.35a5.41,5.41,0,0,1-5.44-4.56c-.24-2.51,1.41-4.56,3.67-4.56s3.89-2.24,3.63-5l-3.5-36a4.46,4.46,0,0,1,4.52-5h.16a3.93,3.93,0,0,0,4-4.9l-.57-2.8a6.41,6.41,0,0,0-6-4.91H146.88c-2.75,0-5-1.94-5.06-4.31s2.2-4.34,4.95-4.37l12.57-.16a4.09,4.09,0,0,0,4.1-5Z"/><polyline class="cls-12" points="142.83 361.6 137.1 403.84 133.94 360.88"/><path class="cls-13" d="M146.65,352.53s.86-6-3.82-6-4.29,6-4.29,6l-.34,14.8"/><line class="cls-12" x1="136.97" y1="409.5" x2="137.96" y2="366.32"/><polyline class="cls-14" points="154.29 365.08 151.44 407.61 145.38 364.96"/><path class="cls-15" d="M157.49,355.78s.43-5.48-4.12-5.28-4,5.82-4,5.82l.66,14.79"/><line class="cls-14" x1="151.69" y1="413.27" x2="149.76" y2="370.12"/></g></g></svg>