<svg xmlns="http://www.w3.org/2000/svg" viewBox="0 0 439.42 398.54"><defs><style>.cls-1{fill:#006261;}.cls-10,.cls-12,.cls-14,.cls-16,.cls-17,.cls-18,.cls-19,.cls-2{fill:none;}.cls-10,.cls-11,.cls-14,.cls-15,.cls-16,.cls-18,.cls-19,.cls-2,.cls-3{stroke:#00364b;}.cls-10,.cls-11,.cls-12,.cls-14,.cls-15,.cls-16,.cls-17,.cls-18,.cls-19,.cls-2,.cls-3,.cls-7{stroke-linecap:round;stroke-linejoin:round;}.cls-2,.cls-3,.cls-7{stroke-width:7.51px;}.cls-11,.cls-15,.cls-3,.cls-5{fill:#00364b;}.cls-4,.cls-7{fill:#ff9947;}.cls-6{fill:#e0e0e0;}.cls-7{stroke:#eb635a;}.cls-8{fill:#eb635a;}.cls-9{fill:#d7e044;}.cls-10,.cls-11{stroke-width:7.31px;}.cls-12{stroke:#d7e044;}.cls-12,.cls-14{stroke-width:3px;}.cls-13{fill:#17bbef;}.cls-15{stroke-width:3.3px;}.cls-16,.cls-17{stroke-width:7px;}.cls-17{stroke:#006261;}.cls-18{stroke-width:4.36px;}.cls-19{stroke-width:5.06px;}</style></defs><title>資產 10</title><g id="圖層_2" data-name="圖層 2"><g id="圖層_2-2" data-name="圖層 2"><path class="cls-1" d="M391.53,279c-1.49-.89-3.12-1-4.55-2a22.5,22.5,0,0,1-4.48-3.7,1.59,1.59,0,0,1-.4-.71,5.54,5.54,0,0,1,.12-1.47,2.17,2.17,0,0,0-.92-1.94,2.71,2.71,0,0,0-1.67-.23A125.12,125.12,0,0,1,351,267.69c-13.32-2-26.49-5.86-39.83-7.48a433.56,433.56,0,0,0-52.4-3.14c-81.05,0-127.4,22.08-127.75,22.16-2,.46-3.42,3.33-3.12,6.41.79,8,7.81,5.95,12.53,5.81q10.71-.32,21.43.29c3.61.2,7.28.5,10.69,1.93,5.87,2.46,11.3,6.27,17,9a36.42,36.42,0,0,0,9,2.6c10.16,1.88,20.22,1.69,30.43,2.3,10.57.63,21.15.9,31.73.9,14.31,0,30,1.66,43.88-3.19,7.38-2.57,15.94-1.26,23.51-1.56l25.2-1a39.08,39.08,0,0,0,10.46-1.38,45.09,45.09,0,0,0,7.56-3.52c4.63-2.51,9.71-6.56,14.63-7.28,3-.44,8.07,1.78,8.64-4.94C395,282,393.44,280.11,391.53,279Z"/><line class="cls-2" x1="203.59" y1="256.12" x2="203.6" y2="292.69"/><line class="cls-2" x1="214.87" y1="252.04" x2="223.14" y2="283.71"/><line class="cls-2" x1="193.97" y1="251.15" x2="184.36" y2="285.48"/><line class="cls-2" x1="204.02" y1="279.93" x2="220.5" y2="273.52"/><line class="cls-2" x1="204.02" y1="279.93" x2="188.86" y2="274.03"/><ellipse class="cls-3" cx="204.68" cy="251.15" rx="16.66" ry="6.55"/><path class="cls-4" d="M220.07,187.86c-1.6-2.54-4.15-2.5-5.66.09l-7,11.94c-1.51,2.59-.3,4.71,2.7,4.71h15c3,0,4.15-2.08,2.55-4.62Z"/><path class="cls-4" d="M203.22,214.67a4.49,4.49,0,0,1,4.37-4h31.07a4,4,0,0,0,4-4V192.62a4,4,0,0,1,4-4h.28a4,4,0,0,1,4,4V215a4,4,0,0,1-4,4H229.7a4,4,0,0,0-4,4v5.68a4,4,0,0,0,4,4h2.09a3.75,3.75,0,0,0,4-3.41,3.75,3.75,0,0,1,4-3.41h.28a4,4,0,0,1,4,4v7.1a4,4,0,0,1-4,4H229.7a4,4,0,0,0-4,4v.37a4,4,0,0,0,4,4h7.23a4,4,0,0,1,4,4v26.81a3.88,3.88,0,0,0,3.72,4,3.88,3.88,0,0,1,3.72,4v.28a4,4,0,0,1-4,4h-7.72a4,4,0,0,1-4-4V261.51a4,4,0,0,0-4-4h-5.42a4,4,0,0,0-4,4v25.57a4,4,0,0,0,3.93,4,4,4,0,0,1,3.93,4v.28a4,4,0,0,1-4,4H215a4,4,0,0,1-4-4V261.51a4,4,0,0,0-4-4h-3.83a3.57,3.57,0,0,1-3.62-4Z"/><path class="cls-5" d="M248.64,167.45c1.16-1.52,2.75-1.34,3.53.4l3.27,7.26a2.07,2.07,0,0,1-2,3.16h-9.54c-1.91,0-2.52-1.24-1.37-2.76Z"/><path class="cls-5" d="M237.71,180.18a3.78,3.78,0,0,0-3.32,2.2l-2.92,7.25a2.34,2.34,0,0,0,1.37,3.08l.62.23a2.18,2.18,0,0,0,2.9-1.5l.89-3.3a2.85,2.85,0,0,1,2.51-2.24c1,.05,1.72,1.17,1.52,2.49l-2.78,18.77a2,2,0,0,0,2.07,2.39h12.55a2.12,2.12,0,0,0,2.15-2.4l-2-18.07c-.15-1.32.61-2.37,1.69-2.34a4.24,4.24,0,0,1,3.09,2.21l2.17,4.13a1.9,1.9,0,0,0,3,.6l.52-.43a3,3,0,0,0,.69-3.65l-3.84-6.86a4.69,4.69,0,0,0-3.6-2.16Z"/><path class="cls-6" d="M248.39,186.11l-11.15-2.8a1,1,0,0,0-1.27,1v15.06a1,1,0,0,0,.77,1l11.65,2.92a1,1,0,0,0,.5,0l11.65-2.92a1,1,0,0,0,.77-1V184.3a1,1,0,0,0-1.27-1l-11.15,2.8A1,1,0,0,1,248.39,186.11Z"/><line class="cls-2" x1="393.9" y1="286.36" x2="393.9" y2="89.91"/><line class="cls-2" x1="131.35" y1="286.36" x2="131.35" y2="89.91"/><path class="cls-7" d="M390.64,124l-14.39-1.58a1047.73,1047.73,0,0,0-228,0L133.89,124c-9.31,0-17.61-7.59-18.54-17.06L110,52.57c-1-10.3,6.16-18.76,16-18.76l14.66-1.72A1047.76,1047.76,0,0,1,382.63,32l15.85,1.84c9.88,0,17.06,8.45,16,18.76l-5.35,54.36C408.25,116.4,399.95,124,390.64,124Z"/><circle class="cls-8" cx="110.25" cy="19.1" r="7.37"/><circle class="cls-8" cx="133.52" cy="16.4" r="7.37"/><circle class="cls-8" cx="156.79" cy="13.7" r="7.37"/><circle class="cls-8" cx="180.06" cy="11" r="7.37"/><circle class="cls-8" cx="203.39" cy="8.92" r="7.37"/><circle class="cls-8" cx="226.8" cy="7.82" r="7.37"/><circle class="cls-8" cx="250.21" cy="7.37" r="7.37"/><circle class="cls-8" cx="273.63" cy="7.55" r="7.37"/><circle class="cls-8" cx="297.04" cy="8.37" r="7.37"/><circle class="cls-8" cx="320.42" cy="9.83" r="7.37"/><circle class="cls-8" cx="343.72" cy="12.28" r="7.37"/><circle class="cls-8" cx="366.95" cy="15.34" r="7.37"/><circle class="cls-8" cx="390.17" cy="18.4" r="7.37"/><circle class="cls-8" cx="413.4" cy="21.46" r="7.37"/><circle class="cls-9" cx="295.51" cy="70.4" r="27.64" transform="translate(212 362.48) rotate(-87.44)"/><circle class="cls-9" cx="365.14" cy="76.92" r="27.64" transform="translate(272.01 438.27) rotate(-87.44)"/><circle class="cls-9" cx="227.28" cy="70.4" r="27.64" transform="translate(-2.91 10.2) rotate(-2.56)"/><circle class="cls-9" cx="157.66" cy="76.92" r="27.64" transform="translate(-3.27 7.11) rotate(-2.56)"/><circle class="cls-8" cx="432.74" cy="36.66" r="6.68" transform="translate(-0.98 14.4) rotate(-1.9)"/><circle class="cls-8" cx="430.21" cy="59.14" r="6.68" transform="translate(-1.73 14.33) rotate(-1.9)"/><circle class="cls-8" cx="427.68" cy="81.62" r="6.68" transform="translate(-2.48 14.26) rotate(-1.9)"/><circle class="cls-8" cx="425.14" cy="104.1" r="6.68" transform="translate(-3.22 14.18) rotate(-1.9)"/><circle class="cls-8" cx="92.91" cy="36.66" r="6.68" transform="translate(53.18 128.29) rotate(-88.1)"/><circle class="cls-8" cx="95.44" cy="59.14" r="6.68" transform="translate(33.16 152.56) rotate(-88.1)"/><circle class="cls-8" cx="97.97" cy="81.62" r="6.68" transform="translate(13.14 176.82) rotate(-88.1)"/><circle class="cls-8" cx="100.5" cy="104.1" r="6.68" transform="translate(-6.89 201.09) rotate(-88.1)"/><line class="cls-10" x1="306.73" y1="257.12" x2="306.73" y2="292.69"/><line class="cls-10" x1="317.69" y1="253.15" x2="325.74" y2="283.96"/><line class="cls-10" x1="297.36" y1="252.28" x2="288.02" y2="285.67"/><line class="cls-10" x1="307.14" y1="280.28" x2="323.17" y2="274.04"/><line class="cls-10" x1="307.14" y1="280.28" x2="292.39" y2="274.54"/><ellipse class="cls-11" cx="307.78" cy="252.28" rx="16.2" ry="6.37"/><path class="cls-4" d="M310,188.22c1.76-2.47,4.32-2.27,5.67.45l5.86,11.73c1.36,2.72,0,4.94-3.05,4.94H303.28c-3,0-4.08-2-2.31-4.49Z"/><path class="cls-4" d="M339.22,190.71a4.18,4.18,0,0,0-4.15,4l-.27,10.39a4.18,4.18,0,0,1-4.15,4H292.48a4.2,4.2,0,0,1-4.16-4l-.42-14.25a4.2,4.2,0,0,0-4.16-4h-.28a4.06,4.06,0,0,0-4,4l0,22.6a4,4,0,0,0,4,4h14.71a2.61,2.61,0,0,1,2.61,3.78L292,244.38a6.3,6.3,0,0,1-5.47,3.78h-7.41a4.49,4.49,0,0,0-4.38,4l-2.31,27.14a4.34,4.34,0,0,1-4.11,4,4.34,4.34,0,0,0-4.11,4l0,.31a3.66,3.66,0,0,0,3.7,4h7.81a4.49,4.49,0,0,0,4.38-4l0-.31.68-8,1.6-18.79a4.49,4.49,0,0,1,4.38-4h5.48a3.66,3.66,0,0,1,3.7,4l-2.2,25.89a4.45,4.45,0,0,1-4.31,4,4.45,4.45,0,0,0-4.31,4l0,.31a3.66,3.66,0,0,0,3.7,4H297a4.49,4.49,0,0,0,4.38-4l2.91-34.25a4.49,4.49,0,0,1,4.38-4h3.88a4.07,4.07,0,0,0,4.05-4l.09-30.91a4.07,4.07,0,0,1,4.05-4H338.3a4.28,4.28,0,0,0,4.22-4l.84-18.75a3.84,3.84,0,0,0-3.86-4Z"/><path class="cls-9" d="M287.11,166.14c-.73-1.61-2.21-1.77-3.27-.36l-5.66,7.46c-1.07,1.41-.5,2.56,1.27,2.56h8.84a1.91,1.91,0,0,0,1.88-2.93Z"/><path class="cls-9" d="M302.41,179.2a2,2,0,1,1,0,3.89l-11.65.13a1.82,1.82,0,0,0-1.83,2.23l2.67,14.25a1.8,1.8,0,0,1-1.83,2.2H278.16a1.94,1.94,0,0,1-2-2.22l1.68-13.55a3.08,3.08,0,0,0-1.8-3.06L270,180.6a4.39,4.39,0,0,1-2.43-3.05l-1.28-8.12a2.08,2.08,0,0,1,1.64-2.48,2.25,2.25,0,0,1,2.38,1.94l1,5.68a4,4,0,0,0,2.54,2.84l2.36.69a20.16,20.16,0,0,0,4.39.67Z"/><circle class="cls-9" cx="275.34" cy="159.52" r="7.97"/><line class="cls-12" x1="275.34" y1="159.52" x2="265.01" y2="170.89"/><path class="cls-9" d="M290.7,165.49a1.14,1.14,0,0,1-.9-1.84l2.81-3.6a1.14,1.14,0,1,1,1.8,1.4l-2.81,3.6A1.14,1.14,0,0,1,290.7,165.49Z"/><path class="cls-9" d="M292.83,169.5a1.14,1.14,0,0,1-.49-2.17l4.75-2.25a1.14,1.14,0,0,1,1,2.06l-4.75,2.25A1.14,1.14,0,0,1,292.83,169.5Z"/><path class="cls-9" d="M299.14,173.78h-4.81a1.14,1.14,0,1,1,0-2.28h4.81a1.14,1.14,0,1,1,0,2.28Z"/><path class="cls-13" d="M342.47,170.08c1-1.43,2.53-1.29,3.29.3l3.27,6.79a1.86,1.86,0,0,1-1.82,2.9h-8.84c-1.77,0-2.36-1.17-1.32-2.59Z"/><path class="cls-13" d="M330,184.08a4.59,4.59,0,0,0-3.47,1.84L324,189.76a1.85,1.85,0,0,0,.78,2.79,2.67,2.67,0,0,0,3.23-1l1.27-2a4.41,4.41,0,0,1,3.46-1.8l2,.07a1.6,1.6,0,0,1,1.55,2.21l-3.94,12.26a1.54,1.54,0,0,0,1.55,2.13h11.62a2.2,2.2,0,0,0,2.2-2.24l-.21-11.42a2.18,2.18,0,0,1,2.2-2.22l8.18.07a2.36,2.36,0,0,0,2.35-2.22l.37-7.79a2,2,0,0,0-1.78-2.24,2.3,2.3,0,0,0-2.07,2.23l-.28,3.5a2.44,2.44,0,0,1-2.42,2.21Z"/><line class="cls-14" x1="348.78" y1="184.3" x2="333.57" y2="197.88"/><rect class="cls-15" x="331.05" y="195.47" width="7.71" height="4.22"/><path class="cls-1" d="M230.71,367.51l-26.17-6.91a3.83,3.83,0,0,1-.8-7.09l.53-.28a1.24,1.24,0,0,0-.27-2.3l-39.34-10.45a7.34,7.34,0,0,0-5.2.62L153,344.5a9,9,0,0,1-6.57.77l-21.19-5.59a15.5,15.5,0,0,0-11,1.31L94.95,351.15a2.62,2.62,0,0,0,.58,4.86L201,383.84a15.5,15.5,0,0,0,11-1.31l19.34-10.16A2.62,2.62,0,0,0,230.71,367.51Z"/><path class="cls-13" d="M163.89,317a5.06,5.06,0,0,0-4.93,4.6l-1.62,21.92a4.21,4.21,0,0,0,4.26,4.58h7.94a5,5,0,0,0,5-4.18,3.8,3.8,0,0,0-3.95-4.18,4.18,4.18,0,0,1-4.1-4.59l.33-5.3a5,5,0,0,1,4.88-4.59h9a4.12,4.12,0,0,1,4.17,4.57l-1.83,20a4.12,4.12,0,0,0,4.17,4.57H194a5,5,0,0,0,5-4.19,3.57,3.57,0,0,0-3.36-4.19c-2.08,0-3.59-2.06-3.36-4.57l1.83-20a4.11,4.11,0,0,0-4.17-4.56Z"/><path class="cls-5" d="M206.18,351.8,99.26,324.88a4.16,4.16,0,0,1-.92-7.72L116,307.87a4.16,4.16,0,0,1,3-.35L225.9,334.44a4.16,4.16,0,0,1,.92,7.72l-17.69,9.29A4.16,4.16,0,0,1,206.18,351.8Z"/><line class="cls-16" x1="205.99" y1="347.53" x2="201.11" y2="379.15"/><line class="cls-16" x1="217.79" y1="341.72" x2="224.02" y2="366.33"/><line class="cls-16" x1="107.92" y1="322.58" x2="103.04" y2="354.2"/><line class="cls-16" x1="119.72" y1="316.77" x2="126.43" y2="343.26"/><line class="cls-16" x1="205.08" y1="368.05" x2="220.81" y2="360.1"/><line class="cls-16" x1="107.35" y1="343" x2="123.08" y2="335.05"/><path class="cls-13" d="M168.81,285.07a7.1,7.1,0,0,1,5.4,5.17l4.71,22.83a4.19,4.19,0,0,0,5.29,3.23l5.82-1.62a3.12,3.12,0,0,1,4.19,3.32l-.05,1.33A8.68,8.68,0,0,1,190,326l-9.89,5.14a15.72,15.72,0,0,1-8.5,1.31l-9.27-1.62a7.14,7.14,0,0,1-5.35-5.24l-3.22-16.3c-.48-2.45-1.44-2.49-2.11-.08l-3.87,13.7a5.11,5.11,0,0,1-5.7,3.56l-.36-.07a4.19,4.19,0,0,1-3.35-5.21l8.87-35a5.07,5.07,0,0,1,5.6-3.68Z"/><path class="cls-13" d="M161.66,259.9c1.6-2.44,4-2.3,5.29.3l7.27,14.37c1.31,2.6,0,4.37-2.85,3.94l-14.71-2.2c-2.88-.43-3.93-2.78-2.33-5.21Z"/><path class="cls-1" d="M426.42,365.37l-19.34-10.16a15.5,15.5,0,0,0-11-1.31l-3.24.85-8.57-4.5a11.28,11.28,0,0,0-8-1l-76.76,20.26a1.91,1.91,0,0,0-.42,3.54l8.11,4.26-16.55,4.37a2.62,2.62,0,0,0-.58,4.86l19.34,10.16a15.5,15.5,0,0,0,11,1.31l105.43-27.83A2.62,2.62,0,0,0,426.42,365.37Z"/><path class="cls-13" d="M381.4,326.68a4.53,4.53,0,0,1,4.1,4.52l-.3,17.68a4.28,4.28,0,0,1-4.26,4.18h-8.09a4.54,4.54,0,0,1-4.6-3.61c-.23-2,1.46-3.61,3.76-3.61h2.06a4.11,4.11,0,0,0,4.11-4.18l-.06-3.34a4.29,4.29,0,0,0-4.26-4.18h-9.1a4.21,4.21,0,0,0-4.2,4.18l-.06,19.6a4.21,4.21,0,0,1-4.2,4.18h-6.95a4.51,4.51,0,0,1-4.58-3.62,3.19,3.19,0,0,1,3.23-3.62,4,4,0,0,0,3.65-4.18l.1-22.18a3.83,3.83,0,0,1,4.19-3.85Z"/><path class="cls-13" d="M336.95,335.12c2.53,0,3.17,1.52,1.43,3.35l-1.51,1.59a12.27,12.27,0,0,1-7.75,3.33h-9A4.12,4.12,0,0,0,316,348l1.83,20a4.12,4.12,0,0,1-4.17,4.57h-6.75a5,5,0,0,1-5-4.19,3.57,3.57,0,0,1,3.36-4.19c2.08,0,3.59-2.06,3.36-4.57l-1.83-20a4.11,4.11,0,0,1,4.17-4.56Z"/><path class="cls-5" d="M315.19,366l106.92-26.92a4.16,4.16,0,0,0,.92-7.72l-17.69-9.29a4.16,4.16,0,0,0-3-.35L295.47,348.66a4.16,4.16,0,0,0-.92,7.72l17.69,9.29A4.16,4.16,0,0,0,315.19,366Z"/><line class="cls-16" x1="315.38" y1="361.76" x2="320.26" y2="393.38"/><line class="cls-16" x1="303.57" y1="355.94" x2="297.35" y2="380.56"/><line class="cls-16" x1="413.44" y1="336.8" x2="418.32" y2="368.42"/><line class="cls-16" x1="401.64" y1="330.99" x2="394.94" y2="357.48"/><line class="cls-16" x1="316.28" y1="382.27" x2="300.55" y2="374.33"/><line class="cls-16" x1="414.02" y1="357.22" x2="398.29" y2="349.28"/><path class="cls-13" d="M328.86,311.57a6.71,6.71,0,0,0-5.13,5.27l-2.08,14.25a3.9,3.9,0,0,1-5,3.27l-5.82-1.62a3.12,3.12,0,0,0-4.19,3.32l.05,1.33a8.68,8.68,0,0,0,4.21,6.63l9.89,5.14a15.72,15.72,0,0,0,8.5,1.31l12.59-2.2a5.63,5.63,0,0,0,4.49-5.32l.08-29.93a3.68,3.68,0,0,0-4.46-3.76Z"/><path class="cls-13" d="M334.93,287.38c-1.54-2.47-3.86-2.36-5.15.25L322.66,302c-1.29,2.61,0,4.33,2.86,3.83l13.66-2.4c2.87-.5,4-2.94,2.41-5.41Z"/><path class="cls-13" d="M368,304.77a4.64,4.64,0,0,0-3.9,5.17l1.53,11.61a3.36,3.36,0,0,1-3.92,4l-5.41-.65c-2.48-.3-4.53,1.21-4.55,3.35s1.87,4.61,4.22,5.48l9.34,3.48a19.82,19.82,0,0,0,8.73.8l16.26-2.85a3.47,3.47,0,0,0,2.71-5l-6.48-15.37a3.6,3.6,0,0,1,2.68-5.11l5.78-1.2a4.56,4.56,0,0,0,3.52-5.37l-2.88-13.87c-.51-2.45-2.61-4.16-4.67-3.82s-3.39,2.64-3,5.1l1.13,6.56a4.42,4.42,0,0,1-3.72,5.14Z"/><path class="cls-13" d="M374.49,283.69c-1.54-2.47-3.86-2.36-5.15.25l-7.13,14.39c-1.29,2.61,0,4.33,2.86,3.83l13.66-2.4c2.87-.5,4-2.94,2.41-5.41Z"/><line class="cls-17" x1="117.87" y1="370.58" x2="16.85" y2="343.79"/><path class="cls-18" d="M74.79,265.25l8.3,2.21a33.66,33.66,0,0,1,5.73,19.46c-.08,11.92-16.09-14.64-16.09-14.64l-10.12-2.69"/><path class="cls-19" d="M2.53,315.61c-.09,13.18,9.67,26.48,21.8,29.71s22-4.84,22.11-18-9.67-26.48-21.8-29.71S2.62,302.43,2.53,315.61Z"/><line class="cls-18" x1="90.15" y1="303.17" x2="46.02" y2="291.42"/><line class="cls-18" x1="42.5" y1="281.57" x2="59.76" y2="330.84"/><line class="cls-18" x1="49.25" y1="283.13" x2="36.17" y2="279.65"/><polyline class="cls-18" points="90.16 303.17 59.76 330.84 24.49 321.45 46.02 291.42"/><line class="cls-18" x1="42.27" y1="296.66" x2="9.92" y2="288.05"/><polyline class="cls-18" points="61.34 319.88 71.78 322.66 50.62 337.49 59.9 339.96"/><path class="cls-19" d="M81,336.5c-.09,13.18,9.67,26.48,21.8,29.71s22-4.84,22.11-18-9.67-26.48-21.8-29.71S81.1,323.32,81,336.5Z"/><path class="cls-18" d="M87.08,290.72l11,44.56s1.91,6.14,6.32,9.61"/><line class="cls-18" x1="24.49" y1="321.45" x2="9.38" y2="352.25"/></g></g></svg>