<svg xmlns="http://www.w3.org/2000/svg" viewBox="0 0 579.56 419.97"><defs><style>.cls-1{fill:#004864;}.cls-14,.cls-2,.cls-3,.cls-7,.cls-9{fill:none;}.cls-2,.cls-3{stroke:#00364b;}.cls-14,.cls-2,.cls-3,.cls-7{stroke-linecap:round;}.cls-14,.cls-2,.cls-7{stroke-linejoin:round;stroke-width:7.25px;}.cls-3,.cls-9{stroke-miterlimit:10;}.cls-3{stroke-width:8.86px;}.cls-4{fill:#006261;}.cls-5{fill:#004e63;}.cls-6{fill:#005563;}.cls-7{stroke:#a4cb35;}.cls-8{fill:#00364b;}.cls-14,.cls-9{stroke:#006261;}.cls-9{stroke-linecap:square;stroke-width:16px;}.cls-10{fill:#ff9947;}.cls-11{fill:#bf8b4e;}.cls-12{fill:#807d54;}.cls-13{fill:#406f5b;}</style></defs><title>資產 9</title><g id="圖層_2" data-name="圖層 2"><g id="圖層_2-2" data-name="圖層 2"><path class="cls-1" d="M316,100.67l-44.15,75.55a24.07,24.07,0,0,0,20.78,36.22h91.68a24.07,24.07,0,0,0,20.37-36.89L357.2,100A24.07,24.07,0,0,0,316,100.67Z"/><path class="cls-1" d="M318.87,61.69l-38.59,66a21,21,0,0,0,18.17,31.66h80.14a21,21,0,0,0,17.81-32.24l-41.55-66A21,21,0,0,0,318.87,61.69Z"/><path class="cls-1" d="M322.38,33.36,290.69,87.59a17.28,17.28,0,0,0,14.92,26h65.81a17.28,17.28,0,0,0,14.63-26.48L351.93,32.88A17.28,17.28,0,0,0,322.38,33.36Z"/><path class="cls-1" d="M325.36,7,299.51,51.21a14.09,14.09,0,0,0,12.17,21.2h53.68a14.09,14.09,0,0,0,11.93-21.6L349.46,6.59A14.09,14.09,0,0,0,325.36,7Z"/><line class="cls-2" x1="335.83" y1="196.66" x2="306.47" y2="163.55"/><line class="cls-2" x1="338.52" y1="209.45" x2="371.11" y2="176.85"/><line class="cls-3" x1="338.52" y1="287.5" x2="338.52" y2="45.41"/><line class="cls-2" x1="335.83" y1="144.58" x2="315.97" y2="120.1"/><line class="cls-2" x1="338.74" y1="163.97" x2="364.75" y2="137.96"/><line class="cls-2" x1="335.83" y1="98.5" x2="321.86" y2="81.28"/><line class="cls-2" x1="338.52" y1="119.84" x2="355.74" y2="102.62"/><line class="cls-2" x1="335.83" y1="66.93" x2="324.11" y2="52.48"/><line class="cls-2" x1="338.52" y1="79.69" x2="352.34" y2="65.87"/><path class="cls-4" d="M288,307C130.95,307,0,344.27,0,385.32,0,411.77,33.86,420,81.11,420,182,420,180.35,400.8,289,400.8S425,420,508.69,420c31.54,0,70.87-4.53,70.87-30C579.56,351.13,445.06,307,288,307Z"/><path class="cls-5" d="M403.07,162.2l-44.15,75.55A24.07,24.07,0,0,0,379.7,274h91.68a24.07,24.07,0,0,0,20.37-36.89l-47.53-75.55A24.07,24.07,0,0,0,403.07,162.2Z"/><path class="cls-5" d="M405.9,123.22l-38.59,66a21,21,0,0,0,18.17,31.66h80.14a21,21,0,0,0,17.81-32.24l-41.55-66A21,21,0,0,0,405.9,123.22Z"/><path class="cls-5" d="M409.41,94.89l-31.69,54.23a17.28,17.28,0,0,0,14.92,26h65.81a17.28,17.28,0,0,0,14.63-26.48L439,94.4A17.28,17.28,0,0,0,409.41,94.89Z"/><line class="cls-2" x1="422.86" y1="258.18" x2="393.5" y2="225.07"/><line class="cls-2" x1="425.55" y1="270.97" x2="458.14" y2="238.38"/><line class="cls-3" x1="425.55" y1="339.03" x2="425.55" y2="128.06"/><line class="cls-2" x1="422.86" y1="206.11" x2="403" y2="181.63"/><line class="cls-2" x1="425.77" y1="225.49" x2="451.78" y2="199.48"/><line class="cls-2" x1="422.86" y1="160.03" x2="408.89" y2="142.8"/><line class="cls-2" x1="425.55" y1="181.37" x2="442.77" y2="164.14"/><path class="cls-6" d="M483.68,231l-44.15,75.55a24.07,24.07,0,0,0,20.78,36.22H552a24.07,24.07,0,0,0,20.37-36.89l-47.53-75.55A24.07,24.07,0,0,0,483.68,231Z"/><path class="cls-6" d="M486.51,192l-38.59,66a21,21,0,0,0,18.17,31.66h80.14A21,21,0,0,0,564,257.43l-41.55-66A21,21,0,0,0,486.51,192Z"/><line class="cls-2" x1="503.47" y1="319.43" x2="474.11" y2="286.32"/><line class="cls-2" x1="506.16" y1="332.22" x2="538.75" y2="299.63"/><line class="cls-3" x1="506.16" y1="406.48" x2="506.16" y2="228.16"/><line class="cls-2" x1="503.47" y1="264.11" x2="486.52" y2="243.22"/><line class="cls-2" x1="506.38" y1="284.02" x2="532.39" y2="258.01"/><path class="cls-1" d="M268.65,100.67l44.15,75.55A24.07,24.07,0,0,1,292,212.44H200.33A24.07,24.07,0,0,1,180,175.55L227.49,100A24.07,24.07,0,0,1,268.65,100.67Z"/><path class="cls-1" d="M265.82,61.69l38.59,66a21,21,0,0,1-18.17,31.66H206.11a21,21,0,0,1-17.81-32.24l41.55-66A21,21,0,0,1,265.82,61.69Z"/><path class="cls-1" d="M262.31,33.36,294,87.59a17.28,17.28,0,0,1-14.92,26H213.27a17.28,17.28,0,0,1-14.63-26.48l34.12-54.23A17.28,17.28,0,0,1,262.31,33.36Z"/><path class="cls-1" d="M259.33,7l25.85,44.23A14.09,14.09,0,0,1,273,72.42H219.34a14.09,14.09,0,0,1-11.93-21.6L235.24,6.59A14.09,14.09,0,0,1,259.33,7Z"/><line class="cls-2" x1="248.86" y1="196.66" x2="278.22" y2="163.55"/><line class="cls-2" x1="246.18" y1="209.45" x2="213.58" y2="176.85"/><line class="cls-3" x1="246.18" y1="287.5" x2="246.18" y2="45.41"/><line class="cls-2" x1="248.86" y1="144.58" x2="268.72" y2="120.1"/><line class="cls-2" x1="245.95" y1="163.97" x2="219.94" y2="137.96"/><line class="cls-2" x1="248.86" y1="98.5" x2="262.83" y2="81.28"/><line class="cls-2" x1="246.18" y1="119.84" x2="228.95" y2="102.62"/><line class="cls-2" x1="248.86" y1="66.93" x2="260.58" y2="52.48"/><line class="cls-2" x1="246.18" y1="79.69" x2="232.36" y2="65.87"/><path class="cls-5" d="M180,156.68l44.15,75.55a24.07,24.07,0,0,1-20.78,36.22H111.67a24.07,24.07,0,0,1-20.37-36.89L138.83,156A24.07,24.07,0,0,1,180,156.68Z"/><path class="cls-5" d="M177.15,117.7l38.59,66a21,21,0,0,1-18.17,31.66H117.44a21,21,0,0,1-17.81-32.24l41.55-66A21,21,0,0,1,177.15,117.7Z"/><path class="cls-5" d="M173.64,89.37l31.69,54.23a17.28,17.28,0,0,1-14.92,26H124.6A17.28,17.28,0,0,1,110,143.12L144.1,88.89A17.28,17.28,0,0,1,173.64,89.37Z"/><line class="cls-2" x1="160.19" y1="252.66" x2="189.56" y2="219.55"/><line class="cls-2" x1="157.51" y1="265.45" x2="124.91" y2="232.86"/><line class="cls-3" x1="157.51" y1="348.44" x2="157.51" y2="122.55"/><line class="cls-2" x1="160.19" y1="200.59" x2="180.05" y2="176.11"/><line class="cls-2" x1="157.28" y1="219.97" x2="131.27" y2="193.96"/><line class="cls-2" x1="160.19" y1="154.51" x2="174.17" y2="137.28"/><line class="cls-2" x1="157.51" y1="175.85" x2="140.28" y2="158.62"/><path class="cls-6" d="M97.43,223.87l44.15,75.55a24.07,24.07,0,0,1-20.78,36.22H29.11A24.07,24.07,0,0,1,8.74,298.75L56.27,223.2A24.07,24.07,0,0,1,97.43,223.87Z"/><path class="cls-6" d="M94.6,184.89l38.59,66A21,21,0,0,1,115,282.58H34.88a21,21,0,0,1-17.81-32.24l41.55-66A21,21,0,0,1,94.6,184.89Z"/><line class="cls-2" x1="77.64" y1="312.35" x2="107" y2="279.23"/><line class="cls-2" x1="74.95" y1="325.13" x2="42.36" y2="292.54"/><line class="cls-3" x1="74.95" y1="400.8" x2="74.95" y2="221.07"/><line class="cls-2" x1="77.64" y1="257.02" x2="94.59" y2="236.13"/><line class="cls-2" x1="74.73" y1="276.93" x2="48.72" y2="250.92"/><path class="cls-7" d="M409,208.83V216s1.3,16.32-12.76,16.32"/><polyline class="cls-7" points="405.62 194.12 408.98 208.83 417.04 201.48"/><path class="cls-7" d="M254.19,114.79v70s-1.3,16.32,12.76,16.32"/><polyline class="cls-7" points="254.16 92.37 254.19 114.79 244.62 100.08"/><line class="cls-7" x1="254.07" y1="144.89" x2="244.05" y2="130.65"/><line class="cls-7" x1="254.16" y1="117.68" x2="265.5" y2="105.55"/><path class="cls-7" d="M376.57,151.61V193s1.3,16.32-12.76,16.32"/><polyline class="cls-7" points="385.52 137.64 376.57 151.61 367.78 135.86"/><line class="cls-7" x1="364.54" y1="149.88" x2="376.57" y2="151.61"/><path class="cls-8" d="M451.63,343.69,408.5,333.59c-6.91-1.62-11.58-6.25-11.58-11.47V228.53H178.82v93.79c0,5.18-4.6,9.78-11.42,11.44l-41.1,10c-1.85.45-3.07,1.71-3,3.11s1.38,2.61,3.26,3l37.32,7.35c5.8,1.14,8.65,5.85,5.86,9.68l-14.27,19.62a2.5,2.5,0,0,0,.52,3.51,5.27,5.27,0,0,0,3.41,1.15,6,6,0,0,0,1.3-.14l58-12.78a334.12,334.12,0,0,1,142.08-.05l60.83,13.36a6.05,6.05,0,0,0,1.29.14,4.69,4.69,0,0,0,4.12-2,2.53,2.53,0,0,0-.55-3.07l-18.25-19.09c-3.69-3.86-1-9.19,5.34-10.39l37.69-7.24a4.18,4.18,0,0,0,3.32-2.34C455.12,345.82,453.79,344.19,451.63,343.69Z"/><line class="cls-9" x1="216.37" y1="346.95" x2="226.9" y2="346.77"/><ellipse class="cls-10" cx="288.23" cy="228.53" rx="109.4" ry="33.12"/><ellipse class="cls-11" cx="276.96" cy="227.66" rx="92.41" ry="27.98"/><ellipse class="cls-12" cx="265.7" cy="226.8" rx="75.42" ry="22.83"/><ellipse class="cls-13" cx="254.44" cy="225.94" rx="58.43" ry="17.69"/><ellipse class="cls-4" cx="243.18" cy="225.07" rx="41.44" ry="12.54"/><path class="cls-10" d="M320.7,291c-2.73-1.76-2.66-4.51.16-6.12l13-7.41c2.82-1.61,5.1-.27,5.06,3l-.16,16.22c0,3.24-2.29,4.46-5,2.71Z"/><path class="cls-10" d="M348.63,290.53a4.33,4.33,0,0,0-4.32,4.32v5.21a5.74,5.74,0,0,1-4.2,5.31l-8.92,2.11a44.68,44.68,0,0,1-8.52,1H319.2a4.26,4.26,0,0,0-4.32,4.17,4.32,4.32,0,0,0,4.32,4.22l5.33.06A42.35,42.35,0,0,0,333,316l7.06-1.67a3.26,3.26,0,0,1,4.2,3.32v10.6a4.33,4.33,0,0,1-4.32,4.32h-.26a4.33,4.33,0,0,0-4.32,4.32v34.82a4.19,4.19,0,0,1-4,4.32,4.19,4.19,0,0,0-4,4.32v.3a4.33,4.33,0,0,0,4.32,4.32H340a4.33,4.33,0,0,0,4.32-4.32V346.32a4.33,4.33,0,0,1,4.32-4.32h11a4.33,4.33,0,0,1,4.32,4.32v25.36a4.19,4.19,0,0,1-4,4.32,4.19,4.19,0,0,0-4,4.32v.3a4.33,4.33,0,0,0,4.32,4.32h8.34a4.33,4.33,0,0,0,4.32-4.32V336.1a31.82,31.82,0,0,0-1.37-8.41l-7.86-23.46a5,5,0,0,1,2.53-5.95l7.52-3.57a10.52,10.52,0,0,0,5-6l2.65-10.26c.59-2.3-.49-4.66-2.42-5.24s-4.13.78-4.9,3l-2.26,6.58a12,12,0,0,1-4.89,5.91,20,20,0,0,1-7.81,1.83Z"/><path class="cls-10" d="M241.6,283.69c-1.76-2.73-4.51-2.66-6.12.16l-7.41,13c-1.61,2.82-.27,5.1,3,5.06l16.22-.16c3.24,0,4.46-2.29,2.71-5Z"/><path class="cls-10" d="M241.36,307.85a51.25,51.25,0,0,1,8.55.87l8.86,1.82a51.25,51.25,0,0,0,8.55.87h8.25a4.26,4.26,0,0,1,4.32,4.17,4.3,4.3,0,0,1-4.32,4.21l-10.1.09a58,58,0,0,1-8.57-.7l-7-1.2a3.52,3.52,0,0,0-4.25,3.58v24a4.33,4.33,0,0,0,4.32,4.32h5.44a4.33,4.33,0,0,1,4.32,4.32v16.25a4.19,4.19,0,0,0,4,4.32,4.19,4.19,0,0,1,4,4.32v.3a4.33,4.33,0,0,1-4.32,4.32h-8.34a4.33,4.33,0,0,1-4.32-4.32V363.63a4.33,4.33,0,0,0-4.32-4.32H231.1a4.49,4.49,0,0,0-4.44,4.32l-.5,16.78a5.58,5.58,0,0,1-4.38,5.09l-24.5,4.44a4.28,4.28,0,0,1-5-3.49l-.17-1a4.42,4.42,0,0,1,3.51-5.05l17.21-3.24A5.43,5.43,0,0,0,217.1,372V353.41a31.82,31.82,0,0,1,1.37-8.41l7.86-23.46a5,5,0,0,0-2.53-5.95L216.28,312a10.52,10.52,0,0,1-5-6l-2.65-10.26c-.59-2.3.49-4.66,2.42-5.24s4.13.78,4.9,3l2.26,6.58a12,12,0,0,0,4.89,5.91,20,20,0,0,0,7.81,1.83Z"/><path class="cls-7" d="M175.64,197.76v41.83s-1.3,16.32,12.76,16.32"/><polyline class="cls-7" points="182.03 191.83 175.64 197.9 169.42 188.35"/><line class="cls-7" x1="175.64" y1="212.64" x2="185.55" y2="203.2"/><line class="cls-14" x1="359.38" y1="290.53" x2="345.33" y2="334.79"/><line class="cls-9" x1="352.05" y1="338.15" x2="341.52" y2="337.96"/><line class="cls-14" x1="245.68" y1="307.85" x2="214.63" y2="344.65"/></g></g></svg>