<svg xmlns="http://www.w3.org/2000/svg" xmlns:xlink="http://www.w3.org/1999/xlink" viewBox="0 0 473.06 327.29"><defs><style>.cls-1{fill:#fff;}.cls-12,.cls-13,.cls-14,.cls-15,.cls-16,.cls-2,.cls-3,.cls-4,.cls-8{fill:none;stroke-linecap:round;stroke-miterlimit:10;}.cls-2{stroke:#000;stroke-width:7.63px;}.cls-14,.cls-3{stroke:#ff665c;}.cls-3{stroke-width:14px;}.cls-4{stroke:#006261;}.cls-4,.cls-8{stroke-width:9px;}.cls-5{fill:#006261;}.cls-6{fill:#ff9947;}.cls-7{fill:#17bbef;}.cls-13,.cls-15,.cls-8{stroke:#17bbef;}.cls-9{mask:url(#mask);}.cls-10{fill:#00364b;}.cls-11{fill:#e0e0e0;}.cls-12{stroke:#e0e0e0;stroke-width:3px;}.cls-13{stroke-width:6px;stroke-dasharray:102 11;}.cls-14{stroke-width:8px;}.cls-15,.cls-16{stroke-width:2.15px;}.cls-16{stroke:#ff9947;}</style><mask id="mask" x="33.01" y="-14.48" width="294.9" height="328.72" maskUnits="userSpaceOnUse"><rect class="cls-1" x="33.01" y="-6.32" width="294.9" height="320.56"/><line class="cls-2" x1="206.86" y1="-10.66" x2="206.86" y2="6.24"/></mask></defs><title>資產 1</title><g id="圖層_2" data-name="圖層 2"><g id="圖層_2-2" data-name="圖層 2"><path class="cls-3" d="M305.49,137.19c-1-11.17-13.14-16.6-13.14-16.6"/><path class="cls-4" d="M312.2,302.34s66.9,16.72,116.24-18.72"/><ellipse class="cls-5" cx="415.24" cy="280.97" rx="50.57" ry="11.32"/><path class="cls-6" d="M390.68,162.14c1.52-2,3.62-1.78,4.67.51l6.06,13.26c1,2.29-.16,4.17-2.68,4.17h-17c-2.52,0-3.34-1.64-1.82-3.65Z"/><path class="cls-6" d="M424.89,202.6a4.29,4.29,0,0,0,5.27-3,4.52,4.52,0,0,0-3-5.4l-21.26-6.48a34.89,34.89,0,0,0-8.45-1.26H371.66a5.7,5.7,0,0,0-5.29,4.21l-6.22,27.11a4.52,4.52,0,0,0,3.21,5.33l.78.21a4.15,4.15,0,0,0,5.14-3.09l5-21.56c.53-2.32,2.29-4.2,3.9-4.18s2.49,1.93,2,4.24l-6,25.93a45.68,45.68,0,0,0-1,8.53V276.3a4.33,4.33,0,0,0,4.32,4.32h8.35a4.33,4.33,0,0,0,4.32-4.32V276a4.19,4.19,0,0,0-4-4.32,4.19,4.19,0,0,1-4-4.32V239.51a4.33,4.33,0,0,1,4.32-4.32h11a4.33,4.33,0,0,1,4.32,4.32V276.3a4.33,4.33,0,0,0,4.32,4.32h8.35a4.33,4.33,0,0,0,4.32-4.32V276a4.19,4.19,0,0,0-4-4.32,4.19,4.19,0,0,1-4-4.32V229.12a4.33,4.33,0,0,0-4.32-4.32h-.3a4.9,4.9,0,0,1-4.76-4.3l-2.12-20.69a2.77,2.77,0,0,1,3.73-3.17Z"/><path class="cls-7" d="M434,191.19a15.77,15.77,0,0,1-7.83-2.52l-13-9.3a4.56,4.56,0,0,0-6.17.88l-.34.43a4.08,4.08,0,0,0,.86,5.89l18.58,13.12c1.94,1.37,3.53,3.52,3.53,4.77s-1.94,2.28-4.32,2.28h-9.67a4.33,4.33,0,0,0-4.32,4.32v.3a4.33,4.33,0,0,0,4.32,4.32h9.67a4.34,4.34,0,0,1,4.33,4.32l.11,50.35a4.18,4.18,0,0,1-4,4.32,4.19,4.19,0,0,0-4,4.32v.3a4.33,4.33,0,0,0,4.32,4.32h8.35a4.33,4.33,0,0,0,4.32-4.32V239.17a4.33,4.33,0,0,1,4.32-4.32H445a4.32,4.32,0,0,1,4.31,4.32l-.07,22.22a4.32,4.32,0,0,0,4.31,4.33h7.61a4.34,4.34,0,0,1,4.32,4.33v1.1a3.81,3.81,0,1,0,7.56,0V260.92a4.33,4.33,0,0,0-4.32-4.32h-6.14a4.33,4.33,0,0,1-4.32-4.32V236.67a39.41,39.41,0,0,0-1.12-8.49l-8.83-32.82a6,6,0,0,0-5.44-4.17Z"/><path class="cls-7" d="M437.72,166.34c1.52-2,3.62-1.78,4.67.51l6.06,13.26c1,2.29-.16,4.17-2.68,4.17h-17c-2.52,0-3.34-1.64-1.82-3.65Z"/><ellipse class="cls-5" cx="182.33" cy="295.37" rx="182.33" ry="31.92"/><path class="cls-8" d="M181.16,65.74C209.1,48,250.24,108.52,282.64,161"/><path class="cls-6" d="M163.37,84.35a4.09,4.09,0,0,0,4.08-4.08V80a4.09,4.09,0,0,0-4.08-4.08h-9.65A3.64,3.64,0,0,1,150,71.85l0-.28a4.57,4.57,0,0,1,4.47-4l20.08.09a3.83,3.83,0,1,0,0-7.65H155.26c-2.24,0-3.95-1.38-3.78-3.06s-1.54-3.06-3.78-3.06h-9.88a5.57,5.57,0,0,0-5.11,3.95l-8.92,34.34A6.49,6.49,0,0,0,126,98.5l1,.76a8,8,0,0,1,2.9,6.47l-2.76,28.54a3.64,3.64,0,0,0,3.69,4.06H138a4.6,4.6,0,0,0,4.47-4.06l0-.32c.22-2.23-1.14-4.06-3-4.06s-3.23-1.83-3-4.06l1.94-20.1a4.6,4.6,0,0,1,4.47-4.06h1.91a3.64,3.64,0,0,1,3.69,4.06l-1.67,17.32a3.64,3.64,0,0,0,3.69,4.06h7.57a4.6,4.6,0,0,0,4.47-4.06l0-.32a3.47,3.47,0,0,0-3.25-4.06,3.47,3.47,0,0,1-3.25-4.06l.86-8.88.42-4.32.41-4.22a3.6,3.6,0,0,0-3.7-4h-2a3.64,3.64,0,0,1-3.69-4.06l.07-.76a4.6,4.6,0,0,1,4.47-4.06Z"/><g class="cls-9"><path class="cls-10" d="M296.08,65.19A15.05,15.05,0,0,1,283.66,50.8v-.51c0-6.9-4.78-13.25-10.61-14.12S262.45,29,262.45,22.06V14.5A15,15,0,0,0,250.16.13a10.48,10.48,0,0,0-12.3,10.72v7.56c0,6.9-4.08,11.94-9.06,11.2s-9.06-6.62-9.06-13.07S214.15,4,207.33,3l-.62-.09a10.53,10.53,0,0,0-12.41,10.7v75.7a12.58,12.58,0,0,1-12.54,12.54h-98A12.58,12.58,0,0,1,71.25,89.27V56A12.58,12.58,0,0,0,58.71,43.41h-.35A12.58,12.58,0,0,0,45.82,56V295.89a12.58,12.58,0,0,0,12.54,12.54H81.62a12.58,12.58,0,0,0,12.54-12.54v-.35c0-6.9-5.15-12.54-11.45-12.54s-11.45-5.64-11.45-12.54V216.32c0-6.9,5-12.54,11.22-12.54s11.22,5.64,11.22,12.54v59a12.58,12.58,0,0,0,12.54,12.54h23.25A12.58,12.58,0,0,0,142,275.3V275c0-6.9-5.15-12.54-11.45-12.54s-11.45-5.64-11.45-12.54V216.32a12.58,12.58,0,0,1,12.54-12.54h34.58a12.58,12.58,0,0,1,12.54,12.54v79.57a12.58,12.58,0,0,0,12.54,12.54h23.25a12.58,12.58,0,0,0,12.54-12.54v-.35c0-6.9-5.15-12.54-11.45-12.54s-11.45-5.64-11.45-12.54V216.32c0-6.9,4.89-12.54,10.86-12.54s10.91,5.64,11,12.54l.48,59a12.7,12.7,0,0,0,12.65,12.54h23.25A12.58,12.58,0,0,0,275,275.3V275c0-6.9-5.15-12.54-11.45-12.54s-11.45-5.64-11.45-12.54V195.74c0-6.9,4-12.54,8.9-12.54s8.9-5.64,8.9-12.54V137.82a12.35,12.35,0,0,1,12.54-12.35l23.44.36a12.35,12.35,0,0,0,12.54-12.35V81A15,15,0,0,0,306,66.66Z"/></g><path class="cls-6" d="M130.38,101.67l-3.15,32.6a3.64,3.64,0,0,0,3.69,4.06H138a4.6,4.6,0,0,0,4.47-4.06l0-.32c.22-2.23-1.14-4.06-3-4.06s-3.23-1.83-3-4.06l2.33-24.16"/><path class="cls-6" d="M140.37,31.19c1.67-2.65,4.33-2.61,5.91.1l7.29,12.47c1.58,2.71.31,4.92-2.83,4.92H135.06c-3.14,0-4.34-2.17-2.67-4.83Z"/><path class="cls-8" d="M273.23,171.44c-71-9.5-115-72.25-105.78-87.09"/><path class="cls-6" d="M262.23,183.33c-1.67-2.65-4.33-2.61-5.91.1L249,195.9c-1.58,2.71-.31,4.92,2.83,4.92h15.68c3.14,0,4.34-2.17,2.67-4.83Z"/><path class="cls-6" d="M278.93,207.2a4.19,4.19,0,0,0,4.17-4.17V191.28a4.13,4.13,0,1,1,8.25,0v20.38a4.19,4.19,0,0,1-4.17,4.17h-8.67a4.19,4.19,0,0,0-4.17,4.17v23.3a4.06,4.06,0,0,0,3.9,4.17,4.06,4.06,0,0,1,3.9,4.17V287a4,4,0,0,0,3.89,4.17,4,4,0,0,1,3.89,4.17v.29a4.19,4.19,0,0,1-4.17,4.17h-8.06a4.19,4.19,0,0,1-4.17-4.17V260.28a4.19,4.19,0,0,0-4.17-4.17h-9.81a4.19,4.19,0,0,0-4.17,4.17V287a4,4,0,0,0,3.89,4.17,4,4,0,0,1,3.89,4.17v.29a4.19,4.19,0,0,1-4.17,4.17h-8.06a4.19,4.19,0,0,1-4.17-4.17V222.28a4.19,4.19,0,0,0-4.17-4.17h0a4.19,4.19,0,0,0-4.17,4.17v9.15a4.19,4.19,0,0,1-4.17,4.17h-.1a4.19,4.19,0,0,1-4.17-4.17V211.37a4.19,4.19,0,0,1,4.17-4.17Z"/><circle class="cls-11" cx="284.5" cy="180.39" r="10.42"/><path class="cls-12" d="M273.23,171.44c.29,0,4.46,1.31,7.42-1.23a5.33,5.33,0,0,0,1.75-5.75"/><circle class="cls-12" cx="169.98" cy="106.35" r="3.75"/><path class="cls-13" d="M166.59,111.54S142,223.67,272.3,247.48c121.36,22.18,145.61-35.62,145.61-35.62"/><polyline class="cls-14" points="434.46 144.69 440.15 150.81 445.49 145.07"/><rect class="cls-7" x="360.99" y="196.06" width="31.76" height="22.64" rx="1.66" ry="1.66" transform="translate(7.87 -13.69) rotate(2.1)"/><rect class="cls-11" x="358.89" y="198.16" width="31.76" height="22.64" transform="translate(7.94 -13.62) rotate(2.1)"/><line class="cls-15" x1="386.3" y1="201.82" x2="386.4" y2="211.56"/><line class="cls-15" x1="386.3" y1="216.33" x2="386.32" y2="217.38"/><line class="cls-15" x1="381.7" y1="216.33" x2="381.72" y2="217.38"/><line class="cls-15" x1="381.55" y1="201.72" x2="381.65" y2="211.46"/><line class="cls-15" x1="376.04" y1="216.33" x2="376.06" y2="217.38"/><line class="cls-15" x1="375.88" y1="201.72" x2="375.98" y2="211.46"/><line class="cls-16" x1="390.81" y1="205.38" x2="390.52" y2="213.21"/><path class="cls-6" d="M396.24,186.44H371.66a5.7,5.7,0,0,0-5.29,4.21l-6.22,27.11a4.52,4.52,0,0,0,3.21,5.33l.78.21a4.15,4.15,0,0,0,5.14-3.09l5-21.56c.53-2.32,2.29-4.19,3.9-4.17l2.93,0"/></g></g></svg>