<svg xmlns="http://www.w3.org/2000/svg" xmlns:xlink="http://www.w3.org/1999/xlink" viewBox="0 0 435.71 446.75"><defs><style>.cls-1{fill:#fff;}.cls-2{fill:#ff665c;}.cls-18,.cls-21,.cls-3,.cls-4{fill:none;stroke-linecap:round;}.cls-3,.cls-4{stroke:#00364b;stroke-width:5.49px;}.cls-3{stroke-linejoin:round;}.cls-18,.cls-21,.cls-4{stroke-miterlimit:10;}.cls-5{mask:url(#mask);}.cls-6{fill:#3c9195;}.cls-7{fill:#36888e;}.cls-8{fill:#307f86;}.cls-9{fill:#2a767f;}.cls-10{fill:#246d77;}.cls-11{fill:#1e6470;}.cls-12{fill:#185a69;}.cls-13{fill:#125161;}.cls-14{fill:#0c485a;}.cls-15{fill:#063f52;}.cls-16{fill:#00364b;}.cls-17{fill:#8fd0db;}.cls-18{stroke:#8fd0db;stroke-width:4px;}.cls-19{fill:#ff9947;}.cls-20{fill:#50adc0;}.cls-21{stroke:#50adc0;stroke-width:9px;}</style><mask id="mask" x="9.87" y="0" width="411.67" height="446.75" maskUnits="userSpaceOnUse"><g transform="translate(0 0)"><path class="cls-1" d="M281.51,111.47H258.24a54.19,54.19,0,1,0-101.65,26.15l-8.74,35.77v39.22a54.13,54.13,0,0,1-35.65,50.87h0A54.13,54.13,0,0,0,80.52,294s-26.58,41.38-58.25,50.12,29.79,66.92,49,71.4c30.21,7.07,97.24,22.5,154.14,22.5,90.66,0,113.6-19.19,133.18-28.74,9.72-4.74,62.12-14.6,62.28-25.42.28-18.73-59.56-52-59-116.18.57-61.18-13.41-110.8-34.11-135A60.89,60.89,0,0,0,281.51,111.47Z"/></g></mask></defs><title>資產 5</title><g id="圖層_2" data-name="圖層 2"><g id="圖層_2-2" data-name="圖層 2"><path class="cls-2" d="M270.08,19.81l27.44,47A15,15,0,0,1,284.6,89.27h-57A15,15,0,0,1,215,66.34l29.54-47A15,15,0,0,1,270.08,19.81Z" transform="translate(0 0)"/><path class="cls-2" d="M216.42,33.4l15.42,26.38a8.4,8.4,0,0,1-7.26,12.65h-32a8.4,8.4,0,0,1-7.11-12.88l16.6-26.38A8.4,8.4,0,0,1,216.42,33.4Z" transform="translate(0 0)"/><polyline class="cls-3" points="256.11 113.58 256.11 74.55 271.16 56"/><line class="cls-4" x1="256.11" y1="74.55" x2="240.97" y2="59.4"/><line class="cls-4" x1="256.11" y1="75.66" x2="256.11" y2="31.78"/><path class="cls-2" d="M316.13,51.31l21.8,37.3a11.88,11.88,0,0,1-10.26,17.88H282.41a11.88,11.88,0,0,1-10.06-18.21L295.82,51A11.88,11.88,0,0,1,316.13,51.31Z" transform="translate(0 0)"/><path class="cls-2" d="M335.15,52.7l12.62,21.6a6.88,6.88,0,0,1-5.94,10.35H315.62a6.88,6.88,0,0,1-5.83-10.55l13.59-21.6A6.88,6.88,0,0,1,335.15,52.7Z" transform="translate(0 0)"/><polyline class="cls-3" points="305.04 148.1 305.04 99.67 320.09 81.12"/><line class="cls-4" x1="305.04" y1="99.67" x2="289.89" y2="84.52"/><line class="cls-4" x1="305.04" y1="100.78" x2="305.04" y2="56.9"/><path class="cls-2" d="M374.85,94.69l23.09,39.52a12.59,12.59,0,0,1-10.87,18.94h-48a12.59,12.59,0,0,1-10.66-19.3l24.86-39.52A12.59,12.59,0,0,1,374.85,94.69Z" transform="translate(0 0)"/><path class="cls-2" d="M374.85,93.19l23.09,39.52a12.59,12.59,0,0,1-10.87,18.94h-48a12.59,12.59,0,0,1-10.66-19.3l24.86-39.52A12.59,12.59,0,0,1,374.85,93.19Z" transform="translate(0 0)"/><path class="cls-2" d="M402.24,103.53l13.95,23.87a7.61,7.61,0,0,1-6.57,11.44h-29a7.61,7.61,0,0,1-6.44-11.66l15-23.87A7.61,7.61,0,0,1,402.24,103.53Z" transform="translate(0 0)"/><path class="cls-3" d="M336,192.95c30,0,27.07-48.44,27.07-48.44l15-18.55" transform="translate(0 0)"/><line class="cls-4" x1="363.09" y1="144.51" x2="347.95" y2="129.36"/><line class="cls-4" x1="363.09" y1="145.62" x2="363.09" y2="101.74"/><path class="cls-2" d="M107,123.91,83.86,163.43a12.59,12.59,0,0,0,10.87,18.94h48a12.59,12.59,0,0,0,10.66-19.3l-24.86-39.52A12.59,12.59,0,0,0,107,123.91Z" transform="translate(0 0)"/><path class="cls-2" d="M107,122.41,83.86,161.93a12.59,12.59,0,0,0,10.87,18.94h48a12.59,12.59,0,0,0,10.66-19.3l-24.86-39.52A12.59,12.59,0,0,0,107,122.41Z" transform="translate(0 0)"/><path class="cls-2" d="M138.74,118.57l-16.93,29a9.23,9.23,0,0,0,8,13.89h35.17a9.23,9.23,0,0,0,7.82-14.15l-18.23-29A9.23,9.23,0,0,0,138.74,118.57Z" transform="translate(0 0)"/><path class="cls-2" d="M141.69,80.86l-13.95,23.87a7.61,7.61,0,0,0,6.57,11.44h29a7.61,7.61,0,0,0,6.44-11.66l-15-23.87A7.61,7.61,0,0,0,141.69,80.86Z" transform="translate(0 0)"/><path class="cls-3" d="M145.78,222.17c-30,0-27.07-48.44-27.07-48.44l-15-18.55" transform="translate(0 0)"/><line class="cls-4" x1="118.71" y1="173.74" x2="133.85" y2="158.59"/><line class="cls-4" x1="118.71" y1="174.85" x2="118.71" y2="130.97"/><g class="cls-5"><path class="cls-6" d="M13,355.11c22.59-19.71,44.2-25.28,96.37-55.16,23.42-13.42,58.13-43.5,130.78-49.93s113.08,35.87,133.43,73.34c21.32,39.25,66.88,53.43,39.3,75.69-12.21,9.85-72.13,47.8-208.75,47.71C90.46,446.67-9.37,374.66,13,355.11Z" transform="translate(0 0)"/><path class="cls-7" d="M28,326.87c20.36-19.59,40.34-27,90-56.22,24-14.11,58.91-39.2,127-42.79s106.91,34.7,125.39,70.49c18.83,36.47,58.8,54.29,28.62,76.33-15.84,11.57-77.57,42.81-200.49,40.81C96.15,413.5,6.6,347.43,28,326.87Z" transform="translate(0 0)"/><path class="cls-8" d="M42.73,298.58c18.19-19.37,36.45-28.75,83.64-57.27,24.51-14.82,59.69-34.9,123.13-35.65,63.69-.54,100.74,33.5,117.34,67.64,16.36,33.65,50.53,54.93,17.95,77-19.53,13.21-83,38.22-192.23,33.92C101.65,380.62,22.4,320.23,42.73,298.58Z" transform="translate(0 0)"/><path class="cls-9" d="M57.24,270.3c16.07-19,32.53-30.57,77.28-58.33,25-15.54,60.47-30.75,119.31-28.5,59.22,2.26,94.59,32.28,109.3,64.8,13.94,30.81,42.15,55.44,7.27,77.61-23.27,14.8-88.49,33.42-184,27C106.9,347.58,38,293.12,57.24,270.3Z" transform="translate(0 0)"/><path class="cls-10" d="M71.44,242.14c14-18.62,28.59-32.43,70.91-59.38,25.57-16.28,61.26-26.49,115.48-21.36,54.76,5.18,88.45,31,101.26,61.95,11.56,27.92,33.71,55.86-3.4,78.25-27.06,16.33-94,28.63-175.72,20.13C111.83,314.65,53.29,266.23,71.44,242.14Z" transform="translate(0 0)"/><path class="cls-11" d="M85.23,214.11c12.07-18.11,24.62-34.34,64.54-60.44,26.08-17.05,62.05-22.21,111.66-14.22,50.3,8.1,82.35,29.72,93.21,59.1,9.24,25,25.24,56.21-14.08,78.9-30.87,17.8-99.48,23.82-167.46,13.24C116.31,281.84,68.27,239.55,85.23,214.11Z" transform="translate(0 0)"/><path class="cls-12" d="M98.5,186.15c10.2-17.53,20.63-36.28,58.18-61.49,26.58-17.84,62.85-17.91,107.83-7.08,45.84,11,76.31,28.37,85.17,56.25,7,22,16.76,56.53-24.75,79.54-34.7,19.23-105,19-159.2,6.34C120.24,249.09,82.85,213,98.5,186.15Z" transform="translate(0 0)"/><path class="cls-13" d="M111.14,158.22C119.58,141.33,127.75,120,163,95.68,190,77,226.6,82.08,267,95.74c41.38,14,70.36,27,77.13,53.4,4.86,19,8.26,56.81-35.42,80.18-38.55,20.62-110.65,14.09-150.94-.55C123.48,216.33,97,186.64,111.14,158.22Z" transform="translate(0 0)"/><path class="cls-14" d="M123.16,130.33c6.77-16.23,12.56-40.28,45.45-63.6,27.5-19.51,64.42-9.26,100.18,7.21,36.91,17,64.58,25.51,69.08,50.56,2.86,15.91-.24,57.07-46.1,80.82-42.42,22-116.35,9-142.68-7.44C126,183.44,110.64,160.35,123.16,130.33Z" transform="translate(0 0)"/><path class="cls-15" d="M135.06,102.48c5.2-15.58,8.49-42.32,39.08-64.66,27.93-20.4,65.19-4.9,96.36,14.35,32.42,20,59.13,24,61,47.71,1,12.84-8.75,57.3-56.77,81.46C228.47,204.64,152.86,184.8,140.34,167,128.52,150.21,124.48,134.15,135.06,102.48Z" transform="translate(0 0)"/><path class="cls-16" d="M135.06,136.15c.38-19.25,7.06-28.2,15.37-61.51,3.73-15,4.4-44.39,32.71-65.71s65.91-.51,92.54,21.49c27.89,23.05,54.32,22.64,53,44.86-.58,9.83-17.26,57.52-67.45,82.1S134.69,155.25,135.06,136.15Z" transform="translate(0 0)"/></g><path class="cls-16" d="M0,375.42c0,12.13,27.4,11.2,45.21,11.2s29-4.53,29-16.66-6.14-26-24-26S0,363.29,0,375.42Z" transform="translate(0 0)"/><path class="cls-16" d="M399.33,407.08c0,16.36-7.89,22.48-38.2,22.48s-62.47-2.14-62.47-18.5,30-51,60.33-51S399.33,390.72,399.33,407.08Z" transform="translate(0 0)"/><path class="cls-16" d="M435.71,413.64c0,8-10.94,11-24.43,11s-24.43-3-24.43-11,10.94-14.5,24.43-14.5S435.71,405.63,435.71,413.64Z" transform="translate(0 0)"/><path class="cls-17" d="M120.31,287.75a16,16,0,0,1,16.69,0c12.39,7.61,39.12,20.41,77.28,19.13,48.92-1.64,66.65-11.37,94.84-21.68a3.47,3.47,0,0,1,4.16,5l-19.92,33a16,16,0,0,1-8.23,6.41c-14.57,5-57.18,17.73-103.85,14.35-28.66-2.08-60.56-8.73-85-30a7.59,7.59,0,0,1,1-12.19Z" transform="translate(0 0)"/><path class="cls-18" d="M319,288.75s33.11-7.66,20.61,9.92-39.86,23.92-39.86,23.92" transform="translate(0 0)"/><path class="cls-18" d="M88.91,303.27s-27-16.09-9.6-27.95c17.82-12.15,39.63,7.73,39.63,7.73" transform="translate(0 0)"/><path class="cls-19" d="M371,253.48c1.82-2.54,4.45-2.34,5.84.46l6,12.08c1.4,2.8,0,5.09-3.15,5.09H364c-3.13,0-4.2-2.08-2.38-4.63Z" transform="translate(0 0)"/><path class="cls-19" d="M361.71,277.46c-2.29,0-4.3,1.61-4.47,3.57s-2.18,3.57-4.47,3.57H342a4.63,4.63,0,0,0-4.51,4.15l0,.32a3.76,3.76,0,0,0,3.81,4.15H352c2.29,0,4,1.64,3.85,3.64a4.37,4.37,0,0,1-4.47,3.64H333.19a4.63,4.63,0,0,0-4.51,4.15l0,.32a3.76,3.76,0,0,0,3.81,4.15h18.23a3.76,3.76,0,0,1,3.81,4.15l0,.23a4.48,4.48,0,0,1-4.24,4.15,4.48,4.48,0,0,0-4.24,4.15l-3,35.28a4.48,4.48,0,0,1-4.23,4.15,4.48,4.48,0,0,0-4.23,4.15l0,.32a3.76,3.76,0,0,0,3.81,4.15h8a4.63,4.63,0,0,0,4.51-4.15l3-35.28a4.63,4.63,0,0,1,4.51-4.15h9.78a3.76,3.76,0,0,1,3.81,4.15l-2.28,26.67a4.48,4.48,0,0,1-4.23,4.15,4.48,4.48,0,0,0-4.23,4.15l0,.32a3.76,3.76,0,0,0,3.81,4.15h8a4.63,4.63,0,0,0,4.51-4.15l7.17-84.06a3.76,3.76,0,0,0-3.81-4.15Z" transform="translate(0 0)"/><path class="cls-19" d="M55.36,238c-1.42-2.79-4.06-3-5.86-.41l-9.1,13c-1.8,2.56-.71,4.65,2.42,4.65H58.45c3.13,0,4.52-2.28,3.1-5.06Z" transform="translate(0 0)"/><path class="cls-19" d="M59.49,261.58c2.29,0,4,1.1,3.87,2.45s1.58,2.45,3.87,2.45H86.72a3.62,3.62,0,0,1,3.67,4.13l0,.35a4.81,4.81,0,0,1-4.65,4.13H66.21a4.63,4.63,0,0,0-4.61,3.8,3.48,3.48,0,0,0,3.71,3.8H73.8a3.62,3.62,0,0,1,3.67,4.13v.07A4.81,4.81,0,0,1,72.81,291H64.32a4.81,4.81,0,0,0-4.65,4.13l-.29,2.47a3.51,3.51,0,0,0,3.4,4.13,3.51,3.51,0,0,1,3.4,4.13L62,341.18a3.5,3.5,0,0,0,3.39,4.13,3.5,3.5,0,0,1,3.39,4.13l0,.35a4.81,4.81,0,0,1-4.65,4.13H56a3.62,3.62,0,0,1-3.67-4.13l4.19-35.31a3.62,3.62,0,0,0-3.67-4.13H43.09a4.81,4.81,0,0,0-4.65,4.13l-3.17,26.7a3.5,3.5,0,0,0,3.39,4.13A3.5,3.5,0,0,1,42,349.45l0,.35a4.81,4.81,0,0,1-4.65,4.13h-8a3.62,3.62,0,0,1-3.67-4.13l10-84.08a4.81,4.81,0,0,1,4.65-4.13Z" transform="translate(0 0)"/><path class="cls-20" d="M220.83,124h-45.4c-8.83,0-7.25,20-7.25,20V325.66a7.27,7.27,0,0,0,12.54,5,7.9,7.9,0,0,0,5.5,2.23h11.66a7.93,7.93,0,0,0,7.68-6,7.28,7.28,0,0,0,7.16,6h0a7.28,7.28,0,0,0,7.28-7.28l.09-180.48c0-8.18,1.72-13.45,3.45-16.69A3.06,3.06,0,0,0,220.83,124ZM186.35,296.25a2.5,2.5,0,0,1-5,0V242.74a2.5,2.5,0,0,1,5,0Zm21.59,3.53a2.5,2.5,0,0,1-5,0V279.68a2.5,2.5,0,0,1,5,0Zm0-31.44a2.5,2.5,0,0,1-5,0v-9.12a2.5,2.5,0,0,1,5,0Zm0-48.39a2.5,2.5,0,0,1-5,0V157.4a2.5,2.5,0,0,1,5,0Zm-21.59-29.71a2.5,2.5,0,0,1-2.76,2.49,2.6,2.6,0,0,1-2.24-2.63V142a2.5,2.5,0,0,1,2.56-2.5h0a2.5,2.5,0,0,1,2.44,2.5Z" transform="translate(0 0)"/><ellipse class="cls-20" cx="195.18" cy="325.82" rx="44.08" ry="11.03"/><line class="cls-21" x1="231.89" y1="301.68" x2="228.26" y2="310.34"/><line class="cls-21" x1="237.18" y1="287.33" x2="236.18" y2="290.59"/><line class="cls-21" x1="155.18" y1="301.59" x2="158.93" y2="308.59"/><line class="cls-21" x1="147.93" y1="289.34" x2="149.26" y2="291.48"/><line class="cls-21" x1="150.8" y1="320.09" x2="160.3" y2="324.07"/><line class="cls-21" x1="138.19" y1="312.74" x2="139.94" y2="313.49"/><line class="cls-21" x1="141.68" y1="273.09" x2="142.18" y2="273.09"/><line class="cls-21" x1="249.93" y1="317.34" x2="245.68" y2="320.59"/><line class="cls-21" x1="270.68" y1="310.09" x2="268.93" y2="311.59"/></g></g></svg>