<svg xmlns="http://www.w3.org/2000/svg" xmlns:xlink="http://www.w3.org/1999/xlink" viewBox="0 0 438 383"><defs><style>.cls-1{fill:url(#未命名漸層_12);}.cls-2{fill:url(#未命名漸層_12-2);}.cls-3{fill:#006261;}.cls-4{fill:#50adc0;}.cls-5{fill:url(#未命名漸層_7);}.cls-6{fill:#fff;}.cls-18,.cls-20,.cls-21,.cls-22,.cls-23,.cls-24,.cls-25,.cls-26,.cls-27,.cls-29,.cls-30,.cls-31,.cls-7{fill:none;}.cls-29,.cls-7{stroke:#ff9947;}.cls-11,.cls-13,.cls-14,.cls-15,.cls-18,.cls-20,.cls-21,.cls-22,.cls-23,.cls-24,.cls-25,.cls-26,.cls-27,.cls-29,.cls-30,.cls-31,.cls-7,.cls-8,.cls-9{stroke-linecap:round;stroke-linejoin:round;}.cls-7{stroke-width:8.99px;}.cls-11,.cls-19,.cls-8{fill:#ffcd32;}.cls-11,.cls-20,.cls-21,.cls-22,.cls-27,.cls-31,.cls-8,.cls-9{stroke:#ffcd32;}.cls-14,.cls-15,.cls-8,.cls-9{stroke-width:5.63px;}.cls-28,.cls-9{fill:#ff9947;}.cls-10{mask:url(#mask);}.cls-11,.cls-13{stroke-width:6.21px;}.cls-12{mask:url(#mask-2);}.cls-13{fill:#8fd0db;stroke:#8fd0db;}.cls-14,.cls-16{fill:#e0e0e0;}.cls-14,.cls-15,.cls-23,.cls-24,.cls-25,.cls-26,.cls-30{stroke:#e0e0e0;}.cls-15{fill:#bebebe;}.cls-17{fill:#006464;}.cls-18{stroke:#006464;stroke-width:4.32px;}.cls-20,.cls-23{stroke-width:3.6px;}.cls-21,.cls-24{stroke-width:4.25px;}.cls-22,.cls-25{stroke-width:2.52px;}.cls-26,.cls-27{stroke-width:2.16px;}.cls-29,.cls-30,.cls-31{stroke-width:4px;}</style><linearGradient id="未命名漸層_12" x1="344.41" y1="302.01" x2="344.41" y2="259.65" gradientUnits="userSpaceOnUse"><stop offset="0"/><stop offset="1" stop-color="#fff"/></linearGradient><linearGradient id="未命名漸層_12-2" x1="157.21" y1="302.05" x2="157.21" y2="259.65" xlink:href="#未命名漸層_12"/><linearGradient id="未命名漸層_7" x1="246.84" y1="334.97" x2="246.84" y2="274.6" gradientUnits="userSpaceOnUse"><stop offset="0" stop-color="#50adc0"/><stop offset="1" stop-color="#8dced9"/></linearGradient><mask id="mask" x="296.77" y="259.65" width="95.26" height="123.36" maskUnits="userSpaceOnUse"><rect class="cls-1" x="296.77" y="259.65" width="95.26" height="42.37"/></mask><mask id="mask-2" x="109.53" y="259.65" width="95.36" height="120.65" maskUnits="userSpaceOnUse"><path class="cls-2" d="M204.89,302l-69.64,0s2.16-4.91-.95-8.65c-5.83-7-24.78-10.47-24.78-10.47l.1-23.29h95.26Z"/></mask></defs><title>資產 2</title><g id="圖層_2" data-name="圖層 2"><g id="圖層_2-2" data-name="圖層 2"><path class="cls-3" d="M143.7,344.22c-.84,0-1.43-1-1.43-2.11v0c0-9.19-26-16.65-58.12-16.65S26,332.9,26,342.09c0,13.49,38.6,16.84,56.39,16.43,1.92,0,3.64,1.58,4.83,3.59C89.86,366.48,99.94,374,138.5,374c28.78,0,52.11-6.68,52.11-14.92C190.61,351.33,170,345,143.7,344.22Z"/><path class="cls-4" d="M48.64,260.39C49.93,284,157,276,132.33,306.61c-21.08,26.2,54.43,32.76,117.78,32.76,98.6,0,165.51-26.78,165.51-61s-86.9-64-170.12-64.47C174.39,213.52,46.95,229.42,48.64,260.39Z"/><path class="cls-4" d="M202.36,68.15c-6.18,0-13.15-4.68-15.49-10.4l-2.43-6c-2.34-5.72-8.31-8.87-13.28-7s-7.43,8.19-5.48,14.06L172.05,78c2,5.86,8.61,10.68,14.79,10.71l26.07.12a9.12,9.12,0,0,1,9.23,11.11l-10.53,58a150.89,150.89,0,0,0-2,22.29v83.33c0,6.18,4.06,14.25,9,17.94,0,0,1.38,1,28.07,1s28.22-1.11,28.22-1.11c5-3.64,9.08-11.68,9.08-17.86V180.19a154.41,154.41,0,0,0-2-22.3l-9.82-55.38a9.41,9.41,0,0,1,9.27-11.36l24.65-.65c6.18-.16,13.15-5,15.48-10.7l9.07-22.2a10.23,10.23,0,0,0-6-13.84,11.19,11.19,0,0,0-13.91,7.18l-2.29,6.6c-2,5.84-8.74,10.62-14.92,10.62Z"/><rect class="cls-5" x="209.6" y="274.6" width="74.48" height="60.37"/><path class="cls-4" d="M241.84,5.46c4.65-7.39,12.05-7.27,16.46.27l20.28,34.7c4.4,7.53.87,13.7-7.86,13.7H227.09c-8.73,0-12.07-6-7.42-13.43Z"/><path class="cls-6" d="M258.73,67.69,224.09,99.84A8.33,8.33,0,0,0,221,105l-11.26,63.28a8.33,8.33,0,0,0-.13,1.46V274.76s-3.15,7.74,37.09,7.74,37.3-7.74,37.3-7.74V169.67a8.33,8.33,0,0,0-.12-1.43L272,72.84A8.33,8.33,0,0,0,258.73,67.69Z"/><line class="cls-7" x1="217.93" y1="115.7" x2="277.58" y2="115.7"/><polygon class="cls-8" points="370.15 146.65 307.86 146.65 313.88 139.89 376.17 139.89 370.15 146.65"/><path class="cls-8" d="M370.15,146.65v96.3l1.34-1.61a18,18,0,0,0,4.68-12.11V139.89Z"/><rect class="cls-9" x="304.37" y="146.65" width="65.78" height="100.17" rx="6.14" ry="6.14"/><g class="cls-10"><path class="cls-11" d="M370.15,279.73H304.37l6.55-7.54a8.23,8.23,0,0,1,6.09-2.7h62.14Z"/><polygon class="cls-11" points="370.15 279.73 370.15 379.9 379.15 369.66 379.15 269.49 370.15 279.73"/><rect class="cls-11" x="304.37" y="278.83" width="65.78" height="100.17"/></g><g class="cls-12"><path class="cls-13" d="M183,277H117.22l4.8-5.74a12.89,12.89,0,0,1,9.54-4.22h60.07Z"/><polygon class="cls-13" points="183 277.03 183 377.2 191.64 367.23 191.64 267.06 183 277.03"/><rect class="cls-13" x="117.22" y="277.03" width="65.78" height="100.17"/></g><polygon class="cls-14" points="181.97 145.39 118.35 145.39 125.23 138.09 188.84 138.09 181.97 145.39"/><path class="cls-14" d="M182,145.39v98l2.56-2.54a16.64,16.64,0,0,0,4.32-11.19V138.09Z"/><path class="cls-15" d="M116.19,149.86V241.5a4.06,4.06,0,0,0,4.06,4.06h57.66A4.06,4.06,0,0,0,182,241.5V151.31a5.92,5.92,0,0,0-5.92-5.92H120.65A4.47,4.47,0,0,0,116.19,149.86Z"/><ellipse class="cls-16" cx="134.14" cy="167.06" rx="11.13" ry="11.73"/><ellipse class="cls-16" cx="161.78" cy="167.55" rx="11.13" ry="11.73"/><rect class="cls-16" x="155.56" y="187.54" width="14.87" height="49.09" rx="5.47" ry="5.47"/><rect class="cls-16" x="128.41" y="187.54" width="14.87" height="49.09" rx="5.47" ry="5.47"/><ellipse class="cls-17" cx="136.3" cy="165.26" rx="11.13" ry="11.73"/><ellipse class="cls-17" cx="163.94" cy="165.75" rx="11.13" ry="11.73"/><rect class="cls-17" x="157.72" y="187.54" width="12.71" height="47.28" rx="5.47" ry="5.47"/><rect class="cls-17" x="130.57" y="187.54" width="12.71" height="47.28" rx="5.47" ry="5.47"/><path class="cls-17" d="M292.74,305.85a23.23,23.23,0,0,1-3,.19c-6.26,0-11.33-2.42-11.33-5.4s5.07-5.4,11.33-5.4,11.33,2.42,11.33,5.4c0,1.25-.89,2.4-2.38,3.31L291,301.22Z"/><path class="cls-17" d="M319,323.76a46.45,46.45,0,0,0,6,.38c12.52,0,22.66-4.84,22.66-10.81S337.49,302.52,325,302.52s-22.66,4.84-22.66,10.81c0,2.5,1.78,4.8,4.76,6.63l15.44-5.47Z"/><line class="cls-18" x1="234.06" y1="14.16" x2="244.05" y2="14.16"/><line class="cls-18" x1="237.86" y1="13.89" x2="241.37" y2="9.29"/><line class="cls-18" x1="229.73" y1="13.89" x2="233.25" y2="9.29"/><line class="cls-18" x1="241.71" y1="15.51" x2="244.01" y2="18.62"/><line class="cls-18" x1="231.72" y1="14.16" x2="234.87" y2="18.62"/><line class="cls-18" x1="265.94" y1="14.16" x2="254.05" y2="14.16"/><line class="cls-18" x1="262.07" y1="13.89" x2="258.55" y2="9.29"/><line class="cls-18" x1="269.77" y1="13.89" x2="266.25" y2="9.29"/><line class="cls-18" x1="256.89" y1="15.51" x2="254.59" y2="18.62"/><line class="cls-18" x1="266.66" y1="14.16" x2="263.82" y2="18.62"/><ellipse class="cls-19" cx="321.66" cy="169.4" rx="11.13" ry="11.73"/><ellipse class="cls-19" cx="349.29" cy="169.89" rx="11.13" ry="11.73"/><rect class="cls-19" x="343.07" y="189.88" width="14.87" height="49.09" rx="5.47" ry="5.47"/><rect class="cls-19" x="315.92" y="189.88" width="14.87" height="49.09" rx="5.47" ry="5.47"/><ellipse class="cls-17" cx="323.82" cy="167.59" rx="11.13" ry="11.73"/><ellipse class="cls-17" cx="351.46" cy="168.09" rx="11.13" ry="11.73"/><rect class="cls-17" x="345.24" y="189.88" width="12.71" height="47.28" rx="5.47" ry="5.47"/><rect class="cls-17" x="318.08" y="189.88" width="12.71" height="47.28" rx="5.47" ry="5.47"/><line class="cls-20" x1="384.99" y1="111.91" x2="384.99" y2="126.68"/><line class="cls-21" x1="381.08" y1="119.44" x2="388.75" y2="119.44"/><line class="cls-22" x1="394.74" y1="126.34" x2="394.74" y2="133.41"/><line class="cls-22" x1="392.12" y1="129.97" x2="397.25" y2="129.97"/><line class="cls-22" x1="350.42" y1="124.18" x2="350.42" y2="131.24"/><line class="cls-22" x1="347.81" y1="127.81" x2="352.94" y2="127.81"/><line class="cls-23" x1="111.8" y1="112.99" x2="111.8" y2="127.76"/><line class="cls-24" x1="115.71" y1="120.52" x2="108.04" y2="120.52"/><line class="cls-25" x1="102.96" y1="143.82" x2="102.96" y2="150.88"/><line class="cls-25" x1="105.57" y1="147.45" x2="100.44" y2="147.45"/><line class="cls-25" x1="129.8" y1="119.86" x2="129.8" y2="126.92"/><line class="cls-25" x1="132.41" y1="123.49" x2="127.28" y2="123.49"/><circle class="cls-26" cx="120.99" cy="141.59" r="12.31"/><circle class="cls-27" cx="371.71" cy="142.85" r="15.09"/><path class="cls-28" d="M47.37,332.83c-3.17,0-5.57,2-5.35,4.36s3,4.36,6.17,4.36H93.92a5.15,5.15,0,0,0,5.22-5.73l-5.29-55.7a5.15,5.15,0,0,1,5.22-5.73h6.33a5.15,5.15,0,0,0,5.22-5.73l-1.93-20.33c-.3-3.15-2.47-5.73-4.83-5.73s-4.06,2.58-3.78,5.74l1,11.6a5.19,5.19,0,0,1-5.25,5.74H61.2a6.54,6.54,0,0,1-6.35-5.73l-1.19-11.62c-.32-3.15-2.51-5.73-4.86-5.73s-4,2.58-3.73,5.74L47,268.65a6.48,6.48,0,0,0,6.3,5.73h6.33a6.48,6.48,0,0,1,6.3,5.73l4.46,47a5.15,5.15,0,0,1-5.22,5.73Zm37.53,0c-2.88,0-5.47-2.58-5.77-5.73l-.6-6.29c-.3-3.15,1.81-5.73,4.69-5.73s5.47,2.58,5.77,5.73l.6,6.29C89.88,330.25,87.77,332.83,84.9,332.83Z"/><path class="cls-28" d="M72.9,242.44c1.39-2.85,4.05-3.07,5.91-.51l9.57,13.21c1.86,2.57.79,4.67-2.38,4.67H70.16c-3.17,0-4.62-2.33-3.23-5.17Z"/><path class="cls-28" d="M193.29,324.64c2.68,1.69,2.64,4.38-.1,6L180.6,338c-2.74,1.6-5,.31-5-2.85V319.28c0-3.17,2.19-4.38,4.88-2.69Z"/><path class="cls-28" d="M119,350.86a4.23,4.23,0,0,1-4.22,4.22H104.24a4.23,4.23,0,0,0-4.22,4.22v.29a4.23,4.23,0,0,0,4.22,4.22h41c.21,0,.37-1.9.37-4.22v-22a3.66,3.66,0,0,1,4.19-3.71l8.08,1a4.88,4.88,0,0,1,4.19,4.72v14.67a4.23,4.23,0,0,0,4.22,4.22h.29a4.23,4.23,0,0,0,4.22-4.22v-31a5.77,5.77,0,0,0-4.08-5.28l-28.65-7.48A15.27,15.27,0,0,0,119,325.23Zm18,0a4.23,4.23,0,0,1-4.22,4.22h-.8a4.23,4.23,0,0,1-4.22-4.22V337.59a4.23,4.23,0,0,1,4.22-4.22h.8a4.23,4.23,0,0,1,4.22,4.22Z"/><line class="cls-29" x1="304.64" y1="351.18" x2="307.08" y2="351.96"/><line class="cls-30" x1="306.32" y1="351.71" x2="316.32" y2="355.05"/><line class="cls-31" x1="314.3" y1="354.38" x2="316.74" y2="355.17"/><line class="cls-29" x1="24.15" y1="275.74" x2="26.7" y2="275.88"/><line class="cls-30" x1="25.9" y1="275.84" x2="36.42" y2="276.51"/><line class="cls-31" x1="34.3" y1="276.38" x2="36.86" y2="276.53"/><line class="cls-31" x1="393.03" y1="329.04" x2="396.33" y2="326.54"/><line class="cls-30" x1="390.55" y1="330.92" x2="393.24" y2="328.88"/><line class="cls-29" x1="389.16" y1="331.99" x2="389.87" y2="331.46"/><line class="cls-31" x1="432.69" y1="273.8" x2="436" y2="271.3"/><line class="cls-30" x1="431.48" y1="274.71" x2="434.58" y2="272.38"/><line class="cls-29" x1="430.08" y1="275.78" x2="430.8" y2="275.25"/><line class="cls-29" x1="12.78" y1="294.44" x2="10.62" y2="295.81"/><line class="cls-30" x1="11.3" y1="295.38" x2="2.36" y2="300.97"/><line class="cls-31" x1="4.16" y1="299.84" x2="2" y2="301.21"/></g></g></svg>