<svg xmlns="http://www.w3.org/2000/svg" viewBox="0 0 497.57 307.47"><defs><style>.cls-1{fill:#eb635a;}.cls-2{fill:#17bbef;}.cls-3{fill:#a4cb35;}.cls-4{fill:#006261;}.cls-5{fill:#00364b;}.cls-6{fill:#004864;}.cls-19,.cls-7{fill:#ffbd87;}.cls-10,.cls-11,.cls-13,.cls-14,.cls-15,.cls-16,.cls-18,.cls-20,.cls-8,.cls-9{fill:none;}.cls-14,.cls-15,.cls-16,.cls-8{stroke:#ff9947;}.cls-10,.cls-11,.cls-13,.cls-14,.cls-15,.cls-16,.cls-18,.cls-19,.cls-20,.cls-8,.cls-9{stroke-linecap:round;}.cls-10,.cls-11,.cls-13,.cls-14,.cls-15,.cls-16,.cls-20,.cls-8,.cls-9{stroke-linejoin:round;}.cls-8{stroke-width:14px;}.cls-10,.cls-11,.cls-13,.cls-18,.cls-9{stroke:#ffbd87;}.cls-9{stroke-width:4px;}.cls-10{stroke-width:3px;}.cls-11,.cls-16,.cls-20{stroke-width:2.82px;}.cls-12{fill:#ff9947;}.cls-13{stroke-width:13.33px;}.cls-14{stroke-width:3.81px;}.cls-15{stroke-width:2.86px;}.cls-17{fill:#ffab68;}.cls-18,.cls-19{stroke-miterlimit:10;}.cls-18{stroke-width:13.18px;}.cls-19{stroke:#ffa359;stroke-width:3.77px;}.cls-20{stroke:#ffab68;}</style></defs><title>資產 11</title><g id="圖層_2" data-name="圖層 2"><g id="圖層_2-2" data-name="圖層 2"><rect class="cls-1" x="149.68" y="115.3" width="34.62" height="24.68" rx="1.81" ry="1.81" transform="translate(210.9 -77.9) rotate(64.67)"/><rect class="cls-2" x="164.69" y="108.19" width="34.62" height="24.68" rx="1.81" ry="1.81" transform="translate(296.63 -65.25) rotate(88.16)"/><rect class="cls-3" x="179.08" y="111.6" width="34.62" height="24.68" rx="1.81" ry="1.81" transform="translate(389.92 -4.42) rotate(114.19)"/><ellipse class="cls-4" cx="102.73" cy="262.85" rx="102.73" ry="26.99"/><path class="cls-4" d="M397,240.77h3.36a6.44,6.44,0,0,0,6.53-6.08,6.27,6.27,0,0,0-6.27-6.46H345.86c1.34-4.27-1.21-8.62-6-8.63L306.29,219a18.72,18.72,0,0,0-13,5.59l-67,65.42c-4.87,4.83-2.59,12.28,3.76,12.3l34.39.63a18,18,0,0,0,9.27-2.67,21.84,21.84,0,0,1,11.27-3.23H335.2a6.45,6.45,0,0,0,6.24-4.79h0a5.39,5.39,0,0,1,4.15-3.88c12.28-2.51,20.35-6.74,20.35-11.55,0-7.7-20.71-13.94-46.25-13.94q-4,0-7.72.2l7.31-7.22c8.11,4,22.79,6.72,39.56,6.72,25.54,0,46.25-6.24,46.25-13.94C405.08,245.73,402.08,243,397,240.77Z"/><path class="cls-4" d="M468.3,262.55c-20.42,25.14-33.78,23.65-58.28,22.39s-29.3-11.6-17.44-23.35c27.2-26.93,45.44-26,69.94-24.72S478.85,249.57,468.3,262.55Z"/><path class="cls-5" d="M248.14,74.63l.65,220.54-19.54.06a4.55,4.55,0,0,1-4.57-4.54l-.63-211.17A9.06,9.06,0,0,1,228,72l73-49.45a14.24,14.24,0,0,1,7.95-2.45l15.8,0Z"/><path class="cls-6" d="M242.14,77.91,242.76,289a6.13,6.13,0,0,0,10.11,4.65l76.24-65a6.13,6.13,0,0,0,2.15-4.69l-.59-197.84a6.13,6.13,0,0,0-9.57-5.06L244.83,72.82A6.13,6.13,0,0,0,242.14,77.91Z"/><rect class="cls-5" x="358.58" y="151.22" width="17.6" height="105.33" rx="8.8" ry="8.8" transform="translate(570.17 -164.1) rotate(89.83)"/><rect class="cls-5" x="358.58" y="-8.93" width="17.6" height="105.33" rx="8.8" ry="8.8" transform="translate(410.02 -323.77) rotate(89.83)"/><path class="cls-7" d="M381.45,214.16c1.48-1.21,1.87-4.78.87-7.93l-4.94-15.6a6.76,6.76,0,0,1,3.71-8.07l14.55-6.2a6.75,6.75,0,0,0,4-7.75,5.81,5.81,0,0,0-7.32-3.71L377,169.41c-3.17.93-4.92-.41-3.89-3a19.22,19.22,0,0,0,.75-9.62c-.61-2.71,1.06-4.17,3.73-3.23s4.33-.94,3.7-4.18l-1.92-9.89a4.75,4.75,0,0,0-6.7-3.63l-1.65.67c-3.06,1.24-7.31,1.26-9.45,0s-11.35-2.22-14.65-2.22h-5.45a82.45,82.45,0,0,0-9.78.57c-2.08.31-9.25,1.25-12.16-.31l-2.78-1.49a4.47,4.47,0,0,0-6.75,3L307,147.78c-.8,3.2.87,5,3.71,4s4.94-.51,4.68,1.05v4c.71,2.5-1.25,3.62-4.35,2.49l-7.31-2.65a6.16,6.16,0,0,0-7.79,3.56l-.72,1.87a5.93,5.93,0,0,0,3.48,7.69L317,176.55c3.09,1.15,5.61,3.46,5.58,5.14s1.54,8.73,2.49,11.89l4.48,14.93c.95,3.16-.55,6.18-3.32,6.72s-4.31,3.57-3.41,6.74l5.11,18a6.46,6.46,0,0,0,7.5,4.47l2-.43a5.75,5.75,0,0,0,4.34-7.1l-1.23-4.69c-.84-3.19.85-4.51,3.74-2.93a24.87,24.87,0,0,0,10.72,2.65,26,26,0,0,0,6.6-.85l2.23-.58c2.2-1.07,4.85.62,5.89,3.75l2.77,8.32a6.26,6.26,0,0,0,7.65,4L382,246a5.85,5.85,0,0,0,3.91-7.42l-5.31-16.49C379.59,218.93,380,215.37,381.45,214.16Z"/><polyline class="cls-8" points="358.21 170.02 353.34 168.02 349.21 170.02"/><line class="cls-9" x1="358.21" y1="170.56" x2="358.21" y2="171.65"/><line class="cls-9" x1="349.21" y1="170.56" x2="349.21" y2="171.65"/><circle class="cls-10" cx="389.97" cy="209.74" r="2.5"/><path class="cls-11" d="M380.47,211.68s9.61,4.71,17.27-2.77"/><path class="cls-12" d="M341.71,248c1.3-1.71,1.56-5.68.58-8.83l-8.86-28.61c-1-3.15-1.24-7-.59-8.53a23.71,23.71,0,0,0,1.47-5.74c.16-1.62,2-1.94,4.08-.72s3.62-.47,3.42-3.76l-.57-9.08c-.21-3.29-2.74-5.14-5.62-4.1a16,16,0,0,1-10.52-.56c-2.9-1.34-12.21-2.45-15.51-2.45h-8c-3.3,0-7,.13-8.3.29s-2.37-1.09-2.45-2.77-2.19-4.83-4.69-7l-3.75-3.23c-2.5-2.16-4.62-1.22-4.72,2.08l-.39,13.16c-.1,3.3.08,6.58.41,7.3s.23,4-.2,7.25l-.65,5a7.06,7.06,0,0,0,5,7.51l2.46.66c3.19.86,5.19,3.36,4.46,5.56s-3.94,3.32-7.14,2.49l-10.25-2.66a6.08,6.08,0,0,0-7.37,4.28l-.35,1.28a6,6,0,0,0,4.23,7.35l14.21,3.83a10.66,10.66,0,0,1,7.54,7.6l1.26,4.83a7,7,0,0,1-5,8.56h0a5.69,5.69,0,0,0-3.63,7.21l6.12,21.46a6.37,6.37,0,0,0,7.49,4.4l2.16-.51a6,6,0,0,0,4.46-7.21l-1.75-7.44c-.76-3.21,1.1-4.76,4.13-3.45,0,0,6.21,2.7,11.81,2.7a24.81,24.81,0,0,0,6.29-.81l2.12-.56c2.09-1,4.55.75,5.45,3.92l2.55,8.94a5.94,5.94,0,0,0,7.4,4.06l1.28-.38a6.07,6.07,0,0,0,4.09-7.47l-4.89-17C340.1,253.65,340.42,249.66,341.71,248Z"/><polyline class="cls-13" points="295.55 204.84 290.63 202.93 286.98 204.84"/><line class="cls-14" x1="295.55" y1="205.35" x2="295.55" y2="206.38"/><line class="cls-14" x1="286.98" y1="205.35" x2="286.98" y2="206.38"/><circle class="cls-15" cx="348.83" cy="243.27" r="2.38"/><path class="cls-16" d="M340.53,245.22s9.61,4.71,17.27-2.77"/><rect class="cls-5" x="293.8" y="37.53" width="17.6" height="105.33" rx="8.8" ry="8.8" transform="translate(391.9 -212.67) rotate(89.83)"/><path class="cls-5" d="M301.74,213.2h1.72a7.94,7.94,0,0,1,7.94,7.94v81.31a8.8,8.8,0,0,1-8.8,8.8h0a8.8,8.8,0,0,1-8.8-8.8V221.14a7.94,7.94,0,0,1,7.94-7.94Z" transform="translate(563.93 -41.15) rotate(89.83)"/><path class="cls-17" d="M475.15,236.58c-2.41-2.25-5.6-2.51-7.09-.58s-2.94.83-3.23-2.46c0,0-1.54-17.81-5.78-23-8.54-10.47-28.64-5.05-28.64-5.05a25.25,25.25,0,0,0-9.93,5.91L408.4,224.12a18.93,18.93,0,0,1-9.68,5c-3,.38-6.27,2.16-7.15,4s-3.85,2.82-6.6,2.29-5.14,1.73-5.32,5l-.49,9.1c-.18,3.3,1.85,4.68,4.51,3.07s5.58-.58,6.49,2.28,2.77,5.39,4.13,5.63,1.22,2.83-.3,5.76l-1.67,3.2a5.74,5.74,0,0,0,2.15,7.84,6,6,0,0,0,7.8-2.75l2.56-4.67a10.47,10.47,0,0,1,8.88-5l5.07.26a40,40,0,0,0,9.48-.58c1.92-.49,3.87,1.78,4.33,5l.9,6.31a5.62,5.62,0,0,0,6.34,5,6.06,6.06,0,0,0,4.67-6.89l-1.47-10.7a17.1,17.1,0,0,1,2.73-10.78l6.18-8.41c2-2.66,3.58-2.14,3.62,1.16l0,2.5c0,3.3,1.86,7,4.06,8.26s5.8.26,8-2.18l7.92-8.7a6.11,6.11,0,0,0-.34-8.53Z"/><polyline class="cls-18" points="408.79 261.28 413.03 259.39 417.26 261.28"/><line class="cls-19" x1="408.79" y1="261.79" x2="408.79" y2="262.81"/><line class="cls-19" x1="417.26" y1="261.79" x2="417.26" y2="262.81"/><path class="cls-20" d="M446.22,205.26s4.71-9.61-2.77-17.27"/><circle class="cls-20" cx="443.97" cy="194.71" r="2.35"/><path class="cls-1" d="M308.89,164.65c1.86-2.38,4.4-2.08,5.66.67L320.32,178c1.25,2.75-.18,4.75-3.18,4.44l-15-1.52c-3-.3-3.94-2.5-2.09-4.88Z"/><path class="cls-3" d="M342.4,121.4c1.69-2.68,4.38-2.64,6,.1l7.37,12.61c1.6,2.74.31,5-2.86,5H337c-3.17,0-4.39-2.2-2.7-4.88Z"/><path class="cls-2" d="M421.13,218.68c2-2.43,4.69-2,5.91.9l5.62,13.48c1.22,2.93-.35,5-3.5,4.55l-15.71-2.12c-3.14-.42-4.05-2.76-2-5.2Z"/><path class="cls-5" d="M124.76,179.82a32.64,32.64,0,0,0,3.86,6.07,10.34,10.34,0,0,0,5.67,3.18,10.93,10.93,0,0,0,1.78.15,9.12,9.12,0,0,0,4.69-1.2,43.11,43.11,0,0,0,5.59-4.58L157,172.73c1.41-1.41,3.41-1.75,4.44-.75a39,39,0,0,0,4.93,3.8,9,9,0,0,0,4.55,1.11c.29,0,.58,0,.87,0a9.61,9.61,0,0,0,5.13-2,40.14,40.14,0,0,0,4.91-5.29l17.69-23.81a20.3,20.3,0,0,0,3-6.46s1.8-8.12-3-11.71c-4.62-3.43-11.5,0-11.5,0a18.73,18.73,0,0,1-6.88,1.66l-8,.08a10.23,10.23,0,0,0-6.19,2.61l-5,5a3.38,3.38,0,0,1-5-.15l-22.9-25.86a9.62,9.62,0,0,1-2.07-6.33l.78-8.39a15.76,15.76,0,0,1,2.46-6.56l4.26-5.9a2.36,2.36,0,0,1,4.14.08l8.29,12.44a32.87,32.87,0,0,0,4.75,5.41,6.18,6.18,0,0,0,3.91,1.16A7.93,7.93,0,0,0,165,101.5c3.66-2.44,2.82-7.47,2.82-7.47a20.3,20.3,0,0,0-2.62-6.6L153.36,69.68c-1.11-1.66-.52-2.35,1.3-1.53l22.13,10c1.82.82,4.86,2,6.76,2.64a11.45,11.45,0,0,0,3.23.33c6,0,12-6.57,12-6.57A6.57,6.57,0,0,0,200,68.4l-5.27-14.34a10.1,10.1,0,0,0-4.55-4.93L169.7,39.67a11.57,11.57,0,0,1-4.83-4.81L150.27,3.6c-.85-1.81-2.47-1.95-3.6-.3l-10,14.54a3,3,0,0,1-4.7.49L113.48.79c-1.45-1.38-3-.91-3.46,1l-8.29,35.26a22.45,22.45,0,0,1-2.92,6.5L83.14,65.85a18.59,18.59,0,0,0-2.65,6.56l-18.78,119c-.28,2-1.9,3.16-3.59,2.64l-1.61-.63a31.53,31.53,0,0,1-14.16-11.28c-8.56-12.88,3.53-59.22,3.53-59.22a12,12,0,0,0-.58-6.82L34.07,91.4c-.83-1.82-2.12-1.79-2.87.06L14,133.9c-.75,1.85-1.84,4.93-2.41,6.84,0,0-8.24,27.5,7.08,49.91,8.6,12.59,53.09,34.19,53.09,34.19a8.46,8.46,0,0,1,4,5.14l3,14.05c.42,2-.81,3.12-2.73,2.59L30,234a37,37,0,0,0-7.13-1.08,10.11,10.11,0,0,0-5.86,2A10.12,10.12,0,0,0,13.58,240a37,37,0,0,0-.85,7.16V257A20.3,20.3,0,0,0,14.21,264s3.4,7.59,9.42,7.59S33,264,33,264a17.05,17.05,0,0,0,1.48-4.72c0-.78,1.58-1,3.5-.45l49.6,13.6c1.93.53,4.37,1.13,5.42,1.35h1a10.21,10.21,0,0,0,10.47-9.58,32.88,32.88,0,0,0-.58-7.18l-5.7-26.34a3,3,0,0,1,2.86-3.73l44.66-2.31c2-.08,2.58,1.12,1.31,2.65l-12.9,15.51a32,32,0,0,0-3.81,6.1,9.53,9.53,0,0,0,4.84,12.91,32,32,0,0,0,6.88,2.09l13.2,2.12c2,.32,4.11.64,4.75.72h.57a10.91,10.91,0,0,0,10.75-9.18c1-5.94-6-10.5-6-10.5a20.4,20.4,0,0,0-3.78-2.11c-.41-.07.3-1.38,1.58-2.91l15.54-18.68a29.52,29.52,0,0,0,3.74-6.14s1.87-4.43.08-8.25-6.39-5.22-6.39-5.22a30.2,30.2,0,0,0-7.11-1.08L124,202.35a3.48,3.48,0,0,1-3.47-3.65l1-21.9c.09-2,.85-2.14,1.69-.33Zm15.85-19.36c-1.33,1.49-3,1.17-3.65-.71l-8.44-23.42c-.68-1.88,0-2.3,1.43-.94l15.41,14.32a3.73,3.73,0,0,1,.24,5.18Z"/><path class="cls-1" d="M426.74,292.22l8,13.12a2.28,2.28,0,0,0,2.06.54l18.53-2.62c.88-.12,1.38-.57,1.13-1l-8-13.12a2.28,2.28,0,0,0-2.06-.54l-18.53,2.62C427,291.36,426.49,291.8,426.74,292.22Z"/><path class="cls-2" d="M395.61,291.86l-3.52,13.57c-.11.44.53.84,1.44.89l19.17,1.15c.91.05,1.74-.26,1.86-.69l3.52-13.57c.11-.44-.53-.84-1.44-.89l-19.17-1.15C396.55,291.11,395.72,291.42,395.61,291.86Z"/><path class="cls-6" d="M475.09,265.2l-3.52,13.57c-.11.44.53.84,1.44.89l19.17,1.15c.91.05,1.74-.26,1.86-.69l3.52-13.57c.11-.44-.53-.84-1.44-.89l-19.17-1.15C476,264.45,475.21,264.76,475.09,265.2Z"/><path class="cls-3" d="M385.82,288.14l-15.55,11.45c-.5.37-.29.86.48,1.11l16.17,5.08a2.92,2.92,0,0,0,2.3-.23l15.55-11.45c.5-.37.29-.86-.48-1.11l-16.17-5.08A2.92,2.92,0,0,0,385.82,288.14Z"/><path class="cls-12" d="M461.39,282.46,445.84,293.9c-.5.37-.29.86.48,1.11l16.17,5.08a2.92,2.92,0,0,0,2.3-.23l15.55-11.45c.5-.37.29-.86-.48-1.11l-16.17-5.08A2.92,2.92,0,0,0,461.39,282.46Z"/></g></g></svg>