<svg xmlns="http://www.w3.org/2000/svg" xmlns:xlink="http://www.w3.org/1999/xlink" viewBox="0 0 663.3 486.96"><defs><style>.cls-1{fill:url(#未命名漸層_26);}.cls-2{fill:#006464;}.cls-3{fill:url(#未命名漸層_15);}.cls-4{fill:url(#未命名漸層_26-2);}.cls-5{fill:#ff9947;}.cls-6{fill:url(#未命名漸層_26-3);}.cls-10,.cls-11,.cls-12,.cls-13,.cls-14,.cls-15,.cls-16,.cls-17,.cls-18,.cls-19,.cls-20,.cls-22,.cls-35,.cls-38,.cls-39,.cls-40,.cls-41,.cls-7,.cls-8,.cls-9{fill:none;}.cls-7{stroke:#006464;}.cls-10,.cls-11,.cls-12,.cls-13,.cls-14,.cls-15,.cls-16,.cls-17,.cls-18,.cls-19,.cls-20,.cls-22,.cls-23,.cls-24,.cls-35,.cls-36,.cls-38,.cls-39,.cls-40,.cls-41,.cls-7,.cls-8,.cls-9{stroke-linecap:round;}.cls-10,.cls-11,.cls-12,.cls-13,.cls-14,.cls-15,.cls-16,.cls-17,.cls-18,.cls-19,.cls-20,.cls-22,.cls-37,.cls-38,.cls-39,.cls-40,.cls-41,.cls-7,.cls-8,.cls-9{stroke-miterlimit:10;}.cls-22,.cls-40,.cls-41,.cls-7{stroke-width:6.42px;}.cls-10,.cls-11,.cls-12,.cls-13,.cls-14,.cls-15,.cls-16,.cls-17,.cls-18,.cls-19,.cls-20,.cls-23,.cls-24,.cls-35,.cls-36,.cls-37,.cls-38,.cls-39,.cls-8,.cls-9{stroke:#00364b;}.cls-8{stroke-width:5.92px;}.cls-9{stroke-width:5.73px;}.cls-10{stroke-width:5.53px;}.cls-11{stroke-width:5.33px;}.cls-12{stroke-width:5.13px;}.cls-13{stroke-width:4.94px;}.cls-14{stroke-width:5.45px;}.cls-15{stroke-width:5.26px;}.cls-16{stroke-width:5.08px;}.cls-17{stroke-width:4.9px;}.cls-18{stroke-width:4.72px;}.cls-19{stroke-width:4.54px;}.cls-20{stroke-width:14.97px;}.cls-21{fill:#e0e0e0;}.cls-22{stroke:#004864;}.cls-23,.cls-24,.cls-37{fill:#00364b;}.cls-23,.cls-24,.cls-35,.cls-36{stroke-linejoin:round;}.cls-23{stroke-width:13.77px;}.cls-24{stroke-width:20.32px;}.cls-25{fill:url(#未命名漸層_15-2);}.cls-26{fill:url(#未命名漸層_15-3);}.cls-27{fill:url(#未命名漸層_15-4);}.cls-28{fill:url(#未命名漸層_15-5);}.cls-29{fill:#8bddf7;}.cls-30{fill:#ffcd32;}.cls-31{fill:#8bc9d5;}.cls-32{fill:#ff665c;}.cls-33{fill:url(#未命名漸層_28);}.cls-34{fill:url(#未命名漸層_26-4);}.cls-35{stroke-width:17px;}.cls-36{fill:#004864;stroke-width:9.15px;}.cls-37{stroke-width:1.63px;}.cls-38{stroke-width:8.39px;}.cls-39{stroke-width:5px;}.cls-40{stroke:#ff8078;}.cls-41{stroke:#ffbd87;}</style><linearGradient id="未命名漸層_26" x1="488.23" y1="493.81" x2="445.37" y2="401.42" gradientUnits="userSpaceOnUse"><stop offset="0.14" stop-color="#006261" stop-opacity="0.05"/><stop offset="0.31" stop-color="#006261" stop-opacity="0.31"/><stop offset="0.91" stop-color="#006261"/></linearGradient><linearGradient id="未命名漸層_15" x1="355.4" y1="359.11" x2="332.13" y2="294.11" gradientUnits="userSpaceOnUse"><stop offset="0" stop-color="#3c9195" stop-opacity="0"/><stop offset="1" stop-color="#8dced9"/></linearGradient><linearGradient id="未命名漸層_26-2" x1="356.82" y1="446.33" x2="320.07" y2="367.58" xlink:href="#未命名漸層_26"/><linearGradient id="未命名漸層_26-3" x1="308.17" y1="478.66" x2="262.53" y2="385.26" xlink:href="#未命名漸層_26"/><linearGradient id="未命名漸層_15-2" x1="105.4" y1="188.78" x2="131.31" y2="188.78" xlink:href="#未命名漸層_15"/><linearGradient id="未命名漸層_15-3" x1="341.65" y1="132.77" x2="320.95" y2="133.52" xlink:href="#未命名漸層_15"/><linearGradient id="未命名漸層_15-4" x1="223.62" y1="32.98" x2="233.78" y2="71.56" xlink:href="#未命名漸層_15"/><linearGradient id="未命名漸層_15-5" x1="229.81" y1="279.88" x2="222.49" y2="255.27" xlink:href="#未命名漸層_15"/><radialGradient id="未命名漸層_28" cx="465.83" cy="272.38" r="33.38" gradientUnits="userSpaceOnUse"><stop offset="0" stop-color="#8dced9"/><stop offset="1" stop-color="#3c9195" stop-opacity="0"/></radialGradient><linearGradient id="未命名漸層_26-4" x1="664.5" y1="377.76" x2="465.14" y2="348.24" xlink:href="#未命名漸層_26"/></defs><title>資產 8</title><g id="圖層_2" data-name="圖層 2"><g id="圖層_2-2" data-name="圖層 2"><path class="cls-1" d="M450.15,428.61l78,34.44L492.78,487,408.2,438.1,433,428.4A22.86,22.86,0,0,1,450.15,428.61Z"/><path class="cls-2" d="M64.77,420.56c-6.28,6.76-26.94,8.82-47.25,6.92-18.13-1.7-20.1-7.87-15.26-11.18,4.22-2.88,19.7-6.8,40.09-5.68C63.16,411.75,68.11,417,64.77,420.56Z"/><polygon class="cls-3" points="235.44 415.26 163.09 354.15 341.94 296.42 527.7 308.17 235.44 415.26"/><polygon class="cls-4" points="306.61 390.97 413.56 439.18 378.2 463.1 278.02 406.21 306.61 390.97"/><path class="cls-5" d="M307.64,353.77a5,5,0,0,0,5-5v-8.23a4.5,4.5,0,1,1,8.94,0l.06,32.87a5,5,0,0,1-4.94,5,5,5,0,0,0-5,5v1.75a3.82,3.82,0,0,0,4.87,3.89l4.09-.93a5.18,5.18,0,0,1,6.11,3.74h0a6.62,6.62,0,0,1-3.19,7.15L312,405.07a24.28,24.28,0,0,1-9.43,2.31H283a5,5,0,0,1-5-5V358.77a5,5,0,0,1,5-5Z"/><path class="cls-5" d="M296.94,326.67c-1.65-2.74-4.36-2.74-6,0l-7.82,13c-1.65,2.74-.38,5,2.82,5h16c3.2,0,4.47-2.25,2.82-5Z"/><polygon class="cls-6" points="252.26 395.97 351.47 461.78 296.08 471.06 223.67 411.21 252.26 395.97"/><path class="cls-2" d="M332.51,279.42,109.3,347.26a5.47,5.47,0,0,1-3.62-.24L24.45,311.16a5.47,5.47,0,0,1,.69-10.29L255,236a5.47,5.47,0,0,1,3.62.24l74.6,32.93A5.47,5.47,0,0,1,332.51,279.42Z"/><line class="cls-7" x1="492.91" y1="284.09" x2="336.3" y2="271.51"/><line class="cls-8" x1="53.9" y1="273.11" x2="47.1" y2="301.98"/><line class="cls-8" x1="84.67" y1="281.94" x2="77.86" y2="310.81"/><line class="cls-8" x1="53.9" y1="273.11" x2="84.67" y2="281.94"/><line class="cls-9" x1="59.9" y1="247.77" x2="53.05" y2="276.84"/><line class="cls-9" x1="90.67" y1="256.6" x2="83.81" y2="285.67"/><line class="cls-9" x1="59.9" y1="247.77" x2="90.67" y2="256.6"/><line class="cls-10" x1="65.9" y1="222.43" x2="58.99" y2="251.7"/><line class="cls-10" x1="96.67" y1="231.26" x2="89.76" y2="260.53"/><line class="cls-10" x1="65.9" y1="222.43" x2="96.67" y2="231.26"/><line class="cls-11" x1="71.9" y1="197.08" x2="64.94" y2="226.56"/><line class="cls-11" x1="102.67" y1="205.92" x2="95.71" y2="235.39"/><line class="cls-11" x1="71.9" y1="197.08" x2="102.67" y2="205.92"/><line class="cls-12" x1="77.91" y1="171.74" x2="70.89" y2="201.42"/><line class="cls-12" x1="108.67" y1="180.57" x2="101.66" y2="210.25"/><line class="cls-12" x1="77.91" y1="171.74" x2="108.67" y2="180.57"/><line class="cls-13" x1="83.91" y1="146.4" x2="76.84" y2="176.28"/><line class="cls-13" x1="114.67" y1="155.23" x2="107.61" y2="185.12"/><line class="cls-13" x1="83.91" y1="146.4" x2="114.67" y2="155.23"/><line class="cls-14" x1="137.09" y1="263.85" x2="142.07" y2="289.7"/><line class="cls-14" x1="104.77" y1="255.23" x2="109.75" y2="281.07"/><line class="cls-14" x1="137.09" y1="263.85" x2="104.77" y2="255.23"/><line class="cls-15" x1="132.98" y1="242.11" x2="137.96" y2="267.96"/><line class="cls-15" x1="100.66" y1="233.48" x2="105.64" y2="259.33"/><line class="cls-15" x1="132.98" y1="242.11" x2="100.66" y2="233.48"/><line class="cls-16" x1="128.87" y1="220.37" x2="133.85" y2="246.21"/><line class="cls-16" x1="96.56" y1="211.74" x2="101.54" y2="237.58"/><line class="cls-16" x1="128.87" y1="220.37" x2="96.56" y2="211.74"/><line class="cls-17" x1="124.77" y1="198.62" x2="129.75" y2="224.47"/><line class="cls-17" x1="92.45" y1="189.99" x2="97.43" y2="215.84"/><line class="cls-17" x1="124.77" y1="198.62" x2="92.45" y2="189.99"/><line class="cls-18" x1="120.66" y1="176.88" x2="125.64" y2="202.72"/><line class="cls-18" x1="88.35" y1="168.25" x2="93.32" y2="194.1"/><line class="cls-18" x1="120.66" y1="176.88" x2="88.35" y2="168.25"/><line class="cls-19" x1="116.56" y1="155.13" x2="121.53" y2="180.98"/><line class="cls-19" x1="84.24" y1="146.51" x2="89.22" y2="172.35"/><line class="cls-19" x1="116.56" y1="155.13" x2="84.24" y2="146.51"/><path class="cls-2" d="M108.41,116.89a3.27,3.27,0,0,1,3.84-3.32l15.72,2.3a3.27,3.27,0,0,0,3.84-3.32v-.27a4.65,4.65,0,0,0-3.84-4.45l-41.44-6.07a3.27,3.27,0,0,0-3.84,3.32v35.77a5.09,5.09,0,0,0,3.79,4.73l18.14,4.07a5.09,5.09,0,0,1,3.79,4.73V178.9a19.73,19.73,0,0,0,.2,3.91l4,.59,7.59,1.11a3.27,3.27,0,0,0,3.84-3.32v-.27a4.63,4.63,0,0,0-3.82-4.44,4.63,4.63,0,0,1-3.82-4.44v-28.5a38.26,38.26,0,0,0-3.84-.67l-.35-.05a4.64,4.64,0,0,1-3.84-4.44,3.18,3.18,0,0,1,3.65-3.34l7.5,1.1.35.05a3.27,3.27,0,0,0,3.84-3.32v-7.68a4.65,4.65,0,0,0-3.84-4.45l-.35-.05a3.19,3.19,0,0,0-3.84,3.14,3.11,3.11,0,0,1-3.65,3.17,4.54,4.54,0,0,1-3.65-4.42Z"/><path class="cls-2" d="M94.92,79c1.65-2.74,4.36-2.74,6,0l7.82,13c1.65,2.74.38,5-2.82,5h-16c-3.2,0-4.47-2.25-2.82-5Z"/><line class="cls-7" x1="62.53" y1="418.04" x2="115.1" y2="338.48"/><line class="cls-20" x1="325.65" y1="34.92" x2="325.65" y2="274.4"/><polygon class="cls-21" points="321.57 235.18 128.73 287.67 128.73 89.25 321.57 41.69 321.57 235.18"/><line class="cls-20" x1="123.8" y1="83.13" x2="324.42" y2="34.92"/><line class="cls-20" x1="123.8" y1="83.13" x2="123.8" y2="322.61"/><line class="cls-22" x1="329.39" y1="34.92" x2="492.91" y2="284.09"/><polygon class="cls-23" points="322.41 268.63 136.72 319.86 136.72 284.23 322.41 234.96 322.41 268.63"/><line class="cls-22" x1="122.16" y1="80.84" x2="62.53" y2="418.04"/><line class="cls-24" x1="115.1" y1="338.48" x2="336.3" y2="271.51"/><polygon class="cls-25" points="131.31 277.9 105.4 288.3 105.4 95.38 131.31 89.25 131.31 277.9"/><polygon class="cls-26" points="347.48 222.7 321.57 228.89 321.57 43.3 347.48 37.17 347.48 222.7"/><polygon class="cls-27" points="131.31 89.06 131.76 46.49 322.02 0 321.57 43.3 131.31 89.06"/><polygon class="cls-28" points="131.31 309.04 131.31 277.82 321.57 228.05 321.57 259 131.31 309.04"/><line class="cls-22" x1="496.71" y1="270.81" x2="492.91" y2="284.09"/><line class="cls-22" x1="55" y1="405.3" x2="62.53" y2="418.04"/><path class="cls-5" d="M248.47,338.28c1.65-2.74,4.36-2.74,6,0l7.82,13c1.65,2.74.38,5-2.82,5h-16c-3.2,0-4.47-2.25-2.82-5Z"/><path class="cls-5" d="M248.6,364.26a7.69,7.69,0,0,0-6.71,4.69l-4.65,12.74c-.94,2.58-3.19,4.67-5,4.64s-3.29,2.19-3.29,4.94v6.81c0,2.75-2,4-4.43,2.68L217.28,397c-2.43-1.27-4.42-4.2-4.4-6.51a4.16,4.16,0,0,0-4.14-4.19c-2.29,0-4.12,2.25-4.06,5l.07,3A10.7,10.7,0,0,0,209,402l19.9,13.1a19.67,19.67,0,0,0,9.17,2.75h19.55a4.62,4.62,0,0,0,4.66-5l-2.95-43.64a5.44,5.44,0,0,0-5.33-5Z"/><path class="cls-29" d="M182.48,143a1.24,1.24,0,0,1,0,2.31l-4.88,2.85c-1.06.62-1.93.12-1.93-1.11v-6.13c0-1.23.85-1.7,1.89-1Z"/><path class="cls-29" d="M153.75,153.92a1.64,1.64,0,0,1-1.63,1.63H148a1.64,1.64,0,0,0-1.63,1.63v.11a1.64,1.64,0,0,0,1.63,1.63h15.89a4.74,4.74,0,0,0,.15-1.63v-8.52a1.64,1.64,0,0,1,1.63-1.63h3.11a1.64,1.64,0,0,1,1.63,1.63v8.61a1.64,1.64,0,0,0,1.63,1.63h.11a1.64,1.64,0,0,0,1.63-1.63V138a1.64,1.64,0,0,0-1.63-1.63H155.38a1.64,1.64,0,0,0-1.63,1.63Zm7,0a1.64,1.64,0,0,1-1.63,1.63h-.31a1.64,1.64,0,0,1-1.63-1.63v-5.14a1.64,1.64,0,0,1,1.63-1.63h.31a1.64,1.64,0,0,1,1.63,1.63Z"/><rect class="cls-29" x="176.63" y="150.43" width="3.38" height="8.5" rx="1.63" ry="1.63"/><path class="cls-30" d="M261.21,128.64c1.14-1.47,2.66-1.27,3.4.43l3.05,7.11a2.06,2.06,0,0,1-2,3.1h-9.27c-1.85,0-2.44-1.2-1.31-2.67Z"/><path class="cls-30" d="M268.47,150.94a3,3,0,0,1,3-2.79h9.27a3,3,0,0,0,3-2.79l.24-4.22a2.51,2.51,0,0,0-2.39-2.79,2.64,2.64,0,0,0-2.69,2.35,2.8,2.8,0,0,1-2.93,2.35H245.68a3.21,3.21,0,0,0-3.11,2.78l-.9,8a2.42,2.42,0,0,0,2.42,2.78,3.13,3.13,0,0,0,3-2.78l.31-3.12A2.93,2.93,0,0,1,250,148a2.42,2.42,0,0,1,2.15,2.79L250.47,180a3,3,0,0,1-3,2.79h-5.13a2.89,2.89,0,0,0-2.94,2.55,2.51,2.51,0,0,0,2.65,2.55h10.24a3,3,0,0,0,3-2.79l.59-10.32a3,3,0,0,1,3-2.79h10.29a2.62,2.62,0,0,1,2.64,2.79l-.3,5.21-.31,5.35a2.51,2.51,0,0,0,2.65,2.55h4.11a2.89,2.89,0,0,0,2.94-2.55,2.28,2.28,0,0,0-2.15-2.55,2.42,2.42,0,0,1-2.14-2.79l.58-10.32a2.62,2.62,0,0,0-2.64-2.79h-4.15a2.62,2.62,0,0,1-2.64-2.79Z"/><path class="cls-31" d="M197.84,170.83c-1.48,0-2.61.92-2.51,2s1.41,2,2.89,2h21.43a2.41,2.41,0,0,0,2.44-2.69l-2.48-26.11a2.41,2.41,0,0,1,2.44-2.69h3c1.48,0,2.61-.92,2.51-2l-.45-4.73-.52-5.44a3,3,0,0,0-3-2.69h-3c-1.48,0-2.61.92-2.51,2a2.36,2.36,0,0,0,2.33,2,2.77,2.77,0,0,1,2.4,2.69l.13,1.35a2.41,2.41,0,0,1-2.44,2.69H204.32a3,3,0,0,1-3-2.69l-.13-1.35c-.14-1.48.71-2.69,1.89-2.69a1.88,1.88,0,0,0,1.95-2c-.11-1.12-1.41-2-2.89-2h-3a2.41,2.41,0,0,0-2.44,2.69l.9,9.53a3,3,0,0,0,3,2.69h3a3,3,0,0,1,3,2.69l2.09,22a2.41,2.41,0,0,1-2.44,2.69Zm17.59,0a2.91,2.91,0,0,1-2.71-2.69l-.28-2.95a2.31,2.31,0,0,1,2.2-2.69,2.91,2.91,0,0,1,2.71,2.69l.28,2.95A2.31,2.31,0,0,1,215.43,170.83Z"/><path class="cls-31" d="M209.8,128.46a1.49,1.49,0,0,1,2.77-.24l4.48,6.19c.87,1.2.37,2.19-1.12,2.19h-7.42a1.55,1.55,0,0,1-1.51-2.43Z"/><path class="cls-5" d="M319,125.26c1.18-1.56,2.81-1.38,3.62.4l4.7,10.29a2.11,2.11,0,0,1-2.08,3.23H312c-2,0-2.59-1.28-1.41-2.83Z"/><path class="cls-5" d="M321.54,181.46s.26-1.58.55-3.51l.39-2.6a4.27,4.27,0,0,1,4.08-3.52h5.65a4.18,4.18,0,0,0,4.06-3.36,2.91,2.91,0,0,0-3-3.36h-5.65a3,3,0,0,1-3-3.51l2.73-18.16H302.45a4.16,4.16,0,0,0-3.88,3.51l-2.21,14.69a2.9,2.9,0,0,0,2.83,3.51,2.9,2.9,0,0,1,2.83,3.51l-.36,2.39-1,7-1,7-.46,3.07a4.16,4.16,0,0,1-3.88,3.51h-6.71a4.06,4.06,0,0,0-3.86,3.36l-1,6.62a2.79,2.79,0,0,0,2.86,3.27,4,4,0,0,0,3.85-3.27,4.13,4.13,0,0,1,4-3.27h6.32a4.18,4.18,0,0,0,4.06-3.36l1-6.87.46-3.07a4.27,4.27,0,0,1,4.08-3.51h.89a3,3,0,0,1,3,3.51l-3,20.06-1,6.87a2.91,2.91,0,0,0,3,3.36h5.65a4.18,4.18,0,0,0,4.06-3.36,2.7,2.7,0,0,0-2.52-3.36c-1.66,0-2.78-1.58-2.49-3.51L321,185C321.28,183,321.53,181.46,321.54,181.46Z"/><path class="cls-32" d="M378.21,126.84c1.47-1.94,3.5-1.72,4.51.5l5.86,12.82c1,2.22-.15,4-2.59,4H369.51c-2.44,0-3.23-1.59-1.76-3.53Z"/><path class="cls-32" d="M409.5,153.68l1.29-8.56,1.49-9.94a3.61,3.61,0,0,0-3.52-4.38,5.18,5.18,0,0,0-4.84,4.38l-1.49,9.94a5.32,5.32,0,0,1-5.09,4.38H349.18a5.21,5.21,0,0,0-5.06,4.18l-1.29,8.56-1.49,9.94a3.61,3.61,0,0,0,3.52,4.38,5.18,5.18,0,0,0,4.84-4.38l1.49-9.94a5.18,5.18,0,0,1,4.84-4.38,3.61,3.61,0,0,1,3.52,4.38L355,192.52a3.71,3.71,0,0,0,3.77,4.38h.63a3.71,3.71,0,0,1,3.77,4.38L360.68,218a5.18,5.18,0,0,1-4.84,4.38h-8.37a5.05,5.05,0,0,0-4.81,4.18l-1.24,8.26a3.47,3.47,0,0,0,3.57,4.07,5,5,0,0,0,4.8-4.07,5.14,5.14,0,0,1,5-4.07h7.87a5.21,5.21,0,0,0,5.06-4.18L369,218l2.52-16.75a21.9,21.9,0,0,1,.9-4.38h12.82a3.6,3.6,0,0,1,3.49,4.38l-.59,3.94-.67,4.49-.63,4.18a3.59,3.59,0,0,0,3.82,4.08h7a5.21,5.21,0,0,0,5.06-4.18c.35-2.3-1.07-4.18-3.14-4.18s-3.47-2-3.11-4.38l.59-3.94,1.29-8.56a3.52,3.52,0,0,0-3.55-4.18h-8.33a3.6,3.6,0,0,1-3.49-4.38l3.29-21.9a5.32,5.32,0,0,1,5.09-4.38h17.44l.63-4.18Z"/><path class="cls-32" d="M390.7,127.33a1.76,1.76,0,0,1-1.38-2.84l4.32-5.54a1.76,1.76,0,1,1,2.77,2.16l-4.32,5.54A1.75,1.75,0,0,1,390.7,127.33Z"/><path class="cls-32" d="M394,133.5a1.76,1.76,0,0,1-.75-3.34l7.31-3.46a1.76,1.76,0,0,1,1.5,3.17l-7.31,3.46A1.75,1.75,0,0,1,394,133.5Z"/><path class="cls-32" d="M403.68,140.07h-7.4a1.76,1.76,0,1,1,0-3.51h7.4a1.76,1.76,0,1,1,0,3.51Z"/><polygon class="cls-33" points="435.82 243.87 465.26 264.03 461.48 280.24 427.39 278.79 435.82 243.87"/><polygon class="cls-34" points="510.98 352.48 663.3 361.47 650.22 387.68 472.14 365.39 476.11 363.77 524.47 361.47 507.38 354.39 510.98 352.48"/><line class="cls-35" x1="471.4" y1="274.13" x2="463.25" y2="272.13"/><polygon class="cls-36" points="473.42 269.58 484.94 262.67 530.15 272.21 527.52 300.02 517.95 307.12 470.81 297.14 473.42 269.58"/><ellipse class="cls-37" cx="490.26" cy="245.16" rx="17.93" ry="15.61" transform="translate(200.01 710.15) rotate(-84.59)"/><ellipse class="cls-37" cx="525.48" cy="252.43" rx="17.93" ry="15.61" transform="translate(224.67 751.8) rotate(-84.59)"/><line class="cls-38" x1="491.61" y1="303.06" x2="473.89" y2="361.47"/><line class="cls-38" x1="514.03" y1="305.85" x2="522.92" y2="364.6"/><line class="cls-38" x1="502.36" y1="305.64" x2="508.87" y2="350.73"/><path class="cls-5" d="M560.42,247.16c1.78-2.82,4.61-2.78,6.29.1l7.75,13.27c1.68,2.88.33,5.24-3,5.24H554.78c-3.34,0-4.61-2.31-2.84-5.14Z"/><path class="cls-5" d="M552.86,272.55c-2.44,0-4.44,1.71-4.44,3.81s-2,3.81-4.44,3.81h-.64a4.45,4.45,0,0,0-4.44,4.44v.31a4.45,4.45,0,0,0,4.44,4.44H544a3.92,3.92,0,1,1,0,7.77H522.92a4.45,4.45,0,0,0-4.44,4.44v.31a4.45,4.45,0,0,0,4.44,4.44H544a4.45,4.45,0,0,1,4.44,4.44V311a4.31,4.31,0,0,1-4.15,4.44,4.31,4.31,0,0,0-4.15,4.44v37.61A4.31,4.31,0,0,1,536,361.9a4.31,4.31,0,0,0-4.14,4.44v.31a4.45,4.45,0,0,0,4.44,4.44h8.58a4.45,4.45,0,0,0,4.44-4.44V329a4.45,4.45,0,0,1,4.44-4.44h10.44a4.45,4.45,0,0,1,4.44,4.44v28.43a4.31,4.31,0,0,1-4.14,4.44,4.31,4.31,0,0,0-4.14,4.44v.31a4.45,4.45,0,0,0,4.44,4.44h8.58a4.45,4.45,0,0,0,4.44-4.44V277a4.45,4.45,0,0,0-4.44-4.44Z"/><path class="cls-5" d="M85.72,357.17c2.94,1.85,2.89,4.79-.11,6.54l-13.8,8.06c-3,1.75-5.45.34-5.45-3.13V351.31c0-3.47,2.4-4.8,5.34-2.95Z"/><path class="cls-5" d="M9.06,338.29a4.63,4.63,0,0,0-4.62,4.62v21.33c0,2.54,0,4.62,0,4.62s0,2.08,0,4.62v41.35a4.63,4.63,0,0,0,4.62,4.62h8.86c2.16,0,3.92-2.08,3.92-4.62v-.32c0-2.54-1.77-4.62-3.92-4.62S14,407.81,14,405.27v-31.8a4.63,4.63,0,0,1,4.62-4.62h5.65a4.63,4.63,0,0,1,4.62,4.62v41.35a4.63,4.63,0,0,0,4.62,4.62h8.86c2.16,0,3.92-2.08,3.92-4.62v-.32c0-2.54-1.77-4.62-3.92-4.62s-3.92-2.08-3.92-4.62v-31.8a4.63,4.63,0,0,1,4.62-4.62h4a4.63,4.63,0,0,1,4.62,4.62v19.6a4.63,4.63,0,0,0,4.62,4.62h.32a4.63,4.63,0,0,0,4.62-4.62V342.91a4.63,4.63,0,0,0-4.62-4.62Z"/><rect class="cls-5" x="69.16" y="378.14" width="9.55" height="24.03" rx="4.62" ry="4.62"/><path class="cls-39" d="M123.69,315.37a40.15,40.15,0,0,0-22,12.79c-7.58,8.67-10.86,20.48-9.9,31.88.79,9.32,6.6,15.84,12.56,22.57,12,13.61,29.25,21.21,45.48,29.37,10.58,5.32,21.06,11.08,32.47,14.25,9.51,2.65,19.45,3.42,29.32,3.63,24.23.5,48.54-2.37,72.68-.24,17.82,1.57,35.32,5.85,53.13,7.49a186.55,186.55,0,0,0,23.9.63c6.49-.24,12,.58,17.28-3.83,4.79-4,6.92-10.52,8.67-16.32l10-33c1.17-3.88,2.88-8.32,6.76-9.47,3.45-1,7,1.11,9.59,3.65,6.3,6.3,9.1,15,14.35,22.08,6,8.11,13.73,11.41,23.84,11.87,7.52.35,13.92-4.11,20.49-7.55a457.3,457.3,0,0,0,44.27-26.68A8.53,8.53,0,0,0,520,375c1.43-3.42-2.06-7-5.61-8.08s-7.5-.83-10.77-2.58c-6.14-3.3-12.62-11.62-12.66-18.58-.06-11.26,1.4-35.22,1.33-46.48"/><path class="cls-5" d="M433.29,311.7c1.82-2.83,4.67-2.75,6.34.17l7.68,13.44c1.67,2.92.28,5.28-3.08,5.25l-16.8-.17c-3.36,0-4.62-2.37-2.8-5.2Z"/><path class="cls-5" d="M449.4,405.35a4.49,4.49,0,0,1-4.47-4.47V341.17a4.49,4.49,0,0,0-4.47-4.47H414.3v26.46a4.48,4.48,0,0,1-4.47,4.47h-9.26a4.48,4.48,0,0,0-4.47,4.47v.63a4.49,4.49,0,0,0,4.47,4.47h9.26a4.52,4.52,0,0,1,4.5,4.47l0,4.8c0,2.46,0,6.48,0,8.94v29.7a4.41,4.41,0,0,1-4.31,4.47,4.41,4.41,0,0,0-4.31,4.47v.63a4.49,4.49,0,0,0,4.47,4.47h9.26a4.49,4.49,0,0,0,4.47-4.47V395.41a4.49,4.49,0,0,1,4.47-4.47h2.47a4.49,4.49,0,0,1,4.47,4.47v15a4.49,4.49,0,0,0,4.47,4.47H450a4.49,4.49,0,0,1,4.47,4.47v.38a4.49,4.49,0,0,0,4.47,4.47h.63a4.49,4.49,0,0,0,4.47-4.47v-10a4.49,4.49,0,0,0-4.47-4.47Z"/><line class="cls-40" x1="344.57" y1="326.92" x2="401.43" y2="303.25"/><line class="cls-41" x1="295.94" y1="311.27" x2="334.52" y2="298.82"/></g></g></svg>