<svg xmlns="http://www.w3.org/2000/svg" viewBox="0 0 172.94 38.72"><defs><style>.cls-1{fill:#0f9bff;}</style></defs><title>資產 158</title><g id="圖層_2" data-name="圖層 2"><g id="Button"><path class="cls-1" d="M4.11,46.25,12.46,7.54h8.13L17.39,22.3H32.75L36,7.54h8.16L35.77,46.25H27.61L31.31,29H15.95L12.24,46.25Z" transform="translate(-4.11 -7.54)"/><path class="cls-1" d="M78,7.54H89.83L81.48,46.25H73.83l5.63-26.19q.27-1.13.73-3.17t.68-3.14L66.44,46.25h-8l-.4-32.49q-.21,1.1-.63,3.14t-.68,3.17L51.13,46.25H43.47L51.82,7.54H63.77L64.33,38Z" transform="translate(-4.11 -7.54)"/><path class="cls-1" d="M102.82,7.54l.4,22.17L103,35.88l2.45-6,9.25-22.3h8.67l-.13,22.17-.13,6.17,2.48-5.94L135.71,7.54h8.35L124.64,46.25h-7.84l.13-22.64.21-7.49-3,7.49-9.63,22.64H96.9L94.1,7.54Z" transform="translate(-4.11 -7.54)"/><path class="cls-1" d="M138.61,38.43h8.08L145,46.25h-8.08Z" transform="translate(-4.11 -7.54)"/><path class="cls-1" d="M153.79,38.43h8.08l-1.68,7.83h-8.08Z" transform="translate(-4.11 -7.54)"/><path class="cls-1" d="M169,38.43H177l-1.68,7.83h-8.08Z" transform="translate(-4.11 -7.54)"/></g></g></svg>