<?xml version="1.0" encoding="utf-8"?>
<!-- Generator: Adobe Illustrator 21.1.0, SVG Export Plug-In . SVG Version: 6.00 Build 0)  -->
<svg version="1.1" id="Button_bg" xmlns="http://www.w3.org/2000/svg" xmlns:xlink="http://www.w3.org/1999/xlink" x="0px" y="0px"
	 viewBox="0 0 1280 883.5" style="enable-background:new 0 0 1280 883.5;" xml:space="preserve">
<style type="text/css">
	.st0{fill:#004864;}
	.st1{fill:#00364B;}
	.st2{fill:none;stroke:#00364B;stroke-width:5.85;stroke-linecap:round;stroke-linejoin:round;}
	.st3{fill:none;stroke:#00364B;stroke-width:7.15;stroke-linecap:round;stroke-miterlimit:10;}
	.st4{fill:none;stroke:#003A51;stroke-width:5.85;stroke-linecap:round;stroke-linejoin:round;}
	.st5{fill:none;stroke:#003A51;stroke-width:7.15;stroke-linecap:round;stroke-miterlimit:10;}
	.st6{fill:none;stroke:#003F58;stroke-width:5.85;stroke-linecap:round;stroke-linejoin:round;}
	.st7{fill:none;stroke:#003F58;stroke-width:7.15;stroke-linecap:round;stroke-miterlimit:10;}
	.st8{fill:none;stroke:#00435E;stroke-width:5.85;stroke-linecap:round;stroke-linejoin:round;}
	.st9{fill:none;stroke:#00435E;stroke-width:7.15;stroke-linecap:round;stroke-miterlimit:10;}
	.st10{fill:none;stroke:#004864;stroke-width:5.85;stroke-linecap:round;stroke-linejoin:round;}
	.st11{fill:none;stroke:#004864;stroke-width:7.15;stroke-linecap:round;stroke-miterlimit:10;}
	.st12{fill:none;stroke:#00364B;stroke-width:6.34;stroke-linecap:round;stroke-linejoin:round;}
	.st13{fill:none;stroke:#00364B;stroke-width:6.34;stroke-linecap:round;stroke-miterlimit:10;}
</style>
<title>Rethink Taiwan_Team</title>
<rect x="-50.3" y="31" class="st0" width="1398" height="885.7"/>
<rect x="635.6" y="-688.2" transform="matrix(1.745302e-03 -1 1 1.745302e-03 637.1511 641.7321)" class="st1" width="8.8" height="1379.8"/>
<rect x="635.7" y="-683.2" transform="matrix(1.745302e-03 -1 1 1.745302e-03 632.2025 646.652)" class="st1" width="8.6" height="1379.8"/>
<rect x="635.7" y="-678.3" transform="matrix(1.745302e-03 -1 1 1.745302e-03 627.2588 651.5671)" class="st1" width="8.5" height="1379.8"/>
<rect x="635.8" y="-673.4" transform="matrix(1.745302e-03 -1 1 1.745302e-03 622.3152 656.502)" class="st1" width="8.3" height="1379.8"/>
<rect x="635.9" y="-668.4" transform="matrix(1.745302e-03 -1 1 1.745302e-03 617.3716 661.417)" class="st1" width="8.2" height="1379.8"/>
<rect x="635.9" y="-663.5" transform="matrix(1.745302e-03 -1 1 1.745302e-03 612.428 666.332)" class="st1" width="8" height="1379.8"/>
<rect x="636" y="-658.6" transform="matrix(1.745302e-03 -1 1 1.745302e-03 607.4844 671.2469)" class="st1" width="7.9" height="1379.8"/>
<rect x="636.1" y="-653.6" transform="matrix(1.745302e-03 -1 1 1.745302e-03 602.5406 676.1819)" class="st1" width="7.7" height="1379.8"/>
<rect x="636.2" y="-648.7" transform="matrix(1.745302e-03 -1 1 1.745302e-03 597.5922 681.1019)" class="st1" width="7.6" height="1379.8"/>
<rect x="636.2" y="-643.7" transform="matrix(1.745302e-03 -1 1 1.745302e-03 592.6486 686.0169)" class="st1" width="7.4" height="1379.8"/>
<rect x="636.3" y="-638.8" transform="matrix(1.745302e-03 -1 1 1.745302e-03 587.7099 690.9369)" class="st1" width="7.3" height="1379.8"/>
<rect x="636.4" y="-633.9" transform="matrix(1.745302e-03 -1 1 1.745302e-03 582.7563 695.8619)" class="st1" width="7.1" height="1379.8"/>
<rect x="636.4" y="-628.9" transform="matrix(1.745302e-03 -1 1 1.745302e-03 577.8127 700.7768)" class="st1" width="7" height="1379.8"/>
<rect x="636.5" y="-624" transform="matrix(1.745302e-03 -1 1 1.745302e-03 572.8691 705.6918)" class="st1" width="6.8" height="1379.8"/>
<rect x="636.6" y="-619.1" transform="matrix(1.745302e-03 -1 1 1.745302e-03 567.9304 710.6218)" class="st1" width="6.7" height="1379.8"/>
<rect x="636.6" y="-614.1" transform="matrix(1.745302e-03 -1 1 1.745302e-03 562.9868 715.5367)" class="st1" width="6.5" height="1379.8"/>
<rect x="636.7" y="-609.2" transform="matrix(1.745302e-03 -1 1 1.745302e-03 558.0432 720.4517)" class="st1" width="6.4" height="1379.8"/>
<rect x="636.8" y="-604.2" transform="matrix(1.745302e-03 -1 1 1.745302e-03 553.1095 725.3768)" class="st1" width="6.2" height="1379.8"/>
<rect x="636.8" y="-599.3" transform="matrix(1.745302e-03 -1 1 1.745302e-03 548.166 730.2917)" class="st1" width="6.1" height="1379.8"/>
<rect x="636.9" y="-594.4" transform="matrix(1.745302e-03 -1 1 1.745302e-03 543.2123 735.2167)" class="st1" width="5.9" height="1379.8"/>
<rect x="637" y="-589.4" transform="matrix(1.745302e-03 -1 1 1.745302e-03 538.2787 740.1417)" class="st1" width="5.8" height="1379.8"/>
<rect x="637" y="-584.5" transform="matrix(1.745302e-03 -1 1 1.745302e-03 533.3301 745.0617)" class="st1" width="5.6" height="1379.8"/>
<rect x="637.1" y="-579.6" transform="matrix(1.745302e-03 -1 1 1.745302e-03 528.3765 749.9866)" class="st1" width="5.5" height="1379.8"/>
<rect x="637.2" y="-574.6" transform="matrix(1.745302e-03 -1 1 1.745302e-03 523.4429 754.9116)" class="st1" width="5.3" height="1379.8"/>
<rect x="637.2" y="-569.7" transform="matrix(1.745302e-03 -1 1 1.745302e-03 518.4993 759.8265)" class="st1" width="5.2" height="1379.8"/>
<rect x="637.3" y="-564.8" transform="matrix(1.745302e-03 -1 1 1.745302e-03 513.5557 764.7416)" class="st1" width="5" height="1379.8"/>
<rect x="637.4" y="-559.8" transform="matrix(1.745302e-03 -1 1 1.745302e-03 508.612 769.6566)" class="st1" width="4.9" height="1379.8"/>
<rect x="637.5" y="-554.9" transform="matrix(1.745302e-03 -1 1 1.745302e-03 503.6634 774.5965)" class="st1" width="4.7" height="1379.8"/>
<rect x="637.5" y="-549.9" transform="matrix(1.745302e-03 -1 1 1.745302e-03 498.7197 779.5115)" class="st1" width="4.5" height="1379.8"/>
<rect x="637.6" y="-545" transform="matrix(1.745302e-03 -1 1 1.745302e-03 493.7762 784.4265)" class="st1" width="4.4" height="1379.8"/>
<rect x="637.7" y="-540.1" transform="matrix(1.745302e-03 -1 1 1.745302e-03 488.8426 789.3514)" class="st1" width="4.2" height="1379.8"/>
<rect x="637.7" y="-535.1" transform="matrix(1.745302e-03 -1 1 1.745302e-03 483.899 794.2665)" class="st1" width="4.1" height="1379.8"/>
<rect x="637.8" y="-530.2" transform="matrix(1.745302e-03 -1 1 1.745302e-03 478.9554 799.1815)" class="st1" width="4" height="1379.8"/>
<rect x="637.9" y="-525.3" transform="matrix(1.745302e-03 -1 1 1.745302e-03 474.0067 804.1014)" class="st1" width="3.8" height="1379.8"/>
<rect x="637.9" y="-520.3" transform="matrix(1.745302e-03 -1 1 1.745302e-03 469.0731 809.0264)" class="st1" width="3.6" height="1379.8"/>
<rect x="638" y="-515.4" transform="matrix(1.745302e-03 -1 1 1.745302e-03 464.1195 813.9513)" class="st1" width="3.5" height="1379.8"/>
<rect x="638.1" y="-510.5" transform="matrix(1.745302e-03 -1 1 1.745302e-03 459.1759 818.8663)" class="st1" width="3.3" height="1379.8"/>
<rect x="638.1" y="-505.5" transform="matrix(1.745302e-03 -1 1 1.745302e-03 454.2322 823.8013)" class="st1" width="3.2" height="1379.8"/>
<rect x="638.2" y="-500.6" transform="matrix(1.745302e-03 -1 1 1.745302e-03 449.2887 828.7164)" class="st1" width="3" height="1379.8"/>
<rect x="638.3" y="-495.6" transform="matrix(1.745302e-03 -1 1 1.745302e-03 444.345 833.6313)" class="st1" width="2.9" height="1379.8"/>
<rect x="638.4" y="-490.7" transform="matrix(1.745302e-03 -1 1 1.745302e-03 439.4063 838.5613)" class="st1" width="2.7" height="1379.8"/>
<rect x="638.4" y="-485.8" transform="matrix(1.745302e-03 -1 1 1.745302e-03 434.4628 843.4763)" class="st1" width="2.6" height="1379.8"/>
<rect x="638.5" y="-480.8" transform="matrix(1.745302e-03 -1 1 1.745302e-03 429.5092 848.4012)" class="st1" width="2.4" height="1379.8"/>
<rect x="638.6" y="-475.9" transform="matrix(1.745302e-03 -1 1 1.745302e-03 424.5755 853.3262)" class="st1" width="2.3" height="1379.8"/>
<rect x="638.6" y="-471" transform="matrix(1.745302e-03 -1 1 1.745302e-03 419.632 858.2412)" class="st1" width="2.1" height="1379.8"/>
<rect x="638.7" y="-466" transform="matrix(1.745302e-03 -1 1 1.745302e-03 414.6883 863.1561)" class="st1" width="2" height="1379.8"/>
<rect x="638.8" y="-461.1" transform="matrix(1.745302e-03 -1 1 1.745302e-03 409.7398 868.0761)" class="st1" width="1.8" height="1379.8"/>
<rect x="638.8" y="-456.2" transform="matrix(1.745302e-03 -1 1 1.745302e-03 404.806 873.0012)" class="st1" width="1.7" height="1379.8"/>
<rect x="638.9" y="-451.2" transform="matrix(1.745302e-03 -1 1 1.745302e-03 399.8625 877.9161)" class="st1" width="1.5" height="1379.8"/>
<rect x="639" y="-446.3" transform="matrix(1.745302e-03 -1 1 1.745302e-03 394.9189 882.8311)" class="st1" width="1.4" height="1379.8"/>
<rect x="639" y="-441.3" transform="matrix(1.745302e-03 -1 1 1.745302e-03 389.9652 887.7561)" class="st1" width="1.2" height="1379.8"/>
<rect x="639.1" y="-436.4" transform="matrix(1.745302e-03 -1 1 1.745302e-03 385.0316 892.681)" class="st1" width="1.1" height="1379.8"/>
<rect x="639.2" y="-431.5" transform="matrix(1.745302e-03 -1 1 1.745302e-03 380.088 897.5961)" class="st1" width="0.9" height="1379.8"/>
<rect x="639.2" y="-426.5" transform="matrix(1.745302e-03 -1 1 1.745302e-03 375.1294 902.5259)" class="st1" width="0.8" height="1379.8"/>
<rect x="639.3" y="-421.6" transform="matrix(1.745302e-03 -1 1 1.745302e-03 370.1958 907.451)" class="st1" width="0.6" height="1379.8"/>
<rect x="639.4" y="-416.7" transform="matrix(1.745302e-03 -1 1 1.745302e-03 365.2522 912.3659)" class="st1" width="0.5" height="1379.8"/>
<rect x="639.4" y="-411.7" transform="matrix(1.745302e-03 -1 1 1.745302e-03 360.3085 917.281)" class="st1" width="0.3" height="1379.8"/>
<rect x="639.5" y="-406.8" transform="matrix(1.745302e-03 -1 1 1.745302e-03 355.3749 922.2059)" class="st1" width="0.2" height="1379.8"/>
<rect x="639.6" y="-401.9" transform="matrix(1.745302e-03 -1 1 1.745302e-03 350.4213 927.131)" class="st1" width="0" height="1379.8"/>
<path class="st0" d="M312.7,210.8l-35.6,61c-5.4,9.3-2.3,21.2,7,26.6c3,1.7,6.3,2.6,9.8,2.6h74c10.7,0,19.4-8.7,19.4-19.4
	c0-3.7-1-7.2-3-10.3l-38.4-61c-5.7-9.1-17.7-11.8-26.8-6.1C316.4,205.8,314.2,208.1,312.7,210.8z"/>
<path class="st0" d="M315,179.3l-31.2,53.3c-4.7,8.1-2,18.5,6.1,23.2c2.6,1.5,5.5,2.3,8.5,2.3h64.7c9.4,0,17-7.7,16.9-17.1
	c0-3.2-0.9-6.3-2.6-8.9L344,178.8c-5-7.9-15.5-10.3-23.4-5.3C318.2,175,316.3,177,315,179.3z"/>
<path class="st0" d="M317.8,156.4l-25.6,43.8c-3.9,6.7-1.6,15.3,5.1,19.1c2.1,1.2,4.5,1.9,6.9,1.9h53.1c7.7-0.1,14-6.4,13.9-14.1
	c0-2.6-0.7-5.1-2.1-7.3l-27.5-43.8c-4.2-6.5-12.8-8.4-19.3-4.2C320.4,153,318.9,154.6,317.8,156.4z"/>
<line class="st2" x1="328.6" y1="278.6" x2="304.9" y2="251.9"/>
<line class="st2" x1="330.8" y1="298.6" x2="357.1" y2="272.3"/>
<line class="st3" x1="330.8" y1="373.6" x2="330.8" y2="183"/>
<line class="st2" x1="328.6" y1="246.2" x2="312.6" y2="226.5"/>
<line class="st2" x1="331" y1="261.9" x2="352" y2="240.9"/>
<line class="st2" x1="328.6" y1="211.8" x2="317.4" y2="197.9"/>
<line class="st2" x1="330.8" y1="231" x2="344.7" y2="217.1"/>
<path class="st0" d="M234.3,229.2l-35.6,61c-5.4,9.3-2.3,21.2,7,26.6c3,1.7,6.4,2.7,9.8,2.7h74c10.7,0,19.4-8.7,19.4-19.4
	c0-3.7-1-7.2-3-10.3l-38.4-61c-5.7-9.1-17.7-11.8-26.8-6.1C238,224.2,235.8,226.5,234.3,229.2z"/>
<path class="st0" d="M236.6,197.7L205.4,251c-4.7,8.1-2,18.5,6.1,23.2c2.6,1.5,5.5,2.3,8.5,2.3h64.7c9.4,0,17-7.7,16.9-17.1
	c0-3.2-0.9-6.3-2.6-8.9l-33.5-53.3c-5-7.9-15.5-10.3-23.4-5.3C239.8,193.4,237.9,195.4,236.6,197.7z"/>
<path class="st0" d="M239.4,174.8l-25.6,43.8c-3.9,6.7-1.6,15.3,5.1,19.1c2.1,1.2,4.5,1.9,6.9,1.9H279c7.7-0.1,14-6.4,13.9-14.1
	c0-2.6-0.7-5.1-2.1-7.3l-27.5-43.8c-4.1-6.5-12.8-8.5-19.3-4.3C242.1,171.3,240.5,172.9,239.4,174.8z"/>
<line class="st4" x1="250.2" y1="297" x2="226.5" y2="270.3"/>
<line class="st4" x1="252.4" y1="317" x2="278.7" y2="290.6"/>
<line class="st5" x1="252.4" y1="392" x2="252.4" y2="201.4"/>
<line class="st4" x1="250.2" y1="264.6" x2="234.2" y2="244.8"/>
<line class="st4" x1="252.6" y1="280.2" x2="273.6" y2="259.2"/>
<line class="st4" x1="250.2" y1="230.2" x2="239" y2="216.3"/>
<line class="st4" x1="252.4" y1="249.4" x2="266.3" y2="235.5"/>
<path class="st0" d="M155.9,247.5l-35.6,61c-5.4,9.3-2.3,21.2,7,26.6c3,1.7,6.3,2.6,9.8,2.6h74c10.7,0,19.4-8.7,19.4-19.4
	c0-3.6-1-7.2-3-10.3l-38.4-61c-5.7-9.1-17.7-11.8-26.8-6.1C159.6,242.6,157.4,244.8,155.9,247.5z"/>
<path class="st0" d="M158.1,216.1L127,269.4c-4.7,8.1-2,18.5,6.1,23.2c2.6,1.5,5.5,2.3,8.5,2.3h64.7c9.4,0,17-7.7,16.9-17.1
	c0-3.2-0.9-6.3-2.6-8.9l-33.5-53.3c-5-7.9-15.5-10.3-23.5-5.3C161.4,211.8,159.5,213.7,158.1,216.1z"/>
<path class="st0" d="M161,193.2L135.4,237c-3.9,6.7-1.6,15.3,5.1,19.1c2.1,1.2,4.5,1.9,6.9,1.9h53.1c7.7-0.1,14-6.4,13.9-14.1
	c0-2.6-0.7-5.1-2.1-7.3l-27.5-43.8c-4.2-6.5-12.8-8.4-19.3-4.2C163.6,189.8,162.1,191.4,161,193.2z"/>
<line class="st6" x1="171.8" y1="315.4" x2="148.1" y2="288.6"/>
<line class="st6" x1="174" y1="335.3" x2="200.3" y2="309"/>
<line class="st7" x1="174" y1="410.4" x2="174" y2="219.8"/>
<line class="st6" x1="171.8" y1="283" x2="155.8" y2="263.2"/>
<line class="st6" x1="174.2" y1="298.6" x2="195.2" y2="277.6"/>
<line class="st6" x1="171.8" y1="248.6" x2="160.6" y2="234.7"/>
<line class="st6" x1="174" y1="267.8" x2="187.9" y2="253.9"/>
<path class="st0" d="M77.5,265.9l-35.6,61c-5.4,9.3-2.3,21.2,7,26.6c3,1.7,6.3,2.6,9.8,2.6h74c10.7,0,19.4-8.7,19.4-19.5
	c0-3.6-1-7.2-3-10.3l-38.4-61c-5.7-9.1-17.7-11.8-26.8-6C81.2,261,79,263.2,77.5,265.9z"/>
<path class="st0" d="M79.8,234.5l-31.2,53.3c-4.7,8.1-2,18.5,6.1,23.2c2.6,1.5,5.5,2.3,8.5,2.3h64.7c9.4,0,17-7.7,16.9-17.1
	c0-3.2-0.9-6.3-2.6-8.9L108.8,234c-5-7.9-15.5-10.3-23.5-5.3C83,230.1,81.1,232.1,79.8,234.5z"/>
<path class="st0" d="M82.6,211.6L57,255.4c-3.9,6.7-1.6,15.3,5.1,19.1c2.1,1.2,4.5,1.9,6.9,1.9h53.1c7.7,0,14-6.3,14-14
	c0-2.6-0.7-5.1-2.1-7.3l-27.5-43.8c-4.1-6.5-12.8-8.5-19.3-4.3C85.3,208.1,83.7,209.7,82.6,211.6z"/>
<line class="st8" x1="93.4" y1="333.8" x2="69.7" y2="307"/>
<line class="st8" x1="95.6" y1="353.7" x2="121.9" y2="327.4"/>
<line class="st9" x1="95.6" y1="428.8" x2="95.6" y2="238.2"/>
<line class="st8" x1="93.4" y1="301.4" x2="77.4" y2="281.6"/>
<line class="st8" x1="95.8" y1="317" x2="116.8" y2="296"/>
<line class="st8" x1="93.4" y1="267" x2="82.2" y2="253.1"/>
<line class="st8" x1="95.6" y1="286.2" x2="109.5" y2="272.3"/>
<path class="st0" d="M-0.9,284.3l-35.6,61c-5.4,9.3-2.3,21.2,7,26.6c3,1.7,6.3,2.6,9.8,2.6h74c10.7,0,19.4-8.7,19.4-19.4
	c0-3.7-1-7.2-3-10.3l-38.4-61c-5.7-9.1-17.7-11.8-26.8-6.1C2.8,279.3,0.6,281.6-0.9,284.3z"/>
<path class="st0" d="M1.3,252.8l-31.1,53.3c-4.7,8.1-2,18.5,6.1,23.2c2.6,1.5,5.5,2.3,8.5,2.3h64.7c9.4,0,17-7.7,16.9-17.1
	c0-3.2-0.9-6.3-2.6-8.9l-33.5-53.3c-5-7.9-15.5-10.3-23.4-5.3C4.6,248.5,2.7,250.5,1.3,252.8z"/>
<path class="st0" d="M4.2,230l-25.6,43.8c-3.9,6.7-1.6,15.3,5.1,19.1c2.1,1.2,4.5,1.9,6.9,1.9h53.2c7.7-0.1,14-6.4,13.9-14.1
	c0-2.6-0.7-5.1-2.1-7.3L28,229.6c-4.2-6.5-12.8-8.4-19.3-4.2C6.8,226.5,5.3,228.1,4.2,230z"/>
<line class="st10" x1="15" y1="352.1" x2="-8.7" y2="325.4"/>
<line class="st10" x1="17.2" y1="372.1" x2="43.5" y2="345.8"/>
<line class="st11" x1="17.2" y1="447.1" x2="17.2" y2="256.6"/>
<line class="st10" x1="15" y1="319.7" x2="-1" y2="300"/>
<line class="st10" x1="17.4" y1="335.4" x2="38.4" y2="314.4"/>
<line class="st10" x1="15" y1="285.4" x2="3.8" y2="271.5"/>
<line class="st10" x1="17.2" y1="304.6" x2="31.1" y2="290.7"/>
<path class="st0" d="M1347.7,275c-141.1-18.4-308.2-29-487.3-29c-505.7,0-915.6,84.6-915.6,189s409.9,189,915.6,189
	c179.1,0,346.2-10.6,487.3-29V275z"/>
<line class="st12" x1="612.4" y1="529.7" x2="612.4" y2="544"/>
<line class="st12" x1="603.6" y1="544" x2="599" y2="540.5"/>
<line class="st12" x1="621.2" y1="544" x2="626.3" y2="540.5"/>
<ellipse class="st13" cx="612.4" cy="520.5" rx="10.5" ry="5.8"/>
<polyline class="st12" points="596.8,512.7 600.8,512.7 602,506.4 "/>
<line class="st12" x1="141.9" y1="469.1" x2="141.9" y2="483.3"/>
<line class="st12" x1="133.1" y1="483.3" x2="128.5" y2="479.8"/>
<line class="st12" x1="150.7" y1="483.3" x2="155.8" y2="479.8"/>
<ellipse class="st13" cx="141.9" cy="459.9" rx="10.4" ry="5.8"/>
<line class="st12" x1="167" y1="536.1" x2="167" y2="543.2"/>
<line class="st12" x1="158.2" y1="543.2" x2="153.6" y2="539.8"/>
<line class="st12" x1="175.8" y1="543.2" x2="180.9" y2="539.8"/>
<line class="st12" x1="61" y1="404.9" x2="61" y2="412"/>
<line class="st12" x1="52.2" y1="412" x2="47.6" y2="408.5"/>
<line class="st12" x1="69.8" y1="412" x2="74.9" y2="408.5"/>
<line class="st12" x1="525.8" y1="499.3" x2="525.8" y2="506.4"/>
<line class="st12" x1="517" y1="506.4" x2="512.4" y2="503"/>
<line class="st12" x1="534.6" y1="506.4" x2="539.7" y2="503"/>
<line class="st12" x1="374" y1="527.1" x2="374" y2="534.2"/>
<line class="st12" x1="365.2" y1="534.2" x2="360.6" y2="530.7"/>
<line class="st12" x1="382.8" y1="534.2" x2="387.9" y2="530.7"/>
<line class="st12" x1="256" y1="498.3" x2="256" y2="505.4"/>
<line class="st12" x1="247.2" y1="505.4" x2="242.6" y2="501.9"/>
<line class="st12" x1="264.8" y1="505.4" x2="269.9" y2="501.9"/>
<line class="st12" x1="321.5" y1="484.9" x2="321.5" y2="492"/>
<line class="st12" x1="312.7" y1="492" x2="308.1" y2="488.5"/>
<line class="st12" x1="330.3" y1="492" x2="335.4" y2="488.5"/>
<line class="st12" x1="445" y1="541.1" x2="445" y2="548.3"/>
<line class="st12" x1="436.1" y1="548.3" x2="431.5" y2="544.8"/>
<line class="st12" x1="453.8" y1="548.3" x2="458.9" y2="544.8"/>
<line class="st12" x1="236.4" y1="349.1" x2="236.4" y2="356.2"/>
<line class="st12" x1="227.6" y1="356.2" x2="223" y2="352.8"/>
<line class="st12" x1="245.3" y1="356.2" x2="250.4" y2="352.8"/>
<line class="st12" x1="189.2" y1="388.5" x2="189.2" y2="395.6"/>
<line class="st12" x1="180.4" y1="395.6" x2="175.8" y2="392.2"/>
<line class="st12" x1="198" y1="395.6" x2="203.1" y2="392.2"/>
<line class="st12" x1="525.8" y1="561.5" x2="525.8" y2="568.6"/>
<line class="st12" x1="517" y1="568.6" x2="512.4" y2="565.1"/>
<line class="st12" x1="534.6" y1="568.6" x2="539.7" y2="565.1"/>
<line class="st12" x1="261.1" y1="426.4" x2="261.1" y2="433.6"/>
<line class="st12" x1="252.3" y1="433.6" x2="247.7" y2="430.1"/>
<line class="st12" x1="269.9" y1="433.6" x2="275" y2="430.1"/>
</svg>
