<svg xmlns="http://www.w3.org/2000/svg" xmlns:xlink="http://www.w3.org/1999/xlink" viewBox="0 0 1280 4817.03"><defs><style>.cls-1{fill:#fff;}.cls-2{fill:#3c9195;}.cls-3{fill:#e0e0e0;}.cls-4{fill:#006261;}.cls-5{mask:url(#mask);}.cls-6{opacity:0.54;}.cls-23,.cls-24,.cls-7,.cls-79,.cls-80,.cls-81,.cls-82,.cls-83,.cls-84,.cls-85,.cls-86,.cls-87,.cls-88,.cls-89{fill:none;}.cls-7{stroke:#50adc0;stroke-width:2px;}.cls-10,.cls-12,.cls-13,.cls-15,.cls-16,.cls-18,.cls-19,.cls-21,.cls-22,.cls-23,.cls-24,.cls-7,.cls-79,.cls-80,.cls-81,.cls-82,.cls-83,.cls-84,.cls-85,.cls-86,.cls-87,.cls-88,.cls-89,.cls-9{stroke-linecap:round;}.cls-10,.cls-13,.cls-16,.cls-19,.cls-22,.cls-24,.cls-7,.cls-79,.cls-80,.cls-81,.cls-82,.cls-83,.cls-84,.cls-85,.cls-86,.cls-87,.cls-89{stroke-miterlimit:10;}.cls-8{fill:#ffcd32;}.cls-10,.cls-12,.cls-13,.cls-15,.cls-16,.cls-18,.cls-19,.cls-21,.cls-22,.cls-9{fill:#f5c63a;}.cls-10,.cls-9{stroke:#8fd0db;}.cls-12,.cls-15,.cls-18,.cls-21,.cls-23,.cls-88,.cls-9{stroke-linejoin:round;}.cls-12,.cls-15,.cls-18,.cls-21,.cls-9{stroke-width:5.85px;}.cls-10,.cls-13,.cls-16,.cls-19,.cls-22{stroke-width:7.15px;}.cls-11{fill:#fab33c;}.cls-12,.cls-13{stroke:#7abfc8;}.cls-14{fill:#f59846;}.cls-15,.cls-16{stroke:#65aeb5;}.cls-17{fill:#f07e50;}.cls-18,.cls-19{stroke:#509da2;}.cls-20{fill:#eb635a;}.cls-21,.cls-22{stroke:#3b8c8f;}.cls-23,.cls-24{stroke:#004864;}.cls-23,.cls-24,.cls-88,.cls-89{stroke-width:6.34px;}.cls-25,.cls-26,.cls-27,.cls-28,.cls-29,.cls-30,.cls-31,.cls-32,.cls-33,.cls-34,.cls-35,.cls-36,.cls-37,.cls-38,.cls-39,.cls-40,.cls-41,.cls-42,.cls-43,.cls-44,.cls-45,.cls-46,.cls-47,.cls-48,.cls-49,.cls-50,.cls-51,.cls-52,.cls-53,.cls-54,.cls-55,.cls-56,.cls-57,.cls-58,.cls-59,.cls-60,.cls-61,.cls-62,.cls-63,.cls-64,.cls-65,.cls-66,.cls-67,.cls-68,.cls-69,.cls-70,.cls-71,.cls-72,.cls-73,.cls-74,.cls-75,.cls-76,.cls-77{fill:#f6f7f7;}.cls-26{opacity:0.99;}.cls-27{opacity:0.97;}.cls-28{opacity:0.96;}.cls-29{opacity:0.95;}.cls-30{opacity:0.93;}.cls-31{opacity:0.92;}.cls-32{opacity:0.91;}.cls-33{opacity:0.9;}.cls-34{opacity:0.88;}.cls-35{opacity:0.87;}.cls-36{opacity:0.86;}.cls-37{opacity:0.84;}.cls-38{opacity:0.83;}.cls-39{opacity:0.82;}.cls-40{opacity:0.8;}.cls-41{opacity:0.79;}.cls-42{opacity:0.78;}.cls-43{opacity:0.76;}.cls-44{opacity:0.75;}.cls-45{opacity:0.74;}.cls-46{opacity:0.73;}.cls-47{opacity:0.71;}.cls-48{opacity:0.7;}.cls-49{opacity:0.69;}.cls-50{opacity:0.67;}.cls-51{opacity:0.66;}.cls-52{opacity:0.65;}.cls-53{opacity:0.63;}.cls-54{opacity:0.62;}.cls-55{opacity:0.61;}.cls-56{opacity:0.59;}.cls-57{opacity:0.58;}.cls-58{opacity:0.57;}.cls-59{opacity:0.56;}.cls-60{opacity:0.54;}.cls-61{opacity:0.53;}.cls-62{opacity:0.52;}.cls-63{opacity:0.5;}.cls-64{opacity:0.49;}.cls-65{opacity:0.48;}.cls-66{opacity:0.46;}.cls-67{opacity:0.45;}.cls-68{opacity:0.44;}.cls-69{opacity:0.42;}.cls-70{opacity:0.41;}.cls-71{opacity:0.4;}.cls-72{opacity:0.39;}.cls-73{opacity:0.37;}.cls-74{opacity:0.36;}.cls-75{opacity:0.35;}.cls-76{opacity:0.33;}.cls-77{opacity:0.32;}.cls-78{fill:#006464;}.cls-79,.cls-88,.cls-89{stroke:#4d9da8;}.cls-79{stroke-width:11px;}.cls-80{stroke:#4b9ba6;stroke-width:9.75px;}.cls-81{stroke:#499aa4;stroke-width:8.5px;}.cls-82{stroke:#4798a1;stroke-width:7.25px;}.cls-83{stroke:#44979f;stroke-width:6px;}.cls-84{stroke:#42959c;stroke-width:4.75px;}.cls-85{stroke:#40949a;stroke-width:3.5px;}.cls-86{stroke:#3e9297;stroke-width:2.25px;}.cls-87{stroke:#3c9195;}</style><mask id="mask" x="-20.4" y="-253.19" width="1364.73" height="1320.8" maskUnits="userSpaceOnUse"><polygon class="cls-1" points="1344.33 481.95 4.27 364.73 4.27 -248.6 1344.33 -248.6 1344.33 481.95"/></mask></defs><title>Rethink Taiwan_Team</title><g id="底"><polygon class="cls-2" points="1287.59 4817.03 -4.26 4817.03 -4.26 450.61 1287.59 269.68 1287.59 4817.03"/><rect class="cls-3" x="-8.63" y="-4.37" width="1296.22" height="1829.17"/><polygon class="cls-4" points="-7.12 3362 1284.74 3360.86 1284.74 490.69 -7.12 476 -7.12 3362"/></g><g id="底色"><g class="cls-5"><g class="cls-6"><circle class="cls-7" cx="625.39" cy="391.92" r="21.34"/><circle class="cls-7" cx="629.04" cy="395.75" r="176.53" transform="translate(-104.68 513.91) rotate(-41.32)"/><circle class="cls-7" cx="632.7" cy="399.57" r="337.33" transform="translate(-100.73 548.05) rotate(-43.72)"/><circle class="cls-7" cx="636.35" cy="403.39" r="498.34" transform="translate(-100.08 562.55) rotate(-44.57)"/><circle class="cls-7" cx="640" cy="407.21" r="659.4" transform="translate(-100.49 571.82) rotate(-45)"/></g></g><path class="cls-8" d="M312.66,210.78l-35.63,61A19.43,19.43,0,0,0,293.8,301h74a19.43,19.43,0,0,0,16.44-29.77l-38.36-61A19.43,19.43,0,0,0,312.66,210.78Z"/><path class="cls-8" d="M314.95,179.32,283.8,232.61a17,17,0,0,0,14.66,25.55h64.68a17,17,0,0,0,14.37-26L344,178.84A17,17,0,0,0,314.95,179.32Z"/><path class="cls-8" d="M317.78,156.45,292.2,200.22a14,14,0,0,0,12,21h53.12a14,14,0,0,0,11.8-21.37l-27.54-43.77A14,14,0,0,0,317.78,156.45Z"/><line class="cls-9" x1="328.64" y1="278.61" x2="304.94" y2="251.88"/><line class="cls-9" x1="330.81" y1="298.57" x2="357.11" y2="272.26"/><line class="cls-10" x1="330.81" y1="373.61" x2="330.81" y2="183.03"/><line class="cls-9" x1="328.64" y1="246.22" x2="312.61" y2="226.46"/><line class="cls-9" x1="330.99" y1="261.86" x2="351.98" y2="240.87"/><line class="cls-9" x1="328.64" y1="211.83" x2="317.36" y2="197.93"/><line class="cls-9" x1="330.81" y1="231.04" x2="344.71" y2="217.13"/><path class="cls-11" d="M234.26,229.16l-35.63,61a19.43,19.43,0,0,0,16.77,29.23h74a19.43,19.43,0,0,0,16.44-29.77l-38.36-61A19.43,19.43,0,0,0,234.26,229.16Z"/><path class="cls-11" d="M236.55,197.7,205.4,251a17,17,0,0,0,14.66,25.55h64.68a17,17,0,0,0,14.37-26l-33.53-53.29A17,17,0,0,0,236.55,197.7Z"/><path class="cls-11" d="M239.38,174.83,213.8,218.6a14,14,0,0,0,12,21H279a14,14,0,0,0,11.8-21.37l-27.54-43.77A14,14,0,0,0,239.38,174.83Z"/><line class="cls-12" x1="250.24" y1="296.99" x2="226.54" y2="270.27"/><line class="cls-12" x1="252.4" y1="316.95" x2="278.71" y2="290.64"/><line class="cls-13" x1="252.4" y1="392" x2="252.4" y2="201.41"/><line class="cls-12" x1="250.24" y1="264.6" x2="234.21" y2="244.84"/><line class="cls-12" x1="252.58" y1="280.24" x2="273.58" y2="259.25"/><line class="cls-12" x1="250.24" y1="230.21" x2="238.96" y2="216.31"/><line class="cls-12" x1="252.4" y1="249.42" x2="266.31" y2="235.52"/><path class="cls-14" d="M155.86,247.54l-35.63,61A19.43,19.43,0,0,0,137,337.75h74A19.43,19.43,0,0,0,227.45,308l-38.36-61A19.43,19.43,0,0,0,155.86,247.54Z"/><path class="cls-14" d="M158.15,216.08,127,269.37a17,17,0,0,0,14.66,25.55h64.68a17,17,0,0,0,14.37-26L187.18,215.6A17,17,0,0,0,158.15,216.08Z"/><path class="cls-14" d="M161,193.22,135.4,237a14,14,0,0,0,12,21h53.12a14,14,0,0,0,11.8-21.37l-27.54-43.77A14,14,0,0,0,161,193.22Z"/><line class="cls-15" x1="171.83" y1="315.37" x2="148.14" y2="288.65"/><line class="cls-15" x1="174" y1="335.33" x2="200.31" y2="309.02"/><line class="cls-16" x1="174" y1="410.38" x2="174" y2="219.79"/><line class="cls-15" x1="171.83" y1="282.98" x2="155.81" y2="263.22"/><line class="cls-15" x1="174.18" y1="298.62" x2="195.18" y2="277.63"/><line class="cls-15" x1="171.83" y1="248.59" x2="160.56" y2="234.69"/><line class="cls-15" x1="174" y1="267.8" x2="187.9" y2="253.9"/><path class="cls-17" d="M77.46,265.92l-35.63,61A19.43,19.43,0,0,0,58.6,356.13h74A19.43,19.43,0,0,0,149,326.35l-38.36-61A19.43,19.43,0,0,0,77.46,265.92Z"/><path class="cls-17" d="M79.75,234.46,48.6,287.76a17,17,0,0,0,14.66,25.55h64.68a17,17,0,0,0,14.37-26L108.78,234A17,17,0,0,0,79.75,234.46Z"/><path class="cls-17" d="M82.58,211.6,57,255.37a14,14,0,0,0,12,21h53.12A14,14,0,0,0,134,255l-27.54-43.77A14,14,0,0,0,82.58,211.6Z"/><line class="cls-18" x1="93.43" y1="333.75" x2="69.73" y2="307.03"/><line class="cls-18" x1="95.6" y1="353.71" x2="121.91" y2="327.41"/><line class="cls-19" x1="95.6" y1="428.76" x2="95.6" y2="238.17"/><line class="cls-18" x1="93.43" y1="301.36" x2="77.41" y2="281.6"/><line class="cls-18" x1="95.78" y1="317.01" x2="116.77" y2="296.01"/><line class="cls-18" x1="93.43" y1="266.97" x2="82.16" y2="253.07"/><line class="cls-18" x1="95.6" y1="286.18" x2="109.5" y2="272.28"/><path class="cls-20" d="M-.94,284.3l-35.63,61A19.43,19.43,0,0,0-19.8,374.51h74a19.43,19.43,0,0,0,16.44-29.77l-38.36-61A19.43,19.43,0,0,0-.94,284.3Z"/><path class="cls-20" d="M1.34,252.84-29.8,306.14a17,17,0,0,0,14.66,25.55H49.54a17,17,0,0,0,14.37-26L30.38,252.37A17,17,0,0,0,1.34,252.84Z"/><path class="cls-20" d="M4.18,230-21.4,273.75a14,14,0,0,0,12,21H43.76a14,14,0,0,0,11.8-21.37L28,229.59A14,14,0,0,0,4.18,230Z"/><line class="cls-21" x1="15.03" y1="352.14" x2="-8.67" y2="325.41"/><line class="cls-21" x1="17.2" y1="372.09" x2="43.51" y2="345.79"/><line class="cls-22" x1="17.2" y1="447.14" x2="17.2" y2="256.56"/><line class="cls-21" x1="15.03" y1="319.74" x2="-1" y2="299.98"/><line class="cls-21" x1="17.38" y1="335.39" x2="38.37" y2="314.39"/><line class="cls-21" x1="15.03" y1="285.36" x2="3.75" y2="271.45"/><line class="cls-21" x1="17.2" y1="304.56" x2="31.1" y2="290.66"/><line class="cls-23" x1="1162.85" y1="1926.65" x2="1162.85" y2="1933.78"/><line class="cls-23" x1="1154.04" y1="1933.78" x2="1149.44" y2="1930.29"/><line class="cls-23" x1="1171.66" y1="1933.78" x2="1176.75" y2="1930.29"/><line class="cls-23" x1="1026.71" y1="1932.27" x2="1026.71" y2="1939.39"/><line class="cls-23" x1="1017.9" y1="1939.39" x2="1013.3" y2="1935.9"/><line class="cls-23" x1="1035.52" y1="1939.39" x2="1040.61" y2="1935.9"/><line class="cls-23" x1="655.02" y1="1265.92" x2="655.02" y2="1280.18"/><line class="cls-23" x1="646.21" y1="1280.18" x2="641.6" y2="1276.69"/><line class="cls-23" x1="663.83" y1="1280.18" x2="668.92" y2="1276.69"/><ellipse class="cls-24" cx="655.02" cy="1256.73" rx="10.45" ry="5.81"/><polyline class="cls-23" points="639.39 1248.87 643.36 1248.87 644.57 1242.65"/><line class="cls-23" x1="91.66" y1="764.15" x2="91.66" y2="778.41"/><line class="cls-23" x1="82.85" y1="778.41" x2="78.24" y2="774.91"/><line class="cls-23" x1="100.47" y1="778.41" x2="105.56" y2="774.91"/><ellipse class="cls-24" cx="91.66" cy="754.96" rx="10.45" ry="5.81"/><line class="cls-23" x1="655.02" y1="1430.55" x2="655.02" y2="1437.68"/><line class="cls-23" x1="646.21" y1="1437.68" x2="641.6" y2="1434.19"/><line class="cls-23" x1="663.83" y1="1437.68" x2="668.92" y2="1434.19"/><line class="cls-23" x1="1001.28" y1="1868.52" x2="1001.28" y2="1875.65"/><line class="cls-23" x1="992.47" y1="1875.65" x2="987.87" y2="1872.15"/><line class="cls-23" x1="1010.09" y1="1875.65" x2="1015.18" y2="1872.15"/><line class="cls-23" x1="822.59" y1="715.44" x2="822.59" y2="722.57"/><line class="cls-23" x1="813.79" y1="722.57" x2="809.18" y2="719.08"/><line class="cls-23" x1="831.41" y1="722.57" x2="836.5" y2="719.08"/><line class="cls-23" x1="649.05" y1="708.31" x2="649.05" y2="715.44"/><line class="cls-23" x1="640.24" y1="715.44" x2="635.64" y2="711.95"/><line class="cls-23" x1="657.86" y1="715.44" x2="662.95" y2="711.95"/><line class="cls-23" x1="77.75" y1="704.59" x2="77.75" y2="711.72"/><line class="cls-23" x1="68.94" y1="711.72" x2="64.34" y2="708.23"/><line class="cls-23" x1="86.56" y1="711.72" x2="91.66" y2="708.23"/><line class="cls-23" x1="1171.01" y1="1992.93" x2="1171.01" y2="2000.06"/><line class="cls-23" x1="1162.2" y1="2000.06" x2="1157.6" y2="1996.56"/><line class="cls-23" x1="1179.82" y1="2000.06" x2="1184.91" y2="1996.56"/><line class="cls-23" x1="533.56" y1="1290.26" x2="533.56" y2="1297.39"/><line class="cls-23" x1="524.75" y1="1297.39" x2="520.14" y2="1293.89"/><line class="cls-23" x1="542.37" y1="1297.39" x2="547.46" y2="1293.89"/><line class="cls-23" x1="1140.92" y1="2054.36" x2="1140.92" y2="2061.49"/><line class="cls-23" x1="1132.11" y1="2061.49" x2="1127.51" y2="2058"/><line class="cls-23" x1="1149.73" y1="2061.49" x2="1154.83" y2="2058"/><line class="cls-23" x1="764.49" y1="750.52" x2="764.49" y2="757.65"/><line class="cls-23" x1="755.68" y1="757.65" x2="751.08" y2="754.15"/><line class="cls-23" x1="773.3" y1="757.65" x2="778.4" y2="754.15"/><line class="cls-23" x1="404.77" y1="641.28" x2="404.77" y2="648.41"/><line class="cls-23" x1="395.97" y1="648.41" x2="391.36" y2="644.91"/><line class="cls-23" x1="413.59" y1="648.41" x2="418.68" y2="644.91"/><line class="cls-23" x1="520.22" y1="683.48" x2="520.22" y2="690.61"/><line class="cls-23" x1="511.41" y1="690.61" x2="506.81" y2="687.12"/><line class="cls-23" x1="529.03" y1="690.61" x2="534.12" y2="687.12"/><line class="cls-23" x1="1203.9" y1="2035.64" x2="1203.9" y2="2042.77"/><line class="cls-23" x1="1195.1" y1="2042.77" x2="1190.49" y2="2039.28"/><line class="cls-23" x1="1212.72" y1="2042.77" x2="1217.81" y2="2039.28"/><line class="cls-23" x1="74.04" y1="1216.42" x2="74.04" y2="1223.55"/><line class="cls-23" x1="65.23" y1="1223.55" x2="60.63" y2="1220.05"/><line class="cls-23" x1="82.85" y1="1223.55" x2="87.94" y2="1220.05"/><line class="cls-23" x1="102.94" y1="1294.84" x2="102.94" y2="1301.97"/><line class="cls-23" x1="94.13" y1="1301.97" x2="89.53" y2="1298.48"/><line class="cls-23" x1="111.75" y1="1301.97" x2="116.85" y2="1298.48"/><line class="cls-23" x1="624.67" y1="1361.08" x2="624.67" y2="1368.21"/><line class="cls-23" x1="615.86" y1="1368.21" x2="611.25" y2="1364.71"/><line class="cls-23" x1="633.48" y1="1368.21" x2="638.57" y2="1364.71"/><line class="cls-23" x1="307.41" y1="1316.06" x2="307.41" y2="1323.19"/><line class="cls-23" x1="298.6" y1="1323.19" x2="294" y2="1319.7"/><line class="cls-23" x1="316.22" y1="1323.19" x2="321.32" y2="1319.7"/><line class="cls-23" x1="940.41" y1="752.12" x2="940.41" y2="759.25"/><line class="cls-23" x1="931.6" y1="759.25" x2="927" y2="755.76"/><line class="cls-23" x1="949.22" y1="759.25" x2="954.32" y2="755.76"/><line class="cls-23" x1="1117.04" y1="665.94" x2="1117.04" y2="673.07"/><line class="cls-23" x1="1108.24" y1="673.07" x2="1103.63" y2="669.58"/><line class="cls-23" x1="1125.86" y1="673.07" x2="1130.95" y2="669.58"/><line class="cls-23" x1="1242.86" y1="726.27" x2="1242.86" y2="733.4"/><line class="cls-23" x1="1234.05" y1="733.4" x2="1229.44" y2="729.91"/><line class="cls-23" x1="1251.67" y1="733.4" x2="1256.76" y2="729.91"/><line class="cls-23" x1="1003.4" y1="733.4" x2="1003.4" y2="740.53"/><line class="cls-23" x1="994.59" y1="740.53" x2="989.98" y2="737.04"/><line class="cls-23" x1="1012.21" y1="740.53" x2="1017.3" y2="737.04"/><line class="cls-23" x1="1139.27" y1="1436.11" x2="1139.27" y2="1443.24"/><line class="cls-23" x1="1130.46" y1="1443.24" x2="1125.86" y2="1439.74"/><line class="cls-23" x1="1148.08" y1="1443.24" x2="1153.17" y2="1439.74"/><line class="cls-23" x1="1003.13" y1="1441.72" x2="1003.13" y2="1448.85"/><line class="cls-23" x1="994.32" y1="1448.85" x2="989.72" y2="1445.36"/><line class="cls-23" x1="1011.94" y1="1448.85" x2="1017.03" y2="1445.36"/><line class="cls-23" x1="1097.18" y1="1501.53" x2="1097.18" y2="1508.66"/><line class="cls-23" x1="1088.37" y1="1508.66" x2="1083.77" y2="1505.16"/><line class="cls-23" x1="1105.99" y1="1508.66" x2="1111.08" y2="1505.16"/><line class="cls-23" x1="1220.17" y1="1389.03" x2="1220.17" y2="1396.16"/><line class="cls-23" x1="1211.36" y1="1396.16" x2="1206.76" y2="1392.67"/><line class="cls-23" x1="1228.98" y1="1396.16" x2="1234.08" y2="1392.67"/><line class="cls-23" x1="428.32" y1="1374.77" x2="428.32" y2="1389.03"/><line class="cls-23" x1="419.52" y1="1389.03" x2="414.91" y2="1385.54"/><line class="cls-23" x1="437.14" y1="1389.03" x2="442.23" y2="1385.54"/><ellipse class="cls-24" cx="428.32" cy="1365.59" rx="10.45" ry="5.81"/><polyline class="cls-23" points="412.69 1357.72 416.67 1357.72 417.88 1351.5"/><line class="cls-23" x1="1195.09" y1="1556.73" x2="1195.09" y2="1570.99"/><line class="cls-23" x1="1186.29" y1="1570.99" x2="1181.68" y2="1567.5"/><line class="cls-23" x1="1203.9" y1="1570.99" x2="1209" y2="1567.5"/><ellipse class="cls-24" cx="1195.09" cy="1547.54" rx="10.45" ry="5.81"/><polyline class="cls-23" points="1179.46 1539.67 1183.44 1539.67 1184.65 1533.46"/><line class="cls-23" x1="91.66" y1="1523.54" x2="91.66" y2="1537.8"/><line class="cls-23" x1="82.85" y1="1537.8" x2="78.24" y2="1534.31"/><line class="cls-23" x1="100.47" y1="1537.8" x2="105.56" y2="1534.31"/><ellipse class="cls-24" cx="91.66" cy="1514.35" rx="10.45" ry="5.81"/><line class="cls-23" x1="524.17" y1="1806.68" x2="524.17" y2="1820.94"/><line class="cls-23" x1="515.36" y1="1820.94" x2="510.75" y2="1817.45"/><line class="cls-23" x1="532.98" y1="1820.94" x2="538.07" y2="1817.45"/><ellipse class="cls-24" cx="524.17" cy="1797.5" rx="10.45" ry="5.81"/><line class="cls-23" x1="1027.93" y1="1291.8" x2="1027.93" y2="1298.93"/><line class="cls-23" x1="1019.12" y1="1298.93" x2="1014.52" y2="1295.44"/><line class="cls-23" x1="1036.74" y1="1298.93" x2="1041.84" y2="1295.44"/><line class="cls-23" x1="1043.14" y1="1360.53" x2="1043.14" y2="1367.66"/><line class="cls-23" x1="1034.34" y1="1367.66" x2="1029.73" y2="1364.17"/><line class="cls-23" x1="1051.96" y1="1367.66" x2="1057.05" y2="1364.17"/><line class="cls-23" x1="510.26" y1="1917.89" x2="510.26" y2="1925.02"/><line class="cls-23" x1="501.45" y1="1925.02" x2="496.85" y2="1921.53"/><line class="cls-23" x1="519.07" y1="1925.02" x2="524.17" y2="1921.53"/><line class="cls-23" x1="412.63" y1="1917.25" x2="412.63" y2="1924.38"/><line class="cls-23" x1="403.82" y1="1924.38" x2="399.22" y2="1920.88"/><line class="cls-23" x1="421.44" y1="1924.38" x2="426.53" y2="1920.88"/><line class="cls-23" x1="77.75" y1="1463.99" x2="77.75" y2="1471.12"/><line class="cls-23" x1="68.94" y1="1471.12" x2="64.34" y2="1467.62"/><line class="cls-23" x1="86.56" y1="1471.12" x2="91.66" y2="1467.62"/><line class="cls-23" x1="495.43" y1="1764.5" x2="495.43" y2="1771.63"/><line class="cls-23" x1="486.62" y1="1771.63" x2="482.01" y2="1768.14"/><line class="cls-23" x1="504.24" y1="1771.63" x2="509.33" y2="1768.14"/><line class="cls-23" x1="1184.91" y1="1718.86" x2="1184.91" y2="1725.99"/><line class="cls-23" x1="1176.11" y1="1725.99" x2="1171.5" y2="1722.49"/><line class="cls-23" x1="1193.73" y1="1725.99" x2="1198.82" y2="1722.49"/><line class="cls-23" x1="360.59" y1="1410.78" x2="360.59" y2="1417.91"/><line class="cls-23" x1="351.78" y1="1417.91" x2="347.17" y2="1414.41"/><line class="cls-23" x1="369.4" y1="1417.91" x2="374.49" y2="1414.41"/><line class="cls-23" x1="1154.83" y1="1780.29" x2="1154.83" y2="1787.42"/><line class="cls-23" x1="1146.02" y1="1787.42" x2="1141.41" y2="1783.93"/><line class="cls-23" x1="1163.64" y1="1787.42" x2="1168.73" y2="1783.93"/><line class="cls-23" x1="630.67" y1="1921.79" x2="630.67" y2="1928.92"/><line class="cls-23" x1="621.86" y1="1928.92" x2="617.25" y2="1925.42"/><line class="cls-23" x1="639.48" y1="1928.92" x2="644.57" y2="1925.42"/><line class="cls-23" x1="1121.41" y1="1834.99" x2="1121.41" y2="1842.12"/><line class="cls-23" x1="1112.6" y1="1842.12" x2="1108" y2="1838.63"/><line class="cls-23" x1="1130.22" y1="1842.12" x2="1135.31" y2="1838.63"/><line class="cls-23" x1="1073.64" y1="1895.26" x2="1073.64" y2="1902.39"/><line class="cls-23" x1="1064.83" y1="1902.39" x2="1060.23" y2="1898.9"/><line class="cls-23" x1="1082.45" y1="1902.39" x2="1087.54" y2="1898.9"/><line class="cls-23" x1="452.16" y1="1952.97" x2="452.16" y2="1960.1"/><line class="cls-23" x1="443.35" y1="1960.1" x2="438.75" y2="1956.6"/><line class="cls-23" x1="460.97" y1="1960.1" x2="466.06" y2="1956.6"/><line class="cls-23" x1="1217.81" y1="1761.57" x2="1217.81" y2="1768.7"/><line class="cls-23" x1="1209" y1="1768.7" x2="1204.4" y2="1765.21"/><line class="cls-23" x1="1226.62" y1="1768.7" x2="1231.72" y2="1765.21"/><line class="cls-23" x1="209.58" y1="1868.9" x2="209.58" y2="1876.03"/><line class="cls-23" x1="200.77" y1="1876.03" x2="196.16" y2="1872.53"/><line class="cls-23" x1="218.39" y1="1876.03" x2="223.48" y2="1872.53"/><line class="cls-23" x1="68.7" y1="1787.19" x2="68.7" y2="1794.32"/><line class="cls-23" x1="59.89" y1="1794.32" x2="55.29" y2="1790.83"/><line class="cls-23" x1="77.51" y1="1794.32" x2="82.6" y2="1790.83"/><line class="cls-23" x1="510.26" y1="2000.07" x2="510.26" y2="2007.2"/><line class="cls-23" x1="501.45" y1="2007.2" x2="496.85" y2="2003.71"/><line class="cls-23" x1="519.07" y1="2007.2" x2="524.17" y2="2003.71"/><line class="cls-23" x1="333.72" y1="1939.78" x2="333.72" y2="1946.91"/><line class="cls-23" x1="324.91" y1="1946.91" x2="320.31" y2="1943.42"/><line class="cls-23" x1="342.53" y1="1946.91" x2="347.62" y2="1943.42"/><rect class="cls-25" x="627.82" y="-697.4" width="20.42" height="1379.81" transform="translate(644.39 630.55) rotate(-89.9)"/><rect class="cls-26" x="628.01" y="-692.56" width="20.02" height="1379.81" transform="translate(639.55 635.37) rotate(-89.9)"/><rect class="cls-27" x="628.2" y="-687.72" width="19.63" height="1379.81" transform="translate(634.7 640.19) rotate(-89.9)"/><rect class="cls-28" x="628.39" y="-682.88" width="19.24" height="1379.81" transform="translate(629.85 645.01) rotate(-89.9)"/><rect class="cls-29" x="628.57" y="-678.04" width="18.85" height="1379.81" transform="translate(625 649.84) rotate(-89.9)"/><rect class="cls-30" x="628.76" y="-673.21" width="18.45" height="1379.81" transform="translate(620.16 654.66) rotate(-89.9)"/><rect class="cls-31" x="628.95" y="-668.37" width="18.06" height="1379.81" transform="translate(615.31 659.48) rotate(-89.9)"/><rect class="cls-32" x="629.14" y="-663.53" width="17.67" height="1379.81" transform="matrix(0, -1, 1, 0, 610.46, 664.3)"/><rect class="cls-33" x="629.32" y="-658.69" width="17.28" height="1379.81" transform="translate(605.62 669.12) rotate(-89.9)"/><rect class="cls-34" x="629.51" y="-653.85" width="16.88" height="1379.81" transform="translate(600.77 673.94) rotate(-89.9)"/><rect class="cls-35" x="629.7" y="-649.01" width="16.49" height="1379.81" transform="translate(595.92 678.76) rotate(-89.9)"/><rect class="cls-36" x="629.89" y="-644.18" width="16.1" height="1379.81" transform="translate(591.07 683.58) rotate(-89.9)"/><rect class="cls-37" x="630.07" y="-639.34" width="15.71" height="1379.81" transform="translate(586.23 688.4) rotate(-89.9)"/><rect class="cls-38" x="630.26" y="-634.5" width="15.31" height="1379.81" transform="translate(581.38 693.23) rotate(-89.9)"/><rect class="cls-39" x="630.45" y="-629.66" width="14.92" height="1379.81" transform="translate(576.53 698.05) rotate(-89.9)"/><rect class="cls-40" x="630.64" y="-624.82" width="14.53" height="1379.81" transform="translate(571.69 702.87) rotate(-89.9)"/><rect class="cls-41" x="630.82" y="-619.98" width="14.14" height="1379.81" transform="translate(566.84 707.69) rotate(-89.9)"/><rect class="cls-42" x="631.01" y="-615.14" width="13.74" height="1379.81" transform="translate(561.99 712.51) rotate(-89.9)"/><rect class="cls-43" x="631.2" y="-610.31" width="13.35" height="1379.81" transform="translate(557.14 717.33) rotate(-89.9)"/><rect class="cls-44" x="631.39" y="-605.47" width="12.96" height="1379.81" transform="translate(552.3 722.15) rotate(-89.9)"/><rect class="cls-45" x="631.57" y="-600.63" width="12.57" height="1379.81" transform="matrix(0, -1, 1, 0, 547.45, 726.97)"/><rect class="cls-46" x="631.76" y="-595.79" width="12.17" height="1379.81" transform="translate(542.6 731.79) rotate(-89.9)"/><rect class="cls-47" x="631.95" y="-590.95" width="11.78" height="1379.81" transform="translate(537.76 736.62) rotate(-89.9)"/><rect class="cls-48" x="632.14" y="-586.11" width="11.39" height="1379.81" transform="translate(532.91 741.44) rotate(-89.9)"/><rect class="cls-49" x="632.32" y="-581.28" width="11" height="1379.81" transform="translate(528.06 746.26) rotate(-89.9)"/><rect class="cls-50" x="632.51" y="-576.44" width="10.6" height="1379.81" transform="translate(523.21 751.08) rotate(-89.9)"/><rect class="cls-51" x="632.7" y="-571.6" width="10.21" height="1379.81" transform="translate(518.37 755.9) rotate(-89.9)"/><rect class="cls-52" x="632.89" y="-566.76" width="9.82" height="1379.81" transform="translate(513.52 760.72) rotate(-89.9)"/><rect class="cls-53" x="633.08" y="-561.92" width="9.43" height="1379.81" transform="translate(508.67 765.54) rotate(-89.9)"/><rect class="cls-54" x="633.26" y="-557.08" width="9.03" height="1379.81" transform="translate(503.83 770.36) rotate(-89.9)"/><rect class="cls-55" x="633.45" y="-552.24" width="8.64" height="1379.81" transform="translate(498.98 775.18) rotate(-89.9)"/><rect class="cls-56" x="633.64" y="-547.41" width="8.25" height="1379.81" transform="translate(494.13 780.01) rotate(-89.9)"/><rect class="cls-57" x="633.83" y="-542.57" width="7.86" height="1379.81" transform="translate(489.28 784.83) rotate(-89.9)"/><rect class="cls-58" x="634.01" y="-537.73" width="7.46" height="1379.81" transform="matrix(0, -1, 1, 0, 484.44, 789.65)"/><rect class="cls-59" x="634.2" y="-532.89" width="7.07" height="1379.81" transform="translate(479.59 794.47) rotate(-89.9)"/><rect class="cls-60" x="634.39" y="-528.05" width="6.68" height="1379.81" transform="translate(474.74 799.29) rotate(-89.9)"/><rect class="cls-61" x="634.58" y="-523.21" width="6.29" height="1379.81" transform="translate(469.9 804.11) rotate(-89.9)"/><rect class="cls-62" x="634.76" y="-518.38" width="5.89" height="1379.81" transform="translate(465.05 808.93) rotate(-89.9)"/><rect class="cls-63" x="634.95" y="-513.54" width="5.5" height="1379.81" transform="translate(460.2 813.75) rotate(-89.9)"/><rect class="cls-64" x="635.14" y="-508.7" width="5.11" height="1379.81" transform="translate(455.35 818.57) rotate(-89.9)"/><rect class="cls-65" x="635.33" y="-503.86" width="4.72" height="1379.81" transform="translate(450.51 823.4) rotate(-89.9)"/><rect class="cls-66" x="635.51" y="-499.02" width="4.32" height="1379.81" transform="translate(445.66 828.22) rotate(-89.9)"/><rect class="cls-67" x="635.7" y="-494.18" width="3.93" height="1379.81" transform="translate(440.81 833.04) rotate(-89.9)"/><rect class="cls-68" x="635.89" y="-489.35" width="3.54" height="1379.81" transform="translate(435.97 837.86) rotate(-89.9)"/><rect class="cls-69" x="636.08" y="-484.51" width="3.15" height="1379.81" transform="translate(431.12 842.68) rotate(-89.9)"/><rect class="cls-70" x="636.26" y="-479.67" width="2.75" height="1379.81" transform="translate(426.27 847.5) rotate(-89.9)"/><rect class="cls-71" x="636.45" y="-474.83" width="2.36" height="1379.81" transform="matrix(0, -1, 1, 0, 421.42, 852.32)"/><rect class="cls-72" x="636.64" y="-469.99" width="1.97" height="1379.81" transform="translate(416.58 857.14) rotate(-89.9)"/><rect class="cls-73" x="636.83" y="-465.15" width="1.58" height="1379.81" transform="translate(411.73 861.96) rotate(-89.9)"/><rect class="cls-74" x="637.01" y="-460.31" width="1.18" height="1379.81" transform="translate(406.88 866.79) rotate(-89.9)"/><rect class="cls-75" x="637.2" y="-455.48" width="0.79" height="1379.81" transform="translate(402.04 871.61) rotate(-89.9)"/><rect class="cls-76" x="637.39" y="-450.64" width="0.4" height="1379.81" transform="translate(397.19 876.43) rotate(-89.9)"/><rect class="cls-77" x="637.58" y="-445.8" width="0.01" height="1379.81" transform="translate(392.34 881.25) rotate(-89.9)"/><line class="cls-23" x1="1071.67" y1="2521.57" x2="1071.67" y2="2528.7"/><line class="cls-23" x1="1062.87" y1="2528.7" x2="1058.26" y2="2525.21"/><line class="cls-23" x1="1080.48" y1="2528.7" x2="1085.58" y2="2525.21"/><line class="cls-23" x1="1022.37" y1="2460.26" x2="1022.37" y2="2467.39"/><line class="cls-23" x1="1013.56" y1="2467.39" x2="1008.96" y2="2463.9"/><line class="cls-23" x1="1031.18" y1="2467.39" x2="1036.27" y2="2463.9"/><line class="cls-23" x1="835.68" y1="2537.89" x2="835.68" y2="2552.15"/><line class="cls-23" x1="826.87" y1="2552.15" x2="822.26" y2="2548.65"/><line class="cls-23" x1="844.49" y1="2552.15" x2="849.58" y2="2548.65"/><ellipse class="cls-24" cx="835.68" cy="2528.7" rx="10.45" ry="5.81"/><polyline class="cls-23" points="820.05 2520.83 824.02 2520.83 825.23 2514.62"/><line class="cls-23" x1="122.21" y1="2195.33" x2="122.21" y2="2209.58"/><line class="cls-23" x1="113.41" y1="2209.58" x2="108.8" y2="2206.09"/><line class="cls-23" x1="131.03" y1="2209.58" x2="136.12" y2="2206.09"/><ellipse class="cls-24" cx="122.21" cy="2186.14" rx="10.45" ry="5.81"/><line class="cls-23" x1="897.1" y1="2331.28" x2="897.1" y2="2338.41"/><line class="cls-23" x1="888.29" y1="2338.41" x2="883.69" y2="2334.91"/><line class="cls-23" x1="905.91" y1="2338.41" x2="911" y2="2334.91"/><line class="cls-23" x1="983.03" y1="2400.01" x2="983.03" y2="2407.14"/><line class="cls-23" x1="974.22" y1="2407.14" x2="969.62" y2="2403.65"/><line class="cls-23" x1="991.84" y1="2407.14" x2="996.93" y2="2403.65"/><line class="cls-23" x1="930.88" y1="2697.11" x2="930.88" y2="2704.24"/><line class="cls-23" x1="922.08" y1="2704.24" x2="917.47" y2="2700.74"/><line class="cls-23" x1="939.7" y1="2704.24" x2="944.79" y2="2700.74"/><line class="cls-23" x1="814.69" y1="2673.22" x2="814.69" y2="2680.35"/><line class="cls-23" x1="805.89" y1="2680.35" x2="801.28" y2="2676.85"/><line class="cls-23" x1="823.51" y1="2680.35" x2="828.6" y2="2676.85"/><line class="cls-23" x1="117.22" y1="2757.39" x2="117.22" y2="2764.52"/><line class="cls-23" x1="108.41" y1="2764.52" x2="103.8" y2="2761.02"/><line class="cls-23" x1="126.03" y1="2764.52" x2="131.12" y2="2761.02"/><line class="cls-23" x1="1058.91" y1="2590.1" x2="1058.91" y2="2597.23"/><line class="cls-23" x1="1050.1" y1="2597.23" x2="1045.49" y2="2593.74"/><line class="cls-23" x1="1067.72" y1="2597.23" x2="1072.81" y2="2593.74"/><line class="cls-23" x1="762.16" y1="2631.07" x2="762.16" y2="2638.2"/><line class="cls-23" x1="753.35" y1="2638.2" x2="748.75" y2="2634.7"/><line class="cls-23" x1="770.97" y1="2638.2" x2="776.07" y2="2634.7"/><line class="cls-23" x1="997.2" y1="2658.66" x2="997.2" y2="2665.79"/><line class="cls-23" x1="988.39" y1="2665.79" x2="983.79" y2="2662.3"/><line class="cls-23" x1="1006.01" y1="2665.79" x2="1011.1" y2="2662.3"/><line class="cls-23" x1="873.04" y1="2718.94" x2="873.04" y2="2726.07"/><line class="cls-23" x1="864.23" y1="2726.07" x2="859.62" y2="2722.58"/><line class="cls-23" x1="881.85" y1="2726.07" x2="886.94" y2="2722.58"/><line class="cls-23" x1="1060.18" y1="2639.94" x2="1060.18" y2="2647.07"/><line class="cls-23" x1="1051.38" y1="2647.07" x2="1046.77" y2="2643.58"/><line class="cls-23" x1="1069" y1="2647.07" x2="1074.09" y2="2643.58"/><line class="cls-23" x1="683.65" y1="2695.16" x2="683.65" y2="2702.29"/><line class="cls-23" x1="674.84" y1="2702.29" x2="670.24" y2="2698.8"/><line class="cls-23" x1="692.46" y1="2702.29" x2="697.56" y2="2698.8"/><line class="cls-23" x1="523.82" y1="2741.25" x2="523.82" y2="2748.38"/><line class="cls-23" x1="515.01" y1="2748.38" x2="510.41" y2="2744.89"/><line class="cls-23" x1="532.63" y1="2748.38" x2="537.72" y2="2744.89"/><line class="cls-23" x1="992.15" y1="2713.5" x2="992.15" y2="2720.63"/><line class="cls-23" x1="983.34" y1="2720.63" x2="978.74" y2="2717.14"/><line class="cls-23" x1="1000.96" y1="2720.63" x2="1006.05" y2="2717.14"/><line class="cls-23" x1="770.97" y1="2734.13" x2="770.97" y2="2741.25"/><line class="cls-23" x1="762.17" y1="2741.25" x2="757.56" y2="2737.76"/><line class="cls-23" x1="779.79" y1="2741.25" x2="784.88" y2="2737.76"/><path class="cls-2" d="M1298.72,2315s-35-122.15-668.31-216C18.06,2008.33-6.37,1802.68-7.12,1778.62v157.87s44.84,147.19,564.84,256.75c460.93,97.11,581.16,243.83,581.16,381.61,0,118.73-72.27,214.72-427.3,214.72-644.26,0-718.69,216-718.69,216V2499.46h0V4161.28H1287.59Z"/><path class="cls-78" d="M137.9,3009.8a40.65,40.65,0,0,0,6.79.56c14.22,0,25.75-7.17,25.75-16s-11.53-16-25.75-16-25.75,7.17-25.75,16c0,3.7,2,7.11,5.41,9.83l17.54-8.11Z"/><path class="cls-78" d="M108.07,2983.26a20.33,20.33,0,0,1-3.4.28c-7.11,0-12.88-3.59-12.88-8s5.77-8,12.88-8,12.88,3.59,12.88,8a6.39,6.39,0,0,1-2.71,4.91l-8.77-4.06Z"/><path class="cls-78" d="M244.59,3153.93a21.37,21.37,0,0,0,3.57.3c7.48,0,13.54-3.77,13.54-8.42s-6.06-8.42-13.54-8.42-13.54,3.77-13.54,8.42a6.72,6.72,0,0,0,2.84,5.17l9.22-4.27Z"/><path class="cls-78" d="M211.09,3183.55a39,39,0,0,1-6.51.54c-13.64,0-24.7-6.88-24.7-15.37s11.06-15.37,24.7-15.37,24.7,6.88,24.7,15.37c0,3.55-1.94,6.82-5.19,9.43l-16.82-7.78Z"/><path class="cls-78" d="M396,2838.33a20.33,20.33,0,0,1-3.4.28c-7.11,0-12.88-3.59-12.88-8s5.77-8,12.88-8,12.88,3.59,12.88,8a6.39,6.39,0,0,1-2.71,4.91l-8.77-4.06Z"/><path class="cls-79" d="M-7.17,4540.39s154.2-45.79,374.65-26.44,296.44,96.93,920.84,96.93"/><path class="cls-80" d="M-7.17,4528.43S147,4482.63,367.48,4502s297,96.31,920.84,91.58"/><path class="cls-81" d="M-7.17,4516.47S147,4470.67,367.48,4490s297.53,95.68,920.84,86.23"/><path class="cls-82" d="M-7.17,4504.5s154.2-45.79,374.65-26.44,298.07,95.06,920.84,80.89"/><path class="cls-83" d="M-7.17,4492.54s154.2-45.79,374.65-26.44,298.62,94.43,920.84,75.54"/><path class="cls-84" d="M-7.17,4480.58s154.2-45.79,374.65-26.44,299.16,93.81,920.84,70.19"/><path class="cls-85" d="M-7.17,4468.62s154.2-45.79,374.65-26.44,299.71,93.18,920.84,64.84"/><path class="cls-86" d="M-7.17,4456.65s154.2-45.79,374.65-26.44,300.25,92.56,920.84,59.49"/><path class="cls-87" d="M-7.17,4444.69s154.2-45.79,374.65-26.44,300.79,91.93,920.84,54.14"/><path class="cls-78" d="M-7.17,4541.39s154.2-45.79,374.65-26.44,272.52,85.27,920.84,80.47V4817H-7.17Z"/><line class="cls-23" x1="63.38" y1="4691.48" x2="63.38" y2="4698.61"/><line class="cls-23" x1="72.19" y1="4698.61" x2="76.8" y2="4695.12"/><line class="cls-23" x1="54.57" y1="4698.61" x2="49.48" y2="4695.12"/><line class="cls-23" x1="41.68" y1="4621.88" x2="41.68" y2="4629.01"/><line class="cls-23" x1="50.49" y1="4629.01" x2="55.09" y2="4625.51"/><line class="cls-23" x1="32.87" y1="4629.01" x2="27.78" y2="4625.51"/><line class="cls-23" x1="221.05" y1="4500.92" x2="221.05" y2="4515.18"/><line class="cls-23" x1="229.86" y1="4515.18" x2="234.47" y2="4511.69"/><line class="cls-23" x1="212.24" y1="4515.18" x2="207.15" y2="4511.69"/><ellipse class="cls-24" cx="221.05" cy="4491.73" rx="10.45" ry="5.81"/><polyline class="cls-23" points="236.69 4483.86 232.71 4483.86 231.5 4477.65"/><line class="cls-23" x1="1216.34" y1="4735.15" x2="1216.34" y2="4749.41"/><line class="cls-23" x1="1225.15" y1="4749.41" x2="1229.75" y2="4745.92"/><line class="cls-23" x1="1207.53" y1="4749.41" x2="1202.43" y2="4745.92"/><ellipse class="cls-24" cx="1216.34" cy="4725.96" rx="10.45" ry="5.81"/><line class="cls-23" x1="905.97" y1="4629.71" x2="905.97" y2="4636.84"/><line class="cls-23" x1="914.78" y1="4636.84" x2="919.38" y2="4633.35"/><line class="cls-23" x1="897.16" y1="4636.84" x2="892.06" y2="4633.35"/><line class="cls-23" x1="161.19" y1="4509.92" x2="161.19" y2="4517.05"/><line class="cls-23" x1="170" y1="4517.05" x2="174.6" y2="4513.55"/><line class="cls-23" x1="152.38" y1="4517.05" x2="147.28" y2="4513.55"/><line class="cls-23" x1="32.87" y1="4526.59" x2="32.87" y2="4533.72"/><line class="cls-23" x1="41.68" y1="4533.72" x2="46.29" y2="4530.23"/><line class="cls-23" x1="24.06" y1="4533.72" x2="18.97" y2="4530.23"/><line class="cls-23" x1="439.28" y1="4733.63" x2="439.28" y2="4740.76"/><line class="cls-23" x1="448.09" y1="4740.76" x2="452.7" y2="4737.27"/><line class="cls-23" x1="430.47" y1="4740.76" x2="425.38" y2="4737.27"/><line class="cls-23" x1="1144.24" y1="4766.4" x2="1144.24" y2="4773.53"/><line class="cls-23" x1="1153.04" y1="4773.53" x2="1157.65" y2="4770.03"/><line class="cls-23" x1="1135.43" y1="4773.53" x2="1130.33" y2="4770.03"/><line class="cls-23" x1="98.08" y1="4760.22" x2="98.08" y2="4767.35"/><line class="cls-23" x1="106.88" y1="4767.35" x2="111.49" y2="4763.85"/><line class="cls-23" x1="89.27" y1="4767.35" x2="84.17" y2="4763.85"/><line class="cls-23" x1="699.07" y1="4611.22" x2="699.07" y2="4618.35"/><line class="cls-23" x1="707.88" y1="4618.35" x2="712.49" y2="4614.86"/><line class="cls-23" x1="690.26" y1="4618.35" x2="685.17" y2="4614.86"/><line class="cls-23" x1="169.08" y1="4749.64" x2="169.08" y2="4756.77"/><line class="cls-23" x1="177.88" y1="4756.77" x2="182.49" y2="4753.27"/><line class="cls-23" x1="160.27" y1="4756.77" x2="155.17" y2="4753.27"/><line class="cls-23" x1="380.94" y1="4779.35" x2="380.94" y2="4786.48"/><line class="cls-23" x1="389.75" y1="4786.48" x2="394.35" y2="4782.99"/><line class="cls-23" x1="372.13" y1="4786.48" x2="367.04" y2="4782.99"/><line class="cls-23" x1="842.15" y1="4649.15" x2="842.15" y2="4656.28"/><line class="cls-23" x1="850.96" y1="4656.28" x2="855.56" y2="4652.79"/><line class="cls-23" x1="833.34" y1="4656.28" x2="828.25" y2="4652.79"/><line class="cls-23" x1="710.07" y1="4751" x2="710.07" y2="4758.13"/><line class="cls-23" x1="718.88" y1="4758.13" x2="723.48" y2="4754.64"/><line class="cls-23" x1="701.26" y1="4758.13" x2="696.16" y2="4754.64"/><line class="cls-23" x1="778.66" y1="4776.36" x2="778.66" y2="4783.49"/><line class="cls-23" x1="787.46" y1="4783.49" x2="792.07" y2="4780"/><line class="cls-23" x1="769.84" y1="4783.49" x2="764.75" y2="4780"/><line class="cls-23" x1="243.47" y1="4777.61" x2="243.47" y2="4784.74"/><line class="cls-23" x1="252.28" y1="4784.74" x2="256.88" y2="4781.24"/><line class="cls-23" x1="234.66" y1="4784.74" x2="229.57" y2="4781.24"/><line class="cls-23" x1="538.8" y1="4772.87" x2="538.8" y2="4780"/><line class="cls-23" x1="547.61" y1="4780" x2="552.21" y2="4776.51"/><line class="cls-23" x1="529.99" y1="4780" x2="524.9" y2="4776.51"/><path class="cls-2" d="M860.36,246.07c-505.68,0-915.62,84.64-915.62,189s409.94,189,915.62,189c169.9,0,329-9.55,465.35-26.2V272.27C1189.35,255.62,1030.26,246.07,860.36,246.07Z"/><line class="cls-88" x1="616.8" y1="314.12" x2="616.8" y2="321.25"/><line class="cls-88" x1="607.99" y1="321.25" x2="603.38" y2="317.76"/><line class="cls-88" x1="625.61" y1="321.25" x2="630.7" y2="317.76"/><line class="cls-88" x1="538.97" y1="268.97" x2="538.97" y2="276.1"/><line class="cls-88" x1="530.16" y1="276.1" x2="525.56" y2="272.6"/><line class="cls-88" x1="547.78" y1="276.1" x2="552.88" y2="272.6"/><line class="cls-88" x1="612.41" y1="529.71" x2="612.41" y2="543.97"/><line class="cls-88" x1="603.6" y1="543.97" x2="599" y2="540.48"/><line class="cls-88" x1="621.22" y1="543.97" x2="626.31" y2="540.48"/><ellipse class="cls-89" cx="612.41" cy="520.53" rx="10.45" ry="5.81"/><polyline class="cls-88" points="596.78 512.66 600.75 512.66 601.96 506.44"/><line class="cls-88" x1="141.9" y1="469.06" x2="141.9" y2="483.32"/><line class="cls-88" x1="133.09" y1="483.32" x2="128.49" y2="479.83"/><line class="cls-88" x1="150.71" y1="483.32" x2="155.81" y2="479.83"/><ellipse class="cls-89" cx="141.9" cy="459.87" rx="10.45" ry="5.81"/><line class="cls-88" x1="166.97" y1="536.12" x2="166.97" y2="543.25"/><line class="cls-88" x1="158.16" y1="543.25" x2="153.56" y2="539.76"/><line class="cls-88" x1="175.78" y1="543.25" x2="180.87" y2="539.76"/><line class="cls-88" x1="61.03" y1="404.87" x2="61.03" y2="412"/><line class="cls-88" x1="52.22" y1="412" x2="47.62" y2="408.51"/><line class="cls-88" x1="69.84" y1="412" x2="74.93" y2="408.51"/><line class="cls-88" x1="525.77" y1="499.31" x2="525.77" y2="506.44"/><line class="cls-88" x1="516.97" y1="506.44" x2="512.36" y2="502.95"/><line class="cls-88" x1="534.59" y1="506.44" x2="539.68" y2="502.95"/><line class="cls-88" x1="374.01" y1="527.06" x2="374.01" y2="534.19"/><line class="cls-88" x1="365.2" y1="534.19" x2="360.6" y2="530.7"/><line class="cls-88" x1="382.82" y1="534.19" x2="387.91" y2="530.7"/><line class="cls-88" x1="256.02" y1="498.31" x2="256.02" y2="505.44"/><line class="cls-88" x1="247.22" y1="505.44" x2="242.61" y2="501.94"/><line class="cls-88" x1="264.84" y1="505.44" x2="269.93" y2="501.94"/><line class="cls-88" x1="624.96" y1="380.4" x2="624.96" y2="387.53"/><line class="cls-88" x1="616.15" y1="387.53" x2="611.55" y2="384.04"/><line class="cls-88" x1="633.77" y1="387.53" x2="638.86" y2="384.04"/><line class="cls-88" x1="321.47" y1="484.91" x2="321.47" y2="492.04"/><line class="cls-88" x1="312.67" y1="492.04" x2="308.06" y2="488.55"/><line class="cls-88" x1="330.29" y1="492.04" x2="335.38" y2="488.55"/><line class="cls-88" x1="594.87" y1="441.83" x2="594.87" y2="448.96"/><line class="cls-88" x1="586.06" y1="448.96" x2="581.46" y2="445.47"/><line class="cls-88" x1="603.68" y1="448.96" x2="608.77" y2="445.47"/><line class="cls-88" x1="444.96" y1="541.13" x2="444.96" y2="548.26"/><line class="cls-88" x1="436.15" y1="548.26" x2="431.55" y2="544.77"/><line class="cls-88" x1="453.77" y1="548.26" x2="458.86" y2="544.77"/><line class="cls-88" x1="657.85" y1="423.11" x2="657.85" y2="430.24"/><line class="cls-88" x1="649.05" y1="430.24" x2="644.44" y2="426.75"/><line class="cls-88" x1="666.67" y1="430.24" x2="671.76" y2="426.75"/><line class="cls-88" x1="236.44" y1="349.12" x2="236.44" y2="356.25"/><line class="cls-88" x1="227.64" y1="356.25" x2="223.03" y2="352.76"/><line class="cls-88" x1="245.26" y1="356.25" x2="250.35" y2="352.76"/><line class="cls-88" x1="189.19" y1="388.52" x2="189.19" y2="395.65"/><line class="cls-88" x1="180.38" y1="395.65" x2="175.78" y2="392.16"/><line class="cls-88" x1="198" y1="395.65" x2="203.1" y2="392.16"/><line class="cls-88" x1="525.77" y1="561.49" x2="525.77" y2="568.62"/><line class="cls-88" x1="516.97" y1="568.62" x2="512.36" y2="565.13"/><line class="cls-88" x1="534.59" y1="568.62" x2="539.68" y2="565.13"/><line class="cls-88" x1="261.08" y1="426.44" x2="261.08" y2="433.57"/><line class="cls-88" x1="252.27" y1="433.57" x2="247.67" y2="430.08"/><line class="cls-88" x1="269.89" y1="433.57" x2="274.98" y2="430.08"/></g></svg>