<svg id="Button_bg" xmlns="http://www.w3.org/2000/svg" viewBox="0 0 1280 650"><defs><style>.cls-1,.cls-10,.cls-11,.cls-12,.cls-3,.cls-4,.cls-5,.cls-6,.cls-7,.cls-8,.cls-9{fill:#004864;}.cls-2{fill:#00364b;}.cls-13,.cls-14,.cls-3,.cls-4{stroke:#00364b;}.cls-10,.cls-11,.cls-12,.cls-13,.cls-14,.cls-3,.cls-4,.cls-5,.cls-6,.cls-7,.cls-8,.cls-9{stroke-linecap:round;}.cls-11,.cls-13,.cls-3,.cls-5,.cls-7,.cls-9{stroke-linejoin:round;}.cls-11,.cls-3,.cls-5,.cls-7,.cls-9{stroke-width:5.85px;}.cls-10,.cls-12,.cls-14,.cls-4,.cls-6,.cls-8{stroke-miterlimit:10;}.cls-10,.cls-12,.cls-4,.cls-6,.cls-8{stroke-width:7.15px;}.cls-5,.cls-6{stroke:#003a51;}.cls-7,.cls-8{stroke:#003f58;}.cls-10,.cls-9{stroke:#00435e;}.cls-11,.cls-12{stroke:#004864;}.cls-13,.cls-14{fill:none;stroke-width:6.34px;}</style></defs><title>Rethink Taiwan_Team</title><rect class="cls-1" x="-50.28" y="31.01" width="1398" height="628.99"/><rect class="cls-2" x="635.62" y="-688.16" width="8.8" height="1379.81" transform="translate(637.14 641.75) rotate(-89.9)"/><rect class="cls-2" x="635.69" y="-683.23" width="8.64" height="1379.81" transform="translate(632.2 646.67) rotate(-89.9)"/><rect class="cls-2" x="635.76" y="-678.29" width="8.49" height="1379.81" transform="translate(627.25 651.59) rotate(-89.9)"/><rect class="cls-2" x="635.82" y="-673.35" width="8.34" height="1379.81" transform="translate(622.31 656.51) rotate(-89.9)"/><rect class="cls-2" x="635.89" y="-668.42" width="8.19" height="1379.81" transform="translate(617.37 661.43) rotate(-89.9)"/><rect class="cls-2" x="635.96" y="-663.48" width="8.04" height="1379.81" transform="translate(612.42 666.35) rotate(-89.9)"/><rect class="cls-2" x="636.03" y="-658.55" width="7.89" height="1379.81" transform="translate(607.48 671.27) rotate(-89.9)"/><rect class="cls-2" x="636.1" y="-653.61" width="7.74" height="1379.81" transform="translate(602.54 676.2) rotate(-89.9)"/><rect class="cls-2" x="636.17" y="-648.67" width="7.58" height="1379.81" transform="translate(597.59 681.12) rotate(-89.9)"/><rect class="cls-2" x="636.24" y="-643.74" width="7.43" height="1379.81" transform="translate(592.65 686.04) rotate(-89.9)"/><rect class="cls-2" x="636.31" y="-638.8" width="7.28" height="1379.8" transform="translate(587.71 690.96) rotate(-89.9)"/><rect class="cls-2" x="636.37" y="-633.86" width="7.13" height="1379.8" transform="translate(582.76 695.88) rotate(-89.9)"/><rect class="cls-2" x="636.44" y="-628.93" width="6.98" height="1379.8" transform="translate(577.82 700.8) rotate(-89.9)"/><rect class="cls-2" x="636.51" y="-623.99" width="6.83" height="1379.8" transform="translate(572.87 705.72) rotate(-89.9)"/><rect class="cls-2" x="636.58" y="-619.05" width="6.67" height="1379.8" transform="translate(567.93 710.64) rotate(-89.9)"/><rect class="cls-2" x="636.65" y="-614.12" width="6.52" height="1379.8" transform="translate(562.99 715.56) rotate(-89.9)"/><rect class="cls-2" x="636.72" y="-609.18" width="6.37" height="1379.8" transform="translate(558.04 720.48) rotate(-89.9)"/><rect class="cls-2" x="636.79" y="-604.24" width="6.22" height="1379.8" transform="translate(553.1 725.4) rotate(-89.9)"/><rect class="cls-2" x="636.86" y="-599.31" width="6.07" height="1379.8" transform="translate(548.16 730.32) rotate(-89.9)"/><rect class="cls-2" x="636.92" y="-594.37" width="5.92" height="1379.8" transform="translate(543.21 735.24) rotate(-89.9)"/><rect class="cls-2" x="636.99" y="-589.43" width="5.77" height="1379.8" transform="translate(538.27 740.16) rotate(-89.9)"/><rect class="cls-2" x="637.06" y="-584.5" width="5.61" height="1379.8" transform="translate(533.33 745.08) rotate(-89.9)"/><rect class="cls-2" x="637.13" y="-579.56" width="5.46" height="1379.8" transform="translate(528.38 750.01) rotate(-89.9)"/><rect class="cls-2" x="637.2" y="-574.62" width="5.31" height="1379.8" transform="translate(523.44 754.93) rotate(-89.9)"/><rect class="cls-2" x="637.27" y="-569.69" width="5.16" height="1379.8" transform="translate(518.5 759.85) rotate(-89.9)"/><rect class="cls-2" x="637.34" y="-564.75" width="5.01" height="1379.8" transform="translate(513.55 764.77) rotate(-89.9)"/><rect class="cls-2" x="637.41" y="-559.82" width="4.86" height="1379.8" transform="translate(508.61 769.69) rotate(-89.9)"/><rect class="cls-2" x="637.47" y="-554.88" width="4.7" height="1379.8" transform="translate(503.67 774.61) rotate(-89.9)"/><rect class="cls-2" x="637.54" y="-549.94" width="4.55" height="1379.8" transform="translate(498.72 779.53) rotate(-89.9)"/><rect class="cls-2" x="637.61" y="-545.01" width="4.4" height="1379.8" transform="translate(493.78 784.45) rotate(-89.9)"/><rect class="cls-2" x="637.68" y="-540.07" width="4.25" height="1379.8" transform="translate(488.84 789.37) rotate(-89.9)"/><rect class="cls-2" x="637.75" y="-535.13" width="4.1" height="1379.8" transform="translate(483.89 794.29) rotate(-89.9)"/><rect class="cls-2" x="637.82" y="-530.2" width="3.95" height="1379.8" transform="translate(478.95 799.21) rotate(-89.9)"/><rect class="cls-2" x="637.89" y="-525.26" width="3.79" height="1379.8" transform="translate(474 804.13) rotate(-89.9)"/><rect class="cls-2" x="637.96" y="-520.32" width="3.64" height="1379.8" transform="translate(469.06 809.05) rotate(-89.9)"/><rect class="cls-2" x="638.02" y="-515.39" width="3.49" height="1379.8" transform="translate(464.12 813.97) rotate(-89.9)"/><rect class="cls-2" x="638.09" y="-510.45" width="3.34" height="1379.8" transform="translate(459.17 818.89) rotate(-89.9)"/><rect class="cls-2" x="638.16" y="-505.51" width="3.19" height="1379.8" transform="translate(454.23 823.82) rotate(-89.9)"/><rect class="cls-2" x="638.23" y="-500.58" width="3.04" height="1379.8" transform="translate(449.29 828.74) rotate(-89.9)"/><rect class="cls-2" x="638.3" y="-495.64" width="2.89" height="1379.8" transform="translate(444.34 833.66) rotate(-89.9)"/><rect class="cls-2" x="638.37" y="-490.7" width="2.73" height="1379.8" transform="translate(439.4 838.58) rotate(-89.9)"/><rect class="cls-2" x="638.44" y="-485.77" width="2.58" height="1379.8" transform="translate(434.46 843.5) rotate(-89.9)"/><rect class="cls-2" x="638.5" y="-480.83" width="2.43" height="1379.8" transform="translate(429.51 848.42) rotate(-89.9)"/><rect class="cls-2" x="638.57" y="-475.89" width="2.28" height="1379.8" transform="translate(424.57 853.34) rotate(-89.9)"/><rect class="cls-2" x="638.64" y="-470.96" width="2.13" height="1379.8" transform="translate(419.63 858.26) rotate(-89.9)"/><rect class="cls-2" x="638.71" y="-466.02" width="1.98" height="1379.8" transform="translate(414.68 863.18) rotate(-89.9)"/><rect class="cls-2" x="638.78" y="-461.09" width="1.82" height="1379.8" transform="translate(409.74 868.1) rotate(-89.9)"/><rect class="cls-2" x="638.85" y="-456.15" width="1.67" height="1379.8" transform="translate(404.8 873.02) rotate(-89.9)"/><rect class="cls-2" x="638.92" y="-451.21" width="1.52" height="1379.8" transform="translate(399.85 877.94) rotate(-89.9)"/><rect class="cls-2" x="638.99" y="-446.28" width="1.37" height="1379.8" transform="translate(394.91 882.86) rotate(-89.9)"/><rect class="cls-2" x="639.05" y="-441.34" width="1.22" height="1379.8" transform="translate(389.96 887.78) rotate(-89.9)"/><rect class="cls-2" x="639.12" y="-436.4" width="1.07" height="1379.8" transform="translate(385.02 892.7) rotate(-89.9)"/><rect class="cls-2" x="639.19" y="-431.47" width="0.92" height="1379.8" transform="translate(380.08 897.62) rotate(-89.9)"/><rect class="cls-2" x="639.26" y="-426.53" width="0.76" height="1379.8" transform="translate(375.13 902.55) rotate(-89.9)"/><rect class="cls-2" x="639.33" y="-421.59" width="0.61" height="1379.8" transform="translate(370.19 907.47) rotate(-89.9)"/><rect class="cls-2" x="639.4" y="-416.66" width="0.46" height="1379.8" transform="translate(365.25 912.39) rotate(-89.9)"/><rect class="cls-2" x="639.47" y="-411.72" width="0.31" height="1379.8" transform="translate(360.3 917.31) rotate(-89.9)"/><rect class="cls-2" x="639.54" y="-406.78" width="0.16" height="1379.8" transform="translate(355.36 922.23) rotate(-89.9)"/><rect class="cls-2" x="639.6" y="-401.85" width="0.01" height="1379.8" transform="translate(350.42 927.15) rotate(-89.9)"/><path class="cls-1" d="M312.66,210.78l-35.63,61A19.43,19.43,0,0,0,293.8,301h74a19.43,19.43,0,0,0,16.44-29.77l-38.36-61A19.43,19.43,0,0,0,312.66,210.78Z"/><path class="cls-1" d="M314.95,179.32,283.8,232.61a17,17,0,0,0,14.66,25.55h64.68a17,17,0,0,0,14.37-26L344,178.84A17,17,0,0,0,314.95,179.32Z"/><path class="cls-1" d="M317.78,156.45,292.2,200.22a14,14,0,0,0,12,21h53.12a14,14,0,0,0,11.8-21.37l-27.54-43.77A14,14,0,0,0,317.78,156.45Z"/><line class="cls-3" x1="328.64" y1="278.61" x2="304.94" y2="251.88"/><line class="cls-3" x1="330.81" y1="298.57" x2="357.11" y2="272.26"/><line class="cls-4" x1="330.81" y1="373.61" x2="330.81" y2="183.03"/><line class="cls-3" x1="328.64" y1="246.22" x2="312.61" y2="226.46"/><line class="cls-3" x1="330.99" y1="261.86" x2="351.98" y2="240.87"/><line class="cls-3" x1="328.64" y1="211.83" x2="317.36" y2="197.93"/><line class="cls-3" x1="330.81" y1="231.04" x2="344.71" y2="217.13"/><path class="cls-1" d="M234.26,229.16l-35.63,61a19.43,19.43,0,0,0,16.77,29.23h74a19.43,19.43,0,0,0,16.44-29.77l-38.36-61A19.43,19.43,0,0,0,234.26,229.16Z"/><path class="cls-1" d="M236.55,197.7,205.4,251a17,17,0,0,0,14.66,25.55h64.68a17,17,0,0,0,14.37-26l-33.53-53.29A17,17,0,0,0,236.55,197.7Z"/><path class="cls-1" d="M239.38,174.83,213.8,218.6a14,14,0,0,0,12,21H279a14,14,0,0,0,11.8-21.37l-27.54-43.77A14,14,0,0,0,239.38,174.83Z"/><line class="cls-5" x1="250.24" y1="296.99" x2="226.54" y2="270.27"/><line class="cls-5" x1="252.4" y1="316.95" x2="278.71" y2="290.64"/><line class="cls-6" x1="252.4" y1="392" x2="252.4" y2="201.41"/><line class="cls-5" x1="250.24" y1="264.6" x2="234.21" y2="244.84"/><line class="cls-5" x1="252.58" y1="280.24" x2="273.58" y2="259.25"/><line class="cls-5" x1="250.24" y1="230.21" x2="238.96" y2="216.31"/><line class="cls-5" x1="252.4" y1="249.42" x2="266.31" y2="235.52"/><path class="cls-1" d="M155.86,247.54l-35.63,61A19.43,19.43,0,0,0,137,337.75h74A19.43,19.43,0,0,0,227.45,308l-38.36-61A19.43,19.43,0,0,0,155.86,247.54Z"/><path class="cls-1" d="M158.15,216.08,127,269.37a17,17,0,0,0,14.66,25.55h64.68a17,17,0,0,0,14.37-26L187.18,215.6A17,17,0,0,0,158.15,216.08Z"/><path class="cls-1" d="M161,193.22,135.4,237a14,14,0,0,0,12,21h53.12a14,14,0,0,0,11.8-21.37l-27.54-43.77A14,14,0,0,0,161,193.22Z"/><line class="cls-7" x1="171.83" y1="315.37" x2="148.14" y2="288.65"/><line class="cls-7" x1="174" y1="335.33" x2="200.31" y2="309.02"/><line class="cls-8" x1="174" y1="410.38" x2="174" y2="219.79"/><line class="cls-7" x1="171.83" y1="282.98" x2="155.81" y2="263.22"/><line class="cls-7" x1="174.18" y1="298.62" x2="195.18" y2="277.63"/><line class="cls-7" x1="171.83" y1="248.59" x2="160.56" y2="234.69"/><line class="cls-7" x1="174" y1="267.8" x2="187.9" y2="253.9"/><path class="cls-1" d="M77.46,265.92l-35.63,61A19.43,19.43,0,0,0,58.6,356.13h74A19.43,19.43,0,0,0,149,326.35l-38.36-61A19.43,19.43,0,0,0,77.46,265.92Z"/><path class="cls-1" d="M79.75,234.46,48.6,287.76a17,17,0,0,0,14.66,25.55h64.68a17,17,0,0,0,14.37-26L108.78,234A17,17,0,0,0,79.75,234.46Z"/><path class="cls-1" d="M82.58,211.6,57,255.37a14,14,0,0,0,12,21h53.12A14,14,0,0,0,134,255l-27.54-43.77A14,14,0,0,0,82.58,211.6Z"/><line class="cls-9" x1="93.43" y1="333.75" x2="69.73" y2="307.03"/><line class="cls-9" x1="95.6" y1="353.71" x2="121.91" y2="327.41"/><line class="cls-10" x1="95.6" y1="428.76" x2="95.6" y2="238.17"/><line class="cls-9" x1="93.43" y1="301.36" x2="77.41" y2="281.6"/><line class="cls-9" x1="95.78" y1="317.01" x2="116.77" y2="296.01"/><line class="cls-9" x1="93.43" y1="266.97" x2="82.16" y2="253.07"/><line class="cls-9" x1="95.6" y1="286.18" x2="109.5" y2="272.28"/><path class="cls-1" d="M-.94,284.3l-35.63,61A19.43,19.43,0,0,0-19.8,374.51h74a19.43,19.43,0,0,0,16.44-29.77l-38.36-61A19.43,19.43,0,0,0-.94,284.3Z"/><path class="cls-1" d="M1.34,252.84-29.8,306.14a17,17,0,0,0,14.66,25.55H49.54a17,17,0,0,0,14.37-26L30.38,252.37A17,17,0,0,0,1.34,252.84Z"/><path class="cls-1" d="M4.18,230-21.4,273.75a14,14,0,0,0,12,21H43.76a14,14,0,0,0,11.8-21.37L28,229.59A14,14,0,0,0,4.18,230Z"/><line class="cls-11" x1="15.03" y1="352.14" x2="-8.67" y2="325.41"/><line class="cls-11" x1="17.2" y1="372.09" x2="43.51" y2="345.79"/><line class="cls-12" x1="17.2" y1="447.14" x2="17.2" y2="256.56"/><line class="cls-11" x1="15.03" y1="319.74" x2="-1" y2="299.98"/><line class="cls-11" x1="17.38" y1="335.39" x2="38.37" y2="314.39"/><line class="cls-11" x1="15.03" y1="285.36" x2="3.75" y2="271.45"/><line class="cls-11" x1="17.2" y1="304.56" x2="31.1" y2="290.66"/><path class="cls-1" d="M1347.66,275c-141.12-18.35-308.2-29-487.3-29-505.68,0-915.62,84.64-915.62,189s409.94,189,915.62,189c179.1,0,346.18-10.62,487.3-29Z"/><line class="cls-13" x1="612.41" y1="529.71" x2="612.41" y2="543.97"/><line class="cls-13" x1="603.6" y1="543.97" x2="599" y2="540.48"/><line class="cls-13" x1="621.22" y1="543.97" x2="626.31" y2="540.48"/><ellipse class="cls-14" cx="612.41" cy="520.53" rx="10.45" ry="5.81"/><polyline class="cls-13" points="596.78 512.66 600.75 512.66 601.96 506.44"/><line class="cls-13" x1="141.9" y1="469.06" x2="141.9" y2="483.32"/><line class="cls-13" x1="133.09" y1="483.32" x2="128.49" y2="479.83"/><line class="cls-13" x1="150.71" y1="483.32" x2="155.81" y2="479.83"/><ellipse class="cls-14" cx="141.9" cy="459.87" rx="10.45" ry="5.81"/><line class="cls-13" x1="166.97" y1="536.12" x2="166.97" y2="543.25"/><line class="cls-13" x1="158.16" y1="543.25" x2="153.56" y2="539.76"/><line class="cls-13" x1="175.78" y1="543.25" x2="180.87" y2="539.76"/><line class="cls-13" x1="61.03" y1="404.87" x2="61.03" y2="412"/><line class="cls-13" x1="52.22" y1="412" x2="47.62" y2="408.51"/><line class="cls-13" x1="69.84" y1="412" x2="74.93" y2="408.51"/><line class="cls-13" x1="525.77" y1="499.31" x2="525.77" y2="506.44"/><line class="cls-13" x1="516.97" y1="506.44" x2="512.36" y2="502.95"/><line class="cls-13" x1="534.59" y1="506.44" x2="539.68" y2="502.95"/><line class="cls-13" x1="374.01" y1="527.06" x2="374.01" y2="534.19"/><line class="cls-13" x1="365.2" y1="534.19" x2="360.6" y2="530.7"/><line class="cls-13" x1="382.82" y1="534.19" x2="387.91" y2="530.7"/><line class="cls-13" x1="256.02" y1="498.31" x2="256.02" y2="505.44"/><line class="cls-13" x1="247.22" y1="505.44" x2="242.61" y2="501.94"/><line class="cls-13" x1="264.84" y1="505.44" x2="269.93" y2="501.94"/><line class="cls-13" x1="321.47" y1="484.91" x2="321.47" y2="492.04"/><line class="cls-13" x1="312.67" y1="492.04" x2="308.06" y2="488.55"/><line class="cls-13" x1="330.29" y1="492.04" x2="335.38" y2="488.55"/><line class="cls-13" x1="444.96" y1="541.13" x2="444.96" y2="548.26"/><line class="cls-13" x1="436.15" y1="548.26" x2="431.55" y2="544.77"/><line class="cls-13" x1="453.77" y1="548.26" x2="458.86" y2="544.77"/><line class="cls-13" x1="236.44" y1="349.12" x2="236.44" y2="356.25"/><line class="cls-13" x1="227.64" y1="356.25" x2="223.03" y2="352.76"/><line class="cls-13" x1="245.26" y1="356.25" x2="250.35" y2="352.76"/><line class="cls-13" x1="189.19" y1="388.52" x2="189.19" y2="395.65"/><line class="cls-13" x1="180.38" y1="395.65" x2="175.78" y2="392.16"/><line class="cls-13" x1="198" y1="395.65" x2="203.1" y2="392.16"/><line class="cls-13" x1="525.77" y1="561.49" x2="525.77" y2="568.62"/><line class="cls-13" x1="516.97" y1="568.62" x2="512.36" y2="565.13"/><line class="cls-13" x1="534.59" y1="568.62" x2="539.68" y2="565.13"/><line class="cls-13" x1="261.08" y1="426.44" x2="261.08" y2="433.57"/><line class="cls-13" x1="252.27" y1="433.57" x2="247.67" y2="430.08"/><line class="cls-13" x1="269.89" y1="433.57" x2="274.98" y2="430.08"/></svg>