<svg xmlns="http://www.w3.org/2000/svg" xmlns:xlink="http://www.w3.org/1999/xlink" viewBox="0 0 121.01 210.93"><defs><style>.cls-1{fill:none;stroke-linecap:round;stroke-miterlimit:10;stroke-width:11px;stroke:url(#未命名漸層_31);}.cls-2{fill:#ff9947;}</style><linearGradient id="未命名漸層_31" x1="38.78" y1="183.02" x2="121.01" y2="183.02" gradientUnits="userSpaceOnUse"><stop offset="0" stop-color="#8fd0db"/><stop offset="0.34" stop-color="#beb99d"/><stop offset="0.64" stop-color="#e1a86f"/><stop offset="0.87" stop-color="#f79d52"/><stop offset="1" stop-color="#ff9947"/></linearGradient></defs><title>資產 156</title><g id="圖層_2" data-name="圖層 2"><g id="content"><line class="cls-1" x1="44.28" y1="205.43" x2="115.51" y2="160.62"/><path class="cls-2" d="M56,24.36H75.61c3.93,0,5.71-2.88,4-6.4L72.1,2.83c-1.74-3.52-5-3.79-7.33-.6L53,18.57C50.73,21.75,52.06,24.36,56,24.36Z"/><path class="cls-2" d="M119.22,155.77,47.64,90.31H77.36c.16-2.64.25-8.62.23-10.75l-.43-42a5.3,5.3,0,0,0-5.28-5.22H60.08a8.81,8.81,0,0,0-7.35,4.48,8.81,8.81,0,0,1-7.35,4.48H26.13a5.48,5.48,0,0,0-2.35.56l-4.4-3.75a5.5,5.5,0,0,0-7.13,8.38L29.59,61.25H15.85L9.21,55.17a5.5,5.5,0,1,0-7.42,8.12l110,100.59a5.5,5.5,0,1,0,7.42-8.12ZM43.79,52.11c2.87,0,4.59,2.06,3.81,4.57A6.38,6.38,0,0,1,45,59.94l-9.2-7.83ZM39,72.05a4.7,4.7,0,0,1,4.75,5.2l0,.29a5.75,5.75,0,0,1-4.47,5.11L27.67,72.05Z"/></g></g></svg>