<svg xmlns="http://www.w3.org/2000/svg" viewBox="0 0 104.21 127.34"><defs><style>.cls-1{fill:#ff9947;}</style></defs><title>資產 148</title><g id="圖層_2" data-name="圖層 2"><g id="content"><path class="cls-1" d="M101.76,55.55a6.32,6.32,0,0,0-6.09-5.39H45.53a6.38,6.38,0,0,1-6.14-5.38L37.9,33.43A6.12,6.12,0,0,0,32.23,28c-2.73,0-4.66,2.43-4.3,5.39l2.58,21.24a6.31,6.31,0,0,0,6.09,5.39h13l3.9,39.46H48.87c-2.73,0-4.71,2.43-4.41,5.4l2.28,22.41h9.89l-1.28-12.5a4.81,4.81,0,0,1,4.88-5.4H70.85a6.17,6.17,0,0,1,6,5.4l1.3,12.5h10L81.88,65.47a4.82,4.82,0,0,1,4.89-5.4H87a6.4,6.4,0,0,1,6.15,5.38l1.29,9.66c.4,3,2.89,5.38,5.55,5.38s4.53-2.43,4.16-5.39Z"/><path class="cls-1" d="M4.61,16.64a3.16,3.16,0,0,0,1.5,4.21l13.15,6.23A3.16,3.16,0,0,0,22,21.36L8.81,15.14A3.16,3.16,0,0,0,4.61,16.64Z"/><path class="cls-1" d="M75.83,40.63c4,0,5.25-2.59,2.86-5.75l-12.85-17c-2.4-3.16-5.68-2.79-7.3.84L51.73,34c-1.62,3.62.31,6.59,4.27,6.59Z"/><path class="cls-1" d="M0,36a3.16,3.16,0,0,0,3.16,3.16H16.48a3.16,3.16,0,0,0,0-6.32H3.16A3.16,3.16,0,0,0,0,36Z"/><path class="cls-1" d="M26.52,16.29A3.16,3.16,0,0,0,29,11.19l-7.77-10a3.16,3.16,0,1,0-5,3.89l7.77,10A3.15,3.15,0,0,0,26.52,16.29Z"/></g></g></svg>