<svg xmlns="http://www.w3.org/2000/svg" viewBox="0 0 118.05 92.84"><defs><style>.cls-1{fill:#ff9947;}</style></defs><title>資產 153</title><g id="圖層_2" data-name="圖層 2"><g id="content"><path class="cls-1" d="M54.18,24.59a3,3,0,0,0,2.67-4.32L47.56,1.65a3,3,0,0,0-5.1-.4L29.16,19.86a3,3,0,0,0,2.43,4.72Z"/><rect class="cls-1" x="62.31" y="10.97" width="9.98" height="5.12" rx="1.05" ry="1.05"/><path class="cls-1" d="M54.75,87.13l-.64-35.64A7.37,7.37,0,0,1,61.48,44h19.3A8.37,8.37,0,0,0,89,36.5L89.52,30c.36-4.12-1.79-7.48-4.77-7.48a6,6,0,0,0-5.91,5.29c-.26,2.91-3.86,5.29-8,5.29H25.77A7.81,7.81,0,0,1,18,25.61l-.41-14C17.5,7.49,15,4.11,12,4.11S6.54,7.49,6.53,11.63l0,24.84A7.52,7.52,0,0,0,14,44h8a5.85,5.85,0,0,1,6,7.35l-5.3,25.1a9.7,9.7,0,0,1-9.06,7.35H8.45A8.53,8.53,0,0,0,.16,91.25L0,92.84H52.2A7.35,7.35,0,0,0,54.75,87.13Z"/><rect class="cls-1" x="75.08" y="8.92" width="19.6" height="9.22" rx="1.65" ry="1.65"/><rect class="cls-1" x="98.09" y="7.33" width="19.96" height="12.4" rx="1.65" ry="1.65"/></g></g></svg>