<svg xmlns="http://www.w3.org/2000/svg" viewBox="0 0 128.01 172.33"><defs><style>.cls-1{fill:none;stroke:#f6f7f7;stroke-width:7px;}.cls-2{fill:#ff9947;}</style></defs><title>資產 145</title><g id="圖層_2" data-name="圖層 2"><g id="member_HL"><path class="cls-1" d="M122.72,159.27,51.14,93.81H85.92L78.82,41a6.16,6.16,0,0,0-5.92-5.18H48.77c-2.87,0-5,2-4.62,4.48s-1.75,4.48-4.62,4.48H23.9l-.24,0-3.78-3.21A5.5,5.5,0,1,0,12.75,50L30.09,64.75H19.35l-6.64-6.07a5.5,5.5,0,0,0-7.42,8.12l110,100.59a5.5,5.5,0,1,0,7.42-8.12ZM41,55.6c2.87,0,5.5,2.06,5.84,4.57A3.76,3.76,0,0,1,45.6,63.5l-9.28-7.9Zm1.8,19.95,6.86,5.84a4.27,4.27,0,0,1-4.2,4.85,4.17,4.17,0,0,0-2,.52L31.17,75.55Z"/><path class="cls-1" d="M50,27.86H69.57c3.92,0,5.26-2.61,3-5.79L60.8,5.72c-2.29-3.19-5.59-2.92-7.33.6L46,21.46C44.24,25,46,27.86,50,27.86Z"/><path class="cls-2" d="M122.72,159.27,51.14,93.81H85.92L78.82,41a6.16,6.16,0,0,0-5.92-5.18H48.77c-2.87,0-5,2-4.62,4.48s-1.75,4.48-4.62,4.48H23.9l-.24,0-3.78-3.21A5.5,5.5,0,1,0,12.75,50L30.09,64.75H19.35l-6.64-6.07a5.5,5.5,0,0,0-7.42,8.12l110,100.59a5.5,5.5,0,1,0,7.42-8.12ZM41,55.6c2.87,0,5.5,2.06,5.84,4.57A3.76,3.76,0,0,1,45.6,63.5l-9.28-7.9Zm1.8,19.95,6.86,5.84a4.27,4.27,0,0,1-4.2,4.85,4.17,4.17,0,0,0-2,.52L31.17,75.55Z"/><path class="cls-2" d="M50,27.86H69.57c3.92,0,5.26-2.61,3-5.79L60.8,5.72c-2.29-3.19-5.59-2.92-7.33.6L46,21.46C44.24,25,46,27.86,50,27.86Z"/></g></g></svg>