<svg xmlns="http://www.w3.org/2000/svg" viewBox="0 0 1102.51 180.91"><defs><style>.cls-1{fill:#8fd0db;}.cls-2{fill:#f6f7f7;}</style></defs><title>資產 154</title><g id="圖層_2" data-name="圖層 2"><g id="content"><path class="cls-1" d="M994.51,158.51H200.17a3.89,3.89,0,0,0,0,7.79H994.51a3.89,3.89,0,0,0,0-7.79Z"/><path class="cls-1" d="M448.47,173.91H3.5a3.5,3.5,0,0,0,0,7h445a3.5,3.5,0,0,0,0-7Z"/><path class="cls-1" d="M859.51,173.91H484.86a3.5,3.5,0,0,0,0,7H859.51a3.5,3.5,0,0,0,0-7Z"/><path class="cls-1" d="M1099,82.91h-9a3.5,3.5,0,0,0,0,7h9a3.5,3.5,0,0,0,0-7Z"/><path class="cls-1" d="M1051,82.91H971.8a30.7,30.7,0,0,0-7.31-.88H90.57c-8.1,0-15.75,3.17-20.75,8.58L24.51,139.73c-4.51,4.88-.41,12,6.89,12h991.44c7.27,0,11.37-7.09,6.94-12L996.49,103h31.4a3.5,3.5,0,1,0,0-7H990.15l-4.76-5.26c-.27-.29-.54-.58-.83-.86H1051a3.5,3.5,0,0,0,0-7Z"/><path class="cls-1" d="M14.83,166.3H161.16a3.89,3.89,0,0,0,0-7.79H14.83a3.89,3.89,0,0,0,0,7.79Z"/><path class="cls-2" d="M1029.12,0H33.27a8.75,8.75,0,0,0-6.89,14.16L71.69,71.93A26.37,26.37,0,0,0,92.44,82H970.77a26.37,26.37,0,0,0,20.9-10.28l44.39-57.65A8.75,8.75,0,0,0,1029.12,0Z"/><path class="cls-1" d="M981.5,18H79.5a4,4,0,0,1,0-8h902a4,4,0,1,1,0,8Z"/></g></g></svg>