<svg xmlns="http://www.w3.org/2000/svg" viewBox="0 0 128.01 172.33"><defs><style>.cls-1{fill:none;stroke:#f6f7f7;stroke-width:7px;}.cls-2{fill:#ff9947;}</style></defs><title>資產 143</title><g id="圖層_2" data-name="圖層 2"><g id="member_HL"><path class="cls-1" d="M59.49,27.86H79.11c3.93,0,5.71-2.88,4-6.4L75.6,6.33c-1.74-3.52-5-3.79-7.33-.6L56.52,22.07C54.23,25.25,55.56,27.86,59.49,27.86Z"/><path class="cls-1" d="M122.72,159.27,51.14,93.81H80.86c.16-2.64.25-8.62.23-10.75l-.43-42a5.3,5.3,0,0,0-5.28-5.22H63.58a8.81,8.81,0,0,0-7.35,4.48,8.81,8.81,0,0,1-7.35,4.48H29.63a5.48,5.48,0,0,0-2.35.56l-4.4-3.75A5.5,5.5,0,0,0,15.75,50L33.09,64.75H19.35l-6.64-6.07a5.5,5.5,0,1,0-7.42,8.12l110,100.59a5.5,5.5,0,1,0,7.42-8.12ZM47.29,55.61c2.87,0,4.59,2.06,3.81,4.57a6.38,6.38,0,0,1-2.59,3.26l-9.2-7.83ZM42.5,75.55a4.7,4.7,0,0,1,4.75,5.2l0,.29a5.75,5.75,0,0,1-4.47,5.11L31.17,75.55Z"/><path class="cls-2" d="M59.49,27.86H79.11c3.93,0,5.71-2.88,4-6.4L75.6,6.33c-1.74-3.52-5-3.79-7.33-.6L56.52,22.07C54.23,25.25,55.56,27.86,59.49,27.86Z"/><path class="cls-2" d="M122.72,159.27,51.14,93.81H80.86c.16-2.64.25-8.62.23-10.75l-.43-42a5.3,5.3,0,0,0-5.28-5.22H63.58a8.81,8.81,0,0,0-7.35,4.48,8.81,8.81,0,0,1-7.35,4.48H29.63a5.48,5.48,0,0,0-2.35.56l-4.4-3.75A5.5,5.5,0,0,0,15.75,50L33.09,64.75H19.35l-6.64-6.07a5.5,5.5,0,1,0-7.42,8.12l110,100.59a5.5,5.5,0,1,0,7.42-8.12ZM47.29,55.61c2.87,0,4.59,2.06,3.81,4.57a6.38,6.38,0,0,1-2.59,3.26l-9.2-7.83ZM42.5,75.55a4.7,4.7,0,0,1,4.75,5.2l0,.29a5.75,5.75,0,0,1-4.47,5.11L31.17,75.55Z"/></g></g></svg>