<svg xmlns="http://www.w3.org/2000/svg" viewBox="0 0 76.34 93.88"><defs><style>.cls-1{fill:#ff9947;}</style></defs><title>資產 150</title><g id="圖層_2" data-name="圖層 2"><g id="content"><path class="cls-1" d="M40.78,25.05c3.27,0,4.83-2.43,3.48-5.41L36.4,2.44c-1.36-3-4.08-3.27-6.06-.67l-14,18.53c-2,2.61-.91,4.74,2.36,4.74Z"/><path class="cls-1" d="M71.54,14.42A7,7,0,0,0,65,20.3l-1.38,5.92a7.14,7.14,0,0,1-6.83,5.88H18.22L.07,89.81a5.12,5.12,0,0,0,1.06,4.07H57.73l.57-3.8a4.73,4.73,0,0,0-4.77-5.61H42.35c-3.06,0-5.17-2.65-4.69-5.88L42.09,49.2a7.14,7.14,0,0,1,6.83-5.88h23.4l4-23C76.76,17.06,74.63,14.42,71.54,14.42Z"/></g></g></svg>