<svg xmlns="http://www.w3.org/2000/svg" viewBox="0 0 62.02 115.87"><defs><style>.cls-1{fill:#ff9947;}</style></defs><title>資產 152</title><g id="圖層_2" data-name="圖層 2"><g id="content"><path class="cls-1" d="M20.63,18.34a3.15,3.15,0,0,1-4.77-3L17.28,2.79a3.15,3.15,0,1,1,6.25.71L22.11,16A3.14,3.14,0,0,1,20.63,18.34ZM32.4,23.73,40.33,11.6a3.15,3.15,0,0,0-5.27-3.44L27.13,20.28a3.15,3.15,0,1,0,5.27,3.44Zm21-2.39a3.15,3.15,0,0,0-4.33-1L37.78,27.22a3.15,3.15,0,1,0,3.29,5.37l11.31-6.93A3.15,3.15,0,0,0,53.42,21.33ZM3.9,48.24C1.93,50.85,3,53,6.26,53H28.37c3.27,0,4.83-2.43,3.47-5.41L24,30.37c-1.36-3-4.08-3.27-6.06-.67ZM62,44.73C62,41.58,59.65,39,56.84,39s-5.11,2.57-5.11,5.72v9.42A5.74,5.74,0,0,1,46,59.86H5.79A5.74,5.74,0,0,0,.07,65.58V80.46a5.52,5.52,0,0,0-.07.76V110.5a5.39,5.39,0,0,0,5.38,5.38H32.43a5.15,5.15,0,1,0,0-10.28H15.66a5.39,5.39,0,0,1-5.38-5.38V96.73H37.77a6.1,6.1,0,0,1-.24-.83L33.79,77.33a4.51,4.51,0,0,1,4.59-5.61H56.32A5.72,5.72,0,0,0,62,66Z"/></g></g></svg>