<svg xmlns="http://www.w3.org/2000/svg" viewBox="0 0 111.21 134.34"><defs><style>.cls-1{fill:none;stroke:#f6f7f7;stroke-width:7px;}.cls-2{fill:#ff9947;}</style></defs><title>資產 142</title><g id="圖層_2" data-name="圖層 2"><g id="member_HL"><path class="cls-1" d="M105.26,59a6.32,6.32,0,0,0-6.09-5.39H49a6.38,6.38,0,0,1-6.14-5.38L41.4,36.93a6.12,6.12,0,0,0-5.66-5.38c-2.73,0-4.66,2.43-4.3,5.39L34,58.18a6.31,6.31,0,0,0,6.09,5.39h13L57,103H52.37c-2.73,0-4.71,2.43-4.41,5.4l2.28,22.41h9.89l-1.28-12.5a4.81,4.81,0,0,1,4.88-5.4H74.35a6.17,6.17,0,0,1,6,5.4l1.3,12.5h10L85.38,69a4.82,4.82,0,0,1,4.89-5.4h.25A6.4,6.4,0,0,1,96.66,69L98,78.61c.4,3,2.89,5.38,5.55,5.38s4.53-2.43,4.16-5.39Z"/><path class="cls-1" d="M8.11,20.14a3.16,3.16,0,0,0,1.5,4.21l13.15,6.23a3.16,3.16,0,0,0,2.71-5.71L12.31,18.64A3.16,3.16,0,0,0,8.11,20.14Z"/><path class="cls-1" d="M79.33,44.13c4,0,5.25-2.59,2.86-5.75l-12.85-17c-2.4-3.16-5.68-2.79-7.3.84L55.23,37.55c-1.62,3.62.31,6.59,4.27,6.59Z"/><path class="cls-1" d="M3.5,39.55a3.16,3.16,0,0,0,3.16,3.16H20a3.16,3.16,0,0,0,0-6.32H6.66A3.16,3.16,0,0,0,3.5,39.55Z"/><path class="cls-1" d="M30,19.79a3.16,3.16,0,0,0,2.49-5.1l-7.77-10a3.16,3.16,0,1,0-5,3.89l7.77,10A3.15,3.15,0,0,0,30,19.79Z"/><path class="cls-2" d="M105.26,59a6.32,6.32,0,0,0-6.09-5.39H49a6.38,6.38,0,0,1-6.14-5.38L41.4,36.93a6.12,6.12,0,0,0-5.66-5.38c-2.73,0-4.66,2.43-4.3,5.39L34,58.18a6.31,6.31,0,0,0,6.09,5.39h13L57,103H52.37c-2.73,0-4.71,2.43-4.41,5.4l2.28,22.41h9.89l-1.28-12.5a4.81,4.81,0,0,1,4.88-5.4H74.35a6.17,6.17,0,0,1,6,5.4l1.3,12.5h10L85.38,69a4.82,4.82,0,0,1,4.89-5.4h.25A6.4,6.4,0,0,1,96.66,69L98,78.61c.4,3,2.89,5.38,5.55,5.38s4.53-2.43,4.16-5.39Z"/><path class="cls-2" d="M8.11,20.14a3.16,3.16,0,0,0,1.5,4.21l13.15,6.23a3.16,3.16,0,0,0,2.71-5.71L12.31,18.64A3.16,3.16,0,0,0,8.11,20.14Z"/><path class="cls-2" d="M79.33,44.13c4,0,5.25-2.59,2.86-5.75l-12.85-17c-2.4-3.16-5.68-2.79-7.3.84L55.23,37.55c-1.62,3.62.31,6.59,4.27,6.59Z"/><path class="cls-2" d="M3.5,39.55a3.16,3.16,0,0,0,3.16,3.16H20a3.16,3.16,0,0,0,0-6.32H6.66A3.16,3.16,0,0,0,3.5,39.55Z"/><path class="cls-2" d="M30,19.79a3.16,3.16,0,0,0,2.49-5.1l-7.77-10a3.16,3.16,0,1,0-5,3.89l7.77,10A3.15,3.15,0,0,0,30,19.79Z"/></g></g></svg>