<svg xmlns="http://www.w3.org/2000/svg" viewBox="0 0 125.43 99.84"><defs><style>.cls-1{fill:none;stroke:#f6f7f7;stroke-width:7px;}.cls-2{fill:#ff9947;}</style></defs><title>資產 147</title><g id="圖層_2" data-name="圖層 2"><g id="member_HL"><path class="cls-1" d="M58.06,28.09a3,3,0,0,0,2.67-4.32L51.44,5.15a3,3,0,0,0-5.1-.4L33,23.36a3,3,0,0,0,2.43,4.72Z"/><rect class="cls-1" x="66.19" y="14.47" width="9.98" height="5.12" rx="1.05" ry="1.05"/><path class="cls-1" d="M58.63,90.63,58,55a7.37,7.37,0,0,1,7.38-7.51h19.3A8.37,8.37,0,0,0,92.83,40l.57-6.47c.36-4.12-1.79-7.48-4.77-7.48a6,6,0,0,0-5.91,5.29c-.26,2.91-3.86,5.29-8,5.29H29.65a7.81,7.81,0,0,1-7.73-7.51l-.41-14c-.12-4.13-2.67-7.51-5.65-7.51S10.42,11,10.41,15.13l0,24.84a7.52,7.52,0,0,0,7.5,7.51h8a5.85,5.85,0,0,1,6,7.35l-5.3,25.1a9.7,9.7,0,0,1-9.06,7.35H12.33A8.53,8.53,0,0,0,4,94.75l-.16,1.59h52.2A7.35,7.35,0,0,0,58.63,90.63Z"/><rect class="cls-1" x="78.96" y="12.42" width="19.6" height="9.22" rx="1.65" ry="1.65"/><rect class="cls-1" x="101.97" y="10.83" width="19.96" height="12.4" rx="1.65" ry="1.65"/><path class="cls-2" d="M58.06,28.09a3,3,0,0,0,2.67-4.32L51.44,5.15a3,3,0,0,0-5.1-.4L33,23.36a3,3,0,0,0,2.43,4.72Z"/><rect class="cls-2" x="66.19" y="14.47" width="9.98" height="5.12" rx="1.05" ry="1.05"/><path class="cls-2" d="M58.63,90.63,58,55a7.37,7.37,0,0,1,7.38-7.51h19.3A8.37,8.37,0,0,0,92.83,40l.57-6.47c.36-4.12-1.79-7.48-4.77-7.48a6,6,0,0,0-5.91,5.29c-.26,2.91-3.86,5.29-8,5.29H29.65a7.81,7.81,0,0,1-7.73-7.51l-.41-14c-.12-4.13-2.67-7.51-5.65-7.51S10.42,11,10.41,15.13l0,24.84a7.52,7.52,0,0,0,7.5,7.51h8a5.85,5.85,0,0,1,6,7.35l-5.3,25.1a9.7,9.7,0,0,1-9.06,7.35H12.33A8.53,8.53,0,0,0,4,94.75l-.16,1.59h52.2A7.35,7.35,0,0,0,58.63,90.63Z"/><rect class="cls-2" x="78.96" y="12.42" width="19.6" height="9.22" rx="1.65" ry="1.65"/><rect class="cls-2" x="101.97" y="10.83" width="19.96" height="12.4" rx="1.65" ry="1.65"/></g></g></svg>