<svg xmlns="http://www.w3.org/2000/svg" viewBox="0 0 69.02 122.87"><defs><style>.cls-1{fill:none;stroke:#f6f7f7;stroke-width:7px;}.cls-2{fill:#ff9947;}</style></defs><title>資產 146</title><g id="圖層_2" data-name="圖層 2"><g id="member_HL"><path class="cls-1" d="M24.13,21.84a3.15,3.15,0,0,1-4.77-3L20.78,6.29A3.15,3.15,0,1,1,27,7L25.61,19.51A3.14,3.14,0,0,1,24.13,21.84ZM35.9,27.23,43.83,15.1a3.15,3.15,0,0,0-5.27-3.44L30.63,23.78a3.15,3.15,0,1,0,5.27,3.44Zm21-2.39a3.15,3.15,0,0,0-4.33-1L41.28,30.72a3.15,3.15,0,1,0,3.29,5.37l11.31-6.93A3.15,3.15,0,0,0,56.92,24.83ZM7.4,51.74c-2,2.61-.91,4.74,2.36,4.74H31.87c3.27,0,4.83-2.43,3.47-5.41l-7.86-17.2c-1.36-3-4.08-3.27-6.06-.67Zm58.07-3.51c0-3.15-2.31-5.72-5.12-5.72s-5.11,2.57-5.11,5.72v9.42a5.74,5.74,0,0,1-5.72,5.72H9.29a5.74,5.74,0,0,0-5.72,5.72V84a5.52,5.52,0,0,0-.07.76V114a5.39,5.39,0,0,0,5.38,5.38H35.93a5.15,5.15,0,1,0,0-10.28H19.16a5.39,5.39,0,0,1-5.38-5.38v-3.48H41.27A6.1,6.1,0,0,1,41,99.4L37.29,80.83a4.51,4.51,0,0,1,4.59-5.61H59.82a5.72,5.72,0,0,0,5.7-5.72Z"/><path class="cls-2" d="M24.13,21.84a3.15,3.15,0,0,1-4.77-3L20.78,6.29A3.15,3.15,0,1,1,27,7L25.61,19.51A3.14,3.14,0,0,1,24.13,21.84ZM35.9,27.23,43.83,15.1a3.15,3.15,0,0,0-5.27-3.44L30.63,23.78a3.15,3.15,0,1,0,5.27,3.44Zm21-2.39a3.15,3.15,0,0,0-4.33-1L41.28,30.72a3.15,3.15,0,1,0,3.29,5.37l11.31-6.93A3.15,3.15,0,0,0,56.92,24.83ZM7.4,51.74c-2,2.61-.91,4.74,2.36,4.74H31.87c3.27,0,4.83-2.43,3.47-5.41l-7.86-17.2c-1.36-3-4.08-3.27-6.06-.67Zm58.07-3.51c0-3.15-2.31-5.72-5.12-5.72s-5.11,2.57-5.11,5.72v9.42a5.74,5.74,0,0,1-5.72,5.72H9.29a5.74,5.74,0,0,0-5.72,5.72V84a5.52,5.52,0,0,0-.07.76V114a5.39,5.39,0,0,0,5.38,5.38H35.93a5.15,5.15,0,1,0,0-10.28H19.16a5.39,5.39,0,0,1-5.38-5.38v-3.48H41.27A6.1,6.1,0,0,1,41,99.4L37.29,80.83a4.51,4.51,0,0,1,4.59-5.61H59.82a5.72,5.72,0,0,0,5.7-5.72Z"/></g></g></svg>