<svg xmlns="http://www.w3.org/2000/svg" viewBox="0 0 83.34 100.88"><defs><style>.cls-1{fill:none;stroke:#f6f7f7;stroke-width:7px;}.cls-2{fill:#ff9947;}</style></defs><title>資產 144</title><g id="圖層_2" data-name="圖層 2"><g id="member_HL"><path class="cls-1" d="M44.28,28.55c3.27,0,4.83-2.43,3.48-5.41L39.9,5.94c-1.36-3-4.08-3.27-6.06-.67l-14,18.53c-2,2.61-.91,4.74,2.36,4.74Z"/><path class="cls-1" d="M75,17.92a7,7,0,0,0-6.5,5.88l-1.38,5.92a7.14,7.14,0,0,1-6.83,5.88H21.72L3.57,93.31a5.12,5.12,0,0,0,1.06,4.07H61.23l.57-3.8A4.73,4.73,0,0,0,57,88H45.85c-3.06,0-5.17-2.65-4.69-5.88L45.59,52.7a7.14,7.14,0,0,1,6.83-5.88h23.4l4-23C80.26,20.56,78.13,17.92,75,17.92Z"/><path class="cls-2" d="M44.28,28.55c3.27,0,4.83-2.43,3.48-5.41L39.9,5.94c-1.36-3-4.08-3.27-6.06-.67l-14,18.53c-2,2.61-.91,4.74,2.36,4.74Z"/><path class="cls-2" d="M75,17.92a7,7,0,0,0-6.5,5.88l-1.38,5.92a7.14,7.14,0,0,1-6.83,5.88H21.72L3.57,93.31a5.12,5.12,0,0,0,1.06,4.07H61.23l.57-3.8A4.73,4.73,0,0,0,57,88H45.85c-3.06,0-5.17-2.65-4.69-5.88L45.59,52.7a7.14,7.14,0,0,1,6.83-5.88h23.4l4-23C80.26,20.56,78.13,17.92,75,17.92Z"/></g></g></svg>