<svg xmlns="http://www.w3.org/2000/svg" viewBox="0 0 124.37 50.04"><defs><style>.cls-1,.cls-4{fill:#ff9947;}.cls-1,.cls-2,.cls-3,.cls-4{stroke:#f6f7f7;stroke-linecap:round;stroke-linejoin:round;}.cls-1,.cls-3{stroke-width:9px;}.cls-2,.cls-3{fill:none;}.cls-2{stroke-width:5px;}.cls-4{stroke-width:3px;}</style></defs><title>資產 140</title><g id="圖層_2" data-name="圖層 2"><g id="content"><path class="cls-1" d="M114.29,4.5H34.51C28.41,4.5,24.64,6,21.93,7.84S14,13.21,10.5,16s-5.87,6.1-5.87,17.85L4.5,44.78H95l24.8-23V10A5.5,5.5,0,0,0,114.29,4.5Z"/><path class="cls-1" d="M119.79,21.73l.08-9.8c0-7.68-4.84-7.42-7.81-4.39l-11.22,9.64c-5.25,5.25-5.23,7.46-5.23,16.71l-.13,10.89Z"/><line class="cls-2" x1="4.63" y1="29.89" x2="95.63" y2="29.89"/><path class="cls-3" d="M78.66,4.5C72.55,4.5,68.79,6,66.08,7.84S58.13,13.21,54.64,16s-5.87,4.33-5.87,11.66"/><circle class="cls-4" cx="48.76" cy="43.23" r="5.31"/></g></g></svg>