<svg xmlns="http://www.w3.org/2000/svg" viewBox="0 0 285.84 143.77"><defs><style>.cls-1,.cls-2,.cls-3{fill:none;stroke:#50adc0;stroke-linecap:round;stroke-miterlimit:10;}.cls-1{stroke-width:28.94px;}.cls-2{stroke-width:13.45px;}.cls-3{stroke-width:6.73px;}.cls-4{fill:#00364b;}</style></defs><title>資產 138</title><g id="圖層_2" data-name="圖層 2"><g id="content"><path class="cls-1" d="M33.54,51.62s43.76,4.66,113,23.79"/><path class="cls-2" d="M224.37,104.62s22.41,7.33,54.74,30.11"/><path class="cls-3" d="M119.45,97.4s62.67,11.33,106.33,43"/><path class="cls-3" d="M5.66,51C3,53.66-4.33,67.74,35.32,76"/><line class="cls-3" x1="52.28" y1="81.32" x2="65.55" y2="84.37"/><path class="cls-3" d="M183.7,85.1a54.89,54.89,0,0,1,11.75,4"/><path class="cls-3" d="M161.12,124.07c-34.69-15.33-74.33-21-74.33-21"/><path class="cls-4" d="M116.82,47c0,16.36-7.89,22.48-38.2,22.48S16.15,67.36,16.15,51s30-51,60.33-51S116.82,30.66,116.82,47Z"/></g></g></svg>