<svg xmlns="http://www.w3.org/2000/svg" viewBox="0 0 221.13 218.63"><defs><style>.cls-1,.cls-2,.cls-3,.cls-4,.cls-5{fill:none;stroke:#50adc0;stroke-linecap:round;stroke-miterlimit:10;}.cls-1{stroke-width:28.94px;}.cls-2{stroke-width:13.45px;}.cls-3{stroke-width:6.73px;}.cls-4{stroke-width:17.44px;}.cls-5{stroke-width:4.05px;}.cls-6{fill:#00364b;}</style></defs><title>資產 139</title><g id="圖層_2" data-name="圖層 2"><g id="content"><path class="cls-1" d="M35.09,31s45.17,13.67,91.12,61.67"/><path class="cls-2" d="M178.55,139.64s20.5,26.5,35.86,70.64"/><path class="cls-3" d="M118.71,100.8S168.92,139,195.25,215.26"/><path class="cls-3" d="M7.92,26.11C4.81,28.18-7.79,39.4,29.5,55.22"/><path class="cls-3" d="M47.55,63.14A32,32,0,0,1,55,67.7"/><path class="cls-3" d="M147.3,107.64s7.31,7.43,10.54,11.66"/><path class="cls-3" d="M130.55,145.39c-26.87-35.49-55-57.21-55-57.21"/><path class="cls-4" d="M120.53,28.76S147.75,37,175.44,65.93"/><path class="cls-5" d="M196.45,99.19a166.07,166.07,0,0,1,10.65,17.59"/><path class="cls-5" d="M170.92,70.84a90,90,0,0,1,12.6,13.8"/><path class="cls-5" d="M128,48.15a19.46,19.46,0,0,1,2.33,1.22"/><path class="cls-5" d="M193.28,61s4.41,4.48,6.35,7"/><path class="cls-5" d="M153.76,70.72c-7.1-8.28-17.87-15.58-17.87-15.58"/><path class="cls-5" d="M166.31,37.26C158,30.2,146.2,24.69,146.2,24.69"/><path class="cls-5" d="M185.3,102.59A117.68,117.68,0,0,0,168.05,81"/><path class="cls-6" d="M16.32,31.42c0,12.13,27.4,11.2,45.21,11.2s29-4.53,29-16.66-6.14-26-24-26S16.32,19.29,16.32,31.42Z"/><path class="cls-6" d="M138.62,27.23c0,5.12-7,7-15.61,7s-15.61-1.91-15.61-7S114.39,18,123,18,138.62,22.12,138.62,27.23Z"/></g></g></svg>