<svg xmlns="http://www.w3.org/2000/svg" viewBox="0 0 185.81 81.12"><defs><style>.cls-1,.cls-2,.cls-3{fill:none;stroke:#50adc0;stroke-linecap:round;stroke-miterlimit:10;}.cls-1{stroke-width:23.01px;}.cls-2{stroke-width:10.69px;}.cls-3{stroke-width:5.35px;}.cls-4{fill:#00364b;}</style></defs><title>資產 137</title><g id="圖層_2" data-name="圖層 2"><g id="content"><line class="cls-1" x1="34.95" y1="32.53" x2="119.92" y2="50.71"/><path class="cls-2" d="M142,55.92a147.34,147.34,0,0,1,20.86,6.56"/><path class="cls-3" d="M96.58,64.63s30.78,7.07,47.28,13.82"/><path class="cls-3" d="M2.9,28c-.42,2-3,16,28.19,22.66"/><line class="cls-3" x1="46.63" y1="53.94" x2="56.43" y2="56.04"/><path class="cls-3" d="M172.14,72.93s8,2.43,11,4.44"/><path class="cls-3" d="M79.48,24.29s24.7,4.79,41.36,8.85"/><path class="cls-4" d="M94.29,31.42c0,12.13-27.4,11.2-45.21,11.2S20,38.09,20,26,26.18,0,44,0,94.29,19.29,94.29,31.42Z"/></g></g></svg>