<svg xmlns="http://www.w3.org/2000/svg" viewBox="0 0 1087.84 536.61"><defs><style>.cls-1{fill:#004864;}.cls-2,.cls-4,.cls-5,.cls-6,.cls-7{fill:none;stroke-linecap:round;stroke-miterlimit:10;}.cls-2{stroke:#6bffba;stroke-width:6.68px;}.cls-3{fill:#6bffba;}.cls-4,.cls-5,.cls-6,.cls-7{stroke:#00364b;}.cls-4{stroke-width:13.93px;}.cls-5{stroke-width:4.52px;}.cls-6{stroke-width:3px;stroke-dasharray:3 8;}.cls-7{stroke-width:3.23px;stroke-dasharray:3.23 8.61;}</style></defs><title>資產 163</title><g id="圖層_2" data-name="圖層 2"><g id="tree"><ellipse class="cls-1" cx="892.44" cy="440.83" rx="195.39" ry="62.11"/><line class="cls-2" x1="755.23" y1="433.15" x2="762.29" y2="431.1"/><line class="cls-2" x1="722.41" y1="445.1" x2="734.58" y2="449.35"/><line class="cls-2" x1="797.63" y1="447.62" x2="790.23" y2="449.44"/><line class="cls-2" x1="834.45" y1="448.69" x2="837.91" y2="450.19"/><line class="cls-2" x1="924.52" y1="434.53" x2="918.51" y2="437.89"/><line class="cls-2" x1="1014.46" y1="442.38" x2="1006.63" y2="442.46"/><line class="cls-2" x1="1054.05" y1="442.46" x2="1065.78" y2="445.82"/><line class="cls-2" x1="985.26" y1="432.14" x2="980.81" y2="434.17"/><line class="cls-2" x1="825.84" y1="435.2" x2="821.38" y2="437.22"/><line class="cls-2" x1="866.57" y1="440.24" x2="869.54" y2="441.04"/><line class="cls-2" x1="947" y1="446.57" x2="949.96" y2="447.38"/><path class="cls-3" d="M834.53,201.1l26.07,44.6a14.21,14.21,0,0,1-12.27,21.38H794.2a14.21,14.21,0,0,1-12-21.78l28.06-44.6A14.21,14.21,0,0,1,834.53,201.1Z"/><path class="cls-3" d="M963.17,173.44l22.57,38.62a12.31,12.31,0,0,1-10.63,18.52H928.24a12.31,12.31,0,0,1-10.42-18.86l24.3-38.62A12.31,12.31,0,0,1,963.17,173.44Z"/><path class="cls-3" d="M928.45,166.8l41.84,71.59a22.81,22.81,0,0,1-19.69,34.32H863.72a22.81,22.81,0,0,1-19.31-35l45-71.59A22.81,22.81,0,0,1,928.45,166.8Z"/><path class="cls-3" d="M869.73,211.24l38.7,66.22a21.1,21.1,0,0,1-18.22,31.75H809.84A21.1,21.1,0,0,1,792,276.87l41.67-66.22A21.1,21.1,0,0,1,869.73,211.24Z"/><path class="cls-3" d="M956.1,294.9l34.45,58.94a18.78,18.78,0,0,1-16.22,28.26H902.8a18.78,18.78,0,0,1-15.9-28.78L924,294.37A18.78,18.78,0,0,1,956.1,294.9Z"/><path class="cls-3" d="M830.08,244.75l27.52,47.1a15,15,0,0,1-13,22.58H787.5a15,15,0,0,1-12.7-23l29.63-47.1A15,15,0,0,1,830.08,244.75Z"/><path class="cls-3" d="M884.06,288.41l25.79,44.13a14.06,14.06,0,0,1-12.14,21.16H844.15a14.06,14.06,0,0,1-11.9-21.55L860,288A14.06,14.06,0,0,1,884.06,288.41Z"/><path class="cls-3" d="M863.3,158l26.07,44.6A14.21,14.21,0,0,1,877.09,224H823a14.21,14.21,0,0,1-12-21.78L839,157.58A14.21,14.21,0,0,1,863.3,158Z"/><path class="cls-3" d="M936.81,247.48l30,51.4a16.38,16.38,0,0,1-14.14,24.64H890.33a16.38,16.38,0,0,1-13.86-25.1L908.81,247A16.38,16.38,0,0,1,936.81,247.48Z"/><path class="cls-3" d="M867.58,297.73l33.15,56.72a18.07,18.07,0,0,1-15.6,27.19H816.29a18.07,18.07,0,0,1-15.3-27.7l35.69-56.72A18.07,18.07,0,0,1,867.58,297.73Z"/><path class="cls-3" d="M912.39,81.14l31.83,54.46a17.35,17.35,0,0,1-15,26.11H863.15a17.35,17.35,0,0,1-14.69-26.59l34.27-54.46A17.35,17.35,0,0,1,912.39,81.14Z"/><path class="cls-3" d="M885.84,102.37l19.82,33.91a10.81,10.81,0,0,1-9.33,16.26H855.18A10.81,10.81,0,0,1,846,136l21.34-33.91A10.81,10.81,0,0,1,885.84,102.37Z"/><path class="cls-3" d="M789.64,284.44l37.62,64.38a20.51,20.51,0,0,1-17.71,30.86H731.42a20.51,20.51,0,0,1-17.36-31.44l40.51-64.38A20.51,20.51,0,0,1,789.64,284.44Z"/><path class="cls-3" d="M884.87,116.08l27.38,46.85a14.93,14.93,0,0,1-12.89,22.46H842.5a14.93,14.93,0,0,1-12.64-22.88l29.48-46.85A14.93,14.93,0,0,1,884.87,116.08Z"/><path class="cls-3" d="M932.78,112.81l27.38,46.85a14.93,14.93,0,0,1-12.89,22.46H890.42a14.93,14.93,0,0,1-12.64-22.88l29.48-46.85A14.93,14.93,0,0,1,932.78,112.81Z"/><path class="cls-3" d="M1035.62,292l35.06,60a19.12,19.12,0,0,1-16.5,28.76H981.37a19.12,19.12,0,0,1-16.18-29.29l37.75-60A19.12,19.12,0,0,1,1035.62,292Z"/><path class="cls-3" d="M1001.35,258.83l36,61.56a19.62,19.62,0,0,1-16.94,29.51H945.68a19.62,19.62,0,0,1-16.6-30.06l38.74-61.56A19.62,19.62,0,0,1,1001.35,258.83Z"/><path class="cls-3" d="M992,228.68l26.66,45.61a14.53,14.53,0,0,1-12.55,21.87H950.79a14.53,14.53,0,0,1-12.3-22.27l28.7-45.61A14.53,14.53,0,0,1,992,228.68Z"/><path class="cls-3" d="M958,221.9l22.57,38.62A12.31,12.31,0,0,1,970,279H923.1a12.31,12.31,0,0,1-10.42-18.86L937,221.56A12.31,12.31,0,0,1,958,221.9Z"/><path class="cls-3" d="M807.35,255.56l31.19,53.37a17,17,0,0,1-14.68,25.58H759.09a17,17,0,0,1-14.39-26.06l33.58-53.37A17,17,0,0,1,807.35,255.56Z"/><line class="cls-4" x1="903.22" y1="334.49" x2="949.42" y2="282.39"/><line class="cls-4" x1="899" y1="364.47" x2="847.71" y2="313.19"/><line class="cls-4" x1="899" y1="442.42" x2="899" y2="139.23"/><line class="cls-4" x1="903.22" y1="268.42" x2="934.47" y2="229.9"/><line class="cls-4" x1="898.65" y1="300.03" x2="857.72" y2="259.11"/><line class="cls-4" x1="903.22" y1="201.05" x2="925.21" y2="173.95"/><line class="cls-4" x1="899" y1="235.9" x2="869.22" y2="206.12"/><rect class="cls-3" x="218.78" y="390.96" width="292.71" height="66.41" rx="33.21" ry="33.21"/><rect class="cls-3" x="153.33" y="114.08" width="187.03" height="86.17" rx="43.09" ry="43.09"/><path class="cls-1" d="M243.29,136a28.88,28.88,0,0,1-2.71,9.33,11.59,11.59,0,0,0,4.44,4.16,11.68,11.68,0,0,0-2.06,2.61,13.43,13.43,0,0,1-4.21-4,16.69,16.69,0,0,1-5.32,4.11,12.56,12.56,0,0,0-1.71-2.71,12.59,12.59,0,0,0,5.39-4.29,31.72,31.72,0,0,1-1.71-5.07c-.38.6-.75,1.2-1.15,1.73a17.57,17.57,0,0,0-1.66-1.55,25,25,0,0,1-3.46,3.24v.63l4.39-.38v2.53c-1.46.15-2.94.3-4.39.43v2.48c0,1.3-.23,2-1.1,2.38a9.23,9.23,0,0,1-3.64.43,8.62,8.62,0,0,0-.85-2.53c1,0,2.06,0,2.38,0s.43-.1.43-.35V147c-1.73.18-3.39.33-4.77.48l-.3-2.66c1.41-.12,3.16-.25,5.07-.43V143a18.42,18.42,0,0,0,2.08-1.76h-2.61a23.33,23.33,0,0,1-2.81,1.81,18.27,18.27,0,0,0-2-2.26,21.44,21.44,0,0,0,4.77-3.14h-4.46v-2.56h3.81v-1.68h-2.86v-2.51h2.86v-2.28h2.76v2.28h2.23v1.61a22,22,0,0,0,1.63-3.26l2.73.8a27,27,0,0,1-2.76,5h1.78v2a30.68,30.68,0,0,0,2.43-8.45l3,.48c-.25,1.38-.55,2.78-.9,4.09h6.67V136Zm-15.38-.85h.4a16.19,16.19,0,0,0,1.25-1.68h-1.66Zm4.11,4.39a12.92,12.92,0,0,0,1.2-1.83h-3.51a14.07,14.07,0,0,1-1.18,1.28h2.08l.53-.15Zm5.32-3.54a31.18,31.18,0,0,0,1.53,5.85A28.28,28.28,0,0,0,240.2,136Z"/><path class="cls-1" d="M270.48,133.41h-5.22a30.87,30.87,0,0,1,4.42,3.89l-2.28,1.43h1.05v10.18c0,1.61-.43,2.26-1.63,2.63a22.74,22.74,0,0,1-5.44.33,9.32,9.32,0,0,0-.7-2.53c1.38.1,3.44.1,3.86.08s.65-.15.65-.55v-1.81c-3.69.8-7.4,1.55-10.31,2.16l-.88-2.63c2.08-.28,5.19-.73,8.45-1.23a39.24,39.24,0,0,0-7.88-2l.88-1.78a36.85,36.85,0,0,1,8.55,2.06l-.78,1.63,2-.3v-3.74H254v1.55c0,2.94-.45,7-2.73,9.63a10.73,10.73,0,0,0-2.46-1.76c2.06-2.31,2.26-5.54,2.26-7.93v-4h15.83c-.33-.4-.75-.85-1.23-1.33-12.24.48-13.72.5-14.8.88-.15-.58-.6-2-.9-2.73a6,6,0,0,0,2.26-1.23,13.08,13.08,0,0,0,1.13-.9h-5.07V130.8h7.88a24.11,24.11,0,0,0,2.13-2.43l3,1.15q-.56.64-1.2,1.28h10.39Zm-7.3,1.76c-.53-.4-1-.8-1.51-1.15l1-.6h-5.34c-.85.73-1.68,1.38-2.51,2Z"/><rect class="cls-3" x="384.61" y="114.08" width="187.03" height="86.17" rx="43.09" ry="43.09"/><path class="cls-1" d="M467.82,136.77a65.14,65.14,0,0,1,8.35,6.8l-2.53,2.28A58.56,58.56,0,0,0,466,139v13H462.7V139.8a30,30,0,0,1-8,6.17,17.88,17.88,0,0,0-2.06-2.71,26.32,26.32,0,0,0,10.81-9.86h-10v-3.06h21.75v3.06h-7.8a25.09,25.09,0,0,1-1.46,2.31v2.61Z"/><path class="cls-1" d="M495.38,144.14a10.18,10.18,0,0,1-1.53,3.56,35.2,35.2,0,0,0,8.93,1.43,11.77,11.77,0,0,0-1.81,2.78,28.76,28.76,0,0,1-9.26-2.11,16.34,16.34,0,0,1-4.92,2.31,13.78,13.78,0,0,0-1.81-2.46,14.43,14.43,0,0,0,4.06-1.38,13.16,13.16,0,0,1-3-2.91l2.58-.9a9.28,9.28,0,0,0,2.56,2.11,6,6,0,0,0,1.2-2.43H487V134.06h5.77v-1.51h-6.1v-2.23a47.34,47.34,0,0,1-2.06,4.67V152h-2.86V139.63a17.71,17.71,0,0,1-1.28,1.61,21.6,21.6,0,0,0-1.63-3.08,26.84,26.84,0,0,0,5.27-9.41l2.81.88-.12.33H502v2.61h-6.3v1.51h5.67v10.08Zm-5.67-6.07h3v-1.83h-3Zm3,3.89c0-.33,0-.68,0-1v-.88h-3V142Zm5.77-1.86h-2.79v.9c0,.3,0,.63,0,1h2.81Zm-2.79-3.86v1.83h2.79v-1.83Z"/><path class="cls-1" d="M422.43,164.9a22.6,22.6,0,0,1-5,7.22,9.43,9.43,0,0,0-1.12-1,17.7,17.7,0,0,0,4.73-6.63Zm4.78,8.07a52.72,52.72,0,0,1,3.81,5.71l-1.26.7c-.24-.48-.56-1-.92-1.63-8.8.61-9.74.66-10.4.9a7.92,7.92,0,0,0-.49-1.34c.46-.1,1-.66,1.6-1.46a37.86,37.86,0,0,0,4.28-6.7l1.41.59a44.58,44.58,0,0,1-5,7.29l7.85-.44c-.66-1.05-1.43-2.16-2.11-3.06Zm.36-8.57a12.35,12.35,0,0,0,4.5,6.54,6.67,6.67,0,0,0-1,1.17,14.17,14.17,0,0,1-4.47-6.44h-3.16V164.4Z"/><path class="cls-1" d="M449.68,172.78V174H434.4v-1.22h3.91v-4h-3.23v-1.22h3.23v-3.43h1.27v3.43h4.83v-3.43h1.29v3.43h3.37v1.22H445.7v4Zm-9.25,2.72a19.41,19.41,0,0,1-4.83,4,10.33,10.33,0,0,0-1-.9,14.75,14.75,0,0,0,4.52-3.62Zm-.85-2.72h4.83v-4h-4.83Zm5,2.19a54,54,0,0,1,4.74,3.74l-1.19.78a50.84,50.84,0,0,0-4.64-3.87Z"/><path class="cls-1" d="M457.81,175.13c-1.87.75-3.84,1.51-5.37,2.11L452,176c.65-.2,1.43-.48,2.29-.8v-5.88h-2v-1.19h2v-3.93h1.22v3.93h1.85v1.19h-1.85v5.44l2-.75Zm9.81,2.45v1.21H457.2v-1.21h5.93a67.18,67.18,0,0,0,1.58-8.41l1.34.24c-.46,2.6-1.14,5.92-1.77,8.18Zm-.44-9.35H458V167h9.18Zm-6.88,8.57a61.14,61.14,0,0,0-1.16-7.24l1.12-.24a68.26,68.26,0,0,1,1.27,7.12Zm1.84-9.93a23.15,23.15,0,0,0-.8-2.69l1.17-.31a22.68,22.68,0,0,1,.87,2.63Z"/><path class="cls-1" d="M475.37,174.31c-1.73.82-3.59,1.65-5,2.28l-.53-1.28c.65-.22,1.45-.53,2.33-.88v-5.27h-2V168h2v-3.87h1.17V168h1.78v1.21h-1.78V174c.59-.24,1.19-.49,1.78-.75Zm9.4-4.45a14.3,14.3,0,0,1-3,6.19,9.44,9.44,0,0,0,3.79,2.41,3.93,3.93,0,0,0-.83,1.07,10,10,0,0,1-3.77-2.58,12.81,12.81,0,0,1-3.74,2.52,5.84,5.84,0,0,0-.77-1,10.93,10.93,0,0,0,3.72-2.46,16,16,0,0,1-2.41-5.08c-.37,3.54-1.17,6.29-3,8.41a9.24,9.24,0,0,0-1.07-.82c2.53-2.65,3-7,3.09-12.6H475.2v-1.17h7.07l.2-.07.87.14c-.19,1.38-.48,3.25-.78,4.76h1.19l.2-.05Zm-6.68-3.91c0,1.29-.08,2.52-.17,3.66h3.45c.22-1.14.46-2.57.63-3.66Zm.77,4.79a13.75,13.75,0,0,0,2.16,4.39,12.36,12.36,0,0,0,2.28-4.39Z"/><path class="cls-1" d="M491.35,167.22h1.94v1.19h-1.94v.71c.46.65,1.61,2.33,1.85,2.77l-.75.9c-.2-.46-.68-1.36-1.1-2.11v8.79h-1.19v-8.23a17,17,0,0,1-2,4.5,4.68,4.68,0,0,0-.65-1.22,17.65,17.65,0,0,0,2.53-6.12H488v-1.19h2.18V164h1.19Zm11.18,10.91c0,.61-.12.93-.53,1.16a5.25,5.25,0,0,1-2,.2,4.58,4.58,0,0,0-.37-1.12c.66,0,1.28,0,1.43,0s.27-.07.27-.25v-2.23h-2.79v3.47h-1.17v-3.47H494.7v3.59h-1.16V168.91h5.17a27.89,27.89,0,0,0-3.6-1.67l.58-.85c.7.24,1.5.56,2.28.92a13.85,13.85,0,0,0,2.28-1.63h-6.61v-1.09h7.7l.24-.07.8.6a13.87,13.87,0,0,1-3.31,2.72,14.14,14.14,0,0,1,1.27.75l-.19.32h2.4ZM494.7,170v1.79h2.69V170Zm2.69,4.74v-1.85H494.7v1.85Zm4-4.74h-2.79v1.79h2.79Zm0,4.74v-1.85h-2.79v1.85Z"/><path class="cls-1" d="M515.27,166.43c-.37.63-.78,1.24-1.21,1.87v11.15h-1.34V170a21.79,21.79,0,0,1-6.15,4.95,8.8,8.8,0,0,0-.85-1.1,19.72,19.72,0,0,0,7.94-7.41h-7.51v-1.26h14.52v1.26Zm.07,2.84a38.74,38.74,0,0,1,5.8,4.47l-1,1a38,38,0,0,0-5.73-4.62Z"/><path class="cls-1" d="M530.43,171.63l.76.34a10.5,10.5,0,0,1-7,7.46,3.85,3.85,0,0,0-.66-1,10.17,10.17,0,0,0,3.89-2.23,14.23,14.23,0,0,0-1.92-1.84,11.34,11.34,0,0,1-1.24.83,2.54,2.54,0,0,0-.75-.78,10.24,10.24,0,0,0,4.2-4.23,11.42,11.42,0,0,1-3.28,2,3.66,3.66,0,0,0-.68-.87,10.45,10.45,0,0,0,3.13-1.89,13.91,13.91,0,0,0-1.78-1.5c-.25.22-.54.46-.85.68a2.36,2.36,0,0,0-.8-.73,10,10,0,0,0,3.43-4l1.14.2a15.77,15.77,0,0,1-.83,1.45h2.45l.22-.05.75.36a10.15,10.15,0,0,1-2.89,4.33l1.17.2c-.22.41-.48.83-.75,1.24h2.09Zm-4-5c-.19.22-.39.44-.59.65a15.25,15.25,0,0,1,1.84,1.43,9,9,0,0,0,1.43-2.07Zm.85,6.14a10.19,10.19,0,0,1-1,1,15.25,15.25,0,0,1,1.9,1.67,8.61,8.61,0,0,0,1.5-2.62Zm11.32-6.31s0,.49,0,.66c-.14,8.13-.27,10.73-.82,11.51a1.46,1.46,0,0,1-1.19.68,13.46,13.46,0,0,1-2.06,0,2.78,2.78,0,0,0-.37-1.24c.85.07,1.58.07,1.92.07a.55.55,0,0,0,.58-.29c.41-.53.58-3.11.71-10.28h-4.5a14.1,14.1,0,0,1-1.82,2.92c-.22-.19-.71-.59-1-.78A14,14,0,0,0,532.9,164l1.21.27c-.22.75-.49,1.48-.76,2.19Zm-5.51,9v1.29H532v-7.26h4v6Zm0-4.91v3.88H535v-3.88Z"/><rect class="cls-3" x="500.5" y="235.08" width="187.03" height="86.17" rx="43.09" ry="43.09"/><path class="cls-1" d="M565.55,258.61c-.08,1-.13,2-.25,3h10.76a12.23,12.23,0,0,1-.1,1.3c-.45,6.8-1,9.58-2,10.66a3.76,3.76,0,0,1-2.68,1.18,35.18,35.18,0,0,1-4.34,0,6.51,6.51,0,0,0-1.05-2.94c1.71.18,3.46.2,4.21.2a1.75,1.75,0,0,0,1.23-.33c.65-.55,1.1-2.71,1.46-7.2h-7.9c-.85,4.19-2.71,8.1-7.22,10.71a9.27,9.27,0,0,0-2.18-2.48c6-3.19,6.5-8.83,6.75-14.12H555.9v-2.93h10.59c-.4-1-1-2.23-1.5-3.24l2.93-1.1a28.32,28.32,0,0,1,1.81,3.59l-1.73.75h10.29v2.93Z"/><path class="cls-1" d="M598.11,267.14a10.18,10.18,0,0,1-1.53,3.56,35.2,35.2,0,0,0,8.93,1.43,11.77,11.77,0,0,0-1.81,2.78,28.76,28.76,0,0,1-9.26-2.11,16.34,16.34,0,0,1-4.92,2.31,13.78,13.78,0,0,0-1.81-2.46,14.43,14.43,0,0,0,4.06-1.38,13.16,13.16,0,0,1-3-2.91l2.58-.9a9.28,9.28,0,0,0,2.56,2.11,6,6,0,0,0,1.2-2.43h-5.47V257.06h5.77v-1.51h-6.1v-2.23A47.34,47.34,0,0,1,587.3,258V275h-2.86V262.63a17.71,17.71,0,0,1-1.28,1.61,21.6,21.6,0,0,0-1.63-3.08,26.84,26.84,0,0,0,5.27-9.41l2.81.88-.13.33h15.23v2.61h-6.3v1.51h5.67v10.08Zm-5.67-6.07h3v-1.83h-3Zm3,3.89c0-.33,0-.68,0-1v-.88h-3V265Zm5.77-1.86h-2.79v.9c0,.3,0,.63,0,1h2.81Zm-2.79-3.86v1.83h2.79v-1.83Z"/><path class="cls-1" d="M631.31,271.46v2.83h-15.6v-2.83h6.7v-5h-4.84v-2.79h4.84v-4.11h-2.76a17.15,17.15,0,0,1-1.41,3.46,26.47,26.47,0,0,0-2.66-1.35c.25-.45.5-.93.75-1.46l-1.43.65a17.51,17.51,0,0,0-1-2.88v17.13h-3V257.16a31.93,31.93,0,0,1-1.13,6.65l-2.21-.8a29.79,29.79,0,0,0,1.23-6.52l2.11.3v-5.12h3v4.74l1.45-.6a28.61,28.61,0,0,1,1.38,3.16,30.32,30.32,0,0,0,1.33-6.12l2.91.4c-.17,1.18-.38,2.36-.63,3.49h2v-4.92h3v4.92h5.12v2.81h-5.12v4.11H630v2.79h-4.59v5Z"/><path class="cls-1" d="M528.65,288c-.49,1.36-1.1,3-1.67,4.44a5.43,5.43,0,0,1,1.51,3.72,2.32,2.32,0,0,1-.63,1.9,1.71,1.71,0,0,1-.85.32,5.78,5.78,0,0,1-1.09,0,2.28,2.28,0,0,0-.31-1,6.73,6.73,0,0,0,1,0,.79.79,0,0,0,.51-.15,1.52,1.52,0,0,0,.36-1.21,5.27,5.27,0,0,0-1.51-3.52c.48-1.21,1-2.65,1.31-3.79H525v13.65h-1V287.66h3.76l.17-.05Zm2.8,7.05a21.64,21.64,0,0,1-1.36,4.45c.34.17.7.53,1.26.88a5.88,5.88,0,0,0,3.45.8A38.52,38.52,0,0,0,539,301a5.19,5.19,0,0,0-.31,1.22c-.85.05-2.79.12-3.93.12a6.05,6.05,0,0,1-3.67-.93c-.61-.44-1.12-1-1.48-1s-1,1-1.58,2.09l-.82-1.05a6.67,6.67,0,0,1,1.82-1.89,16.36,16.36,0,0,0,1.19-3.67h-1.7c.41-1,.9-2.5,1.29-3.84h-1.6v-1h2.91l0,0a7.31,7.31,0,0,0,1.56-2.06h-1.55v-.9h2a12.43,12.43,0,0,0,.37-1.21l1,.19c-.1.36-.2.68-.32,1h4.59v.9h-4.95a9,9,0,0,1-2.46,3.31c-.08-.14-.27-.37-.44-.59-.34,1.05-.7,2.21-1,3.18h.85l.19-.05Zm-2-5c-.17-.71-.51-1.87-.75-2.72l1-.24c.27.87.63,2,.8,2.69Zm8.6,9c0,.53-.12.75-.49.92a6.7,6.7,0,0,1-1.9.14,4.19,4.19,0,0,0-.32-.83l1.38,0c.19,0,.24-.07.24-.22v-1.43c-1.14.27-2.24.53-3.18.73l-.37-1c1-.12,2.19-.34,3.55-.54v-2.29h-3.57v1.58a9.72,9.72,0,0,1-.66,4,4.82,4.82,0,0,0-.9-.59,8.49,8.49,0,0,0,.51-3.4v-2.4h5.73Zm.58-6.21h-6.42v-.8H535v-1.16h-1.62v-.8h4.86v.8h-2.12v1.16h2.53ZM534.31,295a13.54,13.54,0,0,1,2.26,1.21l-.49.78a15.68,15.68,0,0,0-2.24-1.34Z"/><path class="cls-1" d="M556.6,297h-7v3.77c0,.9-.27,1.27-.9,1.48a13.22,13.22,0,0,1-3.5.22,6.27,6.27,0,0,0-.54-1.26c1.43.05,2.75,0,3.14,0s.53-.12.53-.48V297h-7v-1.24h7V293h-5.85v-1.21h5.85v-2.62c-1.87.2-3.79.32-5.54.41a5.71,5.71,0,0,0-.32-1.12c4-.19,8.94-.63,11.49-1.43l1,1a31.87,31.87,0,0,1-5.3,1v2.75h6V293h-6v2.75h7Z"/><path class="cls-1" d="M566,295.87a32.53,32.53,0,0,1-3.35,4.16l8.3-.39c-.56-.76-1.17-1.53-1.77-2.19l1.14-.48a24.42,24.42,0,0,1,3.67,5l-1.26.54a17.3,17.3,0,0,0-1-1.79c-9.37.51-10.25.54-10.88.8a9.16,9.16,0,0,0-.39-1.31,2.78,2.78,0,0,0,1.21-.94,23.11,23.11,0,0,0,2.75-3.45h-4.9V294.7h6.53V292.5h-5.35v-1.19h5.35v-2.11h-6V288h13.45v1.17h-6.24v2.11h5.56v1.19h-5.56v2.19h6.83v1.17Z"/><path class="cls-1" d="M580.33,297c.61-.27,1.24-.53,1.87-.8l.25,1.12c-1.78.83-3.69,1.68-5.17,2.35l-.49-1.26c.65-.22,1.46-.56,2.35-.93v-5.24h-2V291h2v-3.86h1.19V291h1.83v1.21h-1.83Zm9.76,4c1,0,1.16-.46,1.27-2.41a2.91,2.91,0,0,0,1.14.48c-.2,2.33-.59,3.08-2.36,3.08H586c-1.92,0-2.5-.46-2.5-2.29v-5.34l-1.34.56-.49-1.1,1.84-.77v-4.62h1.21v4.1l2.28-1V287h1.21v4.22l2.58-1.09,1,.32-.07.2a60.52,60.52,0,0,1-.88,7.45l-1-.31a60.34,60.34,0,0,0,.65-6.2l-2.21.93v6.24h-1.21V293l-2.28,1v5.86c0,.92.22,1.14,1.33,1.14Z"/><path class="cls-1" d="M610.1,300.42v1.26H595v-1.26h6.34V287.23h1.33v5.2h6.32v1.26h-6.32v6.73Z"/><path class="cls-1" d="M617.63,291.19a17.76,17.76,0,0,1-1.41,2.13v9.18H615v-7.73a14.54,14.54,0,0,1-1.9,1.82,8.1,8.1,0,0,0-.68-1.22,15.59,15.59,0,0,0,4.1-4.62Zm-.22-3.72a15.92,15.92,0,0,1-4.08,4,6.69,6.69,0,0,0-.68-1A12.6,12.6,0,0,0,616.2,287Zm10.11,9.09a29.06,29.06,0,0,1-3,2.09,8.16,8.16,0,0,0,3.71,2.63,4.82,4.82,0,0,0-.85,1.09c-3-1.21-4.78-3.79-5.76-7.24h-1.67v5.59l3-.73a7.86,7.86,0,0,0,.07,1.16c-3.5,1-4,1.12-4.33,1.34a4.14,4.14,0,0,0-.58-1,1.28,1.28,0,0,0,.63-1.19V287.71h7.94v7.43h-3.94a11.81,11.81,0,0,0,1.21,2.65,21.72,21.72,0,0,0,2.79-2.11Zm-7.62-7.73v2h5.49v-2Zm0,5.2h5.49v-2.11h-5.49Z"/><path class="cls-1" d="M636.92,291.14c-.05.88-.12,1.79-.24,2.69h7.22s0,.42-.05.61c-.32,4.78-.66,6.61-1.33,7.28a2,2,0,0,1-1.46.59,24.83,24.83,0,0,1-2.84-.07,2.81,2.81,0,0,0-.44-1.22c1.21.1,2.4.12,2.84.12a1.16,1.16,0,0,0,.8-.19c.51-.44.83-2.07,1.12-5.9H636.5c-.54,3-1.82,5.8-5,7.5a4,4,0,0,0-.92-1c4.33-2.16,4.78-6.51,5-10.39h-4.59V289.9h7.43a16.46,16.46,0,0,0-1.16-2.55l1.21-.48a16.82,16.82,0,0,1,1.22,2.52l-1.17.51h7.09v1.24Z"/><path class="cls-1" d="M653.16,287.39a27.24,27.24,0,0,1-1.62,3.76v11.32h-1.21V293.2A17.43,17.43,0,0,1,649,295a8.44,8.44,0,0,0-.73-1.24A19.49,19.49,0,0,0,652,287Zm5.71,9.52a6.12,6.12,0,0,1-1.27,3,20.32,20.32,0,0,0,6.39,1.31,4.93,4.93,0,0,0-.75,1.17,19.15,19.15,0,0,1-6.54-1.62,10.85,10.85,0,0,1-3.77,1.77,6.26,6.26,0,0,0-.76-1,10,10,0,0,0,3.43-1.38,7.78,7.78,0,0,1-2.43-2.4l1.07-.41a6.64,6.64,0,0,0,2.28,2,4.69,4.69,0,0,0,1.14-2.46h-4V290.5h4.15v-1.41h-4.59v-1.14H663.6v1.14H659v1.41h4v6.41Zm-4.06-3.67h3v-1.75h-3Zm2.94,2.69c0-.29,0-.61,0-.9v-.85h-3v1.75Zm4-1.75H659V295a8.17,8.17,0,0,1,0,.9h2.8ZM659,291.48v1.75h2.77v-1.75Z"/><rect class="cls-3" y="235.08" width="237.83" height="86.17" rx="43.09" ry="43.09"/><path class="cls-1" d="M58.4,256.93a21.52,21.52,0,0,1-2.94,2.78,17.84,17.84,0,0,0-1.71-2.41A16.33,16.33,0,0,0,59,251.36l2.58.85a17.43,17.43,0,0,1-1.18,2.08H76.13v2.63ZM54.24,274A24.39,24.39,0,0,0,57,269.12l2.88.75a32.14,32.14,0,0,1-2.79,5.32Zm19.59-11.24V266h3v2.66H54.46V266H57.9v-3.19H55.21v-2.66H57.9v-2.26h2.66v2.26h1.71v-2.26h2.48v2.26h2v-2.26h2.48v2.26h1.88v-2.26h2.76v2.26h2.46v2.66ZM60.56,266h1.71v-3.19H60.56Zm3.51,3.86a28.78,28.78,0,0,1,.63,4.69l-2.93.43a29.44,29.44,0,0,0-.48-4.82Zm.68-7V266h2v-3.19Zm4.44,6.85a24.55,24.55,0,0,1,1.48,4.64l-3,.58a25.48,25.48,0,0,0-1.3-4.77Zm1.88-6.85H69.19V266h1.88Zm3.14,6.15a35.27,35.27,0,0,1,2.93,4.94l-2.93,1.28A36,36,0,0,0,71.47,270Z"/><path class="cls-1" d="M99.63,271.18H103v2.06H99.63v1.88h-3v-1.88H80.79v-2.06h3.56v-6.1H81.55V263h.13c-.45-.28-1-.58-1.28-.73a4.65,4.65,0,0,0,1.46-3.69v-1.53H91.3v4.14H83.78a5.55,5.55,0,0,1-.9,1.81h9.66a7.37,7.37,0,0,0-1.08-1.88,20.44,20.44,0,0,0,3.44-.65,8,8,0,0,1-1.78-1.91l.8-.23H92.48v-1.58a6.54,6.54,0,0,0-1.05-1c1.91-.65,2.18-1.43,2.18-2.28v-1.23h6.85v2.06c0,.45,0,.68.4.68h.85a5.55,5.55,0,0,0,1.28-.15c.05.6.08,1.18.15,1.78a4.44,4.44,0,0,1-1.38.15h-1l1.38.5a7.63,7.63,0,0,1-2.53,3.26,18.92,18.92,0,0,0,3.64.6,8.52,8.52,0,0,0-1.35,1.91h.58v2.06H99.63Zm-14.5-17H80.87v-1.5h4.26v-1.08h2.68v1.08h4.11v1.5H87.82V255h3.46v1.48H81.6V255h3.54Zm-1,4.29v.15c0,.35,0,.73-.05,1.13h1.41v-1.28Zm3.14,6.57v.85h9.43v-.85Zm0,3.49h9.43v-.88H87.24Zm9.43,2.61v-.85H87.24v.85ZM89,258.51H87.54v1.28H89ZM101.31,263a16.51,16.51,0,0,1-4.06-1.15,19.85,19.85,0,0,1-4,1.15Zm-5.47-8.86a3.69,3.69,0,0,1-1.53,2.61h5.82l.15,0h-.08c-1.83,0-2.13-.83-2.13-2.46v-.13Zm-.35,4.19a5,5,0,0,0,1.61,1.2,6,6,0,0,0,1.61-1.2Z"/><path class="cls-1" d="M129.38,255.53s0,1,0,1.35c-.33,11.21-.6,15.2-1.63,16.53a3.35,3.35,0,0,1-2.41,1.38,28.25,28.25,0,0,1-3.94,0,7,7,0,0,0-1-2.91c1.61.15,3.08.15,3.74.15a1.34,1.34,0,0,0,1.1-.43c.73-.8,1.05-4.57,1.33-13.42H121.2a21.65,21.65,0,0,1-2.21,4,18.58,18.58,0,0,0-1.93-1.4v11.71h-6.7v1.83h-2.71V255.7h2.83a26.92,26.92,0,0,0,.73-4l3.26.45c-.43,1.25-.88,2.51-1.3,3.59h3.89v4.06a26,26,0,0,0,3.39-8.08l2.83.65a29.2,29.2,0,0,1-1,3.19Zm-15,2.78h-4v4.06h4Zm0,11.56V265h-4v4.92Zm8.33-1.35a53.51,53.51,0,0,0-3.49-5.79l2.33-1.33a60.64,60.64,0,0,1,3.69,5.57Z"/><path class="cls-1" d="M142,265c-1,.28-1.93.53-2.91.78v5.95c0,1.46-.25,2.18-1.1,2.61a8.08,8.08,0,0,1-3.81.55,9.89,9.89,0,0,0-.83-2.71c1,0,2,0,2.36,0s.48-.12.48-.48v-5.17l-2.94.75-.58-2.91c1-.18,2.21-.45,3.51-.78v-4.46h-3v-2.76h3v-4.74h2.91v4.74h2.66v2.76H139.1V263l2.56-.65Zm11.89,7.28a.58.58,0,0,0,.35-.1,1.85,1.85,0,0,0,.15-.83c0-.45,0-1.56.08-2.93a6.42,6.42,0,0,0,2.16,1.18,23.49,23.49,0,0,1-.28,3.56,2.43,2.43,0,0,1-.83,1.33,2.65,2.65,0,0,1-1.53.4h-1.35a2.44,2.44,0,0,1-1.73-.65c-.45-.5-.65-1-.65-2.93v-8h-3.44v1.78c0,3.31-.83,7.65-4.92,10.18a13.48,13.48,0,0,0-2-2.28c3.59-2.18,4-5.34,4-8v-4.49h9.36v10.66a3.13,3.13,0,0,0,.08,1,.29.29,0,0,0,.28.13Zm2.56-13.75h-14.3v-2.83h5.24a26.1,26.1,0,0,0-1.33-3.56l2.88-.75a29.34,29.34,0,0,1,1.5,3.61l-2.33.7h8.33Z"/><path class="cls-1" d="M167.47,258.19h-8.18v-2.33h3.49a17,17,0,0,0-1.25-3.31l2.13-.78a17.28,17.28,0,0,1,1.43,3.34l-1.83.75h4.21Zm-.68,15.53h-4.62v1.05h-2.11v-8.58h6.72Zm-6.62-14.4h6.67v2.26h-6.67Zm0,3.41h6.67V265h-6.67Zm2,5.74v3h2.48v-3Zm19.34.73a11.78,11.78,0,0,1-2.41,2.73,1.59,1.59,0,0,0,1.3,1c.38,0,.63-.65.7-2a6,6,0,0,0,1.71,1c-.35,2.41-1.15,3.29-2.68,3.29a3.45,3.45,0,0,1-3-1.78,17,17,0,0,1-2.56,1.38,8.92,8.92,0,0,0-1.4-1.56,17.43,17.43,0,0,0,3.14-1.71,21.2,21.2,0,0,1-.75-3.61h-2.43v1l2-.2,0,2.11-2.06.25v1.68c0,1.15-.23,1.68-1,2a9.29,9.29,0,0,1-3.34.35,8.44,8.44,0,0,0-.73-2.11c.85,0,1.81,0,2.08,0s.4-.1.4-.38v-1.28l-3,.35-.28-2.28c1-.08,2.06-.17,3.29-.3v-1.2h-3.14v-2.16h3.14v-1.08c-.8.1-1.58.15-2.33.2a7.39,7.39,0,0,0-.58-1.73,33.63,33.63,0,0,0,6.1-1.05l1.53,1.76c0-.48,0-1,0-1.41h2.48c0,1.18,0,2.31.08,3.31h2.58a11.66,11.66,0,0,0-2.38-2.31l1.71-1.15a11,11,0,0,1,2.56,2.31l-1.63,1.15h1.78v2.16H178a15.54,15.54,0,0,0,.33,1.86,8.46,8.46,0,0,0,1.18-1.56Zm.93-7.27h-15v-2.13h6v-1H169v-1.86h4.46v-1h-5.27v-2H171a13.45,13.45,0,0,0-1-1.56l2.11-.75a11.78,11.78,0,0,1,1.43,2.31h3.09a11.51,11.51,0,0,0,1.13-2.31l2.61.65c-.38.58-.8,1.15-1.18,1.66h2.71v2h-5.54v1h4.77v1.86h-4.77v1h6Zm-7.07,3.84c-.05-.63-.08-1.23-.1-1.91a21,21,0,0,1-2.13.48v1.43Z"/><path class="cls-1" d="M23.17,298.15v1.38H22V288.35h4.5v9.79Zm0-8.6V297h2.24v-7.43ZM36.7,293a13.79,13.79,0,0,1-3,6.17,10.45,10.45,0,0,0,3.54,2.24,6,6,0,0,0-.82,1,11.18,11.18,0,0,1-3.54-2.41,12,12,0,0,1-3.74,2.4,4.45,4.45,0,0,0-.8-1,11.56,11.56,0,0,0,3.72-2.29,15.92,15.92,0,0,1-2.6-4.62c-.44,3.08-1.34,6.05-3.28,8a8.38,8.38,0,0,0-.88-.85c2.89-2.84,3.26-8.23,3.35-12.49H27.2V288h6.88l.22-.05.88.14c-.19,1.36-.49,3.16-.78,4.69H35.7l.24,0Zm-6.8-3.89c0,1.16-.1,2.38-.2,3.62h3.48c.22-1.17.48-2.55.63-3.62Zm.51,4.79a13.93,13.93,0,0,0,2.48,4.39,11.54,11.54,0,0,0,2.35-4.39Z"/><path class="cls-1" d="M46,295.1s0,.37,0,.54c-.17,4.13-.34,5.61-.73,6.1a1.35,1.35,0,0,1-1,.49,12.82,12.82,0,0,1-1.63,0,3,3,0,0,0-.34-1.12c.63.05,1.19.07,1.41.07a.53.53,0,0,0,.49-.19c.26-.31.41-1.53.56-4.76H42.51c-.27,2.5-.88,4.76-2.33,6.25a3.82,3.82,0,0,0-.88-.85c1.75-1.77,2.06-5,2.18-8.11H39.39V292.4h3.45a13.23,13.23,0,0,0-.77-1.56l1.16-.24a12.88,12.88,0,0,1,.92,1.8h2.72v1.14H42.72c0,.53-.05,1.05-.1,1.56Zm-2.38-5.75h-4v-1.14h4V287h1.22v1.24h1.92v1.14H44.84v1.14H43.62Zm7.65,1.55c-.08.17-.15.34-.24.49a20.06,20.06,0,0,0,4,4,5.15,5.15,0,0,0-.83.88,24.07,24.07,0,0,1-3.71-4,14.06,14.06,0,0,1-3.59,4,4.92,4.92,0,0,0-.87-.78,12.27,12.27,0,0,0,4.1-4.91Zm-3.4,7.34a24.08,24.08,0,0,1,6,2.94l-.73,1a24.4,24.4,0,0,0-5.9-3.08Zm1.41-8.89H47.39v-1.14h1.89V287h1.24v1.24h4v1.14h-4v1.14H49.28ZM49.5,295a13.62,13.62,0,0,1,3.28,2.09L52,298a15.22,15.22,0,0,0-3.23-2.18Z"/><path class="cls-1" d="M66.09,293.54c-.88.63-1.8,1.22-2.74,1.77h7v7.11H69.08v-.48H62.2v.54H61V296.6c-1,.49-2.07,1-3.11,1.34a7.45,7.45,0,0,0-.8-1,33.57,33.57,0,0,0,7-3.37H57.42V292.4h5.81v-2.18H58.9V289.1h4.33V287h1.24v2.13h4.2v.7a19.81,19.81,0,0,0,1.94-2.24l1.07.58a25.79,25.79,0,0,1-4.13,4.27h4.9v1.14Zm3,2.84H62.2v1.68h6.88Zm0,4.45v-1.77H62.2v1.77Zm-3.42-8.43a26.85,26.85,0,0,0,2.58-2.18H64.48v2.18Z"/><path class="cls-1" d="M81,290.84H75v-1.05h6Zm-.41,2.24H75.46v-1h5.13Zm-5.13,1.24h5.13v1H75.46Zm5,7.21h-4v.78H75.46v-5.69h5Zm-4-3.88v2.84h2.89v-2.84Zm1.27-8a14.07,14.07,0,0,0-1.05-2.31l1.07-.37a14.41,14.41,0,0,1,1.12,2.24Zm2.74,10.76a11.08,11.08,0,0,0,1.19-3.57l.9.27a11.83,11.83,0,0,1-1.17,3.71Zm5.75-11.71c-.31,3.06-1.16,5.59-4.28,7a2.9,2.9,0,0,0-.73-.9,5.53,5.53,0,0,0,3-2.69c-.63-.65-1.67-1.55-2.46-2.21l.66-.71c.71.56,1.6,1.29,2.24,1.85a12.5,12.5,0,0,0,.42-2.35h-3.5v-1.09h8.28s0,.37,0,.54c-.19,4.3-.37,5.83-.78,6.36A1.39,1.39,0,0,1,88,295a17.72,17.72,0,0,1-1.92,0,2.8,2.8,0,0,0-.36-1.12c.78.07,1.5.08,1.77.08a.63.63,0,0,0,.56-.2c.27-.31.44-1.63.58-5.07Zm.56,12.38c.56,0,.66-.29.71-2.26a3,3,0,0,0,1,.42c-.12,2.31-.42,2.86-1.6,2.86H84.76c-1.34,0-1.68-.34-1.68-1.51v-4.13h1.1v4.13c0,.41.12.49.7.49Zm-1.61-5.85a15.11,15.11,0,0,1,1.87,2.43l-.83.58a15.52,15.52,0,0,0-1.82-2.52Zm3.94.94a18.81,18.81,0,0,1,1.5,3.5l-1,.37a19.6,19.6,0,0,0-1.43-3.57Z"/><path class="cls-1" d="M107.9,296.6c-.31,3.5-.63,4.88-1.16,5.42a1.48,1.48,0,0,1-1.09.44,14.37,14.37,0,0,1-2.09,0,2.72,2.72,0,0,0-.32-1.12,18.54,18.54,0,0,0,1.9.08.74.74,0,0,0,.59-.17c.36-.34.63-1.41.9-4.06H96.46a17.51,17.51,0,0,1-3,2,6.24,6.24,0,0,0-.68-1.05,17.7,17.7,0,0,0,7.16-7.07h-6v-1.12h3.37A12.1,12.1,0,0,0,96,287.47l1.07-.42a10.61,10.61,0,0,1,1.39,2.48l-.94.41h3a22.33,22.33,0,0,0,1.21-3l1.24.36c-.32.88-.68,1.77-1.09,2.62h3.48c-.17,1-.37,2.18-.58,3.06h2c-.17,1-.36,2.16-.54,3.06h1.72Zm-14.31,5.07a6.13,6.13,0,0,0,2-3.5l1.07.34a6.82,6.82,0,0,1-2.06,3.81Zm5.83-7.58a19.09,19.09,0,0,1-1.73,2h7.39c.12-.58.24-1.27.36-2Zm-.63,4.44a11.22,11.22,0,0,1,.49,3.09l-1.12.15a10.46,10.46,0,0,0-.41-3.11Zm2.57-7.46a22.46,22.46,0,0,1-1.17,1.94h3.47c.15-.56.29-1.26.41-1.94Zm0,7.17a11.71,11.71,0,0,1,1,2.74l-1.05.27a12.32,12.32,0,0,0-.88-2.77Zm2.75,2.23a9.75,9.75,0,0,0-1.26-2.31l.88-.32a9.32,9.32,0,0,1,1.29,2.23Z"/><path class="cls-1" d="M123.66,295.36a10.6,10.6,0,0,1-3.89,4.27,21.7,21.7,0,0,0,6.29,1.65,4.78,4.78,0,0,0-.76,1.17,19.84,19.84,0,0,1-6.78-2.11,22.86,22.86,0,0,1-6.85,2.11,4.79,4.79,0,0,0-.75-1.12,23.49,23.49,0,0,0,6.39-1.7,12,12,0,0,1-3.43-3.5l.17-.07h-.73v-1.17h9.26l.25-.05Zm-11.2-.07h-1.19v-3.45H114a12,12,0,0,0-1.12-2.24l1.09-.31a10,10,0,0,1,1.21,2.23l-1,.32h7.39a21.11,21.11,0,0,0,1.58-2.89l1.27.39c-.46.83-1.05,1.75-1.56,2.5h2.91v3.45h-1.24V293h-12Zm12.32-7.36a89.32,89.32,0,0,1-13.05,1.31,3.86,3.86,0,0,0-.29-1.07,88.94,88.94,0,0,0,12.46-1.26Zm-9.57,8.13a10,10,0,0,0,3.33,2.92,9.26,9.26,0,0,0,3.23-2.92Zm3-4.32a9.88,9.88,0,0,0-.85-2.5l1.14-.25a10.26,10.26,0,0,1,.9,2.46Z"/><path class="cls-1" d="M135.5,299.17c-2.4.75-5,1.51-6.8,2.06l-.27-1.21,1.11-.29v-9.37h1.1v9.06l1.48-.42V287.15h1.16v5h2v1.12h-2v5.41l2.07-.59Zm8-5.59a12.05,12.05,0,0,1-3.09,5.69,10.84,10.84,0,0,0,3.81,2.13,4.06,4.06,0,0,0-.82,1,11,11,0,0,1-3.89-2.35,13.18,13.18,0,0,1-4.59,2.4,4.16,4.16,0,0,0-.66-1.07,12.13,12.13,0,0,0,4.4-2.18,13.72,13.72,0,0,1-2.6-4.71l.22-.07h-.9v-1.12h3.54V290.7H135v-1.14h3.89V287h1.21v2.6h3.84v1.14h-3.84v2.63h2.4l.22-.05Zm-6.29.88a11.32,11.32,0,0,0,2.33,4,10.35,10.35,0,0,0,2.48-4Z"/><path class="cls-1" d="M152.11,297.31a26.75,26.75,0,0,0-1.75-2.11v7.28h-1.24v-6.92a14.15,14.15,0,0,1-2.35,2,4.66,4.66,0,0,0-.58-1.21,14.16,14.16,0,0,0,4.93-5.27h-4.47v-1.16h5.13l.24-.05.66.49a16.12,16.12,0,0,1-2.11,3.6c.66.63,2,2,2.33,2.36ZM150,289.83a10.09,10.09,0,0,0-1.55-2.21l.94-.59a9,9,0,0,1,1.6,2.12Zm10.56,11.46c.36,0,.41-.22.46-2.09a3.61,3.61,0,0,0,1.07.48c-.1,2.19-.42,2.74-1.41,2.74h-1.41c-1.16,0-1.43-.34-1.43-1.55v-4H156.4c-.29,2.79-1.05,4.64-4,5.68a3.35,3.35,0,0,0-.7-.94c2.7-.83,3.33-2.4,3.55-4.74h-1.55v-9.16H161v9.16h-2v4c0,.39.05.44.41.44Zm-5.69-10.86h5v-1.67h-5Zm0,2.7h5v-1.7h-5Zm0,2.7h5v-1.72h-5Z"/><path class="cls-1" d="M169,287.18c-.29.83-.59,1.77-.88,2.5h2.82v11h-4.73v1.34h-1.16V289.68H167a21,21,0,0,0,.68-2.75Zm.78,3.64h-3.57v3.55h3.57Zm0,8.75v-4.08h-3.57v4.08Zm9.47-9.3c-.27,7.75-.49,10.37-1.17,11.2a1.69,1.69,0,0,1-1.34.68,17.88,17.88,0,0,1-2.52,0,2.93,2.93,0,0,0-.43-1.24c1.11.1,2.13.1,2.52.1s.53,0,.7-.26c.56-.59.82-3.18,1-9.94h-4.32a14.35,14.35,0,0,1-1.6,3,9.38,9.38,0,0,0-1-.71,17.25,17.25,0,0,0,2.6-6.17l1.21.29a23.88,23.88,0,0,1-.73,2.45h5.08Zm-3.76,7.67a30.17,30.17,0,0,0-2.58-3.93l1-.58a33.24,33.24,0,0,1,2.67,3.84Z"/><path class="cls-1" d="M195.79,292.6A13.49,13.49,0,0,1,192,299a13.7,13.7,0,0,0,5.39,2.35,4.33,4.33,0,0,0-.85,1.16,14.08,14.08,0,0,1-5.56-2.63,16,16,0,0,1-5.22,2.6,4.67,4.67,0,0,0-.73-1.14,14.46,14.46,0,0,0,5-2.33,14.52,14.52,0,0,1-3.31-5.49h-1.12c-.05,2.79-.46,6.41-2.19,8.92a5,5,0,0,0-1.07-.75c1.85-2.63,2-6.37,2-9.06V288h12.37v1.22H185.59v3h9.08l.25-.07Zm-7.77.92a12.09,12.09,0,0,0,3,4.66,11.78,11.78,0,0,0,3.11-4.66Z"/><path class="cls-1" d="M205.78,295.49c-.71.22-1.43.44-2.14.65v4.78c0,.73-.17,1.05-.63,1.26a6.17,6.17,0,0,1-2.29.24,3.93,3.93,0,0,0-.41-1.16c.82,0,1.55,0,1.75,0s.34-.08.34-.34V296.5l-2.26.66-.31-1.22c.71-.17,1.6-.41,2.57-.68v-3.69h-2.29v-1.17h2.29V287h1.24v3.4h1.92v1.17h-1.92v3.37l2-.56Zm8.21,5.75a.67.67,0,0,0,.39-.1,1,1,0,0,0,.19-.58c0-.36.05-1.14.07-2.14a3.66,3.66,0,0,0,1,.53,16.23,16.23,0,0,1-.14,2.38,1.28,1.28,0,0,1-.49.8,1.72,1.72,0,0,1-.9.22h-.9a1.56,1.56,0,0,1-1-.32c-.27-.22-.37-.53-.37-1.72V294h-3.18v2a7.49,7.49,0,0,1-3.16,6.63,4.21,4.21,0,0,0-.83-1,6.23,6.23,0,0,0,2.75-5.68v-3.11H213v7.51c0,.44,0,.7.12.78a.46.46,0,0,0,.31.08Zm1.51-10.08h-9.62V290h9.62Zm-5.59-1.34a17.8,17.8,0,0,0-1.16-2.62l1.14-.36a18.29,18.29,0,0,1,1.24,2.55Z"/><path class="cls-1" d="M257.8,494.91a17.16,17.16,0,0,1-3,4c.65,1.79,1.41,2.87,2.26,2.87.46,0,.66-.87.76-3a3.1,3.1,0,0,0,1.07.68c-.24,2.8-.68,3.62-2,3.62s-2.36-1.19-3.14-3.18a17.62,17.62,0,0,1-3.59,2.5,4.7,4.7,0,0,0-.87-1,16.79,16.79,0,0,0,4-2.75,31.7,31.7,0,0,1-1-4.93h-4v2.72l3-.66.08,1.14c-1,.25-2.09.49-3.13.73v3.77c0,.82-.2,1.19-.73,1.39a9.35,9.35,0,0,1-2.82.24,5.85,5.85,0,0,0-.48-1.27c1.09.05,2.09,0,2.38,0s.41-.08.41-.39V497.9c-1.28.27-2.5.56-3.52.78l-.36-1.27c1-.17,2.4-.46,3.88-.77v-3h-3.64v-1.21h3.64v-2.7c-1.05.2-2.12.37-3.13.51a4.47,4.47,0,0,0-.41-1.05,38.86,38.86,0,0,0,6.71-1.53l.9,1a23.33,23.33,0,0,1-2.84.78v3h3.89c-.15-1.55-.22-3.18-.24-4.84h1.29c0,1.7.07,3.33.2,4.84h5v1.21h-4.86a29.57,29.57,0,0,0,.7,3.88,14.68,14.68,0,0,0,2.23-3.09Zm-.61-3.43a17,17,0,0,0-2.67-2.89l1-.66a18.08,18.08,0,0,1,2.72,2.82Z"/><path class="cls-1" d="M265.6,487.89a29.09,29.09,0,0,1-1.33,3.31V503h-1.21v-9.52a17.3,17.3,0,0,1-1.6,2.28,9.2,9.2,0,0,0-.66-1.28,20.4,20.4,0,0,0,3.62-6.9Zm4.79,6.7H267v8.36h-1.17v-14.5h4.54ZM267,489.45V491h2.36v-1.55Zm2.36,4.15V492H267v1.65Zm6.75,7.73c0,.82-.19,1.21-.75,1.41a11.56,11.56,0,0,1-3.16.22,6.89,6.89,0,0,0-.42-1.21c1.21,0,2.38,0,2.7,0s.44-.12.44-.46v-6.73h-3.54v-6.14h4.73Zm-3.69-11.88V491H275v-1.55Zm2.5,4.15V492h-2.5v1.65Z"/><path class="cls-1" d="M294.45,497.85V499H279.14v-1.17h1.72l-.32-9a27.8,27.8,0,0,0,3.14-1.31l.61,1c-.78.32-1.72.65-2.58.92l.07,2h2.28v1.09h-2.24l.07,2.07h2.24v1.09h-2.19l.07,2.09h9.64c0-.59.08-1.31.12-2h-2.21v-1.07h2.24c0-.68.05-1.38.08-2.09h-2.24v-1.09h2.26c0-.73,0-1.45,0-2.12h-2.45v-1.1h3.6c0,3-.1,7-.25,9.52Zm-9.28,2.21a27,27,0,0,1-5.07,2.91,11.4,11.4,0,0,0-.75-1,19.63,19.63,0,0,0,4.73-2.72Zm1.31-6.08a8.55,8.55,0,0,1-1,3.18,5.47,5.47,0,0,0-.88-.54,6.61,6.61,0,0,0,.93-2.81Zm1.17-.9H285v-5.49h1.11v1.58h2.8v1.07h-2.8v1.82h2.23v0h.46v4.47c0,.53-.1.75-.48.92a5.47,5.47,0,0,1-1.78.15,3.35,3.35,0,0,0-.32-.87,11,11,0,0,0,1.28,0c.19,0,.22-.07.22-.22Zm1.46,6.17a41.22,41.22,0,0,1,4.95,2.72l-.83,1a39.1,39.1,0,0,0-4.81-2.8Z"/><path class="cls-1" d="M303.41,500.45a30.14,30.14,0,0,1-5.63,2.52,8.52,8.52,0,0,0-.83-1,22.3,22.3,0,0,0,5.34-2.33Zm8.72-1.09h-15v-1.17h3.11v-7.55H297.6v-1.19h2.63v-2h1.24v2h6.29v-2H309v2h2.72v1.19H309v7.55h3.11Zm-10.66-8.72v1.68h6.29v-1.68Zm0,4.61h6.29v-1.84h-6.29Zm0,2.94h6.29v-1.85h-6.29Zm5.25,1.56a41.13,41.13,0,0,1,5.46,2.35l-1.12.83a35.45,35.45,0,0,0-5.18-2.38Z"/><path class="cls-1" d="M319.73,487.91a25.48,25.48,0,0,1-1.77,3.71V503h-1.21v-9.5a15.69,15.69,0,0,1-1.68,2,6.51,6.51,0,0,0-.71-1.22,19.15,19.15,0,0,0,4.2-6.75Zm8.09,13.79c1,0,1.21-.46,1.34-2.45a3.62,3.62,0,0,0,1.16.48c-.22,2.36-.61,3.11-2.46,3.11h-4.47c-2,0-2.6-.48-2.6-2.35v-5.58l-1.68.65-.48-1.1,2.16-.85v-4.42H322v4l2.5-1V487.5h1.16v4.22l2.82-1.09.24-.19.94.29-.05.24c-.05,2.45-.22,5.69-.49,7.7l-1-.31c.17-1.6.27-4.2.31-6.41L325.63,493v6.22h-1.16v-5.76l-2.5,1v6c0,1,.24,1.21,1.43,1.21Z"/><path class="cls-1" d="M337.18,499.74c-1.58.49-3.23,1-4.54,1.41l-.25-1.16c.56-.14,1.22-.32,2-.54v-4.78h-1.58v-1.12h1.58v-3.77h-1.75v-1.14h4.54v1.14h-1.67v3.77h1.48v1.12h-1.48v4.45l1.58-.49Zm10.52-.8a22.9,22.9,0,0,1-2.36,1.31,6.85,6.85,0,0,0,2.91,1.62,3.5,3.5,0,0,0-.76,1,7.64,7.64,0,0,1-4.81-4.78,12.85,12.85,0,0,1-2.07,1.48v2l2.84-.65a5.73,5.73,0,0,0,0,.93,22.55,22.55,0,0,0-4,1.16A3.64,3.64,0,0,0,339,502a1.07,1.07,0,0,0,.56-1.05v-.85a15,15,0,0,1-1.84.75A3.52,3.52,0,0,0,337,500a13.9,13.9,0,0,0,4.37-2h-2.53v-3.49h8V498H343.7a6.71,6.71,0,0,0,1,1.63,17.74,17.74,0,0,0,2.12-1.39Zm.19-5.41H337.67v-1h10.22Zm-.58-1.89h-8.94v-3.57h8.94ZM341,489h-1.6v1.73H341ZM340,497h5.64v-1.6H340Zm3.64-8h-1.67v1.73h1.67Zm2.6,0h-1.7v1.73h1.7Z"/><path class="cls-1" d="M355.6,487.87a25.52,25.52,0,0,1-1.78,3.62v11.46h-1.21v-9.62a18.75,18.75,0,0,1-1.77,2.11,10.44,10.44,0,0,0-.71-1.22,19.08,19.08,0,0,0,4.28-6.7Zm3,10.13a26.77,26.77,0,0,1-2.87,4.16,8.82,8.82,0,0,0-1-.73,18.48,18.48,0,0,0,2.74-3.79Zm2.45-1.19V503h-1.26v-6.19h-4.91v-1.16h4.91v-2h-3.67v-5.37h8.75v5.37h-3.82v2h4.81v1.16Zm-3.74-4.3h6.31V489.4h-6.31Zm5.66,5.12a29.38,29.38,0,0,1,2.94,3.81l-1,.63a26.52,26.52,0,0,0-2.89-3.91Z"/><path class="cls-1" d="M382.87,488.25v14.67h-1.21v-.8H370.39V503h-1.17V488.25Zm-1.21,12.85V489.25H370.39V501.1Zm-.56-2.79h-2.43v1.58c0,.49-.1.68-.49.78a8.33,8.33,0,0,1-2,.12,2.66,2.66,0,0,0-.31-.71c.68,0,1.33,0,1.5,0s.25-.05.25-.22v-1.55H371v-.78h6.63v-.63h1.07v.63h2.43Zm-5.66-7.21h-4.27v-.78h4.27v-.8h1.07v.8h4.35v.78h-4.35v.71h3.76v3.4h-1.36a9.41,9.41,0,0,1,1.84,1.67l-.71.53a8,8,0,0,0-.68-.75c-2.94.1-6,.19-8.09.24l-.05-.8,4.23,0v-.85h-3.6v-3.4h3.6Zm-1.85,7.29a7.52,7.52,0,0,1,1.51,1.53l-.87.51a7.86,7.86,0,0,0-1.46-1.62Zm-.75-5.2h2.6v-.73h-2.6Zm2.6,1.38v-.75h-2.6v.75Zm1.07-2.11v.73h2.7v-.73Zm2.7,1.36h-2.7v.75h2.7ZM378.6,496c-.14-.12-.27-.22-.41-.32l.68-.46h-2.36V496Z"/><path class="cls-1" d="M392,492.77h.73v2.43H392v6.51c0,.54-.1.82-.48,1a5.71,5.71,0,0,1-1.9.17,4.84,4.84,0,0,0-.36-1l1.43,0c.19,0,.24-.07.24-.24v-2.23c-.8.49-1.56,1-2.28,1.38l-.48-.9c.73-.31,1.72-.82,2.75-1.36v-2.87h-2.67V498a9.2,9.2,0,0,1-1.17,5.07,3.83,3.83,0,0,0-.88-.68,7.87,7.87,0,0,0,1-4.39V495.2h-.83v-2.43h.7v-4.69h5Zm-.27.92h-4.45v1.12h4.45Zm-3.69-.92h1.05v-2.63H391V489h-2.91Zm2.07,5.66a14.24,14.24,0,0,0-1.8-1.5l.58-.58a12.27,12.27,0,0,1,1.85,1.38Zm.83-5.66v-1.84h-1.11v1.84Zm10.66,8.91v1h-8.79v-1h2.43a12.62,12.62,0,0,0-.59-1.6l1-.29c.25.58.56,1.34.73,1.89H398c.25-.6.56-1.39.73-1.94l1.16.34c-.29.53-.59,1.12-.85,1.6Zm-.15-5.93H393v-1h8.47Zm-.42-1.84h-7.67v-5.12h2.11V487.5h1v1.29h1.22V487.5h1v1.29h2.26Zm-7.21,5.8v-3.14h6.8v3.14Zm.53-8.8h1.31v-1.21h-1.31Zm0,2.11h1.31v-1.26h-1.31Zm.59,5.85h4.5v-1.43H395Zm2.84-8v-1.21h-1.28v1.21Zm-1.28.85V493h1.28v-1.26Zm3.5-2.06h-1.38v1.21H400Zm0,2.06h-1.38V493H400Z"/><path class="cls-1" d="M410,490.85c-.32.66-.66,1.34-1,2h8.23v8.58c0,.76-.17,1.14-.71,1.34a10.42,10.42,0,0,1-3,.22,4.28,4.28,0,0,0-.42-1.24c1.14.05,2.16,0,2.46,0s.39-.1.39-.36v-1.77h-7.29a6.1,6.1,0,0,1-1.73,3.45,4.06,4.06,0,0,0-.88-1,6.34,6.34,0,0,0,1.56-4.84v-2.48a14.29,14.29,0,0,1-2.75,2.6,8.38,8.38,0,0,0-.8-1,13.86,13.86,0,0,0,4.57-5.54h-4.23v-1.19h4.78a22.26,22.26,0,0,0,.75-2.19l1.26.31a18.73,18.73,0,0,1-.66,1.89h8.67v1.19Zm5.95,7.7v-1.77h-7.09v.51c0,.41,0,.82-.05,1.26Zm0-4.59h-7.09v1.72h7.09Z"/><path class="cls-1" d="M426.83,487.85a30.17,30.17,0,0,1-1.51,3.42V503h-1.24v-9.62a14.56,14.56,0,0,1-1.58,2.06,8.08,8.08,0,0,0-.7-1.22,19.47,19.47,0,0,0,3.86-6.7Zm10.56,2.48h-1.24v10.91c0,.9-.24,1.28-.83,1.48a13.47,13.47,0,0,1-3.4.24,4.91,4.91,0,0,0-.46-1.29c1.36.05,2.6,0,3,0s.48-.1.48-.44V490.34h-8v-1.22h10.52Zm-8.82,8.21v1.17h-1.21v-7h5.3v5.83Zm0-4.71v3.59h2.92v-3.59Z"/><path class="cls-1" d="M449.31,489.93c-.37.63-.78,1.24-1.21,1.87v11.15h-1.34V493.5a21.79,21.79,0,0,1-6.15,4.95,8.72,8.72,0,0,0-.85-1.1,19.72,19.72,0,0,0,7.94-7.41h-7.51v-1.26H454.7v1.26Zm.07,2.84a38.74,38.74,0,0,1,5.8,4.47l-1,1a38,38,0,0,0-5.73-4.62Z"/><path class="cls-1" d="M472.27,501.4c0,.78-.19,1.16-.7,1.38a9.1,9.1,0,0,1-2.84.24,3.94,3.94,0,0,0-.46-1.24c1.07,0,2.06,0,2.35,0s.41-.12.41-.39V489.55H459.56V503h-1.22V488.35h13.94Zm-2.67-9H461v-1.11h8.57Zm-6.54,7.14v1.22h-1.17V494.2h6.82v5.37Zm0-4.3v3.21h4.45v-3.21Z"/><path class="cls-1" d="M483.41,492.05c0-1.17-.85-2-2.58-2a4.32,4.32,0,0,0-3.21,1.55l-.92-.85a5.64,5.64,0,0,1,4.3-2c2.4,0,3.93,1.22,3.93,3.18,0,2.57-4.06,3.09-3.6,5.64h-1.39C479.4,494.76,483.41,494,483.41,492.05Zm-2.75,7.05a1.29,1.29,0,0,1,1.36,1.33,1.31,1.31,0,0,1-1.36,1.34,1.32,1.32,0,0,1-1.38-1.34A1.31,1.31,0,0,1,480.66,499.11Z"/><path class="cls-1" d="M294.41,528.18h13.11a14.8,14.8,0,0,1-2.75-2.79l1-.59a18.12,18.12,0,0,0,4.35,4,18.12,18.12,0,0,0-4.35,4l-1-.59a14.8,14.8,0,0,1,2.75-2.79H294.41Z"/><path class="cls-1" d="M318.33,524.37c-.32.66-.66,1.34-1,2h8.23v8.58c0,.76-.17,1.14-.71,1.34a10.42,10.42,0,0,1-3,.22,4.28,4.28,0,0,0-.42-1.24c1.14.05,2.16,0,2.46,0s.39-.1.39-.36v-1.77H317a6.1,6.1,0,0,1-1.73,3.45,4.06,4.06,0,0,0-.88-1,6.34,6.34,0,0,0,1.56-4.84V528.3a14.29,14.29,0,0,1-2.75,2.6,8.38,8.38,0,0,0-.8-1,13.86,13.86,0,0,0,4.57-5.54h-4.23v-1.19h4.78a22.26,22.26,0,0,0,.75-2.19l1.26.31a18.73,18.73,0,0,1-.66,1.89h8.67v1.19Zm5.95,7.7V530.3h-7.09v.51c0,.41,0,.82-.05,1.26Zm0-4.59h-7.09v1.72h7.09Z"/><path class="cls-1" d="M334.53,534.11a9.7,9.7,0,0,0,4.45.75c.78,0,5.78,0,6.8,0a4,4,0,0,0-.51,1.24H339c-3.69,0-5.78-.59-7-3.08a9.52,9.52,0,0,1-1.21,3.5,2.55,2.55,0,0,0-.85-.75c1.19-2,1.31-4.86,1.26-7.12l1.07.07c0,.68,0,1.38,0,2.13a6.19,6.19,0,0,0,1.21,2.4v-6h-3.08V526.1H333v-2h-2.29V523H333v-2h1.16v2H336v1.12h-1.85v2h2.16v1.14h-1.82v2.23h1.77v1.12h-1.77ZM337,522.77h-.92v-1.11h5.71v1.11H341V533a11.74,11.74,0,0,0,2.06-3.86c-.58-1.21-1.21-2.45-1.82-3.52l.9-.34c.44.76.9,1.6,1.33,2.45a26.51,26.51,0,0,0,.68-3.6h-2.69V523h3l.2,0,.66.22a31.88,31.88,0,0,1-1.16,5.88A26.88,26.88,0,0,1,345.7,533l-1,.41a24.85,24.85,0,0,0-1.05-2.86,12.29,12.29,0,0,1-2,3.4,4.44,4.44,0,0,0-.73-.78v1.26H339.9v-2.5c-1.29.34-2.53.66-3.57.92l-.25-1.05,1-.19Zm2.86,0h-1.82v2h1.82Zm0,3h-1.82v2.09h1.82Zm-1.82,5.52c.58-.14,1.19-.29,1.82-.42v-2h-1.82Z"/><path class="cls-1" d="M352.76,521.21c-.29.83-.59,1.77-.88,2.5h2.82v11H350v1.34h-1.16V523.71h1.9a21,21,0,0,0,.68-2.75Zm.78,3.64H350v3.55h3.57Zm0,8.75v-4.08H350v4.08Zm9.47-9.3c-.27,7.75-.49,10.37-1.17,11.2a1.69,1.69,0,0,1-1.34.68,17.88,17.88,0,0,1-2.52,0,2.93,2.93,0,0,0-.43-1.24c1.11.1,2.13.1,2.52.1s.53,0,.7-.26c.56-.59.82-3.18,1-9.94h-4.32a14.35,14.35,0,0,1-1.6,3,9.38,9.38,0,0,0-1-.71,17.25,17.25,0,0,0,2.6-6.17l1.21.29a23.88,23.88,0,0,1-.73,2.45H363ZM359.25,532a30.17,30.17,0,0,0-2.58-3.93l1-.58a33.24,33.24,0,0,1,2.67,3.84Z"/><path class="cls-1" d="M370.47,533.26c-1.58.49-3.23,1-4.54,1.41l-.25-1.16c.56-.14,1.22-.32,2-.54V528.2h-1.58v-1.12h1.58V523.3h-1.75v-1.14h4.54v1.14h-1.67v3.77h1.48v1.12h-1.48v4.45l1.58-.49Zm10.52-.8a22.9,22.9,0,0,1-2.36,1.31,6.85,6.85,0,0,0,2.91,1.62,3.5,3.5,0,0,0-.76,1,7.64,7.64,0,0,1-4.81-4.78,12.85,12.85,0,0,1-2.07,1.48v2l2.84-.65a5.73,5.73,0,0,0,0,.93,22.55,22.55,0,0,0-4,1.16,3.64,3.64,0,0,0-.44-.94,1.07,1.07,0,0,0,.56-1.05v-.85a15,15,0,0,1-1.84.75,3.52,3.52,0,0,0-.73-.87,13.9,13.9,0,0,0,4.37-2H372.1V528h8v3.49H377a6.71,6.71,0,0,0,1,1.63,17.74,17.74,0,0,0,2.12-1.39Zm.19-5.41H371v-1h10.22Zm-.58-1.89h-8.94V521.6h8.94Zm-6.27-2.65h-1.6v1.73h1.6Zm-1.07,8h5.64v-1.6h-5.64Zm3.64-8h-1.67v1.73h1.67Zm2.6,0h-1.7v1.73h1.7Z"/><path class="cls-1" d="M388.9,521.4a25.52,25.52,0,0,1-1.78,3.62v11.46h-1.21v-9.62a18.75,18.75,0,0,1-1.77,2.11,10.44,10.44,0,0,0-.71-1.22,19.08,19.08,0,0,0,4.28-6.7Zm3,10.13a26.77,26.77,0,0,1-2.87,4.16,8.82,8.82,0,0,0-1-.73,18.48,18.48,0,0,0,2.74-3.79Zm2.45-1.19v6.19h-1.26v-6.19h-4.91v-1.16h4.91v-2h-3.67v-5.37h8.75v5.37h-3.82v2h4.81v1.16Zm-3.74-4.3H397v-3.11h-6.31Zm5.66,5.12a29.38,29.38,0,0,1,2.94,3.81l-1,.63a26.52,26.52,0,0,0-2.89-3.91Z"/><path class="cls-1" d="M407.26,525.05a21.29,21.29,0,0,1-1.87,2.57v8.94h-1.26V529a20.07,20.07,0,0,1-1.92,1.77,12.21,12.21,0,0,0-.88-1.05,18.56,18.56,0,0,0,4.76-5.12Zm-.66-3.59a20.88,20.88,0,0,1-4.35,4.22,11.24,11.24,0,0,0-.75-1,16.87,16.87,0,0,0,3.89-3.69ZM417,527.87h-2.57v7c0,.78-.19,1.17-.75,1.38a12.81,12.81,0,0,1-3.2.19,4.49,4.49,0,0,0-.41-1.22c1.21,0,2.33,0,2.65,0s.42-.08.42-.37v-7H407.5v-1.21H417Zm-.49-4.66h-8.29V522h8.29Z"/><path class="cls-1" d="M434.58,524.93s0,.48,0,.65c-.19,7.12-.34,9.48-.92,10.2a1.34,1.34,0,0,1-1.14.63,11.61,11.61,0,0,1-2.06,0,3.44,3.44,0,0,0-.36-1.19c.82.07,1.56.08,1.89.08a.64.64,0,0,0,.61-.27c.39-.49.6-2.74.77-8.91h-2.43c-.2,4.52-1,8.23-4,10.47a4.28,4.28,0,0,0-.93-.9,8.7,8.7,0,0,0,.75-.59c-2.58.31-5.22.59-7.12.8l-.19-1.1,3.69-.34V533h-3.21v-1h3.21v-1H420v-5h3.18v-1.07h-3.67v-1h3.67v-1.12c-1.09.08-2.19.15-3.2.19a3.76,3.76,0,0,0-.31-.94,53,53,0,0,0,7.33-.83l.63,1a32.7,32.7,0,0,1-3.31.49v1.24h3.6v1h-3.6v1.07h3.3v5h-3.3v1h3.33v1h-3.33v1.34c1.1-.1,2.26-.22,3.4-.36v.08c1.48-2,1.92-4.74,2.07-7.94h-2v-1.19h2c0-1.19,0-2.43,0-3.72H431c0,1.28,0,2.53,0,3.72ZM421,528h2.14V526.8H421Zm2.14,2.07v-1.24H421v1.24Zm1.14-3.3V528h2.23V526.8Zm2.23,2.06h-2.23v1.24h2.23Z"/><path class="cls-1" d="M186.8,175.15v1.38h-1.12V165.35h4.5v9.79Zm0-8.6V174H189v-7.43Zm13.53,3.5a13.79,13.79,0,0,1-3,6.17,10.45,10.45,0,0,0,3.54,2.24,6,6,0,0,0-.82,1,11.18,11.18,0,0,1-3.54-2.41,12,12,0,0,1-3.74,2.4,4.51,4.51,0,0,0-.8-1,11.56,11.56,0,0,0,3.72-2.29,15.92,15.92,0,0,1-2.6-4.62c-.44,3.08-1.34,6.05-3.28,8a8.38,8.38,0,0,0-.88-.85c2.89-2.84,3.26-8.23,3.35-12.49h-1.48V165h6.88l.22-.05.88.14c-.19,1.36-.49,3.16-.78,4.69h1.29l.24,0Zm-6.8-3.89c0,1.16-.1,2.38-.2,3.62h3.48c.22-1.17.48-2.55.63-3.62Zm.51,4.79a13.93,13.93,0,0,0,2.48,4.39,11.54,11.54,0,0,0,2.35-4.39Z"/><path class="cls-1" d="M209.63,172.1s0,.37,0,.54c-.17,4.13-.34,5.61-.73,6.1a1.35,1.35,0,0,1-1,.49,12.82,12.82,0,0,1-1.63,0,3,3,0,0,0-.34-1.12c.63.05,1.19.07,1.41.07a.53.53,0,0,0,.49-.19c.26-.31.41-1.53.56-4.76h-2.26c-.27,2.5-.88,4.76-2.33,6.25a3.82,3.82,0,0,0-.88-.85c1.75-1.77,2.06-5,2.18-8.11H203V169.4h3.45a13.23,13.23,0,0,0-.77-1.56l1.16-.24a12.88,12.88,0,0,1,.92,1.8h2.72v1.14h-4.15c0,.53-.05,1.05-.1,1.56Zm-2.38-5.75h-4v-1.14h4V164h1.22v1.24h1.92v1.14h-1.92v1.14h-1.22Zm7.65,1.55c-.08.17-.15.34-.24.49a20.06,20.06,0,0,0,4,4,5.15,5.15,0,0,0-.83.88,24.07,24.07,0,0,1-3.71-4,14.06,14.06,0,0,1-3.59,4,4.92,4.92,0,0,0-.87-.78,12.27,12.27,0,0,0,4.1-4.91Zm-3.4,7.34a24.08,24.08,0,0,1,6,2.94l-.73,1a24.4,24.4,0,0,0-5.9-3.08Zm1.41-8.89H211v-1.14h1.89V164h1.24v1.24h4v1.14h-4v1.14h-1.24Zm.22,5.68a13.62,13.62,0,0,1,3.28,2.09l-.76.85a15.22,15.22,0,0,0-3.23-2.18Z"/><path class="cls-1" d="M229.73,170.54c-.88.63-1.8,1.22-2.74,1.77h7v7.11h-1.29v-.48h-6.88v.54h-1.24V173.6c-1,.49-2.07,1-3.11,1.34a7.45,7.45,0,0,0-.8-1,33.57,33.57,0,0,0,7-3.37h-6.61V169.4h5.81v-2.18h-4.33V166.1h4.33V164h1.24v2.13h4.2v.7a19.9,19.9,0,0,0,1.94-2.24l1.07.58a25.79,25.79,0,0,1-4.13,4.27h4.9v1.14Zm3,2.84h-6.88v1.68h6.88Zm0,4.45v-1.77h-6.88v1.77Zm-3.42-8.43a26.85,26.85,0,0,0,2.58-2.18h-3.77v2.18Z"/><path class="cls-1" d="M244.07,176.46a17.9,17.9,0,0,1-4.33,2.8,7.67,7.67,0,0,0-1-.85,14.25,14.25,0,0,0,4.15-2.41Zm9.93-7.12v1h-8.09l.41.32a20.59,20.59,0,0,1-2.65,1.38l3.91-.19c.68-.32,1.36-.68,2-1.05l.88.8a42.46,42.46,0,0,1-7,3l7-.36c-.37-.27-.76-.54-1.12-.78l.92-.59a18.68,18.68,0,0,1,3.35,2.63l-1,.68a11.3,11.3,0,0,0-1.1-1.09l-4.23.24v2.75c0,.66-.15,1-.7,1.17a9.18,9.18,0,0,1-2.62.2,3.88,3.88,0,0,0-.48-1.17c1.05,0,2,0,2.21,0s.36-.07.36-.25v-2.65c-5,.29-5.66.36-6.12.51a6.78,6.78,0,0,0-.31-1.11,10.4,10.4,0,0,0,2.35-.61c.58-.19,1.92-.7,3.47-1.34-3.42.19-3.89.25-4.22.37a6.23,6.23,0,0,0-.32-1.07,4.55,4.55,0,0,0,1.17-.34,20.38,20.38,0,0,0,2.79-1.45h-6v-1h6.87v-1.1h-5.08v-1h5.08v-1.07h-6v-1h6V164H247v1.26h6.19v1H247v1.07h5.2v1H247v1.1ZM249.63,176a26.32,26.32,0,0,1,4.18,2.45l-1,.78a24.32,24.32,0,0,0-4.11-2.55Z"/><path class="cls-1" d="M267.72,170.13a10.2,10.2,0,0,0,4.42,2.74,5.53,5.53,0,0,0-.8,1,10.88,10.88,0,0,1-4.93-3.72h-4.16a12,12,0,0,1-2.21,2.24h8.58v3.94H261v1.62l2.87-.66c0,.31,0,.73.05,1-3.55.92-4,1.07-4.35,1.28a3.55,3.55,0,0,0-.54-1.07,1.09,1.09,0,0,0,.65-1.09v-4.69a17,17,0,0,1-2.43,1.45,6.19,6.19,0,0,0-.87-.92,11.8,11.8,0,0,0,4.38-3.06h-3.94v-.92h6.78v-.9h-4.9v-.85h4.9v-.83h-5.81v-.9H261a12.47,12.47,0,0,0-.9-1.36l1.11-.39a11,11,0,0,1,1.19,1.75h3.91a12.58,12.58,0,0,0,1-1.78l1.33.34c-.32.51-.68,1-1,1.44h3.16v.9h-5.86v.83h4.95v.85h-4.95v.9h6.85v.92Zm-6.71,3v.8h6.37v-.8Zm6.37,2.35v-.83H261v.83Zm-5.56-3.91v-.75h4.9v.75Zm9.2,4.74a22.1,22.1,0,0,1-2.7,1.29c1,.37,2,.73,2.67,1l-.51.9c-1.51-.65-4.49-1.72-6.68-2.41l.51-.76c.87.25,1.87.56,2.87.9a27.37,27.37,0,0,0,3-1.6Z"/><path class="cls-1" d="M284,166.43c-.37.63-.78,1.24-1.21,1.87v11.15h-1.34V170a21.79,21.79,0,0,1-6.15,4.95,8.8,8.8,0,0,0-.85-1.1,19.72,19.72,0,0,0,7.94-7.41h-7.51v-1.26h14.52v1.26Zm.07,2.84a38.74,38.74,0,0,1,5.8,4.47l-1,1a38,38,0,0,0-5.73-4.62Z"/><path class="cls-1" d="M300.7,177.8a14.67,14.67,0,0,0,3,.25c.53,0,3.42,0,4.13,0a4.46,4.46,0,0,0-.46,1.22h-3.74c-3.6,0-6.21-.65-7.82-3.59a8.47,8.47,0,0,1-2.6,3.82,5.21,5.21,0,0,0-.88-.85c2-1.55,2.82-4.4,3.06-6.83l1.34.15a19.8,19.8,0,0,1-.42,2.13,5.35,5.35,0,0,0,3.16,3.35v-6.88h-5v-5.76h11.56v5.76H300.7v2.62h5.69v1.17H300.7Zm-5.08-8.45h9V166h-9Z"/><path class="cls-1" d="M271.74,418.66c-.12.27-.27.54-.42.81a26.88,26.88,0,0,0,4.63,4.22,12.68,12.68,0,0,0-1.63,1.71,36.14,36.14,0,0,1-4-4.3,17.35,17.35,0,0,1-4.13,4.32,9.43,9.43,0,0,0-1.36-1.42v.33c-.17,4.86-.33,6.78-.86,7.43a1.75,1.75,0,0,1-1.34.79,13.15,13.15,0,0,1-2.15.06,5.32,5.32,0,0,0-.61-2.13c.65,0,1.21.06,1.5.06a.7.7,0,0,0,.58-.25c.27-.33.42-1.54.52-4.7h-1.73c-.35,2.88-1.13,5.47-3,7.31a6.19,6.19,0,0,0-1.63-1.75c2.07-2.11,2.34-5.47,2.46-9.08h-2.28v-2.19H260a16,16,0,0,0-.65-1.48l2.28-.46a20.75,20.75,0,0,1,1,1.94h3.09v2.19H261c0,.46,0,.9-.06,1.34h3.86v.19a15,15,0,0,0,4.82-5.59Zm-10.62-1.79h-4.47v-2.17h4.47v-1.25h2.44v1.25h2v2.17h-2v1.06h-2.44Zm6,10.19a32.21,32.21,0,0,1,7.41,3.53l-1.29,2a30.74,30.74,0,0,0-7.33-3.78Zm1.21-10.19h-2.07v-2.17h2.07v-1.25h2.42v1.25h4.47v2.17h-4.47v1.06h-2.42Zm3.34,10.73a14.66,14.66,0,0,0-3.49-2.65l1.4-1.46a15.58,15.58,0,0,1,3.57,2.5Z"/><path class="cls-1" d="M282.27,416.61h-3.7v-2.11h3.7v-1.09h2.46v1.09h2.82v2.11h-2.82v1.27h-2.46Zm11.08,4.28c-.25.46-.5.88-.73,1.25h4.11v3.74h-2v3.36c0,1.08-.19,1.71-1,2.07a8.26,8.26,0,0,1-3.21.35,8.26,8.26,0,0,0-.69-2.21c.83,0,1.84,0,2.09,0s.38-.06.38-.27v-1.63H289v5.34h-2.44v-5.34h-3v4.17h-2.42v-5.87h-2.07v-3.74h4.26a6.92,6.92,0,0,0-.54-1.34l1.19-.25h-4.49v-2h7.31a9.06,9.06,0,0,0-.42-1l2.11-.61a8,8,0,0,1,.73,1.61h7.12v2h-4.78Zm-6.76,4.63v-1.36h-5.2v1.36Zm-1.4-5a7.06,7.06,0,0,1,.65,1.59h4.22a9.1,9.1,0,0,0,.65-1.59Zm12-6.05v2.11h-3.55v1.27h-2.46v-1.27h-2.9v-2.11h2.9v-1.09h2.46v1.09Zm-2.88,9.67H289v1.36h5.26Z"/><path class="cls-1" d="M306.36,427.59c-.33-.58-.94-1.46-1.52-2.3v7.62h-2.3v-7.33a16.49,16.49,0,0,1-1.79,1.82,10.48,10.48,0,0,0-1-2.44,16.63,16.63,0,0,0,4.55-5.78h-4.07v-2.23h3.19A26.45,26.45,0,0,0,302,414.4l1.88-1a21.54,21.54,0,0,1,1.69,2.69l-1.36.81h1.29l.38-.1,1.21,1a24.72,24.72,0,0,1-2.23,4.61v.21l.31.31a13,13,0,0,0,1.42-2l1.44,1.36c-.69.61-1.31,1.25-1.82,1.75.58.65,1.17,1.32,1.4,1.59Zm12.48-5.68a15.91,15.91,0,0,1-3.09,6.8,11.59,11.59,0,0,0,4,2,8.76,8.76,0,0,0-1.52,2.13,12.86,12.86,0,0,1-4.17-2.42,15,15,0,0,1-4.13,2.46,9.35,9.35,0,0,0-1.31-2,11.75,11.75,0,0,0,3.88-2.13,16,16,0,0,1-2.32-4.26c-.25,2.86-1,6.14-2.9,8.35a9.3,9.3,0,0,0-1.77-1.61c2.3-2.63,2.5-6.53,2.5-9.41v-5.59h4.36v-2.8h2.32v2.8h2.71l.38-.06,1.75.35a37.8,37.8,0,0,1-1.34,4.53l-2.09-.48a18.66,18.66,0,0,0,.54-2h-2v2.92h2.23l.42-.08Zm-8.54-3.4v2.92h2.09v-2.92Zm1.75,5.09a12.92,12.92,0,0,0,2,3.51,11.65,11.65,0,0,0,1.94-3.51Z"/><path class="cls-1" d="M333.65,421.58c1.38,4.07,3.9,7.35,7.81,8.93a10,10,0,0,0-1.84,2.34c-3.78-1.77-6.2-4.82-7.83-8.85a14.37,14.37,0,0,1-7.81,8.87,7.35,7.35,0,0,0-1.86-2.11,12.51,12.51,0,0,0,7.58-9.18h-7.18V419h7.6c.21-2,.19-3.86.21-5.57H333c0,1.71,0,3.63-.25,5.57H341v2.57Z"/><path class="cls-1" d="M363.17,430.6v1.79h-19V430.6h8.25v-.75H346v-1.61h6.39v-.67h-6v-5.34h14.42v5.34h-6.07v.67h6.47v1.61h-6.47v.75Zm0-9H344.23v-1.77h18.89Zm-2.71-2.4H346.84V414h13.57Zm-11.61,5.07h3.63v-.73H348.8Zm3.63,2v-.73H348.8v.73Zm5.47-10.9h-8.66V416h8.66Zm0,1.9h-8.66v.69h8.66Zm.56,6.3h-3.65v.73h3.65Zm0,2h-3.65v.73h3.65Z"/><path class="cls-1" d="M381.89,421.33h3v1.84h-3v2.73h-5.07v.77h8v1.94h-4a24,24,0,0,1,3.76,2.44l-2,1.5a24.21,24.21,0,0,0-4.11-2.86l1.52-1.09h-3.21v4.3H374.3v-4.3h-8v-1.94h8v-.77h-5v-2.73h-3v-1.84h3v-1.06h2.3v1.06h2.82V420.1h2.3v1.23h2.84v-1.06h2.38Zm3-6.49v1.94h-4.13c1.23.73,2.44,1.54,3.26,2.11l-1.63,1.38c-.33-.27-.75-.58-1.21-.92-11,.44-12.27.46-13.15.77a18.45,18.45,0,0,0-.73-2.25,5.58,5.58,0,0,0,1.92-.79c.13-.06.29-.17.5-.29h-3.36v-1.94h6.26a25.07,25.07,0,0,0,1.94-1.63l2.86.67c-.4.33-.79.65-1.19,1ZM372.6,429.41a13.78,13.78,0,0,1-4,3.21,13.81,13.81,0,0,0-2-1.61,9.76,9.76,0,0,0,3.63-2.4Zm6.18-11.67c-.4-.25-.79-.48-1.17-.67l.4-.29H373.5c-.65.42-1.29.81-1.94,1.17Zm-7.22,6.37h2.82v-.94h-2.82Zm8-.94h-2.84v.94h2.84Z"/><path class="cls-1" d="M406.88,430.6v1.75H388.16V430.6h2.42v-8.41h5.14q.06-.38.13-.81h-7.39v-1.82H396c0-.29.06-.58.08-.86h-6.8v-4.53H405.8v4.53h-7.16c0,.27-.08.56-.12.86h7.76v1.82h-8.06l-.15.81h6.28v8.41ZM394,415.82h-2.34V417H394Zm-1.06,7.87v.77h9v-.77Zm9,2h-9v.81h9Zm-9,2.88h9v-.86h-9Zm0,2h9v-.77h-9ZM396.26,417h2.36v-1.21h-2.36Zm4.63,0h2.42v-1.21h-2.42Z"/><path class="cls-1" d="M428.64,416.64s0,.83,0,1.13c-.27,9.33-.5,12.65-1.36,13.76a2.79,2.79,0,0,1-2,1.15,23.34,23.34,0,0,1-3.28,0,5.85,5.85,0,0,0-.81-2.42c1.34.13,2.57.13,3.11.13a1.11,1.11,0,0,0,.92-.36c.61-.67.88-3.8,1.11-11.17h-4.47a18,18,0,0,1-1.84,3.3,15.5,15.5,0,0,0-1.61-1.17v9.75h-5.57v1.52h-2.25V416.78h2.36a22.44,22.44,0,0,0,.61-3.36l2.71.38c-.36,1-.73,2.09-1.09,3h3.24v3.38a21.59,21.59,0,0,0,2.82-6.72l2.36.54a24.17,24.17,0,0,1-.81,2.65ZM416.14,419h-3.32v3.38h3.32Zm0,9.62v-4.09h-3.32v4.09Zm6.93-1.13a44.65,44.65,0,0,0-2.9-4.82l1.94-1.11a50.38,50.38,0,0,1,3.07,4.63Z"/><path class="cls-1" d="M435.72,420.37c0,3.49-.29,8.73-2.13,12.09a9.73,9.73,0,0,0-2.19-1.23c1.73-3.11,1.88-7.64,1.88-10.85v-6h17.41v2.25h-15Zm5,7.24a29.18,29.18,0,0,1-3.55,4.53,18.67,18.67,0,0,0-2.09-1.34,17,17,0,0,0,3.28-3.95Zm3.63-1.38v4.24c0,1.13-.21,1.73-1,2.07a8.68,8.68,0,0,1-3.34.35,8.34,8.34,0,0,0-.69-2.19c.92,0,1.94,0,2.21,0s.4-.06.4-.31v-4.17H437.1V418.1h3.7a10.57,10.57,0,0,0,.65-1.48l3,.35c-.25.38-.5.77-.75,1.13h5.59v8.14Zm-4.84-4.95h7.18V420h-7.18Zm0,3.09h7.18V423h-7.18Zm7.81,2.46c1.11,1.25,2.73,3,3.55,4.17l-2.13,1.21c-.73-1.11-2.28-3-3.4-4.36Z"/><path class="cls-1" d="M472.23,414.11v18.81h-2.42V432H456.66v.94h-2.3V414.11ZM469.81,430V416.34H456.66V430Zm-5.57-7.87c0,.31-.08.61-.15.9a30.22,30.22,0,0,1,4.95,4.76l-1.73,1.52a33.59,33.59,0,0,0-3.88-4.13,8.07,8.07,0,0,1-4.47,4.42,7.23,7.23,0,0,0-1.48-2,6.65,6.65,0,0,0,4.34-5.49h-4.17v-2.23h4.42c.06-.86.08-1.75.1-2.73h2.42c0,1-.06,1.86-.12,2.73h4.38v2.23Z"/><line class="cls-5" x1="364.61" y1="380.32" x2="496.77" y2="313.45"/><line class="cls-5" x1="364.61" y1="380.32" x2="237.83" y2="313.45"/><line class="cls-5" x1="364.61" y1="380.32" x2="450.91" y2="213.96"/><line class="cls-5" x1="364.61" y1="380.32" x2="278.31" y2="213.96"/><path class="cls-1" d="M199,25.4c-1.95,4.12-6.72,5.74-11.65,6.33a3.33,3.33,0,0,0-.42-1,21.52,21.52,0,0,0,6.54-1.55,16.55,16.55,0,0,0-2-1.74,19,19,0,0,1-2.2,1,2.83,2.83,0,0,0-.66-.77,12.73,12.73,0,0,0,5.84-4l1.15.25a10.46,10.46,0,0,1-.92,1h3.38l.21-.06ZM197,20.5c-1.77,3.1-5.84,5-9.47,5.73a3.32,3.32,0,0,0-.49-.94,18.56,18.56,0,0,0,4.68-1.5,13.9,13.9,0,0,0-1.88-1.6c-.5.31-1.06.59-1.64.87a3.49,3.49,0,0,0-.7-.73,12.27,12.27,0,0,0,4.79-3.45l1.13.24a11.84,11.84,0,0,1-.91,1h3.63l.18,0Zm-5.55.56a9.71,9.71,0,0,1-.83.63,12.18,12.18,0,0,1,2,1.64,9.55,9.55,0,0,0,2.77-2.27ZM193.7,26a13.62,13.62,0,0,1-1.3,1,16.86,16.86,0,0,1,2.07,1.77,8.22,8.22,0,0,0,3-2.72Z"/><path class="cls-1" d="M213.25,24.6v1.13H200.53V24.6Z"/><path class="cls-1" d="M218.17,19.24A20.94,20.94,0,0,1,217,22v9.75h-1v-8a14.12,14.12,0,0,1-1.36,1.85,6.25,6.25,0,0,0-.55-1.05A16.14,16.14,0,0,0,217.22,19Zm8.61.52V31.57h-1v-.71h-6.16v.83h-1V19.76Zm-1,10.17V20.67h-6.16v9.26Zm-2.63-6.43V25h1.61v3.73h-4V25h1.53V23.5h-2.1v-.8h2.1V21.12h.85V22.7h2.16v.8Zm.78,2.33h-2.37V28h2.37Z"/><path class="cls-1" d="M234,25.61s0,.31,0,.45c-.14,3.4-.28,4.62-.6,5a1.12,1.12,0,0,1-.8.41,10.51,10.51,0,0,1-1.34,0,2.44,2.44,0,0,0-.28-.92c.52,0,1,.06,1.16.06a.44.44,0,0,0,.41-.15c.21-.25.34-1.26.46-3.92h-1.86a8.63,8.63,0,0,1-1.92,5.15,3.15,3.15,0,0,0-.73-.7c1.44-1.46,1.7-4.09,1.79-6.68h-1.72v-.94h2.84a10.84,10.84,0,0,0-.63-1.29l1-.2a10.61,10.61,0,0,1,.76,1.48h2.24v.94h-3.42c0,.43,0,.87-.08,1.29Zm-2-4.73h-3.28v-.94H232v-1h1v1h1.58v.94H233v.94h-1Zm6.3,1.27c-.07.14-.13.28-.2.41a16.56,16.56,0,0,0,3.33,3.29,4.22,4.22,0,0,0-.69.73,19.81,19.81,0,0,1-3.05-3.28,11.57,11.57,0,0,1-3,3.26,4,4,0,0,0-.71-.64,10.11,10.11,0,0,0,3.38-4Zm-2.8,6.05a19.84,19.84,0,0,1,4.92,2.42l-.6.84A20.12,20.12,0,0,0,235,28.93Zm1.16-7.33h-1.55v-.94h1.55v-1h1v1H241v.94h-3.26v.94h-1Zm.18,4.68a11.24,11.24,0,0,1,2.7,1.72l-.63.7a12.56,12.56,0,0,0-2.66-1.79Z"/><path class="cls-1" d="M245.33,20.75h-2.59v-.91h2.59V18.9h1v.94h2.21v.91h-2.21v1h-1Zm6.92,2.82c-.22.45-.46.9-.69,1.29h3.12V27h-1v-1.3h-4.33v1.18h4v2.82c0,.52-.11.78-.5.94a6.07,6.07,0,0,1-2,.17,3,3,0,0,0-.31-.94c.73,0,1.36,0,1.54,0s.25,0,.25-.21V27.8h-3v3.91h-1V27.8h-2.88v3.15h-1v-4h3.91V25.74H244V27h-1V24.86h3.12a6.72,6.72,0,0,0-.64-1.32l.94-.22a5.57,5.57,0,0,1,.77,1.53h3.25a12.46,12.46,0,0,0,.7-1.55Zm2.21-.27H243.27v-.88h5.28a7.15,7.15,0,0,0-.45-.94l.87-.28a7,7,0,0,1,.6,1.22h4.89Zm.57-3.46v.91h-2.69v1h-1v-1h-2.17v-.91h2.17V18.9h1v.94Z"/><path class="cls-1" d="M258.59,21a11.44,11.44,0,0,1-1.43,1.81,5.5,5.5,0,0,0-.8-.69,8.6,8.6,0,0,0,2.2-3.22l1,.27a8.08,8.08,0,0,1-.45.94h3.61V21Zm1.58,5c.57.5,1.91,1.75,2.24,2.09l-.67.81c-.31-.41-1-1.19-1.57-1.82v4.69h-1V27A14.85,14.85,0,0,1,257,30.21a3.5,3.5,0,0,0-.66-.8,12.7,12.7,0,0,0,2.59-4h-2.23v-1h2.44V22.87h1v1.58h2.21v1h-2.21Zm.66-2.9a11.3,11.3,0,0,0-1.4-1.53l.63-.55a10,10,0,0,1,1.44,1.46Zm8.29-2.94V21h-2.73a17.52,17.52,0,0,1,1.44,1.47l-.66.64a14.23,14.23,0,0,0-1.51-1.65l.53-.46h-1.62a9.78,9.78,0,0,1-1.32,1.75,6.46,6.46,0,0,0-.88-.6,7.49,7.49,0,0,0,2-3.28l1,.22a6.87,6.87,0,0,1-.39,1Zm-6.3,3.28h5.77v8.24h-1v-.52h-3.73v.6h-1Zm1,.94V25.7h3.73V24.31Zm3.73,3.63V26.51h-3.73v1.43Zm0,2.27V28.75h-3.73v1.46Z"/><path class="cls-1" d="M272.75,27a10.59,10.59,0,0,1-1.4,3.39c-.17-.13-.55-.38-.76-.5a8.33,8.33,0,0,0,1.29-3.07ZM277,21.56h-6.36v-.92h3c-.15-.48-.42-1.05-.63-1.53l1-.21a11.37,11.37,0,0,1,.74,1.74H277ZM274.45,26v4.54c0,.48-.08.71-.42.87a3.81,3.81,0,0,1-1.51.15,2.8,2.8,0,0,0-.29-.85c.49,0,1,0,1.09,0s.2,0,.2-.18V26h-2.1V22.67h5V26Zm-2.13-.84h3.15V23.53h-3.15ZM276,29.44A10.37,10.37,0,0,0,275,27l.74-.34a9.33,9.33,0,0,1,1,2.44Zm3.88-6c-.28,3.15-1,6.29-3.15,8.25a3.07,3.07,0,0,0-.76-.63c2-1.75,2.72-4.68,3-7.62h-1.79v-.94H279c.07-1.23.07-2.45.08-3.59h1c0,1.13,0,2.35-.1,3.59h3.19v.94Zm2,7.1a.79.79,0,0,0,.41-.07q.17-.06.21-.38a14.68,14.68,0,0,0,.07-1.51,2.16,2.16,0,0,0,.81.42,8.77,8.77,0,0,1-.15,1.65.84.84,0,0,1-.43.55,1.88,1.88,0,0,1-.8.14h-.9a1.46,1.46,0,0,1-.87-.24c-.22-.17-.32-.39-.32-1.27V24.58h.92V30c0,.29,0,.48.11.53a.75.75,0,0,0,.34.07Zm.08-8.52a9.23,9.23,0,0,0-1.4-2.09l.7-.39a8.65,8.65,0,0,1,1.44,2Z"/><path class="cls-1" d="M291.49,30.36a15,15,0,0,0,1.65.08c.52,0,3.42,0,4.13,0a3.68,3.68,0,0,0-.36,1H293.1c-2.82,0-4.59-.45-5.73-2.34a7.22,7.22,0,0,1-2.18,2.63,5.61,5.61,0,0,0-.77-.74,6.54,6.54,0,0,0,2.72-4.55l1.05.14a13.41,13.41,0,0,1-.36,1.4,3.71,3.71,0,0,0,2.65,2.23V26h-5.74V25H297V26h-5.53v1.55h4.62v.92h-4.62Zm4-6.26h-9.3V19.48h9.3Zm-1-3.82H287.2v1.13h7.24Zm0,1.89H287.2V23.3h7.24Z"/><path class="cls-1" d="M311,25.4c-1.95,4.12-6.72,5.74-11.65,6.33a3.33,3.33,0,0,0-.42-1,21.52,21.52,0,0,0,6.54-1.55,16.55,16.55,0,0,0-2-1.74,19,19,0,0,1-2.2,1,2.83,2.83,0,0,0-.66-.77,12.73,12.73,0,0,0,5.84-4l1.15.25a10.46,10.46,0,0,1-.92,1h3.38l.21-.06ZM309,20.5c-1.77,3.1-5.84,5-9.47,5.73a3.32,3.32,0,0,0-.49-.94,18.56,18.56,0,0,0,4.68-1.5,13.9,13.9,0,0,0-1.88-1.6c-.5.31-1.06.59-1.64.87a3.49,3.49,0,0,0-.7-.73,12.27,12.27,0,0,0,4.79-3.45l1.13.24a11.84,11.84,0,0,1-.91,1h3.63l.18,0Zm-5.55.56a9.71,9.71,0,0,1-.83.63,12.18,12.18,0,0,1,2,1.64,9.55,9.55,0,0,0,2.77-2.27ZM305.7,26a13.62,13.62,0,0,1-1.3,1,16.86,16.86,0,0,1,2.07,1.77,8.22,8.22,0,0,0,3-2.72Z"/><path class="cls-1" d="M325.25,24.6v1.13H312.53V24.6Z"/><path class="cls-1" d="M330.17,19.24A20.94,20.94,0,0,1,329,22v9.75h-1v-8a14.12,14.12,0,0,1-1.36,1.85,6.25,6.25,0,0,0-.55-1.05A16.14,16.14,0,0,0,329.22,19Zm8.61.52V31.57h-1v-.71h-6.16v.83h-1V19.76Zm-1,10.17V20.67h-6.16v9.26Zm-2.63-6.43V25h1.61v3.73h-4V25h1.53V23.5h-2.1v-.8h2.1V21.12h.85V22.7h2.16v.8Zm.78,2.33h-2.37V28h2.37Z"/><path class="cls-1" d="M353.08,20.93h-1.72v9.27c0,.76-.18,1.12-.71,1.27a10.81,10.81,0,0,1-2.9.2,5.26,5.26,0,0,0-.45-1.11c1.12.06,2.27,0,2.59,0s.41-.11.41-.41V20.93h-9.61v-1h12.4Zm-10,7.24V29.3h-1V23h5.69v5.2Zm0-4.19v3.19h3.66V24Z"/><path class="cls-1" d="M360.21,26.24a26.76,26.76,0,0,1-2.76,3.43l6.84-.32c-.46-.63-1-1.26-1.46-1.81l.94-.39a20.07,20.07,0,0,1,3,4.15l-1,.45a14.45,14.45,0,0,0-.83-1.47c-7.72.42-8.45.45-9,.66a7.64,7.64,0,0,0-.32-1.08,2.28,2.28,0,0,0,1-.77,18.94,18.94,0,0,0,2.27-2.84h-4v-1h5.38V23.47h-4.41v-1h4.41V20.75h-4.9v-1h11.08v1h-5.14v1.74h4.58v1h-4.58v1.81h5.63v1Z"/><path class="cls-1" d="M374,25.61s0,.31,0,.45c-.14,3.4-.28,4.62-.6,5a1.12,1.12,0,0,1-.8.41,10.51,10.51,0,0,1-1.34,0,2.44,2.44,0,0,0-.28-.92c.52,0,1,.06,1.16.06a.44.44,0,0,0,.41-.15c.21-.25.34-1.26.46-3.92h-1.86a8.63,8.63,0,0,1-1.92,5.15,3.15,3.15,0,0,0-.73-.7c1.44-1.46,1.7-4.09,1.79-6.68h-1.72v-.94h2.84a10.84,10.84,0,0,0-.63-1.29l1-.2a10.61,10.61,0,0,1,.76,1.48h2.24v.94h-3.42c0,.43,0,.87-.08,1.29Zm-2-4.73h-3.28v-.94H372v-1h1v1h1.58v.94H373v.94h-1Zm6.3,1.27c-.07.14-.13.28-.2.41a16.56,16.56,0,0,0,3.33,3.29,4.22,4.22,0,0,0-.69.73,19.81,19.81,0,0,1-3.05-3.28,11.57,11.57,0,0,1-3,3.26,4,4,0,0,0-.71-.64,10.11,10.11,0,0,0,3.38-4Zm-2.8,6.05a19.84,19.84,0,0,1,4.92,2.42l-.6.84A20.12,20.12,0,0,0,375,28.93Zm1.16-7.33h-1.55v-.94h1.55v-1h1v1H381v.94h-3.26v.94h-1Zm.18,4.68a11.24,11.24,0,0,1,2.7,1.72l-.63.7a12.56,12.56,0,0,0-2.66-1.79Z"/><path class="cls-1" d="M385.29,27.17l1.54-.66.21.92c-1.47.69-3,1.39-4.26,1.93l-.41-1c.53-.18,1.2-.46,1.93-.77V23.25h-1.68v-1h1.68V19.07h1v3.18h1.51v1h-1.51Zm8,3.28c.81,0,1-.38,1-2a2.4,2.4,0,0,0,.94.39c-.17,1.92-.49,2.54-1.95,2.54h-3.45c-1.58,0-2.06-.38-2.06-1.89v-4.4l-1.11.46-.41-.91,1.51-.63V20.21h1v3.38l1.88-.78V18.9h1v3.47l2.13-.9.8.27-.06.17a49.9,49.9,0,0,1-.73,6.14L393,27.8a49.86,49.86,0,0,0,.53-5.11l-1.82.77V28.6h-1V23.88l-1.88.8v4.83c0,.76.18.94,1.09.94Z"/><path class="cls-1" d="M400.37,19.09c-.24.69-.49,1.46-.73,2.06H402v9.09h-3.89v1.11h-1V21.14h1.57a17.08,17.08,0,0,0,.56-2.27Zm.64,3h-2.94V25H401Zm0,7.21V25.93h-2.94V29.3Zm7.8-7.66c-.22,6.39-.41,8.54-1,9.23a1.39,1.39,0,0,1-1.11.56,14.84,14.84,0,0,1-2.07,0,2.41,2.41,0,0,0-.35-1c.91.08,1.75.08,2.07.08s.43,0,.57-.21c.46-.49.67-2.62.85-8.19h-3.56a11.76,11.76,0,0,1-1.32,2.45,7.71,7.71,0,0,0-.85-.59,14.22,14.22,0,0,0,2.14-5.08l1,.24a19.58,19.58,0,0,1-.6,2h4.19ZM405.72,28a24.93,24.93,0,0,0-2.13-3.24l.81-.48a27.51,27.51,0,0,1,2.2,3.17Z"/><path class="cls-1" d="M415.18,28.11c-1.54.62-3.17,1.25-4.43,1.74l-.34-1.05c.53-.17,1.18-.39,1.89-.66V23.29h-1.68v-1h1.68V19.07h1v3.24h1.53v1h-1.53v4.48l1.67-.62Zm8.08,2v1h-8.59v-1h4.89a55.18,55.18,0,0,0,1.3-6.93l1.11.2c-.38,2.14-.94,4.88-1.46,6.74Zm-.36-7.7h-7.56v-1h7.56Zm-5.67,7.06a50.36,50.36,0,0,0-1-6l.92-.2a56.39,56.39,0,0,1,1.05,5.87Zm1.51-8.18a19.16,19.16,0,0,0-.66-2.21l1-.25a18.39,18.39,0,0,1,.71,2.17Z"/><path class="cls-1" d="M428.94,27.43c-1.43.67-3,1.36-4.13,1.88l-.43-1.05c.53-.18,1.19-.43,1.92-.73V23.19h-1.65v-1h1.65V19h1v3.19h1.47v1h-1.47v4c.49-.2,1-.41,1.47-.62Zm7.75-3.67a11.8,11.8,0,0,1-2.44,5.1,7.76,7.76,0,0,0,3.12,2,3.25,3.25,0,0,0-.69.88,8.22,8.22,0,0,1-3.11-2.13,10.57,10.57,0,0,1-3.08,2.07,4.76,4.76,0,0,0-.63-.8,9,9,0,0,0,3.07-2,13.16,13.16,0,0,1-2-4.19c-.31,2.91-1,5.18-2.44,6.93a7.68,7.68,0,0,0-.88-.67c2.09-2.18,2.48-5.73,2.55-10.38H428.8v-1h5.83l.17-.06.71.11c-.15,1.13-.39,2.68-.64,3.92h1l.17,0Zm-5.5-3.22c0,1.06-.07,2.07-.14,3h2.84c.18-.94.38-2.11.52-3Zm.63,3.95a11.31,11.31,0,0,0,1.78,3.61,10.18,10.18,0,0,0,1.88-3.61Z"/><path class="cls-1" d="M441.4,21.59H443v1h-1.6v.59c.38.53,1.33,1.92,1.53,2.28l-.62.74c-.17-.38-.56-1.12-.91-1.74v7.24h-1V24.91a14,14,0,0,1-1.64,3.71,3.87,3.87,0,0,0-.53-1,14.56,14.56,0,0,0,2.09-5h-1.71v-1h1.79V18.9h1Zm9.22,9c0,.5-.1.77-.43,1a4.33,4.33,0,0,1-1.64.17,3.78,3.78,0,0,0-.31-.92c.55,0,1.05,0,1.18,0s.22-.06.22-.21V28.74h-2.3v2.86h-1V28.74h-2.21v3h-1V23h4.26a22.79,22.79,0,0,0-3-1.37l.48-.7c.57.2,1.23.46,1.88.76a11.41,11.41,0,0,0,1.88-1.34h-5.45v-.9h6.35l.2-.06.66.49a11.41,11.41,0,0,1-2.73,2.24,11.46,11.46,0,0,1,1,.62l-.15.27h2Zm-6.46-6.68v1.47h2.21V23.9Zm2.21,3.91V26.28h-2.21v1.53Zm3.26-3.91h-2.3v1.47h2.3Zm0,3.91V26.28h-2.3v1.53Z"/><path class="cls-1" d="M457.4,27.25a2.43,2.43,0,0,0,1.76-2.06h-.24a1,1,0,0,1-1.05-1,1,1,0,0,1,1.06-1c.77,0,1.19.63,1.19,1.61A3.34,3.34,0,0,1,457.71,28Z"/><path class="cls-1" d="M473.32,20.68c-.2.7-.43,1.43-.64,2h5.73v7.68c0,.6-.13.88-.53,1.05a6.76,6.76,0,0,1-2.13.18,3.71,3.71,0,0,0-.36-1c.8,0,1.5,0,1.71,0s.28-.07.28-.28V23.69H475v7.55h-1V23.69h-2.31v7.55h-1V23.69h-2.21v8h-1.05v-9h4.22c.18-.62.36-1.37.49-2h-5.42v-1h12.47v1Z"/><path class="cls-1" d="M493.08,30.08v1H480.65v-1h2.2V19.73H491V30.08Zm-9.2-9.34v2.41H490V20.74ZM490,24.13h-6.09v2.48H490Zm-6.09,6H490V27.62h-6.09Z"/><path class="cls-1" d="M497.16,22.52a15.07,15.07,0,0,1-2,3.36,4.72,4.72,0,0,0-.74-.63,10.54,10.54,0,0,0,1.88-3Zm2.4,7.75a12.21,12.21,0,0,0-1.42-2.07,10.37,10.37,0,0,1-3,3.17,6.05,6.05,0,0,0-.73-.76,8.83,8.83,0,0,0,3.05-3.21c-.53-.63-1.12-1.26-1.67-1.81l.76-.56c.45.45.92.94,1.4,1.44a13.5,13.5,0,0,0,.71-2l1,.2a13.82,13.82,0,0,1-1,2.55,15.19,15.19,0,0,1,1.72,2.37ZM501,21.89h-6.32v-1h3a8.29,8.29,0,0,0-1-1.69l.84-.35a8.63,8.63,0,0,1,1.09,1.7l-.76.35H501Zm-.94,3.18a10.39,10.39,0,0,0-1.54-2.45l.78-.41a10.69,10.69,0,0,1,1.58,2.4Zm6.28-2.65a15.66,15.66,0,0,1-1.82,5.76,7.48,7.48,0,0,0,2.79,2.67,4.13,4.13,0,0,0-.73.83A8,8,0,0,1,504,29.07a9.31,9.31,0,0,1-3.22,2.66A6,6,0,0,0,500,31a8.13,8.13,0,0,0,3.39-2.82,17.1,17.1,0,0,1-1.3-3.39,12.56,12.56,0,0,1-.77,1.29,5,5,0,0,0-.7-.77,15.74,15.74,0,0,0,2.24-6.39l1,.14c-.15.83-.32,1.64-.53,2.41h3.84v1Zm-3.33,0c-.11.34-.21.66-.34,1A16.1,16.1,0,0,0,504,27.17a15.35,15.35,0,0,0,1.37-4.75Z"/><path class="cls-1" d="M516.27,27.25a13.89,13.89,0,0,0,5.06,3.05,4.62,4.62,0,0,0-.71.87,15.48,15.48,0,0,1-5.21-3.56v4.09h-1.08v-4a13.93,13.93,0,0,1-5.21,3.54,5,5,0,0,0-.7-.85,12.64,12.64,0,0,0,5-3.12h-4.69v-1h5.56V25.11h-4.2V19.58h9.57v5.53H515.4v1.18H521v1Zm-5.1-5.34h3.15V20.49h-3.15Zm3.15,2.3V22.77h-3.15v1.44Zm4.26-3.73H515.4v1.43h3.18Zm0,2.28H515.4v1.44h3.18Z"/><path class="cls-1" d="M528.56,28.83a6.64,6.64,0,0,0,.1,1c-4,1.08-4.52,1.25-4.86,1.47a3.4,3.4,0,0,0-.49-.88,1.25,1.25,0,0,0,.55-1.05V18.92h1.06v4.3h3.56v1h-3.56v5.49Zm4.92,1.55c.66,0,.74-.52.84-2.52a2.42,2.42,0,0,0,1,.45c-.14,2.28-.42,3.07-1.74,3.07H531.2c-1.36,0-1.72-.41-1.72-1.92V18.9h1.05v4.31h3.77v1h-3.77v5.24c0,.77.13.91.78.91Z"/><path class="cls-1" d="M191.18,49.11c-1.54.62-3.17,1.25-4.43,1.74l-.34-1.05c.53-.17,1.18-.39,1.89-.66V44.29h-1.68v-1h1.68V40.07h1v3.24h1.53v1h-1.53v4.48l1.67-.62Zm8.08,2v1h-8.59v-1h4.89a55.18,55.18,0,0,0,1.3-6.93l1.11.2c-.38,2.14-.94,4.88-1.46,6.74Zm-.36-7.7h-7.56v-1h7.56Zm-5.67,7.06a50.36,50.36,0,0,0-1-6l.92-.2a56.39,56.39,0,0,1,1.05,5.87Zm1.51-8.18a19.16,19.16,0,0,0-.66-2.21l1-.25a18.39,18.39,0,0,1,.71,2.17Z"/><path class="cls-1" d="M204.94,48.43c-1.43.67-3,1.36-4.13,1.88l-.43-1.05c.53-.18,1.19-.43,1.92-.73V44.19h-1.65v-1h1.65V40h1v3.19h1.47v1h-1.47v4c.49-.2,1-.41,1.47-.62Zm7.75-3.67a11.8,11.8,0,0,1-2.44,5.1,7.76,7.76,0,0,0,3.12,2,3.25,3.25,0,0,0-.69.88,8.22,8.22,0,0,1-3.11-2.13,10.57,10.57,0,0,1-3.08,2.07,4.76,4.76,0,0,0-.63-.8,9,9,0,0,0,3.07-2,13.16,13.16,0,0,1-2-4.19c-.31,2.91-1,5.18-2.44,6.93a7.68,7.68,0,0,0-.88-.67c2.09-2.18,2.48-5.73,2.55-10.38H204.8v-1h5.83l.17-.06.71.11c-.15,1.13-.39,2.68-.64,3.92h1l.17,0Zm-5.5-3.22c0,1.06-.07,2.07-.14,3h2.84c.18-.94.38-2.11.52-3Zm.63,3.95a11.31,11.31,0,0,0,1.78,3.61,10.18,10.18,0,0,0,1.88-3.61Z"/><path class="cls-1" d="M217.4,42.59H219v1h-1.6v.59c.38.53,1.33,1.92,1.53,2.28l-.62.74c-.17-.38-.56-1.12-.91-1.74v7.24h-1V45.91a14,14,0,0,1-1.64,3.71,3.87,3.87,0,0,0-.53-1,14.56,14.56,0,0,0,2.09-5h-1.71v-1h1.79V39.9h1Zm9.22,9c0,.5-.1.77-.43,1a4.33,4.33,0,0,1-1.64.17,3.78,3.78,0,0,0-.31-.92c.55,0,1.05,0,1.18,0s.22-.06.22-.21V49.74h-2.3v2.86h-1V49.74h-2.21v3h-1V44h4.26a22.79,22.79,0,0,0-3-1.37l.48-.7c.57.2,1.23.46,1.88.76a11.41,11.41,0,0,0,1.88-1.34h-5.45v-.9h6.35l.2-.06.66.49a11.41,11.41,0,0,1-2.73,2.24,11.46,11.46,0,0,1,1,.62l-.15.27h2Zm-6.46-6.68v1.47h2.21V44.9Zm2.21,3.91V47.28h-2.21v1.53Zm3.26-3.91h-2.3v1.47h2.3Zm0,3.91V47.28h-2.3v1.53Z"/><path class="cls-1" d="M238.21,48.76a6.15,6.15,0,0,1-1.81,1.95,40.16,40.16,0,0,1,4.43,1.23l-.94.74a37.09,37.09,0,0,0-4.61-1.33A18.11,18.11,0,0,1,229,52.71a3,3,0,0,0-.42-.91,20.16,20.16,0,0,0,5.06-.81c-1.05-.21-2.14-.42-3.25-.6a16.91,16.91,0,0,0,1.26-1.62h-3v-.9h3.61c.32-.5.6-1,.84-1.47l1,.24a9.17,9.17,0,0,1-.69,1.23h4.08a5.29,5.29,0,0,0,.35-.81l1,.29a4.07,4.07,0,0,1-.2.52h2.41v.9Zm-5.55-7.31h-3.78v-.92h12v.92H236.9v1.18h3.35v3.6H229.56v-3.6h3.1Zm-2.1,3.92h2.1V43.47h-2.1Zm2.28,3.39c-.27.39-.53.77-.78,1.09,1,.17,2,.36,3,.55A5.66,5.66,0,0,0,237,48.76Zm3.07-7.31h-2.26v1.18h2.26Zm-2.26,3.92h2.26V43.47h-2.26Zm3.25-1.89v1.89h2.33V43.47Z"/><path class="cls-1" d="M247.53,43.84a12.4,12.4,0,0,1-1.18,5.31,18.7,18.7,0,0,1,1.75,1.7l-.67.87a19.08,19.08,0,0,0-1.61-1.65,10.37,10.37,0,0,1-2.61,2.68,3.85,3.85,0,0,0-.73-.71A9.47,9.47,0,0,0,245,49.37c-.74-.66-1.54-1.3-2.25-1.85.28-.91.57-2.16.85-3.46l-1.11.06-.11-1,1.4-.06c.2-1.06.35-2.17.45-3.12l1,.06c-.11.94-.28,2-.46,3l1.71-.1v-1h1v1l.81,0v1Zm-2.87.17c-.22,1.13-.49,2.25-.73,3.17.53.41,1.09.84,1.63,1.3a10.91,10.91,0,0,0,1-4.58Zm10.59,2.8h-3.08v4.65c0,.62-.15.91-.59,1.08a7.11,7.11,0,0,1-2.2.17,4.15,4.15,0,0,0-.38-1c.83,0,1.6,0,1.81,0s.31-.07.31-.27V46.81h-3.24v-1h3.24v-1.6a12.54,12.54,0,0,0,2-2.31h-4.66v-1h5.38l.24-.06.71.52a16.15,16.15,0,0,1-2.66,3.07v1.34h3.08Z"/><path class="cls-1" d="M261.4,52.33A2.61,2.61,0,0,0,263.18,50a.77.77,0,0,1-.25,0,1,1,0,0,1-1.05-1,1,1,0,0,1,1.06-1c.77,0,1.2.66,1.2,1.71a3.49,3.49,0,0,1-2.42,3.38Zm.41-9.37a1,1,0,0,1,1.05-1.05,1.05,1.05,0,1,1,0,2.1A1,1,0,0,1,261.81,43Z"/><path class="cls-1" d="M282,46a14.15,14.15,0,0,1-2.44,3.29c.53,1.47,1.16,2.37,1.86,2.37.38,0,.55-.71.63-2.51a2.54,2.54,0,0,0,.88.56c-.2,2.31-.56,3-1.61,3s-1.95-1-2.59-2.62a14.54,14.54,0,0,1-3,2.06,3.91,3.91,0,0,0-.71-.83,13.82,13.82,0,0,0,3.32-2.27,26.12,26.12,0,0,1-.78-4.06h-3.29v2.24l2.51-.55.07.94c-.85.21-1.72.41-2.58.6v3.11c0,.67-.17,1-.6,1.15a7.69,7.69,0,0,1-2.33.2,4.81,4.81,0,0,0-.39-1c.9,0,1.72,0,2,0s.34-.07.34-.32V48.5l-2.9.64-.29-1.05c.84-.14,2-.38,3.19-.63V45h-3V44h3V41.79c-.87.17-1.75.31-2.58.42a3.7,3.7,0,0,0-.34-.87,32,32,0,0,0,5.53-1.26l.74.85a19.17,19.17,0,0,1-2.34.64V44h3.21c-.13-1.27-.18-2.62-.2-4h1.06c0,1.4.06,2.75.17,4h4.12v1h-4a24.3,24.3,0,0,0,.57,3.19,12.08,12.08,0,0,0,1.83-2.55Zm-.5-2.83a14,14,0,0,0-2.2-2.38l.8-.55a14.84,14.84,0,0,1,2.24,2.33Z"/><path class="cls-1" d="M287.75,40.25A24.08,24.08,0,0,1,286.66,43v9.71h-1V44.85a14.32,14.32,0,0,1-1.32,1.88,7.45,7.45,0,0,0-.55-1.05,16.84,16.84,0,0,0,3-5.69Zm4,5.52h-2.77v6.89h-1V40.72h3.74Zm-2.77-4.23v1.27h1.95V41.54ZM290.87,45V43.6h-1.95V45Zm5.56,6.37c0,.67-.15,1-.62,1.16a9.52,9.52,0,0,1-2.6.18,5.68,5.68,0,0,0-.35-1c1,0,2,0,2.23,0s.36-.1.36-.38V45.77h-2.91V40.72h3.89Zm-3-9.79v1.27h2.06V41.54ZM295.45,45V43.6h-2.06V45Z"/><path class="cls-1" d="M308.09,51.5c1.3,0,1.53-.46,1.71-2.47a3.66,3.66,0,0,0,1,.42c-.21,2.27-.63,3-2.66,3h-4.89c-2.07,0-2.69-.43-2.69-2.21v-4.4l-2.28.71-.28-.92,2.56-.8v-4h1v3.66l2.89-.9v-3.7h1v3.39l3.25-1,.29-.22.78.24,0,.18a53.28,53.28,0,0,1-.55,6l-.87-.22c.2-1.26.31-3.28.38-5l-3.25,1v5.41h-1V44.64l-2.89.91v4.72c0,1,.28,1.23,1.64,1.23Z"/><path class="cls-1" d="M324.59,42.07v1H317a18.2,18.2,0,0,1-1.7,2.86v6.72h-1V47.16a10.42,10.42,0,0,1-1.62,1.42,4.4,4.4,0,0,0-.53-.94,12,12,0,0,0,3.7-4.57h-3.36v-1h3.82A19,19,0,0,0,317,39.9l1.06.27c-.18.63-.42,1.27-.67,1.91Zm-3.7,9.31h3.7v1h-8.42v-1h3.68V47.45h-3.14v-1h3.14V43.8h1v2.67H324v1h-3.15Z"/><path class="cls-1" d="M331.6,46.61s0,.31,0,.45c-.14,3.4-.28,4.62-.6,5a1.12,1.12,0,0,1-.8.41,10.51,10.51,0,0,1-1.34,0,2.44,2.44,0,0,0-.28-.92c.52,0,1,.06,1.16.06a.44.44,0,0,0,.41-.15c.21-.25.34-1.26.46-3.92h-1.86a8.63,8.63,0,0,1-1.92,5.15,3.15,3.15,0,0,0-.73-.7c1.44-1.46,1.7-4.09,1.79-6.68h-1.72v-.94H329a10.84,10.84,0,0,0-.63-1.29l1-.2a10.61,10.61,0,0,1,.76,1.48h2.24v.94h-3.42c0,.43,0,.87-.08,1.29Zm-2-4.73h-3.28v-.94h3.28v-1h1v1h1.58v.94h-1.58v.94h-1Zm6.3,1.27c-.07.14-.13.28-.2.41a16.56,16.56,0,0,0,3.33,3.29,4.22,4.22,0,0,0-.69.73,19.81,19.81,0,0,1-3.05-3.28,11.57,11.57,0,0,1-3,3.26,4,4,0,0,0-.71-.64,10.11,10.11,0,0,0,3.38-4Zm-2.8,6.05a19.84,19.84,0,0,1,4.92,2.42l-.6.84a20.12,20.12,0,0,0-4.86-2.54Zm1.16-7.33h-1.55v-.94h1.55v-1h1v1h3.26v.94h-3.26v.94h-1Zm.18,4.68a11.24,11.24,0,0,1,2.7,1.72l-.63.7a12.56,12.56,0,0,0-2.66-1.79Z"/><path class="cls-1" d="M343,41.75h-2.59v-.91H343V39.9h1v.94h2.21v.91H344v1h-1Zm6.92,2.82c-.22.45-.46.9-.69,1.29h3.12V48h-1v-1.3H347v1.18h4v2.82c0,.52-.11.78-.5.94a6.07,6.07,0,0,1-2,.17,3,3,0,0,0-.31-.94c.73,0,1.36,0,1.54,0s.25,0,.25-.21V48.8h-3v3.91h-1V48.8h-2.88v3.15h-1v-4h3.91V46.74h-4.27V48h-1V45.86h3.12a6.72,6.72,0,0,0-.64-1.32l.94-.22a5.57,5.57,0,0,1,.77,1.53h3.25a12.32,12.32,0,0,0,.7-1.55Zm2.21-.27H340.91v-.88h5.28a7.15,7.15,0,0,0-.45-.94l.87-.28a7,7,0,0,1,.6,1.22h4.89Zm.57-3.46v.91H350v1h-1v-1h-2.17v-.91h2.17V39.9h1v.94Z"/><path class="cls-1" d="M356.22,42a11.44,11.44,0,0,1-1.43,1.81,5.45,5.45,0,0,0-.8-.69,8.6,8.6,0,0,0,2.2-3.22l1,.27a8.08,8.08,0,0,1-.45.94h3.61V42Zm1.58,5c.57.5,1.91,1.75,2.24,2.09l-.67.81c-.31-.41-1-1.19-1.57-1.82v4.69h-1V48a14.85,14.85,0,0,1-2.14,3.17,3.5,3.5,0,0,0-.66-.8,12.7,12.7,0,0,0,2.59-4h-2.23v-1h2.44V43.87h1v1.58H360v1H357.8Zm.66-2.9a11.3,11.3,0,0,0-1.4-1.53l.63-.55a10,10,0,0,1,1.44,1.46Zm8.29-2.94V42H364a17.4,17.4,0,0,1,1.44,1.47l-.66.64a14.23,14.23,0,0,0-1.51-1.65l.53-.46H362.2a9.82,9.82,0,0,1-1.32,1.75,6.53,6.53,0,0,0-.88-.6,7.49,7.49,0,0,0,2-3.28l1,.22a6.87,6.87,0,0,1-.39,1Zm-6.3,3.28h5.77v8.24h-1v-.52h-3.73v.6h-1Zm1,.94V46.7h3.73V45.31Zm3.73,3.63V47.51h-3.73v1.43Zm0,2.27V49.75h-3.73v1.46Z"/><path class="cls-1" d="M380.74,51v1H368.26V51h5.22V40.13h1.09v4.29h5.21v1h-5.21V51Z"/><path class="cls-1" d="M386.52,40.86c-.38,1.19-.85,2.61-1.3,3.77a4.86,4.86,0,0,1,1.16,3.12,2.05,2.05,0,0,1-.52,1.65,1.29,1.29,0,0,1-.7.27,4.46,4.46,0,0,1-.87,0,2.37,2.37,0,0,0-.25-.94,3.42,3.42,0,0,0,.74,0,.8.8,0,0,0,.39-.13,1.38,1.38,0,0,0,.27-1,4.51,4.51,0,0,0-1.12-2.91c.36-1,.74-2.33,1-3.29h-1.71V52.71h-.92V40.51h3l.15,0Zm3.15-.69A19.47,19.47,0,0,1,388.55,43v9.59h-.94v-7.9a10.78,10.78,0,0,1-1,1.37,6,6,0,0,0-.67-.85,14.31,14.31,0,0,0,2.77-5.32Zm5.27,3.91H393.7v7.28c0,.63-.15.92-.53,1.11a5.2,5.2,0,0,1-2,.21,3.78,3.78,0,0,0-.34-1h1.61c.21,0,.29-.08.29-.31V44.08h-3.47v-1h3.47v-3h1v3h1.23ZM391,49a31.35,31.35,0,0,0-1.43-3.19l.79-.35a21.35,21.35,0,0,1,1.48,3.12Z"/><path class="cls-1" d="M401.05,42.69c-.27.55-.55,1.11-.85,1.63H407v7.07c0,.63-.14.94-.59,1.11a8.58,8.58,0,0,1-2.44.18,3.53,3.53,0,0,0-.35-1c.94,0,1.78,0,2,0s.32-.08.32-.29V49.93h-6a5,5,0,0,1-1.43,2.84,3.34,3.34,0,0,0-.73-.81,5.22,5.22,0,0,0,1.29-4v-2a11.76,11.76,0,0,1-2.27,2.14,6.85,6.85,0,0,0-.66-.81,11.44,11.44,0,0,0,3.77-4.57h-3.49v-1h3.94A18.54,18.54,0,0,0,401,39.9l1,.25a15.89,15.89,0,0,1-.55,1.56h7.14v1ZM406,49V47.58h-5.84V48c0,.34,0,.67,0,1Zm0-3.78h-5.84v1.41H406Z"/><path class="cls-1" d="M413.52,46.6a17.36,17.36,0,0,1-1.15,3.61c.28.15.6.42,1.12.73a7.5,7.5,0,0,0,3.92.7c1.79,0,4.06-.14,5.63-.29a3.68,3.68,0,0,0-.32,1.08c-1,.07-3.68.15-5.35.15a7.66,7.66,0,0,1-4.09-.77c-.57-.34-1.09-.81-1.4-.81s-.78.88-1.21,1.76l-.71-.94a6.6,6.6,0,0,1,1.4-1.55,11.91,11.91,0,0,0,1-2.91h-1.82c.38-.83.81-2,1.19-3.12h-1.55v-.94h2.87c-.35,1-.79,2.19-1.15,3.15h1l.18,0Zm-1.89-4c-.17-.62-.48-1.58-.71-2.31l.92-.27c.24.73.56,1.64.74,2.26Zm5.88,6.92h-3.77V48.6h3.77v-1h-3.1V43.1h3.1V42h-3.77v-.88h3.77V39.92h1v1.23h4V42h-4V43.1h3.25v4.5h-3.25v1h4.17v.88h-4.17v1.67h-1ZM415.37,45h2.14V43.87h-2.14Zm2.14,1.86V45.7h-2.14v1.12Zm1-3V45h2.24V43.87Zm2.24,1.83h-2.24v1.12h2.24Z"/><path class="cls-1" d="M428.41,45.17a18.52,18.52,0,0,1,.94,2.88l-.84.29c0-.24-.11-.52-.18-.81-3.17.46-3.6.56-3.88.71a7.08,7.08,0,0,0-.32-1c.29-.06.63-.41,1.05-.91.22-.25.69-.84,1.22-1.6a8.85,8.85,0,0,0-2,.32,9.07,9.07,0,0,0-.32-.92c.24-.06.49-.35.8-.76a20.61,20.61,0,0,0,1.92-3.56l.94.41A24.15,24.15,0,0,1,425.46,44l1.53-.14c.38-.58.73-1.19,1.05-1.81l.88.53A25.55,25.55,0,0,1,425.75,47l2.35-.31c-.14-.45-.31-.91-.46-1.32ZM425.59,49a22.55,22.55,0,0,1-.71,3.47c-.2-.08-.62-.22-.84-.29a15.3,15.3,0,0,0,.69-3.33Zm1.47-.2a28.3,28.3,0,0,1,.42,3.17l-.83.17c0-.87-.21-2.17-.36-3.18Zm1.37-.34a20.08,20.08,0,0,1,.84,2.7l-.78.28a24,24,0,0,0-.77-2.76Zm5-5.73v2.2h2.89v1h-6.58v-1h2.65v-2.2h-3.07v-1h3.07V39.9h1.05v1.86h3.28v1Zm-3.42,4.61H436v5.28h-1V52.1H431v.59h-1Zm1,1v2.84H435V48.31Z"/><path class="cls-1" d="M442.62,50.3l2.91-.55.07.91-7,1.34-.22-1,3.21-.56V48.11h-2.73v-.92h2.73V45.67h1v1.51h2.79v.92h-2.79Zm-4.09-9.47h7.16v.92H441.9a18.81,18.81,0,0,1-1.61,2.61l3.57-.31c-.34-.49-.7-1-1-1.39l.74-.45a19.61,19.61,0,0,1,2.12,3l-.8.52a7.4,7.4,0,0,0-.49-.87c-4.36.42-4.86.48-5.2.63a7,7,0,0,0-.35-1c.22,0,.43-.28.67-.62a13.22,13.22,0,0,0,1.22-2.14h-2.21Zm8.91,8.71h-1V41.12h1Zm2.79-9.4V51.07c0,.66-.15,1-.57,1.13a7.11,7.11,0,0,1-2.18.2,4,4,0,0,0-.38-1c.81,0,1.58,0,1.82,0s.29-.07.29-.31V40.14Z"/><path class="cls-1" d="M455.52,45.13c.5.52,1.78,2,2.06,2.35l-.64.85a19.94,19.94,0,0,0-1.42-2v6.36h-1V46a14.69,14.69,0,0,1-2,4.12,5.79,5.79,0,0,0-.55-1,15,15,0,0,0,2.45-5.27h-2.14v-1h2.27v-3h1v3h2v1h-2Zm8.87-4.4V52.55h-1v-.8h-4.25v.84h-1V40.73Zm-5.27,1V44h4.25V41.71Zm0,5.7h4.25V45h-4.25Zm4.25,3.38V48.36h-4.25v2.42Z"/><path class="cls-1" d="M471.61,47a11.86,11.86,0,0,1,.76,1.53l-.5.2H472V50a2.46,2.46,0,0,1-2,2.62,2.62,2.62,0,0,0-.5-.62,2.37,2.37,0,0,0,1.55-1.08H469.2V49h.71v1.3h1.32a1.92,1.92,0,0,0,0-.28V48.74h.53c0-.11-.11-.27-.17-.43a16.2,16.2,0,0,0-2.76.35,3.14,3.14,0,0,0-.21-.69,1.63,1.63,0,0,0,.76-.39,7.43,7.43,0,0,0,.84-.73,5.09,5.09,0,0,0-1.3.17,6.31,6.31,0,0,0-.24-.71.89.89,0,0,0,.46-.25,6.69,6.69,0,0,0,1-1.27h-2.41v7.93h-1V40.51h5.1v4.27h-1.46l.48.25a7.54,7.54,0,0,1-1.09,1.27l1,0a7.34,7.34,0,0,0,.62-.73l.62.41a16.87,16.87,0,0,1-2.12,1.93l1.42-.11c-.1-.2-.2-.39-.29-.56Zm-3.87-5.76v1h3.12v-1Zm0,2.75h3.12V43h-3.12Zm10.58,7.38c0,.57-.11.9-.49,1.06a4.55,4.55,0,0,1-1.82.21,4.64,4.64,0,0,0-.32-1c.62,0,1.21,0,1.39,0s.24-.07.24-.25V44.78h-3.14l.52.27a10,10,0,0,1-1.09,1.28l1-.06c.22-.24.42-.48.62-.73l.6.39a14.38,14.38,0,0,1-2.12,1.95l1.4-.11c-.1-.2-.2-.39-.29-.56l.53-.18a13,13,0,0,1,.81,1.51l-.56.25a4.38,4.38,0,0,0-.22-.48,12.6,12.6,0,0,0-2.73.36,6.17,6.17,0,0,0-.21-.7,1.67,1.67,0,0,0,.74-.38c.15-.11.46-.39.85-.74a4.06,4.06,0,0,0-1.32.18,4.44,4.44,0,0,0-.25-.71.81.81,0,0,0,.46-.25,6.91,6.91,0,0,0,1-1.29h-.87V40.51h5.22Zm-3.29,0v-.43h-1.34V52.5h-.78V48.74h.78v1.51H475V49h.74v2.38Zm-.94-10.08v1h3.22v-1ZM477.31,44V43h-3.22v1Z"/><path class="cls-1" d="M484.08,45.06c0,.14,0,.31,0,.48h2.63v1H484c0,.31-.08.63-.14.94.66.66,2.35,2.55,2.79,3l-.7.88c-.48-.69-1.57-2-2.33-2.86a7.63,7.63,0,0,1-2.9,4.13,3.47,3.47,0,0,0-.73-.77,7.05,7.05,0,0,0,3-5.37h-2.82v-1H483V42.75H482a10.38,10.38,0,0,1-1.13,2.2,5.52,5.52,0,0,0-.85-.6,11.19,11.19,0,0,0,1.74-4.44l1,.2a14.76,14.76,0,0,1-.43,1.68h4v1h-2.21Zm8.07-3.94v11h-1v-1h-3V52.3h-1V41.12Zm-1,9.09V42.1h-3v8.11Z"/><path class="cls-1" d="M494.26,42.28h3.89v.85h-3.89Zm3.57,9.61h-2.33v.66h-.8V47.86h3.12Zm-3.11-7.77h3.11v.83h-3.11Zm0,1.85h3.11v.84h-3.11Zm1.51-3.89a12.62,12.62,0,0,0-1-1.82l.73-.31a10.44,10.44,0,0,1,1,1.78Zm-.73,6.63v2.35H497V48.7Zm11-2.49a15,15,0,0,1-1.71,3.45c.24,1.13.53,1.81.88,1.82s.36-.67.45-1.82a2.94,2.94,0,0,0,.71.55c-.25,1.95-.73,2.45-1.18,2.45-.7,0-1.2-.77-1.58-2a11.3,11.3,0,0,1-2,2,4.77,4.77,0,0,0-.63-.56,8.71,8.71,0,0,0,1.12-.94h-.87V50.7h-2v1h-.85V45.83h3.7v5.24a12.46,12.46,0,0,0,1.29-1.53,40.67,40.67,0,0,1-.5-4.5h-5.07v-.9h1.15a12.38,12.38,0,0,0-.34-1.65l.76-.11a9.85,9.85,0,0,1,.39,1.76h.87a18,18,0,0,0,.42-1.78l.85.15c-.17.56-.35,1.16-.52,1.62h1.44c-.07-1.32-.11-2.73-.14-4.22h.92c0,1.48.06,2.9.13,4.22h2.52V45h-2.46c.08,1.25.2,2.4.34,3.33a13.66,13.66,0,0,0,1.09-2.58Zm-3.74-4H498.5v-.83h1.88a11.3,11.3,0,0,0-.56-1.18l.83-.24a8.16,8.16,0,0,1,.69,1.41h1.42Zm-3.07,4.34v1.29h2V46.58Zm2,3.36V48.63h-2v1.32Zm4-6.49a11.76,11.76,0,0,0-1.08-2.41l.81-.32a13.43,13.43,0,0,1,1.11,2.37Z"/><path class="cls-1" d="M519.62,43.14a27.57,27.57,0,0,1-7.69,7.23,4.06,4.06,0,0,0,.36.25,6.6,6.6,0,0,0,3.59.66c1.63,0,3.7-.11,5-.25a3.8,3.8,0,0,0-.31,1.12c-1,.07-3.43.15-4.78.15a6.77,6.77,0,0,1-3.75-.76c-.57-.36-1-.81-1.32-.81s-1.11.81-1.76,1.74l-.77-1c.92-1,1.83-1.76,2.55-1.76a.68.68,0,0,1,.18,0,24.84,24.84,0,0,0,6.88-6.09h-8.89v-1h9.67l.22-.07Zm-4.83-.48a18.09,18.09,0,0,0-1.46-2.35l.9-.46a15,15,0,0,1,1.51,2.27Z"/><path class="cls-1" d="M523.24,42.44a9.39,9.39,0,0,1-.66,3.78l-.66-.29a9.08,9.08,0,0,0,.63-3.59Zm.43-2.54h1V52.68h-1Zm6.18,10.6c-.28-.39-.94-1.15-1.46-1.74v3.92h-.92v-4a10.52,10.52,0,0,1-1.78,3.05,4.74,4.74,0,0,0-.48-.92,9.48,9.48,0,0,0,1.92-3.15h-1.28V43.91l-.59.24a7.72,7.72,0,0,0-.49-2l.64-.21a9,9,0,0,1,.52,1.83h1.53V42.3h-1.71v-.85h1.71V39.92h.92v1.53h1.72v.85H528.4v1.43H530v3.89H528.4v.15c.48.43,1.67,1.67,1.95,2Zm-3.25-3.71h1V44.55h-1Zm2.65-2.24h-1v2.24h1Zm2.86,6a8,8,0,0,1-1.95,2.16,6.64,6.64,0,0,0-.73-.66,5.73,5.73,0,0,0,1.76-1.76Zm.32-9.43a3.65,3.65,0,0,1-2,3,2.31,2.31,0,0,0-.56-.66,2.86,2.86,0,0,0,1.61-2.33h-1.23v-.81h4.45s0,.25,0,.38c-.06,1.79-.13,2.51-.35,2.79a.83.83,0,0,1-.63.31c-.21,0-.6,0-1,0a2.43,2.43,0,0,0-.22-.87,6.18,6.18,0,0,0,.76,0,.37.37,0,0,0,.29-.08,5.24,5.24,0,0,0,.2-1.77Zm-1.86,3.18h4V50.1h-4Zm.85,1.7h2.23V45.1h-2.23Zm0,1.65h2.23v-1h-2.23Zm0,1.65h2.23v-1h-2.23Zm2.24.94a11.09,11.09,0,0,1,1.47,2l-.83.43a13,13,0,0,0-1.43-2Z"/><path class="cls-1" d="M193.42,61c0,.5,0,1.2-.1,2,.21,1.67,1.05,7.52,6,9.72a3.19,3.19,0,0,0-.76.88c-3.5-1.64-5-5.1-5.67-7.7a11.22,11.22,0,0,1-5.55,7.76,3.32,3.32,0,0,0-.84-.81c5.81-2.94,5.73-9.75,5.77-11.88Z"/><path class="cls-1" d="M203.68,63.77a13.57,13.57,0,0,1-2.42,2.66,6.56,6.56,0,0,0-.87-.76,12.09,12.09,0,0,0,3.73-4.85l1,.31a14.91,14.91,0,0,1-.85,1.64H212v.49c-.15,4.65-.29,6.28-.69,6.78a1.13,1.13,0,0,1-.88.48,10.3,10.3,0,0,1-1.62,0,2.84,2.84,0,0,0-.27-1,11.31,11.31,0,0,0,1.4.06.45.45,0,0,0,.46-.18c.27-.34.42-1.75.53-5.63Zm7,8.64c1.19,0,1.39-.31,1.54-1.75a3.17,3.17,0,0,0,1,.38c-.21,1.83-.63,2.35-2.52,2.35h-5.28c-2.18,0-2.83-.38-2.83-1.93V65.22h5.69v4.13h-4.67v2.11c0,.76.27,1,1.75,1Zm-7.07-6.26v2.26h3.64V66.16Z"/><path class="cls-1" d="M218.37,61.09c-.24.69-.49,1.46-.73,2.06H220v9.09h-3.89v1.11h-1V63.14h1.57a17.08,17.08,0,0,0,.56-2.27Zm.64,3h-2.94V67H219Zm0,7.21V67.93h-2.94V71.3Zm7.8-7.66c-.22,6.39-.41,8.54-1,9.23a1.39,1.39,0,0,1-1.11.56,14.84,14.84,0,0,1-2.07,0,2.41,2.41,0,0,0-.35-1c.91.08,1.75.08,2.07.08s.43,0,.57-.21c.46-.49.67-2.62.85-8.19h-3.56a11.76,11.76,0,0,1-1.32,2.45,7.71,7.71,0,0,0-.85-.59,14.22,14.22,0,0,0,2.14-5.08l1,.24a19.58,19.58,0,0,1-.6,2h4.19ZM223.72,70a24.93,24.93,0,0,0-2.13-3.24l.81-.48a27.51,27.51,0,0,1,2.2,3.17Z"/><path class="cls-1" d="M240.8,75a4.62,4.62,0,0,1-1.47.22,3.87,3.87,0,0,1-3.77-2.44c-2.24-.31-3.75-2.3-3.75-5.31,0-3.29,1.81-5.29,4.38-5.29s4.38,2,4.38,5.29c0,3-1.46,4.92-3.63,5.29a2.67,2.67,0,0,0,2.52,1.37,3.53,3.53,0,0,0,1.08-.15Zm-4.61-3.24c1.83,0,3.05-1.67,3.05-4.29S238,63.3,236.19,63.3s-3.05,1.58-3.05,4.16S234.34,71.74,236.19,71.74Z"/><path class="cls-1" d="M248.42,72.63l-2.49-4.36h-1.85v4.36h-1.3V62.36H246c2.09,0,3.59.74,3.59,2.89a2.79,2.79,0,0,1-2.33,2.89l2.63,4.5Zm-4.34-5.41h1.72c1.61,0,2.49-.64,2.49-2s-.88-1.83-2.49-1.83h-1.72Z"/><path class="cls-1" d="M254.12,68.83a3.7,3.7,0,0,1,3.67-4,3.25,3.25,0,0,1,2.23.9l-.66.85a2.21,2.21,0,0,0-1.53-.69c-1.37,0-2.38,1.19-2.38,2.94s1,2.91,2.35,2.91a2.69,2.69,0,0,0,1.79-.76l.55.85a3.62,3.62,0,0,1-2.45,1C255.67,72.81,254.12,71.35,254.12,68.83Z"/><path class="cls-1" d="M260.91,68.83c0-2.54,1.67-4,3.53-4s3.53,1.47,3.53,4-1.67,4-3.53,4S260.91,71.35,260.91,68.83Zm5.74,0c0-1.75-.9-2.94-2.21-2.94s-2.2,1.19-2.2,2.94.88,2.91,2.2,2.91S266.65,70.58,266.65,68.83Z"/><path class="cls-1" d="M269.42,68.83c0-2.47,1.55-4,3.29-4a3.1,3.1,0,0,1,2.14.9l-.07-1.32V61.48h1.27V72.63h-1l-.13-.9h0a3.39,3.39,0,0,1-2.31,1.08C270.65,72.81,269.42,71.37,269.42,68.83Zm5.37,1.86v-4a2.67,2.67,0,0,0-1.85-.8c-1.23,0-2.2,1.18-2.2,2.91s.76,2.93,2.1,2.93A2.62,2.62,0,0,0,274.78,70.69Z"/><path class="cls-1" d="M278.07,68.83c0-2.47,1.67-4,3.43-4,1.93,0,3,1.4,3,3.57a5.07,5.07,0,0,1-.06.73h-5.13a2.52,2.52,0,0,0,2.52,2.66,3.28,3.28,0,0,0,1.9-.6l.46.84a4.53,4.53,0,0,1-2.52.78A3.63,3.63,0,0,1,278.07,68.83Zm5.34-.62c0-1.54-.7-2.37-1.89-2.37a2.34,2.34,0,0,0-2.19,2.37Z"/><path class="cls-1" d="M290.66,69.25a2.43,2.43,0,0,0,1.76-2.06h-.24a1,1,0,0,1-1.05-1,1,1,0,0,1,1.06-1c.77,0,1.19.63,1.19,1.61A3.34,3.34,0,0,1,291,70Z"/><path class="cls-1" d="M310.91,64.47a15.94,15.94,0,0,1-1.71,5.58,6.89,6.89,0,0,0,2.7,2.75,3.42,3.42,0,0,0-.73.88A7.62,7.62,0,0,1,308.57,71a9.35,9.35,0,0,1-3.26,2.72,4.44,4.44,0,0,0-.63-.94A7.87,7.87,0,0,0,308,70a18.29,18.29,0,0,1-1.27-3.88,9.85,9.85,0,0,1-.94,1.65,5.28,5.28,0,0,0-.76-.66A11.11,11.11,0,0,1,302.92,69v.56l2.75-.36v.91c-.92.13-1.85.25-2.76.39V72.6c0,.53-.11.79-.5.94a5.77,5.77,0,0,1-1.86.15,4,4,0,0,0-.34-.91c.7,0,1.29,0,1.47,0s.24-.06.24-.21v-2c-1,.14-2,.28-2.79.38L299,70l2.91-.35v-1a8.9,8.9,0,0,0,1.6-1.25h-2.18a15.12,15.12,0,0,1-1.7,1.15,9.72,9.72,0,0,0-.74-.8A12,12,0,0,0,302,65.58h-3v-.92h2.42V63.27h-1.83v-.9h1.83V60.9h1v1.47h1.44v.85a13.89,13.89,0,0,0,1-2l1,.28A15.45,15.45,0,0,1,304,64.66h1.69v.92H303.3c-.32.35-.64.7-1,1h2l.2-.06.49.36a15,15,0,0,0,2.19-6l1,.17a24.47,24.47,0,0,1-.56,2.42h4.09v1Zm-8.52.18h.42a13.82,13.82,0,0,0,1-1.39h-1.42Zm6.23,4.25a15.94,15.94,0,0,0,1.22-4.43h-2.45A19.34,19.34,0,0,0,308.62,68.9Z"/><path class="cls-1" d="M325.51,63.2h-3.7a19.88,19.88,0,0,1,3.11,2.62l-.88.6c-.25-.29-.59-.64-1-1-7.17.36-7.89.38-8.36.55-.06-.21-.2-.7-.31-1a2.83,2.83,0,0,0,1.18-.73,12.47,12.47,0,0,0,1.22-1h-3.52v-.94h4.45c.45-.48.91-1,1.32-1.53l1,.43c-.32.36-.66.74-1,1.09h6.42Zm-1.46,9.29c0,.63-.17.9-.64,1a11.29,11.29,0,0,1-2.51.13,3.54,3.54,0,0,0-.29-.9c.87,0,1.81,0,2,0s.34-.08.34-.28V70.69c-2.21.45-4.51.92-6.23,1.23l-.34-.94c1.58-.24,4.13-.64,6.57-1.08V67.35H316V69a6.67,6.67,0,0,1-1.61,4.82,2.84,2.84,0,0,0-.83-.64A5.59,5.59,0,0,0,315,69V66.46h9Zm-1.89-7.86c-.46-.38-.94-.74-1.4-1.06l.59-.36h-3.19c-.64.62-1.3,1.18-1.95,1.68Zm-5.37,3.29a24.93,24.93,0,0,1,5.11,1.27l-.32.77a24.51,24.51,0,0,0-5.13-1.37Z"/><path class="cls-1" d="M334.93,68.77c.73,2.23,2,3.75,3.26,3.74.41,0,.57-.57.64-2a2.74,2.74,0,0,0,.91.49c-.17,2-.59,2.58-1.61,2.58-1.88,0-3.49-2-4.3-4.76h-4.22v3.5l3.36-.81a4.76,4.76,0,0,0,.11,1c-3.81,1-4.33,1.15-4.67,1.36a3.21,3.21,0,0,0-.49-1,1.12,1.12,0,0,0,.62-1V61.63h9.9v4h-4.09a12.66,12.66,0,0,0,.31,2.12h4.82v1Zm-5.31-6.16V64.7h7.8V62.61Zm4,5.18a16.4,16.4,0,0,1-.28-2.12h-3.68v2.12Z"/><path class="cls-1" d="M344.85,67.85a11.75,11.75,0,0,1-.5,1.68,11,11,0,0,1,2.07,1.83l-.56.73A15.29,15.29,0,0,0,344,70.32,6.06,6.06,0,0,1,341.48,73a3.38,3.38,0,0,0-.64-.76,6.12,6.12,0,0,0,3-4.4Zm8.29-1.32c-1.43.24-3.29.43-5.25.58v6.77h-1V67.16c-1.61.1-3.24.15-4.64.18a6.7,6.7,0,0,0-.62-1,73.06,73.06,0,0,0,10.76-.6Zm-.25-1.4h-11V61.45h11Zm-7.73-2.76h-2.28v1.82h2.28Zm3.32,0h-2.35v1.82h2.35Zm3.21,5.21a12.44,12.44,0,0,1-.43,1.81,8.11,8.11,0,0,0,2.49,2.7,3.9,3.9,0,0,0-.69.76,9.79,9.79,0,0,1-2.23-2.46A6,6,0,0,1,348.56,73a3,3,0,0,0-.67-.78,6.18,6.18,0,0,0,2.77-4.59Zm.17-5.21h-2.41v1.82h2.41Z"/><path class="cls-1" d="M362.33,61.6a32.49,32.49,0,0,1-6.6,1.05,2.24,2.24,0,0,0-.21-.76,32.68,32.68,0,0,0,6.28-1Zm0,11c0,.42-.08.66-.38.81a3.65,3.65,0,0,1-1.43.15,2.85,2.85,0,0,0-.34-.8c.49,0,.92,0,1.06,0s.2,0,.2-.18V67.46h-2.76l.41.14a5.69,5.69,0,0,1-.81,1l1.51-.1a5.22,5.22,0,0,0-.46-.5l.5-.28a7.15,7.15,0,0,1,1.21,1.44l-.55.31c-.07-.11-.14-.25-.25-.41a13.9,13.9,0,0,0-2.9.35,3.87,3.87,0,0,0-.25-.7.81.81,0,0,0,.41-.21,4.31,4.31,0,0,0,.81-1.08h-1.67v6.23h-.9V66.62h3.57a12.15,12.15,0,0,0-1.88-.9l.48-.53a11.88,11.88,0,0,1,1.18.49,9.83,9.83,0,0,0,1.29-.78h-4.08v-.7h4.93l.2-.06.57.42a9.84,9.84,0,0,1-2.2,1.5c.21.11.39.22.55.32l-.21.24h2.19Zm-5.59-8.42a4.4,4.4,0,0,0-.53-1.15l.71-.25a3.87,3.87,0,0,1,.56,1.09Zm3.59,8.56a7.32,7.32,0,0,0-1-.66,6.42,6.42,0,0,1-1.78,1.18,3.8,3.8,0,0,0-.46-.5,5.59,5.59,0,0,0,1.61-1,10.4,10.4,0,0,0-1.11-.46l.36-.52a9.1,9.1,0,0,1,1.23.5,3.58,3.58,0,0,0,.62-.85h-2.31V69.8h2.67l.14,0,.45.21a5.2,5.2,0,0,1-1,1.58,6.48,6.48,0,0,1,.94.59ZM358.85,64a5.3,5.3,0,0,0-.49-1.26l.7-.25a6.51,6.51,0,0,1,.53,1.22Zm1.51-.17a10.25,10.25,0,0,0,.85-1.65l.78.35a17.2,17.2,0,0,1-1,1.64Zm6,8.85c.46,0,.53-.52.59-2.62a2.28,2.28,0,0,0,.87.42c-.1,2.3-.32,3.07-1.39,3.07h-1.64c-1.09,0-1.39-.36-1.39-1.68V61.28h1V71.87c0,.67.08.79.55.79Z"/><path class="cls-1" d="M374.74,68.24A26.76,26.76,0,0,1,372,71.68l6.84-.32c-.46-.63-1-1.26-1.46-1.81l.94-.39a20.07,20.07,0,0,1,3,4.15l-1,.45a14.45,14.45,0,0,0-.83-1.47c-7.72.42-8.45.45-9,.66a7.64,7.64,0,0,0-.32-1.08,2.28,2.28,0,0,0,1-.77,18.94,18.94,0,0,0,2.27-2.84h-4v-1h5.38V65.47h-4.41v-1h4.41V62.75h-4.9v-1H381v1h-5.14v1.74h4.58v1h-4.58v1.81h5.63v1Z"/><path class="cls-1" d="M388.49,67.61s0,.31,0,.45c-.14,3.4-.28,4.62-.6,5a1.12,1.12,0,0,1-.8.41,10.51,10.51,0,0,1-1.34,0,2.44,2.44,0,0,0-.28-.92c.52,0,1,.06,1.16.06a.44.44,0,0,0,.41-.15c.21-.25.34-1.26.46-3.92h-1.86a8.63,8.63,0,0,1-1.92,5.15A3.15,3.15,0,0,0,383,73c1.44-1.46,1.7-4.09,1.79-6.68H383v-.94h2.84a10.84,10.84,0,0,0-.63-1.29l1-.2a10.61,10.61,0,0,1,.76,1.48h2.24v.94h-3.42c0,.43,0,.87-.08,1.29Zm-2-4.73h-3.28v-.94h3.28v-1h1v1h1.58v.94h-1.58v.94h-1Zm6.3,1.27c-.07.14-.13.28-.2.41A16.56,16.56,0,0,0,396,67.85a4.22,4.22,0,0,0-.69.73,19.81,19.81,0,0,1-3.05-3.28,11.57,11.57,0,0,1-3,3.26,4,4,0,0,0-.71-.64,10.11,10.11,0,0,0,3.38-4ZM390,70.2a19.84,19.84,0,0,1,4.92,2.42l-.6.84a20.12,20.12,0,0,0-4.86-2.54Zm1.16-7.33h-1.55v-.94h1.55v-1h1v1h3.26v.94h-3.26v.94h-1Zm.18,4.68a11.24,11.24,0,0,1,2.7,1.72l-.63.7a12.56,12.56,0,0,0-2.66-1.79Z"/><path class="cls-1" d="M399.86,62.75h-2.59v-.91h2.59V60.9h1v.94h2.21v.91h-2.21v1h-1Zm6.92,2.82c-.22.45-.46.9-.69,1.29h3.12V69h-1v-1.3h-4.33v1.18h4v2.82c0,.52-.11.78-.5.94a6.07,6.07,0,0,1-2,.17,3,3,0,0,0-.31-.94c.73,0,1.36,0,1.54,0s.25,0,.25-.21V69.8h-3v3.91h-1V69.8H400v3.15h-1v-4h3.91V67.74h-4.27V69h-1V66.86h3.12a6.72,6.72,0,0,0-.64-1.32l.94-.22a5.57,5.57,0,0,1,.77,1.53H405a12.46,12.46,0,0,0,.7-1.55ZM409,65.3H397.8v-.88h5.28a7.15,7.15,0,0,0-.45-.94l.87-.28a7,7,0,0,1,.6,1.22H409Zm.57-3.46v.91h-2.69v1h-1v-1h-2.17v-.91h2.17V60.9h1v.94Z"/><path class="cls-1" d="M414.89,61.09c-.24.69-.49,1.46-.73,2.06h2.33v9.09H412.6v1.11h-1V63.14h1.57a17.08,17.08,0,0,0,.56-2.27Zm.64,3H412.6V67h2.94Zm0,7.21V67.93H412.6V71.3Zm7.8-7.66c-.22,6.39-.41,8.54-1,9.23a1.39,1.39,0,0,1-1.11.56,14.84,14.84,0,0,1-2.07,0,2.41,2.41,0,0,0-.35-1c.91.08,1.75.08,2.07.08s.43,0,.57-.21c.46-.49.67-2.62.85-8.19h-3.56a11.76,11.76,0,0,1-1.32,2.45,7.71,7.71,0,0,0-.85-.59,14.22,14.22,0,0,0,2.14-5.08l1,.24a19.58,19.58,0,0,1-.6,2h4.19ZM420.25,70a24.93,24.93,0,0,0-2.13-3.24l.81-.48a27.51,27.51,0,0,1,2.2,3.17Z"/><path class="cls-1" d="M437.62,64.74v1h-9.79v1.57c0,1.93-.34,4.62-2.14,6.42a3.37,3.37,0,0,0-.78-.7c1.69-1.67,1.9-4,1.9-5.71V65c-.35.28-.7.56-1.08.83a3.88,3.88,0,0,0-.7-.8,11,11,0,0,0,3.78-4.13l1.13.22a8.57,8.57,0,0,1-.71,1.16H434l.18-.07.73.55c-.35.6-.85,1.36-1.29,2Zm-5.14,0c.27-.46.6-1,.88-1.55h-4.82a12.92,12.92,0,0,1-1.48,1.55Zm3,7.82c.88,0,1-.27,1.13-1.81a3.31,3.31,0,0,0,1,.41c-.17,1.86-.5,2.35-2.06,2.35h-4c-1.77,0-2.28-.31-2.28-1.65V67h6.26s0,.28,0,.41c-.13,2-.25,2.87-.57,3.21a1.23,1.23,0,0,1-.87.34,18.29,18.29,0,0,1-1.95,0,2.65,2.65,0,0,0-.28-.91c.76.07,1.51.07,1.75.07s.41,0,.5-.11.28-.73.38-2.07h-4.19v3.92c0,.56.2.7,1.3.7Z"/><path class="cls-1" d="M451.55,68v.87H439.27V68h5.64V67h-4.26v-.83h4.26v-.85c-1.44.08-2.93.11-4.27.11a3,3,0,0,0-.18-.67h-.81V62.29h5.46a12.35,12.35,0,0,0-.66-1.19l1-.31a10.64,10.64,0,0,1,.87,1.5h4.89v2.47h-.92a39,39,0,0,1-4.36.5v.91h4.36V67h-4.36v1Zm-10.88-3.33c1.36,0,2.84-.06,4.24-.14v-1h1v1a32.93,32.93,0,0,0,3.77-.42l.48.49V63.23h-9.47Zm.57,5h8.45v3.94h-1V73.2h-6.42v.5h-1Zm1,.85v1.78h6.42V70.57Z"/><path class="cls-1" d="M459.43,65.19a2.13,2.13,0,1,1-2.13,2.13A2.13,2.13,0,0,1,459.43,65.19Zm0,3.54A1.41,1.41,0,1,0,458,67.32,1.41,1.41,0,0,0,459.43,68.73Z"/><path class="cls-6" d="M144.67,132c-26.38-9-37.88-33-37.88-49,0-26,22.57-37,34.82-37"/><path class="cls-6" d="M582.92,132c26.38-9,37.88-33,37.88-49,0-26-22.57-37-34.82-37"/><rect class="cls-7" x="141.61" y="1.61" width="435.67" height="88.67" rx="44.33" ry="44.33"/></g></g></svg>