<svg xmlns="http://www.w3.org/2000/svg" viewBox="0 0 294.24 34.03"><defs><style>.cls-1{fill:#00364b;}</style></defs><title>資產 165</title><g id="圖層_2" data-name="圖層 2"><g id="secret"><path class="cls-1" d="M35.19,10a7.45,7.45,0,0,1,.48,5.06A9.18,9.18,0,0,1,33,19.94a10.52,10.52,0,0,1-2.95,1.89,5.53,5.53,0,0,1,3.26,2.93,7.84,7.84,0,0,1,.26,4.86A11.88,11.88,0,0,1,31,34.91a12.86,12.86,0,0,1-3,2.61,11.74,11.74,0,0,1-4.17,1.67,25.29,25.29,0,0,1-4.88.45H3.68L10.83,6.46H27.19Q33.36,6.55,35.19,10ZM13.53,25l-1.9,8.84H19.9a9.06,9.06,0,0,0,3.56-.59,5.42,5.42,0,0,0,3.15-4.14q.55-2.59-1.42-3.56A7.94,7.94,0,0,0,21.92,25Zm2.76-12.8-1.58,7.31H23a8,8,0,0,0,3.78-.82,4,4,0,0,0,2-2.91q.48-2.32-1.17-3.06a12.22,12.22,0,0,0-3.93-.52Z" transform="translate(-3.68 -6.46)"/><path class="cls-1" d="M60.76,19.22a10.2,10.2,0,0,1,.8,5.06,31.08,31.08,0,0,1-.82,4.86h-17q-.66,3.69,1.23,5.18a4.69,4.69,0,0,0,3,.92,5.73,5.73,0,0,0,3.52-1.12,7.89,7.89,0,0,0,1.58-1.69h6.65a10.81,10.81,0,0,1-3.27,4.43,14,14,0,0,1-9.74,3.58,10.4,10.4,0,0,1-7.74-3q-3-3-1.52-9.81a17,17,0,0,1,5.38-9.77,13.88,13.88,0,0,1,9.24-3.4,11.67,11.67,0,0,1,5.36,1.15A7.07,7.07,0,0,1,60.76,19.22Zm-16,5.69H54.89a4.64,4.64,0,0,0-.74-3.86,4,4,0,0,0-3.21-1.32,5.47,5.47,0,0,0-3.8,1.39A8.89,8.89,0,0,0,44.77,24.91Z" transform="translate(-3.68 -6.46)"/><path class="cls-1" d="M69.61,31.8A3.55,3.55,0,0,0,70,34.23q.91,1.28,4.18,1.28A7.8,7.8,0,0,0,77.35,35a2.41,2.41,0,0,0,1.51-1.69,1.47,1.47,0,0,0-.57-1.64q-.8-.56-6.38-1.94-4-1-5.39-2.59t-.78-4.41a9.86,9.86,0,0,1,4-5.84,13.14,13.14,0,0,1,8.15-2.44q4.66,0,7.2,1.83t2,6.33H80.55a3.32,3.32,0,0,0-.3-2q-.8-1.31-3.38-1.3a6.07,6.07,0,0,0-3.17.65,2.45,2.45,0,0,0-1.22,1.53,1.32,1.32,0,0,0,.62,1.6,35.31,35.31,0,0,0,6.4,1.78,9.75,9.75,0,0,1,5.23,2.72,5.16,5.16,0,0,1,.94,4.61,9.68,9.68,0,0,1-4,6q-3.24,2.31-9,2.31T64.48,38A6.6,6.6,0,0,1,63,31.8Z" transform="translate(-3.68 -6.46)"/><path class="cls-1" d="M90.58,19.89l1-4.57H95l1.49-6.84H103l-1.49,6.84h4l-1,4.57h-4l-2.81,13q-.32,1.51,0,1.88t2.3.37h.63l.67,0-1.05,4.79L97.12,40q-4.64.16-6-1.58a4.14,4.14,0,0,1-.37-3.4l3.27-15.1Z" transform="translate(-3.68 -6.46)"/><path class="cls-1" d="M147.49,6.46h10.12l-7.15,33.17H143.9l4.82-22.44q.23-1,.63-2.71t.58-2.69L137.57,39.63h-6.83l-.34-27.84q-.18.94-.54,2.69t-.58,2.71l-4.82,22.44h-6.56L125,6.46h10.24l.48,26.08Z" transform="translate(-3.68 -6.46)"/><path class="cls-1" d="M167.46,40.49q-6.42,0-8.74-3.84a12.29,12.29,0,0,1-1.15-9.24,17.84,17.84,0,0,1,5.14-9.2,14.3,14.3,0,0,1,10.42-3.89q6.42,0,8.73,3.89a12.37,12.37,0,0,1,1.17,9.2,17.75,17.75,0,0,1-5.15,9.24A14.39,14.39,0,0,1,167.46,40.49Zm8.73-13.08q.8-3.69-.31-5.68a4.14,4.14,0,0,0-4-2,6.51,6.51,0,0,0-4.82,2,11.31,11.31,0,0,0-2.76,5.68q-.8,3.69.31,5.69a4.13,4.13,0,0,0,4,2,6.49,6.49,0,0,0,4.82-2A11.37,11.37,0,0,0,176.19,27.41Z" transform="translate(-3.68 -6.46)"/><path class="cls-1" d="M223.83,17.4a6,6,0,0,1,.73,3.15,23.48,23.48,0,0,1-.55,3.62l-3.38,15.46H214L217.32,24a4.91,4.91,0,0,0,0-2.3q-.5-1.71-2.83-1.71a4.81,4.81,0,0,0-4.21,2.21A8.3,8.3,0,0,0,209.19,25l-3.13,14.61H199.5L202.63,25a7.63,7.63,0,0,0,.23-3.17q-.43-1.78-2.83-1.78a4.86,4.86,0,0,0-4.14,1.78,8.19,8.19,0,0,0-1.17,3l-3.18,14.76h-6.6l5.28-24.49h6.33l-.78,3.58A14.1,14.1,0,0,1,198.65,16a9.28,9.28,0,0,1,5.21-1.44,6.73,6.73,0,0,1,4.36,1.24,5.45,5.45,0,0,1,1.51,2.95,10.4,10.4,0,0,1,8.55-4.19,7.78,7.78,0,0,1,3.11.63A5.42,5.42,0,0,1,223.83,17.4Z" transform="translate(-3.68 -6.46)"/><path class="cls-1" d="M250.59,19.22a10.2,10.2,0,0,1,.8,5.06,31.08,31.08,0,0,1-.82,4.86h-17q-.66,3.69,1.23,5.18a4.69,4.69,0,0,0,3,.92,5.73,5.73,0,0,0,3.52-1.12,7.89,7.89,0,0,0,1.58-1.69h6.65a10.81,10.81,0,0,1-3.27,4.43,14,14,0,0,1-9.74,3.58,10.4,10.4,0,0,1-7.74-3q-3-3-1.52-9.81a17,17,0,0,1,5.38-9.77,13.88,13.88,0,0,1,9.24-3.4,11.67,11.67,0,0,1,5.36,1.15A7.07,7.07,0,0,1,250.59,19.22Zm-16,5.69h10.12a4.64,4.64,0,0,0-.74-3.86,4,4,0,0,0-3.21-1.32,5.47,5.47,0,0,0-3.8,1.39A8.89,8.89,0,0,0,234.6,24.91Z" transform="translate(-3.68 -6.46)"/><path class="cls-1" d="M278.84,23.11l-3.56,16.52H268.6l3.2-14.92a6.1,6.1,0,0,0,.11-3q-.55-1.89-3.25-1.89a5.82,5.82,0,0,0-5.14,2.77,10.87,10.87,0,0,0-1.44,3.74l-2.86,13.28h-6.49L258,15.15h6.28l-.78,3.58a15.1,15.1,0,0,1,3-2.72,9.86,9.86,0,0,1,5.42-1.49,8,8,0,0,1,5.88,2Q279.82,18.5,278.84,23.11Z" transform="translate(-3.68 -6.46)"/><path class="cls-1" d="M283,19.89l1-4.57h3.47l1.49-6.84h6.44l-1.49,6.84h4l-1,4.57h-4l-2.81,13q-.32,1.51,0,1.88t2.3.37H293l.67,0-1.05,4.79-3.11.11q-4.64.16-6-1.58a4.14,4.14,0,0,1-.37-3.4l3.27-15.1Z" transform="translate(-3.68 -6.46)"/></g></g></svg>