<svg xmlns="http://www.w3.org/2000/svg" xmlns:xlink="http://www.w3.org/1999/xlink" viewBox="0 0 260.74 149.92"><defs><style>.cls-1{fill:url(#未命名漸層_12);}.cls-2{fill:#006261;}.cls-3{fill:#f6f7f7;}.cls-4{fill:#bebebe;}</style><linearGradient id="未命名漸層_12" x1="139.14" y1="149.92" x2="139.14" y2="98.92" gradientUnits="userSpaceOnUse"><stop offset="0" stop-color="#3c9195"/><stop offset="1" stop-color="#8fd0db"/></linearGradient></defs><title>資產 160</title><g id="圖層_2" data-name="圖層 2"><g id="content"><rect class="cls-1" x="134.38" y="98.92" width="9.53" height="51" rx="4.76" ry="4.76"/><path class="cls-2" d="M201.84,74.8,217.58,3.66H0L56.31,74.8h56.13l22.36,28.12c2.09,2.63,4.24,3.79,6.81,3.21,2.72-.61,3.31-2.37,1.22-5L122,74.8Z"/><polygon class="cls-3" points="214.73 61.9 79.43 61.9 79.43 9.33 260.74 9.01 214.73 61.9"/><polygon class="cls-4" points="70.69 0 250.62 0 260.74 9.01 79.43 9.33 70.69 0"/><polygon class="cls-4" points="79.43 9.33 79.43 61.9 71.34 53.48 70.59 0 79.43 9.33"/><rect class="cls-3" x="134.38" y="56.3" width="9.53" height="51" rx="4.76" ry="4.76"/></g></g></svg>