<svg xmlns="http://www.w3.org/2000/svg" xmlns:xlink="http://www.w3.org/1999/xlink" viewBox="0 0 270.75 107.3"><defs><style>.cls-1{fill:url(#未命名漸層_3);}.cls-2{fill:#00364b;}.cls-3{fill:#004864;}.cls-4{fill:url(#未命名漸層_14);}.cls-5{fill:url(#未命名漸層_14-2);}</style><linearGradient id="未命名漸層_3" x1="107.3" y1="-14.22" x2="107.3" y2="97.12" gradientUnits="userSpaceOnUse"><stop offset="0" stop-color="#006464"/><stop offset="1" stop-color="#00364b"/></linearGradient><linearGradient id="未命名漸層_14" x1="99.44" y1="62.42" x2="99.44" y2="126.44" gradientUnits="userSpaceOnUse"><stop offset="0" stop-color="#00364b"/><stop offset="1" stop-color="#006464"/></linearGradient><linearGradient id="未命名漸層_14-2" x1="197.77" y1="62.42" x2="197.77" y2="126.44" xlink:href="#未命名漸層_14"/></defs><title>資產 127</title><g id="圖層_2" data-name="圖層 2"><g id="content"><path class="cls-1" d="M179.37,75.8h35.23L87.7,25.08H0L40.37,75.8H71.51l22.36,28.12c2.09,2.63,4.24,3.79,6.81,3.21,2.72-.61,3.31-2.37,1.22-5L81,75.8h88.81l22.36,28.12c2.78,3.38,4.14,3,6.77,3h0c1.74,0,2.76-3,.66-5.6Z"/><polygon class="cls-2" points="224.74 61.9 63.5 61.9 63.5 9.33 270.75 9.01 224.74 61.9"/><polygon class="cls-3" points="54.75 0 260.63 0 270.75 9.01 63.5 9.33 54.75 0"/><polygon class="cls-3" points="63.5 9.33 63.5 61.9 55.41 53.48 54.65 0 63.5 9.33"/><rect class="cls-4" x="94.68" y="56.3" width="9.53" height="51" rx="4.76" ry="4.76"/><rect class="cls-5" x="193.01" y="56.3" width="9.53" height="51" rx="4.76" ry="4.76"/></g></g></svg>