<svg xmlns="http://www.w3.org/2000/svg" xmlns:xlink="http://www.w3.org/1999/xlink" viewBox="0 0 305.75 149.92"><defs><style>.cls-1{fill:url(#未命名漸層_12);}.cls-2{fill:url(#未命名漸層_12-2);}.cls-3{fill:#006261;}.cls-4{fill:#f6f7f7;}.cls-5{fill:#bebebe;}</style><linearGradient id="未命名漸層_12" x1="115.38" y1="149.92" x2="115.38" y2="98.92" gradientUnits="userSpaceOnUse"><stop offset="0" stop-color="#3c9195"/><stop offset="1" stop-color="#8fd0db"/></linearGradient><linearGradient id="未命名漸層_12-2" x1="235.69" y1="149.92" x2="235.69" y2="98.92" xlink:href="#未命名漸層_12"/></defs><title>資產 159</title><g id="圖層_2" data-name="圖層 2"><g id="content"><rect class="cls-1" x="110.62" y="98.92" width="9.53" height="51" rx="4.76" ry="4.76"/><rect class="cls-2" x="230.93" y="98.92" width="9.53" height="51" rx="4.76" ry="4.76"/><path class="cls-3" d="M218.3,74.8h28.54L262.58,3.66H0L56.31,74.8H87.44l22.36,28.12c2.09,2.63,4.24,3.79,6.81,3.21,2.72-.61,3.31-2.37,1.22-5L97,74.8H208.78l22.36,28.12c2.78,3.38,4.14,3,6.77,3h0c1.74,0,2.76-3,.66-5.6Z"/><polygon class="cls-4" points="259.74 61.9 79.43 61.9 79.43 9.33 305.75 9.01 259.74 61.9"/><polygon class="cls-5" points="70.69 0 295.62 0 305.75 9.01 79.43 9.33 70.69 0"/><polygon class="cls-5" points="79.43 9.33 79.43 61.9 71.34 53.48 70.59 0 79.43 9.33"/><rect class="cls-4" x="110.62" y="56.3" width="9.53" height="51" rx="4.76" ry="4.76"/><rect class="cls-4" x="230.93" y="56.3" width="9.53" height="51" rx="4.76" ry="4.76"/></g></g></svg>