<svg xmlns="http://www.w3.org/2000/svg" viewBox="0 0 121.05 114.6"><defs><style>.cls-1{fill:#f6f7f7;}.cls-2{fill:#8fd0db;}.cls-3{fill:none;stroke:#8fd0db;stroke-linecap:round;stroke-miterlimit:10;stroke-width:4px;}.cls-4{fill:#ff9947;}</style></defs><title>資產 116</title><g id="圖層_2" data-name="圖層 2"><g id="小故事"><path class="cls-1" d="M23,73.61a5.74,5.74,0,0,0,6.66,1.84l67.9-26A5.17,5.17,0,0,0,100.34,47L120.66,7.74a3.12,3.12,0,0,0-3.78-4.42L2.35,46a3.62,3.62,0,0,0-1.27,6Z"/><path class="cls-2" d="M23.28,86.45c1.53-3.25,4.2-6.1,6.56-7L97,53.24a2.29,2.29,0,0,1,2.73.35l15.21,12c3.27,2.58,6.07,4.37,1.22,7L16.13,113.66c-7.68,2.91-10.68-1.34-7.2-6.65Z"/><line class="cls-3" x1="89.82" y1="21.3" x2="111.31" y2="10.93"/><line class="cls-3" x1="11" y1="49.28" x2="43.57" y2="39.5"/><path class="cls-4" d="M48.34,35.29,66,1.37A2.54,2.54,0,0,1,70.29,1L85.87,22.23a2.54,2.54,0,0,1-1.14,3.88L51.5,38.83A2.54,2.54,0,0,1,48.34,35.29Z"/></g></g></svg>