<svg xmlns="http://www.w3.org/2000/svg" viewBox="0 0 134.89 84.87"><defs><style>.cls-1{fill:#f6f7f7;}.cls-2{fill:#8fd0db;}.cls-3{fill:none;stroke:#8fd0db;stroke-linecap:round;stroke-miterlimit:10;stroke-width:4px;}.cls-4{fill:#ff9947;}</style></defs><title>資產 115</title><g id="圖層_2" data-name="圖層 2"><g id="小故事"><path class="cls-1" d="M110.41,50a9.48,9.48,0,0,1-7.27,4L27.42,55.18A3.91,3.91,0,0,1,24.31,54L.48,26.12c-1.59-1.76,1-5.21,4-5.32l127.69-2.91c2.76-.06,3.63,2.55,1.62,4.89Z"/><path class="cls-2" d="M110.62,63c-2.51-2.32-4.14-4.16-8.64-3.82l-73.81.59a3.65,3.65,0,0,0-3,1.3L8.88,77.31c-3.5,3.49-6.52,6.1-1.09,6.67l115.31.88c7.33.11,8.63-4.82,5.28-7.6C128.38,77.27,113.14,65.36,110.62,63Z"/><line class="cls-3" x1="39.86" y1="27.06" x2="10.9" y2="25.62"/><line class="cls-3" x1="122.77" y1="23.9" x2="94.85" y2="26.18"/><path class="cls-4" d="M88.44,24.79,67.79.9a2.57,2.57,0,0,0-4.19.41l-17,25.28c-1,1.57-.35,3.09,1.4,3.07l38.91-.55C89.37,29.07,89.71,26.26,88.44,24.79Z"/></g></g></svg>