<svg xmlns="http://www.w3.org/2000/svg" viewBox="0 0 134.89 89.67"><defs><style>.cls-1{fill:#f6f7f7;}.cls-2{fill:#8fd0db;}.cls-3{fill:none;stroke:#8fd0db;stroke-linecap:round;stroke-miterlimit:10;stroke-width:4px;}.cls-4{fill:#ff9947;}</style></defs><title>資產 117</title><g id="圖層_2" data-name="圖層 2"><g id="小故事"><path class="cls-1" d="M110.41,53.8a8.69,8.69,0,0,1-7.27,3.49L27.42,52.63a4.23,4.23,0,0,1-3.11-1.45L.48,21.52c-1.59-1.88,1-5.13,4-5l127.69,6.81c2.76.15,3.63,2.83,1.62,5Z"/><path class="cls-2" d="M110.62,66.83c-2.51-2.51-4.14-4.48-8.64-4.48l-73.81-5a3.39,3.39,0,0,0-3,1.07l-16.3,15C5.38,76.58,2.36,79,7.79,79.95L123.1,89.61c7.33.67,8.63-4.17,5.28-7.2C128.38,82.41,113.14,69.34,110.62,66.83Z"/><line class="cls-3" x1="34.95" y1="25.2" x2="10.9" y2="21.81"/><line class="cls-3" x1="122.77" y1="28.62" x2="86.54" y2="28.81"/><path class="cls-4" d="M81.14,26.34,60.45.71c-1-1.26-3.58-.78-4.75.89L39.33,24.95c-1,1.49-.35,3.07,1.4,3.17L77.78,30.4C80.22,30.55,82.4,27.9,81.14,26.34Z"/></g></g></svg>