<svg xmlns="http://www.w3.org/2000/svg" viewBox="0 0 128.05 82.85"><defs><style>.cls-1,.cls-3{fill:none;}.cls-1{stroke:#006464;stroke-width:7px;}.cls-2{fill:#f6f7f7;}.cls-3{stroke:#8fd0db;stroke-linecap:round;stroke-miterlimit:10;stroke-width:4px;}.cls-4{fill:#ff9947;}</style></defs><title>資產 121</title><g id="圖層_2" data-name="圖層 2"><g id="小故事HL"><path class="cls-1" d="M26.54,77.11a5.74,5.74,0,0,0,6.66,1.84l67.9-26a5.17,5.17,0,0,0,2.74-2.45l20.32-39.23a3.12,3.12,0,0,0-3.78-4.42L5.85,49.54a3.62,3.62,0,0,0-1.27,6Z"/><line class="cls-1" x1="93.32" y1="24.8" x2="114.81" y2="14.43"/><line class="cls-1" x1="14.5" y1="52.78" x2="47.07" y2="43"/><path class="cls-1" d="M51.84,38.79,69.49,4.87a2.54,2.54,0,0,1,4.3-.33L89.37,25.73a2.54,2.54,0,0,1-1.14,3.88L55,42.33A2.54,2.54,0,0,1,51.84,38.79Z"/><path class="cls-2" d="M26.54,77.11a5.74,5.74,0,0,0,6.66,1.84l67.9-26a5.17,5.17,0,0,0,2.74-2.45l20.32-39.23a3.12,3.12,0,0,0-3.78-4.42L5.85,49.54a3.62,3.62,0,0,0-1.27,6Z"/><line class="cls-3" x1="93.32" y1="24.8" x2="114.81" y2="14.43"/><line class="cls-3" x1="14.5" y1="52.78" x2="47.07" y2="43"/><path class="cls-4" d="M51.84,38.79,69.49,4.87a2.54,2.54,0,0,1,4.3-.33L89.37,25.73a2.54,2.54,0,0,1-1.14,3.88L55,42.33A2.54,2.54,0,0,1,51.84,38.79Z"/></g></g></svg>