<svg xmlns="http://www.w3.org/2000/svg" viewBox="0 0 134.89 89.67"><defs><style>.cls-1{fill:#f6f7f7;}.cls-2{fill:#8fd0db;}.cls-3{fill:none;stroke:#8fd0db;stroke-linecap:round;stroke-miterlimit:10;stroke-width:4px;}.cls-4{fill:#ff9947;}</style></defs><title>資產 119</title><g id="圖層_2" data-name="圖層 2"><g id="小故事"><path class="cls-1" d="M24.48,53.8a8.69,8.69,0,0,0,7.27,3.49l75.72-4.66a4.23,4.23,0,0,0,3.11-1.45l23.83-29.66c1.59-1.88-1-5.13-4-5L2.72,23.32c-2.76.15-3.63,2.83-1.62,5Z"/><path class="cls-2" d="M24.26,66.83c2.51-2.51,4.14-4.48,8.64-4.48l73.81-5a3.39,3.39,0,0,1,3,1.07l16.3,15c3.5,3.22,6.52,5.61,1.09,6.59L11.78,89.61c-7.33.67-8.62-4.17-5.28-7.2C6.5,82.41,21.75,69.34,24.26,66.83Z"/><line class="cls-3" x1="99.94" y1="25.2" x2="123.99" y2="21.81"/><line class="cls-3" x1="12.12" y1="28.62" x2="48.35" y2="28.81"/><path class="cls-4" d="M53.75,26.34,74.44.71c1-1.26,3.58-.78,4.75.89L95.56,24.95c1,1.49.35,3.07-1.4,3.17L57.1,30.4C54.67,30.55,52.48,27.9,53.75,26.34Z"/></g></g></svg>