<svg xmlns="http://www.w3.org/2000/svg" viewBox="0 0 141.89 64.31"><defs><style>.cls-1,.cls-3{fill:none;}.cls-1{stroke:#006464;stroke-width:7px;}.cls-2{fill:#f6f7f7;}.cls-3{stroke:#8fd0db;stroke-linecap:round;stroke-miterlimit:10;stroke-width:4px;}.cls-4{fill:#ff9947;}</style></defs><title>資產 122</title><g id="圖層_2" data-name="圖層 2"><g id="小故事HL"><path class="cls-1" d="M113.91,57.3a8.69,8.69,0,0,1-7.27,3.49L30.92,56.13a4.23,4.23,0,0,1-3.11-1.45L4,25c-1.59-1.88,1-5.13,4-5l127.69,6.81c2.76.15,3.63,2.83,1.62,5Z"/><line class="cls-1" x1="38.45" y1="28.7" x2="14.4" y2="25.31"/><line class="cls-1" x1="126.27" y1="32.12" x2="90.04" y2="32.31"/><path class="cls-1" d="M84.64,29.84,63.95,4.21c-1-1.26-3.58-.78-4.75.89L42.83,28.45c-1,1.49-.35,3.07,1.4,3.17L81.28,33.9C83.72,34,85.9,31.4,84.64,29.84Z"/><path class="cls-2" d="M113.91,57.3a8.69,8.69,0,0,1-7.27,3.49L30.92,56.13a4.23,4.23,0,0,1-3.11-1.45L4,25c-1.59-1.88,1-5.13,4-5l127.69,6.81c2.76.15,3.63,2.83,1.62,5Z"/><line class="cls-3" x1="38.45" y1="28.7" x2="14.4" y2="25.31"/><line class="cls-3" x1="126.27" y1="32.12" x2="90.04" y2="32.31"/><path class="cls-4" d="M84.64,29.84,63.95,4.21c-1-1.26-3.58-.78-4.75.89L42.83,28.45c-1,1.49-.35,3.07,1.4,3.17L81.28,33.9C83.72,34,85.9,31.4,84.64,29.84Z"/></g></g></svg>