<svg xmlns="http://www.w3.org/2000/svg" viewBox="0 0 141.89 62.18"><defs><style>.cls-1,.cls-3{fill:none;}.cls-1{stroke:#006261;stroke-width:7px;}.cls-2{fill:#f6f7f7;}.cls-3{stroke:#8fd0db;stroke-linecap:round;stroke-miterlimit:10;stroke-width:4px;}.cls-4{fill:#ff9947;}</style></defs><title>資產 120</title><g id="圖層_2" data-name="圖層 2"><g id="小故事HL"><path class="cls-1" d="M113.91,53.53a9.48,9.48,0,0,1-7.27,4L30.92,58.68a3.91,3.91,0,0,1-3.11-1.21L4,29.62C2.4,27.86,5,24.41,8,24.3l127.69-2.91c2.76-.06,3.63,2.55,1.62,4.89Z"/><line class="cls-1" x1="43.36" y1="30.56" x2="14.4" y2="29.12"/><line class="cls-1" x1="126.27" y1="27.4" x2="98.35" y2="29.68"/><path class="cls-1" d="M91.94,28.29,71.29,4.4a2.57,2.57,0,0,0-4.19.41l-17,25.28c-1,1.57-.35,3.09,1.4,3.07l38.91-.55C92.87,32.57,93.21,29.76,91.94,28.29Z"/><path class="cls-2" d="M113.91,53.53a9.48,9.48,0,0,1-7.27,4L30.92,58.68a3.91,3.91,0,0,1-3.11-1.21L4,29.62C2.4,27.86,5,24.41,8,24.3l127.69-2.91c2.76-.06,3.63,2.55,1.62,4.89Z"/><line class="cls-3" x1="43.36" y1="30.56" x2="14.4" y2="29.12"/><line class="cls-3" x1="126.27" y1="27.4" x2="98.35" y2="29.68"/><path class="cls-4" d="M91.94,28.29,71.29,4.4a2.57,2.57,0,0,0-4.19.41l-17,25.28c-1,1.57-.35,3.09,1.4,3.07l38.91-.55C92.87,32.57,93.21,29.76,91.94,28.29Z"/></g></g></svg>