<svg xmlns="http://www.w3.org/2000/svg" viewBox="0 0 141.89 64.31"><defs><style>.cls-1,.cls-3{fill:none;}.cls-1{stroke:#006464;stroke-width:7px;}.cls-2{fill:#f6f7f7;}.cls-3{stroke:#8fd0db;stroke-linecap:round;stroke-miterlimit:10;stroke-width:4px;}.cls-4{fill:#ff9947;}</style></defs><title>資產 124</title><g id="圖層_2" data-name="圖層 2"><g id="小故事HL"><path class="cls-1" d="M28,57.3a8.69,8.69,0,0,0,7.27,3.49L111,56.13a4.23,4.23,0,0,0,3.11-1.45L137.91,25c1.59-1.88-1-5.13-4-5L6.22,26.82c-2.76.15-3.63,2.83-1.62,5Z"/><line class="cls-1" x1="103.44" y1="28.7" x2="127.49" y2="25.31"/><line class="cls-1" x1="15.62" y1="32.12" x2="51.85" y2="32.31"/><path class="cls-1" d="M57.25,29.84,77.94,4.21c1-1.26,3.58-.78,4.75.89L99.06,28.45c1,1.49.35,3.07-1.4,3.17L60.6,33.9C58.17,34,56,31.4,57.25,29.84Z"/><path class="cls-2" d="M28,57.3a8.69,8.69,0,0,0,7.27,3.49L111,56.13a4.23,4.23,0,0,0,3.11-1.45L137.91,25c1.59-1.88-1-5.13-4-5L6.22,26.82c-2.76.15-3.63,2.83-1.62,5Z"/><line class="cls-3" x1="103.44" y1="28.7" x2="127.49" y2="25.31"/><line class="cls-3" x1="15.62" y1="32.12" x2="51.85" y2="32.31"/><path class="cls-4" d="M57.25,29.84,77.94,4.21c1-1.26,3.58-.78,4.75.89L99.06,28.45c1,1.49.35,3.07-1.4,3.17L60.6,33.9C58.17,34,56,31.4,57.25,29.84Z"/></g></g></svg>