<svg xmlns="http://www.w3.org/2000/svg" viewBox="0 0 128.05 82.85"><defs><style>.cls-1,.cls-3{fill:none;}.cls-1{stroke:#006464;stroke-width:7px;}.cls-2{fill:#f6f7f7;}.cls-3{stroke:#8fd0db;stroke-linecap:round;stroke-miterlimit:10;stroke-width:4px;}.cls-4{fill:#ff9947;}</style></defs><title>資產 123</title><g id="圖層_2" data-name="圖層 2"><g id="小故事HL"><path class="cls-1" d="M101.51,77.11a5.74,5.74,0,0,1-6.66,1.84l-67.9-26a5.17,5.17,0,0,1-2.74-2.45L3.89,11.24A3.12,3.12,0,0,1,7.67,6.82L122.2,49.54a3.62,3.62,0,0,1,1.27,6Z"/><line class="cls-1" x1="34.73" y1="24.8" x2="13.24" y2="14.43"/><line class="cls-1" x1="113.55" y1="52.78" x2="80.98" y2="43"/><path class="cls-1" d="M76.21,38.79,58.56,4.87a2.54,2.54,0,0,0-4.3-.33L38.68,25.73a2.54,2.54,0,0,0,1.14,3.88L73,42.33A2.54,2.54,0,0,0,76.21,38.79Z"/><path class="cls-2" d="M101.51,77.11a5.74,5.74,0,0,1-6.66,1.84l-67.9-26a5.17,5.17,0,0,1-2.74-2.45L3.89,11.24A3.12,3.12,0,0,1,7.67,6.82L122.2,49.54a3.62,3.62,0,0,1,1.27,6Z"/><line class="cls-3" x1="34.73" y1="24.8" x2="13.24" y2="14.43"/><line class="cls-3" x1="113.55" y1="52.78" x2="80.98" y2="43"/><path class="cls-4" d="M76.21,38.79,58.56,4.87a2.54,2.54,0,0,0-4.3-.33L38.68,25.73a2.54,2.54,0,0,0,1.14,3.88L73,42.33A2.54,2.54,0,0,0,76.21,38.79Z"/></g></g></svg>