<svg xmlns="http://www.w3.org/2000/svg" viewBox="0 0 121.05 114.6"><defs><style>.cls-1{fill:#f6f7f7;}.cls-2{fill:#8fd0db;}.cls-3{fill:none;stroke:#8fd0db;stroke-linecap:round;stroke-miterlimit:10;stroke-width:4px;}.cls-4{fill:#ff9947;}</style></defs><title>資產 118</title><g id="圖層_2" data-name="圖層 2"><g id="小故事"><path class="cls-1" d="M98,73.61a5.74,5.74,0,0,1-6.66,1.84l-67.9-26A5.17,5.17,0,0,1,20.71,47L.39,7.74A3.12,3.12,0,0,1,4.17,3.32L118.7,46A3.62,3.62,0,0,1,120,52Z"/><path class="cls-2" d="M97.77,86.45c-1.53-3.25-4.2-6.1-6.56-7L24,53.24a2.29,2.29,0,0,0-2.73.35l-15.21,12c-3.27,2.58-6.07,4.37-1.22,7l100.07,41.13c7.68,2.91,10.68-1.34,7.2-6.65Z"/><line class="cls-3" x1="31.23" y1="21.3" x2="9.74" y2="10.93"/><line class="cls-3" x1="110.05" y1="49.28" x2="77.48" y2="39.5"/><path class="cls-4" d="M72.71,35.29,55.06,1.37A2.54,2.54,0,0,0,50.76,1L35.18,22.23a2.54,2.54,0,0,0,1.14,3.88L69.54,38.83A2.54,2.54,0,0,0,72.71,35.29Z"/></g></g></svg>