<svg xmlns="http://www.w3.org/2000/svg" xmlns:xlink="http://www.w3.org/1999/xlink" viewBox="0 0 417.79 289.73"><defs><style>.cls-1,.cls-3,.cls-4,.cls-7{fill:none;stroke-linecap:round;stroke-miterlimit:10;}.cls-1{stroke:#fff;}.cls-1,.cls-3{stroke-width:31px;}.cls-2{fill:#3c9195;}.cls-3,.cls-4,.cls-7{stroke:#00364b;}.cls-4{stroke-width:19px;}.cls-5{fill:#00364b;}.cls-6{fill:#ff9947;}.cls-7{stroke-width:10px;}.cls-8{mask:url(#mask);}.cls-9{fill:#e0e0e0;}</style><mask id="mask" x="228.88" y="96.52" width="148.56" height="70.62" maskUnits="userSpaceOnUse"><line class="cls-1" x1="250.04" y1="112.02" x2="361.94" y2="145.5"/></mask></defs><title>資產 130</title><g id="圖層_2" data-name="圖層 2"><g id="content"><ellipse class="cls-2" cx="205.15" cy="196.65" rx="184.03" ry="74.12"/><line class="cls-3" x1="250.28" y1="111.74" x2="362.18" y2="145.22"/><line class="cls-4" x1="145.41" y1="220.2" x2="263.91" y2="161.02"/><line class="cls-4" x1="134.37" y1="175.9" x2="272.37" y2="204.57"/><line class="cls-4" x1="171.3" y1="161.9" x2="243.86" y2="216.02"/><path class="cls-5" d="M56,168.35c0,5.12-5.73,6.84-14.35,6.84s-16.86-3.42-16.86-6.84c0-5.12,10.33-10.07,18.95-10.07S56,163.24,56,168.35Z"/><path class="cls-6" d="M59.77,170.42c0,5.12-5.73,6.84-14.35,6.84s-16.86-3.42-16.86-6.84c0-5.12,10.33-10.07,18.95-10.07S59.77,165.3,59.77,170.42Z"/><path class="cls-5" d="M67.23,180c0,2.16-2.95,3-6.58,3s-6.55-.42-6.55-2.58c0-1.56,1.48-3.6,5.12-3.6S67.23,178.41,67.23,180Z"/><path class="cls-6" d="M68.67,180.48c0,2.16-2.95,3-6.58,3s-6.55-.42-6.55-2.58c0-1.56,1.48-3.6,5.12-3.6S68.67,178.93,68.67,180.48Z"/><path class="cls-6" d="M338,264.76c0,4.75-6.49,6.53-14.49,6.53s-14.42-.93-14.42-5.68c0-3.43,3.27-7.93,11.27-7.93S338,261.35,338,264.76Z"/><path class="cls-5" d="M340.9,266c0,4.75-6.49,6.53-14.49,6.53S312,271.61,312,266.86c0-3.43,3.27-7.93,11.27-7.93S340.9,262.6,340.9,266Z"/><path class="cls-5" d="M68.29,113.26c0,5.12-5.73,6.84-14.35,6.84s-16.86-3.42-16.86-6.84c0-5.12,10.33-10.07,18.95-10.07S68.29,108.14,68.29,113.26Z"/><path class="cls-6" d="M415,233.12c0,5.12-5.73,6.84-14.35,6.84s-16.86-3.42-16.86-6.84c0-5.12,10.33-10.07,18.95-10.07S415,228,415,233.12Z"/><path class="cls-5" d="M417.79,233.12c0,5.12-5.73,6.84-14.35,6.84s-16.86-3.42-16.86-6.84c0-5.12,10.33-10.07,18.95-10.07S417.79,228,417.79,233.12Z"/><path class="cls-5" d="M85.33,106.4c0,2.16-2.95,3-6.58,3s-6.55-.42-6.55-2.58c0-1.56,1.48-3.6,5.12-3.6S85.33,104.85,85.33,106.4Z"/><path class="cls-5" d="M31.22,192.53c0,5.12-7,7-15.61,7S0,197.65,0,192.53s7-9.27,15.61-9.27S31.22,187.41,31.22,192.53Z"/><path class="cls-6" d="M31.22,192.95c0,4.45-3.93,5.61-8.73,6.11s-9.76.76-9.16-3.64c.64-4.73,4-7.72,8.39-9.39S31.22,188.5,31.22,192.95Z"/><path class="cls-6" d="M87,245.88c0,7.66-10.46,10.52-23.36,10.52s-23.36-2.86-23.36-10.52S50.71,232,63.61,232,87,238.22,87,245.88Z"/><path class="cls-5" d="M84.22,247.38c0,7.66-10.46,10.52-23.36,10.52S37.5,255,37.5,247.38,48,233.52,60.86,233.52,84.22,239.72,84.22,247.38Z"/><path class="cls-6" d="M384.41,242.84c0,3.36-4.59,4.62-10.26,4.62s-10.26-1.26-10.26-4.62,4.59-6.09,10.26-6.09S384.41,239.48,384.41,242.84Z"/><path class="cls-5" d="M388.62,242.84c0,3.36-4.59,4.62-10.26,4.62s-10.26-1.26-10.26-4.62,4.59-6.09,10.26-6.09S388.62,239.48,388.62,242.84Z"/><path class="cls-5" d="M341.36,161.72c0,2.31-3.15,3.17-7,3.17s-7-.86-7-3.17,3.15-4.18,7-4.18S341.36,159.41,341.36,161.72Z"/><path class="cls-6" d="M339.77,162.13c0,2.31-3.15,3.17-7,3.17s-7-.86-7-3.17,3.15-4.18,7-4.18S339.77,159.83,339.77,162.13Z"/><path class="cls-6" d="M305,279.56c0,2.56-3.49,3.51-7.8,3.51s-7.8-1-7.8-3.51,3.49-4.63,7.8-4.63S305,277,305,279.56Z"/><path class="cls-5" d="M307.5,280.56c0,2.56-3.49,3.51-7.8,3.51s-7.8-1-7.8-3.51,3.49-4.63,7.8-4.63S307.5,278,307.5,280.56Z"/><line class="cls-7" x1="342.61" y1="130.44" x2="361.76" y2="115.34"/><path class="cls-6" d="M158.9,275.63c0,12.13-27.4,11.2-45.21,11.2s-29-4.53-29-16.66,6.14-26,24-26S158.9,263.5,158.9,275.63Z"/><path class="cls-5" d="M156.13,278.51c0,12.13-27.4,11.2-45.21,11.2s-29-4.53-29-16.66,6.14-26,24-26S156.13,266.39,156.13,278.51Z"/><path class="cls-6" d="M212.74,109.54l24.75,49.56a22.33,22.33,0,0,1-20,32.31H197.66a22.33,22.33,0,0,1-18.17-35.31Z"/><path class="cls-6" d="M175.1,128.81,191,160.62a14.33,14.33,0,0,1-12.82,20.74H165.42a14.33,14.33,0,0,1-11.66-22.67Z"/><path class="cls-6" d="M246.31,150.13l12.12,24.28a10.94,10.94,0,0,1-9.79,15.83h-9.72a10.94,10.94,0,0,1-8.9-17.3Z"/><g class="cls-8"><path class="cls-6" d="M228.88,100.64c.67.17,146.67,44.49,146.67,44.49l-10.83,22L234.38,125Z"/></g><ellipse class="cls-5" cx="366.2" cy="146.75" rx="15.15" ry="11.57" transform="translate(100.26 438.14) rotate(-69.45)"/><circle class="cls-9" cx="124.04" cy="83.46" r="5.75" transform="translate(-17.83 36.28) rotate(-15.54)"/><path class="cls-9" d="M61.65,12.37l2.66-.74c2.18,2,6.75.76,10.14-2.71A33.11,33.11,0,0,1,88,1.24a30.62,30.62,0,0,1,13.1-.92c4.76,1,9.09,1.32,9.63.78l.71-.2a3.45,3.45,0,0,1,4.25,2.4l.15.54c-.07.57,2.37,3,5.41,5.5S133.56,22.1,138,24.13c0,0,9.64,4.44,12.36,14.22a24.82,24.82,0,0,1-17.26,30.56c-6.31,1.75-9.67.71-9.67.71-4.63-1.44-10.67-1.53-13.42-.18l-2.77.77A35.79,35.79,0,0,1,63.14,45.31a30.61,30.61,0,0,1-.92-13.07c1-4.76-.74-9.24-3.79-10l-.78-2.81A5.75,5.75,0,0,1,61.65,12.37Z"/><circle class="cls-9" cx="182.66" cy="77.38" r="3.45" transform="translate(-14.05 51.76) rotate(-15.54)"/><path class="cls-9" d="M153.67,71.84a16.57,16.57,0,0,1,20.4,11.52l.71,2.57a12.41,12.41,0,0,0,3.46,8.76l.77,2.75a11.8,11.8,0,0,1-8.2,14.52c-6.1,1.7-8.51-1.06-8.51-1.06a45.77,45.77,0,0,0-13.94-10.07s-4.31-1.82-6.2-8.6A16.57,16.57,0,0,1,153.67,71.84Z"/></g></g></svg>