<?xml version="1.0" encoding="utf-8"?>
<!-- Generator: Adobe Illustrator 20.1.0, SVG Export Plug-In . SVG Version: 6.00 Build 0)  -->
<svg version="1.1" id="圖層_1" xmlns="http://www.w3.org/2000/svg" xmlns:xlink="http://www.w3.org/1999/xlink" x="0px" y="0px"
	 viewBox="0 0 1280 650" style="enable-background:new 0 0 1280 650;" xml:space="preserve">
<style type="text/css">
	.st0{fill:#004864;}
	.st1{fill:#6BFFBA;}
	.st2{fill:none;stroke:#00364B;stroke-width:2.81;stroke-linecap:round;stroke-miterlimit:10;stroke-dasharray:2.81,7.49;}
</style>
<title>Topic Tree</title>
<g id="圖層_1_1_">
	<path class="st0" d="M271.6,339.9c2.8-0.3,5.6-0.1,8.3,0.4c1.6,0.3,3.3-0.7,3.8-2.3c4.7-15.5,21.2-24.3,36.7-19.5
		c9.7,3,17.2,10.7,19.8,20.5c0.1,0.5,0.5,0.8,1,0.8l0,0c12.5,0,23.6,7.9,27.8,19.7c0.4,1.3,1.8,2.1,3.2,1.7
		c10.2-2.6,20.5,3.5,23.2,13.6c2.6,10.2-3.5,20.5-13.6,23.2c-1.6,0.4-3.2,0.6-4.8,0.6H274.4c-16.2,0.1-29.5-13-29.5-29.3
		C244.8,354,256.4,341.2,271.6,339.9L271.6,339.9z"/>
	<path class="st0" d="M115.5,400.2c2.8-0.3,5.6-0.1,8.3,0.4c1.6,0.3,3.2-0.7,3.7-2.2c4.7-15.5,21.1-24.2,36.6-19.4
		c9.7,3,17.1,10.7,19.7,20.4c0.1,0.5,0.5,0.8,1,0.8l0,0c12.5,0,23.6,7.9,27.7,19.6c0.4,1.3,1.8,2,3.1,1.7c10.1-2.6,20.4,3.5,23,13.7
		s-3.5,20.4-13.7,23c-1.5,0.4-3.1,0.6-4.7,0.6H118.3c-16.2,0-29.3-13.2-29.2-29.4C89.1,414.3,100.5,401.7,115.5,400.2L115.5,400.2z"
		/>
	<path class="st0" d="M560.8,257.9c-1.8-0.2-3.6-0.1-5.3,0.2c-1.1,0.2-2.1-0.4-2.4-1.5c-3-10-13.6-15.6-23.6-12.6
		c-6.3,1.9-11.1,6.9-12.8,13.2c-0.1,0.3-0.3,0.5-0.6,0.5l0,0c-8,0-15.2,5.1-17.9,12.7c-0.3,0.8-1.1,1.3-2,1.1
		c-6.5-1.7-13.2,2.3-14.9,8.8s2.3,13.2,8.8,14.9c1,0.3,2,0.4,3,0.4H559c10.5,0,18.9-8.5,18.9-19
		C577.9,266.9,570.5,258.8,560.8,257.9L560.8,257.9z"/>
	<path class="st0" d="M565.4,520.2c-1.8-0.2-3.6-0.1-5.3,0.2c-1.1,0.2-2.1-0.4-2.4-1.5c-3-10-13.6-15.6-23.6-12.6
		c-6.3,1.9-11.1,6.9-12.8,13.2c-0.1,0.3-0.3,0.5-0.6,0.5l0,0c-8,0-15.2,5.1-17.9,12.7c-0.3,0.8-1.1,1.3-2,1.1
		c-6.5-1.7-13.2,2.3-14.9,8.8s2.3,13.2,8.8,14.9c1,0.3,2,0.4,3,0.4h65.9c10.5,0,18.9-8.5,18.9-19
		C582.5,529.3,575.1,521.2,565.4,520.2L565.4,520.2z"/>
	<path class="st0" d="M438.5,463.9c1.8-0.2,3.6-0.1,5.4,0.2c1.1,0.2,2.1-0.4,2.4-1.5c3-10,13.6-15.6,23.6-12.6
		c6.3,1.9,11.1,6.9,12.8,13.2c0.1,0.3,0.3,0.5,0.6,0.5l0,0c8,0,15.2,5.1,17.9,12.7c0.3,0.8,1.1,1.3,2,1.1c6.5-1.7,13.2,2.3,14.9,8.8
		c1.7,6.5-2.3,13.2-8.8,14.9c-1,0.3-2,0.4-3,0.4h-65.9c-10.5,0-18.9-8.5-18.9-19C421.5,472.9,428.8,464.8,438.5,463.9L438.5,463.9z"
		/>
	<path class="st0" d="M375.4,473.3c-1.8-0.2-3.6-0.1-5.4,0.2c-1.1,0.2-2.1-0.4-2.4-1.5c-3-10-13.6-15.6-23.6-12.6
		c-6.3,1.9-11.1,6.9-12.8,13.2c-0.1,0.3-0.3,0.5-0.6,0.5l0,0c-8,0-15.2,5.1-17.9,12.7c-0.3,0.8-1.1,1.3-2,1.1
		c-6.5-1.7-13.2,2.3-14.9,8.8s2.3,13.2,8.8,14.9c1,0.3,2,0.4,3,0.4h65.9c10.5,0,18.9-8.5,18.9-19
		C392.6,482.4,385.2,474.2,375.4,473.3L375.4,473.3z"/>
	<path class="st0" d="M227,481.8c3.5-0.3,7-0.2,10.4,0.5c2.1,0.4,4.1-0.8,4.7-2.8c6.1-19.5,26.8-30.4,46.3-24.3
		c12,3.7,21.3,13.4,24.7,25.5c0.1,0.6,0.7,1,1.3,1l0,0c15.7,0,29.7,9.9,34.9,24.8c0.6,1.7,2.3,2.6,4,2.2c12.8-3.2,25.7,4.5,29,17.3
		c3.2,12.8-4.5,25.7-17.3,29c-1.9,0.5-3.8,0.7-5.7,0.7H230.5c-20.4-0.2-36.8-16.9-36.6-37.4C194.1,499.5,208.3,483.8,227,481.8z"/>
	<path class="st0" d="M665.7,463.4c-3-0.3-6.1-0.1-9.1,0.4c-1.8,0.3-3.6-0.7-4.1-2.5c-5.2-17-23.2-26.7-40.2-21.5
		c-10.6,3.2-18.9,11.7-21.8,22.5c-0.1,0.5-0.6,0.8-1.1,0.9l0,0c-13.7,0-25.9,8.7-30.5,21.6c-0.5,1.4-2,2.3-3.5,1.9
		c-11.1-2.9-22.5,3.8-25.4,15c-2.9,11.1,3.8,22.5,15,25.4c1.7,0.4,3.5,0.7,5.2,0.7h112.4c17.8,0,32.2-14.5,32.2-32.3
		C694.8,478.8,682.2,464.9,665.7,463.4L665.7,463.4z"/>
	<path class="st0" d="M315.2,116.6c4.4-0.4,8.8-0.2,13.2,0.6c2.6,0.5,5.1-1,5.9-3.6c7.5-24.6,33.5-38.5,58.1-31
		c15.4,4.7,27.2,17,31.4,32.5c0.2,0.7,0.8,1.2,1.6,1.2l0,0c19.8,0,37.5,12.5,44,31.2c0.7,2.1,2.9,3.3,5,2.7
		c16.1-4.1,32.5,5.6,36.6,21.7c4.1,16.1-5.6,32.5-21.7,36.6c-2.4,0.6-4.9,0.9-7.4,0.9H319.7c-25.7,0-46.6-20.9-46.6-46.6
		C273.1,138.9,291.3,118.8,315.2,116.6L315.2,116.6z"/>
	<path class="st1" d="M334.2,138.7l1.2-0.1v1.7l-1.2,0.1v0.3c0,3.3-0.3,7.5-2.9,11.4c1.3,1.2,2.5,2.3,3.4,3.2l-1.3,1.4
		c-1-1.1-2-2.2-3.1-3.2c-1.7,2-3.8,3.7-6.1,4.9c-0.3-0.5-0.8-1-1.2-1.4c2.3-1.2,4.3-2.8,6-4.8c-1.6-1.4-3.3-2.7-4.8-3.8
		c0.6-2,1.3-4.8,1.9-7.6l-3,0.2l-0.2-1.8l3.5-0.2c0.3-1.8,0.6-3.6,0.7-5.2l1.9,0.1c-0.2,1.6-0.5,3.3-0.8,5l4.4-0.2v-1.3h1.8
		L334.2,138.7z M332.5,140.5c-1.6,0.1-3.2,0.2-4.7,0.3c-0.5,2.6-1.1,5.2-1.7,7.2c1.2,0.9,2.5,1.9,3.8,2.9c1.8-3.1,2.7-6.7,2.5-10.3
		L332.5,140.5z M346.1,136.7v20.6h-1.8v-1.6h-6.1v2h-1.7v-21H346.1z M344.3,154v-15.6h-6.1V154H344.3z"/>
	<path class="st1" d="M359.3,134.3c-0.7,1.9-1.5,3.7-2.5,5.5v18.6H355v-15.6c-0.8,1.2-1.7,2.4-2.6,3.4c-0.3-0.6-0.6-1.2-1-1.7
		c2.8-3.1,4.9-6.8,6.2-10.8L359.3,134.3z M376.2,138.1h-2v17.7c0,1.4-0.4,1.9-1.3,2.2c-1.8,0.3-3.6,0.4-5.4,0.3
		c-0.1-0.7-0.4-1.3-0.7-1.9c2.2,0.1,4.2,0.1,4.9,0s0.7-0.2,0.7-0.7v-17.6h-13v-1.7h16.8L376.2,138.1z M362,151.3v1.9h-1.7v-11.1h8.3
		v9.2H362z M362,143.7v6h5v-6H362z"/>
	<path class="st1" d="M404.4,150.4v1.7H380v-1.7h2.8l-0.5-14.4c1.7-0.6,3.4-1.3,5-2.1l0.9,1.5c-1.2,0.5-2.8,1.1-4.2,1.5l0.1,3.3h3.8
		v1.5h-3.7l0.1,3.5h3.6v1.5h-3.6l0.1,3.6H400c0-1,0.1-2.2,0.2-3.4h-3.7v-1.5h3.7c0-1.1,0.1-2.3,0.1-3.5h-3.7v-1.5h3.8
		c0-1.2,0-2.5,0-3.6h-4v-1.6h5.7c0,4.8-0.2,11.3-0.4,15.2H404.4z M389.5,153.7c-2.5,1.9-5.2,3.4-8,4.7c-0.2-0.4-0.7-1-1.1-1.4
		c2.7-1.1,5.2-2.6,7.5-4.4L389.5,153.7z M391.7,144.1c-0.2,1.8-0.8,3.6-1.7,5.1c-0.4-0.3-0.8-0.6-1.3-0.8c0.9-1.4,1.4-2.9,1.6-4.6
		L391.7,144.1z M393.7,142.6h-4.4v-8.7h1.6v2.6h4.5v1.5h-4.5v3.1h3.7l0,0h0.7v7.2c0,0.8-0.2,1.1-0.7,1.4c-0.9,0.2-1.9,0.3-2.8,0.2
		c-0.1-0.4-0.3-0.9-0.5-1.3c0.7,0,1.4,0,2.1,0c0.3,0,0.4-0.1,0.4-0.4V142.6z M395.9,152.5c2.7,1.3,5.4,2.8,7.9,4.4l-1.2,1.4
		c-2.5-1.7-5-3.2-7.7-4.5L395.9,152.5z"/>
	<path class="st1" d="M344,187.3c-0.9,1.2-2.1,2.3-3.4,3.1c2.5,0.3,5.1,0.5,7.7,0.6c-0.7,0.9-1.3,1.9-1.8,2.9
		c-3.6-0.1-7.2-0.6-10.7-1.5c-4,1-8,1.5-12.1,1.6c-0.3-1.1-0.7-2.1-1.2-3c1.2,0,2.4-0.1,3.6-0.1c-0.6-0.9-1.4-1.8-2.2-2.4
		c0.9-0.2,1.7-0.5,2.4-0.8l-0.7-0.7l1.8-0.8l-2.5-1.8c0.6-0.4,1.1-0.8,1.6-1.3h-3.3v-4.2h3.5v-6.5h6.1l0.2-0.6h-9.7V169h24.1v2.7
		H337c-0.1,0.2-0.2,0.4-0.3,0.6h7.4v6.5h3.4v4.2h-3.1c0.4,0.5,0.7,1,1,1.5l-2.8,1.2c-0.5-1-1-1.9-1.7-2.8c-0.3,1.9-1.1,2.5-3.1,2.5
		H335c-0.2,0.2-0.4,0.4-0.6,0.6h6.6l0.7-0.2L344,187.3z M330.6,190.5c-0.5-0.3-1.1-0.5-1.6-0.9c-0.9,0.5-1.9,0.9-2.9,1.2
		C327.6,190.8,329.1,190.7,330.6,190.5L330.6,190.5z M328.2,185.7c0.2,0.2,0.5,0.5,0.7,0.6c0.8-0.4,1.5-0.9,2.2-1.5
		c-0.6-0.6-0.9-1.4-0.8-2.2v-1.4h3.1v1.4c0,0.6,0.2,0.7,1.1,0.7h2.9c0.7,0,0.9-0.2,1-1.4c0.7,0.4,1.5,0.6,2.3,0.8
		c-0.2-0.2-0.4-0.5-0.5-0.7l2.7-1.1c0.4,0.5,0.8,1,1.2,1.5V181H337c0.4,0.3,0.8,0.6,1.1,0.9l-2,1.4c-0.7-0.7-1.4-1.3-2.3-1.8
		l0.9-0.6h-8.3v2c0.5-0.5,0.9-1.1,1.3-1.7l2.6,1.3c-0.8,1.4-1.8,2.5-3,3.5L328.2,185.7z M330.4,174v0.6h9.8V174H330.4z M340.2,176.1
		h-9.8v0.6h9.8V176.1z M330.4,178.8h9.8v-0.6h-9.8V178.8z M332,188.1c1.2,0.5,2.3,0.9,3.6,1.2c0.9-0.3,1.8-0.7,2.7-1.2H332z"/>
	<path class="st1" d="M376.1,172.3h-2.9c0.9,0.6,2.4,1.8,2.8,2.1l-1.9,2.1c-0.3-0.6-0.7-1.1-1.1-1.6v2.6h-2.8v-2.5
		c-0.4,0.6-0.9,1.2-1.4,1.8c-0.4-0.5-0.8-1-1.2-1.4v2h-8.1v-3.1h2v1.2h0.6V174h-2.5l-1.7,2.3c-0.2-0.4-0.5-0.9-0.9-1.4v2.7h-2.8
		v-2.4c-0.6,0.8-1.4,1.6-2.2,2.2c-0.3-1-0.6-1.9-1.1-2.8c1-0.6,1.9-1.4,2.7-2.3h-2.2v-2.4h2.8v-1.6h2.8v1.6h2.1v0.9
		c0.7-0.7,1.2-1.6,1.5-2.6l2.3,0.4c-0.1,0.3-0.2,0.5-0.3,0.8h4.9v2H365v0.7h2.9v2H365v1.5h0.6v-1.2h2c0.7-0.6,1.3-1.2,1.7-2H368
		v-2.4h2.3v-1.6h2.7v1.6h3.1L376.1,172.3z M351.6,177.9h24.3v5.2h-3.5V182c-1.7,1.4-3.6,2.5-5.6,3.3c-0.5-0.7-1.1-1.3-1.8-1.9v3.7
		c2.4-0.6,5.1-1.8,6.4-3.3l2.8,1.1c-2,2.2-4.5,3.8-7.3,4.6c-0.5-0.8-1.2-1.6-1.9-2.3v0.5h-11.8v-4.6h-1.6L351.6,177.9z M364.6,190.7
		c-0.1,0.7-0.2,1.4-0.1,2.1c-9.1,0.9-10.3,1.1-11,1.4c-0.1-0.8-0.4-1.5-0.8-2.1c0.4-0.2,0.8-0.4,0.8-1.4V188h3.3v0.5h7.2v2h-7.2v0.9
		L364.6,190.7z M354.9,180.5v0.6h0.8v1.6l0.4-0.3c0.4,0.2,0.8,0.5,1.1,0.8l-1.1,0.8c-0.1-0.1-0.2-0.3-0.4-0.4v1
		c0.8-0.4,1.5-0.9,2.2-1.4c-0.6-0.4-1.2-0.8-1.7-1.1l1.2-0.9c0.5,0.3,1.1,0.6,1.6,1c0.4-0.4,0.8-0.8,1.2-1.3l1.5,0.5
		c-0.4,0.6-0.9,1.1-1.5,1.6c0.6,0.5,1.3,1,1.8,1.5l-1.3,1h1.4v-2l-0.4,0.3c-0.4-0.3-0.8-0.6-1.2-0.8l1-0.8c0.2,0.1,0.4,0.2,0.6,0.3
		v-1.4h2.7v2c1.8-0.5,3.5-1.4,5-2.5l2.4,1.1v-1.2h-12.8c0.1,0.1,0.3,0.2,0.4,0.3l-1,1c-0.4-0.3-0.8-0.6-1.2-0.8l0.5-0.5L354.9,180.5
		z M355.8,185.5h1c-0.3-0.3-0.6-0.6-1-0.8V185.5z M359.1,184.4c0.4,0.2,0.8,0.5,1.1,0.8l-0.3,0.2h0.9c-0.5-0.5-1.1-1-1.6-1.5
		c-0.6,0.5-1.3,1-2,1.5h1.2c-0.1-0.1-0.3-0.2-0.4-0.3L359.1,184.4z M357.4,172.3c0.6,0.4,1.3,0.9,1.8,1.3V172h1.1
		c-0.3-0.3-0.7-0.5-1.1-0.7v1L357.4,172.3z M362.2,172v-0.6h-0.6l-0.5,0.6H362.2z M375.6,188.2c-1.8,2.9-5,4.6-9,5.6
		c-0.5-1-1.1-1.9-1.9-2.6c3.4-0.6,6.4-1.9,7.9-4L375.6,188.2z"/>
	<path class="st1" d="M387.2,179.3c0,4.4-0.6,10.9-4.4,14.6c-0.8-1-1.8-1.9-2.8-2.6c1.4-1.5,2.4-3.4,2.9-5.4
		c-0.9,0.5-1.7,1.1-2.6,1.5l-1.1-3.7c1.1-0.4,2.6-1.2,4.3-1.9c0-0.9,0-1.7,0-2.5v-0.6L381,180c-0.4-1.8-0.9-3.6-1.7-5.2l2.8-1.4
		c0.5,1,1,2.1,1.4,3.2v-5.4h9.3c-0.2-0.7-0.4-1.5-0.6-2.2l4-0.8c0.4,0.9,0.7,2.1,1,3h7.9v3.5h-17.8V179.3z M405.1,189.5v3.6h-18.5
		v-3.6h2.5v-7.6h3.5v7.6h2.2v-9.7h-6.6v-3.6h16.1v3.6h-5.8v2.8h5.4v3.4h-5.4v3.5L405.1,189.5z"/>
	<path class="st1" d="M414.8,178.8c0.9,0.9,3.5,3.9,4,4.6l-1.1,1.5c-0.9-1.4-1.9-2.7-2.9-4v12.5H413V180c-0.9,3-2.3,5.8-4.1,8.3
		c-0.3-0.6-0.6-1.1-1-1.6c1.9-2.3,3.8-6.6,4.9-10.4h-4.2v-1.7h4.5v-5.9h1.7v5.9h4v1.7h-4L414.8,178.8z M432,170.4v22.8h-1.8v-1.6
		h-8.5v1.6h-1.7v-22.8H432z M421.7,172.1v4.7h8.5v-4.7H421.7z M421.7,183.3h8.5v-4.9h-8.5V183.3z M430.2,189.9V185h-8.5v4.9
		L430.2,189.9z"/>
	<path class="st1" d="M449.6,183.1c-0.4,2.3-1.4,4.4-2.8,6.3c2,1.7,4.7,2.1,7.9,2.1c0.8,0,5.8,0,6.9,0c-0.3,0.5-0.5,1-0.6,1.5h-6.3
		c-3.7,0-6.7-0.5-8.9-2.5c-1.5,1.4-3.2,2.4-5.1,3.1c-0.2-0.5-0.5-0.9-0.9-1.3c1.9-0.6,3.6-1.6,5-2.9c-0.7-1-1.2-2.1-1.6-3.2
		c-0.6,0.8-1.2,1.5-1.9,2.1c-0.3-0.4-0.7-0.7-1.1-1.1c-0.3,2.2-1,4.3-2.1,6.3c-0.4-0.4-0.9-0.8-1.4-1.1c2.1-3.5,2.3-8.4,2.3-11.9
		v-6.7h8.9v-5h1.8v1.8h9.3v1.4h-9.3v1.8h9.7l0.3-0.1l1.2,0.4c-0.5,1.5-1.1,2.9-1.9,4.3l-1.5-0.5c0.4-0.9,0.8-1.7,1.1-2.6h-9.1v1.8
		l7-0.5l0.1,1.2l-7.1,0.5v0.8c0,0.8,0.2,1,1.1,1h6.5c0.9,0,1.8,0,2.7-0.2c0,0.5,0.1,1,0.2,1.4c-0.9,0.1-1.8,0.2-2.7,0.1h-6.8
		c-2.1,0-2.6-0.7-2.6-2.3v-0.6l-5.5,0.4l-0.1-1.3l5.6-0.4v-1.9h-7.2v5.2c0,2.2-0.1,4.5-0.5,6.7c2-1.7,3.5-4,4.3-6.5l1.5,0.4
		c-0.2,0.6-0.4,1.2-0.7,1.8h3.2l0.3-0.1L449.6,183.1z M444.4,184.2l-0.3,0.6c0.3,1.3,0.9,2.4,1.7,3.5c0.9-1.2,1.6-2.6,2.1-4.1
		L444.4,184.2z M457.4,189.9c-1.3,0-1.6-0.4-1.6-1.6v-4.1h-3v0.8c0.1,2.1-0.8,4.2-2.5,5.5c-0.3-0.4-0.7-0.8-1.1-1.1
		c1.4-1,2.3-2.7,2.2-4.4v-2.2h5.9v5.5c0,0.5,0,0.6,0.4,0.6h1.1c0.3,0,0.4-0.3,0.5-1.7c0.4,0.2,0.7,0.4,1.1,0.5
		c-0.1,1.8-0.5,2.3-1.4,2.3L457.4,189.9z"/>
	<path class="st1" d="M517.6,276.3H511v-2.1h2.5c-0.2-0.9-0.4-1.7-0.7-2.5l2.3-0.5c0.3,0.8,0.6,1.7,0.8,2.6l-1.7,0.4h3.4
		L517.6,276.3z M516.9,287.7h-3.1v0.7h-2.3V282h5.3L516.9,287.7z M516.9,278.8h-5.2v-2h5.2V278.8z M511.6,279.4h5.2v2h-5.2V279.4z
		 M513.8,284.1v1.5h0.9v-1.5H513.8z M521.2,278.6h-3.8v-2.1h3.8V278.6z M525.6,274.7c-0.1,0.6-0.2,1.2-0.4,1.7
		c0.7,1.4,1.9,2.4,3.4,2.9c-0.6,0.6-1.1,1.3-1.5,2c-1.2-0.5-2.2-1.4-2.9-2.6c-0.9,1.2-2.1,2.1-3.5,2.7h6.9v7.2H525V288h-3.9v0.7
		h-2.5v-7.3h2c-0.3-0.7-0.8-1.2-1.3-1.7c2.2-0.7,3.8-2.7,3.9-5H523c-0.3,0.8-0.8,1.5-1.3,2.2c-0.6-0.5-1.3-1-1.9-1.4
		c0.3-0.4,0.6-0.8,0.8-1.2h-2.9v-2h3v1.8c0.5-1,0.9-2.1,1.1-3.3l2.3,0.5c-0.1,0.4-0.2,0.9-0.3,1.2h2.8l0.3,0l1.6,0.3
		c-0.3,1.3-0.6,2.8-0.9,3.7l-1.9-0.3c0.1-0.4,0.2-0.9,0.3-1.5L525.6,274.7z M521.1,283.7v2h3.9v-2H521.1z"/>
	<path class="st1" d="M547.5,275h-5.2l1.5,0.3c-0.3,0.6-0.7,1.2-1,1.7h3.8v9.3c0,1.1-0.3,1.6-1,1.9c-1,0.3-2.1,0.4-3.2,0.3
		c-0.1-0.7-0.4-1.3-0.7-1.9c0.8,0,1.8,0,2.1,0s0.4-0.1,0.4-0.4v-7.2h-2.4v0.1c0,0.3,0,0.5,0.3,0.5h0.5c0.4,0,0.8,0,1.1-0.1
		c0,0.6,0.1,1.1,0.2,1.7c-0.4,0.1-0.8,0.2-1.2,0.1h-1.2c-1.7,0-2-0.8-2-2.3v-0.1h-0.9c-0.1,1.2-0.9,2.2-2,2.6h6.2v4.7h-5.2v0.7h-2.2
		v-5h-0.2c-0.2-0.6-0.6-1.1-1-1.6v8h-2.6V277h3.7c-0.2-0.5-0.5-1.1-0.7-1.6l1.2-0.4h-5v-2.2h7.2c-0.1-0.4-0.2-0.8-0.3-1.2l2.6-0.6
		c0.2,0.5,0.4,1.3,0.6,1.8h6.7L547.5,275z M534.2,280.3c1.4-0.2,1.9-0.6,2.2-1.2h-2.2V280.3z M540.4,277c0.3-0.6,0.5-1.3,0.7-2h-4
		c0.3,0.6,0.6,1.2,0.8,1.7l-1,0.4L540.4,277z M537.5,283.5v1.1h3.1v-1.1H537.5z"/>
	<path class="st1" d="M455,483.5c0,3.2-0.2,8.1-1.6,11.1c-0.7-0.5-1.4-0.9-2.2-1.2c1.3-2.8,1.4-7,1.4-9.9v-5.9h16.2v2.3H455V483.5z
		 M466.3,486.2c0.4,2.8,1.2,5.3,2.9,6.5c-0.6,0.6-1.1,1.2-1.5,1.9c-1.1-1-1.9-2.3-2.3-3.7c-0.4,1.4-1.2,2.8-2.3,3.8
		c-0.3-0.6-0.8-1.1-1.3-1.5c0,0.5-0.3,0.9-0.7,1.1c-0.7,0.3-1.5,0.4-2.3,0.3c-0.1-0.6-0.3-1.2-0.5-1.8c0.5,0,1,0,1.2,0
		s0.2,0,0.2-0.2v-1c-0.7,0.6-1.4,1.1-2.1,1.7l-0.5-1.4c-0.2,1.1-0.6,2.1-1.2,3c-0.5-0.6-1-1.1-1.6-1.6c0.7-1.3,1-2.8,0.9-4.2v-3.2
		h6.7v6.8c1.4-1.5,1.9-3.6,2-6.3h-1.9V484h2c0-1.1,0-2.4,0-3.8h2.3v0.8l1.6-0.5c0.4,0.8,0.8,1.7,1.1,2.6l-1.9,0.7
		c-0.2-0.8-0.5-1.6-0.9-2.3c0,0.9,0,1.7-0.1,2.5h2.6v2.2L466.3,486.2z M455.5,485.3v-4.8h6v4.8H455.5z M457.2,491
		c0.7-0.4,1.5-0.8,2.5-1.4v-0.5l-1.2,1.1c-0.4-0.5-0.8-0.9-1.2-1.3C457.3,489.6,457.2,490.3,457.2,491L457.2,491z M457.3,487.6v0.5
		l0.6-0.5H457.3z M457.7,482.3h1.6v-0.5h-1.6V482.3z M457.7,484h1.6v-0.5h-1.6V484z M459.7,487.6h-1.4c0.5,0.4,1.1,1,1.4,1.4V487.6z
		"/>
	<path class="st1" d="M478.3,489.4v-5.3h-2v7.1h11.3v2.6h-14.1v-9.7h-2.4v-2.6h2.4v-3.8h2.8v3.8h2v-4.2h2.7v4.2h2v-4h2.8v4h2.3v2.6
		h-2.3v5.3H478.3z M481,484.1v2.9h2v-2.9L481,484.1z"/>
	<path class="st1" d="M274.9,383c1.9,0.7,3.9,1.4,5.7,2.3L278,387c-1.6-0.9-3.4-1.7-5.1-2.4l1.9-1.6h-5.2l1.9,1.5
		c-2,1-4,1.9-6.1,2.5c-0.5-0.7-1.1-1.4-1.7-2c1.8-0.5,3.6-1.1,5.2-2h-5v-2.5h3v-6.9h-2.4v-2.5h2.4v-1.6h2.7v1.6h5.3v-1.6h2.7v1.6
		h2.6v2.5h-2.6v6.9h3v2.5H274.9z M269.5,373.6v0.8h5.3v-0.8H269.5z M269.5,377.4h5.3v-0.8h-5.3V377.4z M269.5,380.6h5.3v-0.9h-5.3
		V380.6z"/>
	<path class="st1" d="M289.1,370.3c-0.5,1.3-1.1,2.7-1.8,3.9V387h-2.5v-8.8c-0.3,0.3-0.5,0.6-0.8,0.9c-0.4-1-0.9-1.9-1.4-2.8
		c1.8-1.9,3.1-4.2,4-6.7L289.1,370.3z M296.6,384.4c1,0,1.3-0.4,1.4-2.5c0.7,0.5,1.5,0.8,2.3,1c-0.3,2.9-1.1,3.9-3.5,3.9h-3.8
		c-2.8,0-3.6-0.8-3.6-3.7v-4.6l-1.2,0.5l-1-2.4l2.2-0.9v-4.1h2.5v3.1l1.4-0.5v-4.6h2.4v3.7l2.2-0.9l0.1-0.1l2,0.6l-0.1,0.4
		c-0.1,2.8-0.4,5.6-0.9,8.4l-2.2-0.6c0.2-1.4,0.4-3.7,0.4-5.8l-1.6,0.6v6.5h-2.4V377l-1.4,0.5v5.7c0,1.1,0.1,1.3,1.3,1.3
		L296.6,384.4z"/>
	<path class="st1" d="M319.6,375.4v1.9H309v-1.9h4v-0.5h-3.2v-1.8h3.2v-0.5h-3.6v-0.5c-0.4,1.1-0.9,2.2-1.2,3l-1.2-0.5v0.9h1.8v2.5
		h-1.8v1l0.7-0.5c0.4,0.4,1.7,1.9,2,2.3l-1.7,1.9c-0.3-0.7-0.6-1.4-1-2v6.2h-2.3v-4.8c-0.3,1-0.8,1.9-1.4,2.8
		c-0.3-1-0.7-1.9-1.1-2.8c0.8-1.1,1.4-2.3,1.6-3.6l0.9,0.3v-0.8h-2.2v-2.5h2.2v-0.9l-1.6,0.4c-0.1-1.3-0.4-2.7-0.7-4l1.8-0.4
		c0.2,0.7,0.3,1.4,0.5,2.2v-3.4h2.3v3.9c0.3-0.9,0.5-1.8,0.6-2.7l1.9,0.6v-0.5h3.6v-1.3h2.6v1.3h3.8v1.9h-3.8v0.5h3.5v1.8h-3.5v0.5
		L319.6,375.4z M318.9,384.7c0,1-0.2,1.6-0.9,2c-0.9,0.3-1.9,0.4-2.8,0.4c-0.1-0.7-0.4-1.4-0.7-2.1c0.6,0,1.4,0,1.6,0
		s0.3-0.1,0.3-0.3v-0.3h-4.6c-0.2,1-0.7,2-1.4,2.8c-0.6-0.6-1.2-1.2-1.9-1.7c0.9-1.3,1.3-2.8,1.2-4.3v-3.2h9.2L318.9,384.7z
		 M316.4,382.6V382h-4.3c0,0.2,0,0.4,0,0.6L316.4,382.6z M312.1,379.8v0.5h4.3v-0.5H312.1z"/>
	<path class="st1" d="M338.5,372v10.4H336v-0.6h-1.1v5.2h-2.6v-5.3h-1.1v0.8h-2.4v-2.9l-1.4,2.1c-0.3-0.4-0.6-0.9-1-1.4v6.7h-2.4
		v-6.4c-0.5,0.5-1.1,1-1.7,1.4c-0.2-1-0.5-1.9-0.9-2.8c1.7-1,3.1-2.5,4.1-4.2h-3.6v-2.4h2.7c-0.3-0.7-0.7-1.4-1.1-2l2.1-1.1
		c0.5,0.7,1,1.5,1.5,2.3l-1.3,0.8h1.1l0.4-0.1l1.3,1c-0.5,1.3-1.1,2.6-1.9,3.8c0.6,0.6,1.7,1.6,2.1,2.1V372h3.6v-2.5h2.6v2.5H338.5z
		 M331.1,374.4v1.4h1.1v-1.4H331.1z M332.2,379.4V378h-1.1v1.4L332.2,379.4z M334.8,374.4v1.4h1.2v-1.4H334.8z M336,379.4V378h-1.1
		v1.4L336,379.4z"/>
	<path class="st1" d="M355,381.6c1.2,1.2,2.9,2.9,3.7,3.9l-1.9,1.5c-0.8-1.1-2.5-2.9-3.7-4.2l1.7-1.2h-1.5c-0.5,2-2,4-5.7,5.4
		c-0.5-0.7-1.1-1.4-1.8-2c2.8-0.9,4-2.2,4.6-3.4h-3.8v-2.4h1.5c-0.6-0.5-1.2-0.9-1.9-1.3c-0.1,3-0.6,6.8-2.6,9.1
		c-0.7-0.6-1.5-1.2-2.3-1.6c1-1.3,1.7-2.8,1.9-4.4c-0.6,0.4-1.2,0.7-1.8,1.1l-0.7-2.5c0.7-0.3,1.7-0.8,2.8-1.3c0-0.5,0-1,0-1.4v-0.4
		l-1.4,0.6c-0.4-1.2-0.9-2.3-1.4-3.4l2.1-0.9c0.2,0.4,0.5,0.9,0.8,1.4v-3h6.6c-0.1-0.5-0.3-1-0.4-1.4l2.7-0.5c0.2,0.6,0.5,1.4,0.6,2
		h5.3v2.4H349l2,0.4c-0.1,0.4-0.2,0.8-0.4,1.2h7.1v2.3h-4v1.6h4.5v2.4L355,381.6z M346.3,376.9v0.7c1-1.2,1.7-2.5,2.1-4h-2.1
		L346.3,376.9z M349.5,377.6c-0.3,0.6-0.7,1.1-1.1,1.6h2.5v-1.6H349.5z"/>
	<path class="st1" d="M375.1,386.3c-0.3-0.8-0.7-1.5-1.2-2.2c-0.3,2.1-1.1,2.7-3,2.7h-2.8c-2.8,0-3.4-0.7-3.4-2.8v-1
		c-0.4,1.3-1.1,2.5-1.9,3.5l-2.4-1.4c0.9-0.9,1.5-2,1.9-3.2l2.3,1V382h2.6l0.9-0.8h-0.3v-0.7h-6v-4.7h6v-0.6h-5.3v-4.5h5.3v-1.1h2.9
		v1.1h5.1v4.5h-5.1v0.6h5.9v4.7h-5.9v0.7h-1c0.8,0.4,1.5,0.9,2.2,1.5l-0.3,0.3c0.7,0.4,1.4,0.7,2.2,0.9c-0.3-0.4-0.6-0.9-0.9-1.3
		l2.3-1c1,1.1,1.8,2.4,2.5,3.7L375.1,386.3z M367.8,378.6v-1h-3.1v1H367.8z M367.8,373.3v-0.8h-2.6v0.8H367.8z M370.6,384.4
		c0.7,0,0.8-0.2,0.9-1.5l-1.4,1.4c-0.8-0.8-1.8-1.4-2.8-2v1.5c0,0.5,0.1,0.6,1,0.6L370.6,384.4z M370.6,372.4v0.8h2.2v-0.8H370.6z
		 M370.6,377.6v1h2.9v-1H370.6z"/>
	<path class="st0" d="M324.8,268.8c-0.1,1.4-0.3,2.8-0.8,4.1c1.3,0.6,2.7,0.8,4.1,0.8c0.7,0,2.7,0,3.5,0c-0.3,0.5-0.5,1-0.6,1.6h-3
		c-1.7,0.1-3.3-0.2-4.8-1c-0.4,0.6-0.9,1-1.5,1.4c-0.2-0.5-0.5-1-0.9-1.4c0.5-0.2,0.9-0.6,1.2-1c-0.5-0.6-0.9-1.4-1.2-2.2l1.2-0.5
		c0.2,0.5,0.4,0.9,0.7,1.4c0.2-0.6,0.4-1.2,0.5-1.9h-2c0.5-0.9,1-2,1.5-3.2H321v-1.4h3.8c-0.4,1.1-1,2.3-1.5,3.3h0.3h0.3
		L324.8,268.8z M331.1,273.1h-6.3v-1.5h0.5v-4h1.5v4h0.8V267c-0.8,0.1-1.6,0.1-2.3,0.2c-0.1-0.5-0.2-0.9-0.4-1.4
		c1.8-0.1,3.7-0.3,5.4-0.8l0.9,1.4c-0.7,0.2-1.3,0.3-2,0.4v1.6h1.7v1.5h-1.7v1.7h1.9L331.1,273.1z"/>
	<path class="st0" d="M336,265.4c-0.3,0.8-0.6,1.5-1,2.3v7.8h-1.5V270c-0.2,0.2-0.3,0.4-0.5,0.6c-0.2-0.6-0.5-1.2-0.9-1.7
		c1.1-1.2,1.9-2.5,2.4-4L336,265.4z M342.2,266.3v6.5h-1.5v-0.4h-0.9v3h-1.7v-3h-0.9v0.5h-1.5v-6.6h2.3v-1.5h1.7v1.5H342.2z
		 M337.2,267.8v0.8h0.9v-0.8H337.2z M338.1,270.9V270h-0.9v0.9L338.1,270.9z M339.8,267.8v0.8h0.9v-0.8H339.8z M340.7,270.9V270
		h-0.9v0.9L340.7,270.9z"/>
	<path class="st0" d="M353.5,267.2h-1.2v6.2c0,0.9-0.2,1.4-0.8,1.6c-0.8,0.3-1.7,0.4-2.6,0.3c-0.1-0.6-0.4-1.2-0.7-1.7
		c0.8,0.1,1.8,0,2,0s0.4-0.1,0.4-0.3v-6.2h-7.2v-1.6h10.2L353.5,267.2z M345.9,272.7v0.8h-1.6v-5.3h4.9v4.4L345.9,272.7z
		 M345.9,269.8v1.4h1.7v-1.4H345.9z"/>
	<path class="st0" d="M359.4,274c0,0.6-0.1,1-0.5,1.2c-0.5,0.2-1,0.3-1.6,0.2c-0.1-0.4-0.3-0.8-0.5-1.2c0.3,0,0.8,0,0.9,0
		s0.2,0,0.2-0.2v-0.8c-0.5,0.3-0.9,0.7-1.3,1l-0.3-0.8c-0.1,0.7-0.4,1.5-0.8,2.1c-0.3-0.4-0.7-0.8-1.1-1.1c0.5-1,0.7-2.1,0.6-3.1
		v-2.4h4.4L359.4,274z M358.8,265.7c0.4,0.8,1,2,1.2,2.6l-1.4,0.6c-0.1-0.2-0.1-0.4-0.2-0.7c-1.2,0-2.4,0.2-3.6,0.5
		c-0.1-0.5-0.3-1-0.5-1.4c0.2-0.1,0.5-0.3,0.6-0.5c0.5-0.6,0.9-1.3,1.3-2l1.6,0.5c-0.4,0.6-0.8,1.2-1.3,1.7l1.3-0.1l-0.4-0.8
		L358.8,265.7z M357.2,272.2c-0.3-0.3-0.5-0.6-0.8-0.9c0,0.5,0,1-0.1,1.5c0.4-0.2,1-0.5,1.5-0.8v-0.3L357.2,272.2z M356.4,270.2v0.6
		l0.6-0.5l0.9,0.8v-0.9H356.4z M362,269.8c-1.5,0-1.9-0.6-1.9-2v-3h1.6v1.2h2.6v1.4h-2.6v0.5c0,0.4,0,0.6,0.4,0.6h1.4
		c0.4,0,0.7,0,1.1-0.1c0,0.4,0.1,1,0.1,1.4c-0.4,0.1-0.8,0.1-1.2,0.1L362,269.8z M363.1,273.9c0.3,0,0.4-0.2,0.5-1.1
		c0.4,0.3,0.9,0.5,1.4,0.6c-0.2,1.5-0.6,1.9-1.7,1.9h-1.4c-1.5,0-1.8-0.5-1.8-1.9v-3.4h1.6v1h2.6v1.4h-2.6v1c0,0.4,0.1,0.5,0.4,0.5
		L363.1,273.9z"/>
	<path class="st0" d="M375.7,266.5c0,0,0,0.5,0,0.7c-0.1,5-0.2,6.8-0.7,7.4c-0.3,0.4-0.7,0.7-1.2,0.7c-0.6,0.1-1.2,0.1-1.8,0
		c-0.1-0.6-0.2-1.1-0.5-1.6c0.7,0.1,1.4,0.1,1.7,0.1c0.2,0,0.4-0.1,0.5-0.2c0.3-0.3,0.5-2,0.5-5.6h-2.1c-0.3,0.6-0.6,1.1-1,1.7
		c-0.3-0.2-0.6-0.5-0.9-0.7v5.3h-2.9v0.8h-1.5v-8.4h1.3c0.1-0.6,0.2-1.2,0.2-1.8l1.8,0.2c-0.2,0.5-0.4,1.1-0.6,1.6h1.6v1.5
		c0.6-1,1-2.1,1.3-3.3l1.6,0.4c-0.1,0.4-0.3,0.9-0.4,1.3L375.7,266.5z M368.7,268.1h-1.5v1.5h1.5V268.1z M368.7,272.9V271h-1.5v1.9
		H368.7z M372.4,272.5c-0.4-0.9-0.9-1.8-1.5-2.6l1.3-0.7c0.5,0.8,1.2,1.8,1.6,2.5L372.4,272.5z"/>
	<path class="st0" d="M327.9,287c1.2,0.4,2.3,0.9,3.5,1.4l-1.6,1c-1-0.6-2-1-3.1-1.4L327.9,287l-3.2,0l1.1,0.9
		c-1.2,0.6-2.4,1.1-3.7,1.5c-0.3-0.4-0.6-0.8-1-1.2c1.1-0.3,2.1-0.7,3.1-1.2h-3v-1.5h1.8v-4.2h-1.5v-1.5h1.5v-1h1.6v1h3.2v-1h1.6v1
		h1.5v1.5h-1.5v4.2h1.8v1.5H327.9z M324.6,281.3v0.5h3.2v-0.5H324.6z M324.6,283.6h3.2v-0.5h-3.2V283.6z M324.6,285.5h3.2v-0.6h-3.2
		V285.5z"/>
	<path class="st0" d="M335.8,279.4c-0.3,0.8-0.7,1.6-1.1,2.4v7.7h-1.5v-5.3c-0.2,0.2-0.3,0.4-0.5,0.6c-0.2-0.6-0.5-1.2-0.9-1.7
		c1.1-1.2,1.9-2.5,2.4-4L335.8,279.4z M340.4,287.9c0.6,0,0.8-0.3,0.9-1.5c0.4,0.3,0.9,0.5,1.4,0.6c-0.2,1.8-0.7,2.3-2.1,2.3h-2.3
		c-1.7,0-2.2-0.5-2.2-2.2v-2.8l-0.7,0.3l-0.6-1.4l1.3-0.5v-2.5h1.5v1.8l0.8-0.3v-2.8h1.4v2.2l1.3-0.5l0.1-0.1l1.2,0.4l-0.1,0.2
		c-0.1,1.7-0.2,3.4-0.5,5.1l-1.3-0.4c0.1-0.9,0.2-2.2,0.3-3.5l-1,0.4v3.9h-1.4v-3.3l-0.8,0.3v3.4c0,0.7,0.1,0.8,0.8,0.8L340.4,287.9
		z"/>
	<path class="st0" d="M346.9,281.9h-3.7v-1.3h1.5c-0.1-0.5-0.3-0.9-0.5-1.4l1.1-0.4c0.3,0.5,0.5,1,0.7,1.5l-0.7,0.3h1.7V281.9z
		 M346.6,288.8h-2v0.4h-1.1v-3.9h3.1L346.6,288.8z M343.6,282.3h3.1v1.2h-3.1V282.3z M343.6,283.8h3.1v1.2h-3.1V283.8z M344.7,286.6
		v1h0.8v-1H344.7z M353.3,286.9c-0.3,0.4-0.6,0.8-1,1.1c0.1,0.1,0.2,0.2,0.4,0.2c0.2,0,0.3-0.3,0.3-0.9c0.3,0.2,0.6,0.4,0.9,0.6
		c-0.2,1.1-0.6,1.5-1.4,1.5c-0.5,0-1-0.2-1.3-0.7c-0.3,0.2-0.7,0.4-1,0.5c-0.2-0.3-0.4-0.5-0.6-0.7c0,0.3-0.2,0.6-0.5,0.7
		c-0.5,0.2-1,0.2-1.6,0.2c-0.1-0.4-0.2-0.8-0.4-1.1c0.3,0,0.8,0,0.9,0s0.2,0,0.2-0.2v-0.4l-1.2,0.1l-0.1-1.2l1.4-0.1v-0.4h-1.3v-1.1
		h1.3v-0.3l-0.9,0.1c-0.1-0.3-0.2-0.6-0.3-0.9c0.9-0.1,1.8-0.2,2.7-0.4l0.6,0.8v-0.6h1.3c0,0.2,0,0.3,0,0.5l0.9-0.6
		c0.4,0.3,0.8,0.6,1.1,1l-0.7,0.5h0.8v1.1h-1.9c0,0.2,0.1,0.4,0.1,0.6c0.2-0.2,0.3-0.3,0.4-0.5L353.3,286.9z M349.5,280.9h-2.3v-1.1
		h1.1c-0.1-0.2-0.2-0.4-0.3-0.6l1.1-0.4c0.2,0.3,0.4,0.6,0.6,1h1.2c0.2-0.3,0.3-0.7,0.5-1l1.4,0.3l-0.5,0.7h1.1v1.1H351v0.2h2v1h-2
		v0.3h2.6v1.1h-6.7v-1.1h2.6v-0.3h-1.9v-1h1.9L349.5,280.9z M349.6,285.1h0.8v-0.6c-0.2,0.1-0.5,0.1-0.7,0.1L349.6,285.1z
		 M349.6,288.2v0.2c0.4-0.2,0.8-0.4,1.1-0.6c-0.1-0.5-0.2-1-0.3-1.5h-0.8v0.2l0.7-0.1v1.1l-0.8,0.1L349.6,288.2z M352.5,285.1
		c-0.3-0.3-0.6-0.6-0.9-0.9c0,0.3,0,0.6,0,0.9H352.5z"/>
	<path class="st0" d="M363.8,287.9h1.2c-0.2,0.4-0.4,0.8-0.5,1.3h-4.7c-1.9,0-3.2-0.2-4-1.2c-0.1,0.6-0.4,1.1-0.8,1.5
		c-0.2-0.4-0.6-0.8-0.9-1.1c0.6-1,0.8-2.1,0.7-3.3h1.3c0,0.4,0,0.8-0.1,1.2c0.1,0.3,0.2,0.5,0.4,0.7v-2.3h-2v-1.2h5v1.2h-1.7v0.7
		h1.5v1.1h-1.5v1.2c0.7,0.1,1.3,0.2,2,0.1h0.1c-0.3-0.3-0.6-0.6-0.9-0.8c0.6-0.2,1.2-0.6,1.7-1.1l1.3,0.4c-0.5,0.6-1.1,1.1-1.8,1.5
		C361,288,362.5,288,363.8,287.9c-0.5-0.5-1-1-1.6-1.4l0.9-0.5h-3.4v-5.2h1.5l0.1-0.4h-1.9v-1.1h5.2v1.1h-1.8l-0.2,0.4h1.8v5.1h-0.9
		c0.5,0.4,1,0.8,1.5,1.3L363.8,287.9z M359.1,283.1h-4.2v-3.8h4.2V283.1z M357.6,280.3h-1.3v0.3h1.3V280.3z M357.6,281.6h-1.3v0.4
		h1.3V281.6z M362.8,281.9h-1.7v0.3h1.7V281.9z M362.8,283.2h-1.7v0.3h1.7V283.2z M362.8,284.6h-1.7v0.3h1.7V284.6z"/>
	<path class="st1" d="M128.9,441.9c-0.6,0.8-1.4,1.6-2.3,2.1c1.7,0.2,3.5,0.4,5.2,0.4c-0.5,0.6-0.9,1.3-1.2,2
		c-2.5-0.1-4.9-0.4-7.3-1c-2.7,0.7-5.5,1-8.2,1.1c-0.2-0.7-0.5-1.4-0.8-2c0.8,0,1.6,0,2.4-0.1c-0.4-0.6-0.9-1.2-1.5-1.7
		c0.6-0.2,1.1-0.4,1.7-0.5l-0.5-0.5l1.3-0.5l-1.7-1.2c0.4-0.3,0.8-0.6,1.1-0.9h-2.3v-2.9h2.4v-4.4h4.2l0.1-0.4h-6.6v-1.9h16.5v1.9
		h-7.1c-0.1,0.1-0.2,0.3-0.2,0.4h5v4.4h2.3v2.9h-2.1c0.2,0.3,0.5,0.7,0.6,1l-1.9,0.8c-0.3-0.7-0.7-1.3-1.1-1.9
		c-0.2,1.3-0.7,1.7-2.1,1.7h-1.9c-0.1,0.1-0.3,0.3-0.4,0.4h4.5l0.5-0.1L128.9,441.9z M119.8,444.1c-0.4-0.2-0.7-0.4-1.1-0.6
		c-0.6,0.3-1.3,0.6-2,0.9C117.8,444.3,118.8,444.2,119.8,444.1L119.8,444.1z M118.2,440.8c0.2,0.2,0.3,0.3,0.5,0.4
		c0.5-0.3,1-0.6,1.5-1c-0.4-0.4-0.6-1-0.5-1.5v-1h2.1v0.9c0,0.4,0.1,0.5,0.8,0.5h2c0.5,0,0.6-0.1,0.7-0.9c0.5,0.3,1,0.4,1.6,0.5
		c-0.1-0.2-0.2-0.3-0.3-0.5l1.8-0.7c0.3,0.3,0.6,0.7,0.8,1v-1h-4.8c0.3,0.2,0.5,0.4,0.8,0.6l-1.4,1c-0.5-0.5-1-0.9-1.6-1.2l0.6-0.4
		H117v1.4c0.3-0.3,0.6-0.7,0.9-1.1l1.8,0.9c-0.5,0.9-1.2,1.7-2,2.4L118.2,440.8z M119.7,432.8v0.4h6.7v-0.4H119.7z M126.4,434.2
		h-6.7v0.4h6.7V434.2z M119.7,436.1h6.7v-0.4h-6.7V436.1z M120.8,442.5c0.8,0.3,1.6,0.6,2.4,0.8c0.6-0.2,1.3-0.5,1.8-0.8H120.8z"/>
	<path class="st1" d="M150.9,431.7h-2c0.6,0.4,1.6,1.2,1.9,1.5l-1.3,1.5c-0.2-0.4-0.5-0.7-0.8-1.1v1.8h-1.9v-1.7
		c-0.3,0.4-0.6,0.8-0.9,1.2c-0.2-0.4-0.5-0.7-0.8-1v1.4h-5.5V433h1.4v0.8h0.4v-1h-1.7l-1.2,1.6c-0.2-0.3-0.4-0.7-0.6-1v1.8H136v-1.6
		c-0.4,0.6-1,1.1-1.5,1.5c-0.2-0.7-0.4-1.3-0.7-1.9c0.7-0.4,1.3-1,1.9-1.6h-1.5V430h1.9v-1.1h1.9v1.1h1.5v0.6c0.4-0.5,0.8-1.1,1-1.8
		l1.6,0.2c0,0.2-0.1,0.4-0.2,0.5h3.4v1.3h-1.8v0.4h2v1.4h-2v1h0.4V433h1.3c0.5-0.4,0.9-0.9,1.2-1.4h-0.9V430h1.6v-1.1h1.9v1.1h2.1
		L150.9,431.7z M134.2,435.5h16.6v3.5h-2.4v-0.7c-1.1,1-2.4,1.7-3.8,2.2c-0.4-0.5-0.8-0.9-1.2-1.3v2.5c1.6-0.4,3.1-1.1,4.3-2.2
		l1.9,0.7c-1.3,1.5-3.1,2.6-5,3.1c-0.4-0.6-0.8-1.1-1.3-1.5v0.3h-8.1V439h-1.1L134.2,435.5z M143,444.2c-0.1,0.5-0.1,1-0.1,1.5
		c-6.2,0.6-7,0.7-7.5,0.9c-0.1-0.5-0.3-1-0.6-1.4c0.3-0.1,0.6-0.3,0.6-1v-1.9h2.2v0.3h4.9v1.4h-4.9v0.6L143,444.2z M136.4,437.3v0.4
		h0.6v1.1l0.3-0.2c0.3,0.1,0.5,0.3,0.8,0.5l-0.7,0.5c-0.1-0.1-0.2-0.2-0.3-0.3v0.7c0.5-0.3,1-0.6,1.5-1c-0.4-0.3-0.8-0.5-1.2-0.7
		l0.8-0.6c0.4,0.2,0.7,0.4,1.1,0.7c0.3-0.3,0.6-0.6,0.8-0.9l1.1,0.3c-0.3,0.4-0.6,0.8-1,1.1c0.4,0.3,0.9,0.7,1.3,1l-0.9,0.7h1v-1.4
		l-0.2,0.2c-0.2-0.2-0.5-0.4-0.8-0.5l0.7-0.6c0.1,0.1,0.3,0.1,0.4,0.2v-1h1.8v1.4c1.2-0.4,2.4-0.9,3.4-1.7l1.7,0.7v-0.8h-8.7
		c0.1,0.1,0.2,0.1,0.3,0.2l-0.7,0.7c-0.3-0.2-0.5-0.4-0.8-0.5l0.4-0.3L136.4,437.3z M137,440.7h0.7c-0.2-0.2-0.4-0.4-0.7-0.5V440.7z
		 M139.3,440c0.3,0.1,0.5,0.3,0.8,0.6l-0.2,0.2h0.6c-0.3-0.4-0.7-0.7-1.1-1c-0.4,0.4-0.9,0.7-1.3,1h0.8c-0.1-0.1-0.2-0.1-0.3-0.2
		L139.3,440z M138.1,431.7c0.4,0.3,0.9,0.6,1.2,0.9v-1.1h0.7c-0.2-0.2-0.5-0.3-0.7-0.5v0.7L138.1,431.7z M141.4,431.5V431H141
		l-0.3,0.4L141.4,431.5z M150.5,442.5c-1.3,2-3.4,3.1-6.2,3.8c-0.3-0.7-0.8-1.3-1.3-1.8c2.3-0.4,4.4-1.3,5.4-2.7L150.5,442.5z"/>
	<path class="st1" d="M158.4,436.4c0,3-0.4,7.4-3,10c-0.6-0.7-1.2-1.3-1.9-1.8c1-1,1.7-2.3,2-3.7c-0.6,0.4-1.2,0.7-1.8,1l-0.7-2.5
		c0.8-0.3,1.8-0.8,2.9-1.3c0-0.6,0-1.2,0-1.7V436l-1.7,0.9c-0.2-1.2-0.6-2.4-1.2-3.6l1.9-1c0.4,0.7,0.7,1.4,0.9,2.2v-3.6h6.3
		c-0.1-0.5-0.3-1-0.4-1.5l2.7-0.5c0.2,0.6,0.5,1.4,0.7,2h5.4v2.4h-12.1V436.4z M170.6,443.4v2.5H158v-2.5h1.7v-5.2h2.3v5.2h1.5v-6.6
		H159v-2.4h11v2.4h-3.9v1.9h3.7v2.4h-3.7v2.4L170.6,443.4z"/>
	<path class="st1" d="M178.3,438.7c0,0.2,0,0.3-0.1,0.5c1,1,2.9,3.2,3.4,3.8l-1.8,2.3c-0.6-1-1.5-2.2-2.3-3.3
		c-0.6,1.8-1.8,3.3-3.3,4.5c-0.5-0.7-1.2-1.4-1.9-2c1.8-1.4,3-3.4,3.3-5.7h-3v-2.5h3.2v-2.5h-0.4c-0.3,0.8-0.7,1.5-1.1,2.2
		c-0.7-0.6-1.4-1.1-2.1-1.5c1-1.6,1.7-3.5,1.9-5.4l2.6,0.5c-0.1,0.6-0.2,1.2-0.4,1.7h4.6v2.5h-2.4v2.5h2.8v2.5L178.3,438.7z
		 M189.1,430.5v15.1h-2.7v-1h-2v1.3h-2.6v-15.4H189.1z M186.3,442.1V433h-2v9.1L186.3,442.1z"/>
	<path class="st1" d="M195,432h2.6v2h-5.5v-2h2c-0.2-0.8-0.5-1.6-0.9-2.3l1.9-0.7c0.4,0.8,0.8,1.6,1.1,2.5L195,432z M197.3,436.6
		h-4.7v-2h4.7V436.6z M192.7,437.2h4.7v2h-4.7V437.2z M197.4,445.5h-2.8v0.7h-1.9v-6.4h4.7V445.5z M194.5,441.8v1.6h1v-1.6H194.5z
		 M209,437.9c-0.5,1.6-1.2,3.1-2.1,4.5c0.1,0.6,0.2,0.9,0.4,0.9s0.3-0.7,0.4-2.1c0.5,0.6,1.1,1.1,1.7,1.5c-0.5,3-1.5,3.6-2.2,3.6
		s-1.4-0.6-1.9-1.8c-0.7,0.7-1.4,1.4-2.2,1.9c-0.4-0.5-0.9-1-1.5-1.4c0.3-0.2,0.6-0.4,0.9-0.7h-1.1v-0.4h-1.1v1.4h-2.1V437h5.4v6.3
		c0.4-0.4,0.7-0.8,1.1-1.3c-0.3-1.8-0.6-3.6-0.7-5.5h-6.2v-2.2h0.8c-0.1-0.5-0.2-1-0.3-1.5l1.4-0.2h-1.8v-2h1.7
		c-0.1-0.4-0.3-0.8-0.5-1.2l2-0.5c0.3,0.6,0.6,1.1,0.8,1.8h1.4v2h-1.6l1.3,0.2c-0.2,0.5-0.3,1.1-0.5,1.5h1.2
		c-0.1-1.7-0.1-3.5-0.2-5.4h2.3c0,0.5,0,1.1,0,1.7l1.7-0.7c0.5,1.1,1,2.1,1.4,3.3l-2,0.9c-0.3-1-0.6-2-1-2.9c0,1.1,0.1,2.1,0.1,3.2
		h3.1v2.2h-3c0.1,0.7,0.1,1.5,0.2,2.1c0.2-0.6,0.4-1.2,0.6-1.8L209,437.9z M200,432.6c0.2,0.6,0.3,1.2,0.4,1.7h0.4
		c0.1-0.5,0.2-1.2,0.3-1.7H200z M200.2,438.8v0.8h1.1v-0.8H200.2z M201.4,442.1v-0.8h-1.1v0.8H201.4z"/>
	<path class="st0" d="M179.3,293.1v0.6h2.4v5.7c0,0.6-0.1,1-0.5,1.2c-0.4,0.2-0.9,0.3-1.4,0.3c-0.1-0.5-0.2-0.9-0.4-1.4h0.6
		c0.1,0,0.1,0,0.1-0.1v-0.8h-0.9v2.3h-1.6v-2.3h-0.8v2.4h-1.5v-5.6c-0.2,0.3-0.5,0.5-0.6,0.8l0.5,0.7l-0.8,1.1
		c-0.1-0.2-0.3-0.5-0.4-0.8v3.8h-1.4v-3.5c-0.2,0.3-0.4,0.5-0.6,0.7c-0.2-0.5-0.4-1-0.8-1.4c0.9-0.9,1.5-2,2-3.2h-1.7v-1.4h1.3
		c-0.2-0.4-0.5-0.8-0.7-1.2l1.3-0.6c0.3,0.4,0.6,0.9,0.9,1.4l-0.8,0.4h0.5l0.3,0l0.8,0.5c-0.3,0.8-0.6,1.6-1,2.4v0.1l0.1,0.2
		c0.2-0.3,0.3-0.6,0.5-0.9l0.8,0.6v-1.2h2.3v-0.6h-2.5v-1.5h2.5v-1.3h1.6v1.3h1c-0.3-0.2-0.5-0.4-0.8-0.5l0.9-0.9
		c0.5,0.3,1,0.6,1.5,1l-0.4,0.4h0.5v1.5L179.3,293.1z M176.9,295v0.5h0.8V295H176.9z M177.7,297.3v-0.5h-0.8v0.5H177.7z M179.3,295
		v0.5h0.9V295H179.3z M180.2,297.3v-0.5h-0.9v0.5H180.2z"/>
	<path class="st0" d="M191.2,299.2c0.4,0,0.4-0.3,0.5-1.7c0.5,0.3,0.9,0.5,1.5,0.6c-0.2,2-0.6,2.5-1.8,2.5h-1.3
		c-1.4,0-1.8-0.5-1.8-1.9V296h-1c-0.2,2.2-0.8,3.9-3.7,4.9c-0.2-0.5-0.6-1-0.9-1.4c2.4-0.7,2.8-1.8,2.9-3.4c-0.6,0-1.1,0.1-1.6,0.2
		c-0.2-0.6-0.4-1.1-0.6-1.6c0.4-0.1,0.8-0.4,1-0.8c0.2-0.2,0.4-0.5,0.6-0.7h-2.1v-1.5h3.1c0.3-0.4,0.5-0.9,0.8-1.4l1.9,0.6
		c-0.2,0.3-0.3,0.6-0.5,0.8h4.6v1.5h-2.4c0.8,0.8,1.5,1.6,2.1,2.5l-1.5,0.9c-0.1-0.3-0.3-0.5-0.5-0.8h-0.5v2.9c0,0.4,0,0.5,0.4,0.5
		L191.2,299.2z M187.1,293.2c-0.4,0.5-0.8,0.9-1.1,1.3l3.4-0.1c-0.2-0.3-0.4-0.5-0.7-0.7l0.9-0.5H187.1z"/>
	<path class="st0" d="M202.5,298.2c-0.4,0.5-0.9,0.9-1.4,1.3c1,0.1,2.1,0.2,3.1,0.2c-0.3,0.4-0.5,0.8-0.7,1.2
		c-1.5-0.1-2.9-0.3-4.4-0.6c-1.6,0.4-3.3,0.6-5,0.6c-0.1-0.4-0.3-0.8-0.5-1.2c0.5,0,1,0,1.5,0c-0.2-0.4-0.6-0.7-0.9-1
		c0.3-0.1,0.7-0.2,1-0.3l-0.3-0.3l0.8-0.3l-1-0.8c0.2-0.1,0.5-0.3,0.6-0.5h-1.4v-1.7h1.4V292h2.5l0.1-0.2h-4v-1.1h9.9v1.1h-4.2
		c0,0.1-0.1,0.2-0.1,0.2h3v2.7h1.5v1.7h-1.3c0.1,0.2,0.3,0.4,0.4,0.6l-1.2,0.5c-0.2-0.4-0.4-0.8-0.7-1.1c-0.1,0.8-0.4,1-1.3,1h-1.2
		l-0.2,0.2h2.7l0.3-0.1L202.5,298.2z M197,299.5c-0.2-0.1-0.4-0.2-0.6-0.4c-0.4,0.2-0.8,0.4-1.2,0.5
		C195.8,299.6,196.4,299.6,197,299.5z M196,297.5c0.1,0.1,0.2,0.2,0.3,0.3c0.3-0.2,0.6-0.4,0.9-0.6c-0.3-0.2-0.4-0.6-0.3-0.9v-0.6
		h1.3v0.6c0,0.3,0.1,0.3,0.5,0.3h1.2c0.3,0,0.4-0.1,0.4-0.6c0.3,0.2,0.6,0.3,0.9,0.3c-0.1-0.1-0.1-0.2-0.2-0.3l1.1-0.5
		c0.2,0.2,0.3,0.4,0.5,0.6v-0.6h-2.9c0.2,0.1,0.3,0.2,0.5,0.4l-0.8,0.6c-0.3-0.3-0.6-0.5-0.9-0.7l0.4-0.2h-3.4v0.8
		c0.2-0.2,0.4-0.4,0.5-0.7l1.1,0.5c-0.3,0.6-0.7,1-1.2,1.4L196,297.5z M196.9,292.7v0.3h4v-0.2L196.9,292.7z M200.9,293.6h-4v0.2h4
		V293.6z M196.9,294.7h4v-0.2h-4V294.7z M197.6,298.5c0.5,0.2,1,0.4,1.5,0.5c0.4-0.1,0.8-0.3,1.1-0.5H197.6z"/>
	<path class="st0" d="M215.2,292H214c0.4,0.3,1,0.7,1.1,0.9l-0.8,0.9c-0.1-0.2-0.3-0.4-0.5-0.7v1.1h-1.1v-1
		c-0.2,0.3-0.4,0.5-0.6,0.7c-0.1-0.2-0.3-0.4-0.5-0.6v0.8h-3.3v-1.3h0.8v0.5h0.3v-0.6h-1l-0.7,1c-0.1-0.1-0.2-0.4-0.4-0.6v1.1h-1.1
		v-1c-0.3,0.3-0.6,0.6-0.9,0.9c-0.1-0.4-0.3-0.8-0.4-1.2c0.4-0.3,0.8-0.6,1.1-1h-0.9v-1h1.1v-0.7h1.1v0.7h0.9v0.4
		c0.3-0.3,0.5-0.7,0.6-1.1l0.9,0.1c0,0.1-0.1,0.2-0.1,0.3h2v0.8h-1.1v0.3h1.2v0.8h-1.2v0.6h0.2v-0.5h0.8c0.3-0.2,0.5-0.5,0.7-0.8
		h-0.6v-1h0.9v-0.7h1.1v0.7h1.3L215.2,292z M205.1,294.3h10v2.1h-1.4V296c-0.7,0.6-1.5,1-2.3,1.4c-0.2-0.3-0.5-0.6-0.8-0.8v1.5
		c1-0.2,1.9-0.7,2.6-1.4l1.2,0.4c-0.8,0.9-1.8,1.5-3,1.9c-0.2-0.3-0.5-0.7-0.8-0.9v0.2h-4.9v-1.9h-0.6L205.1,294.3z M210.5,299.5
		c0,0.3-0.1,0.6-0.1,0.9c-3.7,0.4-4.2,0.4-4.5,0.6c0-0.3-0.2-0.6-0.3-0.9c0.2-0.1,0.3-0.2,0.3-0.6v-1.1h1.4v0.2h3v0.8h-3v0.4
		L210.5,299.5z M206.5,295.4v0.2h0.3v0.7l0.2-0.1c0.2,0.1,0.3,0.2,0.5,0.3l-0.4,0.3c0,0-0.1-0.1-0.2-0.2v0.4
		c0.3-0.2,0.6-0.4,0.9-0.6c-0.2-0.2-0.5-0.3-0.7-0.5l0.5-0.4l0.7,0.4c0.2-0.2,0.3-0.3,0.5-0.5l0.6,0.2c-0.2,0.2-0.4,0.5-0.6,0.7
		c0.3,0.2,0.5,0.4,0.8,0.6l-0.5,0.4h0.6v-0.8l-0.1,0.1c-0.1-0.1-0.3-0.2-0.5-0.3l0.4-0.3l0.2,0.1v-0.6h1.1v0.8c0.7-0.2,1.4-0.6,2-1
		l1,0.4v-0.5h-5.2c0.1,0,0.1,0.1,0.2,0.1l-0.4,0.4c-0.2-0.1-0.3-0.2-0.5-0.3l0.2-0.2L206.5,295.4z M206.8,297.4h0.4
		c-0.1-0.1-0.3-0.2-0.4-0.3V297.4z M208.2,297c0.2,0.1,0.3,0.2,0.5,0.3l-0.1,0.1h0.4c-0.2-0.2-0.4-0.4-0.7-0.6
		c-0.3,0.2-0.5,0.4-0.8,0.6h0.5l-0.2-0.1L208.2,297z M207.5,292c0.2,0.2,0.5,0.4,0.8,0.5v-0.6h0.4c-0.1-0.1-0.3-0.2-0.4-0.3v0.4
		L207.5,292z M209.5,291.9v-0.3h-0.2l-0.2,0.3H209.5z M215,298.5c-0.9,1.2-2.2,2-3.7,2.3c-0.2-0.4-0.5-0.8-0.8-1.1
		c1.2-0.1,2.4-0.7,3.2-1.6L215,298.5z"/>
	<path class="st0" d="M219.2,294.9c0,1.8-0.3,4.5-1.8,6c-0.3-0.4-0.7-0.8-1.2-1.1c0.6-0.6,1-1.4,1.2-2.2c-0.4,0.2-0.7,0.4-1.1,0.6
		l-0.4-1.5c0.5-0.2,1.1-0.5,1.8-0.8c0-0.4,0-0.7,0-1v-0.2l-1,0.6c-0.1-0.7-0.4-1.5-0.7-2.1l1.2-0.6c0.2,0.4,0.4,0.9,0.6,1.3v-2.2
		h3.8c-0.1-0.3-0.2-0.6-0.3-0.9l1.6-0.3c0.1,0.4,0.3,0.9,0.4,1.2h3.2v1.4h-7.3L219.2,294.9z M226.5,299.1v1.5h-7.6v-1.5h1V296h1.5
		v3.1h0.9v-4h-2.7v-1.5h6.6v1.5h-2.4v1.1h2.2v1.4h-2.2v1.5L226.5,299.1z"/>
	<path class="st0" d="M237.4,292c0,0,0,0.5,0,0.7c-0.1,5-0.2,6.8-0.7,7.4c-0.3,0.4-0.7,0.7-1.2,0.7c-0.6,0.1-1.2,0.1-1.8,0
		c-0.1-0.6-0.2-1.1-0.5-1.6c0.7,0.1,1.4,0.1,1.7,0.1c0.2,0,0.4-0.1,0.5-0.2c0.3-0.3,0.5-2,0.5-5.6h-2.1c-0.3,0.6-0.6,1.1-0.9,1.7
		c-0.3-0.2-0.6-0.5-0.9-0.7v5.3H229v0.8h-1.5v-8.4h1.3c0.1-0.6,0.2-1.2,0.2-1.8l1.8,0.2c-0.2,0.5-0.4,1.1-0.6,1.6h1.6v1.5
		c0.6-1,1-2.1,1.3-3.3l1.6,0.4c-0.1,0.4-0.3,0.9-0.4,1.3L237.4,292z M230.4,293.5H229v1.5h1.5L230.4,293.5z M230.4,298.3v-1.9H229
		v1.9H230.4z M234,298c-0.4-0.9-0.9-1.8-1.5-2.6l1.3-0.7c0.5,0.8,1.2,1.8,1.6,2.5L234,298z"/>
	<path class="st0" d="M174.6,308.6c0.4,0.4,1.3,1.6,1.5,1.9l-0.9,1.3c-0.1-0.3-0.4-0.8-0.6-1.2v4.3h-1.5V311c-0.2,0.7-0.6,1.4-1,2
		c-0.2-0.5-0.5-1.1-0.8-1.5c0.7-1,1.3-2.2,1.6-3.4h-1.3v-1.5h1.5v-2.2h1.6v2.2h1.3v1.5h-1.3L174.6,308.6z M181.6,304.9v9.8H180v-0.5
		h-2.2v0.6h-1.6v-9.9H181.6z M177.8,306.4v1.1h2.2v-1.1H177.8z M177.8,309v1.1h2.2V309L177.8,309z M180,312.7v-1.1h-2.2v1.1H180z"/>
	<path class="st0" d="M187.5,310.1c0.2,0.4,0.3,0.8,0.4,1.2l-0.5,0.1h0.2v1.1c0.1,1.1-0.6,2-1.7,2.3c-0.2-0.3-0.4-0.6-0.7-0.9
		c0.4-0.1,0.7-0.3,1-0.6h-1.1v-1.8h1v0.9h0.5v-1.1h0.5c0-0.1,0-0.1,0-0.2c-0.6,0-1.2,0.1-1.8,0.3l0,0c-0.1-0.3-0.2-0.6-0.3-0.8
		c0.2,0,0.4-0.2,0.6-0.3c0.1-0.1,0.2-0.2,0.4-0.3c-0.2,0-0.4,0-0.6,0.1l0,0c-0.1-0.3-0.2-0.6-0.3-0.9c0.1,0,0.3-0.1,0.4-0.2
		c0.2-0.2,0.4-0.4,0.6-0.7h-1.2v6.4h-1.5v-10.2h4.4v3.8h-1.1l0.4,0.2c-0.2,0.3-0.4,0.5-0.7,0.7h0.4c0.1-0.2,0.3-0.3,0.4-0.5l0.7,0.5
		c-0.2,0.3-0.5,0.5-0.8,0.8L187.5,310.1z M184.6,305.8v0.3h1.4v-0.3H184.6z M184.6,307.4h1.4v-0.4h-1.4L184.6,307.4z M186.9,310.6
		l-0.1-0.3l-0.4,0.3L186.9,310.6z M192.6,313.1c0,0.7-0.1,1.2-0.5,1.4c-0.5,0.3-1.1,0.4-1.7,0.3c-0.1-0.4-0.1-0.7-0.3-1.1h-0.6v-0.3
		h-0.5v1.3H188v-3.3h0.1c-0.1-0.2-0.2-0.5-0.2-0.7c0.2-0.1,0.4-0.2,0.6-0.3c0.1,0,0.2-0.2,0.4-0.3c-0.2,0-0.4,0-0.7,0.1
		c-0.1-0.3-0.2-0.6-0.3-0.9c0.1,0,0.3-0.1,0.4-0.2c0.2-0.2,0.4-0.4,0.6-0.7h-0.7v-3.8h4.5L192.6,313.1z M190.9,313.3
		c0.1,0,0.2,0,0.2-0.2v-4.6h-1.8l0.5,0.3c-0.2,0.3-0.4,0.5-0.7,0.7h0.4c0.1-0.2,0.3-0.3,0.4-0.5l0.8,0.5c-0.3,0.3-0.5,0.5-0.8,0.8
		l0.6-0.2c0.2,0.4,0.3,0.8,0.5,1.2l-0.8,0.3c0-0.1-0.1-0.2-0.1-0.3c-0.8,0.1-1.2,0.2-1.5,0.2h0.5v1.1h0.5v-0.9h1v1.6L190.9,313.3z
		 M189.7,310.4l-0.4,0.3h0.4L189.7,310.4z M189.6,305.8v0.3h1.4v-0.3H189.6z M189.6,307.5h1.4v-0.4h-1.4V307.5z"/>
	<path class="st0" d="M197,307.3c-0.3,1.8-0.9,3.5-1.9,5c-0.5-0.3-1-0.6-1.6-0.9c0.9-1.4,1.4-2.9,1.6-4.5L197,307.3z M199.9,304.5
		v8.5c0,0.9-0.2,1.4-0.8,1.6c-0.8,0.3-1.6,0.4-2.5,0.3c-0.1-0.6-0.4-1.2-0.6-1.7c0.7,0,1.5,0,1.8,0s0.3-0.1,0.3-0.3v-8.5
		L199.9,304.5z M202.3,306.9c0.9,1.6,1.6,3.2,2.1,5l-1.8,0.7c-0.4-1.8-1-3.5-1.9-5.1L202.3,306.9z"/>
	<path class="st0" d="M208.3,310.2c0,0.1,0,0.2,0,0.3c0.6,0.6,1.8,1.9,2,2.3l-1.1,1.4c-0.4-0.6-0.9-1.3-1.4-2c-0.4,1.1-1.1,2-2,2.7
		c-0.3-0.5-0.7-0.9-1.2-1.2c1.1-0.8,1.8-2.1,2-3.4h-1.8v-1.5h1.9v-1.5h-0.2c-0.2,0.5-0.4,0.9-0.7,1.3c-0.4-0.3-0.8-0.7-1.3-0.9
		c0.6-1,1-2.1,1.2-3.2l1.6,0.3c-0.1,0.3-0.1,0.7-0.2,1h2.8v1.5h-1.4v1.5h1.7v1.5L208.3,310.2z M214.8,305.3v9.1h-1.6v-0.6H212v0.8
		h-1.6v-9.3L214.8,305.3z M213.2,312.3v-5.5H212v5.5H213.2z"/>
	<path class="st0" d="M217.8,306.2h1.6v1.3h-3.3v-1.3h1.2c-0.1-0.5-0.3-0.9-0.5-1.4l1.1-0.4c0.3,0.5,0.5,1,0.7,1.5L217.8,306.2z
		 M219.2,309h-2.8v-1.2h2.8V309z M216.4,309.3h2.8v1.2h-2.8V309.3z M219.3,314.3h-1.7v0.4h-1.1v-3.9h2.8L219.3,314.3z M217.6,312.1
		v1h0.6v-1H217.6z M226.3,309.8c-0.3,1-0.7,1.9-1.3,2.7c0.1,0.3,0.1,0.5,0.2,0.5s0.2-0.5,0.2-1.3c0.3,0.3,0.6,0.7,1,0.9
		c-0.3,1.8-0.9,2.2-1.3,2.2s-0.9-0.4-1.1-1.1c-0.4,0.4-0.9,0.8-1.4,1.2c-0.3-0.3-0.6-0.6-0.9-0.9c0.2-0.1,0.4-0.3,0.5-0.4h-0.6v-0.2
		H221v0.8h-1.3v-5h3.3v3.8c0.2-0.2,0.4-0.5,0.6-0.8c-0.2-1.1-0.3-2.2-0.4-3.3h-3.8v-1.3h0.5c0-0.3-0.1-0.6-0.2-0.9l0.9-0.1h-1.1
		v-1.2h1c-0.1-0.2-0.2-0.5-0.3-0.7l1.2-0.3c0.2,0.3,0.3,0.7,0.5,1.1h0.8v1.2h-0.9l0.8,0.1c-0.1,0.3-0.2,0.7-0.3,0.9h0.7
		c-0.1-1-0.1-2.1-0.1-3.2h1.4c0,0.3,0,0.7,0,1l1-0.4c0.3,0.6,0.6,1.3,0.8,2l-1.2,0.5c-0.2-0.6-0.4-1.2-0.6-1.8c0,0.7,0,1.3,0.1,1.9
		h1.9v1.4h-1.8c0,0.4,0.1,0.9,0.1,1.3c0.1-0.4,0.3-0.7,0.4-1.1L226.3,309.8z M220.9,306.6c0.1,0.3,0.2,0.7,0.2,1h0.2
		c0.1-0.3,0.1-0.7,0.2-1H220.9z M221,310.3v0.5h0.7v-0.5H221z M221.7,312.3v-0.5H221v0.5H221.7z"/>
	<path class="st0" d="M420.8,325.1c-1.4,0.4-2.9,0.9-4.1,1.2l-0.4-1.5c0.4-0.1,1-0.2,1.5-0.4v-2h-1.2V321h1.2v-1.7h-1.2v-1.5h4v1.5
		h-1.2v1.7h1v1.5h-1v1.6l1.2-0.3L420.8,325.1z M425.6,326.4c0.2,0,0.2-0.2,0.2-1.3c0.4,0.3,0.9,0.5,1.4,0.6
		c-0.1,1.6-0.5,2.1-1.4,2.1H425c-1.2,0-1.4-0.5-1.4-1.8v-2h-0.5c-0.2,1.8-0.6,3.2-3.2,3.9c-0.2-0.5-0.5-0.9-0.9-1.3
		c2.1-0.5,2.3-1.3,2.5-2.6h-0.7v-6.4h5.6v6.4h-1.3v2c0,0.4,0,0.4,0.2,0.4L425.6,326.4z M422.4,319.4h2.5v-0.5h-2.5V319.4z
		 M422.4,321h2.5v-0.5h-2.5V321z M422.4,322.7h2.5v-0.4h-2.5V322.7z"/>
	<path class="st0" d="M431.8,317.8c-0.3,0.7-0.6,1.3-1,1.9v8h-1.7v-5.6c-0.3,0.4-0.6,0.7-1,1c-0.3-0.6-0.5-1.1-0.9-1.7
		c1.3-1.2,2.3-2.6,3-4.3L431.8,317.8z M434.9,322c0.3,2.2,0.8,3.7,1.5,3.8c0.2,0,0.3-0.5,0.4-1.7c0.4,0.4,0.8,0.7,1.3,0.9
		c-0.3,2.3-1,2.8-1.6,2.7c-1.9-0.2-2.8-2.2-3.2-5.5l-1.9,0.3l-0.2-1.6l2-0.3c-0.1-1-0.1-2.1-0.2-3.3h1.6c0,1.1,0,2.1,0.1,3l3.1-0.4
		l0.2,1.5L434.9,322z M436.6,319.9c-0.4-0.7-0.8-1.3-1.4-1.9l1.2-0.8c0.6,0.5,1.1,1.1,1.5,1.8L436.6,319.9z"/>
	<path class="st0" d="M445.1,321.8c0.6,2,2.1,3.6,4.1,4.4c-0.5,0.5-0.9,1-1.2,1.5c-1.8-0.9-3.3-2.4-4-4.4c-0.7,1.9-2.1,3.5-4,4.4
		c-0.3-0.5-0.7-1-1.2-1.4c2-0.8,3.4-2.5,3.9-4.6H439v-1.7h4c0.1-1,0.1-2,0.1-2.9h1.8c0,0.9,0,1.9-0.1,2.9h4.3v1.7L445.1,321.8z"/>
	<path class="st0" d="M460.2,320.6v1.1H450v-1.1H460.2z M455.8,326.4h4.4v1.2H450v-1.2h4.3v-0.3H451v-1h3.3v-0.2h-3.1V322h7.8v2.9
		h-3.1v0.2h3.3v1h-3.3L455.8,326.4z M458.7,320.4h-7.3v-2.8h7.3V320.4z M452.7,323.1h1.6v-0.3h-1.6V323.1z M454.3,324.1v-0.3h-1.6
		v0.3H454.3z M457,318.4h-4.1v0.2h4.1V318.4z M457,319.4h-4.1v0.2h4.1V319.4z M457.3,322.8h-1.5v0.3h1.5V322.8z M457.3,323.8h-1.5
		v0.3h1.5V323.8z"/>
	<path class="st0" d="M471.3,325.5h-3.7v2.3H466v-2.3h-5V324h1.7v-2.5c-0.1,0.2-0.3,0.3-0.4,0.5c-0.4-0.4-0.9-0.7-1.4-1.1
		c1.1-1,1.8-2.3,2.2-3.7l1.7,0.4c-0.1,0.3-0.2,0.5-0.3,0.8h6.1v1.6h-3v1.1h2.8v1.5h-2.8v1.4h3.7L471.3,325.5z M463.8,320
		c-0.2,0.4-0.5,0.8-0.8,1.1h3V320H463.8z M466,324v-1.4h-1.6v1.4H466z"/>
	<path class="st0" d="M475,326.1v1.7h-1.3v-1.7H472v-1.4h1.7v-0.5h-1.3v-4.1h1.3v-0.5h-1.5v-1.4h1.5v-1h1.3v1h1.5v1.4H475v0.5h1.4
		v4.1H475v0.5h1.6v1.4H475z M473.4,321.6h0.4v-0.5h-0.4V321.6z M473.4,323.1h0.4v-0.5h-0.4V323.1z M475.2,321.2h-0.4v0.5h0.4V321.2z
		 M475.2,322.7h-0.4v0.5h0.4V322.7z M477.6,323.4c-0.3-0.8-0.6-1.6-1.1-2.3c0.4-0.7,0.7-1.4,0.9-2.1l1.3,0.3
		c-0.3,0.6-0.6,1.3-0.9,1.8c0.4,0.6,0.7,1.2,1,1.8L477.6,323.4z M482.6,326.2v1.4h-6v-1.3h2.2v-1.4H477v-1.4h5.2v1.4h-1.8v1.4
		L482.6,326.2z M482.4,319h-5.7v-1.4h5.7V319z M480.4,319.3c-0.3,0.6-0.6,1.2-0.9,1.8c0.4,0.6,0.8,1.1,1.1,1.8l-1.2,0.5
		c-0.3-0.8-0.7-1.5-1.2-2.2c0.4-0.7,0.7-1.4,1-2.1L480.4,319.3z M481.2,323.4c-0.4-0.8-0.8-1.6-1.3-2.3c0.4-0.7,0.8-1.4,1.1-2.1
		l1.3,0.3c-0.3,0.7-0.7,1.3-1,1.8c0.4,0.6,0.8,1.1,1.1,1.8L481.2,323.4z"/>
	<path class="st0" d="M487.6,324.6v-3.2h-1.2v4.3h6.8v1.6h-8.5v-5.9h-1.5v-1.6h1.5v-2.3h1.7v2.3h1.2v-2.5h1.6v2.5h1.2v-2.4h1.7v2.4
		h1.4v1.6h-1.4v3.2H487.6z M489.2,321.4v1.7h1.2v-1.7H489.2z"/>
	<path class="st0" d="M498.5,317.8c-0.3,0.7-0.6,1.3-1,1.9v8h-1.7v-5.6c-0.3,0.4-0.6,0.7-1,1c-0.3-0.6-0.5-1.1-0.9-1.7
		c1.3-1.2,2.3-2.6,3-4.3L498.5,317.8z M501.6,322c0.3,2.2,0.8,3.7,1.5,3.8c0.2,0,0.3-0.5,0.4-1.7c0.4,0.4,0.8,0.7,1.3,0.9
		c-0.3,2.3-1,2.8-1.6,2.7c-1.9-0.2-2.8-2.2-3.2-5.5l-1.9,0.3l-0.2-1.6l2-0.3c-0.1-1-0.1-2.1-0.2-3.3h1.6c0,1.1,0,2.1,0.1,3l3.1-0.4
		l0.2,1.5L501.6,322z M503.3,319.9c-0.4-0.7-0.8-1.3-1.3-1.9l1.2-0.8c0.6,0.5,1.1,1.1,1.5,1.8L503.3,319.9z"/>
	<path class="st0" d="M425.2,339.1c-0.4,0.5-0.9,0.9-1.4,1.3c1,0.1,2.1,0.2,3.1,0.2c-0.3,0.4-0.5,0.8-0.7,1.2
		c-1.5-0.1-2.9-0.3-4.4-0.6c-1.6,0.4-3.3,0.6-5,0.6c-0.1-0.4-0.3-0.8-0.5-1.2c0.5,0,1,0,1.5,0c-0.2-0.4-0.6-0.7-0.9-1
		c0.3-0.1,0.7-0.2,1-0.3l-0.3-0.3l0.8-0.3l-1-0.8c0.2-0.1,0.5-0.3,0.6-0.5h-1.4v-1.7h1.5V333h2.5l0.1-0.2h-4v-1.1h9.9v1.1h-4.2
		c0,0.1-0.1,0.2-0.1,0.2h3v2.7h1.4v1.7h-1.3c0.1,0.2,0.3,0.4,0.4,0.6l-1.2,0.5c-0.2-0.4-0.4-0.8-0.7-1.1c-0.1,0.8-0.5,1-1.3,1h-1.2
		l-0.2,0.2h2.8l0.3-0.1L425.2,339.1z M419.7,340.4c-0.2-0.1-0.4-0.2-0.6-0.4c-0.4,0.2-0.8,0.4-1.2,0.5
		C418.5,340.5,419.1,340.5,419.7,340.4L419.7,340.4z M418.7,338.4c0.1,0.1,0.2,0.2,0.3,0.3c0.3-0.2,0.6-0.4,0.9-0.6
		c-0.3-0.2-0.4-0.6-0.3-0.9v-0.6h1.3v0.6c0,0.3,0.1,0.3,0.5,0.3h1.2c0.3,0,0.4-0.1,0.4-0.6c0.3,0.2,0.6,0.3,1,0.3
		c-0.1-0.1-0.1-0.2-0.2-0.3l1.1-0.5c0.2,0.2,0.3,0.4,0.5,0.6v-0.6h-2.9c0.2,0.1,0.3,0.2,0.5,0.4l-0.8,0.6c-0.3-0.3-0.6-0.5-0.9-0.7
		l0.4-0.2H418v0.8c0.2-0.2,0.4-0.4,0.5-0.7l1.1,0.5c-0.3,0.6-0.7,1-1.2,1.4L418.7,338.4z M419.6,333.6v0.2h4v-0.2H419.6z
		 M423.6,334.5h-4v0.2h4V334.5z M419.6,335.6h4v-0.2h-4V335.6z M420.3,339.4c0.5,0.2,1,0.4,1.5,0.5c0.4-0.1,0.8-0.3,1.1-0.5H420.3z"
		/>
	<path class="st0" d="M437.9,332.9h-1.2c0.4,0.3,1,0.7,1.1,0.9l-0.8,0.9c-0.1-0.2-0.3-0.4-0.5-0.7v1.1h-1.1v-1
		c-0.2,0.3-0.4,0.5-0.6,0.7c-0.1-0.2-0.3-0.4-0.5-0.6v0.8h-3.3v-1.3h0.8v0.5h0.3v-0.6h-1l-0.7,1c-0.1-0.1-0.2-0.4-0.4-0.6v1.1h-1.1
		v-1c-0.3,0.3-0.6,0.6-0.9,0.9c-0.1-0.4-0.3-0.8-0.5-1.2c0.4-0.3,0.8-0.6,1.1-1h-0.9v-1h1.1v-0.7h1.1v0.7h0.9v0.4
		c0.3-0.3,0.5-0.7,0.6-1.1l0.9,0.1c0,0.1-0.1,0.2-0.1,0.3h2v0.8h-1.1v0.3h1.2v0.8h-1.2v0.6h0.2v-0.5h0.8c0.3-0.2,0.5-0.5,0.7-0.8
		h-0.6v-1h0.9v-0.7h1.1v0.7h1.3L437.9,332.9z M427.8,335.2h10v2.1h-1.4v-0.4c-0.7,0.6-1.5,1-2.3,1.4c-0.2-0.3-0.5-0.6-0.8-0.8v1.5
		c1-0.2,1.9-0.7,2.6-1.4l1.2,0.4c-0.8,0.9-1.8,1.5-3,1.9c-0.2-0.3-0.5-0.7-0.8-0.9v0.2h-4.9v-1.9h-0.6L427.8,335.2z M433.2,340.5
		c0,0.3-0.1,0.6-0.1,0.9c-3.7,0.4-4.2,0.4-4.5,0.6c0-0.3-0.2-0.6-0.3-0.9c0.2-0.1,0.3-0.2,0.3-0.6v-1.1h1.4v0.2h3v0.8h-3v0.4
		L433.2,340.5z M429.2,336.3v0.2h0.3v0.7l0.2-0.1c0.2,0.1,0.3,0.2,0.5,0.3l-0.5,0.3c0,0-0.1-0.1-0.2-0.2v0.4
		c0.3-0.2,0.6-0.4,0.9-0.6c-0.2-0.2-0.5-0.3-0.7-0.5l0.5-0.4l0.7,0.4c0.2-0.2,0.3-0.3,0.5-0.5l0.6,0.2c-0.2,0.2-0.4,0.5-0.6,0.7
		c0.3,0.2,0.5,0.4,0.8,0.6l-0.5,0.4h0.6v-0.8l-0.1,0.1c-0.1-0.1-0.3-0.2-0.5-0.3l0.4-0.3l0.2,0.1v-0.6h1.1v0.8c0.7-0.2,1.4-0.6,2-1
		l1,0.4v-0.5h-5.3c0.1,0,0.1,0.1,0.2,0.1l-0.4,0.4c-0.2-0.1-0.3-0.2-0.5-0.3l0.2-0.2L429.2,336.3z M429.5,338.4h0.4
		c-0.1-0.1-0.3-0.2-0.4-0.3V338.4z M430.9,337.9c0.2,0.1,0.3,0.2,0.5,0.3l-0.1,0.1h0.4c-0.2-0.2-0.4-0.4-0.7-0.6
		c-0.3,0.2-0.5,0.4-0.8,0.6h0.5l-0.2-0.1L430.9,337.9z M430.2,332.9c0.2,0.2,0.5,0.4,0.8,0.5v-0.6h0.4c-0.1-0.1-0.3-0.2-0.5-0.3v0.4
		L430.2,332.9z M432.2,332.8v-0.3H432l-0.2,0.3H432.2z M437.7,339.5c-0.9,1.2-2.2,2-3.7,2.3c-0.2-0.4-0.5-0.8-0.8-1.1
		c1.2-0.1,2.4-0.7,3.2-1.6L437.7,339.5z"/>
	<path class="st0" d="M448.5,335.2c-0.4,1.4-1.1,2.7-1.9,3.9c0.2,0.6,0.5,1,0.8,1s0.4-0.6,0.4-1.9c0.4,0.4,0.9,0.7,1.4,0.9
		c-0.2,2.2-0.8,2.6-1.9,2.6c-0.8-0.1-1.5-0.6-1.8-1.3c-0.5,0.5-1.1,0.9-1.6,1.3c-0.3-0.5-0.7-0.9-1.2-1.3c0.8-0.4,1.5-1,2.1-1.7
		c-0.4-1.4-0.6-2.9-0.8-4.4h-2.9v1.1h2.7c0,0,0,0.4,0,0.6c0,2.3-0.1,3.3-0.4,3.6c-0.2,0.3-0.5,0.5-0.8,0.5c-0.4,0.1-0.9,0.1-1.3,0.1
		c0-0.5-0.2-1-0.4-1.5c-0.1,1.1-0.4,2.2-1,3.2c-0.4-0.4-0.9-0.8-1.4-1.1c0.7-1.5,1-3.1,0.9-4.7v-3.3h4.5c0-0.5,0-1,0-1.5h1.7
		c0,0.5,0,1,0,1.5h1.3c-0.3-0.3-0.8-0.6-1.1-0.8l1-1c0.6,0.3,1.2,0.7,1.7,1.2l-0.6,0.6h1.2v1.6h-3.4c0.1,0.9,0.2,1.7,0.4,2.6
		c0.4-0.7,0.6-1.4,0.9-2.1L448.5,335.2z M441.1,336.9c0,0.6-0.1,1.2-0.1,1.8c0.3,0,0.6,0,0.8,0c0.1,0,0.3,0,0.3-0.1
		c0.1-0.6,0.2-1.1,0.2-1.7L441.1,336.9z"/>
	<path class="st0" d="M459.9,331.6v10.2h-1.6v-0.5h-6.6v0.5h-1.5v-10.2H459.9z M458.4,340v-7h-6.6v7H458.4z M455.7,336
		c0,0.1,0,0.3-0.1,0.4c0.9,0.6,1.7,1.4,2.5,2.2l-1.1,1c-0.5-0.7-1.1-1.3-1.8-1.9c-0.5,0.9-1.3,1.6-2.2,2c-0.2-0.5-0.6-0.9-1-1.3
		c1.1-0.4,2-1.3,2.1-2.5h-2v-1.4h2.1c0-0.4,0-0.8,0-1.3h1.6c0,0.5,0,0.9,0,1.3h2.1v1.4L455.7,336z"/>
	<path class="st0" d="M470.1,337.9c-0.3-0.3-0.8-0.7-1.3-1.1c-0.2,0.3-0.4,0.5-0.6,0.8c-0.3-0.2-0.6-0.4-0.9-0.6
		c1.1,1.3,2.6,2.4,4.2,2.9c-0.5,0.4-0.9,0.9-1.2,1.5c-1.3-0.6-2.4-1.5-3.3-2.5v2.9h-1.7V339c-0.9,1-2,1.9-3.3,2.5
		c-0.3-0.5-0.7-1-1.1-1.4c1.8-0.7,3.3-1.9,4.5-3.4v-2.5h-2l1.3,0.3c-0.1,0.4-0.2,0.8-0.4,1.1c0.4,0.3,0.8,0.6,1,0.9l-1.1,1.1
		c-0.2-0.2-0.4-0.4-0.6-0.6c-0.3,0.5-0.7,1-1.2,1.4c-0.4-0.4-0.8-0.7-1.2-1.1c1-0.8,1.7-1.9,1.9-3.1h-1.7v-1.6h3.9v-1.3h1.7v1.3h4.1
		v1.6h-2.5l1.3,0.2c-0.1,0.4-0.2,0.8-0.4,1.1c0.6,0.4,1.3,1,1.7,1.3L470.1,337.9z M467,334.1v2.4l0,0c0.6-0.7,1.1-1.5,1.3-2.5
		L467,334.1z"/>
	<path class="st0" d="M473.8,336.6c-0.6-0.4-1.2-0.8-1.8-1.1l0.9-1.2c0.5,0.3,1.4,0.7,1.8,1L473.8,336.6z M474.9,338.1
		c-0.4,1.2-0.9,2.5-1.3,3.6l-1.5-0.9c0.6-1.2,1.1-2.4,1.5-3.6L474.9,338.1z M474.3,333.6c-0.4-0.3-1.2-0.8-1.8-1.2l0.9-1.2
		c0.5,0.3,1.4,0.7,1.9,1L474.3,333.6z M480.3,338.2v2.1c0,0.7-0.1,1-0.5,1.2c-0.5,0.2-1.1,0.3-1.6,0.2c-0.1-0.4-0.2-0.8-0.3-1.2
		c-0.1,0.2-0.3,0.5-0.4,0.7c-0.4-0.3-0.8-0.5-1.3-0.8c0.4-0.6,0.8-1.3,1-2l1.4,0.4c-0.2,0.5-0.4,1-0.7,1.5h0.7c0.1,0,0.2,0,0.2-0.1
		v-2.1h-1.6V334h1.4c0.1-0.3,0.2-0.5,0.2-0.8h-1.9v1.7c0,2-0.2,5-1.5,6.9c-0.4-0.3-0.8-0.6-1.3-0.8c1.2-1.7,1.4-4.2,1.4-6v-3.1h7.1
		v1.5h-2.7l0.9,0.2c-0.1,0.2-0.3,0.4-0.4,0.6h2v4.1L480.3,338.2z M480.7,335.2h-2.1v0.4h2.1V335.2z M478.6,337.1h2.1v-0.4h-2.1
		V337.1z M481.8,338.4c0.3,0.7,0.8,1.6,1,2.1l-1.5,0.6c-0.3-0.8-0.5-1.5-0.9-2.2L481.8,338.4z"/>
	<path class="st0" d="M416.5,352c-0.1-1.4,0.9-2.5,2.3-2.7c0,0,0.1,0,0.1,0c1.4,0,2.1,1,2.1,2.4c0,0.2,0,0.4-0.1,0.6h-3.1
		c0,0.7,0.6,1.3,1.4,1.3c0,0,0,0,0,0c0.4,0,0.8-0.1,1.1-0.4l0.5,0.8c-0.5,0.4-1.1,0.6-1.8,0.6c-1.3,0-2.5-1-2.5-2.4
		C416.5,352.2,416.5,352.1,416.5,352z M419.8,351.5c0-0.7-0.3-1.1-1-1.1c-0.6,0-1.1,0.5-1.1,1.1H419.8z"/>
	<path class="st0" d="M422,353.7c0-0.5,0.4-0.8,0.9-0.8c0.5,0,0.8,0.4,0.8,0.9c0,0.4-0.4,0.8-0.8,0.8
		C422.4,354.6,422,354.2,422,353.7C422,353.8,422,353.7,422,353.7z"/>
	<path class="st0" d="M424.6,355.4c0-0.4,0.3-0.8,0.7-1l0,0c-0.3-0.2-0.5-0.5-0.5-0.9c0-0.4,0.2-0.7,0.6-1l0,0
		c-0.4-0.3-0.7-0.8-0.7-1.3c0-1,0.9-1.8,1.9-1.8c0,0,0.1,0,0.1,0c0.3,0,0.5,0,0.8,0.1h1.8v1h-0.9c0.2,0.2,0.2,0.5,0.2,0.8
		c0,0.9-0.8,1.7-1.7,1.7c-0.1,0-0.1,0-0.2,0c-0.2,0-0.4,0-0.6-0.1c-0.1,0.1-0.2,0.3-0.2,0.4c0,0.3,0.2,0.4,0.8,0.4h0.9
		c1.2,0,1.9,0.4,1.9,1.3s-1,1.8-2.7,1.8C425.6,356.7,424.6,356.3,424.6,355.4z M428.2,355.1c0-0.4-0.3-0.5-0.8-0.5h-0.6
		c-0.2,0-0.5,0-0.7-0.1c-0.2,0.1-0.3,0.4-0.3,0.6c0,0.4,0.5,0.7,1.2,0.7S428.2,355.5,428.2,355.1L428.2,355.1z M427.6,351.1
		c0-0.6-0.3-0.9-0.8-0.9s-0.8,0.3-0.8,0.9c-0.1,0.4,0.3,0.9,0.7,0.9c0,0,0.1,0,0.1,0C427.3,352.1,427.6,351.7,427.6,351.1
		L427.6,351.1z"/>
	<path class="st0" d="M430.3,353.7c0-0.5,0.4-0.8,0.9-0.8c0.5,0,0.8,0.4,0.8,0.9c0,0.4-0.4,0.8-0.8,0.8
		C430.6,354.6,430.3,354.2,430.3,353.7C430.3,353.8,430.3,353.7,430.3,353.7z"/>
	<path class="st0" d="M418,361.3c0.1,1.8-0.2,3.6-0.8,5.3c-0.3-0.2-0.6-0.4-0.9-0.5c0.5-1.6,0.8-3.2,0.7-4.8v-2.8h7.7v1H418V361.3z
		 M423.5,362.4c0.2,1.5,0.6,2.8,1.4,3.4c-0.2,0.2-0.5,0.5-0.6,0.8c-0.6-0.6-1-1.3-1.2-2.1c-0.2,0.8-0.6,1.6-1.2,2.1
		c-0.1-0.2-0.3-0.4-0.5-0.6c0,0.2-0.1,0.3-0.3,0.4c-0.3,0.1-0.7,0.2-1.1,0.1c0-0.3-0.1-0.5-0.2-0.7h0.7c0.1,0,0.1,0,0.1-0.1V365
		l-1.2,0.9l-0.2-0.6c-0.1,0.5-0.3,1-0.6,1.4c-0.2-0.2-0.4-0.5-0.7-0.7c0.3-0.6,0.5-1.3,0.4-2v-1.7h3.1v3.4c0.8-0.9,1.2-2.1,1.2-3.4
		h-1.1v-0.9h1.1c0-0.6,0-1.2,0-1.9h0.9v0.5l0.7-0.2c0.2,0.4,0.4,0.8,0.6,1.2l-0.8,0.3c-0.1-0.4-0.3-0.8-0.5-1.2c0,0.5,0,0.9,0,1.4
		h1.3v0.9L423.5,362.4z M418.4,362v-2.3h2.8v2.2L418.4,362z M419.1,364c0,0.3,0,0.6,0,0.9c0.4-0.2,0.9-0.5,1.4-0.7v-1.1H419v0.4
		l0.3-0.3c0.3,0.2,0.8,0.6,1,0.8l-0.5,0.5c-0.3-0.3-0.6-0.5-0.9-0.7L419.1,364z M419.2,360.6h1v-0.3h-1V360.6z M419.2,361.5h1v-0.3
		h-1V361.5z"/>
	<path class="st0" d="M429.1,364v-2.7h-1.2v3.7h5.6v1h-6.7v-4.7h-1.2v-1h1.2v-1.9h1.1v1.9h1.2v-2.1h1.1v2.1h1.2v-2h1.1v2h1.2v1h-1.2
		v2.7H429.1z M430.1,361.3v1.7h1.2v-1.7H430.1z"/>
	<path class="st0" d="M442.6,360.2c0,0,0,0.4,0,0.5c-0.1,3.7-0.1,5-0.4,5.4c-0.2,0.2-0.4,0.4-0.7,0.5c-0.4,0-0.7,0-1.1,0
		c0-0.4-0.1-0.7-0.3-1c0.4,0,0.7,0,0.9,0c0.1,0,0.2,0,0.3-0.1c0.2-0.2,0.3-1.3,0.3-4.2h-0.8c-0.1,2.4-0.5,4.3-2,5.5
		c-0.2-0.3-0.4-0.5-0.6-0.7c-1.3,0.1-2.6,0.3-3.6,0.4l-0.1-0.9l1.8-0.1v-0.5h-1.6V364h1.6v-0.4h-1.5v-2.8h1.5v-0.4h-1.8v-0.8h1.8
		v-0.4c-0.5,0-1,0.1-1.5,0.1c0-0.3-0.1-0.5-0.2-0.8c1.3-0.1,2.6-0.2,3.9-0.4l0.5,0.8c-0.5,0.1-1,0.2-1.6,0.2v0.4h1.7v0.5h0.9
		c0-0.6,0-1.2,0-1.9h1c0,0.7,0,1.3,0,1.9L442.6,360.2z M435.5,361.9h0.7v-0.4h-0.7V361.9z M436.2,362.9v-0.4h-0.7v0.4H436.2z
		 M437.2,365.1l1.6-0.1c0.7-1.2,1.1-2.5,1-3.9H439v-0.7h-1.7v0.4h1.6v2.8h-1.6v0.4h1.6v0.8h-1.6L437.2,365.1z M437.9,361.9v-0.4
		h-0.7v0.4H437.9z M437.2,362.5v0.4h0.7v-0.4H437.2z"/>
	<path class="st0" d="M446.9,363.1l-1,0.3v3.2h-1v-2.9c-0.5,0.1-0.9,0.3-1.4,0.4l-0.3-1c0.5-0.1,1-0.2,1.6-0.4V361h-0.6
		c-0.1,0.4-0.2,0.8-0.3,1.1c-0.2-0.2-0.5-0.3-0.8-0.5c0.3-0.9,0.5-1.9,0.5-2.9l0.9,0.1c0,0.4-0.1,0.7-0.1,1.1h0.5v-1.7h1v1.7h0.8v1
		H446v1.5l0.8-0.2L446.9,363.1z M451.8,359.6c0,0,0,0.4,0,0.5c-0.2,4-0.3,5.5-0.7,5.9c-0.2,0.3-0.4,0.4-0.7,0.5c-0.3,0-0.7,0-1,0
		c0-0.3-0.1-0.7-0.3-1c0.3,0,0.5,0,0.8,0c0.1,0,0.3-0.1,0.3-0.2c0.2-0.3,0.4-1.5,0.5-4.7l0,0c-0.4,2.3-1.4,4.6-2.8,5.8
		c-0.3-0.2-0.6-0.5-0.9-0.6c1.4-1,2.3-3.1,2.8-5.2h-0.4c-0.4,1.5-1.1,2.8-2.1,3.9c-0.2-0.2-0.5-0.4-0.8-0.6c1-0.9,1.7-2.1,2-3.3H448
		c-0.2,0.6-0.5,1.1-0.9,1.6c-0.3-0.2-0.5-0.4-0.8-0.6c0.8-1,1.3-2.2,1.5-3.4l1,0.2c-0.1,0.4-0.2,0.8-0.3,1.2L451.8,359.6z"/>
	<path class="st0" d="M460.4,358.5v8.1h-1v-0.3h-5.6v0.3h-1v-8.1H460.4z M459.4,365.3v-5.8h-5.6v5.8H459.4z M457,364.1
		c0,0.2,0,0.4,0,0.6c-0.7,0.1-1.3,0.3-1.9,0.6c0-0.2-0.1-0.4-0.2-0.5c0.2-0.1,0.3-0.3,0.3-0.5v-0.3l-0.7,0.2
		c-0.2-0.2-0.3-0.4-0.5-0.6c0.6-0.1,1.2-0.3,1.7-0.5h-1v-1.3h4.1v1.3h-1.9c-0.3,0.2-0.6,0.4-0.9,0.6v0.8L457,364.1z M459.1,361.5h-5
		v-0.6h2v-0.4h-1.6V360h1.6v-0.4h1v0.4h1.7v0.6h-1.7v0.4h2L459.1,361.5z M455.5,362.6h2.3v-0.4h-2.3V362.6z M459.2,363.6
		c-0.2,0.2-0.5,0.3-0.8,0.5c0.3,0.2,0.5,0.4,0.8,0.6l-0.7,0.4c-0.7-0.6-1.4-1.1-2.1-1.6l0.6-0.4l0.8,0.5c0.2-0.2,0.5-0.3,0.7-0.5
		L459.2,363.6z"/>
	<path class="st0" d="M422.2,376.3c0.9,0.3,1.9,0.8,2.5,1l-1.2,0.5c-0.7-0.4-1.5-0.8-2.3-1.1l0.8-0.5h-2.8l0.9,0.4
		c-0.9,0.5-1.8,0.9-2.8,1.2c-0.3-0.3-0.5-0.6-0.8-0.8c0.9-0.2,1.7-0.4,2.5-0.8h-1.4v-4l-0.4,0.3c-0.2-0.3-0.5-0.6-0.8-0.8
		c1-0.6,1.8-1.4,2.4-2.4l1.2,0.2c-0.1,0.1-0.1,0.2-0.2,0.4h1.7h0.2l0.7,0.5c-0.2,0.4-0.5,0.7-0.7,1h2.1v4.8L422.2,376.3z
		 M419.1,370.9c-0.2,0.2-0.4,0.4-0.6,0.6h1.8c0.2-0.2,0.3-0.4,0.5-0.6H419.1z M422.6,372.4h-3.9v0.5h3.9V372.4z M422.6,373.7h-3.9
		v0.5h3.9V373.7z M418.7,375.5h3.9V375h-3.9V375.5z"/>
	<path class="st0" d="M429.4,376.9c0,0.4-0.1,0.7-0.4,0.8c-0.4,0.1-0.8,0.2-1.2,0.1c-0.1-0.3-0.2-0.6-0.3-0.8c0.3,0,0.7,0,0.8,0
		s0.1,0,0.1-0.1V376c-0.5,0.3-0.9,0.6-1.3,0.9l-0.2-0.6c-0.1,0.6-0.3,1.2-0.6,1.7c-0.2-0.3-0.5-0.5-0.8-0.7c0.4-0.8,0.6-1.6,0.5-2.5
		v-2h3.4L429.4,376.9z M428.9,370.2c0.4,0.7,0.8,1.4,1.1,2.1l-0.9,0.4c0-0.2-0.1-0.4-0.2-0.6c-1,0-2,0.2-2.9,0.4
		c0-0.2-0.2-0.7-0.3-1c0.2-0.1,0.4-0.2,0.5-0.4c0.4-0.5,0.8-1,1.1-1.6l1.1,0.3c-0.3,0.5-0.7,1-1.1,1.5l1.3-0.1
		c-0.1-0.3-0.3-0.5-0.4-0.7L428.9,370.2z M427,374.8c0,0.4,0,0.8-0.1,1.1c0.4-0.2,0.9-0.5,1.5-0.7v-0.3l-0.4,0.4
		c-0.3-0.3-0.7-0.6-1-0.9L427,374.8z M427,373.6v0.6l0.5-0.4c0.3,0.2,0.7,0.5,1,0.8v-1L427,373.6z M431.5,373.5
		c-1.1,0-1.4-0.4-1.4-1.4v-2.6h1.1v1.1h2.2v0.9h-2.2v0.6c0,0.3,0,0.5,0.3,0.5h1.3c0.3,0,0.6,0,0.8-0.1c0,0.3,0.1,0.7,0.1,0.9
		c-0.3,0.1-0.6,0.1-0.9,0.1L431.5,373.5z M432.6,376.9c0.3,0,0.4-0.1,0.4-1c0.3,0.2,0.6,0.3,0.9,0.4c-0.1,1.2-0.4,1.5-1.2,1.5h-1.3
		c-1.1,0-1.3-0.3-1.3-1.3v-2.8h1.1v0.9h2.3v1h-2.3v1c0,0.3,0.1,0.4,0.4,0.4L432.6,376.9z"/>
	<path class="st0" d="M442.7,376.9v0.8h-8.2v-0.8h3.6v-0.3h-2.8v-0.7h2.8v-0.3h-2.6v-2.3h6.2v2.3h-2.6v0.3h2.8v0.7h-2.8v0.3H442.7z
		 M442.7,373h-8.1v-0.8h8.1V373z M441.5,372h-5.9v-2.2h5.9V372z M436.5,374.2h1.6v-0.3h-1.6V374.2z M438.1,375.1v-0.3h-1.6v0.2
		L438.1,375.1z M440.5,370.4h-3.7v0.3h3.7V370.4z M440.5,371.2h-3.7v0.3h3.7V371.2z M440.7,373.9h-1.6v0.3h1.6V373.9z M440.7,374.8
		h-1.6v0.2h1.6V374.8z"/>
	<path class="st0" d="M423.1,385v1h1.5v1h-1.5v2.2H422V387h-1.5v-1h1.5v-1.1h-1.1v-0.8l-0.3,0.2c-0.1-0.2-0.2-0.3-0.4-0.5v2.5H419
		v0.5h1.5v1H419v1.5h-1v-1.5h-1.5v-1h1.5v-0.5h-1.2v-3.2h1.2v-0.5h-1.4v-0.9h1.4v-0.9h1v0.9h1.4v0.9H419v0.5h1.2v0.2
		c0.9-0.7,1.7-1.6,2.1-2.7l0.9,0.3c-0.1,0.2-0.1,0.4-0.2,0.5c0.5,0.8,1.2,1.6,2,2.1c-0.3,0.2-0.5,0.5-0.7,0.7l-0.2-0.2v0.8
		L423.1,385z M419.2,384h-1.5v0.4h1.5V384z M419.2,385.1h-1.5v0.4h1.5V385.1z M423.9,384c-0.5-0.5-1-1.1-1.4-1.7
		c-0.4,0.6-0.8,1.2-1.4,1.7H423.9z"/>
	<path class="st0" d="M432.1,385v1h1.5v1h-1.5v2.2H431V387h-1.5v-1h1.5v-1.1h-1.1v-0.8l-0.3,0.2c-0.1-0.2-0.2-0.3-0.4-0.5v2.5H428
		v0.5h1.5v1H428v1.5h-1v-1.5h-1.5v-1h1.5v-0.5h-1.2v-3.2h1.2v-0.5h-1.4v-0.9h1.4v-0.9h1v0.9h1.4v0.9H428v0.5h1.2v0.2
		c0.9-0.7,1.7-1.6,2.1-2.7l0.9,0.3c-0.1,0.2-0.1,0.4-0.2,0.5c0.5,0.8,1.2,1.6,2,2.1c-0.3,0.2-0.5,0.5-0.7,0.7l-0.2-0.2v0.8
		L432.1,385z M428.2,384h-1.5v0.4h1.5V384z M428.2,385.1h-1.5v0.4h1.5V385.1z M432.9,384c-0.5-0.5-1-1.1-1.4-1.7
		c-0.4,0.6-0.8,1.2-1.4,1.7H432.9z"/>
	<path class="st0" d="M436.7,382.2c0.2,0.2,0.3,0.4,0.4,0.7c0.1-0.1,0.3-0.2,0.4-0.4l0.6,0.6c-0.4,0.4-0.7,0.7-1.2,1
		c1,1.5,1,3.9,0.4,4.6c-0.2,0.3-0.6,0.5-1,0.5h-0.6c0-0.3-0.1-0.6-0.2-0.9c0.2,0,0.5,0,0.6,0c0.2,0,0.4-0.1,0.4-0.2
		c0.2-0.3,0.2-0.7,0.2-1c-0.6,0.6-1.3,1-2,1.4c-0.1-0.3-0.3-0.5-0.5-0.8c0.9-0.4,1.7-0.9,2.4-1.6c0-0.1,0-0.3-0.1-0.4
		c-0.5,0.4-1.1,0.8-1.8,1.1c-0.1-0.3-0.3-0.5-0.5-0.7c0.7-0.3,1.4-0.7,2-1.1c0-0.1-0.1-0.2-0.1-0.3c-0.4,0.2-0.8,0.5-1.3,0.6
		c-0.1-0.2-0.3-0.5-0.5-0.7l0.8-0.4c-0.2-0.4-0.4-0.7-0.6-1l0.7-0.4c0.2,0.3,0.4,0.7,0.6,1l0.5-0.3c-0.1-0.3-0.3-0.6-0.5-0.8
		L436.7,382.2z M437.7,381.5c-0.9,0.5-1.8,0.9-2.8,1.1c-0.1-0.3-0.3-0.5-0.5-0.8c1-0.2,1.9-0.5,2.7-1L437.7,381.5z M438.7,382.9
		h-0.8v-1h0.8v-1h1v1h0.5v1h-0.5v0.9h-1V382.9z M438.1,384.1h4.4v5h-1v-0.5h-2.4v0.5h-1L438.1,384.1z M439.1,385v0.9h0.7V385
		L439.1,385z M439.8,387.8v-1h-0.7v1H439.8z M442.8,381.9v1h-0.9v0.9h-1v-0.9h-0.5v-1h0.5v-1h1v1H442.8z M441.5,385h-0.7v0.9h0.7
		V385z M441.5,387.7v-1h-0.7v1H441.5z"/>
	<path class="st0" d="M171.6,325.9c-0.1-1.4,0.9-2.5,2.3-2.7c0,0,0.1,0,0.1,0c1.4,0,2.1,1,2.1,2.4c0,0.2,0,0.4-0.1,0.6h-3.1
		c0,0.7,0.6,1.3,1.4,1.3c0,0,0,0,0,0c0.4,0,0.8-0.1,1.1-0.4l0.4,0.8c-0.5,0.4-1.1,0.6-1.8,0.6c-1.3,0-2.5-1-2.5-2.4
		C171.5,326.1,171.5,326,171.6,325.9z M174.9,325.4c0-0.7-0.3-1.1-1-1.1c-0.6,0-1.1,0.5-1.1,1.1H174.9z"/>
	<path class="st0" d="M177,327.7c0-0.5,0.4-0.8,0.9-0.8c0.5,0,0.8,0.4,0.8,0.9c0,0.4-0.4,0.8-0.8,0.8
		C177.4,328.6,177,328.2,177,327.7C177,327.7,177,327.7,177,327.7z"/>
	<path class="st0" d="M179.7,329.3c0-0.4,0.3-0.8,0.7-1l0,0c-0.3-0.2-0.5-0.5-0.5-0.9c0-0.4,0.2-0.7,0.6-1l0,0
		c-0.4-0.3-0.7-0.8-0.7-1.3c0-1,0.9-1.8,1.9-1.8c0,0,0.1,0,0.1,0c0.3,0,0.5,0,0.8,0.1h1.8v1h-0.9c0.2,0.2,0.2,0.5,0.2,0.8
		c0,0.9-0.8,1.7-1.7,1.7c-0.1,0-0.2,0-0.2,0c-0.2,0-0.4,0-0.6-0.1c-0.1,0.1-0.2,0.3-0.2,0.4c0,0.3,0.2,0.4,0.8,0.4h0.9
		c1.2,0,1.9,0.4,1.9,1.3s-1.1,1.8-2.7,1.8C180.6,330.6,179.7,330.2,179.7,329.3z M183.3,329.1c0-0.4-0.3-0.5-0.8-0.5h-0.6
		c-0.2,0-0.5,0-0.7-0.1c-0.2,0.1-0.3,0.4-0.3,0.6c0,0.4,0.5,0.7,1.2,0.7S183.3,329.5,183.3,329.1z M182.7,325.1
		c0-0.6-0.3-0.9-0.8-0.9s-0.8,0.3-0.8,0.9c-0.1,0.4,0.3,0.9,0.7,0.9c0,0,0.1,0,0.1,0C182.3,326,182.7,325.7,182.7,325.1L182.7,325.1
		z"/>
	<path class="st0" d="M185.3,327.7c0-0.5,0.4-0.8,0.9-0.8c0.5,0,0.8,0.4,0.8,0.9c0,0.4-0.4,0.8-0.8,0.8
		C185.7,328.6,185.3,328.2,185.3,327.7C185.3,327.7,185.3,327.7,185.3,327.7z"/>
	<path class="st0" d="M174,334.5c-0.3,1.4-0.8,2.8-1.5,4c-0.3-0.2-0.7-0.4-1-0.6c0.7-1.1,1.2-2.3,1.4-3.6L174,334.5z M176.3,332.3
		v6.9c0,0.7-0.1,1-0.6,1.1c-0.6,0.2-1.3,0.3-1.9,0.2c-0.1-0.4-0.2-0.8-0.4-1.1c0.6,0,1.2,0,1.4,0s0.3-0.1,0.3-0.2v-6.9L176.3,332.3z
		 M178.3,334.3c0.7,1.2,1.3,2.6,1.7,4l-1.2,0.5c-0.3-1.4-0.9-2.8-1.6-4.1L178.3,334.3z"/>
	<path class="st0" d="M188.7,333.4h-1.1c0.3,0.2,0.9,0.7,1,0.8l-0.5,0.6c-0.2-0.2-0.3-0.4-0.5-0.6v1h-0.8v-1
		c-0.2,0.3-0.4,0.5-0.6,0.8c-0.1-0.2-0.2-0.3-0.4-0.4v0.6h-2.6v-1h0.6v0.5h0.3V334h-1l0.1,0.1l-0.5,0.6c-0.1-0.2-0.3-0.4-0.4-0.6v1
		h-0.8v-1c-0.2,0.3-0.5,0.6-0.9,0.9c-0.1-0.3-0.2-0.5-0.3-0.8c0.4-0.2,0.7-0.6,1-0.9h-0.8v-0.7h1v-0.6h0.8v0.6h0.8v0.3
		c0.2-0.3,0.4-0.6,0.5-0.9l0.7,0.1l-0.1,0.3h1.6v0.6H185v0.3h1v0.6h-1v0.6h0.3v-0.5h0.6v0.1c0.3-0.2,0.5-0.5,0.7-0.8H186v-0.7h0.9
		v-0.6h0.8v0.6h1.1L188.7,333.4z M180.7,335.3h7.9v1.7h-0.9v-0.9h-4.5c0.1,0.1,0.2,0.1,0.3,0.2l-0.3,0.3c-0.1-0.1-0.3-0.2-0.4-0.3
		l0.2-0.2h-1.3v0.3h0.4v0.5l0.1-0.1c0.1,0.1,0.3,0.2,0.4,0.3l-0.3,0.2c-0.1-0.1-0.2-0.2-0.2-0.2v0.8h0.4c-0.1-0.1-0.2-0.2-0.4-0.3
		c0.3-0.2,0.6-0.3,0.8-0.5c-0.2-0.1-0.4-0.3-0.6-0.4l0.4-0.3c0.2,0.1,0.4,0.2,0.6,0.4c0.2-0.2,0.3-0.3,0.5-0.5l0.4,0.1
		c-0.2,0.2-0.3,0.4-0.6,0.6c0.2,0.2,0.5,0.4,0.7,0.6l-0.4,0.3c-0.2-0.2-0.4-0.4-0.7-0.6c-0.3,0.2-0.5,0.4-0.8,0.6h0.7l-0.2-0.2
		l0.3-0.2c0.1,0.1,0.3,0.2,0.4,0.3l-0.1,0.1h0.9v-0.7l-0.1,0.1c-0.1-0.1-0.3-0.2-0.4-0.3l0.3-0.2c0.1,0,0.2,0.1,0.3,0.2v-0.5h0.8
		v0.7c0.6-0.2,1.2-0.5,1.8-0.9l0.8,0.3c-0.6,0.5-1.3,0.9-2,1.2c-0.2-0.2-0.3-0.4-0.6-0.6v1.4h-3.8V337h-0.6L180.7,335.3z M185,339.5
		c0,0.2,0,0.4,0,0.6c-1.2,0.1-2.4,0.2-3.6,0.5c-0.1-0.2-0.2-0.4-0.4-0.6c0.1,0,0.3-0.1,0.3-0.4v-1h0.9v0.2h2.5v0.6h-2.5v0.4
		L185,339.5z M182.4,333.4c0.2,0.1,0.5,0.4,0.8,0.6v-0.5h0.4c-0.1-0.1-0.2-0.2-0.4-0.2v0.2L182.4,333.4z M184.3,333.4v-0.3H184
		c-0.1,0.1-0.1,0.2-0.2,0.3H184.3z M188.6,338.6c-0.7,1-1.8,1.7-3,1.9c-0.1-0.3-0.3-0.5-0.5-0.7c1.1-0.1,2-0.6,2.7-1.5L188.6,338.6z
		 M188.1,337.5c-0.6,0.7-1.5,1.2-2.4,1.5c-0.1-0.2-0.3-0.5-0.6-0.7c0.8-0.2,1.6-0.6,2.2-1.2L188.1,337.5z"/>
	<path class="st0" d="M194.5,332.9c-0.3,0.1-0.7,0.2-1,0.2l0.7,0.3c-0.2,0.3-0.4,0.6-0.6,0.9h0.1l0.5,0.4c-0.4,0.3-0.8,0.6-1.2,0.9
		c0.1,0,0.2,0.1,0.2,0.1l-0.2,0.2h1.3v3.7c0,0.4-0.1,0.6-0.3,0.7c-0.3,0.1-0.6,0.2-0.9,0.2c-0.1-0.2-0.1-0.4-0.2-0.6l-0.1,0.1
		c-0.2-0.1-0.3-0.2-0.5-0.3c-0.3,0.3-0.6,0.5-1,0.6c-0.1-0.2-0.3-0.3-0.4-0.5c0.3-0.1,0.5-0.3,0.8-0.5l-0.5-0.2l0.3-0.5
		c0.2,0,0.4,0.1,0.6,0.2c0.1-0.1,0.2-0.2,0.2-0.3h-1.2v-0.5h1.5h0.1l0.4,0.2c-0.1,0.3-0.3,0.7-0.5,0.9l0.4,0.2l-0.1,0.2h0.4
		c0.1,0,0.1,0,0.1-0.1v-2.9h-1.4l0.4,0.1c-0.2,0.2-0.3,0.4-0.5,0.6h0.6l-0.2-0.2l0.4-0.2c0.3,0.3,0.5,0.6,0.7,0.9L193,338
		c0-0.1-0.1-0.2-0.1-0.2c-0.6,0-1.2,0.1-1.7,0.2c0-0.1-0.1-0.5-0.2-0.6c0.1,0,0.2-0.1,0.3-0.1c0.2-0.2,0.4-0.4,0.5-0.6h-0.9v3.9H190
		v-4.7h2.2c-0.4-0.2-0.7-0.3-1.1-0.4l0.5-0.5c0.3,0.1,0.5,0.2,0.8,0.2c0.2-0.1,0.3-0.2,0.4-0.3h-2.5v-0.6h0.3
		c-0.1-0.2-0.2-0.4-0.3-0.6l0.7-0.2c0.2,0.2,0.3,0.4,0.4,0.7l-0.5,0.2h2.6L193,334c0.2-0.3,0.3-0.6,0.5-0.9
		c-0.3,0.1-0.7,0.1-1.1,0.1c0.2,0.2,0.3,0.5,0.3,0.7l-0.7,0.3c-0.1-0.3-0.2-0.5-0.3-0.8l0.6-0.2c-0.8,0.1-1.6,0.1-2.3,0.2
		c0-0.3-0.1-0.5-0.2-0.7c1.4-0.1,2.9-0.2,4.3-0.5L194.5,332.9z M196.7,339.5c0.2,0,0.3-0.3,0.3-1.7c0.3,0.2,0.6,0.3,0.9,0.4
		c-0.1,1.5-0.3,2.1-1.1,2.1h-0.9c-0.8,0-1.1-0.3-1.1-1.4v-6.6h1v6.6c0,0.5,0,0.5,0.2,0.5L196.7,339.5z"/>
	<path class="st0" d="M203.3,332.6c-0.2,2.8,1.2,5.5,3.6,6.9c-0.3,0.3-0.6,0.6-0.9,0.9c-1.6-1-2.8-2.6-3.3-4.4
		c-0.5,1.8-1.7,3.4-3.3,4.5c-0.3-0.3-0.6-0.6-1-0.9c1.9-1,3.1-2.9,3.4-5l0.6,0.1c-0.1-0.3-0.1-0.7-0.1-1h-2.1v-1.1L203.3,332.6z"/>
	<path class="st1" d="M238.9,523.9v1.9h-10.7v-1.9h4v-0.5H229v-1.8h3.2v-0.5h-3.6v-0.5c-0.4,1.1-0.9,2.2-1.2,3l-1.2-0.5v0.9h1.8v2.5
		h-1.8v1l0.7-0.5c0.4,0.4,1.7,1.9,2,2.3l-1.7,1.9c-0.3-0.7-0.6-1.4-1-2v6.2h-2.3v-4.8c-0.3,1-0.8,1.9-1.4,2.8
		c-0.3-1-0.6-1.9-1.1-2.8c0.8-1.1,1.4-2.3,1.6-3.6l0.9,0.3v-0.8h-2.2V524h2.2v-0.9l-1.6,0.4c-0.1-1.3-0.4-2.7-0.7-4l1.8-0.4
		c0.2,0.7,0.3,1.4,0.5,2.2v-3.4h2.3v3.9c0.3-0.9,0.5-1.8,0.6-2.7l1.9,0.6v-0.5h3.6v-1.3h2.6v1.3h3.8v1.9h-3.8v0.5h3.4v1.8h-3.4v0.5
		L238.9,523.9z M238.2,533.2c0,1-0.2,1.6-0.9,2c-0.9,0.3-1.9,0.4-2.8,0.3c-0.1-0.7-0.4-1.4-0.7-2.1c0.6,0,1.4,0,1.6,0
		s0.3-0.1,0.3-0.3v-0.3h-4.6c-0.2,1-0.7,2-1.4,2.8c-0.6-0.6-1.2-1.2-1.9-1.7c0.9-1.3,1.3-2.8,1.2-4.3v-3.2h9.2L238.2,533.2z
		 M235.7,531.1v-0.6h-4.3c0,0.2,0,0.4,0,0.6H235.7z M231.4,528.3v0.5h4.3v-0.5H231.4z"/>
	<path class="st1" d="M257.8,520.5v10.4h-2.5v-0.6h-1.1v5.3h-2.6v-5.3h-1.1v0.8h-2.4v-2.9l-1.4,2.1c-0.3-0.4-0.6-0.9-1-1.4v6.7h-2.4
		V529c-0.5,0.5-1.1,1-1.7,1.4c-0.2-1-0.5-1.9-0.9-2.8c1.7-1,3.1-2.5,4.1-4.2H241V521h2.7c-0.3-0.7-0.7-1.4-1.1-2l2.1-1.1
		c0.5,0.7,1,1.5,1.5,2.3l-1.3,0.8h1.1l0.4-0.1l1.3,1c-0.5,1.3-1.1,2.6-1.9,3.8c0.6,0.6,1.7,1.6,2.1,2.1v-7.4h3.6v-2.5h2.6v2.5
		L257.8,520.5z M250.3,522.8v1.3h1.1v-1.3H250.3z M251.5,527.8v-1.3h-1.1v1.3H251.5z M254.1,522.8v1.3h1.1v-1.3H254.1z M255.2,527.8
		v-1.3h-1.1v1.3H255.2z"/>
	<path class="st1" d="M274.2,530.1c1.2,1.2,2.9,2.9,3.7,3.9l-1.9,1.5c-0.8-1.1-2.5-2.9-3.7-4.2l1.7-1.2h-1.5c-0.5,2-2,4-5.7,5.4
		c-0.5-0.7-1.1-1.4-1.8-2c2.8-0.9,4-2.2,4.6-3.4H266v-2.4h1.5c-0.6-0.5-1.2-0.9-1.9-1.3c-0.1,3-0.6,6.8-2.6,9.1
		c-0.7-0.6-1.5-1.2-2.3-1.6c1-1.3,1.7-2.8,1.9-4.4c-0.6,0.4-1.2,0.7-1.8,1.1l-0.7-2.5c0.7-0.3,1.7-0.8,2.8-1.3c0-0.5,0-1,0-1.4V525
		l-1.4,0.7c-0.4-1.2-0.9-2.3-1.4-3.4l2.1-0.9c0.2,0.4,0.5,0.9,0.8,1.4v-3h6.6c-0.1-0.5-0.3-1-0.4-1.4l2.7-0.5c0.2,0.6,0.5,1.3,0.6,2
		h5.3v2.4h-9.4l2,0.4c-0.1,0.4-0.2,0.8-0.4,1.2h7.1v2.3h-4v1.6h4.5v2.4L274.2,530.1z M265.6,525.4v0.7c1-1.2,1.7-2.5,2.1-4h-2.1
		V525.4z M268.7,526.1c-0.3,0.6-0.7,1.1-1.1,1.6h2.5v-1.6H268.7z"/>
	<path class="st1" d="M294.4,534.8c-0.3-0.8-0.7-1.5-1.2-2.2c-0.3,2.1-1.1,2.7-3,2.7h-2.8c-2.8,0-3.4-0.7-3.4-2.8v-1
		c-0.4,1.3-1.1,2.5-1.9,3.5l-2.4-1.4c0.9-0.9,1.5-2,1.9-3.2l2.3,1v-0.8h2.6l0.9-0.8H287V529h-6v-4.7h6v-0.6h-5.3v-4.5h5.3V518h2.9
		v1.1h5.1v4.5h-5.1v0.6h5.9v4.7h-5.9v0.7h-1c0.8,0.4,1.5,0.9,2.2,1.5l-0.3,0.3c0.7,0.4,1.4,0.7,2.2,0.9c-0.3-0.4-0.6-0.9-0.9-1.3
		l2.3-1c1,1.1,1.8,2.4,2.5,3.7L294.4,534.8z M287,527v-1h-3.2v1H287z M287,521.7v-0.8h-2.6v0.8H287z M289.9,532.9
		c0.7,0,0.8-0.2,0.9-1.5l-1.4,1.4c-0.8-0.8-1.8-1.4-2.8-2v1.5c0,0.5,0.1,0.6,1,0.6L289.9,532.9z M289.9,520.9v0.8h2.2v-0.8H289.9z
		 M289.9,526v1h2.9v-1H289.9z"/>
	<path class="st1" d="M302.6,527.2c-0.8-0.5-2.4-1.4-3.5-2l1.4-2c1,0.5,2.7,1.3,3.5,1.8L302.6,527.2z M299.8,533.5
		c1.3-1.8,2.5-3.8,3.5-5.8l2,1.8c-1,1.9-2.1,3.9-3.2,5.8L299.8,533.5z M303.3,522.2c-1.1-0.8-2.2-1.4-3.4-2.1l1.5-2
		c1,0.5,2.7,1.3,3.5,1.8L303.3,522.2z M309.5,525.4l-0.4,1.9h6.4c0,0,0,0.7-0.1,1c-0.2,3.4-0.5,5-1.2,5.7c-0.7,0.6-1.6,0.9-2.5,0.9
		c-0.9,0.1-2.3,0-3.7,0c-0.1-0.9-0.5-1.8-1.1-2.5c1.5,0.1,3.2,0.1,3.9,0.1c0.3,0,0.7,0,1-0.2c0.3-0.2,0.5-1.1,0.7-2.5h-6.9
		c0.4-1.2,0.7-2.9,1-4.4h-2.2v-2.5h11.8v2.5L309.5,525.4z M315.3,521.3h-9.6v-2.5h9.6V521.3z"/>
	<path class="st1" d="M333.8,535.5H331v-0.7h-6.2v0.7h-2.7v-5.5c-0.8,0.3-1.7,0.5-2.5,0.7c-0.3-0.9-0.8-1.7-1.4-2.5
		c2.1-0.4,4.2-1.1,6.1-2c-0.8-0.8-1.6-1.5-2.5-2.2l-1.4,0.8c-0.5-0.8-1.1-1.5-1.9-2.2c2.5-0.9,4.6-2.6,6.2-4.8l3,0.7
		c-0.3,0.4-0.6,0.9-1,1.3h4.8l0.4-0.1l1.9,1.1c-1.2,2.5-3,4.6-5.3,6.2h5.3L333.8,535.5z M324,522.5c1,0.7,1.9,1.5,2.8,2.3
		c1.1-0.7,2.1-1.6,2.9-2.6h-5.4L324,522.5z M331.1,532.4v-3.1h-6.2v3.1H331.1z"/>
	<path class="st1" d="M344.6,518.9c-0.5,1.2-1.1,2.4-1.8,3.5v13.1h-2.5V526c-0.4,0.5-0.9,1-1.4,1.5c-0.4-1-0.8-1.9-1.4-2.8
		c2-1.9,3.6-4.1,4.6-6.7L344.6,518.9z M351.6,532.8c0.9,0,1-0.7,1.2-3.8c0.7,0.5,1.5,0.9,2.4,1.1c-0.3,3.6-0.9,5-3.3,5H349
		c-2.5,0-3.2-0.8-3.2-3.7v-13.1h2.6v4.5h6.4v2.6h-6.4v6.1c0,1.2,0.1,1.3,1,1.3H351.6z"/>
	<path class="st1" d="M597.8,503.1c-0.8,0.6-1.6,1.3-2.4,1.8c0.6,1,1.5,1.8,2.5,2.4c-0.7,0.6-1.3,1.3-1.7,2.1
		c-0.9-0.7-1.7-1.5-2.2-2.4v0.5c0,1.1-0.2,1.8-0.9,2.2c-0.9,0.4-1.8,0.5-2.8,0.4c-0.1-0.8-0.4-1.7-0.7-2.4c0.5,0,1,0,1.5,0
		c0.2,0,0.3-0.1,0.3-0.3v-4.2c-0.4,2.4-1.7,4.5-3.6,6c-0.4-0.7-0.9-1.3-1.5-1.9c0.3-0.2,0.6-0.4,0.8-0.7l-1.7,0.6
		c-0.1-0.8-0.3-1.6-0.6-2.4l1.7-0.5c0.3,0.7,0.5,1.5,0.7,2.2c0.6-0.6,1-1.3,1.3-2.1h-1.2v-0.8l-2,0.6c0-0.2-0.1-0.4-0.1-0.7
		c-3.1,0.4-3.8,0.6-4.2,0.9c-0.2-0.8-0.5-1.6-0.8-2.4c0.6-0.2,1.2-0.7,1.5-1.2c0.3-0.4,0.6-0.7,0.9-1.1c-0.6,0-1.2,0.2-1.7,0.4
		c-0.2-0.8-0.5-1.5-0.8-2.3c0.4-0.1,0.7-0.4,1-1c0.8-1.4,1.5-2.9,1.9-4.4l2.4,1c-0.6,1.4-1.3,2.8-2.2,4.1l0.8-0.1
		c0.5-0.8,0.9-1.6,1.3-2.5l2.2,1.4c-0.7,1.3-1.5,2.5-2.4,3.7l1.2-0.4c0.4,1.2,0.7,2.5,0.9,3.7v-1.2h2.2l0.4-0.1l1.5,0.5v-1.4H588
		v-6.9h2.5c0.2-0.7,0.4-1.3,0.5-2l3.1,0.5c-0.3,0.5-0.5,1-0.8,1.5h3.8v6.9H594v0.6c0.1,0.4,0.3,0.7,0.4,1.1c0.5-0.5,1-1,1.4-1.6
		L597.8,503.1z M583,505.2c-0.1,1.6-0.3,3.2-0.8,4.8c-0.6-0.3-1.3-0.5-1.9-0.7c0.4-1.4,0.7-2.9,0.7-4.4L583,505.2z M584.9,504.9
		c0.2,1.3,0.3,2.6,0.4,3.9l-2,0.4c0-1.3-0.1-2.6-0.3-3.9L584.9,504.9z M584.9,501.5c0-0.3-0.1-0.5-0.2-0.8c-0.2,0.3-0.5,0.6-0.7,0.9
		L584.9,501.5z M594.6,496.4h-4.1v0.6h4.1V496.4z M590.5,499.4h4.1v-0.6h-4.1V499.4z"/>
	<path class="st1" d="M617,506.4v2.7h-17v-2.7h6.5v-13.7h2.9v5.1h6.3v2.7h-6.3v5.9L617,506.4z"/>
	<path class="st1" d="M625.8,497.6h-6.7v-2.1h2.5c-0.2-0.9-0.4-1.7-0.7-2.5l2.3-0.5c0.3,0.8,0.6,1.7,0.8,2.6l-1.7,0.4h3.4V497.6z
		 M625,509.1h-3.1v0.7h-2.3v-6.5h5.4V509.1z M625,500.2h-5.2v-2h5.2V500.2z M619.8,500.7h5.2v2h-5.2V500.7z M622,505.4v1.5h0.9v-1.5
		H622z M629.3,499.9h-3.8v-2.1h3.8V499.9z M633.8,496.1c-0.1,0.6-0.2,1.2-0.4,1.7c0.7,1.4,1.9,2.4,3.4,2.9c-0.6,0.6-1.1,1.3-1.5,2
		c-1.2-0.5-2.2-1.4-2.9-2.6c-0.9,1.2-2.1,2.1-3.5,2.7h6.9v7.2h-2.6v-0.6h-3.9v0.6h-2.5v-7.3h2c-0.3-0.7-0.8-1.2-1.3-1.7
		c2.2-0.7,3.7-2.7,3.9-5h-0.2c-0.3,0.8-0.8,1.5-1.3,2.2c-0.6-0.5-1.3-1-1.9-1.4c0.3-0.4,0.6-0.8,0.8-1.2h-2.9v-2h3v1.8
		c0.5-1,0.9-2.1,1.1-3.3l2.3,0.5c-0.1,0.4-0.2,0.9-0.3,1.2h2.8l0.4,0.1l1.6,0.3c-0.3,1.3-0.6,2.8-0.9,3.7l-1.9-0.3
		c0.1-0.4,0.2-0.9,0.3-1.5L633.8,496.1z M629.3,505.1v2h3.9v-2H629.3z"/>
	<path class="st1" d="M655.6,496.4h-5.2l1.5,0.3c-0.3,0.6-0.7,1.2-1,1.7h3.8v9.3c0,1.1-0.3,1.6-1,1.9c-1,0.3-2.1,0.4-3.2,0.3
		c-0.1-0.7-0.4-1.3-0.7-1.9c0.8,0,1.8,0,2.1,0s0.4-0.1,0.4-0.4v-7.2H650v0.1c0,0.3,0,0.5,0.3,0.5h0.5c0.4,0,0.8,0,1.1-0.1
		c0,0.6,0.1,1.1,0.2,1.7c-0.4,0.1-0.8,0.2-1.2,0.1h-1.2c-1.7,0-2-0.8-2-2.3v-0.1h-0.9c-0.1,1.2-0.9,2.2-2,2.6h6.2v4.7h-5.2v0.7h-2.2
		v-5h-0.2c-0.2-0.6-0.6-1.1-1-1.6v8h-2.6v-11.5h3.7c-0.2-0.5-0.5-1.1-0.7-1.6l1.2-0.4h-5v-2.2h7.2c-0.1-0.4-0.2-0.8-0.3-1.2l2.6-0.6
		c0.2,0.5,0.4,1.3,0.6,1.8h6.7L655.6,496.4z M642.2,501.7c1.4-0.2,1.9-0.6,2.2-1.2h-2.2V501.7z M648.5,498.4c0.3-0.6,0.5-1.3,0.7-2
		h-4c0.3,0.6,0.6,1.2,0.8,1.7l-1,0.4L648.5,498.4z M645.6,504.9v1.1h3.1v-1.1L645.6,504.9z"/>
	<path class="st0" d="M564.3,364.2c-0.1,1.4-0.3,2.8-0.8,4.1c1.3,0.6,2.7,0.8,4.1,0.8c0.7,0,2.7,0,3.5,0c-0.3,0.5-0.5,1-0.6,1.6h-3
		c-1.7,0.1-3.3-0.2-4.8-1c-0.4,0.6-0.9,1-1.5,1.4c-0.2-0.5-0.5-1-0.9-1.4c0.5-0.2,0.9-0.6,1.2-1c-0.5-0.6-0.9-1.4-1.2-2.2l1.2-0.5
		c0.2,0.5,0.4,0.9,0.7,1.4c0.2-0.6,0.4-1.2,0.5-1.9h-2c0.5-0.9,1-2,1.5-3.2h-1.7v-1.4h3.8c-0.4,1.1-1,2.3-1.5,3.3h0.3h0.3
		L564.3,364.2z M570.7,368.5h-6.3V367h0.5v-4h1.5v4h0.8v-4.6c-0.8,0.1-1.6,0.1-2.3,0.2c-0.1-0.5-0.2-0.9-0.4-1.4
		c1.8-0.1,3.7-0.3,5.4-0.8l0.9,1.4c-0.7,0.2-1.3,0.3-2,0.4v1.6h1.7v1.5h-1.7v1.7h1.9L570.7,368.5z"/>
	<path class="st0" d="M575.5,360.7c-0.3,0.8-0.6,1.5-1,2.3v7.8H573v-5.4c-0.2,0.2-0.3,0.4-0.5,0.6c-0.2-0.6-0.5-1.2-0.8-1.7
		c1.1-1.2,1.9-2.5,2.4-4L575.5,360.7z M581.7,361.7v6.5h-1.5v-0.4h-0.9v3h-1.7v-3h-0.9v0.5h-1.5v-6.6h2.3v-1.5h1.7v1.5H581.7z
		 M576.8,363.1v0.9h0.9v-0.8L576.8,363.1z M577.6,366.3v-0.9h-0.9v0.9H577.6z M579.3,363.1v0.9h0.9v-0.8L579.3,363.1z M580.2,366.3
		v-0.9h-0.9v0.9H580.2z"/>
	<path class="st0" d="M593.1,362.6h-1.2v6.2c0,0.9-0.2,1.4-0.8,1.6c-0.8,0.3-1.7,0.4-2.6,0.3c-0.1-0.6-0.4-1.2-0.7-1.7
		c0.8,0.1,1.8,0,2,0s0.4-0.1,0.4-0.3v-6.2h-7.2v-1.6h10.2L593.1,362.6z M585.5,368v0.8h-1.6v-5.2h4.8v4.4H585.5z M585.5,365.1v1.4
		h1.7v-1.4H585.5z"/>
	<path class="st0" d="M598.9,369.4c0,0.6-0.1,1-0.5,1.2c-0.5,0.2-1,0.3-1.6,0.2c-0.1-0.4-0.3-0.8-0.5-1.2c0.3,0,0.8,0,0.9,0
		s0.2,0,0.2-0.2v-0.8c-0.5,0.3-0.9,0.7-1.3,1l-0.3-0.8c-0.1,0.7-0.4,1.5-0.8,2.1c-0.3-0.4-0.7-0.8-1.1-1.1c0.5-1,0.7-2.1,0.6-3.1
		v-2.4h4.4L598.9,369.4z M598.4,361c0.4,0.8,1,2,1.2,2.6l-1.4,0.6c-0.1-0.2-0.1-0.4-0.2-0.7c-1.2,0-2.4,0.2-3.6,0.5
		c-0.1-0.5-0.3-1-0.5-1.4c0.2-0.1,0.5-0.3,0.6-0.5c0.5-0.6,0.9-1.3,1.3-2l1.6,0.5c-0.4,0.6-0.8,1.2-1.3,1.7l1.3-0.1l-0.4-0.8
		L598.4,361z M596.8,367.6c-0.3-0.3-0.5-0.6-0.8-0.9c0,0.5,0,1-0.1,1.5c0.4-0.2,1-0.5,1.5-0.8V367L596.8,367.6z M596,365.6v0.6
		l0.6-0.5l0.8,0.8v-0.9H596z M601.6,365.2c-1.5,0-1.9-0.6-1.9-2v-3h1.6v1.2h2.6v1.4h-2.6v0.5c0,0.4,0,0.6,0.4,0.6h1.4
		c0.4,0,0.7,0,1.1-0.1c0,0.4,0.1,1,0.1,1.4c-0.4,0.1-0.8,0.1-1.2,0.1L601.6,365.2z M602.6,369.3c0.3,0,0.4-0.2,0.5-1.1
		c0.4,0.3,0.9,0.5,1.4,0.6c-0.2,1.5-0.6,1.9-1.7,1.9h-1.4c-1.5,0-1.8-0.5-1.8-1.9v-3.4h1.6v1h2.7v1.4h-2.7v1c0,0.4,0.1,0.5,0.4,0.5
		L602.6,369.3z"/>
	<path class="st0" d="M615.3,361.9c0,0,0,0.5,0,0.7c-0.1,5-0.2,6.8-0.7,7.4c-0.3,0.4-0.7,0.7-1.2,0.7c-0.6,0.1-1.2,0.1-1.8,0
		c-0.1-0.6-0.2-1.1-0.5-1.6c0.7,0.1,1.4,0.1,1.7,0.1c0.2,0,0.4-0.1,0.5-0.2c0.3-0.3,0.5-2,0.5-5.6h-2.1c-0.3,0.6-0.6,1.1-1,1.7
		c-0.3-0.2-0.6-0.5-0.9-0.7v5.3h-2.9v0.8h-1.5V362h1.3c0.1-0.6,0.2-1.2,0.2-1.8l1.8,0.2c-0.2,0.5-0.4,1.1-0.6,1.6h1.7v1.5
		c0.6-1,1-2.1,1.3-3.3l1.6,0.4c-0.1,0.4-0.3,0.9-0.4,1.3L615.3,361.9z M608.3,363.4h-1.5v1.5h1.5V363.4z M608.3,368.2v-1.9h-1.5v1.9
		H608.3z M612,367.9c-0.4-0.9-0.9-1.8-1.5-2.6l1.3-0.7c0.5,0.8,1.2,1.8,1.6,2.5L612,367.9z"/>
	<path class="st0" d="M626.4,362.5h-3.1l0.9,0.2c-0.2,0.4-0.4,0.7-0.6,1h2.3v5.6c0,0.7-0.2,1-0.6,1.2c-0.6,0.2-1.3,0.3-1.9,0.2
		c-0.1-0.4-0.2-0.8-0.4-1.2c0.5,0,1.1,0,1.3,0s0.2-0.1,0.2-0.2V365H623v0.1c0,0.2,0,0.3,0.2,0.3h0.3c0.2,0,0.5,0,0.7-0.1
		c0,0.4,0,0.7,0.1,1c-0.2,0.1-0.5,0.1-0.7,0.1h-0.7c-1,0-1.2-0.5-1.2-1.4l0,0h-0.5c-0.1,0.7-0.6,1.3-1.2,1.6h3.7v2.9h-3.2v0.4h-1.3
		v-3H619c-0.1-0.3-0.3-0.7-0.6-1v4.8h-1.5v-7h2.2c-0.1-0.3-0.3-0.7-0.4-1l0.7-0.2h-3v-1.4h4.3c-0.1-0.2-0.1-0.5-0.2-0.7l1.6-0.4
		c0.1,0.3,0.3,0.8,0.4,1.1h4L626.4,362.5z M618.4,365.8c0.8-0.1,1.2-0.4,1.3-0.7h-1.3V365.8z M622.2,363.8c0.2-0.4,0.3-0.8,0.4-1.2
		h-2.4c0.2,0.3,0.4,0.7,0.5,1l-0.6,0.2H622.2z M620.4,367.7v0.7h1.9v-0.7H620.4z"/>
	<path class="st0" d="M631.6,369.1c-0.9,0.7-2,1.2-3.2,1.5c-0.3-0.4-0.6-0.8-1-1.2c1-0.1,2.1-0.4,3-0.9L631.6,369.1z M637.6,367v1.3
		h-4.2v2.5h-1.6v-2.5h-4.2V367h4.2v-0.3h-3.2v-1.1h3.2v-0.3H628V364h1.9c-0.1-0.2-0.2-0.5-0.3-0.7l0.8-0.2h-2.8v-1.3h1.4
		c-0.2-0.4-0.4-0.8-0.6-1.2l1.4-0.5c0.3,0.5,0.6,1,0.8,1.5l-0.5,0.2h0.8v-1.7h1.5v1.7h0.5v-1.7h1.5v1.7h0.7l-0.3-0.1
		c0.3-0.5,0.5-1,0.6-1.6l1.7,0.4c-0.3,0.5-0.6,0.9-0.8,1.3h1.3v1.3h-3l1.2,0.3c-0.2,0.2-0.4,0.4-0.6,0.5h1.9v1.2h-3.8v0.3h3.3v1.1
		h-3.3v0.3L637.6,367z M631.2,363.2c0.1,0.2,0.3,0.4,0.4,0.7l-0.6,0.1h3l-0.4-0.1c0.2-0.2,0.3-0.5,0.5-0.7H631.2z M634.8,368.5
		c0.8,0.3,2.1,0.9,2.8,1.3l-1.2,0.8c-0.6-0.4-1.8-1-2.7-1.4L634.8,368.5z"/>
	<path class="st0" d="M641.6,367.1c-0.1-0.3-0.3-0.7-0.5-1.2v4.8h-1.4v-3.7c-0.2,0.6-0.4,1.2-0.7,1.7c-0.2-0.6-0.4-1.1-0.7-1.7
		c0.7-1,1.1-2.2,1.4-3.4h-1.1v-1.5h1.2v-2h1.5v2h1.1v1.5h-1.1v0.1c0.3,0.5,1.2,1.9,1.4,2.2L641.6,367.1z M648,370.7
		c-0.6-0.4-1.8-1-2.7-1.4c-0.8,0.8-1.8,1.3-2.8,1.5c-0.2-0.5-0.5-0.9-0.8-1.3c0.9-0.1,1.7-0.4,2.3-1h-1.9v-1.3h2.5
		c0-0.2,0-0.3,0.1-0.5h-2.1v-3.8h5.7v3.8h-2c0,0.2,0,0.3,0,0.5h2.5v1.3h-2c0.8,0.3,1.8,0.8,2.3,1.1L648,370.7z M643.1,362.2h-1v-1.3
		h1v-0.7h1.4v0.7h0.7v1.3h-0.7v0.5h-1.4V362.2z M644.1,364.3h2.6V364h-2.6V364.3z M644.1,365.6h2.6v-0.3h-2.6V365.6z M646.1,362.2
		h-0.7v-1.3h0.7v-0.7h1.4v0.7h1.2v1.3h-1.2v0.5h-1.4V362.2z M645.9,368.5c-0.1,0.2-0.2,0.4-0.3,0.6l0.6-0.6H645.9z"/>
	<path class="st0" d="M653.3,368.3l1.9-0.3l0.1,1.4c-1.8,0.4-3.7,0.8-5.2,1l-0.4-1.6c0.5-0.1,1.2-0.2,2-0.3v-2.3h-1.5v-1.6h4.8v1.6
		h-1.6L653.3,368.3z M656.9,363.6c0.2,3,0.8,5.5,1.5,5.5c0.2,0,0.3-0.6,0.4-2c0.4,0.4,0.9,0.7,1.4,1c-0.2,2.2-0.8,2.7-1.9,2.7
		c-2,0-2.8-3.4-3-7.2h-5.5V362h5.4c0-0.6,0-1.2,0-1.8h1.8c0,0.6,0,1.2,0,1.8h1.4c-0.3-0.4-0.7-0.7-1.1-1l1.1-0.9
		c0.5,0.3,1,0.7,1.4,1.2l-0.8,0.7h1v1.6L656.9,363.6z"/>
	<path class="st0" d="M570.8,374.7v1h-4.2v0.2h3.3v0.9h-8.1V376h3.2v-0.2h-4.1v-1h4.1v-0.5h1.6v0.5H570.8z M560.9,379h9.8v1.7h-1.4
		v0.3h-0.5c0.4,0.3,0.8,0.5,1,0.7l-0.7,0.6h0.6v0.9h-3.2v0.2h4.1v1.1h-9.7v-1.1h4v-0.2H562v-0.9h2.9v-0.2c-0.8,0-1.6,0-2.3,0.2
		c-0.1-0.3-0.2-0.7-0.3-1c0.2,0,0.4-0.1,0.6-0.1c0.1,0,0.3-0.1,0.5-0.2h-1.2v-0.3h-1.2L560.9,379z M569.5,377v1.7h-7.4V377H569.5z
		 M562.3,380v0.2h6.9V380H562.3z M567.9,377.8h-4.4v0.2h4.4V377.8z M567.1,381.3l-0.5-0.2H565c-0.2,0.1-0.3,0.2-0.5,0.3L567.1,381.3
		z M568.7,382.4c-0.1-0.1-0.2-0.2-0.4-0.3h-1.8v0.2L568.7,382.4z"/>
	<path class="st0" d="M573.1,379.5c-0.5-0.4-1-0.8-1.6-1.1l0.9-1.1c0.6,0.3,1.2,0.6,1.7,1L573.1,379.5z M573.3,376.7
		c-0.5-0.5-1-0.9-1.6-1.2l0.9-1.1c0.6,0.3,1.2,0.7,1.7,1.1L573.3,376.7z M571.8,383.9c0.5-1.2,1-2.4,1.4-3.6l1.3,0.8
		c-0.4,1.2-0.8,2.5-1.2,3.6L571.8,383.9z M574.8,378.6c-0.1,0.5-0.2,1-0.4,1.5c-0.2-0.2-0.4-0.3-0.6-0.5c0.2-0.4,0.3-0.8,0.3-1.2
		L574.8,378.6z M576.1,378.2c0-0.1,0-0.2-0.1-0.3c-0.6,0-1.2,0.2-1.8,0.3c-0.1-0.2-0.2-0.4-0.3-0.6c0.2,0,0.3-0.2,0.5-0.4
		c0.2-0.2,0.3-0.4,0.5-0.6c-0.3,0-0.5,0.1-0.8,0.1c-0.1-0.2-0.2-0.4-0.3-0.6c0.2,0,0.3-0.2,0.4-0.3c0.3-0.5,0.5-0.9,0.7-1.5l0.8,0.3
		c-0.2,0.4-0.4,0.8-0.7,1.2h0.4c0.1-0.2,0.2-0.3,0.2-0.5l0.8,0.4c-0.3,0.6-0.7,1.1-1.1,1.5h0.5l-0.1-0.2l0.6-0.2
		c0.2,0.4,0.4,0.8,0.5,1.2L576.1,378.2z M581.8,382.3c0,0.2,0,0.4-0.1,0.5c0,0.6-0.2,1.2-0.6,1.6c-0.3,0.2-0.7,0.3-1.2,0.3
		c-0.4,0-1.1,0-1.8,0c0-0.4-0.2-0.8-0.4-1.2c0.6,0.1,1.4,0.1,1.7,0.1c0.2,0,0.3,0,0.5-0.1c0.1-0.1,0.2-0.2,0.2-0.4h-5.5
		c0.2-0.7,0.4-1.4,0.5-2.1h4.6v-0.2h-4.9v-0.9h6.4v2h-4.8l-0.1,0.2L581.8,382.3z M575.1,379.9c0-0.4-0.1-0.8-0.2-1.2l0.7-0.2
		c0.1,0.4,0.2,0.8,0.2,1.2L575.1,379.9z M576.1,379.6c0-0.4-0.1-0.8-0.3-1.2l0.6-0.2c0.1,0.4,0.2,0.7,0.3,1.1L576.1,379.6z
		 M579.2,376.1h-2.6v-0.8h1c-0.1-0.3-0.2-0.5-0.3-0.8l1-0.2c0.1,0.3,0.3,0.6,0.4,0.9l-0.4,0.1h1L579.2,376.1
		c0.2-0.1,0.3-0.2,0.4-0.3c0.3-0.5,0.5-0.9,0.7-1.5l0.8,0.3c-0.2,0.4-0.4,0.8-0.7,1.2h0.4c0.1-0.2,0.2-0.3,0.2-0.5l0.8,0.4
		c-0.3,0.6-0.7,1.1-1.1,1.5h0.5L581,377l0.6-0.2c0.2,0.4,0.4,0.8,0.5,1.2l-0.6,0.3c0-0.1-0.1-0.2-0.1-0.3c-0.6,0-1.2,0.2-1.8,0.3
		c-0.1-0.2-0.2-0.4-0.3-0.6c0.2-0.1,0.4-0.2,0.5-0.4c0.2-0.2,0.3-0.4,0.5-0.6c-0.3,0-0.5,0.1-0.8,0.1c-0.1-0.2-0.2-0.4-0.3-0.6
		L579.2,376.1z M579.1,377h-2.2v-0.7h2.2V377z M579.1,377.9h-2.2v-0.7h2.2V377.9z M576.9,378.2h2.2v1.7h-2.2V378.2z M577.8,379.2
		h0.3v-0.3h-0.3V379.2z M580.2,378.6c-0.1,0.5-0.2,1-0.4,1.5c-0.2-0.2-0.4-0.3-0.6-0.5c0.2-0.4,0.3-0.8,0.3-1.2L580.2,378.6z
		 M580.4,380c0-0.5-0.1-0.9-0.2-1.4l0.7-0.2c0.1,0.4,0.2,0.9,0.2,1.3L580.4,380z M581.7,378.2c0.2,0.4,0.3,0.9,0.3,1.3l-0.6,0.3
		c-0.1-0.5-0.2-0.9-0.3-1.4L581.7,378.2z"/>
	<path class="st0" d="M584.7,377.3c-0.3-0.8-0.7-1.6-1.2-2.3l1.5-0.6c0.5,0.7,1,1.4,1.3,2.2L584.7,377.3z M592.5,383.1
		c0,0.7-0.1,1.1-0.6,1.4c-0.6,0.2-1.2,0.3-1.9,0.3c-0.1-0.5-0.3-1-0.5-1.5c0.5,0,1,0,1.2,0s0.2-0.1,0.2-0.2v-4.2h-5.7v5.9h-1.6v-7.4
		h3.6v-3.1h1.7v3.1h3.6L592.5,383.1z M587.4,382.9v0.7h-1.5v-4.2h4.2v3.5H587.4z M587.4,380.8v0.8h1.2v-0.8H587.4z M592.6,374.9
		c-0.5,0.8-1,1.6-1.6,2.4l-1.4-0.5c0.5-0.8,1-1.6,1.3-2.4L592.6,374.9z"/>
	<path class="st0" d="M600.7,380.2c1,1.2,2.3,2.2,3.8,2.8c-0.5,0.4-0.8,0.9-1.2,1.4c-1.3-0.7-2.4-1.7-3.3-2.8v3.2h-1.7v-3.1
		c-0.9,1.1-2.1,2-3.4,2.7c-0.3-0.5-0.7-1-1.2-1.4c1.5-0.6,2.8-1.6,3.8-2.8h-3.4v-1.6h4.1v-1.1H595v-1.6h3.3v-1.6h1.7v1.6h3.4v1.6
		H600v1.1h4.2v1.6L600.7,380.2z"/>
	<path class="st0" d="M609.3,377l-0.3,0.6h5v5.5c0,0.8-0.1,1.2-0.6,1.4c-0.6,0.2-1.3,0.3-2,0.3c-0.1-0.5-0.2-1.1-0.5-1.6
		c0.5,0,1.1,0,1.3,0s0.2-0.1,0.2-0.2v-0.4h-3.8c-0.2,0.9-0.6,1.6-1.3,2.2c-0.3-0.5-0.7-0.9-1.2-1.2c0.8-0.8,1.2-1.9,1-3v-0.5
		c-0.4,0.4-0.7,0.7-1.2,1c-0.3-0.5-0.7-0.9-1.1-1.3c1-0.7,1.9-1.7,2.5-2.8h-2.2v-1.5h2.9c0.2-0.4,0.3-0.9,0.4-1.3l1.7,0.4
		c-0.1,0.3-0.2,0.6-0.3,0.9h5.3v1.5H609.3z M612.5,381.3v-0.5h-3.7c0,0.2,0,0.3,0,0.5H612.5z M612.5,379.1h-3.7v0.5h3.7V379.1z"/>
	<path class="st0" d="M484.6,116.6v9.9h-1.7v-0.7h-4.8v0.7h-1.6v-9.9H484.6z M478.1,118.2v1h4.8v-1H478.1z M478.1,120.7v1h4.8v-1
		H478.1z M482.9,124.2v-1h-4.8v1H482.9z"/>
	<path class="st0" d="M491.8,125.1c0,0.7-0.1,1-0.5,1.2c-0.5,0.2-1,0.3-1.6,0.3c-0.1-0.5-0.3-0.9-0.5-1.4c0.3,0,0.6,0,0.9,0
		c0.1,0,0.2,0,0.2-0.2v-0.7h-1.6c-0.1,0.8-0.4,1.6-0.8,2.2c-0.4-0.3-0.8-0.7-1.2-0.9c0.6-1.1,0.8-2.3,0.7-3.5v-2.5h4.5L491.8,125.1z
		 M496.8,117.6v1.5h-10.2v-1.5h2.2c-0.2-0.4-0.4-0.7-0.7-1.1l1.5-0.5c0.4,0.4,0.7,0.9,1,1.4l-0.6,0.2h2.9c0.3-0.5,0.6-1,0.8-1.6
		l1.8,0.5c-0.2,0.4-0.5,0.8-0.8,1.1H496.8z M490.2,123.2v-0.5h-1.5c0,0.2,0,0.3,0,0.5H490.2z M488.7,121v0.6h1.5V121H488.7z
		 M494,124.4h-1.5v-4.6h1.5L494,124.4z M494.7,119.6h1.6v5.3c0,0.8-0.1,1.2-0.6,1.4c-0.6,0.2-1.2,0.3-1.9,0.3
		c-0.1-0.5-0.3-1-0.6-1.5c0.5,0,1.1,0,1.3,0s0.2,0,0.2-0.2V119.6z"/>
	<path class="st0" d="M504.4,122c1,1.2,2.3,2.2,3.8,2.8c-0.5,0.4-0.9,0.9-1.2,1.4c-1.3-0.7-2.4-1.7-3.3-2.8v3.2H502v-3.1
		c-0.9,1.1-2.1,2-3.4,2.7c-0.3-0.5-0.7-1-1.2-1.4c1.5-0.6,2.8-1.6,3.8-2.8h-3.4v-1.6h4.1v-1.2h-3.3v-1.6h3.3V116h1.7v1.6h3.4v1.6
		h-3.4v1.2h4.2v1.7H504.4z"/>
	<path class="st0" d="M513,118.8l-0.3,0.7h5.1v5.4c0,0.8-0.1,1.2-0.6,1.4c-0.6,0.2-1.3,0.3-2,0.3c-0.1-0.5-0.2-1.1-0.5-1.6
		c0.5,0,1.1,0,1.3,0s0.2-0.1,0.2-0.2v-0.4h-3.9c-0.2,0.9-0.6,1.6-1.3,2.2c-0.3-0.5-0.7-0.9-1.2-1.2c0.8-0.8,1.2-1.9,1-3v-0.5
		c-0.4,0.4-0.7,0.7-1.1,1c-0.3-0.5-0.7-0.9-1.1-1.3c1-0.7,1.9-1.7,2.5-2.8H509v-1.5h2.9c0.2-0.4,0.3-0.9,0.4-1.3l1.7,0.4
		c-0.1,0.3-0.2,0.6-0.3,0.9h5.3v1.5L513,118.8z M516.2,123.2v-0.5h-3.7c0,0.2,0,0.3,0,0.5H516.2z M516.2,120.9h-3.7v0.5h3.7V120.9z"
		/>
	<path class="st0" d="M523,120.3c0.4,0.4,1.3,1.6,1.5,1.9l-0.9,1.3c-0.1-0.3-0.4-0.8-0.6-1.2v4.3h-1.5v-3.9c-0.2,0.7-0.6,1.4-1,2
		c-0.2-0.5-0.5-1.1-0.8-1.5c0.7-1,1.3-2.2,1.6-3.4H520v-1.5h1.5V116h1.5v2.2h1.3v1.5H523V120.3z M530,116.6v9.8h-1.6v-0.5h-2.2v0.6
		h-1.5v-9.9L530,116.6z M526.2,118.1v1.1h2.2v-1.1H526.2z M526.2,120.7v1.1h2.2v-1.1H526.2z M528.4,124.4v-1.1h-2.2v1.1H528.4z"/>
	<path class="st0" d="M541,124.8c0,0.8-0.1,1.2-0.6,1.5c-0.6,0.3-1.3,0.4-2,0.3c-0.1-0.6-0.3-1.1-0.5-1.6c0.5,0,1.2,0,1.4,0
		s0.3-0.1,0.3-0.3V118H533v8.5h-1.6v-10h9.6V124.8z M538.9,120h-5.5v-1.3h5.5V120z M535.4,124.5v0.7h-1.5v-4.6h4.6v3.9H535.4z
		 M535.4,122v1.2h1.6V122L535.4,122z"/>
	<path class="st0" d="M552.6,124.7v1.5h-7v-1.5h2.9v-1.9h-2v-1.5h2v-1.6h-1c-0.1,0.5-0.3,1-0.6,1.4c-0.5-0.3-0.9-0.5-1.4-0.7
		c0.1-0.2,0.2-0.4,0.3-0.5l-0.7,0.3c0-0.2-0.1-0.5-0.2-0.7v7.1h-1.6v-6.1c-0.1,0.4-0.1,0.7-0.2,1.1l-1.2-0.4c0.3-1,0.4-2,0.5-2.9
		l0.9,0.1V116h1.6v2.1l0.6-0.3c0.2,0.4,0.3,0.7,0.5,1.1c0.2-0.8,0.4-1.6,0.4-2.5l1.6,0.2c-0.1,0.5-0.1,1-0.2,1.4h0.6v-2.1h1.6v2.1
		h2.1v1.5H550v1.6h2v1.5h-1.9v1.9L552.6,124.7z"/>
	<path class="st0" d="M560.5,119.9v-1.1h-0.7c-0.1,0.5-0.4,0.9-0.7,1.2h3v4.6H561c0.9,0.3,1.8,0.6,2.4,0.8l-0.7,1.1
		c-1.1-0.5-2.2-0.9-3.4-1.3l0.4-0.7H557l0.7,0.4c-1.2,0.6-2.4,1.1-3.7,1.5c-0.2-0.5-0.5-0.9-0.8-1.3c0.8-0.2,1.7-0.4,2.5-0.6h-1.1
		v-4.6h4.1c-0.3-0.2-0.6-0.4-1-0.6c0.2-0.2,0.4-0.4,0.5-0.6h-0.9v1H556v-1h-0.8c-0.2,0.6-0.6,1.1-1.1,1.5c-0.3-0.4-0.6-0.7-1-1
		c0.7-0.5,1.1-1.3,1-2.1v-0.7c1.1,0,2.2-0.2,3.3-0.5l0.9,0.9c-0.9,0.3-1.8,0.5-2.8,0.5c0,0.1,0,0.1,0,0.2h2.9v1.1
		c0.2-0.5,0.3-1,0.3-1.5v-0.8c1.2,0,2.3-0.2,3.4-0.5l1,0.9c-1,0.3-2,0.5-3.1,0.6c0,0.1,0,0.2,0,0.3h3.4v1.2H562v1.1L560.5,119.9z
		 M560.5,121h-4.2v0.3h4.2V121z M556.4,122.6h4.2v-0.3h-4.2V122.6z M556.4,123.8h4.2v-0.3h-4.2V123.8z"/>
	<path class="st0" d="M485.6,131.7c0,0,0,0.5,0,0.7c-0.1,5-0.2,6.8-0.7,7.4c-0.3,0.4-0.7,0.7-1.2,0.7c-0.6,0.1-1.2,0.1-1.8,0
		c-0.1-0.6-0.2-1.1-0.5-1.6c0.7,0.1,1.4,0.1,1.7,0.1c0.2,0,0.4-0.1,0.5-0.2c0.3-0.3,0.5-2,0.5-5.6H482c-0.3,0.6-0.6,1.1-1,1.7
		c-0.3-0.2-0.6-0.5-0.9-0.7v5.3h-2.9v0.8h-1.5v-8.4h1.2c0.1-0.6,0.2-1.2,0.2-1.8l1.8,0.2c-0.2,0.5-0.4,1.1-0.6,1.6h1.6v1.5
		c0.6-1,1-2.1,1.3-3.3l1.6,0.4c-0.1,0.4-0.3,0.9-0.4,1.3L485.6,131.7z M478.6,133.2h-1.5v1.5h1.5V133.2z M478.6,138v-1.9h-1.5v1.9
		L478.6,138z M482.3,137.7c-0.4-0.9-0.9-1.8-1.5-2.6l1.3-0.7c0.5,0.8,1.2,1.8,1.6,2.5L482.3,137.7z"/>
	<path class="st0" d="M493.4,138.2c1.2,0.4,2.3,0.9,3.5,1.4l-1.6,1c-1-0.6-2-1-3.1-1.4L493.4,138.2l-3.2,0l1.1,0.9
		c-1.2,0.6-2.4,1.1-3.7,1.5c-0.3-0.4-0.6-0.8-1-1.2c1.1-0.3,2.1-0.7,3.1-1.2h-3v-1.5h1.8v-4.2H487V131h1.5v-1h1.6v1h3.2v-1h1.6v1
		h1.5v1.5h-1.5v4.2h1.8v1.5L493.4,138.2z M490.1,132.5v0.5h3.2v-0.5L490.1,132.5z M490.1,134.8h3.2v-0.5h-3.2V134.8z M490.1,136.7
		h3.2v-0.6h-3.2V136.7z"/>
	<path class="st0" d="M501.3,130.6c-0.3,0.8-0.7,1.6-1.1,2.4v7.7h-1.5v-5.3c-0.2,0.2-0.3,0.4-0.5,0.6c-0.2-0.6-0.5-1.2-0.9-1.7
		c1.1-1.2,1.9-2.5,2.4-4L501.3,130.6z M505.9,139.1c0.6,0,0.8-0.3,0.9-1.5c0.4,0.3,0.9,0.5,1.4,0.6c-0.2,1.8-0.7,2.3-2.1,2.3h-2.3
		c-1.7,0-2.2-0.5-2.2-2.2v-2.8l-0.7,0.3l-0.6-1.4l1.3-0.5v-2.5h1.5v1.9l0.8-0.3v-2.8h1.4v2.2l1.3-0.5l0.1-0.1l1.2,0.4l-0.1,0.2
		c-0.1,1.7-0.2,3.4-0.5,5.1l-1.3-0.4c0.1-0.9,0.2-2.2,0.3-3.5l-1,0.4v3.9h-1.4v-3.3l-0.8,0.3v3.4c0,0.7,0.1,0.8,0.8,0.8L505.9,139.1
		z"/>
	<path class="st0" d="M512.2,137.1c0-0.2-0.1-0.3-0.1-0.5c-1,0.1-2,0.2-3,0.6c-0.1-0.5-0.3-1-0.5-1.4c0.4-0.1,0.7-0.4,0.9-0.7
		c0.2-0.2,0.4-0.5,0.6-0.7c-0.4,0-0.8,0.1-1.1,0.2c-0.1-0.5-0.3-0.9-0.5-1.4c0.3-0.1,0.5-0.3,0.7-0.6c0.6-0.8,1-1.7,1.4-2.7l1.4,0.6
		c-0.4,0.9-0.9,1.7-1.5,2.5h0.6c0.3-0.5,0.5-0.9,0.8-1.4l1.3,0.9c-0.5,0.8-1,1.6-1.6,2.3l1.1-0.4c0.3,0.8,0.5,1.6,0.7,2.4
		L512.2,137.1z M510.4,137.7c0,0.9-0.2,1.9-0.4,2.8c-0.4-0.2-0.8-0.3-1.3-0.4c0.3-0.8,0.4-1.7,0.4-2.5L510.4,137.7z M511.7,137.4
		c0.1,0.8,0.2,1.6,0.3,2.4l-1.3,0.3c0-0.8-0.1-1.6-0.2-2.4L511.7,137.4z M511.8,135.4c-0.1-0.2-0.1-0.5-0.2-0.7
		c-0.2,0.3-0.5,0.5-0.7,0.8L511.8,135.4z M513,137.1c0.2,0.5,0.4,1.1,0.5,1.7l-1.2,0.4c-0.1-0.6-0.2-1.2-0.4-1.7L513,137.1z
		 M519.2,139v1.4h-6.5V139h0.8v-8.4h5v8.4L519.2,139z M515,132v1.3h2V132H515z M517,134.8h-2v1.4h2V134.8z M515,139h2v-1.4h-2V139z"
		/>
	<path class="st0" d="M521.1,137.6c0,0.9-0.2,1.8-0.4,2.7c-0.3-0.1-0.7-0.2-1-0.3c0.2-0.8,0.4-1.7,0.4-2.5L521.1,137.6z
		 M522.8,137.1c0-0.1,0-0.3-0.1-0.5c-0.8,0.1-1.6,0.3-2.4,0.6c-0.1-0.4-0.2-0.8-0.4-1.2c0.3-0.1,0.5-0.3,0.8-0.7
		c0.2-0.3,0.4-0.6,0.6-0.9c-0.4,0-0.7,0.1-1.1,0.2c-0.1-0.4-0.3-0.8-0.4-1.2c0.2-0.1,0.4-0.3,0.6-0.6c0.4-0.8,0.8-1.7,1-2.7l1.3,0.5
		c-0.3,0.9-0.7,1.7-1.2,2.6h0.5c0.2-0.4,0.4-0.9,0.6-1.3l1.2,0.6c-0.4,0.8-0.8,1.6-1.3,2.3l0.8-0.2c0.2,0.7,0.4,1.4,0.6,2.2
		L522.8,137.1z M522.2,137.4c0.1,0.8,0.2,1.5,0.3,2.3l-1,0.2c0-0.8-0.1-1.6-0.2-2.3L522.2,137.4z M522.4,135.4
		c0-0.2-0.1-0.4-0.1-0.5c-0.2,0.2-0.3,0.4-0.5,0.6L522.4,135.4z M530.3,135.1c-0.3,1-0.7,1.9-1.3,2.8c0.1,0.4,0.2,0.7,0.3,0.7
		s0.2-0.4,0.2-1.2c0.3,0.3,0.6,0.6,1,0.9c-0.3,1.8-0.8,2.1-1.2,2.1s-0.9-0.4-1.2-1.2c-0.5,0.5-1,1-1.6,1.3c-0.3-0.4-0.6-0.7-0.9-1.1
		l0.3-0.2h-0.1V139H525v0.8h-1.2v-0.6l-0.9,0.3c-0.1-0.7-0.3-1.4-0.6-2.1l0.9-0.3c0.2,0.7,0.4,1.3,0.6,2v-4.3h3.2v3.5
		c0.2-0.2,0.5-0.5,0.7-0.7c-0.2-1-0.3-2-0.3-3.1h-4v-1.2h0.7c0-0.3-0.1-0.7-0.2-1l0.5-0.1h-0.9V131h1c-0.1-0.2-0.1-0.4-0.2-0.6
		l1.3-0.4c0.2,0.3,0.3,0.7,0.4,1h1.1v1.2h-0.9l0.9,0.2c-0.1,0.3-0.2,0.6-0.3,0.9h0.5c0-1-0.1-2.1-0.1-3.2h1.3v1l1-0.4
		c0.4,0.7,0.7,1.4,0.9,2.1l-1,0.5h0.8v1.2h-1.5c0,0.5,0.1,0.9,0.1,1.3c0.2-0.4,0.3-0.7,0.4-1.1L530.3,135.1z M524.8,132.2
		c0.1,0.4,0.2,0.7,0.2,1.1h0.5c0.1-0.4,0.2-0.8,0.3-1.1H524.8z M525,135.9v0.5h0.7v-0.5H525z M525.7,137.9v-0.5H525v0.5H525.7z
		 M529.1,133.3c-0.2-0.6-0.4-1.1-0.6-1.7c0,0.6,0,1.1,0.1,1.7H529.1z"/>
	<line class="st2" x1="358.1" y1="223.8" x2="351.5" y2="262.4"/>
	<line class="st2" x1="345.3" y1="299" x2="340.9" y2="324.6"/>
	<line class="st2" x1="327.2" y1="404.5" x2="316.4" y2="468"/>
	<line class="st2" x1="490.8" y1="219.8" x2="504.7" y2="256.5"/>
	<line class="st2" x1="525.2" y1="305.5" x2="575.4" y2="452.5"/>
	<line class="st2" x1="420.6" y1="223.2" x2="436.1" y2="306.3"/>
	<line class="st2" x1="453" y1="397.4" x2="461" y2="441.3"/>
	<line class="st2" x1="289.1" y1="208.5" x2="197.2" y2="402.5"/>
</g>
</svg>
