<?xml version="1.0" encoding="utf-8"?>
<!-- Generator: Adobe Illustrator 20.1.0, SVG Export Plug-In . SVG Version: 6.00 Build 0)  -->
<svg version="1.1" id="圖層_1" xmlns="http://www.w3.org/2000/svg" xmlns:xlink="http://www.w3.org/1999/xlink" x="0px" y="0px"
	 viewBox="0 0 1280 650" style="enable-background:new 0 0 1280 650;" xml:space="preserve">
<style type="text/css">
	.st0{fill:#6BFFBA;}
	.st1{fill:none;stroke:#00364B;stroke-width:4.41;stroke-linecap:round;stroke-miterlimit:10;}
	.st2{fill:#00364B;}
	.st3{fill:#004864;}
</style>
<title>Topic Tree</title>
<g id="圖層_1_1_">
	<path class="st0" d="M185.1,91.4h-56c-11.3,0-27.5-9.2-27.5-20.5l0,0c0-11.3,16.2-20.5,27.5-20.5h56c11.3,0,27.5,9.2,27.5,20.5l0,0
		C212.6,82.3,196.4,91.4,185.1,91.4z"/>
	<ellipse class="st0" cx="258.8" cy="590.6" rx="44" ry="16.6"/>
	<line class="st1" x1="464" y1="275.5" x2="482.4" y2="257"/>
	<polygon class="st2" points="481.5,268.5 481.5,257.9 470.9,257.9 475.4,253.4 486,253.4 486,264 	"/>
	<line class="st1" x1="557.5" y1="181.9" x2="585.5" y2="153.9"/>
	<polygon class="st2" points="584.5,165.4 584.5,154.9 574,154.9 578.5,150.4 589,150.4 589,161 	"/>
	<line class="st1" x1="204.4" y1="527.9" x2="218.4" y2="513.9"/>
	<polygon class="st2" points="217.4,525.4 217.4,514.8 206.9,514.9 211.4,510.4 221.9,510.4 221.9,520.9 	"/>
	<line class="st1" x1="204.4" y1="557.1" x2="218.4" y2="571.1"/>
	<polygon class="st2" points="206.9,570.2 217.4,570.2 217.4,559.6 221.9,564.1 221.9,574.7 211.4,574.7 	"/>
	<path class="st0" d="M462.9,192h86.2c8.4,0,15.2,6.8,15.2,15.2v18c0,8.4-6.8,15.2-15.2,15.2h-86.2c-8.4,0-15.2-6.8-15.2-15.2v-18
		C447.7,198.8,454.5,192,462.9,192z"/>
	<path class="st0" d="M643.9,197h54c10.6,0,19.2,8.6,19.2,19.2v0c0,10.6-8.6,19.2-19.2,19.2h-54c-10.6,0-19.2-8.6-19.2-19.2v0
		C624.7,205.6,633.3,197,643.9,197z"/>
	<rect x="357.2" y="280.5" class="st0" width="97.6" height="97.6"/>
	<path class="st3" d="M481.2,213c-0.9,2.6-2.2,5-4,7c2.2,1.6,4.7,2.8,7.4,3.4c-0.6,0.7-1.1,1.4-1.6,2.2c-2.8-0.7-5.4-2-7.6-3.8
		c-2.3,1.8-5,3.2-7.9,3.9c-0.4-0.8-0.9-1.5-1.4-2.2c2.7-0.6,5.3-1.8,7.6-3.5c-1.8-2.1-3.2-4.4-4.2-7h-3.1v-2.3h8.2
		c-0.3-1-0.6-1.9-1.1-2.8l2.5-0.7c0.5,1,1,2,1.3,3l-1.7,0.5h8.5v2.2H481.2z M471.9,213c0.8,2,2,3.9,3.5,5.4c1.4-1.6,2.5-3.4,3.2-5.4
		H471.9z"/>
	<path class="st3" d="M493.7,208.2c-0.5,1.3-1.2,2.5-1.9,3.7v13.7h-2.2v-10.5c-0.6,0.7-1.2,1.4-1.9,2.1c-0.4-0.8-0.8-1.6-1.2-2.4
		c2.2-2,3.9-4.5,5-7.3L493.7,208.2z M501.4,223.2c1,0,1.1-0.8,1.3-4c0.6,0.5,1.3,0.8,2,1c-0.2,3.8-0.8,5.1-3.2,5.1h-3.3
		c-2.4,0-3.1-0.8-3.1-3.4v-14h2.2v5h6.8v2.1h-6.8v6.8c0,1.1,0.1,1.4,1.1,1.4L501.4,223.2z"/>
	<path class="st3" d="M514.6,219.1l-1.9,0.5v6.2h-2.2v-5.6l-2.6,0.7l-0.6-2.4c0.9-0.2,2-0.4,3.1-0.6v-4.3h-1.1
		c-0.2,0.9-0.4,1.8-0.7,2.6c-0.4-0.2-1.2-0.5-1.6-0.6c0.7-2.1,1.1-4.3,1.2-6.5l1.8,0.3c-0.1,0.7-0.1,1.4-0.2,2h0.8v-3.8h2.2v3.8h1.7
		v2.2h-1.7v3.8l1.6-0.4L514.6,219.1z M525.2,219.1h-1.9v4.1c0,1.1-0.2,1.8-1,2.1c-1,0.4-2.2,0.5-3.3,0.4c-0.1-0.8-0.4-1.6-0.7-2.3
		c0.9,0,2,0,2.3,0s0.4-0.1,0.4-0.3v-4h-6.2v-2.1h6.2v-1.4h2.3v1.4h1.9L525.2,219.1z M518.6,211.3h-3.7v-2.1h3.7v-1.7h2.3v1.7h3.9
		v2.1h-3.9v1.7h3.2v2.1h-8.5V213h3L518.6,211.3z M517.4,219.1c0.9,0.9,1.7,1.8,2.4,2.9l-1.8,1.2c-0.6-1.1-1.4-2.1-2.2-3.1
		L517.4,219.1z"/>
	<path class="st3" d="M541.3,223.2c1.9,0,2.2-0.4,2.4-2.9c0.7,0.4,1.4,0.7,2.2,0.8c-0.4,3.2-1.2,4.1-4.5,4.1h-6.7
		c-3.6,0-4.8-0.7-4.8-3.5v-7.1c-0.4,0.3-0.8,0.6-1.2,0.9c-0.3-0.8-0.8-1.5-1.2-2.2c2.5-1.5,4.5-3.6,6-6.1l2.1,0.8l-0.5,0.8h4.5
		l0.5-0.1l1.5,1.1c-0.7,1-1.5,2-2.4,2.9h4.8v7.4h-2.3v-0.7h-9.5v2.3c0,1.2,0.3,1.4,2.5,1.4L541.3,223.2z M533.7,211
		c-0.5,0.6-1.1,1.3-1.6,1.8h4.4c0.6-0.6,1.1-1.2,1.6-1.8H533.7z M532.2,217.3h3.6V215h-3.6V217.3z M541.7,215h-3.6v2.3h3.6V215z"/>
	<path class="st3" d="M653.9,210v1.5h-11.3v3.1c0,2.4-0.2,6.1-1.4,8.4c-0.4-0.4-0.9-0.7-1.4-1c1-2.1,1.1-5.2,1.1-7.4V210h5.4
		c-0.1-0.3-0.3-0.5-0.5-0.8l1.5-0.6c0.3,0.4,0.6,0.9,0.9,1.4L653.9,210z M653.5,221.3c0,0.8-0.1,1.2-0.6,1.4
		c-0.7,0.2-1.4,0.3-2.1,0.3c-0.1-0.5-0.2-1-0.5-1.5h1.3c0.2,0,0.3-0.1,0.3-0.2V219h-1.8c-0.1,1.5-0.7,2.8-1.6,4
		c-0.3-0.4-0.8-0.8-1.2-1.1c0.2-0.3,0.4-0.6,0.6-0.9h-1.6v2h-1.5v-2h-2.2v-1.4h2.2v-0.7h-1.7v-4.2h1.7V214h-1.9v-1.3h1.9v-1h1.5v1h2
		v1.3h-2v0.7h1.7v4.2h-1.7v0.7h2v0.5c0.3-1.2,0.5-2.5,0.5-3.8v-4h4.7L653.5,221.3z M644.5,216.3h2.2v-0.6h-2.2V216.3z M644.5,217.9
		h2.2v-0.6h-2.2V217.9z M652,217.8v-1.4h-1.6c0,0.5,0,0.9,0,1.4H652z M650.4,213.7v1.3h1.6v-1.4L650.4,213.7z"/>
	<path class="st3" d="M669.5,210.3v3.5h-1.9v-1.9H658v1.9h-1.8v-3.5h5.7c-0.1-0.3-0.3-0.7-0.4-1l1.8-0.5c0.3,0.5,0.5,1,0.7,1.5
		L669.5,210.3z M664,216.5h5.5v1.7H664v2.5c0,1-0.2,1.5-1,1.8c-1,0.3-2,0.4-3.1,0.3c-0.2-0.6-0.4-1.3-0.8-1.8c1,0,2.2,0,2.5,0
		s0.4-0.1,0.4-0.4v-2.5h-5.7v-1.7h5.7v-1.7h-3.4v-1.7h8.4v1.7h-3V216.5z"/>
	<path class="st3" d="M683.4,213.1c-0.7,2-1.7,3.8-3.1,5.4c1.7,1.3,3.7,2.2,5.7,2.6c-0.5,0.5-0.9,1.1-1.2,1.7
		c-2.2-0.6-4.2-1.6-5.9-3c-1.8,1.4-3.9,2.5-6.1,3.1c-0.3-0.6-0.7-1.2-1.1-1.7c2.1-0.5,4.1-1.4,5.9-2.7c-1.4-1.6-2.5-3.5-3.2-5.5H672
		v-1.8h6.4c-0.2-0.7-0.5-1.5-0.8-2.1l1.9-0.6c0.4,0.7,0.7,1.5,1,2.3l-1.3,0.4h6.6v1.8L683.4,213.1z M676.2,213.1
		c0.6,1.6,1.6,3,2.7,4.2c1.1-1.2,1.9-2.6,2.5-4.2H676.2z"/>
	<path class="st3" d="M693.1,209.4c-0.4,1-0.9,2-1.5,2.9v10.6h-1.7v-8.2c-0.4,0.6-0.9,1.1-1.5,1.6c-0.3-0.7-0.6-1.3-1-1.9
		c1.7-1.6,3-3.5,3.9-5.6L693.1,209.4z M699.1,221c0.8,0,0.9-0.6,1-3.1c0.5,0.4,1,0.6,1.6,0.8c-0.2,2.9-0.7,4-2.5,4h-2.5
		c-1.9,0-2.4-0.6-2.4-2.7v-10.9h1.7v3.9h5.3v1.7H696v5.3c0,0.9,0.1,1,0.8,1L699.1,221z"/>
	<path class="st0" d="M614.5,112.3h54c10.6,0,19.2,8.6,19.2,19.2l0,0c0,10.6-8.6,19.2-19.2,19.2h-54c-10.6,0-19.2-8.6-19.2-19.2l0,0
		C595.3,120.8,603.9,112.3,614.5,112.3z"/>
	<path class="st3" d="M626.8,133c0.5,1.3,0.9,2.6,1.2,3.9l-1.5,0.6c0-0.3-0.1-0.6-0.2-1c-1.1,0.3-2.1,0.7-3.1,1.1
		c-0.1-0.4-0.3-0.8-0.6-1.2c0.4-0.2,0.7-0.6,0.7-1.1v-4.6c-0.5,3.3-1.7,5.7-4,7.1c-0.2-0.4-0.5-0.8-0.9-1.2c1.4-0.8,2.4-2.1,2.9-3.6
		c-0.8,0.1-1.6,0.2-2.4,0.4c-0.1-0.5-0.3-0.9-0.5-1.4c0.3-0.1,0.6-0.4,1-1c0.4-0.5,0.8-1.1,1.1-1.7c-0.5,0-1,0.1-1.5,0.3
		c-0.1-0.5-0.3-1-0.5-1.5c0.3-0.2,0.6-0.4,0.7-0.8c0.6-1.1,1-2.2,1.3-3.4l1.7,0.4c-0.4,1.2-1,2.4-1.6,3.6l0.8-0.1
		c0.2-0.4,0.4-0.9,0.6-1.3l1.5,0.6v-1.8h1.5c-0.2-0.3-0.4-0.7-0.6-1l1.4-0.5c0.3,0.5,0.6,1,0.9,1.5h1.1v7h-2.7v2.8l1-0.3
		c-0.2-0.6-0.4-1.1-0.6-1.6L626.8,133z M623.4,130.6v-3.2c-0.7,1.5-1.6,3-2.6,4.4l1-0.1c0.1-0.4,0.1-0.8,0.2-1.2L623.4,130.6z
		 M624.9,127.1v1.3h1.3V127L624.9,127.1z M626.2,131.1v-1.3h-1.3v1.3H626.2z M632.7,125.4c-0.4,1.5-0.9,3.3-1.4,4.6
		c0.8,1,1.2,2.3,1.2,3.6c0.1,0.8-0.1,1.6-0.7,2.1c-0.2,0.2-0.5,0.3-0.9,0.4c-0.3,0-0.7,0-1,0c0-0.5-0.1-1.1-0.4-1.6h0.7
		c0.1,0,0.3-0.1,0.4-0.1c0.2-0.3,0.3-0.7,0.3-1.1c0-1.1-0.4-2.2-1.1-3.1c0.3-1.1,0.7-2.7,1-3.8h-1.2v11.8h-1.5v-13.3h3.2l0.2-0.1
		L632.7,125.4z"/>
	<path class="st3" d="M648.4,135.7v1.8h-13.7v-1.8h5.8v-5.3h-4.9v-1.8h4.9V124h1.9v4.6h4.9v1.8h-4.9v5.3L648.4,135.7z"/>
	<path class="st3" d="M659.1,133.5l-0.8,0.6c0.4,0.6,1.2,1.8,1.4,2.1l-1.1,1c-0.3-0.9-0.8-1.7-1.2-2.5l-0.3,0.1
		c0.4,1,0.2,2.1-0.4,2.9c-0.3,0.3-0.8,0.5-1.3,0.5h-0.8c0-0.4-0.2-0.8-0.3-1.2c-0.5,0.2-1,0.5-1.5,0.6c-0.2-0.3-0.4-0.6-0.6-0.9
		c-0.1,0.5-0.3,1-0.6,1.4c-0.4-0.3-0.9-0.6-1.3-0.8c1-1.8,1.1-4.4,1.1-6.2v-4.4h2.8V124h1.7v0.7h3.1v1.3h-3.1v0.7h2.3h0.3l1,0.2
		c-0.1,0.9-0.4,1.7-0.7,2.5l-1.3-0.3c0.1-0.4,0.2-0.8,0.3-1.2h-2.1v0.6l1.5-0.2l0.1,1l-1.7,0.2c0,0.3,0.1,0.4,0.4,0.4h1.5
		c0.4,0,0.8,0,1.1-0.1c0,0.4,0,0.7,0.1,1c-0.4,0.1-0.8,0.1-1.2,0.1h-1.9c-1.1,0-1.4-0.4-1.4-1.3l-1.1,0.1l-0.1-1l1.2-0.1V128h-1.4
		v3.1c0,1.9-0.2,3.8-0.7,5.6c1.3-0.4,2.6-1,3.7-1.9c-0.1-0.1-0.1-0.2-0.2-0.4c-0.7,0.5-1.5,0.9-2.3,1.2c-0.2-0.3-0.4-0.6-0.6-0.9
		c0.9-0.2,1.7-0.6,2.5-1.1l-0.3-0.3c-0.5,0.2-1,0.4-1.5,0.6c-0.1-0.3-0.3-0.6-0.5-0.9c0.8-0.2,1.5-0.4,2.2-0.8h-1.9v-1.1h6v1.1h-2.4
		c-0.2,0.2-0.5,0.4-0.7,0.5c0.3,0.2,0.5,0.5,0.7,0.9c0.5-0.4,1-0.7,1.4-1.2L659.1,133.5z M656,135.8c-0.5,0.4-1.1,0.7-1.7,1
		c0.3,0,0.6,0,0.8,0c0.2,0,0.5-0.1,0.6-0.2C655.9,136.4,656,136.1,656,135.8z M661.3,134.4h-1.6v-8.6h1.6V134.4z M663.9,124.4v11.7
		c0,0.9-0.2,1.4-0.8,1.7c-0.8,0.3-1.7,0.4-2.6,0.3c-0.1-0.6-0.3-1.2-0.5-1.7c0.8,0,1.6,0,1.8,0s0.3-0.1,0.3-0.3v-11.7L663.9,124.4z"
		/>
	<path class="st0" d="M493.7,87.7h54c10.6,0,19.2,8.6,19.2,19.2l0,0c0,10.6-8.6,19.2-19.2,19.2h-54c-10.6,0-19.2-8.6-19.2-19.2l0,0
		C474.5,96.3,483.1,87.7,493.7,87.7z"/>
	<path class="st3" d="M499.5,100.8c1.5,1.3,2.8,2.8,4,4.4l-1.5,1.1c-0.2-0.4-0.5-0.8-0.8-1.2c-8,0.4-9.1,0.4-9.9,0.7
		c-0.2-0.6-0.4-1.2-0.6-1.7c0.5-0.2,0.9-0.5,1.3-0.9c1.2-1.2,2.3-2.6,3.2-4.1l1.8,0.8c-1,1.4-2.1,2.7-3.3,3.9l6.2-0.2
		c-0.6-0.7-1.2-1.3-1.8-1.9L499.5,100.8z M491.7,106.9h10.2v6.6H500v-0.8h-6.4v0.8h-1.9L491.7,106.9z M493.5,108.6v2.4h6.5v-2.4
		H493.5z"/>
	<path class="st3" d="M511.5,103.3h-5.9v-1.4h2.6c-0.3-0.7-0.6-1.3-1-1.9l1.4-0.7c0.4,0.6,0.8,1.3,1.1,2l-1,0.6h2.7L511.5,103.3z
		 M511,112.7h-3.3v0.6h-1.5v-5.2h4.8L511,112.7z M510.9,105.4h-4.6V104h4.6V105.4z M506.3,106.1h4.6v1.3h-4.6V106.1z M507.8,109.6
		v1.7h1.7v-1.7H507.8z M519.8,105.7v1.5h-8.5v-1.5h1.8c0.1-0.5,0.2-1.1,0.3-1.7H512v-1.4h1.6c0.1-0.4,0.1-0.8,0.2-1.1h-2.2V100h7.8
		v1.5h-3.8c-0.1,0.4-0.1,0.7-0.2,1.1h3.1v3.1L519.8,105.7z M512,107.9h7v5.6h-1.8V113h-3.5v0.6H512L512,107.9z M513.7,109.5v2h3.5
		v-2H513.7z M515.1,104c-0.1,0.6-0.2,1.2-0.3,1.7h2.1V104H515.1z"/>
	<path class="st3" d="M526.3,100c-0.3,1-0.7,1.9-1.2,2.9v10.7h-1.8V106c-0.3,0.4-0.5,0.7-0.8,1c-0.3-0.6-0.6-1.3-1-1.9
		c1.4-1.7,2.4-3.6,3-5.7L526.3,100z M535.6,111.5v1.7h-10v-1.7h4.1V110h-3.3v-1.6h3.3v-1.3h-3.3v-7h8.5v7h-3.3v1.3h3.5v1.6h-3.5v1.5
		L535.6,111.5z M528.1,103h1.7v-1.3h-1.7V103z M528.1,105.7h1.7v-1.4h-1.7V105.7z M533.1,101.7h-1.7v1.3h1.7V101.7z M533.1,104.4
		h-1.7v1.4h1.7V104.4z"/>
	<path class="st3" d="M543.3,103.3h-5.8v-1.4h2.6c-0.3-0.7-0.6-1.3-1-1.9l1.4-0.7c0.4,0.6,0.8,1.3,1.1,2l-1,0.6h2.7L543.3,103.3z
		 M542.8,112.7h-3.2v0.6h-1.5v-5.2h4.8V112.7z M542.7,105.4h-4.6V104h4.6V105.4z M538.1,106.1h4.6v1.3h-4.6V106.1z M539.6,109.6v1.7
		h1.7v-1.7H539.6z M551.6,105.7v1.5H543v-1.5h1.8c0.1-0.5,0.2-1.1,0.3-1.7h-1.4v-1.4h1.6c0.1-0.4,0.1-0.8,0.2-1.1h-2.2V100h7.8v1.5
		h-3.8c-0.1,0.4-0.1,0.7-0.2,1.1h3.1v3.1L551.6,105.7z M543.8,107.9h7v5.6H549V113h-3.5v0.6h-1.7L543.8,107.9z M545.5,109.5v2h3.5
		v-2H545.5z M546.9,104c-0.1,0.6-0.2,1.2-0.3,1.7h2.1V104H546.9z"/>
	<path class="st0" d="M647.6,416.8h54c10.6,0,19.2,8.6,19.2,19.2l0,0c0,10.6-8.6,19.2-19.2,19.2h-54c-10.6,0-19.2-8.6-19.2-19.2l0,0
		C628.5,425.4,637.1,416.8,647.6,416.8z"/>
	<path class="st3" d="M655.4,432.9c-0.7,2-1.7,3.8-3.1,5.4c1.7,1.3,3.7,2.2,5.7,2.6c-0.5,0.5-0.9,1.1-1.2,1.7
		c-2.2-0.6-4.2-1.6-5.9-3c-1.8,1.4-3.9,2.5-6.1,3.1c-0.3-0.6-0.7-1.2-1.1-1.7c2.1-0.5,4.1-1.4,5.9-2.7c-1.4-1.6-2.5-3.4-3.2-5.5
		h-2.4v-1.7h6.4c-0.2-0.7-0.5-1.5-0.8-2.1l1.9-0.6c0.4,0.7,0.7,1.5,1,2.3l-1.3,0.4h6.6v1.8L655.4,432.9z M648.2,432.9
		c0.6,1.6,1.6,3,2.7,4.2c1.1-1.2,1.9-2.6,2.5-4.2H648.2z"/>
	<path class="st3" d="M665.1,429.2c-0.4,1-0.9,2-1.5,2.9v10.6h-1.7v-8.2c-0.4,0.6-0.9,1.1-1.5,1.6c-0.3-0.7-0.6-1.3-1-1.9
		c1.7-1.6,3-3.5,3.9-5.6L665.1,429.2z M671.1,440.8c0.8,0,0.9-0.6,1-3.1c0.5,0.4,1,0.6,1.6,0.8c-0.2,2.9-0.7,4-2.5,4h-2.5
		c-1.9,0-2.4-0.6-2.4-2.7v-10.9h1.8v3.9h5.3v1.7H668v5.3c0,0.9,0.1,1,0.8,1L671.1,440.8z"/>
	<path class="st3" d="M677.4,440.4h5.9v1.4h-7.4V429h1.5v4.8h6.5v1.3h-6.5V440.4z M677.4,430.8c0.2-0.1,0.4-0.2,0.5-0.4
		c0.4-0.6,0.7-1.2,0.9-1.8l1,0.4c-0.3,0.5-0.6,1.1-0.9,1.6l0.5-0.1c0.2-0.3,0.3-0.5,0.5-0.8l0.9,0.6c-0.5,0.8-1.1,1.5-1.7,2.2
		l0.5-0.1c0-0.1-0.1-0.2-0.1-0.4l0.7-0.3c0.2,0.5,0.4,1.1,0.5,1.6l-0.8,0.3c0-0.2,0-0.4-0.1-0.5c-0.7,0-1.4,0.2-2,0.4
		c-0.1-0.3-0.2-0.7-0.3-1c0.3-0.1,0.5-0.3,0.7-0.5c0.1-0.1,0.3-0.3,0.5-0.6c-0.3,0-0.6,0.1-0.9,0.2
		C677.6,431.5,677.5,431.2,677.4,430.8L677.4,430.8z M679.8,440.4c0-0.2,0-0.4-0.1-0.5c-0.7,0-1.4,0.2-2,0.4c-0.1-0.3-0.2-0.7-0.3-1
		c0.3-0.1,0.5-0.3,0.7-0.5c0.2-0.2,0.4-0.4,0.5-0.6c-0.3,0-0.6,0.1-0.9,0.3l0,0c-0.1-0.3-0.2-0.7-0.3-1c0.2-0.1,0.4-0.2,0.5-0.4
		c0.4-0.6,0.7-1.2,0.9-1.8l1,0.4c-0.3,0.5-0.6,1.1-0.9,1.6l0.5-0.1c0.2-0.3,0.3-0.5,0.5-0.8l0.9,0.6c-0.5,0.8-1.1,1.6-1.8,2.3
		l0.6-0.1c0-0.1-0.1-0.2-0.1-0.4l0.7-0.3c0.2,0.5,0.4,1.1,0.5,1.6L679.8,440.4z M680.5,430.8c0.2-0.1,0.4-0.2,0.5-0.4
		c0.4-0.6,0.7-1.2,0.9-1.8l1,0.4c-0.3,0.6-0.6,1.1-0.9,1.6l0.6-0.1c0.2-0.2,0.3-0.5,0.5-0.7l0.8,0.6c-0.5,0.8-1.1,1.5-1.7,2.1
		l0.7-0.1c0-0.1-0.1-0.3-0.2-0.4l0.8-0.3c0.2,0.5,0.4,1.1,0.5,1.7l-0.8,0.3c0-0.2-0.1-0.4-0.1-0.6c-0.7,0-1.5,0.2-2.2,0.4
		c-0.1-0.3-0.2-0.7-0.3-1c0.3-0.1,0.5-0.3,0.7-0.5c0.1-0.1,0.3-0.4,0.6-0.6c-0.3,0-0.7,0.1-1,0.2C680.8,431.5,680.7,431,680.5,430.8
		L680.5,430.8z M680.5,437.3c0.2,0,0.4-0.2,0.5-0.3c0.4-0.6,0.6-1.2,0.8-1.8l1,0.4c-0.2,0.6-0.5,1.1-0.8,1.6l0.5-0.1
		c0.2-0.3,0.3-0.5,0.4-0.8l0.9,0.6c-0.4,0.6-0.8,1.2-1.2,1.7l0.7-0.2c0.2,0.6,0.4,1.1,0.5,1.7l-0.8,0.3c0-0.2,0-0.4-0.1-0.5
		c-0.7,0-1.3,0.2-1.9,0.4c-0.1-0.3-0.2-0.7-0.3-1c0.3-0.1,0.5-0.3,0.7-0.5c0.2-0.2,0.4-0.4,0.5-0.7c-0.3,0-0.6,0.1-0.9,0.2
		C680.8,438,680.7,437.6,680.5,437.3L680.5,437.3z M682.5,439c0-0.1-0.1-0.3-0.2-0.4l-0.4,0.5L682.5,439z M689.5,434.8h-1.1v7.9H687
		v-7.9h-1.2v0.5c0,2.2-0.2,5.3-1.2,7.3c-0.4-0.3-0.8-0.6-1.2-0.8c0.9-1.9,1-4.5,1-6.5V430c1.2-0.3,2.4-0.8,3.6-1.4l1.3,1.1
		c-1.1,0.5-2.3,1-3.5,1.3v2.3h3.9L689.5,434.8z"/>
	<path class="st3" d="M704.5,432.7h-2.3l1,0.3l-0.5,0.5h1.8v4.1h-9.5v-4.1h1.9c-0.1-0.2-0.2-0.4-0.4-0.5l0.8-0.3h-2.6v0.9
		c0,2.6-0.2,6.5-1.8,9c-0.5-0.4-1-0.7-1.6-0.9c1.5-2.3,1.6-5.7,1.6-8.1v-4.5h11.6L704.5,432.7z M702.8,430.5h-8v0.8h8V430.5z
		 M695.8,438h8.2v4.7h-1.8v-0.4h-4.8v0.4h-1.7L695.8,438z M696.8,436.6h2.2v-2.1h-2.2V436.6z M698,434.6c0.4,0.4,0.7,0.9,0.9,1.4
		l-1.1,0.6c-0.2-0.5-0.5-1-0.8-1.4L698,434.6z M697.5,439.2v0.5h4.8v-0.5H697.5z M702.2,441.2v-0.6h-4.8v0.6H702.2z M701.1,433.5
		c0.2-0.3,0.4-0.5,0.5-0.8h-3.5c0.2,0.2,0.4,0.5,0.5,0.8H701.1z M702.8,434.5h-2.2v2.1h2.2V434.5z M700.6,436c0.4-0.4,0.7-0.9,1-1.5
		l1.1,0.6c-0.3,0.5-0.7,1-1.1,1.4L700.6,436z"/>
	<path class="st0" d="M618.3,504.8h54c10.6,0,19.2,8.6,19.2,19.2v0c0,10.6-8.6,19.2-19.2,19.2h-54c-10.6,0-19.2-8.6-19.2-19.2v0
		C599.1,513.4,607.7,504.8,618.3,504.8z"/>
	<path class="st3" d="M620.5,526.4v-4.5h-2.1v6.2h9.4v1.7h-11.3v-8h-2v-1.7h2V517h1.9v3.2h2.1v-3.5h1.8v3.5h2.1v-3.4h1.9v3.4h2v1.7
		h-2v4.5L620.5,526.4z M622.3,521.9v2.8h2.1v-2.8H622.3z"/>
	<path class="st3" d="M635.8,517.2c-0.4,1-0.9,1.9-1.4,2.8v10.7h-1.9v-8c-0.5,0.6-1,1.2-1.6,1.7c-0.3-0.6-0.6-1.3-1-1.8
		c1.8-1.6,3.2-3.6,4.1-5.9L635.8,517.2z M639.9,522.7c0.4,3.4,1.2,5.6,2.4,5.8c0.3,0,0.5-0.7,0.7-2.4c0.4,0.4,0.9,0.7,1.5,1
		c-0.4,2.9-1.2,3.6-2,3.6c-2.6-0.2-3.8-3.1-4.3-7.7l-3,0.4l-0.3-1.7l3.1-0.4c-0.1-1.4-0.2-2.8-0.2-4.4h1.8c0,1.5,0.1,2.9,0.2,4.2
		l4.3-0.6l0.3,1.7L639.9,522.7z M642.7,520c-0.6-0.9-1.3-1.8-2.1-2.5l1.3-0.8c0.8,0.7,1.6,1.5,2.2,2.4L642.7,520z"/>
	<path class="st3" d="M649.5,518.8h3v1.4h-6.3v-1.4h2.6c-0.3-0.6-0.6-1.2-1-1.7l1.5-0.7c0.5,0.6,0.9,1.2,1.2,1.8L649.5,518.8z
		 M646.6,523.2h5.4v1.4h-5.4L646.6,523.2z M651.7,530h-3.3v0.6h-1.6v-5.2h4.9V530z M651.7,521.1v1.3h-4.8v-1.3H651.7z M648.4,526.8
		v1.8h1.7v-1.8H648.4z M657.8,528.8c0.7,0,0.8-0.3,0.9-2.2c0.5,0.3,1.1,0.6,1.7,0.7c-0.2,2.5-0.7,3.2-2.4,3.2h-2.5
		c-1.9,0-2.5-0.5-2.5-2.4v-5.9h4.7V519H653v-1.7h6.5v7.3h-1.8v-0.7h-2.9v4.2c0,0.6,0.1,0.7,0.8,0.7L657.8,528.8z"/>
	<path class="st3" d="M661.9,523.5c0.3-1.3,0.6-2.6,0.6-4l1.2,0.2c0,1.4-0.2,2.8-0.6,4.2L661.9,523.5z M665.8,522.5
		c-0.1-0.7-0.3-1.4-0.5-2.1v10.3h-1.5v-14.2h1.5v2.8l0.7-0.3c0.2,0.6,0.5,1.4,0.7,2v-0.9h1.9c-0.1-0.3-0.2-0.6-0.3-0.9l1.3-0.3H667
		v-1.4h3.4c-0.1-0.3-0.2-0.5-0.3-0.8l1.6-0.2c0.2,0.3,0.3,0.7,0.4,1h3.3v1.4h-2.3l1.1,0.3c-0.2,0.3-0.4,0.7-0.5,1h2.3v1.4h-9.1
		c0,0.2,0.1,0.3,0.1,0.5L665.8,522.5z M665.7,529.6c0.4-0.9,0.8-1.8,1.1-2.7l1.3,0.6c-0.3,0.8-0.7,2-1.1,2.8L665.7,529.6z
		 M675.1,526.4h-3.7c0.5,0.4,1,0.9,1.4,1.4l-1.1,0.9c-0.6-0.7-1.2-1.4-1.9-2l0.4-0.3h-2.9V522h7.8L675.1,526.4z M672.2,529.2
		c0.4,0,0.5-0.2,0.6-1.2c0.4,0.3,0.9,0.4,1.3,0.5c-0.2,1.6-0.6,2-1.8,2h-2.1c-1.6,0-2-0.4-2-1.7v-1.7h1.5v1.7c0,0.4,0.1,0.4,0.7,0.4
		H672.2z M673.4,523.2H669v0.5h4.4L673.4,523.2z M673.4,524.8H669v0.6h4.4L673.4,524.8z M669.7,518.9c0.2,0.4,0.3,0.7,0.4,1.1
		l-0.6,0.2h2.5c0.2-0.4,0.4-0.9,0.5-1.3H669.7z M674.6,526.6c0.6,0.9,1.1,1.8,1.6,2.7l-1.3,0.7c-0.5-1-1-1.9-1.6-2.8L674.6,526.6z"
		/>
	<path class="st0" d="M497.4,529.5h54c10.6,0,19.2,8.6,19.2,19.2v0c0,10.6-8.6,19.2-19.2,19.2h-54c-10.6,0-19.2-8.6-19.2-19.2v0
		C478.3,538.1,486.8,529.5,497.4,529.5z"/>
	<path class="st3" d="M505.2,545.5c-0.7,2-1.7,3.8-3.1,5.4c1.7,1.3,3.7,2.2,5.7,2.6c-0.5,0.5-0.9,1.1-1.2,1.7
		c-2.2-0.6-4.2-1.6-5.9-3c-1.8,1.4-3.9,2.5-6.1,3.1c-0.3-0.6-0.7-1.2-1.1-1.7c2.1-0.5,4.1-1.4,5.9-2.7c-1.4-1.6-2.5-3.4-3.2-5.5
		h-2.4v-1.8h6.4c-0.2-0.7-0.5-1.5-0.9-2.1l1.9-0.6c0.4,0.7,0.7,1.5,1,2.3l-1.3,0.4h6.6v1.8L505.2,545.5z M497.9,545.5
		c0.6,1.6,1.6,3,2.7,4.2c1.1-1.2,1.9-2.6,2.5-4.2H497.9z"/>
	<path class="st3" d="M514.8,541.8c-0.4,1-0.9,2-1.5,2.9v10.7h-1.7v-8.2c-0.4,0.6-0.9,1.1-1.5,1.6c-0.3-0.7-0.6-1.3-1-1.9
		c1.7-1.6,3-3.5,3.9-5.7L514.8,541.8z M520.8,553.4c0.8,0,0.9-0.6,1-3.1c0.5,0.4,1,0.6,1.6,0.8c-0.2,2.9-0.7,4-2.5,4h-2.5
		c-1.9,0-2.4-0.6-2.4-2.7v-10.9h1.7v3.8h5.3v1.7h-5.3v5.3c0,0.9,0.1,1,0.8,1L520.8,553.4z"/>
	<path class="st3" d="M537.5,550.8h1.9v1.4h-1.9v1.6c0,0.8-0.2,1.2-0.7,1.4c-0.8,0.2-1.6,0.3-2.5,0.2c-0.1-0.5-0.3-1-0.5-1.5
		c0.7,0,1.5,0,1.7,0s0.3-0.1,0.3-0.2v-1.5h-3.4c0.6,0.5,1.1,1.1,1.5,1.7l-1.4,0.9c-0.5-0.8-1.1-1.5-1.8-2.1l0.8-0.5h-2.1v-1.4h6.4
		v-0.7l-5.9,0.1l-0.2-1.3h4v-0.6h-3.3v-4.2h3.3v-0.6h-4v-0.7c-0.3,0.7-0.7,1.4-1,2.1v10.4H527v-7.7c-0.3,0.4-0.6,0.8-1,1.2
		c-0.3-0.6-0.6-1.3-1-1.9c1.5-1.6,2.7-3.6,3.4-5.7l1.7,0.5l-0.2,0.4h3.7v-0.9h1.7v0.9h3.9v1.3h-3.9v0.6h3.5v4.2h-0.7
		c0.5,0.5,1,1,1.4,1.6l-1.3,0.7c-0.1-0.2-0.2-0.3-0.4-0.5h-0.5L537.5,550.8z M532,545.7h1.7v-0.6H532V545.7z M533.7,547.3v-0.6H532
		v0.6H533.7z M535.4,545.1v0.6h1.7v-0.6H535.4z M537.2,546.7h-1.7v0.6h1.7V546.7z M535.4,548.9h1.5c-0.2-0.2-0.4-0.3-0.5-0.5
		l0.1-0.1h-1L535.4,548.9z"/>
	<path class="st3" d="M545.9,545.2c-0.5,4-1.8,7.2-3.5,8.9c-0.4-0.5-0.8-1-1.3-1.4c1.6-1.7,2.6-3.9,2.9-6.2h-2.3v-1.6h2.9l0.3-0.1
		L545.9,545.2z M549.3,550.6h2.3v1.5h-2.3v1.2c0,0.9-0.2,1.4-0.8,1.7c-0.9,0.3-1.8,0.4-2.7,0.3c-0.1-0.6-0.3-1.2-0.6-1.7
		c0.8,0,1.7,0,1.9,0s0.4-0.1,0.4-0.3v-1.2h-2.5v-1.5h2.5v-0.9h-1.8v-1.5h1.8v-0.8h-1.5v-1.5h1.5v-1.1c0.8-0.4,1.6-0.9,2.3-1.5h-6.2
		v-1.6h7.9l0.4-0.1l1.2,0.9c-1.1,1.2-2.4,2.2-3.9,3v0.4h1.4v1.5h-1.4v0.8h1.6v1.5h-1.6L549.3,550.6z M555.1,545.1
		c-0.8,0.7-1.6,1.3-2.4,1.9c0.5,2.3,1.4,4.5,2.8,5.6c-0.5,0.4-0.9,0.9-1.3,1.5c-1.8-1.6-2.7-4.4-3.3-7.6c1-0.7,1.9-1.6,2.7-2.5
		L555.1,545.1z"/>
	<path class="st0" d="M135.8,415.7H169c10.6,0,19.2,8.6,19.2,19.2l0,0c0,10.6-8.6,19.2-19.2,19.2h-33.2c-10.6,0-19.2-8.6-19.2-19.2
		l0,0C116.6,424.3,125.2,415.7,135.8,415.7z"/>
	<path class="st3" d="M143.2,433.2c0,0,0,0.5,0,0.7c-0.1,4.5-0.1,6.2-0.5,6.7c-0.2,0.4-0.6,0.6-1,0.6c-0.5,0.1-1.1,0.1-1.6,0.1
		c0-0.6-0.2-1.1-0.4-1.6c0.5,0,0.9,0,1.1,0c0.2,0,0.3-0.1,0.4-0.2c0.2-0.3,0.3-1.5,0.3-4.7h-1.1c-0.2,2.8-0.7,5.1-2,6.8
		c-0.3-0.5-0.7-0.9-1.2-1.3c1.5-1.9,1.6-5,1.6-8.9h-1.4v-1.6h2.6c-0.3-0.6-0.6-1.3-0.9-1.9l1.6-0.5c0.4,0.7,0.8,1.3,1.1,2.1
		l-0.9,0.3h2.5v1.3c0.8-1.1,1.3-2.3,1.7-3.5l1.6,0.4c-0.1,0.5-0.3,0.9-0.5,1.4h5.1v1.6h-5.9c-0.4,0.7-0.8,1.3-1.3,1.9
		c-0.4-0.4-0.9-0.7-1.4-1c0.1-0.1,0.2-0.2,0.3-0.3h-2.6c0,0.6,0,1.2,0,1.8L143.2,433.2z M150.1,441.6c-0.6-1.2-1.4-2.4-2.1-3.6
		c-0.7,1.6-2,2.9-3.6,3.6c-0.3-0.5-0.7-0.9-1.2-1.2c1.5-0.6,2.7-1.7,3.3-3.3h-2.7v-1.6h2.9V434h-0.6c-0.3,0.5-0.6,0.9-1,1.3
		c-0.4-0.4-0.9-0.7-1.4-0.9c0.9-0.9,1.6-2.1,2-3.3l1.6,0.4c-0.1,0.3-0.2,0.6-0.4,1h4v1.6h-2.4v1.6h2.9v1.6h-3.1
		c-0.1,0.3-0.1,0.5-0.2,0.8l1.3-0.6c0.8,1.1,1.6,2.3,2.3,3.5L150.1,441.6z"/>
	<path class="st3" d="M160,435.8v5.1h-3.6v0.7h-1.6v-3.5c-0.2,0.2-0.4,0.5-0.6,0.7c-0.3-0.5-0.7-0.9-1.1-1.3
		c0.8-0.8,1.4-1.8,1.7-2.9H154v-1.5h1.1c0-0.3,0.1-0.6,0.1-0.9h-2v-1.5h2.2c0-0.3,0-0.6,0.1-1h-1.4v-1.5h5.6v2.5h0.7v1.5h-0.7v2.5
		h-3.3c-0.1,0.4-0.2,0.8-0.4,1.2L160,435.8z M156.4,437.3v2h1.8v-2H156.4z M156.9,432.2c0,0.3-0.1,0.6-0.1,0.9h1.3v-0.9H156.9z
		 M157.1,429.7c0,0.3,0,0.7-0.1,1h1v-1H157.1z M167.4,438.3h-2.7v3.3H163v-3.3h-2.6v-1.7h2.6V435h-2v-1.6h2V432h-2.2v-1.6h0.9
		c-0.2-0.8-0.5-1.6-0.9-2.3l1.4-0.5c0.5,0.8,0.8,1.6,1,2.5l-1,0.4h3.3l-1.3-0.3c0.4-0.8,0.7-1.7,0.9-2.6l1.7,0.4
		c-0.4,0.9-0.8,1.9-1.1,2.5h1.3v1.6h-2.4v1.4h2.2v1.6h-2.2v1.6h2.7L167.4,438.3z"/>
	<path class="st0" d="M195.6,125.8h56.1c10.6,0,19.2,8.6,19.2,19.2l0,0c0,10.6-8.6,19.2-19.2,19.2h-56.1c-10.6,0-19.2-8.6-19.2-19.2
		l0,0C176.5,134.4,185.1,125.8,195.6,125.8z"/>
	<path class="st3" d="M197.5,144.4c-0.4,0.6-0.9,1.1-1.5,1.6c-0.2-0.3-0.4-0.5-0.6-0.7c0,2.2-0.5,4.3-1.3,6.4
		c-0.5-0.3-1-0.6-1.5-0.9c1.1-2.3,1.2-5.7,1.2-8.1v-4.6h12.8v1.6h-11.1v3c0,0.6,0,1.2,0,1.9c0.5-0.4,1-0.9,1.4-1.4h-1V142h1.6v-0.7
		c-0.5,0-1,0.1-1.4,0.1c-0.1-0.3-0.2-0.7-0.4-1c1.2-0.1,2.5-0.3,3.6-0.6l1.1,0.9c-0.5,0.2-1,0.3-1.5,0.4v0.9h1.6v1.3h-1.4
		c0.4,0.3,1.2,0.7,1.4,0.9l-0.9,1.1c-0.1-0.2-0.4-0.4-0.7-0.7v1.5h-1.5L197.5,144.4z M201.9,149.8h4.7v1.5h-11.5v-1.5h1.6V147h1.7
		v2.9h1.6v-4h0.8c-0.3-0.4-0.6-0.7-0.9-1c0.7-0.4,1.3-1,1.8-1.7h-1V142h1.7v-0.7c-0.5,0.1-1.1,0.1-1.6,0.1c-0.1-0.4-0.2-0.7-0.4-1
		c1.4-0.1,2.8-0.3,4.1-0.7l1.1,0.9c-0.6,0.2-1.1,0.3-1.7,0.4v1h2.1v1.3h-1.9c0.6,0.4,2,1.3,2.4,1.6L206,146c-0.4-0.4-1.2-1-1.8-1.6
		v1.6h-1.5v-1.8c-0.4,0.6-0.8,1.2-1.4,1.7h0.7v1.2h3.4v1.4h-3.4L201.9,149.8z"/>
	<path class="st3" d="M216.7,145.3c-0.1,1.2-0.5,2.3-1.1,3.3c1.9,0.8,4.3,1,7.4,1c-0.4,0.6-0.7,1.2-0.8,1.9c-3.3-0.2-5.9-0.5-8-1.6
		c-1.3,0.9-2.8,1.5-4.4,1.8c-0.3-0.6-0.7-1.1-1.1-1.6c1.4-0.2,2.7-0.6,3.9-1.3c-0.9-0.8-1.6-1.7-2.1-2.8l1.6-0.6
		c0.5,0.9,1.1,1.6,1.8,2.2c0.5-0.7,0.8-1.5,0.8-2.4h-4.9v-5.6h5v-2.1h1.9v2.1h5v5.6H216.7z M211.6,143.6h3.2v-2.1h-3.2V143.6z
		 M216.7,141.4v2.1h3.1v-2.1H216.7z"/>
	<path class="st3" d="M232,142.8c0,2.5-0.2,6.4-1.4,8.9c-0.4-0.3-0.8-0.5-1.3-0.7c-0.1,0.1-0.2,0.2-0.3,0.3
		c-0.6,0.3-1.2,0.4-1.9,0.3c-0.1-0.5-0.2-1-0.4-1.5c0.5,0,1,0,1.2,0s0.2-0.1,0.2-0.2v-3.6l-0.9,0.9l-0.4-1c0,1.9-0.4,3.8-1,5.6
		c-0.4-0.4-0.8-0.7-1.2-1c0.8-2.1,0.9-5.1,0.9-7.3V138h4.2v12c0.7-2.3,1-4.8,0.9-7.2v-4c2.4-0.2,4.7-0.7,7-1.3l1.1,1.6
		c-2.1,0.5-4.3,0.9-6.4,1.1L232,142.8z M226.8,143.5c0,0.6,0,1.4,0,2.2c0.4-0.2,0.8-0.6,1.3-0.9v-1.5l-0.5,0.4
		c-0.2-0.4-0.5-0.7-0.7-1.1L226.8,143.5z M226.8,139.7v1.9l0.5-0.3l0.8,0.9v-2.5L226.8,139.7z M238.8,144.9c-0.7,0.5-1.2,1-1.7,1.4
		c0.2,1.4,0.8,2.7,1.7,3.7c-0.5,0.4-0.9,0.9-1.2,1.4c-1.5-1.8-2.1-4.9-2.5-8.4c-0.3,0.1-0.6,0.1-0.9,0.1v5.8l1.3-0.5
		c0.1,0.5,0.2,0.9,0.4,1.4c-2.4,1.1-2.9,1.4-3.2,1.7c-0.2-0.4-0.5-0.8-0.8-1.2c0.5-0.4,0.8-0.9,0.9-1.5v-7c1.5-0.2,3-0.6,4.5-1.2
		l1.2,1.5c-0.7,0.2-1.3,0.4-2,0.6c0.1,0.6,0.1,1.3,0.2,1.9c0.3-0.4,0.6-0.8,0.9-1.2L238.8,144.9z"/>
	<path class="st3" d="M244.7,147c0-0.2-0.1-0.5-0.1-0.8c-1.2,0.1-2.4,0.4-3.6,0.8c-0.1-0.3-0.4-1.1-0.6-1.6c0.4-0.1,0.7-0.4,1.2-1
		c0.3-0.4,0.6-0.8,0.9-1.2c-0.6,0-1.2,0.1-1.7,0.3c-0.1-0.3-0.4-1.1-0.5-1.5c0.3-0.1,0.6-0.4,0.9-0.8c0.8-1.1,1.4-2.4,1.9-3.7
		l1.6,0.7c-0.6,1.3-1.3,2.5-2.1,3.7l1-0.1c0.4-0.6,0.8-1.4,1.1-2l1.5,0.9c-0.6,1.1-1.3,2.1-2,3.1l1.1-0.3c0.4,1,0.7,2.1,0.9,3.2
		L244.7,147z M242.5,147.7c-0.1,1.3-0.3,2.5-0.7,3.7c-0.5-0.2-0.9-0.4-1.4-0.5c0.4-1.1,0.6-2.3,0.6-3.4L242.5,147.7z M244.1,147.4
		c0.2,1.1,0.3,2.2,0.4,3.3l-1.4,0.3c-0.1-1.1-0.2-2.2-0.4-3.3L244.1,147.4z M244.3,144.9c-0.1-0.4-0.2-0.7-0.3-1.1
		c-0.3,0.4-0.6,0.9-1,1.2L244.3,144.9z M245.6,147c0.3,0.9,0.6,1.9,0.8,2.9l-1.3,0.4c-0.2-1-0.4-2-0.8-2.9L245.6,147z M254.1,139.5
		c-0.5,1.5-1.4,2.8-2.4,3.9c1,0.7,2,1.3,3.2,1.7c-0.4,0.5-0.8,1-1.1,1.5l0,0v5H252v-0.5h-3.1v0.5h-1.7v-5l-0.3,0.1
		c-0.3-0.5-0.6-1-1-1.4c1.2-0.5,2.4-1.1,3.4-2c-0.4-0.5-0.8-1-1.1-1.5c-0.4,0.4-0.8,0.8-1.2,1.1c-0.4-0.5-0.9-0.9-1.3-1.3
		c1.4-1.1,2.5-2.6,3.2-4.3l1.7,0.5c-0.1,0.4-0.3,0.7-0.5,1h2.5l0.3-0.1L254.1,139.5z M252.5,146c-0.7-0.4-1.4-0.9-2-1.4
		c-0.6,0.5-1.3,1-2.1,1.4H252.5z M251.9,149.6v-2h-3.1v2H251.9z M249.1,140.6c0.4,0.6,0.8,1.2,1.3,1.7c0.5-0.6,0.9-1.2,1.3-1.8h-2.5
		L249.1,140.6z"/>
	<path class="st3" d="M133.4,69.6V71h-13.1v-1.4h2.2c-0.2-0.7-0.5-1.3-0.9-1.9l1.1-0.4h-1.6v-1.4h2.5c-0.2-0.4-0.5-0.8-0.7-1.1
		l1.5-0.6c0.4,0.4,0.7,0.9,1,1.4l-0.6,0.3h3.5c0.4-0.5,0.7-1.1,1-1.7l1.7,0.5c-0.2,0.4-0.5,0.8-0.8,1.2h2.6v1.4h-1.9l1.2,0.3
		c-0.4,0.7-0.7,1.5-1.1,2L133.4,69.6z M122.1,71.6h9.5v6h-1.8v-0.4h-6.1v0.4h-1.7V71.6z M123,67.2c0.4,0.6,0.7,1.2,1,1.9l-1.2,0.5
		h1.8v-2.3L123,67.2z M123.8,72.9v0.9h6.1v-0.9H123.8z M129.9,75.9V75h-6.1v0.9L129.9,75.9z M127.4,67.2h-1.2v2.3h1.2V67.2z
		 M129.6,69.2c0.3-0.6,0.6-1.3,0.8-2H129v2.3h1.7L129.6,69.2z"/>
	<path class="st3" d="M139.3,70.9c-0.2,1.3-0.6,2.5-1.1,3.8c0.2,0.1,0.5,0.3,0.9,0.6c1.3,0.6,2.6,0.8,4,0.7c1.9,0,3.9-0.1,5.8-0.4
		c-0.2,0.6-0.4,1.2-0.5,1.8c-1.2,0.1-3.7,0.2-5.4,0.2c-1.4,0.1-2.9-0.1-4.2-0.8c-0.6-0.3-1.1-0.8-1.4-0.8s-0.9,1-1.2,1.8l-1.1-1.6
		c0.4-0.5,0.9-1,1.5-1.4c0.4-0.8,0.6-1.6,0.8-2.5h-1.8c0.3-0.8,0.7-2,1-3.1h-1.3v-1.5h3.4c-0.3,1-0.6,2.2-1,3.2h0.6l0.3-0.1
		L139.3,70.9z M136.9,67.2c-0.2-0.7-0.5-1.7-0.8-2.5l1.5-0.5c0.3,0.8,0.6,1.7,0.8,2.4L136.9,67.2z M141.6,75.2H140v-7.4h3.2
		c-0.7-0.3-1.3-0.6-1.9-0.8l1.1-0.9c0.5,0.2,1.1,0.4,1.7,0.7c0.4-0.2,0.8-0.5,1.1-0.8h-5.1v-1.3h6.6l0.4-0.1l1,0.8
		c-0.8,0.8-1.6,1.4-2.6,2c0.3,0.2,0.6,0.3,0.9,0.4h1.7v5.9c0,0.7-0.1,1.1-0.6,1.3c-0.6,0.2-1.3,0.3-1.9,0.2
		c-0.1-0.5-0.2-0.9-0.4-1.3h1.1c0.2,0,0.2-0.1,0.2-0.2v-0.7h-1.7v2.1h-1.5v-2.1h-1.7L141.6,75.2z M141.6,69.1v0.8h1.7v-0.8H141.6z
		 M143.3,71.8V71h-1.7v0.8L143.3,71.8z M146.5,69.1h-1.7v0.8h1.7V69.1z M146.5,71.8V71h-1.7v0.8L146.5,71.8z"/>
	<path class="st3" d="M153.4,66.6h2.6v1.3h-5.6v-1.3h2.5c-0.3-0.6-0.6-1.2-0.9-1.8l1.3-0.6c0.4,0.6,0.8,1.3,1.1,1.9L153.4,66.6z
		 M155.5,76.9h-3.1v0.6H151v-5h4.5L155.5,76.9z M155.4,69.9H151v-1.3h4.4L155.4,69.9z M151,70.5h4.4v1.3H151L151,70.5z M152.4,73.9
		v1.6h1.6v-1.6L152.4,73.9z M160.6,70.1v2h2.5v5.5h-1.6v-0.5h-3.2v0.5h-1.6v-5.5h2.4v-2H156v-1.6h3.1v-2c-0.8,0.1-1.6,0.2-2.3,0.2
		c-0.1-0.5-0.2-0.9-0.4-1.4c2-0.2,4-0.5,5.9-1.1l1,1.4c-0.9,0.3-1.7,0.5-2.6,0.6v2.3h3.2v1.6L160.6,70.1z M161.5,73.7h-3.2v1.9h3.2
		V73.7z"/>
	<path class="st3" d="M178.6,66.3v2.4H177v-1.4h-0.8l0.5,0.6c-0.7,0.2-1.3,0.4-2,0.6c0.8,0.1,1.5,0.3,2.3,0.6l-0.3,1
		c-1.1-0.4-2.2-0.6-3.3-0.8l0.3-0.9h0.3l-0.4-0.5c0.6-0.1,1.2-0.3,1.8-0.5H173v2.6h-1.7v-2.6h-2.2c0.6,0.1,1.2,0.3,1.7,0.4l-0.3,0.7
		l0.4-0.1l0.1,0.9l-3,0.7h0.2v0.5h1.9v-0.5h1.4v0.5h1.1v1h-1.1v1.2h-1.7V73h2.3v2.2h-2.3v0.4h2.5v1h-2.5v1.1h-1.4v-1h-2.7v-1h2.7
		v-0.4h-2.2V73h2.2v-0.4H167v-1.2h-1.1v-1h1.1v-0.5h1l-0.4-1.1c0.7-0.1,1.6-0.2,2.6-0.4c-0.7-0.2-1.4-0.4-2.1-0.5l0.4-0.7h-0.9v1.4
		H166v-2.4h5.4v-0.4H167v-1.2h10.6v1.2H173v0.4H178.6z M168.4,74.3v-0.6h-1v0.6H168.4z M168.3,71.3v0.4h1.9v-0.4H168.3z M169.9,73.8
		v0.6h1v-0.6H169.9z M178.2,76c0,0.7-0.1,1.1-0.6,1.3c-0.6,0.2-1.3,0.3-2,0.2c-0.1-0.5-0.2-0.9-0.4-1.3h1.2c0.2,0,0.2-0.1,0.2-0.2
		v-0.8h-2.3c-0.1,0.9-0.4,1.7-0.9,2.5c-0.4-0.3-0.9-0.5-1.3-0.7c0.8-1.2,1.1-2.6,1-4.1v-2.7h5.1L178.2,76z M176.6,74v-0.8h-2.1
		c0,0.2,0,0.5,0,0.8H176.6z M174.5,71.4v0.7h2.1v-0.7H174.5z"/>
	<path class="st3" d="M184.6,72.3c-0.1-0.3-0.4-0.8-0.6-1.3v6.6h-1.5v-6c-0.3,1.2-0.8,2.3-1.3,3.3c-0.2-0.6-0.4-1.2-0.8-1.7
		c0.9-1.5,1.5-3.1,1.9-4.7h-1.5v-1.6h1.7v-2.7h1.4v2.7h1.4v1.6H184v0.6c0.4,0.4,1.3,1.7,1.5,2.1L184.6,72.3z M190.6,76h3.4v1.2h-6.4
		v0.5h-1.5v-4.2c-0.2,0.2-0.4,0.3-0.5,0.5c-0.2-0.5-0.5-1-0.8-1.4c0.8-0.7,1.5-1.5,2-2.5h-1.1v-2.9h3.6v2.9h-1.6l0.6,0.2
		c-0.1,0.2-0.2,0.5-0.4,0.7h1.2c-0.1-0.2-0.1-0.4-0.2-0.6l1.4-0.4h-0.5v-2.9h3.6v2.9h-3.1c0.1,0.3,0.2,0.6,0.3,0.9h2.9v1.1h-3v0.6
		h2.5v1.1h-2.5v0.6h2.5v1.1h-2.5L190.6,76z M187.5,66.4h-2.3v-1.2h2.3v-1h1.5V67h-1.5V66.4z M186.9,69h1.1v-0.8h-1.1V69z
		 M189.2,72.6v-0.6h-1.6v0.6H189.2z M189.2,73.7h-1.6v0.6h1.6L189.2,73.7z M187.6,76h1.6v-0.6h-1.6V76z M194.1,65.2v1.2h-2.5v0.5
		h-1.5v-2.7h1.5v1L194.1,65.2z M191.1,69h1.1v-0.8h-1.1V69z"/>
	<path class="st0" d="M175.8,559.6H129c-9.4,0-23-7.7-23-17.1l0,0c0-9.5,13.5-17.1,23-17.1h46.8c9.4,0,23,7.7,23,17.1l0,0
		C198.8,552,185.2,559.6,175.8,559.6z"/>
	<path class="st3" d="M122.9,541c0,0,0,0.4,0,0.6c-0.1,4-0.1,5.5-0.5,6c-0.2,0.3-0.5,0.5-0.9,0.6c-0.5,0.1-0.9,0.1-1.4,0
		c0-0.5-0.2-1-0.4-1.4c0.4,0,0.8,0,1,0c0.2,0,0.3-0.1,0.4-0.2c0.2-0.3,0.2-1.3,0.3-4.2h-1c-0.2,2.5-0.6,4.6-1.7,6.1
		c-0.3-0.4-0.7-0.8-1.1-1.1c1.3-1.7,1.4-4.5,1.4-7.9h-1.3V538h2.3c-0.2-0.6-0.5-1.1-0.8-1.7l1.4-0.5c0.4,0.6,0.7,1.2,1,1.8l-0.8,0.3
		h2.2v1.1c0.7-1,1.2-2,1.5-3.2l1.4,0.3c-0.1,0.4-0.3,0.8-0.4,1.2h4.6v1.5h-5.3c-0.3,0.6-0.7,1.1-1.1,1.7c-0.4-0.3-0.8-0.6-1.2-0.8
		l0.2-0.3h-2.3c0,0.5,0,1,0,1.6L122.9,541z M129.1,548.5c-0.6-1.1-1.2-2.1-1.9-3.2c-0.6,1.4-1.7,2.6-3.2,3.2
		c-0.3-0.4-0.7-0.8-1.1-1.1c1.4-0.5,2.4-1.6,2.9-2.9h-2.4v-1.4h2.6v-1.4h-0.6c-0.3,0.4-0.6,0.8-0.9,1.2c-0.4-0.3-0.8-0.6-1.2-0.8
		c0.8-0.8,1.4-1.9,1.8-3l1.4,0.3c-0.1,0.3-0.2,0.6-0.3,0.9h3.6v1.4h-2.2v1.4h2.6v1.4h-2.8c-0.1,0.2-0.1,0.5-0.2,0.7l1.1-0.6
		c0.7,1,1.4,2,2.1,3.1L129.1,548.5z"/>
	<path class="st3" d="M137.9,543.3v4.6h-3.2v0.7h-1.5v-3.1c-0.2,0.2-0.4,0.4-0.6,0.6c-0.3-0.4-0.6-0.8-1-1.2
		c0.7-0.7,1.2-1.6,1.5-2.6h-0.7v-1.3h1c0-0.3,0.1-0.5,0.1-0.8h-1.8v-1.3h1.9c0-0.3,0-0.6,0.1-0.9h-1.2v-1.3h5v2.2h0.7v1.3h-0.7v2.2
		h-2.9c-0.1,0.3-0.2,0.7-0.3,1L137.9,543.3z M134.8,544.7v1.8h1.6v-1.8H134.8z M135.1,540.1c0,0.3-0.1,0.5-0.1,0.8h1.1v-0.8H135.1z
		 M135.4,537.9c0,0.3,0,0.6-0.1,0.9h0.9v-0.9H135.4z M144.5,545.6h-2.4v3h-1.6v-3h-2.3v-1.5h2.3v-1.4h-1.8v-1.5h1.8v-1.2h-2v-1.4
		h0.8c-0.2-0.7-0.4-1.4-0.8-2.1l1.3-0.5c0.4,0.7,0.7,1.4,0.9,2.2l-0.9,0.3h2.9l-1.1-0.3c0.3-0.8,0.6-1.5,0.8-2.3l1.6,0.4
		c-0.3,0.8-0.7,1.7-1,2.3h1.2v1.5h-2.2v1.2h1.9v1.5h-1.9v1.4h2.4L144.5,545.6z"/>
	<path class="st3" d="M158.4,541.6v1.4h-7.8c-0.4,2.1-1.6,4.1-3.2,5.5c-0.4-0.4-0.9-0.8-1.3-1.1c1.5-1,2.5-2.6,2.9-4.4h-2.4v-1.4
		h5.2v-0.7h-3.9v-1.3h3.9v-0.7H147v-1.4h2.4c-0.2-0.4-0.4-0.7-0.6-1l1.4-0.5c0.4,0.5,0.7,1,0.9,1.5H151h2.9c0.3-0.5,0.6-1,0.8-1.6
		l1.8,0.4c-0.3,0.4-0.6,0.8-0.8,1.2h2.4v1.4h-4.8v0.7h4v1.3h-4v0.7L158.4,541.6z M154.4,546.8h3.8v1.4h-9.1v-1.4h3.7v-1.7h-2.4v-1.4
		h6.9v1.4h-2.9V546.8z"/>
	<path class="st3" d="M169.2,546.1c1.3,0.5,2.7,1,3.6,1.4l-1.4,1.1c-1.3-0.6-2.6-1.2-3.9-1.7l0.8-0.8h-3.6l1.1,0.8
		c-1.3,0.8-2.7,1.3-4.2,1.7c-0.3-0.4-0.6-0.8-1-1.2c1.2-0.3,2.4-0.7,3.6-1.3h-3.6v-1.4h3.1v-1h-2.2v-1.4h2.2v-0.9h-1.8v-5h9.6v5
		h-1.8v0.9h2.3v1.4h-2.3v1h3.1v1.4L169.2,546.1z M163.3,538.3h2.4v-0.7h-2.4V538.3z M163.3,540.2h2.4v-0.8h-2.4V540.2z M165.2,542.3
		h2.7v-0.9h-2.7V542.3z M165.2,544.7h2.7v-1h-2.7V544.7z M169.8,537.6h-2.5v0.7h2.5V537.6z M169.8,539.4h-2.5v0.8h2.5V539.4z"/>
	<path class="st3" d="M187,546.6v1.5h-8.4v-1.5h3.6v-2.7h-2.6v-1.5h2.6v-2.2h-1.5c-0.2,0.6-0.4,1.3-0.7,1.8
		c-0.5-0.3-0.9-0.5-1.4-0.7c0.1-0.2,0.3-0.5,0.4-0.8l-0.8,0.3c-0.1-0.5-0.3-1-0.5-1.5v9.2h-1.6v-9.7c-0.1,1.2-0.3,2.4-0.6,3.6
		l-1.2-0.4c0.4-1.1,0.6-2.3,0.7-3.5l1.1,0.2v-2.7h1.6v2.6l0.8-0.3c0.3,0.6,0.5,1.1,0.7,1.7c0.4-1.1,0.6-2.2,0.7-3.3l1.6,0.2
		c-0.1,0.6-0.2,1.3-0.3,1.9h1.1V536h1.6v2.7h2.8v1.5h-2.8v2.2h2.5v1.5h-2.5v2.7L187,546.6z"/>
	<path class="st3" d="M239.2,589.8c0,0,0,0.4,0,0.5c-0.1,3.5-0.1,4.8-0.4,5.2c-0.2,0.3-0.5,0.5-0.8,0.5c-0.4,0-0.8,0-1.2,0
		c0-0.4-0.1-0.8-0.3-1.2c0.4,0,0.7,0,0.9,0c0.1,0,0.3-0.1,0.3-0.2c0.1-0.2,0.2-1.1,0.3-3.6h-0.9c0,1.8-0.5,3.7-1.5,5.2
		c-0.2-0.4-0.6-0.7-0.9-1c1.1-1.5,1.2-3.9,1.2-6.8h-1.1V587h2c-0.2-0.5-0.4-1-0.7-1.4l1.2-0.4c0.3,0.5,0.6,1,0.9,1.6l-0.7,0.3h1.9
		v0.9c0.6-0.8,1-1.7,1.3-2.7l1.2,0.3c-0.1,0.4-0.2,0.7-0.4,1.1h3.9v1.4H241c-0.3,0.5-0.6,1-1,1.4c-0.3-0.3-0.7-0.5-1.1-0.7l0.2-0.2
		h-2c0,0.5,0,0.9,0,1.3L239.2,589.8z M244.6,596.2c-0.5-0.9-1.1-1.8-1.7-2.7c-0.5,1.2-1.5,2.2-2.7,2.8c-0.3-0.4-0.6-0.7-0.9-0.9
		c1.2-0.4,2.1-1.3,2.5-2.5h-2v-1.2h2.2v-1.2h-0.5c-0.2,0.4-0.5,0.7-0.8,1c-0.3-0.3-0.7-0.5-1.1-0.7c0.7-0.7,1.2-1.6,1.5-2.5l1.2,0.3
		c-0.1,0.3-0.2,0.5-0.3,0.7h3.1v1.2h-1.9v1.2h2.2v1.2h-2.4c-0.1,0.2-0.1,0.4-0.2,0.6l1-0.5c0.6,0.9,1.2,1.7,1.8,2.7L244.6,596.2z"/>
	<path class="st3" d="M252.1,591.8v3.9h-2.7v0.6h-1.2v-2.7c-0.1,0.2-0.3,0.4-0.5,0.5c-0.2-0.4-0.5-0.7-0.9-1
		c0.6-0.6,1.1-1.4,1.3-2.2h-0.6v-1.2h0.9c0-0.2,0.1-0.5,0.1-0.7H247v-1.2h1.7c0-0.2,0-0.5,0-0.8h-1.1v-1.2h4.3v1.9h0.6v1.2h-0.6v1.9
		h-2.5c-0.1,0.3-0.2,0.6-0.3,0.9L252.1,591.8z M249.4,592.9v1.5h1.4v-1.5H249.4z M249.8,588.9c0,0.2-0.1,0.5-0.1,0.7h1V589
		L249.8,588.9z M249.9,587c0,0.2,0,0.5-0.1,0.8h0.7V587H249.9z M257.8,593.6h-2.1v2.5h-1.3v-2.5h-2v-1.3h2v-1.2h-1.6v-1.3h1.6v-1.1
		h-1.7v-1.2h0.7c-0.1-0.6-0.4-1.2-0.7-1.8l1.1-0.4c0.4,0.6,0.6,1.2,0.8,1.9l-0.7,0.3h2.5l-1-0.3c0.3-0.6,0.5-1.3,0.7-2l1.3,0.3
		c-0.3,0.7-0.6,1.4-0.9,1.9h1v1.2h-1.9v1.1h1.7v1.3h-1.7v1.2h2.1L257.8,593.6z"/>
	<path class="st3" d="M261.7,587.1h2.3v1.1h-4.8v-1.1h2c-0.2-0.5-0.5-0.9-0.8-1.3l1.1-0.5c0.4,0.4,0.7,0.9,0.9,1.4L261.7,587.1z
		 M259.5,590.5h4.1v1h-4.1L259.5,590.5z M263.4,595.7h-2.5v0.5h-1.2v-4h3.7V595.7z M263.4,588.8v1h-3.7v-1H263.4z M260.9,593.2v1.4
		h1.3v-1.4H260.9z M268.1,594.8c0.5,0,0.6-0.3,0.7-1.7c0.4,0.3,0.8,0.4,1.3,0.5c-0.2,1.9-0.5,2.5-1.9,2.5h-1.9
		c-1.4,0-1.9-0.4-1.9-1.9v-4.5h3.6v-2.4h-3.6V586h5v5.6H268V591h-2.2v3.2c0,0.5,0.1,0.6,0.6,0.6L268.1,594.8z"/>
	<path class="st3" d="M271.2,590.7c0.3-1,0.4-2,0.5-3l0.9,0.1c0,1.1-0.2,2.2-0.4,3.2L271.2,590.7z M274.2,590
		c-0.1-0.5-0.2-1.1-0.4-1.6v7.9h-1.2v-10.9h1.2v2.1l0.6-0.2c0.2,0.5,0.4,1.1,0.5,1.6v-0.7h1.5c-0.1-0.2-0.2-0.5-0.3-0.7l1-0.2h-1.9
		v-1h2.6c-0.1-0.2-0.1-0.4-0.2-0.6l1.2-0.2c0.1,0.2,0.2,0.5,0.3,0.8h2.6v1h-1.8l0.9,0.2c-0.1,0.3-0.3,0.5-0.4,0.8h1.7v1.1h-7
		c0,0.1,0.1,0.3,0.1,0.4L274.2,590z M274.1,595.4c0.3-0.7,0.6-1.4,0.9-2.1l1,0.5c-0.2,0.6-0.6,1.5-0.8,2.1L274.1,595.4z M281.4,593
		h-2.8c0.4,0.3,0.7,0.6,1.1,1l-0.9,0.7c-0.5-0.5-1-1-1.5-1.5l0.3-0.3h-2.2v-3.3h6L281.4,593z M279.1,595.1c0.3,0,0.4-0.1,0.5-0.9
		c0.3,0.2,0.6,0.3,1,0.4c-0.1,1.2-0.4,1.5-1.4,1.5h-1.6c-1.2,0-1.5-0.3-1.5-1.3v-1.3h1.2v1.3c0,0.3,0.1,0.3,0.5,0.3L279.1,595.1z
		 M280.1,590.5h-3.4v0.4h3.3L280.1,590.5z M280.1,591.7h-3.4v0.4h3.3L280.1,591.7z M277.2,587.2c0.1,0.3,0.2,0.6,0.3,0.8l-0.4,0.1
		h1.9c0.1-0.3,0.3-0.7,0.4-1L277.2,587.2z M281,593.1c0.5,0.7,0.9,1.4,1.2,2.1l-1,0.5c-0.3-0.7-0.7-1.5-1.2-2.1L281,593.1z"/>
	<ellipse class="st0" cx="258.8" cy="493.2" rx="44" ry="16.6"/>
	<path class="st3" d="M246.9,490.2c0,0.3-0.1,0.6-0.2,0.9h4.3v6.3c0,0.7-0.2,1-0.6,1.2c-0.7,0.2-1.4,0.3-2.1,0.2
		c-0.1-0.4-0.2-0.8-0.4-1.2c0.6,0,1.3,0,1.5,0s0.3-0.1,0.3-0.2v-5h-2.2l1.2,0.2c-0.2,0.4-0.3,0.9-0.5,1.2h0.9v1.1h-2v0.8h2.2v1.1
		h-2.2v1.7h-1.3v-1.7h-2.1v-1.1h2.1v-0.8h-1.9v-1.1h0.9c-0.1-0.4-0.3-0.8-0.4-1.2l1.1-0.3c0.2,0.4,0.4,0.8,0.5,1.3l-0.6,0.2h1.7
		c0.2-0.5,0.3-1,0.4-1.5H243v6.4h-1.4v-7.7h3.8c0-0.3,0.1-0.6,0.1-0.9h-4.3V489h4.5c0-0.4,0-0.7,0.1-1l1.5,0.1
		c0,0.3-0.1,0.6-0.1,0.8h4.3v1.3L246.9,490.2z"/>
	<path class="st3" d="M258.1,495.5l0.2,1.2c-1.6,0.7-3.4,1.4-4.8,2l-0.6-1.4l0,0c0.8-0.2,1.9-0.6,3.1-1v-4.2h-2.7v-1.4h2.6v-2.5h1.4
		v7.5L258.1,495.5z M261.9,497.1c0.4,0,0.5-0.5,0.6-2.6c0.4,0.3,0.8,0.5,1.3,0.6c-0.1,2.4-0.5,3.3-1.8,3.3h-1.4
		c-1.3,0-1.7-0.5-1.7-2.1v-8.2h1.4v2.5h3v1.4h-3v4.3c0,0.6,0.1,0.7,0.4,0.7L261.9,497.1z"/>
	<path class="st3" d="M269.1,497.4c0,0.6-0.1,0.9-0.4,1.1c-0.5,0.2-1,0.3-1.5,0.2c-0.1-0.4-0.2-0.8-0.3-1.2c0.4,0,0.8,0,0.9,0
		s0.2,0,0.2-0.2v-2.7l-0.7,0.7l-0.3-0.8c0,1.4-0.3,2.9-0.8,4.2c-0.3-0.3-0.6-0.6-0.9-0.8c0.5-1.8,0.8-3.7,0.7-5.6v-4.2h3.3
		L269.1,497.4z M267,492.5c0,0.5,0,1.1,0,1.6c0.3-0.2,0.6-0.4,1-0.7v-1.1l-0.4,0.3c-0.2-0.3-0.3-0.6-0.6-0.8L267,492.5z M267,489.6
		v1.5l0.4-0.2c0.2,0.2,0.4,0.5,0.6,0.7v-2L267,489.6z M272.4,490.4c-0.1,1.8-0.5,2.9-2.5,3.4c-0.2-0.4-0.4-0.8-0.7-1.1
		c1.7-0.4,2-1,2-2.4h-0.5v0.9h-1.2v-2h2.6c-0.1-0.3-0.3-0.7-0.4-1l1.3-0.4c0.2,0.4,0.5,0.9,0.6,1.4h2.4v2h-1.3v-0.9H274v1.7
		c0,0.3,0,0.4,0.2,0.4h1c0.2,0,0.5,0,0.7-0.1c0,0.3,0.1,0.8,0.1,1c-0.3,0.1-0.5,0.1-0.8,0.1h-1c-1.1,0-1.3-0.4-1.3-1.4v-1.6
		L272.4,490.4z M273.4,497.3h2.6v1.2h-6.7v-1.2h2.8v-1.9H270v-1.2h5.5v1.2h-2L273.4,497.3z"/>
	<path class="st0" d="M495.3,416.8h58.2c5.2,0,9.4,4.2,9.4,9.4v24.2c0,5.2-4.2,9.4-9.4,9.4h-58.2c-5.2,0-9.4-4.2-9.4-9.4v-24.2
		C486,421,490.2,416.8,495.3,416.8z"/>
	<path class="st3" d="M513,442.3v-5.8h-2.7v8h12.2v2.2h-14.6v-10.2h-2.6v-2.2h2.6v-4.1h2.4v4.1h2.7v-4.5h2.3v4.5h2.7v-4.4h2.4v4.4
		h2.6v2.2h-2.6v5.8L513,442.3z M515.3,436.5v3.7h2.7v-3.7H515.3z"/>
	<path class="st3" d="M532.7,430.4c-0.5,1.2-1.1,2.4-1.8,3.6v13.7h-2.4v-10.3c-0.6,0.8-1.3,1.5-2,2.2c-0.4-0.8-0.8-1.6-1.3-2.4
		c2.3-2.1,4.2-4.7,5.3-7.6L532.7,430.4z M538.1,437.5c0.5,4.3,1.6,7.2,3.2,7.4c0.5,0,0.7-0.9,0.8-3.1c0.6,0.5,1.2,1,1.9,1.3
		c-0.5,3.8-1.5,4.7-2.6,4.6c-3.3-0.3-4.8-4-5.5-10l-3.8,0.5l-0.3-2.2l4-0.5c-0.1-1.8-0.2-3.7-0.3-5.7h2.4c0,1.9,0.1,3.8,0.2,5.4
		l5.6-0.7l0.3,2.2L538.1,437.5z M541.6,434c-0.7-1.2-1.7-2.3-2.7-3.3l1.7-1.1c1.1,0.9,2,2,2.8,3.1L541.6,434z"/>
	<path class="st0" d="M262.8,416.5H321c5.2,0,9.4,4.2,9.4,9.4v24.2c0,5.2-4.2,9.4-9.4,9.4h-58.2c-5.2,0-9.4-4.2-9.4-9.4v-24.2
		C253.5,420.7,257.7,416.5,262.8,416.5z"/>
	<path class="st3" d="M279.5,434.3h-7v-1.8h2.8c-0.3-0.8-0.6-1.7-1-2.5l2-0.7c0.5,0.9,0.9,1.7,1.2,2.7l-1.3,0.5h3.4L279.5,434.3z
		 M279.1,444.5c0.5-1.2,0.9-2.5,1-3.8l1.6,0.5c-0.1,1.6-0.5,3.1-1.2,4.5l-1.4-0.6v1.3H275v0.8h-1.9v-6.7h6V444.5z M279.1,436.9h-6.1
		v-1.8h6.1V436.9z M273.1,437.8h6.1v1.7h-6.1V437.8z M277.1,442.4H275v2.2h2.2L277.1,442.4z M286.1,431.8c-0.4,3.4-1.4,6.2-5.1,8
		c-0.3-0.6-0.8-1.2-1.3-1.6c1.2-0.5,2.3-1.3,3-2.4c-0.7-0.7-1.9-1.7-2.7-2.4l1.2-1.2c0.7,0.5,1.6,1.2,2.3,1.9
		c0.2-0.7,0.4-1.5,0.5-2.2h-3.8v-2h10c0,0,0,0.6-0.1,0.9c-0.2,4.9-0.4,6.8-1,7.4c-0.3,0.5-0.9,0.7-1.4,0.8c-0.8,0.1-1.5,0.1-2.3,0
		c-0.1-0.7-0.3-1.4-0.6-2c0.7,0.1,1.5,0.1,1.8,0.1c0.2,0,0.5-0.1,0.6-0.2c0.3-0.4,0.5-1.7,0.6-5L286.1,431.8z M286.1,445.2
		c0.6,0,0.7-0.3,0.7-2.4c0.6,0.3,1.2,0.6,1.8,0.7c-0.2,2.7-0.7,3.4-2.3,3.4h-2.1c-1.9,0-2.4-0.6-2.4-2.4v-4.3h2v4.2
		c0,0.6,0.1,0.6,0.7,0.6L286.1,445.2z M284.9,438.7c0.9,0.9,1.6,1.8,2.2,2.9l-1.5,1c-0.6-1.1-1.3-2.1-2.1-3L284.9,438.7z
		 M289.3,439.9c0.7,1.3,1.3,2.7,1.7,4.2l-1.7,0.6c-0.3-1.5-0.9-2.9-1.6-4.2L289.3,439.9z"/>
	<path class="st3" d="M310.5,444.8c0,1.2-0.2,1.9-1,2.2c-1.1,0.4-2.3,0.6-3.5,0.5c-0.1-0.8-0.4-1.6-0.8-2.3c1,0.1,2.2,0.1,2.5,0
		s0.5-0.1,0.5-0.5v-12.4h-12v15.1h-2.3v-17.3h16.6L310.5,444.8z M307,435.7h-9.8v-2h9.8V435.7z M300.4,443.7v1.3h-2.1v-7.8h8v6.5
		L300.4,443.7z M300.4,439.1v2.7h3.6v-2.7H300.4z"/>
	<path class="st0" d="M269.7,199.4h58.2c5.2,0,9.4,4.2,9.4,9.4V233c0,5.2-4.2,9.4-9.4,9.4h-58.2c-5.2,0-9.4-4.2-9.4-9.4v-24.2
		C260.4,203.6,264.5,199.4,269.7,199.4z"/>
	<path class="st3" d="M285.5,221c-0.5,0.8-1.2,1.5-1.9,2.1c-0.2-0.3-0.5-0.6-0.8-0.9c-0.1,2.8-0.6,5.6-1.7,8.2
		c-0.6-0.4-1.3-0.8-2-1.1c1.5-3,1.6-7.4,1.6-10.4v-6h16.5v2.1h-14.3v3.9c0,0.8,0,1.6-0.1,2.5c0.7-0.5,1.3-1.1,1.8-1.8h-1.3v-1.6h2.1
		V217c-0.6,0.1-1.2,0.1-1.8,0.1c-0.1-0.4-0.3-0.9-0.5-1.3c1.6-0.1,3.2-0.4,4.7-0.8l1.4,1.2c-0.6,0.2-1.3,0.4-1.9,0.5v1.2h2v1.6h-1.8
		c0.6,0.4,1.5,0.9,1.8,1.1l-1.1,1.4c-0.2-0.2-0.6-0.6-0.9-0.9v1.9h-1.9L285.5,221z M291.2,228h6.1v1.9h-14.8V228h2.1v-3.7h2.2v3.7
		h2.1v-5h1.1c-0.3-0.5-0.7-0.9-1.2-1.2c0.9-0.6,1.7-1.3,2.3-2.1h-1.3V218h2.2v-1c-0.7,0.1-1.4,0.1-2,0.2c-0.1-0.5-0.2-0.9-0.5-1.3
		c1.8-0.1,3.5-0.4,5.3-0.9l1.4,1.2c-0.7,0.2-1.5,0.4-2.2,0.6v1.2h2.8v1.6h-2.5c0.8,0.5,2.6,1.7,3.1,2.1l-1,1.5
		c-0.5-0.5-1.5-1.3-2.4-2v2h-2v-2.3c-0.5,0.8-1.1,1.6-1.8,2.2h0.9v1.6h4.4v1.8h-4.4L291.2,228z"/>
	<path class="st3" d="M310.3,222.2c-0.1,1.5-0.6,3-1.5,4.3c2.4,1,5.5,1.3,9.6,1.4c-0.5,0.7-0.9,1.5-1.1,2.4
		c-4.2-0.2-7.6-0.7-10.3-2.1c-1.7,1.1-3.7,1.9-5.7,2.3c-0.4-0.7-0.9-1.4-1.4-2.1c1.7-0.3,3.4-0.8,5-1.6c-1.1-1-2.1-2.2-2.7-3.6
		l2.1-0.8c0.6,1.1,1.4,2.1,2.4,2.9c0.6-0.9,1-2,1.1-3.1h-6.4V215h6.4v-2.7h2.4v2.7h6.5v7.2L310.3,222.2z M303.7,219.9h4.1v-2.8h-4.1
		V219.9z M310.3,217.2v2.8h4.1v-2.8H310.3z"/>
	<path class="st0" d="M181.9,307.8h58.2c5.2,0,9.4,4.2,9.4,9.4v24.2c0,5.2-4.2,9.4-9.4,9.4h-58.2c-5.2,0-9.4-4.2-9.4-9.4v-24.2
		C172.6,312,176.7,307.8,181.9,307.8z"/>
	<path class="st3" d="M206.7,326.1c-0.9,2.6-2.2,5-4,7c2.2,1.6,4.7,2.8,7.4,3.4c-0.6,0.7-1.1,1.4-1.6,2.2c-2.8-0.7-5.4-2-7.6-3.8
		c-2.3,1.8-5,3.2-7.9,4c-0.4-0.8-0.9-1.5-1.4-2.2c2.7-0.6,5.3-1.8,7.6-3.5c-1.8-2.1-3.2-4.4-4.2-7h-3.1v-2.3h8.2
		c-0.3-1-0.6-1.9-1.1-2.8l2.5-0.7c0.5,1,1,2,1.3,3l-1.7,0.5h8.5v2.3L206.7,326.1z M197.4,326.1c0.8,2,2,3.9,3.5,5.4
		c1.4-1.6,2.5-3.4,3.2-5.4H197.4z"/>
	<path class="st3" d="M229.8,333.2h-7.3v3c0,1.2-0.3,1.9-1.2,2.2c-1.2,0.3-2.5,0.5-3.8,0.4c-0.2-0.8-0.5-1.6-1-2.4
		c1.2,0,2.7,0,3.1,0s0.5-0.1,0.5-0.4v-2.9h-7.2V331h7.2v-1c0.8-0.4,1.6-1,2.4-1.6h-6.3v-2.2h8.6l0.5-0.1l1.5,1.2
		c-1.3,1.3-2.7,2.5-4.3,3.4v0.3h7.3L229.8,333.2z M215.1,326.9h-2.3v-4.5h7.3c-0.2-0.4-0.5-0.9-0.8-1.3l2.3-0.7
		c0.5,0.6,0.9,1.3,1.2,2h6.7v4.5h-2.4v-2.3h-12.1L215.1,326.9z"/>
	<path class="st3" d="M399.6,327.9c-0.5-0.8-1-1.6-1.5-2.3c-16.5,0.7-19.1,0.8-21,1.4c-0.4-1.5-0.9-3-1.5-4.5c1.1-0.3,2-1,2.8-1.8
		c2.6-2.6,4.8-5.5,6.5-8.7l4.8,2c-1.9,2.7-4,5.3-6.4,7.6l11.5-0.3c-1.1-1.3-2.2-2.5-3.2-3.5l3.7-2.5c2.9,2.8,6.8,6.8,8.5,9.6
		L399.6,327.9z M377.7,328.9h22.6v14.7h-5.1V342h-12.7v1.6h-4.8L377.7,328.9z M382.5,333.4v4h12.7v-4H382.5z"/>
	<path class="st3" d="M420.6,321.8h-12.9v-3.7h5.2c-0.5-1.3-1.1-2.5-1.8-3.8l3.6-1.7c0.9,1.4,1.7,2.9,2.3,4.4l-1.9,1h5.4
		L420.6,321.8z M419.6,341.9H413v1.3h-4v-11.4h10.6L419.6,341.9z M419.3,326.3h-10.2v-3.5h10.2L419.3,326.3z M409.1,327.3h10.2v3.5
		h-10.2L409.1,327.3z M412.9,335.5v2.7h2.6v-2.7H412.9z M438.4,326.2v3.8h-18.5v-3.8h3.6c0.2-0.9,0.4-1.9,0.5-2.9h-2.5v-3.8h3.1
		c0.1-0.6,0.2-1.2,0.3-1.8h-4.2V314h16.8v3.8h-8l-0.3,1.8h6.6v6.6L438.4,326.2z M421.4,331.2h15.3v12.3h-4.6v-0.9h-6.4v1h-4.3V331.2
		z M425.7,335.2v3.4h6.4v-3.4H425.7z M428.5,323.4c-0.2,1-0.4,2-0.5,2.9h3.5v-2.9H428.5z"/>
	<line class="st1" x1="461.3" y1="387.4" x2="482.4" y2="408.5"/>
	<polygon class="st2" points="470.9,407.6 481.5,407.6 481.5,397 486,401.5 486,412.1 475.4,412.1 	"/>
	<line class="st1" x1="349.6" y1="387.4" x2="332" y2="405.1"/>
	<polygon class="st2" points="332.9,393.6 332.9,404.2 343.5,404.2 339,408.6 328.4,408.6 328.4,398.1 	"/>
	<line class="st1" x1="351.1" y1="275.5" x2="332.6" y2="257"/>
	<polygon class="st2" points="344.1,257.9 333.5,257.9 333.5,268.5 329,264 329,253.4 339.6,253.4 	"/>
	<line class="st1" x1="340.1" y1="329.3" x2="269.8" y2="329.3"/>
	<polygon class="st2" points="278.6,321.8 271.1,329.3 278.6,336.8 272.2,336.8 264.8,329.3 272.2,321.8 	"/>
	<line class="st1" x1="266" y1="190.4" x2="253" y2="177.4"/>
	<polygon class="st2" points="264.5,178.3 253.9,178.3 253.9,188.9 249.4,184.4 249.4,173.8 260,173.8 	"/>
	<line class="st1" x1="192.5" y1="116.9" x2="179.5" y2="103.9"/>
	<polygon class="st2" points="191,104.8 180.4,104.8 180.4,115.4 175.9,110.9 175.9,100.3 186.5,100.3 	"/>
	<path class="st1" d="M160.2,141.9c0,0-66.4,10.6-66.4,92.7c0,68.5,46.2,88.6,61.5,93.4"/>
	<polygon class="st2" points="144.9,332.9 154.1,327.6 148.9,318.5 155,320.1 160.2,329.3 151.1,334.6 	"/>
	<line class="st1" x1="575.3" y1="216.2" x2="610.3" y2="216.2"/>
	<polygon class="st2" points="601.5,223.7 609,216.2 601.5,208.7 607.9,208.7 615.3,216.2 607.9,223.7 	"/>
	<line class="st1" x1="520.7" y1="179.9" x2="520.7" y2="143.1"/>
	<polygon class="st2" points="528.1,151.9 520.7,144.4 513.2,151.9 513.2,145.5 520.7,138 528.1,145.5 	"/>
	<line class="st1" x1="561.3" y1="471.7" x2="589.2" y2="499.7"/>
	<polygon class="st2" points="577.7,498.8 588.3,498.8 588.3,488.2 592.8,492.7 592.8,503.2 582.2,503.2 	"/>
	<line class="st1" x1="579.1" y1="437.4" x2="614.1" y2="437.4"/>
	<polygon class="st2" points="605.3,444.9 612.8,437.4 605.3,430 611.7,430 619.1,437.4 611.7,444.9 	"/>
	<line class="st1" x1="237.7" y1="434" x2="202.7" y2="434"/>
	<polygon class="st2" points="211.5,426.5 204,434 211.5,441.5 205.2,441.5 197.7,434 205.2,426.5 	"/>
	<line class="st1" x1="524.4" y1="473.7" x2="524.4" y2="510.5"/>
	<polygon class="st2" points="517,501.8 524.4,509.2 531.9,501.8 531.9,508.1 524.4,515.6 517,508.1 	"/>
	<line class="st1" x1="152.4" y1="470.3" x2="152.4" y2="507.1"/>
	<polygon class="st2" points="144.9,498.4 152.4,505.8 159.9,498.4 159.9,504.7 152.4,512.2 144.9,504.7 	"/>
</g>
</svg>
