<svg xmlns="http://www.w3.org/2000/svg" viewBox="0 0 390.79 430.4"><defs><style>.cls-1{fill:#004864;}.cls-2,.cls-4{fill:none;stroke-linecap:round;stroke-miterlimit:10;}.cls-2{stroke:#6bffba;stroke-width:6.68px;}.cls-3{fill:#6bffba;}.cls-4{stroke:#00364b;stroke-width:13.93px;}</style></defs><title>資產 114</title><g id="圖層_2" data-name="圖層 2"><g id="背景物件"><ellipse class="cls-1" cx="195.39" cy="368.29" rx="195.39" ry="62.11"/><line class="cls-2" x1="58.18" y1="360.61" x2="65.24" y2="358.56"/><line class="cls-2" x1="25.36" y1="372.56" x2="37.53" y2="376.81"/><line class="cls-2" x1="100.58" y1="375.08" x2="93.18" y2="376.9"/><line class="cls-2" x1="137.4" y1="376.15" x2="140.86" y2="377.65"/><line class="cls-2" x1="227.47" y1="361.99" x2="221.47" y2="365.34"/><line class="cls-2" x1="317.41" y1="369.84" x2="309.58" y2="369.92"/><line class="cls-2" x1="357" y1="369.92" x2="368.74" y2="373.28"/><line class="cls-2" x1="288.21" y1="359.6" x2="283.76" y2="361.63"/><line class="cls-2" x1="128.79" y1="362.65" x2="124.34" y2="364.68"/><line class="cls-2" x1="169.52" y1="367.69" x2="172.49" y2="368.5"/><line class="cls-2" x1="249.95" y1="374.03" x2="252.91" y2="374.84"/><path class="cls-3" d="M137.49,128.56l26.07,44.6a14.21,14.21,0,0,1-12.27,21.38H97.15a14.21,14.21,0,0,1-12-21.78l28.06-44.6A14.21,14.21,0,0,1,137.49,128.56Z"/><path class="cls-3" d="M266.12,100.89l22.57,38.62A12.31,12.31,0,0,1,278.06,158H231.19a12.31,12.31,0,0,1-10.42-18.86l24.3-38.62A12.31,12.31,0,0,1,266.12,100.89Z"/><path class="cls-3" d="M231.4,94.26l41.84,71.59a22.81,22.81,0,0,1-19.69,34.32H166.67a22.81,22.81,0,0,1-19.31-35l45-71.59A22.81,22.81,0,0,1,231.4,94.26Z"/><path class="cls-3" d="M172.68,138.7l38.7,66.22a21.1,21.1,0,0,1-18.22,31.75H112.8a21.1,21.1,0,0,1-17.86-32.34l41.67-66.22A21.1,21.1,0,0,1,172.68,138.7Z"/><path class="cls-3" d="M259.05,222.36,293.5,281.3a18.78,18.78,0,0,1-16.22,28.26H205.75a18.78,18.78,0,0,1-15.9-28.78l37.09-58.94A18.78,18.78,0,0,1,259.05,222.36Z"/><path class="cls-3" d="M133,172.21l27.52,47.1a15,15,0,0,1-13,22.58H90.45a15,15,0,0,1-12.7-23l29.63-47.1A15,15,0,0,1,133,172.21Z"/><path class="cls-3" d="M187,215.87,212.8,260a14.06,14.06,0,0,1-12.14,21.16H147.1a14.06,14.06,0,0,1-11.9-21.55L163,215.47A14.06,14.06,0,0,1,187,215.87Z"/><path class="cls-3" d="M166.25,85.44,192.31,130A14.21,14.21,0,0,1,180,151.42H125.91a14.21,14.21,0,0,1-12-21.78L141.95,85A14.21,14.21,0,0,1,166.25,85.44Z"/><path class="cls-3" d="M239.76,174.94l30,51.4A16.38,16.38,0,0,1,255.65,251H193.28a16.38,16.38,0,0,1-13.86-25.1l32.34-51.4A16.38,16.38,0,0,1,239.76,174.94Z"/><path class="cls-3" d="M170.53,225.19l33.15,56.72a18.07,18.07,0,0,1-15.6,27.19H119.24a18.07,18.07,0,0,1-15.3-27.7l35.69-56.72A18.07,18.07,0,0,1,170.53,225.19Z"/><path class="cls-3" d="M215.34,8.6l31.83,54.46a17.35,17.35,0,0,1-15,26.11H166.1a17.35,17.35,0,0,1-14.69-26.59L185.68,8.11A17.35,17.35,0,0,1,215.34,8.6Z"/><path class="cls-3" d="M188.8,29.83l19.82,33.91A10.81,10.81,0,0,1,199.28,80H158.13A10.81,10.81,0,0,1,149,63.44l21.34-33.91A10.81,10.81,0,0,1,188.8,29.83Z"/><path class="cls-3" d="M92.6,211.9l37.62,64.38a20.51,20.51,0,0,1-17.71,30.86H34.38A20.51,20.51,0,0,1,17,275.71l40.51-64.38A20.51,20.51,0,0,1,92.6,211.9Z"/><path class="cls-3" d="M187.82,43.54,215.2,90.39a14.93,14.93,0,0,1-12.89,22.46H145.45A14.93,14.93,0,0,1,132.82,90l29.48-46.85A14.93,14.93,0,0,1,187.82,43.54Z"/><path class="cls-3" d="M235.74,40.27l27.38,46.85a14.93,14.93,0,0,1-12.89,22.46H193.37A14.93,14.93,0,0,1,180.73,86.7l29.48-46.85A14.93,14.93,0,0,1,235.74,40.27Z"/><path class="cls-3" d="M338.57,219.47l35.06,60a19.12,19.12,0,0,1-16.5,28.76H284.32a19.12,19.12,0,0,1-16.18-29.29l37.75-60A19.12,19.12,0,0,1,338.57,219.47Z"/><path class="cls-3" d="M304.3,186.29l36,61.56a19.62,19.62,0,0,1-16.94,29.51H248.63A19.62,19.62,0,0,1,232,247.31l38.74-61.56A19.62,19.62,0,0,1,304.3,186.29Z"/><path class="cls-3" d="M295,156.14l26.66,45.61a14.53,14.53,0,0,1-12.55,21.87H253.74a14.53,14.53,0,0,1-12.3-22.27l28.7-45.61A14.53,14.53,0,0,1,295,156.14Z"/><path class="cls-3" d="M261,149.36,283.55,188a12.31,12.31,0,0,1-10.63,18.52H226.05a12.31,12.31,0,0,1-10.42-18.86L239.94,149A12.31,12.31,0,0,1,261,149.36Z"/><path class="cls-3" d="M110.3,183l31.19,53.37A17,17,0,0,1,126.81,262H62a17,17,0,0,1-14.39-26.06l33.58-53.37A17,17,0,0,1,110.3,183Z"/><line class="cls-4" x1="206.17" y1="261.95" x2="252.37" y2="209.85"/><line class="cls-4" x1="201.95" y1="291.93" x2="150.66" y2="240.65"/><line class="cls-4" x1="201.95" y1="369.88" x2="201.95" y2="66.69"/><line class="cls-4" x1="206.17" y1="195.87" x2="237.42" y2="157.36"/><line class="cls-4" x1="201.6" y1="227.49" x2="160.67" y2="186.57"/><line class="cls-4" x1="206.17" y1="128.51" x2="228.16" y2="101.41"/><line class="cls-4" x1="201.95" y1="163.36" x2="172.17" y2="133.58"/></g></g></svg>