<svg xmlns="http://www.w3.org/2000/svg" viewBox="0 0 145.84 354.06"><defs><style>.cls-1,.cls-2,.cls-3{fill:none;stroke-linecap:round;stroke-miterlimit:10;}.cls-1{stroke:#004864;}.cls-1,.cls-3{stroke-width:13.93px;}.cls-2{stroke:#6bffba;stroke-width:6.68px;}.cls-3{stroke:#00364b;}</style></defs><title>資產 201</title><g id="圖層_2" data-name="圖層 2"><g id="議題樹無"><line class="cls-1" x1="71.94" y1="328.41" x2="37.67" y2="347.09"/><line class="cls-1" x1="74.8" y1="328.41" x2="103.67" y2="310.09"/><line class="cls-1" x1="53.33" y1="312.43" x2="74.8" y2="328.41"/><line class="cls-1" x1="22.83" y1="328.41" x2="121.04" y2="328.41"/><line class="cls-2" x1="27.15" y1="77.36" x2="34.65" y2="84.7"/><line class="cls-2" x1="110.34" y1="52.07" x2="120.08" y2="43.97"/><line class="cls-2" x1="142.5" y1="150.76" x2="134.79" y2="158.59"/><line class="cls-2" x1="40.45" y1="67.67" x2="42.64" y2="79.82"/><line class="cls-2" x1="23.31" y1="137" x2="15.82" y2="132.97"/><line class="cls-2" x1="18.16" y1="212.71" x2="10.33" y2="212.79"/><line class="cls-2" x1="48.32" y1="197.95" x2="49.99" y2="207.28"/><line class="cls-2" x1="54.12" y1="21.56" x2="59.99" y2="26.98"/><line class="cls-2" x1="126.02" y1="104.25" x2="121.57" y2="106.27"/><line class="cls-2" x1="35.73" y1="101.09" x2="31.28" y2="103.12"/><line class="cls-2" x1="125.22" y1="189.09" x2="116.86" y2="191.33"/><line class="cls-2" x1="12.59" y1="187.56" x2="3.34" y2="179.69"/><line class="cls-2" x1="78.99" y1="3.34" x2="76.63" y2="11.81"/><line class="cls-2" x1="96.64" y1="41.08" x2="98.17" y2="48.02"/><line class="cls-3" x1="79.02" y1="220.48" x2="125.22" y2="168.38"/><line class="cls-3" x1="74.8" y1="250.46" x2="23.51" y2="199.17"/><line class="cls-3" x1="74.8" y1="328.41" x2="74.8" y2="25.22"/><line class="cls-3" x1="79.02" y1="154.4" x2="110.27" y2="115.88"/><line class="cls-3" x1="74.44" y1="186.02" x2="33.52" y2="145.09"/><line class="cls-3" x1="79.02" y1="87.04" x2="101.01" y2="59.94"/><line class="cls-3" x1="74.8" y1="121.88" x2="45.01" y2="92.1"/></g></g></svg>