<?xml version="1.0" encoding="utf-8"?>
<!-- Generator: Adobe Illustrator 20.1.0, SVG Export Plug-In . SVG Version: 6.00 Build 0)  -->
<svg version="1.1" id="圖層_1" xmlns="http://www.w3.org/2000/svg" xmlns:xlink="http://www.w3.org/1999/xlink" x="0px" y="0px"
	 viewBox="0 0 1280 650" style="enable-background:new 0 0 1280 650;" xml:space="preserve">
<style type="text/css">
	.st0{fill:none;stroke:#00364B;stroke-width:8;stroke-linecap:round;stroke-miterlimit:10;}
	.st1{fill:#00364B;}
	.st2{fill:none;stroke:#00364B;stroke-width:3;stroke-linecap:round;stroke-miterlimit:10;}
	.st3{fill:#6BFFBA;}
	.st4{fill:none;stroke:#6BFFBA;stroke-width:6;stroke-miterlimit:10;}
	.st5{fill:#004864;}
	.st6{fill:none;stroke:#6BFFBA;stroke-width:6;stroke-linecap:round;stroke-miterlimit:10;}
	.st7{fill:none;stroke:#00364B;stroke-width:2.81;stroke-linecap:round;stroke-miterlimit:10;stroke-dasharray:2.81,7.49;}
</style>
<title>Topic Tree</title>
<g id="圖層_1_1_">
	<path class="st0" d="M400.6,555.9c0,0,67.6-5.5,29.6-85.2"/>
	<path class="st0" d="M432.3,537.6c0,0,29-61.3-59-68.2"/>
	<path class="st0" d="M432.3,501c0,0-38.6-55.7-88.6,17"/>
	<path class="st0" d="M400.6,482.7c0,0-67.6,5.5-29.6,85.2"/>
	<path class="st0" d="M368.9,501c0,0-29,61.3,59,68.2"/>
	<path class="st0" d="M368.9,537.6c0,0,38.6,55.7,88.6-17"/>
	<circle class="st1" cx="400.6" cy="519.3" r="36.6"/>
	<line class="st2" x1="325.8" y1="186.4" x2="208.8" y2="235.1"/>
	<circle class="st3" cx="331.3" cy="269.6" r="26"/>
	<ellipse transform="matrix(0.9037 -0.4281 0.4281 0.9037 -29.184 186.1488)" class="st4" cx="399.3" cy="158" rx="122" ry="34.2"/>
	<circle class="st3" cx="399.8" cy="155.6" r="74"/>
	<circle class="st3" cx="283.7" cy="125.5" r="26.8"/>
	<circle class="st3" cx="152.6" cy="257.7" r="56.2"/>
	<circle class="st3" cx="656.7" cy="257.5" r="70.5"/>
	<circle class="st3" cx="551.6" cy="434.7" r="58.5"/>
	<circle class="st3" cx="293" cy="376.2" r="55.7"/>
	<path class="st5" d="M365.9,142.9c0,0,0,0.8,0,1.1c-0.2,5.8-0.5,8.1-1.1,8.9c-0.4,0.6-1,0.9-1.6,1c-0.8,0.1-1.6,0.2-2.4,0.1
		c-0.1-0.9-0.3-1.8-0.8-2.6c0.6,0.1,1.2,0.1,1.5,0.1c0.3,0,0.5-0.1,0.6-0.3c0.1-0.2,0.2-0.5,0.3-0.7c-1.6,0.6-3.3,1.2-4.7,1.7
		l-1-2.6c0.9-0.2,2.1-0.6,3.4-1c-0.9-0.4-1.9-0.8-2.8-1l1-2.1c1.3,0.4,2.7,0.8,4,1.4l-0.6,1.2l0.9-0.3c0.1-0.7,0.1-1.4,0.1-2.4h-5.3
		c0.2-1.7,0.4-4.3,0.4-6.4h4.5v-1.2h-5v-2.7h8.1v6.6h-4.8l-0.1,1.2H365.9z M375.5,142.9c0,0,0,0.8,0,1.2c-0.2,5.9-0.4,8.2-1,9
		c-0.5,0.6-1.2,1-1.9,1c-1,0.1-1.9,0.1-2.9,0.1c-0.1-0.9-0.4-1.8-0.8-2.6c0.9,0.1,1.8,0.1,2.2,0.1c0.3,0,0.6-0.1,0.8-0.3
		c0.2-0.4,0.3-0.8,0.3-1.2c-1.7,0.7-3.4,1.3-4.9,1.9l-1-2.6c0.8-0.2,1.9-0.5,3.1-0.9c-0.9-0.4-1.9-0.8-2.7-1.1l1-2
		c1.3,0.4,2.6,0.8,3.9,1.4l-0.6,1.2l1.3-0.4c0-0.6,0.1-1.4,0.1-2.2h-5.7c0.2-1.7,0.4-4.3,0.4-6.4h5v-1.2h-5.3v-2.7h8.3v6.6H370
		l-0.1,1.2L375.5,142.9z"/>
	<path class="st5" d="M396.5,136.6c0,4.2-0.1,7.9,0.3,7.9c0.2,0,0.2-1,0.3-2.3c0.5,0.6,1,1.2,1.6,1.8c-0.2,2.1-0.6,3.1-2.1,3.1
		s-2.2-1.7-2.5-4.2l-1,1.7c-0.4-0.2-0.8-0.5-1.3-0.9c-0.5,1.2-1.4,2.2-2.4,2.9h0.5c0,0.3-0.1,0.6-0.1,0.9h6.9c0,0-0.1,0.8-0.1,1.1
		c-0.3,2.7-0.7,4.1-1.3,4.8c-0.5,0.5-1.3,0.8-2,0.8c-1,0.1-2,0.1-3,0.1c-0.1-1-0.4-1.9-0.9-2.7c1,0.1,2.1,0.1,2.5,0.1
		c0.3,0,0.6,0,0.8-0.2c0.4-0.5,0.6-1.1,0.6-1.7H389c-0.9,2.4-3.1,3.8-8.7,4.6c-0.3-0.9-0.8-1.7-1.4-2.4c3.9-0.4,5.7-1,6.7-2.1h-5.4
		v-2.2h6.3c0-0.3,0.1-0.6,0.1-0.9h2.6c-0.3-0.6-0.8-1.2-1.3-1.7v1.3c-3.2,0.2-6.6,0.4-9,0.5l-0.1-2.1c1,0,2.1-0.1,3.4-0.1v-0.7h-2.6
		v-1.7l0,0c-0.3-0.6-0.6-1.1-1-1.6c0.9-0.1,1.7-0.5,2.2-1.1h-1.9v-1.9h3.3v-0.5h-2.7v-1.7h2.7v-1h2.7v1h2.8v1.7h-2.8v0.5h3.4v1.9
		H386v0.2c0,0.3,0,0.5,0.3,0.5h0.5c0.4,0,0.8,0,1.1-0.1c0,0.5,0,1,0.1,1.5l1.2-1.9l0.9,0.5c0.1-0.4,0.1-0.8,0.1-1.2h-1.7v-2.4h1.8
		c0-0.7,0-1.4,0-2.1h2.6c0,0.7,0,1.4,0,2.1L396.5,136.6z M382.1,142.1v-0.8h2.1c-0.3-0.5-0.5-1.1-0.4-1.7v-0.2H383
		c-0.5,1.3-1.6,2.3-3,2.6L382.1,142.1z M387.9,144.5c0.7-0.6,1.2-1.3,1.6-2.1l-1.4-0.8v0.1c-0.4,0.1-0.8,0.2-1.2,0.1h-1.2
		c-0.3,0-0.6,0-0.9-0.1v0.4h2.8v1.7h-2.8v0.6l3.1-0.1V144.5z M392.8,138.9c-0.1,0.8-0.2,1.6-0.3,2.4c0.6,0.3,1.1,0.6,1.5,0.9
		c-0.1-1-0.1-2.1-0.1-3.3H392.8z"/>
	<path class="st5" d="M416.5,151.7c0.8,0,0.9-0.4,1-3.1c0.9,0.5,1.8,0.8,2.8,1c-0.3,3.4-1.1,4.3-3.5,4.3h-2.7
		c-2.8,0-3.5-0.7-3.5-2.9v-4.9h-0.9c-0.4,3.8-1.6,6.6-7.5,8.2c-0.4-0.9-1.1-1.7-1.8-2.4c5-1.1,5.6-3,5.9-5.8h-3.6v-9.6l0,0
		c1.8-0.6,3.6-1.3,5.3-2.1l2.3,2.1c-1.4,0.5-2.8,0.9-4.3,1.3v1.5h3.3v2.6H406v1.3h8.8V142h-3.6v-2.6h3.6v-0.9h-3.8v-2.8h6.8v10.4
		h-4.1v4.9c0,0.6,0.1,0.7,0.8,0.7L416.5,151.7z"/>
	<path class="st5" d="M441.7,151.6v2.3h-19.2v-2.3h8V151h-6.5v-2.1h6.5v-0.6h-5.9v-6.4h15v6.4h-6.1v0.6h6.6v2.1h-6.6v0.6
		L441.7,151.6z M441.6,141.3h-18.9V139h4.3c-0.1-0.2-0.2-0.5-0.3-0.7l1.7-0.4H424v-2.3h6.7c-0.1-0.3-0.2-0.5-0.3-0.8l2.9-0.6
		c0.2,0.5,0.5,0.9,0.6,1.4h6.6v2.3h-4.3l1.8,0.3l-0.4,0.8h4.1L441.6,141.3z M427.6,144.2h3v-0.6h-3V144.2z M430.6,146.5v-0.6h-3v0.6
		H430.6z M429.8,137.9c0.2,0.4,0.3,0.7,0.4,1.1h4c0.1-0.4,0.2-0.8,0.3-1.1H429.8z M436.7,143.6h-3.1v0.6h3.1V143.6z M436.7,145.9
		h-3.1v0.6h3.1V145.9z"/>
	<path class="st5" d="M375.8,178.1v2.4H357v-2.4h8.1v-4.2h-5.7v-2.4h5.7v-3.7h-4.3c-0.5,1.1-1.2,2.1-1.9,3c-0.7-0.5-1.5-1-2.2-1.5
		c1.8-2.2,3.1-4.7,3.7-7.5l2.6,0.6c-0.3,1-0.6,2-1,2.9h3.2v-3.8h2.6v3.8h7v2.4h-7v3.7h6.4v2.4h-6.2v4.2L375.8,178.1z"/>
	<path class="st5" d="M381.8,171.6c-1-0.9-2.2-1.6-3.3-2.2l1.5-1.7c1.2,0.6,2.3,1.3,3.4,2.1L381.8,171.6z M383.7,174.4
		c-0.7,2-1.6,4.2-2.5,6.1l-2.3-1.4c1-2,1.9-4.1,2.7-6.2L383.7,174.4z M381,162.1c1.2,0.6,2.3,1.4,3.4,2.1l-1.7,1.8
		c-1.1-0.9-2.2-1.6-3.3-2.4L381,162.1z M386.7,168.2c0,3.7-0.3,9.3-2.1,13c-0.7-0.5-1.4-0.8-2.1-1.1c1.8-3.4,2-8.5,2-11.9v-5.7h13.4
		v2.2h-11.1L386.7,168.2z M398,178.4v2.1h-11.9v-2.1h5v-2h-3.7v-2h3.7V173h2.4v1.3h3.7v2h-3.7v2L398,178.4z M391.1,170.4v-1.8H388
		v-2h3.1v-1.5h2.4v1.5h3.3v2h-3.3v1.8h4.1v2h-10.5v-2H391.1z"/>
	<path class="st5" d="M419.6,165.1c-0.8,0.7-1.6,1.3-2.5,1.9c1,0.5,2,0.9,3,1.2c-0.6,0.6-1.1,1.3-1.5,2c-0.8-0.3-1.6-0.6-2.4-1v1.8
		c0,0.5,0,0.7,0.3,0.7h1c0.4,0,0.7,0,1.1-0.1c0,0.5,0.1,1.2,0.2,1.7c-0.4,0.1-0.8,0.1-1.2,0.1h-1.3c-1.8,0-2.1-0.7-2.1-2.4v-1.2
		h-1.9c0,1.7-0.9,3.2-2.3,4.1c-0.4-0.5-0.8-0.9-1.2-1.3v0.6h-4.1c-0.1,0.5-0.1,1-0.2,1.4h4.3c0,0,0,0.6,0,0.9
		c-0.2,2.8-0.5,4.2-1,4.7c-0.4,0.5-1,0.7-1.7,0.7c-0.9,0.1-1.8,0.1-2.8,0c-0.1-0.7-0.3-1.4-0.7-2.1c1,0.1,2.1,0.1,2.5,0.1
		c0.3,0,0.5,0,0.8-0.2c0.2-0.2,0.4-0.9,0.6-2.3H402c0.3-1.4,0.6-3.4,0.8-5.1h3.7v-1.5h-3v-0.3c-0.6,0.3-1.3,0.6-1.9,0.8
		c-0.4-0.7-0.8-1.3-1.3-1.8c1.2-0.4,2.4-0.9,3.5-1.6c-0.6-0.5-1.3-0.9-1.9-1.2l1.4-1.3c0.8,0.4,1.5,0.8,2.2,1.3
		c0.4-0.4,0.8-0.9,1.2-1.3h-4.1v-1.9h5.5l0.4-0.1l1.5,0.8c-0.8,2-2.2,3.7-3.9,4.9h2.7v4.1c1-0.6,1.6-1.7,1.5-2.8v-1.5h4
		c-1.8-1.5-3.3-3.4-4.2-5.5l2-0.6c0.3,0.7,0.7,1.4,1.2,2c0.7-0.6,1.4-1.2,2-1.9l1.8,1.3c-0.9,0.7-1.8,1.5-2.5,2
		c0.4,0.3,0.7,0.6,1.1,0.9c0.8-0.7,1.6-1.4,2.3-2.2L419.6,165.1z M418.1,174.3c-0.5,1.4-1.2,2.7-2.3,3.7c0.9,0.5,1.8,1,2.4,1.5
		l-1.2,1.6c-0.7-0.5-1.7-1.1-2.8-1.8c-1.4,0.8-3,1.5-4.6,1.8c-0.2-0.6-0.6-1.3-1-1.8c1.3-0.2,2.5-0.6,3.7-1.2c-1-0.6-2-1.1-2.9-1.6
		l0.8-1h-0.5v-1.6h6.8l0.4-0.1L418.1,174.3z M411.1,175.5c0.9,0.5,1.8,0.9,2.8,1.5c0.5-0.4,0.9-0.9,1.3-1.5H411.1z"/>
	<path class="st5" d="M440.9,176.1c-0.9,0.6-1.8,1.1-2.7,1.6c1.1,0.6,2.4,1.1,3.6,1.3c-0.6,0.6-1.1,1.3-1.4,2.1
		c-3.3-0.7-6-2.9-7.3-6H431v3.3l3.5-0.7c-0.1,0.7-0.2,1.3-0.2,2c-4.6,1-5.3,1.2-5.8,1.5l0,0c-0.2-0.7-0.5-1.4-0.9-2
		c0.7-0.4,1.1-1.2,1.1-1.9v-2.1H427V173h3v-1.4h-2.6v-2.1h2.6v-1.4h-3v0.6c0,3.6-0.3,9.1-2.5,12.5c-0.7-0.5-1.4-0.9-2.2-1.3
		c2.1-3.2,2.2-7.9,2.2-11.2v-6.2h16v5.6h-2.8v1.4h3v2.1h-3v1.4h3.9v2.1h-2.2L440.9,176.1z M427,166h11v-1.4h-11V166z M432.3,169.6
		h3.1v-1.4h-3.1V169.6z M432.3,173.1h3.1v-1.4h-3.1V173.1z M435.5,175.1c0.3,0.5,0.7,1,1.1,1.4c0.7-0.4,1.4-0.9,2.1-1.4H435.5z"/>
	<path class="st5" d="M124.8,256.7c0,0,0,0.6,0,0.8c-0.2,4.8-0.5,6.6-1,7.2c-0.3,0.4-0.7,0.7-1.2,0.7c-0.7,0.1-1.3,0.1-2,0
		c0-0.6-0.2-1.3-0.5-1.8c0.5,0.1,1,0.1,1.4,0.1c0.2,0,0.4-0.1,0.6-0.2c0.2-0.3,0.3-0.7,0.3-1.1c-1.5,0.6-3,1.1-4.3,1.5l-0.7-1.8
		c0.9-0.2,2.2-0.6,3.5-1c-1-0.5-2-0.8-3-1.2l0.7-1.4c1.2,0.3,2.3,0.7,3.4,1.2l-0.5,1.1l1-0.3c0.1-0.6,0.1-1.4,0.1-2.2h-4.6
		c0.2-1.3,0.3-3.4,0.3-5h4.1V252H118v-1.8h6.6v5.1h-4.3c0,0.5-0.1,1-0.1,1.5L124.8,256.7z M132.8,256.7c0,0,0,0.6,0,0.8
		c-0.2,4.9-0.4,6.7-0.9,7.4c-0.3,0.5-0.9,0.7-1.5,0.8c-0.8,0.1-1.6,0.1-2.4,0c-0.1-0.6-0.3-1.2-0.6-1.8c0.9,0.1,1.7,0.1,2,0.1
		c0.2,0,0.5-0.1,0.7-0.2c0.2-0.5,0.4-1,0.4-1.5c-1.5,0.6-3.1,1.2-4.4,1.7l-0.7-1.8c0.8-0.2,2-0.6,3.2-1c-0.9-0.4-1.9-0.8-2.9-1.1
		l0.7-1.4c1.2,0.3,2.3,0.7,3.4,1.2l-0.5,1.1l1.2-0.4c0-0.6,0.1-1.3,0.1-2.1h-4.9c0.2-1.3,0.3-3.4,0.3-5h4.4V252h-4.7v-1.8h6.8v5.1
		h-4.5c0,0.5-0.1,1-0.1,1.5L132.8,256.7z"/>
	<path class="st5" d="M150.1,251.5c0,3.6-0.1,6.6,0.4,6.6c0.2,0,0.2-0.9,0.3-2c0.3,0.4,0.7,0.8,1.1,1.2c-0.1,1.8-0.4,2.6-1.5,2.6
		c-1.8,0-2-2.9-2.1-6.7h-1.2c-0.1,0.7-0.2,1.5-0.3,2.2c0.6,0.4,1.2,0.7,1.6,1l-0.9,1.5c-0.3-0.2-0.8-0.5-1.3-0.9
		c-0.4,1-1.2,1.9-2.1,2.5c-0.3-0.5-0.6-0.9-1-1.2v0.8l-7.4,0.5l-0.1-1.4l3-0.1v-0.8h-2.3V256h2.3v-0.8h1.7c-0.3-0.4-0.4-0.8-0.3-1.2
		v-0.4h-0.9c-0.4,1.2-1.5,2.1-2.8,2.4c-0.2-0.4-0.5-0.8-0.8-1.2c1-0.2,1.7-0.5,2-1.2h-1.8v-1.3h2.9v-0.6h-2.4v-1.2h2.4v-0.9h1.9v0.9
		h2.4v1.2h-2.4v0.6h3v1.3h-2v0.4c0,0.3,0,0.4,0.3,0.4h0.6c0.3,0,0.6,0,0.9-0.1c0,0.4,0,0.8,0.1,1.1c-0.3,0.1-0.6,0.1-0.9,0.1h-1
		c-0.3,0-0.6,0-0.8-0.2v0.6h2.4v1.2h-2.4v0.7l2.7-0.2v0.3c0.7-0.5,1.3-1.2,1.6-2.1l-1.4-0.8l0.9-1.3l0.9,0.5
		c0.1-0.4,0.1-0.9,0.2-1.3h-1.5v-1.6h1.6c0-0.6,0-1.2,0-1.9h1.8c0,0.6,0,1.3-0.1,1.9L150.1,251.5z M150.1,260.4c0,0.3,0,0.5-0.1,0.8
		c-0.2,2.4-0.6,3.5-1,4c-0.4,0.4-1,0.6-1.5,0.6c-0.5,0-1.5,0-2.5,0c0-0.7-0.2-1.3-0.6-1.9c0.9,0.1,1.8,0.1,2.2,0.1
		c0.2,0,0.5,0,0.7-0.2c0.2-0.2,0.4-0.8,0.6-1.9h-4c-0.8,2-2.6,3.3-7.1,3.9c-0.2-0.6-0.5-1.2-0.9-1.7c3.5-0.4,5.1-1.1,5.8-2.2h-4.8
		v-1.6h5.4c0.1-0.3,0.1-0.5,0.1-0.9h2.1c0,0.3-0.1,0.6-0.1,0.9L150.1,260.4z"/>
	<path class="st5" d="M168.1,257.2c-0.7,0.5-1.5,1.1-2.2,1.6c0.6,2,2.1,3.7,4.1,4.5c-0.5,0.5-1,1-1.4,1.7c-2.1-1.1-3.6-3-4.3-5.2
		c-0.2,0.1-0.4,0.2-0.5,0.3c0.5,2.1,0.1,4.1-0.8,4.8c-0.5,0.6-1.3,0.9-2.1,0.8c-0.4,0-0.9,0-1.4,0c0-0.7-0.2-1.4-0.6-2
		c0.5,0.1,1,0.1,1.6,0.1c0.4,0.1,0.7-0.1,0.9-0.4c0.4-0.5,0.6-1.1,0.5-1.8c-2.2,1.4-4.5,2.6-7,3.3c-0.3-0.6-0.6-1.2-1.1-1.7
		c2.8-0.6,5.5-1.8,7.8-3.5c-0.1-0.2-0.2-0.4-0.3-0.7c-2,1.2-4,2.1-6.2,2.8c-0.3-0.6-0.6-1.1-1-1.6c2.3-0.5,4.5-1.4,6.5-2.5
		c-0.2-0.2-0.3-0.4-0.5-0.6c-1.5,0.8-3.1,1.4-4.8,1.8c-0.3-0.6-0.7-1.1-1.1-1.6c1.9-0.4,3.8-1,5.6-1.9h-3v-1.8h9.7v1.8h-3.8
		c-0.3,0.3-0.6,0.6-1,0.8c0.6,0.6,1.2,1.3,1.5,2.1c1.2-0.8,2.3-1.6,3.3-2.6L168.1,257.2z M156.3,254.9h-2V251h6.3
		c-0.1-0.3-0.3-0.6-0.4-0.9l2.2-0.6c0.3,0.5,0.5,1,0.7,1.5h6.2v3.9h-2.1v-2h-10.8V254.9z"/>
	<path class="st5" d="M175.1,256.1c0,2.8-0.2,7-1.6,9.7c-0.5-0.4-1.1-0.8-1.7-1.1c1.2-2.5,1.3-6.1,1.3-8.6v-5h6.9
		c-0.2-0.4-0.4-0.8-0.6-1.2l1.9-0.5c0.3,0.5,0.6,1.1,0.9,1.7h5.6v1.9h-12.7V256.1z M180.2,257.7c-0.2,1.8-0.7,3.5-1.5,5.1
		c1.3,0.8,2.8,1.1,4.4,1c0.9,0,4,0,5.1,0c-0.3,0.6-0.5,1.2-0.6,1.8h-4.6c-2.2,0-3.9-0.3-5.3-1.3c-0.5,0.6-1.1,1.1-1.8,1.6
		c-0.4-0.5-0.8-1-1.3-1.4c0.7-0.4,1.4-0.9,1.9-1.6c-0.5-0.9-0.9-1.8-1.2-2.7l1.5-0.5c0.2,0.6,0.4,1.1,0.7,1.6
		c0.3-0.8,0.6-1.6,0.8-2.4h-2.8c0.6-1,1.2-2.3,1.9-3.5h-1.7v-1.6h4.4c-0.6,1.1-1.2,2.5-1.8,3.6h0.7l0.3,0L180.2,257.7z M183.1,260.8
		v-1.9H181v-1.8h2.1v-1.4c-0.8,0.1-1.5,0.2-2.2,0.2c-0.1-0.5-0.2-1-0.5-1.5c2-0.2,4-0.6,5.9-1.1l1,1.5c-0.7,0.2-1.5,0.4-2.3,0.6v1.7
		h2.2v1.8H185v1.9h2.7v1.7h-7.5v-1.7L183.1,260.8z"/>
	<path class="st5" d="M254.5,383.7c0.6,0,0.7-0.3,0.8-2.5c0.6,0.3,1.2,0.5,1.8,0.6c-0.2,2.7-0.8,3.3-2.5,3.3h-2.3
		c-2,0-2.5-0.5-2.5-2V379h-1.1c-0.4,3.1-1.3,5.3-5.9,6.5c-0.3-0.6-0.7-1.1-1.2-1.6c4-0.9,4.6-2.5,4.9-4.9h-3v-7.4l0,0
		c1.5-0.4,2.9-1,4.2-1.6l1.5,1.4c-1.2,0.4-2.4,0.8-3.6,1.1v1.5h3v1.7h-3v1.5h7.6v-1.5h-3.1V374h3.1v-1.2H250V371h5.3v8h-3.4v4.1
		c0,0.5,0.1,0.6,0.7,0.6L254.5,383.7z"/>
	<path class="st5" d="M274.4,383.6v1.5h-15.1v-1.5h6.6v-0.7h-5.4v-1.4h5.4v-0.7H261v-5h11.7v5h-4.9v0.7h5.4v1.4h-5.4v0.7
		L274.4,383.6z M274.3,375.2h-15v-1.5h3.7c-0.1-0.3-0.2-0.6-0.4-0.9l1.3-0.3h-3.6v-1.5h5.5c-0.1-0.3-0.2-0.6-0.4-0.8l1.9-0.4
		c0.2,0.4,0.4,0.8,0.6,1.2h5.3v1.5h-3.6l1.5,0.2c-0.2,0.3-0.4,0.6-0.5,0.9h3.6L274.3,375.2z M262.8,377.8h2.9V377h-2.9V377.8z
		 M265.8,379.6v-0.8h-2.9v0.8H265.8z M264.6,372.5c0.2,0.4,0.4,0.8,0.5,1.2h3.4c0.2-0.4,0.4-0.8,0.5-1.2H264.6z M270.7,377h-3v0.8h3
		V377z M270.7,378.9h-3v0.8h3V378.9z"/>
	<path class="st5" d="M291.7,372.7c-0.6,0.5-1.3,1.1-2,1.5c0.8,0.4,1.6,0.7,2.4,0.9c-0.5,0.5-0.9,1-1.2,1.6
		c-0.7-0.2-1.3-0.5-1.9-0.8v1.4c0,0.4,0,0.5,0.2,0.5h0.8c0.3,0,0.6,0,0.9-0.1c0,0.4,0.1,1,0.1,1.4c-0.3,0.1-0.7,0.1-1,0.1h-1
		c-1.4,0-1.7-0.6-1.7-1.9v-1h-1.5c0,1.3-0.7,2.6-1.8,3.3c-0.3-0.4-0.6-0.7-1-1.1v0.5h-3.3c-0.1,0.4-0.1,0.8-0.2,1.1h3.5
		c0,0,0,0.5,0,0.7c-0.2,2.2-0.4,3.3-0.8,3.8c-0.3,0.4-0.8,0.6-1.3,0.5c-0.7,0-1.5,0-2.2,0c-0.1-0.6-0.2-1.1-0.6-1.6
		c0.8,0.1,1.6,0.1,2,0.1c0.2,0,0.4,0,0.6-0.2c0.2-0.2,0.4-0.7,0.5-1.8h-3.5c0.2-1.1,0.5-2.7,0.6-4h2.9v-1.2h-2.5v-0.3
		c-0.5,0.2-1,0.5-1.5,0.6c-0.3-0.5-0.7-1-1.1-1.5c1-0.3,1.9-0.7,2.8-1.3c-0.5-0.4-1-0.7-1.5-1l1.1-1c0.6,0.3,1.2,0.6,1.8,1
		c0.4-0.3,0.7-0.7,1-1.1h-3.3v-1.5h4.3l0.3-0.1l1.2,0.6c-0.7,1.6-1.7,2.9-3.1,3.9h2.2v3.3c0.8-0.5,1.2-1.3,1.2-2.2v-1.2h3.2
		c-1.5-1.2-2.6-2.7-3.4-4.4l1.6-0.5c0.2,0.6,0.6,1.1,1,1.6c0.6-0.5,1.1-1,1.6-1.5l1.4,1c-0.7,0.6-1.4,1.2-2,1.6
		c0.3,0.3,0.6,0.5,0.9,0.8c0.7-0.5,1.3-1.1,1.8-1.7L291.7,372.7z M290.5,380c-0.4,1.1-1,2.2-1.8,3c0.8,0.4,1.4,0.8,1.9,1.2l-1,1.3
		c-0.6-0.4-1.4-0.9-2.3-1.5c-1.2,0.7-2.4,1.2-3.7,1.4c-0.2-0.5-0.5-1-0.8-1.4c1-0.2,2.1-0.5,3-0.9c-0.8-0.5-1.6-0.9-2.3-1.3l0.7-0.8
		h-0.4v-1.3h5.4h0.3L290.5,380z M285,381c0.7,0.4,1.5,0.8,2.2,1.2c0.4-0.3,0.7-0.7,1-1.2H285z"/>
	<path class="st5" d="M308.7,381.5c-0.7,0.5-1.4,0.9-2.1,1.3c0.9,0.5,1.9,0.8,2.9,1c-0.5,0.5-0.8,1-1.1,1.6
		c-2.6-0.5-4.8-2.3-5.8-4.8h-1.7v2.6l2.8-0.5c-0.1,0.5-0.2,1.1-0.2,1.6c-3.7,0.8-4.2,0.9-4.6,1.2l0,0c-0.2-0.6-0.4-1.1-0.7-1.6
		c0.5-0.3,0.9-0.9,0.9-1.5v-1.7h-1.4V379h2.4v-1.1h-2.1v-1.6h2.1v-1.1h-2.4v0.5c0,2.9-0.3,7.2-2,9.9c-0.5-0.4-1.1-0.7-1.8-1
		c1.6-2.6,1.8-6.3,1.8-8.9v-4.9h12.8v4.4h-2.3v1.1h2.4v1.6h-2.4v1.1h3.1v1.7h-1.8L308.7,381.5z M297.6,373.4h8.8v-1.1h-8.8V373.4z
		 M301.8,376.2h2.5v-1.1h-2.5V376.2z M301.8,379h2.5v-1.1h-2.5V379z M304.3,380.7c0.3,0.4,0.6,0.8,0.9,1.1c0.6-0.3,1.1-0.7,1.7-1.1
		H304.3z"/>
	<path class="st5" d="M320,379.5c-0.1,0.3-0.2,0.5-0.3,0.8h5.9v3.4c0,0.8-0.1,1.2-0.7,1.5c-0.7,0.2-1.4,0.3-2.1,0.3
		c-0.1-0.6-0.3-1.1-0.6-1.6h1.2c0.2,0,0.2,0,0.2-0.2v-1.8h-1.8v3.5h-1.8v-3.5h-1.7v3.5h-1.8v-3.5h-1.7v3.6H313v-5.1h4.8
		c0.1-0.3,0.1-0.5,0.2-0.8h-6.2v-1.5h2.3l-0.5-1.3c1-0.1,2.5-0.4,4-0.6l0.1,1.1c-1.2,0.3-2.4,0.5-3.4,0.8h12.3v1.5L320,379.5z
		 M313.7,376.5h-1.9v-3.7h6.3V372h-5.5v-1.4h13v1.4H320v0.8h6.4v3.7h-2v-2.3h-0.9l0.6,0.9c-1,0.4-2,0.6-3,0.8l-0.6-1
		c0.8-0.2,1.6-0.4,2.4-0.7H320v3.2h-1.9v-3.2h-3.3c0.9,0.2,1.8,0.4,2.7,0.7L317,376c-0.9-0.3-1.9-0.6-2.9-0.8l0.5-0.9h-0.9
		L313.7,376.5z M320.7,375.9c1.3,0.1,2.6,0.4,3.8,0.8l-0.4,1.2c-1.3-0.4-2.5-0.7-3.8-1L320.7,375.9z"/>
	<path class="st5" d="M343.5,376c-1,1.1-2,2.2-3.2,3.2c1.1,1.3,2.5,2.3,4.1,3c-0.6,0.5-1,1.2-1.4,1.8c-2.3-1.3-4.2-3.2-5.4-5.5v4.5
		c0,1.2-0.2,1.7-0.9,2c-1,0.4-2.1,0.5-3.2,0.4c-0.1-0.7-0.4-1.4-0.7-2.1c1,0,2,0,2.4,0s0.4-0.1,0.4-0.4v-2.6
		c-1.9,1.2-3.9,2.5-5.5,3.4l-1.3-1.8c1.6-0.8,4.3-2.3,6.8-3.7v-4h-6.2v-1.9h6.2V370h2v2.5h3.3c-0.7-0.5-1.5-0.9-2.2-1.3l1.2-1.2
		c1.1,0.5,2.1,1.1,3.1,1.7l-0.7,0.8h1.9v1.9h-6.4v0.2c0.4,1.1,1,2.2,1.7,3.2c0.9-0.9,1.8-1.9,2.5-2.9L343.5,376z M332.5,379.1
		c-0.7-1.2-1.6-2.2-2.6-3.2l1.5-1c1,0.9,2,1.9,2.7,3L332.5,379.1z"/>
	<path class="st5" d="M313.2,252.1c-1.5,3.2-5,4.3-9,4.7c-0.1-0.4-0.3-0.8-0.5-1.2c1.6-0.1,3.1-0.4,4.6-0.8c-0.3-0.3-0.7-0.7-1.1-1
		c-0.4,0.2-0.9,0.4-1.4,0.6c-0.2-0.4-0.5-0.7-0.8-1c1.7-0.4,3.3-1.4,4.4-2.7l1.4,0.3c-0.2,0.2-0.4,0.5-0.6,0.7h1.9l0.2-0.1
		L313.2,252.1z M311.8,248.2c-1.4,2.4-4.4,3.7-7.4,4.3c-0.1-0.4-0.3-0.8-0.6-1.1c1.1-0.2,2.1-0.4,3.1-0.8c-0.3-0.4-0.6-0.7-1-1
		c-0.3,0.2-0.6,0.3-1,0.5c-0.2-0.3-0.5-0.6-0.9-0.9c1.4-0.5,2.7-1.3,3.7-2.4l1.4,0.3c-0.2,0.2-0.4,0.4-0.6,0.6h2.2l0.2-0.1
		L311.8,248.2z M307.2,248.9l-0.3,0.2c0.4,0.3,0.8,0.6,1.2,1c0.6-0.3,1.2-0.7,1.7-1.2L307.2,248.9z M308.9,252.8l-0.6,0.4
		c0.4,0.3,0.9,0.6,1.2,1c0.7-0.4,1.3-0.9,1.8-1.5L308.9,252.8z"/>
	<path class="st5" d="M322.8,255.5c0.4,0,0.4-0.3,0.5-1.8c0.4,0.2,0.7,0.4,1.2,0.5c-0.1,1.9-0.4,2.4-1.5,2.4h-1.3
		c-1.2,0-1.5-0.4-1.5-1.6v-3.2h-1.6c-0.2,2.2-0.7,4-3.2,5c-0.2-0.4-0.5-0.7-0.8-1c2.2-0.8,2.5-2.2,2.6-4h-2.4v-1.2h9.4v1.2h-2.8v3.2
		c0,0.4,0.1,0.5,0.4,0.5L322.8,255.5z M323.2,248.9h-7.5v-1.2h7.5V248.9z"/>
	<path class="st5" d="M302.1,269.3v1.2h-9.5v-1.2h4.1v-2.1h-2.9V266h2.9v-1.9h-2.2c-0.3,0.5-0.6,1.1-1,1.5c-0.4-0.3-0.7-0.5-1.1-0.8
		c0.9-1.1,1.6-2.4,1.9-3.8l1.3,0.3c-0.1,0.5-0.3,1-0.5,1.5h1.6V261h1.3v1.9h3.6v1.2H298v1.9h3.2v1.2H298v2.1L302.1,269.3z"/>
	<path class="st5" d="M305.5,266c-0.4-0.3-1.3-0.8-2-1.1l0.7-0.9c0.6,0.3,1.5,0.7,2,1L305.5,266z M303.7,269.8
		c0.7-1.1,1.4-2.2,2-3.3l0.9,0.8c-0.6,1.1-1.2,2.3-1.9,3.3L303.7,269.8z M305.9,263.1c-0.6-0.4-1.3-0.8-1.9-1.1l0.7-0.9
		c0.6,0.3,1.5,0.8,2,1.1L305.9,263.1z M310.6,265.2v1.3h2.1v4.2h-1.2v-0.4h-3.2v0.4h-1.1v-4.3h2.1v-1.3h-2.8V264h2.8v-1.2
		c-0.7,0.1-1.4,0.2-2.1,0.2c-0.1-0.3-0.2-0.7-0.4-1c1.7-0.1,3.3-0.5,4.9-1l1,1c-0.7,0.3-1.5,0.5-2.3,0.6v1.4h2.7v1.2L310.6,265.2z
		 M311.6,267.6h-3.2v1.5h3.2L311.6,267.6z"/>
	<path class="st5" d="M317.8,267.5c0-0.1,0-0.3-0.1-0.5c-0.9,0.1-1.8,0.2-2.7,0.5c-0.1-0.2-0.2-0.8-0.4-1.1c0.3-0.1,0.5-0.3,0.8-0.7
		c0.1-0.1,0.4-0.5,0.7-0.9c-0.4,0-0.8,0.1-1.2,0.2c-0.1-0.3-0.2-0.7-0.4-1c0.2-0.1,0.4-0.3,0.6-0.6c0.5-0.8,0.9-1.7,1.3-2.6l1.1,0.5
		c-0.4,0.9-0.9,1.7-1.5,2.5l0.7,0c0.3-0.4,0.5-0.9,0.7-1.4l1,0.6c-0.6,1.1-1.3,2.2-2.1,3.1l1.1-0.1c-0.1-0.3-0.2-0.6-0.2-0.8
		l0.9-0.3c0.3,0.7,0.5,1.4,0.6,2.2L317.8,267.5z M316,268.1c-0.1,0.9-0.2,1.8-0.5,2.7c-0.3-0.1-0.7-0.3-1-0.4
		c0.3-0.8,0.4-1.7,0.4-2.5L316,268.1z M317.1,267.9c0.1,0.7,0.2,1.4,0.3,2.2l-1,0.2c0-0.7-0.1-1.5-0.2-2.2L317.1,267.9z
		 M318.1,267.6c0.2,0.5,0.4,1.1,0.5,1.6l-0.9,0.3c-0.1-0.6-0.3-1.1-0.5-1.6L318.1,267.6z M324.4,269.4v1.1h-6v-1.1h2.4V268h-1.9
		v-1.1h5.1v1.1h-2v1.5L324.4,269.4z M320.6,263c-0.3,0.5-0.7,1.1-1,1.6c0.4,0.5,0.8,1.1,1.1,1.7l-1,0.4c-0.3-0.7-0.8-1.4-1.2-2.1
		c0.4-0.6,0.8-1.2,1.1-1.9L320.6,263z M324.3,262.5h-5.7v-1.1h5.7V262.5z M321.4,266.6c-0.4-0.7-0.8-1.4-1.3-2
		c0.4-0.6,0.8-1.2,1.1-1.9l1.1,0.2c-0.3,0.5-0.7,1.1-1,1.6c0.4,0.5,0.8,1.1,1.1,1.6L321.4,266.6z M323.3,266.6
		c-0.4-0.7-0.8-1.4-1.4-2.1c0.4-0.6,0.8-1.2,1.2-1.9l1.1,0.2c-0.3,0.6-0.7,1.1-1.1,1.6c0.4,0.5,0.8,1.1,1.2,1.6L323.3,266.6z"/>
	<path class="st5" d="M325.6,269.9c0.2-0.7,0.4-1.5,0.4-2.3l0.6,0.2c-0.1,0.8-0.2,1.5-0.4,2.3L325.6,269.9z M331.9,267.8
		c-0.1,0.3-0.1,0.5-0.2,0.8c0.4,0.2,0.7,0.5,1,0.8l-0.6,0.8c-0.2-0.2-0.5-0.5-0.8-0.7c-0.2,0.5-0.5,0.9-0.9,1.3
		c-0.2-0.2-0.5-0.5-0.8-0.7c0,0.1-0.1,0.2-0.1,0.2c-0.1,0.2-0.3,0.3-0.6,0.4c-0.3,0-0.6,0-0.9,0c0-0.3-0.1-0.6-0.2-0.9
		c0.2,0,0.4,0,0.6,0c0.1,0,0.2,0,0.3-0.1c0.1-0.3,0.2-0.6,0.1-0.9l-0.4,0.1c-0.1-0.5-0.2-0.9-0.4-1.4l0.4-0.1c0.1,0.3,0.3,0.7,0.4,1
		c0-0.3,0-0.8,0-1.3h-2.8v-5.9h3.6v1h-1.1v0.7h0.9v0.2c1.1-0.6,2-1.5,2.7-2.5l1.1,0.4c-0.1,0.1-0.1,0.2-0.2,0.3
		c0.7,0.6,1.5,1.1,2.4,1.4c-0.2,0.4-0.4,0.7-0.5,1.1c-0.3-0.2-0.7-0.4-1-0.6v0.7H331v-0.5l-0.7,0.5c-0.2-0.3-0.4-0.5-0.7-0.7v0.7
		h-0.9v0.6h0.9v0.9h-0.9v0.7h1.2c0,0,0,0.3,0,0.4c0,1.2-0.1,2.3-0.2,3.5c0.6-0.7,1.1-1.6,1.2-2.5L331.9,267.8z M327.3,267.8
		c0,0.6,0.1,1.4,0.1,1.9l-0.5,0.1c0-0.5,0-1.3,0-1.9L327.3,267.8z M327.1,262.4v0.7h0.6v-0.7H327.1z M327.8,264h-0.6v0.6h0.6V264z
		 M327.1,266.2h0.6v-0.7h-0.6V266.2z M327.9,267.6c0.1,0.6,0.2,1.1,0.3,1.7l-0.5,0.1c-0.1-0.6-0.2-1.2-0.3-1.7L327.9,267.6z
		 M330.2,264.8h2.3v2.6h-2.3V264.8z M331,266.6h0.6v-1H331L331,266.6z M333.8,263.3c-0.4-0.3-0.8-0.6-1.2-1c-0.3,0.4-0.6,0.7-1,1
		H333.8z M334.5,267.7c-0.1,0.4-0.2,0.8-0.3,1.2c0.4,0.3,0.8,0.6,1.2,0.9l-0.7,0.9c-0.3-0.3-0.6-0.6-0.9-0.8
		c-0.2,0.3-0.4,0.6-0.6,0.9c-0.3-0.3-0.6-0.5-0.9-0.7c0.6-0.7,1-1.6,1.1-2.6L334.5,267.7z M332.8,264.8h2.3v2.6h-2.3V264.8z
		 M333.6,266.6h0.7v-1h-0.7V266.6z"/>
	<path class="st5" d="M538.9,176c0.9,0.6,2,1,3.1,0.9c-0.3,0.3-0.5,0.6-0.7,1c-1-0.1-2-0.4-2.8-1.1c-0.4,0.5-1.3,0.9-3,1.1
		c-0.1-0.2-0.3-0.5-0.4-0.7h-2.8v-1h3.2v0.6c2-0.2,2.3-0.7,2.3-1.1v-0.2h-0.6c-0.2,0.3-0.5,0.6-0.7,0.9c-0.3-0.2-0.6-0.5-0.9-0.6
		c0.6-0.5,1-1.2,1.2-1.9l1.1,0.2c0,0.2-0.1,0.3-0.2,0.5h3l0.2-0.1l0.9,0.3c-0.3,0.6-0.6,1.1-1,1.7l-1-0.4c0.1-0.2,0.3-0.4,0.4-0.6
		h-1.2L538.9,176L538.9,176z M539.2,182.2c1,0.4,2,0.8,2.6,1.1l-1.1,0.7c-0.9-0.5-1.8-0.9-2.8-1.2l0.6-0.5h-3l0.9,0.4
		c-1,0.6-2.1,1.1-3.3,1.4c-0.3-0.3-0.6-0.6-0.9-0.9c1-0.2,2-0.5,2.9-0.9h-1.5v-4.3h7.1v4.3L539.2,182.2z M535.2,175.6h-2.7v-0.9h2.7
		V175.6z M534.8,179.1h4.6v-0.4h-4.6V179.1z M534.8,180.3h4.6v-0.4h-4.6V180.3z M534.8,181.5h4.6V181h-4.6V181.5z"/>
	<path class="st5" d="M545,179c-0.6-0.4-1.1-0.8-1.7-1.1l0.7-0.9c0.5,0.3,1.3,0.7,1.8,1L545,179z M545.9,180.4
		c-0.4,1.1-0.9,2.3-1.4,3.4l-1.2-0.7c0.6-1.1,1.1-2.2,1.5-3.4L545.9,180.4z M545.5,176.2c-0.6-0.4-1.1-0.8-1.7-1.1l0.7-0.9
		c0.5,0.3,1.3,0.8,1.8,1L545.5,176.2z M550.9,180.5v2.3c0,0.5-0.1,0.8-0.5,1c-0.5,0.2-1,0.2-1.5,0.2c-0.1-0.4-0.2-0.7-0.3-1.1h0.9
		c0.1,0,0.2,0,0.2-0.1v-2.2H548v-3.8h1.4c0.1-0.3,0.2-0.6,0.2-0.9h-2v1.8c0,1.9-0.2,4.7-1.5,6.4c-0.3-0.3-0.7-0.5-1.1-0.7
		c1.2-1.6,1.3-4,1.3-5.7v-2.9h6.6v1.1h-3.1l1.2,0.2l-0.4,0.7h2v3.8L550.9,180.5z M549.3,181.2c-0.3,0.8-0.7,1.5-1.2,2.2
		c-0.3-0.2-0.6-0.4-1-0.6c0.5-0.6,0.8-1.2,1.1-1.9L549.3,181.2z M549.2,178.2h2.4v-0.6h-2.4V178.2z M549.2,179.6h2.4V179h-2.4V179.6
		z M552.3,180.8c0.3,0.6,0.8,1.5,1,2l-1.2,0.5c-0.3-0.7-0.6-1.4-1-2.1L552.3,180.8z"/>
	<path class="st5" d="M557.3,179c-0.2,0.9-0.4,1.9-0.8,2.8c0.2,0.1,0.4,0.2,0.7,0.4c0.9,0.4,1.9,0.6,3,0.5c1.4,0,2.9-0.1,4.3-0.3
		c-0.2,0.4-0.3,0.8-0.4,1.3c-0.9,0.1-2.7,0.1-4,0.1c-1,0.1-2.1-0.1-3-0.6c-0.4-0.2-0.8-0.6-1-0.6s-0.6,0.7-0.9,1.3l-0.8-1.2
		c0.3-0.4,0.7-0.7,1.1-1c0.3-0.6,0.5-1.2,0.6-1.8h-1.3c0.2-0.6,0.5-1.5,0.8-2.3h-1v-1.1h2.5c-0.2,0.7-0.5,1.6-0.7,2.3h0.4h0.2
		L557.3,179z M555.5,176.2c-0.1-0.5-0.4-1.2-0.6-1.8l1.1-0.3c0.2,0.6,0.5,1.3,0.6,1.7L555.5,176.2z M559.9,175.8h-2.6v-1h2.6v-0.8
		h1.2v0.8h2.8v1h-2.8v0.5h2.3v3.6h-2.3v0.5h2.9v1h-2.9v1h-1.2v-1h-2.6v-1h2.6V180h-2.2v-3.6h2.2L559.9,175.8z M558.8,177.7h1.1v-0.5
		h-1.1V177.7z M559.9,179.1v-0.5h-1.1v0.5H559.9z M561.1,177.2v0.5h1.1v-0.5H561.1z M562.2,178.5h-1.1v0.5h1.1V178.5z"/>
	<path class="st5" d="M569,178.1c0.3,0.7,0.5,1.4,0.7,2.2l-1,0.3c0-0.2-0.1-0.3-0.1-0.5c-0.9,0.1-1.9,0.2-2.8,0.5
		c-0.1-0.4-0.2-0.7-0.4-1.1c0.3-0.1,0.5-0.3,0.8-0.7c0.3-0.3,0.5-0.6,0.7-0.9c-0.4,0-0.8,0.1-1.2,0.2c-0.1-0.2-0.2-0.8-0.4-1.1
		c0.2-0.1,0.4-0.2,0.6-0.6c0.5-0.8,1-1.7,1.3-2.6l1.1,0.5c-0.4,0.9-0.9,1.7-1.5,2.5l0.8-0.1c0.2-0.4,0.5-0.9,0.7-1.3l1,0.6
		c-0.6,1.1-1.4,2.1-2.2,3l1.1-0.1c-0.1-0.3-0.2-0.6-0.2-0.8L569,178.1z M566.9,181.2c-0.1,0.9-0.2,1.8-0.5,2.6
		c-0.3-0.1-0.7-0.3-1-0.3c0.3-0.8,0.4-1.6,0.4-2.4L566.9,181.2z M568,181c0.2,0.8,0.3,1.6,0.3,2.4l-1,0.2c0-0.8-0.1-1.6-0.3-2.4
		L568,181z M569.1,180.7c0.3,0.7,0.4,1.4,0.6,2.1l-0.9,0.3c-0.1-0.7-0.3-1.4-0.5-2.1L569.1,180.7z M573,176.5v1.2h2v1.1h-5.1v-1.1
		h1.8v-1.2h-2.1v-1.1h2.1v-1.3h1.3v1.3h2.2v1.2L573,176.5z M570,179.7h4.7v4.2h-1.2v-0.4h-2.3v0.5H570V179.7z M571.2,180.9v1.5h2.3
		v-1.5H571.2z"/>
	<path class="st3" d="M374.5,513.1c-0.4,1.3-1,2.8-1.5,4c0.8,0.9,1.2,2,1.2,3.2c0.1,0.7-0.2,1.5-0.7,2c-0.3,0.2-0.6,0.3-0.9,0.3
		c-0.3,0-0.7,0-1,0c0-0.5-0.2-1.1-0.4-1.6c0.2,0,0.4,0,0.6,0c0.2,0,0.3,0,0.4-0.1c0.2-0.3,0.3-0.6,0.3-0.9c0-1.1-0.5-2.1-1.2-2.8
		c0.3-0.9,0.7-2.2,1-3.2h-1.2v12.1h-1.6v-13.7h3.4l0.3-0.1L374.5,513.1z M378.3,516.6c0,0.5,0.1,1,0.2,1.4c-3,0.7-3.5,0.9-3.9,1.2
		c-0.1-0.6-0.3-1.2-0.5-1.7c0.4-0.1,0.6-0.4,0.5-0.8v-4.7h1.8v1.8h1.9v1.5h-1.9v1.8L378.3,516.6z M379.6,518.8
		c-0.2,0.3-0.4,0.6-0.6,0.8h3.6v6.5h-1.9v-0.5h-3.9v0.5H375v-6.6h2.2c0.2-0.4,0.3-0.8,0.4-1.2L379.6,518.8z M380.7,521.1h-3.9v0.9
		h3.9L380.7,521.1z M380.7,524.4v-1h-3.9v1H380.7z M381.6,517.3c0.3,0,0.3-0.2,0.4-1.5c0.5,0.3,1,0.5,1.5,0.7
		c-0.2,1.8-0.6,2.4-1.7,2.4h-1.2c-1.5,0-1.8-0.5-1.8-2.1v-4.8h1.8v1.8h2.5v1.5h-2.5v1.5c0,0.5,0,0.5,0.3,0.5L381.6,517.3z"/>
	<path class="st3" d="M387.4,522.2c-0.1,1.3-0.3,2.5-0.7,3.8c-0.4-0.2-0.9-0.4-1.4-0.5c0.4-1.1,0.6-2.3,0.6-3.5L387.4,522.2z
		 M385.4,516.3c0.4-0.2,0.7-0.5,0.9-0.8c0.8-1.2,1.4-2.4,1.8-3.7l1.7,0.7c-0.6,1.3-1.3,2.5-2.1,3.6l1.1-0.1c0.4-0.6,0.8-1.3,1.1-2
		l1.5,1c-0.9,1.6-2,3.1-3.2,4.5l1.6-0.2c-0.1-0.3-0.3-0.7-0.4-1l1.2-0.5c0.5,1,0.9,2,1.1,3.1l-1.3,0.5c0-0.3-0.1-0.5-0.1-0.8
		c-3.3,0.6-3.8,0.7-4.2,0.9c-0.2-0.6-0.4-1.1-0.6-1.6c0.5-0.2,0.9-0.6,1.2-1c0.4-0.4,0.7-0.8,1-1.2c-0.6,0-1.2,0.1-1.8,0.3
		C385.8,517.4,385.6,516.9,385.4,516.3L385.4,516.3z M389.1,521.9c0.2,1,0.3,2,0.4,3.1l-1.3,0.3c0-1-0.2-2.1-0.3-3.1L389.1,521.9z
		 M399.5,517.2c-0.3,2-1,4-2,5.8c0.7,0.7,1.5,1.3,2.4,1.7c-0.5,0.4-0.9,1-1.2,1.5c-0.8-0.4-1.6-1-2.2-1.8c-0.6,0.7-1.4,1.3-2.2,1.8
		c-0.3-0.5-0.7-1-1.2-1.4c0.9-0.5,1.7-1.2,2.3-2c-0.5-0.8-0.9-1.7-1.2-2.7c-0.2,2.1-0.8,4.1-1.9,5.9c-0.5-0.4-1-0.8-1.6-1.1
		c0.3-0.3,0.5-0.7,0.6-1.1l-1.1,0.4c-0.2-0.8-0.4-1.7-0.7-2.5l1.2-0.4c0.3,0.7,0.5,1.5,0.7,2.2c1-2.4,1.2-5.6,1.3-9.4h-1.3v-1.7h5.2
		l0.3-0.1l1.3,0.2c-0.1,1.3-0.4,2.9-0.7,4.2h0.5l0.3-0.1L399.5,517.2z M394.4,514.2c0,0.9,0,1.8-0.1,2.6h1.4
		c0.2-0.8,0.3-1.8,0.5-2.6H394.4z M395.1,518.5c0.3,1,0.7,2,1.2,2.9c0.5-0.9,0.9-1.9,1.1-2.9H395.1z"/>
	<path class="st3" d="M415.2,521.2c-0.5,1.1-1.3,2-2.2,2.7c1,0.3,2,0.6,3.1,0.7c-0.4,0.5-0.8,1-1.1,1.6c-1.3-0.2-2.6-0.6-3.8-1.2
		c-1.3,0.6-2.8,1-4.2,1.3c-0.2-0.5-0.5-1-0.9-1.5c1.2-0.2,2.3-0.4,3.4-0.8c-0.4-0.3-0.7-0.5-1-0.9c-0.3,0.3-0.7,0.5-1.1,0.7
		c-0.4-0.4-0.8-0.8-1.3-1.2c0.4-0.2,0.9-0.4,1.3-0.7c-0.3-0.4-0.5-0.7-0.7-1.1l-0.8,1.1c-0.2-0.3-0.5-0.8-0.9-1.3v5.6h-1.7v-5.4
		c-0.4,0.5-0.8,0.9-1.3,1.3c-0.2-0.6-0.5-1.2-0.9-1.8c1.4-1.2,2.5-2.6,3.2-4.2h-2.9v-1.6h2.2c-0.3-0.6-0.6-1.3-0.9-1.9l1.5-0.6
		c0.4,0.6,0.8,1.3,1.1,2l-1,0.5h1l0.3-0.1l1,0.7v0.1c0.8-1,1.5-2.1,1.9-3.4l1.8,0.5c-0.1,0.3-0.2,0.7-0.4,1h5.6v1.5h-6.4
		c-0.1,0.2-0.3,0.4-0.4,0.6h6.1v4.6h-3.4c-0.1,0.2-0.3,0.5-0.4,0.7h2.7l0.3-0.1L415.2,521.2z M408.2,520.2c0.1,0.2,0.3,0.5,0.4,0.7
		c0.3-0.3,0.5-0.6,0.8-0.9h-1.8v-3.2l-0.1,0.1c-0.4-0.3-0.8-0.6-1.2-0.9c-0.4,0.9-0.8,1.7-1.3,2.5v0.1l0.3,0.3
		c0.3-0.5,0.6-0.9,0.9-1.4l1.1,1.1c-0.5,0.4-0.9,0.8-1.2,1.2c0.3,0.4,0.7,0.7,0.8,0.8l-0.2,0.3L408.2,520.2z M409.4,517.2h3.6v-0.6
		h-3.6V517.2z M409.4,518.9h3.6v-0.7h-3.6V518.9z M409.7,522.1c0.5,0.4,0.9,0.7,1.5,1c0.5-0.3,1-0.7,1.4-1.1h-2.8L409.7,522.1z"/>
	<path class="st3" d="M431.3,522.4c-0.8,0.5-1.5,0.9-2.4,1.3c1,0.5,2.1,0.8,3.1,0.9c-0.4,0.4-0.7,0.9-1,1.5c-3.1-0.6-5-2-6.2-4.4
		c-0.7,0.5-1.4,1-2.2,1.3v1.4l2.9-0.6c-0.1,0.5-0.1,0.9-0.1,1.4c-3.7,0.8-4.2,1-4.5,1.2v-0.1c-0.1-0.4-0.3-0.8-0.5-1.1
		c0.4-0.3,0.7-0.8,0.7-1.4l0,0c-0.8,0.2-1.5,0.4-2.3,0.6c-0.3-0.5-0.6-0.9-1-1.3c1.6-0.2,3.2-0.6,4.8-1.3h-4.5v-1.5h6.2
		c-0.1-0.3-0.2-0.5-0.4-0.8h-0.5c-0.1-0.3-0.3-0.7-0.4-1h0.8c0.1,0,0.2,0,0.2-0.2v-0.7h-1.3v2.3h-1.5v-2.3h-1.2v1.9h-1.4v-3h2.6V516
		h-3.2v-1.2h1c-0.3-0.2-0.7-0.4-1-0.5c0.5-0.6,1-1.4,1.2-2.2l1.3,0.3c-0.1,0.2-0.1,0.4-0.2,0.6h0.9v-1h1.6v1h2.5v1h-2.5v0.6h3v1.2
		h-3v0.5h2.7v1.8c0,0.3,0,0.6-0.2,0.8l0.4-0.1c0.2,0.4,0.4,0.8,0.6,1.3h5.7v1.5h-1.6L431.3,522.4z M421.1,514.6V514h-1.5
		c-0.1,0.2-0.3,0.4-0.4,0.6L421.1,514.6z M428.1,517.7h-1.6v-5.1h1.6L428.1,517.7z M426.5,521.6c0.3,0.5,0.7,0.9,1.1,1.2
		c0.7-0.4,1.4-0.8,2-1.2H426.5z M431.1,518.1c0,0.8-0.1,1.2-0.7,1.4c-0.8,0.2-1.6,0.3-2.4,0.2c-0.1-0.5-0.3-1-0.5-1.5
		c0.7,0,1.4,0,1.6,0s0.3-0.1,0.3-0.3V512h1.7L431.1,518.1z"/>
	<path class="st5" d="M508.2,422c-0.4,1.1-0.9,2.3-1.5,3.3V436h-1.8v-7.9c-0.3,0.4-0.7,0.8-1,1.2c-0.3-0.7-0.6-1.3-1-2
		c1.6-1.7,2.8-3.7,3.6-5.9L508.2,422z M517.5,434.3c0,0.7-0.1,1-0.5,1.3c-0.4,0.2-0.9,0.3-1.4,0.3c-0.1-0.5-0.2-1-0.4-1.4h0.6
		c0.1,0,0.1,0,0.1-0.2v-0.9h-0.8v2.3h-1.2v-2.3h-0.7v2.4h-1.2v-2.4h-0.8v2.7h-1.5v-3.9c-0.2,1.3-0.6,2.5-1.2,3.7
		c-0.5-0.4-1-0.7-1.5-1c1.3-2.3,1.4-5.6,1.4-7.9v-4.4c2.6-0.1,5.1-0.5,7.6-1l1.2,1.4c-2.3,0.5-4.7,0.9-7.1,1v0.6h7.1v3.8H510
		c0,0.2,0,0.5,0,0.7h7.5L517.5,434.3z M510.1,425.9v0.9h5.3v-0.9H510.1z M511.9,431.9v-1.5h-0.8v1.5H511.9z M513.9,431.9v-1.5h-0.7
		v1.5H513.9z M515.9,431.9v-1.5h-0.8v1.5H515.9z"/>
	<path class="st5" d="M528.1,430.7c0.5,1.3,0.9,2.7,1.3,4l-1.5,0.6c0-0.3-0.1-0.6-0.2-1c-1.1,0.3-2.2,0.7-3.2,1.2
		c-0.1-0.5-0.3-0.9-0.6-1.3c0.4-0.2,0.7-0.6,0.7-1.1v-4.7c-0.5,3.4-1.8,5.9-4.1,7.4c-0.3-0.5-0.6-0.9-0.9-1.3c1.4-0.8,2.5-2.2,3-3.8
		c-0.8,0.1-1.7,0.2-2.5,0.5c-0.1-0.5-0.3-1-0.5-1.4c0.3-0.1,0.7-0.4,1-1c0.4-0.6,0.8-1.2,1.1-1.8c-0.5,0-1.1,0.1-1.6,0.3
		c-0.1-0.5-0.3-1-0.5-1.5c0.2-0.1,0.5-0.4,0.7-0.8c0.6-1.1,1-2.3,1.3-3.5l1.7,0.4c-0.4,1.3-1,2.5-1.7,3.7l0.8-0.1
		c0.2-0.4,0.4-0.9,0.6-1.3l1.5,0.6V423h1.5c-0.2-0.4-0.4-0.7-0.6-1l1.5-0.5c0.4,0.5,0.7,1,0.9,1.6h1.1v7.3h-2.8v2.9l1-0.3
		c-0.2-0.6-0.4-1.2-0.6-1.7L528.1,430.7z M524.6,428.3v-3.4c-0.8,1.6-1.7,3.1-2.7,4.5l1.1-0.1c0.1-0.4,0.1-0.8,0.2-1.2L524.6,428.3z
		 M526.2,424.6v1.4h1.3v-1.4H526.2z M527.5,428.7v-1.3h-1.3v1.3H527.5z M534.2,422.9c-0.4,1.5-1,3.4-1.4,4.7
		c0.8,1.1,1.2,2.3,1.2,3.7c0.1,0.8-0.1,1.6-0.7,2.2c-0.3,0.2-0.6,0.3-0.9,0.4c-0.3,0-0.7,0-1,0c0-0.6-0.2-1.1-0.4-1.6h0.7
		c0.2,0,0.3-0.1,0.4-0.1c0.2-0.3,0.3-0.7,0.3-1.1c0-1.2-0.4-2.3-1.2-3.3c0.4-1.1,0.7-2.8,1-4H531V436h-1.5v-13.8h3.3l0.2-0.1
		L534.2,422.9z"/>
	<path class="st5" d="M541.3,431.5c-0.3-0.4-0.7-1-1.2-1.5v6.1h-1.8v-5.8c-0.6,0.5-1.2,1-1.8,1.4c-0.2-0.7-0.4-1.3-0.7-1.9
		c1.7-1,3-2.4,4-4.1h-3.6V424h2.8c-0.4-0.7-0.8-1.3-1.3-1.9l1.5-0.8c0.6,0.6,1,1.3,1.4,2l-1.2,0.7h1.5l0.3-0.1l1,0.7
		c-0.5,1.2-1.1,2.3-1.8,3.3c0.6,0.6,1.8,1.7,2.1,2L541.3,431.5z M550.7,433.7v1.9h-9.1v-1.9h3.8v-5.8h-3.1v-1.8h3.1v-4.6h1.9v4.6h3
		v1.8h-3v5.8H550.7z"/>
	<path class="st5" d="M563.9,433.8c1,0,1.9-0.1,2.9-0.2c0.1,0.5,0.2,1.3,0.3,1.7c-1.1,0.2-2.2,0.2-3.2,0.2h-6.2
		c-2.8,0-4.1-0.9-4.1-3.7v-8.2h-0.6V422h13.3v1.6h-10.9v8.3c0,1.4,0.5,1.9,2.1,1.9L563.9,433.8z M556.1,428.8h4.3v4.2h-4.3V428.8z
		 M557.6,431.8h1.2V430h-1.2V431.8z M563.9,428.1h-6.2v-3.7h6.2V428.1z M562,425.6h-2.6v1.3h2.6V425.6z M565.5,433h-4.4v-4.2h4.4
		V433z M563.9,430h-1.3v1.7h1.3V430z"/>
	<path class="st5" d="M583.4,424c-0.6,0.5-1.2,1-1.8,1.4c0.7,0.4,1.5,0.7,2.2,0.9c-0.4,0.4-0.8,0.9-1.1,1.5
		c-0.6-0.2-1.2-0.4-1.8-0.8v1.4c0,0.4,0,0.5,0.2,0.5h0.8c0.3,0,0.5,0,0.8-0.1c0,0.4,0.1,0.9,0.1,1.3c-0.3,0.1-0.6,0.1-0.9,0.1h-1
		c-1.3,0-1.6-0.5-1.6-1.8v-0.9h-1.4c0,1.3-0.7,2.4-1.7,3.1c-0.3-0.4-0.6-0.7-0.9-1v0.5h-3.1c-0.1,0.4-0.1,0.7-0.2,1.1h3.3
		c0,0,0,0.4,0,0.6c-0.2,2.1-0.4,3.1-0.8,3.5c-0.3,0.3-0.8,0.5-1.3,0.5c-0.7,0-1.4,0-2.1,0c-0.1-0.6-0.2-1.1-0.5-1.5
		c0.8,0.1,1.5,0.1,1.9,0.1c0.2,0,0.4,0,0.6-0.2c0.2-0.2,0.3-0.7,0.4-1.7h-3.3c0.2-1,0.5-2.6,0.6-3.8h2.8v-1.1h-2.3v-0.2
		c-0.5,0.2-0.9,0.4-1.4,0.6c-0.3-0.5-0.6-1-1-1.4c0.9-0.3,1.8-0.7,2.6-1.2c-0.5-0.3-1-0.7-1.5-0.9l1.1-1c0.6,0.3,1.1,0.6,1.7,1
		c0.3-0.3,0.6-0.6,0.9-1h-3.1V422h4.1l0.3-0.1l1.2,0.6c-0.6,1.5-1.7,2.8-3,3.7h2.1v3.1c0.7-0.4,1.2-1.2,1.1-2.1v-1.1h3
		c-1.4-1.1-2.5-2.5-3.2-4.2l1.5-0.4c0.2,0.5,0.5,1,0.9,1.5c0.5-0.4,1-0.9,1.5-1.4l1.3,1c-0.6,0.5-1.3,1.1-1.9,1.5
		c0.3,0.2,0.5,0.5,0.8,0.7c0.6-0.5,1.2-1,1.7-1.6L583.4,424z M582.3,431c-0.3,1.1-0.9,2-1.7,2.8c0.7,0.4,1.3,0.8,1.8,1.1l-0.9,1.2
		c-0.5-0.4-1.3-0.9-2.1-1.4c-1.1,0.6-2.3,1.1-3.5,1.4c-0.2-0.5-0.5-0.9-0.8-1.4c1-0.2,1.9-0.5,2.8-0.9c-0.8-0.4-1.5-0.9-2.2-1.2
		l0.6-0.8h-0.4v-1.2h5.1h0.3L582.3,431z M577.1,431.9c0.7,0.4,1.4,0.7,2.1,1.1c0.4-0.3,0.7-0.7,1-1.1H577.1z"/>
	<path class="st5" d="M599.4,432.3c-0.6,0.4-1.3,0.8-2,1.2c0.9,0.5,1.8,0.8,2.8,1c-0.4,0.5-0.8,1-1.1,1.5c-2.5-0.5-4.5-2.2-5.5-4.5
		H592v2.4l2.6-0.5c-0.1,0.5-0.1,1-0.2,1.5c-3.5,0.8-4,0.9-4.3,1.1l0,0c-0.2-0.5-0.4-1-0.7-1.5c0.5-0.3,0.8-0.9,0.8-1.5v-1.6H589V430
		h2.3v-1.1h-2v-1.5h2v-1.1H589v0.5c0,2.7-0.2,6.8-1.9,9.4c-0.5-0.4-1.1-0.7-1.7-1c1.5-2.4,1.7-5.9,1.7-8.4v-4.6h12.1v4.2H597v1.1
		h2.3v1.5H597v1.1h3v1.6h-1.7L599.4,432.3z M589,424.7h8.3v-1H589V424.7z M593,427.4h2.3v-1.1H593V427.4z M593,430h2.3v-1.1H593V430
		z M595.4,431.6c0.2,0.4,0.5,0.7,0.9,1c0.5-0.3,1.1-0.7,1.6-1H595.4z"/>
	<path class="st5" d="M519.6,446.9c0-2.2,0.6-4.3,1.8-6.2l1.1,0.5c-1.9,3.6-1.9,7.9,0,11.5l-1.1,0.5
		C520.2,451.3,519.6,449.1,519.6,446.9z"/>
	<path class="st5" d="M538.1,442.5c-0.5,0.4-0.9,0.8-1.4,1.1c0.5,0.3,1.1,0.5,1.7,0.7c-0.3,0.3-0.6,0.7-0.8,1.1
		c-0.5-0.2-0.9-0.3-1.4-0.6v1c0,0.3,0,0.4,0.2,0.4h0.6c0.2,0,0.4,0,0.6-0.1c0,0.3,0,0.7,0.1,1c-0.2,0.1-0.5,0.1-0.7,0.1h-0.7
		c-1,0-1.2-0.4-1.2-1.4v-0.7H534c0,1-0.5,1.9-1.3,2.4c-0.2-0.3-0.5-0.5-0.7-0.8v0.4h-2.4c0,0.3-0.1,0.6-0.1,0.8h2.5c0,0,0,0.3,0,0.5
		c-0.1,1.6-0.3,2.4-0.6,2.7c-0.3,0.3-0.6,0.4-1,0.4c-0.5,0-1.1,0-1.6,0c0-0.4-0.2-0.8-0.4-1.2c0.6,0,1.2,0.1,1.5,0.1
		c0.2,0,0.3,0,0.4-0.1c0.1-0.1,0.2-0.5,0.3-1.3H528c0.2-0.8,0.4-2,0.5-2.9h2.1v-0.8h-1.7V445c-0.4,0.2-0.7,0.3-1.1,0.5
		c-0.2-0.4-0.5-0.7-0.8-1c0.7-0.2,1.4-0.5,2-0.9c-0.4-0.3-0.7-0.5-1.1-0.7l0.8-0.8c0.4,0.2,0.9,0.5,1.3,0.8c0.3-0.2,0.5-0.5,0.7-0.8
		h-2.4V441h3.1l0.2-0.1l0.9,0.4c-0.5,1.1-1.3,2.1-2.2,2.8h1.6v2.4c0.6-0.3,0.9-1,0.8-1.6v-0.9h2.3c-1.1-0.8-1.9-1.9-2.4-3.2l1.1-0.3
		c0.2,0.4,0.4,0.8,0.7,1.1c0.4-0.3,0.8-0.7,1.1-1.1l1,0.7c-0.5,0.4-1,0.8-1.5,1.2c0.2,0.2,0.4,0.4,0.6,0.5c0.5-0.4,0.9-0.8,1.3-1.2
		L538.1,442.5z M537.2,447.8c-0.3,0.8-0.7,1.5-1.3,2.1c0.5,0.3,1,0.6,1.4,0.8l-0.7,1c-0.4-0.3-1-0.7-1.6-1c-0.8,0.5-1.7,0.8-2.7,1
		c-0.2-0.4-0.4-0.7-0.6-1c0.7-0.1,1.5-0.3,2.1-0.7c-0.6-0.3-1.2-0.6-1.7-0.9l0.5-0.6h-0.3v-1h3.9h0.2L537.2,447.8z M533.2,448.5
		c0.5,0.3,1.1,0.5,1.6,0.8c0.3-0.2,0.5-0.5,0.8-0.8H533.2z"/>
	<path class="st5" d="M550.4,448.9c-0.5,0.3-1,0.6-1.5,0.9c0.7,0.4,1.4,0.6,2.1,0.7c-0.3,0.4-0.6,0.8-0.8,1.2
		c-1.9-0.4-3.4-1.7-4.2-3.4h-1.2v1.9l2-0.4c-0.1,0.4-0.1,0.8-0.1,1.2c-2.6,0.6-3.1,0.7-3.3,0.8l0,0c-0.1-0.4-0.3-0.8-0.5-1.1
		c0.4-0.2,0.6-0.7,0.6-1.1v-1.2h-1v-1.2h1.8v-0.8h-1.5v-1.2h1.5v-0.8h-1.8v0.4c0,2.1-0.2,5.2-1.5,7.2c-0.4-0.3-0.8-0.5-1.3-0.7
		c1.2-1.9,1.3-4.5,1.3-6.4v-3.5h9.2v3.2h-1.6v0.8h1.7v1.2h-1.7v0.8h2.2v1.2h-1.3L550.4,448.9z M542.4,443.1h6.3v-0.8h-6.3V443.1z
		 M545.4,445.1h1.8v-0.8h-1.8V445.1z M545.4,447.1h1.8v-0.8h-1.8V447.1z M547.2,448.3c0.2,0.3,0.4,0.6,0.7,0.8
		c0.4-0.2,0.8-0.5,1.2-0.8H547.2z"/>
	<path class="st5" d="M563.4,446.8c0,0,0,0.3,0,0.5c-0.1,2.7-0.1,3.7-0.4,4c-0.2,0.2-0.4,0.4-0.7,0.4c-0.3,0-0.7,0-1,0
		c0-0.4-0.1-0.8-0.3-1.1c0.2,0,0.5,0,0.7,0c0.1,0,0.2,0,0.3-0.1c0.2-0.9,0.3-1.8,0.2-2.7h-0.6c-0.1,1.5-0.7,2.9-1.7,3.9
		c-0.2-0.3-0.5-0.6-0.8-0.9c0,0.2-0.1,0.3-0.2,0.5c-0.1,0.2-0.4,0.4-0.7,0.4c-0.3,0-0.7,0-1,0c0-0.4-0.1-0.8-0.3-1.1h0.6
		c0.1,0,0.2,0,0.3-0.1c0.2-0.9,0.3-1.8,0.2-2.7h-0.5c-0.1,1.5-0.6,2.9-1.7,4c-0.2-0.3-0.5-0.6-0.8-0.9c0.8-0.8,1.2-1.9,1.2-3.1h-0.9
		v-1.1h1c0-0.4,0-0.7,0-1.1h0.3c-0.2-0.3-0.4-0.7-0.7-0.9v0.1H555v6.9h-1.4v-6.9h-1.3v-1.3h1.3v-3h1.4v3h1.2v1.1
		c1-0.2,1.8-0.9,2.2-1.8h-1.8v-1.1h2.1c0.1-0.4,0.1-0.8,0.1-1.2h1.3c0,0.4-0.1,0.8-0.1,1.2h2.9v0.5c-0.1,1.7-0.3,2.5-0.6,2.8
		c-0.2,0.2-0.5,0.4-0.8,0.4c-0.5,0-0.9,0-1.4,0c0-0.4-0.2-0.8-0.4-1.2c0.4,0,0.7,0,1.1,0c0.1,0,0.3,0,0.4-0.1
		c0.1-0.1,0.2-0.5,0.3-1.3h-1.8c-0.5,1.3-1.5,2.4-2.9,2.8h0.8c0,0.4,0,0.8,0,1.1h1.6c0,0,0,0.3,0,0.5c0,1.2,0,2.4-0.2,3.6
		c0.8-0.8,1.3-1.9,1.3-3h-0.8v-1.1h0.9c0-0.4,0-0.7,0-1.1h1.2c0,0.4,0,0.8,0,1.1L563.4,446.8z"/>
	<path class="st5" d="M571.6,440.9l-0.2,0.2c1.5,1.1,3.2,1.8,5,2.2c-0.4,0.3-0.7,0.7-0.9,1.1l-0.7-0.2v3.1h-8.3v-3
		c-0.2,0.1-0.5,0.2-0.7,0.2c-0.2-0.4-0.5-0.8-0.8-1.1c2.1-0.4,4-1.4,5.4-2.9L571.6,440.9z M574.3,444c-0.6-0.2-1.1-0.5-1.6-0.7v0.3
		h-4.2v-0.2c-0.5,0.2-0.9,0.5-1.4,0.7L574.3,444z M567,447.6h7v4h-1.5v-0.3h-4.2v0.3H567V447.6z M568.3,446.4
		c-0.1-0.4-0.2-0.9-0.4-1.2l0.9-0.3h-1.3v1.5H568.3z M568.3,448.6v0.5h4.2v-0.5H568.3z M572.5,450.5V450h-4.2v0.5L572.5,450.5z
		 M569.8,444.9H569c0.2,0.4,0.4,0.8,0.5,1.3l-0.8,0.2h1.2L569.8,444.9z M571.5,442.7c-0.3-0.2-0.7-0.5-1-0.8c-0.3,0.3-0.7,0.5-1,0.8
		H571.5z M571,444.9v1.5h1.1l-0.7-0.2c0.2-0.4,0.3-0.9,0.5-1.3H571z M573.3,444.9h-1.2l0.9,0.2c-0.2,0.5-0.5,1-0.7,1.3h1
		L573.3,444.9z"/>
	<path class="st5" d="M580.8,452.7c1.9-3.6,1.9-7.9,0-11.5l1.1-0.5c2.4,3.8,2.4,8.6,0,12.4L580.8,452.7z"/>
	<path class="st5" d="M627.4,237.8c2,1.8,3.9,3.9,5.5,6.1l-2.1,1.5c-0.3-0.5-0.7-1.1-1.1-1.6c-11.1,0.5-12.6,0.6-13.7,1
		c-0.2-0.8-0.5-1.6-0.8-2.4c0.7-0.3,1.3-0.7,1.7-1.2c1.7-1.7,3.2-3.6,4.4-5.7l2.5,1.1c-1.3,1.9-2.9,3.7-4.5,5.3l8.6-0.3
		c-0.8-0.9-1.7-1.8-2.4-2.6L627.4,237.8z M616.8,246.1h14.1v9.1h-2.7v-1h-8.9v1.1h-2.5V246.1z M619.3,248.5v3.3h8.8v-3.3H619.3z"/>
	<path class="st5" d="M638.8,245.4c-0.9-0.8-1.9-1.5-3-2.1l1.4-1.7c1.1,0.5,2.2,1.2,3.1,2L638.8,245.4z M639.2,240.1
		c-0.9-0.9-1.8-1.7-2.9-2.3l1.4-1.7c1.1,0.6,2.1,1.3,3,2.1L639.2,240.1z M636.3,253.9c1-2.2,1.9-4.4,2.6-6.7l2,1.2
		c-0.7,2.2-1.5,4.6-2.3,6.7L636.3,253.9z M641.8,243.9c-0.1,1-0.4,1.9-0.9,2.8c-0.3-0.3-0.6-0.5-1-0.7c0.4-0.7,0.6-1.5,0.7-2.4
		L641.8,243.9z M644.4,243c-0.1-0.2-0.1-0.4-0.2-0.6c-1.2,0.1-2.4,0.3-3.5,0.6c-0.1-0.3-0.3-0.7-0.5-1c0.3,0,0.6-0.3,1-0.7
		c0.4-0.4,0.7-0.9,1-1.3c-0.6,0-1.1,0.1-1.6,0.3c-0.1-0.3-0.3-0.7-0.5-1c0.3-0.1,0.5-0.3,0.7-0.6c0.6-0.8,1-1.7,1.3-2.7l1.3,0.5
		c-0.3,0.8-0.8,1.6-1.3,2.3h0.9c0.2-0.3,0.4-0.6,0.5-0.9l1.3,0.6c-0.6,1.1-1.4,2.1-2.2,3l1.2-0.1c-0.1-0.2-0.2-0.4-0.3-0.5l1-0.4
		c0.4,0.7,0.7,1.4,0.9,2.2L644.4,243z M654.6,250.8c0,0.3-0.1,0.6-0.1,0.9c-0.3,1.7-0.7,2.6-1.3,3c-0.6,0.4-1.3,0.6-1.9,0.5
		c-0.7,0-1.9,0-3.2,0c-0.1-0.7-0.3-1.3-0.7-1.8c1.2,0.1,2.6,0.1,3.1,0.1c0.3,0,0.6,0,0.9-0.2c0.3-0.3,0.5-0.7,0.6-1.1h-10.6
		c0.4-1.2,0.7-2.4,0.9-3.6h8.9v-0.7h-9.5v-1.4h11.8v3.4h-9.2l-0.2,0.7L654.6,250.8z M642.5,246.2c0-0.8-0.2-1.6-0.4-2.4l1.1-0.3
		c0.2,0.8,0.4,1.5,0.4,2.3L642.5,246.2z M644.3,245.8c-0.1-0.8-0.3-1.5-0.6-2.2l1-0.4c0.3,0.7,0.5,1.4,0.6,2.1L644.3,245.8z
		 M650.1,239.2h-5v-1.3h2c-0.2-0.5-0.4-1-0.6-1.5l1.6-0.3c0.3,0.5,0.5,1.1,0.8,1.6l-0.8,0.2h2.1L650.1,239.2z M645.7,243h4v3.1h-4
		V243z M649.7,240.8h-4v-1.1h4V240.8z M649.7,242.4h-4v-1.1h4V242.4z M647.2,245h1v-0.9h-1V245z M651.7,243.8
		c-0.1,1-0.4,1.9-0.9,2.8c-0.3-0.3-0.6-0.5-1-0.7c0.4-0.7,0.6-1.5,0.7-2.4L651.7,243.8z M654.3,243c0-0.2-0.1-0.4-0.2-0.7
		c-1.2,0.1-2.4,0.3-3.5,0.6c-0.1-0.4-0.3-0.7-0.5-1c0.4-0.1,0.8-0.4,1-0.7c0.4-0.4,0.7-0.8,1-1.3c-0.6,0-1.1,0.1-1.7,0.2
		c-0.1-0.3-0.3-0.7-0.5-1c0.2,0,0.4-0.2,0.7-0.6c0.6-0.8,1-1.7,1.3-2.7l1.3,0.5c-0.4,0.8-0.8,1.6-1.3,2.3h1c0.2-0.3,0.3-0.6,0.5-0.9
		l1.3,0.6c-0.6,1.1-1.4,2.1-2.2,3.1l1.2-0.1c-0.1-0.2-0.2-0.4-0.2-0.5l1-0.4c0.4,0.7,0.7,1.5,0.9,2.2L654.3,243z M652.3,246.5
		c-0.1-0.9-0.2-1.8-0.4-2.6l1.1-0.3c0.2,0.8,0.4,1.7,0.5,2.5L652.3,246.5z M654.6,243.2c0.3,0.8,0.6,1.7,0.8,2.5l-1,0.5
		c-0.1-0.9-0.4-1.8-0.7-2.6L654.6,243.2z"/>
	<path class="st5" d="M671.2,239.5c1.1,1.1,3.3,1.6,6.2,1.8c-0.6,0.6-1,1.3-1.4,2c-2-0.1-3.9-0.9-5.5-2.1c-0.8,0.9-2.5,1.7-6,2.1
		c-0.2-0.5-0.5-0.9-0.8-1.4h-5.5v-1.9h6.3v1.3c4-0.4,4.5-1.4,4.5-2.1v-0.3h-1.2c-0.4,0.7-0.9,1.3-1.5,1.8c-0.6-0.5-1.2-0.9-1.8-1.3
		c1.1-1,2-2.3,2.4-3.7l2.2,0.5c-0.1,0.3-0.2,0.6-0.3,0.9h5.9l0.4-0.1l1.7,0.5c-0.5,1.2-1.2,2.3-1.9,3.3l-1.9-0.7
		c0.3-0.4,0.5-0.8,0.7-1.2h-2.3L671.2,239.5L671.2,239.5z M671.7,251.8c1.9,0.7,4,1.5,5.2,2.1l-2.2,1.3c-1.7-1-3.6-1.8-5.4-2.5
		l1.3-1h-5.9l1.8,0.8c-2,1.2-4.2,2.1-6.5,2.7c-0.6-0.7-1.2-1.3-1.8-1.8c2-0.3,3.9-0.9,5.7-1.7h-3v-8.5h14v8.5L671.7,251.8z
		 M663.9,238.7h-5.3v-1.8h5.3V238.7z M663.2,245.7h9v-0.9h-9V245.7z M663.2,248h9v-0.9h-9V248z M663.2,250.4h9v-0.9h-9V250.4z"/>
	<path class="st5" d="M683.2,245.5c-1.1-0.8-2.2-1.5-3.4-2.1l1.4-1.8c1.1,0.5,2.7,1.4,3.5,1.9L683.2,245.5z M685,248.4
		c-0.8,2.2-1.8,4.6-2.7,6.7l-2.3-1.3c1.1-2.2,2.1-4.4,2.9-6.7L685,248.4z M684.2,240c-1.1-0.8-2.2-1.5-3.4-2.2l1.4-1.8
		c1,0.6,2.7,1.5,3.5,2L684.2,240z M694.9,248.4v4.6c0,1.1-0.2,1.6-0.9,2c-1,0.3-2,0.5-3,0.4c-0.1-0.7-0.4-1.4-0.7-2.1
		c0.7,0,1.6,0,1.8,0s0.3-0.1,0.3-0.3v-4.4h-3.3v-7.5h2.8c0.2-0.6,0.4-1.2,0.5-1.8h-4v3.5c0,3.7-0.4,9.2-2.9,12.7
		c-0.7-0.5-1.4-1-2.1-1.4c2.3-3.2,2.5-8,2.5-11.3v-5.8h13v2.2h-6l2.3,0.4c-0.3,0.5-0.5,0.9-0.8,1.4h4v7.5L694.9,248.4z M691.7,249.9
		c-0.7,1.5-1.5,2.9-2.4,4.3c-0.6-0.5-1.3-0.9-1.9-1.2c0.9-1.1,1.6-2.4,2.2-3.7L691.7,249.9z M691.4,243.8h4.8v-1.1h-4.8V243.8z
		 M691.4,246.7h4.8v-1.2h-4.8V246.7z M697.6,249.1c0.7,1.2,1.6,2.9,2,4l-2.3,1c-0.5-1.4-1.2-2.8-1.9-4.1L697.6,249.1z"/>
	<path class="st5" d="M627.8,263.1c1,3.2,3.1,5.9,6,7.5c-0.7,0.7-1.2,1.5-1.8,2.3c-0.6-0.4-1.1-0.8-1.6-1.2
		c-0.2,6.2-0.5,8.6-1.2,9.4c-0.4,0.6-1.1,1-1.9,1c-1,0.1-2.1,0.1-3.2,0.1c-0.1-0.9-0.4-1.7-0.8-2.5c1.2,0.1,2.2,0.1,2.8,0.1
		c0.3,0,0.6-0.1,0.8-0.3c0.4-0.5,0.7-2.3,0.8-6.7h-4.1c-0.5,4-1.9,7.6-7.3,9.6c-0.4-0.9-1-1.6-1.7-2.3c4.7-1.5,5.8-4.3,6.2-7.3h-3.5
		v-1.4c-0.5,0.5-1,1-1.6,1.5c-0.6-0.7-1.3-1.3-2.1-1.8c2.5-1.9,4.3-4.6,5.2-7.6l2.6,0.6c-0.7,2.3-1.8,4.4-3.3,6.3h10.8
		c-1.3-1.5-2.4-3.2-3.2-5h-3.3v-2.3L627.8,263.1z"/>
	<path class="st5" d="M636.2,263.6h9.9v2.1h-2.6v2h2.5V282h-2v-1h-5.6v1.3h-1.9v-14.6h2.3v-2h-2.6L636.2,263.6z M644,279v-4.7h-0.9
		c-1.1,0-1.4-0.4-1.4-1.8v-2.7h-0.9v1.5c0.1,1.4-0.4,2.8-1.4,3.8c-0.3-0.3-0.6-0.6-1-0.9v4.8H644z M638.4,269.8v4.3
		c0.7-0.7,1.1-1.8,1-2.8v-1.5H638.4z M639,275.8h4.4v1.9H639L639,275.8z M641.6,265.7h-0.9v2h0.9V265.7z M644,269.8h-0.9v2.7
		c0,0.3,0,0.4,0.2,0.4h0.4c0.2,0,0.2,0,0.3,0V269.8z M652.3,279.8c0.7,0,0.9-0.5,1-3.3c0.7,0.5,1.4,0.8,2.2,1
		c-0.2,3.5-0.9,4.6-3,4.6h-2.7c-2.2,0-3-0.7-3-3.2v-8.5h5.5v-4.2h-5.6v-2.4h8v8.9h-5.4v6.1c0,0.8,0.1,1,0.9,1L652.3,279.8z"/>
	<path class="st5" d="M670.5,269.6c2.5,1.7,4.8,3.6,7,5.7l-2.1,1.9c-2-2.1-4.1-4-6.4-5.7v10.8h-2.7v-10.2c-1.9,2.1-4.2,3.8-6.6,5.1
		c-0.5-0.8-1.1-1.6-1.7-2.2c3.7-1.8,6.8-4.7,9-8.2h-8.4v-2.5h18.1v2.5h-6.5c-0.4,0.7-0.8,1.3-1.2,1.9v2.2L670.5,269.6z"/>
	<path class="st5" d="M686.5,273.8l0.5,2.2c-2.2,1.1-4.5,2.2-6.4,3.1l-1-2.5c0.7-0.2,1.6-0.6,2.6-1V270H680v-2.4h2.2v-4.5h2.3v4.5h2
		v2.4h-2v4.6L686.5,273.8z M699,267.1c-0.2,9.5-0.5,12.8-1.3,13.9c-0.5,0.7-1.3,1.2-2.1,1.2c-1.1,0.1-2.3,0.1-3.4,0
		c-0.1-0.9-0.4-1.7-0.9-2.4c1.5,0.1,2.8,0.1,3.4,0.1c0.3,0.1,0.7-0.1,0.9-0.3c0.7-0.7,0.9-4,1-11.5h-6.1c-0.5,1.1-1.2,2.2-1.9,3.2
		c-0.7-0.5-1.3-0.9-2.1-1.3c1.7-2.1,2.8-4.6,3.5-7.2l2.3,0.6c-0.2,0.9-0.5,1.7-0.9,2.6h7.5V267.1z M689,274.9h6.4v2.1H689V274.9z
		 M694.9,270.9v2.1H690v-2.1H694.9z"/>
	<circle class="st3" cx="331.7" cy="81.6" r="5.9"/>
	<circle class="st3" cx="468.5" cy="60" r="1.9"/>
	<circle class="st3" cx="419.5" cy="44.5" r="1.9"/>
	<circle class="st3" cx="367.4" cy="48.3" r="3"/>
	<circle class="st3" cx="488" cy="161" r="1.9"/>
	<circle class="st3" cx="468.1" cy="303.4" r="1.9"/>
	<circle class="st3" cx="493.1" cy="74.8" r="6.8"/>
	<circle class="st3" cx="581.4" cy="164.9" r="3.9"/>
	<circle class="st3" cx="492.7" cy="293.9" r="15"/>
	<line class="st6" x1="292.9" y1="310.4" x2="292.9" y2="296.4"/>
	<line class="st6" x1="235.9" y1="343.4" x2="223.8" y2="336.4"/>
	<line class="st6" x1="236" y1="409.2" x2="223.9" y2="416.2"/>
	<line class="st6" x1="293.1" y1="442.1" x2="293.1" y2="456.1"/>
	<line class="st6" x1="350" y1="409" x2="362.1" y2="416"/>
	<line class="st6" x1="349.9" y1="343.2" x2="362" y2="336.2"/>
	<line class="st2" x1="368.9" y1="231.7" x2="320.5" y2="321.9"/>
	<line class="st2" x1="443.2" y1="224.4" x2="515.4" y2="376.2"/>
	<line class="st2" x1="476.9" y1="173.4" x2="585.4" y2="221.5"/>
	<circle class="st3" cx="515.4" cy="194.4" r="10.5"/>
	<path class="st5" d="M493,288.5l-0.4,0.5c1.2,1.1,2.6,2,4.2,2.5c-0.4,0.3-0.7,0.7-0.9,1.1c-0.5-0.2-1-0.5-1.5-0.8v0.7h-5.3V292
		c-0.5,0.3-0.9,0.5-1.4,0.8c-0.2-0.4-0.6-0.8-0.9-1.1c2-0.7,3.7-2,5-3.7L493,288.5z M488.5,293.4h6.8v4.4H494v-0.4h-4.2v0.5h-1.3
		L488.5,293.4z M489.8,294.5v1.7h4.2v-1.7H489.8z M493.7,291.3c-0.7-0.4-1.3-1-1.8-1.5c-0.5,0.6-1.1,1.1-1.7,1.5H493.7z"/>
	<path class="st5" d="M501.5,288.4c-0.3,0.8-0.6,1.5-1,2.2v7.2h-1.3v-5.3c-0.2,0.3-0.4,0.5-0.6,0.8c-0.2-0.5-0.4-0.9-0.7-1.3
		c1.1-1.1,1.9-2.5,2.4-4L501.5,288.4z M504.8,290.8v1.2h2.7v1.1h-2.7v1.2h2.9v1.2h-2.9v2.3h-1.3v-7h-0.4c-0.4,0.7-0.9,1.4-1.4,2
		c-0.3-0.3-0.6-0.6-1-0.9c1-1.2,1.8-2.5,2.2-4l1.2,0.3c-0.1,0.4-0.3,0.9-0.5,1.3h4.1v1.2L504.8,290.8z"/>
	<circle class="st3" cx="202.5" cy="224.8" r="4.3"/>
	<circle class="st3" cx="182.1" cy="209.9" r="7.3"/>
	<circle class="st3" cx="190.9" cy="220.6" r="5.2"/>
	<circle class="st3" cx="172.7" cy="206" r="4"/>
	<circle class="st3" cx="204.1" cy="214.8" r="2.2"/>
	<circle class="st3" cx="205.8" cy="200.5" r="1.2"/>
	<circle class="st3" cx="194.3" cy="201.5" r="1.2"/>
	<circle class="st3" cx="201.3" cy="189.7" r="1.2"/>
	<circle class="st3" cx="216.3" cy="205.6" r="2.4"/>
	<circle class="st3" cx="220.6" cy="200.3" r="1.2"/>
	<circle class="st3" cx="229.6" cy="191.4" r="0.6"/>
	<circle class="st3" cx="213.9" cy="177.3" r="0.6"/>
	<path class="st7" d="M152.6,321.9c0,0-26,195.3,171.1,197.4"/>
	<polygon class="st1" points="318,523.9 322.9,519.2 318.2,514.4 322.2,514.5 326.9,519.3 322,524 	"/>
	<line class="st2" x1="400.6" y1="237.1" x2="400.6" y2="474.7"/>
	<circle class="st3" cx="725.2" cy="205.1" r="7.7"/>
</g>
</svg>
