<?xml version="1.0" encoding="utf-8"?>
<!-- Generator: Adobe Illustrator 20.1.0, SVG Export Plug-In . SVG Version: 6.00 Build 0)  -->
<svg version="1.1" id="圖層_1" xmlns="http://www.w3.org/2000/svg" xmlns:xlink="http://www.w3.org/1999/xlink" x="0px" y="0px"
	 viewBox="0 0 1280 650" style="enable-background:new 0 0 1280 650;" xml:space="preserve">
<style type="text/css">
	.st0{fill:#6BFFBA;}
	.st1{fill:#004864;}
	.st2{fill:none;stroke:#00364B;stroke-width:4.52;stroke-linecap:round;stroke-miterlimit:10;}
	.st3{fill:none;stroke:#00364B;stroke-width:3;stroke-linecap:round;stroke-miterlimit:10;stroke-dasharray:3,8;}
	.st4{fill:none;stroke:#00364B;stroke-width:3.23;stroke-linecap:round;stroke-miterlimit:10;stroke-dasharray:3.23,8.61;}
</style>
<title>Topic Tree</title>
<g id="圖層_1_1_">
	<path class="st0" d="M320.9,441.7h226.3c18.3,0,33.2,14.9,33.2,33.2l0,0c0,18.3-14.9,33.2-33.2,33.2H320.9
		c-18.3,0-33.2-14.9-33.2-33.2l0,0C287.7,456.5,302.6,441.7,320.9,441.7z"/>
	<path class="st0" d="M265.4,164.8h100.8c23.8,0,43.1,19.3,43.1,43.1l0,0c0,23.8-19.3,43.1-43.1,43.1H265.4
		c-23.8,0-43.1-19.3-43.1-43.1l0,0C222.3,184.1,241.6,164.8,265.4,164.8z"/>
	<path class="st1" d="M312.2,186.7c-0.4,3.2-1.3,6.4-2.7,9.3c1.1,1.8,2.6,3.2,4.4,4.2c-0.8,0.8-1.5,1.6-2.1,2.6
		c-1.7-1-3.1-2.4-4.2-4c-1.5,1.7-3.3,3.1-5.3,4.1c-0.5-1-1-1.9-1.7-2.7c2.2-0.9,4-2.4,5.4-4.3c-0.7-1.6-1.3-3.3-1.7-5.1
		c-0.4,0.6-0.8,1.2-1.1,1.7c-0.5-0.6-1.1-1.1-1.7-1.6c-1,1.2-2.2,2.3-3.5,3.2v0.6l4.4-0.4v2.5c-1.5,0.1-2.9,0.3-4.4,0.4v2.6
		c0,1.3-0.2,2-1.1,2.4c-1.2,0.4-2.4,0.5-3.6,0.4c-0.2-0.9-0.4-1.7-0.9-2.5c1,0,2.1,0,2.4,0s0.4-0.1,0.4-0.4v-2.2
		c-1.7,0.2-3.4,0.3-4.8,0.5l-0.3-2.7c1.4-0.1,3.2-0.2,5.1-0.4v-1.4c0.7-0.5,1.4-1.1,2.1-1.8h-2.6c-0.9,0.7-1.8,1.3-2.8,1.8
		c-0.6-0.8-1.3-1.6-2-2.3c1.7-0.8,3.3-1.9,4.8-3.1h-4.5v-2.6h3.8v-1.7h-2.9v-2.5h2.9v-2.3h2.8v2.3h2.2v1.6c0.6-1,1.2-2.1,1.6-3.3
		l2.7,0.8c-0.7,1.8-1.7,3.4-2.8,5h1.8v2c1.2-2.7,2-5.5,2.4-8.4l3,0.5c-0.2,1.4-0.5,2.8-0.9,4.1h6.7v2.8L312.2,186.7z M296.8,185.9
		h0.4c0.5-0.5,0.9-1.1,1.2-1.7h-1.7L296.8,185.9z M300.9,190.2c0.5-0.6,0.9-1.2,1.2-1.8h-3.5c-0.4,0.5-0.8,0.9-1.2,1.3h2.1l0.5-0.1
		L300.9,190.2z M306.3,186.7c0.3,2,0.8,4,1.5,5.9c0.6-1.9,1.1-3.9,1.3-5.9H306.3z"/>
	<path class="st1" d="M339.4,184.1h-5.2c1.6,1.1,3.1,2.4,4.4,3.9l-2.3,1.4h1v10.2c0,1.6-0.4,2.3-1.6,2.6c-1.8,0.3-3.6,0.4-5.4,0.3
		c-0.1-0.9-0.3-1.7-0.7-2.5c1.4,0.1,3.4,0.1,3.9,0.1s0.6-0.1,0.6-0.6v-1.8c-3.7,0.8-7.4,1.6-10.3,2.2l-0.9-2.6
		c2.1-0.3,5.2-0.7,8.5-1.2c-2.6-0.9-5.2-1.6-7.9-2l0.9-1.8c2.9,0.3,5.8,1,8.5,2.1l-0.8,1.6l2-0.3v-3.8h-11.2v1.6
		c0,2.9-0.5,7-2.7,9.6c-0.7-0.7-1.6-1.3-2.5-1.8c2.1-2.3,2.3-5.5,2.3-7.9v-4h15.8c-0.3-0.4-0.8-0.9-1.2-1.3
		c-12.2,0.5-13.7,0.5-14.8,0.9c-0.1-0.6-0.6-2-0.9-2.7c0.8-0.2,1.6-0.7,2.3-1.2c0.4-0.3,0.8-0.6,1.1-0.9h-5.1v-2.6h7.9
		c0.8-0.8,1.5-1.6,2.1-2.4l3,1.1c-0.4,0.4-0.8,0.9-1.2,1.3h10.4V184.1z M332.1,185.9c-0.5-0.4-1-0.8-1.5-1.1l1-0.6h-5.3
		c-0.9,0.7-1.7,1.4-2.5,2L332.1,185.9z"/>
	<path class="st0" d="M496.6,164.8h100.8c23.8,0,43.1,19.3,43.1,43.1l0,0c0,23.8-19.3,43.1-43.1,43.1H496.6
		c-23.8,0-43.1-19.3-43.1-43.1l0,0C453.5,184.1,472.8,164.8,496.6,164.8z"/>
	<path class="st1" d="M536.8,187.5c3,2,5.8,4.3,8.3,6.8l-2.5,2.3c-2.4-2.5-4.9-4.8-7.7-6.8v13h-3.3v-12.2c-2.3,2.5-5,4.6-8,6.2
		c-0.6-1-1.3-1.9-2-2.7c4.5-2.2,8.2-5.6,10.8-9.9h-10v-3.1h21.8v3.1h-7.8c-0.4,0.8-0.9,1.6-1.5,2.3v2.6L536.8,187.5z"/>
	<path class="st1" d="M564.3,194.9c-0.3,1.3-0.8,2.5-1.5,3.6c2.9,0.9,5.9,1.3,8.9,1.4c-0.7,0.8-1.3,1.8-1.8,2.8
		c-3.2-0.2-6.3-0.9-9.3-2.1c-1.5,1-3.2,1.8-4.9,2.3c-0.5-0.9-1.1-1.7-1.8-2.5c1.4-0.2,2.8-0.7,4.1-1.4c-1.1-0.8-2.2-1.8-3-2.9
		l2.6-0.9c0.7,0.9,1.6,1.6,2.6,2.1c0.6-0.7,1-1.5,1.2-2.4h-5.5v-10.1h5.8v-1.5h-6.1V181c-0.6,1.6-1.3,3.2-2.1,4.7v17.1h-2.9v-12.4
		c-0.4,0.6-0.8,1.1-1.3,1.6c-0.5-1.1-1-2.1-1.6-3.1c2.4-2.7,4.2-5.9,5.3-9.4l2.8,0.9l-0.1,0.3h15.2v2.6h-6.3v1.5h5.7v10.1
		L564.3,194.9z M558.6,188.8h3V187h-3V188.8z M561.6,192.7c0-0.3,0-0.7,0-1v-0.9h-3v1.9L561.6,192.7z M567.4,190.8h-2.8v0.9
		c0,0.3,0,0.6,0,1h2.8L567.4,190.8z M564.6,187v1.8h2.8V187H564.6z"/>
	<path class="st1" d="M491.4,215.6c-1.2,2.7-2.9,5.2-5,7.2c-0.3-0.4-0.7-0.7-1.1-1c2.1-1.8,3.7-4.1,4.7-6.6L491.4,215.6z
		 M496.1,223.7c1.4,1.8,2.7,3.7,3.8,5.7l-1.3,0.7c-0.2-0.5-0.6-1-0.9-1.6c-8.8,0.6-9.7,0.7-10.4,0.9c-0.1-0.5-0.3-0.9-0.5-1.3
		c0.5-0.1,1-0.7,1.6-1.5c1.7-2.1,3.1-4.3,4.3-6.7l1.4,0.6c-1.4,2.6-3.1,5-5,7.3l7.9-0.4c-0.7-1.1-1.4-2.2-2.1-3.1L496.1,223.7z
		 M496.5,215.1c0.7,2.6,2.3,4.9,4.5,6.5c-0.4,0.4-0.7,0.7-1,1.2c-2.1-1.7-3.6-3.9-4.5-6.4h-3.2v-1.3L496.5,215.1z"/>
	<path class="st1" d="M518.6,223.5v1.2h-15.3v-1.2h3.9v-4H504v-1.2h3.2v-3.4h1.3v3.4h4.8v-3.4h1.3v3.4h3.4v1.2h-3.4v4H518.6z
		 M509.4,226.2c-1.4,1.6-3,2.9-4.8,4c-0.3-0.3-0.6-0.6-1-0.9c1.7-0.9,3.3-2.1,4.5-3.6L509.4,226.2z M508.5,223.5h4.8v-4h-4.8V223.5z
		 M513.5,225.7c1.6,1.2,3.2,2.4,4.7,3.7l-1.2,0.8c-1.5-1.4-3-2.7-4.6-3.9L513.5,225.7z"/>
	<path class="st1" d="M526.7,225.9c-1.9,0.8-3.8,1.5-5.4,2.1l-0.4-1.3c0.7-0.2,1.4-0.5,2.3-0.8V220h-2v-1.2h2v-3.9h1.2v3.9h1.8v1.2
		h-1.8v5.4l2-0.8L526.7,225.9z M536.5,228.3v1.2h-10.4v-1.2h5.9c0.7-2.8,1.2-5.6,1.6-8.4l1.3,0.2c-0.5,2.6-1.1,5.9-1.8,8.2
		L536.5,228.3z M536.1,218.9h-9.2v-1.2h9.2V218.9z M529.2,227.5c-0.2-2.4-0.6-4.9-1.2-7.2l1.1-0.2c0.5,2.3,1,4.7,1.3,7.1
		L529.2,227.5z M531.1,217.6c-0.2-0.9-0.5-1.8-0.8-2.7l1.2-0.3c0.3,0.9,0.6,1.7,0.9,2.6L531.1,217.6z"/>
	<path class="st1" d="M544.3,225c-1.7,0.8-3.6,1.6-5,2.3l-0.5-1.3c0.7-0.2,1.5-0.5,2.3-0.9v-5.3h-2v-1.2h2v-3.8h1.2v3.9h1.7v1.2
		h-1.8v4.8c0.6-0.2,1.2-0.5,1.8-0.8L544.3,225z M553.7,220.6c-0.5,2.3-1.5,4.4-3,6.2c1.1,1.1,2.4,1.9,3.8,2.4
		c-0.3,0.3-0.6,0.7-0.8,1.1c-1.4-0.6-2.7-1.4-3.8-2.6c-1.1,1.1-2.4,1.9-3.7,2.5c-0.2-0.4-0.5-0.7-0.8-1c1.4-0.6,2.7-1.4,3.7-2.5
		c-1.1-1.5-1.9-3.3-2.4-5.1c-0.4,3.5-1.2,6.3-3,8.4c-0.3-0.3-0.7-0.6-1.1-0.8c2.5-2.6,3-7,3.1-12.6H544v-1.1h7.1l0.2-0.1l0.9,0.1
		c-0.2,1.4-0.5,3.2-0.8,4.8h1.2l0.2-0.1L553.7,220.6z M547,216.7c0,1.3-0.1,2.5-0.2,3.7h3.5c0.2-1.1,0.5-2.6,0.6-3.7H547z
		 M547.8,221.5c0.5,1.6,1.2,3.1,2.2,4.4c1-1.3,1.8-2.8,2.3-4.4H547.8z"/>
	<path class="st1" d="M560.3,217.9h1.9v1.2h-1.9v0.7c0.5,0.6,1.6,2.3,1.8,2.8l-0.8,0.9c-0.2-0.5-0.7-1.4-1.1-2.1v8.8h-1.2V222
		c-0.4,1.6-1.1,3.1-2,4.5c-0.2-0.4-0.4-0.8-0.7-1.2c1.2-1.9,2.1-3.9,2.5-6.1h-2.1V218h2.2v-3.3h1.2L560.3,217.9z M571.5,228.9
		c0,0.6-0.1,0.9-0.5,1.2c-0.6,0.2-1.3,0.3-2,0.2c-0.1-0.4-0.2-0.8-0.4-1.1c0.7,0,1.3,0,1.4,0s0.3-0.1,0.3-0.2v-2.2h-2.8v3.5h-1.2
		v-3.5h-2.7v3.6h-1.2v-10.6h5.2c-1.2-0.6-2.4-1.2-3.6-1.6l0.6-0.9c0.7,0.2,1.5,0.6,2.3,0.9c0.8-0.5,1.6-1,2.3-1.6h-6.6v-1.1h7.7
		l0.2-0.1l0.8,0.6c-1,1.1-2.1,2-3.3,2.7c0.4,0.2,0.9,0.5,1.3,0.8l-0.2,0.3h2.4L571.5,228.9z M563.6,220.7v1.8h2.7v-1.8H563.6z
		 M566.3,225.5v-1.9h-2.7v1.9H566.3z M570.3,220.7h-2.8v1.8h2.8V220.7z M570.3,225.5v-1.9h-2.8v1.9H570.3z"/>
	<path class="st1" d="M584.2,217.1c-0.4,0.6-0.8,1.2-1.2,1.9v11.1h-1.3v-9.4c-1.7,2-3.8,3.7-6.2,4.9c-0.3-0.4-0.5-0.8-0.8-1.1
		c3.3-1.7,6-4.2,7.9-7.4h-7.5v-1.3h14.5v1.3L584.2,217.1z M584.3,220c2.1,1.3,4,2.8,5.8,4.5l-1,1c-1.8-1.7-3.7-3.3-5.7-4.6
		L584.3,220z"/>
	<path class="st1" d="M599.4,222.4l0.8,0.3c-0.9,3.5-3.5,6.4-7,7.5c-0.2-0.4-0.4-0.7-0.7-1c1.4-0.4,2.8-1.2,3.9-2.2
		c-0.6-0.7-1.2-1.3-1.9-1.8c-0.4,0.3-0.8,0.6-1.2,0.8c-0.2-0.3-0.4-0.6-0.8-0.8c1.8-1,3.3-2.4,4.2-4.2c-1,0.8-2.1,1.5-3.3,2
		c-0.2-0.3-0.4-0.6-0.7-0.9c1.1-0.4,2.2-1.1,3.1-1.9c-0.6-0.5-1.1-1.1-1.8-1.5c-0.2,0.2-0.5,0.5-0.8,0.7c-0.2-0.3-0.5-0.6-0.8-0.7
		c1.5-1,2.7-2.4,3.4-4l1.1,0.2c-0.3,0.5-0.5,1-0.8,1.4h2.5l0.2-0.1l0.8,0.4c-0.6,1.7-1.6,3.2-2.9,4.3l1.2,0.2
		c-0.2,0.4-0.5,0.8-0.8,1.2h2.1L599.4,222.4z M595.4,217.4c-0.2,0.2-0.4,0.4-0.6,0.6c0.6,0.4,1.3,0.9,1.8,1.4
		c0.6-0.6,1.1-1.3,1.4-2.1L595.4,217.4z M596.2,223.5c-0.3,0.4-0.6,0.7-1,1c0.7,0.5,1.3,1.1,1.9,1.7c0.7-0.8,1.2-1.7,1.5-2.6
		L596.2,223.5z M607.5,217.2c0,0,0,0.5,0,0.7c-0.1,8.1-0.3,10.7-0.8,11.5c-0.3,0.4-0.7,0.7-1.2,0.7c-0.7,0.1-1.4,0.1-2.1,0
		c0-0.4-0.2-0.9-0.4-1.2c0.8,0.1,1.6,0.1,1.9,0.1c0.2,0,0.5-0.1,0.6-0.3c0.4-0.5,0.6-3.1,0.7-10.3h-4.5c-0.5,1-1.1,2-1.8,2.9
		c-0.2-0.2-0.7-0.6-1-0.8c1.4-1.7,2.4-3.6,2.9-5.7l1.2,0.3c-0.2,0.8-0.5,1.5-0.8,2.2L607.5,217.2z M602,226.2v1.3h-1v-7.3h4v6
		L602,226.2z M602,221.3v3.9h1.9v-3.9H602z"/>
	<path class="st0" d="M612.5,285.8h100.8c23.8,0,43.1,19.3,43.1,43.1l0,0c0,23.8-19.3,43.1-43.1,43.1H612.5
		c-23.8,0-43.1-19.3-43.1-43.1l0,0C569.4,305.1,588.7,285.8,612.5,285.8z"/>
	<path class="st1" d="M634.5,309.3c-0.1,1-0.1,2-0.2,3H645c0,0.4,0,0.9-0.1,1.3c-0.5,6.8-1,9.6-2,10.7c-0.7,0.7-1.7,1.2-2.7,1.2
		c-1.4,0.1-2.9,0.1-4.3,0c-0.1-1.1-0.5-2.1-1-2.9c1.7,0.2,3.5,0.2,4.2,0.2c0.4,0,0.9-0.1,1.2-0.3c0.7-0.5,1.1-2.7,1.5-7.2h-7.9
		c-0.8,4.2-2.7,8.1-7.2,10.7c-0.6-1-1.3-1.8-2.2-2.5c6-3.2,6.5-8.8,6.8-14.1h-6.3v-2.9h10.6c-0.4-1-1-2.2-1.5-3.2l2.9-1.1
		c0.7,1.2,1.3,2.4,1.8,3.6l-1.7,0.8h10.2v2.9H634.5z"/>
	<path class="st1" d="M667,317.9c-0.3,1.3-0.8,2.5-1.5,3.6c2.9,0.9,5.9,1.3,8.9,1.4c-0.7,0.8-1.3,1.8-1.8,2.8
		c-3.2-0.2-6.3-0.9-9.3-2.1c-1.5,1-3.2,1.8-4.9,2.3c-0.5-0.9-1.1-1.7-1.8-2.5c1.4-0.3,2.8-0.7,4.1-1.4c-1.1-0.8-2.2-1.8-3-2.9
		l2.6-0.9c0.7,0.9,1.6,1.6,2.6,2.1c0.6-0.7,1-1.5,1.2-2.4h-5.5v-10.1h5.8v-1.5h-6.1V304c-0.6,1.6-1.3,3.2-2.1,4.7v17.1h-2.9v-12.4
		c-0.4,0.6-0.8,1.1-1.3,1.6c-0.5-1.1-1-2.1-1.6-3.1c2.4-2.7,4.2-5.9,5.3-9.4l2.8,0.9l-0.1,0.3h15.2v2.6h-6.3v1.5h5.7v10.1L667,317.9
		z M661.3,311.8h3V310h-3V311.8z M664.3,315.7c0-0.3,0-0.7,0-1v-0.9h-3v1.9L664.3,315.7z M670.1,313.8h-2.8v0.9c0,0.3,0,0.6,0,1h2.8
		L670.1,313.8z M667.3,310v1.8h2.8V310H667.3z"/>
	<path class="st1" d="M700.2,322.2v2.8h-15.6v-2.8h6.7v-5h-4.8v-2.8h4.8v-4.1h-2.8c-0.3,1.2-0.8,2.4-1.4,3.5c-0.9-0.5-1.7-1-2.7-1.4
		c0.2-0.5,0.5-0.9,0.8-1.5l-1.4,0.6c-0.2-1-0.6-2-1-2.9v17.1h-3v-17.9c-0.1,2.3-0.5,4.5-1.1,6.6l-2.2-0.8c0.7-2.1,1.1-4.3,1.2-6.5
		l2.1,0.3v-5.1h3v4.7l1.5-0.6c0.5,1,1,2.1,1.4,3.2c0.7-2,1.1-4,1.3-6.1l2.9,0.4c-0.2,1.2-0.4,2.4-0.6,3.5h2v-4.9h3v4.9h5.1v2.8h-5.1
		v4.1h4.6v2.8h-4.6v5L700.2,322.2z"/>
	<path class="st1" d="M597.6,338.8c-0.5,1.4-1.1,3-1.7,4.4c1,1,1.5,2.3,1.5,3.7c0.1,0.7-0.1,1.4-0.6,1.9c-0.2,0.2-0.5,0.3-0.8,0.3
		c-0.4,0-0.7,0-1.1,0c0-0.4-0.1-0.7-0.3-1c0.3,0,0.7,0,1,0c0.2,0,0.3-0.1,0.5-0.1c0.3-0.3,0.4-0.8,0.4-1.2c0-1.3-0.6-2.6-1.5-3.5
		c0.5-1.2,1-2.6,1.3-3.8H594v13.6h-1v-14.8h3.8l0.2,0L597.6,338.8z M600.4,345.8c-0.3,1.5-0.7,3-1.4,4.5c0.3,0.2,0.7,0.5,1.3,0.9
		c1,0.6,2.2,0.9,3.5,0.8c1.4,0,2.8-0.1,4.2-0.2c-0.2,0.4-0.3,0.8-0.3,1.2c-0.8,0-2.8,0.1-3.9,0.1c-1.3,0.1-2.6-0.2-3.7-0.9
		c-0.6-0.4-1.1-1-1.5-1s-1,1-1.6,2.1l-0.8-1c0.5-0.7,1.1-1.4,1.8-1.9c0.5-1.2,0.9-2.4,1.2-3.7h-1.7c0.4-1,0.9-2.5,1.3-3.8h-1.6v-1
		h2.9l0,0c0.6-0.6,1.2-1.3,1.6-2.1h-1.5v-0.9h2c0.1-0.4,0.3-0.8,0.4-1.2l1,0.2c-0.1,0.4-0.2,0.7-0.3,1h4.6v0.9h-5
		c-0.6,1.3-1.4,2.4-2.5,3.3c-0.1-0.1-0.3-0.4-0.4-0.6c-0.3,1-0.7,2.2-1,3.2h0.8l0.2,0L600.4,345.8z M598.4,340.8
		c-0.2-0.7-0.5-1.9-0.8-2.7l1-0.2c0.3,0.9,0.6,2,0.8,2.7L598.4,340.8z M607,349.8c0,0.5-0.1,0.8-0.5,0.9c-0.6,0.1-1.3,0.2-1.9,0.1
		c-0.1-0.3-0.2-0.6-0.3-0.8h1.4c0.2,0,0.2-0.1,0.2-0.2v-1.4c-1.1,0.3-2.2,0.5-3.2,0.7l-0.4-1c1-0.1,2.2-0.3,3.5-0.5v-2.3h-3.6v1.6
		c0.1,1.4-0.2,2.7-0.7,4c-0.3-0.2-0.6-0.4-0.9-0.6c0.4-1.1,0.6-2.2,0.5-3.4v-2.4h5.7L607,349.8z M607.6,343.6h-6.4v-0.8h2.8v-1.2
		h-1.6v-0.8h4.9v0.8H605v1.2h2.5L607.6,343.6z M603.2,345.7c0.8,0.3,1.5,0.7,2.3,1.2l-0.5,0.8c-0.7-0.5-1.5-1-2.2-1.3L603.2,345.7z"
		/>
	<path class="st1" d="M625.5,347.7h-7v3.8c0,0.9-0.3,1.3-0.9,1.5c-1.2,0.2-2.3,0.3-3.5,0.2c-0.1-0.4-0.3-0.9-0.5-1.3
		c1.4,0,2.8,0,3.1,0s0.5-0.1,0.5-0.5v-3.8h-7v-1.2h7v-2.8h-5.8v-1.2h5.8v-2.6c-1.9,0.2-3.8,0.3-5.5,0.4c-0.1-0.4-0.2-0.8-0.3-1.1
		c4-0.2,8.9-0.6,11.5-1.4l1,1c-1.7,0.5-3.5,0.8-5.3,1v2.8h6v1.2h-6v2.8h7L625.5,347.7z"/>
	<path class="st1" d="M635,346.6c-1,1.5-2.1,2.9-3.3,4.2l8.3-0.4c-0.6-0.8-1.2-1.5-1.8-2.2l1.1-0.5c1.4,1.5,2.7,3.2,3.7,5l-1.3,0.5
		c-0.3-0.6-0.6-1.2-1-1.8c-9.4,0.5-10.2,0.5-10.9,0.8c-0.1-0.4-0.2-0.9-0.4-1.3c0.5-0.2,0.9-0.5,1.2-0.9c1-1.1,1.9-2.2,2.8-3.5h-4.9
		v-1.2h6.5v-2.2h-5.3V342h5.3v-2.1h-6v-1.2h13.5v1.2h-6.2v2.1h5.6v1.2h-5.6v2.2h6.8v1.2L635,346.6z"/>
	<path class="st1" d="M649.3,347.7c0.6-0.3,1.2-0.5,1.9-0.8l0.3,1.1c-1.8,0.8-3.7,1.7-5.2,2.4l-0.5-1.3c0.6-0.2,1.5-0.6,2.3-0.9V343
		h-2v-1.2h2v-3.9h1.2v3.9h1.8v1.2h-1.8L649.3,347.7z M659,351.7c1,0,1.2-0.5,1.3-2.4c0.3,0.2,0.7,0.4,1.1,0.5
		c-0.2,2.3-0.6,3.1-2.4,3.1h-4.2c-1.9,0-2.5-0.5-2.5-2.3v-5.3l-1.3,0.6l-0.5-1.1l1.8-0.8v-4.6h1.2v4.1l2.3-1v-4.7h1.2v4.2l2.6-1.1
		l1,0.3l-0.1,0.2c-0.1,2.5-0.4,5-0.9,7.5l-1-0.3c0.3-2.1,0.5-4.1,0.7-6.2l-2.2,0.9v6.2H656v-5.7l-2.3,1v5.9c0,0.9,0.2,1.1,1.3,1.1
		L659,351.7z"/>
	<path class="st1" d="M679,351.1v1.3h-15.1v-1.3h6.3V338h1.3v5.2h6.3v1.3h-6.3v6.7L679,351.1z"/>
	<path class="st1" d="M686.6,341.9c-0.4,0.7-0.9,1.5-1.4,2.1v9.2h-1.2v-7.7c-0.6,0.7-1.2,1.3-1.9,1.8c-0.2-0.4-0.4-0.8-0.7-1.2
		c1.7-1.3,3.1-2.8,4.1-4.6L686.6,341.9z M686.3,338.2c-1.1,1.6-2.5,2.9-4.1,4c-0.2-0.4-0.4-0.7-0.7-1c1.4-0.9,2.6-2.1,3.5-3.5
		L686.3,338.2z M696.5,347.3c-1,0.8-2,1.5-3,2.1c1,1.2,2.2,2.1,3.7,2.6c-0.3,0.3-0.6,0.7-0.8,1.1c-3-1.2-4.8-3.8-5.8-7.2h-1.7v5.6
		l3-0.7c0,0.4,0,0.8,0.1,1.2c-3.5,1-4,1.1-4.3,1.3c-0.1-0.4-0.3-0.7-0.6-1c0.4-0.2,0.7-0.7,0.6-1.2v-12.6h7.9v7.4h-4
		c0.3,0.9,0.7,1.8,1.2,2.6c1-0.6,1.9-1.3,2.8-2.1L696.5,347.3z M688.8,339.5v2h5.5v-2H688.8z M688.8,344.8h5.5v-2.1h-5.5V344.8z"/>
	<path class="st1" d="M705.8,341.9c0,0.9-0.1,1.8-0.2,2.7h7.2c0,0.2,0,0.4,0,0.6c-0.3,4.8-0.7,6.6-1.3,7.3c-0.4,0.4-0.9,0.6-1.4,0.6
		c-0.9,0-1.9,0-2.8-0.1c0-0.4-0.2-0.9-0.4-1.2c1.2,0.1,2.4,0.1,2.8,0.1c0.3,0,0.6,0,0.8-0.2c0.5-0.4,0.8-2.1,1.1-5.9h-6
		c-0.5,3-1.8,5.8-5,7.5c-0.2-0.4-0.6-0.7-0.9-1c4.3-2.2,4.8-6.5,5-10.4h-4.6v-1.2h7.4c-0.3-0.9-0.7-1.7-1.2-2.5l1.2-0.5
		c0.5,0.8,0.9,1.6,1.2,2.5l-1.2,0.5h7.1v1.2L705.8,341.9z"/>
	<path class="st1" d="M722.1,338.1c-0.4,1.3-1,2.5-1.6,3.8v11.3h-1.2v-9.3c-0.4,0.6-0.9,1.2-1.4,1.8c-0.2-0.4-0.5-0.8-0.7-1.2
		c1.7-2,2.9-4.3,3.7-6.8L722.1,338.1z M727.8,347.6c-0.1,1.1-0.6,2.1-1.3,3c2,0.8,4.2,1.2,6.4,1.3c-0.3,0.4-0.6,0.7-0.8,1.2
		c-2.3-0.1-4.5-0.7-6.5-1.6c-1.1,0.8-2.4,1.4-3.8,1.8c-0.2-0.4-0.5-0.7-0.8-1c1.2-0.2,2.4-0.7,3.4-1.4c-1-0.6-1.8-1.4-2.4-2.4
		l1.1-0.4c0.6,0.8,1.4,1.5,2.3,2c0.6-0.7,1-1.5,1.1-2.5h-4v-6.4h4.2v-1.4h-4.6v-1.1h10.4v1.1h-4.6v1.4h4v6.4L727.8,347.6z
		 M723.7,344h3v-1.8h-3V344z M726.7,346.7c0-0.3,0-0.6,0-0.9v-0.9h-3v1.8H726.7z M730.7,344.9h-2.8v0.9c0,0.3,0,0.6,0,0.9h2.8
		L730.7,344.9z M727.9,342.2v1.8h2.8v-1.8L727.9,342.2z"/>
	<path class="st0" d="M112,285.8h151.7c23.8,0,43.1,19.3,43.1,43.1l0,0c0,23.8-19.3,43.1-43.1,43.1H112c-23.8,0-43.1-19.3-43.1-43.1
		l0,0C68.9,305.1,88.2,285.8,112,285.8z"/>
	<path class="st1" d="M127.3,307.6c-0.9,1-1.9,1.9-2.9,2.8c-0.5-0.8-1.1-1.7-1.7-2.4c2.2-1.5,4-3.6,5.2-6l2.6,0.9
		c-0.3,0.7-0.7,1.4-1.2,2.1h15.8v2.6L127.3,307.6z M123.2,324.7c1.1-1.5,2.1-3.2,2.8-4.9l2.9,0.8c-0.8,1.9-1.7,3.6-2.8,5.3
		L123.2,324.7z M142.8,313.5v3.2h3v2.7h-22.4v-2.7h3.4v-3.2h-2.7v-2.7h2.7v-2.3h2.7v2.3h1.7v-2.3h2.5v2.3h2v-2.3h2.5v2.3h1.8v-2.3
		h2.8v2.3h2.5v2.7L142.8,313.5z M129.5,316.7h1.7v-3.2h-1.7V316.7z M133,320.5c0.3,1.5,0.5,3.1,0.6,4.7l-2.9,0.4
		c0-1.6-0.2-3.2-0.5-4.8L133,320.5z M133.7,313.5v3.2h2v-3.2L133.7,313.5z M138.1,320.4c0.6,1.5,1.1,3,1.5,4.6l-3,0.6
		c-0.3-1.6-0.7-3.2-1.3-4.8L138.1,320.4z M140,313.5h-1.9v3.2h1.9V313.5z M143.1,319.6c1.1,1.6,2.1,3.2,2.9,4.9l-2.9,1.3
		c-0.8-1.8-1.7-3.5-2.7-5.1L143.1,319.6z"/>
	<path class="st1" d="M168.6,321.9h3.4v2.1h-3.4v1.9h-3V324h-15.9v-2.1h3.6v-6.1h-2.8v-2.1h0.1c-0.4-0.3-1-0.6-1.3-0.7
		c1-1,1.5-2.3,1.5-3.7v-1.5h9.5v4.1h-7.5c-0.2,0.7-0.5,1.3-0.9,1.8h9.7c-0.3-0.7-0.6-1.3-1.1-1.9c1.2-0.1,2.3-0.3,3.4-0.6
		c-0.7-0.5-1.3-1.2-1.8-1.9l0.8-0.2h-1.4v-1.6c-0.3-0.4-0.7-0.7-1.1-1c1.9-0.6,2.2-1.4,2.2-2.3V303h6.9v2c0,0.5,0,0.7,0.4,0.7h0.9
		c0.4,0,0.9-0.1,1.3-0.1c0.1,0.6,0.1,1.2,0.1,1.8c-0.4,0.1-0.9,0.2-1.4,0.1h-1l1.4,0.5c-0.5,1.3-1.4,2.4-2.5,3.3
		c1.2,0.3,2.4,0.5,3.6,0.6c-0.5,0.6-1,1.2-1.4,1.9h0.6v2.1h-2.8L168.6,321.9z M154.1,304.9h-4.3v-1.5h4.3v-1.1h2.7v1.1h4.1v1.5h-4.1
		v0.7h3.5v1.5h-9.7v-1.5h3.5L154.1,304.9z M153.1,309.2v0.1c0,0.4,0,0.7-0.1,1.1h1.4v-1.3H153.1z M156.2,315.8v0.9h9.4v-0.9H156.2z
		 M156.2,319.2h9.4v-0.9h-9.4L156.2,319.2z M165.6,321.9V321h-9.4v0.9L165.6,321.9z M158,309.2h-1.5v1.3h1.5V309.2z M170.3,313.7
		c-1.4-0.2-2.8-0.6-4.1-1.1c-1.3,0.5-2.6,0.9-4,1.1H170.3z M164.8,304.8c-0.1,1-0.7,2-1.5,2.6h5.8h0.1h-0.1c-1.8,0-2.1-0.8-2.1-2.5
		v-0.1L164.8,304.8z M164.4,309c0.4,0.5,1,0.9,1.6,1.2c0.6-0.3,1.1-0.7,1.6-1.2H164.4z"/>
	<path class="st1" d="M198.3,306.2c0,0,0,1,0,1.4c-0.3,11.2-0.6,15.2-1.6,16.5c-0.6,0.8-1.4,1.3-2.4,1.4c-1.3,0.1-2.6,0.1-3.9,0
		c-0.1-1-0.5-2-1-2.9c1.6,0.1,3.1,0.1,3.7,0.1c0.4,0,0.8-0.1,1.1-0.4c0.7-0.8,1.1-4.6,1.3-13.4h-5.4c-0.6,1.4-1.3,2.7-2.2,4
		c-0.6-0.5-1.3-1-1.9-1.4v11.7h-6.7v1.8h-2.7v-18.6h2.8c0.3-1.3,0.6-2.7,0.7-4l3.3,0.5c-0.4,1.2-0.9,2.5-1.3,3.6h3.9v4.1
		c1.6-2.5,2.7-5.2,3.4-8.1l2.8,0.6c-0.3,1.1-0.6,2.1-1,3.2L198.3,306.2z M183.3,309h-4v4.1h4V309z M183.3,320.6v-4.9h-4v4.9H183.3z
		 M191.6,319.2c-1-2-2.2-3.9-3.5-5.8l2.3-1.3c1.3,1.8,2.6,3.6,3.7,5.6L191.6,319.2z"/>
	<path class="st1" d="M210.9,315.8c-1,0.3-1.9,0.5-2.9,0.8v6c0,1.5-0.2,2.2-1.1,2.6c-1.2,0.5-2.5,0.7-3.8,0.5
		c-0.1-0.9-0.4-1.9-0.8-2.7c1,0,2,0,2.4,0s0.5-0.1,0.5-0.5v-5.2l-2.9,0.8l-0.6-2.9c1-0.2,2.2-0.5,3.5-0.8v-4.5h-3v-2.8h3v-4.7h2.9
		v4.7h2.7v2.8H208v3.8l2.6-0.6L210.9,315.8z M222.8,323c0.1,0,0.2,0,0.4-0.1c0.1-0.3,0.2-0.5,0.1-0.8c0-0.5,0-1.6,0.1-2.9
		c0.6,0.5,1.4,0.9,2.2,1.2c0,1.2-0.1,2.4-0.3,3.6c-0.1,0.5-0.4,1-0.8,1.3c-0.5,0.3-1,0.4-1.5,0.4h-1.4c-0.6,0-1.3-0.2-1.7-0.6
		c-0.4-0.5-0.6-1-0.6-2.9v-8h-3.4v1.8c0,3.3-0.8,7.6-4.9,10.2c-0.6-0.8-1.2-1.6-2-2.3c3.6-2.2,4-5.3,4-8v-4.5h9.4V322
		c0,0.3,0,0.7,0.1,1c0.1,0.1,0.2,0.1,0.3,0.1L222.8,323z M225.4,309.2h-14.3v-2.8h5.2c-0.4-1.2-0.8-2.4-1.3-3.6l2.9-0.8
		c0.6,1.2,1.1,2.4,1.5,3.6l-2.3,0.7h8.3L225.4,309.2z"/>
	<path class="st1" d="M236.4,308.9h-8.2v-2.3h3.5c-0.3-1.1-0.7-2.3-1.2-3.3l2.1-0.8c0.6,1.1,1.1,2.2,1.4,3.3l-1.8,0.8h4.2
		L236.4,308.9z M235.7,324.4h-4.6v1H229v-8.6h6.7V324.4z M229.1,310h6.7v2.3h-6.7V310z M229.1,313.4h6.7v2.2h-6.7V313.4z
		 M231.1,319.1v3h2.5v-3H231.1z M250.4,319.9c-0.7,1-1.5,2-2.4,2.7c0.2,0.5,0.7,0.9,1.3,1c0.4,0,0.6-0.6,0.7-2
		c0.5,0.4,1.1,0.8,1.7,1c-0.4,2.4-1.1,3.3-2.7,3.3c-1.2,0-2.4-0.7-3-1.8c-0.8,0.5-1.7,1-2.6,1.4c-0.4-0.6-0.9-1.1-1.4-1.6
		c1.1-0.5,2.2-1,3.1-1.7c-0.4-1.2-0.6-2.4-0.8-3.6h-2.4v1l2-0.2v2.1l-2.1,0.2v1.7c0,1.1-0.2,1.7-1,2c-1.1,0.3-2.2,0.4-3.3,0.4
		c-0.1-0.7-0.4-1.4-0.7-2.1c0.9,0,1.8,0,2.1,0s0.4-0.1,0.4-0.4V322l-3,0.4l-0.3-2.3c1-0.1,2.1-0.2,3.3-0.3v-1.2h-3.1v-2.2h3.1v-1.1
		c-0.8,0.1-1.6,0.1-2.3,0.2c-0.1-0.6-0.3-1.2-0.6-1.7c2.1-0.2,4.1-0.5,6.1-1l1.5,1.8c0-0.5,0-1,0-1.4h2.5c0,1.2,0,2.3,0.1,3.3h2.6
		c-0.7-0.9-1.5-1.7-2.4-2.3l1.7-1.1c1,0.6,1.8,1.4,2.6,2.3l-1.6,1.1h1.8v2.2h-4.4c0.1,0.6,0.2,1.2,0.3,1.9c0.5-0.5,0.8-1,1.2-1.6
		L250.4,319.9z M251.4,312.6h-15v-2.1h6v-1H238v-1.9h4.5v-1h-5.3v-2h2.7c-0.3-0.5-0.6-1.1-1-1.6l2.1-0.8c0.6,0.7,1,1.5,1.4,2.3h3.1
		c0.5-0.7,0.8-1.5,1.1-2.3l2.6,0.6c-0.4,0.6-0.8,1.1-1.2,1.7h2.7v2h-5.5v1h4.8v1.9h-4.8v1h6L251.4,312.6z M244.3,316.5
		c-0.1-0.6-0.1-1.2-0.1-1.9c-0.7,0.2-1.4,0.4-2.1,0.5v1.4H244.3z"/>
	<path class="st1" d="M92.1,348.9v1.4H91v-11.2h4.5v9.8L92.1,348.9z M92.1,340.3v7.4h2.2v-7.4H92.1z M105.6,343.8
		c-0.5,2.3-1.5,4.4-3,6.2c1,1,2.2,1.7,3.5,2.2c-0.3,0.3-0.6,0.6-0.8,1c-1.3-0.6-2.5-1.4-3.5-2.4c-1.1,1-2.4,1.8-3.7,2.4
		c-0.2-0.4-0.5-0.7-0.8-1c1.4-0.5,2.6-1.3,3.7-2.3c-1.1-1.4-2-2.9-2.6-4.6c-0.4,3.1-1.3,6-3.3,8c-0.3-0.3-0.6-0.6-0.9-0.9
		c2.9-2.8,3.3-8.2,3.3-12.5h-1.5v-1.2h6.9l0.2,0l0.9,0.1c-0.2,1.4-0.5,3.2-0.8,4.7h1.3h0.2L105.6,343.8z M98.8,339.9
		c0,1.2-0.1,2.4-0.2,3.6h3.5c0.2-1.2,0.5-2.5,0.6-3.6H98.8z M99.3,344.7c0.6,1.6,1.4,3.1,2.5,4.4c1.1-1.3,1.9-2.8,2.3-4.4H99.3z"/>
	<path class="st1" d="M114.9,345.8c0,0,0,0.4,0,0.5c-0.2,4.1-0.3,5.6-0.7,6.1c-0.2,0.3-0.6,0.5-1,0.5c-0.5,0-1.1,0-1.6,0
		c0-0.4-0.2-0.8-0.3-1.1c0.6,0,1.2,0.1,1.4,0.1c0.2,0,0.4,0,0.5-0.2c0.3-0.3,0.4-1.5,0.6-4.8h-2.3c-0.3,2.5-0.9,4.8-2.3,6.2
		c-0.2-0.3-0.5-0.6-0.9-0.9c1.8-1.8,2.1-5,2.2-8.1h-2.1v-1.1h3.4c-0.2-0.5-0.5-1.1-0.8-1.6l1.2-0.2c0.4,0.6,0.7,1.2,0.9,1.8h2.7v1.1
		h-4.2c0,0.5-0.1,1-0.1,1.6L114.9,345.8z M112.6,340.1h-4v-1.1h4v-1.2h1.2v1.2h1.9v1.1h-1.9v1.1h-1.2V340.1z M120.2,341.6
		c-0.1,0.2-0.2,0.3-0.2,0.5c1.1,1.5,2.5,2.9,4,4c-0.3,0.3-0.6,0.6-0.8,0.9c-1.4-1.2-2.6-2.5-3.7-4c-0.9,1.6-2.1,2.9-3.6,4
		c-0.3-0.3-0.6-0.6-0.9-0.8c1.8-1.2,3.2-2.9,4.1-4.9L120.2,341.6z M116.8,349c2.1,0.7,4.1,1.7,6,2.9l-0.7,1
		c-1.8-1.3-3.8-2.3-5.9-3.1L116.8,349z M118.2,340.1h-1.9V339h1.9v-1.3h1.2v1.2h4v1.1h-4v1.1h-1.2V340.1z M118.4,345.8
		c1.2,0.5,2.3,1.2,3.3,2.1l-0.8,0.9c-1-0.9-2.1-1.6-3.2-2.2L118.4,345.8z"/>
	<path class="st1" d="M135,344.3c-0.9,0.6-1.8,1.2-2.7,1.8h7v7.1H138v-0.5h-6.9v0.5h-1.2v-5.9c-1,0.5-2.1,1-3.1,1.3
		c-0.2-0.4-0.5-0.7-0.8-1c2.5-0.8,4.8-2,7-3.4h-6.6v-1.1h5.8V341h-4.3v-1.1h4.3v-2.1h1.2v2.1h4.2v0.7c0.7-0.7,1.4-1.4,1.9-2.2
		l1.1,0.6c-1.2,1.6-2.6,3-4.1,4.3h4.9v1.1L135,344.3z M138,347.1h-6.9v1.7h6.9V347.1z M138,351.6v-1.8h-6.9v1.8H138z M134.6,343.1
		c0.9-0.7,1.8-1.4,2.6-2.2h-3.8v2.2H134.6z"/>
	<path class="st1" d="M149.9,341.6h-6v-1.1h6V341.6z M149.5,343.8h-5.1v-1h5.1V343.8z M144.4,345h5.1v1h-5.1V345z M149.4,352.2h-4
		v0.8h-1.1v-5.7h5L149.4,352.2z M145.4,348.3v2.8h2.9v-2.8H145.4z M146.7,340.3c-0.3-0.8-0.6-1.6-1.1-2.3l1.1-0.4
		c0.4,0.7,0.8,1.5,1.1,2.2L146.7,340.3z M149.4,351.1c0.6-1.1,1-2.3,1.2-3.6l0.9,0.3c-0.2,1.3-0.6,2.5-1.2,3.7L149.4,351.1z
		 M155.2,339.4c-0.3,3.1-1.2,5.6-4.3,7c-0.2-0.3-0.4-0.7-0.7-0.9c1.3-0.5,2.4-1.4,3-2.7c-0.6-0.6-1.7-1.5-2.5-2.2l0.7-0.7
		c0.7,0.6,1.6,1.3,2.2,1.9c0.2-0.8,0.4-1.6,0.4-2.4h-3.5v-1.1h8.3c0,0,0,0.4,0,0.5c-0.2,4.3-0.4,5.8-0.8,6.4
		c-0.3,0.3-0.7,0.5-1.1,0.5c-0.6,0-1.3,0-1.9,0c0-0.4-0.2-0.8-0.4-1.1c0.8,0.1,1.5,0.1,1.8,0.1c0.2,0,0.4,0,0.6-0.2
		c0.3-0.3,0.4-1.6,0.6-5.1L155.2,339.4z M155.7,351.8c0.6,0,0.7-0.3,0.7-2.3c0.3,0.2,0.6,0.3,1,0.4c-0.1,2.3-0.4,2.9-1.6,2.9h-2.2
		c-1.3,0-1.7-0.3-1.7-1.5v-4.1h1.1v4.1c0,0.4,0.1,0.5,0.7,0.5L155.7,351.8z M154.2,346c0.7,0.7,1.3,1.6,1.9,2.4l-0.8,0.6
		c-0.5-0.9-1.1-1.7-1.8-2.5L154.2,346z M158.1,346.9c0.6,1.1,1.1,2.3,1.5,3.5l-1,0.4c-0.4-1.2-0.8-2.4-1.4-3.6L158.1,346.9z"/>
	<path class="st1" d="M176.8,347.3c-0.3,3.5-0.6,4.9-1.2,5.4c-0.3,0.3-0.7,0.5-1.1,0.4c-0.7,0.1-1.4,0.1-2.1,0
		c0-0.4-0.1-0.8-0.3-1.1c0.6,0.1,1.3,0.1,1.9,0.1c0.2,0,0.4,0,0.6-0.2c0.4-0.3,0.6-1.4,0.9-4.1h-10.2c-0.9,0.8-1.9,1.4-3,2
		c-0.2-0.4-0.4-0.7-0.7-1c3-1.6,5.5-4.1,7.2-7.1h-6v-1.1h3.4c-0.3-0.9-0.8-1.7-1.3-2.5l1.1-0.4c0.6,0.8,1,1.6,1.4,2.5l-0.9,0.4h3
		c0.5-1,0.9-2,1.2-3l1.2,0.4c-0.3,0.9-0.7,1.8-1.1,2.6h3.5c-0.2,1-0.4,2.2-0.6,3.1h2c-0.2,1-0.4,2.2-0.5,3.1h1.7L176.8,347.3z
		 M162.5,352.4c1-0.9,1.7-2.1,2-3.5l1.1,0.3c-0.3,1.4-1,2.8-2.1,3.8L162.5,352.4z M168.3,344.8c-0.5,0.7-1.1,1.4-1.7,2h7.4
		c0.1-0.6,0.2-1.3,0.4-2H168.3z M167.7,349.3c0.3,1,0.5,2,0.5,3.1l-1.1,0.1c0-1.1-0.1-2.1-0.4-3.1L167.7,349.3z M170.3,341.8
		c-0.4,0.7-0.7,1.3-1.2,1.9h3.5c0.1-0.6,0.3-1.3,0.4-1.9H170.3z M170.3,349c0.4,0.9,0.8,1.8,1,2.7l-1.1,0.3c-0.2-1-0.5-1.9-0.9-2.8
		L170.3,349z M173,351.2c-0.3-0.8-0.7-1.6-1.3-2.3l0.9-0.3c0.5,0.7,1,1.4,1.3,2.2L173,351.2z"/>
	<path class="st1" d="M192.6,346.1c-0.9,1.8-2.2,3.2-3.9,4.3c2,0.9,4.1,1.4,6.3,1.7c-0.3,0.4-0.6,0.7-0.8,1.2
		c-2.4-0.3-4.7-1-6.8-2.1c-2.2,1.1-4.5,1.8-6.9,2.1c-0.2-0.4-0.4-0.8-0.8-1.1c2.2-0.3,4.4-0.8,6.4-1.7c-1.4-0.9-2.5-2.1-3.4-3.5
		l0.2-0.1h-0.7v-1.2h9.3l0.2,0L192.6,346.1z M181.4,346h-1.2v-3.5h2.7c-0.3-0.8-0.7-1.5-1.1-2.2l1.1-0.3c0.5,0.7,0.9,1.4,1.2,2.2
		l-1,0.3h7.4c0.6-0.9,1.1-1.9,1.6-2.9l1.3,0.4c-0.5,0.8-1.1,1.8-1.6,2.5h2.9v3.4h-1.2v-2.3h-12L181.4,346z M193.7,338.6
		c-4.3,0.8-8.7,1.2-13.1,1.4c0-0.4-0.1-0.7-0.3-1.1c4.2-0.1,8.3-0.5,12.5-1.3L193.7,338.6z M184.1,346.8c0.9,1.2,2,2.2,3.3,2.9
		c1.3-0.7,2.4-1.7,3.2-2.9H184.1z M187.1,342.5c-0.2-0.9-0.5-1.7-0.9-2.5l1.1-0.2c0.4,0.8,0.7,1.6,0.9,2.5L187.1,342.5z"/>
	<path class="st1" d="M204.4,349.9c-2.4,0.8-5,1.5-6.8,2.1l-0.3-1.2l1.1-0.3v-9.4h1.1v9.1l1.5-0.4v-11.9h1.2v5h2v1.1h-2v5.4l2.1-0.6
		L204.4,349.9z M212.4,344.3c-0.5,2.1-1.6,4.1-3.1,5.7c1.1,1,2.4,1.7,3.8,2.1c-0.3,0.3-0.6,0.6-0.8,1c-1.4-0.5-2.8-1.3-3.9-2.4
		c-1.4,1.1-2.9,1.9-4.6,2.4c-0.2-0.4-0.4-0.7-0.7-1.1c1.6-0.4,3.1-1.2,4.4-2.2c-1.2-1.4-2.1-3-2.6-4.7l0.2-0.1h-0.9V344h3.5v-2.6
		h-3.9v-1.1h3.9v-2.6h1.2v2.6h3.8v1.1H209v2.6h2.4l0.2,0L212.4,344.3z M206.1,345.2c0.5,1.5,1.3,2.8,2.3,4c1.1-1.1,2-2.5,2.5-4
		H206.1z"/>
	<path class="st1" d="M221,348c-0.5-0.7-1.1-1.4-1.8-2.1v7.3H218v-6.9c-0.7,0.8-1.5,1.4-2.4,2c-0.1-0.4-0.3-0.8-0.6-1.2
		c2.1-1.3,3.8-3.1,4.9-5.3h-4.5v-1.2h5.1l0.2,0l0.7,0.5c-0.5,1.3-1.3,2.5-2.1,3.6c0.7,0.6,2,2,2.3,2.4L221,348z M218.9,340.5
		c-0.4-0.8-0.9-1.5-1.6-2.2l0.9-0.6c0.6,0.6,1.2,1.3,1.6,2.1L218.9,340.5z M229.5,352c0.4,0,0.4-0.2,0.5-2.1
		c0.3,0.2,0.7,0.4,1.1,0.5c-0.1,2.2-0.4,2.7-1.4,2.7h-1.4c-1.2,0-1.4-0.3-1.4-1.5v-4h-1.4c-0.3,2.8-1.1,4.6-4,5.7
		c-0.2-0.4-0.4-0.7-0.7-0.9c2.7-0.8,3.3-2.4,3.6-4.7h-1.6v-9.2h7.4v9.2h-2v4c0,0.4,0.1,0.4,0.4,0.4L229.5,352z M223.8,341.1h5v-1.7
		h-5V341.1z M223.8,343.8h5v-1.7h-5V343.8z M223.8,346.5h5v-1.7h-5V346.5z"/>
	<path class="st1" d="M237.9,337.9c-0.3,0.8-0.6,1.8-0.9,2.5h2.8v11h-4.7v1.3H234v-12.3h1.9c0.3-0.9,0.5-1.8,0.7-2.8L237.9,337.9z
		 M238.7,341.5h-3.6v3.5h3.6V341.5z M238.7,350.3v-4.1h-3.6v4.1H238.7z M248.2,341c-0.3,7.8-0.5,10.4-1.2,11.2
		c-0.3,0.4-0.8,0.7-1.3,0.7c-0.8,0.1-1.7,0.1-2.5,0c0-0.4-0.2-0.9-0.4-1.2c1.1,0.1,2.1,0.1,2.5,0.1s0.5,0,0.7-0.3
		c0.6-0.6,0.8-3.2,1-9.9h-4.3c-0.4,1.1-0.9,2.1-1.6,3c-0.3-0.3-0.7-0.5-1-0.7c1.3-1.9,2.1-4,2.6-6.2l1.2,0.3
		c-0.2,0.8-0.4,1.6-0.7,2.5h5.1L248.2,341z M244.4,348.7c-0.8-1.4-1.6-2.7-2.6-3.9l1-0.6c1,1.2,1.9,2.5,2.6,3.8L244.4,348.7z"/>
	<path class="st1" d="M264.7,343.3c-0.6,2.4-1.9,4.7-3.8,6.4c1.6,1.2,3.4,2,5.4,2.4c-0.3,0.3-0.6,0.7-0.9,1.2
		c-2-0.5-3.9-1.4-5.6-2.6c-1.6,1.2-3.3,2.1-5.2,2.6c-0.2-0.4-0.4-0.8-0.7-1.1c1.8-0.4,3.5-1.2,5-2.3c-1.5-1.6-2.6-3.4-3.3-5.5h-1.2
		c-0.1,2.8-0.5,6.4-2.2,8.9c-0.3-0.3-0.7-0.5-1.1-0.8c1.9-2.6,2-6.4,2-9.1v-4.6h12.4v1.2h-11.1v3h9.1l0.2-0.1L264.7,343.3z
		 M256.9,344.2c0.6,1.8,1.7,3.4,3,4.7c1.4-1.3,2.5-2.9,3.1-4.7H256.9z"/>
	<path class="st1" d="M274.7,346.2c-0.7,0.2-1.4,0.4-2.1,0.6v4.8c0,0.7-0.2,1-0.6,1.3c-0.7,0.2-1.5,0.3-2.3,0.2
		c-0.1-0.4-0.2-0.8-0.4-1.2c0.8,0,1.5,0,1.8,0s0.3-0.1,0.3-0.3v-4.4l-2.3,0.7l-0.3-1.2c0.7-0.2,1.6-0.4,2.6-0.7v-3.7H269v-1.2h2.3
		v-3.4h1.2v3.4h1.9v1.2h-1.9v3.4l2-0.6L274.7,346.2z M282.9,352c0.1,0,0.3,0,0.4-0.1c0.1-0.2,0.2-0.4,0.2-0.6c0-0.4,0-1.1,0.1-2.1
		c0.3,0.2,0.6,0.4,1,0.5c0,0.8,0,1.6-0.1,2.4c-0.1,0.3-0.2,0.6-0.5,0.8c-0.3,0.2-0.6,0.2-0.9,0.2h-0.9c-0.4,0-0.7-0.1-1-0.3
		c-0.3-0.2-0.4-0.5-0.4-1.7v-6.3h-3.2v2c0.2,2.6-1,5.1-3.2,6.6c-0.2-0.4-0.5-0.7-0.8-1c1.9-1.3,2.9-3.4,2.8-5.7v-3.1h5.6v7.5
		c0,0.4,0,0.7,0.1,0.8c0.1,0.1,0.2,0.1,0.3,0.1L282.9,352z M284.4,341.9h-9.6v-1.2h9.6V341.9z M278.8,340.5
		c-0.3-0.9-0.7-1.8-1.2-2.6l1.1-0.4c0.5,0.8,0.9,1.7,1.2,2.5L278.8,340.5z"/>
	<path class="st1" d="M326.7,545.6c-0.8,1.5-1.8,2.8-3,4c0.6,1.8,1.4,2.9,2.3,2.9c0.5,0,0.7-0.9,0.8-3c0.3,0.3,0.7,0.5,1.1,0.7
		c-0.2,2.8-0.7,3.6-2,3.6s-2.4-1.2-3.1-3.2c-1.1,1-2.3,1.8-3.6,2.5c-0.2-0.4-0.5-0.7-0.9-1c1.5-0.7,2.8-1.6,4-2.8
		c-0.5-1.6-0.8-3.3-1-4.9h-4v2.7l3-0.7l0.1,1.1c-1,0.2-2.1,0.5-3.1,0.7v3.8c0,0.8-0.2,1.2-0.7,1.4c-0.9,0.2-1.9,0.3-2.8,0.2
		c-0.1-0.4-0.3-0.9-0.5-1.3c1.1,0,2.1,0,2.4,0s0.4-0.1,0.4-0.4v-3.5c-1.3,0.3-2.5,0.6-3.5,0.8l-0.4-1.3c1-0.2,2.4-0.5,3.9-0.8v-3
		h-3.6v-1.2h3.6v-2.7c-1,0.2-2.1,0.4-3.1,0.5c-0.1-0.4-0.2-0.7-0.4-1c2.3-0.3,4.5-0.8,6.7-1.5l0.9,1c-0.9,0.3-1.9,0.6-2.8,0.8v3h3.9
		c-0.1-1.5-0.2-3.2-0.2-4.8h1.3c0,1.7,0.1,3.3,0.2,4.8h5v1.2h-4.9c0.1,1.3,0.4,2.6,0.7,3.9c0.9-0.9,1.6-2,2.2-3.1L326.7,545.6z
		 M326.1,542.2c-0.8-1.1-1.7-2-2.7-2.9l1-0.7c1,0.8,1.9,1.8,2.7,2.8L326.1,542.2z"/>
	<path class="st1" d="M334.5,538.6c-0.4,1.1-0.8,2.2-1.3,3.3v11.8H332v-9.5c-0.5,0.8-1,1.6-1.6,2.3c-0.2-0.4-0.4-0.9-0.7-1.3
		c1.6-2,2.9-4.4,3.6-6.9L334.5,538.6z M339.3,545.3H336v8.4h-1.2v-14.5h4.5L339.3,545.3z M336,540.2v1.5h2.4v-1.5H336z M338.4,544.3
		v-1.7H336v1.7H338.4z M345.1,552c0,0.8-0.2,1.2-0.8,1.4c-1,0.2-2.1,0.3-3.2,0.2c-0.1-0.4-0.2-0.8-0.4-1.2c1.2,0,2.4,0,2.7,0
		s0.4-0.1,0.4-0.5v-6.7h-3.5v-6.1h4.7V552z M341.4,540.2v1.5h2.5v-1.5H341.4z M343.9,544.3v-1.7h-2.5v1.7H343.9z"/>
	<path class="st1" d="M363.4,548.6v1.2h-15.3v-1.2h1.7l-0.3-9c1.1-0.4,2.1-0.8,3.1-1.3l0.6,1c-0.8,0.3-1.7,0.7-2.6,0.9l0.1,2h2.3
		v1.1h-2.2l0.1,2.1h2.2v1.1h-2.2l0.1,2.1h9.6c0-0.6,0.1-1.3,0.1-2h-2.2v-1.1h2.2c0-0.7,0-1.4,0.1-2.1h-2.2v-1.1h2.3
		c0-0.7,0-1.5,0-2.1h-2.4v-1.1h3.6c0,3-0.1,7-0.2,9.5L363.4,548.6z M354.1,550.8c-1.6,1.2-3.3,2.1-5.1,2.9c-0.2-0.3-0.5-0.7-0.8-1
		c1.7-0.7,3.3-1.6,4.7-2.7L354.1,550.8z M355.4,544.7c-0.1,1.1-0.5,2.2-1,3.2c-0.3-0.2-0.6-0.4-0.9-0.5c0.5-0.9,0.8-1.8,0.9-2.8
		L355.4,544.7z M356.6,543.8h-2.7v-5.5h1.1v1.6h2.8v1.1H355v1.8h2.2l0,0h0.5v4.5c0,0.5-0.1,0.8-0.5,0.9c-0.6,0.1-1.2,0.2-1.8,0.2
		c-0.1-0.3-0.2-0.6-0.3-0.9c0.4,0,0.9,0,1.3,0c0.2,0,0.2-0.1,0.2-0.2L356.6,543.8z M358,550c1.7,0.8,3.4,1.7,5,2.7l-0.8,1
		c-1.5-1-3.1-2-4.8-2.8L358,550z"/>
	<path class="st1" d="M372.3,551.2c-1.8,1-3.7,1.9-5.6,2.5c-0.3-0.4-0.5-0.7-0.8-1c1.9-0.5,3.7-1.3,5.3-2.3L372.3,551.2z
		 M381.1,550.1h-15v-1.2h3.1v-7.5h-2.6v-1.2h2.6v-2h1.2v2h6.3v-2h1.3v2h2.7v1.2H378v7.5h3.1L381.1,550.1z M370.4,541.4v1.6h6.3v-1.7
		L370.4,541.4z M370.4,546h6.3v-1.8h-6.3V546z M370.4,548.9h6.3v-1.8h-6.3V548.9z M375.6,550.5c1.9,0.7,3.7,1.4,5.5,2.3l-1.1,0.8
		c-1.7-0.9-3.4-1.7-5.2-2.4L375.6,550.5z"/>
	<path class="st1" d="M388.7,538.6c-0.5,1.3-1.1,2.5-1.8,3.7v11.3h-1.2v-9.5c-0.5,0.7-1.1,1.4-1.7,2c-0.2-0.4-0.4-0.8-0.7-1.2
		c1.9-1.9,3.3-4.2,4.2-6.8L388.7,538.6z M396.8,552.4c1,0,1.2-0.5,1.3-2.5c0.4,0.2,0.7,0.4,1.2,0.5c-0.2,2.4-0.6,3.1-2.5,3.1h-4.5
		c-2,0-2.6-0.5-2.6-2.3v-5.6l-1.7,0.7l-0.5-1.1l2.2-0.8v-4.4h1.2v4l2.5-1v-4.7h1.2v4.2l2.8-1.1l0.2-0.2l0.9,0.3l0,0.2
		c0,2.5-0.2,5.7-0.5,7.7l-1-0.3c0.2-1.6,0.3-4.2,0.3-6.4l-2.7,1v6.2h-1.2v-5.8l-2.5,1v6c0,1,0.2,1.2,1.4,1.2L396.8,552.4z"/>
	<path class="st1" d="M406.1,550.5c-1.6,0.5-3.2,1-4.5,1.4l-0.2-1.2c0.6-0.1,1.2-0.3,2-0.5v-4.8h-1.6v-1.1h1.6v-3.8h-1.8v-1.1h4.5
		v1.1h-1.7v3.8h1.5v1.1h-1.5v4.5l1.6-0.5L406.1,550.5z M416.6,549.7c-0.8,0.5-1.5,0.9-2.4,1.3c0.8,0.8,1.8,1.3,2.9,1.6
		c-0.3,0.3-0.6,0.6-0.8,1c-2.3-0.8-4-2.5-4.8-4.8c-0.6,0.6-1.3,1.1-2.1,1.5v2l2.8-0.7c0,0.3,0,0.6,0,0.9c-1.4,0.3-2.7,0.7-4,1.2
		c-0.1-0.3-0.2-0.6-0.4-0.9c0.4-0.2,0.6-0.6,0.6-1v-0.8c-0.6,0.3-1.2,0.5-1.8,0.8c-0.2-0.3-0.4-0.6-0.7-0.9c1.6-0.4,3-1.1,4.4-2
		h-2.5v-3.5h8v3.5h-3.1c0.3,0.6,0.6,1.1,1,1.6c0.7-0.4,1.4-0.9,2.1-1.4L416.6,549.7z M416.8,544.3h-10.2v-1h10.2V544.3z
		 M416.2,542.4h-8.9v-3.6h8.9V542.4z M410,539.7h-1.6v1.7h1.6V539.7z M408.9,547.7h5.6v-1.6h-5.6V547.7z M412.6,539.7h-1.7v1.7h1.7
		V539.7z M415.2,539.7h-1.7v1.7h1.7V539.7z"/>
	<path class="st1" d="M424.5,538.6c-0.5,1.3-1.1,2.5-1.8,3.6v11.5h-1.2V544c-0.5,0.7-1.1,1.5-1.8,2.1c-0.2-0.4-0.4-0.8-0.7-1.2
		c1.9-1.9,3.3-4.2,4.3-6.7L424.5,538.6z M427.5,548.7c-0.8,1.5-1.8,2.9-2.9,4.2c-0.3-0.3-0.6-0.5-1-0.7c1.1-1.1,2-2.4,2.7-3.8
		L427.5,548.7z M430,547.5v6.2h-1.3v-6.2h-4.9v-1.2h4.9v-2H425V539h8.8v5.4H430v2h4.8v1.2L430,547.5z M426.2,543.2h6.3v-3.1h-6.3
		V543.2z M431.9,548.4c1.1,1.2,2.1,2.5,2.9,3.8l-1,0.6c-0.8-1.4-1.8-2.7-2.9-3.9L431.9,548.4z"/>
	<path class="st1" d="M451.8,539v14.7h-1.2v-0.8h-11.3v0.9h-1.2V539H451.8z M450.6,551.8V540h-11.3v11.8H450.6z M450,549h-2.4v1.6
		c0,0.5-0.1,0.7-0.5,0.8c-0.7,0.1-1.3,0.2-2,0.1c-0.1-0.3-0.2-0.5-0.3-0.7c0.7,0,1.3,0,1.5,0s0.2,0,0.2-0.2V549h-6.7v-0.8h6.6v-0.6
		h1.1v0.6h2.4V549z M444.3,541.8h-4.2V541h4.3v-0.8h1.1v0.8h4.4v0.8h-4.4v0.7h3.8v3.4h-1.4c0.7,0.5,1.3,1,1.8,1.7l-0.7,0.5
		c-0.2-0.3-0.4-0.5-0.7-0.8c-2.9,0.1-6,0.2-8.1,0.2l0-0.8h4.2v-0.8h-3.6v-3.4h3.6L444.3,541.8z M442.5,549.1c0.6,0.4,1.1,1,1.5,1.5
		l-0.9,0.5c-0.4-0.6-0.9-1.2-1.5-1.6L442.5,549.1z M441.7,543.9h2.6v-0.7h-2.6V543.9z M444.3,545.3v-0.8h-2.6v0.8H444.3z
		 M445.4,543.1v0.7h2.7v-0.7H445.4z M448.1,544.5h-2.7v0.8h2.7V544.5z M447.5,546.7c-0.1-0.1-0.3-0.2-0.4-0.3l0.7-0.5h-2.4v0.8
		L447.5,546.7z"/>
	<path class="st1" d="M461,543.5h0.7v2.4H461v6.5c0,0.5-0.1,0.8-0.5,1c-0.6,0.2-1.3,0.2-1.9,0.2c-0.1-0.3-0.2-0.7-0.4-1h1.4
		c0.2,0,0.2-0.1,0.2-0.2v-2.2c-0.8,0.5-1.6,1-2.3,1.4l-0.5-0.9c0.7-0.3,1.7-0.8,2.8-1.4v-2.9h-2.7v2.3c0.1,1.8-0.3,3.5-1.2,5.1
		c-0.3-0.3-0.6-0.5-0.9-0.7c0.8-1.3,1.1-2.9,1-4.4v-2.8h-0.8v-2.4h0.7v-4.6h5L461,543.5z M460.7,544.4h-4.5v1.1h4.5V544.4z
		 M457,543.5h1v-2.6h1.9v-1.1H457L457,543.5z M459.1,549.1c-0.6-0.5-1.2-1.1-1.8-1.5l0.6-0.6c0.7,0.4,1.3,0.9,1.9,1.4L459.1,549.1z
		 M459.9,543.5v-1.8h-1.1v1.8H459.9z M470.6,552.4v1h-8.8v-1h2.4c-0.2-0.5-0.4-1.1-0.6-1.6l1-0.3c0.2,0.6,0.6,1.3,0.7,1.9h1.6
		c0.2-0.6,0.6-1.4,0.7-1.9l1.2,0.3c-0.3,0.5-0.6,1.1-0.9,1.6L470.6,552.4z M470.5,546.5H462v-1h8.5V546.5z M470,544.6h-7.7v-5.1h2.1
		v-1.3h1v1.3h1.2v-1.3h1v1.3h2.3L470,544.6z M462.8,550.4v-3.1h6.8v3.1H462.8z M463.4,541.6h1.3v-1.2h-1.3V541.6z M463.4,543.7h1.3
		v-1.3h-1.3V543.7z M463.9,549.6h4.5v-1.4h-4.5V549.6z M466.8,541.6v-1.2h-1.3v1.2H466.8z M465.5,542.4v1.3h1.3v-1.3H465.5z
		 M469,540.4h-1.4v1.2h1.4V540.4z M469,542.4h-1.4v1.3h1.4V542.4z"/>
	<path class="st1" d="M478.9,541.6c-0.3,0.7-0.7,1.3-1,2h8.2v8.6c0,0.8-0.2,1.1-0.7,1.3c-1,0.2-2,0.3-3,0.2
		c-0.1-0.4-0.2-0.9-0.4-1.2c1.1,0,2.2,0,2.5,0s0.4-0.1,0.4-0.4v-1.8h-7.3c-0.2,1.3-0.8,2.5-1.7,3.5c-0.2-0.4-0.5-0.7-0.9-1
		c1.2-1.3,1.7-3.1,1.6-4.8v-2.5c-0.8,1-1.7,1.9-2.8,2.6c-0.2-0.4-0.5-0.7-0.8-1c2-1.4,3.6-3.3,4.6-5.5h-4.2v-1.2h4.8
		c0.3-0.7,0.5-1.4,0.8-2.2l1.3,0.3c-0.2,0.6-0.4,1.3-0.7,1.9h8.7v1.2L478.9,541.6z M484.9,549.3v-1.8h-7.1v0.5c0,0.4,0,0.8,0,1.3
		L484.9,549.3z M484.9,544.7h-7.1v1.7h7.1V544.7z"/>
	<path class="st1" d="M495.8,538.6c-0.4,1.2-0.9,2.3-1.5,3.4v11.7H493v-9.6c-0.5,0.7-1,1.4-1.6,2.1c-0.2-0.4-0.4-0.8-0.7-1.2
		c1.7-2,3-4.2,3.9-6.7L495.8,538.6z M506.3,541h-1.2v11c0,0.9-0.2,1.3-0.8,1.5c-1.1,0.2-2.3,0.3-3.4,0.2c-0.1-0.4-0.2-0.9-0.5-1.3
		c1.4,0,2.6,0,3,0s0.5-0.1,0.5-0.4v-10.9h-8v-1.2h10.5L506.3,541z M497.5,549.3v1.2h-1.2v-7h5.3v5.8H497.5z M497.5,544.5v3.6h2.9
		v-3.6H497.5z"/>
	<path class="st1" d="M518.2,540.7c-0.4,0.6-0.8,1.2-1.2,1.9v11.2h-1.3v-9.5c-1.7,2-3.8,3.7-6.1,5c-0.3-0.4-0.5-0.8-0.9-1.1
		c3.3-1.7,6-4.2,7.9-7.4h-7.5v-1.3h14.5v1.3L518.2,540.7z M518.3,543.5c2.1,1.3,4,2.8,5.8,4.5l-1,1c-1.8-1.7-3.7-3.3-5.7-4.6
		L518.3,543.5z"/>
	<path class="st1" d="M541.2,552.1c0,0.8-0.2,1.2-0.7,1.4c-0.9,0.2-1.9,0.3-2.8,0.2c-0.1-0.4-0.2-0.9-0.5-1.2c1.1,0,2.1,0,2.3,0
		s0.4-0.1,0.4-0.4v-11.8h-11.5v13.5h-1.2v-14.7h13.9V552.1z M538.5,543.1H530V542h8.6L538.5,543.1z M532,550.3v1.2h-1.2v-6.6h6.8
		v5.4L532,550.3z M532,546v3.2h4.5V546L532,546z"/>
	<path class="st1" d="M552.3,542.8c0-1.2-0.8-2-2.6-2c-1.2,0-2.4,0.6-3.2,1.5l-0.9-0.8c1.1-1.3,2.6-2,4.3-2c2.4,0,3.9,1.2,3.9,3.2
		c0,2.6-4.1,3.1-3.6,5.6h-1.4C548.3,545.5,552.3,544.7,552.3,542.8z M549.6,549.8c0.7,0,1.3,0.5,1.4,1.2c0,0,0,0.1,0,0.1
		c0,0.7-0.6,1.3-1.3,1.3c0,0-0.1,0-0.1,0c-0.7,0-1.3-0.5-1.4-1.3c0,0,0-0.1,0-0.1C548.2,550.4,548.8,549.8,549.6,549.8
		C549.5,549.8,549.6,549.8,549.6,549.8L549.6,549.8z"/>
	<path class="st1" d="M363.3,578.9h13.1c-1-0.8-2-1.7-2.8-2.8l1-0.6c1.2,1.6,2.7,2.9,4.4,4c-1.7,1.1-3.1,2.4-4.4,4l-1-0.6
		c0.8-1,1.7-2,2.8-2.8h-13.1V578.9z"/>
	<path class="st1" d="M387.3,575.1c-0.3,0.7-0.7,1.3-1,2h8.2v8.6c0,0.8-0.2,1.1-0.7,1.3c-1,0.2-2,0.3-3,0.2
		c-0.1-0.4-0.2-0.9-0.4-1.2c1.1,0,2.2,0,2.5,0s0.4-0.1,0.4-0.4v-1.8h-7.3c-0.2,1.3-0.8,2.5-1.7,3.5c-0.2-0.4-0.5-0.7-0.9-1
		c1.2-1.3,1.7-3.1,1.6-4.8V579c-0.8,1-1.7,1.9-2.8,2.6c-0.2-0.4-0.5-0.7-0.8-1c2-1.4,3.6-3.3,4.6-5.5h-4.2v-1.2h4.8
		c0.3-0.7,0.5-1.4,0.8-2.2l1.3,0.3c-0.2,0.6-0.4,1.3-0.7,1.9h8.7v1.2L387.3,575.1z M393.2,582.8V581h-7.1v0.5c0,0.4,0,0.8,0,1.3
		L393.2,582.8z M393.2,578.2h-7.1v1.7h7.1V578.2z"/>
	<path class="st1" d="M403.5,584.8c1.4,0.6,2.9,0.9,4.5,0.8c0.8,0,5.8,0,6.8,0c-0.2,0.4-0.4,0.8-0.5,1.2h-6.3c-3.7,0-5.8-0.6-7-3.1
		c-0.2,1.2-0.6,2.4-1.2,3.5c-0.2-0.3-0.5-0.6-0.9-0.8c1.2-2,1.3-4.9,1.3-7.1l1.1,0.1c0,0.7,0,1.4,0,2.1c0.2,0.9,0.6,1.7,1.2,2.4v-6
		h-3.1v-1.1h2.7v-2h-2.3v-1.1h2.3v-2h1.2v2h1.8v1.1h-1.9v2h2.2v1.2h-1.8v2.2h1.8v1.1h-1.8L403.5,584.8z M406,573.5h-0.9v-1.1h5.7
		v1.1h-0.9v10.2c0.9-1.1,1.6-2.5,2.1-3.9c-0.6-1.2-1.2-2.5-1.8-3.5l0.9-0.3c0.4,0.8,0.9,1.6,1.3,2.5c0.3-1.2,0.5-2.4,0.7-3.6h-2.7
		v-1h3h0.2l0.7,0.2c-0.2,2-0.6,4-1.2,5.9c0.6,1.2,1.2,2.5,1.6,3.8l-1,0.4c-0.3-1-0.6-1.9-1-2.9c-0.5,1.2-1.2,2.4-2,3.4
		c-0.2-0.3-0.5-0.6-0.7-0.8v1.3h-1v-2.5c-1.3,0.3-2.5,0.7-3.6,0.9l-0.2-1l1-0.2L406,573.5z M408.9,573.5H407v2h1.8L408.9,573.5z
		 M408.9,576.5H407v2.1h1.8L408.9,576.5z M407,582c0.6-0.1,1.2-0.3,1.8-0.4v-2H407V582z"/>
	<path class="st1" d="M421.7,571.9c-0.3,0.8-0.6,1.8-0.9,2.5h2.8v11h-4.7v1.3h-1.2v-12.3h1.9c0.3-0.9,0.5-1.8,0.7-2.8L421.7,571.9z
		 M422.5,575.6h-3.6v3.5h3.6V575.6z M422.5,584.3v-4.1h-3.6v4.1H422.5z M431.9,575c-0.3,7.8-0.5,10.4-1.2,11.2
		c-0.3,0.4-0.8,0.7-1.3,0.7c-0.8,0.1-1.7,0.1-2.5,0c0-0.4-0.2-0.9-0.4-1.2c1.1,0.1,2.1,0.1,2.5,0.1s0.5,0,0.7-0.3
		c0.6-0.6,0.8-3.2,1-9.9h-4.3c-0.4,1.1-0.9,2.1-1.6,3c-0.3-0.3-0.7-0.5-1-0.7c1.3-1.9,2.1-4,2.6-6.2l1.2,0.3
		c-0.2,0.8-0.4,1.6-0.7,2.5h5.1L431.9,575z M428.2,582.7c-0.8-1.4-1.6-2.7-2.6-3.9l1-0.6c1,1.2,1.9,2.5,2.7,3.8L428.2,582.7z"/>
	<path class="st1" d="M439.4,584c-1.6,0.5-3.2,1-4.5,1.4l-0.2-1.2c0.6-0.1,1.2-0.3,2-0.5v-4.8H435v-1.1h1.6V574h-1.8v-1.1h4.5v1.1
		h-1.7v3.8h1.5v1.1h-1.5v4.5l1.6-0.5L439.4,584z M449.9,583.2c-0.8,0.5-1.5,0.9-2.4,1.3c0.8,0.8,1.8,1.3,2.9,1.6
		c-0.3,0.3-0.6,0.6-0.8,1c-2.3-0.8-4-2.5-4.8-4.8c-0.6,0.6-1.3,1.1-2.1,1.5v2l2.8-0.7c0,0.3,0,0.6,0,0.9c-1.4,0.3-2.7,0.7-4,1.2
		c-0.1-0.3-0.2-0.6-0.4-0.9c0.4-0.2,0.6-0.6,0.6-1v-0.8c-0.6,0.3-1.2,0.5-1.8,0.8c-0.2-0.3-0.4-0.6-0.7-0.9c1.6-0.4,3-1.1,4.4-2H441
		v-3.5h8v3.5h-3.1c0.3,0.6,0.6,1.1,1,1.6c0.7-0.4,1.4-0.9,2.1-1.4L449.9,583.2z M450.1,577.8h-10.2v-1h10.2L450.1,577.8z
		 M449.5,575.9h-8.9v-3.6h8.9V575.9z M443.3,573.2h-1.6v1.8h1.6V573.2z M442.2,581.2h5.6v-1.6h-5.6V581.2z M445.8,573.2h-1.7v1.8
		h1.7V573.2z M448.4,573.2h-1.7v1.8h1.7V573.2z"/>
	<path class="st1" d="M457.8,572.1c-0.5,1.3-1.1,2.5-1.8,3.6v11.5h-1.2v-9.6c-0.5,0.7-1.1,1.5-1.8,2.1c-0.2-0.4-0.4-0.8-0.7-1.2
		c1.9-1.9,3.3-4.2,4.3-6.7L457.8,572.1z M460.8,582.2c-0.8,1.5-1.8,2.9-2.9,4.2c-0.3-0.3-0.6-0.5-1-0.7c1.1-1.1,2-2.4,2.7-3.8
		L460.8,582.2z M463.3,581.1v6.2H462v-6.2h-4.9v-1.2h4.9v-2h-3.7v-5.4h8.8v5.4h-3.8v2h4.8v1.2H463.3z M459.5,576.8h6.3v-3.1h-6.3
		V576.8z M465.2,581.9c1.1,1.2,2.1,2.5,2.9,3.8l-1,0.6c-0.8-1.4-1.8-2.7-2.9-3.9L465.2,581.9z"/>
	<path class="st1" d="M476.2,575.8c-0.6,0.9-1.2,1.8-1.9,2.6v8.9H473v-7.5c-0.6,0.6-1.2,1.2-1.9,1.8c-0.3-0.4-0.6-0.7-0.9-1
		c1.9-1.4,3.5-3.1,4.8-5.1L476.2,575.8z M475.5,572.2c-1.2,1.6-2.7,3-4.4,4.2c-0.2-0.3-0.5-0.7-0.8-1c1.5-1,2.8-2.3,3.9-3.7
		L475.5,572.2z M485.9,578.6h-2.6v7c0,0.8-0.2,1.2-0.8,1.4c-1.1,0.2-2.1,0.3-3.2,0.2c-0.1-0.4-0.2-0.8-0.4-1.2c1.2,0,2.3,0,2.6,0
		s0.4-0.1,0.4-0.4v-7h-5.7v-1.2h9.5L485.9,578.6z M485.5,573.9h-8.3v-1.2h8.3V573.9z"/>
	<path class="st1" d="M503.5,575.7c0,0,0,0.5,0,0.7c-0.2,7.1-0.3,9.5-0.9,10.2c-0.2,0.4-0.7,0.6-1.1,0.6c-0.7,0.1-1.4,0.1-2.1,0
		c0-0.4-0.2-0.8-0.4-1.2c0.8,0.1,1.6,0.1,1.9,0.1c0.2,0,0.5-0.1,0.6-0.3c0.4-0.5,0.6-2.7,0.8-8.9h-2.4c-0.2,4.5-1,8.2-4,10.5
		c-0.3-0.3-0.6-0.6-0.9-0.9c0.3-0.2,0.5-0.4,0.8-0.6c-2.6,0.3-5.2,0.6-7.1,0.8l-0.2-1.1l3.7-0.3v-1.5h-3.2v-1h3.2v-1h-3.2v-5h3.2
		v-1.1h-3.7v-1h3.7v-1.1c-1.1,0.1-2.2,0.2-3.2,0.2c-0.1-0.3-0.2-0.6-0.3-0.9c2.5-0.1,4.9-0.4,7.3-0.8l0.6,1
		c-1.1,0.2-2.2,0.4-3.3,0.5v1.2h3.6v1h-3.6v1.1h3.3v5h-3.3v1h3.3v1h-3.3v1.3c1.1-0.1,2.3-0.2,3.4-0.4v0.1c1.5-2,1.9-4.7,2.1-7.9h-2
		v-1.2h2c0-1.2,0-2.4,0-3.7h1.2c0,1.3,0,2.5,0,3.7L503.5,575.7z M489.9,578.7h2.1v-1.2h-2.1V578.7z M492.1,580.8v-1.2h-2.1v1.2
		H492.1z M493.2,577.5v1.2h2.2v-1.2H493.2z M495.4,579.6h-2.2v1.2h2.2L495.4,579.6z"/>
	<path class="st1" d="M255.7,225.9v1.4h-1.1v-11.2h4.5v9.8H255.7z M255.7,217.3v7.4h2.3v-7.4H255.7z M269.3,220.8
		c-0.5,2.3-1.5,4.4-3,6.2c1,1,2.2,1.7,3.5,2.2c-0.3,0.3-0.6,0.6-0.8,1c-1.3-0.6-2.5-1.4-3.5-2.4c-1.1,1-2.4,1.8-3.7,2.4
		c-0.2-0.4-0.5-0.7-0.8-1c1.4-0.5,2.6-1.3,3.7-2.3c-1.1-1.4-2-2.9-2.6-4.6c-0.4,3.1-1.3,6.1-3.3,8c-0.3-0.3-0.6-0.6-0.9-0.9
		c2.9-2.8,3.3-8.2,3.4-12.5h-1.5v-1.2h6.9l0.2-0.1l0.9,0.1c-0.2,1.4-0.5,3.2-0.8,4.7h1.3h0.2L269.3,220.8z M262.5,216.9
		c0,1.2-0.1,2.4-0.2,3.6h3.5c0.2-1.2,0.5-2.6,0.6-3.6H262.5z M263,221.7c0.6,1.6,1.4,3.1,2.5,4.4c1.1-1.3,1.9-2.8,2.4-4.4H263z"/>
	<path class="st1" d="M278.6,222.8c0,0,0,0.4,0,0.5c-0.2,4.1-0.3,5.6-0.7,6.1c-0.2,0.3-0.6,0.5-1,0.5c-0.5,0-1.1,0-1.6,0
		c0-0.4-0.2-0.8-0.3-1.1c0.6,0.1,1.2,0.1,1.4,0.1c0.2,0,0.4,0,0.5-0.2c0.3-0.3,0.4-1.5,0.6-4.8h-2.3c-0.3,2.5-0.9,4.8-2.3,6.2
		c-0.2-0.3-0.5-0.6-0.9-0.9c1.8-1.8,2.1-5,2.2-8.1h-2.1v-1.1h3.5c-0.2-0.5-0.5-1.1-0.8-1.6l1.2-0.2c0.4,0.6,0.7,1.2,0.9,1.8h2.7v1.1
		h-4.1c0,0.5,0,1.1-0.1,1.6L278.6,222.8z M276.2,217.1h-4v-1.1h4v-1.2h1.2v1.2h1.9v1.1h-1.9v1.1h-1.2V217.1z M283.8,218.6
		c-0.1,0.2-0.1,0.3-0.2,0.5c1.1,1.5,2.5,2.9,4,4c-0.3,0.3-0.6,0.6-0.8,0.9c-1.4-1.2-2.6-2.5-3.7-4c-0.9,1.6-2.1,2.9-3.6,4
		c-0.3-0.3-0.6-0.6-0.9-0.8c1.8-1.2,3.2-2.9,4.1-4.9L283.8,218.6z M280.4,226c2.1,0.7,4.1,1.7,6,2.9l-0.7,1
		c-1.8-1.3-3.8-2.3-5.9-3.1L280.4,226z M281.8,217.1H280v-1.1h1.9v-1.2h1.2v1.2h4v1.1h-4v1.1h-1.2L281.8,217.1z M282.1,222.8
		c1.2,0.5,2.3,1.2,3.3,2.1l-0.8,0.9c-1-0.9-2.1-1.6-3.2-2.2L282.1,222.8z"/>
	<path class="st1" d="M298.6,221.3c-0.9,0.6-1.8,1.2-2.7,1.8h7v7.1h-1.3v-0.5h-6.9v0.5h-1.2v-5.9c-1,0.5-2.1,1-3.1,1.3
		c-0.2-0.4-0.5-0.7-0.8-1c2.5-0.8,4.8-2,7-3.4H290v-1.1h5.8V218h-4.3v-1.1h4.3v-2.2h1.2v2.1h4.2v0.7c0.7-0.7,1.3-1.4,1.9-2.2
		l1.1,0.6c-1.2,1.6-2.6,3-4.1,4.3h4.9v1.1L298.6,221.3z M301.6,224.1h-6.9v1.7h6.9V224.1z M301.6,228.5v-1.8h-6.9v1.8H301.6z
		 M298.2,220.1c0.9-0.7,1.8-1.4,2.6-2.2H297v2.2H298.2z"/>
	<path class="st1" d="M313,227.2c-1.3,1.1-2.8,2.1-4.3,2.8c-0.3-0.3-0.6-0.6-1-0.9c1.5-0.6,2.9-1.4,4.1-2.4L313,227.2z M322.9,220.1
		v1h-8.1l0.4,0.3c-0.8,0.5-1.7,1-2.6,1.4l3.9-0.2c0.7-0.3,1.4-0.7,2-1.1l0.9,0.8c-2.2,1.2-4.6,2.2-7,3l7-0.4
		c-0.4-0.3-0.8-0.5-1.1-0.8l0.9-0.6c1.2,0.7,2.3,1.6,3.4,2.6l-1,0.7c-0.3-0.4-0.7-0.8-1.1-1.1l-4.2,0.2v2.8c0,0.7-0.1,1-0.7,1.2
		c-0.9,0.2-1.7,0.3-2.6,0.2c-0.1-0.4-0.3-0.8-0.5-1.2c1,0,2,0,2.2,0s0.4-0.1,0.4-0.2v-2.6c-5,0.3-5.7,0.4-6.1,0.5
		c-0.1-0.4-0.2-0.7-0.3-1.1c0.8-0.1,1.6-0.3,2.4-0.6c0.6-0.2,1.9-0.7,3.5-1.3c-3.4,0.2-3.9,0.2-4.2,0.4c-0.1-0.4-0.2-0.7-0.3-1.1
		c0.4-0.1,0.8-0.2,1.2-0.3c1-0.4,1.9-0.9,2.8-1.4h-6v-1h6.9V219h-5.1v-1h5.1v-1.1h-6v-1h6v-1.3h1.2v1.3h6.2v1h-6.2v1.1h5.2v1h-5.2
		v1.1L322.9,220.1z M318.6,226.7c1.5,0.7,2.9,1.5,4.2,2.4l-1,0.8c-1.3-1-2.7-1.8-4.1-2.6L318.6,226.7z"/>
	<path class="st1" d="M336.6,220.9c1.2,1.3,2.7,2.2,4.4,2.7c-0.3,0.3-0.6,0.6-0.8,1c-2-0.7-3.7-2-4.9-3.7h-4.2
		c-0.6,0.8-1.4,1.6-2.2,2.2h8.6v3.9h-7.6v1.6l2.9-0.7c0,0.3,0,0.7,0,1c-3.5,0.9-4,1.1-4.4,1.3c-0.1-0.4-0.3-0.7-0.5-1.1
		c0.4-0.2,0.7-0.6,0.6-1.1v-4.7c-0.8,0.6-1.6,1-2.4,1.4c-0.3-0.3-0.5-0.6-0.9-0.9c1.7-0.7,3.2-1.7,4.4-3.1h-3.9v-0.9h6.8V219h-4.9
		v-0.9h4.9v-0.8h-5.8v-0.9h3.2c-0.3-0.5-0.6-0.9-0.9-1.4l1.1-0.4c0.5,0.5,0.9,1.1,1.2,1.8h3.9c0.4-0.6,0.7-1.2,1-1.8l1.3,0.3
		c-0.3,0.5-0.7,1-1,1.4h3.2v0.9h-5.9v0.8h5v0.9h-5v0.9h6.9v0.9L336.6,220.9z M329.9,223.9v0.8h6.4v-0.8H329.9z M336.3,226.2v-0.8
		h-6.4v0.8H336.3z M330.8,222.3v-0.8h4.9v0.8H330.8z M340,227c-0.9,0.5-1.8,0.9-2.7,1.3c1,0.4,2,0.7,2.7,1l-0.5,0.9
		c-1.5-0.6-4.5-1.7-6.7-2.4l0.5-0.8c0.9,0.2,1.9,0.6,2.9,0.9c1-0.5,2-1,3-1.6L340,227z"/>
	<path class="st1" d="M352.9,217.1c-0.4,0.6-0.8,1.2-1.2,1.9v11.1h-1.3v-9.4c-1.7,2-3.8,3.7-6.1,4.9c-0.3-0.4-0.5-0.8-0.9-1.1
		c3.3-1.7,6-4.2,7.9-7.4h-7.5v-1.3h14.5v1.3L352.9,217.1z M353,220c2.1,1.3,4,2.8,5.8,4.5l-1,1c-1.8-1.7-3.7-3.3-5.8-4.7L353,220z"
		/>
	<path class="st1" d="M369.6,228.5c1,0.2,2,0.3,3,0.2c0.5,0,3.4,0,4.1,0c-0.2,0.4-0.4,0.8-0.5,1.2h-3.7c-3.6,0-6.2-0.6-7.8-3.6
		c-0.5,1.5-1.4,2.8-2.6,3.8c-0.3-0.3-0.6-0.6-0.9-0.9c2-1.6,2.8-4.4,3.1-6.8l1.3,0.1c-0.1,0.7-0.2,1.4-0.4,2.1
		c0.5,1.5,1.7,2.8,3.2,3.4v-6.9h-5v-5.8H375v5.8h-5.2v2.6h5.7v1.2h-5.7L369.6,228.5z M364.6,220.1h9v-3.3h-9V220.1z"/>
	<path class="st1" d="M340.7,469.4c-0.1,0.3-0.3,0.5-0.4,0.8c1.4,1.6,2.9,3,4.6,4.2c-0.6,0.5-1.1,1.1-1.6,1.7
		c-1.4-1.3-2.8-2.8-4-4.3c-1.1,1.7-2.5,3.1-4.1,4.3c-0.4-0.5-0.9-1-1.4-1.4v0.3c-0.2,4.9-0.3,6.8-0.9,7.4c-0.3,0.5-0.8,0.8-1.3,0.8
		c-0.7,0.1-1.4,0.1-2.1,0.1c-0.1-0.7-0.3-1.5-0.6-2.1c0.6,0,1.2,0.1,1.5,0.1c0.2,0,0.4-0.1,0.6-0.2c0.3-0.3,0.4-1.5,0.5-4.7h-1.7
		c-0.4,2.9-1.1,5.5-3,7.3c-0.4-0.7-1-1.3-1.6-1.8c2.1-2.1,2.3-5.5,2.5-9.1h-2.3v-2.2h3.6c-0.2-0.5-0.4-1-0.6-1.5l2.3-0.5
		c0.4,0.6,0.7,1.3,1,1.9h3.1v2.2H330c0,0.5,0,0.9-0.1,1.3h3.9v0.2c2-1.4,3.7-3.4,4.8-5.6L340.7,469.4z M330,467.6h-4.5v-2.2h4.5
		v-1.2h2.4v1.2h2v2.2h-2v1.1H330V467.6z M336,477.8c2.6,0.9,5.1,2,7.4,3.5l-1.3,2c-2.3-1.6-4.7-2.9-7.3-3.8L336,477.8z M337.2,467.6
		h-2.1v-2.2h2.1v-1.2h2.4v1.2h4.5v2.2h-4.5v1.1h-2.4V467.6z M340.5,478.3c-1-1.1-2.2-1.9-3.5-2.6l1.4-1.5c1.3,0.7,2.5,1.5,3.6,2.5
		L340.5,478.3z"/>
	<path class="st1" d="M351.2,467.3h-3.7v-2.1h3.7v-1.1h2.5v1.1h2.8v2.1h-2.8v1.3h-2.5V467.3z M362.3,471.6c-0.2,0.5-0.5,0.9-0.7,1.2
		h4.1v3.7h-2v3.4c0,1.1-0.2,1.7-1,2.1c-1,0.3-2.1,0.4-3.2,0.4c-0.1-0.8-0.4-1.5-0.7-2.2c0.8,0,1.8,0,2.1,0s0.4-0.1,0.4-0.3v-1.6H358
		v5.3h-2.4v-5.3h-3v4.2H350v-5.9h-2v-3.7h4.3c-0.1-0.5-0.3-0.9-0.5-1.3l1.2-0.2h-4.5v-2h7.3c-0.1-0.3-0.3-0.7-0.4-1l2.1-0.6
		c0.3,0.5,0.5,1,0.7,1.6h7.1v2h-4.8L362.3,471.6z M355.5,476.2v-1.4h-5.2v1.4H355.5z M354.1,471.2c0.3,0.5,0.5,1,0.6,1.6h4.2
		c0.3-0.5,0.5-1,0.6-1.6H354.1z M366.1,465.2v2.1h-3.5v1.3h-2.5v-1.3h-2.9v-2.1h2.9v-1.1h2.5v1.1H366.1z M363.2,474.9H358v1.4h5.3
		L363.2,474.9z"/>
	<path class="st1" d="M375.3,478.3c-0.3-0.6-0.9-1.5-1.5-2.3v7.6h-2.3v-7.3c-0.5,0.7-1.1,1.3-1.8,1.8c-0.2-0.9-0.6-1.7-1-2.4
		c1.9-1.6,3.5-3.5,4.5-5.8h-4.1v-2.2h3.2c-0.4-0.9-0.9-1.7-1.4-2.5l1.9-1c0.6,0.9,1.2,1.8,1.7,2.7l-1.4,0.8h1.3l0.4-0.1l1.2,1
		c-0.6,1.6-1.3,3.2-2.2,4.6v0.2l0.3,0.3c0.5-0.6,1-1.3,1.4-2l1.4,1.4c-0.7,0.6-1.3,1.2-1.8,1.8c0.6,0.6,1.2,1.3,1.4,1.6L375.3,478.3
		z M387.8,472.6c-0.5,2.5-1.5,4.8-3.1,6.8c1.2,0.9,2.5,1.6,4,2c-0.6,0.6-1.1,1.3-1.5,2.1c-1.5-0.5-2.9-1.4-4.2-2.4
		c-1.2,1-2.6,1.9-4.1,2.5c-0.3-0.7-0.8-1.4-1.3-2c1.4-0.5,2.7-1.2,3.9-2.1c-1-1.3-1.8-2.7-2.3-4.3c-0.2,2.9-1,6.1-2.9,8.4
		c-0.5-0.6-1.1-1.2-1.8-1.6c2.3-2.6,2.5-6.5,2.5-9.4v-5.6h4.4v-2.8h2.3v2.8h2.7l0.4-0.1l1.8,0.4c-0.4,1.5-0.8,3-1.3,4.5l-2.1-0.5
		c0.2-0.7,0.4-1.3,0.5-2h-2v2.9h2.2l0.4-0.1L387.8,472.6z M379.2,469.2v2.9h2.1v-2.9H379.2z M381,474.3c0.5,1.3,1.2,2.5,2,3.5
		c0.8-1,1.5-2.2,1.9-3.5H381z"/>
	<path class="st1" d="M402.6,472.3c1.4,4.1,3.9,7.4,7.8,8.9c-0.7,0.7-1.3,1.5-1.8,2.3c-3.8-1.8-6.2-4.8-7.8-8.9
		c-1.2,3.9-4.1,7.2-7.8,8.9c-0.5-0.8-1.1-1.5-1.9-2.1c3.9-1.6,6.8-5,7.6-9.2h-7.2v-2.6h7.6c0.2-2,0.2-3.9,0.2-5.6h2.8
		c0,1.7,0,3.6-0.2,5.6h8.2v2.6H402.6z"/>
	<path class="st1" d="M432.1,481.3v1.8h-19v-1.8h8.2v-0.8H415V479h6.4v-0.7h-6V473h14.4v5.3h-6.1v0.7h6.5v1.6h-6.5v0.8L432.1,481.3z
		 M432.1,472.3h-18.9v-1.8H432L432.1,472.3z M429.4,469.9h-13.6v-5.2h13.6L429.4,469.9z M417.7,475h3.6v-0.7h-3.6V475z M421.4,477
		v-0.7h-3.6v0.7H421.4z M426.8,466.1h-8.7v0.7h8.7V466.1z M426.8,468h-8.7v0.7h8.7V468z M427.4,474.3h-3.6v0.7h3.6V474.3z
		 M427.4,476.3h-3.6v0.7h3.6V476.3z"/>
	<path class="st1" d="M450.8,472h3v1.8h-3v2.7h-5.1v0.8h8v1.9h-4c1.3,0.7,2.6,1.5,3.8,2.4l-2,1.5c-1.3-1.1-2.6-2.1-4.1-2.9l1.5-1.1
		h-3.2v4.3h-2.5v-4.3h-8v-1.9h8v-0.8h-5v-2.7h-3V472h3v-1h2.3v1.1h2.8v-1.2h2.3v1.2h2.8V471h2.4V472z M453.8,465.6v1.9h-4.1
		c1.2,0.7,2.4,1.5,3.3,2.1l-1.6,1.4c-0.3-0.3-0.8-0.6-1.2-0.9c-11,0.4-12.3,0.5-13.1,0.8c-0.2-0.8-0.4-1.5-0.7-2.2
		c0.7-0.1,1.3-0.4,1.9-0.8c0.1-0.1,0.3-0.2,0.5-0.3h-3.4v-1.9h6.3c0.7-0.5,1.3-1.1,1.9-1.6l2.9,0.7c-0.4,0.3-0.8,0.6-1.2,1
		L453.8,465.6z M441.5,480.1c-1.1,1.3-2.5,2.4-4,3.2c-0.6-0.6-1.3-1.1-2-1.6c1.4-0.5,2.6-1.3,3.6-2.4L441.5,480.1z M447.7,468.5
		c-0.4-0.2-0.8-0.5-1.2-0.7l0.4-0.3h-4.5c-0.6,0.4-1.3,0.8-1.9,1.2L447.7,468.5z M440.4,474.8h2.8v-0.9h-2.8V474.8z M448.4,473.9
		h-2.8v0.9h2.8V473.9z"/>
	<path class="st1" d="M475.8,481.3v1.8h-18.7v-1.8h2.4v-8.4h5.1c0-0.3,0.1-0.5,0.1-0.8h-7.4v-1.8h7.6c0-0.3,0.1-0.6,0.1-0.9h-6.8
		v-4.5h16.5v4.5h-7.2c0,0.3-0.1,0.6-0.1,0.9h7.8v1.8h-8.1l-0.1,0.8h6.3v8.4H475.8z M462.9,466.5h-2.3v1.2h2.3V466.5z M461.9,474.4
		v0.8h9v-0.8H461.9z M470.9,476.4h-9v0.8h9V476.4z M461.9,479.3h9v-0.9h-9V479.3z M461.9,481.3h9v-0.8h-9V481.3z M465.2,467.7h2.4
		v-1.2h-2.4V467.7z M469.8,467.7h2.4v-1.2h-2.4V467.7z"/>
	<path class="st1" d="M497.6,467.4c0,0,0,0.8,0,1.1c-0.3,9.3-0.5,12.6-1.4,13.8c-0.5,0.7-1.2,1.1-2,1.1c-1.1,0.1-2.2,0.1-3.3,0
		c-0.1-0.9-0.4-1.7-0.8-2.4c1.3,0.1,2.6,0.1,3.1,0.1c0.3,0,0.7-0.1,0.9-0.4c0.6-0.7,0.9-3.8,1.1-11.2h-4.5c-0.5,1.2-1.1,2.3-1.8,3.3
		c-0.5-0.4-1-0.8-1.6-1.2v9.8h-5.6v1.6h-2.2v-15.5h2.4c0.3-1.1,0.5-2.2,0.6-3.4l2.7,0.4c-0.4,1-0.7,2.1-1.1,3h3.2v3.4
		c1.3-2.1,2.3-4.3,2.8-6.7l2.4,0.5c-0.2,0.9-0.5,1.8-0.8,2.6L497.6,467.4z M485.1,469.7h-3.3v3.4h3.3V469.7z M485.1,479.3v-4.1h-3.3
		v4.1H485.1z M492,478.2c-0.9-1.7-1.8-3.3-2.9-4.8l1.9-1.1c1.1,1.5,2.1,3,3.1,4.6L492,478.2z"/>
	<path class="st1" d="M504.6,471.1c0,3.5-0.3,8.7-2.1,12.1c-0.7-0.5-1.4-0.9-2.2-1.2c1.7-3.1,1.9-7.6,1.9-10.9v-6h17.4v2.2h-15
		L504.6,471.1z M509.6,478.3c-1,1.6-2.2,3.1-3.5,4.5c-0.7-0.5-1.4-0.9-2.1-1.3c1.3-1.1,2.4-2.5,3.3-4L509.6,478.3z M513.3,476.9v4.2
		c0,1.1-0.2,1.7-1,2.1c-1.1,0.3-2.2,0.5-3.3,0.4c-0.1-0.8-0.4-1.5-0.7-2.2c0.9,0,1.9,0,2.2,0s0.4-0.1,0.4-0.3V477H506v-8.1h3.7
		c0.3-0.5,0.5-1,0.6-1.5l3,0.4c-0.2,0.4-0.5,0.8-0.8,1.1h5.6v8.1L513.3,476.9z M508.5,472h7.2v-1.3h-7.2V472z M508.5,475.1h7.2v-1.4
		h-7.2V475.1z M516.3,477.5c1.1,1.2,2.7,3,3.5,4.2l-2.1,1.2c-0.7-1.1-2.3-3-3.4-4.4L516.3,477.5z"/>
	<path class="st1" d="M541.2,464.8v18.8h-2.4v-0.9h-13.1v0.9h-2.3v-18.8H541.2z M538.7,480.7v-13.6h-13.1v13.6H538.7z M533.2,472.8
		c0,0.3-0.1,0.6-0.2,0.9c1.8,1.4,3.5,3,5,4.8l-1.7,1.5c-1.2-1.5-2.5-2.9-3.9-4.1c-0.8,2-2.4,3.6-4.5,4.4c-0.4-0.7-0.9-1.4-1.5-2
		c2.4-0.9,4.1-3,4.3-5.5h-4.2v-2.2h4.4c0.1-0.9,0.1-1.8,0.1-2.7h2.4c0,1-0.1,1.9-0.1,2.7h4.4v2.2L533.2,472.8z"/>
	<line class="st2" x1="433.5" y1="431" x2="565.7" y2="364.2"/>
	<line class="st2" x1="433.5" y1="431" x2="306.8" y2="364.2"/>
	<line class="st2" x1="433.5" y1="431" x2="519.8" y2="264.7"/>
	<line class="st2" x1="433.5" y1="431" x2="347.2" y2="264.7"/>
	<path class="st1" d="M268,76.1c-2,4.1-6.7,5.7-11.6,6.3c-0.1-0.4-0.2-0.7-0.4-1c2.2-0.2,4.5-0.7,6.5-1.6c-0.6-0.6-1.3-1.2-2-1.7
		c-0.7,0.4-1.4,0.7-2.2,1c-0.2-0.3-0.4-0.6-0.7-0.8c2.3-0.8,4.3-2.1,5.8-4l1.1,0.2c-0.3,0.4-0.6,0.7-0.9,1h3.4l0.2-0.1L268,76.1z
		 M265.9,71.2c-1.8,3.1-5.8,5-9.5,5.7c-0.1-0.3-0.3-0.7-0.5-0.9c1.6-0.3,3.2-0.8,4.7-1.5c-0.6-0.6-1.2-1.1-1.9-1.6
		c-0.5,0.3-1.1,0.6-1.6,0.9c-0.2-0.3-0.4-0.5-0.7-0.7c1.9-0.7,3.5-1.9,4.8-3.4l1.1,0.2c-0.3,0.4-0.6,0.7-0.9,1h3.6h0.2L265.9,71.2z
		 M260.4,71.8c-0.3,0.2-0.5,0.4-0.8,0.6c0.7,0.5,1.4,1,2,1.6c1.1-0.6,2-1.3,2.8-2.3H260.4z M262.7,76.7c-0.4,0.4-0.8,0.7-1.3,1
		c0.7,0.5,1.4,1.1,2.1,1.8c1.2-0.6,2.2-1.6,3-2.7L262.7,76.7z"/>
	<path class="st1" d="M282.2,75.3v1.1h-12.7v-1.1H282.2z"/>
	<path class="st1" d="M287.1,70c-0.3,0.9-0.7,1.8-1.1,2.7v9.8h-1v-8c-0.4,0.7-0.9,1.3-1.4,1.8c-0.1-0.4-0.3-0.7-0.5-1.1
		c1.4-1.6,2.4-3.5,3.1-5.6L287.1,70z M295.7,70.5v11.8h-1v-0.7h-6.2v0.8h-1V70.5L295.7,70.5z M294.7,80.7v-9.3h-6.2v9.3L294.7,80.7z
		 M292.1,74.3v1.5h1.6v3.7h-4v-3.8h1.5v-1.5h-2.1v-0.8h2.1v-1.6h0.9v1.6h2.2v0.8L292.1,74.3z M292.9,76.6h-2.4v2.2h2.4L292.9,76.6z"
		/>
	<path class="st1" d="M302.9,76.3c0,0,0,0.3,0,0.4c-0.1,3.4-0.3,4.6-0.6,5c-0.2,0.2-0.5,0.4-0.8,0.4c-0.4,0-0.9,0-1.3,0
		c0-0.3-0.1-0.6-0.3-0.9c0.5,0,1,0.1,1.2,0.1c0.2,0,0.3,0,0.4-0.2c0.2-0.2,0.3-1.3,0.5-3.9H300c-0.1,1.9-0.7,3.7-1.9,5.2
		c-0.2-0.3-0.5-0.5-0.7-0.7c1.4-1.5,1.7-4.1,1.8-6.7h-1.7v-0.9h2.8c-0.2-0.4-0.4-0.9-0.6-1.3l1-0.2c0.3,0.5,0.5,1,0.8,1.5h2.2V75
		h-3.4c0,0.4,0,0.9-0.1,1.3L302.9,76.3z M300.9,71.6h-3.3v-0.9h3.3v-1h1v1h1.6v0.9h-1.6v0.9h-1V71.6z M307.2,72.9
		c-0.1,0.1-0.1,0.3-0.2,0.4c0.9,1.2,2.1,2.4,3.3,3.3c-0.3,0.2-0.5,0.5-0.7,0.7c-1.1-1-2.1-2.1-3-3.3c-0.8,1.3-1.8,2.4-3,3.3
		c-0.2-0.2-0.4-0.5-0.7-0.6c1.5-1,2.6-2.4,3.4-4L307.2,72.9z M304.4,78.9c1.7,0.6,3.4,1.4,4.9,2.4l-0.6,0.8
		c-1.5-1.1-3.1-1.9-4.9-2.5L304.4,78.9z M305.6,71.6H304v-0.9h1.5v-1h1v1h3.3v0.9h-3.3v0.9h-1L305.6,71.6z M305.7,76.3
		c1,0.4,1.9,1,2.7,1.7l-0.6,0.7c-0.8-0.7-1.7-1.3-2.7-1.8L305.7,76.3z"/>
	<path class="st1" d="M314.2,71.5h-2.6v-0.9h2.6v-0.9h1v0.9h2.2v0.9h-2.2v1h-1V71.5z M321.2,74.3c-0.2,0.4-0.5,0.9-0.7,1.3h3.1v2.2
		h-1v-1.3h-4.3v1.2h4v2.8c0,0.5-0.1,0.8-0.5,0.9c-0.7,0.2-1.3,0.2-2,0.2c-0.1-0.3-0.2-0.6-0.3-0.9c0.7,0,1.4,0,1.5,0s0.2,0,0.2-0.2
		v-1.9h-3v3.9h-1v-3.9h-2.9v3.2h-1v-4h3.9v-1.2H313v1.3h-1v-2.2h3.1c-0.2-0.5-0.4-0.9-0.6-1.3l0.9-0.2c0.3,0.5,0.6,1,0.8,1.5h3.2
		c0.3-0.5,0.5-1,0.7-1.6L321.2,74.3z M323.4,74h-11.2v-0.9h5.3c-0.1-0.3-0.3-0.6-0.5-0.9l0.9-0.3c0.2,0.4,0.4,0.8,0.6,1.2h4.9
		L323.4,74z M324,70.6v0.9h-2.7v1h-1v-1h-2.2v-0.9h2.2v-0.9h1v0.9H324z"/>
	<path class="st1" d="M327.5,71.7c-0.4,0.6-0.9,1.3-1.4,1.8c-0.2-0.3-0.5-0.5-0.8-0.7c1-0.9,1.7-2,2.2-3.2l1,0.3
		c-0.1,0.3-0.3,0.6-0.5,0.9h3.6v0.9L327.5,71.7z M329.1,76.7c0.6,0.5,1.9,1.8,2.2,2.1l-0.7,0.8c-0.3-0.4-1-1.2-1.6-1.8v4.7h-1v-4.7
		c-0.6,1.1-1.3,2.2-2.1,3.2c-0.2-0.3-0.4-0.6-0.7-0.8c1.1-1.2,2-2.5,2.6-4h-2.2v-1h2.4v-1.5h1v1.6h2.2v1h-2.2L329.1,76.7z
		 M329.8,73.8c-0.4-0.6-0.9-1.1-1.4-1.5l0.6-0.6c0.5,0.4,1,0.9,1.4,1.5L329.8,73.8z M338,70.8v0.9h-2.7c0.5,0.5,1,1,1.4,1.5
		l-0.7,0.6c-0.5-0.6-1-1.1-1.5-1.7l0.5-0.5h-1.6c-0.4,0.6-0.8,1.2-1.3,1.8c-0.3-0.2-0.6-0.4-0.9-0.6c0.9-0.9,1.6-2,2-3.3l1,0.2
		c-0.1,0.3-0.2,0.7-0.4,1L338,70.8z M331.7,74.1h5.8v8.2h-1v-0.5h-3.7v0.6h-1L331.7,74.1z M332.7,75v1.4h3.7V75L332.7,75z
		 M336.4,78.7v-1.4h-3.7v1.4L336.4,78.7z M336.4,80.9v-1.5h-3.7v1.5L336.4,80.9z"/>
	<path class="st1" d="M341.7,77.7c-0.3,1.2-0.7,2.4-1.4,3.4c-0.2-0.1-0.5-0.4-0.8-0.5c0.6-0.9,1.1-2,1.3-3.1L341.7,77.7z
		 M345.9,72.3h-6.4v-0.9h3c-0.1-0.5-0.4-1.1-0.6-1.5l1-0.2c0.3,0.6,0.5,1.1,0.7,1.7h2.3L345.9,72.3z M343.4,76.8v4.5
		c0,0.5-0.1,0.7-0.4,0.9c-0.5,0.2-1,0.2-1.5,0.2c-0.1-0.3-0.1-0.6-0.3-0.8c0.5,0,1,0,1.1,0s0.2,0,0.2-0.2v-4.5h-2.1v-3.4h5v3.4
		L343.4,76.8z M341.2,75.9h3.1v-1.7h-3.1V75.9z M344.9,80.2c-0.2-0.9-0.6-1.7-1-2.5l0.7-0.3c0.4,0.8,0.8,1.6,1,2.4L344.9,80.2z
		 M348.8,74.2c-0.3,3.2-1,6.3-3.1,8.2c-0.2-0.2-0.5-0.5-0.8-0.6c2-1.8,2.7-4.7,3-7.6h-1.8v-0.9h1.9c0.1-1.2,0.1-2.4,0.1-3.6h1
		c0,1.1,0,2.3-0.1,3.6h3.2v0.9H348.8z M350.8,81.3c0.1,0,0.3,0,0.4-0.1c0.1,0,0.2-0.2,0.2-0.4c0-0.5,0.1-1,0.1-1.5
		c0.2,0.2,0.5,0.3,0.8,0.4c0,0.6,0,1.1-0.1,1.7c-0.1,0.2-0.2,0.4-0.4,0.6c-0.3,0.1-0.5,0.2-0.8,0.1H350c-0.3,0-0.6-0.1-0.9-0.2
		c-0.2-0.2-0.3-0.4-0.3-1.3v-5.3h0.9v5.4c0,0.3,0,0.5,0.1,0.5c0.1,0,0.2,0.1,0.3,0.1L350.8,81.3z M350.9,72.7
		c-0.4-0.8-0.8-1.5-1.4-2.1l0.7-0.4c0.6,0.6,1.1,1.3,1.4,2L350.9,72.7z"/>
	<path class="st1" d="M360.4,81.1c0.5,0.1,1.1,0.1,1.6,0.1c0.5,0,3.4,0,4.1,0c-0.2,0.3-0.3,0.7-0.4,1H362c-2.8,0-4.6-0.4-5.7-2.3
		c-0.5,1-1.3,1.9-2.2,2.6c-0.2-0.3-0.5-0.5-0.8-0.7c1.5-1.1,2.5-2.7,2.7-4.6l1,0.1c-0.1,0.5-0.2,0.9-0.4,1.4c0.5,1.1,1.5,2,2.6,2.2
		v-4.2h-5.7v-0.9h12.3v0.9h-5.5v1.6h4.6v0.9h-4.6L360.4,81.1z M364.4,74.8h-9.3v-4.6h9.3V74.8z M363.4,71h-7.2v1.1h7.2V71z
		 M363.4,72.9h-7.2V74h7.2V72.9z"/>
	<path class="st1" d="M380,76.1c-2,4.1-6.7,5.7-11.6,6.3c-0.1-0.4-0.2-0.7-0.4-1c2.2-0.2,4.5-0.7,6.5-1.6c-0.6-0.6-1.3-1.2-2-1.7
		c-0.7,0.4-1.4,0.7-2.2,1c-0.2-0.3-0.4-0.6-0.7-0.8c2.3-0.8,4.3-2.1,5.8-4l1.1,0.2c-0.3,0.4-0.6,0.7-0.9,1h3.4l0.2-0.1L380,76.1z
		 M377.9,71.2c-1.8,3.1-5.8,5-9.5,5.7c-0.1-0.3-0.3-0.7-0.5-0.9c1.6-0.3,3.2-0.8,4.7-1.5c-0.6-0.6-1.2-1.1-1.9-1.6
		c-0.5,0.3-1.1,0.6-1.6,0.9c-0.2-0.3-0.4-0.5-0.7-0.7c1.9-0.7,3.5-1.9,4.8-3.4l1.1,0.2c-0.3,0.4-0.6,0.7-0.9,1h3.6h0.2L377.9,71.2z
		 M372.4,71.8c-0.3,0.2-0.5,0.4-0.8,0.6c0.7,0.5,1.4,1,2,1.6c1.1-0.6,2-1.3,2.8-2.3H372.4z M374.7,76.7c-0.4,0.4-0.8,0.7-1.3,1
		c0.7,0.5,1.4,1.1,2.1,1.8c1.2-0.6,2.2-1.6,3-2.7L374.7,76.7z"/>
	<path class="st1" d="M394.2,75.3v1.1h-12.7v-1.1H394.2z"/>
	<path class="st1" d="M399.1,70c-0.3,0.9-0.7,1.8-1.1,2.7v9.8h-1v-8c-0.4,0.7-0.9,1.3-1.4,1.8c-0.1-0.4-0.3-0.7-0.5-1.1
		c1.4-1.6,2.4-3.5,3.1-5.6L399.1,70z M407.7,70.5v11.8h-1v-0.7h-6.2v0.8h-1V70.5L407.7,70.5z M406.7,80.7v-9.3h-6.2v9.3L406.7,80.7z
		 M404.1,74.3v1.5h1.6v3.7h-4v-3.8h1.5v-1.5h-2.1v-0.8h2.1v-1.6h0.9v1.6h2.2v0.8L404.1,74.3z M404.9,76.6h-2.4v2.2h2.4L404.9,76.6z"
		/>
	<path class="st1" d="M422,71.7h-1.7v9.3c0,0.8-0.2,1.1-0.7,1.3c-1,0.2-1.9,0.3-2.9,0.2c-0.1-0.4-0.3-0.8-0.5-1.1
		c1.1,0.1,2.3,0,2.6,0s0.4-0.1,0.4-0.4v-9.2h-9.6v-1H422V71.7z M412,78.9V80h-1v-6.3h5.7v5.2L412,78.9z M412,74.7v3.2h3.7v-3.2H412z
		"/>
	<path class="st1" d="M429.1,77c-0.8,1.2-1.7,2.4-2.8,3.4l6.8-0.3c-0.5-0.6-1-1.3-1.5-1.8l0.9-0.4c1.2,1.2,2.2,2.6,3,4.2l-1,0.4
		c-0.2-0.5-0.5-1-0.8-1.5c-7.7,0.4-8.5,0.4-9,0.7c-0.1-0.4-0.2-0.7-0.3-1.1c0.4-0.2,0.7-0.4,1-0.8c0.9-0.9,1.6-1.8,2.3-2.9h-4v-1
		h5.4v-1.8h-4.4v-1h4.4v-1.7h-4.9v-1h11.1v1h-5.1v1.7h4.6v1h-4.6V76h5.6v1H429.1z"/>
	<path class="st1" d="M442.9,76.3c0,0,0,0.3,0,0.4c-0.1,3.4-0.3,4.6-0.6,5c-0.2,0.2-0.5,0.4-0.8,0.4c-0.4,0-0.9,0-1.3,0
		c0-0.3-0.1-0.6-0.3-0.9c0.5,0,1,0.1,1.2,0.1c0.2,0,0.3,0,0.4-0.2c0.2-0.2,0.3-1.3,0.5-3.9H440c-0.1,1.9-0.7,3.7-1.9,5.2
		c-0.2-0.3-0.5-0.5-0.7-0.7c1.4-1.5,1.7-4.1,1.8-6.7h-1.7v-0.9h2.8c-0.2-0.4-0.4-0.9-0.6-1.3l1-0.2c0.3,0.5,0.5,1,0.8,1.5h2.2V75
		h-3.4c0,0.4,0,0.9-0.1,1.3L442.9,76.3z M440.9,71.6h-3.3v-0.9h3.3v-1h1v1h1.6v0.9h-1.6v0.9h-1V71.6z M447.2,72.9
		c-0.1,0.1-0.1,0.3-0.2,0.4c0.9,1.2,2.1,2.4,3.3,3.3c-0.3,0.2-0.5,0.5-0.7,0.7c-1.1-1-2.1-2.1-3-3.3c-0.8,1.3-1.8,2.4-3,3.3
		c-0.2-0.2-0.4-0.5-0.7-0.6c1.5-1,2.6-2.4,3.4-4L447.2,72.9z M444.4,78.9c1.7,0.6,3.4,1.4,4.9,2.4l-0.6,0.8
		c-1.5-1.1-3.1-1.9-4.9-2.5L444.4,78.9z M445.6,71.6H444v-0.9h1.5v-1h1v1h3.3v0.9h-3.3v0.9h-1L445.6,71.6z M445.7,76.3
		c1,0.4,1.9,1,2.7,1.7l-0.6,0.7c-0.8-0.7-1.7-1.3-2.7-1.8L445.7,76.3z"/>
	<path class="st1" d="M454.2,77.9l1.5-0.7l0.2,0.9c-1.5,0.7-3,1.4-4.3,1.9l-0.4-1c0.5-0.2,1.2-0.5,1.9-0.8V74h-1.7v-1h1.7v-3.2h1V73
		h1.5v1h-1.5L454.2,77.9z M462.2,81.2c0.8,0,1-0.4,1-2c0.3,0.2,0.6,0.3,0.9,0.4c-0.2,1.9-0.5,2.5-2,2.5h-3.5c-1.6,0-2.1-0.4-2.1-1.9
		v-4.4l-1.1,0.5l-0.4-0.9l1.5-0.6v-3.8h1v3.4l1.9-0.8v-3.9h1v3.5l2.1-0.9l0.8,0.3l-0.1,0.2c-0.1,2.1-0.4,4.1-0.7,6.1l-0.9-0.2
		c0.3-1.7,0.4-3.4,0.5-5.1l-1.8,0.8v5.1h-1v-4.7l-1.9,0.8v4.8c0,0.8,0.2,0.9,1.1,0.9L462.2,81.2z"/>
	<path class="st1" d="M469.3,69.8c-0.2,0.7-0.5,1.5-0.7,2.1h2.3V81H467v1.1h-1V71.9h1.6c0.2-0.7,0.4-1.5,0.6-2.3L469.3,69.8z
		 M469.9,72.8H467v2.9h2.9L469.9,72.8z M469.9,80v-3.4H467V80L469.9,80z M477.7,72.4c-0.2,6.4-0.4,8.5-1,9.2
		c-0.3,0.4-0.7,0.6-1.1,0.6c-0.7,0-1.4,0-2.1,0c0-0.4-0.2-0.7-0.4-1c0.9,0.1,1.8,0.1,2.1,0.1s0.4,0,0.6-0.2c0.5-0.5,0.7-2.6,0.9-8.2
		h-3.6c-0.3,0.9-0.8,1.7-1.3,2.4c-0.3-0.2-0.6-0.4-0.9-0.6c1-1.5,1.8-3.3,2.1-5.1l1,0.2c-0.2,0.7-0.4,1.3-0.6,2h4.2L477.7,72.4z
		 M474.6,78.7c-0.6-1.1-1.3-2.2-2.1-3.2l0.8-0.5c0.8,1,1.5,2.1,2.2,3.2L474.6,78.7z"/>
	<path class="st1" d="M484.1,78.8c-1.5,0.6-3.2,1.2-4.4,1.7l-0.3-1.1c0.5-0.2,1.2-0.4,1.9-0.7V74h-1.7v-1h1.7v-3.2h1V73h1.5v1h-1.5
		v4.5l1.7-0.6L484.1,78.8z M492.2,80.8v1h-8.6v-1h4.9c0.6-2.3,1-4.6,1.3-6.9l1.1,0.2c-0.4,2.1-0.9,4.9-1.5,6.7L492.2,80.8z
		 M491.8,73.1h-7.6v-1h7.6V73.1z M486.1,80.2c-0.2-2-0.5-4-1-6l0.9-0.2c0.5,1.9,0.8,3.9,1,5.9L486.1,80.2z M487.7,72
		c-0.2-0.7-0.4-1.5-0.7-2.2l1-0.2c0.3,0.7,0.5,1.4,0.7,2.2L487.7,72z"/>
	<path class="st1" d="M497.9,78.2c-1.4,0.7-3,1.4-4.1,1.9l-0.4-1c0.5-0.2,1.2-0.4,1.9-0.7v-4.4h-1.6v-1h1.6v-3.2h1v3.2h1.5v1h-1.5v4
		c0.5-0.2,1-0.4,1.5-0.6L497.9,78.2z M505.6,74.5c-0.4,1.9-1.2,3.6-2.4,5.1c0.9,0.9,1.9,1.6,3.1,2c-0.3,0.3-0.5,0.5-0.7,0.9
		c-1.2-0.5-2.3-1.2-3.1-2.1c-0.9,0.9-1.9,1.6-3.1,2.1c-0.2-0.3-0.4-0.6-0.6-0.8c1.1-0.4,2.2-1.1,3.1-2c-0.9-1.3-1.6-2.7-2-4.2
		c-0.3,2.9-1,5.2-2.4,6.9c-0.3-0.2-0.6-0.5-0.9-0.7c2.1-2.2,2.5-5.7,2.5-10.4h-1.4v-1h5.8l0.2-0.1l0.7,0.1c-0.1,1.1-0.4,2.7-0.6,3.9
		h1h0.2L505.6,74.5z M500.1,71.3c0,1.1-0.1,2.1-0.1,3h2.8c0.2-0.9,0.4-2.1,0.5-3H500.1z M500.8,75.2c0.4,1.3,1,2.5,1.8,3.6
		c0.9-1.1,1.5-2.3,1.9-3.6H500.8z"/>
	<path class="st1" d="M510.3,72.3h1.6v1h-1.6v0.6c0.4,0.5,1.3,1.9,1.5,2.3l-0.6,0.7c-0.2-0.4-0.6-1.1-0.9-1.7v7.2h-1v-6.8
		c-0.4,1.3-0.9,2.6-1.6,3.7c-0.1-0.4-0.3-0.7-0.5-1c1-1.5,1.7-3.2,2.1-5h-1.7v-1h1.8v-2.7h1V72.3z M519.5,81.3c0,0.5-0.1,0.8-0.4,1
		c-0.5,0.2-1.1,0.2-1.6,0.2c-0.1-0.3-0.2-0.6-0.3-0.9c0.5,0,1,0,1.2,0s0.2-0.1,0.2-0.2v-1.9h-2.3v2.9h-1v-2.9h-2.2v3h-1v-8.8h4.3
		c-1-0.5-2-1-3-1.4l0.5-0.7c0.6,0.2,1.2,0.5,1.9,0.8c0.7-0.4,1.4-0.9,2-1.4h-5.5v-0.9h6.3l0.2-0.1l0.7,0.5c-0.8,0.9-1.7,1.6-2.7,2.2
		c0.3,0.2,0.7,0.4,1,0.6l-0.2,0.3h2L519.5,81.3z M513.1,74.6v1.5h2.2v-1.5L513.1,74.6z M515.3,78.5V77h-2.2v1.5L515.3,78.5z
		 M518.6,74.6h-2.3v1.5h2.3V74.6z M518.6,78.5V77h-2.3v1.5L518.6,78.5z"/>
	<path class="st1" d="M526.3,78c1-0.3,1.6-1.1,1.8-2.1h-0.2c-0.6,0-1-0.4-1-0.9c0,0,0,0,0-0.1c0-0.6,0.4-1,1-1c0,0,0,0,0.1,0
		c0.8,0,1.2,0.6,1.2,1.6c0,1.5-1,2.8-2.4,3.2L526.3,78z"/>
	<path class="st1" d="M542.2,71.4c-0.2,0.7-0.4,1.4-0.6,2h5.7v7.7c0,0.6-0.1,0.9-0.5,1.1c-0.7,0.2-1.4,0.2-2.1,0.2
		c-0.1-0.3-0.2-0.7-0.4-1c0.8,0,1.5,0,1.7,0s0.3-0.1,0.3-0.3v-6.6h-2.4V82h-1v-7.6h-2.3V82h-1v-7.6h-2.2v8h-1v-9h4.2
		c0.2-0.6,0.4-1.4,0.5-2h-5.4v-1H548v1L542.2,71.4z"/>
	<path class="st1" d="M562,80.8v1h-12.4v-1h2.2V70.4h8.2v10.4H562z M552.8,71.5v2.4h6.1v-2.4L552.8,71.5z M558.9,74.9h-6.1v2.5h6.1
		V74.9z M552.8,80.9h6.1v-2.5h-6.1V80.9z"/>
	<path class="st1" d="M566.1,73.2c-0.5,1.2-1.2,2.3-2,3.4c-0.2-0.2-0.5-0.4-0.7-0.6c0.8-0.9,1.4-1.9,1.9-3L566.1,73.2z M568.5,81
		c-0.4-0.7-0.9-1.4-1.4-2.1c-0.8,1.3-1.8,2.3-3,3.2c-0.2-0.3-0.5-0.5-0.7-0.8c1.3-0.8,2.3-1.9,3-3.2c-0.5-0.6-1.1-1.3-1.7-1.8
		l0.8-0.6c0.5,0.4,0.9,0.9,1.4,1.4c0.3-0.6,0.5-1.3,0.7-2l1,0.2c-0.2,0.9-0.6,1.7-1,2.6c0.6,0.7,1.2,1.5,1.7,2.4L568.5,81z
		 M570,72.6h-6.3v-1h3c-0.3-0.6-0.6-1.2-1-1.7l0.8-0.3c0.4,0.5,0.8,1.1,1.1,1.7l-0.8,0.3h3.1V72.6z M569,75.8
		c-0.4-0.9-0.9-1.7-1.5-2.4l0.8-0.4c0.6,0.7,1.2,1.5,1.6,2.4L569,75.8z M575.3,73.1c-0.2,2-0.8,4-1.8,5.8c0.7,1.1,1.6,2,2.8,2.7
		c-0.3,0.2-0.5,0.5-0.7,0.8c-1.1-0.6-2-1.5-2.7-2.6c-0.9,1.1-2,2-3.2,2.7c-0.2-0.3-0.5-0.5-0.7-0.8c1.4-0.6,2.5-1.6,3.4-2.8
		c-0.6-1.1-1-2.2-1.3-3.4c-0.2,0.4-0.5,0.9-0.8,1.3c-0.2-0.3-0.4-0.5-0.7-0.8c1.2-1.9,2-4.1,2.2-6.4l1,0.1c-0.2,0.8-0.3,1.6-0.5,2.4
		h3.8v1L575.3,73.1z M572,73.1c-0.1,0.3-0.2,0.7-0.3,1c0.3,1.3,0.7,2.6,1.3,3.8c0.7-1.5,1.2-3.1,1.4-4.8L572,73.1z"/>
	<path class="st1" d="M585.2,78c1.5,1.3,3.2,2.4,5.1,3c-0.3,0.3-0.5,0.6-0.7,0.9c-2-0.8-3.7-2-5.2-3.6v4.1h-1.1v-4
		c-1.5,1.6-3.3,2.8-5.3,3.5c-0.2-0.3-0.4-0.6-0.7-0.8c1.9-0.6,3.6-1.7,5-3.1h-4.7v-1h5.6v-1.2H579v-5.5h9.6v5.5h-4.3V77h5.6v1H585.2
		z M580.1,72.7h3.2v-1.5h-3.2L580.1,72.7z M583.3,75v-1.5h-3.2v1.4L583.3,75z M587.5,71.2h-3.2v1.4h3.2V71.2z M587.5,73.5h-3.2V75
		h3.2V73.5z"/>
	<path class="st1" d="M597.5,79.6c0,0.3,0,0.7,0.1,1c-4,1.1-4.5,1.2-4.9,1.5c-0.1-0.3-0.3-0.6-0.5-0.9c0.3-0.2,0.6-0.6,0.5-1.1V69.6
		h1.1v4.3h3.6v1h-3.6v5.5L597.5,79.6z M602.4,81.1c0.7,0,0.7-0.5,0.8-2.5c0.3,0.2,0.6,0.4,1,0.4c-0.1,2.3-0.4,3.1-1.7,3.1h-2.3
		c-1.4,0-1.7-0.4-1.7-1.9V69.6h1v4.3h3.8v1h-3.8v5.3c0,0.8,0.1,0.9,0.8,0.9L602.4,81.1z"/>
	<path class="st1" d="M260.1,99.8c-1.5,0.6-3.2,1.2-4.4,1.7l-0.3-1.1c0.5-0.2,1.2-0.4,1.9-0.7V95h-1.7v-1h1.7v-3.2h1V94h1.5v1h-1.5
		v4.5l1.7-0.6L260.1,99.8z M268.2,101.8v1h-8.6v-1h4.9c0.6-2.3,1-4.6,1.3-6.9l1.1,0.2c-0.4,2.1-0.9,4.9-1.5,6.7L268.2,101.8z
		 M267.8,94.1h-7.6v-1h7.6V94.1z M262.1,101.2c-0.2-2-0.5-4-1-6l0.9-0.2c0.5,1.9,0.8,3.9,1,5.9L262.1,101.2z M263.7,93
		c-0.2-0.7-0.4-1.5-0.7-2.2l1-0.2c0.3,0.7,0.5,1.4,0.7,2.2L263.7,93z"/>
	<path class="st1" d="M273.9,99.2c-1.4,0.7-3,1.4-4.1,1.9l-0.4-1c0.5-0.2,1.2-0.4,1.9-0.7v-4.4h-1.6v-1h1.6v-3.2h1v3.2h1.5v1h-1.5v4
		c0.5-0.2,1-0.4,1.5-0.6L273.9,99.2z M281.6,95.5c-0.4,1.9-1.2,3.6-2.4,5.1c0.9,0.9,1.9,1.6,3.1,2c-0.3,0.3-0.5,0.5-0.7,0.9
		c-1.2-0.5-2.3-1.2-3.1-2.1c-0.9,0.9-1.9,1.6-3.1,2.1c-0.2-0.3-0.4-0.6-0.6-0.8c1.1-0.4,2.2-1.1,3.1-2c-0.9-1.3-1.6-2.7-2-4.2
		c-0.3,2.9-1,5.2-2.4,6.9c-0.3-0.2-0.6-0.5-0.9-0.7c2.1-2.2,2.5-5.7,2.5-10.4h-1.4v-1h5.8l0.2-0.1l0.7,0.1c-0.1,1.1-0.4,2.7-0.6,3.9
		h1h0.2L281.6,95.5z M276.1,92.3c0,1.1-0.1,2.1-0.1,3h2.8c0.2-0.9,0.4-2.1,0.5-3H276.1z M276.8,96.2c0.4,1.3,1,2.5,1.8,3.6
		c0.9-1.1,1.5-2.3,1.9-3.6H276.8z"/>
	<path class="st1" d="M286.3,93.3h1.6v1h-1.6v0.6c0.4,0.5,1.3,1.9,1.5,2.3l-0.6,0.7c-0.2-0.4-0.6-1.1-0.9-1.7v7.2h-1v-6.8
		c-0.4,1.3-0.9,2.6-1.6,3.7c-0.1-0.4-0.3-0.7-0.5-1c1-1.5,1.7-3.2,2.1-5h-1.7v-1h1.8v-2.7h1V93.3z M295.5,102.3c0,0.5-0.1,0.8-0.4,1
		c-0.5,0.2-1.1,0.2-1.6,0.2c-0.1-0.3-0.2-0.6-0.3-0.9c0.5,0,1,0,1.2,0s0.2-0.1,0.2-0.2v-1.8h-2.3v2.9h-1v-2.9h-2.2v3h-1v-8.8h4.3
		c-1-0.5-2-1-3-1.4l0.5-0.7c0.6,0.2,1.2,0.5,1.9,0.8c0.7-0.4,1.4-0.9,2-1.4h-5.4v-0.9h6.4l0.2-0.1l0.7,0.5c-0.8,0.9-1.7,1.6-2.7,2.2
		c0.3,0.2,0.7,0.4,1,0.6l-0.1,0.3h2L295.5,102.3z M289.1,95.6v1.5h2.2v-1.5L289.1,95.6z M291.3,99.5V98h-2.2v1.5L291.3,99.5z
		 M294.6,95.6h-2.3v1.5h2.3V95.6z M294.6,99.5V98h-2.3v1.5L294.6,99.5z"/>
	<path class="st1" d="M307.1,99.5c-0.5,0.8-1.1,1.4-1.8,1.9c1.5,0.3,3,0.7,4.4,1.2l-0.9,0.7c-1.5-0.5-3-1-4.6-1.3
		c-2,0.8-4.1,1.3-6.2,1.4c-0.1-0.3-0.2-0.6-0.4-0.9c1.7-0.1,3.4-0.3,5.1-0.8c-1-0.2-2.1-0.4-3.2-0.6c0.5-0.5,0.9-1.1,1.3-1.6h-3
		v-0.9h3.6c0.3-0.5,0.6-1,0.8-1.5l1,0.2c-0.2,0.4-0.4,0.8-0.7,1.2h4.1c0.1-0.3,0.3-0.5,0.4-0.8l1,0.3c-0.1,0.2-0.1,0.4-0.2,0.5h2.4
		v0.9L307.1,99.5z M301.6,92.2h-3.8v-0.9h12v0.9h-3.9v1.2h3.4V97h-10.7v-3.6h3.1L301.6,92.2z M299.5,96.1h2.1v-1.9h-2.1V96.1z
		 M301.8,99.5c-0.3,0.4-0.5,0.8-0.8,1.1c1,0.2,2,0.4,3,0.6c0.8-0.4,1.4-1,1.9-1.6H301.8z M304.8,92.2h-2.3v1.2h2.3V92.2z
		 M302.6,96.1h2.3v-1.9h-2.3V96.1z M305.8,94.2v1.9h2.3v-1.9L305.8,94.2z"/>
	<path class="st1" d="M316.5,94.6c0,1.8-0.4,3.6-1.2,5.3c0.6,0.5,1.2,1.1,1.8,1.7l-0.7,0.9c-0.5-0.6-1-1.1-1.6-1.7
		c-0.7,1-1.6,2-2.6,2.7c-0.2-0.3-0.5-0.5-0.7-0.7c1-0.7,1.9-1.6,2.6-2.7c-0.7-0.7-1.5-1.3-2.2-1.8c0.3-0.9,0.6-2.2,0.9-3.5l-1.1,0.1
		l-0.1-1l1.4-0.1c0.2-1.1,0.4-2.2,0.5-3.1l1,0.1c-0.1,0.9-0.3,2-0.5,3l1.7-0.1v-1h1v1h0.8v1L316.5,94.6z M313.6,94.7
		c-0.2,1.1-0.5,2.2-0.7,3.2c0.5,0.4,1.1,0.8,1.6,1.3c0.7-1.4,1-3,1-4.6L313.6,94.7z M324.2,97.5h-3.1v4.7c0,0.6-0.1,0.9-0.6,1.1
		c-0.7,0.2-1.5,0.2-2.2,0.2c-0.1-0.3-0.2-0.7-0.4-1c0.8,0,1.6,0,1.8,0s0.3-0.1,0.3-0.3v-4.6h-3.2v-1h3.2v-1.6c0.8-0.7,1.4-1.5,2-2.3
		h-4.7v-1h5.4l0.2-0.1l0.7,0.5c-0.8,1.1-1.6,2.2-2.7,3.1v1.3h3.1L324.2,97.5z"/>
	<path class="st1" d="M330.3,103c1-0.3,1.7-1.3,1.8-2.3c-0.1,0-0.2,0-0.2,0c-0.6,0-1-0.4-1-0.9c0,0,0,0,0-0.1c0-0.6,0.4-1,1-1
		c0,0,0,0,0.1,0c0.8,0,1.2,0.7,1.2,1.7c0,1.5-1,2.9-2.4,3.4L330.3,103z M330.7,93.6c0-0.6,0.4-1,0.9-1.1c0,0,0.1,0,0.1,0
		c0.6,0,1.1,0.5,1.1,1c0,0.6-0.5,1.1-1,1.1c0,0,0,0,0,0c-0.6,0-1-0.4-1.1-0.9C330.7,93.7,330.7,93.7,330.7,93.6L330.7,93.6z"/>
	<path class="st1" d="M351,96.8c-0.6,1.2-1.5,2.3-2.4,3.3c0.5,1.5,1.2,2.4,1.9,2.4c0.4,0,0.5-0.7,0.6-2.5c0.3,0.2,0.6,0.4,0.9,0.6
		c-0.2,2.3-0.6,3-1.6,3s-2-1-2.6-2.6c-0.9,0.8-1.9,1.5-3,2.1c-0.2-0.3-0.4-0.6-0.7-0.8c1.2-0.6,2.3-1.4,3.3-2.3
		c-0.4-1.3-0.6-2.7-0.8-4.1h-3.3V98l2.5-0.6l0.1,0.9c-0.9,0.2-1.7,0.4-2.6,0.6v3.1c0,0.7-0.2,1-0.6,1.2c-0.8,0.2-1.5,0.3-2.3,0.2
		c-0.1-0.3-0.2-0.7-0.4-1c0.9,0,1.7,0,2,0s0.3-0.1,0.3-0.3v-2.9l-2.9,0.6l-0.4-1c0.8-0.1,2-0.4,3.2-0.6v-2.5h-3v-1h3v-2.2
		c-0.9,0.2-1.8,0.3-2.6,0.4c-0.1-0.3-0.2-0.6-0.3-0.9c1.9-0.3,3.7-0.7,5.5-1.3l0.7,0.8c-0.8,0.3-1.5,0.5-2.3,0.6v2.4h3.2
		c-0.1-1.3-0.2-2.6-0.2-4h1.1c0,1.4,0.1,2.8,0.2,4h4.1v1h-4c0.1,1.1,0.3,2.1,0.6,3.2c0.7-0.8,1.4-1.6,1.9-2.5L351,96.8z M350.5,93.9
		c-0.6-0.9-1.4-1.7-2.2-2.4L349,91c0.8,0.7,1.6,1.5,2.2,2.3L350.5,93.9z"/>
	<path class="st1" d="M356.7,91c-0.3,0.9-0.7,1.8-1.1,2.7v9.7h-1v-7.9c-0.4,0.7-0.8,1.3-1.3,1.9c-0.2-0.4-0.3-0.7-0.5-1.1
		c1.4-1.7,2.4-3.6,3-5.7L356.7,91z M360.7,96.5h-2.8v6.9h-1v-12h3.7L360.7,96.5z M357.9,92.3v1.3h2v-1.3L357.9,92.3z M359.9,95.7
		v-1.4h-2v1.4L359.9,95.7z M365.4,102.1c0,0.7-0.1,1-0.6,1.2c-0.9,0.2-1.7,0.2-2.6,0.2c-0.1-0.3-0.2-0.7-0.4-1c1,0,2,0,2.2,0
		s0.4-0.1,0.4-0.4v-5.6h-2.9v-5.1h3.9V102.1z M362.4,92.3v1.3h2.1v-1.3L362.4,92.3z M364.5,95.7v-1.4h-2.1v1.4L364.5,95.7z"/>
	<path class="st1" d="M377,102.2c1.3,0,1.5-0.5,1.7-2.5c0.3,0.2,0.6,0.3,1,0.4c-0.2,2.3-0.6,3-2.7,3h-4.9c-2.1,0-2.7-0.4-2.7-2.2
		v-4.4l-2.3,0.7l-0.3-0.9l2.6-0.8v-4h1v3.7l2.9-0.9v-3.7h1V94l3.2-1l0.3-0.2l0.8,0.2v0.2c-0.1,2-0.3,4-0.5,6l-0.9-0.2
		c0.2-1.3,0.3-3.3,0.4-5l-3.2,1v5.4h-1v-5l-2.9,0.9v4.7c0,1,0.3,1.2,1.6,1.2L377,102.2z"/>
	<path class="st1" d="M393.5,92.8v1h-7.6c-0.5,1-1,2-1.7,2.9v6.7h-1v-5.5c-0.5,0.5-1,1-1.6,1.4c-0.1-0.3-0.3-0.6-0.5-0.9
		c1.6-1.2,2.9-2.8,3.7-4.6h-3.4v-1h3.8c0.3-0.7,0.5-1.4,0.7-2.2l1.1,0.3c-0.2,0.6-0.4,1.3-0.7,1.9L393.5,92.8z M389.8,102.1h3.7v1
		h-8.4v-1h3.7v-3.9h-3.1v-1h3.1v-2.7h1v2.7h3.2v1h-3.1L389.8,102.1z"/>
	<path class="st1" d="M400.5,97.3c0,0,0,0.3,0,0.4c-0.1,3.4-0.3,4.6-0.6,5c-0.2,0.2-0.5,0.4-0.8,0.4c-0.4,0-0.9,0-1.3,0
		c0-0.3-0.1-0.6-0.3-0.9c0.5,0,1,0.1,1.2,0.1c0.2,0,0.3,0,0.4-0.2c0.2-0.2,0.3-1.3,0.5-3.9h-1.9c-0.1,1.9-0.7,3.7-1.9,5.2
		c-0.2-0.3-0.5-0.5-0.7-0.7c1.4-1.5,1.7-4.1,1.8-6.7h-1.7v-0.9h2.8c-0.2-0.4-0.4-0.9-0.6-1.3l1-0.2c0.3,0.5,0.5,1,0.7,1.5h2.2V96
		h-3.4c0,0.4,0,0.9-0.1,1.3L400.5,97.3z M398.5,92.6h-3.3v-0.9h3.3v-1h1v1h1.6v0.9h-1.6v0.9h-1V92.6z M404.8,93.9
		c-0.1,0.1-0.1,0.3-0.2,0.4c1,1.3,2.1,2.4,3.4,3.3c-0.3,0.2-0.5,0.5-0.7,0.7c-1.1-1-2.2-2.1-3-3.3c-0.8,1.3-1.8,2.4-3,3.3
		c-0.2-0.2-0.4-0.5-0.7-0.6c1.5-1,2.6-2.4,3.4-4L404.8,93.9z M402,99.9c1.7,0.6,3.4,1.4,4.9,2.4l-0.6,0.8c-1.5-1.1-3.1-1.9-4.9-2.5
		L402,99.9z M403.2,92.6h-1.5v-0.9h1.5v-1h1v1h3.3v0.9h-3.3v0.9h-1V92.6z M403.4,97.3c1,0.4,1.9,1,2.7,1.7l-0.6,0.7
		c-0.8-0.7-1.7-1.3-2.7-1.8L403.4,97.3z"/>
	<path class="st1" d="M411.9,92.5h-2.6v-0.9h2.6v-0.9h1v0.9h2.2v0.9h-2.2v1h-1L411.9,92.5z M418.8,95.3c-0.2,0.4-0.5,0.9-0.7,1.3
		h3.1v2.2h-1v-1.3h-4.3v1.2h4v2.8c0,0.5-0.1,0.8-0.5,0.9c-0.7,0.2-1.3,0.2-2,0.2c-0.1-0.3-0.2-0.6-0.3-0.9c0.7,0,1.4,0,1.5,0
		s0.2,0,0.2-0.2v-1.9h-3v3.9h-1v-3.9H412v3.2h-1v-4h3.9v-1.2h-4.3v1.3h-1v-2.2h3.1c-0.2-0.5-0.4-0.9-0.6-1.3L413,95
		c0.3,0.5,0.6,1,0.8,1.5h3.2c0.3-0.5,0.5-1,0.7-1.6L418.8,95.3z M421,95h-11.2v-0.9h5.3c-0.1-0.3-0.3-0.6-0.5-0.9l0.9-0.3
		c0.2,0.4,0.4,0.8,0.6,1.2h4.9V95z M421.6,91.5v0.9h-2.7v1h-1v-1h-2.2v-0.9h2.2v-0.9h1v0.9H421.6z"/>
	<path class="st1" d="M425.1,92.7c-0.4,0.6-0.9,1.3-1.4,1.8c-0.2-0.3-0.5-0.5-0.8-0.7c1-0.9,1.7-2,2.2-3.2l1,0.3
		c-0.1,0.3-0.3,0.6-0.5,0.9h3.6v0.9L425.1,92.7z M426.7,97.7c0.6,0.5,1.9,1.8,2.2,2.1l-0.7,0.8c-0.3-0.4-1-1.2-1.6-1.8v4.7h-1v-4.7
		c-0.6,1.1-1.3,2.2-2.1,3.2c-0.2-0.3-0.4-0.6-0.7-0.8c1.1-1.2,2-2.5,2.6-4h-2.2v-1h2.4v-1.5h1v1.6h2.2v1h-2.2L426.7,97.7z
		 M427.4,94.8c-0.4-0.6-0.9-1.1-1.4-1.5l0.6-0.6c0.5,0.4,1,0.9,1.4,1.5L427.4,94.8z M435.7,91.8v0.9H433c0.5,0.5,1,1,1.4,1.5
		l-0.7,0.6c-0.5-0.6-1-1.1-1.5-1.7l0.5-0.5h-1.6c-0.4,0.6-0.8,1.2-1.3,1.8c-0.3-0.2-0.6-0.4-0.9-0.6c0.9-0.9,1.6-2,2-3.3l1,0.2
		c-0.1,0.3-0.2,0.7-0.4,1L435.7,91.8z M429.4,95.1h5.8v8.2h-1v-0.5h-3.7v0.6h-1L429.4,95.1z M430.4,96.1v1.4h3.7V96L430.4,96.1z
		 M434.1,99.7v-1.5h-3.7v1.4L434.1,99.7z M434.1,102v-1.5h-3.7v1.5H434.1z"/>
	<path class="st1" d="M449.7,101.7v1h-12.5v-1h5.2V90.8h1.1v4.3h5.2v1h-5.2v5.6L449.7,101.7z"/>
	<path class="st1" d="M455.5,91.6c-0.4,1.2-0.9,2.6-1.3,3.8c0.7,0.9,1.2,2,1.2,3.1c0.1,0.6-0.1,1.2-0.5,1.7
		c-0.2,0.2-0.4,0.3-0.7,0.3c-0.3,0-0.6,0-0.9,0c0-0.3-0.1-0.6-0.2-0.9c0.2,0,0.5,0,0.7,0c0.1,0,0.3-0.1,0.4-0.1
		c0.2-0.3,0.3-0.6,0.3-1c0-1.1-0.4-2.1-1.1-2.9c0.4-1,0.7-2.3,1-3.3h-1.7v11.3h-0.9V91.2h3h0.1L455.5,91.6z M458.6,90.9
		c-0.3,1-0.7,1.9-1.1,2.9v9.6h-0.9v-7.9c-0.3,0.5-0.6,0.9-1,1.4c-0.2-0.3-0.4-0.6-0.7-0.8c1.3-1.6,2.2-3.4,2.8-5.3L458.6,90.9z
		 M463.9,94.8h-1.2v7.3c0,0.6-0.1,0.9-0.5,1.1c-0.6,0.2-1.3,0.3-2,0.2c-0.1-0.3-0.2-0.7-0.3-1h1.6c0.2,0,0.3-0.1,0.3-0.3v-7.3h-3.5
		v-1h3.5v-3h1v3h1.2L463.9,94.8z M459.9,99.7c-0.4-1.1-0.9-2.2-1.4-3.2l0.8-0.3c0.6,1,1.1,2,1.5,3.1L459.9,99.7z"/>
	<path class="st1" d="M470,93.4c-0.3,0.6-0.5,1.1-0.9,1.6h6.8v7.1c0,0.6-0.1,0.9-0.6,1.1c-0.8,0.2-1.6,0.2-2.4,0.2
		c-0.1-0.3-0.2-0.7-0.4-1c0.9,0,1.8,0,2,0s0.3-0.1,0.3-0.3v-1.5h-6c-0.2,1.1-0.7,2.1-1.4,2.8c-0.2-0.3-0.4-0.6-0.7-0.8
		c1-1.1,1.4-2.5,1.3-4v-2c-0.7,0.8-1.4,1.5-2.3,2.1c-0.2-0.3-0.4-0.6-0.7-0.8c1.6-1.2,2.9-2.7,3.8-4.6h-3.5v-1h3.9
		c0.2-0.6,0.4-1.2,0.6-1.8l1,0.2c-0.2,0.5-0.3,1-0.5,1.6h7.1v1L470,93.4z M474.9,99.8v-1.4H469v0.4c0,0.3,0,0.7,0,1L474.9,99.8z
		 M474.9,96H469v1.4h5.8L474.9,96z"/>
	<path class="st1" d="M482.5,97.3c-0.3,1.2-0.6,2.5-1.1,3.6c0.3,0.2,0.6,0.4,1.1,0.7c1.2,0.6,2.6,0.8,3.9,0.7c1.8,0,4.1-0.1,5.6-0.3
		c-0.2,0.3-0.3,0.7-0.3,1.1c-1,0.1-3.7,0.2-5.4,0.2c-1.4,0.1-2.8-0.1-4.1-0.8c-0.6-0.3-1.1-0.8-1.4-0.8s-0.8,0.9-1.2,1.8l-0.7-0.9
		c0.4-0.6,0.9-1.1,1.4-1.6c0.5-0.9,0.8-1.9,1-2.9h-1.8c0.4-0.8,0.8-2,1.2-3.1h-1.5v-1h2.9c-0.4,1-0.8,2.2-1.1,3.2h1h0.2L482.5,97.3z
		 M480.6,93.3c-0.2-0.6-0.5-1.6-0.7-2.3l0.9-0.3c0.2,0.7,0.6,1.6,0.7,2.3L480.6,93.3z M486.4,100.2h-3.8v-0.9h3.8v-1h-3.1v-4.5h3.1
		v-1.1h-3.8v-0.9h3.8v-1.2h1v1.2h4v0.9h-4v1.1h3.2v4.5h-3.2v1h4.2v0.9h-4.2v1.7h-1V100.2z M484.3,95.7h2.1v-1.1h-2.1V95.7z
		 M486.4,97.6v-1.2h-2.1v1.1L486.4,97.6z M487.4,94.6v1.1h2.2v-1.1L487.4,94.6z M489.7,96.4h-2.2v1.1h2.2V96.4z"/>
	<path class="st1" d="M497.3,95.9c0.4,0.9,0.7,1.9,0.9,2.9l-0.8,0.3c0-0.2-0.1-0.5-0.2-0.8c-3.2,0.5-3.6,0.6-3.9,0.7
		c-0.1-0.3-0.2-0.7-0.3-1c0.3-0.1,0.6-0.4,1-0.9c0.2-0.2,0.7-0.8,1.2-1.6c-0.7,0-1.3,0.1-2,0.3c-0.1-0.3-0.2-0.6-0.3-0.9
		c0.2-0.1,0.5-0.3,0.8-0.8c0.8-1.1,1.4-2.3,1.9-3.6l0.9,0.4c-0.6,1.3-1.4,2.6-2.2,3.7l1.5-0.1c0.4-0.6,0.7-1.2,1-1.8l0.9,0.5
		c-0.9,1.6-2,3.1-3.2,4.4l2.4-0.3c-0.1-0.4-0.3-0.9-0.5-1.3L497.3,95.9z M494.5,99.7c-0.1,1.2-0.4,2.3-0.7,3.5
		c-0.2-0.1-0.6-0.2-0.8-0.3c0.4-1.1,0.6-2.2,0.7-3.3L494.5,99.7z M496,99.5c0.2,1,0.3,2.1,0.4,3.2l-0.8,0.2c0-0.9-0.2-2.2-0.4-3.2
		L496,99.5z M497.3,99.2c0.3,0.9,0.6,1.8,0.8,2.7l-0.8,0.3c-0.2-0.9-0.5-1.9-0.8-2.8L497.3,99.2z M502.3,93.5v2.2h2.9v1h-6.6v-1h2.6
		v-2.2h-3.1v-1h3.1v-1.8h1v1.9h3.3v1L502.3,93.5z M499,98.1h5.9v5.3h-1v-0.5H500v0.6h-1V98.1z M500,99.1v2.8h3.9V99L500,99.1z"/>
	<path class="st1" d="M511.5,101l2.9-0.6l0.1,0.9l-7,1.3l-0.2-1l3.2-0.6v-2.3h-2.7v-0.9h2.7v-1.5h1v1.5h2.8v0.9h-2.8L511.5,101z
		 M507.5,91.5h7.2v0.9h-3.8c-0.5,0.9-1,1.8-1.6,2.6l3.6-0.3c-0.3-0.5-0.7-1-1-1.4l0.7-0.4c0.8,0.9,1.5,1.9,2.1,3l-0.8,0.5
		c-0.1-0.3-0.3-0.6-0.5-0.9c-4.4,0.4-4.9,0.5-5.2,0.6c-0.1-0.3-0.2-0.7-0.4-1c0.2,0,0.4-0.3,0.7-0.6c0.5-0.7,0.9-1.4,1.2-2.1h-2.2
		L507.5,91.5z M516.4,100.2h-1v-8.4h1V100.2z M519.1,90.8v10.9c0,0.7-0.2,1-0.6,1.1c-0.7,0.2-1.4,0.2-2.2,0.2
		c-0.1-0.3-0.2-0.7-0.4-1c0.8,0,1.6,0,1.8,0s0.3-0.1,0.3-0.3V90.9L519.1,90.8z"/>
	<path class="st1" d="M524.5,95.8c0.5,0.5,1.8,2,2.1,2.3l-0.6,0.8c-0.4-0.7-0.9-1.4-1.4-2v6.4h-1v-6.7c-0.4,1.5-1.1,2.9-2,4.1
		c-0.1-0.4-0.3-0.7-0.5-1c1.2-1.6,2-3.4,2.5-5.3h-2.1v-1h2.3v-3h1v3h2v1h-2L524.5,95.8z M533.3,91.4v11.8h-1v-0.8h-4.2v0.8h-1V91.4
		H533.3z M528,92.4v2.3h4.2v-2.4L528,92.4z M528,98.1h4.2v-2.4H528V98.1z M532.3,101.5v-2.4H528v2.4L532.3,101.5z"/>
	<path class="st1" d="M540.5,97.7c0.3,0.5,0.5,1,0.8,1.5l-0.5,0.2h0.1v1.2c0.1,1.3-0.8,2.4-2,2.6c-0.1-0.2-0.3-0.4-0.5-0.6
		c0.6-0.1,1.2-0.5,1.5-1.1h-1.9v-2h0.7v1.4h1.3c0-0.1,0-0.2,0-0.3v-1.3h0.5c0-0.1-0.1-0.3-0.2-0.4c-0.9,0-1.9,0.2-2.8,0.3
		c0-0.2-0.1-0.5-0.2-0.7c0.3-0.1,0.5-0.2,0.8-0.4c0.3-0.2,0.6-0.5,0.8-0.7c-0.4,0-0.9,0.1-1.3,0.2c-0.1-0.2-0.1-0.5-0.2-0.7
		c0.2,0,0.3-0.1,0.5-0.2c0.4-0.4,0.7-0.8,1-1.3h-2.4v7.9h-1V91.2h5.1v4.3h-1.5l0.5,0.2c-0.3,0.5-0.7,0.9-1.1,1.2h1
		c0.2-0.2,0.4-0.5,0.6-0.7l0.6,0.4c-0.7,0.7-1.4,1.3-2.1,1.9l1.4-0.1c-0.1-0.2-0.2-0.4-0.3-0.6L540.5,97.7z M536.7,92v1h3.1v-1
		H536.7z M536.7,94.8h3.1v-1h-3.1V94.8z M547.2,102.1c0,0.6-0.1,0.9-0.5,1.1c-0.6,0.2-1.2,0.3-1.8,0.2c-0.1-0.3-0.2-0.7-0.3-1
		c0.6,0,1.2,0,1.4,0s0.2-0.1,0.2-0.2v-6.6h-3.2l0.5,0.3c-0.3,0.4-0.7,0.9-1.1,1.2l1-0.1c0.2-0.2,0.4-0.5,0.6-0.7l0.6,0.4
		c-0.6,0.7-1.3,1.4-2.1,1.9l1.4-0.1c-0.1-0.2-0.2-0.4-0.3-0.6l0.5-0.2c0.3,0.5,0.6,1,0.8,1.5l-0.6,0.2c-0.1-0.2-0.1-0.3-0.2-0.5
		c-0.9,0-1.8,0.1-2.7,0.4c-0.1-0.2-0.1-0.5-0.2-0.7c0.3-0.1,0.5-0.2,0.7-0.4c0.2-0.1,0.5-0.4,0.8-0.7c-0.4,0-0.9,0-1.3,0.2
		c-0.1-0.2-0.1-0.5-0.2-0.7c0.2,0,0.3-0.1,0.5-0.2c0.4-0.4,0.7-0.8,1-1.3H542v-4.2h5.2L547.2,102.1z M544,102.1v-0.4h-1.3v1.6h-0.8
		v-3.8h0.8v1.5h1.4v-1.3h0.7v2.4L544,102.1z M543,92v1h3.2v-1H543z M546.2,94.8v-1H543v1H546.2z"/>
	<path class="st1" d="M553,95.8c0,0.1,0,0.3,0,0.5h2.6v1h-2.7c0,0.3-0.1,0.6-0.1,0.9c0.7,0.7,2.3,2.6,2.8,3l-0.7,0.9
		c-0.5-0.7-1.6-2-2.3-2.9c-0.5,1.7-1.5,3.1-2.9,4.1c-0.2-0.3-0.4-0.6-0.7-0.8c1.8-1.2,2.9-3.2,3-5.4h-2.8v-1h2.9v-2.7h-1.1
		c-0.3,0.8-0.7,1.5-1.1,2.2c-0.3-0.2-0.5-0.4-0.8-0.6c0.9-1.3,1.5-2.9,1.7-4.4l1,0.2c-0.1,0.6-0.3,1.1-0.4,1.7h4v1H553V95.8z
		 M561.1,91.8v11h-1v-1h-3v1.2h-1V91.8H561.1z M560.1,100.9v-8.1h-3v8.1L560.1,100.9z"/>
	<path class="st1" d="M563.2,93h3.9v0.8h-3.9V93z M566.8,102.6h-2.3v0.7h-0.8v-4.7h3.1L566.8,102.6z M563.7,94.8h3.1v0.8h-3.1V94.8z
		 M563.7,96.7h3.1v0.8h-3.1V96.7z M565.2,92.8c-0.3-0.6-0.6-1.2-1-1.8l0.7-0.3c0.4,0.6,0.7,1.2,1,1.8L565.2,92.8z M564.4,99.4v2.3
		h1.6v-2.4L564.4,99.4z M575.4,96.9c-0.4,1.2-1,2.4-1.7,3.4c0.2,1.1,0.5,1.8,0.9,1.8s0.4-0.7,0.5-1.8c0.2,0.2,0.4,0.4,0.7,0.6
		c-0.2,1.9-0.7,2.4-1.2,2.4c-0.7,0-1.2-0.8-1.6-2c-0.6,0.7-1.3,1.4-2,2c-0.2-0.2-0.4-0.4-0.6-0.6c0.4-0.3,0.8-0.6,1.1-0.9h-0.9v-0.4
		h-2v1h-0.8v-6h3.7v5.2c0.5-0.5,0.9-1,1.3-1.5c-0.3-1.5-0.4-3-0.5-4.5h-5.1v-0.9h1.2c-0.1-0.6-0.2-1.1-0.3-1.7l0.8-0.1
		c0.2,0.6,0.3,1.2,0.4,1.8h0.8c0.2-0.6,0.3-1.2,0.4-1.8l0.8,0.2c-0.2,0.6-0.3,1.2-0.5,1.6h1.4c-0.1-1.3-0.1-2.7-0.1-4.2h1
		c0,1.5,0.1,2.9,0.1,4.2h2.5v0.9h-2.5c0.1,1.2,0.2,2.4,0.3,3.3c0.5-0.8,0.8-1.7,1.1-2.6L575.4,96.9z M571.7,92.9h-4.2v-0.8h1.9
		c-0.2-0.4-0.4-0.8-0.6-1.2l0.8-0.2c0.3,0.4,0.5,0.9,0.7,1.4h1.4L571.7,92.9z M568.6,97.3v1.3h2v-1.3L568.6,97.3z M570.6,100.6v-1.3
		h-2v1.3L570.6,100.6z M574.6,94.2c-0.3-0.8-0.6-1.6-1.1-2.4l0.8-0.3c0.4,0.8,0.8,1.5,1.1,2.4L574.6,94.2z"/>
	<path class="st1" d="M588.5,93.9c-2.1,2.9-4.7,5.3-7.7,7.2c0.1,0.1,0.2,0.2,0.4,0.2c1.1,0.6,2.4,0.8,3.6,0.7c1.6,0,3.7-0.1,5-0.2
		c-0.2,0.4-0.3,0.7-0.3,1.1c-1,0.1-3.4,0.2-4.8,0.2c-1.3,0.1-2.6-0.2-3.8-0.8c-0.6-0.4-1-0.8-1.3-0.8s-1.1,0.8-1.8,1.7l-0.8-1
		c0.9-1,1.8-1.8,2.5-1.8c0.1,0,0.1,0,0.2,0c2.7-1.6,5-3.6,6.9-6.1h-8.9v-1h9.7l0.2-0.1L588.5,93.9z M583.7,93.4
		c-0.4-0.8-0.9-1.6-1.5-2.4l0.9-0.5c0.6,0.7,1.1,1.5,1.5,2.3L583.7,93.4z"/>
	<path class="st1" d="M592.2,93.2c0,1.3-0.2,2.6-0.7,3.8l-0.7-0.3c0.5-1.1,0.7-2.4,0.6-3.6L592.2,93.2z M592.6,90.6h1v12.8h-1V90.6z
		 M598.8,101.2c-0.3-0.4-0.9-1.2-1.5-1.7v3.9h-0.9v-4c-0.4,1.1-1,2.1-1.8,3.1c-0.1-0.3-0.3-0.6-0.5-0.9c0.8-0.9,1.5-2,1.9-3.2h-1.3
		v-3.8l-0.6,0.2c-0.1-0.7-0.2-1.4-0.5-2l0.6-0.2c0.2,0.6,0.4,1.2,0.5,1.8h1.5V93h-1.7v-0.8h1.7v-1.5h0.9v1.5h1.7V93h-1.7v1.4h1.6
		v3.9h-1.6v0.2c0.5,0.4,1.7,1.7,2,2L598.8,101.2z M595.5,97.5h1v-2.2h-1V97.5z M598.2,95.3h-1v2.2h1V95.3z M601,101.3
		c-0.5,0.8-1.2,1.6-2,2.2c-0.2-0.2-0.5-0.5-0.7-0.7c0.7-0.5,1.3-1.1,1.8-1.8L601,101.3z M601.4,91.8c-0.1,1.3-0.9,2.4-2,3
		c-0.1-0.3-0.3-0.5-0.6-0.7c0.9-0.4,1.5-1.3,1.6-2.3h-1.2V91h4.5c0,0,0,0.2,0,0.4c-0.1,1.8-0.1,2.5-0.3,2.8
		c-0.2,0.2-0.4,0.3-0.6,0.3c-0.2,0-0.6,0-1,0c0-0.3-0.1-0.6-0.2-0.9c0.3,0,0.5,0,0.8,0c0.1,0,0.2,0,0.3-0.1c0.2-0.6,0.2-1.2,0.2-1.8
		L601.4,91.8z M599.5,95h4v5.8h-4V95z M600.3,96.7h2.2v-0.9h-2.2V96.7z M600.3,98.4h2.2v-1h-2.2V98.4z M600.3,100h2.2v-1h-2.2V100z
		 M602.6,101c0.6,0.6,1.1,1.3,1.5,2l-0.8,0.4c-0.4-0.7-0.9-1.4-1.4-2L602.6,101z"/>
	<path class="st1" d="M262.4,111.7c0,0.5,0,1.2-0.1,2c0.2,1.7,1,7.5,6,9.7c-0.3,0.2-0.6,0.5-0.8,0.9c-3.5-1.6-5-5.1-5.7-7.7
		c-0.6,3.3-2.6,6.1-5.5,7.8c-0.2-0.3-0.5-0.6-0.8-0.8c5.8-2.9,5.7-9.8,5.8-11.9L262.4,111.7z"/>
	<path class="st1" d="M272.6,114.5c-0.7,1-1.5,1.9-2.4,2.7c-0.3-0.3-0.6-0.5-0.9-0.8c1.6-1.3,2.9-2.9,3.7-4.8l1,0.3
		c-0.2,0.6-0.5,1.1-0.9,1.6h7.8v0.5c-0.1,4.7-0.3,6.3-0.7,6.8c-0.2,0.3-0.5,0.5-0.9,0.5c-0.5,0-1.1,0-1.6,0c0-0.3-0.1-0.7-0.3-1
		c0.5,0,0.9,0.1,1.4,0.1c0.2,0,0.4,0,0.5-0.2c0.3-0.3,0.4-1.8,0.5-5.6L272.6,114.5z M279.6,123.1c1.2,0,1.4-0.3,1.5-1.8
		c0.3,0.2,0.6,0.3,1,0.4c-0.2,1.8-0.6,2.3-2.5,2.3h-5.3c-2.2,0-2.8-0.4-2.8-1.9v-6.2h5.7v4.1h-4.7v2.1c0,0.8,0.3,1,1.8,1
		L279.6,123.1z M272.5,116.9v2.3h3.6v-2.3H272.5z"/>
	<path class="st1" d="M287.3,111.8c-0.2,0.7-0.5,1.5-0.7,2.1h2.3v9.1H285v1.1h-1v-10.2h1.6c0.2-0.7,0.4-1.5,0.6-2.3L287.3,111.8z
		 M287.9,114.8H285v2.9h2.9L287.9,114.8z M287.9,122v-3.4H285v3.3L287.9,122z M295.7,114.4c-0.2,6.4-0.4,8.5-1,9.2
		c-0.3,0.4-0.7,0.6-1.1,0.6c-0.7,0-1.4,0-2.1,0c0-0.4-0.2-0.7-0.4-1c0.9,0.1,1.8,0.1,2.1,0.1s0.4,0,0.6-0.2c0.5-0.5,0.7-2.6,0.9-8.2
		h-3.6c-0.3,0.9-0.8,1.7-1.3,2.4c-0.3-0.2-0.6-0.4-0.9-0.6c1-1.5,1.8-3.3,2.1-5.1l1,0.2c-0.2,0.7-0.4,1.3-0.6,2h4.2L295.7,114.4z
		 M292.6,120.7c-0.6-1.1-1.3-2.2-2.1-3.2l0.8-0.5c0.8,1,1.5,2.1,2.2,3.2L292.6,120.7z"/>
	<path class="st1" d="M309.7,125.7c-0.5,0.2-1,0.2-1.5,0.2c-1.6,0.1-3.2-0.9-3.8-2.4c-2.2-0.3-3.8-2.3-3.8-5.3
		c0-3.3,1.8-5.3,4.4-5.3s4.4,2,4.4,5.3c0,3-1.5,4.9-3.6,5.3c0.5,0.9,1.5,1.4,2.5,1.4c0.4,0,0.7,0,1.1-0.2L309.7,125.7z M305.1,122.5
		c1.8,0,3-1.7,3-4.3s-1.2-4.2-3-4.2s-3,1.6-3,4.2S303.3,122.5,305.1,122.5L305.1,122.5z"/>
	<path class="st1" d="M317.4,123.3l-2.5-4.3H313v4.4h-1.3v-10.3h3.2c2.1,0,3.6,0.7,3.6,2.9c0.1,1.4-0.9,2.7-2.3,2.9l2.6,4.5
		L317.4,123.3z M313,117.9h1.7c1.6,0,2.5-0.6,2.5-2s-0.9-1.8-2.5-1.8H313V117.9z"/>
	<path class="st1" d="M323,119.6c-0.2-2,1.4-3.8,3.4-4c0.1,0,0.2,0,0.3,0c0.8,0,1.6,0.3,2.2,0.9l-0.7,0.8c-0.4-0.4-0.9-0.7-1.5-0.7
		c-1.4,0-2.4,1.2-2.4,2.9s1,2.9,2.4,2.9c0.7,0,1.3-0.3,1.8-0.8l0.5,0.8c-0.7,0.6-1.5,1-2.5,1C324.6,123.5,323,122.1,323,119.6z"/>
	<path class="st1" d="M329.8,119.6c0-2.5,1.7-4,3.5-4s3.5,1.5,3.5,4s-1.7,4-3.5,4S329.8,122.1,329.8,119.6z M335.6,119.6
		c0-1.8-0.9-2.9-2.2-2.9s-2.2,1.2-2.2,2.9s0.9,2.9,2.2,2.9S335.6,121.3,335.6,119.6L335.6,119.6z"/>
	<path class="st1" d="M338.4,119.6c0-2.5,1.5-4,3.3-4c0.8,0,1.6,0.3,2.1,0.9l-0.1-1.3v-2.9h1.3v11.2h-1l-0.1-0.9l0,0
		c-0.6,0.6-1.4,1-2.3,1.1C339.6,123.5,338.4,122.1,338.4,119.6z M343.7,121.4v-4c-0.5-0.5-1.2-0.8-1.9-0.8c-1.2,0-2.2,1.2-2.2,2.9
		s0.8,2.9,2.1,2.9C342.5,122.4,343.2,122,343.7,121.4L343.7,121.4z"/>
	<path class="st1" d="M347,119.6c0-2.5,1.7-4,3.4-4c1.9,0,3,1.4,3,3.6c0,0.2,0,0.5-0.1,0.7h-5.1c-0.1,1.4,1,2.6,2.4,2.7
		c0,0,0.1,0,0.1,0c0.7,0,1.3-0.2,1.9-0.6l0.5,0.8c-0.7,0.5-1.6,0.8-2.5,0.8c-2,0-3.6-1.6-3.6-3.6C347,119.8,347,119.7,347,119.6z
		 M352.3,118.9c0-1.5-0.7-2.4-1.9-2.4c-1.2,0.1-2.2,1.1-2.2,2.4H352.3z"/>
	<path class="st1" d="M359.6,120c1-0.3,1.6-1.1,1.8-2.1h-0.2c-0.6,0-1-0.4-1-0.9c0,0,0,0,0-0.1c0-0.6,0.4-1,1-1c0,0,0,0,0.1,0
		c0.8,0,1.2,0.6,1.2,1.6c0,1.5-1,2.8-2.4,3.2L359.6,120z"/>
	<path class="st1" d="M379.8,115.2c-0.2,1.9-0.8,3.8-1.7,5.6c0.6,1.2,1.6,2.1,2.7,2.8c-0.3,0.3-0.5,0.5-0.7,0.9
		c-1.1-0.7-2-1.6-2.6-2.7c-0.9,1.1-2,2.1-3.3,2.7c-0.2-0.3-0.4-0.7-0.6-0.9c1.4-0.6,2.5-1.6,3.3-2.8c-0.6-1.2-1-2.5-1.3-3.9
		c-0.3,0.6-0.6,1.1-0.9,1.7c-0.2-0.2-0.5-0.5-0.8-0.7c-0.6,0.7-1.3,1.3-2.1,1.8v0.6l2.8-0.4v0.9c-0.9,0.1-1.9,0.2-2.8,0.4v2.1
		c0,0.5-0.1,0.8-0.5,0.9c-0.6,0.2-1.2,0.2-1.9,0.2c-0.1-0.3-0.2-0.6-0.3-0.9c0.7,0,1.3,0,1.5,0s0.2-0.1,0.2-0.2v-2
		c-1,0.1-2,0.3-2.8,0.4l-0.1-1l2.9-0.3v-1c0.6-0.4,1.1-0.8,1.6-1.2h-2.2c-0.5,0.4-1.1,0.8-1.7,1.2c-0.2-0.3-0.5-0.5-0.7-0.8
		c1.1-0.6,2.2-1.3,3-2.2h-3v-0.9h2.4V114h-1.8v-0.9h1.8v-1.5h1v1.5h1.4v0.8c0.4-0.6,0.7-1.3,1-2l1,0.3c-0.5,1.1-1,2.2-1.8,3.1h1.7
		v0.9h-2.4c-0.3,0.3-0.6,0.7-1,1h2l0.2-0.1l0.5,0.4c1.2-1.8,1.9-3.9,2.2-6l1,0.2c-0.1,0.8-0.3,1.6-0.6,2.4h4.1v1L379.8,115.2z
		 M371.3,115.4h0.4c0.4-0.4,0.7-0.9,1-1.4h-1.4V115.4z M377.5,119.6c0.6-1.4,1-2.9,1.2-4.4h-2.5C376.5,116.7,377,118.2,377.5,119.6
		L377.5,119.6z"/>
	<path class="st1" d="M394.4,113.9h-3.7c1.1,0.8,2.2,1.6,3.1,2.6l-0.9,0.6c-0.2-0.3-0.6-0.6-1-1c-7.2,0.4-7.9,0.4-8.4,0.6
		c-0.1-0.2-0.2-0.7-0.3-1c0.4-0.1,0.9-0.4,1.2-0.7c0.4-0.3,0.8-0.6,1.2-1h-3.5v-1h4.5c0.5-0.5,0.9-1,1.3-1.5l1,0.4
		c-0.3,0.4-0.7,0.7-1,1.1h6.4L394.4,113.9z M393,123.2c0,0.6-0.2,0.9-0.6,1c-0.8,0.1-1.7,0.2-2.5,0.1c-0.1-0.3-0.2-0.6-0.3-0.9
		c0.9,0,1.8,0,2,0s0.3-0.1,0.3-0.3v-1.8c-2.2,0.4-4.5,0.9-6.2,1.2l-0.3-0.9c1.6-0.2,4.1-0.6,6.6-1.1V118h-7v1.6
		c0.1,1.8-0.5,3.5-1.6,4.8c-0.2-0.3-0.5-0.5-0.8-0.6c1-1.1,1.6-2.7,1.4-4.2v-2.5h9L393,123.2z M391.1,115.3
		c-0.5-0.4-0.9-0.7-1.4-1.1l0.6-0.4h-3.2c-0.6,0.6-1.3,1.2-2,1.7L391.1,115.3z M385.7,118.6c1.7,0.2,3.5,0.7,5.1,1.3l-0.3,0.8
		c-1.7-0.6-3.4-1.1-5.1-1.4L385.7,118.6z"/>
	<path class="st1" d="M403.9,119.5c0.7,2.2,2,3.8,3.3,3.7c0.4,0,0.6-0.6,0.6-2c0.3,0.2,0.6,0.4,0.9,0.5c-0.2,2-0.6,2.6-1.6,2.6
		c-1.9,0-3.5-2-4.3-4.8h-4.2v3.5l3.4-0.8c0,0.3,0,0.7,0.1,1c-3.8,1-4.3,1.2-4.7,1.4c-0.1-0.4-0.3-0.7-0.5-1c0.4-0.2,0.6-0.6,0.6-1
		v-10.2h9.9v4h-4.1c0,0.7,0.1,1.4,0.3,2.1h4.8v1L403.9,119.5z M398.5,113.3v2.1h7.8v-2.1H398.5z M402.5,118.5
		c-0.1-0.7-0.2-1.4-0.3-2.1h-3.7v2.1H402.5z"/>
	<path class="st1" d="M413.8,118.6c-0.1,0.6-0.3,1.1-0.5,1.7c0.8,0.5,1.5,1.1,2.1,1.8l-0.6,0.7c-0.6-0.6-1.2-1.2-1.9-1.8
		c-0.5,1.1-1.4,2.1-2.5,2.7c-0.2-0.3-0.4-0.5-0.6-0.8c1.6-0.9,2.7-2.6,3-4.4L413.8,118.6z M422.1,117.2c-1.4,0.2-3.3,0.4-5.2,0.6
		v6.8h-1v-6.7c-1.6,0.1-3.2,0.2-4.6,0.2c-0.2-0.4-0.4-0.7-0.6-1c3.6,0.1,7.2-0.1,10.8-0.6L422.1,117.2z M421.8,115.8h-11v-3.7h11
		V115.8z M414.1,113.1h-2.3v1.8h2.3L414.1,113.1z M417.4,113.1h-2.4v1.8h2.4V113.1z M420.6,118.3c-0.1,0.6-0.2,1.2-0.4,1.8
		c0.6,1.1,1.5,2,2.5,2.7c-0.3,0.2-0.5,0.5-0.7,0.8c-0.9-0.7-1.6-1.5-2.2-2.5c-0.5,1.1-1.3,2-2.3,2.6c-0.2-0.3-0.4-0.6-0.7-0.8
		c1.6-1,2.6-2.7,2.8-4.6L420.6,118.3z M420.8,113.1h-2.4v1.8h2.4V113.1z"/>
	<path class="st1" d="M431.2,112.3c-2.2,0.6-4.4,0.9-6.6,1.1c0-0.3-0.1-0.5-0.2-0.8c2.1-0.1,4.2-0.5,6.3-1L431.2,112.3z
		 M431.2,123.3c0,0.4-0.1,0.7-0.4,0.8c-0.5,0.1-0.9,0.2-1.4,0.2c-0.1-0.3-0.2-0.6-0.3-0.8c0.5,0,0.9,0,1.1,0s0.2,0,0.2-0.2v-5.1
		h-2.8l0.4,0.1c-0.2,0.4-0.5,0.7-0.8,1l1.5-0.1c-0.1-0.2-0.3-0.3-0.5-0.5l0.5-0.3c0.5,0.4,0.9,0.9,1.2,1.4l-0.5,0.3
		c-0.1-0.1-0.1-0.2-0.2-0.4c-1,0-1.9,0.1-2.9,0.3c-0.1-0.2-0.1-0.5-0.2-0.7c0.2,0,0.3-0.1,0.4-0.2c0.3-0.3,0.6-0.7,0.8-1.1h-1.7v6.2
		h-0.9v-7.1h3.6c-0.6-0.4-1.2-0.7-1.9-0.9l0.5-0.5c0.4,0.1,0.8,0.3,1.2,0.5c0.4-0.2,0.9-0.5,1.3-0.8h-4.1v-0.7h4.9l0.2-0.1l0.6,0.4
		c-0.7,0.6-1.4,1.1-2.2,1.5c0.2,0.1,0.4,0.2,0.5,0.3l-0.2,0.2h2.2L431.2,123.3z M425.7,114.9c-0.1-0.4-0.3-0.8-0.5-1.2l0.7-0.2
		c0.2,0.3,0.4,0.7,0.6,1.1L425.7,114.9z M429.2,123.5c-0.3-0.2-0.6-0.5-1-0.7c-0.5,0.5-1.1,0.9-1.8,1.2c-0.1-0.2-0.3-0.3-0.5-0.5
		c0.6-0.2,1.1-0.6,1.6-1c-0.4-0.2-0.7-0.3-1.1-0.5l0.4-0.5c0.4,0.1,0.8,0.3,1.2,0.5c0.2-0.3,0.5-0.5,0.6-0.8h-2.3v-0.6h2.7h0.1
		l0.5,0.2c-0.2,0.6-0.6,1.1-1,1.6c0.3,0.2,0.6,0.4,0.9,0.6L429.2,123.5z M427.8,114.7c-0.1-0.4-0.3-0.9-0.5-1.3l0.7-0.2
		c0.2,0.4,0.4,0.8,0.5,1.2L427.8,114.7z M429.3,114.5c0.3-0.5,0.6-1.1,0.9-1.7l0.8,0.3c-0.3,0.6-0.6,1.1-1,1.6L429.3,114.5z
		 M435.3,123.4c0.5,0,0.5-0.5,0.6-2.6c0.3,0.2,0.6,0.3,0.9,0.4c-0.1,2.3-0.3,3.1-1.4,3.1h-1.6c-1.1,0-1.4-0.4-1.4-1.7V112h1v10.6
		c0,0.7,0.1,0.8,0.5,0.8L435.3,123.4z"/>
	<path class="st1" d="M443.7,119c-0.8,1.2-1.7,2.4-2.8,3.4l6.8-0.3c-0.5-0.6-1-1.3-1.5-1.8l0.9-0.4c1.2,1.2,2.2,2.6,3,4.2l-1,0.4
		c-0.2-0.5-0.5-1-0.8-1.5c-7.7,0.4-8.5,0.4-9,0.7c-0.1-0.4-0.2-0.7-0.3-1.1c0.4-0.2,0.7-0.4,1-0.8c0.8-0.9,1.6-1.8,2.3-2.8h-4v-1
		h5.4v-1.8h-4.4v-1h4.4v-1.7h-4.9v-1h11.1v1h-5.1v1.7h4.6v1h-4.6v1.8h5.6v1H443.7z"/>
	<path class="st1" d="M457.4,118.3c0,0,0,0.3,0,0.4c-0.1,3.4-0.3,4.6-0.6,5c-0.2,0.2-0.5,0.4-0.8,0.4c-0.4,0-0.9,0-1.3,0
		c0-0.3-0.1-0.6-0.3-0.9c0.5,0,1,0.1,1.2,0.1c0.2,0,0.3,0,0.4-0.2c0.2-0.2,0.3-1.3,0.5-3.9h-1.9c-0.1,1.9-0.7,3.7-1.9,5.2
		c-0.2-0.3-0.5-0.5-0.7-0.7c1.4-1.5,1.7-4.1,1.8-6.7H452v-0.9h2.8c-0.2-0.4-0.4-0.9-0.6-1.3l1-0.2c0.3,0.5,0.5,1,0.8,1.5h2.2v0.9
		h-3.4c0,0.4,0,0.9-0.1,1.3L457.4,118.3z M455.4,113.6h-3.3v-0.9h3.3v-1h1v1h1.6v0.9h-1.6v0.9h-1V113.6z M461.7,114.9
		c-0.1,0.1-0.1,0.3-0.2,0.4c0.9,1.2,2.1,2.4,3.3,3.3c-0.3,0.2-0.5,0.5-0.7,0.7c-1.1-1-2.2-2.1-3-3.3c-0.8,1.3-1.8,2.4-3,3.3
		c-0.2-0.2-0.4-0.5-0.7-0.6c1.5-1,2.6-2.4,3.4-4L461.7,114.9z M458.9,120.9c1.7,0.6,3.4,1.4,4.9,2.4l-0.6,0.8
		c-1.5-1.1-3.1-1.9-4.9-2.5L458.9,120.9z M460.1,113.6h-1.5v-0.9h1.5v-1h1v1h3.3v0.9h-3.3v0.9h-1V113.6z M460.3,118.3
		c1,0.4,1.9,1,2.7,1.7l-0.6,0.7c-0.8-0.7-1.7-1.3-2.7-1.8L460.3,118.3z"/>
	<path class="st1" d="M468.8,113.5h-2.6v-0.9h2.6v-0.9h1v0.9h2.2v0.9h-2.2v1h-1L468.8,113.5z M475.7,116.3c-0.2,0.4-0.5,0.9-0.7,1.3
		h3.1v2.2h-1v-1.3h-4.3v1.2h4v2.8c0,0.5-0.1,0.8-0.5,0.9c-0.7,0.2-1.3,0.2-2,0.2c-0.1-0.3-0.2-0.6-0.3-0.9c0.7,0,1.4,0,1.5,0
		s0.2,0,0.2-0.2v-1.9h-3v3.9h-1v-3.9h-2.9v3.2h-1v-4h3.9v-1.2h-4.3v1.3h-1v-2.2h3.1c-0.2-0.5-0.4-0.9-0.6-1.3l0.9-0.2
		c0.3,0.5,0.6,1,0.8,1.5h3.3c0.3-0.5,0.5-1,0.7-1.6L475.7,116.3z M477.9,116h-11.2v-0.9h5.3c-0.1-0.3-0.3-0.6-0.5-0.9l0.9-0.3
		c0.2,0.4,0.4,0.8,0.6,1.2h4.9V116z M478.5,112.6v0.9h-2.7v1h-1v-1h-2.2v-0.9h2.2v-0.9h1v0.9H478.5z"/>
	<path class="st1" d="M483.8,111.8c-0.2,0.7-0.5,1.5-0.7,2.1h2.3v9.1h-3.9v1.1h-1v-10.2h1.6c0.2-0.7,0.4-1.5,0.6-2.3L483.8,111.8z
		 M484.5,114.8h-2.9v2.9h2.9V114.8z M484.5,122v-3.4h-2.9v3.3L484.5,122z M492.3,114.4c-0.2,6.4-0.4,8.5-1,9.2
		c-0.3,0.4-0.7,0.6-1.1,0.6c-0.7,0-1.4,0-2.1,0c0-0.4-0.2-0.7-0.4-1c0.9,0.1,1.8,0.1,2.1,0.1s0.4,0,0.6-0.2c0.5-0.5,0.7-2.6,0.9-8.2
		h-3.6c-0.3,0.9-0.8,1.7-1.3,2.4c-0.3-0.2-0.6-0.4-0.9-0.6c1-1.5,1.8-3.3,2.1-5.1l1,0.2c-0.2,0.7-0.4,1.3-0.6,2h4.2L492.3,114.4z
		 M489.2,120.7c-0.6-1.1-1.3-2.2-2.1-3.2l0.8-0.5c0.8,1,1.5,2.1,2.2,3.2L489.2,120.7z"/>
	<path class="st1" d="M506.5,115.5v1h-9.8v1.5c0,1.9-0.3,4.6-2.1,6.4c-0.2-0.3-0.5-0.5-0.8-0.7c1.7-1.7,1.9-4,1.9-5.7v-2.3
		c-0.4,0.3-0.7,0.6-1.1,0.8c-0.2-0.3-0.4-0.6-0.7-0.8c1.6-1,2.9-2.5,3.8-4.1l1.1,0.2c-0.2,0.4-0.4,0.8-0.7,1.2h4.7l0.2-0.1l0.7,0.6
		c-0.4,0.6-0.9,1.4-1.3,2L506.5,115.5z M501.4,115.5c0.3-0.5,0.6-1,0.9-1.6h-4.8c-0.4,0.6-0.9,1.1-1.5,1.6H501.4z M504.4,123.3
		c0.9,0,1-0.3,1.1-1.8c0.3,0.2,0.6,0.3,1,0.4c-0.2,1.9-0.5,2.3-2.1,2.3h-4c-1.8,0-2.3-0.3-2.3-1.7v-4.8h6.3c0,0,0,0.3,0,0.4
		c-0.1,2-0.2,2.9-0.6,3.2c-0.2,0.2-0.5,0.3-0.9,0.3c-0.6,0-1.3,0-2,0c0-0.3-0.1-0.6-0.3-0.9c0.8,0.1,1.5,0.1,1.8,0.1s0.4,0,0.5-0.1
		s0.3-0.7,0.4-2.1h-4.2v3.9c0,0.6,0.2,0.7,1.3,0.7L504.4,123.3z"/>
	<path class="st1" d="M520.5,118.7v0.9h-12.3v-0.9h5.6v-1h-4.3v-0.8h4.3V116c-1.4,0.1-2.9,0.1-4.3,0.1c0-0.2-0.1-0.5-0.2-0.7h-0.8
		V113h5.4c-0.2-0.4-0.4-0.8-0.7-1.2l1-0.3c0.3,0.5,0.6,1,0.9,1.5h4.9v2.5h-0.9c-1.4,0.2-2.9,0.4-4.4,0.5v0.9h4.4v0.8h-4.4v1
		L520.5,118.7z M509.6,115.4c1.4,0,2.8-0.1,4.2-0.1v-1h1v1c1.3-0.1,2.5-0.2,3.8-0.4l0.5,0.5V114h-9.5L509.6,115.4z M510.2,120.4h8.5
		v3.9h-1v-0.4h-6.4v0.5h-1L510.2,120.4z M511.2,121.3v1.8h6.4v-1.8H511.2z"/>
	<path class="st1" d="M528.4,115.9c1.2,0,2.1,1,2.1,2.1s-1,2.1-2.1,2.1c-1.2,0-2.1-1-2.1-2.1S527.2,115.9,528.4,115.9L528.4,115.9z
		 M528.4,119.5c0.8,0,1.4-0.6,1.4-1.4c0-0.8-0.6-1.4-1.4-1.4c-0.8,0-1.4,0.6-1.4,1.4C526.9,118.8,527.6,119.5,528.4,119.5
		C528.4,119.5,528.4,119.5,528.4,119.5z"/>
	<path class="st3" d="M213.6,182.7c-26.4-9-37.9-33-37.9-49c0-26,22.6-37,34.8-37"/>
	<path class="st3" d="M651.8,182.7c26.4-9,37.9-33,37.9-49c0-26-22.6-37-34.8-37"/>
	<path class="st4" d="M254.9,52.3h347c24.5,0,44.3,19.8,44.3,44.3v0c0,24.5-19.8,44.3-44.3,44.3h-347c-24.5,0-44.3-19.8-44.3-44.3v0
		C210.5,72.2,230.4,52.3,254.9,52.3z"/>
</g>
</svg>
