<?xml version="1.0" encoding="utf-8"?>
<!-- Generator: Adobe Illustrator 20.1.0, SVG Export Plug-In . SVG Version: 6.00 Build 0)  -->
<svg version="1.1" id="圖層_1" xmlns="http://www.w3.org/2000/svg" xmlns:xlink="http://www.w3.org/1999/xlink" x="0px" y="0px"
	 viewBox="0 0 1280 650" style="enable-background:new 0 0 1280 650;" xml:space="preserve">
<style type="text/css">
	.st0{fill:#6BFFBA;}
	.st1{fill:#004864;}
	.st2{fill:none;stroke:#00364B;stroke-width:3;stroke-linecap:round;stroke-miterlimit:10;}
	.st3{fill:#00364B;}
</style>
<title>Topic Tree</title>
<g id="圖層_1_1_">
	<path class="st0" d="M144.9,461.4h81.7c14.3,0,25.9,11.6,25.9,25.9v0c0,14.3-11.6,25.9-25.9,25.9h-81.7
		c-14.3,0-25.9-11.6-25.9-25.9v0C119.1,473,130.7,461.4,144.9,461.4z"/>
	<path class="st0" d="M621.5,271.4h81.7c14.3,0,25.9,11.6,25.9,25.9v0c0,14.3-11.6,25.9-25.9,25.9h-81.7
		c-14.3,0-25.9-11.6-25.9-25.9v0C595.6,283,607.2,271.4,621.5,271.4z"/>
	<path class="st0" d="M135.5,108.7h81.7c14.3,0,25.9,11.6,25.9,25.9l0,0c0,14.3-11.6,25.9-25.9,25.9h-81.7
		c-14.3,0-25.9-11.6-25.9-25.9l0,0C109.6,120.3,121.2,108.7,135.5,108.7z"/>
	<path class="st0" d="M487.1,98h90.5c15.8,0,28.7,12.8,28.7,28.7v0c0,15.8-12.8,28.7-28.7,28.7h-90.5c-15.8,0-28.6-12.8-28.6-28.7v0
		C458.5,110.8,471.3,98,487.1,98z"/>
	<path class="st0" d="M475.6,494.7h90.5c15.8,0,28.7,12.8,28.7,28.6l0,0c0,15.8-12.8,28.7-28.7,28.7h-90.5
		c-15.8,0-28.6-12.8-28.6-28.7l0,0C446.9,507.6,459.8,494.7,475.6,494.7z"/>
	<path class="st1" d="M496.6,125.7c-1,4.4-3.2,7.7-5.9,9.5c-0.6-0.7-1.3-1.4-2-1.9c2.2-1.4,3.8-3.4,4.7-5.8h-4.1V125h5.2l0.5-0.1
		L496.6,125.7z M508.2,124.2c-1.6,1.5-3.4,2.9-5.2,4.1c1.5,2.1,3.6,3.7,6,4.6c-0.7,0.6-1.3,1.4-1.8,2.2c-3-1.4-5.4-3.7-6.9-6.6v4.9
		c0,1.4-0.3,2.1-1.2,2.5c-1.3,0.4-2.7,0.5-4,0.4c-0.2-0.9-0.5-1.7-0.9-2.6c1.1,0.1,2.4,0.1,2.8,0s0.5-0.1,0.5-0.5v-10.2h-5.4v-2.4
		h7.9c-2-0.9-4.1-1.6-6.3-2.2l1.3-2.1c2.7,0.6,5.3,1.5,7.9,2.6l-1.4,2.4c-0.4-0.2-0.8-0.4-1.4-0.7v1.8c0.4,1.3,0.9,2.6,1.5,3.8
		c1.5-1.2,2.9-2.5,4.1-3.9L508.2,124.2z"/>
	<path class="st1" d="M517.1,129.9c0-0.3-0.1-0.6-0.2-1c-3.8,0.6-4.5,0.8-4.9,1c-0.1-0.4-0.5-1.5-0.7-2.1c0.5-0.1,0.9-0.6,1.6-1.4
		c0.3-0.3,0.7-1,1.3-1.9c-0.8,0-1.6,0.2-2.3,0.4c-0.2-0.7-0.4-1.3-0.7-2c0.4-0.1,0.7-0.5,1.1-1.2c1-1.7,1.8-3.4,2.3-5.3l2.1,0.8
		c-0.7,1.8-1.6,3.5-2.6,5.2l1.4-0.1c0.5-0.9,1-1.9,1.4-2.9l1.9,1.2c-1.2,2.3-2.5,4.5-4.2,6.6l2-0.2c-0.2-0.6-0.3-1.2-0.5-1.7
		l1.7-0.4c0.5,1.5,0.9,3,1.1,4.5L517.1,129.9z M514,130.8c-0.1,1.9-0.5,3.7-1,5.5c-0.6-0.3-1.2-0.5-1.9-0.6c0.5-1.7,0.8-3.4,0.9-5.2
		L514,130.8z M516,130.5c0.3,1.6,0.4,3.3,0.5,4.9l-1.8,0.3c0-1.7-0.2-3.3-0.4-4.9L516,130.5z M517.9,129.9c0.4,1.3,0.8,2.5,1,3.8
		l-1.6,0.6c-0.3-1.3-0.6-2.6-1-3.9L517.9,129.9z M527.3,133.3c1.4,0.5,2.9,1,3.8,1.4l-1,1.8c-1.1-0.5-3-1.3-4.6-1.9l0.7-1.3h-3.2
		l1.3,1.3c-1.7,0.7-3.8,1.5-5.4,2c-0.3-0.6-0.6-1.2-0.9-1.8c1.4-0.4,2.7-1,4-1.5h-2.9v-6.4h10.8v6.4L527.3,133.3z M523.5,119h-5.1
		v-1.6h5.1v-0.9h2.5v0.9h4.8v1.6H526v0.7h4.2v1.5h-11v-1.5h4.3L523.5,119z M518.5,121.8h12.3v4.4h-12.3V121.8z M520.6,124.7h1.5
		v-1.3h-1.5V124.7z M521.5,128.8h6.2v-0.6h-6.2V128.8z M521.5,130.4h6.2v-0.6h-6.2V130.4z M521.5,132h6.2v-0.7h-6.2V132z
		 M525.4,124.7v-1.3H524v1.3H525.4z M528.6,123.4h-1.4v1.3h1.4V123.4z"/>
	<path class="st1" d="M542.2,122h-8.3v-2h3.5c-0.4-0.9-0.8-1.8-1.4-2.7l2-0.9c0.6,0.9,1.1,1.9,1.6,2.8l-1.4,0.8h4.1L542.2,122z
		 M541.3,123.5c1.5-0.7,2.5-2.3,2.3-4v-2.3h7.2v4.7c0,0.6,0,0.9,0.3,0.9h0.8c0.3,0,0.7-0.1,1-0.2c0,0.6,0.1,1.5,0.2,2.1
		c-0.4,0.1-0.8,0.2-1.2,0.2h-1.1c-2,0-2.4-0.9-2.4-3v-2.3H546l0,0c0.2,2.4-1.1,4.8-3.3,5.9c-0.4-0.6-0.9-1.1-1.4-1.6v1h-6.5V123h6.5
		L541.3,123.5z M541.3,127.8h-6.6v-1.9h6.6V127.8z M552.8,126.3c-0.6,2.3-1.8,4.5-3.4,6.2c1.4,0.7,2.9,1.2,4.4,1.5
		c-0.6,0.7-1.1,1.5-1.6,2.3c-1.8-0.4-3.5-1.1-5-2.1c-1.5,1-3.2,1.7-5,2.2c-0.3-0.7-0.6-1.3-1-1.9v0.8H537v0.9h-2.2v-7.4h6.5v5.3
		c1.4-0.3,2.7-0.8,3.9-1.5c-1.1-1.2-2.1-2.5-2.8-4l1.4-0.5h-2v-2.4h8.9l0.4-0.1L552.8,126.3z M539.1,130.8H537v2.4h2.2L539.1,130.8z
		 M544.7,128.1c0.6,1.2,1.5,2.2,2.5,3c0.9-0.8,1.7-1.9,2.3-3H544.7z"/>
	<path class="st1" d="M565.7,122h-9v-2h3.7c-0.4-0.9-0.8-1.8-1.4-2.7l2-0.9c0.6,0.9,1.1,1.9,1.6,2.8l-1.4,0.8h4.5L565.7,122z
		 M557.7,124.9V123h7.2v1.9L557.7,124.9z M564.8,127.8h-7.1v-1.9h7.1V127.8z M564.9,135.3h-5v0.9h-2.1v-7.4h7.1L564.9,135.3z
		 M559.9,130.8v2.4h2.8v-2.4H559.9z M576,126.1h-4v10.4h-2.7v-10.4h-3.7v-2.5h3.7v-6.7h2.7v6.7h4V126.1z"/>
	<path class="st1" d="M635.5,301.5c-0.6,0.3-1.3,0.6-1.9,0.9c0.7,0.5,1.4,0.8,2.2,1c-0.4,0.4-0.8,0.9-1.1,1.5
		c-2-0.7-3.7-2.3-4.4-4.3c-0.5,0.4-1,0.8-1.6,1.1v1.4l2.3-0.4c0,0.5,0,0.9,0,1.4c-3,0.6-3.5,0.8-3.8,1c-0.1-0.5-0.3-0.9-0.6-1.3
		c0.4-0.2,0.7-0.6,0.7-1.1v-0.1c-0.5,0.2-0.9,0.3-1.3,0.5c-0.2-0.3-0.5-0.6-0.8-0.9v0.1c-1.5,0.4-3.1,0.8-4.4,1.2l-0.3-1.8
		c0.5-0.1,1-0.2,1.6-0.4v-4h-1.3v-1.7h1.3v-3h-1.4v-1.7h4.4v1.7h-1.3v3h1.2v1.7h-1.2v3.6l1.2-0.3l0.2,1.1c1.2-0.3,2.3-0.7,3.3-1.3
		h-1.9v-3.5h8.1v3.5H632c0.2,0.4,0.4,0.8,0.7,1.1c0.6-0.3,1.1-0.7,1.6-1.1L635.5,301.5z M635.5,296.2h-9.9v-1.5h9.9V296.2z
		 M635,294.2h-8.8v-3.7h8.8V294.2z M628.8,291.8h-1v1.1h1V291.8z M628.3,299h4.5v-0.9h-4.5V299z M631.1,291.8h-1v1.1h1V291.8z
		 M633.4,291.8h-1.1v1.1h1.1V291.8z"/>
	<path class="st1" d="M643.2,301.2c-1.7,0.7-3.5,1.4-5,2l-0.6-2c0.5-0.2,1.2-0.4,1.9-0.6v-5h-1.6v-1.8h1.6v-3.6h1.9v3.6h1.4v1.8
		h-1.4v4.4l1.5-0.5L643.2,301.2z M650.7,303.4c0.1,0,0.2,0,0.3,0c0.1,0,0.2-0.1,0.2-0.3s0-0.6,0.1-1.2c0.4,0.3,0.9,0.6,1.5,0.8
		c0,0.5-0.1,1-0.2,1.5c-0.1,0.3-0.4,0.5-0.7,0.6c-0.3,0.1-0.7,0.2-1,0.1h-1c-0.4,0-0.9-0.1-1.2-0.4c-0.3-0.3-0.5-0.6-0.5-1.6v-2H647
		c-0.3,2.1-1.1,3.5-4.1,4.2c-0.2-0.6-0.6-1.1-1-1.5c2.5-0.5,3.1-1.3,3.3-2.8h-1.3V296h7.8v4.9h-1.7v2c0,0.2,0,0.3,0.1,0.4
		c0.1,0.1,0.2,0.1,0.3,0.1L650.7,303.4z M652.3,295.5h-9.2v-1.6h2c-0.1-0.4-0.2-0.7-0.4-1.1l1.6-0.3c0.2,0.4,0.4,0.9,0.5,1.4h1.8
		c0.2-0.5,0.4-1,0.5-1.4l1.8,0.3c-0.2,0.4-0.4,0.7-0.5,1h2L652.3,295.5z M651.9,292.5h-8.3v-1.6h3.2c-0.1-0.3-0.2-0.5-0.3-0.8
		l1.8-0.3c0.2,0.3,0.3,0.8,0.4,1.1h3.1V292.5z M645.6,297.9h4.2v-0.7h-4.2V297.9z M645.6,299.7h4.2V299h-4.2V299.7z"/>
	<path class="st1" d="M660.1,290.6c-0.4,1.2-1,2.3-1.6,3.4v11.1h-1.8v-8.3c-0.4,0.5-0.8,0.9-1.1,1.3c-0.3-0.7-0.6-1.4-1-2
		c1.7-1.7,3-3.8,3.8-6.1L660.1,290.6z M663,300.4c-0.7,1.4-1.5,2.8-2.5,4c-0.5-0.4-1-0.7-1.5-1c0.9-1,1.7-2.2,2.2-3.4L663,300.4z
		 M665.6,299.4v5.7h-2v-5.7h-4.2v-1.8h4.2v-1.4h-3.2v-5.6h8.5v5.6h-3.4v1.4h4.2v1.8H665.6z M662.3,294.6h4.7v-2.2h-4.7L662.3,294.6z
		 M667.6,299.9c0.9,1,1.7,2.2,2.4,3.4l-1.5,0.9c-0.6-1.3-1.4-2.4-2.3-3.5L667.6,299.9z"/>
	<path class="st1" d="M677.9,293.9c-0.6,1.2-1.2,2.3-2,3.3v7.8H674v-5.7c-0.5,0.4-1,0.8-1.5,1.2c-0.3-0.6-0.6-1.3-0.9-1.9
		c1.8-1.2,3.2-2.9,4.2-4.9h-3.6v-1.9h4.4c0.3-0.7,0.5-1.4,0.7-2.1l2,0.5c-0.2,0.5-0.4,1.1-0.5,1.6h7.9v1.9L677.9,293.9z M686.8,301
		H683v2c0,1-0.2,1.5-0.9,1.8c-1,0.3-1.9,0.4-2.9,0.3c-0.1-0.6-0.3-1.3-0.5-1.9c0.8,0,1.8,0,2,0s0.4-0.1,0.4-0.3v-2h-4.1v-1.8h4.1
		V298c0.5-0.4,1.1-0.8,1.5-1.2h-4.4v-1.7h6.2l0.4-0.1l1.2,1c-0.9,1-1.9,1.8-3,2.6v0.6h3.8L686.8,301z"/>
	<path class="st1" d="M694.1,294.2h-5.3v-1.5h2.4c-0.3-0.7-0.6-1.4-1-2l1.5-0.7c0.5,0.7,0.9,1.4,1.2,2.2l-1,0.6h2.3L694.1,294.2z
		 M693.7,304.2h-2.8v0.7h-1.5v-5.6h4.4L693.7,304.2z M693.6,296.3h-4.2v-1.4h4.2V296.3z M689.4,297h4.2v1.5h-4.2V297z M690.9,300.8
		v1.8h1.3v-1.8H690.9z M700.2,290.8c-0.1,0.2-0.2,0.4-0.3,0.5c1.1,1.4,2.6,2.4,4.3,3c-0.5,0.5-1,1.1-1.3,1.7
		c-0.5-0.2-0.9-0.5-1.4-0.8v0.7h-5.3v-0.7c-0.5,0.4-0.9,0.7-1.4,1c-0.3-0.6-0.7-1.3-1.1-1.8c2.2-1,4-2.6,5.2-4.6L700.2,290.8z
		 M702.9,303.2c0,0.7-0.1,1.2-0.5,1.4c-0.4,0.3-1,0.4-1.5,0.3c-0.1-0.5-0.2-1.1-0.4-1.6h0.7c0.1,0,0.1,0,0.1-0.2v-1.5h-0.9v2.9h-1.3
		v-2.9h-0.8v2.9h-1.3v-2.9h-0.8v3.4h-1.6v-8h8.2L702.9,303.2z M697.1,300.1v-1.6h-0.8v1.6H697.1z M700.2,294.4
		c-0.5-0.5-1-1.1-1.4-1.6c-0.5,0.6-1,1.1-1.6,1.6H700.2z M699.2,300.1v-1.6h-0.8v1.6H699.2z M701.3,300.1v-1.6h-0.9v1.6H701.3z"/>
	<path class="st1" d="M480.5,523.5c-1-0.9-2.2-1.6-3.4-2.1l1.4-1.9c1.3,0.5,2.5,1.1,3.5,2L480.5,523.5z M482.1,526.1
		c-0.7,2.3-1.6,4.9-2.5,7l-2.3-1.3c1.1-2.3,2-4.7,2.8-7.1L482.1,526.1z M481.6,517.8c-1-0.9-2.2-1.7-3.5-2.2l1.4-1.9
		c1.3,0.5,2.5,1.2,3.5,2L481.6,517.8z M496.8,520.8c-0.6,2.6-1.5,5-2.8,7.3c0.3,1.5,0.7,2.4,1.1,2.4s0.5-1.1,0.6-3
		c0.5,0.5,1.1,1,1.8,1.3c-0.5,3.9-1.6,4.7-2.5,4.7c-1.2,0-2.1-1.1-2.7-3c-0.9,1.1-2,2.1-3.1,2.9c-0.5-0.6-1.1-1.1-1.7-1.6
		c1.6-1,3-2.3,4.1-3.9c-0.5-2.9-0.8-5.9-0.9-8.9H485v3.7c0,3.2-0.3,7.9-2.1,10.9c-0.6-0.5-1.2-0.9-1.9-1.3c1.6-2.8,1.8-6.7,1.8-9.6
		v-6h7.7c0-0.9-0.1-1.9-0.1-2.9h2.3c0,1,0,2,0.1,2.9h2.4c-0.7-0.7-1.5-1.3-2.4-1.8l1.4-1.3c1,0.5,1.9,1.2,2.7,2l-1,1h0.9v2.2H493
		c0.1,2,0.3,3.8,0.5,5.4c0.5-1.3,0.9-2.6,1.2-4L496.8,520.8z M487.3,529.3v1.2h-1.7v-7.2h4.8v6L487.3,529.3z M490.3,522.1h-4.6v-1.9
		h4.6V522.1z M487.3,525.1v2.3h1.5v-2.3H487.3z"/>
	<path class="st1" d="M519.3,530.7v2.2h-19.4v-2.2h8.3v-1.5h-6.2v-2.1h6.2V526h2.1c-0.5-0.4-1.1-0.7-1.7-0.9c0.4-0.4,0.7-0.8,1-1.2
		h-1.9v-0.6h-1.9c-0.6,1.7-1.9,3.1-3.6,3.7c-0.4-0.6-1-1.2-1.6-1.7c1.1-0.3,2-1.1,2.7-2h-2.9v-4.2h2v2.2h1.5v-3h-4.1v-2h2.5
		c-0.3-0.6-0.7-1.2-1.1-1.8l1.8-0.9c0.6,0.7,1.1,1.4,1.5,2.2l-0.8,0.4h2c0.5-0.8,0.9-1.7,1.2-2.6l2.1,0.6c-0.4,0.7-0.8,1.3-1.2,1.9
		h2.4v2h-4.1v3h1.5v-2.2h2v4.5c1-1.8,1.4-3.9,1.3-6v-3.2h7.6v9.6c0,1.1-0.2,1.7-0.9,2.1c-1,0.4-2,0.5-3,0.4
		c-0.1-0.8-0.4-1.5-0.7-2.2c0.8,0,1.6,0,1.9,0s0.3-0.1,0.3-0.3v-1.6h-3.6c-0.3,1.3-1,2.6-1.9,3.6v1h6.3v2.1h-6.3v1.5L519.3,530.7z
		 M516.3,520.6v-1.2h-3.1c0,0.4-0.1,0.8-0.1,1.2L516.3,520.6z M513.3,516.4v1.1h3v-1.1H513.3z"/>
	<path class="st1" d="M541.7,530.5v2.5h-19.2v-2.5h8.3v-4.3H525v-2.5h5.8V520h-4.4c-0.6,1.1-1.2,2.1-2,3.1c-0.7-0.6-1.5-1.1-2.3-1.5
		c1.8-2.2,3.1-4.8,3.8-7.7l2.6,0.6c-0.3,1-0.6,2-1,3h3.3v-3.8h2.7v3.8h7.2v2.5h-7.2v3.8h6.4v2.5h-6.4v4.3H541.7z"/>
	<path class="st1" d="M548.6,524c-0.9-0.6-2.7-1.6-4-2.3l1.4-1.9c1.2,0.6,3.1,1.5,4,2.1L548.6,524z M545,531.7
		c1.5-2.2,2.8-4.4,4.1-6.7l1.9,1.7c-1.1,2.2-2.5,4.7-3.8,6.8L545,531.7z M549.5,518.2c-1.3-0.8-2.6-1.6-3.9-2.3l1.4-1.8
		c1.2,0.6,3.1,1.5,4,2.1L549.5,518.2z M559,522.3v2.7h4.4v8.5H561v-0.8h-6.4v0.9h-2.3V525h4.4v-2.7h-5.7v-2.4h5.7v-2.5
		c-1.4,0.2-2.8,0.4-4.2,0.5c-0.1-0.8-0.4-1.5-0.7-2.2c3.4-0.3,6.8-0.9,10-2l2,2c-1.5,0.6-3.1,1-4.7,1.3v2.9h5.4v2.4L559,522.3z
		 M561,527.3h-6.4v3.1h6.5L561,527.3z"/>
	<path class="st1" d="M159.4,491.5c-0.6,0.3-1.3,0.6-1.9,0.9c0.7,0.5,1.4,0.8,2.2,1c-0.4,0.4-0.8,0.9-1.1,1.5
		c-2-0.7-3.7-2.3-4.4-4.3c-0.5,0.4-1,0.8-1.6,1.1v1.4l2.3-0.4c0,0.5,0,0.9,0,1.4c-3,0.6-3.5,0.8-3.8,1c-0.1-0.5-0.3-0.9-0.6-1.3
		c0.4-0.2,0.7-0.6,0.6-1.1v-0.1c-0.4,0.2-0.9,0.3-1.3,0.5c-0.2-0.3-0.5-0.6-0.8-0.9v0.1c-1.5,0.4-3.1,0.8-4.4,1.2l-0.3-1.8
		c0.5-0.1,1-0.2,1.6-0.4v-4h-1.3v-1.7h1.3v-3h-1.4v-1.7h4.4v1.7h-1.3v3h1.2v1.7h-1.2v3.6l1.2-0.3l0.1,1.1c1.2-0.3,2.3-0.7,3.3-1.3
		h-1.9v-3.5h8.1v3.5h-2.7c0.2,0.4,0.4,0.8,0.7,1.1c0.6-0.3,1.1-0.7,1.6-1.1L159.4,491.5z M159.4,486.2h-9.9v-1.5h9.9L159.4,486.2z
		 M158.8,484.2H150v-3.7h8.8V484.2z M152.6,481.8h-1v1.1h1V481.8z M152.1,489h4.6v-0.9h-4.6V489z M154.9,481.8h-1v1.1h1V481.8z
		 M157.2,481.8h-1.1v1.1h1.1V481.8z"/>
	<path class="st1" d="M167,491.2c-1.7,0.7-3.5,1.4-5,2l-0.6-2c0.5-0.2,1.2-0.4,1.9-0.6v-5h-1.6v-1.8h1.6v-3.6h1.9v3.6h1.4v1.8h-1.4
		v4.4l1.5-0.5L167,491.2z M174.5,493.4c0.1,0,0.2,0,0.3,0c0.1,0,0.1-0.1,0.2-0.3s0-0.6,0.1-1.2c0.4,0.3,0.9,0.6,1.5,0.8
		c0,0.5-0.1,1-0.2,1.5c-0.1,0.3-0.4,0.5-0.7,0.6c-0.3,0.1-0.7,0.2-1,0.1h-1c-0.4,0-0.9-0.1-1.2-0.4c-0.3-0.3-0.4-0.6-0.4-1.6v-2
		h-1.2c-0.3,2.1-1.1,3.5-4.1,4.2c-0.2-0.6-0.6-1.1-1-1.5c2.5-0.5,3.1-1.3,3.3-2.8h-1.4V486h7.8v4.9h-1.7v2c0,0.2,0,0.3,0.1,0.4
		c0.1,0.1,0.2,0.1,0.3,0.1L174.5,493.4z M176.1,485.5H167v-1.6h2c-0.1-0.4-0.2-0.7-0.4-1.1l1.6-0.3c0.2,0.4,0.4,0.9,0.5,1.4h1.8
		c0.2-0.5,0.4-1,0.5-1.4l1.8,0.3c-0.2,0.4-0.4,0.7-0.5,1h2L176.1,485.5z M175.7,482.5h-8.3V481h3.2l-0.3-0.8l1.8-0.3
		c0.1,0.3,0.3,0.8,0.4,1.1h3.1L175.7,482.5z M169.4,487.9h4.1v-0.7h-4.1V487.9z M169.4,489.7h4.1V489h-4.1V489.7z"/>
	<path class="st1" d="M183.8,484.8h2.9v1.8h-2.9v0.6c0.8,0.6,2.4,2.1,2.8,2.5l-1.1,1.6c-0.4-0.5-1.1-1.3-1.7-2v5.8h-1.9v-5.7
		c-0.6,1.4-1.4,2.6-2.4,3.7c-0.3-0.7-0.6-1.3-1-1.9c1.3-1.3,2.3-2.9,3.1-4.6h-2.7v-1.8h3.1v-2c-0.9,0.2-1.8,0.3-2.7,0.4
		c-0.1-0.5-0.3-1-0.6-1.5c2.2-0.3,4.4-0.9,6.5-1.7l1.4,1.5c-0.9,0.3-1.8,0.6-2.7,0.8L183.8,484.8z M189.6,491h-1.9v-9.1h1.9V491z
		 M193,480.3v12.5c0,1.1-0.2,1.6-0.9,2c-1,0.3-2.1,0.5-3.2,0.4c-0.1-0.7-0.3-1.4-0.7-2c1.1,0,2.1,0,2.4,0s0.4-0.1,0.4-0.4v-12.4H193
		z"/>
	<path class="st1" d="M209.6,492.8c0,1-0.2,1.6-0.9,1.9c-1,0.3-2.1,0.4-3.1,0.3c-0.1-0.6-0.3-1.3-0.6-1.9c0.9,0,2,0,2.3,0
		s0.4-0.1,0.4-0.4v-2.4h-3.4v4.5h-1.9v-4.5H199c-0.2,1.8-0.9,3.4-2,4.8c-0.4-0.5-1-0.9-1.5-1.2c1.8-1.9,1.9-4.8,1.9-7.1V481h12.2
		L209.6,492.8z M202.4,488.6v-2h-3v0.3c0,0.5,0,1.1,0,1.7L202.4,488.6z M199.4,482.9v1.9h3v-1.9L199.4,482.9z M207.8,482.9h-3.5v1.9
		h3.4L207.8,482.9z M207.8,488.6v-2h-3.5v2H207.8z"/>
	<path class="st1" d="M217.9,484.2h-5.3v-1.5h2.4c-0.3-0.7-0.6-1.4-1-2l1.5-0.7c0.5,0.7,0.9,1.4,1.2,2.2l-1.1,0.6h2.3L217.9,484.2z
		 M217.5,494.2h-2.9v0.7h-1.5v-5.6h4.4V494.2z M217.4,486.3h-4.2v-1.5h4.2V486.3z M213.2,487h4.2v1.5h-4.2V487z M214.7,490.8v1.8
		h1.3v-1.8H214.7z M224,480.8c-0.1,0.2-0.2,0.4-0.3,0.5c1.1,1.4,2.6,2.4,4.3,3c-0.5,0.5-1,1.1-1.3,1.7c-0.5-0.2-0.9-0.5-1.4-0.8v0.7
		h-5.4v-0.7c-0.5,0.4-0.9,0.7-1.4,1c-0.3-0.6-0.7-1.3-1.1-1.8c2.2-1,4-2.6,5.2-4.6L224,480.8z M226.7,493.2c0,0.7-0.1,1.2-0.5,1.4
		c-0.4,0.3-1,0.4-1.5,0.3c-0.1-0.5-0.2-1.1-0.4-1.6h0.6c0.1,0,0.1,0,0.1-0.2v-1.5h-0.9v2.9H223v-2.9h-0.8v2.9h-1.3v-2.9h-0.8v3.4
		h-1.6v-8h8.1L226.7,493.2z M220.9,490.1v-1.6h-0.8v1.6H220.9z M224.1,484.4c-0.5-0.5-1-1.1-1.4-1.6c-0.5,0.6-1,1.1-1.6,1.6H224.1z
		 M223,490.1v-1.6h-0.8v1.6H223z M225.1,490.1v-1.6h-0.9v1.6H225.1z"/>
	<path class="st1" d="M139.1,128.3c-0.1,0.2-0.2,0.4-0.3,0.6c0.9,0.5,1.7,1.1,2.4,1.8l-0.8,1.6c-0.1-0.1-0.2-0.2-0.4-0.4v1.5h-1.4
		v1.2h1.9v1.6h-1.9v3.8l1.9-0.4l0.1,1.5c-1.9,0.4-3.9,0.9-5.5,1.2l-0.4-1.7c0.6-0.1,1.5-0.2,2.3-0.4v-4.1h-2.1v-1.6h2.1v-1.2h-1.2
		v-0.7c-0.2,0.2-0.5,0.5-0.8,0.7c-0.2-0.7-0.4-1.3-0.7-2c1.3-1,2.4-2.3,3.1-3.8L139.1,128.3z M136.4,136.8c0.3,0.9,0.5,1.8,0.6,2.8
		l-1.2,0.4c-0.1-0.9-0.3-1.9-0.5-2.8L136.4,136.8z M140.1,131.8c-0.6-0.6-1.3-1.1-2-1.5c-0.3,0.5-0.7,1.1-1.1,1.5H140.1z
		 M138.9,139.4c0.2-0.9,0.4-1.8,0.6-2.7l1.3,0.4c-0.3,1-0.6,2-0.8,2.7L138.9,139.4z M149.4,141c0,0.9-0.2,1.4-0.7,1.7
		c-0.8,0.3-1.6,0.4-2.4,0.3c-0.1-0.6-0.2-1.2-0.5-1.8c0.7,0,1.4,0,1.7,0s0.3-0.1,0.3-0.3v-10.9H143v12.8h-1.6v-14.6h8.1L149.4,141z
		 M147.1,132.9h-3.5v-1.6h3.5V132.9z M144.9,139.1v0.8h-1.1v-5.9h3.2v5L144.9,139.1z M144.9,135.6v2.1h0.9v-2.1H144.9z"/>
	<path class="st1" d="M157,138.1c-0.2-0.5-0.6-1.3-1-2v6.8h-1.8v-6.2c-0.4,1.2-0.9,2.3-1.6,3.4c-0.2-0.6-0.5-1.2-0.9-1.8
		c1.1-1.7,1.9-3.5,2.4-5.4h-2v-1.8h2.1v-3.3h1.9v3.3h1.8v1.8H156v0.9c0.5,0.6,1.8,2.4,2.1,2.9L157,138.1z M166.5,133.1
		c-0.3,2.2-1.1,4.4-2.3,6.3c0.8,0.8,1.8,1.5,2.8,1.9c-0.5,0.5-0.9,1-1.3,1.6c-1-0.5-2-1.2-2.7-2.1c-0.8,0.8-1.7,1.5-2.6,2
		c-0.3-0.6-0.7-1.1-1.1-1.5c1-0.5,1.9-1.2,2.6-2c-0.7-1.1-1.3-2.3-1.6-3.6c-0.2,2.4-0.8,5.2-2.2,7c-0.5-0.5-1-0.8-1.5-1.1
		c1.8-2.4,2-5.9,2-8.4v-4.5h8.1v1.8h-6.3v2.3h4.7l0.3-0.1L166.5,133.1z M161.6,134.5c0.3,1.2,0.8,2.3,1.4,3.3c0.6-1,1.1-2.1,1.4-3.3
		H161.6z"/>
	<path class="st1" d="M173.7,137.8c0-0.2-0.1-0.4-0.1-0.7c-3.2,0.5-3.8,0.6-4.2,0.8c-0.1-0.3-0.4-1.2-0.6-1.7
		c0.4-0.1,0.8-0.4,1.3-1.1c0.2-0.2,0.6-0.7,1-1.3c-0.6,0-1.2,0.2-1.8,0.4c-0.2-0.5-0.4-1.1-0.6-1.6c0.3-0.1,0.6-0.4,0.9-0.9
		c0.8-1.3,1.4-2.6,1.9-4l1.7,0.7c-0.6,1.4-1.3,2.7-2.2,3.9l1.1-0.1c0.4-0.7,0.8-1.4,1.1-2.1l1.6,1c-0.9,1.7-2,3.3-3.3,4.8l1.7-0.2
		c-0.1-0.4-0.3-0.9-0.4-1.3l1.4-0.4c0.4,1.1,0.7,2.2,1,3.3L173.7,137.8z M171,138.6c-0.1,1.4-0.3,2.8-0.8,4.1
		c-0.5-0.2-1-0.4-1.5-0.6c0.4-1.2,0.6-2.5,0.7-3.8L171,138.6z M172.7,138.3c0.2,1.1,0.4,2.2,0.4,3.3l-1.5,0.3c0-1.1-0.2-2.2-0.3-3.4
		L172.7,138.3z M174.3,137.8c0.3,0.8,0.5,1.6,0.8,2.5l-1.4,0.5c-0.2-0.9-0.4-1.7-0.7-2.5L174.3,137.8z M183.9,140.7v1.8h-9.3v-1.8
		h3.7v-2.2h-2.9v-1.7h7.9v1.7h-3v2.2L183.9,140.7z M178.1,130.8c-0.5,0.8-1,1.8-1.6,2.5c0.6,0.8,1.2,1.7,1.7,2.6l-1.5,0.6
		c-0.5-1.1-1.2-2.2-1.9-3.2c0.6-0.9,1.2-1.9,1.7-2.9L178.1,130.8z M183.8,130.1H175v-1.7h8.7L183.8,130.1z M179.4,136.4
		c-0.6-1.1-1.2-2.2-2-3.1c0.6-0.9,1.2-1.9,1.7-2.9l1.6,0.4c-0.5,0.8-1.1,1.7-1.6,2.5c0.6,0.8,1.2,1.6,1.7,2.5L179.4,136.4z
		 M182.3,136.5c-0.6-1.1-1.3-2.2-2.1-3.2c0.7-0.9,1.3-1.9,1.8-2.9l1.6,0.4c-0.5,0.9-1.1,1.8-1.6,2.5c0.7,0.8,1.3,1.6,1.9,2.5
		L182.3,136.5z"/>
	<path class="st1" d="M188.1,135.5c-0.7-0.7-1.5-1.4-2.4-2l0.9-1.1c0.9,0.5,1.7,1.1,2.4,1.8L188.1,135.5z M189.1,137.6
		c-0.5,1.7-1.2,3.5-1.8,5l-1.4-0.9c0.6-1.2,1.3-3.2,1.9-5.1L189.1,137.6z M188.5,131.2c-0.7-0.8-1.5-1.6-2.4-2.2l1-1.1
		c0.9,0.6,1.7,1.3,2.4,2.1L188.5,131.2z M197.5,136h1.8v6.9h-1.8v-2.2h-5.3c-0.3,0.9-0.9,1.7-1.7,2.2c-0.4-0.4-0.9-0.7-1.4-1
		c1.2-0.9,1.9-2.4,1.8-3.9v-2h1.8v0.8h4.9V136z M191.8,132.9c-0.1,1.2-0.8,2.3-1.8,3.1c-0.2-0.4-0.4-0.7-0.7-1
		c0.7-0.5,1.2-1.2,1.3-2.1h-0.7v-1.2h3.7c0,0,0,0.3,0,0.5c0,1.9-0.1,2.8-0.3,3.1c-0.2,0.2-0.4,0.4-0.7,0.4c-0.3,0-0.6,0-0.9,0
		c0-0.4-0.1-0.8-0.3-1.2c0.2,0,0.4,0,0.6,0c0.1,0,0.2,0,0.3-0.1c0.1-0.5,0.2-1,0.1-1.5L191.8,132.9z M194.1,130.8h-4.3v-1.5h4.3
		c-0.1-0.5-0.2-0.9-0.3-1.4l1.8-0.2c0.2,0.5,0.3,1.1,0.4,1.6h4.7v1.5h-4.3l1,0.3c-0.5,0.5-1.1,1.1-1.6,1.5h0.1v3.3h-1.4v-3.3l0,0
		l0,0c0.6-0.5,1.1-1.2,1.5-1.8h-1.5c0.2,0.4,0.4,0.8,0.5,1.2l-1.1,0.4c-0.1-0.5-0.3-0.9-0.6-1.3L194.1,130.8z M197.5,139.2v-0.9
		h-4.9c0,0.3,0,0.6-0.1,0.9H197.5z M200.3,132c-0.3,0.2-0.6,0.3-0.9,0.4c0.2,1,0.8,1.8,1.6,2.4c-0.3,0.3-0.6,0.6-0.8,0.9
		c-0.8-0.8-1.4-1.9-1.6-3l-0.6,0.2v1.5l0.8-0.2c0,0.3,0.1,0.6,0.2,0.9c-0.7,0.2-1.4,0.4-2,0.8l0,0c-0.1-0.4-0.3-0.8-0.5-1.1
		c0.2-0.1,0.4-0.4,0.4-1v-1.6c0.9-0.2,1.7-0.6,2.5-1.1L200.3,132z"/>
	<path class="st1" d="M217.8,139.9h-6.2v1.2c0,0.9-0.2,1.3-0.9,1.5c-0.9,0.2-1.8,0.3-2.8,0.2c-0.1-0.6-0.3-1.1-0.6-1.6
		c0.8,0,1.7,0,2,0s0.3,0,0.3-0.2v-1.1h-6.6v-1.5h6.6v-0.5c0.6-0.3,1.2-0.6,1.8-0.9h-5.2v-1.4h7l0.4-0.1l1.1,1c-1,0.7-2,1.3-3.1,1.9
		h6.1L217.8,139.9z M205.2,136.9h-1.8v-3.3h1.2l-0.3-4.8c1.1-0.2,2.2-0.5,3.3-0.9l0.8,1.1c-0.7,0.3-1.5,0.5-2.2,0.6v0.5h2.1v1.2h-2
		v0.6h2v0.8c0.4-0.2,0.8-0.4,1.1-0.6c-0.3-0.2-0.6-0.4-0.9-0.5l0.9-0.8c0.3,0.2,0.7,0.4,1,0.6c0.2-0.2,0.5-0.4,0.6-0.7l1.3,0.4
		c-0.3,0.4-0.5,0.7-0.9,1c0.4,0.2,0.7,0.5,1,0.8l-1,0.8c-0.3-0.3-0.6-0.5-0.9-0.8c-0.4,0.3-0.9,0.6-1.3,0.8h5.2l0.1-0.6h-1.9v-1.2h2
		v-0.6h-2V130h2.1v-0.5h-2.2v-1.2h4.1c-0.1,1.7-0.2,3.8-0.3,5.3h1.2v3.3h-1.9v-1.9H205L205.2,136.9z M206.4,133.6h2.6
		c-0.2-0.3-0.5-0.5-0.7-0.8v0.2h-1.9L206.4,133.6z M211.4,130.6c-0.3-0.2-0.5-0.5-0.8-0.7c-0.4,0.3-0.8,0.6-1.3,0.8
		c-0.3-0.3-0.6-0.6-1-0.9c0.4-0.2,0.8-0.4,1.2-0.6c-0.3-0.2-0.6-0.3-0.9-0.5l0.9-0.8c0.3,0.1,0.6,0.3,1,0.5c0.2-0.2,0.4-0.4,0.6-0.7
		l1.3,0.4c-0.2,0.3-0.5,0.6-0.8,0.9c0.3,0.2,0.6,0.4,0.8,0.6L211.4,130.6z"/>
	<path class="st0" d="M268.9,398.6c-33.4-16.3-64.4-45.2-67.1-83c-1.2-16.8,10.2-21.6,19.9-32.8c10.2-11.8,12.6-27.1,17.5-41.4
		c5.2-15.3,10.4-24.4,26.7-29.1l47.4-13.4c15-4.3,30.2-8.5,45.8-9.3s31.8,2.2,44.5,11.4c16.7,12.1,24.9,33.1,40.7,46.4
		c15.1,12.7,35.5,17,52.3,27.3c17.8,11,30.9,28.3,36.7,48.4c4.5,15.9,3.5,34.8-8,46.8c-7.2,7.6-17.5,11.3-27.4,14.8
		c-17.1,6.1-34,12.9-51,19.1c-15.3,5.6-32.9,13.8-49.3,13.4c-36.5-1-71.3,1.7-106.8-9.7C283.3,405.1,276,402.1,268.9,398.6z"/>
	<path class="st1" d="M298.3,291.1c2.8,5,6.9,9.1,11.8,11.9c-1.4,1.2-2.6,2.6-3.6,4.2c-4.1-2.8-7.5-6.5-10.1-10.7v13.7h-5.1v-13.5
		c-2.5,4.2-6,7.9-10.1,10.6c-1.1-1.5-2.3-2.9-3.6-4.1c5-2.9,9-7.1,11.6-12.1h-10v-4.8h12v-7.5h5.1v7.5h12.1v4.8L298.3,291.1z"/>
	<path class="st1" d="M342.7,302c-1.4,0.9-2.9,1.8-4.4,2.5c1.9,0.8,3.9,1.3,5.9,1.5c-1,1.1-1.9,2.4-2.6,3.8
		c-6.8-1.2-10.7-4.2-13.1-9.2c-1.3,1-2.6,1.8-4.1,2.5v2.5l5.2-1.1c-0.2,1.2-0.3,2.4-0.3,3.6c-7.4,1.6-8.6,2-9.3,2.4v-0.4
		c-0.3-1-0.8-1.9-1.4-2.8c0.8-0.6,1.4-1.5,1.5-2.6c-1.5,0.4-3.1,0.8-4.6,1c-0.7-1.2-1.5-2.4-2.5-3.4c3-0.3,6-1,8.9-2h-8.4v-3.7h13.1
		c-0.2-0.4-0.3-0.9-0.5-1.3h-0.9c-0.3-0.9-0.6-1.8-1.1-2.7c0.6,0,1.3,0,1.5,0s0.4-0.1,0.4-0.3v-0.8H324v4.6h-4v-4.6h-1.9v3.9h-3.6
		v-6.7h5.4v-0.8h-6.5v-3.1h1.9c-0.7-0.5-1.6-1-2.2-1.2c1.1-1.3,2-2.9,2.5-4.6l3.5,0.9c-0.1,0.4-0.3,0.8-0.4,1.1h1.2v-2h4v2h5.2v3
		H324v0.9h6v3.1h-6v0.8h5.7v3.6c0.1,0.7-0.1,1.3-0.4,1.9l1.2-0.3c0.5,0.9,0.9,1.8,1.2,2.7h11.8v3.7h-3.1L342.7,302z M320,284.7v-0.9
		h-2.7c-0.2,0.3-0.4,0.6-0.6,0.9H320z M335.8,291.5h-4.3v-11h4.3V291.5z M332.9,300.3c0.5,0.8,1.2,1.5,2,2.1
		c1.2-0.6,2.3-1.3,3.4-2.1H332.9z M342.4,292c0,2-0.4,2.9-1.7,3.5s-3,0.6-5.3,0.6c-0.3-1.3-0.7-2.6-1.4-3.7c1.3,0.1,2.9,0.1,3.4,0
		s0.6-0.1,0.6-0.5v-12.8h4.3L342.4,292z"/>
	<path class="st1" d="M378.8,305.7v3.8h-24.2v-3.8h9.6v-1.1h-6.6v-1.7c-0.5,0.6-1.1,1.1-1.6,1.6c-0.5-1.3-1-2.6-1.6-3.9
		c-0.4,3.5-1.5,7.2-3.5,9.9c-1.1-1.2-2.4-2.2-3.7-3.1c2.7-3.4,2.9-8.4,2.9-11.9v-5.3h4.6c-0.6-0.6-1.2-1.2-1.9-1.7
		c2.1-0.3,4.5-0.7,6.8-1.1c-1.8-0.4-3.6-0.8-5.3-1.1l2.1-1.5h-5.9v-3.7h11.1c-0.3-0.5-0.6-0.9-0.9-1.3l3.2-1.5
		c0.7,0.9,1.4,1.8,2,2.8h11.7v3.7h-4.8l1.8,1.1c-1.1,0.5-2.2,0.9-3.4,1.3c1.6,0.4,3.2,0.9,4.5,1.2l-2.1,1.7h4.9v3.8h-23.7v1.6
		c0,1.2,0,2.5-0.2,3.9c1.5-1.5,2.6-3.3,3.3-5.4l4,1.2c-0.1,0.3-0.2,0.6-0.3,0.9h2.7v-1.6h4.7v1.6h7.8v3.7h-7.8v1h6.7v3.6h-6.7v1.1
		L378.8,305.7z M364.2,301.1v-1h-4.5c-0.2,0.3-0.4,0.7-0.6,1H364.2z M370.3,290.4c-1.4-0.4-3-0.9-4.7-1.3c-2,0.5-4,0.9-5.9,1.3
		H370.3z M360.7,285c1.7,0.4,3.4,0.7,5.2,1.2c1.3-0.4,2.5-0.8,3.6-1.2H360.7z"/>
	<path class="st1" d="M383.4,295h13.1v15.1h-4.8v-1.5h-3.8v1.6h-4.5L383.4,295z M408,292.6h-20.2v-12.5H408V292.6z M387.9,299.6v4.4
		h3.8v-4.5L387.9,299.6z M403.1,284.7h-10.7v3.4h10.7L403.1,284.7z M412.2,295v15.1h-4.8v-1.5h-4v1.6h-4.6V295L412.2,295z
		 M407.4,304v-4.5h-4v4.5L407.4,304z"/>
	<path class="st1" d="M278.8,330.9c1.7-0.2,3.9-0.5,6.3-0.8v-2.9h-5.6v-2.4h5.6v-2h3.1v6.8l1.4-0.2l0.1,2.3
		c-3.7,0.6-7.6,1.3-10.5,1.8L278.8,330.9z M299.1,344.2c0,1.5-0.4,2.3-1.5,2.7c-1.5,0.4-3.1,0.6-4.7,0.5c-0.2-1-0.5-1.9-1-2.7
		c1.3,0.1,3,0.1,3.3,0.1s0.6-0.1,0.6-0.5v-1.8c-3.6,0.7-7.4,1.4-10.3,1.9l-0.9-2.7c2-0.2,4.7-0.7,7.6-1.2c-2.3-0.9-4.6-1.6-7-2
		l1.2-2.1c2.7,0.4,5.3,1.1,7.8,2.2l-1,1.8l2.6-0.5v-3.7H285v1.5c0,3.1-0.6,7.4-3.6,10c-0.7-0.8-1.5-1.5-2.3-2.1
		c2.7-2.3,2.9-5.5,2.9-7.9v-4h17.1L299.1,344.2z M298.6,330.2c0.8,0,1-0.3,1-2c0.9,0.5,1.8,0.8,2.8,1c-0.3,2.8-1.2,3.6-3.5,3.6h-3.7
		c-3.1,0-3.9-0.9-3.9-3.6v-6.5h3.2v2h6.1v2.4h-6.1v2c0,0.8,0.2,1,1.2,1L298.6,330.2z"/>
	<path class="st1" d="M314.1,329.4c-0.6,1.2-1.3,2.4-2.1,3.5v14.5h-2.9v-10.9c-0.5,0.6-1.1,1.1-1.7,1.6c-0.5-1-1-2-1.7-2.9
		c2.3-1.8,4.2-4.1,5.6-6.7L314.1,329.4z M313.6,323.9c-1.7,2.4-3.7,4.6-6,6.4c-0.5-0.8-1.1-1.5-1.7-2.3c1.9-1.5,3.6-3.2,4.9-5.2
		L313.6,323.9z M328.2,337.2c-0.9,2.3-2.4,4.4-4.4,5.9c2,0.8,4.1,1.4,6.2,1.7c-0.8,0.8-1.4,1.7-1.9,2.7c-2.5-0.4-4.9-1.3-7.2-2.5
		c-2.3,1.2-4.7,2-7.3,2.5c-0.4-1-0.8-1.9-1.5-2.7c2.1-0.3,4.1-0.9,6-1.7c-0.6-0.5-1.2-1-1.7-1.5c-0.5,0.5-1.1,0.9-1.7,1.4
		c-0.6-0.8-1.3-1.6-2-2.3c0.7-0.4,1.3-0.9,1.9-1.4c-0.5-0.7-1-1.5-1.4-2.3l2.5-0.8c0.2,0.4,0.4,0.9,0.7,1.3c0.7-0.8,1.3-1.6,1.8-2.5
		c-1.4,0-2.8,0.2-4.1,0.6c-0.2-1-0.5-1.9-0.9-2.8c1.1-0.2,2.1-0.7,3-1.3c0.8-0.4,1.6-0.9,2.4-1.4c-2.7,0.1-3.4,0.3-3.9,0.5
		c-0.2-0.7-0.7-2.1-1-3c0.6-0.2,1.2-0.5,1.8-0.9c1.6-1,3-2.3,4.2-3.7l3.1,1.4c-1.3,1.2-2.7,2.4-4.2,3.4l3.4,0c1-0.8,1.9-1.6,2.8-2.5
		l2.9,1.6c-2.6,2.1-5.3,4-8.3,5.6l5.5-0.3c-0.4-0.5-0.7-1-1.1-1.5l2.4-1.2c1.4,1.8,2.8,3.7,4,5.7l-2.6,1.5c-0.4-0.7-0.8-1.4-1.2-2.1
		l-4.8,0.3c-0.3,0.6-0.6,1.2-0.9,1.8h5l0.5-0.1L328.2,337.2z M319.1,338.9c-0.2,0.3-0.4,0.5-0.6,0.8c0.8,0.8,1.7,1.4,2.6,2
		c1.2-0.7,2.2-1.7,3-2.8L319.1,338.9z"/>
	<path class="st1" d="M357.4,326.9c0,0,0,1,0,1.4c-0.3,11.8-0.6,15.9-1.7,17.3c-0.6,0.8-1.5,1.3-2.5,1.4c-1.4,0.1-2.8,0.1-4.1,0
		c-0.1-1.1-0.5-2.1-1-3c1.7,0.2,3.2,0.2,3.9,0.2c0.4,0,0.9-0.1,1.2-0.5c0.8-0.8,1.1-4.8,1.4-14.1h-5.6c-0.6,1.5-1.4,2.9-2.3,4.1
		c-0.6-0.5-1.3-1-2-1.5v12.3h-7v1.9h-2.8V327h3c0.4-1.4,0.6-2.8,0.8-4.2l3.4,0.5c-0.5,1.3-0.9,2.6-1.4,3.8h4.1v4.3
		c1.7-2.6,2.9-5.5,3.5-8.5l3,0.7c-0.3,1.1-0.6,2.2-1,3.3L357.4,326.9z M341.6,329.8h-4.2v4.2h4.2V329.8z M341.6,341.9v-5.1h-4.2v5.1
		H341.6z M350.3,340.5c-1.1-2.1-2.3-4.1-3.6-6.1l2.5-1.4c1.4,1.9,2.7,3.8,3.9,5.8L350.3,340.5z"/>
	<path class="st1" d="M385.1,341.5c-1,0.5-2,1-3,1.5c1.1,0.8,2.3,1.4,3.6,1.7c-0.7,0.7-1.3,1.5-1.8,2.4c-3.3-1.1-5.9-3.7-7.1-7
		c-0.8,0.7-1.6,1.3-2.5,1.8v2.3l3.7-0.7c-0.1,0.8-0.1,1.5,0,2.3c-4.9,1-5.7,1.3-6.2,1.6c-0.2-0.7-0.6-1.5-1-2.1c0.7-0.3,1.1-1,1-1.8
		v-0.2c-0.7,0.3-1.5,0.5-2.2,0.8c-0.4-0.5-0.8-1-1.2-1.5v0.2c-2.4,0.7-5,1.4-7.1,2l-0.5-2.8c0.8-0.2,1.6-0.4,2.6-0.6v-6.5h-2V332h2
		v-4.9h-2.2v-2.7h7.1v2.7h-2.2v4.9h1.9v2.7h-1.9v5.8l2-0.5l0.2,1.8c1.9-0.5,3.7-1.2,5.4-2.1h-3v-5.8h13.1v5.8h-4.4
		c0.3,0.6,0.7,1.3,1.1,1.8c0.9-0.5,1.8-1.1,2.6-1.8L385.1,341.5z M385.2,332.9h-16.1v-2.5h16.1L385.2,332.9z M384.4,329.6h-14.3v-6
		h14.3V329.6z M374.2,325.8h-1.7v1.8h1.7V325.8z M373.4,337.5h7.4V336h-7.4V337.5z M378,325.8h-1.7v1.8h1.7L378,325.8z M381.7,325.8
		H380v1.8h1.7L381.7,325.8z"/>
	<path class="st1" d="M397.6,341c-2.7,1.1-5.7,2.3-8.1,3.3l-1-3.2c0.9-0.3,1.9-0.6,3-1V332H389v-3h2.5v-5.9h3v5.9h2.2v3h-2.2v7
		l2.4-0.9L397.6,341z M409.7,344.5c0.2,0,0.4,0,0.5,0c0.1,0,0.2-0.2,0.3-0.5s0.1-1,0.1-2c0.7,0.6,1.5,1,2.4,1.3
		c0,0.8-0.2,1.7-0.4,2.5c-0.2,0.5-0.6,0.8-1.1,1c-0.5,0.2-1.1,0.2-1.6,0.2h-1.7c-0.7,0-1.4-0.2-2-0.6c-0.5-0.5-0.7-1-0.7-2.6v-3.2
		h-1.9c-0.5,3.5-1.8,5.6-6.7,6.9c-0.4-0.9-0.9-1.7-1.6-2.4c4-0.8,5-2.1,5.4-4.5h-2.2v-7.9h12.6v7.9h-2.7v3.3c0,0.3,0,0.5,0.1,0.6
		c0.1,0.1,0.3,0.1,0.5,0.1H409.7z M412.4,331.7h-14.9v-2.6h3.2c-0.1-0.6-0.3-1.2-0.6-1.7l2.5-0.5c0.3,0.7,0.6,1.5,0.8,2.2h3
		c0.3-0.7,0.6-1.6,0.8-2.2l2.8,0.5c-0.3,0.6-0.6,1.2-0.9,1.7h3.3L412.4,331.7z M411.7,326.9h-13.5v-2.5h5.2
		c-0.2-0.4-0.3-0.9-0.5-1.2l2.9-0.5c0.2,0.5,0.5,1.2,0.7,1.8h5.1L411.7,326.9z M401.4,335.7h6.7v-1.1h-6.7V335.7z M401.4,338.6h6.7
		v-1.1h-6.7V338.6z"/>
	<path class="st1" d="M424.9,329.6h-8.6v-2.5h3.6c-0.3-1.2-0.8-2.4-1.3-3.5l2.2-0.8c0.6,1.1,1.1,2.3,1.5,3.5l-1.9,0.8h4.4V329.6z
		 M424.2,345.9h-4.8v1.1h-2.2v-9h7L424.2,345.9z M417.3,330.8h7v2.4h-7V330.8z M417.3,334.4h7v2.3h-7V334.4z M419.4,340.4v3.1h2.6
		v-3.1H419.4z M439.6,341.2c-0.7,1.1-1.5,2-2.5,2.9c0.2,0.6,0.8,0.9,1.4,1c0.4,0,0.7-0.7,0.7-2.1c0.5,0.5,1.1,0.8,1.8,1.1
		c-0.4,2.5-1.2,3.4-2.8,3.4c-1.3,0-2.5-0.7-3.1-1.9c-0.9,0.6-1.7,1-2.7,1.5c-0.4-0.6-0.9-1.1-1.5-1.6c1.2-0.5,2.3-1.1,3.3-1.8
		c-0.4-1.2-0.6-2.5-0.8-3.8h-2.5v1l2.1-0.2l0,2.2l-2.2,0.3v1.8c0,1.2-0.2,1.8-1,2.1c-1.1,0.3-2.3,0.5-3.5,0.4
		c-0.2-0.8-0.4-1.5-0.8-2.2c0.9,0,1.9,0,2.2,0s0.4-0.1,0.4-0.4v-1.3l-3.1,0.4l-0.3-2.4c1-0.1,2.2-0.2,3.4-0.3v-1.3h-3.3v-2.3h3.3
		v-1.1c-0.8,0.1-1.7,0.2-2.4,0.2c-0.1-0.6-0.3-1.2-0.6-1.8c2.2-0.2,4.3-0.5,6.4-1.1l1.6,1.8c0-0.5,0-1,0-1.5h2.6
		c0,1.2,0,2.4,0.1,3.5h2.7c-0.7-0.9-1.6-1.7-2.5-2.4l1.8-1.2c1,0.7,1.9,1.5,2.7,2.4l-1.7,1.2h1.9v2.3H436c0.1,0.7,0.2,1.3,0.3,2
		c0.5-0.5,0.9-1,1.2-1.6L439.6,341.2z M440.6,333.5h-15.7v-2.2h6.3v-1.1h-4.7v-2h4.7v-1h-5.5v-2.1h2.9c-0.3-0.6-0.6-1.1-1-1.6
		l2.2-0.8c0.6,0.7,1.1,1.6,1.5,2.4h3.2c0.5-0.8,0.9-1.6,1.2-2.4l2.7,0.7c-0.4,0.6-0.8,1.2-1.2,1.7h2.8v2.1h-5.8v1h5v2h-5v1.1h6.3
		L440.6,333.5z M433.2,337.5c0-0.7-0.1-1.3-0.1-2c-0.7,0.2-1.5,0.4-2.2,0.5v1.5H433.2z"/>
	<path class="st1" d="M451.8,343.8c1.9,0.5,3.9,0.7,5.8,0.6c1.8,0,9,0,11.1-0.1c-0.5,0.8-0.8,1.7-1,2.6h-10.1
		c-4.9,0-8.2-0.5-10.3-3.4c-0.3,1.5-0.9,2.8-1.8,4c-0.5-0.8-1.1-1.5-1.8-2.1c1.5-1.8,1.7-4.9,1.8-8.1h2.5c0,1-0.1,1.9-0.2,2.9
		c0.3,0.8,0.8,1.5,1.3,2.1v-6h-4.9V334H456v2.3h-4.3v2.2h3.8v2.3h-3.8L451.8,343.8z M454.9,332.5h-9.4v-8.7h9.4V332.5z M452,325.9
		h-3.8v1.2h3.8V325.9z M452,329.1h-3.8v1.3h3.8V329.1z M461.4,340.4c-1.3,1.6-2.8,2.9-4.6,3.8c-0.6-0.7-1.3-1.3-2-1.8
		c1.5-0.7,2.9-1.6,4-2.8L461.4,340.4z M460.1,327.5c0.2-0.5,0.3-1,0.5-1.4H456v-2.2h12v2.2h-4.6l-0.6,1.4h4.5v11.9h-10.5v-11.9
		L460.1,327.5z M464.3,329.6h-4.8v1.2h4.8V329.6z M464.3,332.8h-4.8v1.2h4.8V332.8z M464.3,336h-4.8v1.3h4.8V336z M464.7,339.5
		c1.4,0.9,2.7,2,3.8,3.3l-2.2,1.3c-1.1-1.3-2.4-2.5-3.8-3.5L464.7,339.5z"/>
	<line class="st2" x1="535.7" y1="311.7" x2="590.4" y2="302.4"/>
	<line class="st2" x1="233.3" y1="454.4" x2="274.2" y2="407.9"/>
	<line class="st2" x1="192.3" y1="165.4" x2="240.7" y2="227.4"/>
	<line class="st2" x1="458.5" y1="250.4" x2="509" y2="162.4"/>
	<line class="st2" x1="448.5" y1="410.6" x2="500.5" y2="487.4"/>
	<path class="st3" d="M525.1,186.7c0.8,0,1.6,0.1,2.5,0.2c21.6,2.3,21,33.4-0.7,34.9c-0.8,0.1-1.6,0.1-2.5,0.1
		c-17.9-0.4-32.1-18.2-32.1-18.2S507.2,186.4,525.1,186.7z"/>
	<path class="st0" d="M514.3,208.3c-1.5,0.5-3,1-4.3,1.4l-0.4-1.6l1.6-0.4v-3.1h-1.3v-1.4h1.3v-2.3h-1.5v-1.5h4.4v1.5h-1.4v2.3h1.2
		v1.4h-1.2v2.6c0.4-0.1,0.9-0.3,1.3-0.4L514.3,208.3z M522.2,209.1v1.4h-8.5v-1.4h3.7v-1.3h-2.7v-1.4h2.7v-1.1h-2.7v-6.2h6.9v6.2
		h-2.7v1.1h2.8v1.4h-2.8v1.3H522.2z M516.1,201.6h1.4v-1.1h-1.4V201.6z M516.1,203.9h1.4v-1.1h-1.4V203.9z M520.1,200.5h-1.3v1.1
		h1.3V200.5z M520.1,202.8h-1.3v1.1h1.3V202.8z"/>
	<path class="st0" d="M526,203.9c-0.4,0.7-0.9,1.4-1.5,1.9c-0.3-0.4-0.6-0.8-1-1.1c1-0.8,1.8-1.8,2.2-3h-1.9v-1.3h2.2v-1.9h1.5v1.9
		h1.9v1.3h-1.9v0.5c0.7,0.5,1.4,0.9,2.1,1.5l-0.8,1.3c-0.3-0.3-0.8-0.8-1.3-1.2v2.8H526V203.9z M523.6,209.5
		c0.5-0.8,0.9-1.8,1.2-2.7l1.4,0.6c-0.3,1-0.6,2-1.1,2.9L523.6,209.5z M531.2,209.3c0.6,0,0.7-0.2,0.8-1.5c0.4,0.3,0.9,0.5,1.4,0.6
		c-0.2,1.9-0.6,2.4-2.1,2.4h-2.4c-1.8,0-2.2-0.4-2.2-1.8V207h1.5v1.8c0,0.4,0.1,0.4,0.8,0.4L531.2,209.3z M529.6,206l0.3,0.2v-7h5.4
		v7.1H530c0.5,0.5,1.1,1,1.4,1.4l-1.1,1c-0.5-0.7-1.1-1.3-1.8-1.8L529.6,206z M531.3,201.2h2.4v-0.8h-2.4V201.2z M531.3,203.2h2.4
		v-0.8h-2.4V203.2z M531.3,205.1h2.4v-0.8h-2.4V205.1z M534.4,206.6c0.5,0.8,1.3,1.9,1.7,2.6l-1.5,0.8c-0.3-0.7-1-1.9-1.6-2.8
		L534.4,206.6z"/>
	<path class="st3" d="M235.5,165.8c0.5-0.7,1.1-1.3,1.6-1.9c14.9-15.8,39.3,3.5,27.4,21.6c-0.4,0.7-0.9,1.3-1.4,2
		c-11.1,14.1-33.9,14.6-33.9,14.6S224.4,179.8,235.5,165.8z"/>
	<path class="st0" d="M247.2,175.9c-0.3,1.6-0.9,3.1-1.9,4.4c0.7,0.6,1.5,1,2.4,1.4c-0.4,0.4-0.7,0.8-1,1.3
		c-0.9-0.4-1.7-0.9-2.4-1.5c-0.7,0.6-1.5,1.1-2.3,1.5c-0.2-0.4-0.5-0.8-0.8-1.2c0.8-0.3,1.5-0.8,2.2-1.4c-0.6-0.7-1.1-1.6-1.4-2.4
		c-0.1,1.8-0.5,3.5-1.4,5c-0.4-0.3-0.8-0.6-1.2-0.8c0.2-0.3,0.3-0.5,0.4-0.8h-2.2v1h-1.4v-4.1c-0.2,0.2-0.3,0.5-0.5,0.7
		c-0.1-0.6-0.3-1.3-0.6-1.9c0.9-1.3,1.5-2.9,1.8-4.5h-1.4v-1.5h4.6v1.4h-1.7c-0.2,0.9-0.4,1.8-0.7,2.7h2.2v6
		c0.6-1.7,0.9-3.4,0.8-5.2v-3.6h2.6v-1.9h1.4v1.9h1.6h0.2l1,0.2c-0.2,1-0.4,1.9-0.7,2.8l-1.2-0.3c0.1-0.4,0.2-0.8,0.3-1.3h-1.2v1.8
		h1.4l0.2-0.1L247.2,175.9z M238.5,176.6h-0.9v3.3h0.9V176.6z M242,173.8v1.8h1.2v-1.8H242z M243,177c0.3,0.8,0.8,1.6,1.3,2.3
		c0.5-0.7,0.9-1.4,1.2-2.2L243,177z"/>
	<path class="st0" d="M253.8,171.6c-0.3,1.1-0.7,2.5-1.1,3.5c0.6,0.8,0.9,1.7,0.9,2.7c0.1,0.6-0.1,1.3-0.6,1.8
		c-0.2,0.2-0.5,0.3-0.7,0.3c-0.3,0-0.6,0-0.9,0c0-0.5-0.1-0.9-0.3-1.4c0.2,0,0.4,0,0.6,0c0.1,0,0.2,0,0.3-0.1
		c0.2-0.2,0.3-0.5,0.2-0.8c0-0.9-0.3-1.7-0.8-2.4c0.2-0.8,0.5-1.9,0.7-2.8h-1v10.4h-1.4V171h2.9l0.2-0.1L253.8,171.6z M256.2,179.2
		c-0.5,1.1-1.1,2.1-1.9,2.9c-0.4-0.3-0.8-0.6-1.2-0.9c0.7-0.7,1.3-1.5,1.7-2.4L256.2,179.2z M258.5,178.4v2.9c0,0.7-0.1,1.1-0.6,1.4
		c-0.6,0.2-1.3,0.3-2,0.3c-0.1-0.5-0.3-1-0.5-1.4c0.6,0,1.2,0,1.3,0s0.2-0.1,0.2-0.2v-2.8h-3.1V177h3.1v-1.1h-2.1V175
		c-0.2,0.1-0.4,0.2-0.5,0.3c-0.3-0.4-0.6-0.8-1-1.1c1.7-0.8,3.1-2.2,4.1-3.8l1.3,0.5c-0.1,0.2-0.2,0.4-0.3,0.5c1,1.1,2.2,2,3.5,2.6
		c-0.4,0.4-0.7,0.8-1,1.3c-0.2-0.1-0.4-0.2-0.6-0.4v1h-1.7v1.1h3v1.4L258.5,178.4z M259.7,174.5c-0.8-0.6-1.5-1.3-2.2-2.1
		c-0.6,0.8-1.3,1.5-2.1,2.1H259.7z M260,178.7c0.7,0.8,1.3,1.6,1.8,2.6l-1.2,0.7c-0.5-1-1-1.9-1.7-2.7L260,178.7z"/>
	<path class="st3" d="M603.8,337.7c0.5,0.7,1,1.3,1.4,2c11.9,18.2-12.5,37.5-27.4,21.6c-0.6-0.6-1.1-1.2-1.6-1.9
		c-11.1-14.1-6.3-36.4-6.3-36.4S592.7,323.6,603.8,337.7z"/>
	<path class="st0" d="M587.7,349.7h-5.2v4.3h-1.6v-4.4h-5.2V348h5.2v-4h-4.5v-1.5h10.5v1.6h-4.4v4h5.2L587.7,349.7z M578.6,344.5
		c0.5,0.9,0.8,1.8,1.1,2.7l-1.5,0.5c-0.2-1-0.6-1.9-1-2.8L578.6,344.5z M583.5,347.2c0.5-0.9,0.9-1.8,1.2-2.8l1.7,0.4
		c-0.4,1-0.9,1.9-1.5,2.8L583.5,347.2z"/>
	<path class="st0" d="M593.1,346c-0.1-0.1-0.3-0.3-0.5-0.4c-0.2,0.3-0.3,0.7-0.5,1v7.4h-1.4v-5.4c-0.2,0.3-0.5,0.5-0.7,0.8
		c-0.2-0.5-0.5-1-0.8-1.4c1-1,1.8-2.2,2.4-3.5l1,0.4c0.7-0.9,1.2-1.9,1.5-3l1.4,0.2c-0.1,0.2-0.2,0.5-0.2,0.7h1.3l0.2,0l0.9,0.6
		c-0.2,0.5-0.5,1-0.7,1.5h1.2v4.6h-5L593.1,346z M592.8,342.2c-0.7,1.2-1.7,2.3-2.7,3.2c-0.2-0.4-0.5-0.8-0.8-1.2
		c0.8-0.7,1.6-1.6,2.1-2.5L592.8,342.2z M596.6,351.2c0.6,0.4,1.1,0.9,1.5,1.4l-1,1c-0.4-0.5-1-1-1.5-1.5c-0.5,0.9-1.3,1.6-2.3,1.9
		c-0.2-0.4-0.4-0.8-0.8-1.1c0.9-0.2,1.6-0.8,2-1.7h-1.8V350h2.1v-0.5h1.3v0.5h2.1v1.2L596.6,351.2z M594.2,346.5h0.8v-0.7h-0.8
		L594.2,346.5z M594.2,348.2h0.8v-0.7h-0.8L594.2,348.2z M594.7,343.9c-0.1,0.3-0.3,0.6-0.4,0.9h1.3c0.1-0.2,0.2-0.5,0.4-0.9H594.7z
		 M596.9,345.8h-0.8v0.7h0.8V345.8z M596.9,347.5h-0.8v0.7h0.8V347.5z M601.7,347.2h-0.9v5.2c0,0.7-0.1,1.1-0.5,1.3
		c-0.5,0.2-1.1,0.3-1.7,0.3c0-0.5-0.2-1-0.4-1.4h1c0.2,0,0.2,0,0.2-0.2v-5.2h-1v-1.4h3.3L601.7,347.2z M601.4,343.9h-2.8v-1.4h2.8
		V343.9z"/>
	<path class="st3" d="M205.7,432.5c-0.7-0.5-1.3-1.1-1.9-1.6c-15.8-15,3.6-39.3,21.8-27.3c0.7,0.5,1.3,0.9,2,1.5
		c14,11.2,14.4,34,14.4,34S219.7,443.7,205.7,432.5z"/>
	<path class="st0" d="M216.1,420.9h-5.2v4.4h-1.6v-4.4h-5.2v-1.6h5.1v-4h-4.5v-1.6h10.5v1.6h-4.4v4h5.2L216.1,420.9z M207,415.6
		c0.5,0.9,0.8,1.8,1.1,2.7l-1.5,0.5c-0.2-1-0.6-1.9-1-2.8L207,415.6z M211.9,418.4c0.5-0.9,0.9-1.8,1.1-2.8l1.7,0.4
		c-0.4,1-0.9,1.9-1.5,2.8L211.9,418.4z"/>
	<path class="st0" d="M221.5,417.1c-0.1-0.1-0.3-0.3-0.4-0.4c-0.2,0.3-0.3,0.7-0.5,1v7.5h-1.4v-5.4c-0.2,0.3-0.4,0.5-0.7,0.8
		c-0.2-0.5-0.5-1-0.9-1.4c1-1,1.8-2.2,2.4-3.5l1,0.4c0.7-0.9,1.2-1.9,1.5-3l1.4,0.2c-0.1,0.2-0.2,0.5-0.2,0.7h1.3l0.2,0l0.9,0.6
		c-0.2,0.5-0.5,1-0.7,1.5h1.1v4.6h-5V417.1z M221.2,413.4c-0.7,1.2-1.7,2.3-2.7,3.2c-0.2-0.4-0.5-0.8-0.8-1.2
		c0.8-0.7,1.6-1.6,2.1-2.5L221.2,413.4z M225,422.4c0.6,0.4,1.1,0.9,1.5,1.4l-1,1c-0.4-0.5-1-1-1.5-1.5c-0.5,0.9-1.3,1.6-2.3,1.9
		c-0.2-0.4-0.4-0.8-0.8-1.1c0.9-0.2,1.6-0.8,2-1.7h-1.8v-1.2h2.1v-0.5h1.4v0.5h2.1v1.2L225,422.4z M222.6,417.6h0.8V417h-0.8V417.6z
		 M222.6,419.4h0.8v-0.7h-0.8V419.4z M223.1,415c-0.1,0.3-0.3,0.6-0.4,0.9h1.3c0.1-0.2,0.2-0.5,0.4-0.9H223.1z M225.3,416.9h-0.8
		v0.7h0.8V416.9z M225.3,418.6h-0.8v0.7h0.8V418.6z M230.1,418.3h-0.9v5.2c0,0.7-0.1,1.1-0.5,1.3c-0.5,0.2-1.1,0.3-1.7,0.3
		c0-0.5-0.2-1-0.4-1.4h1c0.1,0,0.2,0,0.2-0.2v-5.2h-1v-1.4h3.3L230.1,418.3z M229.8,415h-2.8v-1.4h2.8V415z"/>
	<path class="st3" d="M448,445c-0.7,0-1.3,0-1.9,0.1c-16.9,1.8-16.5,26,0.4,27.3c0.7,0,1.3,0.1,1.9,0.1c14-0.2,25.1-14.1,25.1-14.1
		S462,444.8,448,445z"/>
	<path class="st0" d="M446,450.8c1-0.6,2.2-0.9,3.4-0.9c1.6-0.1,3.1,0.4,4.4,1.3c1.2,0.9,1.9,2.3,1.8,3.8c0,0.9-0.2,1.8-0.8,2.6
		c-0.5,0.6-1.1,1.2-1.7,1.6l-0.8,0.6c-0.4,0.3-0.7,0.7-0.9,1.2c-0.1,0.5-0.2,0.9-0.1,1.4H448c0-0.9,0.1-1.9,0.4-2.8
		c0.4-0.7,0.9-1.3,1.6-1.8l0.9-0.7c0.3-0.2,0.5-0.4,0.7-0.7c0.3-0.4,0.5-0.9,0.5-1.4c0-0.6-0.2-1.2-0.5-1.6
		c-0.5-0.5-1.2-0.8-1.9-0.7c-0.8-0.1-1.5,0.3-1.9,0.9c-0.4,0.6-0.6,1.2-0.6,1.9h-3.4C443.8,453.3,444.6,451.7,446,450.8z M448,464
		h3.5v3.4H448V464z"/>
	<line class="st2" x1="561" y1="307.4" x2="571.1" y2="326.1"/>
	<line class="st2" x1="484.9" y1="204.3" x2="495.5" y2="203.1"/>
	<line class="st2" x1="226.1" y1="208.7" x2="230.9" y2="198.2"/>
	<line class="st2" x1="246.1" y1="440" x2="238.3" y2="436.1"/>
	<line class="st2" x1="471" y1="458.3" x2="480.8" y2="458.2"/>
</g>
</svg>
