<?xml version="1.0" encoding="utf-8"?>
<!-- Generator: Adobe Illustrator 20.1.0, SVG Export Plug-In . SVG Version: 6.00 Build 0)  -->
<svg version="1.1" id="圖層_1" xmlns="http://www.w3.org/2000/svg" xmlns:xlink="http://www.w3.org/1999/xlink" x="0px" y="0px"
	 viewBox="0 0 1280 650" style="enable-background:new 0 0 1280 650;" xml:space="preserve">
<style type="text/css">
	.st0{fill:#6BFFBA;}
	.st1{fill:#004864;}
	.st2{fill:none;stroke:#00364B;stroke-width:4.52;stroke-linecap:round;stroke-miterlimit:10;}
	.st3{fill:#00364B;}
	.st4{fill:#1B4B5E;}
</style>
<title>Topic Tree</title>
<g id="圖層_1_1_">
	<path class="st0" d="M182.3,260.4h131.4c23,0,41.6,18.6,41.6,41.6l0,0c0,23-18.6,41.6-41.6,41.6H182.3c-23,0-41.6-18.6-41.6-41.6
		l0,0C140.7,279,159.3,260.4,182.3,260.4z"/>
	<path class="st0" d="M379.7,125.7h208.5c19.4,0,35.2,15.8,35.2,35.2v0c0,19.4-15.8,35.2-35.2,35.2H379.7
		c-19.4,0-35.2-15.8-35.2-35.2v0C344.6,141.4,360.3,125.7,379.7,125.7z"/>
	<path class="st0" d="M371.4,407.9h225.2c25.2,0,45.5,20.4,45.5,45.5v0c0,25.2-20.4,45.5-45.5,45.5H371.4
		c-25.2,0-45.5-20.4-45.5-45.5v0C325.8,428.3,346.2,407.9,371.4,407.9z"/>
	<path class="st0" d="M495,266.8h112c19.4,0,35.2,15.8,35.2,35.2v0c0,19.4-15.8,35.2-35.2,35.2H495c-19.4,0-35.2-15.8-35.2-35.2v0
		C459.8,282.5,475.6,266.8,495,266.8z"/>
	<path class="st1" d="M194.9,281.1c0,12.3,0,16.4-0.7,17.6c-0.4,0.7-1.2,1.2-2.1,1.4c-1.2,0.1-2.4,0.1-3.5,0.1
		c-0.1-1-0.4-1.9-0.9-2.7c1.4,0.1,2.6,0.1,3.1,0.1c0.4,0,0.7-0.1,0.9-0.5c0.5-0.7,0.6-4.5,0.6-14.6h-8.1c-0.6,1-1.2,2-2,2.9h1.3v6.1
		c0.7-1,1.3-2.1,1.8-3.2c-0.6-1.3-1.4-2.6-2.1-3.7l1.7-0.7c0.4,0.7,0.9,1.4,1.4,2.2c0.3-0.8,0.6-1.6,0.9-2.4l1.9,0.6
		c-0.5,1.3-1.1,2.6-1.7,3.9c0.6,1.3,1.2,2.5,1.7,3.6v-6.4h2.2v10.8h-10.1v-10.8h0.4c-0.4-0.4-0.9-0.8-1.3-1.1v12.8
		c0,1.2-0.2,1.9-0.9,2.4c-1,0.5-2,0.6-3.1,0.5c-0.1-0.9-0.3-1.7-0.7-2.5c0.8,0,1.7,0,1.9,0s0.4-0.1,0.4-0.4v-5.8
		c-0.5,0.5-1,1-1.5,1.5l-0.7-1.7c-0.1,3.1-0.7,6.2-1.7,9.2c-0.6-0.6-1.3-1.2-2-1.7c1.4-3.4,1.5-8.4,1.5-12v-9h6.9v5.4
		c1.5-1.8,2.6-4,3.1-6.3l2.9,0.7c-0.2,0.8-0.5,1.6-0.8,2.4h9.5L194.9,281.1z M175.7,286.5c0,1,0,2.3-0.1,3.6
		c0.6-0.4,1.4-0.9,2.2-1.5v-2.5l-0.9,0.6c-0.4-0.6-0.8-1.2-1.2-1.8L175.7,286.5z M175.7,280.2v3.2l0.8-0.5c0.4,0.5,0.9,1,1.3,1.5
		v-4.1L175.7,280.2z M187.5,293.2c-0.3-0.8-0.7-1.8-1.2-2.8c-0.6,1.1-1.1,2.1-1.7,2.9c-0.4-0.3-0.8-0.6-1.2-0.9v1.4h5.7v-1.4
		L187.5,293.2z"/>
	<path class="st1" d="M210.4,282.6c-0.5,1.2-1,2.5-1.5,3.6h2.9v2.7h-13.2v-2.7h3.2c-0.3-1.2-0.7-2.4-1.2-3.5l2-0.5h-3.4v-2.7h4.8
		c-0.2-0.7-0.5-1.5-0.8-2.2l2.7-0.8c0.5,1,0.9,2,1.2,3h4.2v2.7h-2.9L210.4,282.6z M199.8,290.6h11.1v9.4H208v-1h-5.4v1.1h-2.8
		L199.8,290.6z M202.6,293.3v3.1h5.4v-3.1L202.6,293.3z M203.2,282.1c0.6,1.1,1,2.3,1.4,3.6l-1.5,0.4h3c0.6-1.3,1-2.6,1.4-4
		L203.2,282.1z M221.8,279c-0.9,2.4-1.9,5.3-2.8,7.5c1.5,1.6,2.4,3.7,2.4,5.9c0,1.8-0.4,3-1.3,3.7c-0.5,0.3-1.1,0.5-1.7,0.6
		c-0.6,0.1-1.3,0.1-1.9,0c-0.1-1-0.3-1.9-0.7-2.8c0.6,0,1.1,0,1.4,0c0.3,0,0.7-0.1,0.9-0.2c0.4-0.2,0.6-0.9,0.6-1.7
		c-0.1-2-1-3.8-2.4-5.2c0.7-1.8,1.5-4.4,2.1-6.3h-2.8V300h-2.6v-22.1h6.5l0.4-0.1L221.8,279z"/>
	<path class="st1" d="M232.5,293.5h-4.4v2.1h-2.6v-16.4h7L232.5,293.5z M228.1,281.9v8.8h1.7v-8.8H228.1z M248,291.5h-6v5.2
		c0,1.6-0.4,2.4-1.4,2.8c-1.4,0.5-3,0.7-4.5,0.5c-0.2-1-0.6-2-1.1-2.9c1.4,0.1,2.8,0.1,3.3,0s0.6-0.1,0.6-0.5v-5.1h-5.7v-2.8h5.7
		v-7.9c-1.8,0.2-3.5,0.3-5.1,0.4c-0.2-0.9-0.4-1.7-0.8-2.5c4.1-0.2,8.3-0.8,12.3-1.8l2,2.4c-1.8,0.5-3.6,0.8-5.4,1.1v8.2h6
		L248,291.5z M236,281.9c0.9,1.7,1.5,3.6,1.9,5.5l-2.6,0.9c-0.3-1.9-0.8-3.8-1.7-5.6L236,281.9z M242.6,287.5c0.9-1.9,1.6-3.9,2.1-6
		l2.9,0.8c-0.8,2-1.7,4.1-2.7,6L242.6,287.5z"/>
	<path class="st1" d="M254.5,294v2h-2.7v-17.4h7.3V294H254.5z M254.5,281.4v9.8h2v-9.8H254.5z M274,285.5c-0.5,3.4-1.8,6.6-3.8,9.4
		c1.4,1.2,3,2.2,4.7,2.8c-0.7,0.7-1.4,1.5-1.9,2.4c-1.7-0.7-3.3-1.8-4.7-3.1c-1.4,1.3-3,2.3-4.8,3.1c-0.5-0.9-1.1-1.7-1.9-2.4
		c1.7-0.6,3.3-1.6,4.7-2.8c-1.1-1.5-2-3.2-2.8-4.9c-0.7,4-2.1,7.8-4.6,10.2c-0.6-0.7-1.3-1.4-2.1-2c4-3.8,4.6-11.3,4.7-17.5h-1.7
		V278h9.4l0.5-0.1l2.1,0.3c-0.2,2.1-0.7,4.5-1.1,6.8h1l0.5-0.1L274,285.5z M264.5,280.7c0,1.4-0.1,2.8-0.2,4.2h3.6
		c0.3-1.4,0.5-2.9,0.8-4.2H264.5z M265.5,287.6c0.7,1.8,1.6,3.6,2.8,5.1c1.1-1.5,1.9-3.3,2.4-5.1H265.5z"/>
	<path class="st1" d="M297.8,278.2v21.6h-3.2v-1.6h-11.1v1.6h-3.1v-21.6H297.8z M283.5,281.2v5.4h11.1v-5.4H283.5z M294.6,295.2
		v-5.6h-11.1v5.6H294.6z"/>
	<path class="st1" d="M309.1,280.4h5v2.4h-10.5v-2.4h4.3c-0.4-1-1-1.9-1.7-2.8l2.4-1.1c0.8,0.9,1.4,2,1.9,3.1L309.1,280.4z
		 M304.4,287.7h8.9v2.3h-8.9V287.7z M312.9,298.9h-5.5v1h-2.6v-8.6h8L312.9,298.9z M312.9,284.1v2.2h-8v-2.2H312.9z M307.4,293.6
		v2.9h2.9v-2.9H307.4z M322.9,297c1.1,0,1.3-0.6,1.5-3.7c0.8,0.5,1.8,0.9,2.8,1.2c-0.4,4.1-1.2,5.4-4,5.4h-4.1c-3.1,0-4.1-0.9-4.1-4
		V286h7.8v-5.2H315v-2.8h10.8v12.1h-3v-1.2H318v6.9c0,1,0.2,1.2,1.4,1.2L322.9,297z"/>
	<path class="st1" d="M222.5,308.8h3.3v10.9c0,5-0.6,9.7-5.5,12.5c-0.7-1-1.6-1.8-2.6-2.6c2.1-1,3.7-2.9,4.3-5.2
		c-0.8,0.6-1.5,1.2-2.2,1.8l-1.8-3.1c1.1-0.6,2.8-1.7,4.4-2.8l0.1,0.3v-3.3l-1.4,0.9c-0.6-1.4-1.2-2.9-2-4.2v2.4h-1.9v2.4l1.7-0.6
		l0.7,3.2c-0.8,0.3-1.6,0.6-2.4,1v6.2c0,1.6-0.2,2.5-1.1,3.1c-1.1,0.6-2.4,0.8-3.7,0.7c-0.1-1.2-0.4-2.3-0.9-3.4c0.6,0,1.3,0,1.9,0
		c0.3,0,0.4-0.1,0.4-0.4v-5l-1.9,0.7l-0.9-3.5c0.8-0.2,1.8-0.5,2.8-0.9v-3.6h-2.5v-3.3h2.5v-4.6h3.3v4.6h1.6l2.5-1.4
		c0.4,0.6,0.8,1.3,1.1,2L222.5,308.8z M231.7,328.9c0.4,0,0.5-0.7,0.6-3.1c0.9,0.6,1.9,1.1,3,1.4c-0.3,3.5-1.2,4.9-3.3,4.9h-2
		c-2.5,0-3.2-1-3.2-4.7v-18.6h3.4v6.3c0.6-1.2,1-2.5,1.4-3.8l3.2,1.7c-1.1,1.9-2.1,3.9-3,5.3l-1.6-0.9v2.6l0.9-0.9
		c1.6,1.3,3,2.8,4.3,4.4l-2.2,2.5c-0.8-1.2-1.8-2.4-2.8-3.4v4.8c0,1.2,0,1.4,0.5,1.4L231.7,328.9z"/>
	<path class="st1" d="M261.1,319.7c-0.8,2.4-2,4.7-3.4,6.9c0.3,0.9,0.6,1.3,0.9,1.4s0.5-1,0.6-3.2c0.8,0.8,1.6,1.5,2.6,2.1
		c-0.7,4.6-2.2,5.5-3.3,5.5c-1.4-0.1-2.5-1-3.4-2.8c-1,1-2.1,1.8-3.3,2.5c-0.8-1-1.6-1.8-2.6-2.5c0.3-0.1,0.6-0.3,1-0.5h-4v3.3h-3.5
		V329h-5.2v-3.2h5.2v-1h-4.2v-9.5h12.1v9.5h-4.4v1h5v2.6c1-0.7,1.9-1.5,2.8-2.5c-0.5-2.3-0.8-4.6-1-7l-1.7,0.2l-0.4-3.4l1.9-0.2
		c-0.1-2.1-0.2-4.4-0.2-6.9h3.4c0,2.3,0.1,4.4,0.2,6.5l5.1-0.6l0.4,3.4l-3.2,0.4L261.1,319.7z M244.2,314.7h-5.9v-5.6h5.9V314.7z
		 M241.6,311.3h-0.8v1.1h0.8V311.3z M241.6,318.9h1.4V318h-1.5L241.6,318.9z M241.6,322.3h1.4v-0.9h-1.5L241.6,322.3z M250.9,314.7
		H245v-5.6h5.9V314.7z M247.6,318H246v0.9h1.5L247.6,318z M247.6,321.3H246v0.9h1.5L247.6,321.3z M248.2,311.3h-0.8v1.1h0.8V311.3z
		 M258.5,314.6c-0.5-1.6-1.2-3-2.1-4.4l2.8-1.4c0.9,1.3,1.7,2.8,2.2,4.3L258.5,314.6z M256.4,318.5c0.1,1.3,0.2,2.5,0.4,3.5
		c0.6-1.2,1.2-2.5,1.6-3.8L256.4,318.5z"/>
	<path class="st1" d="M283.4,329H282c1.8,0.5,3.6,1,4.8,1.4l-3,2c-2.3-0.9-4.7-1.6-7.1-2.3l1.3-1h-4.1l1.4,1c-2.7,1.2-5.5,2-8.5,2.3
		c-0.7-0.8-1.4-1.6-2.2-2.4c1.8-0.2,3.6-0.5,5.3-1h-1.5v-5c-0.8,0.4-1.7,0.8-2.6,1c-0.6-1-1.3-1.8-2.1-2.6c1.8-0.4,3.6-1.1,5.2-2
		h-4.2V318h5.8v-0.5h-2.8v-1.7h2.8v-0.5h-3.1v-1.1h-2.7v-4.4h9.3c-0.1-0.3-0.2-0.5-0.3-0.8l3.7-1c0.3,0.5,0.6,1.1,0.8,1.7h8.6v4.4
		h-2.6v1.1h-3.2v0.5h3.1v1.7h-3.1v0.5h5.9v2.4h-3.3c1.3,0.6,2.8,1.1,4.2,1.5c-0.9,0.8-1.6,1.7-2.2,2.7c-0.8-0.3-1.6-0.6-2.4-1
		L283.4,329z M270.7,313.4v-0.7h3.3v0.7h3.8v-0.7h3.4v0.7h2.3v-0.9h-15.3v0.9H270.7z M279.9,323.1v-0.5h-8.1v0.5H279.9z
		 M279.9,325.2v-0.5h-8.1v0.5H279.9z M271.8,326.8v0.5h8.1v-0.5H271.8z M273.3,320.5l-0.5,0.5h6.8c-0.2-0.1-0.3-0.3-0.5-0.5H273.3z
		 M274,315.8h3.8v-0.5H274L274,315.8z M274,318.1h3.8v-0.5H274L274,318.1z"/>
	<path class="st1" d="M373.2,153.6c-0.3,1.2-0.7,2.3-1.2,3.4v11.8h-1.1v-9.5c-0.4,0.6-0.8,1.3-1.2,1.9c-0.2-0.4-0.4-0.9-0.6-1.3
		c1.5-1.9,2.5-4.1,3.1-6.5L373.2,153.6z M376.9,159.6c-0.1,2-0.5,4-1.3,5.9c1.6,1.7,3.8,2.1,6.2,2.1c0.5,0,2.3,0,2.9,0
		c-0.2,0.3-0.3,0.7-0.4,1.1h-2.6c-2.6,0-4.9-0.4-6.6-2.1c-0.5,0.9-1.2,1.7-2,2.4c-0.2-0.3-0.5-0.6-0.8-0.8c0.9-0.6,1.6-1.5,2.1-2.4
		c-0.7-1-1.2-2-1.5-3.1l0.9-0.4c0.2,0.9,0.6,1.7,1,2.4c0.4-1.3,0.7-2.6,0.9-4h-2.6c0.6-1.3,1.4-3.2,2-4.9h-1.9v-1.1h3.4
		c-0.6,1.6-1.3,3.5-2,4.9h1.4h0.1L376.9,159.6z M379.7,158h-3v-1h3v-1.3h-2.2v-1h2.2v-1.4h1.1v1.4h2.6v2.3h1.2v1h-1.2v2.3h-2.6v1.2
		h2.9v1h-2.9v1.3h3.5v1h-3.5v2h-1.1v-2h-2.9v-1h2.9v-1.3h-2.5v-1h2.5v-1.2h-2.2v-1h2.2V158z M380.8,157h1.6v-1.3h-1.6V157z
		 M382.4,158h-1.6v1.3h1.6V158z"/>
	<path class="st1" d="M396.3,164.6l1.2,0.5c1-0.6,1.9-1.3,2.8-2.1l1,0.7c-0.9,0.7-1.8,1.3-2.7,1.8c1.2,0.5,2.4,1,3.5,1.6l-0.6,0.9
		c-1.7-0.9-3.4-1.8-5.2-2.5v1.8c0,0.8-0.2,1.1-0.7,1.3c-0.9,0.2-1.9,0.3-2.9,0.2c-0.1-0.4-0.2-0.7-0.4-1.1c1,0.1,2.1,0,2.4,0
		s0.4-0.1,0.4-0.4v-1.8c-1.8,0.8-3.6,1.6-5.1,2.2l-0.5-1c1.4-0.5,3.5-1.3,5.6-2.2v-1.9h-4.5v-0.9h4.5v-1.4H390v-1h5.1v-1.3h-4.3
		v-0.9h4.3v-1.3h-5.6v3.9c0,2.6-0.2,6.5-1.6,9c-0.3-0.3-0.6-0.5-1-0.7c1.3-2.4,1.5-5.9,1.5-8.4v-5h6.6c-0.2-0.4-0.5-0.9-0.8-1.3
		l1.2-0.4c0.4,0.5,0.7,1.1,1,1.6h5.9v1.1h-6v1.3h4.5v2.1h1.7v1.1h-1.7v2.2h-4.5L396.3,164.6z M391.1,162.8c0.9,0.5,1.7,1.1,2.5,1.7
		l-0.7,0.8c-0.8-0.7-1.6-1.3-2.5-1.8L391.1,162.8z M396.3,159.4h3.3v-1.3h-3.3V159.4z M396.3,161.8h3.3v-1.4h-3.3V161.8z"/>
	<path class="st1" d="M415,162.6l-1.2,1c-1.1-1.4-2.4-2.6-3.8-3.8l1.1-1C412.6,159.9,413.8,161.2,415,162.6z"/>
	<path class="st1" d="M428.6,157.2h-6v-1.1h6V157.2z M428.2,159.4h-5.1v-1h5.1V159.4z M423.1,160.7h5.1v1h-5.1V160.7z M428.1,167.9
		h-4v0.8H423V163h5L428.1,167.9z M424.1,164v2.8h2.9V164L424.1,164z M425.4,156c-0.3-0.8-0.6-1.6-1-2.3l1.1-0.4
		c0.4,0.7,0.8,1.5,1.1,2.2L425.4,156z M428.1,166.7c0.6-1.1,1-2.3,1.2-3.6l0.9,0.3c-0.2,1.3-0.6,2.5-1.2,3.7L428.1,166.7z
		 M433.9,155c-0.3,3.1-1.2,5.6-4.3,7c-0.2-0.3-0.4-0.7-0.7-0.9c1.3-0.5,2.4-1.4,3-2.7c-0.6-0.6-1.7-1.6-2.5-2.2l0.7-0.7
		c0.7,0.6,1.6,1.3,2.2,1.9c0.2-0.8,0.4-1.6,0.4-2.4h-3.5v-1h8.3c0,0,0,0.4,0,0.5c-0.2,4.3-0.4,5.8-0.8,6.4c-0.3,0.3-0.7,0.5-1.1,0.5
		c-0.6,0-1.3,0-1.9,0c0-0.4-0.2-0.8-0.4-1.1c0.8,0.1,1.5,0.1,1.8,0.1c0.2,0,0.4,0,0.6-0.2c0.3-0.3,0.4-1.6,0.6-5.1L433.9,155z
		 M434.4,167.4c0.6,0,0.7-0.3,0.7-2.3c0.3,0.2,0.6,0.3,1,0.4c-0.1,2.3-0.4,2.9-1.6,2.9h-2.1c-1.3,0-1.7-0.3-1.7-1.5v-4.1h1.1v4.1
		c0,0.4,0.1,0.5,0.7,0.5L434.4,167.4z M432.8,161.6c0.7,0.7,1.3,1.6,1.9,2.4l-0.8,0.6c-0.5-0.9-1.1-1.7-1.8-2.5L432.8,161.6z
		 M436.8,162.5c0.6,1.1,1.1,2.3,1.5,3.5l-1,0.4c-0.4-1.2-0.8-2.4-1.4-3.6L436.8,162.5z"/>
	<path class="st1" d="M440.7,156.2h4.7v1h-4.7V156.2z M445,167.9h-2.8v0.8h-1V163h3.8L445,167.9z M441.3,158.4h3.8v1h-3.8V158.4z
		 M441.3,160.7h3.8v1h-3.8V160.7z M443.1,155.9c-0.3-0.8-0.7-1.5-1.2-2.2l0.9-0.4c0.5,0.7,0.9,1.4,1.2,2.2L443.1,155.9z
		 M442.2,163.9v2.9h1.9V164L442.2,163.9z M455.6,160.9c-0.5,1.5-1.2,2.9-2.1,4.2c0.3,1.4,0.6,2.2,1.1,2.2c0.3,0,0.4-0.8,0.5-2.2
		c0.3,0.3,0.5,0.5,0.9,0.7c-0.3,2.4-0.9,3-1.4,3c-0.9,0-1.5-0.9-1.9-2.5c-0.7,0.9-1.6,1.7-2.5,2.4c-0.2-0.2-0.5-0.5-0.8-0.7
		c0.5-0.3,0.9-0.7,1.4-1.1h-1v-0.5h-2.4v1.2h-1v-7.1h4.5v6.4c0.6-0.6,1.1-1.2,1.6-1.9c-0.3-1.8-0.5-3.6-0.6-5.5h-6.1v-1.1h1.4
		c-0.1-0.7-0.2-1.3-0.4-2l0.9-0.1c0.2,0.7,0.4,1.4,0.5,2.1h1c0.2-0.7,0.4-1.4,0.5-2.2l1,0.2c-0.2,0.7-0.4,1.4-0.6,2h1.8
		c-0.1-1.6-0.1-3.3-0.2-5.1h1.1c0,1.8,0.1,3.5,0.1,5.1h3.1v1.1h-3c0.1,1.5,0.2,2.9,0.4,4c0.5-1,1-2,1.3-3.1L455.6,160.9z M451,156.1
		h-5.1v-1h2.3c-0.2-0.5-0.4-1-0.7-1.4l1-0.3c0.3,0.5,0.6,1.1,0.8,1.7h1.7V156.1z M447.3,161.4v1.6h2.4v-1.6L447.3,161.4z
		 M449.7,165.5v-1.6h-2.4v1.6H449.7z M454.5,157.6c-0.3-1-0.8-2-1.3-2.9l1-0.4c0.5,0.9,1,1.9,1.3,2.9L454.5,157.6z"/>
	<path class="st1" d="M468.6,162.6l-1.2,1c-1.1-1.4-2.4-2.6-3.8-3.8l1.1-1C466.2,159.9,467.4,161.2,468.6,162.6z"/>
	<path class="st1" d="M480.3,153.7c-0.3,1.1-0.7,2.2-1.2,3.2v11.9H478v-9.7c-0.4,0.8-1,1.6-1.5,2.3c-0.2-0.4-0.4-0.9-0.6-1.3
		c1.6-2,2.7-4.4,3.4-6.9L480.3,153.7z M483.5,163.1c0,0.4,0,0.7,0,1.1c-1,0.5-2,1.1-2.8,1.9l0,0c-0.1-0.4-0.3-0.7-0.5-1.1
		c0.3-0.3,0.5-0.7,0.4-1.2v-8.6h1.1v3.2h2.1v1.1h-2.1v4.6L483.5,163.1z M487,166.6c-1.1,1-2.3,1.8-3.6,2.3c-0.3-0.3-0.5-0.6-0.9-0.8
		c1.2-0.5,2.4-1.2,3.4-2.1L487,166.6z M486.7,156.6c0.1-0.5,0.3-1,0.4-1.4h-3.5v-1.1h8.1v1.1h-3.3c-0.2,0.5-0.4,1-0.5,1.4h3.3v8.9
		h-6.8v-8.9H486.7z M490,157.6h-4.5v1.7h4.5L490,157.6z M490,160.2h-4.5v1.7h4.5L490,160.2z M490,162.9h-4.5v1.7h4.5L490,162.9z
		 M489.3,166c1,0.6,1.9,1.4,2.7,2.2l-1,0.7c-0.8-0.8-1.7-1.6-2.6-2.2L489.3,166z"/>
	<path class="st1" d="M500,155.1v13.8h-1.2v-7.3c-1.6,0.1-3.2,0.3-4.5,0.4l-0.1-1l1.1-0.1v-5.7h-1V154h6.7v0.8h3.5
		c0.1-0.5,0.1-1,0.2-1.4l1.1,0.1c-0.1,0.4-0.1,0.9-0.2,1.4h3.8v1h-4c-0.1,0.4-0.1,0.9-0.2,1.2h3.9v4h-7.8v-4h2.8
		c0.1-0.4,0.1-0.8,0.2-1.2h-3.4V155L500,155.1z M498.5,163.1c-0.5,0.1-1,0.2-1.5,0.2v1.3h1.2v0.9H497v1.2l1.5-0.2v0.9
		c-1.5,0.2-2.9,0.4-4.1,0.6l-0.1-1l1.8-0.2v-1.3h-1.3v-0.9h1.4v-1.2c-0.5,0-0.9,0.1-1.3,0.1c-0.1-0.3-0.2-0.5-0.3-0.8
		c1.2-0.1,2.4-0.2,3.6-0.4L498.5,163.1z M498.8,155.1h-2.4v1.3h2.4V155.1z M498.8,157.2h-2.4v1.2h2.4V157.2z M496.4,160.7l2.4-0.2
		v-1.2h-2.4V160.7z M500.1,167.5c0.6-0.9,1.1-1.9,1.4-3l0.9,0.4c-0.3,1.1-0.8,2.2-1.4,3.2L500.1,167.5z M509.6,163.1h-8.9V162h8.9
		V163.1z M503.6,158h-1.3v2.1h1.3V158z M506.3,167.6c0.5,0,0.5-0.2,0.6-1.6c0.3,0.2,0.6,0.3,1,0.4c-0.1,1.7-0.4,2.1-1.5,2.1h-2.1
		c-1.3,0-1.6-0.3-1.6-1.4v-2.6h1.1v2.6c0,0.4,0.1,0.4,0.6,0.4H506.3z M504.4,163.3c0.8,0.7,1.4,1.5,1.9,2.4l-0.9,0.5
		c-0.5-0.9-1.1-1.8-1.9-2.6L504.4,163.3z M505.7,158h-1.4v2.1h1.4V158z M506.5,160.1h1.4V158h-1.4V160.1z M507.9,164.2
		c0.9,0.9,1.5,2,2,3.2l-1,0.4c-0.4-1.2-1-2.3-1.9-3.2L507.9,164.2z"/>
	<path class="st1" d="M527.1,159.6c-0.8,1.1-1.8,2.2-2.8,3.1v4.3c0,0.9-0.2,1.3-0.8,1.5c-1.1,0.2-2.3,0.3-3.5,0.2
		c-0.1-0.5-0.2-0.9-0.5-1.3c1.3,0.1,2.6,0,3,0s0.5-0.1,0.5-0.5v-3.2c-3,2.3-6.5,3.9-10.1,4.9c-0.3-0.4-0.5-0.8-0.8-1.1
		c3.4-0.8,6.6-2.2,9.5-4.2c-3.2,0.3-6.4,0.5-8.7,0.7l-0.1-1.2c0.7,0,1.4-0.1,2.2-0.1V155h3.4c0.3-0.6,0.5-1.1,0.8-1.7l1.5,0.2
		c-0.2,0.5-0.5,1-0.8,1.5h4.7v6c0.6-0.6,1.1-1.3,1.6-2L527.1,159.6z M516.1,156.1v1.6h7v-1.6H516.1z M516.1,160.1h7v-1.5h-7V160.1z
		 M516.1,162.7l7-0.5v-1.1h-7V162.7z"/>
	<path class="st1" d="M535.7,158.6h0.7v2.4h-0.8v6.5c0,0.5-0.1,0.8-0.5,1c-0.6,0.2-1.3,0.2-1.9,0.2c-0.1-0.3-0.2-0.7-0.4-1h1.4
		c0.2,0,0.2-0.1,0.2-0.2v-2.1c-0.8,0.5-1.6,1-2.3,1.4l-0.5-0.9c0.7-0.3,1.7-0.8,2.8-1.4v-2.9h-2.7v2.3c0.1,1.8-0.3,3.5-1.2,5.1
		c-0.3-0.3-0.6-0.5-0.9-0.7c0.8-1.3,1.1-2.9,1-4.4V161H530v-2.4h0.7v-4.7h5L535.7,158.6z M535.4,159.5H531v1.1h4.5L535.4,159.5z
		 M531.7,158.6h1V156h1.8v-1.1h-2.9L531.7,158.6z M533.8,164.3c-0.6-0.5-1.2-1.1-1.8-1.5l0.6-0.6c0.7,0.4,1.3,0.9,1.8,1.4
		L533.8,164.3z M534.6,158.6v-1.8h-1.1v1.8H534.6z M545.3,167.5v1h-8.8v-1h2.4c-0.2-0.5-0.4-1.1-0.6-1.6l1-0.3
		c0.2,0.6,0.6,1.3,0.7,1.9h1.6c0.2-0.6,0.6-1.4,0.7-1.9l1.2,0.3c-0.3,0.5-0.6,1.1-0.8,1.6H545.3z M545.1,161.6h-8.5v-1h8.5V161.6z
		 M544.7,159.7H537v-5.1h2.1v-1.3h1v1.3h1.2v-1.3h1v1.3h2.3L544.7,159.7z M537.5,165.5v-3.1h6.8v3.1H537.5z M538,156.7h1.3v-1.2H538
		L538,156.7z M538,158.9h1.3v-1.3H538L538,158.9z M538.6,164.7h4.5v-1.4h-4.5V164.7z M541.5,156.7v-1.2h-1.3v1.2H541.5z
		 M540.2,157.6v1.3h1.3v-1.3H540.2z M543.7,155.5h-1.4v1.2h1.4V155.5z M543.7,157.6h-1.4v1.3h1.4V157.6z"/>
	<path class="st1" d="M552.4,153.5c-0.3,0.8-0.6,1.8-0.9,2.5h2.8v11h-4.7v1.3h-1.2V156h1.9c0.3-0.9,0.5-1.8,0.7-2.8L552.4,153.5z
		 M553.1,157.2h-3.6v3.6h3.6V157.2z M553.1,165.9v-4.1h-3.6v4.1H553.1z M562.6,156.6c-0.3,7.8-0.5,10.4-1.2,11.2
		c-0.3,0.4-0.8,0.7-1.3,0.7c-0.8,0.1-1.7,0.1-2.5,0c0-0.4-0.2-0.9-0.4-1.2c1.1,0.1,2.1,0.1,2.5,0.1s0.5,0,0.7-0.3
		c0.6-0.6,0.8-3.2,1-9.9H557c-0.4,1.1-0.9,2.1-1.6,3c-0.3-0.3-0.7-0.5-1-0.7c1.3-1.9,2.1-4,2.6-6.2l1.2,0.3
		c-0.2,0.8-0.4,1.6-0.7,2.4h5.1L562.6,156.6z M558.8,164.3c-0.8-1.4-1.6-2.7-2.6-3.9l1-0.6c1,1.2,1.9,2.5,2.7,3.8L558.8,164.3z"/>
	<path class="st1" d="M578.2,166.4h2.5v1h-2.5v1.5h-1.2v-1.5h-11.2v-1h2.5V162h-2v-0.9c-0.2-0.2-0.5-0.3-0.7-0.5
		c0.7-0.7,1-1.7,1-2.8v-1h6.1v2.7h-5.4c-0.1,0.5-0.4,1-0.7,1.4h13.7v1h-2.1V166.4z M569,154.9h-3.2v-0.8h3.2v-0.8h1.2v0.8h3.1v0.8
		h-3.1v0.8h2.7v0.8h-6.4v-0.8h2.6L569,154.9z M567.6,157.7v0.2c0,0.3,0,0.7-0.1,1h1.6v-1.2L567.6,157.7z M569.6,162v0.9h7.4V162
		L569.6,162z M569.6,164.7h7.4v-1h-7.4V164.7z M577,166.4v-0.9h-7.4v0.9H577z M571.7,157.7H570v1.2h1.7L571.7,157.7z M579.8,157.1
		c-0.4,1-1.1,1.8-2,2.3c0.9,0.3,1.9,0.6,2.9,0.7c-0.3,0.3-0.5,0.6-0.7,0.9c-1.1-0.2-2.2-0.5-3.2-1c-1.1,0.5-2.2,0.8-3.4,1
		c-0.1-0.3-0.3-0.6-0.5-0.9c1-0.1,2-0.4,2.9-0.7c-0.7-0.5-1.2-1.1-1.7-1.8h-0.5v-0.6c-0.2-0.3-0.4-0.5-0.7-0.7
		c1.2-0.5,1.5-1.1,1.5-1.6v-0.8h4.3v1.6c0,0.3,0,0.4,0.2,0.4h0.9c0.3,0,0.5,0,0.8-0.1c0,0.3,0,0.6,0.1,0.8c-0.3,0.1-0.5,0.1-0.8,0.1
		h-1.2c-0.9,0-1.1-0.4-1.1-1.2v-0.7h-2.2c0,0.9-0.5,1.7-1.3,2.1h4.7h0.2L579.8,157.1z M575.3,157.6c0.2,0.9,1,1.4,1.8,1.3
		c0.6-0.1,1.1-0.6,1.3-1.3H575.3z"/>
	<path class="st1" d="M598.6,158.8v1.2h-15v-1.2h4.2c-0.2-0.9-0.6-1.7-1-2.4l1.2-0.3c0.5,0.8,0.9,1.7,1.1,2.6l-0.5,0.1h4.4
		c0.5-0.9,0.9-1.8,1.2-2.8l1.4,0.3c-0.4,0.8-0.8,1.7-1.2,2.4L598.6,158.8z M597.8,156h-13.2v-1.1h6.1c-0.2-0.5-0.4-1-0.7-1.4
		l1.2-0.2c0.4,0.5,0.6,1.1,0.8,1.7h5.7L597.8,156z M585.9,161.4h10.5v7.4h-1.3v-0.6h-8v0.6h-1.2L585.9,161.4z M587.1,162.5v1.8h8
		v-1.8H587.1z M595.1,167.1v-1.9h-8v1.9H595.1z"/>
	<path class="st1" d="M512.3,301c-0.6,2.4-1.9,4.7-3.8,6.4c1.6,1.2,3.4,2,5.4,2.4c-0.4,0.4-0.7,0.8-0.9,1.2c-2-0.5-3.9-1.4-5.6-2.6
		c-1.6,1.2-3.3,2.1-5.2,2.6c-0.2-0.4-0.4-0.8-0.7-1.1c1.8-0.4,3.5-1.2,5-2.3c-1.5-1.6-2.6-3.4-3.3-5.5H502c0,2.8-0.5,6.4-2.2,8.9
		c-0.3-0.3-0.7-0.5-1.1-0.8c1.9-2.6,2-6.4,2-9.1v-4.6h12.4v1.2h-11v3h9.1l0.2-0.1L512.3,301z M504.5,301.9c0.6,1.8,1.7,3.4,3,4.7
		c1.4-1.3,2.5-2.9,3.1-4.7H504.5z"/>
	<path class="st1" d="M516.6,309.5c0.8-1.2,1.5-2.6,1.8-4l1.1,0.4c-0.4,1.5-1,2.9-1.8,4.2L516.6,309.5z M530.1,303.8h-11.8v-7.6H530
		L530.1,303.8z M519.4,299.4h4.1v-2.1h-4.1V299.4z M519.4,302.6h4.1v-2.2h-4.1V302.6z M526.2,309.4c0.8,0,1-0.3,1-2.2
		c0.4,0.2,0.8,0.4,1.2,0.5c-0.2,2.3-0.6,2.9-2.1,2.9h-3.4c-1.8,0-2.3-0.4-2.3-1.7v-3.4h1.3v3.4c0,0.5,0.2,0.6,1.1,0.6L526.2,309.4z
		 M525.7,307.4c-1.1-1-2.2-1.8-3.5-2.5l0.8-0.8c1.3,0.6,2.5,1.4,3.5,2.4L525.7,307.4z M528.8,297.3h-4v2.1h4V297.3z M528.8,300.5h-4
		v2.2h4V300.5z M529.4,305.2c1,1.3,1.8,2.7,2.4,4.1l-1.2,0.5c-0.6-1.5-1.3-2.9-2.3-4.2L529.4,305.2z"/>
	<path class="st1" d="M546.6,300.8c-0.5,2.2-1.5,4.2-2.9,5.9c1.9,0.9,3.8,1.9,5.5,3.1l-1,1.1c-1.8-1.2-3.6-2.3-5.5-3.2
		c-2.1,1.6-4.6,2.7-7.2,3.2c-0.2-0.4-0.4-0.9-0.8-1.2c2.4-0.3,4.6-1.2,6.6-2.6c-1.5-0.7-3.1-1.4-4.7-2c0.8-1.4,1.5-2.8,2.1-4.2h-4.1
		v-1.3h4.6c0.6-1.4,1.1-2.8,1.5-4.2l1.3,0.2c-0.4,1.3-0.8,2.6-1.3,4h4.8c0.1-0.5,0.2-1,0.3-1.6l1.3,0.3c-0.1,0.4-0.2,0.9-0.2,1.3
		h2.7v1.3L546.6,300.8z M540.2,300.8c-0.5,1.3-1.1,2.6-1.7,3.7c1.3,0.5,2.6,1,3.8,1.6c1.4-1.5,2.3-3.3,2.8-5.3L540.2,300.8z"/>
	<path class="st1" d="M557.1,304.4c-0.2-0.5-0.7-1.4-1.2-2.2v8.7h-1.1v-8.6c-0.5,1.8-1.2,3.5-2.1,5.1c-0.2-0.4-0.4-0.8-0.7-1.2
		c1.2-1.9,2.1-4.1,2.6-6.3h-2.2v-1.2h2.4v-3.2h1.1v3.2h1.8v1.2h-1.8v0.9c0.4,0.5,1.6,2.3,1.9,2.7L557.1,304.4z M563.4,309.4h4.2v1
		h-7.8v0.6h-1.1v-5.3c-0.3,0.4-0.7,0.7-1.1,1.1c-0.2-0.4-0.4-0.7-0.7-1c1.1-1,2.1-2.1,2.7-3.5h-1.5V299h3.9v3.3h-2l0.7,0.2
		c-0.2,0.4-0.4,0.8-0.7,1.2h2.2l-0.4-1l1.1-0.3c0.2,0.4,0.4,0.9,0.5,1.3h3.7v0.9h-3.8v1h3.1v0.9h-3.1v1h3.1v0.9h-3.1L563.4,309.4z
		 M560.5,297.8h-3v-1h3v-1.3h1.1v3.2h-1.1V297.8z M559.2,301.4h1.9v-1.6h-1.9V301.4z M562.3,304.5h-2.5v1h2.5V304.5z M562.3,306.4
		h-2.5v1h2.5V306.4z M559.8,309.4h2.5v-1h-2.5V309.4z M566.9,302.2H563v-3.3h3.9L566.9,302.2z M567.7,296.8v1h-3.1v0.8h-1.1v-3.1
		h1.1v1.3L567.7,296.8z M565.9,299.8h-2v1.6h2V299.8z"/>
	<path class="st1" d="M570,298.3h5.3v1H570V298.3z M574.9,310h-3.4v0.8h-1v-5.7h4.3L574.9,310z M570.6,300.6h4.3v1h-4.3V300.6z
		 M570.6,302.8h4.3v1h-4.3V302.8z M571.5,306.1v2.9h2.4v-2.9H571.5z M572.4,298.1c-0.2-0.8-0.5-1.6-0.8-2.3l0.9-0.3
		c0.4,0.7,0.7,1.4,0.9,2.2L572.4,298.1z M584.7,306.8c-0.5,0.8-1,1.5-1.7,2.1c0.4,0.8,0.8,1.2,1.3,1.2c0.3,0,0.4-0.4,0.5-1.5
		c0.2,0.2,0.5,0.4,0.8,0.5c-0.2,1.5-0.6,2-1.4,2c-0.9-0.1-1.7-0.7-2.1-1.6c-0.7,0.5-1.4,0.9-2.1,1.2c-0.2-0.3-0.4-0.5-0.7-0.7
		c0.9-0.4,1.7-0.9,2.4-1.5c-0.3-0.9-0.5-1.8-0.6-2.7h-2.3v1.2l1.8-0.2v0.9l-1.8,0.3v1.7c0,0.6-0.1,0.9-0.6,1c-0.7,0.1-1.3,0.2-2,0.1
		c-0.1-0.3-0.2-0.7-0.4-1h1.6c0.2,0,0.3-0.1,0.3-0.2v-1.5l-2.3,0.3l-0.2-1c0.7-0.1,1.5-0.2,2.5-0.3v-1.3h-2.4v-1h2.4v-1.2
		c-0.6,0.1-1.2,0.2-1.8,0.2c-0.1-0.3-0.2-0.5-0.3-0.8c1.4-0.1,2.8-0.4,4.2-0.8l0.7,0.8c-0.6,0.2-1.1,0.3-1.7,0.4v1.5h2.2
		c-0.1-0.8-0.1-1.6-0.2-2.5h1.1c0,0.9,0.1,1.7,0.1,2.5h3.3v1h-3.1c0.1,0.6,0.2,1.3,0.4,1.9c0.4-0.5,0.8-1,1.1-1.5L584.7,306.8z
		 M585.4,302.1h-10v-1h4.4V300h-3.2v-0.9h3.2V298H576v-0.9h2.1c-0.3-0.5-0.5-0.9-0.9-1.3l0.9-0.4c0.4,0.5,0.8,1,1.1,1.6h-0.1h2.6
		c0.4-0.5,0.7-1.1,0.9-1.7l1.1,0.3c-0.3,0.5-0.7,1-0.9,1.3h2.1v1h-4v1.1h3.5v0.9H581v1.2h4.3L585.4,302.1z M583.4,302.5
		c0.7,0.4,1.3,1,1.9,1.6l-0.8,0.6c-0.5-0.6-1.2-1.2-1.8-1.7L583.4,302.5z"/>
	<path class="st1" d="M592.4,308.8c1.7,0.6,3.4,0.8,5.2,0.7c0.8,0,4.9,0,5.9,0c-0.2,0.3-0.4,0.7-0.5,1.1h-5.5
		c-3.7,0-6.2-0.4-7.7-2.7c-0.2,1.1-0.6,2.2-1.3,3.1c-0.2-0.3-0.5-0.6-0.8-0.8c1-1.2,1.3-3.5,1.4-5.6h1c0,0.6-0.1,1.3-0.1,1.9
		c0.3,0.6,0.7,1.2,1.3,1.6v-4.5h-3.4v-1h7.6v1h-3.2v1.8h2.9v1h-2.9V308.8z M594.5,301.4h-5.6v-5.3h5.6V301.4z M593.4,297.1h-3.3v1.3
		h3.3V297.1z M593.4,299.2h-3.3v1.3h3.3V299.2z M598.6,306.6c-0.8,1-1.9,1.9-3,2.5c-0.3-0.3-0.5-0.6-0.8-0.8c1.1-0.5,2-1.1,2.8-2
		L598.6,306.6z M598.2,298.5c0.1-0.4,0.3-0.9,0.4-1.3h-3.2v-1h7.7v1h-3.3c-0.2,0.4-0.3,0.9-0.5,1.3h3.1v7.5h-6.3v-7.5L598.2,298.5z
		 M601.2,299.4h-4v1.3h4V299.4z M601.2,301.6h-4v1.3h4V301.6z M601.2,303.8h-4v1.2h4V303.8z M600.7,306.2c1,0.6,1.9,1.3,2.7,2.2
		l-0.9,0.6c-0.8-0.9-1.6-1.6-2.6-2.3L600.7,306.2z"/>
	<path class="st1" d="M384.5,448.1v1.2h-15.2v-1.2h9.7c0.1-0.9,0.3-1.8,0.4-2.7h-7.7c0.6-2.2,1.3-5.9,1.8-8.7h-3.6v-1.2H384v1.2
		h-9.1c-0.1,0.9-0.3,1.8-0.5,2.7h5.9l0.2-0.1l0.9,0.1c-0.2,2.3-0.7,5.9-1.1,8.7L384.5,448.1z M379.6,444.2c0.2-1.3,0.3-2.6,0.4-3.6
		h-5.9c-0.3,1.3-0.5,2.6-0.8,3.6H379.6z"/>
	<path class="st1" d="M391.1,440.7c0.6,0.6,2.2,2.4,2.5,2.9l-0.8,1c-0.5-0.9-1.1-1.7-1.7-2.5v7.7h-1.2v-8.1c-0.6,1.8-1.4,3.5-2.5,5
		c-0.2-0.4-0.4-0.8-0.7-1.2c1.4-1.9,2.4-4.1,3-6.4h-2.6V438h2.8v-3.6h1.2v3.6h2.4v1.2h-2.4L391.1,440.7z M401.9,435.4v14.4h-1.2v-1
		h-5.2v1h-1.2v-14.4L401.9,435.4z M395.5,436.6v2.8h5.1v-2.8L395.5,436.6z M395.5,443.5h5.1v-2.9h-5.1V443.5z M400.6,447.6v-2.9
		h-5.1v2.9H400.6z"/>
	<path class="st1" d="M420.2,446.4h-3.9v2.1c0,0.7-0.1,1-0.7,1.2c-0.9,0.2-1.9,0.3-2.8,0.2c-0.1-0.4-0.2-0.8-0.4-1.1
		c1.1,0,2,0,2.3,0s0.3-0.1,0.3-0.3v-2.1h-6.3c1,0.6,2,1.3,2.8,2.1l-0.8,0.9c-0.9-0.8-1.8-1.6-2.9-2.2l0.7-0.8h-3.8v-1h10.1v-1h-8.5
		v-6h3.9v-1h-5.3v-1h4.1c-0.3-0.5-0.7-1-1.2-1.4l1-0.5c0.5,0.5,1,1.1,1.4,1.7l-0.3,0.1h4.2c0.4-0.6,0.8-1.2,1.1-1.9l1.3,0.4
		c-0.4,0.5-0.8,1-1.1,1.5h4v1h-5.4v1h4.1v6h-2.3v1h3.9L420.2,446.4z M407.8,443.4h9.6v-2.5h-2.4c-1.2,0-1.5-0.2-1.5-1.1v-0.7h-1.8
		c-0.1,1-0.8,1.9-2.9,2.5c-0.2-0.3-0.4-0.6-0.6-0.8c1.8-0.3,2.3-1,2.4-1.7h-2.7L407.8,443.4z M409.2,441.8h6.9v0.8h-6.9V441.8z
		 M411.6,438.3h1.8v-1h-1.8V438.3z M414.5,439.1v0.7c0,0.3,0.1,0.4,0.6,0.4h1.9c0.3,0,0.4,0,0.4-0.1v-1L414.5,439.1z"/>
	<path class="st1" d="M438,448.4v1h-15.1v-1h6.9v-1.5h-5.6v-1h5.6v-1.2h-5.1v-5.2h5.1v-1H423v-1h6.8v-1.2c-1.8,0.1-3.6,0.2-5.2,0.2
		c0-0.3-0.1-0.7-0.3-1c3.8-0.1,7.6-0.4,11.4-0.9l0.7,1c-1.8,0.3-3.5,0.5-5.3,0.6v1.3h6.9v1H431v1h5.3v5.2H431v1.2h6v1h-6v1.5
		L438,448.4z M425.9,441.7h3.8v-1.3h-3.8V441.7z M429.7,443.8v-1.3h-3.8v1.3H429.7z M431,440.4v1.3h4v-1.3H431z M435,442.5h-4v1.3h4
		V442.5z"/>
	<path class="st1" d="M378.8,463.9c-0.4,0.6-0.8,1.2-1.2,1.9v11.1h-1.3v-9.5c-1.7,2-3.8,3.7-6.1,5c-0.3-0.4-0.5-0.8-0.9-1.1
		c3.3-1.7,6-4.2,7.9-7.4h-7.5v-1.3h14.5v1.3L378.8,463.9z M378.8,466.7c2.1,1.3,4,2.8,5.8,4.5l-1,1c-1.8-1.7-3.7-3.3-5.7-4.6
		L378.8,466.7z"/>
	<path class="st1" d="M392.6,469.9c0,0,0,0.4,0,0.6c-0.2,3.8-0.5,5.3-0.9,5.8c-0.3,0.3-0.7,0.5-1.1,0.5c-0.7,0-1.3,0-2,0
		c0-0.4-0.1-0.8-0.3-1.2c0.8,0.1,1.5,0.1,1.8,0.1s0.4,0,0.6-0.2c0.3-0.3,0.5-1.5,0.8-4.4h-4.3c0.2-1.3,0.5-3.3,0.6-4.8h3.5v-2.7h-4
		v-1.2h5.2v5h-3.7c-0.1,0.9-0.2,1.8-0.3,2.5L392.6,469.9z M401.5,477c-0.1-0.4-0.3-0.8-0.5-1.1c-2.9,0.2-6,0.5-8.1,0.6l-0.2-1.2
		c1.1,0,2.5-0.1,4.1-0.2v-2.5h-3.4V468h3.4v-1.6h1.2v1.6h3.5v4.5h-3.5v2.5l2.3-0.1c-0.3-0.5-0.7-1-1-1.5l1-0.5
		c0.9,1.1,1.6,2.3,2.2,3.6L401.5,477z M401.3,467c-0.2-0.4-0.5-0.8-0.8-1.2c-5.9,0.5-6.6,0.6-7,0.8c-0.1-0.4-0.3-0.7-0.4-1.1
		c0.4-0.1,0.7-0.4,0.9-0.7c0.9-1,1.6-2.1,2.2-3.3l1.3,0.3c-0.7,1.3-1.6,2.4-2.5,3.5l5-0.4c-0.4-0.5-0.9-1-1.3-1.5l0.9-0.6
		c1.1,1.1,2,2.2,2.8,3.5L401.3,467z M396.8,471.4v-2.3h-2.3v2.4L396.8,471.4z M398.1,469v2.4h2.4v-2.3L398.1,469z"/>
	<path class="st1" d="M407.1,468.1c0,2.5-0.2,6.1-1.4,8.5c-0.3-0.2-0.6-0.4-1-0.6c1.2-2.2,1.3-5.5,1.3-7.9v-6h14v1h-12.9V468.1z
		 M414.2,475.5h5.9v1h-13.1v-1h6v-1.4H408v-1h5v-0.9h1.2v0.9h4.8v1h-4.8L414.2,475.5z M417.3,467.1c0.3,1.8,1.4,3.3,2.9,4.2
		c-0.3,0.3-0.6,0.6-0.8,0.9c-1.4-0.8-2.3-2.2-2.8-3.7c-0.4,1.5-1.4,2.9-2.8,3.7c-0.2-0.2-0.4-0.5-0.6-0.6c0,0.2-0.2,0.4-0.5,0.5
		c-0.7,0.1-1.3,0.2-2,0.1c-0.1-0.3-0.2-0.5-0.3-0.7h1.5c0.2,0,0.2-0.1,0.2-0.2v-0.9c-1.2,0.3-2.4,0.6-3.5,0.9l-0.2-0.5
		c-0.1,0.6-0.3,1.1-0.6,1.6c-0.3-0.2-0.6-0.4-0.9-0.6c0.4-0.7,0.6-1.5,0.6-2.4v-1.9h5.6v4c1.5-0.9,2.5-2.5,2.6-4.2h-2.3v-1h2.4v-2.5
		h1v2.5h2.9v1L417.3,467.1z M413.1,466.8H408v-3.1h5.1L413.1,466.8z M408.7,469.4c0,0.3,0,0.7,0,1c1-0.2,2.3-0.5,3.7-0.8v-1.4h-3.6
		L408.7,469.4z M412.1,464.4h-3.2v0.6h3.2V464.4z M412.1,465.6h-3.2v0.6h3.2V465.6z M409.2,468.5c0.9,0.2,1.8,0.4,2.7,0.6l-0.2,0.6
		c-0.6-0.2-1.8-0.5-2.7-0.7L409.2,468.5z M418.9,465.9c-0.4-0.6-0.9-1.2-1.4-1.7l0.7-0.4c0.6,0.5,1.1,1,1.5,1.6L418.9,465.9z"/>
	<path class="st1" d="M436.4,463.7v13.2h-1.3V476H426v1h-1.3v-13.3h4.3c0.3-0.8,0.5-1.5,0.7-2.3l1.5,0.2c-0.2,0.7-0.6,1.5-0.9,2.1
		L436.4,463.7z M426,464.9v2.5h9.1v-2.5H426z M426,468.6v2.5h9.1v-2.5H426z M435.1,474.8v-2.5H426v2.5L435.1,474.8z"/>
	<path class="st1" d="M455.7,467.7c-0.8,1.1-1.8,2.2-2.8,3.1v4.3c0,0.9-0.2,1.3-0.8,1.5c-1.1,0.2-2.3,0.3-3.5,0.2
		c-0.1-0.5-0.2-0.9-0.5-1.3c1.3,0,2.6,0,3,0s0.5-0.1,0.5-0.5v-3.2c-3,2.3-6.5,3.9-10.1,4.9c-0.3-0.4-0.5-0.8-0.9-1.1
		c3.4-0.8,6.6-2.2,9.5-4.2c-3.2,0.3-6.4,0.5-8.7,0.7l-0.1-1.2c0.6,0,1.4-0.1,2.2-0.1V463h3.4c0.3-0.6,0.5-1.1,0.8-1.7l1.5,0.2
		c-0.2,0.5-0.5,1-0.8,1.5h4.7v6c0.6-0.6,1.1-1.3,1.6-2L455.7,467.7z M444.7,464.2v1.6h7v-1.6H444.7z M444.7,468.2h7v-1.5h-7V468.2z
		 M444.7,470.8l7-0.5v-1.1h-7V470.8z"/>
	<path class="st1" d="M462.8,461.8c-0.4,1.1-0.8,2.2-1.3,3.3v11.8h-1.2v-9.5c-0.5,0.8-1,1.6-1.6,2.3c-0.2-0.4-0.4-0.9-0.7-1.3
		c1.6-2,2.9-4.4,3.6-6.9L462.8,461.8z M467.3,475.2c-1.3,0.8-2.7,1.4-4.2,1.8c-0.2-0.3-0.4-0.6-0.7-0.9c1.4-0.3,2.8-0.8,4-1.5
		L467.3,475.2z M466.2,463.2h-3.3v-1h10.8v1h-3.5v1h3v3.3h-9.9v-3.3h2.9L466.2,463.2z M463.7,474.4v-6.1h9.3v6.1H463.7z
		 M464.4,466.7h1.8v-1.6h-1.8V466.7z M464.8,470.1h7v-1h-7V470.1z M464.8,471.9h7v-1h-7V471.9z M464.8,473.6h7v-1h-7V473.6z
		 M469.1,463.2h-1.9v1h1.9V463.2z M467.3,466.7h1.9v-1.6h-1.9V466.7z M470,474.6c1.4,0.5,2.8,1,4.1,1.6l-1,0.8
		c-1.2-0.7-2.5-1.2-3.8-1.7L470,474.6z M470.2,465.1v1.6h1.9v-1.6H470.2z"/>
	<path class="st1" d="M481.1,461.8c-0.5,1.3-1,2.6-1.7,3.9v11.2h-1.2v-9.4c-0.4,0.6-0.9,1.3-1.5,1.9c-0.2-0.4-0.4-0.8-0.7-1.2
		c1.7-2,3.1-4.2,3.9-6.7L481.1,461.8z M491.7,475.3v1.1h-11.3v-1.1h1.6v-9.5h2.9c0.1-0.5,0.2-1,0.3-1.6h-4.1v-1.1h4.3
		c0.1-0.6,0.2-1.2,0.2-1.7l1.3,0.1c-0.1,0.5-0.2,1.1-0.3,1.6h4.5v1.1h-4.8c-0.1,0.6-0.2,1.1-0.4,1.6h4.1v9.5L491.7,475.3z
		 M483.1,466.8v1.4h5.9v-1.4H483.1z M489,469.2h-5.9v1.5h5.9L489,469.2z M483.1,473h5.9v-1.5h-5.9L483.1,473z M483.1,475.3h5.9v-1.4
		h-5.9L483.1,475.3z"/>
	<path class="st1" d="M508.3,475.7c0.3,0,0.3-0.2,0.4-2.3c0.3,0.2,0.6,0.4,1,0.4c-0.1,2.4-0.4,2.9-1.2,2.9h-0.9
		c-1,0-1.2-0.3-1.2-1.5v-3.9h-1c-0.2,2.5-0.9,4.4-3,5.5c-0.2-0.3-0.4-0.7-0.7-0.9h-5.1v0.9h-1v-5.7c-0.3,0.4-0.6,0.8-0.9,1.1
		c-0.2-0.3-0.4-0.6-0.6-0.9c1-1,1.8-2.3,2.3-3.6l0.9,0.3c-0.1,0.4-0.3,0.7-0.4,1h2c-0.1-0.3-0.3-0.6-0.5-0.9l0.8-0.4
		c0.3,0.4,0.5,0.8,0.7,1.3h2.3v0.9h-2.4v1h2.1v0.9h-2.1v1h2.1v0.9h-2.1v1.2h2.4v0.6c1.5-0.9,2-2.5,2.2-4.3h-1.5V462h6.3v9.4h-1.6
		v3.9c0,0.4,0,0.4,0.3,0.4L508.3,475.7z M496.5,463.4H494v-1h2.4v-1h1v3h-1L496.5,463.4z M494.7,464.8h3.1v3h-3.1V464.8z M495.5,467
		h1.5v-1.5h-1.5L495.5,467z M498.5,470.1h-2.1v1h2.1L498.5,470.1z M498.5,472h-2.1v1h2.1L498.5,472z M496.4,475.1h2.1v-1.2h-2.1
		L496.4,475.1z M501.8,467.8h-3.1v-3h3.1V467.8z M500.1,464.5h-1v-3.1h1v1h2.2v1h-2.2L500.1,464.5z M501,465.6h-1.5v1.4h1.5
		L501,465.6z M503.7,464.8h4.1v-1.6h-4.1V464.8z M503.7,467.6h4.1v-1.7h-4.1V467.6z M503.7,470.3h4.1v-1.7h-4.1V470.3z"/>
	<path class="st1" d="M527.1,464v1.2h-9.3c-0.6,1.2-1.3,2.4-2.1,3.5v8.2h-1.2v-6.7c-0.6,0.6-1.3,1.2-2,1.7c-0.2-0.4-0.4-0.8-0.6-1.1
		c1.9-1.4,3.5-3.4,4.5-5.5h-4.1V464h4.6c0.4-0.9,0.7-1.7,0.9-2.6l1.3,0.3c-0.2,0.8-0.5,1.5-0.8,2.3H527.1z M522.6,475.3h4.5v1.2
		h-10.2v-1.2h4.5v-4.8h-3.8v-1.2h3.8v-3.2h1.3v3.2h3.8v1.2h-3.8L522.6,475.3z"/>
	<path class="st1" d="M534.8,461.9c-0.5,1.3-1.1,2.5-1.8,3.7v11.4h-1.2v-9.5c-0.5,0.7-1.1,1.4-1.7,2c-0.2-0.4-0.4-0.8-0.7-1.2
		c1.9-1.9,3.3-4.2,4.2-6.8L534.8,461.9z M542.9,475.6c1,0,1.2-0.5,1.3-2.5c0.4,0.2,0.7,0.4,1.2,0.5c-0.2,2.4-0.6,3.1-2.5,3.1h-4.5
		c-2,0-2.6-0.5-2.6-2.4v-5.6l-1.7,0.6l-0.5-1.1l2.2-0.9v-4.4h1.2v4l2.5-1v-4.7h1.2v4.2l2.8-1.1l0.2-0.2l0.9,0.3l0,0.2
		c0,2.5-0.2,5.7-0.5,7.7l-1-0.3c0.2-1.6,0.3-4.2,0.3-6.4l-2.7,1v6.2h-1.2v-5.8l-2.5,1v6c0,1,0.2,1.2,1.4,1.2L542.9,475.6z"/>
	<path class="st1" d="M556.1,461.5c0,0.6,0,1.5-0.1,2.5c0.2,2,1.3,9.1,7.3,11.8c-0.4,0.3-0.7,0.7-0.9,1.1c-4.2-2-6.1-6.2-6.9-9.4
		c-0.7,4-3.2,7.4-6.7,9.4c-0.3-0.4-0.6-0.7-1-1c7-3.6,7-11.8,7-14.4L556.1,461.5z"/>
	<path class="st1" d="M580.7,467.7c-0.8,1.1-1.8,2.2-2.8,3.1v4.3c0,0.9-0.2,1.3-0.8,1.5c-1.1,0.2-2.3,0.3-3.5,0.2
		c-0.1-0.5-0.2-0.9-0.5-1.3c1.3,0,2.6,0,3,0s0.5-0.1,0.5-0.5v-3.2c-3,2.3-6.5,3.9-10.1,4.9c-0.3-0.4-0.5-0.8-0.8-1.1
		c3.4-0.8,6.6-2.2,9.5-4.2c-3.2,0.3-6.4,0.5-8.7,0.7l-0.1-1.1c0.7,0,1.4-0.1,2.2-0.1v-7.8h3.4c0.3-0.6,0.5-1.1,0.8-1.7l1.5,0.2
		c-0.2,0.5-0.5,1-0.8,1.5h4.7v6c0.6-0.6,1.1-1.3,1.6-2L580.7,467.7z M569.6,464.2v1.6h7v-1.6H569.6z M569.6,468.2h7v-1.5h-7V468.2z
		 M569.6,470.8l7-0.5v-1.1h-7V470.8z"/>
	<path class="st1" d="M598.7,474.9v1.3h-15.1v-1.3h6.3v-13.2h1.3v5.2h6.3v1.3h-6.3v6.7L598.7,474.9z"/>
	<path class="st2" d="M248,248.5c0,0,1.1-84.6,73.9-87.6"/>
	<polygon class="st3" points="311,176.7 308.4,174.3 320.5,161.2 306.6,150.1 308.9,147.2 325.8,160.9 	"/>
	<line class="st2" x1="368.4" y1="302" x2="437.6" y2="302"/>
	<polygon class="st3" points="425.6,316.8 423.2,314.1 436.2,302 423.2,289.8 425.6,287.2 441.5,302 	"/>
	<path class="st2" d="M249.6,365.1c0,0-1.5,80,57.1,83.4"/>
	<polygon class="st3" points="293.2,461.6 291,458.7 305.3,448.1 293.6,434.6 296.3,432.2 310.5,448.6 	"/>
	<path class="st4" d="M640.7,181.4c0.4,0.1,0.3-0.4,0.4-0.4C640.3,181,640.7,181.5,640.7,181.4z"/>
	<polygon class="st4" points="633.4,182.1 633.5,181.9 632.5,182.3 	"/>
	<path class="st4" d="M626.7,181.8c0.6,0.7,2.5,0,3.7,0.3l0.2,0.2l0.6-0.6C629.6,181.9,628.1,181.9,626.7,181.8z"/>
	<path class="st4" d="M623.1,180.1c0.2,0.3-0.8,0.2,0.8,0.1l-0.2-0.1C623.7,180.2,623.5,180.2,623.1,180.1z"/>
	<path class="st4" d="M623.8,180.2C624.5,180.2,623.3,179.9,623.8,180.2z"/>
	<path class="st4" d="M620.5,180.2l1-0.2c-0.2-0.2-1-0.2-0.7-0.4C619.8,179.8,620,179.9,620.5,180.2z"/>
	<path class="st4" d="M619.6,180.7l0.5-0.1C620,180.6,619.9,180.5,619.6,180.7z"/>
	<path class="st4" d="M621.1,180.4l-1,0.2c0.1,0.1,0.1,0.4,0.5-0.1C620.5,180.8,620.7,180.6,621.1,180.4z"/>
	<path class="st4" d="M621.7,180.6c0.5,0.2,1.2,0.3,0.2,0.5C623.8,181.1,623.5,180.5,621.7,180.6z"/>
	<path class="st4" d="M626.3,182.5l0.7,0.2l0.6-0.2C627.3,182.7,626.2,182.3,626.3,182.5z"/>
	<path class="st4" d="M614.7,179.7c-0.1,0.1,0.3,0.4,0.4,0.6l0.7-0.1C615.4,180,614.7,179.9,614.7,179.7z"/>
	<path class="st4" d="M615,180.3l-1,0.2C614.9,180.6,615.1,180.4,615,180.3z"/>
	<polygon class="st4" points="619.4,181.5 621.1,181 619.1,181.5 	"/>
	<polygon class="st4" points="610.7,179.5 611.3,179.2 610.3,179.7 	"/>
	<path class="st4" d="M608.1,179.5c0.4-0.3-0.6-0.5-0.1-0.7c-0.7,0.1-1.3,0.2-1.9,0.5C606.8,179.2,607.5,179.2,608.1,179.5z"/>
	<path class="st4" d="M605.2,179.6c0.3-0.1,0.6-0.2,0.9-0.3C605.8,179.3,605.5,179.4,605.2,179.6z"/>
	<path class="st4" d="M612.2,180.4c-0.2-0.3-0.5-0.4-0.8-0.5l0.4,0.4L612.2,180.4z"/>
	<path class="st4" d="M611.8,180.4L611.8,180.4l-0.9-0.1L611.8,180.4z"/>
	<path class="st4" d="M612.3,180.4L612.3,180.4C612.2,180.4,612.3,180.4,612.3,180.4z"/>
	<path class="st4" d="M616.7,181c-0.6,0.2-1.9,0.4-0.7,0.8C616.5,181.6,615.8,181.4,616.7,181z"/>
	<path class="st4" d="M612.8,180.9l1.1,0.1c0-0.1-0.2-0.3,0.1-0.4L612.8,180.9z"/>
	<polygon class="st4" points="612.3,181 612.8,180.9 612.4,180.9 	"/>
	<path class="st4" d="M607,180c-0.5,0.1-1.1,0.2-1.6,0.2c0.6,0.1,1.3,0.2,1.9,0.2C607.4,180.3,607.7,180,607,180z"/>
	<path class="st4" d="M609.4,180.2h-0.1C609.3,180.3,609.4,180.3,609.4,180.2z"/>
	<polygon class="st4" points="599.7,180.1 599.8,180.1 599.8,180.1 	"/>
	<path class="st4" d="M607.5,180.5c0.3,0.1,0.7,0,1-0.1c-0.4,0-0.8,0-1.1,0C607.3,180.5,607.3,180.5,607.5,180.5z"/>
	<path class="st4" d="M603.5,179.8c0.3,0.1,0.5,0.2,0.8,0.3C604.1,179.9,603.6,179.6,603.5,179.8z"/>
	<path class="st4" d="M609.1,180.1L609.1,180.1C609,180,609,180.1,609.1,180.1z"/>
	<path class="st4" d="M609.1,180.1c-0.2,0.1-0.4,0.1-0.6,0.2c0.3,0,0.5-0.1,0.8-0.1C609.2,180.2,609.2,180.2,609.1,180.1z"/>
	<path class="st4" d="M597.8,182.8c0.1-0.4,1.3-0.7,2.4-0.3c1.1-0.3,0.4-1.6-0.5-2.3c0,0.2,0,0.3-1.1,0.5c0.4,0.2,2.4,0.6,1.5,0.9
		c-1.5,0.2-1.2-0.2-1.9-0.4c0.6,0.5-1.8,0.7-1.6,1.4l1.3-0.2C598,182.5,597.5,182.6,597.8,182.8z"/>
	<path class="st4" d="M601.8,180.2h0.5c-0.5-0.1-1.1-0.3-1.5-0.6c-0.8,0.2-0.9,0.3-1,0.4l2.2,0.1L601.8,180.2z"/>
	<path class="st4" d="M604.3,180.3c-0.4,0.4-1.4,0.6-0.8,1.1c1.3,0,0.9-0.3,1.7-0.5C603.1,180.8,605.8,180.6,604.3,180.3
		c0.4,0,0.8,0,1.2,0c-0.4-0.1-0.8-0.1-1.1-0.2l0,0l0,0c0.1,0.1,0.1,0.1,0,0.1l0,0C604.3,180.1,604.3,180.2,604.3,180.3
		c-0.6-0.1-0.1-0.1,0.1-0.2c0,0,0,0,0-0.1l0,0l-2.1,0.2C602.9,180.3,603.6,180.3,604.3,180.3z"/>
	<path class="st4" d="M614.9,182.8c0,0-0.1-0.1-0.1-0.1C614.7,182.7,614.6,182.7,614.9,182.8z"/>
	<path class="st4" d="M614,182.5c0.2-0.1,0.5-0.2,0.8-0.2c0.4,0.1,0,0.2,0,0.4c0.3-0.1,1.1-0.3,0.1-0.5l-0.2,0.1
		c-0.8-0.2-1.9-0.8-1.8-0.8C613.2,181.8,613.6,182.2,614,182.5z"/>
	<path class="st4" d="M609.1,181.5l-1.8,0.2l0.9,0.4v-0.2C609.2,181.9,609,181.6,609.1,181.5z"/>
	<polygon class="st4" points="599.5,179.9 599.7,179.4 598.7,180 	"/>
	<polygon class="st4" points="597.2,179.8 597.3,179.4 596.7,179.7 	"/>
	<path class="st4" d="M467.5,183l-0.5,0.1C467.2,183.1,467.4,183.1,467.5,183z"/>
	<path class="st4" d="M471.3,183.1l0.1-0.2C471.2,183,471.1,183.1,471.3,183.1z"/>
	<path class="st4" d="M540.8,178.7c-0.8-0.4-1.6-1-1.5-0.5l0.2,0.4C539.9,178.5,540.3,178.6,540.8,178.7z"/>
	<path class="st4" d="M502.1,180.8l0.2,0.1l0.5-0.4L502.1,180.8z"/>
	<path class="st4" d="M501.5,182.6l-1-0.3C500.9,182.5,501.2,182.6,501.5,182.6z"/>
	<path class="st4" d="M447,183.6l-0.6,0.4C447.4,184,446.9,183.8,447,183.6z"/>
	<path class="st4" d="M573.6,179.4c-0.5-0.2-1.1-0.3-1.6-0.3C572.8,179.4,573.4,179.8,573.6,179.4z"/>
	<path class="st4" d="M469,178.4c-0.3,0.1-0.5,0.2-0.4,0.3C468.9,178.6,469.1,178.5,469,178.4z"/>
	<path class="st4" d="M570.1,179.1l0.3,0.1c0.5-0.1,1-0.1,1.5-0.1C571.4,178.8,570.7,178.8,570.1,179.1z"/>
	<path class="st4" d="M372.6,184.2h-0.2C372.4,184.2,372.5,184.2,372.6,184.2z"/>
	<path class="st4" d="M350.8,180.4c0.2,0,0.6,0,0.9-0.1C351.4,180.3,351.1,180.4,350.8,180.4z"/>
	<path class="st4" d="M587.9,179.4C588.4,179.4,588,179.4,587.9,179.4z"/>
	<path class="st4" d="M590.3,181.2c-0.1,0-0.2,0.1-0.2,0.2C590.1,181.3,590.2,181.2,590.3,181.2z"/>
	<path class="st4" d="M565.2,181.7L565.2,181.7C565.3,181.8,565.3,181.7,565.2,181.7z"/>
	<path class="st4" d="M588.7,179.6c-0.2-0.1-0.4-0.1-0.6-0.1C588.2,179.5,588.5,179.6,588.7,179.6z"/>
	<path class="st4" d="M588.6,179.4l0.4,0.1C589.1,179.4,589,179.3,588.6,179.4z"/>
	<path class="st4" d="M587.3,179.4c0.3,0,0.5,0,0.8,0.1c-0.1,0-0.1-0.1-0.1-0.1H587.3z"/>
	<path class="st4" d="M412.5,182.4h-0.1C411.9,182.5,412.1,182.5,412.5,182.4z"/>
	<path class="st4" d="M528,183L528,183L528,183L528,183z"/>
	<path class="st4" d="M526.3,183.3c0.5-0.4,1.1-0.5,1.7-0.3l-0.6-1.3L526.3,183.3z"/>
	<path class="st4" d="M458.5,183.2l1.2,0.4c-1.5,0.6-2.5,0.4-1.4,1c0.2-1.4,4.8-0.1,4.9-1.5l0.8,0.3c-0.2,0-0.3,0.1-0.5,0.1
		c1.6,0.6,1.2-1,3.2-0.8c0.7,0.1,1.2,0.3,0.7,0.5l1.6-0.3c0.5,0,0.4,0.3-0.1,0.2l2.4-0.1l0,0c0.5-0.3,1-0.5,1.5-0.7
		c0.6,0.2-0.3,0.1-0.1,0.3l1.3-0.3c0.5,0.4-0.6,0.7-1.5,0.6c1.2,1.4,1.1-0.3,3.8,0.4l-1.3,0.2c0.8,0.8,1.8,0.5,3.2,1
		c-0.3-0.2-2.8-1.2-1.4-1.6c0.6,0.1,1.2,0.1,1.7-0.1c0,0.5,0.8,0.4,1.7,0.3l-0.1,0.6c1-0.2,1-0.5,1.5-0.8c0.7,0,1.4,0.4,1.6,1
		c1.8,0.1-1.3-0.8,0.9-0.9c1.5,0.2,3,0,4.4-0.4c1.1,0.2-0.2,0.4,0.2,0.6l1-0.5c0.2,0,0.2,0.2,0.1,0.2c0.8-0.2,0.1-0.6,1.3-0.8
		c0.3-0.7,2.6,1,4.1,0.2c0.4,0.2-0.2,0.4-0.1,0.6c1.2-0.2,2.4-0.6,3.6-1.1l1.5,0.4c-1.1-0.5,0.3-1.1,1.5-1.5
		c-0.3-0.2-0.6-0.4-0.9-0.5l2-0.3c0.2,0.1,0,0.3-0.3,0.6l0.4-0.1c0.7,0.2,0.3,0.6-0.2,1l-0.7-0.4c-0.5,0.4-0.9,0.8-0.8,1.2
		c0.2-0.1,0.4-0.1,0.6-0.2c-0.1,0.1-0.2,0.2-0.1,0.3s0.3-0.1,0.6-0.2l0.4,0.7l0.1-0.3l2.6,0.5c1.8-0.7,3.4-1.7,6.3-2
		c-0.7,0.5-0.2,0.9-0.2,1.5c-0.8-0.7-2.2,0.3-3.8,0.1c0.8,0.1,0.6,0.4,0.4,0.5l2.7-0.6c-0.1,0.5,0.6,0.4,1.3,0.6
		c-0.5-1,2-0.6,3.1-0.9c0.1,0.3-0.2,0.7-1.5,0.6c1.5,0.8,1.9-1.2,3.3-0.5c-0.3,0-0.5,0-0.6,0.1c0.8-0.3,2.6,0,2.2,0.2h-0.3
		c2.2,0.1,6.6,0.1,6.9-0.8c-0.1,0.4-0.2,0.8-0.4,1.2l3.9-2.8c-0.3,0.7,0.9,2.5-0.9,2.9c0.7,0.2,1.5,0.2,2.2,0
		c-0.3-0.1-0.9-1.1-0.4-1.1c0.8,0.5,1.6,0.9,2.5,1.2c-0.5-0.2,0.1-1.3,0.9-1.2c-0.1,0.2,0,1.1-0.2,1.2l2.1-1.1
		c-0.5,0.2-0.1,1,0.3,1.3c-0.2-0.2,1.8,0,2.3-0.1l-0.9-0.3c2.3,0.2,2.3-1.6,4.7-1.4c-0.3,0.2-0.7,1.4,0.5,1.6
		c0.5-0.6,2.4-2.7,4.5-3.1l0.4,0.3l1.6-0.4c-1.6,1.3-3.4,2.4-5.3,3.3c0.9,0.3,0.2,0.4,1.5,0.4c0.5,0.3-0.7,0.5-1.1,0.5l3,0.2
		c-0.1-0.7,2.3-0.6,2.2-1.2l-3.3,0.6c-0.1-0.7,2-1.9,4.1-1.7c0.5,0.3-0.4,1.2-0.4,1.4c0.7-0.3,1.5-0.4,2.2-0.2l-0.9,0.4
		c1.2,0.3,2-0.9,3.4-0.2c0.5,0.1,1.5,0.9,1.6,0.5c-0.8-0.8-0.9-3.2-0.4-3.7c1.1,0.3,2.1,0.7,3.2,1.2c0.8,0.6-1.3,1.4-0.6,1.9
		c0-0.2,0.5-0.4,0.7-0.5c0.5,0.2-0.2,0.6,0.9,0.5c0.2-0.7,2.3,0.1,0.5-0.6c1.1-0.2,1.2,0.2,2.5,0.2c-0.4-0.4,1.2-1.5,2.3-1.6
		c-0.1,0.2,0.2,0.4,0.3,0.5c2.3,0.1,3.5,0.4,5.6,0.5c0.2,0.2,1.2,0.4,0.8,0.7c0.4-0.2,0.8-0.3,1.2-0.3c1.3,0.6-1.5,0.1-0.5,0.8
		c0.1-0.4,1.7-0.5,2.7-0.7c-0.3-0.6-2.2-0.2-3.1,0.1c0-0.8,1.7-1.7,3.9-2c1.8-0.2,0.8,0.6,1.1,0.4c3.3,0.2,2.9-1.4,5.6-0.8
		c1.1,0.6,0,1.1,0.3,1.5c-1.5,0.2-2.2-0.4-3.2-0.4l1.2,0.3c-0.6,0.2-1.3,0.3-2,0.1c0.9,0.5,5.6,0.2,8.2,0.7c0.5-0.2,1.2-0.3,0.9-0.6
		l-0.8,0.1c-0.7-0.4,1.5-0.6,0.5-0.8c1.2-0.4,2.6-0.6,3.8-0.4l0.3,0.6c0-0.2-1-0.4-1.4-0.2c0.7-0.2,2.3,0.9,3,0.1l-1.1-0.4
		c1.1-0.3,2.5-0.9,3.8-0.7c-0.6-0.6-0.3,0.1-1.3-0.7c0.8,0.9-3.5-0.1-2.2,0.8c-1-0.9-1.7-0.4-3-1.1c0,0.2,0.5,0.4-0.7,0.3
		c-0.1,0.1-0.2,0.1-0.2,0.2h-0.1h0.1c0,0,0,0,0,0c0.2,0.1,0.4,0.2,0.6,0.3c-0.6,0.4-2.4,0.4-3,0.6c-0.7-0.1,0.3-0.2-0.1-0.4
		l-0.9,0.3c-0.1-0.4-1.8-0.8-0.2-1l-1.4-0.1c-0.9-0.3-1.8-0.4-2.7-0.2c-0.7-0.1-1.7,0.5-1.1,0.1l-2.3,0.2v-0.1
		c-2.2-0.1-4.6,0.6-7.1-0.2c-0.9,0.2-1.8,0.2-2.8,0.1l-0.2-0.4c-1,0.1-2.9-0.4-3.3-0.1c-1-1.1-4.7-0.3-6.3-0.6l-0.1,0.5
		c-1.2-0.1-2.5,0-3.7,0.1l0.1,0.4c-1.2,0.4-3.2-0.4-5.2-0.4c0.1-0.2,0.6-0.1,1,0c-2.3-1-5,0.7-7.1-0.1c-0.4,0.1-0.9,0.1-1.3,0h0.1
		h-0.2c-0.2-0.1-0.5-0.2-0.7-0.2c0.2,0.1,0.4,0.2,0.6,0.2c-0.5,0-1.1,0.1-1.6,0.1l-0.2-0.5h-0.1c-0.6-0.2-0.5,0.2-0.2,0.6
		c-0.3,0.1-0.6,0.2-0.8,0.3c-0.5-0.8-1.6,0.2-2.2-0.6c-0.4,0.4-3.1,0.3-3.4,1.1c0-0.1-0.2-0.2,0.1-0.2c-0.7-0.2-1.3-0.2-2,0
		l-0.3-0.6L529,180c-0.9-0.4-1.3-0.6-0.4-1.1c-2.2,0.7-1.8,0.2-3.6,0.9l0.1-0.4c-0.7,0-1.7,0.5-2.1,0.2c-1.5-0.8-7.3-0.2-11-0.9
		c0.7,1.2-1.8-0.5-1.9,0.4c-0.2-0.3-0.7-0.4-0.1-0.7c-1.9,0.2-2.9-0.5-4.2,0.3c-0.2-0.3,0.4-0.4,0.2-0.6c-0.1,0.1-0.6,0.2-0.8,0.1
		s0.3-0.2,0.6-0.4c-2,0-2.2,0.9-2.3,1.7c-0.7-0.4-1.6-0.3-2.2,0.2c-0.3-0.3-0.9-0.5,0.3-0.6c-0.7,0-4.2-0.4-4.3,0.2
		c-0.4-0.1-0.8-0.1-1.1,0c-1.5,0-1.7-0.1-3.2,0l0.4,0.1c-0.6,0.8-1.3,0.2-2.5,0.3v-0.1c-2.8-0.6-1.2,0.3-4-0.4l0.1,0.5
		c-0.3,1-2.4-0.6-4-0.2l0.6,0.3c-0.9,0.4-2.4-1.4-3.3-1.5c-0.2-0.1,0.3-0.1,0.6-0.2c-2.3-0.6-0.3,0.6-2,0.8
		c-0.3-0.3,0.4-0.9-0.8-0.9c-0.6-0.3-3.4,1.1-4.9,0.4c0.4,0.3,0.7,0.5-0.1,0.7c-1.2,0.1-3.3-1-4.4-0.2c-0.2-0.1-0.2-0.1-0.2-0.2
		c-0.9,0.2-3,0.4-3.6,0.8c-0.9-1.7-5.8,0.8-5.8-0.7l-2.9,0.1l0.1-0.2c-1.1-0.2-2.2,0.1-3.1,0.6c-0.4-0.1-0.1-0.2-0.1-0.3
		c-1.7-0.4-3.6-0.2-5.2,0.6l-0.2-0.5c-0.6,0.3-3.9-0.8-6.5-0.2c0.1-0.1,0.2-0.2,0.3-0.2c-3,0.6-7.1-1.3-8.2,0.5l-2,0.5
		c2.5,0.1-0.4,0.8,0.7,1.1c-1,0.1-2.6-0.5-1.4-0.6l0.2,0.1c0.4-0.9-3.1-0.3-3.1-0.9c-5,0.1-9.8-0.4-14.5-0.4l0.5,0.7h-1.6
		c-0.4-0.2-0.6-0.6,0.6-0.6c-0.6-0.4-1.9,0.4-2,0.5c-2.3-0.3,0.9-0.9,0.2-0.9l-0.9,0.1l0.2,0.1c-0.7,0.4-1.4,0.7-2.2,0.6
		c-0.9-0.1-0.5-0.4-0.8-0.5c0-0.1-0.1-0.1-0.5,0h-2l0.8,0.6c-0.9,0.3-1.9,0-1,0.6c-1.4-1-7.6-0.2-8.5-0.6c-1.3,0.4-2.7,0.5-4.1,0.4
		c0.4,0.1,0.6,0.8-0.7,0.7c0.5-1.4-2.5-0.5-3.6-1.5c1,0.6-3.8,0.2-2.3,1.1c-1.1-0.1-0.1-0.5-0.9-0.8c-2.6,0.6-5.9-0.2-9.1,0
		c0,0.2,0.5,0.4-0.2,0.7l-1.8-0.8c-0.6,0.1-0.6,1-1.8,0.4c0.2,0.1,0.4,0.4,0,0.4c-6.5-0.7-13.1,1-19.7-0.4c0.9,0.3,0.3,0.4-0.4,0.4
		c0.4,0.1,0,0.4,0.1,0.7l-2.8-0.6c-0.5,0.7-2.9,0.1-3.2,0.8l0.9-0.1c-1.1,0.8,1.7,1.6,1.5,2.6c1.3-0.9,3.4,1.1,5.5-0.1
		c0.5,0.2-0.4,0.3-0.1,0.5c0.7-0.5,1.6-0.6,2.4-0.4l-0.1,0.1c3.4-0.2,4.8,0.2,8.6,0.3l-0.3-0.5c0.5,0,0.9,0.1,1.4,0.3
		c0.9-0.7-2.3,0-1.5-0.8c1.1,0.9,5.7-0.1,6.5,0.9c1.2,0-0.4-0.5,0.9-0.6l0.3,0.3l0.3-0.4c0.8,0,1.2,0.4,1.3,0.7
		c-0.3,0-0.5,0-0.8,0.1c1.1,0.3,3-0.2,3.4-0.1l-1.2-0.2c3.4-0.4,7.6-0.1,10.9-0.7l-0.2-0.2c2.5-0.5,2,0.2,4.8,0l-0.1,0.1
		c0.6-0.2,1.3-0.4,2-0.4c-0.7,0.3,1.3,0.5,0.4,0.8c2.7-0.5,1.4-0.4,3.1-1.2l0.4,0.4c0.6-0.4,1.3-0.7,2-0.6c-1.1,0.3,0.9,0.6-0.4,1
		c2.9,0.8,4.3-0.9,5.6,0.3c1.3-1-2.5-0.5-1.8-0.8c-0.6-0.3,1.1-0.8,2-0.7s1.6,1.3,3.9,1.2c-0.2,0-0.2,0.1-0.5,0.1
		c0.9,0.2,1.7-0.4,2.8,0c0.6-0.6,1.4,0,1.5-0.8l-2.1,0.2c1.2-0.2,2.3-1.2,4.3-0.8c-0.4,0.2-0.7,0.4-1.1,0.5c0.6,0.2,1.1-0.2,1.7,0.1
		c-0.2,0.8-2.6,0.2-3.9,0.8c0.6,0.3,2.5-0.6,1.8,0.3c0.9-1.1,2.3,0.1,3.9-0.7l-0.1,0.5c0.4-0.2,0.8-0.3,1.2-0.3l-0.8,0.6
		c1.3-0.5,2.5,0.4,3.7,0.1c-2.6,0-0.6-0.6-1.7-0.9c3.2-0.7,1.8,1.2,5.4,1c-0.5,0.1-1.8-0.3-1.1-0.5c0.7,0.1,1.4,0.2,2,0.5
		c2.4-0.1-0.4-0.5,0.6-0.8c0.8,0.6,1.1-0.2,2.2-0.4v0.3c2.7,0.3,0.7-1,3.1-0.7l-1,0.7l1.2-0.2l-0.2,0.6c1-0.3,2.1-0.4,3.1-0.2
		c-0.3-0.3,0.2-0.9,1.4-0.9c0.8,0.3-0.5,0.5,1.2,0.4c-0.4,0.5-1,0.6-1.5,0.2c-0.1,0.2-0.4,0.3-0.5,0.5c0.9,0.2,1.9,0.2,2.8,0.1
		c-0.2,0-0.4,0-0.7-0.1l2.4-0.7c0.4,0.2,0.1,0.3-0.2,0.5c0.5-0.1,1-0.2,1.6-0.3c-0.2,0.4-0.1,0.8-1.2,1l2.3-0.4
		c0.2,0.2,1.2,0.5,0.9,0.6c1.3,0.2,3.1-0.8,4.9-0.5c0.2-0.1,0.4-0.2,0.6-0.2c1.6,0.1,3,0.6,4.9,0l1.1,0.7c1.5-0.2-1.5-0.9,1-1.1
		c1.8-0.2,0.7,0.6,1.3,0.8c1.2-0.7,2.7-0.9,4-0.5C459.4,183.1,459,183.2,458.5,183.2z M476.9,182.8c-0.4,0.1-1.1,0.4-1.3,0.1
		C476,182.4,476.3,182.7,476.9,182.8z M504.8,181.8c-0.4,0.1-0.8,0.1-1.1-0.1C504,181.7,504.4,181.7,504.8,181.8L504.8,181.8z
		 M582.6,179.7L582.6,179.7C581.8,179.4,582,179.5,582.6,179.7L582.6,179.7z M584.2,179.9c0.2-0.1,0.2-0.1,0.1-0.2
		c-0.1,0.1-0.5,0.1-0.9,0.1C583.5,179.9,583.7,180,584.2,179.9L584.2,179.9z M407.2,179.2l0.3,0.1
		C406.8,179.5,407,179.3,407.2,179.2L407.2,179.2z"/>
	<path class="st4" d="M501.6,182.4c-0.1-0.1-0.1-0.2-0.1-0.3C501.3,182.2,501.3,182.3,501.6,182.4z"/>
	<path class="st4" d="M447.1,183.5L447.1,183.5c-0.1,0-0.1,0.1-0.1,0.1L447.1,183.5z"/>
	<path class="st4" d="M558.6,183.4c-0.2,0-0.5-0.1-0.7-0.3C558,183.3,558.1,183.4,558.6,183.4z"/>
	<path class="st4" d="M593,179.3l-1.1,0.1c0.3,0,0.7,0,1,0.2C592.8,179.5,592.7,179.3,593,179.3z"/>
	<path class="st4" d="M602.1,182.6c0.2-0.1,0.3,0,0.5-0.1v-0.2C601.8,182.3,601.4,182.4,602.1,182.6z"/>
	<path class="st4" d="M593.9,180.9c0.1,0.4,0.7,0.3,1.5,0.2h-0.1C595.5,180.6,594.7,180.8,593.9,180.9z"/>
	<path class="st4" d="M595.6,181.2c0.2,0,0.5,0,0.7,0C596.3,181,596,181.1,595.6,181.2z"/>
	<path class="st4" d="M586.3,179.7c0.3,0.1,0.2-0.5,0.4-0.3C587.2,178.8,584.4,179.9,586.3,179.7z"/>
	<polygon class="st4" points="594.5,182.3 594.2,181.8 593.8,182.2 	"/>
	<path class="st4" d="M588.7,181.8l1.2,0.2c0-0.1,0.1-0.1,0.3-0.2C589.4,181.7,588.6,181.6,588.7,181.8z"/>
	<path class="st4" d="M590.2,181.8c0.3,0,0.7,0,1-0.1C590.8,181.7,590.5,181.7,590.2,181.8z"/>
	<polygon class="st4" points="592.9,182.4 592.5,182.3 591.7,182.2 	"/>
	<path class="st4" d="M576,181.4l-1.3,0.1c-0.1,0.2,0.2,0.3,0.7,0.2C575.7,181.6,576.2,181.5,576,181.4z"/>
	<path class="st4" d="M579.8,182.8c-0.3-0.1-0.4-0.2-0.6-0.4l0,0.6L579.8,182.8z"/>
	<path class="st4" d="M576.1,182.9c-0.1,0.2-1.9,0.5-0.2,0.4C576,183.2,577.2,183,576.1,182.9z"/>
	<polygon class="st4" points="556.7,181.7 557,181.7 557,180.7 	"/>
	<path class="st4" d="M539.5,183.9c1.5,0.3,0.4-0.6,1.8-0.3c0.4-0.2-1.1-0.3-0.8-0.5C539.6,183.3,539.1,183.2,539.5,183.9z"/>
	<path class="st4" d="M540.5,183.1c0.2,0,0.3-0.1,0.5-0.1C540.8,183,540.6,183,540.5,183.1z"/>
	<polygon class="st4" points="347.2,180 346.2,179.8 346.8,180.1 	"/>
	<path class="st4" d="M345.3,180.8l-0.3-0.6l-0.6,0.6C344.7,180.7,345.1,180.7,345.3,180.8z"/>
	<path class="st4" d="M479.6,184.2l0.1-0.2c-0.1-0.2-0.4-0.2-0.8-0.2L479.6,184.2z"/>
	<polygon class="st4" points="466.3,183.7 466.5,183.7 466.1,183.1 	"/>
	<path class="st4" d="M455.1,184.4c0.5,0,1-0.1,1.5-0.1C455.6,184.5,455,183.7,455.1,184.4z"/>
	<path class="st4" d="M640.8,321.2c0.3,0,0.2-0.4,0.2-0.5C640.5,320.8,640.8,321.3,640.8,321.2z"/>
	<polygon class="st4" points="636.4,322.1 636.5,321.9 635.9,322.3 	"/>
	<path class="st4" d="M632.4,322c0.4,0.7,1.5-0.1,2.2,0.2l0.1,0.2l0.3-0.6C634.2,322,633.3,322.1,632.4,322z"/>
	<path class="st4" d="M630.3,320.5c0.1,0.3-0.5,0.2,0.5,0.1l-0.1-0.1C630.6,320.5,630.4,320.5,630.3,320.5z"/>
	<path class="st4" d="M630.7,320.5C631.1,320.5,630.4,320.2,630.7,320.5z"/>
	<path class="st4" d="M628.7,320.6l0.6-0.2c-0.1-0.2-0.6-0.2-0.4-0.3C628.3,320.2,628.4,320.4,628.7,320.6z"/>
	<path class="st4" d="M628.2,321.1l0.3-0.1C628.4,321,628.4,320.9,628.2,321.1z"/>
	<path class="st4" d="M629.1,320.8l-0.6,0.2c0.1,0.1,0.1,0.4,0.3-0.1C628.7,321.2,628.8,321,629.1,320.8z"/>
	<path class="st4" d="M629.5,320.9c0.3,0.2,0.7,0.3,0.2,0.5C630.7,321.4,630.5,320.9,629.5,320.9z"/>
	<path class="st4" d="M632.2,322.8l0.4,0.2l0.4-0.2C632.8,322.9,632.2,322.5,632.2,322.8z"/>
	<path class="st4" d="M625.3,320.2c0,0.1,0.2,0.4,0.2,0.6l0.4-0.2C625.7,320.5,625.3,320.4,625.3,320.2z"/>
	<path class="st4" d="M625.5,320.8l-0.6,0.2C625.4,321.1,625.5,321,625.5,320.8z"/>
	<polygon class="st4" points="628.1,321.9 629.1,321.4 627.9,321.9 	"/>
	<polygon class="st4" points="622.9,320.2 623.3,319.8 622.6,320.3 	"/>
	<path class="st4" d="M621.3,320.2c0.3-0.3-0.3-0.5-0.1-0.7c-0.4,0.1-0.8,0.3-1.1,0.5C620.6,319.9,621,320,621.3,320.2z"/>
	<path class="st4" d="M619.6,320.4c0.2-0.1,0.4-0.2,0.5-0.3C619.9,320.1,619.8,320.2,619.6,320.4z"/>
	<path class="st4" d="M623.8,321c-0.1-0.2-0.3-0.4-0.5-0.4l0.2,0.4L623.8,321z"/>
	<path class="st4" d="M623.6,321L623.6,321h-0.5H623.6z"/>
	<path class="st4" d="M623.9,321L623.9,321C623.8,321,623.9,321,623.9,321z"/>
	<path class="st4" d="M626.5,321.5c-0.4,0.2-1.1,0.5-0.4,0.9C626.3,322.1,625.9,321.9,626.5,321.5z"/>
	<path class="st4" d="M624.2,321.5l0.7,0.1c0-0.1-0.1-0.3,0-0.4L624.2,321.5z"/>
	<polygon class="st4" points="623.8,321.6 624.2,321.5 623.9,321.5 	"/>
	<path class="st4" d="M620.7,320.8c-0.3,0.2-0.6,0.2-0.9,0.2c0.4,0.1,0.7,0.1,1.1,0.1C621,321,621.1,320.8,620.7,320.8z"/>
	<path class="st4" d="M622.1,320.9L622.1,320.9C622,320.9,622.1,321,622.1,320.9z"/>
	<polygon class="st4" points="616.3,321 616.4,321 616.4,321 	"/>
	<path class="st4" d="M621,321.2c0.2,0.1,0.5,0,0.6-0.1C621.4,321.1,621.2,321.1,621,321.2C620.9,321.2,620.9,321.2,621,321.2z"/>
	<path class="st4" d="M618.6,320.5c0.2,0.1,0.3,0.2,0.5,0.2C619,320.7,618.7,320.4,618.6,320.5z"/>
	<path class="st4" d="M622,320.8L622,320.8C621.9,320.7,621.9,320.8,622,320.8z"/>
	<path class="st4" d="M622,320.8c-0.1,0.1-0.3,0.2-0.4,0.3c0.2,0,0.3-0.1,0.5-0.1C622.1,320.9,622,320.9,622,320.8z"/>
	<path class="st4" d="M615.3,323.7c0-0.4,0.8-0.8,1.4-0.3c0.6-0.3,0.2-1.6-0.3-2.3c0,0.2,0,0.3-0.7,0.6c0.2,0.2,1.4,0.5,0.9,0.9
		c-0.9,0.2-0.7-0.1-1.1-0.4c0.3,0.5-1.1,0.7-0.9,1.4l0.8-0.2C615.3,323.4,615,323.6,615.3,323.7z"/>
	<path class="st4" d="M617.6,321.1h0.3c-0.3-0.1-0.7-0.3-0.9-0.5c-0.5,0.2-0.5,0.3-0.6,0.5L617.6,321.1L617.6,321.1z"/>
	<path class="st4" d="M619.1,321.1c-0.2,0.4-0.8,0.6-0.5,1.1c0.8,0,0.5-0.4,1-0.5C618.4,321.7,620,321.4,619.1,321.1
		c0.2,0,0.4,0,0.7-0.1c-0.2-0.1-0.4-0.1-0.7-0.2l0,0l0,0c0,0,0.1,0.1,0,0.1l0,0C619.1,320.9,619.1,321,619.1,321.1
		c-0.4-0.1-0.1-0.1,0-0.2c0,0,0,0,0-0.1l0,0l-1.3,0.2C618.2,321.1,618.7,321.1,619.1,321.1z"/>
	<path class="st4" d="M625.4,323.3c0,0,0-0.1,0-0.1C625.3,323.2,625.2,323.3,625.4,323.3z"/>
	<path class="st4" d="M624.9,323c0.1-0.1,0.2-0.2,0.5-0.2s0,0.2,0,0.4c0.2-0.1,0.6-0.3,0.1-0.5l-0.1,0.1c-0.5-0.1-1.2-0.7-1.1-0.8
		C624.4,322.3,624.6,322.7,624.9,323z"/>
	<path class="st4" d="M622,322.1l-1,0.2l0.5,0.4v-0.2C622,322.6,621.9,322.3,622,322.1z"/>
	<polygon class="st4" points="616.2,320.7 616.4,320.3 615.7,320.9 	"/>
	<polygon class="st4" points="614.8,320.8 614.9,320.4 614.5,320.6 	"/>
	<path class="st4" d="M537.7,325.8l-0.3,0.1C537.5,325.9,537.6,325.8,537.7,325.8z"/>
	<path class="st4" d="M539.9,325.8l0-0.2C539.9,325.7,539.8,325.8,539.9,325.8z"/>
	<path class="st4" d="M581.2,320.7c-0.5-0.4-1-0.9-0.9-0.5l0.1,0.4C580.7,320.5,581,320.5,581.2,320.7z"/>
	<path class="st4" d="M558.2,323.3l0.1,0.1l0.3-0.4L558.2,323.3z"/>
	<path class="st4" d="M557.9,325.1l-0.6-0.3C557.5,324.9,557.7,325,557.9,325.1z"/>
	<path class="st4" d="M525.5,326.5l-0.3,0.5C525.7,326.9,525.5,326.7,525.5,326.5z"/>
	<path class="st4" d="M600.8,320.8c-0.3-0.1-0.7-0.2-1-0.3C600.3,320.8,600.7,321.2,600.8,320.8z"/>
	<path class="st4" d="M538.5,321.2c-0.2,0.1-0.3,0.2-0.3,0.3C538.5,321.4,538.6,321.3,538.5,321.2z"/>
	<path class="st4" d="M598.7,320.6l0.2,0.1c0.3-0.1,0.6-0.1,0.9-0.1C599.5,320.3,599.1,320.3,598.7,320.6z"/>
	<path class="st4" d="M481.3,327.8h-0.1C481.2,327.8,481.2,327.8,481.3,327.8z"/>
	<path class="st4" d="M468.1,324.5c0.2,0,0.4-0.1,0.5-0.1C468.4,324.4,468.2,324.4,468.1,324.5z"/>
	<path class="st4" d="M609.3,320.5C609.6,320.5,609.3,320.5,609.3,320.5z"/>
	<path class="st4" d="M610.7,322.3c-0.1,0-0.1,0.1-0.1,0.2C610.6,322.4,610.7,322.3,610.7,322.3z"/>
	<path class="st4" d="M595.8,323.2L595.8,323.2C595.9,323.3,595.9,323.3,595.8,323.2z"/>
	<path class="st4" d="M609.8,320.8c-0.1-0.1-0.2-0.1-0.4-0.1C609.5,320.7,609.7,320.7,609.8,320.8z"/>
	<path class="st4" d="M609.7,320.5h0.2C610,320.5,610,320.5,609.7,320.5z"/>
	<path class="st4" d="M608.9,320.6c0.2,0,0.3,0,0.5,0c-0.1,0-0.1,0-0.1-0.1L608.9,320.6z"/>
	<path class="st4" d="M504.9,325.5L504.9,325.5C504.6,325.7,504.7,325.6,504.9,325.5z"/>
	<path class="st4" d="M573.7,325.1L573.7,325.1L573.7,325.1z"/>
	<path class="st4" d="M572.7,325.5c0.4-0.5,0.7-0.5,1-0.4l-0.3-1.2L572.7,325.5z"/>
	<path class="st4" d="M532.4,326l0.7,0.4c-0.9,0.7-1.5,0.5-0.8,1c0.1-1.4,2.8-0.2,2.9-1.5l0.5,0.3c-0.1,0-0.2,0.1-0.3,0.1
		c1,0.6,0.7-1,1.9-0.8c0.4,0.1,0.7,0.3,0.4,0.5l0.9-0.4c0.3,0,0.2,0.3-0.1,0.2l1.4-0.1l0,0c0.3-0.3,0.6-0.5,0.9-0.7
		c0.4,0.2-0.2,0.1-0.1,0.3l0.8-0.3c0.3,0.4-0.3,0.7-0.9,0.6c0.8,1.4,0.7-0.4,2.3,0.4l-0.7,0.2c0.5,0.8,1.1,0.5,1.9,1
		c-0.2-0.2-1.7-1.2-0.8-1.5c0.3,0.1,0.7,0.1,1-0.1c0,0.5,0.5,0.4,1,0.3v0.6c0.6-0.2,0.6-0.5,0.9-0.8c0.7,0,0.8,0.5,1,1
		c1.1,0.1-0.8-0.8,0.5-0.9c0.9,0.2,1.8,0,2.6-0.4c0.6,0.2-0.1,0.4,0.1,0.6l0.6-0.5c0.1,0,0.1,0.2,0.1,0.2c0.5-0.2,0-0.6,0.8-0.8
		c0.2-0.7,1.5,1,2.5,0.2c0.2,0.2-0.1,0.4,0,0.6c0.8-0.2,1.5-0.6,2.1-1.1l0.9,0.4c-0.7-0.5,0.2-1,0.9-1.5c-0.2-0.2-0.4-0.4-0.6-0.5
		l1.2-0.4c0.1,0.1,0,0.3-0.2,0.6l0.2-0.1c0.4,0.2,0.2,0.6-0.1,1l-0.4-0.4c-0.3,0.3-0.5,0.8-0.5,1.2c0.1-0.1,0.2-0.1,0.4-0.2
		c-0.1,0.1-0.1,0.2-0.1,0.3s0.2-0.1,0.3-0.2l0.3,0.7l0.1-0.3l1.5,0.4c1.1-0.7,2-1.8,3.8-2.1c-0.4,0.5-0.1,0.9-0.1,1.5
		c-0.5-0.6-1.3,0.3-2.2,0.2c0.5,0.1,0.4,0.4,0.2,0.5l1.6-0.6c0,0.5,0.3,0.4,0.8,0.6c-0.3-1,1.2-0.7,1.8-1c0,0.3-0.1,0.7-0.9,0.6
		c0.9,0.8,1.1-1.2,2-0.5c-0.2,0-0.3,0-0.4,0.1c0.5-0.3,1.6-0.1,1.3,0.2h-0.2c1.3,0.1,3.9,0,4.1-0.9c0,0.4-0.1,0.8-0.2,1.2l2.3-2.9
		c-0.2,0.7,0.6,2.5-0.5,2.9c0.4,0.2,0.9,0.2,1.3,0c-0.2-0.1-0.5-1.1-0.2-1.1c0.8,0.8,0.5,0.4,1.5,1.1c-0.3-0.2,0-1.3,0.5-1.3
		c-0.1,0.2,0,1.1-0.1,1.2l1.2-1.1c-0.3,0.2,0,1,0.2,1.3c-0.1-0.2,1.1,0,1.4-0.1l-0.5-0.3c1.4,0.2,1.4-1.6,2.8-1.5
		c-0.2,0.2-0.4,1.4,0.3,1.6c0.3-0.6,1.4-2.8,2.7-3.2l0.2,0.3l0.9-0.4c-0.9,1.2-2,2.4-3.1,3.4c0.5,0.3,0.1,0.4,0.9,0.4
		c0.3,0.3-0.4,0.5-0.7,0.5l1.8,0.2c-0.1-0.7,1.4-0.7,1.3-1.2l-2,0.7c-0.1-0.7,1.1-1.9,2.4-1.8c0.3,0.3-0.2,1.2-0.2,1.4
		c0.2-0.2,1.2-0.4,1.3-0.3l-0.5,0.4c0.7,0.2,1.2-0.9,2-0.2c0.3,0,0.9,0.9,0.9,0.5c-0.5-1.2-0.6-2.5-0.2-3.7c0.7,0.3,1.3,0.7,1.9,1.1
		c0.5,0.6-0.7,1.4-0.3,2c0-0.2,0.3-0.4,0.4-0.5c0.3,0.2-0.1,0.6,0.5,0.5c0.1-0.7,1.4,0.1,0.3-0.6c0.7-0.2,0.7,0.1,1.5,0.1
		c-0.2-0.4,0.7-1.5,1.4-1.7c0,0.2,0.1,0.4,0.2,0.5c1.4,0.1,2.1,0.4,3.4,0.4c0.1,0.2,0.7,0.4,0.5,0.7c0.2-0.2,0.5-0.3,0.7-0.4
		c0.8,0.6-0.9,0.1-0.3,0.8c0-0.4,1-0.5,1.6-0.8c-0.2-0.6-1.3-0.1-1.8,0.1c0-0.8,1-1.7,2.3-2.1c1-0.2,0.5,0.5,0.6,0.4
		c2,0.2,1.7-1.5,3.3-0.8c0.7,0.5,0,1.1,0.2,1.5c-0.9,0.2-1.3-0.4-1.9-0.3l0.7,0.3c-0.3,0.2-0.8,0.3-1.2,0.1c0.5,0.5,3.3,0.1,4.9,0.6
		c0.3-0.2,0.7-0.4,0.5-0.6l-0.5,0.1c-0.4-0.4,0.9-0.6,0.3-0.8c0.7-0.5,1.5-0.6,2.3-0.5l0.2,0.6c0-0.2-0.6-0.4-0.8-0.2
		c0.4-0.3,1.4,0.8,1.8,0l-0.6-0.4c0.7-0.3,1.5-1,2.3-0.8c-0.4-0.6-0.2,0.1-0.8-0.6c0.5,0.9-2.1,0-1.3,0.9c-0.6-0.8-1-0.4-1.8-1.1
		c0,0.2,0.3,0.4-0.4,0.3c0,0.1-0.1,0.1-0.2,0.2l0,0l0,0l0,0c0.1,0.1,0.3,0.2,0.3,0.3c-0.3,0.5-1.4,0.4-1.8,0.7
		c-0.4-0.1,0.2-0.2,0-0.5l-0.5,0.4c0-0.5-1.1-0.8-0.1-1h-0.8c-0.5-0.3-1.1-0.3-1.6-0.2c-0.4-0.1-1,0.5-0.7,0.1l-1.3,0.3v-0.1
		c-1.3-0.1-2.7,0.7-4.2-0.1c-0.5,0.2-1.1,0.2-1.7,0.1l-0.1-0.4c-0.6,0.1-1.7-0.4-2,0c-0.6-1-2.8-0.2-3.8-0.4v0.5
		c-0.8,0-1.5,0.1-2.2,0.3l0,0.5c-0.7,0.4-1.9-0.3-3.1-0.3c0.1-0.2,0.4-0.1,0.6,0c-1.4-1-3,0.7-4.2,0c-0.2,0.1-0.5,0.1-0.8,0h0.1
		h-0.1c-0.1-0.1-0.3-0.2-0.4-0.2c0.1,0.1,0.2,0.2,0.4,0.2c-0.3,0-0.7,0.1-1,0.2l-0.2-0.5h-0.1c-0.4-0.2-0.3,0.2-0.1,0.6
		c-0.2,0.1-0.3,0.2-0.5,0.3c-0.3-0.8-1,0.3-1.3-0.6c-0.2,0.4-1.8,0.3-2,1.1c0-0.1-0.1-0.2,0.1-0.2c-0.4-0.2-0.8-0.2-1.2,0l-0.2-0.6
		l-0.9,0.8c-0.5-0.4-0.8-0.6-0.2-1.1c-1.3,0.7-1,0.3-2.1,1l0-0.4c-0.4,0-1,0.5-1.2,0.2c-0.9-0.8-4.3-0.1-6.6-0.8
		c0.4,1.2-1-0.5-1.1,0.4c-0.1-0.3-0.5-0.4-0.1-0.7c-1.1,0.3-1.7-0.4-2.5,0.3c-0.1-0.3,0.2-0.4,0.1-0.6c-0.1,0.1-0.4,0.2-0.5,0.1
		s0.2-0.2,0.3-0.4c-1.2,0-1.3,0.9-1.4,1.7c-0.6-0.4-0.9-0.3-1.3,0.2c-0.2-0.3-0.5-0.5,0.2-0.6c-0.4,0-2.5-0.4-2.5,0.3
		c-0.1-0.2-0.6,0-0.7,0c-0.6,0-1.3,0-1.9,0l0.2,0.1c-0.3,0.8-0.8,0.2-1.5,0.3v-0.1c-1.7-0.5-0.7,0.3-2.4-0.3l0.1,0.5
		c-0.1,1-1.5-0.6-2.4-0.2l0.3,0.3c-0.5,0.4-1.5-1.4-2-1.5c-0.1-0.1,0.2-0.1,0.3-0.2c-1.4-0.6-0.2,0.6-1.2,0.8
		c-0.2-0.3,0.2-0.9-0.5-0.9c-0.3-0.3-2,1.1-2.9,0.5c0.2,0.3,0.4,0.5,0,0.7c-0.7,0.1-2-1-2.6-0.1c-0.1,0-0.1-0.1-0.1-0.2
		c-0.5,0.2-1.8,0.4-2.1,0.8c-0.5-1.6-3.4,0.9-3.5-0.7l-1.7,0.1v-0.2c-0.7-0.1-1.4,0.1-1.8,0.7c-0.2-0.1-0.1-0.2,0-0.3
		c-1.1-0.4-2.2-0.1-3.1,0.6l-0.2-0.5c-0.4,0.3-2.3-0.7-3.9-0.1c0-0.1,0.1-0.2,0.2-0.2c-1.8,0.6-4.2-1.3-4.8,0.6l-1.2,0.5
		c1.5,0.1-0.2,0.8,0.4,1.1c-0.6,0.1-1.5-0.5-0.8-0.6l0.1,0.1c0.2-1-1.9-0.3-1.8-0.9c-3,0.1-5.9-0.3-8.6-0.2l0.3,0.7h-1
		c-0.3-0.2-0.4-0.6,0.3-0.5c-0.4-0.4-1.1,0.4-1.2,0.5c-1.4-0.2,0.5-0.9,0.1-0.9l-0.6,0.1l0.1,0.1c-0.4,0.3-0.5,0.6-1.3,0.6
		c-0.5-0.1-0.3-0.4-0.5-0.5c0,0-0.1-0.1-0.3,0h-1.2l0.5,0.6c-0.5,0.3-1.1,0-0.6,0.6c-0.9-1-4.6-0.2-5.1-0.5
		c-0.7,0.4-1.6,0.6-2.4,0.5c0.2,0.1,0.4,0.8-0.4,0.7c0.2-1.4-1.5-0.5-2.2-1.5c0.6,0.6-2.3,0.3-1.3,1.1c-0.7-0.1-0.1-0.5-0.6-0.8
		c-1.5,0.6-3.5-0.1-5.5,0.1c0,0.2,0.3,0.4-0.1,0.7l-1.1-0.8c-0.4,0.1-0.3,1-1,0.5c0.1,0.1,0.3,0.4,0,0.4c-3.9-0.6-7.8,1.2-11.8,0
		c0.6,0.3,0.2,0.4-0.2,0.4c0.3,0.1,0,0.4,0.1,0.7l-1.7-0.5c-0.2,0.7-1.8,0.2-1.9,0.9l0.5-0.2c-0.6,0.8,1.2,1.5,1.2,2.5
		c0.7-0.9,2.1,1,3.2-0.3c0.3,0.2-0.2,0.3,0,0.5c0.3-0.4,0.6-0.6,1.4-0.5l-0.1,0.1c2-0.3,2.9,0.1,5.1,0.1l-0.2-0.5
		c0.3,0,0.6,0.1,0.8,0.3c0.5-0.8-1.4,0.1-0.9-0.8c0.7,0.9,3.4-0.2,3.9,0.8c0.7,0-0.2-0.5,0.5-0.6l0.2,0.3l0.2-0.4
		c0.4,0,0.7,0.3,0.8,0.6c-0.1,0-0.3,0.1-0.5,0.1c0.6,0.3,1.8-0.2,2-0.1l-0.7-0.1c2-0.4,4.5-0.1,6.4-0.9l-0.2-0.2
		c1.5-0.5,1.2,0.2,2.8-0.1l-0.1,0.1c0.3-0.2,0.8-0.4,1.2-0.4c-0.4,0.3,0.8,0.5,0.3,0.8c1.6-0.5,0.8-0.4,1.8-1.3l0.3,0.4
		c0.3-0.4,0.7-0.6,1.2-0.7c-0.7,0.4,0.5,0.5-0.2,1c1.8,0.7,2.5-0.9,3.4,0.2c0.8-1-1.5-0.5-1.1-0.8c-0.4-0.3,0.6-0.8,1.2-0.7
		s1,1.3,2.4,1.2c-0.1,0-0.1,0.1-0.3,0.1c0.5,0.2,1-0.4,1.6,0c0.3-0.6,0.8,0,0.9-0.8l-1.3,0.2c0.7-0.2,1.4-1.2,2.6-0.8
		c-0.2,0.2-0.4,0.4-0.7,0.5c0.4,0.2,0.7-0.2,1,0c-0.1,0.8-1.5,0.2-2.3,0.9c0.4,0.3,1.4-0.6,1.1,0.2c0.5-1.1,1.4,0.1,2.3-0.8v0.5
		c0.2-0.2,0.5-0.3,0.7-0.3l-0.5,0.6c0.7-0.5,1.5,0.4,2.2,0.1c-1.5,0.1-0.4-0.6-1-0.9c1.9-0.7,1.1,1.2,3.2,0.9
		c-0.3,0.1-1.1-0.3-0.6-0.5c0.4,0.1,0.8,0.2,1.2,0.5c1.4-0.1-0.2-0.5,0.4-0.8c0.5,0.6,0.7-0.2,1.3-0.5v0.5c1.6,0.3,0.4-1,1.8-0.7
		l-0.6,0.7l0.7-0.2l-0.1,0.5c0.6-0.3,1.2-0.4,1.9-0.2c-0.2-0.3,0.1-0.9,0.8-0.9c0.5,0.3-0.3,0.5,0.7,0.4c-0.2,0.3-0.5,0.7-0.9,0.3
		c0,0.2-0.2,0.3-0.3,0.5c0.5,0.3,1.3,0,1.7,0c-0.1,0-0.3,0-0.4-0.1l1.4-0.7c0.2,0.2,0,0.3-0.1,0.5c0.3-0.1,0.5-0.3,0.9-0.3
		c-0.1,0.4-0.1,0.8-0.7,1l1.4-0.5c0.1,0.2,0.7,0.5,0.5,0.6c0.8,0.2,1.9-0.8,2.9-0.5c0.1-0.1,0.2-0.2,0.4-0.2c1,0.1,1.8,0.5,2.9,0
		l0.7,0.7c0.9-0.2-0.9-0.9,0.6-1.2c1-0.2,0.4,0.6,0.8,0.8c0.5-0.4,1.4-1.1,2.4-0.5C532.9,326,532.7,326,532.4,326z M543.3,325.5
		c-0.2,0.1-0.6,0.4-0.8,0.1C542.7,325.1,542.9,325.4,543.3,325.5L543.3,325.5z M559.9,324.2c-0.2,0.2-0.4,0.1-0.7-0.1
		C559.4,324.1,559.7,324.1,559.9,324.2z M606.2,320.9L606.2,320.9C605.7,320.8,605.8,320.8,606.2,320.9z M607.2,321.1
		c0.1,0,0.1-0.1,0.1-0.2c0,0,0,0,0,0c-0.1,0.1-0.3,0.1-0.5,0.1C606.7,321.2,606.8,321.2,607.2,321.1L607.2,321.1z M501.7,322.4
		l0.2,0.1C501.5,322.7,501.6,322.5,501.7,322.4z"/>
	<path class="st4" d="M558,324.9c-0.1-0.1-0.1-0.2-0.1-0.3C557.8,324.7,557.8,324.8,558,324.9z"/>
	<path class="st4" d="M525.6,326.4L525.6,326.4C525.6,326.4,525.6,326.5,525.6,326.4L525.6,326.4z"/>
	<path class="st4" d="M591.9,325.1c-0.2,0-0.3-0.1-0.4-0.2C591.5,325,591.6,325.1,591.9,325.1z"/>
	<path class="st4" d="M612.3,320.4l-0.6,0.1c0.2,0,0.4,0,0.6,0.2C612.3,320.5,612.2,320.4,612.3,320.4z"/>
	<path class="st4" d="M617.8,323.4c0.1-0.1,0.2,0,0.3-0.1v-0.2C617.7,323.1,617.4,323.3,617.8,323.4z"/>
	<path class="st4" d="M612.9,322c0,0.4,0.4,0.3,0.9,0.2h-0.1C613.9,321.6,613.4,321.8,612.9,322z"/>
	<path class="st4" d="M613.9,322.1c0.1,0,0.3,0,0.4,0C614.4,321.9,614.1,322.1,613.9,322.1z"/>
	<path class="st4" d="M608.4,320.9c0.2,0.1,0.1-0.5,0.2-0.4C608.9,320,607.2,321.1,608.4,320.9z"/>
	<polygon class="st4" points="613.3,323.3 613.1,322.8 612.9,323.2 	"/>
	<path class="st4" d="M609.8,322.9l0.7,0.1c0-0.1,0.1-0.1,0.2-0.2C610.2,322.9,609.8,322.8,609.8,322.9z"/>
	<path class="st4" d="M610.7,322.9c0.2,0,0.4,0,0.6-0.1C611.1,322.8,610.9,322.8,610.7,322.9z"/>
	<polygon class="st4" points="612.3,323.4 612.1,323.3 611.6,323.3 	"/>
	<path class="st4" d="M602.2,322.8l-0.8,0.1c-0.1,0.2,0.1,0.3,0.4,0.2S602.3,322.9,602.2,322.8z"/>
	<path class="st4" d="M604.5,324.1c-0.2-0.1-0.2-0.2-0.3-0.4v0.6L604.5,324.1z"/>
	<path class="st4" d="M602.3,324.3c-0.1,0.2-1.1,0.5-0.1,0.5C602.2,324.6,603,324.4,602.3,324.3z"/>
	<polygon class="st4" points="590.7,323.4 590.9,323.4 590.9,322.4 	"/>
	<path class="st4" d="M580.5,325.9c0.9,0.2,0.2-0.6,1-0.3c0.2-0.2-0.7-0.2-0.5-0.5C580.6,325.3,580.3,325.2,580.5,325.9z"/>
	<path class="st4" d="M581.1,325.1c0.1,0,0.2-0.1,0.3-0.1C581.3,325,581.2,325,581.1,325.1z"/>
	<polygon class="st4" points="465.9,324.2 465.2,324.1 465.6,324.4 	"/>
	<path class="st4" d="M464.8,325.1l-0.2-0.6l-0.3,0.6C464.4,325.1,464.7,325,464.8,325.1z"/>
	<path class="st4" d="M544.9,326.8v-0.2c-0.1-0.2-0.2-0.2-0.5-0.2L544.9,326.8z"/>
	<polygon class="st4" points="537,326.4 537.1,326.4 536.8,325.9 	"/>
	<path class="st4" d="M530.3,327.3c0.3,0,0.6-0.1,0.9-0.1C530.6,327.3,530.3,326.6,530.3,327.3z"/>
	<path class="st4" d="M640.6,487.5c0.4,0,0.3-0.4,0.3-0.5C640.2,487.1,640.6,487.6,640.6,487.5z"/>
	<polygon class="st4" points="633.3,488.4 633.5,488.3 632.4,488.7 	"/>
	<path class="st4" d="M626.5,488.4c0.6,0.7,2.5-0.1,3.7,0.1l0.2,0.2l0.5-0.6C629.5,488.4,628,488.5,626.5,488.4z"/>
	<path class="st4" d="M622.9,486.9c0.2,0.3-0.8,0.2,0.8,0.1l-0.2-0.1C623.5,486.9,623.3,486.9,622.9,486.9z"/>
	<path class="st4" d="M623.6,486.9C624.3,486.9,623.2,486.7,623.6,486.9z"/>
	<path class="st4" d="M620.3,487.1l0.9-0.2c-0.2-0.2-1-0.2-0.7-0.3C619.6,486.6,619.8,486.8,620.3,487.1z"/>
	<path class="st4" d="M619.4,487.6l0.5-0.1C619.8,487.4,619.7,487.4,619.4,487.6z"/>
	<path class="st4" d="M621,487.3l-1,0.2c0.1,0.1,0.2,0.4,0.5-0.1C620.3,487.6,620.5,487.4,621,487.3z"/>
	<path class="st4" d="M621.5,487.4c0.5,0.1,1.2,0.2,0.3,0.5C623.6,487.8,623.3,487.3,621.5,487.4z"/>
	<path class="st4" d="M626.2,489.2l0.7,0.2l0.6-0.2C627.2,489.3,626.2,489,626.2,489.2z"/>
	<path class="st4" d="M614.5,486.7c-0.1,0.1,0.3,0.4,0.4,0.6l0.7-0.2C615.2,487,614.5,487,614.5,486.7z"/>
	<path class="st4" d="M614.8,487.3l-1,0.3C614.7,487.6,614.9,487.5,614.8,487.3z"/>
	<polygon class="st4" points="619.3,488.4 621,487.9 618.9,488.4 	"/>
	<polygon class="st4" points="610.5,486.7 611.1,486.4 610,486.9 	"/>
	<path class="st4" d="M607.8,486.8c0.4-0.3-0.6-0.5-0.1-0.7c-0.6,0.1-1.3,0.3-1.9,0.5C606.5,486.5,607.2,486.6,607.8,486.8z"/>
	<path class="st4" d="M604.9,487c0.3-0.1,0.6-0.2,0.9-0.3C605.5,486.7,605.2,486.8,604.9,487z"/>
	<path class="st4" d="M612,487.5c-0.2-0.3-0.5-0.4-0.8-0.4l0.4,0.4H612z"/>
	<path class="st4" d="M611.6,487.5L611.6,487.5h-0.9H611.6z"/>
	<path class="st4" d="M612.1,487.5H612C612,487.5,612.1,487.6,612.1,487.5z"/>
	<path class="st4" d="M616.5,488c-0.6,0.2-1.9,0.5-0.7,0.9C616.3,488.6,615.6,488.4,616.5,488z"/>
	<path class="st4" d="M612.7,488l1.1,0.1c0-0.1-0.2-0.3,0.1-0.4L612.7,488z"/>
	<polygon class="st4" points="612.1,488.2 612.7,488 612.2,488 	"/>
	<path class="st4" d="M606.8,487.4c-0.5,0.2-1.1,0.2-1.6,0.2c0.6,0.1,1.3,0.1,1.9,0.1C607.2,487.6,607.5,487.4,606.8,487.4z"/>
	<path class="st4" d="M609.2,487.5H609C609.1,487.5,609.2,487.5,609.2,487.5z"/>
	<polygon class="st4" points="599.4,487.6 599.5,487.7 599.5,487.6 	"/>
	<path class="st4" d="M607.2,487.8c0.3,0.1,0.7,0,1-0.2c-0.4,0-0.8,0.1-1.1,0.1C607.1,487.8,607.1,487.8,607.2,487.8z"/>
	<path class="st4" d="M603.3,487.2c0.3,0.1,0.5,0.2,0.8,0.2C603.9,487.3,603.4,487.1,603.3,487.2z"/>
	<path class="st4" d="M608.9,487.4L608.9,487.4C608.8,487.3,608.8,487.3,608.9,487.4z"/>
	<path class="st4" d="M608.9,487.4c-0.2,0.1-0.4,0.2-0.6,0.3c0.3,0,0.5-0.1,0.8-0.1C609,487.5,608.9,487.4,608.9,487.4z"/>
	<path class="st4" d="M597.7,490.4c0.1-0.4,1.3-0.8,2.4-0.4c1.1-0.3,0.4-1.6-0.6-2.3c0,0.2,0,0.3-1.1,0.6c0.4,0.2,2.4,0.5,1.5,0.9
		c-1.4,0.2-1.2-0.1-1.9-0.3c0.6,0.5-1.8,0.7-1.5,1.5l1.3-0.3C597.8,490.1,597.3,490.3,597.7,490.4z"/>
	<path class="st4" d="M601.6,487.7l0.5,0c-0.5-0.1-1.1-0.3-1.5-0.5c-0.8,0.2-0.9,0.3-1,0.5h2.2L601.6,487.7z"/>
	<path class="st4" d="M604.1,487.7c-0.3,0.4-1.4,0.6-0.8,1.1c1.3,0,0.9-0.4,1.7-0.5C602.9,488.3,605.6,488,604.1,487.7
		c0.4,0,0.8-0.1,1.2-0.1c-0.4,0-0.8-0.1-1.1-0.2l0,0l0,0c0.1,0,0.1,0.1,0,0.1l0,0C604.1,487.5,604.1,487.6,604.1,487.7
		c-0.7-0.1-0.1-0.1,0.1-0.2c0,0,0,0,0-0.1l0,0l-2.1,0.2C602.7,487.7,603.4,487.7,604.1,487.7z"/>
	<path class="st4" d="M614.8,489.8c0,0-0.1-0.1-0.1-0.1C614.5,489.8,614.5,489.8,614.8,489.8z"/>
	<path class="st4" d="M613.9,489.5c0.2-0.2,0.5-0.2,0.8-0.2c0.4,0.1,0,0.2,0,0.4c0.3-0.1,1.1-0.3,0.1-0.5l-0.2,0.1
		c-0.9-0.1-2-0.7-1.8-0.7C613.1,488.9,613.4,489.3,613.9,489.5z"/>
	<path class="st4" d="M608.9,488.7l-1.8,0.2l0.9,0.4v-0.2C609,489.2,608.8,488.9,608.9,488.7z"/>
	<polygon class="st4" points="599.2,487.4 599.5,487 598.4,487.6 	"/>
	<polygon class="st4" points="596.9,487.5 597,487.1 596.4,487.3 	"/>
	<path class="st4" d="M466.9,493.5l-0.5,0.1C466.6,493.5,466.7,493.5,466.9,493.5z"/>
	<path class="st4" d="M470.7,493.4l0.1-0.2C470.6,493.4,470.5,493.4,470.7,493.4z"/>
	<path class="st4" d="M540.3,487.8c-0.8-0.4-1.6-0.9-1.5-0.5l0.2,0.4C539.4,487.7,539.9,487.7,540.3,487.8z"/>
	<path class="st4" d="M501.6,490.8l0.2,0.1l0.5-0.4L501.6,490.8z"/>
	<path class="st4" d="M501,492.6l-1-0.3C500.3,492.4,500.7,492.5,501,492.6z"/>
	<path class="st4" d="M446.3,494.2l-0.6,0.5C446.7,494.6,446.2,494.4,446.3,494.2z"/>
	<path class="st4" d="M573.3,487.7c-0.5-0.1-1.1-0.2-1.6-0.2C572.5,487.7,573.1,488.1,573.3,487.7z"/>
	<path class="st4" d="M468.3,488.8c-0.3,0.1-0.5,0.2-0.4,0.3C468.2,489,468.4,488.9,468.3,488.8z"/>
	<path class="st4" d="M569.8,487.5l0.3,0.1c0.5-0.1,1-0.1,1.5-0.1C571.1,487.2,570.4,487.3,569.8,487.5z"/>
	<path class="st4" d="M371.6,495.1h-0.2C371.4,495.1,371.5,495.1,371.6,495.1z"/>
	<path class="st4" d="M349.8,491.1c0.2,0,0.6,0,0.9,0C350.3,491.1,350,491.1,349.8,491.1z"/>
	<path class="st4" d="M587.6,487.3C588.1,487.3,587.7,487.3,587.6,487.3z"/>
	<path class="st4" d="M590,489c-0.1,0-0.2,0.1-0.2,0.2C589.8,489.1,589.9,489,590,489z"/>
	<path class="st4" d="M564.9,490.2L564.9,490.2C565,490.3,565,490.3,564.9,490.2z"/>
	<path class="st4" d="M588.4,487.5c-0.2-0.1-0.4-0.1-0.6-0.1C587.9,487.4,588.2,487.5,588.4,487.5z"/>
	<path class="st4" d="M588.3,487.3h0.4C588.8,487.3,588.7,487.2,588.3,487.3z"/>
	<path class="st4" d="M587,487.3c0.3,0,0.5,0,0.8,0c-0.1,0-0.1,0-0.1-0.1L587,487.3z"/>
	<path class="st4" d="M411.6,493.2h-0.1C411,493.3,411.2,493.3,411.6,493.2z"/>
	<path class="st4" d="M527.6,492.4L527.6,492.4L527.6,492.4L527.6,492.4z"/>
	<path class="st4" d="M525.9,492.8c0.5-0.4,1.1-0.6,1.7-0.4l-0.6-1.2L525.9,492.8z"/>
	<path class="st4" d="M457.9,493.7l1.2,0.4c-1.5,0.7-2.6,0.5-1.4,1c0.2-1.4,4.8-0.2,4.9-1.6l0.8,0.3c-0.2,0-0.3,0.1-0.5,0.1
		c1.6,0.6,1.2-1,3.2-0.8c0.7,0.1,1.2,0.3,0.7,0.5l1.6-0.4c0.5,0,0.4,0.3-0.1,0.2l2.4-0.1l0,0c0.5-0.3,1-0.5,1.5-0.7
		c0.6,0.2-0.3,0.1-0.1,0.3l1.3-0.4c0.5,0.4-0.5,0.7-1.5,0.7c1.3,1.3,1.1-0.4,3.8,0.4l-1.3,0.2c0.8,0.8,1.8,0.5,3.2,0.9
		c-0.3-0.2-2.9-1.2-1.4-1.5c0.6,0.1,1.2,0.1,1.7-0.1c0,0.5,0.8,0.4,1.7,0.3l-0.1,0.6c1-0.2,1-0.5,1.5-0.8c0.7,0,1.4,0.4,1.7,1
		c1.8,0.1-1.3-0.8,0.9-0.9c1.5,0.2,3,0,4.4-0.5c1.1,0.2-0.2,0.4,0.2,0.6l1-0.5c0.2,0,0.2,0.2,0.1,0.2c0.8-0.2,0.1-0.6,1.3-0.8
		c0.3-0.7,2.6,1,4.1,0.2c0.4,0.2-0.2,0.4-0.1,0.6c1.2-0.2,2.4-0.6,3.6-1.1l1.5,0.4c-1.1-0.5,0.3-1,1.5-1.5c-0.3-0.2-0.7-0.4-1-0.5
		l2-0.4c0.2,0.1,0,0.3-0.3,0.6l0.4-0.2c0.7,0.2,0.3,0.6-0.2,1l-0.7-0.4c-0.5,0.4-0.9,0.8-0.8,1.2c0.2-0.1,0.4-0.2,0.6-0.2
		c-0.1,0.1-0.2,0.2-0.1,0.3s0.3-0.1,0.6-0.2l0.5,0.7l0.1-0.3l2.6,0.4c1.8-0.7,3.4-1.8,6.3-2.1c-0.7,0.5-0.1,0.9-0.2,1.5
		c-0.8-0.6-2.3,0.3-3.8,0.2c0.8,0.1,0.6,0.4,0.4,0.5l2.7-0.6c-0.1,0.5,0.6,0.4,1.3,0.6c-0.5-1,2-0.7,3.1-1c0.1,0.3-0.2,0.7-1.5,0.6
		c1.5,0.7,1.9-1.2,3.3-0.6c-0.3,0-0.5,0-0.6,0.1c0.8-0.3,2.6-0.1,2.2,0.2h-0.3c2.2,0.1,6.6-0.1,6.9-0.9c-0.1,0.4-0.2,0.8-0.4,1.2
		l3.8-2.9c-0.3,0.7,1,2.5-0.8,2.9c0.7,0.2,1.5,0.2,2.2,0c-0.3-0.1-0.9-1-0.4-1.1c0.8,0.5,1.7,0.8,2.6,1.1c-0.5-0.1,0-1.3,0.9-1.3
		c-0.1,0.2,0.1,1.1-0.2,1.2l2.1-1.1c-0.5,0.2-0.1,1,0.4,1.3c-0.2-0.2,1.8,0,2.3-0.1l-0.9-0.2c2.3,0.1,2.3-1.6,4.6-1.6
		c-0.3,0.2-0.7,1.4,0.5,1.6c0.5-0.6,2.4-2.8,4.4-3.2l0.4,0.3l1.6-0.4c-1.6,1.3-3.4,2.5-5.2,3.4c0.9,0.2,0.2,0.4,1.6,0.4
		c0.5,0.3-0.7,0.5-1.1,0.5l3.1,0.2c-0.1-0.7,2.3-0.7,2.2-1.2l-3.3,0.7c-0.1-0.7,1.9-1.9,4.1-1.8c0.5,0.3-0.4,1.2-0.4,1.4
		c0.7-0.3,1.5-0.4,2.3-0.3l-0.9,0.4c1.2,0.2,2-0.9,3.4-0.3c0.5,0,1.5,0.9,1.6,0.5c-0.8-0.8-1-3.1-0.5-3.7c1.1,0.3,2.2,0.6,3.2,1.1
		c0.8,0.6-1.2,1.4-0.5,2c0-0.2,0.5-0.4,0.7-0.5c0.5,0.1-0.2,0.6,0.9,0.5c0.2-0.7,2.3,0,0.5-0.6c1.1-0.2,1.2,0.1,2.5,0.1
		c-0.4-0.4,1.2-1.5,2.3-1.7c-0.1,0.2,0.2,0.4,0.3,0.5c2.3,0,3.5,0.4,5.7,0.3c0.2,0.2,1.2,0.4,0.8,0.6c0.4-0.2,0.8-0.4,1.2-0.4
		c1.3,0.6-1.5,0.1-0.5,0.8c0.1-0.4,1.7-0.6,2.6-0.8c-0.3-0.6-2.2-0.1-3.1,0.1c0-0.8,1.6-1.7,3.9-2.1c1.8-0.2,0.8,0.5,1.1,0.4
		c3.3,0.1,2.8-1.5,5.6-0.9c1.1,0.5,0,1.1,0.3,1.5c-1.5,0.2-2.2-0.3-3.2-0.3l1.2,0.2c-0.6,0.2-1.3,0.3-2,0.2c0.9,0.5,5.6,0.1,8.2,0.5
		c0.5-0.2,1.2-0.4,0.9-0.6l-0.8,0.1c-0.8-0.4,1.5-0.6,0.5-0.8c1.2-0.5,2.5-0.7,3.8-0.5l0.3,0.6c0-0.2-1-0.4-1.4-0.2
		c0.6-0.3,2.4,0.8,3.1,0l-1.1-0.4c1.1-0.3,2.5-1,3.8-0.8c-0.6-0.6-0.3,0.1-1.3-0.6c0.8,0.9-3.5,0-2.1,0.9c-1-0.8-1.7-0.3-3-1
		c0,0.2,0.5,0.4-0.7,0.3c-0.1,0.1-0.2,0.1-0.2,0.2h-0.1h0.1c0,0,0,0,0,0c0.2,0.1,0.4,0.2,0.6,0.3c-0.6,0.5-2.4,0.5-3,0.7
		c-0.7-0.1,0.3-0.2-0.1-0.5l-0.9,0.4c-0.1-0.5-1.8-0.7-0.2-1h-1.4c-0.9-0.3-1.8-0.3-2.7-0.1c-0.7-0.1-1.7,0.5-1.1,0.1l-2.3,0.3v-0.1
		c-2.2,0-4.6,0.8-7.1,0c-0.9,0.2-1.9,0.2-2.8,0.1l-0.2-0.4c-1,0.1-2.9-0.4-3.3,0c-1-1-4.7-0.2-6.4-0.4l-0.1,0.5
		c-1.3,0-2.5,0.1-3.7,0.3l0.1,0.5c-1.2,0.4-3.2-0.3-5.2-0.2c0.1-0.2,0.6-0.1,1,0c-2.4-1-5,0.8-7.1,0c-0.4,0.1-0.9,0.1-1.3,0h0.1H541
		c-0.2-0.1-0.5-0.2-0.7-0.2c0.2,0.1,0.4,0.2,0.6,0.2c-0.6,0-1.1,0.1-1.6,0.2L539,488h-0.1c-0.6-0.2-0.5,0.2-0.2,0.6
		c-0.3,0.1-0.6,0.2-0.8,0.3c-0.5-0.8-1.6,0.3-2.3-0.5c-0.4,0.4-3.1,0.3-3.4,1.2c0-0.1-0.2-0.2,0.1-0.2c-0.7-0.2-1.3-0.1-2,0.1
		l-0.3-0.6l-1.5,0.8c-0.9-0.4-1.3-0.6-0.4-1.1c-2.2,0.7-1.8,0.3-3.6,1l0.1-0.4c-0.7,0-1.7,0.6-2.1,0.2c-1.5-0.7-7.3,0-11.1-0.7
		c0.7,1.2-1.8-0.5-1.9,0.4c-0.2-0.3-0.8-0.4-0.1-0.7c-1.9,0.3-2.9-0.4-4.2,0.4c-0.2-0.3,0.4-0.4,0.2-0.6c-0.1,0.1-0.6,0.2-0.8,0.1
		s0.3-0.2,0.6-0.4c-2,0.1-2.2,0.9-2.3,1.7c-0.7-0.4-1.6-0.3-2.2,0.2c-0.4-0.3-0.9-0.5,0.3-0.6c-0.7,0-4.2-0.3-4.3,0.3
		c-0.4-0.1-0.8-0.1-1.1,0c-1.5,0-1.7-0.1-3.2,0l0.4,0.1c-0.6,0.8-1.3,0.2-2.5,0.3v-0.1c-2.8-0.5-1.2,0.3-4-0.3l0.2,0.5
		c-0.2,1-2.5-0.6-4.1-0.2l0.6,0.3c-0.9,0.4-2.5-1.4-3.4-1.5c-0.2-0.1,0.3-0.1,0.6-0.2c-2.3-0.6-0.3,0.6-2,0.8
		c-0.3-0.3,0.4-0.9-0.8-0.9c-0.6-0.3-3.3,1.1-4.9,0.5c0.4,0.3,0.7,0.5-0.1,0.7c-1.2,0.1-3.3-0.9-4.4-0.1c-0.2-0.1-0.2-0.1-0.2-0.2
		c-0.9,0.2-3,0.4-3.6,0.9c-0.9-1.6-5.8,0.9-5.8-0.6l-2.9,0.1l0.1-0.2c-1.1-0.1-2.2,0.1-3.1,0.7c-0.4-0.1-0.1-0.2-0.1-0.3
		c-1.8-0.4-3.6-0.2-5.2,0.6l-0.2-0.5c-0.6,0.3-3.9-0.7-6.5-0.1c0.1-0.1,0.2-0.2,0.3-0.2c-3,0.6-7.1-1.3-8.2,0.5l-2,0.5
		c2.5,0.1-0.4,0.8,0.7,1.1c-1,0.1-2.6-0.5-1.4-0.6l0.2,0.1c0.4-1-3.1-0.3-3.1-0.9c-5,0.1-9.9-0.3-14.5-0.3l0.5,0.7h-1.6
		c-0.4-0.2-0.6-0.6,0.6-0.5c-0.6-0.4-1.9,0.4-2,0.5c-2.3-0.3,0.9-0.9,0.2-0.9l-1,0.1l0.2,0.1c-0.7,0.4-1.4,0.7-2.2,0.6
		c-0.9-0.1-0.5-0.4-0.8-0.5c0,0-0.1-0.1-0.5,0h-2l0.8,0.6c-0.9,0.3-1.9,0-1,0.6c-1.4-1-7.7-0.2-8.5-0.5c-1.3,0.4-2.7,0.5-4.1,0.4
		c0.4,0.1,0.6,0.8-0.7,0.7c0.5-1.4-2.5-0.5-3.6-1.5c1,0.6-3.8,0.2-2.3,1.1c-1.1-0.1-0.1-0.5-0.9-0.8c-2.7,0.6-5.9-0.2-9.2,0
		c0,0.2,0.5,0.4-0.2,0.7l-1.8-0.9c-0.6,0.1-0.6,1-1.8,0.4c0.2,0.1,0.4,0.4,0,0.4c-6.5-0.7-13.2,1-19.8-0.5c0.9,0.3,0.3,0.4-0.4,0.4
		c0.4,0.1,0,0.4,0.1,0.7l-2.8-0.6c-0.5,0.7-2.9,0.1-3.2,0.8l0.9-0.1c-1.1,0.8,1.7,1.6,1.5,2.6c1.3-0.9,3.4,1.2,5.5-0.1
		c0.5,0.2-0.4,0.3-0.1,0.5c0.7-0.5,1.6-0.6,2.4-0.4l-0.1,0.1c3.4-0.2,4.8,0.2,8.6,0.4l-0.3-0.5c0.5,0,0.9,0.1,1.4,0.3
		c0.9-0.7-2.3,0-1.5-0.8c1.1,0.9,5.8-0.1,6.5,1c1.3,0-0.4-0.5,0.9-0.6l0.3,0.3l0.3-0.4c0.8,0,1.2,0.4,1.3,0.7c-0.3,0-0.5,0-0.8,0.1
		c1.1,0.3,3-0.2,3.4-0.1l-1.2-0.2c3.4-0.3,7.6,0,10.9-0.7l-0.3-0.2c2.5-0.5,2,0.2,4.8,0l-0.1,0.1c0.7-0.3,1.4-0.4,2-0.4
		c-0.7,0.3,1.3,0.5,0.4,0.8c2.7-0.5,1.4-0.4,3.1-1.2l0.4,0.4c0.6-0.4,1.3-0.6,2-0.6c-1.1,0.3,0.9,0.5-0.4,1c2.9,0.8,4.3-0.9,5.7,0.3
		c1.3-1-2.5-0.5-1.8-0.8c-0.6-0.3,1.1-0.8,2-0.7s1.6,1.3,3.9,1.2c-0.2,0-0.2,0.1-0.5,0.1c0.9,0.2,1.7-0.4,2.8,0
		c0.6-0.6,1.4,0,1.6-0.8l-2.1,0.2c1.2-0.2,2.3-1.2,4.4-0.8c-0.4,0.2-0.7,0.4-1.1,0.5c0.6,0.2,1.1-0.2,1.7,0.1
		c-0.2,0.8-2.6,0.2-3.9,0.8c0.6,0.3,2.5-0.6,1.8,0.2c0.9-1.1,2.3,0.1,3.9-0.8l-0.1,0.5c0.4-0.2,0.8-0.3,1.2-0.3l-0.8,0.6
		c1.3-0.5,2.5,0.4,3.7,0.1c-2.6,0-0.6-0.6-1.7-0.9c3.2-0.7,1.9,1.2,5.4,0.9c-0.5,0.1-1.8-0.3-1.1-0.5c0.7,0.1,1.4,0.2,2,0.5
		c2.4-0.1-0.4-0.5,0.6-0.8c0.8,0.6,1.1-0.2,2.2-0.5v0.5c2.7,0.3,0.7-1,3.1-0.7l-1,0.7l1.3-0.2l-0.2,0.5c1-0.3,2.1-0.4,3.1-0.2
		c-0.3-0.3,0.2-0.9,1.4-0.9c0.8,0.3-0.5,0.5,1.2,0.4c-0.4,0.5-1,0.6-1.5,0.3c-0.1,0.2-0.4,0.3-0.5,0.5c0.9,0.2,1.9,0.2,2.8,0
		c-0.2,0-0.4,0-0.7-0.1l2.4-0.7c0.4,0.2,0.1,0.3-0.2,0.5c0.5-0.1,1-0.3,1.6-0.3c-0.2,0.4-0.1,0.8-1.2,1l2.3-0.5
		c0.2,0.2,1.2,0.5,0.9,0.6c1.3,0.2,3.2-0.8,4.9-0.5c0.2-0.1,0.4-0.2,0.6-0.2c1.6,0.1,3,0.5,4.9,0l1.1,0.7c1.5-0.2-1.5-0.9,1-1.2
		c1.8-0.2,0.7,0.6,1.3,0.8c1.2-0.7,2.6-0.9,4-0.5C458.7,493.8,458.3,493.7,457.9,493.7z M476.3,493.1c-0.4,0.1-1.1,0.4-1.3,0.1
		C475.4,492.7,475.7,493,476.3,493.1L476.3,493.1z M504.3,491.7c-0.4,0.1-0.8,0.1-1.1-0.1C503.5,491.5,503.9,491.6,504.3,491.7
		L504.3,491.7z M582.3,487.7L582.3,487.7C581.4,487.6,581.7,487.6,582.3,487.7L582.3,487.7z M583.9,487.9c0.2-0.1,0.2-0.1,0.1-0.2
		c-0.1,0.1-0.5,0.1-0.9,0.1C583.2,488,583.4,488,583.9,487.9L583.9,487.9z M406.3,490l0.3,0.1C405.9,490.3,406.1,490.2,406.3,490z"
		/>
	<path class="st4" d="M501.1,492.4c-0.1-0.1-0.1-0.2-0.2-0.3C500.8,492.2,500.8,492.3,501.1,492.4z"/>
	<path class="st4" d="M446.4,494.1L446.4,494.1c-0.1,0-0.1,0.1-0.1,0.1L446.4,494.1z"/>
	<path class="st4" d="M558.3,492.2c-0.2,0-0.5-0.1-0.7-0.2C557.7,492,557.8,492.1,558.3,492.2z"/>
	<path class="st4" d="M592.7,487.1l-1.1,0.1c0.3,0,0.7,0,1,0.1C592.6,487.2,592.4,487.1,592.7,487.1z"/>
	<path class="st4" d="M601.9,490c0.2-0.1,0.3,0,0.5-0.1v-0.2C601.7,489.8,601.2,489.9,601.9,490z"/>
	<path class="st4" d="M593.7,488.7c0.1,0.4,0.8,0.3,1.5,0.2H595C595.3,488.3,594.5,488.5,593.7,488.7z"/>
	<path class="st4" d="M595.3,488.9c0.2,0,0.5,0,0.7,0C596.1,488.6,595.8,488.8,595.3,488.9z"/>
	<path class="st4" d="M586,487.6c0.3,0.1,0.2-0.5,0.4-0.4C586.8,486.8,584.1,487.9,586,487.6z"/>
	<polygon class="st4" points="594.3,490 594,489.5 593.6,489.9 	"/>
	<path class="st4" d="M588.4,489.7l1.2,0.1c0-0.1,0.1-0.1,0.3-0.2C589.2,489.6,588.4,489.5,588.4,489.7z"/>
	<path class="st4" d="M589.9,489.6c0.3,0,0.7,0,1-0.1C590.6,489.5,590.3,489.6,589.9,489.6z"/>
	<polygon class="st4" points="592.7,490.2 592.3,490.1 591.5,490 	"/>
	<path class="st4" d="M575.7,489.6l-1.3,0.1c-0.1,0.2,0.2,0.3,0.7,0.2C575.4,489.9,575.9,489.8,575.7,489.6z"/>
	<path class="st4" d="M579.6,491c-0.3-0.1-0.4-0.2-0.6-0.4v0.6L579.6,491z"/>
	<path class="st4" d="M575.8,491.1c-0.1,0.2-1.9,0.5-0.2,0.5C575.7,491.4,577,491.3,575.8,491.1z"/>
	<polygon class="st4" points="556.3,490.5 556.7,490.5 556.6,489.4 	"/>
	<path class="st4" d="M539.2,493c1.5,0.2,0.4-0.6,1.8-0.3c0.4-0.2-1.1-0.2-0.8-0.5C539.2,492.5,538.7,492.4,539.2,493z"/>
	<path class="st4" d="M540.1,492.2c0.2,0,0.3-0.1,0.5-0.2C540.4,492.1,540.3,492.2,540.1,492.2z"/>
	<polygon class="st4" points="346.1,490.7 345.1,490.5 345.8,490.8 	"/>
	<path class="st4" d="M344.2,491.5l-0.2-0.6l-0.6,0.6C343.6,491.4,344.1,491.3,344.2,491.5z"/>
	<path class="st4" d="M479,494.4l0.1-0.2c-0.1-0.2-0.4-0.2-0.9-0.2L479,494.4z"/>
	<polygon class="st4" points="465.7,494.1 465.9,494.1 465.5,493.5 	"/>
	<path class="st4" d="M454.5,495c0.5,0,1-0.1,1.5-0.1C454.9,495,454.3,494.3,454.5,495z"/>
</g>
</svg>
