<svg id="圖層_1" data-name="圖層 1" xmlns="http://www.w3.org/2000/svg" viewBox="0 0 726.15 473.98"><defs><style>.cls-1,.cls-2,.cls-3,.cls-5{fill:#00364b;}.cls-1,.cls-2,.cls-3{stroke:#e0e0e0;stroke-miterlimit:10;}.cls-1{stroke-width:11.21px;}.cls-2{stroke-width:11.98px;}.cls-3{stroke-width:12.79px;}.cls-4{fill:#e0e0e0;}.cls-6{fill:#6bffba;}</style></defs><title>window</title><rect class="cls-1" x="16.82" y="62.58" width="562.23" height="366.77"/><rect class="cls-2" x="38.22" y="50.09" width="600.51" height="391.74"/><rect class="cls-3" x="60.37" y="36.89" width="641" height="418.15"/><rect class="cls-4" x="267.81" y="125.38" width="153.57" height="30.19"/><path class="cls-4" d="M580.3,166.9H537.38A4.31,4.31,0,0,0,532.9,171v21.33a4.11,4.11,0,1,0,8.18,0V179.57a4.29,4.29,0,1,1,8.57,0v62.22c0,2.47-1.66,4.48-3.68,4.48a3.92,3.92,0,0,0-3.68,4.09,4.31,4.31,0,0,0,4.48,4.09h6.58a4.31,4.31,0,0,0,4.48-4.09V217.73a4.5,4.5,0,0,1,4.48-4.48h0.85a4.5,4.5,0,0,1,4.48,4.48v32.63a4.31,4.31,0,0,0,4.48,4.09h6.58a4.31,4.31,0,0,0,4.48-4.09,3.92,3.92,0,0,0-3.68-4.09c-2,0-3.68-2-3.68-4.48V179.57a4.29,4.29,0,1,1,8.57,0v12.76a4.11,4.11,0,1,0,8.18,0V171a4.31,4.31,0,0,0-4.48-4.09H580.3Z"/><path class="cls-4" d="M560.22,144.76c1.58-2.52,4.1-2.47,5.6.09l6.91,11.82c1.5,2.57.29,4.67-2.68,4.67H555.2c-3,0-4.11-2.06-2.53-4.57Z"/><path class="cls-4" d="M562.73,135.07a3.33,3.33,0,0,1-3.33-3.33v-1.39a3.33,3.33,0,1,1,6.65,0v1.39A3.33,3.33,0,0,1,562.73,135.07Z"/><path class="cls-4" d="M562.74,131a6.65,6.65,0,1,1,4.69-1.95A6.69,6.69,0,0,1,562.74,131Z"/><path class="cls-4" d="M562.63,111.83a2.37,2.37,0,0,1-2.37-2.37v-6.53a2.37,2.37,0,0,1,4.75,0v6.53A2.37,2.37,0,0,1,562.63,111.83Z"/><path class="cls-4" d="M553.8,116.27a2.36,2.36,0,0,1-1.64-.66l-3.78-3.6a2.37,2.37,0,0,1,3.28-3.43l3.78,3.6A2.37,2.37,0,0,1,553.8,116.27Z"/><path class="cls-4" d="M571.46,116.27a2.37,2.37,0,0,1-1.64-4.09l3.78-3.6a2.37,2.37,0,0,1,3.28,3.43l-3.78,3.6A2.36,2.36,0,0,1,571.46,116.27Z"/><path class="cls-5" d="M289.74,140.44a2.94,2.94,0,0,1-1.23-1.78,4.7,4.7,0,0,1,0-1.79,5.41,5.41,0,0,1,2.07-3.17,6.64,6.64,0,0,1,4.22-1.31,4.59,4.59,0,0,1,3.67,1.31,3.48,3.48,0,0,1,.72,3.17,5.89,5.89,0,0,1-.75,1.79,4.67,4.67,0,0,1-1.95,1.66,3.48,3.48,0,0,1,1.49,1.87,4.88,4.88,0,0,1,.08,2.6,6.25,6.25,0,0,1-2.37,3.66,7.46,7.46,0,0,1-4.77,1.51q-2.85,0-4-1.51a4.29,4.29,0,0,1-.69-3.66,6.36,6.36,0,0,1,1.2-2.6A5.6,5.6,0,0,1,289.74,140.44Zm1.93,6.76a2.87,2.87,0,0,0,2-.69,3.45,3.45,0,0,0,1.07-1.95,2.35,2.35,0,0,0-.24-2,2,2,0,0,0-1.65-.68,2.9,2.9,0,0,0-1.93.68,3.43,3.43,0,0,0-1.09,2,2.38,2.38,0,0,0,.24,1.95A1.91,1.91,0,0,0,291.66,147.2Zm1.67-7.86a2.54,2.54,0,0,0,1.71-.59,2.62,2.62,0,0,0,.88-1.52,1.84,1.84,0,0,0-.22-1.58,1.73,1.73,0,0,0-1.46-.57,2.57,2.57,0,0,0-1.7.57,2.75,2.75,0,0,0-.91,1.58,1.82,1.82,0,0,0,.25,1.52A1.7,1.7,0,0,0,293.33,139.35Z"/><path class="cls-5" d="M300.23,146h3.56l-0.74,3.5h-3.56Z"/><path class="cls-5" d="M308.83,137.76l0.48-2.28a15.71,15.71,0,0,0,2.27-.21,4,4,0,0,0,1.83-.89,3.74,3.74,0,0,0,.92-1.22,3.14,3.14,0,0,0,.28-0.68h2.78l-3.62,17h-3.43l2.49-11.74h-4Z"/><path class="cls-5" d="M333.74,135.32a29.65,29.65,0,0,0-2.65,2.64,30.67,30.67,0,0,0-3.07,3.92,29.17,29.17,0,0,0-2.12,3.88,18.38,18.38,0,0,0-1.37,3.76h-3.48a25.33,25.33,0,0,1,5-9.52,30.48,30.48,0,0,1,4-4.27h-8.49l0.69-3h12Z"/><path class="cls-5" d="M340.42,141.21h6.74l-0.68,3.17h-6.74Z"/><path class="cls-5" d="M357,137.76l0.48-2.28a15.71,15.71,0,0,0,2.27-.21,4,4,0,0,0,1.83-.89,3.74,3.74,0,0,0,.92-1.22,3.14,3.14,0,0,0,.28-0.68h2.78l-3.62,17h-3.43L361,137.76h-4Z"/><path class="cls-5" d="M380.45,141.15a15.85,15.85,0,0,1-2.7,6.49,6,6,0,0,1-5,2.28q-3.25,0-4.08-2.28t0.08-6.49a15.81,15.81,0,0,1,2.69-6.51,6.05,6.05,0,0,1,5.05-2.29q3.25,0,4.07,2.29T380.45,141.15Zm-7.16,6a2.48,2.48,0,0,0,2.28-1.56,19.25,19.25,0,0,0,1.43-4.49,16.62,16.62,0,0,0,.5-4.56,1.47,1.47,0,0,0-1.64-1.48,2.5,2.5,0,0,0-2.29,1.48,17.86,17.86,0,0,0-1.44,4.56,15.74,15.74,0,0,0-.48,4.49A1.51,1.51,0,0,0,373.28,147.2Z"/><path class="cls-5" d="M381.8,146h3.56l-0.74,3.5h-3.56Z"/><path class="cls-5" d="M390.39,137.76l0.48-2.28a15.71,15.71,0,0,0,2.27-.21,4,4,0,0,0,1.83-.89,3.74,3.74,0,0,0,.92-1.22,3.14,3.14,0,0,0,.28-0.68H399l-3.62,17h-3.43l2.49-11.74h-4Z"/><path class="cls-4" d="M157.84,134.17h-3.79a13.89,13.89,0,0,1,1.51,1.38L154,136.93h1.79v5.54h-6.94v1.29h8s0,0.63-.07.94c-0.22,2.91-.48,4.33-1.05,4.9a2.29,2.29,0,0,1-1.66.77,21.47,21.47,0,0,1-2.78,0,5.24,5.24,0,0,0-.72-2.36,18.18,18.18,0,0,0,2.23.09,1,1,0,0,0,.74-0.2,3.92,3.92,0,0,0,.52-2h-5.23v5.4h-2.56v-4.27a19.76,19.76,0,0,1-6.65,4.18,10,10,0,0,0-1.64-2.06,19.38,19.38,0,0,0,6.35-3.26h-4.71a47.61,47.61,0,0,0,.81-5.6h5.84v-1.25h-6.65v-2.14h4.46a17.51,17.51,0,0,0-2-2l0.83-.72h-1.29A17.14,17.14,0,0,1,139.4,137a16.5,16.5,0,0,0-1.75-1.75,12.52,12.52,0,0,0,3.17-4.59l2.3,0.66a7.84,7.84,0,0,1-.39.88h4.81v2h-3.13a13.71,13.71,0,0,1,1.49,1.44l-1.4,1.29h9.23a16.86,16.86,0,0,0-2.12-1.95l0.94-.81h-1.79A11.5,11.5,0,0,1,149,136.3a12.18,12.18,0,0,0-1.95-1.51,9.87,9.87,0,0,0,2.74-4.11l2.36,0.59c-0.11.31-.24,0.63-0.37,0.94h6v2Zm-11.55,8.29h-3.57c-0.07.44-.11,0.88-0.18,1.29h3.74v-1.29Zm6.91-3.39h-4.35v1.25h4.35v-1.25Z"/><path class="cls-4" d="M191.48,135.71q-1.48,6.91-4.42,10.65a9.91,9.91,0,0,1-8.27,3.74q-5.33,0-6.69-3.74t0.13-10.65q1.46-6.91,4.41-10.67a9.92,9.92,0,0,1,8.28-3.75q5.33,0,6.68,3.75T191.48,135.71Zm-11.75,9.92a4.06,4.06,0,0,0,3.75-2.55,31.58,31.58,0,0,0,2.34-7.36,27.26,27.26,0,0,0,.82-7.47,2.41,2.41,0,0,0-2.69-2.43,4.09,4.09,0,0,0-3.75,2.43,29.23,29.23,0,0,0-2.37,7.47,25.78,25.78,0,0,0-.79,7.36A2.47,2.47,0,0,0,179.73,145.63Z"/><path class="cls-4" d="M209.49,132.62c-0.61,1.86-1.4,4-2.06,5.67a6.85,6.85,0,0,1,1.75,4.6c0,1.42-.31,2.34-1,2.87a2.85,2.85,0,0,1-1.27.48,9.23,9.23,0,0,1-1.38,0A5.58,5.58,0,0,0,205,144a6.77,6.77,0,0,0,.92,0,1,1,0,0,0,.61-0.18,1.66,1.66,0,0,0,.37-1.29,5.94,5.94,0,0,0-1.71-4c0.48-1.31,1-3.11,1.36-4.53h-1.66v17.22H202.6V131.72h4.81l0.37-.11Zm5.36,4.92a16.54,16.54,0,0,0,.33,2c-4.25,1-5,1.31-5.51,1.64a7.4,7.4,0,0,0-.77-2.41,1,1,0,0,0,.77-1.14V131h2.56v2.52h2.71v2.17h-2.71v2.45Zm1.9,3.24c-0.28.39-.55,0.81-0.81,1.2H221v9.28h-2.71v-0.63h-5.56v0.72h-2.6V142h3.17a14.93,14.93,0,0,0,.57-1.77Zm1.53,3.22h-5.56v1.33h5.56V144Zm0,4.62v-1.4h-5.56v1.4h5.56Zm1.31-10.09c0.37,0,.46-0.33.53-2.1a6.79,6.79,0,0,0,2.19.92c-0.24,2.6-.88,3.37-2.45,3.37h-1.77c-2.06,0-2.52-.72-2.52-3v-6.85h2.54v2.58h3.57v2.17h-3.57v2.08c0,0.68.07,0.79,0.44,0.79h1Z"/><path class="cls-4" d="M234.81,146.49c-1.6.28-3.26,0.55-4.81,0.81v3.54H227.5V147.7l-1.36.22-0.39-2.45,1.75-.22V133l0.09,0,0,0a32.28,32.28,0,0,0,5.78-2.36l2.06,2a52.23,52.23,0,0,1-5.41,1.9V136h4.42v2.25H230v2.19h4.35v2.25H230v2.25c1.49-.2,3.11-0.44,4.68-0.66Zm10.39-5.38a13.56,13.56,0,0,1-3.09,6.28,12.45,12.45,0,0,0,4.33,1.69,10.18,10.18,0,0,0-1.62,2.23,13.46,13.46,0,0,1-4.64-2.23,15.8,15.8,0,0,1-5.1,2.32,8.56,8.56,0,0,0-1.31-2.23,13.67,13.67,0,0,0,4.59-1.84,15.82,15.82,0,0,1-2.41-4.16l1.33-.33h-2.12v-2.19h0.77a12.37,12.37,0,0,0-1.71-1.55,4.94,4.94,0,0,0,2.36-4.7V131.7H239v0h2.14v0h2.38v5.14c0,0.61,0,.83.33,0.83h1a4.55,4.55,0,0,0,1.09-.13c0,0.61.11,1.44,0.2,2a3.75,3.75,0,0,1-1.27.15h-1.25c-2.06,0-2.47-.85-2.47-2.89v-2.89H239v0.55a7.19,7.19,0,0,1-2.76,6.19h6.91l0.44-.07Zm-7,1.73a10.23,10.23,0,0,0,2,3,9.63,9.63,0,0,0,2-3h-4Z"/><path class="cls-4" d="M184,208.93a80.6,80.6,0,0,0-7.61-6.84,24.72,24.72,0,0,1-4,5.07,32.77,32.77,0,0,0-4.6-3,51.6,51.6,0,0,0,22.53,16.46,32.21,32.21,0,0,0-5.19,6.43,56.71,56.71,0,0,1-19.11-14.92v17.17H158.7V212.47A56.91,56.91,0,0,1,139.76,227a43.26,43.26,0,0,0-5-6c9.56-3.72,18.76-11,23.89-19V188.4H137.23v-6.9H158.7v-7.26h7.37v7.26h22.24v6.9H166.07v13.21c0.29,0.47.59,0.88,0.88,1.36,3.78-3.36,6.25-8.61,7.43-14.22l6.84,1.24a52.52,52.52,0,0,1-1.95,6.31c3.36,2.6,7.43,5.72,9.62,7.73ZM153.63,190a57.52,57.52,0,0,1-2.12,6.37c2.12,1.83,4.37,3.78,5.72,5.19l-4.72,4.9a47.74,47.74,0,0,0-4-4.13,31.67,31.67,0,0,1-6.78,8.08,42.06,42.06,0,0,0-5.43-4.6c5.19-3.72,8.79-9.91,10.44-17.11Z"/><path class="cls-4" d="M213.62,213.88H202.47v5.25H196.1V179.31h17.52v34.57Zm-11.15-28.14v21.71h4.72V185.74h-4.72Zm36.69,36.1c3.13,0,3.72-1.36,4.19-7.43a17.25,17.25,0,0,0,6.31,2.71c-0.89,8.26-3,11.21-9.85,11.21H227.48c-7.67,0-10.09-2.12-10.09-10.62v-40h29.79v32.39H240.4v-3.42H224.3v11.09c0,3.54.47,4.07,4,4.07h10.91ZM224.3,184.15v16.16H229V184.15H224.3Zm16.1,0h-5.07v16.16h5.07V184.15Z"/><path class="cls-4" d="M273.08,218.9a6.14,6.14,0,0,1,12.27,0c0,3.42-2.65,5.78-6.13,5.78S273.08,222.32,273.08,218.9Zm1-30.09L273.84,180h10.79l-0.29,8.79L282.28,209H276.2Z"/><path class="cls-4" d="M322.21,207.33v13.75c0,3.24-.53,5-2.3,6s-4.37,1.42-8.14,1.36a23.05,23.05,0,0,0-1.83-6.43c2.18,0.06,4.19.06,4.9,0a0.84,0.84,0,0,0,1-1v-11.8c-1.95.53-3.72,1.06-5.43,1.53L308.82,204c2-.41,4.37-1.06,7-1.71V191.82h-6.37v-6.49h6.37V174.18h6.37v11.15h5.9v6.49h-5.9v8.73l5.31-1.42,0.94,6.31Zm26.84,14.87c1.36,0.12,2.66.18,4.13,0.18,2,0,9.32,0,11.86-.06a20.71,20.71,0,0,0-1.89,6.13H352.89c-7.73,0-13.69-1.42-17.7-8.55a26.07,26.07,0,0,1-6.19,9.26,36.05,36.05,0,0,0-5.13-4.19c4.9-3.89,7.31-10.44,8.2-18.46l6.37,0.77a53.46,53.46,0,0,1-1.12,6,13.24,13.24,0,0,0,5.13,6.9v-15.4H328.58v-5.66h34.86v5.66H349.05v5.19h11.27v5.49H349.05v6.78Zm11.44-25.84h-29V176h29v20.35Zm-6.72-15.46H337.9v2.95h15.87v-2.95Zm0,7.49H337.9v3h15.87v-3Z"/><path class="cls-4" d="M422.67,216.06H409a84.75,84.75,0,0,1,13.27,8l-5.49,4.9c-3.13-2.83-9.73-6.9-14.87-9.56l4-3.36h-6.78v13.21h-7V216.06h-9.91l6.9,2.3c-3.42,4-9.2,7.67-14.22,9.91a51.21,51.21,0,0,0-5.9-4.66c5-1.65,10.26-4.48,13-7.55H369.17v-5.78h23v-4.07h7v4.07h23.48v5.78Zm-7.26-7.2a127.72,127.72,0,0,0-16.75-5.07c-6.61,2.71-15.4,4-27,4.6a19.18,19.18,0,0,0-2.42-5.78,123.76,123.76,0,0,0,17.34-1.47c-3.3-.65-6.61-1.24-10.09-1.77a62.63,62.63,0,0,0,4.9-4.84H369.64V189h16.58a61.64,61.64,0,0,0,3.72-5.13h-12.8v3.24h-6.49v-9h20.94q-0.62-1.33-1.24-2.48l7.43-1.47a41.17,41.17,0,0,1,2.3,4h21.06v9h-6.78v-3.24H392.7l4.25,1.3c-0.94,1.24-1.89,2.54-3,3.83h11.39a32.79,32.79,0,0,0,1.42-3.6l6.84,1.36c-0.24.77-.53,1.53-0.83,2.24H422v5.49H410a22.11,22.11,0,0,1-4.48,5.07c6.37,1.53,12.15,3.19,16.58,4.72Zm-26.6-14.33a17.44,17.44,0,0,1-1.47,1.47c3.24,0.53,6.55,1.18,9.67,1.83a20,20,0,0,0,4.54-3.3H388.81Z"/><path class="cls-4" d="M130.71,279.28h16.66v6.37h-9.65v24.74h-7V279.28Z"/><path class="cls-4" d="M643.71,362.19H627.05v-6.37h9.65V331.08h7v31.11Z"/><path class="cls-6" d="M574.29,405.76a28.77,28.77,0,0,1-6.6,5.2v7.88c0,1.09-.29,1.63-1.11,1.88a13.58,13.58,0,0,1-4,.31,6,6,0,0,0-.71-1.8c1.5,0.06,3,.06,3.43,0s0.56-.12.56-0.46v-8.75a23.27,23.27,0,0,0,4.89-3.47H559v-1.76h13.46l0.4-.1Z"/><path class="cls-6" d="M591.8,405.84a6.05,6.05,0,0,1-3.62,5.06,4.9,4.9,0,0,0-.84-1.11v9.38a1.5,1.5,0,0,1-.67,1.53,6.61,6.61,0,0,1-2.55.27,5.67,5.67,0,0,0-.56-1.5c0.92,0,1.73,0,2,0a0.3,0.3,0,0,0,.34-0.35V416H581.6a11.32,11.32,0,0,1-1.48,5,7,7,0,0,0-1.27-.79c1.29-2,1.42-4.83,1.42-7v-3l-0.17.21a12,12,0,0,0-1.3-1.06,13.86,13.86,0,0,0,2.9-6l1.63,0.36c-0.13.46-.27,0.92-0.42,1.38h2l0.25-.08,1,0.65a24.6,24.6,0,0,1-1.15,2.53h2.28v1.38a4.65,4.65,0,0,0,2.82-3.78h-2.38v-1.48h8.34s0,0.42,0,.61c-0.13,3.11-.31,4.39-0.71,4.85a1.44,1.44,0,0,1-1.09.54,12.31,12.31,0,0,1-1.94,0,4.33,4.33,0,0,0-.4-1.48,13.68,13.68,0,0,0,1.55.08,0.52,0.52,0,0,0,.52-0.17c0.21-.23.35-1,0.44-3H591.8Zm-9.44.67c-0.25.59-.52,1.19-0.81,1.73h2a16.21,16.21,0,0,0,.71-1.73h-1.86Zm-0.65,6.77c0,0.44,0,.9,0,1.38h1.48v-1.94h-1.46v0.56Zm0-1.88h1.46v-1.82h-1.46v1.82Zm2.7,0h1.44v-1.82h-1.44v1.82Zm1.44,3.26v-1.94h-1.44v1.94h1.44Zm10.78,2.88h-3.49v3.38h-1.69v-3.38h-3.8V416h3.8v-2.07h-1.88a9.44,9.44,0,0,1-.9,1.71,8.13,8.13,0,0,0-1.34-.71,10.88,10.88,0,0,0,1.65-4.22l1.48,0.31q-0.14.69-.35,1.38h1.34v-1.84h1.69v1.84h3.13v1.53h-3.13V416h3.49v1.55Z"/><path class="cls-6" d="M609.7,414.91a5.93,5.93,0,0,1-1.59,3c2.46,1,5.68,1.17,9.74,1.21a4.43,4.43,0,0,0-.75,1.76c-4.3-.15-7.79-0.48-10.47-1.8A16.54,16.54,0,0,1,601.3,421a7.8,7.8,0,0,0-1.09-1.57,18,18,0,0,0,4.76-1.4,9.26,9.26,0,0,1-2.23-2.47l1.55-.61a7.77,7.77,0,0,0,2.15,2.11,4.51,4.51,0,0,0,1.36-2.17h-5.52v-7.56h5.81V406h-7.5v-1.61h16.59V406H610v1.38h6v7.56H609.7ZM604,410.44h4.12v-1.63H604v1.63Zm4.09,3a7.6,7.6,0,0,0,0-.94v-0.69H604v1.63h4.09Zm6.16-1.63H610v0.71a7.28,7.28,0,0,1,0,.92h4.3v-1.63Zm-4.26-3v1.63h4.26v-1.63H610Z"/><path class="cls-6" d="M638.5,412.49c-2.67,5.7-9.05,7.83-16,8.57a6,6,0,0,0-.71-1.73,30.74,30.74,0,0,0,8.65-1.84,24.28,24.28,0,0,0-2.4-2.13q-1.27.66-2.76,1.27a5.18,5.18,0,0,0-1.11-1.38,16.77,16.77,0,0,0,8-5.2l2,0.44a16.1,16.1,0,0,1-1.21,1.36H637l0.31-.08Zm-2.69-6.85c-2.44,4.32-7.94,6.77-13.1,7.81a7.32,7.32,0,0,0-.84-1.57,26.74,26.74,0,0,0,6.06-1.76,15.8,15.8,0,0,0-2.28-2c-0.63.35-1.3,0.71-2,1a5.51,5.51,0,0,0-1.21-1.28,16.32,16.32,0,0,0,6.58-4.51l1.94,0.44a11.88,11.88,0,0,1-1.19,1.23h4.58l0.31-.1Zm-7.9,1a9.54,9.54,0,0,1-.9.63,20.94,20.94,0,0,1,2.51,2.07,13.05,13.05,0,0,0,3.53-2.7h-5.14Zm3.11,6.85c-0.46.36-1,.71-1.5,1.06a23.51,23.51,0,0,1,2.57,2.19,10.8,10.8,0,0,0,3.74-3.24H631Z"/><path class="cls-6" d="M650.07,421.28v-18l15.61,9Z"/><path class="cls-4" d="M185.56,301.3V303H175.24a23.44,23.44,0,0,1-2.28,3.86v9.21h-1.78v-7.14a16.7,16.7,0,0,1-2,1.67,10.66,10.66,0,0,0-.88-1.67,15.66,15.66,0,0,0,4.93-5.93h-4.41V301.3H174a20.26,20.26,0,0,0,.94-2.82l1.86,0.46c-0.25.79-.52,1.57-0.83,2.36h9.59ZM180.72,314h4.81v1.67H174.09V314h4.83V309h-4.1v-1.65h4.1v-3.45h1.8v3.45h4.08V309h-4.08V314Z"/><path class="cls-4" d="M191.58,311.08a28.43,28.43,0,0,1-.88,4.62,7.64,7.64,0,0,0-1.3-.5,18.27,18.27,0,0,0,.82-4.37Zm3.74-5.22a30.07,30.07,0,0,1,1.29,3.61l-1.29.52a7.12,7.12,0,0,0-.21-0.86c-4,.63-4.62.79-5,1a9.52,9.52,0,0,0-.48-1.5,3.45,3.45,0,0,0,1.38-1.3,21,21,0,0,0,1.42-2,9.86,9.86,0,0,0-2.44.42,13.05,13.05,0,0,0-.5-1.46,2.36,2.36,0,0,0,1-1,26.22,26.22,0,0,0,2.34-4.76l1.46,0.61a32.71,32.71,0,0,1-2.72,4.93l1.73-.13c0.48-.86,1-1.78,1.38-2.67L196,302.1a37.85,37.85,0,0,1-4,6.14l2.74-.38c-0.17-.52-0.36-1.07-0.56-1.55Zm-1.86,4.87a32.93,32.93,0,0,1,.52,4l-1.29.33a36.55,36.55,0,0,0-.44-4Zm2-.5a29.19,29.19,0,0,1,1.11,3.63l-1.21.44a27.81,27.81,0,0,0-1-3.68Zm11.2,4a1.51,1.51,0,0,1-.67,1.57,5.8,5.8,0,0,1-2.51.29,6.15,6.15,0,0,0-.48-1.53c0.75,0,1.52,0,1.75,0a0.29,0.29,0,0,0,.33-0.36V300.93h-6.73v15.19h-1.57V299.38h9.9v14.85Zm-3.32-3a5.2,5.2,0,0,0,1.11-.1c0,0.38.06,0.9,0.12,1.27a5.3,5.3,0,0,1-1.21.1h-2.07c-1.4,0-1.73-.54-1.73-1.9V309h-0.63v-1.4h2.3a13.57,13.57,0,0,0-.63-1.48l1-.33h-2.82v-1.38h3.38a28,28,0,0,0,.77-3l1.27,0.35c-0.27.88-.59,1.9-0.86,2.69h1.32v1.38h-2.78a13.1,13.1,0,0,1,.73,1.52l-0.71.29h2.59V309H201v1.57c0,0.44.08,0.61,0.42,0.61h1.92Zm-3-9.84a10.3,10.3,0,0,1,.92,2.63l-1.11.38a10.22,10.22,0,0,0-.86-2.67Z"/><path class="cls-4" d="M218.1,310.87l0.17,1.65c-2.47.61-5.14,1.28-7.13,1.76l-0.38-1.76c1.09-.23,2.51-0.52,4-0.88a60.15,60.15,0,0,0,1.17-7.42l1.67,0.29c-0.36,2.19-.86,4.89-1.34,6.79Zm-7.15-8.9h7.46v1.65h-7.46V302ZM213,304.4A51.93,51.93,0,0,1,214,311l-1.48.29a51.37,51.37,0,0,0-.84-6.6Zm1.3-2.47a16.77,16.77,0,0,0-1.23-2.88l1.53-.44a13.27,13.27,0,0,1,1.3,2.78Zm9.19,2v3.57h3.89V316h-1.8v-0.81h-5.2v0.88h-1.73v-8.55h3v-9h1.82v3.76h4.64v1.71h-4.64Zm2.09,5.24h-5.2v4.33h5.2v-4.33Z"/><path class="cls-4" d="M249.08,313.38v1.8H231.91v-1.8h7V298.77h1.92v5.7h6.92v1.78h-6.92v7.13h8.25Z"/><path class="cls-4" d="M270,301.83a30.08,30.08,0,0,1-2.76,2.19,12.75,12.75,0,0,0,3.43,2.05,7.34,7.34,0,0,0-1.23,1.52,14.21,14.21,0,0,1-4.43-3.22v0.84h-6.73v-0.84a16.14,16.14,0,0,1-4.66,3.36,7,7,0,0,0-1.07-1.32,13.72,13.72,0,0,0,3.61-2.32,14.54,14.54,0,0,0-2.28-1.8l1-1A11.78,11.78,0,0,1,257.2,303a13.18,13.18,0,0,0,1.71-2.36H254v-1.46h5.77l0.31-.08,1.19,0.58a13.78,13.78,0,0,1-2.36,4h5.52a18.21,18.21,0,0,1-2.86-4.64l1.55-.48a12.6,12.6,0,0,0,1.19,2.17,21.87,21.87,0,0,0,2.24-2.05l1.34,0.94a33,33,0,0,1-2.8,2.22c0.36,0.42.71,0.84,1.11,1.25a22.3,22.3,0,0,0,2.47-2.21Zm-4,10.15c-0.36.75-.77,1.52-1.13,2.17H270v1.53H253.23v-1.53h5a9.07,9.07,0,0,0-.92-2.09l1.59-.52a8.6,8.6,0,0,1,1.09,2.24l-1,.36H263a19.45,19.45,0,0,0,1.19-2.59Zm1.07-.46H256v-4.95h11v4.95Zm-1.9-3.51h-7.37v2.07h7.37V308Z"/><path class="cls-4" d="M280.55,312.81l0.1,1.44c-2.24.46-4.64,0.94-6.43,1.27l-0.4-1.61c0.81-.12,1.82-0.27,3-0.46v-5.29h-2.72v-1.52h2.72v-1.82h-1.67V304c-0.25.25-.5,0.46-0.73,0.67a11.17,11.17,0,0,0-.63-1.71,13.21,13.21,0,0,0,3.55-4.51l1.34,0.52a5.58,5.58,0,0,1-.29.59c1.07,1,2.42,2.26,3.07,3l-1,1.17c-0.61-.75-1.78-1.92-2.78-2.93a20.45,20.45,0,0,1-1.86,2.47h4v1.5h-1.5v1.82h2.28v1.52h-2.28v5Zm-5.16-3.91a29.1,29.1,0,0,1,.71,3.4l-1.29.35a29.1,29.1,0,0,0-.65-3.45Zm3.49,3.2a30,30,0,0,0,.67-3.38l1.21,0.33c-0.33,1.13-.65,2.47-0.92,3.34Zm12.1-3.61c-0.79.94-1.71,2-2.46,2.72a36.92,36.92,0,0,1,3,2.42l-1.05,1.21a35.22,35.22,0,0,0-3.59-3v2.51a1.34,1.34,0,0,1-.65,1.48,6,6,0,0,1-2.38.29,4.63,4.63,0,0,0-.5-1.53c0.71,0,1.4,0,1.61,0s0.29-.08.29-0.27V312c-1.27,1-2.53,2.05-3.62,2.9l-1-1.34c1.15-.75,2.92-2,4.62-3.3v-3.11h-4.41v-1.55h6.29c0.1-.38.17-0.77,0.25-1.19h-5.5c0.48-1.53,1.11-4,1.52-5.89l1.65,0.19c-0.1.46-.21,1-0.33,1.46h3.63l0.29-.08,1.23,0.17c-0.25,1.61-.65,3.63-1.06,5.33h2.57v1.55h-4.49v3l0.54,0.38a22.3,22.3,0,0,0,2.09-2.78Zm-8.52-.9a21.39,21.39,0,0,1,2.17,2.38l-1.3.9a16.13,16.13,0,0,0-2.09-2.47Zm5.24-4.6c0.11-.52.21-1,0.29-1.48H284.4c-0.13.5-.27,1-0.4,1.48h3.7Z"/><path class="cls-4" d="M298.87,309v5a1.59,1.59,0,0,1-.67,1.63,5.43,5.43,0,0,1-2.49.35,5.68,5.68,0,0,0-.48-1.65c0.77,0,1.48,0,1.69,0a0.28,0.28,0,0,0,.33-0.35v-4.45l-2,.61-0.4-1.73,2.42-.65v-3.86H295v-1.65h2.22v-3.7h1.63v3.7h2v1.65h-2v3.38l1.84-.54,0.25,1.61Zm8.57,5.2a10.77,10.77,0,0,0,1.59.1c0.56,0,3,0,3.76,0a5.58,5.58,0,0,0-.5,1.57H309c-2.67,0-4.66-.48-5.91-3a8.32,8.32,0,0,1-2.17,3.28,7.67,7.67,0,0,0-1.34-1.07c1.67-1.32,2.49-3.47,2.8-6.18L304,309a19.85,19.85,0,0,1-.36,2,4.34,4.34,0,0,0,2.15,2.65v-5.6h-4.6v-1.46h11.07v1.46h-4.79v2h3.84v1.42h-3.84v2.67Zm3.8-8.71h-9.17v-6.37h9.17v6.37Zm-1.71-5.06H303.7v1.27h5.83v-1.27Zm0,2.47H303.7v1.27h5.83v-1.27Z"/><path class="cls-4" d="M333.48,311.6h-5.22a26.69,26.69,0,0,1,5,2.92l-1.36,1.27a25.78,25.78,0,0,0-4.87-3.07l1.21-1.11h-2.46v4.49H324V311.6h-7.58v-1.48H324v-1.46h1.78v1.46h7.73v1.48Zm-2-2.17a43.37,43.37,0,0,0-5.87-1.67,27.38,27.38,0,0,1-8.46,1.5,5.44,5.44,0,0,0-.63-1.48,35.77,35.77,0,0,0,6.1-.65c-1.21-.23-2.46-0.46-3.7-0.65,0.54-.48,1.13-1.11,1.75-1.75h-4.07v-1.42h5.31a19.37,19.37,0,0,0,1.44-2l1.69,0.54a17.06,17.06,0,0,1-1.11,1.42h4.28a8.18,8.18,0,0,0,.52-1.25l1.75,0.36c-0.1.31-.21,0.59-0.33,0.88h3.18v1.42h-3.93a7.31,7.31,0,0,1-1.92,2c2.22,0.52,4.22,1.05,5.73,1.55Zm-8.8,3a14.07,14.07,0,0,1-4.66,3.22,11.74,11.74,0,0,0-1.5-1.21,11.31,11.31,0,0,0,4.39-2.59Zm8.65-11H318.53v1.32h-1.65v-2.82h7.06c-0.19-.35-0.38-0.67-0.54-1l1.84-.42c0.25,0.42.59,0.94,0.84,1.4H333v2.82h-1.71v-1.32Zm-8.69,3.38-0.9.88c1.17,0.19,2.34.4,3.47,0.63a6.78,6.78,0,0,0,2-1.52H322.6Z"/><path class="cls-4" d="M343.92,310c1.48-.56,2.34-1.44,2.44-2.59a1.16,1.16,0,0,1-.27,0,1.5,1.5,0,0,1-1.61-1.53,1.52,1.52,0,0,1,1.63-1.53c1.21,0,1.84.94,1.84,2.4a4.67,4.67,0,0,1-3.53,4.49Z"/><path class="cls-4" d="M185.57,334.4v1.67H168.83V334.4h7.86v-2.65h-4.45a16.6,16.6,0,0,1-1.71,2.38c-0.38-.25-1.19-0.73-1.63-1a14.07,14.07,0,0,0,3.28-5.54l1.78,0.42c-0.25.69-.54,1.4-0.84,2.07h3.57v-2.61h1.88v2.61h5.68v1.63h-5.68v2.65h7Zm-14.46,3.34H183.5v7.44h-1.86v-1h-8.73v1h-1.8v-7.48Zm1.8,1.65v3.17h8.73v-3.17h-8.73Z"/><path class="cls-4" d="M196.53,332.12h-7V330.7h7v1.42Zm-6.25,2.53v-1.4h5.47v1.4h-5.47Zm5.49,2.51h-5.49v-1.38h5.49v1.38Zm0,6.83h-3.89v0.86h-1.51v-6.48h5.41V344Zm-3-13.43A15.75,15.75,0,0,0,191.6,328l1.5-.48a14.3,14.3,0,0,1,1.21,2.53Zm1.57,9.25h-2.46v2.74h2.46v-2.74Zm9.38-2.7c1.17,1,2.63,2.24,3.38,3l-1,1.3c-0.54-.61-1.44-1.46-2.34-2.28v6H202v-9.86h-2.71v0.52c0,2.82-.27,6.83-2.09,9.34a6,6,0,0,0-1.44-1.13c1.65-2.3,1.78-5.66,1.78-8.21v-6.44a34.8,34.8,0,0,0,7.13-1.78l1.55,1.32a39.62,39.62,0,0,1-6.94,1.69v3h7.63v1.65h-3.22v1.86Z"/><path class="cls-4" d="M220.8,334.65c1.3,4,3.72,7.23,7.35,8.75a7,7,0,0,0-1.32,1.67c-3.59-1.67-5.91-4.78-7.4-8.84a13.27,13.27,0,0,1-7.4,8.84,6.22,6.22,0,0,0-1.36-1.5,11.93,11.93,0,0,0,7.19-8.92H211v-1.84h7.13a48.12,48.12,0,0,0,.23-5.29h1.94a48.16,48.16,0,0,1-.27,5.29h7.73v1.84h-7Z"/><path class="cls-4" d="M247.31,335.5c-0.82.67-1.76,1.34-2.7,2a8.73,8.73,0,0,0,4.79,5.37,6.1,6.1,0,0,0-1.17,1.44,10.13,10.13,0,0,1-5-5.91l-0.77.46c0.61,2.38.15,4.66-.88,5.47a2.6,2.6,0,0,1-2.07.77,15.49,15.49,0,0,1-1.59,0,4.33,4.33,0,0,0-.48-1.67c0.67,0.06,1.29.1,1.71,0.1a1.34,1.34,0,0,0,1.15-.42,3.54,3.54,0,0,0,.67-2.72,28.08,28.08,0,0,1-8,3.91,6.4,6.4,0,0,0-.94-1.48,22.61,22.61,0,0,0,8.61-4.09,8,8,0,0,0-.4-1.07,31.89,31.89,0,0,1-7,3.24,8.64,8.64,0,0,0-.9-1.4,24,24,0,0,0,7.19-3,7.84,7.84,0,0,0-.75-0.92,26.05,26.05,0,0,1-5.41,2.15,8.61,8.61,0,0,0-.94-1.42,21.38,21.38,0,0,0,6.5-2.46H235v-1.53h10.86v1.53h-4.55a12.52,12.52,0,0,1-1.25.94,8.23,8.23,0,0,1,1.84,2.67,30.92,30.92,0,0,0,3.91-3.07Zm-13.1-2.28h-1.73v-4.09h7a10.71,10.71,0,0,0-.59-1.25l1.86-.54a12.06,12.06,0,0,1,.9,1.78h6.92v4.09h-1.82v-2.47H234.21v2.47Z"/><path class="cls-4" d="M258.58,328.09a30.73,30.73,0,0,1-1.9,4v13H255V334.77a20.26,20.26,0,0,1-1.65,2,11.76,11.76,0,0,0-1-1.8,21.32,21.32,0,0,0,4.55-7.38Zm6.71,4.62V343a1.69,1.69,0,0,1-.77,1.75,6.35,6.35,0,0,1-2.65.35,6.42,6.42,0,0,0-.63-1.78c0.86,0,1.69,0,1.94,0s0.35-.06.35-0.31V332.71h-2.59a18.45,18.45,0,0,1-1.84,3.15,11.13,11.13,0,0,0-1.46-1.17,17.94,17.94,0,0,0,3.18-7.1l1.76,0.38a27.48,27.48,0,0,1-1,3.09h7.25l0.29-.06,1.25,0.25c-0.25,1.46-.59,3.15-0.84,4.22l-1.51-.29c0.13-.65.27-1.55,0.38-2.47h-3.13Zm-3.15,3.41a19.09,19.09,0,0,1-2.7,6.46,10.18,10.18,0,0,0-1.52-1,14.86,14.86,0,0,0,2.47-5.83Zm5.81-.5a24.39,24.39,0,0,1,2.26,6.29l-1.71.61a25.06,25.06,0,0,0-2.15-6.39Z"/><path class="cls-4" d="M277.53,338.76v-4.49a12.43,12.43,0,0,1-2.61,3.43,7.35,7.35,0,0,0-1.17-1.27,11.94,11.94,0,0,0,3.49-4.62h-3V330.3h3.32v-2.74h1.69v2.74h2.88v1.52h-2.88v0.92c0.73,0.44,2.63,1.82,3.13,2.19l-1,1.46c-0.46-.48-1.38-1.32-2.17-2v4.35ZM274,343.28a13.06,13.06,0,0,0,1.75-3.93l1.57,0.63a16.69,16.69,0,0,1-1.71,4.1Zm10.93-.17c0.9,0,1-.27,1.15-2.19a5,5,0,0,0,1.61.65c-0.25,2.53-.75,3.13-2.63,3.13h-3.74c-2.3,0-2.9-.48-2.9-2.17v-2.86h1.76v2.84c0,0.52.19,0.59,1.29,0.59h3.45Zm-2.67-4.89c0.86,0.81,2,1.94,2.63,2.63l-1.3,1.09a34.62,34.62,0,0,0-2.55-2.76Zm8.23,0.31h-7.58v-10h7.58v10Zm-1.71-8.59h-4.24v1.46h4.24v-1.46Zm0,2.82h-4.24v1.5h4.24v-1.5Zm0,2.84h-4.24v1.52h4.24v-1.52Zm0.36,3.47c0.79,1.19,1.84,2.82,2.34,3.8l-1.65.84a44.37,44.37,0,0,0-2.24-3.91Z"/><path class="cls-4" d="M311.26,342.86c0,1-.25,1.57-0.94,1.84a10.49,10.49,0,0,1-3.59.31,7.34,7.34,0,0,0-.59-1.73c1.23,0.06,2.49,0,2.86,0a0.4,0.4,0,0,0,.48-0.48v-3.43h-4.64v5.49H303v-5.49h-4.41a11,11,0,0,1-2.4,5.81,5.89,5.89,0,0,0-1.4-1.17c2.09-2.32,2.28-5.72,2.28-8.42V328.8h14.14v14.06ZM303,337.72v-2.84h-4.16v0.77c0,0.65,0,1.36-.08,2.07H303Zm-4.16-7.21v2.7H303v-2.7h-4.16Zm10.59,0h-4.64v2.7h4.64v-2.7Zm0,7.21v-2.84h-4.64v2.84h4.64Z"/><path class="cls-4" d="M322.33,328.09a30.18,30.18,0,0,1-1.78,3.84v13.16h-1.73v-10.4a21.27,21.27,0,0,1-1.8,2.21,10,10,0,0,0-1-1.82,21.3,21.3,0,0,0,4.64-7.48Zm11.26,7.61h-4.95v9.4H326.8v-9.4h-5.14V334h5.14v-6.21h1.84V334h4.95v1.75Z"/><path class="cls-4" d="M340.27,330.51v3.78c0,3-.23,7.79-1.69,10.88a6.9,6.9,0,0,0-1.42-1.07c1.32-2.86,1.42-6.94,1.42-9.8V329h7.25c-0.12-.42-0.25-0.84-0.38-1.23l1.8-.35a12.64,12.64,0,0,1,.52,1.57h6.66v1.55H340.27Zm2.22,4.43a3.88,3.88,0,0,1-1.09,3,4.27,4.27,0,0,0-.9-0.75,2.84,2.84,0,0,0,.94-2.36V334.1h1.05v0.84Zm8.73,5.45c1,1.19,2.34,2.86,3,3.86l-1.4.73c-0.21-.33-0.46-0.71-0.79-1.15-9.26.69-10.26,0.71-10.89,0.94a10.94,10.94,0,0,0-.42-1.48,8.12,8.12,0,0,0,2.23-.82c0.5-.21,1.44-0.71,2.59-1.36a16.43,16.43,0,0,0-3.61.36,8.38,8.38,0,0,0-.4-1.4,3.71,3.71,0,0,0,1.23-.5,18.51,18.51,0,0,0,3.38-2.42l1.25,0.77a24.67,24.67,0,0,1-3.34,2.22l3.32-.15a30.59,30.59,0,0,0,2.61-1.86l1.34,0.94a47.56,47.56,0,0,1-6.67,4l6.44-.46L349.9,341Zm-7.9-2.72v-4.24H341V332h2.28v-1h1.38v1h2.38v1.38H344.7v4.24h-1.38Zm5.89-2.8a3.5,3.5,0,0,1-1,2.84,3.12,3.12,0,0,0-.86-0.69v0.08a3.12,3.12,0,0,1-.63.06h-0.38c-0.81,0-1-.36-1-1.19v-1.8h1V336c0,0.33,0,.42.21,0.42h0.08a3.42,3.42,0,0,0,.59-0.06l0.06,0.65a2.56,2.56,0,0,0,.84-2.13v-0.79h1.05v0.81Zm0.79,2.76v-4.2h-2.4V332H350v-1h1.38v1h2.84v1.38h-2.84v4.2H350Zm3.84-1a3,3,0,0,0,.71-0.08l0.06,0.81a2.66,2.66,0,0,1-.75.06H353.1c-0.88,0-1.05-.38-1.05-1.25v-2.07h1.07v2.09c0,0.33,0,.44.25,0.44h0.46Z"/><path class="cls-4" d="M365,332.22a25.77,25.77,0,0,1-2.09,2.93v10h-1.78v-8a25.46,25.46,0,0,1-1.9,1.73,9.91,9.91,0,0,0-1.23-1.52,20.36,20.36,0,0,0,5.31-5.75Zm-0.73-4a25.29,25.29,0,0,1-5.06,4.85,8.14,8.14,0,0,0-1-1.44,17.35,17.35,0,0,0,4.37-4.12Zm11.51,7.37H373v7.38c0,1-.23,1.53-1,1.82a12,12,0,0,1-3.62.29,7.15,7.15,0,0,0-.58-1.78c1.23,0,2.51,0,2.86,0s0.48-.1.48-0.36v-7.37h-6.06v-1.71H375.8v1.71Zm-0.54-5.24H366v-1.71h9.3v1.71Z"/><path class="cls-4" d="M396.62,331.87s0,0.61,0,.82c-0.21,7.92-.38,10.65-1,11.47a1.7,1.7,0,0,1-1.36.83,13.42,13.42,0,0,1-2.36,0,4.73,4.73,0,0,0-.5-1.69c0.88,0.08,1.67.08,2,.08a0.73,0.73,0,0,0,.69-0.31c0.42-.54.61-3,0.77-9.57h-2.26c-0.25,5.1-1.11,9.17-4.41,11.7a6,6,0,0,0-1.29-1.32,4.36,4.36,0,0,0,.35-0.27c-2.76.33-5.52,0.61-7.58,0.81l-0.23-1.52c1.11-.08,2.49-0.19,4-0.33v-1.46h-3.49v-1.3h3.49v-1H380v-5.77h3.43v-1h-4v-1.32h4v-1.07c-1.17.1-2.34,0.15-3.41,0.19a5.35,5.35,0,0,0-.42-1.29,59.63,59.63,0,0,0,8.23-.94l0.84,1.34c-1,.21-2.28.4-3.61,0.54v1.23h3.88v1.11h2c0-1.3,0-2.67,0-4.1h1.71c0,1.42,0,2.8,0,4.1h4Zm-15.15,3.55h2v-1.17h-2v1.17Zm2,2.26v-1.17h-2v1.17h2Zm1.63,4.76c1.19-.12,2.42-0.23,3.63-0.36,1.57-2.17,2.05-5.06,2.21-8.55h-2v-1.44h-3.8v1h3.57v5.77h-3.57v1h3.61v1.3h-3.61v1.3Zm2.05-7v-1.17h-2.05v1.17h2.05Zm-2.05,1.09v1.17h2.05v-1.17h-2.05Z"/><path class="cls-4" d="M417.34,328.23V345.1h-1.92v-1H403.16v1h-1.84V328.23h16Zm-1.92,14.17V330H403.16V342.4h12.26ZM413,332.68v7h-7.56v-7H413Zm-1.78,1.57h-4.08v3.91h4.08v-3.91Z"/><path class="cls-4" d="M429.71,334.8a8.16,8.16,0,0,1-.77.82c-0.19-.19-0.63-0.56-1-0.82v4.74h-1.51V334.8c-0.4.44-.79,0.82-1.19,1.19a8,8,0,0,0-.71-0.77c0,3-.36,7.12-1.76,9.9a6.38,6.38,0,0,0-1.36-1c1.38-2.76,1.5-6.71,1.5-9.53v-5.64h7.48a10.32,10.32,0,0,0-.75-1.29l1.55-.46a11.87,11.87,0,0,1,1.07,1.75h6.77v1.48h-4.49a8.12,8.12,0,0,1,1,1.5l-0.46.21h3.34v1.11h-3.13v0.86H438v1h-2.61v0.9H438v1h-2.65v0.94h3.39V339h-7.56v0.38l0.25-.23a14.13,14.13,0,0,1,3.09,1.86l-1.07,1.07a15.27,15.27,0,0,0-3-2l0.58-.54h-1.27V334.8Zm-5.43,9.05a7.3,7.3,0,0,0,2.07-3.34l1.44,0.5a7.63,7.63,0,0,1-2.15,3.68Zm4.83-13a12.18,12.18,0,0,1-1.15,2v1.61a13,13,0,0,0,2.74-4h-6.16v4.12a13.52,13.52,0,0,0,3.09-4.1Zm4.55,12.72c0.59,0,.71-0.17.77-1.53a4.71,4.71,0,0,0,1.44.58c-0.17,1.94-.65,2.4-2,2.4H431c-1.84,0-2.28-.42-2.28-1.92v-2.42h1.63v2.4c0,0.44.13,0.5,0.86,0.5h2.44Zm0.42-11.45a9.41,9.41,0,0,0-.86-1.29l1.07-.42h-3.45l1.36,0.38a12.27,12.27,0,0,1-.65,1.32h2.53Zm-0.21,1.11h-2.69v0.86h2.69v-0.86Zm0,1.82h-2.69v0.9h2.69V335Zm0,1.86h-2.69v0.94h2.69V336.9Zm2.59,3.41a14.82,14.82,0,0,1,2.67,3.63l-1.42.71a15.64,15.64,0,0,0-2.55-3.68Z"/><path class="cls-4" d="M448.52,328.09a30.73,30.73,0,0,1-1.9,4v13h-1.69V334.77a20.26,20.26,0,0,1-1.65,2,11.76,11.76,0,0,0-1-1.8,21.32,21.32,0,0,0,4.55-7.38Zm6.71,4.62V343a1.69,1.69,0,0,1-.77,1.75,6.35,6.35,0,0,1-2.65.35,6.42,6.42,0,0,0-.63-1.78c0.86,0,1.69,0,1.94,0s0.35-.06.35-0.31V332.71h-2.59a18.45,18.45,0,0,1-1.84,3.15,11.13,11.13,0,0,0-1.46-1.17,17.94,17.94,0,0,0,3.18-7.1l1.76,0.38a27.48,27.48,0,0,1-1,3.09h7.25l0.29-.06,1.25,0.25c-0.25,1.46-.59,3.15-0.84,4.22l-1.51-.29c0.13-.65.27-1.55,0.38-2.47h-3.13Zm-3.15,3.41a19.09,19.09,0,0,1-2.7,6.46,10.18,10.18,0,0,0-1.52-1,14.86,14.86,0,0,0,2.47-5.83Zm5.81-.5a24.39,24.39,0,0,1,2.26,6.29l-1.71.61a25.06,25.06,0,0,0-2.15-6.39Z"/><path class="cls-4" d="M466.61,338.22a16.16,16.16,0,0,1-1.57,7,6.37,6.37,0,0,0-1.46-1.13c1.23-2.28,1.32-5.5,1.32-8V329.3a28.42,28.42,0,0,0,6.48-1.42l1.15,1.5a26.27,26.27,0,0,1-5.87,1.27v1.61h5v6h-5.08Zm0.06-4.35v2.74H470v-2.74h-3.32Zm14.75,1.76h-2V345h-1.76v-9.4h-2.55c0,3-.44,7-3,9.53a7.17,7.17,0,0,0-1.42-1.21c2.42-2.36,2.65-5.77,2.65-8.46v-6.14a30,30,0,0,0,6.64-1.61l1.21,1.53a30.45,30.45,0,0,1-6,1.4v3.22h6.35v1.73Z"/><path class="cls-4" d="M491.68,334.8c-0.21.38-.4,0.75-0.63,1.11h9.24v9.25h-1.78v-0.73h-7.67v0.73h-1.71v-6.73a14.18,14.18,0,0,1-3.22,2.57,7.06,7.06,0,0,0-1.09-1.4,13.31,13.31,0,0,0,4.83-4.79h-4.32v-1.42h5.08c0.19-.36.37-0.77,0.54-1.15h-4.26v-1.4h4.74c0.13-.36.23-0.73,0.33-1.09-1.69.06-3.37,0.1-5,.1a4.17,4.17,0,0,0-.34-1.36,91.55,91.55,0,0,0,13.41-.86l1.07,1.29a66.33,66.33,0,0,1-7.19.75c-0.12.4-.25,0.79-0.38,1.19h7.71v1.4h-8.19c-0.15.38-.33,0.79-0.5,1.15h9.76v1.42H491.68Zm6.83,2.49h-7.67v1.09h7.67V337.3Zm-7.67,3.38h7.67v-1.09h-7.67v1.09Zm7.67,2.36v-1.17h-7.67V343h7.67Z"/><path class="cls-4" d="M521.09,343.24c0.75,0,.86-0.31.94-2.63a5,5,0,0,0,1.67.73c-0.21,2.88-.71,3.59-2.44,3.59h-2.84c-2,0-2.51-.54-2.51-2.34v-3.47h-2.76c-0.44,3-1.63,5-6.12,6a5.53,5.53,0,0,0-1-1.57c3.93-.77,4.87-2.17,5.24-4.45h-2.47v-11H521v11h-3.24v3.47c0,0.58.13,0.65,0.9,0.65h2.46ZM510.5,331.33h8.67v-1.61H510.5v1.61Zm0,3.09h8.67v-1.63H510.5v1.63Zm0,3.13h8.67V335.9H510.5v1.65Z"/><path class="cls-4" d="M544.19,330.47s0,0.61,0,.84c-0.27,8.65-.5,11.62-1.27,12.58a2.14,2.14,0,0,1-1.67.9,20.6,20.6,0,0,1-2.9,0,4.17,4.17,0,0,0-.58-1.73c1.23,0.1,2.34.12,2.82,0.12a0.86,0.86,0,0,0,.81-0.33c0.61-.63.86-3.53,1.11-10.76H538a19.33,19.33,0,0,1-1.75,3.22,9.43,9.43,0,0,0-1.4-1v8.8h-5.2v1.46H528v-14h2.15a22.49,22.49,0,0,0,.67-3.11l1.94,0.33c-0.33,1-.69,2-1,2.78h3.07v3.63a18.33,18.33,0,0,0,2.86-6.73l1.73,0.4c-0.23.88-.48,1.76-0.79,2.61h5.56Zm-14.56,1.65v3.64h3.57v-3.64h-3.57Zm3.57,9.44v-4.24h-3.57v4.24h3.57Zm6.39-1.5a31.26,31.26,0,0,0-2.8-4.43l1.4-.79a34.42,34.42,0,0,1,2.9,4.28Z"/><path class="cls-4" d="M551,335.13v10H549.2V328.26h7.06v6.87H551Zm0-5.45V331h3.61v-1.34H551Zm3.61,4v-1.44H551v1.44h3.61Zm0.44,8.69v1.11h-1.65v-6.87h7.23v5.75H555Zm0-4.26v2.78h3.91v-2.78H555Zm10,4.68c0,1.07-.25,1.63-0.94,1.94a11,11,0,0,1-3.57.31,6.2,6.2,0,0,0-.61-1.82c1.21,0.06,2.46,0,2.84,0a0.39,0.39,0,0,0,.46-0.48v-7.67h-5.41v-6.89H565v14.58Zm-5.52-13.18V331h3.7v-1.36h-3.7Zm3.7,4.09v-1.46h-3.7v1.46h3.7Z"/><path class="cls-4" d="M574.72,342.65a15.19,15.19,0,0,0,5.1.59c1.05,0,6,0,7.27,0a4.9,4.9,0,0,0-.59,1.5h-6.67c-3.89,0-6.5-.42-8.13-2.78a7.35,7.35,0,0,1-1.42,3.26,4.92,4.92,0,0,0-1.07-1.21c1.11-1.34,1.38-3.76,1.44-6.08h1.46c0,0.73-.06,1.44-0.13,2.15a5,5,0,0,0,1.23,1.71V337h-3.66v-1.36h8.55V337h-3.36v1.8h3v1.34h-3v2.51Zm2.34-8.29h-6.52v-6.1h6.52v6.1Zm-1.65-4.85h-3.3v1.21h3.3v-1.21Zm0,2.38h-3.3v1.23h3.3v-1.23Zm6.27,8.27a11.83,11.83,0,0,1-3.36,2.8,8.9,8.9,0,0,0-1.17-1.07,9,9,0,0,0,3-2.19Zm-0.61-9.23c0.13-.4.25-0.82,0.36-1.25H578v-1.32h8.71v1.32h-3.59c-0.17.42-.35,0.86-0.52,1.25H586v8.52h-7.35v-8.52h2.44Zm3.24,1.27h-4.07v1.19h4.07V332.2Zm0,2.38h-4.07v1.19h4.07v-1.19Zm0,2.4h-4.07v1.21h4.07V337Zm-0.21,2.65a15.15,15.15,0,0,1,2.9,2.44l-1.29.81a15.81,15.81,0,0,0-2.86-2.57Z"/><path class="cls-4" d="M596.28,342.3a1.49,1.49,0,0,1,1.46-1.57,1.5,1.5,0,0,1,1.5,1.57,1.47,1.47,0,0,1-1.5,1.53A1.45,1.45,0,0,1,596.28,342.3Zm0.42-10.89-0.06-2.26h2.22l-0.08,2.26-0.31,7.67H597Z"/></svg>