<svg id="圖層_1" data-name="圖層 1" xmlns="http://www.w3.org/2000/svg" viewBox="0 0 726.15 473.98"><defs><style>.cls-1,.cls-2,.cls-3,.cls-5{fill:#00364b;}.cls-1,.cls-2,.cls-3{stroke:#4eb5ff;stroke-miterlimit:10;}.cls-1{stroke-width:11.21px;}.cls-2{stroke-width:11.98px;}.cls-3{stroke-width:12.79px;}.cls-4{fill:#4eb5ff;}.cls-6{fill:#0f9bff;}.cls-7{fill:#6bffba;}</style></defs><title>window</title><rect class="cls-1" x="16.82" y="62.58" width="562.23" height="366.77"/><rect class="cls-2" x="38.22" y="50.09" width="600.51" height="391.74"/><rect class="cls-3" x="60.37" y="36.89" width="641" height="418.15"/><path class="cls-4" d="M593.28,179.21a4.89,4.89,0,0,0,5-4.51c0-2.36-2.2-4.3-4.94-4.3H580a4.15,4.15,0,0,1-4.22-4.93l2.55-16.24H538.41a6.27,6.27,0,0,0-5.88,5.6L529,175.62c-0.6,3.53,1.55,5.63,3.91,5.63,2.69,0,4.42-1.82,4.85-4.53l2.25-13.32a5.77,5.77,0,0,1,5.26-4.93c2.47,0,3.68,2.22,3.22,4.92l-10.94,63.72a6.16,6.16,0,0,1-5.84,4.92H525.7a6,6,0,0,0-5.77,4.93l-1.3,8.26a4.35,4.35,0,0,0,4.23,4.93c2.36,0,4.31-2,4.76-4.51a6,6,0,0,1,5.82-4.51H538a8.81,8.81,0,0,0,8.3-6.88L551.07,209a6.28,6.28,0,0,1,5.92-4.91h14.44a4.15,4.15,0,0,1,4.22,4.93l-5.53,35.23a5,5,0,0,0,5.05,5.91h8.92c2.75,0,5.52-1.27,5.52-4.64,0-1.58-1.26-3.93-5-3.93h0a4.15,4.15,0,0,1-4.22-4.93l5.48-34.92a5.93,5.93,0,0,0-6-7h-3.73a4.15,4.15,0,0,1-4.22-4.93l1.65-10.54h19.71Z"/><path class="cls-4" d="M566.82,123.67c1.66-2.19,3.95-1.94,5.09.56l6.6,14.46c1.14,2.5-.17,4.54-2.92,4.54H557c-2.75,0-3.64-1.79-2-4Z"/><path class="cls-4" d="M579.12,121.59a2.64,2.64,0,0,1-2.08-4.27l6.5-8.34a2.64,2.64,0,1,1,4.17,3.25l-6.5,8.34A2.64,2.64,0,0,1,579.12,121.59Z"/><path class="cls-4" d="M584.06,130.86a2.64,2.64,0,0,1-1.13-5l11-5.21a2.64,2.64,0,0,1,2.26,4.78l-11,5.21A2.63,2.63,0,0,1,584.06,130.86Z"/><path class="cls-4" d="M598.66,140.76H587.51a2.64,2.64,0,1,1,0-5.29h11.14A2.64,2.64,0,0,1,598.66,140.76Z"/><rect class="cls-4" x="269.09" y="125.38" width="153.75" height="30.19"/><path class="cls-5" d="M282.44,137.76l0.48-2.28a15.71,15.71,0,0,0,2.27-.21,4,4,0,0,0,1.83-.89,3.74,3.74,0,0,0,.92-1.22,3.14,3.14,0,0,0,.28-0.68H291l-3.62,17H284l2.49-11.74h-4Z"/><path class="cls-5" d="M305.93,141.15a15.85,15.85,0,0,1-2.7,6.49,6,6,0,0,1-5,2.28q-3.25,0-4.08-2.28t0.08-6.49a15.81,15.81,0,0,1,2.69-6.51,6.05,6.05,0,0,1,5.05-2.29q3.25,0,4.07,2.29T305.93,141.15Zm-7.16,6a2.48,2.48,0,0,0,2.28-1.56,19.25,19.25,0,0,0,1.43-4.49,16.62,16.62,0,0,0,.5-4.56,1.47,1.47,0,0,0-1.64-1.48A2.5,2.5,0,0,0,299,136.6a17.86,17.86,0,0,0-1.44,4.56,15.74,15.74,0,0,0-.48,4.49A1.51,1.51,0,0,0,298.76,147.2Z"/><path class="cls-5" d="M307.28,146h3.56l-0.74,3.5h-3.56Z"/><path class="cls-5" d="M314,146.16a13,13,0,0,1,4.15-3.6,33.76,33.76,0,0,0,3.5-2.37,4.5,4.5,0,0,0,1.56-2.44,2.36,2.36,0,0,0-.21-1.8,1.69,1.69,0,0,0-1.56-.72,2.66,2.66,0,0,0-2.33,1.14,6.54,6.54,0,0,0-.81,2.09H315a9.91,9.91,0,0,1,1.53-3.51,6.19,6.19,0,0,1,5.3-2.55,5,5,0,0,1,4,1.5,4.38,4.38,0,0,1,.75,4,6.74,6.74,0,0,1-1.83,3.36,15.45,15.45,0,0,1-2.9,2.17l-1.54,1q-1.44.89-2,1.29a5,5,0,0,0-1,.93h7.43l-0.62,2.95H312.47A9.69,9.69,0,0,1,314,146.16Z"/><path class="cls-5" d="M334.09,141.21h6.74l-0.68,3.17h-6.74Z"/><path class="cls-5" d="M350.62,137.76l0.48-2.28a15.71,15.71,0,0,0,2.27-.21,4,4,0,0,0,1.83-.89,3.74,3.74,0,0,0,.92-1.22,3.14,3.14,0,0,0,.28-0.68h2.78l-3.62,17h-3.43l2.49-11.74h-4Z"/><path class="cls-5" d="M374.11,141.15a15.85,15.85,0,0,1-2.7,6.49,6,6,0,0,1-5,2.28q-3.25,0-4.08-2.28t0.08-6.49a15.81,15.81,0,0,1,2.69-6.51,6.05,6.05,0,0,1,5.05-2.29q3.25,0,4.07,2.29T374.11,141.15Zm-7.16,6a2.48,2.48,0,0,0,2.28-1.56,19.25,19.25,0,0,0,1.43-4.49,16.62,16.62,0,0,0,.5-4.56,1.47,1.47,0,0,0-1.64-1.48,2.5,2.5,0,0,0-2.29,1.48,17.86,17.86,0,0,0-1.44,4.56,15.74,15.74,0,0,0-.48,4.49A1.51,1.51,0,0,0,366.95,147.2Z"/><path class="cls-5" d="M375.46,146H379l-0.74,3.5h-3.56Z"/><path class="cls-5" d="M382.15,146.16a13,13,0,0,1,4.15-3.6,33.76,33.76,0,0,0,3.5-2.37,4.5,4.5,0,0,0,1.56-2.44,2.36,2.36,0,0,0-.21-1.8,1.69,1.69,0,0,0-1.56-.72,2.66,2.66,0,0,0-2.33,1.14,6.54,6.54,0,0,0-.81,2.09h-3.25a9.91,9.91,0,0,1,1.53-3.51,6.19,6.19,0,0,1,5.3-2.55,5,5,0,0,1,4,1.5,4.38,4.38,0,0,1,.75,4,6.74,6.74,0,0,1-1.83,3.36,15.45,15.45,0,0,1-2.9,2.17l-1.54,1q-1.44.89-2,1.29a5,5,0,0,0-1,.93h7.43l-0.62,2.95H380.65A9.69,9.69,0,0,1,382.15,146.16Z"/><path class="cls-5" d="M398.21,144.95a2.63,2.63,0,0,0,.41,1.69,1.77,1.77,0,0,0,1.52.59,2.75,2.75,0,0,0,2.08-.87,4.45,4.45,0,0,0,1.12-2.2,3.45,3.45,0,0,0-.13-2.2,1.69,1.69,0,0,0-1.71-.9,3.59,3.59,0,0,0-1.09.15,2.83,2.83,0,0,0-1.41,1l-3-.14,3.21-9.41h9.38L408,135.54h-7l-1.4,3.72a9,9,0,0,1,1.35-.67,5.64,5.64,0,0,1,1.83-.27,4.31,4.31,0,0,1,3.38,1.42q1.27,1.42.69,4.13a8.13,8.13,0,0,1-2.41,4.22,6.79,6.79,0,0,1-4.93,1.86,5,5,0,0,1-3.71-1.3,4.19,4.19,0,0,1-1-3.7h3.33Z"/><path class="cls-4" d="M157.84,134.17h-3.79a14,14,0,0,1,1.51,1.38L154,136.93h1.79v5.54h-6.94v1.29h8s0,0.63-.07.94c-0.22,2.91-.48,4.33-1.05,4.9a2.29,2.29,0,0,1-1.66.77,21.48,21.48,0,0,1-2.78,0,5.23,5.23,0,0,0-.72-2.36,18.17,18.17,0,0,0,2.23.09,1,1,0,0,0,.74-0.2,3.92,3.92,0,0,0,.52-2h-5.23v5.4h-2.56v-4.27a19.77,19.77,0,0,1-6.65,4.18,10,10,0,0,0-1.64-2.06,19.38,19.38,0,0,0,6.35-3.26h-4.7a47.72,47.72,0,0,0,.81-5.6h5.84v-1.25h-6.65v-2.14h4.46a17.48,17.48,0,0,0-2-2l0.83-.72h-1.29A17.14,17.14,0,0,1,139.4,137a16.54,16.54,0,0,0-1.75-1.75,12.53,12.53,0,0,0,3.17-4.59l2.3,0.66a7.75,7.75,0,0,1-.39.88h4.81v2h-3.13a13.66,13.66,0,0,1,1.49,1.44l-1.4,1.29h9.23a16.82,16.82,0,0,0-2.12-1.95l0.94-.81h-1.79A11.52,11.52,0,0,1,149,136.3a12.18,12.18,0,0,0-1.95-1.51,9.87,9.87,0,0,0,2.74-4.11l2.36,0.59c-0.11.31-.24,0.63-0.37,0.94h6v2Zm-11.55,8.29h-3.57c-0.07.44-.11,0.88-0.18,1.29h3.74v-1.29Zm6.91-3.39h-4.35v1.25h4.35v-1.25Z"/><path class="cls-4" d="M174.9,130.15l0.79-3.74a25.68,25.68,0,0,0,3.72-.35,6.59,6.59,0,0,0,3-1.46,6.1,6.1,0,0,0,1.5-2,5.15,5.15,0,0,0,.46-1.12h4.56L183,149.4h-5.62l4.08-19.25H174.9Z"/><path class="cls-4" d="M209.49,132.62c-0.61,1.86-1.4,4-2.06,5.67a6.85,6.85,0,0,1,1.75,4.6c0,1.42-.31,2.34-1,2.87a2.85,2.85,0,0,1-1.27.48,9.23,9.23,0,0,1-1.38,0A5.58,5.58,0,0,0,205,144a6.77,6.77,0,0,0,.92,0,1,1,0,0,0,.61-0.18,1.66,1.66,0,0,0,.37-1.29,5.94,5.94,0,0,0-1.71-4c0.48-1.31,1-3.11,1.36-4.53h-1.66v17.22H202.6V131.72h4.81l0.37-.11Zm5.36,4.92a16.54,16.54,0,0,0,.33,2c-4.25,1-5,1.31-5.51,1.64a7.4,7.4,0,0,0-.77-2.41,1,1,0,0,0,.77-1.14V131h2.56v2.52h2.71v2.17h-2.71v2.45Zm1.9,3.24c-0.28.39-.55,0.81-0.81,1.2H221v9.28h-2.71v-0.63h-5.56v0.72h-2.6V142h3.17a14.93,14.93,0,0,0,.57-1.77Zm1.53,3.22h-5.56v1.33h5.56V144Zm0,4.62v-1.4h-5.56v1.4h5.56Zm1.31-10.09c0.37,0,.46-0.33.53-2.1a6.79,6.79,0,0,0,2.19.92c-0.24,2.6-.88,3.37-2.45,3.37h-1.77c-2.06,0-2.52-.72-2.52-3v-6.85h2.54v2.58h3.57v2.17h-3.57v2.08c0,0.68.07,0.79,0.44,0.79h1Z"/><path class="cls-4" d="M234.81,146.49c-1.6.28-3.26,0.55-4.81,0.81v3.54H227.5V147.7l-1.36.22-0.39-2.45,1.75-.22V133l0.09,0,0,0a32.28,32.28,0,0,0,5.78-2.36l2.06,2a52.23,52.23,0,0,1-5.41,1.9V136h4.42v2.25H230v2.19h4.35v2.25H230v2.25c1.49-.2,3.11-0.44,4.68-0.66Zm10.39-5.38a13.56,13.56,0,0,1-3.09,6.28,12.45,12.45,0,0,0,4.33,1.69,10.18,10.18,0,0,0-1.62,2.23,13.46,13.46,0,0,1-4.64-2.23,15.8,15.8,0,0,1-5.1,2.32,8.56,8.56,0,0,0-1.31-2.23,13.67,13.67,0,0,0,4.59-1.84,15.82,15.82,0,0,1-2.41-4.16l1.33-.33h-2.12v-2.19h0.77a12.37,12.37,0,0,0-1.71-1.55,4.94,4.94,0,0,0,2.36-4.7V131.7H239v0h2.14v0h2.38v5.14c0,0.61,0,.83.33,0.83h1a4.55,4.55,0,0,0,1.09-.13c0,0.61.11,1.44,0.2,2a3.75,3.75,0,0,1-1.27.15h-1.25c-2.06,0-2.47-.85-2.47-2.89v-2.89H239v0.55a7.19,7.19,0,0,1-2.76,6.19h6.91l0.44-.07Zm-7,1.73a10.23,10.23,0,0,0,2,3,9.63,9.63,0,0,0,2-3h-4Z"/><path class="cls-4" d="M161.41,204.8a105.68,105.68,0,0,1-11,14.45l23.89-1.42c-2.06-3-4.25-6-6.31-8.49l6.49-2.83c5.13,5.9,10.5,13.63,13.1,19L180.76,229c-0.65-1.47-1.47-3.13-2.48-4.9-29.73,2.36-33.86,2.54-36.81,3.66-0.41-1.42-1.59-5-2.42-6.9,1.53-.35,2.77-1.53,4.54-3.54a79.24,79.24,0,0,0,8.91-12.56H135.93v-7.08h22.95v-8.38H140.41v-7.08h18.46v-8.14h7.43v8.14h19v7.08h-19v8.38h23.24v7.08H161.41Z"/><path class="cls-4" d="M213.62,213.88H202.47v5.25H196.1V179.31h17.52v34.57Zm-11.15-28.14v21.71h4.72V185.74h-4.72Zm36.69,36.1c3.13,0,3.72-1.36,4.19-7.43a17.25,17.25,0,0,0,6.31,2.71c-0.89,8.26-3,11.21-9.85,11.21H227.48c-7.67,0-10.09-2.12-10.09-10.62v-40h29.79v32.39H240.4v-3.42H224.3v11.09c0,3.54.47,4.07,4,4.07h10.91ZM224.3,184.15v16.16H229V184.15H224.3Zm16.1,0h-5.07v16.16h5.07V184.15Z"/><path class="cls-4" d="M273.08,218.9a6.14,6.14,0,0,1,12.27,0c0,3.42-2.65,5.78-6.13,5.78S273.08,222.32,273.08,218.9Zm1-30.09L273.84,180h10.79l-0.29,8.79L282.28,209H276.2Z"/><path class="cls-4" d="M331.36,189.52a78.23,78.23,0,0,1-6.31,9v30.79h-7V206.27c-1.65,1.59-3.25,3.07-4.84,4.37a69.11,69.11,0,0,0-4.78-6.08,57.47,57.47,0,0,0,16.22-17.64ZM329.17,177A79.21,79.21,0,0,1,313,192.47a40.92,40.92,0,0,0-3.89-5.72,52.48,52.48,0,0,0,13.33-12.56Zm34.69,23.48h-8.08v20.71c0,3.78-.71,5.72-3.3,6.78s-6.25,1.18-11.5,1.18a29.08,29.08,0,0,0-2.12-7.14c3.36,0.18,7.26.18,8.32,0.12s1.47-.24,1.47-1.12V200.43h-17.4v-6.67h32.62v6.67Zm-1.47-16.22H333.72v-6.67h28.67v6.67Z"/><path class="cls-4" d="M422.14,187.45s-0.06,2.3-.06,3.13c-0.53,24.13-1,32.68-2.89,35.39a6.58,6.58,0,0,1-4.66,2.95,39.56,39.56,0,0,1-7.31.24,16.43,16.43,0,0,0-2.07-6.73c2.6,0.24,4.84.29,6,.29a2.14,2.14,0,0,0,2-1c1.24-1.59,1.83-8.79,2.18-27.84H410c-0.77,15.81-3.48,28-13.39,35.81a23,23,0,0,0-4.13-4.66c-8.5.88-17,1.77-23.36,2.3l-0.83-5.9c3.3-.24,7.43-0.53,12-0.83v-3.54H369.87v-5h10.38v-2.3H370.11V191.58h10.15v-2.3H368.64v-5.07h11.62v-2.36c-3.42.24-6.78,0.41-10,.47a21.83,21.83,0,0,0-1.53-5c8.73-.47,18.94-1.48,25.42-2.89l3.07,5.25c-3.13.65-6.78,1.18-10.62,1.59v2.89H398v3.24h5.54c0.06-3.89.06-8,.06-12.33h6.73c0,4.31,0,8.44-.12,12.33h12ZM375.65,198.6h4.6V196h-4.6v2.6Zm4.6,6.84v-2.65h-4.6v2.65h4.6Zm6.37,14.63c3.36-.24,6.84-0.53,10.26-0.83,4.6-6.37,6-14.81,6.43-25.37H398v-4.6H386.63v2.3h10.44v18.23H386.63v2.3H397.3v5H386.63v3Zm4.6-21.47V196h-4.6v2.6h4.6Zm-4.6,4.19v2.65h4.6v-2.65h-4.6Z"/><path class="cls-6" d="M130.71,279.28h16.66v6.37h-9.65v24.74h-7V279.28Z"/><path class="cls-6" d="M643.71,362.19H627.05v-6.37h9.65V331.08h7v31.11Z"/><path class="cls-4" d="M166.7,312.4V316H165V312.4h-3.51v-1.52H165V309.2h-2.93v-1.52h1.48a9,9,0,0,0-.9-2.36l1.11-.4h-2.24v-1.52H165v-1.55h-2.78v-1.5H165V298.5h1.65v1.86h2.67v1.5h-2.67v1.55h3.22v1.52H164a8.73,8.73,0,0,1,1,2.34l-1.11.42h2.67a20.18,20.18,0,0,0,.86-2.7l1.52,0.38c-0.33.79-.63,1.63-0.92,2.32h1.48v1.52H166.7v1.69H170v1.52H166.7Zm10.49-10.2c-0.12,5.77-.15,11.76.75,12a9.17,9.17,0,0,0,.29-2.72,6.66,6.66,0,0,0,1,1.19c-0.13,3-.88,3.66-1.94,3.24-1.84-.61-1.84-5.95-1.82-12h-1.73v0.48a29.61,29.61,0,0,1-.27,4.24,15.9,15.9,0,0,1,2.05,2.11l-1.09,1.38a16.59,16.59,0,0,0-1.34-1.55,11.52,11.52,0,0,1-3.16,5.62,7.71,7.71,0,0,0-1.36-1.09,10.7,10.7,0,0,0,3.11-5.83c-0.71-.61-1.48-1.21-2.17-1.73l1-1.23c0.46,0.33,1,.71,1.46,1.07a27.22,27.22,0,0,0,.13-3v-0.5h-2V302.2h2v-3.66h1.65v3.66h3.43Z"/><path class="cls-4" d="M189.18,303.22a25.77,25.77,0,0,1-2.09,2.93v10h-1.78v-8a25.46,25.46,0,0,1-1.9,1.73,9.91,9.91,0,0,0-1.23-1.52,20.36,20.36,0,0,0,5.31-5.75Zm-0.73-4a25.29,25.29,0,0,1-5.06,4.85,8.14,8.14,0,0,0-1-1.44,17.35,17.35,0,0,0,4.37-4.12ZM200,306.55H197.2v7.38c0,1-.23,1.53-1,1.82a12,12,0,0,1-3.62.29,7.15,7.15,0,0,0-.58-1.78c1.23,0,2.51,0,2.86,0s0.48-.1.48-0.36v-7.37h-6.06v-1.71H200v1.71Zm-0.54-5.24h-9.3v-1.71h9.3v1.71Z"/><path class="cls-4" d="M206.83,301.18a13.11,13.11,0,0,1-2,2.46,11.77,11.77,0,0,0-1.21-1.17,11.24,11.24,0,0,0,2.8-4.12l1.59,0.46a7.34,7.34,0,0,1-.44,1h4.58v1.4H209a12.73,12.73,0,0,1,1.53,1.52l-1.15,1a18.61,18.61,0,0,0-1.84-1.94l0.71-.59h-1.4Zm13.29,8.59s0,0.44-.06.69c-0.23,2.59-.46,3.76-1,4.26a1.79,1.79,0,0,1-1.32.56,19.45,19.45,0,0,1-2.4,0,3.93,3.93,0,0,0-.5-1.63,15.3,15.3,0,0,0,2.07.1,1,1,0,0,0,.67-0.15,4.91,4.91,0,0,0,.58-2.3h-5.1v4.79h-1.76V312a17.3,17.3,0,0,1-6.14,4,7.2,7.2,0,0,0-1.15-1.4,16,16,0,0,0,5.91-3.38h-4.62a45.26,45.26,0,0,0,.69-4.49h5.31v-1.5h-6v-1.48h14v4.45h-6.25v1.5h7Zm-12.58-1.5c-0.06.52-.13,1-0.21,1.5h4v-1.5h-3.8Zm13.52-8.5v1.4h-3.78a12.07,12.07,0,0,1,1.67,1.48l-1.21,1a14.27,14.27,0,0,0-2-1.84l0.84-.67h-1.92a9.93,9.93,0,0,1-1.46,1.78,9.64,9.64,0,0,0-1.34-1.06,8.39,8.39,0,0,0,2.4-3.55l1.63,0.38c-0.13.36-.27,0.69-0.42,1h5.54Zm-8,7h4.51v-1.5h-4.51v1.5Z"/><path class="cls-4" d="M242.25,306.13v2H224.79v-2h17.45Z"/><path class="cls-4" d="M251.08,299.05a29.12,29.12,0,0,1-1.52,3.68v13.39h-1.71V305.77a18.86,18.86,0,0,1-1.59,2.11,12.63,12.63,0,0,0-.88-1.88,21.49,21.49,0,0,0,4-7.42Zm11.7,0.52v16.34h-1.69v-1h-7.9v1.13h-1.63V299.57h11.22Zm-1.69,13.81V301.13h-7.9v12.26h7.9ZM257.87,305V307h2v5.1h-5.37V307h1.92V305h-2.57v-1.32h2.57v-2.07h1.42v2.07h2.67V305h-2.67Zm0.65,3.2h-2.67v2.53h2.67v-2.53Z"/><path class="cls-4" d="M272.1,299.05a37.06,37.06,0,0,1-1.55,3.86v13.2h-1.63V305.88A17.07,17.07,0,0,1,267.4,308a18.57,18.57,0,0,0-.9-1.88,22,22,0,0,0,3.93-7.52Zm11.51,4.58a24.51,24.51,0,0,1-1.9,7.75,8.46,8.46,0,0,0,2.92,3.28,7.27,7.27,0,0,0-1.07,1.42,10.16,10.16,0,0,1-2.72-3.13,11.13,11.13,0,0,1-3.2,3.15,8.18,8.18,0,0,0-1.11-1.23,9.21,9.21,0,0,0,3.51-3.57,22.83,22.83,0,0,1-1.29-4.74,11.75,11.75,0,0,1-.81,1.38,3.34,3.34,0,0,0-.36-0.56V314h-4.16v1.28h-1.55v-8.19h2v-3.39h-2.46V302.1h2.46v-3.36h1.69v3.36h2.28v1.61h-2.28v3.39h1.8c-0.17-.23-0.35-0.44-0.48-0.59,1.29-1.94,2-4.93,2.46-8L281,298.8c-0.19,1.11-.38,2.24-0.67,3.32h4.18v1.52h-0.86Zm-7.61,5h-2.59v3.84H276v-3.84Zm3.87-5a4.07,4.07,0,0,1-.13.46,25.23,25.23,0,0,0,1.13,5.33,23.9,23.9,0,0,0,1.19-5.79h-2.19Z"/><path class="cls-4" d="M293.9,303.35a21.64,21.64,0,0,1-1.61,2.38v10.36h-1.73V307.7a19.79,19.79,0,0,1-2,1.86,13.2,13.2,0,0,0-.9-1.8,17.62,17.62,0,0,0,4.68-5Zm-0.27-4.12a19.28,19.28,0,0,1-4.8,4.62,10,10,0,0,0-.92-1.48,14.1,14.1,0,0,0,4-3.82ZM305.41,311h-2.74v3.24a1.37,1.37,0,0,1-.81,1.57,8.24,8.24,0,0,1-2.92.29,7.33,7.33,0,0,0-.58-1.61c1,0,1.88,0,2.15,0s0.36-.08.36-0.31V311h-7.38v-1.53h7.38v-1.4H294v-1.48H305v1.48h-2.38v1.4h2.74V311Zm-9.17.12a16.78,16.78,0,0,1,2.36,2.59l-1.34,1A16.93,16.93,0,0,0,295,312Zm8-5.62H295v-6.43h9.25v6.43Zm-1.8-5.12h-5.72v1.28h5.72v-1.28Zm0,2.51h-5.72v1.29h5.72v-1.29Z"/><path class="cls-4" d="M315.46,312.58c1.27-.21,2.55-0.44,3.84-0.67l0.1,1.55c-3.37.65-7,1.32-9.51,1.8l-0.38-1.69c1.15-.15,2.67-0.4,4.28-0.69v-3h-3.62v-1.55h3.63v-1.9h1.69v1.9h3.63v1.55h-3.62v2.65Zm-5.79-12.89h9.84v1.55h-5.12a21.17,21.17,0,0,1-2,3.18l4.24-.33c-0.42-.61-0.84-1.23-1.27-1.75l1.29-.75a25.49,25.49,0,0,1,2.8,4.08l-1.38.88a11.66,11.66,0,0,0-.56-1.05c-5.66.48-6.39,0.58-6.91,0.79a15.33,15.33,0,0,0-.58-1.63,2,2,0,0,0,.92-0.86,17.31,17.31,0,0,0,1.42-2.57h-2.74v-1.55Zm12.41,12h-1.67V300.19h1.67v11.51Zm3.78-12.93v14.85c0,1-.23,1.53-0.84,1.8a8.74,8.74,0,0,1-3.13.33,6.3,6.3,0,0,0-.63-1.73c1.07,0,2.13,0,2.44,0a0.34,0.34,0,0,0,.42-0.42V298.77h1.75Z"/><path class="cls-4" d="M347.25,301.47s0,0.61,0,.84c-0.27,8.65-.5,11.62-1.27,12.58a2.14,2.14,0,0,1-1.67.9,20.6,20.6,0,0,1-2.9,0,4.17,4.17,0,0,0-.58-1.73c1.23,0.1,2.34.12,2.82,0.12a0.86,0.86,0,0,0,.81-0.33c0.61-.63.86-3.53,1.11-10.76H341a19.33,19.33,0,0,1-1.75,3.22,9.43,9.43,0,0,0-1.4-1v8.8h-5.2v1.46h-1.63v-14h2.15a22.49,22.49,0,0,0,.67-3.11l1.94,0.33c-0.33,1-.69,2-1,2.78h3.07v3.63a18.33,18.33,0,0,0,2.86-6.73l1.73,0.4c-0.23.88-.48,1.76-0.79,2.61h5.56Zm-14.56,1.65v3.64h3.57v-3.64h-3.57Zm3.57,9.44v-4.24h-3.57v4.24h3.57Zm6.39-1.5a31.34,31.34,0,0,0-2.8-4.43l1.4-.79a34.42,34.42,0,0,1,2.9,4.28Z"/><path class="cls-4" d="M358,303.22a25.77,25.77,0,0,1-2.09,2.93v10h-1.78v-8a25.46,25.46,0,0,1-1.9,1.73,9.91,9.91,0,0,0-1.23-1.52,20.36,20.36,0,0,0,5.31-5.75Zm-0.73-4a25.29,25.29,0,0,1-5.06,4.85,8.14,8.14,0,0,0-1-1.44,17.35,17.35,0,0,0,4.37-4.12Zm11.51,7.37H366v7.38c0,1-.23,1.53-1,1.82a12,12,0,0,1-3.62.29,7.15,7.15,0,0,0-.58-1.78c1.23,0,2.51,0,2.86,0s0.48-.1.48-0.36v-7.37h-6.06v-1.71H368.8v1.71Zm-0.54-5.24H359v-1.71h9.3v1.71Z"/><path class="cls-4" d="M389.61,302.87s0,0.61,0,.82c-0.21,7.92-.38,10.65-1,11.47a1.7,1.7,0,0,1-1.36.83,13.42,13.42,0,0,1-2.36,0,4.73,4.73,0,0,0-.5-1.69c0.88,0.08,1.67.08,2,.08a0.73,0.73,0,0,0,.69-0.31c0.42-.54.61-3,0.77-9.57h-2.26c-0.25,5.1-1.11,9.17-4.41,11.7a6,6,0,0,0-1.29-1.32,4.36,4.36,0,0,0,.35-0.27c-2.76.33-5.52,0.61-7.58,0.81l-0.23-1.52c1.11-.08,2.49-0.19,4-0.33v-1.46h-3.49v-1.3h3.49v-1H373v-5.77h3.43v-1h-4v-1.32h4v-1.07c-1.17.1-2.34,0.15-3.41,0.19a5.35,5.35,0,0,0-.42-1.29,59.63,59.63,0,0,0,8.23-.94l0.84,1.34c-1,.21-2.28.4-3.61,0.54v1.23h3.88v1.11h2c0-1.3,0-2.67,0-4.1h1.71c0,1.42,0,2.8,0,4.1h4Zm-15.15,3.55h2v-1.17h-2v1.17Zm2,2.26v-1.17h-2v1.17h2Zm1.63,4.76c1.19-.12,2.42-0.23,3.63-0.36,1.57-2.17,2.05-5.06,2.21-8.55h-2v-1.44h-3.8v1h3.57v5.77h-3.57v1h3.61v1.3h-3.61v1.3Zm2.05-7v-1.17h-2.05v1.17h2.05Zm-2.05,1.09v1.17h2.05v-1.17h-2.05Z"/><path class="cls-4" d="M400.22,310c1.48-.56,2.34-1.44,2.44-2.59a1.16,1.16,0,0,1-.27,0,1.5,1.5,0,0,1-1.61-1.53,1.52,1.52,0,0,1,1.63-1.53c1.21,0,1.84.94,1.84,2.4a4.67,4.67,0,0,1-3.53,4.49Z"/><path class="cls-4" d="M420.37,303a22.05,22.05,0,0,1-1.55,2.4v10.72h-1.67v-8.73a16.21,16.21,0,0,1-1.88,1.78,13.58,13.58,0,0,0-1-1.63,16.78,16.78,0,0,0,4.51-5.1ZM420,299.11a19.85,19.85,0,0,1-4.55,4.58,10.24,10.24,0,0,0-1-1.29,15.08,15.08,0,0,0,3.89-3.91Zm7.21,15.06a10.53,10.53,0,0,0,1.59.11c0.48,0,2.8,0,3.45,0a5.31,5.31,0,0,0-.54,1.61h-3.07c-2.71,0-4.72-.65-6-3.26a8.62,8.62,0,0,1-2.17,3.45,9.08,9.08,0,0,0-1.36-1.17c1.88-1.55,2.53-4.16,2.72-7.5l1.73,0.11c-0.08,1-.17,1.92-0.33,2.76a5.25,5.25,0,0,0,2.32,3.32v-7.52H426a10.53,10.53,0,0,0-1.09-.81c1.9-1.42,2.93-3.8,3.34-6.77l1.71,0.23a18.21,18.21,0,0,1-.75,3.13,25.58,25.58,0,0,1,3.15,3.22l-1.19,1.19a21.66,21.66,0,0,0-2.59-2.88,10.35,10.35,0,0,1-1.94,2.69h0.58v3h4v1.52h-4v3.61Zm-2-9.48a17.36,17.36,0,0,0-1.76-1.61,11.12,11.12,0,0,1-2.4,3.43,8.68,8.68,0,0,0-1.29-1.21,11.45,11.45,0,0,0,3.36-6.81l1.71,0.29a21.46,21.46,0,0,1-.79,2.86,14.9,14.9,0,0,1,2,1.67Z"/><path class="cls-4" d="M452.25,301.85V311h-1.86v-1h-5v6.1h-1.86V310h-5v1.13h-1.78v-9.26h6.75v-3.34h1.86v3.34h6.85Zm-8.71,6.39V303.6h-5v4.64h5Zm6.85,0V303.6h-5v4.64h5Z"/><path class="cls-4" d="M466.45,310a5.93,5.93,0,0,1-1.59,3c2.46,1,5.68,1.17,9.74,1.21a4.43,4.43,0,0,0-.75,1.76c-4.3-.15-7.79-0.48-10.47-1.8a16.54,16.54,0,0,1-5.33,1.94,7.8,7.8,0,0,0-1.09-1.57,18,18,0,0,0,4.76-1.4,9.26,9.26,0,0,1-2.23-2.47l1.55-.61a7.77,7.77,0,0,0,2.15,2.11,4.51,4.51,0,0,0,1.36-2.17H459v-7.56h5.81v-1.38h-7.5v-1.61h16.59v1.61H466.7v1.38h6V310h-6.27Zm-5.74-4.47h4.12v-1.63h-4.12v1.63Zm4.09,3a7.6,7.6,0,0,0,0-.94v-0.69h-4.12v1.63h4.09Zm6.16-1.63H466.7v0.71a7.28,7.28,0,0,1,0,.92H471v-1.63Zm-4.26-3v1.63H471v-1.63H466.7Z"/><path class="cls-4" d="M481,307.38a17.44,17.44,0,0,0-3.13-2.19l1-1.25a17.66,17.66,0,0,1,3.17,2.05Zm1.78,2.26c-0.84,2-1.92,4.24-2.88,6l-1.57-1.11a56.46,56.46,0,0,0,3.07-6ZM482,302.31a18.34,18.34,0,0,0-3.11-2.24l1.09-1.21a16.66,16.66,0,0,1,3.15,2.11Zm9.05,7.17a12.68,12.68,0,0,0,4.6,4,6.36,6.36,0,0,0-1.21,1.38,14.22,14.22,0,0,1-4.51-4.33v5.6h-1.75v-5.5a12.51,12.51,0,0,1-4.76,4.33,7.07,7.07,0,0,0-1.21-1.42,10.87,10.87,0,0,0,4.83-4H483.2V307.9h4.95v-2h1.75v2h5.16v1.59h-4Zm-2.63-8c-0.21,2.76-1,4.26-4.78,5a4.53,4.53,0,0,0-.86-1.38c3.24-.52,3.86-1.5,4-3.63h1.63Zm-3.26,1.57h-1.63v-3.61h11.34V303h-1.71v-2h-8v2.09Zm8.88,1.42a6.25,6.25,0,0,0,1.23-.1c0,0.42.1,1.11,0.13,1.48A4.89,4.89,0,0,1,494,306h-2.15c-1.67,0-2.07-.52-2.07-2.15v-2.34h1.59v2.36c0,0.48.06,0.63,0.44,0.63H494Z"/><path class="cls-4" d="M509,299.61c0,3.47.44,10.59,7.75,14.9a9,9,0,0,0-1.44,1.52A16.27,16.27,0,0,1,508,306c-1.42,4.62-3.82,8-7.37,10.11a13.62,13.62,0,0,0-1.65-1.44c4.12-2.13,6.44-5.91,7.56-11.11l1,0.17a21.26,21.26,0,0,1-.25-2.28h-4.56v-1.8H509Z"/><path class="cls-4" d="M537.36,303c-0.5.56-1,1.11-1.5,1.55a8,8,0,0,0,2.13,1.4,6.17,6.17,0,0,0-1.11,1.34,10.25,10.25,0,0,1-1-.59v4.14h-3.32v3.51a1.39,1.39,0,0,1-.69,1.52,6.18,6.18,0,0,1-2.49.27,4.56,4.56,0,0,0-.52-1.59c0.77,0,1.52,0,1.75,0s0.29-.06.29-0.25v-3.47H527.6v-4.18c-0.33.23-.65,0.44-1,0.65a9.3,9.3,0,0,0-.71-1.06v6.71h-3.53v1.59h-1.57v-15h5.1v6.23a9.42,9.42,0,0,0,1.73-1.25,9.32,9.32,0,0,0-1.32-1.44l1-.75a7.21,7.21,0,0,1,1.25,1.17,10.41,10.41,0,0,0,1-1.53h-3.18v-1.44h3.8a12.84,12.84,0,0,0,.56-2.05l1.61,0.23c-0.13.63-.31,1.25-0.48,1.82h5.62V302h-3.59a10,10,0,0,0,1.15,1.67,11.73,11.73,0,0,0,1.09-1.38Zm-15-1.84v2.38h1.94v-2.38h-1.94Zm0,6.27h1.94V305h-1.94v2.38Zm1.94,3.93v-2.42h-1.94v2.42h1.94Zm5.12,0.58a12.36,12.36,0,0,1-2.88,3.68,8.92,8.92,0,0,0-1.32-1,8.42,8.42,0,0,0,2.57-3.11Zm4.85-5.87h-5.06v1.15h5.06V306Zm0,2.34h-5.06v1.17h5.06v-1.17Zm-3-6.39a11.79,11.79,0,0,1-1.69,2.78h4.33a12.11,12.11,0,0,1-1.69-2.78h-1Zm3.78,9.42a15.86,15.86,0,0,1,2.68,3.26l-1.38.82a16.7,16.7,0,0,0-2.59-3.38Z"/><path class="cls-4" d="M554.07,300.93a6.05,6.05,0,0,1-3.62,5.06,4.9,4.9,0,0,0-.84-1.11v9.38a1.5,1.5,0,0,1-.67,1.53,6.61,6.61,0,0,1-2.55.27,5.67,5.67,0,0,0-.56-1.5c0.92,0,1.73,0,2,0a0.3,0.3,0,0,0,.34-0.35v-3.13h-4.26a11.32,11.32,0,0,1-1.48,5,7,7,0,0,0-1.27-.79c1.29-2,1.42-4.83,1.42-7v-3l-0.17.21a12,12,0,0,0-1.3-1.06,13.86,13.86,0,0,0,2.9-6l1.63,0.36c-0.13.46-.27,0.92-0.42,1.38h2l0.25-.08,1,0.65a24.6,24.6,0,0,1-1.15,2.53h2.28v1.38a4.65,4.65,0,0,0,2.82-3.78H550v-1.48h8.34s0,0.42,0,.61c-0.13,3.11-.31,4.39-0.71,4.85a1.44,1.44,0,0,1-1.09.54,12.31,12.31,0,0,1-1.94,0,4.33,4.33,0,0,0-.4-1.48,13.68,13.68,0,0,0,1.55.08,0.52,0.52,0,0,0,.52-0.17c0.21-.23.35-1,0.44-3h-2.67Zm-9.44.67c-0.25.59-.52,1.19-0.81,1.73h2a16.21,16.21,0,0,0,.71-1.73h-1.86ZM544,308.38c0,0.44,0,.9,0,1.38h1.48v-1.94H544v0.56Zm0-1.88h1.46v-1.82H544v1.82Zm2.7,0h1.44v-1.82h-1.44v1.82Zm1.44,3.26v-1.94h-1.44v1.94h1.44Zm10.78,2.88h-3.49V316h-1.69v-3.38h-3.8v-1.55h3.8V309h-1.88a9.44,9.44,0,0,1-.9,1.71,8.13,8.13,0,0,0-1.34-.71,10.88,10.88,0,0,0,1.65-4.22l1.48,0.31q-0.14.69-.35,1.38h1.34v-1.84h1.69v1.84h3.13V309h-3.13v2.07h3.49v1.55Z"/><path class="cls-4" d="M565.07,306.13v10H563.3V299.26h7.06v6.87h-5.29Zm0-5.45V302h3.61v-1.34h-3.61Zm3.61,4v-1.44h-3.61v1.44h3.61Zm0.44,8.69v1.11h-1.65v-6.87h7.23v5.75h-5.58Zm0-4.26v2.78H573v-2.78h-3.91Zm10,4.68c0,1.07-.25,1.63-0.94,1.94a11,11,0,0,1-3.57.31,6.2,6.2,0,0,0-.61-1.82c1.21,0.06,2.46,0,2.84,0a0.39,0.39,0,0,0,.46-0.48v-7.67h-5.41v-6.89h7.23v14.58Zm-5.52-13.18V302h3.7v-1.36h-3.7Zm3.7,4.09v-1.46h-3.7v1.46h3.7Z"/><path class="cls-4" d="M588.82,313.65a15.19,15.19,0,0,0,5.1.59c1.05,0,6,0,7.27,0a4.9,4.9,0,0,0-.59,1.5h-6.67c-3.89,0-6.5-.42-8.13-2.78a7.35,7.35,0,0,1-1.42,3.26,4.92,4.92,0,0,0-1.07-1.21c1.11-1.34,1.38-3.76,1.44-6.08h1.46c0,0.73-.06,1.44-0.13,2.15a5,5,0,0,0,1.23,1.71V308h-3.66v-1.36h8.55V308h-3.36v1.8h3v1.34h-3v2.51Zm2.34-8.29h-6.52v-6.1h6.52v6.1Zm-1.65-4.85h-3.3v1.21h3.3v-1.21Zm0,2.38h-3.3v1.23h3.3v-1.23Zm6.27,8.27a11.83,11.83,0,0,1-3.36,2.8,8.9,8.9,0,0,0-1.17-1.07,9,9,0,0,0,3-2.19Zm-0.61-9.23c0.13-.4.25-0.82,0.36-1.25h-3.47v-1.32h8.71v1.32h-3.59c-0.17.42-.35,0.86-0.52,1.25h3.41v8.52h-7.35v-8.52h2.44Zm3.24,1.27h-4.07v1.19h4.07V303.2Zm0,2.38h-4.07v1.19h4.07v-1.19Zm0,2.4h-4.07v1.21h4.07V308Zm-0.21,2.65a15.15,15.15,0,0,1,2.9,2.44l-1.29.81a15.81,15.81,0,0,0-2.86-2.57Z"/><path class="cls-4" d="M611.26,310c1.48-.56,2.34-1.44,2.44-2.59a1.16,1.16,0,0,1-.27,0,1.5,1.5,0,0,1-1.61-1.53,1.52,1.52,0,0,1,1.63-1.53c1.21,0,1.84.94,1.84,2.4a4.67,4.67,0,0,1-3.53,4.49Z"/><path class="cls-4" d="M167.16,334.19a23.3,23.3,0,0,1-1.59,6.79c1.82,1.71,4.35,2.09,7.38,2.09,0.9,0,4.93,0,6,0a5.81,5.81,0,0,0-.65,1.63h-5.43c-3.39,0-6.08-.44-8.08-2.24a9,9,0,0,1-2.24,2.59,6.33,6.33,0,0,0-1.29-1.19,7.71,7.71,0,0,0,2.38-2.72,13,13,0,0,1-1.69-3.66l1.32-.5a11.17,11.17,0,0,0,1.09,2.59,19.53,19.53,0,0,0,1-4h-3.07c0.81-1.4,1.82-3.47,2.65-5.35h-3.13v-1.55h5.6c-0.77,1.69-1.73,3.7-2.55,5.35h1l0.33-.06Zm4.45-3.72h-3.47v-1.4h3.47v-1.5h1.67v1.5h4.16v2.55h1.19V333h-1.19v2.57h-4.16v1.19h4.45v1.34h-4.45v1.29h5.1v1.44h-5.1v1.63h-1.67v-1.63h-4.49v-1.44h4.49v-1.29h-3.72v-1.34h3.72v-1.19H168v-1.4h3.59V333H167v-1.4h4.62v-1.15Zm1.67,0v1.15h2.57v-1.15h-2.57Zm2.57,2.55h-2.57v1.17h2.57V333Z"/><path class="cls-4" d="M199.83,342.53v1.8H182.74v-1.8H192a56.29,56.29,0,0,0,2.67-8.88l2,0.38a81.81,81.81,0,0,1-2.76,8.5h5.89ZM199,332.81H183.56V331H199v1.8Zm-11.24,9.05a63.11,63.11,0,0,0-1.73-7.81l1.8-.44a64.71,64.71,0,0,1,1.82,7.77Zm2.86-10.93a24.13,24.13,0,0,0-.92-3.13l1.76-.44c0.36,1,.81,2.23,1,3Z"/><path class="cls-4" d="M211,340a23.27,23.27,0,0,1-5.75,5.1,12.87,12.87,0,0,0-1.46-1.25,17.45,17.45,0,0,0,5.31-4.58Zm8-11.12v8.8h-13.2v-8.8H219ZM207.64,336h9.46V330.6h-9.46V336Zm7.9,3.22a40.52,40.52,0,0,1,5.33,4.76l-1.67,1.06a37.49,37.49,0,0,0-5.22-4.89Z"/><path class="cls-4" d="M231.62,331.56c-0.33.65-.65,1.3-1,1.92h9.07V343c0,1-.19,1.5-0.88,1.76a9.9,9.9,0,0,1-3.34.29,6.73,6.73,0,0,0-.56-1.73c1.13,0.06,2.28.06,2.61,0s0.42-.1.42-0.38v-1.65H230.2a7,7,0,0,1-2,3.87,6.43,6.43,0,0,0-1.29-1.4c1.61-1.48,1.76-3.57,1.76-5.35v-2.26a14.75,14.75,0,0,1-2.78,2.57,10,10,0,0,0-1.17-1.38,15.57,15.57,0,0,0,4.93-5.85h-4.51v-1.67h5.25a20.68,20.68,0,0,0,.81-2.4l1.82,0.42c-0.21.65-.42,1.32-0.69,2h9.55v1.67H231.62Zm6.31,8.3V338.2h-7.48v0.33c0,0.42,0,.88-0.06,1.34h7.54Zm0-4.81h-7.48v1.65h7.48v-1.65Z"/><path class="cls-4" d="M261.41,330v15h-1.88v-1h-9.71v1H248V330h4.83a20.75,20.75,0,0,0,.63-2.57l2.13,0.25c-0.31.81-.61,1.63-0.94,2.32h6.71Zm-11.58,1.71v2.46h9.71v-2.46h-9.71Zm0,4.1v2.46h9.71v-2.46h-9.71Zm9.71,6.58V340h-9.71v2.47h9.71Z"/><path class="cls-4" d="M280.12,342.94c2,0,2.26-.5,2.47-3.36a7.65,7.65,0,0,0,1.82.71c-0.36,3.49-1.05,4.43-4.3,4.43h-6.75c-3.26,0-4.32-.58-4.32-3v-7h11.12v-4.33H268.8v-1.82h13.25v9.05h-1.88v-1.15H270.9v5.22c0,1,.38,1.21,2.44,1.21h6.79Z"/><path class="cls-4" d="M305.14,333.14H300.4v9.42c0,1.19-.31,1.71-1,2a11.6,11.6,0,0,1-3.84.35,8,8,0,0,0-.61-1.88c1.27,0.06,2.61,0,3,0a0.44,0.44,0,0,0,.54-0.5v-8.86a28,28,0,0,1-9.11,9.24,7.26,7.26,0,0,0-1.4-1.61,23.82,23.82,0,0,0,8.69-8.19h-8.08v-1.82h9.9V327.5h2v3.82h4.74v1.82Z"/><path class="cls-4" d="M315.85,334.8c-0.21.38-.4,0.75-0.63,1.11h9.24v9.25h-1.78v-0.73H315v0.73H313.3v-6.73a14.18,14.18,0,0,1-3.22,2.57,7.06,7.06,0,0,0-1.09-1.4,13.31,13.31,0,0,0,4.83-4.79H309.5v-1.42h5.08c0.19-.36.37-0.77,0.54-1.15h-4.26v-1.4h4.74c0.13-.36.23-0.73,0.33-1.09-1.69.06-3.37,0.1-5,.1a4.17,4.17,0,0,0-.34-1.36,91.55,91.55,0,0,0,13.41-.86l1.07,1.29a66.33,66.33,0,0,1-7.19.75c-0.12.4-.25,0.79-0.38,1.19h7.71v1.4H317c-0.15.38-.33,0.79-0.5,1.15h9.76v1.42H315.85Zm6.83,2.49H315v1.09h7.67V337.3ZM315,340.67h7.67v-1.09H315v1.09Zm7.67,2.36v-1.17H315V343h7.67Z"/><path class="cls-4" d="M336.11,332.35a21.64,21.64,0,0,1-1.61,2.38v10.36h-1.73V336.7a19.79,19.79,0,0,1-2,1.86,13.2,13.2,0,0,0-.9-1.8,17.62,17.62,0,0,0,4.68-5Zm-0.27-4.12a19.28,19.28,0,0,1-4.8,4.62,10,10,0,0,0-.92-1.48,14.1,14.1,0,0,0,4-3.82ZM347.61,340h-2.74v3.24a1.37,1.37,0,0,1-.81,1.57,8.24,8.24,0,0,1-2.92.29,7.33,7.33,0,0,0-.58-1.61c1,0,1.88,0,2.15,0s0.36-.08.36-0.31V340H335.7v-1.53h7.38v-1.4h-6.92v-1.48h11.09v1.48h-2.38v1.4h2.74V340Zm-9.17.12a16.78,16.78,0,0,1,2.36,2.59l-1.34,1a16.93,16.93,0,0,0-2.28-2.7Zm8-5.62h-9.25v-6.43h9.25v6.43Zm-1.8-5.12H339v1.28h5.72v-1.28Zm0,2.51H339v1.29h5.72v-1.29Z"/><path class="cls-4" d="M366.36,343.24c0.75,0,.86-0.31.94-2.63a5,5,0,0,0,1.67.73c-0.21,2.88-.71,3.59-2.44,3.59h-2.84c-2,0-2.51-.54-2.51-2.34v-3.47h-2.76c-0.44,3-1.63,5-6.12,6a5.53,5.53,0,0,0-1-1.57c3.93-.77,4.87-2.17,5.24-4.45H354v-11h12.2v11H363v3.47c0,0.58.13,0.65,0.9,0.65h2.46Zm-10.59-11.91h8.67v-1.61h-8.67v1.61Zm0,3.09h8.67v-1.63h-8.67v1.63Zm0,3.13h8.67V335.9h-8.67v1.65Z"/><path class="cls-4" d="M389.46,330.47s0,0.61,0,.84c-0.27,8.65-.5,11.62-1.27,12.58a2.14,2.14,0,0,1-1.67.9,20.6,20.6,0,0,1-2.9,0,4.17,4.17,0,0,0-.58-1.73c1.23,0.1,2.34.12,2.82,0.12a0.86,0.86,0,0,0,.81-0.33c0.61-.63.86-3.53,1.11-10.76h-4.53a19.33,19.33,0,0,1-1.75,3.22,9.43,9.43,0,0,0-1.4-1v8.8h-5.2v1.46h-1.63v-14h2.15a22.49,22.49,0,0,0,.67-3.11l1.94,0.33c-0.33,1-.69,2-1,2.78h3.07v3.63a18.33,18.33,0,0,0,2.86-6.73l1.73,0.4c-0.23.88-.48,1.76-0.79,2.61h5.56Zm-14.56,1.65v3.64h3.57v-3.64H374.9Zm3.57,9.44v-4.24H374.9v4.24h3.57Zm6.39-1.5a31.26,31.26,0,0,0-2.8-4.43l1.4-.79a34.42,34.42,0,0,1,2.9,4.28Z"/><path class="cls-4" d="M409.43,343.47c0.29,0,.35-0.25.38-2.51a4.28,4.28,0,0,0,1.3.61c-0.11,2.7-.48,3.34-1.51,3.34h-1c-1.21,0-1.46-.44-1.46-1.92v-4.09h-1c-0.27,2.72-1,4.91-3.36,6.23a5,5,0,0,0-.63-0.94h-5.79v0.9H395v-6.2a10.79,10.79,0,0,1-.86,1.09,14.38,14.38,0,0,0-.77-1.23,12,12,0,0,0,2.47-4H394.2v-3.49h3.57v3.49h-1.84l1.11,0.36c-0.13.36-.29,0.71-0.46,1.07h2c-0.15-.33-0.33-0.65-0.5-0.94l1.11-.46a7.18,7.18,0,0,1,.75,1.4h2.44v1.25h-2.55v1H402v1.19h-2.19v1h2.3v1.17h-2.3v1.13h2.49v0.56c1.61-1.06,2.09-2.65,2.28-4.58h-1.5V328.19h7.14v10.72h-1.69V343c0,0.44,0,.5.29,0.5h0.58Zm-13.35-13.56h-2.61v-1.32h2.61V327.5h1.4V331h-1.4v-1.06Zm-0.84,3.91h1.44v-1.53h-1.44v1.53Zm3.2,3.66h-2.07v1h2.07v-1Zm0,2.15h-2.07v1h2.07v-1Zm-2.07,3.3h2.07v-1.13h-2.07v1.13Zm5.89-8.13h-3.59v-3.49h3.59v3.49ZM400.42,331H399V327.5h1.42v1.09h2.36v1.3h-2.36V331Zm0.75,1.32h-1.46v1.5h1.46v-1.5Zm3.45-1h4.07v-1.52h-4.07v1.52Zm0,3h4.07v-1.57h-4.07v1.57Zm0,3h4.07v-1.57h-4.07v1.57Z"/><path class="cls-4" d="M414.46,344.47a6.55,6.55,0,0,0,1.29-3.41l1.23,0.33a7.15,7.15,0,0,1-1.34,3.72Zm0.35-5.58,3.51-.13v-1.25h-3.07v-1.38h3.07V335h-3v-6.91H423V335h-3.13v1.09h3.18v1.38h-3.18v1.17l3.51-.17-0.06,1.42c-3,.21-6.23.36-8.48,0.5Zm1.86-5.1h1.86v-4.41h-1.86v4.41Zm1-3.74a12,12,0,0,1,.61,2.8l-0.86.27a11.94,11.94,0,0,0-.56-2.86Zm0.86,11a14,14,0,0,1,.48,3.3l-1.19.15a18.18,18.18,0,0,0-.4-3.34Zm1.82-.17a14.28,14.28,0,0,1,.94,3.07l-1.15.27a13.88,13.88,0,0,0-.88-3.13Zm1.32-11.45h-2v4.41h2v-4.41Zm-1.8,3.55a21.39,21.39,0,0,0,.79-2.93l1,0.36c-0.36,1-.73,2.13-1.05,2.84Zm2.3,7.48a11.53,11.53,0,0,1,1.59,2.9l-1.17.5a12.72,12.72,0,0,0-1.5-3Zm6.2-7.19v3.28h3.18V345h-1.69v-0.75h-4.26v0.82h-1.63v-8.59h2.67v-9h1.73v4h3.91v1.65h-3.91Zm1.5,4.91h-4.26v4.51h4.26v-4.51Z"/><path class="cls-4" d="M441.55,342.3a1.49,1.49,0,0,1,1.46-1.57,1.5,1.5,0,0,1,1.5,1.57,1.47,1.47,0,0,1-1.5,1.53A1.45,1.45,0,0,1,441.55,342.3ZM442,331.41l-0.06-2.26h2.22l-0.08,2.26-0.31,7.67h-1.48Z"/><path class="cls-7" d="M574.29,405.76a28.77,28.77,0,0,1-6.6,5.2v7.88c0,1.09-.29,1.63-1.11,1.88a13.58,13.58,0,0,1-4,.31,6,6,0,0,0-.71-1.8c1.5,0.06,3,.06,3.43,0s0.56-.12.56-0.46v-8.75a23.27,23.27,0,0,0,4.89-3.47H559v-1.76h13.46l0.4-.1Z"/><path class="cls-7" d="M591.8,405.84a6.05,6.05,0,0,1-3.62,5.06,4.9,4.9,0,0,0-.84-1.11v9.38a1.5,1.5,0,0,1-.67,1.53,6.61,6.61,0,0,1-2.55.27,5.67,5.67,0,0,0-.56-1.5c0.92,0,1.73,0,2,0a0.3,0.3,0,0,0,.34-0.35V416H581.6a11.32,11.32,0,0,1-1.48,5,7,7,0,0,0-1.27-.79c1.29-2,1.42-4.83,1.42-7v-3l-0.17.21a12,12,0,0,0-1.3-1.06,13.86,13.86,0,0,0,2.9-6l1.63,0.36c-0.13.46-.27,0.92-0.42,1.38h2l0.25-.08,1,0.65a24.6,24.6,0,0,1-1.15,2.53h2.28v1.38a4.65,4.65,0,0,0,2.82-3.78h-2.38v-1.48h8.34s0,0.42,0,.61c-0.13,3.11-.31,4.39-0.71,4.85a1.44,1.44,0,0,1-1.09.54,12.31,12.31,0,0,1-1.94,0,4.33,4.33,0,0,0-.4-1.48,13.68,13.68,0,0,0,1.55.08,0.52,0.52,0,0,0,.52-0.17c0.21-.23.35-1,0.44-3H591.8Zm-9.44.67c-0.25.59-.52,1.19-0.81,1.73h2a16.21,16.21,0,0,0,.71-1.73h-1.86Zm-0.65,6.77c0,0.44,0,.9,0,1.38h1.48v-1.94h-1.46v0.56Zm0-1.88h1.46v-1.82h-1.46v1.82Zm2.7,0h1.44v-1.82h-1.44v1.82Zm1.44,3.26v-1.94h-1.44v1.94h1.44Zm10.78,2.88h-3.49v3.38h-1.69v-3.38h-3.8V416h3.8v-2.07h-1.88a9.44,9.44,0,0,1-.9,1.71,8.13,8.13,0,0,0-1.34-.71,10.88,10.88,0,0,0,1.65-4.22l1.48,0.31q-0.14.69-.35,1.38h1.34v-1.84h1.69v1.84h3.13v1.53h-3.13V416h3.49v1.55Z"/><path class="cls-7" d="M609.7,414.91a5.93,5.93,0,0,1-1.59,3c2.46,1,5.68,1.17,9.74,1.21a4.43,4.43,0,0,0-.75,1.76c-4.3-.15-7.79-0.48-10.47-1.8A16.54,16.54,0,0,1,601.3,421a7.8,7.8,0,0,0-1.09-1.57,18,18,0,0,0,4.76-1.4,9.26,9.26,0,0,1-2.23-2.47l1.55-.61a7.77,7.77,0,0,0,2.15,2.11,4.51,4.51,0,0,0,1.36-2.17h-5.52v-7.56h5.81V406h-7.5v-1.61h16.59V406H610v1.38h6v7.56H609.7ZM604,410.44h4.12v-1.63H604v1.63Zm4.09,3a7.6,7.6,0,0,0,0-.94v-0.69H604v1.63h4.09Zm6.16-1.63H610v0.71a7.28,7.28,0,0,1,0,.92h4.3v-1.63Zm-4.26-3v1.63h4.26v-1.63H610Z"/><path class="cls-7" d="M638.5,412.49c-2.67,5.7-9.05,7.83-16,8.57a6,6,0,0,0-.71-1.73,30.74,30.74,0,0,0,8.65-1.84,24.28,24.28,0,0,0-2.4-2.13q-1.27.66-2.76,1.27a5.18,5.18,0,0,0-1.11-1.38,16.77,16.77,0,0,0,8-5.2l2,0.44a16.1,16.1,0,0,1-1.21,1.36H637l0.31-.08Zm-2.69-6.85c-2.44,4.32-7.94,6.77-13.1,7.81a7.32,7.32,0,0,0-.84-1.57,26.74,26.74,0,0,0,6.06-1.76,15.8,15.8,0,0,0-2.28-2c-0.63.35-1.3,0.71-2,1a5.51,5.51,0,0,0-1.21-1.28,16.32,16.32,0,0,0,6.58-4.51l1.94,0.44a11.88,11.88,0,0,1-1.19,1.23h4.58l0.31-.1Zm-7.9,1a9.54,9.54,0,0,1-.9.63,20.94,20.94,0,0,1,2.51,2.07,13.05,13.05,0,0,0,3.53-2.7h-5.14Zm3.11,6.85c-0.46.36-1,.71-1.5,1.06a23.51,23.51,0,0,1,2.57,2.19,10.8,10.8,0,0,0,3.74-3.24H631Z"/><path class="cls-7" d="M650.07,421.28v-18l15.61,9Z"/></svg>