<svg id="圖層_1" data-name="圖層 1" xmlns="http://www.w3.org/2000/svg" viewBox="0 0 726.15 473.98"><defs><style>.cls-1,.cls-2,.cls-3,.cls-5{fill:#00364b;}.cls-1,.cls-2,.cls-3{stroke:#ffcd32;stroke-miterlimit:10;}.cls-1{stroke-width:11.21px;}.cls-2{stroke-width:11.98px;}.cls-3{stroke-width:12.79px;}.cls-4{fill:#ffcd32;}.cls-6{fill:#6bffba;}</style></defs><title>window</title><rect class="cls-1" x="16.82" y="62.58" width="562.23" height="366.77"/><rect class="cls-2" x="38.22" y="50.09" width="600.51" height="391.74"/><rect class="cls-3" x="60.37" y="36.89" width="641" height="418.15"/><rect class="cls-4" x="267.81" y="125.38" width="162.26" height="30.19"/><path class="cls-4" d="M559,175.5a4.27,4.27,0,0,1-4.17-5.21l0.39-1.74a4.27,4.27,0,0,1,8.33,1.87l-0.39,1.74A4.27,4.27,0,0,1,559,175.5Z"/><path class="cls-4" d="M561.09,170.58a8.56,8.56,0,1,1,6-2.51A8.61,8.61,0,0,1,561.09,170.58Z"/><path class="cls-4" d="M501.27,145.32c1.65-2.13,3.86-1.84,4.92.63l4.43,10.3c1.06,2.47-.27,4.49-3,4.49H494.22c-2.69,0-3.54-1.74-1.9-3.87Z"/><path class="cls-4" d="M530.72,159.38a3.83,3.83,0,0,0-3.9,3.41c-0.11,1.88-2,3.41-4.25,3.41H492.84a4.36,4.36,0,0,0-4.29,4l-2.84,49.49a4.36,4.36,0,0,1-4.29,4H474a4.19,4.19,0,0,0-4.27,3.7,3.64,3.64,0,0,0,3.84,3.7H488.4a4.36,4.36,0,0,0,4.29-4l0.86-15a4.36,4.36,0,0,1,4.29-4h14.92a3.8,3.8,0,0,1,3.82,4l-0.43,7.55-0.45,7.75a3.64,3.64,0,0,0,3.84,3.7h6a4.19,4.19,0,0,0,4.27-3.7,3.31,3.31,0,0,0-3.12-3.7c-1.83,0-3.23-1.82-3.1-4l0.86-15c0.13-2.23.23-4,.22-4H513.86a3.3,3.3,0,0,1-3.17-3.66,4.17,4.17,0,0,1,4.27-3.66h6a4.36,4.36,0,0,0,4.29-4l0.35-6.12a3.64,3.64,0,0,0-3.47-4,3.83,3.83,0,0,0-3.9,3.41A3.64,3.64,0,0,1,514.7,186c-1.85,0-3.26-1.82-3.13-4l0.25-4.3a4.36,4.36,0,0,1,4.29-4h13.44a4.36,4.36,0,0,0,4.29-4l0.35-6.12A3.64,3.64,0,0,0,530.72,159.38Z"/><path class="cls-4" d="M618.7,145.32c-1.65-2.13-3.86-1.84-4.92.63l-4.43,10.3c-1.06,2.47.27,4.49,3,4.49h13.44c2.69,0,3.54-1.74,1.9-3.87Z"/><path class="cls-4" d="M589.26,159.38a3.83,3.83,0,0,1,3.9,3.41c0.11,1.88,2,3.41,4.25,3.41h29.72a4.36,4.36,0,0,1,4.29,4l2.84,49.49a4.36,4.36,0,0,0,4.29,4H646a4.19,4.19,0,0,1,4.27,3.7,3.64,3.64,0,0,1-3.84,3.7H631.57a4.36,4.36,0,0,1-4.29-4l-0.86-15a4.36,4.36,0,0,0-4.29-4H607.22a3.8,3.8,0,0,0-3.82,4l0.43,7.55,0.45,7.75a3.64,3.64,0,0,1-3.84,3.7h-6a4.19,4.19,0,0,1-4.27-3.7,3.31,3.31,0,0,1,3.12-3.7c1.83,0,3.23-1.82,3.1-4l-0.86-15c-0.13-2.23-.23-4-0.22-4h10.77a3.3,3.3,0,0,0,3.17-3.66,4.17,4.17,0,0,0-4.27-3.66h-6a4.36,4.36,0,0,1-4.29-4l-0.35-6.12a3.64,3.64,0,0,1,3.47-4,3.83,3.83,0,0,1,3.9,3.41,3.64,3.64,0,0,0,3.56,3.41c1.85,0,3.26-1.82,3.13-4l-0.25-4.3a4.36,4.36,0,0,0-4.29-4H590.43a4.36,4.36,0,0,1-4.29-4l-0.35-6.12A3.64,3.64,0,0,1,589.26,159.38Z"/><path class="cls-4" d="M548.69,142.2a2.86,2.86,0,0,1-2.56-1.58l-2.86-5.73a2.86,2.86,0,1,1,5.12-2.56l2.86,5.73A2.86,2.86,0,0,1,548.69,142.2Z"/><path class="cls-4" d="M564.07,190.38a2.86,2.86,0,0,1-2.83-2.44l-0.52-3.53a2.86,2.86,0,0,1,5.66-.84l0.52,3.53a2.86,2.86,0,0,1-2.41,3.25A2.83,2.83,0,0,1,564.07,190.38Z"/><path class="cls-4" d="M575.58,148.08a2.86,2.86,0,0,1-2.42-4.39l2.65-4.21a2.86,2.86,0,0,1,4.84,3.05L578,146.75A2.86,2.86,0,0,1,575.58,148.08Z"/><path class="cls-4" d="M543.61,164.21a2.86,2.86,0,0,1-2-4.88,2.94,2.94,0,0,1,4,0A2.86,2.86,0,0,1,543.61,164.21Z"/><path class="cls-4" d="M564.27,137.17l-0.38,0a3.22,3.22,0,0,1-2.83-3.57l1.6-13.78a3.22,3.22,0,1,1,6.4.74l-1.6,13.78A3.22,3.22,0,0,1,564.27,137.17Z"/><path class="cls-4" d="M580.41,202.7a3.22,3.22,0,0,1-3-2.07l-3.4-8.87a3.22,3.22,0,0,1,6-2.31l3.4,8.87A3.22,3.22,0,0,1,580.41,202.7Z"/><path class="cls-4" d="M542,214.58a3.22,3.22,0,0,1-3-4.36l6.08-16.08a3.22,3.22,0,1,1,6,2.28L545,212.5A3.22,3.22,0,0,1,542,214.58Z"/><path class="cls-4" d="M567.29,159.37a2.86,2.86,0,0,1-2.31-4.55l1-1.44a2.86,2.86,0,0,1,4.63,3.37l-1,1.44A2.86,2.86,0,0,1,567.29,159.37Z"/><path class="cls-4" d="M574.37,173.52a2.87,2.87,0,0,1-2-.84,2.88,2.88,0,0,1,0-4.06,3,3,0,0,1,4,0,2.88,2.88,0,0,1,0,4.06A2.87,2.87,0,0,1,574.37,173.52Z"/><path class="cls-5" d="M280.44,137.76l0.48-2.28a15.71,15.71,0,0,0,2.27-.21,4,4,0,0,0,1.83-.89,3.74,3.74,0,0,0,.92-1.22,3.14,3.14,0,0,0,.28-0.68H289l-3.62,17H282l2.49-11.74h-4Z"/><path class="cls-5" d="M303.93,141.15a15.85,15.85,0,0,1-2.7,6.49,6,6,0,0,1-5,2.28q-3.25,0-4.08-2.28t0.08-6.49a15.81,15.81,0,0,1,2.69-6.51,6.05,6.05,0,0,1,5.05-2.29q3.25,0,4.07,2.29T303.93,141.15Zm-7.16,6a2.48,2.48,0,0,0,2.28-1.56,19.25,19.25,0,0,0,1.43-4.49,16.62,16.62,0,0,0,.5-4.56,1.47,1.47,0,0,0-1.64-1.48A2.5,2.5,0,0,0,297,136.6a17.86,17.86,0,0,0-1.44,4.56,15.74,15.74,0,0,0-.48,4.49A1.51,1.51,0,0,0,296.76,147.2Z"/><path class="cls-5" d="M305.28,146h3.56l-0.74,3.5h-3.56Z"/><path class="cls-5" d="M312,146.16a13,13,0,0,1,4.15-3.6,33.76,33.76,0,0,0,3.5-2.37,4.5,4.5,0,0,0,1.56-2.44,2.36,2.36,0,0,0-.21-1.8,1.69,1.69,0,0,0-1.56-.72,2.66,2.66,0,0,0-2.33,1.14,6.54,6.54,0,0,0-.81,2.09H313a9.91,9.91,0,0,1,1.53-3.51,6.19,6.19,0,0,1,5.3-2.55,5,5,0,0,1,4,1.5,4.38,4.38,0,0,1,.75,4,6.74,6.74,0,0,1-1.83,3.36,15.45,15.45,0,0,1-2.9,2.17l-1.54,1q-1.44.89-2,1.29a5,5,0,0,0-1,.93h7.43l-0.62,2.95H310.47A9.69,9.69,0,0,1,312,146.16Z"/><path class="cls-5" d="M334.61,136.76a1.41,1.41,0,0,0-.13-0.9,1.44,1.44,0,0,0-1.46-.8,3.14,3.14,0,0,0-2.71,1.83,13.64,13.64,0,0,0-1.15,3,5,5,0,0,1,1.67-1.08,5.47,5.47,0,0,1,2-.34,3.92,3.92,0,0,1,3.39,1.54,4.73,4.73,0,0,1,.6,3.93,8.32,8.32,0,0,1-2.31,4.2,6.47,6.47,0,0,1-4.8,1.82,4,4,0,0,1-4.17-2.69,10.2,10.2,0,0,1,0-5.43,28.43,28.43,0,0,1,.85-3.17,12.1,12.1,0,0,1,1.9-3.62,7.9,7.9,0,0,1,2.33-2,6,6,0,0,1,3-.75,4.64,4.64,0,0,1,3.52,1.22,3.77,3.77,0,0,1,.89,3.24h-3.34Zm-4.31,10.46a2.6,2.6,0,0,0,1.93-.84,4.32,4.32,0,0,0,1.1-2.18,2.87,2.87,0,0,0-.24-2.28,1.85,1.85,0,0,0-1.62-.79,2.84,2.84,0,0,0-1.62.52,3.73,3.73,0,0,0-1.51,2.47,2.91,2.91,0,0,0,.26,2.24A1.88,1.88,0,0,0,330.3,147.23Z"/><path class="cls-5" d="M345.47,141.21h6.74l-0.68,3.17h-6.74Z"/><path class="cls-5" d="M362,137.76l0.48-2.28a15.71,15.71,0,0,0,2.27-.21,4,4,0,0,0,1.83-.89,3.74,3.74,0,0,0,.92-1.22,3.14,3.14,0,0,0,.28-0.68h2.78l-3.62,17h-3.43L366,137.76h-4Z"/><path class="cls-5" d="M373.46,146.16a13,13,0,0,1,4.15-3.6,33.76,33.76,0,0,0,3.5-2.37,4.5,4.5,0,0,0,1.56-2.44,2.36,2.36,0,0,0-.21-1.8,1.69,1.69,0,0,0-1.56-.72,2.66,2.66,0,0,0-2.33,1.14,6.54,6.54,0,0,0-.81,2.09h-3.25a9.91,9.91,0,0,1,1.53-3.51,6.19,6.19,0,0,1,5.3-2.55,5,5,0,0,1,4,1.5,4.38,4.38,0,0,1,.75,4,6.74,6.74,0,0,1-1.83,3.36,15.45,15.45,0,0,1-2.9,2.17l-1.54,1q-1.44.89-2,1.29a5,5,0,0,0-1,.93h7.43l-0.62,2.95H372A9.69,9.69,0,0,1,373.46,146.16Z"/><path class="cls-5" d="M386.84,146h3.56l-0.74,3.5H386.1Z"/><path class="cls-5" d="M395.44,137.76l0.48-2.28a15.71,15.71,0,0,0,2.27-.21,4,4,0,0,0,1.83-.89,3.74,3.74,0,0,0,.92-1.22,3.14,3.14,0,0,0,.28-0.68H404l-3.62,17H397l2.49-11.74h-4Z"/><path class="cls-5" d="M420.34,135.32A29.65,29.65,0,0,0,417.7,138a30.67,30.67,0,0,0-3.07,3.92,29.17,29.17,0,0,0-2.12,3.88,18.38,18.38,0,0,0-1.37,3.76h-3.48a25.33,25.33,0,0,1,5-9.52,30.48,30.48,0,0,1,4-4.27h-8.49l0.69-3h12Z"/><path class="cls-4" d="M157.84,134.17h-3.79a13.89,13.89,0,0,1,1.51,1.38L154,136.93h1.79v5.54h-6.94v1.29h8s0,0.63-.07.94c-0.22,2.91-.48,4.33-1.05,4.9a2.29,2.29,0,0,1-1.66.77,21.47,21.47,0,0,1-2.78,0,5.24,5.24,0,0,0-.72-2.36,18.18,18.18,0,0,0,2.23.09,1,1,0,0,0,.74-0.2,3.92,3.92,0,0,0,.52-2h-5.23v5.4h-2.56v-4.27a19.76,19.76,0,0,1-6.65,4.18,10,10,0,0,0-1.64-2.06,19.38,19.38,0,0,0,6.35-3.26h-4.71a47.61,47.61,0,0,0,.81-5.6h5.84v-1.25h-6.65v-2.14h4.46a17.51,17.51,0,0,0-2-2l0.83-.72h-1.29A17.14,17.14,0,0,1,139.4,137a16.5,16.5,0,0,0-1.75-1.75,12.52,12.52,0,0,0,3.17-4.59l2.3,0.66a7.84,7.84,0,0,1-.39.88h4.81v2h-3.13a13.71,13.71,0,0,1,1.49,1.44l-1.4,1.29h9.23a16.86,16.86,0,0,0-2.12-1.95l0.94-.81h-1.79A11.5,11.5,0,0,1,149,136.3a12.18,12.18,0,0,0-1.95-1.51,9.87,9.87,0,0,0,2.74-4.11l2.36,0.59c-0.11.31-.24,0.63-0.37,0.94h6v2Zm-11.55,8.29h-3.57c-0.07.44-.11,0.88-0.18,1.29h3.74v-1.29Zm6.91-3.39h-4.35v1.25h4.35v-1.25Z"/><path class="cls-4" d="M171.76,143.92q1.77-2.79,6.8-5.91a55.25,55.25,0,0,0,5.74-3.89,7.39,7.39,0,0,0,2.56-4,3.86,3.86,0,0,0-.35-2.95,2.78,2.78,0,0,0-2.56-1.17,4.37,4.37,0,0,0-3.81,1.87,10.7,10.7,0,0,0-1.33,3.43h-5.33a16.27,16.27,0,0,1,2.5-5.76,10.16,10.16,0,0,1,8.68-4.18q4.43,0,6.53,2.46t1.23,6.5a11,11,0,0,1-3,5.51,25.29,25.29,0,0,1-4.76,3.56l-2.52,1.56q-2.37,1.46-3.27,2.12a8.19,8.19,0,0,0-1.6,1.52h12.19l-1,4.83H169.32A15.93,15.93,0,0,1,171.76,143.92Z"/><path class="cls-4" d="M209.49,132.62c-0.61,1.86-1.4,4-2.06,5.67a6.85,6.85,0,0,1,1.75,4.6c0,1.42-.31,2.34-1,2.87a2.85,2.85,0,0,1-1.27.48,9.23,9.23,0,0,1-1.38,0A5.58,5.58,0,0,0,205,144a6.77,6.77,0,0,0,.92,0,1,1,0,0,0,.61-0.18,1.66,1.66,0,0,0,.37-1.29,5.94,5.94,0,0,0-1.71-4c0.48-1.31,1-3.11,1.36-4.53h-1.66v17.22H202.6V131.72h4.81l0.37-.11Zm5.36,4.92a16.54,16.54,0,0,0,.33,2c-4.25,1-5,1.31-5.51,1.64a7.4,7.4,0,0,0-.77-2.41,1,1,0,0,0,.77-1.14V131h2.56v2.52h2.71v2.17h-2.71v2.45Zm1.9,3.24c-0.28.39-.55,0.81-0.81,1.2H221v9.28h-2.71v-0.63h-5.56v0.72h-2.6V142h3.17a14.93,14.93,0,0,0,.57-1.77Zm1.53,3.22h-5.56v1.33h5.56V144Zm0,4.62v-1.4h-5.56v1.4h5.56Zm1.31-10.09c0.37,0,.46-0.33.53-2.1a6.79,6.79,0,0,0,2.19.92c-0.24,2.6-.88,3.37-2.45,3.37h-1.77c-2.06,0-2.52-.72-2.52-3v-6.85h2.54v2.58h3.57v2.17h-3.57v2.08c0,0.68.07,0.79,0.44,0.79h1Z"/><path class="cls-4" d="M234.81,146.49c-1.6.28-3.26,0.55-4.81,0.81v3.54H227.5V147.7l-1.36.22-0.39-2.45,1.75-.22V133l0.09,0,0,0a32.28,32.28,0,0,0,5.78-2.36l2.06,2a52.23,52.23,0,0,1-5.41,1.9V136h4.42v2.25H230v2.19h4.35v2.25H230v2.25c1.49-.2,3.11-0.44,4.68-0.66Zm10.39-5.38a13.56,13.56,0,0,1-3.09,6.28,12.45,12.45,0,0,0,4.33,1.69,10.18,10.18,0,0,0-1.62,2.23,13.46,13.46,0,0,1-4.64-2.23,15.8,15.8,0,0,1-5.1,2.32,8.56,8.56,0,0,0-1.31-2.23,13.67,13.67,0,0,0,4.59-1.84,15.82,15.82,0,0,1-2.41-4.16l1.33-.33h-2.12v-2.19h0.77a12.37,12.37,0,0,0-1.71-1.55,4.94,4.94,0,0,0,2.36-4.7V131.7H239v0h2.14v0h2.38v5.14c0,0.61,0,.83.33,0.83h1a4.55,4.55,0,0,0,1.09-.13c0,0.61.11,1.44,0.2,2a3.75,3.75,0,0,1-1.27.15h-1.25c-2.06,0-2.47-.85-2.47-2.89v-2.89H239v0.55a7.19,7.19,0,0,1-2.76,6.19h6.91l0.44-.07Zm-7,1.73a10.23,10.23,0,0,0,2,3,9.63,9.63,0,0,0,2-3h-4Z"/><path class="cls-4" d="M147.37,190.76v-2.3a62.11,62.11,0,0,1-6.31,4.25H166v18.52H145.49c-0.12.59-.18,1.24-0.29,1.83h22.18v15.75h-6.14v-1.59H150.32V229h-5.84V216.83a37.69,37.69,0,0,1-3.78,10.32,32.19,32.19,0,0,0-6.14-2.71c4.66-7.49,5.13-18.05,5.13-25v-6l-1.36.71a37.43,37.43,0,0,0-3.66-6.73c6.84-2.89,13.75-7.73,17.52-13.39l6.43,2.54c-0.35.53-.71,1-1.06,1.47,4.37,2.54,9.26,5.43,12,7.37l-3.6,5.9c-1.59-1.3-3.89-2.83-6.43-4.48v3.83H147.37Zm12.21,15.63V204H146.08c0,0.77-.06,1.59-0.12,2.42h13.63Zm-13.39-8.85v2.3h13.39v-2.3H146.19Zm12.92-10.91c-1.89-1.18-3.83-2.42-5.6-3.54-1.24,1.18-2.54,2.42-3.83,3.54h9.44Zm-8.79,31.21V222h10.91v-4.19H150.32Zm27-4.66h-6.61V180.26h6.61v32.92Zm10.79-38.82v46.48c0,3.78-.71,5.66-2.89,6.78S179.76,229,175,229a28.76,28.76,0,0,0-2.06-7c3,0.06,6.08.06,7,.06a1.11,1.11,0,0,0,1.36-1.3V174.36h6.72Z"/><path class="cls-4" d="M213.62,213.88H202.47v5.25H196.1V179.31h17.52v34.57Zm-11.15-28.14v21.71h4.72V185.74h-4.72Zm36.69,36.1c3.13,0,3.72-1.36,4.19-7.43a17.24,17.24,0,0,0,6.31,2.71c-0.89,8.26-3,11.21-9.85,11.21H227.48c-7.67,0-10.09-2.12-10.09-10.62v-40h29.79v32.39H240.4v-3.42H224.3v11.09c0,3.54.47,4.07,4,4.07h10.91Zm-14.87-37.7v16.16H229V184.15H224.3Zm16.1,0h-5.07v16.16h5.07V184.15Z"/><path class="cls-4" d="M273.08,218.9a6.14,6.14,0,0,1,12.27,0c0,3.42-2.65,5.78-6.13,5.78S273.08,222.32,273.08,218.9Zm1-30.09L273.84,180h10.79l-0.29,8.79L282.28,209H276.2Z"/><path class="cls-4" d="M311.59,202.73h22.48V229h-7v-2.65h-8.79v2.95h-6.67V202.73Zm6.67,6.73V219.6h8.79V209.46h-8.79Zm36-11.62H319.74V176.48H354.3v21.35Zm-7.14-14.63H326.52v8h20.65v-8Zm15.1,19.53V229h-7.08v-2.71h-9.38v2.95h-6.72V202.73h23.18Zm-7.08,16.87V209.46h-9.38V219.6h9.38Z"/><path class="cls-4" d="M382.44,174.24h5.78v21.35h-10v2c0,1.47,0,3.07-.06,4.66H388v27.08h-6.43V208.22H377.9c-0.47,7.26-1.59,15-3.89,21a53.66,53.66,0,0,0-6.13-1.95c3.48-8.55,4-21.41,4-29.61V175.71h6.31v14h4.25V174.24ZM423.26,218h-8.85v11.21h-6.25V218H389.4v-6.19h5.54a20.87,20.87,0,0,0-2.42-1.89,24,24,0,0,0,5.9-5.43h-7.31V180.2h8.2a42.79,42.79,0,0,0,2.36-6l7.79,1.06c-0.94,1.77-1.89,3.42-2.77,4.9h14.16v24.3h-15.4a27.86,27.86,0,0,1-5.6,7.32h8.32v-6.08h6.25v6.08h8.91ZM397.54,189.7h5.25v-4h-5.25v4Zm4,9.26a21.33,21.33,0,0,0,1.12-4.07h-5.07V199h4Zm12.62-4.07h-5.37a28.91,28.91,0,0,1-1,4.07h6.37v-4.07Zm0-9.14H409v4h5.13v-4Z"/><path class="cls-4" d="M130.71,279.28h16.66v6.37h-9.65v24.74h-7V279.28Z"/><path class="cls-4" d="M643.71,362.19H627.05v-6.37h9.65V331.08h7v31.11Z"/><path class="cls-6" d="M574.29,405.76a28.77,28.77,0,0,1-6.6,5.2v7.88c0,1.09-.29,1.63-1.11,1.88a13.58,13.58,0,0,1-4,.31,6,6,0,0,0-.71-1.8c1.5,0.06,3,.06,3.43,0s0.56-.12.56-0.46v-8.75a23.27,23.27,0,0,0,4.89-3.47H559v-1.76h13.46l0.4-.1Z"/><path class="cls-6" d="M591.8,405.84a6.05,6.05,0,0,1-3.62,5.06,4.9,4.9,0,0,0-.84-1.11v9.38a1.5,1.5,0,0,1-.67,1.53,6.61,6.61,0,0,1-2.55.27,5.67,5.67,0,0,0-.56-1.5c0.92,0,1.73,0,2,0a0.3,0.3,0,0,0,.34-0.35V416H581.6a11.32,11.32,0,0,1-1.48,5,7,7,0,0,0-1.27-.79c1.29-2,1.42-4.83,1.42-7v-3l-0.17.21a12,12,0,0,0-1.3-1.06,13.86,13.86,0,0,0,2.9-6l1.63,0.36c-0.13.46-.27,0.92-0.42,1.38h2l0.25-.08,1,0.65a24.6,24.6,0,0,1-1.15,2.53h2.28v1.38a4.65,4.65,0,0,0,2.82-3.78h-2.38v-1.48h8.34s0,0.42,0,.61c-0.13,3.11-.31,4.39-0.71,4.85a1.44,1.44,0,0,1-1.09.54,12.31,12.31,0,0,1-1.94,0,4.33,4.33,0,0,0-.4-1.48,13.68,13.68,0,0,0,1.55.08,0.52,0.52,0,0,0,.52-0.17c0.21-.23.35-1,0.44-3H591.8Zm-9.44.67c-0.25.59-.52,1.19-0.81,1.73h2a16.21,16.21,0,0,0,.71-1.73h-1.86Zm-0.65,6.77c0,0.44,0,.9,0,1.38h1.48v-1.94h-1.46v0.56Zm0-1.88h1.46v-1.82h-1.46v1.82Zm2.7,0h1.44v-1.82h-1.44v1.82Zm1.44,3.26v-1.94h-1.44v1.94h1.44Zm10.78,2.88h-3.49v3.38h-1.69v-3.38h-3.8V416h3.8v-2.07h-1.88a9.44,9.44,0,0,1-.9,1.71,8.13,8.13,0,0,0-1.34-.71,10.88,10.88,0,0,0,1.65-4.22l1.48,0.31q-0.14.69-.35,1.38h1.34v-1.84h1.69v1.84h3.13v1.53h-3.13V416h3.49v1.55Z"/><path class="cls-6" d="M609.7,414.91a5.93,5.93,0,0,1-1.59,3c2.46,1,5.68,1.17,9.74,1.21a4.43,4.43,0,0,0-.75,1.76c-4.3-.15-7.79-0.48-10.47-1.8A16.54,16.54,0,0,1,601.3,421a7.8,7.8,0,0,0-1.09-1.57,18,18,0,0,0,4.76-1.4,9.26,9.26,0,0,1-2.23-2.47l1.55-.61a7.77,7.77,0,0,0,2.15,2.11,4.51,4.51,0,0,0,1.36-2.17h-5.52v-7.56h5.81V406h-7.5v-1.61h16.59V406H610v1.38h6v7.56H609.7ZM604,410.44h4.12v-1.63H604v1.63Zm4.09,3a7.6,7.6,0,0,0,0-.94v-0.69H604v1.63h4.09Zm6.16-1.63H610v0.71a7.28,7.28,0,0,1,0,.92h4.3v-1.63Zm-4.26-3v1.63h4.26v-1.63H610Z"/><path class="cls-6" d="M638.5,412.49c-2.67,5.7-9.05,7.83-16,8.57a6,6,0,0,0-.71-1.73,30.74,30.74,0,0,0,8.65-1.84,24.28,24.28,0,0,0-2.4-2.13q-1.27.66-2.76,1.27a5.18,5.18,0,0,0-1.11-1.38,16.77,16.77,0,0,0,8-5.2l2,0.44a16.1,16.1,0,0,1-1.21,1.36H637l0.31-.08Zm-2.69-6.85c-2.44,4.32-7.94,6.77-13.1,7.81a7.32,7.32,0,0,0-.84-1.57,26.74,26.74,0,0,0,6.06-1.76,15.8,15.8,0,0,0-2.28-2c-0.63.35-1.3,0.71-2,1a5.51,5.51,0,0,0-1.21-1.28,16.32,16.32,0,0,0,6.58-4.51l1.94,0.44a11.88,11.88,0,0,1-1.19,1.23h4.58l0.31-.1Zm-7.9,1a9.54,9.54,0,0,1-.9.63,20.94,20.94,0,0,1,2.51,2.07,13.05,13.05,0,0,0,3.53-2.7h-5.14Zm3.11,6.85c-0.46.36-1,.71-1.5,1.06a23.51,23.51,0,0,1,2.57,2.19,10.8,10.8,0,0,0,3.74-3.24H631Z"/><path class="cls-6" d="M650.07,421.28v-18l15.61,9Z"/><path class="cls-4" d="M173.64,307.68a15,15,0,0,1-1.76,4.81c0.33,0.19.73,0.5,1.3,0.82,1.34,0.77,3.13.88,5.31,0.88a72.52,72.52,0,0,0,7.73-.44,5.66,5.66,0,0,0-.54,1.88c-1.48.1-5,.21-7.27,0.21-2.47,0-4.12-.19-5.54-1a7.38,7.38,0,0,0-1.88-1c-0.42,0-1.09,1.21-1.65,2.32l-1.19-1.69a8.74,8.74,0,0,1,1.71-1.75l0,0a11.11,11.11,0,0,0,1.86-3.85H169c0.52-1.13,1.15-2.7,1.73-4.18H168.5V303H173c-0.5,1.38-1.11,2.93-1.67,4.28h1l0.27-.06Zm-2.76-5.45c-0.33-.82-1-2.19-1.48-3.2l1.53-.56c0.5,1,1.17,2.28,1.53,3.09Zm4.22,4.68c-0.34.15-.65,0.31-1,0.44a5.25,5.25,0,0,0-1.05-1.29,13.34,13.34,0,0,0,4.79-2.74h-4.2V302h5.18v-1.23c-1.44.1-2.92,0.15-4.26,0.19a6.31,6.31,0,0,0-.4-1.25,66.69,66.69,0,0,0,9.65-.9l1.11,1.19a39.21,39.21,0,0,1-4.39.61V302h5.24v1.36h-4.33a11.64,11.64,0,0,0,4.72,2.57,7.08,7.08,0,0,0-1.07,1.32,12.84,12.84,0,0,1-4.55-3v2.21h-1.71v-2.15a13.85,13.85,0,0,1-3.47,2.55h7.14c-0.12.54-.23,1.09-0.36,1.63h3.15s0,0.42-.08.63c-0.19,2.17-.4,3.16-0.84,3.57a1.79,1.79,0,0,1-1.27.48,18.7,18.7,0,0,1-2.3,0,3.25,3.25,0,0,0-.44-1.36c0.86,0.08,1.71.1,2,.1a0.87,0.87,0,0,0,.63-0.15,3.69,3.69,0,0,0,.5-1.94h-3.26c0.15-.46.31-1,0.44-1.57H178.8a5.69,5.69,0,0,1-4.33,5.22,4.18,4.18,0,0,0-.94-1.32,4.41,4.41,0,0,0,3.63-3.89H175.1v-1.23Z"/><path class="cls-4" d="M194.46,307.53a23,23,0,0,1-1.57,4.95c0.36,0.19.79,0.52,1.4,0.9,1.32,0.81,3.07.92,5.33,0.92a70.91,70.91,0,0,0,7.69-.44,7.42,7.42,0,0,0-.54,1.84c-1.48.1-5,.21-7.23,0.21-2.51,0-4.16-.21-5.56-1a7.6,7.6,0,0,0-1.88-1.11c-0.42,0-1.09,1.25-1.61,2.42l-1.21-1.65a9.18,9.18,0,0,1,1.94-2,18,18,0,0,0,1.27-3.72H190c0.46-1.13,1-2.69,1.51-4.18h-1.94V303h4.14c-0.42,1.36-1,2.93-1.44,4.26h1.07l0.27-.08Zm-2.86-5.29c-0.23-.84-0.69-2.21-1-3.22l1.55-.46c0.36,1,.81,2.26,1.05,3.11Zm5.18,11h-1.55V305h1.48v-5.85h8V305h1.44v6.64a1.29,1.29,0,0,1-.63,1.4,6.41,6.41,0,0,1-2.38.25,6.38,6.38,0,0,0-.42-1.42,14.41,14.41,0,0,0,1.53,0,0.23,0.23,0,0,0,.29-0.25v-5.24h-7.73v6.89Zm6.31-1.75h-3.62v0.67h-1.32V307.4h4.95v4.1ZM198.26,305h1.48v-3.11h3.34v-1.38h-4.81V305Zm3.51,3.64h-2.3v1.71h2.3v-1.71Zm1.3-5.56h-2V305h2V303Z"/><path class="cls-4" d="M213.84,301.18a13.11,13.11,0,0,1-2,2.46,11.77,11.77,0,0,0-1.21-1.17,11.24,11.24,0,0,0,2.8-4.12l1.59,0.46a7.34,7.34,0,0,1-.44,1h4.58v1.4H216a12.73,12.73,0,0,1,1.53,1.52l-1.15,1a18.61,18.61,0,0,0-1.84-1.94l0.71-.59h-1.4Zm13.29,8.59s0,0.44-.06.69c-0.23,2.59-.46,3.76-1,4.26a1.79,1.79,0,0,1-1.32.56,19.45,19.45,0,0,1-2.4,0,3.93,3.93,0,0,0-.5-1.63,15.3,15.3,0,0,0,2.07.1,1,1,0,0,0,.67-0.15,4.91,4.91,0,0,0,.58-2.3h-5.1v4.79h-1.76V312a17.3,17.3,0,0,1-6.14,4,7.2,7.2,0,0,0-1.15-1.4,16,16,0,0,0,5.91-3.38h-4.62a45.26,45.26,0,0,0,.69-4.49h5.31v-1.5h-6v-1.48h14v4.45h-6.25v1.5h7Zm-12.58-1.5c-0.06.52-.13,1-0.21,1.5h4v-1.5h-3.8Zm13.52-8.5v1.4h-3.78a12.07,12.07,0,0,1,1.67,1.48l-1.21,1a14.27,14.27,0,0,0-2-1.84l0.84-.67h-1.92a9.93,9.93,0,0,1-1.46,1.78,9.64,9.64,0,0,0-1.34-1.06,8.39,8.39,0,0,0,2.4-3.55l1.63,0.38c-0.13.36-.27,0.69-0.42,1h5.54Zm-8,7h4.51v-1.5h-4.51v1.5Z"/><path class="cls-4" d="M248.94,312.33v2H232.07v-2h16.88Zm-1.59-11.16v1.94h-13.7v-1.94h13.7Z"/><path class="cls-4" d="M258.08,299.05a29.12,29.12,0,0,1-1.52,3.68v13.39h-1.71V305.77a18.86,18.86,0,0,1-1.59,2.11,12.63,12.63,0,0,0-.88-1.88,21.49,21.49,0,0,0,4-7.42Zm11.7,0.52v16.34h-1.69v-1h-7.9v1.13h-1.63V299.57h11.22Zm-1.69,13.81V301.13h-7.9v12.26h7.9ZM264.87,305V307h2v5.1h-5.37V307h1.92V305h-2.57v-1.32h2.57v-2.07h1.42v2.07h2.67V305h-2.67Zm0.65,3.2h-2.67v2.53h2.67v-2.53Z"/><path class="cls-4" d="M280.6,303.22a25.77,25.77,0,0,1-2.09,2.93v10h-1.78v-8a25.46,25.46,0,0,1-1.9,1.73,9.91,9.91,0,0,0-1.23-1.52,20.36,20.36,0,0,0,5.31-5.75Zm-0.73-4a25.29,25.29,0,0,1-5.06,4.85,8.14,8.14,0,0,0-1-1.44,17.35,17.35,0,0,0,4.37-4.12Zm11.51,7.37h-2.76v7.38c0,1-.23,1.53-1,1.82A12,12,0,0,1,284,316a7.15,7.15,0,0,0-.58-1.78c1.23,0,2.51,0,2.86,0s0.48-.1.48-0.36v-7.37h-6.06v-1.71h10.65v1.71Zm-0.54-5.24h-9.3v-1.71h9.3v1.71Z"/><path class="cls-4" d="M312.2,302.87s0,0.61,0,.82c-0.21,7.92-.38,10.65-1,11.47a1.7,1.7,0,0,1-1.36.83,13.42,13.42,0,0,1-2.36,0,4.73,4.73,0,0,0-.5-1.69c0.88,0.08,1.67.08,2,.08a0.73,0.73,0,0,0,.69-0.31c0.42-.54.61-3,0.77-9.57h-2.26c-0.25,5.1-1.11,9.17-4.41,11.7a6,6,0,0,0-1.29-1.32,4.36,4.36,0,0,0,.35-0.27c-2.76.33-5.52,0.61-7.58,0.81L295,313.92c1.11-.08,2.49-0.19,4-0.33v-1.46h-3.49v-1.3H299v-1h-3.43v-5.77H299v-1h-4v-1.32h4v-1.07c-1.17.1-2.34,0.15-3.41,0.19a5.35,5.35,0,0,0-.42-1.29,59.59,59.59,0,0,0,8.23-.94l0.84,1.34c-1,.21-2.28.4-3.61,0.54v1.23h3.88v1.11h2c0-1.3,0-2.67,0-4.1h1.71c0,1.42,0,2.8,0,4.1h4ZM297,306.42h2v-1.17h-2v1.17Zm2,2.26v-1.17h-2v1.17h2Zm1.63,4.76c1.19-.12,2.42-0.23,3.63-0.36,1.57-2.17,2.05-5.06,2.21-8.55h-2v-1.44h-3.8v1h3.57v5.77h-3.57v1h3.61v1.3h-3.61v1.3Zm2.05-7v-1.17h-2.05v1.17h2.05Zm-2.05,1.09v1.17h2.05v-1.17h-2.05Z"/><path class="cls-4" d="M319.11,310.2l-0.12.75h7.19v5h-1.57V315.3h-4.12V316H319v-4.81a12.42,12.42,0,0,1-1.46,4.2,7.12,7.12,0,0,0-1.54-.75c1.5-2.36,1.67-5.62,1.67-7.79v-2.42h8.08v5.77h-6.62Zm4-11c-0.1.17-.21,0.33-0.33,0.5,1.46,0.86,3.15,1.9,4,2.59l-0.92,1.5c-0.92-.75-2.65-1.88-4.12-2.82a17.35,17.35,0,0,1-1.61,1.53h3.66v1.11h-4v-0.84a19.87,19.87,0,0,1-2.93,1.94,9.86,9.86,0,0,0-1-1.67,13.34,13.34,0,0,0,5.5-4.45Zm1,9.72v-1.07H319.3l-0.06,1.07h4.87Zm-4.79-3.2v1h4.79v-1h-4.79Zm1.17,6.5v1.73h4.12v-1.73h-4.12Zm8.8-1.11h-1.67V300.55h1.67V311.1Zm3.57-12.52v15.29c0,1-.23,1.55-0.84,1.82a7.75,7.75,0,0,1-3.15.36,7.45,7.45,0,0,0-.58-1.78c1.09,0,2.09,0,2.4,0a0.36,0.36,0,0,0,.44-0.44V298.57h1.73Z"/><path class="cls-4" d="M342.67,307.47a23.07,23.07,0,0,1-1.86,5.12c0.31,0.21.67,0.48,1.15,0.79,1.32,0.81,3.07.92,5.29,0.92a70.27,70.27,0,0,0,7.67-.44,6.84,6.84,0,0,0-.52,1.84c-1.5.1-5,.21-7.23,0.21-2.49,0-4.12-.21-5.52-1a7.94,7.94,0,0,0-1.86-1.11c-0.42,0-1.09,1.25-1.59,2.42L337,314.53a7.2,7.2,0,0,1,2.28-2.19,17.43,17.43,0,0,0,1.34-3.59H338c0.48-1.11,1.05-2.65,1.57-4.1h-2.3V303h4.47c-0.44,1.32-1,2.86-1.52,4.16h1.36l0.27-.08Zm-3.18-5.14c-0.23-.82-0.71-2.13-1-3.13l1.63-.46c0.35,1,.81,2.22,1.05,3Zm5.45,0a12.28,12.28,0,0,1-1.38,1.86,8.18,8.18,0,0,0-1.5-.86,11.37,11.37,0,0,0,2.74-4.58l1.67,0.38a14,14,0,0,1-.69,1.67h1.84V298.5h1.76v2.28h4.37v1.53h-4.37v2.07h5.2v1.52H342.34v-1.52h5.27v-2.07h-2.69Zm6.48,10.74v-0.58h-5.85v0.63h-1.71v-5.93h9.34v5.87h-1.78Zm0-2.09v-2.36h-5.85V311h5.85Z"/><path class="cls-4" d="M375.76,311.94h-4.43v2.36a1.34,1.34,0,0,1-.86,1.55,11.09,11.09,0,0,1-3.15.23,5.92,5.92,0,0,0-.56-1.53c1.05,0,2.15,0,2.44,0s0.38-.1.38-0.33v-2.3h-6.37a14.88,14.88,0,0,1,2.61,2.09l-1.3,1.15a15.89,15.89,0,0,0-3-2.49l0.86-.75h-3.89V310.5h11.11v-1c-3.84.1-7.56,0.17-10.28,0.21l-0.06-1.34c1.84,0,4.3,0,7,0v-0.9h-5.72v-5.31h5.72v-0.9H359v-1.38h7.19v-1.34H368v1.34H375v1.38H368v0.9h5.91v5.31h-1.78a15.86,15.86,0,0,1,3,1.73l-1.06,1a9.7,9.7,0,0,0-1-.71l-1.67,0v1h4.43v1.44Zm-13.58-7.69h4v-1h-4v1Zm4,2.09v-1h-4v1h4Zm1.75-3v1h4.16v-1H368Zm4.16,2.05H368v1h4.16v-1Zm-4.16,3,3.09,0a10.25,10.25,0,0,0-1.17-.5l0.44-.36H368v0.9Z"/><path class="cls-4" d="M396.23,309.31s0,0.42,0,.61c-0.17,3.64-.36,5-0.79,5.49a1.37,1.37,0,0,1-1.06.54,8.8,8.8,0,0,1-1.63,0,3.12,3.12,0,0,0-.13-0.69l-0.42.19c-0.08-.13-0.19-0.31-0.33-0.5-3,.25-6.16.48-8.42,0.61l-0.13-1.21,4.58-.23v-0.79H384.4v-1.73a7.72,7.72,0,0,1-.94.59,5.31,5.31,0,0,0-1.07-1,16.06,16.06,0,0,1-1.48,4.81,6.33,6.33,0,0,0-1.53-.86c1.59-3,1.73-7.31,1.73-10.32v-5.66h14.79v3.51h-1.27l0.5,0.82a13.82,13.82,0,0,1-3.28.79l-0.38-.79a23.64,23.64,0,0,0,3-.82h-11.6v2.13a40.5,40.5,0,0,1-.44,6.35,9.82,9.82,0,0,0,3.18-2.53h-1.9v-2.59H395.6v2.59h-8.21a8.09,8.09,0,0,1-.48.65h9.32Zm-13.41-8.9v1.09h11.34v-1.09H382.82Zm1,4.6c0.88-.13,2.17-0.36,3.47-0.59a17.24,17.24,0,0,0-3.16-.73l0.31-.84a18.32,18.32,0,0,1,3.32.67l-0.35.88,0.77-.15,0,1-4.08.86Zm1.32,2.82h2v-1h-2v1Zm0.86,2.53a8.21,8.21,0,0,1-.75.65h2.65v-0.65H386Zm1.9,2.21v-0.77h-2.13v0.77h2.13Zm0.63-4.74h2.09v-1H388.5v1Zm0.29-2V303h1.65v2.78h-1.65Zm3.22,7.56a9.54,9.54,0,0,1,1.19,1.38h0.34a0.52,0.52,0,0,0,.48-0.21c0.23-.31.42-1.38,0.56-4.16h-5.2V311h3.47v2.34H392Zm-0.54-1.55h-2.09v0.77h2.09v-0.77ZM391,314l-0.38-.38,0.46-.21h-1.71v0.69Zm0.46-9.55a18.2,18.2,0,0,1,3.68.71l-0.34.94a20.57,20.57,0,0,0-3.61-.82Zm0.5,3.43h2.15v-1H392v1Z"/><path class="cls-4" d="M417.57,301.47s0,0.61,0,.84c-0.27,8.65-.5,11.62-1.27,12.58a2.14,2.14,0,0,1-1.67.9,20.6,20.6,0,0,1-2.9,0,4.17,4.17,0,0,0-.58-1.73c1.23,0.1,2.34.12,2.82,0.12a0.86,0.86,0,0,0,.81-0.33c0.61-.63.86-3.53,1.11-10.76h-4.53a19.33,19.33,0,0,1-1.75,3.22,9.43,9.43,0,0,0-1.4-1v8.8H403v1.46h-1.63v-14h2.15a22.49,22.49,0,0,0,.67-3.11l1.94,0.33c-0.33,1-.69,2-1,2.78h3.07v3.63a18.33,18.33,0,0,0,2.86-6.73l1.73,0.4c-0.23.88-.48,1.76-0.79,2.61h5.56ZM403,303.12v3.64h3.57v-3.64H403Zm3.57,9.44v-4.24H403v4.24h3.57Zm6.39-1.5a31.26,31.26,0,0,0-2.8-4.43l1.4-.79a34.42,34.42,0,0,1,2.9,4.28Z"/><path class="cls-4" d="M428.33,303.22a25.77,25.77,0,0,1-2.09,2.93v10h-1.78v-8a25.46,25.46,0,0,1-1.9,1.73,9.91,9.91,0,0,0-1.23-1.52,20.36,20.36,0,0,0,5.31-5.75Zm-0.73-4a25.29,25.29,0,0,1-5.06,4.85,8.14,8.14,0,0,0-1-1.44,17.35,17.35,0,0,0,4.37-4.12Zm11.51,7.37h-2.76v7.38c0,1-.23,1.53-1,1.82a12,12,0,0,1-3.62.29,7.15,7.15,0,0,0-.58-1.78c1.23,0,2.51,0,2.86,0s0.48-.1.48-0.36v-7.37h-6.06v-1.71h10.65v1.71Zm-0.54-5.24h-9.3v-1.71h9.3v1.71Z"/><path class="cls-4" d="M459.93,302.87s0,0.61,0,.82c-0.21,7.92-.38,10.65-1,11.47a1.7,1.7,0,0,1-1.36.83,13.42,13.42,0,0,1-2.36,0,4.73,4.73,0,0,0-.5-1.69c0.88,0.08,1.67.08,2,.08a0.73,0.73,0,0,0,.69-0.31c0.42-.54.61-3,0.77-9.57H455.9c-0.25,5.1-1.11,9.17-4.41,11.7a6,6,0,0,0-1.29-1.32,4.36,4.36,0,0,0,.35-0.27c-2.76.33-5.52,0.61-7.58,0.81l-0.23-1.52c1.11-.08,2.49-0.19,4-0.33v-1.46h-3.49v-1.3h3.49v-1h-3.43v-5.77h3.43v-1h-4v-1.32h4v-1.07c-1.17.1-2.34,0.15-3.41,0.19a5.35,5.35,0,0,0-.42-1.29,59.59,59.59,0,0,0,8.23-.94L452,300c-1,.21-2.28.4-3.61,0.54v1.23h3.88v1.11h2c0-1.3,0-2.67,0-4.1H456c0,1.42,0,2.8,0,4.1h4Zm-15.15,3.55h2v-1.17h-2v1.17Zm2,2.26v-1.17h-2v1.17h2Zm1.63,4.76c1.19-.12,2.42-0.23,3.63-0.36,1.57-2.17,2.05-5.06,2.21-8.55h-2v-1.44h-3.8v1h3.57v5.77h-3.57v1H452v1.3h-3.61v1.3Zm2.05-7v-1.17h-2.05v1.17h2.05Zm-2.05,1.09v1.17h2.05v-1.17h-2.05Z"/><path class="cls-4" d="M464.63,307.7h6.94V316h-1.76v-0.86h-3.49v1h-1.69v-8.4Zm1.69,1.71v4h3.49v-4h-3.49Zm11.74-3.57H467.34V299.3h10.72v6.54ZM476.24,301H469v3.13h7.19V301Zm4.51,6.69V316H479v-0.9h-3.8v1h-1.71v-8.4h7.29ZM479,313.4v-4h-3.8v4H479Z"/><path class="cls-4" d="M489.51,298.52H491v6.67h-3.24v0.94c0,0.5,0,1,0,1.55H491v8.42h-1.63v-6.9h-1.67a24,24,0,0,1-1.27,6.9,15.45,15.45,0,0,0-1.59-.56c1.13-2.72,1.3-6.69,1.3-9.42v-7.19h1.63v4.72h1.76v-5.14Zm13,13.79h-3.17v3.78h-1.61v-3.78h-6.23v-1.57h1.94a5.53,5.53,0,0,0-.79-0.61,7.92,7.92,0,0,0,2.09-2h-2.57v-7.69h2.67a14.13,14.13,0,0,0,.79-1.94l2,0.27c-0.31.59-.61,1.17-0.88,1.67h4.89v7.69h-5.1a8.35,8.35,0,0,1-2.09,2.57h3.3v-2.15h1.61v2.15h3.15Zm-8.69-8.69h2.3v-1.73h-2.3v1.73Zm1.73,3.11a7,7,0,0,0,.5-1.75h-2.22v1.75h1.73Zm4.35-1.75h-2.26a15.49,15.49,0,0,1-.44,1.75h2.71V305Zm0-3.09h-2.19v1.73h2.19v-1.73Z"/><path class="cls-4" d="M509,311.54c1.57-.46,3.39-1,5.14-1.55l0.27,1.57c-2.69.9-5.54,1.8-7.65,2.47l-0.38-1.76,0.86-.23v-11.3a30.75,30.75,0,0,0,5.54-1.82l1.4,1.42a34.93,34.93,0,0,1-5.18,1.55v3.18h5v1.73h-5v4.74Zm13.92-.46c0,0.94-.17,1.55-0.83,1.84a6.9,6.9,0,0,1-3,.38,6.69,6.69,0,0,0-.69-1.9c1,0,2,0,2.32,0a0.32,0.32,0,0,0,.4-0.38v-9.46H517V316h-1.8V299.82h7.71v11.26Z"/><path class="cls-4" d="M543.08,308.13c-0.83.44-1.75,0.9-2.69,1.3a8.65,8.65,0,0,0,4.3,4.33,6.21,6.21,0,0,0-1.19,1.52A10.85,10.85,0,0,1,539,310l-0.83.31c1.11,2.17.71,4.28-.65,5.14a3.61,3.61,0,0,1-2.15.59c-0.46,0-1,0-1.67-.06a3.54,3.54,0,0,0-.48-1.61,17.41,17.41,0,0,0,1.84.1,2,2,0,0,0,1.32-.33c0.69-.44.94-1.52,0.46-2.78a26.65,26.65,0,0,1-8.29,3.76,6.71,6.71,0,0,0-1-1.32,24.44,24.44,0,0,0,8.67-3.64,8,8,0,0,0-.56-0.69,25.38,25.38,0,0,1-6.83,2.7,8.88,8.88,0,0,0-1-1.27,23.86,23.86,0,0,0,6.89-2.32,7.19,7.19,0,0,0-.92-0.67,27.37,27.37,0,0,1-4.72,1.59,7.78,7.78,0,0,0-1-1.21,27.8,27.8,0,0,0,5.22-1.48h-3.86v-3c-0.31.21-.59,0.38-0.92,0.58a5.66,5.66,0,0,0-1.19-1.25,14.75,14.75,0,0,0,5.37-4.72l1.86,0.38a10.06,10.06,0,0,1-.71.94h3.84l0.29-.08,1.21,0.79a12.84,12.84,0,0,1-1.42,1.94h4.87v4.45h-6.81c-0.19.12-.38,0.25-0.59,0.36a10.27,10.27,0,0,1,2.15,2,34.13,34.13,0,0,0,4.2-2.15Zm-11.95-2.63h3.93v-1.78h-3.93v1.78Zm1.55-4.39a14.43,14.43,0,0,1-1.36,1.29h4.39a10.92,10.92,0,0,0,1-1.29h-4Zm8.21,2.61h-4.24v1.78h4.24v-1.78Z"/><path class="cls-4" d="M555,310c1.48-.56,2.34-1.44,2.44-2.59a1.16,1.16,0,0,1-.27,0,1.5,1.5,0,0,1-1.61-1.53,1.52,1.52,0,0,1,1.63-1.53c1.21,0,1.84.94,1.84,2.4a4.67,4.67,0,0,1-3.53,4.49Z"/><path class="cls-4" d="M174.47,332.14h-6.1V330.7h6.1v1.44ZM174,344h-3.66v0.84H169v-6.44H174V344Zm-0.06-9.36h-4.78v-1.4h4.78v1.4Zm-4.78,1.15h4.78v1.4h-4.78v-1.4Zm2.07-5.16a11.92,11.92,0,0,0-1-2.59l1.29-.46a11.58,11.58,0,0,1,1.09,2.53Zm-0.9,9.17v2.8h2.34v-2.8h-2.34Zm15.36,1.48a15.26,15.26,0,0,1-2.11,1.19,6.89,6.89,0,0,0,2.67,1.27,5.16,5.16,0,0,0-.94,1.28,7.75,7.75,0,0,1-5.06-4.79H180a9.53,9.53,0,0,1-1.51,1.15v1.76l2.57-.48a10,10,0,0,0,.06,1.34c-3.2.67-3.74,0.86-4.08,1.06a4.53,4.53,0,0,0-.75-1.07,2,2,0,0,0,.82-1.67v-0.21c-0.65.31-1.36,0.56-2,.79a6.67,6.67,0,0,0-.86-1.15,14.55,14.55,0,0,0,3.8-1.52h-3.43V339h2.82v-0.84h-1.94V337h1.94v-0.82h-2.24V335h2.24v-1h-1.9v-3.26h4.37v3.26H179v1h2.51v-1h-0.75v-3.26h4.45v3.26h-2.11v1h2.47v1.13h-2.47V337h2.17v1.15h-2.17V339H186v1.27h-4.24a7.55,7.55,0,0,0,.94,1.42c0.71-.4,1.55-0.92,2.07-1.27Zm0.08-11.14h-11v-1.32h4.72c-0.15-.38-0.35-0.77-0.52-1.11l1.48-.44a9.09,9.09,0,0,1,.79,1.55h4.51v1.32Zm-9,2.92h1.65v-1.25h-1.65v1.25ZM179,337h2.51v-0.82H179V337Zm0,2h2.51v-0.84H179V339Zm3.09-5.91h1.73v-1.25H182v1.25Z"/><path class="cls-4" d="M198.3,336.59s0,0.5,0,.73c-0.21,4.68-.4,6.46-0.92,7.06a1.64,1.64,0,0,1-1.3.61,14.46,14.46,0,0,1-2.32,0,3.69,3.69,0,0,0-.5-1.57,19.35,19.35,0,0,0,2.05.1,0.67,0.67,0,0,0,.63-0.21c0.33-.35.52-1.71,0.67-5.16H193.9c-0.44,2.7-1.32,5.26-3.34,6.94a4.46,4.46,0,0,0-1.23-1.25c2.57-2.07,3-5.79,3.16-9.13h-2v-6.37h7.65v6.37h-3.91c0,0.61-.08,1.23-0.15,1.84h4.2Zm-6.16-3.41h4.3V330h-4.3v3.22Zm9.46,7.21h-1.73V329.8h1.73v10.59Zm4.64-12.51v15a1.81,1.81,0,0,1-.94,2,11.22,11.22,0,0,1-3.61.31,8.25,8.25,0,0,0-.63-1.82c1.3,0.06,2.51,0,2.9,0a0.42,0.42,0,0,0,.5-0.48v-15h1.78Z"/><path class="cls-4" d="M220.3,327.55c0,0.73,0,1.73-.13,2.86,0.27,2.4,1.44,10.05,8.13,13A5.29,5.29,0,0,0,227,345c-4.51-2.13-6.6-6.35-7.62-9.78a15.28,15.28,0,0,1-7.33,9.88,5.53,5.53,0,0,0-1.48-1.42c7.84-4.07,7.63-13,7.69-16.07h2Z"/><path class="cls-4" d="M245.17,343.19c1.75,0,2-.56,2.3-3.2a6.08,6.08,0,0,0,1.67.71c-0.33,3.09-1,4.1-3.89,4.1h-6.37c-3,0-4-.65-4-3.3v-5.6l-2.9.9-0.48-1.61,3.38-1.06v-5.31h1.75v4.78l3.51-1.09v-4.95h1.78v4.39l4-1.25,0.5-.36,1.34,0.42-0.08.31a71.49,71.49,0,0,1-.79,8.34l-1.48-.42c0.25-1.61.42-4.22,0.52-6.56l-4,1.27v7.25h-1.78v-6.69l-3.51,1.09v6.2c0,1.38.35,1.65,2.19,1.65h6.33Z"/><path class="cls-4" d="M261,343.32a1.33,1.33,0,0,1-.71,1.46,7.59,7.59,0,0,1-2.59.25,5.2,5.2,0,0,0-.56-1.42c0.81,0,1.59,0,1.84,0a0.26,0.26,0,0,0,.33-0.31v-2.55c-1.15.75-2.28,1.46-3.28,2.07l-0.5-1.27a8,8,0,0,1-1.36,3.59,6.29,6.29,0,0,0-1.25-1.23c1.07-1.46,1.17-3.51,1.17-5.14v-4.51H261v9Zm-1.17-14.42a30.1,30.1,0,0,1,2.4,4.28l-1.53.65a8.1,8.1,0,0,0-.56-1.25c-5,.46-5.75.58-6.25,0.77a15.19,15.19,0,0,0-.56-1.63,2.51,2.51,0,0,0,1-.77,18.66,18.66,0,0,0,2.36-3.43l1.82,0.54a25.23,25.23,0,0,1-2.55,3.36l3.43-.25c-0.35-.59-0.69-1.21-1-1.73Zm-4.08,9.92a18.1,18.1,0,0,1-.15,2.42c1-.44,2.34-1.13,3.72-1.82V338.7l-0.84.84a30.5,30.5,0,0,0-2.72-2.05l0.92-.84c0.86,0.54,2,1.32,2.65,1.84v-2.7H255.7v3Zm9.3-3c-2,0-2.47-.67-2.47-2.51v-5.73h1.76V330h4.95v1.53h-4.95v1.76c0,0.69.13,0.94,0.75,0.94h3.22a11.14,11.14,0,0,0,1.65-.12c0,0.46.1,1.13,0.17,1.52a7.57,7.57,0,0,1-1.78.13H265Zm3,7.61c0.71,0,.86-0.35.94-2.28a4,4,0,0,0,1.57.65c-0.21,2.51-.69,3.18-2.36,3.18h-3.11c-2,0-2.53-.52-2.53-2.3V336.4h1.76v2.11h5.12v1.59h-5.12v2.53c0,0.65.15,0.77,1,.77H268Z"/><path class="cls-4" d="M277.73,330.43h4v1.42h-7.75v-1.42h3.61a10.6,10.6,0,0,0-1.48-2.32l1.42-.73a10,10,0,0,1,1.57,2.32Zm-3.22,5.39h6.56v1.4H274.5v-1.4Zm6.23,8.31h-4.43V345h-1.55v-6.48h6v5.66Zm0-11v1.38h-5.83v-1.38h5.83Zm-4.39,6.77v2.78h2.84v-2.78h-2.84Zm12.33,3.2c1,0,1.11-.46,1.23-3a4.83,4.83,0,0,0,1.65.71c-0.23,3.11-.75,4-2.72,4H285.3c-2.11,0-2.76-.54-2.76-2.59v-7.52h6.08V330.2h-6.23v-1.71h8v8.88h-1.78v-1h-4.28v5.81c0,0.77.17,0.92,1.15,0.92h3.15Z"/><path class="cls-4" d="M300.9,332.35a21.64,21.64,0,0,1-1.61,2.38v10.36h-1.73V336.7a19.79,19.79,0,0,1-2,1.86,13.2,13.2,0,0,0-.9-1.8,17.62,17.62,0,0,0,4.68-5Zm-0.27-4.12a19.28,19.28,0,0,1-4.8,4.62,10,10,0,0,0-.92-1.48,14.1,14.1,0,0,0,4-3.82ZM312.41,340h-2.74v3.24a1.37,1.37,0,0,1-.81,1.57,8.24,8.24,0,0,1-2.92.29,7.33,7.33,0,0,0-.58-1.61c1,0,1.88,0,2.15,0s0.36-.08.36-0.31V340H300.5v-1.53h7.38v-1.4H301v-1.48H312v1.48h-2.38v1.4h2.74V340Zm-9.17.12a16.78,16.78,0,0,1,2.36,2.59l-1.34,1A16.93,16.93,0,0,0,302,341Zm8-5.62H302v-6.43h9.25v6.43Zm-1.8-5.12h-5.72v1.28h5.72v-1.28Zm0,2.51h-5.72v1.29h5.72v-1.29Z"/><path class="cls-4" d="M321.89,328.09a30.73,30.73,0,0,1-1.9,4v13H318.3V334.77a20.26,20.26,0,0,1-1.65,2,11.76,11.76,0,0,0-1-1.8,21.32,21.32,0,0,0,4.55-7.38Zm6.71,4.62V343a1.69,1.69,0,0,1-.77,1.75,6.35,6.35,0,0,1-2.65.35,6.42,6.42,0,0,0-.63-1.78c0.86,0,1.69,0,1.94,0s0.35-.06.35-0.31V332.71h-2.59a18.45,18.45,0,0,1-1.84,3.15,11.13,11.13,0,0,0-1.46-1.17,17.94,17.94,0,0,0,3.18-7.1L325.9,328a27.48,27.48,0,0,1-1,3.09h7.25l0.29-.06,1.25,0.25c-0.25,1.46-.59,3.15-0.84,4.22l-1.51-.29c0.13-.65.27-1.55,0.38-2.47H328.6Zm-3.15,3.41a19.09,19.09,0,0,1-2.7,6.46,10.18,10.18,0,0,0-1.52-1,14.86,14.86,0,0,0,2.47-5.83Zm5.81-.5a24.39,24.39,0,0,1,2.26,6.29l-1.71.61a25.06,25.06,0,0,0-2.15-6.39Z"/><path class="cls-4" d="M340,338.22a16.16,16.16,0,0,1-1.57,7A6.37,6.37,0,0,0,337,344c1.23-2.28,1.32-5.5,1.32-8V329.3a28.42,28.42,0,0,0,6.48-1.42l1.15,1.5a26.27,26.27,0,0,1-5.87,1.27v1.61h5v6H340Zm0.06-4.35v2.74h3.32v-2.74H340Zm14.75,1.76h-2V345H351v-9.4h-2.55c0,3-.44,7-3,9.53A7.15,7.15,0,0,0,344,344c2.42-2.36,2.65-5.77,2.65-8.46v-6.14a30,30,0,0,0,6.64-1.61l1.21,1.53a30.45,30.45,0,0,1-6,1.4v3.22h6.35v1.73Z"/><path class="cls-4" d="M375.49,330.3V332H365.17a23.44,23.44,0,0,1-2.28,3.86v9.21h-1.78v-7.14a16.7,16.7,0,0,1-2,1.67,10.66,10.66,0,0,0-.88-1.67,15.66,15.66,0,0,0,4.93-5.93h-4.41V330.3h5.18a20.26,20.26,0,0,0,.94-2.82l1.86,0.46c-0.25.79-.52,1.57-0.82,2.36h9.59ZM370.66,343h4.81v1.67H364V343h4.83V338h-4.1v-1.65h4.1v-3.45h1.8v3.45h4.08V338h-4.08V343Z"/><path class="cls-4" d="M396.79,338.24h-7.42v4.56c0,1.19-.33,1.73-1.13,2a14.18,14.18,0,0,1-4.09.33,7.21,7.21,0,0,0-.77-1.84c1.51,0.06,3,.06,3.47.06a0.49,0.49,0,0,0,.59-0.54v-4.56H379.7v-1.82h7.75v-6c-2.09.17-4.22,0.27-6.16,0.33a5.88,5.88,0,0,0-.42-1.61,78,78,0,0,0,13.41-1.44l0.9,1.61a48.6,48.6,0,0,1-5.81.94v6.14h7.42v1.82Zm-13.56-7a18.89,18.89,0,0,1,1.8,4l-1.65.65a19.52,19.52,0,0,0-1.71-4.1Zm8.23,4a27.23,27.23,0,0,0,1.94-4.37l1.92,0.63c-0.77,1.52-1.67,3.22-2.38,4.33Z"/><path class="cls-4" d="M417.57,330.47s0,0.61,0,.84c-0.27,8.65-.5,11.62-1.27,12.58a2.14,2.14,0,0,1-1.67.9,20.6,20.6,0,0,1-2.9,0,4.17,4.17,0,0,0-.58-1.73c1.23,0.1,2.34.12,2.82,0.12a0.86,0.86,0,0,0,.81-0.33c0.61-.63.86-3.53,1.11-10.76h-4.53a19.33,19.33,0,0,1-1.75,3.22,9.43,9.43,0,0,0-1.4-1v8.8H403v1.46h-1.63v-14h2.15a22.49,22.49,0,0,0,.67-3.11l1.94,0.33c-0.33,1-.69,2-1,2.78h3.07v3.63a18.33,18.33,0,0,0,2.86-6.73l1.73,0.4c-0.23.88-.48,1.76-0.79,2.61h5.56ZM403,332.12v3.64h3.57v-3.64H403Zm3.57,9.44v-4.24H403v4.24h3.57Zm6.39-1.5a31.26,31.26,0,0,0-2.8-4.43l1.4-.79a34.42,34.42,0,0,1,2.9,4.28Z"/><path class="cls-4" d="M439.13,339.73h-2v3.36h-1.8v-0.82h-4.08v1a1.41,1.41,0,0,1-.9,1.63,11.28,11.28,0,0,1-3.26.25,5.48,5.48,0,0,0-.61-1.44c1.06,0,2.21,0,2.51,0s0.46-.12.46-0.44v-1h-6v-1.34h6v-1.19h-7.67v-1.4h7.67v-1.09h-5.81V336h5.81v-1.13h-5.31v-3.53h5.31v-1h-7.27V328.9h7.27v-1.4h1.8v1.4h7.48v1.44h-7.48v1h5.58v3.53h-5.58V336h5.89v2.36h2v1.4Zm-9.69-6.08V332.5h-3.61v1.15h3.61Zm1.8-1.15v1.15H435V332.5h-3.78Zm0,5.83h4.08v-1.09h-4.08v1.09Zm4.08,1.4h-4.08v1.19h4.08v-1.19Z"/><path class="cls-4" d="M442.55,336.13a22.75,22.75,0,0,0,.94-4.93l1.38,0.19a27,27,0,0,1-.9,5.22Zm5.6-2.46a23.49,23.49,0,0,0-1.06-2.72V345h-1.65V327.48h1.65v3.13l1.06-.46a20.16,20.16,0,0,1,1.23,2.88Zm11,9.61c0,0.84-.15,1.3-0.75,1.52a7.59,7.59,0,0,1-2.82.29,5.48,5.48,0,0,0-.52-1.52c0.88,0,1.82,0,2.05,0s0.36-.1.36-0.33v-1.07h-6.27a7,7,0,0,1-1.32,3.11,6,6,0,0,0-1.29-1.23,7.61,7.61,0,0,0,1.17-4.74v-3.47h9.38v7.42Zm1.13-9.69v1.32H448.61V333.6h4.85v-1.11h-3.82v-1.25h3.82v-1h-4.39v-1.32h4.39V327.5h1.76v1.42h4.41v1.32h-4.41v1h3.87v1.25h-3.87v1.11h5Zm-2.8,7.31v-1.19h-6c0,0.36,0,.79-0.08,1.19h6.1Zm-6-3.76v1.25h6v-1.25h-6Z"/><path class="cls-4" d="M469.66,342.3a1.49,1.49,0,0,1,1.46-1.57,1.5,1.5,0,0,1,1.5,1.57,1.47,1.47,0,0,1-1.5,1.53A1.45,1.45,0,0,1,469.66,342.3Zm0.42-10.89L470,329.15h2.22l-0.08,2.26-0.31,7.67h-1.48Z"/></svg>