<svg id="圖層_1" data-name="圖層 1" xmlns="http://www.w3.org/2000/svg" viewBox="0 0 726.15 473.98"><defs><style>.cls-1,.cls-2,.cls-3,.cls-5{fill:#00364b;}.cls-1,.cls-2,.cls-3{stroke:#ff7167;stroke-miterlimit:10;}.cls-1{stroke-width:11.21px;}.cls-2{stroke-width:11.98px;}.cls-3{stroke-width:12.79px;}.cls-4{fill:#ff7167;}.cls-6{fill:#6bffba;}</style></defs><title>window</title><rect class="cls-1" x="16.82" y="62.58" width="562.23" height="366.77"/><rect class="cls-2" x="38.22" y="50.09" width="600.51" height="391.74"/><rect class="cls-3" x="60.37" y="36.89" width="641" height="418.15"/><rect class="cls-4" x="267.81" y="125.38" width="151.26" height="30.19"/><path class="cls-4" d="M642.8,183.77a3.64,3.64,0,0,0,3.74-3.36,3.46,3.46,0,0,0-3.68-3.21h-10a3.09,3.09,0,0,1-3.15-3.68l1.9-12.1H601.91a4.67,4.67,0,0,0-4.38,4.18l-2.59,15.5c-0.44,2.63,1.16,4.19,2.92,4.19a3.6,3.6,0,0,0,3.61-3.38l1.68-9.92a4.3,4.3,0,0,1,3.92-3.68c1.84,0,2.74,1.65,2.4,3.67l-8.15,47.48a4.59,4.59,0,0,1-4.35,3.67h-4.52a4.51,4.51,0,0,0-4.3,3.68l-1,6.16a3.24,3.24,0,0,0,3.15,3.68,3.86,3.86,0,0,0,3.55-3.36,4.46,4.46,0,0,1,4.33-3.36h3.4a6.56,6.56,0,0,0,6.19-5.13L611.35,206a4.68,4.68,0,0,1,4.41-3.66h10.76a3.09,3.09,0,0,1,3.15,3.68l-4.12,26.25a3.7,3.7,0,0,0,3.76,4.4H636c2.05,0,4.11-.95,4.11-3.46,0-1.18-.94-2.93-3.71-2.93h0a3.09,3.09,0,0,1-3.15-3.68l4.08-26a4.42,4.42,0,0,0-4.49-5.25H630a3.09,3.09,0,0,1-3.15-3.68l1.23-7.86H642.8Z"/><path class="cls-4" d="M623.08,142.39c1.24-1.63,2.94-1.44,3.79.42l4.92,10.77a2.21,2.21,0,0,1-2.18,3.39H615.77c-2,0-2.71-1.34-1.48-3Z"/><path class="cls-4" d="M632.25,140.84a2,2,0,0,1-1.55-3.18l4.85-6.22a2,2,0,1,1,3.11,2.42l-4.85,6.22A2,2,0,0,1,632.25,140.84Z"/><path class="cls-4" d="M635.93,147.75a2,2,0,0,1-.84-3.75l8.2-3.88a2,2,0,0,1,1.69,3.56l-8.2,3.88A2,2,0,0,1,635.93,147.75Z"/><path class="cls-4" d="M646.81,155.12h-8.3a2,2,0,1,1,0-3.94h8.3A2,2,0,1,1,646.81,155.12Z"/><path class="cls-4" d="M518.06,140.84a2,2,0,0,1-1.55-3.18l4.85-6.22a2,2,0,1,1,3.11,2.42l-4.85,6.22A2,2,0,0,1,518.06,140.84Z"/><path class="cls-4" d="M521.74,147.75a2,2,0,0,1-.84-3.75l8.2-3.88a2,2,0,0,1,1.69,3.56l-8.2,3.88A2,2,0,0,1,521.74,147.75Z"/><path class="cls-4" d="M532.62,155.12h-8.3a2,2,0,1,1,0-3.94h8.3A2,2,0,1,1,532.62,155.12Z"/><path class="cls-4" d="M507.16,142.39c1.24-1.63,2.94-1.44,3.79.42l4.92,10.77a2.21,2.21,0,0,1-2.18,3.39H499.85c-2,0-2.71-1.34-1.48-3Z"/><path class="cls-4" d="M509.87,201.24s0.28-1.66.58-3.68l0.41-2.73a4.47,4.47,0,0,1,4.28-3.68H521a4.38,4.38,0,0,0,4.25-3.52,3,3,0,0,0-3.19-3.51h-5.92a3.12,3.12,0,0,1-3.17-3.68l2.86-19h-26a4.35,4.35,0,0,0-4.07,3.68l-2.31,15.38a3,3,0,0,0,3,3.68,3,3,0,0,1,3,3.68l-0.38,2.5-1.09,7.28-1.09,7.28-0.48,3.22a4.35,4.35,0,0,1-4.07,3.68h-7a4.25,4.25,0,0,0-4,3.51l-1,6.94a2.92,2.92,0,0,0,3,3.42,4.19,4.19,0,0,0,4-3.42,4.32,4.32,0,0,1,4.24-3.42h6.61a4.37,4.37,0,0,0,4.25-3.51l1.08-7.2,0.48-3.22a4.47,4.47,0,0,1,4.28-3.68h0.93a3.12,3.12,0,0,1,3.17,3.68l-3.16,21-1.08,7.2a3,3,0,0,0,3.19,3.51h5.92a4.37,4.37,0,0,0,4.25-3.51,2.83,2.83,0,0,0-2.64-3.51c-1.74,0-2.92-1.66-2.61-3.68l3.16-21C509.59,202.9,509.85,201.24,509.87,201.24Z"/><path class="cls-4" d="M573.36,140.84a2,2,0,0,1-1.55-3.18l4.85-6.22a2,2,0,1,1,3.11,2.42l-4.85,6.22A2,2,0,0,1,573.36,140.84Z"/><path class="cls-4" d="M577,147.75a2,2,0,0,1-.84-3.75l5.61-2.66a2,2,0,0,1,1.69,3.56l-5.61,2.66A2,2,0,0,1,577,147.75Z"/><path class="cls-4" d="M587.92,155.12h-8.3a2,2,0,1,1,0-3.94h8.3A2,2,0,1,1,587.92,155.12Z"/><path class="cls-4" d="M562.38,142.39c1.24-1.63,2.94-1.44,3.79.42l4.92,10.77a2.21,2.21,0,0,1-2.18,3.39H555.07c-2,0-2.71-1.34-1.48-3Z"/><path class="cls-4" d="M588.66,164.94l1.08-7.2,1.26-8.35a3,3,0,0,0-3-3.68,4.35,4.35,0,0,0-4.07,3.68l-1.26,8.35a4.47,4.47,0,0,1-4.28,3.68H538a4.38,4.38,0,0,0-4.25,3.51l-1.08,7.2-1.26,8.35a3,3,0,0,0,3,3.68,4.35,4.35,0,0,0,4.07-3.68l1.26-8.35a4.35,4.35,0,0,1,4.07-3.68,3,3,0,0,1,3,3.68l-3.82,25.43a3.12,3.12,0,0,0,3.17,3.68h0.53a3.12,3.12,0,0,1,3.17,3.68L547.65,219a4.35,4.35,0,0,1-4.07,3.68h-7a4.25,4.25,0,0,0-4,3.51l-1,6.94a2.92,2.92,0,0,0,3,3.42,4.19,4.19,0,0,0,4-3.42,4.32,4.32,0,0,1,4.24-3.42h6.61a4.37,4.37,0,0,0,4.25-3.51l1.08-7.2,2.12-14.07a18.4,18.4,0,0,1,.75-3.68h10.77a3,3,0,0,1,2.93,3.68l-0.5,3.31L570.18,212l-0.53,3.51a3,3,0,0,0,3.21,3.43h5.92a4.37,4.37,0,0,0,4.25-3.51,2.83,2.83,0,0,0-2.64-3.51c-1.74,0-2.92-1.66-2.61-3.68l0.5-3.31,1.08-7.2a3,3,0,0,0-3-3.51h-7a3,3,0,0,1-2.93-3.68l2.77-18.4a4.47,4.47,0,0,1,4.28-3.68h14.65l0.53-3.51h0Z"/><line class="cls-4" x1="589.89" y1="136.36" x2="593.57" y2="112"/><path class="cls-4" d="M589.9,139.16a2.84,2.84,0,0,1-.42,0,2.8,2.8,0,0,1-2.35-3.19l3.67-24.35a2.8,2.8,0,1,1,5.54.84l-3.67,24.35A2.8,2.8,0,0,1,589.9,139.16Z"/><polygon class="cls-4" points="595.01 121.17 542 121.17 543.95 108.32 596.96 108.32 595.01 121.17"/><path class="cls-5" d="M280.44,137.76l0.48-2.28a15.71,15.71,0,0,0,2.27-.21,4,4,0,0,0,1.83-.89,3.74,3.74,0,0,0,.92-1.22,3.14,3.14,0,0,0,.28-0.68H289l-3.62,17H282l2.49-11.74h-4Z"/><path class="cls-5" d="M291.9,146.16a13,13,0,0,1,4.15-3.6,33.76,33.76,0,0,0,3.5-2.37,4.5,4.5,0,0,0,1.56-2.44,2.36,2.36,0,0,0-.21-1.8,1.69,1.69,0,0,0-1.56-.72,2.66,2.66,0,0,0-2.33,1.14,6.54,6.54,0,0,0-.81,2.09h-3.25a9.91,9.91,0,0,1,1.53-3.51,6.19,6.19,0,0,1,5.3-2.55,5,5,0,0,1,4,1.5,4.38,4.38,0,0,1,.75,4,6.74,6.74,0,0,1-1.83,3.36,15.45,15.45,0,0,1-2.9,2.17l-1.54,1q-1.44.89-2,1.29a5,5,0,0,0-1,.93h7.43l-0.62,2.95H290.41A9.69,9.69,0,0,1,291.9,146.16Z"/><path class="cls-5" d="M305.28,146h3.56l-0.74,3.5h-3.56Z"/><path class="cls-5" d="M313.87,137.76l0.48-2.28a15.71,15.71,0,0,0,2.27-.21,4,4,0,0,0,1.83-.89,3.74,3.74,0,0,0,.92-1.22,3.14,3.14,0,0,0,.28-0.68h2.78l-3.62,17h-3.43l2.49-11.74h-4Z"/><path class="cls-5" d="M328.21,140.44a2.94,2.94,0,0,1-1.23-1.78,4.7,4.7,0,0,1,0-1.79,5.41,5.41,0,0,1,2.07-3.17,6.64,6.64,0,0,1,4.22-1.31A4.59,4.59,0,0,1,337,133.7a3.48,3.48,0,0,1,.72,3.17,5.89,5.89,0,0,1-.75,1.79,4.67,4.67,0,0,1-1.95,1.66,3.48,3.48,0,0,1,1.49,1.87,4.88,4.88,0,0,1,.08,2.6,6.25,6.25,0,0,1-2.37,3.66,7.46,7.46,0,0,1-4.77,1.51q-2.85,0-4-1.51a4.29,4.29,0,0,1-.69-3.66,6.36,6.36,0,0,1,1.2-2.6A5.6,5.6,0,0,1,328.21,140.44Zm1.93,6.76a2.87,2.87,0,0,0,2-.69,3.45,3.45,0,0,0,1.07-1.95,2.35,2.35,0,0,0-.24-2,2,2,0,0,0-1.65-.68,2.9,2.9,0,0,0-1.93.68,3.43,3.43,0,0,0-1.09,2,2.38,2.38,0,0,0,.24,1.95A1.91,1.91,0,0,0,330.14,147.2Zm1.67-7.86a2.54,2.54,0,0,0,1.71-.59,2.62,2.62,0,0,0,.88-1.52,1.84,1.84,0,0,0-.22-1.58,1.73,1.73,0,0,0-1.46-.57,2.57,2.57,0,0,0-1.7.57,2.75,2.75,0,0,0-.91,1.58,1.82,1.82,0,0,0,.25,1.52A1.7,1.7,0,0,0,331.81,139.35Z"/><path class="cls-5" d="M345.47,141.21h6.74l-0.68,3.17h-6.74Z"/><path class="cls-5" d="M360.09,146.16a13,13,0,0,1,4.15-3.6,33.76,33.76,0,0,0,3.5-2.37,4.5,4.5,0,0,0,1.56-2.44,2.36,2.36,0,0,0-.21-1.8,1.69,1.69,0,0,0-1.56-.72,2.66,2.66,0,0,0-2.33,1.14,6.54,6.54,0,0,0-.81,2.09h-3.25a9.91,9.91,0,0,1,1.53-3.51,6.19,6.19,0,0,1,5.3-2.55,5,5,0,0,1,4,1.5,4.38,4.38,0,0,1,.75,4,6.74,6.74,0,0,1-1.83,3.36,15.45,15.45,0,0,1-2.9,2.17l-1.54,1q-1.44.89-2,1.29a5,5,0,0,0-1,.93h7.43l-0.62,2.95H358.6A9.69,9.69,0,0,1,360.09,146.16Z"/><path class="cls-5" d="M373.46,146H377l-0.74,3.5h-3.56Z"/><path class="cls-5" d="M382.06,137.76l0.48-2.28a15.71,15.71,0,0,0,2.27-.21,4,4,0,0,0,1.83-.89,3.74,3.74,0,0,0,.92-1.22,3.14,3.14,0,0,0,.28-0.68h2.78l-3.62,17h-3.43l2.49-11.74h-4Z"/><path class="cls-5" d="M396.4,140.44a2.94,2.94,0,0,1-1.23-1.78,4.7,4.7,0,0,1,0-1.79,5.41,5.41,0,0,1,2.07-3.17,6.64,6.64,0,0,1,4.22-1.31,4.59,4.59,0,0,1,3.67,1.31,3.48,3.48,0,0,1,.72,3.17,5.89,5.89,0,0,1-.75,1.79,4.67,4.67,0,0,1-1.95,1.66,3.48,3.48,0,0,1,1.49,1.87,4.88,4.88,0,0,1,.08,2.6,6.25,6.25,0,0,1-2.37,3.66A7.46,7.46,0,0,1,397.6,150q-2.85,0-4-1.51a4.29,4.29,0,0,1-.69-3.66,6.36,6.36,0,0,1,1.2-2.6A5.6,5.6,0,0,1,396.4,140.44Zm1.93,6.76a2.87,2.87,0,0,0,2-.69,3.45,3.45,0,0,0,1.07-1.95,2.35,2.35,0,0,0-.24-2,2,2,0,0,0-1.65-.68,2.9,2.9,0,0,0-1.93.68,3.43,3.43,0,0,0-1.09,2,2.38,2.38,0,0,0,.24,1.95A1.91,1.91,0,0,0,398.32,147.2Zm1.67-7.86a2.54,2.54,0,0,0,1.71-.59,2.62,2.62,0,0,0,.88-1.52,1.84,1.84,0,0,0-.22-1.58,1.73,1.73,0,0,0-1.46-.57,2.57,2.57,0,0,0-1.7.57,2.75,2.75,0,0,0-.91,1.58,1.82,1.82,0,0,0,.25,1.52A1.7,1.7,0,0,0,400,139.35Z"/><path class="cls-4" d="M157.84,134.17h-3.79a14,14,0,0,1,1.51,1.38L154,136.93h1.79v5.54h-6.94v1.29h8s0,0.63-.07.94c-0.22,2.91-.48,4.33-1.05,4.9a2.29,2.29,0,0,1-1.66.77,21.48,21.48,0,0,1-2.78,0,5.23,5.23,0,0,0-.72-2.36,18.17,18.17,0,0,0,2.23.09,1,1,0,0,0,.74-0.2,3.92,3.92,0,0,0,.52-2h-5.23v5.4h-2.56v-4.27a19.77,19.77,0,0,1-6.65,4.18,10,10,0,0,0-1.64-2.06,19.38,19.38,0,0,0,6.35-3.26h-4.7a47.72,47.72,0,0,0,.81-5.6h5.84v-1.25h-6.65v-2.14h4.46a17.48,17.48,0,0,0-2-2l0.83-.72h-1.29A17.14,17.14,0,0,1,139.4,137a16.54,16.54,0,0,0-1.75-1.75,12.53,12.53,0,0,0,3.17-4.59l2.3,0.66a7.75,7.75,0,0,1-.39.88h4.81v2h-3.13a13.66,13.66,0,0,1,1.49,1.44l-1.4,1.29h9.23a16.82,16.82,0,0,0-2.12-1.95l0.94-.81h-1.79A11.52,11.52,0,0,1,149,136.3a12.18,12.18,0,0,0-1.95-1.51,9.87,9.87,0,0,0,2.74-4.11l2.36,0.59c-0.11.31-.24,0.63-0.37,0.94h6v2Zm-11.55,8.29h-3.57c-0.07.44-.11,0.88-0.18,1.29h3.74v-1.29Zm6.91-3.39h-4.35v1.25h4.35v-1.25Z"/><path class="cls-4" d="M176.32,140.83a6.19,6.19,0,0,0-.06,2.77q0.58,2,3.22,2a5,5,0,0,0,3.06-1.11,5.22,5.22,0,0,0,1.89-3.19q0.58-2.75-1.46-3.68a10.33,10.33,0,0,0-3.89-.52l0.83-3.93a11.38,11.38,0,0,0,3.85-.52,4.17,4.17,0,0,0,2.52-3.27,3.14,3.14,0,0,0-.37-2.6,2.78,2.78,0,0,0-2.42-1,4.11,4.11,0,0,0-3.12,1.23,6.45,6.45,0,0,0-1.58,3.29h-5.12a16.16,16.16,0,0,1,1.56-3.95,12.08,12.08,0,0,1,2.75-3,9.68,9.68,0,0,1,2.88-1.5,12.08,12.08,0,0,1,3.75-.52q4,0,6,2.07A5.78,5.78,0,0,1,191.9,129a7.7,7.7,0,0,1-2.35,4.16,6.78,6.78,0,0,1-2.23,1.44,3,3,0,0,1,1.89,1.29q1.68,1.94,1,5.31a11.42,11.42,0,0,1-11.61,8.91q-5.93,0-7.41-3.87a10.32,10.32,0,0,1-.21-5.39h5.39Z"/><path class="cls-4" d="M209.49,132.62c-0.61,1.86-1.4,4-2.06,5.67a6.85,6.85,0,0,1,1.75,4.6c0,1.42-.31,2.34-1,2.87a2.85,2.85,0,0,1-1.27.48,9.23,9.23,0,0,1-1.38,0A5.58,5.58,0,0,0,205,144a6.77,6.77,0,0,0,.92,0,1,1,0,0,0,.61-0.18,1.66,1.66,0,0,0,.37-1.29,5.94,5.94,0,0,0-1.71-4c0.48-1.31,1-3.11,1.36-4.53h-1.66v17.22H202.6V131.72h4.81l0.37-.11Zm5.36,4.92a16.54,16.54,0,0,0,.33,2c-4.25,1-5,1.31-5.51,1.64a7.4,7.4,0,0,0-.77-2.41,1,1,0,0,0,.77-1.14V131h2.56v2.52h2.71v2.17h-2.71v2.45Zm1.9,3.24c-0.28.39-.55,0.81-0.81,1.2H221v9.28h-2.71v-0.63h-5.56v0.72h-2.6V142h3.17a14.93,14.93,0,0,0,.57-1.77Zm1.53,3.22h-5.56v1.33h5.56V144Zm0,4.62v-1.4h-5.56v1.4h5.56Zm1.31-10.09c0.37,0,.46-0.33.53-2.1a6.79,6.79,0,0,0,2.19.92c-0.24,2.6-.88,3.37-2.45,3.37h-1.77c-2.06,0-2.52-.72-2.52-3v-6.85h2.54v2.58h3.57v2.17h-3.57v2.08c0,0.68.07,0.79,0.44,0.79h1Z"/><path class="cls-4" d="M234.81,146.49c-1.6.28-3.26,0.55-4.81,0.81v3.54H227.5V147.7l-1.36.22-0.39-2.45,1.75-.22V133l0.09,0,0,0a32.28,32.28,0,0,0,5.78-2.36l2.06,2a52.23,52.23,0,0,1-5.41,1.9V136h4.42v2.25H230v2.19h4.35v2.25H230v2.25c1.49-.2,3.11-0.44,4.68-0.66Zm10.39-5.38a13.56,13.56,0,0,1-3.09,6.28,12.45,12.45,0,0,0,4.33,1.69,10.18,10.18,0,0,0-1.62,2.23,13.46,13.46,0,0,1-4.64-2.23,15.8,15.8,0,0,1-5.1,2.32,8.56,8.56,0,0,0-1.31-2.23,13.67,13.67,0,0,0,4.59-1.84,15.82,15.82,0,0,1-2.41-4.16l1.33-.33h-2.12v-2.19h0.77a12.37,12.37,0,0,0-1.71-1.55,4.94,4.94,0,0,0,2.36-4.7V131.7H239v0h2.14v0h2.38v5.14c0,0.61,0,.83.33,0.83h1a4.55,4.55,0,0,0,1.09-.13c0,0.61.11,1.44,0.2,2a3.75,3.75,0,0,1-1.27.15h-1.25c-2.06,0-2.47-.85-2.47-2.89v-2.89H239v0.55a7.19,7.19,0,0,1-2.76,6.19h6.91l0.44-.07Zm-7,1.73a10.23,10.23,0,0,0,2,3,9.63,9.63,0,0,0,2-3h-4Z"/><path class="cls-4" d="M189.43,219.31v7.08H135.81v-7.08h21.12V174.89h7.55v16.87h20.82v7.14H164.48v20.41h25Z"/><path class="cls-4" d="M213.62,213.88H202.47v5.25H196.1V179.31h17.52v34.57Zm-11.15-28.14v21.71h4.72V185.74h-4.72Zm36.69,36.1c3.13,0,3.72-1.36,4.19-7.43a17.25,17.25,0,0,0,6.31,2.71c-0.89,8.26-3,11.21-9.85,11.21H227.48c-7.67,0-10.09-2.12-10.09-10.62v-40h29.79v32.39H240.4v-3.42H224.3v11.09c0,3.54.47,4.07,4,4.07h10.91ZM224.3,184.15v16.16H229V184.15H224.3Zm16.1,0h-5.07v16.16h5.07V184.15Z"/><path class="cls-4" d="M273.08,218.9a6.14,6.14,0,0,1,12.27,0c0,3.42-2.65,5.78-6.13,5.78S273.08,222.32,273.08,218.9Zm1-30.09L273.84,180h10.79l-0.29,8.79L282.28,209H276.2Z"/><path class="cls-4" d="M342.27,197.25c3.89,11.5,11,20.76,22.06,25.25a28.23,28.23,0,0,0-5.19,6.61c-10.68-5-17.52-13.63-22.12-25-3.19,9.85-9.56,19.05-22.06,25.07a20.77,20.77,0,0,0-5.25-6c13.51-6,19.11-15.81,21.41-26H310.83V190H332.3c0.59-5.55.53-10.91,0.59-15.75h7.67c-0.06,4.84-.12,10.26-0.71,15.75H363v7.26H342.27Z"/><path class="cls-4" d="M423.85,203.79c-3.83,14.69-13.45,22.06-26.6,25.84a22.31,22.31,0,0,0-3.72-5.84A36.89,36.89,0,0,0,406,218.66a48.28,48.28,0,0,0-4.78-5.37c-0.88.65-1.89,1.24-2.83,1.83a18.86,18.86,0,0,0-4.25-4.66l1.12-.59h-8c2.95,2.42,7.37,6.19,8.61,7.43l-4.13,5.78c-1.24-1.83-3.48-4.6-5.66-7.2v13.39H379.2v-11.8a40.72,40.72,0,0,1-8.38,10.15,36.35,36.35,0,0,0-3.13-6.9,37.9,37.9,0,0,0,9.56-10.85h-7.9v-6.19h9.85V200h-8.61V176.54h24.13v9.62a29.35,29.35,0,0,0,10.68-11.92l6.43,1.06a28.39,28.39,0,0,1-1.59,2.95h6.14l1.24-.18,4.48,1.77A32,32,0,0,1,408.93,198L414,198.9q-1,1.77-2.12,3.54h6.25l1.3-.24ZM376.3,185.74h3.78v-3.6H376.3v3.6Zm0,8.73h3.78v-3.54H376.3v3.54Zm12.45-8.73v-3.6h-3.66v3.6h3.66Zm0,8.73v-3.54h-3.66v3.54h3.66Zm6.73,15.22a30.32,30.32,0,0,0,11-10.32,43.72,43.72,0,0,1-8.32,3.6,20.88,20.88,0,0,0-3.48-4.84V200H386v3.66h9.44v6Zm-0.77-11.8a30.26,30.26,0,0,0,10.15-4.78,51.31,51.31,0,0,0-4-4q-1.24,1-2.66,1.95a15.33,15.33,0,0,0-3.48-3.6v10.44Zm11.62-14.1c-0.41.47-.77,0.94-1.24,1.42a40.42,40.42,0,0,1,4.31,4,22.88,22.88,0,0,0,3.83-5.37h-6.9Zm1,24.36c-0.47.47-.94,0.94-1.47,1.42a56.63,56.63,0,0,1,5,4.9,25.77,25.77,0,0,0,4.25-6.31h-7.79Z"/><path class="cls-4" d="M130.71,279.28h16.66v6.37h-9.65v24.74h-7V279.28Z"/><path class="cls-4" d="M643.71,362.19H627.05v-6.37h9.65V331.08h7v31.11Z"/><path class="cls-4" d="M184.65,302.16V316h-1.86V315H171.53v1.13h-1.78v-14h6.45v-3.64H178v3.64h6.64ZM171.53,304v3.72h4.66V304h-4.66Zm0,9.28h4.66v-3.82h-4.66v3.82ZM178,304v3.72h4.78V304H178Zm4.78,9.28v-3.82H178v3.82h4.78Z"/><path class="cls-4" d="M192.73,301.18a13.11,13.11,0,0,1-2,2.46,11.77,11.77,0,0,0-1.21-1.17,11.24,11.24,0,0,0,2.8-4.12L194,298.8a7.34,7.34,0,0,1-.44,1h4.58v1.4h-3.22a12.73,12.73,0,0,1,1.53,1.52l-1.15,1a18.61,18.61,0,0,0-1.84-1.94l0.71-.59h-1.4ZM206,309.77s0,0.44-.06.69c-0.23,2.59-.46,3.76-1,4.26a1.79,1.79,0,0,1-1.32.56,19.45,19.45,0,0,1-2.4,0,3.93,3.93,0,0,0-.5-1.63,15.3,15.3,0,0,0,2.07.1,1,1,0,0,0,.67-0.15,4.91,4.91,0,0,0,.58-2.3H199v4.79h-1.76V312a17.3,17.3,0,0,1-6.14,4,7.2,7.2,0,0,0-1.15-1.4,16,16,0,0,0,5.91-3.38h-4.62a45.26,45.26,0,0,0,.69-4.49h5.31v-1.5h-6v-1.48h14v4.45H199v1.5h7Zm-12.58-1.5c-0.06.52-.13,1-0.21,1.5h4v-1.5h-3.8Zm13.52-8.5v1.4h-3.78a12.07,12.07,0,0,1,1.67,1.48l-1.21,1a14.27,14.27,0,0,0-2-1.84l0.84-.67h-1.92a9.93,9.93,0,0,1-1.46,1.78,9.64,9.64,0,0,0-1.34-1.06,8.39,8.39,0,0,0,2.4-3.55l1.63,0.38c-0.13.36-.27,0.69-0.42,1H207Zm-8,7h4.51v-1.5H199v1.5Z"/><path class="cls-4" d="M227.61,313v1.8h-16.5V313h16.5Zm-1-12.7v1.82H212.21v-1.82h14.38Zm-1.5,6.16v1.82H213.45v-1.82H225.1Z"/><path class="cls-4" d="M237,299.05a29.12,29.12,0,0,1-1.52,3.68v13.39h-1.71V305.77a18.86,18.86,0,0,1-1.59,2.11,12.63,12.63,0,0,0-.88-1.88,21.49,21.49,0,0,0,4-7.42Zm11.7,0.52v16.34H247v-1h-7.9v1.13h-1.63V299.57h11.22ZM247,313.38V301.12h-7.9v12.26H247ZM243.77,305V307h2v5.1h-5.37V307h1.92V305h-2.57v-1.32h2.57v-2.07h1.42v2.07h2.67V305h-2.67Zm0.65,3.2h-2.67v2.53h2.67v-2.53Z"/><path class="cls-4" d="M259.5,303.22a25.77,25.77,0,0,1-2.09,2.93v10h-1.78v-8a25.46,25.46,0,0,1-1.9,1.73,9.91,9.91,0,0,0-1.23-1.52,20.36,20.36,0,0,0,5.31-5.75Zm-0.73-4a25.29,25.29,0,0,1-5.06,4.85,8.14,8.14,0,0,0-1-1.44,17.35,17.35,0,0,0,4.37-4.12Zm11.51,7.37h-2.76v7.38c0,1-.23,1.53-1,1.82a12,12,0,0,1-3.62.29,7.15,7.15,0,0,0-.58-1.78c1.23,0,2.51,0,2.86,0s0.48-.1.48-0.36v-7.37h-6.06v-1.71h10.65v1.71Zm-0.54-5.24h-9.3v-1.71h9.3v1.71Z"/><path class="cls-4" d="M291.09,302.87s0,0.61,0,.82c-0.21,7.92-.38,10.65-1,11.47a1.7,1.7,0,0,1-1.36.83,13.42,13.42,0,0,1-2.36,0,4.73,4.73,0,0,0-.5-1.69c0.88,0.08,1.67.08,2,.08a0.73,0.73,0,0,0,.69-0.31c0.42-.54.61-3,0.77-9.57h-2.26c-0.25,5.1-1.11,9.17-4.41,11.7a6,6,0,0,0-1.29-1.32,4.36,4.36,0,0,0,.35-0.27c-2.76.33-5.52,0.61-7.58,0.81l-0.23-1.52c1.11-.08,2.49-0.19,4-0.33v-1.46h-3.49v-1.3h3.49v-1h-3.43v-5.77h3.43v-1h-4v-1.32h4v-1.07c-1.17.1-2.34,0.15-3.41,0.19a5.35,5.35,0,0,0-.42-1.29,59.59,59.59,0,0,0,8.23-.94l0.84,1.34c-1,.21-2.28.4-3.61,0.54v1.23h3.88v1.11h2c0-1.3,0-2.67,0-4.1h1.71c0,1.42,0,2.8,0,4.1h4Zm-15.15,3.55h2v-1.17h-2v1.17Zm2,2.26v-1.17h-2v1.17h2Zm1.63,4.76c1.19-.12,2.42-0.23,3.63-0.36,1.57-2.17,2.05-5.06,2.21-8.55h-2v-1.44h-3.8v1h3.57v5.77h-3.57v1h3.61v1.3h-3.61v1.3Zm2.05-7v-1.17h-2.05v1.17h2.05Zm-2.05,1.09v1.17h2.05v-1.17h-2.05Z"/><path class="cls-4" d="M297.2,311.1v1.76h-1.5V300.24h4.68V311.1H297.2Zm0-9.21v7.56h1.73v-7.56H297.2Zm9.84,9.67c-0.75,2.24-2.34,3.7-6.16,4.53a3.78,3.78,0,0,0-.88-1.38c3.11-.61,4.53-1.61,5.22-3.15h-4.64v-1.44H302V304.6a2.62,2.62,0,0,1-.44.36,5.31,5.31,0,0,0-1.07-1.19,13.09,13.09,0,0,0,3.84-5.24l1.71,0.25q-0.26.6-.58,1.21h2.76l0.25-.08,1.09,0.71a19.4,19.4,0,0,1-1.46,2.44h3.3v7.06h1.17v1.44H307Zm-2.34-10.17a19.15,19.15,0,0,1-1.19,1.67h2.86a10.15,10.15,0,0,0,1-1.67H304.7Zm-1.17,3.11v3.2a8.74,8.74,0,0,0,2.78-3.2h-2.78Zm2.11,5.62c0.1-.5.15-1.05,0.21-1.65h1.73c-0.06.58-.12,1.13-0.21,1.65h2.51v-2.44l-0.71.82a17.52,17.52,0,0,0-2.57-1.94,10.86,10.86,0,0,1-2,2.05,6.86,6.86,0,0,0-1-.77v2.26h2.11Zm2.63,1.57c1.42,1,3.41,2.44,4.43,3.32l-1.15,1.13c-0.94-.9-2.92-2.42-4.35-3.49Zm1.61-7.19h-2.63l0.52,0.13a9.26,9.26,0,0,1-.52,1,18.29,18.29,0,0,1,2.63,1.82V304.5Z"/><path class="cls-4" d="M321.74,313.4a12.67,12.67,0,0,0,4.14.5c1.15,0,6.62,0,8,0a6,6,0,0,0-.71,1.76h-7.33c-3.82,0-6.1-.56-7.54-3a12.88,12.88,0,0,1-1,3.63,15.88,15.88,0,0,0-1.51-.81c1-1.92,1.25-5,1.3-8.34l1.65,0.13c0,0.86-.06,1.73-0.12,2.53a6.16,6.16,0,0,0,1.44,2.59v-6.6h-3.8v-1.57h3.43V302.1h-3v-1.57h3v-2h1.67v2h2.67v1.57h-2.67v2.13h3.15v1.57h-2.8v2.51h2.61v1.55h-2.61v3.53Zm6.25-.59c-2,0-2.55-.52-2.55-2.63V299.34h7.21v7h-5.49v3.8c0,0.86.15,1,1,1h3c0.77,0,.92-0.46,1-2.57a4.94,4.94,0,0,0,1.55.69c-0.23,2.65-.69,3.49-2.46,3.49H328Zm-0.82-11.89v3.91h3.78v-3.91h-3.78Z"/><path class="cls-4" d="M346.83,310a5.93,5.93,0,0,1-1.59,3c2.46,1,5.68,1.17,9.74,1.21a4.43,4.43,0,0,0-.75,1.76c-4.3-.15-7.79-0.48-10.47-1.8a16.54,16.54,0,0,1-5.33,1.94,7.8,7.8,0,0,0-1.09-1.57,18,18,0,0,0,4.76-1.4,9.26,9.26,0,0,1-2.23-2.47l1.55-.61a7.77,7.77,0,0,0,2.15,2.11,4.51,4.51,0,0,0,1.36-2.17h-5.52v-7.56h5.81v-1.38h-7.5v-1.61h16.59v1.61h-7.23v1.38h6V310h-6.27Zm-5.74-4.47h4.12v-1.63H341.1v1.63Zm4.09,3a7.6,7.6,0,0,0,0-.94v-0.69H341.1v1.63h4.09Zm6.16-1.63h-4.26v0.71a7.28,7.28,0,0,1,0,.92h4.3v-1.63Zm-4.26-3v1.63h4.26v-1.63h-4.26Z"/><path class="cls-4" d="M375.63,307.59c-2.67,5.7-9.05,7.83-16,8.57a6,6,0,0,0-.71-1.73,30.74,30.74,0,0,0,8.65-1.84,24.28,24.28,0,0,0-2.4-2.13q-1.27.66-2.76,1.27a5.18,5.18,0,0,0-1.11-1.38,16.77,16.77,0,0,0,8-5.2l2,0.44A16.1,16.1,0,0,1,370,307h4.1l0.31-.08Zm-2.69-6.85c-2.44,4.32-7.94,6.77-13.1,7.81A7.32,7.32,0,0,0,359,307a26.74,26.74,0,0,0,6.06-1.76,15.8,15.8,0,0,0-2.28-2c-0.63.35-1.3,0.71-2,1a5.51,5.51,0,0,0-1.21-1.28,16.32,16.32,0,0,0,6.58-4.51l1.94,0.44a11.88,11.88,0,0,1-1.19,1.23h4.58l0.31-.1Zm-7.9,1a9.54,9.54,0,0,1-.9.63,20.94,20.94,0,0,1,2.51,2.07,13.05,13.05,0,0,0,3.53-2.7H365Zm3.11,6.85c-0.46.36-1,.71-1.5,1.06a23.51,23.51,0,0,1,2.57,2.19,10.8,10.8,0,0,0,3.74-3.24h-4.81Z"/><path class="cls-4" d="M389.13,298.55c0,0.73,0,1.73-.13,2.86,0.27,2.4,1.44,10.05,8.13,13a5.29,5.29,0,0,0-1.3,1.52c-4.51-2.13-6.6-6.35-7.62-9.78a15.28,15.28,0,0,1-7.33,9.88,5.53,5.53,0,0,0-1.48-1.42c7.84-4.07,7.63-13,7.69-16.07h2Z"/><path class="cls-4" d="M417.57,301.47s0,0.61,0,.84c-0.27,8.65-.5,11.62-1.27,12.58a2.14,2.14,0,0,1-1.67.9,20.6,20.6,0,0,1-2.9,0,4.17,4.17,0,0,0-.58-1.73c1.23,0.1,2.34.12,2.82,0.12a0.86,0.86,0,0,0,.81-0.33c0.61-.63.86-3.53,1.11-10.76h-4.53a19.33,19.33,0,0,1-1.75,3.22,9.43,9.43,0,0,0-1.4-1v8.8H403v1.46h-1.63v-14h2.15a22.49,22.49,0,0,0,.67-3.11l1.94,0.33c-0.33,1-.69,2-1,2.78h3.07v3.63a18.33,18.33,0,0,0,2.86-6.73l1.73,0.4c-0.23.88-.48,1.76-0.79,2.61h5.56ZM403,303.12v3.64h3.57v-3.64H403Zm3.57,9.44v-4.24H403v4.24h3.57Zm6.39-1.5a31.26,31.26,0,0,0-2.8-4.43l1.4-.79a34.42,34.42,0,0,1,2.9,4.28Z"/><path class="cls-4" d="M428.33,303.22a25.77,25.77,0,0,1-2.09,2.93v10h-1.78v-8a25.46,25.46,0,0,1-1.9,1.73,9.91,9.91,0,0,0-1.23-1.52,20.36,20.36,0,0,0,5.31-5.75Zm-0.73-4a25.29,25.29,0,0,1-5.06,4.85,8.14,8.14,0,0,0-1-1.44,17.35,17.35,0,0,0,4.37-4.12Zm11.51,7.37h-2.76v7.38c0,1-.23,1.53-1,1.82a12,12,0,0,1-3.62.29,7.15,7.15,0,0,0-.58-1.78c1.23,0,2.51,0,2.86,0s0.48-.1.48-0.36v-7.37h-6.06v-1.71h10.65v1.71Zm-0.54-5.24h-9.3v-1.71h9.3v1.71Z"/><path class="cls-4" d="M459.93,302.87s0,0.61,0,.82c-0.21,7.92-.38,10.65-1,11.47a1.7,1.7,0,0,1-1.36.83,13.42,13.42,0,0,1-2.36,0,4.73,4.73,0,0,0-.5-1.69c0.88,0.08,1.67.08,2,.08a0.73,0.73,0,0,0,.69-0.31c0.42-.54.61-3,0.77-9.57H455.9c-0.25,5.1-1.11,9.17-4.41,11.7a6,6,0,0,0-1.29-1.32,4.36,4.36,0,0,0,.35-0.27c-2.76.33-5.52,0.61-7.58,0.81l-0.23-1.52c1.11-.08,2.49-0.19,4-0.33v-1.46h-3.49v-1.3h3.49v-1h-3.43v-5.77h3.43v-1h-4v-1.32h4v-1.07c-1.17.1-2.34,0.15-3.41,0.19a5.35,5.35,0,0,0-.42-1.29,59.59,59.59,0,0,0,8.23-.94L452,300c-1,.21-2.28.4-3.61,0.54v1.23h3.88v1.11h2c0-1.3,0-2.67,0-4.1H456c0,1.42,0,2.8,0,4.1h4Zm-15.15,3.55h2v-1.17h-2v1.17Zm2,2.26v-1.17h-2v1.17h2Zm1.63,4.76c1.19-.12,2.42-0.23,3.63-0.36,1.57-2.17,2.05-5.06,2.21-8.55h-2v-1.44h-3.8v1h3.57v5.77h-3.57v1H452v1.3h-3.61v1.3Zm2.05-7v-1.17h-2.05v1.17h2.05Zm-2.05,1.09v1.17h2.05v-1.17h-2.05Z"/><path class="cls-4" d="M464.13,314.76a10,10,0,0,0,2.3-3.3l1.48,0.65a11.66,11.66,0,0,1-2.32,3.51Zm16.72-10.51h-16.4v-1.42h4.24a8.73,8.73,0,0,0-.56-1.38l1.29-.29h-4.08v-1.4h6.54a9.81,9.81,0,0,0-.5-1.11l1.73-.33a9.27,9.27,0,0,1,.73,1.44h6v1.4H476l1.3,0.27c-0.29.52-.54,1-0.79,1.4h4.33v1.42Zm-2.15,6.48H472.4a12.5,12.5,0,0,1,2.44,1.61l-1.09,1.11a15.58,15.58,0,0,0-3-2.05l0.73-.67h-4.81v-5.66h12v5.66Zm-1.76-4.47h-8.59v1.09h8.59v-1.09Zm0,2.21h-8.59v1.09h8.59v-1.09Zm-2.36,6c0.75,0,.88-0.21,1-1.76a5.88,5.88,0,0,0,1.53.58c-0.21,2.13-.69,2.65-2.34,2.65h-3.38c-2.15,0-2.67-.42-2.67-2v-2.28h1.73v2.26c0,0.48.17,0.56,1.11,0.56h3Zm-4.79-13.31a7.39,7.39,0,0,1,.73,1.67h4.18a15.48,15.48,0,0,0,.73-1.67h-5.64Zm8.71,10.11a15.64,15.64,0,0,1,2.46,3.36l-1.53.71a14.68,14.68,0,0,0-2.34-3.41Z"/><path class="cls-4" d="M485.18,301.7h5.41v1.44h-5.41V301.7Zm5,13.33h-3.13v0.84h-1.3v-6.44h4.43V315Zm0-9.36h-4.39v-1.4h4.39v1.4Zm-4.39,1.15h4.39v1.4h-4.39v-1.4Zm1.92-5.22a14.71,14.71,0,0,0-1.25-2.55l1.25-.5A14.23,14.23,0,0,1,489,301Zm-0.63,9.23v2.8h1.8v-2.8h-1.8Zm15-3.59a19.67,19.67,0,0,1-2.28,4.68c0.27,1.29.59,2,1,2.05s0.46-.86.56-2.36a5.32,5.32,0,0,0,1.19,1c-0.42,2.78-1.15,3.43-1.78,3.43-0.92,0-1.59-.92-2.09-2.51a14.57,14.57,0,0,1-2.65,2.49,7.09,7.09,0,0,0-1-1,9.16,9.16,0,0,0,1.34-1.11H495.1v-0.5h-2.26v1.36h-1.44v-8.13h5.18v7a13.83,13.83,0,0,0,1.57-1.88,52.11,52.11,0,0,1-.69-6h-6.79v-1.52H492a13.56,13.56,0,0,0-.42-2.05l1.27-.19a13.94,13.94,0,0,1,.52,2.24h0.94c0.17-.69.4-1.61,0.5-2.26l1.4,0.23c-0.21.69-.42,1.44-0.61,2h1.73c-0.1-1.78-.15-3.68-0.19-5.7h1.57c0,2,.08,3.91.17,5.7h3.38v1.52H499c0.1,1.5.23,2.84,0.38,4a16.76,16.76,0,0,0,1.25-3.15Zm-5.31-5.39H491v-1.4h2.36a10.73,10.73,0,0,0-.71-1.5l1.4-.4a12.18,12.18,0,0,1,.9,1.9h1.78v1.4Zm-3.89,6v1.5h2.26v-1.5h-2.26Zm2.26,4.28v-1.53h-2.26v1.53h2.26Zm5.47-8.71a18.17,18.17,0,0,0-1.38-3.34l1.32-.52a17.13,17.13,0,0,1,1.5,3.26Z"/><path class="cls-4" d="M512.75,310c1.48-.56,2.34-1.44,2.44-2.59a1.16,1.16,0,0,1-.27,0,1.5,1.5,0,0,1-1.61-1.53,1.52,1.52,0,0,1,1.63-1.53c1.21,0,1.84.94,1.84,2.4a4.67,4.67,0,0,1-3.53,4.49Z"/><path class="cls-4" d="M185.71,342.5v1.82h-17V342.5h5.54v-9.63h-5.08V331.1h4.12a14.29,14.29,0,0,0-1.63-3l1.59-.59A12.93,12.93,0,0,1,175,330.7l-0.94.4h5.54l-0.38-.13a19.63,19.63,0,0,0,1.86-3.49l2,0.56c-0.61,1.07-1.3,2.21-1.92,3.07h4.07v1.76h-5.18v9.63h5.64Zm-14.15-8a22.09,22.09,0,0,1,1.82,5.93l-1.73.46a21.5,21.5,0,0,0-1.69-6Zm4.45,8h2.28v-9.63H176v9.63Zm4.72-2.05a35.2,35.2,0,0,0,2-6.08l1.92,0.44a58.45,58.45,0,0,1-2.26,6.1Z"/><path class="cls-4" d="M195.23,332a22.05,22.05,0,0,1-1.55,2.4v10.72H192v-8.73a16.21,16.21,0,0,1-1.88,1.78,13.58,13.58,0,0,0-1-1.63,16.78,16.78,0,0,0,4.51-5.1Zm-0.38-3.91a19.85,19.85,0,0,1-4.55,4.58,10.24,10.24,0,0,0-1-1.29,15.08,15.08,0,0,0,3.89-3.91Zm7.21,15.06a10.53,10.53,0,0,0,1.59.11c0.48,0,2.8,0,3.45,0a5.31,5.31,0,0,0-.54,1.61H203.5c-2.71,0-4.72-.65-6-3.26a8.62,8.62,0,0,1-2.17,3.45,9.08,9.08,0,0,0-1.36-1.17c1.88-1.55,2.53-4.16,2.72-7.5l1.73,0.11c-0.08,1-.17,1.92-0.33,2.76a5.25,5.25,0,0,0,2.32,3.32v-7.52h0.46a10.53,10.53,0,0,0-1.09-.81c1.9-1.42,2.93-3.8,3.34-6.77l1.71,0.23a18.21,18.21,0,0,1-.75,3.13,25.58,25.58,0,0,1,3.15,3.22L206,335.27a21.66,21.66,0,0,0-2.59-2.88,10.35,10.35,0,0,1-1.94,2.69h0.58v3h4v1.52h-4v3.61Zm-2-9.48a17.36,17.36,0,0,0-1.76-1.61,11.12,11.12,0,0,1-2.4,3.43,8.68,8.68,0,0,0-1.29-1.21A11.45,11.45,0,0,0,198,327.5l1.71,0.29a21.46,21.46,0,0,1-.79,2.86,14.9,14.9,0,0,1,2,1.67Z"/><path class="cls-4" d="M227.11,330.85V340h-1.86v-1h-5v6.1H218.4V339h-5v1.13h-1.78v-9.26h6.75v-3.34h1.86v3.34h6.85Zm-8.71,6.39V332.6h-5v4.64h5Zm6.85,0V332.6h-5v4.64h5Z"/><path class="cls-4" d="M238.53,337.26l-2.4.71v5a1.49,1.49,0,0,1-.75,1.63,6.52,6.52,0,0,1-2.72.33,6.57,6.57,0,0,0-.52-1.61c0.82,0,1.65,0,1.88,0a0.32,0.32,0,0,0,.37-0.38v-4.53l-2.32.63-0.48-1.71c0.79-.19,1.75-0.4,2.8-0.69v-3.78h-2.55v-1.65h2.55v-3.74h1.75v3.74h2.21v1.65h-2.21v3.32c0.71-.19,1.46-0.38,2.19-0.59Zm9.55-1.84a18.86,18.86,0,0,1-3.38,5c0.61,1.46,1.4,2.34,2.34,2.46,0.48,0,.77-1,0.92-3a5.45,5.45,0,0,0,1.5,1c-0.46,3.28-1.32,4.22-2.34,4.12-1.69-.15-2.93-1.29-3.86-3.17a17.48,17.48,0,0,1-4,2.65,7.16,7.16,0,0,0-1.44-1.4,15.13,15.13,0,0,0,4.72-3,34.12,34.12,0,0,1-1.17-5.87l-2.69.27-0.17-1.71,2.7-.25c-0.13-1.55-.23-3.18-0.31-4.89h1.8c0.06,1.65.13,3.22,0.29,4.7l5.79-.59,0.17,1.69-5.79.59a31.33,31.33,0,0,0,.86,4.56,17.25,17.25,0,0,0,2.57-4Zm-1.76-3.82a18.36,18.36,0,0,0-2.51-2.86l1.34-.88a24.49,24.49,0,0,1,2.63,2.72Z"/><path class="cls-4" d="M269.2,337v8.09h-2V344H253.92v-7h2v5.26h4.64v-6.37h-5.72v-6.71h1.88v5h3.84v-6.64h2v6.64h4v-5h2v6.71h-5.93v6.37h4.7V337h2Z"/><path class="cls-4" d="M291.23,330.6h-2.28v12.12c0,1.15-.29,1.75-1.09,2a13,13,0,0,1-4.09.35,7.9,7.9,0,0,0-.75-1.92c1.46,0.08,3,.06,3.51.06s0.56-.13.56-0.54V330.6H274.2v-1.78h17v1.78Zm-13.43,9.72v1.5h-1.73v-8.71H284v7.21H277.8Zm0-5.52v3.84h4.41V334.8H277.8Z"/><path class="cls-4" d="M303.11,339.68c-2.61,1.19-5.43,2.4-7.56,3.3l-0.65-1.86c0.73-.27,1.63-0.61,2.61-1l-0.36-11.53,1.86-.08,0.33,10.86,3.36-1.42Zm8.19,5.39a42.55,42.55,0,0,0-4-4.85,13.68,13.68,0,0,1-6.23,4.93,9,9,0,0,0-1.44-1.57c6.37-2.36,8.36-7,9.15-15.06l2,0.19a29.16,29.16,0,0,1-2.44,9.82,47.83,47.83,0,0,1,4.47,5.1ZM304,335.3a19.06,19.06,0,0,0-2.92-4.7l1.63-.79a18.35,18.35,0,0,1,3,4.56Z"/><path class="cls-4" d="M322.08,337.32l-1.9.59v5a1.59,1.59,0,0,1-.67,1.63,5.48,5.48,0,0,1-2.49.35,6.43,6.43,0,0,0-.5-1.65c0.77,0,1.5,0,1.71,0a0.28,0.28,0,0,0,.33-0.35v-4.55l-2.24.71-0.4-1.73c0.73-.19,1.65-0.44,2.65-0.75v-3.76h-2.36v-1.67h2.36v-3.7h1.63v3.7H322v1.67h-1.8v3.3l1.67-.5Zm11.6-7.48v1.65h-4.81v2h4v1.63h-9.59v-1.63h3.93v-2h-4.91v-1.65h4.91v-2.26h1.71v2.26h4.81ZM331.33,337h2.26v1.63h-2.26v4.47c0,1-.19,1.44-0.81,1.71a8.54,8.54,0,0,1-3,.29,6.7,6.7,0,0,0-.54-1.69c1,0,2,0,2.26,0s0.37-.1.37-0.35v-4.45h-7.15V337h7.15v-1.52h1.69V337Zm-6.21,2a33.56,33.56,0,0,1,2.15,3.26l-1.5.86a26.5,26.5,0,0,0-2.05-3.38Z"/><path class="cls-4" d="M339.39,340.08a26.63,26.63,0,0,1-.94,4.91,7.34,7.34,0,0,0-1.34-.46,22.05,22.05,0,0,0,.88-4.7Zm3.11-.79c0-.31-0.12-0.65-0.19-1.05-3.59.54-4.16,0.67-4.55,0.88a9.58,9.58,0,0,0-.5-1.48,3.43,3.43,0,0,0,1.36-1.3,21.25,21.25,0,0,0,1.34-2,9.08,9.08,0,0,0-2.34.42,12,12,0,0,0-.5-1.46,2,2,0,0,0,1-1.06,23.15,23.15,0,0,0,2.21-4.81l1.5,0.61a29,29,0,0,1-2.55,4.93l1.61-.13c0.44-.82.9-1.73,1.29-2.59l1.38,0.81a35.87,35.87,0,0,1-3.87,6.1l2.34-.31c-0.15-.58-0.33-1.17-0.5-1.69l1.23-.33a29.17,29.17,0,0,1,1.06,4Zm-1.4.5a38.42,38.42,0,0,1,.5,4.39l-1.32.25a38.08,38.08,0,0,0-.4-4.43Zm1.67-.48a30.75,30.75,0,0,1,1,3.49l-1.21.38a29.15,29.15,0,0,0-.94-3.55Zm8.25,3c1.36,0.48,2.8,1.05,3.74,1.48L354,345.09c-1-.48-2.63-1.21-4.07-1.75l0.58-1h-3.11l1.05,1c-1.46.67-3.32,1.38-4.66,1.88a7.25,7.25,0,0,0-.67-1.25,34.59,34.59,0,0,0,3.89-1.61h-2.8V336.7h9.51v5.64H351Zm-2.78-12.7h-4.72v-1.21h4.72V327.5H350v0.94h4.49v1.21H350v0.84h3.82v1.15h-9.53v-1.15h4v-0.84Zm-4.62,2.65h10.78V336H343.61v-3.68Zm1.48,2.53h1.8v-1.38h-1.8v1.38Zm0.75,3.57h6.27V337.7h-6.27v0.69Zm0,1.46h6.27v-0.71h-6.27v0.71Zm0,1.52h6.27V340.6h-6.27v0.77Zm4.08-6.54v-1.38h-1.67v1.38h1.67Zm2.92-1.38h-1.55v1.38h1.55v-1.38Z"/><path class="cls-4" d="M375.49,330.43a26.28,26.28,0,0,1-2.51,2,13.7,13.7,0,0,0,3,1.21,7.72,7.72,0,0,0-1.07,1.4,12.09,12.09,0,0,1-2.49-1.07v2.17c0,0.44.06,0.58,0.33,0.58H374a4.81,4.81,0,0,0,.94-0.08c0,0.36.06,0.88,0.12,1.25a3.72,3.72,0,0,1-1,.1h-1.4c-1.34,0-1.61-.54-1.61-1.86v-1.52h-2.24v0.08a4.15,4.15,0,0,1-2.07,3.82,6.17,6.17,0,0,0-1.07-1v0.31h-3.91c-0.08.56-.15,1.13-0.25,1.65h4.2s0,0.46-.06.69c-0.23,2.63-.44,3.78-0.92,4.28a1.9,1.9,0,0,1-1.36.52,21.83,21.83,0,0,1-2.53,0,3.51,3.51,0,0,0-.54-1.52c1,0.1,2,.11,2.4.11a0.93,0.93,0,0,0,.69-0.17c0.25-.23.44-1,0.59-2.57h-4.2c0.25-1.17.54-2.93,0.69-4.35H364v-1.73h-3v-0.27a17.4,17.4,0,0,1-2,.84,6.46,6.46,0,0,0-1-1.32,13.61,13.61,0,0,0,3.51-1.65,15.29,15.29,0,0,0-2-1.44l1-1a16.49,16.49,0,0,1,2.17,1.48,8.82,8.82,0,0,0,1.51-1.67h-4.14v-1.42h5.08l0.29-.06,1.13,0.54a11.06,11.06,0,0,1-3.8,4.53h2.71v4a2.77,2.77,0,0,0,1.63-2.69v-1.44h4A12.83,12.83,0,0,1,367,328l1.42-.42a11.48,11.48,0,0,0,1.27,2.07,15.92,15.92,0,0,0,2.17-2l1.28,0.92a24,24,0,0,1-2.57,2.05,10.57,10.57,0,0,0,1.23,1,22.42,22.42,0,0,0,2.4-2.11Zm-1.4,8.57a8.48,8.48,0,0,1-2.3,3.45c0.94,0.56,1.8,1.09,2.42,1.52l-0.92,1.17c-0.67-.5-1.63-1.11-2.71-1.76a13.77,13.77,0,0,1-4.32,1.75,5,5,0,0,0-.79-1.3,12.42,12.42,0,0,0,3.7-1.28c-1-.59-2-1.17-2.86-1.67l0.81-.92h-0.67v-1.27h6.37l0.27,0Zm-6.77.94c1,0.52,2.07,1.11,3.15,1.75a8.28,8.28,0,0,0,1.54-1.75h-4.68Z"/><path class="cls-4" d="M385.32,337.14l-2,.63v5.35a1.61,1.61,0,0,1-.69,1.65,5.73,5.73,0,0,1-2.49.33,5.68,5.68,0,0,0-.48-1.65c0.77,0,1.48,0,1.69,0s0.34-.06.34-0.33v-4.85c-0.75.23-1.46,0.44-2.09,0.65l-0.4-1.73c0.69-.17,1.55-0.42,2.49-0.69v-3.64h-2.22v-1.65h2.22v-3.7h1.63v3.7h1.92v1.65h-1.92V336l1.75-.52ZM397,342.63H391.9v2.49h-1.65v-2.49h-5.16v-1.48h5.16V340.1h-3.86v-6h3.86v-1.07h-4.12v-1.4h4.12v-1.48h1.65v1.48h4.3v1.4h-4.3v1.07h4v6h-4v1.05H397v1.48Zm-9.69-11.37h-1.55v-3h10.82v3h-1.61v-1.57h-7.65v1.57Zm0.67,5.27h2.3v-1.17h-2.3v1.17Zm2.3,2.34v-1.21h-2.3v1.21h2.3Zm1.65-3.51v1.17h2.4v-1.17h-2.4Zm2.4,2.3h-2.4v1.21h2.4v-1.21Z"/><path class="cls-4" d="M404.08,341.23a11.89,11.89,0,0,1-2,3.2,12.76,12.76,0,0,0-1.25-1,9,9,0,0,0,1.78-2.67Zm7.12-5.29H400.84v-1.4h4.35a3.71,3.71,0,0,0-.37-0.73l1.54-.33h-4.62v-5.31h8.8v5.31h-4a7.79,7.79,0,0,1,.58,1.05h4.08v1.4Zm-4.28,4.58v2.86a1.23,1.23,0,0,1-.67,1.4,6.34,6.34,0,0,1-2.32.25,4.91,4.91,0,0,0-.54-1.46c0.69,0,1.34,0,1.52,0s0.27-.06.27-0.23v-2.84H402v-3.78h8.34v3.78h-3.38Zm-3.49-10.26h5.35v-0.94h-5.35v0.94Zm0,2.07h5.35v-1h-5.35v1Zm0.19,7h4.95V338h-4.95v1.34Zm14.52-.29a16.13,16.13,0,0,1-6.43,5.95,6.28,6.28,0,0,0-1.17-1.32l-1.29.63a17.17,17.17,0,0,0-1.63-3l1.27-.56a22,22,0,0,1,1.69,2.78,13.64,13.64,0,0,0,5.89-5.14Zm-0.88-10.47a19.09,19.09,0,0,1-5,4.53,7.75,7.75,0,0,0-1.27-1.23,14.89,14.89,0,0,0,4.6-4Zm0.5,5.14a19.15,19.15,0,0,1-5.52,4.79,7,7,0,0,0-1.23-1.27,15.71,15.71,0,0,0,5.12-4.22Z"/><path class="cls-4" d="M427.72,331.51a8.73,8.73,0,0,1-5.22,4.93,5.46,5.46,0,0,0-.71-1.11,8.59,8.59,0,0,0,3.66-2.32,12.12,12.12,0,0,0-3.07.48v0c-0.08-.25-0.23-0.84-0.36-1.15a2.78,2.78,0,0,0,1.13-.56c0.21-.15.59-0.46,1.05-0.86a6.2,6.2,0,0,0-1.78.27c-0.08-.27-0.25-0.86-0.38-1.19a1.56,1.56,0,0,0,.75-0.44,9.51,9.51,0,0,0,1.78-2.13l1.09,0.61a13.1,13.1,0,0,1-1.84,2l1.4-.08a14.07,14.07,0,0,0,1-1.13l1,0.65a21.74,21.74,0,0,1-3.07,2.76l2-.17a5.52,5.52,0,0,0,.37-0.84l1.21,0.25v-2.93h1.48v0h0.4a6.22,6.22,0,0,0-.4-0.88l1.4-.36a4.73,4.73,0,0,1,.61,1.25h2V333h-0.79a9.66,9.66,0,0,1,1.52,1.82v-6.71h3.93l0.21-.08,1,0.52c-0.44,1-1,1.86-1.44,2.74a3.12,3.12,0,0,1,1.46,2.23,1.59,1.59,0,0,1-.73,1.44,2.3,2.3,0,0,1-.86.29,8.55,8.55,0,0,1-1.42,0,2.55,2.55,0,0,0-.42-1.25,9.54,9.54,0,0,0,1.23,0,1.51,1.51,0,0,0,.48-0.1,0.6,0.6,0,0,0,.33-0.63c0-.46-0.46-1-1.53-1.8,0.38-.77.73-1.5,1-2.15h-1.8v6.58h-1.44v-1.05l-1.06.56a6.16,6.16,0,0,0-.58-0.88c-3.84.84-4.39,1-4.74,1.19a4,4,0,0,0-.56-1.23,1.08,1.08,0,0,0,.71-1.11v-1.88Zm7.15,5.95c-0.35.4-.65,0.81-1,1.11H439v1.21H421.89v-1.21H427a4.29,4.29,0,0,0-.69-1l0.63-.19h-3v-1.15h5.79c-0.12-.27-0.23-0.54-0.35-0.77l1.67-.4a5.94,5.94,0,0,1,.56,1.17h5.77v1.15h-2.63Zm-10.3,3h12v4.66h-1.73v-0.48H426.2v0.48h-1.63v-4.66Zm1.63,1v0.73h8.61V341.4H426.2Zm8.61,2.28v-0.75H426.2v0.75h8.61Zm-2.55-5.12c0.23-.33.54-0.79,0.77-1.17h-5.1a4.73,4.73,0,0,1,.65,1.07l-0.31.1h4Zm-3.07-9.11v0.82h2.61v-0.82h-2.61Zm0,2.59h2.61V331.2h-2.61V332Zm2.23,1.5a6.34,6.34,0,0,0-.52-0.5l0.15-.08h-1.86v1Z"/><path class="cls-4" d="M459.33,331.56s0,0.63,0,.88c-0.42,7.77-.79,10.61-1.63,11.58a2.33,2.33,0,0,1-1.76.88,22.75,22.75,0,0,1-3,0,4.5,4.5,0,0,0-.63-1.84c1.27,0.12,2.44.12,2.92,0.12a1.08,1.08,0,0,0,.88-0.29c0.65-.61,1.05-3.24,1.38-9.51h-6c-0.29,4-1.59,8.59-7,11.82a7.54,7.54,0,0,0-1.38-1.44,12.31,12.31,0,0,0,6.52-10.38h-5.95v-1.82h6v-4h1.88v4h7.86Z"/><path class="cls-4" d="M480.88,330.47s0,0.61,0,.84c-0.27,8.65-.5,11.62-1.27,12.58a2.14,2.14,0,0,1-1.67.9,20.6,20.6,0,0,1-2.9,0,4.17,4.17,0,0,0-.58-1.73c1.23,0.1,2.34.12,2.82,0.12a0.86,0.86,0,0,0,.81-0.33c0.61-.63.86-3.53,1.11-10.76h-4.53a19.33,19.33,0,0,1-1.75,3.22,9.43,9.43,0,0,0-1.4-1v8.8h-5.2v1.46h-1.63v-14h2.15a22.49,22.49,0,0,0,.67-3.11l1.94,0.33c-0.33,1-.69,2-1,2.78h3.07v3.63a18.33,18.33,0,0,0,2.86-6.73l1.73,0.4c-0.23.88-.48,1.76-0.79,2.61h5.56Zm-14.56,1.65v3.64h3.57v-3.64h-3.57Zm3.57,9.44v-4.24h-3.57v4.24h3.57Zm6.39-1.5a31.26,31.26,0,0,0-2.8-4.43l1.4-.79a34.42,34.42,0,0,1,2.9,4.28Z"/><path class="cls-4" d="M490.34,338.31a27.71,27.71,0,0,0-1.13-2.59v9.38H487.6v-8.4a19.45,19.45,0,0,1-1.92,4.6,9.58,9.58,0,0,0-.86-1.78,21.48,21.48,0,0,0,2.67-6.75h-2.22v-1.65h2.34V327.5h1.61v3.63h2.07v1.63h-2.07v0.58c0.5,0.75,1.92,3.16,2.22,3.74ZM497.7,341c1.57,0.81,3.78,2,4.93,2.76L501.52,345c-1.11-.77-3.32-2.05-4.93-2.92l1.05-1.11h-0.79c-0.75,2-2.28,3.3-5.64,4.12a5.78,5.78,0,0,0-.94-1.44c2.65-.54,4-1.42,4.66-2.69h-4.12v-1.5h4.66a10,10,0,0,0,.23-1.38h-3.78v-6.06h9.42v6.06h-3.87c-0.06.5-.12,0.94-0.21,1.38h4.95V341H497.7Zm-4.41-10.57h-2.17V329h2.17v-1.46h1.59V329h1.46v1.46h-1.46v1.21h-1.59v-1.21Zm0.31,4h6v-1.11h-6v1.11Zm0,2.36h6v-1.13h-6v1.13Zm4.78-6.43H496.9V329h1.48v-1.44H500V329h2.44v1.46H500v1.23h-1.59v-1.23Z"/><path class="cls-4" d="M518,332.66c0.42,6,1.76,10.61,3.43,10.61,0.46,0,.69-1,0.81-3.53a4.51,4.51,0,0,0,1.57,1c-0.31,3.45-.94,4.39-2.53,4.39-3.16,0-4.68-5.58-5.16-12.49h-9.72v-1.75H516c0-1.09-.08-2.21-0.08-3.32h1.92c0,1.11,0,2.24,0,3.32h5.5v1.75H518ZM512,341.71c1.27-.23,2.57-0.5,3.86-0.77l0.13,1.61c-3.18.73-6.62,1.48-9.07,2l-0.52-1.8c1-.17,2.36-0.42,3.82-0.69v-5.14h-3.18v-1.73h8.32v1.73H512v4.78Zm8-14.12a14.52,14.52,0,0,1,2.67,2.21l-1.25,1.11a15,15,0,0,0-2.59-2.34Z"/><path class="cls-4" d="M533,342.3a1.49,1.49,0,0,1,1.46-1.57,1.5,1.5,0,0,1,1.5,1.57,1.47,1.47,0,0,1-1.5,1.53A1.45,1.45,0,0,1,533,342.3Zm0.42-10.89-0.06-2.26h2.22l-0.08,2.26-0.31,7.67H533.7Z"/><path class="cls-6" d="M574.29,405.76a28.77,28.77,0,0,1-6.6,5.2v7.88c0,1.09-.29,1.63-1.11,1.88a13.58,13.58,0,0,1-4,.31,6,6,0,0,0-.71-1.8c1.5,0.06,3,.06,3.43,0s0.56-.12.56-0.46v-8.75a23.27,23.27,0,0,0,4.89-3.47H559v-1.76h13.46l0.4-.1Z"/><path class="cls-6" d="M591.8,405.84a6.05,6.05,0,0,1-3.62,5.06,4.9,4.9,0,0,0-.84-1.11v9.38a1.5,1.5,0,0,1-.67,1.53,6.61,6.61,0,0,1-2.55.27,5.67,5.67,0,0,0-.56-1.5c0.92,0,1.73,0,2,0a0.3,0.3,0,0,0,.34-0.35V416H581.6a11.32,11.32,0,0,1-1.48,5,7,7,0,0,0-1.27-.79c1.29-2,1.42-4.83,1.42-7v-3l-0.17.21a12,12,0,0,0-1.3-1.06,13.86,13.86,0,0,0,2.9-6l1.63,0.36c-0.13.46-.27,0.92-0.42,1.38h2l0.25-.08,1,0.65a24.6,24.6,0,0,1-1.15,2.53h2.28v1.38a4.65,4.65,0,0,0,2.82-3.78h-2.38v-1.48h8.34s0,0.42,0,.61c-0.13,3.11-.31,4.39-0.71,4.85a1.44,1.44,0,0,1-1.09.54,12.31,12.31,0,0,1-1.94,0,4.33,4.33,0,0,0-.4-1.48,13.68,13.68,0,0,0,1.55.08,0.52,0.52,0,0,0,.52-0.17c0.21-.23.35-1,0.44-3H591.8Zm-9.44.67c-0.25.59-.52,1.19-0.81,1.73h2a16.21,16.21,0,0,0,.71-1.73h-1.86Zm-0.65,6.77c0,0.44,0,.9,0,1.38h1.48v-1.94h-1.46v0.56Zm0-1.88h1.46v-1.82h-1.46v1.82Zm2.7,0h1.44v-1.82h-1.44v1.82Zm1.44,3.26v-1.94h-1.44v1.94h1.44Zm10.78,2.88h-3.49v3.38h-1.69v-3.38h-3.8V416h3.8v-2.07h-1.88a9.44,9.44,0,0,1-.9,1.71,8.13,8.13,0,0,0-1.34-.71,10.88,10.88,0,0,0,1.65-4.22l1.48,0.31q-0.14.69-.35,1.38h1.34v-1.84h1.69v1.84h3.13v1.53h-3.13V416h3.49v1.55Z"/><path class="cls-6" d="M609.7,414.91a5.93,5.93,0,0,1-1.59,3c2.46,1,5.68,1.17,9.74,1.21a4.43,4.43,0,0,0-.75,1.76c-4.3-.15-7.79-0.48-10.47-1.8A16.54,16.54,0,0,1,601.3,421a7.8,7.8,0,0,0-1.09-1.57,18,18,0,0,0,4.76-1.4,9.26,9.26,0,0,1-2.23-2.47l1.55-.61a7.77,7.77,0,0,0,2.15,2.11,4.51,4.51,0,0,0,1.36-2.17h-5.52v-7.56h5.81V406h-7.5v-1.61h16.59V406H610v1.38h6v7.56H609.7ZM604,410.44h4.12v-1.63H604v1.63Zm4.09,3a7.6,7.6,0,0,0,0-.94v-0.69H604v1.63h4.09Zm6.16-1.63H610v0.71a7.28,7.28,0,0,1,0,.92h4.3v-1.63Zm-4.26-3v1.63h4.26v-1.63H610Z"/><path class="cls-6" d="M638.5,412.49c-2.67,5.7-9.05,7.83-16,8.57a6,6,0,0,0-.71-1.73,30.74,30.74,0,0,0,8.65-1.84,24.28,24.28,0,0,0-2.4-2.13q-1.27.66-2.76,1.27a5.18,5.18,0,0,0-1.11-1.38,16.77,16.77,0,0,0,8-5.2l2,0.44a16.1,16.1,0,0,1-1.21,1.36H637l0.31-.08Zm-2.69-6.85c-2.44,4.32-7.94,6.77-13.1,7.81a7.32,7.32,0,0,0-.84-1.57,26.74,26.74,0,0,0,6.06-1.76,15.8,15.8,0,0,0-2.28-2c-0.63.35-1.3,0.71-2,1a5.51,5.51,0,0,0-1.21-1.28,16.32,16.32,0,0,0,6.58-4.51l1.94,0.44a11.88,11.88,0,0,1-1.19,1.23h4.58l0.31-.1Zm-7.9,1a9.54,9.54,0,0,1-.9.63,20.94,20.94,0,0,1,2.51,2.07,13.05,13.05,0,0,0,3.53-2.7h-5.14Zm3.11,6.85c-0.46.36-1,.71-1.5,1.06a23.51,23.51,0,0,1,2.57,2.19,10.8,10.8,0,0,0,3.74-3.24H631Z"/><path class="cls-6" d="M650.07,421.28v-18l15.61,9Z"/></svg>