<svg id="圖層_1" data-name="圖層 1" xmlns="http://www.w3.org/2000/svg" viewBox="0 0 78.67 141.96"><defs><style>.cls-1,.cls-4{fill:#ffcd32;}.cls-2,.cls-3{fill:none;}.cls-2,.cls-3,.cls-4{stroke:#006464;stroke-linecap:round;stroke-linejoin:round;}.cls-2{stroke-width:2.45px;}.cls-3,.cls-4{stroke-width:1.22px;}</style></defs><title>Re1_</title><path class="cls-1" d="M35.24,14.76c2.81-4.46,7.28-4.39,9.94.16l12.25,21c2.66,4.55.52,8.28-4.75,8.28H26.33c-5.28,0-7.29-3.65-4.48-8.12Z"/><path class="cls-1" d="M22.11,51.29a5.07,5.07,0,0,0-4.72,3.79l-5,22.71a3.9,3.9,0,0,0,3,4.63h0a3.89,3.89,0,0,0,4.63-2.94L23.59,63A3.64,3.64,0,0,1,28,60.15a4,4,0,0,1,2.77,4.7L27.35,82.28A48.48,48.48,0,0,0,26.61,90v35.32A3.77,3.77,0,0,1,23,129.17a3.76,3.76,0,0,0-3.62,3.88v.26a3.89,3.89,0,0,0,3.88,3.88h7.5a3.89,3.89,0,0,0,3.88-3.88V96.11a3.89,3.89,0,0,1,3.88-3.88h1.87a3.9,3.9,0,0,1,3.88,3.88v37.2a3.88,3.88,0,0,0,3.88,3.88h7.49a3.88,3.88,0,0,0,3.88-3.88v-.26a3.76,3.76,0,0,0-3.61-3.88,3.77,3.77,0,0,1-3.62-3.88V90a49.66,49.66,0,0,0-.72-7.69l-3.3-17.42A4.25,4.25,0,0,1,50.94,60a3.42,3.42,0,0,1,4.24,2.76l3.67,16.51a4,4,0,0,0,4.65,3l.18,0a3.74,3.74,0,0,0,2.95-4.52L61.5,55.08a5.09,5.09,0,0,0-4.73-3.79Z"/><line class="cls-2" x1="46.5" y1="29.69" x2="46.25" y2="31.79"/><polyline class="cls-3" points="43.65 29.64 46.6 28.24 49.84 30.39 51.28 29.87"/><polyline class="cls-4" points="42.74 23.98 47.11 24.29 48.7 25.47"/><line class="cls-2" x1="33.15" y1="29.69" x2="33.4" y2="31.79"/><polyline class="cls-3" points="36 29.64 33.06 28.24 29.81 30.39 28.37 29.87"/><path class="cls-1" d="M65,23.13a1.28,1.28,0,0,1-1.46,1.72c-3.44-.74-9.74-2.25-11.47-3.71a5.72,5.72,0,1,1,7.4-8.72C61.19,13.88,63.71,19.85,65,23.13Z"/><path class="cls-3" d="M35.09,37.81S37,41.24,40,39c0,0,2.69,2.2,4.84-1.23"/><path class="cls-3" d="M38.53,34s1.64,2.22,3.11,0"/><path class="cls-4" d="M41.28,15.88A49.65,49.65,0,0,1,25.63,30.74"/></svg>