<svg id="圖層_1" data-name="圖層 1" xmlns="http://www.w3.org/2000/svg" viewBox="0 0 78.67 141.96"><defs><style>.cls-1,.cls-2,.cls-3{fill:#ffcd32;}.cls-2,.cls-3{stroke:#006464;stroke-linecap:round;stroke-linejoin:round;}.cls-2{stroke-width:1.22px;}.cls-3{stroke-width:2.45px;}</style></defs><title>Re1_</title><path class="cls-1" d="M35.23,14.71c2.81-4.46,7.28-4.38,9.94.17l12.25,21c2.66,4.55.53,8.27-4.75,8.27H26.32c-5.27,0-7.29-3.65-4.48-8.11Z"/><path class="cls-1" d="M22.1,51.25A5.08,5.08,0,0,0,17.38,55l-5,22.71a3.91,3.91,0,0,0,3,4.64h0a3.9,3.9,0,0,0,4.63-2.94L23.59,63a3.63,3.63,0,0,1,4.35-2.89,4.06,4.06,0,0,1,2.78,4.71L27.34,82.24a49.44,49.44,0,0,0-.73,7.69v35.31A3.76,3.76,0,0,1,23,129.12,3.76,3.76,0,0,0,19.38,133v.27a3.89,3.89,0,0,0,3.88,3.88h7.49a3.89,3.89,0,0,0,3.88-3.88V96.06a3.89,3.89,0,0,1,3.88-3.87h1.87a3.88,3.88,0,0,1,3.88,3.87v37.21a3.9,3.9,0,0,0,3.88,3.88h7.5a3.9,3.9,0,0,0,3.88-3.88V133a3.77,3.77,0,0,0-3.62-3.88,3.76,3.76,0,0,1-3.61-3.88V89.93a50.93,50.93,0,0,0-.72-7.7L48.26,64.81A4.27,4.27,0,0,1,50.94,60a3.42,3.42,0,0,1,4.24,2.77l3.67,16.5A4,4,0,0,0,63.5,82.3l.18,0a3.74,3.74,0,0,0,2.95-4.52L61.5,55a5.09,5.09,0,0,0-4.74-3.78Z"/><path class="cls-1" d="M65,23.09a1.27,1.27,0,0,1-1.45,1.71c-3.44-.74-9.75-2.25-11.47-3.71a5.72,5.72,0,1,1,7.4-8.72C61.19,13.84,63.7,19.81,65,23.09Z"/><path class="cls-2" d="M34.69,19.5S41.17,5.26,51.51,35.14"/><path class="cls-2" d="M37.44,19.45s1.55-2.86,3.1-2.86"/><path class="cls-2" d="M33.62,39.15s1.78,1.1,6.92,1.1,6.28-1.1,6.28-1.1"/><polyline class="cls-2" points="38.67 39.35 40.54 39.7 42.29 39.35"/><path class="cls-2" d="M37.44,26s-3.67-1.83-5.4-1.53"/><path class="cls-2" d="M42.34,26s2.9-1.59,4.78-1.55"/><path class="cls-2" d="M37.44,28.67A3.84,3.84,0,0,0,34.23,27,3.22,3.22,0,0,0,31,28.67l-1.22-.18"/><path class="cls-2" d="M48.4,27.6A3.51,3.51,0,0,0,46.16,27,3.84,3.84,0,0,0,43,28.67"/><line class="cls-3" x1="34.23" y1="28.49" x2="34.23" y2="29.83"/><line class="cls-3" x1="46.02" y1="28.49" x2="46.02" y2="29.83"/><polyline class="cls-2" points="39.54 30.53 39.54 36.49 40.9 36.63"/></svg>