<svg id="圖層_1" data-name="圖層 1" xmlns="http://www.w3.org/2000/svg" viewBox="0 0 78.67 141.96"><defs><style>.cls-1,.cls-6{fill:#fff;}.cls-2,.cls-3,.cls-4,.cls-5,.cls-7,.cls-8{fill:none;}.cls-2,.cls-3,.cls-4,.cls-5,.cls-6,.cls-7,.cls-8{stroke:#00364b;stroke-linecap:round;stroke-linejoin:round;}.cls-2{stroke-width:1.53px;}.cls-3,.cls-6{stroke-width:1.24px;}.cls-4{stroke-width:1.86px;}.cls-5{stroke-width:0.62px;}.cls-7{stroke-width:1.65px;}.cls-8{stroke-width:5.7px;}</style></defs><title>Rethink Taiwan_Landing page animation 2</title><path class="cls-1" d="M34.94,15.25c2.84-4.51,7.36-4.43,10.05.17L57.37,36.61c2.69,4.6.53,8.37-4.8,8.37H25.93c-5.33,0-7.37-3.7-4.53-8.21Z"/><path class="cls-1" d="M22.32,49.5A2.51,2.51,0,0,1,20,45.75l3-7a3.9,3.9,0,0,0-2-5.12,4,4,0,0,0-5.17,2.07L8,52.91a2.57,2.57,0,0,0,2.3,3.87l17.35,1.29a3.41,3.41,0,0,1,3.16,4.14L27,82.22A49.5,49.5,0,0,0,26.22,90v35.7a3.81,3.81,0,0,1-3.66,3.92,3.81,3.81,0,0,0-3.65,3.92v.28a2.78,2.78,0,0,0,3.76,2.81l7.9-2.34a5.57,5.57,0,0,0,3.76-5v-22.5a23.37,23.37,0,0,1,.17-3.92h9.37a19.54,19.54,0,0,1,.2,3.92v23a5.37,5.37,0,0,0,3.79,4.92l7.84,2.07a2.88,2.88,0,0,0,3.79-2.92v-.28a3.81,3.81,0,0,0-3.65-3.92,3.81,3.81,0,0,1-3.66-3.92V90a50.71,50.71,0,0,0-.73-7.78L48.11,64.6a4.3,4.3,0,0,1,2.71-4.89,3.45,3.45,0,0,1,4.28,2.8l1.07,4.81a3.77,3.77,0,0,1-3,4.55l-.14,0a4.06,4.06,0,0,0-3.23,4.6l.83,5.21A4,4,0,0,0,55,85c2.08-.3,3.57-1.84,3.32-3.43S59.61,78.4,61.73,78l1-.18a3.76,3.76,0,0,0,3-4.55L61.49,54.72a5.38,5.38,0,0,0-4.78-4Z"/><path class="cls-2" d="M41.54,31.49v1.29a2.35,2.35,0,0,0,2.33,2.35c10.78-.06,9.2-7.48,9.2-7.48H45.38A3.84,3.84,0,0,0,41.54,31.49Z"/><path class="cls-2" d="M37.65,31.49v1.29a2.35,2.35,0,0,1-2.33,2.35c-10.78-.06-9.2-7.48-9.2-7.48h7.7A3.84,3.84,0,0,1,37.65,31.49Z"/><path class="cls-3" d="M37.65,31.12a2.88,2.88,0,0,1,3.89,0"/><polygon class="cls-4" points="37.65 38.62 39.6 40.29 41.19 38.62 37.65 38.62"/><path class="cls-5" d="M43.69,30.36s2.42-1.44,4.43,0l1-.64"/><line class="cls-3" x1="46.11" y1="30.1" x2="46.11" y2="31.73"/><path class="cls-5" d="M35.5,30.36s-2.42-1.44-4.43,0l-1-.64"/><line class="cls-3" x1="33.08" y1="30.1" x2="33.08" y2="31.73"/><line class="cls-3" x1="42.56" y1="25.4" x2="48.02" y2="23.59"/><line class="cls-3" x1="31.58" y1="23.59" x2="37.04" y2="25.4"/><line class="cls-2" x1="51.6" y1="36.62" x2="51.6" y2="36.62"/><circle class="cls-1" cx="54.88" cy="17.22" r="5.19"/><path class="cls-1" d="M24.24,24.21h-.68V23a.62.62,0,0,0-1.24,0v1.18h-.89a.62.62,0,0,0,0,1.24h.89v1.18a.62.62,0,1,0,1.24,0V25.45h.68a.62.62,0,0,0,0-1.24Z"/><line class="cls-5" x1="44.33" y1="15.8" x2="44.33" y2="19.41"/><line class="cls-5" x1="35.33" y1="15.8" x2="35.33" y2="19.41"/><line class="cls-5" x1="41.37" y1="13.4" x2="41.37" y2="19.41"/><line class="cls-5" x1="38.41" y1="13.4" x2="38.41" y2="19.41"/><polyline class="cls-6" points="31.84 53.67 39.6 61.4 46.73 53.67"/><line class="cls-3" x1="39.6" y1="66.18" x2="39.6" y2="66.67"/><line class="cls-3" x1="39.6" y1="70.91" x2="39.6" y2="71.4"/><line class="cls-3" x1="14.06" y1="44.11" x2="13.92" y2="44.58"/><polyline class="cls-7" points="28.65 77.1 36.75 80.97 39.49 78.82 41.95 80.97 49.69 77.1"/><line class="cls-7" x1="19.22" y1="42.74" x2="14.8" y2="41.4"/><line class="cls-3" x1="59.96" y1="75.36" x2="59.49" y2="75.73"/><line class="cls-7" x1="54.68" y1="73.48" x2="57.58" y2="77.47"/><polyline class="cls-8" points="32.93 135.57 32.93 131.78 25.86 135.57 17.01 135.57"/><polyline class="cls-8" points="46.05 135.57 46.05 131.78 53.11 135.57 61.97 135.57"/><line class="cls-7" x1="26.22" y1="102.84" x2="52.18" y2="102.84"/></svg>