<svg id="圖層_1" data-name="圖層 1" xmlns="http://www.w3.org/2000/svg" viewBox="0 0 78.67 141.96"><defs><style>.cls-1{fill:#ffcd32;}.cls-11,.cls-2{fill:#006464;}.cls-2,.cls-6,.cls-7,.cls-8{stroke:#006464;}.cls-10,.cls-2,.cls-3,.cls-5,.cls-6,.cls-7,.cls-8,.cls-9{stroke-linecap:round;}.cls-2,.cls-5,.cls-6,.cls-7,.cls-8{stroke-linejoin:round;}.cls-2{stroke-width:1.85px;}.cls-10,.cls-3,.cls-4,.cls-5,.cls-6,.cls-7,.cls-8,.cls-9{fill:none;}.cls-10,.cls-3,.cls-5{stroke:#ffcd32;}.cls-10,.cls-3,.cls-4,.cls-9{stroke-miterlimit:10;}.cls-3{stroke-width:3.41px;}.cls-4,.cls-9{stroke:#286565;}.cls-4{stroke-width:3.73px;}.cls-5{stroke-width:7px;}.cls-6{stroke-width:4.94px;}.cls-10,.cls-7{stroke-width:3.08px;}.cls-8{stroke-width:1.23px;}.cls-9{stroke-width:6.79px;}</style></defs><title>Rethink Taiwan_Landing page animation 2</title><path class="cls-1" d="M67.74,24c-2.22,0-4,2.29-4,5.09V45.29a5.1,5.1,0,0,1-5.09,5.09H20A5.1,5.1,0,0,1,15,45.29V29.1c0-2.8-1.82-5.09-4-5.09s-4,2.29-4,5.09V53.37A5.1,5.1,0,0,0,12,58.45h9.36a5.1,5.1,0,0,1,5.09,5.09v60.09c0,2.79-1.64,5.08-3.64,5.08a3.87,3.87,0,0,0-3.64,4c0,2.22,2.29,4,5.09,4h5.18a5.1,5.1,0,0,0,5.08-5.09V101.2a4.85,4.85,0,1,1,9.69,0v30.5a5.1,5.1,0,0,0,5.08,5.09h5.18c2.79,0,5.08-1.82,5.08-4a3.86,3.86,0,0,0-3.63-4c-2,0-3.64-2.29-3.64-5.08V63.54a5.1,5.1,0,0,1,5.08-5.09H66.7a5.1,5.1,0,0,0,5.08-5.08V29.1C71.78,26.3,70,24,67.74,24Z"/><path class="cls-1" d="M34.89,14.63c2.83-4.5,7.34-4.42,10,.17L57.27,35.94c2.68,4.59.53,8.34-4.79,8.34H25.9c-5.32,0-7.35-3.68-4.52-8.18Z"/><path class="cls-2" d="M29,34.5c0,.57-.8,6.12,11,6.12S51,34.5,51,34.5Z"/><polygon class="cls-1" points="49.06 18.51 31.04 18.39 31.15 7.88 49.17 7.99 49.06 18.51"/><line class="cls-3" x1="26.8" y1="18.37" x2="53.3" y2="18.54"/><line class="cls-4" x1="49.64" y1="14.9" x2="30.36" y2="14.81"/><line class="cls-5" x1="40.28" y1="33.65" x2="40.28" y2="34.5"/><line class="cls-6" x1="40.28" y1="33.65" x2="40.28" y2="34.5"/><line class="cls-7" x1="43.6" y1="28.06" x2="48.73" y2="28.06"/><line class="cls-7" x1="46.16" y1="24.99" x2="46.16" y2="31.16"/><line class="cls-7" x1="33.88" y1="26.25" x2="33.88" y2="30.18"/><line class="cls-8" x1="31.89" y1="26.67" x2="32.55" y2="27.39"/><path class="cls-9" d="M61,32.46c0-2.16-.46-7.09,3.28-7.09,3.51,0,4.56,3,4.56,7.43V88.24"/><path class="cls-10" d="M61,32.46c0-2.16-.46-7.09,3.28-7.09,3.51,0,4.56,3,4.56,7.43V88.24"/><path class="cls-11" d="M39,56.23a.72.72,0,0,1,0,1.34l-2.82,1.65c-.62.36-1.12.07-1.12-.64V55c0-.71.49-1,1.09-.6Z"/><path class="cls-11" d="M39.43,56.23a.72.72,0,0,0,0,1.34l2.82,1.65c.61.36,1.11.07,1.11-.64V55c0-.71-.49-1-1.09-.6Z"/><line class="cls-6" x1="32.84" y1="86.56" x2="32.84" y2="87.41"/><line class="cls-6" x1="33.77" y1="68.73" x2="33.77" y2="69.58"/><line class="cls-6" x1="46.22" y1="76.89" x2="46.22" y2="77.74"/><line class="cls-6" x1="62.15" y1="53.74" x2="62.15" y2="54.59"/></svg>