<svg id="圖層_1" data-name="圖層 1" xmlns="http://www.w3.org/2000/svg" viewBox="0 0 78.67 141.96"><defs><style>.cls-1,.cls-2,.cls-3{fill:#ffcd32;}.cls-2,.cls-3{stroke:#006464;stroke-linecap:round;stroke-linejoin:round;}.cls-2{stroke-width:1.22px;}.cls-3{stroke-width:1.83px;}</style></defs><title>Re1_</title><path class="cls-1" d="M35.1,15.64c2.81-4.46,7.28-4.39,9.94.16l12.25,21C60,41.31,57.81,45,52.54,45H26.19c-5.28,0-7.29-3.65-4.48-8.12Z"/><path class="cls-1" d="M15,50.88A5.1,5.1,0,0,0,10,56V75.27c0,2.79,1.82,5.08,4,5.08s4-2.29,4-5.08V64c0-2.79,1.9-5.08,4.23-5.08s4.22,2.29,4.22,5.08v60c0,2.79-1.64,5.08-3.63,5.08a3.85,3.85,0,0,0-3.63,4c0,2.21,2.28,4,5.07,4h5.17a5.1,5.1,0,0,0,5.08-5.08V101.63a4.84,4.84,0,1,1,9.67,0v30.44a5.09,5.09,0,0,0,5.07,5.08h5.17c2.79,0,5.08-1.82,5.08-4a3.86,3.86,0,0,0-3.63-4c-2,0-3.63-2.29-3.63-5.08V64c0-2.79,1.9-5.08,4.22-5.08S60.7,61.23,60.7,64V75.27c0,2.79,1.81,5.08,4,5.08s4-2.29,4-5.08V56a5.09,5.09,0,0,0-5.08-5.08Z"/><path class="cls-1" d="M45.91,17.29c-6.14-.36-12,4.56-14.66,7.14-.6.57-1.42.09-1.49-.73-.23-3.06,0-7,2.9-9.8C39.36,7.53,44.87,14.09,45.91,17.29Z"/><path class="cls-2" d="M44,17.49s-1.39-4.71-5.81-3.13c-4.07,1.45-3.13,7.49-3.13,7.49"/><path class="cls-2" d="M33.06,16.9a7.51,7.51,0,0,0-.42,5.53"/><polyline class="cls-3" points="42.39 27.51 48.43 25.67 50.19 26.28"/><polyline class="cls-3" points="36.8 27.51 30.76 25.67 29 26.28"/><path class="cls-2" d="M44.71,30.67a5.66,5.66,0,0,1,4.79-.87"/><path class="cls-2" d="M35.06,30.67a5.66,5.66,0,0,0-4.79-.87"/><polyline class="cls-2" points="37 36.58 39.67 37.65 39.67 30.16"/><line class="cls-2" x1="39.67" y1="37.65" x2="42.05" y2="36.68"/><polyline class="cls-2" points="31.61 40.58 33.75 41.19 39.47 40.12 45.69 41.19 47.65 40.66"/></svg>