<svg id="圖層_1" data-name="圖層 1" xmlns="http://www.w3.org/2000/svg" viewBox="0 0 78.67 141.96"><defs><style>.cls-1,.cls-5{fill:#ffcd32;}.cls-2,.cls-3,.cls-4{fill:none;}.cls-2,.cls-3,.cls-4,.cls-5{stroke:#006464;stroke-linecap:round;stroke-linejoin:round;}.cls-2{stroke-width:1.83px;}.cls-3,.cls-5{stroke-width:1.22px;}.cls-4{stroke-width:2.45px;}</style></defs><title>Re1_</title><path class="cls-1" d="M35.23,15.71c2.81-4.46,7.28-4.38,9.94.17l12.25,21c2.66,4.55.53,8.27-4.75,8.27H26.32c-5.27,0-7.29-3.65-4.48-8.11Z"/><path class="cls-1" d="M22.1,51.25A5.08,5.08,0,0,0,17.38,55l-5,22.71a3.91,3.91,0,0,0,3,4.64h0a3.9,3.9,0,0,0,4.63-2.94L23.59,63a3.63,3.63,0,0,1,4.35-2.89,4.06,4.06,0,0,1,2.78,4.71L27.34,82.24a49.44,49.44,0,0,0-.73,7.69v35.31A3.76,3.76,0,0,1,23,129.12,3.76,3.76,0,0,0,19.38,133v.27a3.89,3.89,0,0,0,3.88,3.88h7.49a3.89,3.89,0,0,0,3.88-3.88V96.06a3.89,3.89,0,0,1,3.88-3.87h1.87a3.88,3.88,0,0,1,3.88,3.87v37.21a3.9,3.9,0,0,0,3.88,3.88h7.5a3.9,3.9,0,0,0,3.88-3.88V133a3.77,3.77,0,0,0-3.62-3.88,3.76,3.76,0,0,1-3.61-3.88V89.93a50.93,50.93,0,0,0-.72-7.7L48.26,64.81A4.27,4.27,0,0,1,50.94,60a3.42,3.42,0,0,1,4.24,2.77l3.67,16.5A4,4,0,0,0,63.5,82.3l.18,0a3.74,3.74,0,0,0,2.95-4.52L61.5,55a5.09,5.09,0,0,0-4.74-3.78Z"/><path class="cls-2" d="M30.55,27.28h4a3.25,3.25,0,0,1,3.25,3.25v2.41a4.28,4.28,0,0,1-4.28,4.28h-2a4.28,4.28,0,0,1-4.28-4.28V30.53a3.25,3.25,0,0,1,3.25-3.25Z"/><path class="cls-2" d="M44.64,27.28h3.65a3.4,3.4,0,0,1,3.4,3.4v2.25a4.28,4.28,0,0,1-4.28,4.28h-2a4.28,4.28,0,0,1-4.28-4.28V30.75a3.47,3.47,0,0,1,3.47-3.47Z"/><line class="cls-2" x1="37.83" y1="29.24" x2="41.17" y2="29.24"/><polygon class="cls-3" points="29.45 40.05 50.05 40.05 48.22 43.79 31.28 43.79 29.45 40.05"/><line class="cls-3" x1="45.78" y1="40.05" x2="45.78" y2="43.79"/><line class="cls-3" x1="34.42" y1="40.05" x2="34.42" y2="43.79"/><line class="cls-3" x1="42.11" y1="40.05" x2="42.11" y2="43.79"/><line class="cls-3" x1="37.83" y1="40.05" x2="37.83" y2="43.79"/><line class="cls-4" x1="45.27" y1="30.64" x2="45.46" y2="32.42"/><line class="cls-4" x1="33.73" y1="30.26" x2="33.34" y2="32.42"/><line class="cls-3" x1="43.74" y1="31.34" x2="47.11" y2="31.34"/><line class="cls-3" x1="31.85" y1="31.34" x2="35.21" y2="31.34"/><line class="cls-5" x1="42.11" y1="24.93" x2="47.11" y2="23.3"/><line class="cls-5" x1="37.42" y1="24.93" x2="32.43" y2="23.3"/><path class="cls-1" d="M65,24.09a1.27,1.27,0,0,1-1.45,1.71c-3.44-.74-9.75-2.25-11.47-3.71a5.72,5.72,0,1,1,7.4-8.72C61.19,14.84,63.7,20.81,65,24.09Z"/></svg>