<svg id="圖層_1" data-name="圖層 1" xmlns="http://www.w3.org/2000/svg" viewBox="0 0 78.67 141.96"><defs><style>.cls-1{fill:#ffcd32;}.cls-2,.cls-3,.cls-4,.cls-5,.cls-6{fill:none;stroke-linecap:round;}.cls-2,.cls-3,.cls-4,.cls-6{stroke:#006464;}.cls-2,.cls-3,.cls-6{stroke-linejoin:round;}.cls-2{stroke-width:1.83px;}.cls-3,.cls-4{stroke-width:1.22px;}.cls-5{stroke:#ffcd32;stroke-width:3.67px;}.cls-6{stroke-width:2.45px;}</style></defs><title>Re1_</title><path class="cls-1" d="M35.24,15.76c2.81-4.46,7.28-4.39,9.94.16l12.25,21c2.66,4.55.52,8.28-4.75,8.28H26.33c-5.28,0-7.29-3.65-4.48-8.12Z"/><path class="cls-1" d="M22.11,51.29a5.07,5.07,0,0,0-4.72,3.79l-5,22.71a3.9,3.9,0,0,0,3,4.63h0a3.89,3.89,0,0,0,4.63-2.94L23.59,63A3.64,3.64,0,0,1,28,60.15a4,4,0,0,1,2.77,4.7L27.35,82.28A48.48,48.48,0,0,0,26.61,90v35.32A3.77,3.77,0,0,1,23,129.17a3.76,3.76,0,0,0-3.62,3.88v.26a3.89,3.89,0,0,0,3.88,3.88h7.5a3.89,3.89,0,0,0,3.88-3.88V96.11a3.89,3.89,0,0,1,3.88-3.88h1.87a3.9,3.9,0,0,1,3.88,3.88v37.2a3.88,3.88,0,0,0,3.88,3.88h7.49a3.88,3.88,0,0,0,3.88-3.88v-.26a3.76,3.76,0,0,0-3.61-3.88,3.77,3.77,0,0,1-3.62-3.88V90a49.66,49.66,0,0,0-.72-7.69l-3.3-17.42A4.25,4.25,0,0,1,50.94,60a3.42,3.42,0,0,1,4.24,2.76l3.67,16.51a4,4,0,0,0,4.65,3l.18,0a3.74,3.74,0,0,0,2.95-4.52L61.5,55.08a5.09,5.09,0,0,0-4.73-3.79Z"/><path class="cls-2" d="M42.71,32.68a23.91,23.91,0,0,1,6.54,0"/><polyline class="cls-3" points="34.69 41.18 39.94 43.38 45.41 41.09"/><path class="cls-2" d="M29.71,28.24h6.6a2,2,0,0,1,2,2V33.9A4.28,4.28,0,0,1,34,38.17H32a4.28,4.28,0,0,1-4.28-4.28V30.2a2,2,0,0,1,2-2Z"/><path class="cls-2" d="M43.57,28.24h6.6a2,2,0,0,1,2,2V33.9a4.28,4.28,0,0,1-4.28,4.28h-2a4.28,4.28,0,0,1-4.28-4.28V30.2a2,2,0,0,1,2-2Z"/><line class="cls-2" x1="38.27" y1="30.2" x2="41.61" y2="30.2"/><line class="cls-4" x1="46.7" y1="32.36" x2="47.06" y2="31.2"/><line class="cls-4" x1="49.25" y1="32.36" x2="49.61" y2="31.2"/><path class="cls-2" d="M37.22,32.68a23.91,23.91,0,0,0-6.54,0"/><line class="cls-4" x1="30.86" y1="32.36" x2="30.5" y2="31.2"/><line class="cls-4" x1="33.35" y1="32.36" x2="32.99" y2="31.2"/><line class="cls-5" x1="23.28" y1="23.15" x2="56.82" y2="23.15"/><line class="cls-6" x1="31.75" y1="20.42" x2="47.99" y2="20.42"/><line class="cls-3" x1="52.7" y1="41.29" x2="54.07" y2="40.06"/><line class="cls-3" x1="55.12" y1="41.29" x2="56.49" y2="40.06"/><line class="cls-3" x1="27.25" y1="41.29" x2="25.88" y2="40.06"/><line class="cls-3" x1="24.79" y1="41.29" x2="23.41" y2="40.06"/></svg>