<svg id="圖層_1" data-name="圖層 1" xmlns="http://www.w3.org/2000/svg" viewBox="0 0 78.67 141.96"><defs><style>.cls-1{fill:#ffcd32;}.cls-2,.cls-3,.cls-4,.cls-5{fill:none;stroke:#006464;stroke-linecap:round;stroke-linejoin:round;}.cls-2{stroke-width:1.22px;}.cls-3{stroke-width:1.12px;}.cls-4{stroke-width:1.14px;}.cls-5{stroke-width:2.45px;}</style></defs><title>Re1_</title><path class="cls-1" d="M35.23,14.67c2.81-4.46,7.28-4.39,9.94.16l12.25,21c2.66,4.55.52,8.28-4.75,8.28H26.32c-5.27,0-7.29-3.66-4.48-8.12Z"/><path class="cls-1" d="M22.1,51.2A5.07,5.07,0,0,0,17.38,55l-5,22.7a3.9,3.9,0,0,0,2.94,4.64h0a3.88,3.88,0,0,0,4.63-2.94L23.58,63a3.64,3.64,0,0,1,4.36-2.89,4,4,0,0,1,2.77,4.7L27.34,82.19a48.48,48.48,0,0,0-.74,7.69V125.2A3.76,3.76,0,0,1,23,129.08,3.76,3.76,0,0,0,19.37,133v.26a3.89,3.89,0,0,0,3.88,3.88h7.5a3.89,3.89,0,0,0,3.88-3.88V96a3.9,3.9,0,0,1,3.88-3.88h1.87A3.9,3.9,0,0,1,44.26,96v37.2a3.88,3.88,0,0,0,3.88,3.88h7.49a3.88,3.88,0,0,0,3.88-3.88V133a3.76,3.76,0,0,0-3.61-3.88,3.77,3.77,0,0,1-3.62-3.88V89.88a49.66,49.66,0,0,0-.72-7.69l-3.3-17.42a4.24,4.24,0,0,1,2.68-4.84,3.41,3.41,0,0,1,4.23,2.76L58.84,79.2a4,4,0,0,0,4.66,3l.17,0a3.75,3.75,0,0,0,3-4.52L61.49,55a5.09,5.09,0,0,0-4.73-3.78Z"/><path class="cls-1" d="M65,23a1.28,1.28,0,0,1-1.45,1.72C60.09,24,53.79,22.51,52.07,21a5.71,5.71,0,1,1,7.39-8.71C61.18,13.79,63.7,19.76,65,23Z"/><path class="cls-2" d="M42,25.31s-5-4.18-4.89-9.23"/><path class="cls-2" d="M44.74,25.31a14.85,14.85,0,0,1-3.72-5"/><path class="cls-2" d="M47.19,25.31a16.37,16.37,0,0,1-3.33-5"/><path class="cls-2" d="M49.76,25.31a16.37,16.37,0,0,1-3.33-5"/><path class="cls-2" d="M37.75,24.79a5.7,5.7,0,0,0-3.54-1.06c-2.3,0-3.09,1.06-3.09,1.06"/><path class="cls-3" d="M36.72,30.07s-1.93-2.29-4.07-2.14a4.42,4.42,0,0,0-2.91,1"/><path class="cls-4" d="M43.72,30.07s2-2.37,4.25-2.22a3.56,3.56,0,0,1,3,1.67"/><polygon class="cls-2" points="37.65 39.25 40.63 42.11 43.51 39.29 40.63 37.98 37.65 39.25"/><line class="cls-2" x1="39.49" y1="29.15" x2="39.99" y2="34.71"/><line class="cls-5" x1="48.61" y1="29.88" x2="49.3" y2="29.15"/><line class="cls-5" x1="33.74" y1="29.98" x2="34.67" y2="29.3"/></svg>