<svg id="圖層_1" data-name="圖層 1" xmlns="http://www.w3.org/2000/svg" viewBox="0 0 78.67 141.96"><defs><style>.cls-1,.cls-4,.cls-5{fill:#ff7d74;}.cls-10,.cls-2,.cls-6,.cls-7,.cls-8,.cls-9{fill:none;}.cls-2,.cls-3,.cls-4,.cls-5,.cls-6,.cls-7,.cls-8,.cls-9{stroke:#006464;}.cls-10,.cls-2,.cls-3,.cls-4,.cls-5,.cls-6,.cls-7,.cls-8,.cls-9{stroke-linecap:round;stroke-linejoin:round;}.cls-2{stroke-width:5.16px;}.cls-3{fill:#006464;}.cls-3,.cls-7{stroke-width:1.44px;}.cls-4{stroke-width:1.43px;}.cls-5{stroke-width:1.29px;}.cls-10,.cls-6{stroke-width:1.94px;}.cls-8{stroke-width:3.72px;}.cls-9{stroke-width:4.52px;}.cls-10{stroke:#ff7d74;}</style></defs><title>Rethink Taiwan_Landing page animation 2</title><path class="cls-1" d="M12.41,46.45a4.12,4.12,0,0,0-4.12,4.11V73.45a4.12,4.12,0,0,0,4.12,4.11H21.6a4.13,4.13,0,0,1,4.12,4.12v43.23A4,4,0,0,1,21.88,129a4,4,0,0,0-3.83,4.12v.28a4.12,4.12,0,0,0,4.11,4.12h8a4.13,4.13,0,0,0,4.12-4.12V98.78a4.12,4.12,0,0,1,4.11-4.11h2a4.12,4.12,0,0,1,4.12,4.11v34.64a4.12,4.12,0,0,0,4.11,4.12h8a4.13,4.13,0,0,0,4.12-4.12v-.28A4,4,0,0,0,56.78,129,4,4,0,0,1,53,124.91V81.68a4.12,4.12,0,0,1,4.11-4.12h9.2a4.12,4.12,0,0,0,4.11-4.11V50.56a4.12,4.12,0,0,0-4.11-4.11Zm8.51,22.6a4.12,4.12,0,0,1-4.12-4.11V59.08A4.13,4.13,0,0,1,20.92,55h.68a4.13,4.13,0,0,1,4.12,4.12v5.86a4.12,4.12,0,0,1-4.12,4.11Zm40.94-4.11a4.12,4.12,0,0,1-4.11,4.11h-.69A4.12,4.12,0,0,1,53,64.94V59.08A4.12,4.12,0,0,1,57.06,55h.69a4.12,4.12,0,0,1,4.11,4.12Z"/><path class="cls-1" d="M34.81,9.26c3-4.71,7.69-4.63,10.49.17L58.23,31.55c2.8,4.8.55,8.73-5,8.73H25.41c-5.56,0-7.69-3.85-4.73-8.56Z"/><line class="cls-2" x1="31.65" y1="23.49" x2="48" y2="23.49"/><rect class="cls-3" x="33.05" y="32.17" width="12.91" height="4.99"/><path class="cls-4" d="M32.55,39.7V42a1.24,1.24,0,0,0,1.34,1.1h4.27A1.24,1.24,0,0,0,39.5,42V39.7"/><path class="cls-4" d="M39.5,39.7V42a1.24,1.24,0,0,0,1.34,1.1h4.28A1.24,1.24,0,0,0,46.46,42V39.7"/><path class="cls-5" d="M23.23,55.06l2.58,8.78C26.28,65.07,27,66,28.45,66h8.42a2.43,2.43,0,0,0,2.63-2.16V55.65"/><path class="cls-5" d="M39.5,55.65v8.19A2.44,2.44,0,0,0,42.14,66h8.41a2.79,2.79,0,0,0,2.64-2.16l2.59-8.78"/><polyline class="cls-4" points="53.19 27.95 51.15 29.99 51.15 36.66"/><polyline class="cls-4" points="26.46 27.95 28.5 29.99 28.5 36.66"/><polyline class="cls-5" points="37.86 20.77 37.86 29.32 41.01 29.32 41.01 20.77"/><line class="cls-6" x1="41.01" y1="20.77" x2="48" y2="18.83"/><line class="cls-6" x1="38" y1="20.77" x2="31" y2="18.83"/><line class="cls-7" x1="39.5" y1="68.78" x2="39.5" y2="80.88"/><line class="cls-7" x1="33.77" y1="71.84" x2="45.23" y2="71.84"/><line class="cls-7" x1="33.77" y1="76.36" x2="45.23" y2="76.36"/><line class="cls-8" x1="25.03" y1="81.25" x2="53.19" y2="81.25"/><line class="cls-9" x1="33.05" y1="12.07" x2="46.8" y2="12.07"/><line class="cls-10" x1="33.05" y1="12.07" x2="46.8" y2="12.07"/><line class="cls-9" x1="48" y1="12.07" x2="56.93" y2="7.76"/><line class="cls-10" x1="48" y1="12.07" x2="56.93" y2="7.76"/><line class="cls-9" x1="57.04" y1="14.71" x2="48" y2="12.07"/><line class="cls-10" x1="57.04" y1="14.71" x2="48" y2="12.07"/><line class="cls-9" x1="47.06" y1="12.07" x2="47.57" y2="12.07"/><line class="cls-10" x1="47.06" y1="12.07" x2="47.57" y2="12.07"/><path class="cls-1" d="M23.29,15.13a1.74,1.74,0,0,0,1.08-.37,1.76,1.76,0,0,0,.31-2.47L20.36,6.75a1.76,1.76,0,0,0-2.77,2.16l4.32,5.54A1.72,1.72,0,0,0,23.29,15.13Z"/><path class="cls-1" d="M20,21.29A1.75,1.75,0,0,0,20.76,18l-7.3-3.46A1.76,1.76,0,1,0,12,17.66l7.31,3.46A1.68,1.68,0,0,0,20,21.29Z"/><path class="cls-1" d="M10.31,27.86h7.41a1.76,1.76,0,0,0,0-3.51H10.31a1.76,1.76,0,0,0,0,3.51Z"/></svg>