<svg id="圖層_1" data-name="圖層 1" xmlns="http://www.w3.org/2000/svg" viewBox="0 0 726.15 473.98"><defs><style>.cls-1,.cls-2,.cls-3{fill:#00364b;stroke:#ff7167;stroke-miterlimit:10;}.cls-1{stroke-width:11.21px;}.cls-2{stroke-width:11.98px;}.cls-3{stroke-width:12.79px;}.cls-4{fill:#ff7167;}.cls-5{fill:#ff665c;}.cls-6{fill:#6bffba;}</style></defs><title>Rethink Taiwan_Landing page animation 2展開+嵌入</title><rect class="cls-1" x="16.82" y="62.58" width="562.23" height="366.77"/><rect class="cls-2" x="38.22" y="50.09" width="600.51" height="391.74"/><rect class="cls-3" x="60.37" y="36.89" width="641" height="418.15"/><path class="cls-4" d="M642.8,183.77a3.64,3.64,0,0,0,3.74-3.36,3.46,3.46,0,0,0-3.68-3.21h-10a3.09,3.09,0,0,1-3.15-3.68l1.9-12.1H601.91a4.67,4.67,0,0,0-4.38,4.18l-2.59,15.5c-.44,2.63,1.16,4.19,2.92,4.19a3.6,3.6,0,0,0,3.61-3.38l1.68-9.92a4.3,4.3,0,0,1,3.92-3.68c1.84,0,2.74,1.65,2.4,3.67l-8.15,47.48a4.59,4.59,0,0,1-4.35,3.67h-4.52a4.51,4.51,0,0,0-4.3,3.68l-1,6.16a3.24,3.24,0,0,0,3.15,3.68,3.86,3.86,0,0,0,3.55-3.36,4.46,4.46,0,0,1,4.33-3.36h3.4a6.56,6.56,0,0,0,6.19-5.13L611.35,206a4.68,4.68,0,0,1,4.41-3.66h10.76a3.09,3.09,0,0,1,3.15,3.68l-4.12,26.25a3.7,3.7,0,0,0,3.76,4.4H636c2.05,0,4.11-.95,4.11-3.46,0-1.18-.94-2.93-3.71-2.93h0a3.09,3.09,0,0,1-3.15-3.68l4.08-26a4.42,4.42,0,0,0-4.49-5.25H630a3.09,3.09,0,0,1-3.15-3.68l1.23-7.86Z"/><path class="cls-4" d="M623.08,142.39c1.24-1.63,2.94-1.44,3.79.42l4.92,10.77a2.21,2.21,0,0,1-2.18,3.39H615.77c-2,0-2.71-1.34-1.48-3Z"/><path class="cls-4" d="M632.25,140.84a2,2,0,0,1-1.55-3.18l4.85-6.22a2,2,0,1,1,3.11,2.42l-4.85,6.22A2,2,0,0,1,632.25,140.84Z"/><path class="cls-4" d="M635.93,147.75a2,2,0,0,1-.84-3.75l8.2-3.88a2,2,0,0,1,1.69,3.56l-8.2,3.88A2,2,0,0,1,635.93,147.75Z"/><path class="cls-4" d="M646.81,155.12h-8.3a2,2,0,1,1,0-3.94h8.3a2,2,0,1,1,0,3.94Z"/><path class="cls-4" d="M518.06,140.84a2,2,0,0,1-1.55-3.18l4.85-6.22a2,2,0,1,1,3.11,2.42l-4.85,6.22A2,2,0,0,1,518.06,140.84Z"/><path class="cls-4" d="M521.74,147.75a2,2,0,0,1-.84-3.75l8.2-3.88a2,2,0,0,1,1.69,3.56l-8.2,3.88A2,2,0,0,1,521.74,147.75Z"/><path class="cls-4" d="M532.62,155.12h-8.3a2,2,0,1,1,0-3.94h8.3a2,2,0,1,1,0,3.94Z"/><path class="cls-4" d="M507.16,142.39c1.24-1.63,2.94-1.44,3.79.42l4.92,10.77a2.21,2.21,0,0,1-2.18,3.39H499.85c-2,0-2.71-1.34-1.48-3Z"/><path class="cls-4" d="M509.87,201.24s.28-1.66.58-3.68l.41-2.73a4.47,4.47,0,0,1,4.28-3.68H521a4.38,4.38,0,0,0,4.25-3.52,3,3,0,0,0-3.19-3.51h-5.92a3.12,3.12,0,0,1-3.17-3.68l2.86-19h-26a4.35,4.35,0,0,0-4.07,3.68l-2.31,15.38a3,3,0,0,0,3,3.68,3,3,0,0,1,3,3.68l-.38,2.5-1.09,7.28-1.09,7.28-.48,3.22a4.35,4.35,0,0,1-4.07,3.68h-7a4.25,4.25,0,0,0-4,3.51l-1,6.94a2.92,2.92,0,0,0,3,3.42,4.19,4.19,0,0,0,4-3.42,4.32,4.32,0,0,1,4.24-3.42h6.61a4.37,4.37,0,0,0,4.25-3.51l1.08-7.2.48-3.22a4.47,4.47,0,0,1,4.28-3.68h.93a3.12,3.12,0,0,1,3.17,3.68l-3.16,21-1.08,7.2a3,3,0,0,0,3.19,3.51h5.92a4.37,4.37,0,0,0,4.25-3.51,2.83,2.83,0,0,0-2.64-3.51c-1.74,0-2.92-1.66-2.61-3.68l3.16-21C509.59,202.9,509.85,201.24,509.87,201.24Z"/><path class="cls-4" d="M573.36,140.84a2,2,0,0,1-1.55-3.18l4.85-6.22a2,2,0,1,1,3.11,2.42l-4.85,6.22A2,2,0,0,1,573.36,140.84Z"/><path class="cls-4" d="M577,147.75a2,2,0,0,1-.84-3.75l5.61-2.66a2,2,0,0,1,1.69,3.56l-5.61,2.66A2,2,0,0,1,577,147.75Z"/><path class="cls-4" d="M587.92,155.12h-8.3a2,2,0,1,1,0-3.94h8.3a2,2,0,1,1,0,3.94Z"/><path class="cls-4" d="M562.38,142.39c1.24-1.63,2.94-1.44,3.79.42l4.92,10.77a2.21,2.21,0,0,1-2.18,3.39H555.07c-2,0-2.71-1.34-1.48-3Z"/><path class="cls-4" d="M588.66,164.94l1.08-7.2,1.26-8.35a3,3,0,0,0-3-3.68,4.35,4.35,0,0,0-4.07,3.68l-1.26,8.35a4.47,4.47,0,0,1-4.28,3.68H538a4.38,4.38,0,0,0-4.25,3.51l-1.08,7.2-1.26,8.35a3,3,0,0,0,3,3.68,4.35,4.35,0,0,0,4.07-3.68l1.26-8.35a4.35,4.35,0,0,1,4.07-3.68,3,3,0,0,1,3,3.68l-3.82,25.43a3.12,3.12,0,0,0,3.17,3.68h.53a3.12,3.12,0,0,1,3.17,3.68L547.65,219a4.35,4.35,0,0,1-4.07,3.68h-7a4.25,4.25,0,0,0-4,3.51l-1,6.94a2.92,2.92,0,0,0,3,3.42,4.19,4.19,0,0,0,4-3.42,4.32,4.32,0,0,1,4.24-3.42h6.61a4.37,4.37,0,0,0,4.25-3.51l1.08-7.2,2.12-14.07a18.4,18.4,0,0,1,.75-3.68h10.77a3,3,0,0,1,2.93,3.68l-.5,3.31-.57,3.77-.53,3.51a3,3,0,0,0,3.21,3.43h5.92a4.37,4.37,0,0,0,4.25-3.51,2.83,2.83,0,0,0-2.64-3.51c-1.74,0-2.92-1.66-2.61-3.68l.5-3.31,1.08-7.2a3,3,0,0,0-3-3.51h-7a3,3,0,0,1-2.93-3.68l2.77-18.4a4.47,4.47,0,0,1,4.28-3.68h14.65l.53-3.51Z"/><line class="cls-4" x1="589.89" y1="136.36" x2="593.57" y2="112"/><path class="cls-4" d="M589.9,139.16a2.84,2.84,0,0,1-.42,0,2.8,2.8,0,0,1-2.35-3.19l3.67-24.35a2.8,2.8,0,1,1,5.54.84l-3.67,24.35A2.8,2.8,0,0,1,589.9,139.16Z"/><polygon class="cls-4" points="595.01 121.17 542 121.17 543.95 108.32 596.96 108.32 595.01 121.17"/><path class="cls-5" d="M187,201.85V222.5h-7.67v-2.3h-13v9.08h-7.61V220.2H146v2.36h-7.31V201.85h20v-3.54H141.08V180.79h17.58v-6.55h7.61v6.55h18.11v17.52H166.27v3.54Zm-28.31,12.09v-5.72H146v5.72Zm0-21.77v-5.31H148.34v5.31Zm7.61-5.31v5.31h10.44v-5.31Zm13,27.08v-5.72h-13v5.72Z"/><path class="cls-5" d="M213.64,213.89H202.49v5.25h-6.37V179.32h17.52Zm-11.15-28.14v21.71h4.72V185.75Zm36.69,36.1c3.13,0,3.72-1.36,4.19-7.43a17.25,17.25,0,0,0,6.31,2.71c-.89,8.26-3,11.21-9.85,11.21H227.5c-7.67,0-10.09-2.12-10.09-10.62v-40H247.2v32.39h-6.78v-3.42h-16.1v11.09c0,3.54.47,4.07,4,4.07Zm-14.87-37.69v16.16H229V184.16Zm16.1,0h-5.07v16.16h5.07Z"/><path class="cls-5" d="M273.09,218.9a6.14,6.14,0,0,1,12.27,0c0,3.42-2.65,5.78-6.13,5.78S273.09,222.32,273.09,218.9Zm1-30.09-.24-8.79h10.79l-.29,8.79L282.3,209h-6.08Z"/><path class="cls-5" d="M342.29,197.25c3.89,11.5,11,20.76,22.06,25.25a28.23,28.23,0,0,0-5.19,6.61c-10.68-5-17.52-13.63-22.12-25-3.19,9.85-9.56,19.05-22.06,25.07a20.77,20.77,0,0,0-5.25-6c13.51-6,19.11-15.81,21.41-26H310.85V190h21.47c.59-5.55.53-10.91.59-15.75h7.67c-.06,4.84-.12,10.26-.71,15.75h23.18v7.26Z"/><path class="cls-5" d="M423.87,203.8c-3.83,14.69-13.45,22.06-26.6,25.84a22.31,22.31,0,0,0-3.72-5.84A36.89,36.89,0,0,0,406,218.67a48.28,48.28,0,0,0-4.78-5.37c-.88.65-1.89,1.24-2.83,1.83a18.86,18.86,0,0,0-4.25-4.66l1.12-.59h-8c2.95,2.42,7.37,6.19,8.61,7.43l-4.13,5.78c-1.24-1.83-3.48-4.6-5.66-7.2v13.39h-6.84v-11.8a40.72,40.72,0,0,1-8.38,10.15,36.35,36.35,0,0,0-3.13-6.9,37.9,37.9,0,0,0,9.56-10.85h-7.9v-6.19h9.85V200H370.6V176.55h24.13v9.62a29.35,29.35,0,0,0,10.68-11.92l6.43,1.06a28.39,28.39,0,0,1-1.59,2.95h6.14l1.24-.18,4.48,1.77A32,32,0,0,1,408.94,198l5.07.94q-1,1.77-2.12,3.54h6.25l1.3-.24Zm-47.55-18.05h3.78v-3.6h-3.78Zm0,8.73h3.78v-3.54h-3.78Zm12.45-8.73v-3.6h-3.66v3.6Zm0,8.73v-3.54h-3.66v3.54Zm6.73,15.22a30.32,30.32,0,0,0,11-10.32,43.72,43.72,0,0,1-8.32,3.6,20.88,20.88,0,0,0-3.48-4.84V200h-8.67v3.66h9.44Zm-.77-11.8a30.26,30.26,0,0,0,10.15-4.78,51.31,51.31,0,0,0-4-4q-1.24,1-2.66,1.95a15.33,15.33,0,0,0-3.48-3.6Zm11.62-14.1c-.41.47-.77.94-1.24,1.42a40.42,40.42,0,0,1,4.31,4,22.88,22.88,0,0,0,3.83-5.37Zm1,24.36c-.47.47-.94.94-1.47,1.42a56.63,56.63,0,0,1,5,4.9,25.77,25.77,0,0,0,4.25-6.31Z"/><path class="cls-5" d="M149.17,131.32H154l2.89,20.36h-4.61l-.43-4.19h-7.5L142,151.68h-4.45Zm-3,12.67h5.17l-.84-8Z"/><path class="cls-5" d="M170.17,142a3,3,0,0,0-.25-1.52,1.89,1.89,0,0,0-1.86-.91,3.5,3.5,0,0,0-3.14,2,9.69,9.69,0,0,0-1,2.79,7.59,7.59,0,0,0-.18,2.67A2,2,0,0,0,166,148.9a2.85,2.85,0,0,0,2.12-.75,4.68,4.68,0,0,0,1.11-1.93h4a8.29,8.29,0,0,1-2,3.4,7.9,7.9,0,0,1-6,2.58q-3.63,0-4.88-2.15a7.73,7.73,0,0,1-.52-5.59,11,11,0,0,1,3.17-6,8.12,8.12,0,0,1,5.68-2.15,6.67,6.67,0,0,1,4.37,1.27q1.53,1.27,1.17,4.49Z"/><path class="cls-5" d="M175.89,139.57l.59-2.8h2.1l.9-4.2h3.9l-.9,4.2h2.45l-.59,2.8h-2.45l-1.7,8q-.19.93,0,1.15c.13.15.59.23,1.39.23h.38l.41,0-.64,2.94-1.88.07q-2.8.1-3.61-1a2.57,2.57,0,0,1-.22-2.09l2-9.27Z"/><path class="cls-5" d="M187.53,136.63h4l-3.19,15.06h-4Zm4.38-1.79h-4l.77-3.63h4Z"/><path class="cls-5" d="M198.79,152.21q-3.88,0-5.28-2.35a7.64,7.64,0,0,1-.7-5.67,11,11,0,0,1,3.11-5.65,8.57,8.57,0,0,1,6.3-2.39q3.88,0,5.28,2.39a7.7,7.7,0,0,1,.7,5.65,10.94,10.94,0,0,1-3.11,5.67A8.62,8.62,0,0,1,198.79,152.21Zm5.28-8a5.11,5.11,0,0,0-.19-3.49,2.49,2.49,0,0,0-2.4-1.22,3.9,3.9,0,0,0-2.91,1.22,7,7,0,0,0-1.67,3.49,5.13,5.13,0,0,0,.19,3.49,2.49,2.49,0,0,0,2.4,1.23,3.89,3.89,0,0,0,2.92-1.23A7,7,0,0,0,204.06,144.18Z"/><path class="cls-5" d="M225.22,141.54l-2.16,10.14h-4l1.93-9.16a3.8,3.8,0,0,0,.07-1.82q-.33-1.16-2-1.16a3.51,3.51,0,0,0-3.11,1.7,6.74,6.74,0,0,0-.87,2.29l-1.73,8.15h-3.92l3.19-15h3.8l-.47,2.2a9.13,9.13,0,0,1,1.8-1.67,5.89,5.89,0,0,1,3.27-.91,4.82,4.82,0,0,1,3.56,1.22Q225.82,138.71,225.22,141.54Z"/><path class="cls-5" d="M239.2,144.94a4.84,4.84,0,0,0,0,2.18,2.28,2.28,0,0,0,2.53,1.59,3.89,3.89,0,0,0,2.41-.87,4.1,4.1,0,0,0,1.48-2.5q.45-2.17-1.15-2.89a8.13,8.13,0,0,0-3.06-.41L242,139a8.94,8.94,0,0,0,3-.41,3.28,3.28,0,0,0,2-2.57,2.47,2.47,0,0,0-.3-2,2.18,2.18,0,0,0-1.9-.79,3.23,3.23,0,0,0-2.45,1,5.07,5.07,0,0,0-1.24,2.59h-4a12.66,12.66,0,0,1,1.23-3.1,9.51,9.51,0,0,1,2.17-2.38,7.62,7.62,0,0,1,2.26-1.18,9.5,9.5,0,0,1,2.94-.41,6.31,6.31,0,0,1,4.73,1.63,4.55,4.55,0,0,1,1,4.37,6.06,6.06,0,0,1-1.85,3.27,5.32,5.32,0,0,1-1.76,1.14q.59,0,1.48,1a4.63,4.63,0,0,1,.76,4.18,9,9,0,0,1-9.13,7q-4.66,0-5.83-3a8.13,8.13,0,0,1-.17-4.24Z"/><path class="cls-5" d="M332.73,135.1a2.57,2.57,0,0,0-1.7.57,2.75,2.75,0,0,0-.91,1.58,1.82,1.82,0,0,0,.25,1.52,1.7,1.7,0,0,0,1.45.59,2.54,2.54,0,0,0,1.71-.59,2.62,2.62,0,0,0,.88-1.52,1.84,1.84,0,0,0-.22-1.58A1.73,1.73,0,0,0,332.73,135.1Z"/><path class="cls-5" d="M331.29,141.91a2.9,2.9,0,0,0-1.93.67,3.43,3.43,0,0,0-1.09,2,2.38,2.38,0,0,0,.24,2,1.91,1.91,0,0,0,1.66.69,2.87,2.87,0,0,0,2-.69,3.45,3.45,0,0,0,1.07-2,2.35,2.35,0,0,0-.24-2A2,2,0,0,0,331.29,141.91Z"/><path class="cls-5" d="M399.47,141.91a2.9,2.9,0,0,0-1.93.67,3.43,3.43,0,0,0-1.09,2,2.38,2.38,0,0,0,.24,2,1.91,1.91,0,0,0,1.66.69,2.87,2.87,0,0,0,2-.69,3.45,3.45,0,0,0,1.07-2,2.35,2.35,0,0,0-.24-2A2,2,0,0,0,399.47,141.91Z"/><path class="cls-5" d="M267.83,125.39v30.19H419.09V125.39Zm17.57,24.12H282l2.49-11.74h-4l.48-2.28a15.71,15.71,0,0,0,2.27-.21,4,4,0,0,0,1.83-.89,3.73,3.73,0,0,0,.92-1.22,3.14,3.14,0,0,0,.28-.68H289Zm17.31-2.95-.62,2.95H290.43a9.69,9.69,0,0,1,1.49-3.35,13,13,0,0,1,4.15-3.61,33.7,33.7,0,0,0,3.5-2.37,4.51,4.51,0,0,0,1.56-2.44,2.36,2.36,0,0,0-.21-1.8,1.7,1.7,0,0,0-1.56-.72,2.66,2.66,0,0,0-2.33,1.14,6.55,6.55,0,0,0-.81,2.09H293a9.92,9.92,0,0,1,1.53-3.51,6.2,6.2,0,0,1,5.3-2.55,5,5,0,0,1,4,1.5,4.38,4.38,0,0,1,.75,4,6.73,6.73,0,0,1-1.83,3.36,15.45,15.45,0,0,1-2.9,2.17l-1.54,1q-1.44.89-2,1.29a5,5,0,0,0-1,.93Zm5.4,2.95h-3.56l.74-3.5h3.56Zm10.72,0h-3.43l2.49-11.74h-4l.48-2.28a15.71,15.71,0,0,0,2.27-.21,4,4,0,0,0,1.83-.89,3.73,3.73,0,0,0,.92-1.22,3.14,3.14,0,0,0,.28-.68h2.78Zm18.86-12.64a5.88,5.88,0,0,1-.75,1.79,4.67,4.67,0,0,1-1.95,1.66,3.48,3.48,0,0,1,1.49,1.87,4.89,4.89,0,0,1,.08,2.6,6.25,6.25,0,0,1-2.37,3.66,7.46,7.46,0,0,1-4.77,1.51q-2.85,0-4-1.51a4.29,4.29,0,0,1-.69-3.66,6.36,6.36,0,0,1,1.2-2.6,5.6,5.6,0,0,1,2.28-1.75,2.93,2.93,0,0,1-1.23-1.78,4.7,4.7,0,0,1,0-1.79,5.41,5.41,0,0,1,2.07-3.17,6.64,6.64,0,0,1,4.22-1.31,4.59,4.59,0,0,1,3.67,1.31A3.48,3.48,0,0,1,337.7,136.87Zm13.85,7.52H344.8l.68-3.17h6.74Zm19.35,2.17-.62,2.95H358.61a9.69,9.69,0,0,1,1.49-3.35,13,13,0,0,1,4.15-3.61,33.7,33.7,0,0,0,3.5-2.37,4.51,4.51,0,0,0,1.56-2.44,2.36,2.36,0,0,0-.21-1.8,1.7,1.7,0,0,0-1.56-.72,2.66,2.66,0,0,0-2.33,1.14,6.55,6.55,0,0,0-.81,2.09h-3.25a9.92,9.92,0,0,1,1.53-3.51,6.2,6.2,0,0,1,5.3-2.55,5,5,0,0,1,4,1.5,4.38,4.38,0,0,1,.75,4,6.73,6.73,0,0,1-1.83,3.36,15.45,15.45,0,0,1-2.9,2.17l-1.54,1q-1.44.89-2,1.29a5,5,0,0,0-1,.93Zm5.4,2.95h-3.56l.74-3.5H377Zm10.72,0h-3.43l2.49-11.74h-4l.48-2.28a15.71,15.71,0,0,0,2.27-.21,4,4,0,0,0,1.83-.89,3.73,3.73,0,0,0,.92-1.22,3.14,3.14,0,0,0,.28-.68h2.78Zm18.86-12.64a5.88,5.88,0,0,1-.75,1.79,4.67,4.67,0,0,1-1.95,1.66,3.48,3.48,0,0,1,1.49,1.87,4.89,4.89,0,0,1,.08,2.6,6.25,6.25,0,0,1-2.37,3.66,7.46,7.46,0,0,1-4.77,1.51q-2.85,0-4-1.51a4.29,4.29,0,0,1-.69-3.66,6.36,6.36,0,0,1,1.2-2.6,5.6,5.6,0,0,1,2.28-1.75,2.93,2.93,0,0,1-1.23-1.78,4.7,4.7,0,0,1,0-1.79,5.41,5.41,0,0,1,2.07-3.17,6.64,6.64,0,0,1,4.22-1.31,4.59,4.59,0,0,1,3.67,1.31A3.48,3.48,0,0,1,405.88,136.87Z"/><path class="cls-5" d="M400.91,135.1a2.57,2.57,0,0,0-1.7.57,2.75,2.75,0,0,0-.91,1.58,1.82,1.82,0,0,0,.25,1.52,1.7,1.7,0,0,0,1.45.59,2.54,2.54,0,0,0,1.71-.59,2.62,2.62,0,0,0,.88-1.52,1.84,1.84,0,0,0-.22-1.58A1.73,1.73,0,0,0,400.91,135.1Z"/><path class="cls-6" d="M576.78,409.27a28.77,28.77,0,0,1-6.6,5.2v7.88c0,1.09-.29,1.63-1.11,1.88a13.58,13.58,0,0,1-4,.31,6,6,0,0,0-.71-1.8c1.5.06,3,.06,3.43,0s.56-.12.56-.46v-8.75a23.27,23.27,0,0,0,4.89-3.47H561.49v-1.76H575l.4-.1Z"/><path class="cls-6" d="M594.29,409.34a6.05,6.05,0,0,1-3.62,5.06,4.9,4.9,0,0,0-.84-1.11v9.38c0,.77-.15,1.27-.67,1.53a6.61,6.61,0,0,1-2.55.27A5.67,5.67,0,0,0,586,423c.92,0,1.73,0,2,0s.34-.1.34-.35v-3.13h-4.26a11.32,11.32,0,0,1-1.48,5,7,7,0,0,0-1.27-.79c1.29-2,1.42-4.83,1.42-7v-3l-.17.21a12,12,0,0,0-1.3-1.06,13.86,13.86,0,0,0,2.9-6l1.63.36c-.13.46-.27.92-.42,1.38h2l.25-.08,1,.65a24.6,24.6,0,0,1-1.15,2.53h2.28v1.38a4.65,4.65,0,0,0,2.82-3.78h-2.38v-1.48h8.34s0,.42,0,.61c-.13,3.11-.31,4.39-.71,4.85a1.44,1.44,0,0,1-1.09.54,12.31,12.31,0,0,1-1.94,0,4.33,4.33,0,0,0-.4-1.48,13.68,13.68,0,0,0,1.55.08.52.52,0,0,0,.52-.17c.21-.23.35-1,.44-3Zm-9.44.67c-.25.59-.52,1.19-.81,1.73h2a16.21,16.21,0,0,0,.71-1.73Zm-.65,6.77c0,.44,0,.9,0,1.38h1.48v-1.94H584.2Zm0-1.88h1.46v-1.82H584.2Zm2.7,0h1.44v-1.82h-1.44Zm1.44,3.26v-1.94h-1.44v1.94ZM599.12,421h-3.49v3.38h-1.69V421h-3.8v-1.55h3.8v-2.07h-1.88a9.44,9.44,0,0,1-.9,1.71,8.13,8.13,0,0,0-1.34-.71,10.88,10.88,0,0,0,1.65-4.22l1.48.31q-.14.69-.35,1.38h1.34V414h1.69v1.84h3.13v1.53h-3.13v2.07h3.49Z"/><path class="cls-6" d="M612.19,418.42a5.93,5.93,0,0,1-1.59,3c2.46,1,5.68,1.17,9.74,1.21a4.43,4.43,0,0,0-.75,1.76c-4.3-.15-7.79-.48-10.47-1.8a16.54,16.54,0,0,1-5.33,1.94A7.8,7.8,0,0,0,602.7,423a18,18,0,0,0,4.76-1.4,9.26,9.26,0,0,1-2.23-2.47l1.55-.61a7.77,7.77,0,0,0,2.15,2.11,4.51,4.51,0,0,0,1.36-2.17h-5.52v-7.56h5.81v-1.38h-7.5v-1.61h16.59v1.61h-7.23v1.38h6v7.56Zm-5.74-4.47h4.12v-1.63h-4.12Zm4.09,3a7.6,7.6,0,0,0,0-.94v-.69h-4.12V417Zm6.16-1.63h-4.26V416a7.28,7.28,0,0,1,0,.92h4.3Zm-4.26-3v1.63h4.26v-1.63Z"/><path class="cls-6" d="M641,416c-2.67,5.7-9.05,7.83-16,8.57a6,6,0,0,0-.71-1.73,30.74,30.74,0,0,0,8.65-1.84,24.28,24.28,0,0,0-2.4-2.13q-1.27.66-2.76,1.27a5.18,5.18,0,0,0-1.11-1.38,16.77,16.77,0,0,0,8-5.2l2,.44a16.1,16.1,0,0,1-1.21,1.36h4.1l.31-.08Zm-2.69-6.85c-2.44,4.32-7.94,6.77-13.1,7.81a7.32,7.32,0,0,0-.84-1.57,26.74,26.74,0,0,0,6.06-1.76,15.8,15.8,0,0,0-2.28-2c-.63.35-1.3.71-2,1a5.51,5.51,0,0,0-1.21-1.28,16.32,16.32,0,0,0,6.58-4.51l1.94.44a11.88,11.88,0,0,1-1.19,1.23h4.58l.31-.1Zm-7.9,1a9.54,9.54,0,0,1-.9.63,20.94,20.94,0,0,1,2.51,2.07,13.05,13.05,0,0,0,3.53-2.7Zm3.11,6.85c-.46.36-1,.71-1.5,1.06a23.51,23.51,0,0,1,2.57,2.19,10.8,10.8,0,0,0,3.74-3.24Z"/><path class="cls-6" d="M652.56,424.78v-18l15.61,9Z"/><path class="cls-4" d="M179.28,306.38v14.25h-2.4v-1H166.26v1H164V306.38h6.35v-3.62h2.36v3.63Zm-13,2.3v3.2h4.07v-3.2Zm0,8.69h4.07v-3.26h-4.07Zm6.43-8.69v3.2h4.2v-3.2Zm4.2,8.69v-3.26h-4.2v3.26Z"/><path class="cls-4" d="M201.5,305.63h-3.32a12.41,12.41,0,0,1,1.32,1.21l-1.38,1.21h1.57v4.85h-6.08V314h7s0,.56-.06.83c-.19,2.55-.42,3.8-.92,4.3a2,2,0,0,1-1.46.67,18.84,18.84,0,0,1-2.44,0,4.59,4.59,0,0,0-.63-2.07,16,16,0,0,0,2,.08.88.88,0,0,0,.65-.17,3.44,3.44,0,0,0,.46-1.76h-4.58v4.74h-2.24v-3.74a17.34,17.34,0,0,1-5.83,3.66,8.74,8.74,0,0,0-1.44-1.8,17,17,0,0,0,5.56-2.86h-4.12a41.68,41.68,0,0,0,.71-4.91h5.12v-1.09h-5.83v-1.88h3.91a15.27,15.27,0,0,0-1.76-1.76l.73-.63h-1.13a15.07,15.07,0,0,1-2,2.47,14.45,14.45,0,0,0-1.53-1.53,11,11,0,0,0,2.78-4l2,.58a6.83,6.83,0,0,1-.34.77h4.22v1.75h-2.74a12,12,0,0,1,1.3,1.27l-1.23,1.13h8.09a14.78,14.78,0,0,0-1.86-1.71l.82-.71h-1.57a10.11,10.11,0,0,1-1.5,1.86,10.68,10.68,0,0,0-1.71-1.32,8.65,8.65,0,0,0,2.4-3.61l2.07.52c-.1.27-.21.56-.33.82h5.27Zm-10.13,7.27h-3.13c-.06.38-.1.77-.15,1.13h3.28Zm6.06-3h-3.82V311h3.82Z"/><path class="cls-4" d="M222.11,317.16v2.34H205.46v-2.34Zm-1-12.58v2.3H206.53v-2.3Zm-1.51,6.12V313h-11.7V310.7Z"/><path class="cls-4" d="M231.59,303.43a36.43,36.43,0,0,1-1.5,3.64v13.6h-2.17v-9.82a19.64,19.64,0,0,1-1.29,1.65,16.08,16.08,0,0,0-1.07-2.47,20.28,20.28,0,0,0,3.91-7.25Zm11.72.29v16.74h-2.17v-.94h-7.21v1.11h-2.07V303.72Zm-2.17,13.83V305.69h-7.21v11.85Zm-2.76-7.84v1.65h1.84v5.14H234.9v-5.14h1.71V309.7h-2.21v-1.65h2.21v-2h1.76v2h2.32v1.65Zm.13,3.22h-2v2h2Z"/><path class="cls-4" d="M254.23,307.73a25.38,25.38,0,0,1-2.05,2.93v10h-2.28v-7.5c-.54.52-1.05,1-1.57,1.42a22.34,22.34,0,0,0-1.55-2,18.7,18.7,0,0,0,5.27-5.73Zm-.71-4.09a25.75,25.75,0,0,1-5.27,5,13.32,13.32,0,0,0-1.27-1.86,17.06,17.06,0,0,0,4.33-4.09Zm11.28,7.63h-2.63V318c0,1.23-.23,1.86-1.07,2.21a10.59,10.59,0,0,1-3.74.38,9.44,9.44,0,0,0-.69-2.32c1.09.06,2.36.06,2.7,0s.48-.08.48-.36v-6.67h-5.66v-2.17h10.61Zm-.48-5.27H255v-2.17h9.32Z"/><path class="cls-4" d="M285.67,307.05s0,.75,0,1c-.17,7.84-.33,10.63-.94,11.51a2.14,2.14,0,0,1-1.52,1,12.9,12.9,0,0,1-2.38.08,5.35,5.35,0,0,0-.67-2.19c.84.08,1.57.1,1.94.1a.7.7,0,0,0,.65-.33c.4-.52.59-2.86.71-9.05h-1.73c-.25,5.14-1.13,9.09-4.35,11.64a7.51,7.51,0,0,0-1.34-1.52c-2.76.29-5.52.58-7.6.75l-.27-1.92,3.89-.27v-1.15h-3.38v-1.61H272v-.75h-3.3V308.4H272v-.75h-3.78V306H272v-.77c-1.11.08-2.21.13-3.24.15a7.12,7.12,0,0,0-.5-1.61,59.38,59.38,0,0,0,8.27-.94l1,1.71c-1,.21-2.21.38-3.45.52V306h3.68v1.05h1.8c0-1.27,0-2.59,0-4h2.19c0,1.4,0,2.74,0,4Zm-15.11,3.63H272v-.84h-1.5Zm1.5,2.23V312h-1.5v.86Zm2.07,4.76c1.09-.08,2.23-.17,3.34-.27,1.5-2.07,2-4.81,2.09-8.25H277.8v-1.5h-3.68v.75h3.4v5.93h-3.4v.75h3.47v1.61h-3.47Zm1.5-7v-.84h-1.5v.84Zm-1.5,1.36v.86h1.5V312Z"/><path class="cls-4" d="M303.22,316.2c1.34,1,3.18,2.3,4.1,3.11l-1.44,1.46c-.92-.92-2.82-2.4-4.18-3.45L303,316.2h-1.23c-.69,2.21-2.3,3.63-6.2,4.45a5.5,5.5,0,0,0-1.11-1.76c2.93-.54,4.32-1.38,5-2.69H295v-1.82h1.3V309.3l-.17.13A6.3,6.3,0,0,0,295,308v7.69h-3.11v1.71h-1.92V304.41h5v3.36a11.4,11.4,0,0,0,3.68-5l2.15.36c-.15.36-.33.75-.52,1.13h2.42l.33-.08,1.38.9a17.74,17.74,0,0,1-1.42,2.28h3.13v7h1.07v1.82Zm-10.11-9.71h-1.27v7.06h1.27Zm5.1,5.27a9.19,9.19,0,0,0,2.26-2.61h-2.26Zm4,1.21c0,.48-.08,1-.13,1.4h2v-2.13l-.65.77a19.94,19.94,0,0,0-2.42-1.75,10.38,10.38,0,0,1-1.86,1.82,11.12,11.12,0,0,0-1-.71v2h1.71c.08-.44.12-.9.15-1.4Zm-3-6.94a12.46,12.46,0,0,1-1,1.32h2.47a13,13,0,0,0,.81-1.32Zm4.87,3.13H302.3l.08,0a10,10,0,0,1-.48.9,17.68,17.68,0,0,1,2.23,1.4Z"/><path class="cls-4" d="M316.39,317.56a12.39,12.39,0,0,0,3.84.42c1.46,0,6.54,0,8.27-.08a7.79,7.79,0,0,0-.86,2.26h-7.4c-3.55,0-5.83-.48-7.35-2.63a13.69,13.69,0,0,1-.88,3.38,20,20,0,0,0-1.92-1c.94-1.94,1.13-5.14,1.17-8.42l2.09.15c0,.84-.06,1.69-.1,2.47a6.14,6.14,0,0,0,1.05,2v-5.77h-3.72v-2h3.24v-1.78h-2.7v-2h2.7V302.8H316v1.86h2.55v2H316v1.78h3v2h-2.59v2.07h2.44v2h-2.44Zm6.23-.46c-2.15,0-2.84-.65-2.84-3.09V303.49h7.4v7.29H322V314c0,.88.12,1,.92,1h2.47c.73,0,.86-.44,1-2.47a6.47,6.47,0,0,0,2,.88c-.25,2.72-.86,3.64-2.78,3.64ZM322,305.48v3.32h3v-3.32Z"/><path class="cls-4" d="M341.48,314.65a6.3,6.3,0,0,1-1.4,2.67c2.49.82,5.64.9,9.53.88a5.52,5.52,0,0,0-1,2.26c-4.16-.1-7.69-.38-10.43-1.59a17.31,17.31,0,0,1-5.2,1.8,10.58,10.58,0,0,0-1.38-2,18.59,18.59,0,0,0,4.33-1.13,9.24,9.24,0,0,1-2-2.15l1.75-.71h-2v-7.88h5.68v-1.13H332v-2h16.8v2h-7.06v1.13h5.87v7.88Zm-5.64-4.81h3.53v-1.23h-3.53Zm0,3h3.51c0-.21,0-.42,0-.63v-.61h-3.53Zm.19,1.86a7.26,7.26,0,0,0,1.86,1.67,4.2,4.2,0,0,0,1.11-1.67Zm9.34-3.11h-3.61v.63c0,.19,0,.4,0,.61h3.63Zm-3.61-2.93v1.23h3.61v-1.23Z"/><path class="cls-4" d="M370.22,312.16c-2.71,5.83-9,7.84-16.3,8.54a9.61,9.61,0,0,0-.92-2.21A31.69,31.69,0,0,0,361.3,317c-.54-.56-1.3-1.21-2-1.78a20.86,20.86,0,0,1-2.47,1.06,7.18,7.18,0,0,0-1.4-1.76c4-1.23,6.6-3.11,8.06-5l2.47.58c-.38.44-.75.86-1.17,1.29h3.43l.42-.11Zm-2.53-7.06c-2.47,4.41-7.92,6.79-13.45,7.83a8.43,8.43,0,0,0-1.05-2,26.39,26.39,0,0,0,5.66-1.46,24.38,24.38,0,0,0-1.88-1.73c-.56.31-1.13.59-1.75.86a7,7,0,0,0-1.55-1.63,16.47,16.47,0,0,0,6.66-4.28l2.46.58q-.49.52-1,1h4l.4-.1Zm-8.4,1.21c-.17.13-.36.25-.56.38a15.3,15.3,0,0,1,2.17,1.86,12.79,12.79,0,0,0,3.17-2.24Zm3.09,7.08-1.11.75a18.75,18.75,0,0,1,2.24,1.9,10.26,10.26,0,0,0,3.22-2.65Z"/><path class="cls-4" d="M383.77,302.76c0,.81-.06,1.84-.13,3,.27,2.59,1.44,9.82,8.13,12.77a6.09,6.09,0,0,0-1.67,2,14.84,14.84,0,0,1-7.5-9.07,15.62,15.62,0,0,1-7.06,9.19,7.32,7.32,0,0,0-1.9-1.86c7.79-4.16,7.42-12.75,7.5-16Z"/><path class="cls-4" d="M412.21,305.69s0,.77,0,1c-.25,8.57-.46,11.62-1.25,12.64a2.56,2.56,0,0,1-1.84,1.05,21.5,21.5,0,0,1-3,0,5.36,5.36,0,0,0-.75-2.23c1.23.12,2.36.12,2.86.12a1,1,0,0,0,.84-.33c.56-.61.81-3.49,1-10.26H406a16.56,16.56,0,0,1-1.69,3,14.25,14.25,0,0,0-1.48-1.07v9h-5.12v1.4h-2.07V305.83h2.17a20.67,20.67,0,0,0,.56-3.09l2.49.35c-.33,1-.67,1.92-1,2.74h3v3.11a19.83,19.83,0,0,0,2.59-6.18l2.17.5a22.53,22.53,0,0,1-.75,2.44Zm-11.49,2.13h-3v3.11h3Zm0,8.84V312.9h-3v3.76Zm6.37-1a40.92,40.92,0,0,0-2.67-4.43l1.78-1a46.31,46.31,0,0,1,2.82,4.26Z"/><path class="cls-4" d="M423.06,307.73a25.38,25.38,0,0,1-2.05,2.93v10h-2.28v-7.5c-.54.52-1.05,1-1.57,1.42a22.34,22.34,0,0,0-1.55-2,18.7,18.7,0,0,0,5.27-5.73Zm-.71-4.09a25.75,25.75,0,0,1-5.27,5,13.32,13.32,0,0,0-1.27-1.86,17.06,17.06,0,0,0,4.33-4.09Zm11.28,7.63H431V318c0,1.23-.23,1.86-1.07,2.21a10.59,10.59,0,0,1-3.74.38,9.44,9.44,0,0,0-.69-2.32c1.09.06,2.36.06,2.7,0s.48-.08.48-.36v-6.67H423v-2.17h10.61Zm-.48-5.27h-9.32v-2.17h9.32Z"/><path class="cls-4" d="M454.5,307.05s0,.75,0,1c-.17,7.84-.33,10.63-.94,11.51a2.14,2.14,0,0,1-1.52,1,12.9,12.9,0,0,1-2.38.08,5.35,5.35,0,0,0-.67-2.19c.84.08,1.57.1,1.94.1a.7.7,0,0,0,.65-.33c.4-.52.59-2.86.71-9.05h-1.73c-.25,5.14-1.13,9.09-4.35,11.64a7.51,7.51,0,0,0-1.34-1.52c-2.76.29-5.52.58-7.6.75L437,318.1l3.89-.27v-1.15h-3.38v-1.61h3.38v-.75h-3.3V308.4h3.3v-.75H437.1V306h3.78v-.77c-1.11.08-2.21.13-3.24.15a7.12,7.12,0,0,0-.5-1.61,59.38,59.38,0,0,0,8.27-.94l1,1.71c-1,.21-2.21.38-3.45.52V306h3.68v1.05h1.8c0-1.27,0-2.59,0-4h2.19c0,1.4,0,2.74,0,4Zm-15.11,3.63h1.5v-.84h-1.5Zm1.5,2.23V312h-1.5v.86Zm2.07,4.76c1.09-.08,2.23-.17,3.34-.27,1.5-2.07,2-4.81,2.09-8.25h-1.75v-1.5H443v.75h3.4v5.93H443v.75h3.47v1.61H443Zm1.5-7v-.84H443v.84ZM443,312v.86h1.5V312Z"/><path class="cls-4" d="M458.25,319.06a9.48,9.48,0,0,0,2.38-3.26l1.9.84a11.92,11.92,0,0,1-2.38,3.53Zm17.13-10.38H458.78v-1.76h4a7.45,7.45,0,0,0-.38-1.05l1.44-.29h-4.12v-1.76h6.21c-.1-.31-.21-.63-.33-.9l2.23-.4a8.88,8.88,0,0,1,.56,1.3h6v1.76h-3.93l1.53.27c-.23.38-.42.75-.61,1.07h4Zm-2.07,6.54h-5.87a14.86,14.86,0,0,1,2,1.27l-1.4,1.4a13.36,13.36,0,0,0-3-1.9l.79-.77H461v-5.85H473.3Zm-4.45,3.4c.71,0,.82-.21.92-1.55a6.63,6.63,0,0,0,1.94.71c-.25,2.13-.86,2.67-2.65,2.67H466c-2.42,0-3-.56-3-2.36v-2h2.22v2c0,.5.15.56,1,.56Zm2.19-7.83H463.1v.82H471Zm0,2.17H463.1v.82H471Zm-6.48-7.38a8.55,8.55,0,0,1,.54,1.34H469c.19-.44.4-.94.54-1.34Zm8.69,10.05a14.58,14.58,0,0,1,2.34,3.4l-2,.88a14.16,14.16,0,0,0-2.21-3.47Z"/><path class="cls-4" d="M482.09,305.94h3v1.78H479.5v-1.78h2.3a19.64,19.64,0,0,0-1.09-2.55l1.59-.59a16.13,16.13,0,0,1,1.25,2.53Zm2.59,4.37h-4.62v-1.73h4.62Zm-4.62.88h4.62v1.71h-4.62Zm4.66,8.4h-3v.81h-1.59v-6.56h4.64Zm-3-4v2.26h1.42v-2.26Zm15-3.82a18.35,18.35,0,0,1-2.21,4.66c.21,1,.42,1.52.65,1.52s.4-.82.48-2.28a6.61,6.61,0,0,0,1.46,1.27c-.48,3-1.32,3.61-2,3.61-.86,0-1.53-.81-2.05-2.21a13.67,13.67,0,0,1-2.51,2.24,6.64,6.64,0,0,0-1.28-1.25,10.18,10.18,0,0,0,1.15-.88h-1.13V318h-1.71v1.38H485.7V311h5.39v6.73a16.06,16.06,0,0,0,1.36-1.59,48.61,48.61,0,0,1-.73-5.83H485.1v-1.92h1.13c-.08-.58-.23-1.25-.36-1.8l1.53-.27a13.87,13.87,0,0,1,.46,2.07h.69a18.78,18.78,0,0,0,.4-2.09l1.73.25c-.19.65-.38,1.3-.56,1.84h1.48c-.1-1.75-.15-3.64-.19-5.64h2c0,2,.08,3.86.15,5.64h3.3v1.92h-3.17c.08,1.13.17,2.17.29,3.13a20.33,20.33,0,0,0,.94-2.57Zm-5.6-5.45h-5.7v-1.75h2.07a15.09,15.09,0,0,0-.61-1.38l1.76-.48a12.35,12.35,0,0,1,.84,1.86h1.63Zm-3.55,6.23v1.19h1.71v-1.19Zm1.71,3.91v-1.23h-1.71v1.23Zm5.66-8.55a21.42,21.42,0,0,0-1.32-3.43l1.65-.65a20.52,20.52,0,0,1,1.44,3.34Z"/><path class="cls-4" d="M507,314.36c1.5-.48,2.36-1.3,2.47-2.32a.73.73,0,0,1-.21,0,1.7,1.7,0,0,1-1.82-1.71,1.75,1.75,0,0,1,1.88-1.73c1.36,0,2.07,1,2.07,2.63a4.81,4.81,0,0,1-3.78,4.64Z"/><path class="cls-4" d="M180.22,346.58v2.36H163v-2.36h5.41v-9.21h-5v-2.24h3.89a14.09,14.09,0,0,0-1.38-2.59l2-.79a13.45,13.45,0,0,1,1.71,3.07l-.73.31h4.68a19.82,19.82,0,0,0,1.75-3.41l2.55.67c-.58,1-1.17,2-1.73,2.74h3.68v2.24h-5v9.21Zm-14-7.77a22.75,22.75,0,0,1,1.69,5.85l-2.21.56a21.61,21.61,0,0,0-1.53-5.87Zm4.47,7.77h1.84v-9.21h-1.84Zm4.43-1.92a34.62,34.62,0,0,0,1.78-6l2.47.56a55.55,55.55,0,0,1-2.19,6Z"/><path class="cls-4" d="M189.74,336.59a25.67,25.67,0,0,1-1.46,2.32v10.78h-2.13v-8.21a17,17,0,0,1-1.5,1.42,13.87,13.87,0,0,0-1.19-2.13,16.09,16.09,0,0,0,4.28-4.93Zm-.33-4a23.6,23.6,0,0,1-4.58,4.68,17.6,17.6,0,0,0-1.19-1.67,16,16,0,0,0,3.76-3.8Zm7.4,14.73a9,9,0,0,0,1.46.1c.54,0,2.65,0,3.38,0a6.76,6.76,0,0,0-.63,2.05h-2.93c-2.61,0-4.64-.63-6-3a8.49,8.49,0,0,1-2,3.2,10,10,0,0,0-1.73-1.46c1.8-1.53,2.46-4.16,2.63-7.37l2.21.17a27,27,0,0,1-.33,2.69,5.51,5.51,0,0,0,1.9,2.82v-7h.69a13.63,13.63,0,0,0-1.23-.86c1.86-1.44,2.88-3.91,3.26-6.89l2.13.25a19.18,19.18,0,0,1-.73,3.2,25.52,25.52,0,0,1,3,3.07l-1.52,1.52a20.43,20.43,0,0,0-2.26-2.61,10.16,10.16,0,0,1-1.59,2.32h.4v2.7h3.7v1.92h-3.7Zm-2.28-9.19a15,15,0,0,0-1.53-1.36,11.17,11.17,0,0,1-2.32,3.3,10.36,10.36,0,0,0-1.61-1.55c1.71-1.48,2.74-4,3.22-6.71l2.17.33a20.6,20.6,0,0,1-.73,2.8,17.49,17.49,0,0,1,1.82,1.42Z"/><path class="cls-4" d="M221.7,335.06v9.57h-2.4v-1H215v6h-2.42v-6h-4.32v1.05h-2.3v-9.67h6.62v-3.32H215v3.32Zm-9.15,6.37V337.3h-4.32v4.12Zm6.75,0V337.3H215v4.12Z"/><path class="cls-4" d="M233,341.9l-2.24.61v4.56c0,1.11-.21,1.67-.86,2a6.09,6.09,0,0,1-2.9.42,7.59,7.59,0,0,0-.65-2.07c.77,0,1.55,0,1.8,0s.36-.1.36-.36v-4l-2,.5-.59-2.17c.75-.15,1.67-.36,2.63-.59v-3.36H226.1v-2.11h2.38v-3.62h2.24v3.63h2.05v2.11h-2.05v2.8l2-.48Zm9.86-2.09a19.25,19.25,0,0,1-3.45,5.12c.52,1.07,1.15,1.71,1.9,1.82.44,0,.69-.88.83-2.93a7.57,7.57,0,0,0,1.9,1.32c-.5,3.55-1.53,4.45-2.61,4.35a4.84,4.84,0,0,1-3.82-2.84A15.65,15.65,0,0,1,234,349a9,9,0,0,0-1.84-1.76,15.63,15.63,0,0,0,4.53-2.8,32.56,32.56,0,0,1-1.07-5.7l-2.38.25-.23-2.19,2.42-.23c-.12-1.48-.19-3.07-.25-4.76h2.34c0,1.59.1,3.11.19,4.55l5.75-.56.21,2.13-5.77.58a31.44,31.44,0,0,0,.69,4,16.53,16.53,0,0,0,2.38-3.84ZM240.68,336a25.73,25.73,0,0,0-2.46-2.92l1.73-1.13a33,33,0,0,1,2.57,2.76Z"/><path class="cls-4" d="M263.83,341.31v8.32h-2.57v-1H248.09v-7.27h2.57v5h4v-6H249.1v-7h2.42v4.76h3.17v-6.37h2.53v6.37h3.3v-4.76H263v7h-5.83v6h4v-5Z"/><path class="cls-4" d="M285.78,335.32h-2.21v11.43c0,1.38-.33,2.05-1.23,2.44a13,13,0,0,1-4.33.42,10.3,10.3,0,0,0-.94-2.42c1.36.08,3,.06,3.49.06s.61-.13.61-.54V335.32H268.5V333h17.28Zm-13.29,9.57v1.46h-2.22v-8.88h8.13v7.42Zm0-5.26v3.07h3.64v-3.07Z"/><path class="cls-4" d="M297.49,344.24c-2.53,1.13-5.37,2.34-7.54,3.24l-.77-2.44c.73-.25,1.59-.56,2.55-.94l-.38-11.2,2.38-.1.35,10.38c1-.4,1.94-.81,2.9-1.19Zm7.94,5.39a33.61,33.61,0,0,0-3.59-4.62,13.69,13.69,0,0,1-5.83,4.66,13.43,13.43,0,0,0-1.82-2c6.08-2.3,8.06-6.94,8.77-14.83l2.51.23a29.63,29.63,0,0,1-2.34,9.74,41.93,41.93,0,0,1,4.26,4.93Zm-7.19-9.84a19.54,19.54,0,0,0-2.86-4.76l2.07-1a19.57,19.57,0,0,1,3,4.6Z"/><path class="cls-4" d="M316.54,341.92c-.58.17-1.15.35-1.75.5V347c0,1.06-.17,1.61-.77,2a4.63,4.63,0,0,1-2.63.44,7.52,7.52,0,0,0-.59-2.09c.71,0,1.36,0,1.59,0s.31-.08.31-.33V343l-2,.59-.5-2.19,2.53-.63v-3.34h-2.22v-2.11h2.22v-3.61h2.09v3.61h1.57v2.11h-1.57v2.8l1.46-.4Zm11.74-8V336h-4.7v1.52h3.85v2.07h-9.82v-2.07h3.8V336h-4.79v-2.07h4.79v-2.11h2.17v2.11Zm-2.22,7.31h2.11v2.07h-2.11v4c0,1.13-.21,1.69-1,2a8,8,0,0,1-3.09.35,9.7,9.7,0,0,0-.65-2.13,21.07,21.07,0,0,0,2.17,0c.27,0,.36-.06.36-.33v-3.89h-7.06v-2.07h7.06v-1.3h2.17Zm-6.39,2.21a31.28,31.28,0,0,1,2.15,3.2l-1.92,1.11a30.48,30.48,0,0,0-2-3.36Z"/><path class="cls-4" d="M336.72,343.8c0-.27-.08-.58-.13-.92-3.39.5-4,.67-4.43.86-.12-.38-.42-1.34-.65-1.86.46-.1.84-.56,1.42-1.29.23-.29.65-.88,1.17-1.69a7.47,7.47,0,0,0-2.09.4,15.56,15.56,0,0,0-.63-1.78c.34-.1.65-.48,1-1.07a23.32,23.32,0,0,0,2.09-4.74l1.86.73a30.29,30.29,0,0,1-2.36,4.66l1.23-.1c.44-.82.88-1.71,1.25-2.59l1.73,1a34.54,34.54,0,0,1-3.72,5.91l1.76-.21c-.13-.52-.27-1-.42-1.48l1.52-.4a25.09,25.09,0,0,1,1,4Zm-2.8.81a24.28,24.28,0,0,1-.86,4.95,9,9,0,0,0-1.67-.58,18.5,18.5,0,0,0,.8-4.64Zm1.78-.31a38.63,38.63,0,0,1,.44,4.41l-1.61.29a41.9,41.9,0,0,0-.33-4.43Zm1.69-.5a25.11,25.11,0,0,1,.94,3.43l-1.46.5a29.5,29.5,0,0,0-.88-3.53Zm8.48,3c1.29.42,2.59.92,3.45,1.27l-.9,1.59c-1-.48-2.68-1.17-4.14-1.71l.63-1.15h-2.84l1.15,1.13c-1.52.65-3.43,1.36-4.83,1.82a14.88,14.88,0,0,0-.79-1.57,34,34,0,0,0,3.63-1.38h-2.57v-5.75h9.71v5.75ZM342.46,334h-4.56v-1.46h4.56v-.82h2.23v.82H349V334h-4.33v.65h3.74V336H338.6v-1.36h3.86ZM338,336.57h11v3.91H338Zm1.86,2.53h1.38V338h-1.38Zm.84,3.7h5.56v-.58h-5.56Zm0,1.42h5.56v-.58h-5.56Zm0,1.44h5.56V345h-5.56Zm3.47-6.56V338H342.9v1.15ZM347,338h-1.23v1.15H347Z"/><path class="cls-4" d="M370.14,334.92a25,25,0,0,1-2.26,1.76,13.83,13.83,0,0,0,2.74,1.07,8.28,8.28,0,0,0-1.36,1.8,13.19,13.19,0,0,1-2.19-.92v1.65c0,.46,0,.61.29.61h.94a4.13,4.13,0,0,0,1-.1c0,.46.08,1.11.15,1.55a3.82,3.82,0,0,1-1.11.11h-1.19c-1.61,0-1.92-.65-1.92-2.21v-1.11h-1.76a4.45,4.45,0,0,1-2.11,3.8,8.37,8.37,0,0,0-1.15-1.23v.58h-3.8c-.08.44-.13.9-.19,1.32h4s0,.52,0,.79c-.21,2.59-.44,3.84-.94,4.33a2,2,0,0,1-1.53.63,21.15,21.15,0,0,1-2.53,0,4.31,4.31,0,0,0-.65-1.9c1,.08,1.9.1,2.32.1a.88.88,0,0,0,.69-.19c.23-.21.4-.83.54-2.13h-4c.27-1.25.58-3.15.75-4.66h3.4v-1.34h-2.78V339a15.48,15.48,0,0,1-1.75.75A8.67,8.67,0,0,0,352.4,338a12.55,12.55,0,0,0,3.22-1.48,18.75,18.75,0,0,0-1.78-1.15l1.3-1.21a14,14,0,0,1,2,1.21,9.52,9.52,0,0,0,1.11-1.23h-3.78v-1.78h5l.38-.1,1.4.69a10.82,10.82,0,0,1-3.61,4.55h2.51v3.82a2.76,2.76,0,0,0,1.36-2.57v-1.36h3.66a13.33,13.33,0,0,1-3.87-5.08l1.82-.54a7.81,7.81,0,0,0,1.09,1.8,17.54,17.54,0,0,0,1.8-1.76l1.63,1.17c-.79.65-1.61,1.34-2.34,1.86.33.31.67.59,1,.86a16.51,16.51,0,0,0,2.13-2Zm-1.4,8.48a8.54,8.54,0,0,1-2.11,3.41c.86.48,1.65,1,2.22,1.34l-1.15,1.52c-.65-.46-1.57-1.06-2.61-1.67a14.19,14.19,0,0,1-4.28,1.65,6.52,6.52,0,0,0-1-1.65,12.3,12.3,0,0,0,3.41-1.07c-.94-.52-1.84-1-2.67-1.48l.77-.92h-.46V343h6.23l.35-.06Zm-6.37,1.13c.8.42,1.69.86,2.55,1.34a7.28,7.28,0,0,0,1.21-1.34Z"/><path class="cls-4" d="M379.74,341.83c-.61.19-1.23.38-1.84.56v4.85c0,1.06-.17,1.63-.75,2a5,5,0,0,1-2.67.42,9.28,9.28,0,0,0-.56-2.11,15.24,15.24,0,0,0,1.57,0c.23,0,.33-.08.33-.33V343c-.63.19-1.27.36-1.82.52l-.5-2.19c.65-.13,1.46-.35,2.32-.56v-3.32h-2v-2.09h2v-3.61h2.07v3.61h1.75v2.09H377.9v2.76l1.55-.44Zm11.76,5.52H386.6v2.32h-2.09v-2.32h-5v-1.84h5v-.81h-3.8v-6.14h3.8v-.79h-4V336h4v-1.4h2.09V336h4.22v1.76H386.6v.79h4v6.14h-4v.81h4.89ZM382,335.65h-2v-3.18h11v3.18H389v-1.4h-7Zm.65,5.29h1.82v-.88h-1.82Zm1.82,2.24v-.88h-1.82v.88Zm2.09-3.13v.88h1.92v-.88Zm1.92,2.24H386.6v.88h1.92Z"/><path class="cls-4" d="M398.67,345.78a15.08,15.08,0,0,1-2.07,3.3,12.52,12.52,0,0,0-1.57-1.19,9.39,9.39,0,0,0,1.75-2.69Zm7.12-5.26H395V338.8h4.32c-.1-.21-.17-.4-.27-.58l1.5-.31h-4.68v-5.5h9.21v5.5h-3.76a6.36,6.36,0,0,1,.44.88h4Zm-4.26,4.6v2.51c0,.94-.13,1.4-.79,1.69a6.2,6.2,0,0,1-2.42.29,6.91,6.91,0,0,0-.63-1.82c.58,0,1.17,0,1.36,0s.25-.06.25-.23v-2.46h-3.09v-4h8.63v4Zm-3.45-10.63h4.78v-.71h-4.78Zm0,2h4.78v-.73h-4.78Zm.25,7.12h4.3v-1h-4.3Zm14.35-.25a16.22,16.22,0,0,1-6.21,6.1,8.53,8.53,0,0,0-1.51-1.75c.06.15.12.29.17.42l-1.69.81a19.91,19.91,0,0,0-1.57-3.13l1.61-.67a28,28,0,0,1,1.44,2.51,12.78,12.78,0,0,0,5.66-5.08Zm-.79-10.45a18.11,18.11,0,0,1-5,4.64,9,9,0,0,0-1.61-1.59,13.49,13.49,0,0,0,4.51-3.93Zm.42,5.18a19.76,19.76,0,0,1-5.45,4.91,7.72,7.72,0,0,0-1.57-1.59,15,15,0,0,0,4.93-4.2Z"/><path class="cls-4" d="M422,336.26a9.11,9.11,0,0,1-5.16,4.55,5.83,5.83,0,0,0-.82-1.4,8.53,8.53,0,0,0,3.39-2,10.12,10.12,0,0,0-2.69.42v0a12.35,12.35,0,0,0-.46-1.34,3,3,0,0,0,1.19-.59,7.41,7.41,0,0,0,.92-.69,5.79,5.79,0,0,0-1.59.25c-.1-.31-.33-1-.48-1.38a1.56,1.56,0,0,0,.79-.44,10.2,10.2,0,0,0,1.76-2.05l1.29.79a11.83,11.83,0,0,1-1.75,1.78l1.17-.06c.35-.35.69-.73,1-1.09l1.21.79a23.44,23.44,0,0,1-3,2.67l1.55-.12a7.28,7.28,0,0,0,.38-.79l1.32.25v-3.11h1.73a4.14,4.14,0,0,0-.29-.73l1.8-.42a4.47,4.47,0,0,1,.5,1.17h1.94v4.45H427a9.8,9.8,0,0,1,1.27,1.48v-6.37h3.89l.27-.08,1.32.61c-.4,1-.86,1.9-1.32,2.8a3.16,3.16,0,0,1,1.32,2.19,1.59,1.59,0,0,1-.75,1.53,2.51,2.51,0,0,1-.94.35,8,8,0,0,1-1.36,0,3.16,3.16,0,0,0-.5-1.52c.42,0,.81,0,1.07,0a1.48,1.48,0,0,0,.44-.1.59.59,0,0,0,.29-.56c0-.38-.38-.92-1.36-1.65.31-.71.56-1.42.79-2.07H430v6.43h-1.8v-1l-1.07.54a4.26,4.26,0,0,0-.48-.82c-3.76.81-4.37,1-4.74,1.19a4.51,4.51,0,0,0-.65-1.48,1.21,1.21,0,0,0,.73-1.21Zm7.5,5.66-.88,1h4.93v1.44H416.19V343h4.89a4.45,4.45,0,0,0-.52-.88l.59-.15h-2.93v-1.38h5.56a4.74,4.74,0,0,0-.27-.63l2.17-.48a8.57,8.57,0,0,1,.48,1.11h5.64v1.38Zm-10.65,3h12.35v4.7H429v-.42h-8.08v.44h-2.09Zm2.09,1.11v.56H429v-.56Zm8.08,2.05v-.56h-8.08v.56Zm-6.37-6.2a3.47,3.47,0,0,1,.5.94l-.36.1h3.87l-.12,0a7.31,7.31,0,0,0,.61-1Zm3.28-8.17h-2.07v.67h2.07Zm0,1.71h-2.07v.59h2.07Zm-.31,2.26-.4-.4.36-.17h-1.73v.9Z"/><path class="cls-4" d="M453.9,335.73s0,.79-.06,1.09c-.38,7.63-.77,10.51-1.61,11.51a2.58,2.58,0,0,1-2,1.07,19.52,19.52,0,0,1-3.07,0,5.3,5.3,0,0,0-.79-2.36c1.21.1,2.34.1,2.84.1a1.13,1.13,0,0,0,.9-.31c.58-.59,1-3.11,1.27-8.8h-5.37c-.31,4-1.65,8.63-7,11.68a9.07,9.07,0,0,0-1.78-1.86,11.7,11.7,0,0,0,6.37-9.82h-5.77v-2.34h5.87v-4h2.44v4Z"/><path class="cls-4" d="M475.53,334.69s0,.77,0,1c-.25,8.57-.46,11.62-1.25,12.64a2.56,2.56,0,0,1-1.84,1.05,21.5,21.5,0,0,1-3,0,5.36,5.36,0,0,0-.75-2.23c1.23.12,2.36.12,2.86.12a1,1,0,0,0,.84-.33c.56-.61.81-3.49,1-10.26h-4.1a16.56,16.56,0,0,1-1.69,3,14.25,14.25,0,0,0-1.48-1.07v9H461v1.4h-2.07V334.83h2.17a20.67,20.67,0,0,0,.56-3.09l2.49.35c-.33,1-.67,1.92-1,2.74h3v3.11a19.83,19.83,0,0,0,2.59-6.18l2.17.5a22.53,22.53,0,0,1-.75,2.44ZM464,336.82h-3v3.11h3Zm0,8.84V341.9h-3v3.76Zm6.37-1a40.92,40.92,0,0,0-2.67-4.43l1.78-1a46.31,46.31,0,0,1,2.82,4.26Z"/><path class="cls-4" d="M484.7,343.09a24.84,24.84,0,0,0-.94-2.34v8.88h-2.07v-7.31a18.07,18.07,0,0,1-1.57,3.72,17.19,17.19,0,0,0-1.07-2.34,20.38,20.38,0,0,0,2.55-6.29H479.5v-2.11h2.19v-3.57h2.07v3.57h2v2.09h-2v.35c.54.81,2,3.18,2.32,3.78Zm8.09,2.55c1.48.71,3.47,1.69,4.51,2.34l-1.44,1.59c-1.05-.71-3.24-1.9-4.79-2.7l1.19-1.23h-.61c-.73,1.88-2.3,3.2-5.72,4a6.17,6.17,0,0,0-1.15-1.84c2.4-.48,3.66-1.19,4.37-2.19h-3.76v-1.88h4.49c.06-.35.12-.71.15-1.09h-3.66v-6.33h9.57v6.33h-3.66c0,.38-.08.73-.13,1.09h4.66v1.88Zm-5.29-10.7h-1.92V333.1h1.92v-1.34h2v1.34h1.36v1.84h-1.36V336h-2Zm1,3.82h5.26v-.84h-5.26Zm0,2.32h5.26v-.84h-5.26Zm4.18-6.16h-1.34v-1.84h1.34v-1.32h2v1.32h2.24v1.84h-2.24V336h-2Z"/><path class="cls-4" d="M512.65,337.22c.4,5.6,1.57,10,3,10,.4,0,.63-1,.73-3.45a6.11,6.11,0,0,0,2,1.34c-.35,3.63-1.11,4.51-2.93,4.51-3.28,0-4.72-5.68-5.18-12.43H500.7V335h9.42c0-1-.06-2.11-.06-3.17h2.46c0,1.06,0,2.13,0,3.17h3a13.56,13.56,0,0,0-2.24-2l1.52-1.25a14.36,14.36,0,0,1,2.51,2.13L516,335h1.8v2.22Zm-6.06,8.61,3.57-.67.17,2c-3.15.69-6.52,1.4-9,1.92l-.63-2.3c1-.15,2.24-.35,3.63-.58v-4.62h-2.9v-2.21h8.23v2.21h-3.07Z"/><path class="cls-4" d="M527.37,346.41a1.76,1.76,0,1,1,1.75,1.84A1.76,1.76,0,0,1,527.37,346.41Zm.42-10.34-.1-2.67h2.84l-.1,2.67-.4,7.08H528.2Z"/><path class="cls-4" d="M130.71,279.28h16.66v6.37h-9.65v24.74h-7Z"/><path class="cls-4" d="M643.71,362.19H627.05v-6.37h9.65V331.08h7Z"/></svg>