<svg id="圖層_1" data-name="圖層 1" xmlns="http://www.w3.org/2000/svg" viewBox="0 0 726.15 473.98"><defs><style>.cls-1,.cls-2,.cls-3,.cls-4{fill:#00364b;}.cls-1,.cls-2,.cls-3{stroke:#ffcd32;stroke-miterlimit:10;}.cls-1{stroke-width:11.21px;}.cls-2{stroke-width:11.98px;}.cls-3{stroke-width:12.79px;}.cls-5{fill:#ffcd32;}.cls-6{fill:#6bffba;}</style></defs><title>Rethink Taiwan_Landing page animation 2展開+嵌入</title><rect class="cls-1" x="16.82" y="62.58" width="562.23" height="366.77"/><rect class="cls-2" x="38.22" y="50.09" width="600.51" height="391.74"/><rect class="cls-3" x="60.37" y="36.89" width="641" height="418.15"/><path class="cls-4" d="M280.44,137.76l.48-2.28a15.71,15.71,0,0,0,2.27-.21,4,4,0,0,0,1.83-.89,3.74,3.74,0,0,0,.92-1.22,3.14,3.14,0,0,0,.28-.68H289l-3.62,17H282l2.49-11.74Z"/><path class="cls-4" d="M303.93,141.15a15.85,15.85,0,0,1-2.7,6.49,6,6,0,0,1-5,2.28q-3.25,0-4.08-2.28t.08-6.49a15.81,15.81,0,0,1,2.69-6.51,6.05,6.05,0,0,1,5.05-2.29q3.25,0,4.07,2.29T303.93,141.15Zm-7.16,6a2.48,2.48,0,0,0,2.28-1.56,19.25,19.25,0,0,0,1.43-4.49,16.62,16.62,0,0,0,.5-4.56,1.47,1.47,0,0,0-1.64-1.48A2.5,2.5,0,0,0,297,136.6a17.86,17.86,0,0,0-1.44,4.56,15.74,15.74,0,0,0-.48,4.49A1.51,1.51,0,0,0,296.76,147.2Z"/><path class="cls-4" d="M305.28,146h3.56l-.74,3.5h-3.56Z"/><path class="cls-4" d="M312,146.16a13,13,0,0,1,4.15-3.6,33.76,33.76,0,0,0,3.5-2.37,4.5,4.5,0,0,0,1.56-2.44,2.36,2.36,0,0,0-.21-1.8,1.69,1.69,0,0,0-1.56-.72,2.66,2.66,0,0,0-2.33,1.14,6.54,6.54,0,0,0-.81,2.09H313a9.91,9.91,0,0,1,1.53-3.51,6.19,6.19,0,0,1,5.3-2.55,5,5,0,0,1,4,1.5,4.38,4.38,0,0,1,.75,4,6.74,6.74,0,0,1-1.83,3.36,15.45,15.45,0,0,1-2.9,2.17l-1.54,1q-1.44.89-2,1.29a5,5,0,0,0-1,.93h7.43l-.62,2.95H310.47A9.69,9.69,0,0,1,312,146.16Z"/><path class="cls-4" d="M334.61,136.76a1.41,1.41,0,0,0-.13-.9,1.44,1.44,0,0,0-1.46-.8,3.14,3.14,0,0,0-2.71,1.83,13.64,13.64,0,0,0-1.15,3,5,5,0,0,1,1.67-1.08,5.47,5.47,0,0,1,2-.34,3.92,3.92,0,0,1,3.39,1.54,4.73,4.73,0,0,1,.6,3.93,8.32,8.32,0,0,1-2.31,4.2,6.47,6.47,0,0,1-4.8,1.82,4,4,0,0,1-4.17-2.69,10.2,10.2,0,0,1,0-5.43,28.43,28.43,0,0,1,.85-3.17,12.1,12.1,0,0,1,1.9-3.62,7.9,7.9,0,0,1,2.33-2,6,6,0,0,1,3-.75,4.64,4.64,0,0,1,3.52,1.22,3.77,3.77,0,0,1,.89,3.24Zm-4.31,10.46a2.6,2.6,0,0,0,1.93-.84,4.32,4.32,0,0,0,1.1-2.18,2.87,2.87,0,0,0-.24-2.28,1.85,1.85,0,0,0-1.62-.79,2.84,2.84,0,0,0-1.62.52,3.73,3.73,0,0,0-1.51,2.47,2.91,2.91,0,0,0,.26,2.24A1.88,1.88,0,0,0,330.3,147.23Z"/><path class="cls-4" d="M345.46,141.21h6.74l-.68,3.17h-6.74Z"/><path class="cls-4" d="M362,137.76l.48-2.28a15.71,15.71,0,0,0,2.27-.21,4,4,0,0,0,1.83-.89,3.74,3.74,0,0,0,.92-1.22,3.14,3.14,0,0,0,.28-.68h2.78l-3.62,17h-3.43L366,137.76Z"/><path class="cls-4" d="M373.46,146.16a13,13,0,0,1,4.15-3.6,33.76,33.76,0,0,0,3.5-2.37,4.5,4.5,0,0,0,1.56-2.44,2.36,2.36,0,0,0-.21-1.8,1.69,1.69,0,0,0-1.56-.72,2.66,2.66,0,0,0-2.33,1.14,6.54,6.54,0,0,0-.81,2.09h-3.25a9.91,9.91,0,0,1,1.53-3.51,6.19,6.19,0,0,1,5.3-2.55,5,5,0,0,1,4,1.5,4.38,4.38,0,0,1,.75,4,6.74,6.74,0,0,1-1.83,3.36,15.45,15.45,0,0,1-2.9,2.17l-1.54,1q-1.44.89-2,1.29a5,5,0,0,0-1,.93h7.43l-.62,2.95H372A9.69,9.69,0,0,1,373.46,146.16Z"/><path class="cls-4" d="M386.84,146h3.56l-.74,3.5H386.1Z"/><path class="cls-4" d="M395.44,137.76l.48-2.28a15.71,15.71,0,0,0,2.27-.21,4,4,0,0,0,1.83-.89,3.74,3.74,0,0,0,.92-1.22,3.14,3.14,0,0,0,.28-.68H404l-3.62,17H397l2.49-11.74Z"/><path class="cls-4" d="M420.34,135.32A29.65,29.65,0,0,0,417.7,138a30.67,30.67,0,0,0-3.07,3.92,29.17,29.17,0,0,0-2.12,3.88,18.38,18.38,0,0,0-1.37,3.76h-3.48a25.33,25.33,0,0,1,5-9.52,30.48,30.48,0,0,1,4-4.27h-8.49l.69-3h12Z"/><path class="cls-5" d="M559,175.5a4.27,4.27,0,0,1-4.17-5.21l.39-1.74a4.27,4.27,0,0,1,8.33,1.87l-.39,1.74A4.27,4.27,0,0,1,559,175.5Z"/><path class="cls-5" d="M561.09,170.58a8.56,8.56,0,1,1,6-2.51A8.61,8.61,0,0,1,561.09,170.58Z"/><path class="cls-5" d="M501.27,145.32c1.65-2.13,3.86-1.84,4.92.63l4.43,10.3c1.06,2.47-.27,4.49-3,4.49H494.22c-2.69,0-3.54-1.74-1.9-3.87Z"/><path class="cls-5" d="M530.72,159.38a3.83,3.83,0,0,0-3.9,3.41c-.11,1.88-2,3.41-4.25,3.41H492.84a4.36,4.36,0,0,0-4.29,4l-2.84,49.49a4.36,4.36,0,0,1-4.29,4H474a4.19,4.19,0,0,0-4.27,3.7,3.64,3.64,0,0,0,3.84,3.7H488.4a4.36,4.36,0,0,0,4.29-4l.86-15a4.36,4.36,0,0,1,4.29-4h14.92a3.8,3.8,0,0,1,3.82,4l-.43,7.55-.45,7.75a3.64,3.64,0,0,0,3.84,3.7h6a4.19,4.19,0,0,0,4.27-3.7,3.31,3.31,0,0,0-3.12-3.7c-1.83,0-3.23-1.82-3.1-4l.86-15c.13-2.23.23-4,.22-4H513.86a3.3,3.3,0,0,1-3.17-3.66,4.17,4.17,0,0,1,4.27-3.66h6a4.36,4.36,0,0,0,4.29-4l.35-6.12a3.64,3.64,0,0,0-3.47-4,3.83,3.83,0,0,0-3.9,3.41A3.64,3.64,0,0,1,514.7,186c-1.85,0-3.26-1.82-3.13-4l.25-4.3a4.36,4.36,0,0,1,4.29-4h13.44a4.36,4.36,0,0,0,4.29-4l.35-6.12A3.64,3.64,0,0,0,530.72,159.38Z"/><path class="cls-5" d="M618.7,145.32c-1.65-2.13-3.86-1.84-4.92.63l-4.43,10.3c-1.06,2.47.27,4.49,3,4.49h13.44c2.69,0,3.54-1.74,1.9-3.87Z"/><path class="cls-5" d="M589.26,159.38a3.83,3.83,0,0,1,3.9,3.41c.11,1.88,2,3.41,4.25,3.41h29.72a4.36,4.36,0,0,1,4.29,4l2.84,49.49a4.36,4.36,0,0,0,4.29,4H646a4.19,4.19,0,0,1,4.27,3.7,3.64,3.64,0,0,1-3.84,3.7H631.57a4.36,4.36,0,0,1-4.29-4l-.86-15a4.36,4.36,0,0,0-4.29-4H607.22a3.8,3.8,0,0,0-3.82,4l.43,7.55.45,7.75a3.64,3.64,0,0,1-3.84,3.7h-6a4.19,4.19,0,0,1-4.27-3.7,3.31,3.31,0,0,1,3.12-3.7c1.83,0,3.23-1.82,3.1-4l-.86-15c-.13-2.23-.23-4-.22-4h10.77a3.3,3.3,0,0,0,3.17-3.66,4.17,4.17,0,0,0-4.27-3.66h-6a4.36,4.36,0,0,1-4.29-4l-.35-6.12a3.64,3.64,0,0,1,3.47-4,3.83,3.83,0,0,1,3.9,3.41,3.64,3.64,0,0,0,3.56,3.41c1.85,0,3.26-1.82,3.13-4l-.25-4.3a4.36,4.36,0,0,0-4.29-4H590.43a4.36,4.36,0,0,1-4.29-4l-.35-6.12A3.64,3.64,0,0,1,589.26,159.38Z"/><path class="cls-5" d="M548.69,142.2a2.86,2.86,0,0,1-2.56-1.58l-2.86-5.73a2.86,2.86,0,1,1,5.12-2.56l2.86,5.73a2.86,2.86,0,0,1-2.56,4.14Z"/><path class="cls-5" d="M564.07,190.38a2.86,2.86,0,0,1-2.83-2.44l-.52-3.53a2.86,2.86,0,0,1,5.66-.84l.52,3.53a2.86,2.86,0,0,1-2.41,3.25A2.83,2.83,0,0,1,564.07,190.38Z"/><path class="cls-5" d="M575.58,148.08a2.86,2.86,0,0,1-2.42-4.39l2.65-4.21a2.86,2.86,0,0,1,4.84,3.05L578,146.75A2.86,2.86,0,0,1,575.58,148.08Z"/><path class="cls-5" d="M543.61,164.21a2.86,2.86,0,0,1-2-4.88,2.94,2.94,0,0,1,4,0,2.86,2.86,0,0,1-2,4.88Z"/><path class="cls-5" d="M564.27,137.17l-.38,0a3.22,3.22,0,0,1-2.83-3.57l1.6-13.78a3.22,3.22,0,1,1,6.4.74l-1.6,13.78A3.22,3.22,0,0,1,564.27,137.17Z"/><path class="cls-5" d="M580.41,202.7a3.22,3.22,0,0,1-3-2.07l-3.4-8.87a3.22,3.22,0,0,1,6-2.31l3.4,8.87a3.22,3.22,0,0,1-3,4.37Z"/><path class="cls-5" d="M542,214.58a3.22,3.22,0,0,1-3-4.36l6.08-16.08a3.22,3.22,0,1,1,6,2.28L545,212.5A3.22,3.22,0,0,1,542,214.58Z"/><path class="cls-5" d="M567.29,159.37a2.86,2.86,0,0,1-2.31-4.55l1-1.44a2.86,2.86,0,0,1,4.63,3.37l-1,1.44A2.86,2.86,0,0,1,567.29,159.37Z"/><path class="cls-5" d="M574.37,173.52a2.87,2.87,0,0,1-2-.84,2.88,2.88,0,0,1,0-4.06,3,3,0,0,1,4,0,2.88,2.88,0,0,1,0,4.06A2.87,2.87,0,0,1,574.37,173.52Z"/><path class="cls-5" d="M148.16,190.76v-2.3a62.08,62.08,0,0,1-6.31,4.25h24.89v18.52H146.27c-.12.59-.18,1.24-.29,1.83h22.18v15.75H162v-1.59H151.11V229h-5.84V216.84a37.67,37.67,0,0,1-3.78,10.32,32.18,32.18,0,0,0-6.13-2.71c4.66-7.49,5.13-18.05,5.13-25v-6l-1.36.71a37.51,37.51,0,0,0-3.66-6.73c6.84-2.89,13.74-7.73,17.52-13.39l6.43,2.54c-.35.53-.71,1-1.06,1.47,4.37,2.54,9.26,5.43,12,7.37l-3.6,5.9c-1.59-1.3-3.89-2.83-6.43-4.48v3.83Zm12.21,15.63V204H146.86c0,.77-.06,1.59-.12,2.42ZM147,197.55v2.3h13.39v-2.3Zm12.92-10.91c-1.89-1.18-3.83-2.42-5.6-3.54-1.24,1.18-2.54,2.42-3.83,3.54Zm-8.79,31.21V222H162v-4.19Zm27-4.66h-6.61V180.26h6.61Zm10.79-38.82v46.48c0,3.78-.71,5.66-2.89,6.78S180.54,229,175.82,229a28.76,28.76,0,0,0-2.06-7c3,.06,6.08.06,7,.06s1.36-.29,1.36-1.3V174.36Z"/><path class="cls-5" d="M214.4,213.89H203.25v5.25h-6.37V179.32H214.4Zm-11.15-28.14v21.71H208V185.75Zm36.69,36.1c3.13,0,3.72-1.36,4.19-7.43a17.25,17.25,0,0,0,6.31,2.71c-.89,8.26-3,11.21-9.85,11.21H228.26c-7.67,0-10.09-2.12-10.09-10.62v-40H248v32.39h-6.78v-3.42h-16.1v11.09c0,3.54.47,4.07,4,4.07Zm-14.87-37.69v16.16h4.66V184.16Zm16.1,0h-5.07v16.16h5.07Z"/><path class="cls-5" d="M273.86,218.9a6.14,6.14,0,0,1,12.27,0c0,3.42-2.65,5.78-6.13,5.78S273.86,222.32,273.86,218.9Zm1-30.09-.24-8.79h10.79l-.29,8.79L283.06,209H277Z"/><path class="cls-5" d="M312.38,202.74h22.48V229h-7v-2.65H319v2.95h-6.67Zm6.67,6.73v10.15h8.79V209.46Zm36-11.62H320.52V176.49h34.57Zm-7.14-14.63H327.3v8h20.65Zm15.1,19.53V229H356v-2.71h-9.38v2.95h-6.72V202.74ZM356,219.61V209.46h-9.38v10.15Z"/><path class="cls-5" d="M383.22,174.25H389V195.6H379v2c0,1.48,0,3.07-.06,4.66h9.91v27.08H382.4V208.22h-3.72c-.47,7.26-1.59,15-3.89,21a53.66,53.66,0,0,0-6.13-1.95c3.48-8.55,4-21.41,4-29.61V175.72H379v14h4.25ZM424,218H415.2v11.21h-6.25V218H390.18v-6.19h5.54a20.92,20.92,0,0,0-2.42-1.89,24,24,0,0,0,5.9-5.43h-7.31V180.2h8.2a42.81,42.81,0,0,0,2.36-6l7.79,1.06c-.94,1.77-1.89,3.42-2.77,4.9h14.16v24.3h-15.4a27.85,27.85,0,0,1-5.6,7.31h8.32v-6.08h6.25v6.08h8.91ZM398.32,189.7h5.25v-4h-5.25Zm4,9.26a21.34,21.34,0,0,0,1.12-4.07h-5.07V199Zm12.62-4.07h-5.37a28.93,28.93,0,0,1-1,4.07h6.37Zm0-9.14h-5.13v4h5.13Z"/><path class="cls-5" d="M149.16,131.34H154l2.89,20.36h-4.61l-.43-4.19h-7.5L142,151.7h-4.45Zm-3,12.67h5.17l-.84-8Z"/><path class="cls-5" d="M170.16,142a3,3,0,0,0-.25-1.52,1.89,1.89,0,0,0-1.86-.91,3.5,3.5,0,0,0-3.14,2,9.69,9.69,0,0,0-1,2.79,7.59,7.59,0,0,0-.18,2.67,2,2,0,0,0,2.25,1.88,2.85,2.85,0,0,0,2.12-.75,4.68,4.68,0,0,0,1.11-1.93h4a8.29,8.29,0,0,1-2,3.4,7.9,7.9,0,0,1-6,2.58q-3.63,0-4.88-2.15a7.73,7.73,0,0,1-.52-5.59,11,11,0,0,1,3.17-6,8.12,8.12,0,0,1,5.68-2.15,6.67,6.67,0,0,1,4.37,1.27q1.53,1.27,1.17,4.49Z"/><path class="cls-5" d="M175.88,139.58l.59-2.8h2.1l.9-4.2h3.9l-.9,4.2h2.45l-.59,2.8h-2.45l-1.7,8q-.19.93,0,1.15c.13.15.59.23,1.39.23h.38l.41,0-.64,2.94-1.88.07q-2.8.1-3.61-1a2.57,2.57,0,0,1-.22-2.09l2-9.27Z"/><path class="cls-5" d="M187.52,136.64h4l-3.19,15.06h-4Zm4.38-1.79h-4l.77-3.63h4Z"/><path class="cls-5" d="M198.78,152.22q-3.88,0-5.28-2.35a7.64,7.64,0,0,1-.7-5.67,11,11,0,0,1,3.11-5.65,8.57,8.57,0,0,1,6.3-2.39q3.88,0,5.28,2.39a7.7,7.7,0,0,1,.7,5.65,10.94,10.94,0,0,1-3.11,5.67A8.62,8.62,0,0,1,198.78,152.22Zm5.28-8a5.11,5.11,0,0,0-.19-3.49,2.49,2.49,0,0,0-2.4-1.22,3.9,3.9,0,0,0-2.91,1.22,7,7,0,0,0-1.67,3.49,5.13,5.13,0,0,0,.19,3.49,2.49,2.49,0,0,0,2.4,1.23,3.89,3.89,0,0,0,2.92-1.23A7,7,0,0,0,204.05,144.2Z"/><path class="cls-5" d="M225.21,141.56l-2.16,10.14h-4l1.93-9.16a3.8,3.8,0,0,0,.07-1.82q-.33-1.16-2-1.16a3.51,3.51,0,0,0-3.11,1.7,6.74,6.74,0,0,0-.87,2.29l-1.73,8.15h-3.92l3.19-15h3.8l-.47,2.2a9.13,9.13,0,0,1,1.8-1.67,5.89,5.89,0,0,1,3.27-.91,4.82,4.82,0,0,1,3.56,1.22Q225.81,138.73,225.21,141.56Z"/><path class="cls-5" d="M235.6,147.38a16.72,16.72,0,0,1,5.34-4.65,43.44,43.44,0,0,0,4.51-3.06,5.81,5.81,0,0,0,2-3.15,3,3,0,0,0-.27-2.32,2.18,2.18,0,0,0-2-.92,3.43,3.43,0,0,0-3,1.47,8.41,8.41,0,0,0-1,2.69H237a12.78,12.78,0,0,1,2-4.53,8,8,0,0,1,6.83-3.29q3.48,0,5.13,1.93a5.65,5.65,0,0,1,1,5.11,8.67,8.67,0,0,1-2.36,4.33,19.89,19.89,0,0,1-3.74,2.8l-2,1.23q-1.86,1.15-2.57,1.67a6.37,6.37,0,0,0-1.26,1.2h9.58l-.8,3.8h-15A12.52,12.52,0,0,1,235.6,147.38Z"/><path class="cls-5" d="M300.12,135.12a2.49,2.49,0,0,0-2.29,1.48,17.84,17.84,0,0,0-1.45,4.56,15.76,15.76,0,0,0-.48,4.49,1.5,1.5,0,0,0,1.64,1.56,2.48,2.48,0,0,0,2.28-1.56,19.25,19.25,0,0,0,1.43-4.49,16.65,16.65,0,0,0,.5-4.56A1.47,1.47,0,0,0,300.12,135.12Z"/><path class="cls-5" d="M268.6,125.39v30.19H430.86V125.39Zm17.57,24.12h-3.43l2.49-11.74h-4l.48-2.28a15.74,15.74,0,0,0,2.27-.21,4,4,0,0,0,1.83-.89,3.76,3.76,0,0,0,.92-1.22,3.12,3.12,0,0,0,.28-.68h2.78Zm18.54-8.35a15.82,15.82,0,0,1-2.7,6.49,6,6,0,0,1-5,2.28q-3.25,0-4.08-2.28t.08-6.49a15.8,15.8,0,0,1,2.69-6.51,6.05,6.05,0,0,1,5.05-2.29q3.25,0,4.07,2.29T304.71,141.16Zm4.17,8.35h-3.56l.74-3.5h3.56Zm14.66-2.95-.62,2.95H311.25a9.69,9.69,0,0,1,1.49-3.35,13,13,0,0,1,4.15-3.61,33.7,33.7,0,0,0,3.5-2.37,4.51,4.51,0,0,0,1.56-2.44,2.36,2.36,0,0,0-.21-1.8,1.69,1.69,0,0,0-1.56-.72,2.66,2.66,0,0,0-2.32,1.14,6.5,6.5,0,0,0-.81,2.09h-3.25a9.93,9.93,0,0,1,1.53-3.51,6.2,6.2,0,0,1,5.3-2.55,5,5,0,0,1,4,1.5,4.38,4.38,0,0,1,.75,4,6.73,6.73,0,0,1-1.83,3.36,15.47,15.47,0,0,1-2.9,2.17l-1.54,1q-1.44.89-2,1.29a4.91,4.91,0,0,0-1,.93ZM338.4,137a4.7,4.7,0,0,1-1.43,2.54,4.12,4.12,0,0,1-1.36.88q.46,0,1.15.79a3.59,3.59,0,0,1,.59,3.24,7,7,0,0,1-7.08,5.44q-3.62,0-4.52-2.36a6.27,6.27,0,0,1-.13-3.29h3.29a3.77,3.77,0,0,0,0,1.69,1.77,1.77,0,0,0,2,1.23,3,3,0,0,0,1.87-.67,3.19,3.19,0,0,0,1.15-1.94q.35-1.68-.89-2.24a6.3,6.3,0,0,0-2.37-.32l.51-2.4a6.94,6.94,0,0,0,2.35-.32,2.54,2.54,0,0,0,1.54-2,1.92,1.92,0,0,0-.23-1.59,1.7,1.7,0,0,0-1.47-.61,2.5,2.5,0,0,0-1.9.75,3.93,3.93,0,0,0-1,2h-3.12a9.86,9.86,0,0,1,1-2.41,7.4,7.4,0,0,1,1.68-1.84,6,6,0,0,1,1.76-.92,7.39,7.39,0,0,1,2.29-.32,4.9,4.9,0,0,1,3.67,1.26A3.53,3.53,0,0,1,338.4,137Zm13.9,7.34h-6.74l.68-3.17H353Zm15.42,5.12H364.3l2.49-11.74h-4l.48-2.28a15.68,15.68,0,0,0,2.27-.21,4,4,0,0,0,1.83-.89,3.71,3.71,0,0,0,.92-1.22,3.16,3.16,0,0,0,.28-.68h2.78ZM385,146.56l-.62,2.95H372.75a9.69,9.69,0,0,1,1.49-3.35,13,13,0,0,1,4.14-3.61,33.7,33.7,0,0,0,3.5-2.37,4.5,4.5,0,0,0,1.56-2.44,2.36,2.36,0,0,0-.21-1.8,1.7,1.7,0,0,0-1.56-.72,2.67,2.67,0,0,0-2.33,1.14,6.59,6.59,0,0,0-.81,2.09h-3.25a9.9,9.9,0,0,1,1.53-3.51,6.2,6.2,0,0,1,5.29-2.55,5,5,0,0,1,4,1.5,4.38,4.38,0,0,1,.75,4,6.74,6.74,0,0,1-1.83,3.36,15.43,15.43,0,0,1-2.9,2.17l-1.54,1q-1.44.89-2,1.29a5,5,0,0,0-1,.93Zm5.4,2.95h-3.56l.74-3.5h3.56Zm10.72,0h-3.43l2.49-11.74h-4l.48-2.28a15.74,15.74,0,0,0,2.27-.21,4,4,0,0,0,1.83-.89,3.76,3.76,0,0,0,.92-1.22,3.12,3.12,0,0,0,.28-.68h2.78Zm20-14.19a29.45,29.45,0,0,0-2.65,2.64,30.75,30.75,0,0,0-3.07,3.92,29.18,29.18,0,0,0-2.12,3.88,18.37,18.37,0,0,0-1.37,3.76h-3.48a25.35,25.35,0,0,1,5-9.52,30.43,30.43,0,0,1,4-4.27H409l.69-3h12Z"/><path class="cls-6" d="M576.78,409.27a28.76,28.76,0,0,1-6.6,5.2v7.88c0,1.09-.29,1.63-1.11,1.88a13.58,13.58,0,0,1-4,.31,6,6,0,0,0-.71-1.8c1.5.06,3,.06,3.43,0s.56-.12.56-.46v-8.75a23.27,23.27,0,0,0,4.89-3.47H561.49v-1.76H575l.4-.1Z"/><path class="cls-6" d="M594.29,409.34a6.05,6.05,0,0,1-3.62,5.06,4.9,4.9,0,0,0-.84-1.11v9.38c0,.77-.15,1.27-.67,1.54a6.61,6.61,0,0,1-2.55.27A5.66,5.66,0,0,0,586,423l2,0c.25,0,.34-.1.34-.34v-3.13h-4.26a11.32,11.32,0,0,1-1.48,5,7,7,0,0,0-1.27-.79c1.29-2,1.42-4.83,1.42-7v-3l-.17.21a12,12,0,0,0-1.3-1.05,13.85,13.85,0,0,0,2.9-6l1.63.36c-.13.46-.27.92-.42,1.38h2l.25-.08,1,.65a24.59,24.59,0,0,1-1.15,2.53h2.28v1.38a4.65,4.65,0,0,0,2.82-3.78h-2.38v-1.48h8.34s0,.42,0,.61c-.13,3.11-.31,4.39-.71,4.85a1.44,1.44,0,0,1-1.09.54,12.36,12.36,0,0,1-1.94,0,4.33,4.33,0,0,0-.4-1.48,13.77,13.77,0,0,0,1.55.08.51.51,0,0,0,.52-.17c.21-.23.35-1,.44-3Zm-9.44.67c-.25.59-.52,1.19-.81,1.73h2a16.2,16.2,0,0,0,.71-1.73Zm-.65,6.77c0,.44,0,.9,0,1.38h1.48v-1.94H584.2Zm0-1.88h1.46v-1.82H584.2Zm2.7,0h1.44v-1.82h-1.44Zm1.44,3.26v-1.94h-1.44v1.94ZM599.12,421h-3.49v3.38h-1.69V421h-3.8v-1.55h3.8v-2.07h-1.88a9.44,9.44,0,0,1-.9,1.71,8.09,8.09,0,0,0-1.34-.71,10.88,10.88,0,0,0,1.65-4.22l1.48.31q-.14.69-.35,1.38h1.34V414h1.69v1.84h3.13v1.53h-3.13v2.07h3.49Z"/><path class="cls-6" d="M612.19,418.42a5.93,5.93,0,0,1-1.59,3c2.46,1,5.68,1.17,9.74,1.21a4.43,4.43,0,0,0-.75,1.76c-4.3-.15-7.79-.48-10.47-1.8a16.55,16.55,0,0,1-5.33,1.94A7.77,7.77,0,0,0,602.7,423a18,18,0,0,0,4.76-1.4,9.25,9.25,0,0,1-2.23-2.47l1.55-.61a7.76,7.76,0,0,0,2.15,2.11,4.51,4.51,0,0,0,1.36-2.17h-5.52v-7.56h5.81v-1.38h-7.5v-1.61h16.59v1.61h-7.23v1.38h6v7.56Zm-5.74-4.47h4.12v-1.63h-4.12Zm4.09,3a7.59,7.59,0,0,0,0-.94v-.69h-4.12V417Zm6.16-1.63h-4.26V416a7.28,7.28,0,0,1,0,.92h4.3Zm-4.26-3v1.63h4.26v-1.63Z"/><path class="cls-6" d="M641,416c-2.67,5.7-9.05,7.83-16,8.57a5.94,5.94,0,0,0-.71-1.73,30.74,30.74,0,0,0,8.65-1.84,24.22,24.22,0,0,0-2.4-2.13q-1.27.66-2.76,1.27a5.18,5.18,0,0,0-1.11-1.38,16.77,16.77,0,0,0,8-5.2l2,.44a16,16,0,0,1-1.21,1.36h4.1l.31-.08Zm-2.69-6.85c-2.44,4.32-7.94,6.77-13.1,7.81a7.32,7.32,0,0,0-.84-1.57,26.77,26.77,0,0,0,6.06-1.76,15.77,15.77,0,0,0-2.28-2c-.63.35-1.3.71-2,1a5.52,5.52,0,0,0-1.21-1.29,16.32,16.32,0,0,0,6.58-4.51l1.94.44a11.83,11.83,0,0,1-1.19,1.23h4.58l.31-.1Zm-7.9,1a9.73,9.73,0,0,1-.9.63,21,21,0,0,1,2.51,2.07,13.06,13.06,0,0,0,3.53-2.7Zm3.11,6.85c-.46.37-1,.71-1.5,1.06a23.41,23.41,0,0,1,2.57,2.19,10.8,10.8,0,0,0,3.74-3.24Z"/><path class="cls-6" d="M652.56,424.78v-18l15.61,9Z"/><path class="cls-5" d="M168.18,312a16,16,0,0,1-1.61,4.79c.29.17.63.4,1.07.65,1.32.75,3.17.86,5.33.86a62.68,62.68,0,0,0,7.79-.52,9.33,9.33,0,0,0-.69,2.42c-1.55.12-4.95.23-7.19.23-2.49,0-4.14-.21-5.54-1-.79-.42-1.46-1-1.86-1s-1.15,1.25-1.67,2.28l-1.5-2.21a7.84,7.84,0,0,1,1.82-1.63,11.08,11.08,0,0,0,1.59-3.43H163c.5-1.13,1.07-2.67,1.59-4.16h-1.92v-2h4.79c-.46,1.38-1,2.9-1.51,4.22h.52l.33-.06Zm-3.28-5.24c-.31-.88-1-2.28-1.42-3.34l2-.71c.48,1,1.11,2.32,1.48,3.17Zm4.51,4.74a5.48,5.48,0,0,1-.71.29,7.57,7.57,0,0,0-1.32-1.61,13.21,13.21,0,0,0,4.47-2.23H168v-1.71h5v-1c-1.34.1-2.7.13-4,.15a5.45,5.45,0,0,0-.46-1.53,62.4,62.4,0,0,0,9.48-.86l1.4,1.5c-1.25.23-2.71.44-4.26.58v1.13h5V308h-3.93a12.6,12.6,0,0,0,4.35,2,8,8,0,0,0-1.32,1.67,11.56,11.56,0,0,1-4.14-2.57v1.76H173v-1.69a13,13,0,0,1-2.86,2H177c-.1.48-.21,1-.31,1.5h3.2s0,.48-.08.75c-.15,2.11-.4,3.15-.84,3.57a2,2,0,0,1-1.38.56,14.88,14.88,0,0,1-2.32,0,4.56,4.56,0,0,0-.54-1.69c.81.08,1.57.1,1.88.1s.48,0,.63-.17a2.82,2.82,0,0,0,.42-1.53h-3.32c.13-.4.25-.88.37-1.4h-1.34c-.35,2.4-1.29,4-4.37,5a5.19,5.19,0,0,0-1.15-1.69c2.42-.65,3.15-1.73,3.43-3.32h-1.86Z"/><path class="cls-5" d="M189.07,311.81a23.71,23.71,0,0,1-1.5,5c.31.19.67.46,1.17.77,1.32.79,3.13.9,5.37.9a65.18,65.18,0,0,0,7.77-.5,8.3,8.3,0,0,0-.67,2.34c-1.57.1-5,.23-7.21.23-2.55,0-4.16-.21-5.54-1-.81-.44-1.5-1.07-1.88-1.07s-1.13,1.3-1.61,2.4l-1.52-2.17a8.76,8.76,0,0,1,2-1.84,18.71,18.71,0,0,0,1.11-3.32h-2.42c.44-1.13.94-2.67,1.38-4.16h-1.73v-2h4.49c-.4,1.34-.86,2.88-1.32,4.22h.79l.35-.08Zm-3.22-5c-.21-.86-.73-2.24-1.05-3.3l2-.61c.36,1,.86,2.32,1.13,3.18Zm5.64,10.86h-2v-8.34h1.42v-5.87h8.27v5.87h1.4v6.41c0,.9-.15,1.38-.75,1.69a5.5,5.5,0,0,1-2.38.31A6,6,0,0,0,197,316H194.1v.59h-1.63v-4.83h5v4.12h.79c.21,0,.27-.06.27-.25V311h-7Zm1.42-8.34H194v-3h3.16v-1.17h-4.24Zm2.92,4H194.1v1.34h1.73Zm1.32-5.56h-1.51v1.59h1.51Z"/><path class="cls-5" d="M222.53,305.75h-3.32a12.41,12.41,0,0,1,1.32,1.21l-1.38,1.21h1.57V313h-6.08v1.13h7s0,.56-.06.83c-.19,2.55-.42,3.8-.92,4.3a2,2,0,0,1-1.46.67,18.84,18.84,0,0,1-2.44,0,4.59,4.59,0,0,0-.63-2.07,16,16,0,0,0,2,.08.88.88,0,0,0,.65-.17,3.44,3.44,0,0,0,.46-1.76h-4.58v4.74H212.4V317a17.34,17.34,0,0,1-5.83,3.66,8.74,8.74,0,0,0-1.44-1.8,17,17,0,0,0,5.56-2.86h-4.12a41.68,41.68,0,0,0,.71-4.91h5.12V310h-5.83v-1.88h3.91a15.27,15.27,0,0,0-1.76-1.76l.73-.63h-1.13a15.07,15.07,0,0,1-2,2.47,14.45,14.45,0,0,0-1.53-1.53,11,11,0,0,0,2.78-4l2,.58a6.83,6.83,0,0,1-.34.77h4.22v1.75h-2.74a12,12,0,0,1,1.3,1.27l-1.23,1.13h8.09a14.78,14.78,0,0,0-1.86-1.71l.82-.71h-1.57a10.11,10.11,0,0,1-1.5,1.86,10.68,10.68,0,0,0-1.71-1.32,8.65,8.65,0,0,0,2.4-3.61l2.07.52c-.1.27-.21.56-.33.82h5.27ZM212.4,313h-3.13c-.06.38-.1.77-.15,1.13h3.28Zm6.06-3h-3.82v1.09h3.82Z"/><path class="cls-5" d="M243.35,316.55v2.63h-17v-2.63Zm-1.59-11.07V308H227.91v-2.51Z"/><path class="cls-5" d="M252.61,303.54a36.43,36.43,0,0,1-1.5,3.64v13.6H249V311a19.64,19.64,0,0,1-1.29,1.65,16.08,16.08,0,0,0-1.07-2.47,20.28,20.28,0,0,0,3.91-7.25Zm11.72.29v16.74h-2.17v-.94H255v1.11h-2.07V303.83Zm-2.17,13.83V305.8H255v11.85Zm-2.76-7.84v1.65h1.84v5.14h-5.31v-5.14h1.71v-1.65h-2.21v-1.65h2.21v-2h1.76v2h2.32v1.65Zm.13,3.22h-2v2h2Z"/><path class="cls-5" d="M275.25,307.84a25.38,25.38,0,0,1-2.05,2.93v10h-2.28v-7.5c-.54.52-1.05,1-1.57,1.42a22.34,22.34,0,0,0-1.55-2,18.7,18.7,0,0,0,5.27-5.73Zm-.71-4.09a25.75,25.75,0,0,1-5.27,5,13.32,13.32,0,0,0-1.27-1.86,17.06,17.06,0,0,0,4.33-4.09Zm11.28,7.63h-2.63v6.73c0,1.23-.23,1.86-1.07,2.21a10.59,10.59,0,0,1-3.74.38,9.44,9.44,0,0,0-.69-2.32c1.09.06,2.36.06,2.7,0s.48-.08.48-.36v-6.67h-5.66v-2.17h10.61Zm-.48-5.27H276v-2.17h9.32Z"/><path class="cls-5" d="M306.7,307.17s0,.75,0,1c-.17,7.84-.33,10.63-.94,11.51a2.14,2.14,0,0,1-1.52,1,12.9,12.9,0,0,1-2.38.08,5.35,5.35,0,0,0-.67-2.19c.84.08,1.57.1,1.94.1a.7.7,0,0,0,.65-.33c.4-.52.59-2.86.71-9.05h-1.73c-.25,5.14-1.13,9.09-4.35,11.64a7.51,7.51,0,0,0-1.34-1.52c-2.76.29-5.52.58-7.6.75l-.27-1.92,3.89-.27v-1.15H289.7v-1.61h3.38v-.75h-3.3v-5.93h3.3v-.75H289.3v-1.65h3.78v-.77c-1.11.08-2.21.13-3.24.15a7.12,7.12,0,0,0-.5-1.61,59.38,59.38,0,0,0,8.27-.94l1,1.71c-1,.21-2.21.38-3.45.52v.94h3.68v1.05h1.8c0-1.27,0-2.59,0-4h2.19c0,1.4,0,2.74,0,4Zm-15.11,3.63h1.5v-.84h-1.5Zm1.5,2.23v-.86h-1.5V313Zm2.07,4.76c1.09-.08,2.23-.17,3.34-.27,1.5-2.07,2-4.81,2.09-8.25h-1.75v-1.5h-3.68v.75h3.4v5.93h-3.4v.75h3.47v1.61h-3.47Zm1.5-7v-.84h-1.5v.84Zm-1.5,1.36V313h1.5v-.86Z"/><path class="cls-5" d="M314.3,308.24v-.75a20.18,20.18,0,0,1-2.05,1.38h8.09v6h-6.66c0,.19-.06.4-.1.59h7.21v5.12h-2v-.52h-3.55v.59h-1.9v-4a12.26,12.26,0,0,1-1.23,3.36,10.49,10.49,0,0,0-2-.88c1.52-2.44,1.67-5.87,1.67-8.11v-1.94l-.44.23a12.19,12.19,0,0,0-1.19-2.19,13.19,13.19,0,0,0,5.7-4.35l2.09.83c-.11.17-.23.33-.34.48,1.42.82,3,1.76,3.89,2.4l-1.17,1.92c-.52-.42-1.27-.92-2.09-1.46v1.25Zm4,5.08v-.79h-4.39c0,.25,0,.52,0,.79Zm-4.35-2.88v.75h4.35v-.75Zm4.2-3.55-1.82-1.15c-.4.38-.83.79-1.25,1.15ZM315.26,317v1.36h3.55V317Zm8.77-1.52h-2.15v-10.7H324Zm3.51-12.62V318c0,1.23-.23,1.84-.94,2.21a7.28,7.28,0,0,1-3.3.46,9.36,9.36,0,0,0-.67-2.28c1,0,2,0,2.28,0s.44-.1.44-.42V302.91Z"/><path class="cls-5" d="M337.24,311.75a21.69,21.69,0,0,1-1.8,5.22c.25.17.54.38.9.59,1.3.79,3.09.9,5.33.9a64.91,64.91,0,0,0,7.77-.5,8.9,8.9,0,0,0-.65,2.34c-1.61.1-5,.23-7.21.23-2.53,0-4.14-.21-5.52-1-.79-.44-1.48-1.07-1.86-1.07s-1.07,1.3-1.52,2.4l-1.52-2.19a7.15,7.15,0,0,1,2.36-2.05,18.06,18.06,0,0,0,1.17-3.22h-2.57c.44-1.07,1-2.59,1.42-4h-2v-2h4.72c-.4,1.3-.9,2.8-1.36,4.1H336l.33-.1Zm-3.61-4.91c-.25-.84-.71-2.19-1.05-3.2l2.09-.61c.36,1,.82,2.28,1.11,3.11Zm4.47,1.73a12.12,12.12,0,0,0-1.88-1.07A10.71,10.71,0,0,0,339,303l2.11.5a13.83,13.83,0,0,1-.58,1.48h1.34v-2.15h2.26V305h4.18V307h-4.18v1.61h5v1.92H336.72v-1.92Zm7.4,8.9v-.52h-5.18v.58h-2.19v-6.06h9.63v6ZM339.41,307a11.11,11.11,0,0,1-1.23,1.61h3.64V307Zm6.1,8.07v-1.76h-5.18V315Z"/><path class="cls-5" d="M370.18,316.7H365.9v1.86c0,1.06-.19,1.59-1,1.9a10.28,10.28,0,0,1-3.3.31,8.37,8.37,0,0,0-.65-2c.92,0,2,0,2.32,0s.4-.08.4-.33V316.7h-5.41a12.51,12.51,0,0,1,2.05,1.76l-1.69,1.46a14.23,14.23,0,0,0-2.88-2.55l.81-.67h-3.84v-1.8h11v-.71c-3.78.08-7.4.13-10.09.15l-.06-1.63c1.8,0,4.16,0,6.75,0V312h-5.52v-5.52h5.52v-.69h-7v-1.73h7v-1.21h2.22v1.21h7v1.73h-7v.69h5.79V312H367a18.8,18.8,0,0,1,2.47,1.53l-1.4,1.17c-.23-.19-.5-.42-.81-.63l-1.4,0v.77h4.28Zm-13.27-8.11h3.4v-.71h-3.4Zm3.4,2v-.73h-3.4v.73Zm2.22-2.74v.71h3.57v-.71Zm3.57,2.74v-.73h-3.57v.73Zm-3.57,2.07,2.42,0c-.27-.12-.54-.25-.79-.35l.38-.31h-2Z"/><path class="cls-5" d="M390.81,313.88s0,.48,0,.71c-.15,3.57-.34,4.93-.77,5.45a1.55,1.55,0,0,1-1.11.59,9.36,9.36,0,0,1-1.73.06A3.68,3.68,0,0,0,387,320l-.82.35a5,5,0,0,0-.21-.46c-3,.21-6,.4-8.21.54l-.13-1.48c1.19,0,2.7-.12,4.37-.19v-.61H378.8v-1.61l-.77.5a5.74,5.74,0,0,0-1.09-1.05,16.21,16.21,0,0,1-1.48,4.78,8.92,8.92,0,0,0-2-1.11c1.59-3,1.73-7.31,1.73-10.36v-5.68h15.25v3.8h-1.32l.5.88a17.7,17.7,0,0,1-3.13.77,20,20,0,0,1,3.18.61l-.37,1h.73v2.69h-8c-.13.19-.27.38-.42.58Zm-13.39-4.64a41.43,41.43,0,0,1-.42,6.25,9.42,9.42,0,0,0,2.74-2.19h-1.57v-2.69h.38l-.33-1.13c.8-.13,1.9-.31,3.07-.54a20.75,20.75,0,0,0-2.69-.56l.33-1a18.54,18.54,0,0,1,3.26.63l-.33.82.73-.13,0,1.13c-1.23.29-2.49.58-3.55.77h10a23.21,23.21,0,0,0-3.3-.67l.33-1,.4,0-.44-.9a17.66,17.66,0,0,0,2.47-.73H377.42Zm0-4.24v.9h10.82V305Zm3.07,10.15a7.87,7.87,0,0,1-.59.54H382v-.54Zm1-3.61h-1.55v.84h1.55Zm.54,5.66v-.61h-1.61v.61Zm3.15-6.83h-2.09v-2.74h2.09Zm-.36,1.17h-1.59v.84h1.59Zm1.8,6.56a6.2,6.2,0,0,1,.75,1.06h.42a.46.46,0,0,0,.44-.21c.21-.27.36-1.23.48-3.8H384v.54h3.3v2.42Zm-1.09-1.52H384v.61h1.57Zm-.35,2c-.1-.13-.17-.23-.27-.35l.38-.15H384v.56Zm3-7.06h-1.63v.84h1.63Z"/><path class="cls-5" d="M412.14,305.8s0,.77,0,1c-.25,8.57-.46,11.62-1.25,12.64a2.56,2.56,0,0,1-1.84,1.05,21.5,21.5,0,0,1-3,0,5.36,5.36,0,0,0-.75-2.23c1.23.12,2.36.12,2.86.12a1,1,0,0,0,.84-.33c.56-.61.81-3.49,1-10.26h-4.1a16.56,16.56,0,0,1-1.69,3,14.25,14.25,0,0,0-1.48-1.07v9H397.6v1.4h-2.07V305.94h2.17a20.67,20.67,0,0,0,.56-3.09l2.49.35c-.33,1-.67,1.92-1,2.74h3V309a19.83,19.83,0,0,0,2.59-6.18l2.17.5a22.53,22.53,0,0,1-.75,2.44Zm-11.49,2.13h-3V311h3Zm0,8.84V313h-3v3.76Zm6.37-1a40.92,40.92,0,0,0-2.67-4.43l1.78-1a46.31,46.31,0,0,1,2.82,4.26Z"/><path class="cls-5" d="M423,307.84a25.38,25.38,0,0,1-2.05,2.93v10h-2.28v-7.5c-.54.52-1.05,1-1.57,1.42a22.34,22.34,0,0,0-1.55-2A18.7,18.7,0,0,0,420.8,307Zm-.71-4.09a25.75,25.75,0,0,1-5.27,5,13.32,13.32,0,0,0-1.27-1.86,17.06,17.06,0,0,0,4.33-4.09Zm11.28,7.63h-2.63v6.73c0,1.23-.23,1.86-1.07,2.21a10.59,10.59,0,0,1-3.74.38,9.44,9.44,0,0,0-.69-2.32c1.09.06,2.36.06,2.7,0s.48-.08.48-.36v-6.67h-5.66v-2.17h10.61Zm-.48-5.27h-9.32v-2.17h9.32Z"/><path class="cls-5" d="M454.42,307.17s0,.75,0,1c-.17,7.84-.33,10.63-.94,11.51a2.14,2.14,0,0,1-1.52,1,12.9,12.9,0,0,1-2.38.08,5.35,5.35,0,0,0-.67-2.19c.84.08,1.57.1,1.94.1a.7.7,0,0,0,.65-.33c.4-.52.59-2.86.71-9.05h-1.73c-.25,5.14-1.13,9.09-4.35,11.64a7.51,7.51,0,0,0-1.34-1.52c-2.76.29-5.52.58-7.6.75l-.27-1.92,3.89-.27v-1.15h-3.38v-1.61h3.38v-.75h-3.3v-5.93h3.3v-.75H437v-1.65h3.78v-.77c-1.11.08-2.21.13-3.24.15a7.12,7.12,0,0,0-.5-1.61,59.38,59.38,0,0,0,8.27-.94l1,1.71c-1,.21-2.21.38-3.45.52v.94h3.68v1.05h1.8c0-1.27,0-2.59,0-4h2.19c0,1.4,0,2.74,0,4Zm-15.11,3.63h1.5v-.84h-1.5Zm1.5,2.23v-.86h-1.5V313Zm2.07,4.76c1.09-.08,2.23-.17,3.34-.27,1.5-2.07,2-4.81,2.09-8.25h-1.75v-1.5h-3.68v.75h3.4v5.93h-3.4v.75h3.47v1.61h-3.47Zm1.5-7v-.84h-1.5v.84Zm-1.5,1.36V313h1.5v-.86Z"/><path class="cls-5" d="M458.76,312.13h7.31v8.54h-2.28v-.86h-2.86v1h-2.17Zm2.17,2.19v3.3h2.86v-3.3Zm11.72-3.78H461.41V303.6h11.24Zm-2.32-4.76h-6.71v2.59h6.71Zm4.91,6.35v8.55h-2.3v-.88h-3v1H467.7v-8.63Zm-2.3,5.49v-3.3h-3v3.3Z"/><path class="cls-5" d="M483.72,302.87h1.88v6.94h-3.26v.65c0,.48,0,1,0,1.52h3.22v8.8h-2.09v-6.87h-1.21a24.42,24.42,0,0,1-1.27,6.83,17.4,17.4,0,0,0-2-.63c1.13-2.78,1.3-7,1.3-9.63v-7.14h2.05v4.55h1.38ZM497,317.1h-2.88v3.64h-2V317.1H486v-2h1.8a6.85,6.85,0,0,0-.79-.61,7.8,7.8,0,0,0,1.92-1.76h-2.38v-7.9h2.67a14,14,0,0,0,.77-1.94l2.53.35c-.31.58-.61,1.11-.9,1.59h4.6v7.9h-5a9.06,9.06,0,0,1-1.82,2.38h2.7v-2h2v2H497Zm-8.36-9.21h1.71v-1.29h-1.71Zm1.29,3a7,7,0,0,0,.36-1.32h-1.65v1.32Zm4.1-1.32h-1.75a9.44,9.44,0,0,1-.33,1.32H494Zm0-3h-1.67v1.29H494Z"/><path class="cls-5" d="M503.68,315.68l4.81-1.44.31,2c-2.65.92-5.54,1.88-7.73,2.61l-.5-2.26.86-.23V305.11a30,30,0,0,0,5.56-1.82l1.73,1.86a37.94,37.94,0,0,1-5,1.46v2.7h4.76v2.21h-4.76Zm13.77-.27c0,1.09-.21,1.82-.92,2.23a6.29,6.29,0,0,1-3,.46,8.31,8.31,0,0,0-.86-2.42c.88,0,1.8,0,2.09,0s.36-.12.36-.36v-8.94h-3.38v14.31h-2.3V304.15h8Z"/><path class="cls-5" d="M537.79,312.94c-.81.42-1.71.84-2.59,1.21a8.32,8.32,0,0,0,4,4,9.53,9.53,0,0,0-1.52,2,10.32,10.32,0,0,1-4.33-5.18l-.59.21c.94,2.11.48,4.16-.94,5a3.86,3.86,0,0,1-2.32.65c-.48,0-1.07,0-1.67-.06a4.71,4.71,0,0,0-.63-2.05,18.51,18.51,0,0,0,1.92.1,1.92,1.92,0,0,0,1.27-.31,1.88,1.88,0,0,0,.58-2.21,26.18,26.18,0,0,1-8.11,3.61,11.5,11.5,0,0,0-1.27-1.67,25,25,0,0,0,8.63-3.43,3.08,3.08,0,0,0-.38-.5,24.76,24.76,0,0,1-6.77,2.59,7.81,7.81,0,0,0-1.21-1.57,24.83,24.83,0,0,0,6.81-2.11c-.19-.15-.42-.31-.63-.46a28.5,28.5,0,0,1-4.6,1.5,10,10,0,0,0-1.19-1.53,30.47,30.47,0,0,0,4.66-1.13h-3.22v-2.9l-.65.4a6.46,6.46,0,0,0-1.53-1.61,14.2,14.2,0,0,0,5.27-4.62l2.38.46-.58.81H532l.35-.1,1.55,1a16.23,16.23,0,0,1-1.3,1.82h4.58v4.72h-6.69l-.5.29a8.76,8.76,0,0,1,1.92,1.82,31.16,31.16,0,0,0,4.08-2.07Zm-11.95-3.09h3.34v-1.42h-3.34Zm1.29-4.1c-.35.35-.69.69-1.07,1h3.89c.25-.33.52-.67.77-1Zm7.75,2.69h-3.66v1.42h3.66Z"/><path class="cls-5" d="M549.16,314.47c1.5-.48,2.36-1.3,2.47-2.32a.73.73,0,0,1-.21,0,1.7,1.7,0,0,1-1.82-1.71,1.75,1.75,0,0,1,1.88-1.73c1.36,0,2.07,1,2.07,2.63a4.81,4.81,0,0,1-3.78,4.64Z"/><path class="cls-5" d="M168.85,336.84h-6.29v-1.78h2.72a12.12,12.12,0,0,0-1-2.53l1.61-.58A13.05,13.05,0,0,1,167,334.5l-1.36.56h3.18Zm-.5,11.87h-3.61v.81h-1.59V343h5.2Zm-.12-9.28h-4.89V337.7h4.89Zm-4.89.88h4.89V342h-4.89Zm1.4,4.39V347h2V344.7Zm15.5,1.38a11,11,0,0,1-1.86,1,7.5,7.5,0,0,0,2.4,1,6.62,6.62,0,0,0-1.17,1.61,7.53,7.53,0,0,1-5.06-4.76h-.25a8.12,8.12,0,0,1-1.27,1v1.52l2.22-.36a12,12,0,0,0,.08,1.69c-3.07.59-3.66.79-4,1a5.54,5.54,0,0,0-.94-1.29,2.37,2.37,0,0,0,.9-1.61,16,16,0,0,1-1.8.71,9.29,9.29,0,0,0-1-1.42,14.07,14.07,0,0,0,3.26-1.19h-2.88V343.4h2.72v-.61h-1.86v-1.36h1.86v-.63h-2.11v-1.36h2.11v-.84h-1.84v-3.36h4.57v3.36h-.71v.84h2v-.84H175v-3.36h4.64v3.36h-2v.84H180v1.36h-2.36v.63h2.13v1.36h-2.13v.61h2.78V345h-4a6.2,6.2,0,0,0,.81,1.15,16.89,16.89,0,0,0,1.86-1.11Zm0-11.37H169v-1.63h4.53a7.64,7.64,0,0,0-.42-1l1.9-.58a8.68,8.68,0,0,1,.75,1.53h4.41Zm-8.86,2.7h1.23v-1h-1.23Zm2.22,4h2v-.63h-2Zm0,2h2v-.61h-2Zm3.07-6h1.29v-1h-1.29Z"/><path class="cls-5" d="M192.74,341s0,.56,0,.82c-.19,4.62-.38,6.46-.92,7.12a2,2,0,0,1-1.44.71,14.15,14.15,0,0,1-2.32.06,4.67,4.67,0,0,0-.58-2,15.41,15.41,0,0,0,1.88.1.69.69,0,0,0,.63-.25c.29-.33.46-1.55.59-4.58h-2.13a10.88,10.88,0,0,1-3.38,6.81,6,6,0,0,0-1.52-1.67c2.51-2.07,2.9-5.52,3-8.71h-1.92v-6.67h7.88v6.67h-3.74l-.11,1.57Zm-6-3.61h3.61v-2.63h-3.61Zm9.48,7.6H194v-10.8h2.23Zm4.55-12.74V347c0,1.34-.27,2-1.06,2.34a10.18,10.18,0,0,1-3.82.44,8.34,8.34,0,0,0-.79-2.36c1.25,0,2.47,0,2.88,0s.52-.12.52-.46V332.23Z"/><path class="cls-5" d="M214.86,331.87c0,.81-.06,1.84-.13,3,.27,2.59,1.44,9.82,8.13,12.77a6.09,6.09,0,0,0-1.67,2,14.84,14.84,0,0,1-7.5-9.07,15.62,15.62,0,0,1-7.06,9.19,7.32,7.32,0,0,0-1.9-1.86c7.79-4.16,7.42-12.75,7.5-16Z"/><path class="cls-5" d="M239.22,347.44c1.73,0,2-.52,2.28-3a8.1,8.1,0,0,0,2.13.84c-.38,3.18-1.15,4.22-4.26,4.22h-6c-3.37,0-4.37-.77-4.37-3.72v-5.14l-2.68.84-.59-2.07,3.28-1v-5.2h2.24v4.49l2.93-.92v-4.89h2.28V336l3.55-1.09.61-.42,1.71.54-.08.35a69.24,69.24,0,0,1-.84,8.57l-1.88-.54c.23-1.55.38-4,.46-6.29l-3.53,1.13v7.17H234.2V339l-2.93.94v5.87c0,1.42.27,1.65,2.15,1.65Z"/><path class="cls-5" d="M255.43,347.66c0,.94-.17,1.42-.81,1.73a6.64,6.64,0,0,1-2.65.33,6.35,6.35,0,0,0-.69-1.78c.69,0,1.44,0,1.67,0s.33-.08.33-.33v-2c-1,.69-1.92,1.34-2.78,1.9l-.48-1.34a8.47,8.47,0,0,1-1.36,3.61,9.19,9.19,0,0,0-1.59-1.53c1-1.5,1.09-3.61,1.09-5.27v-4.32h7.27Zm-1.07-14.39a40.75,40.75,0,0,1,2.28,4.41l-2,.81c-.11-.35-.29-.75-.48-1.21-4.85.48-5.64.59-6.2.82-.11-.44-.48-1.48-.71-2.05a2.22,2.22,0,0,0,1.05-.77,16.23,16.23,0,0,0,2.26-3.41l2.3.65a21.33,21.33,0,0,1-2.36,3.18l2.8-.21c-.29-.56-.56-1.09-.81-1.55Zm-4.09,9.78a22.81,22.81,0,0,1-.13,2.46c.86-.38,2-1,3.15-1.57v-.63l-.92.9a27.7,27.7,0,0,0-2.09-1.84Zm0-2.42V342l1-.83c.65.46,1.48,1.13,2.05,1.63v-2.17Zm9.48-.33c-2.3,0-2.92-.84-2.92-3v-5.45h2.26v2.26h4.72v2H259.1v1.27c0,.71.12,1,.73,1h2.8a9.93,9.93,0,0,0,1.76-.15c0,.59.13,1.42.21,1.94a7.67,7.67,0,0,1-1.94.17Zm2.42,7.33c.65,0,.79-.33.88-2.09a6.24,6.24,0,0,0,2,.82c-.23,2.51-.83,3.26-2.65,3.26h-2.72c-2.26,0-2.82-.67-2.82-2.76v-6h2.26v1.92H264v2H259.1v2.09c0,.67.13.77.88.77Z"/><path class="cls-5" d="M272.26,334.71h3.8v1.8h-8v-1.8h3.34a10.45,10.45,0,0,0-1.27-2.11l1.84-.88a9.63,9.63,0,0,1,1.48,2.34Zm-3.61,5.58h6.79V342h-6.79Zm6.45,8.59h-4.18v.75h-2V343h6.16Zm0-11.32v1.69H269v-1.69Zm-4.2,7.25v2.24h2.19v-2.24Zm11.89,2.55c.88,0,1-.44,1.13-2.84a6.89,6.89,0,0,0,2.11.9c-.27,3.16-.9,4.1-3.07,4.1h-3.13c-2.38,0-3.11-.67-3.11-3.09V339h5.93v-4h-6v-2.17H285v9.28h-2.3v-.94h-3.62v5.29c0,.81.17.92,1.07.92Z"/><path class="cls-5" d="M295.51,336.91a20.3,20.3,0,0,1-1.67,2.42v10.42h-2.21v-8a17.84,17.84,0,0,1-1.73,1.55,16.88,16.88,0,0,0-1.09-2.36,17.22,17.22,0,0,0,4.7-4.93Zm-.33-4.16a20.33,20.33,0,0,1-5,4.81,14.13,14.13,0,0,0-1.13-1.94,13.68,13.68,0,0,0,4-3.76Zm11.66,12h-2.63v2.72c0,1.06-.19,1.59-.94,1.92a7.59,7.59,0,0,1-3,.33,8,8,0,0,0-.71-2c.81,0,1.71,0,2,0s.35-.1.35-.31v-2.67h-4a20.14,20.14,0,0,1,2.19,2.4l-1.71,1.21a16.16,16.16,0,0,0-2.21-2.67l1.42-.94h-2.69v-1.94h7v-1.09h-6.56v-1.86h11.11v1.86h-2.23v1.09h2.61Zm-1-5.73h-9.5v-6.64h9.5Zm-2.3-5h-5v1h5Zm0,2.46h-5v1h5Z"/><path class="cls-5" d="M316.41,332.6a29.19,29.19,0,0,1-1.82,3.93v13.2H312.4v-9.8a18.45,18.45,0,0,1-1.29,1.55,14.81,14.81,0,0,0-1.23-2.38,20.2,20.2,0,0,0,4.35-7.17Zm6.79,4.79v9.82c0,1.09-.19,1.73-.88,2.11a6,6,0,0,1-2.82.46,7.8,7.8,0,0,0-.79-2.3c.81,0,1.61,0,1.88,0s.35-.08.35-.33v-9.78h-2.23a16.35,16.35,0,0,1-1.8,2.93,16,16,0,0,0-1.84-1.5,17,17,0,0,0,3.26-6.9l2.22.5a29.12,29.12,0,0,1-.9,2.86h6.6l.36-.08,1.61.31c-.23,1.55-.56,3.34-.82,4.45l-1.94-.33c.1-.59.21-1.4.31-2.24ZM320,340.85a19.71,19.71,0,0,1-2.61,6.41,14.07,14.07,0,0,0-2-1.23,13.87,13.87,0,0,0,2.34-5.64Zm5.91-.65a23.7,23.7,0,0,1,2.09,6.25l-2.19.75a24.26,24.26,0,0,0-1.94-6.31Z"/><path class="cls-5" d="M334.62,343.05a15.9,15.9,0,0,1-1.63,6.81,10.46,10.46,0,0,0-1.86-1.44c1.23-2.21,1.3-5.43,1.3-7.92v-6.92h0a32.73,32.73,0,0,0,6.5-1.36l1.46,1.94a31.43,31.43,0,0,1-5.72,1.13v1.36h4.93v6.41Zm.08-4.37V341h2.72v-2.34Zm14.6,1.76h-1.75v9.19h-2.26v-9.19h-2c-.08,3-.73,7-3.41,9.38a10.57,10.57,0,0,0-1.78-1.55c2.65-2.38,2.88-5.95,2.88-8.71v-6a31.32,31.32,0,0,0,6.6-1.52l1.48,2a31.46,31.46,0,0,1-5.74,1.27v2.92h6Z"/><path class="cls-5" d="M370,334.5v2.19H359.73a22.07,22.07,0,0,1-2.24,3.78v9.28h-2.32v-6.67a14.4,14.4,0,0,1-1.69,1.34,16,16,0,0,0-1.13-2.21,14.54,14.54,0,0,0,4.78-5.52H353V334.5h5.18c.33-.9.61-1.78.84-2.67l2.4.58c-.21.71-.46,1.4-.73,2.09Zm-4.6,12.68h4.54v2.11H358.44v-2.11h4.64V342.8h-3.89v-2.11h3.89v-3.18h2.3v3.18h3.8v2.11h-3.8Z"/><path class="cls-5" d="M391.25,343.11H384v3.82c0,1.42-.34,2-1.27,2.4a13,13,0,0,1-4.28.42,9.32,9.32,0,0,0-1-2.38c1.4.08,3,.08,3.43.08s.61-.13.61-.54v-3.8h-7.63v-2.36h7.63v-5.52c-2,.15-4.07.25-6,.29a7,7,0,0,0-.56-2.07A80.15,80.15,0,0,0,388.66,332l1.11,2.09A48.68,48.68,0,0,1,384,335v5.77h7.25Zm-13.56-7.27a16.13,16.13,0,0,1,1.71,3.84l-2.09.81a17.44,17.44,0,0,0-1.57-3.93Zm8.06,3.87a23.56,23.56,0,0,0,1.76-4.3l2.47.79c-.79,1.52-1.63,3.15-2.34,4.2Z"/><path class="cls-5" d="M412.14,334.8s0,.77,0,1c-.25,8.57-.46,11.62-1.25,12.64a2.56,2.56,0,0,1-1.84,1.05,21.5,21.5,0,0,1-3,0,5.36,5.36,0,0,0-.75-2.23c1.23.12,2.36.12,2.86.12a1,1,0,0,0,.84-.33c.56-.61.81-3.49,1-10.26h-4.1a16.56,16.56,0,0,1-1.69,3,14.25,14.25,0,0,0-1.48-1.07v9H397.6v1.4h-2.07V334.94h2.17a20.67,20.67,0,0,0,.56-3.09l2.49.35c-.33,1-.67,1.92-1,2.74h3V338a19.83,19.83,0,0,0,2.59-6.18l2.17.5a22.53,22.53,0,0,1-.75,2.44Zm-11.49,2.13h-3V340h3Zm0,8.84V342h-3v3.76Zm6.37-1a40.92,40.92,0,0,0-2.67-4.43l1.78-1a46.31,46.31,0,0,1,2.82,4.26Z"/><path class="cls-5" d="M433.63,344.43h-2v3.34h-2.32V347h-3.45v.59c0,1.13-.27,1.59-1,1.92a10.11,10.11,0,0,1-3.4.33,7,7,0,0,0-.75-1.8c.92,0,2.05,0,2.36,0s.48-.13.48-.48V347h-5.83v-1.65h5.83v-.9h-7.59v-1.75h7.59v-.82h-5.68v-1.53h5.68v-.84h-5.2v-3.8h5.2v-.79h-7.15v-1.8h7.15v-1.25h2.32v1.25h7.33v1.8h-7.33v.79h5.45v3.8h-5.45v.84h5.77v2.36h2ZM423.54,338v-.92h-3V338Zm2.32-.92V338H429v-.92Zm0,5.56h3.45v-.82h-3.45Zm3.45,1.75h-3.45v.9h3.45Z"/><path class="cls-5" d="M436.74,340.64a27,27,0,0,0,1-5l1.73.25a30.14,30.14,0,0,1-.9,5.39Zm18-2.72v1.63H443v-1.61l-.44.25a15.67,15.67,0,0,0-.77-2.05v13.6h-2.09v-17.9h2.09v3l1-.46c.46,1,1.07,2.23,1.32,3l-1.06.56h4.6v-.82h-3.55v-1.53h3.55v-.77h-4.22v-1.63h4.22v-1.3h2.26v1.3h4.22v1.63H449.9v.77h3.63v1.53H449.9v.82Zm-1,9.69c0,1-.19,1.53-.9,1.84a7.2,7.2,0,0,1-2.93.33,8.43,8.43,0,0,0-.61-1.94c.79.06,1.69,0,1.94,0s.34-.08.34-.31v-.65h-5.7a7.09,7.09,0,0,1-1.4,3,9.37,9.37,0,0,0-1.63-1.52,7.29,7.29,0,0,0,1.19-4.68v-3.47h9.71Zm-2.17-2.26v-.88H446.1c0,.29,0,.58,0,.88Zm-5.41-3.47v1h5.41v-1Z"/><path class="cls-5" d="M464,346.52a1.76,1.76,0,1,1,1.75,1.84A1.76,1.76,0,0,1,464,346.52Zm.42-10.34-.1-2.67h2.84l-.1,2.67-.4,7.08h-1.84Z"/><path class="cls-5" d="M130.63,279.39h16.66v6.37h-9.65V310.5h-7Z"/><path class="cls-5" d="M643.64,362.31H627v-6.37h9.65V331.19h7Z"/></svg>