<svg id="圖層_1" data-name="圖層 1" xmlns="http://www.w3.org/2000/svg" viewBox="0 0 726.15 473.98"><defs><style>.cls-1,.cls-2,.cls-3{fill:#00364b;stroke:#e0e0e0;stroke-miterlimit:10;}.cls-1{stroke-width:11.21px;}.cls-2{stroke-width:11.98px;}.cls-3{stroke-width:12.79px;}.cls-4{fill:#e0e0e0;}.cls-5{fill:#6bffba;}</style></defs><title>Rethink Taiwan_Landing page animation 2展開+嵌入</title><rect class="cls-1" x="16.82" y="62.58" width="562.23" height="366.77"/><rect class="cls-2" x="38.22" y="50.09" width="600.51" height="391.74"/><rect class="cls-3" x="60.37" y="36.89" width="641" height="418.15"/><path class="cls-4" d="M580.3,166.9H537.38A4.31,4.31,0,0,0,532.9,171v21.33a4.11,4.11,0,1,0,8.18,0V179.57a4.29,4.29,0,1,1,8.57,0v62.22c0,2.47-1.66,4.48-3.68,4.48a3.92,3.92,0,0,0-3.68,4.09,4.31,4.31,0,0,0,4.48,4.09h6.58a4.31,4.31,0,0,0,4.48-4.09V217.73a4.5,4.5,0,0,1,4.48-4.48h.85a4.5,4.5,0,0,1,4.48,4.48v32.63a4.31,4.31,0,0,0,4.48,4.09h6.58a4.31,4.31,0,0,0,4.48-4.09,3.92,3.92,0,0,0-3.68-4.09c-2,0-3.68-2-3.68-4.48V179.57a4.29,4.29,0,1,1,8.57,0v12.76a4.11,4.11,0,1,0,8.18,0V171a4.31,4.31,0,0,0-4.48-4.09Z"/><path class="cls-4" d="M560.22,144.76c1.58-2.52,4.1-2.47,5.6.09l6.91,11.82c1.5,2.57.29,4.67-2.68,4.67H555.2c-3,0-4.11-2.06-2.53-4.57Z"/><path class="cls-4" d="M562.73,135.07a3.33,3.33,0,0,1-3.33-3.33v-1.39a3.33,3.33,0,1,1,6.65,0v1.39A3.33,3.33,0,0,1,562.73,135.07Z"/><path class="cls-4" d="M562.74,131a6.65,6.65,0,1,1,4.69-1.95A6.69,6.69,0,0,1,562.74,131Z"/><path class="cls-4" d="M562.63,111.83a2.37,2.37,0,0,1-2.37-2.37v-6.53a2.37,2.37,0,0,1,4.75,0v6.53A2.37,2.37,0,0,1,562.63,111.83Z"/><path class="cls-4" d="M553.8,116.27a2.36,2.36,0,0,1-1.64-.66l-3.78-3.6a2.37,2.37,0,0,1,3.28-3.43l3.78,3.6a2.37,2.37,0,0,1-1.64,4.09Z"/><path class="cls-4" d="M571.46,116.27a2.37,2.37,0,0,1-1.64-4.09l3.78-3.6a2.37,2.37,0,0,1,3.28,3.43l-3.78,3.6A2.36,2.36,0,0,1,571.46,116.27Z"/><path class="cls-4" d="M149.17,131.32H154l2.89,20.36h-4.61l-.43-4.19h-7.5L142,151.68h-4.45Zm-3,12.67h5.17l-.84-8Z"/><path class="cls-4" d="M170.17,142a3,3,0,0,0-.25-1.52,1.89,1.89,0,0,0-1.86-.91,3.5,3.5,0,0,0-3.14,2,9.69,9.69,0,0,0-1,2.79,7.59,7.59,0,0,0-.18,2.67A2,2,0,0,0,166,148.9a2.85,2.85,0,0,0,2.12-.75,4.68,4.68,0,0,0,1.11-1.93h4a8.29,8.29,0,0,1-2,3.4,7.9,7.9,0,0,1-6,2.58q-3.63,0-4.88-2.15a7.73,7.73,0,0,1-.52-5.59,11,11,0,0,1,3.17-6,8.12,8.12,0,0,1,5.68-2.15,6.67,6.67,0,0,1,4.37,1.27q1.53,1.27,1.17,4.49Z"/><path class="cls-4" d="M175.89,139.57l.59-2.8h2.1l.9-4.2h3.9l-.9,4.2h2.45l-.59,2.8h-2.45l-1.7,8q-.19.93,0,1.15c.13.15.59.23,1.39.23h.38l.41,0-.64,2.94-1.88.07q-2.8.1-3.61-1a2.57,2.57,0,0,1-.22-2.09l2-9.27Z"/><path class="cls-4" d="M187.53,136.63h4l-3.19,15.06h-4Zm4.38-1.79h-4l.77-3.63h4Z"/><path class="cls-4" d="M198.79,152.21q-3.88,0-5.28-2.35a7.64,7.64,0,0,1-.7-5.67,11,11,0,0,1,3.11-5.65,8.57,8.57,0,0,1,6.3-2.39q3.88,0,5.28,2.39a7.7,7.7,0,0,1,.7,5.65,10.94,10.94,0,0,1-3.11,5.67A8.62,8.62,0,0,1,198.79,152.21Zm5.28-8a5.11,5.11,0,0,0-.19-3.49,2.49,2.49,0,0,0-2.4-1.22,3.9,3.9,0,0,0-2.91,1.22,7,7,0,0,0-1.67,3.49,5.13,5.13,0,0,0,.19,3.49,2.49,2.49,0,0,0,2.4,1.23,3.89,3.89,0,0,0,2.92-1.23A7,7,0,0,0,204.06,144.18Z"/><path class="cls-4" d="M225.22,141.54l-2.16,10.14h-4l1.93-9.16a3.8,3.8,0,0,0,.07-1.82q-.33-1.16-2-1.16a3.51,3.51,0,0,0-3.11,1.7,6.74,6.74,0,0,0-.87,2.29l-1.73,8.15h-3.92l3.19-15h3.8l-.47,2.2a9.13,9.13,0,0,1,1.8-1.67,5.89,5.89,0,0,1,3.27-.91,4.82,4.82,0,0,1,3.56,1.22Q225.82,138.71,225.22,141.54Z"/><path class="cls-4" d="M251.11,140.92a20.43,20.43,0,0,1-3.47,8.37,7.79,7.79,0,0,1-6.5,2.94q-4.19,0-5.26-2.94t.1-8.37a20.39,20.39,0,0,1,3.47-8.39,7.8,7.8,0,0,1,6.51-3q4.19,0,5.25,3T251.11,140.92Zm-9.23,7.79a3.19,3.19,0,0,0,2.94-2,24.77,24.77,0,0,0,1.84-5.79,21.44,21.44,0,0,0,.64-5.87,1.89,1.89,0,0,0-2.11-1.91,3.22,3.22,0,0,0-3,1.91,23,23,0,0,0-1.86,5.87,20.24,20.24,0,0,0-.62,5.79A1.94,1.94,0,0,0,241.88,148.71Z"/><path class="cls-4" d="M184,208.91a80.6,80.6,0,0,0-7.61-6.84,24.72,24.72,0,0,1-4,5.07,32.77,32.77,0,0,0-4.6-3,51.6,51.6,0,0,0,22.53,16.46A32.21,32.21,0,0,0,185.2,227a56.71,56.71,0,0,1-19.11-14.92v17.17h-7.37V212.45A56.92,56.92,0,0,1,139.77,227a43.29,43.29,0,0,0-5-6c9.56-3.72,18.76-11,23.89-19V188.39H137.24v-6.9h21.47v-7.26h7.37v7.26h22.24v6.9H166.08V201.6c.29.47.59.88.88,1.36,3.78-3.36,6.25-8.61,7.43-14.22l6.84,1.24a52.52,52.52,0,0,1-1.95,6.31c3.36,2.6,7.43,5.72,9.62,7.73ZM153.64,190a57.52,57.52,0,0,1-2.12,6.37c2.12,1.83,4.37,3.78,5.72,5.19l-4.72,4.9a47.74,47.74,0,0,0-4-4.13,31.66,31.66,0,0,1-6.78,8.08,42,42,0,0,0-5.43-4.6c5.19-3.72,8.79-9.91,10.44-17.11Z"/><path class="cls-4" d="M213.63,213.87H202.48v5.25h-6.37V179.3h17.52Zm-11.15-28.14v21.71h4.72V185.73Zm36.69,36.1c3.13,0,3.72-1.36,4.19-7.43a17.25,17.25,0,0,0,6.31,2.71c-.89,8.26-3,11.21-9.85,11.21H227.49c-7.67,0-10.09-2.12-10.09-10.62v-40h29.79v32.39h-6.78v-3.42h-16.1v11.09c0,3.54.47,4.07,4,4.07Zm-14.87-37.69V200.3H229V184.14Zm16.1,0h-5.07V200.3h5.07Z"/><path class="cls-4" d="M273.09,218.88a6.14,6.14,0,0,1,12.27,0c0,3.42-2.65,5.78-6.13,5.78S273.09,222.31,273.09,218.88Zm1-30.09-.24-8.79h10.79l-.29,8.79L282.29,209h-6.08Z"/><path class="cls-4" d="M322.22,207.32v13.75c0,3.24-.53,5-2.3,6s-4.37,1.42-8.14,1.36A23.05,23.05,0,0,0,310,222c2.18.06,4.19.06,4.9,0s1-.24,1-1v-11.8c-1.95.53-3.72,1.06-5.43,1.53L308.83,204c2-.41,4.37-1.06,7-1.71V191.81h-6.37v-6.49h6.37V174.17h6.37v11.15h5.9v6.49h-5.9v8.73l5.31-1.42.94,6.31Zm26.84,14.87c1.36.12,2.66.18,4.13.18,2,0,9.32,0,11.86-.06a20.71,20.71,0,0,0-1.89,6.13H352.9c-7.73,0-13.69-1.42-17.7-8.55a26.07,26.07,0,0,1-6.19,9.26,36.05,36.05,0,0,0-5.13-4.19c4.9-3.89,7.31-10.44,8.2-18.46l6.37.77a53.46,53.46,0,0,1-1.12,6,13.24,13.24,0,0,0,5.13,6.9v-15.4H328.59v-5.66h34.86v5.66H349.06v5.19h11.27v5.49H349.06Zm11.44-25.84h-29V176h29Zm-6.72-15.46H337.91v2.95h15.87Zm0,7.49H337.91v3h15.87Z"/><path class="cls-4" d="M422.68,216.05H409.05a84.75,84.75,0,0,1,13.27,8l-5.49,4.9c-3.13-2.83-9.73-6.9-14.87-9.56l4-3.36H399.2v13.21h-7V216.05h-9.91l6.9,2.3c-3.42,4-9.2,7.67-14.22,9.91a51.21,51.21,0,0,0-5.9-4.66c5-1.65,10.26-4.48,13-7.55H369.18v-5.78h23V206.2h7v4.07h23.48Zm-7.26-7.2a127.72,127.72,0,0,0-16.75-5.07c-6.61,2.71-15.4,4-27,4.6a19.18,19.18,0,0,0-2.42-5.78,123.76,123.76,0,0,0,17.34-1.47c-3.3-.65-6.61-1.24-10.09-1.77a62.63,62.63,0,0,0,4.9-4.84H369.65V189h16.58a61.64,61.64,0,0,0,3.72-5.13h-12.8v3.24h-6.49v-9h20.94q-.62-1.33-1.24-2.48l7.43-1.47a41.17,41.17,0,0,1,2.3,4h21.06v9h-6.78V183.9H392.71l4.25,1.3c-.94,1.24-1.89,2.54-3,3.83h11.39a32.79,32.79,0,0,0,1.42-3.6l6.84,1.36c-.24.77-.53,1.53-.83,2.24H422v5.49H410a22.11,22.11,0,0,1-4.48,5.07c6.37,1.53,12.15,3.19,16.58,4.72Zm-26.6-14.33a17.44,17.44,0,0,1-1.47,1.47c3.24.53,6.55,1.18,9.67,1.83a20,20,0,0,0,4.54-3.3Z"/><polygon class="cls-4" points="313.25 141.79 305.29 141.79 304.5 145.53 312.46 145.53 313.25 141.79"/><polygon class="cls-4" points="337.23 134.71 334.96 134.71 334.4 137.39 336.66 137.39 337.23 134.71"/><polygon class="cls-4" points="286.58 138.64 283.7 138.64 283.44 139.89 286.31 139.89 286.58 138.64"/><polygon class="cls-4" points="314.57 135.51 306.61 135.51 305.87 139.02 313.83 139.02 314.57 135.51"/><path class="cls-4" d="M371.59,134.87a2.77,2.77,0,0,0-1.57.48,3.84,3.84,0,0,0-1.5,2.55,3.16,3.16,0,0,0,.13,2.27,1.86,1.86,0,0,0,1.74.76,2.76,2.76,0,0,0,1.39-.4,3.58,3.58,0,0,0,1.68-2.53,3.19,3.19,0,0,0-.19-2.29A1.77,1.77,0,0,0,371.59,134.87Z"/><polygon class="cls-4" points="287.34 135.03 284.46 135.03 284.22 136.19 287.09 136.19 287.34 135.03"/><path class="cls-4" d="M267.82,125.37v30.19H421.39V125.37Zm17,22.14c-4.59,1.29-5.52,1.63-6.2,2a8.57,8.57,0,0,0-.45-2.88,2,2,0,0,0,1.23-1.38l2.68-12.72h8.54l-2.07,9.8h-5.68l-.69,3.28,2-.5c-.14-.5-.3-1-.45-1.4l2.67-1.19a28.13,28.13,0,0,1,1.56,5.08l-2.9,1.38A10.83,10.83,0,0,0,284.86,147.51Zm11.33-3.7a3,3,0,0,1-1.38,2.36,5.61,5.61,0,0,1-2.84.48,8.33,8.33,0,0,0-.18-2.63,10.8,10.8,0,0,0,1.32,0c.21,0,.3-.06.35-.29l1.79-8.5H293.6l-3.07,14.6h-2.8l3.61-17.15h7.19Zm18.42,5.81h-3l.27-1.27h-8l-.27,1.27h-2.88l3.56-16.92h13.85Zm22.48-.25h-7.48c-3.32,0-5.5-.4-6.63-2.32a18.7,18.7,0,0,1-1.44,3.11,14.42,14.42,0,0,0-2.1-1.15c1.28-2,2.15-5.22,2.86-8.48l2.49.19c-.19.81-.38,1.61-.6,2.4a5.45,5.45,0,0,0,.36,1.38l1-4.85H322l.51-2.44h3l.3-1.42h-2.47l.51-2.4h2.47l.36-1.69h2.61l-.36,1.69h2.44l-.5,2.4h-2.44l-.3,1.42h2.92l-.51,2.44h-2.42l-.34,1.63H330l-.5,2.4h-2.24l-.57,2.71a13,13,0,0,0,3.48.33c1.76,0,6.46,0,8.54-.1A12.18,12.18,0,0,0,337.09,149.37Zm-3.16-5.83h2c.67,0,.89-.42,1.42-2.38a5.86,5.86,0,0,0,2.19,1.06c-.91,2.86-1.82,3.82-3.89,3.82H333c-2.36,0-3-.75-2.36-3.55l2.15-10.21h7.61l-1.58,7.52h-4.93l-.57,2.69C333.13,143.42,333.2,143.53,333.93,143.53Zm21.75.59h-6.74l.68-3.17h6.74Zm20.69-3.48a17.17,17.17,0,0,1-1.88,5.16q-2.34,3.93-6.35,3.93a4.67,4.67,0,0,1-3.2-1.13,3.62,3.62,0,0,1-1.05-3.31h3.33a1.48,1.48,0,0,0,1.64,1.69,3.11,3.11,0,0,0,2.71-1.83,12.18,12.18,0,0,0,1.09-2.95,4.74,4.74,0,0,1-3.59,1.44,4.27,4.27,0,0,1-3.31-1.4,4.36,4.36,0,0,1-.72-4,7.91,7.91,0,0,1,2.52-4.43,6.58,6.58,0,0,1,4.46-1.7q3.89,0,4.6,3.44A12.81,12.81,0,0,1,376.37,140.65Zm4.06,8.6h-3.56l.74-3.5h3.56Zm14,0H382.81a9.7,9.7,0,0,1,1.49-3.35,13,13,0,0,1,4.15-3.6,33.82,33.82,0,0,0,3.5-2.37,4.51,4.51,0,0,0,1.56-2.44,2.36,2.36,0,0,0-.21-1.8,1.7,1.7,0,0,0-1.56-.72,2.66,2.66,0,0,0-2.33,1.14,6.53,6.53,0,0,0-.81,2.09h-3.25a9.92,9.92,0,0,1,1.53-3.51,6.2,6.2,0,0,1,5.3-2.55,5,5,0,0,1,4,1.5,4.38,4.38,0,0,1,.75,4,6.73,6.73,0,0,1-1.83,3.36,15.4,15.4,0,0,1-2.9,2.17l-1.54,1q-1.44.89-2,1.29a5,5,0,0,0-1,.93h7.43Zm15.81-11.65a6.73,6.73,0,0,1-1.83,3.36,15.4,15.4,0,0,1-2.9,2.17l-1.54,1q-1.44.89-2,1.29a5,5,0,0,0-1,.93h7.43l-.62,2.95H396.19a9.7,9.7,0,0,1,1.49-3.35,13,13,0,0,1,4.15-3.6,33.82,33.82,0,0,0,3.5-2.37,4.51,4.51,0,0,0,1.56-2.44,2.36,2.36,0,0,0-.21-1.8,1.7,1.7,0,0,0-1.56-.72,2.66,2.66,0,0,0-2.33,1.14,6.53,6.53,0,0,0-.81,2.09h-3.25a9.92,9.92,0,0,1,1.53-3.51,6.2,6.2,0,0,1,5.3-2.55,5,5,0,0,1,4,1.5A4.38,4.38,0,0,1,410.28,137.59Z"/><path class="cls-5" d="M576.78,409.27a28.77,28.77,0,0,1-6.6,5.2v7.88c0,1.09-.29,1.63-1.11,1.88a13.58,13.58,0,0,1-4,.31,6,6,0,0,0-.71-1.8c1.5.06,3,.06,3.43,0s.56-.12.56-.46v-8.75a23.27,23.27,0,0,0,4.89-3.47H561.49v-1.76H575l.4-.1Z"/><path class="cls-5" d="M594.29,409.34a6.05,6.05,0,0,1-3.62,5.06,4.9,4.9,0,0,0-.84-1.11v9.38c0,.77-.15,1.27-.67,1.53a6.61,6.61,0,0,1-2.55.27A5.67,5.67,0,0,0,586,423c.92,0,1.73,0,2,0s.34-.1.34-.35v-3.13h-4.26a11.32,11.32,0,0,1-1.48,5,7,7,0,0,0-1.27-.79c1.29-2,1.42-4.83,1.42-7v-3l-.17.21a12,12,0,0,0-1.3-1.06,13.86,13.86,0,0,0,2.9-6l1.63.36c-.13.46-.27.92-.42,1.38h2l.25-.08,1,.65a24.6,24.6,0,0,1-1.15,2.53h2.28v1.38a4.65,4.65,0,0,0,2.82-3.78h-2.38v-1.48h8.34s0,.42,0,.61c-.13,3.11-.31,4.39-.71,4.85a1.44,1.44,0,0,1-1.09.54,12.31,12.31,0,0,1-1.94,0,4.33,4.33,0,0,0-.4-1.48,13.68,13.68,0,0,0,1.55.08.52.52,0,0,0,.52-.17c.21-.23.35-1,.44-3Zm-9.44.67c-.25.59-.52,1.19-.81,1.73h2a16.21,16.21,0,0,0,.71-1.73Zm-.65,6.77c0,.44,0,.9,0,1.38h1.48v-1.94H584.2Zm0-1.88h1.46v-1.82H584.2Zm2.7,0h1.44v-1.82h-1.44Zm1.44,3.26v-1.94h-1.44v1.94ZM599.12,421h-3.49v3.38h-1.69V421h-3.8v-1.55h3.8v-2.07h-1.88a9.44,9.44,0,0,1-.9,1.71,8.13,8.13,0,0,0-1.34-.71,10.88,10.88,0,0,0,1.65-4.22l1.48.31q-.14.69-.35,1.38h1.34V414h1.69v1.84h3.13v1.53h-3.13v2.07h3.49Z"/><path class="cls-5" d="M612.19,418.42a5.93,5.93,0,0,1-1.59,3c2.46,1,5.68,1.17,9.74,1.21a4.43,4.43,0,0,0-.75,1.76c-4.3-.15-7.79-.48-10.47-1.8a16.54,16.54,0,0,1-5.33,1.94A7.8,7.8,0,0,0,602.7,423a18,18,0,0,0,4.76-1.4,9.26,9.26,0,0,1-2.23-2.47l1.55-.61a7.77,7.77,0,0,0,2.15,2.11,4.51,4.51,0,0,0,1.36-2.17h-5.52v-7.56h5.81v-1.38h-7.5v-1.61h16.59v1.61h-7.23v1.38h6v7.56Zm-5.74-4.47h4.12v-1.63h-4.12Zm4.09,3a7.6,7.6,0,0,0,0-.94v-.69h-4.12V417Zm6.16-1.63h-4.26V416a7.28,7.28,0,0,1,0,.92h4.3Zm-4.26-3v1.63h4.26v-1.63Z"/><path class="cls-5" d="M641,416c-2.67,5.7-9.05,7.83-16,8.57a6,6,0,0,0-.71-1.73,30.74,30.74,0,0,0,8.65-1.84,24.28,24.28,0,0,0-2.4-2.13q-1.27.66-2.76,1.27a5.18,5.18,0,0,0-1.11-1.38,16.77,16.77,0,0,0,8-5.2l2,.44a16.1,16.1,0,0,1-1.21,1.36h4.1l.31-.08Zm-2.69-6.85c-2.44,4.32-7.94,6.77-13.1,7.81a7.32,7.32,0,0,0-.84-1.57,26.74,26.74,0,0,0,6.06-1.76,15.8,15.8,0,0,0-2.28-2c-.63.35-1.3.71-2,1a5.51,5.51,0,0,0-1.21-1.28,16.32,16.32,0,0,0,6.58-4.51l1.94.44a11.88,11.88,0,0,1-1.19,1.23h4.58l.31-.1Zm-7.9,1a9.54,9.54,0,0,1-.9.63,20.94,20.94,0,0,1,2.51,2.07,13.05,13.05,0,0,0,3.53-2.7Zm3.11,6.85c-.46.36-1,.71-1.5,1.06a23.51,23.51,0,0,1,2.57,2.19,10.8,10.8,0,0,0,3.74-3.24Z"/><path class="cls-5" d="M652.56,424.78v-18l15.61,9Z"/><path class="cls-4" d="M180.1,305.06v2.19H169.84A22.07,22.07,0,0,1,167.6,311v9.28h-2.32v-6.67a14.4,14.4,0,0,1-1.69,1.34,16,16,0,0,0-1.13-2.21,14.54,14.54,0,0,0,4.78-5.52h-4.16v-2.19h5.18c.33-.9.61-1.78.84-2.67l2.4.58c-.21.71-.46,1.4-.73,2.09Zm-4.6,12.68H180v2.11H168.56v-2.11h4.64v-4.37h-3.89v-2.11h3.89v-3.18h2.3v3.18h3.8v2.11h-3.8Z"/><path class="cls-4" d="M186,315.28a22,22,0,0,1-.81,4.66,7.08,7.08,0,0,0-1.59-.56,17.74,17.74,0,0,0,.75-4.37Zm15.19,2.8c0,1-.17,1.53-.77,1.86a5.79,5.79,0,0,1-2.67.38,7.74,7.74,0,0,0-.56-1.94c.65,0,1.38,0,1.63,0s.33-.1.33-.35V305.19H193v15.15h-2v-6.77l-1.52.65c-.06-.23-.12-.52-.21-.81a25.61,25.61,0,0,0-4.81,1,12.14,12.14,0,0,0-.63-1.82c.48-.12.88-.58,1.46-1.3.23-.29.69-.88,1.23-1.71a7.07,7.07,0,0,0-2.17.42c-.12-.38-.4-1.3-.63-1.82.36-.1.67-.46,1-1a23.35,23.35,0,0,0,2.19-4.68l1.82.77a29.52,29.52,0,0,1-2.51,4.68l1.34-.1c.48-.86,1-1.78,1.36-2.7l1.65,1.07a35,35,0,0,1-3.89,6l2.09-.29c-.15-.46-.31-.92-.46-1.3l1.46-.56A32.36,32.36,0,0,1,191,313.4V303.22h10.22Zm-13.27-3.2a35.32,35.32,0,0,1,.5,4l-1.59.42a39.79,39.79,0,0,0-.4-4Zm1.92-.56a25.69,25.69,0,0,1,1.09,3.59l-1.48.58a30.44,30.44,0,0,0-1-3.68Zm7.67.94a5.35,5.35,0,0,0,1.11-.11c0,.46.08,1.11.13,1.53a3.67,3.67,0,0,1-1.19.12H196c-1.63,0-2-.61-2-2.15v-1.13h-.56v-1.71h1.94c-.13-.4-.33-.88-.48-1.25l1.15-.36h-2.71v-1.71h1a10.05,10.05,0,0,0-.71-2.49l1.29-.42a10.5,10.5,0,0,1,.83,2.53l-1.11.38h1.69a23,23,0,0,0,.67-2.88l1.54.4c-.27.82-.54,1.75-.77,2.47h1v1.71h-2.24a8.18,8.18,0,0,1,.58,1.32l-.77.29h2.34v1.71h-2.88v1.15c0,.42.06.59.37.59Z"/><path class="cls-4" d="M212.41,314.8l.23,2.11c-2.47.61-5.12,1.23-7.14,1.69l-.5-2.26c1.07-.17,2.46-.46,4-.77a62.37,62.37,0,0,0,1.07-7.17l2.09.35c-.36,2.09-.84,4.58-1.32,6.41Zm-3.45-9h3.87v2.09h-7.67v-2.09h3.24a15.59,15.59,0,0,0-1.09-2.7l1.94-.56a12.73,12.73,0,0,1,1.27,2.74Zm-1.42,2.78a54.27,54.27,0,0,1,.86,6.31l-1.86.38a54.75,54.75,0,0,0-.75-6.39Zm10.72-.44v3.3h3.8v8.84h-2.34v-.84h-4.55v.92H213v-8.92h3v-9h2.34v3.53h4.45v2.17Zm1.46,5.43h-4.55v3.74h4.55Z"/><path class="cls-4" d="M243.61,317.08v2.3H226.17v-2.3H233V302.64h2.46v5.49h6.77v2.32h-6.77v6.64Z"/><path class="cls-4" d="M261.64,315.8h-3l1.9.4c-.31.65-.63,1.27-.92,1.8h4.87v1.94h-16.9V318h4.7a9.29,9.29,0,0,0-.79-1.73l1.51-.48h-2.8v-5a15.24,15.24,0,0,1-2,1.17,9.7,9.7,0,0,0-1.4-1.69,12.37,12.37,0,0,0,3.26-2.05,13.17,13.17,0,0,0-2-1.61l1.23-1.27a11.43,11.43,0,0,1,2.15,1.55,11.62,11.62,0,0,0,1.46-2h-4.58V303.1h5.68l.38-.1,1.51.77a13.64,13.64,0,0,1-2.07,3.74h4.6a18.63,18.63,0,0,1-2.53-4.43l2-.61a14.37,14.37,0,0,0,1,2,14.06,14.06,0,0,0,2-1.84l1.73,1.23c-.84.71-1.84,1.46-2.67,2.05.27.35.56.65.86,1a16.69,16.69,0,0,0,2.22-2l1.67,1.19c-.81.71-1.76,1.44-2.59,2a12.3,12.3,0,0,0,3.26,1.9,8.76,8.76,0,0,0-1.55,1.92,13.14,13.14,0,0,1-2.09-1.19Zm-8.9-7.12a14.5,14.5,0,0,1-2.11,1.82h10.78a15.92,15.92,0,0,1-2-1.76v.67h-6.66Zm6.44,3.63h-6.67V314h6.67Zm-1.88,5.7a17.1,17.1,0,0,0,1-2.21h-4.66a7.87,7.87,0,0,1,.9,1.88l-1,.33Z"/><path class="cls-4" d="M284.78,319.06a41.8,41.8,0,0,0-3.24-2.74v1.86c0,1-.15,1.48-.79,1.8a5.33,5.33,0,0,1-2.49.35,6.3,6.3,0,0,0-.61-1.94c.63,0,1.3,0,1.5,0s.29-.06.29-.25v-1.75c-1.15,1-2.3,1.88-3.32,2.67l-1.17-1.61.08,1.07c-2.26.46-4.66.9-6.5,1.27l-.46-2.05,2.84-.38v-4.91h-2.55v-1.94h2.55v-1.4h-1.42v-.84c-.27.27-.56.52-.83.75a11,11,0,0,0-.69-2.24,13.46,13.46,0,0,0,3.55-4.45l1.71.63-.29.58c1.07,1,2.4,2.24,3.07,3L274.71,308c-.17-.21-.38-.48-.63-.75v1.82h-1.34v1.4H275v1.94h-2.22v4.64l2.17-.35,0,.58c1.13-.73,2.82-1.9,4.49-3.11v-2.84h-4.16v-2h6.08l.19-.86h-5.47c.5-1.59,1.17-4.14,1.55-6.12l2.13.21c-.1.42-.21.9-.33,1.38h3.17l.36-.08,1.55.21c-.23,1.65-.63,3.59-1,5.26h2.46v2h-4.41v2.67l.31.19a20.33,20.33,0,0,0,1.94-2.67l1.84,1c-.82.92-1.69,1.9-2.46,2.63a34.69,34.69,0,0,1,3,2.32Zm-15-6.08a28.24,28.24,0,0,1,.71,3.26l-1.55.44a26.48,26.48,0,0,0-.63-3.32Zm4.22-5.75c-.59-.65-1.3-1.4-2-2.09a19,19,0,0,1-1.54,2.09Zm-.83,8.88a29.32,29.32,0,0,0,.61-3.24l1.46.36c-.31,1.09-.63,2.4-.9,3.18Zm3.76-4.56A17.46,17.46,0,0,1,279,313.9L277.41,315a23,23,0,0,0-2-2.49Zm4.95-4.74.21-1.07H279l-.27,1.07Z"/><path class="cls-4" d="M293.43,313.19v4.47c0,1.06-.17,1.61-.75,2a4.73,4.73,0,0,1-2.65.44,7.49,7.49,0,0,0-.59-2.09c.71,0,1.36,0,1.59,0s.33-.08.33-.33V313.8l-1.76.5-.52-2.21c.65-.13,1.42-.35,2.28-.56v-3.4h-2.07V306h2.07v-3.62h2.07V306h1.92v2.11h-1.92V311l1.73-.46.31,2.05Zm8.73,4.83c.44,0,.86.06,1.34.06.65,0,3,0,3.86,0a6.74,6.74,0,0,0-.61,2h-3.34c-2.51,0-4.45-.46-5.75-2.78a8.47,8.47,0,0,1-2,3,11.66,11.66,0,0,0-1.67-1.36c1.59-1.27,2.38-3.4,2.67-6l2.07.25a17.42,17.42,0,0,1-.37,1.94,4.31,4.31,0,0,0,1.67,2.24v-5h-4.51V310.5h11.33v1.84h-4.68V314h3.66v1.78h-3.66Zm3.72-8.4h-9.44V303h9.44Zm-2.19-5h-5.16v1h5.16Zm0,2.44h-5.16v1h5.16Z"/><path class="cls-4" d="M328,316h-4.43a27.53,27.53,0,0,1,4.32,2.61l-1.78,1.59a27.4,27.4,0,0,0-4.83-3.11l1.3-1.09h-2.21v4.3h-2.28V316h-3.22l2.24.75a13.92,13.92,0,0,1-4.62,3.22,16.7,16.7,0,0,0-1.92-1.52,10.35,10.35,0,0,0,4.22-2.46h-4.18v-1.88h7.48v-1.32h2.28v1.32H328Zm-2.36-2.34a41.56,41.56,0,0,0-5.45-1.65,28,28,0,0,1-8.78,1.5,6.24,6.24,0,0,0-.79-1.88,40.19,40.19,0,0,0,5.64-.48c-1.07-.21-2.15-.4-3.28-.58A20.26,20.26,0,0,0,314.6,309h-3.82v-1.78h5.39a20,20,0,0,0,1.21-1.67h-4.16v1.06h-2.11V303.7h6.81q-.2-.43-.4-.81l2.42-.48a13,13,0,0,1,.75,1.29h6.85v2.93h-2.21v-1.06h-7l1.38.42c-.31.4-.61.82-1,1.25h3.7a10.69,10.69,0,0,0,.46-1.17l2.22.44c-.08.25-.17.5-.27.73h3V309H323.9a7.18,7.18,0,0,1-1.46,1.65c2.07.5,4,1,5.39,1.53ZM317,309a5.62,5.62,0,0,1-.48.48c1.05.17,2.13.38,3.15.59a6.49,6.49,0,0,0,1.48-1.07Z"/><path class="cls-4" d="M338.18,314c1.5-.48,2.36-1.3,2.47-2.32a.73.73,0,0,1-.21,0,1.7,1.7,0,0,1-1.82-1.71,1.75,1.75,0,0,1,1.88-1.73c1.36,0,2.07,1,2.07,2.63a4.81,4.81,0,0,1-3.78,4.64Z"/><path class="cls-4" d="M180,338.18v2.11h-16.9v-2.11h7.71V336h-4.18a13.44,13.44,0,0,1-1.57,2.17,13.15,13.15,0,0,0-2.09-1.21,13.73,13.73,0,0,0,3.26-5.49l2.28.58a17,17,0,0,1-.75,1.86h3v-2.49h2.42v2.49h5.6V336h-5.6v2.21Zm-14.69,3.47h12.85v7.69h-2.46v-.88h-8.06v.94h-2.34Zm2.34,2.11v2.59h8.06v-2.59Z"/><path class="cls-4" d="M190.91,336.38h-7.17v-1.8h3a19.17,19.17,0,0,0-1-2.61l1.94-.56A18.93,18.93,0,0,1,188.8,334l-1.75.58h3.85ZM184.5,339v-1.73h5.62V339Zm5.66,2.57H184.5v-1.73h5.66Zm8.29-.36c1.13,1,2.53,2.19,3.24,2.93l-1.3,1.67c-.46-.52-1.17-1.23-1.94-2v5.49h-2.17v-9.78H194v.15c0,2.92-.31,7.12-2.17,9.65a8.86,8.86,0,0,0-1.71-1.36v.31h-3.64v.81h-1.94v-6.62h5.58v5.24c1.5-2.28,1.63-5.52,1.63-8v-6.37a36.13,36.13,0,0,0,7.15-1.82l2,1.65a40.86,40.86,0,0,1-6.9,1.73v2.55h7.37v2.13h-3Zm-10.13,3.11h-1.8v2.15h1.8Z"/><path class="cls-4" d="M215.54,338.91c1.27,3.74,3.59,6.75,7.17,8.21a9.21,9.21,0,0,0-1.69,2.15c-3.47-1.63-5.7-4.43-7.19-8.13a13.2,13.2,0,0,1-7.17,8.15,6.79,6.79,0,0,0-1.71-1.94,11.5,11.5,0,0,0,7-8.44h-6.6v-2.36h7c.19-1.8.17-3.55.19-5.12H215c0,1.57,0,3.34-.23,5.12h7.54v2.36Z"/><path class="cls-4" d="M242,339.79c-.77.59-1.63,1.21-2.47,1.78a8,8,0,0,0,4.49,5,8.27,8.27,0,0,0-1.52,1.86,9.59,9.59,0,0,1-4.76-5.75c-.19.13-.4.25-.59.36.54,2.3.08,4.51-.9,5.31a2.83,2.83,0,0,1-2.28.9c-.42,0-1,0-1.55,0a5.14,5.14,0,0,0-.61-2.17,15.48,15.48,0,0,0,1.73.1,1,1,0,0,0,1-.46,2.8,2.8,0,0,0,.56-1.94,30.27,30.27,0,0,1-7.75,3.68,9.15,9.15,0,0,0-1.19-1.9,22.44,22.44,0,0,0,8.61-3.91,7.25,7.25,0,0,0-.29-.73,32,32,0,0,1-6.9,3.13,9.87,9.87,0,0,0-1.13-1.76,24.14,24.14,0,0,0,7.17-2.82c-.17-.21-.34-.42-.54-.63a25.57,25.57,0,0,1-5.33,2,10.53,10.53,0,0,0-1.17-1.78,23.17,23.17,0,0,0,6.18-2.11h-3.3v-1.94h10.72V338H236a9,9,0,0,1-1.15.88,7.41,7.41,0,0,1,1.69,2.32,25.54,25.54,0,0,0,3.63-2.9Zm-13.12-2.53h-2.24v-4.33h6.94a8.4,8.4,0,0,0-.46-1l2.42-.69a10,10,0,0,1,.82,1.71h6.83v4.33h-2.34V335h-12Z"/><path class="cls-4" d="M253.15,332.16a29.19,29.19,0,0,1-1.82,3.93v13.2h-2.19v-9.8a18.45,18.45,0,0,1-1.29,1.55,14.81,14.81,0,0,0-1.23-2.38,20.2,20.2,0,0,0,4.35-7.17Zm6.79,4.79v9.82c0,1.09-.19,1.73-.88,2.11a6,6,0,0,1-2.82.46,7.8,7.8,0,0,0-.79-2.3c.81,0,1.61,0,1.88,0s.35-.08.35-.33V337h-2.23a16.35,16.35,0,0,1-1.8,2.93,16,16,0,0,0-1.84-1.5,17,17,0,0,0,3.26-6.9l2.22.5a29.12,29.12,0,0,1-.9,2.86H263l.36-.08,1.61.31c-.23,1.55-.56,3.34-.82,4.45l-1.94-.33c.1-.59.21-1.4.31-2.24Zm-3.18,3.45a19.71,19.71,0,0,1-2.61,6.41,14.07,14.07,0,0,0-2-1.23,13.87,13.87,0,0,0,2.34-5.64Zm5.91-.65a23.7,23.7,0,0,1,2.09,6.25l-2.19.75a24.26,24.26,0,0,0-1.94-6.31Z"/><path class="cls-4" d="M271.62,339.14a11,11,0,0,1-2.17,2.78,8.13,8.13,0,0,0-1.46-1.57,11.44,11.44,0,0,0,3.26-4.28h-2.78v-1.94h3.15v-2.7h2.17v2.7h2.7v1.94h-2.7v.71a36.53,36.53,0,0,1,3,2.11l-1.19,1.82c-.44-.48-1.15-1.17-1.84-1.8v4h-2.17Zm-3.49,8.09a13.13,13.13,0,0,0,1.67-4l2,.81a18.77,18.77,0,0,1-1.61,4.18Zm11-.31c.9,0,1-.27,1.15-2.21a5.55,5.55,0,0,0,2.05.81c-.29,2.74-.92,3.41-3,3.41H275.8c-2.61,0-3.26-.63-3.26-2.63v-2.63h2.24v2.59c0,.58.19.65,1.23.65Zm-2.22-4.76.38.35V332.37H285v10.32h-7.6c.75.69,1.57,1.5,2,2l-1.65,1.38a28.6,28.6,0,0,0-2.53-2.67Zm2.46-6.89h3.53v-1.11h-3.53Zm0,2.8h3.53V337h-3.53Zm0,2.82h3.53v-1.15h-3.53Zm4.43,2.13c.77,1.19,1.88,2.82,2.4,3.82L284,347.94c-.46-1-1.52-2.7-2.26-4Z"/><path class="cls-4" d="M305.85,346.62c0,1.23-.27,1.84-1,2.19a8.9,8.9,0,0,1-3.68.4,8.58,8.58,0,0,0-.73-2.19c1.07.06,2.34,0,2.69,0s.5-.11.5-.46v-2.88h-4v5.35h-2.3v-5.35h-3.91a11,11,0,0,1-2.42,5.7,8.43,8.43,0,0,0-1.8-1.48c2.09-2.3,2.26-5.72,2.26-8.4V332.7h14.48Zm-8.61-5v-2.36h-3.61v.35c0,.61,0,1.3-.06,2Zm-3.61-6.71v2.23h3.61v-2.23Zm10,0h-4v2.23h4Zm0,6.71v-2.36h-4v2.36Z"/><path class="cls-4" d="M316.8,332.16a32.72,32.72,0,0,1-1.67,3.66v13.46h-2.24v-9.9a19.57,19.57,0,0,1-1.44,1.73,15.42,15.42,0,0,0-1.23-2.36,20.1,20.1,0,0,0,4.41-7.29ZM328.1,340h-4.72v9.34H321V340h-4.93v-2.24H321v-6h2.38v6h4.72Z"/><path class="cls-4" d="M335,334.81v3.3c0,3.13-.27,8.06-1.69,11.16a8.56,8.56,0,0,0-1.82-1.34c1.25-2.86,1.34-7,1.34-9.82v-5.27H340c-.1-.4-.21-.82-.31-1.15l2.3-.42a15,15,0,0,1,.52,1.57H349v2Zm2.17,4.39a3.94,3.94,0,0,1-1,3,4.88,4.88,0,0,0-1.09-.88,2.59,2.59,0,0,0,.84-2.15v-.75h1.25Zm8.75,5.27c1,1.13,2.38,2.74,3.11,3.72l-1.75.92c-.19-.29-.44-.63-.71-1-9,.65-10.09.67-10.8.9a18.12,18.12,0,0,0-.54-1.82,7.36,7.36,0,0,0,2.28-.84,20.63,20.63,0,0,0,2.17-1.09,13.63,13.63,0,0,0-3.24.36,14.43,14.43,0,0,0-.52-1.69,3.66,3.66,0,0,0,1.25-.48,17.13,17.13,0,0,0,3.22-2.15c-.42-.17-.52-.56-.52-1.23v-1.61H341v1.63c0,.29,0,.38.21.38a2.29,2.29,0,0,0,.61-.06c0,.19,0,.38,0,.59a2.41,2.41,0,0,0,.77-1.94v-.73h1.25v.79a3.58,3.58,0,0,1-1,2.82,4.25,4.25,0,0,0-1-.82l0,.19a2.22,2.22,0,0,1-.67.08h-.37l1.17.75a23.55,23.55,0,0,1-3,1.9l2.86-.13a24.4,24.4,0,0,0,2.55-1.8l1.69,1.13a39.55,39.55,0,0,1-6.18,3.66l5.39-.36c-.38-.44-.77-.9-1.09-1.3Zm-8.23-2.67v-4h-2.09v-1.71h2.09v-.88h1.71v.88h2.32v1.71h-2.32v4Zm6.83,0v-4h-2.3v-1.71h2.3v-.88h1.71v.88h2.72v1.71h-2.72v4Zm4-1.11a3.3,3.3,0,0,0,.75-.08c0,.29,0,.65.08,1a3,3,0,0,1-.79.08h-.67c-1,0-1.17-.44-1.17-1.4v-1.92H348v1.94c0,.31,0,.42.25.42Z"/><path class="cls-4" d="M359.72,336.4a25.38,25.38,0,0,1-2.05,2.93v10h-2.28v-7.5c-.54.52-1.05,1-1.57,1.42a22.34,22.34,0,0,0-1.55-2,18.7,18.7,0,0,0,5.27-5.73Zm-.71-4.09a25.75,25.75,0,0,1-5.27,5,13.32,13.32,0,0,0-1.27-1.86,17.06,17.06,0,0,0,4.33-4.09Zm11.28,7.63h-2.63v6.73c0,1.23-.23,1.86-1.07,2.21a10.59,10.59,0,0,1-3.74.38,9.44,9.44,0,0,0-.69-2.32c1.09.06,2.36.06,2.7,0s.48-.08.48-.36v-6.67h-5.66v-2.17h10.61Zm-.48-5.27h-9.32V332.5h9.32Z"/><path class="cls-4" d="M391.16,335.73s0,.75,0,1c-.17,7.84-.33,10.63-.94,11.51a2.14,2.14,0,0,1-1.52,1,12.9,12.9,0,0,1-2.38.08,5.35,5.35,0,0,0-.67-2.19c.84.08,1.57.1,1.94.1a.7.7,0,0,0,.65-.33c.4-.52.59-2.86.71-9.05h-1.73c-.25,5.14-1.13,9.09-4.35,11.64a7.51,7.51,0,0,0-1.34-1.52c-2.76.29-5.52.58-7.6.75l-.27-1.92,3.89-.27v-1.15h-3.38v-1.61h3.38V343h-3.3v-5.93h3.3v-.75h-3.78v-1.65h3.78v-.77c-1.11.08-2.21.13-3.24.15a7.12,7.12,0,0,0-.5-1.61,59.38,59.38,0,0,0,8.27-.94l1,1.71c-1,.21-2.21.38-3.45.52v.94h3.68v1.05h1.8c0-1.27,0-2.59,0-4h2.19c0,1.4,0,2.74,0,4ZM376,339.35h1.5v-.84H376Zm1.5,2.23v-.86H376v.86Zm2.07,4.76c1.09-.08,2.23-.17,3.34-.27,1.5-2.07,2-4.81,2.09-8.25H383.3v-1.5h-3.68v.75H383V343h-3.4v.75h3.47v1.61h-3.47Zm1.5-7v-.84h-1.5v.84Zm-1.5,1.36v.86h1.5v-.86Z"/><path class="cls-4" d="M411.92,332v17.26h-2.49v-1H397.9v1h-2.38V332Zm-2.49,14.12V334.38H397.9v11.78Zm-1.86-9.51v7.29h-7.83v-7.29Zm-2.3,2h-3.38V342h3.38Z"/><path class="cls-4" d="M424.09,339.43c-.12.13-.25.27-.36.38a6.59,6.59,0,0,0-1-.9v4.87h-1.9v-4.51c-.29.29-.59.58-.86.82-.15-.19-.44-.5-.73-.81-.06,3.09-.42,7.31-1.86,10.05a8.12,8.12,0,0,0-1.73-1.32c1.4-2.76,1.5-6.81,1.5-9.65v-5.62h7.31a7.13,7.13,0,0,0-.59-1.07l2-.58a10,10,0,0,1,1,1.65h6.66v1.86h-4a7.19,7.19,0,0,1,.84,1.32l-.5.21H433v1.32h-2.9v.67h2.4v1.11h-2.4V340h2.42v1.09h-2.42v.77h3.13v1.38h-7a13,13,0,0,1,2.86,1.78l-1.42,1.32a12.41,12.41,0,0,0-2.93-2l.58-.56h-1.3Zm-5.41,8.48a6.8,6.8,0,0,0,2-3.3l1.84.67a7.82,7.82,0,0,1-2.05,3.72Zm.58-9.8a12.36,12.36,0,0,0,2.67-3.49h-2.67Zm4.58-3.07a16.86,16.86,0,0,1-1.09,1.86V338a11.92,11.92,0,0,0,2.28-3.43H422.5Zm4.07,12.39c.52,0,.61-.17.69-1.4a6.57,6.57,0,0,0,1.8.73c-.21,2-.77,2.46-2.28,2.46h-2.44c-2.07,0-2.55-.56-2.55-2.28v-2.09h2.07v2.05c0,.48.12.54.77.54Zm.59-11.28a8.62,8.62,0,0,0-.71-1.13l1.11-.4h-3l1.11.31c-.17.42-.38.81-.59,1.23Zm-.25,1.32H426v.67h2.28Zm0,1.78H426V340h2.28Zm0,1.82H426v.77h2.28Zm3,3.32a15.19,15.19,0,0,1,2.53,3.66l-1.82.88a14.17,14.17,0,0,0-2.38-3.72Z"/><path class="cls-4" d="M443.08,332.16a29.06,29.06,0,0,1-1.82,3.93v13.2h-2.19v-9.8a18.45,18.45,0,0,1-1.29,1.55,14.74,14.74,0,0,0-1.23-2.38,20.2,20.2,0,0,0,4.35-7.17Zm6.79,4.79v9.82c0,1.09-.19,1.73-.88,2.11a6,6,0,0,1-2.82.46,7.8,7.8,0,0,0-.79-2.3c.81,0,1.61,0,1.88,0s.35-.08.35-.33V337h-2.23a16.35,16.35,0,0,1-1.8,2.93,16,16,0,0,0-1.84-1.5,17,17,0,0,0,3.26-6.9l2.22.5a29.12,29.12,0,0,1-.9,2.86h6.6l.36-.08,1.61.31c-.23,1.55-.56,3.34-.82,4.45l-1.94-.33c.1-.59.21-1.4.31-2.24Zm-3.18,3.45a19.71,19.71,0,0,1-2.61,6.41,14.07,14.07,0,0,0-2-1.23,13.87,13.87,0,0,0,2.34-5.64Zm5.91-.65a23.7,23.7,0,0,1,2.09,6.25l-2.19.75a24.26,24.26,0,0,0-1.94-6.31Z"/><path class="cls-4" d="M461.29,342.61a15.9,15.9,0,0,1-1.63,6.81A10.43,10.43,0,0,0,457.8,348c1.23-2.21,1.3-5.43,1.3-7.92v-6.92h0a32.73,32.73,0,0,0,6.5-1.36l1.46,1.94a31.44,31.44,0,0,1-5.72,1.13v1.36h4.93v6.41Zm.08-4.37v2.34h2.72v-2.34ZM476,340h-1.75v9.19H472V340h-2c-.08,3-.73,7-3.41,9.38a10.57,10.57,0,0,0-1.78-1.55c2.65-2.38,2.88-5.95,2.88-8.71v-6a31.32,31.32,0,0,0,6.6-1.52l1.48,2a31.46,31.46,0,0,1-5.74,1.27v2.92h6Z"/><path class="cls-4" d="M486.31,339.06c-.13.27-.29.52-.44.79h9v9.53h-2.3v-.69H485.6v.69h-2.19v-6.31a14.71,14.71,0,0,1-3,2.3,13.18,13.18,0,0,0-1.44-1.84,12.78,12.78,0,0,0,4.68-4.47h-4.08v-1.8h5c.13-.27.25-.56.37-.83H481v-1.73h4.68c.08-.27.15-.54.21-.82-1.59.06-3.18.08-4.68.06a5.89,5.89,0,0,0-.42-1.71,97.13,97.13,0,0,0,13.45-.77l1.34,1.63a64.68,64.68,0,0,1-7.17.69c-.08.31-.17.61-.27.92h7.52v1.73h-8.13c-.1.27-.21.56-.33.83h9.49v1.8Zm6.23,2.51H485.6v.82h6.94Zm0,2.24H485.6v.84h6.94Zm0,3.15v-.88H485.6V347Z"/><path class="cls-4" d="M515.27,347c.65,0,.77-.33.86-2.55a7.26,7.26,0,0,0,2.09.9c-.25,3-.84,3.82-2.74,3.82H513c-2.28,0-2.82-.69-2.82-2.84v-3.07h-2.32c-.4,3-1.53,5.06-6.27,6.14a7.22,7.22,0,0,0-1.27-2c3.93-.73,4.76-2,5.08-4.1H503V332h12.54v11.26h-3.13v3c0,.61.12.69.84.69Zm-10.05-11.81h8V334h-8Zm0,3h8V337h-8Zm0,3h8v-1.19h-8Z"/><path class="cls-4" d="M538.81,334.36s0,.77,0,1c-.25,8.57-.46,11.62-1.25,12.64a2.56,2.56,0,0,1-1.84,1.05,21.5,21.5,0,0,1-3,0,5.36,5.36,0,0,0-.75-2.23c1.23.12,2.36.12,2.86.12a1,1,0,0,0,.84-.33c.56-.61.81-3.49,1-10.26h-4.1a16.56,16.56,0,0,1-1.69,3,14.25,14.25,0,0,0-1.48-1.07v9h-5.12v1.4h-2.07V334.5h2.17a20.67,20.67,0,0,0,.56-3.09l2.49.35c-.33,1-.67,1.92-1,2.74h3v3.11a19.83,19.83,0,0,0,2.59-6.18l2.17.5a22.53,22.53,0,0,1-.75,2.44Zm-11.49,2.13h-3v3.11h3Zm0,8.84v-3.76h-3v3.76Zm6.37-1a40.92,40.92,0,0,0-2.67-4.43l1.78-1a46.31,46.31,0,0,1,2.82,4.26Z"/><path class="cls-4" d="M545.69,339.27v10.05h-2.26V332.14h7.33v7.14Zm0-5.39v1h2.93v-1Zm2.93,3.66v-1.09h-2.93v1.09Zm1.17,9.07v1.07h-2.13v-7.1h7.42v6Zm0-4.14v2.26H553v-2.26Zm9.8,4.12c0,1.27-.27,1.92-1.07,2.28a9.42,9.42,0,0,1-3.76.44A8.18,8.18,0,0,0,554,347c1.11.08,2.42.06,2.78,0s.5-.12.5-.46v-7.27h-5.2v-7.15h7.52Zm-5.35-12.74v1.05h3v-1.05Zm3,3.7v-1.11h-3v1.11Z"/><path class="cls-4" d="M569.3,346.72a15.27,15.27,0,0,0,4.26.42c1.3,0,6.54,0,8.11-.08a6.2,6.2,0,0,0-.73,1.88h-7.38c-3.61,0-6-.36-7.52-2.46a7.1,7.1,0,0,1-1.34,3,6.39,6.39,0,0,0-1.32-1.55c1.07-1.32,1.27-3.59,1.32-5.89h1.82c0,.71-.06,1.4-.12,2.09a5.16,5.16,0,0,0,1,1.52v-4.37h-3.55v-1.65h8.59v1.65H569.3v1.57h2.76v1.65H569.3Zm2.28-8.23H564.7v-6.33h6.89Zm-2.11-4.81h-2.74v.9h2.74Zm0,2.34h-2.74V337h2.74Zm6.89,8.27a11.26,11.26,0,0,1-3.36,2.8,13.79,13.79,0,0,0-1.46-1.32,8.76,8.76,0,0,0,3-2.07Zm-1-9.44c.12-.33.21-.69.33-1h-3.38v-1.59h8.78v1.59h-3.36l-.46,1h3.26v8.71h-7.63v-8.71Zm3.07,1.53H575v.88h3.49Zm0,2.36H575v.88h3.49Zm0,2.34H575V342h3.49Zm.29,2.49a14.27,14.27,0,0,1,2.8,2.42l-1.63,1a15.41,15.41,0,0,0-2.74-2.55Z"/><path class="cls-4" d="M590.66,346.08a1.76,1.76,0,1,1,1.75,1.84A1.76,1.76,0,0,1,590.66,346.08Zm.42-10.34-.1-2.67h2.84l-.1,2.67-.4,7.08h-1.84Z"/><path class="cls-4" d="M130.68,278.95h16.66v6.37h-9.65v24.74h-7Z"/><path class="cls-4" d="M643.69,361.87H627V355.5h9.65V330.75h7Z"/></svg>