<svg id="圖層_1" data-name="圖層 1" xmlns="http://www.w3.org/2000/svg" viewBox="0 0 726.15 473.98"><defs><style>.cls-1,.cls-2,.cls-3{fill:#00364b;stroke:#4eb5ff;stroke-miterlimit:10;}.cls-1{stroke-width:11.21px;}.cls-2{stroke-width:11.98px;}.cls-3{stroke-width:12.79px;}.cls-4{fill:#4eb5ff;}.cls-5{fill:#6bffba;}.cls-6{fill:#0f9bff;}</style></defs><title>Rethink Taiwan_Landing page animation 2展開+嵌入</title><rect class="cls-1" x="16.82" y="62.58" width="562.23" height="366.77"/><rect class="cls-2" x="38.22" y="50.09" width="600.51" height="391.74"/><rect class="cls-3" x="60.37" y="36.89" width="641" height="418.15"/><path class="cls-4" d="M593.28,179.21a4.89,4.89,0,0,0,5-4.51c0-2.36-2.2-4.3-4.94-4.3H580a4.15,4.15,0,0,1-4.22-4.93l2.55-16.24H538.41a6.27,6.27,0,0,0-5.88,5.6L529,175.62c-.6,3.53,1.55,5.63,3.91,5.63,2.69,0,4.42-1.82,4.85-4.53l2.25-13.32a5.77,5.77,0,0,1,5.26-4.93c2.47,0,3.68,2.22,3.22,4.92l-10.94,63.72a6.16,6.16,0,0,1-5.84,4.92H525.7a6,6,0,0,0-5.77,4.93l-1.3,8.26a4.35,4.35,0,0,0,4.23,4.93c2.36,0,4.31-2,4.76-4.51a6,6,0,0,1,5.82-4.51H538a8.81,8.81,0,0,0,8.3-6.88L551.07,209a6.28,6.28,0,0,1,5.92-4.91h14.44a4.15,4.15,0,0,1,4.22,4.93l-5.53,35.23a5,5,0,0,0,5.05,5.91h8.92c2.75,0,5.52-1.27,5.52-4.64,0-1.58-1.26-3.93-5-3.93h0a4.15,4.15,0,0,1-4.22-4.93l5.48-34.92a5.93,5.93,0,0,0-6-7h-3.73a4.15,4.15,0,0,1-4.22-4.93l1.65-10.54Z"/><path class="cls-4" d="M566.82,123.67c1.66-2.19,3.95-1.94,5.09.56l6.6,14.46c1.14,2.5-.17,4.54-2.92,4.54H557c-2.75,0-3.64-1.79-2-4Z"/><path class="cls-4" d="M579.12,121.59a2.64,2.64,0,0,1-2.08-4.27l6.5-8.34a2.64,2.64,0,1,1,4.17,3.25l-6.5,8.34A2.64,2.64,0,0,1,579.12,121.59Z"/><path class="cls-4" d="M584.06,130.86a2.64,2.64,0,0,1-1.13-5l11-5.21a2.64,2.64,0,0,1,2.26,4.78l-11,5.21A2.63,2.63,0,0,1,584.06,130.86Z"/><path class="cls-4" d="M598.66,140.76H587.51a2.64,2.64,0,1,1,0-5.29h11.14a2.64,2.64,0,0,1,0,5.29Z"/><path class="cls-4" d="M161.41,204.8a105.68,105.68,0,0,1-11,14.45l23.89-1.42c-2.06-3-4.25-6-6.31-8.49l6.49-2.83c5.13,5.9,10.5,13.63,13.1,19L180.76,229c-.65-1.47-1.47-3.13-2.48-4.9-29.73,2.36-33.86,2.54-36.81,3.66-.41-1.42-1.59-5-2.42-6.9,1.53-.35,2.77-1.53,4.54-3.54a79.24,79.24,0,0,0,8.91-12.56H135.93v-7.08h22.95v-8.38H140.41v-7.08h18.46v-8.14h7.43v8.14h19v7.08h-19v8.38h23.24v7.08Z"/><path class="cls-4" d="M213.62,213.89H202.47v5.25H196.1V179.32h17.52Zm-11.15-28.14v21.71h4.72V185.75Zm36.69,36.1c3.13,0,3.72-1.36,4.19-7.43a17.25,17.25,0,0,0,6.31,2.71c-.89,8.26-3,11.21-9.85,11.21H227.48c-7.67,0-10.09-2.12-10.09-10.62v-40h29.79v32.39H240.4v-3.42H224.3v11.09c0,3.54.47,4.07,4,4.07ZM224.3,184.16v16.16H229V184.16Zm16.1,0h-5.07v16.16h5.07Z"/><path class="cls-4" d="M273.08,218.9a6.14,6.14,0,0,1,12.27,0c0,3.42-2.65,5.78-6.13,5.78S273.08,222.32,273.08,218.9Zm1-30.09-.24-8.79h10.79l-.29,8.79L282.28,209H276.2Z"/><path class="cls-4" d="M331.36,189.52a78.23,78.23,0,0,1-6.31,9v30.79h-7V206.28c-1.65,1.59-3.25,3.07-4.84,4.37a69.11,69.11,0,0,0-4.78-6.08,57.47,57.47,0,0,0,16.22-17.64ZM329.17,177A79.21,79.21,0,0,1,313,192.47a40.92,40.92,0,0,0-3.89-5.72,52.48,52.48,0,0,0,13.33-12.56Zm34.69,23.48h-8.08v20.71c0,3.78-.71,5.72-3.3,6.78s-6.25,1.18-11.5,1.18a29.08,29.08,0,0,0-2.12-7.14c3.36.18,7.26.18,8.32.12s1.47-.24,1.47-1.12V200.44h-17.4v-6.67h32.62Zm-1.47-16.22H333.72v-6.67h28.67Z"/><path class="cls-4" d="M422.14,187.46s-.06,2.3-.06,3.13c-.53,24.13-1,32.68-2.89,35.39a6.58,6.58,0,0,1-4.66,2.95,39.56,39.56,0,0,1-7.31.24,16.43,16.43,0,0,0-2.07-6.73c2.6.24,4.84.29,6,.29a2.14,2.14,0,0,0,2-1c1.24-1.59,1.83-8.79,2.18-27.84H410c-.77,15.81-3.48,28-13.39,35.81a23,23,0,0,0-4.13-4.66c-8.5.88-17,1.77-23.36,2.3l-.83-5.9c3.3-.24,7.43-.53,12-.83v-3.54H369.87v-5h10.38v-2.3H370.11V191.59h10.15v-2.3H368.63v-5.07h11.62v-2.36c-3.42.24-6.78.41-10,.47a21.83,21.83,0,0,0-1.53-5c8.73-.47,18.94-1.48,25.42-2.89l3.07,5.25c-3.13.65-6.78,1.18-10.62,1.59v2.89H398v3.24h5.54c.06-3.89.06-8,.06-12.33h6.73c0,4.31,0,8.44-.12,12.33Zm-46.48,11.15h4.6V196h-4.6Zm4.6,6.84V202.8h-4.6v2.65Zm6.37,14.63c3.36-.24,6.84-.53,10.26-.83,4.6-6.37,6-14.81,6.43-25.37H398v-4.6H386.63v2.3h10.44v18.23H386.63v2.3H397.3v5H386.63Zm4.6-21.47V196h-4.6v2.6Zm-4.6,4.19v2.65h4.6V202.8Z"/><path class="cls-4" d="M149.16,131.34H154l2.89,20.36h-4.61l-.43-4.19h-7.5L142,151.7h-4.45Zm-3,12.67h5.17l-.84-8Z"/><path class="cls-4" d="M170.16,142a3,3,0,0,0-.25-1.52,1.89,1.89,0,0,0-1.86-.91,3.5,3.5,0,0,0-3.14,2,9.69,9.69,0,0,0-1,2.79,7.59,7.59,0,0,0-.18,2.67,2,2,0,0,0,2.25,1.88,2.85,2.85,0,0,0,2.12-.75,4.68,4.68,0,0,0,1.11-1.93h4a8.29,8.29,0,0,1-2,3.4,7.9,7.9,0,0,1-6,2.58q-3.63,0-4.88-2.15a7.73,7.73,0,0,1-.52-5.59,11,11,0,0,1,3.17-6,8.12,8.12,0,0,1,5.68-2.15,6.67,6.67,0,0,1,4.37,1.27q1.53,1.27,1.17,4.49Z"/><path class="cls-4" d="M175.88,139.58l.59-2.8h2.1l.9-4.2h3.9l-.9,4.2h2.45l-.59,2.8h-2.45l-1.7,8q-.19.93,0,1.15c.13.15.59.23,1.39.23h.38l.41,0-.64,2.94-1.88.07q-2.8.1-3.61-1a2.57,2.57,0,0,1-.22-2.09l2-9.27Z"/><path class="cls-4" d="M187.52,136.64h4l-3.19,15.06h-4Zm4.38-1.79h-4l.77-3.63h4Z"/><path class="cls-4" d="M198.78,152.22q-3.88,0-5.28-2.35a7.64,7.64,0,0,1-.7-5.67,11,11,0,0,1,3.11-5.65,8.57,8.57,0,0,1,6.3-2.39q3.88,0,5.28,2.39a7.7,7.7,0,0,1,.7,5.65,10.94,10.94,0,0,1-3.11,5.67A8.62,8.62,0,0,1,198.78,152.22Zm5.28-8a5.11,5.11,0,0,0-.19-3.49,2.49,2.49,0,0,0-2.4-1.22,3.9,3.9,0,0,0-2.91,1.22,7,7,0,0,0-1.67,3.49,5.13,5.13,0,0,0,.19,3.49,2.49,2.49,0,0,0,2.4,1.23,3.89,3.89,0,0,0,2.92-1.23A7,7,0,0,0,204.05,144.2Z"/><path class="cls-4" d="M225.21,141.56l-2.16,10.14h-4l1.93-9.16a3.8,3.8,0,0,0,.07-1.82q-.33-1.16-2-1.16a3.51,3.51,0,0,0-3.11,1.7,6.74,6.74,0,0,0-.87,2.29l-1.73,8.15h-3.92l3.19-15h3.8l-.47,2.2a9.13,9.13,0,0,1,1.8-1.67,5.89,5.89,0,0,1,3.27-.91,4.82,4.82,0,0,1,3.56,1.22Q225.81,138.73,225.21,141.56Z"/><path class="cls-4" d="M238.07,136.56l.62-2.94a20.21,20.21,0,0,0,2.92-.27A5.18,5.18,0,0,0,244,132.2a4.82,4.82,0,0,0,1.18-1.57,4,4,0,0,0,.36-.88h3.59l-4.66,21.95H240l3.21-15.14Z"/><path class="cls-4" d="M269.09,125.39v30.19H422.84V125.39Zm18.29,24.12H284l2.49-11.74h-4l.48-2.28a15.68,15.68,0,0,0,2.27-.21,4,4,0,0,0,1.83-.89,3.72,3.72,0,0,0,.92-1.22,3.14,3.14,0,0,0,.28-.68H291Zm18.54-8.35a15.88,15.88,0,0,1-2.7,6.49,6,6,0,0,1-5,2.28q-3.25,0-4.08-2.28t.08-6.49a15.83,15.83,0,0,1,2.69-6.51,6,6,0,0,1,5.05-2.29q3.25,0,4.07,2.29T305.93,141.16Zm4.17,8.35h-3.56l.74-3.5h3.56Zm16.46-11.65a6.74,6.74,0,0,1-1.83,3.36,15.38,15.38,0,0,1-2.9,2.17l-1.54,1q-1.44.89-2,1.29a5,5,0,0,0-1,.93h7.44l-.62,2.95H312.47a9.7,9.7,0,0,1,1.49-3.35,12.94,12.94,0,0,1,4.14-3.6,33.82,33.82,0,0,0,3.5-2.37,4.5,4.5,0,0,0,1.56-2.44,2.36,2.36,0,0,0-.21-1.8,1.7,1.7,0,0,0-1.56-.72,2.66,2.66,0,0,0-2.33,1.14,6.58,6.58,0,0,0-.81,2.09H315a9.9,9.9,0,0,1,1.53-3.51,6.2,6.2,0,0,1,5.29-2.55,5,5,0,0,1,4,1.5A4.38,4.38,0,0,1,326.56,137.86Zm13.59,6.53h-6.74l.68-3.17h6.74Zm15.42,5.12h-3.43l2.49-11.74h-4l.48-2.28a15.74,15.74,0,0,0,2.27-.21,4,4,0,0,0,1.83-.89,3.78,3.78,0,0,0,.92-1.22,3.1,3.1,0,0,0,.28-.68h2.78Zm18.54-8.35a15.88,15.88,0,0,1-2.7,6.49,6,6,0,0,1-5,2.28q-3.25,0-4.08-2.28t.08-6.49a15.83,15.83,0,0,1,2.69-6.51,6,6,0,0,1,5.05-2.29q3.25,0,4.07,2.29T374.11,141.16Zm4.17,8.35h-3.56l.74-3.5H379Zm14,0H380.65a9.7,9.7,0,0,1,1.49-3.35,12.94,12.94,0,0,1,4.14-3.6,33.82,33.82,0,0,0,3.5-2.37,4.5,4.5,0,0,0,1.56-2.44,2.36,2.36,0,0,0-.21-1.8,1.7,1.7,0,0,0-1.56-.72,2.66,2.66,0,0,0-2.33,1.14,6.58,6.58,0,0,0-.81,2.09h-3.25a9.9,9.9,0,0,1,1.53-3.51A6.2,6.2,0,0,1,390,132.4a5,5,0,0,1,4,1.5,4.38,4.38,0,0,1,.75,4,6.74,6.74,0,0,1-1.83,3.36,15.38,15.38,0,0,1-2.9,2.17l-1.54,1q-1.44.89-2,1.29a5,5,0,0,0-1,.93h7.44Zm15.81-11.65a6.73,6.73,0,0,1-1.83,3.36,15.42,15.42,0,0,1-2.9,2.17l-1.54,1q-1.44.89-2,1.29a4.94,4.94,0,0,0-1,.93h7.43l-.62,2.95H394a9.7,9.7,0,0,1,1.49-3.35,13,13,0,0,1,4.15-3.6,33.82,33.82,0,0,0,3.5-2.37,4.51,4.51,0,0,0,1.56-2.44,2.36,2.36,0,0,0-.21-1.8,1.69,1.69,0,0,0-1.56-.72,2.66,2.66,0,0,0-2.32,1.14,6.49,6.49,0,0,0-.81,2.09h-3.25a9.93,9.93,0,0,1,1.53-3.51,6.2,6.2,0,0,1,5.3-2.55,5,5,0,0,1,4,1.5A4.38,4.38,0,0,1,408.12,137.86Z"/><path class="cls-4" d="M301.34,135.12A2.5,2.5,0,0,0,299,136.6a17.86,17.86,0,0,0-1.44,4.56,15.71,15.71,0,0,0-.48,4.49,1.51,1.51,0,0,0,1.64,1.56,2.48,2.48,0,0,0,2.29-1.56,19.27,19.27,0,0,0,1.43-4.49,16.6,16.6,0,0,0,.5-4.56A1.47,1.47,0,0,0,301.34,135.12Z"/><path class="cls-4" d="M369.52,135.12a2.5,2.5,0,0,0-2.29,1.48,17.86,17.86,0,0,0-1.44,4.56,15.71,15.71,0,0,0-.48,4.49,1.51,1.51,0,0,0,1.64,1.56,2.48,2.48,0,0,0,2.29-1.56,19.27,19.27,0,0,0,1.43-4.49,16.6,16.6,0,0,0,.5-4.56A1.47,1.47,0,0,0,369.52,135.12Z"/><path class="cls-5" d="M576.78,409.27a28.76,28.76,0,0,1-6.6,5.2v7.88c0,1.09-.29,1.63-1.11,1.88a13.58,13.58,0,0,1-4,.31,6,6,0,0,0-.71-1.8c1.5.06,3,.06,3.43,0s.56-.12.56-.46v-8.75a23.27,23.27,0,0,0,4.89-3.47H561.49v-1.76H575l.4-.1Z"/><path class="cls-5" d="M594.29,409.34a6.05,6.05,0,0,1-3.62,5.06,4.9,4.9,0,0,0-.84-1.11v9.38c0,.77-.15,1.27-.67,1.54a6.61,6.61,0,0,1-2.55.27A5.66,5.66,0,0,0,586,423l2,0c.25,0,.34-.1.34-.34v-3.13h-4.26a11.32,11.32,0,0,1-1.48,5,7,7,0,0,0-1.27-.79c1.29-2,1.42-4.83,1.42-7v-3l-.17.21a12,12,0,0,0-1.3-1.05,13.85,13.85,0,0,0,2.9-6l1.63.36c-.13.46-.27.92-.42,1.38h2l.25-.08,1,.65a24.59,24.59,0,0,1-1.15,2.53h2.28v1.38a4.65,4.65,0,0,0,2.82-3.78h-2.38v-1.48h8.34s0,.42,0,.61c-.13,3.11-.31,4.39-.71,4.85a1.44,1.44,0,0,1-1.09.54,12.36,12.36,0,0,1-1.94,0,4.33,4.33,0,0,0-.4-1.48,13.77,13.77,0,0,0,1.55.08.51.51,0,0,0,.52-.17c.21-.23.35-1,.44-3Zm-9.44.67c-.25.59-.52,1.19-.81,1.73h2a16.2,16.2,0,0,0,.71-1.73Zm-.65,6.77c0,.44,0,.9,0,1.38h1.48v-1.94H584.2Zm0-1.88h1.46v-1.82H584.2Zm2.7,0h1.44v-1.82h-1.44Zm1.44,3.26v-1.94h-1.44v1.94ZM599.12,421h-3.49v3.38h-1.69V421h-3.8v-1.55h3.8v-2.07h-1.88a9.44,9.44,0,0,1-.9,1.71,8.09,8.09,0,0,0-1.34-.71,10.88,10.88,0,0,0,1.65-4.22l1.48.31q-.14.69-.35,1.38h1.34V414h1.69v1.84h3.13v1.53h-3.13v2.07h3.49Z"/><path class="cls-5" d="M612.19,418.42a5.93,5.93,0,0,1-1.59,3c2.46,1,5.68,1.17,9.74,1.21a4.43,4.43,0,0,0-.75,1.76c-4.3-.15-7.79-.48-10.47-1.8a16.55,16.55,0,0,1-5.33,1.94A7.77,7.77,0,0,0,602.7,423a18,18,0,0,0,4.76-1.4,9.25,9.25,0,0,1-2.23-2.47l1.55-.61a7.76,7.76,0,0,0,2.15,2.11,4.51,4.51,0,0,0,1.36-2.17h-5.52v-7.56h5.81v-1.38h-7.5v-1.61h16.59v1.61h-7.23v1.38h6v7.56Zm-5.74-4.47h4.12v-1.63h-4.12Zm4.09,3a7.59,7.59,0,0,0,0-.94v-.69h-4.12V417Zm6.16-1.63h-4.26V416a7.28,7.28,0,0,1,0,.92h4.3Zm-4.26-3v1.63h4.26v-1.63Z"/><path class="cls-5" d="M641,416c-2.67,5.7-9.05,7.83-16,8.57a5.94,5.94,0,0,0-.71-1.73,30.74,30.74,0,0,0,8.65-1.84,24.22,24.22,0,0,0-2.4-2.13q-1.27.66-2.76,1.27a5.18,5.18,0,0,0-1.11-1.38,16.77,16.77,0,0,0,8-5.2l2,.44a16,16,0,0,1-1.21,1.36h4.1l.31-.08Zm-2.69-6.85c-2.44,4.32-7.94,6.77-13.1,7.81a7.32,7.32,0,0,0-.84-1.57,26.77,26.77,0,0,0,6.06-1.76,15.77,15.77,0,0,0-2.28-2c-.63.35-1.3.71-2,1a5.52,5.52,0,0,0-1.21-1.29,16.32,16.32,0,0,0,6.58-4.51l1.94.44a11.83,11.83,0,0,1-1.19,1.23h4.58l.31-.1Zm-7.9,1a9.73,9.73,0,0,1-.9.63,21,21,0,0,1,2.51,2.07,13.06,13.06,0,0,0,3.53-2.7Zm3.11,6.85c-.46.37-1,.71-1.5,1.06a23.41,23.41,0,0,1,2.57,2.19,10.8,10.8,0,0,0,3.74-3.24Z"/><path class="cls-5" d="M652.56,424.78v-18l15.61,9Z"/><path class="cls-4" d="M178.53,306.53c-.15,5-.17,11.64.48,11.87a11.71,11.71,0,0,0,.21-2.74,9,9,0,0,0,1.25,1.59c-.15,3.11-1.11,3.82-2.32,3.32-1.06-.42-1.5-2.53-1.69-5.37l-1.09,1.46a11.49,11.49,0,0,0-1.09-1.21,11.1,11.1,0,0,1-3.09,5.33,8.2,8.2,0,0,0-1.75-1.36,10.37,10.37,0,0,0,3-5.58c-.65-.56-1.36-1.07-2-1.53V314h-2.59v1.32H171v1.92h-3.13v3.47h-2.11v-3.47H162.4v-1.92h3.34V314H163v-1.92h1.29a12.79,12.79,0,0,0-.83-2.13l1-.36h-2v-1.92h3.24v-1.23H163v-1.88h2.65v-1.71h2.11v1.71h2.51v1.88h-2.51v1.23h3v1.92h-2.53L170,310c-.29.73-.58,1.44-.84,2.05h1.27v.06l1.13-1.46a13.71,13.71,0,0,1,1.23.82,27.05,27.05,0,0,0,.12-2.72v-.15h-1.84v-2.09h1.84v-3.64H175v3.64Zm-13.39,3a8.78,8.78,0,0,1,.88,2.15l-.88.35h2.21a20.64,20.64,0,0,0,.77-2.49Zm9.9-.77a32.67,32.67,0,0,1-.25,4.2,14.1,14.1,0,0,1,1.63,1.52c-.08-1.78-.08-3.82-.06-5.89H175Z"/><path class="cls-4" d="M190.48,307.84a25.38,25.38,0,0,1-2.05,2.93v10h-2.28v-7.5c-.54.52-1.05,1-1.57,1.42a22.34,22.34,0,0,0-1.55-2A18.7,18.7,0,0,0,188.3,307Zm-.71-4.09a25.75,25.75,0,0,1-5.27,5,13.32,13.32,0,0,0-1.27-1.86,17.06,17.06,0,0,0,4.33-4.09Zm11.28,7.63h-2.63v6.73c0,1.23-.23,1.86-1.07,2.21a10.59,10.59,0,0,1-3.74.38,9.44,9.44,0,0,0-.69-2.32c1.09.06,2.36.06,2.7,0s.48-.08.48-.36v-6.67h-5.66v-2.17h10.61Zm-.48-5.27h-9.32v-2.17h9.32Z"/><path class="cls-4" d="M222.17,305.75h-3.32a12.41,12.41,0,0,1,1.32,1.21l-1.38,1.21h1.57V313h-6.08v1.13h7s0,.56-.06.83c-.19,2.55-.42,3.8-.92,4.3a2,2,0,0,1-1.46.67,18.84,18.84,0,0,1-2.44,0,4.59,4.59,0,0,0-.63-2.07,16,16,0,0,0,2,.08.88.88,0,0,0,.65-.17,3.44,3.44,0,0,0,.46-1.76h-4.58v4.74H212V317a17.34,17.34,0,0,1-5.83,3.66,8.74,8.74,0,0,0-1.44-1.8,17,17,0,0,0,5.56-2.86h-4.12a41.68,41.68,0,0,0,.71-4.91H212V310h-5.83v-1.88h3.91a15.27,15.27,0,0,0-1.76-1.76l.73-.63H208a15.07,15.07,0,0,1-2,2.47,14.45,14.45,0,0,0-1.53-1.53,11,11,0,0,0,2.78-4l2,.58a6.83,6.83,0,0,1-.34.77h4.22v1.75H210.4a12,12,0,0,1,1.3,1.27l-1.23,1.13h8.09a14.78,14.78,0,0,0-1.86-1.71l.82-.71H216a10.11,10.11,0,0,1-1.5,1.86,10.68,10.68,0,0,0-1.71-1.32,8.65,8.65,0,0,0,2.4-3.61l2.07.52c-.1.27-.21.56-.33.82h5.27ZM212,313h-3.13c-.06.38-.1.77-.15,1.13H212Zm6.06-3h-3.82v1.09h3.82Z"/><path class="cls-4" d="M243.32,310.39v2.47H225.67v-2.47Z"/><path class="cls-4" d="M252.26,303.54a36.43,36.43,0,0,1-1.5,3.64v13.6H248.6V311a19.64,19.64,0,0,1-1.29,1.65,16.08,16.08,0,0,0-1.07-2.47,20.28,20.28,0,0,0,3.91-7.25Zm11.72.29v16.74h-2.17v-.94H254.6v1.11h-2.07V303.83Zm-2.17,13.83V305.8H254.6v11.85ZM259,309.81v1.65h1.84v5.14h-5.31v-5.14h1.71v-1.65h-2.21v-1.65h2.21v-2H259v2h2.32v1.65Zm.13,3.22h-2v2h2Z"/><path class="cls-4" d="M273.27,303.52a38.72,38.72,0,0,1-1.53,3.87v13.35h-2.09v-9.59a18.69,18.69,0,0,1-1.17,1.57,15.45,15.45,0,0,0-1.11-2.47,20.88,20.88,0,0,0,3.8-7.37Zm11.47,4.78a24,24,0,0,1-1.73,7.58,8.24,8.24,0,0,0,2.72,3,9.26,9.26,0,0,0-1.36,1.8,9.51,9.51,0,0,1-2.49-2.82,10.34,10.34,0,0,1-2.88,2.82,12.46,12.46,0,0,0-1.36-1.53,8.79,8.79,0,0,0,.77-.52h-3.66V320h-2v-8.5h1.92v-3.13H272.5v-2.05h2.21V303.1h2.15v3.22h2v2.05h-2v3.13h1.46c-.17-.25-.35-.48-.46-.63,1.32-1.9,2.05-4.91,2.46-8l2,.35c-.17,1.06-.36,2.15-.59,3.17h3.91v1.92Zm-8,5.14h-2v3.28h2Zm2,5a9.14,9.14,0,0,0,2.19-2.59,22.2,22.2,0,0,1-1.13-4.07,8.27,8.27,0,0,1-.67,1.06,5.52,5.52,0,0,0-.38-.67Zm2.49-10.11-.17.56a26.43,26.43,0,0,0,.9,4.45,26,26,0,0,0,.88-5Z"/><path class="cls-4" d="M295.16,307.91a20.3,20.3,0,0,1-1.67,2.42v10.42h-2.21v-8a17.84,17.84,0,0,1-1.73,1.55,16.88,16.88,0,0,0-1.09-2.36,17.22,17.22,0,0,0,4.7-4.93Zm-.33-4.16a20.33,20.33,0,0,1-5,4.81,14.13,14.13,0,0,0-1.13-1.94,13.68,13.68,0,0,0,4-3.76Zm11.66,12h-2.63v2.72c0,1.06-.19,1.59-.94,1.92a7.59,7.59,0,0,1-3,.33,8,8,0,0,0-.71-2c.81,0,1.71,0,2,0s.35-.1.35-.31v-2.67h-4a20.14,20.14,0,0,1,2.19,2.4L298,319.38a16.16,16.16,0,0,0-2.21-2.67l1.42-.94h-2.69v-1.94h7v-1.09H295v-1.86h11.11v1.86h-2.23v1.09h2.61Zm-1-5.73H296v-6.64h9.5Zm-2.3-5h-5v1h5Zm0,2.46h-5v1h5Z"/><path class="cls-4" d="M316.63,316.95c1.21-.21,2.46-.42,3.66-.61l.12,2c-3.36.65-7,1.3-9.59,1.76l-.5-2.11c1.15-.15,2.59-.38,4.14-.63V314.7H311v-2h3.49V311h2.17v1.71h3.45v2h-3.45Zm-6.12-13h10v2h-2.7a21.39,21.39,0,0,1,2.67,4.09l-1.73,1.13c-.12-.29-.27-.61-.44-1-5.29.44-6.12.54-6.67.77-.13-.46-.5-1.48-.73-2.07a1.88,1.88,0,0,0,.88-.81,15.29,15.29,0,0,0,1.19-2.15h-2.44Zm6.71,4.47c-.37-.56-.75-1.09-1.11-1.57l1.61-.94h-2.3a22.81,22.81,0,0,1-1.67,2.7Zm6.12,7.77h-2.11V304.63h2.11Zm3.78-13.16v14.85c0,1.21-.23,1.78-1,2.15a8.36,8.36,0,0,1-3.32.42,9.32,9.32,0,0,0-.77-2.19c1,0,2.05,0,2.38,0s.44-.12.44-.44V303.06Z"/><path class="cls-4" d="M348.47,305.8s0,.77,0,1c-.25,8.57-.46,11.62-1.25,12.64a2.56,2.56,0,0,1-1.84,1.05,21.5,21.5,0,0,1-3,0,5.36,5.36,0,0,0-.75-2.23c1.23.12,2.36.12,2.86.12a1,1,0,0,0,.84-.33c.56-.61.81-3.49,1-10.26h-4.1a16.56,16.56,0,0,1-1.69,3,14.25,14.25,0,0,0-1.48-1.07v9h-5.12v1.4h-2.07V305.94H334a20.67,20.67,0,0,0,.56-3.09l2.49.35c-.33,1-.67,1.92-1,2.74h3V309a19.83,19.83,0,0,0,2.59-6.18l2.17.5a22.53,22.53,0,0,1-.75,2.44ZM337,307.93h-3V311h3Zm0,8.84V313h-3v3.76Zm6.37-1a40.92,40.92,0,0,0-2.67-4.43l1.78-1a46.31,46.31,0,0,1,2.82,4.26Z"/><path class="cls-4" d="M359.31,307.84a25.38,25.38,0,0,1-2.05,2.93v10H355v-7.5c-.54.52-1.05,1-1.57,1.42a22.34,22.34,0,0,0-1.55-2,18.7,18.7,0,0,0,5.27-5.73Zm-.71-4.09a25.75,25.75,0,0,1-5.27,5,13.32,13.32,0,0,0-1.27-1.86,17.06,17.06,0,0,0,4.33-4.09Zm11.28,7.63h-2.63v6.73c0,1.23-.23,1.86-1.07,2.21a10.59,10.59,0,0,1-3.74.38,9.44,9.44,0,0,0-.69-2.32c1.09.06,2.36.06,2.7,0s.48-.08.48-.36v-6.67h-5.66v-2.17h10.61Zm-.48-5.27h-9.32v-2.17h9.32Z"/><path class="cls-4" d="M390.76,307.17s0,.75,0,1c-.17,7.84-.33,10.63-.94,11.51a2.14,2.14,0,0,1-1.52,1,12.9,12.9,0,0,1-2.38.08,5.35,5.35,0,0,0-.67-2.19c.84.08,1.57.1,1.94.1a.7.7,0,0,0,.65-.33c.4-.52.59-2.86.71-9.05h-1.73c-.25,5.14-1.13,9.09-4.35,11.64a7.51,7.51,0,0,0-1.34-1.52c-2.76.29-5.52.58-7.6.75l-.27-1.92,3.89-.27v-1.15h-3.38v-1.61h3.38v-.75h-3.3v-5.93h3.3v-.75h-3.78v-1.65h3.78v-.77c-1.11.08-2.21.13-3.24.15a7.12,7.12,0,0,0-.5-1.61,59.38,59.38,0,0,0,8.27-.94l1,1.71c-1,.21-2.21.38-3.45.52v.94h3.68v1.05h1.8c0-1.27,0-2.59,0-4h2.19c0,1.4,0,2.74,0,4Zm-15.11,3.63h1.5v-.84h-1.5Zm1.5,2.23v-.86h-1.5V313Zm2.07,4.76c1.09-.08,2.23-.17,3.34-.27,1.5-2.07,2-4.81,2.09-8.25h-1.75v-1.5h-3.68v.75h3.4v5.93h-3.4v.75h3.47v1.61h-3.47Zm1.5-7v-.84h-1.5v.84Zm-1.5,1.36V313h1.5v-.86Z"/><path class="cls-4" d="M401.08,314.47c1.5-.48,2.36-1.3,2.47-2.32a.73.73,0,0,1-.21,0,1.7,1.7,0,0,1-1.82-1.71,1.75,1.75,0,0,1,1.88-1.73c1.36,0,2.07,1,2.07,2.63a4.81,4.81,0,0,1-3.78,4.64Z"/><path class="cls-4" d="M421.46,307.7A25.67,25.67,0,0,1,420,310V320.8h-2.13v-8.21a17,17,0,0,1-1.5,1.42,13.87,13.87,0,0,0-1.19-2.13,16.09,16.09,0,0,0,4.28-4.93Zm-.33-4a23.6,23.6,0,0,1-4.58,4.68,17.6,17.6,0,0,0-1.19-1.67,16,16,0,0,0,3.76-3.8Zm7.4,14.73a9,9,0,0,0,1.46.1c.54,0,2.65,0,3.38,0a6.76,6.76,0,0,0-.63,2.05H429.8c-2.61,0-4.64-.63-6-3a8.49,8.49,0,0,1-2,3.2,10,10,0,0,0-1.73-1.46c1.8-1.53,2.46-4.16,2.63-7.37l2.21.17a27,27,0,0,1-.33,2.69,5.51,5.51,0,0,0,1.9,2.82v-7h.69a13.63,13.63,0,0,0-1.23-.86c1.86-1.44,2.88-3.91,3.26-6.89l2.13.25a19.18,19.18,0,0,1-.73,3.2,25.52,25.52,0,0,1,3,3.07L432,310.91a20.43,20.43,0,0,0-2.26-2.61,10.16,10.16,0,0,1-1.59,2.32h.4v2.7h3.7v1.92h-3.7Zm-2.28-9.19a15,15,0,0,0-1.53-1.36,11.17,11.17,0,0,1-2.32,3.3,10.36,10.36,0,0,0-1.61-1.55c1.71-1.48,2.74-4,3.22-6.71l2.17.33a20.6,20.6,0,0,1-.73,2.8,17.49,17.49,0,0,1,1.82,1.42Z"/><path class="cls-4" d="M453.42,306.17v9.57H451v-1h-4.33v6h-2.42v-6H440v1.05h-2.3v-9.67h6.62v-3.32h2.42v3.32Zm-9.15,6.37v-4.12H440v4.12Zm6.75,0v-4.12h-4.33v4.12Z"/><path class="cls-4" d="M467.67,314.76a6.3,6.3,0,0,1-1.4,2.67c2.49.82,5.64.9,9.53.88a5.54,5.54,0,0,0-1,2.26c-4.16-.1-7.69-.38-10.43-1.59a17.31,17.31,0,0,1-5.2,1.8,10.58,10.58,0,0,0-1.38-2,18.59,18.59,0,0,0,4.33-1.13,9.24,9.24,0,0,1-2-2.15l1.75-.71h-2v-7.88h5.68v-1.13h-7.35v-2H475v2H468v1.13h5.87v7.88ZM462,309.95h3.53v-1.23H462Zm0,3h3.51c0-.21,0-.42,0-.63v-.61H462Zm.19,1.86a7.26,7.26,0,0,0,1.86,1.67,4.2,4.2,0,0,0,1.11-1.67Zm9.34-3.11H468v.63c0,.19,0,.4,0,.61h3.63ZM468,308.72v1.23h3.61v-1.23Z"/><path class="cls-4" d="M481.83,312.23a22.37,22.37,0,0,0-3.18-2.3l1.34-1.55a21.45,21.45,0,0,1,3.24,2.11Zm2.09,2.07c-.84,2-1.84,4.2-2.82,6l-2-1.4a54.48,54.48,0,0,0,3.07-6Zm-1.15-7.14a22.18,22.18,0,0,0-3.13-2.4l1.4-1.52a21.58,21.58,0,0,1,3.2,2.17Zm9.71,7.19a12.91,12.91,0,0,0,4.24,3.47,9,9,0,0,0-1.55,1.76,14.14,14.14,0,0,1-4-3.82v5h-2.24v-4.91a12.4,12.4,0,0,1-4.35,3.84,9.69,9.69,0,0,0-1.51-1.8,10.78,10.78,0,0,0,4.47-3.53h-3.36v-2h4.76v-1.9h2.24v1.9h4.91v2Zm-2.78-8.17c-.19,2.74-.92,4.26-4.93,5a5.51,5.51,0,0,0-1.09-1.76c3.38-.46,3.82-1.3,4-3.24Zm-3.2,1.46h-2.07v-3.91h11.64v3.8h-2.19v-1.86h-7.38Zm8.61,1.19a5.35,5.35,0,0,0,1.27-.13c0,.54.1,1.4.17,1.9a4.94,4.94,0,0,1-1.4.13h-1.88c-2,0-2.47-.65-2.47-2.53v-2h2v2c0,.44.08.61.42.61Z"/><path class="cls-4" d="M510.3,303.92c0,3.63.52,10.63,7.58,14.79a12.29,12.29,0,0,0-1.84,2,16.21,16.21,0,0,1-7.06-9.46c-1.44,4.3-3.74,7.48-7.08,9.48a18.18,18.18,0,0,0-2.09-1.86c4-2,6.27-5.72,7.33-10.76l1.17.21c-.13-.73-.21-1.42-.27-2.07h-4.37v-2.32Z"/><path class="cls-4" d="M534,315.34v3.22c0,1-.15,1.52-.81,1.86a5.36,5.36,0,0,1-2.55.36,6.6,6.6,0,0,0-.67-2.05c.67,0,1.38,0,1.59,0s.29-.08.29-.25v-3.16h-3.2v-4a7.59,7.59,0,0,1-.84.52,9.15,9.15,0,0,0-.77-1.21v7h-3.43v1.55h-2V303.83H527v6a7.86,7.86,0,0,0,1.4-1,11.27,11.27,0,0,0-1.17-1.17l1.3-1a7.88,7.88,0,0,1,1,.92,7.62,7.62,0,0,0,.77-1.11h-2.92v-1.8h3.7a13.81,13.81,0,0,0,.5-1.9l2,.29q-.17.83-.4,1.61h5.31v1.8h-3.22a7.74,7.74,0,0,0,.94,1.3,13.09,13.09,0,0,0,.9-1.19l1.51.88a15.11,15.11,0,0,1-1.36,1.36,7.85,7.85,0,0,0,1.88,1.21,7.17,7.17,0,0,0-1.42,1.71,4.65,4.65,0,0,1-.65-.4v3.89Zm-10.4-9.51v2H525v-2Zm0,5.89H525v-2h-1.42Zm1.42,3.91v-2h-1.42v2Zm5.77.77a11.54,11.54,0,0,1-2.86,3.89,14.15,14.15,0,0,0-1.69-1.25,8.41,8.41,0,0,0,2.51-3.16Zm4.28-5.81H530.6v.88H535Zm-4.43,3.2H535v-.88H530.6Zm2-7.21a12.43,12.43,0,0,1-1.48,2.46h3.55a13.13,13.13,0,0,1-1.46-2.46Zm3.89,9.23a15,15,0,0,1,2.51,3.34l-1.76,1a17.58,17.58,0,0,0-2.44-3.49Z"/><path class="cls-4" d="M560,317.52h-3.26v3.16H554.6v-3.16h-3.55v-2h3.55v-1.73H553a8.19,8.19,0,0,1-.77,1.48,10.69,10.69,0,0,0-1.5-.81v4c0,.9-.15,1.48-.73,1.8a5.4,5.4,0,0,1-2.55.38,6.08,6.08,0,0,0-.65-1.94c.77,0,1.52,0,1.75,0s.33-.08.33-.33v-2.76h-3.82a11.94,11.94,0,0,1-1.52,5,7.88,7.88,0,0,0-1.57-1c1.29-2,1.38-4.83,1.38-7V310a12.36,12.36,0,0,0-1.5-1.23,13.41,13.41,0,0,0,2.84-5.89l2,.42c-.12.46-.25.92-.4,1.36h1.75l.29-.1,1.3.81a21.63,21.63,0,0,1-1.05,2.42h2.15v1.17a4,4,0,0,0,2.44-3.24H551v-1.86h8.52s0,.48,0,.73c-.1,3-.25,4.37-.67,4.87a1.71,1.71,0,0,1-1.17.63,14.19,14.19,0,0,1-1.94.06,4.54,4.54,0,0,0-.52-1.84c.59.06,1.11.08,1.38.08a.57.57,0,0,0,.52-.21,6,6,0,0,0,.35-2.46h-2.22a5.84,5.84,0,0,1-3,4.66l1.71.35c-.08.4-.15.82-.27,1.23h.94V310.2h2.17v1.73h2.88v1.92h-2.88v1.73H560Zm-14.35-11.16c-.21.48-.42,1-.65,1.4h1.65c.19-.42.36-.92.54-1.4Zm-.48,6.44c0,.4,0,.82,0,1.27h1.11v-1.59H545.2Zm0-1.94h1.09v-1.44H545.2Zm2.59,0h1.09v-1.44h-1.09Zm1.09,3.2v-1.59h-1.09v1.59Zm1.86.12a10.42,10.42,0,0,0,1.32-3.74l-.4.19a5.41,5.41,0,0,0-.92-1.3Z"/><path class="cls-4" d="M566.38,310.71v10.05h-2.26V303.58h7.33v7.14Zm0-5.39v1h2.93v-1Zm2.93,3.66V307.9h-2.93V309Zm1.17,9.07v1.07h-2.13V312h7.42v6Zm0-4.14v2.26h3.17v-2.26Zm9.8,4.12c0,1.27-.27,1.92-1.07,2.28a9.42,9.42,0,0,1-3.76.44,8.18,8.18,0,0,0-.77-2.34c1.11.08,2.42.06,2.78,0s.5-.12.5-.46v-7.27h-5.2v-7.15h7.52Zm-5.35-12.74v1.05h3v-1.05Zm3,3.7V307.9h-3V309Z"/><path class="cls-4" d="M590,318.16a15.27,15.27,0,0,0,4.26.42c1.3,0,6.54,0,8.11-.08a6.2,6.2,0,0,0-.73,1.88h-7.38c-3.61,0-6-.36-7.52-2.46a7.1,7.1,0,0,1-1.34,3,6.39,6.39,0,0,0-1.32-1.55c1.07-1.32,1.27-3.59,1.32-5.89h1.82c0,.71-.06,1.4-.12,2.09a5.16,5.16,0,0,0,1,1.52v-4.37h-3.55V311h8.59v1.65H590v1.57h2.76v1.65H590Zm2.28-8.23H585.4V303.6h6.89Zm-2.11-4.81h-2.74v.9h2.74Zm0,2.34h-2.74v.94h2.74Zm6.89,8.27a11.26,11.26,0,0,1-3.36,2.8,13.79,13.79,0,0,0-1.46-1.32,8.76,8.76,0,0,0,3-2.07Zm-1-9.44c.12-.33.21-.69.33-1h-3.38v-1.59h8.78v1.59h-3.36l-.46,1h3.26V315h-7.63v-8.71Zm3.07,1.53h-3.49v.88h3.49Zm0,2.36h-3.49v.88h3.49Zm0,2.34h-3.49v.92h3.49Zm.29,2.49a14.27,14.27,0,0,1,2.8,2.42l-1.63,1a15.41,15.41,0,0,0-2.74-2.55Z"/><path class="cls-4" d="M612.12,314.47c1.5-.48,2.36-1.3,2.47-2.32a.73.73,0,0,1-.21,0,1.7,1.7,0,0,1-1.82-1.71,1.75,1.75,0,0,1,1.88-1.73c1.36,0,2.07,1,2.07,2.63a4.81,4.81,0,0,1-3.78,4.64Z"/><path class="cls-4" d="M168.27,338.54a24.35,24.35,0,0,1-1.5,7c1.76,1.52,4.14,1.84,7,1.86,1.11,0,5.08,0,6.39-.06a7.41,7.41,0,0,0-.8,2.09h-5.64c-3.22,0-5.85-.42-7.83-2.05a8.32,8.32,0,0,1-2.11,2.4,7.19,7.19,0,0,0-1.65-1.5,7.68,7.68,0,0,0,2.28-2.53,14.33,14.33,0,0,1-1.69-3.72l1.67-.56a9.58,9.58,0,0,0,.94,2.23,17.07,17.07,0,0,0,.75-3.4H163c.77-1.42,1.75-3.47,2.55-5.39h-2.84v-2h5.91c-.73,1.73-1.63,3.74-2.44,5.39h.46l.38,0Zm4-3.47H169v-1.73h3.26v-1.44h2.15v1.44h4.2v2.57h1.05v1.75h-1.05v2.55h-4.2v.92h4.39v1.65h-4.39v.94h5v1.8h-5v1.3h-2.15v-1.3h-4.24v-1.8h4.24v-.94h-3.47v-1.65h3.47v-.92h-3.36v-1.73h3.36v-.82H168v-1.75h4.32Zm2.15,0v.84h2.21v-.84Zm2.21,2.59h-2.21v.82h2.21Z"/><path class="cls-4" d="M201,346.73v2.32h-17.4v-2.32H193a48.53,48.53,0,0,0,2.47-8.54l2.59.5a79.68,79.68,0,0,1-2.59,8Zm-.81-9.15H184.44v-2.3h7a27.41,27.41,0,0,0-.92-3.07l2.28-.58a25,25,0,0,1,1,3l-2.05.59h8.42Zm-11.76,8.69a57.76,57.76,0,0,0-1.59-7.58l2.3-.56a63.65,63.65,0,0,1,1.75,7.5Z"/><path class="cls-4" d="M212.39,344.72a24.81,24.81,0,0,1-5.79,5.08,16.7,16.7,0,0,0-1.9-1.59,17.46,17.46,0,0,0,5.27-4.45Zm7.79-11.47v9.17H206.64v-9.17Zm-11.18,7h8.71v-4.81H209Zm7.79,3.45a41.27,41.27,0,0,1,5.22,4.66l-2.15,1.34a35.16,35.16,0,0,0-5-4.83Z"/><path class="cls-4" d="M232.71,336.3a12.53,12.53,0,0,1-.77,1.52h8.92v9.48c0,1.13-.21,1.75-1,2.09a8.45,8.45,0,0,1-3.39.38,9.49,9.49,0,0,0-.69-2.21c1,.06,2.09.06,2.42.06s.44-.12.44-.38v-1.15h-7.21a6.68,6.68,0,0,1-2.13,3.82,7.91,7.91,0,0,0-1.65-1.75c1.65-1.44,1.78-3.49,1.78-5.27v-1.55a15.49,15.49,0,0,1-2.38,2.09,13.21,13.21,0,0,0-1.5-1.76,14.52,14.52,0,0,0,4.6-5.35H226v-2.15h5.14a23.47,23.47,0,0,0,.77-2.32l2.36.54c-.19.59-.4,1.19-.61,1.78H243v2.15Zm5.93,7.88v-1.25h-6.89c0,.4,0,.81,0,1.25Zm0-4.35h-6.89V341h6.89Z"/><path class="cls-4" d="M262.64,334.32v15.4H260.2v-.94h-9.11v1h-2.32V334.32h4.91a21.68,21.68,0,0,0,.52-2.51l2.76.31c-.29.77-.59,1.52-.9,2.21Zm-11.55,2.19v2h9.11v-2Zm0,4.09v2h9.11v-2Zm9.11,6.08v-2h-9.11v2Z"/><path class="cls-4" d="M280.82,347.14c1.92,0,2.19-.48,2.44-3.24a8.72,8.72,0,0,0,2.32.86c-.42,3.66-1.27,4.66-4.7,4.66h-6.21c-3.59,0-4.76-.69-4.76-3.43v-6.9h10.93v-3.8H269.68v-2.34h13.6v9.48h-2.44v-1.09h-8.55v4.62c0,1,.34,1.19,2.4,1.19Z"/><path class="cls-4" d="M306.26,338h-4.33v8.73c0,1.44-.31,2.07-1.19,2.44a11,11,0,0,1-4.07.44,9,9,0,0,0-.79-2.44c1.21.06,2.57.06,3,.06s.56-.13.56-.52v-8a27.08,27.08,0,0,1-8.77,9,10.31,10.31,0,0,0-1.82-2.07A22.14,22.14,0,0,0,297,338h-7.58v-2.36h10v-3.76h2.53v3.76h4.33Z"/><path class="cls-4" d="M317.07,339.5c-.13.27-.29.52-.44.79h9v9.53h-2.3v-.69h-6.94v.69h-2.19v-6.31a14.71,14.71,0,0,1-3,2.3,13.18,13.18,0,0,0-1.44-1.84,12.78,12.78,0,0,0,4.68-4.47h-4.08v-1.8h5c.13-.27.25-.56.37-.83h-4.07v-1.73h4.68c.08-.27.15-.54.21-.82-1.59.06-3.18.08-4.68.06a5.89,5.89,0,0,0-.42-1.71,97.13,97.13,0,0,0,13.45-.77l1.34,1.63a64.68,64.68,0,0,1-7.17.69c-.08.31-.17.61-.27.92h7.52v1.73h-8.13c-.1.27-.21.56-.33.83h9.49v1.8ZM323.3,342h-6.94v.82h6.94Zm0,2.24h-6.94v.84h6.94Zm0,3.15v-.88h-6.94v.88Z"/><path class="cls-4" d="M337.37,336.91a20.3,20.3,0,0,1-1.67,2.42v10.42h-2.21v-8a17.84,17.84,0,0,1-1.73,1.55,16.88,16.88,0,0,0-1.09-2.36,17.22,17.22,0,0,0,4.7-4.93Zm-.33-4.16a20.33,20.33,0,0,1-5,4.81,14.13,14.13,0,0,0-1.13-1.94,13.68,13.68,0,0,0,4-3.76Zm11.66,12h-2.63v2.72c0,1.06-.19,1.59-.94,1.92a7.59,7.59,0,0,1-3,.33,8,8,0,0,0-.71-2c.81,0,1.71,0,2,0s.35-.1.35-.31v-2.67h-4a20.14,20.14,0,0,1,2.19,2.4l-1.71,1.21a16.16,16.16,0,0,0-2.21-2.67l1.42-.94h-2.69v-1.94h7v-1.09h-6.56v-1.86H348.3v1.86h-2.23v1.09h2.61Zm-1-5.73h-9.5v-6.64h9.5Zm-2.3-5h-5v1h5Zm0,2.46h-5v1h5Z"/><path class="cls-4" d="M367.14,347.44c.65,0,.77-.33.86-2.55a7.26,7.26,0,0,0,2.09.9c-.25,3-.84,3.82-2.74,3.82h-2.53c-2.28,0-2.82-.69-2.82-2.84V343.7h-2.32c-.4,3-1.53,5.06-6.27,6.14a7.22,7.22,0,0,0-1.27-2c3.93-.73,4.76-2,5.08-4.1h-2.34V332.45h12.54V343.7H364.3v3c0,.61.12.69.84.69Zm-10.05-11.81h8v-1.19h-8Zm0,3h8v-1.19h-8Zm0,3h8v-1.19h-8Z"/><path class="cls-4" d="M390.68,334.8s0,.77,0,1c-.25,8.57-.46,11.62-1.25,12.64a2.56,2.56,0,0,1-1.84,1.05,21.5,21.5,0,0,1-3,0,5.36,5.36,0,0,0-.75-2.23c1.23.12,2.36.12,2.86.12a1,1,0,0,0,.84-.33c.56-.61.81-3.49,1-10.26h-4.1a16.56,16.56,0,0,1-1.69,3,14.25,14.25,0,0,0-1.48-1.07v9h-5.12v1.4h-2.07V334.94h2.17a20.67,20.67,0,0,0,.56-3.09l2.49.35c-.33,1-.67,1.92-1,2.74h3V338a19.83,19.83,0,0,0,2.59-6.18l2.17.5a22.53,22.53,0,0,1-.75,2.44Zm-11.49,2.13h-3V340h3Zm0,8.84V342h-3v3.76Zm6.37-1a40.92,40.92,0,0,0-2.67-4.43l1.78-1a46.31,46.31,0,0,1,2.82,4.26Z"/><path class="cls-4" d="M410.31,347.75c.27,0,.33-.21.36-2.42a5.29,5.29,0,0,0,1.59.75c-.17,2.78-.61,3.47-1.75,3.47h-.92c-1.38,0-1.67-.58-1.67-2.28v-3.76h-.79c-.23,2.72-.9,4.91-3.32,6.29a6.8,6.8,0,0,0-.61-1V349h-5.75v.82h-1.63v-5.93a8.37,8.37,0,0,1-.69.86,15,15,0,0,0-.88-1.57,13.67,13.67,0,0,0,2.3-3.76H395v-3.64h3.72v3.64h-1.55l.88.33c-.13.31-.27.63-.42,1h1.65a5.72,5.72,0,0,0-.4-.84l1.17-.46h-.56v-3.64h3.7v3.64h-2.86a5.39,5.39,0,0,1,.61,1.3h2.38v1.52h-2.4v.73h2v1.42h-2v.81h2.15v1.42h-2.15v.86h2.28v.33a5.36,5.36,0,0,0,2-4.24H404v-11h7.33v11h-1.63v3.72c0,.46,0,.52.23.52Zm-13.54-13.31h-2.42v-1.61h2.42v-1h1.75v3.55h-1.75Zm-.54,3.8h1.19v-1.36h-1.19Zm3,4h-1.73v.73h1.73Zm0,2.15h-1.73v.81h1.73Zm-1.73,3.09h1.73v-.86h-1.73Zm4-12H399.7v-3.55h1.78v.94h2.15v1.61h-2.15Zm-.79,2.78h1.21v-1.3H400.7Zm5.16-2.57h3.43V334.5h-3.43Zm0,2.93h3.43v-1.13h-3.43Zm0,2.93h3.43v-1.15h-3.43Z"/><path class="cls-4" d="M415.28,349a6.91,6.91,0,0,0,1.3-3.4l1.53.46a7.46,7.46,0,0,1-1.36,3.7Zm.42-5.75,3.41-.1v-.92h-3V340.5h3v-.84h-3v-7.23h8.11v7.23h-3.11v.84h3.07v1.73h-3.07v.84l3.38-.13,0,1.76c-3.11.19-6.39.36-8.71.46Zm2.13-5.12h1.61V334h-1.61v.81l.9-.27a12.48,12.48,0,0,1,.61,2.76l-1,.31a12.15,12.15,0,0,0-.5-2.67Zm1.82,7.42a19.93,19.93,0,0,1,.4,3.36l-1.48.17a16.41,16.41,0,0,0-.33-3.36Zm1.88-.17a17.4,17.4,0,0,1,.83,3.18l-1.4.29a16.17,16.17,0,0,0-.79-3.2Zm.94-11.41h-1.65v3.16a19.62,19.62,0,0,0,.73-2.65l.92.33Zm0,4.16V335.4c-.31.81-.61,1.63-.86,2.19l-.79-.29v.82Zm.92,6.85a12.24,12.24,0,0,1,1.48,3l-1.44.59a13.4,13.4,0,0,0-1.4-3.07Zm6.25-7.06v3h3.07v8.8h-2.19V349H427v.75h-2.07v-8.88h2.51v-9h2.22v3.93h3.7v2.11Zm.88,5H427v4h3.55Z"/><path class="cls-4" d="M442.52,346.52a1.76,1.76,0,1,1,1.75,1.84A1.76,1.76,0,0,1,442.52,346.52Zm.42-10.34-.1-2.67h2.84l-.1,2.67-.4,7.08h-1.84Z"/><path class="cls-6" d="M130.28,279.39h16.66v6.37h-9.65V310.5h-7Z"/><path class="cls-6" d="M643.28,362.31H626.62v-6.37h9.65V331.19h7Z"/></svg>